<svg width="519" height="41" viewBox="0 0 519 41" fill="none" xmlns="http://www.w3.org/2000/svg">
<path d="M34.411 17.3254H30.5692C30.499 16.8283 30.3558 16.3869 30.1394 16.0009C29.9231 15.6091 29.6453 15.2758 29.3061 15.001C28.967 14.7262 28.5752 14.5156 28.1308 14.3695C27.6922 14.2233 27.2156 14.1502 26.7011 14.1502C25.7713 14.1502 24.9614 14.3812 24.2714 14.8431C23.5814 15.2992 23.0464 15.9658 22.6663 16.843C22.2862 17.7143 22.0961 18.7727 22.0961 20.0182C22.0961 21.2988 22.2862 22.3747 22.6663 23.246C23.0522 24.1173 23.5902 24.7752 24.2802 25.2196C24.9702 25.664 25.7684 25.8862 26.6748 25.8862C27.1835 25.8862 27.6542 25.8189 28.0869 25.6844C28.5255 25.55 28.9144 25.3541 29.2535 25.0968C29.5927 24.8336 29.8734 24.5149 30.0956 24.1407C30.3236 23.7665 30.4815 23.3396 30.5692 22.8601L34.411 22.8776C34.3116 23.7021 34.0631 24.4974 33.6655 25.2634C33.2737 26.0236 32.7445 26.7048 32.0779 27.3071C31.4171 27.9036 30.6277 28.3772 29.7096 28.7281C28.7974 29.0731 27.7653 29.2456 26.6134 29.2456C25.0111 29.2456 23.5785 28.883 22.3154 28.158C21.0582 27.4329 20.0641 26.3832 19.3332 25.0091C18.6081 23.6349 18.2455 21.9713 18.2455 20.0182C18.2455 18.0593 18.6139 16.3927 19.3507 15.0185C20.0875 13.6444 21.0874 12.5977 22.3505 11.8784C23.6136 11.1533 25.0345 10.7908 26.6134 10.7908C27.6542 10.7908 28.6191 10.937 29.5079 11.2293C30.4026 11.5217 31.1949 11.9486 31.8849 12.5099C32.5749 13.0655 33.1363 13.7467 33.569 14.5537C34.0076 15.3606 34.2882 16.2845 34.411 17.3254ZM37.0644 34.0523V15.5273H40.7483V17.7903H40.915C41.0787 17.4277 41.3155 17.0593 41.6254 16.6851C41.9412 16.305 42.3505 15.9892 42.8534 15.7378C43.3622 15.4805 43.9937 15.3518 44.748 15.3518C45.7304 15.3518 46.6368 15.6091 47.4671 16.1237C48.2975 16.6325 48.9612 17.4014 49.4582 18.4306C49.9553 19.4539 50.2038 20.7374 50.2038 22.2812C50.2038 23.784 49.9611 25.0529 49.4758 26.0879C48.9963 27.1171 48.3413 27.8977 47.511 28.4299C46.6865 28.9561 45.7626 29.2193 44.7393 29.2193C44.0142 29.2193 43.3972 29.0994 42.8885 28.8597C42.3856 28.6199 41.9734 28.3188 41.6518 27.9562C41.3301 27.5878 41.0845 27.2165 40.915 26.8423H40.8009V34.0523H37.0644ZM40.722 22.2636C40.722 23.0647 40.8331 23.7635 41.0553 24.36C41.2775 24.9564 41.5991 25.4213 42.0202 25.7546C42.4412 26.0821 42.9528 26.2458 43.5551 26.2458C44.1633 26.2458 44.6779 26.0792 45.0989 25.7458C45.5199 25.4067 45.8386 24.9389 46.055 24.3424C46.2772 23.7401 46.3883 23.0472 46.3883 22.2636C46.3883 21.4859 46.2801 20.8018 46.0637 20.2112C45.8474 19.6205 45.5287 19.1586 45.1077 18.8253C44.6866 18.492 44.1691 18.3253 43.5551 18.3253C42.947 18.3253 42.4324 18.4861 42.0114 18.8077C41.5962 19.1294 41.2775 19.5855 41.0553 20.1761C40.8331 20.7667 40.722 21.4625 40.722 22.2636ZM58.8347 29.2631C57.4489 29.2631 56.256 28.9825 55.2561 28.4211C54.262 27.8539 53.4959 27.0528 52.958 26.0178C52.42 24.9769 52.151 23.746 52.151 22.325C52.151 20.9392 52.42 19.7229 52.958 18.6762C53.4959 17.6295 54.2532 16.8137 55.2297 16.229C56.2121 15.6442 57.3641 15.3518 58.6856 15.3518C59.5745 15.3518 60.4019 15.4951 61.1679 15.7816C61.9398 16.0623 62.6123 16.4863 63.1853 17.0535C63.7642 17.6207 64.2145 18.3341 64.5361 19.1937C64.8577 20.0474 65.0185 21.0473 65.0185 22.1935V23.2197H53.6421V20.9041H61.5012C61.5012 20.3661 61.3843 19.8895 61.1504 19.4744C60.9165 19.0592 60.5919 18.7346 60.1768 18.5007C59.7674 18.261 59.2909 18.1411 58.747 18.1411C58.1798 18.1411 57.6769 18.2727 57.2384 18.5358C56.8057 18.7931 56.4665 19.1411 56.2209 19.5796C55.9753 20.0123 55.8496 20.4948 55.8437 21.0269V23.2285C55.8437 23.8951 55.9665 24.4711 56.2121 24.9564C56.4636 25.4418 56.8173 25.816 57.2735 26.0792C57.7296 26.3423 58.2705 26.4739 58.8961 26.4739C59.3113 26.4739 59.6914 26.4154 60.0364 26.2984C60.3814 26.1815 60.6767 26.0061 60.9223 25.7722C61.1679 25.5383 61.355 25.2517 61.4837 24.9126L64.9396 25.1406C64.7642 25.971 64.4045 26.6961 63.8607 27.3159C63.3227 27.9299 62.6269 28.4094 61.7731 28.7544C60.9252 29.0936 59.9458 29.2631 58.8347 29.2631ZM66.4044 32.9471V26.0353H67.4394C67.7376 25.8482 67.9774 25.55 68.1586 25.1406C68.3458 24.7313 68.4978 24.2489 68.6148 23.6934C68.7376 23.1378 68.8311 22.5385 68.8954 21.8952C68.9656 21.2462 69.027 20.5912 69.0796 19.9305L69.4305 15.5273H79.7631V26.0353H81.8507V32.9471H78.2895V29H70.0532V32.9471H66.4044ZM71.1584 26.0353H76.237V18.4043H72.6057L72.4654 19.9305C72.366 21.369 72.2227 22.5911 72.0356 23.5969C71.8484 24.5968 71.5561 25.4096 71.1584 26.0353ZM93.4047 20.7725V23.7109H86.3701V20.7725H93.4047ZM87.5981 15.5273V29H84.0281V15.5273H87.5981ZM95.7466 15.5273V29H92.203V15.5273H95.7466ZM104.785 29.2631C103.4 29.2631 102.207 28.9825 101.207 28.4211C100.213 27.8539 99.4466 27.0528 98.9087 26.0178C98.3707 24.9769 98.1017 23.746 98.1017 22.325C98.1017 20.9392 98.3707 19.7229 98.9087 18.6762C99.4466 17.6295 100.204 16.8137 101.18 16.229C102.163 15.6442 103.315 15.3518 104.636 15.3518C105.525 15.3518 106.353 15.4951 107.119 15.7816C107.89 16.0623 108.563 16.4863 109.136 17.0535C109.715 17.6207 110.165 18.3341 110.487 19.1937C110.808 20.0474 110.969 21.0473 110.969 22.1935V23.2197H99.5928V20.9041H107.452C107.452 20.3661 107.335 19.8895 107.101 19.4744C106.867 19.0592 106.543 18.7346 106.127 18.5007C105.718 18.261 105.242 18.1411 104.698 18.1411C104.131 18.1411 103.628 18.2727 103.189 18.5358C102.756 18.7931 102.417 19.1411 102.172 19.5796C101.926 20.0123 101.8 20.4948 101.794 21.0269V23.2285C101.794 23.8951 101.917 24.4711 102.163 24.9564C102.414 25.4418 102.768 25.816 103.224 26.0792C103.68 26.3423 104.221 26.4739 104.847 26.4739C105.262 26.4739 105.642 26.4154 105.987 26.2984C106.332 26.1815 106.627 26.0061 106.873 25.7722C107.119 25.5383 107.306 25.2517 107.434 24.9126L110.89 25.1406C110.715 25.971 110.355 26.6961 109.811 27.3159C109.273 27.9299 108.578 28.4094 107.724 28.7544C106.876 29.0936 105.896 29.2631 104.785 29.2631ZM119.548 29.2631C118.162 29.2631 116.969 28.9825 115.969 28.4211C114.975 27.8539 114.209 27.0528 113.671 26.0178C113.133 24.9769 112.864 23.746 112.864 22.325C112.864 20.9392 113.133 19.7229 113.671 18.6762C114.209 17.6295 114.966 16.8137 115.943 16.229C116.925 15.6442 118.077 15.3518 119.398 15.3518C120.287 15.3518 121.115 15.4951 121.881 15.7816C122.653 16.0623 123.325 16.4863 123.898 17.0535C124.477 17.6207 124.927 18.3341 125.249 19.1937C125.571 20.0474 125.731 21.0473 125.731 22.1935V23.2197H114.355V20.9041H122.214C122.214 20.3661 122.097 19.8895 121.863 19.4744C121.629 19.0592 121.305 18.7346 120.89 18.5007C120.48 18.261 120.004 18.1411 119.46 18.1411C118.893 18.1411 118.39 18.2727 117.951 18.5358C117.518 18.7931 117.179 19.1411 116.934 19.5796C116.688 20.0123 116.562 20.4948 116.557 21.0269V23.2285C116.557 23.8951 116.679 24.4711 116.925 24.9564C117.176 25.4418 117.53 25.816 117.986 26.0792C118.442 26.3423 118.983 26.4739 119.609 26.4739C120.024 26.4739 120.404 26.4154 120.749 26.2984C121.094 26.1815 121.39 26.0061 121.635 25.7722C121.881 25.5383 122.068 25.2517 122.196 24.9126L125.652 25.1406C125.477 25.971 125.117 26.6961 124.574 27.3159C124.036 27.9299 123.34 28.4094 122.486 28.7544C121.638 29.0936 120.659 29.2631 119.548 29.2631ZM133.957 29V11.0364H137.755V18.4481H145.465V11.0364H149.254V29H145.465V21.5795H137.755V29H133.957ZM158.402 29.2631C157.04 29.2631 155.861 28.9737 154.867 28.3948C153.879 27.81 153.116 26.9972 152.578 25.9564C152.04 24.9096 151.771 23.6963 151.771 22.3163C151.771 20.9245 152.04 19.7083 152.578 18.6674C153.116 17.6207 153.879 16.8079 154.867 16.229C155.861 15.6442 157.04 15.3518 158.402 15.3518C159.765 15.3518 160.94 15.6442 161.928 16.229C162.922 16.8079 163.688 17.6207 164.226 18.6674C164.764 19.7083 165.033 20.9245 165.033 22.3163C165.033 23.6963 164.764 24.9096 164.226 25.9564C163.688 26.9972 162.922 27.81 161.928 28.3948C160.94 28.9737 159.765 29.2631 158.402 29.2631ZM158.42 26.3686C159.04 26.3686 159.557 26.1932 159.972 25.8423C160.387 25.4856 160.7 25.0003 160.911 24.3863C161.127 23.7723 161.235 23.0735 161.235 22.2899C161.235 21.5064 161.127 20.8076 160.911 20.1936C160.7 19.5796 160.387 19.0943 159.972 18.7376C159.557 18.3809 159.04 18.2025 158.42 18.2025C157.794 18.2025 157.268 18.3809 156.841 18.7376C156.42 19.0943 156.101 19.5796 155.885 20.1936C155.674 20.8076 155.569 21.5064 155.569 22.2899C155.569 23.0735 155.674 23.7723 155.885 24.3863C156.101 25.0003 156.42 25.4856 156.841 25.8423C157.268 26.1932 157.794 26.3686 158.42 26.3686ZM167.463 29V15.5273H173.208C174.869 15.5273 176.182 15.843 177.147 16.4746C178.111 17.1061 178.594 18.0037 178.594 19.1674C178.594 19.8983 178.322 20.5065 177.778 20.9918C177.234 21.4771 176.48 21.8046 175.515 21.9742C176.322 22.0327 177.009 22.2169 177.576 22.5268C178.149 22.8308 178.585 23.2256 178.883 23.7109C179.187 24.1962 179.339 24.7342 179.339 25.3248C179.339 26.0908 179.135 26.7487 178.725 27.2984C178.322 27.848 177.728 28.2691 176.945 28.5614C176.167 28.8538 175.217 29 174.094 29H167.463ZM170.945 26.202H174.094C174.615 26.202 175.021 26.0792 175.313 25.8336C175.612 25.5821 175.761 25.24 175.761 24.8073C175.761 24.3278 175.612 23.9507 175.313 23.6758C175.021 23.401 174.615 23.2636 174.094 23.2636H170.945V26.202ZM170.945 21.0707H173.287C173.661 21.0707 173.98 21.0181 174.243 20.9129C174.512 20.8018 174.717 20.6439 174.857 20.4392C175.003 20.2345 175.076 19.9919 175.076 19.7112C175.076 19.296 174.91 18.9715 174.577 18.7376C174.243 18.5037 173.787 18.3867 173.208 18.3867H170.945V21.0707ZM184.036 19.6673H188.062C189.846 19.6673 191.238 20.0942 192.238 20.9479C193.237 21.7958 193.737 22.9303 193.737 24.3512C193.737 25.2751 193.512 26.0879 193.062 26.7896C192.612 27.4855 191.963 28.0293 191.115 28.4211C190.267 28.807 189.249 29 188.062 29H181.694V15.5273H185.264V26.0616H188.062C188.688 26.0616 189.203 25.9037 189.606 25.588C190.01 25.2722 190.214 24.8687 190.22 24.3775C190.214 23.8571 190.01 23.4331 189.606 23.1057C189.203 22.7724 188.688 22.6057 188.062 22.6057H184.036V19.6673ZM195.185 29V15.5273H198.921V29H195.185ZM205.031 15.5273L207.504 20.2375L210.039 15.5273H213.872L209.969 22.2636L213.977 29H210.162L207.504 24.3424L204.89 29H201.031L205.031 22.2636L201.171 15.5273H205.031ZM237.149 11.0364V29H233.395V14.1239H226.132V29H222.378V11.0364H237.149ZM246.782 29.2631C245.419 29.2631 244.241 28.9737 243.247 28.3948C242.259 27.81 241.496 26.9972 240.958 25.9564C240.42 24.9096 240.151 23.6963 240.151 22.3163C240.151 20.9245 240.42 19.7083 240.958 18.6674C241.496 17.6207 242.259 16.8079 243.247 16.229C244.241 15.6442 245.419 15.3518 246.782 15.3518C248.144 15.3518 249.32 15.6442 250.308 16.229C251.302 16.8079 252.068 17.6207 252.606 18.6674C253.144 19.7083 253.413 20.9245 253.413 22.3163C253.413 23.6963 253.144 24.9096 252.606 25.9564C252.068 26.9972 251.302 27.81 250.308 28.3948C249.32 28.9737 248.144 29.2631 246.782 29.2631ZM246.799 26.3686C247.419 26.3686 247.937 26.1932 248.352 25.8423C248.767 25.4856 249.08 25.0003 249.291 24.3863C249.507 23.7723 249.615 23.0735 249.615 22.2899C249.615 21.5064 249.507 20.8076 249.291 20.1936C249.08 19.5796 248.767 19.0943 248.352 18.7376C247.937 18.3809 247.419 18.2025 246.799 18.2025C246.174 18.2025 245.648 18.3809 245.221 18.7376C244.8 19.0943 244.481 19.5796 244.265 20.1936C244.054 20.8076 243.949 21.5064 243.949 22.2899C243.949 23.0735 244.054 23.7723 244.265 24.3863C244.481 25.0003 244.8 25.4856 245.221 25.8423C245.648 26.1932 246.174 26.3686 246.799 26.3686ZM255.053 29L255.036 26.0353H255.483C255.799 26.0353 256.071 25.9593 256.299 25.8072C256.533 25.6494 256.726 25.395 256.878 25.0441C257.03 24.6933 257.15 24.2284 257.237 23.6495C257.325 23.0647 257.384 22.3455 257.413 21.4918L257.632 15.5273H267.877V29H264.316V18.4657H260.991L260.781 22.5794C260.728 23.708 260.591 24.6787 260.369 25.4915C260.152 26.3043 259.851 26.9709 259.465 27.4913C259.079 28.0059 258.614 28.386 258.071 28.6316C257.527 28.8772 256.895 29 256.176 29H255.053ZM273.116 19.6673H277.142C278.925 19.6673 280.317 20.0942 281.317 20.9479C282.317 21.7958 282.817 22.9303 282.817 24.3512C282.817 25.2751 282.592 26.0879 282.141 26.7896C281.691 27.4855 281.042 28.0293 280.194 28.4211C279.346 28.807 278.329 29 277.142 29H270.774V15.5273H274.344V26.0616H277.142C277.767 26.0616 278.282 25.9037 278.685 25.588C279.089 25.2722 279.294 24.8687 279.299 24.3775C279.294 23.8571 279.089 23.4331 278.685 23.1057C278.282 22.7724 277.767 22.6057 277.142 22.6057H273.116V19.6673ZM284.602 25.1845H288.224C288.242 25.6289 288.441 25.9797 288.821 26.237C289.201 26.4943 289.692 26.623 290.294 26.623C290.902 26.623 291.414 26.4826 291.829 26.202C292.244 25.9154 292.452 25.5061 292.452 24.974C292.452 24.6465 292.37 24.3629 292.206 24.1232C292.043 23.8776 291.815 23.6846 291.522 23.5442C291.23 23.4039 290.891 23.3337 290.505 23.3337H288.566V20.8865H290.505C291.084 20.8865 291.528 20.752 291.838 20.4831C292.154 20.2141 292.312 19.8778 292.312 19.4744C292.312 19.0183 292.148 18.6528 291.82 18.3779C291.499 18.0973 291.063 17.9569 290.513 17.9569C289.958 17.9569 289.496 18.0826 289.128 18.3341C288.765 18.5797 288.578 18.9013 288.566 19.2989H284.961C284.973 18.492 285.216 17.7932 285.689 17.2026C286.169 16.612 286.812 16.1559 287.619 15.8343C288.432 15.5127 289.341 15.3518 290.347 15.3518C291.446 15.3518 292.393 15.5068 293.189 15.8167C293.99 16.1208 294.604 16.5564 295.031 17.1236C295.463 17.6909 295.68 18.3663 295.68 19.1498C295.68 19.8632 295.446 20.4597 294.978 20.9392C294.51 21.4187 293.855 21.7607 293.013 21.9654V22.1058C293.569 22.1408 294.072 22.2899 294.522 22.5531C294.972 22.8162 295.332 23.1788 295.601 23.6407C295.87 24.0968 296.004 24.6377 296.004 25.2634C296.004 26.0996 295.759 26.8159 295.268 27.4124C294.782 28.0088 294.11 28.4679 293.25 28.7895C292.396 29.1053 291.417 29.2631 290.312 29.2631C289.236 29.2631 288.271 29.1082 287.417 28.7983C286.569 28.4825 285.894 28.0205 285.391 27.4124C284.894 26.8042 284.631 26.0616 284.602 25.1845ZM304.383 29.2631C303.021 29.2631 301.842 28.9737 300.848 28.3948C299.86 27.81 299.097 26.9972 298.559 25.9564C298.021 24.9096 297.752 23.6963 297.752 22.3163C297.752 20.9245 298.021 19.7083 298.559 18.6674C299.097 17.6207 299.86 16.8079 300.848 16.229C301.842 15.6442 303.021 15.3518 304.383 15.3518C305.746 15.3518 306.921 15.6442 307.909 16.229C308.903 16.8079 309.669 17.6207 310.207 18.6674C310.745 19.7083 311.014 20.9245 311.014 22.3163C311.014 23.6963 310.745 24.9096 310.207 25.9564C309.669 26.9972 308.903 27.81 307.909 28.3948C306.921 28.9737 305.746 29.2631 304.383 29.2631ZM304.401 26.3686C305.02 26.3686 305.538 26.1932 305.953 25.8423C306.368 25.4856 306.681 25.0003 306.892 24.3863C307.108 23.7723 307.216 23.0735 307.216 22.2899C307.216 21.5064 307.108 20.8076 306.892 20.1936C306.681 19.5796 306.368 19.0943 305.953 18.7376C305.538 18.3809 305.02 18.2025 304.401 18.2025C303.775 18.2025 303.249 18.3809 302.822 18.7376C302.401 19.0943 302.082 19.5796 301.866 20.1936C301.655 20.8076 301.55 21.5064 301.55 22.2899C301.55 23.0735 301.655 23.7723 301.866 24.3863C302.082 25.0003 302.401 25.4856 302.822 25.8423C303.249 26.1932 303.775 26.3686 304.401 26.3686ZM313.444 29V15.5273H319.189C320.85 15.5273 322.163 15.843 323.127 16.4746C324.092 17.1061 324.575 18.0037 324.575 19.1674C324.575 19.8983 324.303 20.5065 323.759 20.9918C323.215 21.4771 322.461 21.8046 321.496 21.9742C322.303 22.0327 322.99 22.2169 323.557 22.5268C324.13 22.8308 324.566 23.2256 324.864 23.7109C325.168 24.1962 325.32 24.7342 325.32 25.3248C325.32 26.0908 325.116 26.7487 324.706 27.2984C324.303 27.848 323.709 28.2691 322.926 28.5614C322.148 28.8538 321.198 29 320.075 29H313.444ZM316.926 26.202H320.075C320.595 26.202 321.002 26.0792 321.294 25.8336C321.592 25.5821 321.742 25.24 321.742 24.8073C321.742 24.3278 321.592 23.9507 321.294 23.6758C321.002 23.401 320.595 23.2636 320.075 23.2636H316.926V26.202ZM316.926 21.0707H319.268C319.642 21.0707 319.961 21.0181 320.224 20.9129C320.493 20.8018 320.698 20.6439 320.838 20.4392C320.984 20.2345 321.057 19.9919 321.057 19.7112C321.057 19.296 320.891 18.9715 320.557 18.7376C320.224 18.5037 319.768 18.3867 319.189 18.3867H316.926V21.0707ZM331.517 29.2544C330.658 29.2544 329.892 29.1053 329.219 28.807C328.547 28.503 328.014 28.0556 327.623 27.465C327.237 26.8686 327.044 26.1259 327.044 25.2371C327.044 24.4886 327.181 23.86 327.456 23.3513C327.731 22.8425 328.105 22.4332 328.579 22.1233C329.052 21.8134 329.59 21.5795 330.193 21.4216C330.801 21.2637 331.438 21.1526 332.105 21.0883C332.888 21.0064 333.52 20.9304 333.999 20.8602C334.479 20.7842 334.827 20.6731 335.043 20.5269C335.26 20.3807 335.368 20.1644 335.368 19.8778V19.8252C335.368 19.2697 335.192 18.8399 334.841 18.5358C334.496 18.2318 334.005 18.0797 333.368 18.0797C332.695 18.0797 332.16 18.2288 331.763 18.5271C331.365 18.8194 331.102 19.1878 330.973 19.6322L327.517 19.3516C327.693 18.5329 328.038 17.8254 328.552 17.2289C329.067 16.6266 329.731 16.1647 330.544 15.843C331.362 15.5156 332.31 15.3518 333.385 15.3518C334.134 15.3518 334.85 15.4396 335.534 15.615C336.224 15.7904 336.835 16.0623 337.368 16.4307C337.906 16.7991 338.33 17.2728 338.639 17.8517C338.949 18.4247 339.104 19.1118 339.104 19.9129V29H335.561V27.1317H335.455C335.239 27.5527 334.95 27.9241 334.587 28.2457C334.225 28.5614 333.789 28.81 333.28 28.9912C332.771 29.1667 332.184 29.2544 331.517 29.2544ZM332.587 26.6756C333.137 26.6756 333.622 26.5674 334.043 26.3511C334.464 26.1289 334.795 25.8306 335.034 25.4564C335.274 25.0821 335.394 24.6582 335.394 24.1846V22.7548C335.277 22.8308 335.116 22.901 334.912 22.9653C334.713 23.0238 334.488 23.0794 334.236 23.132C333.985 23.1788 333.733 23.2226 333.482 23.2636C333.23 23.2987 333.002 23.3308 332.798 23.36C332.359 23.4244 331.976 23.5267 331.649 23.667C331.321 23.8074 331.067 23.9974 330.886 24.2372C330.704 24.4711 330.614 24.7635 330.614 25.1143C330.614 25.623 330.798 26.0119 331.166 26.2809C331.541 26.544 332.014 26.6756 332.587 26.6756ZM340.65 18.4657V15.5273H352.86V18.4657H348.518V29H344.957V18.4657H340.65ZM360.783 29.2631C359.397 29.2631 358.204 28.9825 357.204 28.4211C356.21 27.8539 355.444 27.0528 354.906 26.0178C354.368 24.9769 354.099 23.746 354.099 22.325C354.099 20.9392 354.368 19.7229 354.906 18.6762C355.444 17.6295 356.201 16.8137 357.178 16.229C358.16 15.6442 359.312 15.3518 360.634 15.3518C361.522 15.3518 362.35 15.4951 363.116 15.7816C363.888 16.0623 364.56 16.4863 365.133 17.0535C365.712 17.6207 366.162 18.3341 366.484 19.1937C366.806 20.0474 366.966 21.0473 366.966 22.1935V23.2197H355.59V20.9041H363.449C363.449 20.3661 363.332 19.8895 363.098 19.4744C362.864 19.0592 362.54 18.7346 362.125 18.5007C361.715 18.261 361.239 18.1411 360.695 18.1411C360.128 18.1411 359.625 18.2727 359.186 18.5358C358.754 18.7931 358.414 19.1411 358.169 19.5796C357.923 20.0123 357.797 20.4948 357.792 21.0269V23.2285C357.792 23.8951 357.914 24.4711 358.16 24.9564C358.411 25.4418 358.765 25.816 359.221 26.0792C359.677 26.3423 360.218 26.4739 360.844 26.4739C361.259 26.4739 361.639 26.4154 361.984 26.2984C362.329 26.1815 362.625 26.0061 362.87 25.7722C363.116 25.5383 363.303 25.2517 363.432 24.9126L366.887 25.1406C366.712 25.971 366.352 26.6961 365.809 27.3159C365.271 27.9299 364.575 28.4094 363.721 28.7544C362.873 29.0936 361.894 29.2631 360.783 29.2631ZM368.615 29L368.598 26.0353H369.045C369.361 26.0353 369.633 25.9593 369.861 25.8072C370.095 25.6494 370.288 25.395 370.44 25.0441C370.592 24.6933 370.712 24.2284 370.799 23.6495C370.887 23.0647 370.946 22.3455 370.975 21.4918L371.194 15.5273H381.439V29H377.878V18.4657H374.554L374.343 22.5794C374.29 23.708 374.153 24.6787 373.931 25.4915C373.714 26.3043 373.413 26.9709 373.027 27.4913C372.641 28.0059 372.177 28.386 371.633 28.6316C371.089 28.8772 370.457 29 369.738 29H368.615ZM390.476 29.2631C389.09 29.2631 387.897 28.9825 386.897 28.4211C385.903 27.8539 385.137 27.0528 384.599 26.0178C384.061 24.9769 383.792 23.746 383.792 22.325C383.792 20.9392 384.061 19.7229 384.599 18.6762C385.137 17.6295 385.894 16.8137 386.871 16.229C387.853 15.6442 389.005 15.3518 390.327 15.3518C391.215 15.3518 392.043 15.4951 392.809 15.7816C393.581 16.0623 394.253 16.4863 394.826 17.0535C395.405 17.6207 395.855 18.3341 396.177 19.1937C396.499 20.0474 396.659 21.0473 396.659 22.1935V23.2197H385.283V20.9041H393.142C393.142 20.3661 393.025 19.8895 392.791 19.4744C392.557 19.0592 392.233 18.7346 391.818 18.5007C391.408 18.261 390.932 18.1411 390.388 18.1411C389.821 18.1411 389.318 18.2727 388.879 18.5358C388.447 18.7931 388.107 19.1411 387.862 19.5796C387.616 20.0123 387.491 20.4948 387.485 21.0269V23.2285C387.485 23.8951 387.607 24.4711 387.853 24.9564C388.104 25.4418 388.458 25.816 388.914 26.0792C389.37 26.3423 389.911 26.4739 390.537 26.4739C390.952 26.4739 391.332 26.4154 391.677 26.2984C392.022 26.1815 392.318 26.0061 392.563 25.7722C392.809 25.5383 392.996 25.2517 393.125 24.9126L396.581 25.1406C396.405 25.971 396.045 26.6961 395.502 27.3159C394.964 27.9299 394.268 28.4094 393.414 28.7544C392.566 29.0936 391.587 29.2631 390.476 29.2631ZM402.668 24.0705L407.518 15.5273H411.202V29H407.641V20.4304L402.808 29H399.098V15.5273H402.668V24.0705ZM406.878 10.8259H409.483C409.477 11.8901 409.083 12.7468 408.299 13.3958C407.521 14.0449 406.469 14.3695 405.141 14.3695C403.808 14.3695 402.753 14.0449 401.975 13.3958C401.197 12.7468 400.808 11.8901 400.808 10.8259H403.396C403.39 11.2293 403.519 11.5919 403.782 11.9135C404.051 12.2351 404.504 12.3959 405.141 12.3959C405.761 12.3959 406.206 12.238 406.475 11.9223C406.744 11.6065 406.878 11.241 406.878 10.8259ZM419.914 29V15.5273H425.66C427.32 15.5273 428.633 15.843 429.598 16.4746C430.563 17.1061 431.045 18.0037 431.045 19.1674C431.045 19.8983 430.773 20.5065 430.229 20.9918C429.686 21.4771 428.931 21.8046 427.966 21.9742C428.773 22.0327 429.46 22.2169 430.028 22.5268C430.601 22.8308 431.036 23.2256 431.335 23.7109C431.639 24.1962 431.791 24.7342 431.791 25.3248C431.791 26.0908 431.586 26.7487 431.177 27.2984C430.773 27.848 430.18 28.2691 429.396 28.5614C428.618 28.8538 427.668 29 426.545 29H419.914ZM423.397 26.202H426.545C427.066 26.202 427.472 26.0792 427.765 25.8336C428.063 25.5821 428.212 25.24 428.212 24.8073C428.212 24.3278 428.063 23.9507 427.765 23.6758C427.472 23.401 427.066 23.2636 426.545 23.2636H423.397V26.202ZM423.397 21.0707H425.739C426.113 21.0707 426.431 21.0181 426.695 20.9129C426.964 20.8018 427.168 20.6439 427.309 20.4392C427.455 20.2345 427.528 19.9919 427.528 19.7112C427.528 19.296 427.361 18.9715 427.028 18.7376C426.695 18.5037 426.238 18.3867 425.66 18.3867H423.397V21.0707ZM438.959 33.333V25.9739H440.178C440.593 25.6757 440.974 25.2547 441.319 24.7108C441.664 24.1612 441.959 23.4039 442.204 22.4391C442.45 21.4684 442.625 20.1995 442.731 18.6323L443.239 11.0364H455.125V25.9739H457.089V33.3155H453.441V29H442.608V33.333H438.959ZM444.564 25.9739H451.476V14.1677H446.66L446.38 18.6323C446.304 19.8194 446.178 20.8719 446.002 21.79C445.833 22.708 445.625 23.5121 445.38 24.2021C445.14 24.8863 444.868 25.4769 444.564 25.9739ZM465.468 29.2631C464.082 29.2631 462.889 28.9825 461.889 28.4211C460.895 27.8539 460.129 27.0528 459.591 26.0178C459.053 24.9769 458.784 23.746 458.784 22.325C458.784 20.9392 459.053 19.7229 459.591 18.6762C460.129 17.6295 460.887 16.8137 461.863 16.229C462.846 15.6442 463.998 15.3518 465.319 15.3518C466.208 15.3518 467.035 15.4951 467.801 15.7816C468.573 16.0623 469.246 16.4863 469.819 17.0535C470.398 17.6207 470.848 18.3341 471.17 19.1937C471.491 20.0474 471.652 21.0473 471.652 22.1935V23.2197H460.276V20.9041H468.135C468.135 20.3661 468.018 19.8895 467.784 19.4744C467.55 19.0592 467.225 18.7346 466.81 18.5007C466.401 18.261 465.924 18.1411 465.38 18.1411C464.813 18.1411 464.31 18.2727 463.872 18.5358C463.439 18.7931 463.1 19.1411 462.854 19.5796C462.609 20.0123 462.483 20.4948 462.477 21.0269V23.2285C462.477 23.8951 462.6 24.4711 462.846 24.9564C463.097 25.4418 463.451 25.816 463.907 26.0792C464.363 26.3423 464.904 26.4739 465.53 26.4739C465.945 26.4739 466.325 26.4154 466.67 26.2984C467.015 26.1815 467.31 26.0061 467.556 25.7722C467.801 25.5383 467.988 25.2517 468.117 24.9126L471.573 25.1406C471.398 25.971 471.038 26.6961 470.494 27.3159C469.956 27.9299 469.26 28.4094 468.407 28.7544C467.559 29.0936 466.579 29.2631 465.468 29.2631ZM483.467 20.7725V23.7109H476.432V20.7725H483.467ZM477.66 15.5273V29H474.09V15.5273H477.66ZM485.809 15.5273V29H482.265V15.5273H485.809ZM491.05 19.6673H495.076C496.859 19.6673 498.251 20.0942 499.251 20.9479C500.251 21.7958 500.751 22.9303 500.751 24.3512C500.751 25.2751 500.526 26.0879 500.075 26.7896C499.625 27.4855 498.976 28.0293 498.128 28.4211C497.28 28.807 496.263 29 495.076 29H488.708V15.5273H492.278V26.0616H495.076C495.701 26.0616 496.216 25.9037 496.619 25.588C497.023 25.2722 497.228 24.8687 497.233 24.3775C497.228 23.8571 497.023 23.4331 496.619 23.1057C496.216 22.7724 495.701 22.6057 495.076 22.6057H491.05V19.6673Z" fill="#177CFF"/>
</svg>
