<svg width="375" height="41" viewBox="0 0 375 41" fill="none" xmlns="http://www.w3.org/2000/svg">
<path d="M141.561 29V11.0364H153.481V14.1677H145.359V17.6762H148.28C149.701 17.6762 150.926 17.9072 151.955 18.3692C152.99 18.8253 153.788 19.4714 154.35 20.3076C154.911 21.1438 155.192 22.1291 155.192 23.2636C155.192 24.3921 154.911 25.3891 154.35 26.2546C153.788 27.1142 152.99 27.7866 151.955 28.272C150.926 28.7573 149.701 29 148.28 29H141.561ZM145.359 25.9476H148.28C148.958 25.9476 149.531 25.8248 149.999 25.5792C150.467 25.3277 150.821 24.9974 151.061 24.588C151.306 24.1729 151.429 23.7197 151.429 23.2285C151.429 22.5151 151.157 21.9128 150.613 21.4216C150.075 20.9245 149.298 20.676 148.28 20.676H145.359V25.9476ZM163.667 29.2631C162.305 29.2631 161.126 28.9737 160.132 28.3948C159.144 27.81 158.381 26.9972 157.843 25.9564C157.305 24.9096 157.036 23.6963 157.036 22.3163C157.036 20.9245 157.305 19.7083 157.843 18.6674C158.381 17.6207 159.144 16.8079 160.132 16.229C161.126 15.6442 162.305 15.3518 163.667 15.3518C165.03 15.3518 166.205 15.6442 167.193 16.229C168.187 16.8079 168.953 17.6207 169.491 18.6674C170.029 19.7083 170.298 20.9245 170.298 22.3163C170.298 23.6963 170.029 24.9096 169.491 25.9564C168.953 26.9972 168.187 27.81 167.193 28.3948C166.205 28.9737 165.03 29.2631 163.667 29.2631ZM163.685 26.3686C164.305 26.3686 164.822 26.1932 165.237 25.8423C165.652 25.4856 165.965 25.0003 166.176 24.3863C166.392 23.7723 166.5 23.0735 166.5 22.2899C166.5 21.5064 166.392 20.8076 166.176 20.1936C165.965 19.5796 165.652 19.0943 165.237 18.7376C164.822 18.3809 164.305 18.2025 163.685 18.2025C163.059 18.2025 162.533 18.3809 162.106 18.7376C161.685 19.0943 161.366 19.5796 161.15 20.1936C160.939 20.8076 160.834 21.5064 160.834 22.2899C160.834 23.0735 160.939 23.7723 161.15 24.3863C161.366 25.0003 161.685 25.4856 162.106 25.8423C162.533 26.1932 163.059 26.3686 163.685 26.3686ZM182.104 20.7725V23.7109H175.07V20.7725H182.104ZM176.298 15.5273V29H172.728V15.5273H176.298ZM184.446 15.5273V29H180.903V15.5273H184.446ZM189.17 34.0523C188.696 34.0523 188.252 34.0143 187.837 33.9382C187.427 33.8681 187.088 33.7774 186.819 33.6663L187.661 30.8771C188.1 31.0116 188.494 31.0846 188.845 31.0963C189.202 31.108 189.509 31.0262 189.766 30.8507C190.029 30.6753 190.243 30.3771 190.407 29.9561L190.626 29.3859L185.793 15.5273H189.722L192.512 25.4213H192.652L195.468 15.5273H199.423L194.187 30.456C193.936 31.1811 193.593 31.8127 193.161 32.3506C192.734 32.8945 192.193 33.3126 191.538 33.6049C190.883 33.9032 190.094 34.0523 189.17 34.0523ZM206.989 29.2631C205.609 29.2631 204.422 28.9708 203.428 28.386C202.439 27.7954 201.679 26.9768 201.147 25.93C200.621 24.8833 200.358 23.6787 200.358 22.3163C200.358 20.9362 200.624 19.7258 201.156 18.6849C201.694 17.6382 202.457 16.8225 203.445 16.2377C204.433 15.6471 205.609 15.3518 206.971 15.3518C208.146 15.3518 209.176 15.5653 210.059 15.9922C210.942 16.419 211.64 17.0184 212.155 17.7903C212.67 18.5621 212.953 19.4685 213.006 20.5094H209.48C209.38 19.8369 209.117 19.296 208.69 18.8867C208.269 18.4715 207.717 18.2639 207.033 18.2639C206.454 18.2639 205.948 18.4218 205.515 18.7376C205.088 19.0475 204.755 19.5007 204.515 20.0971C204.275 20.6936 204.156 21.4157 204.156 22.2636C204.156 23.1232 204.272 23.8542 204.506 24.4565C204.746 25.0588 205.082 25.5178 205.515 25.8336C205.948 26.1493 206.454 26.3072 207.033 26.3072C207.459 26.3072 207.842 26.2195 208.182 26.0441C208.527 25.8686 208.81 25.6143 209.032 25.281C209.26 24.9418 209.41 24.5354 209.48 24.0618H213.006C212.947 25.0909 212.667 25.9973 212.164 26.7809C211.667 27.5586 210.98 28.1667 210.102 28.6053C209.225 29.0439 208.187 29.2631 206.989 29.2631ZM217.74 19.6673H221.766C223.55 19.6673 224.941 20.0942 225.941 20.9479C226.941 21.7958 227.441 22.9303 227.441 24.3512C227.441 25.2751 227.216 26.0879 226.766 26.7896C226.316 27.4855 225.666 28.0293 224.819 28.4211C223.971 28.807 222.953 29 221.766 29H215.398V15.5273H218.968V26.0616H221.766C222.392 26.0616 222.906 25.9037 223.31 25.588C223.713 25.2722 223.918 24.8687 223.924 24.3775C223.918 23.8571 223.713 23.4331 223.31 23.1057C222.906 22.7724 222.392 22.6057 221.766 22.6057H217.74V19.6673ZM228.888 29V15.5273H232.625V29H228.888Z" fill="#177CFF"/>
</svg>
