<svg width="300" height="41" viewBox="0 0 300 41" fill="none" xmlns="http://www.w3.org/2000/svg">
<path d="M104.061 29V11.0364H115.981V14.1677H107.859V17.6762H110.78C112.201 17.6762 113.426 17.9072 114.455 18.3692C115.49 18.8253 116.288 19.4714 116.85 20.3076C117.411 21.1438 117.692 22.1291 117.692 23.2636C117.692 24.3921 117.411 25.3891 116.85 26.2546C116.288 27.1142 115.49 27.7866 114.455 28.272C113.426 28.7573 112.201 29 110.78 29H104.061ZM107.859 25.9476H110.78C111.458 25.9476 112.031 25.8248 112.499 25.5792C112.967 25.3277 113.321 24.9974 113.561 24.588C113.806 24.1729 113.929 23.7197 113.929 23.2285C113.929 22.5151 113.657 21.9128 113.113 21.4216C112.575 20.9245 111.798 20.676 110.78 20.676H107.859V25.9476ZM126.167 29.2631C124.805 29.2631 123.626 28.9737 122.632 28.3948C121.644 27.81 120.881 26.9972 120.343 25.9564C119.805 24.9096 119.536 23.6963 119.536 22.3163C119.536 20.9245 119.805 19.7083 120.343 18.6674C120.881 17.6207 121.644 16.8079 122.632 16.229C123.626 15.6442 124.805 15.3518 126.167 15.3518C127.53 15.3518 128.705 15.6442 129.693 16.229C130.687 16.8079 131.453 17.6207 131.991 18.6674C132.529 19.7083 132.798 20.9245 132.798 22.3163C132.798 23.6963 132.529 24.9096 131.991 25.9564C131.453 26.9972 130.687 27.81 129.693 28.3948C128.705 28.9737 127.53 29.2631 126.167 29.2631ZM126.185 26.3686C126.805 26.3686 127.322 26.1932 127.737 25.8423C128.152 25.4856 128.465 25.0003 128.676 24.3863C128.892 23.7723 129 23.0735 129 22.2899C129 21.5064 128.892 20.8076 128.676 20.1936C128.465 19.5796 128.152 19.0943 127.737 18.7376C127.322 18.3809 126.805 18.2025 126.185 18.2025C125.559 18.2025 125.033 18.3809 124.606 18.7376C124.185 19.0943 123.866 19.5796 123.65 20.1936C123.439 20.8076 123.334 21.5064 123.334 22.2899C123.334 23.0735 123.439 23.7723 123.65 24.3863C123.866 25.0003 124.185 25.4856 124.606 25.8423C125.033 26.1932 125.559 26.3686 126.185 26.3686ZM144.604 20.7725V23.7109H137.57V20.7725H144.604ZM138.798 15.5273V29H135.228V15.5273H138.798ZM146.946 15.5273V29H143.403V15.5273H146.946ZM151.67 34.0523C151.196 34.0523 150.752 34.0143 150.337 33.9382C149.927 33.8681 149.588 33.7774 149.319 33.6663L150.161 30.8771C150.6 31.0116 150.994 31.0846 151.345 31.0963C151.702 31.108 152.009 31.0262 152.266 30.8507C152.529 30.6753 152.743 30.3771 152.907 29.9561L153.126 29.3859L148.293 15.5273H152.222L155.012 25.4213H155.152L157.968 15.5273H161.923L156.687 30.456C156.436 31.1811 156.093 31.8127 155.661 32.3506C155.234 32.8945 154.693 33.3126 154.038 33.6049C153.383 33.9032 152.594 34.0523 151.67 34.0523ZM169.489 29.2631C168.109 29.2631 166.922 28.9708 165.928 28.386C164.939 27.7954 164.179 26.9768 163.647 25.93C163.121 24.8833 162.858 23.6787 162.858 22.3163C162.858 20.9362 163.124 19.7258 163.656 18.6849C164.194 17.6382 164.957 16.8225 165.945 16.2377C166.933 15.6471 168.109 15.3518 169.471 15.3518C170.646 15.3518 171.676 15.5653 172.559 15.9922C173.442 16.419 174.14 17.0184 174.655 17.7903C175.17 18.5621 175.453 19.4685 175.506 20.5094H171.98C171.88 19.8369 171.617 19.296 171.19 18.8867C170.769 18.4715 170.217 18.2639 169.533 18.2639C168.954 18.2639 168.448 18.4218 168.015 18.7376C167.588 19.0475 167.255 19.5007 167.015 20.0971C166.775 20.6936 166.656 21.4157 166.656 22.2636C166.656 23.1232 166.772 23.8542 167.006 24.4565C167.246 25.0588 167.582 25.5178 168.015 25.8336C168.448 26.1493 168.954 26.3072 169.533 26.3072C169.959 26.3072 170.342 26.2195 170.682 26.0441C171.027 25.8686 171.31 25.6143 171.532 25.281C171.76 24.9418 171.91 24.5354 171.98 24.0618H175.506C175.447 25.0909 175.167 25.9973 174.664 26.7809C174.167 27.5586 173.48 28.1667 172.602 28.6053C171.725 29.0439 170.687 29.2631 169.489 29.2631ZM180.24 19.6673H184.266C186.05 19.6673 187.441 20.0942 188.441 20.9479C189.441 21.7958 189.941 22.9303 189.941 24.3512C189.941 25.2751 189.716 26.0879 189.266 26.7896C188.816 27.4855 188.166 28.0293 187.319 28.4211C186.471 28.807 185.453 29 184.266 29H177.898V15.5273H181.468V26.0616H184.266C184.892 26.0616 185.406 25.9037 185.81 25.588C186.213 25.2722 186.418 24.8687 186.424 24.3775C186.418 23.8571 186.213 23.4331 185.81 23.1057C185.406 22.7724 184.892 22.6057 184.266 22.6057H180.24V19.6673ZM191.388 29V15.5273H195.125V29H191.388Z" fill="#177CFF"/>
</svg>
