<svg width="300" height="41" viewBox="0 0 300 41" fill="none" xmlns="http://www.w3.org/2000/svg">
<path d="M96.5613 29V11.0364H108.481V14.1677H100.359V17.6762H103.28C104.701 17.6762 105.926 17.9072 106.955 18.3692C107.99 18.8253 108.788 19.4714 109.35 20.3076C109.911 21.1438 110.192 22.1291 110.192 23.2636C110.192 24.3921 109.911 25.3891 109.35 26.2546C108.788 27.1142 107.99 27.7866 106.955 28.272C105.926 28.7573 104.701 29 103.28 29H96.5613ZM100.359 25.9476H103.28C103.958 25.9476 104.531 25.8248 104.999 25.5792C105.467 25.3277 105.821 24.9974 106.061 24.588C106.306 24.1729 106.429 23.7197 106.429 23.2285C106.429 22.5151 106.157 21.9128 105.613 21.4216C105.075 20.9245 104.298 20.676 103.28 20.676H100.359V25.9476ZM114.887 34.0523C114.413 34.0523 113.969 34.0143 113.554 33.9382C113.144 33.8681 112.805 33.7774 112.536 33.6663L113.378 30.8771C113.817 31.0116 114.211 31.0846 114.562 31.0963C114.919 31.108 115.226 31.0262 115.483 30.8507C115.746 30.6753 115.96 30.3771 116.124 29.9561L116.343 29.3859L111.51 15.5273H115.439L118.229 25.4213H118.369L121.185 15.5273H125.14L119.904 30.456C119.652 31.1811 119.31 31.8127 118.878 32.3506C118.451 32.8945 117.91 33.3126 117.255 33.6049C116.6 33.9032 115.811 34.0523 114.887 34.0523ZM126.351 18.4657V15.5273H138.561V18.4657H134.219V29H130.658V18.4657H126.351ZM143.168 19.6673H147.194C148.977 19.6673 150.369 20.0942 151.369 20.9479C152.369 21.7958 152.869 22.9303 152.869 24.3512C152.869 25.2751 152.644 26.0879 152.193 26.7896C151.743 27.4855 151.094 28.0293 150.246 28.4211C149.398 28.807 148.381 29 147.194 29H140.826V15.5273H144.396V26.0616H147.194C147.819 26.0616 148.334 25.9037 148.737 25.588C149.141 25.2722 149.346 24.8687 149.351 24.3775C149.346 23.8571 149.141 23.4331 148.737 23.1057C148.334 22.7724 147.819 22.6057 147.194 22.6057H143.168V19.6673ZM154.316 29V15.5273H158.053V29H154.316ZM160.25 29L160.232 26.0353H160.68C160.995 26.0353 161.267 25.9593 161.495 25.8072C161.729 25.6494 161.922 25.395 162.074 25.0441C162.226 24.6933 162.346 24.2284 162.434 23.6495C162.522 23.0647 162.58 22.3455 162.609 21.4918L162.829 15.5273H173.073V29H169.512V18.4657H166.188L165.977 22.5794C165.925 23.708 165.787 24.6787 165.565 25.4915C165.349 26.3043 165.048 26.9709 164.662 27.4913C164.276 28.0059 163.811 28.386 163.267 28.6316C162.723 28.8772 162.092 29 161.372 29H160.25ZM175.97 29V15.5273H179.707V20.755H180.759L184.426 15.5273H188.811L184.049 22.211L188.864 29H184.426L181.101 24.2196H179.707V29H175.97ZM194.013 24.0705L198.863 15.5273H202.547V29H198.986V20.4304L194.153 29H190.443V15.5273H194.013V24.0705Z" fill="#177CFF"/>
</svg>
