<svg width="300" height="41" viewBox="0 0 300 41" fill="none" xmlns="http://www.w3.org/2000/svg">
<path d="M114.061 29V11.0364H125.981V14.1677H117.859V17.6762H120.78C122.201 17.6762 123.426 17.9072 124.455 18.3692C125.49 18.8253 126.288 19.4714 126.85 20.3076C127.411 21.1438 127.692 22.1291 127.692 23.2636C127.692 24.3921 127.411 25.3891 126.85 26.2546C126.288 27.1142 125.49 27.7866 124.455 28.272C123.426 28.7573 122.201 29 120.78 29H114.061ZM117.859 25.9476H120.78C121.458 25.9476 122.031 25.8248 122.499 25.5792C122.967 25.3277 123.321 24.9974 123.561 24.588C123.806 24.1729 123.929 23.7197 123.929 23.2285C123.929 22.5151 123.657 21.9128 123.113 21.4216C122.575 20.9245 121.798 20.676 120.78 20.676H117.859V25.9476ZM133.922 29.2544C133.062 29.2544 132.296 29.1053 131.624 28.807C130.951 28.503 130.419 28.0556 130.027 27.465C129.641 26.8686 129.448 26.1259 129.448 25.2371C129.448 24.4886 129.586 23.86 129.861 23.3513C130.135 22.8425 130.51 22.4332 130.983 22.1233C131.457 21.8134 131.995 21.5795 132.597 21.4216C133.205 21.2637 133.843 21.1526 134.509 21.0883C135.293 21.0064 135.925 20.9304 136.404 20.8602C136.884 20.7842 137.231 20.6731 137.448 20.5269C137.664 20.3807 137.772 20.1644 137.772 19.8778V19.8252C137.772 19.2697 137.597 18.8399 137.246 18.5358C136.901 18.2318 136.41 18.0797 135.772 18.0797C135.1 18.0797 134.565 18.2288 134.167 18.5271C133.77 18.8194 133.507 19.1878 133.378 19.6322L129.922 19.3516C130.097 18.5329 130.442 17.8254 130.957 17.2289C131.472 16.6266 132.135 16.1647 132.948 15.843C133.767 15.5156 134.714 15.3518 135.79 15.3518C136.538 15.3518 137.255 15.4396 137.939 15.615C138.629 15.7904 139.24 16.0623 139.772 16.4307C140.31 16.7991 140.734 17.2728 141.044 17.8517C141.354 18.4247 141.509 19.1118 141.509 19.9129V29H137.965V27.1317H137.86C137.644 27.5527 137.354 27.9241 136.992 28.2457C136.629 28.5614 136.193 28.81 135.685 28.9912C135.176 29.1667 134.588 29.2544 133.922 29.2544ZM134.992 26.6756C135.541 26.6756 136.027 26.5674 136.448 26.3511C136.869 26.1289 137.199 25.8306 137.439 25.4564C137.679 25.0821 137.799 24.6582 137.799 24.1846V22.7548C137.682 22.8308 137.521 22.901 137.316 22.9653C137.117 23.0238 136.892 23.0794 136.641 23.132C136.389 23.1788 136.138 23.2226 135.886 23.2636C135.635 23.2987 135.407 23.3308 135.202 23.36C134.764 23.4244 134.381 23.5267 134.053 23.667C133.726 23.8074 133.471 23.9974 133.29 24.2372C133.109 24.4711 133.018 24.7635 133.018 25.1143C133.018 25.623 133.202 26.0119 133.571 26.2809C133.945 26.544 134.419 26.6756 134.992 26.6756ZM153.784 20.7725V23.7109H146.75V20.7725H153.784ZM147.978 15.5273V29H144.408V15.5273H147.978ZM156.126 15.5273V29H152.583V15.5273H156.126ZM159.025 29V15.5273H162.762V20.755H163.814L167.481 15.5273H171.866L167.104 22.211L171.919 29H167.481L164.156 24.2196H162.762V29H159.025ZM177.068 24.0705L181.918 15.5273H185.602V29H182.041V20.4304L177.208 29H173.498V15.5273H177.068V24.0705Z" fill="#177CFF"/>
</svg>
