<svg width="231" height="231" viewBox="0 0 231 231" fill="none" xmlns="http://www.w3.org/2000/svg">
<rect width="230.77" height="230.767" rx="15" fill="#177CFF"/>
<path d="M47.8779 29.6221C49.6073 29.6223 51.0198 30.9712 51.125 32.6729V40.3721C51.125 42.1663 49.6695 43.6267 47.8779 43.627C46.1482 43.627 44.7349 42.2782 44.6299 40.5762V32.8701C44.6299 31.0771 46.0848 29.6221 47.8779 29.6221Z" fill="white" stroke="#177CFF"/>
<path d="M108.722 90.1904C109.91 87.7735 113.357 87.7735 114.546 90.1904V90.1914L121.758 104.798L121.874 105.034L122.134 105.071L138.258 107.417C140.861 107.796 141.937 110.931 140.192 112.821L140.058 112.963L128.394 124.328L128.206 124.512L128.25 124.771L131.001 140.833C131.432 143.348 128.959 145.298 126.667 144.434L126.446 144.341L126.276 144.256L111.87 136.674L111.638 136.552L111.405 136.674L96.9824 144.261C94.6545 145.481 91.9407 143.581 92.2383 141.017L92.2666 140.833L95.0176 124.771L95.0615 124.512L94.874 124.328L83.21 112.963C81.3817 111.18 82.236 108.152 84.5889 107.506L84.8213 107.45L85.0088 107.416L85.0098 107.417L101.134 105.071L101.394 105.034L101.511 104.798L108.722 90.1914V90.1904ZM111.19 99.8799L106.471 109.441C105.991 110.4 105.081 111.064 104.019 111.217H104.018L93.4648 112.749L92.4629 112.896L93.1885 113.603L100.829 121.052C101.539 121.749 101.89 122.731 101.791 123.713L101.758 123.927L99.957 134.434L99.7861 135.432L100.682 134.961L110.124 130.003L110.125 130.002C110.996 129.54 112.035 129.511 112.932 129.899L113.16 130.011L122.587 134.961L123.483 135.432L123.312 134.434L121.512 123.927L121.511 123.925C121.339 122.948 121.634 121.947 122.29 121.208L122.448 121.051L130.081 113.602L130.806 112.895L129.804 112.749L119.251 111.217H119.249C118.266 111.078 117.407 110.493 116.915 109.644L116.8 109.429L112.087 99.8799L111.639 98.9717L111.19 99.8799Z" fill="white" stroke="#177CFF"/>
<path d="M111.631 52.1226C148.638 52.1226 178.639 82.1232 178.639 119.13C178.639 156.138 148.638 186.138 111.631 186.138C74.6237 186.138 44.623 156.138 44.623 119.13C44.6231 82.1233 74.6237 52.1226 111.631 52.1226ZM111.631 58.6255C78.2168 58.6256 51.125 85.7173 51.125 119.131C51.1252 152.553 78.2169 179.645 111.631 179.645C145.053 179.645 172.136 152.553 172.137 119.131C172.137 85.7173 145.053 58.6255 111.631 58.6255Z" fill="white" stroke="#177CFF"/>
<path d="M182.894 164.639C184.623 164.639 186.035 165.988 186.141 167.689V175.389C186.141 177.19 184.686 178.643 182.894 178.644C181.164 178.644 179.75 177.295 179.646 175.593V167.887C179.646 166.094 181.101 164.639 182.894 164.639Z" fill="white" stroke="#177CFF"/>
<path d="M47.8779 52.1226C49.6073 52.1228 51.0198 53.4717 51.125 55.1733V62.8804C51.125 64.6733 49.6708 66.1272 47.8779 66.1274C46.1469 66.1274 44.7329 64.7766 44.6299 63.0728V55.3774C44.6301 53.5762 46.0856 52.1226 47.8779 52.1226Z" fill="white" stroke="#177CFF"/>
<path d="M182.894 187.139C184.623 187.139 186.035 188.488 186.141 190.19V197.897C186.141 199.69 184.686 201.144 182.894 201.144C181.162 201.144 179.749 199.793 179.646 198.089V190.394C179.646 188.6 181.102 187.139 182.894 187.139Z" fill="white" stroke="#177CFF"/>
<path d="M62.8823 44.6265C64.6754 44.6265 66.1294 46.0814 66.1294 47.8745C66.1291 49.6037 64.781 51.0161 63.0796 51.1216H55.3794C53.5783 51.1214 52.1248 49.6666 52.1245 47.8745C52.1245 46.1449 53.4735 44.7317 55.1753 44.6265H62.8823Z" fill="white" stroke="#177CFF"/>
<path d="M197.9 179.644C199.693 179.644 201.148 181.098 201.148 182.891C201.148 184.62 199.799 186.033 198.097 186.139H190.397C188.603 186.138 187.142 184.682 187.142 182.891C187.142 181.161 188.491 179.749 190.193 179.644H197.9Z" fill="white" stroke="#177CFF"/>
<path d="M40.3733 44.6265C42.1677 44.6265 43.6282 46.0827 43.6282 47.8745C43.6279 49.6037 42.2797 51.0161 40.5784 51.1216H32.8713C31.0785 51.1216 29.6236 49.6674 29.6233 47.8745C29.6233 46.1449 30.9723 44.7317 32.6741 44.6265H40.3733Z" fill="white" stroke="#177CFF"/>
<path d="M175.391 179.644C177.193 179.644 178.646 181.098 178.646 182.891C178.646 184.62 177.298 186.033 175.596 186.139H167.888C166.096 186.138 164.641 184.684 164.641 182.891C164.642 181.161 165.991 179.749 167.692 179.644H175.391Z" fill="white" stroke="#177CFF"/>
<path d="M111.523 67.0977C140.39 67.0977 163.793 90.5008 163.793 119.368C163.793 148.236 140.39 171.639 111.523 171.639C82.6555 171.639 59.2525 148.236 59.2524 119.368C59.2524 90.5007 82.6555 67.0977 111.523 67.0977ZM111.523 73.5449C86.2173 73.5449 65.6997 94.0625 65.6997 119.368C65.6998 144.674 86.2173 165.191 111.523 165.191C136.829 165.191 157.346 144.674 157.346 119.368C157.346 94.0625 136.829 73.545 111.523 73.5449Z" fill="white" stroke="#177CFF"/>
</svg>
