<svg width="813" height="169" viewBox="0 0 813 169" fill="none" xmlns="http://www.w3.org/2000/svg">
<g clip-path="url(#clip0_868_30)">
<path d="M27.6273 65L15.1811 48.5901H13.6353V65H2.61607V24.4112H13.6353V39.7113H15.0622L26.7156 24.4112H40.5888L25.1301 43.9129L41.4608 65H27.6273ZM81.1775 44.7056C81.1775 49.2243 80.2989 53.0361 78.5416 56.141C76.7844 59.2327 74.4127 61.578 71.4267 63.1767C68.4407 64.7622 65.1111 65.5549 61.4381 65.5549C57.7386 65.5549 54.3958 64.7556 51.4098 63.1569C48.437 61.5449 46.0719 59.1931 44.3147 56.1014C42.5706 52.9965 41.6986 49.1979 41.6986 44.7056C41.6986 40.187 42.5706 36.3818 44.3147 33.29C46.0719 30.1851 48.437 27.8399 51.4098 26.2544C54.3958 24.6557 57.7386 23.8563 61.4381 23.8563C65.1111 23.8563 68.4407 24.6557 71.4267 26.2544C74.4127 27.8399 76.7844 30.1851 78.5416 33.29C80.2989 36.3818 81.1775 40.187 81.1775 44.7056ZM69.8412 44.7056C69.8412 42.2745 69.5175 40.2266 68.8701 38.5618C68.2359 36.8838 67.2912 35.6154 66.036 34.7566C64.794 33.8846 63.2614 33.4486 61.4381 33.4486C59.6147 33.4486 58.0755 33.8846 56.8203 34.7566C55.5783 35.6154 54.6336 36.8838 53.9862 38.5618C53.352 40.2266 53.0349 42.2745 53.0349 44.7056C53.0349 47.1367 53.352 49.1913 53.9862 50.8692C54.6336 52.534 55.5783 53.8024 56.8203 54.6744C58.0755 55.5333 59.6147 55.9627 61.4381 55.9627C63.2614 55.9627 64.794 55.5333 66.036 54.6744C67.2912 53.8024 68.2359 52.534 68.8701 50.8692C69.5175 49.1913 69.8412 47.1367 69.8412 44.7056ZM86.2759 65V24.4112H97.2951V40.2662H111.882V24.4112H122.901V65H111.882V49.145H97.2951V65H86.2759ZM128.133 65V24.4112H145.732C148.824 24.4112 151.42 24.8274 153.521 25.6598C155.635 26.4922 157.227 27.6681 158.297 29.1876C159.381 30.707 159.922 32.4973 159.922 34.5584C159.922 36.0514 159.592 37.4123 158.931 38.6411C158.284 39.8699 157.372 40.9004 156.196 41.7328C155.02 42.552 153.646 43.1201 152.074 43.4372V43.8336C153.818 43.8997 155.404 44.3423 156.831 45.1615C158.257 45.9674 159.394 47.0839 160.239 48.5108C161.085 49.9246 161.508 51.5893 161.508 53.5051C161.508 55.7248 160.926 57.7001 159.764 59.4309C158.614 61.1618 156.976 62.5227 154.849 63.5136C152.721 64.5045 150.185 65 147.238 65H128.133ZM139.152 56.2005H144.305C146.155 56.2005 147.542 55.857 148.467 55.1699C149.392 54.4696 149.854 53.4391 149.854 52.0782C149.854 51.1269 149.636 50.3209 149.2 49.6603C148.764 48.9997 148.143 48.4976 147.337 48.1541C146.545 47.8106 145.587 47.6388 144.464 47.6388H139.152V56.2005ZM139.152 40.8212H143.671C144.635 40.8212 145.488 40.6692 146.228 40.3653C146.967 40.0614 147.542 39.6254 147.952 39.0573C148.375 38.4759 148.586 37.7691 148.586 36.9367C148.586 35.6815 148.137 34.7236 147.238 34.063C146.34 33.3891 145.204 33.0522 143.829 33.0522H139.152V40.8212ZM165.412 65V24.4112H194.665V33.29H176.431V40.2662H193.158V49.145H176.431V56.1212H194.585V65H165.412ZM200.13 65V24.4112H217.649C220.662 24.4112 223.298 25.0058 225.557 26.1949C227.816 27.3841 229.574 29.0554 230.829 31.2091C232.084 33.3627 232.712 35.8797 232.712 38.76C232.712 41.6667 232.064 44.1837 230.769 46.3109C229.488 48.4381 227.684 50.0765 225.359 51.226C223.047 52.3755 220.345 52.9502 217.253 52.9502H206.789V44.3885H215.033C216.328 44.3885 217.431 44.1639 218.343 43.7147C219.268 43.2522 219.975 42.5982 220.464 41.7526C220.966 40.907 221.217 39.9095 221.217 38.76C221.217 37.5973 220.966 36.6064 220.464 35.7872C219.975 34.9548 219.268 34.3206 218.343 33.8846C217.431 33.4354 216.328 33.2108 215.033 33.2108H211.149V65H200.13ZM235.645 33.29V24.4112H270.922V33.29H258.714V65H247.853V33.29H235.645ZM280.49 65H268.598L281.996 24.4112H297.058L310.455 65H298.564L289.685 35.589H289.368L280.49 65ZM278.27 48.9865H300.625V57.2311H278.27V48.9865ZM356.539 56.6761L356.063 74.5923H345.837V65H342.983V56.6761H356.539ZM314.365 65V24.4112H324.988V56.5176H339.178V24.4112H349.959V65H314.365ZM360.255 24.4112H371.274V45.6569H371.591L386.019 24.4112H395.374V65H384.355V43.675H384.117L369.451 65H360.255V24.4112ZM400.586 24.4112H411.605V45.6569H411.922L426.35 24.4112H435.705V65H424.686V43.675H424.448L409.782 65H400.586V24.4112Z" fill="#177CFF"/>
<rect y="79" width="440" height="66" rx="33" fill="#177CFF"/>
<path d="M30.6161 132.5V91.9109H48.2153C51.307 91.9109 53.9033 92.3271 56.0041 93.1595C58.1181 93.9919 59.7102 95.1678 60.7805 96.6873C61.8639 98.2067 62.4056 99.997 62.4056 102.058C62.4056 103.551 62.0753 104.912 61.4147 106.141C60.7672 107.37 59.8556 108.4 58.6796 109.233C57.5037 110.052 56.1296 110.62 54.5573 110.937V111.333C56.3014 111.399 57.8869 111.842 59.3139 112.661C60.7408 113.467 61.8771 114.584 62.7227 116.011C63.5683 117.424 63.9911 119.089 63.9911 121.005C63.9911 123.225 63.4098 125.2 62.247 126.931C61.0976 128.662 59.4592 130.023 57.332 131.014C55.2047 132.005 52.6679 132.5 49.7215 132.5H30.6161ZM41.6354 123.7H46.7883C48.6381 123.7 50.0254 123.357 50.9503 122.67C51.8752 121.97 52.3376 120.939 52.3376 119.578C52.3376 118.627 52.1196 117.821 51.6836 117.16C51.2476 116.5 50.6266 115.997 49.8206 115.654C49.0278 115.31 48.0699 115.139 46.9469 115.139H41.6354V123.7ZM41.6354 108.321H46.1541C47.1186 108.321 47.9708 108.169 48.7107 107.865C49.4506 107.561 50.0254 107.125 50.435 106.557C50.8578 105.976 51.0692 105.269 51.0692 104.436C51.0692 103.181 50.62 102.223 49.7215 101.563C48.8231 100.889 47.6868 100.552 46.3127 100.552H41.6354V108.321ZM76.5499 142.251V124.018H79.4039C80.3552 123.436 81.214 122.617 81.9803 121.56C82.7599 120.503 83.4205 118.99 83.9622 117.021C84.5171 115.053 84.9267 112.417 85.191 109.114L86.5387 91.9109H115.236V124.018H119.517V142.251H108.894V132.5H87.1729V142.251H76.5499ZM92.0087 124.018H104.613V100.79H96.4481L95.8139 109.114C95.6289 111.598 95.3449 113.771 94.9617 115.634C94.5917 117.484 94.1491 119.096 93.6338 120.47C93.1317 121.831 92.59 123.013 92.0087 124.018ZM122.685 91.9109H133.704V113.157H134.022L148.45 91.9109H157.804V132.5H146.785V111.175H146.547L131.881 132.5H122.685V91.9109ZM162.459 132.5V91.9109H173.478V107.766H188.065V91.9109H199.084V132.5H188.065V116.645H173.478V132.5H162.459ZM214.302 132.5H202.41L215.808 91.9109H230.87L244.268 132.5H232.376L223.498 103.089H223.18L214.302 132.5ZM212.082 116.486H234.438V124.731H212.082V116.486ZM247.619 91.9109H261.334L270.767 114.901H271.243L280.677 91.9109H294.391V132.5H283.61V109.034H283.293L274.255 132.183H267.755L258.717 108.876H258.4V132.5H247.619V91.9109ZM299.056 91.9109H310.075V113.157H310.392L324.82 91.9109H334.175V132.5H323.155V111.175H322.918L308.252 132.5H299.056V91.9109ZM363.84 132.5L351.394 116.09H349.848V132.5H338.829V91.9109H349.848V107.211H351.275L362.929 91.9109H376.802L361.343 111.413L377.674 132.5H363.84ZM380.074 132.5V91.9109H409.327V100.79H391.093V107.766H407.82V116.645H391.093V123.621H409.247V132.5H380.074Z" fill="white"/>
</g>
<defs>
<clipPath id="clip0_868_30">
<rect width="813" height="169" fill="white"/>
</clipPath>
</defs>
</svg>
