<svg width="300" height="41" viewBox="0 0 300 41" fill="none" xmlns="http://www.w3.org/2000/svg">
<path d="M79.9289 29L74.1574 21.3426H72.8593V29H69.0613V11.0364H72.8593V18.2113H73.6224L79.5869 11.0364H84.3146L77.3063 19.3691L84.6391 29H79.9289ZM91.5772 29.2631C90.2148 29.2631 89.0365 28.9737 88.0424 28.3948C87.0542 27.81 86.2911 26.9972 85.7531 25.9564C85.2151 24.9096 84.9461 23.6963 84.9461 22.3163C84.9461 20.9245 85.2151 19.7083 85.7531 18.6674C86.2911 17.6207 87.0542 16.8079 88.0424 16.229C89.0365 15.6442 90.2148 15.3518 91.5772 15.3518C92.9397 15.3518 94.1151 15.6442 95.1033 16.229C96.0974 16.8079 96.8634 17.6207 97.4014 18.6674C97.9394 19.7083 98.2083 20.9245 98.2083 22.3163C98.2083 23.6963 97.9394 24.9096 97.4014 25.9564C96.8634 26.9972 96.0974 27.81 95.1033 28.3948C94.1151 28.9737 92.9397 29.2631 91.5772 29.2631ZM91.5948 26.3686C92.2146 26.3686 92.7321 26.1932 93.1473 25.8423C93.5625 25.4856 93.8753 25.0003 94.0858 24.3863C94.3022 23.7723 94.4104 23.0735 94.4104 22.2899C94.4104 21.5064 94.3022 20.8076 94.0858 20.1936C93.8753 19.5796 93.5625 19.0943 93.1473 18.7376C92.7321 18.3809 92.2146 18.2025 91.5948 18.2025C90.9691 18.2025 90.4428 18.3809 90.0159 18.7376C89.5949 19.0943 89.2762 19.5796 89.0599 20.1936C88.8494 20.8076 88.7441 21.5064 88.7441 22.2899C88.7441 23.0735 88.8494 23.7723 89.0599 24.3863C89.2762 25.0003 89.5949 25.4856 90.0159 25.8423C90.4428 26.1932 90.9691 26.3686 91.5948 26.3686ZM110.015 20.7725V23.7109H102.98V20.7725H110.015ZM104.208 15.5273V29H100.638V15.5273H104.208ZM112.356 15.5273V29H108.813V15.5273H112.356ZM115.255 29V15.5273H121.001C122.661 15.5273 123.974 15.843 124.939 16.4746C125.904 17.1061 126.386 18.0037 126.386 19.1674C126.386 19.8983 126.114 20.5065 125.57 20.9918C125.027 21.4771 124.272 21.8046 123.307 21.9742C124.114 22.0327 124.801 22.2169 125.369 22.5268C125.942 22.8308 126.377 23.2256 126.676 23.7109C126.98 24.1962 127.132 24.7342 127.132 25.3248C127.132 26.0908 126.927 26.7487 126.518 27.2984C126.114 27.848 125.521 28.2691 124.737 28.5614C123.959 28.8538 123.009 29 121.886 29H115.255ZM118.738 26.202H121.886C122.407 26.202 122.813 26.0792 123.106 25.8336C123.404 25.5821 123.553 25.24 123.553 24.8073C123.553 24.3278 123.404 23.9507 123.106 23.6758C122.813 23.401 122.407 23.2636 121.886 23.2636H118.738V26.202ZM118.738 21.0707H121.08C121.454 21.0707 121.772 21.0181 122.036 20.9129C122.305 20.8018 122.509 20.6439 122.65 20.4392C122.796 20.2345 122.869 19.9919 122.869 19.7112C122.869 19.296 122.702 18.9715 122.369 18.7376C122.036 18.5037 121.579 18.3867 121.001 18.3867H118.738V21.0707ZM135.627 29.2631C134.241 29.2631 133.048 28.9825 132.048 28.4211C131.054 27.8539 130.288 27.0528 129.75 26.0178C129.212 24.9769 128.943 23.746 128.943 22.325C128.943 20.9392 129.212 19.7229 129.75 18.6762C130.288 17.6295 131.045 16.8137 132.022 16.229C133.004 15.6442 134.156 15.3518 135.478 15.3518C136.366 15.3518 137.194 15.4951 137.96 15.7816C138.732 16.0623 139.404 16.4863 139.977 17.0535C140.556 17.6207 141.006 18.3341 141.328 19.1937C141.65 20.0474 141.811 21.0473 141.811 22.1935V23.2197H130.434V20.9041H138.293C138.293 20.3661 138.176 19.8895 137.942 19.4744C137.708 19.0592 137.384 18.7346 136.969 18.5007C136.559 18.261 136.083 18.1411 135.539 18.1411C134.972 18.1411 134.469 18.2727 134.03 18.5358C133.598 18.7931 133.258 19.1411 133.013 19.5796C132.767 20.0123 132.642 20.4948 132.636 21.0269V23.2285C132.636 23.8951 132.759 24.4711 133.004 24.9564C133.256 25.4418 133.609 25.816 134.065 26.0792C134.522 26.3423 135.062 26.4739 135.688 26.4739C136.103 26.4739 136.483 26.4154 136.828 26.2984C137.173 26.1815 137.469 26.0061 137.714 25.7722C137.96 25.5383 138.147 25.2517 138.276 24.9126L141.732 25.1406C141.556 25.971 141.197 26.6961 140.653 27.3159C140.115 27.9299 139.419 28.4094 138.565 28.7544C137.717 29.0936 136.738 29.2631 135.627 29.2631ZM144.249 34.0523V15.5273H147.933V17.7903H148.1C148.263 17.4277 148.5 17.0593 148.81 16.6851C149.126 16.305 149.535 15.9892 150.038 15.7378C150.547 15.4805 151.178 15.3518 151.933 15.3518C152.915 15.3518 153.821 15.6091 154.652 16.1237C155.482 16.6325 156.146 17.4014 156.643 18.4306C157.14 19.4539 157.388 20.7374 157.388 22.2812C157.388 23.784 157.146 25.0529 156.66 26.0879C156.181 27.1171 155.526 27.8977 154.696 28.4299C153.871 28.9561 152.947 29.2193 151.924 29.2193C151.199 29.2193 150.582 29.0994 150.073 28.8597C149.57 28.6199 149.158 28.3188 148.836 27.9562C148.515 27.5878 148.269 27.2165 148.1 26.8423H147.986V34.0523H144.249ZM147.907 22.2636C147.907 23.0647 148.018 23.7635 148.24 24.36C148.462 24.9564 148.784 25.4213 149.205 25.7546C149.626 26.0821 150.137 26.2458 150.74 26.2458C151.348 26.2458 151.862 26.0792 152.283 25.7458C152.704 25.4067 153.023 24.9389 153.24 24.3424C153.462 23.7401 153.573 23.0472 153.573 22.2636C153.573 21.4859 153.465 20.8018 153.248 20.2112C153.032 19.6205 152.713 19.1586 152.292 18.8253C151.871 18.492 151.354 18.3253 150.74 18.3253C150.132 18.3253 149.617 18.4861 149.196 18.8077C148.781 19.1294 148.462 19.5855 148.24 20.1761C148.018 20.7667 147.907 21.4625 147.907 22.2636ZM158.575 18.4657V15.5273H170.784V18.4657H166.443V29H162.881V18.4657H158.575ZM176.409 29.2544C175.549 29.2544 174.783 29.1053 174.111 28.807C173.438 28.503 172.906 28.0556 172.514 27.465C172.129 26.8686 171.936 26.1259 171.936 25.2371C171.936 24.4886 172.073 23.86 172.348 23.3513C172.623 22.8425 172.997 22.4332 173.471 22.1233C173.944 21.8134 174.482 21.5795 175.084 21.4216C175.693 21.2637 176.33 21.1526 176.997 21.0883C177.78 21.0064 178.412 20.9304 178.891 20.8602C179.371 20.7842 179.719 20.6731 179.935 20.5269C180.151 20.3807 180.26 20.1644 180.26 19.8778V19.8252C180.26 19.2697 180.084 18.8399 179.733 18.5358C179.388 18.2318 178.897 18.0797 178.26 18.0797C177.587 18.0797 177.052 18.2288 176.655 18.5271C176.257 18.8194 175.994 19.1878 175.865 19.6322L172.409 19.3516C172.585 18.5329 172.93 17.8254 173.444 17.2289C173.959 16.6266 174.623 16.1647 175.435 15.843C176.254 15.5156 177.201 15.3518 178.277 15.3518C179.026 15.3518 179.742 15.4396 180.426 15.615C181.116 15.7904 181.727 16.0623 182.259 16.4307C182.797 16.7991 183.221 17.2728 183.531 17.8517C183.841 18.4247 183.996 19.1118 183.996 19.9129V29H180.453V27.1317H180.347C180.131 27.5527 179.841 27.9241 179.479 28.2457C179.116 28.5614 178.681 28.81 178.172 28.9912C177.663 29.1667 177.076 29.2544 176.409 29.2544ZM177.479 26.6756C178.029 26.6756 178.514 26.5674 178.935 26.3511C179.356 26.1289 179.686 25.8306 179.926 25.4564C180.166 25.0821 180.286 24.6582 180.286 24.1846V22.7548C180.169 22.8308 180.008 22.901 179.803 22.9653C179.605 23.0238 179.379 23.0794 179.128 23.132C178.877 23.1788 178.625 23.2226 178.374 23.2636C178.122 23.2987 177.894 23.3308 177.69 23.36C177.251 23.4244 176.868 23.5267 176.541 23.667C176.213 23.8074 175.959 23.9974 175.777 24.2372C175.596 24.4711 175.505 24.7635 175.505 25.1143C175.505 25.623 175.69 26.0119 176.058 26.2809C176.432 26.544 176.906 26.6756 177.479 26.6756ZM198.675 15.5273V26.4212H200.824V33.333H197.193V29H186.895V15.5273H190.465V26.0616H195.149V15.5273H198.675ZM206.698 24.0705L211.549 15.5273H215.233V29H211.672V20.4304L206.839 29H203.129V15.5273H206.698V24.0705ZM221.798 24.0705L226.649 15.5273H230.333V29H226.772V20.4304L221.939 29H218.228V15.5273H221.798V24.0705Z" fill="#177CFF"/>
</svg>
