<svg width="461" height="342" viewBox="0 0 461 342" fill="none" xmlns="http://www.w3.org/2000/svg">
<g clip-path="url(#clip0_758_114)">
<path d="M2.61607 65V24.4112H20.2151C23.3068 24.4112 25.9031 24.8274 28.0039 25.6598C30.1179 26.4922 31.71 27.6681 32.7802 29.1876C33.8636 30.707 34.4053 32.4973 34.4053 34.5584C34.4053 36.0514 34.075 37.4123 33.4144 38.6411C32.767 39.8699 31.8553 40.9004 30.6794 41.7328C29.5035 42.552 28.1294 43.1201 26.5571 43.4372V43.8336C28.3011 43.8997 29.8866 44.3423 31.3136 45.1615C32.7405 45.9674 33.8768 47.0839 34.7224 48.5108C35.568 49.9246 35.9908 51.5893 35.9908 53.5051C35.9908 55.7248 35.4095 57.7001 34.2468 59.4309C33.0973 61.1618 31.4589 62.5227 29.3317 63.5136C27.2045 64.5045 24.6677 65 21.7213 65H2.61607ZM13.6353 56.2005H18.7882C20.6379 56.2005 22.0252 55.857 22.9501 55.1699C23.875 54.4696 24.3374 53.4391 24.3374 52.0782C24.3374 51.1269 24.1194 50.3209 23.6834 49.6603C23.2474 48.9997 22.6264 48.4976 21.8204 48.1541C21.0277 47.8106 20.0698 47.6388 18.9467 47.6388H13.6353V56.2005ZM13.6353 40.8212H18.154C19.1185 40.8212 19.9707 40.6692 20.7106 40.3653C21.4505 40.0614 22.0252 39.6254 22.4348 39.0573C22.8576 38.4759 23.069 37.7691 23.069 36.9367C23.069 35.6815 22.6198 34.7236 21.7213 34.063C20.8229 33.3891 19.6866 33.0522 18.3125 33.0522H13.6353V40.8212ZM64.9063 65L52.4602 48.5901H50.9143V65H39.8951V24.4112H50.9143V39.7113H52.3413L63.9947 24.4112H77.8678L62.4092 43.9129L78.7398 65H64.9063ZM80.3501 65V56.5176L81.4599 56.359C82.8076 56.1476 83.9241 55.5663 84.8093 54.615C85.7077 53.6505 86.3948 52.1244 86.8704 50.0369C87.3593 47.9361 87.6698 45.0756 87.8019 41.4554L88.4361 24.4112H117.847V65H107.224V32.9729H98.5833L97.9491 45.7362C97.7113 50.4663 97.0771 54.2384 96.0465 57.0527C95.0159 59.8669 93.4503 61.8951 91.3495 63.137C89.2487 64.379 86.4807 65 83.0454 65H80.3501ZM133.608 65H121.717L135.114 24.4112H150.176L163.574 65H151.683L142.804 35.589H142.487L133.608 65ZM131.388 48.9865H153.744V57.2311H131.388V48.9865ZM166.135 74.7508V56.5176H168.989C169.941 55.9362 170.799 55.1171 171.566 54.0601C172.345 53.0031 173.006 51.4902 173.548 49.5216C174.103 47.5529 174.512 44.917 174.776 41.6139L176.124 24.4112H204.822V56.5176H209.102V74.7508H198.48V65H176.758V74.7508H166.135ZM181.594 56.5176H194.199V33.29H186.033L185.399 41.6139C185.214 44.0978 184.93 46.2713 184.547 48.1343C184.177 49.984 183.734 51.5959 183.219 52.97C182.717 54.3309 182.175 55.5134 181.594 56.5176ZM2.61607 120V79.4112H20.2151C23.3068 79.4112 25.9031 79.8274 28.0039 80.6598C30.1179 81.4922 31.71 82.6681 32.7802 84.1876C33.8636 85.707 34.4053 87.4973 34.4053 89.5584C34.4053 91.0514 34.075 92.4123 33.4144 93.6411C32.767 94.8699 31.8553 95.9004 30.6794 96.7328C29.5035 97.552 28.1294 98.1201 26.5571 98.4372V98.8336C28.3011 98.8997 29.8866 99.3423 31.3136 100.161C32.7405 100.967 33.8768 102.084 34.7224 103.511C35.568 104.925 35.9908 106.589 35.9908 108.505C35.9908 110.725 35.4095 112.7 34.2468 114.431C33.0973 116.162 31.4589 117.523 29.3317 118.514C27.2045 119.505 24.6677 120 21.7213 120H2.61607ZM13.6353 111.2H18.7882C20.6379 111.2 22.0252 110.857 22.9501 110.17C23.875 109.47 24.3374 108.439 24.3374 107.078C24.3374 106.127 24.1194 105.321 23.6834 104.66C23.2474 104 22.6264 103.498 21.8204 103.154C21.0277 102.811 20.0698 102.639 18.9467 102.639H13.6353V111.2ZM13.6353 95.8212H18.154C19.1185 95.8212 19.9707 95.6692 20.7106 95.3653C21.4505 95.0614 22.0252 94.6254 22.4348 94.0573C22.8576 93.4759 23.069 92.7691 23.069 91.9367C23.069 90.6815 22.6198 89.7236 21.7213 89.063C20.8229 88.3891 19.6866 88.0522 18.3125 88.0522H13.6353V95.8212ZM82.6441 95.8212V104.383H64.6487V95.8212H82.6441ZM50.9341 106.285H61.7948C61.742 108.267 62.3035 109.727 63.4794 110.665C64.6685 111.603 66.3003 112.073 68.3746 112.073C70.3036 112.073 71.7702 111.696 72.7744 110.943C73.7917 110.177 74.4854 108.981 74.8553 107.356C75.2385 105.717 75.4301 103.59 75.4301 100.974V98.5165C75.4301 95.9533 75.2121 93.8591 74.7761 92.234C74.3401 90.6088 73.6266 89.4131 72.6356 88.6468C71.6447 87.8804 70.3036 87.4973 68.6124 87.4973C66.7627 87.4973 65.3424 87.7417 64.3514 88.2306C63.3605 88.7194 62.68 89.4197 62.3101 90.3314C61.9401 91.243 61.7419 92.3331 61.7155 93.6015H50.8549C51.1191 90.8797 51.9317 88.4023 53.2926 86.1694C54.6535 83.9365 56.6023 82.1594 59.1391 80.8382C61.6759 79.5169 64.8337 78.8563 68.6124 78.8563C72.1534 78.8563 75.2319 79.6557 77.848 81.2544C80.4773 82.8399 82.512 85.1124 83.9521 88.072C85.4055 91.0184 86.1322 94.5263 86.1322 98.5958V100.974C86.1322 105.043 85.4319 108.545 84.0314 111.478C82.6309 114.398 80.6094 116.644 77.9669 118.216C75.3244 119.775 72.127 120.555 68.3746 120.555C64.9658 120.555 61.9732 119.974 59.3967 118.811C56.8335 117.635 54.812 115.983 53.3322 113.856C51.8656 111.716 51.0663 109.192 50.9341 106.285ZM116.192 120L103.746 103.59H102.2V120H91.181V79.4112H102.2V94.7113H103.627L115.281 79.4112H129.154L113.695 98.9129L130.026 120H116.192ZM169.742 99.7056C169.742 104.224 168.864 108.036 167.107 111.141C165.349 114.233 162.978 116.578 159.992 118.177C157.006 119.762 153.676 120.555 150.003 120.555C146.304 120.555 142.961 119.756 139.975 118.157C137.002 116.545 134.637 114.193 132.88 111.101C131.136 107.996 130.264 104.198 130.264 99.7056C130.264 95.187 131.136 91.3818 132.88 88.29C134.637 85.1851 137.002 82.8399 139.975 81.2544C142.961 79.6557 146.304 78.8563 150.003 78.8563C153.676 78.8563 157.006 79.6557 159.992 81.2544C162.978 82.8399 165.349 85.1851 167.107 88.29C168.864 91.3818 169.742 95.187 169.742 99.7056ZM158.406 99.7056C158.406 97.2745 158.082 95.2266 157.435 93.5618C156.801 91.8838 155.856 90.6154 154.601 89.7566C153.359 88.8846 151.826 88.4486 150.003 88.4486C148.18 88.4486 146.64 88.8846 145.385 89.7566C144.143 90.6154 143.199 91.8838 142.551 93.5618C141.917 95.2266 141.6 97.2745 141.6 99.7056C141.6 102.137 141.917 104.191 142.551 105.869C143.199 107.534 144.143 108.802 145.385 109.674C146.64 110.533 148.18 110.963 150.003 110.963C151.826 110.963 153.359 110.533 154.601 109.674C155.856 108.802 156.801 107.534 157.435 105.869C158.082 104.191 158.406 102.137 158.406 99.7056ZM173.493 120V111.518L174.603 111.359C175.951 111.148 177.067 110.566 177.952 109.615C178.851 108.65 179.538 107.124 180.014 105.037C180.502 102.936 180.813 100.076 180.945 96.4554L181.579 79.4112H210.99V120H200.367V87.9729H191.726L191.092 100.736C190.854 105.466 190.22 109.238 189.19 112.053C188.159 114.867 186.593 116.895 184.493 118.137C182.392 119.379 179.624 120 176.188 120H173.493ZM255.528 99.7056C255.528 104.224 254.649 108.036 252.892 111.141C251.135 114.233 248.763 116.578 245.777 118.177C242.791 119.762 239.461 120.555 235.788 120.555C232.089 120.555 228.746 119.756 225.76 118.157C222.787 116.545 220.422 114.193 218.665 111.101C216.921 107.996 216.049 104.198 216.049 99.7056C216.049 95.187 216.921 91.3818 218.665 88.29C220.422 85.1851 222.787 82.8399 225.76 81.2544C228.746 79.6557 232.089 78.8563 235.788 78.8563C239.461 78.8563 242.791 79.6557 245.777 81.2544C248.763 82.8399 251.135 85.1851 252.892 88.29C254.649 91.3818 255.528 95.187 255.528 99.7056ZM244.192 99.7056C244.192 97.2745 243.868 95.2266 243.22 93.5618C242.586 91.8838 241.641 90.6154 240.386 89.7566C239.144 88.8846 237.612 88.4486 235.788 88.4486C233.965 88.4486 232.426 88.8846 231.171 89.7566C229.929 90.6154 228.984 91.8838 228.337 93.5618C227.702 95.2266 227.385 97.2745 227.385 99.7056C227.385 102.137 227.702 104.191 228.337 105.869C228.984 107.534 229.929 108.802 231.171 109.674C232.426 110.533 233.965 110.963 235.788 110.963C237.612 110.963 239.144 110.533 240.386 109.674C241.641 108.802 242.586 107.534 243.22 105.869C243.868 104.191 244.192 102.137 244.192 99.7056ZM289.165 79.4112V88.29H271.645V120H260.626V79.4112H289.165ZM293.273 79.4112H304.292V100.657H304.609L319.037 79.4112H328.391V120H317.372V98.675H317.134L302.468 120H293.273V79.4112ZM344.623 79.4112V120H333.604V79.4112H344.623ZM353.264 96.5346V104.779H339.946V96.5346H353.264ZM389.175 99.7056C389.175 104.224 388.297 108.036 386.54 111.141C384.782 114.233 382.411 116.578 379.425 118.177C376.439 119.762 373.109 120.555 369.436 120.555C365.736 120.555 362.394 119.756 359.408 118.157C356.435 116.545 354.07 114.193 352.313 111.101C350.569 107.996 349.697 104.198 349.697 99.7056C349.697 95.187 350.569 91.3818 352.313 88.29C354.07 85.1851 356.435 82.8399 359.408 81.2544C362.394 79.6557 365.736 78.8563 369.436 78.8563C373.109 78.8563 376.439 79.6557 379.425 81.2544C382.411 82.8399 384.782 85.1851 386.54 88.29C388.297 91.3818 389.175 95.187 389.175 99.7056ZM377.839 99.7056C377.839 97.2745 377.515 95.2266 376.868 93.5618C376.234 91.8838 375.289 90.6154 374.034 89.7566C372.792 88.8846 371.259 88.4486 369.436 88.4486C367.613 88.4486 366.073 88.8846 364.818 89.7566C363.576 90.6154 362.632 91.8838 361.984 93.5618C361.35 95.2266 361.033 97.2745 361.033 99.7056C361.033 102.137 361.35 104.191 361.984 105.869C362.632 107.534 363.576 108.802 364.818 109.674C366.073 110.533 367.613 110.963 369.436 110.963C371.259 110.963 372.792 110.533 374.034 109.674C375.289 108.802 376.234 107.534 376.868 105.869C377.515 104.191 377.839 102.137 377.839 99.7056Z" fill="#177CFF"/>
</g>
<g clip-path="url(#clip1_758_114)">
<rect x="2.41699" y="143.992" width="197.308" height="197.306" rx="12.825" fill="#177CFF"/>
<path d="M56.0822 203.348C67.1534 201.799 70.9663 205.342 76.2816 210.237C81.3985 214.961 87.7463 220.84 101.892 223.621C103.689 223.966 105.484 224.138 107.256 224.138C118.573 224.138 129.178 217.273 133.802 207.064C138.402 210.704 142.314 214.961 144.997 219.808C145.439 220.619 146.276 221.063 147.162 221.063C147.556 221.063 147.974 220.964 148.343 220.743C149.523 220.078 149.967 218.577 149.302 217.397C145.98 211.394 141.135 206.277 135.525 202.02C135.574 201.774 135.649 201.553 135.698 201.33C137.247 193.827 135.771 186.199 131.565 179.803C127.358 173.406 120.911 169.052 113.407 167.502C73.5272 159.284 53.7212 199.436 53.5245 199.854C53.131 200.665 53.2286 201.651 53.7456 202.363C54.2855 203.101 55.1716 203.495 56.0822 203.348ZM112.422 172.323C118.622 173.603 123.96 177.219 127.454 182.508C130.677 187.404 131.932 193.21 131.095 198.968C121.992 193.21 111.437 189.545 101.72 188.093L95.1754 181.549C94.216 180.59 92.6665 180.59 91.7072 181.549C90.7478 182.508 90.7478 184.058 91.7072 185.017L94.0697 187.38C87.7463 187.207 82.1123 188.118 77.9791 190.184C76.7742 190.799 76.2816 192.275 76.8718 193.482C77.4864 194.687 78.9628 195.204 80.1693 194.589C87.7219 190.801 101.967 191.833 115.547 196.952L111.365 201.134C110.406 202.093 110.406 203.643 111.365 204.602C111.858 205.095 112.472 205.316 113.111 205.316C113.75 205.316 114.367 205.07 114.858 204.602L120.467 198.992C123.666 200.469 126.791 202.166 129.717 204.085C125.584 214.442 114.144 220.987 102.827 218.772C90.0584 216.263 84.4976 211.12 79.6018 206.618C74.854 202.239 70.3517 198.056 60.8788 198.056C60.6332 198.056 60.3861 198.056 60.1406 198.056C65.9225 188.658 83.0456 166.245 112.42 172.297L112.422 172.323Z" fill="white"/>
<path d="M81.8652 287.759C83.3903 280.969 85.309 272.53 80.6343 258.9C76.28 246.18 63.2397 238.258 50.3246 239.538C51.1604 233.731 52.9083 228.245 55.7619 223.471C56.4513 222.315 56.0822 220.79 54.9261 220.101C53.7456 219.387 52.2449 219.78 51.5555 220.937C48.0369 226.816 45.9946 233.557 45.1345 240.57C44.9134 240.643 44.6679 240.694 44.4451 240.767C29.4618 245.737 21.3173 262 26.2879 276.984C37.3835 310.394 72.2459 312.731 81.8164 312.731C83.3172 312.731 84.2033 312.682 84.2521 312.657C85.1626 312.584 85.9496 312.018 86.3187 311.205C86.6878 310.37 86.5642 309.409 85.9984 308.697C79.1335 299.889 80.2652 294.796 81.8652 287.759ZM30.9626 275.408C26.9773 263.426 33.1284 250.536 44.715 245.91C44.2971 256.661 46.3881 267.634 49.9799 276.785L47.593 285.717C47.2483 287.021 48.0109 288.374 49.3393 288.718C49.5604 288.767 49.7571 288.792 49.9783 288.792C51.0612 288.792 52.0693 288.078 52.3652 286.97L53.227 283.748C56.2529 289.309 59.8447 293.736 63.708 296.271C64.1258 296.541 64.5941 296.689 65.0608 296.689C65.8477 296.689 66.6347 296.295 67.1274 295.582C67.8656 294.45 67.5696 292.925 66.438 292.162C59.4024 287.512 53.1522 274.67 50.7913 260.352L56.4984 261.877C56.7195 261.926 56.9163 261.95 57.1374 261.95C58.2203 261.95 59.2284 261.236 59.5243 260.129C59.8691 258.825 59.1065 257.472 57.7781 257.127L50.1019 255.061C49.7815 251.542 49.684 247.975 49.9051 244.482C51.0124 244.334 52.0953 244.237 53.2026 244.237C63.1177 244.237 72.7126 250.633 76.0588 260.449C80.2652 272.776 78.6181 280.132 77.1417 286.652C75.6897 293.121 74.2882 299.248 79.4783 307.786C68.4558 307.49 40.4826 303.85 31.0357 275.384L30.9626 275.408Z" fill="white"/>
<path d="M166.596 229.673C166.079 228.935 165.194 228.517 164.308 228.615C163.398 228.714 162.635 229.304 162.29 230.14C158.108 240.497 153.113 242.047 146.224 244.188C139.582 246.255 131.316 248.814 121.843 259.689C112.986 269.825 112.666 285.078 120.218 295.608C114.954 297.699 109.516 298.954 104.178 298.954C103.981 298.954 103.785 298.954 103.612 298.954H103.564C102.235 298.954 101.128 300.037 101.104 301.365C101.104 302.718 102.162 303.85 103.515 303.874H104.204C110.822 303.874 117.44 302.274 123.739 299.617C123.911 299.79 124.059 299.962 124.256 300.135C129.693 304.982 136.507 307.342 143.273 307.342C151.17 307.342 159.043 304.095 164.702 297.748C191.764 267.314 166.892 230.091 166.62 229.722L166.596 229.673ZM160.986 294.452C152.596 303.874 138.351 305.006 128.584 297.281C138.106 292.286 146.569 284.98 152.694 277.28L161.625 274.893C162.929 274.548 163.716 273.195 163.372 271.891C163.027 270.587 161.674 269.8 160.37 270.145L157.147 271.007C160.469 265.618 162.486 260.28 162.757 255.679C162.83 254.326 161.798 253.146 160.445 253.071C159.068 252.947 157.912 254.03 157.837 255.383C157.32 263.822 149.325 275.631 138.106 284.857L136.581 279.15C136.236 277.846 134.883 277.059 133.579 277.403C132.275 277.748 131.488 279.101 131.833 280.405L133.875 288.081C130.997 290.123 127.971 291.969 124.822 293.543C117.932 284.784 117.983 271.597 125.56 262.937C134.122 253.121 141.33 250.882 147.702 248.913C154.026 246.946 160.029 245.076 164.825 236.366C169.967 246.108 180.669 272.36 161.012 294.476L160.986 294.452Z" fill="white"/>
</g>
<defs>
<clipPath id="clip0_758_114">
<rect width="461" height="144" fill="white"/>
</clipPath>
<clipPath id="clip1_758_114">
<rect width="200.07" height="197.505" fill="white" transform="translate(0 144)"/>
</clipPath>
</defs>
</svg>
