<svg width="731" height="287" viewBox="0 0 731 287" fill="none" xmlns="http://www.w3.org/2000/svg">
<g clip-path="url(#clip0_758_114)">
<path d="M2.61607 65V24.4112H20.2151C23.3068 24.4112 25.9031 24.8274 28.0039 25.6598C30.1179 26.4922 31.71 27.6681 32.7802 29.1876C33.8636 30.707 34.4053 32.4973 34.4053 34.5584C34.4053 36.0514 34.075 37.4123 33.4144 38.6411C32.767 39.8699 31.8553 40.9004 30.6794 41.7328C29.5035 42.552 28.1294 43.1201 26.5571 43.4372V43.8336C28.3011 43.8997 29.8866 44.3423 31.3136 45.1615C32.7405 45.9674 33.8768 47.0839 34.7224 48.5108C35.568 49.9246 35.9908 51.5893 35.9908 53.5051C35.9908 55.7248 35.4095 57.7001 34.2468 59.4309C33.0973 61.1618 31.4589 62.5227 29.3317 63.5136C27.2045 64.5045 24.6677 65 21.7213 65H2.61607ZM13.6353 56.2005H18.7882C20.6379 56.2005 22.0252 55.857 22.9501 55.1699C23.875 54.4696 24.3374 53.4391 24.3374 52.0782C24.3374 51.1269 24.1194 50.3209 23.6834 49.6603C23.2474 48.9997 22.6264 48.4976 21.8204 48.1541C21.0277 47.8106 20.0698 47.6388 18.9467 47.6388H13.6353V56.2005ZM13.6353 40.8212H18.154C19.1185 40.8212 19.9707 40.6692 20.7106 40.3653C21.4505 40.0614 22.0252 39.6254 22.4348 39.0573C22.8576 38.4759 23.069 37.7691 23.069 36.9367C23.069 35.6815 22.6198 34.7236 21.7213 34.063C20.8229 33.3891 19.6866 33.0522 18.3125 33.0522H13.6353V40.8212ZM64.9063 65L52.4602 48.5901H50.9143V65H39.8951V24.4112H50.9143V39.7113H52.3413L63.9947 24.4112H77.8678L62.4092 43.9129L78.7398 65H64.9063ZM80.3501 65V56.5176L81.4599 56.359C82.8076 56.1476 83.9241 55.5663 84.8093 54.615C85.7077 53.6505 86.3948 52.1244 86.8704 50.0369C87.3593 47.9361 87.6698 45.0756 87.8019 41.4554L88.4361 24.4112H117.847V65H107.224V32.9729H98.5833L97.9491 45.7362C97.7113 50.4663 97.0771 54.2384 96.0465 57.0527C95.0159 59.8669 93.4503 61.8951 91.3495 63.137C89.2487 64.379 86.4807 65 83.0454 65H80.3501ZM133.608 65H121.717L135.114 24.4112H150.176L163.574 65H151.683L142.804 35.589H142.487L133.608 65ZM131.388 48.9865H153.744V57.2311H131.388V48.9865ZM166.135 74.7508V56.5176H168.989C169.941 55.9362 170.799 55.1171 171.566 54.0601C172.345 53.0031 173.006 51.4902 173.548 49.5216C174.103 47.5529 174.512 44.917 174.776 41.6139L176.124 24.4112H204.822V56.5176H209.102V74.7508H198.48V65H176.758V74.7508H166.135ZM181.594 56.5176H194.199V33.29H186.033L185.399 41.6139C185.214 44.0978 184.93 46.2713 184.547 48.1343C184.177 49.984 183.734 51.5959 183.219 52.97C182.717 54.3309 182.175 55.5134 181.594 56.5176ZM223.947 65V24.4112H241.546C244.637 24.4112 247.234 24.8274 249.334 25.6598C251.448 26.4922 253.041 27.6681 254.111 29.1876C255.194 30.707 255.736 32.4973 255.736 34.5584C255.736 36.0514 255.406 37.4123 254.745 38.6411C254.098 39.8699 253.186 40.9004 252.01 41.7328C250.834 42.552 249.46 43.1201 247.888 43.4372V43.8336C249.632 43.8997 251.217 44.3423 252.644 45.1615C254.071 45.9674 255.207 47.0839 256.053 48.5108C256.899 49.9246 257.321 51.5893 257.321 53.5051C257.321 55.7248 256.74 57.7001 255.577 59.4309C254.428 61.1618 252.79 62.5227 250.662 63.5136C248.535 64.5045 245.998 65 243.052 65H223.947ZM234.966 56.2005H240.119C241.969 56.2005 243.356 55.857 244.281 55.1699C245.206 54.4696 245.668 53.4391 245.668 52.0782C245.668 51.1269 245.45 50.3209 245.014 49.6603C244.578 48.9997 243.957 48.4976 243.151 48.1541C242.358 47.8106 241.4 47.6388 240.277 47.6388H234.966V56.2005ZM234.966 40.8212H239.485C240.449 40.8212 241.301 40.6692 242.041 40.3653C242.781 40.0614 243.356 39.6254 243.765 39.0573C244.188 38.4759 244.4 37.7691 244.4 36.9367C244.4 35.6815 243.95 34.7236 243.052 34.063C242.153 33.3891 241.017 33.0522 239.643 33.0522H234.966V40.8212ZM303.975 40.8212V49.3828H285.979V40.8212H303.975ZM272.265 51.2854H283.125C283.073 53.2673 283.634 54.7273 284.81 55.6654C285.999 56.6035 287.631 57.0725 289.705 57.0725C291.634 57.0725 293.101 56.696 294.105 55.9428C295.122 55.1765 295.816 53.9808 296.186 52.3557C296.569 50.7173 296.761 48.5901 296.761 45.974V43.5165C296.761 40.9533 296.543 38.8591 296.107 37.234C295.671 35.6088 294.957 34.4131 293.966 33.6468C292.975 32.8804 291.634 32.4973 289.943 32.4973C288.093 32.4973 286.673 32.7417 285.682 33.2306C284.691 33.7194 284.011 34.4197 283.641 35.3314C283.271 36.243 283.073 37.3331 283.046 38.6015H272.185C272.45 35.8797 273.262 33.4023 274.623 31.1694C275.984 28.9365 277.933 27.1594 280.47 25.8382C283.006 24.5169 286.164 23.8563 289.943 23.8563C293.484 23.8563 296.562 24.6557 299.179 26.2544C301.808 27.8399 303.843 30.1124 305.283 33.072C306.736 36.0184 307.463 39.5263 307.463 43.5958V45.974C307.463 50.0435 306.763 53.5448 305.362 56.4779C303.961 59.3979 301.94 61.644 299.297 63.2163C296.655 64.7754 293.458 65.5549 289.705 65.5549C286.296 65.5549 283.304 64.9736 280.727 63.8109C278.164 62.635 276.143 60.9834 274.663 58.8562C273.196 56.7158 272.397 54.1922 272.265 51.2854ZM337.523 65L325.077 48.5901H323.531V65H312.512V24.4112H323.531V39.7113H324.958L336.611 24.4112H350.484L335.026 43.9129L351.356 65H337.523ZM391.073 44.7056C391.073 49.2243 390.194 53.0361 388.437 56.141C386.68 59.2327 384.308 61.578 381.322 63.1767C378.336 64.7622 375.007 65.5549 371.334 65.5549C367.634 65.5549 364.291 64.7556 361.305 63.1569C358.333 61.5449 355.967 59.1931 354.21 56.1014C352.466 52.9965 351.594 49.1979 351.594 44.7056C351.594 40.187 352.466 36.3818 354.21 33.29C355.967 30.1851 358.333 27.8399 361.305 26.2544C364.291 24.6557 367.634 23.8563 371.334 23.8563C375.007 23.8563 378.336 24.6557 381.322 26.2544C384.308 27.8399 386.68 30.1851 388.437 33.29C390.194 36.3818 391.073 40.187 391.073 44.7056ZM379.737 44.7056C379.737 42.2745 379.413 40.2266 378.766 38.5618C378.131 36.8838 377.187 35.6154 375.932 34.7566C374.69 33.8846 373.157 33.4486 371.334 33.4486C369.51 33.4486 367.971 33.8846 366.716 34.7566C365.474 35.6154 364.529 36.8838 363.882 38.5618C363.248 40.2266 362.93 42.2745 362.93 44.7056C362.93 47.1367 363.248 49.1913 363.882 50.8692C364.529 52.534 365.474 53.8024 366.716 54.6744C367.971 55.5333 369.51 55.9627 371.334 55.9627C373.157 55.9627 374.69 55.5333 375.932 54.6744C377.187 53.8024 378.131 52.534 378.766 50.8692C379.413 49.1913 379.737 47.1367 379.737 44.7056ZM394.824 65V56.5176L395.934 56.359C397.281 56.1476 398.398 55.5663 399.283 54.615C400.181 53.6505 400.868 52.1244 401.344 50.0369C401.833 47.9361 402.143 45.0756 402.276 41.4554L402.91 24.4112H432.321V65H421.698V32.9729H413.057L412.423 45.7362C412.185 50.4663 411.551 54.2384 410.52 57.0527C409.49 59.8669 407.924 61.8951 405.823 63.137C403.722 64.379 400.954 65 397.519 65H394.824ZM476.858 44.7056C476.858 49.2243 475.98 53.0361 474.223 56.141C472.465 59.2327 470.094 61.578 467.108 63.1767C464.122 64.7622 460.792 65.5549 457.119 65.5549C453.419 65.5549 450.077 64.7556 447.091 63.1569C444.118 61.5449 441.753 59.1931 439.996 56.1014C438.252 52.9965 437.38 49.1979 437.38 44.7056C437.38 40.187 438.252 36.3818 439.996 33.29C441.753 30.1851 444.118 27.8399 447.091 26.2544C450.077 24.6557 453.419 23.8563 457.119 23.8563C460.792 23.8563 464.122 24.6557 467.108 26.2544C470.094 27.8399 472.465 30.1851 474.223 33.29C475.98 36.3818 476.858 40.187 476.858 44.7056ZM465.522 44.7056C465.522 42.2745 465.198 40.2266 464.551 38.5618C463.917 36.8838 462.972 35.6154 461.717 34.7566C460.475 33.8846 458.942 33.4486 457.119 33.4486C455.296 33.4486 453.756 33.8846 452.501 34.7566C451.259 35.6154 450.315 36.8838 449.667 38.5618C449.033 40.2266 448.716 42.2745 448.716 44.7056C448.716 47.1367 449.033 49.1913 449.667 50.8692C450.315 52.534 451.259 53.8024 452.501 54.6744C453.756 55.5333 455.296 55.9627 457.119 55.9627C458.942 55.9627 460.475 55.5333 461.717 54.6744C462.972 53.8024 463.917 52.534 464.551 50.8692C465.198 49.1913 465.522 47.1367 465.522 44.7056ZM510.496 24.4112V33.29H492.976V65H481.957V24.4112H510.496ZM514.603 24.4112H525.622V45.6569H525.94L540.368 24.4112H549.722V65H538.703V43.675H538.465L523.799 65H514.603V24.4112ZM565.954 24.4112V65H554.934V24.4112H565.954ZM574.594 41.5346V49.7792H561.276V41.5346H574.594ZM610.506 44.7056C610.506 49.2243 609.627 53.0361 607.87 56.141C606.113 59.2327 603.741 61.578 600.755 63.1767C597.769 64.7622 594.44 65.5549 590.767 65.5549C587.067 65.5549 583.724 64.7556 580.738 63.1569C577.765 61.5449 575.4 59.1931 573.643 56.1014C571.899 52.9965 571.027 49.1979 571.027 44.7056C571.027 40.187 571.899 36.3818 573.643 33.29C575.4 30.1851 577.765 27.8399 580.738 26.2544C583.724 24.6557 587.067 23.8563 590.767 23.8563C594.44 23.8563 597.769 24.6557 600.755 26.2544C603.741 27.8399 606.113 30.1851 607.87 33.29C609.627 36.3818 610.506 40.187 610.506 44.7056ZM599.17 44.7056C599.17 42.2745 598.846 40.2266 598.199 38.5618C597.564 36.8838 596.62 35.6154 595.365 34.7566C594.123 33.8846 592.59 33.4486 590.767 33.4486C588.943 33.4486 587.404 33.8846 586.149 34.7566C584.907 35.6154 583.962 36.8838 583.315 38.5618C582.681 40.2266 582.363 42.2745 582.363 44.7056C582.363 47.1367 582.681 49.1913 583.315 50.8692C583.962 52.534 584.907 53.8024 586.149 54.6744C587.404 55.5333 588.943 55.9627 590.767 55.9627C592.59 55.9627 594.123 55.5333 595.365 54.6744C596.62 53.8024 597.564 52.534 598.199 50.8692C598.846 49.1913 599.17 47.1367 599.17 44.7056Z" fill="#177CFF"/>
</g>
<g clip-path="url(#clip1_758_114)">
<rect x="2.41699" y="88.9922" width="197.308" height="197.306" rx="12.825" fill="#177CFF"/>
<path d="M56.0822 148.348C67.1534 146.799 70.9663 150.342 76.2816 155.237C81.3985 159.961 87.7463 165.84 101.892 168.621C103.689 168.966 105.484 169.138 107.256 169.138C118.573 169.138 129.178 162.273 133.802 152.064C138.402 155.704 142.314 159.961 144.997 164.808C145.439 165.619 146.276 166.063 147.162 166.063C147.556 166.063 147.974 165.964 148.343 165.743C149.523 165.078 149.967 163.577 149.302 162.397C145.98 156.394 141.135 151.277 135.525 147.02C135.574 146.774 135.649 146.553 135.698 146.33C137.247 138.827 135.771 131.199 131.565 124.803C127.358 118.406 120.911 114.052 113.407 112.502C73.5272 104.284 53.7212 144.436 53.5245 144.854C53.131 145.665 53.2286 146.651 53.7456 147.363C54.2855 148.101 55.1716 148.495 56.0822 148.348ZM112.422 117.323C118.622 118.603 123.96 122.219 127.454 127.508C130.677 132.404 131.932 138.21 131.095 143.968C121.992 138.21 111.437 134.545 101.72 133.093L95.1754 126.549C94.216 125.59 92.6665 125.59 91.7072 126.549C90.7478 127.508 90.7478 129.058 91.7072 130.017L94.0697 132.38C87.7463 132.207 82.1123 133.118 77.9791 135.184C76.7742 135.799 76.2816 137.275 76.8718 138.482C77.4864 139.687 78.9628 140.204 80.1693 139.589C87.7219 135.801 101.967 136.833 115.547 141.952L111.365 146.134C110.406 147.093 110.406 148.643 111.365 149.602C111.858 150.095 112.472 150.316 113.111 150.316C113.75 150.316 114.367 150.07 114.858 149.602L120.467 143.992C123.666 145.469 126.791 147.166 129.717 149.085C125.584 159.442 114.144 165.987 102.827 163.772C90.0584 161.263 84.4976 156.12 79.6018 151.618C74.854 147.239 70.3517 143.056 60.8788 143.056C60.6332 143.056 60.3861 143.056 60.1406 143.056C65.9225 133.658 83.0456 111.245 112.42 117.297L112.422 117.323Z" fill="white"/>
<path d="M81.8652 232.759C83.3903 225.969 85.309 217.53 80.6343 203.9C76.28 191.18 63.2397 183.258 50.3246 184.538C51.1604 178.731 52.9083 173.245 55.7619 168.471C56.4513 167.315 56.0822 165.79 54.9261 165.101C53.7456 164.387 52.2449 164.78 51.5555 165.937C48.0369 171.816 45.9946 178.557 45.1345 185.57C44.9134 185.643 44.6679 185.694 44.4451 185.767C29.4618 190.737 21.3173 207 26.2879 221.984C37.3835 255.394 72.2459 257.731 81.8164 257.731C83.3172 257.731 84.2033 257.682 84.2521 257.657C85.1626 257.584 85.9496 257.018 86.3187 256.205C86.6878 255.37 86.5642 254.409 85.9984 253.697C79.1335 244.889 80.2652 239.796 81.8652 232.759ZM30.9626 220.408C26.9773 208.426 33.1284 195.536 44.715 190.91C44.2971 201.661 46.3881 212.634 49.9799 221.785L47.593 230.717C47.2483 232.021 48.0109 233.374 49.3393 233.718C49.5604 233.767 49.7571 233.792 49.9783 233.792C51.0612 233.792 52.0693 233.078 52.3652 231.97L53.227 228.748C56.2529 234.309 59.8447 238.736 63.708 241.271C64.1258 241.541 64.5941 241.689 65.0608 241.689C65.8477 241.689 66.6347 241.295 67.1274 240.582C67.8656 239.45 67.5696 237.925 66.438 237.162C59.4024 232.512 53.1522 219.67 50.7913 205.352L56.4984 206.877C56.7195 206.926 56.9163 206.95 57.1374 206.95C58.2203 206.95 59.2284 206.236 59.5243 205.129C59.8691 203.825 59.1065 202.472 57.7781 202.127L50.1019 200.061C49.7815 196.542 49.684 192.975 49.9051 189.482C51.0124 189.334 52.0953 189.237 53.2026 189.237C63.1177 189.237 72.7126 195.633 76.0588 205.449C80.2652 217.776 78.6181 225.132 77.1417 231.652C75.6897 238.121 74.2882 244.248 79.4783 252.786C68.4558 252.49 40.4826 248.85 31.0357 220.384L30.9626 220.408Z" fill="white"/>
<path d="M166.596 174.673C166.079 173.935 165.194 173.517 164.308 173.615C163.398 173.714 162.635 174.304 162.29 175.14C158.108 185.497 153.113 187.047 146.224 189.188C139.582 191.255 131.316 193.814 121.843 204.689C112.986 214.825 112.666 230.078 120.218 240.608C114.954 242.699 109.516 243.954 104.178 243.954C103.981 243.954 103.785 243.954 103.612 243.954H103.564C102.235 243.954 101.128 245.037 101.104 246.365C101.104 247.718 102.162 248.85 103.515 248.874H104.204C110.822 248.874 117.44 247.274 123.739 244.617C123.911 244.79 124.059 244.962 124.256 245.135C129.693 249.982 136.507 252.342 143.273 252.342C151.17 252.342 159.043 249.095 164.702 242.748C191.764 212.314 166.892 175.091 166.62 174.722L166.596 174.673ZM160.986 239.452C152.596 248.874 138.351 250.006 128.584 242.281C138.106 237.286 146.569 229.98 152.694 222.28L161.625 219.893C162.929 219.548 163.716 218.195 163.372 216.891C163.027 215.587 161.674 214.8 160.37 215.145L157.147 216.007C160.469 210.618 162.486 205.28 162.757 200.679C162.83 199.326 161.798 198.146 160.445 198.071C159.068 197.947 157.912 199.03 157.837 200.383C157.32 208.822 149.325 220.631 138.106 229.857L136.581 224.15C136.236 222.846 134.883 222.059 133.579 222.403C132.275 222.748 131.488 224.101 131.833 225.405L133.875 233.081C130.997 235.123 127.971 236.969 124.822 238.543C117.932 229.784 117.983 216.597 125.56 207.937C134.122 198.121 141.33 195.882 147.702 193.913C154.026 191.946 160.029 190.076 164.825 181.366C169.967 191.108 180.669 217.36 161.012 239.476L160.986 239.452Z" fill="white"/>
</g>
<defs>
<clipPath id="clip0_758_114">
<rect width="731" height="89" fill="white"/>
</clipPath>
<clipPath id="clip1_758_114">
<rect width="200.07" height="197.505" fill="white" transform="translate(0 89)"/>
</clipPath>
</defs>
</svg>
