<svg width="1386" height="462" viewBox="0 0 1386 462" fill="none" xmlns="http://www.w3.org/2000/svg">
<g clip-path="url(#clip0_792_119)">
<rect width="1386" height="462" rx="15" fill="#177CFF"/>
<rect x="647.458" y="119.289" width="278.616" height="80" rx="40" transform="rotate(-5.26002 647.458 119.289)" fill="#177CFF"/>
<rect x="647.458" y="119.289" width="278.616" height="80" rx="40" transform="rotate(-5.26002 647.458 119.289)" stroke="white" stroke-width="6"/>
<path d="M697.765 172.902L694.391 136.258L710.28 134.796C713.071 134.539 715.45 134.699 717.415 135.275C719.393 135.851 720.928 136.781 722.021 138.063C723.125 139.345 723.763 140.916 723.934 142.777C724.058 144.125 723.873 145.381 723.379 146.545C722.897 147.709 722.159 148.715 721.167 149.564C720.173 150.401 718.98 151.028 717.587 151.445L717.62 151.803C719.2 151.718 720.668 151.986 722.024 152.607C723.38 153.216 724.498 154.129 725.38 155.347C726.261 156.553 726.781 158.021 726.94 159.751C727.125 161.755 726.764 163.586 725.858 165.245C724.965 166.904 723.598 168.268 721.76 169.34C719.922 170.411 717.673 171.069 715.013 171.314L697.765 172.902ZM706.982 164.042L711.634 163.614C713.304 163.46 714.528 163.035 715.306 162.337C716.082 161.628 716.414 160.66 716.301 159.431C716.222 158.572 715.958 157.863 715.51 157.302C715.061 156.742 714.459 156.341 713.703 156.097C712.958 155.853 712.079 155.778 711.065 155.871L706.27 156.313L706.982 164.042ZM705.703 150.158L709.783 149.782C710.654 149.702 711.41 149.494 712.053 149.158C712.696 148.822 713.179 148.381 713.501 147.834C713.834 147.274 713.967 146.618 713.897 145.866C713.793 144.733 713.308 143.906 712.442 143.384C711.575 142.85 710.521 142.641 709.28 142.755L705.058 143.144L705.703 150.158ZM738.085 132.236L750.466 131.096L760.894 151.067L761.324 151.028L767.93 129.488L780.311 128.348L783.685 164.992L773.951 165.888L772.001 144.704L771.715 144.73L765.48 166.38L759.611 166.92L749.515 146.629L749.228 146.656L751.192 167.984L741.458 168.88L738.085 132.236ZM785.026 127.914L794.974 126.998L796.74 146.179L797.026 146.153L808.286 125.773L816.731 124.995L820.105 161.639L810.157 162.555L808.384 143.303L808.17 143.322L796.702 163.794L788.399 164.558L785.026 127.914ZM824.811 161.206L821.437 124.562L837.254 123.106C839.974 122.856 842.403 123.173 844.542 124.059C846.68 124.945 848.405 126.308 849.718 128.148C851.03 129.988 851.806 132.208 852.045 134.808C852.287 137.432 851.911 139.759 850.919 141.787C849.939 143.814 848.447 145.443 846.443 146.674C844.451 147.904 842.06 148.647 839.268 148.904L829.821 149.774L829.109 142.044L836.553 141.359C837.722 141.251 838.699 140.957 839.485 140.476C840.281 139.981 840.865 139.332 841.236 138.528C841.619 137.723 841.763 136.801 841.667 135.764C841.571 134.714 841.262 133.84 840.74 133.142C840.23 132.431 839.539 131.918 838.668 131.601C837.807 131.271 836.793 131.16 835.624 131.268L832.117 131.591L834.759 160.29L824.811 161.206ZM857.876 158.162L854.503 121.518L880.912 119.087L881.65 127.102L865.189 128.618L865.769 134.916L880.87 133.526L881.608 141.542L866.507 142.932L867.086 149.23L883.476 147.721L884.214 155.737L857.876 158.162Z" fill="white"/>
<rect x="462.58" y="125.599" width="184.099" height="80" rx="40" transform="rotate(-13.1506 462.58 125.599)" fill="#177CFF"/>
<rect x="462.58" y="125.599" width="184.099" height="80" rx="40" transform="rotate(-13.1506 462.58 125.599)" stroke="white" stroke-width="6"/>
<path d="M516.597 172.54L508.225 136.706L523.763 133.076C526.492 132.439 528.87 132.27 530.896 132.572C532.935 132.871 534.583 133.581 535.841 134.701C537.111 135.819 537.958 137.288 538.384 139.108C538.691 140.426 538.681 141.695 538.351 142.917C538.033 144.135 537.44 145.233 536.574 146.21C535.705 147.176 534.609 147.961 533.286 148.565L533.368 148.915C534.921 148.614 536.412 148.677 537.841 149.106C539.267 149.524 540.501 150.275 541.541 151.36C542.58 152.434 543.296 153.816 543.691 155.508C544.149 157.467 544.043 159.331 543.374 161.099C542.716 162.864 541.55 164.404 539.877 165.717C538.203 167.031 536.066 167.992 533.465 168.599L516.597 172.54ZM524.511 162.499L529.06 161.436C530.693 161.054 531.847 160.465 532.522 159.667C533.194 158.858 533.39 157.853 533.109 156.652C532.913 155.812 532.554 155.145 532.033 154.652C531.511 154.159 530.86 153.844 530.077 153.707C529.307 153.567 528.425 153.613 527.434 153.844L522.745 154.94L524.511 162.499ZM521.338 148.921L525.328 147.989C526.179 147.79 526.9 147.48 527.491 147.059C528.081 146.638 528.499 146.135 528.743 145.549C528.997 144.948 529.038 144.281 528.866 143.546C528.607 142.438 528.013 141.685 527.083 141.287C526.151 140.877 525.078 140.814 523.865 141.097L519.736 142.062L521.338 148.921ZM577.731 134.638L567.863 136.944C567.602 136.144 567.242 135.447 566.784 134.853C566.337 134.256 565.795 133.78 565.158 133.424C564.53 133.054 563.819 132.827 563.024 132.742C562.227 132.645 561.361 132.706 560.428 132.924C558.795 133.305 557.506 134.025 556.559 135.083C555.625 136.137 555.039 137.474 554.802 139.091C554.577 140.706 554.706 142.552 555.192 144.628C555.704 146.821 556.425 148.59 557.354 149.935C558.292 151.266 559.409 152.174 560.703 152.659C561.994 153.132 563.427 153.185 565.002 152.817C565.9 152.607 566.679 152.308 567.339 151.92C567.996 151.521 568.537 151.044 568.961 150.49C569.385 149.935 569.689 149.317 569.874 148.634C570.068 147.937 570.133 147.19 570.07 146.392L579.955 144.157C580.192 145.7 580.128 147.345 579.761 149.092C579.391 150.827 578.685 152.517 577.643 154.163C576.609 155.794 575.195 157.244 573.4 158.512C571.605 159.781 569.395 160.721 566.771 161.334C563.481 162.103 560.365 162.087 557.423 161.286C554.492 160.482 551.948 158.887 549.791 156.5C547.646 154.11 546.11 150.933 545.183 146.967C544.251 142.977 544.236 139.438 545.138 136.349C546.037 133.248 547.63 130.692 549.916 128.682C552.199 126.66 554.95 125.273 558.17 124.521C560.433 123.992 562.587 123.815 564.633 123.989C566.679 124.163 568.558 124.677 570.271 125.532C571.981 126.375 573.475 127.557 574.753 129.079C576.031 130.601 577.024 132.454 577.731 134.638ZM587.377 156.003L579.005 120.17L604.831 114.136L606.662 121.974L590.565 125.735L592.004 131.894L606.771 128.444L608.603 136.283L593.835 139.733L595.274 145.892L611.301 142.147L613.133 149.986L587.377 156.003Z" fill="white"/>
<rect x="443.617" y="192.49" width="381.456" height="80" rx="40" transform="rotate(0.224189 443.617 192.49)" fill="white"/>
<path d="M503.99 250.726L504.134 213.928L530.008 214.029L529.976 222.079L514.092 222.016L514.076 226.329L517.813 226.343C520.903 226.355 523.603 226.863 525.911 227.866C528.231 228.87 530.028 230.278 531.303 232.092C532.589 233.906 533.228 236.035 533.218 238.478C533.209 240.922 532.553 243.07 531.252 244.921C529.963 246.773 528.155 248.215 525.827 249.248C523.511 250.282 520.808 250.792 517.717 250.78L503.99 250.726ZM514.011 242.931L517.748 242.946C518.946 242.951 519.953 242.757 520.769 242.365C521.597 241.973 522.222 241.43 522.644 240.737C523.078 240.044 523.297 239.254 523.3 238.368C523.305 237.11 522.836 236.066 521.893 235.236C520.95 234.394 519.58 233.969 517.783 233.962L514.046 233.947L514.011 242.931ZM542.017 251.378L542.047 243.616L543.844 243.623C544.898 243.627 545.731 243.547 546.343 243.381C546.966 243.204 547.447 242.894 547.784 242.452C548.133 241.999 548.429 241.365 548.672 240.551L549.035 239.475L535.335 214.05L545.541 214.09L553.173 229.069L559.125 214.143L569.187 214.182L556.425 242.882C555.724 244.388 554.892 245.792 553.929 247.094C552.966 248.384 551.77 249.428 550.341 250.225C548.912 251.01 547.144 251.398 545.036 251.39L542.017 251.378ZM573.706 222.25L573.737 214.2L605.721 214.325L605.689 222.375L594.621 222.332L594.508 251.08L584.662 251.042L584.774 222.293L573.706 222.25ZM615.757 226.727L623.375 226.756C626.478 226.769 629.183 227.276 631.491 228.28C633.811 229.283 635.608 230.691 636.883 232.505C638.169 234.319 638.802 236.448 638.78 238.891C638.783 241.335 638.134 243.483 636.833 245.334C635.544 247.186 633.735 248.629 631.407 249.662C629.091 250.695 626.382 251.205 623.28 251.193L609.552 251.139L609.696 214.341L619.686 214.38L619.573 243.344L623.31 243.359C624.52 243.364 625.533 243.17 626.349 242.778C627.177 242.386 627.802 241.843 628.224 241.15C628.658 240.457 628.871 239.667 628.862 238.781C628.879 237.523 628.416 236.479 627.473 235.649C626.53 234.807 625.154 234.382 623.345 234.375L615.727 234.345L615.757 226.727ZM651.454 214.504L651.31 251.303L641.32 251.264L641.464 214.465L651.454 214.504ZM654.809 251.316L654.839 243.626L655.846 243.486C657.068 243.299 658.083 242.776 658.889 241.917C659.707 241.046 660.335 239.665 660.774 237.774C661.224 235.871 661.516 233.278 661.649 229.997L662.284 214.546L688.949 214.651L688.805 251.449L679.174 251.412L679.287 222.375L671.453 222.345L670.833 233.914C670.601 238.201 670.012 241.619 669.068 244.167C668.124 246.715 666.697 248.548 664.788 249.666C662.879 250.785 660.367 251.338 657.253 251.326L654.809 251.316ZM716.21 251.557L704.985 236.635L703.583 236.629L703.525 251.507L693.535 251.468L693.679 214.669L703.669 214.708L703.615 228.58L704.908 228.585L715.528 214.755L728.105 214.804L714.021 232.43L728.752 251.606L716.21 251.557ZM731.578 214.818L741.568 214.857L741.493 234.118L741.78 234.12L754.936 214.909L763.417 214.942L763.273 251.741L753.283 251.702L753.359 232.368L753.143 232.367L739.771 251.649L731.434 251.616L731.578 214.818Z" fill="#177CFF"/>
<rect x="523.847" y="289.104" width="388.095" height="80" rx="40" transform="rotate(-2.77521 523.847 289.104)" fill="white"/>
<path d="M619.206 319.523L609.084 320.013C608.971 319.179 608.743 318.429 608.399 317.762C608.067 317.094 607.62 316.529 607.057 316.064C606.507 315.587 605.848 315.235 605.081 315.009C604.314 314.77 603.452 314.674 602.495 314.72C600.82 314.801 599.422 315.277 598.301 316.147C597.192 317.016 596.375 318.225 595.85 319.773C595.337 321.321 595.133 323.16 595.236 325.29C595.345 327.539 595.736 329.409 596.407 330.9C597.091 332.378 598.025 333.472 599.211 334.182C600.396 334.88 601.796 335.19 603.412 335.112C604.333 335.067 605.153 334.913 605.872 334.651C606.59 334.376 607.208 334.004 607.724 333.535C608.241 333.067 608.652 332.513 608.957 331.875C609.273 331.224 609.472 330.5 609.554 329.705L619.679 329.286C619.635 330.847 619.275 332.454 618.6 334.105C617.924 335.745 616.925 337.281 615.603 338.712C614.292 340.131 612.64 341.302 610.646 342.226C608.652 343.151 606.309 343.678 603.617 343.808C600.243 343.972 597.181 343.395 594.431 342.077C591.692 340.759 589.477 338.731 587.786 335.995C586.106 333.258 585.167 329.856 584.97 325.788C584.772 321.696 585.395 318.212 586.838 315.335C588.281 312.447 590.308 310.22 592.919 308.654C595.528 307.077 598.485 306.208 601.787 306.048C604.108 305.935 606.259 306.149 608.24 306.688C610.221 307.228 611.977 308.072 613.508 309.221C615.038 310.358 616.295 311.791 617.278 313.518C618.261 315.245 618.904 317.247 619.206 319.523ZM659.563 322.172C659.761 326.264 659.133 329.754 657.678 332.643C656.222 335.52 654.178 337.748 651.544 339.326C648.909 340.893 645.929 341.757 642.603 341.919C639.253 342.081 636.191 341.504 633.416 340.187C630.654 338.858 628.409 336.832 626.682 334.109C624.966 331.374 624.01 327.973 623.812 323.905C623.614 319.813 624.237 316.329 625.68 313.452C627.135 310.563 629.174 308.336 631.796 306.77C634.43 305.191 637.422 304.32 640.772 304.158C644.099 303.997 647.149 304.574 649.923 305.891C652.697 307.196 654.947 309.215 656.675 311.95C658.402 314.673 659.365 318.08 659.563 322.172ZM649.297 322.669C649.191 320.468 648.807 318.628 648.148 317.148C647.5 315.657 646.589 314.55 645.415 313.827C644.252 313.092 642.845 312.764 641.193 312.844C639.542 312.924 638.168 313.387 637.069 314.231C635.982 315.064 635.182 316.254 634.67 317.802C634.169 319.337 633.971 321.206 634.078 323.407C634.185 325.609 634.562 327.455 635.21 328.947C635.869 330.426 636.781 331.533 637.944 332.268C639.118 332.991 640.531 333.312 642.182 333.232C643.833 333.152 645.202 332.696 646.289 331.864C647.387 331.019 648.187 329.829 648.688 328.294C649.201 326.746 649.404 324.871 649.297 322.669ZM665.071 340.326L663.289 303.57L689.133 302.317L689.523 310.358L673.657 311.127L673.866 315.434L677.599 315.253C680.686 315.103 683.408 315.469 685.766 316.35C688.135 317.231 690.003 318.543 691.371 320.288C692.751 322.032 693.5 324.125 693.618 326.565C693.737 329.006 693.195 331.185 691.992 333.102C690.802 335.019 689.071 336.554 686.801 337.707C684.542 338.86 681.869 339.511 678.782 339.661L665.071 340.326ZM674.67 332.017L678.403 331.836C679.599 331.778 680.595 331.532 681.389 331.098C682.196 330.663 682.792 330.088 683.177 329.374C683.574 328.659 683.751 327.859 683.708 326.974C683.647 325.717 683.124 324.699 682.139 323.92C681.153 323.128 679.763 322.776 677.968 322.863L674.235 323.044L674.67 332.017ZM697.743 338.742L695.962 301.986L722.452 300.702L722.841 308.743L706.33 309.543L706.636 315.86L721.784 315.126L722.173 323.166L707.026 323.901L707.332 330.218L723.772 329.421L724.162 337.461L697.743 338.742ZM729.182 337.218L727.401 300.462L743.266 299.693C745.994 299.561 748.407 299.984 750.505 300.961C752.603 301.939 754.268 303.375 755.499 305.271C756.73 307.166 757.409 309.417 757.536 312.026C757.663 314.658 757.187 316.966 756.108 318.949C755.041 320.931 753.48 322.494 751.424 323.637C749.381 324.78 746.959 325.419 744.16 325.555L734.684 326.014L734.308 318.261L741.774 317.899C742.946 317.842 743.936 317.59 744.741 317.143C745.559 316.684 746.17 316.061 746.576 315.273C746.993 314.486 747.177 313.571 747.126 312.53C747.075 311.477 746.804 310.591 746.314 309.871C745.834 309.139 745.167 308.596 744.31 308.242C743.465 307.875 742.456 307.72 741.283 307.777L737.765 307.947L739.161 336.734L729.182 337.218ZM762.349 335.61L760.567 298.855L787.057 297.571L787.447 305.611L770.935 306.411L771.241 312.729L786.389 311.994L786.779 320.035L771.631 320.769L771.937 327.086L788.377 326.289L788.767 334.33L762.349 335.61ZM768.092 295.252C766.871 295.311 765.817 294.954 764.928 294.182C764.039 293.409 763.566 292.449 763.511 291.3C763.455 290.152 763.832 289.15 764.642 288.295C765.452 287.44 766.468 286.983 767.688 286.924C768.873 286.867 769.903 287.225 770.78 287.998C771.669 288.77 772.141 289.731 772.197 290.879C772.253 292.028 771.876 293.03 771.066 293.884C770.267 294.739 769.276 295.194 768.092 295.252ZM779.506 294.698C778.286 294.758 777.231 294.401 776.342 293.629C775.453 292.856 774.981 291.896 774.925 290.747C774.869 289.598 775.247 288.597 776.057 287.742C776.867 286.887 777.882 286.43 779.102 286.371C780.287 286.314 781.318 286.671 782.195 287.444C783.084 288.217 783.556 289.177 783.612 290.326C783.667 291.475 783.29 292.476 782.48 293.331C781.682 294.185 780.691 294.641 779.506 294.698ZM792.006 297.331L804.425 296.729L813.977 317.133L814.408 317.112L821.942 295.879L834.361 295.277L836.143 332.033L826.379 332.506L825.349 311.257L825.062 311.271L817.894 332.63L812.008 332.915L802.801 312.206L802.514 312.22L803.551 333.613L793.787 334.086L792.006 297.331ZM850.72 294.484L851.011 319.799L842.828 320.196L840.669 294.972L850.72 294.484ZM847.504 332.058C846.116 332.125 844.902 331.699 843.862 330.777C842.834 329.844 842.291 328.677 842.235 327.276C842.157 325.913 842.585 324.723 843.519 323.706C844.465 322.689 845.632 322.147 847.02 322.079C848.337 322.016 849.521 322.444 850.573 323.364C851.637 324.284 852.208 325.426 852.286 326.789C852.319 327.723 852.115 328.585 851.673 329.373C851.243 330.15 850.662 330.784 849.931 331.275C849.198 331.754 848.39 332.015 847.504 332.058Z" fill="#177CFF"/>
<rect x="1018" y="66" width="10" height="10" rx="5" fill="#177CFF"/>
<path d="M1014.38 197.592L984.304 190.68C976.964 188.993 969.143 192.517 966.201 199.442C962.776 207.508 966.657 216.489 974.424 219.704L1036.51 245.427C1059.91 254.237 1086.1 251.613 1107.3 238.343L1121.47 229.482C1152.77 209.897 1162.28 168.672 1142.71 137.393L1078.94 35.4671C1075.02 29.2099 1066.78 27.3156 1060.52 31.2338C1054.26 35.152 1052.35 43.3916 1056.27 49.649L1083.73 93.5315C1085.2 95.8791 1084.48 98.9706 1082.13 100.44C1079.78 101.91 1076.69 101.2 1075.22 98.8522L1035.36 35.1487C1031.45 28.8915 1023.21 26.9972 1016.95 30.9154C1010.68 34.8336 1008.78 43.0732 1012.7 49.3306L1052.56 113.034C1054.02 115.382 1053.31 118.473 1050.96 119.943C1048.61 121.413 1045.52 120.702 1044.05 118.355L997.413 43.8129C993.71 37.8945 986.078 35.3197 979.834 38.4562C972.672 42.0401 970.304 50.8942 974.446 57.5151L1021.39 132.544C1022.86 134.891 1022.15 137.983 1019.8 139.453C1017.45 140.923 1014.36 140.212 1012.89 137.865L974.804 76.9807C970.889 70.7235 962.648 68.8292 956.386 72.7474C950.123 76.6656 948.223 84.9052 952.138 91.1626L1016.7 194.345C1017.71 195.965 1016.25 198.021 1014.38 197.592Z" fill="#177CFF" stroke="white" stroke-width="6"/>
<path d="M942.347 407.648C942.347 407.648 932.426 405.918 921.212 408.014C921.177 411.42 920.726 413.428 920.279 414.222C919.31 415.93 917.11 414.62 915.98 412.827C915.464 413.775 914.582 414.943 912.957 415.585C910.189 416.69 899.44 420.555 893.536 420.352C891.225 420.87 887.353 412.41 884.898 401.448C882.442 390.487 882.334 381.183 884.644 380.666C884.644 380.666 885.557 380.253 886.889 379.851C896.644 376.972 905.234 376.781 908.181 378.791C908.197 377.469 908.494 375.392 910.211 375.007C911.168 374.792 914.312 376.997 916.5 381.5C920.279 380.666 932.945 380.073 933.591 373.826C937.183 338.485 969.962 337.938 1013.4 324.633C1066.19 308.473 1142.69 296.327 1156.35 302.04C1156.35 302.04 1157.72 302.911 1158.42 303.412C1158.42 303.412 1162.59 305.633 1162.07 313.656C1162.07 313.656 1167.5 313.93 1170.65 318.982C1173.84 324.092 1171.84 329.255 1168.01 333.06C1164.15 336.873 1166.3 343.222 1168.94 345.577C1171.59 347.932 1176.59 351.249 1177.92 355.008C1178.37 356.226 1178.4 357.778 1178.12 359.437C1177.53 362.862 1175.57 366.631 1172.92 368.126C1172.92 368.126 1178.79 374.821 1167.36 384.177C1165.9 385.372 1164.33 386.417 1162.7 387.337C1158.26 389.822 1112.62 401.988 1061.49 412.23C1008.47 422.861 956.059 438.21 942.347 407.648Z" fill="#177CFF" stroke="white" stroke-width="6"/>
<path d="M72.6863 361.614C73.2059 358.038 75.1302 352.163 76.0401 348.427L60.9015 279.336L54.0202 248.614C54.0202 248.614 18.799 213.562 62.6924 150.94C62.6924 150.94 65.6654 144.19 63.4947 131.663C59.7006 131.574 57.4698 131.042 56.5923 130.533C54.7034 129.427 56.1954 126.995 58.2093 125.762C57.161 125.174 55.872 124.173 55.1814 122.354C53.9902 119.252 49.8426 107.218 50.1554 100.642C49.6126 98.059 59.0954 93.8699 71.3446 91.2952C83.5938 88.7206 93.9606 88.7375 94.5035 91.3202C94.5035 91.3202 94.9497 92.3436 95.3784 93.8331C98.4428 104.747 98.529 114.321 96.2465 117.575C97.7183 117.612 100.029 117.974 100.432 119.893C100.657 120.963 97.326 123.627 92.2768 125.999C93.7044 130.591 96.221 136.149 100.505 141.683C105.784 148.471 166.486 191.111 147.646 229.782L162.926 331.436C162.926 331.436 199.592 366.762 182.241 394.372C181.746 395.131 181.251 395.89 180.681 396.664C180.681 396.664 174.014 402.15 165.082 401.446C165.082 401.446 164.697 407.498 159.023 410.925C153.282 414.405 147.558 412.102 143.375 407.78C139.185 403.422 132.079 405.724 129.416 408.634C126.753 411.544 122.984 417.075 118.776 418.498C117.413 418.978 115.683 418.995 113.838 418.65C110.031 417.948 105.861 415.704 104.235 412.733C104.235 412.733 92.5197 420.049 82.3007 407.172C80.9905 405.521 79.8494 403.758 78.848 401.927C73.3659 391.791 70.67 376.215 72.8495 361.657L72.6863 361.614Z" stroke="white" stroke-width="6"/>
<path d="M306.794 69.7159L307.508 71.1919L319.337 74.6832C319.337 74.6832 354.606 57.4803 385.32 105.113C387.297 108.182 389.574 111.051 391.002 114.422C392.285 117.504 393.704 121.321 394.205 124.335C394.263 124.742 396.553 125.684 399.601 126.685C400.875 124.476 401.898 123.319 402.494 122.945C403.882 122.081 404.982 124.079 404.959 125.836C407.466 125.435 417.838 125.463 423.59 128.97C425.408 129.507 424.829 137.021 422.273 145.748C419.717 154.474 416.218 161.133 414.4 160.596C414.4 160.596 406.658 160.648 397.302 152.605C396.807 153.538 395.757 155.107 394.326 154.673C393.655 154.496 393.146 152.038 393.19 148.636C391.332 148.145 389.37 147.738 387.56 147.483C386.229 147.299 377.021 156.757 372.584 159.446C351.844 172.012 314.307 177.226 296.279 151.976L285.392 148.37L285.293 148.428C282.116 150.526 278.193 151.168 274.543 150.147L274.466 150.126L188.71 125.998C188.71 125.998 172.694 132.705 149.722 108.722C149.401 108.161 149.093 107.548 148.812 106.942C148.812 106.942 148.12 103.401 149.297 99.2633C149.668 97.9623 150.248 96.6046 151.093 95.2888C150.996 95.2354 147.4 92.9693 147.175 88.1809C146.92 83.3003 150.311 80.3913 154.49 79.2015C158.65 77.9788 159.62 72.6387 158.7 69.9609C157.754 67.2762 155.552 62.9723 156.091 59.7848C156.25 58.7637 156.852 57.6356 157.686 56.5689C159.434 54.3445 162.284 52.4396 164.694 52.4053C164.694 52.4053 164.222 39.5762 175.874 37.3682C177.356 37.0883 200.609 30.6721 212.826 43.1365L300.985 64.962C303.52 65.6043 305.662 67.3178 306.82 69.7227L306.794 69.7159Z" stroke="white" stroke-width="6"/>
<path d="M1363.51 305.765C1363.43 314.472 1360.69 322.135 1355.06 328.825C1349.06 335.977 1341.25 338.178 1332.27 337.001C1320.34 335.449 1309.31 330.94 1298.37 326.294C1287.68 321.783 1277.1 317.038 1266.47 312.398C1264.93 311.732 1263.31 311.235 1261.63 311.084C1259.34 310.897 1258.37 311.811 1258.36 314.087C1258.33 315.952 1259.02 317.645 1259.72 319.313C1263.73 329.081 1268.66 338.418 1272.86 348.098C1277.65 359.108 1282.55 370.085 1284.8 381.963C1286.21 389.399 1286.11 396.668 1281.18 402.993C1275.21 410.618 1267.15 414.654 1257.59 415.732C1250.28 416.564 1243.46 415.326 1237.67 410.457C1234.02 407.399 1231.48 403.491 1229.3 399.355C1223.5 388.415 1220.07 376.609 1216.56 364.827C1214.23 356.954 1212.04 349.04 1209.77 341.134C1209.05 338.614 1208.19 336.142 1207.06 333.785C1206.64 332.92 1206.17 332.022 1205.05 331.972C1203.83 331.931 1203.25 332.851 1202.8 333.771C1201.45 336.464 1200.68 339.331 1199.87 342.206C1196.06 356.074 1192.55 370.052 1187.93 383.707C1185.68 390.394 1183.07 396.938 1179.43 403.046C1173.02 413.809 1163.32 418.249 1150.89 416.088C1144.5 414.977 1138.73 412.486 1133.71 408.4C1126.07 402.199 1124.06 393.994 1125.38 384.7C1127.01 373.354 1131.24 362.804 1135.71 352.374C1140.1 342.145 1144.76 332.035 1149.21 321.854C1150.02 319.984 1150.62 318.01 1151.11 316.054C1151.91 312.769 1150.25 311.106 1146.93 311.898C1143.38 312.771 1140.04 314.287 1136.74 315.842C1125.45 321.144 1114.18 326.477 1102.58 331.105C1094.94 334.166 1087.19 337.05 1078.98 338.329C1065.7 340.394 1056.67 336.034 1050.29 324.246C1046.63 317.49 1045.15 310.239 1046.33 302.553C1047.41 295.4 1051.4 290.158 1057.22 286.135C1064.07 281.391 1071.79 278.491 1079.58 275.767C1093.65 270.859 1108.08 267.203 1122.37 263.033C1124.54 262.393 1126.7 261.681 1128.68 260.584C1130.91 259.34 1130.92 257.748 1128.66 256.58C1124.73 254.553 1120.42 253.646 1116.2 252.522C1103.71 249.187 1091.21 245.949 1078.97 241.866C1072.17 239.607 1065.51 237.042 1059.3 233.421C1051.38 228.813 1046.22 222.46 1045.44 213.018C1044.42 200.442 1051.45 185.051 1063.35 180.534C1069.54 178.182 1075.87 178.803 1082.11 180.213C1092.7 182.578 1102.74 186.57 1112.66 190.868C1121.76 194.802 1130.77 198.913 1139.87 202.878C1141.94 203.767 1144.11 204.509 1146.29 205.035C1149.59 205.835 1151.2 204.105 1150.42 200.813C1149.25 195.964 1146.92 191.58 1144.82 187.107C1138.72 174.151 1132.52 161.203 1127.8 147.652C1125.39 140.696 1123.43 133.672 1123.51 126.179C1123.58 119.047 1126.46 113.321 1131.83 108.875C1138.44 103.409 1146.02 100.357 1155.24 100.486C1166.75 99.9112 1174.03 106.589 1179.31 116.302C1184.94 126.664 1188.29 137.9 1191.65 149.112C1194.45 158.445 1197.07 167.828 1199.79 177.187C1200.36 179.153 1201.02 181.087 1202.08 182.833C1203.36 184.876 1204.9 184.818 1206.02 182.681C1207.83 179.229 1208.7 175.461 1209.7 171.749C1213.45 157.914 1216.96 144.024 1221.74 130.496C1224.52 122.609 1227.6 114.8 1233.07 108.271C1237.4 103.107 1243 100.34 1249.79 99.9379C1258.41 99.412 1266.3 101.431 1273.33 106.519C1281.33 112.308 1284.95 120.013 1283.74 129.925C1282.28 142.074 1277.71 153.253 1272.99 164.352C1268.46 174.992 1263.68 185.528 1259.04 196.121C1258.35 197.652 1257.86 199.263 1257.7 200.937C1257.47 203.744 1258.71 204.918 1261.48 204.427C1264.45 203.887 1267.2 202.673 1269.91 201.426C1281.72 196.058 1293.4 190.344 1305.45 185.488C1313.45 182.289 1321.54 179.402 1330.08 177.912C1342.22 175.806 1351.39 180.028 1357.74 190.442C1361.85 197.187 1363.51 204.542 1362.76 212.385C1361.96 220.904 1357.1 226.818 1350.05 231.194C1340.4 237.169 1329.68 240.586 1318.93 243.858C1308.52 247.024 1298.05 249.868 1287.59 252.905C1285.51 253.521 1283.45 254.305 1281.41 255.073C1280.18 255.538 1278.75 256.053 1278.73 257.613C1278.7 259.302 1280.24 259.751 1281.53 260.282C1285.99 262.128 1290.7 263.21 1295.35 264.444C1309.17 268.133 1323.01 271.756 1336.44 276.725C1342.2 278.854 1347.78 281.385 1352.81 284.957C1360.02 290.043 1363.57 296.944 1363.5 305.773L1363.51 305.765Z" fill="#177CFF" stroke="white" stroke-width="6" stroke-miterlimit="10"/>
<circle cx="275.78" cy="287.486" r="143.539" fill="#177CFF"/>
<path d="M144.627 209.902C153.423 194.651 164.833 181.066 178.334 169.767L178.336 169.764C201.185 150.585 229.207 138.612 258.858 135.361C288.509 132.109 318.457 137.724 344.915 151.495C371.373 165.266 393.152 186.576 407.498 212.729C421.844 238.881 428.113 268.701 425.51 298.418C422.907 328.135 411.55 356.414 392.876 379.677C374.203 402.941 349.05 420.144 320.6 429.111C292.151 438.079 261.682 438.408 233.047 430.057C204.413 421.706 178.9 405.051 159.733 382.198L159.734 382.198C139.913 358.465 127.838 329.228 125.137 298.423C122.437 267.618 129.239 236.725 144.627 209.902ZM380.41 302.269C387.522 319.278 391.202 337.525 391.238 355.962L391.255 364.792L396.666 355.42C407.764 336.191 414.139 314.602 415.267 292.429L415.419 289.432L412.468 289.972C401.9 291.904 391.576 294.987 381.678 299.165L379.497 300.085L380.41 302.269ZM324.95 336.095L367.395 386.648L369.302 388.919L371.102 386.563C372.197 385.13 373.133 383.755 374.053 382.18L374.06 382.169C384.377 364.299 382.377 336.613 371.042 306.836L370.106 304.375L367.754 305.56C352.711 313.136 338.482 322.233 325.292 332.708L323.38 334.226L324.95 336.095ZM279.882 383.118C294.762 392.179 309.456 398.264 322.877 400.82C336.287 403.373 348.595 402.43 358.503 397.202L361.104 395.829L359.215 393.575L316.788 342.988L315.222 341.121L313.396 342.734C300.79 353.861 289.34 366.232 279.219 379.66L277.642 381.754L279.882 383.118ZM342.803 238.43C355.126 253.879 365.655 270.676 374.19 288.5L375.171 290.549L377.262 289.66C388.465 284.894 400.177 281.429 412.169 279.334L413.118 279.19L415.257 278.863L415.131 276.703C413.535 249.363 403.911 223.102 387.463 201.206L385.958 199.202L384.037 200.813L343.133 235.129L341.358 236.618L342.803 238.43ZM270.299 392.401C264.492 401.427 259.696 411.065 255.999 421.141L254.968 423.947L257.934 424.316C280.57 427.138 303.553 424.394 324.89 416.324L333.217 413.175L324.428 411.758C314.407 410.141 304.639 407.226 295.371 403.086L295.362 403.082L295.351 403.078C287.821 399.796 280.533 395.982 273.544 391.665L271.561 390.44L270.299 392.401ZM284.152 287.51L314.97 324.274L316.465 326.057L318.279 324.599C332.274 313.343 347.456 303.75 363.483 295.565L365.561 294.504L364.537 292.407C356.34 275.624 346.32 259.794 334.658 245.203L333.139 243.304L331.276 244.867L284.445 284.163L282.627 285.69L284.152 287.51ZM225.653 336.94C238.035 350.993 251.936 363.63 267.102 374.62L268.996 375.994L270.398 374.121C281.157 359.745 293.365 346.512 306.827 334.629L308.566 333.094L307.072 331.319L276.116 294.563L274.589 292.75L272.773 294.272L225.909 333.55L224.043 335.113L225.653 336.94ZM305.184 150.472C301.983 159.806 297.856 168.797 292.866 177.31L292.858 177.324C292.237 178.399 291.556 179.471 290.835 180.603C290.124 181.72 289.377 182.895 288.677 184.107L287.606 185.962L289.34 187.218C305.309 198.788 319.931 212.111 332.932 226.937L334.464 228.686L336.245 227.191L377.26 192.761L379.179 191.15L377.467 189.32C358.772 169.329 334.606 155.282 307.982 148.933L305.884 148.433L305.184 150.472ZM173.015 381.224C191.722 401.198 215.882 415.24 242.497 421.609L244.587 422.109L245.294 420.079C249.397 408.274 254.908 397.006 261.707 386.52L262.932 384.629L261.11 383.306C245.16 371.726 230.556 358.399 217.569 343.572L216.036 341.822L214.255 343.319L173.221 377.781L171.301 379.394L173.015 381.224ZM243.427 239.188L274.344 276.011L275.872 277.83L277.691 276.301L324.508 236.952L326.37 235.388L324.762 233.563C312.406 219.539 298.54 206.921 283.414 195.941L281.519 194.567L280.116 196.44C269.362 210.808 257.151 224.024 243.677 235.877L241.934 237.41L243.427 239.188ZM185.954 277.964C194.151 294.748 204.171 310.578 215.833 325.168L217.354 327.07L219.218 325.502L266.001 286.134L267.822 284.603L266.288 282.785L235.44 246.224L233.948 244.456L232.142 245.9C218.132 257.093 203.018 266.666 187.012 274.804L184.929 275.863L185.954 277.964ZM135.37 293.813C137.042 321.088 146.713 347.265 163.175 369.075L164.681 371.071L166.597 369.464L207.501 335.148L209.281 333.655L207.828 331.843C195.494 316.456 184.92 299.737 176.304 281.998L175.314 279.961L173.233 280.852C162.045 285.639 150.336 289.104 138.344 291.173L137.382 291.319L135.236 291.646L135.37 293.813ZM226.052 158.784C236.076 160.406 245.851 163.311 255.136 167.425L255.14 167.428C262.66 170.74 269.943 174.565 276.938 178.877L278.921 180.1L280.182 178.141C285.99 169.115 290.786 159.477 294.483 149.401L295.513 146.595L292.546 146.226C269.91 143.404 246.927 146.148 225.59 154.218L217.273 157.364L226.052 158.784ZM191.267 176.969L233.713 227.522L235.279 229.387L237.104 227.775C249.71 216.648 261.16 204.276 271.28 190.848L272.86 188.752L270.616 187.389C255.727 178.345 241.028 172.269 227.605 169.718C214.194 167.169 201.886 168.112 191.978 173.34L189.375 174.714L191.267 176.969ZM177.229 187.243L176.65 188.284C166.198 206.388 168.237 234.009 179.82 263.762L180.775 266.216L183.118 265.014C198.005 257.38 212.081 248.258 225.132 237.789L227.027 236.269L225.466 234.409L183.019 183.855L181.052 181.512L179.269 184C178.482 185.098 177.839 186.165 177.229 187.243ZM153.776 215.19C142.702 234.402 136.341 255.967 135.214 278.113L135.061 281.107L138.011 280.57C148.583 278.649 158.91 275.566 168.805 271.377L170.986 270.454L170.07 268.271C162.942 251.279 159.255 233.041 159.224 214.614L159.209 205.779L153.776 215.19Z" fill="white" stroke="#177CFF" stroke-width="4.75067"/>
<path d="M222.411 135.455L247 142.5" stroke="white" stroke-width="6"/>
<path d="M357 164.801C362.335 164.16 365.281 163.911 371.933 159.804" stroke="white" stroke-width="6"/>
<path d="M183.268 395.61C179.204 398.324 178.022 399.901 171 401" stroke="white" stroke-width="6"/>
<path d="M147 195.229C149 200.729 150 204 150.5 210" stroke="white" stroke-width="6"/>
</g>
<defs>
<clipPath id="clip0_792_119">
<rect width="1386" height="462" fill="white"/>
</clipPath>
</defs>
</svg>
