<svg width="1386" height="462" viewBox="0 0 1386 462" fill="none" xmlns="http://www.w3.org/2000/svg">
<g clip-path="url(#clip0_830_45)">
<rect width="1386" height="462" rx="15" fill="#177CFF"/>
<rect x="647.459" y="119.288" width="278.616" height="80" rx="40" transform="rotate(-5.26002 647.459 119.288)" fill="#177CFF"/>
<rect x="647.459" y="119.288" width="278.616" height="80" rx="40" transform="rotate(-5.26002 647.459 119.288)" stroke="white" stroke-width="6"/>
<path d="M697.766 172.902L694.392 136.258L710.281 134.796C713.072 134.539 715.45 134.699 717.416 135.275C719.394 135.851 720.929 136.781 722.022 138.063C723.126 139.345 723.764 140.916 723.935 142.777C724.059 144.125 723.874 145.381 723.38 146.545C722.897 147.709 722.16 148.715 721.168 149.564C720.174 150.401 718.981 151.028 717.588 151.445L717.621 151.803C719.201 151.718 720.669 151.986 722.025 152.607C723.38 153.216 724.499 154.129 725.381 155.347C726.262 156.553 726.782 158.021 726.941 159.751C727.126 161.755 726.765 163.586 725.859 165.245C724.965 166.904 723.599 168.268 721.761 169.34C719.923 170.411 717.674 171.069 715.014 171.314L697.766 172.902ZM706.983 164.042L711.635 163.614C713.305 163.46 714.528 163.035 715.306 162.337C716.083 161.628 716.415 160.66 716.302 159.431C716.223 158.572 715.959 157.863 715.51 157.302C715.062 156.742 714.46 156.341 713.703 156.097C712.959 155.853 712.08 155.778 711.066 155.871L706.271 156.313L706.983 164.042ZM705.704 150.158L709.784 149.782C710.655 149.702 711.411 149.494 712.054 149.158C712.697 148.822 713.179 148.381 713.502 147.834C713.835 147.274 713.967 146.618 713.898 145.866C713.794 144.733 713.309 143.906 712.443 143.384C711.576 142.85 710.522 142.641 709.281 142.755L705.059 143.144L705.704 150.158ZM738.086 132.236L750.467 131.096L760.895 151.067L761.324 151.028L767.93 129.488L780.312 128.348L783.686 164.992L773.952 165.888L772.002 144.704L771.715 144.73L765.48 166.38L759.612 166.92L749.516 146.629L749.229 146.656L751.193 167.984L741.459 168.88L738.086 132.236ZM785.027 127.914L794.975 126.998L796.741 146.179L797.027 146.153L808.287 125.773L816.732 124.995L820.106 161.639L810.158 162.555L808.385 143.303L808.17 143.322L796.702 163.794L788.4 164.558L785.027 127.914ZM824.812 161.206L821.438 124.562L837.255 123.106C839.975 122.856 842.404 123.173 844.542 124.059C846.681 124.945 848.406 126.308 849.719 128.148C851.031 129.988 851.807 132.208 852.046 134.808C852.288 137.432 851.912 139.759 850.92 141.787C849.94 143.814 848.448 145.443 846.444 146.674C844.452 147.904 842.06 148.647 839.269 148.904L829.822 149.774L829.11 142.044L836.554 141.359C837.723 141.251 838.7 140.957 839.486 140.476C840.282 139.981 840.866 139.332 841.237 138.528C841.62 137.723 841.764 136.801 841.668 135.764C841.572 134.714 841.263 133.84 840.741 133.142C840.231 132.431 839.54 131.918 838.669 131.601C837.808 131.271 836.794 131.16 835.625 131.268L832.118 131.591L834.76 160.29L824.812 161.206ZM857.877 158.162L854.503 121.518L880.913 119.087L881.651 127.102L865.19 128.618L865.769 134.916L880.871 133.526L881.609 141.542L866.507 142.932L867.087 149.23L883.477 147.721L884.215 155.737L857.877 158.162Z" fill="white"/>
<rect x="462.581" y="125.599" width="184.099" height="80" rx="40" transform="rotate(-13.1506 462.581 125.599)" fill="#177CFF"/>
<rect x="462.581" y="125.599" width="184.099" height="80" rx="40" transform="rotate(-13.1506 462.581 125.599)" stroke="white" stroke-width="6"/>
<path d="M516.599 172.54L508.226 136.706L523.764 133.076C526.493 132.438 528.871 132.27 530.898 132.572C532.936 132.87 534.584 133.58 535.842 134.701C537.112 135.819 537.959 137.288 538.385 139.107C538.693 140.425 538.682 141.695 538.352 142.916C538.034 144.134 537.441 145.232 536.575 146.21C535.706 147.175 534.61 147.96 533.287 148.565L533.369 148.915C534.922 148.613 536.413 148.677 537.842 149.106C539.268 149.523 540.502 150.274 541.543 151.36C542.581 152.433 543.297 153.816 543.692 155.507C544.15 157.467 544.045 159.331 543.375 161.099C542.717 162.864 541.552 164.403 539.878 165.717C538.204 167.031 536.067 167.991 533.466 168.599L516.599 172.54ZM524.512 162.498L529.061 161.435C530.694 161.054 531.848 160.464 532.523 159.667C533.195 158.858 533.391 157.853 533.11 156.651C532.914 155.811 532.555 155.145 532.034 154.652C531.513 154.158 530.861 153.843 530.078 153.706C529.308 153.566 528.427 153.612 527.435 153.844L522.746 154.939L524.512 162.498ZM521.34 148.921L525.329 147.988C526.18 147.79 526.901 147.48 527.492 147.059C528.083 146.638 528.5 146.134 528.744 145.548C528.998 144.948 529.039 144.28 528.867 143.545C528.608 142.437 528.014 141.684 527.084 141.286C526.152 140.877 525.08 140.814 523.866 141.097L519.737 142.062L521.34 148.921ZM577.732 134.638L567.864 136.944C567.603 136.143 567.243 135.446 566.785 134.852C566.338 134.255 565.796 133.779 565.159 133.424C564.532 133.054 563.82 132.826 563.025 132.741C562.228 132.645 561.363 132.705 560.429 132.923C558.796 133.305 557.507 134.025 556.561 135.082C555.626 136.137 555.04 137.473 554.803 139.091C554.578 140.706 554.708 142.551 555.193 144.628C555.705 146.821 556.426 148.59 557.355 149.935C558.293 151.266 559.41 152.173 560.704 152.658C561.995 153.132 563.429 153.184 565.003 152.816C565.901 152.607 566.68 152.308 567.34 151.92C567.997 151.52 568.538 151.043 568.962 150.489C569.386 149.935 569.69 149.316 569.875 148.633C570.069 147.936 570.134 147.189 570.071 146.392L579.956 144.156C580.194 145.7 580.129 147.345 579.762 149.091C579.392 150.826 578.686 152.516 577.644 154.162C576.61 155.794 575.196 157.244 573.401 158.512C571.606 159.78 569.396 160.721 566.772 161.334C563.482 162.102 560.366 162.086 557.424 161.285C554.493 160.482 551.949 158.886 549.792 156.499C547.647 154.11 546.111 150.932 545.184 146.966C544.252 142.977 544.237 139.437 545.139 136.348C546.039 133.247 547.631 130.692 549.917 128.681C552.2 126.66 554.951 125.272 558.171 124.52C560.434 123.992 562.588 123.814 564.634 123.988C566.68 124.162 568.559 124.677 570.272 125.531C571.982 126.374 573.476 127.556 574.754 129.078C576.032 130.6 577.025 132.454 577.732 134.638ZM587.378 156.003L579.006 120.169L604.832 114.135L606.663 121.974L590.566 125.735L592.005 131.894L606.772 128.443L608.604 136.282L593.836 139.732L595.275 145.891L611.302 142.147L613.134 149.985L587.378 156.003Z" fill="white"/>
<rect x="443.617" y="192.489" width="381.456" height="80" rx="40" transform="rotate(0.224189 443.617 192.489)" fill="white"/>
<path d="M503.99 250.726L504.134 213.927L530.008 214.028L529.976 222.078L514.092 222.016L514.076 226.328L517.813 226.343C520.903 226.355 523.603 226.863 525.911 227.866C528.231 228.869 530.028 230.278 531.303 232.092C532.589 233.905 533.228 236.034 533.218 238.478C533.209 240.922 532.553 243.069 531.252 244.921C529.963 246.773 528.155 248.215 525.827 249.248C523.511 250.281 520.808 250.792 517.717 250.779L503.99 250.726ZM514.011 242.931L517.748 242.945C518.946 242.95 519.953 242.756 520.769 242.364C521.597 241.972 522.222 241.43 522.644 240.736C523.078 240.043 523.297 239.254 523.3 238.367C523.305 237.109 522.836 236.065 521.893 235.235C520.95 234.393 519.58 233.968 517.783 233.961L514.046 233.947L514.011 242.931ZM542.017 251.378L542.047 243.615L543.844 243.622C544.898 243.627 545.731 243.546 546.343 243.381C546.966 243.203 547.447 242.894 547.784 242.452C548.133 241.998 548.429 241.364 548.672 240.551L549.035 239.474L535.335 214.049L545.541 214.089L553.173 229.069L559.125 214.142L569.187 214.182L556.425 242.881C555.724 244.388 554.892 245.792 553.929 247.094C552.966 248.384 551.77 249.427 550.341 250.224C548.912 251.009 547.144 251.398 545.036 251.389L542.017 251.378ZM573.706 222.249L573.737 214.2L605.721 214.325L605.689 222.374L594.621 222.331L594.508 251.08L584.662 251.041L584.774 222.293L573.706 222.249ZM615.757 226.726L623.375 226.756C626.478 226.768 629.183 227.276 631.491 228.279C633.811 229.282 635.608 230.691 636.883 232.505C638.169 234.319 638.802 236.447 638.78 238.891C638.783 241.335 638.134 243.482 636.833 245.334C635.544 247.186 633.735 248.628 631.407 249.661C629.091 250.694 626.382 251.205 623.28 251.193L609.552 251.139L609.696 214.34L619.686 214.379L619.573 243.344L623.31 243.358C624.52 243.363 625.533 243.169 626.349 242.777C627.177 242.385 627.802 241.843 628.224 241.15C628.658 240.457 628.871 239.667 628.862 238.78C628.879 237.523 628.416 236.479 627.473 235.648C626.53 234.806 625.154 234.381 623.345 234.374L615.727 234.345L615.757 226.726ZM651.454 214.504L651.31 251.302L641.32 251.263L641.464 214.465L651.454 214.504ZM654.809 251.316L654.839 243.626L655.846 243.486C657.068 243.299 658.083 242.776 658.889 241.916C659.707 241.045 660.335 239.664 660.774 237.773C661.224 235.87 661.516 233.278 661.649 229.996L662.284 214.546L688.949 214.65L688.805 251.449L679.174 251.411L679.287 222.375L671.453 222.344L670.833 233.913C670.601 238.201 670.012 241.619 669.068 244.166C668.124 246.714 666.697 248.547 664.788 249.666C662.879 250.784 660.367 251.338 657.253 251.325L654.809 251.316ZM716.21 251.556L704.985 236.634L703.583 236.629L703.525 251.507L693.535 251.467L693.679 214.669L703.669 214.708L703.615 228.579L704.908 228.584L715.528 214.754L728.105 214.804L714.021 232.429L728.752 251.605L716.21 251.556ZM731.578 214.817L741.568 214.856L741.493 234.118L741.78 234.119L754.936 214.909L763.417 214.942L763.273 251.74L753.283 251.701L753.359 232.368L753.143 232.367L739.771 251.648L731.434 251.616L731.578 214.817Z" fill="#177CFF"/>
<rect x="523.847" y="289.104" width="388.095" height="80" rx="40" transform="rotate(-2.77521 523.847 289.104)" fill="white"/>
<path d="M619.206 319.523L609.084 320.014C608.972 319.18 608.743 318.429 608.399 317.762C608.067 317.095 607.62 316.529 607.058 316.065C606.507 315.588 605.848 315.236 605.082 315.009C604.314 314.77 603.452 314.674 602.495 314.721C600.82 314.802 599.422 315.277 598.301 316.147C597.192 317.017 596.375 318.225 595.85 319.774C595.338 321.322 595.133 323.161 595.236 325.29C595.345 327.54 595.736 329.41 596.408 330.9C597.091 332.378 598.025 333.472 599.211 334.182C600.396 334.88 601.796 335.19 603.412 335.112C604.333 335.067 605.153 334.914 605.872 334.651C606.59 334.376 607.208 334.005 607.725 333.536C608.242 333.067 608.652 332.513 608.957 331.875C609.274 331.224 609.472 330.501 609.554 329.705L619.679 329.286C619.635 330.848 619.275 332.454 618.6 334.106C617.924 335.746 616.925 337.281 615.603 338.713C614.293 340.131 612.64 341.303 610.646 342.227C608.652 343.151 606.309 343.678 603.617 343.809C600.243 343.972 597.181 343.395 594.431 342.077C591.693 340.759 589.478 338.732 587.786 335.995C586.106 333.259 585.168 329.856 584.97 325.788C584.772 321.696 585.395 318.212 586.838 315.336C588.281 312.447 590.308 310.22 592.919 308.655C595.529 307.077 598.485 306.208 601.787 306.048C604.108 305.936 606.259 306.149 608.24 306.689C610.221 307.228 611.977 308.073 613.508 309.222C615.038 310.359 616.295 311.791 617.278 313.518C618.261 315.246 618.904 317.247 619.206 319.523ZM659.563 322.172C659.761 326.264 659.133 329.755 657.678 332.643C656.223 335.52 654.178 337.748 651.544 339.327C648.909 340.894 645.929 341.758 642.603 341.919C639.253 342.081 636.191 341.504 633.416 340.188C630.654 338.858 628.409 336.833 626.682 334.11C624.966 331.375 624.01 327.973 623.812 323.905C623.614 319.813 624.237 316.329 625.68 313.453C627.135 310.564 629.174 308.336 631.797 306.77C634.43 305.191 637.422 304.321 640.773 304.158C644.099 303.997 647.149 304.575 649.923 305.891C652.697 307.196 654.947 309.216 656.675 311.95C658.402 314.673 659.365 318.08 659.563 322.172ZM649.297 322.67C649.191 320.468 648.808 318.628 648.148 317.149C647.5 315.657 646.589 314.55 645.415 313.827C644.252 313.092 642.845 312.765 641.194 312.845C639.542 312.925 638.168 313.387 637.069 314.232C635.982 315.064 635.183 316.254 634.67 317.802C634.169 319.338 633.971 321.206 634.078 323.408C634.185 325.609 634.562 327.456 635.21 328.947C635.87 330.427 636.781 331.534 637.944 332.269C639.118 332.991 640.531 333.313 642.182 333.233C643.833 333.153 645.202 332.697 646.289 331.864C647.387 331.02 648.187 329.829 648.688 328.294C649.201 326.746 649.404 324.871 649.297 322.67ZM665.071 340.326L663.289 303.571L689.133 302.318L689.523 310.358L673.657 311.127L673.866 315.434L677.599 315.254C680.686 315.104 683.408 315.47 685.766 316.351C688.135 317.231 690.003 318.544 691.371 320.289C692.751 322.033 693.5 324.125 693.618 326.566C693.737 329.007 693.195 331.186 691.992 333.103C690.802 335.019 689.072 336.554 686.801 337.708C684.542 338.861 681.869 339.512 678.782 339.662L665.071 340.326ZM674.67 332.018L678.403 331.837C679.6 331.779 680.595 331.533 681.39 331.098C682.196 330.663 682.792 330.089 683.177 329.375C683.574 328.66 683.751 327.86 683.708 326.974C683.647 325.718 683.124 324.7 682.139 323.92C681.153 323.128 679.763 322.776 677.968 322.863L674.235 323.044L674.67 332.018ZM697.744 338.742L695.962 301.987L722.452 300.703L722.842 308.743L706.33 309.543L706.636 315.861L721.784 315.127L722.174 323.167L707.026 323.901L707.332 330.218L723.772 329.422L724.162 337.462L697.744 338.742ZM729.182 337.218L727.401 300.463L743.266 299.694C745.994 299.561 748.407 299.984 750.505 300.962C752.603 301.94 754.268 303.376 755.499 305.271C756.73 307.166 757.409 309.418 757.536 312.026C757.663 314.659 757.187 316.966 756.108 318.949C755.041 320.932 753.48 322.495 751.425 323.638C749.381 324.78 746.96 325.419 744.16 325.555L734.684 326.014L734.308 318.261L741.774 317.899C742.946 317.842 743.936 317.591 744.741 317.144C745.559 316.684 746.17 316.061 746.576 315.274C746.993 314.486 747.177 313.572 747.126 312.531C747.075 311.478 746.804 310.592 746.314 309.872C745.835 309.14 745.167 308.596 744.31 308.242C743.465 307.875 742.456 307.72 741.283 307.777L737.766 307.948L739.161 336.735L729.182 337.218ZM762.349 335.611L760.567 298.855L787.057 297.571L787.447 305.611L770.935 306.412L771.242 312.729L786.389 311.995L786.779 320.035L771.631 320.769L771.938 327.087L788.377 326.29L788.767 334.33L762.349 335.611ZM768.092 295.252C766.871 295.311 765.817 294.955 764.928 294.182C764.039 293.41 763.567 292.449 763.511 291.301C763.455 290.152 763.832 289.15 764.642 288.296C765.452 287.441 766.468 286.984 767.688 286.925C768.873 286.867 769.903 287.225 770.78 287.998C771.669 288.771 772.142 289.731 772.197 290.88C772.253 292.028 771.876 293.03 771.066 293.885C770.268 294.739 769.276 295.195 768.092 295.252ZM779.506 294.699C778.286 294.758 777.231 294.401 776.342 293.629C775.453 292.857 774.981 291.896 774.925 290.747C774.87 289.599 775.247 288.597 776.057 287.742C776.867 286.888 777.882 286.431 779.102 286.371C780.287 286.314 781.318 286.672 782.195 287.445C783.084 288.217 783.556 289.178 783.612 290.326C783.667 291.475 783.29 292.477 782.48 293.332C781.682 294.186 780.691 294.642 779.506 294.699ZM792.006 297.331L804.425 296.729L813.977 317.134L814.408 317.113L821.942 295.88L834.361 295.278L836.143 332.034L826.38 332.507L825.35 311.258L825.062 311.271L817.895 332.63L812.008 332.916L802.801 312.207L802.514 312.221L803.551 333.614L793.788 334.087L792.006 297.331ZM850.72 294.485L851.012 319.8L842.828 320.196L840.669 294.972L850.72 294.485ZM847.504 332.059C846.116 332.126 844.902 331.699 843.862 330.778C842.834 329.844 842.291 328.677 842.235 327.277C842.157 325.914 842.585 324.724 843.52 323.707C844.466 322.69 845.633 322.147 847.021 322.08C848.337 322.016 849.521 322.444 850.573 323.365C851.637 324.285 852.208 325.426 852.286 326.79C852.319 327.724 852.115 328.585 851.674 329.374C851.243 330.15 850.663 330.784 849.931 331.275C849.198 331.755 848.39 332.016 847.504 332.059Z" fill="#177CFF"/>
<rect x="1018" y="66" width="10" height="10" rx="5" fill="#177CFF"/>
<path d="M1019.38 211.592L989.304 204.68C981.964 202.993 974.143 206.517 971.201 213.442C967.776 221.508 971.657 230.489 979.424 233.704L1041.51 259.427C1064.91 268.237 1091.1 265.613 1112.3 252.343L1126.47 243.482C1157.77 223.897 1167.28 182.672 1147.71 151.393L1083.94 49.4671C1080.02 43.2099 1071.78 41.3156 1065.52 45.2338C1059.26 49.152 1057.35 57.3916 1061.27 63.649L1088.73 107.532C1090.2 109.879 1089.48 112.971 1087.13 114.44C1084.78 115.91 1081.69 115.2 1080.22 112.852L1040.36 49.1487C1036.45 42.8915 1028.21 40.9972 1021.95 44.9154C1015.68 48.8336 1013.78 57.0732 1017.7 63.3306L1057.56 127.034C1059.02 129.382 1058.31 132.473 1055.96 133.943C1053.61 135.413 1050.52 134.702 1049.05 132.355L1002.41 57.8129C998.71 51.8945 991.078 49.3197 984.834 52.4562C977.672 56.0401 975.304 64.8942 979.446 71.5151L1026.39 146.544C1027.86 148.891 1027.15 151.983 1024.8 153.453C1022.45 154.923 1019.36 154.212 1017.89 151.865L979.804 90.9807C975.889 84.7235 967.648 82.8292 961.386 86.7474C955.123 90.6656 953.223 98.9052 957.138 105.163L1021.7 208.345C1022.71 209.965 1021.25 212.021 1019.38 211.592Z" fill="#177CFF" stroke="white" stroke-width="6"/>
<path d="M1199.17 105.396C1199.17 105.396 1198.8 95.3311 1194.41 84.7985C1191.07 85.4733 1189.02 85.4494 1188.15 85.178C1186.27 84.5851 1187.1 82.1604 1188.62 80.6825C1187.58 80.3752 1186.26 79.7552 1185.29 78.2997C1183.63 75.8217 1177.62 66.1122 1176.59 60.2946C1175.6 58.142 1183.07 52.5953 1193.28 47.913C1203.49 43.2306 1212.57 41.1896 1213.56 43.3422C1213.56 43.3422 1214.15 44.1494 1214.82 45.3679C1219.67 54.3114 1221.64 62.6738 1220.29 65.9739C1221.58 65.7147 1223.68 65.5732 1224.41 67.1723C1224.82 68.0641 1223.32 71.5977 1219.37 74.6742C1220.97 78.1977 1224.18 90.4631 1230.43 89.7952C1265.74 85.9577 1273.1 117.905 1295.15 157.63C1321.94 205.9 1349.73 278.199 1346.98 292.745C1346.98 292.745 1346.42 294.27 1346.07 295.061C1346.07 295.061 1344.77 299.604 1336.81 300.76C1336.81 300.76 1337.67 306.133 1333.38 310.257C1329.05 314.441 1323.58 313.561 1319.07 310.608C1314.53 307.625 1308.77 311.049 1307.02 314.123C1305.26 317.198 1303.06 322.786 1299.66 324.867C1298.56 325.556 1297.05 325.914 1295.37 325.979C1291.9 326.119 1287.8 324.982 1285.79 322.704C1285.79 322.704 1280.46 329.837 1268.93 320.608C1267.46 319.423 1266.11 318.106 1264.87 316.702C1261.52 312.88 1240.12 270.771 1219.47 222.889C1198.04 173.239 1172.13 125.165 1199.17 105.396Z" fill="#177CFF" stroke="white" stroke-width="6"/>
<path d="M72.6866 361.614C73.2062 358.038 75.1304 352.163 76.0404 348.427L60.9017 279.336L54.0205 248.614C54.0205 248.614 18.7992 213.562 62.6927 150.94C62.6927 150.94 65.6657 144.19 63.495 131.663C59.7009 131.574 57.47 131.042 56.5925 130.533C54.7036 129.427 56.1956 126.995 58.2096 125.762C57.1612 125.174 55.8723 124.173 55.1816 122.354C53.9904 119.252 49.8429 107.218 50.1557 100.642C49.6128 98.059 59.0956 93.8699 71.3448 91.2952C83.5941 88.7206 93.9609 88.7375 94.5037 91.3202C94.5037 91.3202 94.95 92.3436 95.3786 93.8331C98.443 104.747 98.5293 114.321 96.2467 117.575C97.7185 117.612 100.029 117.974 100.432 119.893C100.657 120.963 97.3263 123.627 92.277 125.999C93.7046 130.591 96.2213 136.149 100.505 141.683C105.784 148.471 166.486 191.111 147.647 229.782L162.926 331.436C162.926 331.436 199.592 366.762 182.242 394.372C181.746 395.131 181.251 395.89 180.682 396.664C180.682 396.664 174.014 402.15 165.082 401.446C165.082 401.446 164.698 407.498 159.023 410.925C153.282 414.405 147.559 412.102 143.376 407.78C139.185 403.422 132.079 405.724 129.416 408.634C126.753 411.544 122.985 417.075 118.776 418.498C117.413 418.978 115.683 418.995 113.839 418.65C110.031 417.948 105.861 415.704 104.235 412.733C104.235 412.733 92.5199 420.049 82.3009 407.172C80.9908 405.521 79.8496 403.758 78.8483 401.927C73.3662 391.791 70.6703 376.215 72.8497 361.657L72.6866 361.614Z" stroke="white" stroke-width="6"/>
<path d="M264.088 192.509L263.666 190.925L252.711 185.259C252.711 185.259 214.825 195.483 193.672 142.902C192.312 139.515 190.618 136.267 189.854 132.686C189.176 129.418 188.504 125.401 188.583 122.346C188.603 121.935 186.532 120.578 183.729 119.018C182.06 120.947 180.836 121.889 180.18 122.144C178.654 122.73 177.951 120.56 178.306 118.839C175.768 118.759 165.59 116.77 160.604 112.238C158.921 111.368 160.91 104.098 165.07 96.0125C169.23 87.9266 173.925 82.0502 175.608 82.9209C175.608 82.9209 183.221 84.3341 190.887 94.0005C191.55 93.1784 192.877 91.8359 194.2 92.5329C194.825 92.8339 194.861 95.3432 194.175 98.6758C195.906 99.5093 197.756 100.28 199.485 100.872C200.757 101.305 211.588 93.7584 216.453 91.9574C239.194 83.54 277.04 85.5179 289.968 113.721L299.978 119.321L300.085 119.283C303.601 117.823 307.576 117.935 310.966 119.628L311.038 119.662L390.685 159.571C390.685 159.571 407.68 156.014 425.703 183.908C425.912 184.519 426.098 185.179 426.26 185.827C426.26 185.827 426.27 189.435 424.332 193.276C423.721 194.484 422.895 195.707 421.817 196.839C421.901 196.91 425.004 199.815 424.319 204.56C423.647 209.401 419.767 211.616 415.438 211.994C411.122 212.408 409.16 217.468 409.557 220.272C409.979 223.087 411.327 227.73 410.195 230.758C409.845 231.73 409.041 232.724 408.02 233.614C405.884 235.468 402.725 236.799 400.352 236.377C400.352 236.377 398.39 249.064 386.53 249.029C385.022 249.024 360.975 250.927 351.335 236.378L268.894 198.276C266.526 197.165 264.747 195.078 264.064 192.497L264.088 192.509Z" stroke="white" stroke-width="6"/>
<circle cx="1161.71" cy="289.191" r="123.645" fill="#177CFF"/>
<path d="M1048.65 228.297C1056.23 215.15 1066.07 203.438 1077.7 193.698L1077.71 193.696C1097.4 177.163 1121.56 166.842 1147.12 164.039C1172.68 161.236 1198.5 166.076 1221.3 177.947C1244.11 189.819 1262.89 208.189 1275.25 230.733C1287.62 253.277 1293.02 278.984 1290.78 304.601C1288.54 330.218 1278.75 354.596 1262.65 374.65C1246.55 394.704 1224.87 409.535 1200.34 417.265C1175.82 424.996 1149.55 425.279 1124.87 418.08C1100.19 410.881 1078.19 396.524 1061.67 376.823C1044.58 356.365 1034.17 331.161 1031.85 304.605C1029.52 278.05 1035.38 251.419 1048.65 228.297ZM1251.92 307.873C1258.05 322.536 1261.23 338.268 1261.26 354.162L1261.27 361.411L1265.76 353.647C1275.31 337.096 1280.8 318.514 1281.77 299.429L1281.89 296.97L1279.47 297.412C1270.37 299.075 1261.48 301.728 1252.96 305.324L1251.17 306.081L1251.92 307.873ZM1204.13 336.986L1240.7 380.534L1242.26 382.397L1243.74 380.463C1244.68 379.232 1245.49 378.05 1246.28 376.698L1246.28 376.688C1255.15 361.333 1253.44 337.521 1243.68 311.878L1242.91 309.858L1240.98 310.831C1228.02 317.354 1215.77 325.186 1204.42 334.205L1202.85 335.452L1204.13 336.986ZM1165.29 377.473C1178.1 385.274 1190.75 390.509 1202.29 392.708C1213.83 394.905 1224.41 394.092 1232.92 389.602L1235.06 388.474L1233.5 386.624L1196.96 343.048L1195.67 341.516L1194.17 342.839C1183.32 352.419 1173.46 363.072 1164.75 374.633L1163.45 376.353L1165.29 377.473ZM1219.51 252.858C1230.13 266.172 1239.21 280.648 1246.56 296.008L1247.37 297.69L1249.09 296.96C1258.15 293.106 1267.59 290.238 1277.26 288.407L1279.2 288.055L1280 287.935L1281.75 287.667L1281.65 285.893C1280.27 262.361 1271.99 239.757 1257.83 220.912L1256.6 219.266L1255.02 220.589L1219.79 250.149L1218.33 251.372L1219.51 252.858ZM1157.07 385.603C1152.07 393.372 1147.94 401.668 1144.76 410.34L1143.91 412.644L1146.35 412.947C1165.83 415.376 1185.61 413.014 1203.98 406.068L1210.81 403.483L1203.6 402.319C1194.96 400.926 1186.53 398.413 1178.54 394.843L1178.53 394.836L1177.31 394.3C1171.25 391.595 1165.38 388.487 1159.73 384.999L1158.1 383.993L1157.07 385.603ZM1168.99 295.134L1195.54 326.803L1196.77 328.267L1198.26 327.07C1210.32 317.37 1223.4 309.103 1237.21 302.05L1238.92 301.178L1238.08 299.457C1231.02 285.006 1222.39 271.377 1212.35 258.814L1211.1 257.254L1209.57 258.538L1169.23 292.388L1167.74 293.64L1168.99 295.134ZM1118.6 337.713C1129.26 349.813 1141.23 360.694 1154.29 370.157L1155.84 371.284L1156.99 369.746C1166.26 357.358 1176.79 345.953 1188.39 335.713L1189.81 334.453L1188.59 332.995L1161.92 301.334L1160.67 299.846L1159.18 301.096L1118.81 334.929L1117.28 336.214L1118.6 337.713ZM1187.13 177.183C1184.37 185.229 1180.81 192.98 1176.51 200.319L1176.5 200.33C1175.96 201.258 1175.38 202.184 1174.76 203.158C1174.14 204.121 1173.5 205.131 1172.9 206.173L1172.02 207.696L1173.44 208.727C1187.2 218.697 1199.81 230.179 1211.01 242.956L1212.27 244.391L1213.73 243.164L1249.06 213.506L1250.64 212.183L1249.23 210.68C1233.14 193.473 1212.34 181.384 1189.42 175.919L1187.7 175.508L1187.13 177.183ZM1073.25 375.857C1089.36 393.049 1110.15 405.136 1133.06 410.617L1134.77 411.028L1135.35 409.362C1138.89 399.186 1143.64 389.472 1149.5 380.433L1150.51 378.88L1149.01 377.793C1135.27 367.815 1122.68 356.33 1111.49 343.553L1110.23 342.116L1108.77 343.345L1073.42 373.031L1071.85 374.355L1073.25 375.857ZM1133.91 253.51L1160.54 285.228L1161.8 286.723L1163.29 285.468L1203.62 251.572L1205.15 250.288L1203.83 248.79C1193.19 236.714 1181.25 225.851 1168.22 216.397L1166.67 215.268L1165.52 216.807C1156.25 229.188 1145.73 240.577 1134.12 250.792L1132.69 252.051L1133.91 253.51ZM1084.42 286.931C1091.47 301.382 1100.1 315.012 1110.14 327.575L1111.39 329.137L1112.92 327.85L1153.22 293.938L1154.72 292.681L1153.46 291.189L1126.88 259.695L1125.66 258.244L1124.18 259.428C1112.1 269.075 1099.08 277.325 1085.28 284.337L1083.57 285.207L1084.42 286.931ZM1040.85 300.621C1042.29 324.097 1050.61 346.628 1064.78 365.4L1066.02 367.038L1067.59 365.719L1102.83 336.159L1104.29 334.933L1103.1 333.445C1092.47 320.185 1083.35 305.777 1075.93 290.491L1075.12 288.819L1073.41 289.55C1064.36 293.423 1054.91 296.291 1045.24 298.104L1043.3 298.452L1040.74 298.842L1040.85 300.621ZM1118.89 184.217C1127.53 185.615 1135.96 188.119 1143.96 191.667L1143.97 191.669C1150.45 194.524 1156.73 197.821 1162.75 201.538L1164.38 202.542L1165.42 200.933C1170.42 193.164 1174.54 184.868 1177.73 176.195L1178.57 173.892L1176.14 173.589C1156.65 171.16 1136.87 173.521 1118.51 180.468L1111.68 183.051L1118.89 184.217ZM1088.98 199.913L1125.54 243.46L1126.83 244.991L1128.33 243.669C1139.18 234.088 1149.04 223.436 1157.75 211.874L1159.05 210.153L1157.21 209.034C1144.39 201.248 1131.74 196.019 1120.19 193.824C1108.65 191.631 1098.07 192.445 1089.56 196.935L1087.43 198.063L1088.98 199.913ZM1076.38 209.805C1067.42 225.363 1069.17 249.104 1079.14 274.706L1079.92 276.719L1081.84 275.733C1094.66 269.159 1106.78 261.306 1118.02 252.292L1119.57 251.044L1118.29 249.517L1081.73 205.97L1080.11 204.046L1078.65 206.089C1077.97 207.031 1077.42 207.947 1076.9 208.874L1076.38 209.805ZM1056.69 232.947C1047.16 249.484 1041.69 268.045 1040.72 287.107L1040.59 289.565L1043.01 289.125C1052.11 287.471 1061 284.817 1069.52 281.211L1071.31 280.453L1070.56 278.661C1064.41 264.012 1061.23 248.29 1061.21 232.404L1061.2 225.151L1056.69 232.947Z" fill="white" stroke="#177CFF" stroke-width="3.9"/>
<path d="M183.268 395.61C179.204 398.324 178.022 399.901 171 401" stroke="white" stroke-width="6"/>
<path d="M147 195.229C149 200.729 150 204 150.5 210" stroke="white" stroke-width="6"/>
<path d="M964.217 317.716C965.655 312.99 972.345 312.99 973.783 317.716L975.775 324.26C978.687 333.826 986.174 341.313 995.74 344.225L1002.28 346.217C1007.01 347.655 1007.01 354.345 1002.28 355.783L995.74 357.775C986.174 360.687 978.687 368.174 975.775 377.74L973.783 384.284C972.345 389.01 965.655 389.01 964.217 384.284L962.225 377.74C959.313 368.174 951.826 360.687 942.26 357.775L935.716 355.783C930.99 354.345 930.99 347.655 935.716 346.217L942.26 344.225C951.826 341.313 959.313 333.826 962.225 324.26L964.217 317.716Z" stroke="white" stroke-width="6"/>
<path d="M426.217 52.7157C427.655 47.9902 434.345 47.9902 435.783 52.7157L437.309 57.7268C440.22 67.2931 447.707 74.7798 457.273 77.6914L462.284 79.2167C467.01 80.6549 467.01 87.3451 462.284 88.7833L457.273 90.3086C447.707 93.2202 440.22 100.707 437.309 110.273L435.783 115.284C434.345 120.01 427.655 120.01 426.217 115.284L424.691 110.273C421.78 100.707 414.293 93.2202 404.727 90.3086L399.716 88.7833C394.99 87.3451 394.99 80.6549 399.716 79.2167L404.727 77.6914C414.293 74.7798 421.78 67.2931 424.691 57.7268L426.217 52.7157Z" stroke="white" stroke-width="6"/>
<path d="M465.174 341.661C465.573 340.351 467.427 340.351 467.826 341.661C470.672 351.011 477.989 358.328 487.339 361.174C488.649 361.573 488.649 363.427 487.339 363.826C477.989 366.672 470.672 373.989 467.826 383.339C467.427 384.649 465.573 384.649 465.174 383.339C462.328 373.989 455.011 366.672 445.661 363.826C444.351 363.427 444.351 361.573 445.661 361.174C455.011 358.328 462.328 351.011 465.174 341.661Z" stroke="white" stroke-width="6"/>
<circle cx="300.792" cy="275.792" r="114.495" transform="rotate(22.7511 300.792 275.792)" fill="#177CFF" stroke="white" stroke-width="6"/>
<path d="M337.468 229.787L333.667 238.85L337.398 239.479C340.8 240.052 344.178 240.998 347.504 242.393C370.399 251.994 381.207 278.18 371.711 300.826C362.212 323.478 335.771 334.192 313.011 324.647C309.7 323.258 306.64 321.506 303.829 319.473L300.767 317.258L292.16 337.782L263.669 325.834L272.279 305.303L268.543 304.677C265.155 304.11 261.812 303.176 258.553 301.81C235.536 292.157 224.774 265.843 234.273 243.191C243.768 220.55 270.019 209.899 293.047 219.556C296.316 220.927 299.35 222.652 302.116 224.646L305.178 226.853L308.961 217.832L337.468 229.787ZM292.763 267.854C296.591 258.726 291.547 247.678 281.451 245.426L280.967 245.325C274.435 244.067 268.097 247.13 264.439 252.303C264.252 252.531 264.06 252.798 263.888 253.095C263.4 253.814 263.027 254.557 262.725 255.277C262.722 255.283 262.69 255.357 262.647 255.476C262.592 255.59 262.562 255.665 262.56 255.671L262.557 255.678C259.147 263.864 262.811 273.294 270.966 276.714L271.32 276.862C279.687 280.371 289.243 276.248 292.763 267.854ZM343.531 287.607C346.429 278.632 341.172 268.328 331.25 266.411L331.248 266.411C323.411 264.903 315.837 269.564 312.824 276.75L312.821 276.756C309.41 284.946 313.094 294.381 321.231 297.793L321.6 297.948C329.471 301.248 338.443 297.784 342.377 290.317L342.377 290.316C342.642 289.844 342.862 289.371 343.043 288.94C343.23 288.495 343.39 288.055 343.531 287.607Z" fill="#177CFF" stroke="white" stroke-width="6"/>
</g>
<defs>
<clipPath id="clip0_830_45">
<rect width="1386" height="462" fill="white"/>
</clipPath>
</defs>
</svg>
