<svg width="600" height="128" viewBox="0 0 600 128" fill="none" xmlns="http://www.w3.org/2000/svg">
<rect width="600" height="128" rx="15" fill="#177CFF"/>
<path d="M283.152 57.4157C280.757 57.4157 278.629 57.0049 276.768 56.1834C274.917 55.3519 273.462 54.2087 272.403 52.7537C271.343 51.2986 270.809 49.6258 270.799 47.7353H279.114C279.123 48.3193 279.302 48.8439 279.648 49.3091C280.004 49.7644 280.489 50.1208 281.103 50.3781C281.717 50.6355 282.42 50.7641 283.211 50.7641C283.974 50.7641 284.647 50.6305 285.231 50.3633C285.815 50.0861 286.27 49.705 286.597 49.22C286.923 48.735 287.082 48.1807 287.072 47.5571C287.082 46.9434 286.894 46.399 286.508 45.9239C286.131 45.4488 285.602 45.0776 284.919 44.8104C284.236 44.5431 283.449 44.4095 282.558 44.4095H279.47V38.7081H282.558C283.38 38.7081 284.102 38.5745 284.726 38.3072C285.359 38.04 285.849 37.6688 286.196 37.1937C286.552 36.7186 286.725 36.1742 286.715 35.5605C286.725 34.9666 286.582 34.442 286.285 33.9867C285.988 33.5314 285.572 33.175 285.038 32.9177C284.513 32.6603 283.904 32.5316 283.211 32.5316C282.459 32.5316 281.786 32.6653 281.192 32.9325C280.608 33.1998 280.148 33.571 279.811 34.0461C279.475 34.5212 279.302 35.0656 279.292 35.6793H271.393C271.403 33.8184 271.913 32.1753 272.922 30.75C273.942 29.3246 275.337 28.2061 277.109 27.3945C278.881 26.5828 280.915 26.177 283.211 26.177C285.458 26.177 287.443 26.5581 289.165 27.3202C290.897 28.0824 292.248 29.1316 293.218 30.4679C294.198 31.7942 294.683 33.3136 294.674 35.026C294.693 36.7285 294.109 38.1241 292.922 39.2129C291.744 40.3017 290.249 40.9451 288.438 41.1431V41.3806C290.892 41.6479 292.738 42.4002 293.976 43.6374C295.213 44.8648 295.822 46.4089 295.802 48.2698C295.812 50.0515 295.277 51.6302 294.198 53.0061C293.129 54.3819 291.64 55.4608 289.729 56.2428C287.829 57.0247 285.636 57.4157 283.152 57.4157ZM307.327 57H298.419L308.456 26.5927H319.739L329.776 57H320.868L314.216 34.9666H313.979L307.327 57ZM305.664 45.0034H322.412V51.1799H305.664V45.0034ZM237.821 70.5927V101H229.685V77.1255H219.411V101H211.274V70.5927H237.821ZM243.103 101V70.5927H265.018V77.2443H251.358V82.4706H263.89V89.1222H251.358V94.3484H264.959V101H243.103ZM269.112 101V70.5927H282.237C284.494 70.5927 286.469 71.0381 288.161 71.929C289.854 72.8198 291.17 74.0719 292.111 75.6854C293.051 77.2988 293.521 79.1844 293.521 81.3422C293.521 83.5198 293.036 85.4054 292.066 86.999C291.106 88.5926 289.755 89.82 288.013 90.6811C286.28 91.5423 284.256 91.9728 281.94 91.9728H274.101V85.5588H280.277C281.247 85.5588 282.074 85.3905 282.757 85.054C283.45 84.7076 283.979 84.2176 284.345 83.5841C284.722 82.9506 284.91 82.2033 284.91 81.3422C284.91 80.4711 284.722 79.7288 284.345 79.1151C283.979 78.4915 283.45 78.0164 282.757 77.6897C282.074 77.3532 281.247 77.1849 280.277 77.1849H277.367V101H269.112ZM296.55 70.5927H304.805V86.509H305.043L315.851 70.5927H322.859V101H314.604V85.0243H314.426L303.439 101H296.55V70.5927ZM356.221 85.7964C356.221 89.1815 355.563 92.0372 354.246 94.3633C352.93 96.6794 351.153 98.4364 348.916 99.634C346.679 100.822 344.185 101.416 341.433 101.416C338.662 101.416 336.158 100.817 333.921 99.6192C331.693 98.4116 329.922 96.6497 328.605 94.3336C327.299 92.0075 326.645 89.1618 326.645 85.7964C326.645 82.4112 327.299 79.5605 328.605 77.2443C329.922 74.9182 331.693 73.1613 333.921 71.9735C336.158 70.7758 338.662 70.177 341.433 70.177C344.185 70.177 346.679 70.7758 348.916 71.9735C351.153 73.1613 352.93 74.9182 354.246 77.2443C355.563 79.5605 356.221 82.4112 356.221 85.7964ZM347.729 85.7964C347.729 83.9751 347.486 82.4409 347.001 81.1937C346.526 79.9366 345.818 78.9864 344.878 78.343C343.947 77.6897 342.799 77.3631 341.433 77.3631C340.067 77.3631 338.914 77.6897 337.974 78.343C337.043 78.9864 336.336 79.9366 335.851 81.1937C335.376 82.4409 335.138 83.9751 335.138 85.7964C335.138 87.6176 335.376 89.1568 335.851 90.4139C336.336 91.661 337.043 92.6113 337.974 93.2646C338.914 93.9079 340.067 94.2296 341.433 94.2296C342.799 94.2296 343.947 93.9079 344.878 93.2646C345.818 92.6113 346.526 91.661 347.001 90.4139C347.486 89.1568 347.729 87.6176 347.729 85.7964ZM359.031 108.305V94.6454H361.169C361.882 94.2098 362.525 93.5961 363.099 92.8043C363.683 92.0124 364.178 90.8791 364.584 89.4043C365 87.9294 365.306 85.9547 365.504 83.4802L366.514 70.5927H388.013V94.6454H391.22V108.305H383.262V101H366.989V108.305H359.031ZM370.612 94.6454H380.055V77.2443H373.938L373.463 83.4802C373.324 85.341 373.111 86.9693 372.824 88.3649C372.547 89.7507 372.215 90.9583 371.829 91.9877C371.453 93.0072 371.047 93.8931 370.612 94.6454Z" fill="white"/>
</svg>
