<svg width="560" height="47" viewBox="0 0 560 47" fill="none" xmlns="http://www.w3.org/2000/svg">
<g clip-path="url(#clip0_781_52)">
<path d="M186.442 10.3254H182.6C182.53 9.82835 182.387 9.38686 182.17 9.00092C181.954 8.60914 181.676 8.27583 181.337 8.00099C180.998 7.72616 180.606 7.51565 180.162 7.36946C179.723 7.22327 179.247 7.15018 178.732 7.15018C177.802 7.15018 176.992 7.38115 176.302 7.84311C175.612 8.29922 175.077 8.96584 174.697 9.84297C174.317 10.7143 174.127 11.7727 174.127 13.0182C174.127 14.2988 174.317 15.3747 174.697 16.246C175.083 17.1173 175.621 17.7752 176.311 18.2196C177.001 18.664 177.799 18.8862 178.706 18.8862C179.214 18.8862 179.685 18.8189 180.118 18.6844C180.556 18.55 180.945 18.3541 181.284 18.0968C181.624 17.8336 181.904 17.5149 182.126 17.1407C182.355 16.7665 182.512 16.3396 182.6 15.8601L186.442 15.8776C186.343 16.7021 186.094 17.4974 185.696 18.2634C185.305 19.0236 184.775 19.7048 184.109 20.3071C183.448 20.9036 182.659 21.3772 181.741 21.7281C180.828 22.0731 179.796 22.2456 178.644 22.2456C177.042 22.2456 175.609 21.883 174.346 21.158C173.089 20.4329 172.095 19.3832 171.364 18.0091C170.639 16.6349 170.276 14.9713 170.276 13.0182C170.276 11.0593 170.645 9.39271 171.382 8.01854C172.118 6.64436 173.118 5.59766 174.381 4.87841C175.644 4.15331 177.065 3.79077 178.644 3.79077C179.685 3.79077 180.65 3.93695 181.539 4.22933C182.433 4.52171 183.226 4.94858 183.916 5.50994C184.606 6.06546 185.167 6.7467 185.6 7.55366C186.038 8.36062 186.319 9.28453 186.442 10.3254ZM189.095 27.0523V8.52727H192.779V10.7903H192.946C193.11 10.4277 193.346 10.0593 193.656 9.68508C193.972 9.30499 194.381 8.98923 194.884 8.73778C195.393 8.48049 196.025 8.35185 196.779 8.35185C197.761 8.35185 198.668 8.60914 199.498 9.12372C200.328 9.63246 200.992 10.4014 201.489 11.4306C201.986 12.4539 202.235 13.7374 202.235 15.2812C202.235 16.784 201.992 18.0529 201.507 19.0879C201.027 20.1171 200.372 20.8977 199.542 21.4299C198.717 21.9561 197.793 22.2193 196.77 22.2193C196.045 22.2193 195.428 22.0994 194.919 21.8597C194.417 21.6199 194.004 21.3188 193.683 20.9562C193.361 20.5878 193.115 20.2165 192.946 19.8423H192.832V27.0523H189.095ZM192.753 15.2636C192.753 16.0647 192.864 16.7635 193.086 17.36C193.308 17.9564 193.63 18.4213 194.051 18.7546C194.472 19.0821 194.984 19.2458 195.586 19.2458C196.194 19.2458 196.709 19.0792 197.13 18.7458C197.551 18.4067 197.87 17.9389 198.086 17.3424C198.308 16.7401 198.419 16.0472 198.419 15.2636C198.419 14.4859 198.311 13.8018 198.095 13.2112C197.878 12.6205 197.56 12.1586 197.139 11.8253C196.718 11.492 196.2 11.3253 195.586 11.3253C194.978 11.3253 194.463 11.4861 194.042 11.8077C193.627 12.1294 193.308 12.5855 193.086 13.1761C192.864 13.7667 192.753 14.4625 192.753 15.2636ZM210.866 22.2631C209.48 22.2631 208.287 21.9825 207.287 21.4211C206.293 20.8539 205.527 20.0528 204.989 19.0178C204.451 17.9769 204.182 16.746 204.182 15.325C204.182 13.9392 204.451 12.7229 204.989 11.6762C205.527 10.6295 206.284 9.81373 207.261 9.22898C208.243 8.64422 209.395 8.35185 210.717 8.35185C211.605 8.35185 212.433 8.49511 213.199 8.78164C213.971 9.06232 214.643 9.48627 215.216 10.0535C215.795 10.6207 216.245 11.3341 216.567 12.1937C216.889 13.0474 217.049 14.0473 217.049 15.1935V16.2197H205.673V13.9041H213.532C213.532 13.3661 213.415 12.8895 213.181 12.4744C212.947 12.0592 212.623 11.7346 212.208 11.5007C211.798 11.261 211.322 11.1411 210.778 11.1411C210.211 11.1411 209.708 11.2727 209.269 11.5358C208.837 11.7931 208.497 12.1411 208.252 12.5796C208.006 13.0123 207.88 13.4948 207.875 14.0269V16.2285C207.875 16.8951 207.997 17.4711 208.243 17.9564C208.494 18.4418 208.848 18.816 209.304 19.0792C209.76 19.3423 210.301 19.4739 210.927 19.4739C211.342 19.4739 211.722 19.4154 212.067 19.2984C212.412 19.1815 212.708 19.0061 212.953 18.7722C213.199 18.5383 213.386 18.2517 213.515 17.9126L216.97 18.1406C216.795 18.971 216.435 19.6961 215.892 20.3159C215.354 20.9299 214.658 21.4094 213.804 21.7544C212.956 22.0936 211.977 22.2631 210.866 22.2631ZM218.435 25.9471V19.0353H219.47C219.769 18.8482 220.008 18.55 220.19 18.1406C220.377 17.7313 220.529 17.2489 220.646 16.6934C220.768 16.1378 220.862 15.5385 220.926 14.8952C220.997 14.2462 221.058 13.5912 221.111 12.9305L221.461 8.52727H231.794V19.0353H233.882V25.9471H230.32V22H222.084V25.9471H218.435ZM223.189 19.0353H228.268V11.4043H224.637L224.496 12.9305C224.397 14.369 224.254 15.5911 224.066 16.5969C223.879 17.5968 223.587 18.4096 223.189 19.0353ZM245.436 13.7725V16.7109H238.401V13.7725H245.436ZM239.629 8.52727V22H236.059V8.52727H239.629ZM247.778 8.52727V22H244.234V8.52727H247.778ZM256.816 22.2631C255.43 22.2631 254.238 21.9825 253.238 21.4211C252.244 20.8539 251.478 20.0528 250.94 19.0178C250.402 17.9769 250.133 16.746 250.133 15.325C250.133 13.9392 250.402 12.7229 250.94 11.6762C251.478 10.6295 252.235 9.81373 253.211 9.22898C254.194 8.64422 255.346 8.35185 256.667 8.35185C257.556 8.35185 258.383 8.49511 259.15 8.78164C259.921 9.06232 260.594 9.48627 261.167 10.0535C261.746 10.6207 262.196 11.3341 262.518 12.1937C262.839 13.0474 263 14.0473 263 15.1935V16.2197H251.624V13.9041H259.483C259.483 13.3661 259.366 12.8895 259.132 12.4744C258.898 12.0592 258.574 11.7346 258.158 11.5007C257.749 11.261 257.272 11.1411 256.729 11.1411C256.161 11.1411 255.659 11.2727 255.22 11.5358C254.787 11.7931 254.448 12.1411 254.202 12.5796C253.957 13.0123 253.831 13.4948 253.825 14.0269V16.2285C253.825 16.8951 253.948 17.4711 254.194 17.9564C254.445 18.4418 254.799 18.816 255.255 19.0792C255.711 19.3423 256.252 19.4739 256.878 19.4739C257.293 19.4739 257.673 19.4154 258.018 19.2984C258.363 19.1815 258.658 19.0061 258.904 18.7722C259.15 18.5383 259.337 18.2517 259.465 17.9126L262.921 18.1406C262.746 18.971 262.386 19.6961 261.842 20.3159C261.304 20.9299 260.608 21.4094 259.755 21.7544C258.907 22.0936 257.927 22.2631 256.816 22.2631ZM273.403 17.8687L277.052 8.52727H279.894L274.64 22H272.157L267.026 8.52727H269.859L273.403 17.8687ZM269.008 8.52727V22H265.439V8.52727H269.008ZM277.982 22V8.52727H281.508V22H277.982ZM290.538 22.2631C289.152 22.2631 287.959 21.9825 286.959 21.4211C285.965 20.8539 285.199 20.0528 284.661 19.0178C284.123 17.9769 283.854 16.746 283.854 15.325C283.854 13.9392 284.123 12.7229 284.661 11.6762C285.199 10.6295 285.956 9.81373 286.933 9.22898C287.915 8.64422 289.067 8.35185 290.389 8.35185C291.277 8.35185 292.105 8.49511 292.871 8.78164C293.643 9.06232 294.315 9.48627 294.888 10.0535C295.467 10.6207 295.917 11.3341 296.239 12.1937C296.561 13.0474 296.721 14.0473 296.721 15.1935V16.2197H285.345V13.9041H293.204C293.204 13.3661 293.087 12.8895 292.853 12.4744C292.619 12.0592 292.295 11.7346 291.88 11.5007C291.47 11.261 290.994 11.1411 290.45 11.1411C289.883 11.1411 289.38 11.2727 288.941 11.5358C288.509 11.7931 288.169 12.1411 287.924 12.5796C287.678 13.0123 287.552 13.4948 287.547 14.0269V16.2285C287.547 16.8951 287.669 17.4711 287.915 17.9564C288.166 18.4418 288.52 18.816 288.976 19.0792C289.432 19.3423 289.973 19.4739 290.599 19.4739C291.014 19.4739 291.394 19.4154 291.739 19.2984C292.084 19.1815 292.38 19.0061 292.625 18.7722C292.871 18.5383 293.058 18.2517 293.187 17.9126L296.642 18.1406C296.467 18.971 296.107 19.6961 295.564 20.3159C295.026 20.9299 294.33 21.4094 293.476 21.7544C292.628 22.0936 291.649 22.2631 290.538 22.2631ZM305.247 22.2631C303.867 22.2631 302.68 21.9708 301.686 21.386C300.698 20.7954 299.938 19.9768 299.405 18.93C298.879 17.8833 298.616 16.6787 298.616 15.3163C298.616 13.9362 298.882 12.7258 299.414 11.6849C299.952 10.6382 300.715 9.8225 301.704 9.23775C302.692 8.64715 303.867 8.35185 305.23 8.35185C306.405 8.35185 307.434 8.56528 308.317 8.99215C309.2 9.41902 309.899 10.0184 310.413 10.7903C310.928 11.5621 311.212 12.4685 311.264 13.5094H307.738C307.639 12.8369 307.376 12.296 306.949 11.8867C306.528 11.4715 305.975 11.2639 305.291 11.2639C304.712 11.2639 304.206 11.4218 303.774 11.7376C303.347 12.0475 303.013 12.5007 302.774 13.0971C302.534 13.6936 302.414 14.4157 302.414 15.2636C302.414 16.1232 302.531 16.8542 302.765 17.4565C303.005 18.0588 303.341 18.5178 303.774 18.8336C304.206 19.1493 304.712 19.3072 305.291 19.3072C305.718 19.3072 306.101 19.2195 306.44 19.0441C306.785 18.8686 307.069 18.6143 307.291 18.281C307.519 17.9418 307.668 17.5354 307.738 17.0618H311.264C311.206 18.0909 310.925 18.9973 310.422 19.7809C309.925 20.5586 309.238 21.1667 308.361 21.6053C307.484 22.0439 306.446 22.2631 305.247 22.2631ZM321.551 22V11.4569H319.025C318.34 11.4569 317.82 11.6148 317.463 11.9305C317.107 12.2463 316.931 12.6205 316.937 13.0533C316.931 13.4918 317.101 13.8632 317.446 14.1672C317.797 14.4654 318.311 14.6146 318.99 14.6146H322.796V17.1407H318.99C317.838 17.1407 316.841 16.9653 315.999 16.6144C315.156 16.2636 314.507 15.7753 314.051 15.1496C313.595 14.5181 313.37 13.7842 313.376 12.948C313.37 12.0709 313.595 11.3019 314.051 10.6412C314.507 9.97454 315.159 9.45703 316.007 9.08864C316.861 8.71439 317.867 8.52727 319.025 8.52727H325.033V22H321.551ZM312.99 22L316.735 14.983H320.305L316.569 22H312.99ZM339.628 8.52727V22H336.085V8.52727H339.628ZM337.9 14.4391V17.3863C337.614 17.5149 337.257 17.6377 336.83 17.7547C336.404 17.8658 335.956 17.9564 335.488 18.0266C335.021 18.0968 334.582 18.1319 334.173 18.1319C332.237 18.1319 330.714 17.7342 329.603 16.939C328.492 16.1378 327.936 14.8602 327.936 13.1059V8.50973H331.462V13.1059C331.462 13.6263 331.55 14.0386 331.725 14.3426C331.907 14.6467 332.193 14.866 332.585 15.0005C332.983 15.1291 333.512 15.1935 334.173 15.1935C334.787 15.1935 335.389 15.1291 335.98 15.0005C336.57 14.8719 337.21 14.6847 337.9 14.4391ZM351.906 13.7725V16.7109H344.871V13.7725H351.906ZM346.099 8.52727V22H342.53V8.52727H346.099ZM354.248 8.52727V22H350.704V8.52727H354.248ZM359.489 12.6673H363.515C365.298 12.6673 366.69 13.0942 367.69 13.9479C368.69 14.7958 369.19 15.9303 369.19 17.3512C369.19 18.2751 368.965 19.0879 368.515 19.7896C368.064 20.4855 367.415 21.0293 366.567 21.4211C365.719 21.807 364.702 22 363.515 22H357.147V8.52727H360.717V19.0616H363.515C364.141 19.0616 364.655 18.9037 365.059 18.588C365.462 18.2722 365.667 17.8687 365.673 17.3775C365.667 16.8571 365.462 16.4331 365.059 16.1057C364.655 15.7724 364.141 15.6057 363.515 15.6057H359.489V12.6673ZM370.637 22V8.52727H374.374V22H370.637ZM380.93 17.0705L385.781 8.52727H389.465V22H385.904V13.4304L381.071 22H377.36V8.52727H380.93V17.0705ZM385.141 3.82585H387.746C387.74 4.8901 387.345 5.74677 386.562 6.39584C385.784 7.04492 384.731 7.36946 383.404 7.36946C382.071 7.36946 381.015 7.04492 380.237 6.39584C379.46 5.74677 379.071 4.8901 379.071 3.82585H381.658C381.653 4.22933 381.781 4.59188 382.044 4.91349C382.313 5.23511 382.766 5.39592 383.404 5.39592C384.024 5.39592 384.468 5.23803 384.737 4.92227C385.006 4.6065 385.141 4.24103 385.141 3.82585ZM146.763 25.0364V43H143.009V28.1239H135.746V43H131.992V25.0364H146.763ZM150.309 48.0523V29.5273H153.992V31.7903H154.159C154.323 31.4277 154.56 31.0593 154.87 30.6851C155.185 30.305 155.595 29.9892 156.098 29.7378C156.606 29.4805 157.238 29.3518 157.992 29.3518C158.975 29.3518 159.881 29.6091 160.711 30.1237C161.542 30.6325 162.205 31.4014 162.702 32.4306C163.199 33.4539 163.448 34.7374 163.448 36.2812C163.448 37.784 163.205 39.0529 162.72 40.0879C162.24 41.1171 161.586 41.8977 160.755 42.4299C159.931 42.9561 159.007 43.2193 157.983 43.2193C157.258 43.2193 156.641 43.0994 156.133 42.8597C155.63 42.6199 155.218 42.3188 154.896 41.9562C154.574 41.5878 154.329 41.2165 154.159 40.8423H154.045V48.0523H150.309ZM153.966 36.2636C153.966 37.0647 154.077 37.7635 154.299 38.36C154.522 38.9564 154.843 39.4213 155.264 39.7546C155.685 40.0821 156.197 40.2458 156.799 40.2458C157.407 40.2458 157.922 40.0792 158.343 39.7458C158.764 39.4067 159.083 38.9389 159.299 38.3424C159.521 37.7401 159.632 37.0472 159.632 36.2636C159.632 35.4859 159.524 34.8018 159.308 34.2112C159.092 33.6205 158.773 33.1586 158.352 32.8253C157.931 32.492 157.413 32.3253 156.799 32.3253C156.191 32.3253 155.677 32.4861 155.256 32.8077C154.84 33.1294 154.522 33.5855 154.299 34.1761C154.077 34.7667 153.966 35.4625 153.966 36.2636ZM169.509 38.0705L174.359 29.5273H178.043V43H174.482V34.4304L169.649 43H165.939V29.5273H169.509V38.0705ZM181.039 48.0523V29.5273H184.723V31.7903H184.889C185.053 31.4277 185.29 31.0593 185.6 30.6851C185.916 30.305 186.325 29.9892 186.828 29.7378C187.337 29.4805 187.968 29.3518 188.722 29.3518C189.705 29.3518 190.611 29.6091 191.442 30.1237C192.272 30.6325 192.936 31.4014 193.433 32.4306C193.93 33.4539 194.178 34.7374 194.178 36.2812C194.178 37.784 193.936 39.0529 193.45 40.0879C192.971 41.1171 192.316 41.8977 191.485 42.4299C190.661 42.9561 189.737 43.2193 188.714 43.2193C187.989 43.2193 187.372 43.0994 186.863 42.8597C186.36 42.6199 185.948 42.3188 185.626 41.9562C185.305 41.5878 185.059 41.2165 184.889 40.8423H184.775V48.0523H181.039ZM184.696 36.2636C184.696 37.0647 184.808 37.7635 185.03 38.36C185.252 38.9564 185.574 39.4213 185.995 39.7546C186.416 40.0821 186.927 40.2458 187.53 40.2458C188.138 40.2458 188.652 40.0792 189.073 39.7458C189.494 39.4067 189.813 38.9389 190.029 38.3424C190.252 37.7401 190.363 37.0472 190.363 36.2636C190.363 35.4859 190.255 34.8018 190.038 34.2112C189.822 33.6205 189.503 33.1586 189.082 32.8253C188.661 32.492 188.144 32.3253 187.53 32.3253C186.921 32.3253 186.407 32.4861 185.986 32.8077C185.571 33.1294 185.252 33.5855 185.03 34.1761C184.808 34.7667 184.696 35.4625 184.696 36.2636ZM202.757 43.2631C201.394 43.2631 200.216 42.9737 199.222 42.3948C198.234 41.81 197.47 40.9972 196.932 39.9564C196.394 38.9096 196.125 37.6963 196.125 36.3163C196.125 34.9245 196.394 33.7083 196.932 32.6674C197.47 31.6207 198.234 30.8079 199.222 30.229C200.216 29.6442 201.394 29.3518 202.757 29.3518C204.119 29.3518 205.294 29.6442 206.283 30.229C207.277 30.8079 208.043 31.6207 208.581 32.6674C209.119 33.7083 209.388 34.9245 209.388 36.3163C209.388 37.6963 209.119 38.9096 208.581 39.9564C208.043 40.9972 207.277 41.81 206.283 42.3948C205.294 42.9737 204.119 43.2631 202.757 43.2631ZM202.774 40.3686C203.394 40.3686 203.911 40.1932 204.327 39.8423C204.742 39.4856 205.055 39.0003 205.265 38.3863C205.482 37.7723 205.59 37.0735 205.59 36.2899C205.59 35.5064 205.482 34.8076 205.265 34.1936C205.055 33.5796 204.742 33.0943 204.327 32.7376C203.911 32.3809 203.394 32.2025 202.774 32.2025C202.148 32.2025 201.622 32.3809 201.195 32.7376C200.774 33.0943 200.456 33.5796 200.239 34.1936C200.029 34.8076 199.923 35.5064 199.923 36.2899C199.923 37.0735 200.029 37.7723 200.239 38.3863C200.456 39.0003 200.774 39.4856 201.195 39.8423C201.622 40.1932 202.148 40.3686 202.774 40.3686ZM217.905 43.2631C216.525 43.2631 215.338 42.9708 214.343 42.386C213.355 41.7954 212.595 40.9768 212.063 39.93C211.537 38.8833 211.274 37.6787 211.274 36.3163C211.274 34.9362 211.54 33.7258 212.072 32.6849C212.61 31.6382 213.373 30.8225 214.361 30.2377C215.349 29.6471 216.525 29.3518 217.887 29.3518C219.062 29.3518 220.092 29.5653 220.975 29.9922C221.858 30.419 222.556 31.0184 223.071 31.7903C223.586 32.5621 223.869 33.4685 223.922 34.5094H220.396C220.296 33.8369 220.033 33.296 219.606 32.8867C219.185 32.4715 218.633 32.2639 217.948 32.2639C217.37 32.2639 216.864 32.4218 216.431 32.7376C216.004 33.0475 215.671 33.5007 215.431 34.0971C215.191 34.6936 215.071 35.4157 215.071 36.2636C215.071 37.1232 215.188 37.8542 215.422 38.4565C215.662 39.0588 215.998 39.5178 216.431 39.8336C216.864 40.1493 217.37 40.3072 217.948 40.3072C218.375 40.3072 218.758 40.2195 219.098 40.0441C219.443 39.8686 219.726 39.6143 219.948 39.281C220.176 38.9418 220.326 38.5354 220.396 38.0618H223.922C223.863 39.0909 223.583 39.9973 223.08 40.7809C222.583 41.5586 221.896 42.1667 221.018 42.6053C220.141 43.0439 219.103 43.2631 217.905 43.2631ZM225.395 32.4657V29.5273H237.605V32.4657H233.263V43H229.702V32.4657H225.395ZM261.507 31.3254H257.665C257.595 30.8283 257.452 30.3869 257.235 30.0009C257.019 29.6091 256.741 29.2758 256.402 29.001C256.063 28.7262 255.671 28.5156 255.227 28.3695C254.788 28.2233 254.311 28.1502 253.797 28.1502C252.867 28.1502 252.057 28.3812 251.367 28.8431C250.677 29.2992 250.142 29.9658 249.762 30.843C249.382 31.7143 249.192 32.7727 249.192 34.0182C249.192 35.2988 249.382 36.3747 249.762 37.246C250.148 38.1173 250.686 38.7752 251.376 39.2196C252.066 39.664 252.864 39.8862 253.77 39.8862C254.279 39.8862 254.75 39.8189 255.183 39.6844C255.621 39.55 256.01 39.3541 256.349 39.0968C256.688 38.8336 256.969 38.5149 257.191 38.1407C257.419 37.7665 257.577 37.3396 257.665 36.8601L261.507 36.8776C261.407 37.7021 261.159 38.4974 260.761 39.2634C260.369 40.0236 259.84 40.7048 259.174 41.3071C258.513 41.9036 257.723 42.3772 256.805 42.7281C255.893 43.0731 254.861 43.2456 253.709 43.2456C252.107 43.2456 250.674 42.883 249.411 42.158C248.154 41.4329 247.16 40.3832 246.429 39.0091C245.704 37.6349 245.341 35.9713 245.341 34.0182C245.341 32.0593 245.71 30.3927 246.446 29.0185C247.183 27.6444 248.183 26.5977 249.446 25.8784C250.709 25.1533 252.13 24.7908 253.709 24.7908C254.75 24.7908 255.715 24.937 256.604 25.2293C257.498 25.5217 258.291 25.9486 258.981 26.5099C259.671 27.0655 260.232 27.7467 260.665 28.5537C261.103 29.3606 261.384 30.2845 261.507 31.3254ZM270.247 43.2631C268.885 43.2631 267.707 42.9737 266.713 42.3948C265.724 41.81 264.961 40.9972 264.423 39.9564C263.885 38.9096 263.616 37.6963 263.616 36.3163C263.616 34.9245 263.885 33.7083 264.423 32.6674C264.961 31.6207 265.724 30.8079 266.713 30.229C267.707 29.6442 268.885 29.3518 270.247 29.3518C271.61 29.3518 272.785 29.6442 273.773 30.229C274.768 30.8079 275.534 31.6207 276.072 32.6674C276.61 33.7083 276.879 34.9245 276.879 36.3163C276.879 37.6963 276.61 38.9096 276.072 39.9564C275.534 40.9972 274.768 41.81 273.773 42.3948C272.785 42.9737 271.61 43.2631 270.247 43.2631ZM270.265 40.3686C270.885 40.3686 271.402 40.1932 271.817 39.8423C272.233 39.4856 272.545 39.0003 272.756 38.3863C272.972 37.7723 273.081 37.0735 273.081 36.2899C273.081 35.5064 272.972 34.8076 272.756 34.1936C272.545 33.5796 272.233 33.0943 271.817 32.7376C271.402 32.3809 270.885 32.2025 270.265 32.2025C269.639 32.2025 269.113 32.3809 268.686 32.7376C268.265 33.0943 267.946 33.5796 267.73 34.1936C267.52 34.8076 267.414 35.5064 267.414 36.2899C267.414 37.0735 267.52 37.7723 267.73 38.3863C267.946 39.0003 268.265 39.4856 268.686 39.8423C269.113 40.1932 269.639 40.3686 270.265 40.3686ZM290.509 24.5803L291.649 27.0187C291.269 27.3344 290.848 27.5683 290.386 27.7204C289.924 27.8666 289.372 27.9631 288.729 28.0098C288.091 28.0566 287.313 28.0888 286.395 28.1063C285.355 28.118 284.507 28.2847 283.852 28.6063C283.197 28.9279 282.7 29.4337 282.361 30.1237C282.021 30.8079 281.799 31.7026 281.694 32.8077H281.826C282.229 31.9832 282.796 31.3459 283.527 30.8956C284.264 30.4453 285.173 30.2202 286.255 30.2202C287.401 30.2202 288.404 30.4716 289.264 30.9745C290.129 31.4774 290.801 32.1996 291.281 33.1411C291.76 34.0825 292 35.2111 292 36.5268C292 37.8951 291.731 39.0851 291.193 40.0967C290.661 41.1025 289.904 41.8831 288.922 42.4386C287.939 42.9883 286.77 43.2631 285.413 43.2631C284.051 43.2631 282.875 42.9766 281.887 42.4036C280.905 41.8305 280.144 40.9855 279.606 39.8686C279.074 38.7518 278.808 37.3776 278.808 35.7461V34.6409C278.808 31.3956 279.44 28.9893 280.703 27.4222C281.966 25.855 283.822 25.0598 286.273 25.0364C286.939 25.0247 287.541 25.0217 288.079 25.0276C288.617 25.0334 289.088 25.0071 289.492 24.9486C289.901 24.8902 290.24 24.7674 290.509 24.5803ZM285.431 40.3686C286.004 40.3686 286.495 40.2195 286.904 39.9213C287.319 39.623 287.638 39.1962 287.86 38.6407C288.088 38.0851 288.202 37.4214 288.202 36.6496C288.202 35.8835 288.088 35.2345 287.86 34.7023C287.638 34.1644 287.319 33.755 286.904 33.4744C286.489 33.1937 285.992 33.0533 285.413 33.0533C284.98 33.0533 284.591 33.1323 284.246 33.2902C283.901 33.448 283.606 33.6819 283.36 33.9919C283.121 34.2959 282.934 34.6731 282.799 35.1234C282.67 35.5678 282.606 36.0765 282.606 36.6496C282.606 37.8015 282.855 38.7108 283.352 39.3775C283.855 40.0382 284.548 40.3686 285.431 40.3686ZM298.05 38.0705L302.901 29.5273H306.585V43H303.024V34.4304L298.191 43H294.48V29.5273H298.05V38.0705ZM309.58 48.0523V29.5273H313.264V31.7903H313.431C313.594 31.4277 313.831 31.0593 314.141 30.6851C314.457 30.305 314.866 29.9892 315.369 29.7378C315.878 29.4805 316.509 29.3518 317.264 29.3518C318.246 29.3518 319.153 29.6091 319.983 30.1237C320.813 30.6325 321.477 31.4014 321.974 32.4306C322.471 33.4539 322.72 34.7374 322.72 36.2812C322.72 37.784 322.477 39.0529 321.992 40.0879C321.512 41.1171 320.857 41.8977 320.027 42.4299C319.202 42.9561 318.278 43.2193 317.255 43.2193C316.53 43.2193 315.913 43.0994 315.404 42.8597C314.901 42.6199 314.489 42.3188 314.168 41.9562C313.846 41.5878 313.6 41.2165 313.431 40.8423H313.317V48.0523H309.58ZM313.238 36.2636C313.238 37.0647 313.349 37.7635 313.571 38.36C313.793 38.9564 314.115 39.4213 314.536 39.7546C314.957 40.0821 315.469 40.2458 316.071 40.2458C316.679 40.2458 317.194 40.0792 317.615 39.7458C318.036 39.4067 318.354 38.9389 318.571 38.3424C318.793 37.7401 318.904 37.0472 318.904 36.2636C318.904 35.4859 318.796 34.8018 318.579 34.2112C318.363 33.6205 318.044 33.1586 317.623 32.8253C317.202 32.492 316.685 32.3253 316.071 32.3253C315.463 32.3253 314.948 32.4861 314.527 32.8077C314.112 33.1294 313.793 33.5855 313.571 34.1761C313.349 34.7667 313.238 35.4625 313.238 36.2636ZM329.052 43.2544C328.193 43.2544 327.427 43.1053 326.754 42.807C326.082 42.503 325.55 42.0556 325.158 41.465C324.772 40.8686 324.579 40.1259 324.579 39.2371C324.579 38.4886 324.716 37.86 324.991 37.3513C325.266 36.8425 325.64 36.4332 326.114 36.1233C326.588 35.8134 327.126 35.5795 327.728 35.4216C328.336 35.2637 328.973 35.1526 329.64 35.0883C330.424 35.0064 331.055 34.9304 331.535 34.8602C332.014 34.7842 332.362 34.6731 332.579 34.5269C332.795 34.3807 332.903 34.1644 332.903 33.8778V33.8252C332.903 33.2697 332.728 32.8399 332.377 32.5358C332.032 32.2318 331.541 32.0797 330.903 32.0797C330.231 32.0797 329.696 32.2288 329.298 32.5271C328.9 32.8194 328.637 33.1878 328.509 33.6322L325.053 33.3516C325.228 32.5329 325.573 31.8254 326.088 31.2289C326.602 30.6266 327.266 30.1647 328.079 29.843C328.897 29.5156 329.845 29.3518 330.921 29.3518C331.669 29.3518 332.386 29.4396 333.07 29.615C333.76 29.7904 334.371 30.0623 334.903 30.4307C335.441 30.7991 335.865 31.2728 336.175 31.8517C336.485 32.4247 336.64 33.1118 336.64 33.9129V43H333.096V41.1317H332.991C332.774 41.5527 332.485 41.9241 332.122 42.2457C331.76 42.5614 331.324 42.81 330.815 42.9912C330.307 43.1667 329.719 43.2544 329.052 43.2544ZM330.123 40.6756C330.672 40.6756 331.158 40.5674 331.579 40.3511C332 40.1289 332.33 39.8306 332.57 39.4564C332.809 39.0821 332.929 38.6582 332.929 38.1846V36.7548C332.812 36.8308 332.652 36.901 332.447 36.9653C332.248 37.0238 332.023 37.0794 331.772 37.132C331.52 37.1788 331.269 37.2226 331.017 37.2636C330.766 37.2987 330.538 37.3308 330.333 37.36C329.894 37.4244 329.511 37.5267 329.184 37.667C328.857 37.8074 328.602 37.9974 328.421 38.2372C328.24 38.4711 328.149 38.7635 328.149 39.1143C328.149 39.623 328.333 40.0119 328.702 40.2809C329.076 40.544 329.549 40.6756 330.123 40.6756ZM345.678 43.2631C344.293 43.2631 343.1 42.9825 342.1 42.4211C341.106 41.8539 340.34 41.0528 339.802 40.0178C339.264 38.9769 338.995 37.746 338.995 36.325C338.995 34.9392 339.264 33.7229 339.802 32.6762C340.34 31.6295 341.097 30.8137 342.073 30.229C343.056 29.6442 344.208 29.3518 345.529 29.3518C346.418 29.3518 347.246 29.4951 348.012 29.7816C348.783 30.0623 349.456 30.4863 350.029 31.0535C350.608 31.6207 351.058 32.3341 351.38 33.1937C351.701 34.0474 351.862 35.0473 351.862 36.1935V37.2197H340.486V34.9041H348.345C348.345 34.3661 348.228 33.8895 347.994 33.4744C347.76 33.0592 347.436 32.7346 347.02 32.5007C346.611 32.261 346.135 32.1411 345.591 32.1411C345.024 32.1411 344.521 32.2727 344.082 32.5358C343.649 32.7931 343.31 33.1411 343.065 33.5796C342.819 34.0123 342.693 34.4948 342.687 35.0269V37.2285C342.687 37.8951 342.81 38.4711 343.056 38.9564C343.307 39.4418 343.661 39.816 344.117 40.0792C344.573 40.3423 345.114 40.4739 345.74 40.4739C346.155 40.4739 346.535 40.4154 346.88 40.2984C347.225 40.1815 347.52 40.0061 347.766 39.7722C348.012 39.5383 348.199 39.2517 348.327 38.9126L351.783 39.1406C351.608 39.971 351.248 40.6961 350.704 41.3159C350.166 41.9299 349.471 42.4094 348.617 42.7544C347.769 43.0936 346.789 43.2631 345.678 43.2631ZM362.265 38.8687L365.914 29.5273H368.756L363.502 43H361.019L355.888 29.5273H358.721L362.265 38.8687ZM357.871 29.5273V43H354.301V29.5273H357.871ZM366.844 43V29.5273H370.37V43H366.844ZM379.347 43.2631C377.985 43.2631 376.806 42.9737 375.812 42.3948C374.824 41.81 374.061 40.9972 373.523 39.9564C372.985 38.9096 372.716 37.6963 372.716 36.3163C372.716 34.9245 372.985 33.7083 373.523 32.6674C374.061 31.6207 374.824 30.8079 375.812 30.229C376.806 29.6442 377.985 29.3518 379.347 29.3518C380.71 29.3518 381.885 29.6442 382.873 30.229C383.867 30.8079 384.633 31.6207 385.171 32.6674C385.709 33.7083 385.978 34.9245 385.978 36.3163C385.978 37.6963 385.709 38.9096 385.171 39.9564C384.633 40.9972 383.867 41.81 382.873 42.3948C381.885 42.9737 380.71 43.2631 379.347 43.2631ZM379.365 40.3686C379.984 40.3686 380.502 40.1932 380.917 39.8423C381.332 39.4856 381.645 39.0003 381.856 38.3863C382.072 37.7723 382.18 37.0735 382.18 36.2899C382.18 35.5064 382.072 34.8076 381.856 34.1936C381.645 33.5796 381.332 33.0943 380.917 32.7376C380.502 32.3809 379.984 32.2025 379.365 32.2025C378.739 32.2025 378.213 32.3809 377.786 32.7376C377.365 33.0943 377.046 33.5796 376.83 34.1936C376.619 34.8076 376.514 35.5064 376.514 36.2899C376.514 37.0735 376.619 37.7723 376.83 38.3863C377.046 39.0003 377.365 39.4856 377.786 39.8423C378.213 40.1932 378.739 40.3686 379.365 40.3686ZM394.495 43.2631C393.115 43.2631 391.928 42.9708 390.934 42.386C389.946 41.7954 389.186 40.9768 388.653 39.93C388.127 38.8833 387.864 37.6787 387.864 36.3163C387.864 34.9362 388.13 33.7258 388.662 32.6849C389.2 31.6382 389.963 30.8225 390.952 30.2377C391.94 29.6471 393.115 29.3518 394.478 29.3518C395.653 29.3518 396.682 29.5653 397.565 29.9922C398.448 30.419 399.147 31.0184 399.661 31.7903C400.176 32.5621 400.46 33.4685 400.512 34.5094H396.986C396.887 33.8369 396.624 33.296 396.197 32.8867C395.776 32.4715 395.223 32.2639 394.539 32.2639C393.96 32.2639 393.454 32.4218 393.022 32.7376C392.595 33.0475 392.261 33.5007 392.022 34.0971C391.782 34.6936 391.662 35.4157 391.662 36.2636C391.662 37.1232 391.779 37.8542 392.013 38.4565C392.253 39.0588 392.589 39.5178 393.022 39.8336C393.454 40.1493 393.96 40.3072 394.539 40.3072C394.966 40.3072 395.349 40.2195 395.688 40.0441C396.033 39.8686 396.317 39.6143 396.539 39.281C396.767 38.9418 396.916 38.5354 396.986 38.0618H400.512C400.454 39.0909 400.173 39.9973 399.67 40.7809C399.173 41.5586 398.486 42.1667 397.609 42.6053C396.732 43.0439 395.694 43.2631 394.495 43.2631ZM401.986 32.4657V29.5273H414.196V32.4657H409.854V43H406.293V32.4657H401.986ZM420.031 38.0705L424.881 29.5273H428.565V43H425.004V34.4304L420.171 43H416.461V29.5273H420.031V38.0705Z" fill="#177CFF"/>
</g>
<defs>
<clipPath id="clip0_781_52">
<rect width="560" height="47" fill="white"/>
</clipPath>
</defs>
</svg>
