<svg width="14" height="15" viewBox="0 0 14 15" fill="none" xmlns="http://www.w3.org/2000/svg">
<path d="M7.57841 14.2631C6.19839 14.2631 5.01134 13.9708 4.01726 13.386C3.02902 12.7954 2.26884 11.9768 1.73672 10.93C1.21044 9.88333 0.947301 8.67874 0.947301 7.31626C0.947301 5.93625 1.21336 4.7258 1.74549 3.68494C2.28346 2.63823 3.04657 1.8225 4.0348 1.23775C5.02304 0.647147 6.19839 0.351846 7.56087 0.351846C8.73622 0.351846 9.76539 0.565281 10.6484 0.992151C11.5313 1.41902 12.2301 2.01839 12.7447 2.79027C13.2593 3.56214 13.5429 4.46851 13.5955 5.50937H10.0695C9.97005 4.83691 9.70691 4.29601 9.28004 3.88668C8.85902 3.47151 8.30643 3.26392 7.62227 3.26392C7.04336 3.26392 6.53755 3.4218 6.10483 3.73757C5.67796 4.04749 5.34465 4.50067 5.1049 5.09712C4.86515 5.69357 4.74528 6.41574 4.74528 7.26364C4.74528 8.12322 4.86223 8.85417 5.09613 9.45646C5.33588 10.0588 5.67211 10.5178 6.10483 10.8336C6.53755 11.1493 7.04336 11.3072 7.62227 11.3072C8.04914 11.3072 8.43215 11.2195 8.77131 11.0441C9.11631 10.8686 9.39992 10.6143 9.62212 10.281C9.85018 9.94181 9.99929 9.5354 10.0695 9.06175H13.5955C13.5371 10.0909 13.2564 10.9973 12.7535 11.7809C12.2564 12.5586 11.5694 13.1667 10.6922 13.6053C9.81509 14.0439 8.77716 14.2631 7.57841 14.2631Z" fill="#177CFF"/>
</svg>
