<svg width="325" height="41" viewBox="0 0 325 41" fill="none" xmlns="http://www.w3.org/2000/svg">
<path d="M34.411 17.3254H30.5692C30.499 16.8283 30.3558 16.3869 30.1394 16.0009C29.9231 15.6091 29.6453 15.2758 29.3061 15.001C28.967 14.7262 28.5752 14.5156 28.1308 14.3695C27.6922 14.2233 27.2156 14.1502 26.7011 14.1502C25.7713 14.1502 24.9614 14.3812 24.2714 14.8431C23.5814 15.2992 23.0464 15.9658 22.6663 16.843C22.2862 17.7143 22.0961 18.7727 22.0961 20.0182C22.0961 21.2988 22.2862 22.3747 22.6663 23.246C23.0522 24.1173 23.5902 24.7752 24.2802 25.2196C24.9702 25.664 25.7684 25.8862 26.6748 25.8862C27.1835 25.8862 27.6542 25.8189 28.0869 25.6844C28.5255 25.55 28.9144 25.3541 29.2535 25.0968C29.5927 24.8336 29.8734 24.5149 30.0956 24.1407C30.3236 23.7665 30.4815 23.3396 30.5692 22.8601L34.411 22.8776C34.3116 23.7021 34.0631 24.4974 33.6655 25.2634C33.2737 26.0236 32.7445 26.7048 32.0779 27.3071C31.4171 27.9036 30.6277 28.3772 29.7096 28.7281C28.7974 29.0731 27.7653 29.2456 26.6134 29.2456C25.0111 29.2456 23.5785 28.883 22.3154 28.158C21.0582 27.4329 20.0641 26.3832 19.3332 25.0091C18.6081 23.6349 18.2455 21.9713 18.2455 20.0182C18.2455 18.0593 18.6139 16.3927 19.3507 15.0185C20.0875 13.6444 21.0874 12.5977 22.3505 11.8784C23.6136 11.1533 25.0345 10.7908 26.6134 10.7908C27.6542 10.7908 28.6191 10.937 29.5079 11.2293C30.4026 11.5217 31.1949 11.9486 31.8849 12.5099C32.5749 13.0655 33.1363 13.7467 33.569 14.5537C34.0076 15.3606 34.2882 16.2845 34.411 17.3254ZM43.1517 29.2631C41.7892 29.2631 40.6109 28.9737 39.6168 28.3948C38.6286 27.81 37.8655 26.9972 37.3275 25.9564C36.7895 24.9096 36.5205 23.6963 36.5205 22.3163C36.5205 20.9245 36.7895 19.7083 37.3275 18.6674C37.8655 17.6207 38.6286 16.8079 39.6168 16.229C40.6109 15.6442 41.7892 15.3518 43.1517 15.3518C44.5141 15.3518 45.6895 15.6442 46.6777 16.229C47.6718 16.8079 48.4378 17.6207 48.9758 18.6674C49.5138 19.7083 49.7828 20.9245 49.7828 22.3163C49.7828 23.6963 49.5138 24.9096 48.9758 25.9564C48.4378 26.9972 47.6718 27.81 46.6777 28.3948C45.6895 28.9737 44.5141 29.2631 43.1517 29.2631ZM43.1692 26.3686C43.789 26.3686 44.3065 26.1932 44.7217 25.8423C45.1369 25.4856 45.4497 25.0003 45.6602 24.3863C45.8766 23.7723 45.9848 23.0735 45.9848 22.2899C45.9848 21.5064 45.8766 20.8076 45.6602 20.1936C45.4497 19.5796 45.1369 19.0943 44.7217 18.7376C44.3065 18.3809 43.789 18.2025 43.1692 18.2025C42.5435 18.2025 42.0172 18.3809 41.5904 18.7376C41.1693 19.0943 40.8506 19.5796 40.6343 20.1936C40.4238 20.8076 40.3185 21.5064 40.3185 22.2899C40.3185 23.0735 40.4238 23.7723 40.6343 24.3863C40.8506 25.0003 41.1693 25.4856 41.5904 25.8423C42.0172 26.1932 42.5435 26.3686 43.1692 26.3686ZM63.4134 10.5803L64.5536 13.0187C64.1736 13.3344 63.7525 13.5683 63.2906 13.7204C62.8286 13.8666 62.276 13.9631 61.6328 14.0098C60.9954 14.0566 60.2177 14.0888 59.2996 14.1063C58.2588 14.118 57.4109 14.2847 56.7559 14.6063C56.101 14.9279 55.604 15.4337 55.2648 16.1237C54.9257 16.8079 54.7035 17.7026 54.5982 18.8077H54.7298C55.1333 17.9832 55.7005 17.3459 56.4314 16.8956C57.1682 16.4453 58.0775 16.2202 59.1593 16.2202C60.3054 16.2202 61.3083 16.4716 62.1678 16.9745C63.0333 17.4774 63.7057 18.1996 64.1852 19.1411C64.6647 20.0825 64.9045 21.2111 64.9045 22.5268C64.9045 23.8951 64.6355 25.0851 64.0975 26.0967C63.5654 27.1025 62.8082 27.8831 61.8258 28.4386C60.8434 28.9883 59.6739 29.2631 58.3172 29.2631C56.9548 29.2631 55.7794 28.9766 54.7912 28.4036C53.8088 27.8305 53.0486 26.9855 52.5106 25.8686C51.9785 24.7518 51.7124 23.3776 51.7124 21.7461V20.6409C51.7124 17.3956 52.344 14.9893 53.6071 13.4222C54.8701 11.855 56.7267 11.0598 59.1768 11.0364C59.8435 11.0247 60.4457 11.0217 60.9837 11.0276C61.5217 11.0334 61.9924 11.0071 62.3959 10.9486C62.8052 10.8902 63.1444 10.7674 63.4134 10.5803ZM58.3348 26.3686C58.9078 26.3686 59.399 26.2195 59.8084 25.9213C60.2235 25.623 60.5422 25.1962 60.7644 24.6407C60.9925 24.0851 61.1065 23.4214 61.1065 22.6496C61.1065 21.8835 60.9925 21.2345 60.7644 20.7023C60.5422 20.1644 60.2235 19.755 59.8084 19.4744C59.3932 19.1937 58.8961 19.0533 58.3172 19.0533C57.8845 19.0533 57.4957 19.1323 57.1507 19.2902C56.8057 19.448 56.5104 19.6819 56.2648 19.9919C56.025 20.2959 55.8379 20.6731 55.7034 21.1234C55.5747 21.5678 55.5104 22.0765 55.5104 22.6496C55.5104 23.8015 55.7589 24.7108 56.256 25.3775C56.7589 26.0382 57.4518 26.3686 58.3348 26.3686ZM67.3846 34.0523V15.5273H71.0685V17.7903H71.2352C71.3989 17.4277 71.6357 17.0593 71.9457 16.6851C72.2614 16.305 72.6708 15.9892 73.1736 15.7378C73.6824 15.4805 74.3139 15.3518 75.0682 15.3518C76.0506 15.3518 76.957 15.6091 77.7874 16.1237C78.6177 16.6325 79.2814 17.4014 79.7784 18.4306C80.2755 19.4539 80.524 20.7374 80.524 22.2812C80.524 23.784 80.2813 25.0529 79.796 26.0879C79.3165 27.1171 78.6616 27.8977 77.8312 28.4299C77.0067 28.9561 76.0828 29.2193 75.0595 29.2193C74.3344 29.2193 73.7175 29.0994 73.2087 28.8597C72.7058 28.6199 72.2936 28.3188 71.972 27.9562C71.6504 27.5878 71.4048 27.2165 71.2352 26.8423H71.1212V34.0523H67.3846ZM71.0422 22.2636C71.0422 23.0647 71.1533 23.7635 71.3755 24.36C71.5977 24.9564 71.9193 25.4213 72.3404 25.7546C72.7614 26.0821 73.2731 26.2458 73.8753 26.2458C74.4835 26.2458 74.9981 26.0792 75.4191 25.7458C75.8401 25.4067 76.1588 24.9389 76.3752 24.3424C76.5974 23.7401 76.7085 23.0472 76.7085 22.2636C76.7085 21.4859 76.6003 20.8018 76.3839 20.2112C76.1676 19.6205 75.8489 19.1586 75.4279 18.8253C75.0068 18.492 74.4893 18.3253 73.8753 18.3253C73.2672 18.3253 72.7526 18.4861 72.3316 18.8077C71.9164 19.1294 71.5977 19.5855 71.3755 20.1761C71.1533 20.7667 71.0422 21.4625 71.0422 22.2636ZM86.8569 29.2544C85.9973 29.2544 85.2313 29.1053 84.5588 28.807C83.8863 28.503 83.3542 28.0556 82.9624 27.465C82.5765 26.8686 82.3835 26.1259 82.3835 25.2371C82.3835 24.4886 82.5209 23.86 82.7958 23.3513C83.0706 22.8425 83.4448 22.4332 83.9185 22.1233C84.3921 21.8134 84.9301 21.5795 85.5324 21.4216C86.1406 21.2637 86.7779 21.1526 87.4446 21.0883C88.2281 21.0064 88.8597 20.9304 89.3392 20.8602C89.8187 20.7842 90.1666 20.6731 90.3829 20.5269C90.5993 20.3807 90.7075 20.1644 90.7075 19.8778V19.8252C90.7075 19.2697 90.5321 18.8399 90.1812 18.5358C89.8362 18.2318 89.345 18.0797 88.7076 18.0797C88.0352 18.0797 87.5001 18.2288 87.1025 18.5271C86.7048 18.8194 86.4417 19.1878 86.3131 19.6322L82.8572 19.3516C83.0326 18.5329 83.3776 17.8254 83.8922 17.2289C84.4068 16.6266 85.0705 16.1647 85.8833 15.843C86.7019 15.5156 87.6492 15.3518 88.7252 15.3518C89.4737 15.3518 90.19 15.4396 90.8741 15.615C91.5641 15.7904 92.1752 16.0623 92.7073 16.4307C93.2453 16.7991 93.6693 17.2728 93.9792 17.8517C94.2891 18.4247 94.4441 19.1118 94.4441 19.9129V29H90.9005V27.1317H90.7952C90.5788 27.5527 90.2894 27.9241 89.9268 28.2457C89.5643 28.5614 89.1286 28.81 88.6199 28.9912C88.1112 29.1667 87.5235 29.2544 86.8569 29.2544ZM87.927 26.6756C88.4766 26.6756 88.962 26.5674 89.383 26.3511C89.804 26.1289 90.1344 25.8306 90.3742 25.4564C90.6139 25.0821 90.7338 24.6582 90.7338 24.1846V22.7548C90.6168 22.8308 90.456 22.901 90.2514 22.9653C90.0526 23.0238 89.8274 23.0794 89.576 23.132C89.3245 23.1788 89.0731 23.2226 88.8217 23.2636C88.5702 23.2987 88.3422 23.3308 88.1375 23.36C87.6989 23.4244 87.3159 23.5267 86.9885 23.667C86.661 23.8074 86.4066 23.9974 86.2253 24.2372C86.0441 24.4711 85.9534 24.7635 85.9534 25.1143C85.9534 25.623 86.1376 26.0119 86.506 26.2809C86.8803 26.544 87.3539 26.6756 87.927 26.6756ZM96.5536 29L96.536 26.0353H96.9834C97.2991 26.0353 97.571 25.9593 97.7991 25.8072C98.033 25.6494 98.226 25.395 98.378 25.0441C98.53 24.6933 98.6499 24.2284 98.7376 23.6495C98.8253 23.0647 98.8838 22.3455 98.913 21.4918L99.1323 15.5273H109.377V29H105.816V18.4657H102.492L102.281 22.5794C102.229 23.708 102.091 24.6787 101.869 25.4915C101.653 26.3043 101.351 26.9709 100.966 27.4913C100.58 28.0059 100.115 28.386 99.5709 28.6316C99.0271 28.8772 98.3955 29 97.6763 29H96.5536ZM115.844 24.0705L120.694 15.5273H124.378V29H120.817V20.4304L115.984 29H112.274V15.5273H115.844V24.0705ZM136.257 29H132.187L138.388 11.0364H143.283L149.475 29H145.405L140.906 15.1413H140.765L136.257 29ZM136.003 21.9391H145.616V24.9038H136.003V21.9391ZM150.778 29L150.76 26.0353H151.208C151.523 26.0353 151.795 25.9593 152.023 25.8072C152.257 25.6494 152.45 25.395 152.602 25.0441C152.754 24.6933 152.874 24.2284 152.962 23.6495C153.05 23.0647 153.108 22.3455 153.137 21.4918L153.357 15.5273H163.601V29H160.04V18.4657H156.716L156.505 22.5794C156.453 23.708 156.315 24.6787 156.093 25.4915C155.877 26.3043 155.576 26.9709 155.19 27.4913C154.804 28.0059 154.339 28.386 153.795 28.6316C153.251 28.8772 152.62 29 151.901 29H150.778ZM173.945 20.8515V23.8162H166.638V20.8515H173.945ZM169.524 15.5273V29H165.796V15.5273H169.524ZM177.98 29.2631C176.647 29.2631 175.495 28.9649 174.524 28.3685C173.553 27.772 172.805 26.9475 172.278 25.895C171.758 24.8424 171.498 23.6349 171.498 22.2724C171.498 20.9099 171.758 19.7083 172.278 18.6674C172.805 17.6265 173.553 16.8137 174.524 16.229C175.495 15.6442 176.647 15.3518 177.98 15.3518C179.319 15.3518 180.471 15.6442 181.436 16.229C182.406 16.8137 183.152 17.6265 183.672 18.6674C184.199 19.7083 184.462 20.9099 184.462 22.2724C184.462 23.6349 184.199 24.8424 183.672 25.895C183.152 26.9475 182.406 27.772 181.436 28.3685C180.471 28.9649 179.319 29.2631 177.98 29.2631ZM177.98 26.2458C178.676 26.2458 179.237 26.0762 179.664 25.7371C180.091 25.3921 180.404 24.9213 180.602 24.3249C180.801 23.7226 180.901 23.0384 180.901 22.2724C180.901 21.5064 180.801 20.8281 180.602 20.2375C180.404 19.641 180.091 19.1732 179.664 18.8341C179.237 18.4949 178.676 18.3253 177.98 18.3253C177.29 18.3253 176.728 18.4949 176.296 18.8341C175.863 19.1674 175.544 19.6293 175.34 20.2199C175.141 20.8105 175.041 21.4947 175.041 22.2724C175.041 23.0443 175.141 23.7284 175.34 24.3249C175.544 24.9213 175.863 25.3921 176.296 25.7371C176.728 26.0762 177.29 26.2458 177.98 26.2458ZM194.965 24.8687L198.614 15.5273H201.456L196.202 29H193.72L188.589 15.5273H191.422L194.965 24.8687ZM190.571 15.5273V29H187.001V15.5273H190.571ZM199.544 29V15.5273H203.07V29H199.544ZM209.53 24.0705L214.381 15.5273H218.065V29H214.504V20.4304L209.671 29H205.96V15.5273H209.53V24.0705ZM230.437 20.7725V23.7109H223.402V20.7725H230.437ZM224.63 15.5273V29H221.06V15.5273H224.63ZM232.779 15.5273V29H229.235V15.5273H232.779ZM239.247 24.0705L244.098 15.5273H247.782V29H244.221V20.4304L239.388 29H235.677V15.5273H239.247V24.0705ZM258.671 29V18.4569H256.145C255.461 18.4569 254.941 18.6148 254.584 18.9305C254.227 19.2463 254.052 19.6205 254.058 20.0533C254.052 20.4918 254.221 20.8632 254.566 21.1672C254.917 21.4654 255.432 21.6146 256.11 21.6146H259.917V24.1407H256.11C254.958 24.1407 253.961 23.9653 253.119 23.6144C252.277 23.2636 251.628 22.7753 251.172 22.1496C250.716 21.5181 250.491 20.7842 250.497 19.948C250.491 19.0709 250.716 18.3019 251.172 17.6412C251.628 16.9745 252.28 16.457 253.128 16.0886C253.982 15.7144 254.987 15.5273 256.145 15.5273H262.154V29H258.671ZM250.111 29L253.856 21.983H257.426L253.689 29H250.111ZM269.118 26.544L269.022 27.5089C268.946 28.2808 268.799 29.0497 268.583 29.8157C268.373 30.5876 268.15 31.2864 267.916 31.9121C267.688 32.5378 267.504 33.029 267.364 33.3857H264.943C265.031 33.0406 265.151 32.5582 265.303 31.9384C265.455 31.3244 265.598 30.6344 265.732 29.8684C265.867 29.1023 265.952 28.3217 265.987 27.5264L266.031 26.544H269.118ZM288.345 29L282.573 21.3426H281.275V29H277.477V11.0364H281.275V18.2113H282.038L288.003 11.0364H292.73L285.722 19.3691L293.055 29H288.345ZM306.885 11.0364V14.1677H298.763V29H294.965V11.0364H306.885Z" fill="#177CFF"/>
</svg>
