<svg width="406" height="41" viewBox="0 0 406 41" fill="none" xmlns="http://www.w3.org/2000/svg">
<path d="M34.411 17.3254H30.5692C30.499 16.8283 30.3558 16.3869 30.1394 16.0009C29.9231 15.6091 29.6453 15.2758 29.3061 15.001C28.967 14.7262 28.5752 14.5156 28.1308 14.3695C27.6922 14.2233 27.2156 14.1502 26.7011 14.1502C25.7713 14.1502 24.9614 14.3812 24.2714 14.8431C23.5814 15.2992 23.0464 15.9658 22.6663 16.843C22.2862 17.7143 22.0961 18.7727 22.0961 20.0182C22.0961 21.2988 22.2862 22.3747 22.6663 23.246C23.0522 24.1173 23.5902 24.7752 24.2802 25.2196C24.9702 25.664 25.7684 25.8862 26.6748 25.8862C27.1835 25.8862 27.6542 25.8189 28.0869 25.6844C28.5255 25.55 28.9144 25.3541 29.2535 25.0968C29.5927 24.8336 29.8734 24.5149 30.0956 24.1407C30.3236 23.7665 30.4815 23.3396 30.5692 22.8601L34.411 22.8776C34.3116 23.7021 34.0631 24.4974 33.6655 25.2634C33.2737 26.0236 32.7445 26.7048 32.0779 27.3071C31.4171 27.9036 30.6277 28.3772 29.7096 28.7281C28.7974 29.0731 27.7653 29.2456 26.6134 29.2456C25.0111 29.2456 23.5785 28.883 22.3154 28.158C21.0582 27.4329 20.0641 26.3832 19.3332 25.0091C18.6081 23.6349 18.2455 21.9713 18.2455 20.0182C18.2455 18.0593 18.6139 16.3927 19.3507 15.0185C20.0875 13.6444 21.0874 12.5977 22.3505 11.8784C23.6136 11.1533 25.0345 10.7908 26.6134 10.7908C27.6542 10.7908 28.6191 10.937 29.5079 11.2293C30.4026 11.5217 31.1949 11.9486 31.8849 12.5099C32.5749 13.0655 33.1363 13.7467 33.569 14.5537C34.0076 15.3606 34.2882 16.2845 34.411 17.3254ZM43.1517 29.2631C41.7892 29.2631 40.6109 28.9737 39.6168 28.3948C38.6286 27.81 37.8655 26.9972 37.3275 25.9564C36.7895 24.9096 36.5205 23.6963 36.5205 22.3163C36.5205 20.9245 36.7895 19.7083 37.3275 18.6674C37.8655 17.6207 38.6286 16.8079 39.6168 16.229C40.6109 15.6442 41.7892 15.3518 43.1517 15.3518C44.5141 15.3518 45.6895 15.6442 46.6777 16.229C47.6718 16.8079 48.4378 17.6207 48.9758 18.6674C49.5138 19.7083 49.7828 20.9245 49.7828 22.3163C49.7828 23.6963 49.5138 24.9096 48.9758 25.9564C48.4378 26.9972 47.6718 27.81 46.6777 28.3948C45.6895 28.9737 44.5141 29.2631 43.1517 29.2631ZM43.1692 26.3686C43.789 26.3686 44.3065 26.1932 44.7217 25.8423C45.1369 25.4856 45.4497 25.0003 45.6602 24.3863C45.8766 23.7723 45.9848 23.0735 45.9848 22.2899C45.9848 21.5064 45.8766 20.8076 45.6602 20.1936C45.4497 19.5796 45.1369 19.0943 44.7217 18.7376C44.3065 18.3809 43.789 18.2025 43.1692 18.2025C42.5435 18.2025 42.0172 18.3809 41.5904 18.7376C41.1693 19.0943 40.8506 19.5796 40.6343 20.1936C40.4238 20.8076 40.3185 21.5064 40.3185 22.2899C40.3185 23.0735 40.4238 23.7723 40.6343 24.3863C40.8506 25.0003 41.1693 25.4856 41.5904 25.8423C42.0172 26.1932 42.5435 26.3686 43.1692 26.3686ZM52.2124 29V15.5273H55.949V20.755H57.0015L60.668 15.5273H65.0536L60.2908 22.211L65.1062 29H60.668L57.3436 24.2196H55.949V29H52.2124ZM66.6851 34.0523V15.5273H70.369V17.7903H70.5357C70.6994 17.4277 70.9362 17.0593 71.2461 16.6851C71.5619 16.305 71.9712 15.9892 72.4741 15.7378C72.9829 15.4805 73.6144 15.3518 74.3687 15.3518C75.3511 15.3518 76.2575 15.6091 77.0878 16.1237C77.9182 16.6325 78.5819 17.4014 79.0789 18.4306C79.576 19.4539 79.8245 20.7374 79.8245 22.2812C79.8245 23.784 79.5818 25.0529 79.0965 26.0879C78.617 27.1171 77.962 27.8977 77.1317 28.4299C76.3072 28.9561 75.3833 29.2193 74.36 29.2193C73.6349 29.2193 73.018 29.0994 72.5092 28.8597C72.0063 28.6199 71.5941 28.3188 71.2725 27.9562C70.9508 27.5878 70.7053 27.2165 70.5357 26.8423H70.4216V34.0523H66.6851ZM70.3427 22.2636C70.3427 23.0647 70.4538 23.7635 70.676 24.36C70.8982 24.9564 71.2198 25.4213 71.6409 25.7546C72.0619 26.0821 72.5735 26.2458 73.1758 26.2458C73.784 26.2458 74.2986 26.0792 74.7196 25.7458C75.1406 25.4067 75.4593 24.9389 75.6757 24.3424C75.8979 23.7401 76.009 23.0472 76.009 22.2636C76.009 21.4859 75.9008 20.8018 75.6844 20.2112C75.4681 19.6205 75.1494 19.1586 74.7284 18.8253C74.3073 18.492 73.7898 18.3253 73.1758 18.3253C72.5677 18.3253 72.0531 18.4861 71.6321 18.8077C71.2169 19.1294 70.8982 19.5855 70.676 20.1761C70.4538 20.7667 70.3427 21.4625 70.3427 22.2636ZM86.1574 29.2544C85.2978 29.2544 84.5318 29.1053 83.8593 28.807C83.1868 28.503 82.6547 28.0556 82.2629 27.465C81.877 26.8686 81.684 26.1259 81.684 25.2371C81.684 24.4886 81.8214 23.86 82.0963 23.3513C82.3711 22.8425 82.7453 22.4332 83.219 22.1233C83.6926 21.8134 84.2306 21.5795 84.8329 21.4216C85.441 21.2637 86.0784 21.1526 86.745 21.0883C87.5286 21.0064 88.1602 20.9304 88.6397 20.8602C89.1192 20.7842 89.4671 20.6731 89.6834 20.5269C89.8998 20.3807 90.008 20.1644 90.008 19.8778V19.8252C90.008 19.2697 89.8325 18.8399 89.4817 18.5358C89.1367 18.2318 88.6455 18.0797 88.0081 18.0797C87.3357 18.0797 86.8006 18.2288 86.403 18.5271C86.0053 18.8194 85.7422 19.1878 85.6136 19.6322L82.1577 19.3516C82.3331 18.5329 82.6781 17.8254 83.1927 17.2289C83.7073 16.6266 84.3709 16.1647 85.1838 15.843C86.0024 15.5156 86.9497 15.3518 88.0257 15.3518C88.7741 15.3518 89.4905 15.4396 90.1746 15.615C90.8646 15.7904 91.4757 16.0623 92.0078 16.4307C92.5458 16.7991 92.9698 17.2728 93.2797 17.8517C93.5896 18.4247 93.7446 19.1118 93.7446 19.9129V29H90.2009V27.1317H90.0957C89.8793 27.5527 89.5899 27.9241 89.2273 28.2457C88.8648 28.5614 88.4291 28.81 87.9204 28.9912C87.4117 29.1667 86.824 29.2544 86.1574 29.2544ZM87.2275 26.6756C87.7771 26.6756 88.2625 26.5674 88.6835 26.3511C89.1045 26.1289 89.4349 25.8306 89.6747 25.4564C89.9144 25.0821 90.0343 24.6582 90.0343 24.1846V22.7548C89.9173 22.8308 89.7565 22.901 89.5519 22.9653C89.3531 23.0238 89.1279 23.0794 88.8765 23.132C88.625 23.1788 88.3736 23.2226 88.1221 23.2636C87.8707 23.2987 87.6426 23.3308 87.438 23.36C86.9994 23.4244 86.6164 23.5267 86.2889 23.667C85.9615 23.8074 85.7071 23.9974 85.5258 24.2372C85.3446 24.4711 85.2539 24.7635 85.2539 25.1143C85.2539 25.623 85.4381 26.0119 85.8065 26.2809C86.1808 26.544 86.6544 26.6756 87.2275 26.6756ZM95.2905 18.4657V15.5273H107.5V18.4657H103.158V29H99.5972V18.4657H95.2905ZM113.335 24.0705L118.186 15.5273H121.87V29H118.309V20.4304L113.476 29H109.765V15.5273H113.335V24.0705ZM124.076 29L124.058 26.0353H124.506C124.821 26.0353 125.093 25.9593 125.321 25.8072C125.555 25.6494 125.748 25.395 125.9 25.0441C126.052 24.6933 126.172 24.2284 126.26 23.6495C126.347 23.0647 126.406 22.3455 126.435 21.4918L126.654 15.5273H136.899V29H133.338V18.4657H130.014L129.803 22.5794C129.751 23.708 129.613 24.6787 129.391 25.4915C129.175 26.3043 128.874 26.9709 128.488 27.4913C128.102 28.0059 127.637 28.386 127.093 28.6316C126.549 28.8772 125.918 29 125.198 29H124.076ZM143.366 24.0705L148.217 15.5273H151.901V29H148.339V20.4304L143.506 29H139.796V15.5273H143.366V24.0705ZM160.683 29V11.0364H167.875C169.197 11.0364 170.299 11.2323 171.182 11.624C172.065 12.0158 172.729 12.5596 173.173 13.2555C173.618 13.9455 173.84 14.7408 173.84 15.6413C173.84 16.343 173.699 16.9599 173.419 17.492C173.138 18.0183 172.752 18.451 172.261 18.7902C171.776 19.1235 171.22 19.3603 170.594 19.5007V19.6761C171.279 19.7053 171.919 19.8983 172.515 20.255C173.118 20.6117 173.606 21.1117 173.98 21.7549C174.354 22.3923 174.541 23.1525 174.541 24.0354C174.541 24.9886 174.305 25.8394 173.831 26.5879C173.363 27.3305 172.67 27.9182 171.752 28.3509C170.834 28.7836 169.703 29 168.358 29H160.683ZM164.481 25.895H167.577C168.635 25.895 169.407 25.6932 169.893 25.2897C170.378 24.8804 170.621 24.3366 170.621 23.6583C170.621 23.1612 170.501 22.7227 170.261 22.3426C170.021 21.9625 169.679 21.6643 169.235 21.4479C168.796 21.2315 168.273 21.1234 167.665 21.1234H164.481V25.895ZM164.481 18.5534H167.296C167.817 18.5534 168.279 18.4627 168.682 18.2815C169.092 18.0943 169.413 17.8312 169.647 17.492C169.887 17.1529 170.007 16.7465 170.007 16.2728C170.007 15.6238 169.776 15.1004 169.314 14.7028C168.858 14.3051 168.209 14.1063 167.367 14.1063H164.481V18.5534ZM179.285 19.6673H183.311C185.094 19.6673 186.486 20.0942 187.486 20.9479C188.486 21.7958 188.986 22.9303 188.986 24.3512C188.986 25.2751 188.76 26.0879 188.31 26.7896C187.86 27.4855 187.211 28.0293 186.363 28.4211C185.515 28.807 184.498 29 183.311 29H176.943V15.5273H180.513V26.0616H183.311C183.936 26.0616 184.451 25.9037 184.854 25.588C185.258 25.2722 185.462 24.8687 185.468 24.3775C185.462 23.8571 185.258 23.4331 184.854 23.1057C184.451 22.7724 183.936 22.6057 183.311 22.6057H179.285V19.6673ZM190.433 29V15.5273H194.169V29H190.433ZM208.357 10.5803L209.497 13.0187C209.117 13.3344 208.696 13.5683 208.234 13.7204C207.772 13.8666 207.22 13.9631 206.576 14.0098C205.939 14.0566 205.161 14.0888 204.243 14.1063C203.202 14.118 202.355 14.2847 201.7 14.6063C201.045 14.9279 200.548 15.4337 200.208 16.1237C199.869 16.8079 199.647 17.7026 199.542 18.8077H199.673C200.077 17.9832 200.644 17.3459 201.375 16.8956C202.112 16.4453 203.021 16.2202 204.103 16.2202C205.249 16.2202 206.252 16.4716 207.112 16.9745C207.977 17.4774 208.649 18.1996 209.129 19.1411C209.608 20.0825 209.848 21.2111 209.848 22.5268C209.848 23.8951 209.579 25.0851 209.041 26.0967C208.509 27.1025 207.752 27.8831 206.769 28.4386C205.787 28.9883 204.618 29.2631 203.261 29.2631C201.898 29.2631 200.723 28.9766 199.735 28.4036C198.752 27.8305 197.992 26.9855 197.454 25.8686C196.922 24.7518 196.656 23.3776 196.656 21.7461V20.6409C196.656 17.3956 197.288 14.9893 198.551 13.4222C199.814 11.855 201.67 11.0598 204.12 11.0364C204.787 11.0247 205.389 11.0217 205.927 11.0276C206.465 11.0334 206.936 11.0071 207.34 10.9486C207.749 10.8902 208.088 10.7674 208.357 10.5803ZM203.278 26.3686C203.852 26.3686 204.343 26.2195 204.752 25.9213C205.167 25.623 205.486 25.1962 205.708 24.6407C205.936 24.0851 206.05 23.4214 206.05 22.6496C206.05 21.8835 205.936 21.2345 205.708 20.7023C205.486 20.1644 205.167 19.755 204.752 19.4744C204.337 19.1937 203.84 19.0533 203.261 19.0533C202.828 19.0533 202.439 19.1323 202.094 19.2902C201.749 19.448 201.454 19.6819 201.208 19.9919C200.969 20.2959 200.782 20.6731 200.647 21.1234C200.518 21.5678 200.454 22.0765 200.454 22.6496C200.454 23.8015 200.703 24.7108 201.2 25.3775C201.703 26.0382 202.395 26.3686 203.278 26.3686ZM212.328 34.0523V15.5273H216.012V17.7903H216.179C216.343 17.4277 216.579 17.0593 216.889 16.6851C217.205 16.305 217.614 15.9892 218.117 15.7378C218.626 15.4805 219.258 15.3518 220.012 15.3518C220.994 15.3518 221.901 15.6091 222.731 16.1237C223.561 16.6325 224.225 17.4014 224.722 18.4306C225.219 19.4539 225.468 20.7374 225.468 22.2812C225.468 23.784 225.225 25.0529 224.74 26.0879C224.26 27.1171 223.605 27.8977 222.775 28.4299C221.95 28.9561 221.026 29.2193 220.003 29.2193C219.278 29.2193 218.661 29.0994 218.152 28.8597C217.649 28.6199 217.237 28.3188 216.916 27.9562C216.594 27.5878 216.348 27.2165 216.179 26.8423H216.065V34.0523H212.328ZM215.986 22.2636C215.986 23.0647 216.097 23.7635 216.319 24.36C216.541 24.9564 216.863 25.4213 217.284 25.7546C217.705 26.0821 218.217 26.2458 218.819 26.2458C219.427 26.2458 219.942 26.0792 220.363 25.7458C220.784 25.4067 221.102 24.9389 221.319 24.3424C221.541 23.7401 221.652 23.0472 221.652 22.2636C221.652 21.4859 221.544 20.8018 221.328 20.2112C221.111 19.6205 220.793 19.1586 220.372 18.8253C219.951 18.492 219.433 18.3253 218.819 18.3253C218.211 18.3253 217.696 18.4861 217.275 18.8077C216.86 19.1294 216.541 19.5855 216.319 20.1761C216.097 20.7667 215.986 21.4625 215.986 22.2636ZM234.046 29.2631C232.684 29.2631 231.505 28.9737 230.511 28.3948C229.523 27.81 228.76 26.9972 228.222 25.9564C227.684 24.9096 227.415 23.6963 227.415 22.3163C227.415 20.9245 227.684 19.7083 228.222 18.6674C228.76 17.6207 229.523 16.8079 230.511 16.229C231.505 15.6442 232.684 15.3518 234.046 15.3518C235.408 15.3518 236.584 15.6442 237.572 16.229C238.566 16.8079 239.332 17.6207 239.87 18.6674C240.408 19.7083 240.677 20.9245 240.677 22.3163C240.677 23.6963 240.408 24.9096 239.87 25.9564C239.332 26.9972 238.566 27.81 237.572 28.3948C236.584 28.9737 235.408 29.2631 234.046 29.2631ZM234.064 26.3686C234.683 26.3686 235.201 26.1932 235.616 25.8423C236.031 25.4856 236.344 25.0003 236.555 24.3863C236.771 23.7723 236.879 23.0735 236.879 22.2899C236.879 21.5064 236.771 20.8076 236.555 20.1936C236.344 19.5796 236.031 19.0943 235.616 18.7376C235.201 18.3809 234.683 18.2025 234.064 18.2025C233.438 18.2025 232.912 18.3809 232.485 18.7376C232.064 19.0943 231.745 19.5796 231.529 20.1936C231.318 20.8076 231.213 21.5064 231.213 22.2899C231.213 23.0735 231.318 23.7723 231.529 24.3863C231.745 25.0003 232.064 25.4856 232.485 25.8423C232.912 26.1932 233.438 26.3686 234.064 26.3686ZM249.194 29.2631C247.814 29.2631 246.627 28.9708 245.633 28.386C244.645 27.7954 243.884 26.9768 243.352 25.93C242.826 24.8833 242.563 23.6787 242.563 22.3163C242.563 20.9362 242.829 19.7258 243.361 18.6849C243.899 17.6382 244.662 16.8225 245.65 16.2377C246.639 15.6471 247.814 15.3518 249.176 15.3518C250.352 15.3518 251.381 15.5653 252.264 15.9922C253.147 16.419 253.846 17.0184 254.36 17.7903C254.875 18.5621 255.159 19.4685 255.211 20.5094H251.685C251.586 19.8369 251.323 19.296 250.896 18.8867C250.475 18.4715 249.922 18.2639 249.238 18.2639C248.659 18.2639 248.153 18.4218 247.72 18.7376C247.294 19.0475 246.96 19.5007 246.721 20.0971C246.481 20.6936 246.361 21.4157 246.361 22.2636C246.361 23.1232 246.478 23.8542 246.712 24.4565C246.952 25.0588 247.288 25.5178 247.72 25.8336C248.153 26.1493 248.659 26.3072 249.238 26.3072C249.665 26.3072 250.048 26.2195 250.387 26.0441C250.732 25.8686 251.016 25.6143 251.238 25.281C251.466 24.9418 251.615 24.5354 251.685 24.0618H255.211C255.153 25.0909 254.872 25.9973 254.369 26.7809C253.872 27.5586 253.185 28.1667 252.308 28.6053C251.431 29.0439 250.393 29.2631 249.194 29.2631ZM263.691 29.2631C262.328 29.2631 261.15 28.9737 260.156 28.3948C259.168 27.81 258.405 26.9972 257.867 25.9564C257.329 24.9096 257.06 23.6963 257.06 22.3163C257.06 20.9245 257.329 19.7083 257.867 18.6674C258.405 17.6207 259.168 16.8079 260.156 16.229C261.15 15.6442 262.328 15.3518 263.691 15.3518C265.053 15.3518 266.229 15.6442 267.217 16.229C268.211 16.8079 268.977 17.6207 269.515 18.6674C270.053 19.7083 270.322 20.9245 270.322 22.3163C270.322 23.6963 270.053 24.9096 269.515 25.9564C268.977 26.9972 268.211 27.81 267.217 28.3948C266.229 28.9737 265.053 29.2631 263.691 29.2631ZM263.708 26.3686C264.328 26.3686 264.846 26.1932 265.261 25.8423C265.676 25.4856 265.989 25.0003 266.199 24.3863C266.416 23.7723 266.524 23.0735 266.524 22.2899C266.524 21.5064 266.416 20.8076 266.199 20.1936C265.989 19.5796 265.676 19.0943 265.261 18.7376C264.846 18.3809 264.328 18.2025 263.708 18.2025C263.083 18.2025 262.556 18.3809 262.13 18.7376C261.709 19.0943 261.39 19.5796 261.173 20.1936C260.963 20.8076 260.858 21.5064 260.858 22.2899C260.858 23.0735 260.963 23.7723 261.173 24.3863C261.39 25.0003 261.709 25.4856 262.13 25.8423C262.556 26.1932 263.083 26.3686 263.708 26.3686ZM272.752 29V15.5273H278.497C280.157 15.5273 281.47 15.843 282.435 16.4746C283.4 17.1061 283.882 18.0037 283.882 19.1674C283.882 19.8983 283.61 20.5065 283.067 20.9918C282.523 21.4771 281.768 21.8046 280.804 21.9742C281.611 22.0327 282.298 22.2169 282.865 22.5268C283.438 22.8308 283.874 23.2256 284.172 23.7109C284.476 24.1962 284.628 24.7342 284.628 25.3248C284.628 26.0908 284.423 26.7487 284.014 27.2984C283.61 27.848 283.017 28.2691 282.233 28.5614C281.456 28.8538 280.505 29 279.383 29H272.752ZM276.234 26.202H279.383C279.903 26.202 280.31 26.0792 280.602 25.8336C280.9 25.5821 281.049 25.24 281.049 24.8073C281.049 24.3278 280.9 23.9507 280.602 23.6758C280.31 23.401 279.903 23.2636 279.383 23.2636H276.234V26.202ZM276.234 21.0707H278.576C278.95 21.0707 279.269 21.0181 279.532 20.9129C279.801 20.8018 280.005 20.6439 280.146 20.4392C280.292 20.2345 280.365 19.9919 280.365 19.7112C280.365 19.296 280.198 18.9715 279.865 18.7376C279.532 18.5037 279.076 18.3867 278.497 18.3867H276.234V21.0707ZM308.62 17.3254H304.778C304.708 16.8283 304.564 16.3869 304.348 16.0009C304.132 15.6091 303.854 15.2758 303.515 15.001C303.176 14.7262 302.784 14.5156 302.339 14.3695C301.901 14.2233 301.424 14.1502 300.91 14.1502C299.98 14.1502 299.17 14.3812 298.48 14.8431C297.79 15.2992 297.255 15.9658 296.875 16.843C296.495 17.7143 296.305 18.7727 296.305 20.0182C296.305 21.2988 296.495 22.3747 296.875 23.246C297.261 24.1173 297.799 24.7752 298.489 25.2196C299.179 25.664 299.977 25.8862 300.883 25.8862C301.392 25.8862 301.863 25.8189 302.296 25.6844C302.734 25.55 303.123 25.3541 303.462 25.0968C303.801 24.8336 304.082 24.5149 304.304 24.1407C304.532 23.7665 304.69 23.3396 304.778 22.8601L308.62 22.8776C308.52 23.7021 308.272 24.4974 307.874 25.2634C307.482 26.0236 306.953 26.7048 306.286 27.3071C305.626 27.9036 304.836 28.3772 303.918 28.7281C303.006 29.0731 301.974 29.2456 300.822 29.2456C299.22 29.2456 297.787 28.883 296.524 28.158C295.267 27.4329 294.273 26.3832 293.542 25.0091C292.817 23.6349 292.454 21.9713 292.454 20.0182C292.454 18.0593 292.823 16.3927 293.559 15.0185C294.296 13.6444 295.296 12.5977 296.559 11.8784C297.822 11.1533 299.243 10.7908 300.822 10.7908C301.863 10.7908 302.828 10.937 303.716 11.2293C304.611 11.5217 305.403 11.9486 306.093 12.5099C306.784 13.0655 307.345 13.7467 307.778 14.5537C308.216 15.3606 308.497 16.2845 308.62 17.3254ZM327.851 20.0182C327.851 21.9771 327.479 23.6437 326.737 25.0178C326 26.392 324.994 27.4416 323.719 28.1667C322.451 28.886 321.024 29.2456 319.439 29.2456C317.843 29.2456 316.41 28.883 315.141 28.158C313.872 27.4329 312.869 26.3832 312.133 25.0091C311.396 23.6349 311.027 21.9713 311.027 20.0182C311.027 18.0593 311.396 16.3927 312.133 15.0185C312.869 13.6444 313.872 12.5977 315.141 11.8784C316.41 11.1533 317.843 10.7908 319.439 10.7908C321.024 10.7908 322.451 11.1533 323.719 11.8784C324.994 12.5977 326 13.6444 326.737 15.0185C327.479 16.3927 327.851 18.0593 327.851 20.0182ZM324 20.0182C324 18.7493 323.81 17.6792 323.43 16.8079C323.056 15.9366 322.527 15.2758 321.842 14.8256C321.158 14.3753 320.357 14.1502 319.439 14.1502C318.521 14.1502 317.72 14.3753 317.036 14.8256C316.352 15.2758 315.819 15.9366 315.439 16.8079C315.065 17.6792 314.878 18.7493 314.878 20.0182C314.878 21.2871 315.065 22.3572 315.439 23.2285C315.819 24.0998 316.352 24.7605 317.036 25.2108C317.72 25.6611 318.521 25.8862 319.439 25.8862C320.357 25.8862 321.158 25.6611 321.842 25.2108C322.527 24.7605 323.056 24.0998 323.43 23.2285C323.81 22.3572 324 21.2871 324 20.0182ZM330.559 29V26.2634L336.953 20.3427C337.497 19.8164 337.953 19.3428 338.321 18.9218C338.696 18.5007 338.979 18.0885 339.172 17.685C339.365 17.2757 339.462 16.8342 339.462 16.3605C339.462 15.8343 339.342 15.3811 339.102 15.001C338.862 14.6151 338.535 14.3198 338.12 14.1151C337.705 13.9046 337.234 13.7993 336.708 13.7993C336.158 13.7993 335.678 13.9104 335.269 14.1326C334.86 14.3548 334.544 14.6735 334.322 15.0887C334.1 15.5039 333.988 15.998 333.988 16.5711H330.383C330.383 15.3957 330.65 14.3753 331.182 13.5099C331.714 12.6444 332.459 11.9749 333.418 11.5012C334.377 11.0276 335.483 10.7908 336.734 10.7908C338.02 10.7908 339.14 11.0188 340.093 11.4749C341.052 11.9252 341.798 12.5509 342.33 13.352C342.862 14.1531 343.128 15.0712 343.128 16.1062C343.128 16.7845 342.994 17.454 342.725 18.1148C342.462 18.7756 341.991 19.5094 341.313 20.3164C340.634 21.1175 339.678 22.0794 338.444 23.2022L335.822 25.7722V25.895H343.365V29H330.559ZM350.213 26.544L350.117 27.5089C350.041 28.2808 349.894 29.0497 349.678 29.8157C349.468 30.5876 349.245 31.2864 349.012 31.9121C348.783 32.5378 348.599 33.029 348.459 33.3857H346.038C346.126 33.0406 346.246 32.5582 346.398 31.9384C346.55 31.3244 346.693 30.6344 346.827 29.8684C346.962 29.1023 347.047 28.3217 347.082 27.5264L347.126 26.544H350.213ZM369.44 29L363.668 21.3426H362.37V29H358.572V11.0364H362.37V18.2113H363.133L369.098 11.0364H373.826L366.817 19.3691L374.15 29H369.44ZM387.98 11.0364V14.1677H379.858V29H376.06V11.0364H387.98Z" fill="#177CFF"/>
</svg>
