<svg width="314" height="41" viewBox="0 0 314 41" fill="none" xmlns="http://www.w3.org/2000/svg">
<path d="M35.0722 17.3254H31.2303C31.1602 16.8283 31.0169 16.3869 30.8006 16.0009C30.5842 15.6091 30.3064 15.2758 29.9673 15.001C29.6281 14.7262 29.2363 14.5156 28.7919 14.3695C28.3534 14.2233 27.8768 14.1502 27.3622 14.1502C26.4324 14.1502 25.6226 14.3812 24.9325 14.8431C24.2425 15.2992 23.7075 15.9658 23.3274 16.843C22.9473 17.7143 22.7573 18.7727 22.7573 20.0182C22.7573 21.2988 22.9473 22.3747 23.3274 23.246C23.7133 24.1173 24.2513 24.7752 24.9413 25.2196C25.6313 25.664 26.4295 25.8862 27.3359 25.8862C27.8446 25.8862 28.3153 25.8189 28.7481 25.6844C29.1866 25.55 29.5755 25.3541 29.9146 25.0968C30.2538 24.8336 30.5345 24.5149 30.7567 24.1407C30.9847 23.7665 31.1426 23.3396 31.2303 22.8601L35.0722 22.8776C34.9728 23.7021 34.7242 24.4974 34.3266 25.2634C33.9348 26.0236 33.4056 26.7048 32.739 27.3071C32.0782 27.9036 31.2888 28.3772 30.3708 28.7281C29.4585 29.0731 28.4265 29.2456 27.2745 29.2456C25.6723 29.2456 24.2396 28.883 22.9765 28.158C21.7193 27.4329 20.7252 26.3832 19.9943 25.0091C19.2692 23.6349 18.9067 21.9713 18.9067 20.0182C18.9067 18.0593 19.2751 16.3927 20.0118 15.0185C20.7486 13.6444 21.7486 12.5977 23.0116 11.8784C24.2747 11.1533 25.6957 10.7908 27.2745 10.7908C28.3153 10.7908 29.2802 10.937 30.169 11.2293C31.0637 11.5217 31.856 11.9486 32.546 12.5099C33.2361 13.0655 33.7974 13.7467 34.2301 14.5537C34.6687 15.3606 34.9494 16.2845 35.0722 17.3254ZM43.8128 29.2631C42.4503 29.2631 41.272 28.9737 40.2779 28.3948C39.2897 27.81 38.5266 26.9972 37.9886 25.9564C37.4507 24.9096 37.1817 23.6963 37.1817 22.3163C37.1817 20.9245 37.4507 19.7083 37.9886 18.6674C38.5266 17.6207 39.2897 16.8079 40.2779 16.229C41.272 15.6442 42.4503 15.3518 43.8128 15.3518C45.1753 15.3518 46.3506 15.6442 47.3389 16.229C48.3329 16.8079 49.099 17.6207 49.6369 18.6674C50.1749 19.7083 50.4439 20.9245 50.4439 22.3163C50.4439 23.6963 50.1749 24.9096 49.6369 25.9564C49.099 26.9972 48.3329 27.81 47.3389 28.3948C46.3506 28.9737 45.1753 29.2631 43.8128 29.2631ZM43.8303 26.3686C44.4502 26.3686 44.9677 26.1932 45.3828 25.8423C45.798 25.4856 46.1109 25.0003 46.3214 24.3863C46.5377 23.7723 46.6459 23.0735 46.6459 22.2899C46.6459 21.5064 46.5377 20.8076 46.3214 20.1936C46.1109 19.5796 45.798 19.0943 45.3828 18.7376C44.9677 18.3809 44.4502 18.2025 43.8303 18.2025C43.2046 18.2025 42.6784 18.3809 42.2515 18.7376C41.8305 19.0943 41.5118 19.5796 41.2954 20.1936C41.0849 20.8076 40.9797 21.5064 40.9797 22.2899C40.9797 23.0735 41.0849 23.7723 41.2954 24.3863C41.5118 25.0003 41.8305 25.4856 42.2515 25.8423C42.6784 26.1932 43.2046 26.3686 43.8303 26.3686ZM64.0745 10.5803L65.2148 13.0187C64.8347 13.3344 64.4137 13.5683 63.9517 13.7204C63.4898 13.8666 62.9372 13.9631 62.2939 14.0098C61.6565 14.0566 60.8788 14.0888 59.9608 14.1063C58.9199 14.118 58.072 14.2847 57.4171 14.6063C56.7622 14.9279 56.2651 15.4337 55.926 16.1237C55.5868 16.8079 55.3646 17.7026 55.2593 18.8077H55.3909C55.7944 17.9832 56.3616 17.3459 57.0925 16.8956C57.8293 16.4453 58.7386 16.2202 59.8204 16.2202C60.9665 16.2202 61.9694 16.4716 62.829 16.9745C63.6944 17.4774 64.3669 18.1996 64.8464 19.1411C65.3259 20.0825 65.5656 21.2111 65.5656 22.5268C65.5656 23.8951 65.2966 25.0851 64.7587 26.0967C64.2265 27.1025 63.4693 27.8831 62.4869 28.4386C61.5045 28.9883 60.335 29.2631 58.9784 29.2631C57.6159 29.2631 56.4405 28.9766 55.4523 28.4036C54.4699 27.8305 53.7097 26.9855 53.1718 25.8686C52.6396 24.7518 52.3736 23.3776 52.3736 21.7461V20.6409C52.3736 17.3956 53.0051 14.9893 54.2682 13.4222C55.5313 11.855 57.3878 11.0598 59.838 11.0364C60.5046 11.0247 61.1069 11.0217 61.6449 11.0276C62.1828 11.0334 62.6536 11.0071 63.057 10.9486C63.4664 10.8902 63.8055 10.7674 64.0745 10.5803ZM58.9959 26.3686C59.569 26.3686 60.0602 26.2195 60.4695 25.9213C60.8847 25.623 61.2034 25.1962 61.4256 24.6407C61.6536 24.0851 61.7677 23.4214 61.7677 22.6496C61.7677 21.8835 61.6536 21.2345 61.4256 20.7023C61.2034 20.1644 60.8847 19.755 60.4695 19.4744C60.0543 19.1937 59.5573 19.0533 58.9784 19.0533C58.5457 19.0533 58.1568 19.1323 57.8118 19.2902C57.4668 19.448 57.1715 19.6819 56.9259 19.9919C56.6861 20.2959 56.499 20.6731 56.3645 21.1234C56.2359 21.5678 56.1716 22.0765 56.1716 22.6496C56.1716 23.8015 56.4201 24.7108 56.9171 25.3775C57.42 26.0382 58.1129 26.3686 58.9959 26.3686ZM68.0457 34.0523V15.5273H71.7297V17.7903H71.8963C72.06 17.4277 72.2969 17.0593 72.6068 16.6851C72.9226 16.305 73.3319 15.9892 73.8348 15.7378C74.3435 15.4805 74.975 15.3518 75.7294 15.3518C76.7118 15.3518 77.6181 15.6091 78.4485 16.1237C79.2788 16.6325 79.9425 17.4014 80.4396 18.4306C80.9366 19.4539 81.1851 20.7374 81.1851 22.2812C81.1851 23.784 80.9425 25.0529 80.4571 26.0879C79.9776 27.1171 79.3227 27.8977 78.4923 28.4299C77.6678 28.9561 76.7439 29.2193 75.7206 29.2193C74.9955 29.2193 74.3786 29.0994 73.8699 28.8597C73.367 28.6199 72.9547 28.3188 72.6331 27.9562C72.3115 27.5878 72.0659 27.2165 71.8963 26.8423H71.7823V34.0523H68.0457ZM71.7033 22.2636C71.7033 23.0647 71.8145 23.7635 72.0367 24.36C72.2589 24.9564 72.5805 25.4213 73.0015 25.7546C73.4225 26.0821 73.9342 26.2458 74.5365 26.2458C75.1446 26.2458 75.6592 26.0792 76.0802 25.7458C76.5013 25.4067 76.8199 24.9389 77.0363 24.3424C77.2585 23.7401 77.3696 23.0472 77.3696 22.2636C77.3696 21.4859 77.2614 20.8018 77.0451 20.2112C76.8287 19.6205 76.51 19.1586 76.089 18.8253C75.668 18.492 75.1505 18.3253 74.5365 18.3253C73.9283 18.3253 73.4138 18.4861 72.9927 18.8077C72.5776 19.1294 72.2589 19.5855 72.0367 20.1761C71.8145 20.7667 71.7033 21.4625 71.7033 22.2636ZM87.518 29.2544C86.6584 29.2544 85.8924 29.1053 85.2199 28.807C84.5475 28.503 84.0153 28.0556 83.6236 27.465C83.2376 26.8686 83.0446 26.1259 83.0446 25.2371C83.0446 24.4886 83.1821 23.86 83.4569 23.3513C83.7317 22.8425 84.106 22.4332 84.5796 22.1233C85.0533 21.8134 85.5912 21.5795 86.1935 21.4216C86.8017 21.2637 87.4391 21.1526 88.1057 21.0883C88.8893 21.0064 89.5208 20.9304 90.0003 20.8602C90.4798 20.7842 90.8277 20.6731 91.0441 20.5269C91.2604 20.3807 91.3686 20.1644 91.3686 19.8778V19.8252C91.3686 19.2697 91.1932 18.8399 90.8423 18.5358C90.4973 18.2318 90.0061 18.0797 89.3688 18.0797C88.6963 18.0797 88.1612 18.2288 87.7636 18.5271C87.366 18.8194 87.1028 19.1878 86.9742 19.6322L83.5183 19.3516C83.6937 18.5329 84.0387 17.8254 84.5533 17.2289C85.0679 16.6266 85.7316 16.1647 86.5444 15.843C87.3631 15.5156 88.3104 15.3518 89.3863 15.3518C90.1348 15.3518 90.8511 15.4396 91.5353 15.615C92.2253 15.7904 92.8363 16.0623 93.3685 16.4307C93.9064 16.7991 94.3304 17.2728 94.6403 17.8517C94.9502 18.4247 95.1052 19.1118 95.1052 19.9129V29H91.5616V27.1317H91.4563C91.24 27.5527 90.9505 27.9241 90.588 28.2457C90.2254 28.5614 89.7898 28.81 89.281 28.9912C88.7723 29.1667 88.1846 29.2544 87.518 29.2544ZM88.5881 26.6756C89.1378 26.6756 89.6231 26.5674 90.0441 26.3511C90.4652 26.1289 90.7956 25.8306 91.0353 25.4564C91.2751 25.0821 91.3949 24.6582 91.3949 24.1846V22.7548C91.278 22.8308 91.1172 22.901 90.9125 22.9653C90.7137 23.0238 90.4886 23.0794 90.2371 23.132C89.9857 23.1788 89.7342 23.2226 89.4828 23.2636C89.2313 23.2987 89.0033 23.3308 88.7986 23.36C88.3601 23.4244 87.977 23.5267 87.6496 23.667C87.3221 23.8074 87.0678 23.9974 86.8865 24.2372C86.7052 24.4711 86.6146 24.7635 86.6146 25.1143C86.6146 25.623 86.7988 26.0119 87.1672 26.2809C87.5414 26.544 88.0151 26.6756 88.5881 26.6756ZM97.2147 29L97.1972 26.0353H97.6445C97.9603 26.0353 98.2322 25.9593 98.4602 25.8072C98.6941 25.6494 98.8871 25.395 99.0391 25.0441C99.1912 24.6933 99.311 24.2284 99.3988 23.6495C99.4865 23.0647 99.5449 22.3455 99.5742 21.4918L99.7935 15.5273H110.038V29H106.477V18.4657H103.153L102.942 22.5794C102.89 23.708 102.752 24.6787 102.53 25.4915C102.314 26.3043 102.013 26.9709 101.627 27.4913C101.241 28.0059 100.776 28.386 100.232 28.6316C99.6882 28.8772 99.0567 29 98.3374 29H97.2147ZM116.505 24.0705L121.356 15.5273H125.039V29H121.478V20.4304L116.645 29H112.935V15.5273H116.505V24.0705ZM149.093 11.0364V29H145.338V14.1239H138.076V29H134.322V11.0364H149.093ZM151.849 29L151.831 26.0353H152.279C152.595 26.0353 152.866 25.9593 153.095 25.8072C153.328 25.6494 153.521 25.395 153.673 25.0441C153.825 24.6933 153.945 24.2284 154.033 23.6495C154.121 23.0647 154.179 22.3455 154.208 21.4918L154.428 15.5273H164.673V29H161.111V18.4657H157.787L157.577 22.5794C157.524 23.708 157.387 24.6787 157.164 25.4915C156.948 26.3043 156.647 26.9709 156.261 27.4913C155.875 28.0059 155.41 28.386 154.866 28.6316C154.322 28.8772 153.691 29 152.972 29H151.849ZM171.411 29.2544C170.552 29.2544 169.786 29.1053 169.113 28.807C168.441 28.503 167.909 28.0556 167.517 27.465C167.131 26.8686 166.938 26.1259 166.938 25.2371C166.938 24.4886 167.075 23.86 167.35 23.3513C167.625 22.8425 167.999 22.4332 168.473 22.1233C168.946 21.8134 169.484 21.5795 170.087 21.4216C170.695 21.2637 171.332 21.1526 171.999 21.0883C172.782 21.0064 173.414 20.9304 173.893 20.8602C174.373 20.7842 174.721 20.6731 174.937 20.5269C175.154 20.3807 175.262 20.1644 175.262 19.8778V19.8252C175.262 19.2697 175.086 18.8399 174.736 18.5358C174.391 18.2318 173.899 18.0797 173.262 18.0797C172.589 18.0797 172.054 18.2288 171.657 18.5271C171.259 18.8194 170.996 19.1878 170.867 19.6322L167.411 19.3516C167.587 18.5329 167.932 17.8254 168.446 17.2289C168.961 16.6266 169.625 16.1647 170.438 15.843C171.256 15.5156 172.204 15.3518 173.279 15.3518C174.028 15.3518 174.744 15.4396 175.428 15.615C176.118 15.7904 176.73 16.0623 177.262 16.4307C177.8 16.7991 178.224 17.2728 178.533 17.8517C178.843 18.4247 178.998 19.1118 178.998 19.9129V29H175.455V27.1317H175.35C175.133 27.5527 174.844 27.9241 174.481 28.2457C174.119 28.5614 173.683 28.81 173.174 28.9912C172.665 29.1667 172.078 29.2544 171.411 29.2544ZM172.481 26.6756C173.031 26.6756 173.516 26.5674 173.937 26.3511C174.358 26.1289 174.689 25.8306 174.928 25.4564C175.168 25.0821 175.288 24.6582 175.288 24.1846V22.7548C175.171 22.8308 175.01 22.901 174.806 22.9653C174.607 23.0238 174.382 23.0794 174.13 23.132C173.879 23.1788 173.627 23.2226 173.376 23.2636C173.125 23.2987 172.896 23.3308 172.692 23.36C172.253 23.4244 171.87 23.5267 171.543 23.667C171.215 23.8074 170.961 23.9974 170.78 24.2372C170.598 24.4711 170.508 24.7635 170.508 25.1143C170.508 25.623 170.692 26.0119 171.06 26.2809C171.435 26.544 171.908 26.6756 172.481 26.6756ZM187.985 29.2631C186.605 29.2631 185.417 28.9708 184.423 28.386C183.435 27.7954 182.675 26.9768 182.143 25.93C181.617 24.8833 181.353 23.6787 181.353 22.3163C181.353 20.9362 181.62 19.7258 182.152 18.6849C182.69 17.6382 183.453 16.8225 184.441 16.2377C185.429 15.6471 186.605 15.3518 187.967 15.3518C189.142 15.3518 190.172 15.5653 191.055 15.9922C191.938 16.419 192.636 17.0184 193.151 17.7903C193.665 18.5621 193.949 19.4685 194.002 20.5094H190.476C190.376 19.8369 190.113 19.296 189.686 18.8867C189.265 18.4715 188.713 18.2639 188.028 18.2639C187.45 18.2639 186.944 18.4218 186.511 18.7376C186.084 19.0475 185.751 19.5007 185.511 20.0971C185.271 20.6936 185.151 21.4157 185.151 22.2636C185.151 23.1232 185.268 23.8542 185.502 24.4565C185.742 25.0588 186.078 25.5178 186.511 25.8336C186.944 26.1493 187.45 26.3072 188.028 26.3072C188.455 26.3072 188.838 26.2195 189.177 26.0441C189.522 25.8686 189.806 25.6143 190.028 25.281C190.256 24.9418 190.405 24.5354 190.476 24.0618H194.002C193.943 25.0909 193.663 25.9973 193.16 26.7809C192.663 27.5586 191.976 28.1667 191.098 28.6053C190.221 29.0439 189.183 29.2631 187.985 29.2631ZM195.475 18.4657V15.5273H207.685V18.4657H203.343V29H199.782V18.4657H195.475ZM213.52 24.0705L218.371 15.5273H222.055V29H218.493V20.4304L213.66 29H209.95V15.5273H213.52V24.0705ZM225.05 29V15.5273H228.786V20.755H229.839L233.505 15.5273H237.891L233.128 22.211L237.944 29H233.505L230.181 24.2196H228.786V29H225.05ZM243.364 29.2544C242.505 29.2544 241.739 29.1053 241.066 28.807C240.394 28.503 239.862 28.0556 239.47 27.465C239.084 26.8686 238.891 26.1259 238.891 25.2371C238.891 24.4886 239.028 23.86 239.303 23.3513C239.578 22.8425 239.952 22.4332 240.426 22.1233C240.9 21.8134 241.438 21.5795 242.04 21.4216C242.648 21.2637 243.285 21.1526 243.952 21.0883C244.736 21.0064 245.367 20.9304 245.847 20.8602C246.326 20.7842 246.674 20.6731 246.89 20.5269C247.107 20.3807 247.215 20.1644 247.215 19.8778V19.8252C247.215 19.2697 247.04 18.8399 246.689 18.5358C246.344 18.2318 245.853 18.0797 245.215 18.0797C244.543 18.0797 244.008 18.2288 243.61 18.5271C243.212 18.8194 242.949 19.1878 242.821 19.6322L239.365 19.3516C239.54 18.5329 239.885 17.8254 240.4 17.2289C240.914 16.6266 241.578 16.1647 242.391 15.843C243.209 15.5156 244.157 15.3518 245.233 15.3518C245.981 15.3518 246.697 15.4396 247.382 15.615C248.072 15.7904 248.683 16.0623 249.215 16.4307C249.753 16.7991 250.177 17.2728 250.487 17.8517C250.797 18.4247 250.952 19.1118 250.952 19.9129V29H247.408V27.1317H247.303C247.086 27.5527 246.797 27.9241 246.434 28.2457C246.072 28.5614 245.636 28.81 245.127 28.9912C244.619 29.1667 244.031 29.2544 243.364 29.2544ZM244.435 26.6756C244.984 26.6756 245.47 26.5674 245.891 26.3511C246.312 26.1289 246.642 25.8306 246.882 25.4564C247.121 25.0821 247.241 24.6582 247.241 24.1846V22.7548C247.124 22.8308 246.964 22.901 246.759 22.9653C246.56 23.0238 246.335 23.0794 246.084 23.132C245.832 23.1788 245.581 23.2226 245.329 23.2636C245.078 23.2987 244.85 23.3308 244.645 23.36C244.206 23.4244 243.823 23.5267 243.496 23.667C243.169 23.8074 242.914 23.9974 242.733 24.2372C242.552 24.4711 242.461 24.7635 242.461 25.1143C242.461 25.623 242.645 26.0119 243.014 26.2809C243.388 26.544 243.861 26.6756 244.435 26.6756ZM257.912 26.544L257.815 27.5089C257.739 28.2808 257.593 29.0497 257.377 29.8157C257.166 30.5876 256.944 31.2864 256.71 31.9121C256.482 32.5378 256.298 33.029 256.157 33.3857H253.736C253.824 33.0406 253.944 32.5582 254.096 31.9384C254.248 31.3244 254.391 30.6344 254.526 29.8684C254.66 29.1023 254.745 28.3217 254.78 27.5264L254.824 26.544H257.912ZM277.138 29L271.367 21.3426H270.069V29H266.271V11.0364H270.069V18.2113H270.832L276.796 11.0364H281.524L274.516 19.3691L281.849 29H277.138ZM295.679 11.0364V14.1677H287.556V29H283.758V11.0364H295.679Z" fill="#177CFF"/>
</svg>
