<svg width="932" height="159" viewBox="0 0 932 159" fill="none" xmlns="http://www.w3.org/2000/svg">
<path d="M399.035 5.54688H465.22V38.1568C465.22 48.3354 473.034 56.5843 483.648 56.5843C494.259 56.5843 502.075 48.3354 502.075 38.1568V5.54688H568.283V153.715H502.075V130.318C502.075 120.14 493.825 111.891 483.648 111.891C473.469 111.891 465.22 120.14 465.22 130.318V153.715H399.035V5.54688Z" fill="#177CFF"/>
<path d="M850.057 1.49414C805.605 1.49414 769.739 36.3713 769.739 79.401C769.739 122.431 806.063 157.549 850.057 157.549C894.051 157.549 930.111 122.648 930.111 79.401C930.111 36.1542 894.486 1.49414 850.057 1.49414ZM849.816 98.0456C839.782 98.0456 831.413 89.6761 831.413 79.6423C831.413 69.6085 839.782 61.2388 849.816 61.2388C859.849 61.2388 868.22 69.6085 868.22 79.6423C868.22 89.6761 859.849 98.0456 849.816 98.0456Z" fill="#177CFF"/>
<path d="M328.877 5.30575C321.038 2.82142 312.643 1.4707 303.961 1.4707C295.277 1.4707 286.836 2.82142 278.972 5.30575C246.797 15.4842 223.642 44.8139 223.642 79.4016V153.498H285.317V144.163C285.317 134.009 293.54 125.76 303.695 125.76C313.85 125.76 322.099 134.009 322.099 144.163V153.498H384.014V79.4016C384.014 44.6451 360.883 15.4361 328.877 5.30575ZM303.695 98.0222H303.165C293.3 98.0222 285.34 90.0626 285.317 80.1977C285.317 71.3457 291.322 63.4104 299.981 61.6013C311.582 59.2135 322.099 68.379 322.099 79.6187C322.099 89.7973 313.874 98.0222 303.695 98.0222Z" fill="#177CFF"/>
<path d="M148.312 12.3716C142.982 12.3716 137.844 12.9987 132.9 14.1323V4.9668H81.7902V14.0841C76.8938 12.9746 71.7804 12.3716 66.5464 12.3716C29.7156 12.3716 0 41.2188 0 76.7713C0 112.324 29.7156 141.364 66.5464 141.364C71.7804 141.364 76.8698 140.737 81.7902 139.603V153.11H132.876V139.603C137.844 140.737 143.006 141.364 148.312 141.364C184.758 141.364 214.665 112.324 214.665 76.7713C214.665 41.2188 184.951 12.3716 148.312 12.3716ZM69.4891 95.3677H68.9585C59.0934 95.3677 51.1339 87.4083 51.1098 77.5432C51.1098 77.4468 51.1098 77.3503 51.1339 77.2538C51.1098 77.1574 51.1098 77.0609 51.1098 76.9644C51.1098 76.0477 51.1821 75.1553 51.3752 74.2871C51.3992 73.9975 51.4717 73.6841 51.5681 73.3946C53.1118 66.3035 58.4904 60.4423 65.7746 58.9468C77.3763 56.5591 87.8924 65.7003 87.8924 76.9403C87.8924 87.1187 79.6676 95.3677 69.4891 95.3677ZM163.291 78.6527C162.446 88.0352 154.56 95.3677 144.984 95.3677H144.429C134.588 95.3677 126.605 87.4083 126.581 77.5432C126.581 68.6912 132.586 60.7317 141.27 58.9468C152.34 56.6795 162.423 64.8803 163.314 75.3966C163.363 75.9031 163.388 76.4096 163.388 76.9403C163.388 77.5191 163.363 78.0979 163.291 78.6527Z" fill="#177CFF"/>
<path d="M747.956 97.9989V5.30664H619.857L596.437 97.9989H583.29V153.474H762.307V97.9989H747.956ZM672.799 98.0472C662.766 98.0472 654.395 89.6777 654.395 79.6437C654.395 69.6099 662.766 61.2404 672.799 61.2404C682.833 61.2404 691.202 69.6099 691.202 79.6437C691.202 89.6777 682.833 98.0472 672.799 98.0472Z" fill="#177CFF"/>
</svg>
