<svg width="1134" height="169" viewBox="0 0 1134 169" fill="none" xmlns="http://www.w3.org/2000/svg">
<path d="M39.8753 24.4112V65H29.0146V33.1315H15.3001V65H4.4394V24.4112H39.8753ZM86.2462 44.7056C86.2462 49.2243 85.3675 53.0361 83.6103 56.141C81.853 59.2327 79.4814 61.578 76.4953 63.1767C73.5093 64.7622 70.1798 65.5549 66.5067 65.5549C62.8072 65.5549 59.4644 64.7556 56.4784 63.1569C53.5056 61.5449 51.1406 59.1931 49.3833 56.1014C47.6393 52.9965 46.7672 49.1979 46.7672 44.7056C46.7672 40.187 47.6393 36.3818 49.3833 33.29C51.1406 30.1851 53.5056 27.8399 56.4784 26.2544C59.4644 24.6557 62.8072 23.8563 66.5067 23.8563C70.1798 23.8563 73.5093 24.6557 76.4953 26.2544C79.4814 27.8399 81.853 30.1851 83.6103 33.29C85.3675 36.3818 86.2462 40.187 86.2462 44.7056ZM74.9098 44.7056C74.9098 42.2745 74.5861 40.2266 73.9387 38.5618C73.3045 36.8838 72.3598 35.6154 71.1046 34.7566C69.8627 33.8846 68.33 33.4486 66.5067 33.4486C64.6834 33.4486 63.1441 33.8846 61.8889 34.7566C60.647 35.6154 59.7023 36.8838 59.0549 38.5618C58.4207 40.2266 58.1036 42.2745 58.1036 44.7056C58.1036 47.1367 58.4207 49.1913 59.0549 50.8692C59.7023 52.534 60.647 53.8024 61.8889 54.6744C63.1441 55.5333 64.6834 55.9627 66.5067 55.9627C68.33 55.9627 69.8627 55.5333 71.1046 54.6744C72.3598 53.8024 73.3045 52.534 73.9387 50.8692C74.5861 49.1913 74.9098 47.1367 74.9098 44.7056ZM89.9968 65V56.5176L91.1067 56.359C92.4544 56.1476 93.5708 55.5663 94.4561 54.615C95.3545 53.6505 96.0416 52.1244 96.5172 50.0369C97.0061 47.9361 97.3166 45.0756 97.4487 41.4554L98.0829 24.4112H127.494V65H116.871V32.9729H108.23L107.596 45.7362C107.358 50.4663 106.724 54.2384 105.693 57.0527C104.663 59.8669 103.097 61.8951 100.996 63.137C98.8955 64.379 96.1274 65 92.6922 65H89.9968ZM139.687 38.0465H148.09C151.513 38.0465 154.499 38.5948 157.049 39.6915C159.612 40.7881 161.6 42.334 163.014 44.3291C164.441 46.3242 165.148 48.6694 165.135 51.3647C165.148 54.0601 164.441 56.4317 163.014 58.4796C161.6 60.5276 159.612 62.1263 157.049 63.2758C154.499 64.4253 151.513 65 148.09 65H132.949V24.4112H143.968V56.359H148.09C149.425 56.359 150.541 56.141 151.44 55.705C152.352 55.269 153.039 54.6678 153.501 53.9015C153.977 53.1352 154.208 52.2632 154.195 51.2854C154.208 49.8981 153.693 48.7486 152.649 47.837C151.605 46.9121 150.086 46.4497 148.09 46.4497H139.687V38.0465ZM187.341 65.5549C184.144 65.5549 181.303 65.0066 178.819 63.91C176.349 62.8001 174.406 61.2741 172.993 59.3318C171.579 57.3896 170.866 55.1567 170.852 52.6331H181.951C181.964 53.4126 182.202 54.1129 182.664 54.7339C183.14 55.3417 183.787 55.8173 184.606 56.1608C185.426 56.5044 186.364 56.6761 187.421 56.6761C188.438 56.6761 189.337 56.4978 190.116 56.141C190.896 55.7711 191.503 55.2624 191.939 54.615C192.375 53.9676 192.587 53.2277 192.574 52.3953C192.587 51.5761 192.336 50.8494 191.821 50.2152C191.318 49.581 190.612 49.0856 189.7 48.7288C188.788 48.3721 187.738 48.1937 186.549 48.1937H182.426V40.5833H186.549C187.645 40.5833 188.61 40.405 189.442 40.0482C190.288 39.6915 190.942 39.196 191.404 38.5618C191.88 37.9276 192.111 37.2009 192.098 36.3818C192.111 35.589 191.92 34.8887 191.523 34.281C191.127 33.6732 190.572 33.1975 189.858 32.854C189.158 32.5105 188.346 32.3387 187.421 32.3387C186.417 32.3387 185.518 32.5171 184.725 32.8738C183.946 33.2306 183.331 33.726 182.882 34.3602C182.433 34.9944 182.202 35.7211 182.189 36.5403H171.645C171.658 34.0564 172.339 31.8631 173.686 29.9605C175.047 28.0579 176.91 26.5649 179.275 25.4815C181.64 24.398 184.355 23.8563 187.421 23.8563C190.42 23.8563 193.069 24.365 195.368 25.3824C197.68 26.3997 199.484 27.8002 200.779 29.5839C202.087 31.3544 202.734 33.3825 202.721 35.6683C202.747 37.9408 201.968 39.8038 200.382 41.2572C198.81 42.7105 196.815 43.5693 194.397 43.8336V44.1507C197.674 44.5074 200.138 45.5116 201.789 47.1631C203.441 48.8015 204.253 50.8626 204.227 53.3466C204.24 55.7248 203.527 57.8322 202.087 59.6688C200.66 61.5053 198.671 62.9455 196.121 63.9892C193.584 65.033 190.658 65.5549 187.341 65.5549ZM248.388 44.7056C248.388 49.2243 247.509 53.0361 245.752 56.141C243.995 59.2327 241.623 61.578 238.637 63.1767C235.651 64.7622 232.322 65.5549 228.649 65.5549C224.949 65.5549 221.606 64.7556 218.62 63.1569C215.648 61.5449 213.283 59.1931 211.525 56.1014C209.781 52.9965 208.909 49.1979 208.909 44.7056C208.909 40.187 209.781 36.3818 211.525 33.29C213.283 30.1851 215.648 27.8399 218.62 26.2544C221.606 24.6557 224.949 23.8563 228.649 23.8563C232.322 23.8563 235.651 24.6557 238.637 26.2544C241.623 27.8399 243.995 30.1851 245.752 33.29C247.509 36.3818 248.388 40.187 248.388 44.7056ZM237.052 44.7056C237.052 42.2745 236.728 40.2266 236.081 38.5618C235.446 36.8838 234.502 35.6154 233.247 34.7566C232.005 33.8846 230.472 33.4486 228.649 33.4486C226.825 33.4486 225.286 33.8846 224.031 34.7566C222.789 35.6154 221.844 36.8838 221.197 38.5618C220.563 40.2266 220.246 42.2745 220.246 44.7056C220.246 47.1367 220.563 49.1913 221.197 50.8692C221.844 52.534 222.789 53.8024 224.031 54.6744C225.286 55.5333 226.825 55.9627 228.649 55.9627C230.472 55.9627 232.005 55.5333 233.247 54.6744C234.502 53.8024 235.446 52.534 236.081 50.8692C236.728 49.1913 237.052 47.1367 237.052 44.7056ZM253.486 65V24.4112H271.086C274.177 24.4112 276.774 24.8274 278.874 25.6598C280.988 26.4922 282.58 27.6681 283.651 29.1876C284.734 30.707 285.276 32.4973 285.276 34.5584C285.276 36.0514 284.945 37.4123 284.285 38.6411C283.637 39.8699 282.726 40.9004 281.55 41.7328C280.374 42.552 279 43.1201 277.428 43.4372V43.8336C279.172 43.8997 280.757 44.3423 282.184 45.1615C283.611 45.9674 284.747 47.0839 285.593 48.5108C286.438 49.9246 286.861 51.5893 286.861 53.5051C286.861 55.7248 286.28 57.7001 285.117 59.4309C283.968 61.1618 282.329 62.5227 280.202 63.5136C278.075 64.5045 275.538 65 272.592 65H253.486ZM264.506 56.2005H269.659C271.508 56.2005 272.896 55.857 273.821 55.1699C274.745 54.4696 275.208 53.4391 275.208 52.0782C275.208 51.1269 274.99 50.3209 274.554 49.6603C274.118 48.9997 273.497 48.4976 272.691 48.1541C271.898 47.8106 270.94 47.6388 269.817 47.6388H264.506V56.2005ZM264.506 40.8212H269.024C269.989 40.8212 270.841 40.6692 271.581 40.3653C272.321 40.0614 272.896 39.6254 273.305 39.0573C273.728 38.4759 273.939 37.7691 273.939 36.9367C273.939 35.6815 273.49 34.7236 272.592 34.063C271.693 33.3891 270.557 33.0522 269.183 33.0522H264.506V40.8212ZM301.309 65H289.418L302.815 24.4112H317.878L331.275 65H319.384L310.505 35.589H310.188L301.309 65ZM299.089 48.9865H321.445V57.2311H299.089V48.9865ZM328.951 33.29V24.4112H364.229V33.29H352.02V65H341.16V33.29H328.951ZM368.376 65V24.4112H397.628V33.29H379.395V40.2662H396.122V49.145H379.395V56.1212H397.549V65H368.376ZM401.745 65V56.5176L402.855 56.359C404.203 56.1476 405.319 55.5663 406.205 54.615C407.103 53.6505 407.79 52.1244 408.266 50.0369C408.755 47.9361 409.065 45.0756 409.197 41.4554L409.831 24.4112H439.242V65H428.62V32.9729H419.979L419.344 45.7362C419.107 50.4663 418.472 54.2384 417.442 57.0527C416.411 59.8669 414.846 61.8951 412.745 63.137C410.644 64.379 407.876 65 404.441 65H401.745ZM444.46 24.4112H455.479V45.6569H455.796L470.224 24.4112H479.579V65H468.559V43.675H468.322L453.656 65H444.46V24.4112Z" fill="#177CFF"/>
<rect y="79" width="436" height="66" rx="33" fill="#177CFF"/>
<path d="M67.8756 91.9109V132.5H57.0149V100.631H43.3002V132.5H32.4394V91.9109H67.8756ZM113.689 112.205C113.689 116.724 112.81 120.536 111.053 123.641C109.296 126.733 106.924 129.078 103.938 130.677C100.952 132.262 97.6222 133.055 93.9491 133.055C90.2496 133.055 86.9068 132.256 83.9208 130.657C80.948 129.045 78.5829 126.693 76.8256 123.601C75.0816 120.496 74.2095 116.698 74.2095 112.205C74.2095 107.687 75.0816 103.882 76.8256 100.79C78.5829 97.6848 80.948 95.3396 83.9208 93.7541C86.9068 92.1553 90.2496 91.356 93.9491 91.356C97.6222 91.356 100.952 92.1553 103.938 93.7541C106.924 95.3396 109.296 97.6848 111.053 100.79C112.81 103.882 113.689 107.687 113.689 112.205ZM102.352 112.205C102.352 109.774 102.029 107.726 101.381 106.062C100.747 104.384 99.8023 103.115 98.5471 102.256C97.3051 101.384 95.7725 100.948 93.9491 100.948C92.1258 100.948 90.5865 101.384 89.3313 102.256C88.0894 103.115 87.1447 104.384 86.4972 106.062C85.863 107.726 85.5459 109.774 85.5459 112.205C85.5459 114.637 85.863 116.691 86.4972 118.369C87.1447 120.034 88.0894 121.302 89.3313 122.174C90.5865 123.033 92.1258 123.463 93.9491 123.463C95.7725 123.463 97.3051 123.033 98.5471 122.174C99.8023 121.302 100.747 120.034 101.381 118.369C102.029 116.691 102.352 114.637 102.352 112.205ZM166.049 91.9109V132.5H155.188V100.631H141.473V132.5H130.613V91.9109H166.049ZM172.541 132.5V91.9109H201.794V100.79H183.561V107.766H200.288V116.645H183.561V123.621H201.715V132.5H172.541ZM206.701 132.5V91.9109H224.221C227.233 91.9109 229.869 92.5055 232.129 93.6946C234.388 94.8837 236.145 96.5551 237.4 98.7088C238.656 100.862 239.283 103.379 239.283 106.26C239.283 109.167 238.636 111.684 237.341 113.811C236.059 115.938 234.256 117.576 231.93 118.726C229.618 119.875 226.916 120.45 223.825 120.45H213.36V111.888H221.605C222.9 111.888 224.003 111.664 224.915 111.215C225.839 110.752 226.546 110.098 227.035 109.252C227.537 108.407 227.788 107.409 227.788 106.26C227.788 105.097 227.537 104.106 227.035 103.287C226.546 102.455 225.839 101.82 224.915 101.384C224.003 100.935 222.9 100.71 221.605 100.71H217.72V132.5H206.701ZM242.768 91.9109H253.788V113.157H254.105L268.533 91.9109H277.887V132.5H266.868V111.175H266.63L251.964 132.5H242.768V91.9109ZM321.862 112.205C321.862 116.724 320.984 120.536 319.226 123.641C317.469 126.733 315.097 129.078 312.111 130.677C309.125 132.262 305.796 133.055 302.123 133.055C298.423 133.055 295.08 132.256 292.094 130.657C289.121 129.045 286.756 126.693 284.999 123.601C283.255 120.496 282.383 116.698 282.383 112.205C282.383 107.687 283.255 103.882 284.999 100.79C286.756 97.6848 289.121 95.3396 292.094 93.7541C295.08 92.1553 298.423 91.356 302.123 91.356C305.796 91.356 309.125 92.1553 312.111 93.7541C315.097 95.3396 317.469 97.6848 319.226 100.79C320.984 103.882 321.862 107.687 321.862 112.205ZM310.526 112.205C310.526 109.774 310.202 107.726 309.555 106.062C308.921 104.384 307.976 103.115 306.721 102.256C305.479 101.384 303.946 100.948 302.123 100.948C300.299 100.948 298.76 101.384 297.505 102.256C296.263 103.115 295.318 104.384 294.671 106.062C294.037 107.726 293.719 109.774 293.719 112.205C293.719 114.637 294.037 116.691 294.671 118.369C295.318 120.034 296.263 121.302 297.505 122.174C298.76 123.033 300.299 123.463 302.123 123.463C303.946 123.463 305.479 123.033 306.721 122.174C307.976 121.302 308.921 120.034 309.555 118.369C310.202 116.691 310.526 114.637 310.526 112.205ZM325.055 142.251V124.018H327.909C328.86 123.436 329.719 122.617 330.485 121.56C331.265 120.503 331.925 118.99 332.467 117.021C333.022 115.053 333.432 112.417 333.696 109.114L335.044 91.9109H363.741V124.018H368.022V142.251H357.399V132.5H335.678V142.251H325.055ZM340.514 124.018H353.118V100.79H344.953L344.319 109.114C344.134 111.598 343.85 113.771 343.467 115.634C343.097 117.484 342.654 119.096 342.139 120.47C341.637 121.831 341.095 123.013 340.514 124.018ZM377.056 133.055V124.493H379.038C380.201 124.493 381.119 124.401 381.793 124.216C382.48 124.018 383.009 123.674 383.379 123.185C383.762 122.683 384.086 121.983 384.35 121.084L384.746 119.895L369.525 91.9109H380.782L389.265 108.4L395.766 91.9109H406.864L392.912 123.621C392.145 125.286 391.234 126.838 390.177 128.279C389.12 129.706 387.805 130.862 386.233 131.747C384.66 132.619 382.711 133.055 380.386 133.055H377.056Z" fill="white"/>
</svg>
