<svg width="813" height="169" viewBox="0 0 813 169" fill="none" xmlns="http://www.w3.org/2000/svg">
<path d="M40.5095 39.632H29.3317C29.2524 38.7072 29.041 37.8682 28.6975 37.115C28.3672 36.3619 27.9048 35.7145 27.3102 35.1728C26.7289 34.6179 26.022 34.1951 25.1896 33.9044C24.3572 33.6005 23.4125 33.4486 22.3555 33.4486C20.5058 33.4486 18.9401 33.8978 17.6585 34.7963C16.3901 35.6947 15.4256 36.9829 14.765 38.6609C14.1175 40.3389 13.7938 42.3538 13.7938 44.7056C13.7938 47.1896 14.1241 49.2705 14.7848 50.9485C15.4586 52.6133 16.4297 53.8685 17.6981 54.7141C18.9665 55.5465 20.4926 55.9627 22.2763 55.9627C23.2936 55.9627 24.2053 55.8371 25.0112 55.5861C25.8172 55.3219 26.5175 54.9453 27.112 54.4564C27.7066 53.9676 28.1888 53.3796 28.5588 52.6926C28.942 51.9923 29.1996 51.2062 29.3317 50.3341L40.5095 50.4134C40.3774 52.131 39.8951 53.8817 39.0627 55.6654C38.2303 57.4359 37.0478 59.0742 35.5152 60.5804C33.9957 62.0734 32.1129 63.2758 29.8668 64.1874C27.6207 65.0991 25.0112 65.5549 22.0384 65.5549C18.3125 65.5549 14.9697 64.7556 12.0102 63.1569C9.06377 61.5581 6.73176 59.2063 5.01414 56.1014C3.30973 52.9965 2.45752 49.1979 2.45752 44.7056C2.45752 40.187 3.32955 36.3818 5.07359 33.29C6.81764 30.1851 9.16947 27.8399 12.1291 26.2544C15.0887 24.6557 18.3918 23.8563 22.0384 23.8563C24.6016 23.8563 26.9601 24.2064 29.1137 24.9067C31.2673 25.607 33.1567 26.6309 34.7819 27.9786C36.407 29.3131 37.715 30.958 38.706 32.9135C39.6969 34.8689 40.2981 37.1084 40.5095 39.632ZM45.5088 65V24.4112H74.0477V33.29H56.528V38.0465H60.6503C64.0591 38.0465 67.0385 38.5948 69.5885 39.6915C72.1517 40.7881 74.1402 42.334 75.554 44.3291C76.9809 46.3242 77.6944 48.6694 77.6944 51.3647C77.6944 54.0601 76.9809 56.4317 75.554 58.4796C74.1402 60.5276 72.1517 62.1263 69.5885 63.2758C67.0385 64.4253 64.0591 65 60.6503 65H45.5088ZM56.528 56.359H60.6503C61.9715 56.359 63.0814 56.141 63.9798 55.705C64.8915 55.269 65.5785 54.6678 66.041 53.9015C66.5166 53.1352 66.7544 52.2632 66.7544 51.2854C66.7544 49.8981 66.2325 48.7486 65.1888 47.837C64.145 46.9121 62.6321 46.4497 60.6503 46.4497H56.528V56.359ZM120.909 44.7056C120.909 49.2243 120.03 53.0361 118.273 56.141C116.516 59.2327 114.144 61.578 111.158 63.1767C108.172 64.7622 104.843 65.5549 101.17 65.5549C97.4702 65.5549 94.1274 64.7556 91.1414 63.1569C88.1686 61.5449 85.8035 59.1931 84.0463 56.1014C82.3022 52.9965 81.4302 49.1979 81.4302 44.7056C81.4302 40.187 82.3022 36.3818 84.0463 33.29C85.8035 30.1851 88.1686 27.8399 91.1414 26.2544C94.1274 24.6557 97.4702 23.8563 101.17 23.8563C104.843 23.8563 108.172 24.6557 111.158 26.2544C114.144 27.8399 116.516 30.1851 118.273 33.29C120.03 36.3818 120.909 40.187 120.909 44.7056ZM109.573 44.7056C109.573 42.2745 109.249 40.2266 108.602 38.5618C107.967 36.8838 107.023 35.6154 105.768 34.7566C104.526 33.8846 102.993 33.4486 101.17 33.4486C99.3463 33.4486 97.8071 33.8846 96.5519 34.7566C95.3099 35.6154 94.3652 36.8838 93.7178 38.5618C93.0836 40.2266 92.7665 42.2745 92.7665 44.7056C92.7665 47.1367 93.0836 49.1913 93.7178 50.8692C94.3652 52.534 95.3099 53.8024 96.5519 54.6744C97.8071 55.5333 99.3463 55.9627 101.17 55.9627C102.993 55.9627 104.526 55.5333 105.768 54.6744C107.023 53.8024 107.967 52.534 108.602 50.8692C109.249 49.1913 109.573 47.1367 109.573 44.7056ZM126.007 65V24.4112H143.527C146.54 24.4112 149.176 25.0058 151.435 26.1949C153.694 27.3841 155.452 29.0554 156.707 31.2091C157.962 33.3627 158.589 35.8797 158.589 38.76C158.589 41.6667 157.942 44.1837 156.647 46.3109C155.366 48.4381 153.562 50.0765 151.237 51.226C148.925 52.3755 146.223 52.9502 143.131 52.9502H132.667V44.3885H140.911C142.206 44.3885 143.309 44.1639 144.221 43.7147C145.146 43.2522 145.853 42.5982 146.341 41.7526C146.844 40.907 147.095 39.9095 147.095 38.76C147.095 37.5973 146.844 36.6064 146.341 35.7872C145.853 34.9548 145.146 34.3206 144.221 33.8846C143.309 33.4354 142.206 33.2108 140.911 33.2108H137.027V65H126.007ZM169.609 38.0465H178.012C181.434 38.0465 184.42 38.5948 186.97 39.6915C189.533 40.7881 191.522 42.334 192.935 44.3291C194.362 46.3242 195.069 48.6694 195.056 51.3647C195.069 54.0601 194.362 56.4317 192.935 58.4796C191.522 60.5276 189.533 62.1263 186.97 63.2758C184.42 64.4253 181.434 65 178.012 65H162.87V24.4112H173.89V56.359H178.012C179.346 56.359 180.463 56.141 181.361 55.705C182.273 55.269 182.96 54.6678 183.422 53.9015C183.898 53.1352 184.129 52.2632 184.116 51.2854C184.129 49.8981 183.614 48.7486 182.57 47.837C181.526 46.9121 180.007 46.4497 178.012 46.4497H169.609V38.0465ZM208.929 24.4112V65H197.91V24.4112H208.929Z" fill="#177CFF"/>
<rect y="79" width="436" height="66" rx="33" fill="#177CFF"/>
<path d="M67.8756 91.9109V132.5H57.0149V100.631H43.3002V132.5H32.4394V91.9109H67.8756ZM113.689 112.205C113.689 116.724 112.81 120.536 111.053 123.641C109.296 126.733 106.924 129.078 103.938 130.677C100.952 132.262 97.6222 133.055 93.9491 133.055C90.2496 133.055 86.9068 132.256 83.9208 130.657C80.948 129.045 78.5829 126.693 76.8256 123.601C75.0816 120.496 74.2095 116.698 74.2095 112.205C74.2095 107.687 75.0816 103.882 76.8256 100.79C78.5829 97.6848 80.948 95.3396 83.9208 93.7541C86.9068 92.1553 90.2496 91.356 93.9491 91.356C97.6222 91.356 100.952 92.1553 103.938 93.7541C106.924 95.3396 109.296 97.6848 111.053 100.79C112.81 103.882 113.689 107.687 113.689 112.205ZM102.352 112.205C102.352 109.774 102.029 107.726 101.381 106.062C100.747 104.384 99.8023 103.115 98.5471 102.256C97.3051 101.384 95.7725 100.948 93.9491 100.948C92.1258 100.948 90.5865 101.384 89.3313 102.256C88.0894 103.115 87.1447 104.384 86.4972 106.062C85.863 107.726 85.5459 109.774 85.5459 112.205C85.5459 114.637 85.863 116.691 86.4972 118.369C87.1447 120.034 88.0894 121.302 89.3313 122.174C90.5865 123.033 92.1258 123.463 93.9491 123.463C95.7725 123.463 97.3051 123.033 98.5471 122.174C99.8023 121.302 100.747 120.034 101.381 118.369C102.029 116.691 102.352 114.637 102.352 112.205ZM166.049 91.9109V132.5H155.188V100.631H141.473V132.5H130.613V91.9109H166.049ZM172.541 132.5V91.9109H201.794V100.79H183.561V107.766H200.288V116.645H183.561V123.621H201.715V132.5H172.541ZM206.701 132.5V91.9109H224.221C227.233 91.9109 229.869 92.5055 232.129 93.6946C234.388 94.8837 236.145 96.5551 237.4 98.7088C238.656 100.862 239.283 103.379 239.283 106.26C239.283 109.167 238.636 111.684 237.341 113.811C236.059 115.938 234.256 117.576 231.93 118.726C229.618 119.875 226.916 120.45 223.825 120.45H213.36V111.888H221.605C222.9 111.888 224.003 111.664 224.915 111.215C225.839 110.752 226.546 110.098 227.035 109.252C227.537 108.407 227.788 107.409 227.788 106.26C227.788 105.097 227.537 104.106 227.035 103.287C226.546 102.455 225.839 101.82 224.915 101.384C224.003 100.935 222.9 100.71 221.605 100.71H217.72V132.5H206.701ZM242.768 91.9109H253.788V113.157H254.105L268.533 91.9109H277.887V132.5H266.868V111.175H266.63L251.964 132.5H242.768V91.9109ZM321.862 112.205C321.862 116.724 320.984 120.536 319.226 123.641C317.469 126.733 315.097 129.078 312.111 130.677C309.125 132.262 305.796 133.055 302.123 133.055C298.423 133.055 295.08 132.256 292.094 130.657C289.121 129.045 286.756 126.693 284.999 123.601C283.255 120.496 282.383 116.698 282.383 112.205C282.383 107.687 283.255 103.882 284.999 100.79C286.756 97.6848 289.121 95.3396 292.094 93.7541C295.08 92.1553 298.423 91.356 302.123 91.356C305.796 91.356 309.125 92.1553 312.111 93.7541C315.097 95.3396 317.469 97.6848 319.226 100.79C320.984 103.882 321.862 107.687 321.862 112.205ZM310.526 112.205C310.526 109.774 310.202 107.726 309.555 106.062C308.921 104.384 307.976 103.115 306.721 102.256C305.479 101.384 303.946 100.948 302.123 100.948C300.299 100.948 298.76 101.384 297.505 102.256C296.263 103.115 295.318 104.384 294.671 106.062C294.037 107.726 293.719 109.774 293.719 112.205C293.719 114.637 294.037 116.691 294.671 118.369C295.318 120.034 296.263 121.302 297.505 122.174C298.76 123.033 300.299 123.463 302.123 123.463C303.946 123.463 305.479 123.033 306.721 122.174C307.976 121.302 308.921 120.034 309.555 118.369C310.202 116.691 310.526 114.637 310.526 112.205ZM325.055 142.251V124.018H327.909C328.86 123.436 329.719 122.617 330.485 121.56C331.265 120.503 331.925 118.99 332.467 117.021C333.022 115.053 333.432 112.417 333.696 109.114L335.044 91.9109H363.741V124.018H368.022V142.251H357.399V132.5H335.678V142.251H325.055ZM340.514 124.018H353.118V100.79H344.953L344.319 109.114C344.134 111.598 343.85 113.771 343.467 115.634C343.097 117.484 342.654 119.096 342.139 120.47C341.637 121.831 341.095 123.013 340.514 124.018ZM377.056 133.055V124.493H379.038C380.201 124.493 381.119 124.401 381.793 124.216C382.48 124.018 383.009 123.674 383.379 123.185C383.762 122.683 384.086 121.983 384.35 121.084L384.746 119.895L369.525 91.9109H380.782L389.265 108.4L395.766 91.9109H406.864L392.912 123.621C392.145 125.286 391.234 126.838 390.177 128.279C389.12 129.706 387.805 130.862 386.233 131.747C384.66 132.619 382.711 133.055 380.386 133.055H377.056Z" fill="white"/>
</svg>
