<svg width="1423" height="169" viewBox="0 0 1423 169" fill="none" xmlns="http://www.w3.org/2000/svg">
<path d="M2.61607 65V24.4112H20.1358C23.1483 24.4112 25.7842 25.0058 28.0435 26.1949C30.3028 27.3841 32.0601 29.0554 33.3153 31.2091C34.5705 33.3627 35.1981 35.8797 35.1981 38.76C35.1981 41.6667 34.5507 44.1837 33.2558 46.3109C31.9742 48.4381 30.1707 50.0765 27.8453 51.226C25.5331 52.3755 22.8312 52.9502 19.7395 52.9502H9.27517V44.3885H17.5198C18.8146 44.3885 19.9178 44.1639 20.8295 43.7147C21.7544 43.2522 22.4612 42.5982 22.9501 41.7526C23.4522 40.907 23.7032 39.9095 23.7032 38.76C23.7032 37.5973 23.4522 36.6064 22.9501 35.7872C22.4612 34.9548 21.7544 34.3206 20.8295 33.8846C19.9178 33.4354 18.8146 33.2108 17.5198 33.2108H13.6353V65H2.61607ZM39.2411 65V24.4112H68.4935V33.29H50.2603V40.2662H66.9873V49.145H50.2603V56.1212H68.4143V65H39.2411ZM98.9698 65L86.5236 48.5901H84.9778V65H73.9585V24.4112H84.9778V39.7113H86.4047L98.0581 24.4112H111.931L96.4726 43.9129L112.803 65H98.9698ZM152.52 44.7056C152.52 49.2243 151.641 53.0361 149.884 56.141C148.127 59.2327 145.755 61.578 142.769 63.1767C139.783 64.7622 136.454 65.5549 132.781 65.5549C129.081 65.5549 125.738 64.7556 122.752 63.1569C119.779 61.5449 117.414 59.1931 115.657 56.1014C113.913 52.9965 113.041 49.1979 113.041 44.7056C113.041 40.187 113.913 36.3818 115.657 33.29C117.414 30.1851 119.779 27.8399 122.752 26.2544C125.738 24.6557 129.081 23.8563 132.781 23.8563C136.454 23.8563 139.783 24.6557 142.769 26.2544C145.755 27.8399 148.127 30.1851 149.884 33.29C151.641 36.3818 152.52 40.187 152.52 44.7056ZM141.184 44.7056C141.184 42.2745 140.86 40.2266 140.213 38.5618C139.578 36.8838 138.634 35.6154 137.378 34.7566C136.136 33.8846 134.604 33.4486 132.781 33.4486C130.957 33.4486 129.418 33.8846 128.163 34.7566C126.921 35.6154 125.976 36.8838 125.329 38.5618C124.694 40.2266 124.377 42.2745 124.377 44.7056C124.377 47.1367 124.694 49.1913 125.329 50.8692C125.976 52.534 126.921 53.8024 128.163 54.6744C129.418 55.5333 130.957 55.9627 132.781 55.9627C134.604 55.9627 136.136 55.5333 137.378 54.6744C138.634 53.8024 139.578 52.534 140.213 50.8692C140.86 49.1913 141.184 47.1367 141.184 44.7056ZM157.618 65V24.4112H175.138C178.151 24.4112 180.786 25.0058 183.046 26.1949C185.305 27.3841 187.062 29.0554 188.318 31.2091C189.573 33.3627 190.2 35.8797 190.2 38.76C190.2 41.6667 189.553 44.1837 188.258 46.3109C186.976 48.4381 185.173 50.0765 182.848 51.226C180.535 52.3755 177.833 52.9502 174.742 52.9502H164.277V44.3885H172.522C173.817 44.3885 174.92 44.1639 175.832 43.7147C176.757 43.2522 177.464 42.5982 177.952 41.7526C178.454 40.907 178.705 39.9095 178.705 38.76C178.705 37.5973 178.454 36.6064 177.952 35.7872C177.464 34.9548 176.757 34.3206 175.832 33.8846C174.92 33.4354 173.817 33.2108 172.522 33.2108H168.638V65H157.618ZM192.896 74.7508V56.5176H195.75C196.701 55.9362 197.56 55.1171 198.326 54.0601C199.106 53.0031 199.766 51.4902 200.308 49.5216C200.863 47.5529 201.272 44.917 201.537 41.6139L202.884 24.4112H231.582V56.5176H235.863V74.7508H225.24V65H203.519V74.7508H192.896ZM208.354 56.5176H220.959V33.29H212.794L212.159 41.6139C211.975 44.0978 211.69 46.2713 211.307 48.1343C210.937 49.984 210.495 51.5959 209.979 52.97C209.477 54.3309 208.936 55.5134 208.354 56.5176ZM239.589 65V24.4112H250.608V40.2662H265.194V24.4112H276.214V65H265.194V49.145H250.608V65H239.589ZM288.422 38.0465H296.825C300.247 38.0465 303.233 38.5948 305.783 39.6915C308.346 40.7881 310.335 42.334 311.749 44.3291C313.176 46.3242 313.882 48.6694 313.869 51.3647C313.882 54.0601 313.176 56.4317 311.749 58.4796C310.335 60.5276 308.346 62.1263 305.783 63.2758C303.233 64.4253 300.247 65 296.825 65H281.684V24.4112H292.703V56.359H296.825C298.16 56.359 299.276 56.141 300.174 55.705C301.086 55.269 301.773 54.6678 302.236 53.9015C302.711 53.1352 302.942 52.2632 302.929 51.2854C302.942 49.8981 302.427 48.7486 301.383 47.837C300.34 46.9121 298.82 46.4497 296.825 46.4497H288.422V38.0465ZM327.742 24.4112V65H316.723V24.4112H327.742ZM332.95 65V24.4112H362.202V33.29H343.969V40.2662H360.696V49.145H343.969V56.1212H362.123V65H332.95ZM416.679 39.632H405.501C405.422 38.7072 405.21 37.8682 404.867 37.115C404.537 36.3619 404.074 35.7145 403.48 35.1728C402.898 34.6179 402.191 34.1951 401.359 33.9044C400.527 33.6005 399.582 33.4486 398.525 33.4486C396.675 33.4486 395.109 33.8978 393.828 34.7963C392.559 35.6947 391.595 36.9829 390.934 38.6609C390.287 40.3389 389.963 42.3538 389.963 44.7056C389.963 47.1896 390.294 49.2705 390.954 50.9485C391.628 52.6133 392.599 53.8685 393.867 54.7141C395.136 55.5465 396.662 55.9627 398.446 55.9627C399.463 55.9627 400.375 55.8371 401.181 55.5861C401.987 55.3219 402.687 54.9453 403.281 54.4564C403.876 53.9676 404.358 53.3796 404.728 52.6926C405.111 51.9923 405.369 51.2062 405.501 50.3341L416.679 50.4134C416.547 52.131 416.064 53.8817 415.232 55.6654C414.4 57.4359 413.217 59.0742 411.685 60.5804C410.165 62.0734 408.282 63.2758 406.036 64.1874C403.79 65.0991 401.181 65.5549 398.208 65.5549C394.482 65.5549 391.139 64.7556 388.18 63.1569C385.233 61.5581 382.901 59.2063 381.184 56.1014C379.479 52.9965 378.627 49.1979 378.627 44.7056C378.627 40.187 379.499 36.3818 381.243 33.29C382.987 30.1851 385.339 27.8399 388.298 26.2544C391.258 24.6557 394.561 23.8563 398.208 23.8563C400.771 23.8563 403.129 24.2064 405.283 24.9067C407.437 25.607 409.326 26.6309 410.951 27.9786C412.576 29.3131 413.884 30.958 414.875 32.9135C415.866 34.8689 416.467 37.1084 416.679 39.632ZM421.678 65V24.4112H450.217V33.29H432.697V38.0465H436.82C440.228 38.0465 443.208 38.5948 445.758 39.6915C448.321 40.7881 450.31 42.334 451.723 44.3291C453.15 46.3242 453.864 48.6694 453.864 51.3647C453.864 54.0601 453.15 56.4317 451.723 58.4796C450.31 60.5276 448.321 62.1263 445.758 63.2758C443.208 64.4253 440.228 65 436.82 65H421.678ZM432.697 56.359H436.82C438.141 56.359 439.251 56.141 440.149 55.705C441.061 55.269 441.748 54.6678 442.21 53.9015C442.686 53.1352 442.924 52.2632 442.924 51.2854C442.924 49.8981 442.402 48.7486 441.358 47.837C440.314 46.9121 438.802 46.4497 436.82 46.4497H432.697V56.359ZM497.078 44.7056C497.078 49.2243 496.2 53.0361 494.443 56.141C492.685 59.2327 490.314 61.578 487.328 63.1767C484.342 64.7622 481.012 65.5549 477.339 65.5549C473.64 65.5549 470.297 64.7556 467.311 63.1569C464.338 61.5449 461.973 59.1931 460.216 56.1014C458.472 52.9965 457.6 49.1979 457.6 44.7056C457.6 40.187 458.472 36.3818 460.216 33.29C461.973 30.1851 464.338 27.8399 467.311 26.2544C470.297 24.6557 473.64 23.8563 477.339 23.8563C481.012 23.8563 484.342 24.6557 487.328 26.2544C490.314 27.8399 492.685 30.1851 494.443 33.29C496.2 36.3818 497.078 40.187 497.078 44.7056ZM485.742 44.7056C485.742 42.2745 485.418 40.2266 484.771 38.5618C484.137 36.8838 483.192 35.6154 481.937 34.7566C480.695 33.8846 479.162 33.4486 477.339 33.4486C475.516 33.4486 473.976 33.8846 472.721 34.7566C471.479 35.6154 470.535 36.8838 469.887 38.5618C469.253 40.2266 468.936 42.2745 468.936 44.7056C468.936 47.1367 469.253 49.1913 469.887 50.8692C470.535 52.534 471.479 53.8024 472.721 54.6744C473.976 55.5333 475.516 55.9627 477.339 55.9627C479.162 55.9627 480.695 55.5333 481.937 54.6744C483.192 53.8024 484.137 52.534 484.771 50.8692C485.418 49.1913 485.742 47.1367 485.742 44.7056ZM502.177 65V24.4112H519.697C522.709 24.4112 525.345 25.0058 527.604 26.1949C529.864 27.3841 531.621 29.0554 532.876 31.2091C534.131 33.3627 534.759 35.8797 534.759 38.76C534.759 41.6667 534.111 44.1837 532.817 46.3109C531.535 48.4381 529.732 50.0765 527.406 51.226C525.094 52.3755 522.392 52.9502 519.3 52.9502H508.836V44.3885H517.081C518.375 44.3885 519.479 44.1639 520.39 43.7147C521.315 43.2522 522.022 42.5982 522.511 41.7526C523.013 40.907 523.264 39.9095 523.264 38.76C523.264 37.5973 523.013 36.6064 522.511 35.7872C522.022 34.9548 521.315 34.3206 520.39 33.8846C519.479 33.4354 518.375 33.2108 517.081 33.2108H513.196V65H502.177ZM545.778 38.0465H554.181C557.603 38.0465 560.589 38.5948 563.139 39.6915C565.702 40.7881 567.691 42.334 569.105 44.3291C570.532 46.3242 571.239 48.6694 571.225 51.3647C571.239 54.0601 570.532 56.4317 569.105 58.4796C567.691 60.5276 565.702 62.1263 563.139 63.2758C560.589 64.4253 557.603 65 554.181 65H539.04V24.4112H550.059V56.359H554.181C555.516 56.359 556.632 56.141 557.531 55.705C558.442 55.269 559.129 54.6678 559.592 53.9015C560.067 53.1352 560.299 52.2632 560.285 51.2854C560.299 49.8981 559.783 48.7486 558.74 47.837C557.696 46.9121 556.176 46.4497 554.181 46.4497H545.778V38.0465ZM585.098 24.4112V65H574.079V24.4112H585.098Z" fill="#177CFF"/>
<rect y="79" width="625" height="66" rx="33" fill="#177CFF"/>
<path d="M30.6161 132.5V91.9109H48.2153C51.307 91.9109 53.9033 92.3271 56.0041 93.1595C58.1181 93.9919 59.7102 95.1678 60.7805 96.6873C61.8639 98.2067 62.4056 99.997 62.4056 102.058C62.4056 103.551 62.0753 104.912 61.4147 106.141C60.7672 107.37 59.8556 108.4 58.6796 109.233C57.5037 110.052 56.1296 110.62 54.5573 110.937V111.333C56.3014 111.399 57.8869 111.842 59.3139 112.661C60.7408 113.467 61.8771 114.584 62.7227 116.011C63.5683 117.424 63.9911 119.089 63.9911 121.005C63.9911 123.225 63.4098 125.2 62.247 126.931C61.0976 128.662 59.4592 130.023 57.332 131.014C55.2047 132.005 52.6679 132.5 49.7215 132.5H30.6161ZM41.6354 123.7H46.7883C48.6381 123.7 50.0254 123.357 50.9503 122.67C51.8752 121.97 52.3376 120.939 52.3376 119.578C52.3376 118.627 52.1196 117.821 51.6836 117.16C51.2476 116.5 50.6266 115.997 49.8206 115.654C49.0278 115.31 48.0699 115.139 46.9469 115.139H41.6354V123.7ZM41.6354 108.321H46.1541C47.1186 108.321 47.9708 108.169 48.7107 107.865C49.4506 107.561 50.0254 107.125 50.435 106.557C50.8578 105.976 51.0692 105.269 51.0692 104.436C51.0692 103.181 50.62 102.223 49.7215 101.563C48.8231 100.889 47.6868 100.552 46.3127 100.552H41.6354V108.321ZM97.8751 91.9109V132.5H86.8558V102.058H86.6179L77.7391 107.37V98.0151L87.7278 91.9109H97.8751ZM133.572 95.954H144.433C147.842 95.954 150.861 96.6476 153.49 98.0349C156.133 99.4223 158.201 101.391 159.694 103.941C161.2 106.491 161.953 109.51 161.953 112.998C161.953 116.301 161.2 119.162 159.694 121.58C158.201 123.998 156.133 125.867 153.49 127.189C150.861 128.51 147.842 129.17 144.433 129.17H133.572C130.137 129.17 127.092 128.516 124.436 127.208C121.793 125.9 119.719 124.031 118.213 121.6C116.72 119.168 115.973 116.275 115.973 112.919C115.973 109.431 116.733 106.418 118.252 103.882C119.785 101.345 121.873 99.3892 124.515 98.0151C127.171 96.641 130.19 95.954 133.572 95.954ZM133.572 104.991C132.198 104.991 130.93 105.249 129.767 105.764C128.618 106.28 127.693 107.119 126.993 108.281C126.306 109.444 125.962 110.99 125.962 112.919C125.962 114.689 126.319 116.103 127.032 117.16C127.759 118.217 128.697 118.977 129.847 119.439C131.009 119.902 132.251 120.133 133.572 120.133H144.512C145.86 120.133 147.089 119.895 148.199 119.42C149.322 118.931 150.214 118.164 150.874 117.121C151.548 116.064 151.885 114.689 151.885 112.998C151.885 111.069 151.548 109.517 150.874 108.341C150.214 107.165 149.322 106.313 148.199 105.784C147.089 105.256 145.86 104.991 144.512 104.991H133.572ZM144.116 91.1974V134.165H133.81V91.1974H144.116ZM174.461 132.5H162.569L175.967 91.9109H191.029L204.427 132.5H192.535L183.657 103.089H183.339L174.461 132.5ZM172.241 116.486H194.597V124.731H172.241V116.486ZM207.778 132.5V91.9109H218.797V107.766H233.384V91.9109H244.403V132.5H233.384V116.645H218.797V132.5H207.778ZM247.73 142.251V124.018H250.584C251.535 123.436 252.394 122.617 253.16 121.56C253.94 120.503 254.6 118.99 255.142 117.021C255.697 115.053 256.106 112.417 256.371 109.114L257.718 91.9109H286.416V124.018H290.697V142.251H280.074V132.5H258.353V142.251H247.73ZM263.188 124.018H275.793V100.79H267.628L266.994 109.114C266.809 111.598 266.525 113.771 266.141 115.634C265.771 117.484 265.329 119.096 264.814 120.47C264.311 121.831 263.77 123.013 263.188 124.018ZM333.186 112.205C333.186 116.724 332.307 120.536 330.55 123.641C328.792 126.733 326.421 129.078 323.435 130.677C320.449 132.262 317.119 133.055 313.446 133.055C309.746 133.055 306.404 132.256 303.418 130.657C300.445 129.045 298.08 126.693 296.322 123.601C294.578 120.496 293.706 116.698 293.706 112.205C293.706 107.687 294.578 103.882 296.322 100.79C298.08 97.6848 300.445 95.3396 303.418 93.7541C306.404 92.1553 309.746 91.356 313.446 91.356C317.119 91.356 320.449 92.1553 323.435 93.7541C326.421 95.3396 328.792 97.6848 330.55 100.79C332.307 103.882 333.186 107.687 333.186 112.205ZM321.849 112.205C321.849 109.774 321.525 107.726 320.878 106.062C320.244 104.384 319.299 103.115 318.044 102.256C316.802 101.384 315.269 100.948 313.446 100.948C311.623 100.948 310.083 101.384 308.828 102.256C307.586 103.115 306.641 104.384 305.994 106.062C305.36 107.726 305.043 109.774 305.043 112.205C305.043 114.637 305.36 116.691 305.994 118.369C306.641 120.034 307.586 121.302 308.828 122.174C310.083 123.033 311.623 123.463 313.446 123.463C315.269 123.463 316.802 123.033 318.044 122.174C319.299 121.302 320.244 120.034 320.878 118.369C321.525 116.691 321.849 114.637 321.849 112.205ZM364.221 133.055C361.023 133.055 358.182 132.507 355.698 131.41C353.228 130.3 351.285 128.774 349.872 126.832C348.458 124.89 347.744 122.657 347.731 120.133H358.83C358.843 120.913 359.081 121.613 359.543 122.234C360.019 122.842 360.666 123.317 361.486 123.661C362.305 124.004 363.243 124.176 364.3 124.176C365.317 124.176 366.216 123.998 366.995 123.641C367.775 123.271 368.383 122.762 368.819 122.115C369.255 121.467 369.466 120.728 369.453 119.895C369.466 119.076 369.215 118.349 368.7 117.715C368.198 117.081 367.491 116.585 366.579 116.229C365.667 115.872 364.617 115.694 363.428 115.694H359.306V108.083H363.428C364.524 108.083 365.489 107.905 366.321 107.548C367.167 107.191 367.821 106.696 368.283 106.062C368.759 105.427 368.99 104.701 368.977 103.882C368.99 103.089 368.799 102.388 368.402 101.781C368.006 101.173 367.451 100.697 366.738 100.354C366.037 100.01 365.225 99.8385 364.3 99.8385C363.296 99.8385 362.397 100.017 361.604 100.374C360.825 100.73 360.211 101.226 359.761 101.86C359.312 102.494 359.081 103.221 359.068 104.04H348.524C348.537 101.556 349.218 99.3628 350.565 97.4602C351.926 95.5576 353.789 94.0646 356.154 92.9811C358.519 91.8977 361.235 91.356 364.3 91.356C367.299 91.356 369.948 91.8647 372.247 92.882C374.559 93.8994 376.363 95.2999 377.658 97.0836C378.966 98.8541 379.613 100.882 379.6 103.168C379.626 105.441 378.847 107.304 377.261 108.757C375.689 110.21 373.694 111.069 371.276 111.333V111.651C374.553 112.007 377.017 113.011 378.669 114.663C380.32 116.301 381.133 118.363 381.106 120.846C381.119 123.225 380.406 125.332 378.966 127.169C377.539 129.005 375.55 130.445 373 131.489C370.464 132.533 367.537 133.055 364.221 133.055ZM395.933 132.5H384.041L397.439 91.9109H412.501L425.899 132.5H414.007L405.129 103.089H404.811L395.933 132.5ZM393.713 116.486H416.069V124.731H393.713V116.486ZM438.463 142.251V124.018H441.316C442.268 123.436 443.127 122.617 443.893 121.56C444.672 120.503 445.333 118.99 445.875 117.021C446.43 115.053 446.839 112.417 447.104 109.114L448.451 91.9109H477.149V124.018H481.43V142.251H470.807V132.5H449.085V142.251H438.463ZM453.921 124.018H466.526V100.79H458.361L457.727 109.114C457.542 111.598 457.257 113.771 456.874 115.634C456.504 117.484 456.062 119.096 455.546 120.47C455.044 121.831 454.503 123.013 453.921 124.018ZM484.598 132.5V91.9109H513.85V100.79H495.617V107.766H512.344V116.645H495.617V123.621H513.771V132.5H484.598ZM518.757 132.5V91.9109H529.777V107.766H544.363V91.9109H555.383V132.5H544.363V116.645H529.777V132.5H518.757ZM567.033 105.546H575.436C578.858 105.546 581.844 106.095 584.394 107.191C586.958 108.288 588.946 109.834 590.36 111.829C591.787 113.824 592.494 116.169 592.481 118.865C592.494 121.56 591.787 123.932 590.36 125.98C588.946 128.028 586.958 129.626 584.394 130.776C581.844 131.925 578.858 132.5 575.436 132.5H560.295V91.9109H571.314V123.859H575.436C576.771 123.859 577.887 123.641 578.786 123.205C579.697 122.769 580.384 122.168 580.847 121.401C581.323 120.635 581.554 119.763 581.541 118.785C581.554 117.398 581.038 116.249 579.995 115.337C578.951 114.412 577.431 113.95 575.436 113.95H567.033V105.546Z" fill="white"/>
</svg>
