<svg width="1121" height="169" viewBox="0 0 1121 169" fill="none" xmlns="http://www.w3.org/2000/svg">
<path d="M2.61607 24.4112H13.6353V45.6569H13.9524L28.3804 24.4112H37.7349V65H26.7156V43.675H26.4778L11.812 65H2.61607V24.4112ZM41.8373 33.29V24.4112H77.1147V33.29H64.9063V65H54.0457V33.29H41.8373ZM118.675 44.7056C118.675 49.2243 117.796 53.0361 116.039 56.141C114.281 59.2327 111.91 61.578 108.924 63.1767C105.938 64.7622 102.608 65.5549 98.9351 65.5549C95.2356 65.5549 91.8928 64.7556 88.9068 63.1569C85.934 61.5449 83.569 59.1931 81.8117 56.1014C80.0677 52.9965 79.1956 49.1979 79.1956 44.7056C79.1956 40.187 80.0677 36.3818 81.8117 33.29C83.569 30.1851 85.934 27.8399 88.9068 26.2544C91.8928 24.6557 95.2356 23.8563 98.9351 23.8563C102.608 23.8563 105.938 24.6557 108.924 26.2544C111.91 27.8399 114.281 30.1851 116.039 33.29C117.796 36.3818 118.675 40.187 118.675 44.7056ZM107.338 44.7056C107.338 42.2745 107.015 40.2266 106.367 38.5618C105.733 36.8838 104.788 35.6154 103.533 34.7566C102.291 33.8846 100.758 33.4486 98.9351 33.4486C97.1118 33.4486 95.5725 33.8846 94.3173 34.7566C93.0754 35.6154 92.1307 36.8838 91.4832 38.5618C90.849 40.2266 90.5319 42.2745 90.5319 44.7056C90.5319 47.1367 90.849 49.1913 91.4832 50.8692C92.1307 52.534 93.0754 53.8024 94.3173 54.6744C95.5725 55.5333 97.1118 55.9627 98.9351 55.9627C100.758 55.9627 102.291 55.5333 103.533 54.6744C104.788 53.8024 105.733 52.534 106.367 50.8692C107.015 49.1913 107.338 47.1367 107.338 44.7056ZM152.312 24.4112V33.29H134.792V65H123.773V24.4112H152.312ZM156.419 24.4112H167.439V45.6569H167.756L182.184 24.4112H191.538V65H180.519V43.675H180.281L165.615 65H156.419V24.4112ZM245.762 39.632H234.584C234.505 38.7072 234.294 37.8682 233.95 37.115C233.62 36.3619 233.157 35.7145 232.563 35.1728C231.982 34.6179 231.275 34.1951 230.442 33.9044C229.61 33.6005 228.665 33.4486 227.608 33.4486C225.758 33.4486 224.193 33.8978 222.911 34.7963C221.643 35.6947 220.678 36.9829 220.018 38.6609C219.37 40.3389 219.046 42.3538 219.046 44.7056C219.046 47.1896 219.377 49.2705 220.037 50.9485C220.711 52.6133 221.682 53.8685 222.951 54.7141C224.219 55.5465 225.745 55.9627 227.529 55.9627C228.546 55.9627 229.458 55.8371 230.264 55.5861C231.07 55.3219 231.77 54.9453 232.365 54.4564C232.959 53.9676 233.441 53.3796 233.811 52.6926C234.195 51.9923 234.452 51.2062 234.584 50.3341L245.762 50.4134C245.63 52.131 245.148 53.8817 244.315 55.6654C243.483 57.4359 242.3 59.0742 240.768 60.5804C239.248 62.0734 237.366 63.2758 235.119 64.1874C232.873 65.0991 230.264 65.5549 227.291 65.5549C223.565 65.5549 220.222 64.7556 217.263 63.1569C214.316 61.5581 211.984 59.2063 210.267 56.1014C208.562 52.9965 207.71 49.1979 207.71 44.7056C207.71 40.187 208.582 36.3818 210.326 33.29C212.07 30.1851 214.422 27.8399 217.382 26.2544C220.341 24.6557 223.644 23.8563 227.291 23.8563C229.854 23.8563 232.213 24.2064 234.366 24.9067C236.52 25.607 238.409 26.6309 240.035 27.9786C241.66 29.3131 242.968 30.958 243.959 32.9135C244.95 34.8689 245.551 37.1084 245.762 39.632ZM250.761 65V24.4112H279.3V33.29H261.781V38.0465H265.903C269.312 38.0465 272.291 38.5948 274.841 39.6915C277.404 40.7881 279.393 42.334 280.807 44.3291C282.234 46.3242 282.947 48.6694 282.947 51.3647C282.947 54.0601 282.234 56.4317 280.807 58.4796C279.393 60.5276 277.404 62.1263 274.841 63.2758C272.291 64.4253 269.312 65 265.903 65H250.761ZM261.781 56.359H265.903C267.224 56.359 268.334 56.141 269.232 55.705C270.144 55.269 270.831 54.6678 271.294 53.9015C271.769 53.1352 272.007 52.2632 272.007 51.2854C272.007 49.8981 271.485 48.7486 270.441 47.837C269.398 46.9121 267.885 46.4497 265.903 46.4497H261.781V56.359ZM326.162 44.7056C326.162 49.2243 325.283 53.0361 323.526 56.141C321.769 59.2327 319.397 61.578 316.411 63.1767C313.425 64.7622 310.095 65.5549 306.422 65.5549C302.723 65.5549 299.38 64.7556 296.394 63.1569C293.421 61.5449 291.056 59.1931 289.299 56.1014C287.555 52.9965 286.683 49.1979 286.683 44.7056C286.683 40.187 287.555 36.3818 289.299 33.29C291.056 30.1851 293.421 27.8399 296.394 26.2544C299.38 24.6557 302.723 23.8563 306.422 23.8563C310.095 23.8563 313.425 24.6557 316.411 26.2544C319.397 27.8399 321.769 30.1851 323.526 33.29C325.283 36.3818 326.162 40.187 326.162 44.7056ZM314.825 44.7056C314.825 42.2745 314.502 40.2266 313.854 38.5618C313.22 36.8838 312.275 35.6154 311.02 34.7566C309.778 33.8846 308.246 33.4486 306.422 33.4486C304.599 33.4486 303.06 33.8846 301.805 34.7566C300.563 35.6154 299.618 36.8838 298.97 38.5618C298.336 40.2266 298.019 42.2745 298.019 44.7056C298.019 47.1367 298.336 49.1913 298.97 50.8692C299.618 52.534 300.563 53.8024 301.805 54.6744C303.06 55.5333 304.599 55.9627 306.422 55.9627C308.246 55.9627 309.778 55.5333 311.02 54.6744C312.275 53.8024 313.22 52.534 313.854 50.8692C314.502 49.1913 314.825 47.1367 314.825 44.7056ZM331.26 65V24.4112H348.78C351.792 24.4112 354.428 25.0058 356.688 26.1949C358.947 27.3841 360.704 29.0554 361.959 31.2091C363.215 33.3627 363.842 35.8797 363.842 38.76C363.842 41.6667 363.195 44.1837 361.9 46.3109C360.618 48.4381 358.815 50.0765 356.489 51.226C354.177 52.3755 351.475 52.9502 348.384 52.9502H337.919V44.3885H346.164C347.459 44.3885 348.562 44.1639 349.474 43.7147C350.398 43.2522 351.105 42.5982 351.594 41.7526C352.096 40.907 352.347 39.9095 352.347 38.76C352.347 37.5973 352.096 36.6064 351.594 35.7872C351.105 34.9548 350.398 34.3206 349.474 33.8846C348.562 33.4354 347.459 33.2108 346.164 33.2108H342.279V65H331.26ZM373.36 65H361.469L374.866 24.4112H389.929L403.326 65H391.435L382.556 35.589H382.239L373.36 65ZM371.14 48.9865H393.496V57.2311H371.14V48.9865ZM418.354 65V24.4112H435.953C439.044 24.4112 441.641 24.8274 443.741 25.6598C445.855 26.4922 447.447 27.6681 448.518 29.1876C449.601 30.707 450.143 32.4973 450.143 34.5584C450.143 36.0514 449.812 37.4123 449.152 38.6411C448.504 39.8699 447.593 40.9004 446.417 41.7328C445.241 42.552 443.867 43.1201 442.295 43.4372V43.8336C444.039 43.8997 445.624 44.3423 447.051 45.1615C448.478 45.9674 449.614 47.0839 450.46 48.5108C451.305 49.9246 451.728 51.5893 451.728 53.5051C451.728 55.7248 451.147 57.7001 449.984 59.4309C448.835 61.1618 447.196 62.5227 445.069 63.5136C442.942 64.5045 440.405 65 437.459 65H418.354ZM429.373 56.2005H434.526C436.375 56.2005 437.763 55.857 438.688 55.1699C439.612 54.4696 440.075 53.4391 440.075 52.0782C440.075 51.1269 439.857 50.3209 439.421 49.6603C438.985 48.9997 438.364 48.4976 437.558 48.1541C436.765 47.8106 435.807 47.6388 434.684 47.6388H429.373V56.2005ZM429.373 40.8212H433.891C434.856 40.8212 435.708 40.6692 436.448 40.3653C437.188 40.0614 437.763 39.6254 438.172 39.0573C438.595 38.4759 438.806 37.7691 438.806 36.9367C438.806 35.6815 438.357 34.7236 437.459 34.063C436.56 33.3891 435.424 33.0522 434.05 33.0522H429.373V40.8212ZM454.523 33.29V24.4112H489.8V33.29H477.592V65H466.731V33.29H454.523ZM531.36 44.7056C531.36 49.2243 530.481 53.0361 528.724 56.141C526.967 59.2327 524.595 61.578 521.609 63.1767C518.623 64.7622 515.294 65.5549 511.62 65.5549C507.921 65.5549 504.578 64.7556 501.592 63.1569C498.619 61.5449 496.254 59.1931 494.497 56.1014C492.753 52.9965 491.881 49.1979 491.881 44.7056C491.881 40.187 492.753 36.3818 494.497 33.29C496.254 30.1851 498.619 27.8399 501.592 26.2544C504.578 24.6557 507.921 23.8563 511.62 23.8563C515.294 23.8563 518.623 24.6557 521.609 26.2544C524.595 27.8399 526.967 30.1851 528.724 33.29C530.481 36.3818 531.36 40.187 531.36 44.7056ZM520.024 44.7056C520.024 42.2745 519.7 40.2266 519.052 38.5618C518.418 36.8838 517.474 35.6154 516.218 34.7566C514.976 33.8846 513.444 33.4486 511.62 33.4486C509.797 33.4486 508.258 33.8846 507.003 34.7566C505.761 35.6154 504.816 36.8838 504.169 38.5618C503.534 40.2266 503.217 42.2745 503.217 44.7056C503.217 47.1367 503.534 49.1913 504.169 50.8692C504.816 52.534 505.761 53.8024 507.003 54.6744C508.258 55.5333 509.797 55.9627 511.62 55.9627C513.444 55.9627 514.976 55.5333 516.218 54.6744C517.474 53.8024 518.418 52.534 519.052 50.8692C519.7 49.1913 520.024 47.1367 520.024 44.7056ZM536.458 65V24.4112H553.978C556.99 24.4112 559.626 25.0058 561.886 26.1949C564.145 27.3841 565.902 29.0554 567.158 31.2091C568.413 33.3627 569.04 35.8797 569.04 38.76C569.04 41.6667 568.393 44.1837 567.098 46.3109C565.816 48.4381 564.013 50.0765 561.688 51.226C559.375 52.3755 556.673 52.9502 553.582 52.9502H543.117V44.3885H551.362C552.657 44.3885 553.76 44.1639 554.672 43.7147C555.597 43.2522 556.303 42.5982 556.792 41.7526C557.294 40.907 557.545 39.9095 557.545 38.76C557.545 37.5973 557.294 36.6064 556.792 35.7872C556.303 34.9548 555.597 34.3206 554.672 33.8846C553.76 33.4354 552.657 33.2108 551.362 33.2108H547.478V65H536.458ZM610.977 39.632H599.799C599.72 38.7072 599.508 37.8682 599.165 37.115C598.834 36.3619 598.372 35.7145 597.777 35.1728C597.196 34.6179 596.489 34.1951 595.657 33.9044C594.824 33.6005 593.88 33.4486 592.823 33.4486C590.973 33.4486 589.407 33.8978 588.126 34.7963C586.857 35.6947 585.893 36.9829 585.232 38.6609C584.585 40.3389 584.261 42.3538 584.261 44.7056C584.261 47.1896 584.591 49.2705 585.252 50.9485C585.926 52.6133 586.897 53.8685 588.165 54.7141C589.434 55.5465 590.96 55.9627 592.743 55.9627C593.761 55.9627 594.672 55.8371 595.478 55.5861C596.284 55.3219 596.985 54.9453 597.579 54.4564C598.174 53.9676 598.656 53.3796 599.026 52.6926C599.409 51.9923 599.667 51.2062 599.799 50.3341L610.977 50.4134C610.845 52.131 610.362 53.8817 609.53 55.6654C608.698 57.4359 607.515 59.0742 605.982 60.5804C604.463 62.0734 602.58 63.2758 600.334 64.1874C598.088 65.0991 595.478 65.5549 592.506 65.5549C588.78 65.5549 585.437 64.7556 582.477 63.1569C579.531 61.5581 577.199 59.2063 575.481 56.1014C573.777 52.9965 572.925 49.1979 572.925 44.7056C572.925 40.187 573.797 36.3818 575.541 33.29C577.285 30.1851 579.637 27.8399 582.596 26.2544C585.556 24.6557 588.859 23.8563 592.506 23.8563C595.069 23.8563 597.427 24.2064 599.581 24.9067C601.735 25.607 603.624 26.6309 605.249 27.9786C606.874 29.3131 608.182 30.958 609.173 32.9135C610.164 34.8689 610.765 37.1084 610.977 39.632ZM622.952 38.0465H631.355C634.777 38.0465 637.763 38.5948 640.313 39.6915C642.877 40.7881 644.865 42.334 646.279 44.3291C647.706 46.3242 648.413 48.6694 648.399 51.3647C648.413 54.0601 647.706 56.4317 646.279 58.4796C644.865 60.5276 642.877 62.1263 640.313 63.2758C637.763 64.4253 634.777 65 631.355 65H616.214V24.4112H627.233V56.359H631.355C632.69 56.359 633.806 56.141 634.705 55.705C635.616 55.269 636.303 54.6678 636.766 53.9015C637.241 53.1352 637.473 52.2632 637.459 51.2854C637.473 49.8981 636.957 48.7486 635.914 47.837C634.87 46.9121 633.35 46.4497 631.355 46.4497H622.952V38.0465ZM662.273 24.4112V65H651.253V24.4112H662.273ZM667.48 65V24.4112H685C688.012 24.4112 690.648 25.0058 692.907 26.1949C695.167 27.3841 696.924 29.0554 698.179 31.2091C699.434 33.3627 700.062 35.8797 700.062 38.76C700.062 41.6667 699.414 44.1837 698.12 46.3109C696.838 48.4381 695.035 50.0765 692.709 51.226C690.397 52.3755 687.695 52.9502 684.603 52.9502H674.139V44.3885H682.384C683.678 44.3885 684.782 44.1639 685.693 43.7147C686.618 43.2522 687.325 42.5982 687.814 41.7526C688.316 40.907 688.567 39.9095 688.567 38.76C688.567 37.5973 688.316 36.6064 687.814 35.7872C687.325 34.9548 686.618 34.3206 685.693 33.8846C684.782 33.4354 683.678 33.2108 682.384 33.2108H678.499V65H667.48ZM711.081 38.0465H719.484C722.906 38.0465 725.892 38.5948 728.442 39.6915C731.006 40.7881 732.994 42.334 734.408 44.3291C735.835 46.3242 736.542 48.6694 736.528 51.3647C736.542 54.0601 735.835 56.4317 734.408 58.4796C732.994 60.5276 731.006 62.1263 728.442 63.2758C725.892 64.4253 722.906 65 719.484 65H704.343V24.4112H715.362V56.359H719.484C720.819 56.359 721.935 56.141 722.834 55.705C723.745 55.269 724.432 54.6678 724.895 53.9015C725.37 53.1352 725.602 52.2632 725.588 51.2854C725.602 49.8981 725.086 48.7486 724.043 47.837C722.999 46.9121 721.479 46.4497 719.484 46.4497H711.081V38.0465ZM776.334 65H765.315V33.2108H761.431C760.149 33.2108 759.046 33.3891 758.121 33.7459C757.196 34.0894 756.483 34.6311 755.98 35.371C755.492 36.0977 755.247 37.0424 755.247 38.2051C755.247 39.3546 755.492 40.286 755.98 40.9995C756.483 41.713 757.196 42.2349 758.121 42.5652C759.046 42.8823 760.149 43.0408 761.431 43.0408H769.675V51.6025H759.211C756.132 51.6025 753.43 51.0939 751.105 50.0765C748.78 49.0591 746.97 47.5529 745.675 45.5578C744.393 43.5627 743.752 41.1118 743.752 38.2051C743.752 35.3248 744.38 32.854 745.635 30.7929C746.89 28.7317 748.648 27.1528 750.907 26.0562C753.179 24.9596 755.815 24.4112 758.815 24.4112H776.334V65ZM752.552 46.3704H764.285L754.375 65H742.405L752.552 46.3704Z" fill="#177CFF"/>
<rect y="79" width="811" height="66" rx="33" fill="#177CFF"/>
<path d="M55.6275 132.5L43.1813 116.09H41.6354V132.5H30.6161V91.9109H41.6354V107.211H43.0624L54.7159 91.9109H68.5891L53.1304 111.413L69.4611 132.5H55.6275ZM70.5133 132.5V124.018L71.6232 123.859C72.9708 123.648 74.0873 123.066 74.9726 122.115C75.871 121.15 76.5581 119.624 77.0337 117.537C77.5226 115.436 77.8331 112.575 77.9652 108.955L78.5994 91.9109H108.011V132.5H97.3877V100.473H88.7467L88.1125 113.236C87.8747 117.966 87.2405 121.738 86.2099 124.553C85.1793 127.367 83.6136 129.395 81.5128 130.637C79.412 131.879 76.6439 132.5 73.2087 132.5H70.5133ZM123.689 91.9109V132.5H112.67V91.9109H123.689ZM132.33 109.034V117.279H119.012V109.034H132.33ZM168.242 112.205C168.242 116.724 167.363 120.536 165.606 123.641C163.849 126.733 161.477 129.078 158.491 130.677C155.505 132.262 152.176 133.055 148.502 133.055C144.803 133.055 141.46 132.256 138.474 130.657C135.501 129.045 133.136 126.693 131.379 123.601C129.635 120.496 128.763 116.698 128.763 112.205C128.763 107.687 129.635 103.882 131.379 100.79C133.136 97.6848 135.501 95.3396 138.474 93.7541C141.46 92.1553 144.803 91.356 148.502 91.356C152.176 91.356 155.505 92.1553 158.491 93.7541C161.477 95.3396 163.849 97.6848 165.606 100.79C167.363 103.882 168.242 107.687 168.242 112.205ZM156.906 112.205C156.906 109.774 156.582 107.726 155.935 106.062C155.3 104.384 154.356 103.115 153.1 102.256C151.858 101.384 150.326 100.948 148.502 100.948C146.679 100.948 145.14 101.384 143.885 102.256C142.643 103.115 141.698 104.384 141.051 106.062C140.416 107.726 140.099 109.774 140.099 112.205C140.099 114.637 140.416 116.691 141.051 118.369C141.698 120.034 142.643 121.302 143.885 122.174C145.14 123.033 146.679 123.463 148.502 123.463C150.326 123.463 151.858 123.033 153.1 122.174C154.356 121.302 155.3 120.034 155.935 118.369C156.582 116.691 156.906 114.637 156.906 112.205ZM175.23 91.9109H185.853V104.674C185.853 105.943 186.071 106.98 186.507 107.786C186.956 108.592 187.703 109.186 188.746 109.57C189.803 109.953 191.244 110.144 193.067 110.144C193.397 110.144 193.932 110.138 194.672 110.124C195.425 110.098 196.238 110.065 197.11 110.025C197.982 109.973 198.781 109.913 199.508 109.847C200.248 109.768 200.77 109.682 201.074 109.589V117.913C200.73 118.032 200.162 118.138 199.369 118.23C198.577 118.31 197.724 118.382 196.813 118.448C195.914 118.501 195.108 118.547 194.395 118.587C193.681 118.614 193.239 118.627 193.067 118.627C189.5 118.627 186.375 118.118 183.693 117.101C181.011 116.083 178.93 114.544 177.45 112.483C175.97 110.422 175.23 107.819 175.23 104.674V91.9109ZM199.013 91.9109H209.715V132.5H199.013V91.9109ZM216.742 132.5V91.9109H245.995V100.79H227.762V107.766H244.489V116.645H227.762V123.621H245.916V132.5H216.742ZM250.902 132.5V91.9109H268.501C271.593 91.9109 274.189 92.3271 276.29 93.1595C278.404 93.9919 279.996 95.1678 281.066 96.6873C282.15 98.2067 282.692 99.997 282.692 102.058C282.692 103.551 282.361 104.912 281.701 106.141C281.053 107.37 280.142 108.4 278.966 109.233C277.79 110.052 276.416 110.62 274.843 110.937V111.333C276.587 111.399 278.173 111.842 279.6 112.661C281.027 113.467 282.163 114.584 283.009 116.011C283.854 117.424 284.277 119.089 284.277 121.005C284.277 123.225 283.696 125.2 282.533 126.931C281.384 128.662 279.745 130.023 277.618 131.014C275.491 132.005 272.954 132.5 270.008 132.5H250.902ZM261.921 123.7H267.074C268.924 123.7 270.311 123.357 271.236 122.67C272.161 121.97 272.624 120.939 272.624 119.578C272.624 118.627 272.406 117.821 271.97 117.16C271.534 116.5 270.913 115.997 270.107 115.654C269.314 115.31 268.356 115.139 267.233 115.139H261.921V123.7ZM261.921 108.321H266.44C267.405 108.321 268.257 108.169 268.997 107.865C269.737 107.561 270.311 107.125 270.721 106.557C271.144 105.976 271.355 105.269 271.355 104.436C271.355 103.181 270.906 102.223 270.008 101.563C269.109 100.889 267.973 100.552 266.599 100.552H261.921V108.321ZM294.6 105.546H303.003C306.425 105.546 309.411 106.095 311.961 107.191C314.524 108.288 316.513 109.834 317.926 111.829C319.353 113.824 320.06 116.169 320.047 118.865C320.06 121.56 319.353 123.932 317.926 125.98C316.513 128.028 314.524 129.626 311.961 130.776C309.411 131.925 306.425 132.5 303.003 132.5H287.861V91.9109H298.88V123.859H303.003C304.337 123.859 305.454 123.641 306.352 123.205C307.264 122.769 307.951 122.168 308.413 121.401C308.889 120.635 309.12 119.763 309.107 118.785C309.12 117.398 308.605 116.249 307.561 115.337C306.517 114.412 304.998 113.95 303.003 113.95H294.6V105.546ZM333.92 91.9109V132.5H322.901V91.9109H333.92ZM338.57 132.5V91.9109H367.822V100.79H349.589V107.766H366.316V116.645H349.589V123.621H367.743V132.5H338.57ZM420.549 91.9109V132.5H409.688V100.631H395.974V132.5H385.113V91.9109H420.549ZM466.362 112.205C466.362 116.724 465.484 120.536 463.726 123.641C461.969 126.733 459.597 129.078 456.611 130.677C453.625 132.262 450.296 133.055 446.623 133.055C442.923 133.055 439.58 132.256 436.594 130.657C433.621 129.045 431.256 126.693 429.499 123.601C427.755 120.496 426.883 116.698 426.883 112.205C426.883 107.687 427.755 103.882 429.499 100.79C431.256 97.6848 433.621 95.3396 436.594 93.7541C439.58 92.1553 442.923 91.356 446.623 91.356C450.296 91.356 453.625 92.1553 456.611 93.7541C459.597 95.3396 461.969 97.6848 463.726 100.79C465.484 103.882 466.362 107.687 466.362 112.205ZM455.026 112.205C455.026 109.774 454.702 107.726 454.055 106.062C453.42 104.384 452.476 103.115 451.221 102.256C449.979 101.384 448.446 100.948 446.623 100.948C444.799 100.948 443.26 101.384 442.005 102.256C440.763 103.115 439.818 104.384 439.171 106.062C438.536 107.726 438.219 109.774 438.219 112.205C438.219 114.637 438.536 116.691 439.171 118.369C439.818 120.034 440.763 121.302 442.005 122.174C443.26 123.033 444.799 123.463 446.623 123.463C448.446 123.463 449.979 123.033 451.221 122.174C452.476 121.302 453.42 120.034 454.055 118.369C454.702 116.691 455.026 114.637 455.026 112.205ZM495.914 132.5L483.468 116.09H481.922V132.5H470.903V91.9109H481.922V107.211H483.349L495.002 91.9109H508.876L493.417 111.413L509.748 132.5H495.914ZM522.691 132.5H510.8L524.197 91.9109H539.26L552.657 132.5H540.766L531.887 103.089H531.57L522.691 132.5ZM520.471 116.486H542.827V124.731H520.471V116.486ZM571.943 133.055C568.745 133.055 565.905 132.507 563.421 131.41C560.95 130.3 559.008 128.774 557.594 126.832C556.18 124.89 555.467 122.657 555.453 120.133H566.552C566.565 120.913 566.803 121.613 567.266 122.234C567.741 122.842 568.389 123.317 569.208 123.661C570.027 124.004 570.965 124.176 572.022 124.176C573.039 124.176 573.938 123.998 574.717 123.641C575.497 123.271 576.105 122.762 576.541 122.115C576.977 121.467 577.188 120.728 577.175 119.895C577.188 119.076 576.937 118.349 576.422 117.715C575.92 117.081 575.213 116.585 574.301 116.229C573.39 115.872 572.339 115.694 571.15 115.694H567.028V108.083H571.15C572.247 108.083 573.211 107.905 574.044 107.548C574.889 107.191 575.543 106.696 576.006 106.062C576.481 105.427 576.713 104.701 576.699 103.882C576.713 103.089 576.521 102.388 576.125 101.781C575.728 101.173 575.173 100.697 574.46 100.354C573.76 100.01 572.947 99.8385 572.022 99.8385C571.018 99.8385 570.119 100.017 569.327 100.374C568.547 100.73 567.933 101.226 567.484 101.86C567.034 102.494 566.803 103.221 566.79 104.04H556.246C556.259 101.556 556.94 99.3628 558.288 97.4602C559.648 95.5576 561.511 94.0646 563.877 92.9811C566.242 91.8977 568.957 91.356 572.022 91.356C575.021 91.356 577.67 91.8647 579.969 92.882C582.282 93.8994 584.085 95.2999 585.38 97.0836C586.688 98.8541 587.335 100.882 587.322 103.168C587.349 105.441 586.569 107.304 584.984 108.757C583.411 110.21 581.416 111.069 578.998 111.333V111.651C582.275 112.007 584.739 113.011 586.391 114.663C588.042 116.301 588.855 118.363 588.829 120.846C588.842 123.225 588.128 125.332 586.688 127.169C585.261 129.005 583.273 130.445 580.723 131.489C578.186 132.533 575.259 133.055 571.943 133.055ZM603.655 132.5H591.763L605.161 91.9109H620.223L633.621 132.5H621.73L612.851 103.089H612.534L603.655 132.5ZM601.435 116.486H623.791V124.731H601.435V116.486ZM630.739 100.79V91.9109H666.017V100.79H653.808V132.5H642.948V100.79H630.739ZM669.606 132.5V91.9109H698.858V100.79H680.625V107.766H697.352V116.645H680.625V123.621H698.779V132.5H669.606ZM702.418 132.5V124.018L703.528 123.859C704.875 123.648 705.992 123.066 706.877 122.115C707.775 121.15 708.462 119.624 708.938 117.537C709.427 115.436 709.737 112.575 709.87 108.955L710.504 91.9109H739.915V132.5H729.292V100.473H720.651L720.017 113.236C719.779 117.966 719.145 121.738 718.114 124.553C717.084 127.367 715.518 129.395 713.417 130.637C711.316 131.879 708.548 132.5 705.113 132.5H702.418ZM744.574 91.9109H755.594V113.157H755.911L770.339 91.9109H779.693V132.5H768.674V111.175H768.436L753.77 132.5H744.574V91.9109Z" fill="white"/>
</svg>
