<svg width="32" height="19" viewBox="0 0 32 19" fill="none" xmlns="http://www.w3.org/2000/svg">
<path d="M14.8321 0.0363625V18H11.078V3.12386H3.81538V18H0.0612573V0.0363625H14.8321ZM24.4652 18.2631C23.1028 18.2631 21.9245 17.9737 20.9304 17.3948C19.9422 16.81 19.1791 15.9972 18.6411 14.9564C18.1031 13.9096 17.8341 12.6963 17.8341 11.3163C17.8341 9.92455 18.1031 8.70826 18.6411 7.6674C19.1791 6.62069 19.9422 5.80788 20.9304 5.22898C21.9245 4.64422 23.1028 4.35185 24.4652 4.35185C25.8277 4.35185 27.0031 4.64422 27.9913 5.22898C28.9854 5.80788 29.7514 6.62069 30.2894 7.6674C30.8273 8.70826 31.0963 9.92455 31.0963 11.3163C31.0963 12.6963 30.8273 13.9096 30.2894 14.9564C29.7514 15.9972 28.9854 16.81 27.9913 17.3948C27.0031 17.9737 25.8277 18.2631 24.4652 18.2631ZM24.4828 15.3686C25.1026 15.3686 25.6201 15.1932 26.0353 14.8423C26.4505 14.4856 26.7633 14.0003 26.9738 13.3863C27.1902 12.7723 27.2984 12.0735 27.2984 11.2899C27.2984 10.5064 27.1902 9.8076 26.9738 9.19361C26.7633 8.57962 26.4505 8.09427 26.0353 7.73757C25.6201 7.38087 25.1026 7.20252 24.4828 7.20252C23.8571 7.20252 23.3308 7.38087 22.9039 7.73757C22.4829 8.09427 22.1642 8.57962 21.9479 9.19361C21.7374 9.8076 21.6321 10.5064 21.6321 11.2899C21.6321 12.0735 21.7374 12.7723 21.9479 13.3863C22.1642 14.0003 22.4829 14.4856 22.9039 14.8423C23.3308 15.1932 23.8571 15.3686 24.4828 15.3686Z" fill="#177CFF"/>
</svg>
