<svg width="994" height="169" viewBox="0 0 994 169" fill="none" xmlns="http://www.w3.org/2000/svg">
<g clip-path="url(#clip0_888_39)">
<path d="M1.50622 33.29V24.4112H36.7836V33.29H24.5752V65H13.7146V33.29H1.50622ZM78.3434 44.7056C78.3434 49.2243 77.4648 53.0361 75.7075 56.141C73.9503 59.2327 71.5786 61.578 68.5926 63.1767C65.6066 64.7622 62.2771 65.5549 58.604 65.5549C54.9045 65.5549 51.5617 64.7556 48.5757 63.1569C45.6029 61.5449 43.2379 59.1931 41.4806 56.1014C39.7366 52.9965 38.8645 49.1979 38.8645 44.7056C38.8645 40.187 39.7366 36.3818 41.4806 33.29C43.2379 30.1851 45.6029 27.8399 48.5757 26.2544C51.5617 24.6557 54.9045 23.8563 58.604 23.8563C62.2771 23.8563 65.6066 24.6557 68.5926 26.2544C71.5786 27.8399 73.9503 30.1851 75.7075 33.29C77.4648 36.3818 78.3434 40.187 78.3434 44.7056ZM67.0071 44.7056C67.0071 42.2745 66.6834 40.2266 66.036 38.5618C65.4018 36.8838 64.4571 35.6154 63.2019 34.7566C61.96 33.8846 60.4273 33.4486 58.604 33.4486C56.7807 33.4486 55.2414 33.8846 53.9862 34.7566C52.7442 35.6154 51.7996 36.8838 51.1521 38.5618C50.5179 40.2266 50.2008 42.2745 50.2008 44.7056C50.2008 47.1367 50.5179 49.1913 51.1521 50.8692C51.7996 52.534 52.7442 53.8024 53.9862 54.6744C55.2414 55.5333 56.7807 55.9627 58.604 55.9627C60.4273 55.9627 61.96 55.5333 63.2019 54.6744C64.4571 53.8024 65.4018 52.534 66.036 50.8692C66.6834 49.1913 67.0071 47.1367 67.0071 44.7056ZM120.701 24.4112V65H109.84V33.1315H96.1258V65H85.2651V24.4112H120.701ZM176.129 24.4112V65H165.268V33.1315H151.554V65H140.693V24.4112H176.129ZM189.046 65.5549V56.9932H191.028C192.19 56.9932 193.109 56.9007 193.783 56.7158C194.47 56.5176 194.998 56.1741 195.368 55.6852C195.751 55.1831 196.075 54.4829 196.339 53.5844L196.736 52.3953L181.515 24.4112H192.772L201.254 40.9004L207.755 24.4112H218.853L204.901 56.1212C204.135 57.786 203.223 59.3384 202.166 60.7786C201.109 62.2056 199.794 63.3617 198.222 64.2469C196.65 65.1189 194.701 65.5549 192.375 65.5549H189.046ZM222.421 65V24.4112H233.44V40.2662H248.026V24.4112H259.046V65H248.026V49.145H233.44V65H222.421ZM289.289 65L276.843 48.5901H275.297V65H264.278V24.4112H275.297V39.7113H276.724L288.377 24.4112H302.25L286.792 43.9129L303.122 65H289.289ZM304.971 33.29V24.4112H340.248V33.29H328.04V65H317.179V33.29H304.971ZM381.808 44.7056C381.808 49.2243 380.929 53.0361 379.172 56.141C377.415 59.2327 375.043 61.578 372.057 63.1767C369.071 64.7622 365.741 65.5549 362.068 65.5549C358.369 65.5549 355.026 64.7556 352.04 63.1569C349.067 61.5449 346.702 59.1931 344.945 56.1014C343.201 52.9965 342.329 49.1979 342.329 44.7056C342.329 40.187 343.201 36.3818 344.945 33.29C346.702 30.1851 349.067 27.8399 352.04 26.2544C355.026 24.6557 358.369 23.8563 362.068 23.8563C365.741 23.8563 369.071 24.6557 372.057 26.2544C375.043 27.8399 377.415 30.1851 379.172 33.29C380.929 36.3818 381.808 40.187 381.808 44.7056ZM370.471 44.7056C370.471 42.2745 370.148 40.2266 369.5 38.5618C368.866 36.8838 367.921 35.6154 366.666 34.7566C365.424 33.8846 363.892 33.4486 362.068 33.4486C360.245 33.4486 358.706 33.8846 357.451 34.7566C356.209 35.6154 355.264 36.8838 354.617 38.5618C353.982 40.2266 353.665 42.2745 353.665 44.7056C353.665 47.1367 353.982 49.1913 354.617 50.8692C355.264 52.534 356.209 53.8024 357.451 54.6744C358.706 55.5333 360.245 55.9627 362.068 55.9627C363.892 55.9627 365.424 55.5333 366.666 54.6744C367.921 53.8024 368.866 52.534 369.5 50.8692C370.148 49.1913 370.471 47.1367 370.471 44.7056ZM386.906 65V24.4112H404.505C407.597 24.4112 410.193 24.8274 412.294 25.6598C414.408 26.4922 416 27.6681 417.07 29.1876C418.154 30.707 418.695 32.4973 418.695 34.5584C418.695 36.0514 418.365 37.4123 417.704 38.6411C417.057 39.8699 416.145 40.9004 414.969 41.7328C413.794 42.552 412.419 43.1201 410.847 43.4372V43.8336C412.591 43.8997 414.177 44.3423 415.604 45.1615C417.031 45.9674 418.167 47.0839 419.013 48.5108C419.858 49.9246 420.281 51.5893 420.281 53.5051C420.281 55.7248 419.7 57.7001 418.537 59.4309C417.387 61.1618 415.749 62.5227 413.622 63.5136C411.495 64.5045 408.958 65 406.011 65H386.906ZM397.925 56.2005H403.078C404.928 56.2005 406.315 55.857 407.24 55.1699C408.165 54.4696 408.627 53.4391 408.627 52.0782C408.627 51.1269 408.409 50.3209 407.973 49.6603C407.537 48.9997 406.916 48.4976 406.111 48.1541C405.318 47.8106 404.36 47.6388 403.237 47.6388H397.925V56.2005ZM397.925 40.8212H402.444C403.409 40.8212 404.261 40.6692 405.001 40.3653C405.741 40.0614 406.315 39.6254 406.725 39.0573C407.148 38.4759 407.359 37.7691 407.359 36.9367C407.359 35.6815 406.91 34.7236 406.011 34.063C405.113 33.3891 403.977 33.0522 402.603 33.0522H397.925V40.8212ZM473.197 39.632H462.019C461.94 38.7072 461.728 37.8682 461.385 37.115C461.055 36.3619 460.592 35.7145 459.998 35.1728C459.416 34.6179 458.709 34.1951 457.877 33.9044C457.045 33.6005 456.1 33.4486 455.043 33.4486C453.193 33.4486 451.628 33.8978 450.346 34.7963C449.078 35.6947 448.113 36.9829 447.452 38.6609C446.805 40.3389 446.481 42.3538 446.481 44.7056C446.481 47.1896 446.812 49.2705 447.472 50.9485C448.146 52.6133 449.117 53.8685 450.386 54.7141C451.654 55.5465 453.18 55.9627 454.964 55.9627C455.981 55.9627 456.893 55.8371 457.699 55.5861C458.505 55.3219 459.205 54.9453 459.799 54.4564C460.394 53.9676 460.876 53.3796 461.246 52.6926C461.629 51.9923 461.887 51.2062 462.019 50.3341L473.197 50.4134C473.065 52.131 472.583 53.8817 471.75 55.6654C470.918 57.4359 469.735 59.0742 468.203 60.5804C466.683 62.0734 464.8 63.2758 462.554 64.1874C460.308 65.0991 457.699 65.5549 454.726 65.5549C451 65.5549 447.657 64.7556 444.698 63.1569C441.751 61.5581 439.419 59.2063 437.702 56.1014C435.997 52.9965 435.145 49.1979 435.145 44.7056C435.145 40.187 436.017 36.3818 437.761 33.29C439.505 30.1851 441.857 27.8399 444.817 26.2544C447.776 24.6557 451.079 23.8563 454.726 23.8563C457.289 23.8563 459.648 24.2064 461.801 24.9067C463.955 25.607 465.844 26.6309 467.469 27.9786C469.094 29.3131 470.402 30.958 471.393 32.9135C472.384 34.8689 472.986 37.1084 473.197 39.632ZM478.196 65V24.4112H506.735V33.29H489.215V38.0465H493.338C496.747 38.0465 499.726 38.5948 502.276 39.6915C504.839 40.7881 506.828 42.334 508.241 44.3291C509.668 46.3242 510.382 48.6694 510.382 51.3647C510.382 54.0601 509.668 56.4317 508.241 58.4796C506.828 60.5276 504.839 62.1263 502.276 63.2758C499.726 64.4253 496.747 65 493.338 65H478.196ZM489.215 56.359H493.338C494.659 56.359 495.769 56.141 496.667 55.705C497.579 55.269 498.266 54.6678 498.728 53.9015C499.204 53.1352 499.442 52.2632 499.442 51.2854C499.442 49.8981 498.92 48.7486 497.876 47.837C496.832 46.9121 495.32 46.4497 493.338 46.4497H489.215V56.359ZM553.597 44.7056C553.597 49.2243 552.718 53.0361 550.961 56.141C549.203 59.2327 546.832 61.578 543.846 63.1767C540.86 64.7622 537.53 65.5549 533.857 65.5549C530.158 65.5549 526.815 64.7556 523.829 63.1569C520.856 61.5449 518.491 59.1931 516.734 56.1014C514.99 52.9965 514.118 49.1979 514.118 44.7056C514.118 40.187 514.99 36.3818 516.734 33.29C518.491 30.1851 520.856 27.8399 523.829 26.2544C526.815 24.6557 530.158 23.8563 533.857 23.8563C537.53 23.8563 540.86 24.6557 543.846 26.2544C546.832 27.8399 549.203 30.1851 550.961 33.29C552.718 36.3818 553.597 40.187 553.597 44.7056ZM542.26 44.7056C542.26 42.2745 541.937 40.2266 541.289 38.5618C540.655 36.8838 539.71 35.6154 538.455 34.7566C537.213 33.8846 535.68 33.4486 533.857 33.4486C532.034 33.4486 530.495 33.8846 529.239 34.7566C527.997 35.6154 527.053 36.8838 526.405 38.5618C525.771 40.2266 525.454 42.2745 525.454 44.7056C525.454 47.1367 525.771 49.1913 526.405 50.8692C527.053 52.534 527.997 53.8024 529.239 54.6744C530.495 55.5333 532.034 55.9627 533.857 55.9627C535.68 55.9627 537.213 55.5333 538.455 54.6744C539.71 53.8024 540.655 52.534 541.289 50.8692C541.937 49.1913 542.26 47.1367 542.26 44.7056ZM558.695 65V24.4112H576.215C579.227 24.4112 581.863 25.0058 584.122 26.1949C586.382 27.3841 588.139 29.0554 589.394 31.2091C590.649 33.3627 591.277 35.8797 591.277 38.76C591.277 41.6667 590.63 44.1837 589.335 46.3109C588.053 48.4381 586.25 50.0765 583.924 51.226C581.612 52.3755 578.91 52.9502 575.818 52.9502H565.354V44.3885H573.599C574.893 44.3885 575.997 44.1639 576.908 43.7147C577.833 43.2522 578.54 42.5982 579.029 41.7526C579.531 40.907 579.782 39.9095 579.782 38.76C579.782 37.5973 579.531 36.6064 579.029 35.7872C578.54 34.9548 577.833 34.3206 576.908 33.8846C575.997 33.4354 574.893 33.2108 573.599 33.2108H569.714V65H558.695ZM600.795 65H588.904L602.301 24.4112H617.363L630.761 65H618.87L609.991 35.589H609.674L600.795 65ZM598.575 48.9865H620.931V57.2311H598.575V48.9865ZM661.723 65.5549C658.525 65.5549 655.684 65.0066 653.201 63.91C650.73 62.8001 648.788 61.2741 647.374 59.3318C645.96 57.3896 645.247 55.1567 645.233 52.6331H656.332C656.345 53.4126 656.583 54.1129 657.045 54.7339C657.521 55.3417 658.168 55.8173 658.988 56.1608C659.807 56.5044 660.745 56.6761 661.802 56.6761C662.819 56.6761 663.718 56.4978 664.497 56.141C665.277 55.7711 665.885 55.2624 666.321 54.615C666.757 53.9676 666.968 53.2277 666.955 52.3953C666.968 51.5761 666.717 50.8494 666.202 50.2152C665.7 49.581 664.993 49.0856 664.081 48.7288C663.169 48.3721 662.119 48.1937 660.93 48.1937H656.808V40.5833H660.93C662.026 40.5833 662.991 40.405 663.823 40.0482C664.669 39.6915 665.323 39.196 665.785 38.5618C666.261 37.9276 666.492 37.2009 666.479 36.3818C666.492 35.589 666.301 34.8887 665.904 34.281C665.508 33.6732 664.953 33.1975 664.24 32.854C663.539 32.5105 662.727 32.3387 661.802 32.3387C660.798 32.3387 659.899 32.5171 659.106 32.8738C658.327 33.2306 657.713 33.726 657.263 34.3602C656.814 34.9944 656.583 35.7211 656.57 36.5403H646.026C646.039 34.0564 646.72 31.8631 648.067 29.9605C649.428 28.0579 651.291 26.5649 653.656 25.4815C656.021 24.398 658.737 23.8563 661.802 23.8563C664.801 23.8563 667.45 24.365 669.749 25.3824C672.061 26.3997 673.865 27.8002 675.16 29.5839C676.468 31.3544 677.115 33.3825 677.102 35.6683C677.128 37.9408 676.349 39.8038 674.763 41.2572C673.191 42.7105 671.196 43.5693 668.778 43.8336V44.1507C672.055 44.5074 674.519 45.5116 676.17 47.1631C677.822 48.8015 678.635 50.8626 678.608 53.3466C678.621 55.7248 677.908 57.8322 676.468 59.6688C675.041 61.5053 673.052 62.9455 670.502 63.9892C667.965 65.033 665.039 65.5549 661.723 65.5549ZM693.992 65H682.101L695.499 24.4112H710.561L723.958 65H712.067L703.188 35.589H702.871L693.992 65ZM691.773 48.9865H714.128V57.2311H691.773V48.9865ZM776.245 24.4112V65H765.384V33.1315H751.67V65H740.809V24.4112H776.245ZM783.296 65V24.4112H812.548V33.29H794.315V40.2662H811.042V49.145H794.315V56.1212H812.469V65H783.296ZM818.013 65V24.4112H835.533C838.545 24.4112 841.181 25.0058 843.44 26.1949C845.7 27.3841 847.457 29.0554 848.712 31.2091C849.967 33.3627 850.595 35.8797 850.595 38.76C850.595 41.6667 849.948 44.1837 848.653 46.3109C847.371 48.4381 845.568 50.0765 843.242 51.226C840.93 52.3755 838.228 52.9502 835.136 52.9502H824.672V44.3885H832.917C834.212 44.3885 835.315 44.1639 836.226 43.7147C837.151 43.2522 837.858 42.5982 838.347 41.7526C838.849 40.907 839.1 39.9095 839.1 38.76C839.1 37.5973 838.849 36.6064 838.347 35.7872C837.858 34.9548 837.151 34.3206 836.226 33.8846C835.315 33.4354 834.212 33.2108 832.917 33.2108H829.032V65H818.013ZM854.638 24.4112H865.657V45.6569H865.974L880.402 24.4112H889.757V65H878.738V43.675H878.5L863.834 65H854.638V24.4112ZM934.29 44.7056C934.29 49.2243 933.411 53.0361 931.654 56.141C929.896 59.2327 927.525 61.578 924.539 63.1767C921.553 64.7622 918.223 65.5549 914.55 65.5549C910.851 65.5549 907.508 64.7556 904.522 63.1569C901.549 61.5449 899.184 59.1931 897.427 56.1014C895.683 52.9965 894.811 49.1979 894.811 44.7056C894.811 40.187 895.683 36.3818 897.427 33.29C899.184 30.1851 901.549 27.8399 904.522 26.2544C907.508 24.6557 910.851 23.8563 914.55 23.8563C918.223 23.8563 921.553 24.6557 924.539 26.2544C927.525 27.8399 929.896 30.1851 931.654 33.29C933.411 36.3818 934.29 40.187 934.29 44.7056ZM922.953 44.7056C922.953 42.2745 922.63 40.2266 921.982 38.5618C921.348 36.8838 920.403 35.6154 919.148 34.7566C917.906 33.8846 916.373 33.4486 914.55 33.4486C912.727 33.4486 911.187 33.8846 909.932 34.7566C908.69 35.6154 907.746 36.8838 907.098 38.5618C906.464 40.2266 906.147 42.2745 906.147 44.7056C906.147 47.1367 906.464 49.1913 907.098 50.8692C907.746 52.534 908.69 53.8024 909.932 54.6744C911.187 55.5333 912.727 55.9627 914.55 55.9627C916.373 55.9627 917.906 55.5333 919.148 54.6744C920.403 53.8024 921.348 52.534 921.982 50.8692C922.63 49.1913 922.953 47.1367 922.953 44.7056ZM938.04 74.7508V56.5176H940.894C941.845 55.9362 942.704 55.1171 943.471 54.0601C944.25 53.0031 944.911 51.4902 945.452 49.5216C946.007 47.5529 946.417 44.917 946.681 41.6139L948.029 24.4112H976.726V56.5176H981.007V74.7508H970.384V65H948.663V74.7508H938.04ZM953.499 56.5176H966.104V33.29H957.938L957.304 41.6139C957.119 44.0978 956.835 46.2713 956.452 48.1343C956.082 49.984 955.639 51.5959 955.124 52.97C954.622 54.3309 954.08 55.5134 953.499 56.5176Z" fill="#177CFF"/>
<rect y="82" width="274" height="63" rx="31.5" fill="#177CFF"/>
<path d="M73.4364 113.706C73.4364 118.224 72.5578 122.036 70.8005 125.141C69.0433 128.233 66.6716 130.578 63.6856 132.177C60.6996 133.762 57.37 134.555 53.697 134.555C49.9975 134.555 46.6547 133.756 43.6687 132.157C40.6959 130.545 38.3309 128.193 36.5736 125.101C34.8295 121.996 33.9575 118.198 33.9575 113.706C33.9575 109.187 34.8295 105.382 36.5736 102.29C38.3309 99.1851 40.6959 96.8399 43.6687 95.2544C46.6547 93.6557 49.9975 92.8563 53.697 92.8563C57.37 92.8563 60.6996 93.6557 63.6856 95.2544C66.6716 96.8399 69.0433 99.1851 70.8005 102.29C72.5578 105.382 73.4364 109.187 73.4364 113.706ZM62.1001 113.706C62.1001 111.275 61.7764 109.227 61.129 107.562C60.4948 105.884 59.5501 104.615 58.2949 103.757C57.0529 102.885 55.5203 102.449 53.697 102.449C51.8737 102.449 50.3344 102.885 49.0792 103.757C47.8372 104.615 46.8925 105.884 46.2451 107.562C45.6109 109.227 45.2938 111.275 45.2938 113.706C45.2938 116.137 45.6109 118.191 46.2451 119.869C46.8925 121.534 47.8372 122.802 49.0792 123.674C50.3344 124.533 51.8737 124.963 53.697 124.963C55.5203 124.963 57.0529 124.533 58.2949 123.674C59.5501 122.802 60.4948 121.534 61.129 119.869C61.7764 118.191 62.1001 116.137 62.1001 113.706ZM78.5348 134V93.4112H107.074V102.29H89.554V107.047H93.6763C97.0851 107.047 100.065 107.595 102.615 108.691C105.178 109.788 107.166 111.334 108.58 113.329C110.007 115.324 110.72 117.669 110.72 120.365C110.72 123.06 110.007 125.432 108.58 127.48C107.166 129.528 105.178 131.126 102.615 132.276C100.065 133.425 97.0851 134 93.6763 134H78.5348ZM89.554 125.359H93.6763C94.9976 125.359 96.1074 125.141 97.0059 124.705C97.9175 124.269 98.6046 123.668 99.067 122.902C99.5426 122.135 99.7805 121.263 99.7805 120.285C99.7805 118.898 99.2586 117.749 98.2148 116.837C97.171 115.912 95.6582 115.45 93.6763 115.45H89.554V125.359ZM110.344 101.656V93.4112H126.674V101.656H110.344ZM127.784 107.047H136.187C139.61 107.047 142.596 107.595 145.146 108.691C147.709 109.788 149.697 111.334 151.111 113.329C152.538 115.324 153.245 117.669 153.232 120.365C153.245 123.06 152.538 125.432 151.111 127.48C149.697 129.528 147.709 131.126 145.146 132.276C142.596 133.425 139.61 134 136.187 134H121.046V93.4112H132.065V125.359H136.187C137.522 125.359 138.638 125.141 139.537 124.705C140.449 124.269 141.136 123.668 141.598 122.902C142.074 122.135 142.305 121.263 142.292 120.285C142.305 118.898 141.79 117.749 140.746 116.837C139.702 115.912 138.183 115.45 136.187 115.45H127.784V107.047ZM157.671 134V93.4112H186.923V102.29H168.69V109.266H185.417V118.145H168.69V125.121H186.844V134H157.671ZM166.153 89.8439C164.806 89.8439 163.663 89.3946 162.725 88.4962C161.787 87.5977 161.318 86.5143 161.318 85.2459C161.318 83.9775 161.787 82.8941 162.725 81.9957C163.663 81.0972 164.806 80.648 166.153 80.648C167.461 80.648 168.578 81.0972 169.503 81.9957C170.441 82.8941 170.91 83.9775 170.91 85.2459C170.91 86.5143 170.441 87.5977 169.503 88.4962C168.578 89.3946 167.461 89.8439 166.153 89.8439ZM178.758 89.8439C177.41 89.8439 176.268 89.3946 175.329 88.4962C174.391 87.5977 173.922 86.5143 173.922 85.2459C173.922 83.9775 174.391 82.8941 175.329 81.9957C176.268 81.0972 177.41 80.648 178.758 80.648C180.066 80.648 181.183 81.0972 182.107 81.9957C183.046 82.8941 183.515 83.9775 183.515 85.2459C183.515 86.5143 183.046 87.5977 182.107 88.4962C181.183 89.3946 180.066 89.8439 178.758 89.8439ZM192.388 93.4112H206.103L215.537 116.401H216.012L225.446 93.4112H239.161V134H228.379V110.535H228.062L219.025 133.683H212.524L203.487 110.376H203.17V134H192.388V93.4112Z" fill="white"/>
<rect x="282" y="79" width="97" height="66" rx="33" fill="#177CFF"/>
<path d="M312.616 91.9109H323.635V113.157H323.953L338.381 91.9109H347.735V132.5H336.716V111.175H336.478L321.812 132.5H312.616V91.9109Z" fill="white"/>
<rect x="387" y="79" width="557" height="66" rx="33" fill="#177CFF"/>
<path d="M416.268 142.251V124.018H419.122C420.074 123.436 420.932 122.617 421.699 121.56C422.478 120.503 423.139 118.99 423.681 117.021C424.236 115.053 424.645 112.417 424.909 109.114L426.257 91.9109H454.955V124.018H459.236V142.251H448.613V132.5H426.891V142.251H416.268ZM431.727 124.018H444.332V100.79H436.167L435.532 109.114C435.347 111.598 435.063 113.771 434.68 115.634C434.31 117.484 433.868 119.096 433.352 120.47C432.85 121.831 432.308 123.013 431.727 124.018ZM462.404 132.5V91.9109H473.423V107.766H488.01V91.9109H499.029V132.5H488.01V116.645H473.423V132.5H462.404ZM503.703 132.5V91.9109H532.956V100.79H514.722V107.766H531.449V116.645H514.722V123.621H532.876V132.5H503.703ZM537.863 132.5V91.9109H555.462C558.554 91.9109 561.15 92.3271 563.251 93.1595C565.365 93.9919 566.957 95.1678 568.027 96.6873C569.11 98.2067 569.652 99.997 569.652 102.058C569.652 103.551 569.322 104.912 568.661 106.141C568.014 107.37 567.102 108.4 565.926 109.233C564.75 110.052 563.376 110.62 561.804 110.937V111.333C563.548 111.399 565.133 111.842 566.56 112.661C567.987 113.467 569.124 114.584 569.969 116.011C570.815 117.424 571.238 119.089 571.238 121.005C571.238 123.225 570.656 125.2 569.494 126.931C568.344 128.662 566.706 130.023 564.579 131.014C562.451 132.005 559.914 132.5 556.968 132.5H537.863ZM548.882 123.7H554.035C555.885 123.7 557.272 123.357 558.197 122.67C559.122 121.97 559.584 120.939 559.584 119.578C559.584 118.627 559.366 117.821 558.93 117.16C558.494 116.5 557.873 115.997 557.067 115.654C556.274 115.31 555.317 115.139 554.193 115.139H548.882V123.7ZM548.882 108.321H553.401C554.365 108.321 555.217 108.169 555.957 107.865C556.697 107.561 557.272 107.125 557.682 106.557C558.104 105.976 558.316 105.269 558.316 104.436C558.316 103.181 557.867 102.223 556.968 101.563C556.07 100.889 554.933 100.552 553.559 100.552H548.882V108.321ZM574.584 132.5V91.9109H585.603V107.766H600.19V91.9109H611.209V132.5H600.19V116.645H585.603V132.5H574.584ZM655.204 112.205C655.204 116.724 654.325 120.536 652.568 123.641C650.811 126.733 648.439 129.078 645.453 130.677C642.467 132.262 639.137 133.055 635.464 133.055C631.765 133.055 628.422 132.256 625.436 130.657C622.463 129.045 620.098 126.693 618.341 123.601C616.597 120.496 615.725 116.698 615.725 112.205C615.725 107.687 616.597 103.882 618.341 100.79C620.098 97.6848 622.463 95.3396 625.436 93.7541C628.422 92.1553 631.765 91.356 635.464 91.356C639.137 91.356 642.467 92.1553 645.453 93.7541C648.439 95.3396 650.811 97.6848 652.568 100.79C654.325 103.882 655.204 107.687 655.204 112.205ZM643.868 112.205C643.868 109.774 643.544 107.726 642.896 106.062C642.262 104.384 641.318 103.115 640.062 102.256C638.82 101.384 637.288 100.948 635.464 100.948C633.641 100.948 632.102 101.384 630.847 102.256C629.605 103.115 628.66 104.384 628.012 106.062C627.378 107.726 627.061 109.774 627.061 112.205C627.061 114.637 627.378 116.691 628.012 118.369C628.66 120.034 629.605 121.302 630.847 122.174C632.102 123.033 633.641 123.463 635.464 123.463C637.288 123.463 638.82 123.033 640.062 122.174C641.318 121.302 642.262 120.034 642.896 118.369C643.544 116.691 643.868 114.637 643.868 112.205ZM659.744 91.9109H670.764V113.157H671.081L685.509 91.9109H694.863V132.5H683.844V111.175H683.606L668.94 132.5H659.744V91.9109ZM681.307 80.9709H688.204C688.191 83.5473 687.207 85.6085 685.251 87.1544C683.296 88.687 680.66 89.4534 677.343 89.4534C674.001 89.4534 671.352 88.687 669.396 87.1544C667.441 85.6085 666.47 83.5473 666.483 80.9709H673.3C673.287 81.8033 673.584 82.5696 674.192 83.2699C674.813 83.9569 675.864 84.3005 677.343 84.3005C678.757 84.3005 679.768 83.9635 680.376 83.2897C680.984 82.6158 681.294 81.8429 681.307 80.9709ZM710.078 132.5V91.9109H727.677C730.769 91.9109 733.365 92.3271 735.466 93.1595C737.58 93.9919 739.172 95.1678 740.242 96.6873C741.326 98.2067 741.867 99.997 741.867 102.058C741.867 103.551 741.537 104.912 740.877 106.141C740.229 107.37 739.317 108.4 738.142 109.233C736.966 110.052 735.591 110.62 734.019 110.937V111.333C735.763 111.399 737.349 111.842 738.776 112.661C740.203 113.467 741.339 114.584 742.185 116.011C743.03 117.424 743.453 119.089 743.453 121.005C743.453 123.225 742.872 125.2 741.709 126.931C740.559 128.662 738.921 130.023 736.794 131.014C734.667 132.005 732.13 132.5 729.183 132.5H710.078ZM721.097 123.7H726.25C728.1 123.7 729.487 123.357 730.412 122.67C731.337 121.97 731.799 120.939 731.799 119.578C731.799 118.627 731.581 117.821 731.145 117.16C730.709 116.5 730.088 115.997 729.282 115.654C728.49 115.31 727.532 115.139 726.409 115.139H721.097V123.7ZM721.097 108.321H725.616C726.58 108.321 727.433 108.169 728.173 107.865C728.913 107.561 729.487 107.125 729.897 106.557C730.32 105.976 730.531 105.269 730.531 104.436C730.531 103.181 730.082 102.223 729.183 101.563C728.285 100.889 727.149 100.552 725.775 100.552H721.097V108.321ZM771.811 132.5L759.364 116.09H757.818V132.5H746.799V91.9109H757.818V107.211H759.245L770.899 91.9109H784.772L769.313 111.413L785.644 132.5H771.811ZM786.696 132.5V124.018L787.806 123.859C789.154 123.648 790.27 123.066 791.156 122.115C792.054 121.15 792.741 119.624 793.217 117.537C793.706 115.436 794.016 112.575 794.148 108.955L794.782 91.9109H824.194V132.5H813.571V100.473H804.93L804.296 113.236C804.058 117.966 803.424 121.738 802.393 124.553C801.362 127.367 799.797 129.395 797.696 130.637C795.595 131.879 792.827 132.5 789.392 132.5H786.696ZM839.397 132.5H827.505L840.903 91.9109H855.965L869.363 132.5H857.471L848.593 103.089H848.275L839.397 132.5ZM837.177 116.486H859.533V124.731H837.177V116.486ZM871.366 142.251V124.018H874.22C875.172 123.436 876.03 122.617 876.797 121.56C877.576 120.503 878.237 118.99 878.779 117.021C879.333 115.053 879.743 112.417 880.007 109.114L881.355 91.9109H910.053V124.018H914.334V142.251H903.711V132.5H881.989V142.251H871.366ZM886.825 124.018H899.43V100.79H891.264L890.63 109.114C890.445 111.598 890.161 113.771 889.778 115.634C889.408 117.484 888.965 119.096 888.45 120.47C887.948 121.831 887.406 123.013 886.825 124.018Z" fill="white"/>
</g>
<defs>
<clipPath id="clip0_888_39">
<rect width="994" height="169" fill="white"/>
</clipPath>
</defs>
</svg>
