<svg width="993" height="89" viewBox="0 0 993 89" fill="none" xmlns="http://www.w3.org/2000/svg">
<g clip-path="url(#clip0_885_21)">
<path d="M1.50622 33.29V24.4112H36.7836V33.29H24.5752V65H13.7146V33.29H1.50622ZM78.3434 44.7056C78.3434 49.2243 77.4648 53.0361 75.7075 56.141C73.9503 59.2327 71.5786 61.578 68.5926 63.1767C65.6066 64.7622 62.2771 65.5549 58.604 65.5549C54.9045 65.5549 51.5617 64.7556 48.5757 63.1569C45.6029 61.5449 43.2379 59.1931 41.4806 56.1014C39.7366 52.9965 38.8645 49.1979 38.8645 44.7056C38.8645 40.187 39.7366 36.3818 41.4806 33.29C43.2379 30.1851 45.6029 27.8399 48.5757 26.2544C51.5617 24.6557 54.9045 23.8563 58.604 23.8563C62.2771 23.8563 65.6066 24.6557 68.5926 26.2544C71.5786 27.8399 73.9503 30.1851 75.7075 33.29C77.4648 36.3818 78.3434 40.187 78.3434 44.7056ZM67.0071 44.7056C67.0071 42.2745 66.6834 40.2266 66.036 38.5618C65.4018 36.8838 64.4571 35.6154 63.2019 34.7566C61.96 33.8846 60.4273 33.4486 58.604 33.4486C56.7807 33.4486 55.2414 33.8846 53.9862 34.7566C52.7442 35.6154 51.7996 36.8838 51.1521 38.5618C50.5179 40.2266 50.2008 42.2745 50.2008 44.7056C50.2008 47.1367 50.5179 49.1913 51.1521 50.8692C51.7996 52.534 52.7442 53.8024 53.9862 54.6744C55.2414 55.5333 56.7807 55.9627 58.604 55.9627C60.4273 55.9627 61.96 55.5333 63.2019 54.6744C64.4571 53.8024 65.4018 52.534 66.036 50.8692C66.6834 49.1913 67.0071 47.1367 67.0071 44.7056ZM120.701 24.4112V65H109.84V33.1315H96.1258V65H85.2651V24.4112H120.701ZM176.129 24.4112V65H165.268V33.1315H151.554V65H140.693V24.4112H176.129ZM189.046 65.5549V56.9932H191.028C192.19 56.9932 193.109 56.9007 193.783 56.7158C194.47 56.5176 194.998 56.1741 195.368 55.6852C195.751 55.1831 196.075 54.4829 196.339 53.5844L196.736 52.3953L181.515 24.4112H192.772L201.254 40.9004L207.755 24.4112H218.853L204.901 56.1212C204.135 57.786 203.223 59.3384 202.166 60.7786C201.109 62.2056 199.794 63.3617 198.222 64.2469C196.65 65.1189 194.701 65.5549 192.375 65.5549H189.046ZM222.421 65V24.4112H233.44V40.2662H248.026V24.4112H259.046V65H248.026V49.145H233.44V65H222.421ZM289.289 65L276.843 48.5901H275.297V65H264.278V24.4112H275.297V39.7113H276.724L288.377 24.4112H302.25L286.792 43.9129L303.122 65H289.289ZM304.971 33.29V24.4112H340.248V33.29H328.04V65H317.179V33.29H304.971ZM381.808 44.7056C381.808 49.2243 380.929 53.0361 379.172 56.141C377.415 59.2327 375.043 61.578 372.057 63.1767C369.071 64.7622 365.741 65.5549 362.068 65.5549C358.369 65.5549 355.026 64.7556 352.04 63.1569C349.067 61.5449 346.702 59.1931 344.945 56.1014C343.201 52.9965 342.329 49.1979 342.329 44.7056C342.329 40.187 343.201 36.3818 344.945 33.29C346.702 30.1851 349.067 27.8399 352.04 26.2544C355.026 24.6557 358.369 23.8563 362.068 23.8563C365.741 23.8563 369.071 24.6557 372.057 26.2544C375.043 27.8399 377.415 30.1851 379.172 33.29C380.929 36.3818 381.808 40.187 381.808 44.7056ZM370.471 44.7056C370.471 42.2745 370.148 40.2266 369.5 38.5618C368.866 36.8838 367.921 35.6154 366.666 34.7566C365.424 33.8846 363.892 33.4486 362.068 33.4486C360.245 33.4486 358.706 33.8846 357.451 34.7566C356.209 35.6154 355.264 36.8838 354.617 38.5618C353.982 40.2266 353.665 42.2745 353.665 44.7056C353.665 47.1367 353.982 49.1913 354.617 50.8692C355.264 52.534 356.209 53.8024 357.451 54.6744C358.706 55.5333 360.245 55.9627 362.068 55.9627C363.892 55.9627 365.424 55.5333 366.666 54.6744C367.921 53.8024 368.866 52.534 369.5 50.8692C370.148 49.1913 370.471 47.1367 370.471 44.7056ZM386.906 65V24.4112H404.505C407.597 24.4112 410.193 24.8274 412.294 25.6598C414.408 26.4922 416 27.6681 417.07 29.1876C418.154 30.707 418.695 32.4973 418.695 34.5584C418.695 36.0514 418.365 37.4123 417.704 38.6411C417.057 39.8699 416.145 40.9004 414.969 41.7328C413.794 42.552 412.419 43.1201 410.847 43.4372V43.8336C412.591 43.8997 414.177 44.3423 415.604 45.1615C417.031 45.9674 418.167 47.0839 419.013 48.5108C419.858 49.9246 420.281 51.5893 420.281 53.5051C420.281 55.7248 419.7 57.7001 418.537 59.4309C417.387 61.1618 415.749 62.5227 413.622 63.5136C411.495 64.5045 408.958 65 406.011 65H386.906ZM397.925 56.2005H403.078C404.928 56.2005 406.315 55.857 407.24 55.1699C408.165 54.4696 408.627 53.4391 408.627 52.0782C408.627 51.1269 408.409 50.3209 407.973 49.6603C407.537 48.9997 406.916 48.4976 406.111 48.1541C405.318 47.8106 404.36 47.6388 403.237 47.6388H397.925V56.2005ZM397.925 40.8212H402.444C403.409 40.8212 404.261 40.6692 405.001 40.3653C405.741 40.0614 406.315 39.6254 406.725 39.0573C407.148 38.4759 407.359 37.7691 407.359 36.9367C407.359 35.6815 406.91 34.7236 406.011 34.063C405.113 33.3891 403.977 33.0522 402.603 33.0522H397.925V40.8212ZM473.197 39.632H462.019C461.94 38.7072 461.728 37.8682 461.385 37.115C461.055 36.3619 460.592 35.7145 459.998 35.1728C459.416 34.6179 458.709 34.1951 457.877 33.9044C457.045 33.6005 456.1 33.4486 455.043 33.4486C453.193 33.4486 451.628 33.8978 450.346 34.7963C449.078 35.6947 448.113 36.9829 447.452 38.6609C446.805 40.3389 446.481 42.3538 446.481 44.7056C446.481 47.1896 446.812 49.2705 447.472 50.9485C448.146 52.6133 449.117 53.8685 450.386 54.7141C451.654 55.5465 453.18 55.9627 454.964 55.9627C455.981 55.9627 456.893 55.8371 457.699 55.5861C458.505 55.3219 459.205 54.9453 459.799 54.4564C460.394 53.9676 460.876 53.3796 461.246 52.6926C461.629 51.9923 461.887 51.2062 462.019 50.3341L473.197 50.4134C473.065 52.131 472.583 53.8817 471.75 55.6654C470.918 57.4359 469.735 59.0742 468.203 60.5804C466.683 62.0734 464.8 63.2758 462.554 64.1874C460.308 65.0991 457.699 65.5549 454.726 65.5549C451 65.5549 447.657 64.7556 444.698 63.1569C441.751 61.5581 439.419 59.2063 437.702 56.1014C435.997 52.9965 435.145 49.1979 435.145 44.7056C435.145 40.187 436.017 36.3818 437.761 33.29C439.505 30.1851 441.857 27.8399 444.817 26.2544C447.776 24.6557 451.079 23.8563 454.726 23.8563C457.289 23.8563 459.648 24.2064 461.801 24.9067C463.955 25.607 465.844 26.6309 467.469 27.9786C469.094 29.3131 470.402 30.958 471.393 32.9135C472.384 34.8689 472.986 37.1084 473.197 39.632ZM478.196 65V24.4112H506.735V33.29H489.215V38.0465H493.338C496.747 38.0465 499.726 38.5948 502.276 39.6915C504.839 40.7881 506.828 42.334 508.241 44.3291C509.668 46.3242 510.382 48.6694 510.382 51.3647C510.382 54.0601 509.668 56.4317 508.241 58.4796C506.828 60.5276 504.839 62.1263 502.276 63.2758C499.726 64.4253 496.747 65 493.338 65H478.196ZM489.215 56.359H493.338C494.659 56.359 495.769 56.141 496.667 55.705C497.579 55.269 498.266 54.6678 498.728 53.9015C499.204 53.1352 499.442 52.2632 499.442 51.2854C499.442 49.8981 498.92 48.7486 497.876 47.837C496.832 46.9121 495.32 46.4497 493.338 46.4497H489.215V56.359ZM553.597 44.7056C553.597 49.2243 552.718 53.0361 550.961 56.141C549.203 59.2327 546.832 61.578 543.846 63.1767C540.86 64.7622 537.53 65.5549 533.857 65.5549C530.158 65.5549 526.815 64.7556 523.829 63.1569C520.856 61.5449 518.491 59.1931 516.734 56.1014C514.99 52.9965 514.118 49.1979 514.118 44.7056C514.118 40.187 514.99 36.3818 516.734 33.29C518.491 30.1851 520.856 27.8399 523.829 26.2544C526.815 24.6557 530.158 23.8563 533.857 23.8563C537.53 23.8563 540.86 24.6557 543.846 26.2544C546.832 27.8399 549.203 30.1851 550.961 33.29C552.718 36.3818 553.597 40.187 553.597 44.7056ZM542.26 44.7056C542.26 42.2745 541.937 40.2266 541.289 38.5618C540.655 36.8838 539.71 35.6154 538.455 34.7566C537.213 33.8846 535.68 33.4486 533.857 33.4486C532.034 33.4486 530.495 33.8846 529.239 34.7566C527.997 35.6154 527.053 36.8838 526.405 38.5618C525.771 40.2266 525.454 42.2745 525.454 44.7056C525.454 47.1367 525.771 49.1913 526.405 50.8692C527.053 52.534 527.997 53.8024 529.239 54.6744C530.495 55.5333 532.034 55.9627 533.857 55.9627C535.68 55.9627 537.213 55.5333 538.455 54.6744C539.71 53.8024 540.655 52.534 541.289 50.8692C541.937 49.1913 542.26 47.1367 542.26 44.7056ZM558.695 65V24.4112H576.215C579.227 24.4112 581.863 25.0058 584.122 26.1949C586.382 27.3841 588.139 29.0554 589.394 31.2091C590.649 33.3627 591.277 35.8797 591.277 38.76C591.277 41.6667 590.63 44.1837 589.335 46.3109C588.053 48.4381 586.25 50.0765 583.924 51.226C581.612 52.3755 578.91 52.9502 575.818 52.9502H565.354V44.3885H573.599C574.893 44.3885 575.997 44.1639 576.908 43.7147C577.833 43.2522 578.54 42.5982 579.029 41.7526C579.531 40.907 579.782 39.9095 579.782 38.76C579.782 37.5973 579.531 36.6064 579.029 35.7872C578.54 34.9548 577.833 34.3206 576.908 33.8846C575.997 33.4354 574.893 33.2108 573.599 33.2108H569.714V65H558.695ZM600.795 65H588.904L602.301 24.4112H617.363L630.761 65H618.87L609.991 35.589H609.674L600.795 65ZM598.575 48.9865H620.931V57.2311H598.575V48.9865ZM661.723 65.5549C658.525 65.5549 655.684 65.0066 653.201 63.91C650.73 62.8001 648.788 61.2741 647.374 59.3318C645.96 57.3896 645.247 55.1567 645.233 52.6331H656.332C656.345 53.4126 656.583 54.1129 657.045 54.7339C657.521 55.3417 658.168 55.8173 658.988 56.1608C659.807 56.5044 660.745 56.6761 661.802 56.6761C662.819 56.6761 663.718 56.4978 664.497 56.141C665.277 55.7711 665.885 55.2624 666.321 54.615C666.757 53.9676 666.968 53.2277 666.955 52.3953C666.968 51.5761 666.717 50.8494 666.202 50.2152C665.7 49.581 664.993 49.0856 664.081 48.7288C663.169 48.3721 662.119 48.1937 660.93 48.1937H656.808V40.5833H660.93C662.026 40.5833 662.991 40.405 663.823 40.0482C664.669 39.6915 665.323 39.196 665.785 38.5618C666.261 37.9276 666.492 37.2009 666.479 36.3818C666.492 35.589 666.301 34.8887 665.904 34.281C665.508 33.6732 664.953 33.1975 664.24 32.854C663.539 32.5105 662.727 32.3387 661.802 32.3387C660.798 32.3387 659.899 32.5171 659.106 32.8738C658.327 33.2306 657.713 33.726 657.263 34.3602C656.814 34.9944 656.583 35.7211 656.57 36.5403H646.026C646.039 34.0564 646.72 31.8631 648.067 29.9605C649.428 28.0579 651.291 26.5649 653.656 25.4815C656.021 24.398 658.737 23.8563 661.802 23.8563C664.801 23.8563 667.45 24.365 669.749 25.3824C672.061 26.3997 673.865 27.8002 675.16 29.5839C676.468 31.3544 677.115 33.3825 677.102 35.6683C677.128 37.9408 676.349 39.8038 674.763 41.2572C673.191 42.7105 671.196 43.5693 668.778 43.8336V44.1507C672.055 44.5074 674.519 45.5116 676.17 47.1631C677.822 48.8015 678.635 50.8626 678.608 53.3466C678.621 55.7248 677.908 57.8322 676.468 59.6688C675.041 61.5053 673.052 62.9455 670.502 63.9892C667.965 65.033 665.039 65.5549 661.723 65.5549ZM693.992 65H682.101L695.499 24.4112H710.561L723.958 65H712.067L703.188 35.589H702.871L693.992 65ZM691.773 48.9865H714.128V57.2311H691.773V48.9865ZM776.245 24.4112V65H765.384V33.1315H751.67V65H740.809V24.4112H776.245ZM783.296 65V24.4112H812.548V33.29H794.315V40.2662H811.042V49.145H794.315V56.1212H812.469V65H783.296ZM818.013 65V24.4112H835.533C838.545 24.4112 841.181 25.0058 843.44 26.1949C845.7 27.3841 847.457 29.0554 848.712 31.2091C849.967 33.3627 850.595 35.8797 850.595 38.76C850.595 41.6667 849.948 44.1837 848.653 46.3109C847.371 48.4381 845.568 50.0765 843.242 51.226C840.93 52.3755 838.228 52.9502 835.136 52.9502H824.672V44.3885H832.917C834.212 44.3885 835.315 44.1639 836.226 43.7147C837.151 43.2522 837.858 42.5982 838.347 41.7526C838.849 40.907 839.1 39.9095 839.1 38.76C839.1 37.5973 838.849 36.6064 838.347 35.7872C837.858 34.9548 837.151 34.3206 836.226 33.8846C835.315 33.4354 834.212 33.2108 832.917 33.2108H829.032V65H818.013ZM854.638 24.4112H865.657V45.6569H865.974L880.402 24.4112H889.757V65H878.738V43.675H878.5L863.834 65H854.638V24.4112ZM934.29 44.7056C934.29 49.2243 933.411 53.0361 931.654 56.141C929.896 59.2327 927.525 61.578 924.539 63.1767C921.553 64.7622 918.223 65.5549 914.55 65.5549C910.851 65.5549 907.508 64.7556 904.522 63.1569C901.549 61.5449 899.184 59.1931 897.427 56.1014C895.683 52.9965 894.811 49.1979 894.811 44.7056C894.811 40.187 895.683 36.3818 897.427 33.29C899.184 30.1851 901.549 27.8399 904.522 26.2544C907.508 24.6557 910.851 23.8563 914.55 23.8563C918.223 23.8563 921.553 24.6557 924.539 26.2544C927.525 27.8399 929.896 30.1851 931.654 33.29C933.411 36.3818 934.29 40.187 934.29 44.7056ZM922.953 44.7056C922.953 42.2745 922.63 40.2266 921.982 38.5618C921.348 36.8838 920.403 35.6154 919.148 34.7566C917.906 33.8846 916.373 33.4486 914.55 33.4486C912.727 33.4486 911.187 33.8846 909.932 34.7566C908.69 35.6154 907.746 36.8838 907.098 38.5618C906.464 40.2266 906.147 42.2745 906.147 44.7056C906.147 47.1367 906.464 49.1913 907.098 50.8692C907.746 52.534 908.69 53.8024 909.932 54.6744C911.187 55.5333 912.727 55.9627 914.55 55.9627C916.373 55.9627 917.906 55.5333 919.148 54.6744C920.403 53.8024 921.348 52.534 921.982 50.8692C922.63 49.1913 922.953 47.1367 922.953 44.7056ZM938.04 74.7508V56.5176H940.894C941.845 55.9362 942.704 55.1171 943.471 54.0601C944.25 53.0031 944.911 51.4902 945.452 49.5216C946.007 47.5529 946.417 44.917 946.681 41.6139L948.029 24.4112H976.726V56.5176H981.007V74.7508H970.384V65H948.663V74.7508H938.04ZM953.499 56.5176H966.104V33.29H957.938L957.304 41.6139C957.119 44.0978 956.835 46.2713 956.452 48.1343C956.082 49.984 955.639 51.5959 955.124 52.97C954.622 54.3309 954.08 55.5134 953.499 56.5176Z" fill="#177CFF"/>
</g>
<defs>
<clipPath id="clip0_885_21">
<rect width="993" height="89" fill="white"/>
</clipPath>
</defs>
</svg>
