<svg width="1203" height="169" viewBox="0 0 1203 169" fill="none" xmlns="http://www.w3.org/2000/svg">
<path d="M1.50622 33.29V24.4112H36.7836V33.29H24.5752V65H13.7146V33.29H1.50622ZM78.3434 44.7056C78.3434 49.2243 77.4648 53.0361 75.7075 56.141C73.9503 59.2327 71.5786 61.578 68.5926 63.1767C65.6066 64.7622 62.2771 65.5549 58.604 65.5549C54.9045 65.5549 51.5617 64.7556 48.5757 63.1569C45.6029 61.5449 43.2379 59.1931 41.4806 56.1014C39.7366 52.9965 38.8645 49.1979 38.8645 44.7056C38.8645 40.187 39.7366 36.3818 41.4806 33.29C43.2379 30.1851 45.6029 27.8399 48.5757 26.2544C51.5617 24.6557 54.9045 23.8563 58.604 23.8563C62.2771 23.8563 65.6066 24.6557 68.5926 26.2544C71.5786 27.8399 73.9503 30.1851 75.7075 33.29C77.4648 36.3818 78.3434 40.187 78.3434 44.7056ZM67.0071 44.7056C67.0071 42.2745 66.6834 40.2266 66.036 38.5618C65.4018 36.8838 64.4571 35.6154 63.2019 34.7566C61.96 33.8846 60.4273 33.4486 58.604 33.4486C56.7807 33.4486 55.2414 33.8846 53.9862 34.7566C52.7442 35.6154 51.7996 36.8838 51.1521 38.5618C50.5179 40.2266 50.2008 42.2745 50.2008 44.7056C50.2008 47.1367 50.5179 49.1913 51.1521 50.8692C51.7996 52.534 52.7442 53.8024 53.9862 54.6744C55.2414 55.5333 56.7807 55.9627 58.604 55.9627C60.4273 55.9627 61.96 55.5333 63.2019 54.6744C64.4571 53.8024 65.4018 52.534 66.036 50.8692C66.6834 49.1913 67.0071 47.1367 67.0071 44.7056ZM120.701 24.4112V65H109.84V33.1315H96.1258V65H85.2651V24.4112H120.701ZM176.129 24.4112V65H165.268V33.1315H151.554V65H140.693V24.4112H176.129ZM189.046 65.5549V56.9932H191.028C192.19 56.9932 193.109 56.9007 193.783 56.7158C194.47 56.5176 194.998 56.1741 195.368 55.6852C195.751 55.1831 196.075 54.4829 196.339 53.5844L196.736 52.3953L181.515 24.4112H192.772L201.254 40.9004L207.755 24.4112H218.853L204.901 56.1212C204.135 57.786 203.223 59.3384 202.166 60.7786C201.109 62.2056 199.794 63.3617 198.222 64.2469C196.65 65.1189 194.701 65.5549 192.375 65.5549H189.046ZM222.421 65V24.4112H233.44V40.2662H248.026V24.4112H259.046V65H248.026V49.145H233.44V65H222.421ZM289.289 65L276.843 48.5901H275.297V65H264.278V24.4112H275.297V39.7113H276.724L288.377 24.4112H302.25L286.792 43.9129L303.122 65H289.289ZM304.971 33.29V24.4112H340.248V33.29H328.04V65H317.179V33.29H304.971ZM381.808 44.7056C381.808 49.2243 380.929 53.0361 379.172 56.141C377.415 59.2327 375.043 61.578 372.057 63.1767C369.071 64.7622 365.741 65.5549 362.068 65.5549C358.369 65.5549 355.026 64.7556 352.04 63.1569C349.067 61.5449 346.702 59.1931 344.945 56.1014C343.201 52.9965 342.329 49.1979 342.329 44.7056C342.329 40.187 343.201 36.3818 344.945 33.29C346.702 30.1851 349.067 27.8399 352.04 26.2544C355.026 24.6557 358.369 23.8563 362.068 23.8563C365.741 23.8563 369.071 24.6557 372.057 26.2544C375.043 27.8399 377.415 30.1851 379.172 33.29C380.929 36.3818 381.808 40.187 381.808 44.7056ZM370.471 44.7056C370.471 42.2745 370.148 40.2266 369.5 38.5618C368.866 36.8838 367.921 35.6154 366.666 34.7566C365.424 33.8846 363.892 33.4486 362.068 33.4486C360.245 33.4486 358.706 33.8846 357.451 34.7566C356.209 35.6154 355.264 36.8838 354.617 38.5618C353.982 40.2266 353.665 42.2745 353.665 44.7056C353.665 47.1367 353.982 49.1913 354.617 50.8692C355.264 52.534 356.209 53.8024 357.451 54.6744C358.706 55.5333 360.245 55.9627 362.068 55.9627C363.892 55.9627 365.424 55.5333 366.666 54.6744C367.921 53.8024 368.866 52.534 369.5 50.8692C370.148 49.1913 370.471 47.1367 370.471 44.7056ZM386.906 65V24.4112H404.505C407.597 24.4112 410.193 24.8274 412.294 25.6598C414.408 26.4922 416 27.6681 417.07 29.1876C418.154 30.707 418.695 32.4973 418.695 34.5584C418.695 36.0514 418.365 37.4123 417.704 38.6411C417.057 39.8699 416.145 40.9004 414.969 41.7328C413.794 42.552 412.419 43.1201 410.847 43.4372V43.8336C412.591 43.8997 414.177 44.3423 415.604 45.1615C417.031 45.9674 418.167 47.0839 419.013 48.5108C419.858 49.9246 420.281 51.5893 420.281 53.5051C420.281 55.7248 419.7 57.7001 418.537 59.4309C417.387 61.1618 415.749 62.5227 413.622 63.5136C411.495 64.5045 408.958 65 406.011 65H386.906ZM397.925 56.2005H403.078C404.928 56.2005 406.315 55.857 407.24 55.1699C408.165 54.4696 408.627 53.4391 408.627 52.0782C408.627 51.1269 408.409 50.3209 407.973 49.6603C407.537 48.9997 406.916 48.4976 406.111 48.1541C405.318 47.8106 404.36 47.6388 403.237 47.6388H397.925V56.2005ZM397.925 40.8212H402.444C403.409 40.8212 404.261 40.6692 405.001 40.3653C405.741 40.0614 406.315 39.6254 406.725 39.0573C407.148 38.4759 407.359 37.7691 407.359 36.9367C407.359 35.6815 406.91 34.7236 406.011 34.063C405.113 33.3891 403.977 33.0522 402.603 33.0522H397.925V40.8212ZM473.197 39.632H462.019C461.94 38.7072 461.728 37.8682 461.385 37.115C461.055 36.3619 460.592 35.7145 459.998 35.1728C459.416 34.6179 458.709 34.1951 457.877 33.9044C457.045 33.6005 456.1 33.4486 455.043 33.4486C453.193 33.4486 451.628 33.8978 450.346 34.7963C449.078 35.6947 448.113 36.9829 447.452 38.6609C446.805 40.3389 446.481 42.3538 446.481 44.7056C446.481 47.1896 446.812 49.2705 447.472 50.9485C448.146 52.6133 449.117 53.8685 450.386 54.7141C451.654 55.5465 453.18 55.9627 454.964 55.9627C455.981 55.9627 456.893 55.8371 457.699 55.5861C458.505 55.3219 459.205 54.9453 459.799 54.4564C460.394 53.9676 460.876 53.3796 461.246 52.6926C461.629 51.9923 461.887 51.2062 462.019 50.3341L473.197 50.4134C473.065 52.131 472.583 53.8817 471.75 55.6654C470.918 57.4359 469.735 59.0742 468.203 60.5804C466.683 62.0734 464.8 63.2758 462.554 64.1874C460.308 65.0991 457.699 65.5549 454.726 65.5549C451 65.5549 447.657 64.7556 444.698 63.1569C441.751 61.5581 439.419 59.2063 437.702 56.1014C435.997 52.9965 435.145 49.1979 435.145 44.7056C435.145 40.187 436.017 36.3818 437.761 33.29C439.505 30.1851 441.857 27.8399 444.817 26.2544C447.776 24.6557 451.079 23.8563 454.726 23.8563C457.289 23.8563 459.648 24.2064 461.801 24.9067C463.955 25.607 465.844 26.6309 467.469 27.9786C469.094 29.3131 470.402 30.958 471.393 32.9135C472.384 34.8689 472.986 37.1084 473.197 39.632ZM478.196 65V24.4112H506.735V33.29H489.215V38.0465H493.338C496.747 38.0465 499.726 38.5948 502.276 39.6915C504.839 40.7881 506.828 42.334 508.241 44.3291C509.668 46.3242 510.382 48.6694 510.382 51.3647C510.382 54.0601 509.668 56.4317 508.241 58.4796C506.828 60.5276 504.839 62.1263 502.276 63.2758C499.726 64.4253 496.747 65 493.338 65H478.196ZM489.215 56.359H493.338C494.659 56.359 495.769 56.141 496.667 55.705C497.579 55.269 498.266 54.6678 498.728 53.9015C499.204 53.1352 499.442 52.2632 499.442 51.2854C499.442 49.8981 498.92 48.7486 497.876 47.837C496.832 46.9121 495.32 46.4497 493.338 46.4497H489.215V56.359ZM553.597 44.7056C553.597 49.2243 552.718 53.0361 550.961 56.141C549.203 59.2327 546.832 61.578 543.846 63.1767C540.86 64.7622 537.53 65.5549 533.857 65.5549C530.158 65.5549 526.815 64.7556 523.829 63.1569C520.856 61.5449 518.491 59.1931 516.734 56.1014C514.99 52.9965 514.118 49.1979 514.118 44.7056C514.118 40.187 514.99 36.3818 516.734 33.29C518.491 30.1851 520.856 27.8399 523.829 26.2544C526.815 24.6557 530.158 23.8563 533.857 23.8563C537.53 23.8563 540.86 24.6557 543.846 26.2544C546.832 27.8399 549.203 30.1851 550.961 33.29C552.718 36.3818 553.597 40.187 553.597 44.7056ZM542.26 44.7056C542.26 42.2745 541.937 40.2266 541.289 38.5618C540.655 36.8838 539.71 35.6154 538.455 34.7566C537.213 33.8846 535.68 33.4486 533.857 33.4486C532.034 33.4486 530.495 33.8846 529.239 34.7566C527.997 35.6154 527.053 36.8838 526.405 38.5618C525.771 40.2266 525.454 42.2745 525.454 44.7056C525.454 47.1367 525.771 49.1913 526.405 50.8692C527.053 52.534 527.997 53.8024 529.239 54.6744C530.495 55.5333 532.034 55.9627 533.857 55.9627C535.68 55.9627 537.213 55.5333 538.455 54.6744C539.71 53.8024 540.655 52.534 541.289 50.8692C541.937 49.1913 542.26 47.1367 542.26 44.7056ZM558.695 65V24.4112H576.215C579.227 24.4112 581.863 25.0058 584.122 26.1949C586.382 27.3841 588.139 29.0554 589.394 31.2091C590.649 33.3627 591.277 35.8797 591.277 38.76C591.277 41.6667 590.63 44.1837 589.335 46.3109C588.053 48.4381 586.25 50.0765 583.924 51.226C581.612 52.3755 578.91 52.9502 575.818 52.9502H565.354V44.3885H573.599C574.893 44.3885 575.997 44.1639 576.908 43.7147C577.833 43.2522 578.54 42.5982 579.029 41.7526C579.531 40.907 579.782 39.9095 579.782 38.76C579.782 37.5973 579.531 36.6064 579.029 35.7872C578.54 34.9548 577.833 34.3206 576.908 33.8846C575.997 33.4354 574.893 33.2108 573.599 33.2108H569.714V65H558.695ZM600.795 65H588.904L602.301 24.4112H617.363L630.761 65H618.87L609.991 35.589H609.674L600.795 65ZM598.575 48.9865H620.931V57.2311H598.575V48.9865Z" fill="#177CFF"/>
<rect y="82" width="505" height="63" rx="31.5" fill="#177CFF"/>
<path d="M71.4364 113.706C71.4364 118.224 70.5578 122.036 68.8005 125.141C67.0433 128.233 64.6716 130.578 61.6856 132.177C58.6996 133.762 55.37 134.555 51.697 134.555C47.9975 134.555 44.6547 133.756 41.6687 132.157C38.6959 130.545 36.3309 128.193 34.5736 125.101C32.8295 121.996 31.9575 118.198 31.9575 113.706C31.9575 109.187 32.8295 105.382 34.5736 102.29C36.3309 99.1851 38.6959 96.8399 41.6687 95.2544C44.6547 93.6557 47.9975 92.8563 51.697 92.8563C55.37 92.8563 58.6996 93.6557 61.6856 95.2544C64.6716 96.8399 67.0433 99.1851 68.8005 102.29C70.5578 105.382 71.4364 109.187 71.4364 113.706ZM60.1001 113.706C60.1001 111.275 59.7764 109.227 59.129 107.562C58.4948 105.884 57.5501 104.615 56.2949 103.757C55.0529 102.885 53.5203 102.449 51.697 102.449C49.8737 102.449 48.3344 102.885 47.0792 103.757C45.8372 104.615 44.8925 105.884 44.2451 107.562C43.6109 109.227 43.2938 111.275 43.2938 113.706C43.2938 116.137 43.6109 118.191 44.2451 119.869C44.8925 121.534 45.8372 122.802 47.0792 123.674C48.3344 124.533 49.8737 124.963 51.697 124.963C53.5203 124.963 55.0529 124.533 56.2949 123.674C57.5501 122.802 58.4948 121.534 59.129 119.869C59.7764 118.191 60.1001 116.137 60.1001 113.706ZM76.5348 134V93.4112H105.074V102.29H87.554V107.047H91.6763C95.0851 107.047 98.0645 107.595 100.615 108.691C103.178 109.788 105.166 111.334 106.58 113.329C108.007 115.324 108.72 117.669 108.72 120.365C108.72 123.06 108.007 125.432 106.58 127.48C105.166 129.528 103.178 131.126 100.615 132.276C98.0645 133.425 95.0851 134 91.6763 134H76.5348ZM87.554 125.359H91.6763C92.9976 125.359 94.1074 125.141 95.0059 124.705C95.9175 124.269 96.6046 123.668 97.067 122.902C97.5426 122.135 97.7805 121.263 97.7805 120.285C97.7805 118.898 97.2586 117.749 96.2148 116.837C95.171 115.912 93.6582 115.45 91.6763 115.45H87.554V125.359ZM171.516 125.835L170.961 143.513H161.21V134H158.277V125.835H171.516ZM115.31 93.4112H126.012V125.518H135.922V93.4112H146.544V125.518H156.216V93.4112H166.839V134H115.31V93.4112ZM175.237 93.4112H186.256V114.657H186.573L201.001 93.4112H210.356V134H199.337V112.675H199.099L184.433 134H175.237V93.4112ZM215.568 93.4112H226.587V114.657H226.904L241.332 93.4112H250.687V134H239.668V112.675H239.43L224.764 134H215.568V93.4112ZM237.131 82.4713H244.028C244.015 85.0477 243.03 87.1089 241.075 88.6547C239.119 90.1874 236.483 90.9537 233.167 90.9537C229.824 90.9537 227.175 90.1874 225.22 88.6547C223.264 87.1089 222.293 85.0477 222.306 82.4713H229.124C229.111 83.3037 229.408 84.07 230.016 84.7703C230.637 85.4573 231.687 85.8009 233.167 85.8009C234.581 85.8009 235.592 85.4639 236.199 84.7901C236.807 84.1163 237.118 83.3433 237.131 82.4713ZM306.338 113.706C306.338 118.224 305.459 122.036 303.702 125.141C301.945 128.233 299.573 130.578 296.587 132.177C293.601 133.762 290.272 134.555 286.598 134.555C282.899 134.555 279.556 133.756 276.57 132.157C273.597 130.545 271.232 128.193 269.475 125.101C267.731 121.996 266.859 118.198 266.859 113.706C266.859 109.187 267.731 105.382 269.475 102.29C271.232 99.1851 273.597 96.8399 276.57 95.2544C279.556 93.6557 282.899 92.8563 286.598 92.8563C290.272 92.8563 293.601 93.6557 296.587 95.2544C299.573 96.8399 301.945 99.1851 303.702 102.29C305.459 105.382 306.338 109.187 306.338 113.706ZM295.002 113.706C295.002 111.275 294.678 109.227 294.03 107.562C293.396 105.884 292.452 104.615 291.196 103.757C289.954 102.885 288.422 102.449 286.598 102.449C284.775 102.449 283.236 102.885 281.981 103.757C280.739 104.615 279.794 105.884 279.147 107.562C278.512 109.227 278.195 111.275 278.195 113.706C278.195 116.137 278.512 118.191 279.147 119.869C279.794 121.534 280.739 122.802 281.981 123.674C283.236 124.533 284.775 124.963 286.598 124.963C288.422 124.963 289.954 124.533 291.196 123.674C292.452 122.802 293.396 121.534 294.03 119.869C294.678 118.191 295.002 116.137 295.002 113.706ZM311.436 134V93.4112H339.975V102.29H322.455V107.047H326.578C329.987 107.047 332.966 107.595 335.516 108.691C338.079 109.788 340.068 111.334 341.481 113.329C342.908 115.324 343.622 117.669 343.622 120.365C343.622 123.06 342.908 125.432 341.481 127.48C340.068 129.528 338.079 131.126 335.516 132.276C332.966 133.425 329.987 134 326.578 134H311.436ZM322.455 125.359H326.578C327.899 125.359 329.009 125.141 329.907 124.705C330.819 124.269 331.506 123.668 331.968 122.902C332.444 122.135 332.682 121.263 332.682 120.285C332.682 118.898 332.16 117.749 331.116 116.837C330.072 115.912 328.56 115.45 326.578 115.45H322.455V125.359ZM343.245 101.656V93.4112H359.576V101.656H343.245ZM360.686 107.047H369.089C372.511 107.047 375.497 107.595 378.047 108.691C380.61 109.788 382.599 111.334 384.012 113.329C385.439 115.324 386.146 117.669 386.133 120.365C386.146 123.06 385.439 125.432 384.012 127.48C382.599 129.528 380.61 131.126 378.047 132.276C375.497 133.425 372.511 134 369.089 134H353.947V93.4112H364.967V125.359H369.089C370.423 125.359 371.54 125.141 372.438 124.705C373.35 124.269 374.037 123.668 374.499 122.902C374.975 122.135 375.206 121.263 375.193 120.285C375.206 118.898 374.691 117.749 373.647 116.837C372.603 115.912 371.084 115.45 369.089 115.45H360.686V107.047ZM390.572 134V93.4112H419.825V102.29H401.592V109.266H418.319V118.145H401.592V125.121H419.746V134H390.572ZM399.055 89.8439C397.707 89.8439 396.564 89.3946 395.626 88.4962C394.688 87.5977 394.219 86.5143 394.219 85.2459C394.219 83.9775 394.688 82.8941 395.626 81.9957C396.564 81.0972 397.707 80.648 399.055 80.648C400.363 80.648 401.479 81.0972 402.404 81.9957C403.342 82.8941 403.811 83.9775 403.811 85.2459C403.811 86.5143 403.342 87.5977 402.404 88.4962C401.479 89.3946 400.363 89.8439 399.055 89.8439ZM411.66 89.8439C410.312 89.8439 409.169 89.3946 408.231 88.4962C407.293 87.5977 406.824 86.5143 406.824 85.2459C406.824 83.9775 407.293 82.8941 408.231 81.9957C409.169 81.0972 410.312 80.648 411.66 80.648C412.968 80.648 414.084 81.0972 415.009 81.9957C415.947 82.8941 416.416 83.9775 416.416 85.2459C416.416 86.5143 415.947 87.5977 415.009 88.4962C414.084 89.3946 412.968 89.8439 411.66 89.8439ZM425.29 93.4112H439.004L448.438 116.401H448.914L458.348 93.4112H472.062V134H461.281V110.535H460.964L451.926 133.683H445.426L436.388 110.376H436.071V134H425.29V93.4112Z" fill="white"/>
<rect x="513" y="79" width="97" height="66" rx="33" fill="#177CFF"/>
<path d="M543.616 91.9109H554.635V113.157H554.953L569.381 91.9109H578.735V132.5H567.716V111.175H567.478L552.812 132.5H543.616V91.9109Z" fill="white"/>
<rect x="618" y="79" width="557" height="66" rx="33" fill="#177CFF"/>
<path d="M647.268 142.251V124.018H650.122C651.074 123.436 651.932 122.617 652.699 121.56C653.478 120.503 654.139 118.99 654.681 117.021C655.236 115.053 655.645 112.417 655.909 109.114L657.257 91.9109H685.955V124.018H690.236V142.251H679.613V132.5H657.891V142.251H647.268ZM662.727 124.018H675.332V100.79H667.167L666.532 109.114C666.347 111.598 666.063 113.771 665.68 115.634C665.31 117.484 664.868 119.096 664.352 120.47C663.85 121.831 663.308 123.013 662.727 124.018ZM693.404 132.5V91.9109H704.423V107.766H719.01V91.9109H730.029V132.5H719.01V116.645H704.423V132.5H693.404ZM734.703 132.5V91.9109H763.956V100.79H745.722V107.766H762.449V116.645H745.722V123.621H763.876V132.5H734.703ZM768.863 132.5V91.9109H786.462C789.554 91.9109 792.15 92.3271 794.251 93.1595C796.365 93.9919 797.957 95.1678 799.027 96.6873C800.11 98.2067 800.652 99.997 800.652 102.058C800.652 103.551 800.322 104.912 799.661 106.141C799.014 107.37 798.102 108.4 796.926 109.233C795.75 110.052 794.376 110.62 792.804 110.937V111.333C794.548 111.399 796.133 111.842 797.56 112.661C798.987 113.467 800.124 114.584 800.969 116.011C801.815 117.424 802.238 119.089 802.238 121.005C802.238 123.225 801.656 125.2 800.494 126.931C799.344 128.662 797.706 130.023 795.579 131.014C793.451 132.005 790.914 132.5 787.968 132.5H768.863ZM779.882 123.7H785.035C786.885 123.7 788.272 123.357 789.197 122.67C790.122 121.97 790.584 120.939 790.584 119.578C790.584 118.627 790.366 117.821 789.93 117.16C789.494 116.5 788.873 115.997 788.067 115.654C787.274 115.31 786.317 115.139 785.193 115.139H779.882V123.7ZM779.882 108.321H784.401C785.365 108.321 786.217 108.169 786.957 107.865C787.697 107.561 788.272 107.125 788.682 106.557C789.104 105.976 789.316 105.269 789.316 104.436C789.316 103.181 788.867 102.223 787.968 101.563C787.07 100.889 785.933 100.552 784.559 100.552H779.882V108.321ZM805.584 132.5V91.9109H816.603V107.766H831.19V91.9109H842.209V132.5H831.19V116.645H816.603V132.5H805.584ZM886.204 112.205C886.204 116.724 885.325 120.536 883.568 123.641C881.811 126.733 879.439 129.078 876.453 130.677C873.467 132.262 870.137 133.055 866.464 133.055C862.765 133.055 859.422 132.256 856.436 130.657C853.463 129.045 851.098 126.693 849.341 123.601C847.597 120.496 846.725 116.698 846.725 112.205C846.725 107.687 847.597 103.882 849.341 100.79C851.098 97.6848 853.463 95.3396 856.436 93.7541C859.422 92.1553 862.765 91.356 866.464 91.356C870.137 91.356 873.467 92.1553 876.453 93.7541C879.439 95.3396 881.811 97.6848 883.568 100.79C885.325 103.882 886.204 107.687 886.204 112.205ZM874.868 112.205C874.868 109.774 874.544 107.726 873.896 106.062C873.262 104.384 872.318 103.115 871.062 102.256C869.82 101.384 868.288 100.948 866.464 100.948C864.641 100.948 863.102 101.384 861.847 102.256C860.605 103.115 859.66 104.384 859.012 106.062C858.378 107.726 858.061 109.774 858.061 112.205C858.061 114.637 858.378 116.691 859.012 118.369C859.66 120.034 860.605 121.302 861.847 122.174C863.102 123.033 864.641 123.463 866.464 123.463C868.288 123.463 869.82 123.033 871.062 122.174C872.318 121.302 873.262 120.034 873.896 118.369C874.544 116.691 874.868 114.637 874.868 112.205ZM890.744 91.9109H901.764V113.157H902.081L916.509 91.9109H925.863V132.5H914.844V111.175H914.606L899.94 132.5H890.744V91.9109ZM912.307 80.9709H919.204C919.191 83.5473 918.207 85.6085 916.251 87.1544C914.296 88.687 911.66 89.4534 908.343 89.4534C905.001 89.4534 902.352 88.687 900.396 87.1544C898.441 85.6085 897.47 83.5473 897.483 80.9709H904.3C904.287 81.8033 904.584 82.5696 905.192 83.2699C905.813 83.9569 906.864 84.3005 908.343 84.3005C909.757 84.3005 910.768 83.9635 911.376 83.2897C911.984 82.6158 912.294 81.8429 912.307 80.9709ZM941.078 132.5V91.9109H958.677C961.769 91.9109 964.365 92.3271 966.466 93.1595C968.58 93.9919 970.172 95.1678 971.242 96.6873C972.326 98.2067 972.867 99.997 972.867 102.058C972.867 103.551 972.537 104.912 971.877 106.141C971.229 107.37 970.317 108.4 969.142 109.233C967.966 110.052 966.591 110.62 965.019 110.937V111.333C966.763 111.399 968.349 111.842 969.776 112.661C971.203 113.467 972.339 114.584 973.185 116.011C974.03 117.424 974.453 119.089 974.453 121.005C974.453 123.225 973.872 125.2 972.709 126.931C971.559 128.662 969.921 130.023 967.794 131.014C965.667 132.005 963.13 132.5 960.183 132.5H941.078ZM952.097 123.7H957.25C959.1 123.7 960.487 123.357 961.412 122.67C962.337 121.97 962.799 120.939 962.799 119.578C962.799 118.627 962.581 117.821 962.145 117.16C961.709 116.5 961.088 115.997 960.282 115.654C959.49 115.31 958.532 115.139 957.409 115.139H952.097V123.7ZM952.097 108.321H956.616C957.58 108.321 958.433 108.169 959.173 107.865C959.913 107.561 960.487 107.125 960.897 106.557C961.32 105.976 961.531 105.269 961.531 104.436C961.531 103.181 961.082 102.223 960.183 101.563C959.285 100.889 958.149 100.552 956.775 100.552H952.097V108.321ZM1002.81 132.5L990.364 116.09H988.818V132.5H977.799V91.9109H988.818V107.211H990.245L1001.9 91.9109H1015.77L1000.31 111.413L1016.64 132.5H1002.81ZM1017.7 132.5V124.018L1018.81 123.859C1020.15 123.648 1021.27 123.066 1022.16 122.115C1023.05 121.15 1023.74 119.624 1024.22 117.537C1024.71 115.436 1025.02 112.575 1025.15 108.955L1025.78 91.9109H1055.19V132.5H1044.57V100.473H1035.93L1035.3 113.236C1035.06 117.966 1034.42 121.738 1033.39 124.553C1032.36 127.367 1030.8 129.395 1028.7 130.637C1026.6 131.879 1023.83 132.5 1020.39 132.5H1017.7ZM1070.4 132.5H1058.51L1071.9 91.9109H1086.97L1100.36 132.5H1088.47L1079.59 103.089H1079.28L1070.4 132.5ZM1068.18 116.486H1090.53V124.731H1068.18V116.486ZM1102.37 142.251V124.018H1105.22C1106.17 123.436 1107.03 122.617 1107.8 121.56C1108.58 120.503 1109.24 118.99 1109.78 117.021C1110.33 115.053 1110.74 112.417 1111.01 109.114L1112.36 91.9109H1141.05V124.018H1145.33V142.251H1134.71V132.5H1112.99V142.251H1102.37ZM1117.83 124.018H1130.43V100.79H1122.26L1121.63 109.114C1121.45 111.598 1121.16 113.771 1120.78 115.634C1120.41 117.484 1119.97 119.096 1119.45 120.47C1118.95 121.831 1118.41 123.013 1117.83 124.018Z" fill="white"/>
</svg>
