<svg width="307" height="128" viewBox="0 0 307 128" fill="none" xmlns="http://www.w3.org/2000/svg">
<rect width="307" height="128" rx="15" fill="#177CFF"/>
<path d="M84.2726 79V48.5927H97.457C99.7732 48.5927 101.718 48.9045 103.292 49.5281C104.876 50.1517 106.068 51.0326 106.87 52.1709C107.682 53.3092 108.088 54.6504 108.088 56.1945C108.088 57.313 107.84 58.3326 107.345 59.2531C106.86 60.1736 106.177 60.9457 105.296 61.5693C104.415 62.183 103.386 62.6086 102.208 62.8461V63.1431C103.515 63.1926 104.702 63.5242 105.771 64.1379C106.841 64.7416 107.692 65.578 108.325 66.647C108.959 67.7062 109.275 68.9533 109.275 70.3886C109.275 72.0515 108.84 73.5312 107.969 74.8279C107.108 76.1246 105.88 77.1441 104.287 77.8865C102.693 78.6288 100.793 79 98.5854 79H84.2726ZM92.5277 72.4078H96.388C97.7738 72.4078 98.8131 72.1504 99.5059 71.6357C100.199 71.1111 100.545 70.3391 100.545 69.3196C100.545 68.6069 100.382 68.0031 100.055 67.5082C99.7286 67.0133 99.2634 66.6371 98.6596 66.3798C98.0657 66.1224 97.3481 65.9938 96.5068 65.9938H92.5277V72.4078ZM92.5277 60.8863H95.9129C96.6355 60.8863 97.2739 60.7725 97.8282 60.5448C98.3825 60.3171 98.8131 59.9905 99.1199 59.5649C99.4366 59.1294 99.595 58.5998 99.595 57.9762C99.595 57.0359 99.2585 56.3183 98.5854 55.8234C97.9123 55.3186 97.0611 55.0661 96.0317 55.0661H92.5277V60.8863ZM140.588 59.9955H132.215C132.155 59.3026 131.997 58.674 131.739 58.1098C131.492 57.5456 131.146 57.0606 130.7 56.6548C130.265 56.2391 129.735 55.9223 129.111 55.7046C128.488 55.4769 127.78 55.3631 126.988 55.3631C125.603 55.3631 124.43 55.6996 123.469 56.3727C122.519 57.0458 121.797 58.0109 121.302 59.2679C120.817 60.525 120.574 62.0345 120.574 63.7964C120.574 65.6572 120.822 67.2162 121.317 68.4733C121.821 69.7204 122.549 70.6608 123.499 71.2943C124.449 71.9178 125.593 72.2296 126.929 72.2296C127.691 72.2296 128.374 72.1356 128.978 71.9475C129.582 71.7496 130.106 71.4675 130.552 71.1012C130.997 70.735 131.358 70.2945 131.635 69.7798C131.923 69.2552 132.116 68.6663 132.215 68.013L140.588 68.0724C140.489 69.3592 140.128 70.6707 139.505 72.0069C138.881 73.3333 137.995 74.5607 136.847 75.6891C135.709 76.8075 134.298 77.7083 132.615 78.3913C130.933 79.0742 128.978 79.4157 126.751 79.4157C123.959 79.4157 121.455 78.8169 119.238 77.6192C117.031 76.4215 115.284 74.6596 113.997 72.3336C112.72 70.0075 112.082 67.1618 112.082 63.7964C112.082 60.4112 112.735 57.5605 114.041 55.2443C115.348 52.9182 117.11 51.1613 119.327 49.9735C121.544 48.7758 124.019 48.177 126.751 48.177C128.671 48.177 130.438 48.4393 132.051 48.9639C133.665 49.4885 135.08 50.2556 136.298 51.2652C137.515 52.265 138.495 53.4973 139.237 54.9622C139.98 56.4272 140.43 58.1049 140.588 59.9955ZM144.334 79V48.5927H166.248V55.2443H152.589V60.4706H165.12V67.1222H152.589V72.3484H166.189V79H144.334ZM191.723 48.5927V55.2443H178.598V79H170.342V48.5927H191.723ZM222.828 63.7964C222.828 67.1815 222.169 70.0372 220.853 72.3633C219.536 74.6794 217.76 76.4364 215.523 77.634C213.286 78.8218 210.791 79.4157 208.04 79.4157C205.268 79.4157 202.764 78.8169 200.527 77.6192C198.3 76.4116 196.528 74.6497 195.212 72.3336C193.905 70.0075 193.252 67.1618 193.252 63.7964C193.252 60.4112 193.905 57.5605 195.212 55.2443C196.528 52.9182 198.3 51.1613 200.527 49.9735C202.764 48.7758 205.268 48.177 208.04 48.177C210.791 48.177 213.286 48.7758 215.523 49.9735C217.76 51.1613 219.536 52.9182 220.853 55.2443C222.169 57.5605 222.828 60.4112 222.828 63.7964ZM214.335 63.7964C214.335 61.9751 214.092 60.4409 213.607 59.1937C213.132 57.9366 212.425 56.9864 211.484 56.343C210.554 55.6897 209.406 55.3631 208.04 55.3631C206.674 55.3631 205.521 55.6897 204.58 56.343C203.65 56.9864 202.942 57.9366 202.457 59.1937C201.982 60.4409 201.744 61.9751 201.744 63.7964C201.744 65.6176 201.982 67.1568 202.457 68.4139C202.942 69.661 203.65 70.6113 204.58 71.2646C205.521 71.9079 206.674 72.2296 208.04 72.2296C209.406 72.2296 210.554 71.9079 211.484 71.2646C212.425 70.6113 213.132 69.661 213.607 68.4139C214.092 67.1568 214.335 65.6176 214.335 63.7964Z" fill="white"/>
</svg>
