<svg width="304" height="41" viewBox="0 0 304 41" fill="none" xmlns="http://www.w3.org/2000/svg">
<path d="M18.5613 29V11.0364H25.7538C27.0753 11.0364 28.1776 11.2323 29.0605 11.624C29.9435 12.0158 30.6072 12.5596 31.0516 13.2555C31.496 13.9455 31.7183 14.7408 31.7183 15.6413C31.7183 16.343 31.5779 16.9599 31.2972 17.492C31.0165 18.0183 30.6306 18.451 30.1394 18.7902C29.6541 19.1235 29.0986 19.3603 28.4729 19.5007V19.6761C29.157 19.7053 29.7973 19.8983 30.3938 20.255C30.9961 20.6117 31.4844 21.1117 31.8586 21.7549C32.2328 22.3923 32.42 23.1525 32.42 24.0354C32.42 24.9886 32.1831 25.8394 31.7095 26.5879C31.2417 27.3305 30.5487 27.9182 29.6307 28.3509C28.7126 28.7836 27.5811 29 26.2362 29H18.5613ZM22.3593 25.895H25.4555C26.5139 25.895 27.2858 25.6932 27.7712 25.2897C28.2565 24.8804 28.4992 24.3366 28.4992 23.6583C28.4992 23.1612 28.3793 22.7227 28.1396 22.3426C27.8998 21.9625 27.5577 21.6643 27.1133 21.4479C26.6748 21.2315 26.1514 21.1234 25.5433 21.1234H22.3593V25.895ZM22.3593 18.5534H25.1749C25.6953 18.5534 26.1572 18.4627 26.5607 18.2815C26.9701 18.0943 27.2917 17.8312 27.5256 17.492C27.7653 17.1529 27.8852 16.7465 27.8852 16.2728C27.8852 15.6238 27.6542 15.1004 27.1923 14.7028C26.7362 14.3051 26.0871 14.1063 25.245 14.1063H22.3593V18.5534ZM40.9084 29.2631C39.5284 29.2631 38.3413 28.9708 37.3472 28.386C36.359 27.7954 35.5988 26.9768 35.0667 25.93C34.5404 24.8833 34.2773 23.6787 34.2773 22.3163C34.2773 20.9362 34.5433 19.7258 35.0755 18.6849C35.6134 17.6382 36.3765 16.8225 37.3648 16.2377C38.353 15.6471 39.5284 15.3518 40.8908 15.3518C42.0662 15.3518 43.0954 15.5653 43.9783 15.9922C44.8613 16.419 45.5601 17.0184 46.0747 17.7903C46.5893 18.5621 46.8729 19.4685 46.9255 20.5094H43.3994C43.3 19.8369 43.0369 19.296 42.61 18.8867C42.189 18.4715 41.6364 18.2639 40.9522 18.2639C40.3733 18.2639 39.8675 18.4218 39.4348 18.7376C39.0079 19.0475 38.6746 19.5007 38.4349 20.0971C38.1951 20.6936 38.0753 21.4157 38.0753 22.2636C38.0753 23.1232 38.1922 23.8542 38.4261 24.4565C38.6659 25.0588 39.0021 25.5178 39.4348 25.8336C39.8675 26.1493 40.3733 26.3072 40.9522 26.3072C41.3791 26.3072 41.7621 26.2195 42.1013 26.0441C42.4463 25.8686 42.7299 25.6143 42.9521 25.281C43.1802 24.9418 43.3293 24.5354 43.3994 24.0618H46.9255C46.867 25.0909 46.5863 25.9973 46.0835 26.7809C45.5864 27.5586 44.8993 28.1667 44.0222 28.6053C43.1451 29.0439 42.1071 29.2631 40.9084 29.2631ZM55.4578 29.2631C54.0719 29.2631 52.879 28.9825 51.8791 28.4211C50.885 27.8539 50.119 27.0528 49.581 26.0178C49.043 24.9769 48.7741 23.746 48.7741 22.325C48.7741 20.9392 49.043 19.7229 49.581 18.6762C50.119 17.6295 50.8763 16.8137 51.8528 16.229C52.8352 15.6442 53.9871 15.3518 55.3087 15.3518C56.1975 15.3518 57.0249 15.4951 57.791 15.7816C58.5628 16.0623 59.2353 16.4863 59.8084 17.0535C60.3873 17.6207 60.8375 18.3341 61.1591 19.1937C61.4808 20.0474 61.6416 21.0473 61.6416 22.1935V23.2197H50.2652V20.9041H58.1243C58.1243 20.3661 58.0073 19.8895 57.7734 19.4744C57.5395 19.0592 57.215 18.7346 56.7998 18.5007C56.3905 18.261 55.9139 18.1411 55.3701 18.1411C54.8029 18.1411 54.3 18.2727 53.8614 18.5358C53.4287 18.7931 53.0895 19.1411 52.8439 19.5796C52.5984 20.0123 52.4726 20.4948 52.4668 21.0269V23.2285C52.4668 23.8951 52.5896 24.4711 52.8352 24.9564C53.0866 25.4418 53.4404 25.816 53.8965 26.0792C54.3526 26.3423 54.8935 26.4739 55.5192 26.4739C55.9344 26.4739 56.3145 26.4154 56.6595 26.2984C57.0045 26.1815 57.2998 26.0061 57.5454 25.7722C57.791 25.5383 57.9781 25.2517 58.1067 24.9126L61.5626 25.1406C61.3872 25.971 61.0276 26.6961 60.4838 27.3159C59.9458 27.9299 59.2499 28.4094 58.3962 28.7544C57.5483 29.0936 56.5688 29.2631 55.4578 29.2631ZM73.3074 15.5273V18.4657H67.7113V29H64.08V15.5273H73.3074ZM81.1906 29.2631C79.8281 29.2631 78.6499 28.9737 77.6558 28.3948C76.6675 27.81 75.9044 26.9972 75.3665 25.9564C74.8285 24.9096 74.5595 23.6963 74.5595 22.3163C74.5595 20.9245 74.8285 19.7083 75.3665 18.6674C75.9044 17.6207 76.6675 16.8079 77.6558 16.229C78.6499 15.6442 79.8281 15.3518 81.1906 15.3518C82.5531 15.3518 83.7285 15.6442 84.7167 16.229C85.7108 16.8079 86.4768 17.6207 87.0148 18.6674C87.5527 19.7083 87.8217 20.9245 87.8217 22.3163C87.8217 23.6963 87.5527 24.9096 87.0148 25.9564C86.4768 26.9972 85.7108 27.81 84.7167 28.3948C83.7285 28.9737 82.5531 29.2631 81.1906 29.2631ZM81.2082 26.3686C81.828 26.3686 82.3455 26.1932 82.7607 25.8423C83.1759 25.4856 83.4887 25.0003 83.6992 24.3863C83.9156 23.7723 84.0238 23.0735 84.0238 22.2899C84.0238 21.5064 83.9156 20.8076 83.6992 20.1936C83.4887 19.5796 83.1759 19.0943 82.7607 18.7376C82.3455 18.3809 81.828 18.2025 81.2082 18.2025C80.5825 18.2025 80.0562 18.3809 79.6293 18.7376C79.2083 19.0943 78.8896 19.5796 78.6733 20.1936C78.4627 20.8076 78.3575 21.5064 78.3575 22.2899C78.3575 23.0735 78.4627 23.7723 78.6733 24.3863C78.8896 25.0003 79.2083 25.4856 79.6293 25.8423C80.0562 26.1932 80.5825 26.3686 81.2082 26.3686ZM111.309 11.0364V29H107.555V14.1239H100.292V29H96.5382V11.0364H111.309ZM120.942 29.2631C119.58 29.2631 118.401 28.9737 117.407 28.3948C116.419 27.81 115.656 26.9972 115.118 25.9564C114.58 24.9096 114.311 23.6963 114.311 22.3163C114.311 20.9245 114.58 19.7083 115.118 18.6674C115.656 17.6207 116.419 16.8079 117.407 16.229C118.401 15.6442 119.58 15.3518 120.942 15.3518C122.305 15.3518 123.48 15.6442 124.468 16.229C125.462 16.8079 126.228 17.6207 126.766 18.6674C127.304 19.7083 127.573 20.9245 127.573 22.3163C127.573 23.6963 127.304 24.9096 126.766 25.9564C126.228 26.9972 125.462 27.81 124.468 28.3948C123.48 28.9737 122.305 29.2631 120.942 29.2631ZM120.96 26.3686C121.58 26.3686 122.097 26.1932 122.512 25.8423C122.927 25.4856 123.24 25.0003 123.451 24.3863C123.667 23.7723 123.775 23.0735 123.775 22.2899C123.775 21.5064 123.667 20.8076 123.451 20.1936C123.24 19.5796 122.927 19.0943 122.512 18.7376C122.097 18.3809 121.58 18.2025 120.96 18.2025C120.334 18.2025 119.808 18.3809 119.381 18.7376C118.96 19.0943 118.641 19.5796 118.425 20.1936C118.214 20.8076 118.109 21.5064 118.109 22.2899C118.109 23.0735 118.214 23.7723 118.425 24.3863C118.641 25.0003 118.96 25.4856 119.381 25.8423C119.808 26.1932 120.334 26.3686 120.96 26.3686ZM129.214 29L129.196 26.0353H129.643C129.959 26.0353 130.231 25.9593 130.459 25.8072C130.693 25.6494 130.886 25.395 131.038 25.0441C131.19 24.6933 131.31 24.2284 131.398 23.6495C131.485 23.0647 131.544 22.3455 131.573 21.4918L131.792 15.5273H142.037V29H138.476V18.4657H135.152L134.941 22.5794C134.889 23.708 134.751 24.6787 134.529 25.4915C134.313 26.3043 134.011 26.9709 133.625 27.4913C133.24 28.0059 132.775 28.386 132.231 28.6316C131.687 28.8772 131.055 29 130.336 29H129.214ZM147.276 19.6673H151.302C153.085 19.6673 154.477 20.0942 155.477 20.9479C156.477 21.7958 156.977 22.9303 156.977 24.3512C156.977 25.2751 156.752 26.0879 156.302 26.7896C155.851 27.4855 155.202 28.0293 154.354 28.4211C153.506 28.807 152.489 29 151.302 29H144.934V15.5273H148.504V26.0616H151.302C151.928 26.0616 152.442 25.9037 152.846 25.588C153.249 25.2722 153.454 24.8687 153.46 24.3775C153.454 23.8571 153.249 23.4331 152.846 23.1057C152.442 22.7724 151.928 22.6057 151.302 22.6057H147.276V19.6673ZM158.762 25.1845H162.384C162.402 25.6289 162.601 25.9797 162.981 26.237C163.361 26.4943 163.852 26.623 164.454 26.623C165.063 26.623 165.574 26.4826 165.989 26.202C166.405 25.9154 166.612 25.5061 166.612 24.974C166.612 24.6465 166.53 24.3629 166.367 24.1232C166.203 23.8776 165.975 23.6846 165.682 23.5442C165.39 23.4039 165.051 23.3337 164.665 23.3337H162.727V20.8865H164.665C165.244 20.8865 165.688 20.752 165.998 20.4831C166.314 20.2141 166.472 19.8778 166.472 19.4744C166.472 19.0183 166.308 18.6528 165.981 18.3779C165.659 18.0973 165.223 17.9569 164.674 17.9569C164.118 17.9569 163.656 18.0826 163.288 18.3341C162.925 18.5797 162.738 18.9013 162.727 19.2989H159.121C159.133 18.492 159.376 17.7932 159.85 17.2026C160.329 16.612 160.972 16.1559 161.779 15.8343C162.592 15.5127 163.501 15.3518 164.507 15.3518C165.606 15.3518 166.554 15.5068 167.349 15.8167C168.15 16.1208 168.764 16.5564 169.191 17.1236C169.624 17.6909 169.84 18.3663 169.84 19.1498C169.84 19.8632 169.606 20.4597 169.138 20.9392C168.671 21.4187 168.016 21.7607 167.174 21.9654V22.1058C167.729 22.1408 168.232 22.2899 168.682 22.5531C169.132 22.8162 169.492 23.1788 169.761 23.6407C170.03 24.0968 170.165 24.6377 170.165 25.2634C170.165 26.0996 169.919 26.8159 169.428 27.4124C168.942 28.0088 168.27 28.4679 167.41 28.7895C166.557 29.1053 165.577 29.2631 164.472 29.2631C163.396 29.2631 162.431 29.1082 161.577 28.7983C160.73 28.4825 160.054 28.0205 159.551 27.4124C159.054 26.8042 158.791 26.0616 158.762 25.1845ZM178.543 29.2631C177.181 29.2631 176.003 28.9737 175.009 28.3948C174.02 27.81 173.257 26.9972 172.719 25.9564C172.181 24.9096 171.912 23.6963 171.912 22.3163C171.912 20.9245 172.181 19.7083 172.719 18.6674C173.257 17.6207 174.02 16.8079 175.009 16.229C176.003 15.6442 177.181 15.3518 178.543 15.3518C179.906 15.3518 181.081 15.6442 182.069 16.229C183.064 16.8079 183.83 17.6207 184.368 18.6674C184.905 19.7083 185.174 20.9245 185.174 22.3163C185.174 23.6963 184.905 24.9096 184.368 25.9564C183.83 26.9972 183.064 27.81 182.069 28.3948C181.081 28.9737 179.906 29.2631 178.543 29.2631ZM178.561 26.3686C179.181 26.3686 179.698 26.1932 180.113 25.8423C180.529 25.4856 180.841 25.0003 181.052 24.3863C181.268 23.7723 181.376 23.0735 181.376 22.2899C181.376 21.5064 181.268 20.8076 181.052 20.1936C180.841 19.5796 180.529 19.0943 180.113 18.7376C179.698 18.3809 179.181 18.2025 178.561 18.2025C177.935 18.2025 177.409 18.3809 176.982 18.7376C176.561 19.0943 176.242 19.5796 176.026 20.1936C175.815 20.8076 175.71 21.5064 175.71 22.2899C175.71 23.0735 175.815 23.7723 176.026 24.3863C176.242 25.0003 176.561 25.4856 176.982 25.8423C177.409 26.1932 177.935 26.3686 178.561 26.3686ZM187.604 29V15.5273H193.349C195.01 15.5273 196.323 15.843 197.288 16.4746C198.252 17.1061 198.735 18.0037 198.735 19.1674C198.735 19.8983 198.463 20.5065 197.919 20.9918C197.375 21.4771 196.621 21.8046 195.656 21.9742C196.463 22.0327 197.15 22.2169 197.717 22.5268C198.29 22.8308 198.726 23.2256 199.024 23.7109C199.328 24.1962 199.48 24.7342 199.48 25.3248C199.48 26.0908 199.276 26.7487 198.866 27.2984C198.463 27.848 197.869 28.2691 197.086 28.5614C196.308 28.8538 195.358 29 194.235 29H187.604ZM191.086 26.202H194.235C194.756 26.202 195.162 26.0792 195.454 25.8336C195.753 25.5821 195.902 25.24 195.902 24.8073C195.902 24.3278 195.753 23.9507 195.454 23.6758C195.162 23.401 194.756 23.2636 194.235 23.2636H191.086V26.202ZM191.086 21.0707H193.428C193.803 21.0707 194.121 21.0181 194.384 20.9129C194.653 20.8018 194.858 20.6439 194.998 20.4392C195.145 20.2345 195.218 19.9919 195.218 19.7112C195.218 19.296 195.051 18.9715 194.718 18.7376C194.384 18.5037 193.928 18.3867 193.349 18.3867H191.086V21.0707ZM205.677 29.2544C204.818 29.2544 204.052 29.1053 203.379 28.807C202.707 28.503 202.175 28.0556 201.783 27.465C201.397 26.8686 201.204 26.1259 201.204 25.2371C201.204 24.4886 201.341 23.86 201.616 23.3513C201.891 22.8425 202.265 22.4332 202.739 22.1233C203.213 21.8134 203.751 21.5795 204.353 21.4216C204.961 21.2637 205.598 21.1526 206.265 21.0883C207.049 21.0064 207.68 20.9304 208.16 20.8602C208.639 20.7842 208.987 20.6731 209.203 20.5269C209.42 20.3807 209.528 20.1644 209.528 19.8778V19.8252C209.528 19.2697 209.353 18.8399 209.002 18.5358C208.657 18.2318 208.166 18.0797 207.528 18.0797C206.856 18.0797 206.321 18.2288 205.923 18.5271C205.525 18.8194 205.262 19.1878 205.134 19.6322L201.678 19.3516C201.853 18.5329 202.198 17.8254 202.713 17.2289C203.227 16.6266 203.891 16.1647 204.704 15.843C205.522 15.5156 206.47 15.3518 207.546 15.3518C208.294 15.3518 209.01 15.4396 209.695 15.615C210.385 15.7904 210.996 16.0623 211.528 16.4307C212.066 16.7991 212.49 17.2728 212.8 17.8517C213.11 18.4247 213.265 19.1118 213.265 19.9129V29H209.721V27.1317H209.616C209.399 27.5527 209.11 27.9241 208.747 28.2457C208.385 28.5614 207.949 28.81 207.44 28.9912C206.932 29.1667 206.344 29.2544 205.677 29.2544ZM206.747 26.6756C207.297 26.6756 207.783 26.5674 208.204 26.3511C208.625 26.1289 208.955 25.8306 209.195 25.4564C209.434 25.0821 209.554 24.6582 209.554 24.1846V22.7548C209.437 22.8308 209.277 22.901 209.072 22.9653C208.873 23.0238 208.648 23.0794 208.396 23.132C208.145 23.1788 207.894 23.2226 207.642 23.2636C207.391 23.2987 207.163 23.3308 206.958 23.36C206.519 23.4244 206.136 23.5267 205.809 23.667C205.481 23.8074 205.227 23.9974 205.046 24.2372C204.865 24.4711 204.774 24.7635 204.774 25.1143C204.774 25.623 204.958 26.0119 205.327 26.2809C205.701 26.544 206.174 26.6756 206.747 26.6756ZM214.811 18.4657V15.5273H227.02V18.4657H222.678V29H219.117V18.4657H214.811ZM234.943 29.2631C233.557 29.2631 232.364 28.9825 231.364 28.4211C230.37 27.8539 229.604 27.0528 229.066 26.0178C228.528 24.9769 228.259 23.746 228.259 22.325C228.259 20.9392 228.528 19.7229 229.066 18.6762C229.604 17.6295 230.361 16.8137 231.338 16.229C232.32 15.6442 233.472 15.3518 234.794 15.3518C235.683 15.3518 236.51 15.4951 237.276 15.7816C238.048 16.0623 238.72 16.4863 239.293 17.0535C239.872 17.6207 240.323 18.3341 240.644 19.1937C240.966 20.0474 241.127 21.0473 241.127 22.1935V23.2197H229.75V20.9041H237.609C237.609 20.3661 237.492 19.8895 237.258 19.4744C237.025 19.0592 236.7 18.7346 236.285 18.5007C235.876 18.261 235.399 18.1411 234.855 18.1411C234.288 18.1411 233.785 18.2727 233.346 18.5358C232.914 18.7931 232.575 19.1411 232.329 19.5796C232.083 20.0123 231.958 20.4948 231.952 21.0269V23.2285C231.952 23.8951 232.075 24.4711 232.32 24.9564C232.572 25.4418 232.925 25.816 233.382 26.0792C233.838 26.3423 234.379 26.4739 235.004 26.4739C235.419 26.4739 235.8 26.4154 236.145 26.2984C236.49 26.1815 236.785 26.0061 237.03 25.7722C237.276 25.5383 237.463 25.2517 237.592 24.9126L241.048 25.1406C240.872 25.971 240.513 26.6961 239.969 27.3159C239.431 27.9299 238.735 28.4094 237.881 28.7544C237.033 29.0936 236.054 29.2631 234.943 29.2631ZM242.776 29L242.758 26.0353H243.205C243.521 26.0353 243.793 25.9593 244.021 25.8072C244.255 25.6494 244.448 25.395 244.6 25.0441C244.752 24.6933 244.872 24.2284 244.96 23.6495C245.047 23.0647 245.106 22.3455 245.135 21.4918L245.354 15.5273H255.599V29H252.038V18.4657H248.714L248.503 22.5794C248.451 23.708 248.313 24.6787 248.091 25.4915C247.875 26.3043 247.574 26.9709 247.188 27.4913C246.802 28.0059 246.337 28.386 245.793 28.6316C245.249 28.8772 244.618 29 243.898 29H242.776ZM264.636 29.2631C263.25 29.2631 262.057 28.9825 261.057 28.4211C260.063 27.8539 259.297 27.0528 258.759 26.0178C258.221 24.9769 257.952 23.746 257.952 22.325C257.952 20.9392 258.221 19.7229 258.759 18.6762C259.297 17.6295 260.054 16.8137 261.031 16.229C262.013 15.6442 263.165 15.3518 264.487 15.3518C265.376 15.3518 266.203 15.4951 266.969 15.7816C267.741 16.0623 268.413 16.4863 268.987 17.0535C269.565 17.6207 270.016 18.3341 270.337 19.1937C270.659 20.0474 270.82 21.0473 270.82 22.1935V23.2197H259.443V20.9041H267.302C267.302 20.3661 267.185 19.8895 266.952 19.4744C266.718 19.0592 266.393 18.7346 265.978 18.5007C265.569 18.261 265.092 18.1411 264.548 18.1411C263.981 18.1411 263.478 18.2727 263.04 18.5358C262.607 18.7931 262.268 19.1411 262.022 19.5796C261.776 20.0123 261.651 20.4948 261.645 21.0269V23.2285C261.645 23.8951 261.768 24.4711 262.013 24.9564C262.265 25.4418 262.619 25.816 263.075 26.0792C263.531 26.3423 264.072 26.4739 264.697 26.4739C265.113 26.4739 265.493 26.4154 265.838 26.2984C266.183 26.1815 266.478 26.0061 266.724 25.7722C266.969 25.5383 267.156 25.2517 267.285 24.9126L270.741 25.1406C270.565 25.971 270.206 26.6961 269.662 27.3159C269.124 27.9299 268.428 28.4094 267.574 28.7544C266.726 29.0936 265.747 29.2631 264.636 29.2631ZM276.828 24.0705L281.679 15.5273H285.363V29H281.801V20.4304L276.968 29H273.258V15.5273H276.828V24.0705ZM281.038 10.8259H283.643C283.638 11.8901 283.243 12.7468 282.459 13.3958C281.681 14.0449 280.629 14.3695 279.302 14.3695C277.968 14.3695 276.913 14.0449 276.135 13.3958C275.357 12.7468 274.969 11.8901 274.969 10.8259H277.556C277.55 11.2293 277.679 11.5919 277.942 11.9135C278.211 12.2351 278.664 12.3959 279.302 12.3959C279.921 12.3959 280.366 12.238 280.635 11.9223C280.904 11.6065 281.038 11.241 281.038 10.8259Z" fill="#177CFF"/>
</svg>
