<svg width="600" height="128" viewBox="0 0 600 128" fill="none" xmlns="http://www.w3.org/2000/svg">
<rect width="600" height="128" rx="15" fill="#177CFF"/>
<path d="M230.773 79V48.5927H243.957C246.273 48.5927 248.218 48.9045 249.792 49.5281C251.376 50.1517 252.568 51.0326 253.37 52.1709C254.182 53.3092 254.588 54.6504 254.588 56.1945C254.588 57.313 254.34 58.3326 253.845 59.2531C253.36 60.1736 252.677 60.9457 251.796 61.5693C250.915 62.183 249.886 62.6086 248.708 62.8461V63.1431C250.015 63.1926 251.202 63.5242 252.271 64.1379C253.341 64.7416 254.192 65.578 254.825 66.647C255.459 67.7062 255.775 68.9533 255.775 70.3886C255.775 72.0515 255.34 73.5312 254.469 74.8279C253.608 76.1246 252.38 77.1441 250.787 77.8865C249.193 78.6288 247.293 79 245.085 79H230.773ZM239.028 72.4078H242.888C244.274 72.4078 245.313 72.1504 246.006 71.6357C246.699 71.1111 247.045 70.3391 247.045 69.3196C247.045 68.6069 246.882 68.0031 246.555 67.5082C246.229 67.0133 245.763 66.6371 245.16 66.3798C244.566 66.1224 243.848 65.9938 243.007 65.9938H239.028V72.4078ZM239.028 60.8863H242.413C243.135 60.8863 243.774 60.7725 244.328 60.5448C244.882 60.3171 245.313 59.9905 245.62 59.5649C245.937 59.1294 246.095 58.5998 246.095 57.9762C246.095 57.0359 245.758 56.3183 245.085 55.8234C244.412 55.3186 243.561 55.0661 242.532 55.0661H239.028V60.8863ZM287.088 59.9955H278.715C278.655 59.3026 278.497 58.674 278.239 58.1098C277.992 57.5456 277.646 57.0606 277.2 56.6548C276.765 56.2391 276.235 55.9223 275.611 55.7046C274.988 55.4769 274.28 55.3631 273.488 55.3631C272.103 55.3631 270.93 55.6996 269.969 56.3727C269.019 57.0458 268.297 58.0109 267.802 59.2679C267.317 60.525 267.074 62.0345 267.074 63.7964C267.074 65.6572 267.322 67.2162 267.817 68.4733C268.321 69.7204 269.049 70.6608 269.999 71.2943C270.949 71.9178 272.093 72.2296 273.429 72.2296C274.191 72.2296 274.874 72.1356 275.478 71.9475C276.082 71.7496 276.606 71.4675 277.052 71.1012C277.497 70.735 277.858 70.2945 278.135 69.7798C278.423 69.2552 278.616 68.6663 278.715 68.013L287.088 68.0724C286.989 69.3592 286.628 70.6707 286.005 72.0069C285.381 73.3333 284.495 74.5607 283.347 75.6891C282.209 76.8075 280.798 77.7083 279.115 78.3913C277.433 79.0742 275.478 79.4157 273.251 79.4157C270.459 79.4157 267.955 78.8169 265.738 77.6192C263.531 76.4215 261.784 74.6596 260.497 72.3336C259.22 70.0075 258.582 67.1618 258.582 63.7964C258.582 60.4112 259.235 57.5605 260.541 55.2443C261.848 52.9182 263.61 51.1613 265.827 49.9735C268.044 48.7758 270.519 48.177 273.251 48.177C275.171 48.177 276.938 48.4393 278.551 48.9639C280.165 49.4885 281.58 50.2556 282.798 51.2652C284.015 52.265 284.995 53.4973 285.737 54.9622C286.48 56.4272 286.93 58.1049 287.088 59.9955ZM290.834 79V48.5927H312.748V55.2443H299.089V60.4706H311.62V67.1222H299.089V72.3484H312.689V79H290.834ZM338.223 48.5927V55.2443H325.098V79H316.842V48.5927H338.223ZM369.328 63.7964C369.328 67.1815 368.669 70.0372 367.353 72.3633C366.036 74.6794 364.26 76.4364 362.023 77.634C359.786 78.8218 357.291 79.4157 354.54 79.4157C351.768 79.4157 349.264 78.8169 347.027 77.6192C344.8 76.4116 343.028 74.6497 341.712 72.3336C340.405 70.0075 339.752 67.1618 339.752 63.7964C339.752 60.4112 340.405 57.5605 341.712 55.2443C343.028 52.9182 344.8 51.1613 347.027 49.9735C349.264 48.7758 351.768 48.177 354.54 48.177C357.291 48.177 359.786 48.7758 362.023 49.9735C364.26 51.1613 366.036 52.9182 367.353 55.2443C368.669 57.5605 369.328 60.4112 369.328 63.7964ZM360.835 63.7964C360.835 61.9751 360.592 60.4409 360.107 59.1937C359.632 57.9366 358.925 56.9864 357.984 56.343C357.054 55.6897 355.906 55.3631 354.54 55.3631C353.174 55.3631 352.021 55.6897 351.08 56.343C350.15 56.9864 349.442 57.9366 348.957 59.1937C348.482 60.4409 348.244 61.9751 348.244 63.7964C348.244 65.6176 348.482 67.1568 348.957 68.4139C349.442 69.661 350.15 70.6113 351.08 71.2646C352.021 71.9079 353.174 72.2296 354.54 72.2296C355.906 72.2296 357.054 71.9079 357.984 71.2646C358.925 70.6113 359.632 69.661 360.107 68.4139C360.592 67.1568 360.835 65.6176 360.835 63.7964Z" fill="white"/>
</svg>
