<svg width="1203" height="114" viewBox="0 0 1203 114" fill="none" xmlns="http://www.w3.org/2000/svg">
<rect y="27" width="505" height="63" rx="31.5" fill="#177CFF"/>
<path d="M71.4364 58.7056C71.4364 63.2243 70.5578 67.0361 68.8005 70.141C67.0433 73.2327 64.6716 75.578 61.6856 77.1767C58.6996 78.7622 55.37 79.5549 51.697 79.5549C47.9975 79.5549 44.6547 78.7556 41.6687 77.1569C38.6959 75.5449 36.3309 73.1931 34.5736 70.1014C32.8295 66.9965 31.9575 63.1979 31.9575 58.7056C31.9575 54.187 32.8295 50.3818 34.5736 47.29C36.3309 44.1851 38.6959 41.8399 41.6687 40.2544C44.6547 38.6557 47.9975 37.8563 51.697 37.8563C55.37 37.8563 58.6996 38.6557 61.6856 40.2544C64.6716 41.8399 67.0433 44.1851 68.8005 47.29C70.5578 50.3818 71.4364 54.187 71.4364 58.7056ZM60.1001 58.7056C60.1001 56.2745 59.7764 54.2266 59.129 52.5618C58.4948 50.8838 57.5501 49.6154 56.2949 48.7566C55.0529 47.8846 53.5203 47.4486 51.697 47.4486C49.8737 47.4486 48.3344 47.8846 47.0792 48.7566C45.8372 49.6154 44.8925 50.8838 44.2451 52.5618C43.6109 54.2266 43.2938 56.2745 43.2938 58.7056C43.2938 61.1367 43.6109 63.1913 44.2451 64.8692C44.8925 66.534 45.8372 67.8024 47.0792 68.6744C48.3344 69.5333 49.8737 69.9627 51.697 69.9627C53.5203 69.9627 55.0529 69.5333 56.2949 68.6744C57.5501 67.8024 58.4948 66.534 59.129 64.8692C59.7764 63.1913 60.1001 61.1367 60.1001 58.7056ZM76.5348 79V38.4112H105.074V47.29H87.554V52.0465H91.6763C95.0851 52.0465 98.0645 52.5948 100.615 53.6915C103.178 54.7881 105.166 56.334 106.58 58.3291C108.007 60.3242 108.72 62.6694 108.72 65.3647C108.72 68.0601 108.007 70.4317 106.58 72.4796C105.166 74.5276 103.178 76.1263 100.615 77.2758C98.0645 78.4253 95.0851 79 91.6763 79H76.5348ZM87.554 70.359H91.6763C92.9976 70.359 94.1074 70.141 95.0059 69.705C95.9175 69.269 96.6046 68.6678 97.067 67.9015C97.5426 67.1352 97.7805 66.2632 97.7805 65.2854C97.7805 63.8981 97.2586 62.7486 96.2148 61.837C95.171 60.9121 93.6582 60.4497 91.6763 60.4497H87.554V70.359ZM171.516 70.8347L170.961 88.513H161.21V79H158.277V70.8347H171.516ZM115.31 38.4112H126.012V70.5176H135.922V38.4112H146.544V70.5176H156.216V38.4112H166.839V79H115.31V38.4112ZM175.237 38.4112H186.256V59.6569H186.573L201.001 38.4112H210.356V79H199.337V57.675H199.099L184.433 79H175.237V38.4112ZM215.568 38.4112H226.587V59.6569H226.904L241.332 38.4112H250.687V79H239.668V57.675H239.43L224.764 79H215.568V38.4112ZM237.131 27.4713H244.028C244.015 30.0477 243.03 32.1089 241.075 33.6547C239.119 35.1874 236.483 35.9537 233.167 35.9537C229.824 35.9537 227.175 35.1874 225.22 33.6547C223.264 32.1089 222.293 30.0477 222.306 27.4713H229.124C229.111 28.3037 229.408 29.07 230.016 29.7703C230.637 30.4573 231.687 30.8009 233.167 30.8009C234.581 30.8009 235.592 30.4639 236.199 29.7901C236.807 29.1163 237.118 28.3433 237.131 27.4713ZM306.338 58.7056C306.338 63.2243 305.459 67.0361 303.702 70.141C301.945 73.2327 299.573 75.578 296.587 77.1767C293.601 78.7622 290.272 79.5549 286.598 79.5549C282.899 79.5549 279.556 78.7556 276.57 77.1569C273.597 75.5449 271.232 73.1931 269.475 70.1014C267.731 66.9965 266.859 63.1979 266.859 58.7056C266.859 54.187 267.731 50.3818 269.475 47.29C271.232 44.1851 273.597 41.8399 276.57 40.2544C279.556 38.6557 282.899 37.8563 286.598 37.8563C290.272 37.8563 293.601 38.6557 296.587 40.2544C299.573 41.8399 301.945 44.1851 303.702 47.29C305.459 50.3818 306.338 54.187 306.338 58.7056ZM295.002 58.7056C295.002 56.2745 294.678 54.2266 294.03 52.5618C293.396 50.8838 292.452 49.6154 291.196 48.7566C289.954 47.8846 288.422 47.4486 286.598 47.4486C284.775 47.4486 283.236 47.8846 281.981 48.7566C280.739 49.6154 279.794 50.8838 279.147 52.5618C278.512 54.2266 278.195 56.2745 278.195 58.7056C278.195 61.1367 278.512 63.1913 279.147 64.8692C279.794 66.534 280.739 67.8024 281.981 68.6744C283.236 69.5333 284.775 69.9627 286.598 69.9627C288.422 69.9627 289.954 69.5333 291.196 68.6744C292.452 67.8024 293.396 66.534 294.03 64.8692C294.678 63.1913 295.002 61.1367 295.002 58.7056ZM311.436 79V38.4112H339.975V47.29H322.455V52.0465H326.578C329.987 52.0465 332.966 52.5948 335.516 53.6915C338.079 54.7881 340.068 56.334 341.481 58.3291C342.908 60.3242 343.622 62.6694 343.622 65.3647C343.622 68.0601 342.908 70.4317 341.481 72.4796C340.068 74.5276 338.079 76.1263 335.516 77.2758C332.966 78.4253 329.987 79 326.578 79H311.436ZM322.455 70.359H326.578C327.899 70.359 329.009 70.141 329.907 69.705C330.819 69.269 331.506 68.6678 331.968 67.9015C332.444 67.1352 332.682 66.2632 332.682 65.2854C332.682 63.8981 332.16 62.7486 331.116 61.837C330.072 60.9121 328.56 60.4497 326.578 60.4497H322.455V70.359ZM343.245 46.6558V38.4112H359.576V46.6558H343.245ZM360.686 52.0465H369.089C372.511 52.0465 375.497 52.5948 378.047 53.6915C380.61 54.7881 382.599 56.334 384.012 58.3291C385.439 60.3242 386.146 62.6694 386.133 65.3647C386.146 68.0601 385.439 70.4317 384.012 72.4796C382.599 74.5276 380.61 76.1263 378.047 77.2758C375.497 78.4253 372.511 79 369.089 79H353.947V38.4112H364.967V70.359H369.089C370.423 70.359 371.54 70.141 372.438 69.705C373.35 69.269 374.037 68.6678 374.499 67.9015C374.975 67.1352 375.206 66.2632 375.193 65.2854C375.206 63.8981 374.691 62.7486 373.647 61.837C372.603 60.9121 371.084 60.4497 369.089 60.4497H360.686V52.0465ZM390.572 79V38.4112H419.825V47.29H401.592V54.2662H418.319V63.145H401.592V70.1212H419.746V79H390.572ZM399.055 34.8439C397.707 34.8439 396.564 34.3946 395.626 33.4962C394.688 32.5977 394.219 31.5143 394.219 30.2459C394.219 28.9775 394.688 27.8941 395.626 26.9957C396.564 26.0972 397.707 25.648 399.055 25.648C400.363 25.648 401.479 26.0972 402.404 26.9957C403.342 27.8941 403.811 28.9775 403.811 30.2459C403.811 31.5143 403.342 32.5977 402.404 33.4962C401.479 34.3946 400.363 34.8439 399.055 34.8439ZM411.66 34.8439C410.312 34.8439 409.169 34.3946 408.231 33.4962C407.293 32.5977 406.824 31.5143 406.824 30.2459C406.824 28.9775 407.293 27.8941 408.231 26.9957C409.169 26.0972 410.312 25.648 411.66 25.648C412.968 25.648 414.084 26.0972 415.009 26.9957C415.947 27.8941 416.416 28.9775 416.416 30.2459C416.416 31.5143 415.947 32.5977 415.009 33.4962C414.084 34.3946 412.968 34.8439 411.66 34.8439ZM425.29 38.4112H439.004L448.438 61.401H448.914L458.348 38.4112H472.062V79H461.281V55.5346H460.964L451.926 78.6829H445.426L436.388 55.3761H436.071V79H425.29V38.4112Z" fill="white"/>
<rect x="513" y="24" width="97" height="66" rx="33" fill="#177CFF"/>
<path d="M543.616 36.9109H554.635V58.1568H554.953L569.381 36.9109H578.735V77.5H567.716V56.1749H567.478L552.812 77.5H543.616V36.9109Z" fill="white"/>
<rect x="618" y="24" width="557" height="66" rx="33" fill="#177CFF"/>
<path d="M647.268 87.2509V69.0175H650.122C651.074 68.4362 651.932 67.617 652.699 66.56C653.478 65.503 654.139 63.9901 654.681 62.0214C655.236 60.0528 655.645 57.4169 655.909 54.1137L657.257 36.9109H685.955V69.0175H690.236V87.2509H679.613V77.5H657.891V87.2509H647.268ZM662.727 69.0175H675.332V45.7898H667.167L666.532 54.1137C666.347 56.5977 666.063 58.7711 665.68 60.6341C665.31 62.4839 664.868 64.0958 664.352 65.4699C663.85 66.8308 663.308 68.0134 662.727 69.0175ZM693.404 77.5V36.9109H704.423V52.766H719.01V36.9109H730.029V77.5H719.01V61.6449H704.423V77.5H693.404ZM734.703 77.5V36.9109H763.956V45.7898H745.722V52.766H762.449V61.6449H745.722V68.6211H763.876V77.5H734.703ZM768.863 77.5V36.9109H786.462C789.554 36.9109 792.15 37.3271 794.251 38.1595C796.365 38.9919 797.957 40.1678 799.027 41.6873C800.11 43.2067 800.652 44.997 800.652 47.0582C800.652 48.5512 800.322 49.9121 799.661 51.1409C799.014 52.3696 798.102 53.4002 796.926 54.2326C795.75 55.0518 794.376 55.6199 792.804 55.937V56.3334C794.548 56.3995 796.133 56.8421 797.56 57.6613C798.987 58.4673 800.124 59.5837 800.969 61.0107C801.815 62.4244 802.238 64.0892 802.238 66.005C802.238 68.2248 801.656 70.2 800.494 71.9309C799.344 73.6617 797.706 75.0226 795.579 76.0136C793.451 77.0045 790.914 77.5 787.968 77.5H768.863ZM779.882 68.7004H785.035C786.885 68.7004 788.272 68.3569 789.197 67.6698C790.122 66.9696 790.584 65.939 790.584 64.5781C790.584 63.6268 790.366 62.8208 789.93 62.1602C789.494 61.4995 788.873 60.9975 788.067 60.6539C787.274 60.3104 786.317 60.1386 785.193 60.1386H779.882V68.7004ZM779.882 53.321H784.401C785.365 53.321 786.217 53.169 786.957 52.8651C787.697 52.5612 788.272 52.1252 788.682 51.5571C789.104 50.9757 789.316 50.2688 789.316 49.4364C789.316 48.1812 788.867 47.2233 787.968 46.5627C787.07 45.8889 785.933 45.5519 784.559 45.5519H779.882V53.321ZM805.584 77.5V36.9109H816.603V52.766H831.19V36.9109H842.209V77.5H831.19V61.6449H816.603V77.5H805.584ZM886.204 57.2055C886.204 61.7242 885.325 65.536 883.568 68.641C881.811 71.7327 879.439 74.0779 876.453 75.6767C873.467 77.2622 870.137 78.0549 866.464 78.0549C862.765 78.0549 859.422 77.2556 856.436 75.6568C853.463 74.0449 851.098 71.6931 849.341 68.6013C847.597 65.4964 846.725 61.6977 846.725 57.2055C846.725 52.6867 847.597 48.8815 849.341 45.7898C851.098 42.6848 853.463 40.3396 856.436 38.7541C859.422 37.1553 862.765 36.356 866.464 36.356C870.137 36.356 873.467 37.1553 876.453 38.7541C879.439 40.3396 881.811 42.6848 883.568 45.7898C885.325 48.8815 886.204 52.6867 886.204 57.2055ZM874.868 57.2055C874.868 54.7743 874.544 52.7264 873.896 51.0616C873.262 49.3836 872.318 48.1152 871.062 47.2564C869.82 46.3843 868.288 45.9483 866.464 45.9483C864.641 45.9483 863.102 46.3843 861.847 47.2564C860.605 48.1152 859.66 49.3836 859.012 51.0616C858.378 52.7264 858.061 54.7743 858.061 57.2055C858.061 59.6366 858.378 61.6911 859.012 63.3691C859.66 65.0339 860.605 66.3023 861.847 67.1744C863.102 68.0332 864.641 68.4626 866.464 68.4626C868.288 68.4626 869.82 68.0332 871.062 67.1744C872.318 66.3023 873.262 65.0339 873.896 63.3691C874.544 61.6911 874.868 59.6366 874.868 57.2055ZM890.744 36.9109H901.764V58.1568H902.081L916.509 36.9109H925.863V77.5H914.844V56.1749H914.606L899.94 77.5H890.744V36.9109ZM912.307 25.9709H919.204C919.191 28.5473 918.207 30.6085 916.251 32.1544C914.296 33.687 911.66 34.4534 908.343 34.4534C905.001 34.4534 902.352 33.687 900.396 32.1544C898.441 30.6085 897.47 28.5473 897.483 25.9709H904.3C904.287 26.8033 904.584 27.5696 905.192 28.2699C905.813 28.9569 906.864 29.3005 908.343 29.3005C909.757 29.3005 910.768 28.9635 911.376 28.2897C911.984 27.6158 912.294 26.8429 912.307 25.9709ZM941.078 77.5V36.9109H958.677C961.769 36.9109 964.365 37.3271 966.466 38.1595C968.58 38.9919 970.172 40.1678 971.242 41.6873C972.326 43.2067 972.867 44.997 972.867 47.0582C972.867 48.5512 972.537 49.9121 971.877 51.1409C971.229 52.3696 970.317 53.4002 969.142 54.2326C967.966 55.0518 966.591 55.6199 965.019 55.937V56.3334C966.763 56.3995 968.349 56.8421 969.776 57.6613C971.203 58.4673 972.339 59.5837 973.185 61.0107C974.03 62.4244 974.453 64.0892 974.453 66.005C974.453 68.2248 973.872 70.2 972.709 71.9309C971.559 73.6617 969.921 75.0226 967.794 76.0136C965.667 77.0045 963.13 77.5 960.183 77.5H941.078ZM952.097 68.7004H957.25C959.1 68.7004 960.487 68.3569 961.412 67.6698C962.337 66.9696 962.799 65.939 962.799 64.5781C962.799 63.6268 962.581 62.8208 962.145 62.1602C961.709 61.4995 961.088 60.9975 960.282 60.6539C959.49 60.3104 958.532 60.1386 957.409 60.1386H952.097V68.7004ZM952.097 53.321H956.616C957.58 53.321 958.433 53.169 959.173 52.8651C959.913 52.5612 960.487 52.1252 960.897 51.5571C961.32 50.9757 961.531 50.2688 961.531 49.4364C961.531 48.1812 961.082 47.2233 960.183 46.5627C959.285 45.8889 958.149 45.5519 956.775 45.5519H952.097V53.321ZM1002.81 77.5L990.364 61.09H988.818V77.5H977.799V36.9109H988.818V52.2111H990.245L1001.9 36.9109H1015.77L1000.31 56.4127L1016.64 77.5H1002.81ZM1017.7 77.5V69.0175L1018.81 68.859C1020.15 68.6476 1021.27 68.0662 1022.16 67.1149C1023.05 66.1504 1023.74 64.6243 1024.22 62.5367C1024.71 60.4359 1025.02 57.5754 1025.15 53.9552L1025.78 36.9109H1055.19V77.5H1044.57V45.4727H1035.93L1035.3 58.236C1035.06 62.9661 1034.42 66.7383 1033.39 69.5526C1032.36 72.3669 1030.8 74.395 1028.7 75.637C1026.6 76.879 1023.83 77.5 1020.39 77.5H1017.7ZM1070.4 77.5H1058.51L1071.9 36.9109H1086.97L1100.36 77.5H1088.47L1079.59 48.0888H1079.28L1070.4 77.5ZM1068.18 61.4863H1090.53V69.731H1068.18V61.4863ZM1102.37 87.2509V69.0175H1105.22C1106.17 68.4362 1107.03 67.617 1107.8 66.56C1108.58 65.503 1109.24 63.9901 1109.78 62.0214C1110.33 60.0528 1110.74 57.4169 1111.01 54.1137L1112.36 36.9109H1141.05V69.0175H1145.33V87.2509H1134.71V77.5H1112.99V87.2509H1102.37ZM1117.83 69.0175H1130.43V45.7898H1122.26L1121.63 54.1137C1121.45 56.5977 1121.16 58.7711 1120.78 60.6341C1120.41 62.4839 1119.97 64.0958 1119.45 65.4699C1118.95 66.8308 1118.41 68.0134 1117.83 69.0175Z" fill="white"/>
</svg>
