<svg width="461" height="422" viewBox="0 0 461 422" fill="none" xmlns="http://www.w3.org/2000/svg">
<path d="M2.61607 65V24.4112H20.2151C23.3068 24.4112 25.9031 24.8274 28.0039 25.6598C30.1179 26.4922 31.71 27.6681 32.7802 29.1876C33.8636 30.707 34.4053 32.4973 34.4053 34.5584C34.4053 36.0514 34.075 37.4123 33.4144 38.6411C32.767 39.8699 31.8553 40.9004 30.6794 41.7328C29.5035 42.552 28.1294 43.1201 26.5571 43.4372V43.8336C28.3011 43.8997 29.8866 44.3423 31.3136 45.1615C32.7405 45.9674 33.8768 47.0839 34.7224 48.5108C35.568 49.9246 35.9908 51.5893 35.9908 53.5051C35.9908 55.7248 35.4095 57.7001 34.2468 59.4309C33.0973 61.1618 31.4589 62.5227 29.3317 63.5136C27.2045 64.5045 24.6677 65 21.7213 65H2.61607ZM13.6353 56.2005H18.7882C20.6379 56.2005 22.0252 55.857 22.9501 55.1699C23.875 54.4696 24.3374 53.4391 24.3374 52.0782C24.3374 51.1269 24.1194 50.3209 23.6834 49.6603C23.2474 48.9997 22.6264 48.4976 21.8204 48.1541C21.0277 47.8106 20.0698 47.6388 18.9467 47.6388H13.6353V56.2005ZM13.6353 40.8212H18.154C19.1185 40.8212 19.9707 40.6692 20.7106 40.3653C21.4505 40.0614 22.0252 39.6254 22.4348 39.0573C22.8576 38.4759 23.069 37.7691 23.069 36.9367C23.069 35.6815 22.6198 34.7236 21.7213 34.063C20.8229 33.3891 19.6866 33.0522 18.3125 33.0522H13.6353V40.8212ZM77.7885 39.632H66.6107C66.5315 38.7072 66.3201 37.8682 65.9765 37.115C65.6462 36.3619 65.1838 35.7145 64.5892 35.1728C64.0079 34.6179 63.301 34.1951 62.4686 33.9044C61.6362 33.6005 60.6916 33.4486 59.6346 33.4486C57.7848 33.4486 56.2191 33.8978 54.9375 34.7963C53.6691 35.6947 52.7046 36.9829 52.044 38.6609C51.3966 40.3389 51.0729 42.3538 51.0729 44.7056C51.0729 47.1896 51.4032 49.2705 52.0638 50.9485C52.7376 52.6133 53.7088 53.8685 54.9772 54.7141C56.2456 55.5465 57.7716 55.9627 59.5553 55.9627C60.5726 55.9627 61.4843 55.8371 62.2903 55.5861C63.0962 55.3219 63.7965 54.9453 64.3911 54.4564C64.9856 53.9676 65.4679 53.3796 65.8378 52.6926C66.221 51.9923 66.4786 51.2062 66.6107 50.3341L77.7885 50.4134C77.6564 52.131 77.1741 53.8817 76.3417 55.6654C75.5094 57.4359 74.3268 59.0742 72.7942 60.5804C71.2748 62.0734 69.392 63.2758 67.1459 64.1874C64.8997 65.0991 62.2903 65.5549 59.3175 65.5549C55.5915 65.5549 52.2488 64.7556 49.2892 63.1569C46.3428 61.5581 44.0108 59.2063 42.2932 56.1014C40.5888 52.9965 39.7366 49.1979 39.7366 44.7056C39.7366 40.187 40.6086 36.3818 42.3526 33.29C44.0967 30.1851 46.4485 27.8399 49.4081 26.2544C52.3677 24.6557 55.6708 23.8563 59.3175 23.8563C61.8807 23.8563 64.2391 24.2064 66.3927 24.9067C68.5464 25.607 70.4358 26.6309 72.0609 27.9786C73.686 29.3131 74.9941 30.958 75.985 32.9135C76.9759 34.8689 77.5771 37.1084 77.7885 39.632ZM82.7878 65V24.4112H112.04V33.29H93.807V40.2662H110.534V49.145H93.807V56.1212H111.961V65H82.7878ZM146.044 24.4112V33.29H128.524V65H117.505V24.4112H146.044ZM187.564 44.7056C187.564 49.2243 186.686 53.0361 184.929 56.141C183.171 59.2327 180.8 61.578 177.814 63.1767C174.828 64.7622 171.498 65.5549 167.825 65.5549C164.126 65.5549 160.783 64.7556 157.797 63.1569C154.824 61.5449 152.459 59.1931 150.702 56.1014C148.958 52.9965 148.086 49.1979 148.086 44.7056C148.086 40.187 148.958 36.3818 150.702 33.29C152.459 30.1851 154.824 27.8399 157.797 26.2544C160.783 24.6557 164.126 23.8563 167.825 23.8563C171.498 23.8563 174.828 24.6557 177.814 26.2544C180.8 27.8399 183.171 30.1851 184.929 33.29C186.686 36.3818 187.564 40.187 187.564 44.7056ZM176.228 44.7056C176.228 42.2745 175.904 40.2266 175.257 38.5618C174.623 36.8838 173.678 35.6154 172.423 34.7566C171.181 33.8846 169.648 33.4486 167.825 33.4486C166.002 33.4486 164.462 33.8846 163.207 34.7566C161.965 35.6154 161.021 36.8838 160.373 38.5618C159.739 40.2266 159.422 42.2745 159.422 44.7056C159.422 47.1367 159.739 49.1913 160.373 50.8692C161.021 52.534 161.965 53.8024 163.207 54.6744C164.462 55.5333 166.002 55.9627 167.825 55.9627C169.648 55.9627 171.181 55.5333 172.423 54.6744C173.678 53.8024 174.623 52.534 175.257 50.8692C175.904 49.1913 176.228 47.1367 176.228 44.7056ZM2.61607 120V79.4112H20.2151C23.3068 79.4112 25.9031 79.8274 28.0039 80.6598C30.1179 81.4922 31.71 82.6681 32.7802 84.1876C33.8636 85.707 34.4053 87.4973 34.4053 89.5584C34.4053 91.0514 34.075 92.4123 33.4144 93.6411C32.767 94.8699 31.8553 95.9004 30.6794 96.7328C29.5035 97.552 28.1294 98.1201 26.5571 98.4372V98.8336C28.3011 98.8997 29.8866 99.3423 31.3136 100.161C32.7405 100.967 33.8768 102.084 34.7224 103.511C35.568 104.925 35.9908 106.589 35.9908 108.505C35.9908 110.725 35.4095 112.7 34.2468 114.431C33.0973 116.162 31.4589 117.523 29.3317 118.514C27.2045 119.505 24.6677 120 21.7213 120H2.61607ZM13.6353 111.2H18.7882C20.6379 111.2 22.0252 110.857 22.9501 110.17C23.875 109.47 24.3374 108.439 24.3374 107.078C24.3374 106.127 24.1194 105.321 23.6834 104.66C23.2474 104 22.6264 103.498 21.8204 103.154C21.0277 102.811 20.0698 102.639 18.9467 102.639H13.6353V111.2ZM13.6353 95.8212H18.154C19.1185 95.8212 19.9707 95.6692 20.7106 95.3653C21.4505 95.0614 22.0252 94.6254 22.4348 94.0573C22.8576 93.4759 23.069 92.7691 23.069 91.9367C23.069 90.6815 22.6198 89.7236 21.7213 89.063C20.8229 88.3891 19.6866 88.0522 18.3125 88.0522H13.6353V95.8212ZM38.7853 88.29V79.4112H74.0626V88.29H61.8543V120H50.9936V88.29H38.7853ZM115.622 99.7056C115.622 104.224 114.744 108.036 112.987 111.141C111.229 114.233 108.858 116.578 105.872 118.177C102.886 119.762 99.5561 120.555 95.883 120.555C92.1835 120.555 88.8408 119.756 85.8547 118.157C82.8819 116.545 80.5169 114.193 78.7596 111.101C77.0156 107.996 76.1436 104.198 76.1436 99.7056C76.1436 95.187 77.0156 91.3818 78.7596 88.29C80.5169 85.1851 82.8819 82.8399 85.8547 81.2544C88.8408 79.6557 92.1835 78.8563 95.883 78.8563C99.5561 78.8563 102.886 79.6557 105.872 81.2544C108.858 82.8399 111.229 85.1851 112.987 88.29C114.744 91.3818 115.622 95.187 115.622 99.7056ZM104.286 99.7056C104.286 97.2745 103.962 95.2266 103.315 93.5618C102.681 91.8838 101.736 90.6154 100.481 89.7566C99.239 88.8846 97.7063 88.4486 95.883 88.4486C94.0597 88.4486 92.5204 88.8846 91.2652 89.7566C90.0233 90.6154 89.0786 91.8838 88.4312 93.5618C87.797 95.2266 87.4799 97.2745 87.4799 99.7056C87.4799 102.137 87.797 104.191 88.4312 105.869C89.0786 107.534 90.0233 108.802 91.2652 109.674C92.5204 110.533 94.0597 110.963 95.883 110.963C97.7063 110.963 99.239 110.533 100.481 109.674C101.736 108.802 102.681 107.534 103.315 105.869C103.962 104.191 104.286 102.137 104.286 99.7056ZM120.721 120V79.4112H138.241C141.253 79.4112 143.889 80.0058 146.148 81.1949C148.408 82.3841 150.165 84.0554 151.42 86.2091C152.675 88.3627 153.303 90.8797 153.303 93.76C153.303 96.6667 152.655 99.1837 151.361 101.311C150.079 103.438 148.275 105.076 145.95 106.226C143.638 107.375 140.936 107.95 137.844 107.95H127.38V99.3885H135.625C136.919 99.3885 138.023 99.1639 138.934 98.7147C139.859 98.2522 140.566 97.5982 141.055 96.7526C141.557 95.907 141.808 94.9095 141.808 93.76C141.808 92.5973 141.557 91.6064 141.055 90.7872C140.566 89.9548 139.859 89.3206 138.934 88.8846C138.023 88.4354 136.919 88.2108 135.625 88.2108H131.74V120H120.721ZM195.239 94.632H184.061C183.982 93.7072 183.771 92.8682 183.427 92.115C183.097 91.3619 182.635 90.7145 182.04 90.1728C181.459 89.6179 180.752 89.1951 179.919 88.9044C179.087 88.6005 178.142 88.4486 177.085 88.4486C175.236 88.4486 173.67 88.8978 172.388 89.7963C171.12 90.6947 170.155 91.9829 169.495 93.6609C168.847 95.3389 168.524 97.3538 168.524 99.7056C168.524 102.19 168.854 104.271 169.515 105.949C170.188 107.613 171.159 108.868 172.428 109.714C173.696 110.546 175.222 110.963 177.006 110.963C178.023 110.963 178.935 110.837 179.741 110.586C180.547 110.322 181.247 109.945 181.842 109.456C182.436 108.968 182.919 108.38 183.289 107.693C183.672 106.992 183.929 106.206 184.061 105.334L195.239 105.413C195.107 107.131 194.625 108.882 193.792 110.665C192.96 112.436 191.778 114.074 190.245 115.58C188.725 117.073 186.843 118.276 184.597 119.187C182.35 120.099 179.741 120.555 176.768 120.555C173.042 120.555 169.7 119.756 166.74 118.157C163.794 116.558 161.462 114.206 159.744 111.101C158.039 107.996 157.187 104.198 157.187 99.7056C157.187 95.187 158.059 91.3818 159.803 88.29C161.547 85.1851 163.899 82.8399 166.859 81.2544C169.818 79.6557 173.122 78.8563 176.768 78.8563C179.331 78.8563 181.69 79.2064 183.843 79.9067C185.997 80.607 187.887 81.6309 189.512 82.9786C191.137 84.3131 192.445 85.958 193.436 87.9135C194.427 89.8689 195.028 92.1084 195.239 94.632ZM207.215 93.0465H215.618C219.04 93.0465 222.026 93.5948 224.576 94.6915C227.139 95.7881 229.128 97.334 230.541 99.3291C231.968 101.324 232.675 103.669 232.662 106.365C232.675 109.06 231.968 111.432 230.541 113.48C229.128 115.528 227.139 117.126 224.576 118.276C222.026 119.425 219.04 120 215.618 120H200.476V79.4112H211.496V111.359H215.618C216.952 111.359 218.069 111.141 218.967 110.705C219.879 110.269 220.566 109.668 221.028 108.902C221.504 108.135 221.735 107.263 221.722 106.285C221.735 104.898 221.22 103.749 220.176 102.837C219.132 101.912 217.613 101.45 215.618 101.45H207.215V93.0465ZM246.535 79.4112V120H235.516V79.4112H246.535ZM251.742 120V79.4112H269.262C272.275 79.4112 274.911 80.0058 277.17 81.1949C279.429 82.3841 281.186 84.0554 282.442 86.2091C283.697 88.3627 284.324 90.8797 284.324 93.76C284.324 96.6667 283.677 99.1837 282.382 101.311C281.101 103.438 279.297 105.076 276.972 106.226C274.66 107.375 271.958 107.95 268.866 107.95H258.402V99.3885H266.646C267.941 99.3885 269.044 99.1639 269.956 98.7147C270.881 98.2522 271.588 97.5982 272.076 96.7526C272.579 95.907 272.83 94.9095 272.83 93.76C272.83 92.5973 272.579 91.6064 272.076 90.7872C271.588 89.9548 270.881 89.3206 269.956 88.8846C269.044 88.4354 267.941 88.2108 266.646 88.2108H262.762V120H251.742ZM295.344 93.0465H303.747C307.169 93.0465 310.155 93.5948 312.705 94.6915C315.268 95.7881 317.257 97.334 318.67 99.3291C320.097 101.324 320.804 103.669 320.791 106.365C320.804 109.06 320.097 111.432 318.67 113.48C317.257 115.528 315.268 117.126 312.705 118.276C310.155 119.425 307.169 120 303.747 120H288.605V79.4112H299.625V111.359H303.747C305.081 111.359 306.198 111.141 307.096 110.705C308.008 110.269 308.695 109.668 309.157 108.902C309.633 108.135 309.864 107.263 309.851 106.285C309.864 104.898 309.349 103.749 308.305 102.837C307.261 101.912 305.742 101.45 303.747 101.45H295.344V93.0465ZM360.597 120H349.578V88.2108H345.693C344.412 88.2108 343.308 88.3891 342.383 88.7459C341.459 89.0894 340.745 89.6311 340.243 90.371C339.754 91.0977 339.51 92.0424 339.51 93.2051C339.51 94.3546 339.754 95.286 340.243 95.9995C340.745 96.713 341.459 97.2349 342.383 97.5652C343.308 97.8823 344.412 98.0408 345.693 98.0408H353.938V106.603H343.473C340.395 106.603 337.693 106.094 335.368 105.076C333.042 104.059 331.232 102.553 329.937 100.558C328.656 98.5627 328.015 96.1118 328.015 93.2051C328.015 90.3248 328.642 87.854 329.898 85.7929C331.153 83.7317 332.91 82.1528 335.169 81.0562C337.442 79.9596 340.078 79.4112 343.077 79.4112H360.597V120ZM336.814 101.37H348.547L338.638 120H326.667L336.814 101.37Z" fill="#177CFF"/>
<rect y="137.132" width="342" height="63" rx="31.5" fill="#177CFF"/>
<path d="M52.8756 148.543V189.132H42.0149V157.263H28.3002V189.132H17.4394V148.543H52.8756ZM98.6888 168.837C98.6888 173.356 97.8101 177.168 96.0529 180.273C94.2956 183.365 91.9239 185.71 88.9379 187.308C85.9518 188.894 82.6222 189.687 78.9491 189.687C75.2496 189.687 71.9068 188.887 68.9208 187.289C65.948 185.677 63.5829 183.325 61.8256 180.233C60.0816 177.128 59.2095 173.33 59.2095 168.837C59.2095 164.319 60.0816 160.513 61.8256 157.422C63.5829 154.317 65.948 151.971 68.9208 150.386C71.9068 148.787 75.2496 147.988 78.9491 147.988C82.6222 147.988 85.9518 148.787 88.9379 150.386C91.9239 151.971 94.2956 154.317 96.0529 157.422C97.8101 160.513 98.6888 164.319 98.6888 168.837ZM87.3524 168.837C87.3524 166.406 87.0287 164.358 86.3812 162.693C85.747 161.015 84.8023 159.747 83.5471 158.888C82.3051 158.016 80.7725 157.58 78.9491 157.58C77.1258 157.58 75.5865 158.016 74.3313 158.888C73.0894 159.747 72.1447 161.015 71.4972 162.693C70.863 164.358 70.5459 166.406 70.5459 168.837C70.5459 171.268 70.863 173.323 71.4972 175.001C72.1447 176.666 73.0894 177.934 74.3313 178.806C75.5865 179.665 77.1258 180.094 78.9491 180.094C80.7725 180.094 82.3051 179.665 83.5471 178.806C84.8023 177.934 85.747 176.666 86.3812 175.001C87.0287 173.323 87.3524 171.268 87.3524 168.837ZM113.789 189.132V148.543H131.389C134.48 148.543 137.077 148.959 139.177 149.791C141.291 150.624 142.884 151.8 143.954 153.319C145.037 154.839 145.579 156.629 145.579 158.69C145.579 160.183 145.249 161.544 144.588 162.773C143.941 164.001 143.029 165.032 141.853 165.864C140.677 166.684 139.303 167.252 137.731 167.569V167.965C139.475 168.031 141.06 168.474 142.487 169.293C143.914 170.099 145.05 171.216 145.896 172.643C146.742 174.056 147.164 175.721 147.164 177.637C147.164 179.857 146.583 181.832 145.42 183.563C144.271 185.294 142.632 186.654 140.505 187.645C138.378 188.636 135.841 189.132 132.895 189.132H113.789ZM124.809 180.332H129.962C131.811 180.332 133.199 179.989 134.124 179.302C135.048 178.601 135.511 177.571 135.511 176.21C135.511 175.259 135.293 174.453 134.857 173.792C134.421 173.131 133.8 172.629 132.994 172.286C132.201 171.942 131.243 171.77 130.12 171.77H124.809V180.332ZM124.809 164.953H129.327C130.292 164.953 131.144 164.801 131.884 164.497C132.624 164.193 133.199 163.757 133.608 163.189C134.031 162.608 134.242 161.901 134.242 161.068C134.242 159.813 133.793 158.855 132.895 158.195C131.996 157.521 130.86 157.184 129.486 157.184H124.809V164.953ZM150.511 148.543H161.53V169.789H161.847L176.275 148.543H185.63V189.132H174.61V167.807H174.373L159.707 189.132H150.511V148.543ZM188.936 198.883V180.649H191.79C192.741 180.068 193.6 179.249 194.367 178.192C195.146 177.135 195.807 175.622 196.349 173.653C196.903 171.685 197.313 169.049 197.577 165.746L198.925 148.543H227.623V180.649H231.904V198.883H221.281V189.132H199.559V198.883H188.936ZM204.395 180.649H217V157.422H208.834L208.2 165.746C208.015 168.23 207.731 170.403 207.348 172.266C206.978 174.116 206.535 175.728 206.02 177.102C205.518 178.463 204.976 179.645 204.395 180.649ZM245.615 189.132H233.724L247.121 148.543H262.184L275.581 189.132H263.69L254.811 159.721H254.494L245.615 189.132ZM243.395 173.118H265.751V181.363H243.395V173.118ZM278.932 148.543H292.647L302.081 171.533H302.557L311.99 148.543H325.705V189.132H314.924V165.666H314.606L305.569 188.815H299.068L290.031 165.508H289.714V189.132H278.932V148.543Z" fill="white"/>
<rect x="350" y="134" width="66.1321" height="66.1321" rx="33.0661" fill="#177CFF"/>
<path d="M383.733 178.265V176.352C383.733 174.817 384.064 173.4 384.725 172.101C385.398 170.803 386.372 169.758 387.648 168.966C388.923 168.175 390.476 167.78 392.306 167.78C394.183 167.78 395.76 168.169 397.035 168.949C398.322 169.728 399.296 170.767 399.957 172.066C400.618 173.365 400.949 174.794 400.949 176.352V178.265C400.949 179.8 400.613 181.217 399.939 182.516C399.278 183.815 398.304 184.86 397.017 185.651C395.73 186.442 394.16 186.838 392.306 186.838C390.452 186.838 388.887 186.442 387.612 185.651C386.337 184.86 385.369 183.815 384.707 182.516C384.058 181.217 383.733 179.8 383.733 178.265ZM389.897 176.352V178.265C389.897 178.938 390.062 179.605 390.393 180.267C390.735 180.916 391.373 181.241 392.306 181.241C393.286 181.241 393.929 180.922 394.236 180.284C394.555 179.647 394.715 178.974 394.715 178.265V176.352C394.715 175.644 394.567 174.959 394.272 174.298C393.977 173.636 393.321 173.306 392.306 173.306C391.373 173.306 390.735 173.636 390.393 174.298C390.062 174.959 389.897 175.644 389.897 176.352ZM364.746 157.507V155.594C364.746 154.036 365.083 152.607 365.756 151.308C366.441 150.009 367.421 148.97 368.696 148.191C369.971 147.411 371.512 147.022 373.319 147.022C375.196 147.022 376.773 147.411 378.048 148.191C379.335 148.97 380.309 150.009 380.97 151.308C381.632 152.607 381.962 154.036 381.962 155.594V157.507C381.962 159.066 381.626 160.488 380.953 161.776C380.291 163.063 379.317 164.09 378.03 164.857C376.743 165.625 375.173 166.009 373.319 166.009C371.465 166.009 369.9 165.619 368.625 164.84C367.35 164.06 366.382 163.027 365.721 161.74C365.071 160.453 364.746 159.042 364.746 157.507ZM370.981 155.594V157.507C370.981 158.215 371.146 158.889 371.477 159.526C371.807 160.164 372.421 160.483 373.319 160.483C374.299 160.483 374.942 160.164 375.249 159.526C375.568 158.889 375.728 158.215 375.728 157.507V155.594C375.728 154.886 375.58 154.201 375.285 153.54C374.99 152.878 374.334 152.548 373.319 152.548C372.386 152.548 371.76 152.89 371.441 153.575C371.134 154.248 370.981 154.921 370.981 155.594ZM367.757 185.066L392.695 148.793H397.726L372.787 185.066H367.757Z" fill="white"/>
<rect y="224.132" width="197.308" height="197.306" rx="12.825" fill="#685BC7"/>
<rect x="67.5445" y="321.127" width="61.0515" height="38.6765" stroke="white" stroke-width="5.13"/>
<path d="M106.051 304.953C104.634 304.953 103.486 303.804 103.486 302.388C103.486 300.971 104.634 299.823 106.051 299.823V304.953ZM128.085 299.823H130.65V304.953H128.085V299.823ZM106.051 302.388V299.823H128.085V302.388V304.953H106.051V302.388Z" fill="white"/>
<mask id="path-9-inside-1_758_20" fill="white">
<path d="M110.479 263.893C110.479 265.079 110.919 266.218 111.703 267.107C120.822 277.445 131.161 291.851 131.161 304.04C131.161 304.14 131.159 304.239 131.158 304.338C131.158 304.339 131.159 304.34 131.16 304.34C131.16 304.34 131.161 304.34 131.161 304.341V401.729C131.161 404.375 129.016 406.52 126.371 406.52H69.7697C67.1242 406.52 64.9795 404.375 64.9795 401.729V304.341C64.9795 304.34 64.9801 304.34 64.981 304.34C64.9818 304.34 64.9824 304.339 64.9824 304.338C64.9818 304.239 64.9795 304.14 64.9795 304.04C64.9795 291.851 75.3183 277.445 84.4377 267.107C85.2221 266.218 85.6621 265.079 85.6621 263.893V257.505C85.6621 254.86 87.8068 252.715 90.4524 252.715H105.688C108.334 252.715 110.479 254.86 110.479 257.505V263.893Z"/>
</mask>
<path d="M131.161 304.04L136.291 304.04V304.04H131.161ZM64.9795 304.04H59.8495V304.04L64.9795 304.04ZM84.4377 267.107L88.2847 270.501L84.4377 267.107ZM64.9824 304.338L70.1123 304.306L64.9824 304.338ZM131.158 304.338L126.028 304.306L131.158 304.338ZM111.703 267.107L107.856 270.501L111.703 267.107ZM111.703 267.107L107.856 270.501C112.295 275.533 116.922 281.437 120.415 287.454C123.962 293.565 126.031 299.275 126.031 304.04H131.161H136.291C136.291 296.616 133.191 289.028 129.289 282.304C125.332 275.487 120.231 269.02 115.55 263.714L111.703 267.107ZM131.161 304.04L126.031 304.04C126.031 304.165 126.03 304.045 126.028 304.306L131.158 304.338L136.288 304.371C136.288 304.344 136.289 304.318 136.289 304.256C136.29 304.204 136.291 304.126 136.291 304.04L131.161 304.04ZM131.161 304.341H126.031V401.729H131.161H136.291V304.341H131.161ZM126.371 406.52V401.39H69.7697V406.52V411.65H126.371V406.52ZM64.9795 401.729H70.1095V304.341H64.9795H59.8495V401.729H64.9795ZM64.9824 304.338L70.1123 304.306C70.1106 304.045 70.1095 304.165 70.1095 304.04L64.9795 304.04L59.8495 304.04C59.8495 304.126 59.8505 304.204 59.8512 304.256C59.852 304.318 59.8523 304.344 59.8525 304.371L64.9824 304.338ZM64.9795 304.04H70.1095C70.1095 299.275 72.1788 293.565 75.7257 287.454C79.2181 281.437 83.8461 275.533 88.2847 270.501L84.4377 267.107L80.5908 263.714C75.9099 269.02 70.8087 275.487 66.852 282.304C62.9495 289.028 59.8495 296.616 59.8495 304.04H64.9795ZM85.6621 263.893H90.7921V257.505H85.6621H80.5321V263.893H85.6621ZM90.4524 252.715V257.845H105.688V252.715V247.585H90.4524V252.715ZM110.479 257.505H105.349V263.893H110.479H115.609V257.505H110.479ZM85.6621 257.505H90.7921C90.7921 257.693 90.64 257.845 90.4524 257.845V252.715V247.585C84.9736 247.585 80.5321 252.026 80.5321 257.505H85.6621ZM84.4377 267.107L88.2847 270.501C89.8777 268.696 90.7921 266.356 90.7921 263.893H85.6621H80.5321C80.5321 263.802 80.5665 263.741 80.5908 263.714L84.4377 267.107ZM64.981 304.34V309.47C67.8271 309.47 70.1305 307.153 70.1123 304.306L64.9824 304.338L59.8525 304.371C59.8343 301.525 62.1364 299.21 64.981 299.21V304.34ZM64.9795 304.341H70.1095C70.1095 307.195 67.7919 309.47 64.981 309.47V304.34V299.21C62.1684 299.21 59.8495 301.486 59.8495 304.341H64.9795ZM131.161 401.729H126.031C126.031 401.542 126.183 401.39 126.371 401.39V406.52V411.65C131.85 411.65 136.291 407.208 136.291 401.729H131.161ZM131.16 304.34V309.47C128.327 309.47 126.031 307.174 126.031 304.341H131.161H136.291C136.291 301.507 133.994 299.21 131.16 299.21V304.34ZM131.158 304.338L126.028 304.306C126.01 307.153 128.314 309.47 131.16 309.47V304.34V299.21C134.004 299.21 136.306 301.525 136.288 304.371L131.158 304.338ZM69.7697 406.52V401.39C69.9574 401.39 70.1095 401.542 70.1095 401.729H64.9795H59.8495C59.8495 407.208 64.2909 411.65 69.7697 411.65V406.52ZM105.688 252.715V257.845C105.501 257.845 105.349 257.693 105.349 257.505H110.479H115.609C115.609 252.026 111.167 247.585 105.688 247.585V252.715ZM111.703 267.107L115.55 263.714C115.574 263.741 115.609 263.802 115.609 263.893H110.479H105.349C105.349 266.356 106.263 268.696 107.856 270.501L111.703 267.107Z" fill="white" mask="url(#path-9-inside-1_758_20)"/>
<mask id="path-11-inside-2_758_20" fill="white">
<rect x="79.8789" y="239.05" width="35.558" height="19.483" rx="2.87415"/>
</mask>
<rect x="79.8789" y="239.05" width="35.558" height="19.483" rx="2.87415" fill="#685BC7" stroke="white" stroke-width="10.26" mask="url(#path-11-inside-2_758_20)"/>
<rect x="213.553" y="224.132" width="197.308" height="197.306" rx="12.825" fill="#FA6959"/>
<path d="M342.17 263.267C342.034 262.973 341.833 262.728 341.609 262.51V259.048C341.609 256.163 339.263 253.817 336.378 253.817H287.472C284.587 253.817 282.241 256.163 282.241 259.048V262.509C282.016 262.727 281.815 262.972 281.678 263.267L276.577 274.231C275.619 276.29 275.112 278.578 275.112 280.85V369.531C275.112 372.445 276.103 375.313 277.902 377.604L281.992 382.813C282.003 382.828 282.022 382.832 282.033 382.847L284.598 390.018C284.97 391.057 285.956 391.752 287.06 391.752H336.79C337.894 391.752 338.88 391.057 339.251 390.018L341.816 382.848C341.828 382.833 341.847 382.828 341.859 382.813L345.948 377.604C347.747 375.313 348.738 372.445 348.738 369.533V280.85C348.738 278.582 348.231 276.294 347.273 274.231L342.17 263.267ZM287.472 259.048H336.378V261.755H287.472V259.048ZM334.947 386.521H288.903L287.936 383.82H335.914L334.947 386.521ZM343.507 369.533C343.507 371.28 342.912 372.999 341.833 374.376L338.53 378.584H285.321L282.017 374.376C280.938 372.999 280.343 371.28 280.343 369.531V360.705H343.507V369.533ZM343.507 355.475H280.343V290.097H343.507V355.475ZM343.507 284.867H280.343V280.85C280.343 279.335 280.68 277.811 281.319 276.438L285.717 266.985H338.132L342.531 276.437C343.169 277.812 343.507 279.338 343.507 280.85V284.867Z" fill="white"/>
<path fill-rule="evenodd" clip-rule="evenodd" d="M341.181 262.691V259.048C341.181 256.399 339.027 254.245 336.378 254.245H287.472C284.823 254.245 282.669 256.399 282.669 259.048V262.69L282.539 262.816C282.336 263.012 282.173 263.216 282.066 263.447L276.965 274.412C276.033 276.414 275.54 278.64 275.54 280.85V369.531C275.54 372.349 276.499 375.124 278.239 377.339L282.296 382.507C282.315 382.524 282.34 382.546 282.364 382.576L282.411 382.633L285.001 389.874L284.598 390.018L282.033 382.847C282.028 382.84 282.02 382.835 282.013 382.83C282.005 382.825 281.998 382.821 281.992 382.813L277.902 377.604C276.103 375.313 275.112 372.445 275.112 369.531V280.85C275.112 278.578 275.619 276.29 276.577 274.231L281.678 263.267C281.815 262.972 282.016 262.727 282.241 262.509V259.048C282.241 256.163 284.587 253.817 287.472 253.817H336.378C339.263 253.817 341.609 256.163 341.609 259.048V262.51C341.833 262.728 342.034 262.973 342.17 263.267L347.273 274.231C348.231 276.294 348.738 278.582 348.738 280.85V369.533C348.738 372.445 347.747 375.313 345.948 377.604L341.859 382.813C341.853 382.821 341.845 382.826 341.837 382.831C341.829 382.836 341.822 382.841 341.816 382.848L339.251 390.018L338.849 389.874L341.439 382.634L341.486 382.576C341.511 382.546 341.536 382.523 341.556 382.507L345.611 377.34C347.351 375.124 348.31 372.349 348.31 369.533V280.85C348.31 278.644 347.817 276.417 346.885 274.411L341.783 263.447C341.675 263.216 341.513 263.013 341.311 262.817L341.181 262.691ZM341.523 382.549C341.523 382.549 341.523 382.549 341.523 382.548L341.523 382.549ZM339.251 390.018L338.849 389.874C338.538 390.743 337.714 391.324 336.79 391.324H287.06C286.136 391.324 285.312 390.743 285.001 389.874L284.598 390.018C284.97 391.057 285.956 391.752 287.06 391.752H336.79C337.894 391.752 338.88 391.057 339.251 390.018ZM287.044 258.62H336.806V262.182H287.044V258.62ZM335.248 386.949H288.602L287.329 383.392H336.521L335.248 386.949ZM342.17 374.639L338.738 379.012H285.113L281.68 374.64C280.543 373.188 279.915 371.376 279.915 369.531V360.277H343.935V369.533C343.935 371.376 343.307 373.188 342.17 374.639ZM343.935 355.902H279.915V289.669H343.935V355.902ZM343.935 285.294H279.915V280.85C279.915 279.273 280.266 277.687 280.932 276.257L285.444 266.557H338.404L342.918 276.256C343.583 277.687 343.935 279.275 343.935 280.85V285.294ZM281.319 276.438C280.68 277.811 280.343 279.335 280.343 280.85V284.867H343.507V280.85C343.507 279.338 343.169 277.812 342.531 276.437L338.132 266.985H285.717L281.319 276.438ZM335.914 383.82L334.947 386.521H288.903L287.936 383.82H335.914ZM282.017 374.376C280.938 372.999 280.343 371.28 280.343 369.531V360.705H343.507V369.533C343.507 371.28 342.912 372.999 341.833 374.376L338.53 378.584H285.321L282.017 374.376ZM287.472 259.048V261.755H336.378V259.048H287.472ZM343.507 355.475V290.097H280.343V355.475H343.507Z" fill="#FA6959"/>
</svg>
