<svg width="300" height="41" viewBox="0 0 300 41" fill="none" xmlns="http://www.w3.org/2000/svg">
<path d="M80.5488 11.0364V29H76.7947V14.1239H69.5321V29H65.778V11.0364H80.5488ZM90.1819 29.2631C88.8195 29.2631 87.6412 28.9737 86.6471 28.3948C85.6589 27.81 84.8958 26.9972 84.3578 25.9564C83.8198 24.9096 83.5508 23.6963 83.5508 22.3163C83.5508 20.9245 83.8198 19.7083 84.3578 18.6674C84.8958 17.6207 85.6589 16.8079 86.6471 16.229C87.6412 15.6442 88.8195 15.3518 90.1819 15.3518C91.5444 15.3518 92.7198 15.6442 93.708 16.229C94.7021 16.8079 95.4681 17.6207 96.0061 18.6674C96.544 19.7083 96.813 20.9245 96.813 22.3163C96.813 23.6963 96.544 24.9096 96.0061 25.9564C95.4681 26.9972 94.7021 27.81 93.708 28.3948C92.7198 28.9737 91.5444 29.2631 90.1819 29.2631ZM90.1995 26.3686C90.8193 26.3686 91.3368 26.1932 91.752 25.8423C92.1672 25.4856 92.48 25.0003 92.6905 24.3863C92.9069 23.7723 93.0151 23.0735 93.0151 22.2899C93.0151 21.5064 92.9069 20.8076 92.6905 20.1936C92.48 19.5796 92.1672 19.0943 91.752 18.7376C91.3368 18.3809 90.8193 18.2025 90.1995 18.2025C89.5738 18.2025 89.0475 18.3809 88.6206 18.7376C88.1996 19.0943 87.8809 19.5796 87.6646 20.1936C87.4541 20.8076 87.3488 21.5064 87.3488 22.2899C87.3488 23.0735 87.4541 23.7723 87.6646 24.3863C87.8809 25.0003 88.1996 25.4856 88.6206 25.8423C89.0475 26.1932 89.5738 26.3686 90.1995 26.3686ZM98.4533 29L98.4357 26.0353H98.8831C99.1988 26.0353 99.4707 25.9593 99.6988 25.8072C99.9327 25.6494 100.126 25.395 100.278 25.0441C100.43 24.6933 100.55 24.2284 100.637 23.6495C100.725 23.0647 100.784 22.3455 100.813 21.4918L101.032 15.5273H111.277V29H107.716V18.4657H104.391L104.181 22.5794C104.128 23.708 103.991 24.6787 103.769 25.4915C103.552 26.3043 103.251 26.9709 102.865 27.4913C102.479 28.0059 102.014 28.386 101.471 28.6316C100.927 28.8772 100.295 29 99.576 29H98.4533ZM116.516 19.6673H120.542C122.325 19.6673 123.717 20.0942 124.717 20.9479C125.717 21.7958 126.217 22.9303 126.217 24.3512C126.217 25.2751 125.992 26.0879 125.541 26.7896C125.091 27.4855 124.442 28.0293 123.594 28.4211C122.746 28.807 121.729 29 120.542 29H114.174V15.5273H117.744V26.0616H120.542C121.167 26.0616 121.682 25.9037 122.085 25.588C122.489 25.2722 122.694 24.8687 122.699 24.3775C122.694 23.8571 122.489 23.4331 122.085 23.1057C121.682 22.7724 121.167 22.6057 120.542 22.6057H116.516V19.6673ZM128.002 25.1845H131.624C131.642 25.6289 131.841 25.9797 132.221 26.237C132.601 26.4943 133.092 26.623 133.694 26.623C134.302 26.623 134.814 26.4826 135.229 26.202C135.644 25.9154 135.852 25.5061 135.852 24.974C135.852 24.6465 135.77 24.3629 135.606 24.1232C135.443 23.8776 135.215 23.6846 134.922 23.5442C134.63 23.4039 134.291 23.3337 133.905 23.3337H131.966V20.8865H133.905C134.484 20.8865 134.928 20.752 135.238 20.4831C135.554 20.2141 135.712 19.8778 135.712 19.4744C135.712 19.0183 135.548 18.6528 135.22 18.3779C134.899 18.0973 134.463 17.9569 133.913 17.9569C133.358 17.9569 132.896 18.0826 132.528 18.3341C132.165 18.5797 131.978 18.9013 131.966 19.2989H128.361C128.373 18.492 128.616 17.7932 129.089 17.2026C129.569 16.612 130.212 16.1559 131.019 15.8343C131.832 15.5127 132.741 15.3518 133.747 15.3518C134.846 15.3518 135.793 15.5068 136.589 15.8167C137.39 16.1208 138.004 16.5564 138.431 17.1236C138.863 17.6909 139.08 18.3663 139.08 19.1498C139.08 19.8632 138.846 20.4597 138.378 20.9392C137.91 21.4187 137.255 21.7607 136.413 21.9654V22.1058C136.969 22.1408 137.472 22.2899 137.922 22.5531C138.372 22.8162 138.732 23.1788 139.001 23.6407C139.27 24.0968 139.404 24.6377 139.404 25.2634C139.404 26.0996 139.159 26.8159 138.668 27.4124C138.182 28.0088 137.51 28.4679 136.65 28.7895C135.796 29.1053 134.817 29.2631 133.712 29.2631C132.636 29.2631 131.671 29.1082 130.817 28.7983C129.969 28.4825 129.294 28.0205 128.791 27.4124C128.294 26.8042 128.031 26.0616 128.002 25.1845ZM147.783 29.2631C146.421 29.2631 145.242 28.9737 144.248 28.3948C143.26 27.81 142.497 26.9972 141.959 25.9564C141.421 24.9096 141.152 23.6963 141.152 22.3163C141.152 20.9245 141.421 19.7083 141.959 18.6674C142.497 17.6207 143.26 16.8079 144.248 16.229C145.242 15.6442 146.421 15.3518 147.783 15.3518C149.146 15.3518 150.321 15.6442 151.309 16.229C152.303 16.8079 153.069 17.6207 153.607 18.6674C154.145 19.7083 154.414 20.9245 154.414 22.3163C154.414 23.6963 154.145 24.9096 153.607 25.9564C153.069 26.9972 152.303 27.81 151.309 28.3948C150.321 28.9737 149.146 29.2631 147.783 29.2631ZM147.801 26.3686C148.42 26.3686 148.938 26.1932 149.353 25.8423C149.768 25.4856 150.081 25.0003 150.292 24.3863C150.508 23.7723 150.616 23.0735 150.616 22.2899C150.616 21.5064 150.508 20.8076 150.292 20.1936C150.081 19.5796 149.768 19.0943 149.353 18.7376C148.938 18.3809 148.42 18.2025 147.801 18.2025C147.175 18.2025 146.649 18.3809 146.222 18.7376C145.801 19.0943 145.482 19.5796 145.266 20.1936C145.055 20.8076 144.95 21.5064 144.95 22.2899C144.95 23.0735 145.055 23.7723 145.266 24.3863C145.482 25.0003 145.801 25.4856 146.222 25.8423C146.649 26.1932 147.175 26.3686 147.801 26.3686ZM156.844 29V15.5273H162.589C164.25 15.5273 165.563 15.843 166.527 16.4746C167.492 17.1061 167.975 18.0037 167.975 19.1674C167.975 19.8983 167.703 20.5065 167.159 20.9918C166.615 21.4771 165.861 21.8046 164.896 21.9742C165.703 22.0327 166.39 22.2169 166.957 22.5268C167.53 22.8308 167.966 23.2256 168.264 23.7109C168.568 24.1962 168.72 24.7342 168.72 25.3248C168.72 26.0908 168.516 26.7487 168.106 27.2984C167.703 27.848 167.109 28.2691 166.326 28.5614C165.548 28.8538 164.598 29 163.475 29H156.844ZM160.326 26.202H163.475C163.995 26.202 164.402 26.0792 164.694 25.8336C164.992 25.5821 165.142 25.24 165.142 24.8073C165.142 24.3278 164.992 23.9507 164.694 23.6758C164.402 23.401 163.995 23.2636 163.475 23.2636H160.326V26.202ZM160.326 21.0707H162.668C163.042 21.0707 163.361 21.0181 163.624 20.9129C163.893 20.8018 164.098 20.6439 164.238 20.4392C164.384 20.2345 164.457 19.9919 164.457 19.7112C164.457 19.296 164.291 18.9715 163.957 18.7376C163.624 18.5037 163.168 18.3867 162.589 18.3867H160.326V21.0707ZM174.917 29.2544C174.058 29.2544 173.292 29.1053 172.619 28.807C171.947 28.503 171.414 28.0556 171.023 27.465C170.637 26.8686 170.444 26.1259 170.444 25.2371C170.444 24.4886 170.581 23.86 170.856 23.3513C171.131 22.8425 171.505 22.4332 171.979 22.1233C172.452 21.8134 172.99 21.5795 173.593 21.4216C174.201 21.2637 174.838 21.1526 175.505 21.0883C176.288 21.0064 176.92 20.9304 177.399 20.8602C177.879 20.7842 178.227 20.6731 178.443 20.5269C178.66 20.3807 178.768 20.1644 178.768 19.8778V19.8252C178.768 19.2697 178.592 18.8399 178.241 18.5358C177.896 18.2318 177.405 18.0797 176.768 18.0797C176.095 18.0797 175.56 18.2288 175.163 18.5271C174.765 18.8194 174.502 19.1878 174.373 19.6322L170.917 19.3516C171.093 18.5329 171.438 17.8254 171.952 17.2289C172.467 16.6266 173.131 16.1647 173.944 15.843C174.762 15.5156 175.709 15.3518 176.785 15.3518C177.534 15.3518 178.25 15.4396 178.934 15.615C179.624 15.7904 180.235 16.0623 180.768 16.4307C181.306 16.7991 181.73 17.2728 182.039 17.8517C182.349 18.4247 182.504 19.1118 182.504 19.9129V29H178.961V27.1317H178.855C178.639 27.5527 178.35 27.9241 177.987 28.2457C177.625 28.5614 177.189 28.81 176.68 28.9912C176.171 29.1667 175.584 29.2544 174.917 29.2544ZM175.987 26.6756C176.537 26.6756 177.022 26.5674 177.443 26.3511C177.864 26.1289 178.195 25.8306 178.434 25.4564C178.674 25.0821 178.794 24.6582 178.794 24.1846V22.7548C178.677 22.8308 178.516 22.901 178.312 22.9653C178.113 23.0238 177.888 23.0794 177.636 23.132C177.385 23.1788 177.133 23.2226 176.882 23.2636C176.63 23.2987 176.402 23.3308 176.198 23.36C175.759 23.4244 175.376 23.5267 175.049 23.667C174.721 23.8074 174.467 23.9974 174.286 24.2372C174.104 24.4711 174.014 24.7635 174.014 25.1143C174.014 25.623 174.198 26.0119 174.566 26.2809C174.941 26.544 175.414 26.6756 175.987 26.6756ZM184.05 18.4657V15.5273H196.26V18.4657H191.918V29H188.357V18.4657H184.05ZM204.183 29.2631C202.797 29.2631 201.604 28.9825 200.604 28.4211C199.61 27.8539 198.844 27.0528 198.306 26.0178C197.768 24.9769 197.499 23.746 197.499 22.325C197.499 20.9392 197.768 19.7229 198.306 18.6762C198.844 17.6295 199.601 16.8137 200.578 16.229C201.56 15.6442 202.712 15.3518 204.033 15.3518C204.922 15.3518 205.75 15.4951 206.516 15.7816C207.288 16.0623 207.96 16.4863 208.533 17.0535C209.112 17.6207 209.562 18.3341 209.884 19.1937C210.206 20.0474 210.366 21.0473 210.366 22.1935V23.2197H198.99V20.9041H206.849C206.849 20.3661 206.732 19.8895 206.498 19.4744C206.264 19.0592 205.94 18.7346 205.525 18.5007C205.115 18.261 204.639 18.1411 204.095 18.1411C203.528 18.1411 203.025 18.2727 202.586 18.5358C202.154 18.7931 201.814 19.1411 201.569 19.5796C201.323 20.0123 201.197 20.4948 201.192 21.0269V23.2285C201.192 23.8951 201.314 24.4711 201.56 24.9564C201.811 25.4418 202.165 25.816 202.621 26.0792C203.077 26.3423 203.618 26.4739 204.244 26.4739C204.659 26.4739 205.039 26.4154 205.384 26.2984C205.729 26.1815 206.025 26.0061 206.27 25.7722C206.516 25.5383 206.703 25.2517 206.832 24.9126L210.287 25.1406C210.112 25.971 209.752 26.6961 209.209 27.3159C208.671 27.9299 207.975 28.4094 207.121 28.7544C206.273 29.0936 205.294 29.2631 204.183 29.2631ZM212.015 29L211.998 26.0353H212.445C212.761 26.0353 213.033 25.9593 213.261 25.8072C213.495 25.6494 213.688 25.395 213.84 25.0441C213.992 24.6933 214.112 24.2284 214.199 23.6495C214.287 23.0647 214.346 22.3455 214.375 21.4918L214.594 15.5273H224.839V29H221.278V18.4657H217.954L217.743 22.5794C217.69 23.708 217.553 24.6787 217.331 25.4915C217.114 26.3043 216.813 26.9709 216.427 27.4913C216.041 28.0059 215.577 28.386 215.033 28.6316C214.489 28.8772 213.857 29 213.138 29H212.015ZM231.306 24.0705L236.156 15.5273H239.84V29H236.279V20.4304L231.446 29H227.736V15.5273H231.306V24.0705Z" fill="#177CFF"/>
</svg>
