<svg width="1203" height="114" viewBox="0 0 1203 114" fill="none" xmlns="http://www.w3.org/2000/svg">
<rect y="27" width="276" height="63" rx="31.5" fill="#177CFF"/>
<path d="M74.4364 58.7056C74.4364 63.2243 73.5578 67.0361 71.8005 70.141C70.0433 73.2327 67.6716 75.578 64.6856 77.1767C61.6996 78.7622 58.37 79.5549 54.697 79.5549C50.9975 79.5549 47.6547 78.7556 44.6687 77.1569C41.6959 75.5449 39.3309 73.1931 37.5736 70.1014C35.8295 66.9965 34.9575 63.1979 34.9575 58.7056C34.9575 54.187 35.8295 50.3818 37.5736 47.29C39.3309 44.1851 41.6959 41.8399 44.6687 40.2544C47.6547 38.6557 50.9975 37.8563 54.697 37.8563C58.37 37.8563 61.6996 38.6557 64.6856 40.2544C67.6716 41.8399 70.0433 44.1851 71.8005 47.29C73.5578 50.3818 74.4364 54.187 74.4364 58.7056ZM63.1001 58.7056C63.1001 56.2745 62.7764 54.2266 62.129 52.5618C61.4948 50.8838 60.5501 49.6154 59.2949 48.7566C58.0529 47.8846 56.5203 47.4486 54.697 47.4486C52.8737 47.4486 51.3344 47.8846 50.0792 48.7566C48.8372 49.6154 47.8925 50.8838 47.2451 52.5618C46.6109 54.2266 46.2938 56.2745 46.2938 58.7056C46.2938 61.1367 46.6109 63.1913 47.2451 64.8692C47.8925 66.534 48.8372 67.8024 50.0792 68.6744C51.3344 69.5333 52.8737 69.9627 54.697 69.9627C56.5203 69.9627 58.0529 69.5333 59.2949 68.6744C60.5501 67.8024 61.4948 66.534 62.129 64.8692C62.7764 63.1913 63.1001 61.1367 63.1001 58.7056ZM79.5348 79V38.4112H108.074V47.29H90.554V52.0465H94.6763C98.0851 52.0465 101.065 52.5948 103.615 53.6915C106.178 54.7881 108.166 56.334 109.58 58.3291C111.007 60.3242 111.72 62.6694 111.72 65.3647C111.72 68.0601 111.007 70.4317 109.58 72.4796C108.166 74.5276 106.178 76.1263 103.615 77.2758C101.065 78.4253 98.0851 79 94.6763 79H79.5348ZM90.554 70.359H94.6763C95.9976 70.359 97.1074 70.141 98.0059 69.705C98.9175 69.269 99.6046 68.6678 100.067 67.9015C100.543 67.1352 100.78 66.2632 100.78 65.2854C100.78 63.8981 100.259 62.7486 99.2148 61.837C98.171 60.9121 96.6582 60.4497 94.6763 60.4497H90.554V70.359ZM111.344 46.6558V38.4112H127.674V46.6558H111.344ZM128.784 52.0465H137.187C140.61 52.0465 143.596 52.5948 146.146 53.6915C148.709 54.7881 150.697 56.334 152.111 58.3291C153.538 60.3242 154.245 62.6694 154.232 65.3647C154.245 68.0601 153.538 70.4317 152.111 72.4796C150.697 74.5276 148.709 76.1263 146.146 77.2758C143.596 78.4253 140.61 79 137.187 79H122.046V38.4112H133.065V70.359H137.187C138.522 70.359 139.638 70.141 140.537 69.705C141.449 69.269 142.136 68.6678 142.598 67.9015C143.074 67.1352 143.305 66.2632 143.292 65.2854C143.305 63.8981 142.79 62.7486 141.746 61.837C140.702 60.9121 139.183 60.4497 137.187 60.4497H128.784V52.0465ZM158.671 79V38.4112H187.923V47.29H169.69V54.2662H186.417V63.145H169.69V70.1212H187.844V79H158.671ZM167.153 34.8439C165.806 34.8439 164.663 34.3946 163.725 33.4962C162.787 32.5977 162.318 31.5143 162.318 30.2459C162.318 28.9775 162.787 27.8941 163.725 26.9957C164.663 26.0972 165.806 25.648 167.153 25.648C168.461 25.648 169.578 26.0972 170.503 26.9957C171.441 27.8941 171.91 28.9775 171.91 30.2459C171.91 31.5143 171.441 32.5977 170.503 33.4962C169.578 34.3946 168.461 34.8439 167.153 34.8439ZM179.758 34.8439C178.41 34.8439 177.268 34.3946 176.329 33.4962C175.391 32.5977 174.922 31.5143 174.922 30.2459C174.922 28.9775 175.391 27.8941 176.329 26.9957C177.268 26.0972 178.41 25.648 179.758 25.648C181.066 25.648 182.183 26.0972 183.107 26.9957C184.046 27.8941 184.515 28.9775 184.515 30.2459C184.515 31.5143 184.046 32.5977 183.107 33.4962C182.183 34.3946 181.066 34.8439 179.758 34.8439ZM193.388 38.4112H207.103L216.537 61.401H217.012L226.446 38.4112H240.161V79H229.379V55.5346H229.062L220.025 78.6829H213.524L204.487 55.3761H204.17V79H193.388V38.4112Z" fill="white"/>
<rect x="284" y="24" width="97" height="66" rx="33" fill="#177CFF"/>
<path d="M314.616 36.9109H325.635V58.1568H325.953L340.381 36.9109H349.735V77.5H338.716V56.1749H338.478L323.812 77.5H314.616V36.9109Z" fill="white"/>
<rect x="389" y="24" width="557" height="66" rx="33" fill="#177CFF"/>
<path d="M418.268 87.2509V69.0175H421.122C422.074 68.4362 422.932 67.617 423.699 66.56C424.478 65.503 425.139 63.9901 425.681 62.0214C426.236 60.0528 426.645 57.4169 426.909 54.1137L428.257 36.9109H456.955V69.0175H461.236V87.2509H450.613V77.5H428.891V87.2509H418.268ZM433.727 69.0175H446.332V45.7898H438.167L437.532 54.1137C437.347 56.5977 437.063 58.7711 436.68 60.6341C436.31 62.4839 435.868 64.0958 435.352 65.4699C434.85 66.8308 434.308 68.0134 433.727 69.0175ZM464.404 77.5V36.9109H475.423V52.766H490.01V36.9109H501.029V77.5H490.01V61.6449H475.423V77.5H464.404ZM505.703 77.5V36.9109H534.956V45.7898H516.722V52.766H533.449V61.6449H516.722V68.6211H534.876V77.5H505.703ZM539.863 77.5V36.9109H557.462C560.554 36.9109 563.15 37.3271 565.251 38.1595C567.365 38.9919 568.957 40.1678 570.027 41.6873C571.11 43.2067 571.652 44.997 571.652 47.0582C571.652 48.5512 571.322 49.9121 570.661 51.1409C570.014 52.3696 569.102 53.4002 567.926 54.2326C566.75 55.0518 565.376 55.6199 563.804 55.937V56.3334C565.548 56.3995 567.133 56.8421 568.56 57.6613C569.987 58.4673 571.124 59.5837 571.969 61.0107C572.815 62.4244 573.238 64.0892 573.238 66.005C573.238 68.2248 572.656 70.2 571.494 71.9309C570.344 73.6617 568.706 75.0226 566.579 76.0136C564.451 77.0045 561.914 77.5 558.968 77.5H539.863ZM550.882 68.7004H556.035C557.885 68.7004 559.272 68.3569 560.197 67.6698C561.122 66.9696 561.584 65.939 561.584 64.5781C561.584 63.6268 561.366 62.8208 560.93 62.1602C560.494 61.4995 559.873 60.9975 559.067 60.6539C558.274 60.3104 557.317 60.1386 556.193 60.1386H550.882V68.7004ZM550.882 53.321H555.401C556.365 53.321 557.217 53.169 557.957 52.8651C558.697 52.5612 559.272 52.1252 559.682 51.5571C560.104 50.9757 560.316 50.2688 560.316 49.4364C560.316 48.1812 559.867 47.2233 558.968 46.5627C558.07 45.8889 556.933 45.5519 555.559 45.5519H550.882V53.321ZM576.584 77.5V36.9109H587.603V52.766H602.19V36.9109H613.209V77.5H602.19V61.6449H587.603V77.5H576.584ZM657.204 57.2055C657.204 61.7242 656.325 65.536 654.568 68.641C652.811 71.7327 650.439 74.0779 647.453 75.6767C644.467 77.2622 641.137 78.0549 637.464 78.0549C633.765 78.0549 630.422 77.2556 627.436 75.6568C624.463 74.0449 622.098 71.6931 620.341 68.6013C618.597 65.4964 617.725 61.6977 617.725 57.2055C617.725 52.6867 618.597 48.8815 620.341 45.7898C622.098 42.6848 624.463 40.3396 627.436 38.7541C630.422 37.1553 633.765 36.356 637.464 36.356C641.137 36.356 644.467 37.1553 647.453 38.7541C650.439 40.3396 652.811 42.6848 654.568 45.7898C656.325 48.8815 657.204 52.6867 657.204 57.2055ZM645.868 57.2055C645.868 54.7743 645.544 52.7264 644.896 51.0616C644.262 49.3836 643.318 48.1152 642.062 47.2564C640.82 46.3843 639.288 45.9483 637.464 45.9483C635.641 45.9483 634.102 46.3843 632.847 47.2564C631.605 48.1152 630.66 49.3836 630.012 51.0616C629.378 52.7264 629.061 54.7743 629.061 57.2055C629.061 59.6366 629.378 61.6911 630.012 63.3691C630.66 65.0339 631.605 66.3023 632.847 67.1744C634.102 68.0332 635.641 68.4626 637.464 68.4626C639.288 68.4626 640.82 68.0332 642.062 67.1744C643.318 66.3023 644.262 65.0339 644.896 63.3691C645.544 61.6911 645.868 59.6366 645.868 57.2055ZM661.744 36.9109H672.764V58.1568H673.081L687.509 36.9109H696.863V77.5H685.844V56.1749H685.606L670.94 77.5H661.744V36.9109ZM683.307 25.9709H690.204C690.191 28.5473 689.207 30.6085 687.251 32.1544C685.296 33.687 682.66 34.4534 679.343 34.4534C676.001 34.4534 673.352 33.687 671.396 32.1544C669.441 30.6085 668.47 28.5473 668.483 25.9709H675.3C675.287 26.8033 675.584 27.5696 676.192 28.2699C676.813 28.9569 677.864 29.3005 679.343 29.3005C680.757 29.3005 681.768 28.9635 682.376 28.2897C682.984 27.6158 683.294 26.8429 683.307 25.9709ZM712.078 77.5V36.9109H729.677C732.769 36.9109 735.365 37.3271 737.466 38.1595C739.58 38.9919 741.172 40.1678 742.242 41.6873C743.326 43.2067 743.867 44.997 743.867 47.0582C743.867 48.5512 743.537 49.9121 742.877 51.1409C742.229 52.3696 741.317 53.4002 740.142 54.2326C738.966 55.0518 737.591 55.6199 736.019 55.937V56.3334C737.763 56.3995 739.349 56.8421 740.776 57.6613C742.203 58.4673 743.339 59.5837 744.185 61.0107C745.03 62.4244 745.453 64.0892 745.453 66.005C745.453 68.2248 744.872 70.2 743.709 71.9309C742.559 73.6617 740.921 75.0226 738.794 76.0136C736.667 77.0045 734.13 77.5 731.183 77.5H712.078ZM723.097 68.7004H728.25C730.1 68.7004 731.487 68.3569 732.412 67.6698C733.337 66.9696 733.799 65.939 733.799 64.5781C733.799 63.6268 733.581 62.8208 733.145 62.1602C732.709 61.4995 732.088 60.9975 731.282 60.6539C730.49 60.3104 729.532 60.1386 728.409 60.1386H723.097V68.7004ZM723.097 53.321H727.616C728.58 53.321 729.433 53.169 730.173 52.8651C730.913 52.5612 731.487 52.1252 731.897 51.5571C732.32 50.9757 732.531 50.2688 732.531 49.4364C732.531 48.1812 732.082 47.2233 731.183 46.5627C730.285 45.8889 729.149 45.5519 727.775 45.5519H723.097V53.321ZM773.811 77.5L761.364 61.09H759.818V77.5H748.799V36.9109H759.818V52.2111H761.245L772.899 36.9109H786.772L771.313 56.4127L787.644 77.5H773.811ZM788.696 77.5V69.0175L789.806 68.859C791.154 68.6476 792.27 68.0662 793.156 67.1149C794.054 66.1504 794.741 64.6243 795.217 62.5367C795.706 60.4359 796.016 57.5754 796.148 53.9552L796.782 36.9109H826.194V77.5H815.571V45.4727H806.93L806.296 58.236C806.058 62.9661 805.424 66.7383 804.393 69.5526C803.362 72.3669 801.797 74.395 799.696 75.637C797.595 76.879 794.827 77.5 791.392 77.5H788.696ZM841.397 77.5H829.505L842.903 36.9109H857.965L871.363 77.5H859.471L850.593 48.0888H850.275L841.397 77.5ZM839.177 61.4863H861.533V69.731H839.177V61.4863ZM873.366 87.2509V69.0175H876.22C877.172 68.4362 878.03 67.617 878.797 66.56C879.576 65.503 880.237 63.9901 880.779 62.0214C881.333 60.0528 881.743 57.4169 882.007 54.1137L883.355 36.9109H912.053V69.0175H916.334V87.2509H905.711V77.5H883.989V87.2509H873.366ZM888.825 69.0175H901.43V45.7898H893.264L892.63 54.1137C892.445 56.5977 892.161 58.7711 891.778 60.6341C891.408 62.4839 890.965 64.0958 890.45 65.4699C889.948 66.8308 889.406 68.0134 888.825 69.0175Z" fill="white"/>
</svg>
