<svg width="231" height="231" viewBox="0 0 231 231" fill="none" xmlns="http://www.w3.org/2000/svg">
<rect width="230.77" height="230.767" rx="15" fill="#177CFF"/>
<path d="M78.8363 192.599C68.6231 192.599 58.3891 192.599 48.1759 192.599C46.7586 192.599 45.3413 192.599 43.9031 192.599C44.9452 193.642 45.9874 194.684 47.0296 195.726C47.0296 189.869 47.0296 184.012 47.0296 178.155C47.0296 168.838 47.0296 159.5 47.0296 150.184C47.0296 148.058 47.0296 145.911 47.0296 143.785C45.9874 144.827 44.9452 145.869 43.9031 146.911C54.1162 146.911 64.3503 146.911 74.5634 146.911C75.9808 146.911 77.3981 146.911 78.8363 146.911C77.7941 145.869 76.7519 144.827 75.7098 143.785C75.7098 149.642 75.7098 155.499 75.7098 161.355C75.7098 170.672 75.7098 180.01 75.7098 189.327C75.7098 191.453 75.7098 193.6 75.7098 195.726C75.7098 197.352 77.148 198.936 78.8363 198.852C80.5246 198.769 81.9627 197.477 81.9627 195.726C81.9627 189.869 81.9627 184.012 81.9627 178.155C81.9627 168.838 81.9627 159.5 81.9627 150.184C81.9627 148.058 81.9627 145.911 81.9627 143.785C81.9627 142.096 80.5246 140.658 78.8363 140.658C68.6231 140.658 58.3891 140.658 48.1759 140.658C46.7586 140.658 45.3413 140.658 43.9031 140.658C42.2148 140.658 40.7766 142.096 40.7766 143.785C40.7766 149.642 40.7766 155.499 40.7766 161.355C40.7766 170.672 40.7766 180.01 40.7766 189.327C40.7766 191.453 40.7766 193.6 40.7766 195.726C40.7766 197.414 42.2148 198.852 43.9031 198.852C54.1162 198.852 64.3503 198.852 74.5634 198.852C75.9808 198.852 77.3981 198.852 78.8363 198.852C80.462 198.852 82.0461 197.414 81.9627 195.726C81.8794 194.038 80.5871 192.599 78.8363 192.599Z" fill="white"/>
<path d="M132.862 192.599C122.649 192.599 112.415 192.599 102.202 192.599C100.784 192.599 99.3668 192.599 97.9287 192.599C98.9708 193.641 100.013 194.683 101.055 195.725C101.055 193.328 101.055 190.911 101.055 188.514C101.055 182.74 101.055 176.967 101.055 171.193C101.055 164.211 101.055 157.207 101.055 150.225C101.055 144.18 101.055 138.115 101.055 132.07C101.055 129.131 101.243 126.13 101.055 123.212C101.055 123.17 101.055 123.129 101.055 123.087C100.013 124.129 98.9708 125.171 97.9287 126.213C108.142 126.213 118.376 126.213 128.589 126.213C130.006 126.213 131.424 126.213 132.862 126.213C131.82 125.171 130.778 124.129 129.735 123.087C129.735 125.484 129.735 127.902 129.735 130.299C129.735 136.072 129.735 141.846 129.735 147.619C129.735 154.602 129.735 161.605 129.735 168.588C129.735 174.632 129.735 180.697 129.735 186.742C129.735 189.681 129.631 192.661 129.735 195.6C129.735 195.642 129.735 195.684 129.735 195.725C129.735 197.351 131.174 198.935 132.862 198.852C134.55 198.769 135.988 197.476 135.988 195.725C135.988 193.328 135.988 190.911 135.988 188.514C135.988 182.74 135.988 176.967 135.988 171.193C135.988 164.211 135.988 157.207 135.988 150.225C135.988 144.18 135.988 138.115 135.988 132.07C135.988 129.131 136.093 126.151 135.988 123.212C135.988 123.17 135.988 123.129 135.988 123.087C135.988 121.399 134.55 119.96 132.862 119.96C122.649 119.96 112.415 119.96 102.202 119.96C100.784 119.96 99.3668 119.96 97.9287 119.96C96.2404 119.96 94.8022 121.399 94.8022 123.087C94.8022 125.484 94.8022 127.902 94.8022 130.299C94.8022 136.072 94.8022 141.846 94.8022 147.619C94.8022 154.602 94.8022 161.605 94.8022 168.588C94.8022 174.632 94.8022 180.697 94.8022 186.742C94.8022 189.681 94.698 192.661 94.8022 195.6C94.8022 195.642 94.8022 195.684 94.8022 195.725C94.8022 197.414 96.2404 198.852 97.9287 198.852C108.142 198.852 118.376 198.852 128.589 198.852C130.006 198.852 131.424 198.852 132.862 198.852C134.488 198.852 136.072 197.414 135.988 195.725C135.905 194.037 134.613 192.599 132.862 192.599Z" fill="white"/>
<path d="M186.887 192.6C176.674 192.6 166.44 192.6 156.227 192.6C154.81 192.6 153.392 192.6 151.954 192.6C152.996 193.642 154.039 194.684 155.081 195.726C155.081 192.454 155.081 189.182 155.081 185.909C155.081 178.01 155.081 170.11 155.081 162.231C155.081 152.706 155.081 143.201 155.081 133.676C155.081 125.422 155.081 117.168 155.081 108.914C155.081 104.954 155.31 100.911 155.081 96.9504C155.081 96.8879 155.081 96.8462 155.081 96.7837C154.039 97.8259 152.996 98.868 151.954 99.9102C162.167 99.9102 172.401 99.9102 182.615 99.9102C184.032 99.9102 185.449 99.9102 186.887 99.9102C185.845 98.868 184.803 97.8259 183.761 96.7837C183.761 100.056 183.761 103.328 183.761 106.601C183.761 114.5 183.761 122.4 183.761 130.279C183.761 139.804 183.761 149.309 183.761 158.834C183.761 167.088 183.761 175.342 183.761 183.596C183.761 187.577 183.636 191.578 183.761 195.56C183.761 195.622 183.761 195.664 183.761 195.726C183.761 197.352 185.199 198.936 186.887 198.853C188.576 198.769 190.014 197.477 190.014 195.726C190.014 192.454 190.014 189.182 190.014 185.909C190.014 178.01 190.014 170.11 190.014 162.231C190.014 152.706 190.014 143.201 190.014 133.676C190.014 125.422 190.014 117.168 190.014 108.914C190.014 104.933 190.139 100.931 190.014 96.9504C190.014 96.8879 190.014 96.8462 190.014 96.7837C190.014 95.0954 188.576 93.6572 186.887 93.6572C176.674 93.6572 166.44 93.6572 156.227 93.6572C154.81 93.6572 153.392 93.6572 151.954 93.6572C150.266 93.6572 148.828 95.0954 148.828 96.7837C148.828 100.056 148.828 103.328 148.828 106.601C148.828 114.5 148.828 122.4 148.828 130.279C148.828 139.804 148.828 149.309 148.828 158.834C148.828 167.088 148.828 175.342 148.828 183.596C148.828 187.577 148.703 191.578 148.828 195.56C148.828 195.622 148.828 195.664 148.828 195.726C148.828 197.415 150.266 198.853 151.954 198.853C162.167 198.853 172.401 198.853 182.615 198.853C184.032 198.853 185.449 198.853 186.887 198.853C188.513 198.853 190.097 197.415 190.014 195.726C189.951 194.038 188.659 192.6 186.887 192.6Z" fill="white"/>
<path d="M43.9032 120.461C53.4286 119.544 62.8497 117.627 72.0624 115C82.2547 112.082 92.1969 108.268 101.847 103.849C112.04 99.1803 121.898 93.7819 131.361 87.7583C141.408 81.3594 151.016 74.2727 160.125 66.6024C169.379 58.8071 178.092 50.3656 186.137 41.3405C187.138 40.215 188.138 39.0686 189.118 37.9222C190.222 36.6508 190.368 34.754 189.118 33.5035C187.992 32.3779 185.804 32.2112 184.699 33.5035C176.862 42.6119 168.379 51.1576 159.333 59.078C150.516 66.79 141.741 73.4807 131.924 79.9629C122.586 86.1325 112.852 91.6976 102.764 96.5541C100.347 97.7213 97.8871 98.8468 95.4276 99.9307C94.8648 100.181 94.302 100.431 93.7393 100.66C93.4683 100.785 93.1765 100.91 92.8847 101.015C92.4053 101.223 93.2599 100.848 92.7805 101.056C92.5929 101.14 92.4053 101.223 92.2177 101.285C91.0088 101.786 89.7791 102.286 88.5702 102.765C83.8596 104.62 79.0657 106.33 74.23 107.83C69.5612 109.268 64.8298 110.54 60.0775 111.603C57.7848 112.103 55.4712 112.562 53.1576 112.958C52.0321 113.145 50.8857 113.333 49.7602 113.5C49.51 113.541 49.2391 113.583 48.989 113.604C48.8639 113.625 47.9676 113.75 48.3637 113.687C48.7388 113.625 47.9885 113.729 47.8843 113.75C47.5925 113.791 47.2798 113.833 46.988 113.854C45.9667 113.979 44.9454 114.083 43.9241 114.187C42.2983 114.354 40.7142 115.521 40.7976 117.314C40.8393 118.877 42.1524 120.628 43.9032 120.461Z" fill="white"/>
<path d="M163.981 38.8184C170.671 38.8184 177.341 38.8184 184.032 38.8184C184.991 38.8184 185.949 38.8184 186.908 38.8184C185.866 37.7762 184.824 36.7341 183.782 35.6919C183.782 42.3826 183.782 49.0524 183.782 55.7431C183.782 56.7018 183.782 57.6606 183.782 58.6194C183.782 60.2452 185.22 61.8293 186.908 61.7459C188.597 61.6625 190.035 60.3702 190.035 58.6194C190.035 51.9287 190.035 45.2589 190.035 38.5683C190.035 37.6095 190.035 36.6507 190.035 35.6919C190.035 34.0036 188.597 32.5654 186.908 32.5654C180.218 32.5654 173.548 32.5654 166.857 32.5654C165.898 32.5654 164.939 32.5654 163.981 32.5654C162.355 32.5654 160.771 34.0036 160.854 35.6919C160.938 37.3802 162.23 38.8184 163.981 38.8184Z" fill="white"/>
<path d="M32.7104 198.853C34.1903 198.853 35.6702 198.853 37.15 198.853C41.1519 198.853 45.1538 198.853 49.1557 198.853C55.096 198.853 61.0363 198.853 66.9766 198.853C74.1884 198.853 81.421 198.853 88.6327 198.853C96.574 198.853 104.515 198.853 112.456 198.853C120.439 198.853 128.422 198.853 136.405 198.853C143.888 198.853 151.35 198.853 158.833 198.853C165.127 198.853 171.422 198.853 177.716 198.853C182.26 198.853 186.804 198.853 191.348 198.853C193.495 198.853 195.642 198.894 197.788 198.853C197.872 198.853 197.976 198.853 198.059 198.853C199.685 198.853 201.269 197.414 201.186 195.726C201.103 194.038 199.81 192.6 198.059 192.6C196.58 192.6 195.1 192.6 193.62 192.6C189.618 192.6 185.616 192.6 181.614 192.6C175.674 192.6 169.734 192.6 163.793 192.6C156.581 192.6 149.349 192.6 142.137 192.6C134.196 192.6 126.255 192.6 118.313 192.6C110.33 192.6 102.348 192.6 94.3646 192.6C86.8819 192.6 79.42 192.6 71.9373 192.6C65.6427 192.6 59.348 192.6 53.0534 192.6C48.5096 192.6 43.9658 192.6 39.4219 192.6C37.2751 192.6 35.1282 192.558 32.9814 192.6C32.898 192.6 32.7938 192.6 32.7104 192.6C31.0847 192.6 29.5006 194.038 29.584 195.726C29.6673 197.414 30.9596 198.853 32.7104 198.853Z" fill="white"/>
</svg>
