<svg width="105" height="105" viewBox="0 0 105 105" fill="none" xmlns="http://www.w3.org/2000/svg">
<rect width="105" height="105" rx="15" fill="#177CFF"/>
<path d="M52.499 88.2227C54.9371 88.2227 57.1683 88.4071 58.8027 88.709C59.7158 88.8776 60.4855 89.1067 61.0381 89.3965C61.5638 89.6723 62.0312 90.0803 62.0312 90.6602C62.0311 91.2403 61.5639 91.6481 61.0381 91.9238C60.4855 92.2135 59.7156 92.4418 58.8027 92.6104C57.1683 92.9122 54.9371 93.0977 52.499 93.0977C50.0611 93.0976 47.8306 92.9122 46.1963 92.6104C45.2837 92.4418 44.5134 92.2137 43.9609 91.9238C43.4355 91.6481 42.9689 91.2397 42.9688 90.6602C42.9688 90.0806 43.4354 89.6723 43.9609 89.3965C44.5133 89.1066 45.2832 88.8776 46.1963 88.709C47.8306 88.4071 50.0611 88.2227 52.499 88.2227ZM52.5 11.9023C59.5692 11.9023 65.9773 14.7731 70.6152 19.4121L71.0449 19.8516C75.4309 24.4462 78.125 30.6732 78.125 37.5264C78.125 40.8873 77.0477 44.8077 75.3418 48.9287C73.6335 53.0556 71.2818 57.4136 68.7031 61.6572C63.6264 70.0128 57.6578 77.9692 54.0186 82.8027L52.8184 84.3975L52.498 84.8213L52.1787 84.3975L50.9824 82.8096C47.3492 77.9851 41.393 70.0424 36.2979 61.6572C33.7192 57.4136 31.3675 53.0556 29.6592 48.9287C27.9533 44.8077 26.876 40.8873 26.876 37.5264C26.876 30.4521 29.7469 24.0452 34.3828 19.4092C39.0236 14.7735 45.431 11.9025 52.5 11.9023ZM52.5 15.71C46.4715 15.7101 41.0161 18.1508 37.0732 22.0947L37.0723 22.0938C33.125 26.0462 30.6836 31.502 30.6836 37.5264C30.6836 40.4168 31.6643 43.9358 33.2734 47.7607C34.8798 51.5788 37.0986 55.6688 39.543 59.6914C43.8507 66.7817 48.8836 73.6668 52.502 78.501C56.1132 73.676 61.1365 66.8042 65.458 59.6914C67.9023 55.6688 70.1212 51.5788 71.7275 47.7607C73.3367 43.9359 74.3173 40.4168 74.3174 37.5264C74.3174 31.5018 71.8749 26.0469 67.9277 22.0996C63.9848 18.1507 58.5287 15.71 52.5 15.71Z" fill="white" stroke="white" stroke-width="0.8"/>
<circle cx="52.5001" cy="37.171" r="13.0392" stroke="white" stroke-width="5"/>
</svg>
