<svg width="200" height="200" viewBox="0 0 200 200" fill="none" xmlns="http://www.w3.org/2000/svg">
<mask id="mask0_556_188" style="mask-type:luminance" maskUnits="userSpaceOnUse" x="0" y="21" width="200" height="158">
<path d="M200 21H0V178.965H200V21Z" fill="white"/>
</mask>
<g mask="url(#mask0_556_188)">
<path d="M53.1044 52.6774C53.0044 44.0783 54.4043 33.6793 56.4041 23.4802C56.9041 21.1805 57.704 20.6805 60.0038 21.1805C64.4033 22.1804 68.8029 22.8803 73.3025 23.4802C75.4023 23.7802 75.6023 24.4802 75.2023 26.48C72.5026 39.3787 70.9027 52.3775 72.5026 65.5762C74.0024 77.775 78.802 88.074 89.201 95.0734C98.1001 101.072 112.799 99.8729 121.298 92.4736C129.097 85.7743 131.997 73.5754 127.797 64.2763C122.598 52.5775 108.799 49.2778 98.8 57.177C97.8946 57.8982 97.0578 58.7015 96.3003 59.5768C91.2008 64.7763 91.2008 64.7763 85.8013 60.2767C84.7014 59.3768 83.7015 58.4769 82.6016 57.577C76.8021 52.7774 76.9021 52.8774 82.1016 47.178C100.6 27.1799 129.297 31.6795 142.096 50.9776C154.395 69.4758 149.295 95.6733 131.197 108.772C107.999 125.67 75.3023 117.971 61.7036 92.3736C55.0042 79.9748 53.1044 71.3757 53.1044 52.6774Z" fill="#035FFE"/>
<path d="M4.70907 148.569C11.0084 144.669 16.4079 144.969 20.0076 149.169C23.6072 153.368 23.6072 160.467 20.1076 164.867C18.3128 167.002 15.8094 168.42 13.0552 168.86C10.3011 169.301 7.48033 168.735 5.10903 167.267C3.56893 166.419 2.2838 165.175 1.38708 163.662C0.490349 162.15 0.0147053 160.426 0.00952148 158.668C0.00952148 152.068 0.109512 145.469 0.00952148 138.97C0.00952148 136.97 0.809445 136.07 2.70926 136.07C4.60908 136.07 4.80906 137.37 4.80906 138.97C4.70907 141.969 4.70907 145.069 4.70907 148.569ZM4.70907 157.268C4.70907 161.967 7.30882 165.167 11.3084 165.167C15.108 165.167 17.7078 162.067 17.8078 157.568C17.9078 152.768 15.408 149.669 11.4084 149.569C7.40881 149.469 4.80906 152.468 4.70907 157.268Z" fill="#035FFE"/>
<path d="M182.192 166.666V175.565C182.192 177.465 181.992 178.865 179.592 178.965C177.193 179.065 177.493 177.265 177.493 175.765C177.493 169.466 177.393 163.166 177.493 156.867C177.476 155.414 177.753 153.973 178.307 152.63C178.862 151.287 179.682 150.07 180.719 149.051C181.755 148.033 182.987 147.236 184.34 146.706C185.693 146.176 187.139 145.925 188.592 145.968C191.543 145.922 194.393 147.04 196.526 149.08C198.66 151.119 199.904 153.917 199.99 156.867V157.167C200.19 167.666 192.591 172.066 182.192 166.666ZM195.291 157.567C195.291 152.967 192.391 149.568 188.691 149.668C184.992 149.768 182.292 152.867 182.192 157.367C182.192 162.467 184.392 165.266 188.592 165.266C192.791 165.266 195.291 162.367 195.291 157.567Z" fill="#035FFE"/>
<path d="M133.597 159.668C135.397 164.867 138.896 166.367 144.896 164.967C146.396 164.667 147.895 163.467 148.495 165.967C148.995 168.067 147.095 168.167 145.896 168.567C140.196 170.367 133.797 168.967 130.897 165.367C127.697 161.267 127.597 155.368 130.597 150.568C133.997 145.069 142.696 143.869 147.495 147.969C150.195 150.268 150.495 153.368 149.695 156.368C148.895 159.368 146.096 159.568 143.396 159.668C140.296 159.768 137.096 159.668 133.597 159.668ZM138.596 156.468H142.096C143.696 156.468 145.296 156.268 145.796 154.368C145.96 153.607 145.884 152.815 145.58 152.099C145.276 151.383 144.757 150.778 144.096 150.368C141.296 148.269 138.596 148.569 135.997 150.768C134.397 152.068 133.097 153.868 133.797 155.768C134.297 157.368 136.496 156.268 137.896 156.568C138.12 156.486 138.359 156.452 138.596 156.468Z" fill="#035FFE"/>
<path d="M71.7026 159.668C70.5027 159.668 69.4028 159.568 68.2029 159.668C67.303 159.768 65.9032 159.068 65.5032 160.368C65.3722 161.006 65.4468 161.669 65.7163 162.262C65.9858 162.854 66.4363 163.347 67.0031 163.667C70.2028 166.067 73.7024 165.867 77.3021 164.667C78.7019 164.167 79.4019 164.267 80.0018 165.667C80.6018 167.067 79.8018 167.667 78.602 168.267C73.8024 170.567 66.5031 169.567 63.0035 166.067C59.8038 162.967 59.1038 156.368 61.5036 151.668C63.7034 147.369 67.503 145.469 72.3026 145.669C76.0022 145.769 79.2019 146.869 80.9017 150.469C83.4015 155.668 80.9017 159.668 75.1023 159.768C74.0024 159.768 72.8025 159.668 71.7026 159.668ZM70.3028 156.468H73.0025C74.8023 156.368 76.9021 156.768 77.2021 154.268C77.5021 151.768 76.2022 150.169 73.8024 149.369C71.4026 148.569 69.3028 149.369 67.403 150.869C65.9032 152.068 64.8033 153.868 65.2032 155.568C65.6032 157.468 67.803 156.168 69.2029 156.468H70.3028Z" fill="#035FFE"/>
<path d="M164.594 159.668C163.394 159.668 162.294 159.568 161.094 159.668C160.194 159.768 158.794 159.068 158.394 160.268C157.994 161.468 158.894 162.468 159.694 163.267C162.694 166.067 166.294 165.767 169.893 164.867C171.193 164.567 172.393 163.867 172.993 165.667C173.593 167.467 172.293 168.167 170.793 168.567C165.494 170.067 160.194 170.167 155.995 165.967C152.395 162.468 152.495 157.868 153.795 153.368C155.895 145.969 166.394 142.869 172.093 147.969C173.307 148.953 174.181 150.292 174.594 151.799C175.006 153.305 174.936 154.903 174.393 156.368C173.493 159.268 170.793 159.768 168.093 159.668H164.594ZM163.294 156.468H165.994C167.793 156.468 169.793 156.668 169.993 154.068C170.137 153.042 169.901 151.999 169.33 151.133C168.76 150.268 167.893 149.641 166.894 149.369C166.053 149.04 165.148 148.905 164.248 148.974C163.348 149.044 162.475 149.315 161.694 149.769C159.494 151.069 157.394 153.068 157.894 155.468C158.294 157.568 161.194 156.068 162.894 156.468H163.294Z" fill="#035FFE"/>
<path d="M105.499 145.669C108.339 145.508 111.161 146.205 113.599 147.669C114.599 148.269 115.399 149.169 114.599 150.569C113.799 151.969 112.899 151.569 111.799 150.869C109.204 149.353 106.127 148.888 103.2 149.569C101.7 149.869 100.4 150.469 100.3 152.169C100.1 154.068 101.6 154.468 103 154.768C105.499 155.268 108.099 155.468 110.599 156.168C113.599 156.968 116.098 158.468 116.098 162.168C116.098 165.867 113.999 167.967 110.799 168.867C106.418 170.092 101.746 169.738 97.6 167.867C96.2002 167.367 95.4003 166.567 96.2002 164.967C97.0001 163.367 97.9 163.867 98.9999 164.367C102.1 165.667 105.3 166.467 108.799 165.467C110.099 165.067 111.199 164.467 111.299 162.968C111.399 161.468 110.199 160.768 108.899 160.468C106.799 159.968 104.6 159.668 102.5 159.168C97.4001 158.068 95.6002 156.168 95.8002 152.269C96.1002 148.669 98.7999 146.369 103.3 145.969C104.004 145.716 104.753 145.614 105.499 145.669Z" fill="#035FFE"/>
<path d="M56.5041 154.867V158.667C56.4041 165.166 52.6045 169.066 46.3051 169.166C40.0057 169.266 35.8061 165.166 35.7061 158.567V149.668C35.7061 147.768 36.106 146.368 38.3058 146.268C40.7056 146.168 40.4056 147.868 40.4056 149.468C40.4056 152.568 40.3056 155.667 40.4056 158.767C40.6056 162.967 42.6054 165.066 46.1051 165.066C49.6047 165.066 51.6046 162.867 51.7045 158.667C51.8045 155.567 51.8045 152.468 51.7045 149.368C51.7045 147.568 52.2045 146.368 54.2043 146.268C56.6041 146.168 56.4041 147.768 56.4041 149.368C56.5041 151.268 56.5041 153.067 56.5041 154.867Z" fill="#035FFE"/>
<path d="M119.898 152.467C119.898 148.068 119.998 143.768 119.898 139.369C119.898 137.369 120.398 136.069 122.598 135.969C124.798 135.869 124.798 137.569 124.798 139.169V165.366C124.798 167.166 124.698 168.766 122.298 168.866C119.698 168.966 119.898 167.266 119.998 165.466C119.898 161.267 119.898 156.867 119.898 152.467Z" fill="#035FFE"/>
<path d="M26.407 152.368C26.407 147.969 26.507 143.669 26.407 139.27C26.407 137.27 26.9069 135.97 29.1067 136.07C31.3065 136.17 31.0065 137.67 31.0065 139.07V165.667C31.0065 167.467 30.9065 169.067 28.5068 169.067C26.107 169.067 26.407 167.467 26.407 165.867V152.368Z" fill="#035FFE"/>
</g>
</svg>
