<svg width="200" height="200" viewBox="0 0 200 200" fill="none" xmlns="http://www.w3.org/2000/svg">
<g clip-path="url(#clip0_902_3)">
<path d="M185.995 115.264H14.2974V125.239H185.995V115.264Z" fill="black"/>
<path d="M14.2974 186.001H24.8773V174.514H85.032V135.217H14.2974V186.001ZM24.8773 145.192H74.4518V164.538H24.8773V145.192Z" fill="black"/>
<path d="M95.0171 174.514H134.919V186.001H145.801V174.514H185.702V135.217H95.0171V174.514ZM145.801 145.192H175.425V164.538H145.801V145.192ZM105.597 145.192H134.919V164.538H105.597V145.192Z" fill="black"/>
<path d="M105.289 14H64.7827V104.988H105.289V14ZM94.7089 95.0124H75.3625V24.2777H94.7089V95.0124Z" fill="black"/>
<path d="M126.145 44.5308L145.491 24.2777V105.29H156.071V44.5308L175.115 24.2777V105.29H185.695V14H170.883L156.071 29.7188V14H141.259L115.565 40.6011V105.29H126.145V44.5308Z" fill="black"/>
<path d="M43.9262 105.29H54.506V95.3144V14H39.6942L14 40.6011V95.0124V104.988H24.58H43.9262V105.29ZM24.8822 44.5308L44.2285 24.2777V95.0124H24.8822V44.5308Z" fill="black"/>
</g>
<defs>
<clipPath id="clip0_902_3">
<rect width="172" height="172" fill="white" transform="translate(14 14)"/>
</clipPath>
</defs>
</svg>
