<svg width="200" height="200" viewBox="0 0 200 200" fill="none" xmlns="http://www.w3.org/2000/svg">
<g clip-path="url(#clip0_746_201)">
<path d="M199.736 117.551H0V129.265H199.736V117.551Z" fill="black"/>
<path d="M0 200H12.2269V186.739H82.1855V140.969H0V200ZM12.2269 152.674H69.9585V175.025H12.2269V152.674Z" fill="black"/>
<path d="M94.1387 186.731H140.439V199.992H153.187V186.731H199.736V140.961H94.1473V186.731H94.1387ZM153.187 152.675H187.507V175.025H153.187V152.675ZM106.374 152.675H140.439V175.025H106.374V152.675Z" fill="black"/>
<path d="M105.998 0H59.0059V106.007H105.998V0ZM93.7371 94.2413H71.284V11.7481H93.7371V94.2413Z" fill="black"/>
<path d="M130.29 35.2699L152.743 11.7481V106.007H165.013V35.2615L187.457 11.7567V106.007H199.736V0H182.498L165.013 18.2549V0H147.784L118.012 30.8068V106.007H130.29V35.2699Z" fill="black"/>
<path d="M34.7228 106.007H46.9924V0H29.7636L0 30.8068V105.998H34.7228V106.007ZM12.2697 35.2699L34.7142 11.7567V94.2499H12.2697V35.2699Z" fill="black"/>
</g>
<defs>
<clipPath id="clip0_746_201">
<rect width="200" height="200" fill="white"/>
</clipPath>
</defs>
</svg>
