<svg width="200" height="200" viewBox="0 0 200 200" fill="none" xmlns="http://www.w3.org/2000/svg">
<g clip-path="url(#clip0_746_165)">
<path d="M123.489 64.0661C121.473 64.3712 119.915 66.2103 119.915 68.2822C119.915 69.8 120.758 71.2294 122.076 71.9281C122.774 72.2975 123.28 72.418 124.18 72.418C125.457 72.418 126.292 72.0807 127.152 71.2214C128.003 70.3701 128.348 69.5189 128.348 68.2902C128.348 67.8887 128.308 67.3988 128.26 67.198C127.907 65.6561 126.413 64.2909 124.855 64.0661C124.228 63.9777 124.067 63.9777 123.489 64.0661Z" fill="#652581"/>
<path d="M151.263 64.0741C149.601 64.3552 148.211 65.6561 147.826 67.2944C147.312 69.4948 148.573 71.647 150.749 72.2895C151.014 72.3698 151.488 72.418 151.962 72.418C153.247 72.418 154.179 72.0405 155.014 71.1732C156.693 69.4225 156.548 66.6118 154.685 64.9976C154.187 64.564 153.311 64.1624 152.645 64.0661C152.002 63.9777 151.841 63.9777 151.263 64.0741Z" fill="#652581"/>
<path d="M8.59404 65.8092C5.99977 66.0823 3.45368 67.5439 1.85535 69.672C1.15658 70.5875 0.5301 71.9848 0.184732 73.3661C0.0562227 73.856 0.0481909 75.3095 0.0240955 90.9051L0 107.914H3.29305H6.58609V98.0765V88.2389H13.3328H20.0795V85.0266V81.8144H13.3328H6.57806L6.60215 78.1363L6.62625 74.4663L6.89933 73.9604C7.22864 73.3581 7.72661 72.8762 8.33703 72.5951L8.79484 72.3783L14.4412 72.3542L20.0795 72.3301V69.0456V65.753L14.4814 65.7691C11.3971 65.7691 8.74665 65.7932 8.59404 65.8092Z" fill="#652581"/>
<path d="M134.774 86.8335V107.914H138.067H141.36V86.8335V65.753H138.067H134.774V86.8335Z" fill="#652581"/>
<path d="M33.1314 75.7668C30.521 75.9997 27.8866 77.5416 26.3123 79.75C25.8304 80.4246 25.2843 81.5007 25.0273 82.2797C24.5373 83.7333 24.5534 83.4763 24.5213 91.25C24.4811 98.9193 24.5132 99.6822 24.8666 100.903C25.477 103.023 26.8103 104.934 28.5291 106.147C29.2359 106.653 30.521 107.295 31.2359 107.512C32.5852 107.906 32.6976 107.914 40.601 107.914C48.4159 107.914 48.6006 107.906 49.8777 107.536C50.9218 107.239 52.2712 106.524 53.2591 105.745L53.476 105.585L53.8213 105.882C54.6968 106.613 56.255 107.448 57.267 107.713C57.6605 107.817 58.2308 107.865 59.5801 107.89L61.3632 107.93V104.709V101.489H60.6966C59.3472 101.489 58.544 101.208 57.7489 100.469C57.4035 100.156 57.1786 99.8508 56.9698 99.4172L56.6646 98.8068L56.6164 91.3785C56.5762 84.191 56.5682 83.918 56.4076 83.2594C55.4197 79.2361 52.1748 76.2808 48.2312 75.799C47.5645 75.7186 33.9988 75.6865 33.1314 75.7668ZM47.6047 82.4082C48.6167 82.6812 49.3878 83.2835 49.7813 84.1268L49.9982 84.5845V91.8202V99.0478L49.693 99.6581C49.2111 100.638 48.4239 101.216 47.2995 101.409C46.9461 101.473 44.7695 101.489 40.2395 101.473L33.6936 101.449L33.1956 101.256C32.1916 100.863 31.517 100.172 31.2439 99.2566C31.0832 98.7265 31.0832 98.5579 31.0993 91.6917L31.1234 84.6648L31.3724 84.1428C31.7981 83.2675 32.5129 82.6893 33.5169 82.4162C34.1353 82.2556 46.9862 82.2476 47.6047 82.4082Z" fill="#652581"/>
<path d="M62.4875 78.9873V82.296H62.9614C64.5196 82.296 65.7324 83.0027 66.3589 84.2796L66.6239 84.8256L66.648 96.4059L66.6641 107.994H70.0375H73.4108L73.4269 96.3657L73.451 84.7453L73.6357 84.2796C74.0212 83.3319 74.969 82.577 76.0131 82.3843C76.6316 82.2719 83.1855 82.2639 83.7799 82.3763C84.7999 82.569 85.7075 83.2195 86.1573 84.0788L86.3822 84.5044L86.4063 96.2051L86.4224 107.914H89.9162H93.41V96.446C93.41 87.2027 93.4341 84.8979 93.5225 84.5365C93.7875 83.4042 94.5345 82.7055 95.7794 82.4164C96.2292 82.312 96.928 82.296 100.141 82.312C102.952 82.3361 104.052 82.3683 104.277 82.4405C105.096 82.7216 105.916 83.5327 106.309 84.4643C106.454 84.8096 106.462 85.2272 106.486 96.3657L106.502 107.914H109.795H113.088V96.2774C113.088 83.4122 113.112 84.0306 112.566 82.4004C112.229 81.3885 111.915 80.7701 111.305 79.8787C110.14 78.1602 108.373 76.8271 106.454 76.2087C105.096 75.767 104.92 75.751 99.956 75.751C95.0003 75.751 94.8076 75.767 93.4743 76.2007C92.3498 76.5621 91.1049 77.2607 90.1973 78.0317L89.9242 78.2646L89.5548 77.9674C88.5669 77.1483 87.2255 76.4336 86.0127 76.0802C84.808 75.7349 84.0771 75.6948 79.3945 75.7349C74.5995 75.767 74.5835 75.7751 73.0092 76.3452C72.0133 76.7147 70.4551 77.6623 70.0455 78.1521C69.9571 78.2565 69.8929 78.2325 69.5315 77.9433C67.8126 76.5862 65.7726 75.8473 63.4755 75.7349L62.4875 75.6867V78.9873Z" fill="#652581"/>
<path d="M120.879 91.8126V107.914H124.132H127.385V91.8126V75.7111H124.132H120.879V91.8126Z" fill="#652581"/>
<path d="M148.669 91.8126V107.914H151.962H155.255V91.8126V75.7111H151.962H148.669V91.8126Z" fill="#652581"/>
<path d="M170.981 75.7909C168.604 76.072 166.178 77.4452 164.701 79.3565C163.833 80.4728 163.311 81.5007 162.901 82.8981L162.693 83.6208L162.66 91.5632C162.636 100.236 162.636 100.132 163.102 101.433C164.315 104.822 167.102 107.199 170.548 107.793C171.64 107.978 185.72 107.97 186.82 107.785C188.29 107.528 189.671 106.95 190.884 106.075L191.543 105.601L192.25 106.139C193.141 106.805 194.201 107.36 195.141 107.641C195.8 107.841 195.992 107.857 197.647 107.898L199.43 107.93V104.709V101.489H198.763C197.872 101.489 197.245 101.369 196.675 101.08C195.792 100.63 195.141 99.8589 194.844 98.9112C194.699 98.4455 194.691 98.068 194.691 91.531C194.691 87.066 194.659 84.4159 194.603 84.0143C194.338 82.095 193.398 80.1596 192.041 78.7302C190.523 77.132 188.427 76.064 186.298 75.799C185.463 75.6946 171.857 75.6946 170.981 75.7909ZM185.672 82.4082C186.7 82.6812 187.39 83.2193 187.8 84.0465L188.065 84.5845L188.089 91.6435C188.105 97.9556 188.097 98.7506 187.977 99.1522C187.623 100.365 186.716 101.16 185.415 101.401C184.796 101.513 172.483 101.521 171.873 101.409C170.765 101.2 169.753 100.429 169.375 99.4975L169.19 99.0397V91.8924V84.7451L169.383 84.2633C169.728 83.404 170.572 82.6893 171.568 82.4243C172.202 82.2556 185.037 82.2396 185.672 82.4082Z" fill="#652581"/>
<path d="M96.1006 122.867C95.8838 122.955 95.1207 123.132 94.4059 123.261C92.3257 123.63 91.7554 123.863 91.0486 124.61C90.3739 125.341 90.1651 126.007 90.0286 127.943C89.8679 130.151 90.0366 131.291 90.655 132.223C92.1891 134.544 96.0123 134.198 97.2733 131.637C97.5383 131.099 97.5463 131.058 97.5463 130.079C97.5463 129.075 97.5463 129.067 97.2411 128.456C96.7753 127.509 95.9641 126.834 94.9762 126.577C93.8196 126.264 92.3337 126.642 91.5546 127.445L91.2333 127.782L91.2815 127.34C91.41 126.216 91.643 125.646 92.157 125.196C92.5666 124.835 93.1529 124.65 94.6228 124.425C95.3456 124.313 96.0846 124.176 96.2613 124.112L96.5825 123.999L96.6066 123.349C96.6227 122.988 96.5986 122.69 96.5665 122.698C96.5343 122.707 96.3255 122.779 96.1006 122.867ZM94.6629 127.726C94.936 127.814 95.2011 128.007 95.5464 128.344C96.1006 128.906 96.3014 129.356 96.3014 130.079C96.3014 130.745 96.1086 131.227 95.6107 131.757C95.0645 132.351 94.5424 132.592 93.8116 132.592C92.6228 132.592 91.643 131.797 91.3458 130.601C91.2253 130.119 91.2253 130.039 91.3458 129.549C91.4261 129.243 91.5948 128.866 91.7393 128.649C92.0285 128.256 92.6389 127.79 93.0405 127.677C93.4501 127.557 94.2372 127.581 94.6629 127.726Z" fill="#652581"/>
<path d="M0.160645 128.592V133.611H2.47381C5.10021 133.611 5.46164 133.555 6.17648 133.073C6.66642 132.728 7.16439 132.118 7.35715 131.596C7.43747 131.379 7.49369 130.977 7.50173 130.56C7.50976 129.66 7.25274 129.074 6.57807 128.432C5.78292 127.677 5.65441 127.637 3.43763 127.604L1.52605 127.572V126.135V124.697H4.21671H6.90737V124.135V123.573H3.53401H0.160645V128.592ZM5.10021 128.865C5.90339 129.227 6.3853 130.158 6.18451 130.945C6.03993 131.531 5.67047 131.973 5.10021 132.246C4.8191 132.383 4.58618 132.407 3.15651 132.407H1.52605V130.56V128.713H3.15651C4.55405 128.713 4.82713 128.737 5.10021 128.865Z" fill="#652581"/>
<path d="M198.386 126.987V130.4H199.028H199.671V126.987V123.574H199.028H198.386V126.987Z" fill="#652581"/>
<path d="M12.7224 126.248C11.9031 126.456 11.1722 126.954 10.7707 127.565L10.5217 127.934V127.123V126.304H9.91928H9.31689V131.604V136.904H9.95944H10.602V134.439V131.973L10.8269 132.335C11.5096 133.403 12.9794 133.981 14.2886 133.7C15.7745 133.387 16.9712 132.086 17.1881 130.568C17.4049 129.01 16.8186 127.669 15.5175 126.77C14.7785 126.264 13.5657 126.039 12.7224 126.248ZM14.3769 127.549C15.0837 127.91 15.654 128.576 15.8307 129.227C15.9994 129.837 15.9351 130.544 15.662 131.09C14.6741 133.106 11.9112 133.098 10.9152 131.074C10.2325 129.693 10.9313 128.014 12.4252 127.46C12.8509 127.3 14.0075 127.348 14.3769 127.549Z" fill="#652581"/>
<path d="M21.445 126.231C20.0957 126.464 18.8588 127.588 18.5214 128.913C18.1761 130.206 18.4973 131.571 19.3487 132.503C20.8828 134.181 23.8867 134.181 25.3967 132.503C25.6537 132.222 26.0232 131.62 26.0232 131.483C26.0232 131.459 25.7581 131.443 25.4288 131.443H24.8264L24.3927 131.877C24.0232 132.246 23.8626 132.342 23.3727 132.495C21.8787 132.945 20.3286 132.286 19.8467 130.993C19.7503 130.752 19.678 130.519 19.678 130.479C19.678 130.431 20.8989 130.399 22.9309 130.399H26.1838V130.094C26.1758 128.841 25.4609 127.476 24.4489 126.777C23.718 126.279 22.4731 126.046 21.445 126.231ZM23.4851 127.54C24.0152 127.805 24.5212 128.343 24.6899 128.849C24.7622 129.058 24.8184 129.25 24.8184 129.291C24.8184 129.323 23.6618 129.355 22.2402 129.355H19.67L19.7262 129.17C19.919 128.528 20.425 127.861 20.9149 127.612C21.7101 127.195 22.7221 127.171 23.4851 127.54Z" fill="#652581"/>
<path d="M66.9051 126.224C66.0296 126.384 65.3228 126.778 64.6723 127.461C64.0137 128.159 63.6924 128.97 63.6924 129.95C63.6924 131.042 64.0538 131.869 64.849 132.64C65.8529 133.596 67.1621 133.973 68.5275 133.684C69.7484 133.427 70.9531 132.367 71.1941 131.339L71.2423 131.123H70.5676H69.8929L69.7966 131.363C69.644 131.733 68.9693 132.295 68.4874 132.456C67.9492 132.632 67.2987 132.632 66.7445 132.448C66.126 132.239 65.3871 131.5 65.1381 130.841C64.9052 130.199 64.9373 129.412 65.2425 128.826C65.5076 128.296 66.2224 127.645 66.7123 127.477C67.2023 127.316 68.0537 127.308 68.5356 127.477C68.9773 127.629 69.652 128.199 69.7966 128.553L69.8929 128.794H70.5756C71.2423 128.794 71.2503 128.794 71.2021 128.609C70.7202 126.939 68.8247 125.887 66.9051 126.224Z" fill="#652581"/>
<path d="M83.9325 126.223C82.3824 126.504 81.1214 127.692 80.8082 129.178C80.5431 130.455 80.8965 131.636 81.8362 132.575C82.8804 133.627 84.1896 133.988 85.6835 133.651C86.9525 133.362 88.0529 132.342 88.4464 131.105C88.6472 130.439 88.6392 129.419 88.4304 128.785C87.8119 126.962 85.9003 125.878 83.9325 126.223ZM85.804 127.58C86.2939 127.813 86.832 128.359 87.081 128.849C87.3541 129.411 87.3461 130.511 87.073 131.081C86.4304 132.382 84.9205 132.953 83.6354 132.366C83.049 132.109 82.4788 131.547 82.2218 130.977C81.9567 130.399 81.9808 129.459 82.27 128.865C82.527 128.327 83.0571 127.813 83.6354 127.54C84.1976 127.275 85.2176 127.291 85.804 127.58Z" fill="#652581"/>
<path d="M101.932 126.231C100.96 126.391 99.8355 127.178 99.2974 128.078C98.6468 129.162 98.6308 130.64 99.2492 131.78C99.5223 132.278 100.325 133.049 100.864 133.322C102.43 134.117 104.325 133.844 105.53 132.647C106.293 131.892 106.663 131.017 106.663 129.957C106.663 128.865 106.301 128.046 105.49 127.267C104.542 126.351 103.329 125.998 101.932 126.231ZM103.643 127.476C104.125 127.644 104.839 128.295 105.12 128.825C105.305 129.178 105.337 129.331 105.337 129.957C105.337 130.591 105.305 130.728 105.112 131.105C104.855 131.587 104.349 132.109 103.932 132.326C103.233 132.679 102.293 132.679 101.554 132.318C101.121 132.117 100.518 131.467 100.293 130.977C100.052 130.447 100.052 129.467 100.293 128.937C100.542 128.383 101.088 127.837 101.643 127.58C102.213 127.307 103.016 127.267 103.643 127.476Z" fill="#652581"/>
<path d="M140.637 126.223C139.015 126.513 137.834 127.709 137.577 129.347C137.392 130.488 137.746 131.716 138.493 132.495C139.256 133.29 140.067 133.676 141.175 133.748C142.693 133.853 144.083 133.242 144.822 132.134C145.263 131.468 145.255 131.443 144.516 131.443L143.89 131.451L143.673 131.757C143.528 131.973 143.296 132.15 142.918 132.335C142.404 132.592 142.316 132.608 141.561 132.608C140.621 132.608 140.235 132.471 139.633 131.917C139.239 131.556 139.023 131.203 138.886 130.697L138.806 130.399H142.051H145.295V129.974C145.295 129.026 144.822 127.926 144.115 127.219C143.271 126.368 141.954 125.991 140.637 126.223ZM142.524 127.5C143.183 127.789 143.729 128.424 143.938 129.131L144.002 129.355H141.432C138.549 129.355 138.725 129.396 139.023 128.745C139.312 128.111 139.882 127.605 140.581 127.38C141.071 127.219 142.027 127.276 142.524 127.5Z" fill="#652581"/>
<path d="M153.095 126.231C152.123 126.392 150.998 127.179 150.46 128.078C149.834 129.122 149.793 130.584 150.356 131.684C150.613 132.182 151.424 133.001 151.946 133.274C154.002 134.375 156.46 133.612 157.472 131.556C157.785 130.937 157.785 130.921 157.785 129.966C157.785 129.034 157.777 128.97 157.528 128.448C157.167 127.685 156.436 126.938 155.697 126.585C154.886 126.183 154.058 126.071 153.095 126.231ZM154.805 127.476C155.287 127.645 156.002 128.295 156.283 128.825C156.468 129.179 156.5 129.331 156.5 129.958C156.5 130.592 156.468 130.729 156.275 131.106C155.432 132.712 153.464 133.098 152.163 131.917C151.528 131.331 151.279 130.777 151.279 129.958C151.279 129.187 151.456 128.753 151.978 128.183C152.476 127.637 153.127 127.348 153.858 127.348C154.171 127.348 154.596 127.404 154.805 127.476Z" fill="#652581"/>
<path d="M182.009 126.271C180.483 126.601 179.358 127.781 179.109 129.315C178.973 130.19 179.142 131.162 179.559 131.893C179.856 132.399 180.644 133.105 181.214 133.37C182.78 134.101 184.756 133.804 185.945 132.64C186.29 132.302 186.659 131.732 186.659 131.523C186.659 131.475 186.418 131.443 186.041 131.443C185.43 131.443 185.414 131.451 185.278 131.684C185.206 131.812 184.965 132.029 184.756 132.166C183.559 132.929 181.929 132.768 181.037 131.796C180.684 131.411 180.403 130.873 180.395 130.576V130.399H183.607H186.82V129.933C186.82 128.584 185.888 127.09 184.716 126.544C183.88 126.159 182.957 126.062 182.009 126.271ZM184.065 127.508C184.716 127.781 185.262 128.432 185.487 129.17L185.543 129.355H182.973C180.121 129.355 180.29 129.387 180.523 128.825C180.812 128.134 181.439 127.572 182.162 127.371C182.684 127.227 183.559 127.283 184.065 127.508Z" fill="#652581"/>
<path d="M27.8704 129.957V133.611H28.5129H29.1555V132.045V130.479H31.5248H33.8942V132.045V133.611H34.5368H35.1793V129.957V126.303H34.5368H33.8942V127.829V129.355H31.5248H29.1555V127.829V126.303H28.5129H27.8704V129.957Z" fill="#652581"/>
<path d="M38.0707 127.887C38.0627 129.621 37.9824 130.738 37.8217 131.292C37.6691 131.806 36.9141 132.569 36.5607 132.569H36.3037V133.894V135.219H36.9061H37.5085V134.416V133.613H40.5606H43.6127V134.416V135.219H44.2151H44.8174V133.894V132.569H44.3355H43.8536V129.437V126.305H40.9622H38.0707V127.887ZM42.6488 129.959V132.569H40.5204C39.3478 132.569 38.392 132.545 38.392 132.52C38.392 132.496 38.4803 132.368 38.5847 132.239C38.6972 132.111 38.8659 131.798 38.9703 131.549C39.1389 131.115 39.155 130.938 39.1791 129.212L39.2032 127.349H40.93H42.6488V129.959Z" fill="#652581"/>
<path d="M46.1829 129.965V133.619L48.496 133.587C50.9859 133.555 51.1385 133.531 51.773 133.105C52.9055 132.35 53.0099 130.768 51.9899 129.829C51.3152 129.202 51.1144 129.154 49.1386 129.13L47.3876 129.106V127.701V126.303H46.7852H46.1829V129.965ZM50.7449 130.367C51.4999 130.744 51.7088 131.427 51.2349 131.965C50.769 132.487 50.6486 132.519 48.9378 132.551L47.3876 132.583V131.371V130.158H48.8575C50.2791 130.158 50.3433 130.166 50.7449 130.367Z" fill="#652581"/>
<path d="M53.8936 129.957V133.611H54.5361H55.1786V129.957V126.303H54.5361H53.8936V129.957Z" fill="#652581"/>
<path d="M73.0093 129.949V133.611H75.202C76.5352 133.611 77.5794 133.571 77.8605 133.523C78.4548 133.403 79.0894 133.017 79.3865 132.583C79.6917 132.15 79.7721 131.387 79.5632 130.841C79.4106 130.455 78.8323 129.869 78.5271 129.789C78.3263 129.741 78.3344 129.733 78.7119 129.371C79.2741 128.825 79.4187 128.183 79.1215 127.548C78.9207 127.123 78.6155 126.841 78.0292 126.568L77.5473 126.344L75.2823 126.319L73.0093 126.287V129.949ZM77.4991 127.492C78.2541 127.893 78.1978 128.841 77.4027 129.202C77.1135 129.331 76.8645 129.355 75.6437 129.355H74.214V128.351V127.347H75.724C77.0252 127.347 77.2661 127.363 77.4991 127.492ZM77.8123 130.463C78.6396 130.905 78.6958 131.804 77.9247 132.326C77.6436 132.519 77.5954 132.527 75.9248 132.551L74.214 132.575V131.403V130.222L75.8445 130.255C77.3465 130.279 77.491 130.295 77.8123 130.463Z" fill="#652581"/>
<path d="M108.895 128.569C108.855 131.292 108.815 131.468 108.149 132.135C107.811 132.472 107.659 132.569 107.474 132.569H107.225V133.894V135.219H107.827H108.43V134.416V133.613H111.482H114.534V134.416V135.219H115.096H115.658V133.894V132.569H115.217H114.775V129.437V126.305H111.851H108.928L108.895 128.569ZM113.57 129.959V132.569H111.385H109.209L109.361 132.384C109.964 131.717 110.06 131.292 110.1 129.172L110.132 127.349H111.851H113.57V129.959Z" fill="#652581"/>
<path d="M117.104 129.957V133.611H117.747H118.389V132.045V130.479H120.758H123.128V132.045V133.611H123.77H124.413V129.957V126.303H123.77H123.128V127.829V129.355H120.758H118.389V127.829V126.303H117.747H117.104V129.957Z" fill="#652581"/>
<path d="M126.742 129.965V133.627L129.096 133.595L131.441 133.571L131.947 133.338C132.814 132.936 133.272 132.27 133.272 131.402C133.28 130.519 132.774 129.78 131.891 129.363C131.457 129.162 131.385 129.154 129.738 129.13L128.027 129.106V127.7V126.303H127.385H126.742V129.965ZM131.111 130.254C131.288 130.31 131.577 130.495 131.738 130.656C131.995 130.913 132.043 131.017 132.043 131.298C132.043 131.748 131.81 132.117 131.385 132.342C131.071 132.511 130.911 132.527 129.537 132.551L128.027 132.583V131.37V130.158H129.401C130.26 130.158 130.903 130.198 131.111 130.254Z" fill="#652581"/>
<path d="M134.533 129.957V133.611H135.135H135.738V129.957V126.303H135.135H134.533V129.957Z" fill="#652581"/>
<path d="M158.548 126.866V127.428H159.954H161.359V130.52V133.611H162.002H162.644V130.52V127.428H164.05H165.455V126.866V126.303H162.002H158.548V126.866Z" fill="#652581"/>
<path d="M170.274 129.957V133.611H173.608H176.941V134.374V135.137H177.543H178.146V133.812V132.487H177.664H177.182V129.395V126.303H176.539H175.897V129.395V132.487H173.728H171.56V129.395V126.303H170.917H170.274V129.957Z" fill="#652581"/>
<path d="M188.507 129.957V133.611H189.149H189.792V132.045V130.479H192.201H194.611V132.045V133.611H195.254H195.896V129.957V126.303H195.254H194.611V127.829V129.355H192.201H189.792V127.829V126.303H189.149H188.507V129.957Z" fill="#652581"/>
<path d="M198.458 131.966C198.225 132.094 197.984 132.528 197.984 132.833C197.984 132.937 198.065 133.146 198.169 133.299C198.884 134.359 200.458 133.451 199.872 132.327C199.647 131.885 198.932 131.709 198.458 131.966Z" fill="#652581"/>
<path d="M57.3952 133.829C57.2748 134.881 57.1543 135.805 57.1382 135.877C57.0981 136.005 57.1543 136.021 57.58 136.021C57.9655 136.021 58.0699 135.997 58.102 135.877C58.1904 135.604 58.8731 132.215 58.8731 132.07C58.8731 131.942 58.8008 131.926 58.2466 131.926H57.6201L57.3952 133.829Z" fill="#652581"/>
</g>
<defs>
<clipPath id="clip0_746_165">
<rect width="200" height="200" fill="white"/>
</clipPath>
</defs>
</svg>
