<svg width="200" height="200" viewBox="0 0 200 200" fill="none" xmlns="http://www.w3.org/2000/svg">
<path d="M22.8422 64.0313C21.4246 62.5473 19.1967 62.6863 17.9008 64.3097C16.6045 65.9333 16.7262 68.4844 18.1438 69.9684C19.5614 71.4527 21.789 71.3138 23.0852 69.6901C24.3812 68.0668 24.3002 65.5157 22.8422 64.0313Z" fill="url(#paint0_radial_1127_5)"/>
<path d="M9.17501 52.3514C6.51496 54.2429 4.32985 56.7065 3 59.6097C4.61482 59.9616 9.45998 61.4573 11.6924 67C12.3573 66.7802 13.7825 66.0322 14.8274 62.9969C16.1573 58.9499 18.7223 55.0786 22 53.803C18.675 50.7677 14.3525 50.0639 9.17501 52.3514Z" fill="url(#paint1_linear_1127_5)"/>
<path d="M35 55.6769C31.4965 51.5993 26.2873 49 20.3865 49C16.0992 49 12.1807 50.3891 9 52.7195C16.007 49.4928 21.4469 52.137 24.7197 58.8139C29.9752 59.7102 33.5709 57.156 35 55.6769Z" fill="url(#paint2_linear_1127_5)"/>
<path d="M13.158 83.618C16.096 84.8026 19.3503 85.2256 22.5592 84.8872C22.1073 83.4488 21.113 79.0071 25 74.6073C24.503 74.1846 23.1019 73.4652 19.983 74.1421C15.7795 75.0304 11.1241 74.9458 8.3671 73C7.2371 77.0189 8.68329 80.6991 13.158 83.618Z" fill="url(#paint3_linear_1127_5)"/>
<path d="M3.13115 61C1.32481 65.9003 1.63302 71.5066 4.40885 76.3626C6.43561 79.8944 9.51965 82.499 13 84C6.92003 79.7618 6.61182 73.9789 10.7092 67.9751C8.94679 63.1191 5.06981 61.3972 3.13115 61Z" fill="url(#paint4_linear_1127_5)"/>
<path d="M39 64.9927C38.6012 61.7647 37.4497 58.6286 35.5451 56C34.4819 57.1531 30.9385 60.4734 25.0476 59.4128C24.9145 60.1044 24.9145 61.7184 27.0848 64.1166C29.9641 67.3446 32.1785 71.5412 31.7357 75C35.8995 73.8009 38.5571 70.5266 39 64.9927Z" fill="url(#paint5_linear_1127_5)"/>
<path d="M23.4456 85C28.7236 84.1189 33.592 81.0793 36.504 76.2335C38.5971 72.7095 39.325 68.7445 38.87 65C38.2331 72.357 33.228 75.5287 25.7663 75C22.3537 78.8765 22.8086 83.1058 23.4456 85Z" fill="url(#paint6_linear_1127_5)"/>
<path d="M51.2661 77H47V57H53.835C55.0732 57 56.2201 57.1384 57.2295 57.4156C58.2386 57.6927 59.0642 58.1086 59.798 58.6166C60.4862 59.1709 61.0366 59.8636 61.4496 60.695C61.8165 61.5265 62 62.5427 62 63.6973C62 64.806 61.8165 65.8222 61.4039 66.6997C61.0366 67.5775 60.4405 68.3166 59.7063 68.9169C58.9725 69.5172 58.0551 69.9791 57 70.3027C55.9449 70.6258 54.7523 70.7646 53.422 70.7646H51.2201V77H51.2661ZM51.1744 66.9768H53.5138C54.798 66.9768 55.8075 66.746 56.5413 66.2377C57.2752 65.7298 57.5964 64.9447 57.5964 63.8821C57.5964 62.7735 57.2295 61.9424 56.5413 61.4805C55.8532 61.0185 54.8441 60.7874 53.5138 60.7874H51.1744V66.9768Z" fill="#3C3C3B"/>
<path d="M74.5226 77C73.1169 77 71.8018 76.7769 70.6229 76.3305C69.4441 75.884 68.4462 75.259 67.6301 74.4109C66.7685 73.5624 66.1337 72.5358 65.6803 71.2857C65.2269 70.0359 65 68.6073 65 67C65 65.3928 65.2269 63.9644 65.7255 62.7143C66.2244 61.4642 66.8591 60.4376 67.7208 59.5891C68.5824 58.741 69.5799 58.116 70.7136 57.6695C71.8473 57.2231 73.1169 57 74.4774 57C75.9738 57 77.3341 57.2231 78.5133 57.6695C79.6921 58.116 80.6896 58.7855 81.5061 59.6339C82.3222 60.482 82.957 61.5535 83.3652 62.7588C83.7731 64.0089 84 65.3928 84 66.9555C84 68.6517 83.7731 70.1697 83.2745 71.4198C82.7756 72.6699 82.1409 73.741 81.2792 74.5446C80.4176 75.3483 79.4201 75.9733 78.2864 76.375C77.1075 76.8214 75.8831 77 74.5226 77ZM74.6588 73.3839C75.3842 73.3839 76.019 73.2501 76.6086 72.9822C77.1982 72.7143 77.7423 72.3127 78.1502 71.8214C78.5584 71.2857 78.9211 70.6606 79.148 69.8573C79.3746 69.0537 79.5107 68.116 79.5107 67.0448C79.5107 64.857 79.0573 63.2501 78.105 62.2231C77.1527 61.1964 75.9283 60.7054 74.3867 60.7054C73.7065 60.7054 73.0262 60.8392 72.4369 61.1071C71.8473 61.375 71.3032 61.7766 70.8498 62.2679C70.3961 62.8036 70.0333 63.4731 69.8068 64.2768C69.5348 65.0804 69.4441 66.0178 69.4441 67.0893C69.4441 68.1608 69.5799 69.0982 69.852 69.9018C70.124 70.7054 70.4867 71.3305 70.9405 71.8662C71.3939 72.402 71.938 72.8036 72.5728 73.027C73.253 73.2501 73.9333 73.3839 74.6588 73.3839Z" fill="#3C3C3B"/>
<path d="M103 75.884C102.733 76.0178 102.466 76.1519 102.154 76.2857C101.843 76.4198 101.487 76.5535 101.086 76.6428C100.685 76.7321 100.196 76.8214 99.6616 76.9107C99.1276 76.9555 98.5045 77 97.7924 77C96.3236 77 94.9881 76.7769 93.7863 76.375C92.5845 75.9733 91.5607 75.3483 90.7153 74.5002C89.8695 73.6966 89.2018 72.6696 88.7121 71.4643C88.2227 70.2591 88 68.8304 88 67.268C88 65.6163 88.2227 64.1429 88.7121 62.8483C89.2018 61.5538 89.8695 60.4823 90.7153 59.6342C91.6054 58.7858 92.6735 58.1163 93.92 57.6698C95.1661 57.2234 96.5906 57 98.1928 57C99.2166 57 100.196 57.0893 100.997 57.2679C101.843 57.4465 102.51 57.6698 103 57.8929L102.11 61.3752C101.531 61.1518 100.908 61.0181 100.329 60.9288C99.7063 60.8395 99.2166 60.7947 98.7715 60.7947C97.8368 60.7947 96.9467 60.9288 96.1899 61.1518C95.3888 61.3752 94.7211 61.7769 94.187 62.2681C93.6083 62.759 93.2076 63.4286 92.8962 64.1877C92.5845 64.9913 92.4512 65.8839 92.4512 66.9554C92.4512 69.009 93.0296 70.527 94.187 71.5536C95.3442 72.5803 96.8576 73.116 98.8159 73.116C99.2612 73.116 99.7953 73.0716 100.418 72.9375C101.041 72.8037 101.665 72.6251 102.243 72.3572L103 75.884Z" fill="#3C3C3B"/>
<path d="M119.186 72.6119H111.585L110.166 77H106L112.776 57H118.316L125 77H120.651L119.186 72.6119ZM112.73 68.8705H118.041L115.431 60.4642L112.73 68.8705Z" fill="#3C3C3B"/>
<path d="M134.586 77H130.459V60.9262H125V57H140V60.9262H134.586V77Z" fill="#3C3C3B"/>
<path d="M152.024 77C150.544 77 149.16 76.7769 147.919 76.3305C146.678 75.884 145.628 75.259 144.769 74.4109C143.862 73.5624 143.193 72.5358 142.716 71.2857C142.239 70.0359 142 68.6073 142 67C142 65.3928 142.239 63.9644 142.764 62.7143C143.289 61.4642 143.957 60.4376 144.864 59.5891C145.771 58.741 146.821 58.116 148.014 57.6695C149.208 57.2231 150.544 57 151.976 57C153.551 57 154.983 57.2231 156.224 57.6695C157.465 58.116 158.515 58.7855 159.375 59.6339C160.234 60.482 160.902 61.5535 161.332 62.7588C161.761 64.0089 162 65.3928 162 66.9555C162 68.6517 161.761 70.1697 161.236 71.4198C160.711 72.6699 160.043 73.741 159.136 74.5446C158.229 75.3483 157.179 75.9733 155.986 76.375C154.745 76.8214 153.408 77 152.024 77ZM152.167 73.3839C152.931 73.3839 153.599 73.2501 154.22 72.9822C154.84 72.7143 155.413 72.3127 155.842 71.8214C156.272 71.2857 156.654 70.6606 156.893 69.8573C157.131 69.0537 157.274 68.116 157.274 67.0448C157.274 64.857 156.797 63.2501 155.795 62.2231C154.792 61.1964 153.504 60.7054 151.881 60.7054C151.165 60.7054 150.449 60.8392 149.828 61.1071C149.208 61.375 148.635 61.7766 148.157 62.2679C147.68 62.8036 147.298 63.4731 147.06 64.2768C146.773 65.0804 146.678 66.0178 146.678 67.0893C146.678 68.1608 146.821 69.0982 147.107 69.9018C147.394 70.7054 147.776 71.3305 148.253 71.8662C148.73 72.402 149.303 72.8036 149.971 73.027C150.687 73.2501 151.403 73.3839 152.167 73.3839Z" fill="#3C3C3B"/>
<path d="M188 77H183.713L182.653 63.7437L178.505 77H174.449L170.393 63.7897L169.287 77H165L166.982 57H172.098L176.615 72.0576L181.04 57H185.972L188 77Z" fill="#3C3C3B"/>
<mask id="mask0_1127_5" style="mask-type:luminance" maskUnits="userSpaceOnUse" x="0" y="90" width="200" height="51">
<path d="M0 90.0449H200V140.881H0V90.0449Z" fill="white"/>
</mask>
<g mask="url(#mask0_1127_5)">
<path d="M66.6975 103.764V110.292H65.1236V105.095H62.0892L61.9038 107.653C61.8499 108.485 61.6769 109.149 61.3855 109.648C61.0938 110.146 60.5989 110.395 59.9016 110.395C59.7367 110.395 59.5958 110.388 59.4783 110.374C59.3609 110.36 59.2579 110.34 59.1692 110.315V108.745C59.2455 108.767 59.3157 108.782 59.381 108.79C59.4456 108.798 59.5242 108.801 59.6162 108.801C59.8855 108.801 60.0886 108.711 60.2248 108.53C60.3613 108.349 60.45 107.966 60.4912 107.381L60.7197 103.764H66.6975Z" fill="#004EA8"/>
<path d="M67.8977 103.764H74.0137V105.076H69.4007V106.379H73.5523V107.569H69.4007V109.013H74.085V110.292H67.8977V103.764Z" fill="#004EA8"/>
<path d="M74.6042 103.764H82.0138V105.095H79.1082V110.292H77.5102V105.095H74.6042V103.764Z" fill="#004EA8"/>
<path d="M60.7956 117.118H65.1804L65.6847 118.298H60.268L60.7956 117.118ZM62.1654 113.162H63.8157L67.4396 119.704H65.6181L63.2261 115.074C63.1655 114.962 63.1174 114.871 63.0809 114.802C63.0444 114.734 63.0056 114.66 62.9645 114.582H62.9501C62.9089 114.663 62.8701 114.737 62.8336 114.805C62.7972 114.872 62.7473 114.96 62.6837 115.069L60.2773 119.704H58.575L62.1654 113.162Z" fill="#004EA8"/>
<path d="M66.3806 113.176H73.7901V114.507H70.8845V119.704H69.2865V114.507H66.3806V113.176Z" fill="#004EA8"/>
<path d="M76.5449 118.062C77.0903 118.435 77.7892 118.623 78.6421 118.626C79.4886 118.633 80.1903 118.446 80.7467 118.069C81.3031 117.69 81.5812 117.147 81.5812 116.437V116.391C81.5812 115.706 81.3045 115.186 80.7514 114.828C80.198 114.47 79.495 114.289 78.6421 114.286C77.7829 114.28 77.0822 114.459 76.5402 114.821C75.9978 115.183 75.7268 115.705 75.7268 116.386V116.433C75.7268 117.145 75.9995 117.688 76.5449 118.062ZM74.0813 116.395C74.0813 115.308 74.5166 114.476 75.3869 113.9C76.2571 113.323 77.3392 113.035 78.6327 113.035C79.9263 113.035 81.0137 113.323 81.895 113.9C82.7763 114.476 83.2173 115.308 83.2173 116.395C83.2173 117.529 82.7756 118.388 81.8927 118.971C81.0097 119.553 79.9216 119.845 78.6281 119.845C77.3375 119.845 76.2571 119.553 75.3869 118.971C74.5166 118.388 74.0813 117.529 74.0813 116.395Z" fill="#004EA8"/>
<path d="M84.2358 113.176H86.0433L89.0443 117.511C89.0981 117.586 89.1353 117.641 89.1557 117.677C89.1764 117.713 89.1978 117.753 89.2202 117.797H89.2296C89.2487 117.753 89.2691 117.713 89.2915 117.677C89.3136 117.641 89.3514 117.586 89.4056 117.511L92.3637 113.176H94.204V119.704H92.6488L92.6585 115.735C92.6585 115.675 92.6672 115.624 92.6846 115.58C92.702 115.536 92.7107 115.485 92.7107 115.425H92.6538C92.622 115.481 92.5949 115.533 92.5729 115.58C92.5508 115.627 92.522 115.677 92.4872 115.73L89.7716 119.704H88.6876L85.8482 115.641C85.8037 115.575 85.773 115.524 85.7556 115.486C85.7382 115.449 85.7104 115.394 85.6722 115.322H85.62C85.62 115.394 85.6277 115.45 85.6438 115.489C85.6595 115.528 85.6676 115.58 85.6676 115.646L85.6816 119.704H84.2358V113.176Z" fill="#004EA8"/>
<path d="M95.9692 113.176H97.5435V115.636H101.676V113.176H103.255V119.704H101.676V117.019H97.5435V119.704H95.9692V113.176Z" fill="#004EA8"/>
<path d="M106.78 118.062C107.325 118.435 108.025 118.623 108.877 118.626C109.724 118.633 110.425 118.446 110.982 118.069C111.538 117.69 111.817 117.147 111.817 116.437V116.391C111.817 115.706 111.54 115.186 110.986 114.828C110.433 114.47 109.73 114.289 108.877 114.286C108.018 114.28 107.318 114.459 106.775 114.821C106.233 115.183 105.962 115.705 105.962 116.386V116.433C105.962 117.145 106.235 117.688 106.78 118.062ZM104.317 116.395C104.317 115.308 104.752 114.476 105.622 113.9C106.492 113.323 107.574 113.035 108.868 113.035C110.161 113.035 111.249 113.323 112.13 113.9C113.012 114.476 113.452 115.308 113.452 116.395C113.452 117.529 113.011 118.388 112.128 118.971C111.245 119.553 110.157 119.845 108.863 119.845C107.573 119.845 106.492 119.553 105.622 118.971C104.752 118.388 104.317 117.529 104.317 116.395Z" fill="#004EA8"/>
<path d="M118.566 111.234C118.737 111.12 118.873 110.941 118.975 110.697L119.945 111.138C119.767 111.578 119.51 111.892 119.174 112.08C118.839 112.267 118.447 112.361 118 112.361C117.553 112.361 117.16 112.267 116.82 112.077C116.481 111.888 116.224 111.575 116.05 111.138L117.034 110.697C117.126 110.935 117.26 111.112 117.434 111.229C117.608 111.346 117.797 111.405 118 111.405C118.206 111.405 118.395 111.348 118.566 111.234ZM119.969 119.705V115.665C119.969 115.583 119.97 115.508 119.973 115.44C119.976 115.371 119.975 115.31 119.969 115.257H119.94C119.915 115.31 119.883 115.37 119.845 115.435C119.807 115.501 119.74 115.577 119.645 115.665L116.278 119.705H114.48V113.176H116.05V117.15V117.35V117.553H116.074C116.105 117.491 116.139 117.435 116.174 117.385C116.209 117.335 116.269 117.266 116.354 117.178L119.74 113.176H121.529V119.705H119.969Z" fill="#004EA8"/>
<path d="M59.7163 122.588H66.6266V129.116H65.0524V123.924H61.2859V129.116H59.7163V122.588Z" fill="#004EA8"/>
<path d="M72.5483 126.056C73.0365 126.056 73.3902 125.959 73.6087 125.765C73.8275 125.571 73.9369 125.295 73.9369 124.936C73.9369 124.577 73.8275 124.306 73.6087 124.125C73.3902 123.944 73.0365 123.852 72.5483 123.849H70.1751V126.056H72.5483ZM68.6008 122.588H72.8669C73.7609 122.588 74.4244 122.789 74.857 123.19C75.29 123.592 75.5065 124.167 75.5065 124.917C75.5065 125.629 75.293 126.198 74.8667 126.623C74.4401 127.048 73.7673 127.26 72.8478 127.26H70.1751V129.116H68.6008V122.588Z" fill="#004EA8"/>
<path d="M78.3703 127.474C78.9157 127.847 79.6147 128.035 80.4676 128.038C81.3141 128.045 82.0157 127.859 82.5721 127.481C83.1286 127.103 83.4066 126.559 83.4066 125.85V125.803C83.4066 125.119 83.1299 124.598 82.5768 124.24C82.0234 123.882 81.3204 123.702 80.4676 123.699C79.6083 123.692 78.9077 123.871 78.3656 124.233C77.8233 124.596 77.5523 125.117 77.5523 125.798V125.845C77.5523 126.557 77.825 127.1 78.3703 127.474ZM75.9067 125.808C75.9067 124.72 76.342 123.888 77.2123 123.312C78.0826 122.735 79.1647 122.447 80.4582 122.447C81.7517 122.447 82.8391 122.735 83.7204 123.312C84.6021 123.888 85.0428 124.72 85.0428 125.808C85.0428 126.942 84.6011 127.8 83.7181 128.383C82.8351 128.965 81.747 129.257 80.4535 129.257C79.163 129.257 78.0826 128.965 77.2123 128.383C76.342 127.8 75.9067 126.942 75.9067 125.808Z" fill="#004EA8"/>
<path d="M86.0613 122.588H87.8684L90.8694 126.923C90.9232 126.998 90.9604 127.053 90.9811 127.089C91.0019 127.125 91.0233 127.165 91.0454 127.209H91.0547C91.0738 127.165 91.0945 127.125 91.1166 127.089C91.1387 127.053 91.1769 126.998 91.2307 126.923L94.1888 122.588H96.0294V129.116H94.4742L94.4836 125.147C94.4836 125.088 94.4926 125.036 94.5097 124.992C94.5274 124.948 94.5361 124.897 94.5361 124.838H94.4789C94.4471 124.893 94.4204 124.945 94.3983 124.992C94.3759 125.039 94.3474 125.089 94.3126 125.142L91.5971 129.116H90.5127L87.6733 125.053C87.6292 124.987 87.5981 124.936 87.5807 124.898C87.5633 124.861 87.5355 124.806 87.4973 124.734H87.4451C87.4451 124.806 87.4532 124.862 87.4689 124.901C87.4846 124.94 87.4927 124.992 87.4927 125.058L87.5071 129.116H86.0613V122.588Z" fill="#004EA8"/>
<path d="M104.564 129.087H106.169V122.584H104.564V129.087ZM98.9301 125.772V127.84H101.061C101.482 127.84 101.788 127.759 101.98 127.595C102.171 127.432 102.267 127.171 102.267 126.814C102.267 126.493 102.171 126.239 101.98 126.053C101.788 125.866 101.484 125.772 101.066 125.772H98.9301ZM97.3635 122.589H98.9301V124.512H101.308C102.188 124.512 102.829 124.722 103.231 125.14C103.632 125.559 103.834 126.116 103.834 126.814C103.834 127.548 103.63 128.111 103.223 128.503C102.817 128.896 102.186 129.092 101.332 129.092H97.3635V122.589Z" fill="#004EA8"/>
<path d="M109.861 122.588V127.781H112.406V122.588H113.984V127.781H116.524V122.588H118.098V129.116H108.292V122.588H109.861Z" fill="#004EA8"/>
<path d="M126.859 122.59V129.118H125.285V123.92H122.251L122.065 126.479C122.011 127.31 121.838 127.975 121.547 128.473C121.255 128.972 120.761 129.221 120.063 129.221C119.898 129.221 119.757 129.214 119.64 129.2C119.523 129.186 119.42 129.166 119.331 129.141V127.571C119.407 127.593 119.477 127.608 119.543 127.616C119.607 127.624 119.686 127.628 119.778 127.628C120.047 127.628 120.25 127.537 120.387 127.356C120.523 127.174 120.612 126.792 120.653 126.208L120.881 122.59H126.859Z" fill="#004EA8"/>
<path d="M128.839 122.588H134.955V123.9H130.342V125.203H134.494V126.393H130.342V127.837H135.026V129.116H128.839V122.588Z" fill="#004EA8"/>
<path d="M136.316 122.588H137.89V125.048H142.023V122.588H143.602V129.116H142.023V126.431H137.89V129.116H136.316V122.588Z" fill="#004EA8"/>
<path d="M145.267 122.588H146.841V125.048H150.974V122.588H152.553V129.116H150.974V126.431H146.841V129.116H145.267V122.588Z" fill="#004EA8"/>
<path d="M156.078 127.474C156.623 127.847 157.322 128.035 158.175 128.038C159.022 128.045 159.723 127.859 160.279 127.481C160.836 127.103 161.114 126.559 161.114 125.85V125.803C161.114 125.119 160.837 124.598 160.284 124.24C159.731 123.882 159.028 123.702 158.175 123.699C157.316 123.692 156.615 123.871 156.073 124.233C155.531 124.596 155.26 125.117 155.26 125.798V125.845C155.26 126.557 155.532 127.1 156.078 127.474ZM153.614 125.808C153.614 124.72 154.049 123.888 154.919 123.312C155.79 122.735 156.872 122.447 158.165 122.447C159.459 122.447 160.547 122.735 161.428 123.312C162.309 123.888 162.75 124.72 162.75 125.808C162.75 126.942 162.309 127.8 161.426 128.383C160.543 128.965 159.454 129.257 158.161 129.257C156.87 129.257 155.79 128.965 154.919 128.383C154.049 127.8 153.614 126.942 153.614 125.808Z" fill="#004EA8"/>
<path d="M163.174 125.835C163.174 124.714 163.599 123.869 164.447 123.3C165.295 122.732 166.385 122.447 167.716 122.447C168.997 122.447 169.947 122.644 170.565 123.038C171.183 123.432 171.619 124.072 171.873 124.959L171.896 125.133H170.308L170.28 124.992C170.105 124.655 169.833 124.352 169.462 124.085C169.091 123.818 168.518 123.685 167.745 123.685C166.825 123.685 166.111 123.889 165.602 124.298C165.094 124.708 164.839 125.214 164.839 125.817V125.878C164.839 126.653 165.1 127.206 165.621 127.537C166.143 127.868 166.852 128.034 167.75 128.034C168.615 128.034 169.24 127.901 169.626 127.635C170.011 127.37 170.235 127.073 170.299 126.745L170.318 126.59H171.896L171.882 126.759C171.797 127.621 171.413 128.253 170.731 128.654C170.049 129.056 169.046 129.257 167.721 129.257C166.38 129.257 165.287 128.968 164.442 128.392C163.597 127.816 163.174 126.974 163.174 125.868V125.835Z" fill="#004EA8"/>
<path d="M172.007 122.588H179.416V123.919H176.51V129.116H174.913V123.919H172.007V122.588Z" fill="#004EA8"/>
<path d="M185.799 129.116V125.077C185.799 124.995 185.801 124.92 185.804 124.852C185.807 124.783 185.806 124.722 185.799 124.669H185.771C185.745 124.722 185.714 124.781 185.676 124.847C185.638 124.912 185.571 124.989 185.476 125.077L182.109 129.116H180.311V122.588H181.881V126.562V126.761V126.965H181.905C181.936 126.902 181.97 126.846 182.004 126.796C182.039 126.747 182.099 126.678 182.185 126.59L185.571 122.588H187.359V129.116H185.799Z" fill="#004EA8"/>
<path d="M22.5073 116.298C23.1815 115.064 23.5429 113.674 23.5429 112.261C23.5429 107.576 19.6743 103.764 14.9195 103.764C10.1643 103.764 6.29571 107.576 6.29571 112.261C6.29571 113.66 6.65071 115.039 7.31287 116.264C3.95926 118.647 1.92896 122.495 1.92896 126.624C1.92896 133.665 7.74181 139.393 14.8867 139.393C22.0312 139.393 27.8441 133.665 27.8441 126.624C27.8441 122.519 25.8318 118.684 22.5073 116.298Z" fill="#004EA8"/>
<path d="M5.18843 126.536C5.45745 133.056 10.3887 136.026 14.8598 136.026C19.3306 136.026 24.2618 133.056 24.5312 126.536C24.5255 122.621 22.0318 119.051 18.3218 117.649L17.127 117.197L18.1475 116.436C20.0162 115.043 20.7409 112.716 19.9944 110.506C19.4022 108.753 17.7497 106.876 14.8879 106.862C12.0389 106.877 10.3856 108.749 9.79141 110.496C9.19517 112.248 9.36213 114.725 11.6176 116.422L12.6344 117.187L11.4376 117.634C7.70423 119.026 5.19446 122.602 5.18843 126.536ZM14.8605 137.427H14.8598C12.0476 137.427 9.39927 136.46 7.40242 134.704C5.15865 132.733 3.90193 129.922 3.76742 126.577L3.76709 126.55C3.76709 124.286 4.46304 122.114 5.78033 120.269C6.84801 118.773 8.25664 117.579 9.89547 116.772C8.19675 114.989 7.62359 112.46 8.44334 110.051C9.38689 107.278 11.9164 105.476 14.8876 105.461C17.8721 105.475 20.4033 107.282 21.3435 110.064C22.1606 112.482 21.5784 115.015 19.8683 116.794C21.4958 117.604 22.894 118.797 23.9533 120.288C25.2616 122.129 25.9528 124.295 25.9528 126.55L25.9522 126.577C25.8177 129.923 24.5606 132.733 22.3172 134.705C20.3203 136.46 17.6724 137.427 14.8605 137.427Z" fill="white"/>
<path d="M13.7625 112.292C13.7702 112.905 14.2784 113.402 14.9025 113.402C15.5261 113.402 16.0344 112.905 16.0421 112.292C16.0002 111.46 15.4033 111.165 14.9025 111.165C14.4012 111.165 13.8047 111.46 13.7625 112.292ZM14.9025 114.802C13.4898 114.802 12.3408 113.67 12.3408 112.278L12.3415 112.249C12.4101 110.617 13.6815 109.764 14.9025 109.764C16.1234 109.764 17.3948 110.618 17.4631 112.249L17.4638 112.278C17.4638 113.67 16.3148 114.802 14.9025 114.802Z" fill="white"/>
<path d="M14.9151 121.231C11.8957 121.231 9.4395 123.652 9.4395 126.627C9.4395 129.602 11.8957 132.022 14.9151 132.022C17.9341 132.022 20.3903 129.602 20.3903 126.627C20.3903 123.652 17.9341 121.231 14.9151 121.231ZM14.9151 133.423C11.1118 133.423 8.01782 130.374 8.01782 126.627C8.01782 122.879 11.1118 119.83 14.9151 119.83C18.7181 119.83 21.812 122.879 21.812 126.627C21.812 130.374 18.7181 133.423 14.9151 133.423Z" fill="white"/>
<path d="M14.9149 125.221C14.1283 125.221 13.4886 125.852 13.4886 126.627C13.4886 127.402 14.1283 128.033 14.9149 128.033C15.7016 128.033 16.3416 127.402 16.3416 126.627C16.3416 125.852 15.7016 125.221 14.9149 125.221ZM14.9149 129.434C13.3444 129.434 12.0669 128.175 12.0669 126.627C12.0669 125.079 13.3444 123.82 14.9149 123.82C16.4855 123.82 17.763 125.079 17.763 126.627C17.763 128.175 16.4855 129.434 14.9149 129.434Z" fill="white"/>
<path d="M40.8637 103.773C33.7827 103.773 28.0217 109.45 28.0217 116.428C28.0217 123.406 33.7827 129.083 40.8637 129.083C47.9446 129.083 53.7056 123.406 53.7056 116.428C53.7056 109.45 47.9446 103.773 40.8637 103.773Z" fill="#004EA8"/>
<path d="M40.8638 107.118C35.6546 107.118 31.4163 111.294 31.4163 116.428C31.4163 121.561 35.6546 125.737 40.8638 125.737C46.0731 125.737 50.3113 121.561 50.3113 116.428C50.3113 111.294 46.0731 107.118 40.8638 107.118ZM40.8638 127.138C34.8706 127.138 29.9946 122.334 29.9946 116.428C29.9946 110.522 34.8706 105.717 40.8638 105.717C46.857 105.717 51.733 110.522 51.733 116.428C51.733 122.334 46.857 127.138 40.8638 127.138Z" fill="white"/>
<path d="M40.8636 111.006C37.8295 111.006 35.3609 113.439 35.3609 116.429C35.3609 119.419 37.8295 121.851 40.8636 121.851C43.8977 121.851 46.3659 119.419 46.3659 116.429C46.3659 113.439 43.8977 111.006 40.8636 111.006ZM40.8636 123.252C37.0456 123.252 33.9392 120.191 33.9392 116.429C33.9392 112.666 37.0456 109.605 40.8636 109.605C44.6816 109.605 47.7876 112.666 47.7876 116.429C47.7876 120.191 44.6816 123.252 40.8636 123.252Z" fill="white"/>
<path d="M40.8636 114.948C40.0362 114.948 39.3633 115.611 39.3633 116.426C39.3633 117.241 40.0362 117.905 40.8636 117.905C41.6907 117.905 42.3636 117.241 42.3636 116.426C42.3636 115.611 41.6907 114.948 40.8636 114.948ZM40.8636 119.306C39.2522 119.306 37.9417 118.014 37.9417 116.426C37.9417 114.839 39.2522 113.547 40.8636 113.547C42.4747 113.547 43.7853 114.839 43.7853 116.426C43.7853 118.014 42.4747 119.306 40.8636 119.306Z" fill="white"/>
</g>
<defs>
<radialGradient id="paint0_radial_1127_5" cx="0" cy="0" r="1" gradientUnits="userSpaceOnUse" gradientTransform="translate(19.3929 64.7939) scale(4.91493 5.62849)">
<stop stop-color="#4A96D2"/>
<stop offset="1" stop-color="#1F2466"/>
</radialGradient>
<linearGradient id="paint1_linear_1127_5" x1="7.05602" y1="64.2051" x2="15.737" y2="49.7713" gradientUnits="userSpaceOnUse">
<stop stop-color="#4A96D2"/>
<stop offset="1" stop-color="#1F2466"/>
</linearGradient>
<linearGradient id="paint2_linear_1127_5" x1="10.7448" y1="48.5648" x2="33.9267" y2="58.1996" gradientUnits="userSpaceOnUse">
<stop stop-color="#4A96D2"/>
<stop offset="1" stop-color="#1F2466"/>
</linearGradient>
<linearGradient id="paint3_linear_1127_5" x1="24.7199" y1="79.5352" x2="7.81437" y2="78.589" gradientUnits="userSpaceOnUse">
<stop stop-color="#4A96D2"/>
<stop offset="1" stop-color="#1F2466"/>
</linearGradient>
<linearGradient id="paint4_linear_1127_5" x1="8.65795" y1="84.5757" x2="5.29137" y2="60.6725" gradientUnits="userSpaceOnUse">
<stop stop-color="#4A96D2"/>
<stop offset="1" stop-color="#1F2466"/>
</linearGradient>
<linearGradient id="paint5_linear_1127_5" x1="29.6176" y1="56.9838" x2="37.6463" y2="72.119" gradientUnits="userSpaceOnUse">
<stop stop-color="#4A96D2"/>
<stop offset="1" stop-color="#1F2466"/>
</linearGradient>
<linearGradient id="paint6_linear_1127_5" x1="41.6504" y1="68.4347" x2="22.5287" y2="83.8646" gradientUnits="userSpaceOnUse">
<stop stop-color="#4A96D2"/>
<stop offset="1" stop-color="#1F2466"/>
</linearGradient>
</defs>
</svg>
