<svg width="200" height="200" viewBox="0 0 200 200" fill="none" xmlns="http://www.w3.org/2000/svg">
<g clip-path="url(#clip0_746_90)">
<path fill-rule="evenodd" clip-rule="evenodd" d="M84.2839 93.8127C82.0265 93.8127 79.9874 94.4686 78.2477 95.5975V85.3046H73.4362V104.29C73.4362 110.066 78.3029 114.715 84.2552 114.715C90.2081 114.715 95.1293 110.092 95.1293 104.237C95.1293 98.3823 90.3178 93.8127 84.2822 93.8127H84.2839ZM59.3006 94.1275C53.9452 94.6532 49.5693 99.1173 49.5693 104.42C49.5693 110.04 54.5439 114.74 60.3615 114.74C66.1799 114.74 71.154 110.04 71.154 104.42C71.154 102.031 70.258 99.826 68.8161 98.0924L58.1581 85.331H51.9328L59.3006 94.1275ZM22.0567 105.63L17.6526 94.5492H14.2813L9.85053 105.63L5.41972 94.5492H0.172363L7.91961 114.034H11.2909L15.9395 102.428L20.6163 114.034H23.9877L31.7082 94.5492H26.4891L22.0583 105.63H22.0567ZM108.179 93.8391C102.171 93.8391 97.3046 98.356 97.3046 104.053C97.3046 109.75 101.572 114.74 107.907 114.74C111.713 114.74 114.785 112.98 116.96 109.961L113.21 107.019C112.122 108.909 110.028 110.012 107.936 110.012C105.217 110.012 102.554 108.148 102.334 105.416H118.075V103.999C118.075 98.0381 113.998 93.836 108.179 93.836V93.8391ZM169.617 93.8391C163.61 93.8391 158.77 98.356 158.77 104.316C158.77 109.909 163.038 114.741 169.345 114.741C173.15 114.741 176.222 112.981 178.398 109.962L175.081 107.258C173.912 108.991 171.791 110.015 169.263 110.015C166.735 110.015 164.017 108.151 163.799 105.419H179.485V103.791C179.485 98.0397 175.434 93.8391 169.617 93.8391ZM186.472 100.246C186.472 99.0382 188.186 98.066 190.414 98.066C192.643 98.066 195.116 99.1421 196.721 100.876L199.63 97.4365C196.857 95.0734 194.058 93.8391 190.551 93.8391C186.175 93.8391 181.66 95.782 181.66 100.246C181.66 105.734 186.554 106.128 190.551 106.442C192.779 106.6 194.763 106.757 194.763 108.176C194.763 109.699 192.508 110.407 190.524 110.407C188.212 110.407 185.712 109.461 183.891 107.335L180.793 110.513C183.266 113.428 186.853 114.715 190.361 114.715C194.765 114.715 199.576 112.693 199.576 108.072C199.576 102.847 194.629 102.347 190.823 101.98C188.43 101.744 186.474 101.533 186.474 100.246H186.472ZM125.388 98.9855V94.5477H120.576V114.006H125.388V105.786C126.04 101.192 129.819 99.353 134.196 99.353V94.5477H133.706C130.009 94.5477 127.317 95.8611 125.388 98.9855ZM140.666 98.9855V94.5477H135.855V114.006H140.666V105.786C141.318 100.614 145.94 99.353 149.474 99.353V94.5477H148.957C145.315 94.5477 142.569 95.8347 140.666 98.9855ZM42.2829 114.006H47.0945V85.331H42.2829V114.005V114.006ZM60.3868 110.068C57.0704 110.068 54.3794 107.495 54.3794 104.292C54.3794 101.088 57.0704 98.4878 60.3604 98.4878C63.65 98.4878 66.4224 101.06 66.4224 104.292C66.4224 107.523 63.7035 110.068 60.3868 110.068ZM84.2569 110.068C80.9937 110.068 78.2494 107.546 78.2494 104.265C78.2494 100.984 80.8322 98.4878 84.2851 98.4878C87.7379 98.4878 90.3207 101.088 90.3207 104.265C90.3207 107.442 87.5747 110.068 84.2586 110.068H84.2569ZM33.9636 114.006H38.7752V94.5477H33.9636V114.006ZM151.54 114.006H156.352V94.5477H151.54V114.006ZM36.302 85.0953C34.3444 85.0953 32.7129 86.6707 32.7129 88.6663C32.7129 90.6619 34.4259 92.0544 36.302 92.0544C38.3944 92.0544 39.9727 90.3735 39.9727 88.5624C39.9727 86.7513 38.3129 85.0953 36.302 85.0953ZM153.932 85.0953C151.974 85.0953 150.316 86.6707 150.316 88.64C150.316 90.6092 151.92 92.0265 154.013 92.0265C156.107 92.0265 157.548 90.634 157.548 88.7175C157.548 86.801 155.916 85.0938 153.932 85.0938V85.0953ZM164.372 101.533C165.16 99.6166 166.873 98.4878 169.401 98.4878C171.929 98.4878 173.451 99.6693 174.103 101.533H164.37H164.372ZM102.905 101.533C103.721 99.6166 105.406 98.4878 107.907 98.4878C110.409 98.4878 112.039 99.6693 112.693 101.533H102.906H102.905Z" fill="#D419B3"/>
</g>
<defs>
<clipPath id="clip0_746_90">
<rect width="200" height="30" fill="white" transform="translate(0 85)"/>
</clipPath>
</defs>
</svg>
