<?xml version="1.0" encoding="UTF-8"?>
<svg version="1.1" xmlns="http://www.w3.org/2000/svg" width="3558" height="204">
<path d="M0 0 C1174.14 0 2348.28 0 3558 0 C3558 67.32 3558 134.64 3558 204 C2383.86 204 1209.72 204 0 204 C0 136.68 0 69.36 0 0 Z " fill="#184AB3" transform="translate(0,0)"/>
<path d="M0 0 C1174.14 0 2348.28 0 3558 0 C3558 67.32 3558 134.64 3558 204 C2383.86 204 1209.72 204 0 204 C0 203.34 0 202.68 0 202 C1172.16 202 2344.32 202 3552 202 C3552 136 3552 70 3552 2 C2379.84 2 1207.68 2 0 2 C0 1.34 0 0.68 0 0 Z " fill="#FFFFFF" transform="translate(0,0)"/>
</svg>
