<svg width="341" height="44" viewBox="0 0 341 44" fill="none" xmlns="http://www.w3.org/2000/svg">
<rect y="0.3396" width="341" height="43.63" rx="21.815" fill="#9691FF"/>
<path d="M23.67 31.6545H18.6258L25.1775 12.2364H31.4259L37.9776 31.6545H32.9334L28.3728 17.1288H28.2211L23.67 31.6545ZM22.9968 24.0124H33.5402V27.5775H22.9968V24.0124ZM40.0683 31.6545V12.2364H44.7616V27.843H52.8399V31.6545H40.0683ZM67.0172 12.2364H71.701V24.7615C71.701 26.209 71.3565 27.47 70.6676 28.5446C69.9786 29.6129 69.0178 30.4409 67.7852 31.0288C66.5526 31.6103 65.1209 31.9011 63.49 31.9011C61.8402 31.9011 60.3991 31.6103 59.1665 31.0288C57.9339 30.4409 56.9762 29.6129 56.2935 28.5446C55.6109 27.47 55.2695 26.209 55.2695 24.7615V12.2364H59.9629V24.3538C59.9629 25.0238 60.1083 25.6211 60.3991 26.1458C60.6961 26.6704 61.1102 27.0813 61.6411 27.3784C62.1721 27.6755 62.7884 27.824 63.49 27.824C64.1917 27.824 64.8048 27.6755 65.3294 27.3784C65.8604 27.0813 66.2744 26.6704 66.5715 26.1458C66.8686 25.6211 67.0172 25.0238 67.0172 24.3538V12.2364ZM74.6427 12.2364H80.4549L85.3853 24.2589H85.6128L90.5432 12.2364H96.3554V31.6545H91.7853V19.7268H91.6241L86.9592 31.5313H84.0389L79.374 19.6604H79.2128V31.6545H74.6427V12.2364ZM103.976 12.2364V31.6545H99.2828V12.2364H103.976ZM123.449 12.2364V31.6545H119.467L111.739 20.4474H111.616V31.6545H106.923V12.2364H110.962L118.604 23.4246H118.765V12.2364H123.449ZM131.093 12.2364V31.6545H126.4V12.2364H131.093ZM145.787 12.2364H150.471V24.7615C150.471 26.209 150.127 27.47 149.438 28.5446C148.749 29.6129 147.788 30.4409 146.555 31.0288C145.323 31.6103 143.891 31.9011 142.26 31.9011C140.61 31.9011 139.169 31.6103 137.937 31.0288C136.704 30.4409 135.746 29.6129 135.064 28.5446C134.381 27.47 134.04 26.209 134.04 24.7615V12.2364H138.733V24.3538C138.733 25.0238 138.878 25.6211 139.169 26.1458C139.466 26.6704 139.88 27.0813 140.411 27.3784C140.942 27.6755 141.559 27.824 142.26 27.824C142.962 27.824 143.575 27.6755 144.1 27.3784C144.631 27.0813 145.045 26.6704 145.342 26.1458C145.639 25.6211 145.787 25.0238 145.787 24.3538V12.2364ZM153.413 12.2364H159.225L164.155 24.2589H164.383L169.313 12.2364H175.126V31.6545H170.556V19.7268H170.394L165.729 31.5313H162.809L158.144 19.6604H157.983V31.6545H153.413V12.2364ZM189.895 31.9485C188.53 31.9485 187.351 31.7051 186.359 31.2184C185.373 30.7317 184.614 30.0774 184.083 29.2557C183.552 28.4277 183.287 27.5079 183.287 26.4966C183.287 25.7507 183.432 25.0933 183.723 24.5244C184.02 23.9492 184.428 23.4214 184.946 22.941C185.471 22.4543 186.081 21.9771 186.776 21.5093L190.853 18.9019C191.315 18.6111 191.64 18.3045 191.83 17.9822C192.026 17.6598 192.124 17.3374 192.124 17.0151C192.124 16.6674 191.988 16.3513 191.716 16.0669C191.45 15.7825 191.055 15.6434 190.531 15.6497C190.196 15.6497 189.905 15.7192 189.658 15.8583C189.412 15.9974 189.219 16.1838 189.08 16.4177C188.947 16.6516 188.881 16.9171 188.881 17.2142C188.881 17.5997 188.992 17.9948 189.213 18.3994C189.434 18.8039 189.731 19.2337 190.104 19.6888C190.483 20.144 190.904 20.6465 191.365 21.1964L200.667 31.6545H195.945L188.16 23.2065C187.718 22.7135 187.253 22.1604 186.767 21.5472C186.28 20.9341 185.869 20.2641 185.534 19.5371C185.199 18.8039 185.031 18.0075 185.031 17.1478C185.031 16.1807 185.259 15.3052 185.714 14.5214C186.169 13.7376 186.808 13.115 187.629 12.6535C188.457 12.1858 189.421 11.9519 190.521 11.9519C191.583 11.9519 192.5 12.17 193.271 12.6061C194.042 13.0423 194.636 13.6207 195.053 14.3413C195.471 15.0619 195.679 15.852 195.679 16.7116C195.679 17.6219 195.455 18.4594 195.006 19.2242C194.557 19.9828 193.922 20.656 193.1 21.2438L189.109 24.0978C188.685 24.4012 188.353 24.7267 188.113 25.0744C187.873 25.4157 187.753 25.7886 187.753 26.1932C187.753 26.6104 187.851 26.9738 188.047 27.2836C188.249 27.5933 188.533 27.8366 188.9 28.0136C189.267 28.1906 189.696 28.2791 190.189 28.2791C190.847 28.2791 191.504 28.1242 192.162 27.8145C192.819 27.4985 193.419 27.056 193.963 26.4871C194.507 25.9119 194.943 25.2324 195.272 24.4486C195.6 23.6584 195.765 22.7925 195.765 21.8506H199.5C199.5 23.0137 199.377 24.0946 199.13 25.0933C198.884 26.0857 198.514 26.977 198.021 27.7671C197.534 28.5509 196.931 29.202 196.21 29.7203C195.983 29.8467 195.761 29.9668 195.546 30.0806C195.332 30.1944 195.11 30.3145 194.883 30.4409C194.137 30.9782 193.328 31.3638 192.455 31.5977C191.59 31.8315 190.736 31.9485 189.895 31.9485ZM207.83 31.6545V12.2364H215.851C217.305 12.2364 218.56 12.5208 219.615 13.0897C220.677 13.6523 221.496 14.4392 222.071 15.4506C222.646 16.4556 222.934 17.625 222.934 18.9588C222.934 20.2988 222.64 21.4714 222.052 22.4764C221.471 23.4751 220.639 24.2495 219.558 24.7994C218.478 25.3493 217.194 25.6243 215.709 25.6243H210.76V21.9265H214.837C215.545 21.9265 216.136 21.8032 216.61 21.5567C217.09 21.3102 217.454 20.9657 217.7 20.5232C217.947 20.0744 218.07 19.5529 218.07 18.9588C218.07 18.3583 217.947 17.8399 217.7 17.4038C217.454 16.9613 217.09 16.62 216.61 16.3798C216.129 16.1396 215.538 16.0195 214.837 16.0195H212.523V31.6545H207.83ZM225.247 31.6545V12.2364H229.941V27.843H238.019V31.6545H225.247ZM244.91 31.6545H239.866L246.417 12.2364H252.666L259.217 31.6545H254.173L249.613 17.1288H249.461L244.91 31.6545ZM244.237 24.0124H254.78V27.5775H244.237V24.0124ZM271.204 18.058C271.141 17.3627 270.86 16.8223 270.361 16.4367C269.867 16.0448 269.163 15.8488 268.246 15.8488C267.639 15.8488 267.134 15.9278 266.729 16.0859C266.325 16.2439 266.021 16.462 265.819 16.7401C265.617 17.0119 265.512 17.3248 265.506 17.6788C265.493 17.9695 265.55 18.2255 265.677 18.4468C265.809 18.668 265.999 18.864 266.246 19.0346C266.498 19.199 266.802 19.3443 267.156 19.4708C267.51 19.5972 267.908 19.7078 268.35 19.8026L270.019 20.1819C270.98 20.3905 271.827 20.6686 272.56 21.0163C273.3 21.3639 273.919 21.7779 274.419 22.2583C274.924 22.7387 275.307 23.2918 275.566 23.9176C275.825 24.5434 275.958 25.245 275.964 26.0225C275.958 27.2488 275.648 28.3012 275.035 29.1799C274.422 30.0585 273.54 30.7317 272.39 31.1994C271.245 31.6672 269.864 31.9011 268.246 31.9011C266.622 31.9011 265.206 31.6577 263.998 31.171C262.791 30.6843 261.852 29.9447 261.182 28.9523C260.512 27.9599 260.168 26.7052 260.149 25.1881H264.643C264.681 25.8139 264.849 26.3354 265.146 26.7526C265.443 27.1698 265.85 27.4858 266.369 27.7007C266.893 27.9157 267.5 28.0231 268.189 28.0231C268.821 28.0231 269.359 27.9378 269.801 27.7671C270.25 27.5964 270.594 27.3594 270.835 27.056C271.075 26.7526 271.198 26.4049 271.204 26.013C271.198 25.6464 271.084 25.3335 270.863 25.0744C270.642 24.8089 270.3 24.5813 269.839 24.3917C269.384 24.1957 268.802 24.0156 268.094 23.8512L266.065 23.3772C264.384 22.9916 263.06 22.369 262.093 21.5093C261.126 20.6433 260.645 19.4739 260.651 18.0011C260.645 16.8001 260.967 15.7477 261.619 14.8438C262.27 13.9399 263.17 13.2351 264.321 12.7294C265.471 12.2237 266.783 11.9709 268.256 11.9709C269.76 11.9709 271.065 12.2269 272.171 12.7389C273.284 13.2446 274.147 13.9557 274.76 14.8722C275.373 15.7888 275.686 16.8507 275.699 18.058H271.204ZM277.699 16.0479V12.2364H294.112V16.0479H288.224V31.6545H283.597V16.0479H277.699ZM301.097 12.2364V31.6545H296.404V12.2364H301.097ZM321.67 19.2717H316.929C316.866 18.7849 316.736 18.3456 316.54 17.9537C316.344 17.5618 316.085 17.2268 315.763 16.9487C315.44 16.6706 315.058 16.4588 314.616 16.3134C314.179 16.1617 313.696 16.0859 313.165 16.0859C312.223 16.0859 311.411 16.3166 310.728 16.778C310.052 17.2394 309.53 17.9063 309.164 18.7786C308.803 19.6509 308.623 20.7065 308.623 21.9454C308.623 23.2349 308.807 24.3158 309.173 25.1881C309.546 26.0541 310.068 26.7083 310.738 27.1508C311.414 27.587 312.214 27.805 313.136 27.805C313.655 27.805 314.126 27.7387 314.549 27.6059C314.979 27.4732 315.355 27.2804 315.678 27.0276C316.006 26.7684 316.275 26.4555 316.483 26.0889C316.698 25.7159 316.847 25.2956 316.929 24.8278L321.67 24.8563C321.588 25.7159 321.338 26.563 320.921 27.3973C320.51 28.2317 319.944 28.9934 319.224 29.6824C318.503 30.3651 317.624 30.9087 316.588 31.3132C315.557 31.7178 314.375 31.92 313.042 31.92C311.284 31.92 309.71 31.5344 308.32 30.7633C306.936 29.9858 305.842 28.8543 305.039 27.3689C304.236 25.8834 303.835 24.0756 303.835 21.9454C303.835 19.8089 304.243 17.998 305.058 16.5125C305.874 15.0271 306.977 13.8988 308.367 13.1276C309.758 12.3565 311.316 11.9709 313.042 11.9709C314.217 11.9709 315.305 12.1352 316.303 12.4639C317.302 12.7863 318.181 13.2604 318.939 13.8861C319.698 14.5056 320.314 15.2673 320.788 16.1712C321.262 17.0751 321.556 18.1086 321.67 19.2717Z" fill="white"/>
</svg>
