<svg width="342" height="44" viewBox="0 0 342 44" fill="none" xmlns="http://www.w3.org/2000/svg">
<rect x="0.289337" y="0.272217" width="341" height="43.63" rx="21.815" fill="#9691FF"/>
<path d="M96.9593 31.5872H91.9151L98.4669 12.169H104.715L111.267 31.5872H106.223L101.662 17.0614H101.51L96.9593 31.5872ZM96.2861 23.945H106.83V27.5101H96.2861V23.945ZM113.358 31.5872V12.169H118.051V27.7756H126.129V31.5872H113.358ZM140.307 12.169H144.99V24.6941C144.99 26.1416 144.646 27.4026 143.957 28.4772C143.268 29.5455 142.307 30.3735 141.075 30.9614C139.842 31.5429 138.41 31.8337 136.779 31.8337C135.13 31.8337 133.688 31.5429 132.456 30.9614C131.223 30.3735 130.266 29.5455 129.583 28.4772C128.9 27.4026 128.559 26.1416 128.559 24.6941V12.169H133.252V24.2864C133.252 24.9564 133.398 25.5537 133.688 26.0784C133.985 26.603 134.4 27.0139 134.93 27.311C135.461 27.6081 136.078 27.7566 136.779 27.7566C137.481 27.7566 138.094 27.6081 138.619 27.311C139.15 27.0139 139.564 26.603 139.861 26.0784C140.158 25.5537 140.307 24.9564 140.307 24.2864V12.169ZM147.932 12.169H153.744L158.675 24.1916H158.902L163.833 12.169H169.645V31.5872H165.075V19.6594H164.913L160.249 31.4639H157.328L152.663 19.593H152.502V31.5872H147.932V12.169ZM177.266 12.169V31.5872H172.572V12.169H177.266ZM196.738 12.169V31.5872H192.756L185.029 20.38H184.905V31.5872H180.212V12.169H184.251L191.893 23.3572H192.054V12.169H196.738ZM204.383 12.169V31.5872H199.689V12.169H204.383ZM219.077 12.169H223.761V24.6941C223.761 26.1416 223.416 27.4026 222.727 28.4772C222.038 29.5455 221.077 30.3735 219.845 30.9614C218.612 31.5429 217.18 31.8337 215.55 31.8337C213.9 31.8337 212.459 31.5429 211.226 30.9614C209.993 30.3735 209.036 29.5455 208.353 28.4772C207.67 27.4026 207.329 26.1416 207.329 24.6941V12.169H212.022V24.2864C212.022 24.9564 212.168 25.5537 212.459 26.0784C212.756 26.603 213.17 27.0139 213.701 27.311C214.232 27.6081 214.848 27.7566 215.55 27.7566C216.251 27.7566 216.864 27.6081 217.389 27.311C217.92 27.0139 218.334 26.603 218.631 26.0784C218.928 25.5537 219.077 24.9564 219.077 24.2864V12.169ZM226.702 12.169H232.514L237.445 24.1916H237.672L242.603 12.169H248.415V31.5872H243.845V19.6594H243.684L239.019 31.4639H236.098L231.434 19.593H231.272V31.5872H226.702V12.169Z" fill="white"/>
</svg>
