<svg width="323" height="42" viewBox="0 0 323 42" fill="none" xmlns="http://www.w3.org/2000/svg">
<path d="M7.08847 29.6528H3.01859L9.2199 11.6892H14.1143L20.3068 29.6528H16.2369L11.7373 15.7942H11.5969L7.08847 29.6528ZM6.8341 22.5919H16.4475V25.5566H6.8341V22.5919ZM33.2708 16.1801L28.5606 29.6528H24.3504L19.6402 16.1801H23.5873L26.3853 25.8198H26.5257L29.315 16.1801H33.2708ZM40.8887 29.916C39.5028 29.916 38.3099 29.6353 37.31 29.0739C36.3159 28.5067 35.5499 27.7056 35.0119 26.6706C34.474 25.6297 34.205 24.3988 34.205 22.9779C34.205 21.592 34.474 20.3757 35.0119 19.329C35.5499 18.2823 36.3072 17.4666 37.2837 16.8818C38.2661 16.2971 39.418 16.0047 40.7396 16.0047C41.6284 16.0047 42.4558 16.1479 43.2219 16.4345C43.9937 16.7152 44.6662 17.1391 45.2393 17.7063C45.8182 18.2735 46.2684 18.9869 46.5901 19.8465C46.9117 20.7003 47.0725 21.7002 47.0725 22.8463V23.8725H35.6961V21.5569H43.5552C43.5552 21.0189 43.4382 20.5424 43.2043 20.1272C42.9704 19.712 42.6459 19.3875 42.2307 19.1536C41.8214 18.9138 41.3448 18.794 40.801 18.794C40.2338 18.794 39.7309 18.9255 39.2923 19.1887C38.8596 19.446 38.5205 19.7939 38.2749 20.2324C38.0293 20.6652 37.9035 21.1476 37.8977 21.6797V23.8813C37.8977 24.5479 38.0205 25.1239 38.2661 25.6093C38.5175 26.0946 38.8713 26.4688 39.3274 26.732C39.7835 26.9951 40.3244 27.1267 40.9501 27.1267C41.3653 27.1267 41.7454 27.0682 42.0904 26.9513C42.4354 26.8343 42.7307 26.6589 42.9763 26.425C43.2219 26.1911 43.409 25.9046 43.5376 25.5654L46.9935 25.7935C46.8181 26.6238 46.4585 27.3489 45.9147 27.9687C45.3767 28.5827 44.6808 29.0622 43.8271 29.4072C42.9792 29.7464 41.9997 29.916 40.8887 29.916ZM49.5109 29.6528V16.1801H53.1334V18.5308H53.2738C53.5194 17.6946 53.9316 17.0631 54.5105 16.6362C55.0894 16.2035 55.7561 15.9871 56.5104 15.9871C56.6975 15.9871 56.8993 15.9988 57.1156 16.0222C57.332 16.0456 57.522 16.0778 57.6858 16.1187V19.4343C57.5103 19.3816 57.2677 19.3349 56.9577 19.2939C56.6478 19.253 56.3642 19.2325 56.1069 19.2325C55.5573 19.2325 55.0661 19.3524 54.6333 19.5921C54.2065 19.826 53.8673 20.1535 53.6159 20.5745C53.3703 20.9956 53.2475 21.4809 53.2475 22.0306V29.6528H49.5109ZM63.0735 29.9072C62.2139 29.9072 61.4479 29.7581 60.7755 29.4599C60.103 29.1558 59.5709 28.7085 59.1791 28.1179C58.7931 27.5214 58.6002 26.7788 58.6002 25.8899C58.6002 25.1415 58.7376 24.5128 59.0124 24.0041C59.2873 23.4954 59.6615 23.086 60.1351 22.7761C60.6088 22.4662 61.1468 22.2323 61.7491 22.0744C62.3572 21.9165 62.9946 21.8054 63.6612 21.7411C64.4448 21.6592 65.0763 21.5832 65.5558 21.5131C66.0353 21.437 66.3832 21.3259 66.5996 21.1797C66.816 21.0336 66.9241 20.8172 66.9241 20.5307V20.478C66.9241 19.9225 66.7487 19.4927 66.3979 19.1887C66.0529 18.8846 65.5617 18.7326 64.9243 18.7326C64.2518 18.7326 63.7168 18.8817 63.3191 19.1799C62.9215 19.4723 62.6584 19.8407 62.5297 20.2851L59.0738 20.0044C59.2492 19.1857 59.5942 18.4782 60.1088 17.8817C60.6234 17.2794 61.2871 16.8175 62.0999 16.4959C62.9186 16.1684 63.8659 16.0047 64.9418 16.0047C65.6903 16.0047 66.4066 16.0924 67.0908 16.2678C67.7808 16.4432 68.3919 16.7152 68.924 17.0835C69.462 17.4519 69.8859 17.9256 70.1958 18.5045C70.5058 19.0776 70.6607 19.7646 70.6607 20.5658V29.6528H67.1171V27.7845H67.0118C66.7955 28.2056 66.506 28.5769 66.1435 28.8985C65.7809 29.2143 65.3453 29.4628 64.8366 29.6441C64.3278 29.8195 63.7402 29.9072 63.0735 29.9072ZM64.1436 27.3284C64.6933 27.3284 65.1786 27.2203 65.5997 27.0039C66.0207 26.7817 66.3511 26.4835 66.5908 26.1092C66.8306 25.735 66.9505 25.311 66.9505 24.8374V23.4077C66.8335 23.4837 66.6727 23.5538 66.468 23.6182C66.2692 23.6766 66.0441 23.7322 65.7926 23.7848C65.5412 23.8316 65.2897 23.8755 65.0383 23.9164C64.7869 23.9515 64.5588 23.9836 64.3541 24.0129C63.9156 24.0772 63.5326 24.1795 63.2051 24.3199C62.8776 24.4602 62.6233 24.6503 62.442 24.89C62.2607 25.1239 62.1701 25.4163 62.1701 25.7671C62.1701 26.2759 62.3543 26.6647 62.7227 26.9337C63.0969 27.1969 63.5706 27.3284 64.1436 27.3284ZM79.6294 34.9858C78.4189 34.9858 77.381 34.8191 76.5156 34.4858C75.656 34.1584 74.9718 33.711 74.4631 33.1438C73.9543 32.5766 73.624 31.9392 73.4719 31.2317L76.9278 30.7668C77.0331 31.0358 77.1997 31.2872 77.4278 31.5211C77.6558 31.755 77.957 31.9421 78.3312 32.0825C78.7113 32.2287 79.1733 32.3018 79.7171 32.3018C80.5299 32.3018 81.1994 32.103 81.7257 31.7053C82.2578 31.3135 82.5239 30.6557 82.5239 29.7318V27.267H82.366C82.2023 27.6413 81.9567 27.9951 81.6292 28.3284C81.3018 28.6617 80.8808 28.9336 80.3662 29.1441C79.8516 29.3546 79.2376 29.4599 78.5242 29.4599C77.5126 29.4599 76.5916 29.226 75.7612 28.7582C74.9367 28.2845 74.2789 27.5623 73.7877 26.5916C73.3023 25.6151 73.0597 24.3813 73.0597 22.8902C73.0597 21.3639 73.3082 20.0892 73.8052 19.0659C74.3023 18.0425 74.963 17.2765 75.7875 16.7678C76.6179 16.259 77.5272 16.0047 78.5154 16.0047C79.2698 16.0047 79.9013 16.1333 80.41 16.3906C80.9188 16.6421 81.3281 16.9578 81.638 17.3379C81.9538 17.7122 82.1964 18.0806 82.366 18.4431H82.5064V16.1801H86.2166V29.7844C86.2166 30.9305 85.9359 31.8895 85.3746 32.6614C84.8132 33.4333 84.0355 34.0122 83.0414 34.3981C82.0532 34.7899 80.9158 34.9858 79.6294 34.9858ZM79.7083 26.653C80.3106 26.653 80.8194 26.5039 81.2345 26.2057C81.6556 25.9016 81.9772 25.4689 82.1994 24.9076C82.4274 24.3403 82.5415 23.662 82.5415 22.8726C82.5415 22.0832 82.4303 21.399 82.2081 20.8201C81.9859 20.2354 81.6643 19.7822 81.2433 19.4606C80.8223 19.139 80.3106 18.9782 79.7083 18.9782C79.0943 18.9782 78.5768 19.1448 78.1558 19.4781C77.7348 19.8056 77.4161 20.2617 77.1997 20.8464C76.9834 21.4312 76.8752 22.1066 76.8752 22.8726C76.8752 23.6503 76.9834 24.3228 77.1997 24.89C77.4219 25.4514 77.7406 25.887 78.1558 26.1969C78.5768 26.501 79.0943 26.653 79.7083 26.653ZM95.33 29.916C93.9441 29.916 92.7512 29.6353 91.7513 29.0739C90.7572 28.5067 89.9912 27.7056 89.4532 26.6706C88.9153 25.6297 88.6463 24.3988 88.6463 22.9779C88.6463 21.592 88.9153 20.3757 89.4532 19.329C89.9912 18.2823 90.7485 17.4666 91.725 16.8818C92.7074 16.2971 93.8594 16.0047 95.1809 16.0047C96.0697 16.0047 96.8972 16.1479 97.6632 16.4345C98.4351 16.7152 99.1075 17.1391 99.6806 17.7063C100.259 18.2735 100.71 18.9869 101.031 19.8465C101.353 20.7003 101.514 21.7002 101.514 22.8463V23.8725H90.1374V21.5569H97.9965C97.9965 21.0189 97.8795 20.5424 97.6456 20.1272C97.4117 19.712 97.0872 19.3875 96.672 19.1536C96.2627 18.9138 95.7861 18.794 95.2423 18.794C94.6751 18.794 94.1722 18.9255 93.7336 19.1887C93.3009 19.446 92.9618 19.7939 92.7162 20.2324C92.4706 20.6652 92.3448 21.1476 92.339 21.6797V23.8813C92.339 24.5479 92.4618 25.1239 92.7074 25.6093C92.9588 26.0946 93.3126 26.4688 93.7687 26.732C94.2248 26.9951 94.7657 27.1267 95.3914 27.1267C95.8066 27.1267 96.1867 27.0682 96.5317 26.9513C96.8767 26.8343 97.172 26.6589 97.4176 26.425C97.6632 26.1911 97.8503 25.9046 97.9789 25.5654L101.435 25.7935C101.259 26.6238 100.9 27.3489 100.356 27.9687C99.818 28.5827 99.1221 29.0622 98.2684 29.4072C97.4205 29.7464 96.441 29.916 95.33 29.916ZM118.309 23.9164V16.1801H122.045V29.6528H118.458V27.2056H118.317C118.013 27.9951 117.508 28.6295 116.8 29.109C116.098 29.5885 115.242 29.8283 114.23 29.8283C113.329 29.8283 112.537 29.6236 111.853 29.2143C111.169 28.8049 110.634 28.2231 110.248 27.4688C109.868 26.7144 109.675 25.811 109.669 24.7584V16.1801H113.405V24.0918C113.411 24.8871 113.625 25.5157 114.046 25.9777C114.467 26.4396 115.031 26.6706 115.739 26.6706C116.189 26.6706 116.61 26.5683 117.002 26.3636C117.394 26.1531 117.709 25.8432 117.949 25.4338C118.195 25.0245 118.314 24.5187 118.309 23.9164ZM136.244 20.0219L132.823 20.2324C132.764 19.9401 132.639 19.6769 132.446 19.443C132.253 19.2033 131.998 19.0132 131.683 18.8729C131.373 18.7267 131.001 18.6536 130.569 18.6536C129.99 18.6536 129.502 18.7764 129.104 19.022C128.706 19.2618 128.507 19.5834 128.507 19.9869C128.507 20.3085 128.636 20.5804 128.893 20.8026C129.151 21.0248 129.592 21.2031 130.218 21.3376L132.656 21.8288C133.966 22.0978 134.943 22.5305 135.586 23.127C136.229 23.7234 136.551 24.507 136.551 25.4777C136.551 26.3607 136.291 27.1355 135.77 27.8021C135.256 28.4687 134.548 28.9891 133.647 29.3634C132.753 29.7318 131.721 29.916 130.551 29.916C128.768 29.916 127.347 29.5447 126.288 28.802C125.236 28.0535 124.619 27.0361 124.438 25.7496L128.113 25.5566C128.224 26.1005 128.493 26.5156 128.92 26.8022C129.347 27.0828 129.893 27.2232 130.56 27.2232C131.215 27.2232 131.741 27.0975 132.139 26.846C132.542 26.5887 132.747 26.2583 132.753 25.8549C132.747 25.5157 132.604 25.2379 132.323 25.0216C132.042 24.7994 131.61 24.6298 131.025 24.5128L128.692 24.048C127.376 23.7848 126.397 23.3287 125.753 22.6796C125.116 22.0306 124.797 21.2031 124.797 20.1974C124.797 19.3319 125.031 18.5864 125.499 17.9607C125.973 17.335 126.636 16.8526 127.49 16.5134C128.35 16.1743 129.355 16.0047 130.507 16.0047C132.209 16.0047 133.548 16.3643 134.525 17.0835C135.507 17.8028 136.08 18.7823 136.244 20.0219ZM145.044 29.916C143.658 29.916 142.465 29.6353 141.465 29.0739C140.471 28.5067 139.705 27.7056 139.167 26.6706C138.629 25.6297 138.36 24.3988 138.36 22.9779C138.36 21.592 138.629 20.3757 139.167 19.329C139.705 18.2823 140.462 17.4666 141.439 16.8818C142.421 16.2971 143.573 16.0047 144.894 16.0047C145.783 16.0047 146.611 16.1479 147.377 16.4345C148.149 16.7152 148.821 17.1391 149.394 17.7063C149.973 18.2735 150.423 18.9869 150.745 19.8465C151.067 20.7003 151.227 21.7002 151.227 22.8463V23.8725H139.851V21.5569H147.71C147.71 21.0189 147.593 20.5424 147.359 20.1272C147.125 19.712 146.801 19.3875 146.386 19.1536C145.976 18.9138 145.5 18.794 144.956 18.794C144.389 18.794 143.886 18.9255 143.447 19.1887C143.014 19.446 142.675 19.7939 142.43 20.2324C142.184 20.6652 142.058 21.1476 142.053 21.6797V23.8813C142.053 24.5479 142.175 25.1239 142.421 25.6093C142.672 26.0946 143.026 26.4688 143.482 26.732C143.938 26.9951 144.479 27.1267 145.105 27.1267C145.52 27.1267 145.9 27.0682 146.245 26.9513C146.59 26.8343 146.886 26.6589 147.131 26.425C147.377 26.1911 147.564 25.9046 147.693 25.5654L151.148 25.7935C150.973 26.6238 150.613 27.3489 150.07 27.9687C149.532 28.5827 148.836 29.0622 147.982 29.4072C147.134 29.7464 146.155 29.916 145.044 29.916ZM153.666 29.6528V16.1801H157.288V18.5308H157.429C157.674 17.6946 158.087 17.0631 158.665 16.6362C159.244 16.2035 159.911 15.9871 160.665 15.9871C160.852 15.9871 161.054 15.9988 161.271 16.0222C161.487 16.0456 161.677 16.0778 161.841 16.1187V19.4343C161.665 19.3816 161.423 19.3349 161.113 19.2939C160.803 19.253 160.519 19.2325 160.262 19.2325C159.712 19.2325 159.221 19.3524 158.788 19.5921C158.361 19.826 158.022 20.1535 157.771 20.5745C157.525 20.9956 157.402 21.4809 157.402 22.0306V29.6528H153.666ZM174.982 20.0219L171.561 20.2324C171.503 19.9401 171.377 19.6769 171.184 19.443C170.991 19.2033 170.737 19.0132 170.421 18.8729C170.111 18.7267 169.74 18.6536 169.307 18.6536C168.728 18.6536 168.24 18.7764 167.842 19.022C167.445 19.2618 167.246 19.5834 167.246 19.9869C167.246 20.3085 167.375 20.5804 167.632 20.8026C167.889 21.0248 168.331 21.2031 168.956 21.3376L171.395 21.8288C172.705 22.0978 173.681 22.5305 174.324 23.127C174.968 23.7234 175.289 24.507 175.289 25.4777C175.289 26.3607 175.029 27.1355 174.509 27.8021C173.994 28.4687 173.286 28.9891 172.386 29.3634C171.491 29.7318 170.459 29.916 169.29 29.916C167.506 29.916 166.085 29.5447 165.027 28.802C163.974 28.0535 163.357 27.0361 163.176 25.7496L166.851 25.5566C166.962 26.1005 167.231 26.5156 167.658 26.8022C168.085 27.0828 168.632 27.2232 169.298 27.2232C169.953 27.2232 170.48 27.0975 170.877 26.846C171.281 26.5887 171.485 26.2583 171.491 25.8549C171.485 25.5157 171.342 25.2379 171.061 25.0216C170.781 24.7994 170.348 24.6298 169.763 24.5128L167.43 24.048C166.114 23.7848 165.135 23.3287 164.492 22.6796C163.854 22.0306 163.536 21.2031 163.536 20.1974C163.536 19.3319 163.77 18.5864 164.237 17.9607C164.711 17.335 165.375 16.8526 166.228 16.5134C167.088 16.1743 168.094 16.0047 169.246 16.0047C170.947 16.0047 172.287 16.3643 173.263 17.0835C174.245 17.8028 174.819 18.7823 174.982 20.0219ZM183.359 16.1801H187.095V30.3195C187.095 31.3603 186.891 32.2024 186.481 32.8456C186.072 33.4888 185.484 33.9595 184.718 34.2578C183.958 34.556 183.049 34.7051 181.991 34.7051C181.862 34.7051 181.739 34.7022 181.622 34.6963C181.499 34.6963 181.371 34.6934 181.236 34.6876V31.7667C181.336 31.7726 181.423 31.7755 181.499 31.7755C181.57 31.7813 181.646 31.7843 181.727 31.7843C182.33 31.7843 182.751 31.6556 182.99 31.3983C183.236 31.1469 183.359 30.7668 183.359 30.2581V16.1801ZM185.218 14.4434C184.669 14.4434 184.195 14.2592 183.797 13.8908C183.4 13.5166 183.201 13.0692 183.201 12.5488C183.201 12.0342 183.4 11.5927 183.797 11.2243C184.195 10.8501 184.669 10.663 185.218 10.663C185.78 10.663 186.256 10.8501 186.648 11.2243C187.046 11.5927 187.245 12.0342 187.245 12.5488C187.245 13.0692 187.046 13.5166 186.648 13.8908C186.256 14.2592 185.78 14.4434 185.218 14.4434ZM196.176 29.916C194.813 29.916 193.635 29.6265 192.641 29.0476C191.653 28.4629 190.89 27.6501 190.352 26.6092C189.814 25.5625 189.545 24.3491 189.545 22.9691C189.545 21.5774 189.814 20.3611 190.352 19.3202C190.89 18.2735 191.653 17.4607 192.641 16.8818C193.635 16.2971 194.813 16.0047 196.176 16.0047C197.538 16.0047 198.714 16.2971 199.702 16.8818C200.696 17.4607 201.462 18.2735 202 19.3202C202.538 20.3611 202.807 21.5774 202.807 22.9691C202.807 24.3491 202.538 25.5625 202 26.6092C201.462 27.6501 200.696 28.4629 199.702 29.0476C198.714 29.6265 197.538 29.916 196.176 29.916ZM196.193 27.0214C196.813 27.0214 197.331 26.846 197.746 26.4952C198.161 26.1385 198.474 25.6531 198.685 25.0391C198.901 24.4251 199.009 23.7264 199.009 22.9428C199.009 22.1592 198.901 21.4604 198.685 20.8464C198.474 20.2324 198.161 19.7471 197.746 19.3904C197.331 19.0337 196.813 18.8554 196.193 18.8554C195.568 18.8554 195.042 19.0337 194.615 19.3904C194.194 19.7471 193.875 20.2324 193.659 20.8464C193.448 21.4604 193.343 22.1592 193.343 22.9428C193.343 23.7264 193.448 24.4251 193.659 25.0391C193.875 25.6531 194.194 26.1385 194.615 26.4952C195.042 26.846 195.568 27.0214 196.193 27.0214ZM205.237 29.6528V16.1801H208.973V29.6528H205.237ZM207.114 14.4434C206.558 14.4434 206.082 14.2592 205.684 13.8908C205.292 13.5166 205.096 13.0692 205.096 12.5488C205.096 12.0342 205.292 11.5927 205.684 11.2243C206.082 10.8501 206.558 10.663 207.114 10.663C207.669 10.663 208.143 10.8501 208.535 11.2243C208.932 11.5927 209.131 12.0342 209.131 12.5488C209.131 13.0692 208.932 13.5166 208.535 13.8908C208.143 14.2592 207.669 14.4434 207.114 14.4434ZM215.703 21.8639V29.6528H211.966V16.1801H215.528V18.5571H215.685C215.984 17.7736 216.484 17.1537 217.185 16.6976C217.887 16.2357 218.738 16.0047 219.738 16.0047C220.673 16.0047 221.489 16.2093 222.185 16.6187C222.881 17.028 223.422 17.6128 223.808 18.3729C224.194 19.1273 224.387 20.0278 224.387 21.0745V29.6528H220.65V21.7411C220.656 20.9166 220.445 20.2734 220.019 19.8114C219.592 19.3436 219.004 19.1097 218.255 19.1097C217.753 19.1097 217.308 19.2179 216.922 19.4343C216.542 19.6506 216.244 19.9664 216.028 20.3816C215.817 20.7909 215.709 21.285 215.703 21.8639ZM233.472 29.916C232.086 29.916 230.893 29.6353 229.893 29.0739C228.899 28.5067 228.133 27.7056 227.595 26.6706C227.057 25.6297 226.788 24.3988 226.788 22.9779C226.788 21.592 227.057 20.3757 227.595 19.329C228.133 18.2823 228.89 17.4666 229.867 16.8818C230.849 16.2971 232.001 16.0047 233.322 16.0047C234.211 16.0047 235.039 16.1479 235.805 16.4345C236.577 16.7152 237.249 17.1391 237.822 17.7063C238.401 18.2735 238.851 18.9869 239.173 19.8465C239.494 20.7003 239.655 21.7002 239.655 22.8463V23.8725H228.279V21.5569H236.138C236.138 21.0189 236.021 20.5424 235.787 20.1272C235.553 19.712 235.229 19.3875 234.814 19.1536C234.404 18.9138 233.928 18.794 233.384 18.794C232.817 18.794 232.314 18.9255 231.875 19.1887C231.442 19.446 231.103 19.7939 230.858 20.2324C230.612 20.6652 230.486 21.1476 230.481 21.6797V23.8813C230.481 24.5479 230.603 25.1239 230.849 25.6093C231.1 26.0946 231.454 26.4688 231.91 26.732C232.366 26.9951 232.907 27.1267 233.533 27.1267C233.948 27.1267 234.328 27.0682 234.673 26.9513C235.018 26.8343 235.313 26.6589 235.559 26.425C235.805 26.1911 235.992 25.9046 236.12 25.5654L239.576 25.7935C239.401 26.6238 239.041 27.3489 238.497 27.9687C237.96 28.5827 237.264 29.0622 236.41 29.4072C235.562 29.7464 234.583 29.916 233.472 29.916ZM247.058 29.8721C246.035 29.8721 245.108 29.609 244.278 29.0827C243.453 28.5506 242.798 27.7699 242.313 26.7408C241.834 25.7057 241.594 24.4368 241.594 22.934C241.594 21.3903 241.842 20.1067 242.339 19.0834C242.836 18.0542 243.497 17.2853 244.322 16.7766C245.152 16.262 246.061 16.0047 247.05 16.0047C247.804 16.0047 248.432 16.1333 248.935 16.3906C249.444 16.6421 249.853 16.9578 250.163 17.3379C250.479 17.7122 250.719 18.0806 250.883 18.4431H250.997V11.6892H254.724V29.6528H251.04V27.4951H250.883C250.707 27.8693 250.459 28.2407 250.137 28.609C249.821 28.9716 249.409 29.2727 248.9 29.5125C248.397 29.7522 247.783 29.8721 247.058 29.8721ZM248.242 26.8986C248.845 26.8986 249.353 26.7349 249.769 26.4074C250.19 26.0741 250.511 25.6093 250.733 25.0128C250.962 24.4164 251.076 23.7176 251.076 22.9165C251.076 22.1154 250.964 21.4195 250.742 20.8289C250.52 20.2383 250.198 19.7822 249.777 19.4606C249.356 19.139 248.845 18.9782 248.242 18.9782C247.628 18.9782 247.111 19.1448 246.69 19.4781C246.269 19.8114 245.95 20.2734 245.734 20.864C245.517 21.4546 245.409 22.1387 245.409 22.9165C245.409 23.7 245.517 24.393 245.734 24.9953C245.956 25.5917 246.275 26.0595 246.69 26.3987C247.111 26.732 247.628 26.8986 248.242 26.8986ZM268.478 29.8721C267.454 29.8721 266.528 29.609 265.697 29.0827C264.873 28.5506 264.218 27.7699 263.733 26.7408C263.253 25.7057 263.013 24.4368 263.013 22.934C263.013 21.3903 263.262 20.1067 263.759 19.0834C264.256 18.0542 264.917 17.2853 265.741 16.7766C266.572 16.262 267.481 16.0047 268.469 16.0047C269.223 16.0047 269.852 16.1333 270.355 16.3906C270.864 16.6421 271.273 16.9578 271.583 17.3379C271.899 17.7122 272.138 18.0806 272.302 18.4431H272.416V11.6892H276.144V29.6528H272.46V27.4951H272.302C272.127 27.8693 271.878 28.2407 271.557 28.609C271.241 28.9716 270.829 29.2727 270.32 29.5125C269.817 29.7522 269.203 29.8721 268.478 29.8721ZM269.662 26.8986C270.264 26.8986 270.773 26.7349 271.188 26.4074C271.609 26.0741 271.931 25.6093 272.153 25.0128C272.381 24.4164 272.495 23.7176 272.495 22.9165C272.495 22.1154 272.384 21.4195 272.162 20.8289C271.94 20.2383 271.618 19.7822 271.197 19.4606C270.776 19.139 270.264 18.9782 269.662 18.9782C269.048 18.9782 268.53 19.1448 268.109 19.4781C267.688 19.8114 267.37 20.2734 267.153 20.864C266.937 21.4546 266.829 22.1387 266.829 22.9165C266.829 23.7 266.937 24.393 267.153 24.9953C267.376 25.5917 267.694 26.0595 268.109 26.3987C268.53 26.732 269.048 26.8986 269.662 26.8986ZM283.058 29.9072C282.198 29.9072 281.432 29.7581 280.76 29.4599C280.087 29.1558 279.555 28.7085 279.163 28.1179C278.778 27.5214 278.585 26.7788 278.585 25.8899C278.585 25.1415 278.722 24.5128 278.997 24.0041C279.272 23.4954 279.646 23.086 280.12 22.7761C280.593 22.4662 281.131 22.2323 281.733 22.0744C282.342 21.9165 282.979 21.8054 283.646 21.7411C284.429 21.6592 285.061 21.5832 285.54 21.5131C286.02 21.437 286.368 21.3259 286.584 21.1797C286.8 21.0336 286.909 20.8172 286.909 20.5307V20.478C286.909 19.9225 286.733 19.4927 286.382 19.1887C286.037 18.8846 285.546 18.7326 284.909 18.7326C284.236 18.7326 283.701 18.8817 283.304 19.1799C282.906 19.4723 282.643 19.8407 282.514 20.2851L279.058 20.0044C279.234 19.1857 279.579 18.4782 280.093 17.8817C280.608 17.2794 281.272 16.8175 282.084 16.4959C282.903 16.1684 283.85 16.0047 284.926 16.0047C285.675 16.0047 286.391 16.0924 287.075 16.2678C287.765 16.4432 288.376 16.7152 288.908 17.0835C289.446 17.4519 289.87 17.9256 290.18 18.5045C290.49 19.0776 290.645 19.7646 290.645 20.5658V29.6528H287.102V27.7845H286.996C286.78 28.2056 286.49 28.5769 286.128 28.8985C285.765 29.2143 285.33 29.4628 284.821 29.6441C284.312 29.8195 283.725 29.9072 283.058 29.9072ZM284.128 27.3284C284.678 27.3284 285.163 27.2203 285.584 27.0039C286.005 26.7817 286.335 26.4835 286.575 26.1092C286.815 25.735 286.935 25.311 286.935 24.8374V23.4077C286.818 23.4837 286.657 23.5538 286.452 23.6182C286.254 23.6766 286.028 23.7322 285.777 23.7848C285.526 23.8316 285.274 23.8755 285.023 23.9164C284.771 23.9515 284.543 23.9836 284.339 24.0129C283.9 24.0772 283.517 24.1795 283.189 24.3199C282.862 24.4602 282.608 24.6503 282.426 24.89C282.245 25.1239 282.154 25.4163 282.154 25.7671C282.154 26.2759 282.339 26.6647 282.707 26.9337C283.081 27.1969 283.555 27.3284 284.128 27.3284ZM293.544 29.6528V16.1801H297.281V29.6528H293.544ZM295.421 14.4434C294.866 14.4434 294.389 14.2592 293.991 13.8908C293.6 13.5166 293.404 13.0692 293.404 12.5488C293.404 12.0342 293.6 11.5927 293.991 11.2243C294.389 10.8501 294.866 10.663 295.421 10.663C295.977 10.663 296.45 10.8501 296.842 11.2243C297.24 11.5927 297.438 12.0342 297.438 12.5488C297.438 13.0692 297.24 13.5166 296.842 13.8908C296.45 14.2592 295.977 14.4434 295.421 14.4434ZM304.01 11.6892V29.6528H300.274V11.6892H304.01ZM309.31 34.7051C308.837 34.7051 308.392 34.6671 307.977 34.5911C307.568 34.5209 307.229 34.4303 306.96 34.3192L307.802 31.5299C308.24 31.6644 308.635 31.7375 308.986 31.7492C309.343 31.7609 309.65 31.679 309.907 31.5036C310.17 31.3282 310.383 31.0299 310.547 30.6089L310.766 30.0388L305.933 16.1801H309.863L312.652 26.0741H312.793L315.608 16.1801H319.564L314.328 31.1089C314.076 31.834 313.734 32.4655 313.301 33.0035C312.875 33.5473 312.334 33.9654 311.679 34.2578C311.024 34.556 310.234 34.7051 309.31 34.7051Z" fill="#9493F8"/>
</svg>
