<svg width="307" height="128" viewBox="0 0 307 128" fill="none" xmlns="http://www.w3.org/2000/svg">
<rect width="307" height="128" rx="15" fill="#9691FF"/>
<path d="M60.2422 57H51.3339L61.3706 26.5927H72.6546L82.6914 57H73.783L67.1314 34.9666H66.8938L60.2422 57ZM58.5793 45.0034H75.3271V51.1799H58.5793V45.0034ZM89.5248 26.5927L95.7607 48.0322H95.9983L102.234 26.5927H111.558L101.521 57H90.2375L80.2007 26.5927H89.5248ZM114.487 57V26.5927H136.401V33.2443H122.742V38.4706H135.273V45.1222H122.742V50.3484H136.342V57H114.487ZM140.496 57V26.5927H153.621C155.877 26.5927 157.852 27.0035 159.545 27.8251C161.237 28.6466 162.554 29.8294 163.494 31.3736C164.434 32.9177 164.905 34.7686 164.905 36.9264C164.905 39.1041 164.42 40.9402 163.45 42.4348C162.489 43.9294 161.138 45.0578 159.396 45.82C157.664 46.5821 155.64 46.9632 153.324 46.9632H145.484V40.5492H151.661C152.631 40.5492 153.457 40.4304 154.14 40.1929C154.833 39.9454 155.363 39.5544 155.729 39.0199C156.105 38.4854 156.293 37.7876 156.293 36.9264C156.293 36.0554 156.105 35.3477 155.729 34.8033C155.363 34.249 154.833 33.8432 154.14 33.5858C153.457 33.3186 152.631 33.1849 151.661 33.1849H148.751V57H140.496ZM158.312 43.0435L165.914 57H156.946L149.523 43.0435H158.312ZM176.322 57H167.414L177.451 26.5927H188.735L198.771 57H189.863L183.211 34.9666H182.974L176.322 57ZM174.659 45.0034H191.407V51.1799H174.659V45.0034ZM220.018 36.6295C219.889 36.1049 219.686 35.6446 219.409 35.2487C219.132 34.8429 218.785 34.5014 218.37 34.2242C217.964 33.9372 217.489 33.7244 216.944 33.5858C216.41 33.4373 215.821 33.3631 215.178 33.3631C213.792 33.3631 212.609 33.6947 211.629 34.3579C210.659 35.021 209.917 35.9762 209.402 37.2234C208.897 38.4706 208.645 39.9751 208.645 41.737C208.645 43.5186 208.887 45.043 209.372 46.3099C209.857 47.5769 210.58 48.5469 211.54 49.22C212.5 49.8931 213.693 50.2296 215.118 50.2296C216.375 50.2296 217.419 50.0465 218.251 49.6803C219.092 49.314 219.721 48.7944 220.137 48.1213C220.552 47.4482 220.76 46.6564 220.76 45.7457L222.185 45.8942H215.237V40.0147H228.718V44.2313C228.718 47.0028 228.129 49.3734 226.951 51.3432C225.783 53.303 224.17 54.8075 222.111 55.8568C220.062 56.8961 217.711 57.4157 215.059 57.4157C212.099 57.4157 209.501 56.7872 207.264 55.5301C205.027 54.273 203.28 52.4815 202.023 50.1554C200.776 47.8293 200.152 45.0628 200.152 41.8558C200.152 39.3416 200.533 37.1145 201.295 35.1745C202.067 33.2344 203.136 31.5963 204.502 30.26C205.868 28.9139 207.447 27.8993 209.239 27.2163C211.03 26.5234 212.95 26.177 214.999 26.177C216.801 26.177 218.474 26.4344 220.018 26.9491C221.572 27.4539 222.943 28.1764 224.13 29.1168C225.328 30.0472 226.293 31.1508 227.026 32.4277C227.758 33.7046 228.204 35.1052 228.362 36.6295H220.018ZM232.567 57V26.5927H254.482V33.2443H240.823V38.4706H253.354V45.1222H240.823V50.3484H254.423V57H232.567ZM65.1641 101V70.5927H78.2891C80.5459 70.5927 82.5206 71.0381 84.2132 71.929C85.9058 72.8198 87.2223 74.0719 88.1626 75.6854C89.1029 77.2988 89.5731 79.1844 89.5731 81.3422C89.5731 83.5198 89.0881 85.4054 88.118 86.999C87.1579 88.5926 85.8068 89.82 84.0647 90.6811C82.3326 91.5423 80.3084 91.9728 77.9922 91.9728H70.1528V85.5588H76.3293C77.2993 85.5588 78.1258 85.3905 78.8088 85.054C79.5017 84.7076 80.0312 84.2176 80.3975 83.5841C80.7736 82.9506 80.9617 82.2033 80.9617 81.3422C80.9617 80.4711 80.7736 79.7288 80.3975 79.1151C80.0312 78.4915 79.5017 78.0164 78.8088 77.6897C78.1258 77.3532 77.2993 77.1849 76.3293 77.1849H73.4192V101H65.1641ZM92.6019 101V70.5927H114.517V77.2443H100.857V82.4706H113.388V89.1222H100.857V94.3484H114.457V101H92.6019ZM118.611 101V70.5927H131.736C133.992 70.5927 135.967 71.0035 137.66 71.8251C139.352 72.6466 140.669 73.8294 141.609 75.3736C142.549 76.9177 143.02 78.7686 143.02 80.9264C143.02 83.1041 142.535 84.9402 141.565 86.4348C140.604 87.9294 139.253 89.0578 137.511 89.82C135.779 90.5821 133.755 90.9632 131.439 90.9632H123.599V84.5492H129.776C130.746 84.5492 131.572 84.4304 132.255 84.1929C132.948 83.9454 133.478 83.5544 133.844 83.0199C134.22 82.4854 134.408 81.7876 134.408 80.9264C134.408 80.0554 134.22 79.3477 133.844 78.8033C133.478 78.249 132.948 77.8432 132.255 77.5858C131.572 77.3186 130.746 77.1849 129.776 77.1849H126.866V101H118.611ZM136.427 87.0435L144.029 101H135.062L127.638 87.0435H136.427ZM166.567 101H154.868V70.5927H166.449C169.577 70.5927 172.279 71.2015 174.555 72.4189C176.842 73.6265 178.604 75.3686 179.841 77.6452C181.088 79.9119 181.712 82.6289 181.712 85.7964C181.712 88.9638 181.093 91.6858 179.856 93.9624C178.619 96.2291 176.867 97.9712 174.6 99.1886C172.333 100.396 169.656 101 166.567 101ZM163.123 93.9921H166.271C167.775 93.9921 169.057 93.7496 170.116 93.2646C171.185 92.7795 171.997 91.9431 172.551 90.7554C173.115 89.5676 173.397 87.9146 173.397 85.7964C173.397 83.6781 173.11 82.0251 172.536 80.8374C171.972 79.6496 171.14 78.8132 170.042 78.3282C168.953 77.8432 167.617 77.6007 166.033 77.6007H163.123V93.9921ZM191.511 101H182.603L192.639 70.5927H203.923L213.96 101H205.052L198.4 78.9666H198.163L191.511 101ZM189.848 89.0034H206.596V95.1799H189.848V89.0034ZM212.538 70.5927H221.744L227.683 82.9457H227.92L233.859 70.5927H243.064L231.899 91.4383V101H223.704V91.4383L212.538 70.5927Z" fill="white"/>
</svg>
