<svg width="323" height="42" viewBox="0 0 323 42" fill="none" xmlns="http://www.w3.org/2000/svg">
<path d="M7.12465 29.6528H3.05476L9.25608 11.6892H14.1505L20.343 29.6528H16.2731L11.7734 15.7942H11.6331L7.12465 29.6528ZM6.87028 22.5919H16.4836V25.5566H6.87028V22.5919ZM33.307 16.1801L28.5968 29.6528H24.3866L19.6764 16.1801H23.6235L26.4215 25.8198H26.5619L29.3511 16.1801H33.307ZM40.9249 29.916C39.539 29.916 38.3461 29.6353 37.3462 29.0739C36.3521 28.5067 35.5861 27.7056 35.0481 26.6706C34.5101 25.6297 34.2411 24.3988 34.2411 22.9779C34.2411 21.592 34.5101 20.3757 35.0481 19.329C35.5861 18.2823 36.3433 17.4666 37.3199 16.8818C38.3023 16.2971 39.4542 16.0047 40.7758 16.0047C41.6646 16.0047 42.492 16.1479 43.2581 16.4345C44.0299 16.7152 44.7024 17.1391 45.2755 17.7063C45.8544 18.2735 46.3046 18.9869 46.6262 19.8465C46.9478 20.7003 47.1087 21.7002 47.1087 22.8463V23.8725H35.7323V21.5569H43.5914C43.5914 21.0189 43.4744 20.5424 43.2405 20.1272C43.0066 19.712 42.6821 19.3875 42.2669 19.1536C41.8576 18.9138 41.381 18.794 40.8372 18.794C40.27 18.794 39.7671 18.9255 39.3285 19.1887C38.8958 19.446 38.5566 19.7939 38.311 20.2324C38.0654 20.6652 37.9397 21.1476 37.9339 21.6797V23.8813C37.9339 24.5479 38.0567 25.1239 38.3023 25.6093C38.5537 26.0946 38.9075 26.4688 39.3636 26.732C39.8197 26.9951 40.3606 27.1267 40.9863 27.1267C41.4015 27.1267 41.7815 27.0682 42.1266 26.9513C42.4716 26.8343 42.7669 26.6589 43.0125 26.425C43.2581 26.1911 43.4452 25.9046 43.5738 25.5654L47.0297 25.7935C46.8543 26.6238 46.4947 27.3489 45.9508 27.9687C45.4129 28.5827 44.717 29.0622 43.8633 29.4072C43.0154 29.7464 42.0359 29.916 40.9249 29.916ZM49.5471 29.6528V16.1801H53.1696V18.5308H53.31C53.5556 17.6946 53.9678 17.0631 54.5467 16.6362C55.1256 16.2035 55.7922 15.9871 56.5466 15.9871C56.7337 15.9871 56.9354 15.9988 57.1518 16.0222C57.3682 16.0456 57.5582 16.0778 57.7219 16.1187V19.4343C57.5465 19.3816 57.3038 19.3349 56.9939 19.2939C56.684 19.253 56.4004 19.2325 56.1431 19.2325C55.5934 19.2325 55.1022 19.3524 54.6695 19.5921C54.2426 19.826 53.9035 20.1535 53.652 20.5745C53.4065 20.9956 53.2837 21.4809 53.2837 22.0306V29.6528H49.5471ZM63.1097 29.9072C62.2501 29.9072 61.4841 29.7581 60.8116 29.4599C60.1392 29.1558 59.607 28.7085 59.2153 28.1179C58.8293 27.5214 58.6363 26.7788 58.6363 25.8899C58.6363 25.1415 58.7738 24.5128 59.0486 24.0041C59.3234 23.4954 59.6977 23.086 60.1713 22.7761C60.645 22.4662 61.1829 22.2323 61.7852 22.0744C62.3934 21.9165 63.0308 21.8054 63.6974 21.7411C64.481 21.6592 65.1125 21.5832 65.592 21.5131C66.0715 21.437 66.4194 21.3259 66.6358 21.1797C66.8521 21.0336 66.9603 20.8172 66.9603 20.5307V20.478C66.9603 19.9225 66.7849 19.4927 66.434 19.1887C66.089 18.8846 65.5978 18.7326 64.9605 18.7326C64.288 18.7326 63.7529 18.8817 63.3553 19.1799C62.9577 19.4723 62.6945 19.8407 62.5659 20.2851L59.11 20.0044C59.2854 19.1857 59.6304 18.4782 60.145 17.8817C60.6596 17.2794 61.3233 16.8175 62.1361 16.4959C62.9548 16.1684 63.9021 16.0047 64.978 16.0047C65.7265 16.0047 66.4428 16.0924 67.127 16.2678C67.817 16.4432 68.428 16.7152 68.9602 17.0835C69.4981 17.4519 69.9221 17.9256 70.232 18.5045C70.5419 19.0776 70.6969 19.7646 70.6969 20.5658V29.6528H67.1533V27.7845H67.048C66.8317 28.2056 66.5422 28.5769 66.1797 28.8985C65.8171 29.2143 65.3815 29.4628 64.8727 29.6441C64.364 29.8195 63.7763 29.9072 63.1097 29.9072ZM64.1798 27.3284C64.7295 27.3284 65.2148 27.2203 65.6358 27.0039C66.0569 26.7817 66.3873 26.4835 66.627 26.1092C66.8668 25.735 66.9866 25.311 66.9866 24.8374V23.4077C66.8697 23.4837 66.7089 23.5538 66.5042 23.6182C66.3054 23.6766 66.0803 23.7322 65.8288 23.7848C65.5774 23.8316 65.3259 23.8755 65.0745 23.9164C64.823 23.9515 64.595 23.9836 64.3903 24.0129C63.9518 24.0772 63.5687 24.1795 63.2413 24.3199C62.9138 24.4602 62.6595 24.6503 62.4782 24.89C62.2969 25.1239 62.2063 25.4163 62.2063 25.7671C62.2063 26.2759 62.3905 26.6647 62.7589 26.9337C63.1331 27.1969 63.6068 27.3284 64.1798 27.3284ZM79.6656 34.9858C78.4551 34.9858 77.4172 34.8191 76.5517 34.4858C75.6922 34.1584 75.008 33.711 74.4993 33.1438C73.9905 32.5766 73.6601 31.9392 73.5081 31.2317L76.964 30.7668C77.0693 31.0358 77.2359 31.2872 77.464 31.5211C77.692 31.755 77.9932 31.9421 78.3674 32.0825C78.7475 32.2287 79.2094 32.3018 79.7533 32.3018C80.5661 32.3018 81.2356 32.103 81.7619 31.7053C82.294 31.3135 82.5601 30.6557 82.5601 29.7318V27.267H82.4022C82.2385 27.6413 81.9929 27.9951 81.6654 28.3284C81.338 28.6617 80.9169 28.9336 80.4023 29.1441C79.8878 29.3546 79.2738 29.4599 78.5604 29.4599C77.5487 29.4599 76.6278 29.226 75.7974 28.7582C74.9729 28.2845 74.3151 27.5623 73.8239 26.5916C73.3385 25.6151 73.0958 24.3813 73.0958 22.8902C73.0958 21.3639 73.3444 20.0892 73.8414 19.0659C74.3385 18.0425 74.9992 17.2765 75.8237 16.7678C76.6541 16.259 77.5634 16.0047 78.5516 16.0047C79.3059 16.0047 79.9375 16.1333 80.4462 16.3906C80.9549 16.6421 81.3643 16.9578 81.6742 17.3379C81.99 17.7122 82.2326 18.0806 82.4022 18.4431H82.5425V16.1801H86.2528V29.7844C86.2528 30.9305 85.9721 31.8895 85.4108 32.6614C84.8494 33.4333 84.0717 34.0122 83.0776 34.3981C82.0894 34.7899 80.952 34.9858 79.6656 34.9858ZM79.7445 26.653C80.3468 26.653 80.8555 26.5039 81.2707 26.2057C81.6917 25.9016 82.0133 25.4689 82.2356 24.9076C82.4636 24.3403 82.5776 23.662 82.5776 22.8726C82.5776 22.0832 82.4665 21.399 82.2443 20.8201C82.0221 20.2354 81.7005 19.7822 81.2795 19.4606C80.8585 19.139 80.3468 18.9782 79.7445 18.9782C79.1305 18.9782 78.613 19.1448 78.192 19.4781C77.771 19.8056 77.4523 20.2617 77.2359 20.8464C77.0195 21.4312 76.9114 22.1066 76.9114 22.8726C76.9114 23.6503 77.0195 24.3228 77.2359 24.89C77.4581 25.4514 77.7768 25.887 78.192 26.1969C78.613 26.501 79.1305 26.653 79.7445 26.653ZM95.3662 29.916C93.9803 29.916 92.7874 29.6353 91.7875 29.0739C90.7934 28.5067 90.0274 27.7056 89.4894 26.6706C88.9514 25.6297 88.6825 24.3988 88.6825 22.9779C88.6825 21.592 88.9514 20.3757 89.4894 19.329C90.0274 18.2823 90.7846 17.4666 91.7612 16.8818C92.7436 16.2971 93.8955 16.0047 95.2171 16.0047C96.1059 16.0047 96.9333 16.1479 97.6994 16.4345C98.4712 16.7152 99.1437 17.1391 99.7168 17.7063C100.296 18.2735 100.746 18.9869 101.068 19.8465C101.389 20.7003 101.55 21.7002 101.55 22.8463V23.8725H90.1736V21.5569H98.0327C98.0327 21.0189 97.9157 20.5424 97.6818 20.1272C97.4479 19.712 97.1234 19.3875 96.7082 19.1536C96.2989 18.9138 95.8223 18.794 95.2785 18.794C94.7113 18.794 94.2084 18.9255 93.7698 19.1887C93.3371 19.446 92.9979 19.7939 92.7523 20.2324C92.5067 20.6652 92.381 21.1476 92.3752 21.6797V23.8813C92.3752 24.5479 92.498 25.1239 92.7436 25.6093C92.995 26.0946 93.3488 26.4688 93.8049 26.732C94.261 26.9951 94.8019 27.1267 95.4276 27.1267C95.8428 27.1267 96.2229 27.0682 96.5679 26.9513C96.9129 26.8343 97.2082 26.6589 97.4538 26.425C97.6994 26.1911 97.8865 25.9046 98.0151 25.5654L101.471 25.7935C101.296 26.6238 100.936 27.3489 100.392 27.9687C99.8542 28.5827 99.1583 29.0622 98.3046 29.4072C97.4567 29.7464 96.4772 29.916 95.3662 29.916ZM115.792 29.916C114.43 29.916 113.252 29.6265 112.258 29.0476C111.269 28.4629 110.506 27.6501 109.968 26.6092C109.43 25.5625 109.161 24.3491 109.161 22.9691C109.161 21.5774 109.43 20.3611 109.968 19.3202C110.506 18.2735 111.269 17.4607 112.258 16.8818C113.252 16.2971 114.43 16.0047 115.792 16.0047C117.155 16.0047 118.33 16.2971 119.318 16.8818C120.313 17.4607 121.079 18.2735 121.617 19.3202C122.154 20.3611 122.423 21.5774 122.423 22.9691C122.423 24.3491 122.154 25.5625 121.617 26.6092C121.079 27.6501 120.313 28.4629 119.318 29.0476C118.33 29.6265 117.155 29.916 115.792 29.916ZM115.81 27.0214C116.43 27.0214 116.947 26.846 117.362 26.4952C117.778 26.1385 118.09 25.6531 118.301 25.0391C118.517 24.4251 118.626 23.7264 118.626 22.9428C118.626 22.1592 118.517 21.4604 118.301 20.8464C118.09 20.2324 117.778 19.7471 117.362 19.3904C116.947 19.0337 116.43 18.8554 115.81 18.8554C115.184 18.8554 114.658 19.0337 114.231 19.3904C113.81 19.7471 113.491 20.2324 113.275 20.8464C113.064 21.4604 112.959 22.1592 112.959 22.9428C112.959 23.7264 113.064 24.4251 113.275 25.0391C113.491 25.6531 113.81 26.1385 114.231 26.4952C114.658 26.846 115.184 27.0214 115.81 27.0214ZM132.098 16.1801V18.9869H123.783V16.1801H132.098ZM125.686 29.6528V15.2065C125.686 14.2299 125.876 13.4201 126.257 12.7768C126.642 12.1336 127.169 11.6512 127.835 11.3296C128.502 11.008 129.259 10.8471 130.107 10.8471C130.68 10.8471 131.204 10.891 131.677 10.9787C132.157 11.0664 132.513 11.1454 132.747 11.2155L132.081 14.0224C131.935 13.9756 131.753 13.9317 131.537 13.8908C131.326 13.8499 131.11 13.8294 130.888 13.8294C130.338 13.8294 129.955 13.958 129.739 14.2153C129.522 14.4668 129.414 14.8206 129.414 15.2767V29.6528H125.686ZM148.737 23.9164V16.1801H152.474V29.6528H148.887V27.2056H148.746C148.442 27.9951 147.936 28.6295 147.229 29.109C146.527 29.5885 145.67 29.8283 144.659 29.8283C143.758 29.8283 142.966 29.6236 142.282 29.2143C141.598 28.8049 141.063 28.2231 140.677 27.4688C140.296 26.7144 140.104 25.811 140.098 24.7584V16.1801H143.834V24.0918C143.84 24.8871 144.054 25.5157 144.475 25.9777C144.896 26.4396 145.46 26.6706 146.167 26.6706C146.618 26.6706 147.039 26.5683 147.43 26.3636C147.822 26.1531 148.138 25.8432 148.378 25.4338C148.623 25.0245 148.743 24.5187 148.737 23.9164ZM166.673 20.0219L163.252 20.2324C163.193 19.9401 163.068 19.6769 162.875 19.443C162.682 19.2033 162.427 19.0132 162.111 18.8729C161.802 18.7267 161.43 18.6536 160.997 18.6536C160.419 18.6536 159.93 18.7764 159.533 19.022C159.135 19.2618 158.936 19.5834 158.936 19.9869C158.936 20.3085 159.065 20.5804 159.322 20.8026C159.579 21.0248 160.021 21.2031 160.647 21.3376L163.085 21.8288C164.395 22.0978 165.371 22.5305 166.015 23.127C166.658 23.7234 166.98 24.507 166.98 25.4777C166.98 26.3607 166.719 27.1355 166.199 27.8021C165.684 28.4687 164.977 28.9891 164.076 29.3634C163.182 29.7318 162.149 29.916 160.98 29.916C159.196 29.916 157.776 29.5447 156.717 28.802C155.665 28.0535 155.048 27.0361 154.866 25.7496L158.542 25.5566C158.653 26.1005 158.922 26.5156 159.348 26.8022C159.775 27.0828 160.322 27.2232 160.989 27.2232C161.644 27.2232 162.17 27.0975 162.568 26.846C162.971 26.5887 163.176 26.2583 163.182 25.8549C163.176 25.5157 163.032 25.2379 162.752 25.0216C162.471 24.7994 162.038 24.6298 161.454 24.5128L159.12 24.048C157.805 23.7848 156.825 23.3287 156.182 22.6796C155.545 22.0306 155.226 21.2031 155.226 20.1974C155.226 19.3319 155.46 18.5864 155.928 17.9607C156.401 17.335 157.065 16.8526 157.919 16.5134C158.778 16.1743 159.784 16.0047 160.936 16.0047C162.638 16.0047 163.977 16.3643 164.953 17.0835C165.936 17.8028 166.509 18.7823 166.673 20.0219ZM175.472 29.916C174.086 29.916 172.894 29.6353 171.894 29.0739C170.9 28.5067 170.134 27.7056 169.596 26.6706C169.058 25.6297 168.789 24.3988 168.789 22.9779C168.789 21.592 169.058 20.3757 169.596 19.329C170.134 18.2823 170.891 17.4666 171.867 16.8818C172.85 16.2971 174.002 16.0047 175.323 16.0047C176.212 16.0047 177.039 16.1479 177.806 16.4345C178.577 16.7152 179.25 17.1391 179.823 17.7063C180.402 18.2735 180.852 18.9869 181.174 19.8465C181.495 20.7003 181.656 21.7002 181.656 22.8463V23.8725H170.28V21.5569H178.139C178.139 21.0189 178.022 20.5424 177.788 20.1272C177.554 19.712 177.23 19.3875 176.814 19.1536C176.405 18.9138 175.928 18.794 175.385 18.794C174.817 18.794 174.315 18.9255 173.876 19.1887C173.443 19.446 173.104 19.7939 172.858 20.2324C172.613 20.6652 172.487 21.1476 172.481 21.6797V23.8813C172.481 24.5479 172.604 25.1239 172.85 25.6093C173.101 26.0946 173.455 26.4688 173.911 26.732C174.367 26.9951 174.908 27.1267 175.534 27.1267C175.949 27.1267 176.329 27.0682 176.674 26.9513C177.019 26.8343 177.314 26.6589 177.56 26.425C177.806 26.1911 177.993 25.9046 178.121 25.5654L181.577 25.7935C181.402 26.6238 181.042 27.3489 180.498 27.9687C179.96 28.5827 179.264 29.0622 178.411 29.4072C177.563 29.7464 176.583 29.916 175.472 29.916ZM184.095 29.6528V16.1801H187.717V18.5308H187.857C188.103 17.6946 188.515 17.0631 189.094 16.6362C189.673 16.2035 190.34 15.9871 191.094 15.9871C191.281 15.9871 191.483 15.9988 191.699 16.0222C191.916 16.0456 192.106 16.0778 192.269 16.1187V19.4343C192.094 19.3816 191.851 19.3349 191.541 19.2939C191.231 19.253 190.948 19.2325 190.691 19.2325C190.141 19.2325 189.65 19.3524 189.217 19.5921C188.79 19.826 188.451 20.1535 188.2 20.5745C187.954 20.9956 187.831 21.4809 187.831 22.0306V29.6528H184.095ZM205.411 20.0219L201.99 20.2324C201.932 19.9401 201.806 19.6769 201.613 19.443C201.42 19.2033 201.166 19.0132 200.85 18.8729C200.54 18.7267 200.169 18.6536 199.736 18.6536C199.157 18.6536 198.669 18.7764 198.271 19.022C197.874 19.2618 197.675 19.5834 197.675 19.9869C197.675 20.3085 197.803 20.5804 198.061 20.8026C198.318 21.0248 198.759 21.2031 199.385 21.3376L201.824 21.8288C203.133 22.0978 204.11 22.5305 204.753 23.127C205.396 23.7234 205.718 24.507 205.718 25.4777C205.718 26.3607 205.458 27.1355 204.937 27.8021C204.423 28.4687 203.715 28.9891 202.815 29.3634C201.92 29.7318 200.888 29.916 199.718 29.916C197.935 29.916 196.514 29.5447 195.456 28.802C194.403 28.0535 193.786 27.0361 193.605 25.7496L197.28 25.5566C197.391 26.1005 197.66 26.5156 198.087 26.8022C198.514 27.0828 199.061 27.2232 199.727 27.2232C200.382 27.2232 200.908 27.0975 201.306 26.846C201.71 26.5887 201.914 26.2583 201.92 25.8549C201.914 25.5157 201.771 25.2379 201.49 25.0216C201.21 24.7994 200.777 24.6298 200.192 24.5128L197.859 24.048C196.543 23.7848 195.564 23.3287 194.921 22.6796C194.283 22.0306 193.964 21.2031 193.964 20.1974C193.964 19.3319 194.198 18.5864 194.666 17.9607C195.14 17.335 195.804 16.8526 196.657 16.5134C197.517 16.1743 198.523 16.0047 199.675 16.0047C201.376 16.0047 202.715 16.3643 203.692 17.0835C204.674 17.8028 205.247 18.7823 205.411 20.0219ZM213.788 16.1801H217.524V30.3195C217.524 31.3603 217.32 32.2024 216.91 32.8456C216.501 33.4888 215.913 33.9595 215.147 34.2578C214.387 34.556 213.478 34.7051 212.419 34.7051C212.291 34.7051 212.168 34.7022 212.051 34.6963C211.928 34.6963 211.799 34.6934 211.665 34.6876V31.7667C211.764 31.7726 211.852 31.7755 211.928 31.7755C211.998 31.7813 212.074 31.7843 212.156 31.7843C212.758 31.7843 213.179 31.6556 213.419 31.3983C213.665 31.1469 213.788 30.7668 213.788 30.2581V16.1801ZM215.647 14.4434C215.097 14.4434 214.624 14.2592 214.226 13.8908C213.829 13.5166 213.63 13.0692 213.63 12.5488C213.63 12.0342 213.829 11.5927 214.226 11.2243C214.624 10.8501 215.097 10.663 215.647 10.663C216.208 10.663 216.685 10.8501 217.077 11.2243C217.474 11.5927 217.673 12.0342 217.673 12.5488C217.673 13.0692 217.474 13.5166 217.077 13.8908C216.685 14.2592 216.208 14.4434 215.647 14.4434ZM226.605 29.916C225.242 29.916 224.064 29.6265 223.07 29.0476C222.082 28.4629 221.319 27.6501 220.781 26.6092C220.243 25.5625 219.974 24.3491 219.974 22.9691C219.974 21.5774 220.243 20.3611 220.781 19.3202C221.319 18.2735 222.082 17.4607 223.07 16.8818C224.064 16.2971 225.242 16.0047 226.605 16.0047C227.967 16.0047 229.143 16.2971 230.131 16.8818C231.125 17.4607 231.891 18.2735 232.429 19.3202C232.967 20.3611 233.236 21.5774 233.236 22.9691C233.236 24.3491 232.967 25.5625 232.429 26.6092C231.891 27.6501 231.125 28.4629 230.131 29.0476C229.143 29.6265 227.967 29.916 226.605 29.916ZM226.622 27.0214C227.242 27.0214 227.76 26.846 228.175 26.4952C228.59 26.1385 228.903 25.6531 229.113 25.0391C229.33 24.4251 229.438 23.7264 229.438 22.9428C229.438 22.1592 229.33 21.4604 229.113 20.8464C228.903 20.2324 228.59 19.7471 228.175 19.3904C227.76 19.0337 227.242 18.8554 226.622 18.8554C225.997 18.8554 225.47 19.0337 225.043 19.3904C224.622 19.7471 224.304 20.2324 224.087 20.8464C223.877 21.4604 223.772 22.1592 223.772 22.9428C223.772 23.7264 223.877 24.4251 224.087 25.0391C224.304 25.6531 224.622 26.1385 225.043 26.4952C225.47 26.846 225.997 27.0214 226.622 27.0214ZM235.665 29.6528V16.1801H239.402V29.6528H235.665ZM237.542 14.4434C236.987 14.4434 236.51 14.2592 236.113 13.8908C235.721 13.5166 235.525 13.0692 235.525 12.5488C235.525 12.0342 235.721 11.5927 236.113 11.2243C236.51 10.8501 236.987 10.663 237.542 10.663C238.098 10.663 238.572 10.8501 238.963 11.2243C239.361 11.5927 239.56 12.0342 239.56 12.5488C239.56 13.0692 239.361 13.5166 238.963 13.8908C238.572 14.2592 238.098 14.4434 237.542 14.4434ZM246.132 21.8639V29.6528H242.395V16.1801H245.956V18.5571H246.114C246.412 17.7736 246.912 17.1537 247.614 16.6976C248.316 16.2357 249.167 16.0047 250.167 16.0047C251.102 16.0047 251.918 16.2093 252.614 16.6187C253.31 17.028 253.851 17.6128 254.237 18.3729C254.622 19.1273 254.815 20.0278 254.815 21.0745V29.6528H251.079V21.7411C251.085 20.9166 250.874 20.2734 250.447 19.8114C250.02 19.3436 249.433 19.1097 248.684 19.1097C248.181 19.1097 247.737 19.2179 247.351 19.4343C246.971 19.6506 246.673 19.9664 246.456 20.3816C246.246 20.7909 246.138 21.285 246.132 21.8639ZM268.442 29.8721C267.418 29.8721 266.491 29.609 265.661 29.0827C264.837 28.5506 264.182 27.7699 263.696 26.7408C263.217 25.7057 262.977 24.4368 262.977 22.934C262.977 21.3903 263.226 20.1067 263.723 19.0834C264.22 18.0542 264.88 17.2853 265.705 16.7766C266.535 16.262 267.445 16.0047 268.433 16.0047C269.187 16.0047 269.816 16.1333 270.319 16.3906C270.827 16.6421 271.237 16.9578 271.547 17.3379C271.862 17.7122 272.102 18.0806 272.266 18.4431H272.38V11.6892H276.108V29.6528H272.424V27.4951H272.266C272.091 27.8693 271.842 28.2407 271.52 28.609C271.205 28.9716 270.792 29.2727 270.284 29.5125C269.781 29.7522 269.167 29.8721 268.442 29.8721ZM269.626 26.8986C270.228 26.8986 270.737 26.7349 271.152 26.4074C271.573 26.0741 271.895 25.6093 272.117 25.0128C272.345 24.4164 272.459 23.7176 272.459 22.9165C272.459 22.1154 272.348 21.4195 272.126 20.8289C271.903 20.2383 271.582 19.7822 271.161 19.4606C270.74 19.139 270.228 18.9782 269.626 18.9782C269.012 18.9782 268.494 19.1448 268.073 19.4781C267.652 19.8114 267.334 20.2734 267.117 20.864C266.901 21.4546 266.793 22.1387 266.793 22.9165C266.793 23.7 266.901 24.393 267.117 24.9953C267.339 25.5917 267.658 26.0595 268.073 26.3987C268.494 26.732 269.012 26.8986 269.626 26.8986ZM283.022 29.9072C282.162 29.9072 281.396 29.7581 280.724 29.4599C280.051 29.1558 279.519 28.7085 279.127 28.1179C278.741 27.5214 278.548 26.7788 278.548 25.8899C278.548 25.1415 278.686 24.5128 278.961 24.0041C279.235 23.4954 279.61 23.086 280.083 22.7761C280.557 22.4662 281.095 22.2323 281.697 22.0744C282.305 21.9165 282.943 21.8054 283.609 21.7411C284.393 21.6592 285.025 21.5832 285.504 21.5131C285.984 21.437 286.331 21.3259 286.548 21.1797C286.764 21.0336 286.872 20.8172 286.872 20.5307V20.478C286.872 19.9225 286.697 19.4927 286.346 19.1887C286.001 18.8846 285.51 18.7326 284.872 18.7326C284.2 18.7326 283.665 18.8817 283.267 19.1799C282.87 19.4723 282.607 19.8407 282.478 20.2851L279.022 20.0044C279.197 19.1857 279.542 18.4782 280.057 17.8817C280.572 17.2794 281.235 16.8175 282.048 16.4959C282.867 16.1684 283.814 16.0047 284.89 16.0047C285.639 16.0047 286.355 16.0924 287.039 16.2678C287.729 16.4432 288.34 16.7152 288.872 17.0835C289.41 17.4519 289.834 17.9256 290.144 18.5045C290.454 19.0776 290.609 19.7646 290.609 20.5658V29.6528H287.065V27.7845H286.96C286.744 28.2056 286.454 28.5769 286.092 28.8985C285.729 29.2143 285.294 29.4628 284.785 29.6441C284.276 29.8195 283.688 29.9072 283.022 29.9072ZM284.092 27.3284C284.642 27.3284 285.127 27.2203 285.548 27.0039C285.969 26.7817 286.299 26.4835 286.539 26.1092C286.779 25.735 286.899 25.311 286.899 24.8374V23.4077C286.782 23.4837 286.621 23.5538 286.416 23.6182C286.217 23.6766 285.992 23.7322 285.741 23.7848C285.489 23.8316 285.238 23.8755 284.987 23.9164C284.735 23.9515 284.507 23.9836 284.302 24.0129C283.864 24.0772 283.481 24.1795 283.153 24.3199C282.826 24.4602 282.571 24.6503 282.39 24.89C282.209 25.1239 282.118 25.4163 282.118 25.7671C282.118 26.2759 282.302 26.6647 282.671 26.9337C283.045 27.1969 283.519 27.3284 284.092 27.3284ZM293.508 29.6528V16.1801H297.244V29.6528H293.508ZM295.385 14.4434C294.829 14.4434 294.353 14.2592 293.955 13.8908C293.563 13.5166 293.368 13.0692 293.368 12.5488C293.368 12.0342 293.563 11.5927 293.955 11.2243C294.353 10.8501 294.829 10.663 295.385 10.663C295.94 10.663 296.414 10.8501 296.806 11.2243C297.203 11.5927 297.402 12.0342 297.402 12.5488C297.402 13.0692 297.203 13.5166 296.806 13.8908C296.414 14.2592 295.94 14.4434 295.385 14.4434ZM303.974 11.6892V29.6528H300.238V11.6892H303.974ZM309.274 34.7051C308.801 34.7051 308.356 34.6671 307.941 34.5911C307.532 34.5209 307.193 34.4303 306.924 34.3192L307.766 31.5299C308.204 31.6644 308.599 31.7375 308.95 31.7492C309.306 31.7609 309.613 31.679 309.871 31.5036C310.134 31.3282 310.347 31.0299 310.511 30.6089L310.73 30.0388L305.897 16.1801H309.827L312.616 26.0741H312.756L315.572 16.1801H319.528L314.291 31.1089C314.04 31.834 313.698 32.4655 313.265 33.0035C312.838 33.5473 312.297 33.9654 311.642 34.2578C310.988 34.556 310.198 34.7051 309.274 34.7051Z" fill="#9493F8"/>
</svg>
