<svg width="301" height="62" viewBox="0 0 301 62" fill="none" xmlns="http://www.w3.org/2000/svg">
<path d="M24.2981 29.6528H20.2282L26.4295 11.6892H31.3239L37.5164 29.6528H33.4466L28.9469 15.7942H28.8065L24.2981 29.6528ZM24.0437 22.5919H33.6571V25.5566H24.0437V22.5919ZM50.4804 16.1801L45.7702 29.6528H41.56L36.8498 16.1801H40.7969L43.595 25.8198H43.7353L46.5246 16.1801H50.4804ZM58.0983 29.916C56.7124 29.916 55.5196 29.6353 54.5196 29.0739C53.5255 28.5067 52.7595 27.7056 52.2215 26.6706C51.6836 25.6297 51.4146 24.3988 51.4146 22.9779C51.4146 21.592 51.6836 20.3757 52.2215 19.329C52.7595 18.2823 53.5168 17.4666 54.4933 16.8818C55.4757 16.2971 56.6277 16.0047 57.9492 16.0047C58.838 16.0047 59.6655 16.1479 60.4315 16.4345C61.2034 16.7152 61.8758 17.1391 62.4489 17.7063C63.0278 18.2735 63.4781 18.9869 63.7997 19.8465C64.1213 20.7003 64.2821 21.7002 64.2821 22.8463V23.8725H52.9057V21.5569H60.7648C60.7648 21.0189 60.6478 20.5424 60.4139 20.1272C60.18 19.712 59.8555 19.3875 59.4403 19.1536C59.031 18.9138 58.5544 18.794 58.0106 18.794C57.4434 18.794 56.9405 18.9255 56.5019 19.1887C56.0692 19.446 55.7301 19.7939 55.4845 20.2324C55.2389 20.6652 55.1131 21.1476 55.1073 21.6797V23.8813C55.1073 24.5479 55.2301 25.1239 55.4757 25.6093C55.7271 26.0946 56.0809 26.4688 56.537 26.732C56.9931 26.9951 57.534 27.1267 58.1597 27.1267C58.5749 27.1267 58.955 27.0682 59.3 26.9513C59.645 26.8343 59.9403 26.6589 60.1859 26.425C60.4315 26.1911 60.6186 25.9046 60.7472 25.5654L64.2031 25.7935C64.0277 26.6238 63.6681 27.3489 63.1243 27.9687C62.5863 28.5827 61.8904 29.0622 61.0367 29.4072C60.1888 29.7464 59.2093 29.916 58.0983 29.916ZM66.7205 29.6528V16.1801H70.3431V18.5308H70.4834C70.729 17.6946 71.1412 17.0631 71.7202 16.6362C72.2991 16.2035 72.9657 15.9871 73.72 15.9871C73.9071 15.9871 74.1089 15.9988 74.3252 16.0222C74.5416 16.0456 74.7316 16.0778 74.8954 16.1187V19.4343C74.7199 19.3816 74.4773 19.3349 74.1673 19.2939C73.8574 19.253 73.5738 19.2325 73.3165 19.2325C72.7669 19.2325 72.2757 19.3524 71.843 19.5921C71.4161 19.826 71.0769 20.1535 70.8255 20.5745C70.5799 20.9956 70.4571 21.4809 70.4571 22.0306V29.6528H66.7205ZM80.2831 29.9072C79.4236 29.9072 78.6575 29.7581 77.9851 29.4599C77.3126 29.1558 76.7805 28.7085 76.3887 28.1179C76.0027 27.5214 75.8098 26.7788 75.8098 25.8899C75.8098 25.1415 75.9472 24.5128 76.222 24.0041C76.4969 23.4954 76.8711 23.086 77.3448 22.7761C77.8184 22.4662 78.3564 22.2323 78.9587 22.0744C79.5668 21.9165 80.2042 21.8054 80.8708 21.7411C81.6544 21.6592 82.2859 21.5832 82.7654 21.5131C83.2449 21.437 83.5928 21.3259 83.8092 21.1797C84.0256 21.0336 84.1337 20.8172 84.1337 20.5307V20.478C84.1337 19.9225 83.9583 19.4927 83.6075 19.1887C83.2625 18.8846 82.7713 18.7326 82.1339 18.7326C81.4614 18.7326 80.9264 18.8817 80.5287 19.1799C80.1311 19.4723 79.868 19.8407 79.7393 20.2851L76.2834 20.0044C76.4589 19.1857 76.8039 18.4782 77.3184 17.8817C77.833 17.2794 78.4967 16.8175 79.3095 16.4959C80.1282 16.1684 81.0755 16.0047 82.1514 16.0047C82.8999 16.0047 83.6162 16.0924 84.3004 16.2678C84.9904 16.4432 85.6015 16.7152 86.1336 17.0835C86.6716 17.4519 87.0955 17.9256 87.4054 18.5045C87.7154 19.0776 87.8703 19.7646 87.8703 20.5658V29.6528H84.3267V27.7845H84.2215C84.0051 28.2056 83.7156 28.5769 83.3531 28.8985C82.9906 29.2143 82.5549 29.4628 82.0462 29.6441C81.5374 29.8195 80.9498 29.9072 80.2831 29.9072ZM81.3532 27.3284C81.9029 27.3284 82.3883 27.2203 82.8093 27.0039C83.2303 26.7817 83.5607 26.4835 83.8004 26.1092C84.0402 25.735 84.1601 25.311 84.1601 24.8374V23.4077C84.0431 23.4837 83.8823 23.5538 83.6776 23.6182C83.4788 23.6766 83.2537 23.7322 83.0022 23.7848C82.7508 23.8316 82.4994 23.8755 82.2479 23.9164C81.9965 23.9515 81.7684 23.9836 81.5638 24.0129C81.1252 24.0772 80.7422 24.1795 80.4147 24.3199C80.0872 24.4602 79.8329 24.6503 79.6516 24.89C79.4703 25.1239 79.3797 25.4163 79.3797 25.7671C79.3797 26.2759 79.5639 26.6647 79.9323 26.9337C80.3065 27.1969 80.7802 27.3284 81.3532 27.3284ZM96.839 34.9858C95.6285 34.9858 94.5906 34.8191 93.7252 34.4858C92.8656 34.1584 92.1814 33.711 91.6727 33.1438C91.164 32.5766 90.8336 31.9392 90.6815 31.2317L94.1374 30.7668C94.2427 31.0358 94.4093 31.2872 94.6374 31.5211C94.8654 31.755 95.1666 31.9421 95.5408 32.0825C95.9209 32.2287 96.3829 32.3018 96.9267 32.3018C97.7395 32.3018 98.4091 32.103 98.9353 31.7053C99.4675 31.3135 99.7335 30.6557 99.7335 29.7318V27.267H99.5756C99.4119 27.6413 99.1663 27.9951 98.8388 28.3284C98.5114 28.6617 98.0904 28.9336 97.5758 29.1441C97.0612 29.3546 96.4472 29.4599 95.7338 29.4599C94.7222 29.4599 93.8012 29.226 92.9708 28.7582C92.1463 28.2845 91.4885 27.5623 90.9973 26.5916C90.512 25.6151 90.2693 24.3813 90.2693 22.8902C90.2693 21.3639 90.5178 20.0892 91.0148 19.0659C91.5119 18.0425 92.1727 17.2765 92.9972 16.7678C93.8275 16.259 94.7368 16.0047 95.725 16.0047C96.4794 16.0047 97.1109 16.1333 97.6196 16.3906C98.1284 16.6421 98.5377 16.9578 98.8476 17.3379C99.1634 17.7122 99.4061 18.0806 99.5756 18.4431H99.716V16.1801H103.426V29.7844C103.426 30.9305 103.146 31.8895 102.584 32.6614C102.023 33.4333 101.245 34.0122 100.251 34.3981C99.2628 34.7899 98.1254 34.9858 96.839 34.9858ZM96.9179 26.653C97.5202 26.653 98.029 26.5039 98.4441 26.2057C98.8652 25.9016 99.1868 25.4689 99.409 24.9076C99.637 24.3403 99.7511 23.662 99.7511 22.8726C99.7511 22.0832 99.64 21.399 99.4178 20.8201C99.1955 20.2354 98.8739 19.7822 98.4529 19.4606C98.0319 19.139 97.5202 18.9782 96.9179 18.9782C96.3039 18.9782 95.7864 19.1448 95.3654 19.4781C94.9444 19.8056 94.6257 20.2617 94.4093 20.8464C94.193 21.4312 94.0848 22.1066 94.0848 22.8726C94.0848 23.6503 94.193 24.3228 94.4093 24.89C94.6315 25.4514 94.9502 25.887 95.3654 26.1969C95.7864 26.501 96.3039 26.653 96.9179 26.653ZM112.54 29.916C111.154 29.916 109.961 29.6353 108.961 29.0739C107.967 28.5067 107.201 27.7056 106.663 26.6706C106.125 25.6297 105.856 24.3988 105.856 22.9779C105.856 21.592 106.125 20.3757 106.663 19.329C107.201 18.2823 107.958 17.4666 108.935 16.8818C109.917 16.2971 111.069 16.0047 112.391 16.0047C113.279 16.0047 114.107 16.1479 114.873 16.4345C115.645 16.7152 116.317 17.1391 116.89 17.7063C117.469 18.2735 117.919 18.9869 118.241 19.8465C118.563 20.7003 118.723 21.7002 118.723 22.8463V23.8725H107.347V21.5569H115.206C115.206 21.0189 115.089 20.5424 114.855 20.1272C114.621 19.712 114.297 19.3875 113.882 19.1536C113.472 18.9138 112.996 18.794 112.452 18.794C111.885 18.794 111.382 18.9255 110.943 19.1887C110.511 19.446 110.171 19.7939 109.926 20.2324C109.68 20.6652 109.554 21.1476 109.549 21.6797V23.8813C109.549 24.5479 109.671 25.1239 109.917 25.6093C110.168 26.0946 110.522 26.4688 110.978 26.732C111.434 26.9951 111.975 27.1267 112.601 27.1267C113.016 27.1267 113.396 27.0682 113.741 26.9513C114.086 26.8343 114.382 26.6589 114.627 26.425C114.873 26.1911 115.06 25.9046 115.189 25.5654L118.644 25.7935C118.469 26.6238 118.109 27.3489 117.566 27.9687C117.028 28.5827 116.332 29.0622 115.478 29.4072C114.63 29.7464 113.651 29.916 112.54 29.916ZM135.518 23.9164V16.1801H139.255V29.6528H135.667V27.2056H135.527C135.223 27.9951 134.717 28.6295 134.01 29.109C133.308 29.5885 132.451 29.8283 131.44 29.8283C130.539 29.8283 129.747 29.6236 129.063 29.2143C128.378 28.8049 127.843 28.2231 127.457 27.4688C127.077 26.7144 126.884 25.811 126.879 24.7584V16.1801H130.615V24.0918C130.621 24.8871 130.834 25.5157 131.255 25.9777C131.676 26.4396 132.241 26.6706 132.948 26.6706C133.399 26.6706 133.82 26.5683 134.211 26.3636C134.603 26.1531 134.919 25.8432 135.159 25.4338C135.404 25.0245 135.524 24.5187 135.518 23.9164ZM153.453 20.0219L150.033 20.2324C149.974 19.9401 149.848 19.6769 149.655 19.443C149.462 19.2033 149.208 19.0132 148.892 18.8729C148.582 18.7267 148.211 18.6536 147.778 18.6536C147.199 18.6536 146.711 18.7764 146.314 19.022C145.916 19.2618 145.717 19.5834 145.717 19.9869C145.717 20.3085 145.846 20.5804 146.103 20.8026C146.36 21.0248 146.802 21.2031 147.427 21.3376L149.866 21.8288C151.176 22.0978 152.152 22.5305 152.796 23.127C153.439 23.7234 153.76 24.507 153.76 25.4777C153.76 26.3607 153.5 27.1355 152.98 27.8021C152.465 28.4687 151.758 28.9891 150.857 29.3634C149.962 29.7318 148.93 29.916 147.761 29.916C145.977 29.916 144.556 29.5447 143.498 28.802C142.445 28.0535 141.828 27.0361 141.647 25.7496L145.322 25.5566C145.433 26.1005 145.702 26.5156 146.129 26.8022C146.556 27.0828 147.103 27.2232 147.77 27.2232C148.425 27.2232 148.951 27.0975 149.348 26.846C149.752 26.5887 149.957 26.2583 149.962 25.8549C149.957 25.5157 149.813 25.2379 149.533 25.0216C149.252 24.7994 148.819 24.6298 148.234 24.5128L145.901 24.048C144.586 23.7848 143.606 23.3287 142.963 22.6796C142.326 22.0306 142.007 21.2031 142.007 20.1974C142.007 19.3319 142.241 18.5864 142.709 17.9607C143.182 17.335 143.846 16.8526 144.7 16.5134C145.559 16.1743 146.565 16.0047 147.717 16.0047C149.419 16.0047 150.758 16.3643 151.734 17.0835C152.717 17.8028 153.29 18.7823 153.453 20.0219ZM162.253 29.916C160.867 29.916 159.674 29.6353 158.675 29.0739C157.68 28.5067 156.914 27.7056 156.376 26.6706C155.838 25.6297 155.569 24.3988 155.569 22.9779C155.569 21.592 155.838 20.3757 156.376 19.329C156.914 18.2823 157.672 17.4666 158.648 16.8818C159.631 16.2971 160.783 16.0047 162.104 16.0047C162.993 16.0047 163.82 16.1479 164.586 16.4345C165.358 16.7152 166.031 17.1391 166.604 17.7063C167.183 18.2735 167.633 18.9869 167.955 19.8465C168.276 20.7003 168.437 21.7002 168.437 22.8463V23.8725H157.061V21.5569H164.92C164.92 21.0189 164.803 20.5424 164.569 20.1272C164.335 19.712 164.01 19.3875 163.595 19.1536C163.186 18.9138 162.709 18.794 162.165 18.794C161.598 18.794 161.095 18.9255 160.657 19.1887C160.224 19.446 159.885 19.7939 159.639 20.2324C159.394 20.6652 159.268 21.1476 159.262 21.6797V23.8813C159.262 24.5479 159.385 25.1239 159.631 25.6093C159.882 26.0946 160.236 26.4688 160.692 26.732C161.148 26.9951 161.689 27.1267 162.315 27.1267C162.73 27.1267 163.11 27.0682 163.455 26.9513C163.8 26.8343 164.095 26.6589 164.341 26.425C164.586 26.1911 164.773 25.9046 164.902 25.5654L168.358 25.7935C168.183 26.6238 167.823 27.3489 167.279 27.9687C166.741 28.5827 166.045 29.0622 165.192 29.4072C164.344 29.7464 163.364 29.916 162.253 29.916ZM170.875 29.6528V16.1801H174.498V18.5308H174.638C174.884 17.6946 175.296 17.0631 175.875 16.6362C176.454 16.2035 177.121 15.9871 177.875 15.9871C178.062 15.9871 178.264 15.9988 178.48 16.0222C178.696 16.0456 178.887 16.0778 179.05 16.1187V19.4343C178.875 19.3816 178.632 19.3349 178.322 19.2939C178.012 19.253 177.729 19.2325 177.471 19.2325C176.922 19.2325 176.431 19.3524 175.998 19.5921C175.571 19.826 175.232 20.1535 174.98 20.5745C174.735 20.9956 174.612 21.4809 174.612 22.0306V29.6528H170.875ZM192.192 20.0219L188.771 20.2324C188.713 19.9401 188.587 19.6769 188.394 19.443C188.201 19.2033 187.947 19.0132 187.631 18.8729C187.321 18.7267 186.95 18.6536 186.517 18.6536C185.938 18.6536 185.45 18.7764 185.052 19.022C184.654 19.2618 184.456 19.5834 184.456 19.9869C184.456 20.3085 184.584 20.5804 184.842 20.8026C185.099 21.0248 185.54 21.2031 186.166 21.3376L188.604 21.8288C189.914 22.0978 190.891 22.5305 191.534 23.127C192.177 23.7234 192.499 24.507 192.499 25.4777C192.499 26.3607 192.239 27.1355 191.718 27.8021C191.204 28.4687 190.496 28.9891 189.596 29.3634C188.701 29.7318 187.669 29.916 186.499 29.916C184.716 29.916 183.295 29.5447 182.236 28.802C181.184 28.0535 180.567 27.0361 180.386 25.7496L184.061 25.5566C184.172 26.1005 184.441 26.5156 184.868 26.8022C185.295 27.0828 185.841 27.2232 186.508 27.2232C187.163 27.2232 187.689 27.0975 188.087 26.846C188.49 26.5887 188.695 26.2583 188.701 25.8549C188.695 25.5157 188.552 25.2379 188.271 25.0216C187.99 24.7994 187.558 24.6298 186.973 24.5128L184.64 24.048C183.324 23.7848 182.345 23.3287 181.701 22.6796C181.064 22.0306 180.745 21.2031 180.745 20.1974C180.745 19.3319 180.979 18.5864 181.447 17.9607C181.921 17.335 182.584 16.8526 183.438 16.5134C184.298 16.1743 185.303 16.0047 186.455 16.0047C188.157 16.0047 189.496 16.3643 190.473 17.0835C191.455 17.8028 192.028 18.7823 192.192 20.0219ZM200.568 16.1801H204.305V30.3195C204.305 31.3603 204.1 32.2024 203.691 32.8456C203.282 33.4888 202.694 33.9595 201.928 34.2578C201.168 34.556 200.259 34.7051 199.2 34.7051C199.071 34.7051 198.949 34.7022 198.832 34.6963C198.709 34.6963 198.58 34.6934 198.446 34.6876V31.7667C198.545 31.7726 198.633 31.7755 198.709 31.7755C198.779 31.7813 198.855 31.7843 198.937 31.7843C199.539 31.7843 199.96 31.6556 200.2 31.3983C200.446 31.1469 200.568 30.7668 200.568 30.2581V16.1801ZM202.428 14.4434C201.878 14.4434 201.405 14.2592 201.007 13.8908C200.609 13.5166 200.411 13.0692 200.411 12.5488C200.411 12.0342 200.609 11.5927 201.007 11.2243C201.405 10.8501 201.878 10.663 202.428 10.663C202.989 10.663 203.466 10.8501 203.858 11.2243C204.255 11.5927 204.454 12.0342 204.454 12.5488C204.454 13.0692 204.255 13.5166 203.858 13.8908C203.466 14.2592 202.989 14.4434 202.428 14.4434ZM213.386 29.916C212.023 29.916 210.845 29.6265 209.851 29.0476C208.862 28.4629 208.099 27.6501 207.561 26.6092C207.023 25.5625 206.754 24.3491 206.754 22.9691C206.754 21.5774 207.023 20.3611 207.561 19.3202C208.099 18.2735 208.862 17.4607 209.851 16.8818C210.845 16.2971 212.023 16.0047 213.386 16.0047C214.748 16.0047 215.923 16.2971 216.912 16.8818C217.906 17.4607 218.672 18.2735 219.21 19.3202C219.748 20.3611 220.017 21.5774 220.017 22.9691C220.017 24.3491 219.748 25.5625 219.21 26.6092C218.672 27.6501 217.906 28.4629 216.912 29.0476C215.923 29.6265 214.748 29.916 213.386 29.916ZM213.403 27.0214C214.023 27.0214 214.54 26.846 214.956 26.4952C215.371 26.1385 215.684 25.6531 215.894 25.0391C216.11 24.4251 216.219 23.7264 216.219 22.9428C216.219 22.1592 216.11 21.4604 215.894 20.8464C215.684 20.2324 215.371 19.7471 214.956 19.3904C214.54 19.0337 214.023 18.8554 213.403 18.8554C212.777 18.8554 212.251 19.0337 211.824 19.3904C211.403 19.7471 211.085 20.2324 210.868 20.8464C210.658 21.4604 210.552 22.1592 210.552 22.9428C210.552 23.7264 210.658 24.4251 210.868 25.0391C211.085 25.6531 211.403 26.1385 211.824 26.4952C212.251 26.846 212.777 27.0214 213.403 27.0214ZM222.446 29.6528V16.1801H226.183V29.6528H222.446ZM224.323 14.4434C223.768 14.4434 223.291 14.2592 222.894 13.8908C222.502 13.5166 222.306 13.0692 222.306 12.5488C222.306 12.0342 222.502 11.5927 222.894 11.2243C223.291 10.8501 223.768 10.663 224.323 10.663C224.879 10.663 225.353 10.8501 225.744 11.2243C226.142 11.5927 226.341 12.0342 226.341 12.5488C226.341 13.0692 226.142 13.5166 225.744 13.8908C225.353 14.2592 224.879 14.4434 224.323 14.4434ZM232.913 21.8639V29.6528H229.176V16.1801H232.737V18.5571H232.895C233.193 17.7736 233.693 17.1537 234.395 16.6976C235.097 16.2357 235.948 16.0047 236.947 16.0047C237.883 16.0047 238.699 16.2093 239.395 16.6187C240.091 17.028 240.631 17.6128 241.017 18.3729C241.403 19.1273 241.596 20.0278 241.596 21.0745V29.6528H237.86V21.7411C237.866 20.9166 237.655 20.2734 237.228 19.8114C236.801 19.3436 236.214 19.1097 235.465 19.1097C234.962 19.1097 234.518 19.2179 234.132 19.4343C233.752 19.6506 233.454 19.9664 233.237 20.3816C233.027 20.7909 232.918 21.285 232.913 21.8639ZM244.541 29.6528V16.1801H248.278V29.6528H244.541ZM246.418 14.4434C245.863 14.4434 245.386 14.2592 244.989 13.8908C244.597 13.5166 244.401 13.0692 244.401 12.5488C244.401 12.0342 244.597 11.5927 244.989 11.2243C245.386 10.8501 245.863 10.663 246.418 10.663C246.974 10.663 247.447 10.8501 247.839 11.2243C248.237 11.5927 248.436 12.0342 248.436 12.5488C248.436 13.0692 248.237 13.5166 247.839 13.8908C247.447 14.2592 246.974 14.4434 246.418 14.4434ZM255.008 21.8639V29.6528H251.271V16.1801H254.832V18.5571H254.99C255.288 17.7736 255.788 17.1537 256.49 16.6976C257.192 16.2357 258.042 16.0047 259.042 16.0047C259.978 16.0047 260.794 16.2093 261.49 16.6187C262.185 17.028 262.726 17.6128 263.112 18.3729C263.498 19.1273 263.691 20.0278 263.691 21.0745V29.6528H259.955V21.7411C259.96 20.9166 259.75 20.2734 259.323 19.8114C258.896 19.3436 258.309 19.1097 257.56 19.1097C257.057 19.1097 256.613 19.2179 256.227 19.4343C255.847 19.6506 255.548 19.9664 255.332 20.3816C255.122 20.7909 255.013 21.285 255.008 21.8639ZM272.706 34.9858C271.495 34.9858 270.458 34.8191 269.592 34.4858C268.732 34.1584 268.048 33.711 267.54 33.1438C267.031 32.5766 266.7 31.9392 266.548 31.2317L270.004 30.7668C270.11 31.0358 270.276 31.2872 270.504 31.5211C270.732 31.755 271.033 31.9421 271.408 32.0825C271.788 32.2287 272.25 32.3018 272.794 32.3018C273.606 32.3018 274.276 32.103 274.802 31.7053C275.334 31.3135 275.6 30.6557 275.6 29.7318V27.267H275.443C275.279 27.6413 275.033 27.9951 274.706 28.3284C274.378 28.6617 273.957 28.9336 273.443 29.1441C272.928 29.3546 272.314 29.4599 271.601 29.4599C270.589 29.4599 269.668 29.226 268.838 28.7582C268.013 28.2845 267.355 27.5623 266.864 26.5916C266.379 25.6151 266.136 24.3813 266.136 22.8902C266.136 21.3639 266.385 20.0892 266.882 19.0659C267.379 18.0425 268.04 17.2765 268.864 16.7678C269.694 16.259 270.604 16.0047 271.592 16.0047C272.346 16.0047 272.978 16.1333 273.487 16.3906C273.995 16.6421 274.405 16.9578 274.715 17.3379C275.03 17.7122 275.273 18.0806 275.443 18.4431H275.583V16.1801H279.293V29.7844C279.293 30.9305 279.012 31.8895 278.451 32.6614C277.89 33.4333 277.112 34.0122 276.118 34.3981C275.13 34.7899 273.992 34.9858 272.706 34.9858ZM272.785 26.653C273.387 26.653 273.896 26.5039 274.311 26.2057C274.732 25.9016 275.054 25.4689 275.276 24.9076C275.504 24.3403 275.618 23.662 275.618 22.8726C275.618 22.0832 275.507 21.399 275.285 20.8201C275.062 20.2354 274.741 19.7822 274.32 19.4606C273.899 19.139 273.387 18.9782 272.785 18.9782C272.171 18.9782 271.653 19.1448 271.232 19.4781C270.811 19.8056 270.493 20.2617 270.276 20.8464C270.06 21.4312 269.952 22.1066 269.952 22.8726C269.952 23.6503 270.06 24.3228 270.276 24.89C270.498 25.4514 270.817 25.887 271.232 26.1969C271.653 26.501 272.171 26.653 272.785 26.653ZM106.581 55.7051V37.1801H110.265V39.4431H110.431C110.595 39.0806 110.832 38.7122 111.142 38.3379C111.457 37.9578 111.867 37.6421 112.37 37.3906C112.878 37.1333 113.51 37.0047 114.264 37.0047C115.247 37.0047 116.153 37.262 116.983 37.7766C117.814 38.2853 118.477 39.0542 118.974 40.0834C119.472 41.1067 119.72 42.3903 119.72 43.934C119.72 45.4368 119.477 46.7057 118.992 47.7408C118.513 48.7699 117.858 49.5506 117.027 50.0827C116.203 50.609 115.279 50.8721 114.256 50.8721C113.53 50.8721 112.914 50.7522 112.405 50.5125C111.902 50.2727 111.49 49.9716 111.168 49.609C110.846 49.2407 110.601 48.8693 110.431 48.4951H110.317V55.7051H106.581ZM110.238 43.9165C110.238 44.7176 110.349 45.4164 110.572 46.0128C110.794 46.6093 111.115 47.0741 111.536 47.4074C111.957 47.7349 112.469 47.8986 113.071 47.8986C113.68 47.8986 114.194 47.732 114.615 47.3987C115.036 47.0595 115.355 46.5917 115.571 45.9953C115.793 45.393 115.905 44.7 115.905 43.9165C115.905 43.1387 115.796 42.4546 115.58 41.864C115.364 41.2734 115.045 40.8114 114.624 40.4781C114.203 40.1448 113.685 39.9782 113.071 39.9782C112.463 39.9782 111.949 40.139 111.528 40.4606C111.112 40.7822 110.794 41.2383 110.572 41.8289C110.349 42.4195 110.238 43.1154 110.238 43.9165ZM128.351 50.916C126.965 50.916 125.772 50.6353 124.772 50.0739C123.778 49.5067 123.012 48.7056 122.474 47.6706C121.936 46.6297 121.667 45.3988 121.667 43.9779C121.667 42.592 121.936 41.3757 122.474 40.329C123.012 39.2823 123.769 38.4666 124.746 37.8818C125.728 37.2971 126.88 37.0047 128.202 37.0047C129.091 37.0047 129.918 37.1479 130.684 37.4345C131.456 37.7152 132.129 38.1391 132.702 38.7063C133.28 39.2735 133.731 39.9869 134.052 40.8465C134.374 41.7003 134.535 42.7002 134.535 43.8463V44.8725H123.158V42.5569H131.017C131.017 42.0189 130.901 41.5424 130.667 41.1272C130.433 40.712 130.108 40.3875 129.693 40.1536C129.284 39.9138 128.807 39.794 128.263 39.794C127.696 39.794 127.193 39.9255 126.755 40.1887C126.322 40.446 125.983 40.7939 125.737 41.2324C125.492 41.6652 125.366 42.1476 125.36 42.6797V44.8813C125.36 45.5479 125.483 46.1239 125.728 46.6093C125.98 47.0946 126.334 47.4688 126.79 47.732C127.246 47.9951 127.787 48.1267 128.412 48.1267C128.828 48.1267 129.208 48.0682 129.553 47.9513C129.898 47.8343 130.193 47.6589 130.439 47.425C130.684 47.1911 130.871 46.9046 131 46.5654L134.456 46.7935C134.28 47.6238 133.921 48.3489 133.377 48.9687C132.839 49.5827 132.143 50.0622 131.289 50.4072C130.442 50.7464 129.462 50.916 128.351 50.916ZM136.973 50.6528V37.1801H140.596V39.5308H140.736C140.982 38.6946 141.394 38.0631 141.973 37.6362C142.552 37.2035 143.218 36.9871 143.973 36.9871C144.16 36.9871 144.362 36.9988 144.578 37.0222C144.794 37.0456 144.984 37.0778 145.148 37.1187V40.4343C144.973 40.3816 144.73 40.3349 144.42 40.2939C144.11 40.253 143.827 40.2325 143.569 40.2325C143.02 40.2325 142.528 40.3524 142.096 40.5921C141.669 40.826 141.33 41.1535 141.078 41.5745C140.833 41.9956 140.71 42.4809 140.71 43.0306V50.6528H136.973ZM157.761 50.8721C156.738 50.8721 155.811 50.609 154.981 50.0827C154.156 49.5506 153.501 48.7699 153.016 47.7408C152.536 46.7057 152.297 45.4368 152.297 43.934C152.297 42.3903 152.545 41.1067 153.042 40.0834C153.539 39.0542 154.2 38.2853 155.025 37.7766C155.855 37.262 156.764 37.0047 157.752 37.0047C158.507 37.0047 159.135 37.1333 159.638 37.3906C160.147 37.6421 160.556 37.9578 160.866 38.3379C161.182 38.7122 161.422 39.0806 161.585 39.4431H161.7V32.6892H165.427V50.6528H161.743V48.4951H161.585C161.41 48.8693 161.162 49.2407 160.84 49.609C160.524 49.9716 160.112 50.2727 159.603 50.5125C159.1 50.7522 158.486 50.8721 157.761 50.8721ZM158.945 47.8986C159.548 47.8986 160.056 47.7349 160.472 47.4074C160.893 47.0741 161.214 46.6093 161.436 46.0128C161.664 45.4164 161.778 44.7176 161.778 43.9165C161.778 43.1154 161.667 42.4195 161.445 41.8289C161.223 41.2383 160.901 40.7822 160.48 40.4606C160.059 40.139 159.548 39.9782 158.945 39.9782C158.331 39.9782 157.814 40.1448 157.393 40.4781C156.972 40.8114 156.653 41.2734 156.437 41.864C156.22 42.4546 156.112 43.1387 156.112 43.9165C156.112 44.7 156.22 45.393 156.437 45.9953C156.659 46.5917 156.978 47.0595 157.393 47.3987C157.814 47.732 158.331 47.8986 158.945 47.8986ZM172.341 50.9072C171.482 50.9072 170.716 50.7581 170.043 50.4599C169.371 50.1558 168.839 49.7085 168.447 49.1179C168.061 48.5214 167.868 47.7788 167.868 46.8899C167.868 46.1415 168.005 45.5128 168.28 45.0041C168.555 44.4954 168.929 44.086 169.403 43.7761C169.877 43.4662 170.415 43.2323 171.017 43.0744C171.625 42.9165 172.262 42.8054 172.929 42.7411C173.713 42.6592 174.344 42.5832 174.824 42.5131C175.303 42.437 175.651 42.3259 175.867 42.1797C176.084 42.0336 176.192 41.8172 176.192 41.5307V41.478C176.192 40.9225 176.016 40.4927 175.666 40.1887C175.321 39.8846 174.829 39.7326 174.192 39.7326C173.52 39.7326 172.985 39.8817 172.587 40.1799C172.189 40.4723 171.926 40.8407 171.797 41.2851L168.342 41.0044C168.517 40.1857 168.862 39.4782 169.377 38.8817C169.891 38.2794 170.555 37.8175 171.368 37.4959C172.186 37.1684 173.134 37.0047 174.21 37.0047C174.958 37.0047 175.674 37.0924 176.359 37.2678C177.049 37.4432 177.66 37.7152 178.192 38.0835C178.73 38.4519 179.154 38.9256 179.464 39.5045C179.774 40.0776 179.928 40.7646 179.928 41.5658V50.6528H176.385V48.7845H176.28C176.063 49.2056 175.774 49.5769 175.411 49.8985C175.049 50.2143 174.613 50.4628 174.104 50.6441C173.596 50.8195 173.008 50.9072 172.341 50.9072ZM173.411 48.3284C173.961 48.3284 174.446 48.2203 174.867 48.0039C175.288 47.7817 175.619 47.4835 175.859 47.1092C176.098 46.735 176.218 46.311 176.218 45.8374V44.4077C176.101 44.4837 175.94 44.5538 175.736 44.6182C175.537 44.6766 175.312 44.7322 175.06 44.7848C174.809 44.8316 174.558 44.8755 174.306 44.9164C174.055 44.9515 173.827 44.9836 173.622 45.0129C173.183 45.0772 172.8 45.1795 172.473 45.3199C172.145 45.4602 171.891 45.6503 171.71 45.89C171.528 46.1239 171.438 46.4163 171.438 46.7671C171.438 47.2759 171.622 47.6647 171.99 47.9337C172.365 48.1969 172.838 48.3284 173.411 48.3284ZM184.652 55.7051C184.178 55.7051 183.734 55.6671 183.319 55.5911C182.909 55.5209 182.57 55.4303 182.301 55.3192L183.143 52.5299C183.582 52.6644 183.976 52.7375 184.327 52.7492C184.684 52.7609 184.991 52.679 185.248 52.5036C185.511 52.3282 185.725 52.0299 185.889 51.6089L186.108 51.0388L181.275 37.1801H185.204L187.994 47.0741H188.134L190.95 37.1801H194.905L189.669 52.1089C189.418 52.834 189.075 53.4655 188.643 54.0035C188.216 54.5473 187.675 54.9654 187.02 55.2578C186.365 55.556 185.576 55.7051 184.652 55.7051Z" fill="#9493F8"/>
</svg>
