<svg width="300" height="41" viewBox="0 0 300 41" fill="none" xmlns="http://www.w3.org/2000/svg">
<path d="M63.0613 29V11.0364H70.2538C71.5753 11.0364 72.6776 11.2323 73.5605 11.624C74.4435 12.0158 75.1072 12.5596 75.5516 13.2555C75.996 13.9455 76.2183 14.7408 76.2183 15.6413C76.2183 16.343 76.0779 16.9599 75.7972 17.492C75.5165 18.0183 75.1306 18.451 74.6394 18.7902C74.1541 19.1235 73.5986 19.3603 72.9729 19.5007V19.6761C73.657 19.7053 74.2973 19.8983 74.8938 20.255C75.4961 20.6117 75.9844 21.1117 76.3586 21.7549C76.7328 22.3923 76.92 23.1525 76.92 24.0354C76.92 24.9886 76.6831 25.8394 76.2095 26.5879C75.7417 27.3305 75.0487 27.9182 74.1307 28.3509C73.2126 28.7836 72.0811 29 70.7362 29H63.0613ZM66.8593 25.895H69.9555C71.0139 25.895 71.7858 25.6932 72.2712 25.2897C72.7565 24.8804 72.9992 24.3366 72.9992 23.6583C72.9992 23.1612 72.8793 22.7227 72.6396 22.3426C72.3998 21.9625 72.0577 21.6643 71.6133 21.4479C71.1748 21.2315 70.6514 21.1234 70.0433 21.1234H66.8593V25.895ZM66.8593 18.5534H69.6749C70.1953 18.5534 70.6572 18.4627 71.0607 18.2815C71.4701 18.0943 71.7917 17.8312 72.0256 17.492C72.2653 17.1529 72.3852 16.7465 72.3852 16.2728C72.3852 15.6238 72.1542 15.1004 71.6923 14.7028C71.2362 14.3051 70.5871 14.1063 69.745 14.1063H66.8593V18.5534ZM85.4084 29.2631C84.0459 29.2631 82.8676 28.9737 81.8736 28.3948C80.8853 27.81 80.1222 26.9972 79.5842 25.9564C79.0463 24.9096 78.7773 23.6963 78.7773 22.3163C78.7773 20.9245 79.0463 19.7083 79.5842 18.6674C80.1222 17.6207 80.8853 16.8079 81.8736 16.229C82.8676 15.6442 84.0459 15.3518 85.4084 15.3518C86.7709 15.3518 87.9462 15.6442 88.9345 16.229C89.9285 16.8079 90.6946 17.6207 91.2325 18.6674C91.7705 19.7083 92.0395 20.9245 92.0395 22.3163C92.0395 23.6963 91.7705 24.9096 91.2325 25.9564C90.6946 26.9972 89.9285 27.81 88.9345 28.3948C87.9462 28.9737 86.7709 29.2631 85.4084 29.2631ZM85.4259 26.3686C86.0458 26.3686 86.5633 26.1932 86.9785 25.8423C87.3936 25.4856 87.7065 25.0003 87.917 24.3863C88.1333 23.7723 88.2415 23.0735 88.2415 22.2899C88.2415 21.5064 88.1333 20.8076 87.917 20.1936C87.7065 19.5796 87.3936 19.0943 86.9785 18.7376C86.5633 18.3809 86.0458 18.2025 85.4259 18.2025C84.8002 18.2025 84.274 18.3809 83.8471 18.7376C83.4261 19.0943 83.1074 19.5796 82.891 20.1936C82.6805 20.8076 82.5753 21.5064 82.5753 22.2899C82.5753 23.0735 82.6805 23.7723 82.891 24.3863C83.1074 25.0003 83.4261 25.4856 83.8471 25.8423C84.274 26.1932 84.8002 26.3686 85.4259 26.3686ZM101.635 15.5273V18.3341H93.5218V15.5273H101.635ZM95.3638 12.2994H99.1004V24.8599C99.1004 25.2049 99.153 25.4739 99.2583 25.6669C99.3635 25.854 99.5097 25.9856 99.6968 26.0616C99.8898 26.1376 100.112 26.1756 100.363 26.1756C100.539 26.1756 100.714 26.161 100.89 26.1318C101.065 26.0967 101.2 26.0704 101.293 26.0528L101.881 28.8333C101.694 28.8918 101.431 28.9591 101.091 29.0351C100.752 29.117 100.34 29.1667 99.8547 29.1842C98.9542 29.2193 98.1648 29.0994 97.4865 28.8246C96.814 28.5497 96.2907 28.1229 95.9164 27.544C95.5422 26.9651 95.358 26.2341 95.3638 25.3511V12.2994ZM111.236 15.5273V18.3341H103.122V15.5273H111.236ZM104.964 12.2994H108.701V24.8599C108.701 25.2049 108.753 25.4739 108.858 25.6669C108.964 25.854 109.11 25.9856 109.297 26.0616C109.49 26.1376 109.712 26.1756 109.964 26.1756C110.139 26.1756 110.315 26.161 110.49 26.1318C110.665 26.0967 110.8 26.0704 110.893 26.0528L111.481 28.8333C111.294 28.8918 111.031 28.9591 110.692 29.0351C110.353 29.117 109.94 29.1667 109.455 29.1842C108.554 29.2193 107.765 29.0994 107.087 28.8246C106.414 28.5497 105.891 28.1229 105.517 27.544C105.142 26.9651 104.958 26.2341 104.964 25.3511V12.2994ZM117.696 11.0364V29H113.959V11.0364H117.696ZM126.829 29.2631C125.443 29.2631 124.25 28.9825 123.25 28.4211C122.256 27.8539 121.49 27.0528 120.952 26.0178C120.414 24.9769 120.145 23.746 120.145 22.325C120.145 20.9392 120.414 19.7229 120.952 18.6762C121.49 17.6295 122.247 16.8137 123.224 16.229C124.206 15.6442 125.358 15.3518 126.68 15.3518C127.568 15.3518 128.396 15.4951 129.162 15.7816C129.934 16.0623 130.606 16.4863 131.179 17.0535C131.758 17.6207 132.208 18.3341 132.53 19.1937C132.852 20.0474 133.012 21.0473 133.012 22.1935V23.2197H121.636V20.9041H129.495C129.495 20.3661 129.378 19.8895 129.144 19.4744C128.91 19.0592 128.586 18.7346 128.171 18.5007C127.761 18.261 127.285 18.1411 126.741 18.1411C126.174 18.1411 125.671 18.2727 125.232 18.5358C124.8 18.7931 124.46 19.1411 124.215 19.5796C123.969 20.0123 123.844 20.4948 123.838 21.0269V23.2285C123.838 23.8951 123.96 24.4711 124.206 24.9564C124.458 25.4418 124.811 25.816 125.267 26.0792C125.724 26.3423 126.264 26.4739 126.89 26.4739C127.305 26.4739 127.685 26.4154 128.03 26.2984C128.375 26.1815 128.671 26.0061 128.916 25.7722C129.162 25.5383 129.349 25.2517 129.478 24.9126L132.934 25.1406C132.758 25.971 132.398 26.6961 131.855 27.3159C131.317 27.9299 130.621 28.4094 129.767 28.7544C128.919 29.0936 127.94 29.2631 126.829 29.2631ZM146.661 19.3691L143.24 19.5796C143.181 19.2872 143.056 19.0241 142.863 18.7902C142.67 18.5504 142.415 18.3604 142.1 18.2201C141.79 18.0739 141.418 18.0008 140.986 18.0008C140.407 18.0008 139.918 18.1236 139.521 18.3692C139.123 18.6089 138.924 18.9305 138.924 19.334C138.924 19.6556 139.053 19.9275 139.31 20.1498C139.568 20.372 140.009 20.5503 140.635 20.6848L143.073 21.176C144.383 21.445 145.36 21.8777 146.003 22.4741C146.646 23.0706 146.968 23.8542 146.968 24.8249C146.968 25.7078 146.707 26.4826 146.187 27.1493C145.672 27.8159 144.965 28.3363 144.064 28.7105C143.17 29.0789 142.138 29.2631 140.968 29.2631C139.185 29.2631 137.764 28.8918 136.705 28.1492C135.653 27.4007 135.036 26.3832 134.854 25.0968L138.53 24.9038C138.641 25.4476 138.91 25.8628 139.337 26.1493C139.763 26.43 140.31 26.5703 140.977 26.5703C141.632 26.5703 142.158 26.4446 142.556 26.1932C142.959 25.9359 143.164 25.6055 143.17 25.202C143.164 24.8629 143.021 24.5851 142.74 24.3687C142.459 24.1465 142.026 23.977 141.442 23.86L139.109 23.3951C137.793 23.132 136.813 22.6759 136.17 22.0268C135.533 21.3777 135.214 20.5503 135.214 19.5445C135.214 18.6791 135.448 17.9335 135.916 17.3078C136.389 16.6822 137.053 16.1997 137.907 15.8606C138.766 15.5214 139.772 15.3518 140.924 15.3518C142.626 15.3518 143.965 15.7115 144.941 16.4307C145.924 17.15 146.497 18.1294 146.661 19.3691ZM160.546 29.2631C159.306 29.2631 158.236 29.0409 157.335 28.5965C156.435 28.1521 155.742 27.5498 155.257 26.7896C154.777 26.0236 154.537 25.1699 154.537 24.2284C154.537 23.5267 154.678 22.9039 154.958 22.3601C155.239 21.8163 155.631 21.3163 156.134 20.8602C156.637 20.3983 157.221 19.9392 157.888 19.4831L161.37 17.1938C161.82 16.9073 162.151 16.6061 162.361 16.2904C162.572 15.9688 162.677 15.6208 162.677 15.2466C162.677 14.8899 162.534 14.5595 162.247 14.2554C161.961 13.9514 161.554 13.8022 161.028 13.8081C160.677 13.8081 160.373 13.887 160.116 14.0449C159.859 14.197 159.657 14.3987 159.511 14.6501C159.37 14.8957 159.3 15.1706 159.3 15.4746C159.3 15.8489 159.405 16.229 159.616 16.6149C159.826 17.0009 160.107 17.4102 160.458 17.8429C160.809 18.2698 161.192 18.7317 161.607 19.2288L170.124 29H166.229L159.125 21.0883C158.657 20.5562 158.189 20.0006 157.721 19.4217C157.259 18.837 156.873 18.2171 156.563 17.5622C156.254 16.9014 156.099 16.1851 156.099 15.4132C156.099 14.542 156.3 13.7584 156.704 13.0625C157.113 12.3667 157.686 11.817 158.423 11.4135C159.16 11.0042 160.019 10.7995 161.002 10.7995C161.961 10.7995 162.788 10.9954 163.484 11.3872C164.186 11.7732 164.724 12.2877 165.098 12.931C165.478 13.5683 165.668 14.2701 165.668 15.0361C165.668 15.884 165.458 16.6529 165.037 17.3429C164.621 18.0271 164.037 18.6411 163.282 19.1849L159.616 21.8251C159.119 22.1876 158.75 22.5589 158.511 22.939C158.277 23.3133 158.16 23.6729 158.16 24.0179C158.16 24.4448 158.265 24.8278 158.476 25.1669C158.686 25.5061 158.984 25.7751 159.37 25.9739C159.756 26.1669 160.209 26.2634 160.73 26.2634C161.361 26.2634 161.984 26.1201 162.598 25.8336C163.218 25.5412 163.779 25.1289 164.282 24.5968C164.791 24.0588 165.197 23.4214 165.501 22.6847C165.805 21.9479 165.957 21.1321 165.957 20.2375H169.054C169.054 21.3368 168.934 22.328 168.694 23.2109C168.454 24.0881 168.121 24.8541 167.694 25.509C167.267 26.1581 166.779 26.6902 166.229 27.1054C166.054 27.2165 165.884 27.3218 165.721 27.4212C165.557 27.5206 165.387 27.6258 165.212 27.7369C164.545 28.2749 163.8 28.6638 162.975 28.9035C162.157 29.1433 161.347 29.2631 160.546 29.2631ZM193.317 17.3254H189.476C189.405 16.8283 189.262 16.3869 189.046 16.0009C188.829 15.6091 188.552 15.2758 188.212 15.001C187.873 14.7262 187.482 14.5156 187.037 14.3695C186.599 14.2233 186.122 14.1502 185.607 14.1502C184.678 14.1502 183.868 14.3812 183.178 14.8431C182.488 15.2992 181.953 15.9658 181.573 16.843C181.193 17.7143 181.002 18.7727 181.002 20.0182C181.002 21.2988 181.193 22.3747 181.573 23.246C181.959 24.1173 182.497 24.7752 183.187 25.2196C183.877 25.664 184.675 25.8862 185.581 25.8862C186.09 25.8862 186.561 25.8189 186.993 25.6844C187.432 25.55 187.821 25.3541 188.16 25.0968C188.499 24.8336 188.78 24.5149 189.002 24.1407C189.23 23.7665 189.388 23.3396 189.476 22.8601L193.317 22.8776C193.218 23.7021 192.969 24.4974 192.572 25.2634C192.18 26.0236 191.651 26.7048 190.984 27.3071C190.323 27.9036 189.534 28.3772 188.616 28.7281C187.704 29.0731 186.672 29.2456 185.52 29.2456C183.917 29.2456 182.485 28.883 181.222 28.158C179.965 27.4329 178.97 26.3832 178.24 25.0091C177.514 23.6349 177.152 21.9713 177.152 20.0182C177.152 18.0593 177.52 16.3927 178.257 15.0185C178.994 13.6444 179.994 12.5977 181.257 11.8784C182.52 11.1533 183.941 10.7908 185.52 10.7908C186.561 10.7908 187.525 10.937 188.414 11.2293C189.309 11.5217 190.101 11.9486 190.791 12.5099C191.481 13.0655 192.043 13.7467 192.475 14.5537C192.914 15.3606 193.195 16.2845 193.317 17.3254ZM199.813 29.2544C198.953 29.2544 198.187 29.1053 197.514 28.807C196.842 28.503 196.31 28.0556 195.918 27.465C195.532 26.8686 195.339 26.1259 195.339 25.2371C195.339 24.4886 195.477 23.86 195.751 23.3513C196.026 22.8425 196.401 22.4332 196.874 22.1233C197.348 21.8134 197.886 21.5795 198.488 21.4216C199.096 21.2637 199.734 21.1526 200.4 21.0883C201.184 21.0064 201.815 20.9304 202.295 20.8602C202.774 20.7842 203.122 20.6731 203.339 20.5269C203.555 20.3807 203.663 20.1644 203.663 19.8778V19.8252C203.663 19.2697 203.488 18.8399 203.137 18.5358C202.792 18.2318 202.301 18.0797 201.663 18.0797C200.991 18.0797 200.456 18.2288 200.058 18.5271C199.661 18.8194 199.397 19.1878 199.269 19.6322L195.813 19.3516C195.988 18.5329 196.333 17.8254 196.848 17.2289C197.362 16.6266 198.026 16.1647 198.839 15.843C199.658 15.5156 200.605 15.3518 201.681 15.3518C202.429 15.3518 203.146 15.4396 203.83 15.615C204.52 15.7904 205.131 16.0623 205.663 16.4307C206.201 16.7991 206.625 17.2728 206.935 17.8517C207.245 18.4247 207.4 19.1118 207.4 19.9129V29H203.856V27.1317H203.751C203.535 27.5527 203.245 27.9241 202.883 28.2457C202.52 28.5614 202.084 28.81 201.576 28.9912C201.067 29.1667 200.479 29.2544 199.813 29.2544ZM200.883 26.6756C201.432 26.6756 201.918 26.5674 202.339 26.3511C202.76 26.1289 203.09 25.8306 203.33 25.4564C203.57 25.0821 203.689 24.6582 203.689 24.1846V22.7548C203.573 22.8308 203.412 22.901 203.207 22.9653C203.008 23.0238 202.783 23.0794 202.532 23.132C202.28 23.1788 202.029 23.2226 201.777 23.2636C201.526 23.2987 201.298 23.3308 201.093 23.36C200.655 23.4244 200.272 23.5267 199.944 23.667C199.617 23.8074 199.362 23.9974 199.181 24.2372C199 24.4711 198.909 24.7635 198.909 25.1143C198.909 25.623 199.093 26.0119 199.462 26.2809C199.836 26.544 200.31 26.6756 200.883 26.6756ZM214.035 21.2111V29H210.299V15.5273H213.86V17.9043H214.018C214.316 17.1207 214.816 16.5009 215.518 16.0448C216.219 15.5828 217.07 15.3518 218.07 15.3518C219.006 15.3518 219.821 15.5565 220.517 15.9658C221.213 16.3752 221.754 16.9599 222.14 17.7201C222.526 18.4744 222.719 19.375 222.719 20.4217V29H218.982V21.0883C218.988 20.2638 218.778 19.6205 218.351 19.1586C217.924 18.6908 217.336 18.4569 216.588 18.4569C216.085 18.4569 215.64 18.5651 215.254 18.7814C214.874 18.9978 214.576 19.3136 214.36 19.7287C214.149 20.1381 214.041 20.6322 214.035 21.2111ZM236.874 19.3691L233.453 19.5796C233.394 19.2872 233.268 19.0241 233.076 18.7902C232.883 18.5504 232.628 18.3604 232.312 18.2201C232.003 18.0739 231.631 18.0008 231.198 18.0008C230.62 18.0008 230.131 18.1236 229.734 18.3692C229.336 18.6089 229.137 18.9305 229.137 19.334C229.137 19.6556 229.266 19.9275 229.523 20.1498C229.78 20.372 230.222 20.5503 230.848 20.6848L233.286 21.176C234.596 21.445 235.572 21.8777 236.216 22.4741C236.859 23.0706 237.181 23.8542 237.181 24.8249C237.181 25.7078 236.92 26.4826 236.4 27.1493C235.885 27.8159 235.178 28.3363 234.277 28.7105C233.383 29.0789 232.35 29.2631 231.181 29.2631C229.397 29.2631 227.976 28.8918 226.918 28.1492C225.866 27.4007 225.249 26.3832 225.067 25.0968L228.743 24.9038C228.854 25.4476 229.123 25.8628 229.549 26.1493C229.976 26.43 230.523 26.5703 231.19 26.5703C231.845 26.5703 232.371 26.4446 232.769 26.1932C233.172 25.9359 233.377 25.6055 233.383 25.202C233.377 24.8629 233.233 24.5851 232.953 24.3687C232.672 24.1465 232.239 23.977 231.655 23.86L229.321 23.3951C228.006 23.132 227.026 22.6759 226.383 22.0268C225.746 21.3777 225.427 20.5503 225.427 19.5445C225.427 18.6791 225.661 17.9335 226.129 17.3078C226.602 16.6822 227.266 16.1997 228.12 15.8606C228.979 15.5214 229.985 15.3518 231.137 15.3518C232.839 15.3518 234.178 15.7115 235.154 16.4307C236.137 17.15 236.71 18.1294 236.874 19.3691Z" fill="#9493F8"/>
</svg>
