<svg width="232" height="232" viewBox="0 0 232 232" fill="none" xmlns="http://www.w3.org/2000/svg">
<rect x="0.278564" y="0.643555" width="230.77" height="230.767" rx="15" fill="#9493F8"/>
<rect x="47.1345" y="114.02" width="63.1387" height="40.1021" stroke="white" stroke-width="5"/>
<path d="M86.9199 94.7974L111.931 94.7974" stroke="white" stroke-width="5.5"/>
<mask id="path-4-inside-1_211_9" fill="white">
<path fill-rule="evenodd" clip-rule="evenodd" d="M65.9281 48.8038C65.9281 45.9986 68.2021 43.7246 71.0072 43.7246H86.3998C89.2049 43.7246 91.4789 45.9986 91.4789 48.8038V55.176C91.4789 56.4331 91.9456 57.6411 92.7769 58.584C102.157 69.224 112.773 84.0344 112.773 96.5676C112.773 96.6705 112.773 96.7734 112.772 96.8762C112.772 96.8765 112.772 96.8768 112.773 96.8768C112.773 96.8768 112.773 96.8771 112.773 96.8774V196.999C112.773 199.804 110.499 202.078 107.694 202.078H49.7137C46.9085 202.078 44.6345 199.804 44.6345 196.999V96.8772C44.6345 96.877 44.6347 96.8768 44.6349 96.8768C44.6351 96.8768 44.6352 96.8766 44.6352 96.8764C44.6346 96.7736 44.6343 96.6706 44.6343 96.5676C44.6343 84.0345 55.2501 69.2243 64.6301 58.5844C65.4615 57.6414 65.9281 56.4335 65.9281 55.1764V48.8038Z"/>
</mask>
<path d="M44.6352 96.8764L50.1351 96.8421L44.6352 96.8764ZM112.772 96.8762L107.272 96.842L112.772 96.8762ZM86.3998 38.2246H71.0072V49.2246H86.3998V38.2246ZM96.9789 55.176V48.8038H85.9789V55.176H96.9789ZM88.6512 62.2212C93.2113 67.3937 97.9567 73.4545 101.535 79.6247C105.17 85.895 107.273 91.725 107.273 96.5676H118.273C118.273 88.8769 115.068 81.0352 111.051 74.1069C106.975 67.0787 101.723 60.4143 96.9026 54.9469L88.6512 62.2212ZM107.273 96.5676C107.273 96.6592 107.273 96.7507 107.272 96.842L118.272 96.9104C118.273 96.7962 118.273 96.6819 118.273 96.5676H107.273ZM118.273 196.999V96.8774H107.273V196.999H118.273ZM49.7137 207.578H107.694V196.578H49.7137V207.578ZM39.1345 96.8772V196.999H50.1345V96.8772H39.1345ZM50.1351 96.8421C50.1346 96.7507 50.1343 96.6592 50.1343 96.5676H39.1343C39.1343 96.682 39.1346 96.7964 39.1353 96.9107L50.1351 96.8421ZM50.1343 96.5676C50.1343 91.7251 52.237 85.8951 55.8727 79.625C59.4504 73.4548 64.1958 67.394 68.7558 62.2216L60.5045 54.9473C55.6844 60.4147 50.4319 67.0791 46.3567 74.1072C42.3395 81.0354 39.1343 88.877 39.1343 96.5676H50.1343ZM60.4281 48.8038V55.1764H71.4281V48.8038H60.4281ZM44.6349 102.377C47.6859 102.377 50.1542 99.8934 50.1351 96.8421L39.1353 96.9107C39.1163 93.8599 41.5843 91.3768 44.6349 91.3768V102.377ZM50.1345 96.8772C50.1345 99.9145 47.6722 102.377 44.6349 102.377V91.3768C41.5971 91.3768 39.1345 93.8394 39.1345 96.8772H50.1345ZM49.7137 196.578C49.9461 196.578 50.1345 196.767 50.1345 196.999H39.1345C39.1345 202.842 43.871 207.578 49.7137 207.578V196.578ZM107.273 196.999C107.273 196.767 107.462 196.578 107.694 196.578V207.578C113.537 207.578 118.273 202.842 118.273 196.999H107.273ZM107.272 96.842C107.253 99.8931 109.721 102.377 112.773 102.377V91.3768C115.823 91.3768 118.291 93.8599 118.272 96.9104L107.272 96.842ZM85.9789 55.176C85.9789 57.8025 86.9544 60.2964 88.6512 62.2212L96.9026 54.9469C96.9368 54.9857 96.9789 55.0636 96.9789 55.176H85.9789ZM71.0072 38.2246C65.1646 38.2246 60.4281 42.961 60.4281 48.8038H71.4281C71.4281 49.0362 71.2397 49.2246 71.0072 49.2246V38.2246ZM112.773 102.377C109.752 102.377 107.273 99.9308 107.273 96.8774H118.273C118.273 93.8233 115.794 91.3768 112.773 91.3768V102.377ZM68.7558 62.2216C70.4526 60.2968 71.4281 57.8029 71.4281 55.1764H60.4281C60.4281 55.064 60.4703 54.986 60.5045 54.9473L68.7558 62.2216ZM86.3998 49.2246C86.1673 49.2246 85.9789 49.0362 85.9789 48.8038H96.9789C96.9789 42.9611 92.2425 38.2246 86.3998 38.2246V49.2246Z" fill="white" mask="url(#path-4-inside-1_211_9)"/>
<mask id="path-6-inside-2_211_9" fill="white">
<rect x="59.9741" y="29.9761" width="36.6096" height="19.0387" rx="3.04748"/>
</mask>
<rect x="59.9741" y="29.9761" width="36.6096" height="19.0387" rx="3.04748" fill="#9493F8" stroke="white" stroke-width="11" mask="url(#path-6-inside-2_211_9)"/>
<path d="M180.99 89.5365C180.871 89.2814 180.697 89.069 180.502 88.8797V84.902C180.502 82.3972 178.465 80.3604 175.961 80.3604H133.492C130.987 80.3604 128.95 82.3972 128.95 84.902V88.8786C128.755 89.0682 128.581 89.2808 128.461 89.5365L124.032 99.0579C123.2 100.845 122.76 102.832 122.76 104.805V181.812C122.76 184.342 123.62 186.832 125.183 188.821L128.734 193.345C128.744 193.358 128.76 193.362 128.77 193.374L130.997 200.572C131.32 201.475 132.176 202.078 133.135 202.078H176.318C177.277 202.078 178.133 201.475 178.455 200.572L180.682 193.375C180.693 193.363 180.709 193.358 180.72 193.345L184.27 188.821C185.832 186.832 186.693 184.342 186.693 181.814V104.805C186.693 102.836 186.253 100.849 185.421 99.0579L180.99 89.5365ZM133.492 84.902H175.961V88.2237H133.492V84.902ZM174.718 197.536H134.735L133.896 194.219H175.557L174.718 197.536ZM182.151 181.814C182.151 183.331 181.634 184.823 180.697 186.018L177.829 189.673H131.625L128.755 186.018C127.818 184.823 127.302 183.331 127.302 181.812V174.147H182.151V181.814ZM182.151 169.606H127.302V112.835H182.151V169.606ZM182.151 108.293H127.302V104.805C127.302 103.49 127.594 102.166 128.15 100.974L131.969 92.7654H177.483L181.303 100.973C181.857 102.167 182.151 103.492 182.151 104.805V108.293Z" fill="white" stroke="white" stroke-width="0.3"/>
</svg>
