<svg width="300" height="41" viewBox="0 0 300 41" fill="none" xmlns="http://www.w3.org/2000/svg">
<path d="M108.061 29V11.0364H115.254C116.575 11.0364 117.678 11.2323 118.561 11.624C119.444 12.0158 120.107 12.5596 120.552 13.2555C120.996 13.9455 121.218 14.7408 121.218 15.6413C121.218 16.343 121.078 16.9599 120.797 17.492C120.517 18.0183 120.131 18.451 119.639 18.7902C119.154 19.1235 118.599 19.3603 117.973 19.5007V19.6761C118.657 19.7053 119.297 19.8983 119.894 20.255C120.496 20.6117 120.984 21.1117 121.359 21.7549C121.733 22.3923 121.92 23.1525 121.92 24.0354C121.92 24.9886 121.683 25.8394 121.209 26.5879C120.742 27.3305 120.049 27.9182 119.131 28.3509C118.213 28.7836 117.081 29 115.736 29H108.061ZM111.859 25.895H114.956C116.014 25.895 116.786 25.6932 117.271 25.2897C117.757 24.8804 117.999 24.3366 117.999 23.6583C117.999 23.1612 117.879 22.7227 117.64 22.3426C117.4 21.9625 117.058 21.6643 116.613 21.4479C116.175 21.2315 115.651 21.1234 115.043 21.1234H111.859V25.895ZM111.859 18.5534H114.675C115.195 18.5534 115.657 18.4627 116.061 18.2815C116.47 18.0943 116.792 17.8312 117.026 17.492C117.265 17.1529 117.385 16.7465 117.385 16.2728C117.385 15.6238 117.154 15.1004 116.692 14.7028C116.236 14.3051 115.587 14.1063 114.745 14.1063H111.859V18.5534ZM130.408 29.2631C129.046 29.2631 127.868 28.9737 126.874 28.3948C125.885 27.81 125.122 26.9972 124.584 25.9564C124.046 24.9096 123.777 23.6963 123.777 22.3163C123.777 20.9245 124.046 19.7083 124.584 18.6674C125.122 17.6207 125.885 16.8079 126.874 16.229C127.868 15.6442 129.046 15.3518 130.408 15.3518C131.771 15.3518 132.946 15.6442 133.934 16.229C134.929 16.8079 135.695 17.6207 136.233 18.6674C136.771 19.7083 137.039 20.9245 137.039 22.3163C137.039 23.6963 136.771 24.9096 136.233 25.9564C135.695 26.9972 134.929 27.81 133.934 28.3948C132.946 28.9737 131.771 29.2631 130.408 29.2631ZM130.426 26.3686C131.046 26.3686 131.563 26.1932 131.978 25.8423C132.394 25.4856 132.706 25.0003 132.917 24.3863C133.133 23.7723 133.242 23.0735 133.242 22.2899C133.242 21.5064 133.133 20.8076 132.917 20.1936C132.706 19.5796 132.394 19.0943 131.978 18.7376C131.563 18.3809 131.046 18.2025 130.426 18.2025C129.8 18.2025 129.274 18.3809 128.847 18.7376C128.426 19.0943 128.107 19.5796 127.891 20.1936C127.681 20.8076 127.575 21.5064 127.575 22.2899C127.575 23.0735 127.681 23.7723 127.891 24.3863C128.107 25.0003 128.426 25.4856 128.847 25.8423C129.274 26.1932 129.8 26.3686 130.426 26.3686ZM146.635 15.5273V18.3341H138.522V15.5273H146.635ZM140.364 12.2994H144.1V24.8599C144.1 25.2049 144.153 25.4739 144.258 25.6669C144.364 25.854 144.51 25.9856 144.697 26.0616C144.89 26.1376 145.112 26.1756 145.363 26.1756C145.539 26.1756 145.714 26.161 145.89 26.1318C146.065 26.0967 146.2 26.0704 146.293 26.0528L146.881 28.8333C146.694 28.8918 146.431 28.9591 146.091 29.0351C145.752 29.117 145.34 29.1667 144.855 29.1842C143.954 29.2193 143.165 29.0994 142.486 28.8246C141.814 28.5497 141.291 28.1229 140.916 27.544C140.542 26.9651 140.358 26.2341 140.364 25.3511V12.2994ZM156.236 15.5273V18.3341H148.122V15.5273H156.236ZM149.964 12.2994H153.701V24.8599C153.701 25.2049 153.753 25.4739 153.858 25.6669C153.964 25.854 154.11 25.9856 154.297 26.0616C154.49 26.1376 154.712 26.1756 154.964 26.1756C155.139 26.1756 155.315 26.161 155.49 26.1318C155.665 26.0967 155.8 26.0704 155.893 26.0528L156.481 28.8333C156.294 28.8918 156.031 28.9591 155.692 29.0351C155.353 29.117 154.94 29.1667 154.455 29.1842C153.554 29.2193 152.765 29.0994 152.087 28.8246C151.414 28.5497 150.891 28.1229 150.517 27.544C150.142 26.9651 149.958 26.2341 149.964 25.3511V12.2994ZM162.696 11.0364V29H158.959V11.0364H162.696ZM171.829 29.2631C170.443 29.2631 169.25 28.9825 168.25 28.4211C167.256 27.8539 166.49 27.0528 165.952 26.0178C165.414 24.9769 165.145 23.746 165.145 22.325C165.145 20.9392 165.414 19.7229 165.952 18.6762C166.49 17.6295 167.247 16.8137 168.224 16.229C169.206 15.6442 170.358 15.3518 171.68 15.3518C172.568 15.3518 173.396 15.4951 174.162 15.7816C174.934 16.0623 175.606 16.4863 176.179 17.0535C176.758 17.6207 177.208 18.3341 177.53 19.1937C177.852 20.0474 178.012 21.0473 178.012 22.1935V23.2197H166.636V20.9041H174.495C174.495 20.3661 174.378 19.8895 174.144 19.4744C173.91 19.0592 173.586 18.7346 173.171 18.5007C172.761 18.261 172.285 18.1411 171.741 18.1411C171.174 18.1411 170.671 18.2727 170.232 18.5358C169.8 18.7931 169.46 19.1411 169.215 19.5796C168.969 20.0123 168.844 20.4948 168.838 21.0269V23.2285C168.838 23.8951 168.96 24.4711 169.206 24.9564C169.458 25.4418 169.811 25.816 170.267 26.0792C170.724 26.3423 171.264 26.4739 171.89 26.4739C172.305 26.4739 172.685 26.4154 173.03 26.2984C173.375 26.1815 173.671 26.0061 173.916 25.7722C174.162 25.5383 174.349 25.2517 174.478 24.9126L177.934 25.1406C177.758 25.971 177.398 26.6961 176.855 27.3159C176.317 27.9299 175.621 28.4094 174.767 28.7544C173.919 29.0936 172.94 29.2631 171.829 29.2631ZM191.661 19.3691L188.24 19.5796C188.181 19.2872 188.056 19.0241 187.863 18.7902C187.67 18.5504 187.415 18.3604 187.1 18.2201C186.79 18.0739 186.418 18.0008 185.986 18.0008C185.407 18.0008 184.918 18.1236 184.521 18.3692C184.123 18.6089 183.924 18.9305 183.924 19.334C183.924 19.6556 184.053 19.9275 184.31 20.1498C184.568 20.372 185.009 20.5503 185.635 20.6848L188.073 21.176C189.383 21.445 190.36 21.8777 191.003 22.4741C191.646 23.0706 191.968 23.8542 191.968 24.8249C191.968 25.7078 191.707 26.4826 191.187 27.1493C190.672 27.8159 189.965 28.3363 189.064 28.7105C188.17 29.0789 187.138 29.2631 185.968 29.2631C184.185 29.2631 182.764 28.8918 181.705 28.1492C180.653 27.4007 180.036 26.3832 179.854 25.0968L183.53 24.9038C183.641 25.4476 183.91 25.8628 184.337 26.1493C184.763 26.43 185.31 26.5703 185.977 26.5703C186.632 26.5703 187.158 26.4446 187.556 26.1932C187.959 25.9359 188.164 25.6055 188.17 25.202C188.164 24.8629 188.021 24.5851 187.74 24.3687C187.459 24.1465 187.026 23.977 186.442 23.86L184.109 23.3951C182.793 23.132 181.813 22.6759 181.17 22.0268C180.533 21.3777 180.214 20.5503 180.214 19.5445C180.214 18.6791 180.448 17.9335 180.916 17.3078C181.389 16.6822 182.053 16.1997 182.907 15.8606C183.766 15.5214 184.772 15.3518 185.924 15.3518C187.626 15.3518 188.965 15.7115 189.941 16.4307C190.924 17.15 191.497 18.1294 191.661 19.3691Z" fill="#9493F8"/>
</svg>
