<svg width="121" height="41" viewBox="0 0 121 41" fill="none" xmlns="http://www.w3.org/2000/svg">
<path d="M18.5613 29V11.0364H25.7538C27.0753 11.0364 28.1776 11.2323 29.0605 11.624C29.9435 12.0158 30.6072 12.5596 31.0516 13.2555C31.496 13.9455 31.7183 14.7408 31.7183 15.6413C31.7183 16.343 31.5779 16.9599 31.2972 17.492C31.0165 18.0183 30.6306 18.451 30.1394 18.7902C29.6541 19.1235 29.0986 19.3603 28.4729 19.5007V19.6761C29.157 19.7053 29.7973 19.8983 30.3938 20.255C30.9961 20.6117 31.4844 21.1117 31.8586 21.7549C32.2328 22.3923 32.42 23.1525 32.42 24.0354C32.42 24.9886 32.1831 25.8394 31.7095 26.5879C31.2417 27.3305 30.5487 27.9182 29.6307 28.3509C28.7126 28.7836 27.5811 29 26.2362 29H18.5613ZM22.3593 25.895H25.4555C26.5139 25.895 27.2858 25.6932 27.7712 25.2897C28.2565 24.8804 28.4992 24.3366 28.4992 23.6583C28.4992 23.1612 28.3793 22.7227 28.1396 22.3426C27.8998 21.9625 27.5577 21.6643 27.1133 21.4479C26.6748 21.2315 26.1514 21.1234 25.5433 21.1234H22.3593V25.895ZM22.3593 18.5534H25.1749C25.6953 18.5534 26.1572 18.4627 26.5607 18.2815C26.9701 18.0943 27.2917 17.8312 27.5256 17.492C27.7653 17.1529 27.8852 16.7465 27.8852 16.2728C27.8852 15.6238 27.6542 15.1004 27.1923 14.7028C26.7362 14.3051 26.0871 14.1063 25.245 14.1063H22.3593V18.5534ZM40.9084 29.2631C39.5459 29.2631 38.3676 28.9737 37.3736 28.3948C36.3853 27.81 35.6222 26.9972 35.0842 25.9564C34.5463 24.9096 34.2773 23.6963 34.2773 22.3163C34.2773 20.9245 34.5463 19.7083 35.0842 18.6674C35.6222 17.6207 36.3853 16.8079 37.3736 16.229C38.3676 15.6442 39.5459 15.3518 40.9084 15.3518C42.2709 15.3518 43.4462 15.6442 44.4345 16.229C45.4285 16.8079 46.1946 17.6207 46.7325 18.6674C47.2705 19.7083 47.5395 20.9245 47.5395 22.3163C47.5395 23.6963 47.2705 24.9096 46.7325 25.9564C46.1946 26.9972 45.4285 27.81 44.4345 28.3948C43.4462 28.9737 42.2709 29.2631 40.9084 29.2631ZM40.9259 26.3686C41.5458 26.3686 42.0633 26.1932 42.4785 25.8423C42.8936 25.4856 43.2065 25.0003 43.417 24.3863C43.6333 23.7723 43.7415 23.0735 43.7415 22.2899C43.7415 21.5064 43.6333 20.8076 43.417 20.1936C43.2065 19.5796 42.8936 19.0943 42.4785 18.7376C42.0633 18.3809 41.5458 18.2025 40.9259 18.2025C40.3002 18.2025 39.774 18.3809 39.3471 18.7376C38.9261 19.0943 38.6074 19.5796 38.391 20.1936C38.1805 20.8076 38.0753 21.5064 38.0753 22.2899C38.0753 23.0735 38.1805 23.7723 38.391 24.3863C38.6074 25.0003 38.9261 25.4856 39.3471 25.8423C39.774 26.1932 40.3002 26.3686 40.9259 26.3686ZM57.1353 15.5273V18.3341H49.0218V15.5273H57.1353ZM50.8638 12.2994H54.6004V24.8599C54.6004 25.2049 54.653 25.4739 54.7583 25.6669C54.8635 25.854 55.0097 25.9856 55.1968 26.0616C55.3898 26.1376 55.612 26.1756 55.8635 26.1756C56.0389 26.1756 56.2143 26.161 56.3897 26.1318C56.5652 26.0967 56.6997 26.0704 56.7932 26.0528L57.3809 28.8333C57.1938 28.8918 56.9306 28.9591 56.5915 29.0351C56.2523 29.117 55.8401 29.1667 55.3547 29.1842C54.4542 29.2193 53.6648 29.0994 52.9865 28.8246C52.314 28.5497 51.7907 28.1229 51.4164 27.544C51.0422 26.9651 50.858 26.2341 50.8638 25.3511V12.2994ZM66.7355 15.5273V18.3341H58.622V15.5273H66.7355ZM60.464 12.2994H64.2006V24.8599C64.2006 25.2049 64.2532 25.4739 64.3585 25.6669C64.4637 25.854 64.6099 25.9856 64.797 26.0616C64.99 26.1376 65.2122 26.1756 65.4637 26.1756C65.6391 26.1756 65.8145 26.161 65.9899 26.1318C66.1654 26.0967 66.2999 26.0704 66.3934 26.0528L66.9811 28.8333C66.794 28.8918 66.5308 28.9591 66.1917 29.0351C65.8525 29.117 65.4403 29.1667 64.9549 29.1842C64.0544 29.2193 63.265 29.0994 62.5867 28.8246C61.9142 28.5497 61.3909 28.1229 61.0166 27.544C60.6424 26.9651 60.4582 26.2341 60.464 25.3511V12.2994ZM73.1956 11.0364V29H69.459V11.0364H73.1956ZM82.3287 29.2631C80.9428 29.2631 79.7499 28.9825 78.75 28.4211C77.7559 27.8539 76.9899 27.0528 76.4519 26.0178C75.9139 24.9769 75.645 23.746 75.645 22.325C75.645 20.9392 75.9139 19.7229 76.4519 18.6762C76.9899 17.6295 77.7471 16.8137 78.7237 16.229C79.7061 15.6442 80.858 15.3518 82.1796 15.3518C83.0684 15.3518 83.8958 15.4951 84.6619 15.7816C85.4337 16.0623 86.1062 16.4863 86.6793 17.0535C87.2582 17.6207 87.7084 18.3341 88.03 19.1937C88.3517 20.0474 88.5125 21.0473 88.5125 22.1935V23.2197H77.1361V20.9041H84.9952C84.9952 20.3661 84.8782 19.8895 84.6443 19.4744C84.4104 19.0592 84.0859 18.7346 83.6707 18.5007C83.2614 18.261 82.7848 18.1411 82.241 18.1411C81.6738 18.1411 81.1709 18.2727 80.7323 18.5358C80.2996 18.7931 79.9604 19.1411 79.7148 19.5796C79.4692 20.0123 79.3435 20.4948 79.3377 21.0269V23.2285C79.3377 23.8951 79.4605 24.4711 79.7061 24.9564C79.9575 25.4418 80.3113 25.816 80.7674 26.0792C81.2235 26.3423 81.7644 26.4739 82.3901 26.4739C82.8053 26.4739 83.1854 26.4154 83.5304 26.2984C83.8754 26.1815 84.1707 26.0061 84.4163 25.7722C84.6619 25.5383 84.849 25.2517 84.9776 24.9126L88.4335 25.1406C88.2581 25.971 87.8985 26.6961 87.3547 27.3159C86.8167 27.9299 86.1208 28.4094 85.2671 28.7544C84.4192 29.0936 83.4397 29.2631 82.3287 29.2631ZM102.161 19.3691L98.7398 19.5796C98.6813 19.2872 98.5556 19.0241 98.3626 18.7902C98.1697 18.5504 97.9153 18.3604 97.5995 18.2201C97.2896 18.0739 96.9183 18.0008 96.4856 18.0008C95.9067 18.0008 95.4184 18.1236 95.0208 18.3692C94.6231 18.6089 94.4243 18.9305 94.4243 19.334C94.4243 19.6556 94.553 19.9275 94.8103 20.1498C95.0676 20.372 95.509 20.5503 96.1347 20.6848L98.5732 21.176C99.883 21.445 100.86 21.8777 101.503 22.4741C102.146 23.0706 102.468 23.8542 102.468 24.8249C102.468 25.7078 102.207 26.4826 101.687 27.1493C101.172 27.8159 100.465 28.3363 99.5643 28.7105C98.6696 29.0789 97.6376 29.2631 96.468 29.2631C94.6845 29.2631 93.2636 28.8918 92.2052 28.1492C91.1526 27.4007 90.5357 26.3832 90.3544 25.0968L94.0296 24.9038C94.1407 25.4476 94.4097 25.8628 94.8366 26.1493C95.2635 26.43 95.8102 26.5703 96.4768 26.5703C97.1317 26.5703 97.658 26.4446 98.0557 26.1932C98.4591 25.9359 98.6638 25.6055 98.6696 25.202C98.6638 24.8629 98.5205 24.5851 98.2398 24.3687C97.9592 24.1465 97.5264 23.977 96.9417 23.86L94.6085 23.3951C93.2928 23.132 92.3134 22.6759 91.6701 22.0268C91.0328 21.3777 90.7141 20.5503 90.7141 19.5445C90.7141 18.6791 90.948 17.9335 91.4158 17.3078C91.8894 16.6822 92.5531 16.1997 93.4069 15.8606C94.2664 15.5214 95.2722 15.3518 96.4242 15.3518C98.1258 15.3518 99.4649 15.7115 100.441 16.4307C101.424 17.15 101.997 18.1294 102.161 19.3691Z" fill="#9493F8"/>
</svg>
