<svg width="231" height="232" viewBox="0 0 231 232" fill="none" xmlns="http://www.w3.org/2000/svg">
<rect x="0.196594" y="0.879883" width="230.77" height="230.767" rx="15" fill="#8AADE5"/>
<rect x="79.2772" y="114.326" width="71.4052" height="45.2357" stroke="white" stroke-width="6"/>
<path d="M124.313 95.4072C122.656 95.4072 121.313 94.0641 121.313 92.4072C121.313 90.7504 122.656 89.4072 124.313 89.4072V95.4072ZM150.084 89.4072H153.084V95.4072H150.084V89.4072ZM124.313 89.4072H150.084V95.4072H124.313V89.4072Z" fill="white"/>
<mask id="path-4-inside-1_47_285" fill="white">
<path fill-rule="evenodd" clip-rule="evenodd" d="M100.467 39.9128C100.467 36.8186 102.975 34.3102 106.069 34.3102H123.89C126.984 34.3102 129.492 36.8186 129.492 39.9128V47.3834C129.492 48.7701 130.007 50.1026 130.924 51.1425C141.59 63.2328 153.682 80.0831 153.682 94.3396C153.682 94.4565 153.682 94.5733 153.681 94.69C153.681 94.6903 153.681 94.6906 153.682 94.6906C153.682 94.6906 153.683 94.6909 153.683 94.6913V208.596C153.683 211.691 151.174 214.199 148.08 214.199H81.8799C78.7856 214.199 76.2773 211.691 76.2773 208.596V94.6911C76.2773 94.6908 76.2774 94.6906 76.2777 94.6906C76.2779 94.6906 76.2781 94.6904 76.2781 94.6902C76.2774 94.5734 76.277 94.4566 76.277 94.3396C76.277 80.0833 88.3686 63.2331 99.0347 51.1428C99.952 50.1029 100.467 48.7704 100.467 47.3837V39.9128Z"/>
</mask>
<path d="M76.2781 94.6902L82.278 94.6528L76.2781 94.6902ZM153.681 94.69L147.681 94.6524L153.681 94.69ZM130.924 51.1425L126.425 55.1118L130.924 51.1425ZM123.89 28.3102H106.069V40.3102H123.89V28.3102ZM135.492 47.3834V39.9128H123.492V47.3834H135.492ZM126.425 55.1118C131.616 60.9963 137.029 67.9024 141.114 74.9405C145.262 82.0881 147.682 88.7666 147.682 94.3396H159.682C159.682 85.6561 156.057 76.7813 151.492 68.917C146.865 60.9432 140.899 53.379 135.424 47.1731L126.425 55.1118ZM147.682 94.3396C147.682 94.4443 147.682 94.5486 147.681 94.6524L159.681 94.7275C159.682 94.598 159.682 94.4687 159.682 94.3396H147.682ZM159.683 208.596V94.6913H147.683V208.596H159.683ZM81.8799 220.199H148.08V208.199H81.8799V220.199ZM70.2773 94.6911V208.596H82.2773V94.6911H70.2773ZM82.278 94.6528C82.2773 94.5485 82.277 94.4441 82.277 94.3396H70.277C70.277 94.469 70.2774 94.5984 70.2782 94.7276L82.278 94.6528ZM82.277 94.3396C82.277 88.7667 84.6972 82.0882 88.8454 74.9407C92.9301 67.9026 98.3428 60.9966 103.534 55.1121L94.5353 47.1735C89.0605 53.3793 83.0944 60.9435 78.4667 68.9172C73.9026 76.7814 70.277 85.6562 70.277 94.3396H82.277ZM94.4667 39.9128V47.3837H106.467V39.9128H94.4667ZM76.2777 100.691C79.606 100.691 82.2987 97.9815 82.278 94.6528L70.2782 94.7276C70.2575 91.3994 72.9498 88.6906 76.2777 88.6906V100.691ZM82.2773 94.6911C82.2773 98.0045 79.5912 100.691 76.2777 100.691V88.6906C72.9637 88.6906 70.2773 91.3771 70.2773 94.6911H82.2773ZM81.8799 208.199C82.0993 208.199 82.2773 208.377 82.2773 208.596H70.2773C70.2773 215.004 75.4719 220.199 81.8799 220.199V208.199ZM147.683 208.596C147.683 208.377 147.86 208.199 148.08 208.199V220.199C154.488 220.199 159.683 215.004 159.683 208.596H147.683ZM147.681 94.6524C147.661 97.9813 150.353 100.691 153.682 100.691V88.6906C157.01 88.6906 159.702 91.3993 159.681 94.7275L147.681 94.6524ZM123.492 47.3834C123.492 50.2636 124.562 52.9999 126.425 55.1118L135.424 47.1731C135.452 47.2053 135.492 47.2765 135.492 47.3834H123.492ZM106.069 28.3102C99.6614 28.3102 94.4667 33.5049 94.4667 39.9128H106.467C106.467 40.1323 106.289 40.3102 106.069 40.3102V28.3102ZM153.682 100.691C150.404 100.691 147.683 98.0401 147.683 94.6913H159.683C159.683 91.3417 156.96 88.6906 153.682 88.6906V100.691ZM103.534 55.1121C105.397 53.0002 106.467 50.2639 106.467 47.3837H94.4667C94.4667 47.2768 94.5069 47.2056 94.5353 47.1735L103.534 55.1121ZM123.89 40.3102C123.67 40.3102 123.492 40.1323 123.492 39.9128H135.492C135.492 33.5049 130.298 28.3102 123.89 28.3102V40.3102Z" fill="white" mask="url(#path-4-inside-1_47_285)"/>
<mask id="path-6-inside-2_47_285" fill="white">
<rect x="93.7029" y="18.3281" width="41.5883" height="22.7871" rx="3.36158"/>
</mask>
<rect x="93.7029" y="18.3281" width="41.5883" height="22.7871" rx="3.36158" fill="#8AADE5" stroke="white" stroke-width="12" mask="url(#path-6-inside-2_47_285)"/>
</svg>
