<svg width="211" height="41" viewBox="0 0 211 41" fill="none" xmlns="http://www.w3.org/2000/svg">
<path d="M18.5613 29V11.0364H25.7538C27.0753 11.0364 28.1776 11.2323 29.0605 11.624C29.9435 12.0158 30.6072 12.5596 31.0516 13.2555C31.496 13.9455 31.7183 14.7408 31.7183 15.6413C31.7183 16.343 31.5779 16.9599 31.2972 17.492C31.0165 18.0183 30.6306 18.451 30.1394 18.7902C29.6541 19.1235 29.0986 19.3603 28.4729 19.5007V19.6761C29.157 19.7053 29.7973 19.8983 30.3938 20.255C30.9961 20.6117 31.4844 21.1117 31.8586 21.7549C32.2328 22.3923 32.42 23.1525 32.42 24.0354C32.42 24.9886 32.1831 25.8394 31.7095 26.5879C31.2417 27.3305 30.5487 27.9182 29.6307 28.3509C28.7126 28.7836 27.5811 29 26.2362 29H18.5613ZM22.3593 25.895H25.4555C26.5139 25.895 27.2858 25.6932 27.7712 25.2897C28.2565 24.8804 28.4992 24.3366 28.4992 23.6583C28.4992 23.1612 28.3793 22.7227 28.1396 22.3426C27.8998 21.9625 27.5577 21.6643 27.1133 21.4479C26.6748 21.2315 26.1514 21.1234 25.5433 21.1234H22.3593V25.895ZM22.3593 18.5534H25.1749C25.6953 18.5534 26.1572 18.4627 26.5607 18.2815C26.9701 18.0943 27.2917 17.8312 27.5256 17.492C27.7653 17.1529 27.8852 16.7465 27.8852 16.2728C27.8852 15.6238 27.6542 15.1004 27.1923 14.7028C26.7362 14.3051 26.0871 14.1063 25.245 14.1063H22.3593V18.5534ZM40.9084 29.2631C39.5459 29.2631 38.3676 28.9737 37.3736 28.3948C36.3853 27.81 35.6222 26.9972 35.0842 25.9564C34.5463 24.9096 34.2773 23.6963 34.2773 22.3163C34.2773 20.9245 34.5463 19.7083 35.0842 18.6674C35.6222 17.6207 36.3853 16.8079 37.3736 16.229C38.3676 15.6442 39.5459 15.3518 40.9084 15.3518C42.2709 15.3518 43.4462 15.6442 44.4345 16.229C45.4285 16.8079 46.1946 17.6207 46.7325 18.6674C47.2705 19.7083 47.5395 20.9245 47.5395 22.3163C47.5395 23.6963 47.2705 24.9096 46.7325 25.9564C46.1946 26.9972 45.4285 27.81 44.4345 28.3948C43.4462 28.9737 42.2709 29.2631 40.9084 29.2631ZM40.9259 26.3686C41.5458 26.3686 42.0633 26.1932 42.4785 25.8423C42.8936 25.4856 43.2065 25.0003 43.417 24.3863C43.6333 23.7723 43.7415 23.0735 43.7415 22.2899C43.7415 21.5064 43.6333 20.8076 43.417 20.1936C43.2065 19.5796 42.8936 19.0943 42.4785 18.7376C42.0633 18.3809 41.5458 18.2025 40.9259 18.2025C40.3002 18.2025 39.774 18.3809 39.3471 18.7376C38.9261 19.0943 38.6074 19.5796 38.391 20.1936C38.1805 20.8076 38.0753 21.5064 38.0753 22.2899C38.0753 23.0735 38.1805 23.7723 38.391 24.3863C38.6074 25.0003 38.9261 25.4856 39.3471 25.8423C39.774 26.1932 40.3002 26.3686 40.9259 26.3686ZM57.1353 15.5273V18.3341H49.0218V15.5273H57.1353ZM50.8638 12.2994H54.6004V24.8599C54.6004 25.2049 54.653 25.4739 54.7583 25.6669C54.8635 25.854 55.0097 25.9856 55.1968 26.0616C55.3898 26.1376 55.612 26.1756 55.8635 26.1756C56.0389 26.1756 56.2143 26.161 56.3897 26.1318C56.5652 26.0967 56.6997 26.0704 56.7932 26.0528L57.3809 28.8333C57.1938 28.8918 56.9306 28.9591 56.5915 29.0351C56.2523 29.117 55.8401 29.1667 55.3547 29.1842C54.4542 29.2193 53.6648 29.0994 52.9865 28.8246C52.314 28.5497 51.7907 28.1229 51.4164 27.544C51.0422 26.9651 50.858 26.2341 50.8638 25.3511V12.2994ZM66.7355 15.5273V18.3341H58.622V15.5273H66.7355ZM60.464 12.2994H64.2006V24.8599C64.2006 25.2049 64.2532 25.4739 64.3585 25.6669C64.4637 25.854 64.6099 25.9856 64.797 26.0616C64.99 26.1376 65.2122 26.1756 65.4637 26.1756C65.6391 26.1756 65.8145 26.161 65.9899 26.1318C66.1654 26.0967 66.2999 26.0704 66.3934 26.0528L66.9811 28.8333C66.794 28.8918 66.5308 28.9591 66.1917 29.0351C65.8525 29.117 65.4403 29.1667 64.9549 29.1842C64.0544 29.2193 63.265 29.0994 62.5867 28.8246C61.9142 28.5497 61.3909 28.1229 61.0166 27.544C60.6424 26.9651 60.4582 26.2341 60.464 25.3511V12.2994ZM73.1956 11.0364V29H69.459V11.0364H73.1956ZM82.3287 29.2631C80.9428 29.2631 79.7499 28.9825 78.75 28.4211C77.7559 27.8539 76.9899 27.0528 76.4519 26.0178C75.9139 24.9769 75.645 23.746 75.645 22.325C75.645 20.9392 75.9139 19.7229 76.4519 18.6762C76.9899 17.6295 77.7471 16.8137 78.7237 16.229C79.7061 15.6442 80.858 15.3518 82.1796 15.3518C83.0684 15.3518 83.8958 15.4951 84.6619 15.7816C85.4337 16.0623 86.1062 16.4863 86.6793 17.0535C87.2582 17.6207 87.7084 18.3341 88.03 19.1937C88.3517 20.0474 88.5125 21.0473 88.5125 22.1935V23.2197H77.1361V20.9041H84.9952C84.9952 20.3661 84.8782 19.8895 84.6443 19.4744C84.4104 19.0592 84.0859 18.7346 83.6707 18.5007C83.2614 18.261 82.7848 18.1411 82.241 18.1411C81.6738 18.1411 81.1709 18.2727 80.7323 18.5358C80.2996 18.7931 79.9604 19.1411 79.7148 19.5796C79.4692 20.0123 79.3435 20.4948 79.3377 21.0269V23.2285C79.3377 23.8951 79.4605 24.4711 79.7061 24.9564C79.9575 25.4418 80.3113 25.816 80.7674 26.0792C81.2235 26.3423 81.7644 26.4739 82.3901 26.4739C82.8053 26.4739 83.1854 26.4154 83.5304 26.2984C83.8754 26.1815 84.1707 26.0061 84.4163 25.7722C84.6619 25.5383 84.849 25.2517 84.9776 24.9126L88.4335 25.1406C88.2581 25.971 87.8985 26.6961 87.3547 27.3159C86.8167 27.9299 86.1208 28.4094 85.2671 28.7544C84.4192 29.0936 83.4397 29.2631 82.3287 29.2631ZM102.161 19.3691L98.7398 19.5796C98.6813 19.2872 98.5556 19.0241 98.3626 18.7902C98.1697 18.5504 97.9153 18.3604 97.5995 18.2201C97.2896 18.0739 96.9183 18.0008 96.4856 18.0008C95.9067 18.0008 95.4184 18.1236 95.0208 18.3692C94.6231 18.6089 94.4243 18.9305 94.4243 19.334C94.4243 19.6556 94.553 19.9275 94.8103 20.1498C95.0676 20.372 95.509 20.5503 96.1347 20.6848L98.5732 21.176C99.883 21.445 100.86 21.8777 101.503 22.4741C102.146 23.0706 102.468 23.8542 102.468 24.8249C102.468 25.7078 102.207 26.4826 101.687 27.1493C101.172 27.8159 100.465 28.3363 99.5643 28.7105C98.6696 29.0789 97.6376 29.2631 96.468 29.2631C94.6845 29.2631 93.2636 28.8918 92.2052 28.1492C91.1526 27.4007 90.5357 26.3832 90.3544 25.0968L94.0296 24.9038C94.1407 25.4476 94.4097 25.8628 94.8366 26.1493C95.2635 26.43 95.8102 26.5703 96.4768 26.5703C97.1317 26.5703 97.658 26.4446 98.0557 26.1932C98.4591 25.9359 98.6638 25.6055 98.6696 25.202C98.6638 24.8629 98.5205 24.5851 98.2398 24.3687C97.9592 24.1465 97.5264 23.977 96.9417 23.86L94.6085 23.3951C93.2928 23.132 92.3134 22.6759 91.6701 22.0268C91.0328 21.3777 90.7141 20.5503 90.7141 19.5445C90.7141 18.6791 90.948 17.9335 91.4158 17.3078C91.8894 16.6822 92.5531 16.1997 93.4069 15.8606C94.2664 15.5214 95.2722 15.3518 96.4242 15.3518C98.1258 15.3518 99.4649 15.7115 100.441 16.4307C101.424 17.15 101.997 18.1294 102.161 19.3691ZM116.046 29.2631C114.806 29.2631 113.736 29.0409 112.835 28.5965C111.935 28.1521 111.242 27.5498 110.757 26.7896C110.277 26.0236 110.037 25.1699 110.037 24.2284C110.037 23.5267 110.178 22.9039 110.458 22.3601C110.739 21.8163 111.131 21.3163 111.634 20.8602C112.137 20.3983 112.721 19.9392 113.388 19.4831L116.87 17.1938C117.32 16.9073 117.651 16.6061 117.861 16.2904C118.072 15.9688 118.177 15.6208 118.177 15.2466C118.177 14.8899 118.034 14.5595 117.747 14.2554C117.461 13.9514 117.054 13.8022 116.528 13.8081C116.177 13.8081 115.873 13.887 115.616 14.0449C115.359 14.197 115.157 14.3987 115.011 14.6501C114.87 14.8957 114.8 15.1706 114.8 15.4746C114.8 15.8489 114.905 16.229 115.116 16.6149C115.326 17.0009 115.607 17.4102 115.958 17.8429C116.309 18.2698 116.692 18.7317 117.107 19.2288L125.624 29H121.729L114.625 21.0883C114.157 20.5562 113.689 20.0006 113.221 19.4217C112.759 18.837 112.373 18.2171 112.063 17.5622C111.754 16.9014 111.599 16.1851 111.599 15.4132C111.599 14.542 111.8 13.7584 112.204 13.0625C112.613 12.3667 113.186 11.817 113.923 11.4135C114.66 11.0042 115.519 10.7995 116.502 10.7995C117.461 10.7995 118.288 10.9954 118.984 11.3872C119.686 11.7732 120.224 12.2877 120.598 12.931C120.978 13.5683 121.168 14.2701 121.168 15.0361C121.168 15.884 120.958 16.6529 120.537 17.3429C120.121 18.0271 119.537 18.6411 118.782 19.1849L115.116 21.8251C114.619 22.1876 114.25 22.5589 114.011 22.939C113.777 23.3133 113.66 23.6729 113.66 24.0179C113.66 24.4448 113.765 24.8278 113.976 25.1669C114.186 25.5061 114.484 25.7751 114.87 25.9739C115.256 26.1669 115.709 26.2634 116.23 26.2634C116.861 26.2634 117.484 26.1201 118.098 25.8336C118.718 25.5412 119.279 25.1289 119.782 24.5968C120.291 24.0588 120.697 23.4214 121.001 22.6847C121.305 21.9479 121.457 21.1321 121.457 20.2375H124.554C124.554 21.3368 124.434 22.328 124.194 23.2109C123.954 24.0881 123.621 24.8541 123.194 25.509C122.767 26.1581 122.279 26.6902 121.729 27.1054C121.554 27.2165 121.384 27.3218 121.221 27.4212C121.057 27.5206 120.887 27.6258 120.712 27.7369C120.045 28.2749 119.3 28.6638 118.475 28.9035C117.657 29.1433 116.847 29.2631 116.046 29.2631ZM148.817 17.3254H144.976C144.905 16.8283 144.762 16.3869 144.546 16.0009C144.329 15.6091 144.052 15.2758 143.712 15.001C143.373 14.7262 142.982 14.5156 142.537 14.3695C142.099 14.2233 141.622 14.1502 141.107 14.1502C140.178 14.1502 139.368 14.3812 138.678 14.8431C137.988 15.2992 137.453 15.9658 137.073 16.843C136.693 17.7143 136.502 18.7727 136.502 20.0182C136.502 21.2988 136.693 22.3747 137.073 23.246C137.459 24.1173 137.997 24.7752 138.687 25.2196C139.377 25.664 140.175 25.8862 141.081 25.8862C141.59 25.8862 142.061 25.8189 142.493 25.6844C142.932 25.55 143.321 25.3541 143.66 25.0968C143.999 24.8336 144.28 24.5149 144.502 24.1407C144.73 23.7665 144.888 23.3396 144.976 22.8601L148.817 22.8776C148.718 23.7021 148.469 24.4974 148.072 25.2634C147.68 26.0236 147.151 26.7048 146.484 27.3071C145.823 27.9036 145.034 28.3772 144.116 28.7281C143.204 29.0731 142.172 29.2456 141.02 29.2456C139.417 29.2456 137.985 28.883 136.722 28.158C135.465 27.4329 134.47 26.3832 133.74 25.0091C133.014 23.6349 132.652 21.9713 132.652 20.0182C132.652 18.0593 133.02 16.3927 133.757 15.0185C134.494 13.6444 135.494 12.5977 136.757 11.8784C138.02 11.1533 139.441 10.7908 141.02 10.7908C142.061 10.7908 143.025 10.937 143.914 11.2293C144.809 11.5217 145.601 11.9486 146.291 12.5099C146.981 13.0655 147.543 13.7467 147.975 14.5537C148.414 15.3606 148.695 16.2845 148.817 17.3254ZM155.313 29.2544C154.453 29.2544 153.687 29.1053 153.014 28.807C152.342 28.503 151.81 28.0556 151.418 27.465C151.032 26.8686 150.839 26.1259 150.839 25.2371C150.839 24.4886 150.977 23.86 151.251 23.3513C151.526 22.8425 151.901 22.4332 152.374 22.1233C152.848 21.8134 153.386 21.5795 153.988 21.4216C154.596 21.2637 155.234 21.1526 155.9 21.0883C156.684 21.0064 157.315 20.9304 157.795 20.8602C158.274 20.7842 158.622 20.6731 158.839 20.5269C159.055 20.3807 159.163 20.1644 159.163 19.8778V19.8252C159.163 19.2697 158.988 18.8399 158.637 18.5358C158.292 18.2318 157.801 18.0797 157.163 18.0797C156.491 18.0797 155.956 18.2288 155.558 18.5271C155.161 18.8194 154.897 19.1878 154.769 19.6322L151.313 19.3516C151.488 18.5329 151.833 17.8254 152.348 17.2289C152.862 16.6266 153.526 16.1647 154.339 15.843C155.158 15.5156 156.105 15.3518 157.181 15.3518C157.929 15.3518 158.646 15.4396 159.33 15.615C160.02 15.7904 160.631 16.0623 161.163 16.4307C161.701 16.7991 162.125 17.2728 162.435 17.8517C162.745 18.4247 162.9 19.1118 162.9 19.9129V29H159.356V27.1317H159.251C159.035 27.5527 158.745 27.9241 158.383 28.2457C158.02 28.5614 157.584 28.81 157.076 28.9912C156.567 29.1667 155.979 29.2544 155.313 29.2544ZM156.383 26.6756C156.932 26.6756 157.418 26.5674 157.839 26.3511C158.26 26.1289 158.59 25.8306 158.83 25.4564C159.07 25.0821 159.189 24.6582 159.189 24.1846V22.7548C159.073 22.8308 158.912 22.901 158.707 22.9653C158.508 23.0238 158.283 23.0794 158.032 23.132C157.78 23.1788 157.529 23.2226 157.277 23.2636C157.026 23.2987 156.798 23.3308 156.593 23.36C156.155 23.4244 155.772 23.5267 155.444 23.667C155.117 23.8074 154.862 23.9974 154.681 24.2372C154.5 24.4711 154.409 24.7635 154.409 25.1143C154.409 25.623 154.593 26.0119 154.962 26.2809C155.336 26.544 155.81 26.6756 156.383 26.6756ZM169.535 21.2111V29H165.799V15.5273H169.36V17.9043H169.518C169.816 17.1207 170.316 16.5009 171.018 16.0448C171.719 15.5828 172.57 15.3518 173.57 15.3518C174.506 15.3518 175.321 15.5565 176.017 15.9658C176.713 16.3752 177.254 16.9599 177.64 17.7201C178.026 18.4744 178.219 19.375 178.219 20.4217V29H174.482V21.0883C174.488 20.2638 174.278 19.6205 173.851 19.1586C173.424 18.6908 172.836 18.4569 172.088 18.4569C171.585 18.4569 171.14 18.5651 170.754 18.7814C170.374 18.9978 170.076 19.3136 169.86 19.7287C169.649 20.1381 169.541 20.6322 169.535 21.2111ZM192.374 19.3691L188.953 19.5796C188.894 19.2872 188.768 19.0241 188.576 18.7902C188.383 18.5504 188.128 18.3604 187.812 18.2201C187.503 18.0739 187.131 18.0008 186.698 18.0008C186.12 18.0008 185.631 18.1236 185.234 18.3692C184.836 18.6089 184.637 18.9305 184.637 19.334C184.637 19.6556 184.766 19.9275 185.023 20.1498C185.28 20.372 185.722 20.5503 186.348 20.6848L188.786 21.176C190.096 21.445 191.072 21.8777 191.716 22.4741C192.359 23.0706 192.681 23.8542 192.681 24.8249C192.681 25.7078 192.42 26.4826 191.9 27.1493C191.385 27.8159 190.678 28.3363 189.777 28.7105C188.883 29.0789 187.85 29.2631 186.681 29.2631C184.897 29.2631 183.476 28.8918 182.418 28.1492C181.366 27.4007 180.749 26.3832 180.567 25.0968L184.243 24.9038C184.354 25.4476 184.623 25.8628 185.049 26.1493C185.476 26.43 186.023 26.5703 186.69 26.5703C187.345 26.5703 187.871 26.4446 188.269 26.1932C188.672 25.9359 188.877 25.6055 188.883 25.202C188.877 24.8629 188.733 24.5851 188.453 24.3687C188.172 24.1465 187.739 23.977 187.155 23.86L184.821 23.3951C183.506 23.132 182.526 22.6759 181.883 22.0268C181.246 21.3777 180.927 20.5503 180.927 19.5445C180.927 18.6791 181.161 17.9335 181.629 17.3078C182.102 16.6822 182.766 16.1997 183.62 15.8606C184.479 15.5214 185.485 15.3518 186.637 15.3518C188.339 15.3518 189.678 15.7115 190.654 16.4307C191.637 17.15 192.21 18.1294 192.374 19.3691Z" fill="#9493F8"/>
</svg>
