<svg width="308" height="308" viewBox="0 0 308 308" fill="none" xmlns="http://www.w3.org/2000/svg">
<g clip-path="url(#clip0_164_127)">
<mask id="mask0_164_127" style="mask-type:luminance" maskUnits="userSpaceOnUse" x="0" y="0" width="308" height="308">
<path d="M308 0H0V308H308V0Z" fill="white"/>
</mask>
<g mask="url(#mask0_164_127)">
<path d="M192.124 137.323C205.023 119.656 226.385 104.66 247.957 100.907C248.135 100.873 248.312 100.839 248.49 100.814C248.929 100.738 249.377 100.763 249.808 100.864C250.231 100.966 250.637 101.152 251 101.414L273.376 117.898C274.238 118.54 274.745 119.546 274.72 120.62C274.72 120.653 274.72 120.687 274.72 120.721C274.424 126.909 273.088 147.399 269.547 156.732C265.836 166.503 258.667 179.42 249.758 192.514C249.758 192.514 237.965 184.483 224.085 171.643C207.864 156.639 191.05 138.811 192.132 137.323H192.124Z" fill="url(#paint0_linear_164_127)"/>
<path d="M148.945 285.313C222.372 285.313 281.897 225.789 281.897 152.362C281.897 78.9346 222.372 19.4102 148.945 19.4102C75.5177 19.4102 15.9932 78.9346 15.9932 152.362C15.9932 225.789 75.5177 285.313 148.945 285.313Z" fill="white"/>
<path d="M77.7185 270.765C72.2747 259.378 61.9195 236.538 52.0208 214.483C40.1864 188.135 28.9859 162.91 27.5404 159.681C27.439 159.453 27.3629 159.225 27.3207 158.98C26.9487 157.069 25.9597 148.701 35.3089 142.014C37.6251 140.357 40.2794 139.242 43.052 138.616C45.3851 138.092 48.9608 136.807 51.7673 133.629C55.0809 129.892 56.239 129.504 61.4461 128.996C66.6533 128.489 69.3499 128.193 73.0693 124.423C76.7887 120.662 88.192 118.599 94.3544 127.34C96.7297 130.712 108.327 153.815 121.76 181.11C132.985 203.908 156.62 254.222 166.113 273.799C167.719 277.13 108.953 299.979 103.501 290.368C101.472 286.792 86.2055 287.891 83.8471 283.242C81.9535 279.505 79.9248 275.372 77.7185 270.756V270.765Z" fill="#D4F0F9"/>
<path d="M77.7186 270.763C72.2748 259.377 61.9196 236.536 52.021 214.482L121.768 181.117C132.994 203.915 145.505 229.647 154.989 249.224L83.8472 283.257C81.9537 279.521 79.9249 275.387 77.7186 270.772V270.763Z" fill="#A9D7FF"/>
<path style="mix-blend-mode:screen" opacity="0.5" d="M141.126 273.808L75.9688 137.332L88.5385 131.719L153.653 267.815L141.126 273.808Z" fill="url(#paint1_linear_164_127)"/>
<path opacity="0.4" d="M252.739 94.6771L252.032 95.6367L279.261 115.697L279.968 114.738L252.739 94.6771Z" fill="#79CFE7"/>
<path d="M154 308C133.222 308 113.053 303.926 94.0501 295.887C75.7067 288.127 59.2399 277.028 45.1062 262.894C30.9724 248.76 19.865 232.293 12.1134 213.95C4.07443 194.947 0 174.778 0 154C0 133.222 4.07443 113.053 12.1134 94.0501C19.8734 75.7067 30.9724 59.2399 45.1062 45.1062C59.2399 30.9724 75.7067 19.865 94.0501 12.1134C113.044 4.07443 133.222 0 154 0C174.778 0 194.947 4.07443 213.95 12.1134C232.293 19.8734 248.76 30.9724 262.894 45.1062C277.028 59.2399 288.135 75.7067 295.887 94.0501C303.926 113.053 308 133.222 308 154C308 174.778 303.926 194.947 295.887 213.95C288.127 232.293 277.028 248.76 262.894 262.894C248.76 277.028 232.293 288.135 213.95 295.887C194.947 303.926 174.778 308 154 308ZM154 40.2118C123.611 40.2118 95.0306 52.0462 73.5426 73.5426C52.0547 95.0306 40.2118 123.611 40.2118 154C40.2118 184.389 52.0462 212.969 73.5426 234.457C95.0306 255.945 123.611 267.788 154 267.788C184.389 267.788 212.969 255.954 234.457 234.457C255.945 212.969 267.788 184.389 267.788 154C267.788 123.611 255.954 95.0306 234.457 73.5426C212.969 52.0547 184.389 40.2118 154 40.2118Z" fill="#685BC7"/>
<path d="M275.016 120.585C275.016 120.585 275.016 120.653 275.016 120.687C274.72 126.874 273.384 147.373 269.842 156.697C269.09 158.667 268.312 160.586 267.475 162.496C263.722 171.11 258.769 179.648 249.749 192.505C247.34 195.928 244.652 199.665 241.609 203.79C234.119 213.951 213.73 239.048 198.92 258.152L198.142 258.922C184.355 264.737 169.41 267.772 154 267.772C136.519 267.772 119.646 263.858 104.363 256.445C120.356 234.314 173.671 162.986 186.257 145.734C188.438 142.75 190.501 139.909 192.42 137.28C205.319 119.613 226.68 104.617 248.253 100.864C248.422 100.839 248.608 100.805 248.785 100.771C249.225 100.703 249.682 100.72 250.104 100.822C250.527 100.923 250.933 101.109 251.296 101.38L257.061 105.623L273.672 117.855C273.832 117.973 273.976 118.1 274.111 118.244C274.703 118.869 275.033 119.706 275.016 120.577V120.585Z" fill="#D4F0F9"/>
<path d="M241.609 203.799C234.119 213.959 218.168 233.351 203.358 252.464L140.881 206.96C155.724 186.326 173.442 163.325 186.257 145.742L249.749 192.514C247.34 195.937 244.652 199.673 241.609 203.799Z" fill="#A9D7FF"/>
<path d="M279.986 115.032L277.332 118.642C276.749 119.428 275.641 119.597 274.847 119.022L250.476 101.067C249.69 100.484 249.521 99.3768 250.096 98.5822L252.75 94.9727L279.978 115.032H279.986Z" fill="#D4F0F9"/>
<path d="M281.288 115.987L251.465 94.0168C250.772 93.5012 250.62 92.5206 251.135 91.8274C251.651 91.1343 252.632 90.9821 253.325 91.4978L283.148 113.468C283.841 113.983 283.993 114.964 283.477 115.657C282.962 116.35 281.981 116.502 281.288 115.987Z" fill="#D4F0F9"/>
<path d="M270.739 77.9905L290.019 92.1949C293.749 94.9425 294.546 100.202 291.798 103.932L286.684 110.873C285.275 112.786 282.586 113.188 280.68 111.784L255.254 93.0518C253.342 91.6429 252.94 88.953 254.344 87.0475L259.789 79.6565C262.356 76.172 267.261 75.4284 270.746 77.9955L270.739 77.9905Z" fill="#A9D7FF"/>
<path style="mix-blend-mode:screen" opacity="0.5" d="M257.095 111.625C257.095 111.625 231.651 123.806 214.474 146.41C197.297 169.014 128.429 263.715 128.429 263.715L117.558 255.262C117.558 255.262 192.487 149.724 203.29 138.185C214.094 126.647 240.679 109.343 250.214 106.57L257.095 111.634V111.625Z" fill="url(#paint2_linear_164_127)"/>
<path d="M255.261 88.4883L284.686 109.926" stroke="#D4F0F9" stroke-width="0.5" stroke-linecap="round" stroke-linejoin="round"/>
</g>
</g>
<defs>
<linearGradient id="paint0_linear_164_127" x1="207.961" y1="115.755" x2="271.675" y2="162.695" gradientUnits="userSpaceOnUse">
<stop stop-color="#D2EEF8"/>
<stop offset="0.37" stop-color="#CFEDF8"/>
<stop offset="0.64" stop-color="#C5E9F8"/>
<stop offset="0.88" stop-color="#B5E4F8"/>
<stop offset="0.91" stop-color="#B3E4F9"/>
</linearGradient>
<linearGradient id="paint1_linear_164_127" x1="82.2995" y1="134.343" x2="147.551" y2="270.778" gradientUnits="userSpaceOnUse">
<stop offset="0.02" stop-color="#D2EEF8"/>
<stop offset="0.48" stop-color="#D2EEF8"/>
<stop offset="0.65" stop-color="#CFEDF8"/>
<stop offset="0.78" stop-color="#C5E9F8"/>
<stop offset="0.9" stop-color="#B5E4F8"/>
<stop offset="0.91" stop-color="#B3E4F9"/>
</linearGradient>
<linearGradient id="paint2_linear_164_127" x1="127.784" y1="263.234" x2="245.681" y2="103.205" gradientUnits="userSpaceOnUse">
<stop offset="0.02" stop-color="#D2EEF8"/>
<stop offset="0.48" stop-color="#D2EEF8"/>
<stop offset="0.65" stop-color="#CFEDF8"/>
<stop offset="0.78" stop-color="#C5E9F8"/>
<stop offset="0.9" stop-color="#B5E4F8"/>
<stop offset="0.91" stop-color="#B3E4F9"/>
</linearGradient>
<clipPath id="clip0_164_127">
<rect width="308" height="308" fill="white"/>
</clipPath>
</defs>
</svg>
