<svg width="232" height="232" viewBox="0 0 232 232" fill="none" xmlns="http://www.w3.org/2000/svg">
<rect x="0.602829" y="0.879883" width="230.77" height="230.767" rx="15" fill="#685BC7"/>
<path d="M153.176 72.1651H152.926H79.0494H78.7994V71.9151V67.2167C78.7994 65.4091 79.2016 63.5899 79.9652 61.9513L153.176 72.1651ZM153.176 72.1651V71.9151V67.2167C153.176 65.4118 152.773 63.5912 152.011 61.95L152.011 61.9498L146.866 50.8952L146.798 50.7507H146.639H85.3354H85.1759L85.1087 50.8952L79.9653 61.9512L153.176 72.1651ZM150.456 45.767V45.8727L150.532 45.9464C150.781 46.1887 150.993 46.4504 151.136 46.7572L157.104 59.5814C158.209 61.9605 158.794 64.6008 158.794 67.2167V170.941C158.794 174.29 157.653 177.59 155.584 180.225L155.78 180.379L155.584 180.225L150.82 186.295C150.817 186.297 150.813 186.3 150.81 186.302C150.795 186.313 150.775 186.33 150.755 186.354L150.727 186.388L150.713 186.429L147.713 194.814L147.949 194.899L147.713 194.814C147.314 195.931 146.256 196.677 145.069 196.677H86.9065C85.7203 196.677 84.6615 195.931 84.2625 194.814L84.0271 194.899L84.2625 194.814L81.2625 186.427L81.248 186.387L81.2206 186.353C81.201 186.329 81.1809 186.312 81.1663 186.301C81.1631 186.299 81.1598 186.296 81.1568 186.294L76.392 180.225L76.1954 180.379L76.392 180.225C74.3223 177.59 73.1822 174.29 73.1822 170.938V67.2167C73.1822 64.5963 73.7671 61.956 74.8718 59.5815L74.6452 59.4761L74.8718 59.5815L80.8382 46.7572C80.8382 46.7572 80.8382 46.7572 80.8382 46.7572C80.9814 46.4497 81.1942 46.1876 81.4443 45.945L81.5202 45.8713V45.7655V41.7173C81.5202 38.4817 84.1517 35.8501 87.3874 35.8501H144.588C147.824 35.8501 150.456 38.4817 150.456 41.7173V45.767ZM150.802 186.318C150.802 186.318 150.802 186.318 150.802 186.317L150.802 186.318ZM87.3874 41.4673H87.1374V41.7173V44.8835V45.1335H87.3874H144.588H144.838V44.8835V41.7173V41.4673H144.588H87.3874ZM142.914 191.06H143.09L143.15 190.894L144.28 187.734L144.4 187.399H144.045H87.931H87.5761L87.6956 187.734L88.8262 190.894L88.8855 191.06H89.0616H142.914ZM151.165 176.758L151.165 176.758C152.462 175.104 153.176 173.04 153.176 170.941V160.615V160.365H152.926H79.0494H78.7994V160.615V170.938C78.7994 173.04 79.5142 175.104 80.8106 176.758L80.8107 176.758L84.6758 181.681L84.7508 181.776H84.8724H147.105H147.227L147.302 181.681L151.165 176.758ZM152.926 154.748H153.176V154.498V78.0323V77.7823H152.926H79.0494H78.7994V78.0323V154.498V154.748H79.0494H152.926Z" fill="white" stroke="#9691FF" stroke-width="0.5"/>
</svg>
