<svg width="232" height="232" viewBox="0 0 232 232" fill="none" xmlns="http://www.w3.org/2000/svg">
<rect x="0.321045" y="0.836914" width="230.77" height="230.767" rx="15" fill="#685BC7"/>
<path d="M151.081 46.6087C150.921 46.2651 150.687 45.9791 150.424 45.7241V41.6743C150.424 38.3006 147.68 35.5571 144.307 35.5571H87.1056C83.7319 35.5571 80.9884 38.3006 80.9884 41.6743V45.7226C80.7252 45.9779 80.4901 46.2643 80.3298 46.6087L74.3634 59.4331C73.2433 61.8406 72.6504 64.5168 72.6504 67.1737V170.895C72.6504 174.303 73.8093 177.657 75.9136 180.336L80.6972 186.43C80.7102 186.446 80.7319 186.452 80.7453 186.468L83.7453 194.856C84.1799 196.071 85.3329 196.884 86.6247 196.884H144.788C146.079 196.884 147.232 196.071 147.667 194.856L150.666 186.47C150.68 186.453 150.703 186.447 150.717 186.43L155.499 180.336C157.603 177.657 158.762 174.303 158.762 170.898V67.1737C158.762 64.5213 158.169 61.845 157.049 59.4331L151.081 46.6087ZM87.1056 41.6743H144.307V44.8405H87.1056V41.6743ZM142.632 190.767H88.7798L87.6492 187.606H143.763L142.632 190.767ZM152.645 170.898C152.645 172.941 151.949 174.951 150.687 176.561L146.823 181.483H84.5906L80.7255 176.561C79.4636 174.951 78.7676 172.941 78.7676 170.895V160.572H152.645V170.898ZM152.645 154.455H78.7676V77.9893H152.645V154.455ZM152.645 71.8721H78.7676V67.1737C78.7676 65.4025 79.1619 63.6193 79.9101 62.0138L85.0536 50.9577H146.357L151.502 62.0123C152.249 63.6208 152.645 65.4054 152.645 67.1737V71.8721Z" fill="white"/>
<path fill-rule="evenodd" clip-rule="evenodd" d="M149.924 45.9355V41.6743C149.924 38.5768 147.404 36.0571 144.307 36.0571H87.1056C84.008 36.0571 81.4884 38.5768 81.4884 41.6743V45.9341L81.3366 46.0814C81.0995 46.3114 80.9091 46.5491 80.783 46.8198L74.8167 59.644C73.7273 61.9855 73.1504 64.5898 73.1504 67.1737V170.895C73.1504 174.191 74.2718 177.436 76.3068 180.027L81.052 186.072C81.0751 186.091 81.1038 186.117 81.1323 186.152L81.187 186.219L84.2161 194.687L83.7453 194.856L80.7453 186.468C80.7387 186.46 80.7301 186.455 80.7214 186.449C80.7126 186.444 80.7038 186.438 80.6972 186.43L75.9136 180.336C73.8093 177.657 72.6504 174.303 72.6504 170.895V67.1737C72.6504 64.5168 73.2433 61.8406 74.3634 59.4331L80.3298 46.6087C80.4901 46.2643 80.7252 45.9779 80.9884 45.7226V41.6743C80.9884 38.3006 83.7319 35.5571 87.1056 35.5571H144.307C147.68 35.5571 150.424 38.3006 150.424 41.6743V45.7241C150.687 45.9791 150.921 46.2651 151.081 46.6087L157.049 59.4331C158.169 61.845 158.762 64.5213 158.762 67.1737V170.898C158.762 174.303 157.603 177.657 155.499 180.336L150.717 186.43C150.71 186.438 150.7 186.444 150.691 186.45C150.682 186.456 150.673 186.462 150.666 186.47L147.667 194.856L147.196 194.687L150.225 186.22L150.28 186.152C150.309 186.117 150.339 186.091 150.362 186.072L155.105 180.028C157.14 177.436 158.262 174.191 158.262 170.898V67.1737C158.262 64.5944 157.685 61.9899 156.595 59.6437L150.628 46.8197C150.502 46.5497 150.312 46.3123 150.076 46.0828L149.924 45.9355ZM150.323 186.121C150.324 186.12 150.324 186.12 150.324 186.12L150.323 186.121ZM147.667 194.856L147.196 194.687C146.833 195.704 145.868 196.384 144.788 196.384H86.6247C85.5441 196.384 84.5796 195.704 84.2161 194.687L83.7453 194.856C84.1799 196.071 85.3329 196.884 86.6247 196.884H144.788C146.079 196.884 147.232 196.071 147.667 194.856ZM86.6056 41.1743H144.807V45.3405H86.6056V41.1743ZM142.985 191.267H88.4276L86.9393 187.106H144.473L142.985 191.267ZM151.08 176.869L147.066 181.983H84.3475L80.3323 176.87C79.0015 175.172 78.2676 173.053 78.2676 170.895V160.072H153.145V170.898C153.145 173.053 152.411 175.172 151.08 176.869ZM153.145 154.955H78.2676V77.4893H153.145V154.955ZM153.145 72.3721H78.2676V67.1737C78.2676 65.3296 78.6778 63.4743 79.4569 61.8026L84.7347 50.4577H146.676L151.955 61.8013C152.733 63.4754 153.145 65.3323 153.145 67.1737V72.3721ZM79.9101 62.0138C79.1619 63.6193 78.7676 65.4025 78.7676 67.1737V71.8721H152.645V67.1737C152.645 65.4054 152.249 63.6208 151.502 62.0123L146.357 50.9577H85.0536L79.9101 62.0138ZM143.763 187.606L142.632 190.767H88.7798L87.6492 187.606H143.763ZM80.7255 176.561C79.4636 174.951 78.7676 172.941 78.7676 170.895V160.572H152.645V170.898C152.645 172.941 151.949 174.951 150.687 176.561L146.823 181.483H84.5906L80.7255 176.561ZM87.1056 41.6743V44.8405H144.307V41.6743H87.1056ZM152.645 154.455V77.9893H78.7676V154.455H152.645Z" fill="#685BC7"/>
</svg>
