<svg width="308" height="308" viewBox="0 0 308 308" fill="none" xmlns="http://www.w3.org/2000/svg">
<g clip-path="url(#clip0_164_145)">
<mask id="mask0_164_145" style="mask-type:luminance" maskUnits="userSpaceOnUse" x="0" y="0" width="308" height="308">
<path d="M308 0H0V308H308V0Z" fill="white"/>
</mask>
<g mask="url(#mask0_164_145)">
<path d="M192.123 137.321C205.023 119.654 226.384 104.658 247.956 100.905C248.134 100.871 248.311 100.837 248.489 100.812C248.929 100.736 249.377 100.761 249.808 100.863C250.23 100.964 250.636 101.15 251 101.412L273.375 117.896C274.237 118.538 274.745 119.544 274.719 120.618C274.719 120.651 274.719 120.685 274.719 120.719C274.423 126.907 273.088 147.397 269.546 156.73C265.835 166.501 258.667 179.418 249.757 192.512C249.757 192.512 237.965 184.481 224.085 171.641C207.863 156.637 191.05 138.809 192.132 137.321H192.123Z" fill="url(#paint0_linear_164_145)"/>
<path d="M148.944 285.311C222.371 285.311 281.895 225.787 281.895 152.36C281.895 78.9327 222.371 19.4082 148.944 19.4082C75.5166 19.4082 15.9922 78.9327 15.9922 152.36C15.9922 225.787 75.5166 285.311 148.944 285.311Z" fill="white"/>
<path d="M84.1721 140.443C78.8754 147.126 79.2083 151.089 79.2083 151.089C79.2083 151.089 86.0188 151.41 88.1509 150.009C90.2829 148.609 94.073 139.845 94.2235 137.52C94.4342 134.162 89.4827 133.754 84.1721 140.443ZM81.673 148.321C81.673 148.321 82.6316 145.648 85.0142 144.962C87.4107 144.271 87.5816 145.497 87.0915 146.783L81.673 148.321ZM92.1053 138.574C92.1477 139.242 90.6125 141.306 89.7018 141.847C88.8419 142.354 84.7647 143.952 84.1085 143.683C84.0704 143.667 84.0462 143.644 84.022 143.622C83.7679 143.111 86.0453 141.034 86.0453 141.034C86.0453 141.034 87.4923 139.671 89.0764 138.677C90.6606 137.683 92.0629 137.906 92.1053 138.574Z" fill="#D4EFF9"/>
<path opacity="0.4" d="M92.1062 138.575C92.0639 137.907 90.6615 137.684 89.0774 138.678C87.4932 139.673 86.0464 141.036 86.0464 141.036C86.0464 141.036 83.755 143.117 84.0231 143.624C84.0333 143.651 84.0714 143.668 84.1094 143.685C83.5498 143.676 82.9914 143.542 83.0227 142.986C83.0765 141.894 87.4223 138.161 89.6918 137.299C91.8078 136.495 92.7663 137.148 92.1062 138.575Z" fill="#D4EFF9"/>
<path opacity="0.4" d="M87.0888 146.785C87.584 145.512 87.4131 144.286 85.0115 144.963C82.615 145.655 81.6702 148.322 81.6702 148.322L80.7354 148.671C80.7354 148.671 82.1921 145.16 84.3894 144.574C86.5728 143.993 87.0553 144.435 87.2763 144.601C87.4883 144.786 87.7719 145.675 87.0888 146.785Z" fill="#D4EFF9"/>
<path d="M114.746 141.418L54.1003 164.02C53.6677 164.182 53.1917 163.971 53.034 163.548L52.3627 161.746C52.2051 161.323 52.4268 160.852 52.8594 160.691L113.505 138.088C113.938 137.927 114.414 138.138 114.572 138.561L115.248 140.376C115.401 140.785 115.179 141.256 114.746 141.418Z" fill="#D4EFF9"/>
<path d="M167.444 256.627C167.484 256.736 167.53 256.859 167.543 256.978C167.572 257.185 167.565 257.421 167.533 257.634C167.039 260.445 161.461 264.327 161.461 264.327C161.466 264.34 161.472 264.354 161.477 264.368C161.833 265.494 161.567 266.401 160.915 267.126C160.255 267.869 159.166 268.446 157.938 268.903L105.358 288.5C102.916 289.41 100.706 289.535 99.8539 287.335L99.8386 287.294C99.8386 287.294 93.0262 287.906 90.7561 286.25C90.5593 286.105 90.4044 285.946 90.2774 285.775C90.2088 285.677 90.1542 285.573 90.1186 285.477L90.1084 285.45C90.1084 285.45 53.6903 187.268 52.666 185.116C52.2961 184.337 52.275 183.257 52.405 182.198C52.6561 180.271 53.3602 178.408 53.3602 178.408C55.7461 168.52 54.968 166.433 54.968 166.433L54.8977 165.775L54.7199 163.805L114.138 141.66C114.138 141.66 113.873 141.759 115.139 143.323C115.232 143.444 115.343 143.573 115.46 143.716C117.09 145.657 119.385 148.19 124.262 151.47C125.939 152.601 127.012 153.475 127.689 154.14C128.965 155.389 128.856 155.865 128.856 155.865L167.444 256.627Z" fill="#D4EFF9"/>
<path d="M167.447 256.627C167.488 256.736 167.533 256.859 167.546 256.979C167.576 257.185 167.568 257.421 167.537 257.635L90.7737 286.245C90.5769 286.101 90.422 285.941 90.295 285.771C90.2264 285.672 90.1718 285.568 90.1362 285.472L90.126 285.445C90.126 285.445 53.7079 187.263 52.6835 185.112C52.3137 184.332 52.2926 183.252 52.4225 182.194L127.664 154.151C128.941 155.4 128.832 155.876 128.832 155.876L167.447 256.627Z" fill="#A9D6FF"/>
<path opacity="0.4" d="M115.14 143.324L54.913 165.771L54.7212 163.806L114.139 141.661C114.134 141.648 113.869 141.746 115.14 143.324Z" fill="#D4EFF9"/>
<path opacity="0.4" d="M161.437 264.348C161.793 265.474 161.527 266.382 160.875 267.106C160.215 267.85 159.126 268.426 157.898 268.884L105.332 288.476C102.89 289.386 100.68 289.51 99.8281 287.31L161.437 264.348Z" fill="#D4EFF9"/>
<path opacity="0.4" d="M86.1169 169.635L65.0039 177.504L103.645 281.182L124.758 273.313L86.1169 169.635Z" fill="#D4EFF9"/>
<path opacity="0.2" d="M116.292 158.653L112.887 159.922L151.355 263.137L154.76 261.868L116.292 158.653Z" fill="#D4EFF9"/>
<path opacity="0.4" d="M252.738 94.6771L252.031 95.6367L279.261 115.697L279.968 114.738L252.738 94.6771Z" fill="#79CFE7"/>
<path d="M255.244 134.009C245.726 134.116 242.524 137.191 242.524 137.191C242.524 137.191 247.033 143.321 249.747 144.185C252.46 145.049 262.723 142.174 264.845 140.669C267.905 138.491 264.777 133.911 255.244 134.009ZM246.656 137.382C246.656 137.382 249.648 136.333 251.918 137.917C254.202 139.509 253.259 140.519 251.799 140.998L246.656 137.382ZM262.442 139.574C261.893 140.08 259.024 140.2 257.914 139.791C256.87 139.402 252.618 136.99 252.39 136.233C252.378 136.188 252.38 136.151 252.382 136.115C252.647 135.535 256.048 136.049 256.048 136.049C256.048 136.049 258.247 136.346 260.223 137.02C262.199 137.694 262.992 139.067 262.442 139.574Z" fill="#D4EFF9"/>
<path opacity="0.4" d="M262.44 139.574C262.989 139.068 262.197 137.695 260.221 137.021C258.245 136.346 256.046 136.05 256.046 136.05C256.046 136.05 252.63 135.527 252.379 136.116C252.363 136.144 252.375 136.188 252.387 136.233C252.002 135.742 251.725 135.164 252.229 134.8C253.214 134.079 259.506 135.222 261.848 136.584C264.033 137.853 264.141 139.143 262.44 139.574Z" fill="#D4EFF9"/>
<path opacity="0.4" d="M251.799 140.998C253.25 140.533 254.193 139.523 251.917 137.917C249.633 136.325 246.656 137.382 246.656 137.382L245.696 136.816C245.696 136.816 249.765 135.61 251.818 137.104C253.856 138.588 253.813 139.317 253.824 139.626C253.812 139.94 253.241 140.811 251.799 140.998Z" fill="#D4EFF9"/>
<path d="M275.895 161.204L213.659 124.514C213.215 124.252 213.063 123.691 213.319 123.257L214.409 121.409C214.665 120.975 215.229 120.836 215.673 121.097L277.91 157.787C278.354 158.049 278.505 158.61 278.249 159.044L277.151 160.906C276.904 161.327 276.339 161.466 275.895 161.204Z" fill="#D4EFF9"/>
<path d="M213.059 287.896C212.993 288.008 212.918 288.135 212.824 288.23C212.665 288.4 212.455 288.56 212.248 288.683C209.464 290.23 202.176 288.123 202.176 288.123C202.168 288.137 202.16 288.151 202.152 288.165C201.426 289.266 200.452 289.673 199.366 289.618C198.257 289.568 196.991 289.03 195.731 288.287L141.772 256.477C139.266 254.999 137.604 253.17 138.912 250.885L138.937 250.843C138.937 250.843 133.617 245.366 133.457 242.234C133.443 241.962 133.473 241.715 133.531 241.485C133.569 241.356 133.62 241.236 133.678 241.138L133.695 241.11C133.695 241.11 193.216 140.504 194.362 138.103C194.777 137.234 195.699 136.457 196.708 135.825C198.555 134.688 200.666 133.988 200.666 133.988C210.916 129.105 212.179 126.963 212.179 126.963L212.7 126.439L214.283 124.9L275.259 160.847C275.259 160.847 274.987 160.687 274.521 162.884C274.482 163.05 274.448 163.237 274.406 163.439C273.869 166.217 273.286 169.987 273.872 176.522C274.071 178.772 274.067 180.317 273.967 181.371C273.781 183.356 273.292 183.596 273.292 183.596L213.059 287.896Z" fill="#D4EFF9"/>
<path d="M213.059 287.898C212.993 288.01 212.919 288.136 212.824 288.231C212.666 288.402 212.456 288.561 212.249 288.684L133.472 242.244C133.459 241.972 133.488 241.725 133.547 241.495C133.584 241.366 133.636 241.246 133.693 241.148L133.71 241.12C133.71 241.12 193.232 140.514 194.377 138.113C194.792 137.244 195.714 136.467 196.723 135.835L273.939 181.355C273.753 183.34 273.264 183.58 273.264 183.58L213.059 287.898Z" fill="#A9D6FF"/>
<path opacity="0.4" d="M274.521 162.886L212.714 126.45L214.283 124.902L275.259 160.849C275.267 160.835 274.995 160.675 274.521 162.886Z" fill="#D4EFF9"/>
<path opacity="0.4" d="M202.135 288.157C201.409 289.257 200.435 289.665 199.349 289.609C198.24 289.559 196.975 289.021 195.715 288.278L141.77 256.476C139.263 254.999 137.601 253.17 138.91 250.884L202.135 288.157Z" fill="#D4EFF9"/>
<path opacity="0.4" d="M231.304 156.222L209.637 143.449L146.913 249.847L168.58 262.62L231.304 156.222Z" fill="#D4EFF9"/>
<path opacity="0.2" d="M262.037 174.661L258.543 172.601L196.1 278.523L199.594 280.583L262.037 174.661Z" fill="#D4EFF9"/>
<path d="M154 308C133.222 308 113.053 303.926 94.0501 295.887C75.7067 288.127 59.2399 277.028 45.1062 262.894C30.9724 248.76 19.865 232.293 12.1134 213.95C4.07443 194.947 0 174.778 0 154C0 133.222 4.07443 113.053 12.1134 94.0501C19.8734 75.7067 30.9724 59.2399 45.1062 45.1062C59.2399 30.9724 75.7067 19.865 94.0501 12.1134C113.044 4.07443 133.222 0 154 0C174.778 0 194.947 4.07443 213.95 12.1134C232.293 19.8734 248.76 30.9724 262.894 45.1062C277.028 59.2399 288.135 75.7067 295.887 94.0501C303.926 113.053 308 133.222 308 154C308 174.778 303.926 194.947 295.887 213.95C288.127 232.293 277.028 248.76 262.894 262.894C248.76 277.028 232.293 288.135 213.95 295.887C194.947 303.926 174.778 308 154 308ZM154 40.2118C123.611 40.2118 95.0306 52.0462 73.5426 73.5426C52.0547 95.0306 40.2118 123.611 40.2118 154C40.2118 184.389 52.0462 212.969 73.5426 234.457C95.0306 255.945 123.611 267.788 154 267.788C184.389 267.788 212.969 255.954 234.457 234.457C255.945 212.969 267.788 184.389 267.788 154C267.788 123.611 255.954 95.0306 234.457 73.5426C212.969 52.0547 184.389 40.2118 154 40.2118Z" fill="#685BC7"/>
</g>
</g>
<defs>
<linearGradient id="paint0_linear_164_145" x1="207.96" y1="115.753" x2="271.675" y2="162.693" gradientUnits="userSpaceOnUse">
<stop stop-color="#D2EEF8"/>
<stop offset="0.37" stop-color="#CFEDF8"/>
<stop offset="0.64" stop-color="#C5E9F8"/>
<stop offset="0.88" stop-color="#B5E4F8"/>
<stop offset="0.91" stop-color="#B3E4F9"/>
</linearGradient>
<clipPath id="clip0_164_145">
<rect width="308" height="308" fill="white"/>
</clipPath>
</defs>
</svg>
