<svg width="300" height="41" viewBox="0 0 300 41" fill="none" xmlns="http://www.w3.org/2000/svg">
<path d="M135.911 17.3254H132.069C131.999 16.8283 131.856 16.3869 131.639 16.0009C131.423 15.6091 131.145 15.2758 130.806 15.001C130.467 14.7262 130.075 14.5156 129.631 14.3695C129.192 14.2233 128.716 14.1502 128.201 14.1502C127.271 14.1502 126.461 14.3812 125.771 14.8431C125.081 15.2992 124.546 15.9658 124.166 16.843C123.786 17.7143 123.596 18.7727 123.596 20.0182C123.596 21.2988 123.786 22.3747 124.166 23.246C124.552 24.1173 125.09 24.7752 125.78 25.2196C126.47 25.664 127.268 25.8862 128.175 25.8862C128.683 25.8862 129.154 25.8189 129.587 25.6844C130.025 25.55 130.414 25.3541 130.754 25.0968C131.093 24.8336 131.373 24.5149 131.596 24.1407C131.824 23.7665 131.981 23.3396 132.069 22.8601L135.911 22.8776C135.812 23.7021 135.563 24.4974 135.165 25.2634C134.774 26.0236 134.244 26.7048 133.578 27.3071C132.917 27.9036 132.128 28.3772 131.21 28.7281C130.297 29.0731 129.265 29.2456 128.113 29.2456C126.511 29.2456 125.078 28.883 123.815 28.158C122.558 27.4329 121.564 26.3832 120.833 25.0091C120.108 23.6349 119.746 21.9713 119.746 20.0182C119.746 18.0593 120.114 16.3927 120.851 15.0185C121.588 13.6444 122.587 12.5977 123.85 11.8784C125.114 11.1533 126.535 10.7908 128.113 10.7908C129.154 10.7908 130.119 10.937 131.008 11.2293C131.903 11.5217 132.695 11.9486 133.385 12.5099C134.075 13.0655 134.636 13.7467 135.069 14.5537C135.508 15.3606 135.788 16.2845 135.911 17.3254ZM142.406 29.2544C141.547 29.2544 140.781 29.1053 140.108 28.807C139.436 28.503 138.904 28.0556 138.512 27.465C138.126 26.8686 137.933 26.1259 137.933 25.2371C137.933 24.4886 138.07 23.86 138.345 23.3513C138.62 22.8425 138.994 22.4332 139.468 22.1233C139.941 21.8134 140.479 21.5795 141.082 21.4216C141.69 21.2637 142.327 21.1526 142.994 21.0883C143.777 21.0064 144.409 20.9304 144.888 20.8602C145.368 20.7842 145.716 20.6731 145.932 20.5269C146.149 20.3807 146.257 20.1644 146.257 19.8778V19.8252C146.257 19.2697 146.081 18.8399 145.731 18.5358C145.386 18.2318 144.894 18.0797 144.257 18.0797C143.584 18.0797 143.049 18.2288 142.652 18.5271C142.254 18.8194 141.991 19.1878 141.862 19.6322L138.406 19.3516C138.582 18.5329 138.927 17.8254 139.441 17.2289C139.956 16.6266 140.62 16.1647 141.433 15.843C142.251 15.5156 143.199 15.3518 144.274 15.3518C145.023 15.3518 145.739 15.4396 146.423 15.615C147.113 15.7904 147.725 16.0623 148.257 16.4307C148.795 16.7991 149.219 17.2728 149.528 17.8517C149.838 18.4247 149.993 19.1118 149.993 19.9129V29H146.45V27.1317H146.345C146.128 27.5527 145.839 27.9241 145.476 28.2457C145.114 28.5614 144.678 28.81 144.169 28.9912C143.66 29.1667 143.073 29.2544 142.406 29.2544ZM143.476 26.6756C144.026 26.6756 144.511 26.5674 144.932 26.3511C145.353 26.1289 145.684 25.8306 145.923 25.4564C146.163 25.0821 146.283 24.6582 146.283 24.1846V22.7548C146.166 22.8308 146.005 22.901 145.801 22.9653C145.602 23.0238 145.377 23.0794 145.125 23.132C144.874 23.1788 144.622 23.2226 144.371 23.2636C144.12 23.2987 143.891 23.3308 143.687 23.36C143.248 23.4244 142.865 23.5267 142.538 23.667C142.21 23.8074 141.956 23.9974 141.775 24.2372C141.593 24.4711 141.503 24.7635 141.503 25.1143C141.503 25.623 141.687 26.0119 142.055 26.2809C142.43 26.544 142.903 26.6756 143.476 26.6756ZM156.629 21.2111V29H152.892V15.5273H156.453V17.9043H156.611C156.91 17.1207 157.41 16.5009 158.111 16.0448C158.813 15.5828 159.664 15.3518 160.664 15.3518C161.599 15.3518 162.415 15.5565 163.111 15.9658C163.807 16.3752 164.348 16.9599 164.734 17.7201C165.119 18.4744 165.312 19.375 165.312 20.4217V29H161.576V21.0883C161.582 20.2638 161.371 19.6205 160.944 19.1586C160.517 18.6908 159.93 18.4569 159.181 18.4569C158.678 18.4569 158.234 18.5651 157.848 18.7814C157.468 18.9978 157.17 19.3136 156.953 19.7287C156.743 20.1381 156.635 20.6322 156.629 21.2111ZM179.467 19.3691L176.046 19.5796C175.988 19.2872 175.862 19.0241 175.669 18.7902C175.476 18.5504 175.222 18.3604 174.906 18.2201C174.596 18.0739 174.225 18.0008 173.792 18.0008C173.213 18.0008 172.725 18.1236 172.327 18.3692C171.93 18.6089 171.731 18.9305 171.731 19.334C171.731 19.6556 171.86 19.9275 172.117 20.1498C172.374 20.372 172.816 20.5503 173.441 20.6848L175.88 21.176C177.19 21.445 178.166 21.8777 178.809 22.4741C179.453 23.0706 179.774 23.8542 179.774 24.8249C179.774 25.7078 179.514 26.4826 178.994 27.1493C178.479 27.8159 177.771 28.3363 176.871 28.7105C175.976 29.0789 174.944 29.2631 173.775 29.2631C171.991 29.2631 170.57 28.8918 169.512 28.1492C168.459 27.4007 167.842 26.3832 167.661 25.0968L171.336 24.9038C171.447 25.4476 171.716 25.8628 172.143 26.1493C172.57 26.43 173.117 26.5703 173.783 26.5703C174.438 26.5703 174.965 26.4446 175.362 26.1932C175.766 25.9359 175.97 25.6055 175.976 25.202C175.97 24.8629 175.827 24.5851 175.546 24.3687C175.266 24.1465 174.833 23.977 174.248 23.86L171.915 23.3951C170.599 23.132 169.62 22.6759 168.977 22.0268C168.339 21.3777 168.021 20.5503 168.021 19.5445C168.021 18.6791 168.255 17.9335 168.722 17.3078C169.196 16.6822 169.86 16.1997 170.713 15.8606C171.573 15.5214 172.579 15.3518 173.731 15.3518C175.432 15.3518 176.771 15.7115 177.748 16.4307C178.73 17.15 179.303 18.1294 179.467 19.3691Z" fill="#9493F8"/>
</svg>
