<svg width="97" height="41" viewBox="0 0 97 41" fill="none" xmlns="http://www.w3.org/2000/svg">
<path d="M34.411 17.3254H30.5692C30.499 16.8283 30.3558 16.3869 30.1394 16.0009C29.9231 15.6091 29.6453 15.2758 29.3061 15.001C28.967 14.7262 28.5752 14.5156 28.1308 14.3695C27.6922 14.2233 27.2156 14.1502 26.7011 14.1502C25.7713 14.1502 24.9614 14.3812 24.2714 14.8431C23.5814 15.2992 23.0464 15.9658 22.6663 16.843C22.2862 17.7143 22.0961 18.7727 22.0961 20.0182C22.0961 21.2988 22.2862 22.3747 22.6663 23.246C23.0522 24.1173 23.5902 24.7752 24.2802 25.2196C24.9702 25.664 25.7684 25.8862 26.6748 25.8862C27.1835 25.8862 27.6542 25.8189 28.0869 25.6844C28.5255 25.55 28.9144 25.3541 29.2535 25.0968C29.5927 24.8336 29.8734 24.5149 30.0956 24.1407C30.3236 23.7665 30.4815 23.3396 30.5692 22.8601L34.411 22.8776C34.3116 23.7021 34.0631 24.4974 33.6655 25.2634C33.2737 26.0236 32.7445 26.7048 32.0779 27.3071C31.4171 27.9036 30.6277 28.3772 29.7096 28.7281C28.7974 29.0731 27.7653 29.2456 26.6134 29.2456C25.0111 29.2456 23.5785 28.883 22.3154 28.158C21.0582 27.4329 20.0641 26.3832 19.3332 25.0091C18.6081 23.6349 18.2455 21.9713 18.2455 20.0182C18.2455 18.0593 18.6139 16.3927 19.3507 15.0185C20.0875 13.6444 21.0874 12.5977 22.3505 11.8784C23.6136 11.1533 25.0345 10.7908 26.6134 10.7908C27.6542 10.7908 28.6191 10.937 29.5079 11.2293C30.4026 11.5217 31.1949 11.9486 31.8849 12.5099C32.5749 13.0655 33.1363 13.7467 33.569 14.5537C34.0076 15.3606 34.2882 16.2845 34.411 17.3254ZM40.9062 29.2544C40.0466 29.2544 39.2806 29.1053 38.6081 28.807C37.9356 28.503 37.4035 28.0556 37.0117 27.465C36.6258 26.8686 36.4328 26.1259 36.4328 25.2371C36.4328 24.4886 36.5702 23.86 36.8451 23.3513C37.1199 22.8425 37.4942 22.4332 37.9678 22.1233C38.4415 21.8134 38.9794 21.5795 39.5817 21.4216C40.1899 21.2637 40.8273 21.1526 41.4939 21.0883C42.2774 21.0064 42.909 20.9304 43.3885 20.8602C43.868 20.7842 44.2159 20.6731 44.4323 20.5269C44.6486 20.3807 44.7568 20.1644 44.7568 19.8778V19.8252C44.7568 19.2697 44.5814 18.8399 44.2305 18.5358C43.8855 18.2318 43.3943 18.0797 42.7569 18.0797C42.0845 18.0797 41.5494 18.2288 41.1518 18.5271C40.7542 18.8194 40.491 19.1878 40.3624 19.6322L36.9065 19.3516C37.0819 18.5329 37.4269 17.8254 37.9415 17.2289C38.4561 16.6266 39.1198 16.1647 39.9326 15.843C40.7512 15.5156 41.6985 15.3518 42.7745 15.3518C43.523 15.3518 44.2393 15.4396 44.9235 15.615C45.6135 15.7904 46.2245 16.0623 46.7567 16.4307C47.2946 16.7991 47.7186 17.2728 48.0285 17.8517C48.3384 18.4247 48.4934 19.1118 48.4934 19.9129V29H44.9498V27.1317H44.8445C44.6282 27.5527 44.3387 27.9241 43.9762 28.2457C43.6136 28.5614 43.178 28.81 42.6692 28.9912C42.1605 29.1667 41.5728 29.2544 40.9062 29.2544ZM41.9763 26.6756C42.526 26.6756 43.0113 26.5674 43.4323 26.3511C43.8534 26.1289 44.1837 25.8306 44.4235 25.4564C44.6632 25.0821 44.7831 24.6582 44.7831 24.1846V22.7548C44.6662 22.8308 44.5054 22.901 44.3007 22.9653C44.1019 23.0238 43.8767 23.0794 43.6253 23.132C43.3739 23.1788 43.1224 23.2226 42.871 23.2636C42.6195 23.2987 42.3915 23.3308 42.1868 23.36C41.7482 23.4244 41.3652 23.5267 41.0378 23.667C40.7103 23.8074 40.4559 23.9974 40.2747 24.2372C40.0934 24.4711 40.0028 24.7635 40.0028 25.1143C40.0028 25.623 40.1869 26.0119 40.5553 26.2809C40.9296 26.544 41.4032 26.6756 41.9763 26.6756ZM55.1289 21.2111V29H51.3923V15.5273H54.9534V17.9043H55.1113C55.4096 17.1207 55.9095 16.5009 56.6112 16.0448C57.3129 15.5828 58.1637 15.3518 59.1637 15.3518C60.0993 15.3518 60.915 15.5565 61.6109 15.9658C62.3067 16.3752 62.8476 16.9599 63.2336 17.7201C63.6195 18.4744 63.8125 19.375 63.8125 20.4217V29H60.0759V21.0883C60.0817 20.2638 59.8712 19.6205 59.4444 19.1586C59.0175 18.6908 58.4298 18.4569 57.6813 18.4569C57.1784 18.4569 56.734 18.5651 56.3481 18.7814C55.968 18.9978 55.6698 19.3136 55.4534 19.7287C55.2429 20.1381 55.1347 20.6322 55.1289 21.2111ZM77.9672 19.3691L74.5464 19.5796C74.4879 19.2872 74.3622 19.0241 74.1692 18.7902C73.9762 18.5504 73.7219 18.3604 73.4061 18.2201C73.0962 18.0739 72.7248 18.0008 72.2921 18.0008C71.7132 18.0008 71.225 18.1236 70.8273 18.3692C70.4297 18.6089 70.2309 18.9305 70.2309 19.334C70.2309 19.6556 70.3595 19.9275 70.6168 20.1498C70.8741 20.372 71.3156 20.5503 71.9413 20.6848L74.3797 21.176C75.6895 21.445 76.6661 21.8777 77.3093 22.4741C77.9525 23.0706 78.2742 23.8542 78.2742 24.8249C78.2742 25.7078 78.0139 26.4826 77.4935 27.1493C76.9789 27.8159 76.2714 28.3363 75.3709 28.7105C74.4762 29.0789 73.4441 29.2631 72.2746 29.2631C70.4911 29.2631 69.0701 28.8918 68.0117 28.1492C66.9592 27.4007 66.3423 26.3832 66.161 25.0968L69.8362 24.9038C69.9473 25.4476 70.2163 25.8628 70.6431 26.1493C71.07 26.43 71.6167 26.5703 72.2834 26.5703C72.9383 26.5703 73.4646 26.4446 73.8622 26.1932C74.2657 25.9359 74.4703 25.6055 74.4762 25.202C74.4703 24.8629 74.3271 24.5851 74.0464 24.3687C73.7657 24.1465 73.333 23.977 72.7482 23.86L70.4151 23.3951C69.0994 23.132 68.1199 22.6759 67.4767 22.0268C66.8393 21.3777 66.5206 20.5503 66.5206 19.5445C66.5206 18.6791 66.7545 17.9335 67.2223 17.3078C67.696 16.6822 68.3597 16.1997 69.2134 15.8606C70.073 15.5214 71.0788 15.3518 72.2307 15.3518C73.9324 15.3518 75.2714 15.7115 76.248 16.4307C77.2304 17.15 77.8034 18.1294 77.9672 19.3691Z" fill="#9493F8"/>
</svg>
