<svg width="232" height="232" viewBox="0 0 232 232" fill="none" xmlns="http://www.w3.org/2000/svg">
<rect x="0.390625" y="0.643555" width="230.77" height="230.767" rx="15" fill="#9493F8"/>
<path d="M161.682 181.306L70.9263 181.334C70.5613 181.334 70.1999 181.406 69.8627 181.545C69.5254 181.685 69.219 181.89 68.9609 182.148C68.7027 182.406 68.498 182.712 68.3583 183.05C68.2186 183.387 68.1467 183.748 68.1467 184.113C68.1467 184.478 68.2187 184.84 68.3583 185.177C68.498 185.514 68.7027 185.821 68.9608 186.079C69.2189 186.337 69.5253 186.542 69.8625 186.681C70.1998 186.821 70.5613 186.893 70.9263 186.893L161.71 186.893C162.075 186.893 162.436 186.821 162.773 186.681C163.111 186.542 163.417 186.337 163.675 186.079C163.933 185.821 164.138 185.514 164.278 185.177C164.417 184.84 164.489 184.478 164.489 184.113C164.489 183.748 164.417 183.387 164.278 183.05C164.138 182.712 163.933 182.406 163.675 182.148C163.417 181.89 163.111 181.685 162.773 181.545C162.436 181.406 162.075 181.334 161.71 181.334L161.682 181.306Z" fill="white"/>
<path d="M36.7183 65.3717C36.5042 65.0877 36.2346 64.8499 35.9261 64.6729C35.6176 64.4959 35.2764 64.3833 34.9232 64.3417C34.5699 64.3001 34.2119 64.3306 33.8707 64.4312C33.5295 64.5318 33.2122 64.7004 32.938 64.9269C32.6568 65.1458 32.4215 65.418 32.2455 65.7279C32.0696 66.0378 31.9565 66.3794 31.9126 66.733C31.8687 67.0867 31.895 67.4456 31.9899 67.7891C32.0847 68.1326 32.2462 68.4539 32.4654 68.7349L56.1202 98.6718C56.3829 98.9861 56.7098 99.2404 57.079 99.4178C57.4481 99.5952 57.8511 99.6915 58.2606 99.7003C58.8699 99.6925 59.4584 99.4768 59.9284 99.0888C60.2124 98.8746 60.4501 98.6052 60.6271 98.2967C60.8042 97.9882 60.9168 97.6469 60.9583 97.2936C60.9999 96.9404 60.9695 96.5824 60.869 96.2412C60.7684 95.9 60.5997 95.5828 60.3732 95.3085L36.7183 65.3717Z" fill="white"/>
<path d="M198.751 65.0004C198.181 64.5561 197.46 64.3537 196.742 64.4369C196.024 64.5201 195.368 64.8822 194.915 65.445L171.26 95.3819C170.828 95.9532 170.635 96.6708 170.723 97.382C170.812 98.0931 171.174 98.7418 171.733 99.19C172.299 99.6173 173.008 99.8095 173.712 99.7267C174.417 99.6438 175.062 99.2922 175.513 98.7452L199.168 68.8084C199.617 68.2478 199.825 67.5322 199.747 66.8183C199.669 66.1044 199.311 65.4507 198.751 65.0004Z" fill="white"/>
<path d="M208.353 72.6275L167.964 40.7449C161.355 35.5418 153.193 32.7037 144.782 32.6839L86.882 32.5449C78.4809 32.5478 70.3251 35.3773 63.7274 40.578L23.3392 72.4607C23.0561 72.682 22.8213 72.959 22.6492 73.2745C22.4771 73.59 22.3714 73.9374 22.3386 74.2953C22.2553 75.0094 22.4548 75.7277 22.8944 76.2966L46.5493 106.233C46.9995 106.793 47.6533 107.151 48.3671 107.229C49.081 107.307 49.7968 107.099 50.3574 106.65L67.7023 92.9744L68.1438 196.729C68.1345 197.097 68.2001 197.462 68.3366 197.804C68.473 198.145 68.6774 198.455 68.9374 198.715C69.1973 198.975 69.5075 199.18 69.8489 199.316C70.1903 199.453 70.5559 199.518 70.9234 199.509L161.651 199.509C162.019 199.518 162.384 199.453 162.726 199.316C163.067 199.18 163.377 198.975 163.637 198.715C163.897 198.455 164.102 198.145 164.238 197.804C164.375 197.463 164.44 197.097 164.431 196.729L163.85 93.0022L181.195 106.678C181.674 107.051 182.257 107.265 182.863 107.29C183.273 107.281 183.676 107.185 184.045 107.007C184.414 106.83 184.741 106.575 185.003 106.261L208.658 76.3243C209.078 75.7809 209.279 75.1005 209.222 74.4166C209.165 73.7326 208.855 73.0946 208.353 72.6275ZM140.362 37.993C139.661 43.9643 136.791 49.4701 132.297 53.4646C127.803 57.459 121.999 59.6639 115.986 59.6605C109.974 59.657 104.172 57.4456 99.6831 53.446C95.1939 49.4465 92.3299 43.9374 91.6352 37.9653L140.362 37.993ZM182.696 100.785L163.072 85.2749L162.6 85.0247C162.503 84.8827 162.38 84.7601 162.238 84.6633L161.71 84.5243L161.377 84.4687C161.197 84.4986 161.02 84.5451 160.848 84.6077C160.683 84.6202 160.522 84.6676 160.376 84.7467C160.243 84.8539 160.122 84.9751 160.014 85.108C159.876 85.247 159.764 85.3582 159.625 85.4972C159.625 85.4972 159.486 85.6362 159.403 85.7196C159.261 85.8367 159.131 85.967 159.014 86.1087C158.959 86.2794 158.931 86.4576 158.93 86.6369C158.848 86.7023 158.773 86.7769 158.708 86.8593L158.76 194.172L73.5363 194.061L73.0671 87.3874L73.0115 87.0538C73.0015 86.8641 72.9641 86.6769 72.9003 86.4979L72.539 86.1365C72.539 86.1365 72.5389 86.1365 72.3166 85.9141L71.5662 85.1637C71.4139 85.101 71.2554 85.0543 71.0935 85.0246C70.9337 84.9611 70.7649 84.9236 70.5932 84.9135L70.2597 84.9691L69.7037 85.0802C69.5715 85.1883 69.4504 85.3094 69.3424 85.4416L69.12 85.664L49.4957 101.174L29.2876 75.407L66.952 44.97C72.3531 40.7401 78.9681 38.3532 85.8257 38.1598C86.4869 45.6065 89.9123 52.5358 95.4274 57.583C100.943 62.6301 108.148 65.4293 115.624 65.4293C123.099 65.4293 130.305 62.6302 135.82 57.583C141.335 52.5359 144.76 45.6065 145.421 38.1598C152.279 38.3531 158.894 40.74 164.295 44.9699L202.71 75.1013L182.696 100.785Z" fill="white"/>
<path d="M161.682 181.306L70.9263 181.334C70.5613 181.334 70.1999 181.406 69.8627 181.545C69.5254 181.685 69.219 181.89 68.9609 182.148C68.7027 182.406 68.498 182.712 68.3583 183.05C68.2186 183.387 68.1467 183.748 68.1467 184.113C68.1467 184.478 68.2187 184.84 68.3583 185.177C68.498 185.514 68.7027 185.821 68.9608 186.079C69.2189 186.337 69.5253 186.542 69.8625 186.681C70.1998 186.821 70.5613 186.893 70.9263 186.893L161.71 186.893C162.075 186.893 162.436 186.821 162.773 186.681C163.111 186.542 163.417 186.337 163.675 186.079C163.933 185.821 164.138 185.514 164.278 185.177C164.417 184.84 164.489 184.478 164.489 184.113C164.489 183.748 164.417 183.387 164.278 183.05C164.138 182.712 163.933 182.406 163.675 182.148C163.417 181.89 163.111 181.685 162.773 181.545C162.436 181.406 162.075 181.334 161.71 181.334L161.682 181.306Z" stroke="white" stroke-width="0.4"/>
<path d="M36.7183 65.3717C36.5042 65.0877 36.2346 64.8499 35.9261 64.6729C35.6176 64.4959 35.2764 64.3833 34.9232 64.3417C34.5699 64.3001 34.2119 64.3306 33.8707 64.4312C33.5295 64.5318 33.2122 64.7004 32.938 64.9269C32.6568 65.1458 32.4215 65.418 32.2455 65.7279C32.0696 66.0378 31.9565 66.3794 31.9126 66.733C31.8687 67.0867 31.895 67.4456 31.9899 67.7891C32.0847 68.1326 32.2462 68.4539 32.4654 68.7349L56.1202 98.6718C56.3829 98.9861 56.7098 99.2404 57.079 99.4178C57.4481 99.5952 57.8511 99.6915 58.2606 99.7003C58.8699 99.6925 59.4584 99.4768 59.9284 99.0888C60.2124 98.8746 60.4501 98.6052 60.6271 98.2967C60.8042 97.9882 60.9168 97.6469 60.9583 97.2936C60.9999 96.9404 60.9695 96.5824 60.869 96.2412C60.7684 95.9 60.5997 95.5828 60.3732 95.3085L36.7183 65.3717Z" stroke="white" stroke-width="0.4"/>
<path d="M198.751 65.0004C198.181 64.5561 197.46 64.3537 196.742 64.4369C196.024 64.5201 195.368 64.8822 194.915 65.445L171.26 95.3819C170.828 95.9532 170.635 96.6708 170.723 97.382C170.812 98.0931 171.174 98.7418 171.733 99.19C172.299 99.6173 173.008 99.8095 173.712 99.7267C174.417 99.6438 175.062 99.2922 175.513 98.7452L199.168 68.8084C199.617 68.2478 199.825 67.5322 199.747 66.8183C199.669 66.1044 199.311 65.4507 198.751 65.0004Z" stroke="white" stroke-width="0.4"/>
<path d="M208.353 72.6275L167.964 40.7449C161.355 35.5418 153.193 32.7037 144.782 32.6839L86.882 32.5449C78.4809 32.5478 70.3251 35.3773 63.7274 40.578L23.3392 72.4607C23.0561 72.682 22.8213 72.959 22.6492 73.2745C22.4771 73.59 22.3714 73.9374 22.3386 74.2953C22.2553 75.0094 22.4548 75.7277 22.8944 76.2966L46.5493 106.233C46.9995 106.793 47.6533 107.151 48.3671 107.229C49.081 107.307 49.7968 107.099 50.3574 106.65L67.7023 92.9744L68.1438 196.729C68.1345 197.097 68.2001 197.462 68.3366 197.804C68.473 198.145 68.6774 198.455 68.9374 198.715C69.1973 198.975 69.5075 199.18 69.8489 199.316C70.1903 199.453 70.5559 199.518 70.9234 199.509L161.651 199.509C162.019 199.518 162.384 199.453 162.726 199.316C163.067 199.18 163.377 198.975 163.637 198.715C163.897 198.455 164.102 198.145 164.238 197.804C164.375 197.463 164.44 197.097 164.431 196.729L163.85 93.0022L181.195 106.678C181.674 107.051 182.257 107.265 182.863 107.29C183.273 107.281 183.676 107.185 184.045 107.007C184.414 106.83 184.741 106.575 185.003 106.261L208.658 76.3243C209.078 75.7809 209.279 75.1005 209.222 74.4166C209.165 73.7326 208.855 73.0946 208.353 72.6275ZM140.362 37.993C139.661 43.9643 136.791 49.4701 132.297 53.4646C127.803 57.459 121.999 59.6639 115.986 59.6605C109.974 59.657 104.172 57.4456 99.6831 53.446C95.1939 49.4465 92.3299 43.9374 91.6352 37.9653L140.362 37.993ZM182.696 100.785L163.072 85.2749L162.6 85.0247C162.503 84.8827 162.38 84.7601 162.238 84.6633L161.71 84.5243L161.377 84.4687C161.197 84.4986 161.02 84.5451 160.848 84.6077C160.683 84.6202 160.522 84.6676 160.376 84.7467C160.243 84.8539 160.122 84.9751 160.014 85.108C159.876 85.247 159.764 85.3582 159.625 85.4972C159.625 85.4972 159.486 85.6362 159.403 85.7196C159.261 85.8367 159.131 85.967 159.014 86.1087C158.959 86.2794 158.931 86.4576 158.93 86.6369C158.848 86.7023 158.773 86.7769 158.708 86.8593L158.76 194.172L73.5363 194.061L73.0671 87.3874L73.0115 87.0538C73.0015 86.8641 72.9641 86.6769 72.9003 86.4979L72.539 86.1365C72.539 86.1365 72.5389 86.1365 72.3166 85.9141L71.5662 85.1637C71.4139 85.101 71.2554 85.0543 71.0935 85.0246C70.9337 84.9611 70.7649 84.9236 70.5932 84.9135L70.2597 84.9691L69.7037 85.0802C69.5715 85.1883 69.4504 85.3094 69.3424 85.4416L69.12 85.664L49.4957 101.174L29.2876 75.407L66.952 44.97C72.3531 40.7401 78.9681 38.3532 85.8257 38.1598C86.4869 45.6065 89.9123 52.5358 95.4274 57.583C100.943 62.6301 108.148 65.4293 115.624 65.4293C123.099 65.4293 130.305 62.6302 135.82 57.583C141.335 52.5359 144.76 45.6065 145.421 38.1598C152.279 38.3531 158.894 40.74 164.295 44.9699L202.71 75.1013L182.696 100.785Z" stroke="white" stroke-width="0.4"/>
</svg>
