<svg width="232" height="232" viewBox="0 0 232 232" fill="none" xmlns="http://www.w3.org/2000/svg">
<rect x="0.278564" y="0.748291" width="230.77" height="230.767" rx="15" fill="#9493F8"/>
<path d="M48.156 30.3706C49.8847 30.3706 51.297 31.7182 51.4036 33.4186V41.1208C51.4036 42.9151 49.9478 44.376 48.156 44.376C46.4274 44.376 45.015 43.0284 44.9084 41.3279V33.6182C44.9084 31.8251 46.3629 30.3706 48.156 30.3706Z" fill="white" stroke="#9493F8"/>
<path d="M101.412 105.82L101.672 105.782L101.789 105.547L109 90.94L109.001 90.9393C110.189 88.5222 113.636 88.5222 114.824 90.9393L114.825 90.94L122.036 105.547L122.152 105.782L122.412 105.82L138.537 108.165L138.609 107.67L138.537 108.165C141.139 108.544 142.215 111.676 140.474 113.567L140.33 113.718L128.673 125.076L128.484 125.26L128.529 125.519L131.28 141.582L131.28 141.582C131.724 144.175 129.081 146.168 126.732 145.093L126.56 145.007L112.149 137.422L111.916 137.3L111.683 137.422L97.2612 145.009C94.9328 146.23 92.2184 144.329 92.517 141.764L92.5457 141.578L95.2961 125.519L95.3404 125.26L95.1522 125.076L83.4884 113.711C81.6025 111.872 82.571 108.707 85.0945 108.2L85.2961 108.164L101.412 105.82ZM93.4667 114.351L101.106 121.799C101.106 121.799 101.106 121.799 101.106 121.799C101.814 122.494 102.167 123.472 102.071 124.452L102.036 124.676L102.035 124.683L100.235 135.182L100.064 136.18L100.961 135.71L110.402 130.751L110.404 130.75C111.275 130.289 112.314 130.26 113.21 130.648L113.431 130.755L122.866 135.71L123.762 136.18L123.591 135.182L121.79 124.676L121.79 124.674C121.618 123.699 121.912 122.7 122.565 121.961L122.727 121.8L122.731 121.795L130.36 114.351L131.084 113.643L130.082 113.498L119.53 111.965L119.528 111.965C118.542 111.826 117.681 111.238 117.19 110.386L117.082 110.185L112.365 100.628L111.917 99.7201L111.469 100.628L106.749 110.19C106.749 110.191 106.749 110.191 106.749 110.191C106.269 111.149 105.359 111.813 104.297 111.965L104.297 111.965L93.7439 113.498L92.7413 113.644L93.4667 114.351Z" fill="white" stroke="#9493F8"/>
<path d="M44.9016 119.879C44.9016 82.8721 74.9023 52.8713 111.91 52.8713C148.917 52.8713 178.918 82.8721 178.918 119.879C178.918 156.887 148.917 186.887 111.91 186.887C74.9023 186.887 44.9016 156.887 44.9016 119.879ZM172.415 119.88C172.415 86.4656 145.332 59.3739 111.91 59.3739C78.4955 59.3739 51.4038 86.4656 51.4038 119.88C51.4038 153.302 78.4954 180.393 111.91 180.393C145.332 180.393 172.415 153.302 172.415 119.88Z" fill="white" stroke="#9493F8"/>
<path d="M183.171 165.387C184.9 165.387 186.312 166.735 186.419 168.435V176.137C186.419 177.939 184.964 179.392 183.171 179.392C181.443 179.392 180.03 178.045 179.924 176.344V168.635C179.924 166.841 181.378 165.387 183.171 165.387Z" fill="white" stroke="#9493F8"/>
<path d="M48.156 52.8713C49.8847 52.8713 51.297 54.2189 51.4036 55.9194V63.6291C51.4036 65.4222 49.9491 66.8767 48.156 66.8767C46.4274 66.8767 45.015 65.5291 44.9084 63.8287V56.1266C44.9084 54.3252 46.3636 52.8713 48.156 52.8713Z" fill="white" stroke="#9493F8"/>
<path d="M183.171 187.888C184.9 187.888 186.312 189.235 186.419 190.936V198.645C186.419 200.439 184.964 201.893 183.171 201.893C181.443 201.893 180.03 200.545 179.924 198.845V191.143C179.924 189.349 181.38 187.888 183.171 187.888Z" fill="white" stroke="#9493F8"/>
<path d="M63.1609 45.3748C64.9539 45.3748 66.4084 46.8292 66.4084 48.6223C66.4084 50.351 65.0609 51.7633 63.3604 51.8699H55.6583C53.8569 51.8699 52.4031 50.4148 52.4031 48.6223C52.4031 46.8937 53.7506 45.4813 55.4511 45.3748H63.1609Z" fill="white" stroke="#9493F8"/>
<path d="M198.179 180.392C199.972 180.392 201.426 181.847 201.426 183.64C201.426 185.369 200.079 186.781 198.378 186.887H190.676C188.882 186.887 187.421 185.432 187.421 183.64C187.421 181.911 188.768 180.499 190.469 180.392H198.179Z" fill="white" stroke="#9493F8"/>
<path d="M40.652 45.3748C42.4464 45.3748 43.9072 46.8306 43.9072 48.6223C43.9072 50.351 42.5597 51.7633 40.8592 51.8699H33.1494C31.3564 51.8699 29.9019 50.4154 29.9019 48.6223C29.9019 46.8937 31.2494 45.4813 32.9499 45.3748H40.652Z" fill="white" stroke="#9493F8"/>
<path d="M175.67 180.392C177.471 180.392 178.925 181.848 178.925 183.64C178.925 185.369 177.578 186.781 175.877 186.887H168.167C166.374 186.887 164.92 185.433 164.92 183.64C164.92 181.911 166.268 180.499 167.968 180.392H175.67Z" fill="white" stroke="#9493F8"/>
<path d="M111.801 74.2935C86.4957 74.2935 65.9783 94.8109 65.9783 120.117C65.9783 145.422 86.4957 165.94 111.801 165.94C137.107 165.94 157.625 145.422 157.625 120.117C157.625 94.8109 137.107 74.2935 111.801 74.2935ZM59.531 120.117C59.531 91.2491 82.934 67.8462 111.801 67.8462C140.669 67.8462 164.072 91.2491 164.072 120.117C164.072 148.984 140.669 172.387 111.801 172.387C82.934 172.387 59.531 148.984 59.531 120.117Z" fill="white" stroke="#9493F8"/>
</svg>
