<svg width="1134" height="169" viewBox="0 0 1134 169" fill="none" xmlns="http://www.w3.org/2000/svg">
<path d="M1.50622 33.29V24.4112H36.7836V33.29H24.5752V65H13.7146V33.29H1.50622ZM78.3434 44.7056C78.3434 49.2243 77.4648 53.0361 75.7075 56.141C73.9503 59.2327 71.5786 61.578 68.5926 63.1767C65.6066 64.7622 62.2771 65.5549 58.604 65.5549C54.9045 65.5549 51.5617 64.7556 48.5757 63.1569C45.6029 61.5449 43.2379 59.1931 41.4806 56.1014C39.7366 52.9965 38.8645 49.1979 38.8645 44.7056C38.8645 40.187 39.7366 36.3818 41.4806 33.29C43.2379 30.1851 45.6029 27.8399 48.5757 26.2544C51.5617 24.6557 54.9045 23.8563 58.604 23.8563C62.2771 23.8563 65.6066 24.6557 68.5926 26.2544C71.5786 27.8399 73.9503 30.1851 75.7075 33.29C77.4648 36.3818 78.3434 40.187 78.3434 44.7056ZM67.0071 44.7056C67.0071 42.2745 66.6834 40.2266 66.036 38.5618C65.4018 36.8838 64.4571 35.6154 63.2019 34.7566C61.96 33.8846 60.4273 33.4486 58.604 33.4486C56.7807 33.4486 55.2414 33.8846 53.9862 34.7566C52.7442 35.6154 51.7996 36.8838 51.1521 38.5618C50.5179 40.2266 50.2008 42.2745 50.2008 44.7056C50.2008 47.1367 50.5179 49.1913 51.1521 50.8692C51.7996 52.534 52.7442 53.8024 53.9862 54.6744C55.2414 55.5333 56.7807 55.9627 58.604 55.9627C60.4273 55.9627 61.96 55.5333 63.2019 54.6744C64.4571 53.8024 65.4018 52.534 66.036 50.8692C66.6834 49.1913 67.0071 47.1367 67.0071 44.7056ZM80.4244 33.29V24.4112H115.702V33.29H103.493V65H92.6327V33.29H80.4244ZM125.269 65H113.378L126.775 24.4112H141.838L155.235 65H143.344L134.465 35.589H134.148L125.269 65ZM123.05 48.9865H145.405V57.2311H123.05V48.9865ZM159.144 65V24.4112H170.164V56.1212H186.574V65H159.144ZM226.166 24.4112H237.186V50.4134C237.186 53.5051 236.446 56.1807 234.966 58.44C233.499 60.6861 231.451 62.4236 228.822 63.6523C226.193 64.8679 223.141 65.4756 219.666 65.4756C216.165 65.4756 213.099 64.8679 210.47 63.6523C207.841 62.4236 205.793 60.6861 204.326 58.44C202.873 56.1807 202.146 53.5051 202.146 50.4134V24.4112H213.165V49.4621C213.165 50.7173 213.443 51.8404 213.998 52.8313C214.553 53.809 215.319 54.5753 216.297 55.1303C217.288 55.6852 218.411 55.9627 219.666 55.9627C220.934 55.9627 222.057 55.6852 223.035 55.1303C224.013 54.5753 224.779 53.809 225.334 52.8313C225.889 51.8404 226.166 50.7173 226.166 49.4621V24.4112ZM277.541 24.4112V65H268.346L253.68 43.675H253.442V65H242.423V24.4112H251.777L266.205 45.6569H266.522V24.4112H277.541ZM293.773 24.4112V65H282.754V24.4112H293.773ZM314.692 49.9378H323.253L326.345 53.8222L331.577 59.7679L338.395 68.0124H328.644L323.808 62.3839L320.558 57.7067L314.692 49.9378ZM338.316 44.7056C338.316 49.2243 337.437 53.0361 335.68 56.141C333.922 59.2327 331.551 61.578 328.565 63.1767C325.579 64.7622 322.249 65.5549 318.576 65.5549C314.877 65.5549 311.534 64.7556 308.548 63.1569C305.575 61.5449 303.21 59.1931 301.453 56.1014C299.709 52.9965 298.837 49.1979 298.837 44.7056C298.837 40.187 299.709 36.3818 301.453 33.29C303.21 30.1851 305.575 27.8399 308.548 26.2544C311.534 24.6557 314.877 23.8563 318.576 23.8563C322.249 23.8563 325.579 24.6557 328.565 26.2544C331.551 27.8399 333.922 30.1851 335.68 33.29C337.437 36.3818 338.316 40.187 338.316 44.7056ZM326.979 44.7056C326.979 42.2745 326.656 40.2266 326.008 38.5618C325.374 36.8838 324.429 35.6154 323.174 34.7566C321.932 33.8846 320.399 33.4486 318.576 33.4486C316.753 33.4486 315.214 33.8846 313.958 34.7566C312.716 35.6154 311.772 36.8838 311.124 38.5618C310.49 40.2266 310.173 42.2745 310.173 44.7056C310.173 47.1367 310.49 49.1913 311.124 50.8692C311.772 52.534 312.716 53.8024 313.958 54.6744C315.214 55.5333 316.753 55.9627 318.576 55.9627C320.399 55.9627 321.932 55.5333 323.174 54.6744C324.429 53.8024 325.374 52.534 326.008 50.8692C326.656 49.1913 326.979 47.1367 326.979 44.7056ZM367.489 24.4112H378.508V50.4134C378.508 53.5051 377.768 56.1807 376.288 58.44C374.822 60.6861 372.774 62.4236 370.145 63.6523C367.515 64.8679 364.463 65.4756 360.988 65.4756C357.487 65.4756 354.422 64.8679 351.792 63.6523C349.163 62.4236 347.115 60.6861 345.649 58.44C344.195 56.1807 343.468 53.5051 343.468 50.4134V24.4112H354.488V49.4621C354.488 50.7173 354.765 51.8404 355.32 52.8313C355.875 53.809 356.641 54.5753 357.619 55.1303C358.61 55.6852 359.733 55.9627 360.988 55.9627C362.257 55.9627 363.38 55.6852 364.357 55.1303C365.335 54.5753 366.101 53.809 366.656 52.8313C367.211 51.8404 367.489 50.7173 367.489 49.4621V24.4112ZM383.745 65V24.4112H412.998V33.29H394.764V40.2662H411.491V49.145H394.764V56.1212H412.918V65H383.745ZM453.601 24.4112H464.62V50.4134C464.62 53.5051 463.88 56.1807 462.401 58.44C460.934 60.6861 458.886 62.4236 456.257 63.6523C453.628 64.8679 450.575 65.4756 447.101 65.4756C443.599 65.4756 440.534 64.8679 437.905 63.6523C435.275 62.4236 433.228 60.6861 431.761 58.44C430.308 56.1807 429.581 53.5051 429.581 50.4134V24.4112H440.6V49.4621C440.6 50.7173 440.878 51.8404 441.432 52.8313C441.987 53.809 442.754 54.5753 443.731 55.1303C444.722 55.6852 445.845 55.9627 447.101 55.9627C448.369 55.9627 449.492 55.6852 450.47 55.1303C451.448 54.5753 452.214 53.809 452.769 52.8313C453.324 51.8404 453.601 50.7173 453.601 49.4621V24.4112ZM491.737 37.0952C491.632 35.774 491.136 34.7434 490.251 34.0035C489.379 33.2636 488.051 32.8937 486.267 32.8937C485.131 32.8937 484.2 33.0324 483.473 33.3099C482.759 33.5741 482.231 33.9374 481.887 34.3999C481.544 34.8623 481.366 35.3908 481.352 35.9854C481.326 36.4742 481.412 36.9169 481.61 37.3132C481.821 37.6964 482.152 38.0465 482.601 38.3636C483.05 38.6675 483.625 38.945 484.325 39.196C485.025 39.4471 485.858 39.6717 486.822 39.8699L490.152 40.5833C492.398 41.059 494.32 41.6866 495.919 42.4661C497.518 43.2456 498.826 44.1639 499.843 45.2209C500.861 46.2647 501.607 47.4406 502.083 48.7486C502.572 50.0567 502.823 51.4836 502.836 53.0295C502.823 55.6984 502.155 57.9577 500.834 59.8075C499.513 61.6572 497.624 63.0644 495.166 64.0289C492.722 64.9934 489.782 65.4756 486.347 65.4756C482.819 65.4756 479.74 64.9538 477.111 63.91C474.495 62.8662 472.46 61.2609 471.007 59.094C469.567 56.914 468.84 54.1261 468.827 50.7305H479.291C479.357 51.9725 479.668 53.0163 480.223 53.8619C480.778 54.7075 481.557 55.3483 482.561 55.7843C483.579 56.2203 484.788 56.4383 486.188 56.4383C487.364 56.4383 488.348 56.293 489.141 56.0023C489.934 55.7116 490.535 55.3086 490.945 54.7934C491.354 54.2781 491.566 53.6901 491.579 53.0295C491.566 52.4085 491.361 51.8668 490.964 51.4044C490.581 50.9287 489.947 50.5059 489.062 50.136C488.177 49.7528 486.981 49.3961 485.475 49.0657L481.432 48.1937C477.838 47.4142 475.004 46.1128 472.929 44.2894C470.868 42.4529 469.844 39.9491 469.857 36.7781C469.844 34.2017 470.531 31.949 471.919 30.0199C473.319 28.0777 475.255 26.5649 477.726 25.4815C480.209 24.398 483.057 23.8563 486.267 23.8563C489.544 23.8563 492.378 24.4046 494.77 25.5013C497.161 26.5979 499.004 28.1438 500.299 30.1389C501.607 32.1207 502.268 34.4395 502.281 37.0952H491.737ZM507.027 65V24.4112H536.28V33.29H518.047V40.2662H534.774V49.145H518.047V56.1212H536.201V65H507.027ZM541.745 65V24.4112H559.265C562.277 24.4112 564.913 24.9596 567.172 26.0562C569.432 27.1528 571.189 28.7317 572.444 30.7929C573.699 32.854 574.327 35.3248 574.327 38.2051C574.327 41.1118 573.679 43.5627 572.385 45.5578C571.103 47.5529 569.3 49.0591 566.974 50.0765C564.662 51.0939 561.96 51.6025 558.868 51.6025H548.404V43.0408H556.649C557.943 43.0408 559.047 42.8823 559.958 42.5652C560.883 42.2349 561.59 41.713 562.079 40.9995C562.581 40.286 562.832 39.3546 562.832 38.2051C562.832 37.0424 562.581 36.0977 562.079 35.371C561.59 34.6311 560.883 34.0894 559.958 33.7459C559.047 33.3891 557.943 33.2108 556.649 33.2108H552.764V65H541.745ZM565.527 46.3704L575.675 65H563.704L553.795 46.3704H565.527ZM600.904 37.0952C600.798 35.774 600.303 34.7434 599.417 34.0035C598.545 33.2636 597.218 32.8937 595.434 32.8937C594.298 32.8937 593.366 33.0324 592.639 33.3099C591.926 33.5741 591.397 33.9374 591.054 34.3999C590.71 34.8623 590.532 35.3908 590.519 35.9854C590.492 36.4742 590.578 36.9169 590.776 37.3132C590.988 37.6964 591.318 38.0465 591.767 38.3636C592.217 38.6675 592.791 38.945 593.492 39.196C594.192 39.4471 595.024 39.6717 595.989 39.8699L599.318 40.5833C601.564 41.059 603.487 41.6866 605.086 42.4661C606.684 43.2456 607.992 44.1639 609.01 45.2209C610.027 46.2647 610.774 47.4406 611.249 48.7486C611.738 50.0567 611.989 51.4836 612.002 53.0295C611.989 55.6984 611.322 57.9577 610.001 59.8075C608.679 61.6572 606.79 63.0644 604.332 64.0289C601.888 64.9934 598.948 65.4756 595.513 65.4756C591.985 65.4756 588.907 64.9538 586.278 63.91C583.662 62.8662 581.627 61.2609 580.173 59.094C578.733 56.914 578.007 54.1261 577.993 50.7305H588.458C588.524 51.9725 588.834 53.0163 589.389 53.8619C589.944 54.7075 590.724 55.3483 591.728 55.7843C592.745 56.2203 593.954 56.4383 595.355 56.4383C596.531 56.4383 597.515 56.293 598.308 56.0023C599.1 55.7116 599.702 55.3086 600.111 54.7934C600.521 54.2781 600.732 53.6901 600.745 53.0295C600.732 52.4085 600.527 51.8668 600.131 51.4044C599.748 50.9287 599.114 50.5059 598.228 50.136C597.343 49.7528 596.147 49.3961 594.641 49.0657L590.598 48.1937C587.004 47.4142 584.17 46.1128 582.096 44.2894C580.035 42.4529 579.011 39.9491 579.024 36.7781C579.011 34.2017 579.698 31.949 581.085 30.0199C582.486 28.0777 584.421 26.5649 586.892 25.4815C589.376 24.398 592.223 23.8563 595.434 23.8563C598.711 23.8563 601.545 24.4046 603.936 25.5013C606.328 26.5979 608.171 28.1438 609.466 30.1389C610.774 32.1207 611.434 34.4395 611.447 37.0952H600.904Z" fill="#9493F8"/>
<rect y="79" width="361" height="66" rx="33" fill="#9493F8"/>
<path d="M30.6161 132.5V91.9109H48.2153C51.307 91.9109 53.9033 92.3271 56.0041 93.1595C58.1181 93.9919 59.7102 95.1678 60.7805 96.6873C61.8639 98.2067 62.4056 99.997 62.4056 102.058C62.4056 103.551 62.0753 104.912 61.4147 106.141C60.7672 107.37 59.8556 108.4 58.6796 109.233C57.5037 110.052 56.1296 110.62 54.5573 110.937V111.333C56.3014 111.399 57.8869 111.842 59.3139 112.661C60.7408 113.467 61.8771 114.584 62.7227 116.011C63.5683 117.424 63.9911 119.089 63.9911 121.005C63.9911 123.225 63.4098 125.2 62.247 126.931C61.0976 128.662 59.4592 130.023 57.332 131.014C55.2047 132.005 52.6679 132.5 49.7215 132.5H30.6161ZM41.6354 123.7H46.7883C48.6381 123.7 50.0254 123.357 50.9503 122.67C51.8752 121.97 52.3376 120.939 52.3376 119.578C52.3376 118.627 52.1196 117.821 51.6836 117.16C51.2476 116.5 50.6266 115.997 49.8206 115.654C49.0278 115.31 48.0699 115.139 46.9469 115.139H41.6354V123.7ZM41.6354 108.321H46.1541C47.1186 108.321 47.9708 108.169 48.7107 107.865C49.4506 107.561 50.0254 107.125 50.435 106.557C50.8578 105.976 51.0692 105.269 51.0692 104.436C51.0692 103.181 50.62 102.223 49.7215 101.563C48.8231 100.889 47.6868 100.552 46.3127 100.552H41.6354V108.321ZM65.6725 91.9109H77.9603L85.8878 108.4H86.2049L94.1325 91.9109H106.42L91.5164 119.737V132.5H80.5763V119.737L65.6725 91.9109ZM120.015 91.9109H133.729L143.163 114.901H143.639L153.072 91.9109H166.787V132.5H156.006V109.034H155.689L146.651 132.183H140.151L131.113 108.876H130.796V132.5H120.015V91.9109ZM210.772 112.205C210.772 116.724 209.893 120.536 208.136 123.641C206.379 126.733 204.007 129.078 201.021 130.677C198.035 132.262 194.705 133.055 191.032 133.055C187.333 133.055 183.99 132.256 181.004 130.657C178.031 129.045 175.666 126.693 173.909 123.601C172.165 120.496 171.293 116.698 171.293 112.205C171.293 107.687 172.165 103.882 173.909 100.79C175.666 97.6848 178.031 95.3396 181.004 93.7541C183.99 92.1553 187.333 91.356 191.032 91.356C194.705 91.356 198.035 92.1553 201.021 93.7541C204.007 95.3396 206.379 97.6848 208.136 100.79C209.893 103.882 210.772 107.687 210.772 112.205ZM199.436 112.205C199.436 109.774 199.112 107.726 198.464 106.062C197.83 104.384 196.886 103.115 195.63 102.256C194.388 101.384 192.856 100.948 191.032 100.948C189.209 100.948 187.67 101.384 186.415 102.256C185.173 103.115 184.228 104.384 183.58 106.062C182.946 107.726 182.629 109.774 182.629 112.205C182.629 114.637 182.946 116.691 183.58 118.369C184.228 120.034 185.173 121.302 186.415 122.174C187.67 123.033 189.209 123.463 191.032 123.463C192.856 123.463 194.388 123.033 195.63 122.174C196.886 121.302 197.83 120.034 198.464 118.369C199.112 116.691 199.436 114.637 199.436 112.205ZM250.431 91.9109V132.5H241.235L226.569 111.175H226.332V132.5H215.312V91.9109H224.667L239.095 113.157H239.412V91.9109H250.431ZM253.976 100.79V91.9109H289.253V100.79H277.045V132.5H266.184V100.79H253.976ZM292.842 132.5V91.9109H303.862V107.766H318.448V91.9109H329.468V132.5H318.448V116.645H303.862V132.5H292.842Z" fill="white"/>
<rect x="369" y="79" width="95" height="66" rx="33" fill="#9493F8"/>
<path d="M412.855 133.134C409.948 133.134 407.445 132.619 405.344 131.588C403.243 130.558 401.631 129.177 400.508 127.446C399.385 125.715 398.823 123.806 398.823 121.719C398.823 120.199 399.114 118.858 399.695 117.695C400.277 116.519 401.089 115.443 402.133 114.465C403.177 113.487 404.399 112.523 405.8 111.571L414.996 105.863C415.92 105.282 416.548 104.681 416.878 104.06C417.209 103.426 417.374 102.864 417.374 102.375C417.374 101.728 417.136 101.153 416.66 100.651C416.185 100.149 415.445 99.9045 414.441 99.9177C413.82 99.9177 413.285 100.037 412.835 100.274C412.386 100.499 412.036 100.816 411.785 101.226C411.547 101.635 411.428 102.124 411.428 102.692C411.428 103.472 411.653 104.271 412.102 105.09C412.551 105.896 413.166 106.768 413.945 107.707C414.725 108.645 415.603 109.695 416.581 110.858L436.241 132.5H425.301L408.812 115.059C408.006 114.201 407.114 113.15 406.137 111.908C405.159 110.653 404.313 109.239 403.6 107.667C402.899 106.095 402.549 104.384 402.549 102.534C402.549 100.473 403.045 98.5899 404.036 96.8854C405.027 95.181 406.414 93.8201 408.198 92.8028C409.981 91.7854 412.062 91.2767 414.441 91.2767C416.713 91.2767 418.669 91.7457 420.307 92.6838C421.959 93.6219 423.227 94.8705 424.112 96.4296C425.011 97.9887 425.46 99.7063 425.46 101.583C425.46 103.472 424.991 105.236 424.053 106.874C423.128 108.513 421.8 109.946 420.069 111.175L411.666 117.121C411.019 117.57 410.457 118.085 409.981 118.666C409.519 119.248 409.288 120.001 409.288 120.926C409.288 121.692 409.466 122.346 409.823 122.888C410.18 123.43 410.682 123.846 411.329 124.136C411.99 124.427 412.763 124.572 413.648 124.572C414.996 124.572 416.343 124.249 417.691 123.601C419.052 122.941 420.294 122.022 421.417 120.846C422.54 119.657 423.438 118.257 424.112 116.645C424.799 115.02 425.143 113.249 425.143 111.333H433.784C433.784 113.685 433.539 115.951 433.051 118.131C432.562 120.311 431.776 122.306 430.692 124.117C429.609 125.927 428.182 127.453 426.411 128.695C425.856 128.972 425.315 129.236 424.786 129.488C424.258 129.739 423.716 130.003 423.161 130.28C421.536 131.324 419.838 132.064 418.067 132.5C416.297 132.923 414.56 133.134 412.855 133.134Z" fill="white"/>
<rect x="472" y="79" width="303" height="66" rx="33" fill="#9493F8"/>
<path d="M502.616 132.5V91.9109H520.215C523.307 91.9109 525.903 92.3271 528.004 93.1595C530.118 93.9919 531.71 95.1678 532.78 96.6873C533.864 98.2067 534.406 99.997 534.406 102.058C534.406 103.551 534.075 104.912 533.415 106.141C532.767 107.37 531.856 108.4 530.68 109.233C529.504 110.052 528.13 110.62 526.557 110.937V111.333C528.301 111.399 529.887 111.842 531.314 112.661C532.741 113.467 533.877 114.584 534.723 116.011C535.568 117.424 535.991 119.089 535.991 121.005C535.991 123.225 535.41 125.2 534.247 126.931C533.098 128.662 531.459 130.023 529.332 131.014C527.205 132.005 524.668 132.5 521.722 132.5H502.616ZM513.635 123.7H518.788C520.638 123.7 522.025 123.357 522.95 122.67C523.875 121.97 524.338 120.939 524.338 119.578C524.338 118.627 524.12 117.821 523.684 117.16C523.248 116.5 522.627 115.997 521.821 115.654C521.028 115.31 520.07 115.139 518.947 115.139H513.635V123.7ZM513.635 108.321H518.154C519.119 108.321 519.971 108.169 520.711 107.865C521.451 107.561 522.025 107.125 522.435 106.557C522.858 105.976 523.069 105.269 523.069 104.436C523.069 103.181 522.62 102.223 521.722 101.563C520.823 100.889 519.687 100.552 518.313 100.552H513.635V108.321ZM537.673 91.9109H549.96L557.888 108.4H558.205L566.132 91.9109H578.42L563.516 119.737V132.5H552.576V119.737L537.673 91.9109ZM590.35 91.9109H602.637L610.565 108.4H610.882L618.81 91.9109H631.097L616.194 119.737V132.5H605.254V119.737L590.35 91.9109ZM634.131 132.5V91.9109H663.384V100.79H645.151V107.766H661.878V116.645H645.151V123.621H663.305V132.5H634.131ZM678.835 132.5H666.943L680.341 91.9109H695.403L708.801 132.5H696.91L688.031 103.089H687.714L678.835 132.5ZM676.615 116.486H698.971V124.731H676.615V116.486ZM712.152 132.5V91.9109H729.672C732.685 91.9109 735.32 92.4592 737.58 93.5559C739.839 94.6525 741.596 96.2314 742.852 98.2926C744.107 100.354 744.734 102.825 744.734 105.705C744.734 108.612 744.087 111.063 742.792 113.058C741.511 115.053 739.707 116.559 737.382 117.576C735.069 118.594 732.367 119.102 729.276 119.102H718.811V110.541H727.056C728.351 110.541 729.454 110.382 730.366 110.065C731.291 109.735 731.997 109.213 732.486 108.499C732.988 107.786 733.239 106.854 733.239 105.705C733.239 104.542 732.988 103.597 732.486 102.871C731.997 102.131 731.291 101.589 730.366 101.246C729.454 100.889 728.351 100.71 727.056 100.71H723.171V132.5H712.152ZM735.935 113.87L746.082 132.5H734.111L724.202 113.87H735.935Z" fill="white"/>
</svg>
