<svg width="232" height="232" viewBox="0 0 232 232" fill="none" xmlns="http://www.w3.org/2000/svg">
<rect x="0.834473" y="0.643555" width="230.77" height="230.767" rx="15" fill="#9493F8"/>
<path d="M172.555 52.1074L175.43 52.0777V52.0777L172.555 52.1074ZM169.374 58.8983L167.317 56.8902L166.571 57.6543L166.505 58.72L169.374 58.8983ZM116.011 32.5536L115.982 29.6787L116.011 32.5536ZM59.884 53.2719L57.0091 53.3016L59.884 53.2719ZM62.9754 59.7661L65.8439 59.5722L65.7724 58.5142L65.031 57.756L62.9754 59.7661ZM65.5888 98.4448L62.7204 98.6386L65.5888 98.4448ZM67.3472 110.167L64.5482 110.824L67.3472 110.167ZM68.8522 116.585L71.6512 115.929L68.8522 116.585ZM70.5882 127.988L73.4558 127.782L70.5882 127.988ZM74.7544 186.309L71.8847 186.483L74.7544 186.309ZM79.2997 191.465L80.3334 188.782L79.2997 191.465ZM82.7075 194.527L79.8846 195.072H79.8846L82.7075 194.527ZM82.7934 194.925L80.013 195.656L80.0131 195.656L82.7934 194.925ZM90.8663 198.927L91.2005 196.072L90.8663 198.927ZM98.9001 199.438L98.9687 202.312H98.9687L98.9001 199.438ZM99.7915 199.432L99.8786 196.558H99.8785L99.7915 199.432ZM117.59 202.008L117.5 199.135L117.59 202.008ZM127.349 200.352L128.026 203.147L127.349 200.352ZM130.353 199.705L130.688 202.561L130.353 199.705ZM133.067 199.542L132.934 196.67H132.934L133.067 199.542ZM145.067 198.144L144.181 195.409H144.181L145.067 198.144ZM150.375 193.789L153.012 194.935V194.935L150.375 193.789ZM150.443 193.633L147.808 192.482L147.808 192.482L150.443 193.633ZM154.487 191.033L153.475 188.342L153.475 188.342L154.487 191.033ZM155.559 190.588L154.133 188.091L154.133 188.091L155.559 190.588ZM155.571 190.581L156.996 193.077L156.997 193.077L155.571 190.581ZM158.262 185.834L155.39 185.709L158.262 185.834ZM161.96 128.879L164.828 129.068L161.96 128.879ZM163.807 116.711L166.603 117.381H166.603L163.807 116.711ZM164.997 111.746L167.793 112.416L164.997 111.746ZM166.864 99.2816L169.734 99.46L166.864 99.2816ZM169.68 52.1371C169.695 53.512 169.059 55.1057 167.317 56.8902L171.432 60.9065C173.856 58.4231 175.465 55.4436 175.43 52.0777L169.68 52.1371ZM116.041 35.4284C131.357 35.2701 145.122 37.3517 154.968 40.7567C159.904 42.4635 163.701 44.4503 166.214 46.5302C168.741 48.6211 169.664 50.5303 169.68 52.1371L175.43 52.0777C175.389 48.124 173.105 44.7686 169.88 42.1003C166.642 39.421 162.144 37.1541 156.847 35.3224C146.229 31.6504 131.779 29.5154 115.982 29.6787L116.041 35.4284ZM62.7588 53.2422C62.7422 51.6354 63.6254 49.7076 66.1084 47.5649C68.5784 45.4335 72.3334 43.3686 77.2327 41.5601C87.0065 37.9523 100.725 35.5867 116.041 35.4284L115.982 29.6787C100.185 29.842 85.7819 32.2751 75.2416 36.1659C69.9838 38.1067 65.5335 40.4661 62.3518 43.2117C59.1832 45.946 56.9683 49.348 57.0091 53.3016L62.7588 53.2422ZM65.031 57.756C63.3935 56.0815 62.7725 54.5685 62.7588 53.2422L57.0091 53.3016C57.0426 56.5431 58.5947 59.3983 60.9198 61.7761L65.031 57.756ZM68.4573 98.251L65.8439 59.5722L60.1069 59.9599L62.7204 98.6386L68.4573 98.251ZM70.1463 109.511C69.2785 105.81 68.7136 102.044 68.4573 98.251L62.7204 98.6386C62.9977 102.743 63.609 106.818 64.5482 110.824L70.1463 109.511ZM71.6512 115.929L70.1463 109.511L64.5482 110.824L66.0531 117.242L71.6512 115.929ZM73.4558 127.782C73.1688 123.786 72.5656 119.829 71.6512 115.929L66.0531 117.242C66.8982 120.846 67.4554 124.502 67.7205 128.194L73.4558 127.782ZM77.6241 186.135C77.5237 184.477 75.0162 149.507 73.4558 127.782L67.7205 128.194C69.2837 149.957 71.7868 184.868 71.8847 186.483L77.6241 186.135ZM80.3334 188.782C78.6846 188.147 78.1389 187.652 77.9465 187.409C77.8133 187.24 77.676 186.991 77.6241 186.135L71.8847 186.483C71.9685 187.866 72.2552 189.482 73.4364 190.976C74.5583 192.394 76.2174 193.358 78.2659 194.148L80.3334 188.782ZM85.5303 193.982C85.4311 193.468 85.2318 192.316 84.2277 191.186C83.332 190.179 82.0265 189.435 80.3334 188.782L78.2659 194.148C78.9175 194.399 79.3378 194.61 79.6029 194.77C79.8645 194.929 79.9382 195.015 79.9304 195.007C79.9075 194.981 79.8661 194.918 79.8399 194.849C79.8303 194.823 79.836 194.821 79.8846 195.072L85.5303 193.982ZM85.5737 194.193C85.5677 194.17 85.5592 194.132 85.5303 193.982L79.8846 195.072C79.9075 195.191 79.9502 195.417 80.013 195.656L85.5737 194.193ZM91.2005 196.072C88.2535 195.727 86.7888 195.108 86.109 194.672C85.518 194.292 85.5421 194.073 85.5737 194.193L80.0131 195.656C80.3568 196.962 81.2289 198.371 83.002 199.51C84.6865 200.592 87.1021 201.381 90.5321 201.783L91.2005 196.072ZM98.8316 196.564C97.7802 196.589 96.0571 196.64 91.2005 196.072L90.5321 201.783C95.6498 202.382 97.6421 202.344 98.9687 202.312L98.8316 196.564ZM99.8785 196.558C99.506 196.547 99.1466 196.556 98.8315 196.564L98.9687 202.312C99.3162 202.304 99.5156 202.3 99.7045 202.306L99.8785 196.558ZM106.985 197.876C104.102 196.915 101.4 196.604 99.8786 196.558L99.7044 202.306C100.759 202.338 102.897 202.574 105.166 203.33L106.985 197.876ZM117.5 199.135C112.804 199.281 109.204 198.615 106.985 197.876L105.166 203.33C108.099 204.308 112.383 205.047 117.679 204.882L117.5 199.135ZM126.671 197.558C123.937 198.221 120.514 199.04 117.5 199.135L117.679 204.882C121.393 204.766 125.405 203.782 128.026 203.147L126.671 197.558ZM130.017 196.85C129.148 196.952 127.875 197.266 126.671 197.558L128.026 203.147C129.42 202.808 130.257 202.611 130.688 202.561L130.017 196.85ZM132.934 196.67C131.773 196.724 130.665 196.774 130.017 196.85L130.688 202.561C131.079 202.515 131.912 202.474 133.201 202.414L132.934 196.67ZM144.181 195.409C142.987 195.796 141.122 196.084 138.962 196.288C136.853 196.487 134.676 196.589 132.934 196.67L133.201 202.414C134.927 202.334 137.236 202.227 139.503 202.013C141.718 201.803 144.118 201.473 145.953 200.879L144.181 195.409ZM147.739 192.642C147.368 193.496 147.223 193.767 146.936 194.047C146.632 194.342 145.944 194.838 144.181 195.409L145.953 200.879C148.165 200.163 149.77 199.312 150.946 198.167C152.139 197.006 152.661 195.743 153.012 194.935L147.739 192.642ZM147.808 192.482C147.785 192.537 147.761 192.591 147.739 192.642L153.012 194.935C153.035 194.883 153.056 194.833 153.078 194.783L147.808 192.482ZM153.475 188.342C152.815 188.59 151.749 188.986 150.769 189.526C149.884 190.015 148.489 190.923 147.808 192.482L153.078 194.783C153.003 194.955 152.933 194.988 153.025 194.907C153.114 194.828 153.279 194.709 153.547 194.561C154.103 194.254 154.777 193.995 155.499 193.724L153.475 188.342ZM154.133 188.091C154.181 188.064 154.201 188.056 154.173 188.069C154.149 188.08 154.107 188.098 154.039 188.126C153.897 188.183 153.72 188.25 153.475 188.342L155.499 193.724C155.848 193.593 156.517 193.352 156.985 193.084L154.133 188.091ZM154.145 188.084L154.133 188.091L156.985 193.084L156.996 193.077L154.145 188.084ZM155.39 185.709C155.34 186.844 155.046 187.321 154.903 187.508C154.732 187.731 154.54 187.858 154.145 188.085L156.997 193.077C157.457 192.814 158.54 192.213 159.465 191.008C160.417 189.767 161.04 188.115 161.134 185.959L155.39 185.709ZM159.091 128.689C157.698 149.758 155.495 183.272 155.39 185.709L161.134 185.959C161.236 183.608 163.431 150.211 164.828 129.068L159.091 128.689ZM161.011 116.04C160.015 120.195 159.373 124.425 159.091 128.689L164.828 129.068C165.089 125.129 165.683 121.22 166.603 117.381L161.011 116.04ZM162.201 111.075L161.011 116.04L166.603 117.381L167.793 112.416L162.201 111.075ZM163.995 99.1032C163.744 103.138 163.144 107.144 162.201 111.075L167.793 112.416C168.813 108.161 169.462 103.826 169.734 99.46L163.995 99.1032ZM166.505 58.72L163.995 99.1032L169.734 99.46L172.244 59.0767L166.505 58.72Z" fill="white"/>
<path d="M159.342 52.6477C159.274 52.8114 158.929 53.4795 157.158 54.4891C155.132 55.6441 152.011 56.7795 147.921 57.7774C139.788 59.7619 128.468 61.0507 116.068 61.1789C103.675 61.307 92.4582 60.2127 84.4146 58.3603C80.37 57.4288 77.2905 56.3418 75.289 55.221C73.5461 54.2449 73.1857 53.5802 73.1118 53.4005C73.1433 53.3422 73.205 53.2458 73.3213 53.1092C73.6481 52.7257 74.2559 52.2118 75.2583 51.6195C77.2582 50.4376 80.3343 49.2297 84.3558 48.1434C92.3581 45.9819 103.536 44.4514 115.894 44.3237C128.254 44.196 139.583 45.4893 147.751 47.5018C151.856 48.5131 155.016 49.671 157.084 50.8334C158.12 51.4159 158.755 51.9298 159.102 52.3207C159.241 52.4779 159.31 52.5862 159.342 52.6477ZM73.0816 53.468C73.0814 53.468 73.0822 53.4648 73.0846 53.4582C73.083 53.4647 73.0818 53.468 73.0816 53.468ZM159.365 52.6986C159.368 52.7055 159.368 52.7089 159.368 52.7089C159.368 52.7089 159.367 52.7054 159.365 52.6986Z" stroke="white" stroke-width="5.75"/>
</svg>
