<svg width="746" height="287" viewBox="0 0 746 287" fill="none" xmlns="http://www.w3.org/2000/svg">
<path d="M2.61607 65V24.4112H31.8685V33.29H13.6353V40.2662H30.3623V49.145H13.6353V56.1212H31.7892V65H2.61607ZM72.4523 24.4112V65H63.2564L48.5906 43.675H48.3527V65H37.3335V24.4112H46.688L61.116 45.6569H61.4331V24.4112H72.4523ZM88.7631 24.4112L97.087 53.0295H97.4041L105.728 24.4112H118.174L104.777 65H89.7144L76.317 24.4112H88.7631ZM133.103 24.4112V65H122.083V24.4112H133.103ZM138.325 65V24.4112H155.845C158.857 24.4112 161.493 24.9596 163.752 26.0562C166.012 27.1528 167.769 28.7317 169.024 30.7929C170.279 32.854 170.907 35.3248 170.907 38.2051C170.907 41.1118 170.259 43.5627 168.965 45.5578C167.683 47.5529 165.879 49.0591 163.554 50.0765C161.242 51.0939 158.54 51.6025 155.448 51.6025H144.984V43.0408H153.228C154.523 43.0408 155.627 42.8823 156.538 42.5652C157.463 42.2349 158.17 41.713 158.659 40.9995C159.161 40.286 159.412 39.3546 159.412 38.2051C159.412 37.0424 159.161 36.0977 158.659 35.371C158.17 34.6311 157.463 34.0894 156.538 33.7459C155.627 33.3891 154.523 33.2108 153.228 33.2108H149.344V65H138.325ZM162.107 46.3704L172.254 65H160.284L150.375 46.3704H162.107ZM214.924 44.7056C214.924 49.2243 214.046 53.0361 212.288 56.141C210.531 59.2327 208.159 61.578 205.173 63.1767C202.187 64.7622 198.858 65.5549 195.185 65.5549C191.485 65.5549 188.142 64.7556 185.156 63.1569C182.184 61.5449 179.819 59.1931 178.061 56.1014C176.317 52.9965 175.445 49.1979 175.445 44.7056C175.445 40.187 176.317 36.3818 178.061 33.29C179.819 30.1851 182.184 27.8399 185.156 26.2544C188.142 24.6557 191.485 23.8563 195.185 23.8563C198.858 23.8563 202.187 24.6557 205.173 26.2544C208.159 27.8399 210.531 30.1851 212.288 33.29C214.046 36.3818 214.924 40.187 214.924 44.7056ZM203.588 44.7056C203.588 42.2745 203.264 40.2266 202.617 38.5618C201.983 36.8838 201.038 35.6154 199.783 34.7566C198.541 33.8846 197.008 33.4486 195.185 33.4486C193.361 33.4486 191.822 33.8846 190.567 34.7566C189.325 35.6154 188.38 36.8838 187.733 38.5618C187.099 40.2266 186.782 42.2745 186.782 44.7056C186.782 47.1367 187.099 49.1913 187.733 50.8692C188.38 52.534 189.325 53.8024 190.567 54.6744C191.822 55.5333 193.361 55.9627 195.185 55.9627C197.008 55.9627 198.541 55.5333 199.783 54.6744C201.038 53.8024 201.983 52.534 202.617 50.8692C203.264 49.1913 203.588 47.1367 203.588 44.7056ZM220.023 24.4112H233.737L243.171 47.401H243.646L253.08 24.4112H266.795V65H256.013V41.5346H255.696L246.659 64.6829H240.158L231.121 41.3761H230.804V65H220.023V24.4112ZM272.017 65V24.4112H301.269V33.29H283.036V40.2662H299.763V49.145H283.036V56.1212H301.19V65H272.017ZM341.853 24.4112V65H332.657L317.991 43.675H317.754V65H306.734V24.4112H316.089L330.517 45.6569H330.834V24.4112H341.853ZM345.956 33.29V24.4112H381.233V33.29H369.025V65H358.164V33.29H345.956ZM390.801 65H378.909L392.307 24.4112H407.369L420.766 65H408.875L399.996 35.589H399.679L390.801 65ZM388.581 48.9865H410.936V57.2311H388.581V48.9865ZM424.676 65V24.4112H435.695V56.1212H452.105V65H424.676ZM478.697 24.4112V65H467.677V24.4112H478.697ZM483.919 24.4112H497.633L507.067 47.401H507.543L516.976 24.4112H530.691V65H519.91V41.5346H519.593L510.555 64.6829H504.055L495.017 41.3761H494.7V65H483.919V24.4112ZM535.913 65V24.4112H553.433C556.445 24.4112 559.081 25.0058 561.341 26.1949C563.6 27.3841 565.357 29.0554 566.612 31.2091C567.868 33.3627 568.495 35.8797 568.495 38.76C568.495 41.6667 567.848 44.1837 566.553 46.3109C565.271 48.4381 563.468 50.0765 561.142 51.226C558.83 52.3755 556.128 52.9502 553.037 52.9502H542.572V44.3885H550.817C552.112 44.3885 553.215 44.1639 554.127 43.7147C555.052 43.2522 555.758 42.5982 556.247 41.7526C556.749 40.907 557 39.9095 557 38.76C557 37.5973 556.749 36.6064 556.247 35.7872C555.758 34.9548 555.052 34.3206 554.127 33.8846C553.215 33.4354 552.112 33.2108 550.817 33.2108H546.932V65H535.913ZM578.013 65H566.122L579.519 24.4112H594.582L607.979 65H596.088L587.209 35.589H586.892L578.013 65ZM575.794 48.9865H598.149V57.2311H575.794V48.9865ZM647.874 39.632H636.696C636.617 38.7072 636.406 37.8682 636.062 37.115C635.732 36.3619 635.27 35.7145 634.675 35.1728C634.094 34.6179 633.387 34.1951 632.554 33.9044C631.722 33.6005 630.777 33.4486 629.72 33.4486C627.871 33.4486 626.305 33.8978 625.023 34.7963C623.755 35.6947 622.79 36.9829 622.13 38.6609C621.482 40.3389 621.159 42.3538 621.159 44.7056C621.159 47.1896 621.489 49.2705 622.15 50.9485C622.823 52.6133 623.794 53.8685 625.063 54.7141C626.331 55.5465 627.857 55.9627 629.641 55.9627C630.658 55.9627 631.57 55.8371 632.376 55.5861C633.182 55.3219 633.882 54.9453 634.477 54.4564C635.071 53.9676 635.554 53.3796 635.924 52.6926C636.307 51.9923 636.564 51.2062 636.696 50.3341L647.874 50.4134C647.742 52.131 647.26 53.8817 646.427 55.6654C645.595 57.4359 644.413 59.0742 642.88 60.5804C641.36 62.0734 639.478 63.2758 637.232 64.1874C634.985 65.0991 632.376 65.5549 629.403 65.5549C625.677 65.5549 622.334 64.7556 619.375 63.1569C616.429 61.5581 614.097 59.2063 612.379 56.1014C610.674 52.9965 609.822 49.1979 609.822 44.7056C609.822 40.187 610.694 36.3818 612.438 33.29C614.182 30.1851 616.534 27.8399 619.494 26.2544C622.453 24.6557 625.757 23.8563 629.403 23.8563C631.966 23.8563 634.325 24.2064 636.478 24.9067C638.632 25.607 640.521 26.6309 642.147 27.9786C643.772 29.3131 645.08 30.958 646.071 32.9135C647.062 34.8689 647.663 37.1084 647.874 39.632ZM651.764 33.29V24.4112H687.041V33.29H674.833V65H663.972V33.29H651.764Z" fill="#9493F8"/>
<g clip-path="url(#clip0_86_150)">
<rect x="2.41724" y="89" width="197.308" height="197.306" rx="12.825" fill="#9493F8"/>
<path d="M56.0826 148.356C67.1539 146.806 70.9668 150.349 76.2821 155.245C81.399 159.968 87.7468 165.848 101.893 168.628C103.689 168.973 105.484 169.145 107.257 169.145C118.574 169.145 129.178 162.281 133.802 152.071C138.402 155.712 142.314 159.968 144.997 164.816C145.439 165.627 146.277 166.071 147.163 166.071C147.556 166.071 147.974 165.972 148.343 165.75C149.524 165.085 149.968 163.585 149.303 162.404C145.981 156.401 141.136 151.284 135.526 147.027C135.575 146.782 135.649 146.561 135.698 146.338C137.248 138.834 135.771 131.207 131.565 124.81C127.359 118.414 120.912 114.059 113.408 112.51C73.5277 104.292 53.7217 144.444 53.525 144.862C53.1315 145.673 53.2291 146.658 53.7461 147.37C54.2859 148.109 55.1721 148.502 56.0826 148.356ZM112.423 117.331C118.622 118.61 123.96 122.226 127.455 127.516C130.677 132.412 131.933 138.218 131.095 143.975C121.993 138.218 111.437 134.553 101.72 133.101L95.1758 126.556C94.2165 125.597 92.667 125.597 91.7076 126.556C90.7483 127.516 90.7483 129.065 91.7076 130.025L94.0702 132.387C87.7468 132.215 82.1128 133.125 77.9796 135.192C76.7747 135.807 76.2821 137.283 76.8723 138.489C77.4869 139.694 78.9633 140.211 80.1698 139.597C87.7224 135.808 101.968 136.841 115.548 141.959L111.366 146.141C110.406 147.101 110.406 148.65 111.366 149.609C111.858 150.102 112.473 150.323 113.112 150.323C113.751 150.323 114.367 150.078 114.858 149.609L120.468 144C123.666 145.476 126.791 147.174 129.718 149.092C125.585 159.45 114.144 165.994 102.828 163.78C90.0589 161.271 84.4981 156.128 79.6023 151.626C74.8545 147.247 70.3522 143.063 60.8793 143.063C60.6337 143.063 60.3866 143.063 60.1411 143.063C65.923 133.665 83.0461 111.253 112.421 117.305L112.423 117.331Z" fill="white"/>
<path d="M81.8657 232.767C83.3908 225.977 85.3095 217.538 80.6348 203.907C76.2805 191.188 63.2402 183.266 50.3251 184.545C51.1608 178.739 52.9088 173.253 55.7623 168.479C56.4518 167.323 56.0827 165.798 54.9266 165.109C53.7461 164.395 52.2454 164.788 51.556 165.944C48.0374 171.824 45.9951 178.565 45.135 185.578C44.9139 185.651 44.6683 185.702 44.4456 185.775C29.4623 190.745 21.3178 207.008 26.2884 221.992C37.384 255.402 72.2464 257.738 81.8169 257.738C83.3177 257.738 84.2038 257.69 84.2526 257.665C85.1631 257.592 85.9501 257.026 86.3192 256.213C86.6883 255.378 86.5647 254.417 85.9989 253.704C79.134 244.897 80.2657 239.804 81.8657 232.767ZM30.963 220.416C26.9778 208.434 33.1288 195.544 44.7155 190.918C44.2976 201.669 46.3886 212.642 49.9804 221.793L47.5935 230.725C47.2488 232.029 48.0113 233.381 49.3398 233.726C49.5609 233.775 49.7576 233.799 49.9788 233.799C51.0617 233.799 52.0698 233.086 52.3657 231.978L53.2275 228.756C56.2534 234.316 59.8451 238.744 63.7085 241.279C64.1263 241.549 64.5946 241.697 65.0613 241.697C65.8482 241.697 66.6352 241.303 67.1279 240.589C67.8661 239.458 67.5701 237.933 66.4385 237.17C59.4029 232.52 53.1527 219.678 50.7917 205.359L56.4989 206.885C56.72 206.933 56.9168 206.958 57.1379 206.958C58.2208 206.958 59.2289 206.244 59.5248 205.137C59.8695 203.833 59.107 202.48 57.7785 202.135L50.1023 200.069C49.782 196.55 49.6845 192.983 49.9056 189.49C51.0129 189.342 52.0958 189.244 53.2031 189.244C63.1182 189.244 72.7131 195.641 76.0593 205.457C80.2657 217.784 78.6186 225.139 77.1422 231.66C75.6902 238.129 74.2886 244.256 79.4787 252.794C68.4563 252.498 40.4831 248.857 31.0362 220.392L30.963 220.416Z" fill="white"/>
<path d="M166.597 174.681C166.08 173.942 165.195 173.525 164.309 173.622C163.398 173.721 162.636 174.312 162.291 175.147C158.109 185.505 153.114 187.054 146.225 189.196C139.583 191.262 131.316 193.822 121.843 204.696C112.987 214.832 112.667 230.086 120.219 240.615C114.954 242.706 109.517 243.962 104.179 243.962C103.982 243.962 103.785 243.962 103.613 243.962H103.564C102.236 243.962 101.129 245.045 101.104 246.373C101.104 247.726 102.163 248.857 103.516 248.882H104.205C110.823 248.882 117.44 247.282 123.739 244.625C123.912 244.797 124.06 244.97 124.256 245.142C129.694 249.989 136.508 252.35 143.274 252.35C151.171 252.35 159.044 249.103 164.702 242.755C191.765 212.322 166.893 175.099 166.621 174.729L166.597 174.681ZM160.987 239.459C152.597 248.882 138.352 250.013 128.585 242.289C138.106 237.294 146.57 229.988 152.695 222.287L161.626 219.901C162.93 219.556 163.717 218.203 163.372 216.899C163.028 215.595 161.675 214.808 160.371 215.153L157.148 216.014C160.47 210.626 162.486 205.288 162.758 200.686C162.831 199.334 161.798 198.153 160.446 198.078C159.068 197.955 157.912 199.038 157.838 200.391C157.321 208.829 149.326 220.639 138.106 229.864L136.581 224.157C136.237 222.853 134.884 222.066 133.58 222.411C132.276 222.756 131.489 224.109 131.833 225.413L133.876 233.089C130.998 235.131 127.972 236.976 124.822 238.55C117.933 229.791 117.983 216.605 125.56 207.945C134.123 198.129 141.331 195.89 147.703 193.921C154.026 191.953 160.029 190.083 164.826 181.373C169.967 191.116 180.669 217.367 161.013 239.484L160.987 239.459Z" fill="white"/>
</g>
<defs>
<clipPath id="clip0_86_150">
<rect width="200.07" height="197.505" fill="white" transform="translate(0 89)"/>
</clipPath>
</defs>
</svg>
