<svg width="746" height="90" viewBox="0 0 746 90" fill="none" xmlns="http://www.w3.org/2000/svg">
<path d="M31.1402 65.1196V24.5309H60.3927V33.4097H42.1595V40.3859H58.8865V49.2646H42.1595V56.2408H60.3134V65.1196H31.1402ZM100.976 24.5309V65.1196H91.7806L77.1147 43.7947H76.8769V65.1196H65.8577V24.5309H75.2121L89.6402 45.7765H89.9573V24.5309H100.976ZM117.287 24.5309L125.611 53.1491H125.928L134.252 24.5309H146.698L133.301 65.1196H118.239L104.841 24.5309H117.287ZM161.627 24.5309V65.1196H150.608V24.5309H161.627ZM166.849 65.1196V24.5309H184.369C187.381 24.5309 190.017 25.0792 192.276 26.1758C194.536 27.2725 196.293 28.8514 197.548 30.9125C198.803 32.9737 199.431 35.4444 199.431 38.3247C199.431 41.2315 198.784 43.6824 197.489 45.6775C196.207 47.6725 194.404 49.1788 192.078 50.1961C189.766 51.2135 187.064 51.7222 183.972 51.7222H173.508V43.1605H181.753C183.047 43.1605 184.151 43.0019 185.062 42.6848C185.987 42.3545 186.694 41.8326 187.183 41.1191C187.685 40.4057 187.936 39.4742 187.936 38.3247C187.936 37.162 187.685 36.2173 187.183 35.4906C186.694 34.7507 185.987 34.209 185.062 33.8655C184.151 33.5088 183.047 33.3304 181.753 33.3304H177.868V65.1196H166.849ZM190.631 46.49L200.779 65.1196H188.808L178.899 46.49H190.631ZM243.448 44.8253C243.448 49.3439 242.57 53.1557 240.812 56.2607C239.055 59.3524 236.684 61.6976 233.698 63.2963C230.712 64.8818 227.382 65.6746 223.709 65.6746C220.009 65.6746 216.667 64.8752 213.681 63.2765C210.708 61.6646 208.343 59.3127 206.586 56.221C204.841 53.1161 203.969 49.3175 203.969 44.8253C203.969 40.3066 204.841 36.5014 206.586 33.4097C208.343 30.3047 210.708 27.9595 213.681 26.374C216.667 24.7753 220.009 23.9759 223.709 23.9759C227.382 23.9759 230.712 24.7753 233.698 26.374C236.684 27.9595 239.055 30.3047 240.812 33.4097C242.57 36.5014 243.448 40.3066 243.448 44.8253ZM232.112 44.8253C232.112 42.3942 231.788 40.3462 231.141 38.6814C230.507 37.0035 229.562 35.7351 228.307 34.8762C227.065 34.0042 225.532 33.5682 223.709 33.5682C221.886 33.5682 220.346 34.0042 219.091 34.8762C217.849 35.7351 216.904 37.0035 216.257 38.6814C215.623 40.3462 215.306 42.3942 215.306 44.8253C215.306 47.2563 215.623 49.3109 216.257 50.9889C216.904 52.6536 217.849 53.922 219.091 54.7941C220.346 55.6529 221.886 56.0823 223.709 56.0823C225.532 56.0823 227.065 55.6529 228.307 54.7941C229.562 53.922 230.507 52.6536 231.141 50.9889C231.788 49.3109 232.112 47.2563 232.112 44.8253ZM248.547 24.5309H262.261L271.695 47.5206H272.171L281.604 24.5309H295.319V65.1196H284.538V41.6543H284.22L275.183 64.8025H268.683L259.645 41.4957H259.328V65.1196H248.547V24.5309ZM300.541 65.1196V24.5309H329.794V33.4097H311.56V40.3859H328.287V49.2646H311.56V56.2408H329.714V65.1196H300.541ZM370.377 24.5309V65.1196H361.182L346.516 43.7947H346.278V65.1196H335.259V24.5309H344.613L359.041 45.7765H359.358V24.5309H370.377ZM374.48 33.4097V24.5309H409.757V33.4097H397.549V65.1196H386.688V33.4097H374.48ZM419.325 65.1196H407.433L420.831 24.5309H435.893L449.291 65.1196H437.399L428.521 35.7086H428.203L419.325 65.1196ZM417.105 49.1061H439.461V57.3507H417.105V49.1061ZM453.2 65.1196V24.5309H464.219V56.2408H480.629V65.1196H453.2ZM507.221 24.5309V65.1196H496.202V24.5309H507.221ZM512.443 24.5309H526.158L535.591 47.5206H536.067L545.501 24.5309H559.215V65.1196H548.434V41.6543H548.117L539.079 64.8025H532.579L523.541 41.4957H523.224V65.1196H512.443V24.5309ZM564.437 65.1196V24.5309H581.957C584.97 24.5309 587.606 25.1254 589.865 26.3146C592.124 27.5037 593.881 29.1751 595.137 31.3287C596.392 33.4823 597.019 35.9993 597.019 38.8796C597.019 41.7864 596.372 44.3034 595.077 46.4306C593.796 48.5578 591.992 50.1961 589.667 51.3456C587.354 52.4951 584.653 53.0698 581.561 53.0698H571.097V44.5082H579.341C580.636 44.5082 581.739 44.2835 582.651 43.8343C583.576 43.3719 584.283 42.7179 584.771 41.8723C585.274 41.0267 585.525 40.0291 585.525 38.8796C585.525 37.7169 585.274 36.726 584.771 35.9068C584.283 35.0744 583.576 34.4402 582.651 34.0042C581.739 33.555 580.636 33.3304 579.341 33.3304H575.457V65.1196H564.437ZM606.537 65.1196H594.646L608.044 24.5309H623.106L636.503 65.1196H624.612L615.733 35.7086H615.416L606.537 65.1196ZM604.318 49.1061H626.673V57.3507H604.318V49.1061ZM676.398 39.7517H665.221C665.141 38.8268 664.93 37.9878 664.586 37.2347C664.256 36.4816 663.794 35.8342 663.199 35.2924C662.618 34.7375 661.911 34.3147 661.079 34.024C660.246 33.7202 659.301 33.5682 658.244 33.5682C656.395 33.5682 654.829 34.0174 653.547 34.9159C652.279 35.8143 651.314 37.1026 650.654 38.7805C650.006 40.4585 649.683 42.4734 649.683 44.8253C649.683 47.3092 650.013 49.3902 650.674 51.0682C651.348 52.7329 652.319 53.9881 653.587 54.8337C654.855 55.6661 656.381 56.0823 658.165 56.0823C659.183 56.0823 660.094 55.9568 660.9 55.7057C661.706 55.4415 662.406 55.0649 663.001 54.5761C663.595 54.0872 664.078 53.4992 664.448 52.8122C664.831 52.1119 665.089 51.3258 665.221 50.4538L676.398 50.533C676.266 52.2507 675.784 54.0013 674.952 55.785C674.119 57.5555 672.937 59.1938 671.404 60.7001C669.885 62.1931 668.002 63.3954 665.756 64.3071C663.51 65.2187 660.9 65.6746 657.927 65.6746C654.201 65.6746 650.859 64.8752 647.899 63.2765C644.953 61.6778 642.621 59.326 640.903 56.221C639.199 53.1161 638.346 49.3175 638.346 44.8253C638.346 40.3066 639.218 36.5014 640.963 33.4097C642.707 30.3047 645.058 27.9595 648.018 26.374C650.978 24.7753 654.281 23.9759 657.927 23.9759C660.491 23.9759 662.849 24.3261 665.003 25.0263C667.156 25.7266 669.046 26.7506 670.671 28.0982C672.296 29.4327 673.604 31.0777 674.595 33.0331C675.586 34.9886 676.187 37.2281 676.398 39.7517ZM680.288 33.4097V24.5309H715.565V33.4097H703.357V65.1196H692.496V33.4097H680.288Z" fill="#9493F8"/>
</svg>
