<svg width="201" height="198" viewBox="0 0 201 198" fill="none" xmlns="http://www.w3.org/2000/svg">
<g clip-path="url(#clip0_86_149)">
<rect x="2.41724" width="197.308" height="197.306" rx="12.825" fill="#9493F8"/>
<path d="M56.0826 59.3558C67.1539 57.8063 70.9668 61.3493 76.2821 66.2451C81.399 70.9685 87.7468 76.848 101.893 79.6284C103.689 79.9731 105.484 80.1455 107.257 80.1455C118.574 80.1455 129.178 73.2806 133.802 63.0712C138.402 66.7117 142.314 70.9685 144.997 75.8155C145.439 76.6269 146.277 77.0708 147.163 77.0708C147.556 77.0708 147.974 76.9716 148.343 76.7504C149.524 76.0854 149.968 74.5847 149.303 73.4042C145.981 67.4011 141.136 62.2842 135.526 58.0274C135.575 57.7819 135.649 57.5607 135.698 57.338C137.248 49.8341 135.771 42.2067 131.565 35.8101C127.359 29.4136 120.912 25.0592 113.408 23.5097C73.5277 15.292 53.7217 55.4437 53.525 55.8616C53.1315 56.673 53.2291 57.6583 53.7461 58.3705C54.2859 59.1087 55.1721 59.5022 56.0826 59.3558ZM112.423 28.3307C118.622 29.6103 123.96 33.2265 127.455 38.5158C130.677 43.4116 131.933 49.2179 131.095 54.9755C121.993 49.2179 111.437 45.553 101.72 44.101L95.1758 37.5564C94.2165 36.5971 92.667 36.5971 91.7076 37.5564C90.7483 38.5158 90.7483 40.0653 91.7076 41.0246L94.0702 43.3872C87.7468 43.2148 82.1128 44.1254 77.9796 46.192C76.7747 46.8066 76.2821 48.283 76.8723 49.4894C77.4869 50.6943 78.9633 51.2113 80.1698 50.5967C87.7224 46.8082 101.968 47.8407 115.548 52.9593L111.366 57.1412C110.406 58.1006 110.406 59.6501 111.366 60.6094C111.858 61.1021 112.473 61.3232 113.112 61.3232C113.751 61.3232 114.367 61.0777 114.858 60.6094L120.468 54.9998C123.666 56.4762 126.791 58.1737 129.718 60.0924C125.585 70.4498 114.144 76.9943 102.828 74.7798C90.0589 72.2709 84.4981 67.128 79.6023 62.6256C74.8545 58.2469 70.3522 54.0633 60.8793 54.0633C60.6337 54.0633 60.3866 54.0633 60.1411 54.0633C65.923 44.6652 83.0461 22.2528 112.421 28.3047L112.423 28.3307Z" fill="white"/>
<path d="M81.8657 143.767C83.3908 136.977 85.3095 128.538 80.6348 114.907C76.2805 102.188 63.2402 94.2658 50.3251 95.5454C51.1608 89.7391 52.9088 84.2531 55.7623 79.4792C56.4518 78.3232 56.0827 76.798 54.9266 76.1086C53.7461 75.3948 52.2454 75.7883 51.556 76.9443C48.0374 82.8239 45.9951 89.5651 45.135 96.5779C44.9139 96.6511 44.6683 96.7015 44.4456 96.7747C29.4623 101.745 21.3178 118.008 26.2884 132.992C37.384 166.402 72.2464 168.738 81.8169 168.738C83.3177 168.738 84.2038 168.69 84.2526 168.665C85.1631 168.592 85.9501 168.026 86.3192 167.213C86.6883 166.378 86.5647 165.417 85.9989 164.704C79.134 155.897 80.2657 150.804 81.8657 143.767ZM30.963 131.416C26.9778 119.434 33.1288 106.544 44.7155 101.918C44.2976 112.669 46.3886 123.642 49.9804 132.793L47.5935 141.725C47.2488 143.029 48.0113 144.381 49.3398 144.726C49.5609 144.775 49.7576 144.799 49.9788 144.799C51.0617 144.799 52.0698 144.086 52.3657 142.978L53.2275 139.756C56.2534 145.316 59.8451 149.744 63.7085 152.279C64.1263 152.549 64.5946 152.697 65.0613 152.697C65.8482 152.697 66.6352 152.303 67.1279 151.589C67.8661 150.458 67.5701 148.933 66.4385 148.17C59.4029 143.52 53.1527 130.678 50.7917 116.359L56.4989 117.885C56.72 117.933 56.9168 117.958 57.1379 117.958C58.2208 117.958 59.2289 117.244 59.5248 116.137C59.8695 114.833 59.107 113.48 57.7785 113.135L50.1023 111.069C49.782 107.55 49.6845 103.983 49.9056 100.49C51.0129 100.342 52.0958 100.244 53.2031 100.244C63.1182 100.244 72.7131 106.641 76.0593 116.457C80.2657 128.784 78.6186 136.139 77.1422 142.66C75.6902 149.129 74.2886 155.256 79.4787 163.794C68.4563 163.498 40.4831 159.857 31.0362 131.392L30.963 131.416Z" fill="white"/>
<path d="M166.597 85.6807C166.08 84.9425 165.195 84.5246 164.309 84.6222C163.398 84.7214 162.636 85.3116 162.291 86.1473C158.109 96.5048 153.114 98.0543 146.225 100.196C139.583 102.262 131.316 104.822 121.843 115.696C112.987 125.832 112.667 141.086 120.219 151.615C114.954 153.706 109.517 154.962 104.179 154.962C103.982 154.962 103.785 154.962 103.613 154.962H103.564C102.236 154.962 101.129 156.045 101.104 157.373C101.104 158.726 102.163 159.857 103.516 159.882H104.205C110.823 159.882 117.44 158.282 123.739 155.625C123.912 155.797 124.06 155.97 124.256 156.142C129.694 160.989 136.508 163.35 143.274 163.35C151.171 163.35 159.044 160.103 164.702 153.755C191.765 123.322 166.893 86.0986 166.621 85.7295L166.597 85.6807ZM160.987 150.459C152.597 159.882 138.352 161.013 128.585 153.289C138.106 148.294 146.57 140.988 152.695 133.287L161.626 130.901C162.93 130.556 163.717 129.203 163.372 127.899C163.028 126.595 161.675 125.808 160.371 126.153L157.148 127.014C160.47 121.626 162.486 116.288 162.758 111.686C162.831 110.334 161.798 109.153 160.446 109.078C159.068 108.955 157.912 110.038 157.838 111.391C157.321 119.829 149.326 131.639 138.106 140.864L136.581 135.157C136.237 133.853 134.884 133.066 133.58 133.411C132.276 133.756 131.489 135.109 131.833 136.413L133.876 144.089C130.998 146.131 127.972 147.976 124.822 149.55C117.933 140.791 117.983 127.605 125.56 118.945C134.123 109.129 141.331 106.89 147.703 104.921C154.026 102.953 160.029 101.083 164.826 92.3732C169.967 102.116 180.669 128.367 161.013 150.484L160.987 150.459Z" fill="white"/>
</g>
<defs>
<clipPath id="clip0_86_149">
<rect width="200.07" height="197.505" fill="white"/>
</clipPath>
</defs>
</svg>
