<svg width="732" height="287" viewBox="0 0 732 287" fill="none" xmlns="http://www.w3.org/2000/svg">
<g clip-path="url(#clip0_110_2)">
<path d="M2.75474 65V24.4112H32.0072V33.29H13.774V40.2662H30.501V49.145H13.774V56.1212H31.9279V65H2.75474ZM72.591 24.4112V65H63.3951L48.7292 43.675H48.4914V65H37.4722V24.4112H46.8266L61.2547 45.6569H61.5718V24.4112H72.591ZM88.9018 24.4112L97.2257 53.0295H97.5428L105.867 24.4112H118.313L104.915 65H89.8531L76.4556 24.4112H88.9018ZM133.241 24.4112V65H122.222V24.4112H133.241ZM138.463 65V24.4112H155.983C158.996 24.4112 161.632 24.9596 163.891 26.0562C166.15 27.1528 167.908 28.7317 169.163 30.7929C170.418 32.854 171.045 35.3248 171.045 38.2051C171.045 41.1118 170.398 43.5627 169.103 45.5578C167.822 47.5529 166.018 49.0591 163.693 50.0765C161.381 51.0939 158.679 51.6025 155.587 51.6025H145.123V43.0408H153.367C154.662 43.0408 155.765 42.8823 156.677 42.5652C157.602 42.2349 158.309 41.713 158.798 40.9995C159.3 40.286 159.551 39.3546 159.551 38.2051C159.551 37.0424 159.3 36.0977 158.798 35.371C158.309 34.6311 157.602 34.0894 156.677 33.7459C155.765 33.3891 154.662 33.2108 153.367 33.2108H149.483V65H138.463ZM162.246 46.3704L172.393 65H160.423L150.513 46.3704H162.246ZM215.063 44.7056C215.063 49.2243 214.184 53.0361 212.427 56.141C210.67 59.2327 208.298 61.578 205.312 63.1767C202.326 64.7622 198.996 65.5549 195.323 65.5549C191.624 65.5549 188.281 64.7556 185.295 63.1569C182.322 61.5449 179.957 59.1931 178.2 56.1014C176.456 52.9965 175.584 49.1979 175.584 44.7056C175.584 40.187 176.456 36.3818 178.2 33.29C179.957 30.1851 182.322 27.8399 185.295 26.2544C188.281 24.6557 191.624 23.8563 195.323 23.8563C198.996 23.8563 202.326 24.6557 205.312 26.2544C208.298 27.8399 210.67 30.1851 212.427 33.29C214.184 36.3818 215.063 40.187 215.063 44.7056ZM203.727 44.7056C203.727 42.2745 203.403 40.2266 202.755 38.5618C202.121 36.8838 201.177 35.6154 199.921 34.7566C198.679 33.8846 197.147 33.4486 195.323 33.4486C193.5 33.4486 191.961 33.8846 190.706 34.7566C189.464 35.6154 188.519 36.8838 187.872 38.5618C187.237 40.2266 186.92 42.2745 186.92 44.7056C186.92 47.1367 187.237 49.1913 187.872 50.8692C188.519 52.534 189.464 53.8024 190.706 54.6744C191.961 55.5333 193.5 55.9627 195.323 55.9627C197.147 55.9627 198.679 55.5333 199.921 54.6744C201.177 53.8024 202.121 52.534 202.755 50.8692C203.403 49.1913 203.727 47.1367 203.727 44.7056ZM220.161 24.4112H233.876L243.31 47.401H243.785L253.219 24.4112H266.933V65H256.152V41.5346H255.835L246.798 64.6829H240.297L231.26 41.3761H230.943V65H220.161V24.4112ZM272.156 65V24.4112H301.408V33.29H283.175V40.2662H299.902V49.145H283.175V56.1212H301.329V65H272.156ZM341.992 24.4112V65H332.796L318.13 43.675H317.892V65H306.873V24.4112H316.228L330.656 45.6569H330.973V24.4112H341.992ZM346.094 33.29V24.4112H381.372V33.29H369.163V65H358.303V33.29H346.094ZM390.939 65H379.048L392.445 24.4112H407.508L420.905 65H409.014L400.135 35.589H399.818L390.939 65ZM388.72 48.9865H411.075V57.2311H388.72V48.9865ZM424.814 65V24.4112H435.834V56.1212H452.243V65H424.814ZM478.835 24.4112V65H467.816V24.4112H478.835ZM484.058 24.4112H497.772L507.206 47.401H507.681L517.115 24.4112H530.83V65H520.048V41.5346H519.731L510.694 64.6829H504.193L495.156 41.3761H494.839V65H484.058V24.4112ZM536.052 65V24.4112H553.572C556.584 24.4112 559.22 25.0058 561.479 26.1949C563.739 27.3841 565.496 29.0554 566.751 31.2091C568.006 33.3627 568.634 35.8797 568.634 38.76C568.634 41.6667 567.987 44.1837 566.692 46.3109C565.41 48.4381 563.607 50.0765 561.281 51.226C558.969 52.3755 556.267 52.9502 553.175 52.9502H542.711V44.3885H550.956C552.25 44.3885 553.354 44.1639 554.265 43.7147C555.19 43.2522 555.897 42.5982 556.386 41.7526C556.888 40.907 557.139 39.9095 557.139 38.76C557.139 37.5973 556.888 36.6064 556.386 35.7872C555.897 34.9548 555.19 34.3206 554.265 33.8846C553.354 33.4354 552.25 33.2108 550.956 33.2108H547.071V65H536.052ZM578.152 65H566.261L579.658 24.4112H594.72L608.118 65H596.227L587.348 35.589H587.031L578.152 65ZM575.932 48.9865H598.288V57.2311H575.932V48.9865ZM648.013 39.632H636.835C636.756 38.7072 636.544 37.8682 636.201 37.115C635.871 36.3619 635.408 35.7145 634.814 35.1728C634.232 34.6179 633.525 34.1951 632.693 33.9044C631.861 33.6005 630.916 33.4486 629.859 33.4486C628.009 33.4486 626.444 33.8978 625.162 34.7963C623.894 35.6947 622.929 36.9829 622.268 38.6609C621.621 40.3389 621.297 42.3538 621.297 44.7056C621.297 47.1896 621.628 49.2705 622.288 50.9485C622.962 52.6133 623.933 53.8685 625.202 54.7141C626.47 55.5465 627.996 55.9627 629.78 55.9627C630.797 55.9627 631.709 55.8371 632.515 55.5861C633.321 55.3219 634.021 54.9453 634.615 54.4564C635.21 53.9676 635.692 53.3796 636.062 52.6926C636.445 51.9923 636.703 51.2062 636.835 50.3341L648.013 50.4134C647.881 52.131 647.399 53.8817 646.566 55.6654C645.734 57.4359 644.551 59.0742 643.019 60.5804C641.499 62.0734 639.616 63.2758 637.37 64.1874C635.124 65.0991 632.515 65.5549 629.542 65.5549C625.816 65.5549 622.473 64.7556 619.514 63.1569C616.567 61.5581 614.235 59.2063 612.518 56.1014C610.813 52.9965 609.961 49.1979 609.961 44.7056C609.961 40.187 610.833 36.3818 612.577 33.29C614.321 30.1851 616.673 27.8399 619.632 26.2544C622.592 24.6557 625.895 23.8563 629.542 23.8563C632.105 23.8563 634.463 24.2064 636.617 24.9067C638.771 25.607 640.66 26.6309 642.285 27.9786C643.91 29.3131 645.218 30.958 646.209 32.9135C647.2 34.8689 647.802 37.1084 648.013 39.632ZM651.902 33.29V24.4112H687.18V33.29H674.971V65H664.111V33.29H651.902Z" fill="#9493F8"/>
</g>
<g clip-path="url(#clip1_110_2)">
<rect x="2.55566" y="88.9922" width="197.308" height="197.306" rx="12.825" fill="#9493F8"/>
<path d="M56.2208 148.348C67.2921 146.799 71.105 150.342 76.4203 155.237C81.5372 159.961 87.885 165.84 102.031 168.621C103.828 168.966 105.623 169.138 107.395 169.138C118.712 169.138 129.316 162.273 133.941 152.064C138.54 155.704 142.453 159.961 145.135 164.808C145.578 165.619 146.415 166.063 147.301 166.063C147.695 166.063 148.113 165.964 148.482 165.743C149.662 165.078 150.106 163.577 149.441 162.397C146.119 156.394 141.274 151.277 135.664 147.02C135.713 146.774 135.788 146.553 135.836 146.33C137.386 138.827 135.91 131.199 131.703 124.803C127.497 118.406 121.05 114.052 113.546 112.502C73.6659 104.284 53.8599 144.436 53.6632 144.854C53.2697 145.665 53.3672 146.651 53.8843 147.363C54.4241 148.101 55.3103 148.495 56.2208 148.348ZM112.561 117.323C118.761 118.603 124.099 122.219 127.593 127.508C130.815 132.404 132.071 138.21 131.233 143.968C122.131 138.21 111.575 134.545 101.859 133.093L95.314 126.549C94.3547 125.59 92.8051 125.59 91.8458 126.549C90.8865 127.508 90.8865 129.058 91.8458 130.017L94.2084 132.38C87.885 132.207 82.251 133.118 78.1178 135.184C76.9129 135.799 76.4202 137.275 77.0105 138.482C77.6251 139.687 79.1015 140.204 80.3079 139.589C87.8606 135.801 102.106 136.833 115.686 141.952L111.504 146.134C110.544 147.093 110.544 148.643 111.504 149.602C111.996 150.095 112.611 150.316 113.25 150.316C113.889 150.316 114.505 150.07 114.996 149.602L120.606 143.992C123.804 145.469 126.929 147.166 129.856 149.085C125.723 159.442 114.283 165.987 102.966 163.772C90.1971 161.263 84.6363 156.12 79.7405 151.618C74.9926 147.239 70.4903 143.056 61.0174 143.056C60.7719 143.056 60.5248 143.056 60.2792 143.056C66.0612 133.658 83.1843 111.245 112.559 117.297L112.561 117.323Z" fill="white"/>
<path d="M82.0038 232.759C83.529 225.969 85.4477 217.53 80.773 203.9C76.4186 191.18 63.3784 183.258 50.4633 184.538C51.299 178.731 53.0469 173.245 55.9005 168.471C56.5899 167.315 56.2208 165.79 55.0648 165.101C53.8843 164.387 52.3836 164.78 51.6941 165.937C48.1755 171.816 46.1333 178.557 45.2732 185.57C45.0521 185.643 44.8065 185.694 44.5838 185.767C29.6005 190.737 21.456 207 26.4266 221.984C37.5222 255.394 72.3846 257.731 81.9551 257.731C83.4558 257.731 84.342 257.682 84.3908 257.657C85.3013 257.584 86.0883 257.018 86.4574 256.205C86.8265 255.37 86.7029 254.409 86.1371 253.697C79.2722 244.889 80.4039 239.796 82.0038 232.759ZM31.1012 220.408C27.116 208.426 33.267 195.536 44.8537 190.91C44.4358 201.661 46.5268 212.634 50.1186 221.785L47.7317 230.717C47.3869 232.021 48.1495 233.374 49.4779 233.718C49.6991 233.767 49.8958 233.792 50.1169 233.792C51.1998 233.792 52.2079 233.078 52.5039 231.97L53.3656 228.748C56.3916 234.309 59.9833 238.736 63.8466 241.271C64.2645 241.541 64.7328 241.689 65.1994 241.689C65.9864 241.689 66.7734 241.295 67.2661 240.582C68.0042 239.45 67.7083 237.925 66.5766 237.162C59.5411 232.512 53.2908 219.67 50.9299 205.352L56.6371 206.877C56.8582 206.926 57.055 206.95 57.2761 206.95C58.359 206.95 59.3671 206.236 59.663 205.129C60.0077 203.825 59.2451 202.472 57.9167 202.127L50.2405 200.061C49.9202 196.542 49.8226 192.975 50.0438 189.482C51.1511 189.334 52.234 189.237 53.3412 189.237C63.2564 189.237 72.8513 195.633 76.1975 205.449C80.4039 217.776 78.7568 225.132 77.2804 231.652C75.8284 238.121 74.4268 244.248 79.6169 252.786C68.5945 252.49 40.6213 248.85 31.1744 220.384L31.1012 220.408Z" fill="white"/>
<path d="M166.735 174.673C166.218 173.935 165.333 173.517 164.447 173.615C163.536 173.714 162.774 174.304 162.429 175.14C158.247 185.497 153.252 187.047 146.363 189.188C139.721 191.255 131.454 193.814 121.981 204.689C113.125 214.825 112.804 230.078 120.357 240.608C115.092 242.699 109.655 243.954 104.317 243.954C104.12 243.954 103.923 243.954 103.751 243.954H103.702C102.374 243.954 101.267 245.037 101.242 246.365C101.242 247.718 102.301 248.85 103.653 248.874H104.343C110.961 248.874 117.578 247.274 123.877 244.617C124.05 244.79 124.198 244.962 124.394 245.135C129.832 249.982 136.646 252.342 143.412 252.342C151.309 252.342 159.182 249.095 164.84 242.748C191.903 212.314 167.031 175.091 166.759 174.722L166.735 174.673ZM161.125 239.452C152.735 248.874 138.49 250.006 128.723 242.281C138.244 237.286 146.708 229.98 152.833 222.28L161.764 219.893C163.068 219.548 163.855 218.195 163.51 216.891C163.166 215.587 161.813 214.8 160.509 215.145L157.286 216.007C160.608 210.618 162.624 205.28 162.896 200.679C162.969 199.326 161.936 198.146 160.584 198.071C159.206 197.947 158.05 199.03 157.976 200.383C157.458 208.822 149.464 220.631 138.244 229.857L136.719 224.15C136.375 222.846 135.022 222.059 133.718 222.403C132.414 222.748 131.627 224.101 131.971 225.405L134.014 233.081C131.136 235.123 128.11 236.969 124.96 238.543C118.071 229.784 118.121 216.597 125.698 207.937C134.261 198.121 141.469 195.882 147.841 193.913C154.164 191.946 160.167 190.076 164.964 181.366C170.105 191.108 180.807 217.36 161.151 239.476L161.125 239.452Z" fill="white"/>
</g>
<defs>
<clipPath id="clip0_110_2">
<rect width="731" height="89" fill="white" transform="translate(0.138672)"/>
</clipPath>
<clipPath id="clip1_110_2">
<rect width="200.07" height="197.505" fill="white" transform="translate(0.138672 89)"/>
</clipPath>
</defs>
</svg>
