<svg width="746" height="89" viewBox="0 0 746 89" fill="none" xmlns="http://www.w3.org/2000/svg">
<path d="M2.75474 65V24.4112H32.0072V33.29H13.774V40.2662H30.501V49.145H13.774V56.1212H31.9279V65H2.75474ZM72.591 24.4112V65H63.3951L48.7292 43.675H48.4914V65H37.4722V24.4112H46.8266L61.2547 45.6569H61.5718V24.4112H72.591ZM88.9018 24.4112L97.2257 53.0295H97.5428L105.867 24.4112H118.313L104.915 65H89.8531L76.4556 24.4112H88.9018ZM133.241 24.4112V65H122.222V24.4112H133.241ZM138.463 65V24.4112H155.983C158.996 24.4112 161.632 24.9596 163.891 26.0562C166.15 27.1528 167.908 28.7317 169.163 30.7929C170.418 32.854 171.045 35.3248 171.045 38.2051C171.045 41.1118 170.398 43.5627 169.103 45.5578C167.822 47.5529 166.018 49.0591 163.693 50.0765C161.381 51.0939 158.679 51.6025 155.587 51.6025H145.123V43.0408H153.367C154.662 43.0408 155.765 42.8823 156.677 42.5652C157.602 42.2349 158.309 41.713 158.798 40.9995C159.3 40.286 159.551 39.3546 159.551 38.2051C159.551 37.0424 159.3 36.0977 158.798 35.371C158.309 34.6311 157.602 34.0894 156.677 33.7459C155.765 33.3891 154.662 33.2108 153.367 33.2108H149.483V65H138.463ZM162.246 46.3704L172.393 65H160.423L150.513 46.3704H162.246ZM215.063 44.7056C215.063 49.2243 214.184 53.0361 212.427 56.141C210.67 59.2327 208.298 61.578 205.312 63.1767C202.326 64.7622 198.996 65.5549 195.323 65.5549C191.624 65.5549 188.281 64.7556 185.295 63.1569C182.322 61.5449 179.957 59.1931 178.2 56.1014C176.456 52.9965 175.584 49.1979 175.584 44.7056C175.584 40.187 176.456 36.3818 178.2 33.29C179.957 30.1851 182.322 27.8399 185.295 26.2544C188.281 24.6557 191.624 23.8563 195.323 23.8563C198.996 23.8563 202.326 24.6557 205.312 26.2544C208.298 27.8399 210.67 30.1851 212.427 33.29C214.184 36.3818 215.063 40.187 215.063 44.7056ZM203.727 44.7056C203.727 42.2745 203.403 40.2266 202.755 38.5618C202.121 36.8838 201.177 35.6154 199.921 34.7566C198.679 33.8846 197.147 33.4486 195.323 33.4486C193.5 33.4486 191.961 33.8846 190.706 34.7566C189.464 35.6154 188.519 36.8838 187.872 38.5618C187.237 40.2266 186.92 42.2745 186.92 44.7056C186.92 47.1367 187.237 49.1913 187.872 50.8692C188.519 52.534 189.464 53.8024 190.706 54.6744C191.961 55.5333 193.5 55.9627 195.323 55.9627C197.147 55.9627 198.679 55.5333 199.921 54.6744C201.177 53.8024 202.121 52.534 202.755 50.8692C203.403 49.1913 203.727 47.1367 203.727 44.7056ZM220.161 24.4112H233.876L243.31 47.401H243.785L253.219 24.4112H266.933V65H256.152V41.5346H255.835L246.798 64.6829H240.297L231.26 41.3761H230.943V65H220.161V24.4112ZM272.156 65V24.4112H301.408V33.29H283.175V40.2662H299.902V49.145H283.175V56.1212H301.329V65H272.156ZM341.992 24.4112V65H332.796L318.13 43.675H317.892V65H306.873V24.4112H316.228L330.656 45.6569H330.973V24.4112H341.992ZM346.094 33.29V24.4112H381.372V33.29H369.163V65H358.303V33.29H346.094ZM390.939 65H379.048L392.445 24.4112H407.508L420.905 65H409.014L400.135 35.589H399.818L390.939 65ZM388.72 48.9865H411.075V57.2311H388.72V48.9865ZM424.814 65V24.4112H435.834V56.1212H452.243V65H424.814ZM478.835 24.4112V65H467.816V24.4112H478.835ZM484.058 24.4112H497.772L507.206 47.401H507.681L517.115 24.4112H530.83V65H520.048V41.5346H519.731L510.694 64.6829H504.193L495.156 41.3761H494.839V65H484.058V24.4112ZM536.052 65V24.4112H553.572C556.584 24.4112 559.22 25.0058 561.479 26.1949C563.739 27.3841 565.496 29.0554 566.751 31.2091C568.006 33.3627 568.634 35.8797 568.634 38.76C568.634 41.6667 567.987 44.1837 566.692 46.3109C565.41 48.4381 563.607 50.0765 561.281 51.226C558.969 52.3755 556.267 52.9502 553.175 52.9502H542.711V44.3885H550.956C552.25 44.3885 553.354 44.1639 554.265 43.7147C555.19 43.2522 555.897 42.5982 556.386 41.7526C556.888 40.907 557.139 39.9095 557.139 38.76C557.139 37.5973 556.888 36.6064 556.386 35.7872C555.897 34.9548 555.19 34.3206 554.265 33.8846C553.354 33.4354 552.25 33.2108 550.956 33.2108H547.071V65H536.052ZM578.152 65H566.261L579.658 24.4112H594.72L608.118 65H596.227L587.348 35.589H587.031L578.152 65ZM575.932 48.9865H598.288V57.2311H575.932V48.9865ZM648.013 39.632H636.835C636.756 38.7072 636.544 37.8682 636.201 37.115C635.871 36.3619 635.408 35.7145 634.814 35.1728C634.232 34.6179 633.525 34.1951 632.693 33.9044C631.861 33.6005 630.916 33.4486 629.859 33.4486C628.009 33.4486 626.444 33.8978 625.162 34.7963C623.894 35.6947 622.929 36.9829 622.268 38.6609C621.621 40.3389 621.297 42.3538 621.297 44.7056C621.297 47.1896 621.628 49.2705 622.288 50.9485C622.962 52.6133 623.933 53.8685 625.202 54.7141C626.47 55.5465 627.996 55.9627 629.78 55.9627C630.797 55.9627 631.709 55.8371 632.515 55.5861C633.321 55.3219 634.021 54.9453 634.615 54.4564C635.21 53.9676 635.692 53.3796 636.062 52.6926C636.445 51.9923 636.703 51.2062 636.835 50.3341L648.013 50.4134C647.881 52.131 647.399 53.8817 646.566 55.6654C645.734 57.4359 644.551 59.0742 643.019 60.5804C641.499 62.0734 639.616 63.2758 637.37 64.1874C635.124 65.0991 632.515 65.5549 629.542 65.5549C625.816 65.5549 622.473 64.7556 619.514 63.1569C616.567 61.5581 614.235 59.2063 612.518 56.1014C610.813 52.9965 609.961 49.1979 609.961 44.7056C609.961 40.187 610.833 36.3818 612.577 33.29C614.321 30.1851 616.673 27.8399 619.632 26.2544C622.592 24.6557 625.895 23.8563 629.542 23.8563C632.105 23.8563 634.463 24.2064 636.617 24.9067C638.771 25.607 640.66 26.6309 642.285 27.9786C643.91 29.3131 645.218 30.958 646.209 32.9135C647.2 34.8689 647.802 37.1084 648.013 39.632ZM651.902 33.29V24.4112H687.18V33.29H674.971V65H664.111V33.29H651.902Z" fill="#9493F8"/>
</svg>
