<svg width="224" height="198" viewBox="0 0 224 198" fill="none" xmlns="http://www.w3.org/2000/svg">
<g clip-path="url(#clip0_86_128)">
<rect x="0.427246" width="197.308" height="197.306" rx="12.825" fill="#9493F8"/>
<path d="M131.857 79.5537C142.762 79.5537 151.634 70.6816 151.634 59.774C151.634 48.869 142.762 39.9968 131.857 39.9968C120.952 39.9968 112.08 48.869 112.08 59.774C112.08 70.6816 120.952 79.5537 131.857 79.5537Z" fill="#9493F8" stroke="white" stroke-width="5.13"/>
<path d="M97.4622 114.191V128.871H166.253V114.191C166.253 95.2261 150.823 79.7957 131.858 79.7957C112.893 79.7957 97.4622 95.2261 97.4622 114.191Z" fill="#9493F8" stroke="white" stroke-width="5.13"/>
<path d="M72.9145 98.5154C85.9151 98.5154 96.4921 87.9384 96.4921 74.9348C96.4921 61.9342 85.9151 51.3572 72.9145 51.3572C59.9139 51.3572 49.3369 61.9342 49.3369 74.9348C49.3369 87.9384 59.9139 98.5154 72.9145 98.5154Z" fill="#9493F8" stroke="white" stroke-width="5.13"/>
<path d="M31.9097 139.809V157.309H113.92V139.809C113.92 117.199 95.5241 98.8037 72.9147 98.8037C50.3053 98.8037 31.9097 117.199 31.9097 139.809Z" fill="#9493F8" stroke="white" stroke-width="5.13"/>
<g clip-path="url(#clip1_86_128)">
<rect x="1.41724" width="197.308" height="197.306" rx="12.825" fill="#9493F8"/>
<path d="M55.0826 59.3556C66.1539 57.806 69.9668 61.349 75.2821 66.2448C80.399 70.9682 86.7468 76.8478 100.893 79.6282C102.689 79.9729 104.484 80.1452 106.257 80.1452C117.574 80.1452 128.178 73.2804 132.802 63.0709C137.402 66.7115 141.314 70.9683 143.997 75.8153C144.439 76.6266 145.277 77.0705 146.163 77.0705C146.556 77.0705 146.974 76.9713 147.343 76.7502C148.524 76.0852 148.968 74.5844 148.303 73.404C144.981 67.4009 140.136 62.2839 134.526 58.0272C134.575 57.7816 134.649 57.5605 134.698 57.3377C136.248 49.8339 134.771 42.2065 130.565 35.8099C126.359 29.4133 119.912 25.059 112.408 23.5094C72.5277 15.2918 52.7217 55.4435 52.525 55.8614C52.1315 56.6727 52.2291 57.6581 52.7461 58.3702C53.2859 59.1084 54.1721 59.5019 55.0826 59.3556ZM111.423 28.3304C117.622 29.6101 122.96 33.2262 126.455 38.5155C129.677 43.4113 130.933 49.2176 130.095 54.9752C120.993 49.2176 110.437 45.5527 100.72 44.1007L94.1758 37.5562C93.2165 36.5969 91.667 36.5969 90.7076 37.5562C89.7483 38.5155 89.7483 40.0651 90.7076 41.0244L93.0702 43.3869C86.7468 43.2146 81.1128 44.1251 76.9796 46.1917C75.7747 46.8063 75.2821 48.2827 75.8723 49.4892C76.4869 50.694 77.9633 51.2111 79.1698 50.5965C86.7224 46.808 100.968 47.8405 114.548 52.959L110.366 57.141C109.406 58.1003 109.406 59.6499 110.366 60.6092C110.858 61.1019 111.473 61.323 112.112 61.323C112.751 61.323 113.367 61.0775 113.858 60.6092L119.468 54.9996C122.666 56.476 125.791 58.1735 128.718 60.0921C124.585 70.4496 113.144 76.9941 101.828 74.7795C89.0589 72.2707 83.4981 67.1277 78.6023 62.6254C73.8545 58.2467 69.3522 54.063 59.8793 54.063C59.6337 54.063 59.3866 54.063 59.1411 54.063C64.923 44.6649 82.0461 22.2526 111.421 28.3044L111.423 28.3304Z" fill="white"/>
<path d="M80.8657 143.767C82.3908 136.977 84.3095 128.538 79.6348 114.907C75.2805 102.188 62.2402 94.2658 49.3251 95.5454C50.1608 89.7391 51.9088 84.2531 54.7623 79.4792C55.4518 78.3232 55.0827 76.798 53.9266 76.1086C52.7461 75.3948 51.2454 75.7883 50.556 76.9443C47.0374 82.8239 44.9951 89.5651 44.135 96.5779C43.9139 96.6511 43.6683 96.7015 43.4456 96.7747C28.4623 101.745 20.3178 118.008 25.2884 132.992C36.384 166.402 71.2464 168.738 80.8169 168.738C82.3177 168.738 83.2038 168.69 83.2526 168.665C84.1631 168.592 84.9501 168.026 85.3192 167.213C85.6883 166.378 85.5647 165.417 84.9989 164.704C78.134 155.897 79.2657 150.804 80.8657 143.767ZM29.963 131.416C25.9778 119.434 32.1288 106.544 43.7155 101.918C43.2976 112.669 45.3886 123.642 48.9804 132.793L46.5935 141.725C46.2488 143.029 47.0113 144.381 48.3398 144.726C48.5609 144.775 48.7576 144.799 48.9788 144.799C50.0617 144.799 51.0698 144.086 51.3657 142.978L52.2275 139.756C55.2534 145.316 58.8452 149.744 62.7085 152.279C63.1263 152.549 63.5946 152.697 64.0613 152.697C64.8482 152.697 65.6352 152.303 66.1279 151.589C66.8661 150.458 66.5701 148.933 65.4385 148.17C58.4029 143.52 52.1527 130.678 49.7918 116.359L55.4989 117.885C55.72 117.933 55.9168 117.958 56.1379 117.958C57.2208 117.958 58.2289 117.244 58.5248 116.137C58.8695 114.833 58.107 113.48 56.7785 113.135L49.1023 111.069C48.782 107.55 48.6845 103.983 48.9056 100.49C50.0129 100.342 51.0958 100.244 52.2031 100.244C62.1182 100.244 71.7131 106.641 75.0593 116.457C79.2657 128.784 77.6186 136.139 76.1422 142.66C74.6902 149.129 73.2886 155.256 78.4787 163.794C67.4563 163.498 39.4831 159.857 30.0362 131.392L29.963 131.416Z" fill="white"/>
<path d="M165.597 85.6804C165.08 84.9422 164.195 84.5244 163.309 84.6219C162.398 84.7211 161.636 85.3113 161.291 86.1471C157.109 96.5045 152.114 98.0541 145.225 100.195C138.583 102.262 130.316 104.821 120.843 115.696C111.987 125.832 111.667 141.085 119.219 151.615C113.954 153.706 108.517 154.961 103.179 154.961C102.982 154.961 102.785 154.961 102.613 154.961H102.564C101.236 154.961 100.129 156.044 100.104 157.373C100.104 158.726 101.163 159.857 102.516 159.882H103.205C109.823 159.882 116.44 158.282 122.739 155.625C122.912 155.797 123.06 155.969 123.256 156.142C128.694 160.989 135.508 163.35 142.274 163.35C150.171 163.35 158.044 160.103 163.702 153.755C190.765 123.322 165.893 86.0983 165.621 85.7292L165.597 85.6804ZM159.987 150.459C151.597 159.882 137.352 161.013 127.585 153.288C137.106 148.293 145.57 140.988 151.695 133.287L160.626 130.9C161.93 130.556 162.717 129.203 162.372 127.899C162.028 126.595 160.675 125.808 159.371 126.152L156.148 127.014C159.47 121.626 161.486 116.288 161.758 111.686C161.831 110.333 160.798 109.153 159.446 109.078C158.068 108.955 156.912 110.037 156.838 111.39C156.321 119.829 148.326 131.638 137.106 140.864L135.581 135.157C135.237 133.853 133.884 133.066 132.58 133.411C131.276 133.755 130.489 135.108 130.833 136.412L132.876 144.089C129.998 146.131 126.972 147.976 123.822 149.55C116.933 140.791 116.983 127.604 124.56 118.945C133.123 109.129 140.331 106.89 146.703 104.921C153.026 102.953 159.029 101.083 163.826 92.3729C168.967 102.116 179.669 128.367 160.013 150.483L159.987 150.459Z" fill="white"/>
</g>
</g>
<defs>
<clipPath id="clip0_86_128">
<rect width="223.155" height="197.505" fill="white"/>
</clipPath>
<clipPath id="clip1_86_128">
<rect width="200.07" height="197.505" fill="white" transform="translate(-1)"/>
</clipPath>
</defs>
</svg>
