<svg width="1386" height="462" viewBox="0 0 1386 462" fill="none" xmlns="http://www.w3.org/2000/svg">
<g clip-path="url(#clip0_381_2)">
<rect width="1386" height="462" rx="15" fill="#9493F8"/>
<rect x="647.459" y="119.293" width="278.616" height="80" rx="40" transform="rotate(-5.26002 647.459 119.293)" fill="#9493F8"/>
<rect x="647.459" y="119.293" width="278.616" height="80" rx="40" transform="rotate(-5.26002 647.459 119.293)" stroke="white" stroke-width="6"/>
<path d="M704.973 149.147L694.881 150.076C694.733 149.248 694.472 148.508 694.1 147.857C693.739 147.204 693.268 146.658 692.686 146.218C692.115 145.766 691.442 145.443 690.666 145.25C689.889 145.044 689.024 144.986 688.069 145.074C686.399 145.227 685.023 145.763 683.941 146.681C682.87 147.597 682.107 148.84 681.65 150.41C681.205 151.979 681.08 153.825 681.275 155.948C681.482 158.191 681.953 160.042 682.689 161.502C683.436 162.949 684.417 164.001 685.632 164.659C686.846 165.305 688.259 165.554 689.869 165.406C690.788 165.322 691.6 165.132 692.307 164.839C693.013 164.533 693.613 164.135 694.11 163.644C694.606 163.154 694.992 162.583 695.269 161.932C695.557 161.268 695.724 160.536 695.771 159.738L705.869 158.881C705.892 160.442 705.603 162.063 704.999 163.742C704.395 165.41 703.464 166.987 702.205 168.475C700.957 169.949 699.358 171.191 697.405 172.201C695.453 173.21 693.135 173.839 690.452 174.086C687.088 174.396 684.003 173.952 681.199 172.754C678.406 171.556 676.105 169.626 674.296 166.966C672.499 164.305 671.414 160.946 671.041 156.89C670.665 152.811 671.136 149.303 672.454 146.367C673.77 143.419 675.699 141.106 678.239 139.429C680.778 137.739 683.694 136.743 686.986 136.44C689.3 136.227 691.458 136.347 693.461 136.8C695.463 137.253 697.254 138.021 698.833 139.102C700.411 140.172 701.729 141.548 702.786 143.232C703.843 144.915 704.572 146.886 704.973 149.147ZM745.407 150.044C745.782 154.123 745.306 157.638 743.977 160.587C742.648 163.524 740.702 165.839 738.139 167.53C735.575 169.21 732.635 170.202 729.319 170.508C725.979 170.815 722.894 170.371 720.066 169.176C717.248 167.968 714.917 166.041 713.074 163.396C711.241 160.738 710.138 157.381 709.765 153.325C709.389 149.246 709.86 145.738 711.178 142.802C712.506 139.853 714.446 137.539 716.999 135.86C719.561 134.169 722.513 133.169 725.853 132.862C729.169 132.556 732.241 133.001 735.07 134.197C737.898 135.38 740.234 137.3 742.078 139.957C743.922 142.602 745.031 145.965 745.407 150.044ZM735.172 150.986C734.97 148.791 734.508 146.969 733.785 145.52C733.073 144.058 732.114 142.991 730.91 142.32C729.716 141.636 728.296 141.37 726.65 141.522C725.004 141.673 723.651 142.195 722.59 143.086C721.54 143.965 720.793 145.189 720.348 146.757C719.913 148.313 719.797 150.188 719.999 152.383C720.201 154.578 720.658 156.406 721.37 157.869C722.093 159.318 723.052 160.384 724.245 161.068C725.45 161.739 726.875 161.999 728.521 161.848C730.167 161.696 731.515 161.181 732.565 160.302C733.626 159.411 734.374 158.187 734.808 156.632C735.253 155.063 735.374 153.181 735.172 150.986ZM751.696 167.942L748.323 131.298L758.271 130.382L760.907 159.01L775.722 157.647L776.46 165.662L751.696 167.942ZM780.481 165.292L777.107 128.648L787.056 127.732L789.691 156.36L804.506 154.997L805.244 163.012L780.481 165.292ZM809.266 162.642L805.892 125.998L832.301 123.567L833.039 131.583L816.578 133.098L817.158 139.396L832.259 138.006L832.997 146.022L817.896 147.412L818.476 153.71L834.865 152.202L835.603 160.217L809.266 162.642ZM872.711 133.705L862.619 134.634C862.471 133.805 862.21 133.065 861.838 132.414C861.477 131.762 861.006 131.216 860.424 130.776C859.853 130.323 859.179 130 858.404 129.807C857.627 129.602 856.762 129.543 855.807 129.631C854.137 129.785 852.761 130.32 851.679 131.238C850.608 132.155 849.845 133.398 849.388 134.968C848.943 136.536 848.818 138.382 849.013 140.506C849.22 142.748 849.691 144.599 850.427 146.059C851.174 147.506 852.155 148.559 853.37 149.217C854.584 149.863 855.997 150.112 857.607 149.964C858.526 149.879 859.338 149.69 860.045 149.396C860.751 149.091 861.351 148.693 861.848 148.202C862.344 147.711 862.73 147.14 863.007 146.489C863.295 145.825 863.462 145.094 863.509 144.296L873.607 143.438C873.63 145 873.341 146.62 872.737 148.3C872.133 149.968 871.202 151.545 869.943 153.032C868.695 154.506 867.096 155.748 865.143 156.758C863.191 157.768 860.873 158.396 858.19 158.643C854.826 158.953 851.741 158.509 848.937 157.312C846.144 156.113 843.843 154.184 842.034 151.524C840.237 148.862 839.152 145.503 838.779 141.448C838.403 137.368 838.874 133.86 840.192 130.924C841.508 127.976 843.437 125.663 845.977 123.986C848.516 122.297 851.432 121.301 854.724 120.997C857.038 120.784 859.196 120.904 861.199 121.358C863.201 121.811 864.992 122.578 866.571 123.66C868.149 124.73 869.467 126.106 870.524 127.789C871.581 129.472 872.31 131.444 872.711 133.705ZM875.695 127.656L874.957 119.64L906.806 116.708L907.544 124.724L896.522 125.738L899.158 154.366L889.353 155.269L886.717 126.641L875.695 127.656Z" fill="white"/>
<rect x="462.581" y="125.604" width="184.099" height="80" rx="40" transform="rotate(-13.1506 462.581 125.604)" fill="#9493F8"/>
<rect x="462.581" y="125.604" width="184.099" height="80" rx="40" transform="rotate(-13.1506 462.581 125.604)" stroke="white" stroke-width="6"/>
<path d="M500.044 176.413L491.672 140.579L501.401 138.306L507.941 166.301L522.429 162.916L524.26 170.755L500.044 176.413ZM528.193 169.836L519.82 134.002L545.646 127.969L547.477 135.807L531.38 139.568L532.819 145.727L547.587 142.277L549.418 150.116L534.651 153.566L536.09 159.725L552.117 155.98L553.948 163.819L528.193 169.836ZM551.322 134.909L549.491 127.07L580.636 119.794L582.467 127.632L571.689 130.15L578.23 158.146L568.641 160.386L562.101 132.391L551.322 134.909ZM590.036 117.597L593.421 132.085L587.122 133.557L583.737 119.069L590.036 117.597ZM616.094 123.319C615.728 122.174 615.078 121.366 614.144 120.896C613.221 120.422 611.973 120.37 610.398 120.738C609.395 120.972 608.601 121.286 608.017 121.681C607.441 122.062 607.05 122.492 606.842 122.971C606.634 123.45 606.585 123.953 606.696 124.481C606.774 124.918 606.941 125.291 607.198 125.6C607.463 125.895 607.827 126.136 608.289 126.323C608.749 126.499 609.313 126.625 609.983 126.702C610.653 126.779 611.434 126.806 612.327 126.782L615.413 126.725C617.495 126.682 619.321 126.839 620.893 127.198C622.466 127.556 623.81 128.097 624.926 128.82C626.04 129.532 626.941 130.416 627.631 131.473C628.332 132.527 628.848 133.735 629.179 135.097C629.718 137.456 629.595 139.588 628.81 141.494C628.025 143.399 626.647 145.031 624.676 146.39C622.717 147.745 620.221 148.778 617.189 149.486C614.074 150.214 611.249 150.388 608.712 150.009C606.187 149.627 604.06 148.629 602.33 147.016C600.608 145.389 599.392 143.077 598.68 140.082L607.918 137.924C608.233 139.007 608.722 139.864 609.386 140.496C610.051 141.128 610.871 141.533 611.848 141.711C612.836 141.886 613.948 141.829 615.184 141.54C616.223 141.298 617.062 140.966 617.702 140.546C618.342 140.126 618.789 139.646 619.044 139.107C619.3 138.567 619.365 138.005 619.241 137.419C619.101 136.873 618.808 136.437 618.363 136.111C617.927 135.77 617.279 135.527 616.422 135.383C615.561 135.228 614.432 135.159 613.034 135.179L609.285 135.243C605.951 135.296 603.181 134.731 600.973 133.549C598.775 132.353 597.354 130.354 596.712 127.552C596.169 125.28 596.31 123.149 597.137 121.16C597.973 119.157 599.37 117.422 601.328 115.956C603.297 114.487 605.699 113.421 608.534 112.759C611.427 112.083 614.042 111.983 616.379 112.457C618.717 112.932 620.663 113.917 622.218 115.411C623.781 116.891 624.843 118.802 625.402 121.144L616.094 123.319Z" fill="white"/>
<rect x="443.617" y="192.487" width="497.803" height="80" rx="40" transform="rotate(0.224189 443.617 192.487)" fill="white"/>
<path d="M474.722 250.61L463.941 250.568L476.232 213.817L489.888 213.87L501.89 250.716L491.109 250.674L483.164 223.978L482.876 223.977L474.722 250.61ZM472.767 236.084L493.035 236.163L493.005 243.638L472.737 243.558L472.767 236.084ZM505.434 250.73L505.578 213.931L515.568 213.971L515.456 242.719L530.333 242.778L530.302 250.827L505.434 250.73ZM534.34 250.843L534.484 214.045L544.474 214.084L544.362 242.833L559.24 242.891L559.208 250.94L534.34 250.843ZM572.433 222.243L572.464 214.193L604.447 214.318L604.416 222.368L593.348 222.325L593.235 251.074L583.389 251.035L583.501 222.286L572.433 222.243ZM608.063 251.132L608.207 214.333L618.197 214.372L618.141 228.747L631.366 228.798L631.422 214.424L641.412 214.463L641.268 251.262L631.278 251.222L631.334 236.848L618.11 236.796L618.053 251.171L608.063 251.132ZM646.012 251.28L646.156 214.481L672.677 214.585L672.645 222.635L656.114 222.57L656.09 228.895L671.255 228.954L671.223 237.004L656.058 236.945L656.033 243.269L672.492 243.334L672.461 251.384L646.012 251.28ZM687.567 251.443L687.711 214.644L703.667 214.707C706.47 214.717 708.822 215.104 710.724 215.866C712.638 216.628 714.077 217.7 715.042 219.081C716.019 220.463 716.503 222.088 716.496 223.957C716.491 225.31 716.187 226.543 715.583 227.654C714.992 228.766 714.162 229.697 713.093 230.448C712.024 231.186 710.776 231.696 709.349 231.978L709.348 232.338C710.929 232.404 712.365 232.811 713.655 233.558C714.946 234.294 715.973 235.31 716.734 236.607C717.496 237.892 717.873 239.403 717.866 241.14C717.858 243.152 717.324 244.941 716.264 246.506C715.216 248.071 713.726 249.299 711.794 250.19C709.861 251.081 707.56 251.521 704.889 251.51L687.567 251.443ZM697.589 243.504L702.261 243.522C703.938 243.529 705.197 243.222 706.037 242.603C706.878 241.971 707.301 241.038 707.306 239.805C707.31 238.942 707.115 238.211 706.722 237.61C706.329 237.01 705.768 236.552 705.038 236.238C704.321 235.924 703.453 235.765 702.435 235.761L697.619 235.742L697.589 243.504ZM697.643 229.561L701.74 229.577C702.615 229.58 703.388 229.445 704.06 229.173C704.731 228.9 705.254 228.506 705.627 227.993C706.013 227.467 706.207 226.827 706.21 226.072C706.214 224.934 705.811 224.064 704.998 223.462C704.186 222.848 703.157 222.539 701.911 222.534L697.671 222.517L697.643 229.561ZM757.086 233.315C757.07 237.412 756.26 240.865 754.656 243.673C753.051 246.47 750.893 248.588 748.18 250.027C745.467 251.454 742.446 252.161 739.116 252.147C735.762 252.134 732.734 251.398 730.032 249.938C727.343 248.466 725.207 246.325 723.625 243.516C722.055 240.695 721.278 237.248 721.294 233.175C721.31 229.078 722.114 225.632 723.706 222.835C725.31 220.026 727.462 217.908 730.163 216.481C732.876 215.042 735.91 214.33 739.264 214.343C742.594 214.356 745.61 215.092 748.311 216.552C751.013 218 753.154 220.135 754.737 222.956C756.319 225.765 757.102 229.218 757.086 233.315ZM746.808 233.275C746.817 231.071 746.531 229.213 745.95 227.701C745.38 226.178 744.529 225.024 743.394 224.241C742.271 223.446 740.883 223.046 739.23 223.039C737.577 223.033 736.18 223.423 735.038 224.209C733.909 224.983 733.048 226.13 732.456 227.649C731.875 229.156 731.58 231.011 731.571 233.215C731.563 235.419 731.843 237.283 732.412 238.807C732.993 240.318 733.845 241.472 734.968 242.267C736.103 243.05 737.497 243.444 739.15 243.451C740.803 243.457 742.194 243.074 743.323 242.299C744.464 241.513 745.325 240.367 745.906 238.86C746.499 237.341 746.8 235.479 746.808 233.275ZM759.013 222.973L759.045 214.923L791.028 215.048L790.996 223.098L779.928 223.055L779.815 251.804L769.969 251.765L770.081 223.016L759.013 222.973ZM793.75 223.109L793.781 215.059L825.764 215.184L825.733 223.234L814.665 223.191L814.552 251.94L804.706 251.901L804.818 223.152L793.75 223.109ZM829.38 251.998L829.524 215.199L839.514 215.238L839.402 243.987L854.28 244.045L854.248 252.095L829.38 251.998ZM858.286 252.111L858.43 215.312L884.951 215.416L884.92 223.466L868.389 223.401L868.364 229.726L883.529 229.785L883.498 237.835L868.333 237.775L868.308 244.1L884.767 244.164L884.735 252.214L858.286 252.111ZM909.698 227.012C909.606 225.814 909.161 224.878 908.361 224.204C907.573 223.53 906.37 223.19 904.753 223.184C903.723 223.18 902.878 223.302 902.218 223.551C901.571 223.788 901.09 224.116 900.777 224.534C900.464 224.952 900.3 225.43 900.286 225.969C900.261 226.412 900.337 226.814 900.515 227.174C900.705 227.522 901.004 227.841 901.41 228.13C901.816 228.407 902.336 228.661 902.97 228.891C903.604 229.121 904.358 229.327 905.232 229.511L908.248 230.169C910.283 230.608 912.023 231.184 913.47 231.897C914.916 232.609 916.099 233.446 917.018 234.408C917.936 235.358 918.609 236.427 919.036 237.614C919.474 238.802 919.697 240.097 919.703 241.498C919.682 243.918 919.069 245.964 917.864 247.636C916.66 249.308 914.942 250.577 912.711 251.443C910.491 252.309 907.824 252.736 904.71 252.724C901.511 252.711 898.722 252.227 896.342 251.271C893.974 250.316 892.135 248.853 890.825 246.883C889.527 244.902 888.878 242.372 888.878 239.293L898.365 239.33C898.421 240.457 898.699 241.404 899.199 242.173C899.699 242.941 900.403 243.525 901.312 243.924C902.233 244.323 903.328 244.525 904.598 244.53C905.664 244.534 906.557 244.405 907.277 244.145C907.997 243.884 908.543 243.521 908.916 243.055C909.289 242.589 909.483 242.057 909.497 241.458C909.488 240.895 909.304 240.403 908.946 239.983C908.6 239.55 908.027 239.164 907.226 238.826C906.424 238.475 905.342 238.148 903.977 237.843L900.315 237.038C897.059 236.318 894.495 235.129 892.62 233.468C890.758 231.796 889.839 229.522 889.862 226.647C889.859 224.311 890.49 222.271 891.755 220.528C893.031 218.772 894.792 217.407 897.035 216.433C899.291 215.46 901.875 214.979 904.785 214.99C907.756 215.002 910.324 215.509 912.488 216.512C914.652 217.515 916.318 218.923 917.485 220.736C918.663 222.537 919.254 224.642 919.257 227.05L909.698 227.012Z" fill="#9493F8"/>
<rect x="473.043" y="291.555" width="438.962" height="80" rx="40" transform="rotate(-2.77521 473.043 291.555)" fill="white"/>
<path d="M512.367 310.875L514.149 347.63L504.17 348.114L502.389 311.358L512.367 310.875ZM548.899 309.104L550.68 345.859L542.353 346.263L528.136 327.596L527.92 327.606L528.857 346.917L518.878 347.401L517.096 310.645L525.567 310.235L539.565 328.841L539.853 328.827L538.92 309.587L548.899 309.104ZM563.072 316.476L562.682 308.436L594.628 306.887L595.018 314.927L583.962 315.463L585.354 344.179L575.519 344.655L574.127 315.94L563.072 316.476ZM600.165 343.461L598.383 306.705L608.362 306.221L609.058 320.579L622.267 319.939L621.571 305.581L631.55 305.097L633.331 341.853L623.353 342.337L622.657 327.979L609.448 328.619L610.144 342.977L600.165 343.461ZM638.069 341.623L636.288 304.868L662.778 303.584L663.167 311.624L646.656 312.424L646.962 318.742L662.11 318.007L662.499 326.048L647.352 326.782L647.658 333.099L664.098 332.302L664.487 340.343L638.069 341.623ZM688.909 339.159L676.287 302.929L687.414 302.389L693.536 324.759L693.823 324.745L698.685 301.843L707.443 301.418L714.502 323.815L714.789 323.801L718.714 300.872L729.841 300.333L720.783 337.614L711.235 338.077L703.994 317.848L703.707 317.862L698.457 338.696L688.909 339.159ZM767.25 316.94C767.449 321.032 766.82 324.523 765.365 327.412C763.91 330.288 761.865 332.516 759.231 334.095C756.597 335.662 753.616 336.526 750.29 336.687C746.94 336.85 743.878 336.272 741.104 334.956C738.341 333.627 736.096 331.601 734.369 328.878C732.653 326.143 731.697 322.741 731.5 318.673C731.301 314.581 731.924 311.097 733.367 308.221C734.822 305.332 736.861 303.105 739.484 301.538C742.118 299.959 745.11 299.089 748.46 298.926C751.786 298.765 754.836 299.343 757.61 300.66C760.384 301.964 762.634 303.984 764.362 306.719C766.089 309.441 767.052 312.848 767.25 316.94ZM756.984 317.438C756.878 315.236 756.495 313.396 755.835 311.917C755.187 310.425 754.276 309.318 753.102 308.596C751.939 307.86 750.532 307.533 748.881 307.613C747.23 307.693 745.855 308.155 744.756 309C743.669 309.832 742.87 311.022 742.357 312.57C741.856 314.106 741.659 315.974 741.765 318.176C741.872 320.377 742.249 322.224 742.897 323.716C743.557 325.195 744.468 326.302 745.631 327.037C746.805 327.76 748.218 328.081 749.869 328.001C751.52 327.921 752.889 327.465 753.976 326.632C755.075 325.788 755.874 324.598 756.376 323.062C756.888 321.514 757.091 319.639 756.984 317.438ZM772.758 335.094L770.976 298.339L786.841 297.57C789.569 297.437 791.98 297.818 794.075 298.712C796.169 299.606 797.829 300.959 799.056 302.77C800.284 304.581 800.96 306.791 801.087 309.4C801.214 312.032 800.736 314.28 799.651 316.143C798.578 318.006 797.011 319.449 794.95 320.473C792.9 321.496 790.476 322.075 787.676 322.21L778.2 322.67L777.824 314.917L785.29 314.555C786.463 314.498 787.455 314.306 788.267 313.979C789.09 313.639 789.707 313.135 790.118 312.468C790.541 311.8 790.728 310.945 790.677 309.904C790.626 308.851 790.358 308.007 789.871 307.371C789.396 306.722 788.732 306.263 787.879 305.992C787.038 305.709 786.031 305.596 784.859 305.653L781.341 305.824L782.737 334.611L772.758 335.094ZM793.477 317.18L803.483 333.605L792.643 334.13L782.852 317.695L793.477 317.18ZM806.516 333.458L804.735 296.702L814.713 296.219L816.105 324.934L830.966 324.214L831.355 332.254L806.516 333.458ZM849.531 331.373L835.389 332.058L833.607 295.303L847.606 294.624C851.387 294.441 854.689 295.018 857.512 296.357C860.347 297.682 862.578 299.685 864.207 302.364C865.848 305.031 866.761 308.279 866.946 312.108C867.132 315.936 866.544 319.263 865.182 322.087C863.819 324.9 861.803 327.108 859.134 328.713C856.465 330.305 853.264 331.192 849.531 331.373ZM844.957 323.104L848.762 322.919C850.58 322.831 852.116 322.463 853.367 321.814C854.631 321.166 855.563 320.107 856.164 318.639C856.776 317.17 857.02 315.155 856.896 312.595C856.772 310.034 856.328 308.053 855.565 306.651C854.813 305.248 853.759 304.286 852.402 303.764C851.058 303.242 849.428 303.027 847.514 303.12L843.996 303.29L844.957 323.104ZM882.302 292.942L882.594 318.257L874.41 318.654L872.252 293.429L882.302 292.942ZM879.087 330.516C877.699 330.583 876.485 330.156 875.445 329.235C874.416 328.302 873.874 327.135 873.818 325.734C873.74 324.371 874.168 323.181 875.102 322.164C876.048 321.147 877.215 320.605 878.603 320.537C879.919 320.473 881.103 320.902 882.155 321.822C883.219 322.742 883.79 323.884 883.868 325.247C883.901 326.181 883.697 327.042 883.256 327.831C882.826 328.608 882.245 329.241 881.513 329.733C880.781 330.212 879.972 330.473 879.087 330.516Z" fill="#9493F8"/>
<rect x="1018" y="66" width="10" height="10" rx="5" fill="#9493F8"/>
<path d="M1014.38 197.592L984.304 190.68C976.964 188.993 969.143 192.517 966.201 199.442C962.776 207.508 966.657 216.489 974.424 219.704L1036.51 245.427C1059.91 254.237 1086.1 251.613 1107.3 238.343L1121.47 229.482C1152.77 209.897 1162.28 168.672 1142.71 137.393L1078.94 35.4671C1075.02 29.2099 1066.78 27.3156 1060.52 31.2338C1054.26 35.152 1052.35 43.3916 1056.27 49.649L1083.73 93.5315C1085.2 95.8791 1084.48 98.9706 1082.13 100.44C1079.78 101.91 1076.69 101.2 1075.22 98.8522L1035.36 35.1487C1031.45 28.8915 1023.21 26.9972 1016.95 30.9154C1010.68 34.8336 1008.78 43.0732 1012.7 49.3306L1052.56 113.034C1054.02 115.382 1053.31 118.473 1050.96 119.943C1048.61 121.413 1045.52 120.702 1044.05 118.355L997.413 43.8129C993.71 37.8945 986.078 35.3197 979.834 38.4562C972.672 42.0401 970.304 50.8942 974.446 57.5151L1021.39 132.544C1022.86 134.891 1022.15 137.983 1019.8 139.453C1017.45 140.923 1014.36 140.212 1012.89 137.865L974.804 76.9807C970.889 70.7235 962.648 68.8292 956.386 72.7474C950.123 76.6656 948.223 84.9052 952.138 91.1626L1016.7 194.345C1017.71 195.965 1016.25 198.021 1014.38 197.592Z" fill="#9493F8" stroke="white" stroke-width="6"/>
<path d="M942.348 407.648C942.348 407.648 932.426 405.918 921.212 408.014C921.178 411.42 920.726 413.428 920.28 414.222C919.31 415.93 917.11 414.62 915.98 412.827C915.465 413.775 914.582 414.943 912.958 415.585C910.189 416.69 899.441 420.555 893.536 420.352C891.225 420.87 887.354 412.41 884.898 401.448C882.442 390.487 882.334 381.183 884.645 380.666C884.645 380.666 885.558 380.253 886.889 379.851C896.645 376.972 905.235 376.781 908.181 378.791C908.197 377.469 908.495 375.392 910.211 375.007C911.169 374.792 914.312 376.997 916.5 381.5C920.28 380.666 932.945 380.073 933.591 373.826C937.184 338.485 969.963 337.938 1013.4 324.633C1066.19 308.473 1142.69 296.327 1156.35 302.04C1156.35 302.04 1157.72 302.911 1158.42 303.412C1158.42 303.412 1162.6 305.633 1162.07 313.656C1162.07 313.656 1167.5 313.93 1170.65 318.982C1173.84 324.092 1171.84 329.255 1168.01 333.06C1164.15 336.873 1166.3 343.222 1168.94 345.577C1171.59 347.932 1176.59 351.249 1177.92 355.008C1178.37 356.226 1178.4 357.778 1178.12 359.437C1177.53 362.862 1175.57 366.631 1172.92 368.126C1172.92 368.126 1178.79 374.821 1167.36 384.177C1165.9 385.372 1164.33 386.417 1162.7 387.337C1158.26 389.822 1112.62 401.988 1061.49 412.23C1008.47 422.861 956.059 438.21 942.348 407.648Z" fill="#9493F8" stroke="white" stroke-width="6"/>
<path d="M72.6866 361.614C73.2062 358.038 75.1304 352.163 76.0404 348.427L60.9017 279.336L54.0205 248.614C54.0205 248.614 18.7992 213.562 62.6927 150.94C62.6927 150.94 65.6657 144.19 63.495 131.663C59.7009 131.574 57.47 131.042 56.5925 130.533C54.7036 129.427 56.1956 126.995 58.2096 125.762C57.1612 125.174 55.8723 124.173 55.1816 122.354C53.9904 119.252 49.8429 107.218 50.1557 100.642C49.6128 98.059 59.0956 93.8699 71.3448 91.2952C83.5941 88.7206 93.9609 88.7375 94.5037 91.3202C94.5037 91.3202 94.95 92.3436 95.3786 93.8331C98.443 104.747 98.5293 114.321 96.2467 117.575C97.7185 117.612 100.029 117.974 100.432 119.893C100.657 120.963 97.3263 123.627 92.277 125.999C93.7046 130.591 96.2213 136.149 100.505 141.683C105.784 148.471 166.486 191.111 147.647 229.782L162.926 331.436C162.926 331.436 199.592 366.762 182.242 394.372C181.746 395.131 181.251 395.89 180.682 396.664C180.682 396.664 174.014 402.15 165.082 401.446C165.082 401.446 164.698 407.498 159.023 410.925C153.282 414.405 147.559 412.102 143.376 407.78C139.185 403.422 132.079 405.724 129.416 408.634C126.753 411.544 122.985 417.075 118.776 418.498C117.413 418.978 115.683 418.995 113.839 418.65C110.031 417.948 105.861 415.704 104.235 412.733C104.235 412.733 92.5199 420.049 82.3009 407.172C80.9908 405.521 79.8496 403.758 78.8483 401.927C73.3662 391.791 70.6703 376.215 72.8497 361.657L72.6866 361.614Z" stroke="white" stroke-width="6"/>
<path d="M306.794 69.7159L307.508 71.1919L319.337 74.6832C319.337 74.6832 354.607 57.4803 385.32 105.113C387.297 108.182 389.575 111.051 391.002 114.422C392.285 117.504 393.704 121.321 394.205 124.335C394.263 124.742 396.553 125.684 399.601 126.685C400.875 124.476 401.898 123.319 402.494 122.945C403.882 122.081 404.982 124.079 404.959 125.836C407.467 125.435 417.838 125.463 423.59 128.97C425.408 129.507 424.829 137.021 422.273 145.748C419.717 154.474 416.218 161.133 414.4 160.596C414.4 160.596 406.658 160.648 397.302 152.605C396.807 153.538 395.757 155.107 394.326 154.673C393.656 154.496 393.146 152.038 393.19 148.636C391.332 148.145 389.37 147.738 387.56 147.483C386.229 147.299 377.021 156.757 372.584 159.446C351.845 172.012 314.307 177.226 296.279 151.976L285.392 148.37L285.294 148.428C282.117 150.526 278.193 151.168 274.544 150.147L274.466 150.126L188.71 125.998C188.71 125.998 172.694 132.705 149.722 108.722C149.401 108.161 149.093 107.548 148.812 106.942C148.812 106.942 148.12 103.401 149.297 99.2633C149.668 97.9623 150.248 96.6046 151.093 95.2888C150.996 95.2354 147.4 92.9693 147.176 88.1809C146.92 83.3003 150.312 80.3913 154.49 79.2015C158.65 77.9788 159.621 72.6387 158.7 69.9609C157.754 67.2762 155.552 62.9723 156.091 59.7848C156.251 58.7637 156.852 57.6356 157.687 56.5689C159.434 54.3445 162.284 52.4396 164.694 52.4053C164.694 52.4053 164.222 39.5762 175.874 37.3682C177.356 37.0883 200.609 30.6721 212.826 43.1365L300.985 64.962C303.52 65.6043 305.662 67.3178 306.82 69.7227L306.794 69.7159Z" stroke="white" stroke-width="6"/>
<path d="M1363.51 305.765C1363.43 314.472 1360.69 322.135 1355.06 328.825C1349.06 335.977 1341.25 338.178 1332.27 337.001C1320.34 335.449 1309.31 330.94 1298.37 326.294C1287.68 321.783 1277.1 317.038 1266.47 312.398C1264.93 311.732 1263.31 311.235 1261.63 311.084C1259.34 310.897 1258.37 311.811 1258.36 314.087C1258.33 315.952 1259.02 317.645 1259.72 319.313C1263.73 329.081 1268.66 338.418 1272.86 348.098C1277.65 359.108 1282.55 370.085 1284.8 381.963C1286.21 389.399 1286.11 396.668 1281.18 402.993C1275.21 410.618 1267.15 414.654 1257.59 415.732C1250.28 416.564 1243.46 415.326 1237.67 410.457C1234.02 407.399 1231.48 403.491 1229.3 399.355C1223.5 388.415 1220.07 376.609 1216.56 364.827C1214.23 356.954 1212.04 349.04 1209.77 341.134C1209.05 338.614 1208.19 336.142 1207.06 333.785C1206.64 332.92 1206.17 332.022 1205.05 331.972C1203.83 331.931 1203.25 332.851 1202.8 333.771C1201.45 336.464 1200.68 339.331 1199.87 342.206C1196.06 356.074 1192.55 370.052 1187.93 383.707C1185.68 390.394 1183.07 396.938 1179.43 403.046C1173.02 413.809 1163.32 418.249 1150.89 416.088C1144.5 414.977 1138.73 412.486 1133.71 408.4C1126.07 402.199 1124.06 393.994 1125.38 384.7C1127.01 373.354 1131.24 362.804 1135.71 352.374C1140.1 342.145 1144.76 332.035 1149.21 321.854C1150.02 319.984 1150.62 318.01 1151.11 316.054C1151.91 312.769 1150.25 311.106 1146.93 311.898C1143.38 312.771 1140.04 314.287 1136.74 315.842C1125.45 321.144 1114.18 326.477 1102.58 331.105C1094.94 334.166 1087.19 337.05 1078.98 338.329C1065.7 340.394 1056.67 336.034 1050.29 324.246C1046.63 317.49 1045.15 310.239 1046.33 302.553C1047.41 295.4 1051.4 290.158 1057.22 286.135C1064.07 281.391 1071.79 278.491 1079.58 275.767C1093.65 270.859 1108.08 267.203 1122.37 263.033C1124.54 262.393 1126.7 261.681 1128.68 260.584C1130.91 259.34 1130.92 257.748 1128.66 256.58C1124.73 254.553 1120.42 253.646 1116.2 252.522C1103.71 249.187 1091.21 245.949 1078.97 241.866C1072.17 239.607 1065.51 237.042 1059.3 233.421C1051.38 228.813 1046.22 222.46 1045.44 213.018C1044.42 200.442 1051.45 185.051 1063.35 180.534C1069.54 178.182 1075.87 178.803 1082.11 180.213C1092.7 182.578 1102.74 186.57 1112.66 190.868C1121.76 194.802 1130.77 198.913 1139.87 202.878C1141.94 203.767 1144.11 204.509 1146.29 205.035C1149.59 205.835 1151.2 204.105 1150.42 200.813C1149.25 195.964 1146.92 191.58 1144.82 187.107C1138.72 174.151 1132.52 161.203 1127.8 147.652C1125.39 140.696 1123.43 133.672 1123.51 126.179C1123.58 119.047 1126.46 113.321 1131.83 108.875C1138.44 103.409 1146.02 100.357 1155.24 100.486C1166.75 99.9112 1174.03 106.589 1179.31 116.302C1184.94 126.664 1188.29 137.9 1191.65 149.112C1194.45 158.445 1197.07 167.828 1199.79 177.187C1200.36 179.153 1201.02 181.087 1202.08 182.833C1203.36 184.876 1204.9 184.818 1206.02 182.681C1207.83 179.229 1208.7 175.461 1209.7 171.749C1213.45 157.914 1216.96 144.024 1221.74 130.496C1224.52 122.609 1227.6 114.8 1233.07 108.271C1237.4 103.107 1243 100.34 1249.79 99.9379C1258.41 99.412 1266.3 101.431 1273.33 106.519C1281.33 112.308 1284.95 120.013 1283.74 129.925C1282.28 142.074 1277.71 153.253 1272.99 164.352C1268.46 174.992 1263.68 185.528 1259.04 196.121C1258.35 197.652 1257.86 199.263 1257.7 200.937C1257.47 203.744 1258.71 204.918 1261.48 204.427C1264.45 203.887 1267.2 202.673 1269.91 201.426C1281.72 196.058 1293.4 190.344 1305.45 185.488C1313.45 182.289 1321.54 179.402 1330.08 177.912C1342.22 175.806 1351.39 180.028 1357.74 190.442C1361.85 197.187 1363.51 204.542 1362.76 212.385C1361.96 220.904 1357.1 226.818 1350.05 231.194C1340.4 237.169 1329.68 240.586 1318.93 243.858C1308.52 247.024 1298.05 249.868 1287.59 252.905C1285.51 253.521 1283.45 254.305 1281.41 255.073C1280.18 255.538 1278.75 256.053 1278.73 257.613C1278.7 259.302 1280.24 259.751 1281.53 260.282C1285.99 262.128 1290.7 263.21 1295.35 264.444C1309.17 268.133 1323.01 271.756 1336.44 276.725C1342.2 278.854 1347.78 281.385 1352.81 284.957C1360.02 290.043 1363.57 296.944 1363.5 305.773L1363.51 305.765Z" fill="#9493F8" stroke="white" stroke-width="6" stroke-miterlimit="10"/>
<circle cx="275.78" cy="287.486" r="143.539" fill="#9493F8"/>
<path d="M178.334 169.766L178.336 169.764C201.185 150.585 229.206 138.613 258.858 135.361C288.509 132.109 318.457 137.724 344.915 151.495C371.373 165.267 393.153 186.576 407.498 212.728C421.844 238.881 428.112 268.701 425.509 298.418C422.907 328.135 411.55 356.413 392.876 379.677C374.203 402.94 349.05 420.144 320.601 429.111C292.151 438.079 261.682 438.408 233.047 430.057C204.413 421.706 178.899 405.05 159.733 382.196C139.912 358.464 127.838 329.228 125.138 298.423C122.437 267.618 129.239 236.725 144.628 209.902C153.424 194.651 164.833 181.066 178.334 169.766ZM377.259 192.761L379.179 191.15L377.467 189.32C358.772 169.328 334.606 155.282 307.982 148.933L305.884 148.432L305.184 150.472C301.982 159.806 297.856 168.797 292.867 177.31L292.863 177.317L292.859 177.324C292.238 178.399 291.556 179.47 290.836 180.601L290.835 180.603C290.124 181.72 289.377 182.895 288.677 184.107L287.606 185.962L289.34 187.219C305.309 198.788 319.931 212.111 332.932 226.938L334.465 228.685L336.245 227.191L377.259 192.761ZM279.22 379.66L277.641 381.754L279.881 383.118C294.762 392.179 309.456 398.264 322.877 400.819C336.287 403.373 348.595 402.43 358.503 397.202L361.105 395.829L359.214 393.575L316.788 342.988L315.222 341.122L313.396 342.734C300.79 353.861 289.34 366.232 279.22 379.66ZM173.221 377.781L171.301 379.394L173.015 381.224C191.722 401.198 215.882 415.241 242.497 421.609L244.588 422.109L245.293 420.079C249.397 408.274 254.908 397.007 261.707 386.52L262.933 384.63L261.109 383.306C245.16 371.726 230.555 358.399 217.569 343.573L216.036 341.822L214.254 343.319L173.221 377.781ZM225.909 333.55L224.043 335.114L225.653 336.941C238.035 350.993 251.936 363.631 267.102 374.621L268.996 375.993L270.398 374.121C281.157 359.745 293.364 346.512 306.827 334.629L308.567 333.093L307.072 331.318L276.116 294.563L274.589 292.75L272.773 294.272L225.909 333.55ZM271.28 190.849L272.861 188.752L270.617 187.389C255.727 178.345 241.028 172.27 227.605 169.719C214.193 167.169 201.886 168.112 191.978 173.34L189.375 174.714L191.268 176.968L233.713 227.522L235.279 229.386L237.104 227.775C249.71 216.648 261.16 204.277 271.28 190.849ZM183.019 183.856L181.052 181.512L179.269 184C178.225 185.457 177.433 186.86 176.638 188.305C166.199 206.41 168.241 234.021 179.82 263.762L180.775 266.216L183.118 265.014C198.005 257.38 212.081 248.258 225.132 237.789L227.027 236.269L225.465 234.409L183.019 183.856ZM235.44 246.224L233.949 244.457L232.142 245.9C218.132 257.094 203.019 266.666 187.012 274.804L184.928 275.863L185.954 277.964C194.152 294.747 204.171 310.577 215.833 325.168L217.354 327.07L219.218 325.502L266.001 286.134L267.821 284.602L266.287 282.785L235.44 246.224ZM367.395 386.648L369.302 388.919L371.102 386.563C372.197 385.13 373.133 383.754 374.053 382.18L374.059 382.169C384.377 364.299 382.377 336.613 371.042 306.836L370.105 304.375L367.754 305.56C352.71 313.136 338.482 322.233 325.292 332.707L323.38 334.225L324.95 336.095L367.395 386.648ZM314.97 324.274L316.465 326.058L318.279 324.599C332.274 313.343 347.456 303.751 363.483 295.565L365.561 294.504L364.537 292.407C356.34 275.624 346.32 259.794 334.658 245.204L333.14 243.303L331.276 244.867L284.445 284.164L282.627 285.69L284.152 287.509L314.97 324.274ZM274.344 276.01L275.872 277.83L277.691 276.301L324.508 236.952L326.369 235.388L324.762 233.564C312.406 219.539 298.539 206.922 283.414 195.942L281.519 194.566L280.117 196.44C269.363 210.808 257.151 224.024 243.677 235.877L241.934 237.411L243.426 239.188L274.344 276.01ZM294.483 149.401L295.512 146.595L292.547 146.226C269.911 143.404 246.928 146.148 225.591 154.218L217.273 157.364L226.052 158.784C236.076 160.407 245.851 163.311 255.135 167.425L255.14 167.427C262.66 170.74 269.943 174.565 276.938 178.878L278.921 180.101L280.182 178.141C285.99 169.115 290.786 159.477 294.483 149.401ZM153.777 215.188L153.776 215.19C142.702 234.402 136.34 255.966 135.214 278.113L135.062 281.107L138.011 280.571C148.583 278.649 158.91 275.566 168.805 271.377L170.986 270.454L170.07 268.271C162.942 251.279 159.256 233.041 159.224 214.614L159.209 205.779L154.792 213.43L153.777 215.188ZM137.382 291.319L135.236 291.646L135.369 293.813C137.041 321.088 146.712 347.266 163.174 369.075L164.681 371.071L166.597 369.464L207.501 335.148L209.281 333.655L207.828 331.843C195.494 316.456 184.92 299.737 176.304 281.998L175.315 279.961L173.233 280.852C162.04 285.642 150.326 289.106 138.329 291.175L137.382 291.319ZM255.998 421.141L254.969 423.947L257.934 424.317C280.57 427.138 303.553 424.395 324.89 416.324L333.217 413.175L324.428 411.758C314.407 410.141 304.639 407.227 295.372 403.087L295.362 403.082L295.352 403.078C287.821 399.796 280.534 395.982 273.545 391.666L271.561 390.44L270.299 392.401C264.491 401.427 259.695 411.065 255.998 421.141ZM391.238 355.962L391.255 364.792L395.67 357.145L396.666 355.42C407.764 336.191 414.14 314.602 415.267 292.429L415.419 289.432L412.468 289.972C401.9 291.904 391.575 294.986 381.678 299.164L379.497 300.085L380.41 302.269C387.522 319.278 391.202 337.525 391.238 355.962ZM413.118 279.19L415.258 278.864L415.131 276.703C413.536 249.363 403.911 223.101 387.463 201.206L385.958 199.202L384.037 200.813L343.133 235.129L341.358 236.618L342.803 238.43C355.125 253.879 365.655 270.676 374.19 288.499L375.172 290.549L377.262 289.659C388.467 284.893 400.18 281.429 412.174 279.333L413.118 279.19Z" fill="white" stroke="#9493F8" stroke-width="4.75067"/>
<path d="M222.411 135.455L247 142.5" stroke="white" stroke-width="6"/>
<path d="M357 164.801C362.335 164.16 365.281 163.911 371.933 159.804" stroke="white" stroke-width="6"/>
<path d="M183.268 395.61C179.204 398.324 178.022 399.901 171 401" stroke="white" stroke-width="6"/>
<path d="M147 195.229C149 200.729 150 204 150.5 210" stroke="white" stroke-width="6"/>
</g>
<defs>
<clipPath id="clip0_381_2">
<rect width="1386" height="462" fill="white"/>
</clipPath>
</defs>
</svg>
