<svg width="97" height="41" viewBox="0 0 97 41" fill="none" xmlns="http://www.w3.org/2000/svg">
<path d="M19.0855 29V11.0364H30.9794V14.1677H22.8834V18.4481H30.1899V21.5795H22.8834V29H19.0855ZM33.2467 29V15.5273H36.8693V17.878H37.0096C37.2552 17.0418 37.6675 16.4103 38.2464 15.9834C38.8253 15.5507 39.4919 15.3343 40.2462 15.3343C40.4334 15.3343 40.6351 15.346 40.8515 15.3694C41.0678 15.3928 41.2579 15.4249 41.4216 15.4659V18.7814C41.2462 18.7288 41.0035 18.682 40.6936 18.6411C40.3837 18.6002 40.1001 18.5797 39.8428 18.5797C39.2931 18.5797 38.8019 18.6996 38.3692 18.9393C37.9423 19.1732 37.6032 19.5007 37.3517 19.9217C37.1061 20.3427 36.9833 20.8281 36.9833 21.3777V29H33.2467ZM48.8136 29.2631C47.4511 29.2631 46.2729 28.9737 45.2788 28.3948C44.2905 27.81 43.5274 26.9972 42.9895 25.9564C42.4515 24.9096 42.1825 23.6963 42.1825 22.3163C42.1825 20.9245 42.4515 19.7083 42.9895 18.6674C43.5274 17.6207 44.2905 16.8079 45.2788 16.229C46.2729 15.6442 47.4511 15.3518 48.8136 15.3518C50.1761 15.3518 51.3514 15.6442 52.3397 16.229C53.3338 16.8079 54.0998 17.6207 54.6378 18.6674C55.1757 19.7083 55.4447 20.9245 55.4447 22.3163C55.4447 23.6963 55.1757 24.9096 54.6378 25.9564C54.0998 26.9972 53.3338 27.81 52.3397 28.3948C51.3514 28.9737 50.1761 29.2631 48.8136 29.2631ZM48.8312 26.3686C49.451 26.3686 49.9685 26.1932 50.3837 25.8423C50.7989 25.4856 51.1117 25.0003 51.3222 24.3863C51.5386 23.7723 51.6467 23.0735 51.6467 22.2899C51.6467 21.5064 51.5386 20.8076 51.3222 20.1936C51.1117 19.5796 50.7989 19.0943 50.3837 18.7376C49.9685 18.3809 49.451 18.2025 48.8312 18.2025C48.2055 18.2025 47.6792 18.3809 47.2523 18.7376C46.8313 19.0943 46.5126 19.5796 46.2963 20.1936C46.0857 20.8076 45.9805 21.5064 45.9805 22.2899C45.9805 23.0735 46.0857 23.7723 46.2963 24.3863C46.5126 25.0003 46.8313 25.4856 47.2523 25.8423C47.6792 26.1932 48.2055 26.3686 48.8312 26.3686ZM57.8744 29V15.5273H61.4355V17.9043H61.5934C61.8741 17.1149 62.3419 16.4921 62.9968 16.036C63.6517 15.5799 64.4353 15.3518 65.3475 15.3518C66.2714 15.3518 67.0579 15.5828 67.707 16.0448C68.3561 16.5009 68.7888 17.1207 69.0052 17.9043H69.1455C69.4203 17.1324 69.9174 16.5155 70.6366 16.0536C71.3617 15.5857 72.2184 15.3518 73.2066 15.3518C74.4638 15.3518 75.4842 15.7524 76.2678 16.5535C77.0572 17.3488 77.4519 18.4774 77.4519 19.9392V29H73.7241V20.676C73.7241 19.9275 73.5253 19.3662 73.1277 18.9919C72.73 18.6177 72.233 18.4306 71.6366 18.4306C70.9582 18.4306 70.429 18.6469 70.049 19.0797C69.6689 19.5065 69.4788 20.0708 69.4788 20.7725V29H65.8563V20.5971C65.8563 19.9363 65.6662 19.41 65.2861 19.0183C64.9119 18.6265 64.4178 18.4306 63.8038 18.4306C63.3886 18.4306 63.0144 18.5358 62.6811 18.7463C62.3536 18.951 62.0934 19.2405 61.9004 19.6147C61.7074 19.9831 61.611 20.4158 61.611 20.9129V29H57.8744Z" fill="#9493F8"/>
</svg>
