<svg width="312" height="42" viewBox="0 0 312 42" fill="none" xmlns="http://www.w3.org/2000/svg">
<path d="M6.24599 25.2427L6.25476 20.7606H6.79858L11.1141 15.6469H15.4032L9.6054 22.4184H8.7195L6.24599 25.2427ZM2.86026 29.1196V11.156H6.59684V29.1196H2.86026ZM11.2807 29.1196L7.31609 23.2516L9.80714 20.6115L15.6576 29.1196H11.2807ZM22.7514 34.4526C21.541 34.4526 20.503 34.2859 19.6376 33.9526C18.778 33.6252 18.0938 33.1778 17.5851 32.6106C17.0764 32.0434 16.746 31.406 16.5939 30.6985L20.0498 30.2336C20.1551 30.5026 20.3217 30.754 20.5498 30.9879C20.7779 31.2218 21.079 31.4089 21.4532 31.5493C21.8333 31.6955 22.2953 31.7686 22.8391 31.7686C23.6519 31.7686 24.3215 31.5697 24.8477 31.1721C25.3799 30.7803 25.6459 30.1225 25.6459 29.1986V26.7338H25.488C25.3243 27.1081 25.0787 27.4619 24.7513 27.7952C24.4238 28.1285 24.0028 28.4004 23.4882 28.6109C22.9736 28.8214 22.3596 28.9267 21.6462 28.9267C20.6346 28.9267 19.7136 28.6928 18.8832 28.225C18.0587 27.7513 17.4009 27.0291 16.9097 26.0584C16.4244 25.0819 16.1817 23.8481 16.1817 22.357C16.1817 20.8307 16.4302 19.556 16.9272 18.5327C17.4243 17.5093 18.0851 16.7433 18.9096 16.2346C19.7399 15.7258 20.6492 15.4715 21.6374 15.4715C22.3918 15.4715 23.0233 15.6001 23.532 15.8574C24.0408 16.1089 24.4501 16.4246 24.76 16.8047C25.0758 17.179 25.3185 17.5474 25.488 17.9099H25.6284V15.6469H29.3386V29.2512C29.3386 30.3973 29.058 31.3563 28.4966 32.1282C27.9352 32.9001 27.1575 33.479 26.1634 33.8649C25.1752 34.2567 24.0379 34.4526 22.7514 34.4526ZM22.8303 26.1198C23.4326 26.1198 23.9414 25.9707 24.3565 25.6725C24.7776 25.3684 25.0992 24.9357 25.3214 24.3744C25.5494 23.8071 25.6635 23.1288 25.6635 22.3394C25.6635 21.55 25.5524 20.8658 25.3302 20.2869C25.108 19.7022 24.7863 19.249 24.3653 18.9274C23.9443 18.6058 23.4326 18.4449 22.8303 18.4449C22.2163 18.4449 21.6988 18.6116 21.2778 18.9449C20.8568 19.2724 20.5381 19.7285 20.3217 20.3132C20.1054 20.898 19.9972 21.5734 19.9972 22.3394C19.9972 23.1171 20.1054 23.7896 20.3217 24.3568C20.5439 24.9182 20.8626 25.3538 21.2778 25.6637C21.6988 25.9678 22.2163 26.1198 22.8303 26.1198ZM44.1161 29.3828C42.7536 29.3828 41.5754 29.0933 40.5813 28.5144C39.593 27.9297 38.8299 27.1168 38.292 26.076C37.754 25.0293 37.485 23.8159 37.485 22.4359C37.485 21.0442 37.754 19.8279 38.292 18.787C38.8299 17.7403 39.593 16.9275 40.5813 16.3486C41.5754 15.7639 42.7536 15.4715 44.1161 15.4715C45.4786 15.4715 46.6539 15.7639 47.6422 16.3486C48.6363 16.9275 49.4023 17.7403 49.9403 18.787C50.4782 19.8279 50.7472 21.0442 50.7472 22.4359C50.7472 23.8159 50.4782 25.0293 49.9403 26.076C49.4023 27.1168 48.6363 27.9297 47.6422 28.5144C46.6539 29.0933 45.4786 29.3828 44.1161 29.3828ZM44.1336 26.4882C44.7535 26.4882 45.271 26.3128 45.6862 25.962C46.1013 25.6053 46.4142 25.1199 46.6247 24.5059C46.8411 23.8919 46.9492 23.1931 46.9492 22.4096C46.9492 21.626 46.8411 20.9272 46.6247 20.3132C46.4142 19.6992 46.1013 19.2139 45.6862 18.8572C45.271 18.5005 44.7535 18.3221 44.1336 18.3221C43.508 18.3221 42.9817 18.5005 42.5548 18.8572C42.1338 19.2139 41.8151 19.6992 41.5987 20.3132C41.3882 20.9272 41.283 21.626 41.283 22.4096C41.283 23.1931 41.3882 23.8919 41.5987 24.5059C41.8151 25.1199 42.1338 25.6053 42.5548 25.962C42.9817 26.3128 43.508 26.4882 44.1336 26.4882ZM60.422 15.6469V18.4537H52.1068V15.6469H60.422ZM54.0101 29.1196V14.6733C54.0101 13.6967 54.2002 12.8869 54.5803 12.2436C54.9662 11.6004 55.4925 11.118 56.1591 10.7964C56.8257 10.4748 57.583 10.3139 58.4309 10.3139C59.0039 10.3139 59.5273 10.3578 60.0009 10.4455C60.4804 10.5332 60.8371 10.6122 61.071 10.6823L60.4044 13.4892C60.2582 13.4424 60.077 13.3985 59.8606 13.3576C59.6501 13.3167 59.4337 13.2962 59.2115 13.2962C58.6619 13.2962 58.2788 13.4248 58.0625 13.6821C57.8461 13.9336 57.7379 14.2873 57.7379 14.7435V29.1196H54.0101ZM72.2632 29.374C71.4036 29.374 70.6376 29.2249 69.9651 28.9267C69.2927 28.6226 68.7606 28.1753 68.3688 27.5847C67.9828 26.9882 67.7899 26.2456 67.7899 25.3567C67.7899 24.6083 67.9273 23.9796 68.2021 23.4709C68.4769 22.9622 68.8512 22.5528 69.3248 22.2429C69.7985 21.933 70.3365 21.6991 70.9388 21.5412C71.5469 21.3833 72.1843 21.2722 72.8509 21.2079C73.6345 21.126 74.266 21.05 74.7455 20.9799C75.225 20.9038 75.5729 20.7927 75.7893 20.6465C76.0057 20.5004 76.1138 20.284 76.1138 19.9975V19.9448C76.1138 19.3893 75.9384 18.9595 75.5876 18.6555C75.2426 18.3514 74.7514 18.1994 74.114 18.1994C73.4415 18.1994 72.9065 18.3485 72.5088 18.6467C72.1112 18.9391 71.8481 19.3075 71.7194 19.7519L68.2635 19.4712C68.4389 18.6525 68.7839 17.945 69.2985 17.3485C69.8131 16.7462 70.4768 16.2843 71.2896 15.9627C72.1083 15.6352 73.0556 15.4715 74.1315 15.4715C74.88 15.4715 75.5963 15.5592 76.2805 15.7346C76.9705 15.91 77.5816 16.182 78.1137 16.5503C78.6517 16.9187 79.0756 17.3924 79.3855 17.9713C79.6955 18.5444 79.8504 19.2314 79.8504 20.0326V29.1196H76.3068V27.2513H76.2015C75.9852 27.6724 75.6957 28.0437 75.3332 28.3653C74.9706 28.6811 74.535 28.9296 74.0263 29.1109C73.5175 29.2863 72.9298 29.374 72.2632 29.374ZM73.3333 26.7952C73.883 26.7952 74.3683 26.6871 74.7894 26.4707C75.2104 26.2485 75.5408 25.9503 75.7805 25.576C76.0203 25.2018 76.1401 24.7778 76.1401 24.3042V22.8745C76.0232 22.9505 75.8624 23.0206 75.6577 23.085C75.4589 23.1434 75.2338 23.199 74.9823 23.2516C74.7309 23.2984 74.4794 23.3423 74.228 23.3832C73.9766 23.4183 73.7485 23.4504 73.5438 23.4797C73.1053 23.544 72.7223 23.6463 72.3948 23.7867C72.0673 23.927 71.813 24.1171 71.6317 24.3568C71.4504 24.5907 71.3598 24.8831 71.3598 25.2339C71.3598 25.7427 71.544 26.1315 71.9124 26.4005C72.2866 26.6637 72.7603 26.7952 73.3333 26.7952ZM86.4859 11.156V29.1196H82.7493V11.156H86.4859ZM98.1189 23.3832V15.6469H101.855V29.1196H98.268V26.6724H98.1276C97.8236 27.4619 97.3177 28.0963 96.6102 28.5758C95.9085 29.0553 95.0518 29.2951 94.0402 29.2951C93.1397 29.2951 92.3473 29.0904 91.6632 28.6811C90.979 28.2717 90.444 27.6899 90.058 26.9356C89.6779 26.1812 89.485 25.2778 89.4791 24.2252V15.6469H93.2157V23.5586C93.2215 24.3539 93.435 24.9825 93.856 25.4445C94.277 25.9064 94.8413 26.1374 95.5489 26.1374C95.9991 26.1374 96.4201 26.0351 96.8119 25.8304C97.2037 25.6199 97.5195 25.31 97.7592 24.9006C98.0048 24.4913 98.1247 23.9855 98.1189 23.3832ZM104.844 29.1196V15.6469H108.405V18.0239H108.563C108.844 17.2345 109.312 16.6117 109.967 16.1556C110.622 15.6995 111.405 15.4715 112.317 15.4715C113.241 15.4715 114.028 15.7025 114.677 16.1644C115.326 16.6205 115.759 17.2404 115.975 18.0239H116.115C116.39 17.2521 116.887 16.6351 117.607 16.1732C118.332 15.7054 119.188 15.4715 120.176 15.4715C121.434 15.4715 122.454 15.872 123.238 16.6731C124.027 17.4684 124.422 18.597 124.422 20.0589V29.1196H120.694V20.7957C120.694 20.0472 120.495 19.4858 120.098 19.1116C119.7 18.7373 119.203 18.5502 118.606 18.5502C117.928 18.5502 117.399 18.7666 117.019 19.1993C116.639 19.6262 116.449 20.1904 116.449 20.8921V29.1196H112.826V20.7167C112.826 20.0559 112.636 19.5297 112.256 19.1379C111.882 18.7461 111.388 18.5502 110.774 18.5502C110.358 18.5502 109.984 18.6555 109.651 18.866C109.323 19.0706 109.063 19.3601 108.87 19.7343C108.677 20.1027 108.581 20.5354 108.581 21.0325V29.1196H104.844ZM127.373 29.1196V15.6469H131.11V29.1196H127.373ZM129.25 13.9102C128.695 13.9102 128.218 13.726 127.821 13.3576C127.429 12.9833 127.233 12.536 127.233 12.0156C127.233 11.501 127.429 11.0595 127.821 10.6911C128.218 10.3169 128.695 10.1297 129.25 10.1297C129.806 10.1297 130.28 10.3169 130.671 10.6911C131.069 11.0595 131.268 11.501 131.268 12.0156C131.268 12.536 131.069 12.9833 130.671 13.3576C130.28 13.726 129.806 13.9102 129.25 13.9102ZM137.84 21.3307V29.1196H134.103V15.6469H137.664V18.0239H137.822C138.12 17.2404 138.62 16.6205 139.322 16.1644C140.024 15.7025 140.875 15.4715 141.875 15.4715C142.81 15.4715 143.626 15.6761 144.322 16.0855C145.018 16.4948 145.558 17.0795 145.944 17.8397C146.33 18.5941 146.523 19.4946 146.523 20.5413V29.1196H142.787V21.2079C142.793 20.3834 142.582 19.7402 142.155 19.2782C141.728 18.8104 141.141 18.5765 140.392 18.5765C139.889 18.5765 139.445 18.6847 139.059 18.9011C138.679 19.1174 138.381 19.4332 138.164 19.8484C137.954 20.2577 137.846 20.7518 137.84 21.3307ZM149.468 29.1196V15.6469H153.205V29.1196H149.468ZM151.345 13.9102C150.79 13.9102 150.313 13.726 149.916 13.3576C149.524 12.9833 149.328 12.536 149.328 12.0156C149.328 11.501 149.524 11.0595 149.916 10.6911C150.313 10.3169 150.79 10.1297 151.345 10.1297C151.901 10.1297 152.375 10.3169 152.766 10.6911C153.164 11.0595 153.363 11.501 153.363 12.0156C153.363 12.536 153.164 12.9833 152.766 13.3576C152.375 13.726 151.901 13.9102 151.345 13.9102ZM164.838 23.3832V15.6469H168.574V29.1196H164.987V26.6724H164.847C164.542 27.4619 164.037 28.0963 163.329 28.5758C162.627 29.0553 161.771 29.2951 160.759 29.2951C159.859 29.2951 159.066 29.0904 158.382 28.6811C157.698 28.2717 157.163 27.6899 156.777 26.9356C156.397 26.1812 156.204 25.2778 156.198 24.2252V15.6469H159.935V23.5586C159.94 24.3539 160.154 24.9825 160.575 25.4445C160.996 25.9064 161.56 26.1374 162.268 26.1374C162.718 26.1374 163.139 26.0351 163.531 25.8304C163.923 25.6199 164.238 25.31 164.478 24.9006C164.724 24.4913 164.844 23.9855 164.838 23.3832ZM171.563 29.1196V15.6469H175.124V18.0239H175.282C175.563 17.2345 176.031 16.6117 176.686 16.1556C177.341 15.6995 178.124 15.4715 179.036 15.4715C179.96 15.4715 180.747 15.7025 181.396 16.1644C182.045 16.6205 182.478 17.2404 182.694 18.0239H182.834C183.109 17.2521 183.606 16.6351 184.325 16.1732C185.051 15.7054 185.907 15.4715 186.895 15.4715C188.153 15.4715 189.173 15.872 189.957 16.6731C190.746 17.4684 191.141 18.597 191.141 20.0589V29.1196H187.413V20.7957C187.413 20.0472 187.214 19.4858 186.817 19.1116C186.419 18.7373 185.922 18.5502 185.325 18.5502C184.647 18.5502 184.118 18.7666 183.738 19.1993C183.358 19.6262 183.168 20.1904 183.168 20.8921V29.1196H179.545V20.7167C179.545 20.0559 179.355 19.5297 178.975 19.1379C178.601 18.7461 178.107 18.5502 177.493 18.5502C177.077 18.5502 176.703 18.6555 176.37 18.866C176.042 19.0706 175.782 19.3601 175.589 19.7343C175.396 20.1027 175.3 20.5354 175.3 21.0325V29.1196H171.563ZM205.896 29.3828C204.516 29.3828 203.329 29.0904 202.335 28.5056C201.347 27.915 200.587 27.0964 200.055 26.0497C199.528 25.003 199.265 23.7984 199.265 22.4359C199.265 21.0559 199.531 19.8454 200.063 18.8046C200.601 17.7579 201.364 16.9421 202.353 16.3574C203.341 15.7668 204.516 15.4715 205.879 15.4715C207.054 15.4715 208.083 15.6849 208.966 16.1118C209.849 16.5387 210.548 17.138 211.063 17.9099C211.577 18.6818 211.861 19.5881 211.913 20.629H208.387C208.288 19.9565 208.025 19.4156 207.598 19.0063C207.177 18.5911 206.624 18.3835 205.94 18.3835C205.361 18.3835 204.855 18.5414 204.423 18.8572C203.996 19.1671 203.663 19.6203 203.423 20.2168C203.183 20.8132 203.063 21.5354 203.063 22.3833C203.063 23.2429 203.18 23.9738 203.414 24.5761C203.654 25.1784 203.99 25.6374 204.423 25.9532C204.855 26.269 205.361 26.4268 205.94 26.4268C206.367 26.4268 206.75 26.3391 207.089 26.1637C207.434 25.9883 207.718 25.7339 207.94 25.4006C208.168 25.0614 208.317 24.655 208.387 24.1814H211.913C211.855 25.2105 211.574 26.1169 211.071 26.9005C210.574 27.6782 209.887 28.2864 209.01 28.7249C208.133 29.1635 207.095 29.3828 205.896 29.3828ZM220.393 29.3828C219.031 29.3828 217.852 29.0933 216.858 28.5144C215.87 27.9297 215.107 27.1168 214.569 26.076C214.031 25.0293 213.762 23.8159 213.762 22.4359C213.762 21.0442 214.031 19.8279 214.569 18.787C215.107 17.7403 215.87 16.9275 216.858 16.3486C217.852 15.7639 219.031 15.4715 220.393 15.4715C221.756 15.4715 222.931 15.7639 223.919 16.3486C224.913 16.9275 225.679 17.7403 226.217 18.787C226.755 19.8279 227.024 21.0442 227.024 22.4359C227.024 23.8159 226.755 25.0293 226.217 26.076C225.679 27.1168 224.913 27.9297 223.919 28.5144C222.931 29.0933 221.756 29.3828 220.393 29.3828ZM220.411 26.4882C221.03 26.4882 221.548 26.3128 221.963 25.962C222.378 25.6053 222.691 25.1199 222.902 24.5059C223.118 23.8919 223.226 23.1931 223.226 22.4096C223.226 21.626 223.118 20.9272 222.902 20.3132C222.691 19.6992 222.378 19.2139 221.963 18.8572C221.548 18.5005 221.03 18.3221 220.411 18.3221C219.785 18.3221 219.259 18.5005 218.832 18.8572C218.411 19.2139 218.092 19.6992 217.876 20.3132C217.665 20.9272 217.56 21.626 217.56 22.4096C217.56 23.1931 217.665 23.8919 217.876 24.5059C218.092 25.1199 218.411 25.6053 218.832 25.962C219.259 26.3128 219.785 26.4882 220.411 26.4882ZM233.19 11.156V29.1196H229.454V11.156H233.19ZM239.92 11.156V29.1196H236.184V11.156H239.92ZM249.053 29.3828C247.667 29.3828 246.475 29.1021 245.475 28.5407C244.481 27.9735 243.715 27.1724 243.177 26.1374C242.639 25.0965 242.37 23.8656 242.37 22.4447C242.37 21.0588 242.639 19.8425 243.177 18.7958C243.715 17.7491 244.472 16.9334 245.448 16.3486C246.431 15.7639 247.583 15.4715 248.904 15.4715C249.793 15.4715 250.62 15.6147 251.386 15.9013C252.158 16.182 252.831 16.6059 253.404 17.1731C253.983 17.7403 254.433 18.4537 254.755 19.3133C255.076 20.167 255.237 21.167 255.237 22.3131V23.3393H243.861V21.0237H251.72C251.72 20.4857 251.603 20.0092 251.369 19.594C251.135 19.1788 250.81 18.8543 250.395 18.6204C249.986 18.3806 249.509 18.2608 248.966 18.2608C248.398 18.2608 247.895 18.3923 247.457 18.6555C247.024 18.9128 246.685 19.2607 246.439 19.6992C246.194 20.132 246.068 20.6144 246.062 21.1465V23.3481C246.062 24.0147 246.185 24.5907 246.431 25.0761C246.682 25.5614 247.036 25.9356 247.492 26.1988C247.948 26.4619 248.489 26.5935 249.115 26.5935C249.53 26.5935 249.91 26.535 250.255 26.4181C250.6 26.3011 250.895 26.1257 251.141 25.8918C251.386 25.6579 251.574 25.3714 251.702 25.0322L255.158 25.2603C254.983 26.0906 254.623 26.8157 254.079 27.4355C253.541 28.0495 252.845 28.529 251.992 28.874C251.144 29.2132 250.164 29.3828 249.053 29.3828ZM263.763 29.3828C262.383 29.3828 261.196 29.0904 260.202 28.5056C259.213 27.915 258.453 27.0964 257.921 26.0497C257.395 25.003 257.132 23.7984 257.132 22.4359C257.132 21.0559 257.398 19.8454 257.93 18.8046C258.468 17.7579 259.231 16.9421 260.219 16.3574C261.207 15.7668 262.383 15.4715 263.745 15.4715C264.921 15.4715 265.95 15.6849 266.833 16.1118C267.716 16.5387 268.415 17.138 268.929 17.9099C269.444 18.6818 269.727 19.5881 269.78 20.629H266.254C266.154 19.9565 265.891 19.4156 265.464 19.0063C265.043 18.5911 264.491 18.3835 263.807 18.3835C263.228 18.3835 262.722 18.5414 262.289 18.8572C261.862 19.1671 261.529 19.6203 261.289 20.2168C261.05 20.8132 260.93 21.5354 260.93 22.3833C260.93 23.2429 261.047 23.9738 261.281 24.5761C261.52 25.1784 261.856 25.6374 262.289 25.9532C262.722 26.269 263.228 26.4268 263.807 26.4268C264.234 26.4268 264.617 26.3391 264.956 26.1637C265.301 25.9883 265.584 25.7339 265.807 25.4006C266.035 25.0614 266.184 24.655 266.254 24.1814H269.78C269.721 25.2105 269.441 26.1169 268.938 26.9005C268.441 27.6782 267.754 28.2864 266.877 28.7249C265.999 29.1635 264.962 29.3828 263.763 29.3828ZM279.338 15.6469V18.4537H271.225V15.6469H279.338ZM273.067 12.4191H276.804V24.9796C276.804 25.3246 276.856 25.5936 276.961 25.7865C277.067 25.9737 277.213 26.1052 277.4 26.1812C277.593 26.2573 277.815 26.2953 278.067 26.2953C278.242 26.2953 278.417 26.2806 278.593 26.2514C278.768 26.2163 278.903 26.19 278.996 26.1725L279.584 28.953C279.397 29.0114 279.134 29.0787 278.795 29.1547C278.455 29.2366 278.043 29.2863 277.558 29.3038C276.657 29.3389 275.868 29.219 275.19 28.9442C274.517 28.6694 273.994 28.2425 273.62 27.6636C273.245 27.0847 273.061 26.3537 273.067 25.4708V12.4191ZM287.768 29.3828C286.382 29.3828 285.189 29.1021 284.189 28.5407C283.195 27.9735 282.429 27.1724 281.891 26.1374C281.353 25.0965 281.084 23.8656 281.084 22.4447C281.084 21.0588 281.353 19.8425 281.891 18.7958C282.429 17.7491 283.186 16.9334 284.163 16.3486C285.145 15.7639 286.297 15.4715 287.619 15.4715C288.507 15.4715 289.335 15.6147 290.101 15.9013C290.873 16.182 291.545 16.6059 292.118 17.1731C292.697 17.7403 293.147 18.4537 293.469 19.3133C293.791 20.167 293.951 21.167 293.951 22.3131V23.3393H282.575V21.0237H290.434C290.434 20.4857 290.317 20.0092 290.083 19.594C289.849 19.1788 289.525 18.8543 289.11 18.6204C288.7 18.3806 288.224 18.2608 287.68 18.2608C287.113 18.2608 286.61 18.3923 286.171 18.6555C285.739 18.9128 285.399 19.2607 285.154 19.6992C284.908 20.132 284.782 20.6144 284.777 21.1465V23.3481C284.777 24.0147 284.899 24.5907 285.145 25.0761C285.396 25.5614 285.75 25.9356 286.206 26.1988C286.662 26.4619 287.203 26.5935 287.829 26.5935C288.244 26.5935 288.624 26.535 288.969 26.4181C289.314 26.3011 289.61 26.1257 289.855 25.8918C290.101 25.6579 290.288 25.3714 290.417 25.0322L293.872 25.2603C293.697 26.0906 293.337 26.8157 292.794 27.4355C292.256 28.0495 291.56 28.529 290.706 28.874C289.858 29.2132 288.879 29.3828 287.768 29.3828ZM301.354 29.3389C300.331 29.3389 299.404 29.0758 298.574 28.5495C297.749 28.0174 297.094 27.2367 296.609 26.2076C296.13 25.1725 295.89 23.9036 295.89 22.4008C295.89 20.8571 296.138 19.5735 296.635 18.5502C297.133 17.521 297.793 16.7521 298.618 16.2434C299.448 15.7288 300.357 15.4715 301.346 15.4715C302.1 15.4715 302.729 15.6001 303.231 15.8574C303.74 16.1089 304.15 16.4246 304.459 16.8047C304.775 17.179 305.015 17.5474 305.179 17.9099H305.293V11.156H309.021V29.1196H305.337V26.9619H305.179C305.003 27.3361 304.755 27.7074 304.433 28.0758C304.117 28.4384 303.705 28.7395 303.196 28.9793C302.694 29.219 302.08 29.3389 301.354 29.3389ZM302.539 26.3654C303.141 26.3654 303.65 26.2017 304.065 25.8742C304.486 25.5409 304.807 25.0761 305.03 24.4796C305.258 23.8832 305.372 23.1844 305.372 22.3833C305.372 21.5822 305.261 20.8863 305.038 20.2957C304.816 19.7051 304.495 19.249 304.074 18.9274C303.653 18.6058 303.141 18.4449 302.539 18.4449C301.925 18.4449 301.407 18.6116 300.986 18.9449C300.565 19.2782 300.246 19.7402 300.03 20.3308C299.814 20.9214 299.705 21.6055 299.705 22.3833C299.705 23.1668 299.814 23.8598 300.03 24.4621C300.252 25.0585 300.571 25.5263 300.986 25.8655C301.407 26.1988 301.925 26.3654 302.539 26.3654Z" fill="#9493F8"/>
</svg>
