<svg width="305" height="42" viewBox="0 0 305 42" fill="none" xmlns="http://www.w3.org/2000/svg">
<path d="M6.24599 25.2427L6.25476 20.7606H6.79858L11.1141 15.6469H15.4032L9.6054 22.4184H8.7195L6.24599 25.2427ZM2.86026 29.1196V11.156H6.59684V29.1196H2.86026ZM11.2807 29.1196L7.31609 23.2516L9.80714 20.6115L15.6576 29.1196H11.2807ZM22.7514 34.4526C21.541 34.4526 20.503 34.2859 19.6376 33.9526C18.778 33.6252 18.0938 33.1778 17.5851 32.6106C17.0764 32.0434 16.746 31.406 16.5939 30.6985L20.0498 30.2336C20.1551 30.5026 20.3217 30.754 20.5498 30.9879C20.7779 31.2218 21.079 31.4089 21.4532 31.5493C21.8333 31.6955 22.2953 31.7686 22.8391 31.7686C23.6519 31.7686 24.3215 31.5697 24.8477 31.1721C25.3799 30.7803 25.6459 30.1225 25.6459 29.1986V26.7338H25.488C25.3243 27.1081 25.0787 27.4619 24.7513 27.7952C24.4238 28.1285 24.0028 28.4004 23.4882 28.6109C22.9736 28.8214 22.3596 28.9267 21.6462 28.9267C20.6346 28.9267 19.7136 28.6928 18.8832 28.225C18.0587 27.7513 17.4009 27.0291 16.9097 26.0584C16.4244 25.0819 16.1817 23.8481 16.1817 22.357C16.1817 20.8307 16.4302 19.556 16.9272 18.5327C17.4243 17.5093 18.0851 16.7433 18.9096 16.2346C19.7399 15.7258 20.6492 15.4715 21.6374 15.4715C22.3918 15.4715 23.0233 15.6001 23.532 15.8574C24.0408 16.1089 24.4501 16.4246 24.76 16.8047C25.0758 17.179 25.3185 17.5474 25.488 17.9099H25.6284V15.6469H29.3386V29.2512C29.3386 30.3973 29.058 31.3563 28.4966 32.1282C27.9352 32.9001 27.1575 33.479 26.1634 33.8649C25.1752 34.2567 24.0379 34.4526 22.7514 34.4526ZM22.8303 26.1198C23.4326 26.1198 23.9414 25.9707 24.3565 25.6725C24.7776 25.3684 25.0992 24.9357 25.3214 24.3744C25.5494 23.8071 25.6635 23.1288 25.6635 22.3394C25.6635 21.55 25.5524 20.8658 25.3302 20.2869C25.108 19.7022 24.7863 19.249 24.3653 18.9274C23.9443 18.6058 23.4326 18.4449 22.8303 18.4449C22.2163 18.4449 21.6988 18.6116 21.2778 18.9449C20.8568 19.2724 20.5381 19.7285 20.3217 20.3132C20.1054 20.898 19.9972 21.5734 19.9972 22.3394C19.9972 23.1171 20.1054 23.7896 20.3217 24.3568C20.5439 24.9182 20.8626 25.3538 21.2778 25.6637C21.6988 25.9678 22.2163 26.1198 22.8303 26.1198ZM44.1161 29.3828C42.7536 29.3828 41.5754 29.0933 40.5813 28.5144C39.593 27.9297 38.8299 27.1168 38.292 26.076C37.754 25.0293 37.485 23.8159 37.485 22.4359C37.485 21.0442 37.754 19.8279 38.292 18.787C38.8299 17.7403 39.593 16.9275 40.5813 16.3486C41.5754 15.7639 42.7536 15.4715 44.1161 15.4715C45.4786 15.4715 46.6539 15.7639 47.6422 16.3486C48.6363 16.9275 49.4023 17.7403 49.9403 18.787C50.4782 19.8279 50.7472 21.0442 50.7472 22.4359C50.7472 23.8159 50.4782 25.0293 49.9403 26.076C49.4023 27.1168 48.6363 27.9297 47.6422 28.5144C46.6539 29.0933 45.4786 29.3828 44.1161 29.3828ZM44.1336 26.4882C44.7535 26.4882 45.271 26.3128 45.6862 25.962C46.1013 25.6053 46.4142 25.1199 46.6247 24.5059C46.8411 23.8919 46.9492 23.1931 46.9492 22.4096C46.9492 21.626 46.8411 20.9272 46.6247 20.3132C46.4142 19.6992 46.1013 19.2139 45.6862 18.8572C45.271 18.5005 44.7535 18.3221 44.1336 18.3221C43.508 18.3221 42.9817 18.5005 42.5548 18.8572C42.1338 19.2139 41.8151 19.6992 41.5987 20.3132C41.3882 20.9272 41.283 21.626 41.283 22.4096C41.283 23.1931 41.3882 23.8919 41.5987 24.5059C41.8151 25.1199 42.1338 25.6053 42.5548 25.962C42.9817 26.3128 43.508 26.4882 44.1336 26.4882ZM60.422 15.6469V18.4537H52.1068V15.6469H60.422ZM54.0101 29.1196V14.6733C54.0101 13.6967 54.2002 12.8869 54.5803 12.2436C54.9662 11.6004 55.4925 11.118 56.1591 10.7964C56.8257 10.4748 57.583 10.3139 58.4309 10.3139C59.0039 10.3139 59.5273 10.3578 60.0009 10.4455C60.4804 10.5332 60.8371 10.6122 61.071 10.6823L60.4044 13.4892C60.2582 13.4424 60.077 13.3985 59.8606 13.3576C59.6501 13.3167 59.4337 13.2962 59.2115 13.2962C58.6619 13.2962 58.2788 13.4248 58.0625 13.6821C57.8461 13.9336 57.7379 14.2873 57.7379 14.7435V29.1196H54.0101ZM72.2632 29.374C71.4036 29.374 70.6376 29.2249 69.9651 28.9267C69.2927 28.6226 68.7606 28.1753 68.3688 27.5847C67.9828 26.9882 67.7899 26.2456 67.7899 25.3567C67.7899 24.6083 67.9273 23.9796 68.2021 23.4709C68.4769 22.9622 68.8512 22.5528 69.3248 22.2429C69.7985 21.933 70.3365 21.6991 70.9388 21.5412C71.5469 21.3833 72.1843 21.2722 72.8509 21.2079C73.6345 21.126 74.266 21.05 74.7455 20.9799C75.225 20.9038 75.5729 20.7927 75.7893 20.6465C76.0057 20.5004 76.1138 20.284 76.1138 19.9975V19.9448C76.1138 19.3893 75.9384 18.9595 75.5876 18.6555C75.2426 18.3514 74.7514 18.1994 74.114 18.1994C73.4415 18.1994 72.9065 18.3485 72.5088 18.6467C72.1112 18.9391 71.8481 19.3075 71.7194 19.7519L68.2635 19.4712C68.4389 18.6525 68.7839 17.945 69.2985 17.3485C69.8131 16.7462 70.4768 16.2843 71.2896 15.9627C72.1083 15.6352 73.0556 15.4715 74.1315 15.4715C74.88 15.4715 75.5963 15.5592 76.2805 15.7346C76.9705 15.91 77.5816 16.182 78.1137 16.5503C78.6517 16.9187 79.0756 17.3924 79.3855 17.9713C79.6955 18.5444 79.8504 19.2314 79.8504 20.0326V29.1196H76.3068V27.2513H76.2015C75.9852 27.6724 75.6957 28.0437 75.3332 28.3653C74.9706 28.6811 74.535 28.9296 74.0263 29.1109C73.5175 29.2863 72.9298 29.374 72.2632 29.374ZM73.3333 26.7952C73.883 26.7952 74.3683 26.6871 74.7894 26.4707C75.2104 26.2485 75.5408 25.9503 75.7805 25.576C76.0203 25.2018 76.1401 24.7778 76.1401 24.3042V22.8745C76.0232 22.9505 75.8624 23.0206 75.6577 23.085C75.4589 23.1434 75.2338 23.199 74.9823 23.2516C74.7309 23.2984 74.4794 23.3423 74.228 23.3832C73.9766 23.4183 73.7485 23.4504 73.5438 23.4797C73.1053 23.544 72.7223 23.6463 72.3948 23.7867C72.0673 23.927 71.813 24.1171 71.6317 24.3568C71.4504 24.5907 71.3598 24.8831 71.3598 25.2339C71.3598 25.7427 71.544 26.1315 71.9124 26.4005C72.2866 26.6637 72.7603 26.7952 73.3333 26.7952ZM86.4859 11.156V29.1196H82.7493V11.156H86.4859ZM98.1189 23.3832V15.6469H101.855V29.1196H98.268V26.6724H98.1276C97.8236 27.4619 97.3177 28.0963 96.6102 28.5758C95.9085 29.0553 95.0518 29.2951 94.0402 29.2951C93.1397 29.2951 92.3473 29.0904 91.6632 28.6811C90.979 28.2717 90.444 27.6899 90.058 26.9356C89.6779 26.1812 89.485 25.2778 89.4791 24.2252V15.6469H93.2157V23.5586C93.2215 24.3539 93.435 24.9825 93.856 25.4445C94.277 25.9064 94.8413 26.1374 95.5489 26.1374C95.9991 26.1374 96.4201 26.0351 96.8119 25.8304C97.2037 25.6199 97.5195 25.31 97.7592 24.9006C98.0048 24.4913 98.1247 23.9855 98.1189 23.3832ZM104.844 29.1196V15.6469H108.405V18.0239H108.563C108.844 17.2345 109.312 16.6117 109.967 16.1556C110.622 15.6995 111.405 15.4715 112.317 15.4715C113.241 15.4715 114.028 15.7025 114.677 16.1644C115.326 16.6205 115.759 17.2404 115.975 18.0239H116.115C116.39 17.2521 116.887 16.6351 117.607 16.1732C118.332 15.7054 119.188 15.4715 120.176 15.4715C121.434 15.4715 122.454 15.872 123.238 16.6731C124.027 17.4684 124.422 18.597 124.422 20.0589V29.1196H120.694V20.7957C120.694 20.0472 120.495 19.4858 120.098 19.1116C119.7 18.7373 119.203 18.5502 118.606 18.5502C117.928 18.5502 117.399 18.7666 117.019 19.1993C116.639 19.6262 116.449 20.1904 116.449 20.8921V29.1196H112.826V20.7167C112.826 20.0559 112.636 19.5297 112.256 19.1379C111.882 18.7461 111.388 18.5502 110.774 18.5502C110.358 18.5502 109.984 18.6555 109.651 18.866C109.323 19.0706 109.063 19.3601 108.87 19.7343C108.677 20.1027 108.581 20.5354 108.581 21.0325V29.1196H104.844ZM127.373 29.1196V15.6469H131.11V29.1196H127.373ZM129.25 13.9102C128.695 13.9102 128.218 13.726 127.821 13.3576C127.429 12.9833 127.233 12.536 127.233 12.0156C127.233 11.501 127.429 11.0595 127.821 10.6911C128.218 10.3169 128.695 10.1297 129.25 10.1297C129.806 10.1297 130.28 10.3169 130.671 10.6911C131.069 11.0595 131.268 11.501 131.268 12.0156C131.268 12.536 131.069 12.9833 130.671 13.3576C130.28 13.726 129.806 13.9102 129.25 13.9102ZM137.84 21.3307V29.1196H134.103V15.6469H137.664V18.0239H137.822C138.12 17.2404 138.62 16.6205 139.322 16.1644C140.024 15.7025 140.875 15.4715 141.875 15.4715C142.81 15.4715 143.626 15.6761 144.322 16.0855C145.018 16.4948 145.558 17.0795 145.944 17.8397C146.33 18.5941 146.523 19.4946 146.523 20.5413V29.1196H142.787V21.2079C142.793 20.3834 142.582 19.7402 142.155 19.2782C141.728 18.8104 141.141 18.5765 140.392 18.5765C139.889 18.5765 139.445 18.6847 139.059 18.9011C138.679 19.1174 138.381 19.4332 138.164 19.8484C137.954 20.2577 137.846 20.7518 137.84 21.3307ZM158.108 23.3832V15.6469H161.845V29.1196H158.257V26.6724H158.117C157.813 27.4619 157.307 28.0963 156.599 28.5758C155.898 29.0553 155.041 29.2951 154.029 29.2951C153.129 29.2951 152.336 29.0904 151.652 28.6811C150.968 28.2717 150.433 27.6899 150.047 26.9356C149.667 26.1812 149.474 25.2778 149.468 24.2252V15.6469H153.205V23.5586C153.211 24.3539 153.424 24.9825 153.845 25.4445C154.266 25.9064 154.83 26.1374 155.538 26.1374C155.988 26.1374 156.409 26.0351 156.801 25.8304C157.193 25.6199 157.509 25.31 157.748 24.9006C157.994 24.4913 158.114 23.9855 158.108 23.3832ZM164.833 29.1196V15.6469H168.395V18.0239H168.552C168.833 17.2345 169.301 16.6117 169.956 16.1556C170.611 15.6995 171.394 15.4715 172.307 15.4715C173.23 15.4715 174.017 15.7025 174.666 16.1644C175.315 16.6205 175.748 17.2404 175.964 18.0239H176.105C176.379 17.2521 176.876 16.6351 177.596 16.1732C178.321 15.7054 179.177 15.4715 180.166 15.4715C181.423 15.4715 182.443 15.872 183.227 16.6731C184.016 17.4684 184.411 18.597 184.411 20.0589V29.1196H180.683V20.7957C180.683 20.0472 180.484 19.4858 180.087 19.1116C179.689 18.7373 179.192 18.5502 178.596 18.5502C177.917 18.5502 177.388 18.7666 177.008 19.1993C176.628 19.6262 176.438 20.1904 176.438 20.8921V29.1196H172.815V20.7167C172.815 20.0559 172.625 19.5297 172.245 19.1379C171.871 18.7461 171.377 18.5502 170.763 18.5502C170.348 18.5502 169.973 18.6555 169.64 18.866C169.313 19.0706 169.052 19.3601 168.859 19.7343C168.666 20.1027 168.57 20.5354 168.57 21.0325V29.1196H164.833ZM199.166 29.3828C197.786 29.3828 196.599 29.0904 195.605 28.5056C194.617 27.915 193.857 27.0964 193.325 26.0497C192.799 25.003 192.535 23.7984 192.535 22.4359C192.535 21.0559 192.801 19.8454 193.334 18.8046C193.872 17.7579 194.635 16.9421 195.623 16.3574C196.611 15.7668 197.786 15.4715 199.149 15.4715C200.324 15.4715 201.353 15.6849 202.236 16.1118C203.119 16.5387 203.818 17.138 204.333 17.9099C204.847 18.6818 205.131 19.5881 205.184 20.629H201.658C201.558 19.9565 201.295 19.4156 200.868 19.0063C200.447 18.5911 199.895 18.3835 199.21 18.3835C198.631 18.3835 198.126 18.5414 197.693 18.8572C197.266 19.1671 196.933 19.6203 196.693 20.2168C196.453 20.8132 196.333 21.5354 196.333 22.3833C196.333 23.2429 196.45 23.9738 196.684 24.5761C196.924 25.1784 197.26 25.6374 197.693 25.9532C198.126 26.269 198.631 26.4268 199.21 26.4268C199.637 26.4268 200.02 26.3391 200.359 26.1637C200.704 25.9883 200.988 25.7339 201.21 25.4006C201.438 25.0614 201.587 24.655 201.658 24.1814H205.184C205.125 25.2105 204.844 26.1169 204.342 26.9005C203.845 27.6782 203.157 28.2864 202.28 28.7249C201.403 29.1635 200.365 29.3828 199.166 29.3828ZM213.663 29.3828C212.301 29.3828 211.123 29.0933 210.128 28.5144C209.14 27.9297 208.377 27.1168 207.839 26.076C207.301 25.0293 207.032 23.8159 207.032 22.4359C207.032 21.0442 207.301 19.8279 207.839 18.787C208.377 17.7403 209.14 16.9275 210.128 16.3486C211.123 15.7639 212.301 15.4715 213.663 15.4715C215.026 15.4715 216.201 15.7639 217.189 16.3486C218.183 16.9275 218.949 17.7403 219.487 18.787C220.025 19.8279 220.294 21.0442 220.294 22.4359C220.294 23.8159 220.025 25.0293 219.487 26.076C218.949 27.1168 218.183 27.9297 217.189 28.5144C216.201 29.0933 215.026 29.3828 213.663 29.3828ZM213.681 26.4882C214.301 26.4882 214.818 26.3128 215.233 25.962C215.649 25.6053 215.961 25.1199 216.172 24.5059C216.388 23.8919 216.496 23.1931 216.496 22.4096C216.496 21.626 216.388 20.9272 216.172 20.3132C215.961 19.6992 215.649 19.2139 215.233 18.8572C214.818 18.5005 214.301 18.3221 213.681 18.3221C213.055 18.3221 212.529 18.5005 212.102 18.8572C211.681 19.2139 211.362 19.6992 211.146 20.3132C210.935 20.9272 210.83 21.626 210.83 22.4096C210.83 23.1931 210.935 23.8919 211.146 24.5059C211.362 25.1199 211.681 25.6053 212.102 25.962C212.529 26.3128 213.055 26.4882 213.681 26.4882ZM226.461 11.156V29.1196H222.724V11.156H226.461ZM233.19 11.156V29.1196H229.454V11.156H233.19ZM242.324 29.3828C240.938 29.3828 239.745 29.1021 238.745 28.5407C237.751 27.9735 236.985 27.1724 236.447 26.1374C235.909 25.0965 235.64 23.8656 235.64 22.4447C235.64 21.0588 235.909 19.8425 236.447 18.7958C236.985 17.7491 237.742 16.9334 238.719 16.3486C239.701 15.7639 240.853 15.4715 242.174 15.4715C243.063 15.4715 243.891 15.6147 244.657 15.9013C245.429 16.182 246.101 16.6059 246.674 17.1731C247.253 17.7403 247.703 18.4537 248.025 19.3133C248.346 20.167 248.507 21.167 248.507 22.3131V23.3393H237.131V21.0237H244.99C244.99 20.4857 244.873 20.0092 244.639 19.594C244.405 19.1788 244.081 18.8543 243.666 18.6204C243.256 18.3806 242.78 18.2608 242.236 18.2608C241.669 18.2608 241.166 18.3923 240.727 18.6555C240.294 18.9128 239.955 19.2607 239.71 19.6992C239.464 20.132 239.338 20.6144 239.333 21.1465V23.3481C239.333 24.0147 239.455 24.5907 239.701 25.0761C239.952 25.5614 240.306 25.9356 240.762 26.1988C241.218 26.4619 241.759 26.5935 242.385 26.5935C242.8 26.5935 243.18 26.535 243.525 26.4181C243.87 26.3011 244.166 26.1257 244.411 25.8918C244.657 25.6579 244.844 25.3714 244.972 25.0322L248.428 25.2603C248.253 26.0906 247.893 26.8157 247.349 27.4355C246.812 28.0495 246.116 28.529 245.262 28.874C244.414 29.2132 243.435 29.3828 242.324 29.3828ZM257.033 29.3828C255.653 29.3828 254.466 29.0904 253.472 28.5056C252.484 27.915 251.723 27.0964 251.191 26.0497C250.665 25.003 250.402 23.7984 250.402 22.4359C250.402 21.0559 250.668 19.8454 251.2 18.8046C251.738 17.7579 252.501 16.9421 253.489 16.3574C254.478 15.7668 255.653 15.4715 257.015 15.4715C258.191 15.4715 259.22 15.6849 260.103 16.1118C260.986 16.5387 261.685 17.138 262.199 17.9099C262.714 18.6818 262.998 19.5881 263.05 20.629H259.524C259.425 19.9565 259.162 19.4156 258.735 19.0063C258.314 18.5911 257.761 18.3835 257.077 18.3835C256.498 18.3835 255.992 18.5414 255.559 18.8572C255.133 19.1671 254.799 19.6203 254.56 20.2168C254.32 20.8132 254.2 21.5354 254.2 22.3833C254.2 23.2429 254.317 23.9738 254.551 24.5761C254.79 25.1784 255.127 25.6374 255.559 25.9532C255.992 26.269 256.498 26.4268 257.077 26.4268C257.504 26.4268 257.887 26.3391 258.226 26.1637C258.571 25.9883 258.855 25.7339 259.077 25.4006C259.305 25.0614 259.454 24.655 259.524 24.1814H263.05C262.992 25.2105 262.711 26.1169 262.208 26.9005C261.711 27.6782 261.024 28.2864 260.147 28.7249C259.27 29.1635 258.232 29.3828 257.033 29.3828ZM272.609 15.6469V18.4537H264.495V15.6469H272.609ZM266.337 12.4191H270.074V24.9796C270.074 25.3246 270.126 25.5936 270.232 25.7865C270.337 25.9737 270.483 26.1052 270.67 26.1812C270.863 26.2573 271.085 26.2953 271.337 26.2953C271.512 26.2953 271.688 26.2806 271.863 26.2514C272.039 26.2163 272.173 26.19 272.267 26.1725L272.854 28.953C272.667 29.0114 272.404 29.0787 272.065 29.1547C271.726 29.2366 271.313 29.2863 270.828 29.3038C269.928 29.3389 269.138 29.219 268.46 28.9442C267.787 28.6694 267.264 28.2425 266.89 27.6636C266.516 27.0847 266.331 26.3537 266.337 25.4708V12.4191ZM281.038 29.3828C279.652 29.3828 278.459 29.1021 277.459 28.5407C276.465 27.9735 275.699 27.1724 275.161 26.1374C274.623 25.0965 274.354 23.8656 274.354 22.4447C274.354 21.0588 274.623 19.8425 275.161 18.7958C275.699 17.7491 276.456 16.9334 277.433 16.3486C278.415 15.7639 279.567 15.4715 280.889 15.4715C281.778 15.4715 282.605 15.6147 283.371 15.9013C284.143 16.182 284.815 16.6059 285.388 17.1731C285.967 17.7403 286.418 18.4537 286.739 19.3133C287.061 20.167 287.222 21.167 287.222 22.3131V23.3393H275.845V21.0237H283.704C283.704 20.4857 283.587 20.0092 283.354 19.594C283.12 19.1788 282.795 18.8543 282.38 18.6204C281.971 18.3806 281.494 18.2608 280.95 18.2608C280.383 18.2608 279.88 18.3923 279.442 18.6555C279.009 18.9128 278.67 19.2607 278.424 19.6992C278.178 20.132 278.053 20.6144 278.047 21.1465V23.3481C278.047 24.0147 278.17 24.5907 278.415 25.0761C278.667 25.5614 279.02 25.9356 279.477 26.1988C279.933 26.4619 280.474 26.5935 281.099 26.5935C281.514 26.5935 281.895 26.535 282.24 26.4181C282.585 26.3011 282.88 26.1257 283.125 25.8918C283.371 25.6579 283.558 25.3714 283.687 25.0322L287.143 25.2603C286.967 26.0906 286.608 26.8157 286.064 27.4355C285.526 28.0495 284.83 28.529 283.976 28.874C283.128 29.2132 282.149 29.3828 281.038 29.3828ZM294.625 29.3389C293.601 29.3389 292.674 29.0758 291.844 28.5495C291.02 28.0174 290.365 27.2367 289.879 26.2076C289.4 25.1725 289.16 23.9036 289.16 22.4008C289.16 20.8571 289.409 19.5735 289.906 18.5502C290.403 17.521 291.063 16.7521 291.888 16.2434C292.718 15.7288 293.628 15.4715 294.616 15.4715C295.37 15.4715 295.999 15.6001 296.502 15.8574C297.01 16.1089 297.42 16.4246 297.73 16.8047C298.045 17.179 298.285 17.5474 298.449 17.9099H298.563V11.156H302.291V29.1196H298.607V26.9619H298.449C298.273 27.3361 298.025 27.7074 297.703 28.0758C297.388 28.4384 296.975 28.7395 296.467 28.9793C295.964 29.219 295.35 29.3389 294.625 29.3389ZM295.809 26.3654C296.411 26.3654 296.92 26.2017 297.335 25.8742C297.756 25.5409 298.078 25.0761 298.3 24.4796C298.528 23.8832 298.642 23.1844 298.642 22.3833C298.642 21.5822 298.531 20.8863 298.309 20.2957C298.086 19.7051 297.765 19.249 297.344 18.9274C296.923 18.6058 296.411 18.4449 295.809 18.4449C295.195 18.4449 294.677 18.6116 294.256 18.9449C293.835 19.2782 293.517 19.7402 293.3 20.3308C293.084 20.9214 292.976 21.6055 292.976 22.3833C292.976 23.1668 293.084 23.8598 293.3 24.4621C293.522 25.0585 293.841 25.5263 294.256 25.8655C294.677 26.1988 295.195 26.3654 295.809 26.3654Z" fill="#9493F8"/>
</svg>
