<svg width="338" height="42" viewBox="0 0 338 42" fill="none" xmlns="http://www.w3.org/2000/svg">
<path d="M22.7728 25.2427L22.7816 20.7606H23.3254L27.6409 15.6469H31.9301L26.1323 22.4184H25.2464L22.7728 25.2427ZM19.3871 29.1196V11.156H23.1237V29.1196H19.3871ZM27.8076 29.1196L23.8429 23.2516L26.334 20.6115L32.1845 29.1196H27.8076ZM39.2783 34.4526C38.0678 34.4526 37.0299 34.2859 36.1644 33.9526C35.3048 33.6252 34.6207 33.1778 34.112 32.6106C33.6032 32.0434 33.2728 31.406 33.1208 30.6985L36.5767 30.2336C36.6819 30.5026 36.8486 30.754 37.0767 30.9879C37.3047 31.2218 37.6059 31.4089 37.9801 31.5493C38.3602 31.6955 38.8221 31.7686 39.366 31.7686C40.1788 31.7686 40.8483 31.5697 41.3746 31.1721C41.9067 30.7803 42.1728 30.1225 42.1728 29.1986V26.7338H42.0149C41.8512 27.1081 41.6056 27.4619 41.2781 27.7952C40.9506 28.1285 40.5296 28.4004 40.015 28.6109C39.5005 28.8214 38.8865 28.9267 38.1731 28.9267C37.1614 28.9267 36.2405 28.6928 35.4101 28.225C34.5856 27.7513 33.9278 27.0291 33.4366 26.0584C32.9512 25.0819 32.7085 23.8481 32.7085 22.357C32.7085 20.8307 32.9571 19.556 33.4541 18.5327C33.9511 17.5093 34.6119 16.7433 35.4364 16.2346C36.2668 15.7258 37.1761 15.4715 38.1643 15.4715C38.9186 15.4715 39.5502 15.6001 40.0589 15.8574C40.5676 16.1089 40.977 16.4246 41.2869 16.8047C41.6026 17.179 41.8453 17.5474 42.0149 17.9099H42.1552V15.6469H45.8655V29.2512C45.8655 30.3973 45.5848 31.3563 45.0235 32.1282C44.4621 32.9001 43.6844 33.479 42.6903 33.8649C41.7021 34.2567 40.5647 34.4526 39.2783 34.4526ZM39.3572 26.1198C39.9595 26.1198 40.4682 25.9707 40.8834 25.6725C41.3044 25.3684 41.626 24.9357 41.8482 24.3744C42.0763 23.8071 42.1903 23.1288 42.1903 22.3394C42.1903 21.55 42.0792 20.8658 41.857 20.2869C41.6348 19.7022 41.3132 19.249 40.8922 18.9274C40.4711 18.6058 39.9595 18.4449 39.3572 18.4449C38.7432 18.4449 38.2257 18.6116 37.8047 18.9449C37.3836 19.2724 37.065 19.7285 36.8486 20.3132C36.6322 20.898 36.5241 21.5734 36.5241 22.3394C36.5241 23.1171 36.6322 23.7896 36.8486 24.3568C37.0708 24.9182 37.3895 25.3538 37.8047 25.6637C38.2257 25.9678 38.7432 26.1198 39.3572 26.1198ZM60.643 29.3828C59.2805 29.3828 58.1022 29.0933 57.1081 28.5144C56.1199 27.9297 55.3568 27.1168 54.8188 26.076C54.2808 25.0293 54.0119 23.8159 54.0119 22.4359C54.0119 21.0442 54.2808 19.8279 54.8188 18.787C55.3568 17.7403 56.1199 16.9275 57.1081 16.3486C58.1022 15.7639 59.2805 15.4715 60.643 15.4715C62.0054 15.4715 63.1808 15.7639 64.169 16.3486C65.1631 16.9275 65.9291 17.7403 66.4671 18.787C67.0051 19.8279 67.2741 21.0442 67.2741 22.4359C67.2741 23.8159 67.0051 25.0293 66.4671 26.076C65.9291 27.1168 65.1631 27.9297 64.169 28.5144C63.1808 29.0933 62.0054 29.3828 60.643 29.3828ZM60.6605 26.4882C61.2803 26.4882 61.7979 26.3128 62.213 25.962C62.6282 25.6053 62.941 25.1199 63.1516 24.5059C63.3679 23.8919 63.4761 23.1931 63.4761 22.4096C63.4761 21.626 63.3679 20.9272 63.1516 20.3132C62.941 19.6992 62.6282 19.2139 62.213 18.8572C61.7979 18.5005 61.2803 18.3221 60.6605 18.3221C60.0348 18.3221 59.5085 18.5005 59.0817 18.8572C58.6606 19.2139 58.342 19.6992 58.1256 20.3132C57.9151 20.9272 57.8098 21.626 57.8098 22.4096C57.8098 23.1931 57.9151 23.8919 58.1256 24.5059C58.342 25.1199 58.6606 25.6053 59.0817 25.962C59.5085 26.3128 60.0348 26.4882 60.6605 26.4882ZM76.9488 15.6469V18.4537H68.6336V15.6469H76.9488ZM70.537 29.1196V14.6733C70.537 13.6967 70.727 12.8869 71.1071 12.2436C71.4931 11.6004 72.0193 11.118 72.686 10.7964C73.3526 10.4748 74.1098 10.3139 74.9577 10.3139C75.5308 10.3139 76.0541 10.3578 76.5278 10.4455C77.0073 10.5332 77.364 10.6122 77.5979 10.6823L76.9313 13.4892C76.7851 13.4424 76.6038 13.3985 76.3875 13.3576C76.1769 13.3167 75.9606 13.2962 75.7384 13.2962C75.1887 13.2962 74.8057 13.4248 74.5893 13.6821C74.373 13.9336 74.2648 14.2873 74.2648 14.7435V29.1196H70.537ZM88.7901 29.374C87.9305 29.374 87.1645 29.2249 86.492 28.9267C85.8195 28.6226 85.2874 28.1753 84.8956 27.5847C84.5097 26.9882 84.3167 26.2456 84.3167 25.3567C84.3167 24.6083 84.4541 23.9796 84.729 23.4709C85.0038 22.9622 85.378 22.5528 85.8517 22.2429C86.3253 21.933 86.8633 21.6991 87.4656 21.5412C88.0738 21.3833 88.7111 21.2722 89.3778 21.2079C90.1613 21.126 90.7929 21.05 91.2724 20.9799C91.7519 20.9038 92.0998 20.7927 92.3162 20.6465C92.5325 20.5004 92.6407 20.284 92.6407 19.9975V19.9448C92.6407 19.3893 92.4653 18.9595 92.1144 18.6555C91.7694 18.3514 91.2782 18.1994 90.6408 18.1994C89.9684 18.1994 89.4333 18.3485 89.0357 18.6467C88.638 18.9391 88.3749 19.3075 88.2463 19.7519L84.7904 19.4712C84.9658 18.6525 85.3108 17.945 85.8254 17.3485C86.34 16.7462 87.0037 16.2843 87.8165 15.9627C88.6351 15.6352 89.5824 15.4715 90.6584 15.4715C91.4069 15.4715 92.1232 15.5592 92.8073 15.7346C93.4974 15.91 94.1084 16.182 94.6405 16.5503C95.1785 16.9187 95.6025 17.3924 95.9124 17.9713C96.2223 18.5444 96.3773 19.2314 96.3773 20.0326V29.1196H92.8337V27.2513H92.7284C92.512 27.6724 92.2226 28.0437 91.86 28.3653C91.4975 28.6811 91.0619 28.9296 90.5531 29.1109C90.0444 29.2863 89.4567 29.374 88.7901 29.374ZM89.8602 26.7952C90.4099 26.7952 90.8952 26.6871 91.3162 26.4707C91.7372 26.2485 92.0676 25.9503 92.3074 25.576C92.5471 25.2018 92.667 24.7778 92.667 24.3042V22.8745C92.5501 22.9505 92.3892 23.0206 92.1846 23.085C91.9858 23.1434 91.7606 23.199 91.5092 23.2516C91.2577 23.2984 91.0063 23.3423 90.7549 23.3832C90.5034 23.4183 90.2754 23.4504 90.0707 23.4797C89.6321 23.544 89.2491 23.6463 88.9217 23.7867C88.5942 23.927 88.3398 24.1171 88.1586 24.3568C87.9773 24.5907 87.8866 24.8831 87.8866 25.2339C87.8866 25.7427 88.0708 26.1315 88.4392 26.4005C88.8135 26.6637 89.2871 26.7952 89.8602 26.7952ZM103.013 11.156V29.1196H99.2762V11.156H103.013ZM114.646 23.3832V15.6469H118.382V29.1196H114.795V26.6724H114.654C114.35 27.4619 113.845 28.0963 113.137 28.5758C112.435 29.0553 111.579 29.2951 110.567 29.2951C109.667 29.2951 108.874 29.0904 108.19 28.6811C107.506 28.2717 106.971 27.6899 106.585 26.9356C106.205 26.1812 106.012 25.2778 106.006 24.2252V15.6469H109.743V23.5586C109.748 24.3539 109.962 24.9825 110.383 25.4445C110.804 25.9064 111.368 26.1374 112.076 26.1374C112.526 26.1374 112.947 26.0351 113.339 25.8304C113.731 25.6199 114.046 25.31 114.286 24.9006C114.532 24.4913 114.652 23.9855 114.646 23.3832ZM121.371 29.1196V15.6469H124.932V18.0239H125.09C125.371 17.2345 125.839 16.6117 126.494 16.1556C127.148 15.6995 127.932 15.4715 128.844 15.4715C129.768 15.4715 130.555 15.7025 131.204 16.1644C131.853 16.6205 132.286 17.2404 132.502 18.0239H132.642C132.917 17.2521 133.414 16.6351 134.133 16.1732C134.858 15.7054 135.715 15.4715 136.703 15.4715C137.961 15.4715 138.981 15.872 139.765 16.6731C140.554 17.4684 140.949 18.597 140.949 20.0589V29.1196H137.221V20.7957C137.221 20.0472 137.022 19.4858 136.624 19.1116C136.227 18.7373 135.73 18.5502 135.133 18.5502C134.455 18.5502 133.926 18.7666 133.546 19.1993C133.166 19.6262 132.976 20.1904 132.976 20.8921V29.1196H129.353V20.7167C129.353 20.0559 129.163 19.5297 128.783 19.1379C128.409 18.7461 127.914 18.5502 127.301 18.5502C126.885 18.5502 126.511 18.6555 126.178 18.866C125.85 19.0706 125.59 19.3601 125.397 19.7343C125.204 20.1027 125.108 20.5354 125.108 21.0325V29.1196H121.371ZM143.9 29.1196V15.6469H147.637V29.1196H143.9ZM145.777 13.9102C145.222 13.9102 144.745 13.726 144.348 13.3576C143.956 12.9833 143.76 12.536 143.76 12.0156C143.76 11.501 143.956 11.0595 144.348 10.6911C144.745 10.3169 145.222 10.1297 145.777 10.1297C146.333 10.1297 146.806 10.3169 147.198 10.6911C147.596 11.0595 147.795 11.501 147.795 12.0156C147.795 12.536 147.596 12.9833 147.198 13.3576C146.806 13.726 146.333 13.9102 145.777 13.9102ZM154.367 21.3307V29.1196H150.63V15.6469H154.191V18.0239H154.349C154.647 17.2404 155.147 16.6205 155.849 16.1644C156.551 15.7025 157.401 15.4715 158.401 15.4715C159.337 15.4715 160.153 15.6761 160.849 16.0855C161.544 16.4948 162.085 17.0795 162.471 17.8397C162.857 18.5941 163.05 19.4946 163.05 20.5413V29.1196H159.314V21.2079C159.319 20.3834 159.109 19.7402 158.682 19.2782C158.255 18.8104 157.668 18.5765 156.919 18.5765C156.416 18.5765 155.972 18.6847 155.586 18.9011C155.206 19.1174 154.907 19.4332 154.691 19.8484C154.481 20.2577 154.372 20.7518 154.367 21.3307ZM174.635 23.3832V15.6469H178.371V29.1196H174.784V26.6724H174.644C174.34 27.4619 173.834 28.0963 173.126 28.5758C172.425 29.0553 171.568 29.2951 170.556 29.2951C169.656 29.2951 168.863 29.0904 168.179 28.6811C167.495 28.2717 166.96 27.6899 166.574 26.9356C166.194 26.1812 166.001 25.2778 165.995 24.2252V15.6469H169.732V23.5586C169.738 24.3539 169.951 24.9825 170.372 25.4445C170.793 25.9064 171.357 26.1374 172.065 26.1374C172.515 26.1374 172.936 26.0351 173.328 25.8304C173.72 25.6199 174.036 25.31 174.275 24.9006C174.521 24.4913 174.641 23.9855 174.635 23.3832ZM181.36 29.1196V15.6469H184.921V18.0239H185.079C185.36 17.2345 185.828 16.6117 186.483 16.1556C187.138 15.6995 187.921 15.4715 188.833 15.4715C189.757 15.4715 190.544 15.7025 191.193 16.1644C191.842 16.6205 192.275 17.2404 192.491 18.0239H192.631C192.906 17.2521 193.403 16.6351 194.123 16.1732C194.848 15.7054 195.704 15.4715 196.693 15.4715C197.95 15.4715 198.97 15.872 199.754 16.6731C200.543 17.4684 200.938 18.597 200.938 20.0589V29.1196H197.21V20.7957C197.21 20.0472 197.011 19.4858 196.614 19.1116C196.216 18.7373 195.719 18.5502 195.122 18.5502C194.444 18.5502 193.915 18.7666 193.535 19.1993C193.155 19.6262 192.965 20.1904 192.965 20.8921V29.1196H189.342V20.7167C189.342 20.0559 189.152 19.5297 188.772 19.1379C188.398 18.7461 187.904 18.5502 187.29 18.5502C186.874 18.5502 186.5 18.6555 186.167 18.866C185.839 19.0706 185.579 19.3601 185.386 19.7343C185.193 20.1027 185.097 20.5354 185.097 21.0325V29.1196H181.36ZM215.693 29.3828C214.313 29.3828 213.126 29.0904 212.132 28.5056C211.144 27.915 210.384 27.0964 209.852 26.0497C209.325 25.003 209.062 23.7984 209.062 22.4359C209.062 21.0559 209.328 19.8454 209.86 18.8046C210.398 17.7579 211.162 16.9421 212.15 16.3574C213.138 15.7668 214.313 15.4715 215.676 15.4715C216.851 15.4715 217.88 15.6849 218.763 16.1118C219.646 16.5387 220.345 17.138 220.86 17.9099C221.374 18.6818 221.658 19.5881 221.71 20.629H218.184C218.085 19.9565 217.822 19.4156 217.395 19.0063C216.974 18.5911 216.421 18.3835 215.737 18.3835C215.158 18.3835 214.652 18.5414 214.22 18.8572C213.793 19.1671 213.46 19.6203 213.22 20.2168C212.98 20.8132 212.86 21.5354 212.86 22.3833C212.86 23.2429 212.977 23.9738 213.211 24.5761C213.451 25.1784 213.787 25.6374 214.22 25.9532C214.652 26.269 215.158 26.4268 215.737 26.4268C216.164 26.4268 216.547 26.3391 216.886 26.1637C217.231 25.9883 217.515 25.7339 217.737 25.4006C217.965 25.0614 218.114 24.655 218.184 24.1814H221.71C221.652 25.2105 221.371 26.1169 220.868 26.9005C220.371 27.6782 219.684 28.2864 218.807 28.7249C217.93 29.1635 216.892 29.3828 215.693 29.3828ZM230.19 29.3828C228.828 29.3828 227.649 29.0933 226.655 28.5144C225.667 27.9297 224.904 27.1168 224.366 26.076C223.828 25.0293 223.559 23.8159 223.559 22.4359C223.559 21.0442 223.828 19.8279 224.366 18.787C224.904 17.7403 225.667 16.9275 226.655 16.3486C227.649 15.7639 228.828 15.4715 230.19 15.4715C231.553 15.4715 232.728 15.7639 233.716 16.3486C234.71 16.9275 235.476 17.7403 236.014 18.787C236.552 19.8279 236.821 21.0442 236.821 22.4359C236.821 23.8159 236.552 25.0293 236.014 26.076C235.476 27.1168 234.71 27.9297 233.716 28.5144C232.728 29.0933 231.553 29.3828 230.19 29.3828ZM230.208 26.4882C230.828 26.4882 231.345 26.3128 231.76 25.962C232.175 25.6053 232.488 25.1199 232.699 24.5059C232.915 23.8919 233.023 23.1931 233.023 22.4096C233.023 21.626 232.915 20.9272 232.699 20.3132C232.488 19.6992 232.175 19.2139 231.76 18.8572C231.345 18.5005 230.828 18.3221 230.208 18.3221C229.582 18.3221 229.056 18.5005 228.629 18.8572C228.208 19.2139 227.889 19.6992 227.673 20.3132C227.462 20.9272 227.357 21.626 227.357 22.4096C227.357 23.1931 227.462 23.8919 227.673 24.5059C227.889 25.1199 228.208 25.6053 228.629 25.962C229.056 26.3128 229.582 26.4882 230.208 26.4882ZM242.987 11.156V29.1196H239.251V11.156H242.987ZM249.717 11.156V29.1196H245.981V11.156H249.717ZM258.85 29.3828C257.465 29.3828 256.272 29.1021 255.272 28.5407C254.278 27.9735 253.512 27.1724 252.974 26.1374C252.436 25.0965 252.167 23.8656 252.167 22.4447C252.167 21.0588 252.436 19.8425 252.974 18.7958C253.512 17.7491 254.269 16.9334 255.245 16.3486C256.228 15.7639 257.38 15.4715 258.701 15.4715C259.59 15.4715 260.418 15.6147 261.184 15.9013C261.955 16.182 262.628 16.6059 263.201 17.1731C263.78 17.7403 264.23 18.4537 264.552 19.3133C264.873 20.167 265.034 21.167 265.034 22.3131V23.3393H253.658V21.0237H261.517C261.517 20.4857 261.4 20.0092 261.166 19.594C260.932 19.1788 260.608 18.8543 260.192 18.6204C259.783 18.3806 259.306 18.2608 258.763 18.2608C258.195 18.2608 257.693 18.3923 257.254 18.6555C256.821 18.9128 256.482 19.2607 256.237 19.6992C255.991 20.132 255.865 20.6144 255.859 21.1465V23.3481C255.859 24.0147 255.982 24.5907 256.228 25.0761C256.479 25.5614 256.833 25.9356 257.289 26.1988C257.745 26.4619 258.286 26.5935 258.912 26.5935C259.327 26.5935 259.707 26.535 260.052 26.4181C260.397 26.3011 260.692 26.1257 260.938 25.8918C261.184 25.6579 261.371 25.3714 261.499 25.0322L264.955 25.2603C264.78 26.0906 264.42 26.8157 263.876 27.4355C263.338 28.0495 262.643 28.529 261.789 28.874C260.941 29.2132 259.961 29.3828 258.85 29.3828ZM273.56 29.3828C272.18 29.3828 270.993 29.0904 269.999 28.5056C269.01 27.915 268.25 27.0964 267.718 26.0497C267.192 25.003 266.929 23.7984 266.929 22.4359C266.929 21.0559 267.195 19.8454 267.727 18.8046C268.265 17.7579 269.028 16.9421 270.016 16.3574C271.004 15.7668 272.18 15.4715 273.542 15.4715C274.718 15.4715 275.747 15.6849 276.63 16.1118C277.513 16.5387 278.212 17.138 278.726 17.9099C279.241 18.6818 279.524 19.5881 279.577 20.629H276.051C275.952 19.9565 275.688 19.4156 275.262 19.0063C274.84 18.5911 274.288 18.3835 273.604 18.3835C273.025 18.3835 272.519 18.5414 272.086 18.8572C271.659 19.1671 271.326 19.6203 271.086 20.2168C270.847 20.8132 270.727 21.5354 270.727 22.3833C270.727 23.2429 270.844 23.9738 271.078 24.5761C271.317 25.1784 271.654 25.6374 272.086 25.9532C272.519 26.269 273.025 26.4268 273.604 26.4268C274.031 26.4268 274.414 26.3391 274.753 26.1637C275.098 25.9883 275.381 25.7339 275.604 25.4006C275.832 25.0614 275.981 24.655 276.051 24.1814H279.577C279.519 25.2105 279.238 26.1169 278.735 26.9005C278.238 27.6782 277.551 28.2864 276.674 28.7249C275.797 29.1635 274.759 29.3828 273.56 29.3828ZM289.136 15.6469V18.4537H281.022V15.6469H289.136ZM282.864 12.4191H286.601V24.9796C286.601 25.3246 286.653 25.5936 286.758 25.7865C286.864 25.9737 287.01 26.1052 287.197 26.1812C287.39 26.2573 287.612 26.2953 287.864 26.2953C288.039 26.2953 288.215 26.2806 288.39 26.2514C288.565 26.2163 288.7 26.19 288.793 26.1725L289.381 28.953C289.194 29.0114 288.931 29.0787 288.592 29.1547C288.253 29.2366 287.84 29.2863 287.355 29.3038C286.454 29.3389 285.665 29.219 284.987 28.9442C284.314 28.6694 283.791 28.2425 283.417 27.6636C283.042 27.0847 282.858 26.3537 282.864 25.4708V12.4191ZM297.565 29.3828C296.179 29.3828 294.986 29.1021 293.986 28.5407C292.992 27.9735 292.226 27.1724 291.688 26.1374C291.15 25.0965 290.881 23.8656 290.881 22.4447C290.881 21.0588 291.15 19.8425 291.688 18.7958C292.226 17.7491 292.983 16.9334 293.96 16.3486C294.942 15.7639 296.094 15.4715 297.416 15.4715C298.304 15.4715 299.132 15.6147 299.898 15.9013C300.67 16.182 301.342 16.6059 301.915 17.1731C302.494 17.7403 302.944 18.4537 303.266 19.3133C303.588 20.167 303.749 21.167 303.749 22.3131V23.3393H292.372V21.0237H300.231C300.231 20.4857 300.114 20.0092 299.88 19.594C299.646 19.1788 299.322 18.8543 298.907 18.6204C298.497 18.3806 298.021 18.2608 297.477 18.2608C296.91 18.2608 296.407 18.3923 295.968 18.6555C295.536 18.9128 295.197 19.2607 294.951 19.6992C294.705 20.132 294.58 20.6144 294.574 21.1465V23.3481C294.574 24.0147 294.697 24.5907 294.942 25.0761C295.194 25.5614 295.547 25.9356 296.003 26.1988C296.46 26.4619 297 26.5935 297.626 26.5935C298.041 26.5935 298.421 26.535 298.766 26.4181C299.111 26.3011 299.407 26.1257 299.652 25.8918C299.898 25.6579 300.085 25.3714 300.214 25.0322L303.67 25.2603C303.494 26.0906 303.135 26.8157 302.591 27.4355C302.053 28.0495 301.357 28.529 300.503 28.874C299.655 29.2132 298.676 29.3828 297.565 29.3828ZM311.151 29.3389C310.128 29.3389 309.201 29.0758 308.371 28.5495C307.546 28.0174 306.892 27.2367 306.406 26.2076C305.927 25.1725 305.687 23.9036 305.687 22.4008C305.687 20.8571 305.935 19.5735 306.433 18.5502C306.93 17.521 307.59 16.7521 308.415 16.2434C309.245 15.7288 310.154 15.4715 311.143 15.4715C311.897 15.4715 312.526 15.6001 313.029 15.8574C313.537 16.1089 313.947 16.4246 314.257 16.8047C314.572 17.179 314.812 17.5474 314.976 17.9099H315.09V11.156H318.818V29.1196H315.134V26.9619H314.976C314.8 27.3361 314.552 27.7074 314.23 28.0758C313.914 28.4384 313.502 28.7395 312.993 28.9793C312.491 29.219 311.877 29.3389 311.151 29.3389ZM312.336 26.3654C312.938 26.3654 313.447 26.2017 313.862 25.8742C314.283 25.5409 314.604 25.0761 314.827 24.4796C315.055 23.8832 315.169 23.1844 315.169 22.3833C315.169 21.5822 315.058 20.8863 314.835 20.2957C314.613 19.7051 314.292 19.249 313.871 18.9274C313.45 18.6058 312.938 18.4449 312.336 18.4449C311.722 18.4449 311.204 18.6116 310.783 18.9449C310.362 19.2782 310.043 19.7402 309.827 20.3308C309.611 20.9214 309.502 21.6055 309.502 22.3833C309.502 23.1668 309.611 23.8598 309.827 24.4621C310.049 25.0585 310.368 25.5263 310.783 25.8655C311.204 26.1988 311.722 26.3654 312.336 26.3654Z" fill="#9493F8"/>
</svg>
