<svg width="309" height="42" viewBox="0 0 309 42" fill="none" xmlns="http://www.w3.org/2000/svg">
<path d="M22.1117 25.2427L22.1205 20.7606H22.6643L26.9798 15.6469H31.269L25.4711 22.4184H24.5852L22.1117 25.2427ZM18.726 29.1196V11.156H22.4626V29.1196H18.726ZM27.1464 29.1196L23.1818 23.2516L25.6729 20.6115L31.5233 29.1196H27.1464ZM38.6171 34.4526C37.4067 34.4526 36.3687 34.2859 35.5033 33.9526C34.6437 33.6252 33.9596 33.1778 33.4508 32.6106C32.9421 32.0434 32.6117 31.406 32.4597 30.6985L35.9156 30.2336C36.0208 30.5026 36.1875 30.754 36.4155 30.9879C36.6436 31.2218 36.9447 31.4089 37.319 31.5493C37.6991 31.6955 38.161 31.7686 38.7048 31.7686C39.5176 31.7686 40.1872 31.5697 40.7135 31.1721C41.2456 30.7803 41.5116 30.1225 41.5116 29.1986V26.7338H41.3538C41.19 27.1081 40.9444 27.4619 40.617 27.7952C40.2895 28.1285 39.8685 28.4004 39.3539 28.6109C38.8393 28.8214 38.2253 28.9267 37.5119 28.9267C36.5003 28.9267 35.5793 28.6928 34.749 28.225C33.9245 27.7513 33.2666 27.0291 32.7754 26.0584C32.2901 25.0819 32.0474 23.8481 32.0474 22.357C32.0474 20.8307 32.2959 19.556 32.793 18.5327C33.29 17.5093 33.9508 16.7433 34.7753 16.2346C35.6056 15.7258 36.5149 15.4715 37.5032 15.4715C38.2575 15.4715 38.889 15.6001 39.3978 15.8574C39.9065 16.1089 40.3158 16.4246 40.6257 16.8047C40.9415 17.179 41.1842 17.5474 41.3538 17.9099H41.4941V15.6469H45.2044V29.2512C45.2044 30.3973 44.9237 31.3563 44.3623 32.1282C43.801 32.9001 43.0232 33.479 42.0292 33.8649C41.0409 34.2567 39.9036 34.4526 38.6171 34.4526ZM38.6961 26.1198C39.2984 26.1198 39.8071 25.9707 40.2223 25.6725C40.6433 25.3684 40.9649 24.9357 41.1871 24.3744C41.4152 23.8071 41.5292 23.1288 41.5292 22.3394C41.5292 21.55 41.4181 20.8658 41.1959 20.2869C40.9737 19.7022 40.6521 19.249 40.231 18.9274C39.81 18.6058 39.2984 18.4449 38.6961 18.4449C38.0821 18.4449 37.5646 18.6116 37.1435 18.9449C36.7225 19.2724 36.4038 19.7285 36.1875 20.3132C35.9711 20.898 35.8629 21.5734 35.8629 22.3394C35.8629 23.1171 35.9711 23.7896 36.1875 24.3568C36.4097 24.9182 36.7284 25.3538 37.1435 25.6637C37.5646 25.9678 38.0821 26.1198 38.6961 26.1198ZM59.9818 29.3828C58.6194 29.3828 57.4411 29.0933 56.447 28.5144C55.4588 27.9297 54.6957 27.1168 54.1577 26.076C53.6197 25.0293 53.3507 23.8159 53.3507 22.4359C53.3507 21.0442 53.6197 19.8279 54.1577 18.787C54.6957 17.7403 55.4588 16.9275 56.447 16.3486C57.4411 15.7639 58.6194 15.4715 59.9818 15.4715C61.3443 15.4715 62.5197 15.7639 63.5079 16.3486C64.502 16.9275 65.268 17.7403 65.806 18.787C66.344 19.8279 66.6129 21.0442 66.6129 22.4359C66.6129 23.8159 66.344 25.0293 65.806 26.076C65.268 27.1168 64.502 27.9297 63.5079 28.5144C62.5197 29.0933 61.3443 29.3828 59.9818 29.3828ZM59.9994 26.4882C60.6192 26.4882 61.1367 26.3128 61.5519 25.962C61.9671 25.6053 62.2799 25.1199 62.4904 24.5059C62.7068 23.8919 62.815 23.1931 62.815 22.4096C62.815 21.626 62.7068 20.9272 62.4904 20.3132C62.2799 19.6992 61.9671 19.2139 61.5519 18.8572C61.1367 18.5005 60.6192 18.3221 59.9994 18.3221C59.3737 18.3221 58.8474 18.5005 58.4205 18.8572C57.9995 19.2139 57.6808 19.6992 57.4645 20.3132C57.254 20.9272 57.1487 21.626 57.1487 22.4096C57.1487 23.1931 57.254 23.8919 57.4645 24.5059C57.6808 25.1199 57.9995 25.6053 58.4205 25.962C58.8474 26.3128 59.3737 26.4882 59.9994 26.4882ZM76.2877 15.6469V18.4537H67.9725V15.6469H76.2877ZM69.8759 29.1196V14.6733C69.8759 13.6967 70.0659 12.8869 70.446 12.2436C70.8319 11.6004 71.3582 11.118 72.0248 10.7964C72.6915 10.4748 73.4487 10.3139 74.2966 10.3139C74.8697 10.3139 75.393 10.3578 75.8667 10.4455C76.3462 10.5332 76.7029 10.6122 76.9368 10.6823L76.2701 13.4892C76.124 13.4424 75.9427 13.3985 75.7263 13.3576C75.5158 13.3167 75.2995 13.2962 75.0772 13.2962C74.5276 13.2962 74.1446 13.4248 73.9282 13.6821C73.7118 13.9336 73.6037 14.2873 73.6037 14.7435V29.1196H69.8759ZM100.207 17.445H96.3652C96.295 16.948 96.1518 16.5065 95.9354 16.1206C95.7191 15.7288 95.4413 15.3955 95.1021 15.1206C94.763 14.8458 94.3712 14.6353 93.9268 14.4891C93.4882 14.3429 93.0116 14.2698 92.4971 14.2698C91.5673 14.2698 90.7574 14.5008 90.0674 14.9627C89.3774 15.4188 88.8424 16.0855 88.4623 16.9626C88.0822 17.8339 87.8921 18.8923 87.8921 20.1378C87.8921 21.4184 88.0822 22.4944 88.4623 23.3657C88.8482 24.2369 89.3862 24.8948 90.0762 25.3392C90.7662 25.7836 91.5644 26.0058 92.4707 26.0058C92.9795 26.0058 93.4502 25.9386 93.8829 25.8041C94.3215 25.6696 94.7104 25.4737 95.0495 25.2164C95.3887 24.9533 95.6694 24.6346 95.8916 24.2603C96.1196 23.8861 96.2775 23.4592 96.3652 22.9797L100.207 22.9973C100.108 23.8218 99.8591 24.617 99.4615 25.3831C99.0697 26.1432 98.5405 26.8245 97.8739 27.4268C97.2131 28.0232 96.4237 28.4969 95.5056 28.8477C94.5934 29.1927 93.5613 29.3652 92.4094 29.3652C90.8071 29.3652 89.3745 29.0027 88.1114 28.2776C86.8542 27.5525 85.8601 26.5029 85.1292 25.1287C84.4041 23.7545 84.0415 22.0909 84.0415 20.1378C84.0415 18.1789 84.4099 16.5123 85.1467 15.1382C85.8835 13.764 86.8834 12.7173 88.1465 11.998C89.4096 11.2729 90.8305 10.9104 92.4094 10.9104C93.4502 10.9104 94.4151 11.0566 95.3039 11.349C96.1986 11.6413 96.9909 12.0682 97.6809 12.6296C98.3709 13.1851 98.9323 13.8663 99.365 14.6733C99.8036 15.4802 100.084 16.4042 100.207 17.445ZM119.438 20.1378C119.438 22.0967 119.067 23.7633 118.324 25.1375C117.587 26.5116 116.582 27.5613 115.307 28.2864C114.038 29.0056 112.611 29.3652 111.026 29.3652C109.43 29.3652 107.997 29.0027 106.729 28.2776C105.46 27.5525 104.457 26.5029 103.72 25.1287C102.983 23.7545 102.615 22.0909 102.615 20.1378C102.615 18.1789 102.983 16.5123 103.72 15.1382C104.457 13.764 105.46 12.7173 106.729 11.998C107.997 11.2729 109.43 10.9104 111.026 10.9104C112.611 10.9104 114.038 11.2729 115.307 11.998C116.582 12.7173 117.587 13.764 118.324 15.1382C119.067 16.5123 119.438 18.1789 119.438 20.1378ZM115.588 20.1378C115.588 18.8689 115.397 17.7988 115.017 16.9275C114.643 16.0562 114.114 15.3955 113.43 14.9452C112.746 14.4949 111.945 14.2698 111.026 14.2698C110.108 14.2698 109.307 14.4949 108.623 14.9452C107.939 15.3955 107.407 16.0562 107.027 16.9275C106.652 17.7988 106.465 18.8689 106.465 20.1378C106.465 21.4067 106.652 22.4768 107.027 23.3481C107.407 24.2194 107.939 24.8802 108.623 25.3304C109.307 25.7807 110.108 26.0058 111.026 26.0058C111.945 26.0058 112.746 25.7807 113.43 25.3304C114.114 24.8802 114.643 24.2194 115.017 23.3481C115.397 22.4768 115.588 21.4067 115.588 20.1378ZM122.146 29.1196V26.383L128.541 20.4623C129.084 19.9361 129.54 19.4624 129.909 19.0414C130.283 18.6204 130.567 18.2081 130.76 17.8046C130.953 17.3953 131.049 16.9538 131.049 16.4802C131.049 15.9539 130.929 15.5007 130.69 15.1206C130.45 14.7347 130.122 14.4394 129.707 14.2347C129.292 14.0242 128.821 13.919 128.295 13.919C127.745 13.919 127.266 14.0301 126.856 14.2523C126.447 14.4745 126.131 14.7932 125.909 15.2083C125.687 15.6235 125.576 16.1176 125.576 16.6907H121.971C121.971 15.5153 122.237 14.4949 122.769 13.6295C123.301 12.7641 124.047 12.0945 125.006 11.6209C125.965 11.1472 127.07 10.9104 128.321 10.9104C129.608 10.9104 130.728 11.1384 131.681 11.5946C132.64 12.0448 133.385 12.6705 133.917 13.4716C134.449 14.2727 134.716 15.1908 134.716 16.2258C134.716 16.9041 134.581 17.5737 134.312 18.2344C134.049 18.8952 133.578 19.6291 132.9 20.436C132.222 21.2371 131.266 22.1991 130.032 23.3218L127.409 25.8918V26.0146H134.952V29.1196H122.146ZM141.801 26.6637L141.704 27.6285C141.628 28.4004 141.482 29.1693 141.266 29.9354C141.055 30.7072 140.833 31.406 140.599 32.0317C140.371 32.6574 140.187 33.1486 140.046 33.5053H137.625C137.713 33.1603 137.833 32.6779 137.985 32.058C138.137 31.444 138.28 30.754 138.415 29.988C138.549 29.222 138.634 28.4413 138.669 27.646L138.713 26.6637H141.801ZM166.009 17.445H162.168C162.097 16.948 161.954 16.5065 161.738 16.1206C161.521 15.7288 161.244 15.3955 160.904 15.1206C160.565 14.8458 160.174 14.6353 159.729 14.4891C159.291 14.3429 158.814 14.2698 158.299 14.2698C157.37 14.2698 156.56 14.5008 155.87 14.9627C155.18 15.4188 154.645 16.0855 154.265 16.9626C153.885 17.8339 153.694 18.8923 153.694 20.1378C153.694 21.4184 153.885 22.4944 154.265 23.3657C154.651 24.2369 155.189 24.8948 155.879 25.3392C156.569 25.7836 157.367 26.0058 158.273 26.0058C158.782 26.0058 159.253 25.9386 159.685 25.8041C160.124 25.6696 160.513 25.4737 160.852 25.2164C161.191 24.9533 161.472 24.6346 161.694 24.2603C161.922 23.8861 162.08 23.4592 162.168 22.9797L166.009 22.9973C165.91 23.8218 165.661 24.617 165.264 25.3831C164.872 26.1432 164.343 26.8245 163.676 27.4268C163.015 28.0232 162.226 28.4969 161.308 28.8477C160.396 29.1927 159.364 29.3652 158.212 29.3652C156.609 29.3652 155.177 29.0027 153.914 28.2776C152.657 27.5525 151.662 26.5029 150.932 25.1287C150.206 23.7545 149.844 22.0909 149.844 20.1378C149.844 18.1789 150.212 16.5123 150.949 15.1382C151.686 13.764 152.686 12.7173 153.949 11.998C155.212 11.2729 156.633 10.9104 158.212 10.9104C159.253 10.9104 160.217 11.0566 161.106 11.349C162.001 11.6413 162.793 12.0682 163.483 12.6296C164.173 13.1851 164.735 13.8663 165.167 14.6733C165.606 15.4802 165.887 16.4042 166.009 17.445ZM185.24 20.1378C185.24 22.0967 184.869 23.7633 184.127 25.1375C183.39 26.5116 182.384 27.5613 181.109 28.2864C179.84 29.0056 178.413 29.3652 176.829 29.3652C175.232 29.3652 173.8 29.0027 172.531 28.2776C171.262 27.5525 170.259 26.5029 169.522 25.1287C168.786 23.7545 168.417 22.0909 168.417 20.1378C168.417 18.1789 168.786 16.5123 169.522 15.1382C170.259 13.764 171.262 12.7173 172.531 11.998C173.8 11.2729 175.232 10.9104 176.829 10.9104C178.413 10.9104 179.84 11.2729 181.109 11.998C182.384 12.7173 183.39 13.764 184.127 15.1382C184.869 16.5123 185.24 18.1789 185.24 20.1378ZM181.39 20.1378C181.39 18.8689 181.2 17.7988 180.82 16.9275C180.445 16.0562 179.916 15.3955 179.232 14.9452C178.548 14.4949 177.747 14.2698 176.829 14.2698C175.911 14.2698 175.11 14.4949 174.425 14.9452C173.741 15.3955 173.209 16.0562 172.829 16.9275C172.455 17.7988 172.268 18.8689 172.268 20.1378C172.268 21.4067 172.455 22.4768 172.829 23.3481C173.209 24.2194 173.741 24.8802 174.425 25.3304C175.11 25.7807 175.911 26.0058 176.829 26.0058C177.747 26.0058 178.548 25.7807 179.232 25.3304C179.916 24.8802 180.445 24.2194 180.82 23.3481C181.2 22.4768 181.39 21.4067 181.39 20.1378ZM187.949 29.1196V26.383L194.343 20.4623C194.887 19.9361 195.343 19.4624 195.711 19.0414C196.085 18.6204 196.369 18.2081 196.562 17.8046C196.755 17.3953 196.851 16.9538 196.851 16.4802C196.851 15.9539 196.732 15.5007 196.492 15.1206C196.252 14.7347 195.925 14.4394 195.509 14.2347C195.094 14.0242 194.624 13.919 194.097 13.919C193.548 13.919 193.068 14.0301 192.659 14.2523C192.249 14.4745 191.934 14.7932 191.712 15.2083C191.489 15.6235 191.378 16.1176 191.378 16.6907H187.773C187.773 15.5153 188.039 14.4949 188.571 13.6295C189.104 12.7641 189.849 12.0945 190.808 11.6209C191.767 11.1472 192.872 10.9104 194.124 10.9104C195.41 10.9104 196.53 11.1384 197.483 11.5946C198.442 12.0448 199.188 12.6705 199.72 13.4716C200.252 14.2727 200.518 15.1908 200.518 16.2258C200.518 16.9041 200.383 17.5737 200.114 18.2344C199.851 18.8952 199.381 19.6291 198.702 20.436C198.024 21.2371 197.068 22.1991 195.834 23.3218L193.211 25.8918V26.0146H200.755V29.1196H187.949ZM209.259 29.1196V15.6469H212.995V29.1196H209.259ZM211.136 13.9102C210.58 13.9102 210.103 13.726 209.706 13.3576C209.314 12.9833 209.118 12.536 209.118 12.0156C209.118 11.501 209.314 11.0595 209.706 10.6911C210.103 10.3169 210.58 10.1297 211.136 10.1297C211.691 10.1297 212.165 10.3169 212.557 10.6911C212.954 11.0595 213.153 11.501 213.153 12.0156C213.153 12.536 212.954 12.9833 212.557 13.3576C212.165 13.726 211.691 13.9102 211.136 13.9102ZM215.988 29.1196V15.6469H219.549V18.0239H219.707C219.988 17.2345 220.456 16.6117 221.111 16.1556C221.766 15.6995 222.549 15.4715 223.461 15.4715C224.385 15.4715 225.172 15.7025 225.821 16.1644C226.47 16.6205 226.903 17.2404 227.119 18.0239H227.259C227.534 17.2521 228.031 16.6351 228.751 16.1732C229.476 15.7054 230.332 15.4715 231.321 15.4715C232.578 15.4715 233.598 15.872 234.382 16.6731C235.171 17.4684 235.566 18.597 235.566 20.0589V29.1196H231.838V20.7957C231.838 20.0472 231.639 19.4858 231.242 19.1116C230.844 18.7373 230.347 18.5502 229.75 18.5502C229.072 18.5502 228.543 18.7666 228.163 19.1993C227.783 19.6262 227.593 20.1904 227.593 20.8921V29.1196H223.97V20.7167C223.97 20.0559 223.78 19.5297 223.4 19.1379C223.026 18.7461 222.532 18.5502 221.918 18.5502C221.503 18.5502 221.128 18.6555 220.795 18.866C220.468 19.0706 220.207 19.3601 220.014 19.7343C219.821 20.1027 219.725 20.5354 219.725 21.0325V29.1196H215.988ZM238.517 34.1719V15.6469H242.201V17.9099H242.368C242.532 17.5474 242.769 17.179 243.078 16.8047C243.394 16.4246 243.804 16.1089 244.306 15.8574C244.815 15.6001 245.447 15.4715 246.201 15.4715C247.183 15.4715 248.09 15.7288 248.92 16.2434C249.751 16.7521 250.414 17.521 250.911 18.5502C251.408 19.5735 251.657 20.8571 251.657 22.4008C251.657 23.9036 251.414 25.1725 250.929 26.2076C250.449 27.2367 249.794 28.0174 248.964 28.5495C248.14 29.0758 247.216 29.3389 246.192 29.3389C245.467 29.3389 244.85 29.219 244.342 28.9793C243.839 28.7395 243.426 28.4384 243.105 28.0758C242.783 27.7074 242.538 27.3361 242.368 26.9619H242.254V34.1719H238.517ZM242.175 22.3833C242.175 23.1844 242.286 23.8832 242.508 24.4796C242.731 25.0761 243.052 25.5409 243.473 25.8742C243.894 26.2017 244.406 26.3654 245.008 26.3654C245.616 26.3654 246.131 26.1988 246.552 25.8655C246.973 25.5263 247.292 25.0585 247.508 24.4621C247.73 23.8598 247.841 23.1668 247.841 22.3833C247.841 21.6055 247.733 20.9214 247.517 20.3308C247.3 19.7402 246.982 19.2782 246.561 18.9449C246.14 18.6116 245.622 18.4449 245.008 18.4449C244.4 18.4449 243.885 18.6058 243.464 18.9274C243.049 19.249 242.731 19.7051 242.508 20.2957C242.286 20.8863 242.175 21.5822 242.175 22.3833ZM257.99 29.374C257.13 29.374 256.364 29.2249 255.692 28.9267C255.019 28.6226 254.487 28.1753 254.095 27.5847C253.709 26.9882 253.516 26.2456 253.516 25.3567C253.516 24.6083 253.654 23.9796 253.929 23.4709C254.203 22.9622 254.578 22.5528 255.051 22.2429C255.525 21.933 256.063 21.6991 256.665 21.5412C257.273 21.3833 257.911 21.2722 258.577 21.2079C259.361 21.126 259.992 21.05 260.472 20.9799C260.951 20.9038 261.299 20.7927 261.516 20.6465C261.732 20.5004 261.84 20.284 261.84 19.9975V19.9448C261.84 19.3893 261.665 18.9595 261.314 18.6555C260.969 18.3514 260.478 18.1994 259.84 18.1994C259.168 18.1994 258.633 18.3485 258.235 18.6467C257.838 18.9391 257.575 19.3075 257.446 19.7519L253.99 19.4712C254.165 18.6525 254.51 17.945 255.025 17.3485C255.54 16.7462 256.203 16.2843 257.016 15.9627C257.835 15.6352 258.782 15.4715 259.858 15.4715C260.606 15.4715 261.323 15.5592 262.007 15.7346C262.697 15.91 263.308 16.182 263.84 16.5503C264.378 16.9187 264.802 17.3924 265.112 17.9713C265.422 18.5444 265.577 19.2314 265.577 20.0326V29.1196H262.033V27.2513H261.928C261.712 27.6724 261.422 28.0437 261.06 28.3653C260.697 28.6811 260.261 28.9296 259.753 29.1109C259.244 29.2863 258.656 29.374 257.99 29.374ZM259.06 26.7952C259.609 26.7952 260.095 26.6871 260.516 26.4707C260.937 26.2485 261.267 25.9503 261.507 25.576C261.747 25.2018 261.867 24.7778 261.867 24.3042V22.8745C261.75 22.9505 261.589 23.0206 261.384 23.085C261.185 23.1434 260.96 23.199 260.709 23.2516C260.457 23.2984 260.206 23.3423 259.954 23.3832C259.703 23.4183 259.475 23.4504 259.27 23.4797C258.832 23.544 258.449 23.6463 258.121 23.7867C257.794 23.927 257.539 24.1171 257.358 24.3568C257.177 24.5907 257.086 24.8831 257.086 25.2339C257.086 25.7427 257.27 26.1315 257.639 26.4005C258.013 26.6637 258.487 26.7952 259.06 26.7952ZM274.563 29.3828C273.183 29.3828 271.996 29.0904 271.002 28.5056C270.014 27.915 269.254 27.0964 268.721 26.0497C268.195 25.003 267.932 23.7984 267.932 22.4359C267.932 21.0559 268.198 19.8454 268.73 18.8046C269.268 17.7579 270.031 16.9421 271.019 16.3574C272.008 15.7668 273.183 15.4715 274.546 15.4715C275.721 15.4715 276.75 15.6849 277.633 16.1118C278.516 16.5387 279.215 17.138 279.729 17.9099C280.244 18.6818 280.528 19.5881 280.58 20.629H277.054C276.955 19.9565 276.692 19.4156 276.265 19.0063C275.844 18.5911 275.291 18.3835 274.607 18.3835C274.028 18.3835 273.522 18.5414 273.09 18.8572C272.663 19.1671 272.329 19.6203 272.09 20.2168C271.85 20.8132 271.73 21.5354 271.73 22.3833C271.73 23.2429 271.847 23.9738 272.081 24.5761C272.321 25.1784 272.657 25.6374 273.09 25.9532C273.522 26.269 274.028 26.4268 274.607 26.4268C275.034 26.4268 275.417 26.3391 275.756 26.1637C276.101 25.9883 276.385 25.7339 276.607 25.4006C276.835 25.0614 276.984 24.655 277.054 24.1814H280.58C280.522 25.2105 280.241 26.1169 279.738 26.9005C279.241 27.6782 278.554 28.2864 277.677 28.7249C276.8 29.1635 275.762 29.3828 274.563 29.3828ZM290.139 15.6469V18.4537H282.025V15.6469H290.139ZM283.867 12.4191H287.604V24.9796C287.604 25.3246 287.656 25.5936 287.762 25.7865C287.867 25.9737 288.013 26.1052 288.2 26.1812C288.393 26.2573 288.615 26.2953 288.867 26.2953C289.042 26.2953 289.218 26.2806 289.393 26.2514C289.569 26.2163 289.703 26.19 289.797 26.1725L290.384 28.953C290.197 29.0114 289.934 29.0787 289.595 29.1547C289.256 29.2366 288.843 29.2863 288.358 29.3038C287.458 29.3389 286.668 29.219 285.99 28.9442C285.317 28.6694 284.794 28.2425 284.42 27.6636C284.046 27.0847 283.861 26.3537 283.867 25.4708V12.4191Z" fill="#9493F8"/>
</svg>
