<svg width="300" height="42" viewBox="0 0 300 42" fill="none" xmlns="http://www.w3.org/2000/svg">
<path d="M22.7728 25.2427L22.7816 20.7606H23.3254L27.6409 15.6469H31.9301L26.1323 22.4184H25.2464L22.7728 25.2427ZM19.3871 29.1196V11.156H23.1237V29.1196H19.3871ZM27.8076 29.1196L23.8429 23.2516L26.334 20.6115L32.1845 29.1196H27.8076ZM39.2783 34.4526C38.0678 34.4526 37.0299 34.2859 36.1644 33.9526C35.3048 33.6252 34.6207 33.1778 34.112 32.6106C33.6032 32.0434 33.2728 31.406 33.1208 30.6985L36.5767 30.2336C36.6819 30.5026 36.8486 30.754 37.0767 30.9879C37.3047 31.2218 37.6059 31.4089 37.9801 31.5493C38.3602 31.6955 38.8221 31.7686 39.366 31.7686C40.1788 31.7686 40.8483 31.5697 41.3746 31.1721C41.9067 30.7803 42.1728 30.1225 42.1728 29.1986V26.7338H42.0149C41.8512 27.1081 41.6056 27.4619 41.2781 27.7952C40.9506 28.1285 40.5296 28.4004 40.015 28.6109C39.5005 28.8214 38.8865 28.9267 38.1731 28.9267C37.1614 28.9267 36.2405 28.6928 35.4101 28.225C34.5856 27.7513 33.9278 27.0291 33.4366 26.0584C32.9512 25.0819 32.7085 23.8481 32.7085 22.357C32.7085 20.8307 32.9571 19.556 33.4541 18.5327C33.9511 17.5093 34.6119 16.7433 35.4364 16.2346C36.2668 15.7258 37.1761 15.4715 38.1643 15.4715C38.9186 15.4715 39.5502 15.6001 40.0589 15.8574C40.5676 16.1089 40.977 16.4246 41.2869 16.8047C41.6026 17.179 41.8453 17.5474 42.0149 17.9099H42.1552V15.6469H45.8655V29.2512C45.8655 30.3973 45.5848 31.3563 45.0235 32.1282C44.4621 32.9001 43.6844 33.479 42.6903 33.8649C41.7021 34.2567 40.5647 34.4526 39.2783 34.4526ZM39.3572 26.1198C39.9595 26.1198 40.4682 25.9707 40.8834 25.6725C41.3044 25.3684 41.626 24.9357 41.8482 24.3744C42.0763 23.8071 42.1903 23.1288 42.1903 22.3394C42.1903 21.55 42.0792 20.8658 41.857 20.2869C41.6348 19.7022 41.3132 19.249 40.8922 18.9274C40.4711 18.6058 39.9595 18.4449 39.3572 18.4449C38.7432 18.4449 38.2257 18.6116 37.8047 18.9449C37.3836 19.2724 37.065 19.7285 36.8486 20.3132C36.6322 20.898 36.5241 21.5734 36.5241 22.3394C36.5241 23.1171 36.6322 23.7896 36.8486 24.3568C37.0708 24.9182 37.3895 25.3538 37.8047 25.6637C38.2257 25.9678 38.7432 26.1198 39.3572 26.1198ZM60.643 29.3828C59.2805 29.3828 58.1022 29.0933 57.1081 28.5144C56.1199 27.9297 55.3568 27.1168 54.8188 26.076C54.2808 25.0293 54.0119 23.8159 54.0119 22.4359C54.0119 21.0442 54.2808 19.8279 54.8188 18.787C55.3568 17.7403 56.1199 16.9275 57.1081 16.3486C58.1022 15.7639 59.2805 15.4715 60.643 15.4715C62.0054 15.4715 63.1808 15.7639 64.169 16.3486C65.1631 16.9275 65.9291 17.7403 66.4671 18.787C67.0051 19.8279 67.2741 21.0442 67.2741 22.4359C67.2741 23.8159 67.0051 25.0293 66.4671 26.076C65.9291 27.1168 65.1631 27.9297 64.169 28.5144C63.1808 29.0933 62.0054 29.3828 60.643 29.3828ZM60.6605 26.4882C61.2803 26.4882 61.7979 26.3128 62.213 25.962C62.6282 25.6053 62.941 25.1199 63.1516 24.5059C63.3679 23.8919 63.4761 23.1931 63.4761 22.4096C63.4761 21.626 63.3679 20.9272 63.1516 20.3132C62.941 19.6992 62.6282 19.2139 62.213 18.8572C61.7979 18.5005 61.2803 18.3221 60.6605 18.3221C60.0348 18.3221 59.5085 18.5005 59.0817 18.8572C58.6606 19.2139 58.342 19.6992 58.1256 20.3132C57.9151 20.9272 57.8098 21.626 57.8098 22.4096C57.8098 23.1931 57.9151 23.8919 58.1256 24.5059C58.342 25.1199 58.6606 25.6053 59.0817 25.962C59.5085 26.3128 60.0348 26.4882 60.6605 26.4882ZM76.9488 15.6469V18.4537H68.6336V15.6469H76.9488ZM70.537 29.1196V14.6733C70.537 13.6967 70.727 12.8869 71.1071 12.2436C71.4931 11.6004 72.0193 11.118 72.686 10.7964C73.3526 10.4748 74.1098 10.3139 74.9577 10.3139C75.5308 10.3139 76.0541 10.3578 76.5278 10.4455C77.0073 10.5332 77.364 10.6122 77.5979 10.6823L76.9313 13.4892C76.7851 13.4424 76.6038 13.3985 76.3875 13.3576C76.1769 13.3167 75.9606 13.2962 75.7384 13.2962C75.1887 13.2962 74.8057 13.4248 74.5893 13.6821C74.373 13.9336 74.2648 14.2873 74.2648 14.7435V29.1196H70.537ZM84.9483 34.1719V15.6469H88.6322V17.9099H88.7989C88.9626 17.5474 89.1994 17.179 89.5093 16.8047C89.8251 16.4246 90.2344 16.1089 90.7373 15.8574C91.2461 15.6001 91.8776 15.4715 92.6319 15.4715C93.6143 15.4715 94.5207 15.7288 95.351 16.2434C96.1814 16.7521 96.8451 17.521 97.3421 18.5502C97.8392 19.5735 98.0877 20.8571 98.0877 22.4008C98.0877 23.9036 97.845 25.1725 97.3597 26.2076C96.8802 27.2367 96.2252 28.0174 95.3949 28.5495C94.5704 29.0758 93.6465 29.3389 92.6231 29.3389C91.8981 29.3389 91.2811 29.219 90.7724 28.9793C90.2695 28.7395 89.8573 28.4384 89.5356 28.0758C89.214 27.7074 88.9684 27.3361 88.7989 26.9619H88.6848V34.1719H84.9483ZM88.6059 22.3833C88.6059 23.1844 88.717 23.8832 88.9392 24.4796C89.1614 25.0761 89.483 25.5409 89.904 25.8742C90.3251 26.2017 90.8367 26.3654 91.439 26.3654C92.0472 26.3654 92.5617 26.1988 92.9828 25.8655C93.4038 25.5263 93.7225 25.0585 93.9388 24.4621C94.161 23.8598 94.2722 23.1668 94.2722 22.3833C94.2722 21.6055 94.164 20.9214 93.9476 20.3308C93.7313 19.7402 93.4126 19.2782 92.9915 18.9449C92.5705 18.6116 92.053 18.4449 91.439 18.4449C90.8309 18.4449 90.3163 18.6058 89.8953 18.9274C89.4801 19.249 89.1614 19.7051 88.9392 20.2957C88.717 20.8863 88.6059 21.5822 88.6059 22.3833ZM104.315 11.156V29.1196H100.579V11.156H104.315ZM111.15 29.374C110.291 29.374 109.525 29.2249 108.852 28.9267C108.18 28.6226 107.648 28.1753 107.256 27.5847C106.87 26.9882 106.677 26.2456 106.677 25.3567C106.677 24.6083 106.814 23.9796 107.089 23.4709C107.364 22.9622 107.738 22.5528 108.212 22.2429C108.686 21.933 109.224 21.6991 109.826 21.5412C110.434 21.3833 111.071 21.2722 111.738 21.2079C112.522 21.126 113.153 21.05 113.633 20.9799C114.112 20.9038 114.46 20.7927 114.676 20.6465C114.893 20.5004 115.001 20.284 115.001 19.9975V19.9448C115.001 19.3893 114.826 18.9595 114.475 18.6555C114.13 18.3514 113.638 18.1994 113.001 18.1994C112.329 18.1994 111.794 18.3485 111.396 18.6467C110.998 18.9391 110.735 19.3075 110.607 19.7519L107.151 19.4712C107.326 18.6525 107.671 17.945 108.186 17.3485C108.7 16.7462 109.364 16.2843 110.177 15.9627C110.995 15.6352 111.943 15.4715 113.019 15.4715C113.767 15.4715 114.483 15.5592 115.168 15.7346C115.858 15.91 116.469 16.182 117.001 16.5503C117.539 16.9187 117.963 17.3924 118.273 17.9713C118.583 18.5444 118.738 19.2314 118.738 20.0326V29.1196H115.194V27.2513H115.089C114.872 27.6724 114.583 28.0437 114.22 28.3653C113.858 28.6811 113.422 28.9296 112.913 29.1109C112.405 29.2863 111.817 29.374 111.15 29.374ZM112.22 26.7952C112.77 26.7952 113.255 26.6871 113.676 26.4707C114.097 26.2485 114.428 25.9503 114.668 25.576C114.907 25.2018 115.027 24.7778 115.027 24.3042V22.8745C114.91 22.9505 114.749 23.0206 114.545 23.085C114.346 23.1434 114.121 23.199 113.869 23.2516C113.618 23.2984 113.367 23.3423 113.115 23.3832C112.864 23.4183 112.636 23.4504 112.431 23.4797C111.992 23.544 111.609 23.6463 111.282 23.7867C110.954 23.927 110.7 24.1171 110.519 24.3568C110.338 24.5907 110.247 24.8831 110.247 25.2339C110.247 25.7427 110.431 26.1315 110.799 26.4005C111.174 26.6637 111.647 26.7952 112.22 26.7952ZM132.846 19.4887L129.425 19.6992C129.367 19.4069 129.241 19.1437 129.048 18.9098C128.855 18.6701 128.601 18.48 128.285 18.3397C127.975 18.1935 127.604 18.1204 127.171 18.1204C126.592 18.1204 126.104 18.2432 125.706 18.4888C125.309 18.7286 125.11 19.0502 125.11 19.4536C125.11 19.7753 125.239 20.0472 125.496 20.2694C125.753 20.4916 126.195 20.6699 126.82 20.8044L129.259 21.2956C130.569 21.5646 131.545 21.9973 132.188 22.5938C132.832 23.1902 133.153 23.9738 133.153 24.9445C133.153 25.8275 132.893 26.6023 132.373 27.2689C131.858 27.9355 131.15 28.4559 130.25 28.8302C129.355 29.1986 128.323 29.3828 127.154 29.3828C125.37 29.3828 123.949 29.0114 122.891 28.2688C121.838 27.5203 121.221 26.5029 121.04 25.2164L124.715 25.0234C124.826 25.5672 125.095 25.9824 125.522 26.269C125.949 26.5496 126.496 26.69 127.162 26.69C127.817 26.69 128.344 26.5643 128.741 26.3128C129.145 26.0555 129.349 25.7251 129.355 25.3217C129.349 24.9825 129.206 24.7047 128.925 24.4884C128.645 24.2662 128.212 24.0966 127.627 23.9796L125.294 23.5148C123.978 23.2516 122.999 22.7955 122.356 22.1464C121.718 21.4974 121.4 20.6699 121.4 19.6642C121.4 18.7987 121.634 18.0532 122.101 17.4275C122.575 16.8018 123.239 16.3194 124.092 15.9802C124.952 15.6411 125.958 15.4715 127.11 15.4715C128.811 15.4715 130.15 15.8311 131.127 16.5503C132.109 17.2696 132.682 18.2491 132.846 19.4887ZM142.672 15.6469V18.4537H134.559V15.6469H142.672ZM136.401 12.4191H140.137V24.9796C140.137 25.3246 140.19 25.5936 140.295 25.7865C140.4 25.9737 140.547 26.1052 140.734 26.1812C140.927 26.2573 141.149 26.2953 141.4 26.2953C141.576 26.2953 141.751 26.2806 141.927 26.2514C142.102 26.2163 142.237 26.19 142.33 26.1725L142.918 28.953C142.731 29.0114 142.468 29.0787 142.128 29.1547C141.789 29.2366 141.377 29.2863 140.892 29.3038C139.991 29.3389 139.202 29.219 138.523 28.9442C137.851 28.6694 137.328 28.2425 136.953 27.6636C136.579 27.0847 136.395 26.3537 136.401 25.4708V12.4191ZM145.106 29.1196V15.6469H148.843V29.1196H145.106ZM146.983 13.9102C146.428 13.9102 145.951 13.726 145.554 13.3576C145.162 12.9833 144.966 12.536 144.966 12.0156C144.966 11.501 145.162 11.0595 145.554 10.6911C145.951 10.3169 146.428 10.1297 146.983 10.1297C147.539 10.1297 148.012 10.3169 148.404 10.6911C148.802 11.0595 149.001 11.501 149.001 12.0156C149.001 12.536 148.802 12.9833 148.404 13.3576C148.012 13.726 147.539 13.9102 146.983 13.9102ZM157.923 29.3828C156.543 29.3828 155.356 29.0904 154.362 28.5056C153.374 27.915 152.614 27.0964 152.082 26.0497C151.555 25.003 151.292 23.7984 151.292 22.4359C151.292 21.0559 151.558 19.8454 152.09 18.8046C152.628 17.7579 153.391 16.9421 154.38 16.3574C155.368 15.7668 156.543 15.4715 157.906 15.4715C159.081 15.4715 160.11 15.6849 160.993 16.1118C161.876 16.5387 162.575 17.138 163.09 17.9099C163.604 18.6818 163.888 19.5881 163.94 20.629H160.414C160.315 19.9565 160.052 19.4156 159.625 19.0063C159.204 18.5911 158.651 18.3835 157.967 18.3835C157.388 18.3835 156.882 18.5414 156.45 18.8572C156.023 19.1671 155.69 19.6203 155.45 20.2168C155.21 20.8132 155.09 21.5354 155.09 22.3833C155.09 23.2429 155.207 23.9738 155.441 24.5761C155.681 25.1784 156.017 25.6374 156.45 25.9532C156.882 26.269 157.388 26.4268 157.967 26.4268C158.394 26.4268 158.777 26.3391 159.116 26.1637C159.461 25.9883 159.745 25.7339 159.967 25.4006C160.195 25.0614 160.344 24.655 160.414 24.1814H163.94C163.882 25.2105 163.601 26.1169 163.098 26.9005C162.601 27.6782 161.914 28.2864 161.037 28.7249C160.16 29.1635 159.122 29.3828 157.923 29.3828ZM178.137 29.3828C176.757 29.3828 175.57 29.0904 174.576 28.5056C173.587 27.915 172.827 27.0964 172.295 26.0497C171.769 25.003 171.506 23.7984 171.506 22.4359C171.506 21.0559 171.772 19.8454 172.304 18.8046C172.842 17.7579 173.605 16.9421 174.593 16.3574C175.581 15.7668 176.757 15.4715 178.119 15.4715C179.295 15.4715 180.324 15.6849 181.207 16.1118C182.09 16.5387 182.789 17.138 183.303 17.9099C183.818 18.6818 184.101 19.5881 184.154 20.629H180.628C180.528 19.9565 180.265 19.4156 179.838 19.0063C179.417 18.5911 178.865 18.3835 178.181 18.3835C177.602 18.3835 177.096 18.5414 176.663 18.8572C176.236 19.1671 175.903 19.6203 175.663 20.2168C175.424 20.8132 175.304 21.5354 175.304 22.3833C175.304 23.2429 175.421 23.9738 175.655 24.5761C175.894 25.1784 176.231 25.6374 176.663 25.9532C177.096 26.269 177.602 26.4268 178.181 26.4268C178.608 26.4268 178.991 26.3391 179.33 26.1637C179.675 25.9883 179.958 25.7339 180.181 25.4006C180.409 25.0614 180.558 24.655 180.628 24.1814H184.154C184.095 25.2105 183.815 26.1169 183.312 26.9005C182.815 27.6782 182.128 28.2864 181.251 28.7249C180.374 29.1635 179.336 29.3828 178.137 29.3828ZM192.634 29.3828C191.271 29.3828 190.093 29.0933 189.099 28.5144C188.111 27.9297 187.347 27.1168 186.809 26.076C186.271 25.0293 186.002 23.8159 186.002 22.4359C186.002 21.0442 186.271 19.8279 186.809 18.787C187.347 17.7403 188.111 16.9275 189.099 16.3486C190.093 15.7639 191.271 15.4715 192.634 15.4715C193.996 15.4715 195.171 15.7639 196.16 16.3486C197.154 16.9275 197.92 17.7403 198.458 18.787C198.996 19.8279 199.265 21.0442 199.265 22.4359C199.265 23.8159 198.996 25.0293 198.458 26.076C197.92 27.1168 197.154 27.9297 196.16 28.5144C195.171 29.0933 193.996 29.3828 192.634 29.3828ZM192.651 26.4882C193.271 26.4882 193.788 26.3128 194.204 25.962C194.619 25.6053 194.932 25.1199 195.142 24.5059C195.359 23.8919 195.467 23.1931 195.467 22.4096C195.467 21.626 195.359 20.9272 195.142 20.3132C194.932 19.6992 194.619 19.2139 194.204 18.8572C193.788 18.5005 193.271 18.3221 192.651 18.3221C192.025 18.3221 191.499 18.5005 191.072 18.8572C190.651 19.2139 190.333 19.6992 190.116 20.3132C189.906 20.9272 189.8 21.626 189.8 22.4096C189.8 23.1931 189.906 23.8919 190.116 24.5059C190.333 25.1199 190.651 25.6053 191.072 25.962C191.499 26.3128 192.025 26.4882 192.651 26.4882ZM205.431 11.156V29.1196H201.694V11.156H205.431ZM212.161 11.156V29.1196H208.424V11.156H212.161ZM221.294 29.3828C219.908 29.3828 218.715 29.1021 217.715 28.5407C216.721 27.9735 215.955 27.1724 215.417 26.1374C214.879 25.0965 214.61 23.8656 214.61 22.4447C214.61 21.0588 214.879 19.8425 215.417 18.7958C215.955 17.7491 216.712 16.9334 217.689 16.3486C218.671 15.7639 219.823 15.4715 221.145 15.4715C222.034 15.4715 222.861 15.6147 223.627 15.9013C224.399 16.182 225.071 16.6059 225.644 17.1731C226.223 17.7403 226.674 18.4537 226.995 19.3133C227.317 20.167 227.478 21.167 227.478 22.3131V23.3393H216.101V21.0237H223.96C223.96 20.4857 223.843 20.0092 223.609 19.594C223.376 19.1788 223.051 18.8543 222.636 18.6204C222.227 18.3806 221.75 18.2608 221.206 18.2608C220.639 18.2608 220.136 18.3923 219.697 18.6555C219.265 18.9128 218.926 19.2607 218.68 19.6992C218.434 20.132 218.309 20.6144 218.303 21.1465V23.3481C218.303 24.0147 218.426 24.5907 218.671 25.0761C218.923 25.5614 219.276 25.9356 219.733 26.1988C220.189 26.4619 220.73 26.5935 221.355 26.5935C221.77 26.5935 222.15 26.535 222.496 26.4181C222.841 26.3011 223.136 26.1257 223.381 25.8918C223.627 25.6579 223.814 25.3714 223.943 25.0322L227.399 25.2603C227.223 26.0906 226.864 26.8157 226.32 27.4355C225.782 28.0495 225.086 28.529 224.232 28.874C223.384 29.2132 222.405 29.3828 221.294 29.3828ZM236.003 29.3828C234.623 29.3828 233.436 29.0904 232.442 28.5056C231.454 27.915 230.694 27.0964 230.162 26.0497C229.635 25.003 229.372 23.7984 229.372 22.4359C229.372 21.0559 229.638 19.8454 230.17 18.8046C230.708 17.7579 231.471 16.9421 232.46 16.3574C233.448 15.7668 234.623 15.4715 235.986 15.4715C237.161 15.4715 238.19 15.6849 239.073 16.1118C239.956 16.5387 240.655 17.138 241.17 17.9099C241.684 18.6818 241.968 19.5881 242.02 20.629H238.494C238.395 19.9565 238.132 19.4156 237.705 19.0063C237.284 18.5911 236.731 18.3835 236.047 18.3835C235.468 18.3835 234.962 18.5414 234.53 18.8572C234.103 19.1671 233.77 19.6203 233.53 20.2168C233.29 20.8132 233.17 21.5354 233.17 22.3833C233.17 23.2429 233.287 23.9738 233.521 24.5761C233.761 25.1784 234.097 25.6374 234.53 25.9532C234.962 26.269 235.468 26.4268 236.047 26.4268C236.474 26.4268 236.857 26.3391 237.196 26.1637C237.541 25.9883 237.825 25.7339 238.047 25.4006C238.275 25.0614 238.424 24.655 238.494 24.1814H242.02C241.962 25.2105 241.681 26.1169 241.178 26.9005C240.681 27.6782 239.994 28.2864 239.117 28.7249C238.24 29.1635 237.202 29.3828 236.003 29.3828ZM251.579 15.6469V18.4537H243.466V15.6469H251.579ZM245.307 12.4191H249.044V24.9796C249.044 25.3246 249.097 25.5936 249.202 25.7865C249.307 25.9737 249.453 26.1052 249.641 26.1812C249.833 26.2573 250.056 26.2953 250.307 26.2953C250.483 26.2953 250.658 26.2806 250.833 26.2514C251.009 26.2163 251.143 26.19 251.237 26.1725L251.825 28.953C251.637 29.0114 251.374 29.0787 251.035 29.1547C250.696 29.2366 250.284 29.2863 249.798 29.3038C248.898 29.3389 248.108 29.219 247.43 28.9442C246.758 28.6694 246.234 28.2425 245.86 27.6636C245.486 27.0847 245.302 26.3537 245.307 25.4708V12.4191ZM260.008 29.3828C258.622 29.3828 257.429 29.1021 256.429 28.5407C255.435 27.9735 254.669 27.1724 254.131 26.1374C253.593 25.0965 253.324 23.8656 253.324 22.4447C253.324 21.0588 253.593 19.8425 254.131 18.7958C254.669 17.7491 255.427 16.9334 256.403 16.3486C257.386 15.7639 258.538 15.4715 259.859 15.4715C260.748 15.4715 261.575 15.6147 262.341 15.9013C263.113 16.182 263.786 16.6059 264.359 17.1731C264.938 17.7403 265.388 18.4537 265.71 19.3133C266.031 20.167 266.192 21.167 266.192 22.3131V23.3393H254.816V21.0237H262.675C262.675 20.4857 262.558 20.0092 262.324 19.594C262.09 19.1788 261.765 18.8543 261.35 18.6204C260.941 18.3806 260.464 18.2608 259.92 18.2608C259.353 18.2608 258.85 18.3923 258.412 18.6555C257.979 18.9128 257.64 19.2607 257.394 19.6992C257.149 20.132 257.023 20.6144 257.017 21.1465V23.3481C257.017 24.0147 257.14 24.5907 257.386 25.0761C257.637 25.5614 257.991 25.9356 258.447 26.1988C258.903 26.4619 259.444 26.5935 260.07 26.5935C260.485 26.5935 260.865 26.535 261.21 26.4181C261.555 26.3011 261.85 26.1257 262.096 25.8918C262.341 25.6579 262.528 25.3714 262.657 25.0322L266.113 25.2603C265.938 26.0906 265.578 26.8157 265.034 27.4355C264.496 28.0495 263.8 28.529 262.947 28.874C262.099 29.2132 261.119 29.3828 260.008 29.3828ZM273.595 29.3389C272.572 29.3389 271.645 29.0758 270.814 28.5495C269.99 28.0174 269.335 27.2367 268.85 26.2076C268.37 25.1725 268.13 23.9036 268.13 22.4008C268.13 20.8571 268.379 19.5735 268.876 18.5502C269.373 17.521 270.034 16.7521 270.858 16.2434C271.689 15.7288 272.598 15.4715 273.586 15.4715C274.341 15.4715 274.969 15.6001 275.472 15.8574C275.981 16.1089 276.39 16.4246 276.7 16.8047C277.016 17.179 277.256 17.5474 277.419 17.9099H277.533V11.156H281.261V29.1196H277.577V26.9619H277.419C277.244 27.3361 276.995 27.7074 276.674 28.0758C276.358 28.4384 275.946 28.7395 275.437 28.9793C274.934 29.219 274.32 29.3389 273.595 29.3389ZM274.779 26.3654C275.381 26.3654 275.89 26.2017 276.305 25.8742C276.726 25.5409 277.048 25.0761 277.27 24.4796C277.498 23.8832 277.612 23.1844 277.612 22.3833C277.612 21.5822 277.501 20.8863 277.279 20.2957C277.057 19.7051 276.735 19.249 276.314 18.9274C275.893 18.6058 275.381 18.4449 274.779 18.4449C274.165 18.4449 273.648 18.6116 273.227 18.9449C272.806 19.2782 272.487 19.7402 272.27 20.3308C272.054 20.9214 271.946 21.6055 271.946 22.3833C271.946 23.1668 272.054 23.8598 272.27 24.4621C272.493 25.0585 272.811 25.5263 273.227 25.8655C273.648 26.1988 274.165 26.3654 274.779 26.3654Z" fill="#9493F8"/>
</svg>
