<svg width="307" height="128" viewBox="0 0 307 128" fill="none" xmlns="http://www.w3.org/2000/svg">
<rect width="307" height="128" rx="15" fill="#9691FF"/>
<path d="M99.196 57V26.5927H107.451V50.3484H119.745V57H99.196ZM130.98 57H122.072L132.109 26.5927H143.393L153.429 57H144.521L137.87 34.9666H137.632L130.98 57ZM129.317 45.0034H146.065V51.1799H129.317V45.0034ZM171.565 36.095C171.486 35.1052 171.115 34.3331 170.452 33.7788C169.799 33.2245 168.804 32.9474 167.468 32.9474C166.616 32.9474 165.919 33.0513 165.374 33.2592C164.84 33.4571 164.444 33.7293 164.186 34.0758C163.929 34.4222 163.795 34.8181 163.785 35.2635C163.766 35.6298 163.83 35.9614 163.978 36.2583C164.137 36.5454 164.384 36.8077 164.721 37.0452C165.057 37.2729 165.488 37.4807 166.013 37.6688C166.537 37.8569 167.161 38.0251 167.883 38.1736L170.378 38.7081C172.06 39.0645 173.501 39.5346 174.698 40.1186C175.896 40.7026 176.876 41.3905 177.638 42.1824C178.4 42.9644 178.959 43.8453 179.316 44.8252C179.682 45.8051 179.87 46.8741 179.88 48.0322C179.87 50.0317 179.37 51.7243 178.38 53.11C177.391 54.4958 175.975 55.5499 174.134 56.2725C172.303 56.9951 170.101 57.3563 167.527 57.3563C164.884 57.3563 162.578 56.9654 160.608 56.1834C158.648 55.4014 157.124 54.1988 156.035 52.5755C154.956 50.9423 154.412 48.8538 154.402 46.3099H162.241C162.291 47.2404 162.523 48.0223 162.939 48.6558C163.355 49.2893 163.939 49.7694 164.691 50.096C165.453 50.4226 166.359 50.586 167.408 50.586C168.289 50.586 169.027 50.4771 169.62 50.2593C170.214 50.0416 170.665 49.7397 170.972 49.3536C171.278 48.9676 171.437 48.5271 171.447 48.0322C171.437 47.567 171.283 47.1612 170.986 46.8148C170.699 46.4584 170.224 46.1417 169.561 45.8645C168.898 45.5775 168.002 45.3102 166.874 45.0628L163.845 44.4095C161.153 43.8255 159.029 42.8505 157.475 41.4846C155.931 40.1087 155.164 38.233 155.174 35.8574C155.164 33.9273 155.679 32.2396 156.718 30.7945C157.767 29.3395 159.217 28.2061 161.068 27.3945C162.929 26.5828 165.062 26.177 167.468 26.177C169.922 26.177 172.046 26.5878 173.837 27.4093C175.629 28.2309 177.009 29.389 177.979 30.8836C178.959 32.3683 179.454 34.1055 179.464 36.095H171.565ZM182.189 33.2443V26.5927H208.617V33.2443H199.471V57H191.335V33.2443H182.189ZM74.208 70.5927H84.4823L91.5496 87.8156H91.906L98.9733 70.5927H109.248V101H101.171V83.4208H100.933L94.1628 100.762H89.2928L82.5225 83.302H82.2849V101H74.208V70.5927ZM142.617 85.7964C142.617 89.1815 141.959 92.0372 140.642 94.3633C139.326 96.6794 137.549 98.4364 135.312 99.634C133.075 100.822 130.581 101.416 127.829 101.416C125.058 101.416 122.553 100.817 120.316 99.6192C118.089 98.4116 116.317 96.6497 115.001 94.3336C113.694 92.0075 113.041 89.1618 113.041 85.7964C113.041 82.4112 113.694 79.5605 115.001 77.2443C116.317 74.9182 118.089 73.1613 120.316 71.9735C122.553 70.7758 125.058 70.177 127.829 70.177C130.581 70.177 133.075 70.7758 135.312 71.9735C137.549 73.1613 139.326 74.9182 140.642 77.2443C141.959 79.5605 142.617 82.4112 142.617 85.7964ZM134.124 85.7964C134.124 83.9751 133.882 82.4409 133.397 81.1937C132.922 79.9366 132.214 78.9864 131.274 78.343C130.343 77.6897 129.195 77.3631 127.829 77.3631C126.463 77.3631 125.31 77.6897 124.37 78.343C123.439 78.9864 122.731 79.9366 122.246 81.1937C121.771 82.4409 121.534 83.9751 121.534 85.7964C121.534 87.6176 121.771 89.1568 122.246 90.4139C122.731 91.661 123.439 92.6113 124.37 93.2646C125.31 93.9079 126.463 94.2296 127.829 94.2296C129.195 94.2296 130.343 93.9079 131.274 93.2646C132.214 92.6113 132.922 91.661 133.397 90.4139C133.882 89.1568 134.124 87.6176 134.124 85.7964ZM172.746 70.5927V101H165.857L154.87 85.0243H154.691V101H146.436V70.5927H153.444L164.253 86.509H164.491V70.5927H172.746ZM175.819 77.2443V70.5927H202.247V77.2443H193.101V101H184.965V77.2443H175.819ZM205.354 101V70.5927H213.609V82.4706H224.537V70.5927H232.792V101H224.537V89.1222H213.609V101H205.354Z" fill="white"/>
</svg>
