<svg width="232" height="231" viewBox="0 0 232 231" fill="none" xmlns="http://www.w3.org/2000/svg">
<rect x="0.900879" y="0.0224609" width="230.77" height="230.767" rx="15" fill="#9493F8"/>
<path d="M116.286 28.9243C131.245 28.9243 144.826 34.9028 154.759 44.604L155.23 45.0688C165.205 55.0301 171.374 68.8018 171.374 84.0103C171.374 91.1621 169.075 99.6048 165.351 108.601C161.862 117.03 157.13 125.923 151.898 134.662L150.845 136.408C141.113 152.425 129.88 167.781 121.865 178.488L118.64 182.78L116.281 185.912L113.932 182.793C106.195 172.52 93.7007 155.859 82.7788 138.126L81.7261 136.408C76.0769 127.111 70.9421 117.592 67.2202 108.601C63.4962 99.6048 61.1978 91.1621 61.1978 84.0103C61.1978 69.0394 67.1758 55.4605 76.8706 45.5317L77.3354 45.062C87.3147 35.094 101.089 28.9244 116.286 28.9243ZM116.286 34.8345C103.122 34.8345 91.1674 39.9971 82.353 48.4019L81.5103 49.2251C72.6141 58.1325 67.1079 70.4306 67.1079 84.0103C67.1079 90.6057 69.3361 98.5186 72.896 106.98C76.2359 114.918 80.7592 123.366 85.7524 131.699L86.7573 133.363C96.5411 149.466 108.012 165.077 116.01 175.743L116.291 176.117L116.571 175.743C124.304 165.43 135.288 150.486 144.89 134.875L145.815 133.363C151.204 124.494 156.113 115.447 159.675 106.98C163.235 98.5185 165.463 90.6057 165.463 84.0103C165.463 70.8551 160.297 58.9028 151.886 50.0806L151.062 49.2368C142.174 40.3357 129.874 34.8345 116.286 34.8345ZM116.284 48.7212C125.717 48.7212 134.295 52.4301 140.628 58.4683L141.234 59.0601C147.62 65.4466 151.573 74.2677 151.573 84.0103C151.573 93.7527 147.62 102.576 141.234 108.962C134.847 115.349 126.026 119.301 116.284 119.301C106.846 119.301 98.2719 115.592 91.939 109.554L91.3335 108.962C84.9471 102.576 80.9946 93.7527 80.9946 84.0103C80.9946 74.5722 84.7035 65.9985 90.7417 59.6655L91.3335 59.0601C97.72 52.6735 106.541 48.7212 116.284 48.7212ZM116.284 54.6313C108.17 54.6313 100.821 57.9223 95.5083 63.2349C90.1957 68.5475 86.9048 75.8965 86.9048 84.0103C86.9048 92.1261 90.1958 99.475 95.5083 104.788C100.821 110.1 108.17 113.391 116.284 113.391C124.397 113.391 131.746 110.1 137.059 104.788C142.372 99.475 145.663 92.1261 145.663 84.0103C145.663 75.8966 142.372 68.5475 137.059 63.2349C131.746 57.9223 124.397 54.6313 116.284 54.6313Z" fill="white" stroke="#9493F8" stroke-width="0.7"/>
<path d="M116.283 200.869C121.604 200.869 126.45 200.465 129.976 199.814C133.914 199.087 136.354 197.888 136.354 196.391C136.354 194.897 133.914 193.695 129.976 192.968C126.45 192.317 121.604 191.913 116.283 191.913C110.962 191.913 106.116 192.317 102.591 192.968C98.6523 193.695 96.2148 194.897 96.2148 196.391C96.2148 197.885 98.6546 199.087 102.591 199.814C106.116 200.465 110.962 200.869 116.283 200.869Z" fill="white"/>
</svg>
