<svg width="1283" height="90" viewBox="0 0 1283 90" fill="none" xmlns="http://www.w3.org/2000/svg">
<path d="M32.0519 24.5305H42.6352L53.8131 51.8013H54.2887L65.4666 24.5305H76.0499V65.1196H67.7259V38.701H67.389L56.885 64.9214H51.2168L40.7128 38.6019H40.3759V65.1196H32.0519V24.5305ZM89.5582 65.1196H80.3623L94.3742 24.5305H105.433L119.425 65.1196H110.229L100.062 33.8058H99.7451L89.5582 65.1196ZM88.9835 49.1654H110.705V55.8642H88.9835V49.1654ZM131.799 24.5305L139.984 38.3641H140.301L148.526 24.5305H158.218L145.831 44.8251L158.495 65.1196H148.625L140.301 51.2662H139.984L131.66 65.1196H121.83L134.534 44.8251L122.068 24.5305H131.799ZM209.399 24.5305V65.1196H201.986L184.328 39.5731H184.03V65.1196H175.449V24.5305H182.98L200.5 50.0573H200.857V24.5305H209.399ZM241.002 24.5305H249.583V50.8897C249.583 53.8493 248.876 56.439 247.462 58.6587C246.062 60.8784 244.1 62.6092 241.576 63.8512C239.053 65.08 236.113 65.6944 232.757 65.6944C229.388 65.6944 226.441 65.08 223.918 63.8512C221.394 62.6092 219.432 60.8784 218.031 58.6587C216.631 56.439 215.931 53.8493 215.931 50.8897V24.5305H224.512V50.1564C224.512 51.7022 224.849 53.0763 225.523 54.2787C226.21 55.481 227.175 56.4257 228.417 57.1128C229.659 57.7999 231.105 58.1434 232.757 58.1434C234.422 58.1434 235.868 57.7999 237.097 57.1128C238.339 56.4257 239.297 55.481 239.971 54.2787C240.658 53.0763 241.002 51.7022 241.002 50.1564V24.5305ZM256.085 24.5305H266.669L277.847 51.8013H278.322L289.5 24.5305H300.083V65.1196H291.759V38.701H291.423L280.919 64.9214H275.25L264.746 38.6019H264.409V65.1196H256.085V24.5305ZM306.596 65.1196V24.5305H322.847C325.833 24.5305 328.324 24.9732 330.319 25.8584C332.314 26.7436 333.814 27.9724 334.818 29.5447C335.822 31.1038 336.324 32.9007 336.324 34.9355C336.324 36.521 336.007 37.9149 335.373 39.1172C334.739 40.3064 333.867 41.2841 332.757 42.0504C331.66 42.8036 330.405 43.3387 328.991 43.6558V44.0521C330.537 44.1182 331.984 44.5542 333.331 45.3602C334.692 46.1662 335.796 47.2958 336.641 48.7492C337.487 50.1894 337.91 51.907 337.91 53.9021C337.91 56.0558 337.374 57.9782 336.304 59.6694C335.247 61.3474 333.682 62.6753 331.607 63.653C329.533 64.6308 326.976 65.1196 323.937 65.1196H306.596ZM315.177 58.1037H322.173C324.565 58.1037 326.309 57.6479 327.406 56.7362C328.502 55.8114 329.051 54.5826 329.051 53.0499C329.051 51.9269 328.78 50.9359 328.238 50.0771C327.696 49.2183 326.923 48.5444 325.919 48.0556C324.928 47.5667 323.746 47.3223 322.372 47.3223H315.177V58.1037ZM315.177 41.5153H321.539C322.715 41.5153 323.759 41.3105 324.671 40.9009C325.595 40.4781 326.322 39.8836 326.851 39.1172C327.392 38.3509 327.663 37.4326 327.663 36.3624C327.663 34.8958 327.141 33.7133 326.098 32.8148C325.067 31.9164 323.6 31.4671 321.698 31.4671H315.177V41.5153ZM342.935 65.1196V24.5305H370.286V31.6059H351.517V41.2775H368.878V48.3528H351.517V58.0443H370.365V65.1196H342.935ZM376.55 65.1196V24.5305H392.564C395.629 24.5305 398.245 25.0789 400.412 26.1755C402.592 27.2589 404.25 28.7982 405.387 30.7933C406.536 32.7752 407.111 35.1072 407.111 37.7894C407.111 40.4847 406.529 42.8036 405.367 44.7458C404.204 46.6748 402.519 48.1547 400.313 49.1852C398.12 50.2158 395.464 50.7311 392.346 50.7311H381.624V43.8341H390.958C392.597 43.8341 393.958 43.6095 395.041 43.1603C396.125 42.7111 396.931 42.0372 397.459 41.1388C398.001 40.2403 398.272 39.1238 398.272 37.7894C398.272 36.4417 398.001 35.3054 397.459 34.3805C396.931 33.4556 396.118 32.7554 395.021 32.2797C393.938 31.7909 392.57 31.5464 390.919 31.5464H385.132V65.1196H376.55ZM398.47 46.6484L408.558 65.1196H399.084L389.214 46.6484H398.47ZM462.275 44.8251C462.275 49.2513 461.436 53.0169 459.758 56.1219C458.094 59.2268 455.821 61.5985 452.941 63.2368C450.073 64.862 446.85 65.6746 443.269 65.6746C439.662 65.6746 436.425 64.8554 433.558 63.217C430.691 61.5787 428.425 59.207 426.76 56.102C425.095 52.9971 424.263 49.2381 424.263 44.8251C424.263 40.3989 425.095 36.6333 426.76 33.5283C428.425 30.4234 430.691 28.0583 433.558 26.4332C436.425 24.7948 439.662 23.9756 443.269 23.9756C446.85 23.9756 450.073 24.7948 452.941 26.4332C455.821 28.0583 458.094 30.4234 459.758 33.5283C461.436 36.6333 462.275 40.3989 462.275 44.8251ZM453.575 44.8251C453.575 41.9579 453.145 39.54 452.287 37.5714C451.441 35.6027 450.245 34.1097 448.699 33.0923C447.153 32.0749 445.343 31.5662 443.269 31.5662C441.195 31.5662 439.384 32.0749 437.839 33.0923C436.293 34.1097 435.09 35.6027 434.232 37.5714C433.386 39.54 432.963 41.9579 432.963 44.8251C432.963 47.6922 433.386 50.1101 434.232 52.0788C435.09 54.0475 436.293 55.5405 437.839 56.5579C439.384 57.5752 441.195 58.0839 443.269 58.0839C445.343 58.0839 447.153 57.5752 448.699 56.5579C450.245 55.5405 451.441 54.0475 452.287 52.0788C453.145 50.1101 453.575 47.6922 453.575 44.8251ZM468.074 65.1196V24.5305H494.949V31.6059H476.656V41.2775H493.165V48.3528H476.656V65.1196H468.074ZM512.522 65.1196V24.5305H528.535C531.601 24.5305 534.217 25.0789 536.383 26.1755C538.564 27.2589 540.222 28.7982 541.358 30.7933C542.508 32.7752 543.082 35.1072 543.082 37.7894C543.082 40.4847 542.501 42.8036 541.338 44.7458C540.176 46.6748 538.491 48.1547 536.284 49.1852C534.091 50.2158 531.435 50.7311 528.317 50.7311H517.595V43.8341H526.93C528.568 43.8341 529.929 43.6095 531.013 43.1603C532.096 42.7111 532.902 42.0372 533.43 41.1388C533.972 40.2403 534.243 39.1238 534.243 37.7894C534.243 36.4417 533.972 35.3054 533.43 34.3805C532.902 33.4556 532.089 32.7554 530.993 32.2797C529.909 31.7909 528.542 31.5464 526.89 31.5464H521.103V65.1196H512.522ZM534.441 46.6484L544.529 65.1196H535.056L525.186 46.6484H534.441ZM548.589 65.1196V24.5305H575.939V31.6059H557.17V41.2775H574.532V48.3528H557.17V58.0443H576.018V65.1196H548.589ZM618.016 38.7407H609.335C609.177 37.6176 608.853 36.6201 608.364 35.748C607.875 34.8628 607.248 34.1097 606.482 33.4887C605.715 32.8677 604.83 32.392 603.826 32.0617C602.835 31.7314 601.758 31.5662 600.595 31.5662C598.494 31.5662 596.665 32.0881 595.105 33.1319C593.546 34.1625 592.337 35.6688 591.479 37.6506C590.62 39.6193 590.19 42.0108 590.19 44.8251C590.19 47.7186 590.62 50.1498 591.479 52.1184C592.351 54.0871 593.566 55.5735 595.125 56.5777C596.684 57.5818 598.488 58.0839 600.536 58.0839C601.685 58.0839 602.749 57.932 603.727 57.6281C604.718 57.3242 605.596 56.8816 606.363 56.3002C607.129 55.7057 607.763 54.9856 608.265 54.14C608.78 53.2944 609.137 52.3298 609.335 51.2464L618.016 51.286C617.791 53.149 617.23 54.9459 616.331 56.6768C615.446 58.3944 614.251 59.9337 612.744 61.2946C611.251 62.6423 609.468 63.7125 607.393 64.5052C605.332 65.2848 603 65.6746 600.397 65.6746C596.777 65.6746 593.54 64.8554 590.686 63.217C587.845 61.5787 585.599 59.207 583.947 56.102C582.309 52.9971 581.49 49.2381 581.49 44.8251C581.49 40.3989 582.322 36.6333 583.987 33.5283C585.652 30.4234 587.911 28.0583 590.765 26.4332C593.619 24.7948 596.83 23.9756 600.397 23.9756C602.749 23.9756 604.929 24.3059 606.937 24.9666C608.959 25.6272 610.749 26.5917 612.308 27.8601C613.867 29.1153 615.136 30.6546 616.113 32.4779C617.104 34.3012 617.739 36.3888 618.016 38.7407ZM621.234 24.5305H630.846L640.101 42.0108H640.498L649.753 24.5305H659.365L644.56 50.7708V65.1196H636.038V50.7708L621.234 24.5305ZM696.854 38.7407H688.174C688.015 37.6176 687.691 36.6201 687.202 35.748C686.714 34.8628 686.086 34.1097 685.32 33.4887C684.553 32.8677 683.668 32.392 682.664 32.0617C681.673 31.7314 680.596 31.5662 679.433 31.5662C677.333 31.5662 675.503 32.0881 673.944 33.1319C672.385 34.1625 671.176 35.6688 670.317 37.6506C669.458 39.6193 669.029 42.0108 669.029 44.8251C669.029 47.7186 669.458 50.1498 670.317 52.1184C671.189 54.0871 672.404 55.5735 673.963 56.5777C675.523 57.5818 677.326 58.0839 679.374 58.0839C680.524 58.0839 681.587 57.932 682.565 57.6281C683.556 57.3242 684.434 56.8816 685.201 56.3002C685.967 55.7057 686.601 54.9856 687.103 54.14C687.619 53.2944 687.975 52.3298 688.174 51.2464L696.854 51.286C696.63 53.149 696.068 54.9459 695.17 56.6768C694.284 58.3944 693.089 59.9337 691.582 61.2946C690.089 62.6423 688.306 63.7125 686.231 64.5052C684.17 65.2848 681.838 65.6746 679.235 65.6746C675.615 65.6746 672.378 64.8554 669.524 63.217C666.683 61.5787 664.437 59.207 662.786 56.102C661.147 52.9971 660.328 49.2381 660.328 44.8251C660.328 40.3989 661.16 36.6333 662.825 33.5283C664.49 30.4234 666.749 28.0583 669.603 26.4332C672.457 24.7948 675.668 23.9756 679.235 23.9756C681.587 23.9756 683.767 24.3059 685.776 24.9666C687.797 25.6272 689.587 26.5917 691.146 27.8601C692.706 29.1153 693.974 30.6546 694.952 32.4779C695.943 34.3012 696.577 36.3888 696.854 38.7407ZM702.45 65.1196V24.5305H711.032V58.0443H728.433V65.1196H702.45ZM741.589 65.1196H732.393L746.405 24.5305H757.464L771.456 65.1196H762.26L752.093 33.8058H751.776L741.589 65.1196ZM741.014 49.1654H762.736V55.8642H741.014V49.1654ZM775.783 65.1196V24.5305H792.035C795.021 24.5305 797.512 24.9732 799.507 25.8584C801.502 26.7436 803.001 27.9724 804.006 29.5447C805.01 31.1038 805.512 32.9007 805.512 34.9355C805.512 36.521 805.195 37.9149 804.56 39.1172C803.926 40.3064 803.054 41.2841 801.944 42.0504C800.848 42.8036 799.593 43.3387 798.179 43.6558V44.0521C799.725 44.1182 801.171 44.5542 802.519 45.3602C803.88 46.1662 804.983 47.2958 805.829 48.7492C806.674 50.1894 807.097 51.907 807.097 53.9021C807.097 56.0558 806.562 57.9782 805.492 59.6694C804.435 61.3474 802.869 62.6753 800.795 63.653C798.721 64.6308 796.164 65.1196 793.125 65.1196H775.783ZM784.365 58.1037H791.361C793.753 58.1037 795.497 57.6479 796.593 56.7362C797.69 55.8114 798.238 54.5826 798.238 53.0499C798.238 51.9269 797.967 50.9359 797.426 50.0771C796.884 49.2183 796.111 48.5444 795.107 48.0556C794.116 47.5667 792.933 47.3223 791.559 47.3223H784.365V58.1037ZM784.365 41.5153H790.727C791.903 41.5153 792.947 41.3105 793.858 40.9009C794.783 40.4781 795.51 39.8836 796.038 39.1172C796.58 38.3509 796.851 37.4326 796.851 36.3624C796.851 34.8958 796.329 33.7133 795.285 32.8148C794.255 31.9164 792.788 31.4671 790.885 31.4671H784.365V41.5153ZM812.123 65.1196V24.5305H820.705V58.0443H838.106V65.1196H812.123ZM843.231 65.1196V24.5305H870.581V31.6059H851.812V41.2775H869.174V48.3528H851.812V58.0443H870.66V65.1196H843.231ZM898.864 36.2039C898.706 34.6051 898.025 33.3632 896.823 32.4779C895.62 31.5927 893.989 31.15 891.928 31.15C890.527 31.15 889.344 31.3482 888.38 31.7446C887.415 32.1278 886.675 32.6629 886.16 33.3499C885.658 34.037 885.407 34.8165 885.407 35.6886C885.381 36.4153 885.533 37.0495 885.863 37.5912C886.206 38.1329 886.675 38.602 887.27 38.9983C887.865 39.3815 888.552 39.7184 889.331 40.0091C890.111 40.2866 890.943 40.5244 891.828 40.7226L895.475 41.5946C897.246 41.991 898.871 42.5195 900.351 43.1801C901.83 43.8407 903.112 44.6533 904.195 45.6178C905.279 46.5824 906.118 47.7186 906.712 49.0267C907.32 50.3347 907.631 51.8344 907.644 53.5256C907.631 56.0095 906.996 58.1632 905.741 59.9865C904.499 61.7967 902.702 63.2038 900.351 64.208C898.012 65.1989 895.191 65.6944 891.888 65.6944C888.611 65.6944 885.757 65.1923 883.326 64.1881C880.908 63.184 879.019 61.6976 877.658 59.7289C876.31 57.747 875.603 55.2961 875.537 52.3761H883.841C883.934 53.737 884.324 54.8733 885.011 55.7849C885.711 56.6834 886.642 57.3638 887.805 57.8263C888.981 58.2755 890.309 58.5001 891.789 58.5001C893.242 58.5001 894.504 58.2887 895.574 57.8659C896.658 57.4431 897.497 56.8552 898.091 56.102C898.686 55.3489 898.983 54.4835 898.983 53.5058C898.983 52.5941 898.712 51.8278 898.17 51.2068C897.642 50.5858 896.862 50.0573 895.832 49.6213C894.814 49.1852 893.566 48.7889 892.086 48.4321L887.666 47.3223C884.244 46.4899 881.542 45.1884 879.561 43.4179C877.579 41.6475 876.594 39.2626 876.608 36.2633C876.594 33.8058 877.248 31.6587 878.57 29.8222C879.904 27.9856 881.734 26.5521 884.059 25.5215C886.385 24.4909 889.027 23.9756 891.987 23.9756C894.999 23.9756 897.629 24.4909 899.875 25.5215C902.134 26.5521 903.892 27.9856 905.147 29.8222C906.402 31.6587 907.049 33.786 907.089 36.2039H898.864ZM961.03 38.7407H952.349C952.19 37.6176 951.867 36.6201 951.378 35.748C950.889 34.8628 950.261 34.1097 949.495 33.4887C948.729 32.8677 947.843 32.392 946.839 32.0617C945.848 31.7314 944.772 31.5662 943.609 31.5662C941.508 31.5662 939.678 32.0881 938.119 33.1319C936.56 34.1625 935.351 35.6688 934.492 37.6506C933.633 39.6193 933.204 42.0108 933.204 44.8251C933.204 47.7186 933.633 50.1498 934.492 52.1184C935.364 54.0871 936.58 55.5735 938.139 56.5777C939.698 57.5818 941.501 58.0839 943.549 58.0839C944.699 58.0839 945.762 57.932 946.74 57.6281C947.731 57.3242 948.61 56.8816 949.376 56.3002C950.142 55.7057 950.777 54.9856 951.279 54.14C951.794 53.2944 952.151 52.3298 952.349 51.2464L961.03 51.286C960.805 53.149 960.244 54.9459 959.345 56.6768C958.46 58.3944 957.264 59.9337 955.758 61.2946C954.265 62.6423 952.481 63.7125 950.407 64.5052C948.346 65.2848 946.014 65.6746 943.411 65.6746C939.79 65.6746 936.553 64.8554 933.699 63.217C930.859 61.5787 928.613 59.207 926.961 56.102C925.323 52.9971 924.503 49.2381 924.503 44.8251C924.503 40.3989 925.336 36.6333 927.001 33.5283C928.665 30.4234 930.925 28.0583 933.779 26.4332C936.633 24.7948 939.843 23.9756 943.411 23.9756C945.762 23.9756 947.943 24.3059 949.951 24.9666C951.972 25.6272 953.763 26.5917 955.322 27.8601C956.881 29.1153 958.149 30.6546 959.127 32.4779C960.118 34.3012 960.752 36.3888 961.03 38.7407ZM1003.92 44.8251C1003.92 49.2513 1003.09 53.0169 1001.41 56.1219C999.743 59.2268 997.47 61.5985 994.59 63.2368C991.723 64.862 988.499 65.6746 984.918 65.6746C981.311 65.6746 978.074 64.8554 975.207 63.217C972.34 61.5787 970.074 59.207 968.409 56.102C966.744 52.9971 965.912 49.2381 965.912 44.8251C965.912 40.3989 966.744 36.6333 968.409 33.5283C970.074 30.4234 972.34 28.0583 975.207 26.4332C978.074 24.7948 981.311 23.9756 984.918 23.9756C988.499 23.9756 991.723 24.7948 994.59 26.4332C997.47 28.0583 999.743 30.4234 1001.41 33.5283C1003.09 36.6333 1003.92 40.3989 1003.92 44.8251ZM995.224 44.8251C995.224 41.9579 994.795 39.54 993.936 37.5714C993.09 35.6027 991.894 34.1097 990.349 33.0923C988.803 32.0749 986.993 31.5662 984.918 31.5662C982.844 31.5662 981.034 32.0749 979.488 33.0923C977.942 34.1097 976.74 35.6027 975.881 37.5714C975.035 39.54 974.612 41.9579 974.612 44.8251C974.612 47.6922 975.035 50.1101 975.881 52.0788C976.74 54.0475 977.942 55.5405 979.488 56.5579C981.034 57.5752 982.844 58.0839 984.918 58.0839C986.993 58.0839 988.803 57.5752 990.349 56.5579C991.894 55.5405 993.09 54.0475 993.936 52.0788C994.795 50.1101 995.224 47.6922 995.224 44.8251ZM1009.72 65.1196V24.5305H1018.3V58.0443H1035.71V65.1196H1009.72ZM1040.83 65.1196V24.5305H1049.41V58.0443H1066.81V65.1196H1040.83ZM1071.94 65.1196V24.5305H1099.29V31.6059H1080.52V41.2775H1097.88V48.3528H1080.52V58.0443H1099.37V65.1196H1071.94ZM1141.37 38.7407H1132.68C1132.53 37.6176 1132.2 36.6201 1131.71 35.748C1131.22 34.8628 1130.6 34.1097 1129.83 33.4887C1129.06 32.8677 1128.18 32.392 1127.18 32.0617C1126.18 31.7314 1125.11 31.5662 1123.94 31.5662C1121.84 31.5662 1120.01 32.0881 1118.46 33.1319C1116.9 34.1625 1115.69 35.6688 1114.83 37.6506C1113.97 39.6193 1113.54 42.0108 1113.54 44.8251C1113.54 47.7186 1113.97 50.1498 1114.83 52.1184C1115.7 54.0871 1116.92 55.5735 1118.47 56.5777C1120.03 57.5818 1121.84 58.0839 1123.89 58.0839C1125.03 58.0839 1126.1 57.932 1127.08 57.6281C1128.07 57.3242 1128.95 56.8816 1129.71 56.3002C1130.48 55.7057 1131.11 54.9856 1131.61 54.14C1132.13 53.2944 1132.49 52.3298 1132.68 51.2464L1141.37 51.286C1141.14 53.149 1140.58 54.9459 1139.68 56.6768C1138.8 58.3944 1137.6 59.9337 1136.09 61.2946C1134.6 62.6423 1132.82 63.7125 1130.74 64.5052C1128.68 65.2848 1126.35 65.6746 1123.75 65.6746C1120.13 65.6746 1116.89 64.8554 1114.04 63.217C1111.19 61.5787 1108.95 59.207 1107.3 56.102C1105.66 52.9971 1104.84 49.2381 1104.84 44.8251C1104.84 40.3989 1105.67 36.6333 1107.34 33.5283C1109 30.4234 1111.26 28.0583 1114.11 26.4332C1116.97 24.7948 1120.18 23.9756 1123.75 23.9756C1126.1 23.9756 1128.28 24.3059 1130.29 24.9666C1132.31 25.6272 1134.1 26.5917 1135.66 27.8601C1137.22 29.1153 1138.49 30.6546 1139.46 32.4779C1140.45 34.3012 1141.09 36.3888 1141.37 38.7407ZM1145.42 31.6059V24.5305H1178.75V31.6059H1166.32V65.1196H1157.84V31.6059H1145.42ZM1183.68 65.1196V24.5305H1211.03V31.6059H1192.26V41.2775H1209.63V48.3528H1192.26V58.0443H1211.11V65.1196H1183.68ZM1231.69 65.1196H1217.3V24.5305H1231.8C1235.89 24.5305 1239.4 25.3431 1242.35 26.9683C1245.29 28.5802 1247.56 30.899 1249.15 33.9247C1250.74 36.9504 1251.54 40.5706 1251.54 44.7854C1251.54 49.0135 1250.74 52.6469 1249.15 55.6858C1247.56 58.7247 1245.28 61.0568 1242.31 62.6819C1239.35 64.3071 1235.81 65.1196 1231.69 65.1196ZM1225.88 57.7668H1231.33C1233.87 57.7668 1236 57.3176 1237.73 56.4191C1239.47 55.5075 1240.78 54.1003 1241.65 52.1977C1242.54 50.2819 1242.98 47.8111 1242.98 44.7854C1242.98 41.7862 1242.54 39.3352 1241.65 37.4326C1240.78 35.53 1239.48 34.1295 1237.75 33.231C1236.02 32.3326 1233.89 31.8833 1231.35 31.8833H1225.88V57.7668Z" fill="#9493F8"/>
</svg>
