<svg width="1265" height="89" viewBox="0 0 1265 89" fill="none" xmlns="http://www.w3.org/2000/svg">
<path d="M3.66643 24.4109H14.2497L25.4276 51.6817H25.9032L37.0811 24.4109H47.6644V65H39.3404V38.5814H39.0035L28.4995 64.8018H22.8313L12.3273 38.4823H11.9904V65H3.66643V24.4109ZM61.1727 65H51.9768L65.9887 24.4109H77.0477L91.0398 65H81.8438L71.6767 33.6861H71.3596L61.1727 65ZM60.598 49.0458H82.3195V55.7446H60.598V49.0458ZM103.414 24.4109L111.599 38.2445H111.916L120.141 24.4109H129.832L117.445 44.7055L130.11 65H120.24L111.916 51.1466H111.599L103.275 65H93.4446L106.149 44.7055L93.6825 24.4109H103.414ZM181.013 24.4109V65H173.601L155.942 39.4534H155.645V65H147.063V24.4109H154.594L172.114 49.9376H172.471V24.4109H181.013ZM212.616 24.4109H221.198V50.77C221.198 53.7297 220.491 56.3193 219.077 58.539C217.676 60.7588 215.714 62.4896 213.191 63.7316C210.667 64.9604 207.727 65.5747 204.371 65.5747C201.002 65.5747 198.056 64.9604 195.532 63.7316C193.009 62.4896 191.046 60.7588 189.646 58.539C188.245 56.3193 187.545 53.7297 187.545 50.77V24.4109H196.127V50.0367C196.127 51.5826 196.464 52.9567 197.137 54.1591C197.825 55.3614 198.789 56.3061 200.031 56.9932C201.273 57.6802 202.72 58.0237 204.371 58.0237C206.036 58.0237 207.483 57.6802 208.712 56.9932C209.954 56.3061 210.912 55.3614 211.585 54.1591C212.273 52.9567 212.616 51.5826 212.616 50.0367V24.4109ZM227.7 24.4109H238.283L249.461 51.6817H249.937L261.115 24.4109H271.698V65H263.374V38.5814H263.037L252.533 64.8018H246.865L236.361 38.4823H236.024V65H227.7V24.4109ZM278.21 65V24.4109H294.462C297.448 24.4109 299.938 24.8535 301.933 25.7388C303.929 26.624 305.428 27.8528 306.432 29.4251C307.436 30.9842 307.939 32.7811 307.939 34.8158C307.939 36.4013 307.621 37.7953 306.987 38.9976C306.353 40.1867 305.481 41.1645 304.371 41.9308C303.275 42.6839 302.019 43.219 300.606 43.5361V43.9325C302.151 43.9986 303.598 44.4346 304.946 45.2406C306.307 46.0465 307.41 47.1762 308.256 48.6296C309.101 50.0698 309.524 51.7874 309.524 53.7825C309.524 55.9362 308.989 57.8586 307.919 59.5498C306.862 61.2278 305.296 62.5557 303.222 63.5334C301.147 64.5111 298.591 65 295.552 65H278.21ZM286.792 57.9841H293.788C296.179 57.9841 297.923 57.5283 299.02 56.6166C300.117 55.6917 300.665 54.463 300.665 52.9303C300.665 51.8072 300.394 50.8163 299.852 49.9575C299.311 49.0986 298.538 48.4248 297.534 47.9359C296.543 47.4471 295.36 47.2026 293.986 47.2026H286.792V57.9841ZM286.792 41.3957H293.154C294.33 41.3957 295.373 41.1909 296.285 40.7813C297.21 40.3585 297.937 39.7639 298.465 38.9976C299.007 38.2313 299.278 37.313 299.278 36.2428C299.278 34.7762 298.756 33.5937 297.712 32.6952C296.681 31.7967 295.215 31.3475 293.312 31.3475H286.792V41.3957ZM314.55 65V24.4109H341.9V31.4863H323.132V41.1579H340.493V48.2332H323.132V57.9247H341.979V65H314.55ZM348.165 65V24.4109H364.178C367.244 24.4109 369.86 24.9592 372.027 26.0559C374.207 27.1393 375.865 28.6786 377.001 30.6737C378.151 32.6556 378.725 34.9876 378.725 37.6697C378.725 40.3651 378.144 42.6839 376.981 44.6262C375.819 46.5552 374.134 48.035 371.927 49.0656C369.734 50.0962 367.078 50.6115 363.96 50.6115H353.238V43.7145H362.573C364.211 43.7145 365.572 43.4899 366.656 43.0407C367.739 42.5914 368.545 41.9176 369.074 41.0191C369.615 40.1207 369.886 39.0042 369.886 37.6697C369.886 36.3221 369.615 35.1858 369.074 34.2609C368.545 33.336 367.732 32.6357 366.636 32.1601C365.552 31.6712 364.185 31.4268 362.533 31.4268H356.746V65H348.165ZM370.084 46.5288L380.172 65H370.699L360.829 46.5288H370.084ZM433.89 44.7055C433.89 49.1317 433.051 52.8973 431.373 56.0022C429.708 59.1072 427.435 61.4788 424.555 63.1172C421.688 64.7424 418.464 65.5549 414.883 65.5549C411.276 65.5549 408.039 64.7357 405.172 63.0974C402.305 61.459 400.039 59.0874 398.374 55.9824C396.71 52.8774 395.877 49.1185 395.877 44.7055C395.877 40.2792 396.71 36.5136 398.374 33.4087C400.039 30.3037 402.305 27.9387 405.172 26.3135C408.039 24.6752 411.276 23.856 414.883 23.856C418.464 23.856 421.688 24.6752 424.555 26.3135C427.435 27.9387 429.708 30.3037 431.373 33.4087C433.051 36.5136 433.89 40.2792 433.89 44.7055ZM425.189 44.7055C425.189 41.8383 424.76 39.4204 423.901 37.4517C423.055 35.4831 421.86 33.99 420.314 32.9727C418.768 31.9553 416.958 31.4466 414.883 31.4466C412.809 31.4466 410.999 31.9553 409.453 32.9727C407.907 33.99 406.705 35.4831 405.846 37.4517C405 39.4204 404.578 41.8383 404.578 44.7055C404.578 47.5726 405 49.9905 405.846 51.9592C406.705 53.9278 407.907 55.4209 409.453 56.4382C410.999 57.4556 412.809 57.9643 414.883 57.9643C416.958 57.9643 418.768 57.4556 420.314 56.4382C421.86 55.4209 423.055 53.9278 423.901 51.9592C424.76 49.9905 425.189 47.5726 425.189 44.7055ZM439.689 65V24.4109H466.563V31.4863H448.27V41.1579H464.779V48.2332H448.27V65H439.689ZM484.136 65V24.4109H500.15C503.215 24.4109 505.831 24.9592 507.998 26.0559C510.178 27.1393 511.836 28.6786 512.973 30.6737C514.122 32.6556 514.697 34.9876 514.697 37.6697C514.697 40.3651 514.115 42.6839 512.953 44.6262C511.79 46.5552 510.105 48.035 507.899 49.0656C505.706 50.0962 503.05 50.6115 499.932 50.6115H489.21V43.7145H498.544C500.183 43.7145 501.544 43.4899 502.627 43.0407C503.71 42.5914 504.516 41.9176 505.045 41.0191C505.587 40.1207 505.858 39.0042 505.858 37.6697C505.858 36.3221 505.587 35.1858 505.045 34.2609C504.516 33.336 503.704 32.6357 502.607 32.1601C501.524 31.6712 500.156 31.4268 498.505 31.4268H492.718V65H484.136ZM506.056 46.5288L516.144 65H506.67L496.8 46.5288H506.056ZM520.203 65V24.4109H547.553V31.4863H528.785V41.1579H546.146V48.2332H528.785V57.9247H547.633V65H520.203ZM589.631 38.6211H580.95C580.791 37.498 580.468 36.5004 579.979 35.6284C579.49 34.7432 578.862 33.99 578.096 33.369C577.33 32.7481 576.444 32.2724 575.44 31.9421C574.449 31.6118 573.373 31.4466 572.21 31.4466C570.109 31.4466 568.279 31.9685 566.72 33.0123C565.161 34.0429 563.952 35.5491 563.093 37.531C562.234 39.4997 561.805 41.8912 561.805 44.7055C561.805 47.599 562.234 50.0301 563.093 51.9988C563.965 53.9675 565.181 55.4539 566.74 56.4581C568.299 57.4622 570.102 57.9643 572.15 57.9643C573.3 57.9643 574.363 57.8123 575.341 57.5085C576.332 57.2046 577.211 56.7619 577.977 56.1806C578.743 55.586 579.378 54.8659 579.88 54.0203C580.395 53.1747 580.752 52.2102 580.95 51.1268L589.631 51.1664C589.406 53.0294 588.844 54.8263 587.946 56.5572C587.061 58.2748 585.865 59.8141 584.359 61.175C582.866 62.5226 581.082 63.5929 579.008 64.3856C576.947 65.1652 574.614 65.5549 572.012 65.5549C568.391 65.5549 565.154 64.7357 562.3 63.0974C559.46 61.459 557.214 59.0874 555.562 55.9824C553.924 52.8774 553.104 49.1185 553.104 44.7055C553.104 40.2792 553.937 36.5136 555.602 33.4087C557.266 30.3037 559.526 27.9387 562.38 26.3135C565.234 24.6752 568.444 23.856 572.012 23.856C574.363 23.856 576.544 24.1863 578.552 24.8469C580.573 25.5076 582.364 26.4721 583.923 27.7405C585.482 28.9957 586.75 30.5349 587.728 32.3583C588.719 34.1816 589.353 36.2692 589.631 38.6211ZM592.848 24.4109H602.46L611.716 41.8912H612.112L621.367 24.4109H630.98L616.175 50.6511V65H607.653V50.6511L592.848 24.4109ZM668.469 38.6211H659.788C659.63 37.498 659.306 36.5004 658.817 35.6284C658.328 34.7432 657.701 33.99 656.934 33.369C656.168 32.7481 655.283 32.2724 654.278 31.9421C653.288 31.6118 652.211 31.4466 651.048 31.4466C648.947 31.4466 647.117 31.9685 645.558 33.0123C643.999 34.0429 642.79 35.5491 641.931 37.531C641.072 39.4997 640.643 41.8912 640.643 44.7055C640.643 47.599 641.072 50.0301 641.931 51.9988C642.803 53.9675 644.019 55.4539 645.578 56.4581C647.137 57.4622 648.941 57.9643 650.989 57.9643C652.138 57.9643 653.202 57.8123 654.179 57.5085C655.17 57.2046 656.049 56.7619 656.815 56.1806C657.582 55.586 658.216 54.8659 658.718 54.0203C659.233 53.1747 659.59 52.2102 659.788 51.1268L668.469 51.1664C668.244 53.0294 667.683 54.8263 666.784 56.5572C665.899 58.2748 664.703 59.8141 663.197 61.175C661.704 62.5226 659.92 63.5929 657.846 64.3856C655.785 65.1652 653.453 65.5549 650.85 65.5549C647.23 65.5549 643.992 64.7357 641.139 63.0974C638.298 61.459 636.052 59.0874 634.4 55.9824C632.762 52.8774 631.943 49.1185 631.943 44.7055C631.943 40.2792 632.775 36.5136 634.44 33.4087C636.105 30.3037 638.364 27.9387 641.218 26.3135C644.072 24.6752 647.282 23.856 650.85 23.856C653.202 23.856 655.382 24.1863 657.39 24.8469C659.412 25.5076 661.202 26.4721 662.761 27.7405C664.32 28.9957 665.588 30.5349 666.566 32.3583C667.557 34.1816 668.191 36.2692 668.469 38.6211ZM674.064 65V24.4109H682.646V57.9247H700.047V65H674.064ZM713.204 65H704.008L718.02 24.4109H729.079L743.071 65H733.875L723.708 33.6861H723.39L713.204 65ZM712.629 49.0458H734.35V55.7446H712.629V49.0458ZM747.398 65V24.4109H763.649C766.635 24.4109 769.126 24.8535 771.121 25.7388C773.116 26.624 774.616 27.8528 775.62 29.4251C776.624 30.9842 777.126 32.7811 777.126 34.8158C777.126 36.4013 776.809 37.7953 776.175 38.9976C775.541 40.1867 774.669 41.1645 773.559 41.9308C772.462 42.6839 771.207 43.219 769.793 43.5361V43.9325C771.339 43.9986 772.786 44.4346 774.134 45.2406C775.495 46.0465 776.598 47.1762 777.443 48.6296C778.289 50.0698 778.712 51.7874 778.712 53.7825C778.712 55.9362 778.177 57.8586 777.106 59.5498C776.049 61.2278 774.484 62.5557 772.409 63.5334C770.335 64.5111 767.778 65 764.739 65H747.398ZM755.98 57.9841H762.976C765.367 57.9841 767.111 57.5283 768.208 56.6166C769.304 55.6917 769.853 54.463 769.853 52.9303C769.853 51.8072 769.582 50.8163 769.04 49.9575C768.498 49.0986 767.726 48.4248 766.721 47.9359C765.73 47.4471 764.548 47.2026 763.174 47.2026H755.98V57.9841ZM755.98 41.3957H762.341C763.517 41.3957 764.561 41.1909 765.473 40.7813C766.398 40.3585 767.124 39.7639 767.653 38.9976C768.195 38.2313 768.465 37.313 768.465 36.2428C768.465 34.7762 767.944 33.5937 766.9 32.6952C765.869 31.7967 764.403 31.3475 762.5 31.3475H755.98V41.3957ZM783.738 65V24.4109H792.319V57.9247H809.72V65H783.738ZM814.845 65V24.4109H842.195V31.4863H823.427V41.1579H840.788V48.2332H823.427V57.9247H842.275V65H814.845ZM870.479 36.0842C870.32 34.4855 869.64 33.2435 868.437 32.3583C867.235 31.473 865.603 31.0304 863.542 31.0304C862.141 31.0304 860.959 31.2286 859.994 31.625C859.03 32.0082 858.29 32.5433 857.775 33.2303C857.273 33.9174 857.022 34.6969 857.022 35.5689C856.995 36.2956 857.147 36.9298 857.477 37.4716C857.821 38.0133 858.29 38.4823 858.885 38.8787C859.479 39.2619 860.166 39.5988 860.946 39.8895C861.725 40.1669 862.558 40.4048 863.443 40.6029L867.09 41.475C868.86 41.8714 870.485 42.3999 871.965 43.0605C873.445 43.7211 874.726 44.5337 875.81 45.4982C876.893 46.4627 877.732 47.599 878.327 48.9071C878.935 50.2151 879.245 51.7147 879.258 53.4059C879.245 55.8899 878.611 58.0436 877.356 59.8669C876.114 61.677 874.317 63.0842 871.965 64.0883C869.626 65.0793 866.806 65.5747 863.502 65.5747C860.226 65.5747 857.372 65.0727 854.941 64.0685C852.523 63.0644 850.633 61.5779 849.272 59.6093C847.925 57.6274 847.218 55.1764 847.152 52.2565H855.456C855.548 53.6173 855.938 54.7536 856.625 55.6653C857.325 56.5638 858.257 57.2442 859.42 57.7066C860.596 58.1559 861.923 58.3805 863.403 58.3805C864.857 58.3805 866.118 58.1691 867.189 57.7463C868.272 57.3235 869.111 56.7355 869.706 55.9824C870.3 55.2293 870.598 54.3639 870.598 53.3861C870.598 52.4745 870.327 51.7081 869.785 51.0871C869.256 50.4661 868.477 49.9376 867.446 49.5016C866.429 49.0656 865.18 48.6692 863.701 48.3125L859.281 47.2026C855.859 46.3702 853.157 45.0688 851.175 43.2983C849.193 41.5278 848.209 39.1429 848.222 36.1437C848.209 33.6861 848.863 31.5391 850.184 29.7026C851.519 27.866 853.348 26.4324 855.674 25.4019C857.999 24.3713 860.642 23.856 863.601 23.856C866.614 23.856 869.243 24.3713 871.489 25.4019C873.749 26.4324 875.506 27.866 876.761 29.7026C878.016 31.5391 878.664 33.6663 878.703 36.0842H870.479ZM932.644 38.6211H923.963C923.805 37.498 923.481 36.5004 922.992 35.6284C922.503 34.7432 921.876 33.99 921.11 33.369C920.343 32.7481 919.458 32.2724 918.454 31.9421C917.463 31.6118 916.386 31.4466 915.223 31.4466C913.123 31.4466 911.293 31.9685 909.734 33.0123C908.174 34.0429 906.965 35.5491 906.107 37.531C905.248 39.4997 904.818 41.8912 904.818 44.7055C904.818 47.599 905.248 50.0301 906.107 51.9988C906.979 53.9675 908.194 55.4539 909.753 56.4581C911.312 57.4622 913.116 57.9643 915.164 57.9643C916.313 57.9643 917.377 57.8123 918.355 57.5085C919.346 57.2046 920.224 56.7619 920.991 56.1806C921.757 55.586 922.391 54.8659 922.893 54.0203C923.409 53.1747 923.765 52.2102 923.963 51.1268L932.644 51.1664C932.42 53.0294 931.858 54.8263 930.96 56.5572C930.074 58.2748 928.879 59.8141 927.372 61.175C925.879 62.5226 924.096 63.5929 922.021 64.3856C919.96 65.1652 917.628 65.5549 915.025 65.5549C911.405 65.5549 908.168 64.7357 905.314 63.0974C902.473 61.459 900.227 59.0874 898.575 55.9824C896.937 52.8774 896.118 49.1185 896.118 44.7055C896.118 40.2792 896.95 36.5136 898.615 33.4087C900.28 30.3037 902.539 27.9387 905.393 26.3135C908.247 24.6752 911.458 23.856 915.025 23.856C917.377 23.856 919.557 24.1863 921.565 24.8469C923.587 25.5076 925.377 26.4721 926.936 27.7405C928.495 28.9957 929.764 30.5349 930.742 32.3583C931.732 34.1816 932.367 36.2692 932.644 38.6211ZM975.539 44.7055C975.539 49.1317 974.7 52.8973 973.022 56.0022C971.357 59.1072 969.085 61.4788 966.204 63.1172C963.337 64.7424 960.113 65.5549 956.533 65.5549C952.926 65.5549 949.689 64.7357 946.821 63.0974C943.954 61.459 941.688 59.0874 940.023 55.9824C938.359 52.8774 937.526 49.1185 937.526 44.7055C937.526 40.2792 938.359 36.5136 940.023 33.4087C941.688 30.3037 943.954 27.9387 946.821 26.3135C949.689 24.6752 952.926 23.856 956.533 23.856C960.113 23.856 963.337 24.6752 966.204 26.3135C969.085 27.9387 971.357 30.3037 973.022 33.4087C974.7 36.5136 975.539 40.2792 975.539 44.7055ZM966.838 44.7055C966.838 41.8383 966.409 39.4204 965.55 37.4517C964.705 35.4831 963.509 33.99 961.963 32.9727C960.417 31.9553 958.607 31.4466 956.533 31.4466C954.458 31.4466 952.648 31.9553 951.102 32.9727C949.556 33.99 948.354 35.4831 947.495 37.4517C946.65 39.4204 946.227 41.8383 946.227 44.7055C946.227 47.5726 946.65 49.9905 947.495 51.9592C948.354 53.9278 949.556 55.4209 951.102 56.4382C952.648 57.4556 954.458 57.9643 956.533 57.9643C958.607 57.9643 960.417 57.4556 961.963 56.4382C963.509 55.4209 964.705 53.9278 965.55 51.9592C966.409 49.9905 966.838 47.5726 966.838 44.7055ZM981.338 65V24.4109H989.919V57.9247H1007.32V65H981.338ZM1012.45 65V24.4109H1021.03V57.9247H1038.43V65H1012.45ZM1043.55 65V24.4109H1070.9V31.4863H1052.13V41.1579H1069.5V48.2332H1052.13V57.9247H1070.98V65H1043.55ZM1112.98 38.6211H1104.3C1104.14 37.498 1103.82 36.5004 1103.33 35.6284C1102.84 34.7432 1102.21 33.99 1101.45 33.369C1100.68 32.7481 1099.79 32.2724 1098.79 31.9421C1097.8 31.6118 1096.72 31.4466 1095.56 31.4466C1093.46 31.4466 1091.63 31.9685 1090.07 33.0123C1088.51 34.0429 1087.3 35.5491 1086.44 37.531C1085.58 39.4997 1085.15 41.8912 1085.15 44.7055C1085.15 47.599 1085.58 50.0301 1086.44 51.9988C1087.31 53.9675 1088.53 55.4539 1090.09 56.4581C1091.65 57.4622 1093.45 57.9643 1095.5 57.9643C1096.65 57.9643 1097.71 57.8123 1098.69 57.5085C1099.68 57.2046 1100.56 56.7619 1101.33 56.1806C1102.09 55.586 1102.73 54.8659 1103.23 54.0203C1103.74 53.1747 1104.1 52.2102 1104.3 51.1268L1112.98 51.1664C1112.76 53.0294 1112.19 54.8263 1111.3 56.5572C1110.41 58.2748 1109.21 59.8141 1107.71 61.175C1106.22 62.5226 1104.43 63.5929 1102.36 64.3856C1100.3 65.1652 1097.96 65.5549 1095.36 65.5549C1091.74 65.5549 1088.5 64.7357 1085.65 63.0974C1082.81 61.459 1080.56 59.0874 1078.91 55.9824C1077.27 52.8774 1076.45 49.1185 1076.45 44.7055C1076.45 40.2792 1077.29 36.5136 1078.95 33.4087C1080.62 30.3037 1082.88 27.9387 1085.73 26.3135C1088.58 24.6752 1091.79 23.856 1095.36 23.856C1097.71 23.856 1099.89 24.1863 1101.9 24.8469C1103.92 25.5076 1105.71 26.4721 1107.27 27.7405C1108.83 28.9957 1110.1 30.5349 1111.08 32.3583C1112.07 34.1816 1112.7 36.2692 1112.98 38.6211ZM1117.03 31.4863V24.4109H1150.37V31.4863H1137.94V65H1129.46V31.4863H1117.03ZM1155.3 65V24.4109H1182.65V31.4863H1163.88V41.1579H1181.24V48.2332H1163.88V57.9247H1182.73V65H1155.3ZM1203.3 65H1188.91V24.4109H1203.42C1207.5 24.4109 1211.02 25.2235 1213.96 26.8486C1216.91 28.4606 1219.18 30.7794 1220.76 33.8051C1222.36 36.8307 1223.16 40.451 1223.16 44.6658C1223.16 48.8938 1222.36 52.5273 1220.76 55.5662C1219.18 58.6051 1216.9 60.9371 1213.92 62.5623C1210.96 64.1874 1207.42 65 1203.3 65ZM1197.49 57.6472H1202.94C1205.48 57.6472 1207.61 57.198 1209.34 56.2995C1211.09 55.3878 1212.4 53.9807 1213.27 52.0781C1214.15 50.1623 1214.6 47.6915 1214.6 44.6658C1214.6 41.6666 1214.15 39.2156 1213.27 37.313C1212.4 35.4104 1211.1 34.0099 1209.36 33.1114C1207.63 32.2129 1205.5 31.7637 1202.96 31.7637H1197.49V57.6472Z" fill="#9493F8"/>
</svg>
