<svg width="232" height="232" viewBox="0 0 232 232" fill="none" xmlns="http://www.w3.org/2000/svg">
<rect x="0.834473" y="0.748291" width="230.77" height="230.767" rx="15" fill="#9493F8"/>
<path d="M152.954 27.3706H79.4841C70.2515 27.3706 62.7712 34.8524 62.7712 44.0902V188.174C62.7712 197.412 70.2515 204.893 79.4841 204.893H152.954C162.187 204.893 169.667 197.412 169.667 188.174V44.0902C169.667 34.8524 162.187 27.3706 152.954 27.3706ZM155.758 52.1439V172.842H77.2193V52.1439H155.758Z" stroke="white" stroke-width="5"/>
<path d="M129.053 38.8538H103.546C102.714 38.8538 102.042 39.3929 102.042 40.0601C102.042 40.7272 102.714 41.2664 103.546 41.2664H129.053C129.885 41.2664 130.557 40.7272 130.557 40.0601C130.557 39.3929 129.885 38.8538 129.053 38.8538Z" stroke="white" stroke-width="4"/>
<path d="M109.045 193.862H123.983C126.682 193.746 128.814 191.521 128.814 188.822C128.814 186.111 126.682 183.887 123.983 183.771H109.045C107.666 183.713 106.334 184.223 105.338 185.173C104.341 186.123 103.785 187.444 103.785 188.822C103.785 190.189 104.341 191.51 105.338 192.46C106.334 193.41 107.666 193.92 109.045 193.862Z" stroke="white" stroke-width="5"/>
</svg>
