<svg width="1166" height="170" viewBox="0 0 1166 170" fill="none" xmlns="http://www.w3.org/2000/svg">
<path d="M66.259 24.5309V65.1196H57.0631L42.3973 43.7947H42.1595V65.1196H31.1402V24.5309H40.4947L54.9227 45.7765H55.2398V24.5309H66.259ZM95.4917 24.5309H106.511V50.533C106.511 53.6248 105.771 56.3003 104.291 58.5596C102.825 60.8058 100.777 62.5432 98.1474 63.772C95.5181 64.9875 92.466 65.5953 88.9911 65.5953C85.4898 65.5953 82.4245 64.9875 79.7952 63.772C77.1659 62.5432 75.118 60.8058 73.6514 58.5596C72.198 56.3003 71.4714 53.6248 71.4714 50.533V24.5309H82.4906V49.5817C82.4906 50.8369 82.768 51.96 83.323 52.9509C83.8779 53.9287 84.6442 54.695 85.6219 55.2499C86.6129 55.8048 87.7359 56.0823 88.9911 56.0823C90.2595 56.0823 91.3826 55.8048 92.3603 55.2499C93.338 54.695 94.1043 53.9287 94.6593 52.9509C95.2142 51.96 95.4917 50.8369 95.4917 49.5817V24.5309ZM111.748 24.5309H125.463L134.896 47.5206H135.372L144.806 24.5309H158.52V65.1196H147.739V41.6543H147.422L138.384 64.8025H131.884L122.846 41.4957H122.529V65.1196H111.748V24.5309ZM163.742 65.1196V24.5309H181.341C184.433 24.5309 187.029 24.9471 189.13 25.7795C191.244 26.6118 192.836 27.7877 193.907 29.3072C194.99 30.8266 195.532 32.6169 195.532 34.6781C195.532 36.1711 195.201 37.532 194.541 38.7607C193.893 39.9895 192.982 41.0201 191.806 41.8524C190.63 42.6716 189.256 43.2398 187.683 43.5569V43.9532C189.427 44.0193 191.013 44.4619 192.44 45.2811C193.867 46.087 195.003 47.2035 195.849 48.6304C196.694 50.0442 197.117 51.709 197.117 53.6248C197.117 55.8445 196.536 57.8197 195.373 59.5506C194.224 61.2814 192.585 62.6423 190.458 63.6332C188.331 64.6242 185.794 65.1196 182.848 65.1196H163.742ZM174.762 56.3201H179.914C181.764 56.3201 183.152 55.9766 184.076 55.2895C185.001 54.5893 185.464 53.5587 185.464 52.1978C185.464 51.2465 185.246 50.4406 184.81 49.7799C184.374 49.1193 183.753 48.6172 182.947 48.2737C182.154 47.9302 181.196 47.7584 180.073 47.7584H174.762V56.3201ZM174.762 40.9408H179.28C180.245 40.9408 181.097 40.7888 181.837 40.4849C182.577 40.1811 183.152 39.745 183.561 39.1769C183.984 38.5956 184.195 37.8887 184.195 37.0563C184.195 35.8011 183.746 34.8432 182.848 34.1826C181.949 33.5088 180.813 33.1718 179.439 33.1718H174.762V40.9408ZM201.021 65.1196V24.5309H230.274V33.4097H212.041V40.3859H228.768V49.2646H212.041V56.2408H230.195V65.1196H201.021ZM235.739 65.1196V24.5309H253.259C256.271 24.5309 258.907 25.0792 261.166 26.1758C263.426 27.2725 265.183 28.8514 266.438 30.9125C267.693 32.9737 268.321 35.4444 268.321 38.3247C268.321 41.2315 267.673 43.6824 266.379 45.6775C265.097 47.6725 263.294 49.1788 260.968 50.1961C258.656 51.2135 255.954 51.7222 252.862 51.7222H242.398V43.1605H250.643C251.937 43.1605 253.041 43.0019 253.952 42.6848C254.877 42.3545 255.584 41.8326 256.073 41.1191C256.575 40.4057 256.826 39.4742 256.826 38.3247C256.826 37.162 256.575 36.2173 256.073 35.4906C255.584 34.7507 254.877 34.209 253.952 33.8655C253.041 33.5088 251.937 33.3304 250.643 33.3304H246.758V65.1196H235.739ZM259.521 46.49L269.669 65.1196H257.698L247.789 46.49H259.521ZM323.457 44.8253C323.457 49.3439 322.578 53.1557 320.821 56.2607C319.063 59.3524 316.692 61.6976 313.706 63.2963C310.72 64.8818 307.39 65.6746 303.717 65.6746C300.018 65.6746 296.675 64.8752 293.689 63.2765C290.716 61.6646 288.351 59.3127 286.594 56.221C284.85 53.1161 283.978 49.3175 283.978 44.8253C283.978 40.3066 284.85 36.5014 286.594 33.4097C288.351 30.3047 290.716 27.9595 293.689 26.374C296.675 24.7753 300.018 23.9759 303.717 23.9759C307.39 23.9759 310.72 24.7753 313.706 26.374C316.692 27.9595 319.063 30.3047 320.821 33.4097C322.578 36.5014 323.457 40.3066 323.457 44.8253ZM312.12 44.8253C312.12 42.3942 311.797 40.3462 311.149 38.6814C310.515 37.0035 309.57 35.7351 308.315 34.8762C307.073 34.0042 305.54 33.5682 303.717 33.5682C301.894 33.5682 300.355 34.0042 299.099 34.8762C297.857 35.7351 296.913 37.0035 296.265 38.6814C295.631 40.3462 295.314 42.3942 295.314 44.8253C295.314 47.2563 295.631 49.3109 296.265 50.9889C296.913 52.6536 297.857 53.922 299.099 54.7941C300.355 55.6529 301.894 56.0823 303.717 56.0823C305.54 56.0823 307.073 55.6529 308.315 54.7941C309.57 53.922 310.515 52.6536 311.149 50.9889C311.797 49.3109 312.12 47.2563 312.12 44.8253ZM328.555 65.1196V24.5309H357.094V33.4097H339.574V40.3859H355.35V49.2646H339.574V65.1196H328.555ZM372.265 65.1196V24.5309H389.785C392.797 24.5309 395.433 25.0792 397.693 26.1758C399.952 27.2725 401.709 28.8514 402.964 30.9125C404.22 32.9737 404.847 35.4444 404.847 38.3247C404.847 41.2315 404.2 43.6824 402.905 45.6775C401.623 47.6725 399.82 49.1788 397.494 50.1961C395.182 51.2135 392.48 51.7222 389.389 51.7222H378.924V43.1605H387.169C388.464 43.1605 389.567 43.0019 390.479 42.6848C391.403 42.3545 392.11 41.8326 392.599 41.1191C393.101 40.4057 393.352 39.4742 393.352 38.3247C393.352 37.162 393.101 36.2173 392.599 35.4906C392.11 34.7507 391.403 34.209 390.479 33.8655C389.567 33.5088 388.464 33.3304 387.169 33.3304H383.284V65.1196H372.265ZM396.048 46.49L406.195 65.1196H394.224L384.315 46.49H396.048ZM409.544 65.1196V24.5309H438.797V33.4097H420.563V40.3859H437.29V49.2646H420.563V56.2408H438.717V65.1196H409.544ZM482.155 39.7517H470.977C470.898 38.8268 470.687 37.9878 470.343 37.2347C470.013 36.4816 469.55 35.8342 468.956 35.2924C468.374 34.7375 467.668 34.3147 466.835 34.024C466.003 33.7202 465.058 33.5682 464.001 33.5682C462.151 33.5682 460.586 34.0174 459.304 34.9159C458.036 35.8143 457.071 37.1026 456.411 38.7805C455.763 40.4585 455.439 42.4734 455.439 44.8253C455.439 47.3092 455.77 49.3902 456.43 51.0682C457.104 52.7329 458.075 53.9881 459.344 54.8337C460.612 55.6661 462.138 56.0823 463.922 56.0823C464.939 56.0823 465.851 55.9568 466.657 55.7057C467.463 55.4415 468.163 55.0649 468.758 54.5761C469.352 54.0872 469.834 53.4992 470.204 52.8122C470.588 52.1119 470.845 51.3258 470.977 50.4538L482.155 50.533C482.023 52.2507 481.541 54.0013 480.708 55.785C479.876 57.5555 478.693 59.1938 477.161 60.7001C475.641 62.1931 473.759 63.3954 471.512 64.3071C469.266 65.2187 466.657 65.6746 463.684 65.6746C459.958 65.6746 456.615 64.8752 453.656 63.2765C450.709 61.6778 448.377 59.326 446.66 56.221C444.955 53.1161 444.103 49.3175 444.103 44.8253C444.103 40.3066 444.975 36.5014 446.719 33.4097C448.463 30.3047 450.815 27.9595 453.775 26.374C456.734 24.7753 460.037 23.9759 463.684 23.9759C466.247 23.9759 468.606 24.3261 470.759 25.0263C472.913 25.7266 474.802 26.7506 476.427 28.0982C478.053 29.4327 479.361 31.0777 480.352 33.0331C481.342 34.9886 481.944 37.2281 482.155 39.7517ZM485.49 24.5309H497.777L505.705 41.0201H506.022L513.949 24.5309H526.237L511.333 52.3564V65.1196H500.393V52.3564L485.49 24.5309ZM564.888 39.7517H553.711C553.631 38.8268 553.42 37.9878 553.076 37.2347C552.746 36.4816 552.284 35.8342 551.689 35.2924C551.108 34.7375 550.401 34.3147 549.568 34.024C548.736 33.7202 547.791 33.5682 546.734 33.5682C544.885 33.5682 543.319 34.0174 542.037 34.9159C540.769 35.8143 539.804 37.1026 539.144 38.7805C538.496 40.4585 538.173 42.4734 538.173 44.8253C538.173 47.3092 538.503 49.3902 539.164 51.0682C539.837 52.7329 540.809 53.9881 542.077 54.8337C543.345 55.6661 544.871 56.0823 546.655 56.0823C547.672 56.0823 548.584 55.9568 549.39 55.7057C550.196 55.4415 550.896 55.0649 551.491 54.5761C552.085 54.0872 552.568 53.4992 552.938 52.8122C553.321 52.1119 553.578 51.3258 553.711 50.4538L564.888 50.533C564.756 52.2507 564.274 54.0013 563.442 55.785C562.609 57.5555 561.427 59.1938 559.894 60.7001C558.375 62.1931 556.492 63.3954 554.246 64.3071C552 65.2187 549.39 65.6746 546.417 65.6746C542.691 65.6746 539.349 64.8752 536.389 63.2765C533.443 61.6778 531.111 59.326 529.393 56.221C527.689 53.1161 526.836 49.3175 526.836 44.8253C526.836 40.3066 527.708 36.5014 529.452 33.4097C531.196 30.3047 533.548 27.9595 536.508 26.374C539.468 24.7753 542.771 23.9759 546.417 23.9759C548.98 23.9759 551.339 24.3261 553.493 25.0263C555.646 25.7266 557.536 26.7506 559.161 28.0982C560.786 29.4327 562.094 31.0777 563.085 33.0331C564.076 34.9886 564.677 37.2281 564.888 39.7517ZM569.888 65.1196V24.5309H580.907V56.2408H597.317V65.1196H569.888ZM612.315 65.1196H600.423L613.821 24.5309H628.883L642.28 65.1196H630.389L621.51 35.7086H621.193L612.315 65.1196ZM610.095 49.1061H632.45V57.3507H610.095V49.1061ZM646.19 65.1196V24.5309H663.789C666.88 24.5309 669.477 24.9471 671.578 25.7795C673.692 26.6118 675.284 27.7877 676.354 29.3072C677.437 30.8266 677.979 32.6169 677.979 34.6781C677.979 36.1711 677.649 37.532 676.988 38.7607C676.341 39.9895 675.429 41.0201 674.253 41.8524C673.077 42.6716 671.703 43.2398 670.131 43.5569V43.9532C671.875 44.0193 673.46 44.4619 674.887 45.2811C676.314 46.087 677.45 47.2035 678.296 48.6304C679.142 50.0442 679.564 51.709 679.564 53.6248C679.564 55.8445 678.983 57.8197 677.82 59.5506C676.671 61.2814 675.033 62.6423 672.905 63.6332C670.778 64.6242 668.241 65.1196 665.295 65.1196H646.19ZM657.209 56.3201H662.362C664.212 56.3201 665.599 55.9766 666.524 55.2895C667.449 54.5893 667.911 53.5587 667.911 52.1978C667.911 51.2465 667.693 50.4406 667.257 49.7799C666.821 49.1193 666.2 48.6172 665.394 48.2737C664.601 47.9302 663.643 47.7584 662.52 47.7584H657.209V56.3201ZM657.209 40.9408H661.728C662.692 40.9408 663.544 40.7888 664.284 40.4849C665.024 40.1811 665.599 39.745 666.008 39.1769C666.431 38.5956 666.643 37.8887 666.643 37.0563C666.643 35.8011 666.193 34.8432 665.295 34.1826C664.397 33.5088 663.26 33.1718 661.886 33.1718H657.209V40.9408ZM683.469 65.1196V24.5309H694.488V56.2408H710.898V65.1196H683.469ZM715.352 65.1196V24.5309H744.605V33.4097H726.371V40.3859H743.098V49.2646H726.371V56.2408H744.525V65.1196H715.352ZM771.949 37.2149C771.844 35.8936 771.348 34.863 770.463 34.1231C769.591 33.3832 768.263 33.0133 766.479 33.0133C765.343 33.0133 764.412 33.152 763.685 33.4295C762.972 33.6937 762.443 34.0571 762.1 34.5195C761.756 34.9819 761.578 35.5104 761.564 36.105C761.538 36.5939 761.624 37.0365 761.822 37.4329C762.033 37.816 762.364 38.1662 762.813 38.4833C763.262 38.7871 763.837 39.0646 764.537 39.3156C765.237 39.5667 766.07 39.7913 767.034 39.9895L770.364 40.703C772.61 41.1786 774.532 41.8062 776.131 42.5857C777.73 43.3653 779.038 44.2835 780.055 45.3405C781.073 46.3843 781.819 47.5602 782.295 48.8683C782.784 50.1763 783.035 51.6033 783.048 53.1491C783.035 55.818 782.367 58.0774 781.046 59.9271C779.725 61.7769 777.836 63.184 775.378 64.1485C772.934 65.113 769.994 65.5953 766.559 65.5953C763.031 65.5953 759.953 65.0734 757.323 64.0296C754.707 62.9858 752.672 61.3805 751.219 59.2136C749.779 57.0336 749.052 54.2458 749.039 50.8501H759.503C759.569 52.0921 759.88 53.1359 760.435 53.9815C760.99 54.8271 761.769 55.4679 762.773 55.9039C763.791 56.3399 765 56.5579 766.4 56.5579C767.576 56.5579 768.56 56.4126 769.353 56.1219C770.146 55.8313 770.747 55.4283 771.157 54.913C771.566 54.3977 771.778 53.8097 771.791 53.1491C771.778 52.5281 771.573 51.9864 771.177 51.524C770.793 51.0483 770.159 50.6255 769.274 50.2556C768.389 49.8724 767.193 49.5157 765.687 49.1854L761.644 48.3133C758.05 47.5338 755.216 46.2324 753.141 44.4091C751.08 42.5725 750.056 40.0688 750.07 36.8978C750.056 34.3213 750.743 32.0686 752.131 30.1396C753.531 28.1973 755.467 26.6845 757.938 25.6011C760.422 24.5177 763.269 23.9759 766.479 23.9759C769.756 23.9759 772.59 24.5243 774.982 25.6209C777.373 26.7175 779.216 28.2634 780.511 30.2585C781.819 32.2404 782.48 34.5591 782.493 37.2149H771.949Z" fill="#9493F8"/>
<rect x="28.5242" y="82.1196" width="246" height="63" rx="31.5" fill="#9493F8"/>
<path d="M58.5304 102.41V93.5309H93.8077V102.41H81.5994V134.12H70.7387V102.41H58.5304ZM135.368 113.825C135.368 118.344 134.489 122.156 132.732 125.261C130.974 128.352 128.603 130.698 125.617 132.296C122.631 133.882 119.301 134.675 115.628 134.675C111.929 134.675 108.586 133.875 105.6 132.276C102.627 130.665 100.262 128.313 98.5048 125.221C96.7607 122.116 95.8887 118.317 95.8887 113.825C95.8887 109.307 96.7607 105.501 98.5048 102.41C100.262 99.3047 102.627 96.9595 105.6 95.374C108.586 93.7753 111.929 92.9759 115.628 92.9759C119.301 92.9759 122.631 93.7753 125.617 95.374C128.603 96.9595 130.974 99.3047 132.732 102.41C134.489 105.501 135.368 109.307 135.368 113.825ZM124.031 113.825C124.031 111.394 123.708 109.346 123.06 107.681C122.426 106.003 121.481 104.735 120.226 103.876C118.984 103.004 117.451 102.568 115.628 102.568C113.805 102.568 112.266 103.004 111.01 103.876C109.768 104.735 108.824 106.003 108.176 107.681C107.542 109.346 107.225 111.394 107.225 113.825C107.225 116.256 107.542 118.311 108.176 119.989C108.824 121.654 109.768 122.922 111.01 123.794C112.266 124.653 113.805 125.082 115.628 125.082C117.451 125.082 118.984 124.653 120.226 123.794C121.481 122.922 122.426 121.654 123.06 119.989C123.708 118.311 124.031 116.256 124.031 113.825ZM137.449 102.41V93.5309H172.726V102.41H160.518V134.12H149.657V102.41H137.449ZM182.293 134.12H170.402L183.8 93.5309H198.862L212.259 134.12H200.368L191.489 104.709H191.172L182.293 134.12ZM180.074 118.106H202.429V126.351H180.074V118.106ZM216.169 134.12V93.5309H227.188V125.241H243.598V134.12H216.169Z" fill="white"/>
<rect x="282.524" y="79.1196" width="353" height="66" rx="33" fill="#9493F8"/>
<path d="M321.879 133.254C318.973 133.254 316.469 132.739 314.368 131.708C312.267 130.677 310.655 129.297 309.532 127.566C308.409 125.835 307.848 123.926 307.848 121.838C307.848 120.319 308.138 118.978 308.72 117.815C309.301 116.639 310.113 115.562 311.157 114.584C312.201 113.607 313.423 112.642 314.824 111.691L324.02 105.983C324.945 105.402 325.572 104.801 325.903 104.18C326.233 103.545 326.398 102.984 326.398 102.495C326.398 101.847 326.16 101.273 325.685 100.771C325.209 100.269 324.469 100.024 323.465 100.037C322.844 100.037 322.309 100.156 321.859 100.394C321.41 100.619 321.06 100.936 320.809 101.345C320.571 101.755 320.452 102.244 320.452 102.812C320.452 103.592 320.677 104.391 321.126 105.21C321.575 106.016 322.19 106.888 322.969 107.826C323.749 108.764 324.628 109.815 325.605 110.977L345.266 132.62H334.326L317.836 115.179C317.03 114.32 316.138 113.27 315.161 112.028C314.183 110.773 313.337 109.359 312.624 107.787C311.924 106.214 311.573 104.503 311.573 102.653C311.573 100.592 312.069 98.7095 313.06 97.0051C314.051 95.3007 315.438 93.9398 317.222 92.9224C319.006 91.905 321.087 91.3963 323.465 91.3963C325.737 91.3963 327.693 91.8654 329.331 92.8035C330.983 93.7416 332.251 94.9902 333.136 96.5492C334.035 98.1083 334.484 99.826 334.484 101.702C334.484 103.592 334.015 105.355 333.077 106.994C332.152 108.632 330.824 110.066 329.093 111.295L320.69 117.24C320.043 117.689 319.481 118.205 319.006 118.786C318.543 119.367 318.312 120.121 318.312 121.045C318.312 121.812 318.49 122.466 318.847 123.007C319.204 123.549 319.706 123.965 320.353 124.256C321.014 124.547 321.787 124.692 322.672 124.692C324.02 124.692 325.367 124.368 326.715 123.721C328.076 123.06 329.318 122.142 330.441 120.966C331.564 119.777 332.463 118.376 333.136 116.765C333.823 115.139 334.167 113.369 334.167 111.453H342.808C342.808 113.805 342.564 116.071 342.075 118.251C341.586 120.431 340.8 122.426 339.716 124.236C338.633 126.046 337.206 127.572 335.435 128.814C334.88 129.092 334.339 129.356 333.81 129.607C333.282 129.858 332.74 130.122 332.185 130.4C330.56 131.444 328.862 132.184 327.092 132.62C325.321 133.042 323.584 133.254 321.879 133.254ZM368.101 132.62H356.209L369.607 92.0305H384.669L398.067 132.62H386.175L377.296 103.208H376.979L368.101 132.62ZM365.881 116.606H388.237V124.851H365.881V116.606ZM401.418 132.62V92.0305H412.437V123.741H428.847V132.62H401.418ZM432.743 132.62V92.0305H443.763V123.741H460.173V132.62H432.743ZM473.519 100.909V92.0305H508.797V100.909H496.589V132.62H485.728V100.909H473.519ZM523.405 92.0305V132.62H512.386V92.0305H523.405ZM528.069 92.0305H541.784L551.218 115.02H551.694L561.127 92.0305H574.842V132.62H564.061V109.154H563.744L554.706 132.303H548.205L539.168 108.996H538.851V132.62H528.069V92.0305ZM579.506 132.62V92.0305H608.759V100.909H590.526V107.886H607.253V116.765H590.526V123.741H608.68V132.62H579.506Z" fill="white"/>
<rect x="643.524" y="79.1196" width="437" height="66" rx="33" fill="#9493F8"/>
<path d="M674.14 132.62V92.0305H691.739C694.831 92.0305 697.427 92.4467 699.528 93.2791C701.642 94.1115 703.234 95.2874 704.305 96.8069C705.388 98.3263 705.93 100.117 705.93 102.178C705.93 103.671 705.599 105.032 704.939 106.261C704.291 107.489 703.38 108.52 702.204 109.352C701.028 110.171 699.654 110.74 698.081 111.057V111.453C699.826 111.519 701.411 111.962 702.838 112.781C704.265 113.587 705.401 114.703 706.247 116.13C707.092 117.544 707.515 119.209 707.515 121.125C707.515 123.344 706.934 125.32 705.771 127.051C704.622 128.781 702.983 130.142 700.856 131.133C698.729 132.124 696.192 132.62 693.246 132.62H674.14ZM685.16 123.82H690.312C692.162 123.82 693.55 123.477 694.474 122.789C695.399 122.089 695.862 121.059 695.862 119.698C695.862 118.746 695.644 117.94 695.208 117.28C694.772 116.619 694.151 116.117 693.345 115.774C692.552 115.43 691.594 115.258 690.471 115.258H685.16V123.82ZM685.16 108.441H689.678C690.643 108.441 691.495 108.289 692.235 107.985C692.975 107.681 693.55 107.245 693.959 106.677C694.382 106.095 694.593 105.388 694.593 104.556C694.593 103.301 694.144 102.343 693.246 101.682C692.347 101.008 691.211 100.672 689.837 100.672H685.16V108.441ZM709.197 92.0305H721.484L729.412 108.52H729.729L737.657 92.0305H749.944L735.041 119.856V132.62H724.101V119.856L709.197 92.0305ZM763.539 132.62V92.0305H774.558V123.741H790.968V132.62H763.539ZM832.604 112.325C832.604 116.844 831.726 120.656 829.968 123.761C828.211 126.852 825.84 129.198 822.854 130.796C819.867 132.382 816.538 133.175 812.865 133.175C809.165 133.175 805.822 132.375 802.836 130.776C799.864 129.165 797.499 126.813 795.741 123.721C793.997 120.616 793.125 116.817 793.125 112.325C793.125 107.806 793.997 104.001 795.741 100.909C797.499 97.8044 799.864 95.4592 802.836 93.8737C805.822 92.275 809.165 91.4756 812.865 91.4756C816.538 91.4756 819.867 92.275 822.854 93.8737C825.84 95.4592 828.211 97.8044 829.968 100.909C831.726 104.001 832.604 107.806 832.604 112.325ZM821.268 112.325C821.268 109.894 820.944 107.846 820.297 106.181C819.663 104.503 818.718 103.235 817.463 102.376C816.221 101.504 814.688 101.068 812.865 101.068C811.041 101.068 809.502 101.504 808.247 102.376C807.005 103.235 806.06 104.503 805.413 106.181C804.779 107.846 804.462 109.894 804.462 112.325C804.462 114.756 804.779 116.811 805.413 118.489C806.06 120.154 807.005 121.422 808.247 122.294C809.502 123.153 811.041 123.582 812.865 123.582C814.688 123.582 816.221 123.153 817.463 122.294C818.718 121.422 819.663 120.154 820.297 118.489C820.944 116.811 821.268 114.756 821.268 112.325ZM875.038 107.251H863.861C863.781 106.327 863.57 105.488 863.226 104.734C862.896 103.981 862.434 103.334 861.839 102.792C861.258 102.237 860.551 101.814 859.718 101.524C858.886 101.22 857.941 101.068 856.884 101.068C855.035 101.068 853.469 101.517 852.187 102.416C850.919 103.314 849.954 104.602 849.294 106.28C848.646 107.958 848.323 109.973 848.323 112.325C848.323 114.809 848.653 116.89 849.314 118.568C849.987 120.233 850.958 121.488 852.227 122.334C853.495 123.166 855.021 123.582 856.805 123.582C857.822 123.582 858.734 123.457 859.54 123.206C860.346 122.941 861.046 122.565 861.641 122.076C862.235 121.587 862.718 120.999 863.088 120.312C863.471 119.612 863.728 118.826 863.861 117.954L875.038 118.033C874.906 119.751 874.424 121.501 873.592 123.285C872.759 125.055 871.577 126.694 870.044 128.2C868.525 129.693 866.642 130.895 864.396 131.807C862.15 132.719 859.54 133.175 856.567 133.175C852.841 133.175 849.498 132.375 846.539 130.776C843.592 129.178 841.26 126.826 839.543 123.721C837.838 120.616 836.986 116.817 836.986 112.325C836.986 107.806 837.858 104.001 839.602 100.909C841.346 97.8044 843.698 95.4592 846.658 93.8737C849.617 92.275 852.921 91.4756 856.567 91.4756C859.13 91.4756 861.489 91.8257 863.643 92.526C865.796 93.2263 867.686 94.2503 869.311 95.5979C870.936 96.9324 872.244 98.5774 873.235 100.533C874.226 102.488 874.827 104.728 875.038 107.251ZM888.77 132.62H876.878L890.276 92.0305H905.338L918.736 132.62H906.845L897.966 103.208H897.649L888.77 132.62ZM886.55 116.606H908.906V124.851H886.55V116.606ZM915.854 100.909V92.0305H951.132V100.909H938.923V132.62H928.062V100.909H915.854ZM965.74 92.0305V132.62H954.721V92.0305H965.74ZM1009.72 112.325C1009.72 116.844 1008.85 120.656 1007.09 123.761C1005.33 126.852 1002.96 129.198 999.974 130.796C996.988 132.382 993.658 133.175 989.985 133.175C986.286 133.175 982.943 132.375 979.957 130.776C976.984 129.165 974.619 126.813 972.862 123.721C971.118 120.616 970.246 116.817 970.246 112.325C970.246 107.806 971.118 104.001 972.862 100.909C974.619 97.8044 976.984 95.4592 979.957 93.8737C982.943 92.275 986.286 91.4756 989.985 91.4756C993.658 91.4756 996.988 92.275 999.974 93.8737C1002.96 95.4592 1005.33 97.8044 1007.09 100.909C1008.85 104.001 1009.72 107.806 1009.72 112.325ZM998.388 112.325C998.388 109.894 998.065 107.846 997.417 106.181C996.783 104.503 995.838 103.235 994.583 102.376C993.341 101.504 991.809 101.068 989.985 101.068C988.162 101.068 986.623 101.504 985.367 102.376C984.125 103.235 983.181 104.503 982.533 106.181C981.899 107.846 981.582 109.894 981.582 112.325C981.582 114.756 981.899 116.811 982.533 118.489C983.181 120.154 984.125 121.422 985.367 122.294C986.623 123.153 988.162 123.582 989.985 123.582C991.809 123.582 993.341 123.153 994.583 122.294C995.838 121.422 996.783 120.154 997.417 118.489C998.065 116.811 998.388 114.756 998.388 112.325ZM1049.38 92.0305V132.62H1040.19L1025.52 111.295H1025.28V132.62H1014.27V92.0305H1023.62L1038.05 113.276H1038.36V92.0305H1049.38Z" fill="white"/>
</svg>
