<svg width="814" height="170" viewBox="0 0 814 170" fill="none" xmlns="http://www.w3.org/2000/svg">
<path d="M66.259 24.5309V65.1196H57.0631L42.3973 43.7947H42.1595V65.1196H31.1402V24.5309H40.4947L54.9227 45.7765H55.2398V24.5309H66.259ZM95.4917 24.5309H106.511V50.533C106.511 53.6248 105.771 56.3003 104.291 58.5596C102.825 60.8058 100.777 62.5432 98.1474 63.772C95.5181 64.9875 92.466 65.5953 88.9911 65.5953C85.4898 65.5953 82.4245 64.9875 79.7952 63.772C77.1659 62.5432 75.118 60.8058 73.6514 58.5596C72.198 56.3003 71.4714 53.6248 71.4714 50.533V24.5309H82.4906V49.5817C82.4906 50.8369 82.768 51.96 83.323 52.9509C83.8779 53.9287 84.6442 54.695 85.6219 55.2499C86.6129 55.8048 87.7359 56.0823 88.9911 56.0823C90.2595 56.0823 91.3826 55.8048 92.3603 55.2499C93.338 54.695 94.1043 53.9287 94.6593 52.9509C95.2142 51.96 95.4917 50.8369 95.4917 49.5817V24.5309ZM111.748 24.5309H125.463L134.896 47.5206H135.372L144.806 24.5309H158.52V65.1196H147.739V41.6543H147.422L138.384 64.8025H131.884L122.846 41.4957H122.529V65.1196H111.748V24.5309ZM163.742 65.1196V24.5309H181.341C184.433 24.5309 187.029 24.9471 189.13 25.7795C191.244 26.6118 192.836 27.7877 193.907 29.3072C194.99 30.8266 195.532 32.6169 195.532 34.6781C195.532 36.1711 195.201 37.532 194.541 38.7607C193.893 39.9895 192.982 41.0201 191.806 41.8524C190.63 42.6716 189.256 43.2398 187.683 43.5569V43.9532C189.427 44.0193 191.013 44.4619 192.44 45.2811C193.867 46.087 195.003 47.2035 195.849 48.6304C196.694 50.0442 197.117 51.709 197.117 53.6248C197.117 55.8445 196.536 57.8197 195.373 59.5506C194.224 61.2814 192.585 62.6423 190.458 63.6332C188.331 64.6242 185.794 65.1196 182.848 65.1196H163.742ZM174.762 56.3201H179.914C181.764 56.3201 183.152 55.9766 184.076 55.2895C185.001 54.5893 185.464 53.5587 185.464 52.1978C185.464 51.2465 185.246 50.4406 184.81 49.7799C184.374 49.1193 183.753 48.6172 182.947 48.2737C182.154 47.9302 181.196 47.7584 180.073 47.7584H174.762V56.3201ZM174.762 40.9408H179.28C180.245 40.9408 181.097 40.7888 181.837 40.4849C182.577 40.1811 183.152 39.745 183.561 39.1769C183.984 38.5956 184.195 37.8887 184.195 37.0563C184.195 35.8011 183.746 34.8432 182.848 34.1826C181.949 33.5088 180.813 33.1718 179.439 33.1718H174.762V40.9408ZM201.021 65.1196V24.5309H230.274V33.4097H212.041V40.3859H228.768V49.2646H212.041V56.2408H230.195V65.1196H201.021ZM235.739 65.1196V24.5309H253.259C256.271 24.5309 258.907 25.0792 261.166 26.1758C263.426 27.2725 265.183 28.8514 266.438 30.9125C267.693 32.9737 268.321 35.4444 268.321 38.3247C268.321 41.2315 267.673 43.6824 266.379 45.6775C265.097 47.6725 263.294 49.1788 260.968 50.1961C258.656 51.2135 255.954 51.7222 252.862 51.7222H242.398V43.1605H250.643C251.937 43.1605 253.041 43.0019 253.952 42.6848C254.877 42.3545 255.584 41.8326 256.073 41.1191C256.575 40.4057 256.826 39.4742 256.826 38.3247C256.826 37.162 256.575 36.2173 256.073 35.4906C255.584 34.7507 254.877 34.209 253.952 33.8655C253.041 33.5088 251.937 33.3304 250.643 33.3304H246.758V65.1196H235.739ZM259.521 46.49L269.669 65.1196H257.698L247.789 46.49H259.521ZM323.457 44.8253C323.457 49.3439 322.578 53.1557 320.821 56.2607C319.063 59.3524 316.692 61.6976 313.706 63.2963C310.72 64.8818 307.39 65.6746 303.717 65.6746C300.018 65.6746 296.675 64.8752 293.689 63.2765C290.716 61.6646 288.351 59.3127 286.594 56.221C284.85 53.1161 283.978 49.3175 283.978 44.8253C283.978 40.3066 284.85 36.5014 286.594 33.4097C288.351 30.3047 290.716 27.9595 293.689 26.374C296.675 24.7753 300.018 23.9759 303.717 23.9759C307.39 23.9759 310.72 24.7753 313.706 26.374C316.692 27.9595 319.063 30.3047 320.821 33.4097C322.578 36.5014 323.457 40.3066 323.457 44.8253ZM312.12 44.8253C312.12 42.3942 311.797 40.3462 311.149 38.6814C310.515 37.0035 309.57 35.7351 308.315 34.8762C307.073 34.0042 305.54 33.5682 303.717 33.5682C301.894 33.5682 300.355 34.0042 299.099 34.8762C297.857 35.7351 296.913 37.0035 296.265 38.6814C295.631 40.3462 295.314 42.3942 295.314 44.8253C295.314 47.2563 295.631 49.3109 296.265 50.9889C296.913 52.6536 297.857 53.922 299.099 54.7941C300.355 55.6529 301.894 56.0823 303.717 56.0823C305.54 56.0823 307.073 55.6529 308.315 54.7941C309.57 53.922 310.515 52.6536 311.149 50.9889C311.797 49.3109 312.12 47.2563 312.12 44.8253ZM328.555 65.1196V24.5309H357.094V33.4097H339.574V40.3859H355.35V49.2646H339.574V65.1196H328.555ZM372.265 65.1196V24.5309H389.785C392.797 24.5309 395.433 25.0792 397.693 26.1758C399.952 27.2725 401.709 28.8514 402.964 30.9125C404.22 32.9737 404.847 35.4444 404.847 38.3247C404.847 41.2315 404.2 43.6824 402.905 45.6775C401.623 47.6725 399.82 49.1788 397.494 50.1961C395.182 51.2135 392.48 51.7222 389.389 51.7222H378.924V43.1605H387.169C388.464 43.1605 389.567 43.0019 390.479 42.6848C391.403 42.3545 392.11 41.8326 392.599 41.1191C393.101 40.4057 393.352 39.4742 393.352 38.3247C393.352 37.162 393.101 36.2173 392.599 35.4906C392.11 34.7507 391.403 34.209 390.479 33.8655C389.567 33.5088 388.464 33.3304 387.169 33.3304H383.284V65.1196H372.265ZM396.048 46.49L406.195 65.1196H394.224L384.315 46.49H396.048ZM409.544 65.1196V24.5309H438.797V33.4097H420.563V40.3859H437.29V49.2646H420.563V56.2408H438.717V65.1196H409.544ZM482.155 39.7517H470.977C470.898 38.8268 470.687 37.9878 470.343 37.2347C470.013 36.4816 469.55 35.8342 468.956 35.2924C468.374 34.7375 467.668 34.3147 466.835 34.024C466.003 33.7202 465.058 33.5682 464.001 33.5682C462.151 33.5682 460.586 34.0174 459.304 34.9159C458.036 35.8143 457.071 37.1026 456.411 38.7805C455.763 40.4585 455.439 42.4734 455.439 44.8253C455.439 47.3092 455.77 49.3902 456.43 51.0682C457.104 52.7329 458.075 53.9881 459.344 54.8337C460.612 55.6661 462.138 56.0823 463.922 56.0823C464.939 56.0823 465.851 55.9568 466.657 55.7057C467.463 55.4415 468.163 55.0649 468.758 54.5761C469.352 54.0872 469.834 53.4992 470.204 52.8122C470.588 52.1119 470.845 51.3258 470.977 50.4538L482.155 50.533C482.023 52.2507 481.541 54.0013 480.708 55.785C479.876 57.5555 478.693 59.1938 477.161 60.7001C475.641 62.1931 473.759 63.3954 471.512 64.3071C469.266 65.2187 466.657 65.6746 463.684 65.6746C459.958 65.6746 456.615 64.8752 453.656 63.2765C450.709 61.6778 448.377 59.326 446.66 56.221C444.955 53.1161 444.103 49.3175 444.103 44.8253C444.103 40.3066 444.975 36.5014 446.719 33.4097C448.463 30.3047 450.815 27.9595 453.775 26.374C456.734 24.7753 460.037 23.9759 463.684 23.9759C466.247 23.9759 468.606 24.3261 470.759 25.0263C472.913 25.7266 474.802 26.7506 476.427 28.0982C478.053 29.4327 479.361 31.0777 480.352 33.0331C481.342 34.9886 481.944 37.2281 482.155 39.7517ZM485.49 24.5309H497.777L505.705 41.0201H506.022L513.949 24.5309H526.237L511.333 52.3564V65.1196H500.393V52.3564L485.49 24.5309ZM564.888 39.7517H553.711C553.631 38.8268 553.42 37.9878 553.076 37.2347C552.746 36.4816 552.284 35.8342 551.689 35.2924C551.108 34.7375 550.401 34.3147 549.568 34.024C548.736 33.7202 547.791 33.5682 546.734 33.5682C544.885 33.5682 543.319 34.0174 542.037 34.9159C540.769 35.8143 539.804 37.1026 539.144 38.7805C538.496 40.4585 538.173 42.4734 538.173 44.8253C538.173 47.3092 538.503 49.3902 539.164 51.0682C539.837 52.7329 540.809 53.9881 542.077 54.8337C543.345 55.6661 544.871 56.0823 546.655 56.0823C547.672 56.0823 548.584 55.9568 549.39 55.7057C550.196 55.4415 550.896 55.0649 551.491 54.5761C552.085 54.0872 552.568 53.4992 552.938 52.8122C553.321 52.1119 553.578 51.3258 553.711 50.4538L564.888 50.533C564.756 52.2507 564.274 54.0013 563.442 55.785C562.609 57.5555 561.427 59.1938 559.894 60.7001C558.375 62.1931 556.492 63.3954 554.246 64.3071C552 65.2187 549.39 65.6746 546.417 65.6746C542.691 65.6746 539.349 64.8752 536.389 63.2765C533.443 61.6778 531.111 59.326 529.393 56.221C527.689 53.1161 526.836 49.3175 526.836 44.8253C526.836 40.3066 527.708 36.5014 529.452 33.4097C531.196 30.3047 533.548 27.9595 536.508 26.374C539.468 24.7753 542.771 23.9759 546.417 23.9759C548.98 23.9759 551.339 24.3261 553.493 25.0263C555.646 25.7266 557.536 26.7506 559.161 28.0982C560.786 29.4327 562.094 31.0777 563.085 33.0331C564.076 34.9886 564.677 37.2281 564.888 39.7517ZM569.888 65.1196V24.5309H580.907V56.2408H597.317V65.1196H569.888ZM612.315 65.1196H600.423L613.821 24.5309H628.883L642.28 65.1196H630.389L621.51 35.7086H621.193L612.315 65.1196ZM610.095 49.1061H632.45V57.3507H610.095V49.1061ZM646.19 65.1196V24.5309H663.789C666.88 24.5309 669.477 24.9471 671.578 25.7795C673.692 26.6118 675.284 27.7877 676.354 29.3072C677.437 30.8266 677.979 32.6169 677.979 34.6781C677.979 36.1711 677.649 37.532 676.988 38.7607C676.341 39.9895 675.429 41.0201 674.253 41.8524C673.077 42.6716 671.703 43.2398 670.131 43.5569V43.9532C671.875 44.0193 673.46 44.4619 674.887 45.2811C676.314 46.087 677.45 47.2035 678.296 48.6304C679.142 50.0442 679.564 51.709 679.564 53.6248C679.564 55.8445 678.983 57.8197 677.82 59.5506C676.671 61.2814 675.033 62.6423 672.905 63.6332C670.778 64.6242 668.241 65.1196 665.295 65.1196H646.19ZM657.209 56.3201H662.362C664.212 56.3201 665.599 55.9766 666.524 55.2895C667.449 54.5893 667.911 53.5587 667.911 52.1978C667.911 51.2465 667.693 50.4406 667.257 49.7799C666.821 49.1193 666.2 48.6172 665.394 48.2737C664.601 47.9302 663.643 47.7584 662.52 47.7584H657.209V56.3201ZM657.209 40.9408H661.728C662.692 40.9408 663.544 40.7888 664.284 40.4849C665.024 40.1811 665.599 39.745 666.008 39.1769C666.431 38.5956 666.643 37.8887 666.643 37.0563C666.643 35.8011 666.193 34.8432 665.295 34.1826C664.397 33.5088 663.26 33.1718 661.886 33.1718H657.209V40.9408ZM683.469 65.1196V24.5309H694.488V56.2408H710.898V65.1196H683.469ZM715.352 65.1196V24.5309H744.605V33.4097H726.371V40.3859H743.098V49.2646H726.371V56.2408H744.525V65.1196H715.352ZM771.949 37.2149C771.844 35.8936 771.348 34.863 770.463 34.1231C769.591 33.3832 768.263 33.0133 766.479 33.0133C765.343 33.0133 764.412 33.152 763.685 33.4295C762.972 33.6937 762.443 34.0571 762.1 34.5195C761.756 34.9819 761.578 35.5104 761.564 36.105C761.538 36.5939 761.624 37.0365 761.822 37.4329C762.033 37.816 762.364 38.1662 762.813 38.4833C763.262 38.7871 763.837 39.0646 764.537 39.3156C765.237 39.5667 766.07 39.7913 767.034 39.9895L770.364 40.703C772.61 41.1786 774.532 41.8062 776.131 42.5857C777.73 43.3653 779.038 44.2835 780.055 45.3405C781.073 46.3843 781.819 47.5602 782.295 48.8683C782.784 50.1763 783.035 51.6033 783.048 53.1491C783.035 55.818 782.367 58.0774 781.046 59.9271C779.725 61.7769 777.836 63.184 775.378 64.1485C772.934 65.113 769.994 65.5953 766.559 65.5953C763.031 65.5953 759.953 65.0734 757.323 64.0296C754.707 62.9858 752.672 61.3805 751.219 59.2136C749.779 57.0336 749.052 54.2458 749.039 50.8501H759.503C759.569 52.0921 759.88 53.1359 760.435 53.9815C760.99 54.8271 761.769 55.4679 762.773 55.9039C763.791 56.3399 765 56.5579 766.4 56.5579C767.576 56.5579 768.56 56.4126 769.353 56.1219C770.146 55.8313 770.747 55.4283 771.157 54.913C771.566 54.3977 771.778 53.8097 771.791 53.1491C771.778 52.5281 771.573 51.9864 771.177 51.524C770.793 51.0483 770.159 50.6255 769.274 50.2556C768.389 49.8724 767.193 49.5157 765.687 49.1854L761.644 48.3133C758.05 47.5338 755.216 46.2324 753.141 44.4091C751.08 42.5725 750.056 40.0688 750.07 36.8978C750.056 34.3213 750.743 32.0686 752.131 30.1396C753.531 28.1973 755.467 26.6845 757.938 25.6011C760.422 24.5177 763.269 23.9759 766.479 23.9759C769.756 23.9759 772.59 24.5243 774.982 25.6209C777.373 26.7175 779.216 28.2634 780.511 30.2585C781.819 32.2404 782.48 34.5591 782.493 37.2149H771.949Z" fill="#9493F8"/>
<rect x="28.5242" y="79.1196" width="351" height="66" rx="33" fill="#9493F8"/>
<path d="M59.1403 132.62V92.0305H76.7394C79.8312 92.0305 82.4275 92.4467 84.5283 93.2791C86.6423 94.1115 88.2344 95.2874 89.3046 96.8069C90.3881 98.3263 90.9298 100.117 90.9298 102.178C90.9298 103.671 90.5995 105.032 89.9388 106.261C89.2914 107.489 88.3797 108.52 87.2038 109.352C86.0279 110.171 84.6538 110.74 83.0815 111.057V111.453C84.8256 111.519 86.4111 111.962 87.838 112.781C89.265 113.587 90.4013 114.703 91.2469 116.13C92.0925 117.544 92.5153 119.209 92.5153 121.125C92.5153 123.344 91.9339 125.32 90.7712 127.051C89.6217 128.781 87.9834 130.142 85.8561 131.133C83.7289 132.124 81.1921 132.62 78.2457 132.62H59.1403ZM70.1596 123.82H75.3125C77.1622 123.82 78.5496 123.477 79.4744 122.789C80.3993 122.089 80.8618 121.059 80.8618 119.698C80.8618 118.746 80.6438 117.94 80.2077 117.28C79.7717 116.619 79.1507 116.117 78.3448 115.774C77.552 115.43 76.5941 115.258 75.471 115.258H70.1596V123.82ZM70.1596 108.441H74.6783C75.6428 108.441 76.495 108.289 77.2349 107.985C77.9748 107.681 78.5496 107.245 78.9592 106.677C79.382 106.095 79.5934 105.388 79.5934 104.556C79.5934 103.301 79.1441 102.343 78.2457 101.682C77.3472 101.008 76.2109 100.672 74.8368 100.672H70.1596V108.441ZM94.1967 92.0305H106.484L114.412 108.52H114.729L122.657 92.0305H134.944L120.041 119.856V132.62H109.101V119.856L94.1967 92.0305ZM158.845 132.62L146.874 92.0305H159.162L164.711 117.002H165.028L171.608 92.0305H181.28L187.859 117.082H188.177L193.726 92.0305H206.014L194.043 132.62H183.499L176.602 109.947H176.285L169.388 132.62H158.845ZM209.023 132.62V92.0305H238.276V100.909H220.042V107.886H236.769V116.765H220.042V123.741H238.196V132.62H209.023ZM243.182 132.62V92.0305H272.435V100.909H254.202V107.886H270.929V116.765H254.202V123.741H272.356V132.62H243.182ZM277.342 132.62V92.0305H288.361V108.441H288.916L301.125 92.0305H313.967L300.253 110.105L314.285 132.62H301.125L292.008 117.399L288.361 122.155V132.62H277.342ZM338.014 104.715C337.909 103.393 337.413 102.363 336.528 101.623C335.656 100.883 334.328 100.513 332.544 100.513C331.408 100.513 330.477 100.652 329.75 100.929C329.037 101.193 328.508 101.557 328.165 102.019C327.821 102.482 327.643 103.01 327.629 103.605C327.603 104.094 327.689 104.536 327.887 104.933C328.098 105.316 328.429 105.666 328.878 105.983C329.327 106.287 329.902 106.564 330.602 106.815C331.302 107.066 332.135 107.291 333.099 107.489L336.429 108.203C338.675 108.678 340.598 109.306 342.196 110.086C343.795 110.865 345.103 111.783 346.12 112.84C347.138 113.884 347.884 115.06 348.36 116.368C348.849 117.676 349.1 119.103 349.113 120.649C349.1 123.318 348.433 125.577 347.111 127.427C345.79 129.277 343.901 130.684 341.443 131.649C338.999 132.613 336.059 133.095 332.624 133.095C329.096 133.095 326.017 132.573 323.388 131.53C320.772 130.486 318.737 128.88 317.284 126.714C315.844 124.534 315.117 121.746 315.104 118.35H325.568C325.634 119.592 325.945 120.636 326.5 121.481C327.055 122.327 327.834 122.968 328.838 123.404C329.856 123.84 331.065 124.058 332.465 124.058C333.641 124.058 334.625 123.913 335.418 123.622C336.211 123.331 336.812 122.928 337.222 122.413C337.631 121.898 337.843 121.31 337.856 120.649C337.843 120.028 337.638 119.486 337.242 119.024C336.858 118.548 336.224 118.125 335.339 117.755C334.454 117.372 333.258 117.016 331.752 116.685L327.709 115.813C324.115 115.034 321.281 113.732 319.206 111.909C317.145 110.072 316.121 107.569 316.134 104.398C316.121 101.821 316.808 99.5683 318.196 97.6393C319.596 95.697 321.532 94.1842 324.003 93.1008C326.487 92.0173 329.334 91.4756 332.544 91.4756C335.821 91.4756 338.655 92.0239 341.047 93.1206C343.438 94.2172 345.281 95.7631 346.576 97.7582C347.884 99.7401 348.545 102.059 348.558 104.715H338.014Z" fill="white"/>
</svg>
