<svg width="1166" height="170" viewBox="0 0 1166 170" fill="none" xmlns="http://www.w3.org/2000/svg">
<g clip-path="url(#clip0_100_249)">
<path d="M37.8735 24.5309V65.1196H28.6776L14.0118 43.7947H13.774V65.1196H2.75474V24.5309H12.1092L26.5372 45.7765H26.8543V24.5309H37.8735ZM67.1062 24.5309H78.1254V50.533C78.1254 53.6248 77.3855 56.3003 75.9057 58.5596C74.4391 60.8058 72.3911 62.5432 69.7619 63.772C67.1326 64.9875 64.0805 65.5953 60.6056 65.5953C57.1043 65.5953 54.039 64.9875 51.4097 63.772C48.7804 62.5432 46.7325 60.8058 45.2659 58.5596C43.8125 56.3003 43.0859 53.6248 43.0859 50.533V24.5309H54.1051V49.5817C54.1051 50.8369 54.3825 51.96 54.9375 52.9509C55.4924 53.9287 56.2587 54.695 57.2364 55.2499C58.2274 55.8048 59.3504 56.0823 60.6056 56.0823C61.874 56.0823 62.9971 55.8048 63.9748 55.2499C64.9525 54.695 65.7188 53.9287 66.2738 52.9509C66.8287 51.96 67.1062 50.8369 67.1062 49.5817V24.5309ZM83.3625 24.5309H97.077L106.511 47.5206H106.986L116.42 24.5309H130.135V65.1196H119.353V41.6543H119.036L109.999 64.8025H103.498L94.461 41.4957H94.1439V65.1196H83.3625V24.5309ZM135.357 65.1196V24.5309H152.956C156.048 24.5309 158.644 24.9471 160.745 25.7795C162.859 26.6118 164.451 27.7877 165.521 29.3072C166.604 30.8266 167.146 32.6169 167.146 34.6781C167.146 36.1711 166.816 37.532 166.155 38.7607C165.508 39.9895 164.596 41.0201 163.42 41.8524C162.244 42.6716 160.87 43.2398 159.298 43.5569V43.9532C161.042 44.0193 162.627 44.4619 164.054 45.2811C165.481 46.087 166.618 47.2035 167.463 48.6304C168.309 50.0442 168.732 51.709 168.732 53.6248C168.732 55.8445 168.15 57.8197 166.988 59.5506C165.838 61.2814 164.2 62.6423 162.073 63.6332C159.945 64.6242 157.409 65.1196 154.462 65.1196H135.357ZM146.376 56.3201H151.529C153.379 56.3201 154.766 55.9766 155.691 55.2895C156.616 54.5893 157.078 53.5587 157.078 52.1978C157.078 51.2465 156.86 50.4406 156.424 49.7799C155.988 49.1193 155.367 48.6172 154.561 48.2737C153.769 47.9302 152.811 47.7584 151.688 47.7584H146.376V56.3201ZM146.376 40.9408H150.895C151.859 40.9408 152.712 40.7888 153.451 40.4849C154.191 40.1811 154.766 39.745 155.176 39.1769C155.598 38.5956 155.81 37.8887 155.81 37.0563C155.81 35.8011 155.361 34.8432 154.462 34.1826C153.564 33.5088 152.427 33.1718 151.053 33.1718H146.376V40.9408ZM172.636 65.1196V24.5309H201.888V33.4097H183.655V40.3859H200.382V49.2646H183.655V56.2408H201.809V65.1196H172.636ZM207.353 65.1196V24.5309H224.873C227.886 24.5309 230.521 25.0792 232.781 26.1758C235.04 27.2725 236.797 28.8514 238.053 30.9125C239.308 32.9737 239.935 35.4444 239.935 38.3247C239.935 41.2315 239.288 43.6824 237.993 45.6775C236.712 47.6725 234.908 49.1788 232.583 50.1961C230.27 51.2135 227.568 51.7222 224.477 51.7222H214.012V43.1605H222.257C223.552 43.1605 224.655 43.0019 225.567 42.6848C226.492 42.3545 227.199 41.8326 227.687 41.1191C228.189 40.4057 228.441 39.4742 228.441 38.3247C228.441 37.162 228.189 36.2173 227.687 35.4906C227.199 34.7507 226.492 34.209 225.567 33.8655C224.655 33.5088 223.552 33.3304 222.257 33.3304H218.373V65.1196H207.353ZM231.136 46.49L241.283 65.1196H229.313L219.403 46.49H231.136ZM295.071 44.8253C295.071 49.3439 294.192 53.1557 292.435 56.2607C290.678 59.3524 288.306 61.6976 285.32 63.2963C282.334 64.8818 279.005 65.6746 275.332 65.6746C271.632 65.6746 268.289 64.8752 265.303 63.2765C262.331 61.6646 259.966 59.3127 258.208 56.221C256.464 53.1161 255.592 49.3175 255.592 44.8253C255.592 40.3066 256.464 36.5014 258.208 33.4097C259.966 30.3047 262.331 27.9595 265.303 26.374C268.289 24.7753 271.632 23.9759 275.332 23.9759C279.005 23.9759 282.334 24.7753 285.32 26.374C288.306 27.9595 290.678 30.3047 292.435 33.4097C294.192 36.5014 295.071 40.3066 295.071 44.8253ZM283.735 44.8253C283.735 42.3942 283.411 40.3462 282.764 38.6814C282.129 37.0035 281.185 35.7351 279.93 34.8762C278.688 34.0042 277.155 33.5682 275.332 33.5682C273.508 33.5682 271.969 34.0042 270.714 34.8762C269.472 35.7351 268.527 37.0035 267.88 38.6814C267.246 40.3462 266.928 42.3942 266.928 44.8253C266.928 47.2563 267.246 49.3109 267.88 50.9889C268.527 52.6536 269.472 53.922 270.714 54.7941C271.969 55.6529 273.508 56.0823 275.332 56.0823C277.155 56.0823 278.688 55.6529 279.93 54.7941C281.185 53.922 282.129 52.6536 282.764 50.9889C283.411 49.3109 283.735 47.2563 283.735 44.8253ZM300.169 65.1196V24.5309H328.708V33.4097H311.189V40.3859H326.964V49.2646H311.189V65.1196H300.169ZM343.88 65.1196V24.5309H361.399C364.412 24.5309 367.048 25.0792 369.307 26.1758C371.566 27.2725 373.324 28.8514 374.579 30.9125C375.834 32.9737 376.462 35.4444 376.462 38.3247C376.462 41.2315 375.814 43.6824 374.519 45.6775C373.238 47.6725 371.434 49.1788 369.109 50.1961C366.797 51.2135 364.095 51.7222 361.003 51.7222H350.539V43.1605H358.783C360.078 43.1605 361.181 43.0019 362.093 42.6848C363.018 42.3545 363.725 41.8326 364.214 41.1191C364.716 40.4057 364.967 39.4742 364.967 38.3247C364.967 37.162 364.716 36.2173 364.214 35.4906C363.725 34.7507 363.018 34.209 362.093 33.8655C361.181 33.5088 360.078 33.3304 358.783 33.3304H354.899V65.1196H343.88ZM367.662 46.49L377.809 65.1196H365.839L355.929 46.49H367.662ZM381.159 65.1196V24.5309H410.411V33.4097H392.178V40.3859H408.905V49.2646H392.178V56.2408H410.332V65.1196H381.159ZM453.77 39.7517H442.592C442.513 38.8268 442.301 37.9878 441.958 37.2347C441.627 36.4816 441.165 35.8342 440.57 35.2924C439.989 34.7375 439.282 34.3147 438.45 34.024C437.617 33.7202 436.673 33.5682 435.616 33.5682C433.766 33.5682 432.2 34.0174 430.919 34.9159C429.65 35.8143 428.686 37.1026 428.025 38.7805C427.378 40.4585 427.054 42.4734 427.054 44.8253C427.054 47.3092 427.384 49.3902 428.045 51.0682C428.719 52.7329 429.69 53.9881 430.958 54.8337C432.227 55.6661 433.753 56.0823 435.536 56.0823C436.554 56.0823 437.465 55.9568 438.271 55.7057C439.077 55.4415 439.778 55.0649 440.372 54.5761C440.967 54.0872 441.449 53.4992 441.819 52.8122C442.202 52.1119 442.46 51.3258 442.592 50.4538L453.77 50.533C453.637 52.2507 453.155 54.0013 452.323 55.785C451.49 57.5555 450.308 59.1938 448.775 60.7001C447.256 62.1931 445.373 63.3954 443.127 64.3071C440.881 65.2187 438.271 65.6746 435.298 65.6746C431.573 65.6746 428.23 64.8752 425.27 63.2765C422.324 61.6778 419.992 59.326 418.274 56.221C416.57 53.1161 415.718 49.3175 415.718 44.8253C415.718 40.3066 416.59 36.5014 418.334 33.4097C420.078 30.3047 422.43 27.9595 425.389 26.374C428.349 24.7753 431.652 23.9759 435.298 23.9759C437.862 23.9759 440.22 24.3261 442.374 25.0263C444.527 25.7266 446.417 26.7506 448.042 28.0982C449.667 29.4327 450.975 31.0777 451.966 33.0331C452.957 34.9886 453.558 37.2281 453.77 39.7517ZM457.104 24.5309H469.392L477.319 41.0201H477.636L485.564 24.5309H497.851L482.948 52.3564V65.1196H472.008V52.3564L457.104 24.5309ZM536.503 39.7517H525.325C525.246 38.8268 525.034 37.9878 524.691 37.2347C524.361 36.4816 523.898 35.8342 523.304 35.2924C522.722 34.7375 522.015 34.3147 521.183 34.024C520.351 33.7202 519.406 33.5682 518.349 33.5682C516.499 33.5682 514.933 34.0174 513.652 34.9159C512.383 35.8143 511.419 37.1026 510.758 38.7805C510.111 40.4585 509.787 42.4734 509.787 44.8253C509.787 47.3092 510.117 49.3902 510.778 51.0682C511.452 52.7329 512.423 53.9881 513.691 54.8337C514.96 55.6661 516.486 56.0823 518.27 56.0823C519.287 56.0823 520.199 55.9568 521.005 55.7057C521.811 55.4415 522.511 55.0649 523.105 54.5761C523.7 54.0872 524.182 53.4992 524.552 52.8122C524.935 52.1119 525.193 51.3258 525.325 50.4538L536.503 50.533C536.371 52.2507 535.888 54.0013 535.056 55.785C534.224 57.5555 533.041 59.1938 531.509 60.7001C529.989 62.1931 528.106 63.3954 525.86 64.3071C523.614 65.2187 521.005 65.6746 518.032 65.6746C514.306 65.6746 510.963 64.8752 508.003 63.2765C505.057 61.6778 502.725 59.326 501.007 56.221C499.303 53.1161 498.451 49.3175 498.451 44.8253C498.451 40.3066 499.323 36.5014 501.067 33.4097C502.811 30.3047 505.163 27.9595 508.122 26.374C511.082 24.7753 514.385 23.9759 518.032 23.9759C520.595 23.9759 522.953 24.3261 525.107 25.0263C527.261 25.7266 529.15 26.7506 530.775 28.0982C532.4 29.4327 533.708 31.0777 534.699 33.0331C535.69 34.9886 536.291 37.2281 536.503 39.7517ZM541.502 65.1196V24.5309H552.521V56.2408H568.931V65.1196H541.502ZM583.929 65.1196H572.038L585.435 24.5309H600.498L613.895 65.1196H602.004L593.125 35.7086H592.808L583.929 65.1196ZM581.709 49.1061H604.065V57.3507H581.709V49.1061ZM617.804 65.1196V24.5309H635.403C638.495 24.5309 641.091 24.9471 643.192 25.7795C645.306 26.6118 646.898 27.7877 647.968 29.3072C649.052 30.8266 649.593 32.6169 649.593 34.6781C649.593 36.1711 649.263 37.532 648.603 38.7607C647.955 39.9895 647.043 41.0201 645.868 41.8524C644.692 42.6716 643.318 43.2398 641.745 43.5569V43.9532C643.489 44.0193 645.075 44.4619 646.502 45.2811C647.929 46.087 649.065 47.2035 649.911 48.6304C650.756 50.0442 651.179 51.709 651.179 53.6248C651.179 55.8445 650.598 57.8197 649.435 59.5506C648.285 61.2814 646.647 62.6423 644.52 63.6332C642.393 64.6242 639.856 65.1196 636.909 65.1196H617.804ZM628.823 56.3201H633.976C635.826 56.3201 637.213 55.9766 638.138 55.2895C639.063 54.5893 639.526 53.5587 639.526 52.1978C639.526 51.2465 639.308 50.4406 638.872 49.7799C638.436 49.1193 637.815 48.6172 637.009 48.2737C636.216 47.9302 635.258 47.7584 634.135 47.7584H628.823V56.3201ZM628.823 40.9408H633.342C634.307 40.9408 635.159 40.7888 635.899 40.4849C636.639 40.1811 637.213 39.745 637.623 39.1769C638.046 38.5956 638.257 37.8887 638.257 37.0563C638.257 35.8011 637.808 34.8432 636.909 34.1826C636.011 33.5088 634.875 33.1718 633.501 33.1718H628.823V40.9408ZM655.083 65.1196V24.5309H666.102V56.2408H682.512V65.1196H655.083ZM686.967 65.1196V24.5309H716.219V33.4097H697.986V40.3859H714.713V49.2646H697.986V56.2408H716.14V65.1196H686.967ZM743.564 37.2149C743.458 35.8936 742.963 34.863 742.078 34.1231C741.206 33.3832 739.878 33.0133 738.094 33.0133C736.958 33.0133 736.026 33.152 735.3 33.4295C734.586 33.6937 734.058 34.0571 733.714 34.5195C733.371 34.9819 733.192 35.5104 733.179 36.105C733.153 36.5939 733.238 37.0365 733.437 37.4329C733.648 37.816 733.978 38.1662 734.428 38.4833C734.877 38.7871 735.451 39.0646 736.152 39.3156C736.852 39.5667 737.684 39.7913 738.649 39.9895L741.978 40.703C744.225 41.1786 746.147 41.8062 747.746 42.5857C749.344 43.3653 750.652 44.2835 751.67 45.3405C752.687 46.3843 753.434 47.5602 753.909 48.8683C754.398 50.1763 754.649 51.6033 754.662 53.1491C754.649 55.818 753.982 58.0774 752.661 59.9271C751.339 61.7769 749.45 63.184 746.993 64.1485C744.548 65.113 741.608 65.5953 738.173 65.5953C734.646 65.5953 731.567 65.0734 728.938 64.0296C726.322 62.9858 724.287 61.3805 722.834 59.2136C721.393 57.0336 720.667 54.2458 720.653 50.8501H731.118C731.184 52.0921 731.494 53.1359 732.049 53.9815C732.604 54.8271 733.384 55.4679 734.388 55.9039C735.405 56.3399 736.614 56.5579 738.015 56.5579C739.191 56.5579 740.175 56.4126 740.968 56.1219C741.76 55.8313 742.362 55.4283 742.771 54.913C743.181 54.3977 743.392 53.8097 743.405 53.1491C743.392 52.5281 743.187 51.9864 742.791 51.524C742.408 51.0483 741.774 50.6255 740.888 50.2556C740.003 49.8724 738.807 49.5157 737.301 49.1854L733.258 48.3133C729.664 47.5338 726.83 46.2324 724.756 44.4091C722.695 42.5725 721.671 40.0688 721.684 36.8978C721.671 34.3213 722.358 32.0686 723.745 30.1396C725.146 28.1973 727.081 26.6845 729.552 25.6011C732.036 24.5177 734.883 23.9759 738.094 23.9759C741.371 23.9759 744.205 24.5243 746.596 25.6209C748.988 26.7175 750.831 28.2634 752.126 30.2585C753.434 32.2404 754.094 34.5591 754.108 37.2149H743.564Z" fill="#9493F8"/>
<rect x="0.138672" y="82.1196" width="246" height="63" rx="31.5" fill="#9493F8"/>
<path d="M30.1449 102.41V93.5309H65.4222V102.41H53.2139V134.12H42.3532V102.41H30.1449ZM106.982 113.825C106.982 118.344 106.103 122.156 104.346 125.261C102.589 128.352 100.217 130.698 97.2313 132.296C94.2453 133.882 90.9157 134.675 87.2427 134.675C83.5432 134.675 80.2004 133.875 77.2144 132.276C74.2416 130.665 71.8765 128.313 70.1193 125.221C68.3752 122.116 67.5032 118.317 67.5032 113.825C67.5032 109.307 68.3752 105.501 70.1193 102.41C71.8765 99.3047 74.2416 96.9595 77.2144 95.374C80.2004 93.7753 83.5432 92.9759 87.2427 92.9759C90.9157 92.9759 94.2453 93.7753 97.2313 95.374C100.217 96.9595 102.589 99.3047 104.346 102.41C106.103 105.501 106.982 109.307 106.982 113.825ZM95.6458 113.825C95.6458 111.394 95.3221 109.346 94.6747 107.681C94.0405 106.003 93.0958 104.735 91.8406 103.876C90.5986 103.004 89.066 102.568 87.2427 102.568C85.4193 102.568 83.8801 103.004 82.6249 103.876C81.3829 104.735 80.4382 106.003 79.7908 107.681C79.1566 109.346 78.8395 111.394 78.8395 113.825C78.8395 116.256 79.1566 118.311 79.7908 119.989C80.4382 121.654 81.3829 122.922 82.6249 123.794C83.8801 124.653 85.4193 125.082 87.2427 125.082C89.066 125.082 90.5986 124.653 91.8406 123.794C93.0958 122.922 94.0405 121.654 94.6747 119.989C95.3221 118.311 95.6458 116.256 95.6458 113.825ZM109.063 102.41V93.5309H144.34V102.41H132.132V134.12H121.271V102.41H109.063ZM153.908 134.12H142.017L155.414 93.5309H170.476L183.874 134.12H171.983L163.104 104.709H162.787L153.908 134.12ZM151.688 118.106H174.044V126.351H151.688V118.106ZM187.783 134.12V93.5309H198.802V125.241H215.212V134.12H187.783Z" fill="white"/>
<rect x="254.139" y="79.1196" width="353" height="66" rx="33" fill="#9493F8"/>
<path d="M285.994 133.254C283.087 133.254 280.583 132.739 278.482 131.708C276.382 130.677 274.77 129.297 273.647 127.566C272.524 125.835 271.962 123.926 271.962 121.838C271.962 120.319 272.253 118.978 272.834 117.815C273.415 116.639 274.228 115.562 275.272 114.584C276.316 113.607 277.538 112.642 278.938 111.691L288.134 105.983C289.059 105.402 289.687 104.801 290.017 104.18C290.347 103.545 290.512 102.984 290.512 102.495C290.512 101.847 290.275 101.273 289.799 100.771C289.323 100.269 288.583 100.024 287.579 100.037C286.958 100.037 286.423 100.156 285.974 100.394C285.525 100.619 285.175 100.936 284.924 101.345C284.686 101.755 284.567 102.244 284.567 102.812C284.567 103.592 284.791 104.391 285.241 105.21C285.69 106.016 286.304 106.888 287.084 107.826C287.863 108.764 288.742 109.815 289.72 110.977L309.38 132.62H298.44L281.951 115.179C281.145 114.32 280.253 113.27 279.275 112.028C278.297 110.773 277.452 109.359 276.738 107.787C276.038 106.214 275.688 104.503 275.688 102.653C275.688 100.592 276.183 98.7095 277.174 97.0051C278.165 95.3007 279.553 93.9398 281.336 92.9224C283.12 91.905 285.201 91.3963 287.579 91.3963C289.852 91.3963 291.807 91.8654 293.446 92.8035C295.097 93.7416 296.366 94.9902 297.251 96.5492C298.149 98.1083 298.599 99.826 298.599 101.702C298.599 103.592 298.13 105.355 297.191 106.994C296.267 108.632 294.939 110.066 293.208 111.295L284.805 117.24C284.157 117.689 283.596 118.205 283.12 118.786C282.658 119.367 282.426 120.121 282.426 121.045C282.426 121.812 282.605 122.466 282.961 123.007C283.318 123.549 283.82 123.965 284.468 124.256C285.128 124.547 285.901 124.692 286.787 124.692C288.134 124.692 289.482 124.368 290.83 123.721C292.19 123.06 293.432 122.142 294.556 120.966C295.679 119.777 296.577 118.376 297.251 116.765C297.938 115.139 298.281 113.369 298.281 111.453H306.923C306.923 113.805 306.678 116.071 306.189 118.251C305.7 120.431 304.914 122.426 303.831 124.236C302.747 126.046 301.32 127.572 299.55 128.814C298.995 129.092 298.453 129.356 297.925 129.607C297.396 129.858 296.855 130.122 296.3 130.4C294.674 131.444 292.977 132.184 291.206 132.62C289.436 133.042 287.698 133.254 285.994 133.254ZM332.215 132.62H320.324L333.721 92.0305H348.784L362.181 132.62H350.29L341.411 103.208H341.094L332.215 132.62ZM329.995 116.606H352.351V124.851H329.995V116.606ZM370.745 92.0305L379.069 120.649H379.386L387.71 92.0305H400.156L386.758 132.62H371.696L358.298 92.0305H370.745ZM403.507 132.62V92.0305H432.76V100.909H414.526V107.886H431.254V116.765H414.526V123.741H432.681V132.62H403.507ZM437.667 132.62V92.0305H455.187C458.199 92.0305 460.835 92.5789 463.094 93.6755C465.354 94.7721 467.111 96.3511 468.366 98.4122C469.621 100.473 470.249 102.944 470.249 105.824C470.249 108.731 469.602 111.182 468.307 113.177C467.025 115.172 465.222 116.679 462.896 117.696C460.584 118.713 457.882 119.222 454.79 119.222H444.326V110.66H452.571C453.865 110.66 454.969 110.502 455.88 110.185C456.805 109.854 457.512 109.332 458.001 108.619C458.503 107.905 458.754 106.974 458.754 105.824C458.754 104.662 458.503 103.717 458.001 102.99C457.512 102.25 456.805 101.709 455.88 101.365C454.969 101.008 453.865 100.83 452.571 100.83H448.686V132.62H437.667ZM461.449 113.99L471.597 132.62H459.626L449.717 113.99H461.449ZM484.932 132.62H473.04L486.438 92.0305H501.5L514.898 132.62H503.007L494.128 103.208H493.811L484.932 132.62ZM482.712 116.606H505.068V124.851H482.712V116.606ZM542.701 105.428C542.529 104.728 542.258 104.113 541.888 103.585C541.518 103.043 541.056 102.587 540.501 102.217C539.959 101.834 539.325 101.55 538.598 101.365C537.885 101.167 537.098 101.068 536.24 101.068C534.39 101.068 532.811 101.511 531.503 102.396C530.208 103.281 529.217 104.556 528.53 106.221C527.856 107.886 527.519 109.894 527.519 112.246C527.519 114.624 527.843 116.659 528.49 118.35C529.138 120.041 530.102 121.336 531.384 122.235C532.666 123.133 534.258 123.582 536.16 123.582C537.838 123.582 539.232 123.338 540.342 122.849C541.465 122.36 542.304 121.666 542.859 120.768C543.414 119.869 543.692 118.812 543.692 117.597L545.594 117.795H536.319V109.947H554.314V115.575C554.314 119.275 553.528 122.439 551.956 125.069C550.397 127.685 548.243 129.693 545.495 131.094C542.76 132.481 539.622 133.175 536.081 133.175C532.13 133.175 528.662 132.336 525.676 130.658C522.69 128.98 520.358 126.588 518.68 123.483C517.015 120.378 516.183 116.685 516.183 112.404C516.183 109.048 516.692 106.076 517.709 103.486C518.74 100.896 520.166 98.7095 521.99 96.9258C523.813 95.1289 525.921 93.7746 528.312 92.8629C530.704 91.938 533.267 91.4756 536.002 91.4756C538.406 91.4756 540.639 91.8191 542.701 92.5062C544.775 93.18 546.605 94.1446 548.19 95.3997C549.789 96.6417 551.077 98.1149 552.055 99.8194C553.033 101.524 553.627 103.393 553.839 105.428H542.701ZM558.894 132.62V92.0305H588.147V100.909H569.914V107.886H586.641V116.765H569.914V123.741H588.068V132.62H558.894Z" fill="white"/>
<rect x="615.139" y="79.1196" width="437" height="66" rx="33" fill="#9493F8"/>
<path d="M645.755 132.62V92.0305H663.354C666.446 92.0305 669.042 92.4467 671.143 93.2791C673.257 94.1115 674.849 95.2874 675.919 96.8069C677.003 98.3263 677.544 100.117 677.544 102.178C677.544 103.671 677.214 105.032 676.553 106.261C675.906 107.489 674.994 108.52 673.818 109.352C672.642 110.171 671.268 110.74 669.696 111.057V111.453C671.44 111.519 673.026 111.962 674.453 112.781C675.879 113.587 677.016 114.703 677.861 116.13C678.707 117.544 679.13 119.209 679.13 121.125C679.13 123.344 678.548 125.32 677.386 127.051C676.236 128.781 674.598 130.142 672.471 131.133C670.343 132.124 667.807 132.62 664.86 132.62H645.755ZM656.774 123.82H661.927C663.777 123.82 665.164 123.477 666.089 122.789C667.014 122.089 667.476 121.059 667.476 119.698C667.476 118.746 667.258 117.94 666.822 117.28C666.386 116.619 665.765 116.117 664.959 115.774C664.167 115.43 663.209 115.258 662.086 115.258H656.774V123.82ZM656.774 108.441H661.293C662.257 108.441 663.11 108.289 663.849 107.985C664.589 107.681 665.164 107.245 665.574 106.677C665.996 106.095 666.208 105.388 666.208 104.556C666.208 103.301 665.759 102.343 664.86 101.682C663.962 101.008 662.825 100.672 661.451 100.672H656.774V108.441ZM680.811 92.0305H693.099L701.026 108.52H701.344L709.271 92.0305H721.559L706.655 119.856V132.62H695.715V119.856L680.811 92.0305ZM735.153 132.62V92.0305H746.173V123.741H762.583V132.62H735.153ZM804.219 112.325C804.219 116.844 803.34 120.656 801.583 123.761C799.826 126.852 797.454 129.198 794.468 130.796C791.482 132.382 788.152 133.175 784.479 133.175C780.78 133.175 777.437 132.375 774.451 130.776C771.478 129.165 769.113 126.813 767.356 123.721C765.612 120.616 764.74 116.817 764.74 112.325C764.74 107.806 765.612 104.001 767.356 100.909C769.113 97.8044 771.478 95.4592 774.451 93.8737C777.437 92.275 780.78 91.4756 784.479 91.4756C788.152 91.4756 791.482 92.275 794.468 93.8737C797.454 95.4592 799.826 97.8044 801.583 100.909C803.34 104.001 804.219 107.806 804.219 112.325ZM792.882 112.325C792.882 109.894 792.559 107.846 791.911 106.181C791.277 104.503 790.332 103.235 789.077 102.376C787.835 101.504 786.303 101.068 784.479 101.068C782.656 101.068 781.117 101.504 779.861 102.376C778.619 103.235 777.675 104.503 777.027 106.181C776.393 107.846 776.076 109.894 776.076 112.325C776.076 114.756 776.393 116.811 777.027 118.489C777.675 120.154 778.619 121.422 779.861 122.294C781.117 123.153 782.656 123.582 784.479 123.582C786.303 123.582 787.835 123.153 789.077 122.294C790.332 121.422 791.277 120.154 791.911 118.489C792.559 116.811 792.882 114.756 792.882 112.325ZM846.653 107.251H835.475C835.396 106.327 835.184 105.488 834.841 104.734C834.511 103.981 834.048 103.334 833.454 102.792C832.872 102.237 832.165 101.814 831.333 101.524C830.501 101.22 829.556 101.068 828.499 101.068C826.649 101.068 825.083 101.517 823.802 102.416C822.533 103.314 821.569 104.602 820.908 106.28C820.261 107.958 819.937 109.973 819.937 112.325C819.937 114.809 820.267 116.89 820.928 118.568C821.602 120.233 822.573 121.488 823.841 122.334C825.11 123.166 826.636 123.582 828.42 123.582C829.437 123.582 830.349 123.457 831.155 123.206C831.961 122.941 832.661 122.565 833.255 122.076C833.85 121.587 834.332 120.999 834.702 120.312C835.085 119.612 835.343 118.826 835.475 117.954L846.653 118.033C846.521 119.751 846.039 121.501 845.206 123.285C844.374 125.055 843.191 126.694 841.659 128.2C840.139 129.693 838.256 130.895 836.01 131.807C833.764 132.719 831.155 133.175 828.182 133.175C824.456 133.175 821.113 132.375 818.153 130.776C815.207 129.178 812.875 126.826 811.157 123.721C809.453 120.616 808.601 116.817 808.601 112.325C808.601 107.806 809.473 104.001 811.217 100.909C812.961 97.8044 815.313 95.4592 818.272 93.8737C821.232 92.275 824.535 91.4756 828.182 91.4756C830.745 91.4756 833.103 91.8257 835.257 92.526C837.411 93.2263 839.3 94.2503 840.925 95.5979C842.55 96.9324 843.858 98.5774 844.849 100.533C845.84 102.488 846.442 104.728 846.653 107.251ZM860.384 132.62H848.493L861.89 92.0305H876.953L890.35 132.62H878.459L869.58 103.208H869.263L860.384 132.62ZM858.165 116.606H880.52V124.851H858.165V116.606ZM887.469 100.909V92.0305H922.746V100.909H910.538V132.62H899.677V100.909H887.469ZM937.354 92.0305V132.62H926.335V92.0305H937.354ZM981.339 112.325C981.339 116.844 980.461 120.656 978.703 123.761C976.946 126.852 974.575 129.198 971.588 130.796C968.602 132.382 965.273 133.175 961.6 133.175C957.9 133.175 954.557 132.375 951.571 130.776C948.599 129.165 946.233 126.813 944.476 123.721C942.732 120.616 941.86 116.817 941.86 112.325C941.86 107.806 942.732 104.001 944.476 100.909C946.233 97.8044 948.599 95.4592 951.571 93.8737C954.557 92.275 957.9 91.4756 961.6 91.4756C965.273 91.4756 968.602 92.275 971.588 93.8737C974.575 95.4592 976.946 97.8044 978.703 100.909C980.461 104.001 981.339 107.806 981.339 112.325ZM970.003 112.325C970.003 109.894 969.679 107.846 969.032 106.181C968.398 104.503 967.453 103.235 966.198 102.376C964.956 101.504 963.423 101.068 961.6 101.068C959.776 101.068 958.237 101.504 956.982 102.376C955.74 103.235 954.795 104.503 954.148 106.181C953.514 107.846 953.197 109.894 953.197 112.325C953.197 114.756 953.514 116.811 954.148 118.489C954.795 120.154 955.74 121.422 956.982 122.294C958.237 123.153 959.776 123.582 961.6 123.582C963.423 123.582 964.956 123.153 966.198 122.294C967.453 121.422 968.398 120.154 969.032 118.489C969.679 116.811 970.003 114.756 970.003 112.325ZM1021 92.0305V132.62H1011.8L997.137 111.295H996.899V132.62H985.88V92.0305H995.234L1009.66 113.276H1009.98V92.0305H1021Z" fill="white"/>
</g>
<defs>
<clipPath id="clip0_100_249">
<rect width="1165" height="169" fill="white" transform="translate(0.138672 0.119629)"/>
</clipPath>
</defs>
</svg>
