<svg width="1189" height="168" viewBox="0 0 1189 168" fill="none" xmlns="http://www.w3.org/2000/svg">
<path d="M65.7349 23.4112V64H56.539L41.8731 42.675H41.6353V64H30.6161V23.4112H39.9705L54.3985 44.6569H54.7156V23.4112H65.7349ZM94.9675 23.4112H105.987V49.4134C105.987 52.5051 105.247 55.1807 103.767 57.44C102.3 59.6861 100.252 61.4236 97.6232 62.6523C94.9939 63.8679 91.9418 64.4756 88.4669 64.4756C84.9656 64.4756 81.9003 63.8679 79.2711 62.6523C76.6418 61.4236 74.5938 59.6861 73.1272 57.44C71.6739 55.1807 70.9472 52.5051 70.9472 49.4134V23.4112H81.9664V48.4621C81.9664 49.7173 82.2439 50.8404 82.7988 51.8313C83.3537 52.809 84.12 53.5753 85.0978 54.1303C86.0887 54.6852 87.2118 54.9627 88.4669 54.9627C89.7353 54.9627 90.8584 54.6852 91.8361 54.1303C92.8138 53.5753 93.5802 52.809 94.1351 51.8313C94.69 50.8404 94.9675 49.7173 94.9675 48.4621V23.4112ZM111.224 23.4112H124.938L134.372 46.401H134.848L144.281 23.4112H157.996V64H147.215V40.5346H146.898L137.86 63.6829H131.36L122.322 40.3761H122.005V64H111.224V23.4112ZM163.218 64V23.4112H180.817C183.909 23.4112 186.505 23.8274 188.606 24.6598C190.72 25.4922 192.312 26.6681 193.382 28.1876C194.466 29.707 195.007 31.4973 195.007 33.5584C195.007 35.0514 194.677 36.4123 194.017 37.6411C193.369 38.8699 192.457 39.9004 191.282 40.7328C190.106 41.552 188.732 42.1201 187.159 42.4372V42.8336C188.903 42.8997 190.489 43.3423 191.916 44.1615C193.343 44.9674 194.479 46.0839 195.325 47.5108C196.17 48.9246 196.593 50.5893 196.593 52.5051C196.593 54.7248 196.012 56.7001 194.849 58.4309C193.699 60.1618 192.061 61.5227 189.934 62.5136C187.807 63.5045 185.27 64 182.323 64H163.218ZM174.237 55.2005H179.39C181.24 55.2005 182.627 54.857 183.552 54.1699C184.477 53.4696 184.94 52.4391 184.94 51.0782C184.94 50.1269 184.722 49.3209 184.286 48.6603C183.85 47.9997 183.229 47.4976 182.423 47.1541C181.63 46.8106 180.672 46.6388 179.549 46.6388H174.237V55.2005ZM174.237 39.8212H178.756C179.721 39.8212 180.573 39.6692 181.313 39.3653C182.053 39.0614 182.627 38.6254 183.037 38.0573C183.46 37.4759 183.671 36.7691 183.671 35.9367C183.671 34.6815 183.222 33.7236 182.323 33.063C181.425 32.3891 180.289 32.0522 178.915 32.0522H174.237V39.8212ZM200.497 64V23.4112H229.75V32.29H211.516V39.2662H228.243V48.145H211.516V55.1212H229.67V64H200.497ZM235.215 64V23.4112H252.734C255.747 23.4112 258.383 23.9596 260.642 25.0562C262.901 26.1528 264.659 27.7317 265.914 29.7929C267.169 31.854 267.797 34.3248 267.797 37.2051C267.797 40.1118 267.149 42.5627 265.854 44.5578C264.573 46.5529 262.769 48.0591 260.444 49.0765C258.132 50.0939 255.43 50.6025 252.338 50.6025H241.874V42.0408H250.118C251.413 42.0408 252.516 41.8823 253.428 41.5652C254.353 41.2349 255.06 40.713 255.549 39.9995C256.051 39.286 256.302 38.3546 256.302 37.2051C256.302 36.0424 256.051 35.0977 255.549 34.371C255.06 33.6311 254.353 33.0894 253.428 32.7459C252.516 32.3891 251.413 32.2108 250.118 32.2108H246.234V64H235.215ZM258.997 45.3704L269.144 64H257.174L247.265 45.3704H258.997ZM322.932 43.7056C322.932 48.2243 322.054 52.0361 320.297 55.141C318.539 58.2327 316.168 60.578 313.182 62.1767C310.196 63.7622 306.866 64.5549 303.193 64.5549C299.493 64.5549 296.151 63.7556 293.165 62.1569C290.192 60.5449 287.827 58.1931 286.07 55.1014C284.326 51.9965 283.454 48.1979 283.454 43.7056C283.454 39.187 284.326 35.3818 286.07 32.29C287.827 29.1851 290.192 26.8399 293.165 25.2544C296.151 23.6557 299.493 22.8563 303.193 22.8563C306.866 22.8563 310.196 23.6557 313.182 25.2544C316.168 26.8399 318.539 29.1851 320.297 32.29C322.054 35.3818 322.932 39.187 322.932 43.7056ZM311.596 43.7056C311.596 41.2745 311.272 39.2266 310.625 37.5618C309.991 35.8838 309.046 34.6154 307.791 33.7566C306.549 32.8846 305.016 32.4486 303.193 32.4486C301.37 32.4486 299.83 32.8846 298.575 33.7566C297.333 34.6154 296.389 35.8838 295.741 37.5618C295.107 39.2266 294.79 41.2745 294.79 43.7056C294.79 46.1367 295.107 48.1913 295.741 49.8692C296.389 51.534 297.333 52.8024 298.575 53.6744C299.83 54.5333 301.37 54.9627 303.193 54.9627C305.016 54.9627 306.549 54.5333 307.791 53.6744C309.046 52.8024 309.991 51.534 310.625 49.8692C311.272 48.1913 311.596 46.1367 311.596 43.7056ZM328.031 64V23.4112H356.57V32.29H339.05V39.2662H354.826V48.145H339.05V64H328.031ZM371.741 64V23.4112H389.261C392.273 23.4112 394.909 23.9596 397.168 25.0562C399.428 26.1528 401.185 27.7317 402.44 29.7929C403.695 31.854 404.323 34.3248 404.323 37.2051C404.323 40.1118 403.676 42.5627 402.381 44.5578C401.099 46.5529 399.296 48.0591 396.97 49.0765C394.658 50.0939 391.956 50.6025 388.864 50.6025H378.4V42.0408H386.645C387.939 42.0408 389.043 41.8823 389.954 41.5652C390.879 41.2349 391.586 40.713 392.075 39.9995C392.577 39.286 392.828 38.3546 392.828 37.2051C392.828 36.0424 392.577 35.0977 392.075 34.371C391.586 33.6311 390.879 33.0894 389.954 32.7459C389.043 32.3891 387.939 32.2108 386.645 32.2108H382.76V64H371.741ZM395.523 45.3704L405.671 64H393.7L383.791 45.3704H395.523ZM409.02 64V23.4112H438.272V32.29H420.039V39.2662H436.766V48.145H420.039V55.1212H438.193V64H409.02ZM470.096 36.8087C469.925 36.1084 469.654 35.4941 469.284 34.9656C468.914 34.4239 468.451 33.968 467.897 33.5981C467.355 33.2149 466.721 32.9308 465.994 32.7459C465.28 32.5477 464.494 32.4486 463.635 32.4486C461.786 32.4486 460.207 32.8912 458.899 33.7764C457.604 34.6617 456.613 35.9367 455.926 37.6015C455.252 39.2662 454.915 41.2745 454.915 43.6263C454.915 46.0046 455.239 48.0393 455.886 49.7305C456.534 51.4217 457.498 52.7165 458.78 53.615C460.061 54.5134 461.654 54.9627 463.556 54.9627C465.234 54.9627 466.628 54.7182 467.738 54.2294C468.861 53.7405 469.7 53.0468 470.255 52.1484C470.81 51.25 471.087 50.193 471.087 48.9774L472.99 49.1756H463.715V41.3274H481.71V46.9559C481.71 50.6554 480.924 53.8198 479.352 56.4491C477.793 59.0651 475.639 61.0734 472.891 62.474C470.156 63.8613 467.018 64.5549 463.477 64.5549C459.526 64.5549 456.058 63.7159 453.072 62.0379C450.086 60.36 447.754 57.9685 446.076 54.8636C444.411 51.7586 443.579 48.0657 443.579 43.7849C443.579 40.4289 444.088 37.4561 445.105 34.8665C446.136 32.2768 447.562 30.0902 449.386 28.3065C451.209 26.5096 453.317 25.1553 455.708 24.2436C458.099 23.3188 460.663 22.8563 463.398 22.8563C465.802 22.8563 468.035 23.1998 470.096 23.8869C472.171 24.5607 474.001 25.5252 475.586 26.7804C477.185 28.0224 478.473 29.4956 479.451 31.2C480.429 32.9044 481.023 34.774 481.235 36.8087H470.096ZM497.867 23.4112V64H486.848V23.4112H497.867ZM524.969 36.0952C524.864 34.774 524.368 33.7434 523.483 33.0035C522.611 32.2636 521.283 31.8937 519.5 31.8937C518.363 31.8937 517.432 32.0324 516.705 32.3099C515.992 32.5741 515.463 32.9374 515.12 33.3999C514.776 33.8623 514.598 34.3908 514.584 34.9854C514.558 35.4742 514.644 35.9169 514.842 36.3132C515.054 36.6964 515.384 37.0465 515.833 37.3636C516.282 37.6675 516.857 37.945 517.557 38.196C518.258 38.4471 519.09 38.6717 520.054 38.8699L523.384 39.5833C525.63 40.059 527.553 40.6866 529.151 41.4661C530.75 42.2456 532.058 43.1639 533.075 44.2209C534.093 45.2647 534.839 46.4406 535.315 47.7486C535.804 49.0567 536.055 50.4836 536.068 52.0295C536.055 54.6984 535.388 56.9577 534.066 58.8075C532.745 60.6572 530.856 62.0644 528.398 63.0289C525.954 63.9934 523.014 64.4756 519.579 64.4756C516.051 64.4756 512.973 63.9538 510.343 62.91C507.727 61.8662 505.692 60.2609 504.239 58.094C502.799 55.914 502.072 53.1261 502.059 49.7305H512.523C512.589 50.9725 512.9 52.0163 513.455 52.8619C514.01 53.7075 514.789 54.3483 515.793 54.7843C516.811 55.2203 518.02 55.4383 519.42 55.4383C520.596 55.4383 521.58 55.293 522.373 55.0023C523.166 54.7116 523.767 54.3086 524.177 53.7934C524.586 53.2781 524.798 52.6901 524.811 52.0295C524.798 51.4085 524.593 50.8668 524.197 50.4044C523.813 49.9287 523.179 49.5059 522.294 49.136C521.409 48.7528 520.213 48.3961 518.707 48.0657L514.664 47.1937C511.07 46.4142 508.236 45.1128 506.162 43.2894C504.1 41.4529 503.076 38.9491 503.09 35.7781C503.076 33.2017 503.763 30.949 505.151 29.0199C506.551 27.0777 508.487 25.5649 510.958 24.4815C513.442 23.398 516.289 22.8563 519.5 22.8563C522.776 22.8563 525.61 23.4046 528.002 24.5013C530.393 25.5979 532.236 27.1438 533.531 29.1389C534.839 31.1207 535.5 33.4395 535.513 36.0952H524.969ZM539.15 32.29V23.4112H574.427V32.29H562.219V64H551.358V32.29H539.15ZM578.574 64V23.4112H607.827V32.29H589.593V39.2662H606.32V48.145H589.593V55.1212H607.747V64H578.574ZM613.292 64V23.4112H630.811C633.824 23.4112 636.46 23.9596 638.719 25.0562C640.978 26.1528 642.736 27.7317 643.991 29.7929C645.246 31.854 645.874 34.3248 645.874 37.2051C645.874 40.1118 645.226 42.5627 643.931 44.5578C642.65 46.5529 640.846 48.0591 638.521 49.0765C636.209 50.0939 633.507 50.6025 630.415 50.6025H619.951V42.0408H628.195C629.49 42.0408 630.593 41.8823 631.505 41.5652C632.43 41.2349 633.137 40.713 633.626 39.9995C634.128 39.286 634.379 38.3546 634.379 37.2051C634.379 36.0424 634.128 35.0977 633.626 34.371C633.137 33.6311 632.43 33.0894 631.505 32.7459C630.593 32.3891 629.49 32.2108 628.195 32.2108H624.311V64H613.292ZM637.074 45.3704L647.221 64H635.251L625.341 45.3704H637.074ZM650.571 64V23.4112H679.823V32.29H661.59V39.2662H678.317V48.145H661.59V55.1212H679.744V64H650.571ZM700.905 64H685.288V23.4112H700.747C704.922 23.4112 708.529 24.2238 711.568 25.8489C714.62 27.4609 716.972 29.7863 718.623 32.8251C720.288 35.8508 721.12 39.4776 721.12 43.7056C721.12 47.9336 720.295 51.5671 718.643 54.6059C716.991 57.6316 714.653 59.957 711.627 61.5821C708.602 63.194 705.028 64 700.905 64ZM696.307 54.6456H700.509C702.517 54.6456 704.228 54.3219 705.642 53.6744C707.069 53.027 708.152 51.9106 708.892 50.3251C709.645 48.7396 710.022 46.5331 710.022 43.7056C710.022 40.8781 709.639 38.6717 708.872 37.0862C708.119 35.5007 707.009 34.3842 705.543 33.7368C704.089 33.0894 702.306 32.7657 700.192 32.7657H696.307V54.6456ZM761.357 23.4112H772.377V49.4134C772.377 52.5051 771.637 55.1807 770.157 57.44C768.69 59.6861 766.642 61.4236 764.013 62.6523C761.384 63.8679 758.332 64.4756 754.857 64.4756C751.356 64.4756 748.29 63.8679 745.661 62.6523C743.032 61.4236 740.984 59.6861 739.517 57.44C738.064 55.1807 737.337 52.5051 737.337 49.4134V23.4112H748.356V48.4621C748.356 49.7173 748.634 50.8404 749.189 51.8313C749.744 52.809 750.51 53.5753 751.488 54.1303C752.479 54.6852 753.602 54.9627 754.857 54.9627C756.125 54.9627 757.248 54.6852 758.226 54.1303C759.204 53.5753 759.97 52.809 760.525 51.8313C761.08 50.8404 761.357 49.7173 761.357 48.4621V23.4112ZM799.494 36.0952C799.388 34.774 798.892 33.7434 798.007 33.0035C797.135 32.2636 795.807 31.8937 794.024 31.8937C792.887 31.8937 791.956 32.0324 791.229 32.3099C790.516 32.5741 789.987 32.9374 789.644 33.3999C789.3 33.8623 789.122 34.3908 789.109 34.9854C789.082 35.4742 789.168 35.9169 789.366 36.3132C789.578 36.6964 789.908 37.0465 790.357 37.3636C790.806 37.6675 791.381 37.945 792.081 38.196C792.782 38.4471 793.614 38.6717 794.579 38.8699L797.908 39.5833C800.154 40.059 802.077 40.6866 803.675 41.4661C805.274 42.2456 806.582 43.1639 807.599 44.2209C808.617 45.2647 809.363 46.4406 809.839 47.7486C810.328 49.0567 810.579 50.4836 810.592 52.0295C810.579 54.6984 809.912 56.9577 808.59 58.8075C807.269 60.6572 805.38 62.0644 802.922 63.0289C800.478 63.9934 797.538 64.4756 794.103 64.4756C790.575 64.4756 787.497 63.9538 784.867 62.91C782.251 61.8662 780.217 60.2609 778.763 58.094C777.323 55.914 776.596 53.1261 776.583 49.7305H787.047C787.113 50.9725 787.424 52.0163 787.979 52.8619C788.534 53.7075 789.313 54.3483 790.317 54.7843C791.335 55.2203 792.544 55.4383 793.944 55.4383C795.12 55.4383 796.105 55.293 796.897 55.0023C797.69 54.7116 798.291 54.3086 798.701 53.7934C799.11 53.2781 799.322 52.6901 799.335 52.0295C799.322 51.4085 799.117 50.8668 798.721 50.4044C798.337 49.9287 797.703 49.5059 796.818 49.136C795.933 48.7528 794.737 48.3961 793.231 48.0657L789.188 47.1937C785.594 46.4142 782.76 45.1128 780.686 43.2894C778.624 41.4529 777.6 38.9491 777.614 35.7781C777.6 33.2017 778.288 30.949 779.675 29.0199C781.075 27.0777 783.011 25.5649 785.482 24.4815C787.966 23.398 790.813 22.8563 794.024 22.8563C797.3 22.8563 800.134 23.4046 802.526 24.5013C804.917 25.5979 806.76 27.1438 808.055 29.1389C809.363 31.1207 810.024 33.4395 810.037 36.0952H799.494ZM814.784 64V23.4112H844.036V32.29H825.803V39.2662H842.53V48.145H825.803V55.1212H843.957V64H814.784ZM849.501 64V23.4112H867.021C870.033 23.4112 872.669 23.9596 874.929 25.0562C877.188 26.1528 878.945 27.7317 880.2 29.7929C881.456 31.854 882.083 34.3248 882.083 37.2051C882.083 40.1118 881.436 42.5627 880.141 44.5578C878.859 46.5529 877.056 48.0591 874.73 49.0765C872.418 50.0939 869.716 50.6025 866.625 50.6025H856.16V42.0408H864.405C865.7 42.0408 866.803 41.8823 867.715 41.5652C868.639 41.2349 869.346 40.713 869.835 39.9995C870.337 39.286 870.588 38.3546 870.588 37.2051C870.588 36.0424 870.337 35.0977 869.835 34.371C869.346 33.6311 868.639 33.0894 867.715 32.7459C866.803 32.3891 865.7 32.2108 864.405 32.2108H860.52V64H849.501ZM873.284 45.3704L883.431 64H871.46L861.551 45.3704H873.284ZM908.66 36.0952C908.554 34.774 908.059 33.7434 907.174 33.0035C906.302 32.2636 904.974 31.8937 903.19 31.8937C902.054 31.8937 901.122 32.0324 900.396 32.3099C899.682 32.5741 899.154 32.9374 898.81 33.3999C898.467 33.8623 898.288 34.3908 898.275 34.9854C898.249 35.4742 898.335 35.9169 898.533 36.3132C898.744 36.6964 899.074 37.0465 899.524 37.3636C899.973 37.6675 900.548 37.945 901.248 38.196C901.948 38.4471 902.781 38.6717 903.745 38.8699L907.075 39.5833C909.321 40.059 911.243 40.6866 912.842 41.4661C914.441 42.2456 915.749 43.1639 916.766 44.2209C917.783 45.2647 918.53 46.4406 919.005 47.7486C919.494 49.0567 919.745 50.4836 919.759 52.0295C919.745 54.6984 919.078 56.9577 917.757 58.8075C916.436 60.6572 914.546 62.0644 912.089 63.0289C909.644 63.9934 906.705 64.4756 903.269 64.4756C899.742 64.4756 896.663 63.9538 894.034 62.91C891.418 61.8662 889.383 60.2609 887.93 58.094C886.49 55.914 885.763 53.1261 885.75 49.7305H896.214C896.28 50.9725 896.59 52.0163 897.145 52.8619C897.7 53.7075 898.48 54.3483 899.484 54.7843C900.501 55.2203 901.71 55.4383 903.111 55.4383C904.287 55.4383 905.271 55.293 906.064 55.0023C906.857 54.7116 907.458 54.3086 907.867 53.7934C908.277 53.2781 908.488 52.6901 908.502 52.0295C908.488 51.4085 908.284 50.8668 907.887 50.4044C907.504 49.9287 906.87 49.5059 905.985 49.136C905.099 48.7528 903.904 48.3961 902.397 48.0657L898.354 47.1937C894.761 46.4142 891.926 45.1128 889.852 43.2894C887.791 41.4529 886.767 38.9491 886.78 35.7781C886.767 33.2017 887.454 30.949 888.841 29.0199C890.242 27.0777 892.177 25.5649 894.648 24.4815C897.132 23.398 899.979 22.8563 903.19 22.8563C906.467 22.8563 909.301 23.4046 911.692 24.5013C914.084 25.5979 915.927 27.1438 917.222 29.1389C918.53 31.1207 919.19 33.4395 919.204 36.0952H908.66ZM946.167 23.4112L954.491 52.0295H954.808L963.132 23.4112H975.578L962.181 64H947.118L933.721 23.4112H946.167ZM990.506 23.4112V64H979.487V23.4112H990.506ZM1017.61 36.0952C1017.5 34.774 1017.01 33.7434 1016.12 33.0035C1015.25 32.2636 1013.92 31.8937 1012.14 31.8937C1011 31.8937 1010.07 32.0324 1009.34 32.3099C1008.63 32.5741 1008.1 32.9374 1007.76 33.3999C1007.42 33.8623 1007.24 34.3908 1007.22 34.9854C1007.2 35.4742 1007.28 35.9169 1007.48 36.3132C1007.69 36.6964 1008.02 37.0465 1008.47 37.3636C1008.92 37.6675 1009.5 37.945 1010.2 38.196C1010.9 38.4471 1011.73 38.6717 1012.69 38.8699L1016.02 39.5833C1018.27 40.059 1020.19 40.6866 1021.79 41.4661C1023.39 42.2456 1024.7 43.1639 1025.71 44.2209C1026.73 45.2647 1027.48 46.4406 1027.95 47.7486C1028.44 49.0567 1028.69 50.4836 1028.71 52.0295C1028.69 54.6984 1028.03 56.9577 1026.71 58.8075C1025.38 60.6572 1023.49 62.0644 1021.04 63.0289C1018.59 63.9934 1015.65 64.4756 1012.22 64.4756C1008.69 64.4756 1005.61 63.9538 1002.98 62.91C1000.37 61.8662 998.332 60.2609 996.878 58.094C995.438 55.914 994.711 53.1261 994.698 49.7305H1005.16C1005.23 50.9725 1005.54 52.0163 1006.09 52.8619C1006.65 53.7075 1007.43 54.3483 1008.43 54.7843C1009.45 55.2203 1010.66 55.4383 1012.06 55.4383C1013.24 55.4383 1014.22 55.293 1015.01 55.0023C1015.81 54.7116 1016.41 54.3086 1016.82 53.7934C1017.23 53.2781 1017.44 52.6901 1017.45 52.0295C1017.44 51.4085 1017.23 50.8668 1016.84 50.4044C1016.45 49.9287 1015.82 49.5059 1014.93 49.136C1014.05 48.7528 1012.85 48.3961 1011.35 48.0657L1007.3 47.1937C1003.71 46.4142 1000.87 45.1128 998.801 43.2894C996.739 41.4529 995.715 38.9491 995.729 35.7781C995.715 33.2017 996.403 30.949 997.79 29.0199C999.19 27.0777 1001.13 25.5649 1003.6 24.4815C1006.08 23.398 1008.93 22.8563 1012.14 22.8563C1015.42 22.8563 1018.25 23.4046 1020.64 24.5013C1023.03 25.5979 1024.88 27.1438 1026.17 29.1389C1027.48 31.1207 1028.14 33.4395 1028.15 36.0952H1017.61ZM1043.92 23.4112V64H1032.9V23.4112H1043.92ZM1048.03 32.29V23.4112H1083.31V32.29H1071.1V64H1060.24V32.29H1048.03ZM1087.45 64V23.4112H1116.71V32.29H1098.47V39.2662H1115.2V48.145H1098.47V55.1212H1116.63V64H1087.45ZM1137.79 64H1122.17V23.4112H1137.63C1141.81 23.4112 1145.41 24.2238 1148.45 25.8489C1151.5 27.4609 1153.86 29.7863 1155.51 32.8251C1157.17 35.8508 1158 39.4776 1158 43.7056C1158 47.9336 1157.18 51.5671 1155.53 54.6059C1153.88 57.6316 1151.54 59.957 1148.51 61.5821C1145.49 63.194 1141.91 64 1137.79 64ZM1133.19 54.6456H1137.39C1139.4 54.6456 1141.11 54.3219 1142.53 53.6744C1143.95 53.027 1145.04 51.9106 1145.78 50.3251C1146.53 48.7396 1146.91 46.5331 1146.91 43.7056C1146.91 40.8781 1146.52 38.6717 1145.76 37.0862C1145 35.5007 1143.89 34.3842 1142.43 33.7368C1140.97 33.0894 1139.19 32.7657 1137.08 32.7657H1133.19V54.6456Z" fill="#9493F8"/>
<rect x="28" y="78" width="361" height="66" rx="33" fill="#9493F8"/>
<path d="M58.6161 131.5V90.9109H76.2153C79.307 90.9109 81.9033 91.3271 84.0041 92.1595C86.1181 92.9919 87.7102 94.1678 88.7805 95.6873C89.8639 97.2067 90.4056 98.997 90.4056 101.058C90.4056 102.551 90.0753 103.912 89.4147 105.141C88.7672 106.37 87.8556 107.4 86.6796 108.233C85.5037 109.052 84.1296 109.62 82.5573 109.937V110.333C84.3014 110.399 85.8869 110.842 87.3139 111.661C88.7408 112.467 89.8771 113.584 90.7227 115.011C91.5683 116.424 91.9911 118.089 91.9911 120.005C91.9911 122.225 91.4098 124.2 90.247 125.931C89.0976 127.662 87.4592 129.023 85.332 130.014C83.2047 131.005 80.6679 131.5 77.7215 131.5H58.6161ZM69.6354 122.7H74.7883C76.6381 122.7 78.0254 122.357 78.9503 121.67C79.8752 120.97 80.3376 119.939 80.3376 118.578C80.3376 117.627 80.1196 116.821 79.6836 116.16C79.2476 115.5 78.6266 114.997 77.8206 114.654C77.0278 114.31 76.0699 114.139 74.9469 114.139H69.6354V122.7ZM69.6354 107.321H74.1541C75.1186 107.321 75.9708 107.169 76.7107 106.865C77.4506 106.561 78.0254 106.125 78.435 105.557C78.8578 104.976 79.0692 104.269 79.0692 103.436C79.0692 102.181 78.62 101.223 77.7215 100.563C76.8231 99.8889 75.6868 99.5519 74.3127 99.5519H69.6354V107.321ZM93.6725 90.9109H105.96L113.888 107.4H114.205L122.132 90.9109H134.42L119.516 118.737V131.5H108.576V118.737L93.6725 90.9109ZM148.015 90.9109H161.729L171.163 113.901H171.639L181.072 90.9109H194.787V131.5H184.006V108.034H183.689L174.651 131.183H168.151L159.113 107.876H158.796V131.5H148.015V90.9109ZM238.772 111.205C238.772 115.724 237.893 119.536 236.136 122.641C234.379 125.733 232.007 128.078 229.021 129.677C226.035 131.262 222.705 132.055 219.032 132.055C215.333 132.055 211.99 131.256 209.004 129.657C206.031 128.045 203.666 125.693 201.909 122.601C200.165 119.496 199.293 115.698 199.293 111.205C199.293 106.687 200.165 102.882 201.909 99.7898C203.666 96.6848 206.031 94.3396 209.004 92.7541C211.99 91.1553 215.333 90.356 219.032 90.356C222.705 90.356 226.035 91.1553 229.021 92.7541C232.007 94.3396 234.379 96.6848 236.136 99.7898C237.893 102.882 238.772 106.687 238.772 111.205ZM227.436 111.205C227.436 108.774 227.112 106.726 226.464 105.062C225.83 103.384 224.886 102.115 223.63 101.256C222.388 100.384 220.856 99.9483 219.032 99.9483C217.209 99.9483 215.67 100.384 214.415 101.256C213.173 102.115 212.228 103.384 211.58 105.062C210.946 106.726 210.629 108.774 210.629 111.205C210.629 113.637 210.946 115.691 211.58 117.369C212.228 119.034 213.173 120.302 214.415 121.174C215.67 122.033 217.209 122.463 219.032 122.463C220.856 122.463 222.388 122.033 223.63 121.174C224.886 120.302 225.83 119.034 226.464 117.369C227.112 115.691 227.436 113.637 227.436 111.205ZM278.431 90.9109V131.5H269.235L254.569 110.175H254.332V131.5H243.312V90.9109H252.667L267.095 112.157H267.412V90.9109H278.431ZM281.976 99.7898V90.9109H317.253V99.7898H305.045V131.5H294.184V99.7898H281.976ZM320.842 131.5V90.9109H331.862V106.766H346.448V90.9109H357.468V131.5H346.448V115.645H331.862V131.5H320.842Z" fill="white"/>
<rect x="397" y="78" width="67" height="66" rx="33" fill="#9493F8"/>
<path d="M426.855 132.134C423.948 132.134 421.445 131.619 419.344 130.588C417.243 129.558 415.631 128.177 414.508 126.446C413.385 124.715 412.823 122.806 412.823 120.719C412.823 119.199 413.114 117.858 413.695 116.695C414.277 115.519 415.089 114.443 416.133 113.465C417.177 112.487 418.399 111.523 419.8 110.571L428.996 104.863C429.92 104.282 430.548 103.681 430.878 103.06C431.209 102.426 431.374 101.864 431.374 101.375C431.374 100.728 431.136 100.153 430.66 99.651C430.185 99.149 429.445 98.9045 428.441 98.9177C427.82 98.9177 427.285 99.0367 426.835 99.2745C426.386 99.4991 426.036 99.8162 425.785 100.226C425.547 100.635 425.428 101.124 425.428 101.692C425.428 102.472 425.653 103.271 426.102 104.09C426.551 104.896 427.166 105.768 427.945 106.707C428.725 107.645 429.603 108.695 430.581 109.858L450.241 131.5H439.301L422.812 114.059C422.006 113.201 421.114 112.15 420.137 110.908C419.159 109.653 418.313 108.239 417.6 106.667C416.899 105.095 416.549 103.384 416.549 101.534C416.549 99.4727 417.045 97.5899 418.036 95.8854C419.027 94.181 420.414 92.8201 422.198 91.8028C423.981 90.7854 426.062 90.2767 428.441 90.2767C430.713 90.2767 432.669 90.7457 434.307 91.6838C435.959 92.6219 437.227 93.8705 438.112 95.4296C439.011 96.9887 439.46 98.7063 439.46 100.583C439.46 102.472 438.991 104.236 438.053 105.874C437.128 107.513 435.8 108.946 434.069 110.175L425.666 116.121C425.019 116.57 424.457 117.085 423.981 117.666C423.519 118.248 423.288 119.001 423.288 119.926C423.288 120.692 423.466 121.346 423.823 121.888C424.18 122.43 424.682 122.846 425.329 123.136C425.99 123.427 426.763 123.572 427.648 123.572C428.996 123.572 430.343 123.249 431.691 122.601C433.052 121.941 434.294 121.022 435.417 119.846C436.54 118.657 437.438 117.257 438.112 115.645C438.799 114.02 439.143 112.249 439.143 110.333H447.784C447.784 112.685 447.539 114.951 447.051 117.131C446.562 119.311 445.776 121.306 444.692 123.117C443.609 124.927 442.182 126.453 440.411 127.695C439.856 127.972 439.315 128.236 438.786 128.488C438.258 128.739 437.716 129.003 437.161 129.28C435.536 130.324 433.838 131.064 432.067 131.5C430.297 131.923 428.56 132.134 426.855 132.134Z" fill="white"/>
<rect x="472" y="78" width="353" height="66" rx="33" fill="#9493F8"/>
<path d="M527.616 131.5V90.9109H545.215C548.307 90.9109 550.903 91.3271 553.004 92.1595C555.118 92.9919 556.71 94.1678 557.78 95.6873C558.864 97.2067 559.406 98.997 559.406 101.058C559.406 102.551 559.075 103.912 558.415 105.141C557.767 106.37 556.856 107.4 555.68 108.233C554.504 109.052 553.13 109.62 551.557 109.937V110.333C553.301 110.399 554.887 110.842 556.314 111.661C557.741 112.467 558.877 113.584 559.723 115.011C560.568 116.424 560.991 118.089 560.991 120.005C560.991 122.225 560.41 124.2 559.247 125.931C558.098 127.662 556.459 129.023 554.332 130.014C552.205 131.005 549.668 131.5 546.722 131.5H527.616ZM538.635 122.7H543.788C545.638 122.7 547.025 122.357 547.95 121.67C548.875 120.97 549.338 119.939 549.338 118.578C549.338 117.627 549.12 116.821 548.684 116.16C548.248 115.5 547.627 114.997 546.821 114.654C546.028 114.31 545.07 114.139 543.947 114.139H538.635V122.7ZM538.635 107.321H543.154C544.119 107.321 544.971 107.169 545.711 106.865C546.451 106.561 547.025 106.125 547.435 105.557C547.858 104.976 548.069 104.269 548.069 103.436C548.069 102.181 547.62 101.223 546.722 100.563C545.823 99.8889 544.687 99.5519 543.313 99.5519H538.635V107.321ZM562.673 90.9109H574.96L582.888 107.4H583.205L591.132 90.9109H603.42L588.516 118.737V131.5H577.576V118.737L562.673 90.9109ZM615.35 90.9109H627.637L635.565 107.4H635.882L643.81 90.9109H656.097L641.194 118.737V131.5H630.254V118.737L615.35 90.9109ZM659.131 131.5V90.9109H688.384V99.7898H670.151V106.766H686.878V115.645H670.151V122.621H688.305V131.5H659.131ZM703.835 131.5H691.943L705.341 90.9109H720.403L733.801 131.5H721.91L713.031 102.089H712.714L703.835 131.5ZM701.615 115.486H723.971V123.731H701.615V115.486ZM737.152 131.5V90.9109H754.672C757.685 90.9109 760.32 91.4592 762.58 92.5559C764.839 93.6525 766.596 95.2314 767.852 97.2926C769.107 99.3538 769.734 101.825 769.734 104.705C769.734 107.612 769.087 110.063 767.792 112.058C766.511 114.053 764.707 115.559 762.382 116.576C760.069 117.594 757.367 118.102 754.276 118.102H743.811V109.541H752.056C753.351 109.541 754.454 109.382 755.366 109.065C756.291 108.735 756.997 108.213 757.486 107.499C757.988 106.786 758.239 105.854 758.239 104.705C758.239 103.542 757.988 102.597 757.486 101.871C756.997 101.131 756.291 100.589 755.366 100.246C754.454 99.8889 753.351 99.7105 752.056 99.7105H748.171V131.5H737.152ZM760.935 112.87L771.082 131.5H759.111L749.202 112.87H760.935Z" fill="white"/>
</svg>
