<svg width="231" height="232" viewBox="0 0 231 232" fill="none" xmlns="http://www.w3.org/2000/svg">
<rect y="0.395477" width="230.77" height="230.767" rx="15" fill="#9691FF"/>
<path d="M62.7662 69.8174C75.715 68.005 80.1746 72.1489 86.3913 77.8749C92.376 83.3994 99.8003 90.276 116.345 93.528C118.447 93.9312 120.546 94.1327 122.619 94.1327C135.855 94.1327 148.258 86.1037 153.667 74.1628C159.046 78.4207 163.622 83.3994 166.76 89.0685C167.277 90.0174 168.257 90.5366 169.293 90.5366C169.753 90.5366 170.242 90.4206 170.674 90.1619C172.054 89.3841 172.573 87.6289 171.796 86.2482C167.91 79.2271 162.243 73.2423 155.682 68.2636C155.739 67.9765 155.827 67.7179 155.884 67.4573C157.696 58.6809 155.97 49.7599 151.05 42.2786C146.13 34.7972 138.59 29.7044 129.813 27.892C83.1698 18.2808 60.0049 65.2418 59.7748 65.7306C59.3146 66.6795 59.4287 67.832 60.0335 68.6649C60.6648 69.5283 61.7013 69.9885 62.7662 69.8174ZM128.661 33.5306C135.912 35.0273 142.155 39.2567 146.242 45.443C150.011 51.1691 151.48 57.9601 150.5 64.6941C139.854 57.9601 127.508 53.6737 116.144 51.9754L108.489 44.321C107.367 43.199 105.555 43.199 104.433 44.321C103.311 45.443 103.311 47.2554 104.433 48.3774L107.196 51.1406C99.8003 50.939 93.2109 52.0039 88.3767 54.421C86.9675 55.1399 86.3913 56.8666 87.0816 58.2777C87.8005 59.6869 89.5272 60.2916 90.9383 59.5728C99.7718 55.1418 116.433 56.3494 132.316 62.336L127.425 67.2272C126.303 68.3492 126.303 70.1616 127.425 71.2836C128.001 71.8598 128.72 72.1184 129.467 72.1184C130.215 72.1184 130.935 71.8313 131.51 71.2836L138.071 64.7226C141.811 66.4494 145.466 68.4348 148.889 70.6788C144.055 82.7928 130.675 90.4472 117.439 87.8571C102.505 84.9227 96.0007 78.9076 90.2746 73.6417C84.7216 68.5204 79.4557 63.6273 68.3763 63.6273C68.0892 63.6273 67.8001 63.6273 67.5129 63.6273C74.2754 52.6353 94.3025 26.422 128.659 33.5002L128.661 33.5306Z" fill="white"/>
<path d="M92.9219 168.544C94.7057 160.602 96.9497 150.732 91.4823 134.79C86.3895 119.913 71.1377 110.648 56.0323 112.145C57.0098 105.353 59.0541 98.9371 62.3917 93.3536C63.198 92.0015 62.7663 90.2177 61.4142 89.4114C60.0335 88.5765 58.2782 89.0367 57.4719 90.3888C53.3566 97.2655 50.968 105.15 49.962 113.352C49.7034 113.438 49.4162 113.497 49.1557 113.582C31.6314 119.396 22.1056 138.417 27.9192 155.941C40.8965 195.018 81.6713 197.75 92.8648 197.75C94.6201 197.75 95.6565 197.693 95.7136 197.665C96.7785 197.579 97.699 196.917 98.1307 195.967C98.5624 194.989 98.4178 193.865 97.756 193.032C89.727 182.731 91.0506 176.774 92.9219 168.544ZM33.3866 154.098C28.7255 140.085 35.9197 125.008 49.4714 119.597C48.9826 132.172 51.4283 145.006 55.6292 155.709L52.8374 166.155C52.4343 167.68 53.3262 169.263 54.8799 169.666C55.1385 169.723 55.3686 169.751 55.6273 169.751C56.8938 169.751 58.0729 168.917 58.419 167.621L59.4269 163.852C62.966 170.356 67.1669 175.535 71.6854 178.499C72.1741 178.815 72.7218 178.988 73.2676 178.988C74.188 178.988 75.1085 178.528 75.6847 177.693C76.5481 176.369 76.202 174.586 74.8784 173.694C66.6496 168.255 59.3394 153.235 56.5781 136.488L63.2531 138.272C63.5118 138.329 63.7419 138.358 64.0005 138.358C65.2671 138.358 66.4461 137.523 66.7922 136.228C67.1954 134.703 66.3035 133.12 64.7498 132.717L55.7718 130.3C55.3971 126.185 55.283 122.013 55.5417 117.928C56.8367 117.755 58.1033 117.64 59.3984 117.64C70.995 117.64 82.2171 125.122 86.1308 136.603C91.0506 151.019 89.1241 159.623 87.3974 167.249C85.6991 174.816 84.0599 181.981 90.1301 191.967C77.2384 191.621 44.5212 187.363 33.4722 154.07L33.3866 154.098Z" fill="white"/>
<path d="M192.022 100.607C191.418 99.7433 190.383 99.2545 189.347 99.3686C188.282 99.4846 187.39 100.175 186.987 101.152C182.095 113.266 176.253 115.079 168.196 117.583C160.427 120 150.759 122.994 139.679 135.712C129.321 147.568 128.946 165.408 137.78 177.723C131.622 180.169 125.262 181.637 119.019 181.637C118.789 181.637 118.559 181.637 118.357 181.637H118.3C116.747 181.637 115.452 182.904 115.423 184.457C115.423 186.04 116.661 187.363 118.243 187.392H119.05C126.79 187.392 134.53 185.52 141.897 182.413C142.098 182.614 142.271 182.816 142.502 183.018C148.861 188.687 156.831 191.448 164.744 191.448C173.981 191.448 183.189 187.65 189.807 180.226C221.459 144.631 192.368 101.095 192.051 100.664L192.022 100.607ZM185.461 176.371C175.649 187.392 158.988 188.715 147.564 179.68C158.7 173.838 168.599 165.294 175.763 156.287L186.209 153.495C187.734 153.092 188.654 151.51 188.251 149.985C187.848 148.46 186.266 147.539 184.741 147.942L180.971 148.95C184.857 142.648 187.215 136.405 187.532 131.023C187.618 129.441 186.41 128.06 184.828 127.972C183.217 127.828 181.865 129.094 181.778 130.677C181.173 140.547 171.822 154.359 158.7 165.149L156.917 158.474C156.513 156.949 154.931 156.028 153.406 156.432C151.881 156.835 150.96 158.417 151.364 159.942L153.752 168.92C150.386 171.309 146.847 173.467 143.163 175.308C135.106 165.064 135.165 149.641 144.027 139.512C154.041 128.031 162.472 125.413 169.924 123.11C177.32 120.809 184.341 118.622 189.951 108.434C195.965 119.829 208.482 150.533 185.492 176.4L185.461 176.371Z" fill="white"/>
</svg>
