<svg width="489" height="453" viewBox="0 0 489 453" fill="none" xmlns="http://www.w3.org/2000/svg">
<path d="M30.6161 65.6526V25.0638H48.1358C51.1483 25.0638 53.7842 25.6121 56.0435 26.7088C58.3028 27.8054 60.0601 29.3843 61.3153 31.4455C62.5705 33.5066 63.1981 35.9773 63.1981 38.8577C63.1981 41.7644 62.5507 44.2153 61.2558 46.2104C59.9742 48.2055 58.1707 49.7117 55.8453 50.7291C53.5331 51.7464 50.8312 52.2551 47.7395 52.2551H37.2752V43.6934H45.5198C46.8146 43.6934 47.9178 43.5349 48.8295 43.2178C49.7544 42.8875 50.4612 42.3656 50.9501 41.6521C51.4522 40.9386 51.7032 40.0072 51.7032 38.8577C51.7032 37.695 51.4522 36.7503 50.9501 36.0236C50.4612 35.2837 49.7544 34.742 48.8295 34.3985C47.9178 34.0417 46.8146 33.8633 45.5198 33.8633H41.6353V65.6526H30.6161ZM54.3985 47.023L64.5457 65.6526H52.5752L42.6659 47.023H54.3985ZM67.8951 65.6526V25.0638H97.1475V33.9426H78.9143V40.9188H95.6413V49.7976H78.9143V56.7738H97.0683V65.6526H67.8951ZM140.506 40.2846H129.328C129.249 39.3597 129.038 38.5207 128.694 37.7676C128.364 37.0145 127.901 36.3671 127.307 35.8254C126.725 35.2705 126.018 34.8477 125.186 34.557C124.354 34.2531 123.409 34.1012 122.352 34.1012C120.502 34.1012 118.937 34.5504 117.655 35.4488C116.387 36.3473 115.422 37.6355 114.761 39.3135C114.114 40.9915 113.79 43.0064 113.79 45.3582C113.79 47.8422 114.121 49.9231 114.781 51.6011C115.455 53.2659 116.426 54.5211 117.695 55.3667C118.963 56.1991 120.489 56.6152 122.273 56.6152C123.29 56.6152 124.202 56.4897 125.008 56.2387C125.814 55.9744 126.514 55.5979 127.109 55.109C127.703 54.6202 128.185 54.0322 128.555 53.3452C128.938 52.6449 129.196 51.8588 129.328 50.9867L140.506 51.066C140.374 52.7836 139.892 54.5343 139.059 56.318C138.227 58.0884 137.044 59.7268 135.512 61.233C133.992 62.726 132.109 63.9284 129.863 64.84C127.617 65.7517 125.008 66.2075 122.035 66.2075C118.309 66.2075 114.966 65.4082 112.007 63.8094C109.06 62.2107 106.728 59.8589 105.011 56.754C103.306 53.649 102.454 49.8505 102.454 45.3582C102.454 40.8395 103.326 37.0343 105.07 33.9426C106.814 30.8377 109.166 28.4925 112.126 26.907C115.085 25.3083 118.388 24.5089 122.035 24.5089C124.598 24.5089 126.957 24.859 129.11 25.5593C131.264 26.2596 133.153 27.2835 134.778 28.6312C136.403 29.9657 137.712 31.6106 138.702 33.5661C139.693 35.5215 140.295 37.761 140.506 40.2846ZM143.84 25.0638H156.128L164.056 41.553H164.373L172.3 25.0638H184.588L169.684 52.8893V65.6526H158.744V52.8893L143.84 25.0638ZM223.239 40.2846H212.061C211.982 39.3597 211.771 38.5207 211.427 37.7676C211.097 37.0145 210.635 36.3671 210.04 35.8254C209.459 35.2705 208.752 34.8477 207.919 34.557C207.087 34.2531 206.142 34.1012 205.085 34.1012C203.236 34.1012 201.67 34.5504 200.388 35.4488C199.12 36.3473 198.155 37.6355 197.495 39.3135C196.847 40.9915 196.524 43.0064 196.524 45.3582C196.524 47.8422 196.854 49.9231 197.515 51.6011C198.188 53.2659 199.159 54.5211 200.428 55.3667C201.696 56.1991 203.222 56.6152 205.006 56.6152C206.023 56.6152 206.935 56.4897 207.741 56.2387C208.547 55.9744 209.247 55.5979 209.842 55.109C210.436 54.6202 210.919 54.0322 211.289 53.3452C211.672 52.6449 211.929 51.8588 212.061 50.9867L223.239 51.066C223.107 52.7836 222.625 54.5343 221.792 56.318C220.96 58.0884 219.778 59.7268 218.245 61.233C216.725 62.726 214.843 63.9284 212.597 64.84C210.35 65.7517 207.741 66.2075 204.768 66.2075C201.042 66.2075 197.7 65.4082 194.74 63.8094C191.794 62.2107 189.462 59.8589 187.744 56.754C186.039 53.649 185.187 49.8505 185.187 45.3582C185.187 40.8395 186.059 37.0343 187.803 33.9426C189.547 30.8377 191.899 28.4925 194.859 26.907C197.818 25.3083 201.122 24.5089 204.768 24.5089C207.331 24.5089 209.69 24.859 211.843 25.5593C213.997 26.2596 215.887 27.2835 217.512 28.6312C219.137 29.9657 220.445 31.6106 221.436 33.5661C222.427 35.5215 223.028 37.761 223.239 40.2846ZM228.239 65.6526V25.0638H239.258V56.7738H255.668V65.6526H228.239ZM271.141 25.0638V65.6526H260.122V25.0638H271.141ZM311.482 25.0638V65.6526H302.286L287.62 44.3276H287.383V65.6526H276.363V25.0638H285.718L300.146 46.3095H300.463V25.0638H311.482ZM343.053 38.4613C342.882 37.761 342.611 37.1466 342.241 36.6181C341.871 36.0764 341.408 35.6206 340.854 35.2507C340.312 34.8675 339.678 34.5834 338.951 34.3985C338.237 34.2003 337.451 34.1012 336.592 34.1012C334.743 34.1012 333.164 34.5438 331.856 35.429C330.561 36.3143 329.57 37.5893 328.883 39.254C328.209 40.9188 327.872 42.9271 327.872 45.2789C327.872 47.6572 328.196 49.6919 328.843 51.3831C329.491 53.0743 330.455 54.3691 331.737 55.2676C333.018 56.166 334.611 56.6152 336.513 56.6152C338.191 56.6152 339.585 56.3708 340.695 55.882C341.818 55.3931 342.657 54.6994 343.212 53.801C343.767 52.9025 344.044 51.8455 344.044 50.63L345.947 50.8282H336.672V42.98H354.667V48.6085C354.667 52.308 353.881 55.4724 352.309 58.1017C350.75 60.7177 348.596 62.726 345.848 64.1265C343.113 65.5139 339.975 66.2075 336.434 66.2075C332.483 66.2075 329.015 65.3685 326.029 63.6905C323.043 62.0125 320.711 59.6211 319.033 56.5162C317.368 53.4112 316.536 49.7183 316.536 45.4375C316.536 42.0815 317.045 39.1087 318.062 36.5191C319.093 33.9294 320.519 31.7427 322.343 29.9591C324.166 28.1622 326.274 26.8079 328.665 25.8962C331.056 24.9713 333.62 24.5089 336.355 24.5089C338.759 24.5089 340.992 24.8524 343.053 25.5395C345.128 26.2133 346.958 27.1778 348.543 28.433C350.142 29.675 351.43 31.1482 352.408 32.8526C353.386 34.557 353.98 36.4266 354.192 38.4613H343.053ZM30.6161 120.653V80.0638H48.1358C51.1483 80.0638 53.7842 80.6584 56.0435 81.8475C58.3028 83.0366 60.0601 84.708 61.3153 86.8617C62.5705 89.0153 63.1981 91.5323 63.1981 94.4126C63.1981 97.3193 62.5507 99.8363 61.2558 101.964C59.9742 104.091 58.1707 105.729 55.8453 106.879C53.5331 108.028 50.8312 108.603 47.7395 108.603H37.2752V100.041H45.5198C46.8146 100.041 47.9178 99.8165 48.8295 99.3673C49.7544 98.9048 50.4612 98.2508 50.9501 97.4052C51.4522 96.5596 51.7032 95.5621 51.7032 94.4126C51.7032 93.2499 51.4522 92.259 50.9501 91.4398C50.4612 90.6074 49.7544 89.9732 48.8295 89.5372C47.9178 89.088 46.8146 88.8633 45.5198 88.8633H41.6353V120.653H30.6161ZM67.2411 120.653V80.0638H96.4935V88.9426H78.2603V95.9188H94.9873V104.798H78.2603V111.774H96.4143V120.653H67.2411ZM101.959 120.653V80.0638H119.478C122.491 80.0638 125.127 80.6121 127.386 81.7088C129.645 82.8054 131.403 84.3843 132.658 86.4455C133.913 88.5066 134.541 90.9773 134.541 93.8577C134.541 96.7644 133.893 99.2153 132.598 101.21C131.317 103.206 129.513 104.712 127.188 105.729C124.876 106.746 122.174 107.255 119.082 107.255H108.618V98.6934H116.862C118.157 98.6934 119.26 98.5349 120.172 98.2178C121.097 97.8875 121.804 97.3656 122.293 96.6521C122.795 95.9386 123.046 95.0072 123.046 93.8577C123.046 92.695 122.795 91.7503 122.293 91.0236C121.804 90.2837 121.097 89.742 120.172 89.3985C119.26 89.0417 118.157 88.8633 116.862 88.8633H112.978V120.653H101.959ZM125.741 102.023L135.888 120.653H123.918L114.008 102.023H125.741ZM139.238 120.653V80.0638H167.777V88.9426H150.257V95.9188H166.032V104.798H150.257V120.653H139.238ZM211.15 100.358C211.15 104.877 210.271 108.689 208.514 111.794C206.757 114.885 204.385 117.231 201.399 118.829C198.413 120.415 195.083 121.208 191.41 121.208C187.711 121.208 184.368 120.408 181.382 118.809C178.409 117.198 176.044 114.846 174.287 111.754C172.543 108.649 171.671 104.85 171.671 100.358C171.671 95.8395 172.543 92.0343 174.287 88.9426C176.044 85.8377 178.409 83.4925 181.382 81.907C184.368 80.3083 187.711 79.5089 191.41 79.5089C195.083 79.5089 198.413 80.3083 201.399 81.907C204.385 83.4925 206.757 85.8377 208.514 88.9426C210.271 92.0343 211.15 95.8395 211.15 100.358ZM199.814 100.358C199.814 97.9271 199.49 95.8792 198.842 94.2144C198.208 92.5364 197.264 91.268 196.008 90.4092C194.766 89.5372 193.234 89.1012 191.41 89.1012C189.587 89.1012 188.048 89.5372 186.793 90.4092C185.551 91.268 184.606 92.5364 183.959 94.2144C183.324 95.8792 183.007 97.9271 183.007 100.358C183.007 102.789 183.324 104.844 183.959 106.522C184.606 108.187 185.551 109.455 186.793 110.327C188.048 111.186 189.587 111.615 191.41 111.615C193.234 111.615 194.766 111.186 196.008 110.327C197.264 109.455 198.208 108.187 198.842 106.522C199.49 104.844 199.814 102.789 199.814 100.358ZM216.248 120.653V80.0638H233.768C236.78 80.0638 239.416 80.6121 241.676 81.7088C243.935 82.8054 245.692 84.3843 246.947 86.4455C248.203 88.5066 248.83 90.9773 248.83 93.8577C248.83 96.7644 248.183 99.2153 246.888 101.21C245.606 103.206 243.803 104.712 241.477 105.729C239.165 106.746 236.463 107.255 233.372 107.255H222.907V98.6934H231.152C232.447 98.6934 233.55 98.5349 234.462 98.2178C235.386 97.8875 236.093 97.3656 236.582 96.6521C237.084 95.9386 237.335 95.0072 237.335 93.8577C237.335 92.695 237.084 91.7503 236.582 91.0236C236.093 90.2837 235.386 89.742 234.462 89.3985C233.55 89.0417 232.447 88.8633 231.152 88.8633H227.267V120.653H216.248ZM240.031 102.023L250.178 120.653H238.207L228.298 102.023H240.031ZM253.527 80.0638H267.242L276.675 103.054H277.151L286.585 80.0638H300.299V120.653H289.518V97.1872H289.201L280.164 120.335H273.663L264.626 97.0287H264.309V120.653H253.527V80.0638ZM316.065 120.653H304.174L317.571 80.0638H332.634L346.031 120.653H334.14L325.261 91.2416H324.944L316.065 120.653ZM313.846 104.639H336.201V112.884H313.846V104.639ZM385.059 80.0638V120.653H375.863L361.197 99.3276H360.96V120.653H349.94V80.0638H359.295L373.723 101.31H374.04V80.0638H385.059ZM428.165 95.2846H416.987C416.908 94.3597 416.696 93.5207 416.353 92.7676C416.023 92.0145 415.56 91.3671 414.966 90.8254C414.384 90.2705 413.677 89.8477 412.845 89.557C412.013 89.2531 411.068 89.1012 410.011 89.1012C408.161 89.1012 406.596 89.5504 405.314 90.4488C404.046 91.3473 403.081 92.6355 402.42 94.3135C401.773 95.9915 401.449 98.0064 401.449 100.358C401.449 102.842 401.78 104.923 402.44 106.601C403.114 108.266 404.085 109.521 405.354 110.367C406.622 111.199 408.148 111.615 409.932 111.615C410.949 111.615 411.861 111.49 412.667 111.239C413.473 110.974 414.173 110.598 414.767 110.109C415.362 109.62 415.844 109.032 416.214 108.345C416.597 107.645 416.855 106.859 416.987 105.987L428.165 106.066C428.033 107.784 427.551 109.534 426.718 111.318C425.886 113.088 424.703 114.727 423.171 116.233C421.651 117.726 419.768 118.928 417.522 119.84C415.276 120.752 412.667 121.208 409.694 121.208C405.968 121.208 402.625 120.408 399.666 118.809C396.719 117.211 394.387 114.859 392.67 111.754C390.965 108.649 390.113 104.85 390.113 100.358C390.113 95.8395 390.985 92.0343 392.729 88.9426C394.473 85.8377 396.825 83.4925 399.784 81.907C402.744 80.3083 406.047 79.5089 409.694 79.5089C412.257 79.5089 414.616 79.859 416.769 80.5593C418.923 81.2596 420.812 82.2835 422.437 83.6312C424.062 84.9657 425.37 86.6106 426.361 88.5661C427.352 90.5215 427.954 92.761 428.165 95.2846ZM433.164 120.653V80.0638H462.417V88.9426H444.183V95.9188H460.91V104.798H444.183V111.774H462.337V120.653H433.164Z" fill="#9493F8"/>
<rect x="28" y="134.653" width="433" height="63" rx="31.5" fill="#9493F8"/>
<path d="M56.6161 186.653V146.063H74.2153C77.307 146.063 79.9033 146.48 82.0041 147.312C84.1181 148.144 85.7102 149.32 86.7805 150.84C87.8639 152.359 88.4056 154.15 88.4056 156.211C88.4056 157.704 88.0753 159.065 87.4147 160.293C86.7672 161.522 85.8556 162.553 84.6796 163.385C83.5037 164.204 82.1296 164.773 80.5573 165.09V165.486C82.3014 165.552 83.8869 165.995 85.3139 166.814C86.7408 167.62 87.8771 168.736 88.7227 170.163C89.5683 171.577 89.9911 173.242 89.9911 175.158C89.9911 177.377 89.4098 179.353 88.247 181.083C87.0976 182.814 85.4592 184.175 83.332 185.166C81.2047 186.157 78.6679 186.653 75.7215 186.653H56.6161ZM67.6354 177.853H72.7883C74.6381 177.853 76.0254 177.509 76.9503 176.822C77.8752 176.122 78.3376 175.092 78.3376 173.731C78.3376 172.779 78.1196 171.973 77.6836 171.313C77.2476 170.652 76.6266 170.15 75.8206 169.807C75.0278 169.463 74.0699 169.291 72.9469 169.291H67.6354V177.853ZM67.6354 162.474H72.1541C73.1186 162.474 73.9708 162.322 74.7107 162.018C75.4506 161.714 76.0254 161.278 76.435 160.71C76.8578 160.128 77.0692 159.421 77.0692 158.589C77.0692 157.334 76.62 156.376 75.7215 155.715C74.8231 155.041 73.6868 154.705 72.3127 154.705H67.6354V162.474ZM91.6725 146.063H103.96L111.888 162.553H112.205L120.132 146.063H132.42L117.516 173.889V186.653H106.576V173.889L91.6725 146.063ZM146.015 186.653V146.063H157.034V177.774H173.444V186.653H146.015ZM215.08 166.358C215.08 170.877 214.202 174.689 212.444 177.794C210.687 180.885 208.315 183.231 205.329 184.829C202.343 186.415 199.014 187.208 195.341 187.208C191.641 187.208 188.298 186.408 185.312 184.809C182.339 183.197 179.974 180.846 178.217 177.754C176.473 174.649 175.601 170.85 175.601 166.358C175.601 161.839 176.473 158.034 178.217 154.942C179.974 151.837 182.339 149.492 185.312 147.907C188.298 146.308 191.641 145.509 195.341 145.509C199.014 145.509 202.343 146.308 205.329 147.907C208.315 149.492 210.687 151.837 212.444 154.942C214.202 158.034 215.08 161.839 215.08 166.358ZM203.744 166.358C203.744 163.927 203.42 161.879 202.773 160.214C202.138 158.536 201.194 157.268 199.939 156.409C198.697 155.537 197.164 155.101 195.341 155.101C193.517 155.101 191.978 155.537 190.723 156.409C189.481 157.268 188.536 158.536 187.889 160.214C187.254 161.879 186.937 163.927 186.937 166.358C186.937 168.789 187.254 170.844 187.889 172.522C188.536 174.187 189.481 175.455 190.723 176.327C191.978 177.186 193.517 177.615 195.341 177.615C197.164 177.615 198.697 177.186 199.939 176.327C201.194 175.455 202.138 174.187 202.773 172.522C203.42 170.844 203.744 168.789 203.744 166.358ZM257.514 161.284H246.336C246.257 160.36 246.046 159.521 245.702 158.767C245.372 158.014 244.909 157.367 244.315 156.825C243.734 156.27 243.027 155.847 242.194 155.557C241.362 155.253 240.417 155.101 239.36 155.101C237.51 155.101 235.945 155.55 234.663 156.449C233.395 157.347 232.43 158.635 231.77 160.313C231.122 161.991 230.798 164.006 230.798 166.358C230.798 168.842 231.129 170.923 231.789 172.601C232.463 174.266 233.434 175.521 234.703 176.367C235.971 177.199 237.497 177.615 239.281 177.615C240.298 177.615 241.21 177.49 242.016 177.239C242.822 176.974 243.522 176.598 244.117 176.109C244.711 175.62 245.194 175.032 245.563 174.345C245.947 173.645 246.204 172.859 246.336 171.987L257.514 172.066C257.382 173.784 256.9 175.534 256.067 177.318C255.235 179.088 254.053 180.727 252.52 182.233C251 183.726 249.118 184.928 246.872 185.84C244.625 186.752 242.016 187.208 239.043 187.208C235.317 187.208 231.974 186.408 229.015 184.809C226.068 183.211 223.736 180.859 222.019 177.754C220.314 174.649 219.462 170.85 219.462 166.358C219.462 161.839 220.334 158.034 222.078 154.942C223.822 151.837 226.174 149.492 229.134 147.907C232.093 146.308 235.396 145.509 239.043 145.509C241.606 145.509 243.965 145.859 246.118 146.559C248.272 147.259 250.161 148.283 251.787 149.631C253.412 150.965 254.72 152.61 255.711 154.566C256.702 156.521 257.303 158.761 257.514 161.284ZM271.246 186.653H259.354L272.752 146.063H287.814L301.212 186.653H289.32L280.442 157.241H280.124L271.246 186.653ZM269.026 170.639H291.382V178.884H269.026V170.639ZM298.33 154.942V146.063H333.608V154.942H321.399V186.653H310.538V154.942H298.33ZM348.216 146.063V186.653H337.197V146.063H348.216ZM392.201 166.358C392.201 170.877 391.322 174.689 389.565 177.794C387.808 180.885 385.436 183.231 382.45 184.829C379.464 186.415 376.134 187.208 372.461 187.208C368.762 187.208 365.419 186.408 362.433 184.809C359.46 183.197 357.095 180.846 355.338 177.754C353.593 174.649 352.721 170.85 352.721 166.358C352.721 161.839 353.593 158.034 355.338 154.942C357.095 151.837 359.46 149.492 362.433 147.907C365.419 146.308 368.762 145.509 372.461 145.509C376.134 145.509 379.464 146.308 382.45 147.907C385.436 149.492 387.808 151.837 389.565 154.942C391.322 158.034 392.201 161.839 392.201 166.358ZM380.864 166.358C380.864 163.927 380.541 161.879 379.893 160.214C379.259 158.536 378.314 157.268 377.059 156.409C375.817 155.537 374.284 155.101 372.461 155.101C370.638 155.101 369.098 155.537 367.843 156.409C366.601 157.268 365.657 158.536 365.009 160.214C364.375 161.879 364.058 163.927 364.058 166.358C364.058 168.789 364.375 170.844 365.009 172.522C365.657 174.187 366.601 175.455 367.843 176.327C369.098 177.186 370.638 177.615 372.461 177.615C374.284 177.615 375.817 177.186 377.059 176.327C378.314 175.455 379.259 174.187 379.893 172.522C380.541 170.844 380.864 168.789 380.864 166.358ZM431.86 146.063V186.653H422.664L407.998 165.327H407.76V186.653H396.741V146.063H406.096L420.524 167.309H420.841V146.063H431.86Z" fill="white"/>
<g clip-path="url(#clip0_313_42)">
<rect x="29.6152" y="221.737" width="230.77" height="230.767" rx="15" fill="#9493F8"/>
<path d="M207.931 319.768C206.595 320.368 205.917 321.864 206.289 323.281C207.784 328.988 208.593 334.971 208.593 341.142C208.593 342.443 208.545 343.733 208.48 345.023C207.859 344.985 207.051 344.91 205.954 344.728C204.213 344.448 202.51 344.164 200.831 343.883L200.478 343.824C184.67 341.163 171.02 338.872 153.007 345.21C150.555 346.077 148.494 345.74 146.739 344.177C143.077 340.906 141.439 332.936 143.013 326.036C143.751 322.822 145.856 320.041 147.888 317.357L147.895 317.348L147.909 317.329C150.919 313.351 154.326 308.849 152.493 303.055C148.976 291.932 146.626 289.673 139.876 290.989L139.867 290.991C137.636 291.43 134.849 291.978 130.455 290.674C128.362 290.053 127.05 288.966 126.312 287.242C124.368 282.714 126.938 275.064 128.656 271.194C131.718 270.787 134.839 270.557 138.013 270.557C144.313 270.557 150.43 271.385 156.244 272.944C157.747 273.347 159.317 272.413 159.784 270.929C160.256 269.432 159.469 267.823 157.954 267.413C151.596 265.694 144.91 264.776 138.013 264.776C95.9117 264.776 61.647 299.024 61.647 341.142C61.647 383.249 95.9063 417.508 138.013 417.508C180.125 417.508 214.379 383.254 214.379 341.142C214.379 334.378 213.499 327.822 211.839 321.577C211.39 319.889 209.525 319.053 207.931 319.768ZM71.9783 366.06C69.0395 358.309 67.4175 349.91 67.4175 341.142C67.4175 326.79 71.7321 313.435 79.1192 302.279C83.9477 304.939 90.1625 309.484 91.0993 313.456C91.4098 314.762 91.1047 315.945 90.1411 317.166C81.9403 327.593 79.0336 340.671 82.9092 349.707C84.4187 353.224 80.6984 362.945 75.8111 366.087C74.0392 367.243 72.9472 366.96 71.9783 366.06ZM138.003 411.727C110.359 411.727 86.3833 395.737 74.8101 372.532C76.1804 372.35 77.5829 371.836 78.9479 370.948C85.4305 366.772 91.2064 354.375 88.2194 347.421C85.2056 340.392 87.8607 329.413 94.6805 320.731C96.736 318.129 97.4426 315.148 96.72 312.118C95.1569 305.539 87.1434 300.181 82.5291 297.568C92.2877 285.176 106.088 276.129 121.933 272.42C120.263 277.146 118.662 284.1 120.98 289.517C122.388 292.793 125.091 295.111 128.795 296.214C134.539 297.916 138.415 297.167 140.973 296.664C143.645 296.139 144.196 296.043 146.963 304.795C147.857 307.605 146.23 309.955 143.275 313.852C140.973 316.882 138.372 320.319 137.366 324.746C135.299 333.798 137.617 343.786 142.879 348.486C145.079 350.445 147.697 351.452 150.502 351.452C151.936 351.452 153.419 351.19 154.913 350.67C171.523 344.825 184.488 346.998 199.509 349.53C201.318 349.835 203.154 350.135 205.028 350.44C206.12 350.617 207.057 350.724 207.908 350.777C203.202 385.149 173.654 411.727 138.003 411.727Z" fill="white"/>
<path d="M207.931 319.768C206.595 320.368 205.917 321.864 206.289 323.281C207.784 328.988 208.593 334.971 208.593 341.142C208.593 342.443 208.545 343.733 208.48 345.023C207.859 344.985 207.051 344.91 205.954 344.728C204.213 344.448 202.51 344.164 200.831 343.883L200.478 343.824C184.67 341.163 171.02 338.872 153.007 345.21C150.555 346.077 148.494 345.74 146.739 344.177C143.077 340.906 141.439 332.936 143.013 326.036C143.751 322.822 145.856 320.041 147.888 317.357L147.895 317.348L147.909 317.329C150.919 313.351 154.326 308.849 152.493 303.055C148.976 291.932 146.626 289.673 139.876 290.989L139.867 290.991C137.636 291.43 134.849 291.978 130.455 290.674C128.362 290.053 127.05 288.966 126.312 287.242C124.368 282.714 126.938 275.064 128.656 271.194C131.718 270.787 134.839 270.557 138.013 270.557C144.313 270.557 150.43 271.385 156.244 272.944C157.747 273.347 159.317 272.413 159.784 270.929C160.256 269.432 159.469 267.823 157.954 267.413C151.596 265.694 144.91 264.776 138.013 264.776C95.9117 264.776 61.647 299.024 61.647 341.142C61.647 383.249 95.9063 417.508 138.013 417.508C180.125 417.508 214.379 383.254 214.379 341.142C214.379 334.378 213.499 327.822 211.839 321.577C211.39 319.889 209.525 319.053 207.931 319.768ZM71.9783 366.06C69.0395 358.309 67.4175 349.91 67.4175 341.142C67.4175 326.79 71.7321 313.435 79.1192 302.279C83.9477 304.939 90.1625 309.484 91.0993 313.456C91.4098 314.762 91.1047 315.945 90.1411 317.166C81.9403 327.593 79.0336 340.671 82.9092 349.707C84.4187 353.224 80.6984 362.945 75.8111 366.087C74.0392 367.243 72.9472 366.96 71.9783 366.06ZM138.003 411.727C110.359 411.727 86.3833 395.737 74.8101 372.532C76.1804 372.35 77.5829 371.836 78.9479 370.948C85.4305 366.772 91.2064 354.375 88.2194 347.421C85.2056 340.392 87.8607 329.413 94.6805 320.731C96.736 318.129 97.4426 315.148 96.72 312.118C95.1569 305.539 87.1434 300.181 82.5291 297.568C92.2877 285.176 106.088 276.129 121.933 272.42C120.263 277.146 118.662 284.1 120.98 289.517C122.388 292.793 125.091 295.111 128.795 296.214C134.539 297.916 138.415 297.167 140.973 296.664C143.645 296.139 144.196 296.043 146.963 304.795C147.857 307.605 146.23 309.955 143.275 313.852C140.973 316.882 138.372 320.319 137.366 324.746C135.299 333.798 137.617 343.786 142.879 348.486C145.079 350.445 147.697 351.452 150.502 351.452C151.936 351.452 153.419 351.19 154.913 350.67C171.523 344.825 184.488 346.998 199.509 349.53C201.318 349.835 203.154 350.135 205.028 350.44C206.12 350.617 207.057 350.724 207.908 350.777C203.202 385.149 173.654 411.727 138.003 411.727Z" stroke="#9493F8"/>
<path d="M212.024 255.643C207.056 252.785 201.425 251.27 195.724 251.27C184.07 251.27 173.22 257.533 167.412 267.613C164.821 272.088 163.209 279.732 163.739 285.021L167.588 323.215C167.599 323.327 167.615 323.445 167.642 323.557C168.027 325.265 169.055 326.673 170.543 327.535C171.458 328.054 172.492 328.327 173.546 328.327C174.167 328.327 174.793 328.225 175.409 328.043C175.521 328.006 175.634 327.963 175.746 327.915L210.75 312.161C215.573 309.977 221.391 304.768 223.993 300.282C232.986 284.684 227.622 264.663 212.024 255.643ZM218.977 297.392C217.232 300.405 212.441 305.052 208.368 306.883L173.594 322.54C173.578 322.546 173.562 322.546 173.546 322.546L173.311 322.31L169.494 284.437C169.044 279.978 170.677 273.517 172.411 270.498C177.202 262.201 186.131 257.046 195.724 257.046C200.408 257.046 205.049 258.288 209.133 260.649C221.97 268.068 226.391 284.55 218.977 297.392Z" fill="white"/>
<path d="M212.024 255.643C207.056 252.785 201.425 251.27 195.724 251.27C184.07 251.27 173.22 257.533 167.412 267.613C164.821 272.088 163.209 279.732 163.739 285.021L167.588 323.215C167.599 323.327 167.615 323.445 167.642 323.557C168.027 325.265 169.055 326.673 170.543 327.535C171.458 328.054 172.492 328.327 173.546 328.327C174.167 328.327 174.793 328.225 175.409 328.043C175.521 328.006 175.634 327.963 175.746 327.915L210.75 312.161C215.573 309.977 221.391 304.768 223.993 300.282C232.986 284.684 227.622 264.663 212.024 255.643ZM218.977 297.392C217.232 300.405 212.441 305.052 208.368 306.883L173.594 322.54C173.578 322.546 173.562 322.546 173.546 322.546L173.311 322.31L169.494 284.437C169.044 279.978 170.677 273.517 172.411 270.498C177.202 262.201 186.131 257.046 195.724 257.046C200.408 257.046 205.049 258.288 209.133 260.649C221.97 268.068 226.391 284.55 218.977 297.392Z" stroke="#9493F8"/>
<path d="M205.895 266.268C202.876 264.523 199.434 263.596 195.96 263.596C188.856 263.596 182.245 267.418 178.702 273.558C176.041 278.167 175.335 283.531 176.705 288.67C178.086 293.809 181.378 298.097 185.977 300.757C189.006 302.502 192.448 303.428 195.922 303.428C203.021 303.428 209.637 299.612 213.181 293.472C215.836 288.868 216.548 283.504 215.167 278.365C213.802 273.221 210.504 268.933 205.895 266.268ZM208.175 290.576C205.66 294.933 200.97 297.642 195.928 297.642C193.465 297.642 191.024 296.983 188.878 295.747C185.607 293.857 183.273 290.817 182.299 287.171C181.325 283.526 181.823 279.714 183.718 276.449C186.233 272.092 190.928 269.378 195.965 269.378C198.428 269.378 200.863 270.031 203.004 271.273C206.275 273.168 208.62 276.208 209.589 279.859C210.568 283.499 210.065 287.305 208.175 290.576Z" fill="white"/>
<path d="M205.895 266.268C202.876 264.523 199.434 263.596 195.96 263.596C188.856 263.596 182.245 267.418 178.702 273.558C176.041 278.167 175.335 283.531 176.705 288.67C178.086 293.809 181.378 298.097 185.977 300.757C189.006 302.502 192.448 303.428 195.922 303.428C203.021 303.428 209.637 299.612 213.181 293.472C215.836 288.868 216.548 283.504 215.167 278.365C213.802 273.221 210.504 268.933 205.895 266.268ZM208.175 290.576C205.66 294.933 200.97 297.642 195.928 297.642C193.465 297.642 191.024 296.983 188.878 295.747C185.607 293.857 183.273 290.817 182.299 287.171C181.325 283.526 181.823 279.714 183.718 276.449C186.233 272.092 190.928 269.378 195.965 269.378C198.428 269.378 200.863 270.031 203.004 271.273C206.275 273.168 208.62 276.208 209.589 279.859C210.568 283.499 210.065 287.305 208.175 290.576Z" stroke="#9493F8"/>
</g>
<defs>
<clipPath id="clip0_313_42">
<rect width="284" height="231" fill="white" transform="translate(0 221.653)"/>
</clipPath>
</defs>
</svg>
