<svg width="231" height="231" viewBox="0 0 231 231" fill="none" xmlns="http://www.w3.org/2000/svg">
<rect y="0.0926514" width="230.77" height="230.767" rx="15" fill="#9691FF"/>
<path d="M178.316 98.1233C176.98 98.7231 176.302 100.22 176.673 101.637C178.169 107.343 178.977 113.326 178.977 119.497C178.977 120.798 178.929 122.088 178.865 123.378C178.244 123.341 177.436 123.266 176.338 123.084C174.598 122.804 172.894 122.519 171.215 122.238L170.862 122.179C155.055 119.519 141.405 117.228 123.392 123.566C120.94 124.433 118.879 124.095 117.123 122.532C113.462 119.262 111.824 111.291 113.398 104.391C114.135 101.178 116.24 98.3968 118.272 95.7125L118.279 95.703L118.294 95.6842C121.304 91.7062 124.711 87.204 122.878 81.4105C119.361 70.2869 117.011 68.0279 110.261 69.3447L110.252 69.3465C108.021 69.7852 105.234 70.3333 100.839 69.0289C98.7463 68.408 97.4348 67.3213 96.6961 65.5976C94.7529 61.069 97.3224 53.4195 99.0407 49.5493C102.103 49.1424 105.223 48.9122 108.398 48.9122C114.698 48.9122 120.815 49.74 126.629 51.2994C128.132 51.7025 129.701 50.7688 130.169 49.2847C130.641 47.7876 129.854 46.1784 128.338 45.7686C121.981 44.0491 115.295 43.131 108.398 43.131C66.2963 43.131 32.0316 77.3796 32.0316 119.497C32.0316 161.604 66.2909 195.863 108.398 195.863C150.51 195.863 184.764 161.609 184.764 119.497C184.764 112.734 183.884 106.178 182.224 99.9325C181.775 98.2442 179.91 97.408 178.316 98.1233ZM42.3629 144.416C39.4241 136.664 37.8021 128.265 37.8021 119.497C37.8021 105.146 42.1167 91.79 49.5038 80.6343C54.3323 83.2947 60.5471 87.8394 61.4839 91.8114C61.7944 93.1175 61.4892 94.3005 60.5257 95.521C52.3249 105.949 49.4182 119.026 53.2938 128.062C54.8033 131.579 51.083 141.3 46.1957 144.442C44.4238 145.599 43.3318 145.315 42.3629 144.416ZM108.387 190.082C80.7441 190.082 56.7679 174.093 45.1946 150.887C46.565 150.705 47.9675 150.191 49.3325 149.303C55.815 145.128 61.591 132.73 58.604 125.776C55.5902 118.748 58.2453 107.769 65.0651 99.0861C67.1206 96.4846 67.8272 93.5029 67.1046 90.4731C65.5415 83.8943 57.528 78.5359 52.9137 75.9236C62.6723 63.5314 76.4724 54.4847 92.3173 50.7751C90.6472 55.5018 89.0466 62.4554 91.3645 67.8727C92.7723 71.1487 95.4756 73.4666 99.1799 74.5693C104.924 76.2716 108.799 75.5221 111.358 75.0189C114.029 74.4944 114.581 74.398 117.348 83.1502C118.242 85.9605 116.615 88.3105 113.66 92.2075C111.358 95.2373 108.756 98.674 107.75 103.101C105.684 112.153 108.002 122.142 113.264 126.842C115.464 128.801 118.081 129.807 120.886 129.807C122.321 129.807 123.804 129.545 125.297 129.026C141.908 123.18 154.873 125.353 169.893 127.885C171.703 128.191 173.539 128.49 175.412 128.795C176.504 128.972 177.441 129.079 178.292 129.133C173.587 163.504 144.038 190.082 108.387 190.082Z" fill="white"/>
<path d="M178.316 98.1233C176.98 98.7231 176.302 100.22 176.673 101.637C178.169 107.343 178.977 113.326 178.977 119.497C178.977 120.798 178.929 122.088 178.865 123.378C178.244 123.341 177.436 123.266 176.338 123.084C174.598 122.804 172.894 122.519 171.215 122.238L170.862 122.179C155.055 119.519 141.405 117.228 123.392 123.566C120.94 124.433 118.879 124.095 117.123 122.532C113.462 119.262 111.824 111.291 113.398 104.391C114.135 101.178 116.24 98.3968 118.272 95.7125L118.279 95.703L118.294 95.6842C121.304 91.7062 124.711 87.204 122.878 81.4105C119.361 70.2869 117.011 68.0279 110.261 69.3447L110.252 69.3465C108.021 69.7852 105.234 70.3333 100.839 69.0289C98.7463 68.408 97.4348 67.3213 96.6961 65.5976C94.7529 61.069 97.3224 53.4195 99.0407 49.5493C102.103 49.1424 105.223 48.9122 108.398 48.9122C114.698 48.9122 120.815 49.74 126.629 51.2994C128.132 51.7025 129.701 50.7688 130.169 49.2847C130.641 47.7876 129.854 46.1784 128.338 45.7686C121.981 44.0491 115.295 43.131 108.398 43.131C66.2963 43.131 32.0316 77.3796 32.0316 119.497C32.0316 161.604 66.2909 195.863 108.398 195.863C150.51 195.863 184.764 161.609 184.764 119.497C184.764 112.734 183.884 106.178 182.224 99.9325C181.775 98.2442 179.91 97.408 178.316 98.1233ZM42.3629 144.416C39.4241 136.664 37.8021 128.265 37.8021 119.497C37.8021 105.146 42.1167 91.79 49.5038 80.6343C54.3323 83.2947 60.5471 87.8394 61.4839 91.8114C61.7944 93.1175 61.4892 94.3005 60.5257 95.521C52.3249 105.949 49.4182 119.026 53.2938 128.062C54.8033 131.579 51.083 141.3 46.1957 144.442C44.4238 145.599 43.3318 145.315 42.3629 144.416ZM108.387 190.082C80.7441 190.082 56.7679 174.093 45.1946 150.887C46.565 150.705 47.9675 150.191 49.3325 149.303C55.815 145.128 61.591 132.73 58.604 125.776C55.5902 118.748 58.2453 107.769 65.0651 99.0861C67.1206 96.4846 67.8272 93.5029 67.1046 90.4731C65.5415 83.8943 57.528 78.5359 52.9137 75.9236C62.6723 63.5314 76.4724 54.4847 92.3173 50.7751C90.6472 55.5018 89.0466 62.4554 91.3645 67.8727C92.7723 71.1487 95.4756 73.4666 99.1799 74.5693C104.924 76.2716 108.799 75.5221 111.358 75.0189C114.029 74.4944 114.581 74.398 117.348 83.1502C118.242 85.9605 116.615 88.3105 113.66 92.2075C111.358 95.2373 108.756 98.674 107.75 103.101C105.684 112.153 108.002 122.142 113.264 126.842C115.464 128.801 118.081 129.807 120.886 129.807C122.321 129.807 123.804 129.545 125.297 129.026C141.908 123.18 154.873 125.353 169.893 127.885C171.703 128.191 173.539 128.49 175.412 128.795C176.504 128.972 177.441 129.079 178.292 129.133C173.587 163.504 144.038 190.082 108.387 190.082Z" stroke="#9691FF"/>
<path d="M182.408 33.9987C177.441 31.1401 171.809 29.6252 166.108 29.6252C154.455 29.6252 143.604 35.8883 137.796 45.968C135.205 50.4432 133.594 58.0873 134.124 63.3761L137.973 101.57C137.983 101.682 137.999 101.8 138.026 101.912C138.412 103.62 139.439 105.028 140.928 105.89C141.843 106.409 142.876 106.682 143.931 106.682C144.552 106.682 145.178 106.58 145.793 106.398C145.906 106.361 146.018 106.318 146.131 106.27L181.134 90.5159C185.957 88.3319 191.776 83.1234 194.378 78.6375C203.371 63.0388 198.007 43.0185 182.408 33.9987ZM189.362 75.7469C187.617 78.7607 182.826 83.4071 178.752 85.2378L143.979 100.895C143.963 100.901 143.947 100.901 143.931 100.901L143.695 100.665L139.878 62.7926C139.429 58.3335 141.061 51.8724 142.796 48.8533C147.587 40.5561 156.516 35.4012 166.108 35.4012C170.792 35.4012 175.433 36.6431 179.518 39.0037C192.354 46.423 196.776 62.905 189.362 75.7469Z" fill="white"/>
<path d="M182.408 33.9987C177.441 31.1401 171.809 29.6252 166.108 29.6252C154.455 29.6252 143.604 35.8883 137.796 45.968C135.205 50.4432 133.594 58.0873 134.124 63.3761L137.973 101.57C137.983 101.682 137.999 101.8 138.026 101.912C138.412 103.62 139.439 105.028 140.928 105.89C141.843 106.409 142.876 106.682 143.931 106.682C144.552 106.682 145.178 106.58 145.793 106.398C145.906 106.361 146.018 106.318 146.131 106.27L181.134 90.5159C185.957 88.3319 191.776 83.1234 194.378 78.6375C203.371 63.0388 198.007 43.0185 182.408 33.9987ZM189.362 75.7469C187.617 78.7607 182.826 83.4071 178.752 85.2378L143.979 100.895C143.963 100.901 143.947 100.901 143.931 100.901L143.695 100.665L139.878 62.7926C139.429 58.3335 141.061 51.8724 142.796 48.8533C147.587 40.5561 156.516 35.4012 166.108 35.4012C170.792 35.4012 175.433 36.6431 179.518 39.0037C192.354 46.423 196.776 62.905 189.362 75.7469Z" stroke="#9691FF"/>
<path d="M176.28 44.6231C173.26 42.878 169.818 41.9519 166.344 41.9519C159.241 41.9519 152.63 45.774 149.086 51.9139C146.426 56.5228 145.719 61.8866 147.09 67.0255C148.471 72.1644 151.763 76.4521 156.361 79.1126C159.391 80.8577 162.833 81.7838 166.307 81.7838C173.405 81.7838 180.021 77.967 183.565 71.8271C186.22 67.2235 186.932 61.8598 185.551 56.7209C184.186 51.5766 180.889 47.2889 176.28 44.6231ZM178.56 68.9311C176.044 73.2885 171.355 75.9971 166.312 75.9971C163.85 75.9971 161.409 75.3387 159.262 74.1022C155.992 72.2125 153.658 69.172 152.683 65.5266C151.709 61.8812 152.207 58.0699 154.102 54.8045C156.618 50.4472 161.313 47.7332 166.35 47.7332C168.812 47.7332 171.248 48.3862 173.389 49.6281C176.66 51.5231 179.004 54.5636 179.973 58.2144C180.953 61.8544 180.45 65.6604 178.56 68.9311Z" fill="white"/>
<path d="M176.28 44.6231C173.26 42.878 169.818 41.9519 166.344 41.9519C159.241 41.9519 152.63 45.774 149.086 51.9139C146.426 56.5228 145.719 61.8866 147.09 67.0255C148.471 72.1644 151.763 76.4521 156.361 79.1126C159.391 80.8577 162.833 81.7838 166.307 81.7838C173.405 81.7838 180.021 77.967 183.565 71.8271C186.22 67.2235 186.932 61.8598 185.551 56.7209C184.186 51.5766 180.889 47.2889 176.28 44.6231ZM178.56 68.9311C176.044 73.2885 171.355 75.9971 166.312 75.9971C163.85 75.9971 161.409 75.3387 159.262 74.1022C155.992 72.2125 153.658 69.172 152.683 65.5266C151.709 61.8812 152.207 58.0699 154.102 54.8045C156.618 50.4472 161.313 47.7332 166.35 47.7332C168.812 47.7332 171.248 48.3862 173.389 49.6281C176.66 51.5231 179.004 54.5636 179.973 58.2144C180.953 61.8544 180.45 65.6604 178.56 68.9311Z" stroke="#9691FF"/>
</svg>
