<svg width="813" height="169" viewBox="0 0 813 169" fill="none" xmlns="http://www.w3.org/2000/svg">
<path d="M2.61607 65V24.4112H20.1358C23.1483 24.4112 25.7842 24.9596 28.0435 26.0562C30.3028 27.1528 32.0601 28.7317 33.3153 30.7929C34.5705 32.854 35.1981 35.3248 35.1981 38.2051C35.1981 41.1118 34.5507 43.5627 33.2558 45.5578C31.9742 47.5529 30.1707 49.0591 27.8453 50.0765C25.5331 51.0939 22.8312 51.6025 19.7395 51.6025H9.27517V43.0408H17.5198C18.8146 43.0408 19.9178 42.8823 20.8295 42.5652C21.7544 42.2349 22.4612 41.713 22.9501 40.9995C23.4522 40.286 23.7032 39.3546 23.7032 38.2051C23.7032 37.0424 23.4522 36.0977 22.9501 35.371C22.4612 34.6311 21.7544 34.0894 20.8295 33.7459C19.9178 33.3891 18.8146 33.2108 17.5198 33.2108H13.6353V65H2.61607ZM26.3985 46.3704L36.5457 65H24.5752L14.6659 46.3704H26.3985ZM39.8951 65V24.4112H69.1475V33.29H50.9143V40.2662H67.6413V49.145H50.9143V56.1212H69.0683V65H39.8951ZM112.506 39.632H101.328C101.249 38.7072 101.038 37.8682 100.694 37.115C100.364 36.3619 99.9013 35.7145 99.3067 35.1728C98.7253 34.6179 98.0185 34.1951 97.1861 33.9044C96.3537 33.6005 95.409 33.4486 94.352 33.4486C92.5023 33.4486 90.9366 33.8978 89.655 34.7963C88.3866 35.6947 87.4221 36.9829 86.7614 38.6609C86.114 40.3389 85.7903 42.3538 85.7903 44.7056C85.7903 47.1896 86.1206 49.2705 86.7813 50.9485C87.4551 52.6133 88.4262 53.8685 89.6946 54.7141C90.963 55.5465 92.4891 55.9627 94.2727 55.9627C95.2901 55.9627 96.2018 55.8371 97.0077 55.5861C97.8137 55.3219 98.5139 54.9453 99.1085 54.4564C99.7031 53.9676 100.185 53.3796 100.555 52.6926C100.938 51.9923 101.196 51.2062 101.328 50.3341L112.506 50.4134C112.374 52.131 111.892 53.8817 111.059 55.6654C110.227 57.4359 109.044 59.0742 107.512 60.5804C105.992 62.0734 104.109 63.2758 101.863 64.1874C99.6172 65.0991 97.0077 65.5549 94.0349 65.5549C90.309 65.5549 86.9662 64.7556 84.0066 63.1569C81.0603 61.5581 78.7283 59.2063 77.0106 56.1014C75.3062 52.9965 74.454 49.1979 74.454 44.7056C74.454 40.187 75.326 36.3818 77.0701 33.29C78.8141 30.1851 81.166 27.8399 84.1256 26.2544C87.0851 24.6557 90.3883 23.8563 94.0349 23.8563C96.5981 23.8563 98.9566 24.2064 101.11 24.9067C103.264 25.607 105.153 26.6309 106.778 27.9786C108.403 29.3131 109.712 30.958 110.702 32.9135C111.693 34.8689 112.295 37.1084 112.506 39.632ZM115.84 24.4112H128.128L136.056 40.9004H136.373L144.3 24.4112H156.588L141.684 52.2367V65H130.744V52.2367L115.84 24.4112ZM195.239 39.632H184.061C183.982 38.7072 183.771 37.8682 183.427 37.115C183.097 36.3619 182.635 35.7145 182.04 35.1728C181.459 34.6179 180.752 34.1951 179.919 33.9044C179.087 33.6005 178.142 33.4486 177.085 33.4486C175.236 33.4486 173.67 33.8978 172.388 34.7963C171.12 35.6947 170.155 36.9829 169.495 38.6609C168.847 40.3389 168.524 42.3538 168.524 44.7056C168.524 47.1896 168.854 49.2705 169.515 50.9485C170.188 52.6133 171.159 53.8685 172.428 54.7141C173.696 55.5465 175.222 55.9627 177.006 55.9627C178.023 55.9627 178.935 55.8371 179.741 55.5861C180.547 55.3219 181.247 54.9453 181.842 54.4564C182.436 53.9676 182.919 53.3796 183.289 52.6926C183.672 51.9923 183.929 51.2062 184.061 50.3341L195.239 50.4134C195.107 52.131 194.625 53.8817 193.792 55.6654C192.96 57.4359 191.778 59.0742 190.245 60.5804C188.725 62.0734 186.843 63.2758 184.597 64.1874C182.35 65.0991 179.741 65.5549 176.768 65.5549C173.042 65.5549 169.7 64.7556 166.74 63.1569C163.794 61.5581 161.462 59.2063 159.744 56.1014C158.039 52.9965 157.187 49.1979 157.187 44.7056C157.187 40.187 158.059 36.3818 159.803 33.29C161.547 30.1851 163.899 27.8399 166.859 26.2544C169.818 24.6557 173.122 23.8563 176.768 23.8563C179.331 23.8563 181.69 24.2064 183.843 24.9067C185.997 25.607 187.887 26.6309 189.512 27.9786C191.137 29.3131 192.445 30.958 193.436 32.9135C194.427 34.8689 195.028 37.1084 195.239 39.632ZM200.239 65V24.4112H211.258V56.1212H227.668V65H200.239ZM243.141 24.4112V65H232.122V24.4112H243.141ZM283.482 24.4112V65H274.286L259.62 43.675H259.383V65H248.363V24.4112H257.718L272.146 45.6569H272.463V24.4112H283.482ZM315.053 37.8087C314.882 37.1084 314.611 36.4941 314.241 35.9656C313.871 35.4239 313.408 34.968 312.854 34.5981C312.312 34.2149 311.678 33.9308 310.951 33.7459C310.237 33.5477 309.451 33.4486 308.592 33.4486C306.743 33.4486 305.164 33.8912 303.856 34.7764C302.561 35.6617 301.57 36.9367 300.883 38.6015C300.209 40.2662 299.872 42.2745 299.872 44.6263C299.872 47.0046 300.196 49.0393 300.843 50.7305C301.491 52.4217 302.455 53.7165 303.737 54.615C305.018 55.5134 306.611 55.9627 308.513 55.9627C310.191 55.9627 311.585 55.7182 312.695 55.2294C313.818 54.7405 314.657 54.0468 315.212 53.1484C315.767 52.25 316.044 51.193 316.044 49.9774L317.947 50.1756H308.672V42.3274H326.667V47.9559C326.667 51.6554 325.881 54.8198 324.309 57.4491C322.75 60.0651 320.596 62.0734 317.848 63.474C315.113 64.8613 311.975 65.5549 308.434 65.5549C304.483 65.5549 301.015 64.7159 298.029 63.0379C295.043 61.36 292.711 58.9685 291.033 55.8636C289.368 52.7586 288.536 49.0657 288.536 44.7849C288.536 41.4289 289.045 38.4561 290.062 35.8665C291.093 33.2768 292.519 31.0902 294.343 29.3065C296.166 27.5096 298.274 26.1553 300.665 25.2436C303.056 24.3188 305.62 23.8563 308.355 23.8563C310.759 23.8563 312.992 24.1998 315.053 24.8869C317.128 25.5607 318.958 26.5252 320.543 27.7804C322.142 29.0224 323.43 30.4956 324.408 32.2C325.386 33.9044 325.98 35.774 326.192 37.8087H315.053ZM342.923 65V24.4112H360.443C363.456 24.4112 366.092 25.0058 368.351 26.1949C370.61 27.3841 372.368 29.0554 373.623 31.2091C374.878 33.3627 375.505 35.8797 375.505 38.76C375.505 41.6667 374.858 44.1837 373.563 46.3109C372.282 48.4381 370.478 50.0765 368.153 51.226C365.841 52.3755 363.139 52.9502 360.047 52.9502H349.583V44.3885H357.827C359.122 44.3885 360.225 44.1639 361.137 43.7147C362.062 43.2522 362.769 42.5982 363.257 41.7526C363.76 40.907 364.011 39.9095 364.011 38.76C364.011 37.5973 363.76 36.6064 363.257 35.7872C362.769 34.9548 362.062 34.3206 361.137 33.8846C360.225 33.4354 359.122 33.2108 357.827 33.2108H353.943V65H342.923ZM379.548 65V24.4112H408.801V33.29H390.568V40.2662H407.295V49.145H390.568V56.1212H408.722V65H379.548ZM414.266 65V24.4112H431.786C434.798 24.4112 437.434 24.9596 439.693 26.0562C441.953 27.1528 443.71 28.7317 444.965 30.7929C446.22 32.854 446.848 35.3248 446.848 38.2051C446.848 41.1118 446.201 43.5627 444.906 45.5578C443.624 47.5529 441.821 49.0591 439.495 50.0765C437.183 51.0939 434.481 51.6025 431.389 51.6025H420.925V43.0408H429.17C430.464 43.0408 431.568 42.8823 432.479 42.5652C433.404 42.2349 434.111 41.713 434.6 40.9995C435.102 40.286 435.353 39.3546 435.353 38.2051C435.353 37.0424 435.102 36.0977 434.6 35.371C434.111 34.6311 433.404 34.0894 432.479 33.7459C431.568 33.3891 430.464 33.2108 429.17 33.2108H425.285V65H414.266ZM438.048 46.3704L448.196 65H436.225L426.316 46.3704H438.048ZM451.545 65V24.4112H480.084V33.29H462.564V40.2662H478.34V49.145H462.564V65H451.545ZM523.457 44.7056C523.457 49.2243 522.579 53.0361 520.821 56.141C519.064 59.2327 516.692 61.578 513.706 63.1767C510.72 64.7622 507.391 65.5549 503.718 65.5549C500.018 65.5549 496.676 64.7556 493.689 63.1569C490.717 61.5449 488.352 59.1931 486.594 56.1014C484.85 52.9965 483.978 49.1979 483.978 44.7056C483.978 40.187 484.85 36.3818 486.594 33.29C488.352 30.1851 490.717 27.8399 493.689 26.2544C496.676 24.6557 500.018 23.8563 503.718 23.8563C507.391 23.8563 510.72 24.6557 513.706 26.2544C516.692 27.8399 519.064 30.1851 520.821 33.29C522.579 36.3818 523.457 40.187 523.457 44.7056ZM512.121 44.7056C512.121 42.2745 511.797 40.2266 511.15 38.5618C510.516 36.8838 509.571 35.6154 508.316 34.7566C507.074 33.8846 505.541 33.4486 503.718 33.4486C501.894 33.4486 500.355 33.8846 499.1 34.7566C497.858 35.6154 496.913 36.8838 496.266 38.5618C495.632 40.2266 495.315 42.2745 495.315 44.7056C495.315 47.1367 495.632 49.1913 496.266 50.8692C496.913 52.534 497.858 53.8024 499.1 54.6744C500.355 55.5333 501.894 55.9627 503.718 55.9627C505.541 55.9627 507.074 55.5333 508.316 54.6744C509.571 53.8024 510.516 52.534 511.15 50.8692C511.797 49.1913 512.121 47.1367 512.121 44.7056ZM528.556 65V24.4112H546.075C549.088 24.4112 551.724 24.9596 553.983 26.0562C556.242 27.1528 558 28.7317 559.255 30.7929C560.51 32.854 561.138 35.3248 561.138 38.2051C561.138 41.1118 560.49 43.5627 559.195 45.5578C557.914 47.5529 556.11 49.0591 553.785 50.0765C551.473 51.0939 548.771 51.6025 545.679 51.6025H535.215V43.0408H543.459C544.754 43.0408 545.857 42.8823 546.769 42.5652C547.694 42.2349 548.401 41.713 548.89 40.9995C549.392 40.286 549.643 39.3546 549.643 38.2051C549.643 37.0424 549.392 36.0977 548.89 35.371C548.401 34.6311 547.694 34.0894 546.769 33.7459C545.857 33.3891 544.754 33.2108 543.459 33.2108H539.575V65H528.556ZM552.338 46.3704L562.485 65H550.515L540.605 46.3704H552.338ZM565.835 24.4112H579.549L588.983 47.401H589.459L598.892 24.4112H612.607V65H601.825V41.5346H601.508L592.471 64.6829H585.97L576.933 41.3761H576.616V65H565.835V24.4112ZM628.373 65H616.481L629.879 24.4112H644.941L658.339 65H646.447L637.568 35.589H637.251L628.373 65ZM626.153 48.9865H648.508V57.2311H626.153V48.9865ZM697.367 24.4112V65H688.171L673.505 43.675H673.267V65H662.248V24.4112H671.602L686.03 45.6569H686.347V24.4112H697.367ZM740.472 39.632H729.295C729.215 38.7072 729.004 37.8682 728.66 37.115C728.33 36.3619 727.868 35.7145 727.273 35.1728C726.692 34.6179 725.985 34.1951 725.152 33.9044C724.32 33.6005 723.375 33.4486 722.318 33.4486C720.469 33.4486 718.903 33.8978 717.621 34.7963C716.353 35.6947 715.388 36.9829 714.728 38.6609C714.08 40.3389 713.757 42.3538 713.757 44.7056C713.757 47.1896 714.087 49.2705 714.748 50.9485C715.421 52.6133 716.393 53.8685 717.661 54.7141C718.929 55.5465 720.455 55.9627 722.239 55.9627C723.256 55.9627 724.168 55.8371 724.974 55.5861C725.78 55.3219 726.48 54.9453 727.075 54.4564C727.669 53.9676 728.152 53.3796 728.522 52.6926C728.905 51.9923 729.162 51.2062 729.295 50.3341L740.472 50.4134C740.34 52.131 739.858 53.8817 739.026 55.6654C738.193 57.4359 737.011 59.0742 735.478 60.5804C733.959 62.0734 732.076 63.2758 729.83 64.1874C727.584 65.0991 724.974 65.5549 722.001 65.5549C718.275 65.5549 714.933 64.7556 711.973 63.1569C709.027 61.5581 706.695 59.2063 704.977 56.1014C703.273 52.9965 702.42 49.1979 702.42 44.7056C702.42 40.187 703.292 36.3818 705.036 33.29C706.78 30.1851 709.132 27.8399 712.092 26.2544C715.051 24.6557 718.355 23.8563 722.001 23.8563C724.564 23.8563 726.923 24.2064 729.077 24.9067C731.23 25.607 733.12 26.6309 734.745 27.9786C736.37 29.3131 737.678 30.958 738.669 32.9135C739.66 34.8689 740.261 37.1084 740.472 39.632ZM745.472 65V24.4112H774.724V33.29H756.491V40.2662H773.218V49.145H756.491V56.1212H774.645V65H745.472Z" fill="#9493F8"/>
<rect y="79" width="437" height="66" rx="33" fill="#9493F8"/>
<path d="M30.6161 132.5V91.9109H48.2153C51.307 91.9109 53.9033 92.3271 56.0041 93.1595C58.1181 93.9919 59.7102 95.1678 60.7805 96.6873C61.8639 98.2067 62.4056 99.997 62.4056 102.058C62.4056 103.551 62.0753 104.912 61.4147 106.141C60.7672 107.37 59.8556 108.4 58.6796 109.233C57.5037 110.052 56.1296 110.62 54.5573 110.937V111.333C56.3014 111.399 57.8869 111.842 59.3139 112.661C60.7408 113.467 61.8771 114.584 62.7227 116.011C63.5683 117.424 63.9911 119.089 63.9911 121.005C63.9911 123.225 63.4098 125.2 62.247 126.931C61.0976 128.662 59.4592 130.023 57.332 131.014C55.2047 132.005 52.6679 132.5 49.7215 132.5H30.6161ZM41.6354 123.7H46.7883C48.6381 123.7 50.0254 123.357 50.9503 122.67C51.8752 121.97 52.3376 120.939 52.3376 119.578C52.3376 118.627 52.1196 117.821 51.6836 117.16C51.2476 116.5 50.6266 115.997 49.8206 115.654C49.0278 115.31 48.0699 115.139 46.9469 115.139H41.6354V123.7ZM41.6354 108.321H46.1541C47.1186 108.321 47.9708 108.169 48.7107 107.865C49.4506 107.561 50.0254 107.125 50.435 106.557C50.8578 105.976 51.0692 105.269 51.0692 104.436C51.0692 103.181 50.62 102.223 49.7215 101.563C48.8231 100.889 47.6868 100.552 46.3127 100.552H41.6354V108.321ZM65.6725 91.9109H77.9603L85.8878 108.4H86.2049L94.1325 91.9109H106.42L91.5164 119.737V132.5H80.5763V119.737L65.6725 91.9109ZM120.015 132.5V91.9109H131.034V123.621H147.444V132.5H120.015ZM189.08 112.205C189.08 116.724 188.202 120.536 186.444 123.641C184.687 126.733 182.315 129.078 179.329 130.677C176.343 132.262 173.014 133.055 169.341 133.055C165.641 133.055 162.298 132.256 159.312 130.657C156.339 129.045 153.974 126.693 152.217 123.601C150.473 120.496 149.601 116.698 149.601 112.205C149.601 107.687 150.473 103.882 152.217 100.79C153.974 97.6848 156.339 95.3396 159.312 93.7541C162.298 92.1553 165.641 91.356 169.341 91.356C173.014 91.356 176.343 92.1553 179.329 93.7541C182.315 95.3396 184.687 97.6848 186.444 100.79C188.202 103.882 189.08 107.687 189.08 112.205ZM177.744 112.205C177.744 109.774 177.42 107.726 176.773 106.062C176.138 104.384 175.194 103.115 173.939 102.256C172.697 101.384 171.164 100.948 169.341 100.948C167.517 100.948 165.978 101.384 164.723 102.256C163.481 103.115 162.536 104.384 161.889 106.062C161.254 107.726 160.937 109.774 160.937 112.205C160.937 114.637 161.254 116.691 161.889 118.369C162.536 120.034 163.481 121.302 164.723 122.174C165.978 123.033 167.517 123.463 169.341 123.463C171.164 123.463 172.697 123.033 173.939 122.174C175.194 121.302 176.138 120.034 176.773 118.369C177.42 116.691 177.744 114.637 177.744 112.205ZM231.514 107.132H220.336C220.257 106.207 220.046 105.368 219.702 104.615C219.372 103.862 218.909 103.214 218.315 102.673C217.734 102.118 217.027 101.695 216.194 101.404C215.362 101.1 214.417 100.948 213.36 100.948C211.51 100.948 209.945 101.398 208.663 102.296C207.395 103.194 206.43 104.483 205.77 106.161C205.122 107.839 204.798 109.854 204.798 112.205C204.798 114.689 205.129 116.77 205.789 118.448C206.463 120.113 207.434 121.368 208.703 122.214C209.971 123.046 211.497 123.463 213.281 123.463C214.298 123.463 215.21 123.337 216.016 123.086C216.822 122.822 217.522 122.445 218.117 121.956C218.711 121.467 219.194 120.88 219.563 120.192C219.947 119.492 220.204 118.706 220.336 117.834L231.514 117.913C231.382 119.631 230.9 121.382 230.067 123.165C229.235 124.936 228.053 126.574 226.52 128.08C225 129.573 223.118 130.776 220.872 131.687C218.625 132.599 216.016 133.055 213.043 133.055C209.317 133.055 205.974 132.256 203.015 130.657C200.068 129.058 197.736 126.706 196.019 123.601C194.314 120.496 193.462 116.698 193.462 112.205C193.462 107.687 194.334 103.882 196.078 100.79C197.822 97.6848 200.174 95.3396 203.134 93.7541C206.093 92.1553 209.396 91.356 213.043 91.356C215.606 91.356 217.965 91.7061 220.118 92.4064C222.272 93.1066 224.161 94.1306 225.787 95.4783C227.412 96.8128 228.72 98.4577 229.711 100.413C230.702 102.369 231.303 104.608 231.514 107.132ZM245.246 132.5H233.354L246.752 91.9109H261.814L275.212 132.5H263.32L254.442 103.089H254.124L245.246 132.5ZM243.026 116.486H265.382V124.731H243.026V116.486ZM272.33 100.79V91.9109H307.608V100.79H295.399V132.5H284.538V100.79H272.33ZM322.216 91.9109V132.5H311.197V91.9109H322.216ZM366.201 112.205C366.201 116.724 365.322 120.536 363.565 123.641C361.808 126.733 359.436 129.078 356.45 130.677C353.464 132.262 350.134 133.055 346.461 133.055C342.762 133.055 339.419 132.256 336.433 130.657C333.46 129.045 331.095 126.693 329.338 123.601C327.593 120.496 326.721 116.698 326.721 112.205C326.721 107.687 327.593 103.882 329.338 100.79C331.095 97.6848 333.46 95.3396 336.433 93.7541C339.419 92.1553 342.762 91.356 346.461 91.356C350.134 91.356 353.464 92.1553 356.45 93.7541C359.436 95.3396 361.808 97.6848 363.565 100.79C365.322 103.882 366.201 107.687 366.201 112.205ZM354.864 112.205C354.864 109.774 354.541 107.726 353.893 106.062C353.259 104.384 352.314 103.115 351.059 102.256C349.817 101.384 348.284 100.948 346.461 100.948C344.638 100.948 343.098 101.384 341.843 102.256C340.601 103.115 339.657 104.384 339.009 106.062C338.375 107.726 338.058 109.774 338.058 112.205C338.058 114.637 338.375 116.691 339.009 118.369C339.657 120.034 340.601 121.302 341.843 122.174C343.098 123.033 344.638 123.463 346.461 123.463C348.284 123.463 349.817 123.033 351.059 122.174C352.314 121.302 353.259 120.034 353.893 118.369C354.541 116.691 354.864 114.637 354.864 112.205ZM405.86 91.9109V132.5H396.664L381.998 111.175H381.76V132.5H370.741V91.9109H380.096L394.524 113.157H394.841V91.9109H405.86Z" fill="white"/>
</svg>
