<svg width="352" height="77" viewBox="0 0 352 77" fill="none" xmlns="http://www.w3.org/2000/svg">
<path d="M34.8486 29.98C34.6788 28.3917 33.9635 27.155 32.7025 26.2699C31.4537 25.3848 29.829 24.9422 27.8284 24.9422C26.4219 24.9422 25.2155 25.1544 24.2092 25.5788C23.2028 26.0031 22.4329 26.579 21.8994 27.3065C21.3659 28.034 21.0931 28.8646 21.081 29.7982C21.081 30.5741 21.2568 31.2471 21.6084 31.8169C21.9722 32.3868 22.4632 32.8718 23.0816 33.2719C23.6999 33.6599 24.385 33.9872 25.1367 34.254C25.8884 34.5207 26.6462 34.745 27.4101 34.9269L30.902 35.7999C32.3085 36.1272 33.6604 36.5698 34.9577 37.1275C36.2672 37.6853 37.4372 38.3885 38.4678 39.2372C39.5105 40.086 40.335 41.1105 40.9412 42.3108C41.5475 43.5112 41.8506 44.9177 41.8506 46.5302C41.8506 48.7127 41.2929 50.6345 40.1774 52.2955C39.0619 53.9445 37.4493 55.2358 35.3396 56.1694C33.2421 57.0909 30.7019 57.5516 27.7193 57.5516C24.8215 57.5516 22.3056 57.103 20.1716 56.2057C18.0498 55.3085 16.3887 53.9991 15.1884 52.2773C14.0002 50.5556 13.3576 48.4581 13.2606 45.9846H19.8988C19.9958 47.282 20.3959 48.3611 21.0992 49.2219C21.8024 50.0828 22.7178 50.7254 23.8454 51.1498C24.9851 51.5741 26.2582 51.7863 27.6647 51.7863C29.1318 51.7863 30.417 51.5681 31.5204 51.1316C32.6358 50.6829 33.5088 50.0646 34.1393 49.2765C34.7698 48.4763 35.0911 47.5427 35.1032 46.4757C35.0911 45.5057 34.8061 44.7055 34.2484 44.075C33.6907 43.4324 32.9086 42.8989 31.9023 42.4745C30.9081 42.038 29.7441 41.65 28.4104 41.3106L24.1728 40.2193C21.1052 39.4312 18.6803 38.2369 16.898 36.6365C15.1278 35.0239 14.2427 32.8839 14.2427 30.2165C14.2427 28.0219 14.8368 26.1001 16.025 24.4512C17.2253 22.8022 18.8561 21.523 20.9173 20.6137C22.9785 19.6922 25.3125 19.2315 27.9193 19.2315C30.5625 19.2315 32.8783 19.6922 34.8668 20.6137C36.8673 21.523 38.4375 22.7901 39.5772 24.4148C40.7169 26.0274 41.305 27.8825 41.3414 29.98H34.8486ZM46.2291 25.3969V19.7407H75.9468V25.3969H64.4344V56.9878H57.7415V25.3969H46.2291ZM81.9576 56.9878H74.7555L87.8684 19.7407H96.198L109.329 56.9878H102.127L92.1787 27.3793H91.8877L81.9576 56.9878ZM82.194 42.3836H101.836V47.8033H82.194V42.3836ZM114.235 56.9878V19.7407H128.203C131.064 19.7407 133.465 20.2378 135.405 21.2321C137.357 22.2263 138.83 23.6206 139.824 25.4151C140.831 27.1974 141.334 29.2768 141.334 31.6532C141.334 34.0418 140.825 36.1151 139.806 37.8732C138.8 39.6192 137.314 40.9711 135.35 41.9289C133.386 42.8746 130.973 43.3475 128.112 43.3475H118.163V37.7459H127.202C128.876 37.7459 130.246 37.5155 131.313 37.0548C132.38 36.5819 133.168 35.8969 133.677 34.9997C134.198 34.0903 134.459 32.9748 134.459 31.6532C134.459 30.3316 134.198 29.204 133.677 28.2704C133.156 27.3247 132.361 26.6094 131.294 26.1244C130.228 25.6273 128.851 25.3787 127.166 25.3787H120.982V56.9878H114.235ZM133.477 40.1102L142.698 56.9878H135.168L126.111 40.1102H133.477ZM145.908 25.3969V19.7407H175.625V25.3969H164.113V56.9878H157.42V25.3969H145.908ZM206.68 56.9878H194.058V19.7407H206.934C210.632 19.7407 213.809 20.4864 216.464 21.9777C219.132 23.4569 221.181 25.5848 222.612 28.3614C224.042 31.1379 224.758 34.4601 224.758 38.3279C224.758 42.2078 224.036 45.5421 222.593 48.3308C221.163 51.1194 219.096 53.2594 216.392 54.7508C213.7 56.2421 210.463 56.9878 206.68 56.9878ZM200.805 51.1498H206.352C208.947 51.1498 211.111 50.6769 212.845 49.7312C214.579 48.7733 215.882 47.3487 216.755 45.4572C217.628 43.5536 218.065 41.1772 218.065 38.3279C218.065 35.4786 217.628 33.1143 216.755 31.2349C215.882 29.3435 214.591 27.931 212.882 26.9974C211.184 26.0516 209.074 25.5788 206.553 25.5788H200.805V51.1498ZM233.951 56.9878H226.749L239.862 19.7407H248.192L261.323 56.9878H254.121L244.172 27.3793H243.881L233.951 56.9878ZM234.188 42.3836H253.83V47.8033H234.188V42.3836ZM260.091 25.3969V19.7407H289.808V25.3969H278.296V56.9878H271.603V25.3969H260.091ZM295.537 56.9878V19.7407H319.762V25.3969H302.285V35.5089H318.507V41.1651H302.285V51.3316H319.908V56.9878H295.537ZM330.411 52.5138C329.308 52.5138 328.362 52.1258 327.574 51.3498C326.786 50.5617 326.398 49.616 326.41 48.5126C326.398 47.4214 326.786 46.4878 327.574 45.7118C328.362 44.9358 329.308 44.5479 330.411 44.5479C331.478 44.5479 332.405 44.9358 333.193 45.7118C333.994 46.4878 334.4 47.4214 334.412 48.5126C334.4 49.2522 334.206 49.9252 333.83 50.5314C333.466 51.1376 332.981 51.6226 332.375 51.9864C331.781 52.338 331.126 52.5138 330.411 52.5138ZM330.411 34.0539C329.308 34.0539 328.362 33.6659 327.574 32.89C326.786 32.1018 326.398 31.1561 326.41 30.0528C326.398 28.9616 326.786 28.0279 327.574 27.252C328.362 26.4639 329.308 26.0698 330.411 26.0698C331.478 26.0698 332.405 26.4639 333.193 27.252C333.994 28.0279 334.4 28.9616 334.412 30.0528C334.4 30.7803 334.206 31.4471 333.83 32.0534C333.466 32.6596 332.981 33.1446 332.375 33.5083C331.781 33.8721 331.126 34.0539 330.411 34.0539Z" fill="#9493F8"/>
</svg>
