<svg width="65" height="41" viewBox="0 0 65 41" fill="none" xmlns="http://www.w3.org/2000/svg">
<path d="M17.9013 14.1677V11.0364H32.6546V14.1677H27.155V29H23.4009V14.1677H17.9013ZM39.1476 29.2631C37.7851 29.2631 36.6068 28.9737 35.6128 28.3948C34.6245 27.81 33.8614 26.9972 33.3235 25.9564C32.7855 24.9096 32.5165 23.6963 32.5165 22.3163C32.5165 20.9245 32.7855 19.7083 33.3235 18.6674C33.8614 17.6207 34.6245 16.8079 35.6128 16.229C36.6068 15.6442 37.7851 15.3518 39.1476 15.3518C40.5101 15.3518 41.6854 15.6442 42.6737 16.229C43.6677 16.8079 44.4338 17.6207 44.9717 18.6674C45.5097 19.7083 45.7787 20.9245 45.7787 22.3163C45.7787 23.6963 45.5097 24.9096 44.9717 25.9564C44.4338 26.9972 43.6677 27.81 42.6737 28.3948C41.6854 28.9737 40.5101 29.2631 39.1476 29.2631ZM39.1651 26.3686C39.785 26.3686 40.3025 26.1932 40.7177 25.8423C41.1328 25.4856 41.4457 25.0003 41.6562 24.3863C41.8726 23.7723 41.9807 23.0735 41.9807 22.2899C41.9807 21.5064 41.8726 20.8076 41.6562 20.1936C41.4457 19.5796 41.1328 19.0943 40.7177 18.7376C40.3025 18.3809 39.785 18.2025 39.1651 18.2025C38.5395 18.2025 38.0132 18.3809 37.5863 18.7376C37.1653 19.0943 36.8466 19.5796 36.6302 20.1936C36.4197 20.8076 36.3145 21.5064 36.3145 22.2899C36.3145 23.0735 36.4197 23.7723 36.6302 24.3863C36.8466 25.0003 37.1653 25.4856 37.5863 25.8423C38.0132 26.1932 38.5395 26.3686 39.1651 26.3686Z" fill="#9493F8"/>
</svg>
