<svg width="1165" height="169" viewBox="0 0 1165 169" fill="none" xmlns="http://www.w3.org/2000/svg">
<path d="M1.50622 33.29V24.4112H36.7836V33.29H24.5752V65H13.7146V33.29H1.50622ZM78.3434 44.7056C78.3434 49.2243 77.4648 53.0361 75.7075 56.141C73.9503 59.2327 71.5786 61.578 68.5926 63.1767C65.6066 64.7622 62.2771 65.5549 58.604 65.5549C54.9045 65.5549 51.5617 64.7556 48.5757 63.1569C45.6029 61.5449 43.2379 59.1931 41.4806 56.1014C39.7366 52.9965 38.8645 49.1979 38.8645 44.7056C38.8645 40.187 39.7366 36.3818 41.4806 33.29C43.2379 30.1851 45.6029 27.8399 48.5757 26.2544C51.5617 24.6557 54.9045 23.8563 58.604 23.8563C62.2771 23.8563 65.6066 24.6557 68.5926 26.2544C71.5786 27.8399 73.9503 30.1851 75.7075 33.29C77.4648 36.3818 78.3434 40.187 78.3434 44.7056ZM67.0071 44.7056C67.0071 42.2745 66.6834 40.2266 66.036 38.5618C65.4018 36.8838 64.4571 35.6154 63.2019 34.7566C61.96 33.8846 60.4273 33.4486 58.604 33.4486C56.7807 33.4486 55.2414 33.8846 53.9862 34.7566C52.7442 35.6154 51.7996 36.8838 51.1521 38.5618C50.5179 40.2266 50.2008 42.2745 50.2008 44.7056C50.2008 47.1367 50.5179 49.1913 51.1521 50.8692C51.7996 52.534 52.7442 53.8024 53.9862 54.6744C55.2414 55.5333 56.7807 55.9627 58.604 55.9627C60.4273 55.9627 61.96 55.5333 63.2019 54.6744C64.4571 53.8024 65.4018 52.534 66.036 50.8692C66.6834 49.1913 67.0071 47.1367 67.0071 44.7056ZM83.4418 65V24.4112H100.962C103.974 24.4112 106.61 25.0058 108.869 26.1949C111.129 27.3841 112.886 29.0554 114.141 31.2091C115.396 33.3627 116.024 35.8797 116.024 38.76C116.024 41.6667 115.376 44.1837 114.082 46.3109C112.8 48.4381 110.996 50.0765 108.671 51.226C106.359 52.3755 103.657 52.9502 100.565 52.9502H90.1009V44.3885H98.3455C99.6403 44.3885 100.744 44.1639 101.655 43.7147C102.58 43.2522 103.287 42.5982 103.776 41.7526C104.278 40.907 104.529 39.9095 104.529 38.76C104.529 37.5973 104.278 36.6064 103.776 35.7872C103.287 34.9548 102.58 34.3206 101.655 33.8846C100.744 33.4354 99.6403 33.2108 98.3455 33.2108H94.461V65H83.4418ZM131.185 65V24.4112H148.705C151.717 24.4112 154.353 24.9596 156.613 26.0562C158.872 27.1528 160.629 28.7317 161.884 30.7929C163.14 32.854 163.767 35.3248 163.767 38.2051C163.767 41.1118 163.12 43.5627 161.825 45.5578C160.543 47.5529 158.74 49.0591 156.414 50.0765C154.102 51.0939 151.4 51.6025 148.309 51.6025H137.844V43.0408H146.089C147.384 43.0408 148.487 42.8823 149.399 42.5652C150.323 42.2349 151.03 41.713 151.519 40.9995C152.021 40.286 152.272 39.3546 152.272 38.2051C152.272 37.0424 152.021 36.0977 151.519 35.371C151.03 34.6311 150.323 34.0894 149.399 33.7459C148.487 33.3891 147.384 33.2108 146.089 33.2108H142.204V65H131.185ZM154.968 46.3704L165.115 65H153.144L143.235 46.3704H154.968ZM168.464 65V24.4112H197.717V33.29H179.483V40.2662H196.21V49.145H179.483V56.1212H197.637V65H168.464ZM241.075 39.632H229.897C229.818 38.7072 229.607 37.8682 229.263 37.115C228.933 36.3619 228.47 35.7145 227.876 35.1728C227.294 34.6179 226.588 34.1951 225.755 33.9044C224.923 33.6005 223.978 33.4486 222.921 33.4486C221.071 33.4486 219.506 33.8978 218.224 34.7963C216.956 35.6947 215.991 36.9829 215.33 38.6609C214.683 40.3389 214.359 42.3538 214.359 44.7056C214.359 47.1896 214.69 49.2705 215.35 50.9485C216.024 52.6133 216.995 53.8685 218.264 54.7141C219.532 55.5465 221.058 55.9627 222.842 55.9627C223.859 55.9627 224.771 55.8371 225.577 55.5861C226.383 55.3219 227.083 54.9453 227.678 54.4564C228.272 53.9676 228.754 53.3796 229.124 52.6926C229.507 51.9923 229.765 51.2062 229.897 50.3341L241.075 50.4134C240.943 52.131 240.461 53.8817 239.628 55.6654C238.796 57.4359 237.613 59.0742 236.081 60.5804C234.561 62.0734 232.678 63.2758 230.432 64.1874C228.186 65.0991 225.577 65.5549 222.604 65.5549C218.878 65.5549 215.535 64.7556 212.576 63.1569C209.629 61.5581 207.297 59.2063 205.58 56.1014C203.875 52.9965 203.023 49.1979 203.023 44.7056C203.023 40.187 203.895 36.3818 205.639 33.29C207.383 30.1851 209.735 27.8399 212.695 26.2544C215.654 24.6557 218.957 23.8563 222.604 23.8563C225.167 23.8563 227.526 24.2064 229.679 24.9067C231.833 25.607 233.722 26.6309 235.347 27.9786C236.973 29.3131 238.281 30.958 239.272 32.9135C240.262 34.8689 240.864 37.1084 241.075 39.632ZM244.41 24.4112H256.697L264.625 40.9004H264.942L272.869 24.4112H285.157L270.253 52.2367V65H259.313V52.2367L244.41 24.4112ZM323.808 39.632H312.631C312.551 38.7072 312.34 37.8682 311.996 37.115C311.666 36.3619 311.204 35.7145 310.609 35.1728C310.028 34.6179 309.321 34.1951 308.488 33.9044C307.656 33.6005 306.711 33.4486 305.654 33.4486C303.805 33.4486 302.239 33.8978 300.957 34.7963C299.689 35.6947 298.724 36.9829 298.064 38.6609C297.416 40.3389 297.093 42.3538 297.093 44.7056C297.093 47.1896 297.423 49.2705 298.084 50.9485C298.757 52.6133 299.729 53.8685 300.997 54.7141C302.265 55.5465 303.791 55.9627 305.575 55.9627C306.592 55.9627 307.504 55.8371 308.31 55.5861C309.116 55.3219 309.816 54.9453 310.411 54.4564C311.005 53.9676 311.488 53.3796 311.858 52.6926C312.241 51.9923 312.498 51.2062 312.631 50.3341L323.808 50.4134C323.676 52.131 323.194 53.8817 322.362 55.6654C321.529 57.4359 320.347 59.0742 318.814 60.5804C317.295 62.0734 315.412 63.2758 313.166 64.1874C310.92 65.0991 308.31 65.5549 305.337 65.5549C301.611 65.5549 298.269 64.7556 295.309 63.1569C292.363 61.5581 290.031 59.2063 288.313 56.1014C286.609 52.9965 285.756 49.1979 285.756 44.7056C285.756 40.187 286.628 36.3818 288.372 33.29C290.116 30.1851 292.468 27.8399 295.428 26.2544C298.387 24.6557 301.691 23.8563 305.337 23.8563C307.9 23.8563 310.259 24.2064 312.413 24.9067C314.566 25.607 316.456 26.6309 318.081 27.9786C319.706 29.3131 321.014 30.958 322.005 32.9135C322.996 34.8689 323.597 37.1084 323.808 39.632ZM328.808 65V24.4112H339.827V56.1212H356.237V65H328.808ZM371.71 24.4112V65H360.691V24.4112H371.71ZM412.051 24.4112V65H402.855L388.189 43.675H387.952V65H376.932V24.4112H386.287L400.715 45.6569H401.032V24.4112H412.051ZM443.622 37.8087C443.451 37.1084 443.18 36.4941 442.81 35.9656C442.44 35.4239 441.977 34.968 441.423 34.5981C440.881 34.2149 440.247 33.9308 439.52 33.7459C438.806 33.5477 438.02 33.4486 437.162 33.4486C435.312 33.4486 433.733 33.8912 432.425 34.7764C431.13 35.6617 430.139 36.9367 429.452 38.6015C428.778 40.2662 428.441 42.2745 428.441 44.6263C428.441 47.0046 428.765 49.0393 429.412 50.7305C430.06 52.4217 431.024 53.7165 432.306 54.615C433.588 55.5134 435.18 55.9627 437.082 55.9627C438.76 55.9627 440.154 55.7182 441.264 55.2294C442.387 54.7405 443.226 54.0468 443.781 53.1484C444.336 52.25 444.613 51.193 444.613 49.9774L446.516 50.1756H437.241V42.3274H455.236V47.9559C455.236 51.6554 454.45 54.8198 452.878 57.4491C451.319 60.0651 449.165 62.0734 446.417 63.474C443.682 64.8613 440.544 65.5549 437.003 65.5549C433.052 65.5549 429.584 64.7159 426.598 63.0379C423.612 61.36 421.28 58.9685 419.602 55.8636C417.937 52.7586 417.105 49.0657 417.105 44.7849C417.105 41.4289 417.614 38.4561 418.631 35.8665C419.662 33.2768 421.089 31.0902 422.912 29.3065C424.735 27.5096 426.843 26.1553 429.234 25.2436C431.625 24.3188 434.189 23.8563 436.924 23.8563C439.328 23.8563 441.561 24.1998 443.622 24.8869C445.697 25.5607 447.527 26.5252 449.112 27.7804C450.711 29.0224 451.999 30.4956 452.977 32.2C453.955 33.9044 454.549 35.774 454.761 37.8087H443.622ZM471.493 65V24.4112H482.512V56.1212H498.922V65H471.493ZM541.116 44.7056C541.116 49.2243 540.237 53.0361 538.48 56.141C536.723 59.2327 534.351 61.578 531.365 63.1767C528.379 64.7622 525.049 65.5549 521.376 65.5549C517.677 65.5549 514.334 64.7556 511.348 63.1569C508.375 61.5449 506.01 59.1931 504.253 56.1014C502.509 52.9965 501.637 49.1979 501.637 44.7056C501.637 40.187 502.509 36.3818 504.253 33.29C506.01 30.1851 508.375 27.8399 511.348 26.2544C514.334 24.6557 517.677 23.8563 521.376 23.8563C525.049 23.8563 528.379 24.6557 531.365 26.2544C534.351 27.8399 536.723 30.1851 538.48 33.29C540.237 36.3818 541.116 40.187 541.116 44.7056ZM529.779 44.7056C529.779 42.2745 529.456 40.2266 528.808 38.5618C528.174 36.8838 527.229 35.6154 525.974 34.7566C524.732 33.8846 523.2 33.4486 521.376 33.4486C519.553 33.4486 518.014 33.8846 516.758 34.7566C515.516 35.6154 514.572 36.8838 513.924 38.5618C513.29 40.2266 512.973 42.2745 512.973 44.7056C512.973 47.1367 513.29 49.1913 513.924 50.8692C514.572 52.534 515.516 53.8024 516.758 54.6744C518.014 55.5333 519.553 55.9627 521.376 55.9627C523.2 55.9627 524.732 55.5333 525.974 54.6744C527.229 53.8024 528.174 52.534 528.808 50.8692C529.456 49.1913 529.779 47.1367 529.779 44.7056ZM584.108 39.632H572.93C572.85 38.7072 572.639 37.8682 572.296 37.115C571.965 36.3619 571.503 35.7145 570.908 35.1728C570.327 34.6179 569.62 34.1951 568.788 33.9044C567.955 33.6005 567.011 33.4486 565.954 33.4486C564.104 33.4486 562.538 33.8978 561.257 34.7963C559.988 35.6947 559.024 36.9829 558.363 38.6609C557.716 40.3389 557.392 42.3538 557.392 44.7056C557.392 47.1896 557.722 49.2705 558.383 50.9485C559.057 52.6133 560.028 53.8685 561.296 54.7141C562.565 55.5465 564.091 55.9627 565.874 55.9627C566.892 55.9627 567.803 55.8371 568.609 55.5861C569.415 55.3219 570.115 54.9453 570.71 54.4564C571.305 53.9676 571.787 53.3796 572.157 52.6926C572.54 51.9923 572.798 51.2062 572.93 50.3341L584.108 50.4134C583.975 52.131 583.493 53.8817 582.661 55.6654C581.828 57.4359 580.646 59.0742 579.113 60.5804C577.594 62.0734 575.711 63.2758 573.465 64.1874C571.219 65.0991 568.609 65.5549 565.636 65.5549C561.911 65.5549 558.568 64.7556 555.608 63.1569C552.662 61.5581 550.33 59.2063 548.612 56.1014C546.908 52.9965 546.056 49.1979 546.056 44.7056C546.056 40.187 546.928 36.3818 548.672 33.29C550.416 30.1851 552.767 27.8399 555.727 26.2544C558.687 24.6557 561.99 23.8563 565.636 23.8563C568.2 23.8563 570.558 24.2064 572.712 24.9067C574.865 25.607 576.755 26.6309 578.38 27.9786C580.005 29.3131 581.313 30.958 582.304 32.9135C583.295 34.8689 583.896 37.1084 584.108 39.632ZM598.397 65H586.506L599.903 24.4112H614.965L628.363 65H616.471L607.593 35.589H607.276L598.397 65ZM596.177 48.9865H618.533V57.2311H596.177V48.9865ZM626.039 33.29V24.4112H661.316V33.29H649.108V65H638.247V33.29H626.039ZM676.483 24.4112V65H665.463V24.4112H676.483ZM721.025 44.7056C721.025 49.2243 720.147 53.0361 718.389 56.141C716.632 59.2327 714.26 61.578 711.274 63.1767C708.288 64.7622 704.959 65.5549 701.286 65.5549C697.586 65.5549 694.243 64.7556 691.257 63.1569C688.285 61.5449 685.92 59.1931 684.162 56.1014C682.418 52.9965 681.546 49.1979 681.546 44.7056C681.546 40.187 682.418 36.3818 684.162 33.29C685.92 30.1851 688.285 27.8399 691.257 26.2544C694.243 24.6557 697.586 23.8563 701.286 23.8563C704.959 23.8563 708.288 24.6557 711.274 26.2544C714.26 27.8399 716.632 30.1851 718.389 33.29C720.147 36.3818 721.025 40.187 721.025 44.7056ZM709.689 44.7056C709.689 42.2745 709.365 40.2266 708.718 38.5618C708.084 36.8838 707.139 35.6154 705.884 34.7566C704.642 33.8846 703.109 33.4486 701.286 33.4486C699.462 33.4486 697.923 33.8846 696.668 34.7566C695.426 35.6154 694.481 36.8838 693.834 38.5618C693.2 40.2266 692.883 42.2745 692.883 44.7056C692.883 47.1367 693.2 49.1913 693.834 50.8692C694.481 52.534 695.426 53.8024 696.668 54.6744C697.923 55.5333 699.462 55.9627 701.286 55.9627C703.109 55.9627 704.642 55.5333 705.884 54.6744C707.139 53.8024 708.084 52.534 708.718 50.8692C709.365 49.1913 709.689 47.1367 709.689 44.7056ZM761.242 24.4112V65H752.046L737.381 43.675H737.143V65H726.124V24.4112H735.478L749.906 45.6569H750.223V24.4112H761.242ZM788.335 37.0952C788.229 35.774 787.733 34.7434 786.848 34.0035C785.976 33.2636 784.648 32.8937 782.865 32.8937C781.728 32.8937 780.797 33.0324 780.07 33.3099C779.357 33.5741 778.828 33.9374 778.485 34.3999C778.141 34.8623 777.963 35.3908 777.949 35.9854C777.923 36.4742 778.009 36.9169 778.207 37.3132C778.419 37.6964 778.749 38.0465 779.198 38.3636C779.647 38.6675 780.222 38.945 780.922 39.196C781.623 39.4471 782.455 39.6717 783.419 39.8699L786.749 40.5833C788.995 41.059 790.918 41.6866 792.516 42.4661C794.115 43.2456 795.423 44.1639 796.44 45.2209C797.458 46.2647 798.204 47.4406 798.68 48.7486C799.169 50.0567 799.42 51.4836 799.433 53.0295C799.42 55.6984 798.753 57.9577 797.431 59.8075C796.11 61.6572 794.221 63.0644 791.763 64.0289C789.319 64.9934 786.379 65.4756 782.944 65.4756C779.416 65.4756 776.338 64.9538 773.708 63.91C771.092 62.8662 769.057 61.2609 767.604 59.094C766.164 56.914 765.437 54.1261 765.424 50.7305H775.888C775.954 51.9725 776.265 53.0163 776.82 53.8619C777.375 54.7075 778.154 55.3483 779.158 55.7843C780.176 56.2203 781.385 56.4383 782.785 56.4383C783.961 56.4383 784.946 56.293 785.738 56.0023C786.531 55.7116 787.132 55.3086 787.542 54.7934C787.951 54.2781 788.163 53.6901 788.176 53.0295C788.163 52.4085 787.958 51.8668 787.562 51.4044C787.178 50.9287 786.544 50.5059 785.659 50.136C784.774 49.7528 783.578 49.3961 782.072 49.0657L778.029 48.1937C774.435 47.4142 771.601 46.1128 769.527 44.2894C767.465 42.4529 766.441 39.9491 766.455 36.7781C766.441 34.2017 767.128 31.949 768.516 30.0199C769.916 28.0777 771.852 26.5649 774.323 25.4815C776.807 24.398 779.654 23.8563 782.865 23.8563C786.141 23.8563 788.975 24.4046 791.367 25.5013C793.758 26.5979 795.601 28.1438 796.896 30.1389C798.204 32.1207 798.865 34.4395 798.878 37.0952H788.335Z" fill="#9493F8"/>
<rect y="82" width="505" height="63" rx="31.5" fill="#9493F8"/>
<path d="M31.5062 102.29V93.4112H66.7836V102.29H54.5752V134H43.7146V102.29H31.5062ZM108.343 113.706C108.343 118.224 107.465 122.036 105.708 125.141C103.95 128.233 101.579 130.578 98.5926 132.177C95.6066 133.762 92.2771 134.555 88.604 134.555C84.9045 134.555 81.5617 133.756 78.5757 132.157C75.6029 130.545 73.2379 128.193 71.4806 125.101C69.7366 121.996 68.8645 118.198 68.8645 113.706C68.8645 109.187 69.7366 105.382 71.4806 102.29C73.2379 99.1851 75.6029 96.8399 78.5757 95.2544C81.5617 93.6557 84.9045 92.8563 88.604 92.8563C92.2771 92.8563 95.6066 93.6557 98.5926 95.2544C101.579 96.8399 103.95 99.1851 105.708 102.29C107.465 105.382 108.343 109.187 108.343 113.706ZM97.0071 113.706C97.0071 111.275 96.6834 109.227 96.036 107.562C95.4018 105.884 94.4571 104.615 93.2019 103.757C91.96 102.885 90.4273 102.449 88.604 102.449C86.7807 102.449 85.2414 102.885 83.9862 103.757C82.7442 104.615 81.7996 105.884 81.1521 107.562C80.5179 109.227 80.2008 111.275 80.2008 113.706C80.2008 116.137 80.5179 118.191 81.1521 119.869C81.7996 121.534 82.7442 122.802 83.9862 123.674C85.2414 124.533 86.7807 124.963 88.604 124.963C90.4273 124.963 91.96 124.533 93.2019 123.674C94.4571 122.802 95.4018 121.534 96.036 119.869C96.6834 118.191 97.0071 116.137 97.0071 113.706ZM110.424 102.29V93.4112H145.702V102.29H133.493V134H122.633V102.29H110.424ZM155.269 134H143.378L156.775 93.4112H171.838L185.235 134H173.344L164.465 104.589H164.148L155.269 134ZM153.05 117.986H175.405V126.231H153.05V117.986ZM189.144 134V93.4112H200.164V125.121H216.574V134H189.144ZM243.245 93.4112L251.568 122.029H251.886L260.209 93.4112H272.656L259.258 134H244.196L230.798 93.4112H243.245ZM313.324 113.706C313.324 118.224 312.445 122.036 310.688 125.141C308.93 128.233 306.559 130.578 303.573 132.177C300.587 133.762 297.257 134.555 293.584 134.555C289.885 134.555 286.542 133.756 283.556 132.157C280.583 130.545 278.218 128.193 276.461 125.101C274.717 121.996 273.845 118.198 273.845 113.706C273.845 109.187 274.717 105.382 276.461 102.29C278.218 99.1851 280.583 96.8399 283.556 95.2544C286.542 93.6557 289.885 92.8563 293.584 92.8563C297.257 92.8563 300.587 93.6557 303.573 95.2544C306.559 96.8399 308.93 99.1851 310.688 102.29C312.445 105.382 313.324 109.187 313.324 113.706ZM301.987 113.706C301.987 111.275 301.664 109.227 301.016 107.562C300.382 105.884 299.437 104.615 298.182 103.757C296.94 102.885 295.407 102.449 293.584 102.449C291.761 102.449 290.222 102.885 288.966 103.757C287.724 104.615 286.78 105.884 286.132 107.562C285.498 109.227 285.181 111.275 285.181 113.706C285.181 116.137 285.498 118.191 286.132 119.869C286.78 121.534 287.724 122.802 288.966 123.674C290.222 124.533 291.761 124.963 293.584 124.963C295.407 124.963 296.94 124.533 298.182 123.674C299.437 122.802 300.382 121.534 301.016 119.869C301.664 118.191 301.987 116.137 301.987 113.706ZM318.422 134V93.4112H329.441V125.121H345.851V134H318.422ZM374.326 93.4112H385.345V119.413C385.345 122.505 384.605 125.181 383.125 127.44C381.659 129.686 379.611 131.424 376.981 132.652C374.352 133.868 371.3 134.476 367.825 134.476C364.324 134.476 361.258 133.868 358.629 132.652C356 131.424 353.952 129.686 352.485 127.44C351.032 125.181 350.305 122.505 350.305 119.413V93.4112H361.325V118.462C361.325 119.717 361.602 120.84 362.157 121.831C362.712 122.809 363.478 123.575 364.456 124.13C365.447 124.685 366.57 124.963 367.825 124.963C369.093 124.963 370.217 124.685 371.194 124.13C372.172 123.575 372.938 122.809 373.493 121.831C374.048 120.84 374.326 119.717 374.326 118.462V93.4112ZM390.582 93.4112H404.297L413.73 116.401H414.206L423.64 93.4112H437.354V134H426.573V110.535H426.256L417.218 133.683H410.718L401.68 110.376H401.363V134H390.582V93.4112ZM442.576 134V93.4112H471.829V102.29H453.596V109.266H470.323V118.145H453.596V125.121H471.75V134H442.576Z" fill="white"/>
<rect x="513" y="79" width="95" height="66" rx="33" fill="#9493F8"/>
<path d="M556.855 133.134C553.948 133.134 551.445 132.619 549.344 131.588C547.243 130.558 545.631 129.177 544.508 127.446C543.385 125.715 542.823 123.806 542.823 121.719C542.823 120.199 543.114 118.858 543.695 117.695C544.277 116.519 545.089 115.443 546.133 114.465C547.177 113.487 548.399 112.523 549.8 111.571L558.996 105.863C559.92 105.282 560.548 104.681 560.878 104.06C561.209 103.426 561.374 102.864 561.374 102.375C561.374 101.728 561.136 101.153 560.66 100.651C560.185 100.149 559.445 99.9045 558.441 99.9177C557.82 99.9177 557.285 100.037 556.835 100.274C556.386 100.499 556.036 100.816 555.785 101.226C555.547 101.635 555.428 102.124 555.428 102.692C555.428 103.472 555.653 104.271 556.102 105.09C556.551 105.896 557.166 106.768 557.945 107.707C558.725 108.645 559.603 109.695 560.581 110.858L580.241 132.5H569.301L552.812 115.059C552.006 114.201 551.114 113.15 550.137 111.908C549.159 110.653 548.313 109.239 547.6 107.667C546.899 106.095 546.549 104.384 546.549 102.534C546.549 100.473 547.045 98.5899 548.036 96.8854C549.027 95.181 550.414 93.8201 552.198 92.8028C553.981 91.7854 556.062 91.2767 558.441 91.2767C560.713 91.2767 562.669 91.7457 564.307 92.6838C565.959 93.6219 567.227 94.8705 568.112 96.4296C569.011 97.9887 569.46 99.7063 569.46 101.583C569.46 103.472 568.991 105.236 568.053 106.874C567.128 108.513 565.8 109.946 564.069 111.175L555.666 117.121C555.019 117.57 554.457 118.085 553.981 118.666C553.519 119.248 553.288 120.001 553.288 120.926C553.288 121.692 553.466 122.346 553.823 122.888C554.18 123.43 554.682 123.846 555.329 124.136C555.99 124.427 556.763 124.572 557.648 124.572C558.996 124.572 560.343 124.249 561.691 123.601C563.052 122.941 564.294 122.022 565.417 120.846C566.54 119.657 567.438 118.257 568.112 116.645C568.799 115.02 569.143 113.249 569.143 111.333H577.784C577.784 113.685 577.539 115.951 577.051 118.131C576.562 120.311 575.776 122.306 574.692 124.117C573.609 125.927 572.182 127.453 570.411 128.695C569.856 128.972 569.315 129.236 568.786 129.488C568.258 129.739 567.716 130.003 567.161 130.28C565.536 131.324 563.838 132.064 562.067 132.5C560.297 132.923 558.56 133.134 556.855 133.134Z" fill="white"/>
<rect x="616" y="79" width="451" height="66" rx="33" fill="#9493F8"/>
<path d="M662.233 132.5H646.616V91.9109H662.075C666.25 91.9109 669.857 92.7235 672.896 94.3486C675.948 95.9606 678.3 98.286 679.951 101.325C681.616 104.351 682.449 107.977 682.449 112.205C682.449 116.433 681.623 120.067 679.971 123.106C678.32 126.132 675.981 128.457 672.955 130.082C669.93 131.694 666.356 132.5 662.233 132.5ZM657.635 123.145H661.837C663.845 123.145 665.556 122.822 666.97 122.174C668.397 121.527 669.48 120.41 670.22 118.825C670.974 117.239 671.35 115.033 671.35 112.205C671.35 109.378 670.967 107.171 670.201 105.586C669.447 104 668.338 102.884 666.871 102.237C665.418 101.589 663.634 101.265 661.52 101.265H657.635V123.145ZM694.971 132.5H683.08L696.477 91.9109H711.54L724.937 132.5H713.046L704.167 103.089H703.85L694.971 132.5ZM692.751 116.486H715.107V124.731H692.751V116.486ZM739.308 91.9109V132.5H728.288V91.9109H739.308ZM743.972 132.5V91.9109H754.991V123.621H771.401V132.5H743.972ZM766.275 91.9109H778.563L786.49 108.4H786.807L794.735 91.9109H807.022L792.119 119.737V132.5H781.179V119.737L766.275 91.9109ZM831.636 91.9109V132.5H820.617V91.9109H831.636ZM836.3 91.9109H850.015L859.449 114.901H859.924L869.358 91.9109H883.073V132.5H872.291V109.034H871.974L862.937 132.183H856.436L847.399 108.876H847.082V132.5H836.3V91.9109ZM887.737 132.5V91.9109H905.257C908.269 91.9109 910.905 92.5055 913.165 93.6946C915.424 94.8837 917.181 96.5551 918.437 98.7088C919.692 100.862 920.319 103.379 920.319 106.26C920.319 109.167 919.672 111.684 918.377 113.811C917.095 115.938 915.292 117.576 912.967 118.726C910.654 119.875 907.952 120.45 904.861 120.45H894.396V111.888H902.641C903.936 111.888 905.039 111.664 905.951 111.215C906.876 110.752 907.582 110.098 908.071 109.252C908.573 108.407 908.824 107.409 908.824 106.26C908.824 105.097 908.573 104.106 908.071 103.287C907.582 102.455 906.876 101.82 905.951 101.384C905.039 100.935 903.936 100.71 902.641 100.71H898.756V132.5H887.737ZM929.279 132.5H917.388L930.786 91.9109H945.848L959.245 132.5H947.354L938.475 103.089H938.158L929.279 132.5ZM927.06 116.486H949.415V124.731H927.06V116.486ZM998.583 107.132H987.405C987.326 106.207 987.114 105.368 986.771 104.615C986.44 103.862 985.978 103.214 985.383 102.673C984.802 102.118 984.095 101.695 983.263 101.404C982.43 101.1 981.486 100.948 980.429 100.948C978.579 100.948 977.013 101.398 975.732 102.296C974.463 103.194 973.499 104.483 972.838 106.161C972.191 107.839 971.867 109.854 971.867 112.205C971.867 114.689 972.197 116.77 972.858 118.448C973.532 120.113 974.503 121.368 975.771 122.214C977.04 123.046 978.566 123.463 980.349 123.463C981.367 123.463 982.278 123.337 983.084 123.086C983.89 122.822 984.591 122.445 985.185 121.956C985.78 121.467 986.262 120.88 986.632 120.192C987.015 119.492 987.273 118.706 987.405 117.834L998.583 117.913C998.451 119.631 997.968 121.382 997.136 123.165C996.304 124.936 995.121 126.574 993.588 128.08C992.069 129.573 990.186 130.776 987.94 131.687C985.694 132.599 983.084 133.055 980.112 133.055C976.386 133.055 973.043 132.256 970.083 130.657C967.137 129.058 964.805 126.706 963.087 123.601C961.383 120.496 960.531 116.698 960.531 112.205C960.531 107.687 961.403 103.882 963.147 100.79C964.891 97.6848 967.243 95.3396 970.202 93.7541C973.162 92.1553 976.465 91.356 980.112 91.356C982.675 91.356 985.033 91.7061 987.187 92.4064C989.341 93.1066 991.23 94.1306 992.855 95.4783C994.48 96.8128 995.788 98.4577 996.779 100.413C997.77 102.369 998.371 104.608 998.583 107.132ZM1001.91 100.79V91.9109H1037.19V100.79H1024.98V132.5H1014.12V100.79H1001.91Z" fill="white"/>
</svg>
