<svg width="307" height="128" viewBox="0 0 307 128" fill="none" xmlns="http://www.w3.org/2000/svg">
<rect width="307" height="128" rx="15" fill="#9691FF"/>
<path d="M84.0536 55.2443V48.5927H110.482V55.2443H101.336V79H93.1995V55.2443H84.0536ZM141.617 63.7964C141.617 67.1815 140.958 70.0372 139.642 72.3633C138.325 74.6794 136.549 76.4364 134.312 77.634C132.075 78.8218 129.58 79.4157 126.829 79.4157C124.057 79.4157 121.553 78.8169 119.316 77.6192C117.089 76.4116 115.317 74.6497 114.001 72.3336C112.694 70.0075 112.041 67.1618 112.041 63.7964C112.041 60.4112 112.694 57.5605 114.001 55.2443C115.317 52.9182 117.089 51.1613 119.316 49.9735C121.553 48.7758 124.057 48.177 126.829 48.177C129.58 48.177 132.075 48.7758 134.312 49.9735C136.549 51.1613 138.325 52.9182 139.642 55.2443C140.958 57.5605 141.617 60.4112 141.617 63.7964ZM133.124 63.7964C133.124 61.9751 132.881 60.4409 132.396 59.1937C131.921 57.9366 131.214 56.9864 130.273 56.343C129.343 55.6897 128.195 55.3631 126.829 55.3631C125.463 55.3631 124.31 55.6897 123.369 56.343C122.439 56.9864 121.731 57.9366 121.246 59.1937C120.771 60.4409 120.533 61.9751 120.533 63.7964C120.533 65.6176 120.771 67.1568 121.246 68.4139C121.731 69.661 122.439 70.6113 123.369 71.2646C124.31 71.9079 125.463 72.2296 126.829 72.2296C128.195 72.2296 129.343 71.9079 130.273 71.2646C131.214 70.6113 131.921 69.661 132.396 68.4139C132.881 67.1568 133.124 65.6176 133.124 63.7964ZM143.176 55.2443V48.5927H169.604V55.2443H160.458V79H152.321V55.2443H143.176ZM176.771 79H167.863L177.9 48.5927H189.184L199.22 79H190.312L183.66 56.9666H183.423L176.771 79ZM175.108 67.0034H191.856V73.1799H175.108V67.0034ZM202.149 79V48.5927H210.404V72.3484H222.698V79H202.149Z" fill="white"/>
</svg>
