<svg width="489" height="420" viewBox="0 0 489 420" fill="none" xmlns="http://www.w3.org/2000/svg">
<path d="M1.50622 34.1572V25.2784H36.7836V34.1572H24.5752V65.8672H13.7146V34.1572H1.50622ZM78.3434 45.5728C78.3434 50.0915 77.4648 53.9033 75.7075 57.0082C73.9503 60.0999 71.5786 62.4452 68.5926 64.0439C65.6066 65.6294 62.2771 66.4221 58.604 66.4221C54.9045 66.4221 51.5617 65.6228 48.5757 64.024C45.6029 62.4121 43.2379 60.0603 41.4806 56.9686C39.7366 53.8636 38.8645 50.0651 38.8645 45.5728C38.8645 41.0541 39.7366 37.2489 41.4806 34.1572C43.2379 31.0523 45.6029 28.7071 48.5757 27.1216C51.5617 25.5229 54.9045 24.7235 58.604 24.7235C62.2771 24.7235 65.6066 25.5229 68.5926 27.1216C71.5786 28.7071 73.9503 31.0523 75.7075 34.1572C77.4648 37.2489 78.3434 41.0541 78.3434 45.5728ZM67.0071 45.5728C67.0071 43.1417 66.6834 41.0938 66.036 39.429C65.4018 37.751 64.4571 36.4826 63.2019 35.6238C61.96 34.7518 60.4273 34.3158 58.604 34.3158C56.7807 34.3158 55.2414 34.7518 53.9862 35.6238C52.7442 36.4826 51.7996 37.751 51.1521 39.429C50.5179 41.0938 50.2008 43.1417 50.2008 45.5728C50.2008 48.0039 50.5179 50.0584 51.1521 51.7364C51.7996 53.4012 52.7442 54.6696 53.9862 55.5416C55.2414 56.4004 56.7807 56.8298 58.604 56.8298C60.4273 56.8298 61.96 56.4004 63.2019 55.5416C64.4571 54.6696 65.4018 53.4012 66.036 51.7364C66.6834 50.0584 67.0071 48.0039 67.0071 45.5728ZM80.4244 34.1572V25.2784H115.702V34.1572H103.493V65.8672H92.6327V34.1572H80.4244ZM125.269 65.8672H113.378L126.775 25.2784H141.838L155.235 65.8672H143.344L134.465 36.4562H134.148L125.269 65.8672ZM123.05 49.8537H145.405V58.0982H123.05V49.8537ZM159.144 65.8672V25.2784H170.164V56.9884H186.574V65.8672H159.144ZM2.61607 120.867V80.2784H20.1358C23.1483 80.2784 25.7842 80.8267 28.0435 81.9234C30.3028 83.02 32.0601 84.5989 33.3153 86.6601C34.5705 88.7212 35.1981 91.1919 35.1981 94.0723C35.1981 96.979 34.5507 99.4299 33.2558 101.425C31.9742 103.42 30.1707 104.926 27.8453 105.944C25.5331 106.961 22.8312 107.47 19.7395 107.47H9.27517V98.908H17.5198C18.8146 98.908 19.9178 98.7495 20.8295 98.4324C21.7544 98.1021 22.4612 97.5802 22.9501 96.8667C23.4522 96.1532 23.7032 95.2218 23.7032 94.0723C23.7032 92.9096 23.4522 91.9649 22.9501 91.2382C22.4612 90.4983 21.7544 89.9566 20.8295 89.6131C19.9178 89.2563 18.8146 89.0779 17.5198 89.0779H13.6353V120.867H2.61607ZM26.3985 102.238L36.5457 120.867H24.5752L14.6659 102.238H26.3985ZM39.8951 120.867V80.2784H69.1475V89.1572H50.9143V96.1334H67.6413V105.012H50.9143V111.988H69.0683V120.867H39.8951ZM112.506 95.4992H101.328C101.249 94.5743 101.038 93.7353 100.694 92.9822C100.364 92.2291 99.9013 91.5817 99.3067 91.04C98.7253 90.4851 98.0185 90.0623 97.1861 89.7716C96.3537 89.4677 95.409 89.3158 94.352 89.3158C92.5023 89.3158 90.9366 89.765 89.655 90.6634C88.3866 91.5619 87.4221 92.8501 86.7614 94.5281C86.114 96.2061 85.7903 98.221 85.7903 100.573C85.7903 103.057 86.1206 105.138 86.7813 106.816C87.4551 108.48 88.4262 109.736 89.6946 110.581C90.963 111.414 92.4891 111.83 94.2727 111.83C95.2901 111.83 96.2018 111.704 97.0077 111.453C97.8137 111.189 98.5139 110.812 99.1085 110.324C99.7031 109.835 100.185 109.247 100.555 108.56C100.938 107.859 101.196 107.073 101.328 106.201L112.506 106.281C112.374 107.998 111.892 109.749 111.059 111.533C110.227 113.303 109.044 114.941 107.512 116.448C105.992 117.941 104.109 119.143 101.863 120.055C99.6172 120.966 97.0077 121.422 94.0349 121.422C90.309 121.422 86.9662 120.623 84.0066 119.024C81.0603 117.425 78.7283 115.074 77.0106 111.969C75.3062 108.864 74.454 105.065 74.454 100.573C74.454 96.0541 75.326 92.2489 77.0701 89.1572C78.8141 86.0523 81.166 83.7071 84.1256 82.1216C87.0851 80.5229 90.3883 79.7235 94.0349 79.7235C96.5981 79.7235 98.9566 80.0736 101.11 80.7739C103.264 81.4742 105.153 82.4981 106.778 83.8458C108.403 85.1803 109.712 86.8252 110.702 88.7807C111.693 90.7361 112.295 92.9756 112.506 95.4992ZM115.84 80.2784H128.128L136.056 96.7676H136.373L144.3 80.2784H156.588L141.684 108.104V120.867H130.744V108.104L115.84 80.2784ZM195.239 95.4992H184.061C183.982 94.5743 183.771 93.7353 183.427 92.9822C183.097 92.2291 182.635 91.5817 182.04 91.04C181.459 90.4851 180.752 90.0623 179.919 89.7716C179.087 89.4677 178.142 89.3158 177.085 89.3158C175.236 89.3158 173.67 89.765 172.388 90.6634C171.12 91.5619 170.155 92.8501 169.495 94.5281C168.847 96.2061 168.524 98.221 168.524 100.573C168.524 103.057 168.854 105.138 169.515 106.816C170.188 108.48 171.159 109.736 172.428 110.581C173.696 111.414 175.222 111.83 177.006 111.83C178.023 111.83 178.935 111.704 179.741 111.453C180.547 111.189 181.247 110.812 181.842 110.324C182.436 109.835 182.919 109.247 183.289 108.56C183.672 107.859 183.929 107.073 184.061 106.201L195.239 106.281C195.107 107.998 194.625 109.749 193.792 111.533C192.96 113.303 191.778 114.941 190.245 116.448C188.725 117.941 186.843 119.143 184.597 120.055C182.35 120.966 179.741 121.422 176.768 121.422C173.042 121.422 169.7 120.623 166.74 119.024C163.794 117.425 161.462 115.074 159.744 111.969C158.039 108.864 157.187 105.065 157.187 100.573C157.187 96.0541 158.059 92.2489 159.803 89.1572C161.547 86.0523 163.899 83.7071 166.859 82.1216C169.818 80.5229 173.122 79.7235 176.768 79.7235C179.331 79.7235 181.69 80.0736 183.843 80.7739C185.997 81.4742 187.887 82.4981 189.512 83.8458C191.137 85.1803 192.445 86.8252 193.436 88.7807C194.427 90.7361 195.028 92.9756 195.239 95.4992ZM200.239 120.867V80.2784H211.258V111.988H227.668V120.867H200.239ZM242.665 120.867H230.774L244.172 80.2784H259.234L272.631 120.867H260.74L251.861 91.4562H251.544L242.665 120.867ZM240.446 104.854H262.801V113.098H240.446V104.854ZM276.541 120.867V80.2784H294.14C297.231 80.2784 299.828 80.6946 301.928 81.527C304.042 82.3594 305.635 83.5353 306.705 85.0547C307.788 86.5742 308.33 88.3645 308.33 90.4256C308.33 91.9186 308 93.2795 307.339 94.5083C306.692 95.737 305.78 96.7676 304.604 97.6C303.428 98.4192 302.054 98.9873 300.482 99.3044V99.7008C302.226 99.7668 303.811 100.209 305.238 101.029C306.665 101.835 307.801 102.951 308.647 104.378C309.493 105.792 309.915 107.457 309.915 109.372C309.915 111.592 309.334 113.567 308.171 115.298C307.022 117.029 305.383 118.39 303.256 119.381C301.129 120.372 298.592 120.867 295.646 120.867H276.541ZM287.56 112.068H292.713C294.562 112.068 295.95 111.724 296.875 111.037C297.8 110.337 298.262 109.306 298.262 107.945C298.262 106.994 298.044 106.188 297.608 105.527C297.172 104.867 296.551 104.365 295.745 104.021C294.952 103.678 293.994 103.506 292.871 103.506H287.56V112.068ZM287.56 96.6883H292.079C293.043 96.6883 293.895 96.5364 294.635 96.2325C295.375 95.9286 295.95 95.4926 296.359 94.9245C296.782 94.3431 296.994 93.6363 296.994 92.8039C296.994 91.5487 296.544 90.5908 295.646 89.9302C294.747 89.2563 293.611 88.9194 292.237 88.9194H287.56V96.6883ZM313.82 120.867V80.2784H324.839V111.988H341.249V120.867H313.82ZM345.703 120.867V80.2784H374.955V89.1572H356.722V96.1334H373.449V105.012H356.722V111.988H374.876V120.867H345.703ZM402.3 92.9624C402.195 91.6412 401.699 90.6106 400.814 89.8707C399.942 89.1308 398.614 88.7608 396.83 88.7608C395.694 88.7608 394.763 88.8996 394.036 89.177C393.322 89.4413 392.794 89.8046 392.45 90.2671C392.107 90.7295 391.929 91.258 391.915 91.8526C391.889 92.3414 391.975 92.784 392.173 93.1804C392.384 93.5636 392.715 93.9137 393.164 94.2308C393.613 94.5347 394.188 94.8122 394.888 95.0632C395.588 95.3142 396.421 95.5389 397.385 95.737L400.715 96.4505C402.961 96.9262 404.883 97.5538 406.482 98.3333C408.081 99.1128 409.389 100.031 410.406 101.088C411.424 102.132 412.17 103.308 412.646 104.616C413.135 105.924 413.386 107.351 413.399 108.897C413.386 111.566 412.718 113.825 411.397 115.675C410.076 117.524 408.187 118.932 405.729 119.896C403.285 120.861 400.345 121.343 396.91 121.343C393.382 121.343 390.303 120.821 387.674 119.777C385.058 118.733 383.023 117.128 381.57 114.961C380.13 112.781 379.403 109.993 379.39 106.598H389.854C389.92 107.84 390.231 108.883 390.786 109.729C391.341 110.575 392.12 111.215 393.124 111.651C394.142 112.087 395.351 112.305 396.751 112.305C397.927 112.305 398.911 112.16 399.704 111.869C400.497 111.579 401.098 111.176 401.508 110.661C401.917 110.145 402.129 109.557 402.142 108.897C402.129 108.276 401.924 107.734 401.527 107.272C401.144 106.796 400.51 106.373 399.625 106.003C398.74 105.62 397.544 105.263 396.038 104.933L391.995 104.061C388.401 103.281 385.567 101.98 383.492 100.157C381.431 98.3201 380.407 95.8163 380.42 92.6453C380.407 90.0689 381.094 87.8162 382.482 85.8871C383.882 83.9449 385.818 82.4321 388.289 81.3486C390.772 80.2652 393.62 79.7235 396.83 79.7235C400.107 79.7235 402.941 80.2718 405.333 81.3685C407.724 82.4651 409.567 84.011 410.862 86.006C412.17 87.9879 412.831 90.3067 412.844 92.9624H402.3Z" fill="#9493F8"/>
<rect y="134.867" width="433" height="63" rx="31.5" fill="#9493F8"/>
<path d="M28.6161 186.867V146.278H46.2153C49.307 146.278 51.9033 146.694 54.0041 147.527C56.1181 148.359 57.7102 149.535 58.7805 151.054C59.8639 152.574 60.4056 154.364 60.4056 156.425C60.4056 157.918 60.0753 159.279 59.4147 160.508C58.7672 161.737 57.8556 162.767 56.6796 163.6C55.5037 164.419 54.1296 164.987 52.5573 165.304V165.701C54.3014 165.767 55.8869 166.209 57.3139 167.028C58.7408 167.834 59.8771 168.951 60.7227 170.378C61.5683 171.792 61.9911 173.456 61.9911 175.372C61.9911 177.592 61.4098 179.567 60.247 181.298C59.0976 183.029 57.4592 184.39 55.332 185.381C53.2047 186.372 50.6679 186.867 47.7215 186.867H28.6161ZM39.6354 178.068H44.7883C46.6381 178.068 48.0254 177.724 48.9503 177.037C49.8752 176.337 50.3376 175.306 50.3376 173.945C50.3376 172.994 50.1196 172.188 49.6836 171.527C49.2476 170.867 48.6266 170.365 47.8206 170.021C47.0278 169.678 46.0699 169.506 44.9469 169.506H39.6354V178.068ZM39.6354 162.688H44.1541C45.1186 162.688 45.9708 162.536 46.7107 162.232C47.4506 161.928 48.0254 161.492 48.435 160.924C48.8578 160.343 49.0692 159.636 49.0692 158.804C49.0692 157.548 48.62 156.591 47.7215 155.93C46.8231 155.256 45.6868 154.919 44.3127 154.919H39.6354V162.688ZM63.6725 146.278H75.9603L83.8878 162.767H84.2049L92.1325 146.278H104.42L89.5164 174.104V186.867H78.5763V174.104L63.6725 146.278ZM118.015 186.867V146.278H129.034V177.988H145.444V186.867H118.015ZM187.08 166.573C187.08 171.091 186.202 174.903 184.444 178.008C182.687 181.1 180.315 183.445 177.329 185.044C174.343 186.629 171.014 187.422 167.341 187.422C163.641 187.422 160.298 186.623 157.312 185.024C154.339 183.412 151.974 181.06 150.217 177.969C148.473 174.864 147.601 171.065 147.601 166.573C147.601 162.054 148.473 158.249 150.217 155.157C151.974 152.052 154.339 149.707 157.312 148.121C160.298 146.523 163.641 145.723 167.341 145.723C171.014 145.723 174.343 146.523 177.329 148.121C180.315 149.707 182.687 152.052 184.444 155.157C186.202 158.249 187.08 162.054 187.08 166.573ZM175.744 166.573C175.744 164.142 175.42 162.094 174.773 160.429C174.138 158.751 173.194 157.482 171.939 156.624C170.697 155.752 169.164 155.316 167.341 155.316C165.517 155.316 163.978 155.752 162.723 156.624C161.481 157.482 160.536 158.751 159.889 160.429C159.254 162.094 158.937 164.142 158.937 166.573C158.937 169.004 159.254 171.058 159.889 172.736C160.536 174.401 161.481 175.67 162.723 176.542C163.978 177.4 165.517 177.83 167.341 177.83C169.164 177.83 170.697 177.4 171.939 176.542C173.194 175.67 174.138 174.401 174.773 172.736C175.42 171.058 175.744 169.004 175.744 166.573ZM229.514 161.499H218.336C218.257 160.574 218.046 159.735 217.702 158.982C217.372 158.229 216.909 157.581 216.315 157.04C215.734 156.485 215.027 156.062 214.194 155.771C213.362 155.467 212.417 155.316 211.36 155.316C209.51 155.316 207.945 155.765 206.663 156.663C205.395 157.562 204.43 158.85 203.77 160.528C203.122 162.206 202.798 164.221 202.798 166.573C202.798 169.057 203.129 171.138 203.789 172.816C204.463 174.48 205.434 175.736 206.703 176.581C207.971 177.414 209.497 177.83 211.281 177.83C212.298 177.83 213.21 177.704 214.016 177.453C214.822 177.189 215.522 176.812 216.117 176.324C216.711 175.835 217.194 175.247 217.563 174.56C217.947 173.859 218.204 173.073 218.336 172.201L229.514 172.28C229.382 173.998 228.9 175.749 228.067 177.532C227.235 179.303 226.053 180.941 224.52 182.448C223 183.941 221.118 185.143 218.872 186.055C216.625 186.966 214.016 187.422 211.043 187.422C207.317 187.422 203.974 186.623 201.015 185.024C198.068 183.425 195.736 181.073 194.019 177.969C192.314 174.864 191.462 171.065 191.462 166.573C191.462 162.054 192.334 158.249 194.078 155.157C195.822 152.052 198.174 149.707 201.134 148.121C204.093 146.523 207.396 145.723 211.043 145.723C213.606 145.723 215.965 146.073 218.118 146.774C220.272 147.474 222.161 148.498 223.787 149.845C225.412 151.18 226.72 152.825 227.711 154.78C228.702 156.736 229.303 158.975 229.514 161.499ZM243.246 186.867H231.354L244.752 146.278H259.814L273.212 186.867H261.32L252.442 157.456H252.124L243.246 186.867ZM241.026 170.854H263.382V179.098H241.026V170.854ZM270.33 155.157V146.278H305.608V155.157H293.399V186.867H282.538V155.157H270.33ZM320.216 146.278V186.867H309.197V146.278H320.216ZM364.201 166.573C364.201 171.091 363.322 174.903 361.565 178.008C359.808 181.1 357.436 183.445 354.45 185.044C351.464 186.629 348.134 187.422 344.461 187.422C340.762 187.422 337.419 186.623 334.433 185.024C331.46 183.412 329.095 181.06 327.338 177.969C325.593 174.864 324.721 171.065 324.721 166.573C324.721 162.054 325.593 158.249 327.338 155.157C329.095 152.052 331.46 149.707 334.433 148.121C337.419 146.523 340.762 145.723 344.461 145.723C348.134 145.723 351.464 146.523 354.45 148.121C357.436 149.707 359.808 152.052 361.565 155.157C363.322 158.249 364.201 162.054 364.201 166.573ZM352.864 166.573C352.864 164.142 352.541 162.094 351.893 160.429C351.259 158.751 350.314 157.482 349.059 156.624C347.817 155.752 346.284 155.316 344.461 155.316C342.638 155.316 341.098 155.752 339.843 156.624C338.601 157.482 337.657 158.751 337.009 160.429C336.375 162.094 336.058 164.142 336.058 166.573C336.058 169.004 336.375 171.058 337.009 172.736C337.657 174.401 338.601 175.67 339.843 176.542C341.098 177.4 342.638 177.83 344.461 177.83C346.284 177.83 347.817 177.4 349.059 176.542C350.314 175.67 351.259 174.401 351.893 172.736C352.541 171.058 352.864 169.004 352.864 166.573ZM403.86 146.278V186.867H394.664L379.998 165.542H379.76V186.867H368.741V146.278H378.096L392.524 167.524H392.841V146.278H403.86Z" fill="white"/>
<g clip-path="url(#clip0_86_146)">
<rect x="3.09082" y="221.826" width="197.308" height="197.306" rx="12.825" fill="#9493F8"/>
<path d="M155.551 305.642C154.408 306.155 153.829 307.434 154.146 308.646C155.425 313.525 156.116 318.64 156.116 323.917C156.116 325.029 156.075 326.132 156.02 327.235C155.489 327.203 154.798 327.139 153.86 326.983C152.372 326.744 150.915 326.5 149.48 326.26L149.178 326.21C135.662 323.935 123.991 321.976 108.59 327.395C106.494 328.137 104.732 327.848 103.231 326.512C100.1 323.715 98.6999 316.9 100.045 311.001C100.676 308.253 102.476 305.876 104.213 303.581L104.22 303.573L104.232 303.557C106.805 300.155 109.718 296.306 108.151 291.352C105.144 281.842 103.135 279.91 97.3634 281.036L97.3557 281.038C95.4484 281.413 93.0653 281.882 89.3082 280.766C87.5186 280.235 86.3973 279.306 85.7657 277.833C84.1043 273.961 86.3012 267.42 87.7704 264.111C90.3883 263.763 93.0566 263.567 95.7707 263.567C101.157 263.567 106.387 264.274 111.358 265.608C112.643 265.952 113.985 265.154 114.385 263.885C114.788 262.605 114.115 261.229 112.82 260.879C107.384 259.409 101.668 258.624 95.7707 258.624C59.7739 258.624 30.4775 287.906 30.4775 323.917C30.4775 359.918 59.7693 389.21 95.7707 389.21C131.777 389.21 161.064 359.923 161.064 323.917C161.064 318.134 160.311 312.528 158.892 307.189C158.508 305.745 156.913 305.03 155.551 305.642ZM39.3108 345.222C36.7981 338.595 35.4114 331.414 35.4114 323.917C35.4114 311.646 39.1003 300.227 45.4163 290.689C49.5446 292.964 54.8583 296.849 55.6593 300.245C55.9247 301.362 55.6639 302.374 54.84 303.417C47.8283 312.333 45.3431 323.514 48.6567 331.24C49.9474 334.247 46.7665 342.558 42.5878 345.245C41.0729 346.233 40.1392 345.991 39.3108 345.222ZM95.7615 384.267C72.1267 384.267 51.6271 370.596 41.732 350.755C42.9036 350.6 44.1028 350.16 45.2699 349.4C50.8124 345.831 55.7508 335.231 53.197 329.285C50.6202 323.276 52.8903 313.889 58.7212 306.465C60.4787 304.241 61.0828 301.692 60.465 299.101C59.1285 293.476 52.277 288.895 48.3318 286.661C56.6753 276.066 68.4744 268.331 82.0219 265.159C80.5939 269.201 79.2254 275.146 81.2072 279.778C82.4109 282.579 84.7222 284.56 87.8894 285.503C92.8003 286.959 96.1139 286.318 98.3017 285.888C100.586 285.439 101.057 285.357 103.423 292.84C104.187 295.243 102.796 297.252 100.27 300.584C98.3017 303.174 96.0773 306.113 95.2169 309.898C93.4502 317.637 95.432 326.178 99.931 330.196C101.812 331.871 104.05 332.732 106.448 332.732C107.675 332.732 108.943 332.507 110.22 332.063C124.422 327.066 135.507 328.924 148.349 331.089C149.896 331.349 151.466 331.606 153.068 331.867C154.002 332.018 154.803 332.109 155.53 332.155C151.507 361.543 126.243 384.267 95.7615 384.267Z" fill="white"/>
<path d="M155.551 305.642C154.408 306.155 153.829 307.434 154.146 308.646C155.425 313.525 156.116 318.64 156.116 323.917C156.116 325.029 156.075 326.132 156.02 327.235C155.489 327.203 154.798 327.139 153.86 326.983C152.372 326.744 150.915 326.5 149.48 326.26L149.178 326.21C135.662 323.935 123.991 321.976 108.59 327.395C106.494 328.137 104.732 327.848 103.231 326.512C100.1 323.715 98.6999 316.9 100.045 311.001C100.676 308.253 102.476 305.876 104.213 303.581L104.22 303.573L104.232 303.557C106.805 300.155 109.718 296.306 108.151 291.352C105.144 281.842 103.135 279.91 97.3634 281.036L97.3557 281.038C95.4484 281.413 93.0653 281.882 89.3082 280.766C87.5186 280.235 86.3973 279.306 85.7657 277.833C84.1043 273.961 86.3012 267.42 87.7704 264.111C90.3883 263.763 93.0566 263.567 95.7707 263.567C101.157 263.567 106.387 264.274 111.358 265.608C112.643 265.952 113.985 265.154 114.385 263.885C114.788 262.605 114.115 261.229 112.82 260.879C107.384 259.409 101.668 258.624 95.7707 258.624C59.7739 258.624 30.4775 287.906 30.4775 323.917C30.4775 359.918 59.7693 389.21 95.7707 389.21C131.777 389.21 161.064 359.923 161.064 323.917C161.064 318.134 160.311 312.528 158.892 307.189C158.508 305.745 156.913 305.03 155.551 305.642ZM39.3108 345.222C36.7981 338.595 35.4114 331.414 35.4114 323.917C35.4114 311.646 39.1003 300.227 45.4163 290.689C49.5446 292.964 54.8583 296.849 55.6593 300.245C55.9247 301.362 55.6639 302.374 54.84 303.417C47.8283 312.333 45.3431 323.514 48.6567 331.24C49.9474 334.247 46.7665 342.558 42.5878 345.245C41.0729 346.233 40.1392 345.991 39.3108 345.222ZM95.7615 384.267C72.1267 384.267 51.6271 370.596 41.732 350.755C42.9036 350.6 44.1028 350.16 45.2699 349.4C50.8124 345.831 55.7508 335.231 53.197 329.285C50.6202 323.276 52.8903 313.889 58.7212 306.465C60.4787 304.241 61.0828 301.692 60.465 299.101C59.1285 293.476 52.277 288.895 48.3318 286.661C56.6753 276.066 68.4744 268.331 82.0219 265.159C80.5939 269.201 79.2254 275.146 81.2072 279.778C82.4109 282.579 84.7222 284.56 87.8894 285.503C92.8003 286.959 96.1139 286.318 98.3017 285.888C100.586 285.439 101.057 285.357 103.423 292.84C104.187 295.243 102.796 297.252 100.27 300.584C98.3017 303.174 96.0773 306.113 95.2169 309.898C93.4502 317.637 95.432 326.178 99.931 330.196C101.812 331.871 104.05 332.732 106.448 332.732C107.675 332.732 108.943 332.507 110.22 332.063C124.422 327.066 135.507 328.924 148.349 331.089C149.896 331.349 151.466 331.606 153.068 331.867C154.002 332.018 154.803 332.109 155.53 332.155C151.507 361.543 126.243 384.267 95.7615 384.267Z" stroke="#9493F8"/>
<path d="M159.05 250.815C154.803 248.371 149.988 247.076 145.113 247.076C135.15 247.076 125.872 252.431 120.906 261.049C118.691 264.875 117.314 271.411 117.767 275.933L121.058 308.589C121.067 308.685 121.08 308.786 121.103 308.882C121.433 310.342 122.312 311.545 123.584 312.282C124.367 312.726 125.25 312.96 126.152 312.96C126.682 312.96 127.218 312.873 127.744 312.717C127.84 312.685 127.936 312.648 128.033 312.607L157.961 299.138C162.084 297.27 167.059 292.817 169.284 288.982C176.973 275.645 172.387 258.527 159.05 250.815ZM164.995 286.51C163.503 289.087 159.407 293.06 155.924 294.625L126.193 308.012C126.179 308.017 126.165 308.017 126.152 308.017L125.95 307.815L122.687 275.434C122.302 271.622 123.698 266.098 125.181 263.516C129.277 256.422 136.912 252.015 145.113 252.015C149.118 252.015 153.086 253.076 156.578 255.095C167.554 261.438 171.334 275.53 164.995 286.51Z" fill="white"/>
<path d="M159.05 250.815C154.803 248.371 149.988 247.076 145.113 247.076C135.15 247.076 125.872 252.431 120.906 261.049C118.691 264.875 117.314 271.411 117.767 275.933L121.058 308.589C121.067 308.685 121.08 308.786 121.103 308.882C121.433 310.342 122.312 311.545 123.584 312.282C124.367 312.726 125.25 312.96 126.152 312.96C126.682 312.96 127.218 312.873 127.744 312.717C127.84 312.685 127.936 312.648 128.033 312.607L157.961 299.138C162.084 297.27 167.059 292.817 169.284 288.982C176.973 275.645 172.387 258.527 159.05 250.815ZM164.995 286.51C163.503 289.087 159.407 293.06 155.924 294.625L126.193 308.012C126.179 308.017 126.165 308.017 126.152 308.017L125.95 307.815L122.687 275.434C122.302 271.622 123.698 266.098 125.181 263.516C129.277 256.422 136.912 252.015 145.113 252.015C149.118 252.015 153.086 253.076 156.578 255.095C167.554 261.438 171.334 275.53 164.995 286.51Z" stroke="#9493F8"/>
<path d="M153.81 259.899C151.228 258.407 148.285 257.615 145.315 257.615C139.242 257.615 133.589 260.883 130.559 266.133C128.285 270.073 127.681 274.659 128.852 279.053C130.033 283.447 132.848 287.113 136.779 289.388C139.37 290.88 142.313 291.671 145.283 291.671C151.352 291.671 157.009 288.408 160.039 283.159C162.309 279.222 162.918 274.636 161.737 270.243C160.57 265.844 157.75 262.178 153.81 259.899ZM155.759 280.682C153.608 284.408 149.599 286.724 145.288 286.724C143.182 286.724 141.095 286.161 139.26 285.104C136.463 283.488 134.468 280.888 133.635 277.772C132.802 274.655 133.228 271.396 134.848 268.604C136.999 264.879 141.013 262.558 145.32 262.558C147.425 262.558 149.507 263.117 151.338 264.178C154.135 265.799 156.139 268.398 156.968 271.52C157.805 274.632 157.375 277.886 155.759 280.682Z" fill="white"/>
<path d="M153.81 259.899C151.228 258.407 148.285 257.615 145.315 257.615C139.242 257.615 133.589 260.883 130.559 266.133C128.285 270.073 127.681 274.659 128.852 279.053C130.033 283.447 132.848 287.113 136.779 289.388C139.37 290.88 142.313 291.671 145.283 291.671C151.352 291.671 157.009 288.408 160.039 283.159C162.309 279.222 162.918 274.636 161.737 270.243C160.57 265.844 157.75 262.178 153.81 259.899ZM155.759 280.682C153.608 284.408 149.599 286.724 145.288 286.724C143.182 286.724 141.095 286.161 139.26 285.104C136.463 283.488 134.468 280.888 133.635 277.772C132.802 274.655 133.228 271.396 134.848 268.604C136.999 264.879 141.013 262.558 145.32 262.558C147.425 262.558 149.507 263.117 151.338 264.178C154.135 265.799 156.139 268.398 156.968 271.52C157.805 274.632 157.375 277.886 155.759 280.682Z" stroke="#9493F8"/>
</g>
<defs>
<clipPath id="clip0_86_146">
<rect width="220.59" height="197.505" fill="white" transform="translate(0 221.867)"/>
</clipPath>
</defs>
</svg>
