<svg width="472" height="222" viewBox="0 0 472 222" fill="none" xmlns="http://www.w3.org/2000/svg">
<path d="M30.0304 33.4097V24.5309H65.3077V33.4097H53.0994V65.1196H42.2387V33.4097H30.0304ZM106.868 44.8253C106.868 49.3439 105.989 53.1557 104.232 56.2607C102.474 59.3524 100.103 61.6976 97.1168 63.2963C94.1308 64.8818 90.8012 65.6746 87.1282 65.6746C83.4287 65.6746 80.0859 64.8752 77.0999 63.2765C74.1271 61.6646 71.762 59.3127 70.0048 56.221C68.2607 53.1161 67.3887 49.3175 67.3887 44.8253C67.3887 40.3066 68.2607 36.5014 70.0048 33.4097C71.762 30.3047 74.1271 27.9595 77.0999 26.374C80.0859 24.7753 83.4287 23.9759 87.1282 23.9759C90.8012 23.9759 94.1308 24.7753 97.1168 26.374C100.103 27.9595 102.474 30.3047 104.232 33.4097C105.989 36.5014 106.868 40.3066 106.868 44.8253ZM95.5313 44.8253C95.5313 42.3942 95.2076 40.3462 94.5602 38.6814C93.926 37.0035 92.9813 35.7351 91.7261 34.8762C90.4841 34.0042 88.9515 33.5682 87.1282 33.5682C85.3048 33.5682 83.7656 34.0042 82.5104 34.8762C81.2684 35.7351 80.3237 37.0035 79.6763 38.6814C79.0421 40.3462 78.725 42.3942 78.725 44.8253C78.725 47.2563 79.0421 49.3109 79.6763 50.9889C80.3237 52.6536 81.2684 53.922 82.5104 54.7941C83.7656 55.6529 85.3048 56.0823 87.1282 56.0823C88.9515 56.0823 90.4841 55.6529 91.7261 54.7941C92.9813 53.922 93.926 52.6536 94.5602 50.9889C95.2076 49.3109 95.5313 47.2563 95.5313 44.8253ZM108.949 33.4097V24.5309H144.226V33.4097H132.018V65.1196H121.157V33.4097H108.949ZM153.793 65.1196H141.902L155.3 24.5309H170.362L183.759 65.1196H171.868L162.989 35.7086H162.672L153.793 65.1196ZM151.574 49.1061H173.929V57.3507H151.574V49.1061ZM187.669 65.1196V24.5309H198.688V56.2408H215.098V65.1196H187.669ZM31.1402 120.12V79.5309H48.66C51.6724 79.5309 54.3083 80.0792 56.5677 81.1758C58.827 82.2725 60.5843 83.8514 61.8395 85.9125C63.0946 87.9737 63.7222 90.4444 63.7222 93.3247C63.7222 96.2315 63.0748 98.6824 61.78 100.677C60.4984 102.673 58.6949 104.179 56.3695 105.196C54.0573 106.213 51.3553 106.722 48.2636 106.722H37.7993V98.1605H46.0439C47.3387 98.1605 48.442 98.0019 49.3537 97.6848C50.2785 97.3545 50.9854 96.8326 51.4743 96.1191C51.9763 95.4057 52.2274 94.4742 52.2274 93.3247C52.2274 92.162 51.9763 91.2173 51.4743 90.4906C50.9854 89.7507 50.2785 89.209 49.3537 88.8655C48.442 88.5088 47.3387 88.3304 46.0439 88.3304H42.1595V120.12H31.1402ZM54.9227 101.49L65.0699 120.12H53.0994L43.19 101.49H54.9227ZM68.4193 120.12V79.5309H97.6717V88.4097H79.4385V95.3859H96.1655V104.265H79.4385V111.241H97.5924V120.12H68.4193ZM141.03 94.7517H129.852C129.773 93.8268 129.562 92.9878 129.218 92.2347C128.888 91.4816 128.425 90.8342 127.831 90.2924C127.25 89.7375 126.543 89.3147 125.71 89.024C124.878 88.7202 123.933 88.5682 122.876 88.5682C121.026 88.5682 119.461 89.0174 118.179 89.9159C116.911 90.8143 115.946 92.1026 115.286 93.7805C114.638 95.4585 114.314 97.4734 114.314 99.8253C114.314 102.309 114.645 104.39 115.305 106.068C115.979 107.733 116.95 108.988 118.219 109.834C119.487 110.666 121.013 111.082 122.797 111.082C123.814 111.082 124.726 110.957 125.532 110.706C126.338 110.441 127.038 110.065 127.633 109.576C128.227 109.087 128.709 108.499 129.079 107.812C129.463 107.112 129.72 106.326 129.852 105.454L141.03 105.533C140.898 107.251 140.416 109.001 139.583 110.785C138.751 112.555 137.568 114.194 136.036 115.7C134.516 117.193 132.634 118.395 130.387 119.307C128.141 120.219 125.532 120.675 122.559 120.675C118.833 120.675 115.49 119.875 112.531 118.276C109.584 116.678 107.252 114.326 105.535 111.221C103.83 108.116 102.978 104.317 102.978 99.8253C102.978 95.3066 103.85 91.5014 105.594 88.4097C107.338 85.3047 109.69 82.9595 112.65 81.374C115.609 79.7753 118.912 78.9759 122.559 78.9759C125.122 78.9759 127.481 79.3261 129.634 80.0263C131.788 80.7266 133.677 81.7506 135.303 83.0982C136.928 84.4327 138.236 86.0777 139.227 88.0331C140.218 89.9886 140.819 92.2281 141.03 94.7517ZM144.365 79.5309H156.652L164.58 96.0201H164.897L172.824 79.5309H185.112L170.208 107.356V120.12H159.268V107.356L144.365 79.5309ZM223.763 94.7517H212.586C212.506 93.8268 212.295 92.9878 211.951 92.2347C211.621 91.4816 211.159 90.8342 210.564 90.2924C209.983 89.7375 209.276 89.3147 208.444 89.024C207.611 88.7202 206.666 88.5682 205.609 88.5682C203.76 88.5682 202.194 89.0174 200.912 89.9159C199.644 90.8143 198.68 92.1026 198.019 93.7805C197.371 95.4585 197.048 97.4734 197.048 99.8253C197.048 102.309 197.378 104.39 198.039 106.068C198.713 107.733 199.684 108.988 200.952 109.834C202.22 110.666 203.747 111.082 205.53 111.082C206.548 111.082 207.459 110.957 208.265 110.706C209.071 110.441 209.771 110.065 210.366 109.576C210.961 109.087 211.443 108.499 211.813 107.812C212.196 107.112 212.454 106.326 212.586 105.454L223.763 105.533C223.631 107.251 223.149 109.001 222.317 110.785C221.484 112.555 220.302 114.194 218.769 115.7C217.25 117.193 215.367 118.395 213.121 119.307C210.875 120.219 208.265 120.675 205.292 120.675C201.566 120.675 198.224 119.875 195.264 118.276C192.318 116.678 189.986 114.326 188.268 111.221C186.564 108.116 185.711 104.317 185.711 99.8253C185.711 95.3066 186.583 91.5014 188.328 88.4097C190.072 85.3047 192.423 82.9595 195.383 81.374C198.343 79.7753 201.646 78.9759 205.292 78.9759C207.856 78.9759 210.214 79.3261 212.368 80.0263C214.521 80.7266 216.411 81.7506 218.036 83.0982C219.661 84.4327 220.969 86.0777 221.96 88.0331C222.951 89.9886 223.552 92.2281 223.763 94.7517ZM228.763 120.12V79.5309H239.782V111.241H256.192V120.12H228.763ZM271.19 120.12H259.298L272.696 79.5309H287.758L301.156 120.12H289.264L280.386 90.7086H280.068L271.19 120.12ZM268.97 104.106H291.325V112.351H268.97V104.106ZM305.065 120.12V79.5309H322.664C325.756 79.5309 328.352 79.9471 330.453 80.7795C332.567 81.6118 334.159 82.7877 335.229 84.3072C336.312 85.8266 336.854 87.6169 336.854 89.6781C336.854 91.1711 336.524 92.532 335.863 93.7607C335.216 94.9895 334.304 96.0201 333.128 96.8524C331.952 97.6716 330.578 98.2398 329.006 98.5569V98.9532C330.75 99.0193 332.335 99.4619 333.762 100.281C335.189 101.087 336.326 102.203 337.171 103.63C338.017 105.044 338.44 106.709 338.44 108.625C338.44 110.844 337.858 112.82 336.695 114.551C335.546 116.281 333.908 117.642 331.78 118.633C329.653 119.624 327.116 120.12 324.17 120.12H305.065ZM316.084 111.32H321.237C323.087 111.32 324.474 110.977 325.399 110.29C326.324 109.589 326.786 108.559 326.786 107.198C326.786 106.247 326.568 105.441 326.132 104.78C325.696 104.119 325.075 103.617 324.269 103.274C323.476 102.93 322.518 102.758 321.395 102.758H316.084V111.32ZM316.084 95.9408H320.603C321.567 95.9408 322.419 95.7888 323.159 95.4849C323.899 95.1811 324.474 94.745 324.884 94.1769C325.306 93.5956 325.518 92.8887 325.518 92.0563C325.518 90.8011 325.069 89.8432 324.17 89.1826C323.272 88.5088 322.135 88.1718 320.761 88.1718H316.084V95.9408ZM342.344 120.12V79.5309H353.363V111.241H369.773V120.12H342.344ZM374.227 120.12V79.5309H403.48V88.4097H385.246V95.3859H401.973V104.265H385.246V111.241H403.4V120.12H374.227ZM430.825 92.2149C430.719 90.8936 430.223 89.863 429.338 89.1231C428.466 88.3832 427.138 88.0133 425.355 88.0133C424.218 88.0133 423.287 88.152 422.56 88.4295C421.847 88.6937 421.318 89.0571 420.975 89.5195C420.631 89.9819 420.453 90.5104 420.44 91.105C420.413 91.5939 420.499 92.0365 420.697 92.4329C420.909 92.816 421.239 93.1662 421.688 93.4833C422.137 93.7871 422.712 94.0646 423.412 94.3156C424.113 94.5667 424.945 94.7913 425.909 94.9895L429.239 95.703C431.485 96.1786 433.408 96.8062 435.006 97.5857C436.605 98.3653 437.913 99.2835 438.93 100.341C439.948 101.384 440.694 102.56 441.17 103.868C441.659 105.176 441.91 106.603 441.923 108.149C441.91 110.818 441.243 113.077 439.921 114.927C438.6 116.777 436.711 118.184 434.253 119.149C431.809 120.113 428.869 120.595 425.434 120.595C421.906 120.595 418.828 120.073 416.198 119.03C413.582 117.986 411.548 116.38 410.094 114.214C408.654 112.034 407.927 109.246 407.914 105.85H418.378C418.444 107.092 418.755 108.136 419.31 108.982C419.865 109.827 420.644 110.468 421.648 110.904C422.666 111.34 423.875 111.558 425.275 111.558C426.451 111.558 427.436 111.413 428.228 111.122C429.021 110.831 429.622 110.428 430.032 109.913C430.441 109.398 430.653 108.81 430.666 108.149C430.653 107.528 430.448 106.986 430.052 106.524C429.668 106.048 429.034 105.626 428.149 105.256C427.264 104.872 426.068 104.516 424.562 104.185L420.519 103.313C416.925 102.534 414.091 101.232 412.017 99.4091C409.955 97.5725 408.931 95.0688 408.945 91.8978C408.931 89.3213 409.618 87.0686 411.006 85.1396C412.406 83.1973 414.342 81.6845 416.813 80.6011C419.297 79.5177 422.144 78.9759 425.355 78.9759C428.631 78.9759 431.465 79.5243 433.857 80.6209C436.248 81.7175 438.091 83.2634 439.386 85.2585C440.694 87.2404 441.355 89.5591 441.368 92.2149H430.825Z" fill="#9493F8"/>
<rect x="28.5242" y="134.12" width="433" height="63" rx="31.5" fill="#9493F8"/>
<path d="M57.1403 186.12V145.531H74.7394C77.8312 145.531 80.4275 145.947 82.5283 146.779C84.6423 147.612 86.2344 148.787 87.3046 150.307C88.3881 151.826 88.9298 153.617 88.9298 155.678C88.9298 157.171 88.5995 158.532 87.9388 159.761C87.2914 160.989 86.3797 162.02 85.2038 162.852C84.0279 163.671 82.6538 164.24 81.0815 164.557V164.953C82.8256 165.019 84.4111 165.462 85.838 166.281C87.265 167.087 88.4013 168.203 89.2469 169.63C90.0925 171.044 90.5153 172.709 90.5153 174.625C90.5153 176.844 89.9339 178.82 88.7712 180.551C87.6217 182.281 85.9834 183.642 83.8561 184.633C81.7289 185.624 79.1921 186.12 76.2457 186.12H57.1403ZM68.1596 177.32H73.3125C75.1622 177.32 76.5496 176.977 77.4744 176.289C78.3993 175.589 78.8618 174.559 78.8618 173.198C78.8618 172.246 78.6438 171.44 78.2077 170.78C77.7717 170.119 77.1507 169.617 76.3448 169.274C75.552 168.93 74.5941 168.758 73.471 168.758H68.1596V177.32ZM68.1596 161.941H72.6783C73.6428 161.941 74.495 161.789 75.2349 161.485C75.9748 161.181 76.5496 160.745 76.9592 160.177C77.382 159.595 77.5934 158.888 77.5934 158.056C77.5934 156.801 77.1441 155.843 76.2457 155.182C75.3472 154.508 74.2109 154.172 72.8368 154.172H68.1596V161.941ZM92.1967 145.531H104.484L112.412 162.02H112.729L120.657 145.531H132.944L118.041 173.356V186.12H107.101V173.356L92.1967 145.531ZM146.539 186.12V145.531H157.558V177.241H173.968V186.12H146.539ZM215.604 165.825C215.604 170.344 214.726 174.156 212.968 177.261C211.211 180.352 208.84 182.698 205.854 184.296C202.867 185.882 199.538 186.675 195.865 186.675C192.165 186.675 188.822 185.875 185.836 184.276C182.864 182.665 180.499 180.313 178.741 177.221C176.997 174.116 176.125 170.317 176.125 165.825C176.125 161.306 176.997 157.501 178.741 154.409C180.499 151.304 182.864 148.959 185.836 147.374C188.822 145.775 192.165 144.976 195.865 144.976C199.538 144.976 202.867 145.775 205.854 147.374C208.84 148.959 211.211 151.304 212.968 154.409C214.726 157.501 215.604 161.306 215.604 165.825ZM204.268 165.825C204.268 163.394 203.944 161.346 203.297 159.681C202.663 158.003 201.718 156.735 200.463 155.876C199.221 155.004 197.688 154.568 195.865 154.568C194.041 154.568 192.502 155.004 191.247 155.876C190.005 156.735 189.06 158.003 188.413 159.681C187.779 161.346 187.462 163.394 187.462 165.825C187.462 168.256 187.779 170.311 188.413 171.989C189.06 173.654 190.005 174.922 191.247 175.794C192.502 176.653 194.041 177.082 195.865 177.082C197.688 177.082 199.221 176.653 200.463 175.794C201.718 174.922 202.663 173.654 203.297 171.989C203.944 170.311 204.268 168.256 204.268 165.825ZM258.038 160.751H246.861C246.781 159.827 246.57 158.988 246.226 158.234C245.896 157.481 245.434 156.834 244.839 156.292C244.258 155.737 243.551 155.314 242.718 155.024C241.886 154.72 240.941 154.568 239.884 154.568C238.035 154.568 236.469 155.017 235.187 155.916C233.919 156.814 232.954 158.102 232.294 159.78C231.646 161.458 231.323 163.473 231.323 165.825C231.323 168.309 231.653 170.39 232.314 172.068C232.987 173.733 233.958 174.988 235.227 175.834C236.495 176.666 238.021 177.082 239.805 177.082C240.822 177.082 241.734 176.957 242.54 176.706C243.346 176.441 244.046 176.065 244.641 175.576C245.235 175.087 245.718 174.499 246.088 173.812C246.471 173.112 246.728 172.326 246.861 171.454L258.038 171.533C257.906 173.251 257.424 175.001 256.592 176.785C255.759 178.555 254.577 180.194 253.044 181.7C251.525 183.193 249.642 184.395 247.396 185.307C245.15 186.219 242.54 186.675 239.567 186.675C235.841 186.675 232.498 185.875 229.539 184.276C226.592 182.678 224.26 180.326 222.543 177.221C220.838 174.116 219.986 170.317 219.986 165.825C219.986 161.306 220.858 157.501 222.602 154.409C224.346 151.304 226.698 148.959 229.658 147.374C232.617 145.775 235.921 144.976 239.567 144.976C242.13 144.976 244.489 145.326 246.643 146.026C248.796 146.726 250.686 147.75 252.311 149.098C253.936 150.432 255.244 152.077 256.235 154.033C257.226 155.988 257.827 158.228 258.038 160.751ZM271.77 186.12H259.878L273.276 145.531H288.338L301.736 186.12H289.845L280.966 156.708H280.649L271.77 186.12ZM269.55 170.106H291.906V178.351H269.55V170.106ZM298.854 154.409V145.531H334.132V154.409H321.923V186.12H311.062V154.409H298.854ZM348.74 145.531V186.12H337.721V145.531H348.74ZM392.725 165.825C392.725 170.344 391.846 174.156 390.089 177.261C388.332 180.352 385.96 182.698 382.974 184.296C379.988 185.882 376.658 186.675 372.985 186.675C369.286 186.675 365.943 185.875 362.957 184.276C359.984 182.665 357.619 180.313 355.862 177.221C354.118 174.116 353.246 170.317 353.246 165.825C353.246 161.306 354.118 157.501 355.862 154.409C357.619 151.304 359.984 148.959 362.957 147.374C365.943 145.775 369.286 144.976 372.985 144.976C376.658 144.976 379.988 145.775 382.974 147.374C385.96 148.959 388.332 151.304 390.089 154.409C391.846 157.501 392.725 161.306 392.725 165.825ZM381.388 165.825C381.388 163.394 381.065 161.346 380.417 159.681C379.783 158.003 378.838 156.735 377.583 155.876C376.341 155.004 374.809 154.568 372.985 154.568C371.162 154.568 369.623 155.004 368.367 155.876C367.125 156.735 366.181 158.003 365.533 159.681C364.899 161.346 364.582 163.394 364.582 165.825C364.582 168.256 364.899 170.311 365.533 171.989C366.181 173.654 367.125 174.922 368.367 175.794C369.623 176.653 371.162 177.082 372.985 177.082C374.809 177.082 376.341 176.653 377.583 175.794C378.838 174.922 379.783 173.654 380.417 171.989C381.065 170.311 381.388 168.256 381.388 165.825ZM432.384 145.531V186.12H423.188L408.522 164.795H408.284V186.12H397.265V145.531H406.62L421.048 166.776H421.365V145.531H432.384Z" fill="white"/>
</svg>
