<svg width="472" height="225" viewBox="0 0 472 225" fill="none" xmlns="http://www.w3.org/2000/svg">
<path d="M30.0304 33.3437V24.465H65.3077V33.3437H53.0994V65.0537H42.2387V33.3437H30.0304ZM106.868 44.7593C106.868 49.278 105.989 53.0898 104.232 56.1947C102.474 59.2865 100.103 61.6317 97.1168 63.2304C94.1308 64.8159 90.8012 65.6086 87.1282 65.6086C83.4287 65.6086 80.0859 64.8093 77.0999 63.2106C74.1271 61.5986 71.762 59.2468 70.0048 56.1551C68.2607 53.0502 67.3887 49.2516 67.3887 44.7593C67.3887 40.2407 68.2607 36.4355 70.0048 33.3437C71.762 30.2388 74.1271 27.8936 77.0999 26.3081C80.0859 24.7094 83.4287 23.91 87.1282 23.91C90.8012 23.91 94.1308 24.7094 97.1168 26.3081C100.103 27.8936 102.474 30.2388 104.232 33.3437C105.989 36.4355 106.868 40.2407 106.868 44.7593ZM95.5313 44.7593C95.5313 42.3282 95.2076 40.2803 94.5602 38.6155C93.926 36.9375 92.9813 35.6691 91.7261 34.8103C90.4841 33.9383 88.9515 33.5023 87.1282 33.5023C85.3048 33.5023 83.7656 33.9383 82.5104 34.8103C81.2684 35.6691 80.3237 36.9375 79.6763 38.6155C79.0421 40.2803 78.725 42.3282 78.725 44.7593C78.725 47.1904 79.0421 49.245 79.6763 50.923C80.3237 52.5877 81.2684 53.8561 82.5104 54.7282C83.7656 55.587 85.3048 56.0164 87.1282 56.0164C88.9515 56.0164 90.4841 55.587 91.7261 54.7282C92.9813 53.8561 93.926 52.5877 94.5602 50.923C95.2076 49.245 95.5313 47.1904 95.5313 44.7593ZM108.949 33.3437V24.465H144.226V33.3437H132.018V65.0537H121.157V33.3437H108.949ZM153.793 65.0537H141.902L155.3 24.465H170.362L183.759 65.0537H171.868L162.989 35.6427H162.672L153.793 65.0537ZM151.574 49.0402H173.929V57.2848H151.574V49.0402ZM187.669 65.0537V24.465H198.688V56.1749H215.098V65.0537H187.669ZM31.1402 120.054V79.465H48.66C51.6724 79.465 54.3083 80.0133 56.5677 81.1099C58.827 82.2065 60.5843 83.7854 61.8395 85.8466C63.0946 87.9077 63.7222 90.3785 63.7222 93.2588C63.7222 96.1655 63.0748 98.6165 61.78 100.612C60.4984 102.607 58.6949 104.113 56.3695 105.13C54.0573 106.148 51.3553 106.656 48.2636 106.656H37.7993V98.0946H46.0439C47.3387 98.0946 48.442 97.936 49.3537 97.6189C50.2785 97.2886 50.9854 96.7667 51.4743 96.0532C51.9763 95.3398 52.2274 94.4083 52.2274 93.2588C52.2274 92.0961 51.9763 91.1514 51.4743 90.4247C50.9854 89.6848 50.2785 89.1431 49.3537 88.7996C48.442 88.4428 47.3387 88.2645 46.0439 88.2645H42.1595V120.054H31.1402ZM54.9227 101.424L65.0699 120.054H53.0994L43.19 101.424H54.9227ZM68.4193 120.054V79.465H97.6717V88.3437H79.4385V95.3199H96.1655V104.199H79.4385V111.175H97.5924V120.054H68.4193ZM141.03 94.6857H129.852C129.773 93.7609 129.562 92.9219 129.218 92.1688C128.888 91.4156 128.425 90.7682 127.831 90.2265C127.25 89.6716 126.543 89.2488 125.71 88.9581C124.878 88.6542 123.933 88.5023 122.876 88.5023C121.026 88.5023 119.461 88.9515 118.179 89.85C116.911 90.7484 115.946 92.0366 115.286 93.7146C114.638 95.3926 114.314 97.4075 114.314 99.7593C114.314 102.243 114.645 104.324 115.305 106.002C115.979 107.667 116.95 108.922 118.219 109.768C119.487 110.6 121.013 111.016 122.797 111.016C123.814 111.016 124.726 110.891 125.532 110.64C126.338 110.376 127.038 109.999 127.633 109.51C128.227 109.021 128.709 108.433 129.079 107.746C129.463 107.046 129.72 106.26 129.852 105.388L141.03 105.467C140.898 107.185 140.416 108.935 139.583 110.719C138.751 112.49 137.568 114.128 136.036 115.634C134.516 117.127 132.634 118.329 130.387 119.241C128.141 120.153 125.532 120.609 122.559 120.609C118.833 120.609 115.49 119.809 112.531 118.211C109.584 116.612 107.252 114.26 105.535 111.155C103.83 108.05 102.978 104.252 102.978 99.7593C102.978 95.2407 103.85 91.4355 105.594 88.3437C107.338 85.2388 109.69 82.8936 112.65 81.3081C115.609 79.7094 118.912 78.91 122.559 78.91C125.122 78.91 127.481 79.2602 129.634 79.9604C131.788 80.6607 133.677 81.6847 135.303 83.0323C136.928 84.3668 138.236 86.0117 139.227 87.9672C140.218 89.9226 140.819 92.1622 141.03 94.6857ZM144.365 79.465H156.652L164.58 95.9541H164.897L172.824 79.465H185.112L170.208 107.29V120.054H159.268V107.29L144.365 79.465ZM223.763 94.6857H212.586C212.506 93.7609 212.295 92.9219 211.951 92.1688C211.621 91.4156 211.159 90.7682 210.564 90.2265C209.983 89.6716 209.276 89.2488 208.444 88.9581C207.611 88.6542 206.666 88.5023 205.609 88.5023C203.76 88.5023 202.194 88.9515 200.912 89.85C199.644 90.7484 198.68 92.0366 198.019 93.7146C197.371 95.3926 197.048 97.4075 197.048 99.7593C197.048 102.243 197.378 104.324 198.039 106.002C198.713 107.667 199.684 108.922 200.952 109.768C202.22 110.6 203.747 111.016 205.53 111.016C206.548 111.016 207.459 110.891 208.265 110.64C209.071 110.376 209.771 109.999 210.366 109.51C210.961 109.021 211.443 108.433 211.813 107.746C212.196 107.046 212.454 106.26 212.586 105.388L223.763 105.467C223.631 107.185 223.149 108.935 222.317 110.719C221.484 112.49 220.302 114.128 218.769 115.634C217.25 117.127 215.367 118.329 213.121 119.241C210.875 120.153 208.265 120.609 205.292 120.609C201.566 120.609 198.224 119.809 195.264 118.211C192.318 116.612 189.986 114.26 188.268 111.155C186.564 108.05 185.711 104.252 185.711 99.7593C185.711 95.2407 186.583 91.4355 188.328 88.3437C190.072 85.2388 192.423 82.8936 195.383 81.3081C198.343 79.7094 201.646 78.91 205.292 78.91C207.856 78.91 210.214 79.2602 212.368 79.9604C214.521 80.6607 216.411 81.6847 218.036 83.0323C219.661 84.3668 220.969 86.0117 221.96 87.9672C222.951 89.9226 223.552 92.1622 223.763 94.6857ZM228.763 120.054V79.465H239.782V111.175H256.192V120.054H228.763ZM271.19 120.054H259.298L272.696 79.465H287.758L301.156 120.054H289.264L280.386 90.6427H280.068L271.19 120.054ZM268.97 104.04H291.325V112.285H268.97V104.04ZM305.065 120.054V79.465H322.664C325.756 79.465 328.352 79.8811 330.453 80.7135C332.567 81.5459 334.159 82.7218 335.229 84.2413C336.312 85.7607 336.854 87.551 336.854 89.6121C336.854 91.1052 336.524 92.466 335.863 93.6948C335.216 94.9236 334.304 95.9541 333.128 96.7865C331.952 97.6057 330.578 98.1738 329.006 98.4909V98.8873C330.75 98.9534 332.335 99.396 333.762 100.215C335.189 101.021 336.326 102.138 337.171 103.565C338.017 104.978 338.44 106.643 338.44 108.559C338.44 110.779 337.858 112.754 336.695 114.485C335.546 116.215 333.908 117.576 331.78 118.567C329.653 119.558 327.116 120.054 324.17 120.054H305.065ZM316.084 111.254H321.237C323.087 111.254 324.474 110.911 325.399 110.224C326.324 109.523 326.786 108.493 326.786 107.132C326.786 106.181 326.568 105.375 326.132 104.714C325.696 104.053 325.075 103.551 324.269 103.208C323.476 102.864 322.518 102.693 321.395 102.693H316.084V111.254ZM316.084 95.8749H320.603C321.567 95.8749 322.419 95.7229 323.159 95.419C323.899 95.1151 324.474 94.6791 324.884 94.111C325.306 93.5296 325.518 92.8228 325.518 91.9904C325.518 90.7352 325.069 89.7773 324.17 89.1167C323.272 88.4428 322.135 88.1059 320.761 88.1059H316.084V95.8749ZM342.344 120.054V79.465H353.363V111.175H369.773V120.054H342.344ZM374.227 120.054V79.465H403.48V88.3437H385.246V95.3199H401.973V104.199H385.246V111.175H403.4V120.054H374.227ZM430.825 92.1489C430.719 90.8277 430.223 89.7971 429.338 89.0572C428.466 88.3173 427.138 87.9474 425.355 87.9474C424.218 87.9474 423.287 88.0861 422.56 88.3636C421.847 88.6278 421.318 88.9912 420.975 89.4536C420.631 89.916 420.453 90.4445 420.44 91.0391C420.413 91.528 420.499 91.9706 420.697 92.3669C420.909 92.7501 421.239 93.1002 421.688 93.4173C422.137 93.7212 422.712 93.9987 423.412 94.2497C424.113 94.5008 424.945 94.7254 425.909 94.9236L429.239 95.637C431.485 96.1127 433.408 96.7403 435.006 97.5198C436.605 98.2994 437.913 99.2176 438.93 100.275C439.948 101.318 440.694 102.494 441.17 103.802C441.659 105.11 441.91 106.537 441.923 108.083C441.91 110.752 441.243 113.011 439.921 114.861C438.6 116.711 436.711 118.118 434.253 119.083C431.809 120.047 428.869 120.529 425.434 120.529C421.906 120.529 418.828 120.007 416.198 118.964C413.582 117.92 411.548 116.315 410.094 114.148C408.654 111.968 407.927 109.18 407.914 105.784H418.378C418.444 107.026 418.755 108.07 419.31 108.916C419.865 109.761 420.644 110.402 421.648 110.838C422.666 111.274 423.875 111.492 425.275 111.492C426.451 111.492 427.436 111.347 428.228 111.056C429.021 110.765 429.622 110.362 430.032 109.847C430.441 109.332 430.653 108.744 430.666 108.083C430.653 107.462 430.448 106.92 430.052 106.458C429.668 105.982 429.034 105.56 428.149 105.19C427.264 104.807 426.068 104.45 424.562 104.119L420.519 103.247C416.925 102.468 414.091 101.166 412.017 99.3431C409.955 97.5066 408.931 95.0028 408.945 91.8318C408.931 89.2554 409.618 87.0027 411.006 85.0737C412.406 83.1314 414.342 81.6186 416.813 80.5352C419.297 79.4517 422.144 78.91 425.355 78.91C428.631 78.91 431.465 79.4583 433.857 80.555C436.248 81.6516 438.091 83.1975 439.386 85.1926C440.694 87.1744 441.355 89.4932 441.368 92.1489H430.825Z" fill="#9493F8"/>
<rect x="28.5242" y="137.186" width="301" height="63" rx="31.5" fill="#9493F8"/>
<path d="M61.1403 189.186V148.597H78.7394C81.8312 148.597 84.4275 149.013 86.5283 149.846C88.6423 150.678 90.2344 151.854 91.3046 153.373C92.3881 154.893 92.9298 156.683 92.9298 158.744C92.9298 160.237 92.5995 161.598 91.9388 162.827C91.2914 164.056 90.3797 165.086 89.2038 165.919C88.0279 166.738 86.6538 167.306 85.0815 167.623V168.019C86.8256 168.086 88.4111 168.528 89.838 169.347C91.265 170.153 92.4013 171.27 93.2469 172.697C94.0925 174.11 94.5153 175.775 94.5153 177.691C94.5153 179.911 93.9339 181.886 92.7712 183.617C91.6217 185.348 89.9834 186.709 87.8561 187.7C85.7289 188.691 83.1921 189.186 80.2457 189.186H61.1403ZM72.1596 180.386H77.3125C79.1622 180.386 80.5496 180.043 81.4744 179.356C82.3993 178.656 82.8618 177.625 82.8618 176.264C82.8618 175.313 82.6438 174.507 82.2077 173.846C81.7717 173.186 81.1507 172.684 80.3448 172.34C79.552 171.996 78.5941 171.825 77.471 171.825H72.1596V180.386ZM72.1596 165.007H76.6783C77.6428 165.007 78.495 164.855 79.2349 164.551C79.9748 164.247 80.5496 163.811 80.9592 163.243C81.382 162.662 81.5934 161.955 81.5934 161.122C81.5934 159.867 81.1441 158.909 80.2457 158.249C79.3472 157.575 78.2109 157.238 76.8368 157.238H72.1596V165.007ZM96.1967 148.597H108.484L116.412 165.086H116.729L124.657 148.597H136.944L122.041 176.423V189.186H111.101V176.423L96.1967 148.597ZM149.429 157.476V148.597H184.706V157.476H172.498V189.186H161.637V157.476H149.429ZM186.631 148.597H198.918L206.846 165.086H207.163L215.091 148.597H227.378L212.475 176.423V189.186H201.535V176.423L186.631 148.597ZM230.412 189.186V148.597H247.932C250.945 148.597 253.581 149.192 255.84 150.381C258.099 151.57 259.857 153.241 261.112 155.395C262.367 157.548 262.995 160.065 262.995 162.946C262.995 165.853 262.347 168.37 261.052 170.497C259.771 172.624 257.967 174.262 255.642 175.412C253.33 176.561 250.628 177.136 247.536 177.136H237.072V168.574H245.316C246.611 168.574 247.714 168.35 248.626 167.901C249.551 167.438 250.258 166.784 250.747 165.938C251.249 165.093 251.5 164.095 251.5 162.946C251.5 161.783 251.249 160.792 250.747 159.973C250.258 159.141 249.551 158.506 248.626 158.07C247.714 157.621 246.611 157.397 245.316 157.397H241.432V189.186H230.412ZM266.48 189.186V148.597H295.732V157.476H277.499V164.452H294.226V173.331H277.499V180.307H295.653V189.186H266.48Z" fill="white"/>
<rect x="337.524" y="134.054" width="66.1321" height="66.1321" rx="33.0661" fill="#9493F8"/>
<path d="M371.257 178.318V176.405C371.257 174.87 371.588 173.454 372.249 172.155C372.922 170.856 373.896 169.811 375.172 169.02C376.447 168.229 377.999 167.833 379.83 167.833C381.707 167.833 383.283 168.223 384.559 169.002C385.846 169.781 386.82 170.82 387.481 172.119C388.142 173.418 388.473 174.847 388.473 176.405V178.318C388.473 179.853 388.136 181.27 387.463 182.569C386.802 183.868 385.828 184.913 384.541 185.704C383.254 186.495 381.684 186.891 379.83 186.891C377.976 186.891 376.411 186.495 375.136 185.704C373.861 184.913 372.893 183.868 372.231 182.569C371.582 181.27 371.257 179.853 371.257 178.318ZM377.421 176.405V178.318C377.421 178.991 377.586 179.659 377.917 180.32C378.259 180.969 378.897 181.294 379.83 181.294C380.81 181.294 381.453 180.975 381.76 180.337C382.079 179.7 382.238 179.027 382.238 178.318V176.405C382.238 175.697 382.091 175.012 381.796 174.351C381.5 173.69 380.845 173.359 379.83 173.359C378.897 173.359 378.259 173.69 377.917 174.351C377.586 175.012 377.421 175.697 377.421 176.405ZM352.27 157.56V155.647C352.27 154.089 352.607 152.66 353.28 151.361C353.965 150.062 354.945 149.023 356.22 148.244C357.495 147.465 359.036 147.075 360.843 147.075C362.72 147.075 364.297 147.465 365.572 148.244C366.859 149.023 367.833 150.062 368.494 151.361C369.155 152.66 369.486 154.089 369.486 155.647V157.56C369.486 159.119 369.15 160.542 368.476 161.829C367.815 163.116 366.841 164.143 365.554 164.911C364.267 165.678 362.697 166.062 360.843 166.062C358.989 166.062 357.424 165.672 356.149 164.893C354.874 164.114 353.906 163.08 353.244 161.793C352.595 160.506 352.27 159.095 352.27 157.56ZM358.505 155.647V157.56C358.505 158.269 358.67 158.942 359.001 159.579C359.331 160.217 359.945 160.536 360.843 160.536C361.823 160.536 362.466 160.217 362.773 159.579C363.092 158.942 363.252 158.269 363.252 157.56V155.647C363.252 154.939 363.104 154.254 362.809 153.593C362.514 152.932 361.858 152.601 360.843 152.601C359.91 152.601 359.284 152.943 358.965 153.628C358.658 154.301 358.505 154.974 358.505 155.647ZM355.281 185.12L380.219 148.846H385.249L360.311 185.12H355.281Z" fill="white"/>
</svg>
