<svg width="299" height="42" viewBox="0 0 299 42" fill="none" xmlns="http://www.w3.org/2000/svg">
<path d="M18.4013 14.8206V11.6892H33.1546V14.8206H27.655V29.6528H23.9009V14.8206H18.4013ZM39.6476 29.916C38.2851 29.916 37.1068 29.6265 36.1128 29.0476C35.1245 28.4629 34.3614 27.6501 33.8235 26.6092C33.2855 25.5625 33.0165 24.3491 33.0165 22.9691C33.0165 21.5774 33.2855 20.3611 33.8235 19.3202C34.3614 18.2735 35.1245 17.4607 36.1128 16.8818C37.1068 16.2971 38.2851 16.0047 39.6476 16.0047C41.0101 16.0047 42.1854 16.2971 43.1737 16.8818C44.1677 17.4607 44.9338 18.2735 45.4717 19.3202C46.0097 20.3611 46.2787 21.5774 46.2787 22.9691C46.2787 24.3491 46.0097 25.5625 45.4717 26.6092C44.9338 27.6501 44.1677 28.4629 43.1737 29.0476C42.1854 29.6265 41.0101 29.916 39.6476 29.916ZM39.6651 27.0214C40.285 27.0214 40.8025 26.846 41.2177 26.4952C41.6328 26.1385 41.9457 25.6531 42.1562 25.0391C42.3726 24.4251 42.4807 23.7264 42.4807 22.9428C42.4807 22.1592 42.3726 21.4604 42.1562 20.8464C41.9457 20.2324 41.6328 19.7471 41.2177 19.3904C40.8025 19.0337 40.285 18.8554 39.6651 18.8554C39.0395 18.8554 38.5132 19.0337 38.0863 19.3904C37.6653 19.7471 37.3466 20.2324 37.1302 20.8464C36.9197 21.4604 36.8145 22.1592 36.8145 22.9428C36.8145 23.7264 36.9197 24.4251 37.1302 25.0391C37.3466 25.6531 37.6653 26.1385 38.0863 26.4952C38.5132 26.846 39.0395 27.0214 39.6651 27.0214ZM55.8745 16.1801V18.9869H47.7611V16.1801H55.8745ZM49.603 12.9523H53.3396V25.5128C53.3396 25.8578 53.3922 26.1268 53.4975 26.3197C53.6027 26.5069 53.7489 26.6384 53.9361 26.7144C54.129 26.7905 54.3512 26.8285 54.6027 26.8285C54.7781 26.8285 54.9535 26.8139 55.129 26.7846C55.3044 26.7495 55.4389 26.7232 55.5324 26.7057L56.1201 29.4862C55.933 29.5447 55.6699 29.6119 55.3307 29.6879C54.9915 29.7698 54.5793 29.8195 54.0939 29.837C53.1934 29.8721 52.404 29.7522 51.7257 29.4774C51.0532 29.2026 50.5299 28.7757 50.1556 28.1968C49.7814 27.6179 49.5972 26.8869 49.603 26.004V12.9523ZM62.1504 29.9072C61.2908 29.9072 60.5248 29.7581 59.8523 29.4599C59.1798 29.1558 58.6477 28.7085 58.2559 28.1179C57.87 27.5214 57.677 26.7788 57.677 25.8899C57.677 25.1415 57.8144 24.5128 58.0893 24.0041C58.3641 23.4954 58.7383 23.086 59.212 22.7761C59.6856 22.4662 60.2236 22.2323 60.8259 22.0744C61.4341 21.9165 62.0714 21.8054 62.7381 21.7411C63.5216 21.6592 64.1532 21.5832 64.6327 21.5131C65.1122 21.437 65.4601 21.3259 65.6765 21.1797C65.8928 21.0336 66.001 20.8172 66.001 20.5307V20.478C66.001 19.9225 65.8256 19.4927 65.4747 19.1887C65.1297 18.8846 64.6385 18.7326 64.0011 18.7326C63.3287 18.7326 62.7936 18.8817 62.396 19.1799C61.9984 19.4723 61.7352 19.8407 61.6066 20.2851L58.1507 20.0044C58.3261 19.1857 58.6711 18.4782 59.1857 17.8817C59.7003 17.2794 60.364 16.8175 61.1768 16.4959C61.9954 16.1684 62.9427 16.0047 64.0187 16.0047C64.7672 16.0047 65.4835 16.0924 66.1676 16.2678C66.8577 16.4432 67.4687 16.7152 68.0008 17.0835C68.5388 17.4519 68.9628 17.9256 69.2727 18.5045C69.5826 19.0776 69.7376 19.7646 69.7376 20.5658V29.6528H66.194V27.7845H66.0887C65.8723 28.2056 65.5829 28.5769 65.2203 28.8985C64.8578 29.2143 64.4222 29.4628 63.9134 29.6441C63.4047 29.8195 62.817 29.9072 62.1504 29.9072ZM63.2205 27.3284C63.7702 27.3284 64.2555 27.2203 64.6765 27.0039C65.0975 26.7817 65.4279 26.4835 65.6677 26.1092C65.9074 25.735 66.0273 25.311 66.0273 24.8374V23.4077C65.9104 23.4837 65.7495 23.5538 65.5449 23.6182C65.3461 23.6766 65.1209 23.7322 64.8695 23.7848C64.618 23.8316 64.3666 23.8755 64.1152 23.9164C63.8637 23.9515 63.6357 23.9836 63.431 24.0129C62.9924 24.0772 62.6094 24.1795 62.282 24.3199C61.9545 24.4602 61.7001 24.6503 61.5189 24.89C61.3376 25.1239 61.2469 25.4163 61.2469 25.7671C61.2469 26.2759 61.4311 26.6647 61.7995 26.9337C62.1738 27.1969 62.6474 27.3284 63.2205 27.3284ZM76.3731 11.6892V29.6528H72.6365V11.6892H76.3731ZM88.8195 21.8639V29.6528H85.083V16.1801H88.6441V18.5571H88.802C89.1002 17.7736 89.6002 17.1537 90.3019 16.6976C91.0036 16.2357 91.8544 16.0047 92.8544 16.0047C93.79 16.0047 94.6057 16.2093 95.3015 16.6187C95.9974 17.028 96.5383 17.6128 96.9242 18.3729C97.3102 19.1273 97.5031 20.0278 97.5031 21.0745V29.6528H93.7666V21.7411C93.7724 20.9166 93.5619 20.2734 93.135 19.8114C92.7082 19.3436 92.1205 19.1097 91.372 19.1097C90.8691 19.1097 90.4247 19.2179 90.0388 19.4343C89.6587 19.6506 89.3604 19.9664 89.1441 20.3816C88.9336 20.7909 88.8254 21.285 88.8195 21.8639ZM109.088 23.9164V16.1801H112.824V29.6528H109.237V27.2056H109.097C108.793 27.9951 108.287 28.6295 107.579 29.109C106.877 29.5885 106.021 29.8283 105.009 29.8283C104.109 29.8283 103.316 29.6236 102.632 29.2143C101.948 28.8049 101.413 28.2231 101.027 27.4688C100.647 26.7144 100.454 25.811 100.448 24.7584V16.1801H104.185V24.0918C104.191 24.8871 104.404 25.5157 104.825 25.9777C105.246 26.4396 105.81 26.6706 106.518 26.6706C106.968 26.6706 107.389 26.5683 107.781 26.3636C108.173 26.1531 108.488 25.8432 108.728 25.4338C108.974 25.0245 109.094 24.5187 109.088 23.9164ZM115.813 29.6528V16.1801H119.374V18.5571H119.532C119.813 17.7677 120.281 17.1449 120.936 16.6888C121.591 16.2327 122.374 16.0047 123.286 16.0047C124.21 16.0047 124.997 16.2357 125.646 16.6976C126.295 17.1537 126.728 17.7736 126.944 18.5571H127.084C127.359 17.7853 127.856 17.1683 128.575 16.7064C129.301 16.2386 130.157 16.0047 131.145 16.0047C132.403 16.0047 133.423 16.4052 134.207 17.2063C134.996 18.0016 135.391 19.1302 135.391 20.5921V29.6528H131.663V21.3289C131.663 20.5804 131.464 20.019 131.067 19.6448C130.669 19.2705 130.172 19.0834 129.575 19.0834C128.897 19.0834 128.368 19.2998 127.988 19.7325C127.608 20.1594 127.418 20.7236 127.418 21.4253V29.6528H123.795V21.2499C123.795 20.5891 123.605 20.0629 123.225 19.6711C122.851 19.2793 122.357 19.0834 121.743 19.0834C121.327 19.0834 120.953 19.1887 120.62 19.3992C120.292 19.6038 120.032 19.8933 119.839 20.2675C119.646 20.6359 119.55 21.0686 119.55 21.5657V29.6528H115.813ZM138.413 29.6528V11.6892H142.149V18.4431H142.263C142.427 18.0806 142.664 17.7122 142.974 17.3379C143.289 16.9578 143.699 16.6421 144.202 16.3906C144.71 16.1333 145.342 16.0047 146.096 16.0047C147.079 16.0047 147.985 16.262 148.815 16.7766C149.646 17.2853 150.309 18.0542 150.806 19.0834C151.303 20.1067 151.552 21.3903 151.552 22.934C151.552 24.4368 151.309 25.7057 150.824 26.7408C150.344 27.7699 149.689 28.5506 148.859 29.0827C148.035 29.609 147.111 29.8721 146.087 29.8721C145.362 29.8721 144.745 29.7522 144.237 29.5125C143.734 29.2727 143.322 28.9716 143 28.609C142.678 28.2407 142.433 27.8693 142.263 27.4951H142.096V29.6528H138.413ZM142.07 22.9165C142.07 23.7176 142.181 24.4164 142.403 25.0128C142.626 25.6093 142.947 26.0741 143.368 26.4074C143.789 26.7349 144.301 26.8986 144.903 26.8986C145.511 26.8986 146.026 26.732 146.447 26.3987C146.868 26.0595 147.187 25.5917 147.403 24.9953C147.625 24.393 147.736 23.7 147.736 22.9165C147.736 22.1387 147.628 21.4546 147.412 20.864C147.196 20.2734 146.877 19.8114 146.456 19.4781C146.035 19.1448 145.517 18.9782 144.903 18.9782C144.295 18.9782 143.781 19.139 143.36 19.4606C142.944 19.7822 142.626 20.2383 142.403 20.8289C142.181 21.4195 142.07 22.1154 142.07 22.9165ZM160.185 29.916C158.799 29.916 157.606 29.6353 156.606 29.0739C155.612 28.5067 154.846 27.7056 154.308 26.6706C153.77 25.6297 153.501 24.3988 153.501 22.9779C153.501 21.592 153.77 20.3757 154.308 19.329C154.846 18.2823 155.604 17.4666 156.58 16.8818C157.562 16.2971 158.714 16.0047 160.036 16.0047C160.925 16.0047 161.752 16.1479 162.518 16.4345C163.29 16.7152 163.963 17.1391 164.536 17.7063C165.115 18.2735 165.565 18.9869 165.886 19.8465C166.208 20.7003 166.369 21.7002 166.369 22.8463V23.8725H154.992V21.5569H162.852C162.852 21.0189 162.735 20.5424 162.501 20.1272C162.267 19.712 161.942 19.3875 161.527 19.1536C161.118 18.9138 160.641 18.794 160.097 18.794C159.53 18.794 159.027 18.9255 158.589 19.1887C158.156 19.446 157.817 19.7939 157.571 20.2324C157.326 20.6652 157.2 21.1476 157.194 21.6797V23.8813C157.194 24.5479 157.317 25.1239 157.562 25.6093C157.814 26.0946 158.168 26.4688 158.624 26.732C159.08 26.9951 159.621 27.1267 160.246 27.1267C160.662 27.1267 161.042 27.0682 161.387 26.9513C161.732 26.8343 162.027 26.6589 162.273 26.425C162.518 26.1911 162.705 25.9046 162.834 25.5654L166.29 25.7935C166.115 26.6238 165.755 27.3489 165.211 27.9687C164.673 28.5827 163.977 29.0622 163.123 29.4072C162.276 29.7464 161.296 29.916 160.185 29.916ZM168.807 29.6528V16.1801H172.43V18.5308H172.57C172.816 17.6946 173.228 17.0631 173.807 16.6362C174.386 16.2035 175.052 15.9871 175.807 15.9871C175.994 15.9871 176.196 15.9988 176.412 16.0222C176.628 16.0456 176.818 16.0778 176.982 16.1187V19.4343C176.807 19.3816 176.564 19.3349 176.254 19.2939C175.944 19.253 175.661 19.2325 175.403 19.2325C174.854 19.2325 174.362 19.3524 173.93 19.5921C173.503 19.826 173.164 20.1535 172.912 20.5745C172.667 20.9956 172.544 21.4809 172.544 22.0306V29.6528H168.807ZM190.718 29.916C189.356 29.916 188.177 29.6265 187.183 29.0476C186.195 28.4629 185.432 27.6501 184.894 26.6092C184.356 25.5625 184.087 24.3491 184.087 22.9691C184.087 21.5774 184.356 20.3611 184.894 19.3202C185.432 18.2735 186.195 17.4607 187.183 16.8818C188.177 16.2971 189.356 16.0047 190.718 16.0047C192.08 16.0047 193.256 16.2971 194.244 16.8818C195.238 17.4607 196.004 18.2735 196.542 19.3202C197.08 20.3611 197.349 21.5774 197.349 22.9691C197.349 24.3491 197.08 25.5625 196.542 26.6092C196.004 27.6501 195.238 28.4629 194.244 29.0476C193.256 29.6265 192.08 29.916 190.718 29.916ZM190.736 27.0214C191.355 27.0214 191.873 26.846 192.288 26.4952C192.703 26.1385 193.016 25.6531 193.227 25.0391C193.443 24.4251 193.551 23.7264 193.551 22.9428C193.551 22.1592 193.443 21.4604 193.227 20.8464C193.016 20.2324 192.703 19.7471 192.288 19.3904C191.873 19.0337 191.355 18.8554 190.736 18.8554C190.11 18.8554 189.584 19.0337 189.157 19.3904C188.736 19.7471 188.417 20.2324 188.201 20.8464C187.99 21.4604 187.885 22.1592 187.885 22.9428C187.885 23.7264 187.99 24.4251 188.201 25.0391C188.417 25.6531 188.736 26.1385 189.157 26.4952C189.584 26.846 190.11 27.0214 190.736 27.0214ZM207.024 16.1801V18.9869H198.709V16.1801H207.024ZM200.612 29.6528V15.2065C200.612 14.2299 200.802 13.4201 201.182 12.7768C201.568 12.1336 202.094 11.6512 202.761 11.3296C203.428 11.008 204.185 10.8471 205.033 10.8471C205.606 10.8471 206.129 10.891 206.603 10.9787C207.082 11.0664 207.439 11.1454 207.673 11.2155L207.006 14.0224C206.86 13.9756 206.679 13.9317 206.463 13.8908C206.252 13.8499 206.036 13.8294 205.813 13.8294C205.264 13.8294 204.881 13.958 204.664 14.2153C204.448 14.4668 204.34 14.8206 204.34 15.2767V29.6528H200.612ZM223.663 23.9164V16.1801H227.4V29.6528H223.812V27.2056H223.672C223.368 27.9951 222.862 28.6295 222.154 29.109C221.453 29.5885 220.596 29.8283 219.584 29.8283C218.684 29.8283 217.892 29.6236 217.207 29.2143C216.523 28.8049 215.988 28.2231 215.602 27.4688C215.222 26.7144 215.029 25.811 215.023 24.7584V16.1801H218.76V24.0918C218.766 24.8871 218.979 25.5157 219.4 25.9777C219.821 26.4396 220.385 26.6706 221.093 26.6706C221.543 26.6706 221.964 26.5683 222.356 26.3636C222.748 26.1531 223.064 25.8432 223.303 25.4338C223.549 25.0245 223.669 24.5187 223.663 23.9164ZM241.598 20.0219L238.177 20.2324C238.119 19.9401 237.993 19.6769 237.8 19.443C237.607 19.2033 237.353 19.0132 237.037 18.8729C236.727 18.7267 236.356 18.6536 235.923 18.6536C235.344 18.6536 234.856 18.7764 234.458 19.022C234.061 19.2618 233.862 19.5834 233.862 19.9869C233.862 20.3085 233.991 20.5804 234.248 20.8026C234.505 21.0248 234.947 21.2031 235.572 21.3376L238.011 21.8288C239.321 22.0978 240.297 22.5305 240.94 23.127C241.584 23.7234 241.905 24.507 241.905 25.4777C241.905 26.3607 241.645 27.1355 241.125 27.8021C240.61 28.4687 239.902 28.9891 239.002 29.3634C238.107 29.7318 237.075 29.916 235.906 29.916C234.122 29.916 232.701 29.5447 231.643 28.802C230.59 28.0535 229.973 27.0361 229.792 25.7496L233.467 25.5566C233.578 26.1005 233.847 26.5156 234.274 26.8022C234.701 27.0828 235.248 27.2232 235.914 27.2232C236.569 27.2232 237.096 27.0975 237.493 26.846C237.897 26.5887 238.101 26.2583 238.107 25.8549C238.101 25.5157 237.958 25.2379 237.677 25.0216C237.397 24.7994 236.964 24.6298 236.379 24.5128L234.046 24.048C232.73 23.7848 231.751 23.3287 231.108 22.6796C230.47 22.0306 230.152 21.2031 230.152 20.1974C230.152 19.3319 230.386 18.5864 230.853 17.9607C231.327 17.335 231.991 16.8526 232.844 16.5134C233.704 16.1743 234.71 16.0047 235.862 16.0047C237.563 16.0047 238.902 16.3643 239.879 17.0835C240.861 17.8028 241.434 18.7823 241.598 20.0219ZM250.398 29.916C249.012 29.916 247.819 29.6353 246.819 29.0739C245.825 28.5067 245.059 27.7056 244.521 26.6706C243.983 25.6297 243.714 24.3988 243.714 22.9779C243.714 21.592 243.983 20.3757 244.521 19.329C245.059 18.2823 245.816 17.4666 246.793 16.8818C247.775 16.2971 248.927 16.0047 250.249 16.0047C251.138 16.0047 251.965 16.1479 252.731 16.4345C253.503 16.7152 254.175 17.1391 254.749 17.7063C255.327 18.2735 255.778 18.9869 256.099 19.8465C256.421 20.7003 256.582 21.7002 256.582 22.8463V23.8725H245.205V21.5569H253.064C253.064 21.0189 252.948 20.5424 252.714 20.1272C252.48 19.712 252.155 19.3875 251.74 19.1536C251.331 18.9138 250.854 18.794 250.31 18.794C249.743 18.794 249.24 18.9255 248.802 19.1887C248.369 19.446 248.03 19.7939 247.784 20.2324C247.539 20.6652 247.413 21.1476 247.407 21.6797V23.8813C247.407 24.5479 247.53 25.1239 247.775 25.6093C248.027 26.0946 248.381 26.4688 248.837 26.732C249.293 26.9951 249.834 27.1267 250.459 27.1267C250.875 27.1267 251.255 27.0682 251.6 26.9513C251.945 26.8343 252.24 26.6589 252.486 26.425C252.731 26.1911 252.918 25.9046 253.047 25.5654L256.503 25.7935C256.327 26.6238 255.968 27.3489 255.424 27.9687C254.886 28.5827 254.19 29.0622 253.336 29.4072C252.488 29.7464 251.509 29.916 250.398 29.916ZM259.02 29.6528V16.1801H262.643V18.5308H262.783C263.029 17.6946 263.441 17.0631 264.02 16.6362C264.599 16.2035 265.265 15.9871 266.02 15.9871C266.207 15.9871 266.409 15.9988 266.625 16.0222C266.841 16.0456 267.031 16.0778 267.195 16.1187V19.4343C267.02 19.3816 266.777 19.3349 266.467 19.2939C266.157 19.253 265.874 19.2325 265.616 19.2325C265.067 19.2325 264.575 19.3524 264.143 19.5921C263.716 19.826 263.377 20.1535 263.125 20.5745C262.88 20.9956 262.757 21.4809 262.757 22.0306V29.6528H259.02ZM280.337 20.0219L276.916 20.2324C276.857 19.9401 276.732 19.6769 276.539 19.443C276.346 19.2033 276.091 19.0132 275.776 18.8729C275.466 18.7267 275.094 18.6536 274.662 18.6536C274.083 18.6536 273.594 18.7764 273.197 19.022C272.799 19.2618 272.6 19.5834 272.6 19.9869C272.6 20.3085 272.729 20.5804 272.986 20.8026C273.244 21.0248 273.685 21.2031 274.311 21.3376L276.749 21.8288C278.059 22.0978 279.036 22.5305 279.679 23.127C280.322 23.7234 280.644 24.507 280.644 25.4777C280.644 26.3607 280.383 27.1355 279.863 27.8021C279.348 28.4687 278.641 28.9891 277.74 29.3634C276.846 29.7318 275.814 29.916 274.644 29.916C272.861 29.916 271.44 29.5447 270.381 28.802C269.329 28.0535 268.712 27.0361 268.53 25.7496L272.206 25.5566C272.317 26.1005 272.586 26.5156 273.013 26.8022C273.439 27.0828 273.986 27.2232 274.653 27.2232C275.308 27.2232 275.834 27.0975 276.232 26.846C276.635 26.5887 276.84 26.2583 276.846 25.8549C276.84 25.5157 276.697 25.2379 276.416 25.0216C276.135 24.7994 275.702 24.6298 275.118 24.5128L272.785 24.048C271.469 23.7848 270.489 23.3287 269.846 22.6796C269.209 22.0306 268.89 21.2031 268.89 20.1974C268.89 19.3319 269.124 18.5864 269.592 17.9607C270.065 17.335 270.729 16.8526 271.583 16.5134C272.442 16.1743 273.448 16.0047 274.6 16.0047C276.302 16.0047 277.641 16.3643 278.617 17.0835C279.6 17.8028 280.173 18.7823 280.337 20.0219Z" fill="#9493F8"/>
</svg>
