<svg width="489" height="453" viewBox="0 0 489 453" fill="none" xmlns="http://www.w3.org/2000/svg">
<path d="M29.5062 34.1572V25.2784H64.7836V34.1572H52.5752V65.8672H41.7146V34.1572H29.5062ZM106.343 45.5728C106.343 50.0915 105.465 53.9033 103.708 57.0082C101.95 60.0999 99.5786 62.4452 96.5926 64.0439C93.6066 65.6294 90.2771 66.4221 86.604 66.4221C82.9045 66.4221 79.5617 65.6228 76.5757 64.024C73.6029 62.4121 71.2379 60.0603 69.4806 56.9686C67.7366 53.8636 66.8645 50.0651 66.8645 45.5728C66.8645 41.0541 67.7366 37.2489 69.4806 34.1572C71.2379 31.0523 73.6029 28.7071 76.5757 27.1216C79.5617 25.5229 82.9045 24.7235 86.604 24.7235C90.2771 24.7235 93.6066 25.5229 96.5926 27.1216C99.5786 28.7071 101.95 31.0523 103.708 34.1572C105.465 37.2489 106.343 41.0541 106.343 45.5728ZM95.0071 45.5728C95.0071 43.1417 94.6834 41.0938 94.036 39.429C93.4018 37.751 92.4571 36.4826 91.2019 35.6238C89.96 34.7518 88.4273 34.3158 86.604 34.3158C84.7807 34.3158 83.2414 34.7518 81.9862 35.6238C80.7442 36.4826 79.7996 37.751 79.1521 39.429C78.5179 41.0938 78.2008 43.1417 78.2008 45.5728C78.2008 48.0039 78.5179 50.0584 79.1521 51.7364C79.7996 53.4012 80.7442 54.6696 81.9862 55.5416C83.2414 56.4004 84.7807 56.8298 86.604 56.8298C88.4273 56.8298 89.96 56.4004 91.2019 55.5416C92.4571 54.6696 93.4018 53.4012 94.036 51.7364C94.6834 50.0584 95.0071 48.0039 95.0071 45.5728ZM108.424 34.1572V25.2784H143.702V34.1572H131.493V65.8672H120.633V34.1572H108.424ZM153.269 65.8672H141.378L154.775 25.2784H169.838L183.235 65.8672H171.344L162.465 36.4562H162.148L153.269 65.8672ZM151.05 49.8537H173.405V58.0982H151.05V49.8537ZM187.144 65.8672V25.2784H198.164V56.9884H214.574V65.8672H187.144ZM30.6161 120.867V80.2784H48.1358C51.1483 80.2784 53.7842 80.8267 56.0435 81.9234C58.3028 83.02 60.0601 84.5989 61.3153 86.6601C62.5705 88.7212 63.1981 91.1919 63.1981 94.0723C63.1981 96.979 62.5507 99.4299 61.2558 101.425C59.9742 103.42 58.1707 104.926 55.8453 105.944C53.5331 106.961 50.8312 107.47 47.7395 107.47H37.2752V98.908H45.5198C46.8146 98.908 47.9178 98.7495 48.8295 98.4324C49.7544 98.1021 50.4612 97.5802 50.9501 96.8667C51.4522 96.1532 51.7032 95.2218 51.7032 94.0723C51.7032 92.9096 51.4522 91.9649 50.9501 91.2382C50.4612 90.4983 49.7544 89.9566 48.8295 89.6131C47.9178 89.2563 46.8146 89.0779 45.5198 89.0779H41.6353V120.867H30.6161ZM54.3985 102.238L64.5457 120.867H52.5752L42.6659 102.238H54.3985ZM67.8951 120.867V80.2784H97.1475V89.1572H78.9143V96.1334H95.6413V105.012H78.9143V111.988H97.0683V120.867H67.8951ZM140.506 95.4992H129.328C129.249 94.5743 129.038 93.7353 128.694 92.9822C128.364 92.2291 127.901 91.5817 127.307 91.04C126.725 90.4851 126.018 90.0623 125.186 89.7716C124.354 89.4677 123.409 89.3158 122.352 89.3158C120.502 89.3158 118.937 89.765 117.655 90.6634C116.387 91.5619 115.422 92.8501 114.761 94.5281C114.114 96.2061 113.79 98.221 113.79 100.573C113.79 103.057 114.121 105.138 114.781 106.816C115.455 108.48 116.426 109.736 117.695 110.581C118.963 111.414 120.489 111.83 122.273 111.83C123.29 111.83 124.202 111.704 125.008 111.453C125.814 111.189 126.514 110.812 127.109 110.324C127.703 109.835 128.185 109.247 128.555 108.56C128.938 107.859 129.196 107.073 129.328 106.201L140.506 106.281C140.374 107.998 139.892 109.749 139.059 111.533C138.227 113.303 137.044 114.941 135.512 116.448C133.992 117.941 132.109 119.143 129.863 120.055C127.617 120.966 125.008 121.422 122.035 121.422C118.309 121.422 114.966 120.623 112.007 119.024C109.06 117.425 106.728 115.074 105.011 111.969C103.306 108.864 102.454 105.065 102.454 100.573C102.454 96.0541 103.326 92.2489 105.07 89.1572C106.814 86.0523 109.166 83.7071 112.126 82.1216C115.085 80.5229 118.388 79.7235 122.035 79.7235C124.598 79.7235 126.957 80.0736 129.11 80.7739C131.264 81.4742 133.153 82.4981 134.778 83.8458C136.403 85.1803 137.712 86.8252 138.702 88.7807C139.693 90.7361 140.295 92.9756 140.506 95.4992ZM143.84 80.2784H156.128L164.056 96.7676H164.373L172.3 80.2784H184.588L169.684 108.104V120.867H158.744V108.104L143.84 80.2784ZM223.239 95.4992H212.061C211.982 94.5743 211.771 93.7353 211.427 92.9822C211.097 92.2291 210.635 91.5817 210.04 91.04C209.459 90.4851 208.752 90.0623 207.919 89.7716C207.087 89.4677 206.142 89.3158 205.085 89.3158C203.236 89.3158 201.67 89.765 200.388 90.6634C199.12 91.5619 198.155 92.8501 197.495 94.5281C196.847 96.2061 196.524 98.221 196.524 100.573C196.524 103.057 196.854 105.138 197.515 106.816C198.188 108.48 199.159 109.736 200.428 110.581C201.696 111.414 203.222 111.83 205.006 111.83C206.023 111.83 206.935 111.704 207.741 111.453C208.547 111.189 209.247 110.812 209.842 110.324C210.436 109.835 210.919 109.247 211.289 108.56C211.672 107.859 211.929 107.073 212.061 106.201L223.239 106.281C223.107 107.998 222.625 109.749 221.792 111.533C220.96 113.303 219.778 114.941 218.245 116.448C216.725 117.941 214.843 119.143 212.597 120.055C210.35 120.966 207.741 121.422 204.768 121.422C201.042 121.422 197.7 120.623 194.74 119.024C191.794 117.425 189.462 115.074 187.744 111.969C186.039 108.864 185.187 105.065 185.187 100.573C185.187 96.0541 186.059 92.2489 187.803 89.1572C189.547 86.0523 191.899 83.7071 194.859 82.1216C197.818 80.5229 201.122 79.7235 204.768 79.7235C207.331 79.7235 209.69 80.0736 211.843 80.7739C213.997 81.4742 215.887 82.4981 217.512 83.8458C219.137 85.1803 220.445 86.8252 221.436 88.7807C222.427 90.7361 223.028 92.9756 223.239 95.4992ZM228.239 120.867V80.2784H239.258V111.988H255.668V120.867H228.239ZM270.665 120.867H258.774L272.172 80.2784H287.234L300.631 120.867H288.74L279.861 91.4562H279.544L270.665 120.867ZM268.446 104.854H290.801V113.098H268.446V104.854ZM304.541 120.867V80.2784H322.14C325.231 80.2784 327.828 80.6946 329.928 81.527C332.042 82.3594 333.635 83.5353 334.705 85.0547C335.788 86.5742 336.33 88.3645 336.33 90.4256C336.33 91.9186 336 93.2795 335.339 94.5083C334.692 95.737 333.78 96.7676 332.604 97.6C331.428 98.4192 330.054 98.9873 328.482 99.3044V99.7008C330.226 99.7668 331.811 100.209 333.238 101.029C334.665 101.835 335.801 102.951 336.647 104.378C337.493 105.792 337.915 107.457 337.915 109.372C337.915 111.592 337.334 113.567 336.171 115.298C335.022 117.029 333.383 118.39 331.256 119.381C329.129 120.372 326.592 120.867 323.646 120.867H304.541ZM315.56 112.068H320.713C322.562 112.068 323.95 111.724 324.875 111.037C325.8 110.337 326.262 109.306 326.262 107.945C326.262 106.994 326.044 106.188 325.608 105.527C325.172 104.867 324.551 104.365 323.745 104.021C322.952 103.678 321.994 103.506 320.871 103.506H315.56V112.068ZM315.56 96.6883H320.079C321.043 96.6883 321.895 96.5364 322.635 96.2325C323.375 95.9286 323.95 95.4926 324.359 94.9245C324.782 94.3431 324.994 93.6363 324.994 92.8039C324.994 91.5487 324.544 90.5908 323.646 89.9302C322.747 89.2563 321.611 88.9194 320.237 88.9194H315.56V96.6883ZM341.82 120.867V80.2784H352.839V111.988H369.249V120.867H341.82ZM373.703 120.867V80.2784H402.955V89.1572H384.722V96.1334H401.449V105.012H384.722V111.988H402.876V120.867H373.703ZM430.3 92.9624C430.195 91.6412 429.699 90.6106 428.814 89.8707C427.942 89.1308 426.614 88.7608 424.83 88.7608C423.694 88.7608 422.763 88.8996 422.036 89.177C421.322 89.4413 420.794 89.8046 420.45 90.2671C420.107 90.7295 419.929 91.258 419.915 91.8526C419.889 92.3414 419.975 92.784 420.173 93.1804C420.384 93.5636 420.715 93.9137 421.164 94.2308C421.613 94.5347 422.188 94.8122 422.888 95.0632C423.588 95.3142 424.421 95.5389 425.385 95.737L428.715 96.4505C430.961 96.9262 432.883 97.5538 434.482 98.3333C436.081 99.1128 437.389 100.031 438.406 101.088C439.424 102.132 440.17 103.308 440.646 104.616C441.135 105.924 441.386 107.351 441.399 108.897C441.386 111.566 440.718 113.825 439.397 115.675C438.076 117.524 436.187 118.932 433.729 119.896C431.285 120.861 428.345 121.343 424.91 121.343C421.382 121.343 418.303 120.821 415.674 119.777C413.058 118.733 411.023 117.128 409.57 114.961C408.13 112.781 407.403 109.993 407.39 106.598H417.854C417.92 107.84 418.231 108.883 418.786 109.729C419.341 110.575 420.12 111.215 421.124 111.651C422.142 112.087 423.351 112.305 424.751 112.305C425.927 112.305 426.911 112.16 427.704 111.869C428.497 111.579 429.098 111.176 429.508 110.661C429.917 110.145 430.129 109.557 430.142 108.897C430.129 108.276 429.924 107.734 429.527 107.272C429.144 106.796 428.51 106.373 427.625 106.003C426.74 105.62 425.544 105.263 424.038 104.933L419.995 104.061C416.401 103.281 413.567 101.98 411.492 100.157C409.431 98.3201 408.407 95.8163 408.42 92.6453C408.407 90.0689 409.094 87.8162 410.482 85.8871C411.882 83.9449 413.818 82.4321 416.289 81.3486C418.772 80.2652 421.62 79.7235 424.83 79.7235C428.107 79.7235 430.941 80.2718 433.333 81.3685C435.724 82.4651 437.567 84.011 438.862 86.006C440.17 87.9879 440.831 90.3067 440.844 92.9624H430.3Z" fill="#9493F8"/>
<rect x="28" y="134.867" width="433" height="63" rx="31.5" fill="#9493F8"/>
<path d="M56.6161 186.867V146.278H74.2153C77.307 146.278 79.9033 146.694 82.0041 147.527C84.1181 148.359 85.7102 149.535 86.7805 151.054C87.8639 152.574 88.4056 154.364 88.4056 156.425C88.4056 157.918 88.0753 159.279 87.4147 160.508C86.7672 161.737 85.8556 162.767 84.6796 163.6C83.5037 164.419 82.1296 164.987 80.5573 165.304V165.701C82.3014 165.767 83.8869 166.209 85.3139 167.028C86.7408 167.834 87.8771 168.951 88.7227 170.378C89.5683 171.792 89.9911 173.456 89.9911 175.372C89.9911 177.592 89.4098 179.567 88.247 181.298C87.0976 183.029 85.4592 184.39 83.332 185.381C81.2047 186.372 78.6679 186.867 75.7215 186.867H56.6161ZM67.6354 178.068H72.7883C74.6381 178.068 76.0254 177.724 76.9503 177.037C77.8752 176.337 78.3376 175.306 78.3376 173.945C78.3376 172.994 78.1196 172.188 77.6836 171.527C77.2476 170.867 76.6266 170.365 75.8206 170.021C75.0278 169.678 74.0699 169.506 72.9469 169.506H67.6354V178.068ZM67.6354 162.688H72.1541C73.1186 162.688 73.9708 162.536 74.7107 162.232C75.4506 161.928 76.0254 161.492 76.435 160.924C76.8578 160.343 77.0692 159.636 77.0692 158.804C77.0692 157.548 76.62 156.591 75.7215 155.93C74.8231 155.256 73.6868 154.919 72.3127 154.919H67.6354V162.688ZM91.6725 146.278H103.96L111.888 162.767H112.205L120.132 146.278H132.42L117.516 174.104V186.867H106.576V174.104L91.6725 146.278ZM146.015 186.867V146.278H157.034V177.988H173.444V186.867H146.015ZM215.08 166.573C215.08 171.091 214.202 174.903 212.444 178.008C210.687 181.1 208.315 183.445 205.329 185.044C202.343 186.629 199.014 187.422 195.341 187.422C191.641 187.422 188.298 186.623 185.312 185.024C182.339 183.412 179.974 181.06 178.217 177.969C176.473 174.864 175.601 171.065 175.601 166.573C175.601 162.054 176.473 158.249 178.217 155.157C179.974 152.052 182.339 149.707 185.312 148.121C188.298 146.523 191.641 145.723 195.341 145.723C199.014 145.723 202.343 146.523 205.329 148.121C208.315 149.707 210.687 152.052 212.444 155.157C214.202 158.249 215.08 162.054 215.08 166.573ZM203.744 166.573C203.744 164.142 203.42 162.094 202.773 160.429C202.138 158.751 201.194 157.482 199.939 156.624C198.697 155.752 197.164 155.316 195.341 155.316C193.517 155.316 191.978 155.752 190.723 156.624C189.481 157.482 188.536 158.751 187.889 160.429C187.254 162.094 186.937 164.142 186.937 166.573C186.937 169.004 187.254 171.058 187.889 172.736C188.536 174.401 189.481 175.67 190.723 176.542C191.978 177.4 193.517 177.83 195.341 177.83C197.164 177.83 198.697 177.4 199.939 176.542C201.194 175.67 202.138 174.401 202.773 172.736C203.42 171.058 203.744 169.004 203.744 166.573ZM257.514 161.499H246.336C246.257 160.574 246.046 159.735 245.702 158.982C245.372 158.229 244.909 157.581 244.315 157.04C243.734 156.485 243.027 156.062 242.194 155.771C241.362 155.467 240.417 155.316 239.36 155.316C237.51 155.316 235.945 155.765 234.663 156.663C233.395 157.562 232.43 158.85 231.77 160.528C231.122 162.206 230.798 164.221 230.798 166.573C230.798 169.057 231.129 171.138 231.789 172.816C232.463 174.48 233.434 175.736 234.703 176.581C235.971 177.414 237.497 177.83 239.281 177.83C240.298 177.83 241.21 177.704 242.016 177.453C242.822 177.189 243.522 176.812 244.117 176.324C244.711 175.835 245.194 175.247 245.563 174.56C245.947 173.859 246.204 173.073 246.336 172.201L257.514 172.28C257.382 173.998 256.9 175.749 256.067 177.532C255.235 179.303 254.053 180.941 252.52 182.448C251 183.941 249.118 185.143 246.872 186.055C244.625 186.966 242.016 187.422 239.043 187.422C235.317 187.422 231.974 186.623 229.015 185.024C226.068 183.425 223.736 181.073 222.019 177.969C220.314 174.864 219.462 171.065 219.462 166.573C219.462 162.054 220.334 158.249 222.078 155.157C223.822 152.052 226.174 149.707 229.134 148.121C232.093 146.523 235.396 145.723 239.043 145.723C241.606 145.723 243.965 146.073 246.118 146.774C248.272 147.474 250.161 148.498 251.787 149.845C253.412 151.18 254.72 152.825 255.711 154.78C256.702 156.736 257.303 158.975 257.514 161.499ZM271.246 186.867H259.354L272.752 146.278H287.814L301.212 186.867H289.32L280.442 157.456H280.124L271.246 186.867ZM269.026 170.854H291.382V179.098H269.026V170.854ZM298.33 155.157V146.278H333.608V155.157H321.399V186.867H310.538V155.157H298.33ZM348.216 146.278V186.867H337.197V146.278H348.216ZM392.201 166.573C392.201 171.091 391.322 174.903 389.565 178.008C387.808 181.1 385.436 183.445 382.45 185.044C379.464 186.629 376.134 187.422 372.461 187.422C368.762 187.422 365.419 186.623 362.433 185.024C359.46 183.412 357.095 181.06 355.338 177.969C353.593 174.864 352.721 171.065 352.721 166.573C352.721 162.054 353.593 158.249 355.338 155.157C357.095 152.052 359.46 149.707 362.433 148.121C365.419 146.523 368.762 145.723 372.461 145.723C376.134 145.723 379.464 146.523 382.45 148.121C385.436 149.707 387.808 152.052 389.565 155.157C391.322 158.249 392.201 162.054 392.201 166.573ZM380.864 166.573C380.864 164.142 380.541 162.094 379.893 160.429C379.259 158.751 378.314 157.482 377.059 156.624C375.817 155.752 374.284 155.316 372.461 155.316C370.638 155.316 369.098 155.752 367.843 156.624C366.601 157.482 365.657 158.751 365.009 160.429C364.375 162.094 364.058 164.142 364.058 166.573C364.058 169.004 364.375 171.058 365.009 172.736C365.657 174.401 366.601 175.67 367.843 176.542C369.098 177.4 370.638 177.83 372.461 177.83C374.284 177.83 375.817 177.4 377.059 176.542C378.314 175.67 379.259 174.401 379.893 172.736C380.541 171.058 380.864 169.004 380.864 166.573ZM431.86 146.278V186.867H422.664L407.998 165.542H407.76V186.867H396.741V146.278H406.096L420.524 167.524H420.841V146.278H431.86Z" fill="white"/>
<g clip-path="url(#clip0_86_182)">
<rect x="29.6152" y="221.952" width="230.77" height="230.767" rx="15" fill="#9493F8"/>
<path d="M207.931 319.983C206.595 320.582 205.917 322.079 206.289 323.496C207.784 329.202 208.593 335.185 208.593 341.356C208.593 342.657 208.545 343.947 208.48 345.237C207.859 345.2 207.051 345.125 205.954 344.943C204.213 344.663 202.51 344.378 200.831 344.097L200.478 344.038C184.67 341.378 171.02 339.087 153.007 345.425C150.555 346.292 148.494 345.955 146.739 344.392C143.077 341.121 141.439 333.15 143.013 326.25C143.751 323.037 145.856 320.256 147.888 317.572L147.895 317.562L147.909 317.543C150.919 313.565 154.326 309.063 152.493 303.27C148.976 292.146 146.626 289.887 139.876 291.204L139.867 291.206C137.636 291.644 134.849 292.193 130.455 290.888C128.362 290.267 127.05 289.181 126.312 287.457C124.368 282.928 126.938 275.279 128.656 271.409C131.718 271.002 134.839 270.772 138.013 270.772C144.313 270.772 150.43 271.599 156.244 273.159C157.747 273.562 159.317 272.628 159.784 271.144C160.256 269.647 159.469 268.038 157.954 267.628C151.596 265.908 144.91 264.99 138.013 264.99C95.9117 264.99 61.647 299.239 61.647 341.356C61.647 383.463 95.9063 417.723 138.013 417.723C180.125 417.723 214.379 383.469 214.379 341.356C214.379 334.593 213.499 328.037 211.839 321.792C211.39 320.103 209.525 319.267 207.931 319.983ZM71.9783 366.275C69.0395 358.524 67.4175 350.125 67.4175 341.356C67.4175 327.005 71.7321 313.649 79.1192 302.494C83.9477 305.154 90.1625 309.699 91.0993 313.671C91.4098 314.977 91.1047 316.16 90.1411 317.38C81.9403 327.808 79.0336 340.885 82.9092 349.921C84.4187 353.438 80.6984 363.159 75.8111 366.302C74.0392 367.458 72.9472 367.174 71.9783 366.275ZM138.003 411.941C110.359 411.941 86.3833 395.952 74.8101 372.747C76.1804 372.565 77.5829 372.051 78.9479 371.162C85.4305 366.987 91.2064 354.589 88.2194 347.636C85.2056 340.607 87.8607 329.628 94.6805 320.945C96.736 318.344 97.4426 315.362 96.72 312.332C95.1569 305.754 87.1434 300.395 82.5291 297.783C92.2877 285.391 106.088 276.344 121.933 272.634C120.263 277.361 118.662 284.315 120.98 289.732C122.388 293.008 125.091 295.326 128.795 296.429C134.539 298.131 138.415 297.381 140.973 296.878C143.645 296.354 144.196 296.257 146.963 305.009C147.857 307.82 146.23 310.17 143.275 314.067C140.973 317.097 138.372 320.533 137.366 324.96C135.299 334.012 137.617 344.001 142.879 348.701C145.079 350.66 147.697 351.666 150.502 351.666C151.936 351.666 153.419 351.404 154.913 350.885C171.523 345.039 184.488 347.213 199.509 349.745C201.318 350.05 203.154 350.35 205.028 350.655C206.12 350.831 207.057 350.938 207.908 350.992C203.202 385.364 173.654 411.941 138.003 411.941Z" fill="white"/>
<path d="M207.931 319.983C206.595 320.582 205.917 322.079 206.289 323.496C207.784 329.202 208.593 335.185 208.593 341.356C208.593 342.657 208.545 343.947 208.48 345.237C207.859 345.2 207.051 345.125 205.954 344.943C204.213 344.663 202.51 344.378 200.831 344.097L200.478 344.038C184.67 341.378 171.02 339.087 153.007 345.425C150.555 346.292 148.494 345.955 146.739 344.392C143.077 341.121 141.439 333.15 143.013 326.25C143.751 323.037 145.856 320.256 147.888 317.572L147.895 317.562L147.909 317.543C150.919 313.565 154.326 309.063 152.493 303.27C148.976 292.146 146.626 289.887 139.876 291.204L139.867 291.206C137.636 291.644 134.849 292.193 130.455 290.888C128.362 290.267 127.05 289.181 126.312 287.457C124.368 282.928 126.938 275.279 128.656 271.409C131.718 271.002 134.839 270.772 138.013 270.772C144.313 270.772 150.43 271.599 156.244 273.159C157.747 273.562 159.317 272.628 159.784 271.144C160.256 269.647 159.469 268.038 157.954 267.628C151.596 265.908 144.91 264.99 138.013 264.99C95.9117 264.99 61.647 299.239 61.647 341.356C61.647 383.463 95.9063 417.723 138.013 417.723C180.125 417.723 214.379 383.469 214.379 341.356C214.379 334.593 213.499 328.037 211.839 321.792C211.39 320.103 209.525 319.267 207.931 319.983ZM71.9783 366.275C69.0395 358.524 67.4175 350.125 67.4175 341.356C67.4175 327.005 71.7321 313.649 79.1192 302.494C83.9477 305.154 90.1625 309.699 91.0993 313.671C91.4098 314.977 91.1047 316.16 90.1411 317.38C81.9403 327.808 79.0336 340.885 82.9092 349.921C84.4187 353.438 80.6984 363.159 75.8111 366.302C74.0392 367.458 72.9472 367.174 71.9783 366.275ZM138.003 411.941C110.359 411.941 86.3833 395.952 74.8101 372.747C76.1804 372.565 77.5829 372.051 78.9479 371.162C85.4305 366.987 91.2064 354.589 88.2194 347.636C85.2056 340.607 87.8607 329.628 94.6805 320.945C96.736 318.344 97.4426 315.362 96.72 312.332C95.1569 305.754 87.1434 300.395 82.5291 297.783C92.2877 285.391 106.088 276.344 121.933 272.634C120.263 277.361 118.662 284.315 120.98 289.732C122.388 293.008 125.091 295.326 128.795 296.429C134.539 298.131 138.415 297.381 140.973 296.878C143.645 296.354 144.196 296.257 146.963 305.009C147.857 307.82 146.23 310.17 143.275 314.067C140.973 317.097 138.372 320.533 137.366 324.96C135.299 334.012 137.617 344.001 142.879 348.701C145.079 350.66 147.697 351.666 150.502 351.666C151.936 351.666 153.419 351.404 154.913 350.885C171.523 345.039 184.488 347.213 199.509 349.745C201.318 350.05 203.154 350.35 205.028 350.655C206.12 350.831 207.057 350.938 207.908 350.992C203.202 385.364 173.654 411.941 138.003 411.941Z" stroke="#9493F8"/>
<path d="M212.024 255.858C207.056 253 201.425 251.485 195.724 251.485C184.07 251.485 173.22 257.748 167.412 267.827C164.821 272.303 163.209 279.947 163.739 285.235L167.588 323.429C167.599 323.542 167.615 323.659 167.642 323.772C168.027 325.479 169.055 326.887 170.543 327.749C171.458 328.268 172.492 328.541 173.546 328.541C174.167 328.541 174.793 328.44 175.409 328.258C175.521 328.22 175.634 328.177 175.746 328.129L210.75 312.375C215.573 310.191 221.391 304.983 223.993 300.497C232.986 284.898 227.622 264.878 212.024 255.858ZM218.977 297.606C217.232 300.62 212.441 305.266 208.368 307.097L173.594 322.755C173.578 322.76 173.562 322.76 173.546 322.76L173.311 322.525L169.494 284.652C169.044 280.193 170.677 273.732 172.411 270.713C177.202 262.415 186.131 257.261 195.724 257.261C200.408 257.261 205.049 258.502 209.133 260.863C221.97 268.282 226.391 284.764 218.977 297.606Z" fill="white"/>
<path d="M212.024 255.858C207.056 253 201.425 251.485 195.724 251.485C184.07 251.485 173.22 257.748 167.412 267.827C164.821 272.303 163.209 279.947 163.739 285.235L167.588 323.429C167.599 323.542 167.615 323.659 167.642 323.772C168.027 325.479 169.055 326.887 170.543 327.749C171.458 328.268 172.492 328.541 173.546 328.541C174.167 328.541 174.793 328.44 175.409 328.258C175.521 328.22 175.634 328.177 175.746 328.129L210.75 312.375C215.573 310.191 221.391 304.983 223.993 300.497C232.986 284.898 227.622 264.878 212.024 255.858ZM218.977 297.606C217.232 300.62 212.441 305.266 208.368 307.097L173.594 322.755C173.578 322.76 173.562 322.76 173.546 322.76L173.311 322.525L169.494 284.652C169.044 280.193 170.677 273.732 172.411 270.713C177.202 262.415 186.131 257.261 195.724 257.261C200.408 257.261 205.049 258.502 209.133 260.863C221.97 268.282 226.391 284.764 218.977 297.606Z" stroke="#9493F8"/>
<path d="M205.895 266.482C202.876 264.737 199.434 263.811 195.96 263.811C188.856 263.811 182.245 267.633 178.702 273.773C176.041 278.382 175.335 283.746 176.705 288.885C178.086 294.024 181.378 298.311 185.977 300.972C189.006 302.717 192.448 303.643 195.922 303.643C203.021 303.643 209.637 299.826 213.181 293.686C215.836 289.083 216.548 283.719 215.167 278.58C213.802 273.436 210.504 269.148 205.895 266.482ZM208.175 290.79C205.66 295.148 200.97 297.856 195.928 297.856C193.465 297.856 191.024 297.198 188.878 295.961C185.607 294.072 183.273 291.031 182.299 287.386C181.325 283.74 181.823 279.929 183.718 276.664C186.233 272.306 190.928 269.592 195.965 269.592C198.428 269.592 200.863 270.245 203.004 271.487C206.275 273.382 208.62 276.423 209.589 280.074C210.568 283.714 210.065 287.52 208.175 290.79Z" fill="white"/>
<path d="M205.895 266.482C202.876 264.737 199.434 263.811 195.96 263.811C188.856 263.811 182.245 267.633 178.702 273.773C176.041 278.382 175.335 283.746 176.705 288.885C178.086 294.024 181.378 298.311 185.977 300.972C189.006 302.717 192.448 303.643 195.922 303.643C203.021 303.643 209.637 299.826 213.181 293.686C215.836 289.083 216.548 283.719 215.167 278.58C213.802 273.436 210.504 269.148 205.895 266.482ZM208.175 290.79C205.66 295.148 200.97 297.856 195.928 297.856C193.465 297.856 191.024 297.198 188.878 295.961C185.607 294.072 183.273 291.031 182.299 287.386C181.325 283.74 181.823 279.929 183.718 276.664C186.233 272.306 190.928 269.592 195.965 269.592C198.428 269.592 200.863 270.245 203.004 271.487C206.275 273.382 208.62 276.423 209.589 280.074C210.568 283.714 210.065 287.52 208.175 290.79Z" stroke="#9493F8"/>
</g>
<defs>
<clipPath id="clip0_86_182">
<rect width="284" height="231" fill="white" transform="translate(0 221.867)"/>
</clipPath>
</defs>
</svg>
