<svg width="813" height="169" viewBox="0 0 813 169" fill="none" xmlns="http://www.w3.org/2000/svg">
<path d="M1.50622 33.29V24.4112H36.7836V33.29H24.5752V65H13.7146V33.29H1.50622ZM78.3434 44.7056C78.3434 49.2243 77.4648 53.0361 75.7075 56.141C73.9503 59.2327 71.5786 61.578 68.5926 63.1767C65.6066 64.7622 62.2771 65.5549 58.604 65.5549C54.9045 65.5549 51.5617 64.7556 48.5757 63.1569C45.6029 61.5449 43.2379 59.1931 41.4806 56.1014C39.7366 52.9965 38.8645 49.1979 38.8645 44.7056C38.8645 40.187 39.7366 36.3818 41.4806 33.29C43.2379 30.1851 45.6029 27.8399 48.5757 26.2544C51.5617 24.6557 54.9045 23.8563 58.604 23.8563C62.2771 23.8563 65.6066 24.6557 68.5926 26.2544C71.5786 27.8399 73.9503 30.1851 75.7075 33.29C77.4648 36.3818 78.3434 40.187 78.3434 44.7056ZM67.0071 44.7056C67.0071 42.2745 66.6834 40.2266 66.036 38.5618C65.4018 36.8838 64.4571 35.6154 63.2019 34.7566C61.96 33.8846 60.4273 33.4486 58.604 33.4486C56.7807 33.4486 55.2414 33.8846 53.9862 34.7566C52.7442 35.6154 51.7996 36.8838 51.1521 38.5618C50.5179 40.2266 50.2008 42.2745 50.2008 44.7056C50.2008 47.1367 50.5179 49.1913 51.1521 50.8692C51.7996 52.534 52.7442 53.8024 53.9862 54.6744C55.2414 55.5333 56.7807 55.9627 58.604 55.9627C60.4273 55.9627 61.96 55.5333 63.2019 54.6744C64.4571 53.8024 65.4018 52.534 66.036 50.8692C66.6834 49.1913 67.0071 47.1367 67.0071 44.7056ZM80.4244 33.29V24.4112H115.702V33.29H103.493V65H92.6327V33.29H80.4244ZM125.269 65H113.378L126.775 24.4112H141.838L155.235 65H143.344L134.465 35.589H134.148L125.269 65ZM123.05 48.9865H145.405V57.2311H123.05V48.9865ZM159.144 65V24.4112H170.164V56.1212H186.574V65H159.144ZM202.146 65V24.4112H219.666C222.678 24.4112 225.314 24.9596 227.574 26.0562C229.833 27.1528 231.59 28.7317 232.845 30.7929C234.1 32.854 234.728 35.3248 234.728 38.2051C234.728 41.1118 234.081 43.5627 232.786 45.5578C231.504 47.5529 229.701 49.0591 227.375 50.0765C225.063 51.0939 222.361 51.6025 219.269 51.6025H208.805V43.0408H217.05C218.345 43.0408 219.448 42.8823 220.359 42.5652C221.284 42.2349 221.991 41.713 222.48 40.9995C222.982 40.286 223.233 39.3546 223.233 38.2051C223.233 37.0424 222.982 36.0977 222.48 35.371C221.991 34.6311 221.284 34.0894 220.359 33.7459C219.448 33.3891 218.345 33.2108 217.05 33.2108H213.165V65H202.146ZM225.929 46.3704L236.076 65H224.105L214.196 46.3704H225.929ZM239.425 65V24.4112H268.678V33.29H250.444V40.2662H267.171V49.145H250.444V56.1212H268.598V65H239.425ZM312.036 39.632H300.858C300.779 38.7072 300.568 37.8682 300.224 37.115C299.894 36.3619 299.431 35.7145 298.837 35.1728C298.255 34.6179 297.548 34.1951 296.716 33.9044C295.884 33.6005 294.939 33.4486 293.882 33.4486C292.032 33.4486 290.467 33.8978 289.185 34.7963C287.917 35.6947 286.952 36.9829 286.291 38.6609C285.644 40.3389 285.32 42.3538 285.32 44.7056C285.32 47.1896 285.651 49.2705 286.311 50.9485C286.985 52.6133 287.956 53.8685 289.225 54.7141C290.493 55.5465 292.019 55.9627 293.803 55.9627C294.82 55.9627 295.732 55.8371 296.538 55.5861C297.344 55.3219 298.044 54.9453 298.639 54.4564C299.233 53.9676 299.715 53.3796 300.085 52.6926C300.468 51.9923 300.726 51.2062 300.858 50.3341L312.036 50.4134C311.904 52.131 311.422 53.8817 310.589 55.6654C309.757 57.4359 308.574 59.0742 307.042 60.5804C305.522 62.0734 303.639 63.2758 301.393 64.1874C299.147 65.0991 296.538 65.5549 293.565 65.5549C289.839 65.5549 286.496 64.7556 283.537 63.1569C280.59 61.5581 278.258 59.2063 276.541 56.1014C274.836 52.9965 273.984 49.1979 273.984 44.7056C273.984 40.187 274.856 36.3818 276.6 33.29C278.344 30.1851 280.696 27.8399 283.656 26.2544C286.615 24.6557 289.918 23.8563 293.565 23.8563C296.128 23.8563 298.487 24.2064 300.64 24.9067C302.794 25.607 304.683 26.6309 306.308 27.9786C307.933 29.3131 309.242 30.958 310.232 32.9135C311.223 34.8689 311.825 37.1084 312.036 39.632ZM315.37 24.4112H327.658L335.586 40.9004H335.903L343.83 24.4112H356.118L341.214 52.2367V65H330.274V52.2367L315.37 24.4112ZM394.769 39.632H383.591C383.512 38.7072 383.301 37.8682 382.957 37.115C382.627 36.3619 382.165 35.7145 381.57 35.1728C380.989 34.6179 380.282 34.1951 379.449 33.9044C378.617 33.6005 377.672 33.4486 376.615 33.4486C374.766 33.4486 373.2 33.8978 371.918 34.7963C370.65 35.6947 369.685 36.9829 369.025 38.6609C368.377 40.3389 368.054 42.3538 368.054 44.7056C368.054 47.1896 368.384 49.2705 369.045 50.9485C369.718 52.6133 370.689 53.8685 371.958 54.7141C373.226 55.5465 374.752 55.9627 376.536 55.9627C377.553 55.9627 378.465 55.8371 379.271 55.5861C380.077 55.3219 380.777 54.9453 381.372 54.4564C381.966 53.9676 382.449 53.3796 382.819 52.6926C383.202 51.9923 383.459 51.2062 383.591 50.3341L394.769 50.4134C394.637 52.131 394.155 53.8817 393.322 55.6654C392.49 57.4359 391.308 59.0742 389.775 60.5804C388.255 62.0734 386.373 63.2758 384.127 64.1874C381.88 65.0991 379.271 65.5549 376.298 65.5549C372.572 65.5549 369.23 64.7556 366.27 63.1569C363.324 61.5581 360.992 59.2063 359.274 56.1014C357.569 52.9965 356.717 49.1979 356.717 44.7056C356.717 40.187 357.589 36.3818 359.333 33.29C361.077 30.1851 363.429 27.8399 366.389 26.2544C369.348 24.6557 372.652 23.8563 376.298 23.8563C378.861 23.8563 381.22 24.2064 383.373 24.9067C385.527 25.607 387.417 26.6309 389.042 27.9786C390.667 29.3131 391.975 30.958 392.966 32.9135C393.957 34.8689 394.558 37.1084 394.769 39.632ZM399.769 65V24.4112H410.788V56.1212H427.198V65H399.769ZM442.195 65H430.304L443.702 24.4112H458.764L472.161 65H460.27L451.391 35.589H451.074L442.195 65ZM439.976 48.9865H462.331V57.2311H439.976V48.9865ZM476.071 65V24.4112H493.67C496.761 24.4112 499.358 24.8274 501.458 25.6598C503.572 26.4922 505.165 27.6681 506.235 29.1876C507.318 30.707 507.86 32.4973 507.86 34.5584C507.86 36.0514 507.53 37.4123 506.869 38.6411C506.222 39.8699 505.31 40.9004 504.134 41.7328C502.958 42.552 501.584 43.1201 500.012 43.4372V43.8336C501.756 43.8997 503.341 44.3423 504.768 45.1615C506.195 45.9674 507.331 47.0839 508.177 48.5108C509.023 49.9246 509.445 51.5893 509.445 53.5051C509.445 55.7248 508.864 57.7001 507.701 59.4309C506.552 61.1618 504.913 62.5227 502.786 63.5136C500.659 64.5045 498.122 65 495.176 65H476.071ZM487.09 56.2005H492.243C494.092 56.2005 495.48 55.857 496.405 55.1699C497.33 54.4696 497.792 53.4391 497.792 52.0782C497.792 51.1269 497.574 50.3209 497.138 49.6603C496.702 48.9997 496.081 48.4976 495.275 48.1541C494.482 47.8106 493.524 47.6388 492.401 47.6388H487.09V56.2005ZM487.09 40.8212H491.609C492.573 40.8212 493.425 40.6692 494.165 40.3653C494.905 40.0614 495.48 39.6254 495.889 39.0573C496.312 38.4759 496.524 37.7691 496.524 36.9367C496.524 35.6815 496.074 34.7236 495.176 34.063C494.277 33.3891 493.141 33.0522 491.767 33.0522H487.09V40.8212ZM513.35 65V24.4112H524.369V56.1212H540.779V65H513.35ZM545.233 65V24.4112H574.485V33.29H556.252V40.2662H572.979V49.145H556.252V56.1212H574.406V65H545.233ZM601.83 37.0952C601.725 35.774 601.229 34.7434 600.344 34.0035C599.472 33.2636 598.144 32.8937 596.36 32.8937C595.224 32.8937 594.293 33.0324 593.566 33.3099C592.852 33.5741 592.324 33.9374 591.98 34.3999C591.637 34.8623 591.459 35.3908 591.445 35.9854C591.419 36.4742 591.505 36.9169 591.703 37.3132C591.914 37.6964 592.245 38.0465 592.694 38.3636C593.143 38.6675 593.718 38.945 594.418 39.196C595.118 39.4471 595.951 39.6717 596.915 39.8699L600.245 40.5833C602.491 41.059 604.413 41.6866 606.012 42.4661C607.611 43.2456 608.919 44.1639 609.936 45.2209C610.954 46.2647 611.7 47.4406 612.176 48.7486C612.665 50.0567 612.916 51.4836 612.929 53.0295C612.916 55.6984 612.248 57.9577 610.927 59.8075C609.606 61.6572 607.717 63.0644 605.259 64.0289C602.815 64.9934 599.875 65.4756 596.44 65.4756C592.912 65.4756 589.833 64.9538 587.204 63.91C584.588 62.8662 582.553 61.2609 581.1 59.094C579.66 56.914 578.933 54.1261 578.92 50.7305H589.384C589.45 51.9725 589.761 53.0163 590.316 53.8619C590.871 54.7075 591.65 55.3483 592.654 55.7843C593.672 56.2203 594.881 56.4383 596.281 56.4383C597.457 56.4383 598.441 56.293 599.234 56.0023C600.027 55.7116 600.628 55.3086 601.038 54.7934C601.447 54.2781 601.659 53.6901 601.672 53.0295C601.659 52.4085 601.454 51.8668 601.057 51.4044C600.674 50.9287 600.04 50.5059 599.155 50.136C598.27 49.7528 597.074 49.3961 595.568 49.0657L591.525 48.1937C587.931 47.4142 585.097 46.1128 583.022 44.2894C580.961 42.4529 579.937 39.9491 579.95 36.7781C579.937 34.2017 580.624 31.949 582.012 30.0199C583.412 28.0777 585.348 26.5649 587.819 25.4815C590.302 24.398 593.15 23.8563 596.36 23.8563C599.637 23.8563 602.471 24.4046 604.863 25.5013C607.254 26.5979 609.097 28.1438 610.392 30.1389C611.7 32.1207 612.361 34.4395 612.374 37.0952H601.83Z" fill="#9493F8"/>
<rect y="79" width="437" height="66" rx="33" fill="#9493F8"/>
<path d="M30.6161 132.5V91.9109H48.2153C51.307 91.9109 53.9033 92.3271 56.0041 93.1595C58.1181 93.9919 59.7102 95.1678 60.7805 96.6873C61.8639 98.2067 62.4056 99.997 62.4056 102.058C62.4056 103.551 62.0753 104.912 61.4147 106.141C60.7672 107.37 59.8556 108.4 58.6796 109.233C57.5037 110.052 56.1296 110.62 54.5573 110.937V111.333C56.3014 111.399 57.8869 111.842 59.3139 112.661C60.7408 113.467 61.8771 114.584 62.7227 116.011C63.5683 117.424 63.9911 119.089 63.9911 121.005C63.9911 123.225 63.4098 125.2 62.247 126.931C61.0976 128.662 59.4592 130.023 57.332 131.014C55.2047 132.005 52.6679 132.5 49.7215 132.5H30.6161ZM41.6354 123.7H46.7883C48.6381 123.7 50.0254 123.357 50.9503 122.67C51.8752 121.97 52.3376 120.939 52.3376 119.578C52.3376 118.627 52.1196 117.821 51.6836 117.16C51.2476 116.5 50.6266 115.997 49.8206 115.654C49.0278 115.31 48.0699 115.139 46.9469 115.139H41.6354V123.7ZM41.6354 108.321H46.1541C47.1186 108.321 47.9708 108.169 48.7107 107.865C49.4506 107.561 50.0254 107.125 50.435 106.557C50.8578 105.976 51.0692 105.269 51.0692 104.436C51.0692 103.181 50.62 102.223 49.7215 101.563C48.8231 100.889 47.6868 100.552 46.3127 100.552H41.6354V108.321ZM65.6725 91.9109H77.9603L85.8878 108.4H86.2049L94.1325 91.9109H106.42L91.5164 119.737V132.5H80.5763V119.737L65.6725 91.9109ZM120.015 132.5V91.9109H131.034V123.621H147.444V132.5H120.015ZM189.08 112.205C189.08 116.724 188.202 120.536 186.444 123.641C184.687 126.733 182.315 129.078 179.329 130.677C176.343 132.262 173.014 133.055 169.341 133.055C165.641 133.055 162.298 132.256 159.312 130.657C156.339 129.045 153.974 126.693 152.217 123.601C150.473 120.496 149.601 116.698 149.601 112.205C149.601 107.687 150.473 103.882 152.217 100.79C153.974 97.6848 156.339 95.3396 159.312 93.7541C162.298 92.1553 165.641 91.356 169.341 91.356C173.014 91.356 176.343 92.1553 179.329 93.7541C182.315 95.3396 184.687 97.6848 186.444 100.79C188.202 103.882 189.08 107.687 189.08 112.205ZM177.744 112.205C177.744 109.774 177.42 107.726 176.773 106.062C176.138 104.384 175.194 103.115 173.939 102.256C172.697 101.384 171.164 100.948 169.341 100.948C167.517 100.948 165.978 101.384 164.723 102.256C163.481 103.115 162.536 104.384 161.889 106.062C161.254 107.726 160.937 109.774 160.937 112.205C160.937 114.637 161.254 116.691 161.889 118.369C162.536 120.034 163.481 121.302 164.723 122.174C165.978 123.033 167.517 123.463 169.341 123.463C171.164 123.463 172.697 123.033 173.939 122.174C175.194 121.302 176.138 120.034 176.773 118.369C177.42 116.691 177.744 114.637 177.744 112.205ZM231.514 107.132H220.336C220.257 106.207 220.046 105.368 219.702 104.615C219.372 103.862 218.909 103.214 218.315 102.673C217.734 102.118 217.027 101.695 216.194 101.404C215.362 101.1 214.417 100.948 213.36 100.948C211.51 100.948 209.945 101.398 208.663 102.296C207.395 103.194 206.43 104.483 205.77 106.161C205.122 107.839 204.798 109.854 204.798 112.205C204.798 114.689 205.129 116.77 205.789 118.448C206.463 120.113 207.434 121.368 208.703 122.214C209.971 123.046 211.497 123.463 213.281 123.463C214.298 123.463 215.21 123.337 216.016 123.086C216.822 122.822 217.522 122.445 218.117 121.956C218.711 121.467 219.194 120.88 219.563 120.192C219.947 119.492 220.204 118.706 220.336 117.834L231.514 117.913C231.382 119.631 230.9 121.382 230.067 123.165C229.235 124.936 228.053 126.574 226.52 128.08C225 129.573 223.118 130.776 220.872 131.687C218.625 132.599 216.016 133.055 213.043 133.055C209.317 133.055 205.974 132.256 203.015 130.657C200.068 129.058 197.736 126.706 196.019 123.601C194.314 120.496 193.462 116.698 193.462 112.205C193.462 107.687 194.334 103.882 196.078 100.79C197.822 97.6848 200.174 95.3396 203.134 93.7541C206.093 92.1553 209.396 91.356 213.043 91.356C215.606 91.356 217.965 91.7061 220.118 92.4064C222.272 93.1066 224.161 94.1306 225.787 95.4783C227.412 96.8128 228.72 98.4577 229.711 100.413C230.702 102.369 231.303 104.608 231.514 107.132ZM245.246 132.5H233.354L246.752 91.9109H261.814L275.212 132.5H263.32L254.442 103.089H254.124L245.246 132.5ZM243.026 116.486H265.382V124.731H243.026V116.486ZM272.33 100.79V91.9109H307.608V100.79H295.399V132.5H284.538V100.79H272.33ZM322.216 91.9109V132.5H311.197V91.9109H322.216ZM366.201 112.205C366.201 116.724 365.322 120.536 363.565 123.641C361.808 126.733 359.436 129.078 356.45 130.677C353.464 132.262 350.134 133.055 346.461 133.055C342.762 133.055 339.419 132.256 336.433 130.657C333.46 129.045 331.095 126.693 329.338 123.601C327.593 120.496 326.721 116.698 326.721 112.205C326.721 107.687 327.593 103.882 329.338 100.79C331.095 97.6848 333.46 95.3396 336.433 93.7541C339.419 92.1553 342.762 91.356 346.461 91.356C350.134 91.356 353.464 92.1553 356.45 93.7541C359.436 95.3396 361.808 97.6848 363.565 100.79C365.322 103.882 366.201 107.687 366.201 112.205ZM354.864 112.205C354.864 109.774 354.541 107.726 353.893 106.062C353.259 104.384 352.314 103.115 351.059 102.256C349.817 101.384 348.284 100.948 346.461 100.948C344.638 100.948 343.098 101.384 341.843 102.256C340.601 103.115 339.657 104.384 339.009 106.062C338.375 107.726 338.058 109.774 338.058 112.205C338.058 114.637 338.375 116.691 339.009 118.369C339.657 120.034 340.601 121.302 341.843 122.174C343.098 123.033 344.638 123.463 346.461 123.463C348.284 123.463 349.817 123.033 351.059 122.174C352.314 121.302 353.259 120.034 353.893 118.369C354.541 116.691 354.864 114.637 354.864 112.205ZM405.86 91.9109V132.5H396.664L381.998 111.175H381.76V132.5H370.741V91.9109H380.096L394.524 113.157H394.841V91.9109H405.86Z" fill="white"/>
</svg>
