<svg width="261" height="89" viewBox="0 0 261 89" fill="none" xmlns="http://www.w3.org/2000/svg">
<path d="M26.775 24.4112H37.7943V50.4134C37.7943 53.5051 37.0544 56.1807 35.5746 58.44C34.108 60.6861 32.06 62.4236 29.4308 63.6523C26.8015 64.8679 23.7494 65.4756 20.2745 65.4756C16.7732 65.4756 13.7079 64.8679 11.0786 63.6523C8.44933 62.4236 6.40139 60.6861 4.9348 58.44C3.48143 56.1807 2.75474 53.5051 2.75474 50.4134V24.4112H13.774V49.4621C13.774 50.7173 14.0514 51.8404 14.6063 52.8313C15.1613 53.809 15.9276 54.5753 16.9053 55.1303C17.8963 55.6852 19.0193 55.9627 20.2745 55.9627C21.5429 55.9627 22.666 55.6852 23.6437 55.1303C24.6214 54.5753 25.3877 53.809 25.9427 52.8313C26.4976 51.8404 26.775 50.7173 26.775 49.4621V24.4112ZM64.9112 37.0952C64.8055 35.774 64.3101 34.7434 63.4248 34.0035C62.5528 33.2636 61.2249 32.8937 59.4413 32.8937C58.305 32.8937 57.3735 33.0324 56.6468 33.3099C55.9333 33.5741 55.4048 33.9374 55.0613 34.3999C54.7178 34.8623 54.5394 35.3908 54.5262 35.9854C54.4998 36.4742 54.5857 36.9169 54.7839 37.3132C54.9953 37.6964 55.3256 38.0465 55.7748 38.3636C56.224 38.6675 56.7988 38.945 57.499 39.196C58.1993 39.4471 59.0317 39.6717 59.9962 39.8699L63.3257 40.5833C65.5719 41.059 67.4943 41.6866 69.093 42.4661C70.6917 43.2456 71.9997 44.1639 73.0171 45.2209C74.0345 46.2647 74.781 47.4406 75.2566 48.7486C75.7455 50.0567 75.9965 51.4836 76.0097 53.0295C75.9965 55.6984 75.3293 57.9577 74.008 59.8075C72.6868 61.6572 70.7974 63.0644 68.3399 64.0289C65.8956 64.9934 62.9558 65.4756 59.5205 65.4756C55.9928 65.4756 52.9143 64.9538 50.285 63.91C47.6689 62.8662 45.6342 61.2609 44.1808 59.094C42.7407 56.914 42.014 54.1261 42.0008 50.7305H52.4651C52.5311 51.9725 52.8416 53.0163 53.3966 53.8619C53.9515 54.7075 54.731 55.3483 55.7352 55.7843C56.7525 56.2203 57.9615 56.4383 59.362 56.4383C60.5379 56.4383 61.5222 56.293 62.315 56.0023C63.1077 55.7116 63.7089 55.3086 64.1185 54.7934C64.5281 54.2781 64.7395 53.6901 64.7527 53.0295C64.7395 52.4085 64.5347 51.8668 64.1383 51.4044C63.7551 50.9287 63.1209 50.5059 62.2357 50.136C61.3505 49.7528 60.1547 49.3961 58.6485 49.0657L54.6055 48.1937C51.0117 47.4142 48.1776 46.1128 46.1033 44.2894C44.0421 42.4529 43.0181 39.9491 43.0314 36.7781C43.0181 34.2017 43.7052 31.949 45.0925 30.0199C46.493 28.0777 48.4287 26.5649 50.8994 25.4815C53.3833 24.398 56.2306 23.8563 59.4413 23.8563C62.718 23.8563 65.552 24.4046 67.9435 25.5013C70.335 26.5979 72.1781 28.1438 73.4729 30.1389C74.781 32.1207 75.4416 34.4395 75.4548 37.0952H64.9112ZM80.2014 65V24.4112H109.454V33.29H91.2206V40.2662H107.948V49.145H91.2206V56.1212H109.375V65H80.2014ZM114.919 65V24.4112H132.439C135.451 24.4112 138.087 24.9596 140.346 26.0562C142.606 27.1528 144.363 28.7317 145.618 30.7929C146.873 32.854 147.501 35.3248 147.501 38.2051C147.501 41.1118 146.853 43.5627 145.559 45.5578C144.277 47.5529 142.473 49.0591 140.148 50.0765C137.836 51.0939 135.134 51.6025 132.042 51.6025H121.578V43.0408H129.823C131.117 43.0408 132.221 42.8823 133.132 42.5652C134.057 42.2349 134.764 41.713 135.253 40.9995C135.755 40.286 136.006 39.3546 136.006 38.2051C136.006 37.0424 135.755 36.0977 135.253 35.371C134.764 34.6311 134.057 34.0894 133.132 33.7459C132.221 33.3891 131.117 33.2108 129.823 33.2108H125.938V65H114.919ZM138.701 46.3704L148.849 65H136.878L126.969 46.3704H138.701ZM174.078 37.0952C173.972 35.774 173.477 34.7434 172.591 34.0035C171.719 33.2636 170.391 32.8937 168.608 32.8937C167.471 32.8937 166.54 33.0324 165.813 33.3099C165.1 33.5741 164.571 33.9374 164.228 34.3999C163.884 34.8623 163.706 35.3908 163.693 35.9854C163.666 36.4742 163.752 36.9169 163.95 37.3132C164.162 37.6964 164.492 38.0465 164.941 38.3636C165.391 38.6675 165.965 38.945 166.666 39.196C167.366 39.4471 168.198 39.6717 169.163 39.8699L172.492 40.5833C174.738 41.059 176.661 41.6866 178.259 42.4661C179.858 43.2456 181.166 44.1639 182.184 45.2209C183.201 46.2647 183.947 47.4406 184.423 48.7486C184.912 50.0567 185.163 51.4836 185.176 53.0295C185.163 55.6984 184.496 57.9577 183.175 59.8075C181.853 61.6572 179.964 63.0644 177.506 64.0289C175.062 64.9934 172.122 65.4756 168.687 65.4756C165.159 65.4756 162.081 64.9538 159.452 63.91C156.835 62.8662 154.801 61.2609 153.347 59.094C151.907 56.914 151.18 54.1261 151.167 50.7305H161.632C161.698 51.9725 162.008 53.0163 162.563 53.8619C163.118 54.7075 163.898 55.3483 164.902 55.7843C165.919 56.2203 167.128 56.4383 168.528 56.4383C169.704 56.4383 170.689 56.293 171.481 56.0023C172.274 55.7116 172.875 55.3086 173.285 54.7934C173.695 54.2781 173.906 53.6901 173.919 53.0295C173.906 52.4085 173.701 51.8668 173.305 51.4044C172.922 50.9287 172.287 50.5059 171.402 50.136C170.517 49.7528 169.321 49.3961 167.815 49.0657L163.772 48.1937C160.178 47.4142 157.344 46.1128 155.27 44.2894C153.209 42.4529 152.185 39.9491 152.198 36.7781C152.185 34.2017 152.872 31.949 154.259 30.0199C155.66 28.0777 157.595 26.5649 160.066 25.4815C162.55 24.398 165.397 23.8563 168.608 23.8563C171.884 23.8563 174.719 24.4046 177.11 25.5013C179.501 26.5979 181.345 28.1438 182.639 30.1389C183.947 32.1207 184.608 34.4395 184.621 37.0952H174.078Z" fill="#9493F8"/>
</svg>
