<svg width="231" height="231" viewBox="0 0 231 231" fill="none" xmlns="http://www.w3.org/2000/svg">
<rect x="0.196594" y="0.0935059" width="230.77" height="230.767" rx="15" fill="#9691FF"/>
<path d="M153.916 95.6459C166.67 95.6459 177.047 85.2691 177.047 72.5117C177.047 59.7573 166.67 49.3805 153.916 49.3805C141.161 49.3805 130.784 59.7573 130.784 72.5117C130.784 85.2691 141.161 95.6459 153.916 95.6459Z" fill="#9691FF" stroke="white" stroke-width="6"/>
<path d="M113.687 136.158V153.327H194.145V136.158C194.145 113.976 176.097 95.9288 153.916 95.9288C131.735 95.9288 113.687 113.976 113.687 136.158Z" fill="#9691FF" stroke="white" stroke-width="6"/>
<path d="M84.9771 117.823C100.182 117.823 112.553 105.452 112.553 90.2435C112.553 75.0382 100.182 62.6674 84.9771 62.6674C69.7718 62.6674 57.401 75.0382 57.401 90.2435C57.401 105.452 69.7718 117.823 84.9771 117.823Z" fill="#9691FF" stroke="white" stroke-width="6"/>
<path d="M37.0184 166.12V186.588H132.937V166.12C132.937 139.676 111.421 118.161 84.9775 118.161C58.5338 118.161 37.0184 139.676 37.0184 166.12Z" fill="#9691FF" stroke="white" stroke-width="6"/>
</svg>
