<svg width="321" height="42" viewBox="0 0 321 42" fill="none" xmlns="http://www.w3.org/2000/svg">
<path d="M29.8919 11.6892H33.6898V23.355C33.6898 24.6649 33.377 25.811 32.7513 26.7934C32.1315 27.7758 31.2631 28.5418 30.1462 29.0915C29.0293 29.6353 27.7283 29.9072 26.243 29.9072C24.7519 29.9072 23.4479 29.6353 22.331 29.0915C21.2141 28.5418 20.3458 27.7758 19.7259 26.7934C19.1061 25.811 18.7962 24.6649 18.7962 23.355V11.6892H22.5941V23.0305C22.5941 23.7147 22.7432 24.3228 23.0415 24.8549C23.3455 25.3871 23.7724 25.8052 24.3221 26.1092C24.8717 26.4133 25.5121 26.5653 26.243 26.5653C26.9798 26.5653 27.6201 26.4133 28.1639 26.1092C28.7136 25.8052 29.1375 25.3871 29.4358 24.8549C29.7398 24.3228 29.8919 23.7147 29.8919 23.0305V11.6892ZM47.9542 20.0219L44.5334 20.2324C44.4749 19.9401 44.3492 19.6769 44.1562 19.443C43.9632 19.2033 43.7089 19.0132 43.3931 18.8729C43.0832 18.7267 42.7119 18.6536 42.2791 18.6536C41.7002 18.6536 41.212 18.7764 40.8143 19.022C40.4167 19.2618 40.2179 19.5834 40.2179 19.9869C40.2179 20.3085 40.3465 20.5804 40.6038 20.8026C40.8611 21.0248 41.3026 21.2031 41.9283 21.3376L44.3667 21.8288C45.6766 22.0978 46.6531 22.5305 47.2963 23.127C47.9396 23.7234 48.2612 24.507 48.2612 25.4777C48.2612 26.3607 48.001 27.1355 47.4805 27.8021C46.9659 28.4687 46.2584 28.9891 45.3579 29.3634C44.4632 29.7318 43.4311 29.916 42.2616 29.916C40.4781 29.916 39.0571 29.5447 37.9987 28.802C36.9462 28.0535 36.3293 27.0361 36.148 25.7496L39.8232 25.5566C39.9343 26.1005 40.2033 26.5156 40.6301 26.8022C41.057 27.0828 41.6037 27.2232 42.2704 27.2232C42.9253 27.2232 43.4516 27.0975 43.8492 26.846C44.2527 26.5887 44.4573 26.2583 44.4632 25.8549C44.4573 25.5157 44.3141 25.2379 44.0334 25.0216C43.7527 24.7994 43.32 24.6298 42.7352 24.5128L40.4021 24.048C39.0864 23.7848 38.1069 23.3287 37.4637 22.6796C36.8263 22.0306 36.5076 21.2031 36.5076 20.1974C36.5076 19.3319 36.7415 18.5864 37.2093 17.9607C37.683 17.335 38.3467 16.8526 39.2004 16.5134C40.06 16.1743 41.0658 16.0047 42.2177 16.0047C43.9194 16.0047 45.2585 16.3643 46.235 17.0835C47.2174 17.8028 47.7904 18.7823 47.9542 20.0219ZM56.754 29.916C55.3681 29.916 54.1752 29.6353 53.1753 29.0739C52.1812 28.5067 51.4152 27.7056 50.8772 26.6706C50.3392 25.6297 50.0703 24.3988 50.0703 22.9779C50.0703 21.592 50.3392 20.3757 50.8772 19.329C51.4152 18.2823 52.1724 17.4666 53.149 16.8818C54.1314 16.2971 55.2833 16.0047 56.6049 16.0047C57.4937 16.0047 58.3211 16.1479 59.0872 16.4345C59.859 16.7152 60.5315 17.1391 61.1046 17.7063C61.6835 18.2735 62.1337 18.9869 62.4553 19.8465C62.777 20.7003 62.9378 21.7002 62.9378 22.8463V23.8725H51.5614V21.5569H59.4205C59.4205 21.0189 59.3035 20.5424 59.0696 20.1272C58.8357 19.712 58.5112 19.3875 58.096 19.1536C57.6867 18.9138 57.2101 18.794 56.6663 18.794C56.0991 18.794 55.5962 18.9255 55.1576 19.1887C54.7249 19.446 54.3857 19.7939 54.1401 20.2324C53.8945 20.6652 53.7688 21.1476 53.763 21.6797V23.8813C53.763 24.5479 53.8858 25.1239 54.1314 25.6093C54.3828 26.0946 54.7366 26.4688 55.1927 26.732C55.6488 26.9951 56.1897 27.1267 56.8154 27.1267C57.2306 27.1267 57.6107 27.0682 57.9557 26.9513C58.3007 26.8343 58.596 26.6589 58.8416 26.425C59.0872 26.1911 59.2743 25.9046 59.4029 25.5654L62.8588 25.7935C62.6834 26.6238 62.3238 27.3489 61.7799 27.9687C61.242 28.5827 60.5461 29.0622 59.6924 29.4072C58.8445 29.7464 57.865 29.916 56.754 29.916ZM65.3762 29.6528V16.1801H68.9987V18.5308H69.1391C69.3847 17.6946 69.7969 17.0631 70.3758 16.6362C70.9547 16.2035 71.6214 15.9871 72.3757 15.9871C72.5628 15.9871 72.7645 15.9988 72.9809 16.0222C73.1973 16.0456 73.3873 16.0778 73.551 16.1187V19.4343C73.3756 19.3816 73.1329 19.3349 72.823 19.2939C72.5131 19.253 72.2295 19.2325 71.9722 19.2325C71.4225 19.2325 70.9313 19.3524 70.4986 19.5921C70.0718 19.826 69.7326 20.1535 69.4812 20.5745C69.2356 20.9956 69.1128 21.4809 69.1128 22.0306V29.6528H65.3762ZM86.6927 20.0219L83.2718 20.2324C83.2134 19.9401 83.0876 19.6769 82.8947 19.443C82.7017 19.2033 82.4473 19.0132 82.1316 18.8729C81.8217 18.7267 81.4503 18.6536 81.0176 18.6536C80.4387 18.6536 79.9504 18.7764 79.5528 19.022C79.1552 19.2618 78.9564 19.5834 78.9564 19.9869C78.9564 20.3085 79.085 20.5804 79.3423 20.8026C79.5996 21.0248 80.0411 21.2031 80.6668 21.3376L83.1052 21.8288C84.415 22.0978 85.3916 22.5305 86.0348 23.127C86.678 23.7234 86.9996 24.507 86.9996 25.4777C86.9996 26.3607 86.7394 27.1355 86.219 27.8021C85.7044 28.4687 84.9969 28.9891 84.0963 29.3634C83.2017 29.7318 82.1696 29.916 81.0001 29.916C79.2166 29.916 77.7956 29.5447 76.7372 28.802C75.6847 28.0535 75.0677 27.0361 74.8865 25.7496L78.5616 25.5566C78.6728 26.1005 78.9417 26.5156 79.3686 26.8022C79.7955 27.0828 80.3422 27.2232 81.0088 27.2232C81.6638 27.2232 82.19 27.0975 82.5877 26.846C82.9912 26.5887 83.1958 26.2583 83.2017 25.8549C83.1958 25.5157 83.0526 25.2379 82.7719 25.0216C82.4912 24.7994 82.0585 24.6298 81.4737 24.5128L79.1406 24.048C77.8249 23.7848 76.8454 23.3287 76.2022 22.6796C75.5648 22.0306 75.2461 21.2031 75.2461 20.1974C75.2461 19.3319 75.48 18.5864 75.9478 17.9607C76.4215 17.335 77.0851 16.8526 77.9389 16.5134C78.7985 16.1743 79.8043 16.0047 80.9562 16.0047C82.6579 16.0047 83.9969 16.3643 84.9735 17.0835C85.9559 17.8028 86.5289 18.7823 86.6927 20.0219ZM95.0692 16.1801H98.8058V30.3195C98.8058 31.3603 98.6012 32.2024 98.1918 32.8456C97.7825 33.4888 97.1948 33.9595 96.4288 34.2578C95.6686 34.556 94.7593 34.7051 93.7009 34.7051C93.5723 34.7051 93.4495 34.7022 93.3325 34.6963C93.2097 34.6963 93.0811 34.6934 92.9466 34.6876V31.7667C93.046 31.7726 93.1337 31.7755 93.2097 31.7755C93.2799 31.7813 93.3559 31.7843 93.4378 31.7843C94.0401 31.7843 94.4611 31.6556 94.7009 31.3983C94.9464 31.1469 95.0692 30.7668 95.0692 30.2581V16.1801ZM96.9288 14.4434C96.3791 14.4434 95.9054 14.2592 95.5078 13.8908C95.1102 13.5166 94.9114 13.0692 94.9114 12.5488C94.9114 12.0342 95.1102 11.5927 95.5078 11.2243C95.9054 10.8501 96.3791 10.663 96.9288 10.663C97.4901 10.663 97.9667 10.8501 98.3585 11.2243C98.7561 11.5927 98.9549 12.0342 98.9549 12.5488C98.9549 13.0692 98.7561 13.5166 98.3585 13.8908C97.9667 14.2592 97.4901 14.4434 96.9288 14.4434ZM107.886 29.916C106.524 29.916 105.346 29.6265 104.351 29.0476C103.363 28.4629 102.6 27.6501 102.062 26.6092C101.524 25.5625 101.255 24.3491 101.255 22.9691C101.255 21.5774 101.524 20.3611 102.062 19.3202C102.6 18.2735 103.363 17.4607 104.351 16.8818C105.346 16.2971 106.524 16.0047 107.886 16.0047C109.249 16.0047 110.424 16.2971 111.412 16.8818C112.406 17.4607 113.172 18.2735 113.71 19.3202C114.248 20.3611 114.517 21.5774 114.517 22.9691C114.517 24.3491 114.248 25.5625 113.71 26.6092C113.172 27.6501 112.406 28.4629 111.412 29.0476C110.424 29.6265 109.249 29.916 107.886 29.916ZM107.904 27.0214C108.524 27.0214 109.041 26.846 109.456 26.4952C109.872 26.1385 110.184 25.6531 110.395 25.0391C110.611 24.4251 110.719 23.7264 110.719 22.9428C110.719 22.1592 110.611 21.4604 110.395 20.8464C110.184 20.2324 109.872 19.7471 109.456 19.3904C109.041 19.0337 108.524 18.8554 107.904 18.8554C107.278 18.8554 106.752 19.0337 106.325 19.3904C105.904 19.7471 105.585 20.2324 105.369 20.8464C105.158 21.4604 105.053 22.1592 105.053 22.9428C105.053 23.7264 105.158 24.4251 105.369 25.0391C105.585 25.6531 105.904 26.1385 106.325 26.4952C106.752 26.846 107.278 27.0214 107.904 27.0214ZM116.947 29.6528V16.1801H120.684V29.6528H116.947ZM118.824 14.4434C118.269 14.4434 117.792 14.2592 117.394 13.8908C117.003 13.5166 116.807 13.0692 116.807 12.5488C116.807 12.0342 117.003 11.5927 117.394 11.2243C117.792 10.8501 118.269 10.663 118.824 10.663C119.38 10.663 119.853 10.8501 120.245 11.2243C120.643 11.5927 120.842 12.0342 120.842 12.5488C120.842 13.0692 120.643 13.5166 120.245 13.8908C119.853 14.2592 119.38 14.4434 118.824 14.4434ZM127.413 21.8639V29.6528H123.677V16.1801H127.238V18.5571H127.396C127.694 17.7736 128.194 17.1537 128.896 16.6976C129.597 16.2357 130.448 16.0047 131.448 16.0047C132.384 16.0047 133.2 16.2093 133.895 16.6187C134.591 17.028 135.132 17.6128 135.518 18.3729C135.904 19.1273 136.097 20.0278 136.097 21.0745V29.6528H132.36V21.7411C132.366 20.9166 132.156 20.2734 131.729 19.8114C131.302 19.3436 130.714 19.1097 129.966 19.1097C129.463 19.1097 129.019 19.2179 128.633 19.4343C128.253 19.6506 127.954 19.9664 127.738 20.3816C127.527 20.7909 127.419 21.285 127.413 21.8639ZM145.182 29.916C143.796 29.916 142.603 29.6353 141.603 29.0739C140.609 28.5067 139.843 27.7056 139.305 26.6706C138.767 25.6297 138.498 24.3988 138.498 22.9779C138.498 21.592 138.767 20.3757 139.305 19.329C139.843 18.2823 140.6 17.4666 141.577 16.8818C142.559 16.2971 143.711 16.0047 145.033 16.0047C145.922 16.0047 146.749 16.1479 147.515 16.4345C148.287 16.7152 148.959 17.1391 149.532 17.7063C150.111 18.2735 150.562 18.9869 150.883 19.8465C151.205 20.7003 151.366 21.7002 151.366 22.8463V23.8725H139.989V21.5569H147.848C147.848 21.0189 147.731 20.5424 147.498 20.1272C147.264 19.712 146.939 19.3875 146.524 19.1536C146.115 18.9138 145.638 18.794 145.094 18.794C144.527 18.794 144.024 18.9255 143.586 19.1887C143.153 19.446 142.814 19.7939 142.568 20.2324C142.322 20.6652 142.197 21.1476 142.191 21.6797V23.8813C142.191 24.5479 142.314 25.1239 142.559 25.6093C142.811 26.0946 143.165 26.4688 143.621 26.732C144.077 26.9951 144.618 27.1267 145.243 27.1267C145.658 27.1267 146.039 27.0682 146.384 26.9513C146.729 26.8343 147.024 26.6589 147.269 26.425C147.515 26.1911 147.702 25.9046 147.831 25.5654L151.287 25.7935C151.111 26.6238 150.752 27.3489 150.208 27.9687C149.67 28.5827 148.974 29.0622 148.12 29.4072C147.272 29.7464 146.293 29.916 145.182 29.916ZM158.769 29.8721C157.745 29.8721 156.819 29.609 155.988 29.0827C155.164 28.5506 154.509 27.7699 154.023 26.7408C153.544 25.7057 153.304 24.4368 153.304 22.934C153.304 21.3903 153.553 20.1067 154.05 19.0834C154.547 18.0542 155.208 17.2853 156.032 16.7766C156.862 16.262 157.772 16.0047 158.76 16.0047C159.514 16.0047 160.143 16.1333 160.646 16.3906C161.154 16.6421 161.564 16.9578 161.874 17.3379C162.189 17.7122 162.429 18.0806 162.593 18.4431H162.707V11.6892H166.435V29.6528H162.751V27.4951H162.593C162.418 27.8693 162.169 28.2407 161.847 28.609C161.532 28.9716 161.119 29.2727 160.611 29.5125C160.108 29.7522 159.494 29.8721 158.769 29.8721ZM159.953 26.8986C160.555 26.8986 161.064 26.7349 161.479 26.4074C161.9 26.0741 162.222 25.6093 162.444 25.0128C162.672 24.4164 162.786 23.7176 162.786 22.9165C162.786 22.1154 162.675 21.4195 162.453 20.8289C162.23 20.2383 161.909 19.7822 161.488 19.4606C161.067 19.139 160.555 18.9782 159.953 18.9782C159.339 18.9782 158.821 19.1448 158.4 19.4781C157.979 19.8114 157.661 20.2734 157.444 20.864C157.228 21.4546 157.12 22.1387 157.12 22.9165C157.12 23.7 157.228 24.393 157.444 24.9953C157.666 25.5917 157.985 26.0595 158.4 26.3987C158.821 26.732 159.339 26.8986 159.953 26.8986ZM178.96 11.6892V29.6528H175.224V11.6892H178.96ZM185.795 29.9072C184.936 29.9072 184.17 29.7581 183.497 29.4599C182.825 29.1558 182.293 28.7085 181.901 28.1179C181.515 27.5214 181.322 26.7788 181.322 25.8899C181.322 25.1415 181.459 24.5128 181.734 24.0041C182.009 23.4954 182.383 23.086 182.857 22.7761C183.331 22.4662 183.869 22.2323 184.471 22.0744C185.079 21.9165 185.716 21.8054 186.383 21.7411C187.167 21.6592 187.798 21.5832 188.278 21.5131C188.757 21.437 189.105 21.3259 189.321 21.1797C189.538 21.0336 189.646 20.8172 189.646 20.5307V20.478C189.646 19.9225 189.47 19.4927 189.12 19.1887C188.775 18.8846 188.283 18.7326 187.646 18.7326C186.974 18.7326 186.438 18.8817 186.041 19.1799C185.643 19.4723 185.38 19.8407 185.251 20.2851L181.796 20.0044C181.971 19.1857 182.316 18.4782 182.831 17.8817C183.345 17.2794 184.009 16.8175 184.822 16.4959C185.64 16.1684 186.588 16.0047 187.664 16.0047C188.412 16.0047 189.128 16.0924 189.813 16.2678C190.503 16.4432 191.114 16.7152 191.646 17.0835C192.184 17.4519 192.608 17.9256 192.918 18.5045C193.227 19.0776 193.382 19.7646 193.382 20.5658V29.6528H189.839V27.7845H189.734C189.517 28.2056 189.228 28.5769 188.865 28.8985C188.503 29.2143 188.067 29.4628 187.558 29.6441C187.05 29.8195 186.462 29.9072 185.795 29.9072ZM186.865 27.3284C187.415 27.3284 187.9 27.2203 188.321 27.0039C188.742 26.7817 189.073 26.4835 189.313 26.1092C189.552 25.735 189.672 25.311 189.672 24.8374V23.4077C189.555 23.4837 189.394 23.5538 189.19 23.6182C188.991 23.6766 188.766 23.7322 188.514 23.7848C188.263 23.8316 188.011 23.8755 187.76 23.9164C187.509 23.9515 187.281 23.9836 187.076 24.0129C186.637 24.0772 186.254 24.1795 185.927 24.3199C185.599 24.4602 185.345 24.6503 185.164 24.89C184.982 25.1239 184.892 25.4163 184.892 25.7671C184.892 26.2759 185.076 26.6647 185.444 26.9337C185.819 27.1969 186.292 27.3284 186.865 27.3284ZM207.491 20.0219L204.07 20.2324C204.012 19.9401 203.886 19.6769 203.693 19.443C203.5 19.2033 203.246 19.0132 202.93 18.8729C202.62 18.7267 202.249 18.6536 201.816 18.6536C201.237 18.6536 200.749 18.7764 200.351 19.022C199.954 19.2618 199.755 19.5834 199.755 19.9869C199.755 20.3085 199.883 20.5804 200.141 20.8026C200.398 21.0248 200.84 21.2031 201.465 21.3376L203.904 21.8288C205.213 22.0978 206.19 22.5305 206.833 23.127C207.476 23.7234 207.798 24.507 207.798 25.4777C207.798 26.3607 207.538 27.1355 207.017 27.8021C206.503 28.4687 205.795 28.9891 204.895 29.3634C204 29.7318 202.968 29.916 201.799 29.916C200.015 29.916 198.594 29.5447 197.536 28.802C196.483 28.0535 195.866 27.0361 195.685 25.7496L199.36 25.5566C199.471 26.1005 199.74 26.5156 200.167 26.8022C200.594 27.0828 201.141 27.2232 201.807 27.2232C202.462 27.2232 202.988 27.0975 203.386 26.846C203.79 26.5887 203.994 26.2583 204 25.8549C203.994 25.5157 203.851 25.2379 203.57 25.0216C203.29 24.7994 202.857 24.6298 202.272 24.5128L199.939 24.048C198.623 23.7848 197.644 23.3287 197.001 22.6796C196.363 22.0306 196.045 21.2031 196.045 20.1974C196.045 19.3319 196.278 18.5864 196.746 17.9607C197.22 17.335 197.884 16.8526 198.737 16.5134C199.597 16.1743 200.603 16.0047 201.755 16.0047C203.456 16.0047 204.795 16.3643 205.772 17.0835C206.754 17.8028 207.327 18.7823 207.491 20.0219ZM217.317 16.1801V18.9869H209.204V16.1801H217.317ZM211.046 12.9523H214.782V25.5128C214.782 25.8578 214.835 26.1268 214.94 26.3197C215.045 26.5069 215.192 26.6384 215.379 26.7144C215.572 26.7905 215.794 26.8285 216.045 26.8285C216.221 26.8285 216.396 26.8139 216.572 26.7846C216.747 26.7495 216.882 26.7232 216.975 26.7057L217.563 29.4862C217.376 29.5447 217.112 29.6119 216.773 29.6879C216.434 29.7698 216.022 29.8195 215.537 29.837C214.636 29.8721 213.847 29.7522 213.168 29.4774C212.496 29.2026 211.972 28.7757 211.598 28.1968C211.224 27.6179 211.04 26.8869 211.046 26.004V12.9523ZM225.468 29.6528V16.1801H229.029V18.5571H229.187C229.468 17.7677 229.935 17.1449 230.59 16.6888C231.245 16.2327 232.029 16.0047 232.941 16.0047C233.865 16.0047 234.651 16.2357 235.301 16.6976C235.95 17.1537 236.382 17.7736 236.599 18.5571H236.739C237.014 17.7853 237.511 17.1683 238.23 16.7064C238.955 16.2386 239.812 16.0047 240.8 16.0047C242.057 16.0047 243.078 16.4052 243.861 17.2063C244.651 18.0016 245.045 19.1302 245.045 20.5921V29.6528H241.318V21.3289C241.318 20.5804 241.119 20.019 240.721 19.6448C240.324 19.2705 239.827 19.0834 239.23 19.0834C238.552 19.0834 238.023 19.2998 237.642 19.7325C237.262 20.1594 237.072 20.7236 237.072 21.4253V29.6528H233.45V21.2499C233.45 20.5891 233.26 20.0629 232.88 19.6711C232.505 19.2793 232.011 19.0834 231.397 19.0834C230.982 19.0834 230.608 19.1887 230.275 19.3992C229.947 19.6038 229.687 19.8933 229.494 20.2675C229.301 20.6359 229.204 21.0686 229.204 21.5657V29.6528H225.468ZM254.084 29.916C252.722 29.916 251.544 29.6265 250.549 29.0476C249.561 28.4629 248.798 27.6501 248.26 26.6092C247.722 25.5625 247.453 24.3491 247.453 22.9691C247.453 21.5774 247.722 20.3611 248.26 19.3202C248.798 18.2735 249.561 17.4607 250.549 16.8818C251.544 16.2971 252.722 16.0047 254.084 16.0047C255.447 16.0047 256.622 16.2971 257.61 16.8818C258.604 17.4607 259.37 18.2735 259.908 19.3202C260.446 20.3611 260.715 21.5774 260.715 22.9691C260.715 24.3491 260.446 25.5625 259.908 26.6092C259.37 27.6501 258.604 28.4629 257.61 29.0476C256.622 29.6265 255.447 29.916 254.084 29.916ZM254.102 27.0214C254.722 27.0214 255.239 26.846 255.654 26.4952C256.07 26.1385 256.382 25.6531 256.593 25.0391C256.809 24.4251 256.917 23.7264 256.917 22.9428C256.917 22.1592 256.809 21.4604 256.593 20.8464C256.382 20.2324 256.07 19.7471 255.654 19.3904C255.239 19.0337 254.722 18.8554 254.102 18.8554C253.476 18.8554 252.95 19.0337 252.523 19.3904C252.102 19.7471 251.783 20.2324 251.567 20.8464C251.356 21.4604 251.251 22.1592 251.251 22.9428C251.251 23.7264 251.356 24.4251 251.567 25.0391C251.783 25.6531 252.102 26.1385 252.523 26.4952C252.95 26.846 253.476 27.0214 254.102 27.0214ZM266.882 21.8639V29.6528H263.145V16.1801H266.706V18.5571H266.864C267.162 17.7736 267.662 17.1537 268.364 16.6976C269.066 16.2357 269.916 16.0047 270.916 16.0047C271.852 16.0047 272.668 16.2093 273.364 16.6187C274.059 17.028 274.6 17.6128 274.986 18.3729C275.372 19.1273 275.565 20.0278 275.565 21.0745V29.6528H271.829V21.7411C271.834 20.9166 271.624 20.2734 271.197 19.8114C270.77 19.3436 270.183 19.1097 269.434 19.1097C268.931 19.1097 268.487 19.2179 268.101 19.4343C267.721 19.6506 267.423 19.9664 267.206 20.3816C266.996 20.7909 266.887 21.285 266.882 21.8639ZM285.676 16.1801V18.9869H277.563V16.1801H285.676ZM279.405 12.9523H283.141V25.5128C283.141 25.8578 283.194 26.1268 283.299 26.3197C283.405 26.5069 283.551 26.6384 283.738 26.7144C283.931 26.7905 284.153 26.8285 284.404 26.8285C284.58 26.8285 284.755 26.8139 284.931 26.7846C285.106 26.7495 285.241 26.7232 285.334 26.7057L285.922 29.4862C285.735 29.5447 285.472 29.6119 285.133 29.6879C284.793 29.7698 284.381 29.8195 283.896 29.837C282.995 29.8721 282.206 29.7522 281.527 29.4774C280.855 29.2026 280.332 28.7757 279.957 28.1968C279.583 27.6179 279.399 26.8869 279.405 26.004V12.9523ZM292.136 21.8639V29.6528H288.4V11.6892H292.031V18.5571H292.189C292.493 17.7619 292.984 17.1391 293.663 16.6888C294.341 16.2327 295.192 16.0047 296.215 16.0047C297.151 16.0047 297.966 16.2093 298.662 16.6187C299.364 17.0221 299.908 17.604 300.294 18.3642C300.685 19.1185 300.878 20.0219 300.873 21.0745V29.6528H297.136V21.7411C297.142 20.9108 296.931 20.2646 296.505 19.8027C296.083 19.3407 295.493 19.1097 294.733 19.1097C294.224 19.1097 293.774 19.2179 293.382 19.4343C292.996 19.6506 292.692 19.9664 292.47 20.3816C292.253 20.7909 292.142 21.285 292.136 21.8639Z" fill="#9493F8"/>
</svg>
