<svg width="322" height="42" viewBox="0 0 322 42" fill="none" xmlns="http://www.w3.org/2000/svg">
<path d="M29.865 11.6892H33.663V23.355C33.663 24.6649 33.3501 25.811 32.7245 26.7934C32.1046 27.7758 31.2363 28.5418 30.1194 29.0915C29.0025 29.6353 27.7014 29.9072 26.2161 29.9072C24.725 29.9072 23.421 29.6353 22.3041 29.0915C21.1873 28.5418 20.3189 27.7758 19.6991 26.7934C19.0792 25.811 18.7693 24.6649 18.7693 23.355V11.6892H22.5673V23.0305C22.5673 23.7147 22.7164 24.3228 23.0146 24.8549C23.3187 25.3871 23.7456 25.8052 24.2952 26.1092C24.8449 26.4133 25.4852 26.5653 26.2161 26.5653C26.9529 26.5653 27.5932 26.4133 28.1371 26.1092C28.6867 25.8052 29.1107 25.3871 29.4089 24.8549C29.713 24.3228 29.865 23.7147 29.865 23.0305V11.6892ZM47.9273 20.0219L44.5065 20.2324C44.448 19.9401 44.3223 19.6769 44.1293 19.443C43.9364 19.2033 43.682 19.0132 43.3662 18.8729C43.0563 18.7267 42.685 18.6536 42.2523 18.6536C41.6734 18.6536 41.1851 18.7764 40.7875 19.022C40.3898 19.2618 40.191 19.5834 40.191 19.9869C40.191 20.3085 40.3197 20.5804 40.577 20.8026C40.8343 21.0248 41.2757 21.2031 41.9014 21.3376L44.3399 21.8288C45.6497 22.0978 46.6262 22.5305 47.2695 23.127C47.9127 23.7234 48.2343 24.507 48.2343 25.4777C48.2343 26.3607 47.9741 27.1355 47.4537 27.8021C46.9391 28.4687 46.2315 28.9891 45.331 29.3634C44.4363 29.7318 43.4042 29.916 42.2347 29.916C40.4512 29.916 39.0303 29.5447 37.9719 28.802C36.9193 28.0535 36.3024 27.0361 36.1211 25.7496L39.7963 25.5566C39.9074 26.1005 40.1764 26.5156 40.6033 26.8022C41.0301 27.0828 41.5769 27.2232 42.2435 27.2232C42.8984 27.2232 43.4247 27.0975 43.8223 26.846C44.2258 26.5887 44.4305 26.2583 44.4363 25.8549C44.4305 25.5157 44.2872 25.2379 44.0065 25.0216C43.7259 24.7994 43.2931 24.6298 42.7084 24.5128L40.3752 24.048C39.0595 23.7848 38.0801 23.3287 37.4368 22.6796C36.7995 22.0306 36.4808 21.2031 36.4808 20.1974C36.4808 19.3319 36.7147 18.5864 37.1825 17.9607C37.6561 17.335 38.3198 16.8526 39.1736 16.5134C40.0331 16.1743 41.0389 16.0047 42.1909 16.0047C43.8925 16.0047 45.2316 16.3643 46.2081 17.0835C47.1905 17.8028 47.7636 18.7823 47.9273 20.0219ZM56.7271 29.916C55.3413 29.916 54.1484 29.6353 53.1484 29.0739C52.1544 28.5067 51.3883 27.7056 50.8504 26.6706C50.3124 25.6297 50.0434 24.3988 50.0434 22.9779C50.0434 21.592 50.3124 20.3757 50.8504 19.329C51.3883 18.2823 52.1456 17.4666 53.1221 16.8818C54.1045 16.2971 55.2565 16.0047 56.578 16.0047C57.4668 16.0047 58.2943 16.1479 59.0603 16.4345C59.8322 16.7152 60.5046 17.1391 61.0777 17.7063C61.6566 18.2735 62.1069 18.9869 62.4285 19.8465C62.7501 20.7003 62.9109 21.7002 62.9109 22.8463V23.8725H51.5345V21.5569H59.3936C59.3936 21.0189 59.2767 20.5424 59.0428 20.1272C58.8089 19.712 58.4843 19.3875 58.0691 19.1536C57.6598 18.9138 57.1832 18.794 56.6394 18.794C56.0722 18.794 55.5693 18.9255 55.1308 19.1887C54.698 19.446 54.3589 19.7939 54.1133 20.2324C53.8677 20.6652 53.742 21.1476 53.7361 21.6797V23.8813C53.7361 24.5479 53.8589 25.1239 54.1045 25.6093C54.356 26.0946 54.7097 26.4688 55.1658 26.732C55.6219 26.9951 56.1628 27.1267 56.7885 27.1267C57.2037 27.1267 57.5838 27.0682 57.9288 26.9513C58.2738 26.8343 58.5691 26.6589 58.8147 26.425C59.0603 26.1911 59.2474 25.9046 59.3761 25.5654L62.832 25.7935C62.6565 26.6238 62.2969 27.3489 61.7531 27.9687C61.2151 28.5827 60.5193 29.0622 59.6655 29.4072C58.8176 29.7464 57.8382 29.916 56.7271 29.916ZM65.3493 29.6528V16.1801H68.9719V18.5308H69.1122C69.3578 17.6946 69.7701 17.0631 70.349 16.6362C70.9279 16.2035 71.5945 15.9871 72.3488 15.9871C72.536 15.9871 72.7377 15.9988 72.954 16.0222C73.1704 16.0456 73.3605 16.0778 73.5242 16.1187V19.4343C73.3488 19.3816 73.1061 19.3349 72.7962 19.2939C72.4862 19.253 72.2026 19.2325 71.9453 19.2325C71.3957 19.2325 70.9045 19.3524 70.4718 19.5921C70.0449 19.826 69.7057 20.1535 69.4543 20.5745C69.2087 20.9956 69.0859 21.4809 69.0859 22.0306V29.6528H65.3493ZM86.6658 20.0219L83.245 20.2324C83.1865 19.9401 83.0608 19.6769 82.8678 19.443C82.6749 19.2033 82.4205 19.0132 82.1047 18.8729C81.7948 18.7267 81.4235 18.6536 80.9908 18.6536C80.4119 18.6536 79.9236 18.7764 79.526 19.022C79.1283 19.2618 78.9295 19.5834 78.9295 19.9869C78.9295 20.3085 79.0581 20.5804 79.3154 20.8026C79.5727 21.0248 80.0142 21.2031 80.6399 21.3376L83.0783 21.8288C84.3882 22.0978 85.3647 22.5305 86.0079 23.127C86.6512 23.7234 86.9728 24.507 86.9728 25.4777C86.9728 26.3607 86.7126 27.1355 86.1921 27.8021C85.6776 28.4687 84.97 28.9891 84.0695 29.3634C83.1748 29.7318 82.1427 29.916 80.9732 29.916C79.1897 29.916 77.7688 29.5447 76.7104 28.802C75.6578 28.0535 75.0409 27.0361 74.8596 25.7496L78.5348 25.5566C78.6459 26.1005 78.9149 26.5156 79.3418 26.8022C79.7686 27.0828 80.3154 27.2232 80.982 27.2232C81.6369 27.2232 82.1632 27.0975 82.5608 26.846C82.9643 26.5887 83.169 26.2583 83.1748 25.8549C83.169 25.5157 83.0257 25.2379 82.745 25.0216C82.4643 24.7994 82.0316 24.6298 81.4469 24.5128L79.1137 24.048C77.798 23.7848 76.8185 23.3287 76.1753 22.6796C75.5379 22.0306 75.2192 21.2031 75.2192 20.1974C75.2192 19.3319 75.4531 18.5864 75.9209 17.9607C76.3946 17.335 77.0583 16.8526 77.912 16.5134C78.7716 16.1743 79.7774 16.0047 80.9294 16.0047C82.631 16.0047 83.9701 16.3643 84.9466 17.0835C85.929 17.8028 86.5021 18.7823 86.6658 20.0219ZM95.0424 16.1801H98.779V30.3195C98.779 31.3603 98.5743 32.2024 98.165 32.8456C97.7556 33.4888 97.168 33.9595 96.4019 34.2578C95.6418 34.556 94.7325 34.7051 93.6741 34.7051C93.5454 34.7051 93.4226 34.7022 93.3057 34.6963C93.1829 34.6963 93.0542 34.6934 92.9197 34.6876V31.7667C93.0191 31.7726 93.1069 31.7755 93.1829 31.7755C93.253 31.7813 93.3291 31.7843 93.4109 31.7843C94.0132 31.7843 94.4342 31.6556 94.674 31.3983C94.9196 31.1469 95.0424 30.7668 95.0424 30.2581V16.1801ZM96.9019 14.4434C96.3522 14.4434 95.8786 14.2592 95.481 13.8908C95.0833 13.5166 94.8845 13.0692 94.8845 12.5488C94.8845 12.0342 95.0833 11.5927 95.481 11.2243C95.8786 10.8501 96.3522 10.663 96.9019 10.663C97.4633 10.663 97.9398 10.8501 98.3316 11.2243C98.7293 11.5927 98.9281 12.0342 98.9281 12.5488C98.9281 13.0692 98.7293 13.5166 98.3316 13.8908C97.9398 14.2592 97.4633 14.4434 96.9019 14.4434ZM107.859 29.916C106.497 29.916 105.319 29.6265 104.325 29.0476C103.336 28.4629 102.573 27.6501 102.035 26.6092C101.497 25.5625 101.228 24.3491 101.228 22.9691C101.228 21.5774 101.497 20.3611 102.035 19.3202C102.573 18.2735 103.336 17.4607 104.325 16.8818C105.319 16.2971 106.497 16.0047 107.859 16.0047C109.222 16.0047 110.397 16.2971 111.386 16.8818C112.38 17.4607 113.146 18.2735 113.684 19.3202C114.222 20.3611 114.491 21.5774 114.491 22.9691C114.491 24.3491 114.222 25.5625 113.684 26.6092C113.146 27.6501 112.38 28.4629 111.386 29.0476C110.397 29.6265 109.222 29.916 107.859 29.916ZM107.877 27.0214C108.497 27.0214 109.014 26.846 109.43 26.4952C109.845 26.1385 110.158 25.6531 110.368 25.0391C110.584 24.4251 110.693 23.7264 110.693 22.9428C110.693 22.1592 110.584 21.4604 110.368 20.8464C110.158 20.2324 109.845 19.7471 109.43 19.3904C109.014 19.0337 108.497 18.8554 107.877 18.8554C107.251 18.8554 106.725 19.0337 106.298 19.3904C105.877 19.7471 105.558 20.2324 105.342 20.8464C105.132 21.4604 105.026 22.1592 105.026 22.9428C105.026 23.7264 105.132 24.4251 105.342 25.0391C105.558 25.6531 105.877 26.1385 106.298 26.4952C106.725 26.846 107.251 27.0214 107.877 27.0214ZM116.92 29.6528V16.1801H120.657V29.6528H116.92ZM118.797 14.4434C118.242 14.4434 117.765 14.2592 117.368 13.8908C116.976 13.5166 116.78 13.0692 116.78 12.5488C116.78 12.0342 116.976 11.5927 117.368 11.2243C117.765 10.8501 118.242 10.663 118.797 10.663C119.353 10.663 119.826 10.8501 120.218 11.2243C120.616 11.5927 120.815 12.0342 120.815 12.5488C120.815 13.0692 120.616 13.5166 120.218 13.8908C119.826 14.2592 119.353 14.4434 118.797 14.4434ZM127.387 21.8639V29.6528H123.65V16.1801H127.211V18.5571H127.369C127.667 17.7736 128.167 17.1537 128.869 16.6976C129.571 16.2357 130.421 16.0047 131.421 16.0047C132.357 16.0047 133.173 16.2093 133.869 16.6187C134.564 17.028 135.105 17.6128 135.491 18.3729C135.877 19.1273 136.07 20.0278 136.07 21.0745V29.6528H132.334V21.7411C132.339 20.9166 132.129 20.2734 131.702 19.8114C131.275 19.3436 130.688 19.1097 129.939 19.1097C129.436 19.1097 128.992 19.2179 128.606 19.4343C128.226 19.6506 127.927 19.9664 127.711 20.3816C127.501 20.7909 127.392 21.285 127.387 21.8639ZM145.155 29.916C143.769 29.916 142.576 29.6353 141.576 29.0739C140.582 28.5067 139.816 27.7056 139.278 26.6706C138.74 25.6297 138.471 24.3988 138.471 22.9779C138.471 21.592 138.74 20.3757 139.278 19.329C139.816 18.2823 140.574 17.4666 141.55 16.8818C142.532 16.2971 143.684 16.0047 145.006 16.0047C145.895 16.0047 146.722 16.1479 147.488 16.4345C148.26 16.7152 148.933 17.1391 149.506 17.7063C150.085 18.2735 150.535 18.9869 150.856 19.8465C151.178 20.7003 151.339 21.7002 151.339 22.8463V23.8725H139.962V21.5569H147.822C147.822 21.0189 147.705 20.5424 147.471 20.1272C147.237 19.712 146.912 19.3875 146.497 19.1536C146.088 18.9138 145.611 18.794 145.067 18.794C144.5 18.794 143.997 18.9255 143.559 19.1887C143.126 19.446 142.787 19.7939 142.541 20.2324C142.296 20.6652 142.17 21.1476 142.164 21.6797V23.8813C142.164 24.5479 142.287 25.1239 142.532 25.6093C142.784 26.0946 143.138 26.4688 143.594 26.732C144.05 26.9951 144.591 27.1267 145.216 27.1267C145.632 27.1267 146.012 27.0682 146.357 26.9513C146.702 26.8343 146.997 26.6589 147.243 26.425C147.488 26.1911 147.675 25.9046 147.804 25.5654L151.26 25.7935C151.084 26.6238 150.725 27.3489 150.181 27.9687C149.643 28.5827 148.947 29.0622 148.093 29.4072C147.246 29.7464 146.266 29.916 145.155 29.916ZM158.742 29.8721C157.718 29.8721 156.792 29.609 155.961 29.0827C155.137 28.5506 154.482 27.7699 153.997 26.7408C153.517 25.7057 153.277 24.4368 153.277 22.934C153.277 21.3903 153.526 20.1067 154.023 19.0834C154.52 18.0542 155.181 17.2853 156.005 16.7766C156.836 16.262 157.745 16.0047 158.733 16.0047C159.487 16.0047 160.116 16.1333 160.619 16.3906C161.128 16.6421 161.537 16.9578 161.847 17.3379C162.163 17.7122 162.402 18.0806 162.566 18.4431H162.68V11.6892H166.408V29.6528H162.724V27.4951H162.566C162.391 27.8693 162.142 28.2407 161.821 28.609C161.505 28.9716 161.093 29.2727 160.584 29.5125C160.081 29.7522 159.467 29.8721 158.742 29.8721ZM159.926 26.8986C160.528 26.8986 161.037 26.7349 161.452 26.4074C161.873 26.0741 162.195 25.6093 162.417 25.0128C162.645 24.4164 162.759 23.7176 162.759 22.9165C162.759 22.1154 162.648 21.4195 162.426 20.8289C162.204 20.2383 161.882 19.7822 161.461 19.4606C161.04 19.139 160.528 18.9782 159.926 18.9782C159.312 18.9782 158.794 19.1448 158.373 19.4781C157.952 19.8114 157.634 20.2734 157.417 20.864C157.201 21.4546 157.093 22.1387 157.093 22.9165C157.093 23.7 157.201 24.393 157.417 24.9953C157.64 25.5917 157.958 26.0595 158.373 26.3987C158.794 26.732 159.312 26.8986 159.926 26.8986ZM182.363 16.1801V18.9869H174.249V16.1801H182.363ZM176.091 12.9523H179.828V25.5128C179.828 25.8578 179.881 26.1268 179.986 26.3197C180.091 26.5069 180.237 26.6384 180.424 26.7144C180.617 26.7905 180.84 26.8285 181.091 26.8285C181.267 26.8285 181.442 26.8139 181.617 26.7846C181.793 26.7495 181.927 26.7232 182.021 26.7057L182.609 29.4862C182.421 29.5447 182.158 29.6119 181.819 29.6879C181.48 29.7698 181.068 29.8195 180.582 29.837C179.682 29.8721 178.892 29.7522 178.214 29.4774C177.542 29.2026 177.018 28.7757 176.644 28.1968C176.27 27.6179 176.086 26.8869 176.091 26.004V12.9523ZM188.823 21.8639V29.6528H185.086V11.6892H188.718V18.5571H188.876C189.18 17.7619 189.671 17.1391 190.349 16.6888C191.028 16.2327 191.878 16.0047 192.902 16.0047C193.837 16.0047 194.653 16.2093 195.349 16.6187C196.051 17.0221 196.594 17.604 196.98 18.3642C197.372 19.1185 197.565 20.0219 197.559 21.0745V29.6528H193.823V21.7411C193.829 20.9108 193.618 20.2646 193.191 19.8027C192.77 19.3407 192.18 19.1097 191.419 19.1097C190.911 19.1097 190.46 19.2179 190.069 19.4343C189.683 19.6506 189.379 19.9664 189.156 20.3816C188.94 20.7909 188.829 21.285 188.823 21.8639ZM200.5 29.6528V16.1801H204.236V29.6528H200.5ZM202.377 14.4434C201.821 14.4434 201.345 14.2592 200.947 13.8908C200.555 13.5166 200.359 13.0692 200.359 12.5488C200.359 12.0342 200.555 11.5927 200.947 11.2243C201.345 10.8501 201.821 10.663 202.377 10.663C202.932 10.663 203.406 10.8501 203.798 11.2243C204.195 11.5927 204.394 12.0342 204.394 12.5488C204.394 13.0692 204.195 13.5166 203.798 13.8908C203.406 14.2592 202.932 14.4434 202.377 14.4434ZM218.439 20.0219L215.019 20.2324C214.96 19.9401 214.834 19.6769 214.641 19.443C214.448 19.2033 214.194 19.0132 213.878 18.8729C213.568 18.7267 213.197 18.6536 212.764 18.6536C212.185 18.6536 211.697 18.7764 211.299 19.022C210.902 19.2618 210.703 19.5834 210.703 19.9869C210.703 20.3085 210.832 20.5804 211.089 20.8026C211.346 21.0248 211.788 21.2031 212.413 21.3376L214.852 21.8288C216.162 22.0978 217.138 22.5305 217.781 23.127C218.425 23.7234 218.746 24.507 218.746 25.4777C218.746 26.3607 218.486 27.1355 217.966 27.8021C217.451 28.4687 216.744 28.9891 215.843 29.3634C214.948 29.7318 213.916 29.916 212.747 29.916C210.963 29.916 209.542 29.5447 208.484 28.802C207.431 28.0535 206.814 27.0361 206.633 25.7496L210.308 25.5566C210.419 26.1005 210.688 26.5156 211.115 26.8022C211.542 27.0828 212.089 27.2232 212.756 27.2232C213.41 27.2232 213.937 27.0975 214.334 26.846C214.738 26.5887 214.943 26.2583 214.948 25.8549C214.943 25.5157 214.799 25.2379 214.519 25.0216C214.238 24.7994 213.805 24.6298 213.22 24.5128L210.887 24.048C209.572 23.7848 208.592 23.3287 207.949 22.6796C207.311 22.0306 206.993 21.2031 206.993 20.1974C206.993 19.3319 207.227 18.5864 207.694 17.9607C208.168 17.335 208.832 16.8526 209.686 16.5134C210.545 16.1743 211.551 16.0047 212.703 16.0047C214.405 16.0047 215.744 16.3643 216.72 17.0835C217.703 17.8028 218.276 18.7823 218.439 20.0219ZM226.816 29.6528V16.1801H230.377V18.5571H230.535C230.816 17.7677 231.283 17.1449 231.938 16.6888C232.593 16.2327 233.377 16.0047 234.289 16.0047C235.213 16.0047 235.999 16.2357 236.649 16.6976C237.298 17.1537 237.73 17.7736 237.947 18.5571H238.087C238.362 17.7853 238.859 17.1683 239.578 16.7064C240.303 16.2386 241.16 16.0047 242.148 16.0047C243.405 16.0047 244.426 16.4052 245.209 17.2063C245.999 18.0016 246.393 19.1302 246.393 20.5921V29.6528H242.666V21.3289C242.666 20.5804 242.467 20.019 242.069 19.6448C241.672 19.2705 241.175 19.0834 240.578 19.0834C239.9 19.0834 239.371 19.2998 238.991 19.7325C238.61 20.1594 238.42 20.7236 238.42 21.4253V29.6528H234.798V21.2499C234.798 20.5891 234.608 20.0629 234.228 19.6711C233.853 19.2793 233.359 19.0834 232.745 19.0834C232.33 19.0834 231.956 19.1887 231.623 19.3992C231.295 19.6038 231.035 19.8933 230.842 20.2675C230.649 20.6359 230.553 21.0686 230.553 21.5657V29.6528H226.816ZM255.432 29.916C254.07 29.916 252.892 29.6265 251.897 29.0476C250.909 28.4629 250.146 27.6501 249.608 26.6092C249.07 25.5625 248.801 24.3491 248.801 22.9691C248.801 21.5774 249.07 20.3611 249.608 19.3202C250.146 18.2735 250.909 17.4607 251.897 16.8818C252.892 16.2971 254.07 16.0047 255.432 16.0047C256.795 16.0047 257.97 16.2971 258.958 16.8818C259.952 17.4607 260.718 18.2735 261.256 19.3202C261.794 20.3611 262.063 21.5774 262.063 22.9691C262.063 24.3491 261.794 25.5625 261.256 26.6092C260.718 27.6501 259.952 28.4629 258.958 29.0476C257.97 29.6265 256.795 29.916 255.432 29.916ZM255.45 27.0214C256.07 27.0214 256.587 26.846 257.002 26.4952C257.418 26.1385 257.73 25.6531 257.941 25.0391C258.157 24.4251 258.265 23.7264 258.265 22.9428C258.265 22.1592 258.157 21.4604 257.941 20.8464C257.73 20.2324 257.418 19.7471 257.002 19.3904C256.587 19.0337 256.07 18.8554 255.45 18.8554C254.824 18.8554 254.298 19.0337 253.871 19.3904C253.45 19.7471 253.131 20.2324 252.915 20.8464C252.704 21.4604 252.599 22.1592 252.599 22.9428C252.599 23.7264 252.704 24.4251 252.915 25.0391C253.131 25.6531 253.45 26.1385 253.871 26.4952C254.298 26.846 254.824 27.0214 255.45 27.0214ZM268.23 21.8639V29.6528H264.493V16.1801H268.054V18.5571H268.212C268.51 17.7736 269.01 17.1537 269.712 16.6976C270.414 16.2357 271.265 16.0047 272.264 16.0047C273.2 16.0047 274.016 16.2093 274.712 16.6187C275.408 17.028 275.948 17.6128 276.334 18.3729C276.72 19.1273 276.913 20.0278 276.913 21.0745V29.6528H273.177V21.7411C273.183 20.9166 272.972 20.2734 272.545 19.8114C272.118 19.3436 271.531 19.1097 270.782 19.1097C270.279 19.1097 269.835 19.2179 269.449 19.4343C269.069 19.6506 268.771 19.9664 268.554 20.3816C268.344 20.7909 268.235 21.285 268.23 21.8639ZM287.024 16.1801V18.9869H278.911V16.1801H287.024ZM280.753 12.9523H284.489V25.5128C284.489 25.8578 284.542 26.1268 284.647 26.3197C284.753 26.5069 284.899 26.6384 285.086 26.7144C285.279 26.7905 285.501 26.8285 285.753 26.8285C285.928 26.8285 286.103 26.8139 286.279 26.7846C286.454 26.7495 286.589 26.7232 286.682 26.7057L287.27 29.4862C287.083 29.5447 286.82 29.6119 286.481 29.6879C286.141 29.7698 285.729 29.8195 285.244 29.837C284.343 29.8721 283.554 29.7522 282.876 29.4774C282.203 29.2026 281.68 28.7757 281.305 28.1968C280.931 27.6179 280.747 26.8869 280.753 26.004V12.9523ZM293.484 21.8639V29.6528H289.748V11.6892H293.379V18.5571H293.537C293.841 17.7619 294.332 17.1391 295.011 16.6888C295.689 16.2327 296.54 16.0047 297.563 16.0047C298.499 16.0047 299.314 16.2093 300.01 16.6187C300.712 17.0221 301.256 17.604 301.642 18.3642C302.034 19.1185 302.227 20.0219 302.221 21.0745V29.6528H298.484V21.7411C298.49 20.9108 298.279 20.2646 297.853 19.8027C297.432 19.3407 296.841 19.1097 296.081 19.1097C295.572 19.1097 295.122 19.2179 294.73 19.4343C294.344 19.6506 294.04 19.9664 293.818 20.3816C293.601 20.7909 293.49 21.285 293.484 21.8639Z" fill="#9493F8"/>
</svg>
