<svg width="306" height="41" viewBox="0 0 306 41" fill="none" xmlns="http://www.w3.org/2000/svg">
<path d="M29.657 11.0364H33.455V22.7022C33.455 24.012 33.1421 25.1582 32.5164 26.1406C31.8966 27.1229 31.0282 27.889 29.9114 28.4386C28.7945 28.9825 27.4934 29.2544 26.0081 29.2544C24.517 29.2544 23.213 28.9825 22.0961 28.4386C20.9792 27.889 20.1109 27.1229 19.4911 26.1406C18.8712 25.1582 18.5613 24.012 18.5613 22.7022V11.0364H22.3593V22.3777C22.3593 23.0618 22.5084 23.67 22.8066 24.2021C23.1107 24.7342 23.5375 25.1523 24.0872 25.4564C24.6369 25.7605 25.2772 25.9125 26.0081 25.9125C26.7449 25.9125 27.3852 25.7605 27.929 25.4564C28.4787 25.1523 28.9027 24.7342 29.2009 24.2021C29.505 23.67 29.657 23.0618 29.657 22.3777V11.0364ZM47.7193 19.3691L44.2985 19.5796C44.24 19.2872 44.1143 19.0241 43.9213 18.7902C43.7284 18.5504 43.474 18.3604 43.1582 18.2201C42.8483 18.0739 42.477 18.0008 42.0443 18.0008C41.4654 18.0008 40.9771 18.1236 40.5795 18.3692C40.1818 18.6089 39.983 18.9305 39.983 19.334C39.983 19.6556 40.1117 19.9275 40.369 20.1498C40.6262 20.372 41.0677 20.5503 41.6934 20.6848L44.1318 21.176C45.4417 21.445 46.4182 21.8777 47.0615 22.4741C47.7047 23.0706 48.0263 23.8542 48.0263 24.8249C48.0263 25.7078 47.7661 26.4826 47.2457 27.1493C46.7311 27.8159 46.0235 28.3363 45.123 28.7105C44.2283 29.0789 43.1962 29.2631 42.0267 29.2631C40.2432 29.2631 38.8223 28.8918 37.7639 28.1492C36.7113 27.4007 36.0944 26.3832 35.9131 25.0968L39.5883 24.9038C39.6994 25.4476 39.9684 25.8628 40.3953 26.1493C40.8221 26.43 41.3689 26.5703 42.0355 26.5703C42.6904 26.5703 43.2167 26.4446 43.6143 26.1932C44.0178 25.9359 44.2225 25.6055 44.2283 25.202C44.2225 24.8629 44.0792 24.5851 43.7985 24.3687C43.5179 24.1465 43.0851 23.977 42.5004 23.86L40.1672 23.3951C38.8515 23.132 37.8721 22.6759 37.2288 22.0268C36.5914 21.3777 36.2728 20.5503 36.2728 19.5445C36.2728 18.6791 36.5067 17.9335 36.9745 17.3078C37.4481 16.6822 38.1118 16.1997 38.9655 15.8606C39.8251 15.5214 40.8309 15.3518 41.9829 15.3518C43.6845 15.3518 45.0236 15.7115 46.0001 16.4307C46.9825 17.15 47.5556 18.1294 47.7193 19.3691ZM56.5191 29.2631C55.1333 29.2631 53.9404 28.9825 52.9404 28.4211C51.9463 27.8539 51.1803 27.0528 50.6423 26.0178C50.1044 24.9769 49.8354 23.746 49.8354 22.325C49.8354 20.9392 50.1044 19.7229 50.6423 18.6762C51.1803 17.6295 51.9376 16.8137 52.9141 16.229C53.8965 15.6442 55.0485 15.3518 56.37 15.3518C57.2588 15.3518 58.0863 15.4951 58.8523 15.7816C59.6242 16.0623 60.2966 16.4863 60.8697 17.0535C61.4486 17.6207 61.8989 18.3341 62.2205 19.1937C62.5421 20.0474 62.7029 21.0473 62.7029 22.1935V23.2197H51.3265V20.9041H59.1856C59.1856 20.3661 59.0687 19.8895 58.8347 19.4744C58.6008 19.0592 58.2763 18.7346 57.8611 18.5007C57.4518 18.261 56.9752 18.1411 56.4314 18.1411C55.8642 18.1411 55.3613 18.2727 54.9227 18.5358C54.49 18.7931 54.1509 19.1411 53.9053 19.5796C53.6597 20.0123 53.534 20.4948 53.5281 21.0269V23.2285C53.5281 23.8951 53.6509 24.4711 53.8965 24.9564C54.1479 25.4418 54.5017 25.816 54.9578 26.0792C55.4139 26.3423 55.9548 26.4739 56.5805 26.4739C56.9957 26.4739 57.3758 26.4154 57.7208 26.2984C58.0658 26.1815 58.3611 26.0061 58.6067 25.7722C58.8523 25.5383 59.0394 25.2517 59.1681 24.9126L62.624 25.1406C62.4485 25.971 62.0889 26.6961 61.5451 27.3159C61.0071 27.9299 60.3113 28.4094 59.4575 28.7544C58.6096 29.0936 57.6302 29.2631 56.5191 29.2631ZM65.1413 29V15.5273H68.7639V17.878H68.9042C69.1498 17.0418 69.5621 16.4103 70.141 15.9834C70.7199 15.5507 71.3865 15.3343 72.1408 15.3343C72.3279 15.3343 72.5297 15.346 72.746 15.3694C72.9624 15.3928 73.1524 15.4249 73.3162 15.4659V18.7814C73.1408 18.7288 72.8981 18.682 72.5882 18.6411C72.2782 18.6002 71.9946 18.5797 71.7373 18.5797C71.1877 18.5797 70.6965 18.6996 70.2638 18.9393C69.8369 19.1732 69.4977 19.5007 69.2463 19.9217C69.0007 20.3427 68.8779 20.8281 68.8779 21.3777V29H65.1413ZM86.4578 19.3691L83.037 19.5796C82.9785 19.2872 82.8528 19.0241 82.6598 18.7902C82.4668 18.5504 82.2125 18.3604 81.8967 18.2201C81.5868 18.0739 81.2155 18.0008 80.7828 18.0008C80.2038 18.0008 79.7156 18.1236 79.3179 18.3692C78.9203 18.6089 78.7215 18.9305 78.7215 19.334C78.7215 19.6556 78.8501 19.9275 79.1074 20.1498C79.3647 20.372 79.8062 20.5503 80.4319 20.6848L82.8703 21.176C84.1802 21.445 85.1567 21.8777 85.7999 22.4741C86.4432 23.0706 86.7648 23.8542 86.7648 24.8249C86.7648 25.7078 86.5046 26.4826 85.9841 27.1493C85.4696 27.8159 84.762 28.3363 83.8615 28.7105C82.9668 29.0789 81.9347 29.2631 80.7652 29.2631C78.9817 29.2631 77.5608 28.8918 76.5024 28.1492C75.4498 27.4007 74.8329 26.3832 74.6516 25.0968L78.3268 24.9038C78.4379 25.4476 78.7069 25.8628 79.1337 26.1493C79.5606 26.43 80.1074 26.5703 80.774 26.5703C81.4289 26.5703 81.9552 26.4446 82.3528 26.1932C82.7563 25.9359 82.961 25.6055 82.9668 25.202C82.961 24.8629 82.8177 24.5851 82.537 24.3687C82.2563 24.1465 81.8236 23.977 81.2389 23.86L78.9057 23.3951C77.59 23.132 76.6105 22.6759 75.9673 22.0268C75.3299 21.3777 75.0112 20.5503 75.0112 19.5445C75.0112 18.6791 75.2451 17.9335 75.7129 17.3078C76.1866 16.6822 76.8503 16.1997 77.704 15.8606C78.5636 15.5214 79.5694 15.3518 80.7214 15.3518C82.423 15.3518 83.7621 15.7115 84.7386 16.4307C85.721 17.15 86.2941 18.1294 86.4578 19.3691ZM94.8344 15.5273H98.571V29.6666C98.571 30.7075 98.3663 31.5495 97.957 32.1928C97.5476 32.836 96.96 33.3067 96.1939 33.6049C95.4338 33.9032 94.5245 34.0523 93.4661 34.0523C93.3374 34.0523 93.2146 34.0493 93.0977 34.0435C92.9749 34.0435 92.8462 34.0406 92.7117 34.0347V31.1139C92.8111 31.1197 92.8988 31.1227 92.9749 31.1227C93.045 31.1285 93.1211 31.1314 93.2029 31.1314C93.8052 31.1314 94.2262 31.0028 94.466 30.7455C94.7116 30.494 94.8344 30.114 94.8344 29.6052V15.5273ZM96.6939 13.7906C96.1442 13.7906 95.6706 13.6064 95.2729 13.238C94.8753 12.8637 94.6765 12.4164 94.6765 11.896C94.6765 11.3814 94.8753 10.9399 95.2729 10.5715C95.6706 10.1972 96.1442 10.0101 96.6939 10.0101C97.2553 10.0101 97.7318 10.1972 98.1236 10.5715C98.5213 10.9399 98.7201 11.3814 98.7201 11.896C98.7201 12.4164 98.5213 12.8637 98.1236 13.238C97.7318 13.6064 97.2553 13.7906 96.6939 13.7906ZM107.651 29.2631C106.289 29.2631 105.111 28.9737 104.117 28.3948C103.128 27.81 102.365 26.9972 101.827 25.9564C101.289 24.9096 101.02 23.6963 101.02 22.3163C101.02 20.9245 101.289 19.7083 101.827 18.6674C102.365 17.6207 103.128 16.8079 104.117 16.229C105.111 15.6442 106.289 15.3518 107.651 15.3518C109.014 15.3518 110.189 15.6442 111.178 16.229C112.172 16.8079 112.938 17.6207 113.476 18.6674C114.014 19.7083 114.283 20.9245 114.283 22.3163C114.283 23.6963 114.014 24.9096 113.476 25.9564C112.938 26.9972 112.172 27.81 111.178 28.3948C110.189 28.9737 109.014 29.2631 107.651 29.2631ZM107.669 26.3686C108.289 26.3686 108.806 26.1932 109.222 25.8423C109.637 25.4856 109.95 25.0003 110.16 24.3863C110.376 23.7723 110.485 23.0735 110.485 22.2899C110.485 21.5064 110.376 20.8076 110.16 20.1936C109.95 19.5796 109.637 19.0943 109.222 18.7376C108.806 18.3809 108.289 18.2025 107.669 18.2025C107.043 18.2025 106.517 18.3809 106.09 18.7376C105.669 19.0943 105.35 19.5796 105.134 20.1936C104.924 20.8076 104.818 21.5064 104.818 22.2899C104.818 23.0735 104.924 23.7723 105.134 24.3863C105.35 25.0003 105.669 25.4856 106.09 25.8423C106.517 26.1932 107.043 26.3686 107.669 26.3686ZM116.712 29V15.5273H120.449V29H116.712ZM118.589 13.7906C118.034 13.7906 117.557 13.6064 117.16 13.238C116.768 12.8637 116.572 12.4164 116.572 11.896C116.572 11.3814 116.768 10.9399 117.16 10.5715C117.557 10.1972 118.034 10.0101 118.589 10.0101C119.145 10.0101 119.618 10.1972 120.01 10.5715C120.408 10.9399 120.607 11.3814 120.607 11.896C120.607 12.4164 120.408 12.8637 120.01 13.238C119.618 13.6064 119.145 13.7906 118.589 13.7906ZM127.179 21.2111V29H123.442V15.5273H127.003V17.9043H127.161C127.459 17.1207 127.959 16.5009 128.661 16.0448C129.363 15.5828 130.213 15.3518 131.213 15.3518C132.149 15.3518 132.965 15.5565 133.661 15.9658C134.356 16.3752 134.897 16.9599 135.283 17.7201C135.669 18.4744 135.862 19.375 135.862 20.4217V29H132.126V21.0883C132.131 20.2638 131.921 19.6205 131.494 19.1586C131.067 18.6908 130.48 18.4569 129.731 18.4569C129.228 18.4569 128.784 18.5651 128.398 18.7814C128.018 18.9978 127.719 19.3136 127.503 19.7287C127.293 20.1381 127.184 20.6322 127.179 21.2111ZM144.947 29.2631C143.561 29.2631 142.368 28.9825 141.368 28.4211C140.374 27.8539 139.608 27.0528 139.07 26.0178C138.532 24.9769 138.263 23.746 138.263 22.325C138.263 20.9392 138.532 19.7229 139.07 18.6762C139.608 17.6295 140.366 16.8137 141.342 16.229C142.324 15.6442 143.476 15.3518 144.798 15.3518C145.687 15.3518 146.514 15.4951 147.28 15.7816C148.052 16.0623 148.725 16.4863 149.298 17.0535C149.877 17.6207 150.327 18.3341 150.648 19.1937C150.97 20.0474 151.131 21.0473 151.131 22.1935V23.2197H139.754V20.9041H147.614C147.614 20.3661 147.497 19.8895 147.263 19.4744C147.029 19.0592 146.704 18.7346 146.289 18.5007C145.88 18.261 145.403 18.1411 144.859 18.1411C144.292 18.1411 143.789 18.2727 143.351 18.5358C142.918 18.7931 142.579 19.1411 142.333 19.5796C142.088 20.0123 141.962 20.4948 141.956 21.0269V23.2285C141.956 23.8951 142.079 24.4711 142.324 24.9564C142.576 25.4418 142.93 25.816 143.386 26.0792C143.842 26.3423 144.383 26.4739 145.008 26.4739C145.424 26.4739 145.804 26.4154 146.149 26.2984C146.494 26.1815 146.789 26.0061 147.035 25.7722C147.28 25.5383 147.467 25.2517 147.596 24.9126L151.052 25.1406C150.876 25.971 150.517 26.6961 149.973 27.3159C149.435 27.9299 148.739 28.4094 147.885 28.7544C147.038 29.0936 146.058 29.2631 144.947 29.2631ZM158.534 29.2193C157.51 29.2193 156.584 28.9561 155.753 28.4299C154.929 27.8977 154.274 27.1171 153.789 26.0879C153.309 25.0529 153.069 23.784 153.069 22.2812C153.069 20.7374 153.318 19.4539 153.815 18.4306C154.312 17.4014 154.973 16.6325 155.797 16.1237C156.628 15.6091 157.537 15.3518 158.525 15.3518C159.279 15.3518 159.908 15.4805 160.411 15.7378C160.92 15.9892 161.329 16.305 161.639 16.6851C161.955 17.0593 162.194 17.4277 162.358 17.7903H162.472V11.0364H166.2V29H162.516V26.8423H162.358C162.183 27.2165 161.934 27.5878 161.613 27.9562C161.297 28.3188 160.885 28.6199 160.376 28.8597C159.873 29.0994 159.259 29.2193 158.534 29.2193ZM159.718 26.2458C160.32 26.2458 160.829 26.0821 161.244 25.7546C161.665 25.4213 161.987 24.9564 162.209 24.36C162.437 23.7635 162.551 23.0647 162.551 22.2636C162.551 21.4625 162.44 20.7667 162.218 20.1761C161.996 19.5855 161.674 19.1294 161.253 18.8077C160.832 18.4861 160.32 18.3253 159.718 18.3253C159.104 18.3253 158.586 18.492 158.165 18.8253C157.744 19.1586 157.426 19.6205 157.209 20.2112C156.993 20.8018 156.885 21.4859 156.885 22.2636C156.885 23.0472 156.993 23.7401 157.209 24.3424C157.432 24.9389 157.75 25.4067 158.165 25.7458C158.586 26.0792 159.104 26.2458 159.718 26.2458ZM178.725 11.0364V29H174.989V11.0364H178.725ZM185.56 29.2544C184.701 29.2544 183.935 29.1053 183.262 28.807C182.59 28.503 182.058 28.0556 181.666 27.465C181.28 26.8686 181.087 26.1259 181.087 25.2371C181.087 24.4886 181.224 23.86 181.499 23.3513C181.774 22.8425 182.148 22.4332 182.622 22.1233C183.096 21.8134 183.634 21.5795 184.236 21.4216C184.844 21.2637 185.481 21.1526 186.148 21.0883C186.932 21.0064 187.563 20.9304 188.043 20.8602C188.522 20.7842 188.87 20.6731 189.086 20.5269C189.303 20.3807 189.411 20.1644 189.411 19.8778V19.8252C189.411 19.2697 189.236 18.8399 188.885 18.5358C188.54 18.2318 188.049 18.0797 187.411 18.0797C186.739 18.0797 186.204 18.2288 185.806 18.5271C185.408 18.8194 185.145 19.1878 185.017 19.6322L181.561 19.3516C181.736 18.5329 182.081 17.8254 182.596 17.2289C183.11 16.6266 183.774 16.1647 184.587 15.843C185.405 15.5156 186.353 15.3518 187.429 15.3518C188.177 15.3518 188.893 15.4396 189.578 15.615C190.268 15.7904 190.879 16.0623 191.411 16.4307C191.949 16.7991 192.373 17.2728 192.683 17.8517C192.993 18.4247 193.148 19.1118 193.148 19.9129V29H189.604V27.1317H189.499C189.282 27.5527 188.993 27.9241 188.63 28.2457C188.268 28.5614 187.832 28.81 187.323 28.9912C186.815 29.1667 186.227 29.2544 185.56 29.2544ZM186.631 26.6756C187.18 26.6756 187.666 26.5674 188.087 26.3511C188.508 26.1289 188.838 25.8306 189.078 25.4564C189.317 25.0821 189.437 24.6582 189.437 24.1846V22.7548C189.32 22.8308 189.16 22.901 188.955 22.9653C188.756 23.0238 188.531 23.0794 188.28 23.132C188.028 23.1788 187.777 23.2226 187.525 23.2636C187.274 23.2987 187.046 23.3308 186.841 23.36C186.402 23.4244 186.019 23.5267 185.692 23.667C185.365 23.8074 185.11 23.9974 184.929 24.2372C184.748 24.4711 184.657 24.7635 184.657 25.1143C184.657 25.623 184.841 26.0119 185.21 26.2809C185.584 26.544 186.057 26.6756 186.631 26.6756ZM207.256 19.3691L203.835 19.5796C203.777 19.2872 203.651 19.0241 203.458 18.7902C203.265 18.5504 203.011 18.3604 202.695 18.2201C202.385 18.0739 202.014 18.0008 201.581 18.0008C201.002 18.0008 200.514 18.1236 200.116 18.3692C199.719 18.6089 199.52 18.9305 199.52 19.334C199.52 19.6556 199.649 19.9275 199.906 20.1498C200.163 20.372 200.605 20.5503 201.23 20.6848L203.669 21.176C204.979 21.445 205.955 21.8777 206.598 22.4741C207.242 23.0706 207.563 23.8542 207.563 24.8249C207.563 25.7078 207.303 26.4826 206.783 27.1493C206.268 27.8159 205.56 28.3363 204.66 28.7105C203.765 29.0789 202.733 29.2631 201.564 29.2631C199.78 29.2631 198.359 28.8918 197.301 28.1492C196.248 27.4007 195.631 26.3832 195.45 25.0968L199.125 24.9038C199.236 25.4476 199.505 25.8628 199.932 26.1493C200.359 26.43 200.906 26.5703 201.572 26.5703C202.227 26.5703 202.754 26.4446 203.151 26.1932C203.555 25.9359 203.759 25.6055 203.765 25.202C203.759 24.8629 203.616 24.5851 203.335 24.3687C203.055 24.1465 202.622 23.977 202.037 23.86L199.704 23.3951C198.388 23.132 197.409 22.6759 196.766 22.0268C196.128 21.3777 195.81 20.5503 195.81 19.5445C195.81 18.6791 196.044 17.9335 196.511 17.3078C196.985 16.6822 197.649 16.1997 198.502 15.8606C199.362 15.5214 200.368 15.3518 201.52 15.3518C203.221 15.3518 204.561 15.7115 205.537 16.4307C206.519 17.15 207.092 18.1294 207.256 19.3691ZM217.082 15.5273V18.3341H208.969V15.5273H217.082ZM210.811 12.2994H214.547V24.8599C214.547 25.2049 214.6 25.4739 214.705 25.6669C214.811 25.854 214.957 25.9856 215.144 26.0616C215.337 26.1376 215.559 26.1756 215.81 26.1756C215.986 26.1756 216.161 26.161 216.337 26.1318C216.512 26.0967 216.647 26.0704 216.74 26.0528L217.328 28.8333C217.141 28.8918 216.878 28.9591 216.538 29.0351C216.199 29.117 215.787 29.1667 215.302 29.1842C214.401 29.2193 213.612 29.0994 212.933 28.8246C212.261 28.5497 211.738 28.1229 211.363 27.544C210.989 26.9651 210.805 26.2341 210.811 25.3511V12.2994ZM227.891 29L224.224 15.5273H228.005L230.092 24.5793H230.215L232.39 15.5273H236.101L238.311 24.5266H238.425L240.478 15.5273H244.249L240.592 29H236.636L234.32 20.5269H234.153L231.838 29H227.891ZM252.045 29.2631C250.659 29.2631 249.466 28.9825 248.466 28.4211C247.472 27.8539 246.706 27.0528 246.168 26.0178C245.63 24.9769 245.361 23.746 245.361 22.325C245.361 20.9392 245.63 19.7229 246.168 18.6762C246.706 17.6295 247.463 16.8137 248.44 16.229C249.422 15.6442 250.574 15.3518 251.896 15.3518C252.784 15.3518 253.612 15.4951 254.378 15.7816C255.15 16.0623 255.822 16.4863 256.395 17.0535C256.974 17.6207 257.424 18.3341 257.746 19.1937C258.068 20.0474 258.228 21.0473 258.228 22.1935V23.2197H246.852V20.9041H254.711C254.711 20.3661 254.594 19.8895 254.36 19.4744C254.126 19.0592 253.802 18.7346 253.387 18.5007C252.977 18.261 252.501 18.1411 251.957 18.1411C251.39 18.1411 250.887 18.2727 250.448 18.5358C250.016 18.7931 249.676 19.1411 249.431 19.5796C249.185 20.0123 249.06 20.4948 249.054 21.0269V23.2285C249.054 23.8951 249.177 24.4711 249.422 24.9564C249.674 25.4418 250.027 25.816 250.483 26.0792C250.94 26.3423 251.48 26.4739 252.106 26.4739C252.521 26.4739 252.901 26.4154 253.246 26.2984C253.591 26.1815 253.887 26.0061 254.132 25.7722C254.378 25.5383 254.565 25.2517 254.694 24.9126L258.15 25.1406C257.974 25.971 257.614 26.6961 257.071 27.3159C256.533 27.9299 255.837 28.4094 254.983 28.7544C254.135 29.0936 253.156 29.2631 252.045 29.2631ZM266.807 29.2631C265.421 29.2631 264.228 28.9825 263.228 28.4211C262.234 27.8539 261.468 27.0528 260.93 26.0178C260.392 24.9769 260.123 23.746 260.123 22.325C260.123 20.9392 260.392 19.7229 260.93 18.6762C261.468 17.6295 262.225 16.8137 263.202 16.229C264.184 15.6442 265.336 15.3518 266.658 15.3518C267.547 15.3518 268.374 15.4951 269.14 15.7816C269.912 16.0623 270.584 16.4863 271.157 17.0535C271.736 17.6207 272.187 18.3341 272.508 19.1937C272.83 20.0474 272.991 21.0473 272.991 22.1935V23.2197H261.614V20.9041H269.473C269.473 20.3661 269.356 19.8895 269.122 19.4744C268.889 19.0592 268.564 18.7346 268.149 18.5007C267.74 18.261 267.263 18.1411 266.719 18.1411C266.152 18.1411 265.649 18.2727 265.21 18.5358C264.778 18.7931 264.439 19.1411 264.193 19.5796C263.947 20.0123 263.822 20.4948 263.816 21.0269V23.2285C263.816 23.8951 263.939 24.4711 264.184 24.9564C264.436 25.4418 264.789 25.816 265.246 26.0792C265.702 26.3423 266.243 26.4739 266.868 26.4739C267.283 26.4739 267.663 26.4154 268.008 26.2984C268.353 26.1815 268.649 26.0061 268.894 25.7722C269.14 25.5383 269.327 25.2517 269.456 24.9126L272.912 25.1406C272.736 25.971 272.377 26.6961 271.833 27.3159C271.295 27.9299 270.599 28.4094 269.745 28.7544C268.897 29.0936 267.918 29.2631 266.807 29.2631ZM278.815 25.1231L278.824 20.6409H279.367L283.683 15.5273H287.972L282.174 22.2987H281.288L278.815 25.1231ZM275.429 29V11.0364H279.166V29H275.429ZM283.849 29L279.885 23.132L282.376 20.4918L288.226 29H283.849Z" fill="#9493F8"/>
</svg>
