<svg width="232" height="232" viewBox="0 0 232 232" fill="none" xmlns="http://www.w3.org/2000/svg">
<rect x="0.467285" y="0.407715" width="230.77" height="230.767" rx="15" fill="#9493F8"/>
<path d="M54.475 101.681C65.8305 101.681 75.0692 92.4426 75.0692 81.0844C75.0692 69.7289 65.8305 60.4902 54.475 60.4902C43.1195 60.4902 33.8809 69.7289 33.8809 81.0844C33.8809 92.4426 43.1195 101.681 54.475 101.681Z" fill="#9493F8" stroke="white" stroke-width="6"/>
<path d="M18.6592 137.75V153.036H90.292V137.75C90.292 118.001 74.2241 101.933 54.4756 101.933C34.7271 101.933 18.6592 118.001 18.6592 137.75Z" fill="#9493F8" stroke="white" stroke-width="6"/>
<path d="M177.229 101.681C188.585 101.681 197.824 92.4426 197.824 81.0844C197.824 69.7289 188.585 60.4902 177.229 60.4902C165.874 60.4902 156.635 69.7289 156.635 81.0844C156.635 92.4426 165.874 101.681 177.229 101.681Z" fill="#9493F8" stroke="white" stroke-width="6"/>
<path d="M141.413 137.75V153.036H213.046V137.75C213.046 118.001 196.978 101.933 177.229 101.933C157.481 101.933 141.413 118.001 141.413 137.75Z" fill="#9493F8" stroke="white" stroke-width="6"/>
<path d="M115.852 121.426C129.389 121.426 140.403 110.412 140.403 96.8714C140.403 83.3338 129.389 72.3198 115.852 72.3198C102.314 72.3198 91.3003 83.3338 91.3003 96.8714C91.3003 110.412 102.314 121.426 115.852 121.426Z" fill="#9493F8" stroke="white" stroke-width="6"/>
<path d="M73.1533 164.425V182.649H158.551V164.425C158.551 140.882 139.396 121.727 115.852 121.727C92.3089 121.727 73.1533 140.882 73.1533 164.425Z" fill="#9493F8" stroke="white" stroke-width="6"/>
</svg>
