<svg width="472" height="90" viewBox="0 0 472 90" fill="none" xmlns="http://www.w3.org/2000/svg">
<path d="M55.2113 24.5641H66.2305V50.5662C66.2305 53.658 65.4906 56.3335 64.0108 58.5928C62.5443 60.839 60.4963 62.5764 57.867 63.8052C55.2377 65.0207 52.1857 65.6285 48.7108 65.6285C45.2095 65.6285 42.1442 65.0207 39.5149 63.8052C36.8856 62.5764 34.8377 60.839 33.3711 58.5928C31.9177 56.3335 31.191 53.658 31.191 50.5662V24.5641H42.2102V49.6149C42.2102 50.8701 42.4877 51.9932 43.0426 52.9841C43.5975 53.9619 44.3639 54.7282 45.3416 55.2831C46.3325 55.838 47.4556 56.1155 48.7108 56.1155C49.9792 56.1155 51.1022 55.838 52.08 55.2831C53.0577 54.7282 53.824 53.9619 54.3789 52.9841C54.9339 51.9932 55.2113 50.8701 55.2113 49.6149V24.5641ZM93.3475 37.2481C93.2418 35.9268 92.7463 34.8962 91.8611 34.1563C90.9891 33.4164 89.6612 33.0465 87.8775 33.0465C86.7413 33.0465 85.8098 33.1852 85.0831 33.4627C84.3696 33.7269 83.8411 34.0903 83.4976 34.5527C83.1541 35.0152 82.9757 35.5437 82.9625 36.1382C82.9361 36.6271 83.022 37.0697 83.2201 37.4661C83.4315 37.8492 83.7619 38.1994 84.2111 38.5165C84.6603 38.8203 85.235 39.0978 85.9353 39.3488C86.6356 39.5999 87.468 39.8245 88.4325 40.0227L91.762 40.7362C94.0081 41.2118 95.9306 41.8394 97.5293 42.6189C99.128 43.3985 100.436 44.3167 101.453 45.3737C102.471 46.4175 103.217 47.5934 103.693 48.9015C104.182 50.2095 104.433 51.6365 104.446 53.1823C104.433 55.8512 103.766 58.1106 102.444 59.9603C101.123 61.8101 99.2337 63.2172 96.7762 64.1817C94.3318 65.1462 91.3921 65.6285 87.9568 65.6285C84.4291 65.6285 81.3506 65.1066 78.7213 64.0628C76.1052 63.019 74.0705 61.4137 72.6171 59.2469C71.177 57.0668 70.4503 54.279 70.4371 50.8833H80.9013C80.9674 52.1253 81.2779 53.1691 81.8328 54.0147C82.3878 54.8603 83.1673 55.5011 84.1714 55.9371C85.1888 56.3731 86.3977 56.5911 87.7983 56.5911C88.9742 56.5911 89.9585 56.4458 90.7513 56.1551C91.544 55.8645 92.1452 55.4615 92.5548 54.9462C92.9643 54.4309 93.1757 53.8429 93.189 53.1823C93.1757 52.5613 92.971 52.0196 92.5746 51.5572C92.1914 51.0815 91.5572 50.6587 90.672 50.2888C89.7867 49.9056 88.591 49.5489 87.0848 49.2186L83.0418 48.3465C79.448 47.567 76.6139 46.2656 74.5395 44.4423C72.4784 42.6057 71.4544 40.102 71.4676 36.931C71.4544 34.3545 72.1415 32.1018 73.5288 30.1728C74.9293 28.2305 76.8649 26.7177 79.3357 25.6343C81.8196 24.5509 84.6669 24.0091 87.8775 24.0091C91.1542 24.0091 93.9883 24.5575 96.3798 25.6541C98.7712 26.7507 100.614 28.2966 101.909 30.2917C103.217 32.2736 103.878 34.5924 103.891 37.2481H93.3475ZM108.638 65.1528V24.5641H137.89V33.4429H119.657V40.4191H136.384V49.2978H119.657V56.274H137.811V65.1528H108.638ZM143.355 65.1528V24.5641H160.875C163.887 24.5641 166.523 25.1124 168.783 26.209C171.042 27.3057 172.799 28.8846 174.054 30.9457C175.31 33.0069 175.937 35.4776 175.937 38.3579C175.937 41.2647 175.29 43.7156 173.995 45.7107C172.713 47.7057 170.91 49.212 168.584 50.2293C166.272 51.2467 163.57 51.7554 160.478 51.7554H150.014V43.1937H158.259C159.554 43.1937 160.657 43.0351 161.569 42.718C162.493 42.3877 163.2 41.8658 163.689 41.1524C164.191 40.4389 164.442 39.5074 164.442 38.3579C164.442 37.1952 164.191 36.2505 163.689 35.5238C163.2 34.7839 162.493 34.2422 161.569 33.8987C160.657 33.542 159.554 33.3636 158.259 33.3636H154.374V65.1528H143.355ZM167.138 46.5232L177.285 65.1528H165.314L155.405 46.5232H167.138ZM202.514 37.2481C202.408 35.9268 201.913 34.8962 201.028 34.1563C200.156 33.4164 198.828 33.0465 197.044 33.0465C195.908 33.0465 194.976 33.1852 194.25 33.4627C193.536 33.7269 193.008 34.0903 192.664 34.5527C192.321 35.0152 192.142 35.5437 192.129 36.1382C192.103 36.6271 192.188 37.0697 192.387 37.4661C192.598 37.8492 192.928 38.1994 193.378 38.5165C193.827 38.8203 194.402 39.0978 195.102 39.3488C195.802 39.5999 196.634 39.8245 197.599 40.0227L200.929 40.7362C203.175 41.2118 205.097 41.8394 206.696 42.6189C208.294 43.3985 209.603 44.3167 210.62 45.3737C211.637 46.4175 212.384 47.5934 212.859 48.9015C213.348 50.2095 213.599 51.6365 213.613 53.1823C213.599 55.8512 212.932 58.1106 211.611 59.9603C210.29 61.8101 208.4 63.2172 205.943 64.1817C203.498 65.1462 200.559 65.6285 197.123 65.6285C193.596 65.6285 190.517 65.1066 187.888 64.0628C185.272 63.019 183.237 61.4137 181.784 59.2469C180.343 57.0668 179.617 54.279 179.604 50.8833H190.068C190.134 52.1253 190.444 53.1691 190.999 54.0147C191.554 54.8603 192.334 55.5011 193.338 55.9371C194.355 56.3731 195.564 56.5911 196.965 56.5911C198.141 56.5911 199.125 56.4458 199.918 56.1551C200.711 55.8645 201.312 55.4615 201.721 54.9462C202.131 54.4309 202.342 53.8429 202.355 53.1823C202.342 52.5613 202.137 52.0196 201.741 51.5572C201.358 51.0815 200.724 50.6587 199.838 50.2888C198.953 49.9056 197.758 49.5489 196.251 49.2186L192.208 48.3465C188.614 47.567 185.78 46.2656 183.706 44.4423C181.645 42.6057 180.621 40.102 180.634 36.931C180.621 34.3545 181.308 32.1018 182.695 30.1728C184.096 28.2305 186.031 26.7177 188.502 25.6343C190.986 24.5509 193.833 24.0091 197.044 24.0091C200.321 24.0091 203.155 24.5575 205.546 25.6541C207.938 26.7507 209.781 28.2966 211.076 30.2917C212.384 32.2736 213.044 34.5924 213.058 37.2481H202.514Z" fill="#9493F8"/>
</svg>
