<svg width="106" height="106" viewBox="0 0 106 106" fill="none" xmlns="http://www.w3.org/2000/svg">
<rect x="0.846008" y="0.518311" width="105" height="105" rx="15" fill="#9691FF"/>
<path d="M51.8282 83.3274L51.8282 83.3274L53.0245 84.9154L53.3441 85.3396L53.6636 84.9154L54.8639 83.3213L54.5444 83.0806L54.8639 83.3212C58.5032 78.4878 64.4716 70.5313 69.5485 62.1755C72.1272 57.9318 74.4792 53.574 76.1875 49.447C77.8935 45.3258 78.9702 41.4053 78.9702 38.0442C78.9702 30.9699 76.1 24.5629 71.4608 19.9299C66.8229 15.2909 60.4151 12.4208 53.3461 12.4208C46.2769 12.4208 39.8691 15.291 35.2282 19.9268L35.2281 19.927C30.5921 24.563 27.7219 30.9699 27.7219 38.0442C27.7219 41.4053 28.7986 45.3258 30.5046 49.447C32.2129 53.574 34.5649 57.9318 37.1436 62.1755C42.2388 70.5607 48.1949 78.5029 51.8282 83.3274ZM66.3037 60.2096L66.6456 60.4173L66.3037 60.2096C61.982 67.3227 56.9593 74.1953 53.3481 79.0203C49.7296 74.1861 44.6965 67.3004 40.3884 60.2096L40.0465 60.4173L40.3884 60.2096C37.9441 56.187 35.7256 52.0969 34.1192 48.2789C32.51 44.4538 31.5295 40.9347 31.5295 38.0442C31.5295 32.0197 33.9713 26.5647 37.9187 22.6122C41.8617 18.6683 47.3174 16.2284 53.3461 16.2284C59.3748 16.2284 64.8305 18.6683 68.7734 22.6173L68.7736 22.6175C72.7208 26.5647 75.1626 32.0197 75.1626 38.0442C75.1626 40.9347 74.1821 44.4538 72.5729 48.2789C70.9665 52.0969 68.7481 56.187 66.3037 60.2096ZM53.345 93.6155C55.7831 93.6155 58.0134 93.4308 59.6479 93.1289C60.561 92.9603 61.3312 92.7321 61.8839 92.4423C62.4099 92.1665 62.8772 91.7582 62.8772 91.178C62.8772 90.5982 62.4097 90.1898 61.884 89.9141C61.3313 89.6242 60.5611 89.3956 59.6479 89.2271C58.0134 88.9252 55.7831 88.7405 53.345 88.7405C50.907 88.7405 48.6767 88.9252 47.0422 89.2271C46.129 89.3956 45.3589 89.6242 44.8065 89.9141C44.2809 90.19 43.8139 90.5983 43.8139 91.178C43.8139 91.7578 44.2813 92.1661 44.8069 92.4419C45.3595 92.7318 46.1294 92.9603 47.0422 93.1289C48.6767 93.4308 50.907 93.6155 53.345 93.6155Z" fill="white" stroke="white" stroke-width="0.8"/>
<circle cx="53.346" cy="37.6893" r="13.0392" stroke="white" stroke-width="5"/>
</svg>
