<svg width="232" height="232" viewBox="0 0 232 232" fill="none" xmlns="http://www.w3.org/2000/svg">
<rect x="0.560669" y="0.63501" width="230.77" height="230.767" rx="15" fill="#9691FF"/>
<path d="M79.397 193.234C69.1838 193.234 58.9498 193.234 48.7367 193.234C47.3193 193.234 45.902 193.234 44.4638 193.234C45.506 194.277 46.5481 195.319 47.5903 196.361C47.5903 190.504 47.5903 184.647 47.5903 178.79C47.5903 169.473 47.5903 160.135 47.5903 150.819C47.5903 148.693 47.5903 146.546 47.5903 144.42C46.5481 145.462 45.506 146.504 44.4638 147.546C54.677 147.546 64.911 147.546 75.1241 147.546C76.5415 147.546 77.9588 147.546 79.397 147.546C78.3548 146.504 77.3127 145.462 76.2705 144.42C76.2705 150.277 76.2705 156.134 76.2705 161.99C76.2705 171.307 76.2705 180.645 76.2705 189.962C76.2705 192.088 76.2705 194.235 76.2705 196.361C76.2705 197.987 77.7087 199.571 79.397 199.487C81.0853 199.404 82.5235 198.112 82.5235 196.361C82.5235 190.504 82.5235 184.647 82.5235 178.79C82.5235 169.473 82.5235 160.135 82.5235 150.819C82.5235 148.693 82.5235 146.546 82.5235 144.42C82.5235 142.731 81.0853 141.293 79.397 141.293C69.1838 141.293 58.9498 141.293 48.7367 141.293C47.3193 141.293 45.902 141.293 44.4638 141.293C42.7755 141.293 41.3373 142.731 41.3373 144.42C41.3373 150.277 41.3373 156.134 41.3373 161.99C41.3373 171.307 41.3373 180.645 41.3373 189.962C41.3373 192.088 41.3373 194.235 41.3373 196.361C41.3373 198.049 42.7755 199.487 44.4638 199.487C54.677 199.487 64.911 199.487 75.1241 199.487C76.5415 199.487 77.9588 199.487 79.397 199.487C81.0228 199.487 82.6068 198.049 82.5235 196.361C82.4401 194.673 81.1478 193.234 79.397 193.234Z" fill="white"/>
<path d="M133.423 193.234C123.209 193.234 112.975 193.234 102.762 193.234C101.345 193.234 99.9276 193.234 98.4894 193.234C99.5316 194.276 100.574 195.318 101.616 196.36C101.616 193.963 101.616 191.546 101.616 189.149C101.616 183.375 101.616 177.602 101.616 171.828C101.616 164.846 101.616 157.842 101.616 150.86C101.616 144.815 101.616 138.75 101.616 132.705C101.616 129.766 101.804 126.765 101.616 123.847C101.616 123.805 101.616 123.764 101.616 123.722C100.574 124.764 99.5316 125.806 98.4894 126.848C108.703 126.848 118.937 126.848 129.15 126.848C130.567 126.848 131.984 126.848 133.423 126.848C132.38 125.806 131.338 124.764 130.296 123.722C130.296 126.119 130.296 128.537 130.296 130.934C130.296 136.707 130.296 142.481 130.296 148.254C130.296 155.237 130.296 162.24 130.296 169.223C130.296 175.267 130.296 181.332 130.296 187.377C130.296 190.316 130.192 193.296 130.296 196.235C130.296 196.277 130.296 196.319 130.296 196.36C130.296 197.986 131.734 199.57 133.423 199.487C135.111 199.404 136.549 198.111 136.549 196.36C136.549 193.963 136.549 191.546 136.549 189.149C136.549 183.375 136.549 177.602 136.549 171.828C136.549 164.846 136.549 157.842 136.549 150.86C136.549 144.815 136.549 138.75 136.549 132.705C136.549 129.766 136.653 126.786 136.549 123.847C136.549 123.805 136.549 123.764 136.549 123.722C136.549 122.034 135.111 120.595 133.423 120.595C123.209 120.595 112.975 120.595 102.762 120.595C101.345 120.595 99.9276 120.595 98.4894 120.595C96.8011 120.595 95.363 122.034 95.363 123.722C95.363 126.119 95.363 128.537 95.363 130.934C95.363 136.707 95.363 142.481 95.363 148.254C95.363 155.237 95.363 162.24 95.363 169.223C95.363 175.267 95.363 181.332 95.363 187.377C95.363 190.316 95.2588 193.296 95.363 196.235C95.363 196.277 95.363 196.319 95.363 196.36C95.363 198.049 96.8011 199.487 98.4894 199.487C108.703 199.487 118.937 199.487 129.15 199.487C130.567 199.487 131.984 199.487 133.423 199.487C135.048 199.487 136.632 198.049 136.549 196.36C136.466 194.672 135.173 193.234 133.423 193.234Z" fill="white"/>
<path d="M187.448 193.235C177.235 193.235 167.001 193.235 156.788 193.235C155.37 193.235 153.953 193.235 152.515 193.235C153.557 194.277 154.599 195.319 155.641 196.361C155.641 193.089 155.641 189.816 155.641 186.544C155.641 178.644 155.641 170.745 155.641 162.866C155.641 153.341 155.641 143.836 155.641 134.311C155.641 126.057 155.641 117.803 155.641 109.549C155.641 105.589 155.871 101.545 155.641 97.5852C155.641 97.5227 155.641 97.481 155.641 97.4185C154.599 98.4606 153.557 99.5028 152.515 100.545C162.728 100.545 172.962 100.545 183.175 100.545C184.593 100.545 186.01 100.545 187.448 100.545C186.406 99.5028 185.364 98.4606 184.322 97.4185C184.322 100.691 184.322 103.963 184.322 107.236C184.322 115.135 184.322 123.035 184.322 130.913C184.322 140.439 184.322 149.943 184.322 159.469C184.322 167.723 184.322 175.976 184.322 184.23C184.322 188.211 184.197 192.213 184.322 196.194C184.322 196.257 184.322 196.299 184.322 196.361C184.322 197.987 185.76 199.571 187.448 199.488C189.136 199.404 190.575 198.112 190.575 196.361C190.575 193.089 190.575 189.816 190.575 186.544C190.575 178.644 190.575 170.745 190.575 162.866C190.575 153.341 190.575 143.836 190.575 134.311C190.575 126.057 190.575 117.803 190.575 109.549C190.575 105.568 190.7 101.566 190.575 97.5852C190.575 97.5227 190.575 97.481 190.575 97.4185C190.575 95.7302 189.136 94.292 187.448 94.292C177.235 94.292 167.001 94.292 156.788 94.292C155.37 94.292 153.953 94.292 152.515 94.292C150.827 94.292 149.388 95.7302 149.388 97.4185C149.388 100.691 149.388 103.963 149.388 107.236C149.388 115.135 149.388 123.035 149.388 130.913C149.388 140.439 149.388 149.943 149.388 159.469C149.388 167.723 149.388 175.976 149.388 184.23C149.388 188.211 149.263 192.213 149.388 196.194C149.388 196.257 149.388 196.299 149.388 196.361C149.388 198.049 150.827 199.488 152.515 199.488C162.728 199.488 172.962 199.488 183.175 199.488C184.593 199.488 186.01 199.488 187.448 199.488C189.074 199.488 190.658 198.049 190.575 196.361C190.512 194.673 189.22 193.235 187.448 193.235Z" fill="white"/>
<path d="M44.4638 121.096C53.9892 120.179 63.4103 118.261 72.623 115.635C82.8153 112.717 92.7575 108.903 102.408 104.484C112.6 99.8151 122.459 94.4167 131.922 88.393C141.968 81.9942 151.577 74.9075 160.685 67.2372C169.94 59.4418 178.652 51.0004 186.698 41.9753C187.698 40.8497 188.699 39.7034 189.678 38.557C190.783 37.2855 190.929 35.3888 189.678 34.1382C188.553 33.0127 186.364 32.8459 185.26 34.1382C177.422 43.2467 168.939 51.7924 159.893 59.7128C151.077 67.4248 142.302 74.1154 132.485 80.5977C123.147 86.7673 113.413 92.3324 103.325 97.1889C100.907 98.3561 98.4477 99.4816 95.9882 100.565C95.4254 100.816 94.8626 101.066 94.2999 101.295C94.0289 101.42 93.7371 101.545 93.4453 101.649C92.9659 101.858 93.8205 101.483 93.3411 101.691C93.1535 101.774 92.9659 101.858 92.7783 101.92C91.5694 102.42 90.3397 102.921 89.1308 103.4C84.4202 105.255 79.6263 106.964 74.7907 108.465C70.1218 109.903 65.3904 111.175 60.6381 112.238C58.3454 112.738 56.0318 113.196 53.7182 113.592C52.5927 113.78 51.4463 113.968 50.3208 114.134C50.0706 114.176 49.7997 114.218 49.5496 114.239C49.4245 114.259 48.5282 114.384 48.9243 114.322C49.2994 114.259 48.5491 114.364 48.4449 114.384C48.1531 114.426 47.8404 114.468 47.5486 114.489C46.5273 114.614 45.506 114.718 44.4847 114.822C42.8589 114.989 41.2748 116.156 41.3582 117.949C41.3999 119.512 42.713 121.263 44.4638 121.096Z" fill="white"/>
<path d="M164.541 39.4534C171.232 39.4534 177.902 39.4534 184.593 39.4534C185.551 39.4534 186.51 39.4534 187.469 39.4534C186.427 38.4112 185.385 37.3691 184.342 36.3269C184.342 43.0176 184.342 49.6874 184.342 56.3781C184.342 57.3368 184.342 58.2956 184.342 59.2544C184.342 60.8802 185.781 62.4643 187.469 62.3809C189.157 62.2975 190.595 61.0052 190.595 59.2544C190.595 52.5638 190.595 45.8939 190.595 39.2033C190.595 38.2445 190.595 37.2857 190.595 36.3269C190.595 34.6386 189.157 33.2004 187.469 33.2004C180.778 33.2004 174.108 33.2004 167.418 33.2004C166.459 33.2004 165.5 33.2004 164.541 33.2004C162.916 33.2004 161.332 34.6386 161.415 36.3269C161.498 38.0152 162.791 39.4534 164.541 39.4534Z" fill="white"/>
<path d="M33.2711 199.488C34.751 199.488 36.2308 199.488 37.7107 199.488C41.7126 199.488 45.7145 199.488 49.7164 199.488C55.6567 199.488 61.597 199.488 67.5373 199.488C74.749 199.488 81.9816 199.488 89.1934 199.488C97.1346 199.488 105.076 199.488 113.017 199.488C121 199.488 128.983 199.488 136.966 199.488C144.449 199.488 151.911 199.488 159.393 199.488C165.688 199.488 171.982 199.488 178.277 199.488C182.821 199.488 187.365 199.488 191.909 199.488C194.055 199.488 196.202 199.529 198.349 199.488C198.432 199.488 198.537 199.488 198.62 199.488C200.246 199.488 201.83 198.049 201.747 196.361C201.663 194.673 200.371 193.235 198.62 193.235C197.14 193.235 195.66 193.235 194.18 193.235C190.179 193.235 186.177 193.235 182.175 193.235C176.235 193.235 170.294 193.235 164.354 193.235C157.142 193.235 149.91 193.235 142.698 193.235C134.757 193.235 126.815 193.235 118.874 193.235C110.891 193.235 102.908 193.235 94.9252 193.235C87.4425 193.235 79.9807 193.235 72.498 193.235C66.2033 193.235 59.9087 193.235 53.6141 193.235C49.0702 193.235 44.5264 193.235 39.9826 193.235C37.8358 193.235 35.6889 193.193 33.5421 193.235C33.4587 193.235 33.3545 193.235 33.2711 193.235C31.6453 193.235 30.0613 194.673 30.1446 196.361C30.228 198.049 31.5203 199.488 33.2711 199.488Z" fill="white"/>
</svg>
