<svg width="1134" height="170" viewBox="0 0 1134 170" fill="none" xmlns="http://www.w3.org/2000/svg">
<path d="M37.7349 24.5309V65.1196H28.539L13.8731 43.7947H13.6353V65.1196H2.61607V24.5309H11.9705L26.3985 45.7765H26.7156V24.5309H37.7349ZM66.9675 24.5309H77.9867V50.533C77.9867 53.6248 77.2468 56.3003 75.767 58.5596C74.3004 60.8058 72.2525 62.5432 69.6232 63.772C66.9939 64.9875 63.9418 65.5953 60.4669 65.5953C56.9656 65.5953 53.9003 64.9875 51.2711 63.772C48.6418 62.5432 46.5938 60.8058 45.1272 58.5596C43.6739 56.3003 42.9472 53.6248 42.9472 50.533V24.5309H53.9664V49.5817C53.9664 50.8369 54.2439 51.96 54.7988 52.9509C55.3537 53.9287 56.12 54.695 57.0978 55.2499C58.0887 55.8048 59.2118 56.0823 60.4669 56.0823C61.7353 56.0823 62.8584 55.8048 63.8361 55.2499C64.8138 54.695 65.5802 53.9287 66.1351 52.9509C66.69 51.96 66.9675 50.8369 66.9675 49.5817V24.5309ZM83.2238 24.5309H96.9384L106.372 47.5206H106.848L116.281 24.5309H129.996V65.1196H119.215V41.6543H118.898L109.86 64.8025H103.36L94.3223 41.4957H94.0052V65.1196H83.2238V24.5309ZM135.218 65.1196V24.5309H152.817C155.909 24.5309 158.505 24.9471 160.606 25.7795C162.72 26.6118 164.312 27.7877 165.382 29.3072C166.466 30.8266 167.007 32.6169 167.007 34.6781C167.007 36.1711 166.677 37.532 166.017 38.7607C165.369 39.9895 164.457 41.0201 163.282 41.8524C162.106 42.6716 160.732 43.2398 159.159 43.5569V43.9532C160.903 44.0193 162.489 44.4619 163.916 45.2811C165.343 46.087 166.479 47.2035 167.325 48.6304C168.17 50.0442 168.593 51.709 168.593 53.6248C168.593 55.8445 168.012 57.8197 166.849 59.5506C165.699 61.2814 164.061 62.6423 161.934 63.6332C159.807 64.6242 157.27 65.1196 154.323 65.1196H135.218ZM146.237 56.3201H151.39C153.24 56.3201 154.627 55.9766 155.552 55.2895C156.477 54.5893 156.94 53.5587 156.94 52.1978C156.94 51.2465 156.722 50.4406 156.286 49.7799C155.85 49.1193 155.229 48.6172 154.423 48.2737C153.63 47.9302 152.672 47.7584 151.549 47.7584H146.237V56.3201ZM146.237 40.9408H150.756C151.721 40.9408 152.573 40.7888 153.313 40.4849C154.053 40.1811 154.627 39.745 155.037 39.1769C155.46 38.5956 155.671 37.8887 155.671 37.0563C155.671 35.8011 155.222 34.8432 154.323 34.1826C153.425 33.5088 152.289 33.1718 150.915 33.1718H146.237V40.9408ZM172.497 65.1196V24.5309H201.75V33.4097H183.516V40.3859H200.243V49.2646H183.516V56.2408H201.67V65.1196H172.497ZM207.215 65.1196V24.5309H224.734C227.747 24.5309 230.383 25.0792 232.642 26.1758C234.901 27.2725 236.659 28.8514 237.914 30.9125C239.169 32.9737 239.797 35.4444 239.797 38.3247C239.797 41.2315 239.149 43.6824 237.854 45.6775C236.573 47.6725 234.769 49.1788 232.444 50.1961C230.132 51.2135 227.43 51.7222 224.338 51.7222H213.874V43.1605H222.118C223.413 43.1605 224.516 43.0019 225.428 42.6848C226.353 42.3545 227.06 41.8326 227.549 41.1191C228.051 40.4057 228.302 39.4742 228.302 38.3247C228.302 37.162 228.051 36.2173 227.549 35.4906C227.06 34.7507 226.353 34.209 225.428 33.8655C224.516 33.5088 223.413 33.3304 222.118 33.3304H218.234V65.1196H207.215ZM230.997 46.49L241.144 65.1196H229.174L219.265 46.49H230.997ZM294.932 44.8253C294.932 49.3439 294.054 53.1557 292.297 56.2607C290.539 59.3524 288.168 61.6976 285.182 63.2963C282.196 64.8818 278.866 65.6746 275.193 65.6746C271.493 65.6746 268.151 64.8752 265.165 63.2765C262.192 61.6646 259.827 59.3127 258.07 56.221C256.326 53.1161 255.454 49.3175 255.454 44.8253C255.454 40.3066 256.326 36.5014 258.07 33.4097C259.827 30.3047 262.192 27.9595 265.165 26.374C268.151 24.7753 271.493 23.9759 275.193 23.9759C278.866 23.9759 282.196 24.7753 285.182 26.374C288.168 27.9595 290.539 30.3047 292.297 33.4097C294.054 36.5014 294.932 40.3066 294.932 44.8253ZM283.596 44.8253C283.596 42.3942 283.272 40.3462 282.625 38.6814C281.991 37.0035 281.046 35.7351 279.791 34.8762C278.549 34.0042 277.016 33.5682 275.193 33.5682C273.37 33.5682 271.83 34.0042 270.575 34.8762C269.333 35.7351 268.389 37.0035 267.741 38.6814C267.107 40.3462 266.79 42.3942 266.79 44.8253C266.79 47.2563 267.107 49.3109 267.741 50.9889C268.389 52.6536 269.333 53.922 270.575 54.7941C271.83 55.6529 273.37 56.0823 275.193 56.0823C277.016 56.0823 278.549 55.6529 279.791 54.7941C281.046 53.922 281.991 52.6536 282.625 50.9889C283.272 49.3109 283.596 47.2563 283.596 44.8253ZM300.031 65.1196V24.5309H328.57V33.4097H311.05V40.3859H326.826V49.2646H311.05V65.1196H300.031ZM343.741 65.1196V24.5309H361.261C364.273 24.5309 366.909 25.0792 369.168 26.1758C371.428 27.2725 373.185 28.8514 374.44 30.9125C375.695 32.9737 376.323 35.4444 376.323 38.3247C376.323 41.2315 375.676 43.6824 374.381 45.6775C373.099 47.6725 371.296 49.1788 368.97 50.1961C366.658 51.2135 363.956 51.7222 360.864 51.7222H350.4V43.1605H358.645C359.939 43.1605 361.043 43.0019 361.954 42.6848C362.879 42.3545 363.586 41.8326 364.075 41.1191C364.577 40.4057 364.828 39.4742 364.828 38.3247C364.828 37.162 364.577 36.2173 364.075 35.4906C363.586 34.7507 362.879 34.209 361.954 33.8655C361.043 33.5088 359.939 33.3304 358.645 33.3304H354.76V65.1196H343.741ZM367.523 46.49L377.671 65.1196H365.7L355.791 46.49H367.523ZM381.02 65.1196V24.5309H410.272V33.4097H392.039V40.3859H408.766V49.2646H392.039V56.2408H410.193V65.1196H381.02ZM453.631 39.7517H442.453C442.374 38.8268 442.162 37.9878 441.819 37.2347C441.489 36.4816 441.026 35.8342 440.432 35.2924C439.85 34.7375 439.143 34.3147 438.311 34.024C437.479 33.7202 436.534 33.5682 435.477 33.5682C433.627 33.5682 432.061 34.0174 430.78 34.9159C429.511 35.8143 428.547 37.1026 427.886 38.7805C427.239 40.4585 426.915 42.4734 426.915 44.8253C426.915 47.3092 427.246 49.3902 427.906 51.0682C428.58 52.7329 429.551 53.9881 430.82 54.8337C432.088 55.6661 433.614 56.0823 435.398 56.0823C436.415 56.0823 437.327 55.9568 438.133 55.7057C438.939 55.4415 439.639 55.0649 440.233 54.5761C440.828 54.0872 441.31 53.4992 441.68 52.8122C442.063 52.1119 442.321 51.3258 442.453 50.4538L453.631 50.533C453.499 52.2507 453.017 54.0013 452.184 55.785C451.352 57.5555 450.169 59.1938 448.637 60.7001C447.117 62.1931 445.234 63.3954 442.988 64.3071C440.742 65.2187 438.133 65.6746 435.16 65.6746C431.434 65.6746 428.091 64.8752 425.132 63.2765C422.185 61.6778 419.853 59.326 418.136 56.221C416.431 53.1161 415.579 49.3175 415.579 44.8253C415.579 40.3066 416.451 36.5014 418.195 33.4097C419.939 30.3047 422.291 27.9595 425.25 26.374C428.21 24.7753 431.513 23.9759 435.16 23.9759C437.723 23.9759 440.081 24.3261 442.235 25.0263C444.389 25.7266 446.278 26.7506 447.903 28.0982C449.528 29.4327 450.836 31.0777 451.827 33.0331C452.818 34.9886 453.419 37.2281 453.631 39.7517ZM456.965 24.5309H469.253L477.181 41.0201H477.498L485.425 24.5309H497.713L482.809 52.3564V65.1196H471.869V52.3564L456.965 24.5309ZM536.364 39.7517H525.186C525.107 38.8268 524.896 37.9878 524.552 37.2347C524.222 36.4816 523.759 35.8342 523.165 35.2924C522.584 34.7375 521.877 34.3147 521.044 34.024C520.212 33.7202 519.267 33.5682 518.21 33.5682C516.36 33.5682 514.795 34.0174 513.513 34.9159C512.245 35.8143 511.28 37.1026 510.62 38.7805C509.972 40.4585 509.649 42.4734 509.649 44.8253C509.649 47.3092 509.979 49.3902 510.639 51.0682C511.313 52.7329 512.284 53.9881 513.553 54.8337C514.821 55.6661 516.347 56.0823 518.131 56.0823C519.148 56.0823 520.06 55.9568 520.866 55.7057C521.672 55.4415 522.372 55.0649 522.967 54.5761C523.561 54.0872 524.044 53.4992 524.413 52.8122C524.797 52.1119 525.054 51.3258 525.186 50.4538L536.364 50.533C536.232 52.2507 535.75 54.0013 534.917 55.785C534.085 57.5555 532.902 59.1938 531.37 60.7001C529.85 62.1931 527.968 63.3954 525.721 64.3071C523.475 65.2187 520.866 65.6746 517.893 65.6746C514.167 65.6746 510.824 64.8752 507.865 63.2765C504.918 61.6778 502.586 59.326 500.869 56.221C499.164 53.1161 498.312 49.3175 498.312 44.8253C498.312 40.3066 499.184 36.5014 500.928 33.4097C502.672 30.3047 505.024 27.9595 507.984 26.374C510.943 24.7753 514.246 23.9759 517.893 23.9759C520.456 23.9759 522.815 24.3261 524.968 25.0263C527.122 25.7266 529.011 26.7506 530.637 28.0982C532.262 29.4327 533.57 31.0777 534.561 33.0331C535.552 34.9886 536.153 37.2281 536.364 39.7517ZM541.363 65.1196V24.5309H552.383V56.2408H568.793V65.1196H541.363ZM583.79 65.1196H571.899L585.297 24.5309H600.359L613.756 65.1196H601.865L592.986 35.7086H592.669L583.79 65.1196ZM581.571 49.1061H603.926V57.3507H581.571V49.1061ZM617.666 65.1196V24.5309H635.265C638.356 24.5309 640.953 24.9471 643.053 25.7795C645.167 26.6118 646.759 27.7877 647.83 29.3072C648.913 30.8266 649.455 32.6169 649.455 34.6781C649.455 36.1711 649.125 37.532 648.464 38.7607C647.816 39.9895 646.905 41.0201 645.729 41.8524C644.553 42.6716 643.179 43.2398 641.607 43.5569V43.9532C643.351 44.0193 644.936 44.4619 646.363 45.2811C647.79 46.087 648.926 47.2035 649.772 48.6304C650.618 50.0442 651.04 51.709 651.04 53.6248C651.04 55.8445 650.459 57.8197 649.296 59.5506C648.147 61.2814 646.508 62.6423 644.381 63.6332C642.254 64.6242 639.717 65.1196 636.771 65.1196H617.666ZM628.685 56.3201H633.838C635.687 56.3201 637.075 55.9766 638 55.2895C638.924 54.5893 639.387 53.5587 639.387 52.1978C639.387 51.2465 639.169 50.4406 638.733 49.7799C638.297 49.1193 637.676 48.6172 636.87 48.2737C636.077 47.9302 635.119 47.7584 633.996 47.7584H628.685V56.3201ZM628.685 40.9408H633.203C634.168 40.9408 635.02 40.7888 635.76 40.4849C636.5 40.1811 637.075 39.745 637.484 39.1769C637.907 38.5956 638.119 37.8887 638.119 37.0563C638.119 35.8011 637.669 34.8432 636.771 34.1826C635.872 33.5088 634.736 33.1718 633.362 33.1718H628.685V40.9408ZM654.945 65.1196V24.5309H665.964V56.2408H682.374V65.1196H654.945ZM686.828 65.1196V24.5309H716.08V33.4097H697.847V40.3859H714.574V49.2646H697.847V56.2408H716.001V65.1196H686.828ZM743.425 37.2149C743.32 35.8936 742.824 34.863 741.939 34.1231C741.067 33.3832 739.739 33.0133 737.955 33.0133C736.819 33.0133 735.888 33.152 735.161 33.4295C734.447 33.6937 733.919 34.0571 733.575 34.5195C733.232 34.9819 733.053 35.5104 733.04 36.105C733.014 36.5939 733.1 37.0365 733.298 37.4329C733.509 37.816 733.84 38.1662 734.289 38.4833C734.738 38.7871 735.313 39.0646 736.013 39.3156C736.713 39.5667 737.546 39.7913 738.51 39.9895L741.84 40.703C744.086 41.1786 746.008 41.8062 747.607 42.5857C749.206 43.3653 750.514 44.2835 751.531 45.3405C752.548 46.3843 753.295 47.5602 753.771 48.8683C754.26 50.1763 754.511 51.6033 754.524 53.1491C754.511 55.818 753.843 58.0774 752.522 59.9271C751.201 61.7769 749.311 63.184 746.854 64.1485C744.41 65.113 741.47 65.5953 738.035 65.5953C734.507 65.5953 731.428 65.0734 728.799 64.0296C726.183 62.9858 724.148 61.3805 722.695 59.2136C721.255 57.0336 720.528 54.2458 720.515 50.8501H730.979C731.045 52.0921 731.356 53.1359 731.911 53.9815C732.466 54.8271 733.245 55.4679 734.249 55.9039C735.267 56.3399 736.476 56.5579 737.876 56.5579C739.052 56.5579 740.036 56.4126 740.829 56.1219C741.622 55.8313 742.223 55.4283 742.633 54.913C743.042 54.3977 743.254 53.8097 743.267 53.1491C743.254 52.5281 743.049 51.9864 742.652 51.524C742.269 51.0483 741.635 50.6255 740.75 50.2556C739.865 49.8724 738.669 49.5157 737.163 49.1854L733.12 48.3133C729.526 47.5338 726.692 46.2324 724.617 44.4091C722.556 42.5725 721.532 40.0688 721.545 36.8978C721.532 34.3213 722.219 32.0686 723.607 30.1396C725.007 28.1973 726.943 26.6845 729.413 25.6011C731.897 24.5177 734.745 23.9759 737.955 23.9759C741.232 23.9759 744.066 24.5243 746.458 25.6209C748.849 26.7175 750.692 28.2634 751.987 30.2585C753.295 32.2404 753.956 34.5591 753.969 37.2149H743.425Z" fill="#9493F8"/>
<path d="M806.576 39.7514H795.398C795.319 38.8266 795.108 37.9876 794.764 37.2344C794.434 36.4813 793.971 35.8339 793.377 35.2922C792.795 34.7373 792.089 34.3145 791.256 34.0238C790.424 33.7199 789.479 33.568 788.422 33.568C786.572 33.568 785.007 34.0172 783.725 34.9156C782.457 35.8141 781.492 37.1023 780.831 38.7803C780.184 40.4583 779.86 42.4732 779.86 44.8251C779.86 47.3091 780.191 49.39 780.851 51.068C781.525 52.7328 782.496 53.988 783.765 54.8336C785.033 55.666 786.559 56.0822 788.343 56.0822C789.36 56.0822 790.272 55.9567 791.078 55.7057C791.884 55.4414 792.584 55.0648 793.179 54.576C793.773 54.0871 794.255 53.4992 794.625 52.8121C795.009 52.1118 795.266 51.3257 795.398 50.4536L806.576 50.5329C806.444 52.2506 805.962 54.0012 805.129 55.7849C804.297 57.5554 803.115 59.1938 801.582 60.7C800.062 62.193 798.18 63.3954 795.933 64.3071C793.687 65.2187 791.078 65.6746 788.105 65.6746C784.379 65.6746 781.036 64.8752 778.077 63.2765C775.13 61.6777 772.798 59.3259 771.081 56.2209C769.376 53.116 768.524 49.3174 768.524 44.8251C768.524 40.3064 769.396 36.5011 771.14 33.4094C772.884 30.3044 775.236 27.9592 778.196 26.3737C781.155 24.775 784.458 23.9756 788.105 23.9756C790.668 23.9756 793.027 24.3257 795.18 25.026C797.334 25.7263 799.223 26.7503 800.849 28.0979C802.474 29.4324 803.782 31.0774 804.773 33.0328C805.764 34.9883 806.365 37.2278 806.576 39.7514ZM850.338 44.8251C850.338 49.3438 849.459 53.1556 847.702 56.2606C845.945 59.3523 843.573 61.6976 840.587 63.2963C837.601 64.8818 834.272 65.6746 830.599 65.6746C826.899 65.6746 823.556 64.8752 820.57 63.2765C817.597 61.6645 815.232 59.3127 813.475 56.2209C811.731 53.116 810.859 49.3174 810.859 44.8251C810.859 40.3064 811.731 36.5011 813.475 33.4094C815.232 30.3044 817.597 27.9592 820.57 26.3737C823.556 24.775 826.899 23.9756 830.599 23.9756C834.272 23.9756 837.601 24.775 840.587 26.3737C843.573 27.9592 845.945 30.3044 847.702 33.4094C849.459 36.5011 850.338 40.3064 850.338 44.8251ZM839.002 44.8251C839.002 42.394 838.678 40.346 838.031 38.6812C837.396 37.0032 836.452 35.7348 835.196 34.876C833.955 34.004 832.422 33.568 830.599 33.568C828.775 33.568 827.236 34.004 825.981 34.876C824.739 35.7348 823.794 37.0032 823.147 38.6812C822.512 40.346 822.195 42.394 822.195 44.8251C822.195 47.2562 822.512 49.3108 823.147 50.9888C823.794 52.6535 824.739 53.922 825.981 54.794C827.236 55.6528 828.775 56.0822 830.599 56.0822C832.422 56.0822 833.955 55.6528 835.196 54.794C836.452 53.922 837.396 52.6535 838.031 50.9888C838.678 49.3108 839.002 47.2562 839.002 44.8251ZM854.878 65.1196V24.5305H865.898V56.2408H882.308V65.1196H854.878ZM886.204 65.1196V24.5305H897.223V56.2408H913.633V65.1196H886.204ZM917.53 65.1196V24.5305H946.782V33.4094H928.549V40.3856H945.276V49.2645H928.549V56.2408H946.703V65.1196H917.53ZM989.583 39.7514H978.405C978.326 38.8266 978.114 37.9876 977.771 37.2344C977.441 36.4813 976.978 35.8339 976.384 35.2922C975.802 34.7373 975.095 34.3145 974.263 34.0238C973.43 33.7199 972.486 33.568 971.429 33.568C969.579 33.568 968.013 34.0172 966.732 34.9156C965.463 35.8141 964.499 37.1023 963.838 38.7803C963.191 40.4583 962.867 42.4732 962.867 44.8251C962.867 47.3091 963.197 49.39 963.858 51.068C964.532 52.7328 965.503 53.988 966.771 54.8336C968.04 55.666 969.566 56.0822 971.35 56.0822C972.367 56.0822 973.279 55.9567 974.085 55.7057C974.89 55.4414 975.591 55.0648 976.185 54.576C976.78 54.0871 977.262 53.4992 977.632 52.8121C978.015 52.1118 978.273 51.3257 978.405 50.4536L989.583 50.5329C989.451 52.2506 988.969 54.0012 988.136 55.7849C987.304 57.5554 986.121 59.1938 984.589 60.7C983.069 62.193 981.186 63.3954 978.94 64.3071C976.694 65.2187 974.085 65.6746 971.112 65.6746C967.386 65.6746 964.043 64.8752 961.083 63.2765C958.137 61.6777 955.805 59.3259 954.087 56.2209C952.383 53.116 951.531 49.3174 951.531 44.8251C951.531 40.3064 952.403 36.5011 954.147 33.4094C955.891 30.3044 958.243 27.9592 961.202 26.3737C964.162 24.775 967.465 23.9756 971.112 23.9756C973.675 23.9756 976.033 24.3257 978.187 25.026C980.341 25.7263 982.23 26.7503 983.855 28.0979C985.48 29.4324 986.788 31.0774 987.779 33.0328C988.77 34.9883 989.371 37.2278 989.583 39.7514ZM992.914 33.4094V24.5305H1028.19V33.4094H1015.98V65.1196H1005.12V33.4094H992.914ZM1031.78 65.1196V24.5305H1061.03V33.4094H1042.8V40.3856H1059.53V49.2645H1042.8V56.2408H1060.95V65.1196H1031.78ZM1081.56 65.1196H1065.94V24.5305H1081.4C1085.57 24.5305 1089.18 25.3431 1092.22 26.9683C1095.27 28.5802 1097.62 30.9056 1099.28 33.9445C1100.94 36.9702 1101.77 40.5971 1101.77 44.8251C1101.77 49.0531 1100.95 52.6866 1099.3 55.7255C1097.64 58.7512 1095.31 61.0766 1092.28 62.7017C1089.25 64.3137 1085.68 65.1196 1081.56 65.1196ZM1076.96 55.7651H1081.16C1083.17 55.7651 1084.88 55.4414 1086.29 54.794C1087.72 54.1466 1088.8 53.0301 1089.54 51.4446C1090.3 49.8591 1090.67 47.6526 1090.67 44.8251C1090.67 41.9976 1090.29 39.7911 1089.53 38.2056C1088.77 36.6201 1087.66 35.5036 1086.2 34.8562C1084.74 34.2088 1082.96 33.8851 1080.84 33.8851H1076.96V55.7651Z" fill="#9493F8"/>
<rect y="79.1196" width="721" height="66" rx="33" fill="#9493F8"/>
<path d="M41.1597 132.62H29.2684L42.666 92.0305H57.7283L71.1259 132.62H59.2346L50.3557 103.208H50.0386L41.1597 132.62ZM38.94 116.606H61.2957V124.851H38.94V116.606ZM68.244 100.909V92.0305H103.522V100.909H91.3132V132.62H80.4525V100.909H68.244ZM137.648 92.0305V132.62H126.629V102.178H126.391L117.512 107.489V98.1348L127.501 92.0305H137.648ZM155.905 132.62V92.0305H166.924V123.741H183.335V132.62H155.905ZM224.971 112.325C224.971 116.844 224.092 120.656 222.335 123.761C220.578 126.852 218.206 129.198 215.22 130.796C212.234 132.382 208.904 133.175 205.231 133.175C201.532 133.175 198.189 132.375 195.203 130.776C192.23 129.165 189.865 126.813 188.108 123.721C186.364 120.616 185.492 116.817 185.492 112.325C185.492 107.806 186.364 104.001 188.108 100.909C189.865 97.8044 192.23 95.4592 195.203 93.8737C198.189 92.275 201.532 91.4756 205.231 91.4756C208.904 91.4756 212.234 92.275 215.22 93.8737C218.206 95.4592 220.578 97.8044 222.335 100.909C224.092 104.001 224.971 107.806 224.971 112.325ZM213.634 112.325C213.634 109.894 213.311 107.846 212.663 106.181C212.029 104.503 211.084 103.235 209.829 102.376C208.587 101.504 207.055 101.068 205.231 101.068C203.408 101.068 201.869 101.504 200.613 102.376C199.371 103.235 198.427 104.503 197.779 106.181C197.145 107.846 196.828 109.894 196.828 112.325C196.828 114.756 197.145 116.811 197.779 118.489C198.427 120.154 199.371 121.422 200.613 122.294C201.869 123.153 203.408 123.582 205.231 123.582C207.055 123.582 208.587 123.153 209.829 122.294C211.084 121.422 212.029 120.154 212.663 118.489C213.311 116.811 213.634 114.756 213.634 112.325ZM267.405 107.251H256.227C256.148 106.327 255.936 105.488 255.593 104.734C255.263 103.981 254.8 103.334 254.206 102.792C253.624 102.237 252.917 101.814 252.085 101.524C251.252 101.22 250.308 101.068 249.251 101.068C247.401 101.068 245.835 101.517 244.554 102.416C243.285 103.314 242.321 104.602 241.66 106.28C241.013 107.958 240.689 109.973 240.689 112.325C240.689 114.809 241.019 116.89 241.68 118.568C242.354 120.233 243.325 121.488 244.593 122.334C245.862 123.166 247.388 123.582 249.172 123.582C250.189 123.582 251.101 123.457 251.907 123.206C252.712 122.941 253.413 122.565 254.007 122.076C254.602 121.587 255.084 120.999 255.454 120.312C255.837 119.612 256.095 118.826 256.227 117.954L267.405 118.033C267.273 119.751 266.791 121.501 265.958 123.285C265.126 125.055 263.943 126.694 262.411 128.2C260.891 129.693 259.008 130.895 256.762 131.807C254.516 132.719 251.907 133.175 248.934 133.175C245.208 133.175 241.865 132.375 238.905 130.776C235.959 129.178 233.627 126.826 231.909 123.721C230.205 120.616 229.353 116.817 229.353 112.325C229.353 107.806 230.225 104.001 231.969 100.909C233.713 97.8044 236.065 95.4592 239.024 93.8737C241.984 92.275 245.287 91.4756 248.934 91.4756C251.497 91.4756 253.855 91.8257 256.009 92.526C258.163 93.2263 260.052 94.2503 261.677 95.5979C263.302 96.9324 264.61 98.5774 265.601 100.533C266.592 102.488 267.193 104.728 267.405 107.251ZM281.136 132.62H269.245L282.642 92.0305H297.705L311.102 132.62H299.211L290.332 103.208H290.015L281.136 132.62ZM278.917 116.606H301.272V124.851H278.917V116.606ZM308.22 100.909V92.0305H343.498V100.909H331.29V132.62H320.429V100.909H308.22ZM358.106 92.0305V132.62H347.087V92.0305H358.106ZM402.091 112.325C402.091 116.844 401.213 120.656 399.455 123.761C397.698 126.852 395.326 129.198 392.34 130.796C389.354 132.382 386.025 133.175 382.352 133.175C378.652 133.175 375.309 132.375 372.323 130.776C369.351 129.165 366.985 126.813 365.228 123.721C363.484 120.616 362.612 116.817 362.612 112.325C362.612 107.806 363.484 104.001 365.228 100.909C366.985 97.8044 369.351 95.4592 372.323 93.8737C375.309 92.275 378.652 91.4756 382.352 91.4756C386.025 91.4756 389.354 92.275 392.34 93.8737C395.326 95.4592 397.698 97.8044 399.455 100.909C401.213 104.001 402.091 107.806 402.091 112.325ZM390.755 112.325C390.755 109.894 390.431 107.846 389.784 106.181C389.15 104.503 388.205 103.235 386.95 102.376C385.708 101.504 384.175 101.068 382.352 101.068C380.528 101.068 378.989 101.504 377.734 102.376C376.492 103.235 375.547 104.503 374.9 106.181C374.266 107.846 373.948 109.894 373.948 112.325C373.948 114.756 374.266 116.811 374.9 118.489C375.547 120.154 376.492 121.422 377.734 122.294C378.989 123.153 380.528 123.582 382.352 123.582C384.175 123.582 385.708 123.153 386.95 122.294C388.205 121.422 389.15 120.154 389.784 118.489C390.431 116.811 390.755 114.756 390.755 112.325ZM441.751 92.0305V132.62H432.555L417.889 111.295H417.651V132.62H406.632V92.0305H415.986L430.414 113.276H430.731V92.0305H441.751ZM456.965 132.62V92.0305H474.485C477.498 92.0305 480.134 92.6251 482.393 93.8142C484.652 95.0034 486.41 96.6748 487.665 98.8284C488.92 100.982 489.548 103.499 489.548 106.379C489.548 109.286 488.9 111.803 487.605 113.93C486.324 116.058 484.52 117.696 482.195 118.845C479.883 119.995 477.181 120.57 474.089 120.57H463.624V112.008H471.869C473.164 112.008 474.267 111.783 475.179 111.334C476.104 110.872 476.811 110.218 477.299 109.372C477.802 108.526 478.053 107.529 478.053 106.379C478.053 105.217 477.802 104.226 477.299 103.407C476.811 102.574 476.104 101.94 475.179 101.504C474.267 101.055 473.164 100.83 471.869 100.83H467.985V132.62H456.965ZM493.032 132.62V92.0305H522.285V100.909H504.052V107.886H520.779V116.765H504.052V123.741H522.206V132.62H493.032ZM527.192 132.62V92.0305H544.712C547.724 92.0305 550.36 92.5789 552.62 93.6755C554.879 94.7721 556.636 96.3511 557.892 98.4122C559.147 100.473 559.774 102.944 559.774 105.824C559.774 108.731 559.127 111.182 557.832 113.177C556.551 115.172 554.747 116.679 552.422 117.696C550.109 118.713 547.407 119.222 544.316 119.222H533.851V110.66H542.096C543.391 110.66 544.494 110.502 545.406 110.185C546.331 109.854 547.037 109.332 547.526 108.619C548.028 107.905 548.279 106.974 548.279 105.824C548.279 104.662 548.028 103.717 547.526 102.99C547.037 102.25 546.331 101.709 545.406 101.365C544.494 101.008 543.391 100.83 542.096 100.83H538.211V132.62H527.192ZM550.975 113.99L561.122 132.62H549.151L539.242 113.99H550.975ZM590.091 132.62H574.474V92.0305H589.932C594.108 92.0305 597.715 92.8431 600.753 94.4683C603.806 96.0802 606.157 98.4056 607.809 101.445C609.474 104.47 610.306 108.097 610.306 112.325C610.306 116.553 609.48 120.187 607.829 123.225C606.177 126.251 603.839 128.577 600.813 130.202C597.787 131.814 594.213 132.62 590.091 132.62ZM585.493 123.265H589.695C591.703 123.265 593.414 122.941 594.828 122.294C596.255 121.647 597.338 120.53 598.078 118.945C598.831 117.359 599.208 115.153 599.208 112.325C599.208 109.498 598.824 107.291 598.058 105.706C597.305 104.12 596.195 103.004 594.729 102.356C593.275 101.709 591.491 101.385 589.377 101.385H585.493V123.265ZM622.829 132.62H610.937L624.335 92.0305H639.397L652.795 132.62H640.903L632.025 103.208H631.707L622.829 132.62ZM620.609 116.606H642.965V124.851H620.609V116.606ZM650.339 92.0305H662.627L670.554 108.52H670.871L678.799 92.0305H691.087L676.183 119.856V132.62H665.243V119.856L650.339 92.0305Z" fill="white"/>
</svg>
