<svg width="106" height="105" viewBox="0 0 106 105" fill="none" xmlns="http://www.w3.org/2000/svg">
<rect x="0.844696" width="105.001" height="105" rx="15" fill="#9691FF"/>
<path d="M35.7515 23.6682L36.1551 23.6619V23.2583V21.5661C36.1551 19.9456 37.4688 18.6319 39.0892 18.6319C40.7098 18.6319 42.0234 19.9456 42.0234 21.5661V23.2382V23.6482H42.4334H62.4985H62.9085V23.2382V21.5661C62.9085 19.9456 64.2222 18.6319 65.8427 18.6319C67.4633 18.6319 68.7769 19.9456 68.7769 21.5661V23.2583V23.6619L69.1805 23.6682C70.8349 23.6941 72.2943 23.7532 73.5746 23.887C75.947 24.1349 78.0507 24.6656 79.9104 25.9528C81.1932 26.8407 82.3054 27.9527 83.1933 29.2355C84.4804 31.0954 85.0112 33.199 85.2589 35.5714C85.4773 37.6593 85.4961 40.2154 85.4978 43.3035V43.8639V43.8645V43.8651V43.8657V43.8663V43.8668V43.8674V43.868V43.8686V43.8692V43.8698V43.8704V43.871V43.8716V43.8722V43.8728V43.8734V43.874V43.8746V43.8751V43.8757V43.8763V43.8769V43.8775V43.8781V43.8787V43.8793V43.8799V43.8805V43.8811V43.8817V43.8823V43.8829V43.8835V43.884V43.8846V43.8852V43.8858V43.8864V43.887V43.8876V43.8882V43.8888V43.8894V43.89V43.8906V43.8912V43.8918V43.8924V43.8929V43.8935V43.8941V43.8947V43.8953V43.8959V43.8965V43.8971V43.8977V43.8983V43.8989V43.8995V43.9001V43.9007V43.9013V43.9019V43.9024V43.903V43.9036V43.9042V43.9048V43.9054V43.906V43.9066V43.9072V43.9078V43.9084V43.909V43.9096V43.9102V43.9108V43.9114V43.912V43.9125V43.9131V43.9137V43.9143V43.9149V43.9155V43.9161V43.9167V43.9173V43.9179V43.9185V43.9191V43.9197V43.9203V43.9209V43.9215V43.9221V43.9227V43.9232V43.9238V43.9244V43.925V43.9256V43.9262V43.9268V43.9274V43.928V43.9286V43.9292V43.9298V43.9304V43.931V43.9316V43.9322V43.9328V43.9334V43.934V43.9345V43.9351V43.9357V43.9363V43.9369V43.9375V43.9381V43.9387V43.9393V43.9399V43.9405V43.9411V43.9417V43.9423V43.9429V43.9435V43.9441V43.9447V43.9453V43.9458V43.9464V43.947V43.9476V43.9482V43.9488V43.9494V43.95V43.9506V43.9512V43.9518V43.9524V43.953V43.9536V43.9542V43.9548V43.9554V43.956V43.9566V43.9572V43.9578V43.9584V43.9589V43.9595V43.9601V43.9607V43.9613V43.9619V43.9625V43.9631V43.9637V43.9643V43.9649V43.9655V43.9661V43.9667V43.9673V43.9679V43.9685V43.9691V43.9697V43.9703V43.9709V43.9715V43.972V43.9726V43.9732V43.9738V43.9744V43.975V43.9756V43.9762V43.9768V43.9774V43.978V43.9786V43.9792V43.9798V43.9804V43.981V43.9816V43.9822V43.9828V43.9834V43.984V43.9846V43.9852V43.9858V43.9864V43.9869V43.9875V43.9881V43.9887V43.9893V43.9899V43.9905V43.9911V43.9917V43.9923V43.9929V43.9935V43.9941V43.9947V43.9953V43.9959V43.9965V43.9971V43.9977V43.9983V43.9989V43.9995V44.0001V44.0007V44.0013V44.0019V44.0025V44.003V44.0036V44.0042V44.0048V44.0054V44.006V44.0066V44.0072V44.0078V44.0084V44.009V44.0096V44.0102V44.0108V44.0114V44.012V44.0126V44.0132V44.0138V44.0144V44.015V44.0156V44.0162V44.0168V44.0174V44.018V44.0186V44.0192V44.0198V44.0204V44.0209V44.0215V44.0221V44.0227V44.0233V44.0239V44.0245V44.0251V44.0257V44.0263V44.0269V44.0275V44.0281V44.0287V44.0293V44.0299V44.0305V44.0311V44.0317V44.0323V44.0329V44.0335V44.0341V44.0347V44.0353V44.0359V44.0365V44.0371V44.0377V44.0383V44.0389V44.0395V44.0401V44.0407V44.0412V44.0418V44.0424V44.043V44.0436V44.0442V44.0448V44.0454V44.046V44.0466V44.0472V44.0478V44.0484V44.049V44.0496V44.0502V44.0508V44.0514V44.052V44.0526V44.0532V44.0538V44.0544V44.055V44.0556V44.0562V44.0568V44.0574V44.058V44.0586V44.0592V44.0598V44.0604V44.061V44.0616V44.0622V44.0628V44.0634V44.064V44.0646V44.0651V44.0657V44.0663V44.0669V44.0675V44.0681V44.0687V44.0693V44.0699V44.0705V44.0711V44.0717V44.0723V44.0729V44.0735V44.0741V44.0747V44.0753V44.0759V44.0765V44.0771V44.0777V44.0783V44.0789V44.0795V44.0801V44.0807V44.0813V44.0819V44.0825V44.0831V44.0837V44.0843V44.0849V44.0855V44.0861V44.0867V44.0873V44.0879V44.0885V44.0891V44.0897V44.0903V44.0909V44.0915V44.0921V44.0927V44.0932V44.0938V44.0944V44.095V44.0956V44.0962V44.0968V44.0974V44.098V44.0986V44.0992V44.0998V44.1004V44.101V44.1016V44.1022V44.1028V44.1034V44.104V44.1046V44.1052V44.1058V44.1064V44.107V44.1076V44.1082V44.1088V44.1094V44.11V44.1106V44.1112V44.1118V44.1124V44.113V44.1136V44.1142V44.1148V44.1154V44.116V44.1166V44.1172V44.1178V44.1184V44.119V44.1196V44.1202V44.1208V44.1214V44.122V44.1226V44.1232V44.1238V44.1244V44.125V44.1256V44.1262V44.1268V44.1274V44.128V44.1286V44.1292V44.1297V44.1303V44.1309V44.1315V44.1321V44.1327V44.1333V44.1339V44.1345V44.1351V44.1357V44.1363V44.1369V44.1375V44.1381V44.1387V44.1393V44.1399V44.1405V44.1411V44.1417V44.1423V44.1429V44.1435V44.1441V44.1447V44.1453V44.1459V44.1465V44.1471V44.1477V44.1483V44.1489V44.1495V44.1501V44.1507V44.1513V44.1519V44.1525V44.1531V44.1537V44.1543V44.1549V44.1555V44.1561V44.1567V44.1573V44.1579V44.1585V44.1591V44.1597V44.1603V44.1609V44.1615V44.1621V44.1627V44.1633V44.1639V44.1645V44.1651V44.1657V44.1663V44.1669V44.1675V44.1681V44.1687V44.1693V63.6045C85.4978 68.1433 85.4973 71.8457 85.1045 74.7679C84.6932 77.8254 83.805 80.4646 81.6998 82.5697C79.5947 84.6749 76.9555 85.5631 73.8981 85.974L73.9527 86.3804L73.898 85.974C70.9758 86.3672 67.2731 86.3677 62.7343 86.3677H42.1973C37.6585 86.3677 33.9561 86.3672 31.0341 85.974L30.9794 86.3804L31.034 85.974C27.9765 85.5631 25.3372 84.6749 23.232 82.5697C21.1269 80.4646 20.2387 77.8254 19.8276 74.7679C19.4348 71.8457 19.434 68.1433 19.4341 63.6045V44.1693V44.1686V44.1679V44.1672V44.1665V44.1658V44.1651V44.1644V44.1637V44.163V44.1623V44.1616V44.161V44.1603V44.1596V44.1589V44.1582V44.1575V44.1568V44.1561V44.1554V44.1547V44.154V44.1533V44.1526V44.1519V44.1512V44.1506V44.1499V44.1492V44.1485V44.1478V44.1471V44.1464V44.1457V44.145V44.1443V44.1436V44.1429V44.1422V44.1415V44.1409V44.1402V44.1395V44.1388V44.1381V44.1374V44.1367V44.136V44.1353V44.1346V44.1339V44.1332V44.1325V44.1318V44.1312V44.1305V44.1298V44.1291V44.1284V44.1277V44.127V44.1263V44.1256V44.1249V44.1242V44.1235V44.1228V44.1222V44.1215V44.1208V44.1201V44.1194V44.1187V44.118V44.1173V44.1166V44.1159V44.1152V44.1145V44.1138V44.1132V44.1125V44.1118V44.1111V44.1104V44.1097V44.109V44.1083V44.1076V44.1069V44.1062V44.1055V44.1049V44.1042V44.1035V44.1028V44.1021V44.1014V44.1007V44.1V44.0993V44.0986V44.0979V44.0972V44.0965V44.0959V44.0952V44.0945V44.0938V44.0931V44.0924V44.0917V44.091V44.0903V44.0896V44.0889V44.0883V44.0876V44.0869V44.0862V44.0855V44.0848V44.0841V44.0834V44.0827V44.082V44.0813V44.0806V44.08V44.0793V44.0786V44.0779V44.0772V44.0765V44.0758V44.0751V44.0744V44.0737V44.073V44.0723V44.0717V44.071V44.0703V44.0696V44.0689V44.0682V44.0675V44.0668V44.0661V44.0654V44.0647V44.0641V44.0634V44.0627V44.062V44.0613V44.0606V44.0599V44.0592V44.0585V44.0578V44.0571V44.0565V44.0558V44.0551V44.0544V44.0537V44.053V44.0523V44.0516V44.0509V44.0502V44.0496V44.0489V44.0482V44.0475V44.0468V44.0461V44.0454V44.0447V44.044V44.0433V44.0426V44.042V44.0413V44.0406V44.0399V44.0392V44.0385V44.0378V44.0371V44.0364V44.0357V44.0351V44.0344V44.0337V44.033V44.0323V44.0316V44.0309V44.0302V44.0295V44.0288V44.0282V44.0275V44.0268V44.0261V44.0254V44.0247V44.024V44.0233V44.0226V44.0219V44.0213V44.0206V44.0199V44.0192V44.0185V44.0178V44.0171V44.0164V44.0157V44.015V44.0144V44.0137V44.013V44.0123V44.0116V44.0109V44.0102V44.0095V44.0088V44.0081V44.0075V44.0068V44.0061V44.0054V44.0047V44.004V44.0033V44.0026V44.0019V44.0013V44.0006V43.9999V43.9992V43.9985V43.9978V43.9971V43.9964V43.9957V43.995V43.9944V43.9937V43.993V43.9923V43.9916V43.9909V43.9902V43.9895V43.9888V43.9882V43.9875V43.9868V43.9861V43.9854V43.9847V43.984V43.9833V43.9826V43.982V43.9813V43.9806V43.9799V43.9792V43.9785V43.9778V43.9771V43.9764V43.9758V43.9751V43.9744V43.9737V43.973V43.9723V43.9716V43.9709V43.9702V43.9696V43.9689V43.9682V43.9675V43.9668V43.9661V43.9654V43.9647V43.964V43.9634V43.9627V43.962V43.9613V43.9606V43.9599V43.9592V43.9585V43.9578V43.9572V43.9565V43.9558V43.9551V43.9544V43.9537V43.953V43.9523V43.9517V43.951V43.9503V43.9496V43.9489V43.9482V43.9475V43.9468V43.9461V43.9455V43.9448V43.9441V43.9434V43.9427V43.942V43.9413V43.9406V43.94V43.9393V43.9386V43.9379V43.9372V43.9365V43.9358V43.9351V43.9344V43.9338V43.9331V43.9324V43.9317V43.931V43.9303V43.9296V43.9289V43.9283V43.9276V43.9269V43.9262V43.9255V43.9248V43.9241V43.9234V43.9228V43.9221V43.9214V43.9207V43.92V43.9193V43.9186V43.9179V43.9173V43.9166V43.9159V43.9152V43.9145V43.9138V43.9131V43.9124V43.9118V43.9111V43.9104V43.9097V43.909V43.9083V43.9076V43.9069V43.9063V43.9056V43.9049V43.9042V43.9035V43.9028V43.9021V43.9014V43.9008V43.9001V43.8994V43.8987V43.898V43.8973V43.8966V43.896V43.8953V43.8946V43.8939V43.8932V43.8925V43.8918V43.8911V43.8905V43.8898V43.8891V43.8884V43.8877V43.887V43.8863V43.8856V43.885V43.8843V43.8836V43.8829V43.8822V43.8815V43.8808V43.8802V43.8795V43.8788V43.8781V43.8774V43.8767V43.876V43.8753V43.8747V43.874V43.8733V43.8726V43.8719V43.8712V43.8705V43.8699V43.8692V43.8685V43.8678V43.8671V43.8664V43.8657V43.8651V43.8644V43.8637V43.863V43.8623V43.8616V43.8609V43.8602V43.8596V43.8589V43.8582V43.8575V43.8568V43.8561V43.8554V43.8548V43.8541V43.8534V43.8527V43.852V43.8513V43.8506V43.85V43.8493V43.8486V43.8479V43.8472V43.8465V43.8458V43.8452V43.8445V43.8438V43.8431V43.8424V43.8417V43.841V43.8404V43.8397V43.839V43.8383V43.8376V43.8369V43.8362V43.8356V43.8349V43.8342V43.8335V43.8328V43.8321V43.8314V43.8308V43.8301V43.8294V43.8287V43.828V43.8273V43.8266V43.826V43.8253V43.8246V43.8239V43.8232V43.8225V43.8218V43.8212V43.8205V43.8198V43.8191V43.8184V43.8177V43.817L19.4341 43.8165L19.4341 43.8164L19.4343 43.3035C19.4343 43.3035 19.4343 43.3034 19.4343 43.3034C19.4358 40.2154 19.4548 37.6592 19.6729 35.5714C19.9208 33.199 20.4516 31.0954 21.7388 29.2356C22.6266 27.9527 23.7387 26.8407 25.0215 25.9528C26.8813 24.6656 28.9849 24.1349 31.3574 23.887C32.6376 23.7532 34.0973 23.6941 35.7515 23.6682ZM79.2191 43.7133H79.6294L79.6291 43.303C79.6268 40.1766 79.6061 37.9388 79.4226 36.1813L79.4225 36.1812C79.2244 34.2875 78.8638 33.2918 78.3677 32.5752C77.8818 31.873 77.2731 31.2642 76.5707 30.7781C75.8541 30.2822 74.8584 29.9214 72.9646 29.7235L72.922 30.1313L72.9646 29.7235C71.907 29.6131 70.679 29.5618 69.1935 29.5378L68.7769 29.531V29.9477V31.5987C68.7769 33.2191 67.4633 34.5328 65.8427 34.5328C64.2222 34.5328 62.9085 33.2191 62.9085 31.5987V29.9266V29.5166H62.4985H42.4334H42.0234V29.9266V31.5987C42.0234 33.2191 40.7098 34.5328 39.0892 34.5328C37.4688 34.5328 36.1551 33.2191 36.1551 31.5987V29.9477V29.531L35.7384 29.5378C34.2528 29.5618 33.0249 29.6131 31.9672 29.7235L31.9672 29.7235C30.0734 29.9214 29.0778 30.2822 28.3612 30.7781L28.3612 30.7782C27.659 31.2642 27.0502 31.873 26.5641 32.5752C26.0682 33.2918 25.7074 34.2875 25.5095 36.1813C25.3259 37.9388 25.3052 40.1766 25.3028 43.303L25.3025 43.7133H25.7128H79.2191ZM25.7125 49.5817H25.3025V49.9917V63.3684C25.3025 68.1805 25.3088 71.4946 25.6437 73.9859L26.05 73.9313L25.6437 73.986C25.9673 76.3928 26.5486 77.5871 27.3816 78.4202C28.2146 79.2533 29.4089 79.8347 31.816 80.1582C34.3071 80.4932 37.6214 80.4993 42.4334 80.4993H62.4985C67.3106 80.4993 70.6247 80.4932 73.1161 80.1582C75.523 79.8347 76.7172 79.2533 77.5503 78.4202C78.3834 77.5871 78.9648 76.3929 79.2883 73.9859C79.6233 71.4946 79.6294 68.1805 79.6294 63.3684V49.9917V49.5817H79.2194H25.7125Z" fill="white" stroke="#9691FF" stroke-width="0.82"/>
</svg>
