<svg width="600" height="250" viewBox="0 0 600 250" fill="none" xmlns="http://www.w3.org/2000/svg">
<path d="M146.094 175.428H122.367L104.924 138.883C95.4063 144.087 89.9695 156.138 80.3184 164.094C75.3974 168.151 69.6423 171.761 62.4676 174.212C59.2208 175.32 53.7013 176.753 51.6259 176.958C50.7601 177.047 50.149 177.009 50.0216 176.696C49.9198 176.452 50.1617 176.267 51.0848 175.819C52.1416 175.307 56.4961 173.495 59.2272 171.582C62.6331 169.195 64.5875 166.609 64.7403 164.619C63.8045 161.297 57.1264 153.924 63.9573 140.4C66.4083 135.549 68.5282 132.054 70.0434 128.547C71.7877 124.515 73.0228 118.838 73.443 114.614C73.4684 114.371 73.513 114.377 73.6467 114.518C76.9698 117.897 89.8552 131.235 87.996 144.49C92.2805 142.832 99.7101 137.808 103.135 135.126C106.751 132.298 109.107 129.341 112.939 129.277C116.37 129.219 116.663 130.864 119.394 131.229C120.069 131.318 121.075 131.184 121.591 130.934C121.801 130.832 121.75 130.602 121.431 130.525C117.707 129.642 116.816 126.589 111.997 126.589C107.674 126.589 104.236 130.589 101.747 132.227L89.5621 106.697C84.4693 96.0214 86.0227 88.2644 97.208 73L146.094 175.428Z" fill="#B88D5B"/>
<path d="M547.569 149.726L531.348 130.325C539.888 128.348 545.103 123.416 545.103 114.842C545.103 105.154 536.937 100.298 526.592 100.298H494.169V149.726H502.761V131.026H522.046L536.899 149.726H547.569ZM502.773 107.958H526.839C532.767 107.958 536.302 110.749 536.302 115.43C536.302 120.112 532.592 123.341 526.839 123.341H502.773V107.958Z" fill="#B88D5B"/>
<path d="M201.765 100.298L176.404 149.726H186.128L191.531 138.724H220.403L225.807 149.726H235.755L210.393 100.298H201.74H201.765ZM195.316 131.039L205.986 109.322L216.656 131.039H195.316Z" fill="#B88D5B"/>
<path d="M281.248 106.794C289.328 106.794 296.001 109.861 299.413 115.243L306.347 110.549C301.492 103.703 292.901 98.9717 281.248 98.9717C262.41 98.9717 251.579 111.338 251.579 124.994C251.579 138.649 262.398 151.016 281.248 151.016C292.901 151.016 301.492 146.284 306.347 139.438L299.413 134.744C295.989 140.126 289.328 143.193 281.248 143.193C268.586 143.193 260.394 136.046 260.394 124.981C260.394 113.916 268.573 106.77 281.248 106.77V106.794Z" fill="#B88D5B"/>
<path d="M359.31 106.794C367.391 106.794 374.063 109.861 377.474 115.243L384.411 110.549C379.555 103.703 370.963 98.9717 359.31 98.9717C340.474 98.9717 329.641 111.338 329.641 124.994C329.641 138.649 340.46 151.016 359.31 151.016C370.963 151.016 379.555 146.284 384.411 139.438L377.474 134.744C374.052 140.126 367.391 143.193 359.31 143.193C346.649 143.193 338.457 136.046 338.457 124.981C338.457 113.916 346.635 106.77 359.31 106.77V106.794Z" fill="#B88D5B"/>
<path d="M437.4 98.9844C418.56 98.9844 407.73 111.351 407.73 125.007C407.73 138.662 418.549 151.028 437.4 151.028C456.247 151.028 467.066 138.662 467.066 125.007C467.066 111.351 456.247 98.9844 437.4 98.9844ZM437.4 143.306C424.736 143.306 416.543 136.121 416.543 125.007C416.543 113.892 424.724 106.707 437.4 106.707C450.072 106.707 458.253 113.892 458.253 125.007C458.253 136.121 450.072 143.306 437.4 143.306Z" fill="#B88D5B"/>
</svg>
