<svg width="600" height="250" viewBox="0 0 600 250" fill="none" xmlns="http://www.w3.org/2000/svg">
<path d="M50.8875 106.385C50.8875 106.45 50.9135 106.513 50.9599 106.559C51.0062 106.606 51.0691 106.632 51.1347 106.632C51.2002 106.632 51.2631 106.606 51.3094 106.559C51.3558 106.513 51.3818 106.45 51.3818 106.385C51.3818 106.385 54.208 98.497 54.7909 96.3312C54.7909 95.2602 54.733 94.1892 54.6136 93.125C54.0015 86.7527 52.9075 80.4357 51.3409 74.2278C51.3409 74.0544 51.2182 74 51.0955 74C50.9727 74 50.8841 74 50.8466 74.2278C49.305 80.4389 48.2259 86.7552 47.6182 93.125C47.5077 94.1901 47.4542 95.2604 47.458 96.3312C48.0375 98.497 50.8466 106.385 50.8466 106.385M44.1614 118.163C43.2243 119.084 42.4799 120.181 41.9712 121.391C41.4625 122.601 41.1996 123.899 41.1979 125.211C41.1962 126.524 41.4556 127.823 41.9611 129.034C42.4667 130.246 43.2082 131.345 44.1429 132.268C45.0775 133.191 46.1866 133.921 47.4059 134.413C48.6252 134.906 49.9304 135.152 51.2458 135.138C52.5613 135.124 53.8609 134.85 55.0693 134.331C56.2776 133.812 57.3708 133.059 58.2852 132.116C60.1035 130.241 61.1073 127.726 61.0792 125.118C61.051 122.509 59.9931 120.017 58.1348 118.181C56.2765 116.345 53.7675 115.313 51.1518 115.31C48.5361 115.307 46.0245 116.332 44.1614 118.163ZM45.3273 99.6564L44.4409 97.0316C41.4341 97.7456 38.5602 98.9322 35.9318 100.554L37.2205 103.019C39.6998 101.45 42.4284 100.311 45.2898 99.653M66.3409 100.554C63.7126 98.9295 60.8379 97.74 57.8284 97.0316L56.942 99.7244C59.8125 100.375 62.5491 101.513 65.0318 103.09L66.3409 100.554ZM35.9318 149.562C38.5634 151.18 41.437 152.369 44.4443 153.084L45.3239 150.408C42.4521 149.759 39.712 148.628 37.2205 147.063L35.9318 149.562ZM56.9455 150.449L57.8284 153.125C60.8365 152.417 63.71 151.229 66.3375 149.606L65.0318 147.103C62.5469 148.677 59.8128 149.82 56.9455 150.483M26.625 140.198L29.1341 138.896C27.5562 136.424 26.4104 133.702 25.7455 130.848L23.0591 131.732C23.765 134.727 24.9581 137.587 26.5909 140.198M22.9875 118.356L25.6739 119.24C26.3312 116.361 27.4773 113.615 29.0625 111.121L26.625 109.887C24.9915 112.5 23.7984 115.362 23.0932 118.36M79.3023 131.732L76.5989 130.848C75.9415 133.705 74.7952 136.427 73.2102 138.896L75.733 140.201C77.3591 137.583 78.5523 134.724 79.2648 131.729M73.2102 111.121C74.7955 113.591 75.9419 116.314 76.5989 119.172L79.3023 118.288C78.5882 115.296 77.3956 112.437 75.7705 109.822L73.2102 111.121ZM51.3443 143.615C51.3443 143.55 51.3183 143.487 51.2719 143.441C51.2256 143.394 51.1627 143.368 51.0972 143.368C51.0316 143.368 50.9687 143.394 50.9224 143.441C50.876 143.487 50.85 143.55 50.85 143.615C50.85 143.615 48.0443 151.503 47.4614 153.669C47.458 154.74 47.5091 155.811 47.6216 156.875C48.2274 163.245 49.3065 169.561 50.85 175.772C50.85 175.946 50.9761 176 51.0989 176C51.2216 176 51.3102 176 51.3648 175.772C52.9159 169.574 54.0034 163.27 54.6136 156.909C54.7327 155.846 54.7907 154.776 54.7875 153.706C54.208 151.54 51.3784 143.649 51.3784 143.649M22.3909 128.73C24.5625 128.152 32.4716 125.33 32.4716 125.33C32.5297 125.32 32.5824 125.29 32.6205 125.245C32.6585 125.201 32.6794 125.144 32.6794 125.085C32.6794 125.026 32.6585 124.969 32.6205 124.925C32.5824 124.88 32.5297 124.85 32.4716 124.84C32.4716 124.84 24.5625 122.039 22.3909 121.457C21.3172 121.453 20.2441 121.507 19.1761 121.617C12.7893 122.223 6.45616 123.299 0.228409 124.837C0.0545455 124.837 0 124.963 0 125.085C0 125.207 0 125.296 0.228409 125.333C6.45341 126.88 12.7875 127.958 19.1761 128.553C20.2432 128.672 21.317 128.733 22.3909 128.73ZM102.041 124.748C95.826 123.21 89.5053 122.132 83.1307 121.525C82.0627 121.416 80.9895 121.364 79.9159 121.369C77.7443 121.947 69.8352 124.748 69.8352 124.748C69.7697 124.748 69.7068 124.774 69.6605 124.821C69.6141 124.867 69.5881 124.93 69.5881 124.995C69.5881 125.06 69.6141 125.123 69.6605 125.169C69.7068 125.215 69.7697 125.241 69.8352 125.241C69.8352 125.241 77.7443 128.06 79.9159 128.641C80.9898 128.641 82.0636 128.584 83.1307 128.465C89.5057 127.853 95.8295 126.765 102.041 125.207C102.218 125.207 102.273 125.065 102.273 124.942C102.273 124.82 102.273 124.731 102.041 124.697M26.0795 104.923C27.4057 106.684 27.9545 107.14 27.9545 107.14C29.717 108.269 37.7693 112.019 37.7693 112.019C37.8184 112.042 37.8737 112.05 37.9275 112.041C37.9813 112.032 38.0308 112.006 38.0693 111.968C38.1088 111.929 38.1353 111.879 38.145 111.825C38.1548 111.771 38.1474 111.715 38.1239 111.665C38.1239 111.665 34.3602 103.583 33.2318 101.873C33.2318 101.873 32.6864 101.329 31.0057 100.01C27.1935 96.8404 22.9858 94.1764 18.4875 92.0846H18.1534C18.0818 92.0846 18.0443 92.224 18.1534 92.4178C20.2495 96.9051 22.9194 101.103 26.0966 104.906M76.2068 145.094C74.8671 143.408 74.3011 142.826 74.3011 142.826C72.5352 141.697 64.483 137.964 64.483 137.964C64.4361 137.939 64.3824 137.929 64.3296 137.936C64.2768 137.944 64.2278 137.968 64.1898 138.005C64.1512 138.043 64.1263 138.092 64.1189 138.146C64.1115 138.199 64.122 138.254 64.1489 138.301C64.1489 138.301 67.9091 146.349 69.0034 148.11C69.0034 148.11 69.5489 148.654 71.2466 149.993C75.058 153.155 79.258 155.818 83.7477 157.915H84.1023C84.1875 157.915 84.1875 157.759 84.1023 157.565C81.9976 153.088 79.327 148.898 76.1557 145.097M38.0693 138.029C38.0277 137.993 37.9745 137.973 37.9193 137.973C37.8642 137.973 37.8109 137.993 37.7693 138.029C37.7693 138.029 29.6625 141.728 27.9511 142.823C27.2883 143.535 26.6625 144.281 26.0761 145.057C22.8978 148.852 20.2277 153.043 18.133 157.524V157.878C18.133 157.963 18.2761 157.963 18.4705 157.878C22.9662 155.775 27.1731 153.105 30.9886 149.936C32.7545 148.613 33.2114 148.066 33.2114 148.066C34.3432 146.308 38.1034 138.274 38.1034 138.274C38.1329 138.23 38.1486 138.178 38.1486 138.126C38.1486 138.073 38.1329 138.022 38.1034 137.978M64.2034 111.968C64.2476 111.998 64.2999 112.014 64.3534 112.014C64.4069 112.014 64.4592 111.998 64.5034 111.968C64.5034 111.968 72.5386 108.269 74.3045 107.14C74.3045 107.14 74.85 106.596 76.1932 104.923C79.3619 101.115 82.0311 96.9194 84.1364 92.4382V92.105C84.1364 92.0166 83.9795 91.9996 83.7852 92.105C79.2915 94.194 75.0892 96.857 71.2841 100.027C70.4932 100.605 69.733 101.224 69.0068 101.877C67.875 103.638 64.1318 111.669 64.1318 111.669C64.0956 111.71 64.0757 111.763 64.0757 111.818C64.0757 111.873 64.0956 111.926 64.1318 111.968M156.903 142.014H150.051C149.851 142.028 149.653 141.965 149.498 141.837C149.344 141.709 149.245 141.526 149.223 141.327C148.806 139.622 148.358 137.925 147.88 136.237H132.147C131.652 137.998 131.213 139.637 130.79 141.327C130.771 141.528 130.672 141.713 130.516 141.842C130.36 141.971 130.16 142.033 129.958 142.014H123.106C122.994 142.029 122.88 142.015 122.776 141.972C122.671 141.929 122.58 141.859 122.513 141.769C122.444 141.679 122.402 141.573 122.388 141.461C122.375 141.349 122.392 141.236 122.438 141.133C125.274 129.711 129.733 118.752 135.678 108.588C135.764 108.424 135.89 108.284 136.045 108.183C136.201 108.082 136.38 108.022 136.565 108.01C138.852 107.728 141.164 107.728 143.451 108.01C143.642 108.023 143.826 108.089 143.982 108.201C144.137 108.312 144.258 108.466 144.331 108.643C150.254 118.775 154.718 129.688 157.592 141.062C157.652 141.169 157.679 141.292 157.672 141.414C157.664 141.537 157.622 141.655 157.55 141.755C157.478 141.855 157.379 141.932 157.264 141.978C157.15 142.024 157.025 142.036 156.903 142.014ZM145.885 129.685C144.285 124.848 142.319 120.139 140.005 115.599C137.69 120.139 135.724 124.848 134.124 129.685H145.885ZM192.252 132.13C192.252 138.134 187.838 142.01 178.957 142.01H163.452C163.348 142.018 163.244 142.004 163.146 141.967C163.048 141.931 162.96 141.874 162.886 141.799C162.812 141.726 162.755 141.638 162.719 141.54C162.682 141.443 162.667 141.339 162.675 141.235V108.884C162.663 108.779 162.675 108.673 162.71 108.574C162.745 108.474 162.801 108.384 162.876 108.309C162.951 108.235 163.041 108.178 163.141 108.143C163.241 108.109 163.347 108.097 163.452 108.109H179.342C187.306 108.109 190.326 111.631 190.326 115.946C190.329 117.699 189.775 119.408 188.744 120.829C187.714 122.249 186.259 123.308 184.589 123.854C189.389 124.823 192.252 128.152 192.252 132.13ZM170.69 114.202V121.688H177.153C181.04 121.688 182.734 120.471 182.734 118.006C182.734 115.541 181.18 114.222 177.791 114.222L170.69 114.202ZM178.759 135.9C182.397 135.9 184.428 134.489 184.428 131.742C184.428 128.995 182.84 127.764 179.131 127.764H170.676V135.9H178.759ZM197.905 127.149V108.833C197.895 108.73 197.907 108.625 197.94 108.527C197.973 108.428 198.025 108.337 198.095 108.26C198.164 108.182 198.249 108.12 198.343 108.076C198.438 108.033 198.54 108.009 198.644 108.007C199.418 107.909 200.197 107.861 200.976 107.864C204.225 107.864 205.919 109.275 205.919 113.148V126.795C205.919 132.504 208.497 135.601 213.583 135.601C218.669 135.601 221.264 132.643 221.264 126.795V108.887C221.253 108.783 221.266 108.677 221.301 108.579C221.336 108.48 221.393 108.39 221.468 108.316C221.542 108.241 221.632 108.185 221.731 108.15C221.83 108.114 221.936 108.102 222.041 108.112H228.399C228.557 108.096 228.715 108.133 228.849 108.218C228.983 108.302 229.085 108.429 229.139 108.578C229.173 108.68 229.186 108.782 229.173 108.884V127.149C229.173 137.505 223.401 142.734 213.549 142.734C203.697 142.734 197.905 137.539 197.905 127.149ZM281.601 124.663C281.601 134.789 274.538 142.01 263.202 142.01H248.83C248.725 142.022 248.618 142.01 248.518 141.976C248.419 141.941 248.328 141.884 248.253 141.81C248.179 141.735 248.122 141.645 248.087 141.545C248.052 141.446 248.04 141.34 248.052 141.235V108.884C248.04 108.779 248.052 108.673 248.087 108.574C248.122 108.474 248.179 108.384 248.253 108.309C248.328 108.235 248.419 108.178 248.518 108.143C248.618 108.109 248.725 108.097 248.83 108.109H263.236C274.555 108.109 281.601 115.031 281.601 124.667V124.663ZM263.236 135.071C269.1 135.071 273.426 131.548 273.426 124.667C273.426 118.377 269.097 115.031 263.236 115.031H256.173V135.071H263.236ZM311.318 108.884C311.307 108.78 311.319 108.675 311.354 108.576C311.389 108.477 311.446 108.387 311.52 108.313C311.594 108.239 311.684 108.183 311.783 108.148C311.882 108.113 311.988 108.101 312.092 108.112H318.556C318.66 108.102 318.766 108.114 318.865 108.15C318.964 108.185 319.055 108.241 319.129 108.316C319.203 108.39 319.26 108.48 319.296 108.579C319.331 108.677 319.344 108.783 319.333 108.887V141.238C319.34 141.342 319.325 141.446 319.288 141.543C319.252 141.64 319.195 141.728 319.121 141.801C319.047 141.874 318.959 141.931 318.861 141.967C318.764 142.003 318.659 142.018 318.556 142.01H312.092C311.988 142.021 311.882 142.009 311.783 141.974C311.684 141.94 311.593 141.883 311.519 141.809C311.444 141.735 311.387 141.646 311.352 141.547C311.317 141.448 311.304 141.343 311.315 141.238V128.454H296.165V141.238C296.181 141.396 296.144 141.554 296.059 141.688C295.974 141.821 295.847 141.923 295.698 141.976C295.599 142.01 295.494 142.022 295.391 142.01H288.927C288.823 142.019 288.718 142.005 288.62 141.97C288.521 141.934 288.432 141.877 288.358 141.803C288.285 141.729 288.228 141.641 288.192 141.543C288.156 141.446 288.142 141.342 288.15 141.238V108.836C288.14 108.733 288.151 108.628 288.183 108.529C288.215 108.429 288.268 108.338 288.338 108.26C288.407 108.182 288.492 108.119 288.587 108.076C288.682 108.032 288.785 108.009 288.89 108.007C289.664 107.908 290.441 107.861 291.222 107.864C294.47 107.864 296.165 109.275 296.165 113.148V121.427H311.315L311.318 108.884ZM358.902 142.014H352.053C351.903 142.029 351.751 141.998 351.617 141.926C351.484 141.854 351.376 141.744 351.307 141.609C351.26 141.521 351.231 141.426 351.222 141.327C350.808 139.62 350.355 137.923 349.861 136.237H334.145C333.655 137.998 333.211 139.637 332.789 141.327C332.77 141.527 332.672 141.712 332.517 141.841C332.361 141.969 332.161 142.032 331.96 142.014H325.04C324.956 142.026 324.87 142.021 324.788 142C324.705 141.979 324.628 141.941 324.561 141.889C324.493 141.838 324.437 141.773 324.395 141.699C324.353 141.625 324.327 141.544 324.317 141.459C324.304 141.348 324.32 141.236 324.365 141.133C327.202 129.711 331.662 118.752 337.609 108.588C337.694 108.424 337.82 108.285 337.975 108.184C338.129 108.083 338.307 108.023 338.492 108.01C340.779 107.728 343.092 107.728 345.378 108.01C345.57 108.022 345.755 108.088 345.911 108.2C346.067 108.312 346.189 108.465 346.261 108.643C352.202 118.772 356.684 129.686 359.574 141.062C359.639 141.167 359.671 141.289 359.667 141.412C359.663 141.535 359.622 141.655 359.55 141.755C359.48 141.858 359.381 141.937 359.266 141.983C359.15 142.029 359.024 142.04 358.902 142.014ZM347.884 129.685C346.286 124.848 344.321 120.139 342.007 115.599C339.692 120.139 337.726 124.848 336.126 129.685H347.884ZM394.255 132.13C394.255 138.134 389.84 142.01 380.939 142.01H365.455C365.35 142.019 365.245 142.004 365.146 141.968C365.048 141.932 364.959 141.874 364.885 141.799C364.813 141.725 364.756 141.637 364.718 141.541C364.684 141.443 364.67 141.339 364.677 141.235V108.884C364.667 108.78 364.68 108.675 364.715 108.576C364.75 108.478 364.805 108.388 364.878 108.313C364.954 108.239 365.044 108.182 365.144 108.147C365.243 108.112 365.349 108.099 365.455 108.109H381.344C389.308 108.109 392.328 111.631 392.328 115.946C392.328 117.698 391.773 119.406 390.743 120.826C389.713 122.246 388.26 123.306 386.591 123.854C391.391 124.823 394.255 128.152 394.255 132.13ZM372.713 114.202V121.688H379.173C383.059 121.688 384.753 120.471 384.753 118.006C384.753 115.541 383.199 114.222 379.793 114.222L372.713 114.202ZM380.761 135.9C384.419 135.9 386.448 134.489 386.448 131.742C386.448 128.995 384.842 127.764 381.15 127.764H372.713V135.9H380.761ZM407.322 142.01H400.858C400.754 142.018 400.65 142.003 400.553 141.967C400.455 141.931 400.367 141.874 400.293 141.801C400.219 141.728 400.162 141.64 400.125 141.543C400.089 141.446 400.074 141.342 400.081 141.238V108.836C400.07 108.734 400.081 108.629 400.115 108.53C400.145 108.433 400.196 108.342 400.263 108.265C400.331 108.188 400.414 108.125 400.507 108.082C400.6 108.037 400.701 108.011 400.803 108.007C401.577 107.912 402.355 107.864 403.135 107.864C406.401 107.864 408.095 109.275 408.095 113.148V141.238C408.104 141.342 408.089 141.446 408.053 141.543C408.017 141.641 407.961 141.729 407.887 141.802C407.813 141.876 407.725 141.932 407.627 141.968C407.53 142.004 407.425 142.018 407.322 142.01ZM456.798 120.172C456.798 128.203 450.389 132.66 441.348 132.66H435.29V141.235C435.299 141.339 435.285 141.444 435.249 141.542C435.213 141.64 435.156 141.729 435.082 141.803C435.008 141.876 434.918 141.933 434.82 141.969C434.722 142.005 434.617 142.019 434.513 142.01H428.052C427.947 142.022 427.841 142.009 427.741 141.974C427.641 141.939 427.551 141.881 427.476 141.806C427.401 141.733 427.343 141.643 427.308 141.544C427.273 141.445 427.262 141.339 427.275 141.235V108.884C427.262 108.78 427.273 108.674 427.308 108.575C427.343 108.476 427.401 108.386 427.476 108.313C427.551 108.239 427.642 108.182 427.742 108.147C427.841 108.112 427.947 108.099 428.052 108.109H442.425C451.606 108.109 456.798 112.318 456.798 120.172ZM441.399 125.877C446.591 125.877 448.78 123.694 448.78 120.172C448.78 116.65 446.591 114.892 441.893 114.892H435.29V125.881L441.399 125.877ZM461.407 125.048C461.407 114.746 468.47 107.439 479.806 107.439C491.141 107.439 498.205 114.8 498.205 125.051C498.205 135.299 491.141 142.66 479.806 142.66C468.47 142.66 461.407 135.37 461.407 125.048ZM490.013 125.048C490.013 118.006 485.686 114.307 479.806 114.307C473.925 114.307 469.616 117.986 469.616 125.051C469.616 132.109 473.942 135.775 479.806 135.775C485.669 135.775 490.013 132.13 490.013 125.048ZM534.191 141.058C534.491 141.602 534.191 141.993 533.608 141.993H526.861C526.667 142.004 526.474 141.953 526.309 141.849C526.145 141.745 526.017 141.592 525.944 141.412C524.172 137.783 521.782 134.488 518.881 131.674H512.717V141.235C512.726 141.339 512.712 141.444 512.676 141.542C512.64 141.64 512.583 141.729 512.509 141.803C512.435 141.876 512.346 141.933 512.247 141.969C512.149 142.005 512.044 142.019 511.94 142.01H505.48C505.375 142.022 505.268 142.01 505.168 141.976C505.069 141.941 504.978 141.884 504.903 141.81C504.829 141.735 504.772 141.645 504.737 141.545C504.702 141.446 504.69 141.34 504.702 141.235V108.884C504.692 108.78 504.705 108.675 504.74 108.576C504.775 108.478 504.83 108.388 504.903 108.313C504.979 108.239 505.069 108.182 505.169 108.147C505.268 108.112 505.374 108.099 505.48 108.109H518.547C527.905 108.109 533.253 112.124 533.253 119.24C533.44 121.527 532.81 123.805 531.476 125.674C530.142 127.543 528.189 128.881 525.961 129.454C529.398 132.784 532.188 136.718 534.191 141.058ZM512.789 114.892V124.912H518.564C522.924 124.912 525.307 123.15 525.307 119.927C525.307 116.704 523.541 114.892 518.247 114.892H512.789ZM567.791 108.833C568.18 112.515 567.119 114.892 562.316 114.892H555.552V141.31C555.565 141.414 555.554 141.52 555.519 141.619C555.484 141.718 555.427 141.808 555.351 141.881C555.276 141.955 555.185 142.012 555.086 142.047C554.986 142.082 554.88 142.095 554.775 142.085H548.332C548.227 142.097 548.12 142.085 548.02 142.05C547.92 142.015 547.829 141.958 547.754 141.883C547.679 141.808 547.623 141.718 547.588 141.618C547.554 141.518 547.542 141.411 547.555 141.306V114.892H537.102C536.946 114.904 536.79 114.865 536.659 114.78C536.528 114.696 536.428 114.57 536.376 114.423C536.342 114.324 536.332 114.219 536.342 114.117V108.833C536.332 108.731 536.342 108.629 536.376 108.527C536.412 108.43 536.467 108.343 536.54 108.269C536.612 108.196 536.699 108.139 536.795 108.102C536.893 108.065 536.998 108.05 537.102 108.058H566.942C567.051 108.042 567.163 108.051 567.268 108.083C567.374 108.116 567.471 108.171 567.552 108.245C567.632 108.32 567.694 108.412 567.736 108.513C567.777 108.615 567.796 108.724 567.791 108.833ZM571.394 140.161C571.215 140.093 571.068 139.962 570.98 139.793C570.892 139.623 570.869 139.427 570.917 139.243L571.834 132.749C571.923 132.13 572.311 131.973 572.806 132.324C575.963 134.364 579.641 135.452 583.401 135.458C587.833 135.458 589.916 134.35 589.916 132.517C589.916 130.688 588.805 129.947 586.384 129.226L581.086 127.465C575.894 125.809 571.234 123.147 571.234 117.092C571.234 111.033 576.32 107.317 584.441 107.317C588.406 107.283 592.353 107.878 596.131 109.078C596.23 109.106 596.322 109.154 596.402 109.218C596.482 109.283 596.549 109.362 596.598 109.452C596.647 109.542 596.678 109.641 596.688 109.743C596.699 109.845 596.689 109.949 596.659 110.047L596.325 111.808C596.223 112.611 595.874 113.362 595.324 113.958C594.775 114.554 594.054 114.965 593.26 115.133C592.734 115.244 592.191 115.245 591.665 115.137C589.156 114.568 586.604 114.209 584.035 114.062C581.035 114.062 579.286 115.031 579.286 116.969C579.286 118.907 580.592 119.679 584.584 120.896L588.116 121.95C594.808 124.048 598.019 126.601 598.019 132.079C598.019 138.416 593.448 142.643 582.518 142.643C578.677 142.597 574.889 141.751 571.394 140.161Z" fill="#2D3955"/>
</svg>
