<svg width="600" height="250" viewBox="0 0 600 250" fill="none" xmlns="http://www.w3.org/2000/svg">
<g clip-path="url(#clip0_975_3)">
<mask id="mask0_975_3" style="mask-type:luminance" maskUnits="userSpaceOnUse" x="-1" y="-16" width="601" height="282">
<path d="M599.58 -15.6855H-0.419922V265.685H599.58V-15.6855Z" fill="white"/>
</mask>
<g mask="url(#mask0_975_3)">
<path d="M142.78 170.349H94.4943C94.4943 143.685 116.117 122.085 142.78 122.085V170.349ZM46.5308 25.9795V74.1099H142.769C89.6089 74.1099 46.5308 117.188 46.5308 170.349V218.479H142.78V170.349H190.889V74.1099L142.78 25.9795H46.5308Z" fill="#512D82"/>
<path d="M239.331 113.238H286.66V73.5986H274.007V100.585H242.046C234.1 100.585 229.326 97.113 229.326 89.3676V78.829H216.673V90.6696C216.673 105.214 223.684 113.238 239.319 113.238" fill="#512D82"/>
<path d="M316.718 100.584H313.98C309.429 100.584 305.623 98.0689 305.623 93.5173V93.4394C305.623 88.7544 309.429 86.2393 313.98 86.2393H316.718V100.584ZM329.493 73.5863H316.84C302.974 73.5863 293.726 81.5431 293.726 93.4394V93.5173C293.726 105.347 302.306 113.226 315.137 113.226H316.718C316.239 115.808 314.125 116.486 310.797 116.486C306.58 116.486 302.217 116.141 298.411 115.474L300.537 127.359C304.065 127.982 307.392 128.182 310.864 128.182C323.317 128.182 329.504 122.807 329.504 108.396V73.5752L329.493 73.5863Z" fill="#512D82"/>
<path d="M348.478 93.4511C348.478 88.766 352.273 86.251 356.836 86.251H359.551V100.596H356.836C352.273 100.596 348.478 98.0805 348.478 93.5401V93.4622V93.4511ZM357.993 113.237H359.551C359.083 115.819 356.969 116.498 353.631 116.498C349.424 116.498 345.073 116.153 341.256 115.485L343.359 127.382C346.887 127.994 350.236 128.194 353.697 128.194C364.648 128.194 370.757 124.043 372.048 113.226H490.31V98.0026C490.31 82.9792 483.165 76.1686 469.077 76.1686H430.294L441.1 58.085H425.665L416.016 76.2465C416.083 81.6216 417.986 86.0396 419.956 88.8217H470.724C474.864 88.8217 477.523 91.2699 477.523 95.699V100.584H372.337V73.598H359.684C345.818 73.598 336.571 81.5437 336.571 93.4511V93.529C336.571 105.359 345.128 113.237 357.982 113.237" fill="#512D82"/>
<path d="M529.961 95.4215C529.961 81.0881 523.495 73.5986 508.75 73.5986H507.114V86.3184H510.72C515.683 86.3184 518.064 88.9559 518.064 94.0638V100.596H495.084V113.249H529.961V95.4215Z" fill="#512D82"/>
<path d="M551.027 66.1865H538.374V113.249H551.027V66.1865Z" fill="#512D82"/>
<path d="M544.439 56.3939V55.8486C544.439 54.6245 545.329 53.8233 546.609 53.8233H549.669V49.4053H546.542C541.512 49.4053 537.906 51.5753 537.906 57.2174V61.7133H551.516V56.405H544.439V56.3939Z" fill="#512D82"/>
<path d="M235.792 170.527L242.458 151.341L249.191 170.527H235.792ZM234.779 138.978L214.648 194.13H227.702L232.064 181.399H252.93L257.292 194.13H270.412L250.148 138.978H234.779Z" fill="#512D82"/>
<path d="M310.319 166.242C310.319 176.914 304.944 182.289 294.272 182.289H287.394V150.796H294.272C304.999 150.796 310.319 155.97 310.319 166.108V166.253V166.242ZM294.539 138.966H274.686V194.119H294.539C314.125 194.119 323.317 183.636 323.317 166.231V166.086C323.317 149.215 314.192 138.955 294.539 138.955" fill="#512D82"/>
<path d="M357.782 149.85C362.066 149.85 366.484 150.807 371.18 153.523L376.066 143.118C371.035 140.057 365.26 138.01 357.77 138.01C340.232 138.01 328.592 149.45 328.592 166.521V166.643C328.592 183.714 340.288 195.076 357.77 195.076C365.46 195.076 371.091 192.973 376.066 189.968L371.18 179.563C366.473 182.279 362.055 183.169 357.782 183.169C348.601 183.169 341.534 176.503 341.534 166.643V166.521C341.534 156.038 348.589 149.85 357.782 149.85Z" fill="#512D82"/>
<path d="M422.983 166.509C422.983 176.503 416.05 183.18 406.936 183.18C397.822 183.18 390.755 176.514 390.755 166.509V166.365C390.755 156.371 397.688 149.861 406.936 149.861C416.183 149.861 422.983 156.371 422.983 166.365V166.509ZM406.936 138.021C389.453 138.021 377.835 150.473 377.835 166.376V166.52C377.835 182.3 389.531 195.009 406.936 195.009C424.341 195.009 435.892 182.289 435.892 166.52V166.376C435.892 150.473 424.274 138.021 406.936 138.021Z" fill="#512D82"/>
<path d="M486.359 166.509C486.359 176.503 479.426 183.18 470.312 183.18C461.198 183.18 454.131 176.514 454.131 166.509V166.365C454.131 156.371 461.064 149.861 470.312 149.861C479.56 149.861 486.359 156.371 486.359 166.365V166.509ZM470.312 138.021C452.829 138.021 441.211 150.473 441.211 166.376V166.52C441.211 182.3 452.907 195.009 470.312 195.009C487.717 195.009 499.291 182.289 499.291 166.52V166.376C499.291 150.473 487.65 138.021 470.312 138.021Z" fill="#512D82"/>
<path d="M538.53 157.529C538.53 162.092 535.747 164.139 530.439 164.139H518.131V150.796H530.439C535.814 150.796 538.53 152.9 538.53 157.462V157.529ZM531.797 138.967H505.411V194.119H518.131V175.145H531.797C545.73 175.145 551.505 166.443 551.505 156.65V156.583C551.505 147.658 546.353 138.967 531.797 138.967Z" fill="#512D82"/>
<path d="M263.446 116.442H251.683V128.205H263.446V116.442Z" fill="#512D82"/>
</g>
</g>
<defs>
<clipPath id="clip0_975_3">
<rect width="600" height="250" fill="white"/>
</clipPath>
</defs>
</svg>
