<svg width="600" height="250" viewBox="0 0 600 250" fill="none" xmlns="http://www.w3.org/2000/svg">
<g clip-path="url(#clip0_382_250)">
<path fill-rule="evenodd" clip-rule="evenodd" d="M270.119 61.8867V65.4634H256.962V61.8867H258.678V59.5019C258.487 57.9121 259.06 56.3224 260.203 55.13C262.682 53.143 265.924 53.143 268.403 54.7327C269.356 55.9251 269.928 57.3159 270.119 58.7072L266.877 59.1045C266.877 58.5083 266.687 57.9121 266.305 57.3159C265.924 56.9186 265.352 56.7202 264.78 56.7202C263.254 56.7202 262.492 57.7137 262.492 59.5019V61.4893L270.119 61.8867ZM74.8696 110.172V64.2679H85.1663V119.512H42.2645C36.7349 119.909 31.396 118.32 27.0105 114.941C23.3877 111.166 21.6717 105.999 22.053 100.832C22.053 97.6529 22.625 94.4735 24.1504 91.4925C25.4851 88.7104 27.5826 86.5245 30.252 85.1336C33.3027 83.5439 36.5442 82.5504 39.7857 82.5504L40.9297 91.6914C38.451 91.6914 35.7815 92.486 33.8748 94.2746C32.3494 96.0632 31.5867 98.4476 31.7774 100.832C31.5867 103.416 32.3494 105.999 34.2561 107.986C36.3536 109.775 39.2136 110.57 41.8831 110.172H74.8696ZM65.1453 86.7233V90.3001H51.9888V86.7233H53.5142V84.3385C53.3236 82.7488 53.8956 81.1591 55.0396 79.9667C57.5184 77.9797 60.7598 77.9797 63.2386 79.5694C64.1919 80.7618 64.764 82.1526 64.9546 83.5439L61.7132 83.9412C61.7132 83.345 61.5225 82.7488 61.1412 82.1526C60.7598 81.7553 60.1878 81.5564 59.6158 81.5564C58.0904 81.5564 57.3277 82.5504 57.3277 84.3385V86.326L65.1453 86.7233ZM75.0608 143.361H93.3655C99.8482 142.963 106.141 145.348 111.098 149.719C115.674 154.886 117.962 161.841 117.39 168.797C117.39 172.572 116.818 176.547 115.674 180.123C113.577 186.482 108.62 191.252 102.518 193.239C99.0858 194.431 95.463 195.028 91.8402 194.829H75.0608V143.361ZM91.6495 185.887C93.9372 185.887 96.2254 185.489 98.5136 184.694C100.23 183.899 101.946 182.707 103.09 181.316C104.234 179.726 105.187 177.938 105.759 175.951C106.331 173.765 106.713 171.38 106.522 168.995C106.522 166.611 106.331 164.425 105.759 162.239C105.378 160.45 104.615 158.662 103.471 157.072C102.327 155.681 100.993 154.489 99.2765 153.892C97.3697 153.098 95.2722 152.7 93.1748 152.7H84.9756V186.085L91.6495 185.887ZM40.5455 143.361H50.2699L68.7653 195.028H57.7061L53.702 183.104H36.3507L32.3465 195.028H22.0501L40.5455 143.361ZM51.0326 174.162L45.1217 155.681L39.2108 174.162H51.0326ZM134.549 143.361H125.397H125.206V195.028H135.312V161.444L155.715 195.028H164.867V143.361H154.761V177.341L134.549 143.361ZM183.169 110.171V81.1582H193.084V119.312H126.73C127.111 124.876 125.776 130.44 122.725 135.011C121.963 135.806 121.2 136.402 120.437 136.998L115.48 128.652C116.814 126.267 117.386 123.485 117.005 120.703V119.511H115.67C109.759 119.908 103.848 118.12 99.0818 114.344C95.0776 110.37 92.9801 104.607 93.3615 98.844V96.2608C93.9337 87.1198 101.561 80.3631 110.332 81.1582C114.908 80.7609 119.293 82.5491 122.725 85.7285C125.586 89.5041 127.111 94.2737 126.73 99.2418V110.171H183.169ZM113.764 110.171H116.814V101.427C117.005 98.844 116.814 96.2608 116.243 93.6775C115.861 92.4851 115.098 91.2927 114.145 90.4981C112.81 89.9019 111.476 89.703 110.141 89.703C108.234 89.703 106.327 90.4981 104.993 92.0878C103.658 94.0749 103.086 96.4597 103.277 98.844V101.229C103.848 106.793 108.425 110.767 113.764 110.171ZM193.086 75.9948V65.4625H183.171V75.9948H193.086ZM240.184 104.607V110.171H200.715V119.71H250.29V103.613C250.671 97.6516 248.955 91.6901 245.333 86.9209C241.519 82.9464 236.18 80.7605 230.841 81.1582C227.219 81.1582 223.596 81.754 220.163 82.9464L222.451 92.0874C224.74 91.2927 227.409 90.6965 229.888 90.6965C232.748 90.4977 235.799 91.6901 237.706 94.0749C239.612 97.2543 240.375 100.831 240.184 104.607ZM258.679 69.639H268.594V119.716H258.679V69.639ZM196.899 196.418C193.466 196.418 190.225 195.822 186.984 194.63C184.123 193.437 181.645 191.649 179.547 189.264C177.45 186.681 175.925 183.899 174.971 180.719C172.874 173.367 172.874 165.418 174.971 158.065C175.925 154.886 177.641 151.905 179.738 149.521C181.836 147.136 184.314 145.348 187.174 144.155C193.466 141.572 200.521 141.572 206.814 144.155C209.674 145.348 212.153 147.136 214.25 149.521C216.348 152.104 217.873 154.886 218.826 158.065C219.97 161.643 220.543 165.617 220.352 169.392C220.352 173.168 219.97 176.944 218.826 180.719C217.873 183.899 216.348 186.88 214.25 189.264C212.153 191.649 209.674 193.437 206.814 194.63C203.763 195.822 200.331 196.418 196.899 196.418ZM196.899 187.079C200.712 187.277 204.335 185.687 206.623 182.508C208.911 178.534 210.055 173.963 209.864 169.194C210.055 164.623 209.102 159.854 206.623 155.879C202.047 150.315 194.039 149.521 188.7 154.489C188.309 154.76 188.007 155.124 187.734 155.455C187.606 155.608 187.486 155.754 187.365 155.879C185.077 159.854 183.933 164.425 184.123 169.194C183.933 173.764 184.886 178.534 187.365 182.508C189.462 185.489 193.085 187.277 196.899 187.079ZM268.595 184.7C269.738 182.316 270.311 179.732 270.501 177.149L259.442 177.347C259.252 180.13 258.298 182.713 256.582 184.7C254.675 186.488 252.197 187.482 249.527 187.284C246.095 187.482 242.854 185.694 240.756 182.713C238.468 178.739 237.324 173.969 237.515 169.399C237.324 164.63 238.277 160.059 240.565 156.085C242.472 152.905 245.904 151.117 249.527 151.315C252.006 151.117 254.484 151.912 256.391 153.899C257.917 155.886 258.87 158.469 259.252 161.053L269.548 159.662C269.166 157.078 268.404 154.694 267.45 152.309C266.497 150.123 265.163 148.335 263.637 146.745C261.921 145.155 259.824 143.963 257.726 143.168C255.057 142.373 252.387 141.975 249.527 141.975C246.286 141.777 243.044 142.373 239.993 143.764C237.133 144.956 234.654 146.745 232.748 149.129C230.65 151.713 229.125 154.495 228.172 157.674C227.218 161.45 226.646 165.226 226.646 169.002C226.646 172.777 227.218 176.553 228.172 180.13C229.125 183.309 230.65 186.091 232.557 188.674C234.464 191.059 236.943 193.046 239.612 194.239C242.854 195.63 246.095 196.226 249.527 196.226C252.578 196.425 255.438 195.828 258.298 194.835C260.586 194.04 262.684 192.649 264.59 190.86C266.306 189.072 267.641 187.085 268.595 184.7Z" fill="#0047BA"/>
<path d="M555.484 125C555.484 58.1735 501.503 4 434.914 4C368.325 4 314.344 58.1735 314.344 125C314.344 191.826 368.325 246 434.914 246C501.503 246 555.484 191.826 555.484 125Z" fill="white"/>
<path fill-rule="evenodd" clip-rule="evenodd" d="M329.878 125.009C329.878 168.575 356.166 205.976 393.698 222.095C415.233 211.582 431.947 192.773 434.286 175.612C439.031 148.194 424.175 124.186 395.641 118.219C395.132 118.114 394.585 117.953 393.991 117.745C392.945 117.755 379.057 117.884 368.353 115.018C368.221 115.122 362.203 119.914 364.675 129.082C364.675 129.082 350.384 114.118 359.468 94.002C359.468 94.002 363.873 84.5213 378.805 74.8233C378.918 74.6812 379.031 74.5487 379.154 74.4066C383.153 69.6427 392.727 61.2515 406.64 54.622C413.733 51.421 425.911 46.8275 439.55 45.6531C499.684 40.0369 531.274 84.4932 533.308 87.4574C518.226 47.7177 479.911 19.4473 435.013 19.4473C376.946 19.4473 329.878 66.7066 329.878 125.009ZM495.05 211.658C508.764 202.064 520.094 189.269 527.959 174.353C515.529 141.612 487.448 114.525 449.897 106.465C461.725 109.733 512.548 133.685 500.851 195.539C499.505 201.24 497.549 206.62 495.05 211.658ZM400.49 87.1257C420.459 73.1658 445.776 65.343 475.873 69.3774L475.864 69.3682C502.381 72.3228 526.131 88.6886 537.732 102.516C539.31 109.761 540.139 117.29 540.139 125.009C540.139 125.795 540.13 126.581 540.108 127.377C534.264 114.478 503.486 72.768 446.983 74.4915C447.539 76.5846 447.625 78.8106 447.162 81.0361C445.455 89.2377 436.947 94.3993 428.165 92.5619C421.6 91.1983 416.733 86.302 415.403 80.4962C406.357 83.7447 400.49 87.1257 400.49 87.1257Z" fill="#0047BA"/>
</g>
<defs>
<clipPath id="clip0_382_250">
<rect width="534" height="242" fill="white" transform="translate(22 4)"/>
</clipPath>
</defs>
</svg>
