<svg width="600" height="250" viewBox="0 0 600 250" fill="none" xmlns="http://www.w3.org/2000/svg">
<g clip-path="url(#clip0_382_35)">
<path d="M499.548 109.797H517.816V97.634H499.548V109.797ZM298.47 97.634V170.785H316.73V134.208H328.968V158.622L335.086 170.785H377.738V134.208H386.863V170.785H405.129V134.208H414.259V170.785H432.517V134.208H441.657V122.048H432.517V109.797H414.259V122.048H405.129V109.797H386.863V122.048H359.377V158.622H347.233V122.048H316.73V109.797H347.233V97.634H298.47ZM249.8 170.785H268.063V97.634H249.8V170.785ZM207.148 97.634L182.771 170.785H201.032L210.165 146.459H222.399V170.785H240.665V97.634H207.148ZM222.399 109.797V134.208H213.179L222.399 109.797ZM499.548 170.785H517.816V122.048L499.548 121.96V170.785ZM526.943 122.048V170.785H545.214V134.208H554.344V170.785H572.599V134.208H581.735V170.785H600V134.208L593.977 122.048H526.943ZM447.768 122.048L441.657 134.208V158.622L447.768 170.785H490.42V122.048H447.768ZM459.915 134.208H472.15V158.625H459.915V134.208ZM274.179 146.371H292.442V134.113H274.179V146.371Z" fill="black"/>
<path d="M73.1595 61L0 134.098L18.2955 152.386L36.6663 134.161L54.8815 152.463L36.5484 170.833L54.8815 189L72.8009 170.786L91.4701 189L109.648 170.786L91.4701 152.581L109.843 134.161L128.023 152.386L146.241 134.161L73.1595 61ZM54.9793 115.836L73.1595 97.6145L91.3347 115.836L73.1595 134.056L54.9793 115.836Z" fill="black"/>
</g>
<defs>
<clipPath id="clip0_382_35">
<rect width="600" height="128" fill="white" transform="translate(0 61)"/>
</clipPath>
</defs>
</svg>
