<svg width="600" height="250" viewBox="0 0 600 250" fill="none" xmlns="http://www.w3.org/2000/svg">
<g clip-path="url(#clip0_382_1127)">
<mask id="mask0_382_1127" style="mask-type:luminance" maskUnits="userSpaceOnUse" x="0" y="-4" width="600" height="257">
<path d="M600 -4H0V252.23H600V-4Z" fill="white"/>
</mask>
<g mask="url(#mask0_382_1127)">
<path d="M43.95 110.06L39.09 98.9599H17.22L12.36 110.06H0L22.53 58.6699H33.81L56.34 110.09H43.95V110.06ZM28.2 73.9399L21.63 88.8799H34.68L28.2 73.9399Z" fill="black"/>
<path d="M62.37 110.06V58.6699H74.01V99.8599H96.24V110.06H62.37Z" fill="black"/>
<path d="M171.12 79.6099L153.6 97.0099L136.08 79.6099V110.06H124.44V58.6699H129.21L153.6 84.3799L178.68 58.6699H182.76V110.06H171.12V79.6099Z" fill="black"/>
<path d="M232.74 110.061L227.88 98.9606H206.01L201.15 110.061H188.76L211.29 58.6406H222.57L245.1 110.061H232.71H232.74ZM216.99 73.9406L210.42 88.8806H223.47L216.99 73.9406Z" fill="black"/>
<path d="M263.01 68.9293C261.9 69.8293 261.33 71.0293 261.33 72.5293C261.33 74.0293 262.02 75.1993 263.37 76.0993C264.75 76.9693 267.9 78.0193 272.85 79.2193C277.8 80.4193 281.64 82.2193 284.37 84.6193C287.1 87.0193 288.48 90.5293 288.48 95.1493C288.48 99.7693 286.74 103.489 283.23 106.369C279.72 109.249 275.1 110.659 269.4 110.659C261.15 110.659 253.71 107.659 247.08 101.629L254.01 93.2593C259.62 98.1193 264.84 100.549 269.61 100.549C271.74 100.549 273.42 100.099 274.65 99.1993C275.88 98.2993 276.48 97.0693 276.48 95.5093C276.48 93.9493 275.82 92.7493 274.53 91.8193C273.24 90.9193 270.69 89.9893 266.85 89.0593C260.79 87.6493 256.35 85.7893 253.53 83.5093C250.71 81.2293 249.33 77.6593 249.33 72.7693C249.33 67.8793 251.1 64.1293 254.67 61.4893C258.24 58.8493 262.65 57.5293 267.99 57.5293C271.47 57.5293 274.95 58.1293 278.43 59.2993C281.91 60.4693 284.94 62.1493 287.52 64.3093L281.64 72.6793C277.11 69.2893 272.43 67.6093 267.6 67.6093C265.65 67.6093 264.12 68.0593 263.01 68.9593" fill="black"/>
<path d="M334.95 110.061L330.09 98.9606H308.22L303.36 110.061H290.97L313.5 58.6406H324.78L347.31 110.061H334.92H334.95ZM319.2 73.9406L312.63 88.8806H325.68L319.2 73.9406Z" fill="black"/>
<path d="M395.67 102.98C390.39 108.05 383.91 110.6 376.2 110.6C368.49 110.6 362.01 108.05 356.73 102.98C351.45 97.91 348.81 91.61 348.81 84.05C348.81 76.49 351.45 70.19 356.73 65.12C362.01 60.05 368.49 57.5 376.2 57.5C383.91 57.5 390.39 60.05 395.67 65.12C400.95 70.19 403.59 76.52 403.59 84.05C403.59 91.58 400.95 97.91 395.67 102.98ZM391.71 84.08C391.71 79.49 390.21 75.59 387.24 72.35C384.27 69.11 380.58 67.49 376.23 67.49C371.88 67.49 368.22 69.11 365.22 72.35C362.25 75.59 360.75 79.49 360.75 84.08C360.75 88.67 362.25 92.57 365.22 95.78C368.19 98.99 371.88 100.61 376.23 100.61C380.58 100.61 384.24 98.99 387.24 95.78C390.24 92.57 391.71 88.67 391.71 84.08Z" fill="black"/>
<path d="M457.29 102.98C452.01 108.05 445.53 110.6 437.82 110.6C430.11 110.6 423.63 108.05 418.35 102.98C413.07 97.91 410.43 91.61 410.43 84.05C410.43 76.49 413.07 70.19 418.35 65.12C423.63 60.05 430.11 57.5 437.82 57.5C445.53 57.5 452.01 60.05 457.29 65.12C462.57 70.19 465.21 76.52 465.21 84.05C465.21 91.58 462.57 97.91 457.29 102.98ZM453.33 84.08C453.33 79.49 451.83 75.59 448.86 72.35C445.89 69.11 442.2 67.49 437.85 67.49C433.5 67.49 429.84 69.11 426.84 72.35C423.87 75.59 422.37 79.49 422.37 84.08C422.37 88.67 423.87 92.57 426.84 95.78C429.81 98.99 433.5 100.61 437.85 100.61C442.2 100.61 445.86 98.99 448.86 95.78C451.86 92.57 453.33 88.67 453.33 84.08Z" fill="black"/>
<path d="M514.89 65.3899C519.87 69.8899 522.36 76.0999 522.36 84.1099C522.36 92.1199 519.93 98.4199 515.1 103.07C510.24 107.72 502.86 110.06 492.9 110.06H475.08V58.6699H493.5C502.8 58.6699 509.94 60.9199 514.92 65.3899M506.37 95.9599C509.22 93.3199 510.66 89.4499 510.66 84.4099C510.66 79.3699 509.22 75.4699 506.37 72.7399C503.52 70.0099 499.11 68.6599 493.2 68.6599H486.72V99.9199H494.1C499.41 99.9199 503.52 98.5999 506.37 95.9599Z" fill="black"/>
<path d="M210.45 189.769V140.779H245.13V149.959H220.89V160.309H244.59V169.489H220.89V180.589H245.13V189.769H210.45Z" fill="black"/>
<path d="M293.28 189.769L269.94 157.819V189.769H259.5V140.779H270.24L292.92 171.559V140.779H303.36V189.769H293.28Z" fill="black"/>
<path d="M319.29 189.769V140.779H353.97V149.959H329.73V160.309H353.46V169.489H329.73V180.589H353.97V189.769H319.29Z" fill="black"/>
<path d="M396.03 189.769L386.4 172.369H378.75V189.769H368.31V140.779H391.23C401.43 140.779 407.67 147.469 407.67 156.559C407.67 165.649 402.24 169.849 396.96 171.109L407.97 189.769H396H396.03ZM397.05 156.559C397.05 152.449 393.9 149.959 389.7 149.959H378.75V163.189H389.7C393.87 163.189 397.05 160.699 397.05 156.589" fill="black"/>
<path d="M419.46 165.321C419.46 149.811 431.22 139.971 445.53 139.971C455.73 139.971 462.12 145.101 465.81 150.921L457.14 155.631C454.95 152.181 450.75 149.241 445.53 149.241C436.65 149.241 430.17 156.081 430.17 165.321C430.17 174.561 436.62 181.401 445.53 181.401C449.85 181.401 453.96 179.481 455.97 177.651V171.771H443.04V162.651H466.41V181.461C461.43 187.041 454.44 190.731 445.56 190.731C431.25 190.731 419.49 180.741 419.49 165.321" fill="black"/>
<path d="M493.2 189.769V169.729L474.33 140.779H486.21L498.42 160.459L510.48 140.779H522.36L503.64 169.729V189.769H493.2Z" fill="black"/>
<path fill-rule="evenodd" clip-rule="evenodd" d="M600 124.101C600 89.2409 598.77 58.6709 596.94 41.6309C595.11 58.6709 593.88 89.2409 593.88 124.101C593.88 158.961 595.11 189.531 596.94 206.571C598.77 189.531 600 158.961 600 124.101Z" fill="black"/>
<path fill-rule="evenodd" clip-rule="evenodd" d="M572.28 124.101C572.28 89.2409 571.05 58.6709 569.22 41.6309C567.39 58.6709 566.16 89.2409 566.16 124.101C566.16 158.961 567.39 189.531 569.22 206.571C571.05 189.531 572.28 158.961 572.28 124.101Z" fill="black"/>
<path fill-rule="evenodd" clip-rule="evenodd" d="M586.14 134.69C586.14 85.01 584.91 20.27 583.08 -4C581.25 20.3 580.02 85.01 580.02 134.69C580.02 184.37 581.25 227.93 583.08 252.2C584.91 227.9 586.14 184.37 586.14 134.69Z" fill="black"/>
</g>
</g>
<defs>
<clipPath id="clip0_382_1127">
<rect width="600" height="250" fill="white"/>
</clipPath>
</defs>
</svg>
