<svg width="600" height="250" viewBox="0 0 600 250" fill="none" xmlns="http://www.w3.org/2000/svg">
<g clip-path="url(#clip0_382_258)">
<path d="M328.769 205.151C329.094 205.151 329.361 205.055 329.568 204.863C329.775 204.669 329.878 204.424 329.878 204.127C329.878 203.827 329.775 203.584 329.568 203.395C329.361 203.205 329.094 203.11 328.769 203.11C328.434 203.11 328.164 203.205 327.957 203.395C327.75 203.584 327.648 203.827 327.648 204.127C327.648 204.424 327.75 204.669 327.957 204.863C328.164 205.056 328.434 205.151 328.769 205.151Z" fill="#00953C"/>
<path d="M324.953 205.151C325.278 205.151 325.545 205.055 325.751 204.863C325.958 204.669 326.061 204.424 326.061 204.127C326.061 203.827 325.958 203.584 325.751 203.395C325.545 203.205 325.278 203.11 324.953 203.11C324.618 203.11 324.348 203.205 324.141 203.395C323.934 203.584 323.832 203.827 323.832 204.127C323.832 204.424 323.934 204.669 324.141 204.863C324.348 205.056 324.618 205.151 324.953 205.151Z" fill="#00953C"/>
<path d="M354.164 207.671C354.096 207.571 353.9 207.384 353.565 207.105C353.121 206.739 352.625 206.557 352.074 206.557H346.752C346.575 206.557 346.42 206.495 346.287 206.372C346.152 206.249 346.085 206.101 346.085 205.928C346.085 205.756 346.404 205.51 347.046 205.191L352.239 202.572L352.513 201.905L340.889 206.885C340.532 207.036 340.354 207.419 340.354 208.029C340.354 208.223 340.391 208.412 340.463 208.598H350.73C351.378 208.598 351.788 208.803 351.954 209.215C352.034 209.408 352.074 209.872 352.074 210.609H340.181H338.627H334.581H333.018V206.885C332.481 207.251 331.944 207.617 331.406 207.99C331.094 208.236 330.909 208.517 330.851 208.837C330.809 209.049 330.786 209.639 330.786 210.61H323.37V208.17L321.992 209.106C321.655 209.331 321.438 209.522 321.338 209.673C321.207 209.859 321.141 210.126 321.141 210.47V211.985C321.141 212.231 321.275 212.461 321.541 212.676C321.805 212.893 322.077 213.001 322.356 213.001H331.453H334.581H337.062H353.178C353.506 213.001 353.777 212.907 353.988 212.717C354.2 212.527 354.305 212.284 354.305 211.985V208.468C354.305 208.09 354.258 207.824 354.164 207.671Z" fill="#00953C"/>
<path d="M361.008 214.166C361.008 214.842 360.765 215.389 360.281 215.803C359.795 216.22 359.173 216.426 358.415 216.426C357.636 216.426 356.979 216.222 356.444 215.815C355.907 215.406 355.603 214.856 355.53 214.166H358.415V210.699C358.415 209.969 358.655 209.434 359.129 209.096C359.192 209.043 359.82 208.747 361.009 208.21V214.166H361.008Z" fill="#00953C"/>
<path d="M416.032 214.264C416.032 214.94 415.788 215.487 415.305 215.902C414.819 216.319 414.197 216.525 413.438 216.525C412.66 216.525 412.003 216.322 411.467 215.914C410.93 215.505 410.627 214.954 410.553 214.264H413.439V210.798C413.439 210.067 413.678 209.533 414.152 209.194C414.215 209.142 414.844 208.846 416.033 208.309V214.264H416.032Z" fill="#00953C"/>
<path d="M394.588 214.166C394.588 214.842 394.344 215.389 393.861 215.803C393.375 216.22 392.753 216.426 391.994 216.426C391.216 216.426 390.559 216.222 390.023 215.815C389.486 215.406 389.183 214.856 389.109 214.166H391.995V210.699C391.995 209.969 392.234 209.434 392.708 209.096C392.771 209.043 393.4 208.747 394.589 208.21V214.166H394.588Z" fill="#00953C"/>
<path d="M385.149 206.268C384.756 206.534 384.047 206.692 383.018 206.746C382.027 206.8 381.328 206.988 380.918 207.313C379.818 208.183 379.26 209.281 379.245 210.61H374.885H373.329H369.296H367.72H366.573V201.637C366.573 201.112 366.328 200.664 365.834 200.292C365.339 200 364.844 199.708 364.342 199.415V213.001H366.157H369.297H374.886H386.211V205.372C385.86 205.73 385.508 206.03 385.149 206.268ZM383.628 210.411H381.367C381.338 210.271 381.323 210.148 381.323 210.043C381.323 209.631 381.504 209.26 381.869 208.927C382.235 208.596 382.641 208.429 383.094 208.429C383.24 208.429 383.42 208.449 383.628 208.49V210.411Z" fill="#00953C"/>
<path d="M404.604 214.829C404.276 214.829 404.011 214.924 403.803 215.113C403.596 215.302 403.491 215.547 403.491 215.846C403.491 216.15 403.595 216.398 403.803 216.587C404.01 216.776 404.276 216.872 404.604 216.872C404.936 216.872 405.208 216.777 405.412 216.587C405.62 216.398 405.723 216.15 405.723 215.846C405.723 215.547 405.62 215.302 405.412 215.113C405.208 214.923 404.936 214.829 404.604 214.829Z" fill="#00953C"/>
<path d="M408.169 206.937C407.027 207.708 406.386 208.188 406.264 208.369C406.097 208.635 406.014 209.382 406.014 210.61H403.093H401.528H397.505H395.931H394.587V208.21C393.398 208.747 392.771 209.043 392.705 209.095C392.232 209.434 391.994 209.968 391.994 210.699V214.165H389.109C389.174 214.836 389.484 215.397 390.037 215.848C390.592 216.3 391.245 216.524 391.994 216.524C392.724 216.524 393.339 216.297 393.836 215.844C394.337 215.388 394.587 214.829 394.587 214.165V213H397.505H399.966H406.692H408.169V206.937Z" fill="#00953C"/>
<path d="M414.971 206.265C414.578 206.531 413.869 206.69 412.84 206.744C411.848 206.798 411.149 206.986 410.739 207.311C409.67 208.156 409.123 209.222 409.079 210.502V212.998H416.033V205.369C415.682 205.727 415.33 206.027 414.971 206.265ZM413.45 210.408H411.189C411.16 210.269 411.145 210.146 411.145 210.041C411.145 209.628 411.326 209.257 411.691 208.924C412.057 208.593 412.463 208.426 412.916 208.426C413.062 208.426 413.242 208.447 413.45 208.487V210.408Z" fill="#00953C"/>
<path d="M430.909 208.297C430.75 208.556 430.672 209.32 430.672 210.587H428.551V206.862C427.368 207.586 426.705 208.064 426.559 208.297C426.4 208.556 426.322 209.32 426.322 210.587H425.509H424.202H424.048V206.862C422.864 207.586 422.201 208.064 422.055 208.297C421.896 208.556 421.818 209.32 421.818 210.587H421.159H419.852H416.655H415.348V210.598H414.959H414.318H412.982H410.429H409.115C409.116 210.602 409.117 210.606 409.117 210.61H409.081V212.977H412.344H413.309H415.349H416.215V212.998H417.03H417.227H418.543H418.741H420.058H420.255H421.571H421.768H422.953H423.281H426.716C426.907 212.998 427.082 212.99 427.248 212.977H427.352H430.121C430.34 212.996 430.502 212.998 430.534 212.998H430.652C430.718 212.996 430.775 212.983 430.838 212.977H431.702C431.971 212.977 432.239 212.868 432.505 212.653C432.768 212.437 432.904 212.207 432.904 211.961V210.811V210.597V206.861C431.718 207.586 431.055 208.064 430.909 208.297Z" fill="#00953C"/>
<path d="M319.187 226.873L321.311 226.629C321.438 227.468 321.698 228.083 322.088 228.476C322.479 228.869 323.008 229.065 323.671 229.065C324.375 229.065 324.904 228.89 325.261 228.541C325.618 228.19 325.796 227.782 325.796 227.316C325.796 227.014 325.72 226.759 325.571 226.548C325.42 226.337 325.159 226.155 324.785 226C324.53 225.895 323.946 225.711 323.036 225.445C321.866 225.103 321.044 224.686 320.574 224.188C319.91 223.489 319.577 222.638 319.577 221.633C319.577 220.987 319.733 220.381 320.046 219.817C320.359 219.255 320.807 218.827 321.396 218.531C321.985 218.236 322.693 218.09 323.525 218.09C324.881 218.09 325.903 218.438 326.588 219.137C327.274 219.837 327.634 220.769 327.67 221.937L325.485 222.048C325.392 221.395 325.192 220.927 324.886 220.64C324.577 220.354 324.118 220.212 323.503 220.212C322.868 220.212 322.37 220.365 322.011 220.672C321.78 220.867 321.665 221.131 321.665 221.46C321.665 221.76 321.773 222.017 321.991 222.23C322.267 222.501 322.935 222.785 323.996 223.081C325.059 223.373 325.845 223.68 326.354 223.993C326.862 224.308 327.262 224.739 327.548 225.285C327.837 225.831 327.982 226.504 327.982 227.308C327.982 228.036 327.808 228.718 327.464 229.352C327.12 229.987 326.634 230.46 326.003 230.769C325.373 231.078 324.589 231.231 323.65 231.231C322.283 231.231 321.233 230.86 320.5 230.119C319.766 229.375 319.329 228.294 319.187 226.873Z" fill="#008C39" stroke="#008C39" stroke-width="0.25" stroke-miterlimit="10"/>
<path d="M329.801 218.306H331.986V225.183C331.986 226.274 332.012 226.982 332.068 227.306C332.161 227.825 332.383 228.242 332.734 228.558C333.087 228.871 333.567 229.028 334.177 229.028C334.796 229.028 335.262 228.879 335.578 228.582C335.894 228.284 336.082 227.92 336.146 227.487C336.21 227.055 336.242 226.335 336.242 225.329V218.306H338.426V224.975C338.426 226.5 338.366 227.577 338.249 228.207C338.131 228.835 337.913 229.368 337.596 229.801C337.278 230.234 336.854 230.578 336.324 230.835C335.791 231.093 335.099 231.222 334.244 231.222C333.211 231.222 332.427 231.08 331.893 230.8C331.36 230.52 330.938 230.156 330.63 229.71C330.319 229.262 330.115 228.793 330.017 228.302C329.875 227.574 329.802 226.499 329.802 225.078V218.306H329.801Z" fill="#008C39" stroke="#008C39" stroke-width="0.25" stroke-miterlimit="10"/>
<path d="M340.726 231.005V218.306H344.229C345.557 218.306 346.423 218.368 346.827 218.495C347.446 218.685 347.966 219.101 348.383 219.738C348.801 220.377 349.009 221.201 349.009 222.211C349.009 222.992 348.889 223.647 348.65 224.178C348.408 224.711 348.101 225.126 347.73 225.43C347.36 225.734 346.982 225.934 346.598 226.032C346.076 226.154 345.321 226.214 344.334 226.214H342.911V231.005H340.726ZM342.911 220.452V224.058H344.105C344.964 224.058 345.542 223.991 345.83 223.858C346.121 223.725 346.347 223.516 346.514 223.234C346.679 222.95 346.761 222.621 346.761 222.246C346.761 221.784 346.646 221.402 346.415 221.102C346.184 220.802 345.891 220.614 345.536 220.538C345.276 220.481 344.752 220.452 343.966 220.452H342.911V220.452Z" fill="#008C39" stroke="#008C39" stroke-width="0.25" stroke-miterlimit="10"/>
<path d="M350.803 231.005V218.306H358.822V220.452H352.988V223.268H358.416V225.408H352.988V228.864H359.029V231.005H350.803Z" fill="#008C39" stroke="#008C39" stroke-width="0.25" stroke-miterlimit="10"/>
<path d="M360.887 231.005V218.306H365.482C366.639 218.306 367.478 218.419 368.002 218.648C368.526 218.874 368.946 219.281 369.261 219.864C369.574 220.448 369.731 221.114 369.731 221.865C369.731 222.819 369.494 223.605 369.017 224.227C368.539 224.846 367.827 225.239 366.877 225.399C367.349 225.723 367.74 226.079 368.047 226.465C368.353 226.854 368.768 227.54 369.29 228.527L370.611 231.005H367.998L366.419 228.24C365.86 227.252 365.476 226.631 365.269 226.373C365.063 226.118 364.843 225.94 364.612 225.845C364.381 225.749 364.015 225.702 363.513 225.702H363.071V231.004L360.887 231.005ZM363.071 223.676H364.688C365.734 223.676 366.388 223.623 366.648 223.521C366.91 223.416 367.114 223.236 367.261 222.984C367.409 222.728 367.483 222.411 367.483 222.029C367.483 221.603 367.385 221.259 367.192 220.995C366.996 220.733 366.723 220.566 366.368 220.497C366.19 220.469 365.66 220.453 364.774 220.453H363.071L363.071 223.676Z" fill="#008C39" stroke="#008C39" stroke-width="0.25" stroke-miterlimit="10"/>
<path d="M371.76 231.005V218.306H375.029L376.991 226.968L378.929 218.306H382.206V231.005H380.177V221.007L378.03 231.005H375.927L373.79 221.007V231.005H371.76Z" fill="#008C39" stroke="#008C39" stroke-width="0.25" stroke-miterlimit="10"/>
<path d="M394.128 231.005H391.752L390.807 228.121H386.484L385.592 231.005H383.277L387.488 218.306H389.797L394.128 231.005ZM390.107 225.981L388.617 221.268L387.156 225.981H390.107Z" fill="#008C39" stroke="#008C39" stroke-width="0.25" stroke-miterlimit="10"/>
<path d="M395.291 231.005V218.306H399.887C401.043 218.306 401.882 218.419 402.407 218.648C402.93 218.874 403.35 219.281 403.665 219.864C403.979 220.448 404.136 221.114 404.136 221.865C404.136 222.819 403.898 223.605 403.421 224.227C402.944 224.846 402.231 225.239 401.281 225.399C401.754 225.723 402.144 226.079 402.451 226.465C402.758 226.854 403.173 227.54 403.694 228.527L405.015 231.005H402.402L400.824 228.24C400.265 227.252 399.88 226.631 399.674 226.373C399.467 226.118 399.248 225.94 399.017 225.845C398.786 225.749 398.42 225.702 397.917 225.702H397.476V231.004L395.291 231.005ZM397.476 223.676H399.092C400.138 223.676 400.793 223.623 401.052 223.521C401.315 223.416 401.519 223.236 401.665 222.984C401.814 222.728 401.887 222.411 401.887 222.029C401.887 221.603 401.789 221.259 401.596 220.995C401.4 220.733 401.127 220.566 400.772 220.497C400.595 220.469 400.064 220.453 399.178 220.453H397.475L397.476 223.676Z" fill="#008C39" stroke="#008C39" stroke-width="0.25" stroke-miterlimit="10"/>
<path d="M406.223 231.005V218.306H408.408V223.944L412.819 218.306H415.754L411.683 223.252L415.976 231.005H413.15L410.178 225.044L408.409 227.166V231.005H406.223Z" fill="#008C39" stroke="#008C39" stroke-width="0.25" stroke-miterlimit="10"/>
<path d="M417.104 231.005V218.306H425.123V220.452H419.288V223.268H424.717V225.408H419.288V228.864H425.329V231.005H417.104Z" fill="#008C39" stroke="#008C39" stroke-width="0.25" stroke-miterlimit="10"/>
<path d="M429.616 231.005V220.452H426.406V218.306H435V220.452H431.798V231.005H429.616Z" fill="#008C39" stroke="#008C39" stroke-width="0.25" stroke-miterlimit="10"/>
<path d="M174.772 223.404H170.298V218.563H167.897V231.417H170.298V225.649H174.772V231.417H177.189V218.563H174.772V223.404Z" fill="#00953C"/>
<path d="M183.684 223.789L181.266 218.563H178.467L182.439 226.559V231.417H184.84V226.599L188.673 218.563H185.911L183.684 223.789Z" fill="#00953C"/>
<path d="M195.045 218.563H189.985V231.417H192.387V226.752H195.045C197.292 226.752 198.724 225.069 198.724 222.724C198.724 220.404 197.292 218.563 195.045 218.563ZM194.667 224.566H192.388V220.79H194.667C196.048 220.79 196.617 221.585 196.617 222.648C196.617 223.771 196.047 224.566 194.667 224.566Z" fill="#00953C"/>
<path d="M202.316 225.823H207.929V223.558H202.316V220.811H208.413V218.563H199.985V231.417H208.689V229.134H202.316V225.823Z" fill="#00953C"/>
<path d="M219.293 222.28C219.293 220.152 217.893 218.563 215.77 218.563H209.95V231.417H212.281V226.384H214.839C216.219 226.384 216.634 226.868 216.634 228.107V231.417H218.983V227.78C218.983 226.269 218.603 225.631 217.584 225.261C218.688 224.816 219.293 223.656 219.293 222.28ZM215.286 224.218H212.281V220.79H215.373C216.565 220.79 217.047 221.506 217.047 222.513C217.047 223.5 216.565 224.218 215.286 224.218Z" fill="#00953C"/>
<path d="M226.305 227.991L224.231 218.563H220.708V231.417H222.936V222.648L225.061 231.417H227.443L229.585 222.609V231.417H231.83V218.563H228.376L226.305 227.991Z" fill="#00953C"/>
<path d="M237.236 218.563L233.143 231.417H235.681L236.494 228.766H240.725L241.45 231.417H244.058L240.017 218.563H237.236ZM237.115 226.559L238.583 221.447H238.6L240.034 226.559H237.115Z" fill="#00953C"/>
<path d="M254.712 222.28C254.712 220.152 253.313 218.563 251.189 218.563H245.369V231.417H247.7V226.384H250.258C251.639 226.384 252.054 226.868 252.054 228.107V231.417H254.402V227.78C254.402 226.269 254.022 225.631 253.003 225.261C254.108 224.816 254.712 223.656 254.712 222.28ZM250.705 224.218H247.7V220.79H250.792C251.983 220.79 252.468 221.506 252.468 222.513C252.468 223.5 251.983 224.218 250.705 224.218Z" fill="#00953C"/>
<path d="M265.99 218.563H262.881L258.496 223.789V218.563H256.129V231.417H258.496V227.043L259.771 225.631L263.175 231.417H266.093L261.465 223.635L265.99 218.563Z" fill="#00953C"/>
<path d="M269.686 225.823H275.298V223.558H269.686V220.811H275.781V218.563H267.354V231.417H276.058V229.134H269.686V225.823Z" fill="#00953C"/>
<path d="M276.989 218.563V220.811H280.443V231.417H282.844V220.811H286.316V218.563H276.989Z" fill="#00953C"/>
<path d="M170.652 206.155C170.856 206.304 171.12 206.379 171.45 206.379C171.771 206.379 172.034 206.304 172.236 206.155C172.441 206.006 172.54 205.818 172.54 205.585C172.54 205.356 172.442 205.166 172.236 205.021C172.034 204.875 171.771 204.802 171.45 204.802C171.12 204.802 170.856 204.875 170.652 205.021C170.448 205.166 170.349 205.356 170.349 205.585C170.349 205.818 170.448 206.006 170.652 206.155Z" fill="#00953C"/>
<path d="M174.407 206.155C174.611 206.304 174.877 206.379 175.207 206.379C175.526 206.379 175.789 206.304 175.991 206.155C176.194 206.006 176.297 205.818 176.297 205.585C176.297 205.356 176.194 205.166 175.991 205.021C175.789 204.875 175.526 204.802 175.207 204.802C174.878 204.802 174.611 204.875 174.407 205.021C174.204 205.166 174.103 205.356 174.103 205.585C174.103 205.818 174.204 206.006 174.407 206.155Z" fill="#00953C"/>
<path d="M199.606 207.883C199.169 207.602 198.681 207.462 198.139 207.462H192.902C192.728 207.462 192.575 207.413 192.441 207.317C192.31 207.224 192.244 207.109 192.244 206.977C192.244 206.843 192.558 206.653 193.19 206.409L198.301 204.388L198.57 203.874L187.133 207.713C186.782 207.832 186.605 208.126 186.605 208.596C186.605 208.747 186.641 208.893 186.713 209.034H196.816C197.453 209.034 197.856 209.193 198.022 209.511C198.101 209.659 198.139 210.017 198.139 210.587H186.434H184.904H180.925H179.385V207.713C178.856 207.997 178.33 208.279 177.8 208.566C177.496 208.757 177.31 208.973 177.256 209.219C177.212 209.383 177.19 209.839 177.19 210.587H169.896V208.705L168.536 209.427C168.206 209.601 167.993 209.747 167.893 209.865C167.764 210.008 167.7 210.214 167.7 210.481V211.648C167.7 211.837 167.832 212.014 168.092 212.182C168.356 212.348 168.622 212.431 168.896 212.431H177.847H180.925H183.365H186.434H199.224C199.547 212.431 199.814 212.357 200.021 212.212C200.229 212.067 200.333 211.879 200.333 211.648V208.935C200.333 208.645 200.29 208.439 200.195 208.321C200.131 208.244 199.933 208.097 199.606 207.883Z" fill="#00953C"/>
<path d="M204.379 210.657V213.329H201.54C201.61 213.861 201.909 214.286 202.438 214.601C202.964 214.917 203.613 215.074 204.379 215.074C205.126 215.074 205.736 214.915 206.212 214.593C206.692 214.273 206.928 213.853 206.928 213.33V208.736C205.762 209.15 205.142 209.38 205.076 209.421C204.613 209.681 204.379 210.093 204.379 210.657Z" fill="#00953C"/>
<path d="M228.588 207.606C227.612 207.648 226.925 207.793 226.521 208.046C225.439 208.715 224.891 209.563 224.876 210.587H220.584H219.054H215.085H213.534H212.406V203.665C212.406 203.262 212.163 202.917 211.676 202.628C211.192 202.403 210.702 202.18 210.21 201.954V212.431H211.996H215.085H217.517H220.584H231.728V206.548C231.383 206.822 231.037 207.054 230.686 207.239C230.298 207.444 229.599 207.566 228.588 207.606ZM229.19 210.434H226.964C226.934 210.326 226.922 210.232 226.922 210.149C226.922 209.833 227.099 209.545 227.457 209.288C227.817 209.034 228.218 208.905 228.664 208.905C228.807 208.905 228.984 208.921 229.19 208.953V210.434Z" fill="#00953C"/>
<path d="M251.792 214.225C251.589 214.08 251.324 214.008 250.993 214.008C250.672 214.008 250.412 214.08 250.207 214.225C250.006 214.371 249.904 214.559 249.904 214.79C249.904 215.024 250.006 215.216 250.207 215.361C250.412 215.506 250.672 215.582 250.993 215.582C251.324 215.582 251.589 215.507 251.792 215.361C251.995 215.216 252.097 215.024 252.097 214.79C252.097 214.559 251.995 214.371 251.792 214.225Z" fill="#00953C"/>
<path d="M261.6 214.141C261.397 213.993 261.13 213.921 260.803 213.921C260.482 213.921 260.215 213.993 260.012 214.141C259.805 214.286 259.706 214.478 259.706 214.708C259.706 214.94 259.805 215.13 260.012 215.275C260.215 215.422 260.482 215.495 260.803 215.495C261.13 215.495 261.397 215.422 261.6 215.275C261.797 215.13 261.898 214.941 261.898 214.708C261.898 214.478 261.798 214.287 261.6 214.141Z" fill="#00953C"/>
<path d="M260.273 208.821C260.116 209.02 260.038 209.609 260.038 210.587H254.96H253.424H253.412V207.714C252.235 208.335 251.584 208.715 251.464 208.859C251.297 209.065 251.215 209.64 251.215 210.587H248.342H246.805H242.845H241.297H239.972V208.736C238.804 209.15 238.186 209.379 238.122 209.42C237.657 209.681 237.423 210.093 237.423 210.657V213.329H234.581C234.645 213.848 234.952 214.278 235.495 214.626C236.042 214.976 236.683 215.15 237.423 215.15C238.138 215.15 238.745 214.975 239.237 214.625C239.726 214.272 239.972 213.842 239.972 213.329V212.431H242.845H245.267H248.342H251.884H254.96H261.051C261.314 212.431 261.579 212.348 261.842 212.183C262.104 212.015 262.235 211.837 262.235 211.649V207.714C261.07 208.273 260.416 208.642 260.273 208.821Z" fill="#00953C"/>
<path d="M257.849 214.141C257.645 213.993 257.381 213.921 257.056 213.921C256.727 213.921 256.462 213.993 256.263 214.141C256.06 214.286 255.961 214.478 255.961 214.708C255.961 214.94 256.06 215.13 256.263 215.275C256.462 215.422 256.727 215.495 257.056 215.495C257.381 215.495 257.645 215.422 257.849 215.275C258.052 215.13 258.157 214.941 258.157 214.708C258.157 214.478 258.052 214.287 257.849 214.141Z" fill="#00953C"/>
<path d="M285.624 208.253C284.986 207.596 284.072 207.253 282.88 207.224V204.756C281.824 205.372 281.255 205.72 281.17 205.802C280.837 206.104 280.674 206.587 280.674 207.253C279.7 207.55 278.879 207.995 278.21 208.586C277.543 209.179 277.117 209.845 276.93 210.587H275.875H274.347H270.375H268.825H267.699V203.665C267.699 203.262 267.454 202.917 266.972 202.628C266.486 202.403 265.996 202.18 265.504 201.954V212.431H267.29H270.375H272.806H275.875H285.278C285.55 212.431 285.817 212.347 286.076 212.182C286.333 212.014 286.462 211.837 286.462 211.648V210.464C286.463 209.568 286.183 208.832 285.624 208.253ZM280.687 210.587H279.124C279.247 210.158 279.404 209.843 279.592 209.642C279.799 209.423 280.166 209.219 280.687 209.035V210.587ZM284.268 210.587H282.881V209.035C283.427 209.113 283.795 209.234 283.996 209.399C284.191 209.567 284.292 209.848 284.292 210.242C284.291 210.349 284.284 210.464 284.268 210.587Z" fill="#00953C"/>
<path d="M306.505 205.018H304.987V231.342H306.505V205.018Z" fill="#E0171D"/>
<path d="M200.482 194.787C200.413 194.515 200.326 194.221 200.222 193.93L190.98 165.147C190.212 162.778 189.17 160.972 187.882 159.784C186.548 158.546 184.868 157.921 182.892 157.921C180.86 157.921 179.161 158.546 177.84 159.785C176.566 160.972 175.529 162.779 174.76 165.15L165.602 193.911C165.491 194.221 165.404 194.513 165.338 194.779C165.271 195.047 165.209 195.335 165.156 195.639L165 196.512H174.463L174.541 195.856C174.563 195.672 174.593 195.485 174.64 195.295L175.942 190.876H189.991L191.188 194.736C191.23 194.892 191.272 195.056 191.334 195.285C191.381 195.467 191.429 195.68 191.474 195.912L191.593 196.512H200.819L200.661 195.638C200.608 195.333 200.549 195.047 200.482 194.787ZM187.036 181.387H178.891L182.505 169.345C182.627 168.928 182.744 168.834 182.752 168.828C182.849 168.748 182.904 168.748 182.929 168.748C182.978 168.748 183.036 168.763 183.118 168.832C183.163 168.871 183.278 169.003 183.389 169.351L187.036 181.387Z" fill="#E0171D"/>
<path d="M208.827 185.346C208.694 185.148 208.475 184.58 208.475 183.044V158.727H200.095V183.958C200.095 185.964 200.24 187.752 200.525 189.275C200.819 190.849 201.32 192.189 202.017 193.249C202.735 194.351 203.71 195.182 204.907 195.72C206.072 196.246 207.505 196.513 209.17 196.513H228.506V185.737H210.005C209.392 185.736 208.996 185.607 208.827 185.346Z" fill="#E0171D"/>
<path d="M283.223 160.368C282.591 159.665 281.858 159.079 281.044 158.63C280.19 158.16 279.234 157.921 278.204 157.921C276.336 157.921 274.802 158.645 273.649 160.076C272.587 161.394 271.702 163.12 271.021 165.199L265.292 182.832L259.562 165.197C258.877 163.114 257.986 161.39 256.912 160.069C255.746 158.644 254.218 157.921 252.379 157.921C251.345 157.921 250.391 158.159 249.538 158.63C248.726 159.079 247.991 159.664 247.352 160.375C246.529 161.305 245.885 162.502 245.439 163.918C245.002 165.312 244.781 167.085 244.781 169.186V196.512H252.859V171.637L260.272 193.441C260.729 194.734 261.422 195.705 262.334 196.329C263.239 196.947 264.234 197.266 265.291 197.266C266.349 197.266 267.344 196.947 268.249 196.329C269.159 195.705 269.852 194.732 270.312 193.431L277.726 171.627V196.512H285.802V169.186C285.802 167.081 285.58 165.305 285.142 163.918C284.697 162.501 284.053 161.305 283.223 160.368Z" fill="#E0171D"/>
<path d="M322.187 194.786C322.121 194.513 322.03 194.222 321.929 193.93L312.688 165.148C311.919 162.779 310.876 160.973 309.589 159.782C308.253 158.547 306.574 157.922 304.598 157.922C302.568 157.922 300.868 158.547 299.545 159.786C298.271 160.973 297.237 162.779 296.468 165.151L287.309 193.912C287.199 194.222 287.109 194.516 287.044 194.78C286.978 195.047 286.917 195.336 286.864 195.644L286.71 196.513H296.173L296.247 195.855C296.269 195.671 296.3 195.485 296.347 195.295L297.65 190.877H311.698L312.893 194.737C312.943 194.91 312.991 195.091 313.042 195.286C313.088 195.47 313.137 195.683 313.184 195.92L313.306 196.512H322.529L322.369 195.638C322.314 195.333 322.256 195.047 322.187 194.786ZM308.744 181.387H300.597L304.213 169.346C304.333 168.928 304.448 168.835 304.457 168.828C304.555 168.748 304.61 168.748 304.634 168.748C304.684 168.748 304.741 168.763 304.824 168.832C304.868 168.873 304.986 169.003 305.095 169.352L308.744 181.387Z" fill="#E0171D"/>
<path d="M349.38 163.8C348.188 162.22 346.751 160.965 345.11 160.077C343.454 159.181 341.507 158.727 339.321 158.727H325.501C324.775 158.727 323.09 159.018 323.09 161.725V193.461C323.09 196.214 324.775 196.512 325.501 196.512H339.321C341.751 196.512 343.896 195.942 345.698 194.819C347.474 193.71 349.006 192.177 350.248 190.265C351.317 188.602 352.163 186.672 352.761 184.53C353.358 182.401 353.66 180.073 353.66 177.619C353.66 174.906 353.279 172.34 352.526 169.984C351.771 167.619 350.711 165.536 349.38 163.8ZM342.006 184.822C341.294 185.25 340.391 185.467 339.321 185.467H331.432V185.46V169.834V169.828L339.321 169.827C340.349 169.827 341.192 170.009 341.833 170.372C342.5 170.749 343.087 171.264 343.572 171.883C344.099 172.602 344.527 173.468 344.842 174.462C345.16 175.457 345.319 176.539 345.319 177.675C345.319 178.707 345.188 179.697 344.932 180.609C344.674 181.519 344.311 182.325 343.849 183.014C343.357 183.774 342.738 184.381 342.006 184.822Z" fill="#E0171D"/>
<path d="M363.885 158.727H355.505V196.513H363.885V158.727Z" fill="#E0171D"/>
<path d="M399.48 158.726H391.289V182.737L378.998 161.874C378.121 160.437 377.24 159.448 376.304 158.844C375.355 158.229 374.187 157.921 372.834 157.921C371.882 157.921 370.984 158.093 370.162 158.433C369.315 158.786 368.578 159.361 367.969 160.138C367.378 160.897 366.92 161.87 366.606 163.034C366.301 164.164 366.145 165.549 366.145 167.147V196.512H374.372V171.237L388.29 194.061C388.961 195.168 389.775 195.991 390.712 196.503C391.637 197.008 392.718 197.265 393.927 197.265C394.676 197.265 395.404 197.083 396.088 196.723C396.775 196.362 397.38 195.814 397.886 195.097C398.375 194.403 398.77 193.512 399.054 192.446C399.337 191.403 399.479 190.153 399.479 188.736V158.726H399.48Z" fill="#E0171D"/>
<path d="M434.8 195.64C434.745 195.336 434.686 195.047 434.617 194.786C434.549 194.513 434.46 194.222 434.36 193.93L425.119 165.146C424.348 162.779 423.305 160.973 422.02 159.785C420.682 158.547 419.005 157.922 417.027 157.922C414.997 157.922 413.299 158.547 411.977 159.786C410.702 160.973 409.667 162.779 408.895 165.151L399.739 193.912C399.629 194.222 399.54 194.513 399.472 194.786C399.405 195.047 399.346 195.336 399.292 195.64L399.137 196.513H408.599L408.677 195.856C408.7 195.671 408.733 195.482 408.776 195.301L410.08 190.877H424.128L425.325 194.739C425.373 194.911 425.423 195.095 425.47 195.283C425.516 195.467 425.567 195.68 425.613 195.916L425.734 196.512H434.953L434.8 195.64ZM421.176 181.387H413.027L416.645 169.342C416.764 168.928 416.879 168.835 416.887 168.828C416.983 168.748 417.042 168.748 417.042 168.748C417.115 168.748 417.173 168.763 417.253 168.832C417.299 168.872 417.415 169.003 417.524 169.352L421.176 181.387Z" fill="#E0171D"/>
<path d="M211.256 106.996C212.184 106.996 212.939 106.702 213.531 106.112C214.116 105.526 214.408 104.76 214.408 103.81C214.408 102.881 214.117 102.127 213.531 101.537C212.939 100.952 212.184 100.657 211.256 100.657C210.307 100.657 209.547 100.952 208.97 101.537C208.392 102.127 208.102 102.881 208.102 103.81C208.102 104.76 208.392 105.526 208.97 106.112C209.547 106.702 210.307 106.996 211.256 106.996Z" fill="#00953C"/>
<path d="M222.016 106.996C222.963 106.996 223.727 106.702 224.303 106.112C224.88 105.526 225.172 104.76 225.172 103.81C225.172 102.881 224.88 102.127 224.303 101.537C223.727 100.952 222.963 100.657 222.016 100.657C221.088 100.657 220.329 100.952 219.744 101.537C219.156 102.127 218.862 102.881 218.862 103.81C218.862 104.76 219.156 105.526 219.744 106.112C220.329 106.702 221.088 106.996 222.016 106.996Z" fill="#00953C"/>
<path d="M260.324 112.994C261.25 112.994 262.009 112.7 262.593 112.113C263.183 111.525 263.476 110.769 263.476 109.84C263.476 108.913 263.183 108.15 262.593 107.553C262.008 106.955 261.25 106.655 260.324 106.655C259.376 106.655 258.612 106.955 258.035 107.553C257.458 108.15 257.169 108.913 257.169 109.84C257.169 110.769 257.458 111.526 258.035 112.113C258.612 112.7 259.376 112.994 260.324 112.994Z" fill="#00953C"/>
<path d="M274.609 143.693C273.661 143.693 272.894 143.992 272.317 144.58C271.742 145.172 271.451 145.931 271.451 146.866C271.451 147.795 271.742 148.558 272.317 149.149C272.894 149.737 273.661 150.034 274.609 150.034C275.537 150.034 276.293 149.737 276.88 149.149C277.468 148.558 277.761 147.795 277.761 146.866C277.761 145.931 277.468 145.172 276.88 144.58C276.293 143.992 275.536 143.693 274.609 143.693Z" fill="#00953C"/>
<path d="M283.849 123.167C283.396 123.97 283.172 126.341 283.172 130.273H268.547H264.166H264.126V121.989L259.779 124.773C258.776 125.432 258.176 126.082 257.97 126.721C257.848 127.112 257.798 128.02 257.818 129.441V130.273H246.38H241.964H230.579H226.129V114.139C224.457 115.724 222.591 116.756 220.53 117.229C218.861 117.413 217.195 117.599 215.524 117.784C213.665 117.99 212.184 118.566 211.069 119.516C207.73 122.38 206.062 125.968 206.062 130.273V137.7H221.706H230.579H237.535H246.38H259.734H268.547H286.078C286.842 137.7 287.596 137.363 288.35 136.692C289.101 136.023 289.48 135.305 289.48 134.541V118.713C286.136 120.958 284.257 122.445 283.849 123.167ZM219.821 130.274H212.399C212.378 130.028 212.368 129.793 212.368 129.565C212.368 128.125 212.932 126.84 214.061 125.718C215.186 124.595 216.477 124.031 217.925 124.031C218.527 124.031 219.156 124.136 219.821 124.342V130.274Z" fill="#00953C"/>
<path d="M285.367 143.693C284.441 143.693 283.68 143.992 283.093 144.58C282.506 145.172 282.215 145.931 282.215 146.866C282.215 147.795 282.506 148.558 283.093 149.149C283.681 149.737 284.442 150.034 285.367 150.034C286.315 150.034 287.079 149.737 287.656 149.149C288.231 148.558 288.52 147.795 288.52 146.866C288.52 145.931 288.231 145.172 287.656 144.58C287.079 143.992 286.315 143.693 285.367 143.693Z" fill="#00953C"/>
<path d="M371.815 102.76V137.701C371.815 138.543 371.531 139.302 370.956 139.972C370.389 140.639 369.68 140.975 368.831 140.975C367.918 140.975 367.151 140.659 366.532 140.029C365.909 139.404 365.599 138.624 365.599 137.701L365.474 114.973C363.887 116.437 362.103 117.382 360.127 117.818C358.52 117.982 356.923 118.158 355.333 118.343C353.558 118.548 352.168 119.116 351.163 120.042C348.025 122.868 346.44 126.277 346.4 130.273H341.359H336.973H325.529H321.106V123.754C321.106 122.061 320.518 120.628 319.336 119.455C318.157 118.281 316.646 117.692 314.806 117.692H304.515C303.649 117.692 302.708 117.345 301.696 116.642C300.766 116 300.064 115.27 299.589 114.446V124.03H312.077C312.674 124.03 313.279 124.273 313.888 124.757C314.498 125.239 314.806 125.772 314.806 126.351V130.273H296.034V137.701H316.688H325.531H332.552H341.36H359.755C359.672 140.334 360.531 142.574 362.323 144.406C364.119 146.242 366.341 147.157 369.001 147.157C371.516 147.157 373.663 146.216 375.448 144.329C377.229 142.444 378.122 140.233 378.122 137.701V95.5244L374.216 98.3102C372.616 99.4394 371.815 100.927 371.815 102.76ZM359.446 130.274H352.43V129.657C352.348 128.256 352.846 127.02 353.923 125.949C355 124.879 356.254 124.342 357.692 124.342C358.265 124.342 358.855 124.443 359.446 124.65V130.274Z" fill="#00953C"/>
<path d="M389.675 98.432C388.279 99.6476 387.585 101.092 387.585 102.76V137.701H393.89V95.5244C392.494 96.4934 391.093 97.463 389.675 98.432Z" fill="#00953C"/>
<path d="M311.649 93.2199C310.989 90.4935 310.947 89.6367 308.61 84.4551C306.275 79.2765 298.679 62.2137 298.679 62.2137L298.641 62.1621L298.429 62.3505C298.429 62.3505 281.102 77.8833 280.307 78.8769C279.509 79.8735 274.763 83.6757 276.67 88.7799C278.58 93.8841 283.448 96.9213 286.643 98.7147C289.836 100.506 298.91 103.388 304.834 101.987C310.753 100.585 312.311 95.9487 311.649 93.2199ZM301.709 100.415C296.718 100.48 289.525 100.089 283.817 94.8411C278.115 89.5911 280.513 85.7661 282.07 83.8851C283.625 82.0071 296.523 72.9975 296.523 72.9975C296.523 72.9975 303.524 86.0259 305.664 90.3033C307.803 94.5795 306.702 100.348 301.709 100.415Z" fill="#00953C"/>
<path d="M332.763 57.6734C324.253 57.968 303.291 60.197 303.291 60.197L302.589 60.3734L312.393 82.7444C312.393 82.7444 314.917 88.499 318.733 89.3774C322.551 90.2588 329.065 87.5582 332.237 84.5042C335.408 81.4514 340.691 74.5832 342.044 69.008C343.394 63.4244 341.279 57.38 332.763 57.6734ZM339.578 70.2974C337.344 77.8706 332.471 83.7986 326.778 85.9718C321.083 88.1462 318.5 84.2108 317.497 81.746C316.501 79.2824 312.215 65.7176 312.215 65.7176C312.215 65.7176 326.424 63.4244 330.237 62.7818C334.056 62.1356 341.808 62.7242 339.578 70.2974Z" fill="#00953C"/>
<path d="M337.229 41.6452C336.995 37.4176 334.879 33.9514 333.585 31.7776C332.295 29.6092 326.366 22.0936 323.019 20.4496C319.671 18.8056 314.798 19.6852 313.975 20.2732C313.154 20.8582 310.747 23.2079 309.923 26.5565C309.102 29.9027 303.116 55.6738 303.116 55.6738L311.039 55.0312C313.622 54.562 326.482 54.2668 331.766 52.507C337.051 50.7454 337.462 45.874 337.229 41.6452ZM334.529 44.1101C333.646 48.1613 329.007 48.3965 328.535 48.3965C328.068 48.3965 311.393 48.2782 311.393 48.2782C311.393 48.2782 314.448 29.1413 315.096 26.9651C315.74 24.7955 317.793 23.1478 319.848 22.6204C321.905 22.093 324.311 22.7968 329.241 28.024C334.176 33.2465 335.408 40.0588 334.529 44.1101Z" fill="#E01B1D"/>
<path d="M296.776 19.0403C286.912 17.0435 276.577 22.0931 273.056 24.4391C269.533 26.7869 267.655 32.6033 269.296 35.8307C270.94 39.0581 280.101 44.0501 280.512 44.3447C280.919 44.6381 299.005 55.4999 299.005 55.4999C299.005 55.4999 303.468 35.3003 304.229 32.2481C304.996 29.1971 306.637 21.0359 296.776 19.0403ZM300.003 28.3175C299.535 31.1939 294.484 45.4001 294.484 45.4001L291.844 44.1659C291.844 44.1659 280.631 38.4131 276.167 35.9465C271.703 33.4835 272.349 28.9001 272.996 27.7883C273.642 26.6711 278.983 21.2693 285.914 20.5661C292.841 19.8611 294.602 20.6813 297.065 21.7409C299.535 22.7969 300.473 25.4381 300.003 28.3175Z" fill="#E01B1D"/>
<path d="M279.101 47.8661C279.101 47.8661 272.232 43.5215 269.531 43.5215C266.832 43.5215 259.61 45.9299 257.964 58.3781C256.323 70.8215 259.785 75.9317 261.371 77.8127C262.957 79.6895 266.713 81.0389 269.061 80.2163C271.41 79.3973 272.703 78.2195 275.402 76.1669C278.105 74.1107 296.421 58.9643 296.421 58.9643L279.101 47.8661ZM269.883 74.2865C267.476 75.9323 264.363 76.3439 261.78 74.2289C259.199 72.1151 258.551 63.2489 258.963 60.7841C259.374 58.3193 260.665 53.6225 261.78 51.9785C262.896 50.3345 264.483 48.3377 268.004 47.9849C271.527 47.6339 285.443 59.7839 285.443 59.7839L284.974 60.4325C284.974 60.4325 272.289 72.6455 269.883 74.2865Z" fill="#E01B1D"/>
</g>
<defs>
<clipPath id="clip0_382_258">
<rect width="600" height="250" fill="white"/>
</clipPath>
</defs>
</svg>
