<svg width="600" height="250" viewBox="0 0 600 250" fill="none" xmlns="http://www.w3.org/2000/svg">
<path d="M357.512 231.465C358.764 231.319 360.027 231.249 361.292 231.256C363.077 231.136 364.858 231.523 366.345 232.353C367.046 232.808 367.603 233.399 367.967 234.074C368.33 234.749 368.489 235.488 368.43 236.227C368.483 237.004 368.326 237.782 367.971 238.503C367.616 239.224 367.072 239.869 366.378 240.392C364.718 241.362 362.708 241.828 360.685 241.713C359.624 241.722 358.564 241.671 357.512 241.562V231.465ZM360.316 239.858C360.637 239.897 360.962 239.911 361.286 239.902C361.861 239.949 362.441 239.888 362.984 239.722C363.526 239.557 364.017 239.291 364.418 238.945C364.82 238.6 365.122 238.183 365.303 237.726C365.483 237.269 365.537 236.784 365.461 236.307C365.52 235.87 365.461 235.427 365.287 235.011C365.114 234.595 364.831 234.217 364.459 233.904C364.087 233.591 363.636 233.352 363.138 233.203C362.64 233.055 362.109 233.001 361.583 233.045C361.155 233.04 360.729 233.069 360.308 233.133L360.316 239.858Z" fill="#5D5C60"/>
<path d="M373.047 231.333V237.246C373.047 239.022 373.859 239.909 375.287 239.909C376.751 239.909 377.559 239.057 377.559 237.246V231.333H380.336V237.088C380.336 240.26 378.418 241.769 375.195 241.769C372.079 241.769 370.256 240.337 370.256 237.062V231.331L373.047 231.333Z" fill="#5D5C60"/>
<path d="M382.749 231.465C383.944 231.317 385.151 231.247 386.359 231.255C387.613 231.163 388.873 231.363 389.999 231.831C390.447 232.018 390.822 232.306 391.083 232.661C391.344 233.017 391.481 233.426 391.477 233.842C391.469 234.341 391.267 234.824 390.902 235.22C390.537 235.615 390.027 235.901 389.45 236.036V236.063C390.147 236.188 390.771 236.508 391.217 236.97C391.664 237.433 391.905 238.009 391.901 238.602C391.904 239.022 391.79 239.438 391.568 239.815C391.346 240.193 391.022 240.523 390.622 240.779C389.171 241.521 387.468 241.845 385.774 241.704C384.764 241.714 383.755 241.664 382.754 241.554L382.749 231.465ZM385.52 235.4H386.431C387.889 235.4 388.679 234.893 388.679 234.134C388.679 233.376 387.969 232.943 386.705 232.943C386.308 232.937 385.912 232.959 385.52 233.008V235.4ZM385.52 239.959C385.876 239.986 386.233 239.996 386.59 239.988C387.856 239.988 388.973 239.575 388.973 238.51C388.973 237.477 387.856 237.057 386.466 237.057H385.52V239.959Z" fill="#5D5C60"/>
<path d="M396.606 238.968L395.731 241.607H392.842L396.606 231.334H400.271L404.101 241.607H401.093L400.149 238.968H396.606ZM399.747 237.228L398.972 235.048C398.756 234.441 398.525 233.676 398.355 233.064H398.314C398.132 233.674 397.948 234.455 397.744 235.048L397.021 237.228H399.747Z" fill="#5D5C60"/>
<path d="M408.551 231.333H405.747V241.608H408.551V231.333Z" fill="#5D5C60"/>
<path d="M211.381 208.139H192.817V195.7H187V225.186H192.817V212.668H211.383V225.186H217.2V195.7H211.383L211.381 208.139Z" fill="#5D5C60"/>
<path d="M241.353 195.283C238.861 195.218 236.379 195.568 234.052 196.313C231.725 197.057 229.6 198.18 227.802 199.616C226.041 201.026 224.653 202.725 223.727 204.606C222.8 206.487 222.355 208.508 222.421 210.54C222.363 212.537 222.808 214.522 223.727 216.367C224.646 218.212 226.019 219.877 227.757 221.253C229.529 222.664 231.619 223.767 233.907 224.501C236.195 225.234 238.635 225.582 241.085 225.526C246.196 225.657 251.167 224.124 254.942 221.253C256.735 219.887 258.155 218.216 259.106 216.354C260.058 214.492 260.518 212.482 260.457 210.459C260.513 208.433 260.055 206.421 259.114 204.552C258.173 202.683 256.769 201 254.995 199.613C253.175 198.18 251.033 197.059 248.692 196.316C246.351 195.573 243.857 195.222 241.353 195.283ZM241.405 221.01C239.696 221.05 237.995 220.807 236.4 220.295C234.805 219.783 233.348 219.012 232.115 218.027C230.905 217.063 229.951 215.898 229.313 214.609C228.676 213.32 228.369 211.934 228.413 210.54C228.361 209.125 228.661 207.717 229.295 206.403C229.929 205.09 230.883 203.9 232.097 202.909C233.356 201.913 234.84 201.136 236.464 200.623C238.088 200.11 239.819 199.872 241.554 199.923C243.254 199.891 244.943 200.141 246.524 200.66C248.106 201.179 249.546 201.956 250.762 202.945C251.972 203.899 252.929 205.052 253.573 206.332C254.216 207.612 254.532 208.99 254.498 210.377C254.538 211.788 254.226 213.19 253.582 214.496C252.938 215.801 251.977 216.982 250.758 217.963C249.523 218.965 248.059 219.751 246.453 220.274C244.847 220.797 243.131 221.046 241.407 221.007" fill="#5D5C60"/>
<path d="M277.79 209.058L274.004 207.203C272.67 206.602 271.462 205.825 270.425 204.903C269.767 204.307 269.395 203.53 269.379 202.72C269.377 202.302 269.501 201.89 269.741 201.524C269.982 201.157 270.329 200.846 270.752 200.622C271.856 200.012 273.162 199.708 274.485 199.753C275.941 199.786 277.375 200.059 278.704 200.555C280.033 201.052 281.231 201.762 282.228 202.646L282.961 203.228V197.511L282.767 197.411C280.356 196.035 277.497 195.303 274.573 195.313C271.782 195.219 269.053 196.007 266.932 197.52C265.956 198.245 265.184 199.14 264.668 200.141C264.153 201.142 263.908 202.225 263.95 203.314C263.923 204.823 264.475 206.299 265.524 207.529C266.952 209.006 268.706 210.24 270.692 211.166L274.45 213.062C277.34 214.557 278.8 216.129 278.8 217.743C278.808 218.208 278.687 218.669 278.445 219.09C278.203 219.51 277.847 219.877 277.406 220.164C276.394 220.849 275.116 221.202 273.812 221.158C272.04 221.109 270.306 220.713 268.752 220.002C267.198 219.29 265.867 218.283 264.869 217.063L264.093 216.256V222.712L264.262 222.819C267.017 224.569 270.388 225.513 273.853 225.506C276.623 225.597 279.326 224.786 281.391 223.246C282.351 222.493 283.108 221.579 283.611 220.564C284.115 219.549 284.353 218.456 284.311 217.359C284.311 214.001 282.116 211.206 277.774 209.04" fill="#5D5C60"/>
<path d="M300.026 195.649H288.631V225.185H294.464V212.709H297.695C300.304 212.807 302.913 212.502 305.388 211.808C307.167 211.226 308.681 210.193 309.718 208.856C310.782 207.468 311.331 205.85 311.298 204.203C311.357 203.041 311.111 201.881 310.578 200.805C310.045 199.729 309.237 198.762 308.211 197.972C305.936 196.361 303.01 195.532 300.026 195.649ZM303.831 207.223C302.58 208.014 301.029 208.405 299.462 208.324H294.464V200.033H299.159C303.295 200.033 305.31 201.364 305.31 204.11C305.359 204.688 305.251 205.268 304.995 205.806C304.739 206.345 304.341 206.829 303.831 207.223Z" fill="#5D5C60"/>
<path d="M320.606 195.7H314.791V225.186H320.606V195.7Z" fill="#5D5C60"/>
<path d="M354.216 195.648H324.467V200.034H336.323V225.186H342.154V200.034H354.214L354.216 195.648Z" fill="#5D5C60"/>
<path d="M368.181 195.532H364.16L348.927 225.186H354.96L359.283 216.669H373.466L378.077 225.186H384.088L368.313 195.744L368.181 195.532ZM371.032 212.268H361.592L366.136 203.124L371.032 212.268Z" fill="#5D5C60"/>
<path d="M408.638 225.186H387.265V195.7H393.082V220.725H408.64L408.638 225.186Z" fill="#5D5C60"/>
<path d="M198.486 154.367H187.083V183.902H192.926V171.41H196.161C198.766 171.498 201.369 171.195 203.845 170.516C205.627 169.936 207.144 168.903 208.18 167.564C209.242 166.178 209.793 164.564 209.764 162.921C209.822 161.756 209.574 160.594 209.038 159.517C208.503 158.44 207.691 157.473 206.661 156.683C204.384 155.075 201.46 154.246 198.478 154.36M202.275 165.936C201.024 166.726 199.473 167.114 197.906 167.028H192.926V158.757H197.619C201.759 158.757 203.77 160.085 203.77 162.825C203.818 163.404 203.71 163.985 203.452 164.525C203.195 165.064 202.795 165.548 202.283 165.942" fill="#F26311"/>
<path d="M239.313 177.608C237.959 175.696 236.456 173.86 234.816 172.111C234.017 171.311 233.114 170.586 232.124 169.951C233.651 169.377 234.965 168.473 235.929 167.332C237.008 165.986 237.563 164.395 237.519 162.777C237.574 161.619 237.312 160.466 236.751 159.405C236.191 158.345 235.347 157.404 234.285 156.655C231.828 155.075 228.772 154.28 225.671 154.415H216.582V183.911H222.399V171.383H223.249C224.355 171.318 225.464 171.46 226.495 171.799C227.306 172.199 228.049 172.688 228.704 173.252C229.71 174.1 230.628 175.018 231.446 175.996L234.657 180.373L235.626 181.503C235.76 181.664 235.847 181.772 235.908 181.843L237.544 183.903H244.525L242.187 181.272C241.438 180.418 240.465 179.183 239.313 177.6M222.401 158.618H223.445C225.151 158.555 226.859 158.704 228.514 159.059C229.423 159.305 230.204 159.801 230.73 160.466C231.261 161.136 231.54 161.923 231.531 162.726C231.55 163.526 231.3 164.314 230.808 165.001C230.348 165.655 229.653 166.171 228.82 166.476C227.215 166.906 225.528 167.078 223.846 166.985H222.401V158.618Z" fill="#F26311"/>
<path d="M256.734 154.415H250.919V183.909H256.734V154.415Z" fill="#F26311"/>
<path d="M280.161 166.016L268.881 154.415H263.558V183.909H269.376V162.169L279.496 172.638H280.822L290.817 162.18V183.91H296.644V154.415H291.379L280.161 166.016Z" fill="#F26311"/>
<path d="M309.287 179.477V171.257H323.443V166.852H309.287V158.794H323.936V154.415H303.47V183.862H324.393V179.475L309.287 179.477Z" fill="#F26311"/>
<path d="M414 150.692C414 150.692 378.525 159.569 366.554 191.753C366.554 191.753 358.038 171.112 380.763 151.328C380.763 151.328 395.246 139.347 403.645 143.552C407.457 145.543 410.938 147.944 413.996 150.692" fill="#F26311"/>
<path d="M357.896 143.046C357.896 143.046 345.416 160.443 357.985 188.488C352.831 184.401 348.694 179.509 345.811 174.092C342.929 168.674 341.357 162.837 341.187 156.913C341.187 156.913 339.984 138.385 357.896 143.046Z" fill="#FEB787"/>
<path d="M379.824 139.655C381.819 140.302 383.725 141.126 385.508 142.113C385.508 142.113 355.387 156.691 362.383 190.809C362.383 190.809 352.569 175.071 359.199 152.049C359.199 152.049 364.092 135.141 378.979 139.386L379.824 139.655Z" fill="#F88A48"/>
<path d="M407.923 141.521C407.454 139.21 406.724 136.94 405.745 134.742C399.99 121.725 385.898 112.5 369.339 112.5C347.669 112.5 330.098 128.281 330.098 147.735C330.032 156.512 333.747 165.019 340.57 171.712C340.129 170.038 339.805 168.343 339.6 166.638C336.342 161.727 334.645 156.205 334.671 150.595C334.671 133.533 349.87 119.718 368.639 119.718C374.407 119.793 380.052 121.117 385.02 123.559C389.987 126 394.106 129.475 396.97 133.643C398.178 135.299 399.2 137.043 400.026 138.853C400.364 138.905 400.701 138.945 401.031 139.024C403.438 139.623 405.749 140.461 407.915 141.521" fill="#5D5C60"/>
<path d="M407.248 156.792C405.053 157.68 402.939 158.664 401.114 159.576C399.7 164.116 397.02 168.315 393.291 171.831C389.562 175.347 384.889 178.082 379.652 179.814L377.587 182.173V182.196C391.969 179.433 403.447 169.47 407.256 156.792" fill="#5D5C60"/>
<path d="M380.519 73.4408H386.128L389.32 64.1348H396.89L396.981 73.4408H403L402.134 35.9805H394.199L380.519 73.4408ZM391.19 58.9857L396.616 43.1608H396.753V58.9857H391.19Z" fill="black"/>
<path d="M299.123 73.6296H305.507L318.731 36.1221H313.259L304.595 61.9144H304.458L304.55 36.1221H298.53L299.123 73.6296Z" fill="black"/>
<path d="M287.586 58.9854H282.023L287.45 43.1604H287.586V58.9854ZM292.967 36.0273H285.078L271.353 73.4404H276.962L280.154 64.1344H287.723L287.814 73.4404H293.834L292.967 36.0273Z" fill="black"/>
<path d="M351.563 36.0752H342.079L335.74 73.3938H341.851L344.45 58.0412H347.231L348.691 73.3938H355.075L352.931 56.6713C355.85 55.3959 358.13 52.2309 359.042 46.8929C360.273 39.6181 357.491 36.0752 351.563 36.0752ZM352.84 47.318C352.156 51.5223 350.515 53.3173 348.189 53.3173H345.225L347.231 41.3187H350.104C352.795 41.3659 353.479 43.6806 352.84 47.318Z" fill="black"/>
<path d="M376.643 45.3336L373.451 63.9929C373.132 65.8825 371.81 67.961 369.028 67.961H365.973L370.487 41.4128H373.543C376.142 41.46 377.008 43.1134 376.643 45.3336ZM375.093 36.1221H365.38L359.042 73.4407H368.709C373.953 73.4407 378.513 70.5119 379.562 64.3236L382.891 44.7195C383.894 38.9092 380.246 36.1221 375.093 36.1221Z" fill="black"/>
<path d="M315.311 73.4407H331.545L332.457 68.0082H322.288L324.203 56.8599H332.32L333.232 51.4747H325.115L326.802 41.4128H336.926L337.838 36.1221H321.65L315.311 73.4407Z" fill="black"/>
<path d="M289 107.337C289 108.142 288.725 108.9 288.222 109.516C287.627 110.226 286.62 111.458 285.293 112.784C280.717 117.568 272.433 125.005 264.287 125.905C263.738 125.953 263.189 126 262.64 126C260.992 126 259.299 125.716 257.88 125.005C256.507 124.389 255.592 123.442 254.356 122.021C253.12 120.6 252.388 118.563 251.107 115.863C251.107 115.863 247.857 107.953 245.935 101.842C245.661 101.037 242.961 93.1263 242 90.2368C242 90.2368 238.659 80.3842 236.874 75.4579C231.428 59.2579 231.108 59.0684 225.89 42.8211C225.341 41.1632 224.106 37.5632 221.085 37.5632C218.522 37.5632 217.058 40.6421 216.234 42.1579C214.678 45 202.276 69.2053 198.66 77.3053C197.47 79.9579 196.647 82.5632 196.647 85.1684C196.647 87.6316 197.379 90.0474 199.164 92.3211C201.727 95.5895 205.113 96.7263 208.912 96.9632H209.003C210.33 97.2 211.337 98.4316 211.337 99.8053C211.337 100.705 210.788 102.032 209.644 102.505C209.186 102.647 208.729 102.695 208.271 102.742C207.63 102.789 206.807 102.837 205.937 102.837C203.328 102.837 199.988 102.6 197.608 102.363C195.411 102.126 193.214 101.795 191.063 101.274C186.67 100.279 182.368 98.479 179.165 95.3053C177.517 93.7895 176.281 91.8 175.595 89.6684C175.183 88.3421 175 86.9684 175 85.5947C175 83.2737 175.549 81.1895 176.281 79.2474C176.831 77.8737 177.426 76.5947 178.02 75.3632C178.661 73.9421 182.094 67.2632 186.716 58.0737C190.926 49.8316 195.091 41.5895 199.164 33.3474C201.452 28.7526 203.74 24.2053 206.029 19.5632C207.173 17.1474 208.179 14.9684 209.186 13.0263V12.9789C211.429 8.33684 214.77 0 222.733 0C230.101 0 232.938 4.16842 238.018 19.8C238.018 19.8 256.004 72.9474 262.411 90.8053C262.411 90.8053 264.836 96.9632 266.713 100.611C268.406 103.926 270.648 105.3 271.381 105.726C273.577 106.958 275.408 107.242 276.781 107.242C277.513 107.242 278.2 107.147 278.932 107.005C280.854 106.721 282.822 105.774 284.469 104.732C284.927 104.4 285.522 104.211 286.071 104.211C286.986 104.211 287.81 104.637 288.359 105.347C288.771 105.916 289 106.626 289 107.337Z" fill="black"/>
</svg>
