<svg width="600" height="250" viewBox="0 0 600 250" fill="none" xmlns="http://www.w3.org/2000/svg">
<g clip-path="url(#clip0_382_72)">
<path d="M126.767 147.5H144.768V211.667H109.765L92.9936 148.053V211.661H75V147.494H110.108L126.767 211.108V147.5ZM202.346 147.5H167.014L150.578 211.667H168.36L171.606 198.922H197.773L201.008 211.667H218.789L202.346 147.5ZM174.617 187.47L184.68 148.053L194.743 187.47H174.617ZM260.258 185.912L287.204 147.5H267.187L244.49 179.95V147.5H224.588V211.667H244.493V187.006H256.792L267.191 211.661H287.316L276.474 185.906H260.266L260.258 185.912ZM335.945 172.528H322.304L313.36 184.353V147.5H293.458V211.667H313.363V185.084H335.949V211.667H355.854V147.5H335.945V172.519V172.528ZM365.459 211.67H414.99V199.753H385.364V184.809H409.064V172.892H393.75L385.364 183.892V159.417H414.99V147.5H365.462V211.667L365.459 211.67ZM422.809 211.67H472.328V199.753H442.703V184.809H466.403V172.892H451.085L442.699 183.892V159.417H472.328V147.5H422.797V211.667L422.809 211.67ZM500.064 199.753V147.5H480.155V211.667H525.996V199.75H500.053L500.064 199.753Z" fill="black"/>
</g>
<path d="M373.519 73.4408H379.128L382.32 64.1348H389.89L389.981 73.4408H396L395.134 35.9805H387.199L373.519 73.4408ZM384.19 58.9857L389.616 43.1608H389.753V58.9857H384.19Z" fill="black"/>
<path d="M292.123 73.6296H298.507L311.731 36.1221H306.259L297.595 61.9144H297.458L297.549 36.1221H291.53L292.123 73.6296Z" fill="black"/>
<path d="M280.586 58.9854H275.023L280.45 43.1604H280.586V58.9854ZM285.967 36.0273H278.078L264.353 73.4404H269.962L273.154 64.1344H280.723L280.814 73.4404H286.834L285.967 36.0273Z" fill="black"/>
<path d="M344.563 36.0752H335.079L328.74 73.3938H334.851L337.45 58.0412H340.231L341.691 73.3938H348.075L345.931 56.6713C348.85 55.3959 351.13 52.2309 352.042 46.8929C353.273 39.6181 350.491 36.0752 344.563 36.0752ZM345.84 47.318C345.156 51.5223 343.515 53.3173 341.189 53.3173H338.225L340.231 41.3187H343.104C345.795 41.3659 346.479 43.6806 345.84 47.318Z" fill="black"/>
<path d="M369.643 45.3336L366.451 63.9929C366.132 65.8825 364.81 67.961 362.028 67.961H358.973L363.487 41.4128H366.543C369.142 41.46 370.008 43.1134 369.643 45.3336ZM368.093 36.1221H358.38L352.042 73.4407H361.709C366.953 73.4407 371.513 70.5119 372.562 64.3236L375.891 44.7195C376.894 38.9092 373.246 36.1221 368.093 36.1221Z" fill="black"/>
<path d="M308.311 73.4407H324.545L325.457 68.0082H315.288L317.203 56.8599H325.32L326.232 51.4747H318.115L319.802 41.4128H329.925L330.837 36.1221H314.649L308.311 73.4407Z" fill="black"/>
<path d="M282 107.337C282 108.142 281.725 108.9 281.222 109.516C280.627 110.226 279.62 111.458 278.293 112.784C273.717 117.568 265.433 125.005 257.287 125.905C256.738 125.953 256.189 126 255.64 126C253.992 126 252.299 125.716 250.88 125.005C249.507 124.389 248.592 123.442 247.356 122.021C246.12 120.6 245.388 118.563 244.107 115.863C244.107 115.863 240.857 107.953 238.935 101.842C238.661 101.037 235.961 93.1263 235 90.2368C235 90.2368 231.659 80.3842 229.874 75.4579C224.428 59.2579 224.108 59.0684 218.89 42.8211C218.341 41.1632 217.106 37.5632 214.085 37.5632C211.522 37.5632 210.058 40.6421 209.234 42.1579C207.678 45 195.276 69.2053 191.66 77.3053C190.47 79.9579 189.647 82.5632 189.647 85.1684C189.647 87.6316 190.379 90.0474 192.164 92.3211C194.727 95.5895 198.113 96.7263 201.912 96.9632H202.003C203.33 97.2 204.337 98.4316 204.337 99.8053C204.337 100.705 203.788 102.032 202.644 102.505C202.186 102.647 201.729 102.695 201.271 102.742C200.63 102.789 199.807 102.837 198.937 102.837C196.328 102.837 192.988 102.6 190.608 102.363C188.411 102.126 186.214 101.795 184.063 101.274C179.67 100.279 175.368 98.479 172.165 95.3053C170.517 93.7895 169.281 91.8 168.595 89.6684C168.183 88.3421 168 86.9684 168 85.5947C168 83.2737 168.549 81.1895 169.281 79.2474C169.831 77.8737 170.426 76.5947 171.02 75.3632C171.661 73.9421 175.094 67.2632 179.716 58.0737C183.926 49.8316 188.091 41.5895 192.164 33.3474C194.452 28.7526 196.74 24.2053 199.029 19.5632C200.173 17.1474 201.179 14.9684 202.186 13.0263V12.9789C204.429 8.33684 207.77 0 215.733 0C223.101 0 225.938 4.16842 231.018 19.8C231.018 19.8 249.004 72.9474 255.411 90.8053C255.411 90.8053 257.836 96.9632 259.713 100.611C261.406 103.926 263.648 105.3 264.381 105.726C266.577 106.958 268.408 107.242 269.781 107.242C270.513 107.242 271.2 107.147 271.932 107.005C273.854 106.721 275.822 105.774 277.469 104.732C277.927 104.4 278.522 104.211 279.071 104.211C279.986 104.211 280.81 104.637 281.359 105.347C281.771 105.916 282 106.626 282 107.337Z" fill="black"/>
<defs>
<clipPath id="clip0_382_72">
<rect width="451" height="64.1667" fill="white" transform="translate(75 147.5)"/>
</clipPath>
</defs>
</svg>
