<svg width="600" height="250" viewBox="0 0 600 250" fill="none" xmlns="http://www.w3.org/2000/svg">
<path d="M483.841 145.424H495.108L501.52 127.382H516.726L516.909 145.424H529L527.26 72.7969H511.321L483.841 145.424ZM505.276 117.399L516.176 86.7178H516.451V117.399H505.276Z" fill="black"/>
<path d="M320.335 145.791H333.159L359.723 73.0723H348.731L331.327 123.078H331.053L331.236 73.0723H319.145L320.335 145.791Z" fill="black"/>
<path d="M297.16 117.4H285.985L296.886 86.719H297.16V117.4ZM307.969 72.8896H292.122L264.551 145.425H275.818L282.23 127.383H297.435L297.618 145.425H309.71L307.969 72.8896Z" fill="black"/>
<path d="M425.676 72.9795H406.623L393.891 145.332H406.165L411.386 115.567H416.974L419.905 145.332H432.729L428.424 112.911C434.286 110.438 438.866 104.302 440.698 93.9525C443.171 79.8484 437.584 72.9795 425.676 72.9795ZM428.241 94.7768C426.867 102.928 423.569 106.408 418.897 106.408H412.943L416.974 83.1455H422.745C428.149 83.2371 429.523 87.7247 428.241 94.7768Z" fill="black"/>
<path d="M476.055 90.9314L469.643 127.108C469.002 130.771 466.346 134.801 460.758 134.801H454.621L463.689 83.3298H469.826C475.048 83.4214 476.788 86.6269 476.055 90.9314ZM472.941 73.0723H453.43L440.698 145.425H460.117C470.651 145.425 479.811 139.746 481.918 127.749L488.604 89.7408C490.62 78.4758 483.292 73.0723 472.941 73.0723Z" fill="black"/>
<path d="M352.853 145.425H385.463L387.295 134.892H366.868L370.715 113.278H387.02L388.852 102.837H372.547L375.936 83.3298H396.272L398.104 73.0723H365.586L352.853 145.425Z" fill="black"/>
<path d="M300 210.155C300 211.702 299.448 213.157 298.437 214.34C297.242 215.704 295.22 218.07 292.554 220.617C283.36 229.806 266.721 244.089 250.357 245.818C249.254 245.909 248.151 246 247.048 246C243.738 246 240.337 245.454 237.487 244.089C234.729 242.907 232.89 241.087 230.408 238.358C227.926 235.629 226.455 231.717 223.881 226.531C223.881 226.531 217.354 211.338 213.493 199.602C212.941 198.055 207.517 182.862 205.587 177.312C205.587 177.312 198.876 158.389 195.291 148.927C184.351 117.813 183.707 117.449 173.227 86.2436C172.124 83.0594 169.642 76.1451 163.574 76.1451C158.426 76.1451 155.485 82.0586 153.83 84.9699C150.704 90.4286 125.791 136.918 118.528 152.475C116.138 157.57 114.483 162.574 114.483 167.577C114.483 172.308 115.954 176.948 119.54 181.315C124.688 187.592 131.491 189.776 139.121 190.231H139.305C141.971 190.686 143.993 193.051 143.993 195.689C143.993 197.418 142.89 199.965 140.592 200.875C139.672 201.148 138.753 201.239 137.834 201.33C136.547 201.421 134.892 201.512 133.145 201.512C127.905 201.512 121.194 201.057 116.414 200.602C112.001 200.147 107.589 199.511 103.268 198.51C94.4424 196.599 85.8009 193.142 79.3657 187.047C76.0562 184.135 73.5741 180.314 72.1951 176.22C71.3677 173.673 71 171.035 71 168.396C71 163.938 72.1032 159.935 73.5741 156.205C74.6772 153.567 75.8723 151.111 77.0674 148.745C78.3545 146.016 85.2493 133.188 94.5343 115.538C102.992 99.7083 111.358 83.8782 119.54 68.0481C124.136 59.2233 128.733 50.4895 133.329 41.5737C135.627 36.9338 137.65 32.7489 139.672 29.0188V28.9278C144.177 20.012 150.888 4 166.884 4C181.685 4 187.385 12.006 197.589 42.0286C197.589 42.0286 233.718 144.105 246.588 178.404C246.588 178.404 251.46 190.231 255.23 197.236C258.631 203.605 263.136 206.243 264.607 207.062C269.019 209.427 272.697 209.973 275.454 209.973C276.925 209.973 278.304 209.791 279.775 209.518C283.636 208.972 287.589 207.153 290.899 205.151C291.818 204.514 293.013 204.15 294.116 204.15C295.955 204.15 297.61 204.969 298.713 206.334C299.54 207.426 300 208.79 300 210.155Z" fill="black"/>
</svg>
