<svg width="600" height="250" viewBox="0 0 600 250" fill="none" xmlns="http://www.w3.org/2000/svg">
<g clip-path="url(#clip0_382_146)">
<path fill-rule="evenodd" clip-rule="evenodd" d="M111.819 20.2031C114.132 20.2031 115.481 21.7447 115.481 23.8644C115.481 25.7888 115.095 27.7159 115.095 29.8356C115.095 31.3772 115.481 32.9162 115.481 34.4579C115.481 37.1531 112.976 38.502 110.663 38.502C107.583 38.502 106.041 36.9604 106.234 33.8798C106.234 32.1454 106.426 31.3773 105.27 30.0283C103.921 28.6794 101.994 28.2966 100.26 28.2966C92.9423 28.2966 92.1715 35.424 92.1715 41.2025C92.1715 47.1763 92.9423 53.7229 100.455 53.7229C102.189 53.7229 103.921 53.5329 105.077 52.3714C106.426 51.0251 106.426 49.8715 106.426 48.1345C106.426 46.7882 106.426 45.6347 107.197 44.4758C107.968 43.3196 109.317 42.9368 110.856 42.9368C114.517 42.9368 116.252 45.6347 116.252 49.0981C116.252 57.9598 107.968 62.0092 100.07 62.0092C94.8667 62.0092 89.669 60.4676 86.0077 56.4208C82.539 52.7594 81 46.4028 81 41.2025C81 36.5802 81.9635 30.7991 84.466 26.755C87.5493 22.3228 92.7496 19.8203 98.1427 19.8203C102.189 19.8203 105.463 21.1692 108.158 24.0598C107.968 21.7447 109.507 20.2031 111.819 20.2031ZM130.892 38.1192C130.892 40.8144 128.387 41.9707 125.884 41.9707C123.189 41.9707 120.684 39.8509 120.684 36.963C120.684 30.9918 128.775 30.0283 133.204 30.0283C136.285 30.0283 140.139 30.221 142.644 31.7627C146.11 33.6897 146.495 37.1557 146.495 40.6244V51.6058C146.495 52.374 146.303 54.3011 147.459 54.3011H148.808C150.732 54.3011 151.698 55.8427 151.698 57.5744C151.698 60.8477 148.422 62.0092 145.727 62.0092C143.032 62.0092 140.142 61.0457 139.178 58.3478C136.287 60.8477 132.821 62.0092 129.16 62.0092C123.96 62.0092 118.759 59.116 118.759 53.3375C118.759 39.4708 136.866 46.5982 136.866 38.89C136.866 36.7703 134.746 35.6141 132.821 35.6141C131.858 35.6141 130.897 35.8068 130.897 36.963V38.1192H130.892ZM136.86 47.9418C135.126 49.6735 128.384 48.9054 128.384 51.9886C128.384 53.913 130.118 54.6838 131.66 54.6838C135.126 54.6838 136.86 52.5641 136.86 49.0954V47.9418ZM159.401 41.778C159.401 41.0071 159.594 37.7312 158.438 37.7312C157.86 37.7312 157.282 38.1166 156.511 38.1166C154.586 38.1166 153.816 36.575 153.816 34.8406C153.816 32.7235 154.779 30.7965 156.706 30.7965C158.44 30.9892 159.594 31.3746 160.75 31.3746C162.099 31.3746 163.255 30.9892 164.604 30.7965C166.336 30.7965 166.529 31.9527 166.529 33.3016V37.7312C167.492 32.9162 170.958 30.2184 175.966 30.2184C180.013 30.2184 183.671 33.299 183.671 37.5385C183.671 40.429 181.744 43.3169 178.664 43.3169C176.354 43.3169 174.617 41.778 174.617 39.4655C174.617 38.6947 174.81 37.9239 175.195 37.1531C168.648 36.7677 168.453 45.6294 168.453 50.249C168.453 51.0224 168.26 54.2958 169.609 54.2958C170.187 54.2958 170.766 53.9104 171.534 53.9104C173.461 53.9104 174.039 55.452 174.039 57.189C174.039 59.4988 173.075 61.2305 171.148 61.2305C168.068 61.2305 165.755 60.6523 163.25 60.6523C161.13 60.6523 158.821 61.2305 156.701 61.2305C154.774 61.2305 153.81 59.4988 153.81 57.189C153.81 55.452 154.581 53.9104 156.505 53.9104C157.276 53.9104 157.854 54.2958 158.433 54.2958C159.589 54.2958 159.396 51.0224 159.396 50.249V41.778H159.401ZM191.377 41.778C191.377 41.0071 191.57 37.7312 190.416 37.7312C189.645 37.7312 189.067 38.1166 188.489 38.1166C186.562 38.1166 185.791 36.575 185.791 34.8406C185.791 32.7235 186.755 30.7965 188.682 30.7965C190.416 30.9892 191.572 31.3746 192.728 31.3746C194.077 31.3746 195.234 30.9892 196.58 30.7965C198.314 30.7965 198.314 31.9527 198.314 33.3016V37.7312C199.47 32.9162 202.936 30.2184 207.944 30.2184C211.991 30.2184 215.65 33.299 215.65 37.5385C215.65 40.429 213.723 43.3169 210.642 43.3169C208.33 43.3169 206.405 41.778 206.405 39.4655C206.405 38.6947 206.791 37.9239 207.176 37.1531C200.627 36.7677 200.431 45.6294 200.431 50.249C200.431 51.0224 200.241 54.2958 201.588 54.2958C202.166 54.2958 202.744 53.9104 203.512 53.9104C205.439 53.9104 206.017 55.452 206.017 57.189C206.017 59.4988 205.054 61.2305 203.127 61.2305C200.046 61.2305 197.733 60.6523 195.228 60.6523C193.109 60.6523 190.796 61.2305 188.679 61.2305C186.755 61.2305 185.788 59.4988 185.788 57.189C185.788 55.452 186.559 53.9104 188.486 53.9104C189.064 53.9104 189.643 54.2958 190.413 54.2958C191.57 54.2958 191.374 51.0224 191.374 50.249L191.377 41.778ZM228.748 47.5564C227.592 47.5564 226.053 47.1736 226.053 48.908C226.053 52.1813 228.748 54.6865 232.024 54.6865C237.032 54.6865 236.646 50.0616 241.269 50.0616C243.388 50.0616 245.12 51.4131 245.12 53.7229C245.12 56.2281 243.196 58.3478 241.269 59.6941C238.378 61.4258 235.105 62.0092 231.829 62.0092C222.389 62.0092 216.418 55.6526 216.418 46.2128C216.418 36.9656 222.196 30.031 231.636 30.031C235.102 30.031 238.954 30.8018 241.461 33.1142C244.349 35.6167 245.698 39.6635 245.698 43.3222C245.698 46.7909 245.313 47.5591 241.844 47.5591L228.748 47.5564ZM234.141 41.2025C235.105 41.2025 236.068 41.3952 236.068 40.239C236.068 39.2755 235.49 38.3119 234.912 37.7338C233.949 36.963 232.988 36.5776 231.831 36.5776C230.097 36.5776 228.944 36.963 227.785 38.1192C227.207 38.6973 226.246 39.6582 226.246 40.429C226.246 41.3925 228.173 41.1998 228.751 41.1998L234.141 41.2025ZM261.305 50.2516C261.305 51.0251 261.112 54.2984 262.461 54.2984C263.039 54.2984 263.617 53.913 264.385 53.913C266.312 53.913 266.89 55.4546 266.89 57.1916C266.89 59.5014 265.927 61.2331 263.424 61.2331C260.922 61.2331 258.609 60.655 256.297 60.655C253.987 60.655 251.867 61.2331 249.94 61.2331C247.628 61.2331 246.664 59.5014 246.664 57.1916C246.664 55.4546 247.242 53.913 249.169 53.913C249.94 53.913 250.518 54.2984 251.094 54.2984C252.443 54.2984 252.25 51.0251 252.25 50.2516V39.6582C252.25 37.5385 252.25 37.3484 250.326 37.3484C248.016 37.3484 246.667 36.7703 246.667 34.2652C246.667 31.76 247.63 30.7991 249.943 30.7991C251.675 30.7991 252.253 30.9918 252.253 28.8747C252.445 22.5182 258.031 19.8203 263.812 19.8203C265.737 19.8203 268.049 20.2057 269.783 21.1692C271.708 22.1328 273.25 24.0598 273.25 26.3696C273.25 28.8747 271.515 30.7991 268.82 30.7991C266.893 30.7991 264.966 29.4502 264.966 27.3331C264.966 26.755 265.159 26.3696 265.351 25.7915C264.966 25.5988 264.773 25.5988 264.195 25.5988C262.075 25.5988 261.307 26.9477 261.307 28.8747C261.307 30.8018 261.5 30.7991 263.427 30.7991C265.737 30.7991 267.474 30.9918 267.474 33.8798C267.474 36.5776 266.317 37.3484 263.812 37.3484C261.5 37.3484 261.307 37.1557 261.307 39.6582V50.2516H261.305Z" fill="#295BA7"/>
<path fill-rule="evenodd" clip-rule="evenodd" d="M298.868 45.6327C298.868 55.2626 294.054 62.0072 283.843 62.0072C273.825 62.0072 268.432 55.8407 268.432 46.0155C268.432 35.9976 273.825 30.0264 283.843 30.0264C293.28 30.029 298.868 36.1929 298.868 45.6327ZM283.843 37.3491C279.025 37.3491 277.872 42.1641 277.872 46.0181C277.872 49.4842 279.028 54.6871 283.265 54.6871C285.385 54.6871 287.116 54.109 288.08 52.182C289.043 50.255 289.429 47.9452 289.429 46.0181C289.426 42.1641 288.465 37.3491 283.843 37.3491Z" fill="#295BA7"/>
<path fill-rule="evenodd" clip-rule="evenodd" d="M303.105 41.7783C303.105 41.0075 303.295 37.7315 301.946 37.7315C301.368 37.7315 300.79 38.1169 300.022 38.1169C298.095 38.1169 297.517 36.5753 297.517 34.841C297.517 32.7239 298.48 30.7968 302.91 30.7968C304.066 30.9895 305.225 31.3749 306.571 31.3749C307.923 31.3749 309.266 30.9895 310.618 30.7968C312.542 30.7968 312.16 32.5312 312.16 34.0728V47.9422C312.16 49.0984 312.16 51.2155 312.928 52.3717C313.506 53.3352 314.855 54.1087 316.201 54.1087C317.938 54.1087 319.48 53.3352 320.438 51.7936C321.597 49.8692 321.79 47.9422 321.79 45.8224V41.7783C321.79 41.0075 321.98 37.7315 320.633 37.7315C320.055 37.7315 319.477 38.1169 318.706 38.1169C316.779 38.1169 316.201 36.5753 316.201 34.841C316.201 32.7239 317.165 30.7968 321.211 30.7968C322.368 30.9895 323.521 31.3749 324.873 31.3749C326.219 31.3749 327.568 30.9895 328.914 30.7968C331.034 30.7968 330.841 32.1457 330.841 33.6874V50.252C330.841 51.0254 330.646 54.2988 331.805 54.2988C332.383 54.2988 332.961 53.9133 333.729 53.9133C335.656 53.9133 336.424 55.455 336.424 57.1919C336.424 59.5017 335.268 61.2334 332.961 61.2334C331.419 61.2334 330.068 60.6553 328.724 60.6553C327.568 60.6553 326.219 61.2334 325.063 61.2334C322.943 61.2334 322.943 59.3064 322.943 58.1502V56.9939C320.823 60.2673 316.587 62.0042 312.735 62.0042C309.652 62.0042 306.183 60.8454 304.449 58.3429C302.907 55.8377 303.103 52.3664 303.103 49.4812L303.105 41.7783ZM344.328 41.7783C344.328 41.0075 344.523 37.7315 343.172 37.7315C342.594 37.7315 342.016 38.1169 341.245 38.1169C339.32 38.1169 338.745 36.5753 338.745 34.841C338.745 32.7239 339.708 30.7968 341.633 30.7968C343.364 30.9895 344.526 31.3749 345.68 31.3749C347.026 31.3749 348.185 30.9895 349.531 30.7968C351.263 30.7968 351.263 31.9531 351.263 33.302V37.7315C352.419 32.9166 355.888 30.2187 360.893 30.2187C364.939 30.2187 368.411 33.2993 368.411 37.5388C368.411 40.4294 366.674 43.3173 363.4 43.3173C361.281 43.3173 359.359 41.7783 359.359 39.4658C359.359 38.695 359.742 37.9242 360.127 37.1534C353.58 36.768 353.382 45.6297 353.382 50.2493C353.382 51.0228 353.192 54.2961 354.539 54.2961C355.122 54.2961 355.697 53.9107 356.466 53.9107C358.393 53.9107 358.971 55.4523 358.971 57.1893C358.971 59.4991 358.007 61.2308 356.078 61.2308C352.804 61.2308 350.494 60.6527 348.185 60.6527C346.065 60.6527 343.75 61.2308 341.633 61.2308C339.708 61.2308 338.745 59.4991 338.745 57.1893C338.745 55.4523 339.323 53.9107 341.245 53.9107C342.018 53.9107 342.596 54.2961 343.172 54.2961C344.523 54.2961 344.328 51.0228 344.328 50.2493V41.7783ZM515 45.437C515 46.0178 514.422 46.5959 514.422 46.5959L482.642 78.1861C481.483 79.5376 480.715 78.7642 481.1 77.8007C481.868 76.259 483.024 74.5273 484.178 70.6759C485.915 65.0875 485.915 60.4679 485.141 57.77C484.563 55.2649 481.48 50.0619 474.743 50.0619C466.072 50.0619 463.572 57.9601 463.762 60.848C463.952 62.7751 463.762 65.663 466.845 68.3661C469.155 70.2905 471.275 69.7124 471.85 69.5223C472.428 69.5223 473.587 68.7489 473.587 70.6785C473.587 72.7983 471.66 75.4935 470.504 76.8398C469.152 77.9986 464.915 81.2746 458.754 81.2746C455.093 81.2746 450.661 79.733 447.583 76.0716C445.268 73.3764 443.726 70.2931 442.38 65.8636C439.685 57.7753 439.297 51.7989 439.297 45.4423C439.297 39.6665 439.875 33.3072 442.38 25.2163C443.536 20.9795 445.653 17.1254 447.583 14.6203C450.471 10.9589 455.096 9.41992 458.754 9.41992C464.915 9.41992 469.152 12.6959 470.504 14.0422C471.66 15.1984 473.587 17.8936 473.587 20.2061C473.587 21.9404 472.428 21.1696 471.85 21.1696C471.272 20.9769 469.155 20.3987 466.845 22.3258C463.762 25.021 463.952 28.1042 463.762 29.8386C463.572 32.9192 466.072 40.6247 474.743 40.6247C481.483 40.6247 484.566 35.617 485.141 32.9192C485.915 30.224 485.915 25.5991 484.178 20.2061C483.022 16.1619 481.868 14.6203 481.1 12.8886C480.715 12.1178 481.483 11.1543 482.642 12.5032L514.422 44.096C514.422 44.0907 515 44.6688 515 45.437Z" fill="#295BA7"/>
<path fill-rule="evenodd" clip-rule="evenodd" d="M398.267 45.0538C398.267 45.8246 399.035 46.4027 399.035 46.4027L432.747 78.7663C433.711 79.5398 433.904 78.7663 433.711 78.1882C433.516 77.8028 433.325 77.6101 432.359 76.0685C423.115 62.7772 423.305 45.0538 423.305 45.0538C423.305 45.0538 423.115 27.333 432.359 14.2344C433.323 12.6928 433.516 12.5001 433.711 11.922C433.901 11.3439 433.711 10.573 432.747 11.3439L399.035 43.7049C399.035 43.7049 398.267 44.283 398.267 45.0538Z" fill="#CC2229"/>
<path d="M130 152.19C130 151.628 130.225 151.088 130.625 150.691C131.026 150.293 131.569 150.07 132.135 150.07H153.886C157.695 149.78 161.472 150.951 164.438 153.342C165.657 154.571 166.601 156.042 167.207 157.658C167.814 159.275 168.069 161 167.957 162.722C168.02 164.881 167.529 167.022 166.528 168.94C165.618 170.622 164.229 172.001 162.536 172.906C164.653 173.482 166.528 174.719 167.885 176.434C169.217 178.445 169.86 180.83 169.717 183.234C169.854 185.112 169.581 186.997 168.917 188.76C168.253 190.523 167.214 192.124 165.87 193.451C162.735 195.951 158.768 197.188 154.758 196.916H130V152.19ZM152.057 169.489C156.502 169.489 158.725 167.501 158.725 163.526C158.8 162.673 158.692 161.813 158.408 161.005C158.124 160.196 157.671 159.456 157.078 158.834C155.401 157.671 153.361 157.142 151.325 157.343H139.894V169.489H152.057ZM152.496 189.706C154.472 189.879 156.443 189.323 158.03 188.142C158.673 187.418 159.157 186.568 159.454 185.649C159.75 184.729 159.851 183.758 159.751 182.797C159.826 181.931 159.703 181.06 159.392 180.248C159.081 179.436 158.59 178.704 157.955 178.106C156.142 176.938 153.987 176.409 151.835 176.603H139.966V189.681L152.496 189.706Z" fill="black"/>
<path d="M181.115 150.069H212.833V157.704H188.871V169.705H210.12V177.268H188.871V189.341H212.833V196.915H178.969V152.201C178.967 151.92 179.022 151.643 179.129 151.383C179.236 151.124 179.394 150.889 179.594 150.69C179.794 150.492 180.031 150.335 180.292 150.229C180.553 150.122 180.833 150.068 181.115 150.069Z" fill="black"/>
<path d="M226.178 150.069H257.896V157.704H233.937V169.705H255.186V177.268H233.937V189.341H257.899V196.915H224.046V152.201C224.044 151.922 224.099 151.645 224.205 151.387C224.311 151.128 224.468 150.893 224.666 150.695C224.864 150.497 225.1 150.34 225.359 150.233C225.619 150.125 225.897 150.07 226.178 150.069Z" fill="black"/>
<path d="M283.928 150.069H291.832C292.265 150.069 292.688 150.2 293.044 150.444C293.4 150.688 293.673 151.034 293.827 151.436L311.258 196.904H301L296.517 185.632H279.145L274.749 196.904H264.418L281.919 151.433C282.074 151.029 282.35 150.683 282.709 150.439C283.068 150.195 283.493 150.066 283.928 150.069ZM295.063 178.07L287.809 159.235L280.627 178.07H295.063Z" fill="black"/>
<path d="M317.795 150.069H327.691V169.705H348.282V150.069H358.176V196.915H348.282V177.279H327.691V196.915H317.798L317.795 150.069Z" fill="black"/>
<path d="M418.201 180.797V187.586C425.804 184.124 432.57 179.08 438.038 172.794C438.89 173.245 439.726 173.709 440.546 174.186C444.831 176.551 448.794 179.449 452.339 182.811C448.969 187.157 445.026 191.033 440.616 194.336C432.792 200.126 424.215 204.837 415.119 208.344V163.376C416.319 163.912 417.546 164.387 418.795 164.8C422.479 166.011 426.1 167.346 429.568 168.81C430.045 168.294 430.476 167.782 430.863 167.274C431.683 166.246 432.334 165.094 432.79 163.863L432.883 163.584C429.05 161.94 425.038 160.446 420.93 159.099C414.313 156.968 408.546 152.812 404.453 147.225C400.361 141.639 398.155 134.91 398.151 128.002V110.28C413.409 114.151 427.807 120.814 440.605 129.927C451.754 138.439 459.79 149.294 459.896 162.124C459.849 166.498 458.895 170.816 457.094 174.809C458.543 176.125 459.442 177.035 459.442 177.035C460.227 177.847 460.966 178.671 461.659 179.506C464.459 174.129 465.953 168.174 466.018 162.121C465.889 146.684 456.427 133.823 442.905 123.948C428.683 114.184 412.733 107.173 395.892 103.285C395.432 103.172 394.951 103.164 394.487 103.263C394.023 103.362 393.588 103.564 393.214 103.854C392.841 104.144 392.539 104.515 392.331 104.939C392.123 105.363 392.015 105.827 392.014 106.299V128.002C392.014 134.296 393.56 140.496 396.518 146.062C399.476 151.629 403.756 156.395 408.988 159.948V185.805C403.759 189.354 399.48 194.115 396.523 199.677C393.566 205.239 392.021 211.434 392.02 217.723V240.668C392.018 241.125 392.118 241.577 392.313 241.991C392.507 242.406 392.792 242.772 393.146 243.065C393.5 243.357 393.914 243.568 394.36 243.683C394.806 243.798 395.272 243.813 395.724 243.728C411.975 240.668 429.532 235.473 442.998 227.868C456.523 220.233 465.895 210.141 466.024 198.21C465.847 192.433 463.748 186.877 460.053 182.411C458.725 180.716 457.268 179.127 455.693 177.655C451.84 174.117 447.568 171.055 442.973 168.537C442.384 168.207 441.788 167.882 441.185 167.561C441.942 165.817 442.342 163.941 442.362 162.043C442.345 152.527 431.373 142.201 413.362 134.349C412.887 134.142 412.367 134.056 411.849 134.099C411.332 134.142 410.834 134.313 410.399 134.595C409.965 134.877 409.608 135.263 409.361 135.716C409.114 136.17 408.985 136.677 408.986 137.193V147.944C410.792 149.918 412.858 151.642 415.127 153.069V141.912C428.661 148.59 436.189 156.305 436.203 162.032C436.195 162.035 437.52 170.521 418.201 180.797ZM440.563 222.217C427.266 229.254 412.97 234.246 398.165 237.023V217.721C398.159 213.153 399.12 208.636 400.986 204.461C402.851 200.286 405.58 196.548 408.994 193.488V212.776C408.995 213.275 409.117 213.767 409.35 214.21C409.583 214.652 409.92 215.032 410.332 215.318C410.745 215.604 411.22 215.786 411.719 215.85C412.218 215.915 412.725 215.858 413.197 215.687C423.762 211.938 433.756 206.761 442.897 200.302C447.946 196.696 452.486 192.435 456.396 187.633C458.589 190.738 459.81 194.416 459.907 198.207C459.801 207.807 451.712 215.842 440.563 222.217Z" fill="#0084D5"/>
</g>
<defs>
<clipPath id="clip0_382_146">
<rect width="600" height="250" fill="white"/>
</clipPath>
</defs>
</svg>
