<svg width="600" height="250" viewBox="0 0 600 250" fill="none" xmlns="http://www.w3.org/2000/svg">
<g clip-path="url(#clip0_382_589)">
<path d="M0.226807 130.458H13.9094C24.3456 130.458 32.1707 138.168 32.1707 149.209C32.1707 160.251 24.3456 167.961 13.9094 167.961H0.226807V130.462V130.458ZM13.6413 161.147C20.827 161.147 24.556 156.289 24.556 149.209C24.556 142.129 20.8311 137.272 13.6413 137.272H7.51978V161.147H13.6413ZM62.4646 167.961H55.3325V164.212C53.7898 166.643 51.0219 168.489 46.868 168.489C41.1714 168.489 36.3782 165.002 36.3782 156.658V140.496H43.5103V155.495C43.5103 159.51 45.6924 162.15 49.4214 162.15C53.1504 162.15 55.3325 159.51 55.3325 155.495V140.496H62.4646V167.961ZM74.5756 130.458V144.192H74.7364C75.4294 142.661 78.6222 139.969 83.5722 139.969C90.0154 139.969 96.8835 144.724 96.8835 154.231C96.8835 163.737 90.0154 168.493 83.5722 168.493C78.6222 168.493 75.4253 165.8 74.7364 164.27H74.5756V167.965H67.4435V130.466H74.5756V130.458ZM82.1326 162.15C86.1255 162.15 89.8504 159.35 89.8504 154.227C89.8504 149.103 86.1255 146.304 82.1326 146.304C78.1396 146.304 74.4147 149.05 74.4147 154.227C74.4147 159.404 78.1396 162.15 82.1326 162.15ZM99.144 154.227C99.144 144.72 106.012 139.964 112.455 139.964C117.405 139.964 120.602 142.657 121.291 144.188H121.452V140.492H128.584V167.957H121.452V164.261H121.291C120.598 165.792 117.405 168.485 112.455 168.485C106.012 168.485 99.144 163.729 99.144 154.223V154.227ZM113.891 162.15C117.884 162.15 121.609 159.404 121.609 154.227C121.609 149.05 117.884 146.304 113.891 146.304C109.898 146.304 106.173 149.103 106.173 154.227C106.173 159.35 109.898 162.15 113.891 162.15ZM137.577 128.555C139.651 128.555 141.462 130.351 141.462 132.516C141.462 134.681 139.651 136.424 137.577 136.424C135.502 136.424 133.691 134.628 133.691 132.516C133.691 130.404 135.448 128.555 137.577 128.555ZM134.008 140.492H141.141V167.957H134.008V140.492ZM157.649 130.458H165.688L178.038 158.716L190.389 130.458H198.428V167.957H191.135V144.401H190.867L180.699 167.957H175.32L165.206 144.401H164.938V167.957H157.645V130.458H157.649ZM230.096 167.961H222.964V164.212C221.421 166.643 218.653 168.489 214.499 168.489C208.803 168.489 204.009 165.002 204.009 156.658V140.496H211.142V155.495C211.142 159.51 213.324 162.15 217.053 162.15C220.782 162.15 222.964 159.51 222.964 155.495V140.496H230.096V167.961ZM235.071 140.492H242.203V144.241C243.745 141.81 246.513 139.964 250.667 139.964C256.364 139.964 261.157 143.451 261.157 151.796V167.957H254.025V152.958C254.025 148.943 251.843 146.304 248.114 146.304C244.385 146.304 242.203 148.943 242.203 152.958V167.957H235.071V140.492ZM269.906 128.555C271.981 128.555 273.792 130.351 273.792 132.516C273.792 134.681 271.981 136.424 269.906 136.424C267.831 136.424 266.02 134.628 266.02 132.516C266.02 130.404 267.778 128.555 269.906 128.555ZM266.338 140.492H273.47V167.957H266.338V140.492ZM277.294 154.227C277.294 144.929 284.587 139.964 291.88 139.964C296.776 139.964 301.145 142.236 303.805 146.725L298.587 150.052C297.152 147.887 294.809 146.357 291.934 146.357C287.941 146.357 284.319 149.316 284.319 154.227C284.319 159.138 287.941 162.096 291.934 162.096C294.809 162.096 297.152 160.566 298.587 158.401L303.805 161.728C301.145 166.164 296.776 168.489 291.88 168.489C284.587 168.489 277.294 163.525 277.294 154.227ZM310.768 128.555C312.843 128.555 314.654 130.351 314.654 132.516C314.654 134.681 312.843 136.424 310.768 136.424C308.693 136.424 306.882 134.628 306.882 132.516C306.882 130.404 308.64 128.555 310.768 128.555ZM307.2 140.492H314.332V167.957H307.2V140.492ZM319.67 140.492H326.802V144.188H326.963C327.656 142.657 330.849 139.964 335.799 139.964C342.242 139.964 349.11 144.72 349.11 154.227C349.11 163.733 342.242 168.489 335.799 168.489C330.849 168.489 327.652 165.796 326.963 164.265H326.802V178H319.67V140.501V140.492ZM334.363 162.15C338.356 162.15 342.081 159.35 342.081 154.227C342.081 149.103 338.356 146.304 334.363 146.304C330.37 146.304 326.645 149.05 326.645 154.227C326.645 159.404 330.37 162.15 334.363 162.15ZM351.37 154.227C351.37 144.72 358.239 139.964 364.682 139.964C369.632 139.964 372.829 142.657 373.518 144.188H373.678V140.492H380.81V167.957H373.678V164.261H373.518C372.825 165.792 369.632 168.485 364.682 168.485C358.239 168.485 351.37 163.729 351.37 154.223V154.227ZM366.117 162.15C370.11 162.15 373.835 159.404 373.835 154.227C373.835 149.05 370.11 146.304 366.117 146.304C362.124 146.304 358.399 149.103 358.399 154.227C358.399 159.35 362.124 162.15 366.117 162.15ZM385.802 130.458H392.934V167.957H385.802V130.458ZM401.811 128.555C403.886 128.555 405.697 130.351 405.697 132.516C405.697 134.681 403.886 136.424 401.811 136.424C399.736 136.424 397.925 134.628 397.925 132.516C397.925 130.404 399.682 128.555 401.811 128.555ZM398.243 140.492H405.375V167.957H398.243V140.492ZM412.511 160.353V146.144H408.572V140.492H412.511V133.466H419.697V140.492H425.393V146.144H419.697V159.191C419.697 160.615 420.497 161.99 422.836 161.99C423.475 161.99 424.432 161.884 425.443 161.568V167.007C424.379 167.957 422.353 168.276 420.6 168.276C415.914 168.276 412.507 166.005 412.507 160.353H412.511ZM438.701 167.695L427.2 140.492H434.493L442.161 159.559L449.776 140.492H457.123L445.466 167.957L441.155 177.991H434.18L438.705 167.691L438.701 167.695Z" fill="#3A3F59"/>
<path d="M550.892 79.5518C551.135 79.3104 551.329 79.1221 551.494 78.9748C551.659 78.8275 551.804 78.7292 551.94 78.6719C552.13 78.586 552.332 78.541 552.542 78.541C552.752 78.541 552.955 78.586 553.14 78.6719C553.276 78.7292 553.417 78.8275 553.586 78.9748C553.751 79.1221 553.945 79.3145 554.188 79.5518L598.981 123.374C599.225 123.615 599.414 123.803 599.563 123.971C599.711 124.139 599.81 124.278 599.868 124.413C599.955 124.602 600 124.802 600 125.007C600 125.211 599.955 125.416 599.868 125.6C599.81 125.735 599.711 125.874 599.563 126.042C599.414 126.21 599.225 126.398 598.981 126.64C598.981 126.64 548.12 177.034 547.955 177.181C547.551 177.574 546.916 177.996 545.938 177.996H470.657C470.286 177.996 469.886 177.636 469.737 177.468C469.589 177.3 469.49 177.161 469.432 177.026C469.345 176.838 469.3 176.637 469.3 176.432C469.3 176.228 469.345 176.023 469.432 175.839C469.49 175.704 469.589 175.565 469.737 175.397C469.881 175.229 550.896 79.5518 550.896 79.5518H550.892ZM511.824 73.0121C511.643 73.0244 511.503 73.0489 511.387 73.0939C511.226 73.1512 511.082 73.2454 510.962 73.364C510.843 73.4827 510.748 73.626 510.694 73.7856C510.645 73.8961 510.624 74.0352 510.612 74.2194C510.599 74.3994 510.599 74.6245 510.599 74.9028L533.291 97.399L550.55 76.9777L547.522 73.7897C547.019 73.2904 546.854 73.0162 546.392 73.0162C546.21 73.0162 545.983 73.0039 545.703 73.0039H512.513C512.233 73.0039 512.01 73.0039 511.824 73.0162V73.0121Z" fill="#3A3F59"/>
<path d="M26.0289 116.503C26.0289 118.463 24.3666 120.059 22.3907 120.059C20.3117 120.059 18.7525 118.463 18.7525 116.503C18.7525 114.542 20.3612 112.946 22.3907 112.946C24.4202 112.946 26.0289 114.493 26.0289 116.503ZM13.5591 112.946C11.5337 112.946 9.92086 114.493 9.92086 116.503C9.92086 118.512 11.4801 120.059 13.5591 120.059C15.6381 120.059 17.1973 118.463 17.1973 116.503C17.1973 114.542 15.535 112.946 13.5591 112.946ZM108.516 112.791C106.437 112.791 104.829 114.338 104.829 116.4C104.829 118.463 106.437 120.059 108.516 120.059C110.595 120.059 112.258 118.463 112.258 116.4C112.258 114.338 110.595 112.791 108.516 112.791ZM104.725 102.944H46.7075V95.8318C46.7075 88.7723 43.952 84.3893 34.5512 84.3893C28.4709 84.3893 23.3807 85.3674 23.3807 85.3674V102.944H20.5221C11.4842 102.944 8.26262 99.9038 8.26262 93.0489C8.26262 90.3684 8.88549 87.0698 9.97861 84.7494L1.14702 86.1409C0.470518 88.3058 0.00439453 91.3465 0.00439453 93.8715C0.00439453 103.096 4.83475 109.333 19.6435 109.333H31.28V91.0354C31.28 91.0354 32.6825 90.7776 34.085 90.7776C37.7728 90.7776 38.8123 92.2713 38.8123 96.6544V109.333H112.938V85.1137H104.73V102.949L104.725 102.944ZM123.325 83.7222L121.403 90.4748C128.935 92.124 132.676 96.507 133.093 102.949H118.548V109.341H141.149V105.371C141.149 92.6929 134.656 86.3537 123.329 83.7222H123.325ZM166.365 81.8151C168.39 81.8151 170.003 80.2191 170.003 78.2588C170.003 76.2985 168.341 74.7025 166.365 74.7025C164.389 74.7025 162.727 76.2985 162.727 78.2588C162.727 80.2191 164.286 81.8151 166.365 81.8151ZM175.197 81.8151C177.173 81.8151 178.835 80.2191 178.835 78.2588C178.835 76.2985 177.173 74.7025 175.197 74.7025C173.221 74.7025 171.558 76.2985 171.558 78.2588C171.558 80.2191 173.118 81.8151 175.197 81.8151ZM269.902 112.946C267.877 112.946 266.264 114.493 266.264 116.503C266.264 118.512 267.823 120.059 269.902 120.059C271.981 120.059 273.541 118.463 273.541 116.503C273.541 114.542 271.878 112.946 269.902 112.946ZM261.071 112.946C259.045 112.946 257.432 114.493 257.432 116.503C257.432 118.512 258.992 120.059 261.071 120.059C263.15 120.059 264.709 118.463 264.709 116.503C264.709 114.542 263.047 112.946 261.071 112.946ZM269.746 109.337H171.455C161.271 109.337 157.377 104.696 157.377 97.4319C157.377 90.6794 161.584 84.3934 171.558 84.3934C178.002 84.3934 182.729 86.1982 182.729 86.1982V102.949H261.537V85.1137H269.746V109.337ZM174.78 91.5552C174.78 91.5552 173.171 90.7817 170.729 90.7817C167.458 90.7817 165.586 93.409 165.586 96.7076C165.586 100.677 167.611 102.944 172.289 102.944H174.784V91.5552H174.78ZM447.986 85.1137V102.949H318.425V73H310.216V102.944H297.849C297.069 91.8621 290.68 86.1941 280.132 83.7181L278.21 90.4707C285.742 92.1199 289.484 96.5029 289.9 102.944H275.356V109.337H456.195V85.1137H447.986ZM451.781 112.791C449.702 112.791 448.094 114.338 448.094 116.4C448.094 118.463 449.702 120.059 451.781 120.059C453.86 120.059 455.523 118.463 455.523 116.4C455.523 114.338 453.86 112.791 451.781 112.791Z" fill="#3A3F59"/>
</g>
<defs>
<clipPath id="clip0_382_589">
<rect width="600" height="105" fill="white" transform="translate(0 73)"/>
</clipPath>
</defs>
</svg>
