<svg width="600" height="250" viewBox="0 0 600 250" fill="none" xmlns="http://www.w3.org/2000/svg">
<g clip-path="url(#clip0_382_356)">
<path d="M299.712 9.23242L210.166 98.8837L300 188.823L389.834 98.8837L299.712 9.23242ZM299.712 184.499L214.484 98.8837L299.712 13.5564L384.94 98.8837L299.712 184.499Z" fill="#333333"/>
<path d="M273.798 70.9219L268.328 75.2459V82.7408L273.51 80.1464V77.552L329.369 70.9219H273.798Z" fill="#333333"/>
<path d="M300.864 21.0511L298.848 20.4746L297.409 51.8958L302.016 52.4723L300.864 21.0511Z" fill="#333333"/>
<path d="M289.059 57.6611L284.74 60.8321V68.327L288.771 65.7326V61.9851L313.821 57.6611H289.059Z" fill="#333333"/>
<path d="M273.798 145.295L268.328 149.619V149.907L273.222 154.808L273.51 154.519V152.213L329.369 145.295H273.798Z" fill="#333333"/>
<path d="M273.798 100.613L268.328 104.937V112.432L273.51 109.838V107.532L329.369 100.613H273.798Z" fill="#333333"/>
<path d="M273.798 85.9111L268.328 89.9469V97.4418L273.51 94.8474V92.5413L329.369 85.9111H273.798Z" fill="#333333"/>
<path d="M273.798 115.604L268.328 119.928V127.422L273.51 124.828V122.522L329.369 115.604H273.798Z" fill="#333333"/>
<path d="M273.798 130.593L268.328 134.917V142.123L273.51 139.817V137.223L329.369 130.593H273.798Z" fill="#333333"/>
<path d="M278.693 160.285L284.164 165.762L319.867 161.438L321.019 160.285H278.693Z" fill="#333333"/>
<path d="M206.71 222.551H209.59L212.757 235.523L216.212 222.551H219.379L222.547 235.523L225.714 222.551H228.881L224.274 239.27H221.107L217.652 226.298L214.197 239.27H211.029L206.71 222.551Z" fill="#333333"/>
<path d="M231.76 230.91C231.76 234.081 233.2 237.252 236.943 237.252C240.686 237.252 242.126 234.081 242.126 230.91C242.126 227.739 240.686 224.568 236.943 224.568C233.2 224.568 231.76 227.739 231.76 230.91ZM245.005 230.91C245.005 235.81 241.838 239.846 236.943 239.846C231.76 239.846 228.881 235.81 228.881 230.91C228.881 226.009 232.048 221.974 236.943 221.974C241.838 221.974 245.005 226.009 245.005 230.91Z" fill="#333333"/>
<path d="M261.993 222.551H264.872V236.964H273.51V239.27H261.993V222.551Z" fill="#333333"/>
<path d="M278.117 236.964H280.997C285.603 236.964 286.755 234.37 286.755 230.911C286.755 227.451 285.891 224.857 280.997 224.857H278.117V236.964ZM274.95 222.551H281.86C287.043 222.551 289.347 226.298 289.347 230.911C289.347 235.523 287.043 239.27 281.86 239.27H274.95V222.551Z" fill="#333333"/>
<path d="M294.241 222.551H308.062V225.145H302.591V239.27H299.712V225.145H294.241V222.551Z" fill="#333333"/>
<path d="M329.945 232.64H335.128L332.536 225.433L329.945 232.64ZM331.097 222.551H334.264L340.886 239.559H337.431L335.704 234.946H329.081L327.354 239.559H324.186L331.097 222.551Z" fill="#333333"/>
<path d="M344.917 236.964H347.797C352.404 236.964 353.555 234.37 353.555 230.911C353.555 227.451 352.692 224.857 347.797 224.857H344.917V236.964ZM342.038 222.551H348.948C354.131 222.551 356.435 226.298 356.435 230.911C356.435 235.523 354.131 239.27 348.948 239.27H342.038V222.551Z" fill="#333333"/>
<path d="M358.45 222.551H370.543V225.145H361.329V229.469H369.967V231.775H361.329V236.964H370.543V239.27H358.45V222.551Z" fill="#333333"/>
<path d="M388.683 227.739C388.107 225.721 386.955 224.28 384.364 224.28C380.621 224.28 379.181 227.451 379.181 230.622C379.181 233.793 380.621 236.964 384.364 236.964C386.955 236.964 388.395 234.946 388.683 232.64H391.562C391.274 236.675 388.395 239.558 384.364 239.558C379.181 239.558 376.302 235.522 376.302 230.622C376.302 225.721 379.469 221.686 384.364 221.686C388.107 221.686 391.274 223.703 391.562 227.451H388.683V227.739Z" fill="#333333"/>
<path d="M393.578 222.551H405.671V225.145H396.457V229.469H405.095V231.775H396.457V236.964H405.959V239.27H393.578V222.551Z" fill="#333333"/>
<path d="M407.398 222.551H410.566L418.34 234.946V222.551H421.219V239.27H418.052L410.278 226.875V239.27H407.398V222.551Z" fill="#333333"/>
<path d="M422.659 222.551H436.191V225.145H431.009V239.27H427.841V225.145H422.659V222.551Z" fill="#333333"/>
<path d="M452.892 222.551H464.985V225.145H455.771V229.469H464.409V231.775H455.771V236.964H465.273V239.27H452.892V222.551Z" fill="#333333"/>
<path d="M319.579 232.351C322.171 231.486 322.747 229.18 322.747 227.451C322.747 225.433 321.883 222.262 316.988 222.262H309.502V239.27H312.381V224.856H316.7C318.14 224.856 319.579 225.433 319.579 227.739C319.579 229.757 317.852 230.621 316.7 230.621H314.684L313.245 232.928H316.412L319.579 239.558H323.034L319.579 232.351Z" fill="#333333"/>
<path d="M447.997 232.351C450.588 231.486 451.164 229.18 451.164 227.451C451.164 225.433 450.3 222.262 445.405 222.262H437.919V239.27H440.798V224.856H445.117C446.557 224.856 447.997 225.433 447.997 227.739C447.997 229.757 446.269 230.621 445.117 230.621H443.102L441.662 232.928H444.829L447.997 239.558H451.452L447.997 232.351Z" fill="#333333"/>
<path d="M257.098 232.351C259.69 231.486 260.266 229.18 260.266 227.451C260.266 225.433 259.402 222.262 254.507 222.262H247.021V239.27H249.9V224.856H254.219C255.659 224.856 257.098 225.433 257.098 227.739C257.098 229.757 255.371 230.621 254.219 230.621H252.204L250.764 232.928H253.931L257.098 239.558H260.554L257.098 232.351Z" fill="#333333"/>
<path d="M136.455 236.964H139.335C143.941 236.964 145.093 234.37 145.093 230.911C145.093 227.451 144.229 224.857 139.335 224.857H136.455V236.964ZM133.576 222.551H140.486C145.669 222.551 147.972 226.298 147.972 230.911C147.972 235.523 145.669 239.27 140.486 239.27H133.576V222.551Z" fill="#333333"/>
<path d="M149.988 222.551H152.867V232.352C152.867 234.658 152.867 237.252 156.898 237.252C160.929 237.252 160.929 234.658 160.929 232.352V222.551H163.809V233.505C163.809 237.829 160.929 240.135 156.898 240.135C152.867 240.135 149.988 238.117 149.988 233.505V222.551Z" fill="#333333"/>
<path d="M185.115 232.64H190.298L187.707 225.433L185.115 232.64ZM186.267 222.551H189.434L196.057 239.559H192.89L191.162 234.946H184.54L182.812 239.559H179.645L186.267 222.551Z" fill="#333333"/>
<path d="M200.088 222.551H197.209V239.559H200.088V222.551Z" fill="#333333"/>
<path d="M173.886 236.963H168.704V224.856H173.311C175.038 224.856 175.902 225.433 175.902 227.162C175.902 228.604 174.75 229.468 173.311 229.468H170.719L169.567 231.486H173.886C175.614 231.486 176.766 232.351 176.766 234.081C176.766 236.099 175.614 236.963 173.886 236.963ZM176.478 230.333C177.917 229.757 178.781 228.315 178.781 226.586C178.781 223.703 176.766 222.262 173.886 222.262H165.536V239.27H173.311C177.629 239.27 179.645 237.252 179.645 234.657C179.645 232.351 178.493 230.621 176.478 230.333Z" fill="#333333"/>
<path d="M410.565 198.048H407.974V200.066H410.565V198.048Z" fill="#333333"/>
<path d="M390.698 200.643H383.788L385.228 202.949H389.835C394.441 202.949 395.593 205.543 395.593 209.002V212.462H382.348V215.056H395.593H397.897H398.473V209.291C398.185 204.39 395.881 200.643 390.698 200.643Z" fill="#333333"/>
<path d="M349.236 216.209H346.645V218.227H349.236V216.209Z" fill="#333333"/>
<path d="M353.267 216.209H350.676V218.227H353.267V216.209Z" fill="#333333"/>
<path d="M380.045 216.209H377.454V218.227H380.045V216.209Z" fill="#333333"/>
<path d="M380.045 200.643H377.166V212.462H368.528V200.643H361.617C356.435 200.643 354.131 204.39 354.131 209.002V212.462H348.373C345.781 212.462 344.342 210.732 344.054 208.138V200.643H341.174V208.138C341.462 212.173 344.342 215.056 348.373 215.056H354.131H356.435H357.011V209.291C357.011 205.831 357.874 203.237 362.769 203.237H365.648V215.056H367.952H368.528H380.045V200.643Z" fill="#333333"/>
<path d="M141.638 216.209H139.047V218.227H141.638V216.209Z" fill="#333333"/>
<path d="M145.669 216.209H143.078V218.227H145.669V216.209Z" fill="#333333"/>
<path d="M192.314 212.461H183.676C184.252 211.308 184.828 209.867 184.828 208.137C184.828 204.102 182.236 200.642 177.917 200.642C173.886 200.642 171.295 203.813 171.007 207.561C170.719 210.444 169.855 212.461 166.112 212.461H160.929V200.642H154.019C148.836 200.642 146.533 204.39 146.533 209.002V212.461H140.774C138.183 212.461 136.743 210.732 136.455 208.137V200.642H133.576V208.137C133.864 212.173 136.743 215.056 140.774 215.056H146.533H147.397H149.412V209.29C149.412 205.831 150.276 203.237 155.171 203.237H158.05V215.056H159.49H166.4C168.704 215.056 170.431 214.191 171.583 213.038C173.022 211.597 173.598 209.867 173.886 207.561C173.886 207.561 173.886 207.561 173.886 207.273C174.174 204.966 175.326 203.237 177.917 203.237C180.797 203.237 181.948 205.831 181.948 208.137C181.948 210.732 180.797 213.038 177.917 213.038C176.766 213.038 175.902 212.75 175.326 212.173L173.022 213.614C174.174 215.056 175.902 215.632 177.917 215.632C179.069 215.632 180.221 215.344 181.085 214.768H195.193V197.76H192.314V212.461Z" fill="#333333"/>
<path d="M429.281 204.678H423.81L430.433 198.048H426.69L418.052 206.984H429.281C430.721 206.984 432.16 207.561 432.16 209.867C432.16 212.173 430.721 212.461 429.281 212.461H410.854V201.219H408.262V214.479C408.262 215.632 408.262 216.209 407.11 216.209H405.095L406.247 218.227H407.398C409.702 218.227 410.854 217.074 410.854 214.767H429.569C434.464 214.767 435.328 211.596 435.328 209.579C435.04 207.849 434.176 204.678 429.281 204.678Z" fill="#333333"/>
<path d="M276.102 214.479C276.102 215.632 276.102 216.209 274.95 216.209H272.935L274.086 218.227H275.238C277.829 218.227 278.693 216.786 278.693 214.479V200.643H276.102V214.479Z" fill="#333333"/>
<path d="M316.412 198.048H313.821V200.066H316.412V198.048Z" fill="#333333"/>
<path d="M312.381 198.048H309.79V200.066H312.381V198.048Z" fill="#333333"/>
<path d="M323.61 212.461H319.003H316.412V201.507H313.821V212.461H306.335V209.579C306.335 204.678 303.167 200.642 298.272 200.642C294.817 200.642 292.514 202.372 291.074 204.966L293.666 206.408C294.241 204.39 295.969 202.949 298.272 202.949C302.016 202.949 303.455 206.12 303.455 209.29V212.173H283.876V197.76H280.997V215.056H303.455H306.335H313.821H316.412H319.003H326.778V198.048H323.898V212.461H323.61Z" fill="#333333"/>
<path d="M331.385 198.048H328.505V215.056H331.385V198.048Z" fill="#333333"/>
<path d="M268.903 205.543C268.04 205.255 262.281 203.813 261.993 203.813V202.66C261.993 200.931 263.721 200.354 265.16 200.354C267.176 200.354 268.615 201.219 268.903 203.237H271.783C271.783 199.778 268.903 197.76 265.16 197.76C261.993 197.76 259.114 199.489 259.114 202.66V205.543C261.417 206.12 266.6 207.561 268.04 207.849C268.615 208.137 269.479 208.714 269.479 209.867C269.479 211.02 268.615 212.461 266.024 212.461H255.371C252.779 212.461 251.34 210.444 251.052 208.137V200.642H248.172V208.137C248.46 212.173 251.34 215.056 255.371 215.056H265.448C268.903 215.056 272.071 213.614 272.071 209.867C272.071 208.137 270.919 206.12 268.903 205.543Z" fill="#333333"/>
<path d="M260.266 216.209H257.674V218.227H260.266V216.209Z" fill="#333333"/>
<path d="M264.297 216.209H261.705V218.227H264.297V216.209Z" fill="#333333"/>
<path d="M299.712 216.209H297.121V218.227H299.712V216.209Z" fill="#333333"/>
<path d="M230.033 212.461H225.426H222.835H210.454V209.579C210.454 206.408 211.893 203.237 215.636 203.237C217.94 203.237 219.667 204.678 220.243 206.696L222.835 205.255C221.683 202.66 219.091 200.931 215.636 200.931C210.454 200.931 207.574 204.966 207.574 209.867V212.75H200.088V198.336H197.209V215.056H207.574H210.454H222.835H225.426H233.2V198.048H230.321V212.461H230.033Z" fill="#333333"/>
<path d="M237.807 198.048H234.928V215.056H237.807V198.048Z" fill="#333333"/>
<path d="M459.226 200.643C455.195 200.643 452.604 203.814 452.316 207.561C452.028 210.444 451.164 212.462 447.421 212.462H441.662V200.643H439.071V214.479C439.071 215.632 439.071 216.209 437.919 216.209H435.904L437.055 218.227H438.207C440.51 218.227 441.662 217.074 441.662 214.768H447.709C450.012 214.768 451.74 213.903 452.892 212.75C454.331 211.308 454.907 209.579 455.195 207.273C455.195 207.273 455.195 207.273 455.195 206.984C455.483 204.678 456.635 202.949 459.226 202.949C462.105 202.949 463.257 205.543 463.257 207.849C463.257 210.444 462.105 212.75 459.226 212.75C458.074 212.75 457.21 212.462 456.635 211.885L454.331 213.326C455.483 214.768 457.21 215.344 459.226 215.344C463.545 215.344 466.136 211.885 466.136 207.849C466.136 204.102 463.545 200.643 459.226 200.643Z" fill="#333333"/>
</g>
<defs>
<clipPath id="clip0_382_356">
<rect width="334" height="232" fill="white" transform="translate(133 9)"/>
</clipPath>
</defs>
</svg>
