<svg width="600" height="250" viewBox="0 0 600 250" fill="none" xmlns="http://www.w3.org/2000/svg">
<g clip-path="url(#clip0_382_727)">
<path d="M138.952 121.86L137.604 130.776H73.1404C75.8077 124.607 75.6392 121.131 75.6392 116.673V55.383C75.6392 51.0652 75.8077 47.2802 73.1404 41.2802H92.4571H136.032L136.144 50.3643C134.965 49.8876 134.011 49.4671 133.14 49.0746C130.81 48.2054 127.862 47.3923 124.801 47.4204C119.916 47.4204 99.4202 47.4204 90.3233 47.4204V82.4671H130.782L128.788 89.3643H90.3233V124.439C97.7636 124.439 121.545 124.439 126.795 124.439C132.944 124.551 139.064 121.075 139.064 121.075L138.896 121.832C138.896 121.86 138.924 121.86 138.952 121.86ZM235.985 130.776C236.856 126.374 236.855 120.149 236.154 115.075L230.426 72.9063L199.149 130.747H193.196L161.413 70.2989L155.237 116C154.563 121.271 154.366 127.944 154.928 130.776H143.753C145.915 126.205 146.449 124.215 147.459 116.701L157.567 41.2802H162.705L199.794 111.654L236.855 41.2802H240.73L251.175 116.533C252.213 124.018 253 126.177 255.077 130.776H235.985ZM330.126 130.776L315.246 97.9998H285.316L270.632 130.776H269.368H259.008H258.952C262.658 126.177 263.921 124.047 266.533 118.327L301.235 41.2802H305.138L339.279 116.168C342.929 123.486 344.642 125.757 349.864 130.776H330.126ZM423.762 130.776L408.881 97.9998H378.952L364.267 130.776H363.032H352.644H352.588C356.294 126.177 357.557 124.047 360.168 118.327L394.871 41.2802H398.774L432.943 116.168C436.593 123.486 438.306 125.757 443.528 130.776H423.762ZM508.61 130.832C499.653 122.673 488.058 111.85 473.542 94.6914C469.387 89.8409 466.467 89.2241 464.585 89.1119V116.673C464.585 121.103 464.585 124.607 467.112 130.776H447.403C450.07 124.607 449.901 121.131 449.901 116.673V55.3269C449.901 51.0091 450.07 47.2241 447.403 41.2241H466.719C479.915 41.2241 511.109 40.0465 511.109 65.7848C511.109 79.383 500.299 86.7007 487.608 88.5512L483.846 88.9157C483.846 88.9157 525.006 129.093 526.775 130.832H508.61ZM485.278 83.4204L485.25 83.4484C493.561 80.3082 496.368 72.4297 496.088 65.7568C495.779 59.3362 492.887 45.3736 464.614 46.4951V84.654C464.614 84.654 480.449 85.5232 484.885 83.5886C485.138 83.4764 485.278 83.4204 485.278 83.4204ZM381.815 91.7475H405.989L393.804 65.0278L381.815 91.7475ZM288.208 91.7475H312.382L300.197 65.0278L288.208 91.7475Z" fill="#3C3D3F"/>
</g>
<path d="M88.7671 184.04C88.7671 173.296 84.0842 165.477 70.4613 165.477H57.4466C55.4396 165.477 53.8584 167.089 53.8584 168.999V234.18H70.4613C84.1451 234.18 88.7671 226.361 88.7671 215.616V184.04ZM65.3527 175.147H70.0356C75.6307 175.147 77.0903 177.833 77.0903 183.264V216.392C77.0903 221.824 75.6307 224.51 70.0356 224.51H65.3527V175.147ZM186.134 180.519C186.134 176.997 187.898 174.132 191.73 174.132C195.561 174.132 197.325 176.579 197.325 183.563V187.383H208.089V183.026C208.089 170.192 201.886 164.343 191.73 164.343C181.573 164.343 174.944 172.222 174.944 180.996C174.944 189.771 181.269 197.053 187.047 202.604C192.946 208.095 197.811 212.393 197.811 218.78C197.811 225.167 194.71 225.346 191.608 225.346C187.047 225.346 185.222 222.302 185.222 216.989V214.244C185.222 212.274 183.58 210.722 181.634 210.722H174.458V217.885C174.458 228.092 181.026 235.374 191.73 235.374C202.433 235.374 209.001 228.629 209.001 217.944C209.001 207.26 203.467 202.604 196.291 195.68C190.148 189.771 186.134 185.891 186.134 180.519ZM293.719 181.295C293.719 171.028 286.908 164.343 276.143 164.343C265.378 164.343 258.567 171.028 258.567 181.295V218.422C258.567 228.689 265.378 235.374 276.143 235.374C286.908 235.374 293.719 228.689 293.719 218.422V181.295ZM282.042 218.661C282.042 222.302 280.765 225.346 276.143 225.346C271.521 225.346 270.244 222.302 270.244 218.661V180.996C270.244 177.355 271.521 174.311 276.143 174.311C280.765 174.311 282.042 177.355 282.042 180.996V218.661Z" fill="#F9423A"/>
<path d="M250.904 191.084V180.996C250.904 170.789 244.518 164.343 234.058 164.343C223.597 164.343 216.421 171.028 216.421 181.295V218.422C216.421 228.689 223.476 235.374 234.058 235.374C244.64 235.374 250.904 228.927 250.904 218.72V207.857H243.302C241.295 207.857 239.714 209.468 239.714 211.378V218.959C239.714 222.779 238.133 225.226 234.18 225.226C230.227 225.226 228.037 222.839 228.037 218.661V180.996C228.037 176.878 229.801 174.43 234.18 174.43C238.558 174.43 239.714 176.878 239.714 180.698V191.084H250.965H250.904Z" fill="#F9423A"/>
<path d="M139.306 230.658C139.306 232.628 140.948 234.18 142.894 234.18H168.376V224.092H150.8V165.477H142.894C140.887 165.477 139.306 167.088 139.306 168.998V230.598V230.658Z" fill="#F9423A"/>
<path d="M96.4299 218.362C96.4299 228.629 103.241 235.314 114.006 235.314C124.77 235.314 131.582 228.629 131.582 218.362V165.477H123.554C121.547 165.477 119.966 167.088 119.966 168.998V218.66C119.966 222.301 118.689 225.346 114.067 225.346C109.445 225.346 108.168 222.301 108.168 218.66V165.477H100.14C98.1328 165.477 96.5516 167.088 96.5516 168.998V218.362H96.4299Z" fill="#F9423A"/>
<path d="M450.261 219.078C450.261 229.763 443.206 236.687 432.016 236.687C420.826 236.687 413.771 229.763 413.771 219.078V180.519C413.771 169.834 420.826 162.91 432.016 162.91C443.206 162.91 450.261 169.834 450.261 180.519V219.078ZM438.158 180.22C438.158 176.46 436.82 173.296 432.016 173.296C427.211 173.296 425.873 176.46 425.873 180.22V219.377C425.873 223.137 427.211 226.301 432.016 226.301C436.82 226.301 438.158 223.137 438.158 219.377V180.22ZM496.968 164.104H484.865V219.377C484.865 223.137 483.527 226.301 478.723 226.301C473.918 226.301 472.581 223.137 472.581 219.377V164.104H460.478V219.078C460.478 229.763 467.533 236.687 478.723 236.687C489.913 236.687 496.968 229.763 496.968 219.078V164.104ZM528.593 206.842H520.443V235.493H508.341V164.104H528.593C543.006 164.104 546.412 172.998 546.412 185.473C546.412 197.948 543.006 206.842 528.593 206.842ZM527.62 173.893H520.504V196.933H527.62C533.64 196.933 534.553 193.173 534.553 185.354C534.553 177.534 533.64 173.893 527.62 173.893ZM366.395 208.274V235.493H378.497V208.274H366.395ZM387.437 208.274H385.37L392.972 235.493H404.77L396.012 206.603C393.762 207.678 390.965 208.274 387.498 208.274M349.123 207.678C346.021 207.678 343.528 208.036 341.46 208.633V211.856V208.692V218.481C341.46 223.257 339.453 226.002 335.013 226.002C330.574 226.002 328.871 223.555 328.871 219.198V180.22C328.871 175.982 330.695 173.416 334.892 173.416C339.088 173.416 340.609 175.982 340.609 179.922V186.726C340.609 186.726 342.251 185.174 352.285 185.174V180.22C352.285 169.655 345.656 162.91 334.831 162.91C324.006 162.91 316.708 169.834 316.708 180.519V218.661C316.708 228.868 322.12 236.687 333.128 236.687C344.136 236.687 342.007 235.314 345.535 230.479L347.42 235.493H352.833V207.678H349.001H349.123ZM378.497 191.143V174.012H385.065C390.478 174.012 392.12 176.46 392.12 185.174C392.12 193.889 391.999 189.233 391.755 190.666C400.878 189.054 403.31 183.682 403.919 181.772C403.31 171.506 399.722 164.104 387.072 164.104H366.395V191.143H378.497Z" fill="black"/>
<path d="M403.979 183.921C403.979 183.921 402.459 193.949 385.856 193.949H351.13C330.999 193.949 332.216 214.542 332.216 214.781C332.216 214.781 333.736 204.753 350.339 204.753H385.065C405.196 204.753 403.979 184.16 403.979 183.921Z" fill="#F9423A"/>
<defs>
<clipPath id="clip0_382_727">
<rect width="454" height="90" fill="white" transform="translate(73 41)"/>
</clipPath>
</defs>
</svg>
