<svg width="600" height="250" viewBox="0 0 600 250" fill="none" xmlns="http://www.w3.org/2000/svg">
<g clip-path="url(#clip0_1082_179)">
<path d="M66.0698 108.517C73.6882 114.994 83.2254 108.246 90.9805 100.542C98.7385 92.8417 102.787 86.0911 102.787 86.0911L89.4004 73C89.4004 73 85.358 79.7536 77.5999 87.4542C68.9865 96.0135 59.5325 102.605 51.9141 96.1285L66.0698 108.517Z" fill="#38D430"/>
<path d="M109.508 151.668C117.127 158.147 126.664 151.396 134.419 143.693C142.177 135.992 146.226 129.244 146.226 129.244L132.845 116.156C132.845 116.156 128.797 122.904 121.039 130.608C112.425 139.164 102.974 145.758 95.3557 139.282L109.511 151.671L109.508 151.668Z" fill="#009ADE"/>
<path d="M51.1122 136.709L59.8118 128.067C63.2096 125.308 66.7946 122.187 72.0072 121.912C77.2228 121.641 80.1722 123.618 87.7906 130.094C95.4061 136.567 104.946 129.82 112.701 122.116C120.456 114.415 124.508 107.668 124.508 107.668L111.127 94.5795C111.127 94.5795 107.076 101.33 99.3207 109.031C90.7073 117.587 81.2563 124.181 73.6378 117.705C66.0224 111.229 63.569 108.998 58.3505 109.27C53.1349 109.544 49.8707 112.259 46.4699 115.023L37.8208 123.615C35.4387 125.981 31.4617 125.869 29.0826 123.503C26.7005 121.136 26.8015 117.398 29.1836 115.029L37.9366 106.334C41.3374 103.578 45.0739 100.61 50.2924 100.336C55.5051 100.064 58.4574 102.038 66.0758 108.514L51.9201 96.1255C44.3016 89.6493 41.8483 87.4158 36.6327 87.6902C31.4171 87.9646 27.85 90.381 24.4551 93.1426L9.84787 107.653C3.39967 114.055 3.39967 124.438 9.84787 130.84L55.3031 175.994L81.684 149.788C85.0818 147.027 88.5124 143.755 93.728 143.483C98.9406 143.209 101.896 145.188 109.511 151.662L95.3556 139.276C87.7401 132.8 85.2868 130.566 80.0682 130.837C74.8526 131.112 71.7488 133.989 68.348 136.75L59.7553 145.289C57.3406 147.687 53.4794 147.735 51.0647 145.339C48.6499 142.94 48.6975 139.102 51.1122 136.703" fill="#003057"/>
<path d="M156.169 124.556C156.169 143.433 166.054 153.252 185.277 153.252H220.648V141.253H187.255C177.367 141.253 173.414 140.052 173.084 130.56H220.646V118.558H173.084C173.414 109.391 177.587 107.756 187.365 107.756H220.648V95.754H185.277C166.054 95.754 156.169 105.794 156.169 124.559M329.214 153.255H345.252V95.751H329.214V153.252V153.255ZM513.324 94.7744C494.431 94.7744 482.568 106.668 482.568 124.559C482.568 142.451 494.431 154.238 513.324 154.238C532.217 154.238 543.967 142.347 543.967 124.559C543.967 106.771 532.105 94.7744 513.324 94.7744ZM513.211 141.911C504.206 141.911 498.604 135.691 498.604 124.559C498.604 113.427 504.313 107.213 513.211 107.213C522.11 107.213 527.932 113.43 527.932 124.559C527.932 135.688 522.217 141.911 513.211 141.911ZM589.283 140.928C582.256 140.928 577.53 139.943 574.016 135.8C571.382 132.744 571.272 128.052 571.272 121.615V95.754H555.233V121.505C555.233 131.87 556.332 138.742 562.373 145.074C569.407 152.491 576.984 153.255 588.407 153.255H599.987V140.928H589.283ZM365.892 102.631C360.51 107.759 357.326 115.723 357.326 124.777C357.326 133.832 360.62 141.256 365.892 146.381C371.277 151.618 378.084 153.255 387.642 153.255H408.401V140.928H392.142C386.98 140.928 383.137 140.928 380.062 139.072C375.34 136.234 373.252 131.649 373.252 124.777C373.252 111.465 379.073 108.196 392.142 108.196H408.401V95.7569H387.642C378.084 95.7569 371.277 97.5036 365.892 102.631ZM445.412 94.7744C426.519 94.7744 414.656 106.668 414.656 124.559C414.656 142.451 426.519 154.238 445.412 154.238C464.305 154.238 476.055 142.344 476.055 124.559C476.055 106.774 464.195 94.7744 445.412 94.7744ZM445.302 141.911C436.296 141.911 430.695 135.691 430.695 124.559C430.695 113.427 436.406 107.213 445.302 107.213C454.198 107.213 460.019 113.43 460.019 124.559C460.019 135.688 454.307 141.911 445.302 141.911ZM233.667 95.751H298.357C308.307 95.751 316.376 103.761 316.376 113.648V153.252H300.997V116.457C300.997 112.014 297.368 108.411 292.894 108.411H282.543V153.252H266.947V108.411H249.043V153.252H233.667V95.751Z" fill="#003057"/>
</g>
<defs>
<clipPath id="clip0_1082_179">
<rect width="595" height="103" fill="white" transform="translate(5 73)"/>
</clipPath>
</defs>
</svg>
