<svg width="600" height="250" viewBox="0 0 600 250" fill="none" xmlns="http://www.w3.org/2000/svg">
<path fill-rule="evenodd" clip-rule="evenodd" d="M379.697 211.798C380.917 211.798 382.081 211.989 383.216 212.398C384.351 212.807 385.287 213.406 386.054 214.142L385.514 210.926C383.812 210.327 381.74 210 379.328 210C375.895 210 373.227 210.954 371.297 212.861C369.368 214.796 368.403 217.275 368.403 220.354C368.403 223.433 369.339 225.586 371.212 227.33C373.085 229.074 375.554 229.946 378.619 229.946C380.52 229.946 382.166 229.728 383.641 229.319L387.331 228.283V224.033C387.331 223.27 387.331 222.725 387.444 222.343C387.529 221.989 387.756 221.717 388.153 221.471H382.79C383.329 221.853 383.613 222.561 383.613 223.597V227.03C383.102 227.357 382.393 227.602 381.513 227.82C380.634 228.038 379.867 228.147 379.271 228.147C377.228 228.147 375.582 227.357 374.362 225.749C373.114 224.114 372.489 222.18 372.489 219.973C372.489 217.384 373.114 215.368 374.362 213.951C375.611 212.534 377.399 211.826 379.725 211.826M135.512 210.054C132.391 210.054 129.837 211.008 127.85 212.888C125.836 214.768 124.814 217.221 124.814 220.245C124.814 223.27 125.722 225.504 127.538 227.302C129.354 229.101 131.738 230 134.689 230C137.64 230 140.308 229.046 142.294 227.139C144.309 225.232 145.302 222.834 145.302 219.891C145.302 216.948 144.394 214.55 142.606 212.779C140.819 210.954 138.435 210.082 135.484 210.082M134.718 211.907C132.901 211.907 131.454 212.589 130.404 213.924C129.354 215.313 128.815 217.003 128.815 219.046C128.815 221.471 129.411 223.624 130.603 225.45C131.795 227.302 133.412 228.202 135.427 228.202C137.158 228.202 138.577 227.52 139.655 226.158C140.762 224.768 141.301 223.134 141.301 221.253C141.301 218.719 140.705 216.54 139.542 214.687C138.35 212.834 136.761 211.907 134.718 211.907ZM475.697 210.681C476.236 211.035 476.548 211.635 476.548 212.507V227.847C476.548 228.474 476.264 228.992 475.697 229.401H481.088C480.549 228.937 480.266 228.338 480.266 227.602V220.736C481.003 220.736 481.656 220.845 482.138 221.144C482.649 221.417 483.132 221.962 483.671 222.807C484.749 224.578 485.685 225.967 486.452 227.03C487.189 228.038 487.729 228.692 488.098 228.965C488.41 229.21 488.75 229.401 489.034 229.455C489.375 229.537 489.8 229.591 490.396 229.591C491.389 229.591 492.581 229.455 494 229.264C492.524 228.719 491.049 227.411 489.658 225.341C488.183 223.134 487.048 221.662 486.253 220.954C485.43 220.245 484.607 219.891 483.728 219.891C485.487 219.564 486.849 219.019 487.842 218.202C488.835 217.411 489.318 216.431 489.318 215.286C489.318 213.869 488.693 212.752 487.473 211.962C486.225 211.144 484.607 210.763 482.564 210.763H475.725L475.697 210.681ZM481.088 212.343C480.805 212.343 480.521 212.343 480.266 212.425V219.074C480.578 219.128 480.89 219.155 481.202 219.155C482.309 219.155 483.273 218.801 484.125 218.147C484.948 217.493 485.345 216.621 485.345 215.559C485.345 214.496 484.948 213.733 484.182 213.161C483.415 212.616 482.365 212.343 481.06 212.343M323.539 210.654C323 210.981 322.744 211.635 322.744 212.507V219.455L329.895 211.935C330.293 211.526 330.491 211.199 330.491 210.981C330.491 210.845 330.434 210.736 330.264 210.599H334.152C333.641 210.981 332.932 211.608 332.052 212.561L325.525 219.455H326.008C326.802 219.455 327.54 219.673 328.221 220.136C328.93 220.627 329.555 221.226 330.122 221.907C330.661 222.589 331.371 223.515 332.165 224.687C332.96 225.858 333.499 226.621 333.868 227.03C334.18 227.439 334.634 227.847 335.145 228.202C335.684 228.556 336.223 228.883 336.819 229.155C335.259 229.346 334.152 229.482 333.471 229.482C332.705 229.482 332.109 229.401 331.711 229.292C331.286 229.183 330.803 228.774 330.236 228.147C329.668 227.493 329.129 226.758 328.59 225.967L326.859 223.243C326.377 222.507 325.979 222.016 325.667 221.689C325.327 221.39 324.929 221.144 324.419 220.954C323.908 220.736 323.34 220.681 322.716 220.681V227.711C322.716 228.447 323 228.992 323.539 229.346H318.147C318.686 228.937 318.97 228.42 318.97 227.738V212.452C318.97 211.553 318.686 210.926 318.147 210.599H323.51L323.539 210.654ZM268.118 210.654C268.658 211.008 268.941 211.608 268.941 212.48V227.82C268.941 228.447 268.658 228.965 268.118 229.373H273.51C272.971 228.91 272.659 228.311 272.659 227.575V220.708C273.425 220.708 274.049 220.817 274.532 221.117C275.042 221.39 275.525 221.935 276.036 222.779C277.142 224.55 278.05 225.94 278.788 227.003C279.554 228.011 280.093 228.665 280.434 228.937C280.775 229.183 281.087 229.373 281.399 229.428C281.739 229.51 282.165 229.564 282.733 229.564C283.726 229.564 284.946 229.428 286.336 229.237C284.861 228.692 283.414 227.384 281.995 225.313C280.519 223.106 279.356 221.635 278.561 220.926C277.767 220.218 276.915 219.864 276.064 219.864C277.823 219.537 279.185 218.992 280.179 218.174C281.143 217.384 281.654 216.403 281.654 215.259C281.654 213.842 281.058 212.725 279.81 211.935C278.561 211.117 276.944 210.736 274.9 210.736H268.062L268.118 210.654ZM273.51 212.316C273.226 212.316 272.942 212.316 272.659 212.398V219.046C272.971 219.101 273.283 219.128 273.595 219.128C274.73 219.128 275.723 218.774 276.518 218.12C277.341 217.466 277.738 216.594 277.738 215.531C277.738 214.469 277.369 213.706 276.603 213.134C275.837 212.589 274.787 212.316 273.51 212.316ZM469.652 212.425C470.986 212.425 471.837 212.507 472.235 212.779L471.979 210.627H459.295C459.862 211.008 460.118 211.608 460.118 212.507V227.548C460.118 228.065 460.089 228.42 459.919 228.665C459.806 228.91 459.579 229.128 459.323 229.346H472.887L473.228 226.73C472.178 227.302 470.589 227.575 468.404 227.575C466.219 227.575 464.658 227.493 463.835 227.384V220.272H468.404C469.709 220.272 470.561 220.436 471.015 220.736L470.646 218.365C469.709 218.529 467.467 218.61 463.864 218.61V212.398H469.681L469.652 212.425ZM450.044 227.493C450.044 228.365 450.328 228.992 450.895 229.373H445.504C446.043 229.019 446.326 228.42 446.326 227.575V212.67H441.389C440.424 212.67 439.63 212.834 439.09 213.161L439.942 210.681H453.307L457.337 210.49C456.968 211.09 456.514 211.608 455.918 212.071C455.322 212.534 454.84 212.752 454.442 212.752L450.044 212.643V227.493ZM427.995 210.654C428.222 210.681 428.392 210.817 428.534 211.035C428.676 211.253 428.761 211.444 428.761 211.608C428.761 211.826 428.648 212.207 428.392 212.779L422.291 227.711C421.979 228.501 421.525 229.074 421.043 229.373H424.59C424.334 229.21 424.192 229.019 424.192 228.774C424.192 228.583 424.249 228.338 424.363 228.065L426.292 223.352C427.314 223.27 428.562 223.243 430.038 223.243C431.514 223.243 432.762 223.27 433.727 223.352L435.373 227.112C435.77 228.038 435.997 228.61 435.997 228.801C435.997 229.074 435.855 229.264 435.572 229.373H440.736C440.254 229.183 439.8 228.61 439.374 227.711L432.081 210.654H427.938H427.995ZM427.03 221.608C427.938 221.662 428.875 221.717 429.981 221.717C431.088 221.717 432.166 221.689 433.018 221.608L429.981 214.414L427.03 221.608ZM402.03 210.627C401.746 210.817 401.633 211.035 401.633 211.308C401.633 211.662 401.803 212.262 402.172 213.188L406.116 223.542L410.912 210.763L416.077 223.352L419.624 212.779C419.907 211.989 420.049 211.471 420.049 211.199C420.049 210.981 419.964 210.79 419.766 210.599H423.228C422.603 210.926 422.149 211.635 421.809 212.643L416.247 229.346H414.8L410.259 218.365L406.116 229.346H404.641L398.227 212.616C397.83 211.58 397.319 210.899 396.723 210.599H402.001L402.03 210.627ZM350.582 227.711C350.582 228.42 350.866 228.965 351.405 229.373H347.574C348.142 228.965 348.397 228.42 348.397 227.684V212.48C348.397 212.016 348.34 211.662 348.227 211.39C348.113 211.144 347.915 210.899 347.574 210.627H351.235L362.33 223.515V212.18C362.33 211.608 362.075 211.09 361.536 210.627H365.338C364.799 210.954 364.515 211.526 364.515 212.289V229.373H362.983L350.582 214.986V227.738V227.711ZM338.777 210.627C339.316 211.035 339.572 211.635 339.572 212.425V227.657C339.572 228.365 339.316 228.937 338.806 229.373H344.112C343.545 228.965 343.261 228.42 343.261 227.711V212.452C343.261 211.608 343.545 211.008 344.112 210.627H338.777ZM300.156 227.711C300.156 228.42 300.44 228.965 300.979 229.373H297.148C297.687 228.965 297.971 228.42 297.971 227.684V212.48C297.971 212.016 297.943 211.662 297.801 211.39C297.687 211.144 297.46 210.899 297.148 210.627H300.78L311.904 223.515V212.18C311.904 211.608 311.62 211.09 311.11 210.627H314.884C314.316 210.954 314.061 211.526 314.061 212.289V229.373H312.528L300.128 214.986V227.738L300.156 227.711ZM288.351 210.627C288.89 211.035 289.146 211.635 289.146 212.425V227.657C289.146 228.365 288.89 228.937 288.38 229.373H293.714C293.147 228.965 292.863 228.42 292.863 227.711V212.452C292.863 211.608 293.147 211.008 293.714 210.627H288.38H288.351ZM246.665 210.627C247.204 210.981 247.488 211.58 247.488 212.452V227.657C247.488 228.392 247.233 228.965 246.694 229.319H255.405C258.271 229.319 260.57 228.501 262.358 226.866C264.146 225.232 264.997 223.052 264.997 220.327C264.997 217.33 263.975 214.959 261.875 213.215C259.775 211.499 257.051 210.627 253.731 210.627H246.637H246.665ZM253.022 212.289C252.312 212.289 251.688 212.316 251.206 212.425V227.466C252.199 227.629 253.504 227.711 255.093 227.711C256.995 227.711 258.442 227.003 259.492 225.586C260.513 224.196 261.024 222.371 261.024 220.163C261.024 217.738 260.315 215.804 258.924 214.414C257.505 212.997 255.519 212.289 253.05 212.289M218.175 210.627C218.742 210.981 218.998 211.58 218.998 212.452V227.657C218.998 228.392 218.742 228.965 218.203 229.319H226.915C229.781 229.319 232.108 228.501 233.896 226.866C235.683 225.232 236.563 223.052 236.563 220.327C236.563 217.33 235.513 214.959 233.442 213.215C231.342 211.499 228.646 210.627 225.297 210.627H218.203H218.175ZM224.559 212.289C223.85 212.289 223.254 212.316 222.743 212.425V227.466C223.737 227.629 225.014 227.711 226.631 227.711C228.504 227.711 229.951 227.003 231.001 225.586C232.051 224.196 232.562 222.371 232.562 220.163C232.562 217.738 231.824 215.804 230.405 214.414C229.015 212.997 227.057 212.289 224.559 212.289ZM212.017 212.398C213.351 212.398 214.202 212.48 214.628 212.752L214.344 210.599H201.631C202.198 210.981 202.482 211.58 202.482 212.48V227.52C202.482 228.038 202.397 228.392 202.283 228.638C202.142 228.883 201.915 229.101 201.659 229.319H215.223L215.536 226.703C214.514 227.275 212.896 227.548 210.74 227.548C208.583 227.548 206.994 227.466 206.171 227.357V220.245H210.74C212.045 220.245 212.925 220.409 213.351 220.708L213.01 218.338C212.074 218.501 209.803 218.583 206.2 218.583V212.371H212.017V212.398ZM190.252 210.627C189.712 210.981 189.457 211.58 189.457 212.452V227.439C190.337 227.548 191.302 227.602 192.408 227.602C194.48 227.602 195.955 227.52 196.92 227.33C197.885 227.166 198.651 226.975 199.162 226.73L198.68 229.373H184.973C185.484 228.937 185.74 228.365 185.74 227.602V212.452C185.74 212.044 185.683 211.689 185.569 211.417C185.484 211.144 185.229 210.899 184.888 210.654H190.252V210.627ZM180.093 212.725C180.461 212.725 180.972 212.507 181.54 212.044C182.107 211.58 182.59 211.063 182.959 210.463L178.901 210.654H165.564L164.684 213.134C165.28 212.807 166.046 212.643 167.011 212.643H171.948V227.548C171.948 228.42 171.693 228.992 171.125 229.346H176.545C175.95 228.965 175.666 228.338 175.666 227.466V212.616L180.064 212.725H180.093ZM156.965 227.466C156.965 228.338 157.221 228.965 157.817 229.346H152.425C152.964 228.992 153.248 228.392 153.248 227.548V212.643H148.339C147.345 212.643 146.579 212.807 146.012 213.134L146.835 210.654H160.2L164.23 210.463C163.889 211.063 163.407 211.58 162.811 212.044C162.215 212.507 161.733 212.725 161.364 212.725L156.994 212.616V227.466H156.965ZM106 210.599C106.568 210.926 106.851 211.526 106.851 212.425V227.548C106.851 228.42 106.596 229.019 106.028 229.346H114.57C116.868 229.346 118.685 228.883 119.99 227.956C121.295 227.03 121.948 225.695 121.948 223.896C121.948 222.643 121.38 221.608 120.217 220.817C119.025 220.027 117.351 219.591 115.052 219.455C116.67 219.183 117.918 218.665 118.883 217.902C119.791 217.139 120.245 216.267 120.245 215.232C120.245 213.733 119.649 212.589 118.429 211.826C117.209 211.035 115.535 210.627 113.378 210.627H106V210.599ZM110.569 220.49V227.548C111.278 227.629 112.243 227.711 113.463 227.711C114.769 227.711 115.79 227.384 116.613 226.785C117.436 226.158 117.833 225.286 117.833 224.169C117.833 222.943 117.351 222.044 116.414 221.39C115.478 220.763 113.917 220.436 111.732 220.436L110.569 220.49ZM110.569 212.343V218.774H111.335C112.782 218.774 114.002 218.501 115.024 217.956C116.045 217.411 116.528 216.594 116.528 215.559C116.528 214.523 116.187 213.706 115.45 213.161C114.74 212.589 113.435 212.316 111.562 212.316H110.597L110.569 212.343Z" fill="#005FAA"/>
<path fill-rule="evenodd" clip-rule="evenodd" d="M387.492 158.447C385.215 158.447 384.105 160.635 384.105 165.012C384.105 167.747 384.446 169.618 385.072 170.683C385.699 171.749 386.61 172.296 387.777 172.296C389.172 172.296 390.424 171.633 391.478 170.28C391.534 169.388 391.563 168.121 391.563 166.48C391.563 164.09 391.221 162.132 390.51 160.664C389.826 159.167 388.802 158.447 387.492 158.447ZM380.689 180.962C381.827 182.66 383.336 183.495 385.243 183.495C386.866 183.495 388.261 182.545 389.371 180.674C390.51 178.802 391.164 176.413 391.335 173.534C389.912 174.455 388.574 174.887 387.236 174.887C384.56 174.887 382.454 174.081 380.916 172.44C379.379 170.798 378.582 168.582 378.582 165.76C378.582 162.939 379.408 160.722 381.059 158.85C382.71 156.979 384.759 156.029 387.236 156.029C390.339 156.029 392.758 157.209 394.438 159.599C396.146 161.988 397 165.213 397 169.215C397 174.426 395.947 178.543 393.812 181.509C391.648 184.503 388.631 186 384.645 186C383.365 186 382.112 185.712 380.916 185.165L380.689 180.904V180.962ZM347.383 158.447C345.105 158.447 343.995 160.635 343.995 165.012C343.995 167.747 344.308 169.618 344.963 170.683C345.589 171.749 346.5 172.296 347.667 172.296C349.062 172.296 350.315 171.633 351.368 170.28C351.425 169.388 351.453 168.121 351.453 166.48C351.453 164.09 351.112 162.132 350.429 160.664C349.745 159.167 348.749 158.447 347.383 158.447ZM340.579 180.962C341.718 182.66 343.255 183.495 345.134 183.495C346.756 183.495 348.123 182.545 349.261 180.674C350.4 178.802 351.055 176.413 351.226 173.534C349.802 174.455 348.436 174.887 347.126 174.887C344.479 174.887 342.373 174.081 340.807 172.44C339.241 170.798 338.473 168.582 338.473 165.76C338.473 162.939 339.298 160.722 340.978 158.85C342.629 156.979 344.678 156.029 347.126 156.029C350.258 156.029 352.649 157.209 354.329 159.599C356.065 161.988 356.891 165.213 356.891 169.215C356.891 174.426 355.837 178.543 353.702 181.509C351.567 184.503 348.493 186 344.536 186C343.255 186 342.003 185.712 340.778 185.165L340.551 180.904L340.579 180.962ZM203.028 178.226C204.224 180.012 205.534 181.307 206.9 182.142C208.266 182.948 209.889 183.351 211.739 183.351C213.39 183.351 214.7 182.977 215.696 182.2C216.692 181.48 217.176 180.415 217.176 179.004C217.176 178.14 216.835 177.248 216.123 176.269C215.44 175.319 213.76 173.85 211.056 171.893C209.519 170.741 208.238 169.762 207.298 168.956C206.359 168.121 205.534 167.228 204.879 166.221C204.224 165.213 203.911 164.119 203.911 162.939C203.911 161.499 204.338 160.261 205.135 159.225C205.961 158.159 207.099 157.382 208.608 156.835C210.117 156.259 211.739 156 213.476 156C214.586 156 215.81 156.115 217.205 156.345C218.6 156.576 219.71 156.921 220.479 157.296L220.877 161.873C220.08 160.894 219.027 160.117 217.746 159.541C216.465 158.965 215.098 158.706 213.732 158.706C212.366 158.706 211.198 158.965 210.373 159.512C209.547 160.06 209.12 160.837 209.12 161.873C209.12 162.622 209.433 163.428 210.06 164.234C210.658 165.069 212.195 166.307 214.671 167.948C216.294 169.042 217.575 169.964 218.571 170.77C219.568 171.605 220.422 172.555 221.133 173.649C221.845 174.743 222.215 176.01 222.215 177.334C222.215 179.09 221.788 180.616 220.934 181.941C220.052 183.236 218.827 184.244 217.262 184.935C215.668 185.626 213.931 186 211.995 186C210.971 186 209.804 185.914 208.494 185.712C207.213 185.511 206.046 185.194 204.993 184.762C203.968 184.301 203.399 183.783 203.228 183.179C203.085 182.574 203 181.653 203 180.357C203 179.695 203 178.946 203.085 178.198M278.892 158.591C280.315 158.591 281.71 158.937 283.077 159.599C284.443 160.261 285.61 161.154 286.55 162.334L286.009 157.008C283.703 156.317 281.312 156 278.835 156C274.195 156 270.494 157.497 267.705 160.491C264.915 163.514 263.52 167.228 263.52 171.691C263.52 176.154 264.858 179.407 267.534 182.027C270.21 184.676 273.654 185.971 277.867 185.971C281.397 185.971 284.244 185.424 286.379 184.33C287.033 182.631 287.347 181.048 287.347 179.551L287.29 178.342C284.927 181.624 282.28 183.294 279.404 183.294C276.245 183.294 273.768 182.027 272.003 179.551C270.21 177.017 269.327 174.052 269.327 170.568C269.327 166.595 270.124 163.63 271.747 161.614C273.369 159.599 275.732 158.591 278.864 158.591M366.484 161.298C362.584 161.298 360.107 161.902 358.997 163.169L359.68 156.921H377.301L368.249 181.365C367.822 182.488 367.622 183.38 367.622 184.042C367.622 184.56 367.765 184.935 368.021 185.136H363.267L372.433 161.326H366.484V161.298ZM328.481 156.893C327.655 157.785 325.35 159.57 321.535 162.276V165.645C321.763 165.328 322.019 165.069 322.361 164.868L326.09 162.852V182.574C326.09 183.754 325.72 184.589 324.923 185.079H332.324C331.555 184.474 331.157 183.61 331.157 182.516V156.893H328.452H328.481ZM304.227 159.57C306.106 159.57 307.33 159.743 307.928 160.059L307.529 156.893H289.368C290.165 157.44 290.535 158.39 290.535 159.714V182.372C290.535 183.121 290.449 183.697 290.279 184.071C290.079 184.445 289.795 184.762 289.396 185.107H308.81L309.266 181.163C307.786 182.027 305.508 182.459 302.377 182.459C299.246 182.459 297.025 182.372 295.858 182.171V171.461H302.377C304.227 171.461 305.48 171.691 306.078 172.152L305.565 168.582C304.227 168.812 300.982 168.956 295.858 168.985V159.599H304.199L304.227 159.57ZM239.864 163.428C239.836 176.182 239.836 182.574 239.864 182.603C239.864 183.697 240.263 184.532 241.031 185.107H235.566C236.363 184.474 236.761 183.639 236.761 182.574V159.656C236.761 158.965 236.676 158.418 236.505 158.015C236.334 157.641 236.021 157.267 235.566 156.921H240.775L256.66 176.326V159.225C256.66 158.332 256.261 157.555 255.492 156.921H260.93C260.133 157.44 259.762 158.217 259.762 159.369V185.107H257.599L239.864 163.428ZM224.805 156.921C225.574 157.526 225.944 158.418 225.944 159.599V182.545C225.944 183.61 225.574 184.445 224.834 185.107H232.434C231.637 184.474 231.239 183.668 231.239 182.603V159.628C231.239 158.39 231.637 157.468 232.434 156.921H224.805Z" fill="#005FAA"/>
<path fill-rule="evenodd" clip-rule="evenodd" d="M314.876 113.802C359.577 104.501 404.192 95.172 442 107.555C413.523 93.0428 386.777 88 361.392 88C332.008 88 304.467 94.7798 278.288 101.588C235.29 112.738 195.922 123.888 158 104.921C201.282 137.42 258.15 125.625 314.848 113.802" fill="#C9A600"/>
<path fill-rule="evenodd" clip-rule="evenodd" d="M376 109C307.527 121.49 270.734 140.977 224 132.592C287.559 155.057 330.666 127.417 376 109Z" fill="#C9A600"/>
<path fill-rule="evenodd" clip-rule="evenodd" d="M519.997 84.3056C523.578 89.4825 527.414 93.2602 531.477 95.6388C535.569 97.9894 540.343 99.1927 545.856 99.1927C550.8 99.1927 554.75 98.1013 557.649 95.9466C560.547 93.7919 562.025 90.6858 562.025 86.6562C562.025 84.1377 561.002 81.4793 558.984 78.6809C556.938 75.8826 551.909 71.6571 543.924 66.0045C539.292 62.7025 535.569 59.8762 532.756 57.5256C529.915 55.175 527.528 52.4886 525.567 49.5783C523.606 46.6121 522.64 43.478 522.64 40.12C522.64 35.9505 523.862 32.3406 526.277 29.3184C528.693 26.2962 532.131 24.0016 536.592 22.4066C541.025 20.8115 545.856 20 551.085 20C554.324 20 558.018 20.3638 562.167 21.0913C566.316 21.7909 569.583 22.7424 571.942 23.8617L573.107 37.0418C570.748 34.2155 567.651 31.9768 563.815 30.3258C559.95 28.6748 555.972 27.8353 551.852 27.8353C547.731 27.8353 544.322 28.6468 541.821 30.2139C539.32 31.781 538.098 34.0756 538.098 37.0698C538.098 39.2805 539.008 41.6031 540.855 43.9537C542.673 46.3602 547.277 49.9421 554.608 54.6993C559.41 57.8054 563.303 60.5478 566.259 62.8984C569.242 65.249 571.743 68.0473 573.846 71.2654C575.949 74.4555 577 78.0093 577 81.955C577 87.0759 575.721 91.4973 573.164 95.275C570.606 99.0527 566.969 101.935 562.28 103.978C557.592 105.993 552.392 107 546.652 107C543.583 107 540.088 106.72 536.195 106.133C532.33 105.545 528.863 104.621 525.794 103.334C522.725 102.047 520.992 100.536 520.537 98.8009C520.083 97.038 519.855 94.3236 519.855 90.6298C519.855 88.615 519.94 86.5442 520.083 84.3615M496.923 30.3818C502.55 30.3818 506.216 30.8855 507.92 31.8929L506.755 22.6584H452.765C455.123 24.2255 456.288 26.9399 456.288 30.8015V96.4503C456.288 98.633 455.976 100.256 455.436 101.319C454.896 102.411 454.015 103.418 452.85 104.342H487.518L495.616 104.286H497.066H498.458H499.822C502.038 104.286 504.084 104.09 506.017 103.306C509.086 102.019 510.847 100.508 511.274 98.7729C511.728 97.01 511.956 94.2956 511.956 90.6018C511.956 88.587 511.87 86.5162 511.728 84.3335C508.148 89.5105 504.511 93.7079 500.248 95.6668C496.781 97.2338 491.354 96.5902 485.87 96.5902C478.538 96.5063 475.753 96.2824 472.088 95.8906V64.8572H491.496C497.009 64.8572 500.703 65.5008 502.55 66.844L500.987 56.4902C496.98 57.1618 487.347 57.5536 472.059 57.6375V30.3538H496.867L496.923 30.3818ZM139.364 77.1978L168.291 22.6304H183.181C180.766 24.0856 179.573 26.772 179.573 30.6616V97.0659C179.573 97.9894 179.658 98.8569 179.885 99.6684C174.77 98.2692 169.599 96.4223 164.313 94.0437V49.3265L136.835 100.452L105.947 48.7948V96.8701C105.947 100.06 107.083 102.523 109.413 104.314H93.2446C95.5178 102.607 96.6545 100.256 96.6545 97.2898V30.018C96.6545 26.66 95.4894 24.1975 93.1309 22.6304H107.112L139.392 77.1978H139.364ZM67.1586 30.3538C72.785 30.3538 76.4222 30.8575 78.1272 31.8649L76.9621 22.6304H23C25.3585 24.1975 26.5236 26.9119 26.5236 30.7736V96.4503C26.5236 98.633 26.2678 100.256 25.6995 101.319C25.1596 102.411 24.3071 103.418 23.1137 104.342H57.7529L65.8799 104.286H67.3291H68.7215H70.0855C72.3019 104.286 74.3479 104.09 76.2517 103.306C79.3207 102.019 81.0541 100.508 81.5087 98.7729C81.935 97.01 82.1623 94.2956 82.1623 90.6018C82.1623 88.587 82.077 86.5162 81.9634 84.3335C78.3545 89.5105 74.7457 93.7079 70.4549 95.6668C66.9881 97.2338 61.589 96.5902 56.0763 96.5902C48.745 96.5063 45.9602 96.2824 42.3229 95.8906V64.8572H61.7311C67.2438 64.8572 70.9095 65.5008 72.785 66.844L71.2505 56.4902C67.2723 57.1618 57.6108 57.5536 42.3514 57.6375V30.3538H67.1586ZM198.1 22.6304C200.373 24.3934 201.51 26.9678 201.51 30.3538V96.8701C201.51 99.1927 200.885 101.207 199.634 102.83C206.028 103.166 212.393 102.914 218.758 102.215C217.764 100.788 217.252 99.0807 217.252 97.0659V30.4378C217.252 26.7999 218.417 24.1975 220.833 22.6304H198.1ZM254.847 94.6034C249.476 96.0865 244.162 97.4857 238.934 98.689C238.962 98.2972 238.991 97.9334 238.991 97.5137V30.5497C238.991 26.8559 237.826 24.1975 235.495 22.6304H264.565C273.204 22.6304 280.137 24.3934 285.423 27.9193C290.68 31.4452 293.322 36.2863 293.322 42.4146C293.322 47.4236 291.219 51.6491 287.014 55.147C282.837 58.6449 277.011 61.0794 269.566 62.5346C273.232 62.5346 276.784 64.0737 280.194 67.2078C283.32 70.0621 287.696 75.6867 293.237 84.0257C287.81 85.3409 282.524 86.7961 277.352 88.2512C274.965 84.6414 272.323 80.3879 269.367 75.4628C267.179 71.825 265.048 69.3905 262.917 68.2152C260.786 67.0399 258.086 66.4522 254.847 66.4522V94.6314V94.6034ZM258.427 29.8781C257.205 29.8781 256.012 29.99 254.847 30.2699V59.3165C256.154 59.5124 257.49 59.6243 258.854 59.6243C263.684 59.6243 267.805 58.1692 271.328 55.2589C274.823 52.3487 276.557 48.5709 276.557 43.9817C276.557 39.3924 274.937 36.0064 271.612 33.5439C268.316 31.1094 263.912 29.8781 258.427 29.8781ZM432.135 31.753C433.783 31.753 435.829 30.7456 438.358 28.7588C440.859 26.744 442.876 24.4773 444.411 21.9029C435.63 22.4066 429.918 22.6584 427.247 22.6584H370.443L366.806 33.5439C369.222 32.1447 372.518 31.4452 376.667 31.4452H397.609V81.5912C402.781 82.7945 408.066 84.2216 413.465 85.9006V31.4172L432.135 31.753ZM343.533 76.3023C345.267 76.2464 347.029 76.1904 348.79 76.1904H354.161C355.951 76.1904 357.77 76.2744 359.617 76.3303L337.168 22.6304H319.664C320.63 22.7983 321.397 23.386 321.966 24.3374C322.534 25.3168 322.818 26.1563 322.818 26.9119C322.818 27.8073 322.335 29.4863 321.34 31.9489L301.392 82.0389C304.774 81.2834 308.212 80.5838 311.707 79.9402L328.018 39.0846L343.562 76.3023H343.533Z" fill="#005FAA"/>
</svg>
