<svg width="600" height="250" viewBox="0 0 600 250" fill="none" xmlns="http://www.w3.org/2000/svg">
<g clip-path="url(#clip0_382_124)">
<path d="M281.7 107.569H247.883V48.7627H281.7V58.9747H260.332V71.9356H280.237V82.1472H260.332V97.2863H281.7V107.569Z" fill="black"/>
<path d="M345.729 61.7949C350.831 61.7949 354.683 63.1161 357.287 65.7227C359.893 68.3289 361.209 72.5065 361.209 78.2906V107.605H348.94V81.3257C348.94 74.8633 346.693 71.6138 342.198 71.6138C338.952 71.6138 336.669 72.7564 335.278 75.0773C333.922 77.3983 333.209 80.7186 333.209 85.039V107.605H320.938V81.3257C320.938 74.8633 318.69 71.6138 314.196 71.6138C310.807 71.6138 308.453 72.8992 307.169 75.4346C305.885 78.0054 305.243 81.6471 305.243 86.4314V107.605H292.971V62.6519H302.353L303.994 68.4364H304.636C306.027 66.1154 307.882 64.4373 310.272 63.4018C312.662 62.3662 315.159 61.8307 317.727 61.8307C321.009 61.8307 323.827 62.3662 326.11 63.4376C328.429 64.5085 330.177 66.1512 331.39 68.4364H332.46C333.816 66.1154 335.741 64.4373 338.167 63.4018C340.593 62.3662 343.126 61.8307 345.694 61.8307" fill="black"/>
<path d="M379.938 44.9785C381.756 44.9785 383.328 45.407 384.648 46.2639C385.969 47.1208 386.61 48.6919 386.61 51.0124C386.61 53.3334 385.969 54.8332 384.648 55.6901C383.328 56.5824 381.756 57.0109 379.938 57.0109C378.12 57.0109 376.516 56.5824 375.195 55.6901C373.912 54.7974 373.266 53.2622 373.266 51.0124C373.266 48.7631 373.912 47.1208 375.195 46.2639C376.479 45.407 378.046 44.9785 379.938 44.9785ZM386.038 107.57H373.768V62.6168H386.038V107.57Z" fill="black"/>
<path d="M423.957 61.7966C424.561 61.7966 425.277 61.7966 426.096 61.8677C426.919 61.9394 427.598 62.0106 428.058 62.1176L427.165 73.6508C426.775 73.5433 426.203 73.4363 425.491 73.3651C424.743 73.2935 424.101 73.2223 423.566 73.2223C421.497 73.2223 419.498 73.5791 417.573 74.3291C415.643 75.079 414.113 76.2569 412.932 77.8996C411.756 79.5418 411.151 81.7911 411.151 84.6476V107.535H398.881V62.5819H408.19L410.008 70.1514H410.58C411.9 67.8304 413.718 65.8668 416.001 64.2245C418.321 62.5819 420.962 61.7607 423.994 61.7607" fill="black"/>
<path d="M453.032 61.7246C459.058 61.7246 463.693 63.0454 466.906 65.652C470.115 68.2586 471.723 72.2576 471.723 77.649V107.642H463.159L460.769 101.536H460.448C458.523 103.964 456.491 105.713 454.347 106.82C452.209 107.927 449.284 108.463 445.536 108.463C441.542 108.463 438.227 107.284 435.586 104.964C432.945 102.643 431.624 99.0364 431.624 94.2163C431.624 89.3962 433.303 85.8969 436.655 83.6475C440.008 81.3624 445.002 80.1128 451.711 79.8983L459.523 79.6485V77.6848C459.523 75.328 458.914 73.5788 457.667 72.5074C456.417 71.4007 454.705 70.8652 452.529 70.8652C450.353 70.8652 448.177 71.1862 446.108 71.7933C444.039 72.4004 441.937 73.2215 439.868 74.1501L435.837 65.8306C438.259 64.5811 440.938 63.5813 443.862 62.8672C446.787 62.1531 449.856 61.7958 453.032 61.7958M454.743 87.0041C450.781 87.1111 448.033 87.8252 446.503 89.1464C444.969 90.4671 444.183 92.181 444.183 94.3233C444.183 96.18 444.718 97.5371 445.825 98.3223C446.931 99.1081 448.359 99.5007 450.102 99.5007C452.743 99.5007 454.957 98.7154 456.775 97.1444C458.593 95.5734 459.485 93.3594 459.485 90.503V86.7896L454.706 86.9682L454.743 87.0041Z" fill="black"/>
<path d="M503.183 98.607C504.541 98.607 505.857 98.4642 507.145 98.2144C508.391 97.9287 509.674 97.6073 510.925 97.2146V106.355C509.605 106.891 507.963 107.391 506.038 107.783C504.076 108.212 501.97 108.391 499.654 108.391C496.976 108.391 494.549 107.962 492.447 107.069C490.341 106.212 488.667 104.677 487.416 102.499C486.17 100.321 485.561 97.3216 485.561 93.4654V71.7923H479.712V66.6149L486.454 62.5089L489.988 53.0469H497.799V62.6159H510.391V71.8282H497.799V93.5013C497.799 95.2151 498.297 96.4647 499.259 97.3216C500.259 98.1786 501.542 98.607 503.114 98.607" fill="black"/>
<path d="M538.498 61.7949C544.706 61.7949 549.592 63.5804 553.233 67.1152C556.832 70.6499 558.655 75.6844 558.655 82.2184V88.1453H529.687C529.794 91.6088 530.831 94.3224 532.793 96.2861C534.718 98.2503 537.429 99.25 540.888 99.25C543.813 99.25 546.417 98.9644 548.774 98.3931C551.127 97.8218 553.587 96.9291 556.083 95.7148V105.177C553.875 106.284 551.555 107.069 549.127 107.605C546.705 108.105 543.743 108.391 540.284 108.391C535.787 108.391 531.793 107.534 528.366 105.891C524.907 104.213 522.196 101.678 520.234 98.2856C518.272 94.8937 517.272 90.6091 517.272 85.4317C517.272 80.2547 518.165 75.7915 519.95 72.2926C521.731 68.7932 524.228 66.1866 527.404 64.4374C530.58 62.6877 534.29 61.7949 538.498 61.7949ZM538.568 70.507C536.215 70.507 534.253 71.2928 532.686 72.828C531.114 74.3632 530.189 76.7554 529.938 80.0045H547.133C547.058 77.2555 546.347 75.0057 544.989 73.2206C543.636 71.4356 541.497 70.5429 538.568 70.5429" fill="black"/>
<path d="M599.958 94.2513C599.958 98.8216 598.354 102.32 595.146 104.748C591.933 107.176 587.153 108.426 580.806 108.426C577.668 108.426 574.989 108.212 572.744 107.819C570.493 107.391 568.247 106.748 566.001 105.784V95.6437C568.429 96.7504 571.032 97.6432 573.813 98.3573C576.593 99.0714 579.09 99.4282 581.234 99.4282C583.656 99.4282 585.372 99.0714 586.367 98.3573C587.367 97.6432 587.902 96.7146 587.902 95.572C587.902 94.8226 587.688 94.1085 587.297 93.5013C586.869 92.8942 585.977 92.2159 584.624 91.4302C583.229 90.6449 581.127 89.681 578.202 88.4668C575.417 87.253 573.102 86.0746 571.279 84.8962C569.461 83.7178 568.14 82.2896 567.248 80.6116C566.359 78.9335 565.932 76.827 565.932 74.3274C565.932 70.1502 567.536 67.0081 570.781 64.937C574.027 62.8663 578.309 61.7949 583.694 61.7949C586.474 61.7949 589.152 62.0806 591.686 62.616C594.216 63.152 596.82 64.0801 599.498 65.3296L595.788 74.1492C593.574 73.2207 591.505 72.4354 589.543 71.7924C587.581 71.15 585.586 70.8643 583.549 70.8643C579.913 70.8643 578.128 71.8641 578.128 73.8278C578.128 74.5419 578.379 75.1843 578.844 75.7556C579.304 76.3269 580.197 76.934 581.555 77.6123C582.908 78.2552 584.87 79.1475 587.511 80.2547C590.078 81.2899 592.328 82.3971 594.183 83.5038C596.034 84.6464 597.499 86.0388 598.498 87.7168C599.498 89.3953 600.033 91.573 600.033 94.2513" fill="black"/>
<path d="M296.61 157.95C296.61 167.876 293.792 175.374 288.192 180.409C282.555 185.443 274.672 187.942 264.541 187.942H247.918V129.136H266.361C272.496 129.136 277.847 130.242 282.377 132.421C286.907 134.599 290.403 137.848 292.9 142.097C295.397 146.346 296.646 151.63 296.646 157.95M283.732 158.271C283.732 151.737 282.305 146.953 279.452 143.918C276.598 140.883 272.46 139.347 267.038 139.347H260.368V177.659H265.718C277.739 177.659 283.732 171.197 283.732 158.307" fill="black"/>
<path d="M332.888 142.169C333.494 142.169 334.207 142.169 335.028 142.241C335.848 142.312 336.526 142.384 336.99 142.491L336.098 154.023C335.706 153.916 335.135 153.809 334.421 153.738C333.672 153.667 333.03 153.595 332.495 153.595C330.426 153.595 328.429 153.952 326.502 154.702C324.576 155.452 323.043 156.63 321.865 158.272C320.688 159.915 320.082 162.164 320.082 165.021V187.908H307.811V142.955H317.121L318.94 150.524H319.511C320.831 148.203 322.65 146.24 324.933 144.597C327.251 142.955 329.891 142.134 332.923 142.134" fill="black"/>
<path d="M351.331 125.351C353.15 125.351 354.719 125.779 356.004 126.636C357.323 127.493 357.963 129.064 357.963 131.385C357.963 133.706 357.323 135.205 356.004 136.098C354.684 136.991 353.114 137.419 351.331 137.419C349.547 137.419 347.87 136.991 346.586 136.098C345.302 135.205 344.66 133.67 344.66 131.385C344.66 129.1 345.302 127.493 346.586 126.636C347.87 125.779 349.44 125.351 351.331 125.351ZM357.43 187.942H345.16V142.989H357.43V187.942Z" fill="black"/>
<path d="M380.938 187.942L363.817 142.989H376.655L385.29 168.59C385.787 170.125 386.183 171.732 386.503 173.374C386.787 175.017 386.964 176.517 387.038 177.802H387.359C387.536 174.839 388.108 171.768 389.177 168.59L397.812 142.989H410.649L393.529 187.942H380.938Z" fill="black"/>
<path d="M423.246 125.351C425.064 125.351 426.631 125.779 427.951 126.636C429.272 127.493 429.913 129.064 429.913 131.385C429.913 133.706 429.272 135.205 427.951 136.098C426.631 136.991 425.064 137.419 423.246 137.419C421.423 137.419 419.782 136.991 418.498 136.098C417.215 135.205 416.573 133.67 416.573 131.385C416.573 129.1 417.215 127.493 418.498 126.636C419.782 125.779 421.353 125.351 423.246 125.351ZM429.341 187.942H417.071V142.989H429.341V187.942Z" fill="black"/>
<path d="M467.655 142.167C472.472 142.167 476.359 143.488 479.247 146.094C482.139 148.701 483.599 152.879 483.599 158.663V187.977H471.328V161.698C471.328 158.449 470.761 156.021 469.617 154.414C468.478 152.807 466.623 151.986 464.089 151.986C460.341 151.986 457.811 153.271 456.454 155.806C455.063 158.377 454.385 162.019 454.385 166.804V187.977H442.114V143.024H451.497L453.138 148.808H453.78C455.208 146.487 457.17 144.809 459.667 143.773C462.164 142.738 464.8 142.202 467.618 142.202" fill="black"/>
<path d="M510.781 142.167C516.31 142.167 520.662 144.345 523.768 148.772H524.089L525.088 142.988H535.429V188.048C535.429 194.475 533.541 199.367 529.761 202.723C525.976 206.079 520.378 207.758 512.957 207.758C509.781 207.758 506.824 207.579 504.113 207.186C501.403 206.794 498.762 206.115 496.158 205.116V195.332C501.686 197.653 507.536 198.796 513.673 198.796C519.806 198.796 523.126 195.404 523.126 188.584V187.691C523.126 186.763 523.159 185.799 523.233 184.799C523.303 183.799 523.373 182.942 523.447 182.157H523.126C521.592 184.513 519.736 186.227 517.598 187.263C515.454 188.298 513.032 188.834 510.353 188.834C505.039 188.834 500.863 186.799 497.906 182.693C494.907 178.587 493.41 172.909 493.41 165.59C493.41 158.27 494.944 152.486 498.013 148.38C501.082 144.273 505.29 142.202 510.674 142.202M514.529 152.165C508.749 152.165 505.894 156.699 505.894 165.768C505.894 174.837 508.819 179.193 514.705 179.193C517.844 179.193 520.164 178.301 521.661 176.515C523.159 174.73 523.907 171.624 523.907 167.161V165.661C523.907 160.841 523.159 157.377 521.699 155.271C520.234 153.2 517.844 152.129 514.529 152.129" fill="black"/>
<mask id="mask0_382_124" style="mask-type:luminance" maskUnits="userSpaceOnUse" x="0" y="18" width="214" height="215">
<path d="M72.4147 201.831C82.1531 201.831 92.355 200.938 102.664 199.153C120.179 196.118 143.329 189.548 167.8 175.552C139.334 201.331 91.3205 223.54 53.7586 218.684C42.8076 217.255 34.9956 213.328 31.785 207.651C29.8944 204.294 29.0384 199.939 29.2165 194.654C41.2379 199.367 56.1128 201.831 72.3436 201.831M60.5719 123.315C99.6319 66.8287 147.111 33.6587 172.901 30.9809C182.675 29.9454 191.593 33.9086 196.801 41.5498C201.902 49.0477 202.401 58.4381 198.157 66.7217C186.956 88.4306 136.231 116.138 93.7462 123.743C86.9688 124.957 80.833 125.564 75.4468 125.564C69.4184 125.564 64.3888 124.814 60.6077 123.315M171.617 18.2698C134.09 22.1972 84.7216 67.4358 52.3316 112.889C50.6908 100.249 60.358 76.7551 85.114 47.9051L76.4456 38.6575C21.9039 79.8613 1.21446 123.922 0.0729573 151.45C-0.533366 165.554 3.64022 176.98 12.0585 184.585C13.5213 185.906 15.1622 187.156 16.9459 188.37C15.6258 198.653 16.9101 207.222 20.6912 213.935C26.0063 223.361 36.8862 229.36 52.1177 231.359C55.685 231.823 59.4662 232.038 63.4612 232.038C98.0626 232.038 147.824 214.72 182.782 178.801C192.235 169.089 200.725 157.842 207.93 145.417L198.085 137.525C162.699 170.196 125.458 182.229 100.453 186.549C71.8442 191.512 43.6994 188.834 27.0409 179.551C24.5435 178.123 22.3679 176.623 20.5843 175.052C13.6283 168.803 12.5226 159.056 12.8076 151.95C13.6641 131.848 25.8278 107.676 45.7681 84.5033C45.0548 86.1455 44.3769 87.7523 43.8064 89.3234C35.4234 111.425 40.6315 123.136 46.446 129.063C46.7315 129.349 47.0523 129.67 47.302 129.885C47.3378 129.885 47.3736 129.956 47.409 129.992C58.8598 140.346 80.1556 139.132 96.0293 136.276C138.05 128.742 195.018 100.713 209.536 72.5416C215.993 60.0449 215.172 45.7269 207.396 34.3012C200.297 23.911 188.811 18.0195 176.04 18.0195C174.613 18.0195 173.115 18.0912 171.653 18.234" fill="white"/>
</mask>
<g mask="url(#mask0_382_124)">
<path d="M216.064 18.0566H-0.461182V232.039H216.064V18.0566Z" fill="url(#paint0_linear_382_124)"/>
</g>
</g>
<defs>
<linearGradient id="paint0_linear_382_124" x1="1.05091" y1="125.778" x2="214.901" y2="125.778" gradientUnits="userSpaceOnUse">
<stop stop-color="#EF6721"/>
<stop offset="0.23" stop-color="#EC6021"/>
<stop offset="0.54" stop-color="#E74F22"/>
<stop offset="0.89" stop-color="#DD3225"/>
<stop offset="1" stop-color="#DA2826"/>
</linearGradient>
<clipPath id="clip0_382_124">
<rect width="600" height="214" fill="white" transform="translate(0 18)"/>
</clipPath>
</defs>
</svg>
