<svg width="600" height="250" viewBox="0 0 600 250" fill="none" xmlns="http://www.w3.org/2000/svg">
<path d="M7.60769 97.2135C3.72715 101.196 1.78687 106.107 1.78687 111.682V158.938H64.2639V148.319H12.0057V128.408H64.1345V117.788H12.0057V111.55C12.0057 108.762 12.9111 106.505 14.8514 104.514C16.7917 102.523 19.12 101.594 21.707 101.594H64.1345V90.9746H21.8363C16.2743 91.1074 11.4883 93.0985 7.60769 97.2135Z" fill="#315679"/>
<path d="M123.637 117.921H81.7267V91.1074H71.5081V158.939H81.7267V128.408H123.637V158.939H133.856V91.1074H123.637V117.921Z" fill="#315679"/>
<path d="M153.258 103.585C154.422 102.391 155.845 101.727 157.527 101.727H203.576V91.1074H157.527C153.129 91.1074 149.248 92.7003 146.015 96.0189C142.781 99.3374 141.229 103.32 141.229 107.833V111.682C141.229 116.328 142.781 120.311 146.015 123.497C149.248 126.682 153.129 128.408 157.527 128.408H187.277C188.959 128.408 190.381 128.939 191.546 130.266C192.711 131.461 193.358 132.921 193.358 134.647V142.346C193.358 144.071 192.841 145.532 191.546 146.726C190.381 147.921 188.959 148.585 187.277 148.585H141.229V159.204H187.277C191.675 159.204 195.557 157.611 198.79 154.293C202.024 150.974 203.576 146.992 203.576 142.479V134.78C203.576 130.134 202.024 126.151 198.79 122.966C195.557 119.78 191.675 118.054 187.277 118.054H157.527C155.845 118.054 154.422 117.523 153.258 116.196C152.094 115.001 151.447 113.541 151.447 111.815V107.966C151.577 106.107 152.094 104.78 153.258 103.585Z" fill="#315679"/>
<path d="M220.91 90.4434H218.323V156.947H220.91V90.4434Z" fill="#315679"/>
<path d="M250.272 109.16C250.272 109.691 250.142 109.957 250.013 110.089C249.884 110.222 249.496 110.222 249.108 110.222H248.073C247.297 110.222 246.65 110.089 246.004 109.824C245.486 109.559 244.969 109.16 244.71 108.629H242.123C239.924 108.629 238.243 108.231 237.208 107.302C236.174 106.373 235.656 105.178 235.656 103.452C235.656 101.461 236.303 100.001 237.467 99.0719C238.631 98.1427 240.313 97.7445 242.511 97.7445C242.77 97.7445 243.029 97.7445 243.417 97.7445C243.805 97.7445 244.193 97.7445 244.581 97.8772C244.969 97.8772 245.357 97.8772 245.745 98.01C246.133 98.01 246.392 98.1427 246.65 98.1427V105.842C246.65 106.505 246.78 107.036 247.038 107.435C247.297 107.833 247.814 108.098 248.59 108.098H249.237C249.625 108.098 249.884 108.098 250.013 108.231C250.142 108.497 250.272 108.762 250.272 109.16ZM238.114 103.32C238.114 104.514 238.502 105.444 239.278 105.975C240.054 106.505 241.218 106.771 242.641 106.771H244.322V99.8683C243.934 99.8683 243.417 99.7356 243.158 99.7356C242.77 99.7356 242.511 99.7356 242.511 99.7356C241.218 99.7356 240.183 100.001 239.407 100.532C238.502 101.196 238.114 102.125 238.114 103.32ZM238.372 94.2932C238.372 93.895 238.502 93.4967 238.76 93.2312C239.019 92.9658 239.407 92.833 239.795 92.833C240.183 92.833 240.571 92.9658 240.83 93.2312C241.089 93.4967 241.218 93.895 241.218 94.2932C241.218 94.6914 241.089 95.0896 240.83 95.3551C240.571 95.6206 240.183 95.7533 239.795 95.7533C239.407 95.7533 239.019 95.6206 238.76 95.3551C238.502 95.0896 238.372 94.6914 238.372 94.2932ZM241.994 94.2932C241.994 93.895 242.123 93.4967 242.382 93.2312C242.641 92.9658 243.029 92.833 243.417 92.833C243.805 92.833 244.193 92.9658 244.451 93.2312C244.71 93.4967 244.839 93.895 244.839 94.2932C244.839 94.6914 244.71 95.0896 244.451 95.3551C244.193 95.6206 243.805 95.7533 243.417 95.7533C243.029 95.7533 242.641 95.6206 242.382 95.3551C242.123 95.0896 241.994 94.6914 241.994 94.2932Z" fill="#315679"/>
<path d="M249.237 110.222C248.849 110.222 248.59 110.089 248.461 109.957C248.332 109.824 248.202 109.558 248.202 109.16C248.202 108.629 248.332 108.364 248.461 108.364C248.59 108.231 248.978 108.231 249.366 108.231H251.307C252.083 108.231 252.6 108.098 252.729 107.7C252.988 107.302 253.117 106.771 253.117 105.974V98.1426H255.446V107.302C255.446 107.435 255.446 107.567 255.575 107.7C255.704 107.833 255.834 107.966 256.092 107.966C256.222 108.098 256.48 108.098 256.739 108.098C256.998 108.098 257.127 108.098 257.386 108.098H258.162C258.55 108.098 258.808 108.098 258.94 108.231C259.069 108.364 259.198 108.629 259.198 109.028C259.198 109.558 259.069 109.824 258.94 109.957C258.808 110.089 258.42 110.089 258.032 110.089H257.515C256.998 110.089 256.48 109.957 256.092 109.824C255.704 109.691 255.316 109.293 255.057 108.895C254.799 109.16 254.54 109.426 254.023 109.691C253.505 109.957 252.859 110.089 251.824 110.089H249.237V110.222ZM250.66 113.806C250.66 113.408 250.789 113.01 251.048 112.744C251.307 112.479 251.695 112.346 252.083 112.346C252.471 112.346 252.859 112.479 253.117 112.744C253.376 113.01 253.505 113.408 253.505 113.806C253.505 114.204 253.376 114.603 253.117 114.868C252.859 115.133 252.471 115.266 252.083 115.266C251.695 115.266 251.307 115.133 251.048 114.868C250.789 114.603 250.66 114.204 250.66 113.806ZM254.281 113.806C254.281 113.408 254.411 113.01 254.669 112.744C254.928 112.479 255.316 112.346 255.704 112.346C256.092 112.346 256.48 112.479 256.739 112.744C256.998 113.01 257.127 113.408 257.127 113.806C257.127 114.204 256.998 114.603 256.739 114.868C256.48 115.133 256.092 115.266 255.704 115.266C255.316 115.266 254.928 115.133 254.669 114.868C254.411 114.603 254.281 114.204 254.281 113.806Z" fill="#315679"/>
<path d="M267.088 108.231C266.829 107.7 266.571 107.169 266.441 106.638C266.312 105.974 266.183 105.443 266.183 104.779C266.053 104.116 266.053 103.585 265.924 102.921C265.795 102.39 265.665 101.859 265.407 101.328C265.148 100.797 264.76 100.532 264.372 100.266C263.854 100.001 263.337 99.868 262.561 99.868C261.785 99.868 261.268 99.868 260.75 100.001C260.233 100.133 259.845 100.266 259.586 100.266V98.4079C259.974 98.2751 260.362 98.1424 261.009 98.0096C261.656 97.8769 262.302 97.7441 263.078 97.7441C264.242 97.7441 265.277 97.8769 265.924 98.2751C266.7 98.6733 267.217 99.2043 267.605 99.7353C267.993 100.399 268.252 101.063 268.381 101.859C268.511 102.656 268.64 103.452 268.769 104.116C268.899 104.912 269.028 105.576 269.157 106.24C269.287 106.903 269.545 107.434 269.933 107.965H271.615C272.003 107.965 272.262 107.965 272.391 108.098C272.52 108.231 272.65 108.496 272.65 108.894C272.65 109.425 272.52 109.691 272.391 109.824C272.262 109.956 271.874 109.956 271.486 109.956H258.163C257.387 109.956 256.998 109.558 256.998 108.762C256.998 108.363 257.129 108.231 257.258 108.098C257.387 107.965 257.775 107.965 258.163 107.965H267.088V108.231Z" fill="#315679"/>
<path d="M277.178 99.2044C277.566 99.0717 278.084 98.939 278.73 98.939C279.377 98.8062 280.024 98.6735 280.671 98.5407C281.317 98.408 281.964 98.408 282.611 98.2752C283.257 98.1425 283.904 98.1425 284.421 98.1425C285.974 98.1425 287.267 98.2752 288.172 98.6735C289.207 99.0717 289.983 99.4699 290.501 100.134C291.018 100.797 291.406 101.461 291.665 102.39C291.923 103.319 291.923 104.249 291.923 105.311V107.302C291.923 107.434 292.053 107.567 292.182 107.7C292.311 107.833 292.441 107.965 292.699 107.965C292.829 108.098 293.087 108.098 293.346 108.098C293.605 108.098 293.734 108.098 293.993 108.098H294.51C294.898 108.098 295.157 108.098 295.286 108.231C295.416 108.364 295.545 108.629 295.545 109.027C295.545 109.558 295.416 109.824 295.286 109.957C295.157 110.089 294.769 110.089 294.381 110.089H294.122C293.605 110.089 293.087 109.957 292.699 109.824C292.311 109.691 291.923 109.293 291.665 108.895C291.406 109.16 291.147 109.426 290.63 109.691C290.112 109.957 289.466 110.089 288.431 110.089H271.227C270.839 110.089 270.58 109.957 270.451 109.824C270.321 109.691 270.192 109.426 270.192 109.027C270.192 108.496 270.321 108.231 270.451 108.231C270.58 108.098 270.968 108.098 271.356 108.098H274.978V98.0098H277.308V99.2044H277.178ZM289.724 105.709C289.724 104.78 289.595 103.85 289.466 103.187C289.336 102.523 288.948 101.859 288.56 101.461C288.172 100.93 287.526 100.665 286.75 100.399C285.974 100.134 285.068 100.001 283.904 100.001C283.387 100.001 282.74 100.001 282.223 100.134C281.576 100.134 281.059 100.266 280.412 100.399C279.765 100.532 279.248 100.532 278.73 100.665C278.213 100.797 277.696 100.93 277.308 100.93V108.231H288.043C288.819 108.231 289.336 108.098 289.466 107.7C289.724 107.302 289.854 106.771 289.854 105.974V105.709H289.724Z" fill="#315679"/>
<path d="M294.51 110.223C294.122 110.223 293.864 110.09 293.734 109.957C293.605 109.824 293.476 109.559 293.476 109.161C293.476 108.63 293.605 108.364 293.734 108.364C293.864 108.231 294.252 108.231 294.64 108.231H298.132V89.6475H300.462V110.223H294.51Z" fill="#315679"/>
<path d="M306.67 89.6475V110.223H304.342V89.6475H306.67Z" fill="#315679"/>
<path d="M336.032 108.231V98.1426H338.361V110.222H319.865C318.701 110.222 317.666 109.957 317.017 109.293C316.241 108.629 315.983 107.7 315.983 106.24V100.665H318.313V105.974C318.313 106.638 318.442 107.169 318.701 107.567C318.959 107.966 319.477 108.231 320.253 108.231H336.032ZM324.004 96.0188C324.004 95.6205 324.133 95.2223 324.392 94.9568C324.65 94.6913 325.038 94.5586 325.426 94.5586C325.814 94.5586 326.202 94.6913 326.461 94.9568C326.72 95.2223 326.849 95.6205 326.849 96.0188C326.849 96.417 326.72 96.8152 326.461 97.0807C326.202 97.3462 325.814 97.4789 325.426 97.4789C325.038 97.4789 324.65 97.3462 324.392 97.0807C324.262 96.8152 324.004 96.417 324.004 96.0188ZM327.625 96.0188C327.625 95.6205 327.755 95.2223 328.013 94.9568C328.272 94.6913 328.66 94.5586 329.048 94.5586C329.436 94.5586 329.824 94.6913 330.083 94.9568C330.341 95.2223 330.471 95.6205 330.471 96.0188C330.471 96.417 330.341 96.8152 330.083 97.0807C329.824 97.3462 329.436 97.4789 329.048 97.4789C328.66 97.4789 328.272 97.3462 328.013 97.0807C327.755 96.8152 327.625 96.417 327.625 96.0188Z" fill="#315679"/>
<path d="M348.192 109.161C348.192 109.692 348.063 109.957 347.933 110.09C347.804 110.223 347.416 110.223 347.028 110.223H345.993C344.827 110.223 343.793 109.957 343.146 109.293C342.37 108.63 342.111 107.7 342.111 106.24V89.6475H344.439V105.975C344.439 106.771 344.569 107.302 344.827 107.7C345.086 108.099 345.604 108.231 346.381 108.231H347.157C347.545 108.231 347.804 108.231 348.063 108.364C348.063 108.497 348.192 108.762 348.192 109.161Z" fill="#315679"/>
<path d="M351.038 108.231C350.779 107.7 350.52 107.036 350.391 106.24C350.132 105.443 350.003 104.514 350.003 103.585C350.003 102.788 350.132 102.125 350.391 101.328C350.65 100.665 351.038 100.001 351.555 99.4699C352.073 98.9389 352.719 98.5407 353.366 98.2752C354.142 98.0097 354.918 97.877 355.953 97.877C356.987 97.877 357.893 98.0097 358.669 98.4079C359.445 98.8061 359.962 99.2044 360.48 99.8681C360.868 100.399 361.258 101.063 361.387 101.859C361.646 102.523 361.646 103.319 361.646 103.983C361.646 104.78 361.516 105.576 361.258 106.372C360.997 107.169 360.609 107.833 360.221 108.363C359.704 108.894 359.186 109.425 358.54 109.824C357.893 110.222 356.987 110.355 356.082 110.355H347.158C346.77 110.355 346.511 110.222 346.381 110.089C346.252 109.957 346.123 109.691 346.123 109.293C346.123 108.762 346.252 108.496 346.381 108.496C346.511 108.364 346.899 108.363 347.287 108.363H351.038V108.231ZM355.694 108.231C356.341 108.231 356.858 108.098 357.246 107.833C357.634 107.567 358.022 107.302 358.281 106.771C358.54 106.372 358.798 105.841 358.928 105.311C359.057 104.78 359.057 104.249 359.057 103.718C359.057 102.523 358.798 101.461 358.152 100.797C357.634 100.001 356.729 99.6026 355.694 99.6026C355.306 99.6026 354.789 99.7353 354.401 99.8681C354.013 100.001 353.625 100.266 353.366 100.532C353.107 100.797 352.849 101.196 352.59 101.726C352.331 102.257 352.331 102.788 352.331 103.452C352.331 103.983 352.331 104.381 352.461 104.912C352.59 105.311 352.59 105.841 352.719 106.24C352.849 106.638 352.978 107.036 353.107 107.302C353.237 107.567 353.366 107.965 353.495 108.098H355.694V108.231Z" fill="#315679"/>
<path d="M373.157 105.178C373.157 104.382 373.157 103.718 373.027 103.187C372.898 102.523 372.769 101.992 372.381 101.594C371.993 101.196 371.475 100.797 370.699 100.532C369.923 100.267 369.018 100.134 367.724 100.134H365.526V98.2754H367.854C369.406 98.2754 370.699 98.4081 371.734 98.8064C372.769 99.0719 373.545 99.6028 374.062 100.134C374.58 100.665 374.968 101.328 375.226 102.125C375.485 102.921 375.485 103.851 375.485 104.78V107.435C375.485 107.567 375.614 107.7 375.744 107.833C375.873 107.966 376.002 108.098 376.261 108.098C376.52 108.231 376.649 108.231 376.908 108.231C377.166 108.231 377.296 108.231 377.554 108.231H378.072C378.46 108.231 378.718 108.231 378.848 108.364C378.977 108.497 379.107 108.762 379.107 109.16C379.107 109.691 378.977 109.957 378.848 110.089C378.718 110.222 378.33 110.222 377.942 110.222H377.684C377.166 110.222 376.649 110.089 376.261 109.957C375.873 109.824 375.485 109.426 375.226 109.028C374.968 109.293 374.709 109.558 374.192 109.824C373.674 110.089 373.027 110.222 371.993 110.222H363.844V108.231H371.475C372.251 108.231 372.769 108.098 372.898 107.7C373.157 107.302 373.286 106.771 373.286 105.974V105.178H373.157Z" fill="#315679"/>
<path d="M387.126 108.231C386.867 107.7 386.608 107.169 386.479 106.638C386.35 105.974 386.22 105.444 386.22 104.78C386.091 104.116 386.091 103.585 385.962 102.921C385.832 102.39 385.703 101.859 385.444 101.329C385.186 100.798 384.798 100.532 384.41 100.267C384.022 100.001 383.375 99.8683 382.599 99.8683C381.823 99.8683 381.305 99.8683 380.788 100.001C380.271 100.134 379.883 100.267 379.624 100.267V98.4082C380.012 98.2754 380.4 98.1427 381.047 98.01C381.693 97.8772 382.34 97.7445 383.116 97.7445C384.28 97.7445 385.315 97.8772 385.962 98.2754C386.738 98.6736 387.255 99.2046 387.643 99.7356C388.031 100.399 388.29 101.063 388.419 101.859C388.548 102.656 388.678 103.452 388.807 104.116C388.937 104.913 389.066 105.576 389.195 106.24C389.325 106.904 389.583 107.435 389.971 107.966H391.653C392.041 107.966 392.299 107.966 392.429 108.098C392.558 108.231 392.687 108.497 392.687 108.895C392.687 109.426 392.558 109.691 392.429 109.824C392.299 109.957 391.911 109.957 391.523 109.957H378.201C377.425 109.957 377.037 109.558 377.037 108.762C377.037 108.364 377.166 108.231 377.296 108.098C377.425 107.966 377.813 107.966 378.201 107.966H387.126V108.231ZM381.435 94.2932C381.435 93.895 381.564 93.4967 381.823 93.2312C382.081 92.9658 382.469 92.833 382.857 92.833C383.245 92.833 383.634 92.9658 383.892 93.2312C384.151 93.4967 384.28 93.895 384.28 94.2932C384.28 94.6914 384.151 95.0896 383.892 95.3551C383.634 95.6206 383.245 95.7533 382.857 95.7533C382.469 95.7533 382.081 95.6206 381.823 95.3551C381.564 95.0896 381.435 94.6914 381.435 94.2932Z" fill="#315679"/>
<path d="M391.266 110.223C390.878 110.223 390.62 110.09 390.49 109.957C390.361 109.824 390.232 109.559 390.232 109.161C390.232 108.63 390.361 108.364 390.49 108.364C390.62 108.231 391.008 108.231 391.396 108.231H393.336C394.112 108.231 394.629 108.099 394.759 107.7C395.017 107.302 395.147 106.771 395.147 105.975V89.6475H397.475V107.302C397.475 107.435 397.604 107.568 397.733 107.7C397.863 107.833 397.992 107.966 398.251 107.966C398.51 108.099 398.639 108.099 398.898 108.099C399.156 108.099 399.286 108.099 399.544 108.099H400.32C400.708 108.099 400.967 108.099 401.096 108.231C401.226 108.364 401.355 108.63 401.355 109.028C401.355 109.559 401.226 109.824 401.096 109.957C400.967 110.09 400.579 110.09 400.191 110.09H399.415C398.898 110.09 398.38 109.957 397.992 109.824C397.604 109.692 397.216 109.293 396.957 108.895C396.699 109.161 396.44 109.426 395.923 109.692C395.405 109.957 394.759 110.09 393.724 110.09H391.266V110.223Z" fill="#315679"/>
<path d="M399.932 110.223C399.544 110.223 399.286 110.09 399.156 109.957C399.027 109.824 398.898 109.559 398.898 109.161C398.898 108.63 399.027 108.364 399.156 108.364C399.286 108.231 399.674 108.231 400.062 108.231H403.554V89.6475H405.882V110.223H399.932Z" fill="#315679"/>
<path d="M434.987 108.231V98.1426H437.316V110.222H418.818C417.654 110.222 416.619 109.957 415.972 109.293C415.196 108.629 414.938 107.7 414.938 106.24V100.665H417.266V105.974C417.266 106.638 417.395 107.169 417.654 107.567C417.913 107.966 418.43 108.231 419.206 108.231H434.987ZM422.957 96.0188C422.957 95.6205 423.086 95.2223 423.345 94.9568C423.604 94.6913 423.992 94.5586 424.38 94.5586C424.768 94.5586 425.156 94.6913 425.414 94.9568C425.673 95.2223 425.802 95.6205 425.802 96.0188C425.802 96.417 425.673 96.8152 425.414 97.0807C425.156 97.3462 424.768 97.4789 424.38 97.4789C423.992 97.4789 423.604 97.3462 423.345 97.0807C423.086 96.8152 422.957 96.417 422.957 96.0188ZM426.578 96.0188C426.578 95.6205 426.708 95.2223 426.966 94.9568C427.225 94.6913 427.615 94.5586 428.003 94.5586C428.391 94.5586 428.779 94.6913 429.038 94.9568C429.296 95.2223 429.426 95.6205 429.426 96.0188C429.426 96.417 429.296 96.8152 429.038 97.0807C428.779 97.3462 428.391 97.4789 428.003 97.4789C427.615 97.4789 427.225 97.3462 426.966 97.0807C426.708 96.8152 426.578 96.417 426.578 96.0188Z" fill="#315679"/>
<path d="M443.395 89.6475V110.223H441.066V89.6475H443.395Z" fill="#315679"/>
<path d="M449.217 98.1426H451.545V109.691C451.545 110.488 451.416 111.284 451.286 111.948C451.157 112.611 450.898 113.142 450.51 113.673C450.122 114.204 449.605 114.603 448.958 114.868C448.311 115.133 447.404 115.266 446.369 115.266H445.852V113.275H446.111C447.275 113.275 448.053 113.01 448.441 112.479C448.829 111.948 449.087 111.018 449.087 109.824V98.1426H449.217Z" fill="#315679"/>
<path d="M461.375 109.161C461.375 109.692 461.245 109.957 461.116 110.09C460.987 110.223 460.599 110.223 460.209 110.223H459.174C458.01 110.223 456.975 109.957 456.329 109.293C455.553 108.63 455.294 107.7 455.294 106.24V89.6475H457.622V105.975C457.622 106.771 457.751 107.302 458.01 107.7C458.269 108.099 458.786 108.231 459.562 108.231H460.338C460.728 108.231 460.987 108.231 461.245 108.364C461.245 108.497 461.375 108.762 461.375 109.161Z" fill="#315679"/>
<path d="M464.091 108.231C463.832 107.7 463.574 107.036 463.444 106.24C463.186 105.443 463.056 104.514 463.056 103.585C463.056 102.788 463.186 102.125 463.444 101.328C463.703 100.665 464.091 100.001 464.608 99.4699C465.126 98.9389 465.772 98.5407 466.419 98.2752C467.195 98.0097 467.971 97.877 469.006 97.877C470.041 97.877 470.946 98.0097 471.722 98.4079C472.5 98.8061 473.017 99.2044 473.535 99.8681C473.923 100.399 474.311 101.063 474.44 101.859C474.699 102.523 474.699 103.319 474.699 103.983C474.699 104.78 474.569 105.576 474.311 106.372C474.052 107.169 473.664 107.833 473.276 108.363C472.759 108.894 472.239 109.425 471.593 109.824C470.946 110.222 470.041 110.355 469.135 110.355H460.211C459.823 110.355 459.564 110.222 459.435 110.089C459.305 109.957 459.176 109.691 459.176 109.293C459.176 108.762 459.305 108.496 459.435 108.496C459.564 108.364 459.952 108.363 460.34 108.363H464.091V108.231ZM468.877 108.231C469.523 108.231 470.041 108.098 470.429 107.833C470.817 107.567 471.205 107.302 471.463 106.771C471.722 106.372 471.981 105.841 472.112 105.311C472.241 104.78 472.24 104.249 472.24 103.718C472.24 102.523 471.981 101.461 471.334 100.797C470.817 100.001 469.911 99.6026 468.877 99.6026C468.489 99.6026 467.971 99.7353 467.583 99.8681C467.195 100.001 466.807 100.266 466.548 100.532C466.29 100.797 466.031 101.196 465.772 101.726C465.514 102.257 465.514 102.788 465.514 103.452C465.514 103.983 465.514 104.381 465.643 104.912C465.772 105.311 465.772 105.841 465.902 106.24C466.031 106.638 466.16 107.036 466.29 107.302C466.419 107.567 466.548 107.965 466.678 108.098H468.877V108.231Z" fill="#315679"/>
<path d="M477.156 110.223V108.231H482.847V94.5589H485.175V108.231H490.22V89.6475H492.548V110.223H477.156ZM486.728 117.922H481.036V116.594H482.33C482.201 116.063 482.071 115.798 482.071 115.532C482.071 115.267 481.942 115.001 481.942 114.869C481.942 114.072 482.201 113.541 482.718 113.01C483.235 112.479 484.011 112.214 485.046 112.214C485.175 112.214 485.434 112.214 485.693 112.214C485.951 112.214 486.21 112.214 486.339 112.214V113.541C486.21 113.541 486.081 113.541 485.951 113.541C485.822 113.541 485.693 113.541 485.563 113.541C484.917 113.541 484.399 113.674 484.011 113.939C483.623 114.205 483.494 114.603 483.494 115.134C483.494 115.267 483.494 115.532 483.623 115.798C483.623 116.063 483.753 116.329 483.882 116.727H486.857V117.922H486.728Z" fill="#315679"/>
<path d="M499.017 89.6475V110.223H496.688V89.6475H499.017Z" fill="#315679"/>
<path d="M522.817 109.16C522.817 109.691 522.688 109.957 522.559 110.089C522.429 110.222 522.041 110.222 521.653 110.222H520.489C519.713 110.222 519.066 110.089 518.42 109.824C517.902 109.559 517.385 109.16 517.126 108.629H514.538C512.339 108.629 510.657 108.231 509.623 107.302C508.588 106.373 508.071 105.178 508.071 103.452C508.071 101.461 508.717 100.001 509.881 99.0719C511.045 98.1427 512.727 97.7445 514.926 97.7445C515.184 97.7445 515.443 97.7445 515.831 97.7445C516.221 97.7445 516.609 97.7445 516.997 97.8772C517.385 97.8772 517.773 97.8772 518.161 98.01C518.549 98.01 518.808 98.1427 519.066 98.1427V105.842C519.066 106.505 519.196 107.036 519.454 107.435C519.713 107.833 520.23 108.098 521.007 108.098H521.653C522.041 108.098 522.3 108.098 522.429 108.231C522.688 108.497 522.817 108.762 522.817 109.16ZM510.657 103.32C510.657 104.514 511.045 105.444 511.821 105.975C512.598 106.505 513.762 106.771 515.184 106.771H516.868V99.8683C516.48 99.8683 515.96 99.7356 515.702 99.7356C515.314 99.7356 515.055 99.7356 515.055 99.7356C513.762 99.7356 512.727 100.001 511.951 100.532C511.045 101.196 510.657 102.125 510.657 103.32ZM510.916 94.2932C510.916 93.895 511.045 93.4967 511.304 93.2312C511.563 92.9658 511.951 92.833 512.339 92.833C512.727 92.833 513.115 92.9658 513.374 93.2312C513.632 93.4967 513.762 93.895 513.762 94.2932C513.762 94.6914 513.632 95.0896 513.374 95.3551C513.115 95.6206 512.727 95.7533 512.339 95.7533C511.951 95.7533 511.563 95.6206 511.304 95.3551C511.045 95.0896 510.916 94.6914 510.916 94.2932ZM514.538 94.2932C514.538 93.895 514.667 93.4967 514.926 93.2312C515.184 92.9658 515.572 92.833 515.962 92.833C516.35 92.833 516.738 92.9658 516.997 93.2312C517.256 93.4967 517.385 93.895 517.385 94.2932C517.385 94.6914 517.256 95.0896 516.997 95.3551C516.738 95.6206 516.35 95.7533 515.962 95.7533C515.572 95.7533 515.184 95.6206 514.926 95.3551C514.667 95.0896 514.538 94.6914 514.538 94.2932Z" fill="#315679"/>
<path d="M521.783 110.222C521.395 110.222 521.136 110.089 521.007 109.957C520.877 109.824 520.748 109.558 520.748 109.16C520.748 108.629 520.877 108.364 521.007 108.364C521.136 108.231 521.524 108.231 521.912 108.231H526.439V100.665H528.767V108.231H533.682V100.665H536.01V108.231H538.987C539.763 108.231 540.28 108.098 540.41 107.7C540.668 107.302 540.798 106.771 540.798 105.974V98.1426H543.126V107.302C543.126 107.435 543.255 107.567 543.385 107.7C543.514 107.833 543.643 107.966 543.902 107.966C544.161 108.098 544.29 108.098 544.549 108.098C544.807 108.098 544.937 108.098 545.195 108.098H545.971C546.359 108.098 546.618 108.098 546.747 108.231C546.877 108.364 547.006 108.629 547.006 109.028C547.006 109.558 546.877 109.824 546.747 109.957C546.618 110.089 546.23 110.089 545.842 110.089H545.325C544.807 110.089 544.29 109.957 543.902 109.824C543.514 109.691 543.126 109.293 542.867 108.895C542.609 109.16 542.35 109.426 541.832 109.691C541.315 109.957 540.668 110.089 539.634 110.089H521.783V110.222Z" fill="#315679"/>
<path d="M545.712 110.222C545.324 110.222 545.066 110.089 544.936 109.957C544.807 109.824 544.678 109.558 544.678 109.16C544.678 108.629 544.807 108.364 544.936 108.364C545.066 108.231 545.454 108.231 545.842 108.231H550.757V100.665H553.085V108.231H558V100.665H560.328V108.231H565.115V98.1426H567.444V110.222H545.712Z" fill="#315679"/>
<path d="M581.154 110.222C581.154 111.019 581.025 111.682 580.766 112.346C580.507 113.01 580.249 113.541 579.861 113.939C579.473 114.337 578.826 114.736 578.179 114.868C577.532 115.134 576.627 115.267 575.592 115.267H572.229V113.408H575.592C576.756 113.408 577.532 113.143 578.05 112.744C578.567 112.213 578.826 111.417 578.826 110.355H577.144C575.722 110.355 574.558 110.09 573.652 109.691C572.747 109.293 572.1 108.762 571.583 108.231C571.065 107.567 570.807 106.904 570.548 106.24C570.419 105.576 570.289 104.913 570.289 104.249C570.289 103.32 570.419 102.523 570.677 101.727C570.936 100.93 571.453 100.267 571.971 99.7356C572.488 99.2046 573.393 98.8064 574.299 98.4082C575.204 98.1427 576.368 98.01 577.662 98.01C578.179 98.01 578.697 98.01 579.343 98.1427C579.99 98.1427 580.507 98.2754 581.025 98.2754V108.231H583.611C584 108.231 584.258 108.231 584.387 108.364C584.517 108.497 584.648 108.762 584.648 109.16C584.648 109.691 584.517 109.957 584.387 110.09C584.258 110.222 583.87 110.222 583.482 110.222H581.154ZM572.617 104.116C572.617 104.913 572.747 105.576 573.005 105.974C573.264 106.505 573.523 106.904 573.911 107.302C574.299 107.567 574.816 107.833 575.334 107.966C575.851 108.098 576.498 108.231 577.274 108.231H578.696V99.8683C578.567 99.8683 578.438 99.8683 578.179 99.8683C578.05 99.8683 577.791 99.8683 577.662 99.8683C577.144 99.8683 576.498 99.8683 575.98 100.001C575.334 100.134 574.816 100.267 574.299 100.532C573.782 100.798 573.393 101.328 573.005 101.859C572.876 102.258 572.617 103.054 572.617 104.116ZM579.731 95.7533H573.135V94.2932H574.687C574.428 93.7622 574.299 93.2312 574.299 92.9657C574.299 92.7003 574.17 92.302 574.17 92.0365C574.17 91.2401 574.428 90.4436 575.075 89.9127C575.722 89.3817 576.627 89.1162 577.791 89.1162C577.92 89.1162 578.179 89.1162 578.438 89.1162C578.697 89.1162 578.955 89.1162 579.085 89.1162V90.4436C578.955 90.4436 578.826 90.4436 578.567 90.4436C578.308 90.4436 578.179 90.4436 578.05 90.4436C577.274 90.4436 576.627 90.5764 576.239 90.7091C575.851 90.9746 575.592 91.3728 575.592 92.1693C575.592 92.4348 575.592 92.7003 575.722 92.9657C575.722 93.2312 575.851 93.6295 576.11 94.1604H579.473V95.7533H579.731Z" fill="#315679"/>
<path d="M587.623 108.231C587.364 107.7 587.105 107.036 586.976 106.24C586.717 105.443 586.588 104.514 586.588 103.585C586.588 102.788 586.717 102.125 586.976 101.328C587.235 100.665 587.623 100.001 588.14 99.4699C588.657 98.9389 589.304 98.5407 589.951 98.2752C590.727 98.0097 591.503 97.877 592.538 97.877C593.572 97.877 594.478 98.0097 595.254 98.4079C596.03 98.8061 596.547 99.2044 597.065 99.8681C597.453 100.399 597.841 101.063 597.97 101.859C598.229 102.523 598.229 103.319 598.229 103.983C598.229 104.78 598.099 105.576 597.841 106.372C597.582 107.169 597.194 107.833 596.806 108.363C596.289 108.894 595.771 109.425 595.125 109.824C594.478 110.222 593.572 110.355 592.667 110.355H583.743C583.355 110.355 583.096 110.222 582.966 110.089C582.837 109.957 582.708 109.691 582.708 109.293C582.708 108.762 582.837 108.496 582.966 108.496C583.096 108.364 583.484 108.363 583.872 108.363H587.623V108.231ZM592.408 108.231C593.055 108.231 593.572 108.098 593.96 107.833C594.348 107.567 594.736 107.302 594.995 106.771C595.254 106.372 595.513 105.841 595.642 105.311C595.771 104.78 595.771 104.249 595.771 103.718C595.771 102.523 595.513 101.461 594.866 100.797C594.348 100.001 593.443 99.6026 592.408 99.6026C592.02 99.6026 591.503 99.7353 591.115 99.8681C590.727 100.001 590.339 100.266 590.08 100.532C589.822 100.797 589.563 101.196 589.304 101.726C589.045 102.257 589.046 102.788 589.046 103.452C589.046 103.983 589.045 104.381 589.175 104.912C589.304 105.311 589.304 105.841 589.434 106.24C589.563 106.638 589.692 107.036 589.822 107.302C589.951 107.567 590.08 107.965 590.21 108.098H592.408V108.231Z" fill="#315679"/>
<path d="M236.948 158.54V137.434H249.755V139.557H239.664V146.593H249.367V148.717H239.664V156.416H250.143V158.54H236.948Z" fill="#315679"/>
<path d="M274.331 158.54V149.779C274.331 149.115 274.331 148.584 274.202 148.053C274.072 147.522 273.943 147.124 273.684 146.726C273.426 146.328 273.038 146.062 272.65 145.797C272.262 145.531 271.615 145.398 270.968 145.398C270.192 145.398 269.675 145.531 269.157 145.797C268.64 146.062 268.252 146.328 267.993 146.859C267.735 147.257 267.476 147.788 267.347 148.319C267.217 148.85 267.217 149.513 267.217 150.177V158.407H264.76V149.912C264.76 149.248 264.76 148.717 264.63 148.186C264.501 147.655 264.372 147.124 264.113 146.726C263.854 146.328 263.596 146.062 263.078 145.797C262.69 145.531 262.044 145.398 261.397 145.398C260.75 145.398 260.103 145.531 259.715 145.797C259.198 146.062 258.81 146.46 258.551 146.859C258.293 147.257 258.034 147.788 257.905 148.452C257.775 148.982 257.646 149.646 257.646 150.177V158.407H255.187V148.717C255.187 146.991 255.187 145.398 255.057 143.673H257.517L257.646 146.062C258.681 144.336 260.233 143.407 262.173 143.407C263.337 143.407 264.242 143.673 265.018 144.071C265.794 144.469 266.312 145.266 266.829 146.46C267.864 144.469 269.545 143.407 271.874 143.407C272.908 143.407 273.684 143.54 274.331 143.938C274.978 144.204 275.495 144.735 275.883 145.266C276.271 145.797 276.53 146.46 276.659 147.257C276.789 148.053 276.918 148.85 276.918 149.779V158.407H274.331V158.54Z" fill="#315679"/>
<path d="M282.74 140.088V137.434H285.586V140.088H282.74ZM282.87 158.54V143.805H285.327V158.54H282.87Z" fill="#315679"/>
<path d="M298.651 146.195C298.392 146.195 298.263 146.195 298.004 146.195C296.581 146.195 295.547 146.593 294.898 147.39C294.381 148.186 293.993 149.248 293.993 150.708V158.673H291.535V148.186C291.535 146.726 291.535 145.266 291.406 143.806H293.863L293.993 146.195C294.51 145.266 295.157 144.735 295.805 144.337C296.452 143.939 297.357 143.806 298.392 143.806C298.522 143.806 298.651 143.806 298.78 143.806C298.91 143.806 299.039 143.806 299.168 143.806V146.195C299.039 146.195 298.91 146.195 298.651 146.195Z" fill="#315679"/>
<path d="M312.49 158.54C312.49 158.274 312.361 157.876 312.361 157.478C312.361 157.08 312.232 156.814 312.232 156.416C311.585 157.345 310.938 157.876 310.162 158.274C309.386 158.673 308.481 158.805 307.446 158.805C306.799 158.805 306.153 158.673 305.506 158.54C304.859 158.407 304.342 158.142 303.954 157.743C303.435 157.345 303.176 156.947 302.788 156.416C302.529 155.885 302.4 155.221 302.4 154.425C302.4 153.363 302.659 152.434 303.176 151.77C303.693 151.106 304.342 150.575 305.247 150.31C306.023 149.912 306.929 149.779 307.963 149.646C308.869 149.513 309.904 149.513 310.68 149.513C310.938 149.513 311.197 149.513 311.456 149.513C311.714 149.513 311.973 149.513 312.102 149.513V148.584C312.102 147.389 311.844 146.593 311.456 145.929C310.938 145.266 310.162 145 308.998 145C308.093 145 307.446 145.133 306.929 145.531C306.411 145.929 306.153 146.593 306.023 147.522H303.564C303.564 146.726 303.823 146.062 304.081 145.531C304.342 145 304.859 144.602 305.247 144.204C305.765 143.938 306.282 143.673 306.929 143.54C307.575 143.407 308.222 143.274 308.869 143.274C310.68 143.274 312.102 143.673 313.008 144.469C313.913 145.266 314.301 146.593 314.301 148.584V154.027C314.301 154.956 314.301 155.885 314.43 156.681C314.56 157.478 314.689 158.009 314.689 158.407H312.49V158.54ZM311.973 151.239C311.714 151.239 311.456 151.239 311.197 151.239C310.938 151.239 310.809 151.239 310.68 151.239C310.162 151.239 309.515 151.239 308.869 151.372C308.222 151.372 307.575 151.637 306.929 151.77C306.282 152.035 305.894 152.301 305.377 152.699C304.989 153.097 304.73 153.761 304.73 154.425C304.73 154.823 304.859 155.221 304.989 155.619C305.118 156.018 305.377 156.283 305.635 156.549C305.894 156.814 306.282 156.947 306.67 157.08C307.058 157.212 307.446 157.212 307.834 157.212C308.739 157.212 309.515 157.08 310.033 156.681C310.55 156.283 310.938 155.885 311.197 155.354C311.456 154.823 311.585 154.159 311.714 153.363C311.973 152.699 311.973 151.903 311.973 151.239Z" fill="#315679"/>
<path d="M324.909 158.673C323.745 158.673 322.839 158.407 322.322 157.876C321.805 157.345 321.417 156.416 321.417 155.221V145.531H318.569V143.806H321.417V140.885L323.874 139.823V143.806H327.108V145.531H323.874V154.159C323.874 154.558 323.874 154.956 323.874 155.354C323.874 155.62 324.003 155.885 324.133 156.151C324.262 156.283 324.521 156.549 324.78 156.549C325.038 156.681 325.426 156.681 325.814 156.681C326.073 156.681 326.202 156.681 326.461 156.681C326.72 156.681 326.849 156.681 327.108 156.549V158.54C326.461 158.673 325.685 158.673 324.909 158.673Z" fill="#315679"/>
<path d="M333.316 151.637V151.903C333.316 152.566 333.446 153.23 333.575 153.894C333.704 154.558 333.963 155.088 334.351 155.619C334.739 156.15 335.127 156.549 335.644 156.814C336.162 157.08 336.808 157.212 337.586 157.212C338.621 157.212 339.397 156.947 340.044 156.283C340.691 155.752 341.079 154.823 341.208 153.761H343.536C343.277 155.487 342.501 156.814 341.467 157.611C340.432 158.407 338.88 158.805 337.328 158.805C336.162 158.805 335.256 158.673 334.351 158.274C333.575 157.876 332.799 157.345 332.282 156.681C331.764 156.018 331.376 155.221 330.988 154.292C330.729 153.363 330.6 152.434 330.6 151.239C330.6 150.177 330.729 149.115 330.988 148.186C331.247 147.257 331.635 146.46 332.282 145.664C332.928 144.867 333.575 144.336 334.351 143.938C335.127 143.54 336.162 143.274 337.457 143.274C338.621 143.274 339.656 143.54 340.432 143.938C341.208 144.336 341.855 145 342.372 145.664C342.889 146.46 343.148 147.257 343.407 148.186C343.536 149.115 343.665 150.177 343.665 151.239H333.316V151.637ZM341.337 149.912C341.337 149.248 341.208 148.717 341.079 148.186C340.949 147.655 340.691 147.124 340.432 146.726C340.173 146.327 339.785 145.929 339.268 145.664C338.75 145.398 338.233 145.266 337.586 145.266C336.938 145.266 336.291 145.398 335.903 145.664C335.515 145.929 334.998 146.195 334.61 146.726C334.222 147.124 333.963 147.655 333.834 148.186C333.575 148.717 333.446 149.381 333.446 149.912H341.337Z" fill="#315679"/>
<path d="M359.316 154.292C359.316 155.088 359.186 155.885 358.798 156.416C358.41 156.947 358.022 157.478 357.505 157.876C356.987 158.274 356.341 158.54 355.565 158.673C354.918 158.805 354.142 158.938 353.495 158.938C352.719 158.938 352.073 158.805 351.296 158.673C350.65 158.54 350.003 158.274 349.486 157.876C348.968 157.478 348.58 156.947 348.322 156.416C348.063 155.752 347.934 155.088 347.934 154.159H350.391C350.391 155.221 350.779 155.885 351.296 156.416C351.814 156.947 352.59 157.08 353.625 157.08C354.013 157.08 354.401 157.08 354.789 156.947C355.177 156.814 355.565 156.681 355.823 156.549C356.082 156.283 356.341 156.15 356.599 155.752C356.858 155.487 356.858 155.088 356.858 154.558C356.858 154.159 356.729 153.894 356.599 153.628C356.47 153.363 356.211 153.097 355.953 152.965C355.694 152.699 355.306 152.566 354.918 152.434C354.53 152.301 354.142 152.168 353.754 152.035L352.59 151.77C352.073 151.637 351.555 151.504 351.038 151.239C350.52 150.973 350.003 150.841 349.615 150.443C349.227 150.177 348.839 149.779 348.58 149.248C348.322 148.85 348.192 148.186 348.192 147.522C348.192 146.726 348.322 146.062 348.71 145.531C349.098 145 349.486 144.602 350.003 144.204C350.52 143.805 351.167 143.673 351.814 143.54C352.461 143.407 353.107 143.274 353.754 143.274C354.53 143.274 355.177 143.407 355.823 143.54C356.47 143.673 356.987 143.938 357.505 144.336C358.022 144.735 358.41 145.133 358.669 145.664C358.928 146.195 359.057 146.858 359.186 147.788H356.729C356.729 146.858 356.47 146.195 355.953 145.797C355.435 145.266 354.789 145.133 353.883 145.133C353.625 145.133 353.237 145.133 352.849 145.266C352.461 145.398 352.202 145.531 351.943 145.664C351.684 145.797 351.426 146.062 351.296 146.327C351.167 146.593 351.038 146.991 351.038 147.389C351.038 148.053 351.296 148.584 351.943 148.982C352.59 149.381 353.237 149.646 354.142 149.912L355.306 150.177C355.953 150.31 356.47 150.575 357.117 150.708C357.634 150.973 358.152 151.239 358.54 151.504C358.928 151.77 359.186 152.168 359.445 152.699C359.316 153.097 359.316 153.628 359.316 154.292Z" fill="#315679"/>
<path d="M388.031 158.54V148.849H377.425V158.54H374.838V137.434H377.425V146.593H388.031V137.434H390.618V158.54H388.031Z" fill="#315679"/>
<path d="M398.898 151.637V151.903C398.898 152.566 399.027 153.23 399.156 153.894C399.286 154.558 399.544 155.088 399.932 155.619C400.32 156.15 400.708 156.549 401.226 156.814C401.743 157.08 402.39 157.212 403.166 157.212C404.201 157.212 404.977 156.947 405.623 156.283C406.27 155.752 406.658 154.823 406.787 153.761H409.117C408.859 155.487 408.083 156.814 407.046 157.611C406.011 158.407 404.459 158.805 402.907 158.805C401.743 158.805 400.838 158.673 399.932 158.274C399.156 157.876 398.38 157.345 397.863 156.681C397.345 156.018 396.957 155.221 396.569 154.292C396.311 153.363 396.181 152.434 396.181 151.239C396.181 150.177 396.311 149.115 396.569 148.186C396.828 147.257 397.216 146.46 397.863 145.664C398.38 145 399.156 144.336 399.932 143.938C400.708 143.54 401.743 143.274 403.036 143.274C404.201 143.274 405.235 143.54 406.011 143.938C406.787 144.336 407.434 145 407.953 145.664C408.471 146.46 408.729 147.257 408.988 148.186C409.117 149.115 409.247 150.177 409.247 151.239H398.898V151.637ZM406.917 149.912C406.917 149.248 406.787 148.717 406.658 148.186C406.529 147.655 406.27 147.124 406.011 146.726C405.753 146.327 405.365 145.929 404.847 145.664C404.33 145.398 403.813 145.266 403.166 145.266C402.519 145.266 401.872 145.398 401.484 145.664C400.967 145.929 400.579 146.195 400.191 146.726C399.803 147.124 399.544 147.655 399.415 148.186C399.156 148.717 399.027 149.381 399.027 149.912H406.917Z" fill="#315679"/>
<path d="M423.604 158.54C423.604 158.274 423.474 157.876 423.474 157.478C423.474 157.08 423.345 156.814 423.345 156.416C422.698 157.345 422.052 157.876 421.275 158.274C420.499 158.673 419.594 158.805 418.559 158.805C417.913 158.805 417.266 158.673 416.619 158.54C415.972 158.407 415.455 158.142 415.067 157.743C414.55 157.345 414.291 156.947 413.901 156.416C413.643 155.885 413.513 155.221 413.513 154.425C413.513 153.363 413.772 152.434 414.289 151.77C414.808 151.106 415.455 150.575 416.361 150.31C417.137 149.912 418.042 149.779 419.077 149.646C419.982 149.513 421.017 149.513 421.793 149.513C422.052 149.513 422.31 149.513 422.569 149.513C422.828 149.513 423.086 149.513 423.216 149.513V148.584C423.216 147.389 422.957 146.593 422.569 145.929C422.052 145.266 421.275 145 420.111 145C419.206 145 418.559 145.133 418.042 145.531C417.525 145.929 417.266 146.593 417.137 147.522H414.679C414.679 146.726 414.938 146.062 415.196 145.531C415.455 145 415.972 144.602 416.361 144.204C416.878 143.938 417.395 143.673 418.042 143.54C418.689 143.407 419.335 143.274 419.982 143.274C421.793 143.274 423.216 143.673 424.121 144.469C425.026 145.266 425.414 146.593 425.414 148.584V154.027C425.414 154.956 425.414 155.885 425.544 156.681C425.673 157.478 425.802 158.009 425.802 158.407H423.604V158.54ZM423.086 151.239C422.828 151.239 422.569 151.239 422.44 151.239C422.31 151.239 422.052 151.239 421.922 151.239C421.405 151.239 420.758 151.239 420.111 151.372C419.465 151.372 418.818 151.637 418.171 151.77C417.525 152.035 417.137 152.301 416.619 152.699C416.231 153.097 415.972 153.761 415.972 154.425C415.972 154.823 416.102 155.221 416.231 155.619C416.36 156.018 416.619 156.283 416.878 156.549C417.137 156.814 417.525 156.947 417.913 157.08C418.301 157.212 418.689 157.212 419.077 157.212C419.982 157.212 420.758 157.08 421.275 156.681C421.793 156.283 422.181 155.885 422.44 155.354C422.698 154.823 422.828 154.159 422.957 153.363C422.957 152.699 423.086 151.903 423.086 151.239Z" fill="#315679"/>
<path d="M431.625 158.54V137.434H434.082V158.54H431.625Z" fill="#315679"/>
<path d="M444.688 158.673C443.524 158.673 442.619 158.407 442.101 157.876C441.455 157.345 441.196 156.416 441.196 155.221V145.531H438.35V143.806H441.196V140.885L443.653 139.823V143.806H446.887V145.531H443.653V154.159C443.653 154.558 443.653 154.956 443.653 155.354C443.653 155.62 443.783 155.885 443.912 156.151C444.041 156.283 444.3 156.549 444.559 156.549C444.817 156.549 445.205 156.681 445.593 156.681C445.852 156.681 445.981 156.681 446.24 156.681C446.499 156.681 446.628 156.681 446.887 156.549V158.54C446.24 158.673 445.464 158.673 444.688 158.673Z" fill="#315679"/>
<path d="M461.375 158.54V150.31C461.375 149.646 461.375 149.115 461.245 148.451C461.116 147.788 460.987 147.389 460.857 146.858C460.599 146.46 460.34 146.062 459.823 145.796C459.435 145.531 458.786 145.398 458.01 145.398C457.234 145.398 456.717 145.531 456.199 145.796C455.682 146.062 455.294 146.46 455.035 146.991C454.777 147.522 454.518 148.053 454.389 148.717C454.259 149.38 454.13 150.044 454.13 150.708V158.54H451.672V137.434H454.13V146.062C454.647 145.265 455.294 144.602 456.07 144.203C456.846 143.805 457.751 143.54 458.786 143.54C459.693 143.54 460.599 143.673 461.245 143.938C461.892 144.203 462.409 144.602 462.798 145.133C463.186 145.664 463.444 146.195 463.703 146.991C463.832 147.655 463.962 148.451 463.962 149.38V158.54H461.375Z" fill="#315679"/>
<path d="M493.971 152.7C493.971 153.762 493.712 154.824 493.324 155.487C492.807 156.284 492.289 156.948 491.513 157.479C490.737 158.009 489.961 158.275 489.056 158.54C488.15 158.806 487.245 158.939 486.21 158.939C485.305 158.939 484.399 158.806 483.494 158.673C482.589 158.54 481.942 158.142 481.295 157.611C480.648 157.08 480.131 156.549 479.743 155.753C479.355 154.956 479.096 154.027 478.967 152.965H481.683C481.683 153.629 481.813 154.16 482.071 154.691C482.33 155.222 482.718 155.62 483.106 155.886C483.494 156.151 484.011 156.417 484.529 156.549C485.046 156.682 485.693 156.815 486.21 156.815C486.728 156.815 487.374 156.682 487.892 156.549C488.409 156.417 489.056 156.151 489.444 155.886C489.961 155.62 490.349 155.222 490.608 154.691C490.866 154.16 490.996 153.629 490.996 152.965C490.996 152.434 490.866 151.903 490.608 151.505C490.349 151.107 490.09 150.709 489.702 150.443C489.314 150.178 488.926 149.912 488.409 149.647C487.892 149.381 487.374 149.248 486.857 149.116L485.046 148.585C484.27 148.319 483.623 148.054 482.847 147.788C482.201 147.523 481.554 147.125 480.907 146.726C480.39 146.328 479.872 145.797 479.614 145.133C479.226 144.47 479.096 143.806 479.096 142.877C479.096 141.815 479.355 140.886 479.743 140.222C480.131 139.558 480.648 138.895 481.425 138.364C482.071 137.833 482.847 137.567 483.753 137.302C484.658 137.036 485.434 137.036 486.34 137.036C487.245 137.036 488.021 137.169 488.797 137.302C489.573 137.434 490.349 137.833 490.996 138.231C491.643 138.629 492.16 139.16 492.548 139.824C492.936 140.487 493.195 141.417 493.195 142.346H490.478C490.478 141.682 490.22 141.284 490.09 140.753C489.961 140.222 489.573 139.956 489.185 139.691C488.797 139.425 488.409 139.293 487.892 139.16C487.374 139.027 486.857 139.027 486.34 139.027C485.822 139.027 485.305 139.027 484.787 139.16C484.27 139.293 483.753 139.425 483.365 139.824C482.977 140.089 482.589 140.487 482.33 140.886C482.071 141.284 481.942 141.815 481.942 142.479C481.942 143.01 482.071 143.408 482.33 143.673C482.589 144.071 482.847 144.337 483.106 144.602C483.494 144.868 483.882 145.133 484.27 145.266C484.658 145.399 485.046 145.664 485.434 145.797L487.762 146.594C488.538 146.859 489.185 147.125 489.961 147.39C490.608 147.656 491.254 148.054 491.901 148.452C492.419 148.85 492.936 149.381 493.195 150.045C493.712 150.974 493.971 151.771 493.971 152.7Z" fill="#315679"/>
<path d="M500.696 151.637V151.903C500.696 152.566 500.826 153.23 500.955 153.894C501.084 154.558 501.343 155.088 501.731 155.619C502.119 156.15 502.507 156.549 503.025 156.814C503.542 157.08 504.189 157.212 504.965 157.212C505.999 157.212 506.775 156.947 507.422 156.283C508.069 155.752 508.457 154.823 508.586 153.761H510.916C510.657 155.487 509.881 156.814 508.845 157.611C507.81 158.407 506.258 158.805 504.706 158.805C503.542 158.805 502.636 158.673 501.731 158.274C500.955 157.876 500.179 157.345 499.662 156.681C499.144 156.018 498.756 155.221 498.368 154.292C498.11 153.363 497.98 152.434 497.98 151.239C497.98 150.177 498.11 149.115 498.368 148.186C498.627 147.257 499.015 146.46 499.662 145.664C500.179 145 500.955 144.336 501.731 143.938C502.507 143.54 503.542 143.274 504.835 143.274C505.999 143.274 507.034 143.54 507.81 143.938C508.586 144.336 509.235 145 509.752 145.664C510.269 146.46 510.528 147.257 510.787 148.186C510.916 149.115 511.045 150.177 511.045 151.239H500.696V151.637ZM508.716 149.912C508.716 149.248 508.586 148.717 508.457 148.186C508.327 147.655 508.069 147.124 507.81 146.726C507.551 146.327 507.163 145.929 506.646 145.664C506.129 145.398 505.611 145.266 504.965 145.266C504.318 145.266 503.671 145.398 503.283 145.664C502.766 145.929 502.378 146.195 501.99 146.726C501.602 147.124 501.343 147.655 501.214 148.186C500.955 148.717 500.826 149.381 500.826 149.912H508.716Z" fill="#315679"/>
<path d="M523.464 146.195C523.205 146.195 523.076 146.195 522.817 146.195C521.395 146.195 520.36 146.593 519.711 147.39C519.194 148.186 518.806 149.248 518.806 150.708V158.673H516.349V148.186C516.349 146.726 516.349 145.266 516.219 143.806H518.677L518.806 146.195C519.323 145.266 519.97 144.735 520.619 144.337C521.265 143.939 522.171 143.806 523.205 143.806C523.335 143.806 523.464 143.806 523.594 143.806C523.723 143.806 523.852 143.806 523.982 143.806V146.195C523.852 146.195 523.593 146.195 523.464 146.195Z" fill="#315679"/>
<path d="M534.717 158.54H532.13L526.31 143.806H529.155L533.682 156.018L538.209 143.806H540.796L534.717 158.54Z" fill="#315679"/>
<path d="M544.678 140.088V137.434H547.523V140.088H544.678ZM544.807 158.54V143.805H547.265V158.54H544.807Z" fill="#315679"/>
<path d="M564.855 156.018C564.467 156.681 564.079 157.212 563.562 157.61C563.044 158.009 562.398 158.407 561.622 158.54C560.846 158.805 560.199 158.805 559.294 158.805C558.129 158.805 557.095 158.672 556.319 158.274C555.413 157.876 554.767 157.345 554.12 156.681C553.473 156.018 553.085 155.221 552.826 154.292C552.568 153.363 552.309 152.301 552.309 151.239C552.309 150.044 552.438 149.115 552.826 148.053C553.214 146.991 553.602 146.195 554.12 145.531C554.767 144.867 555.413 144.203 556.319 143.805C557.224 143.407 558.259 143.142 559.423 143.142C561.104 143.142 562.398 143.54 563.432 144.469C564.467 145.265 565.114 146.593 565.243 148.318H562.786C562.656 147.257 562.398 146.46 561.751 145.796C561.104 145.265 560.328 144.867 559.294 144.867C558.388 144.867 557.741 145 557.095 145.398C556.577 145.796 556.06 146.195 555.672 146.726C555.284 147.257 555.025 147.92 554.896 148.717C554.767 149.38 554.637 150.177 554.637 150.973C554.637 151.637 554.767 152.433 554.896 153.097C555.025 153.761 555.284 154.425 555.672 154.956C556.06 155.487 556.448 156.018 556.965 156.283C557.483 156.548 558.129 156.814 559.035 156.814C560.07 156.814 560.975 156.549 561.622 155.885C562.268 155.221 562.656 154.425 562.656 153.23H564.985H565.114C565.373 154.557 565.243 155.354 564.855 156.018Z" fill="#315679"/>
<path d="M571.71 151.637V151.903C571.71 152.566 571.84 153.23 571.969 153.894C572.098 154.558 572.357 155.088 572.745 155.619C573.133 156.15 573.521 156.549 574.038 156.814C574.556 157.08 575.204 157.212 575.98 157.212C577.015 157.212 577.791 156.947 578.438 156.283C579.085 155.752 579.473 154.823 579.602 153.761H581.93C581.671 155.487 580.895 156.814 579.861 157.611C578.826 158.407 577.274 158.805 575.722 158.805C574.556 158.805 573.65 158.673 572.745 158.274C571.969 157.876 571.193 157.345 570.676 156.681C570.158 156.018 569.77 155.221 569.382 154.292C569.123 153.363 568.994 152.434 568.994 151.239C568.994 150.177 569.123 149.115 569.382 148.186C569.641 147.257 570.029 146.46 570.676 145.664C571.193 145 571.969 144.336 572.745 143.938C573.521 143.54 574.556 143.274 575.851 143.274C577.015 143.274 578.05 143.54 578.826 143.938C579.602 144.336 580.249 145 580.766 145.664C581.283 146.46 581.542 147.257 581.801 148.186C581.93 149.115 582.059 150.177 582.059 151.239H571.71V151.637ZM579.731 149.912C579.731 149.248 579.602 148.717 579.473 148.186C579.343 147.655 579.085 147.124 578.826 146.726C578.567 146.327 578.179 145.929 577.662 145.664C577.144 145.398 576.627 145.266 575.98 145.266C575.334 145.266 574.685 145.398 574.297 145.664C573.78 145.929 573.392 146.195 573.004 146.726C572.616 147.124 572.357 147.655 572.228 148.186C571.969 148.717 571.84 149.381 571.84 149.912H579.731Z" fill="#315679"/>
<path d="M597.711 154.292C597.711 155.088 597.582 155.885 597.194 156.416C596.806 156.947 596.418 157.478 595.901 157.876C595.383 158.274 594.737 158.54 593.96 158.673C593.314 158.805 592.538 158.938 591.891 158.938C591.115 158.938 590.468 158.805 589.692 158.673C589.045 158.54 588.399 158.274 587.881 157.876C587.364 157.478 586.976 156.947 586.717 156.416C586.459 155.885 586.329 155.088 586.329 154.159H588.787C588.787 155.221 589.175 155.885 589.692 156.416C590.21 156.947 590.986 157.08 592.02 157.08C592.408 157.08 592.796 157.08 593.184 156.947C593.572 156.814 593.96 156.681 594.219 156.549C594.478 156.283 594.736 156.15 594.995 155.752C595.254 155.487 595.254 155.088 595.254 154.558C595.254 154.159 595.125 153.894 594.995 153.628C594.866 153.363 594.607 153.097 594.348 152.965C594.09 152.699 593.702 152.566 593.314 152.434C592.926 152.301 592.538 152.168 592.15 152.035L590.986 151.77C590.468 151.637 589.951 151.504 589.434 151.239C588.916 151.106 588.399 150.841 588.011 150.443C587.623 150.177 587.235 149.779 586.976 149.248C586.717 148.85 586.588 148.186 586.588 147.522C586.588 146.726 586.717 146.062 587.105 145.531C587.493 145 587.881 144.602 588.399 144.204C588.916 143.805 589.563 143.673 590.21 143.54C590.856 143.407 591.503 143.274 592.15 143.274C592.926 143.274 593.572 143.407 594.219 143.54C594.866 143.673 595.383 143.938 595.901 144.336C596.418 144.735 596.806 145.133 597.065 145.664C597.323 146.195 597.453 146.858 597.582 147.788H595.125C595.125 146.858 594.866 146.195 594.348 145.797C593.831 145.266 593.184 145.133 592.279 145.133C592.02 145.133 591.632 145.133 591.244 145.266C590.856 145.398 590.598 145.531 590.339 145.664C590.08 145.797 589.822 146.062 589.563 146.327C589.434 146.593 589.304 146.991 589.304 147.389C589.304 148.053 589.563 148.584 590.21 148.982C590.856 149.381 591.503 149.646 592.408 149.912L593.572 150.177C594.219 150.31 594.736 150.575 595.383 150.708C595.901 150.973 596.418 151.239 596.806 151.504C597.194 151.77 597.453 152.168 597.711 152.699C597.97 153.23 597.711 153.628 597.711 154.292Z" fill="#315679"/>
</svg>
