<svg width="600" height="250" viewBox="0 0 600 250" fill="none" xmlns="http://www.w3.org/2000/svg">
<path d="M515.877 82.0168C517.789 82.0168 519.314 80.5828 519.314 78.7808C519.314 76.9787 517.789 75.4922 515.877 75.4922C513.965 75.4922 512.33 76.974 512.33 78.7808C512.33 80.5876 513.889 82.0168 515.877 82.0168Z" fill="#2F3033"/>
<path d="M506.977 82.0168C508.889 82.0168 510.414 80.5828 510.414 78.7808C510.414 76.9787 508.889 75.4922 506.977 75.4922C505.065 75.4922 503.43 76.974 503.43 78.7808C503.43 80.5876 504.988 82.0168 506.977 82.0168Z" fill="#2F3033"/>
<path d="M521.981 97.4894C521.981 90.4199 518.319 84.5549 511.561 84.5549C505.237 84.5549 501.121 89.593 501.121 95.3145C501.121 99.8889 504.047 103.197 509.797 103.197C513.721 103.197 516.025 101.629 517.273 99.8172C516.991 105.3 513.836 105.969 509.171 105.969H499.587C497.866 105.969 496.719 105.835 495.949 105.591C496.303 104.53 496.499 103.35 496.499 102.097C496.499 96.519 492.388 91.4141 485.926 91.4141C481.122 91.4141 476.639 93.7658 472.552 97.9196C473.484 96.3709 474.344 94.3585 474.344 92.6186V80.5255H468.465V102.857C467.781 103.847 467.098 104.86 466.419 105.969H463.771C460.903 105.969 458.972 105.271 458.972 102.04V80.2578H453.093V104.1C453.093 110.276 457.046 112.948 463.475 112.948H482.327C486.7 112.948 490.013 112.082 492.331 110.529C493.488 112.078 495.534 112.948 499.252 112.948H508.726C517.426 112.948 522 108.655 522 97.4894H521.99H521.981ZM510.213 97.3746C507.354 97.3746 505.519 96.3613 505.519 94.8939C505.519 93.4264 507.407 91.5718 510.533 91.5718C513.659 91.5718 515.623 93.718 516.297 95.6921C515.136 96.6146 513.052 97.3794 510.222 97.3794L510.213 97.3746ZM483.206 105.964H471.247C474.856 101.715 479.674 98.388 485.142 98.388C489.152 98.388 491.461 100.716 491.461 102.747C491.461 105.008 488.043 105.964 483.206 105.964Z" fill="#2F3033"/>
<path d="M409.013 93.632C410.924 93.632 412.449 92.198 412.449 90.396C412.449 88.594 410.924 87.1074 409.013 87.1074C407.101 87.1074 405.466 88.5892 405.466 90.396C405.466 92.2028 407.024 93.632 409.013 93.632Z" fill="#2F3033"/>
<path d="M400.112 93.632C402.024 93.632 403.549 92.198 403.549 90.396C403.549 88.594 402.024 87.1074 400.112 87.1074C398.2 87.1074 396.566 88.5892 396.566 90.396C396.566 92.2028 398.124 93.632 400.112 93.632Z" fill="#2F3033"/>
<path d="M328.38 90.2336C330.292 90.2336 331.817 88.7996 331.817 86.9976C331.817 85.1955 330.292 83.709 328.38 83.709C326.468 83.709 324.834 85.1908 324.834 86.9976C324.834 88.8044 326.392 90.2336 328.38 90.2336Z" fill="#2F3033"/>
<path d="M319.48 90.2336C321.392 90.2336 322.917 88.7996 322.917 86.9976C322.917 85.1955 321.392 83.709 319.48 83.709C317.568 83.709 315.934 85.1908 315.934 86.9976C315.934 88.8044 317.492 90.2336 319.48 90.2336Z" fill="#2F3033"/>
<path d="M245.917 129.998V173.486H275.051V167.095H253.059V154.5H270.577V148.362H253.059V136.322H274.31V129.998H245.917Z" fill="#2F3033"/>
<path d="M289.912 166.784C289.415 166.248 289.166 165.354 289.166 164.116V147.549H296.809V141.656H289.166V132.784H282.393V141.656H276.863V147.549H282.393V164.795C282.393 167.73 283.086 169.9 284.477 171.31C285.863 172.72 288.048 173.485 291.03 173.485H297.488V167.591H292.455C291.25 167.591 290.404 167.324 289.907 166.784H289.912Z" fill="#2F3033"/>
<path d="M306.579 128.554C305.418 128.554 304.447 128.927 303.659 129.667C302.875 130.413 302.478 131.364 302.478 132.521C302.478 133.678 302.875 134.643 303.659 135.403C304.443 136.168 305.418 136.55 306.579 136.55C307.741 136.55 308.711 136.168 309.5 135.403C310.284 134.639 310.68 133.678 310.68 132.521C310.68 131.364 310.284 130.413 309.5 129.667C308.716 128.922 307.741 128.554 306.579 128.554Z" fill="#2F3033"/>
<path d="M309.935 141.655H303.224V173.485H309.935V141.655Z" fill="#2F3033"/>
<path d="M332.367 141.288C328.098 141.288 324.767 142.961 322.362 146.312V129.998H315.656V173.49H322.362V157.358C322.362 154.175 323.118 151.661 324.628 149.82C326.139 147.98 328.218 147.062 330.875 147.062C333.361 147.062 335.259 147.846 336.559 149.419C337.864 150.991 338.514 153.286 338.514 156.307V173.49H345.22V155.939C345.22 150.81 344.03 147.086 341.649 144.773C339.264 142.454 336.172 141.298 332.362 141.298V141.288H332.367Z" fill="#2F3033"/>
<path d="M374.951 144.266C372.614 142.282 369.306 141.288 365.042 141.288C361.022 141.288 357.772 142.168 355.291 143.922C352.806 145.681 351.4 148.152 351.061 151.335H357.648C357.896 149.892 358.652 148.74 359.913 147.894C361.175 147.043 362.781 146.618 364.732 146.618C366.887 146.618 368.594 147.139 369.856 148.171C371.118 149.204 371.753 150.614 371.753 152.392V154.313H363.737C359.306 154.313 355.932 155.193 353.614 156.947C351.295 158.706 350.134 161.216 350.134 164.485C350.134 167.42 351.209 169.709 353.365 171.339C355.521 172.974 358.379 173.791 361.94 173.791C366.62 173.791 370.549 171.989 372.91 168.314L373.833 173.49H378.464V152.827C378.464 149.108 377.293 146.25 374.951 144.266ZM371.748 160.398C371.748 162.879 370.965 164.867 369.387 166.354C367.81 167.845 365.64 168.586 362.863 168.586C361.037 168.586 359.593 168.175 358.513 167.348C357.433 166.521 356.897 165.427 356.897 164.06C356.897 162.487 357.466 161.302 358.604 160.494C359.741 159.686 361.367 159.284 363.479 159.284H371.744V160.398H371.748Z" fill="#2F3033"/>
<path d="M408.659 146.125C407.579 144.634 406.173 143.458 404.434 142.588C402.694 141.723 400.643 141.288 398.282 141.288C395.423 141.288 392.857 141.957 390.577 143.305C388.297 144.648 386.514 146.551 385.233 149.012C383.947 151.469 383.306 154.318 383.306 157.545C383.306 160.771 383.947 163.739 385.233 166.201C386.514 168.663 388.297 170.546 390.577 171.846C392.857 173.151 395.443 173.796 398.339 173.796C402.727 173.796 406.188 172.08 408.716 168.648L409.524 173.486H415.365V129.993H408.659V146.125ZM406.173 165.235C404.472 167.181 402.235 168.151 399.462 168.151C396.69 168.151 394.448 167.166 392.756 165.202C391.055 163.237 390.209 160.685 390.209 157.54C390.209 154.395 391.059 151.856 392.756 149.911C394.453 147.966 396.69 146.995 399.462 146.995C402.235 146.995 404.477 147.98 406.173 149.944C407.87 151.909 408.721 154.485 408.721 157.669C408.721 160.852 407.87 163.295 406.173 165.24" fill="#2F3033"/>
<path d="M463.379 151.431C464.909 149.261 465.678 146.728 465.678 143.831C465.678 140.934 465.047 138.631 463.781 136.542C462.519 134.453 460.746 132.842 458.465 131.7C456.185 130.562 453.537 129.998 450.512 129.998H433.366V173.486H440.512V157.669H450.206L458.465 173.486H466.419L457.227 156.115C459.794 155.169 461.845 153.606 463.379 151.436V151.431ZM449.957 151.455H440.517V136.193H449.957C452.524 136.193 454.565 136.886 456.076 138.267C457.586 139.653 458.341 141.503 458.341 143.822C458.341 146.14 457.586 147.99 456.076 149.376C454.565 150.762 452.524 151.455 449.957 151.455Z" fill="#2F3033"/>
<path d="M509.477 141.655H502.766V173.485H509.477V141.655Z" fill="#2F3033"/>
<path d="M506.116 128.554C504.955 128.554 503.985 128.927 503.196 129.667C502.412 130.413 502.015 131.364 502.015 132.521C502.015 133.678 502.412 134.643 503.196 135.403C503.98 136.168 504.955 136.55 506.116 136.55C507.278 136.55 508.248 136.168 509.037 135.403C509.821 134.639 510.217 133.678 510.217 132.521C510.217 131.364 509.821 130.413 509.037 129.667C508.253 128.922 507.278 128.554 506.116 128.554Z" fill="#2F3033"/>
<path d="M521.909 129.998H515.198V173.49H521.909V129.998Z" fill="#2F3033"/>
<path d="M256.911 113.349C265.305 113.349 269.005 109.496 269.005 103.024C269.005 96.5522 264.177 91.4234 258.082 87.2744L254.106 92.4654C260.558 97.317 263.89 100.61 263.89 103.278C263.89 105.189 261.739 106.246 257.404 106.246C253.47 106.246 250.659 105.72 250.75 101.471L245.951 101.681C245.535 107.952 246.878 113.339 256.907 113.339L256.911 113.349Z" fill="#2F3033"/>
<path d="M326.306 102.394C326.306 104.817 324.767 105.959 321.268 105.964C317.874 105.964 316.029 105.5 315.083 104.258H318.132L318.696 97.3077H313.51C310.485 97.3077 309.562 97.0974 305.633 95.152C302.937 93.8184 300.069 91.8634 295.413 91.8634C290.758 91.8634 287.001 94.3059 285.82 95.9694L287.971 100.534C289.31 99.7168 291.494 98.5362 294.735 98.5362C298.334 98.5362 301.197 99.7598 303.903 100.874C304.5 101.136 304.997 101.39 305.47 101.576C296.169 105.759 289.926 105.964 284.53 105.964H284.257C281.389 105.964 279.463 105.266 279.463 102.035V80.2578H273.579V104.1C273.579 110.276 277.532 112.948 283.961 112.948H284.219C293.047 112.948 299.094 111.671 309.916 104.262H311.211C311.46 109.592 313.329 112.938 320.909 112.948H320.953C328.041 112.928 331.898 108.813 331.898 102.016V93.4981H326.306V102.398V102.394Z" fill="#2F3033"/>
<path d="M361.347 104.182C361.347 101.716 359.937 99.4741 357.724 97.4713C360.348 95.349 360.951 93.4419 360.951 90.029V80.2637H355.028V92.3616C355.028 93.4371 354.933 94.1445 354.321 94.895C350.096 92.1274 344.274 88.6763 337.739 84.6564L334.527 90.139C340.789 93.786 345.43 96.4771 348.972 98.6806L337.553 106.156V112.939H351.209C357.504 112.939 361.343 110.081 361.343 104.178L361.347 104.182ZM352.06 105.97H344.46L352.705 100.717C354.928 101.988 356.591 103.069 356.591 104.369C356.591 105.669 354.66 105.97 352.05 105.97H352.06Z" fill="#2F3033"/>
<path d="M371.777 80.2529H365.898V112.943H371.777V80.2529Z" fill="#2F3033"/>
<path d="M417.425 90.6396C418.271 93.7944 419.179 98.2349 419.179 101.093C419.179 104.434 416.12 105.964 408.807 105.964H400.442C393.583 105.964 390.648 104.019 390.648 99.8696C390.648 97.9864 391.15 94.5018 392.049 92.1836H387.235C385.706 95.1758 385.013 98.603 385.013 101.409C385.013 108.45 388.932 112.947 399.921 112.947H408.86C420.762 112.947 424.772 108.086 424.772 100.677C424.772 97.2311 423.878 93.5554 422.889 90.6396H417.425Z" fill="#2F3033"/>
<path d="M435.197 80.2529H429.318V112.943H435.197V80.2529Z" fill="#2F3033"/>
<path d="M493.531 144.266C491.193 142.282 487.886 141.288 483.622 141.288C479.602 141.288 476.352 142.168 473.871 143.922C471.386 145.681 469.98 148.152 469.641 151.335H476.228C476.476 149.892 477.231 148.74 478.493 147.894C479.755 147.043 481.361 146.618 483.311 146.618C485.467 146.618 487.174 147.139 488.435 148.171C489.697 149.204 490.333 150.614 490.333 152.392V154.313H482.317C477.886 154.313 474.512 155.193 472.193 156.947C469.875 158.706 468.714 161.216 468.714 164.485C468.714 167.42 469.789 169.709 471.945 171.339C474.101 172.974 476.959 173.791 480.52 173.791C485.199 173.791 489.129 171.989 491.49 168.314L492.412 173.49H497.044V152.827C497.044 149.108 495.873 146.25 493.531 144.266ZM490.328 160.398C490.328 162.879 489.544 164.867 487.967 166.354C486.39 167.845 484.22 168.586 481.443 168.586C479.617 168.586 478.173 168.175 477.093 167.348C476.013 166.521 475.477 165.427 475.477 164.06C475.477 162.487 476.046 161.302 477.184 160.494C478.321 159.686 479.946 159.284 482.059 159.284H490.324V160.398H490.328Z" fill="#2F3033"/>
<path d="M432.076 123.731C443.978 123.731 447.988 118.87 447.988 111.461V93.5029H442.396V111.877C442.396 115.218 439.336 116.748 432.023 116.748H429.323V123.726H432.081L432.076 123.731Z" fill="#2F3033"/>
<path d="M44.0001 173.485H74.4576C99.7194 112.948 154.727 90.4297 154.727 90.4297C182.546 79.5936 212.539 80.1959 224.188 81.1375V76.5918C88.5297 63.1842 43.9332 173.629 44.0001 173.485Z" fill="#C10505"/>
<path d="M187.053 88.6848C199.371 91.9877 208.443 103.225 208.443 116.585C208.443 132.54 195.509 145.475 179.553 145.475C163.598 145.475 150.664 132.54 150.664 116.585C150.664 115.663 150.711 114.754 150.797 113.856C150.797 113.856 136.219 130.213 130.335 173.485L152.49 173.499C193.75 173.499 220.412 142.234 223.973 102.972L224.183 87.7336C217.076 87.1934 201.79 86.6485 187.053 88.6895V88.6848Z" fill="#2F3033"/>
<path d="M86.8088 173.485H118.05C132.758 114.076 160.668 94.7218 161.098 94.3633C108.189 111.447 86.8088 173.485 86.8088 173.485Z" fill="#2F3033"/>
</svg>
