<svg width="600" height="250" viewBox="0 0 600 250" fill="none" xmlns="http://www.w3.org/2000/svg">
<mask id="mask0_288_208" style="mask-type:luminance" maskUnits="userSpaceOnUse" x="16" y="43" width="570" height="165">
<path d="M586 43H16V208H586V43Z" fill="white"/>
</mask>
<g mask="url(#mask0_288_208)">
<path d="M208.619 139.754H230.518V144.246H214.114V152.601H228.913L229.601 157.093H214.114V166.13H230.977V170.622H208.619V139.745V139.754Z" fill="#231F20"/>
<path d="M248.713 158.605L240.141 170.639H234.09L245.591 154.655L235.052 140.077L241.005 139.396L249.163 150.748L256.818 139.763H262.824L252.373 154.611L264.015 170.272L258.009 170.997L248.704 158.605H248.713Z" fill="#231F20"/>
<path d="M293.031 149.97C293.031 156.053 288.728 160.23 281.028 160.23H273.196V170.63H267.702V139.754H281.037C288.736 139.754 293.04 143.931 293.04 149.97H293.031ZM287.387 149.97C287.387 146.204 284.635 144.246 280.79 144.246H273.187V155.73H280.79C284.635 155.73 287.387 153.728 287.387 149.962V149.97Z" fill="#231F20"/>
<path d="M295.916 155.196C295.916 146.387 301.966 139.308 312.549 139.308C323.133 139.308 329.139 146.396 329.139 155.196C329.139 163.997 323.089 171.085 312.549 171.085C302.01 171.085 295.916 164.049 295.916 155.196ZM301.507 155.196C301.507 161.917 305.582 166.593 312.505 166.593C319.429 166.593 323.503 161.917 323.503 155.196C323.503 148.476 319.473 143.8 312.505 143.8C305.538 143.8 301.507 148.476 301.507 155.196Z" fill="#231F20"/>
<path d="M359.61 171.085C350.032 171.085 343.347 164.958 343.347 155.196C343.347 145.435 350.041 139.308 359.84 139.308C364.373 139.308 367.495 140.305 370.291 141.895L369.374 146.667C366.163 144.534 363.279 143.809 359.981 143.809C353.428 143.809 348.983 147.986 348.983 155.205C348.983 162.424 353.428 166.601 359.752 166.601C363.05 166.601 366.904 165.736 370.062 163.604V168.507C367.266 170.053 364.153 171.093 359.61 171.093V171.085Z" fill="#231F20"/>
<path d="M375.645 170.63V140.069L381.139 139.387V170.63H375.645Z" fill="#231F20"/>
<path d="M395.621 144.255H385.311V139.763H411.425L410.737 144.255H401.115V170.639H395.621V144.255Z" fill="#231F20"/>
<path d="M429.664 170.63H424.17V160.458L412.581 140.069L418.075 139.387L427.054 155.328L435.759 139.754H441.58L429.664 160.554V170.63Z" fill="#231F20"/>
<path d="M454.183 139.754H465.683C476.135 139.754 482.273 146.387 482.273 155.188C482.273 163.988 476.135 170.622 465.683 170.622H454.183V139.745V139.754ZM476.637 155.197C476.637 148.476 472.51 144.255 465.683 144.255H459.677V166.138H465.683C472.51 166.138 476.637 161.917 476.637 155.197Z" fill="#231F20"/>
<path d="M491.578 139.396V158.334C491.578 163.42 494.003 166.601 499.736 166.601C505.468 166.601 507.85 163.42 507.85 158.334V140.077L513.344 139.396V159.374C513.344 165.596 509.173 171.085 499.736 171.085C490.299 171.085 486.083 165.36 486.083 159.374V140.077L491.578 139.396Z" fill="#231F20"/>
<path d="M542.749 148.021C542.749 150.975 541.329 153.606 538.119 154.655C542.017 155.476 543.666 158.465 543.666 161.917C543.666 168 539.821 170.639 532.351 170.639H518.239V139.763H531.204C538.674 139.763 542.749 142.35 542.749 148.03V148.021ZM537.157 148.52C537.157 145.111 534.732 144.255 530.975 144.255H523.734V152.749H530.975C534.732 152.749 537.157 151.98 537.157 148.528V148.52ZM523.734 166.138H532.121C535.878 166.138 538.074 165.002 538.074 161.594C538.074 158.185 535.878 157.006 532.121 157.006H523.734V166.129V166.138Z" fill="#231F20"/>
<path d="M568.043 163.91H553.059L550.404 170.63H544.724L557.416 139.841L563.828 139.16L576.334 170.263L570.839 170.989L568.043 163.901V163.91ZM566.253 159.418L560.573 144.98L554.849 159.418H566.262H566.253Z" fill="#231F20"/>
<path d="M579.456 170.63V140.069L584.95 139.387V170.63H579.456Z" fill="#231F20"/>
<path d="M222.872 119.312L219.353 115.913L215.569 119.618L219.397 123.359L222.872 119.915L226.435 123.359L230.21 119.618L226.391 115.913L222.872 119.312Z" fill="#231F20"/>
<path d="M276.971 94.816C276.971 98.1806 275.295 99.7887 272.164 99.7887H272.147H272.129H245.238V86.7757L242.275 84.1801H236.648C230.898 84.1801 227.934 87.7108 227.934 93.0244V100.68C227.934 106.763 225.791 108.93 220.12 108.93C215.058 108.93 212.218 106.422 212.138 101.405C212.138 98.8973 212.65 96.3017 213.558 93.575L209.784 92.5525C208.54 96.2929 207.896 99.6576 207.896 102.673C207.896 110.197 212.535 113.815 220.006 113.815C229.495 113.815 232.582 109.14 232.582 101.222V93.9945C232.582 90.7172 234.346 89.0567 237.433 89.0567H240.564V104.665H272.129C278.479 104.665 281.619 101.641 281.619 96.2405V83.3936L276.936 84.0315L276.98 94.7897L276.971 94.816Z" fill="#231F20"/>
<path d="M273.108 111.194L275.534 114.89L280.755 111.194L276.892 107.453L273.108 111.194Z" fill="#231F20"/>
<path d="M295.474 83.4198H291.779V88.1828H294.443C297.838 88.1828 300.281 90.2628 300.325 93.3303L300.369 95.454C300.369 98.172 298.694 99.7888 295.563 99.7888H284.785L285.597 104.683H295.51C301.86 104.683 305 101.659 305.044 96.258L305 92.8147C305 86.9855 301.004 83.4111 295.466 83.4111L295.474 83.4198Z" fill="#231F20"/>
<path d="M344.882 111.237L347.307 114.934L352.52 111.237L348.657 107.488L344.882 111.237Z" fill="#231F20"/>
<path d="M428.244 86.3471H421.55L433.183 73.7099L428.677 71.2891L416.056 86.3034L418.543 90.6032H428.632C431.984 90.6032 434.083 92.3861 434.083 95.2438C434.083 98.1016 431.984 99.7971 428.588 99.7971H396.573C394.809 99.7971 393.31 99.3251 391.89 98.4774C392.022 97.7958 392.102 97.0354 392.102 96.2227V83.3757L387.463 84.0137V94.7719C387.463 98.0929 385.743 99.7446 382.7 99.7446C381.201 99.7446 379.825 99.4912 378.326 98.8969C378.537 98.0929 378.67 97.1927 378.67 96.2139V87.8328L373.986 88.4708L374.031 94.7632C374.031 98.1628 372.355 99.7359 369.224 99.7359C367.98 99.7359 366.604 99.4388 365.229 98.8882C365.44 98.0842 365.573 97.184 365.573 96.2489V87.8678L360.889 88.5058L360.933 94.7981C360.933 98.1628 359.258 99.7709 356.127 99.7709C354.195 99.7709 352.564 99.2203 351.02 98.1978C351.153 97.5598 351.188 96.9218 351.188 96.2401V87.859L346.505 88.497L346.549 94.7894C346.549 98.1541 344.873 99.7621 341.742 99.7621H341.724H341.707H339.343V93.7232C339.343 87.6843 335.436 83.8127 330.03 83.8127C324.235 83.8127 319.896 88.1911 319.896 94.3612C319.896 100.531 323.935 104.656 329.986 104.656H334.625C333.981 108.397 329.906 109.935 322.26 109.935L322.771 113.807C332.384 113.807 338.743 111.211 339.299 104.665H341.707C345.314 104.665 347.845 103.686 349.389 101.904C351.364 103.686 353.64 104.665 356.127 104.665C359.302 104.665 361.71 103.818 363.253 102.279C365.44 103.852 367.628 104.622 369.647 104.622C372.478 104.622 374.754 103.774 376.297 102.323C378.784 103.896 381.06 104.622 383.423 104.622C386.475 104.622 388.706 103.774 390.161 102.157C392.005 103.818 394.192 104.665 396.556 104.665H428.791C434.886 104.665 438.749 101.135 438.749 95.2613C438.749 89.8167 434.586 86.3297 428.236 86.3297L428.244 86.3471ZM334.713 99.8757C333.214 99.9194 331.661 100.007 330.506 100.007C326.775 100.007 324.156 98.0929 324.156 94.2213C324.156 90.778 326.599 88.5669 329.606 88.5669C332.614 88.5669 334.713 90.7343 334.713 94.099V99.8845V99.8757Z" fill="#231F20"/>
<path d="M448.547 73.6318L443.864 74.2698V104.683H448.547V73.6318Z" fill="#231F20"/>
<path d="M443.952 111.019C443.952 110.04 444.728 109.358 445.928 109.358C446.66 109.358 447.559 109.568 448.67 109.996V107.532C447.638 107.104 446.351 106.728 445.151 106.728C442.832 106.728 441.156 108.345 441.156 110.468C441.156 111.316 441.324 112.085 441.756 112.81H439.569V115.79H449.438L450.082 112.81H444.587C444.155 112.303 443.943 111.744 443.943 111.028L443.952 111.019Z" fill="#231F20"/>
<path d="M474.82 76.9528L478.375 80.3961L482.158 76.6557L478.339 72.9502L474.82 76.3585L471.293 72.9502L467.518 76.6557L471.337 80.3961L474.82 76.9528Z" fill="#231F20"/>
<path d="M502.717 104.683H506.112C512.418 104.683 515.558 101.659 515.558 96.2584V83.4114L510.919 84.0494V94.8076C510.919 98.1723 509.287 99.7804 506.156 99.7804H502.761H502.743H502.726C500.794 99.7804 499.162 99.2298 497.619 98.2073C497.751 97.5693 497.787 96.9313 497.787 96.2496V87.8685L493.103 88.5065L493.148 94.7989C493.148 98.1636 491.472 99.7716 488.341 99.7716H488.323H488.306C485.818 99.7716 484.698 98.6268 484.698 95.734L484.654 81.7422L480.015 82.3802V84.8884C478.172 84.2067 476.496 83.8659 474.732 83.8659C468.806 83.8659 464.687 88.8386 464.687 94.6678C464.687 100.497 468.806 105.05 474.732 105.05C477.219 105.05 479.583 104.324 482.326 102.926C483.658 104.115 485.633 104.674 488.288 104.674C491.895 104.674 494.426 103.695 495.97 101.912C497.945 103.695 500.221 104.674 502.708 104.674L502.717 104.683ZM474.732 100.427C471.381 100.383 469.07 97.8752 469.07 94.5979C469.07 91.3206 471.434 88.4716 474.953 88.4716C476.84 88.4716 478.472 89.0221 480.059 89.5815V96.2584C480.059 97.3683 480.148 98.3384 480.315 99.1948C478.595 99.9988 476.752 100.47 474.732 100.427Z" fill="#231F20"/>
<path d="M499.242 81.4184L495.379 77.7129L491.604 81.4184L495.467 85.1589L499.242 81.4184Z" fill="#231F20"/>
<path d="M509.111 110.853L505.592 107.453L501.817 111.15L505.636 114.89L509.111 111.447L512.674 114.89L516.458 111.15L512.63 107.453L509.111 110.853Z" fill="#231F20"/>
<path d="M575.999 83.6297C569.993 83.6297 565.786 87.6673 565.786 93.9247C565.786 95.5852 566.341 97.5428 567.373 99.7976H542.987C541.056 99.7976 539.468 99.247 537.969 98.2682C538.101 97.6302 538.136 96.9485 538.136 96.2669L538.092 92.8235C538.092 86.9944 534.097 83.4199 528.558 83.4199H524.863V88.1829H527.526C530.922 88.1829 533.365 90.2629 533.409 93.3304L533.453 95.4541C533.453 98.1721 531.777 99.7889 528.646 99.7889H517.869L518.68 104.683H528.594C532.157 104.683 534.732 103.748 536.275 101.921C538.207 103.704 540.482 104.683 542.969 104.683H573.882C581.396 104.683 585.991 100.427 585.991 93.5402C585.991 87.8421 581.696 83.6297 575.99 83.6297H575.999ZM574.111 99.7889H572.136C570.892 97.6215 570.337 95.6638 570.337 93.7499C570.337 90.7261 572.744 88.1392 575.831 88.1392C578.918 88.1392 581.326 90.4377 581.326 93.6276C581.326 97.4991 578.539 99.7976 574.111 99.7976V99.7889Z" fill="#231F20"/>
<path d="M143.487 129.267L141.626 131.076C141.017 131.661 140.894 132.457 141.282 133.199L142.473 135.498C142.905 136.328 143.884 136.957 145.03 137.15H145.039C145.304 137.193 145.568 137.202 145.824 137.193C145.912 137.193 146.001 137.185 146.08 137.176C146.247 137.158 146.415 137.141 146.583 137.097C146.671 137.08 146.75 137.062 146.838 137.036C146.997 136.992 147.147 136.931 147.297 136.861C147.359 136.835 147.429 136.809 147.491 136.765C147.685 136.651 147.87 136.529 148.029 136.381L149.89 134.572C150.499 133.986 150.622 133.191 150.234 132.448L149.043 130.149C148.611 129.31 147.623 128.681 146.468 128.498C146.247 128.463 146.036 128.445 145.815 128.445C144.898 128.445 144.051 128.742 143.513 129.258" fill="#231F20"/>
<path d="M145.145 113.903C145.145 113.903 145.11 113.903 145.083 113.903C143.928 114.078 142.94 114.707 142.499 115.537L141.291 117.827C140.894 118.57 141.026 119.365 141.626 119.959L143.478 121.777C144.14 122.424 145.268 122.73 146.424 122.564H146.433C147.588 122.38 148.585 121.76 149.026 120.921L150.234 118.631C150.525 118.072 150.534 117.486 150.26 116.979C150.172 116.813 150.049 116.647 149.899 116.507L148.047 114.689C147.888 114.541 147.711 114.41 147.509 114.305C147.456 114.27 147.394 114.252 147.332 114.217C147.182 114.139 147.015 114.078 146.847 114.025C146.777 114.008 146.706 113.99 146.635 113.973C146.459 113.929 146.283 113.903 146.089 113.885C146.018 113.885 145.939 113.868 145.868 113.868C145.806 113.868 145.754 113.868 145.692 113.868C145.507 113.868 145.33 113.877 145.145 113.903Z" fill="#231F20"/>
<path d="M52.663 113.807C52.6012 113.807 52.5395 113.815 52.4777 113.824C52.2749 113.842 52.0809 113.868 51.8957 113.912C51.8339 113.929 51.7722 113.938 51.7104 113.955C51.5341 114.008 51.3577 114.078 51.1989 114.156C51.146 114.182 51.0931 114.2 51.0402 114.226C50.8373 114.34 50.6609 114.462 50.5022 114.611L48.6412 116.42C48.0415 117.005 47.9092 117.801 48.2973 118.543L49.4879 120.842C49.5937 121.052 49.7437 121.244 49.9113 121.427C49.973 121.489 50.0612 121.55 50.1317 121.611C50.2464 121.716 50.361 121.821 50.5022 121.917C50.5904 121.969 50.6962 122.013 50.7932 122.057C50.9343 122.135 51.0754 122.214 51.2254 122.275C51.3136 122.31 51.4106 122.319 51.5076 122.345C51.684 122.397 51.8604 122.459 52.0544 122.485C53.2186 122.677 54.3563 122.371 55.0266 121.725L56.8875 119.924C57.4961 119.339 57.6196 118.543 57.2315 117.801L56.0409 115.502C55.6087 114.672 54.6209 114.034 53.4655 113.85C53.4479 113.85 53.4214 113.85 53.4038 113.85C53.2098 113.824 53.0246 113.807 52.8305 113.807C52.7776 113.807 52.7247 113.807 52.6718 113.807" fill="#231F20"/>
<path d="M52.0897 128.436H52.0808C50.9255 128.62 49.9289 129.24 49.4967 130.079L48.2884 132.369C47.9004 133.112 48.0238 133.907 48.6236 134.502L50.4757 136.319C50.6256 136.468 50.8108 136.59 51.0137 136.704C51.0666 136.739 51.1372 136.756 51.1989 136.791C51.3488 136.861 51.5076 136.922 51.6751 136.975C51.7457 137.001 51.8251 137.019 51.9045 137.036C52.072 137.071 52.2484 137.097 52.4248 137.115C52.5042 137.115 52.5924 137.132 52.6718 137.132C52.9011 137.132 53.1392 137.132 53.3773 137.097C53.395 137.097 53.4214 137.097 53.4391 137.097C54.5944 136.922 55.5822 136.293 56.0232 135.463L57.2315 133.173C57.6195 132.43 57.4961 131.635 56.8963 131.041L55.0442 129.223C54.5062 128.69 53.6507 128.393 52.7247 128.393C52.5218 128.393 52.3102 128.41 52.1073 128.436" fill="#231F20"/>
<path d="M140.841 100.007C140.312 100.033 139.756 100.173 139.253 100.427H139.245C138.204 100.951 137.454 101.851 137.295 102.769L136.855 105.312C136.713 106.142 137.084 106.859 137.833 107.235L140.162 108.397C140.991 108.808 142.199 108.747 143.213 108.24C144.254 107.715 145.004 106.815 145.163 105.889L145.595 103.346C145.736 102.515 145.365 101.799 144.616 101.423L142.287 100.261C142.085 100.164 141.864 100.095 141.626 100.051C141.582 100.051 141.538 100.051 141.494 100.042C141.317 100.016 141.132 99.998 140.947 99.998C140.912 99.998 140.867 99.998 140.823 99.998" fill="#231F20"/>
<path d="M76.4317 79.5653C76.3611 79.5653 76.2817 79.5829 76.2112 79.5916C76.1054 79.6178 75.9995 79.6441 75.9025 79.6877C75.8408 79.714 75.779 79.7313 75.7173 79.7663C75.6115 79.8187 75.5233 79.8975 75.4351 79.9762C75.391 80.0198 75.3381 80.0461 75.3028 80.0898C75.1793 80.2209 75.0735 80.3694 74.9853 80.5442L73.8123 82.8513C73.3889 83.6903 73.4507 84.8526 73.9798 85.8926C74.509 86.9239 75.4174 87.658 76.3435 87.8153L78.91 88.2435C79.7478 88.3834 80.471 88.0164 80.8503 87.2736L82.0233 84.9663C82.4466 84.1273 82.3849 82.9738 81.8645 81.9425C81.4677 81.1647 80.8591 80.5528 80.1888 80.2295C79.9595 80.1246 79.7302 80.046 79.5009 80.0023L76.9344 79.5741C76.8462 79.5567 76.7492 79.5479 76.661 79.5479C76.5904 79.5479 76.5111 79.5478 76.4405 79.5566" fill="#231F20"/>
<path d="M91.4866 167.143L89.167 168.323C88.3292 168.751 87.6942 169.721 87.5001 170.866C87.3149 172.011 87.606 173.139 88.2674 173.811L90.0931 175.655C90.2254 175.795 90.3753 175.9 90.5341 175.988C90.5605 175.996 90.5782 176.014 90.6046 176.023C90.7634 176.11 90.931 176.162 91.0985 176.189C91.1073 176.189 91.1162 176.189 91.125 176.189C91.2749 176.215 91.4337 176.206 91.5924 176.189C91.6277 176.189 91.6718 176.189 91.7071 176.171C91.8835 176.136 92.0599 176.084 92.2362 175.996L94.5558 174.816C95.3937 174.388 96.0375 173.401 96.2227 172.256C96.4079 171.111 96.108 169.992 95.4466 169.328L93.6297 167.484C93.2681 167.117 92.8183 166.925 92.3421 166.925C92.0599 166.925 91.76 166.995 91.4778 167.143" fill="#231F20"/>
<path d="M66.2716 88.2967L63.6963 88.6725C62.8584 88.7949 62.2851 89.363 62.1528 90.1932L61.756 92.7451C61.7207 92.9811 61.7207 93.217 61.756 93.4617C61.7648 93.5054 61.7824 93.5579 61.7912 93.5928C61.8265 93.7938 61.8706 93.9948 61.95 94.1958C61.9764 94.257 62.0117 94.3095 62.0382 94.3619C62.1264 94.5454 62.2146 94.7377 62.3204 94.9125C62.3733 94.9824 62.4351 95.0436 62.488 95.1222C62.6026 95.2795 62.7173 95.4281 62.8584 95.5767C63.6698 96.3807 64.7722 96.8177 65.7071 96.6866L68.2824 96.3108C69.1203 96.1884 69.6936 95.6204 69.8259 94.7901L70.2227 92.2382C70.3639 91.3118 69.9493 90.2194 69.1203 89.3979C69.1115 89.3979 69.1027 89.3804 69.0938 89.3717C68.9086 89.1882 68.7146 89.0309 68.5029 88.8998C68.4324 88.8473 68.3618 88.8211 68.2913 88.7774C68.1413 88.69 67.9826 88.6026 67.8238 88.5327C67.7444 88.4978 67.6651 88.4715 67.5769 88.4453C67.4269 88.3929 67.2682 88.3492 67.1182 88.323C67.0301 88.3055 66.9419 88.2967 66.8625 88.2967C66.7478 88.288 66.6332 88.2793 66.5273 88.2793C66.448 88.2793 66.3686 88.2793 66.2892 88.2967" fill="#231F20"/>
<path d="M62.8318 155.354C62.6907 155.494 62.5761 155.642 62.4614 155.8C62.4085 155.869 62.3379 155.939 62.285 156.009C62.1792 156.167 62.0998 156.341 62.0204 156.507C61.9852 156.586 61.9322 156.656 61.9058 156.735C61.8264 156.918 61.7911 157.11 61.7559 157.303C61.747 157.355 61.7206 157.416 61.7118 157.469C61.6765 157.713 61.6765 157.958 61.7118 158.185L62.091 160.737C62.2145 161.568 62.7877 162.136 63.6256 162.267L66.2009 162.66C66.3244 162.677 66.4391 162.686 66.5625 162.686C67.2505 162.686 67.9913 162.406 68.6351 161.935C68.7851 161.821 68.935 161.699 69.0673 161.568C69.8963 160.755 70.3197 159.671 70.1874 158.745L69.8081 156.193C69.6846 155.363 69.1114 154.794 68.2823 154.663L65.707 154.27C65.5836 154.253 65.4513 154.244 65.3278 154.244C64.4811 154.244 63.555 154.663 62.8495 155.363" fill="#231F20"/>
<path d="M117.672 163.717L116.499 166.025C116.076 166.855 116.137 168.017 116.658 169.048C117.187 170.088 118.095 170.823 119.03 170.98L121.597 171.417C122.426 171.557 123.158 171.19 123.537 170.447L124.71 168.14C125.142 167.301 125.072 166.138 124.543 165.098C124.013 164.067 123.105 163.333 122.179 163.176L119.612 162.747C119.498 162.73 119.383 162.721 119.268 162.721C118.58 162.721 117.998 163.079 117.672 163.717Z" fill="#231F20"/>
<path d="M132.806 154.314L130.231 154.69C129.393 154.812 128.82 155.38 128.688 156.21L128.291 158.762C128.15 159.689 128.573 160.772 129.393 161.594C129.534 161.734 129.693 161.847 129.852 161.97C129.914 162.022 129.975 162.083 130.046 162.127C130.24 162.249 130.443 162.345 130.646 162.433C130.69 162.45 130.734 162.485 130.769 162.494C130.963 162.573 131.148 162.608 131.342 162.642C131.404 162.651 131.457 162.677 131.519 162.686C131.766 162.721 132.013 162.721 132.242 162.686L134.817 162.31C135.655 162.188 136.228 161.62 136.361 160.79L136.757 158.238C136.899 157.311 136.475 156.219 135.655 155.398C134.949 154.69 134.023 154.27 133.168 154.27C133.044 154.27 132.93 154.27 132.806 154.296" fill="#231F20"/>
<path d="M104.848 167.484L103.014 169.319C102.344 169.984 102.044 171.111 102.22 172.256C102.247 172.396 102.291 172.527 102.326 172.658C102.361 172.798 102.388 172.938 102.432 173.069C102.476 173.191 102.546 173.296 102.608 173.418C102.67 173.541 102.723 173.68 102.793 173.794C102.864 173.908 102.952 173.995 103.04 174.091C103.12 174.187 103.19 174.301 103.278 174.388C103.455 174.554 103.658 174.703 103.869 174.808L106.18 176.005C106.357 176.092 106.533 176.154 106.7 176.189C106.745 176.189 106.78 176.197 106.824 176.206C106.983 176.232 107.133 176.232 107.283 176.206C107.291 176.206 107.309 176.206 107.318 176.206C107.485 176.18 107.662 176.119 107.812 176.049C107.838 176.04 107.856 176.023 107.873 176.014C108.032 175.926 108.182 175.822 108.314 175.682L110.149 173.846C110.317 173.68 110.458 173.488 110.581 173.27C110.634 173.173 110.66 173.06 110.705 172.955C110.757 172.824 110.828 172.702 110.863 172.562C110.899 172.422 110.907 172.273 110.925 172.125C110.943 172.002 110.978 171.889 110.978 171.758C110.987 171.609 110.96 171.452 110.952 171.295C110.952 171.163 110.952 171.041 110.925 170.91C110.749 169.765 110.114 168.786 109.276 168.349L106.965 167.152C106.674 167.003 106.383 166.925 106.083 166.925C105.616 166.925 105.175 167.117 104.813 167.484" fill="#231F20"/>
<path d="M78.8748 162.721L76.2995 163.141C75.3646 163.289 74.4562 164.023 73.9182 165.055C73.8476 165.194 73.8035 165.334 73.7506 165.483C73.7065 165.605 73.6448 165.728 73.6095 165.85C73.5742 165.998 73.5566 166.147 73.5389 166.287C73.5213 166.409 73.486 166.532 73.4772 166.645C73.4684 166.802 73.486 166.951 73.5037 167.108C73.5037 167.204 73.5037 167.309 73.5213 167.405C73.5654 167.65 73.636 167.877 73.7418 168.087L74.8972 170.403C74.9853 170.578 75.1 170.726 75.2235 170.858C75.2588 170.901 75.3029 170.927 75.347 170.962C75.444 171.05 75.5322 171.12 75.638 171.181C75.6909 171.216 75.7527 171.233 75.8144 171.26C75.9202 171.303 76.0261 171.338 76.1319 171.364C76.2024 171.382 76.273 171.391 76.3436 171.391C76.5023 171.399 76.6611 171.408 76.8286 171.382L79.404 170.971C80.3388 170.823 81.2472 170.088 81.7852 169.048C82.3144 168.017 82.3761 166.864 81.9616 166.025L80.8063 163.709C80.4888 163.062 79.8978 162.695 79.2099 162.695C79.0953 162.695 78.9894 162.704 78.8748 162.721Z" fill="#231F20"/>
<path d="M91.2308 74.7849C91.2308 74.7849 91.1956 74.7849 91.1867 74.7849C91.0192 74.8111 90.8516 74.8636 90.7017 74.9422C90.6752 74.9597 90.6576 74.9684 90.6311 74.9772C90.4724 75.0646 90.3224 75.1694 90.1901 75.3005L88.3557 77.1358C87.6854 77.8 87.3855 78.9274 87.5619 80.0723C87.7471 81.2171 88.3733 82.1959 89.2112 82.6242L91.5219 83.8215C92.2627 84.206 93.0741 84.0836 93.6739 83.4894L95.5083 81.6541C96.1786 80.9899 96.4785 79.8625 96.3021 78.7176C96.2756 78.5516 96.2227 78.403 96.1786 78.2457C96.1433 78.1321 96.1257 78.0098 96.0904 77.8961C96.0287 77.7301 95.9405 77.5903 95.8611 77.4417C95.817 77.3543 95.7729 77.2494 95.72 77.1708C95.6494 77.0572 95.5612 76.9785 95.4731 76.8736C95.3937 76.7775 95.3231 76.6639 95.2349 76.5765C95.0585 76.4017 94.8557 76.2619 94.6528 76.157L92.3421 74.9597C92.1745 74.8723 91.9981 74.8199 91.8218 74.7762C91.7777 74.7674 91.7336 74.7674 91.6895 74.7587C91.6013 74.75 91.5131 74.7412 91.4337 74.7412C91.372 74.7412 91.3102 74.7412 91.2485 74.7587" fill="#231F20"/>
<path d="M140.153 142.629L137.816 143.774C137.057 144.15 136.687 144.867 136.819 145.688L137.243 148.24C137.393 149.158 138.133 150.066 139.165 150.591C139.677 150.853 140.233 151.002 140.771 151.037C141.035 151.054 141.3 151.037 141.547 150.993C141.794 150.949 142.023 150.879 142.235 150.774L144.572 149.63C145.33 149.254 145.701 148.537 145.568 147.716L145.145 145.172C145.11 144.936 145.03 144.709 144.925 144.491C144.889 144.421 144.836 144.36 144.801 144.29C144.713 144.141 144.633 143.984 144.519 143.844C144.439 143.748 144.334 143.66 144.237 143.564C144.14 143.468 144.051 143.363 143.937 143.276C143.822 143.189 143.69 143.119 143.566 143.031C143.452 142.961 143.346 142.874 143.222 142.813C142.64 142.516 141.996 142.367 141.406 142.367C140.947 142.367 140.524 142.454 140.162 142.629" fill="#231F20"/>
<path d="M131.748 88.331C131.651 88.3398 131.545 88.3485 131.448 88.366C131.316 88.3922 131.184 88.4272 131.051 88.4709C130.945 88.4971 130.848 88.532 130.751 88.5757C130.601 88.6369 130.46 88.7156 130.328 88.7942C130.24 88.8466 130.16 88.8816 130.081 88.934C129.861 89.0826 129.658 89.2399 129.464 89.4322C128.635 90.245 128.211 91.3286 128.352 92.255L128.732 94.8069C128.855 95.6372 129.428 96.2052 130.257 96.3363L132.833 96.7296C133.776 96.8782 134.87 96.4412 135.69 95.6372C135.823 95.5061 135.937 95.3488 136.052 95.2089C136.114 95.1303 136.184 95.0604 136.237 94.9817C136.334 94.8419 136.396 94.6846 136.475 94.536C136.519 94.4486 136.581 94.3612 136.616 94.2651C136.678 94.1252 136.696 93.9767 136.731 93.8281C136.758 93.7232 136.793 93.6271 136.81 93.5222C136.846 93.2775 136.846 93.0416 136.81 92.8056L136.431 90.2537C136.308 89.4234 135.734 88.8554 134.897 88.7243L132.321 88.331C132.233 88.3135 132.154 88.3135 132.066 88.3135C131.96 88.3135 131.854 88.3135 131.757 88.331" fill="#231F20"/>
<path d="M106.912 74.8027C106.912 74.8027 106.833 74.8027 106.797 74.8202C106.621 74.8551 106.445 74.9076 106.268 74.995L103.949 76.1748C103.102 76.603 102.467 77.5818 102.282 78.7267C102.097 79.8716 102.396 80.9902 103.049 81.6544L104.875 83.4984C105.466 84.0927 106.277 84.2238 107.018 83.848L109.337 82.6682C110.175 82.2399 110.81 81.2699 111.004 80.125C111.189 78.9801 110.898 77.8528 110.228 77.1798L108.403 75.3358C108.27 75.196 108.12 75.0911 107.962 75.0037C107.944 74.995 107.917 74.9775 107.9 74.9687C107.741 74.8901 107.573 74.8289 107.397 74.8027H107.379C107.309 74.794 107.23 74.7852 107.159 74.7852C107.071 74.7852 106.983 74.7852 106.903 74.8027" fill="#231F20"/>
<path d="M121.685 79.6182L119.11 80.029C118.175 80.1775 117.258 80.9116 116.728 81.9516C116.199 82.9829 116.129 84.1365 116.543 84.9755L117.699 87.2914C118.078 88.043 118.801 88.4188 119.63 88.279L122.205 87.8682C123.14 87.7196 124.049 86.9855 124.587 85.9543C124.657 85.8144 124.701 85.6659 124.763 85.5173C124.807 85.4037 124.869 85.2813 124.895 85.1677C124.948 85.0017 124.957 84.8356 124.983 84.6696C125.001 84.5734 125.028 84.4686 125.036 84.3724C125.045 84.1889 125.028 84.0229 125.01 83.8568C125.001 83.7694 125.01 83.6908 124.992 83.6121C124.948 83.3674 124.878 83.1402 124.772 82.9304L123.616 80.6145C123.528 80.4397 123.414 80.2911 123.29 80.16C123.255 80.1163 123.211 80.0901 123.167 80.0552C123.07 79.9678 122.981 79.8979 122.867 79.8367C122.814 79.8017 122.761 79.7843 122.699 79.7668C122.593 79.7231 122.488 79.6881 122.373 79.6619C122.302 79.6444 122.241 79.6357 122.17 79.6357C122.091 79.6357 122.011 79.6269 121.941 79.6269C121.853 79.6269 121.773 79.6269 121.685 79.6444" fill="#231F20"/>
<path d="M57.0817 99.9901C57.0288 99.9901 56.9847 99.9901 56.9406 100.007C56.7024 100.051 56.4819 100.121 56.2879 100.217L53.9507 101.362C53.1922 101.738 52.8218 102.445 52.9541 103.276L53.3775 105.828C53.4127 106.064 53.4921 106.291 53.5979 106.509C53.6244 106.553 53.6597 106.597 53.6861 106.64C53.7832 106.815 53.8802 106.99 54.0125 107.156C54.0566 107.217 54.1271 107.261 54.1712 107.313C54.3035 107.453 54.4358 107.593 54.5857 107.715C54.6475 107.768 54.7357 107.811 54.8062 107.864C54.965 107.977 55.1237 108.091 55.3001 108.178C56.3232 108.694 57.5315 108.773 58.3605 108.362L60.6977 107.217C61.4562 106.841 61.8266 106.133 61.6943 105.303L61.271 102.751C61.121 101.825 60.3802 100.925 59.3395 100.392C59.3307 100.392 59.3218 100.392 59.313 100.383C59.0749 100.261 58.8191 100.164 58.5634 100.095C58.5545 100.095 58.5457 100.095 58.5369 100.086C58.2723 100.016 58.0077 99.9726 57.752 99.9551H57.7343C57.6902 99.9551 57.6373 99.9551 57.5932 99.9551C57.4168 99.9551 57.2492 99.9726 57.0905 99.9901" fill="#231F20"/>
<path d="M55.3088 142.733C54.2593 143.257 53.5184 144.158 53.3509 145.084L52.9187 147.636C52.7776 148.457 53.148 149.183 53.8977 149.559L56.2261 150.721C56.4377 150.826 56.667 150.904 56.914 150.948C56.9493 150.948 56.9845 150.948 57.0198 150.948C57.2403 150.983 57.4608 151.001 57.6901 150.983C57.7871 150.983 57.8753 150.957 57.9723 150.939C58.1487 150.913 58.3251 150.904 58.5015 150.852C58.6162 150.826 58.722 150.765 58.8455 150.73C58.9954 150.677 59.1541 150.634 59.2953 150.555C60.336 150.031 61.0856 149.13 61.2444 148.213L61.6765 145.67C61.8177 144.839 61.4561 144.123 60.6976 143.747L58.3692 142.585C58.0076 142.401 57.5666 142.314 57.108 142.314C56.5171 142.314 55.8909 142.453 55.3176 142.742" fill="#231F20"/>
<path d="M168.102 142.953C168.005 143.022 167.908 143.101 167.802 143.171C165.915 144.499 163.719 145.181 161.391 145.181C160.994 145.181 160.597 145.155 160.191 145.111C162.52 146.44 164.275 148.485 165.148 150.932C165.254 151.22 165.342 151.517 165.421 151.814C166.224 153.999 168.005 155.712 170.298 156.446C172.168 157.041 173.844 156.813 175.299 155.747C176.657 154.76 177.742 153.108 178.439 150.967C178.994 149.254 180.414 143.529 175.079 141.816C174.302 141.572 173.509 141.449 172.715 141.449C171.083 141.449 169.461 141.956 168.111 142.935" fill="#231F20"/>
<path d="M170.272 94.5539C167.988 95.2967 166.197 97.0096 165.386 99.2731C165.386 99.2731 165.386 99.2731 165.386 99.2819C165.333 99.4829 165.254 99.7538 165.157 100.025C164.257 102.524 162.511 104.56 160.182 105.889C162.837 105.609 165.483 106.238 167.617 107.689C167.891 107.881 168.155 108.074 168.411 108.292C170.343 109.577 172.803 109.918 175.079 109.175C176.94 108.572 178.165 107.409 178.712 105.705C179.224 104.115 179.118 102.148 178.421 100.007C177.716 97.8748 176.631 96.2231 175.273 95.2355C174.347 94.5626 173.332 94.2305 172.23 94.2305C171.604 94.2305 170.951 94.3354 170.272 94.5626" fill="#231F20"/>
<path d="M157.122 74.3215C155.226 75.6849 154.07 77.7998 153.947 80.1245C153.947 80.142 153.947 80.1507 153.947 80.1594C153.973 80.5352 153.982 80.8848 153.973 81.2169V81.2344V81.2868C153.868 83.83 152.844 86.2508 151.081 88.1822C153.462 87.1335 156.161 86.9063 158.595 87.5792L158.692 87.6141C158.754 87.6404 158.815 87.6491 158.868 87.6753C159.133 87.7627 159.389 87.8414 159.68 87.955C161.964 88.558 164.354 88.121 166.259 86.7489C170.792 83.4804 167.644 78.464 166.577 77.0045C165.783 75.9208 163.446 73.1592 160.438 73.1592C159.397 73.1592 158.286 73.4913 157.122 74.3302" fill="#231F20"/>
<path d="M138.345 59.1242C136.943 61.0381 136.519 63.4327 137.163 65.7225V65.7312C137.269 65.9759 137.384 66.2993 137.481 66.6314C138.195 69.1483 137.975 71.7701 136.907 74.1385C138.839 72.4081 141.255 71.3943 143.795 71.272H143.857H143.91C144.298 71.2632 144.695 71.2632 145.127 71.2982C147.447 71.1496 149.555 70.0048 150.922 68.1345C152.077 66.5614 152.368 64.9009 151.804 63.2055C151.274 61.6149 150.022 60.0855 148.188 58.7659C147.297 58.1279 145.092 56.7383 142.764 56.7383C141.238 56.7383 139.668 57.3326 138.363 59.1067" fill="#231F20"/>
<path d="M36.3821 73.4389C34.7858 73.9632 33.2424 75.2042 31.9106 77.022C30.5789 78.8398 29.8733 80.6838 29.8733 82.3531C29.8733 84.1359 30.6671 85.6216 32.2546 86.7577C34.2037 88.156 36.6467 88.5755 38.9663 87.9113C38.9663 87.9113 38.9751 87.9113 38.9839 87.9113C39.1868 87.8239 39.4602 87.7365 39.7424 87.6492C42.3618 86.8888 45.0253 87.1248 47.4331 88.191C45.6427 86.2334 44.6108 83.7776 44.5314 81.1995C44.5226 80.8499 44.5314 80.5178 44.5579 80.177C44.4609 77.8785 43.3055 75.7111 41.3652 74.3216C40.298 73.5612 39.1956 73.168 38.0667 73.168C37.5199 73.168 36.9554 73.2641 36.3998 73.4476" fill="#231F20"/>
<path d="M159.547 163.088C159.547 163.088 159.539 163.088 159.53 163.088C159.336 163.167 159.053 163.263 158.771 163.342C157.731 163.639 156.707 163.787 155.676 163.787C154.106 163.787 152.536 163.429 151.072 162.782C152.862 164.749 153.903 167.213 153.982 169.8C153.991 170.141 153.982 170.482 153.956 170.823C154.044 173.121 155.208 175.288 157.148 176.678C158.736 177.814 160.412 178.111 162.123 177.543C163.719 177.019 165.271 175.778 166.594 173.96C167.661 172.501 170.792 167.484 166.25 164.224C164.91 163.263 163.331 162.765 161.726 162.765C160.994 162.765 160.262 162.87 159.539 163.071" fill="#231F20"/>
<path d="M137.401 184.64C137.357 184.779 137.313 184.919 137.26 185.059C136.511 187.366 136.916 189.936 138.372 191.92C141.67 196.412 146.733 193.292 148.205 192.225C149.678 191.168 154.22 187.349 150.913 182.865C149.484 180.925 147.271 179.78 144.845 179.719C144.731 179.728 144.589 179.728 144.439 179.728H144.148C141.485 179.684 138.945 178.671 136.925 176.853C138.054 179.352 138.239 182.096 137.419 184.648" fill="#231F20"/>
<path d="M20.0834 100.033C19.3867 102.166 19.2896 104.141 19.8012 105.731C20.348 107.427 21.5739 108.598 23.4437 109.192C25.7191 109.926 28.1709 109.577 30.1642 108.248C30.1642 108.248 30.1642 108.248 30.173 108.248C30.3582 108.091 30.6228 107.89 30.905 107.707C33.1099 106.238 35.7117 105.627 38.3311 105.906C35.9763 104.569 34.2124 102.498 33.348 100.007C33.2687 99.78 33.1981 99.5528 33.1364 99.3256C33.1364 99.3256 33.1364 99.3256 33.1364 99.3168C33.1364 99.2906 33.1187 99.2731 33.1187 99.2469C32.325 97.0446 30.5346 95.3142 28.2239 94.5713C27.5183 94.3441 26.8657 94.248 26.2659 94.248C22.3324 94.248 20.5773 98.5565 20.0922 100.042" fill="#231F20"/>
<path d="M32.228 164.251C27.6948 167.519 30.8433 172.527 31.9193 173.986C32.9865 175.446 36.8407 179.947 41.3651 176.678C43.323 175.271 44.4784 173.086 44.549 170.674C44.5313 170.482 44.5313 170.22 44.5401 169.949C44.6019 167.283 45.6338 164.784 47.4418 162.8C45.9777 163.447 44.4078 163.814 42.8291 163.814C41.8061 163.814 40.8006 163.674 39.8305 163.394C39.4865 163.298 39.1514 163.184 38.8251 163.044C38.1548 162.861 37.4668 162.765 36.7877 162.765C35.1826 162.765 33.5774 163.272 32.228 164.251Z" fill="#231F20"/>
<path d="M23.4261 141.851C18.0991 143.573 19.5278 149.297 20.0923 151.019C20.789 153.151 21.8827 154.803 23.2409 155.791C24.6961 156.848 26.3718 157.075 28.2416 156.472C30.517 155.738 32.2986 154.034 33.1188 151.788C33.1717 151.552 33.2687 151.238 33.3834 150.923C34.2918 148.45 36.0293 146.44 38.3223 145.129C37.9166 145.172 37.5109 145.199 37.1141 145.199C34.7769 145.199 32.5632 144.499 30.7111 143.189C30.6493 143.145 30.6052 143.11 30.5523 143.075C30.4817 143.023 30.4112 142.97 30.3406 142.918C29.0177 141.974 27.4214 141.476 25.8162 141.476C25.0136 141.476 24.2022 141.598 23.4261 141.851Z" fill="#231F20"/>
<path d="M54.2505 179.728H53.9683H53.9506H53.8801C51.4018 179.728 49.0558 180.908 47.6005 182.9C44.3108 187.401 48.8617 191.194 50.3346 192.26C52.1691 193.58 54.03 194.279 55.7145 194.288H55.741C57.5314 194.288 59.0219 193.493 60.1596 191.928C61.5972 189.962 62.0029 187.497 61.2797 185.164C61.2268 185.015 61.1562 184.806 61.0857 184.596C60.2919 182.027 60.4771 179.317 61.5972 176.862C59.5334 178.706 56.9493 179.728 54.2328 179.737" fill="#231F20"/>
<path d="M73.442 190.827C73.3008 190.88 73.1509 190.923 73.001 190.967C73.001 190.967 72.9833 190.967 72.9745 190.976C72.9745 190.976 72.9392 190.984 72.9216 190.993C70.6021 191.771 68.8117 193.563 68.0532 195.896C66.3334 201.175 71.8456 203.403 73.5743 203.954C75.3029 204.513 81.0885 205.911 82.8172 200.624C83.5316 198.422 83.2229 196.045 81.9528 194.096C81.8646 193.991 81.7853 193.895 81.7059 193.79C81.653 193.729 81.6001 193.667 81.556 193.606C81.4325 193.44 81.309 193.274 81.1944 193.108C79.7832 191.002 79.1835 188.441 79.4569 185.863C78.0899 188.214 75.982 189.971 73.4331 190.818" fill="#231F20"/>
<path d="M73.5212 47.0552C71.3692 47.7543 69.7023 48.8293 68.7057 50.1751C67.6385 51.6171 67.4092 53.2864 68.0178 55.1304C68.7674 57.4026 70.4961 59.168 72.7803 59.972C73.0449 60.0681 73.2566 60.1293 73.4683 60.1817C76.026 61.0644 78.0986 62.8036 79.4479 65.1282C79.1657 62.4977 79.7919 59.8933 81.2648 57.7609C81.4588 57.4813 81.6528 57.2191 81.8733 56.9656C83.1698 55.0517 83.5138 52.6134 82.7729 50.3587C82.1644 48.5146 80.9825 47.2999 79.2715 46.758C78.6013 46.5483 77.8604 46.4434 77.0667 46.4434C75.973 46.4434 74.7736 46.6444 73.5212 47.0552Z" fill="#231F20"/>
<path d="M95.1467 195.494C95.1467 195.494 95.1379 195.494 95.1291 195.503C94.935 195.651 94.7322 195.791 94.5293 195.922C94.5293 195.922 94.5293 195.922 94.5205 195.922C94.4941 195.94 94.4764 195.948 94.4588 195.966C92.5979 197.399 91.4866 199.619 91.4954 202.014C91.4954 203.954 92.2451 205.466 93.7003 206.506C95.0673 207.476 96.9812 207.991 99.239 207.991H99.2566C101.082 207.991 107.018 207.554 107.009 201.996C107.009 199.444 105.73 197.067 103.596 195.634C103.596 195.634 103.596 195.625 103.587 195.616C103.587 195.616 103.587 195.616 103.578 195.616L103.552 195.599C101.365 194.017 99.8475 191.631 99.2743 188.966C98.7186 191.596 97.2811 193.895 95.1644 195.485" fill="#231F20"/>
<path d="M22.0326 117.827C16.4233 117.827 16 123.717 16 125.517C16 127.318 16.4498 133.199 22.0414 133.199C24.4668 133.199 26.7158 132.089 28.1975 130.167C28.2945 130.018 28.4356 129.817 28.5855 129.625C30.2171 127.493 32.5279 126.059 35.1914 125.509C32.4838 124.949 30.129 123.481 28.5238 121.305L28.3474 121.06C28.3474 121.06 28.3298 121.034 28.3209 121.017C26.8745 119.024 24.5197 117.827 22.0414 117.827H22.0326Z" fill="#231F20"/>
<path d="M117.24 193.239C117.055 193.51 116.852 193.772 116.64 194.026C115.344 195.94 114.991 198.378 115.741 200.633C116.349 202.485 117.531 203.691 119.242 204.233C120.847 204.74 122.832 204.635 124.992 203.945C126.721 203.386 132.233 201.148 130.496 195.87C129.746 193.606 128.017 191.841 125.742 191.028C125.742 191.028 125.733 191.028 125.724 191.028C125.522 190.976 125.248 190.897 124.984 190.801C122.452 189.909 120.397 188.179 119.066 185.872C119.348 188.502 118.722 191.107 117.249 193.239" fill="#231F20"/>
<path d="M176.454 117.801C174.029 117.801 171.78 118.911 170.298 120.842C170.21 120.982 170.069 121.174 169.928 121.366C169.928 121.366 169.928 121.375 169.919 121.384C168.296 123.525 165.968 124.949 163.322 125.509C166.03 126.068 168.384 127.536 169.99 129.712C170.016 129.747 170.025 129.765 170.043 129.791C170.095 129.861 170.148 129.931 170.192 130.001C171.639 131.993 174.011 133.164 176.481 133.191C178.439 133.191 179.973 132.448 181.023 130.997C182.002 129.634 182.522 127.729 182.513 125.491C182.513 123.691 182.072 117.818 176.472 117.818L176.454 117.801Z" fill="#231F20"/>
<path d="M119.207 46.7667C117.496 47.3085 116.314 48.5233 115.714 50.376C114.973 52.6308 115.326 55.0604 116.667 57.0355C116.667 57.0355 116.667 57.0355 116.667 57.0442C116.825 57.2277 117.028 57.4899 117.222 57.7608C118.704 59.9457 119.321 62.5151 119.048 65.1194C120.397 62.786 122.488 61.0381 125.001 60.1817C125.23 60.103 125.46 60.0331 125.689 59.9719C125.689 59.9719 125.733 59.9544 125.76 59.9544C127.982 59.1591 129.728 57.3938 130.478 55.1041C131.078 53.26 130.848 51.5908 129.773 50.1488C128.776 48.8029 127.109 47.728 124.948 47.0376C123.705 46.6356 122.514 46.4346 121.429 46.4346C120.627 46.4346 119.886 46.5394 119.207 46.7579" fill="#231F20"/>
<path d="M99.2302 42.9999C97.4134 42.9999 91.469 43.4369 91.4778 49.0039C91.4778 51.4072 92.5979 53.627 94.5382 55.104C94.6881 55.1914 94.891 55.34 95.085 55.4885C97.2458 57.1053 98.6834 59.4038 99.2478 62.0343C99.8211 59.3513 101.303 57.0179 103.49 55.4273C103.578 55.3662 103.658 55.305 103.746 55.2438L103.772 55.2263C103.772 55.2263 103.781 55.2263 103.79 55.2089C105.801 53.7756 107.009 51.4422 107 48.9777C107 47.0375 106.251 45.5169 104.795 44.4769C103.428 43.5068 101.514 42.9912 99.2567 42.9912H99.239L99.2302 42.9999Z" fill="#231F20"/>
<path d="M50.3258 58.7657C48.8529 59.8319 44.3109 63.6423 47.6182 68.1344C49.0381 70.0658 51.243 71.2194 53.6684 71.2805H53.6772C53.7919 71.2718 53.9242 71.2718 54.0741 71.2718H54.4004C57.0904 71.3417 59.604 72.3555 61.5972 74.1471C60.5124 71.7437 60.2919 69.0869 61.0151 66.6224C61.1121 66.2816 61.2356 65.9495 61.3679 65.6261C61.9941 63.4151 61.5619 61.003 60.1508 59.0803C58.8455 57.315 57.2756 56.7207 55.7587 56.7207C53.4215 56.7207 51.2078 58.119 50.317 58.7657" fill="#231F20"/>
<path d="M154.52 146.475C151.733 146.475 149.281 147.89 148.108 150.171C147.262 151.823 147.165 153.746 147.844 155.59C148.54 157.478 149.978 159.042 151.874 159.994C153.065 160.589 154.379 160.912 155.675 160.912C156.434 160.912 157.184 160.807 157.889 160.597C158.127 160.501 158.401 160.414 158.665 160.335C159.856 159.837 160.632 158.474 161.443 156.892C162.281 155.258 162.899 153.903 162.59 152.601C162.502 152.356 162.414 152.068 162.343 151.788C161.655 149.918 160.235 148.362 158.321 147.401C157.131 146.798 155.808 146.483 154.511 146.483L154.52 146.475Z" fill="#231F20"/>
<path d="M161.399 108.694C160.941 108.694 160.482 108.729 160.041 108.799C157.942 109.131 156.099 110.189 154.846 111.77C153.629 113.309 153.127 115.17 153.418 116.997C153.965 120.396 157.122 122.852 160.923 122.852C161.382 122.852 161.84 122.817 162.29 122.747C164.319 122.432 166.091 121.436 167.344 119.95V119.863L167.617 119.592C167.705 119.452 167.82 119.304 167.961 119.12C168.667 117.984 168.482 116.367 168.199 114.663C167.908 112.863 167.608 111.403 166.594 110.538C166.365 110.381 166.1 110.189 165.853 109.988C164.592 109.157 163.013 108.703 161.408 108.703L161.399 108.694Z" fill="#231F20"/>
<path d="M126.641 188.275C126.827 188.319 127.065 188.336 127.312 188.336C128.458 188.336 129.684 187.76 130.954 187.113C133.124 186.02 134.094 185.199 134.517 184.098C134.517 184.089 134.517 184.08 134.526 184.072C134.526 184.054 134.535 184.037 134.544 184.019C134.579 183.905 134.614 183.801 134.65 183.704C135.276 181.729 135.073 179.571 134.067 177.622C132.683 174.939 129.966 173.2 127.144 173.2C126.086 173.2 125.08 173.436 124.145 173.908C122.479 174.755 121.261 176.259 120.723 178.137C120.168 180.078 120.397 182.175 121.367 184.045C122.346 185.942 123.943 187.358 125.883 188.039C126.112 188.1 126.377 188.179 126.641 188.266V188.275Z" fill="#231F20"/>
<path d="M151.857 91.0056C148.003 92.9545 146.327 97.3679 148.117 100.837C149.29 103.11 151.742 104.517 154.52 104.517C155.826 104.517 157.148 104.193 158.348 103.59C160.262 102.62 161.691 101.038 162.378 99.1157C162.449 98.8448 162.546 98.5652 162.617 98.3554C162.916 97.0882 162.264 95.6724 161.444 94.0906C160.588 92.4388 159.891 91.2241 158.718 90.6997C158.383 90.6036 158.048 90.49 157.695 90.3501C157.051 90.1753 156.372 90.0967 155.684 90.0967C154.379 90.0967 153.056 90.42 151.857 91.0231V91.0056Z" fill="#231F20"/>
<path d="M32.4661 140.873C34.1154 142.035 36.3555 142.524 38.4722 142.192C40.5713 141.86 42.4146 140.803 43.667 139.221C44.8841 137.683 45.3868 135.83 45.0957 133.995C44.5489 130.604 41.3915 128.139 37.5903 128.139C37.1405 128.139 36.6819 128.174 36.2232 128.244C34.2036 128.568 32.422 129.555 31.1784 131.05V131.137L30.905 131.408C30.808 131.548 30.6934 131.705 30.5611 131.88C29.8555 133.007 30.0495 134.633 30.3229 136.328C30.7022 138.714 31.1961 139.876 32.1221 140.619C32.2544 140.707 32.3603 140.785 32.4661 140.873Z" fill="#231F20"/>
<path d="M36.144 99.1507C36.8231 101.056 38.2519 102.638 40.1833 103.608C41.374 104.211 42.6881 104.525 43.9934 104.525C46.7804 104.525 49.2322 103.11 50.4052 100.829C52.1868 97.3591 50.4934 92.9545 46.6393 91.0143C45.4486 90.42 44.1345 90.0967 42.838 90.0967C42.0884 90.0967 41.3387 90.2016 40.6331 90.4026C40.395 90.4987 40.1216 90.5861 39.857 90.6647C38.6576 91.1629 37.8814 92.5175 37.07 94.0993C36.2674 95.6637 35.6677 96.9833 35.897 98.2505L35.994 98.3642V98.5914C36.0558 98.7662 36.1087 98.9497 36.1616 99.1332L36.144 99.1507Z" fill="#231F20"/>
<path d="M40.7917 160.659C41.4267 160.825 42.1323 160.921 42.8379 160.921C44.1432 160.921 45.4661 160.597 46.6567 159.994C48.5529 159.042 49.9729 157.469 50.6696 155.581C51.3488 153.746 51.2517 151.823 50.3962 150.171C49.2232 147.908 46.7714 146.492 43.9932 146.492C42.6879 146.492 41.365 146.815 40.1655 147.418C38.2781 148.371 36.8582 149.935 36.1526 151.832C36.0909 152.094 35.9939 152.4 35.888 152.715C35.6146 153.938 36.2585 155.345 37.0787 156.918C37.8901 158.483 38.6574 159.828 39.8745 160.344C40.1479 160.423 40.4742 160.536 40.7917 160.667V160.659Z" fill="#231F20"/>
<path d="M153.409 134.003C153.118 135.847 153.638 137.709 154.873 139.247C156.134 140.82 157.969 141.86 160.059 142.184C162.176 142.507 164.345 142.035 166.03 140.873L166.047 140.855L166.1 140.82C166.162 140.776 166.233 140.715 166.312 140.663H166.321C167.326 139.885 167.811 138.74 168.199 136.302C168.587 133.881 168.482 132.658 167.802 131.644L167.679 131.478C167.644 131.434 167.617 131.39 167.591 131.355C166.347 129.677 164.46 128.568 162.273 128.235C161.823 128.166 161.373 128.131 160.923 128.131C157.113 128.131 153.956 130.604 153.409 134.003Z" fill="#231F20"/>
<path d="M30.914 119.627C32.1576 121.305 34.0538 122.424 36.241 122.765C36.682 122.834 37.1318 122.869 37.5904 122.869C41.4005 122.869 44.5579 120.396 45.0959 116.997C45.3869 115.161 44.8754 113.309 43.6583 111.77C42.3971 110.189 40.5538 109.14 38.4547 108.808C38.0138 108.738 37.5551 108.703 37.1142 108.703C35.4737 108.703 33.9215 109.166 32.6074 110.04C32.3957 110.215 32.1399 110.407 31.8577 110.599C30.9052 111.43 30.5965 112.941 30.3231 114.689C29.9439 117.093 30.0497 118.369 30.7376 119.374L30.7729 119.426C30.7729 119.426 30.7994 119.461 30.8082 119.47L30.8346 119.505C30.8346 119.505 30.8875 119.575 30.9052 119.601L30.9228 119.627H30.914Z" fill="#231F20"/>
<path d="M84.2811 192.339C85.1366 193.248 86.5124 193.528 88.3557 193.816C90.6664 194.174 91.9366 194.104 92.8449 193.562H92.8626C93.0567 193.405 93.2682 193.257 93.4887 193.117C95.1027 191.893 96.1699 190.058 96.505 187.943C97.1753 183.713 94.5647 179.772 90.6841 179.169C90.3578 179.116 90.0139 179.09 89.6611 179.09C86.1333 179.09 83.0199 181.957 82.4201 185.749C82.1026 187.768 82.5083 189.778 83.5755 191.421C83.7078 191.579 83.8225 191.718 83.9283 191.85L83.9812 191.928C84.1047 192.086 84.1929 192.217 84.2811 192.339Z" fill="#231F20"/>
<path d="M64.0667 184.273C64.5871 185.531 66.0246 186.344 67.5857 187.13C69.0145 187.847 70.1875 188.328 71.2458 188.328C71.5369 188.328 71.8191 188.293 72.1013 188.214C72.2424 188.17 72.3747 188.127 72.4982 188.092L72.5511 188.074C74.5267 187.419 76.1583 185.985 77.1461 184.045C78.1075 182.166 78.3279 180.069 77.7723 178.129C77.2343 176.25 76.0172 174.755 74.3415 173.916C73.4154 173.444 72.41 173.208 71.3605 173.208C68.5294 173.208 65.813 174.948 64.4371 177.639C63.4493 179.571 63.2465 181.721 63.8638 183.704C63.9256 183.871 63.9961 184.063 64.0579 184.264L64.0667 184.273Z" fill="#231F20"/>
<path d="M53.9771 176.835H54.2594C56.3761 176.835 58.4222 175.97 59.9921 174.414C63.0437 171.382 63.2641 166.671 60.486 163.927C59.2336 162.686 57.5226 162.005 55.6617 162.005C53.5626 162.005 51.4547 162.896 49.8937 164.443C48.3767 165.955 47.5124 167.912 47.4595 169.957C47.4771 170.22 47.4771 170.499 47.4683 170.7C47.5741 172.002 48.6413 173.156 49.9113 174.414C51.6576 176.145 52.7336 176.783 53.9683 176.835H53.9771Z" fill="#231F20"/>
<path d="M138.521 76.5946C137.031 78.0715 136.167 79.9942 136.087 81.9955C136.008 83.9619 136.696 85.771 138.028 87.0819C139.28 88.3229 141 89.0045 142.852 89.0045C144.951 89.0045 147.059 88.1131 148.611 86.5662C150.075 85.1068 150.939 83.2278 151.045 81.2527C151.019 80.8944 151.01 80.5535 151.019 80.2214C150.886 78.9367 149.925 77.9055 148.593 76.5771C147.279 75.2749 146.247 74.3398 145.021 74.2C144.625 74.2175 144.228 74.2 143.875 74.1738C143.857 74.1738 143.84 74.1738 143.813 74.1738C141.855 74.2961 139.977 75.1526 138.521 76.5946ZM151.054 81.174C151.054 81.174 151.054 81.174 151.054 81.1828V81.174ZM143.928 74.1738H143.91C143.91 74.1738 143.919 74.1738 143.928 74.1738Z" fill="#231F20"/>
<path d="M142.861 161.987C141 161.987 139.28 162.677 138.028 163.918C136.696 165.238 136.017 167.047 136.096 169.013C136.184 171.015 137.049 172.929 138.548 174.414C140.065 175.918 142.04 176.774 144.113 176.827C144.263 176.827 144.431 176.818 144.607 176.818H144.854C146.177 176.722 147.341 175.664 148.611 174.397C149.908 173.104 150.913 172.011 151.036 170.7C151.019 170.359 151.036 169.992 151.054 169.756C150.975 167.799 150.102 165.902 148.602 164.417C147.041 162.878 144.942 161.996 142.852 161.996L142.861 161.987Z" fill="#231F20"/>
<path d="M108.861 179.09C108.509 179.09 108.165 179.116 107.838 179.169C103.958 179.78 101.356 183.722 102.035 187.952C102.379 190.102 103.561 192.042 105.272 193.265C105.995 193.781 106.833 194.017 107.979 194.017C108.597 194.017 109.302 193.947 110.202 193.807C112.028 193.519 113.492 193.222 114.365 192.217C114.515 191.998 114.709 191.745 114.92 191.491C116.023 189.857 116.446 187.812 116.111 185.732C115.502 181.948 112.389 179.09 108.87 179.09H108.861Z" fill="#231F20"/>
<path d="M105.157 57.7961C103.473 59.0284 102.352 60.8986 102.008 63.066C101.682 65.1459 102.123 67.2084 103.252 68.8777C104.354 70.4945 105.977 71.5519 107.829 71.8403C108.165 71.8928 108.508 71.919 108.844 71.919C112.371 71.919 115.485 69.0525 116.084 65.2596C116.411 63.1796 115.97 61.1171 114.841 59.4479C114.665 59.2468 114.471 58.9934 114.285 58.7225C113.447 57.7699 111.913 57.464 110.149 57.1931C109.505 57.0882 108.658 56.9746 107.865 56.9746C106.833 56.9746 106.083 57.1669 105.439 57.5951C105.307 57.6912 105.228 57.7524 105.148 57.7961H105.157Z" fill="#231F20"/>
<path d="M125.848 62.9612C123.925 63.6341 122.329 65.0499 121.35 66.9638C120.389 68.8253 120.168 70.914 120.715 72.8455C121.253 74.7419 122.47 76.2451 124.146 77.0928C125.072 77.556 126.077 77.792 127.127 77.792C129.958 77.792 132.674 76.0528 134.05 73.3611C135.003 71.4996 135.232 69.4283 134.694 67.5057C134.579 67.2435 134.473 66.9201 134.368 66.5793C133.865 65.4257 132.507 64.6741 130.919 63.8701C129.702 63.2583 128.414 62.6553 127.285 62.6553C127.197 62.6553 127.109 62.6553 127.021 62.664L126.959 62.7951H126.386C126.209 62.8563 126.024 62.9088 125.839 62.9612H125.848Z" fill="#231F20"/>
<path d="M47.4417 81.2518C47.521 83.2094 48.3942 85.1058 49.8935 86.5915C51.4546 88.1297 53.5448 89.0124 55.6439 89.0124C57.5048 89.0124 59.2246 88.3219 60.477 87.081C61.7999 85.77 62.4878 83.9697 62.4173 82.0121C62.3379 80.002 61.4648 78.0794 59.9654 76.5937C58.4397 75.0817 56.464 74.2253 54.4002 74.1816C54.312 74.1816 54.1622 74.1903 53.924 74.1903H53.6594C52.3277 74.2865 51.1635 75.3439 49.8935 76.6111C48.597 77.9046 47.5915 78.997 47.4681 80.3167C47.4769 80.5963 47.4681 80.9197 47.4505 81.2605L47.4417 81.2518Z" fill="#231F20"/>
<path d="M83.6021 59.5177C82.5173 61.1345 82.0763 63.2232 82.4114 65.277C83.02 69.0611 86.1333 71.9189 89.6523 71.9189C89.9874 71.9189 90.3402 71.8927 90.693 71.8403C92.5363 71.5519 94.1591 70.4944 95.2615 68.8689C96.3904 67.1996 96.8226 65.1371 96.4875 63.0484C96.1523 60.9597 95.0763 59.1419 93.4712 57.9009L93.1801 57.7873L93.1096 57.6562C93.0037 57.5863 92.9067 57.5076 92.8185 57.4465C92.2805 57.1231 91.5926 56.957 90.7106 56.957C89.9522 56.957 89.1143 57.0707 88.3205 57.2018C86.5037 57.4902 85.0397 57.7873 84.1577 58.7923C84.0078 59.0108 83.8137 59.2643 83.5932 59.5264L83.6021 59.5177Z" fill="#231F20"/>
<path d="M63.7757 67.5669C63.2553 69.4196 63.5023 71.5345 64.4548 73.3786C65.8394 76.0616 68.5559 77.8007 71.3781 77.8007C72.4365 77.8007 73.4419 77.5647 74.3768 77.0928C76.0525 76.2451 77.2696 74.7332 77.7988 72.8367C78.3456 70.9053 78.1075 68.8166 77.155 66.9551C76.176 65.0586 74.5796 63.6429 72.6393 62.9612C72.3659 62.8913 72.0837 62.8039 71.872 62.7252C71.6868 62.6815 71.4487 62.6553 71.2106 62.6553C70.0728 62.6553 68.8381 63.2321 67.5681 63.8788C65.9894 64.6741 64.64 65.4344 64.1108 66.6405C64.0314 66.9201 63.9168 67.2435 63.7845 67.5669H63.7757Z" fill="#231F20"/>
</g>
</svg>
