<svg width="600" height="250" viewBox="0 0 600 250" fill="none" xmlns="http://www.w3.org/2000/svg">
<mask id="mask0_382_741" style="mask-type:luminance" maskUnits="userSpaceOnUse" x="1" y="31" width="599" height="189">
<path d="M1 31H600V220H1V31Z" fill="white"/>
</mask>
<g mask="url(#mask0_382_741)">
<path d="M64.1502 186.647C65.4761 184.656 88.7953 171.03 88.7953 171.03C118.118 151.361 116.343 122.765 116.343 122.765L116.254 75.8443L116.23 62.9019L64.0509 61.7262L11.5467 62.9019V63.1904H11.4349V75.8443V122.765C11.4349 122.765 9.65113 151.361 38.9888 171.03C38.9888 171.03 62.3531 184.331 63.6723 186.338" fill="#6D6D6C"/>
<path d="M64.1502 186.647C65.4761 184.656 88.7953 171.03 88.7953 171.03C118.118 151.361 116.343 122.765 116.343 122.765L116.254 75.8443L116.23 62.9019L64.0509 61.7262L11.5467 62.9019V63.1904H11.4349V75.8443V122.765C11.4349 122.765 9.65113 151.361 38.9888 171.03C38.9888 171.03 62.3531 184.331 63.6723 186.338" stroke="#C99212" stroke-width="11.1707" stroke-linecap="round" stroke-linejoin="round"/>
<path d="M64.1501 186.647C65.4761 184.656 88.7953 171.03 88.7953 171.03C118.118 151.361 116.343 122.765 116.343 122.765L116.254 75.8443L64.0509 80.5172V186.591" fill="#79242F"/>
<path d="M64.1501 186.647C65.4761 184.656 88.7953 171.03 88.7953 171.03C118.118 151.361 116.343 122.765 116.343 122.765L116.254 75.8443L64.0509 80.5172V186.591" stroke="#1D1D1B" stroke-width="5.256" stroke-linecap="round" stroke-linejoin="round"/>
<path d="M64.0511 186.591V80.5165L11.4343 75.8437V122.765C11.4343 122.765 9.65133 151.36 38.9882 171.03C38.9882 171.03 62.3524 184.331 63.6725 186.337" fill="#C99212"/>
<path d="M64.0511 186.591V80.5165L11.4343 75.8437V122.765C11.4343 122.765 9.65133 151.36 38.9882 171.03C38.9882 171.03 62.3524 184.331 63.6725 186.337" stroke="#1D1D1B" stroke-width="5.256" stroke-linecap="round" stroke-linejoin="round"/>
<path d="M64.0511 61.7266V80.5176L116.254 75.8447L116.23 62.9015L64.0511 61.7266Z" fill="#1D1D1B"/>
<path d="M64.0511 61.7266V80.5176L116.254 75.8447L116.23 62.9015L64.0511 61.7266Z" stroke="#1D1D1B" stroke-width="5.256" stroke-linecap="round" stroke-linejoin="round"/>
<path d="M64.0512 61.7266L11.5469 62.9015V63.1909H11.4343V75.8447L64.0512 80.5176V61.7266Z" fill="#6D6D6C"/>
<path d="M64.0512 61.7266L11.5469 62.9015V63.1909H11.4343V75.8447L64.0512 80.5176V61.7266Z" stroke="#1D1D1B" stroke-width="5.256" stroke-linecap="round" stroke-linejoin="round"/>
<path d="M64.1501 186.647C65.4761 184.656 88.7953 171.03 88.7953 171.03C118.118 151.361 116.343 122.765 116.343 122.765L116.254 75.8443L64.0509 80.5172V186.591" fill="#79242F"/>
<path d="M64.1501 186.647C65.4761 184.656 88.7953 171.03 88.7953 171.03C118.118 151.361 116.343 122.765 116.343 122.765L116.254 75.8443L64.0509 80.5172V186.591" stroke="#1D1D1B" stroke-width="0.657333" stroke-linecap="round" stroke-linejoin="round"/>
<path d="M64.0511 186.591V80.5165L11.4343 75.8437V122.765C11.4343 122.765 9.65133 151.36 38.9882 171.03C38.9882 171.03 62.3524 184.331 63.6725 186.337" fill="#C99212"/>
<path d="M64.0511 186.591V80.5165L11.4343 75.8437V122.765C11.4343 122.765 9.65133 151.36 38.9882 171.03C38.9882 171.03 62.3524 184.331 63.6725 186.337" stroke="#1D1D1B" stroke-width="0.657333" stroke-linecap="round" stroke-linejoin="round"/>
<path d="M64.0511 61.7266V80.5176L116.254 75.8447L116.23 62.9015L64.0511 61.7266Z" fill="#1D1D1B"/>
<path d="M64.0511 61.7266V80.5176L116.254 75.8447L116.23 62.9015L64.0511 61.7266Z" stroke="#1D1D1B" stroke-width="0.657333" stroke-linecap="round" stroke-linejoin="round"/>
<path d="M64.0512 61.7266L11.5469 62.9015V63.1909H11.4343V75.8447L64.0512 80.5176V61.7266Z" fill="#6D6D6C"/>
<path d="M64.0512 61.7266L11.5469 62.9015V63.1909H11.4343V75.8447L64.0512 80.5176V61.7266Z" stroke="#1D1D1B" stroke-width="0.657333" stroke-linecap="round" stroke-linejoin="round"/>
<path d="M29.0575 102.658C28.1593 102.223 27.1628 101.927 26.1662 101.927C23.1757 101.927 21.4562 104.341 21.4562 107.17C21.4562 109.999 23.2116 112.455 26.2429 112.455C27.1769 112.455 28.0609 112.237 28.9415 111.884L29.5278 113.362C28.4328 113.849 27.2745 114.123 26.0636 114.123C22.0808 114.123 19.4806 110.963 19.4806 107.1C19.4806 103.178 22.095 100.293 26.0853 100.293C27.3554 100.293 28.668 100.708 29.7588 101.264L29.0575 102.658Z" fill="white"/>
<path d="M29.0575 102.658C28.1593 102.223 27.1628 101.927 26.1662 101.927C23.1757 101.927 21.4562 104.341 21.4562 107.17C21.4562 109.999 23.2116 112.455 26.2429 112.455C27.1769 112.455 28.0609 112.237 28.9415 111.884L29.5278 113.362C28.4328 113.849 27.2745 114.123 26.0636 114.123C22.0808 114.123 19.4806 110.963 19.4806 107.1C19.4806 103.178 22.095 100.293 26.0853 100.293C27.3554 100.293 28.668 100.708 29.7588 101.264L29.0575 102.658Z" stroke="#1D1D1B" stroke-width="2.10267" stroke-miterlimit="10"/>
<path d="M37.2233 111.864V108.789C36.7813 109.14 35.9949 109.274 35.276 109.428C34.1352 109.683 33.1037 110 33.1037 111.097C33.1037 112.124 33.9242 112.589 35.2335 112.589C35.9357 112.589 36.637 112.476 37.2691 112.257C37.2691 112.257 37.2233 111.997 37.2233 111.864ZM35.2335 114.123C32.8476 114.123 31.1489 113.16 31.1489 111.231C31.1489 109.085 32.9069 108.493 34.5113 108.162C35.9182 107.866 37.2058 107.704 37.2058 106.747C37.2058 105.614 36.1325 105.417 35.2936 105.417C34.297 105.417 33.1212 105.867 32.7109 106.043L32.1038 104.679C33.0611 104.22 34.3771 103.889 35.4095 103.889C37.7353 103.889 38.9887 104.966 38.9887 107.029V112.138C38.9887 112.554 39.1221 113.391 39.1221 113.391C37.9705 113.764 36.5812 114.123 35.2335 114.123Z" fill="white"/>
<path d="M37.2233 111.864V108.789C36.7813 109.14 35.9949 109.274 35.276 109.428C34.1352 109.683 33.1037 110 33.1037 111.097C33.1037 112.124 33.9242 112.589 35.2335 112.589C35.9357 112.589 36.637 112.476 37.2691 112.257C37.2691 112.257 37.2233 111.997 37.2233 111.864ZM35.2335 114.123C32.8476 114.123 31.1489 113.16 31.1489 111.231C31.1489 109.085 32.9069 108.493 34.5113 108.162C35.9182 107.866 37.2058 107.704 37.2058 106.747C37.2058 105.614 36.1325 105.417 35.2936 105.417C34.297 105.417 33.1212 105.867 32.7109 106.043L32.1038 104.679C33.0611 104.22 34.3771 103.889 35.4095 103.889C37.7353 103.889 38.9887 104.966 38.9887 107.029V112.138C38.9887 112.554 39.1221 113.391 39.1221 113.391C37.9705 113.764 36.5812 114.123 35.2335 114.123Z" stroke="#1D1D1B" stroke-width="2.10267" stroke-miterlimit="10"/>
<path d="M53.3692 113.904V107.592C53.3692 106.283 52.7655 105.417 51.3761 105.417C50.5964 105.417 49.8709 105.685 49.172 106.023C49.323 106.452 49.3613 106.923 49.3613 107.38V113.904H47.6068V107.571C47.6068 106.262 46.9613 105.417 45.6103 105.417C44.9082 105.417 44.1818 105.642 43.5222 105.932C43.5222 105.932 43.5605 106.262 43.5605 106.437V113.904H41.8026V106.142C41.8026 105.728 41.6833 104.868 41.6833 104.868C42.8976 104.396 44.4945 103.889 45.8063 103.889C46.9438 103.889 47.8561 104.1 48.5266 104.792C49.4806 104.299 50.4605 103.889 51.7864 103.889C53.8988 103.889 55.1313 105.065 55.1313 107.219V113.904H53.3692Z" fill="white"/>
<path d="M53.3692 113.904V107.592C53.3692 106.283 52.7655 105.417 51.3761 105.417C50.5964 105.417 49.8709 105.685 49.172 106.023C49.323 106.452 49.3613 106.923 49.3613 107.38V113.904H47.6068V107.571C47.6068 106.262 46.9613 105.417 45.6103 105.417C44.9082 105.417 44.1818 105.642 43.5222 105.932C43.5222 105.932 43.5605 106.262 43.5605 106.437V113.904H41.8026V106.142C41.8026 105.728 41.6833 104.868 41.6833 104.868C42.8976 104.396 44.4945 103.889 45.8063 103.889C46.9438 103.889 47.8561 104.1 48.5266 104.792C49.4806 104.299 50.4605 103.889 51.7864 103.889C53.8988 103.889 55.1313 105.065 55.1313 107.219V113.904H53.3692Z" stroke="#1D1D1B" stroke-width="2.10267" stroke-miterlimit="10"/>
<path d="M61.4789 105.417C60.8751 105.417 60.1313 105.629 59.6267 105.994V111.941C59.6267 112.16 59.6126 112.299 59.6126 112.299C60.0754 112.476 60.7384 112.589 61.2304 112.589C63.3394 112.589 64.3109 110.865 64.3109 108.928C64.3109 107.12 63.497 105.417 61.4789 105.417ZM61.2087 114.123C60.1146 114.123 58.7878 113.863 57.7662 113.468C57.7662 113.468 57.8646 112.666 57.8646 112.299V99.5124H59.6267V104.411C60.2897 104.067 61.0719 103.889 61.8158 103.889C64.8021 103.889 66.269 106.156 66.269 108.957C66.269 111.941 64.22 114.123 61.2087 114.123Z" fill="white"/>
<path d="M61.4789 105.417C60.8751 105.417 60.1313 105.629 59.6267 105.994V111.941C59.6267 112.16 59.6126 112.299 59.6126 112.299C60.0754 112.476 60.7384 112.589 61.2304 112.589C63.3394 112.589 64.3109 110.865 64.3109 108.928C64.3109 107.12 63.497 105.417 61.4789 105.417ZM61.2087 114.123C60.1146 114.123 58.7878 113.863 57.7662 113.468C57.7662 113.468 57.8646 112.666 57.8646 112.299V99.5124H59.6267V104.411C60.2897 104.067 61.0719 103.889 61.8158 103.889C64.8021 103.889 66.269 106.156 66.269 108.957C66.269 111.941 64.22 114.123 61.2087 114.123Z" stroke="#1D1D1B" stroke-width="2.10267" stroke-miterlimit="10"/>
<path d="M73.3262 105.614C72.9543 105.536 72.5649 105.494 72.1929 105.494C71.5508 105.494 70.9053 105.614 70.2982 105.832C70.2982 105.832 70.3157 106.101 70.3157 106.24V113.904H68.5603V106.283C68.5603 105.832 68.4027 104.903 68.4027 104.903C69.6736 104.361 71.0204 103.889 72.4314 103.889C72.9226 103.889 73.3821 103.939 73.8524 104.066L73.3262 105.614Z" fill="white"/>
<path d="M73.3262 105.614C72.9543 105.536 72.5649 105.494 72.1929 105.494C71.5508 105.494 70.9053 105.614 70.2982 105.832C70.2982 105.832 70.3157 106.101 70.3157 106.24V113.904H68.5603V106.283C68.5603 105.832 68.4027 104.903 68.4027 104.903C69.6736 104.361 71.0204 103.889 72.4314 103.889C72.9226 103.889 73.3821 103.939 73.8524 104.066L73.3262 105.614Z" stroke="#1D1D1B" stroke-width="2.10267" stroke-miterlimit="10"/>
<path d="M75.5968 104.101H77.3547V113.905H75.5968V104.101ZM76.4324 101.829C75.8036 101.829 75.3232 101.399 75.3232 100.752C75.3232 100.125 75.8036 99.6525 76.4324 99.6525C77.0637 99.6525 77.589 100.125 77.589 100.752C77.589 101.399 77.0637 101.829 76.4324 101.829Z" fill="white"/>
<path d="M75.5968 104.101H77.3547V113.905H75.5968V104.101ZM76.4324 101.829C75.8036 101.829 75.3232 101.399 75.3232 100.752C75.3232 100.125 75.8036 99.6525 76.4324 99.6525C77.0637 99.6525 77.589 100.125 77.589 100.752C77.589 101.399 77.0637 101.829 76.4324 101.829Z" stroke="#1D1D1B" stroke-width="2.10267" stroke-miterlimit="10"/>
<path d="M86.384 111.941V105.995C85.8786 105.629 85.1381 105.417 84.5243 105.417C82.5129 105.417 81.654 107.12 81.654 108.928C81.654 110.865 82.6713 112.589 84.7845 112.589C85.2682 112.589 85.9345 112.477 86.4015 112.3C86.4015 112.3 86.384 112.16 86.384 111.941ZM84.8012 114.123C81.7941 114.123 79.6992 111.941 79.6992 108.958C79.6992 106.156 81.2045 103.889 84.1974 103.889C84.9346 103.889 85.7177 104.067 86.384 104.411V99.5132H88.1453V112.3C88.1453 112.666 88.2437 113.468 88.2437 113.468C87.2188 113.863 85.8928 114.123 84.8012 114.123Z" fill="white"/>
<path d="M86.384 111.941V105.995C85.8786 105.629 85.1381 105.417 84.5243 105.417C82.5129 105.417 81.654 107.12 81.654 108.928C81.654 110.865 82.6713 112.589 84.7845 112.589C85.2682 112.589 85.9345 112.477 86.4015 112.3C86.4015 112.3 86.384 112.16 86.384 111.941ZM84.8012 114.123C81.7941 114.123 79.6992 111.941 79.6992 108.958C79.6992 106.156 81.2045 103.889 84.1974 103.889C84.9346 103.889 85.7177 104.067 86.384 104.411V99.5132H88.1453V112.3C88.1453 112.666 88.2437 113.468 88.2437 113.468C87.2188 113.863 85.8928 114.123 84.8012 114.123Z" stroke="#1D1D1B" stroke-width="2.10267" stroke-miterlimit="10"/>
<path d="M94.455 105.397C93.1674 105.397 92.2451 106.177 92.2451 107.515C92.2451 108.845 93.1674 109.612 94.455 109.612C95.7426 109.612 96.6624 108.845 96.6624 107.515C96.6624 106.177 95.7426 105.397 94.455 105.397ZM93.2833 113.905C92.4836 114.159 91.5846 114.686 91.5846 115.65C91.5846 116.904 93.5568 117.143 94.4725 117.143C95.4307 117.143 97.3362 116.883 97.3362 115.594C97.3362 114.159 94.2798 114.18 93.2833 113.905ZM94.4725 118.564C92.7179 118.564 89.9009 118.016 89.9009 115.749C89.9009 114.235 90.9983 113.511 92.2267 113.138C91.9565 112.864 91.7605 112.434 91.7605 112.018C91.7605 111.477 92.1316 110.977 92.5636 110.689C91.2902 110.098 90.5247 108.908 90.5247 107.486C90.5247 105.221 92.3076 103.889 94.455 103.889C95.0938 103.889 95.7225 104.101 96.3713 104.101H99.1225V105.495C98.7189 105.495 97.9925 105.495 97.5856 105.319C97.5856 105.319 97.5856 105.362 97.5439 105.362C98.0142 105.945 98.3861 106.748 98.3861 107.486C98.3861 109.514 96.9359 110.823 95.0029 111.048C94.6484 111.076 94.3215 111.076 93.968 111.076C93.7111 111.203 93.3392 111.413 93.3392 111.758C93.3392 113.392 99.1642 111.844 99.1642 115.488C99.1642 117.91 96.4097 118.564 94.4725 118.564Z" fill="white"/>
<path d="M94.455 105.397C93.1674 105.397 92.2451 106.177 92.2451 107.515C92.2451 108.845 93.1674 109.612 94.455 109.612C95.7426 109.612 96.6624 108.845 96.6624 107.515C96.6624 106.177 95.7426 105.397 94.455 105.397ZM93.2833 113.905C92.4836 114.159 91.5846 114.686 91.5846 115.65C91.5846 116.904 93.5568 117.143 94.4725 117.143C95.4307 117.143 97.3362 116.883 97.3362 115.594C97.3362 114.159 94.2798 114.18 93.2833 113.905ZM94.4725 118.564C92.7179 118.564 89.9009 118.016 89.9009 115.749C89.9009 114.235 90.9983 113.511 92.2267 113.138C91.9565 112.864 91.7605 112.434 91.7605 112.018C91.7605 111.477 92.1316 110.977 92.5636 110.689C91.2902 110.098 90.5247 108.908 90.5247 107.486C90.5247 105.221 92.3076 103.889 94.455 103.889C95.0938 103.889 95.7225 104.101 96.3713 104.101H99.1225V105.495C98.7189 105.495 97.9925 105.495 97.5856 105.319C97.5856 105.319 97.5856 105.362 97.5439 105.362C98.0142 105.945 98.3861 106.748 98.3861 107.486C98.3861 109.514 96.9359 110.823 95.0029 111.048C94.6484 111.076 94.3215 111.076 93.968 111.076C93.7111 111.203 93.3392 111.413 93.3392 111.758C93.3392 113.392 99.1642 111.844 99.1642 115.488C99.1642 117.91 96.4097 118.564 94.4725 118.564Z" stroke="#1D1D1B" stroke-width="2.10267" stroke-miterlimit="10"/>
<path d="M104.755 105.397C103.232 105.397 102.39 106.656 102.351 108.183H107.099C107.081 106.734 106.358 105.397 104.755 105.397ZM108.861 109.612H102.351C102.453 111.357 103.527 112.59 105.401 112.59C106.201 112.59 107.004 112.434 107.727 112.139L108.27 113.468C107.337 113.905 106.285 114.124 105.25 114.124C102.253 114.124 100.442 111.906 100.442 108.986C100.442 106.298 101.825 103.889 104.735 103.889C107.475 103.889 108.959 105.932 108.959 108.535C108.959 108.866 108.917 109.232 108.861 109.612Z" fill="white"/>
<path d="M104.755 105.397C103.232 105.397 102.39 106.656 102.351 108.183H107.099C107.081 106.734 106.358 105.397 104.755 105.397ZM108.861 109.612H102.351C102.453 111.357 103.527 112.59 105.401 112.59C106.201 112.59 107.004 112.434 107.727 112.139L108.27 113.468C107.337 113.905 106.285 114.124 105.25 114.124C102.253 114.124 100.442 111.906 100.442 108.986C100.442 106.298 101.825 103.889 104.735 103.889C107.475 103.889 108.959 105.932 108.959 108.535C108.959 108.866 108.917 109.232 108.861 109.612Z" stroke="#1D1D1B" stroke-width="2.10267" stroke-miterlimit="10"/>
<path d="M29.0575 102.658C28.1593 102.223 27.1628 101.927 26.1662 101.927C23.1757 101.927 21.4562 104.341 21.4562 107.17C21.4562 109.999 23.2116 112.455 26.2429 112.455C27.1769 112.455 28.0609 112.237 28.9415 111.884L29.5278 113.362C28.4328 113.849 27.2745 114.123 26.0636 114.123C22.0808 114.123 19.4806 110.963 19.4806 107.1C19.4806 103.178 22.095 100.293 26.0853 100.293C27.3554 100.293 28.668 100.708 29.7588 101.264L29.0575 102.658Z" fill="white"/>
<path d="M37.2233 111.864V108.789C36.7813 109.14 35.9949 109.274 35.276 109.428C34.1352 109.683 33.1037 110 33.1037 111.097C33.1037 112.124 33.9242 112.589 35.2335 112.589C35.9357 112.589 36.637 112.476 37.2691 112.257C37.2691 112.257 37.2233 111.997 37.2233 111.864ZM35.2335 114.123C32.8476 114.123 31.1489 113.16 31.1489 111.231C31.1489 109.085 32.9069 108.493 34.5113 108.162C35.9182 107.866 37.2058 107.704 37.2058 106.747C37.2058 105.614 36.1325 105.417 35.2936 105.417C34.297 105.417 33.1212 105.867 32.7109 106.043L32.1038 104.679C33.0611 104.22 34.3771 103.889 35.4095 103.889C37.7353 103.889 38.9887 104.966 38.9887 107.029V112.138C38.9887 112.554 39.1221 113.391 39.1221 113.391C37.9705 113.764 36.5812 114.123 35.2335 114.123Z" fill="white"/>
<path d="M53.3692 113.904V107.592C53.3692 106.283 52.7655 105.417 51.3761 105.417C50.5964 105.417 49.8709 105.685 49.172 106.023C49.323 106.452 49.3613 106.923 49.3613 107.38V113.904H47.6068V107.571C47.6068 106.262 46.9613 105.417 45.6103 105.417C44.9082 105.417 44.1818 105.642 43.5222 105.932C43.5222 105.932 43.5605 106.262 43.5605 106.437V113.904H41.8026V106.142C41.8026 105.728 41.6833 104.868 41.6833 104.868C42.8976 104.396 44.4945 103.889 45.8063 103.889C46.9438 103.889 47.8561 104.1 48.5266 104.792C49.4806 104.299 50.4605 103.889 51.7864 103.889C53.8988 103.889 55.1313 105.065 55.1313 107.219V113.904H53.3692Z" fill="white"/>
<path d="M61.4789 105.417C60.8751 105.417 60.1313 105.629 59.6267 105.994V111.941C59.6267 112.16 59.6126 112.299 59.6126 112.299C60.0754 112.476 60.7384 112.589 61.2304 112.589C63.3394 112.589 64.3109 110.865 64.3109 108.928C64.3109 107.12 63.497 105.417 61.4789 105.417ZM61.2087 114.123C60.1146 114.123 58.7878 113.863 57.7662 113.468C57.7662 113.468 57.8646 112.666 57.8646 112.299V99.5124H59.6267V104.411C60.2897 104.067 61.0719 103.889 61.8158 103.889C64.8021 103.889 66.269 106.156 66.269 108.957C66.269 111.941 64.22 114.123 61.2087 114.123Z" fill="white"/>
<path d="M73.3262 105.614C72.9543 105.536 72.5649 105.494 72.1929 105.494C71.5508 105.494 70.9053 105.614 70.2982 105.832C70.2982 105.832 70.3157 106.101 70.3157 106.24V113.904H68.5603V106.283C68.5603 105.832 68.4027 104.903 68.4027 104.903C69.6736 104.361 71.0204 103.889 72.4314 103.889C72.9226 103.889 73.3821 103.939 73.8524 104.066L73.3262 105.614Z" fill="white"/>
<path d="M75.5968 104.101H77.3547V113.905H75.5968V104.101ZM76.4324 101.829C75.8036 101.829 75.3232 101.399 75.3232 100.752C75.3232 100.125 75.8036 99.6525 76.4324 99.6525C77.0637 99.6525 77.589 100.125 77.589 100.752C77.589 101.399 77.0637 101.829 76.4324 101.829Z" fill="white"/>
<path d="M86.384 111.941V105.995C85.8786 105.629 85.1381 105.417 84.5243 105.417C82.5129 105.417 81.654 107.12 81.654 108.928C81.654 110.865 82.6713 112.589 84.7845 112.589C85.2682 112.589 85.9345 112.477 86.4015 112.3C86.4015 112.3 86.384 112.16 86.384 111.941ZM84.8012 114.123C81.7941 114.123 79.6992 111.941 79.6992 108.958C79.6992 106.156 81.2045 103.889 84.1974 103.889C84.9346 103.889 85.7177 104.067 86.384 104.411V99.5132H88.1453V112.3C88.1453 112.666 88.2437 113.468 88.2437 113.468C87.2188 113.863 85.8928 114.123 84.8012 114.123Z" fill="white"/>
<path d="M94.455 105.397C93.1674 105.397 92.2451 106.177 92.2451 107.515C92.2451 108.845 93.1674 109.612 94.455 109.612C95.7426 109.612 96.6624 108.845 96.6624 107.515C96.6624 106.177 95.7426 105.397 94.455 105.397ZM93.2833 113.905C92.4836 114.159 91.5846 114.686 91.5846 115.65C91.5846 116.904 93.5568 117.143 94.4725 117.143C95.4307 117.143 97.3362 116.883 97.3362 115.594C97.3362 114.159 94.2798 114.18 93.2833 113.905ZM94.4725 118.564C92.7179 118.564 89.9009 118.016 89.9009 115.749C89.9009 114.235 90.9983 113.511 92.2267 113.138C91.9565 112.864 91.7605 112.434 91.7605 112.018C91.7605 111.477 92.1316 110.977 92.5636 110.689C91.2902 110.098 90.5247 108.908 90.5247 107.486C90.5247 105.221 92.3076 103.889 94.455 103.889C95.0938 103.889 95.7225 104.101 96.3713 104.101H99.1225V105.495C98.7189 105.495 97.9925 105.495 97.5856 105.319C97.5856 105.319 97.5856 105.362 97.5439 105.362C98.0142 105.945 98.3861 106.748 98.3861 107.486C98.3861 109.514 96.9359 110.823 95.0029 111.048C94.6484 111.076 94.3215 111.076 93.968 111.076C93.7111 111.203 93.3392 111.413 93.3392 111.758C93.3392 113.392 99.1642 111.844 99.1642 115.488C99.1642 117.91 96.4097 118.564 94.4725 118.564Z" fill="white"/>
<path d="M104.755 105.397C103.232 105.397 102.39 106.656 102.351 108.183H107.099C107.081 106.734 106.358 105.397 104.755 105.397ZM108.861 109.612H102.351C102.453 111.357 103.527 112.59 105.401 112.59C106.201 112.59 107.004 112.434 107.727 112.139L108.27 113.468C107.337 113.905 106.285 114.124 105.25 114.124C102.253 114.124 100.442 111.906 100.442 108.986C100.442 106.298 101.825 103.889 104.735 103.889C107.475 103.889 108.959 105.932 108.959 108.535C108.959 108.866 108.917 109.232 108.861 109.612Z" fill="white"/>
<path d="M145.999 148.673H146.378C147.717 148.673 148.955 148.065 150.017 146.9L152.114 148.8C150.446 150.624 148.525 151.436 146.378 151.436H145.999C140.439 151.436 137.988 146.621 137.988 141.426C137.988 136.231 140.439 131.442 145.999 131.442H146.378C148.525 131.442 150.446 132.252 152.114 134.077L150.017 135.977C148.955 134.812 147.717 134.203 146.378 134.203H145.999C142.385 134.203 140.843 137.726 140.843 141.426C140.843 145.151 142.385 148.673 145.999 148.673Z" fill="#1D1D1B"/>
<path d="M162.579 144.796C162.098 144.619 161.239 144.392 160.102 144.392C158.232 144.392 157.6 145.759 157.6 146.646C157.6 147.584 158.106 148.699 159.849 148.699C161.264 148.699 162.478 147.584 162.579 144.796ZM165.257 144.112V151.183H162.579V150.169C161.846 151.005 160.886 151.334 159.849 151.334C156.236 151.334 154.897 149.054 154.897 146.671C154.897 144.569 156.438 141.831 160.102 141.831C161.189 141.831 162.528 142.212 162.528 142.212C162.326 140.894 161.846 140.032 160.305 140.032C159.445 140.032 158.156 140.388 157.07 141.249L155.478 139.145C157.146 137.828 158.789 137.397 160.305 137.397C165.207 137.397 165.257 141.299 165.257 144.112Z" fill="#1D1D1B"/>
<path d="M181.837 151.182V142.667C181.837 141.374 181.206 140.031 179.689 140.031C178.653 140.031 177.895 140.69 177.643 141.223C177.744 141.679 177.744 142.059 177.744 142.667V151.182H175.064V142.667C175.064 141.374 174.433 140.031 172.917 140.031C171.603 140.031 170.97 141.046 170.97 141.046V151.182H168.292V140.158C168.292 140.158 169.454 137.396 172.917 137.396C174.307 137.396 175.419 137.878 176.227 138.612C176.935 138.004 178.122 137.396 179.689 137.396C183.177 137.396 184.516 140.107 184.516 142.667V151.182H181.837Z" fill="#1D1D1B"/>
<path d="M190.23 144.366C190.23 146.443 191.09 148.699 193.288 148.699C195.537 148.699 196.321 146.443 196.321 144.366C196.321 142.288 195.537 140.031 193.288 140.031C191.09 140.031 190.23 142.288 190.23 144.366ZM190.23 150.067V151.182H187.552V131.695H190.23V138.664C190.887 137.954 191.924 137.397 193.288 137.397C197.357 137.397 199 140.818 199 144.366C199 147.913 197.357 151.334 193.288 151.334C191.924 151.334 190.887 150.777 190.23 150.067Z" fill="#1D1D1B"/>
<path d="M208.782 140.894C208.327 140.388 207.67 140.032 206.836 140.032C205.294 140.032 204.46 141.047 204.46 141.047V151.183H201.782V140.159C201.782 140.159 203.5 137.397 206.836 137.397C208.15 137.397 209.211 137.776 210.045 138.385L208.782 140.894Z" fill="#1D1D1B"/>
<path d="M213.079 151.182H215.758V137.548H213.079V151.182ZM214.42 133.013C215.304 133.013 216.037 133.747 216.037 134.634C216.037 135.522 215.304 136.231 214.42 136.231C213.535 136.231 212.827 135.522 212.827 134.634C212.827 133.747 213.535 133.013 214.42 133.013Z" fill="#1D1D1B"/>
<path d="M221.496 144.366C221.496 146.443 222.279 148.699 224.528 148.699C226.727 148.699 227.586 146.443 227.586 144.366C227.586 142.288 226.727 140.031 224.528 140.031C222.279 140.031 221.496 142.288 221.496 144.366ZM218.817 144.366C218.817 140.818 220.459 137.397 224.528 137.397C225.893 137.397 226.929 137.954 227.586 138.664V131.695H230.265V151.182H227.586V150.067C226.929 150.777 225.893 151.334 224.528 151.334C220.459 151.334 218.817 147.913 218.817 144.366Z" fill="#1D1D1B"/>
<path d="M241.816 144.365C241.816 142.287 240.957 140.031 238.758 140.031C236.509 140.031 235.726 142.287 235.726 144.365C235.726 146.443 236.509 148.699 238.758 148.699C240.957 148.699 241.816 146.443 241.816 144.365ZM241.816 138.664V137.548H244.495V151.334C244.419 154.755 242.322 157.035 238.91 157.035H238.582C237.116 157.035 235.524 156.529 233.856 155.743L235.043 153.337C236.939 154.349 238.025 154.425 238.582 154.425H238.91C240.705 154.425 241.816 153.031 241.816 151.334V150.067C241.159 150.777 240.124 151.334 238.758 151.334C234.69 151.334 233.047 147.913 233.047 144.365C233.047 140.817 234.69 137.396 238.758 137.396C240.124 137.396 241.159 137.954 241.816 138.664Z" fill="#1D1D1B"/>
<path d="M250.082 143.174H255.389C255.212 141.502 254.504 140.031 252.736 140.031C250.967 140.031 250.259 141.502 250.082 143.174ZM247.277 144.366C247.277 140.818 248.667 137.397 252.736 137.397C257.031 137.397 258.195 141.299 258.195 143.427C258.195 145.151 257.411 145.809 255.743 145.809H250.107C250.335 147.279 251.295 148.698 253.367 148.698C254.454 148.698 255.566 148.318 256.729 147.583L258.093 149.712C256.248 151.03 254.631 151.334 253.367 151.334C248.692 151.334 247.277 147.913 247.277 144.366Z" fill="#1D1D1B"/>
<path d="M269.064 131.695H271.843V151.183H269.064V131.695Z" fill="#1D1D1B"/>
<path d="M283.065 151.182V142.667C283.065 141.425 282.129 140.031 280.436 140.031C278.895 140.031 278.061 141.046 278.061 141.046V151.182H275.383V140.158C275.383 140.158 277.101 137.396 280.436 137.396C283.95 137.396 285.744 140.107 285.744 142.667V151.182H283.065Z" fill="#1D1D1B"/>
<path d="M294.465 151.182C291.836 151.182 290.725 149.458 290.725 147.254V140.184H288.526V137.548H290.725V134.304H293.403V137.548H296.461V140.184H293.403V147.254C293.403 148.09 293.757 148.521 294.465 148.521H296.461V151.182H294.465Z" fill="#1D1D1B"/>
<path d="M301.795 143.174H307.102C306.925 141.502 306.217 140.031 304.448 140.031C302.68 140.031 301.972 141.502 301.795 143.174ZM298.989 144.366C298.989 140.818 300.38 137.397 304.448 137.397C308.744 137.397 309.907 141.299 309.907 143.427C309.907 145.151 309.123 145.809 307.455 145.809H301.82C302.047 147.279 303.008 148.698 305.08 148.698C306.167 148.698 307.279 148.318 308.441 147.583L309.805 149.712C307.961 151.03 306.344 151.334 305.08 151.334C300.405 151.334 298.989 147.913 298.989 144.366Z" fill="#1D1D1B"/>
<path d="M319.689 140.894C319.233 140.388 318.577 140.032 317.743 140.032C316.201 140.032 315.367 141.047 315.367 141.047V151.183H312.689V140.159C312.689 140.159 314.407 137.397 317.743 137.397C319.057 137.397 320.119 137.776 320.953 138.385L319.689 140.894Z" fill="#1D1D1B"/>
<path d="M331.416 151.182V142.667C331.416 141.425 330.481 140.031 328.788 140.031C327.246 140.031 326.412 141.046 326.412 141.046V151.182H323.734V140.158C323.734 140.158 325.452 137.396 328.788 137.396C332.301 137.396 334.095 140.107 334.095 142.667V151.182H331.416Z" fill="#1D1D1B"/>
<path d="M344.56 144.796C344.08 144.619 343.221 144.392 342.083 144.392C340.214 144.392 339.582 145.759 339.582 146.646C339.582 147.584 340.088 148.699 341.831 148.699C343.246 148.699 344.459 147.584 344.56 144.796ZM347.239 144.112V151.183H344.56V150.169C343.827 151.005 342.867 151.334 341.831 151.334C338.217 151.334 336.878 149.054 336.878 146.671C336.878 144.569 338.419 141.831 342.083 141.831C343.17 141.831 344.509 142.212 344.509 142.212C344.307 140.894 343.827 140.032 342.285 140.032C341.426 140.032 340.138 140.388 339.051 141.249L337.458 139.145C339.126 137.828 340.769 137.397 342.285 137.397C347.188 137.397 347.239 141.299 347.239 144.112Z" fill="#1D1D1B"/>
<path d="M355.959 151.182C353.331 151.182 352.219 149.458 352.219 147.254V140.184H350.021V137.548H352.219V134.304H354.898V137.548H357.956V140.184H354.898V147.254C354.898 148.09 355.251 148.521 355.959 148.521H357.956V151.182H355.959Z" fill="#1D1D1B"/>
<path d="M360.99 151.182H363.669V137.548H360.99V151.182ZM362.329 133.013C363.214 133.013 363.947 133.747 363.947 134.634C363.947 135.522 363.214 136.231 362.329 136.231C361.445 136.231 360.737 135.522 360.737 134.634C360.737 133.747 361.445 133.013 362.329 133.013Z" fill="#1D1D1B"/>
<path d="M375.495 144.366C375.495 142.288 374.686 140.031 372.463 140.031C370.265 140.031 369.405 142.288 369.405 144.366C369.405 146.443 370.265 148.699 372.463 148.699C374.686 148.699 375.495 146.443 375.495 144.366ZM366.727 144.366C366.727 140.818 368.42 137.397 372.463 137.397C376.532 137.397 378.175 140.818 378.175 144.366C378.175 147.913 376.532 151.334 372.463 151.334C368.42 151.334 366.727 147.913 366.727 144.366Z" fill="#1D1D1B"/>
<path d="M388.639 151.182V142.667C388.639 141.425 387.704 140.031 386.011 140.031C384.469 140.031 383.635 141.046 383.635 141.046V151.182H380.957V140.158C380.957 140.158 382.675 137.396 386.011 137.396C389.524 137.396 391.318 140.107 391.318 142.667V151.182H388.639Z" fill="#1D1D1B"/>
<path d="M401.782 144.796C401.302 144.619 400.443 144.392 399.305 144.392C397.436 144.392 396.804 145.759 396.804 146.646C396.804 147.584 397.31 148.699 399.053 148.699C400.468 148.699 401.681 147.584 401.782 144.796ZM404.461 144.112V151.183H401.782V150.169C401.049 151.005 400.089 151.334 399.053 151.334C395.439 151.334 394.1 149.054 394.1 146.671C394.1 144.569 395.641 141.831 399.305 141.831C400.392 141.831 401.731 142.212 401.731 142.212C401.529 140.894 401.049 140.032 399.507 140.032C398.648 140.032 397.36 140.388 396.273 141.249L394.68 139.145C396.348 137.828 397.991 137.397 399.507 137.397C404.41 137.397 404.461 141.299 404.461 144.112Z" fill="#1D1D1B"/>
<path d="M408.001 131.695H410.68V151.183H408.001V131.695Z" fill="#1D1D1B"/>
<path d="M429.029 140.235C430.697 140.235 432.087 139.246 432.087 137.346C432.087 135.472 430.697 134.457 429.029 134.457H424.581V140.235H429.029ZM421.801 131.695H429.029C432.592 131.695 434.917 134.103 434.917 137.346C434.917 140.615 432.592 142.998 429.029 142.998H424.581V151.183H421.801V131.695Z" fill="#1D1D1B"/>
<path d="M444.7 140.894C444.245 140.388 443.588 140.032 442.754 140.032C441.212 140.032 440.378 141.047 440.378 141.047V151.183H437.699V140.159C437.699 140.159 439.418 137.397 442.754 137.397C444.068 137.397 445.13 137.776 445.964 138.385L444.7 140.894Z" fill="#1D1D1B"/>
<path d="M448.997 151.182H451.676V137.548H448.997V151.182ZM450.337 133.013C451.221 133.013 451.954 133.747 451.954 134.634C451.954 135.522 451.221 136.231 450.337 136.231C449.452 136.231 448.744 135.522 448.744 134.634C448.744 133.747 449.452 133.013 450.337 133.013Z" fill="#1D1D1B"/>
<path d="M460.977 148.166C461.255 147.381 461.76 145.81 462.544 143.301C463.277 140.893 463.959 138.41 464.161 137.549H466.941C466.587 139.195 465.879 141.831 465.171 144.111C464.642 145.784 463.579 148.825 463.15 149.864C462.644 151.131 461.23 151.182 460.977 151.182C460.699 151.182 459.284 151.131 458.778 149.864C458.349 148.825 457.287 145.784 456.756 144.111C456.049 141.831 455.341 139.195 454.987 137.549H457.767C457.97 138.435 458.627 140.817 459.385 143.301C460.143 145.81 460.674 147.381 460.977 148.166Z" fill="#1D1D1B"/>
<path d="M477.405 144.796C476.925 144.619 476.066 144.392 474.928 144.392C473.059 144.392 472.427 145.759 472.427 146.646C472.427 147.584 472.933 148.699 474.677 148.699C476.091 148.699 477.304 147.584 477.405 144.796ZM480.084 144.112V151.183H477.405V150.169C476.672 151.005 475.712 151.334 474.677 151.334C471.062 151.334 469.723 149.054 469.723 146.671C469.723 144.569 471.264 141.831 474.928 141.831C476.015 141.831 477.354 142.212 477.354 142.212C477.153 140.894 476.672 140.032 475.13 140.032C474.271 140.032 472.983 140.388 471.896 141.249L470.303 139.145C471.971 137.828 473.614 137.397 475.13 137.397C480.033 137.397 480.084 141.299 480.084 144.112Z" fill="#1D1D1B"/>
<path d="M488.805 151.182C486.177 151.182 485.065 149.458 485.065 147.254V140.184H482.867V137.548H485.065V134.304H487.744V137.548H490.801V140.184H487.744V147.254C487.744 148.09 488.097 148.521 488.805 148.521H490.801V151.182H488.805Z" fill="#1D1D1B"/>
<path d="M496.134 143.174H501.441C501.264 141.502 500.558 140.031 498.788 140.031C497.019 140.031 496.311 141.502 496.134 143.174ZM493.33 144.366C493.33 140.818 494.719 137.397 498.788 137.397C503.084 137.397 504.247 141.299 504.247 143.427C504.247 145.151 503.463 145.809 501.795 145.809H496.159C496.387 147.279 497.348 148.698 499.419 148.698C500.506 148.698 501.618 148.318 502.781 147.583L504.145 149.712C502.301 151.03 500.683 151.334 499.419 151.334C494.744 151.334 493.33 147.913 493.33 144.366Z" fill="#1D1D1B"/>
<path d="M514.611 149.357L515.546 146.671C517.694 147.963 519.716 148.673 521.359 148.673C523.583 148.673 525.452 147.736 525.452 145.784C525.452 143.883 522.825 142.971 521.005 142.616C517.846 141.932 514.94 140.336 514.94 136.712C514.94 133.493 517.644 131.441 521.56 131.441C523.583 131.441 526.337 132.379 527.348 132.809L526.489 135.42C525.756 135.116 523.355 134.203 521.56 134.203C518.503 134.203 517.72 135.851 517.72 136.712C517.72 138.612 519.767 139.449 521.459 139.778C524.492 140.488 528.182 142.135 528.233 145.784C528.233 147.076 527.752 151.435 521.359 151.435C519.236 151.409 516.961 150.7 514.611 149.357Z" fill="#1D1D1B"/>
<path d="M536.6 151.334C532.583 151.334 531.016 147.913 531.016 144.366C531.016 140.818 532.583 137.397 536.6 137.397H536.954C538.394 137.397 539.885 138.081 541.401 139.627L539.532 141.502C538.192 140.184 537.409 140.031 536.954 140.031H536.6C534.452 140.031 533.719 142.288 533.719 144.366C533.719 146.443 534.452 148.699 536.6 148.699H536.954C537.409 148.699 538.192 148.547 539.532 147.229L541.401 149.104C539.885 150.65 538.394 151.334 536.954 151.334H536.6Z" fill="#1D1D1B"/>
<path d="M544.183 151.182V131.694H546.862V138.586C547.418 137.979 548.353 137.396 549.692 137.396C553.61 137.396 555.201 140.791 555.201 144.34V151.182H552.547V144.34C552.547 142.262 551.814 140.031 549.692 140.031C547.57 140.031 546.862 142.262 546.862 144.34V151.182H544.183Z" fill="#1D1D1B"/>
<path d="M566.752 144.366C566.752 142.288 565.943 140.031 563.72 140.031C561.522 140.031 560.662 142.288 560.662 144.366C560.662 146.443 561.522 148.699 563.72 148.699C565.943 148.699 566.752 146.443 566.752 144.366ZM557.983 144.366C557.983 140.818 559.677 137.397 563.72 137.397C567.789 137.397 569.432 140.818 569.432 144.366C569.432 147.913 567.789 151.334 563.72 151.334C559.677 151.334 557.983 147.913 557.983 144.366Z" fill="#1D1D1B"/>
<path d="M580.729 144.366C580.729 142.288 579.921 140.031 577.697 140.031C575.499 140.031 574.639 142.288 574.639 144.366C574.639 146.443 575.499 148.699 577.697 148.699C579.921 148.699 580.729 146.443 580.729 144.366ZM571.961 144.366C571.961 140.818 573.654 137.397 577.697 137.397C581.766 137.397 583.409 140.818 583.409 144.366C583.409 147.913 581.766 151.334 577.697 151.334C573.654 151.334 571.961 147.913 571.961 144.366Z" fill="#1D1D1B"/>
<path d="M586.696 131.695H589.375V151.183H586.696V131.695Z" fill="#1D1D1B"/>
<path d="M165.162 76.5887C165.162 74.7841 163.762 73.3182 162.03 73.3182L151.365 73.3124C149.641 73.3182 148.233 74.7816 148.233 76.5887V80.4688H157.504V81.7399C157.504 82.4365 156.956 83.0118 156.284 83.0085H147.019C146.353 83.0085 145.802 82.4365 145.802 81.7357V74.739C145.802 72.5539 147.506 70.7727 149.595 70.7727H162.03C163.762 70.7727 165.162 69.3043 165.162 67.5022V62.7549H144.715C141.093 62.7549 138.139 65.8415 138.139 69.6346V84.134C138.139 87.9288 141.093 91.0221 144.715 91.0221H162.03C163.757 91.0221 165.162 89.5545 165.162 87.749V76.5887ZM177.236 83.0118C176.569 83.0118 176.024 82.4365 176.024 81.7441V80.4688H192.257C193.977 80.4688 195.387 79.0012 195.387 77.1916V73.3182H176.024V72.048C176.024 71.3447 176.573 70.7761 177.236 70.7761L192.257 70.7794C193.977 70.7794 195.387 69.3043 195.387 67.5022V62.7599H174.939C171.312 62.7549 168.355 65.844 168.355 69.6396V84.1415C168.355 87.9355 171.312 91.0221 174.939 91.0221L192.257 91.0254C193.977 91.0254 195.387 89.562 195.387 87.7557V83.0168L177.236 83.0118ZM205.16 62.7599C201.533 62.7599 198.579 65.8456 198.579 69.6471V91.0254H203.109C204.834 91.0254 206.244 89.562 206.244 87.7557V72.048C206.244 71.3447 206.791 70.7794 207.456 70.7794H208.668V91.0254H212.385C214.108 91.0254 215.507 89.562 215.507 87.7557V72.048C215.507 71.3514 216.053 70.7794 216.72 70.7794H217.939V91.0254H222.475C224.199 91.0313 225.607 89.562 225.607 87.7557V62.7616L205.16 62.7599ZM255.862 76.5971V84.1533C255.862 87.9456 252.912 91.0371 249.28 91.0371L228.834 91.0313V86.2848C228.834 84.4852 230.238 83.0168 231.964 83.0168L246.983 83.0218C247.656 83.0218 248.195 82.449 248.195 81.7491V80.478L231.964 80.4747C230.238 80.4747 228.834 79.0104 228.834 77.1975V69.6471C228.834 65.849 231.791 62.7616 235.419 62.7616H255.862V67.5097C255.862 69.3185 254.464 70.7844 252.738 70.7794H237.714C237.047 70.7794 236.501 71.3514 236.501 72.048V73.3232H252.738C254.464 73.3232 255.862 74.7983 255.862 76.5971Z" fill="#79242F"/>
<path d="M146.452 108.005H144.95V106.203H146.452V108.005ZM143.681 108.005H142.18V106.203H143.681V108.005ZM145.901 114.409V110.656H143.216C141.545 110.656 140.403 112.373 140.403 114.6C140.403 116.763 141.524 118.566 143.174 118.566C144.95 118.566 145.86 117.187 145.901 114.409ZM150.935 121.195H149.963C147.869 121.195 146.537 120.157 145.923 118.1C145.288 119.181 144.21 119.732 142.687 119.732C140.53 119.732 138.923 117.505 138.923 114.685C138.923 111.673 140.53 109.552 142.941 109.552H147.425V116.36C147.425 118.481 148.419 119.732 150.132 119.732H150.935V121.195Z" fill="#1D1D1B"/>
<path d="M160.074 110.04H158.573V108.238H160.074V110.04ZM157.304 110.04H155.802V108.238H157.304V110.04ZM160.709 116.232C160.709 114.112 159.757 112.818 158.023 112.818C156.14 112.818 155.168 114.24 155.168 116.487C155.168 118.608 156.204 119.965 157.938 119.965C159.778 119.965 160.709 118.714 160.709 116.232ZM162.337 116.381C162.337 119.138 160.624 121.195 157.938 121.195H150.43V119.711H154.554C153.857 118.862 153.497 117.76 153.497 116.403C153.497 113.646 155.211 111.589 157.959 111.589C160.645 111.589 162.337 113.497 162.337 116.381Z" fill="#1D1D1B"/>
<path d="M168.368 111.568V119.393C168.368 122.85 167.035 124.504 163.926 124.674V123.253C165.894 123.253 166.888 122.172 166.888 119.669V111.568H168.368Z" fill="#1D1D1B"/>
<path d="M175.856 121.195H174.185C173.423 121.195 172.789 120.919 172.26 120.389C171.647 119.795 171.351 118.948 171.351 117.824V107.474H172.874V116.932C172.874 117.908 173.022 118.608 173.296 119.032C173.529 119.393 173.931 119.605 174.502 119.689C174.65 119.711 174.819 119.711 175.856 119.711V121.195Z" fill="#1D1D1B"/>
<path d="M188.187 110.04H186.685V108.238H188.187V110.04ZM186.769 107.687H185.268V105.885H186.769V107.687ZM185.416 110.04H183.914V108.238H185.416V110.04ZM195.462 121.195H175.37V119.711H177.337C178.691 119.711 179.557 118.8 179.557 116.997V111.567H181.059V117.463C181.059 118.332 180.932 119.054 180.7 119.626V119.711H183.47C184.823 119.711 185.268 119.054 185.268 116.805V111.567H186.748V117.463C186.748 118.375 186.621 119.138 186.346 119.711H188.884C190.47 119.711 191 119.054 191 116.805V111.567H192.48V117.463C192.48 118.375 192.331 119.138 192.057 119.711H195.462V121.195Z" fill="#1D1D1B"/>
<path d="M200.013 107.474V117.463C200.013 119.944 198.977 121.195 196.904 121.195H195.064V119.732H196.417C197.327 119.732 197.919 119.436 198.215 118.841C198.427 118.46 198.533 117.781 198.533 116.805V107.474H200.013Z" fill="#1D1D1B"/>
<path d="M207.501 121.195H205.831C205.069 121.195 204.435 120.919 203.905 120.389C203.292 119.795 202.996 118.948 202.996 117.824V107.474H204.519V116.932C204.519 117.908 204.667 118.608 204.942 119.032C205.174 119.393 205.576 119.605 206.148 119.689C206.295 119.711 206.465 119.711 207.501 119.711V121.195Z" fill="#1D1D1B"/>
<path d="M212.218 124.419H210.717V122.617H212.218V124.419ZM212.218 111.567V117.463C212.218 119.944 211.182 121.195 209.11 121.195H207.249V119.732H208.623C209.533 119.732 210.125 119.436 210.421 118.841C210.633 118.46 210.739 117.781 210.739 116.805V111.567H212.218Z" fill="#1D1D1B"/>
<path d="M224.275 108.005H222.773V106.203H224.275V108.005ZM221.505 108.005H220.003V106.203H221.505V108.005ZM223.725 114.409V110.656H221.039C219.368 110.656 218.226 112.373 218.226 114.6C218.226 116.763 219.347 118.566 220.997 118.566C222.773 118.566 223.683 117.187 223.725 114.409ZM228.758 121.195H227.785C225.692 121.195 224.359 120.157 223.746 118.1C223.112 119.181 222.033 119.732 220.511 119.732C218.353 119.732 216.746 117.505 216.746 114.685C216.746 111.673 218.353 109.552 220.764 109.552H225.247V116.36C225.247 118.481 226.241 119.732 227.955 119.732H228.758V121.195Z" fill="#1D1D1B"/>
<path d="M243.946 119.732C243.989 119.265 244.009 118.82 244.009 118.396C244.009 115.109 242.656 112.903 240.33 112.903C237.75 112.903 234.704 115.915 233.584 119.371V119.732H243.946ZM245.405 121.195H228.254V119.711H230.221C231.722 119.711 232.462 118.608 232.462 116.403V112.585H233.943V116.275C235.529 113.285 238.089 111.546 240.436 111.546C243.819 111.546 245.511 113.964 245.511 118.736C245.511 119.478 245.469 120.305 245.405 121.195Z" fill="#1D1D1B"/>
<path d="M252.939 121.195H251.268C250.506 121.195 249.872 120.919 249.343 120.389C248.73 119.795 248.434 118.948 248.434 117.824V107.474H249.957V116.932C249.957 117.908 250.105 118.608 250.38 119.032C250.612 119.393 251.014 119.605 251.585 119.689C251.733 119.711 251.902 119.711 252.939 119.711V121.195Z" fill="#1D1D1B"/>
<path d="M260.807 110.04H259.306V108.238H260.807V110.04ZM269.415 121.195H252.433V119.711H265.291C265.312 119.436 265.333 119.181 265.333 118.948C265.333 115.363 263.451 113.306 260.131 113.306C258.333 113.306 257 114.006 256.155 115.406C255.944 115.173 255.52 114.749 254.864 114.091C256.069 112.585 257.804 111.843 260.109 111.843C264.318 111.843 267.088 114.643 267.088 119.054V119.711H269.415V121.195Z" fill="#1D1D1B"/>
<path d="M273.902 107.474V117.463C273.902 119.944 272.865 121.195 270.793 121.195H268.953V119.732H270.307C271.216 119.732 271.808 119.436 272.104 118.841C272.316 118.46 272.422 117.781 272.422 116.805V107.474H273.902Z" fill="#1D1D1B"/>
<path d="M278.218 121.195H276.738V107.474H278.218V121.195Z" fill="#1D1D1B"/>
<path d="M285.283 117.124C285.283 118.799 285.643 120.178 286.298 121.281C287.102 122.616 288.265 123.273 289.787 123.273C291.332 123.273 292.494 122.616 293.277 121.281C293.933 120.178 294.271 118.799 294.271 117.124V107.474H295.751V117.421C295.751 119.562 295.159 121.322 293.996 122.701C292.875 124.038 291.479 124.716 289.787 124.716C288.096 124.716 286.678 124.038 285.516 122.68C284.373 121.322 283.803 119.562 283.803 117.421V115.385H285.283V117.124Z" fill="#1D1D1B"/>
<path d="M303.242 121.195H301.572C300.809 121.195 300.176 120.919 299.646 120.389C299.033 119.795 298.737 118.948 298.737 117.824V107.474H300.26V116.932C300.26 117.908 300.408 118.608 300.683 119.032C300.915 119.393 301.317 119.605 301.888 119.689C302.036 119.711 302.205 119.711 303.242 119.711V121.195Z" fill="#1D1D1B"/>
<path d="M307.832 110.04H306.33V108.238H307.832V110.04ZM307.832 111.567V117.463C307.832 119.944 306.796 121.195 304.723 121.195H302.883V119.732H304.236C305.146 119.732 305.738 119.436 306.034 118.841C306.246 118.46 306.351 117.781 306.351 116.805V111.567H307.832Z" fill="#1D1D1B"/>
<path d="M316.589 119.711V115.236C316.589 114.621 316.398 114.09 316.017 113.667C315.595 113.179 315.003 112.925 314.22 112.925C313.416 112.925 312.761 113.307 312.254 114.049C311.809 114.707 311.577 115.448 311.577 116.254C311.577 117.103 311.767 117.866 312.169 118.523C312.655 119.329 313.31 119.732 314.136 119.732L316.589 119.711ZM320.861 121.195H317.942C317.519 123.38 316.081 124.525 313.65 124.674V123.252H313.84C315.193 123.252 316.06 122.552 316.419 121.195H314.114C312.93 121.195 311.957 120.75 311.196 119.838C310.435 118.926 310.054 117.781 310.054 116.403C310.054 115.025 310.456 113.879 311.26 112.946C312.084 112.013 313.099 111.546 314.305 111.546C316.652 111.546 318.111 112.988 318.111 115.788V119.732H320.861V121.195Z" fill="#1D1D1B"/>
<path d="M333.13 110.04H331.629V108.238H333.13V110.04ZM331.713 107.687H330.211V105.885H331.713V107.687ZM330.359 110.04H328.857V108.238H330.359V110.04ZM337.444 111.567V117.463C337.444 119.944 336.408 121.195 334.315 121.195H320.314V119.711H322.281C323.635 119.711 324.374 118.8 324.522 116.997V111.567H326.003V117.463C326.003 118.332 325.875 119.054 325.643 119.626V119.711H328.413C329.766 119.711 330.212 119.054 330.212 116.805V111.567H331.692V117.463C331.692 118.375 331.565 119.138 331.29 119.711H333.828C335.414 119.711 335.943 119.054 335.943 116.805V111.567H337.444Z" fill="#1D1D1B"/>
<path d="M344.935 121.195H343.264C342.503 121.195 341.868 120.919 341.34 120.389C340.726 119.795 340.431 118.948 340.431 117.824V107.474H341.953V116.932C341.953 117.908 342.101 118.608 342.376 119.032C342.609 119.393 343.01 119.605 343.581 119.689C343.73 119.711 343.899 119.711 344.935 119.711V121.195Z" fill="#1D1D1B"/>
<path d="M349.526 110.04H348.024V108.238H349.526V110.04ZM349.526 111.567V117.463C349.526 119.944 348.489 121.195 346.417 121.195H344.576V119.732H345.93C346.84 119.732 347.432 119.436 347.728 118.841C347.939 118.46 348.045 117.781 348.045 116.805V111.567H349.526Z" fill="#1D1D1B"/>
<path d="M359.043 121.195H355.406C355.004 123.379 353.566 124.524 351.112 124.673V123.252C353.08 123.252 354.074 122.171 354.074 119.668V111.567H355.553V119.711H359.043V121.195Z" fill="#1D1D1B"/>
<path d="M363.507 110.04H362.005V108.238H363.507V110.04ZM360.737 110.04H359.235V108.238H360.737V110.04ZM365.876 121.195H358.58V119.732H359.933C360.843 119.732 361.435 119.436 361.732 118.862C361.942 118.46 362.048 117.781 362.048 116.805V111.567H363.529V117.463C363.529 118.375 363.401 119.138 363.127 119.711H365.876V121.195Z" fill="#1D1D1B"/>
<path d="M370.467 110.04H368.965V108.238H370.467V110.04ZM370.467 111.567V117.463C370.467 119.944 369.431 121.195 367.359 121.195H365.519V119.732H366.872C367.781 119.732 368.373 119.436 368.67 118.841C368.881 118.46 368.987 117.781 368.987 116.805V111.567H370.467Z" fill="#1D1D1B"/>
<path d="M374.995 121.195H373.514V107.474H374.995V121.195ZM375.945 123.422L375.121 123.528C375.016 123.04 374.762 122.785 374.318 122.785C373.746 122.785 373.45 123.167 373.45 123.931C373.45 124.228 373.514 124.482 373.662 124.673H375.945V125.521H371.885V124.673H372.711C372.626 124.46 372.583 124.207 372.583 123.931C372.583 123.401 372.711 122.955 372.964 122.637C373.281 122.276 373.725 122.085 374.297 122.085C375.206 122.085 375.756 122.531 375.945 123.422Z" fill="#1D1D1B"/>
<path d="M386.565 120.666H385.063V118.863H386.565V120.666ZM389.843 116.043H385.761C383.604 116.043 382.187 117.505 382.187 119.732C382.187 121.769 383.498 123.126 385.761 123.126H387.961V124.695H385.761C382.737 124.695 380.58 122.723 380.58 119.626C380.58 117.124 382.124 114.537 385.317 114.537H388.363C388.151 111.843 386.903 110.486 384.703 110.486C384.239 110.486 383.879 110.571 383.477 110.783V109.489C383.667 109.404 384.302 109.278 385.042 109.278C388.236 109.278 389.864 111.419 389.864 115.406C389.864 115.618 389.864 115.83 389.843 116.043Z" fill="#1D1D1B"/>
<path d="M404.163 121.195H391.453V119.711H399.277C399.277 117.824 398.939 116.297 398.241 115.151C397.395 113.773 396.083 113.052 394.329 112.946H393.758V111.546C398.22 111.546 400.568 114.26 400.8 119.711H404.163V121.195Z" fill="#1D1D1B"/>
<path d="M408.776 124.439H407.274V122.637H408.776V124.439ZM406.005 124.439H404.503V122.637H406.005V124.439ZM408.797 111.567V117.463C408.797 119.944 407.761 121.195 405.688 121.195H403.827V119.731H405.202C406.111 119.731 406.703 119.435 406.999 118.841C407.211 118.46 407.317 117.781 407.317 116.805V111.567H408.797Z" fill="#1D1D1B"/>
<path d="M418.865 121.195H415.228C414.825 123.379 413.387 124.524 410.934 124.673V123.252C412.901 123.252 413.895 122.171 413.895 119.668V111.567H415.375V119.711H418.865V121.195Z" fill="#1D1D1B"/>
<path d="M423.35 124.419H421.848V122.617H423.35V124.419ZM425.698 121.195H418.402V119.732H419.755C420.665 119.732 421.256 119.436 421.553 118.862C421.764 118.46 421.87 117.781 421.87 116.805V111.567H423.35V117.463C423.35 118.375 423.223 119.138 422.949 119.711H425.698V121.195Z" fill="#1D1D1B"/>
<path d="M435.576 118.078C435.576 117.123 435.385 116.359 435.026 115.787C434.561 115.087 433.885 114.749 432.996 114.749C432.022 114.749 431.304 115.13 430.817 115.872C430.416 116.487 430.205 117.293 430.205 118.332C430.205 119.286 430.416 120.071 430.817 120.665C431.304 121.365 432.002 121.704 432.911 121.704C434.688 121.704 435.576 120.495 435.576 118.078ZM437.29 118.226C437.29 119.604 436.908 120.729 436.147 121.618C435.343 122.573 434.265 123.04 432.911 123.04C431.283 123.04 430.056 122.425 429.252 121.195H425.171V119.71H428.639C428.512 119.265 428.449 118.778 428.449 118.247C428.449 116.847 428.851 115.702 429.654 114.79C430.458 113.879 431.558 113.433 432.932 113.433C434.307 113.433 435.407 113.9 436.189 114.812C436.929 115.681 437.29 116.826 437.29 118.226Z" fill="#1D1D1B"/>
<path d="M444.778 121.195H443.108C442.347 121.195 441.712 120.919 441.183 120.389C440.57 119.795 440.274 118.948 440.274 117.824V107.474H441.797V116.932C441.797 117.908 441.945 118.608 442.22 119.032C442.453 119.393 442.854 119.605 443.425 119.689C443.573 119.711 443.743 119.711 444.778 119.711V121.195Z" fill="#1D1D1B"/>
<path d="M458.484 119.053V121.195H443.828V119.71H456.687C456.707 119.456 456.729 119.202 456.729 118.947C456.729 117.314 456.348 116 455.566 115.024C454.656 113.879 453.303 113.306 451.505 113.306H447.148C447.91 111.927 448.989 109.997 450.384 107.495H452.14L449.623 111.843H451.505C453.641 111.843 455.354 112.5 456.623 113.836C457.871 115.151 458.484 116.89 458.484 119.053Z" fill="#1D1D1B"/>
<path d="M490.169 121.195H475.302C475.302 121.046 475.28 120.877 475.217 120.687C474.287 123.232 472.172 124.716 469.824 124.716C466.461 124.716 463.839 121.704 463.839 117.421V111.567H465.32V117.124C465.32 120.835 467.053 123.273 469.824 123.273C472.383 123.273 473.991 121.259 474.266 117.972V111.567H475.788V117.421C475.788 118.248 475.703 119.011 475.534 119.711H478.178C479.531 119.711 479.975 119.053 479.975 116.805V111.567H481.456V117.463C481.456 118.375 481.329 119.138 481.054 119.711H483.592C485.178 119.711 485.707 119.032 485.707 116.805V111.567H487.187V117.463C487.187 118.375 487.039 119.138 486.764 119.711H490.169V121.195Z" fill="#1D1D1B"/>
<path d="M499.184 118.078C499.184 117.123 498.994 116.359 498.613 115.787C498.169 115.087 497.514 114.749 496.604 114.749C495.653 114.749 494.913 115.13 494.426 115.872C494.025 116.487 493.834 117.293 493.834 118.332C493.834 119.286 494.025 120.071 494.426 120.665C494.913 121.365 495.611 121.704 496.52 121.704C498.297 121.704 499.184 120.495 499.184 118.078ZM503.308 121.195H500.072C499.269 122.425 498.085 123.04 496.52 123.04C494.892 123.04 493.665 122.425 492.882 121.195H489.752V119.71H492.249C492.143 119.265 492.078 118.778 492.078 118.247C492.078 116.847 492.48 115.702 493.263 114.79C494.067 113.879 495.166 113.433 496.541 113.433C497.916 113.433 499.016 113.9 499.797 114.812C500.538 115.681 500.919 116.826 500.919 118.226C500.919 118.757 500.856 119.244 500.729 119.71H503.308V121.195Z" fill="#1D1D1B"/>
<path d="M507.838 124.439H506.336V122.637H507.838V124.439ZM505.067 124.439H503.565V122.637H505.067V124.439ZM510.164 121.195H502.868V119.731H504.221C505.131 119.731 505.723 119.435 506.019 118.862C506.23 118.46 506.336 117.781 506.336 116.805V111.567H507.817V117.463C507.817 118.374 507.69 119.138 507.415 119.711H510.164V121.195Z" fill="#1D1D1B"/>
<path d="M518.477 124.419H516.956V122.617H518.477V124.419ZM524.315 119.054V121.195H509.658V119.711H522.516C522.538 119.436 522.559 119.181 522.559 118.947C522.559 115.363 520.677 113.306 517.357 113.306C515.56 113.306 514.227 114.006 513.38 115.406C513.169 115.173 512.746 114.749 512.09 114.091C513.296 112.585 515.031 111.843 517.335 111.843C521.544 111.843 524.315 114.643 524.315 119.054Z" fill="#1D1D1B"/>
<path d="M537.198 108.005H535.696V106.203H537.198V108.005ZM534.427 108.005H532.925V106.203H534.427V108.005ZM536.649 114.409V110.656H533.963C532.292 110.656 531.15 112.373 531.15 114.6C531.15 116.763 532.271 118.566 533.92 118.566C535.696 118.566 536.606 117.187 536.649 114.409ZM541.682 121.195H540.709C538.615 121.195 537.283 120.157 536.67 118.1C536.035 119.181 534.956 119.732 533.433 119.732C531.277 119.732 529.669 117.505 529.669 114.685C529.669 111.673 531.277 109.552 533.688 109.552H538.171V116.36C538.171 118.481 539.165 119.732 540.878 119.732H541.682V121.195Z" fill="#1D1D1B"/>
<path d="M558.307 111.567V117.463C558.307 119.944 557.271 121.195 555.177 121.195H541.176V119.71H543.144C544.497 119.71 545.237 118.799 545.385 116.996V111.567H546.865V117.463C546.865 118.332 546.739 119.053 546.507 119.626V119.71H549.276C550.63 119.71 551.074 119.053 551.074 116.805V111.567H552.555V117.463C552.555 118.375 552.428 119.138 552.153 119.71H554.69C556.276 119.71 556.805 119.053 556.805 116.805V111.567H558.307Z" fill="#1D1D1B"/>
<path d="M564.338 111.568V119.393C564.338 122.85 563.006 124.504 559.898 124.674V123.253C561.864 123.253 562.859 122.172 562.859 119.669V111.568H564.338Z" fill="#1D1D1B"/>
<path d="M578.637 121.195H565.927V119.711H573.751C573.751 117.824 573.413 116.297 572.715 115.151C571.869 113.773 570.557 113.052 568.803 112.946H568.232V111.546C572.694 111.546 575.042 114.26 575.274 119.711H578.637V121.195Z" fill="#1D1D1B"/>
<path d="M588.431 118.078C588.431 117.123 588.24 116.359 587.882 115.787C587.416 115.087 586.74 114.749 585.851 114.749C584.878 114.749 584.159 115.13 583.673 115.872C583.272 116.487 583.06 117.293 583.06 118.332C583.06 119.286 583.272 120.071 583.673 120.665C584.159 121.365 584.857 121.704 585.767 121.704C587.543 121.704 588.431 120.495 588.431 118.078ZM590.145 118.226C590.145 119.604 589.764 120.729 589.002 121.618C588.199 122.573 587.12 123.04 585.767 123.04C584.138 123.04 582.911 122.425 582.108 121.195H578.026V119.71H581.495C581.368 119.265 581.304 118.778 581.304 118.247C581.304 116.847 581.706 115.702 582.509 114.79C583.313 113.879 584.413 113.433 585.788 113.433C587.163 113.433 588.262 113.9 589.044 114.812C589.785 115.681 590.145 116.826 590.145 118.226Z" fill="#1D1D1B"/>
<path d="M139.055 177.363L139.663 176.131C140.698 176.823 141.748 177.183 142.701 177.183C144.012 177.183 145.213 176.616 145.379 175.426C145.544 174.262 144.067 173.736 143.032 173.514C141.375 173.154 139.925 172.295 140.186 170.342C140.436 168.626 142.051 167.533 144.163 167.533C145.296 167.533 146.649 168.018 147.132 168.225L146.566 169.43C146.194 169.264 145.02 168.807 143.984 168.807C142.161 168.807 141.554 169.803 141.471 170.342C141.32 171.492 142.451 172.006 143.432 172.198C145.033 172.587 146.911 173.486 146.664 175.426C146.566 176.131 145.972 178.457 142.521 178.457C141.347 178.443 140.186 178.07 139.055 177.363Z" fill="#1D1D1B"/>
<path d="M154.59 173.501H149.867L149.205 178.319H147.921L149.412 167.672H150.696L150.047 172.227H154.769L155.419 167.672H156.703L155.211 178.319H153.927L154.59 173.501Z" fill="#1D1D1B"/>
<path d="M163.484 173.68C163.235 172.032 162.987 170.495 162.683 169.167C162.655 169.014 162.572 168.945 162.448 168.945H162.365C162.241 168.945 162.13 169.014 162.048 169.167C161.385 170.495 160.681 172.032 159.99 173.68H163.484ZM159.466 174.939C159.01 176.046 158.568 177.183 158.14 178.318H156.731C156.952 177.682 159.369 171.479 161.026 168.529C161.344 167.962 161.91 167.671 162.517 167.671H162.655C163.263 167.671 163.746 167.962 163.898 168.529C164.671 171.327 165.417 177.819 165.458 178.318H164.05C163.926 177.183 163.801 176.046 163.663 174.939H159.466Z" fill="#1D1D1B"/>
<path d="M169.078 172.461H171.701C172.723 172.461 173.634 171.824 173.8 170.702C173.952 169.553 173.22 168.945 172.198 168.945H169.575L169.078 172.461ZM172.598 178.318L172.985 175.494C173.15 174.371 172.461 173.735 171.522 173.735H168.898L168.263 178.318H166.979L168.47 167.671H172.377C174.297 167.671 175.36 168.958 175.112 170.702C174.946 171.838 174.31 172.682 173.578 173.167C174.076 173.653 174.435 174.427 174.283 175.494L173.897 178.318H172.598Z" fill="#1D1D1B"/>
<path d="M175.541 177.502L176.452 176.477C177.211 177.142 177.75 177.183 178.04 177.183C179.241 177.183 180.07 176.38 180.236 175.246L181.298 167.671H182.583L181.519 175.246C181.243 177.225 179.738 178.457 177.861 178.457C177.033 178.457 176.286 178.112 175.541 177.502Z" fill="#1D1D1B"/>
<path d="M189.364 173.68C189.115 172.032 188.867 170.495 188.563 169.167C188.535 169.014 188.452 168.945 188.328 168.945H188.245C188.121 168.945 188.01 169.014 187.928 169.167C187.265 170.495 186.561 172.032 185.87 173.68H189.364ZM185.346 174.939C184.89 176.046 184.448 177.183 184.02 178.318H182.611C182.832 177.682 185.249 171.479 186.906 168.529C187.224 167.962 187.789 167.671 188.397 167.671H188.535C189.143 167.671 189.626 167.962 189.778 168.529C190.551 171.327 191.297 177.819 191.338 178.318H189.93C189.806 177.183 189.68 176.046 189.543 174.939H185.346Z" fill="#1D1D1B"/>
<path d="M199.528 173.501H194.805L194.142 178.319H192.858L194.35 167.672H195.634L194.985 172.227H199.707L200.356 167.672H201.64L200.149 178.319H198.865L199.528 173.501Z" fill="#1D1D1B"/>
</g>
</svg>
