<svg width="600" height="250" viewBox="0 0 600 250" fill="none" xmlns="http://www.w3.org/2000/svg">
<g clip-path="url(#clip0_778_9)">
<mask id="mask0_778_9" style="mask-type:luminance" maskUnits="userSpaceOnUse" x="48" y="12" width="505" height="226">
<path d="M48 12H553V238H48V12Z" fill="white"/>
</mask>
<g mask="url(#mask0_778_9)">
<path d="M160.027 73.5068L162.799 68.6339C162.799 68.6339 203.044 57.4607 208.253 77.0355C213.461 96.6103 176.829 121.478 165.404 126.938L166.58 123.074C166.58 123.074 195.985 105.095 196.406 90.7291C196.826 76.3631 187.668 71.8261 173.301 72.8344C158.934 73.8427 160.027 73.5068 160.027 73.5068Z" fill="#9FD04E"/>
<path d="M138.304 138.261L133.86 135.566C133.86 135.566 124.024 138.48 113.532 136.367C103.041 134.254 92.622 131.267 100.418 112.616H91.9658C91.9658 112.616 81.2556 125.949 87.9588 135.784C94.6621 145.62 125.408 140.884 138.304 138.553" fill="#9FD04E"/>
<path d="M151.533 78.2922L162.373 62.7505C162.373 62.7505 130.636 47.6005 117.183 87.8262H133.639C133.639 87.8262 138.211 76.7249 151.533 78.2922Z" fill="#2A408C"/>
<path d="M134.299 110.373C134.299 110.373 138.413 117.829 143.812 119.372L154.268 105.488H174.666L150.583 138.654C150.583 138.654 120.585 134.969 116.471 110.373H134.299Z" fill="#2A408C"/>
<path d="M115.858 106.406H132.775C132.395 104.978 132.059 103.177 131.928 101.032H115.53C115.544 102.719 115.642 104.519 115.858 106.406Z" fill="#2A408C"/>
<path d="M132.654 91.6779L116.285 91.7366C116.039 93.1306 115.802 94.8515 115.66 96.832H131.946C132.053 95.2401 132.273 93.5229 132.654 91.6779Z" fill="#2A408C"/>
<path d="M153.754 92.2041H175.094C173.381 90.4047 170.467 86.0339 170.467 86.0339H150.068L149.726 87.8255H133.639C133.233 89.1631 132.909 90.4479 132.654 91.6775L153.154 91.6043L153.754 92.2041Z" fill="#2A408C"/>
<path d="M107.815 87.8256L105.329 91.7754L116.286 91.7364C116.722 89.2646 117.183 87.8256 117.183 87.8256H107.815Z" fill="#2A408C"/>
<path d="M177.323 95.7186H157.096L156.154 96.8325H131.946C131.845 98.3512 131.849 99.7536 131.927 101.032H156.239L156.925 101.804H177.323L179.637 98.7177L177.323 95.7186Z" fill="#2A408C"/>
<path d="M115.659 96.832H101.473L98.9017 101.031H115.529C115.517 99.5359 115.567 98.127 115.659 96.832Z" fill="#2A408C"/>
<path d="M152.125 110.373L153.577 106.406H132.775C133.467 109.001 134.299 110.373 134.299 110.373H152.125Z" fill="#2A408C"/>
<path d="M92.2164 110.373H116.472C116.204 109.016 116.006 107.692 115.859 106.406H95.1305L92.2164 110.373Z" fill="#2A408C"/>
<path d="M330.484 141.654H329.571V59.6729H330.484V141.654Z" fill="#9FD04E"/>
<path d="M362.626 66.2458C361.88 64.4938 360.062 63.7146 358.278 63.7146C356.201 63.7146 354.189 64.8506 354.189 66.8948V75.2669C354.189 77.3111 356.298 78.317 358.44 78.317C360.582 78.317 362.756 77.3111 362.756 75.2669V74.1639H357.531V69.5232H367.429V75.2669C367.429 80.3617 362.951 82.9253 358.472 82.9577C353.961 82.9901 349.451 80.4265 349.451 75.2669V66.8948C349.451 61.8648 353.929 59.3342 358.408 59.3342C361.523 59.3342 364.736 60.5992 366.488 64.2016L362.626 66.2458Z" fill="#2A408C"/>
<path d="M370.415 59.6593H375.185V77.8311H385.115V82.6338H370.415V59.6593Z" fill="#2A408C"/>
<path d="M391.736 75.3319C391.736 77.2788 394.073 78.2199 396.409 78.2199C398.746 78.1876 401.05 77.2465 401.05 75.3319V66.9921C401.05 65.0127 398.714 64.0392 396.377 64.0716C394.073 64.0716 391.736 65.0775 391.736 66.9921V75.3319ZM386.998 66.9921C386.998 61.8649 391.704 59.3013 396.409 59.3337C401.115 59.3337 405.821 61.8973 405.821 66.9921V75.3319C405.821 80.4266 401.115 82.9902 396.409 82.9902C391.704 82.9902 386.998 80.459 386.998 75.3319V66.9921Z" fill="#2A408C"/>
<path d="M418.314 77.9927C422.793 77.9927 422.857 72.7359 418.314 72.7359H413.998V77.9927H418.314ZM418.314 68.647C421.559 68.647 421.949 64.299 418.314 64.299H413.998V68.647H418.314ZM423.345 70.3991C426.2 71.7948 426.752 74.488 426.427 76.7919C426.005 79.8749 423.766 82.6328 418.477 82.6328H409.228V59.6259H418.314C422.273 59.6259 425.518 61.9298 425.518 66.3756C425.518 67.6736 424.902 69.5234 423.345 70.3991Z" fill="#2A408C"/>
<path d="M434.281 68.81H444.179V73.4501H434.281V77.9931H445.054V82.6338H429.478V59.6269H445.054V64.2994H434.281V68.81Z" fill="#2A408C"/>
<path d="M448.398 59.6593H453.169V77.8311H463.099V82.6338H448.398V59.6593Z" fill="#2A408C"/>
<path d="M470.368 82.6338H465.598V59.6593H470.368V82.6338Z" fill="#2A408C"/>
<path d="M509.375 59.6593H515.184L505.318 70.9195L515.184 82.6338H509.278L502.106 74.0997L501.197 74.9754V82.6338H496.427V59.6593H501.197V69.2322L509.375 59.6593Z" fill="#2A408C"/>
<path d="M353.053 134.756C355.129 138.065 361.166 138.13 361.361 134.918C361.458 132.938 359.316 132.484 356.947 132.16C353.345 131.608 349.613 129.921 349.678 124.858C349.937 120.51 353.929 118.239 358.051 118.239C361.036 118.239 363.892 119.406 365.807 122.295L361.88 124.924C360.906 123.431 359.543 122.749 358.051 122.749C356.233 122.749 354.643 123.431 354.546 125.021V125.053C354.578 126.935 356.493 127.195 358.505 127.617C362.496 128.363 366.39 129.823 366.164 135.243C365.774 139.558 361.62 141.895 357.434 141.895C354.448 141.895 351.398 140.435 349.451 137.514L353.053 134.756Z" fill="#2A408C"/>
<path d="M373.822 141.57H369.051V118.596H373.822V127.714H382.292V118.596H387.062V141.57H382.292V132.16H373.822V141.57Z" fill="#2A408C"/>
<path d="M395.858 141.57H391.087V118.596H395.858V141.57Z" fill="#2A408C"/>
<path d="M408.935 129.986C413.575 129.986 413.641 123.398 408.935 123.398H404.619V129.986H408.935ZM399.881 118.596H408.935C419.936 118.628 419.806 134.464 408.967 134.464H404.619V141.57H399.881V118.596Z" fill="#2A408C"/>
<path d="M428.959 129.986C433.599 129.986 433.664 123.398 428.959 123.398H424.643V129.986H428.959ZM419.905 118.596H428.959C439.96 118.628 439.83 134.464 428.991 134.464H424.643V141.57H419.905V118.596Z" fill="#2A408C"/>
<path d="M444.698 141.57H439.927V118.596H444.698V141.57Z" fill="#2A408C"/>
<path d="M483.348 125.183C482.601 123.431 480.784 122.652 478.999 122.652C476.922 122.652 474.91 123.788 474.91 125.832V134.204C474.91 136.249 477.019 137.254 479.161 137.254C481.303 137.254 483.477 136.249 483.477 134.204V133.101H478.253V128.461H488.151V134.204C488.151 139.299 483.672 141.863 479.194 141.895C474.683 141.928 470.172 139.364 470.172 134.204V125.832C470.172 120.802 474.651 118.272 479.129 118.272C482.245 118.272 485.457 119.537 487.209 123.139L483.348 125.183Z" fill="#2A408C"/>
<path d="M386.025 98.2123H395.923V102.852H386.025V107.395H396.799V112.036H381.222V89.0292H396.799V93.7017H386.025V98.2123Z" fill="#2A408C"/>
<path d="M402.575 105.222C404.652 108.532 410.689 108.597 410.884 105.385C410.981 103.405 408.838 102.951 406.469 102.626C402.867 102.075 399.135 100.387 399.201 95.3249C399.46 90.9769 403.452 88.7054 407.573 88.7054C410.559 88.7054 413.414 89.8733 415.329 92.7613L411.403 95.3903C410.429 93.8974 409.066 93.216 407.573 93.216C405.756 93.216 404.165 93.8974 404.068 95.4875V95.5199C404.101 97.4021 406.015 97.6618 408.027 98.0835C412.019 98.8296 415.913 100.29 415.686 105.709C415.297 110.025 411.143 112.361 406.957 112.361C403.971 112.361 400.92 110.901 398.973 107.981L402.575 105.222Z" fill="#2A408C"/>
<path d="M428.441 93.8319V112.036H423.638V93.8319H417.051V89.0292H435.028V93.8319H428.441Z" fill="#2A408C"/>
<path d="M505.36 99.2839C507.47 99.2839 508.8 98.44 508.8 96.4283C508.8 94.4813 507.372 93.7999 505.36 93.8647H501.109V99.2839H505.36ZM502.796 103.632H501.109V112.037H496.306V89.062H505.36C509.968 89.062 513.44 91.1715 513.57 96.3959C513.57 100.614 511.655 102.658 508.345 103.307L515.192 112.037H509.319L502.796 103.632Z" fill="#2A408C"/>
<path d="M374.211 89.0616L370.869 101.1L370.862 101.157L370.017 104.21L366.228 92.2418H362.366L361.225 95.6757C360.69 97.2022 360.255 98.3665 359.472 100.953L358.466 103.977L354.384 89.0616H349.451L356.103 112.036H360.776L364.087 100.419H364.346L367.818 112.036H372.492L379.111 89.0616H374.211Z" fill="#2A408C"/>
<path d="M461.962 118.596V130.342C461.965 130.39 461.989 133.414 461.989 133.414L453.427 118.596H448.722V141.57H453.525V130.375V127.567L461.637 141.57H466.733V118.596H461.962Z" fill="#2A408C"/>
<path d="M487.632 59.6593V71.4059C487.635 71.4533 487.659 74.4776 487.659 74.4776L479.098 59.6593H474.392V82.6338H479.195V71.4389V68.63L487.308 82.6338H492.403V59.6593H487.632Z" fill="#2A408C"/>
<path d="M258.01 109.895L258.03 109.889L258.028 109.887L258.01 109.895Z" fill="#273671"/>
<path d="M278.531 89.2051L267.067 52.7175L254.764 89.2051H220.272L246.369 111.954L258.026 109.884L244.882 98.4254H261.386L266.757 82.4956L271.762 98.4254H288.93L275.491 109.612L287.369 111.723L314.418 89.2051H278.531Z" fill="#2A408C"/>
<path d="M286.47 114.13L275.529 109.643L275.474 109.627L275.47 109.631L280.245 125.38L267.183 116.2L253.201 126.076L258.032 109.889L258.031 109.888L258.01 109.894L247.069 114.38L236.738 148.995L267.196 127.48L296.831 148.307L286.47 114.13Z" fill="#2F8A3F"/>
<path d="M445.191 105.222C447.268 108.532 453.304 108.597 453.499 105.385C453.596 103.405 451.454 102.951 449.085 102.626C445.483 102.075 441.751 100.387 441.816 95.3249C442.076 90.9769 446.068 88.7054 450.188 88.7054C453.174 88.7054 456.03 89.8733 457.945 92.7613L454.018 95.3903C453.044 93.8974 451.681 93.216 450.188 93.216C448.372 93.216 446.781 93.8974 446.684 95.4875V95.5199C446.717 97.4021 448.631 97.6618 450.643 98.0835C454.634 98.8296 458.529 100.29 458.302 105.709C457.912 110.025 453.759 112.361 449.572 112.361C446.586 112.361 443.536 110.901 441.589 107.981L445.191 105.222Z" fill="#2A408C"/>
<path d="M470.677 93.8319V112.036H465.875V93.8319H459.287V89.0292H477.265V93.8319H470.677Z" fill="#2A408C"/>
<path d="M482.356 102.398L484.458 94.5253L486.77 102.398H482.356ZM486.77 89.0616H482.194L474.146 112.036H479.241L481.156 106.779H488.003L490.015 112.036H495.012L486.77 89.0616Z" fill="#2A408C"/>
<path d="M493.695 132.303H495.621V139.641H499.63V141.579H493.695V132.303Z" fill="#2A408C"/>
<path d="M501.162 132.303H503.088V139.641H507.098V141.579H501.162V132.303Z" fill="#2A408C"/>
<path d="M515.247 139.771C514.447 141.068 513.177 141.71 511.945 141.71C510.15 141.71 508.303 140.675 508.303 138.631V135.251C508.303 133.22 510.111 132.172 511.945 132.172C513.177 132.172 514.539 132.801 515.168 134.163L513.623 135.002C513.255 134.308 512.509 133.993 511.801 134.006C510.976 134.019 510.216 134.477 510.216 135.251V138.631C510.216 139.39 510.95 139.836 511.762 139.849C512.457 139.863 513.216 139.548 513.583 138.84L515.247 139.771Z" fill="#2A408C"/>
<path d="M151.24 193.056H149.422V177.548H151.24V193.056Z" fill="#2A408C"/>
<path d="M156.408 182.433C157.853 181.929 159.409 181.491 160.833 181.491C162.979 181.535 165.104 182.696 165.104 185.214V193.056H163.374V185.149C163.374 183.769 162.06 183.112 160.833 183.112C159.825 183.112 158.796 183.375 158.161 183.616V193.056H156.408V182.433Z" fill="#2A408C"/>
<path d="M178.747 188.325C178.747 190.427 180.762 191.435 182.799 191.435C184.814 191.435 186.851 190.427 186.851 188.325V177.548H188.692V188.325C188.692 191.611 185.734 193.275 182.799 193.275C179.842 193.275 176.907 191.611 176.907 188.325V177.548H178.747V188.325Z" fill="#2A408C"/>
<path d="M193.616 182.433C195.062 181.929 196.617 181.491 198.041 181.491C200.187 181.535 202.313 182.696 202.313 185.214V193.056H200.582V185.149C200.582 183.769 199.268 183.112 198.041 183.112C197.034 183.112 196.004 183.375 195.369 183.616V193.056H193.616V182.433Z" fill="#2A408C"/>
<path d="M208.97 193.056H207.217V181.71H208.97V193.056ZM208.049 177.329C208.75 177.329 209.276 177.855 209.276 178.555C209.276 179.235 208.75 179.782 208.049 179.782C207.37 179.782 206.823 179.235 206.823 178.555C206.823 177.855 207.37 177.329 208.049 177.329Z" fill="#2A408C"/>
<path d="M218.518 193.231C218.277 193.254 218.058 193.275 217.839 193.275C215.539 193.275 213.874 191.874 213.874 189.552V178.84H215.605V181.71H217.926V183.331H215.605V189.552C215.605 190.844 216.7 192.07 218.518 191.721V193.231Z" fill="#2A408C"/>
<path d="M223.905 194.436C224.519 195.181 225.658 195.575 226.687 195.575C228.089 195.575 229.491 195.027 229.491 193.45V192.573C228.724 193.1 227.695 193.254 226.775 193.275C224.519 193.297 222.284 191.895 222.284 189.376V181.71H224.08V189.42C224.08 190.799 225.417 191.566 226.73 191.588C227.629 191.588 228.593 191.391 229.491 191.04V181.71H231.243V193.45C231.243 196.079 229.074 197.283 226.818 197.283C225.328 197.283 223.73 196.67 222.7 195.531L223.905 194.436Z" fill="#2A408C"/>
<path d="M236.694 195.926H234.898L236.431 191.129H238.49L236.694 195.926Z" fill="#2A408C"/>
<path d="M268.299 177.548L263.809 193.056H261.575L258.312 182.739L255.026 193.056H252.791L248.301 177.548H250.206L253.93 190.865L257.501 179.498H259.121L262.67 190.844L266.416 177.548H268.299Z" fill="#2A408C"/>
<path d="M277.912 185.171C277.912 183.835 276.532 183.09 275.24 183.09C273.772 183.09 272.589 183.835 272.611 185.215V186.792H277.912V185.171ZM272.611 189.639C272.611 191.019 273.903 191.654 275.24 191.654C276.269 191.654 277.364 191.172 277.824 190.121L279.358 190.778C278.569 192.443 276.882 193.275 275.24 193.275C273.049 193.275 270.836 192.027 270.836 189.507V185.259C270.836 182.718 273.049 181.491 275.24 181.491C277.386 181.491 279.576 182.718 279.576 185.259V188.259H272.611V189.639Z" fill="#2A408C"/>
<path d="M291.072 177.548H292.912V191.216H300.36V193.056H291.072V177.548Z" fill="#2A408C"/>
<path d="M306.008 193.056H304.256V181.71H306.008V193.056ZM305.089 177.329C305.789 177.329 306.315 177.855 306.315 178.555C306.315 179.235 305.789 179.782 305.089 179.782C304.409 179.782 303.861 179.235 303.861 178.555C303.861 177.855 304.409 177.329 305.089 177.329Z" fill="#2A408C"/>
<path d="M310.958 182.433C312.404 181.929 313.959 181.491 315.382 181.491C317.529 181.535 319.654 182.696 319.654 185.214V193.056H317.923V185.149C317.923 183.769 316.609 183.112 315.382 183.112C314.374 183.112 313.345 183.375 312.71 183.616V193.056H310.958V182.433Z" fill="#2A408C"/>
<path d="M331.567 181.71H333.845L328.719 186.879L333.735 193.056H331.523L327.493 188.127L326.31 189.31V193.056H324.558V177.767H326.31V186.966L331.567 181.71Z" fill="#2A408C"/>
<path d="M349.635 179.388V193.056H347.794V179.388H342.822V177.548H354.607V179.388H349.635Z" fill="#2A408C"/>
<path d="M360.255 182.148C361.175 181.688 362.161 181.491 363.037 181.491C365.227 181.447 367.22 182.63 367.22 185.258V193.056H365.49V185.237C365.49 183.769 364.176 183.134 362.883 183.111C361.985 183.111 361.263 183.243 360.255 183.681V193.056H358.502V177.767H360.255V182.148Z" fill="#2A408C"/>
<path d="M378.849 185.171C378.849 183.835 377.469 183.09 376.177 183.09C374.709 183.09 373.526 183.835 373.548 185.215V186.792H378.849V185.171ZM373.548 189.639C373.548 191.019 374.841 191.654 376.177 191.654C377.206 191.654 378.301 191.172 378.761 190.121L380.295 190.778C379.506 192.443 377.82 193.275 376.177 193.275C373.986 193.275 371.774 192.027 371.774 189.507V185.259C371.774 182.718 373.986 181.491 376.177 181.491C378.324 181.491 380.514 182.718 380.514 185.259V188.259H373.548V189.639Z" fill="#2A408C"/>
<path d="M391.55 182.171C391.55 178.972 394.485 177.33 397.42 177.33C399.633 177.33 401.889 178.381 402.896 180.483L401.232 181.228C400.553 179.848 398.931 179.126 397.377 179.126C395.383 179.126 393.368 180.111 393.368 182.126V188.368C393.368 190.427 395.405 191.435 397.42 191.435C399.435 191.435 401.495 190.427 401.495 188.368V186.814H396.917V184.996H403.312V188.368C403.312 191.654 400.377 193.275 397.42 193.275C394.463 193.275 391.55 191.654 391.55 188.368V182.171Z" fill="#2A408C"/>
<path d="M411.589 193.275C409.114 193.275 407.734 191.895 407.734 189.574V177.746H409.486V189.574C409.486 190.822 410.143 191.633 411.589 191.633V193.275Z" fill="#2A408C"/>
<path d="M416.691 185.237V189.507C416.691 190.931 418.072 191.61 419.342 191.61C420.568 191.61 421.948 190.931 421.948 189.507V185.237C421.948 183.812 420.568 183.155 419.342 183.155C418.072 183.155 416.691 183.812 416.691 185.237ZM414.939 185.281C414.939 182.761 417.151 181.513 419.342 181.491C421.51 181.513 423.7 182.761 423.7 185.281V189.486C423.7 192.027 421.51 193.253 419.342 193.275C417.151 193.253 414.939 192.027 414.939 189.486V185.281Z" fill="#2A408C"/>
<path d="M430.05 191.348C430.905 191.611 431.846 191.698 432.745 191.698C434.038 191.698 435.308 190.888 435.308 189.508V185.259C435.308 183.836 434.059 183.068 432.745 183.046C431.891 183.046 430.905 183.222 430.05 183.681V191.348ZM430.05 182.193C430.927 181.732 431.869 181.491 432.811 181.491C435.022 181.491 437.082 182.697 437.082 185.281V189.508C437.082 192.027 434.914 193.231 432.745 193.275C431.299 193.275 429.788 192.968 428.299 192.464V177.724H430.05V182.193Z" fill="#2A408C"/>
<path d="M448.448 185.171C448.448 183.835 447.068 183.09 445.776 183.09C444.307 183.09 443.125 183.835 443.147 185.215V186.792H448.448V185.171ZM443.147 189.639C443.147 191.019 444.439 191.654 445.776 191.654C446.805 191.654 447.9 191.172 448.36 190.121L449.894 190.778C449.105 192.443 447.419 193.275 445.776 193.275C443.585 193.275 441.372 192.027 441.372 189.507V185.259C441.372 182.718 443.585 181.491 445.776 181.491C447.923 181.491 450.113 182.718 450.113 185.259V188.259H443.147V189.639Z" fill="#2A408C"/>
</g>
</g>
<defs>
<clipPath id="clip0_778_9">
<rect width="505" height="226" fill="white" transform="translate(48 12)"/>
</clipPath>
</defs>
</svg>
