<svg width="600" height="250" viewBox="0 0 600 250" fill="none" xmlns="http://www.w3.org/2000/svg">
<path d="M317.283 25.7924C315.568 25.3407 313.853 24.9043 312.153 24.4986C310.194 24.0393 308.31 25.5321 308.318 27.5455V41.4404C308.318 43.3084 307.223 45.0692 305.47 45.7276C303.265 46.5544 301.16 45.7582 300.004 44.2041C299.989 44.2194 299.981 44.2271 299.958 44.2347C296.551 39.7179 291.131 36.8011 285.045 36.8165C275.185 36.8318 266.825 44.8625 266.45 54.7153C266.028 65.3489 274.534 74.0916 285.076 74.0916C291.154 74.0916 296.551 71.1824 299.958 66.6733C299.973 66.6733 299.981 66.681 299.981 66.6963C301.137 65.1269 303.25 64.3154 305.463 65.1422C307.216 65.8006 308.318 67.5614 308.318 69.4293C308.318 69.5442 308.303 69.6513 308.295 69.7585H308.318L304.605 85.6975H318.286C320.161 85.6975 321.914 84.5951 322.565 82.8419C323.4 80.6295 322.58 78.5242 321.011 77.3605C321.019 77.3605 321.026 77.3452 321.034 77.3452C316.517 73.9385 313.6 68.5183 313.608 62.4244C313.631 52.564 321.662 44.2194 331.507 43.8366C342.14 43.4232 350.891 51.921 350.891 62.4627C350.891 68.5413 347.974 73.9461 343.465 77.3452C343.473 77.3605 343.48 77.3682 343.496 77.3911C341.949 78.5471 341.145 80.6524 341.98 82.8496C342.63 84.6027 344.391 85.6975 346.267 85.6975H360.116C364.487 85.6975 367.925 89.4793 367.465 93.8201C364.487 122.123 346.106 145.817 320.881 156.412C318.002 157.622 318.783 161.901 321.899 162.031C365.704 163.846 401.479 147.96 408.959 120.086C418.582 84.1587 377.54 41.9381 317.283 25.7847" fill="#C8A977"/>
<path d="M282.228 155.898C283.935 156.358 285.65 156.787 287.349 157.192C289.317 157.659 291.193 156.166 291.193 154.145V140.25C291.193 138.382 292.287 136.622 294.033 135.963C296.238 135.136 298.343 135.933 299.499 137.479C299.514 137.471 299.529 137.464 299.545 137.448C302.952 141.965 308.364 144.882 314.458 144.867C324.318 144.851 332.663 136.821 333.053 126.968C333.467 116.342 324.969 107.592 314.427 107.592C308.341 107.592 302.944 110.501 299.552 115.01C299.537 115.01 299.537 115.01 299.529 114.995C298.373 116.564 296.261 117.376 294.048 116.549C292.295 115.89 291.2 114.13 291.2 112.254C291.2 112.139 291.215 112.04 291.223 111.925H291.208L294.913 95.9857H281.24C279.365 95.9857 277.604 97.0882 276.945 98.8413C276.119 101.054 276.93 103.167 278.492 104.323C278.492 104.33 278.492 104.346 278.484 104.346C282.993 107.752 285.91 113.165 285.903 119.259C285.887 129.119 277.856 137.464 268.004 137.847C257.37 138.26 248.627 129.762 248.627 119.22C248.627 113.134 251.537 107.737 256.053 104.338C256.038 104.323 256.03 104.307 256.015 104.292C257.561 103.136 258.358 101.031 257.538 98.826C256.88 97.0729 255.119 95.9781 253.251 95.9781H239.402C235.031 95.9781 231.586 92.1962 232.053 87.8478C235.031 59.5527 253.404 35.8586 278.63 25.2633C281.516 24.0537 280.735 19.7742 277.619 19.6364C233.814 17.822 198.032 33.6998 190.56 61.5815C180.937 97.5169 221.971 139.738 282.235 155.883" fill="#003A70"/>
<path d="M251.59 230.304V206.778C251.59 205.905 251.521 205.163 251.368 204.566C251.207 203.938 250.893 203.295 250.411 202.659C249.891 201.986 249.048 201.481 247.9 201.144C246.813 200.83 245.443 200.669 243.835 200.669C240.03 200.669 237.626 201.09 236.47 201.963C235.291 202.859 234.686 204.474 234.686 206.778V230.304H229.596V206.778C229.596 204.482 228.998 202.859 227.812 201.963C226.663 201.09 224.252 200.669 220.447 200.669C218.847 200.669 217.477 200.83 216.39 201.144C215.241 201.481 214.391 201.993 213.879 202.659C213.396 203.295 213.075 203.938 212.914 204.566C212.761 205.155 212.692 205.905 212.692 206.778V230.304H207.632V206.365C207.632 203.318 208.397 201.029 209.913 199.559C211.429 198.089 214.277 197.339 218.38 197.339C219.926 197.339 224.627 197.339 227 198.158C229.289 198.947 231.142 200.317 231.479 201.481L231.494 201.549L232.152 202.652L232.796 201.549L232.819 201.481C233.163 200.309 235 198.947 237.297 198.158C239.67 197.339 244.363 197.339 245.91 197.339C250.021 197.339 252.869 198.089 254.384 199.559C255.9 201.021 256.658 203.318 256.658 206.365V230.304H251.598H251.59Z" fill="#003A70"/>
<path d="M279.855 230.992C275.177 230.992 271.855 230.265 269.979 228.833C268.165 227.44 267.246 224.776 267.246 220.933V206.219C267.246 203.026 268.187 200.806 270.109 199.436C272.069 198.043 275.476 197.338 280.207 197.338C285.619 197.338 288.957 198.693 288.957 198.693V201.702C285.979 200.745 283.185 200.523 281.73 200.523C277.918 200.523 275.476 200.822 274.258 201.411C272.919 202.069 272.245 203.47 272.245 205.591V222.096C272.245 224.186 272.98 225.702 274.419 226.598C275.797 227.44 278.002 227.861 281.187 227.861C284.724 227.861 287.235 227.455 288.873 226.629C290.618 225.74 291.506 224.217 291.506 222.104V183.229C291.506 183.16 291.56 183.106 291.629 183.106H296.559V223.605C296.559 225.296 296.559 228.091 292.387 229.798C290.435 230.602 283.307 231 279.862 231" fill="#003A70"/>
<path d="M317.612 230.993C313.156 230.993 310.056 230.327 308.41 229.01C306.787 227.732 305.968 225.014 305.968 220.933C305.968 217.404 306.733 214.962 308.257 213.676C309.795 212.367 312.819 211.701 317.482 211.701C322.144 211.701 325.512 212.313 325.512 212.313V215.023C325.512 215.023 320.965 214.419 317.895 214.419C314.825 214.419 312.965 214.817 312.123 215.697C311.288 216.554 310.882 218.331 310.882 221.14C310.882 223.644 311.303 225.381 312.153 226.438C313.034 227.54 314.756 228.068 317.413 228.068H318.661C319.855 228.068 320.873 228.053 321.692 228C322.519 227.954 323.461 227.823 324.502 227.609C325.619 227.387 326.477 226.989 327.089 226.438C327.74 225.841 328.069 225.06 328.069 224.111V205.806C328.069 203.754 327.403 202.33 326.079 201.58C324.854 200.876 322.672 200.531 319.411 200.531C316.149 200.531 312.505 200.784 308.517 201.281V197.905C312.835 197.53 316.793 197.339 320.306 197.339C325.765 197.339 329.309 197.982 330.856 199.245C332.372 200.485 333.13 203.18 333.13 207.261V226.17C333.13 229.286 327.618 231.001 317.612 231.001" fill="#003A70"/>
<path d="M354.833 230.993C350.385 230.993 347.285 230.327 345.631 229.01C344.016 227.732 343.189 225.014 343.189 220.933C343.189 217.404 343.962 214.962 345.478 213.676C347.025 212.367 350.041 211.701 354.703 211.701C359.365 211.701 362.734 212.313 362.734 212.313V215.023C362.734 215.023 358.194 214.419 355.124 214.419C352.054 214.419 350.202 214.817 349.36 215.697C348.525 216.554 348.119 218.331 348.119 221.14C348.119 223.644 348.533 225.381 349.39 226.438C350.271 227.54 351.993 228.068 354.642 228.068H355.89C357.084 228.068 358.11 228.053 358.921 228C359.748 227.954 360.698 227.823 361.739 227.609C362.849 227.387 363.722 226.989 364.326 226.438C364.985 225.841 365.314 225.06 365.314 224.111V205.806C365.314 203.754 364.648 202.33 363.331 201.58C362.099 200.876 359.917 200.531 356.655 200.531C353.394 200.531 349.75 200.784 345.769 201.281V197.905C350.079 197.53 354.045 197.339 357.551 197.339C363.01 197.339 366.554 197.982 368.093 199.245C369.609 200.485 370.374 203.18 370.374 207.261V226.17C370.374 229.286 364.862 231.001 354.856 231.001" fill="#003A70"/>
<path d="M393.663 230.992C388.977 230.992 385.662 230.265 383.787 228.833C381.972 227.44 381.046 224.776 381.046 220.933V206.219C381.046 203.026 381.988 200.806 383.909 199.436C385.877 198.043 389.276 197.338 394.007 197.338C399.42 197.338 402.765 198.693 402.765 198.693V201.702C399.787 200.745 396.985 200.523 395.531 200.523C391.718 200.523 389.284 200.822 388.066 201.411C386.719 202.069 386.045 203.47 386.045 205.591V222.096C386.045 224.186 386.78 225.702 388.219 226.598C389.59 227.44 391.81 227.861 394.979 227.861C398.516 227.861 401.027 227.455 402.666 226.629C404.419 225.74 405.299 224.217 405.299 222.104V183.229C405.299 183.16 405.353 183.106 405.422 183.106H410.352V223.605C410.352 225.296 410.352 228.091 406.179 229.798C404.227 230.602 397.1 231 393.655 231" fill="#003A70"/>
<path d="M194.54 183.106H189.733V230.303H194.54V183.106Z" fill="#003A70"/>
</svg>
