<svg width="543" height="298" viewBox="0 0 543 298" fill="none" xmlns="http://www.w3.org/2000/svg">
<path d="M294.681 17.7914C292.428 17.198 290.175 16.6247 287.942 16.0916C285.367 15.4881 282.893 17.4494 282.903 20.0946V38.3498C282.903 40.8039 281.464 43.1172 279.161 43.9822C276.265 45.0685 273.499 44.0225 271.98 41.9807C271.96 42.0008 271.95 42.0109 271.919 42.0209C267.444 36.0868 260.323 32.2547 252.327 32.2748C239.372 32.2949 228.389 42.8457 227.896 55.7902C227.343 69.7607 238.517 81.2469 252.367 81.2469C260.353 81.2469 267.444 77.4249 271.919 71.5007C271.94 71.5007 271.95 71.5108 271.95 71.5309C273.468 69.469 276.244 68.4029 279.151 69.4891C281.454 70.3541 282.903 72.6675 282.903 75.1216C282.903 75.2725 282.883 75.4133 282.873 75.5541H282.903L278.025 96.4947H295.998C298.462 96.4947 300.766 95.0464 301.621 92.7431C302.717 89.8364 301.641 87.0704 299.579 85.5416C299.589 85.5416 299.599 85.5215 299.609 85.5215C293.675 81.0457 289.843 73.9247 289.853 65.9186C289.883 52.964 300.434 42.0008 313.368 41.4979C327.339 40.9548 338.835 52.1191 338.835 65.9689C338.835 73.9549 335.003 81.0558 329.079 85.5215C329.089 85.5416 329.099 85.5517 329.119 85.5818C327.087 87.1006 326.031 89.8665 327.127 92.7532C327.982 95.0564 330.296 96.4947 332.76 96.4947H350.955C356.698 96.4947 361.214 101.463 360.61 107.166C356.698 144.35 332.549 175.48 299.408 189.4C295.626 190.989 296.652 196.611 300.746 196.782C358.297 199.166 405.298 178.296 415.124 141.675C427.767 94.4731 373.847 39.0036 294.681 17.7813" fill="#C8A977"/>
<path d="M248.625 188.726C250.868 189.329 253.121 189.893 255.354 190.426C257.939 191.039 260.403 189.078 260.403 186.423V168.167C260.403 165.713 261.841 163.4 264.135 162.535C267.031 161.449 269.797 162.495 271.316 164.527C271.336 164.516 271.356 164.506 271.376 164.486C275.852 170.42 282.963 174.253 290.969 174.232C303.924 174.212 314.887 163.662 315.4 150.717C315.943 136.757 304.779 125.26 290.929 125.26C282.933 125.26 275.842 129.082 271.386 135.006C271.366 135.006 271.366 135.006 271.356 134.986C269.837 137.048 267.061 138.114 264.155 137.028C261.851 136.163 260.413 133.85 260.413 131.386C260.413 131.235 260.433 131.104 260.443 130.953H260.423L265.291 110.013H247.328C244.864 110.013 242.55 111.461 241.685 113.764C240.599 116.671 241.665 119.447 243.717 120.966C243.717 120.976 243.717 120.996 243.707 120.996C249.631 125.472 253.463 132.583 253.453 140.589C253.433 153.543 242.882 164.506 229.938 165.009C215.967 165.552 204.481 154.388 204.481 140.538C204.481 132.542 208.303 125.451 214.237 120.986C214.217 120.966 214.207 120.945 214.187 120.925C216.219 119.407 217.265 116.641 216.188 113.744C215.323 111.441 213.01 110.002 210.556 110.002H192.361C186.618 110.002 182.092 105.034 182.706 99.3209C186.618 62.1468 210.757 31.0175 243.898 17.0973C247.69 15.5082 246.664 9.88579 242.57 9.70475C185.019 7.32102 138.008 28.1812 128.192 64.8122C115.549 112.024 169.459 167.494 248.635 188.706" fill="#003A70"/>
<path d="M208.373 286.479V255.571C208.373 254.424 208.283 253.449 208.082 252.664C207.87 251.839 207.458 250.994 206.824 250.16C206.14 249.275 205.034 248.611 203.525 248.168C202.097 247.756 200.297 247.545 198.185 247.545C193.186 247.545 190.028 248.098 188.509 249.244C186.96 250.421 186.165 252.543 186.165 255.571V286.479H179.477V255.571C179.477 252.553 178.692 250.421 177.133 249.244C175.625 248.098 172.456 247.545 167.458 247.545C165.355 247.545 163.555 247.756 162.127 248.168C160.618 248.611 159.502 249.285 158.828 250.16C158.194 250.994 157.772 251.839 157.561 252.664C157.359 253.439 157.269 254.424 157.269 255.571V286.479H150.621V255.028C150.621 251.025 151.626 248.017 153.618 246.086C155.609 244.155 159.351 243.169 164.742 243.169C166.774 243.169 172.949 243.169 176.067 244.246C179.074 245.282 181.509 247.082 181.951 248.611L181.971 248.701L182.836 250.15L183.681 248.701L183.711 248.611C184.164 247.072 186.578 245.282 189.595 244.246C192.713 243.169 198.879 243.169 200.91 243.169C206.311 243.169 210.053 244.155 212.044 246.086C214.036 248.007 215.032 251.025 215.032 255.028V286.479H208.383H208.373Z" fill="#003A70"/>
<path d="M245.507 287.384C239.362 287.384 234.997 286.429 232.533 284.548C230.149 282.717 228.942 279.217 228.942 274.168V254.837C228.942 250.642 230.179 247.726 232.704 245.925C235.278 244.095 239.754 243.169 245.97 243.169C253.081 243.169 257.466 244.95 257.466 244.95V248.902C253.554 247.645 249.883 247.354 247.972 247.354C242.963 247.354 239.754 247.746 238.155 248.52C236.395 249.385 235.51 251.226 235.51 254.012V275.697C235.51 278.443 236.475 280.434 238.366 281.611C240.177 282.717 243.073 283.27 247.257 283.27C251.904 283.27 255.203 282.737 257.356 281.651C259.649 280.484 260.815 278.483 260.815 275.707V224.633C260.815 224.542 260.886 224.472 260.976 224.472H267.454V277.678C267.454 279.901 267.454 283.572 261.972 285.815C259.407 286.871 250.043 287.394 245.517 287.394" fill="#003A70"/>
<path d="M295.113 287.384C289.259 287.384 285.186 286.509 283.023 284.779C280.891 283.099 279.815 279.529 279.815 274.168C279.815 269.531 280.82 266.323 282.822 264.633C284.844 262.913 288.817 262.038 294.942 262.038C301.067 262.038 305.493 262.843 305.493 262.843V266.403C305.493 266.403 299.518 265.609 295.485 265.609C291.452 265.609 289.008 266.132 287.901 267.288C286.805 268.415 286.272 270.748 286.272 274.439C286.272 277.728 286.825 280.012 287.942 281.4C289.098 282.848 291.361 283.542 294.851 283.542H296.491C298.06 283.542 299.397 283.522 300.474 283.451C301.56 283.391 302.797 283.22 304.165 282.938C305.633 282.647 306.76 282.124 307.565 281.4C308.419 280.615 308.852 279.589 308.852 278.342V254.293C308.852 251.598 307.977 249.727 306.237 248.741C304.628 247.816 301.761 247.364 297.476 247.364C293.192 247.364 288.404 247.695 283.164 248.349V243.914C288.837 243.421 294.037 243.169 298.653 243.169C305.825 243.169 310.481 244.014 312.513 245.674C314.505 247.303 315.5 250.844 315.5 256.204V281.048C315.5 285.141 308.259 287.394 295.113 287.394" fill="#003A70"/>
<path d="M344.015 287.384C338.171 287.384 334.098 286.509 331.925 284.779C329.803 283.099 328.717 279.529 328.717 274.168C328.717 269.531 329.732 266.323 331.724 264.633C333.756 262.913 337.718 262.038 343.844 262.038C349.969 262.038 354.394 262.843 354.394 262.843V266.403C354.394 266.403 348.43 265.609 344.397 265.609C340.364 265.609 337.93 266.132 336.823 267.288C335.727 268.415 335.194 270.748 335.194 274.439C335.194 277.728 335.737 280.012 336.863 281.4C338.02 282.848 340.283 283.542 343.763 283.542H345.403C346.972 283.542 348.319 283.522 349.386 283.451C350.472 283.391 351.719 283.22 353.087 282.938C354.545 282.647 355.692 282.124 356.487 281.4C357.351 280.615 357.784 279.589 357.784 278.342V254.293C357.784 251.598 356.909 249.727 355.179 248.741C353.56 247.816 350.693 247.364 346.408 247.364C342.124 247.364 337.336 247.695 332.106 248.349V243.914C337.769 243.421 342.979 243.169 347.585 243.169C354.757 243.169 359.413 244.014 361.435 245.674C363.426 247.303 364.432 250.844 364.432 256.204V281.048C364.432 285.141 357.191 287.394 344.045 287.394" fill="#003A70"/>
<path d="M395.028 287.384C388.873 287.384 384.518 286.429 382.053 284.548C379.67 282.717 378.453 279.217 378.453 274.168V254.837C378.453 250.642 379.69 247.726 382.214 245.925C384.799 244.095 389.265 243.169 395.481 243.169C402.592 243.169 406.987 244.95 406.987 244.95V248.902C403.074 247.645 399.393 247.354 397.482 247.354C392.473 247.354 389.275 247.746 387.676 248.52C385.906 249.385 385.02 251.226 385.02 254.012V275.697C385.02 278.443 385.986 280.434 387.877 281.611C389.677 282.717 392.594 283.27 396.758 283.27C401.405 283.27 404.704 282.737 406.856 281.651C409.159 280.484 410.316 278.483 410.316 275.707V224.633C410.316 224.542 410.387 224.472 410.477 224.472H416.954V277.678C416.954 279.901 416.954 283.572 411.473 285.815C408.908 286.871 399.544 287.394 395.018 287.394" fill="#003A70"/>
<path d="M133.422 224.472H127.105V286.479H133.422V224.472Z" fill="#003A70"/>
</svg>
