<svg width="600" height="250" viewBox="0 0 600 250" fill="none" xmlns="http://www.w3.org/2000/svg">
<path d="M406.513 49.2979V126.065L405.538 126.873L404.564 127.682L403.63 128.532L402.737 129.381L401.885 130.23L401.032 131.12L400.22 132.01L399.408 132.9V49.2979H314.037V119.189H306.973V49.2979H221.601V119.31H214.538V49.2979H129.166V129.098L107.366 201.456H126.527L136.148 169.423H138.909L154.822 201.456H177.961L162.535 169.423H197.528L187.826 201.456H208.733L218.313 169.504H222.941V169.423H229.517H230.045H269.544L260.289 201.375H281.398L290.37 169.423H299.869L300.112 201.375H317.812L338.15 169.423H351.465L344.564 201.375H365.349L372.128 169.423H384.144L384.063 171.243L384.106 173.103L384.187 174.883L384.35 176.662L384.471 177.512L384.593 178.361L384.755 179.211L384.918 180.06L385.12 180.909L385.323 181.718L385.567 182.527L385.81 183.336L386.094 184.145L386.379 184.913L386.703 185.682L387.028 186.41L387.394 187.178L387.759 187.906L388.165 188.594L388.572 189.322L389.018 190.01L389.505 190.657L389.993 191.344L390.52 191.951L391.048 192.598L391.576 193.205L392.185 193.812L392.794 194.378L393.565 195.025L394.336 195.672L395.148 196.279L396.001 196.845L396.853 197.411L397.706 197.937L398.599 198.382L399.532 198.867L400.426 199.272L401.359 199.676L402.293 200.04L403.267 200.404L404.241 200.728L405.216 201.011L406.19 201.294L407.164 201.537L409.113 201.982L411.102 202.305L413.051 202.588L414.999 202.831L416.907 202.993L418.775 203.074L420.601 203.155H422.347L424.701 203.117L427.056 203.078L429.451 202.957L431.846 202.835L434.241 202.633L436.636 202.431L439.032 202.188L441.427 201.905L443.862 201.581L446.298 201.217L448.734 200.812L451.17 200.408L453.605 199.963L456.041 199.478L458.477 198.993L460.953 198.426L468.179 169.427H491.887V49.3016L406.513 49.2979ZM137.082 166.43L137.204 165.985L137.488 166.43H137.082ZM211.452 123.395L210.235 127.48L198.868 165.095L198.421 166.43H161.074L158.191 160.282L198.421 119.31H172.562L141.101 153.083L151.29 119.31H132.21V52.3313H211.452L211.452 123.395ZM233.496 155.186L232.887 155.224L232.318 155.262L231.709 155.301H231.06H230.207H229.477L228.787 155.339H228.137L223.063 155.301L225.417 146.645L226.513 142.358L229.193 132.287H230.045H230.938L231.791 132.249H232.603H236.54L238.935 132.287L241.128 132.368L242.102 132.407L243.036 132.488L243.929 132.609L244.741 132.73L245.471 132.852L246.161 133.054L246.811 133.257L247.379 133.499L247.866 133.742L248.313 134.066L248.719 134.39L249.044 134.794L249.246 135.118L249.409 135.442L249.571 135.806L249.693 136.21L249.774 136.655L249.817 137.1V137.585V138.111L249.774 138.677L249.736 139.243L249.614 139.89L249.492 140.538L249.127 141.913L248.68 143.45L248.233 144.744L247.746 145.998L247.219 147.171L246.65 148.263L246.366 148.748L246.081 149.233L245.756 149.719L245.391 150.163L245.025 150.608L244.66 151.013L244.254 151.417L243.847 151.781L243.401 152.105L242.954 152.469L242.467 152.752L241.939 153.076L241.411 153.359L240.843 153.602L240.275 153.844L239.666 154.047L239.016 154.29L238.326 154.451L237.596 154.613L236.865 154.775L236.053 154.896L235.241 155.017L234.389 155.098L233.495 155.179L233.496 155.186ZM291.222 166.43L299.544 136.904L299.869 166.43H291.222ZM303.888 119.189H284.077L270.437 166.43H249.409L250.383 166.025L251.358 165.621L252.291 165.217L253.225 164.772L254.118 164.327L254.971 163.801L255.823 163.316L256.635 162.79L257.447 162.224L258.218 161.658L258.949 161.091L259.68 160.444L260.37 159.838L261.019 159.15L261.669 158.503L262.278 157.775L262.887 157.087L263.455 156.319L263.983 155.591L264.51 154.782L264.998 153.973L265.444 153.164L265.891 152.315L266.297 151.425L266.703 150.535L267.069 149.645L267.393 148.715L267.718 147.744L267.962 146.774L268.246 145.803L268.449 144.751L268.652 143.74L268.936 142.122L269.179 140.585L269.342 139.129L269.463 137.754L269.506 136.379L269.463 135.125L269.425 133.871L269.263 132.698L269.101 131.606L268.816 130.514L268.532 129.503L268.126 128.532L267.679 127.602L267.192 126.672L266.624 125.822L265.974 125.014L265.446 124.447L264.919 123.881L264.35 123.396L263.741 122.951L263.092 122.506L262.442 122.102L261.752 121.738L261.062 121.414L260.331 121.09L259.601 120.847L258.829 120.605L258.058 120.362L257.246 120.159L256.434 119.998L255.622 119.836L254.77 119.715L253.024 119.472L251.279 119.351L249.492 119.229L247.666 119.191H244.012H240.399H239.262H237.233H234.716H231.915H229.195H226.881H225.257H224.648V52.3335H303.89L303.888 119.189ZM352.034 166.43H340.139L358.164 138.117L352.034 166.43ZM396.323 120.523L396.28 136.904L395.265 138.32L394.332 139.776L393.398 141.232L392.546 142.688L391.734 144.144L390.922 145.64L390.232 147.097L389.541 148.553L388.892 149.968L388.324 151.424L387.755 152.84L387.268 154.215L386.821 155.59L386.415 156.925L386.05 158.219L385.725 159.513L385.522 160.363L385.319 161.253L385.116 162.102L384.954 162.992L384.792 163.841L384.67 164.691L384.549 165.54L384.467 166.43H372.817L382.762 119.31L349.231 119.272L319.231 166.432H317.039V52.3334H396.321L396.323 120.523ZM442.034 185.723L440.369 186.006L438.664 186.248L436.959 186.491L435.295 186.694L433.63 186.855L431.966 186.977L430.342 187.058H428.718H427.663L426.607 187.019L425.592 186.938L424.578 186.817L423.603 186.655L422.67 186.493L421.736 186.291L420.843 186.048L419.99 185.765L419.138 185.482L418.326 185.118L417.555 184.754L416.783 184.309L416.053 183.865L415.362 183.379L414.713 182.894L414.063 182.328L413.495 181.721L412.927 181.114L412.399 180.427L411.912 179.739L411.465 178.971L411.059 178.202L410.653 177.393L410.328 176.544L410.044 175.614L409.8 174.683L409.557 173.713L409.395 172.701L409.273 171.65L409.192 170.558L409.149 169.425H446.09L442.034 185.723ZM488.88 166.43H468.908L472.196 153.244H432.169L428.881 166.43H409.517V163.72L409.76 162.587L409.963 161.455L410.206 160.241L410.45 159.028L410.815 157.693L411.181 156.359L411.587 155.024L412.033 153.73L412.521 152.435L413.048 151.141L413.617 149.887L414.185 148.633L414.835 147.38L415.484 146.207L416.174 144.993L416.946 143.861L417.717 142.728L418.488 141.636L419.341 140.585L420.234 139.574L421.167 138.603L422.101 137.713L423.116 136.823L424.131 135.974L425.186 135.205L426.323 134.477L427.46 133.83L428.637 133.224L429.855 132.657L431.113 132.172L432.412 131.768L433.752 131.444L435.132 131.161L436.553 130.958L438.014 130.837L439.516 130.798L440.694 130.837L441.871 130.918L443.048 131.08L444.185 131.322L444.753 131.484L445.281 131.646L445.809 131.807L446.296 132.05L446.783 132.253L447.27 132.536L447.717 132.819L448.164 133.102L448.57 133.466L448.976 133.83L449.341 134.194L449.707 134.639L450.032 135.043L450.316 135.528L450.56 136.054L450.803 136.58L451.006 137.146L451.168 137.753L451.29 138.36L451.411 139.047L451.454 139.735V140.463V141.231L451.373 142.04H475.243L475.609 140.382L475.934 138.481L476.096 137.47L476.177 136.378L476.258 135.286V134.153L476.22 132.98L476.098 131.767L475.977 131.201L475.896 130.594L475.733 129.987L475.571 129.381L475.368 128.733L475.165 128.127L474.922 127.52L474.638 126.913L474.353 126.307L473.988 125.7L473.622 125.093L473.216 124.487L472.729 123.84L472.201 123.233L471.673 122.626L471.105 122.06L470.496 121.494L469.847 120.968L469.197 120.482L468.507 119.997L467.776 119.512L467.046 119.107L466.274 118.703L465.462 118.299L464.65 117.934L463.798 117.57L462.905 117.247L462.012 116.923L461.119 116.64L460.144 116.397L459.211 116.154L458.196 115.911L457.181 115.709L456.166 115.507L455.111 115.345L454.015 115.224L451.782 114.981L449.508 114.778L447.113 114.697L444.678 114.659L442.851 114.697L440.943 114.736L438.954 114.857L436.883 115.019L434.732 115.261L432.54 115.544L430.307 115.909L428.034 116.394L426.897 116.637L425.72 116.92L424.583 117.244L423.406 117.567L422.228 117.931L421.051 118.336L419.874 118.74L418.737 119.185L417.56 119.67L416.383 120.196L415.246 120.722L414.069 121.288L412.932 121.895L411.795 122.542L410.659 123.189L409.522 123.917V52.3275H488.886V166.426L488.88 166.43Z" fill="#003087"/>
</svg>
