<svg width="600" height="250" viewBox="0 0 600 250" fill="none" xmlns="http://www.w3.org/2000/svg">
<g clip-path="url(#clip0_382_636)">
<g clip-path="url(#clip1_382_636)">
<path d="M328.49 161.872C328.63 160.42 329.019 158.841 329.582 157.101C331.597 151.501 335.644 143.242 337.901 133.793C337.913 133.742 337.926 133.691 337.935 133.64C338.057 133.128 338.172 132.616 338.282 132.095C339.958 124.467 340.373 116.072 337.414 107.686C323.017 66.8474 272.797 82.9721 267.124 84.9533C253.772 89.5887 245.661 90.1221 245.581 90.1221H245.412L248.612 100.862L264.809 95.2233C267.992 94.1395 271.578 91.8917 275.35 89.5168C282.737 84.8813 291.119 79.6236 298.904 81.6471C316.37 86.1471 325.794 98.1062 327.741 118.164C328.389 124.971 324.71 133.835 321.158 142.399C318.677 148.385 316.104 154.583 315.117 159.9C313.326 169.666 316.214 178.81 316.243 178.89L316.281 178.996L329.083 175.343V175.237C329.083 175.169 327.682 169.945 328.494 161.872" fill="#E20613"/>
<path d="M351.401 151.75C355.401 140.49 361.472 123.493 355.046 105.311C351.244 94.5625 344.255 87.1796 334.205 83.3908C327.241 80.7534 319.588 80.1227 312.2 80.6434C307.679 80.1989 303.476 81.1048 299.594 82.6838C292.401 84.4449 286.145 86.9849 281.979 89.4063C268.424 97.3141 250.42 105.73 250.255 105.806L250.145 105.844L252.13 115.788L252.278 115.704C252.481 115.594 271.248 104.388 281.725 95.2356L282.335 94.7106C286.805 90.8075 292.719 85.736 299.691 82.9209C303.645 81.9472 307.84 81.2233 312.175 80.8974C312.971 80.9905 313.78 81.109 314.584 81.2784C338.091 86.0027 346.558 105.692 346.528 117.791C346.507 131.121 343.256 139.694 340.377 147.254C338.718 151.602 337.139 155.725 336.28 160.356C335.721 163.472 335.518 165.944 335.518 167.909C335.505 172.155 336.402 173.924 336.466 174.038L336.521 174.115L349.343 170.44L349.272 170.305C349.246 170.267 347.299 166.486 349.115 158.837C349.576 156.983 350.415 154.536 351.409 151.754" fill="#E20613"/>
<path d="M289.049 137.07L272.958 137.032C273.343 136.574 273.855 135.965 274.444 135.22L287.529 135.249C287.961 135.922 288.486 136.524 289.049 137.07Z" fill="#009540"/>
<path d="M302.311 137.095L318.478 137.129C318.559 136.532 318.665 135.927 318.69 135.313L303.852 135.283C303.421 135.961 302.891 136.557 302.311 137.095Z" fill="#009540"/>
<path d="M294.984 145.629C294.666 146.218 294.268 146.848 293.769 147.454L281.098 147.428C280.404 146.857 279.723 146.239 279.066 145.6L294.984 145.633V145.629Z" fill="#009540"/>
<path d="M315.752 145.671C315.422 146.302 315.083 146.912 314.685 147.496L300.423 147.462C300.974 146.802 301.448 146.188 301.85 145.642L315.752 145.667V145.671Z" fill="#009540"/>
<path d="M292.05 149.092C291.013 149.838 289.743 150.405 288.172 150.578C286.691 150.748 285.095 150.125 283.418 149.071L292.054 149.092H292.05Z" fill="#009540"/>
<path d="M313.585 149.134C313.14 149.769 312.645 150.37 312.129 150.954L297.215 150.929C297.858 150.319 298.451 149.701 298.997 149.104L313.585 149.138V149.134Z" fill="#009540"/>
<path d="M318.212 138.763C318.089 139.381 317.924 139.982 317.759 140.588L274.444 140.503C273.864 139.796 273.381 139.161 273.004 138.67L291.377 138.708C292.693 139.377 294.137 139.775 295.665 139.779C297.223 139.779 298.671 139.385 299.962 138.725L318.207 138.767L318.212 138.763Z" fill="#009540"/>
<path d="M317.213 142.217C317.009 142.835 316.789 143.449 316.51 144.042L302.985 144.016C303.302 143.538 303.463 143.254 303.476 143.237L303.831 142.59L296.131 142.577L296.076 142.911C296.076 142.911 295.966 143.352 295.729 143.999L277.445 143.957C276.865 143.339 276.315 142.725 275.802 142.137L317.208 142.217H317.213Z" fill="#009540"/>
<path d="M310.596 152.568C309.931 153.22 309.229 153.834 308.501 154.41L293.024 154.376C293.866 153.787 294.59 153.224 295.343 152.534H295.42L310.596 152.564V152.568Z" fill="#009540"/>
<path d="M292.672 159.857C294.192 159.861 295.695 159.718 297.151 159.472L288.215 159.455C289.662 159.705 291.136 159.853 292.668 159.857" fill="#009540"/>
<path d="M306.155 156.022C305.05 156.708 303.907 157.334 302.692 157.851L286.208 157.813C287.694 157.334 289.099 156.708 290.416 155.988L306.16 156.018L306.155 156.022Z" fill="#009540"/>
<path d="M297.401 111.069C296.495 111.81 295.606 112.432 294.916 112.881L286.72 112.868C287.042 112.284 287.402 111.674 287.787 111.052L297.397 111.069H297.401Z" fill="#009540"/>
<path d="M309.745 112.914L305.127 112.902C305.66 112.356 306.172 111.746 306.646 111.09H307.442C308.259 111.649 309.009 112.262 309.745 112.914Z" fill="#009540"/>
<path d="M296.122 116.347L285.184 116.326C285.209 116.241 285.243 116.144 285.268 116.059C285.421 115.594 285.632 115.064 285.899 114.484L293.574 114.501C293.879 114.899 294.73 115.847 296.118 116.347" fill="#009540"/>
<path d="M313.026 116.381L299.911 116.351C301.003 116.021 302.146 115.407 303.323 114.522L311.455 114.539C311.997 115.132 312.543 115.746 313.03 116.381" fill="#009540"/>
<path d="M304.708 133.649L318.792 133.679L318.809 133.205C318.809 132.739 318.762 132.299 318.745 131.846L305.271 131.82C305.131 132.451 304.928 133.052 304.708 133.649Z" fill="#009540"/>
<path d="M286.691 133.61L275.709 133.589C276.133 133.026 276.581 132.417 277.043 131.765L286.123 131.782C286.254 132.412 286.441 133.026 286.691 133.61Z" fill="#009540"/>
<path d="M315.325 119.844L296.584 119.806L295.708 119.713L294.869 119.806L283.875 119.781C284.129 119.179 284.375 118.57 284.612 117.956L314.22 118.015C314.618 118.608 314.978 119.218 315.325 119.844Z" fill="#009540"/>
<path d="M300.635 107.669C300.233 108.291 299.729 108.884 299.183 109.443L288.858 109.422C289.277 108.808 289.726 108.19 290.183 107.593L300.474 107.614C300.529 107.631 300.584 107.648 300.639 107.669" fill="#009540"/>
<path d="M285.924 129.737L285.962 130.157L278.161 130.14C278.558 129.555 278.956 128.946 279.354 128.307L286.06 128.319C285.996 128.789 285.924 129.246 285.924 129.737Z" fill="#009540"/>
<path d="M305.482 129.78L305.444 130.195L318.644 130.224C318.559 129.61 318.483 129.009 318.364 128.387L305.351 128.357C305.414 128.827 305.491 129.289 305.478 129.776" fill="#009540"/>
<path d="M287.203 124.874C286.881 125.475 286.631 126.063 286.428 126.702L280.345 126.694C280.7 126.101 281.048 125.492 281.39 124.865L287.203 124.874Z" fill="#009540"/>
<path d="M304.987 126.741L318.025 126.766C317.877 126.144 317.721 125.534 317.539 124.933L304.229 124.903C304.534 125.509 304.801 126.093 304.987 126.741Z" fill="#009540"/>
<path d="M303.12 123.273L316.963 123.302C316.726 122.68 316.438 122.062 316.163 121.482L301.194 121.448C301.922 121.948 302.557 122.6 303.12 123.273Z" fill="#009540"/>
<path d="M290.247 121.428C289.514 121.927 288.879 122.575 288.303 123.248L282.254 123.235C282.559 122.643 282.859 122.029 283.147 121.415L290.247 121.432V121.428Z" fill="#009540"/>
<path d="M308.268 104.862C308.022 107.22 306.934 109.371 305.588 111.081C305.059 111.762 304.487 112.372 303.916 112.901C303.577 113.214 303.243 113.502 302.908 113.752C302.544 114.036 302.176 114.29 301.825 114.514H301.82C300.148 115.572 298.586 115.979 297.155 115.733C296.012 115.526 295.208 114.954 294.721 114.501C294.607 114.396 294.514 114.298 294.433 114.213C294.874 113.947 295.602 113.481 296.444 112.884C297.151 112.372 297.943 111.762 298.709 111.068C299.276 110.569 299.835 110.023 300.335 109.438C300.754 108.964 301.135 108.465 301.465 107.948C302.015 107.072 302.4 106.145 302.515 105.201L302.54 104.65C302.553 103.279 301.952 101.996 300.724 100.891C299.886 100.095 298.819 99.8795 297.553 100.214C294.861 100.921 291.69 104.109 289.121 107.584C288.668 108.189 288.236 108.803 287.834 109.413C287.47 109.959 287.122 110.501 286.805 111.038C286.424 111.665 286.081 112.275 285.768 112.859C285.467 113.43 285.205 113.968 284.985 114.476C284.786 114.942 284.608 115.382 284.485 115.776C284.426 115.953 284.371 116.131 284.303 116.309C284.117 116.859 283.922 117.401 283.715 117.943C283.478 118.557 283.224 119.166 282.957 119.768C282.72 120.322 282.474 120.868 282.212 121.402C281.924 122.015 281.619 122.629 281.306 123.222C281.018 123.772 280.722 124.314 280.425 124.843C280.078 125.47 279.723 126.079 279.363 126.672C279.024 127.227 278.694 127.769 278.355 128.289C277.949 128.924 277.538 129.538 277.14 130.126C276.755 130.694 276.374 131.236 276.006 131.744C275.532 132.404 275.074 133.009 274.651 133.572C274.181 134.182 273.754 134.728 273.364 135.206C272.687 136.032 272.162 136.65 271.84 137.014C271.616 137.264 271.493 137.399 271.48 137.412L271.231 137.666L271.434 137.967C271.48 138.034 271.65 138.276 271.925 138.648C272.251 139.088 272.725 139.728 273.326 140.477C273.72 140.976 274.164 141.527 274.664 142.111C275.151 142.695 275.688 143.309 276.26 143.935C276.755 144.482 277.28 145.028 277.822 145.574C278.448 146.2 279.096 146.814 279.761 147.398H279.769C280.446 148.004 281.128 148.55 281.831 149.049C282.898 149.824 283.99 150.459 285.048 150.878H285.112C286.229 151.327 287.254 151.53 288.278 151.411C289.074 151.318 289.747 151.141 290.412 150.887H290.462C291.622 150.451 292.588 149.807 293.379 149.066C293.942 148.554 294.421 147.991 294.823 147.428C295.271 146.806 295.627 146.179 295.911 145.608C296.228 144.977 296.453 144.41 296.601 143.974C296.681 143.745 296.749 143.55 296.791 143.402L302.341 143.411C302.235 143.576 302.113 143.766 301.964 143.982C301.664 144.435 301.27 144.985 300.796 145.612C300.373 146.175 299.882 146.789 299.327 147.436C298.874 147.966 298.379 148.516 297.845 149.075C297.274 149.676 296.652 150.29 295.983 150.895C295.39 151.441 294.759 151.979 294.082 152.508C293.265 153.151 292.473 153.765 291.559 154.349H291.483C290.547 154.929 289.561 155.475 288.519 155.958C288.519 155.958 288.518 155.958 288.515 155.958H288.511C286.691 156.8 284.722 157.444 282.61 157.761C282.5 157.778 282.394 157.795 282.279 157.812C273.978 158.926 264.36 146.416 264.258 146.281L264.017 145.963L263.695 146.183C263.632 146.23 257.388 150.624 253.929 152.152C251.258 153.355 247.528 153.761 245.556 152.495C245.022 152.169 244.768 151.776 244.662 151.306C244.226 149.536 245.022 147.559 246.25 146.027C250.483 140.761 261.875 139.749 262.01 139.749L262.26 139.719L262.341 139.452C262.383 139.355 264.466 133.589 267.768 126.638C268.056 126.033 268.352 125.423 268.657 124.801C268.923 124.259 269.199 123.721 269.474 123.175C269.779 122.57 270.096 121.969 270.422 121.355C270.71 120.809 271.006 120.267 271.303 119.721C271.641 119.111 271.984 118.502 272.34 117.896C272.657 117.35 272.979 116.808 273.305 116.267C273.686 115.644 274.067 115.03 274.461 114.429C275.714 112.491 277.026 110.662 278.385 109.04C285.2 100.942 294.027 95.5192 300.39 95.5107C302.836 95.515 304.737 96.3066 306.033 97.8475C307.798 99.9345 308.547 102.292 308.276 104.832" fill="#E20613"/>
<path d="M288.727 127.756C289.557 124.318 292.579 121.77 296.186 121.778C297.477 121.783 298.688 122.109 299.746 122.693C300.351 123.006 299.877 123.95 299.285 123.62C298.345 123.116 297.312 122.828 296.186 122.824C293.079 122.82 290.441 125.034 289.73 128.018C289.557 128.687 288.549 128.437 288.727 127.756ZM288.498 130.414L288.57 129.297C288.659 128.59 289.675 128.742 289.586 129.441L289.523 130.414C289.523 131.109 288.49 131.109 288.498 130.414Z" fill="#E20613"/>
<path d="M303.141 132.155C302.028 135.139 299.187 137.269 295.911 137.256C295.191 137.256 294.51 137.184 293.853 136.989C293.201 136.795 293.485 135.787 294.137 135.965C294.7 136.13 295.284 136.206 295.911 136.206C298.751 136.215 301.215 134.369 302.163 131.77C302.405 131.122 303.378 131.494 303.141 132.151M303.62 129.412C303.62 129.915 303.565 130.428 303.463 130.923C303.332 131.609 302.307 131.406 302.447 130.711C302.51 130.288 302.574 129.843 302.574 129.407C302.574 128.696 303.615 128.696 303.615 129.407" fill="#E20613"/>
<path d="M476.575 115.822C476.601 115.78 505.789 71 505.789 71L503.444 71.5715L490.499 74.6914L468.574 109.383C467.021 111.276 465.903 111.246 462.91 111.17L440.215 111.14C440.215 111.14 437.032 111.14 435.004 111.132C436.414 108.668 438.052 105.675 439.238 102.974C439.593 101.92 440.245 99.6679 440.245 97.3946C440.245 95.1214 439.644 93.0301 437.599 91.8744C436.194 91.087 434.382 90.9219 432.21 91.3791C420.518 93.8217 406.912 100.345 403.775 111.326C402.332 116.457 402.937 120.06 405.574 122.037C407.598 123.552 410.062 123.552 410.874 123.552C411.416 123.552 412.089 123.459 412.784 123.353C410.709 125.669 408.605 127.798 406.489 129.513C403.61 132.133 399.288 134.817 394.885 136.73C394.2 136.769 390.343 134.825 385.741 130.863C385.72 130.85 385.073 130.317 385.073 130.317L378.871 131.104L375.861 131.502L377.774 133.433C380.797 136.515 397.916 144.774 404.11 143.364C410.68 141.87 422.647 129.017 422.762 128.89C424.501 126.939 426.961 123.616 430.056 119.065H470.433C474.353 119.065 475.39 117.562 476.588 115.822M427.312 99.4182C427.312 100.388 426.821 101.962 426.009 103.355C425.64 104.003 425.403 104.595 425.403 104.595L423.168 108.918L421.369 112.105C420.649 113.553 419.21 115.572 417.69 115.306C417.563 115.285 417.258 115.128 416.949 114.772C415.95 113.608 415.379 111.14 417.08 108.037C419.976 102.767 423.684 98.8043 425.2 98.5461C426.593 98.309 426.995 98.5461 427.033 98.58C427.223 98.707 427.312 99.0075 427.312 99.4182Z" fill="#009540"/>
<path d="M568.277 115.822C568.302 115.78 597.487 71 597.487 71L595.142 71.5715L582.196 74.6914L560.276 109.383C558.722 111.276 557.601 111.246 554.608 111.17L531.913 111.14C531.913 111.14 528.725 111.14 526.706 111.132C528.116 108.668 529.754 105.675 530.935 102.974C531.291 101.92 531.943 99.6679 531.943 97.3946C531.943 95.1214 531.342 93.0301 529.297 91.8744C527.896 91.087 526.079 90.9219 523.908 91.3791C512.215 93.8217 498.61 100.345 495.473 111.326C494.029 116.457 494.635 120.06 497.272 122.037C499.3 123.552 501.759 123.552 502.572 123.552C503.114 123.552 503.787 123.459 504.481 123.353C502.403 125.669 500.303 127.798 498.182 129.513C495.303 132.133 490.985 134.817 486.579 136.73C485.893 136.769 482.036 134.825 477.435 130.863C477.413 130.85 476.766 130.317 476.766 130.317L470.564 131.104L467.554 131.502L469.468 133.433C472.486 136.515 489.61 144.774 495.799 143.364C502.369 141.87 514.341 129.017 514.451 128.89C516.19 126.939 518.65 123.616 521.745 119.065H562.122C566.042 119.065 567.079 117.562 568.277 115.822ZM519.01 99.4182C519.01 100.388 518.519 101.962 517.71 103.355C517.342 104.003 517.105 104.595 517.105 104.595L514.87 108.918L513.066 112.105C512.351 113.553 510.912 115.572 509.388 115.306C509.265 115.285 508.956 115.128 508.651 114.772C507.648 113.608 507.076 111.14 508.778 108.037C511.674 102.767 515.382 98.8043 516.902 98.5461C518.294 98.309 518.692 98.5461 518.735 98.58C518.925 98.707 519.014 99.0075 519.014 99.4182" fill="#009540"/>
<path d="M596.39 80.5674C597.068 80.5674 597.728 80.7409 598.372 81.0881C599.015 81.4352 599.515 81.9305 599.874 82.5782C600.234 83.2217 600.416 83.8948 600.416 84.5975C600.416 85.3002 600.239 85.9606 599.883 86.5998C599.527 87.2391 599.032 87.7386 598.393 88.09C597.754 88.4456 597.089 88.6234 596.39 88.6234C595.692 88.6234 595.023 88.4456 594.384 88.09C593.745 87.7344 593.245 87.2391 592.894 86.5998C592.538 85.9564 592.36 85.2917 592.36 84.5975C592.36 83.9032 592.542 83.2217 592.902 82.5782C593.262 81.9305 593.766 81.4352 594.409 81.0881C595.053 80.7409 595.713 80.5674 596.39 80.5674ZM596.39 81.2362C595.823 81.2362 595.273 81.3844 594.739 81.6723C594.202 81.9601 593.783 82.375 593.482 82.9169C593.182 83.4587 593.029 84.0175 593.029 84.6017C593.029 85.1859 593.177 85.7405 593.474 86.2696C593.77 86.803 594.185 87.2179 594.723 87.5142C595.256 87.8106 595.815 87.9587 596.395 87.9587C596.975 87.9587 597.533 87.8106 598.067 87.5142C598.6 87.2179 599.015 86.803 599.311 86.2696C599.608 85.7362 599.752 85.1817 599.752 84.6017C599.752 84.0218 599.599 83.4587 599.303 82.9169C599.002 82.3792 598.583 81.9644 598.046 81.6723C597.508 81.3844 596.958 81.2362 596.395 81.2362M594.625 86.8242V82.4893H596.115C596.623 82.4893 596.992 82.5274 597.22 82.6121C597.449 82.6925 597.627 82.8322 597.766 83.0312C597.902 83.2301 597.969 83.4418 597.969 83.6662C597.969 83.9837 597.855 84.2588 597.631 84.4917C597.406 84.7245 597.106 84.86 596.733 84.8896C596.886 84.9531 597.008 85.0293 597.102 85.1182C597.275 85.2875 597.491 85.5754 597.741 85.9775L598.27 86.8284H597.415L597.03 86.1469C596.729 85.6092 596.484 85.2748 596.297 85.1393C596.17 85.042 595.98 84.9912 595.734 84.9912H595.324V86.8327H594.625V86.8242ZM595.324 84.3858H596.175C596.581 84.3858 596.856 84.3266 597.004 84.2038C597.152 84.081 597.224 83.9244 597.224 83.7254C597.224 83.5984 597.191 83.4841 597.119 83.3825C597.047 83.2809 596.949 83.2047 596.822 83.1539C596.695 83.1074 596.462 83.082 596.12 83.082H595.324V84.3901V84.3858Z" fill="#1D1D1B"/>
<path d="M88.8091 139.249C92.7587 140.663 101.89 134.233 103.676 132.933L103.943 132.743L104.951 128.645L103.278 129.331C101.738 129.957 99.6548 130.304 99.223 129.83C99.0367 129.64 98.969 128.819 99.9596 126.998L116.237 98.6902L116.736 97.9409C117.21 97.2974 117.697 96.654 117.253 95.9555C116.817 95.2654 115.898 95.3416 114.988 95.4898L107.626 96.4762L107.397 96.8487C107.262 97.0519 94.3081 117.706 86.4511 123.832C83.6952 125.957 82.62 126.342 82.2517 126.406C82.2517 125.639 83.1195 123.485 84.8044 121.089L94.2785 105.95L95.4681 103.956C95.8575 103.338 97.5466 99.9051 97.5466 97.2805C97.5466 96.3365 97.3307 95.494 96.7507 94.9352C95.0278 93.2969 91.7935 95.1681 90.7183 95.7904C90.7183 95.8031 81.1129 101.505 81.1129 101.505L81.2272 105.65L82.3872 105.485C82.3872 105.485 83.7968 105.29 83.9492 105.273C83.9196 105.912 82.8824 107.648 82.4549 108.329L81.9427 109.172L81.7268 109.574C75.8848 119.692 69.2639 132.209 69.2639 137.01C69.2639 137.408 69.3316 137.776 69.4248 138.051C69.484 138.212 69.7761 138.919 70.5085 139.233C74.9577 140.994 84.0339 133.048 88.9996 128.209C88.0386 130.741 87.0607 133.784 87.0607 136.041C87.0607 136.731 87.1539 137.336 87.3613 137.857C87.4756 138.136 87.9455 138.936 88.8091 139.249Z" fill="#009540"/>
<path d="M194.561 139.211C198.511 140.638 207.638 134.199 209.412 132.908L209.674 132.717L210.707 128.641L209.018 129.309C207.468 129.919 205.403 130.27 204.967 129.805C204.772 129.606 204.717 128.797 205.707 126.968L221.959 98.6603L222.492 97.9153C222.958 97.2761 223.453 96.6199 223.005 95.9172C222.573 95.2483 221.637 95.3076 220.731 95.4557L213.378 96.4421L213.133 96.8231C213.006 97.0221 200.052 117.672 192.19 123.798C189.439 125.931 188.359 126.304 187.995 126.376C187.999 125.614 188.876 123.455 190.556 121.046L200.031 105.912L201.224 103.935C201.614 103.304 203.294 99.8711 203.294 97.2549C203.294 96.3066 203.074 95.46 202.49 94.8969C200.784 93.2629 197.546 95.1467 196.479 95.7605C196.453 95.769 186.869 101.467 186.869 101.467L186.979 105.616L188.16 105.455C188.16 105.455 189.553 105.252 189.697 105.235C189.697 105.891 188.618 107.626 188.203 108.304L187.707 109.142L187.475 109.557C181.645 119.653 175.024 132.192 175.024 136.989C175.024 137.382 175.075 137.742 175.185 138.039C175.24 138.187 175.541 138.894 176.273 139.215C180.735 140.981 189.794 133.022 194.764 128.188C193.795 130.723 192.834 133.759 192.834 136.023C192.834 136.705 192.919 137.332 193.13 137.827C193.245 138.127 193.71 138.919 194.578 139.22" fill="#009540"/>
<path d="M164.606 94.7445C164.606 94.7445 179.482 86.7944 172.302 80.4021C167.481 76.0926 156.419 90.507 154.281 96.8188C149.87 109.951 139.143 121.131 139.143 121.131C139.143 121.131 150.526 136.739 158.231 135.867C165.944 135.016 167.794 126.935 167.794 126.935H175.494C175.494 126.935 166.515 141.975 151.411 143.965C141.399 145.269 130.054 130.977 130.054 130.977C130.054 130.977 122.756 136.282 118.658 138.047C115.75 139.287 111.724 139.601 109.222 138.479C108.223 138.026 107.478 137.251 107.3 136.337C107.16 135.562 107.169 134.66 107.368 133.843C109.92 123.836 127.751 122.951 127.751 122.951C127.751 122.951 135.892 100.951 146.378 88.8814C157.774 75.7835 173.234 69.6241 179.135 76.3508C185.045 83.0775 180.562 91.0107 175.49 94.7403C168.251 100.108 164.602 94.7403 164.602 94.7403" fill="#009540"/>
<path d="M59.0024 94.6731C59.0024 94.6731 73.9078 86.7103 66.707 80.3264C61.8726 76.0169 50.794 90.4398 48.6647 96.7474C44.2578 109.892 33.501 121.089 33.501 121.089C33.501 121.089 44.914 136.71 52.6313 135.85C60.3443 134.995 62.1858 126.901 62.1858 126.901H69.9074C69.9074 126.901 60.9201 141.951 45.7945 143.944C35.7785 145.257 24.4036 130.94 24.4036 130.94C24.4036 130.94 17.1096 136.257 12.9949 138.026C10.095 139.279 6.06494 139.58 3.55036 138.45C2.57247 137.997 1.81047 137.222 1.64114 136.32C1.50567 135.537 1.50567 134.623 1.71734 133.814C4.25732 123.786 22.1007 122.901 22.1007 122.901C22.1007 122.901 30.2625 100.888 40.7653 88.8227C52.1614 75.7206 67.6383 69.5527 73.5438 76.2752C79.4704 83.0061 74.9619 90.9436 69.9031 94.6731C62.6557 100.037 59.0024 94.6731 59.0024 94.6731Z" fill="#009540"/>
<path d="M11.8391 158.858V158.905L10.04 169.865C9.98492 170.199 9.87062 170.424 9.69282 170.529C9.51502 170.635 9.29489 170.69 9.03666 170.69H8.33816C8.10957 170.69 7.91483 170.618 7.75397 170.47C7.5931 170.322 7.4788 170.127 7.4153 169.877L5.82782 163.879C5.80665 163.803 5.78972 163.76 5.78125 163.748C5.76855 163.739 5.75585 163.731 5.73045 163.731H5.69658C5.67542 163.731 5.65848 163.735 5.65002 163.748C5.63732 163.76 5.62462 163.803 5.60345 163.879L3.99903 169.877C3.93553 170.127 3.82123 170.322 3.66037 170.47C3.4995 170.614 3.30477 170.69 3.07617 170.69H2.39461C2.13638 170.69 1.91625 170.635 1.73845 170.529C1.56065 170.424 1.44212 170.199 1.39132 169.865L-0.407837 158.905V158.858C-0.407837 158.676 -0.314704 158.583 -0.132672 158.583H0.807121C0.95952 158.583 1.04842 158.676 1.08229 158.858L2.65707 169.2C2.67824 169.289 2.69094 169.348 2.69094 169.386C2.69094 169.424 2.70787 169.441 2.73751 169.441C2.77984 169.441 2.81794 169.361 2.85181 169.196L4.43929 163.185C4.54513 162.753 4.80336 162.533 5.20129 162.533H6.23845C6.63638 162.533 6.89038 162.749 7.00044 163.185L8.58793 169.196C8.6218 169.357 8.65566 169.441 8.70223 169.441C8.7361 169.441 8.74879 169.424 8.74879 169.386C8.74879 169.348 8.76149 169.285 8.78266 169.2L10.3574 158.858C10.3913 158.672 10.4802 158.583 10.6326 158.583H11.5724C11.7544 158.583 11.8476 158.676 11.8476 158.858H11.8391Z" fill="#1D1D1B"/>
<path d="M20.3185 170.304C20.3185 170.389 20.2846 170.465 20.2211 170.533C20.1576 170.601 20.0814 170.63 19.9925 170.63H19.2136C19.1247 170.63 19.0528 170.597 18.985 170.533C18.9173 170.47 18.8877 170.393 18.8877 170.304V164.97C18.8877 164.162 18.731 163.603 18.4178 163.303C18.1045 163.002 17.6812 162.85 17.152 162.85C17.0208 162.85 16.8684 162.858 16.6906 162.875C16.5128 162.892 16.318 162.917 16.1148 162.955C15.9116 162.994 15.7042 163.04 15.501 163.095C15.2936 163.15 15.1031 163.218 14.9168 163.307V170.309C14.9168 170.393 14.883 170.47 14.8195 170.537C14.756 170.605 14.6798 170.635 14.5909 170.635H13.795C13.7061 170.635 13.6341 170.601 13.5749 170.537C13.5156 170.474 13.486 170.398 13.486 170.309V158.764C13.486 158.68 13.5156 158.604 13.5749 158.536C13.6341 158.472 13.7061 158.438 13.795 158.438H14.6036C14.6882 158.438 14.7644 158.472 14.8237 158.536C14.883 158.599 14.9126 158.676 14.9126 158.764V162.105C15.302 161.931 15.7254 161.804 16.1868 161.724C16.644 161.643 17.0462 161.601 17.3933 161.601C17.8251 161.601 18.2188 161.664 18.5786 161.795C18.9342 161.927 19.2433 162.126 19.5015 162.397C19.7597 162.668 19.9629 163.015 20.1026 163.442C20.2423 163.87 20.3143 164.382 20.3143 164.975V170.309L20.3185 170.304Z" fill="#1D1D1B"/>
<path d="M29.3777 166.266C29.3777 166.503 29.2761 166.622 29.073 166.622H23.6586V166.85C23.6586 167.824 23.8491 168.505 24.2258 168.899C24.6026 169.293 25.1656 169.492 25.9107 169.492C26.3848 169.492 26.8928 169.475 27.4262 169.445C27.9596 169.411 28.4168 169.369 28.7978 169.314H28.8782C28.9417 169.314 29.001 169.331 29.056 169.365C29.1111 169.399 29.1364 169.458 29.1364 169.543V170.093C29.1364 170.199 29.1153 170.283 29.073 170.343C29.0306 170.402 28.9417 170.444 28.8147 170.465C28.3491 170.554 27.8876 170.618 27.4304 170.669C26.969 170.719 26.4652 170.741 25.9149 170.741C25.4492 170.741 24.9963 170.677 24.5518 170.554C24.1073 170.432 23.7178 170.22 23.3749 169.924C23.0363 169.627 22.7611 169.229 22.5494 168.73C22.3378 168.234 22.2319 167.608 22.2319 166.85V165.39C22.2319 164.221 22.541 163.298 23.1548 162.617C23.7686 161.935 24.6576 161.597 25.826 161.597C26.9944 161.597 27.9003 161.94 28.493 162.625C29.0856 163.311 29.382 164.234 29.382 165.39V166.266H29.3777ZM27.9511 165.39C27.9511 164.471 27.7733 163.819 27.4262 163.43C27.0748 163.04 26.5414 162.846 25.8302 162.846C25.119 162.846 24.5899 163.049 24.2174 163.459C23.8448 163.87 23.6586 164.513 23.6586 165.39V165.534H27.9554V165.39H27.9511Z" fill="#1D1D1B"/>
<path d="M35.3466 162.566C35.3466 162.753 35.2323 162.846 35.008 162.846C34.6312 162.846 34.2629 162.897 33.9158 162.998C33.5644 163.1 33.1834 163.278 32.7728 163.523V170.301C32.7728 170.385 32.7389 170.462 32.6754 170.529C32.6119 170.593 32.5357 170.627 32.4468 170.627H31.651C31.5621 170.627 31.4901 170.593 31.4308 170.529C31.3716 170.466 31.3419 170.39 31.3419 170.301V162.033C31.3419 161.948 31.3716 161.872 31.4308 161.804C31.4901 161.737 31.5621 161.707 31.651 161.707H32.4129C32.4976 161.707 32.5738 161.741 32.6331 161.804C32.6923 161.872 32.722 161.948 32.722 162.037V162.384C33.1326 162.101 33.5263 161.898 33.8988 161.775C34.2714 161.652 34.6439 161.593 35.008 161.593C35.2366 161.593 35.3466 161.69 35.3466 161.889V162.562V162.566Z" fill="#1D1D1B"/>
<path d="M43.7413 166.266C43.7413 166.503 43.6397 166.622 43.4365 166.622H38.0221V166.85C38.0221 167.824 38.2126 168.505 38.5893 168.899C38.9661 169.293 39.5291 169.492 40.2742 169.492C40.7483 169.492 41.2563 169.475 41.7897 169.445C42.3231 169.411 42.7803 169.369 43.1613 169.314H43.2417C43.3052 169.314 43.3645 169.331 43.4195 169.365C43.4746 169.399 43.5 169.458 43.5 169.543V170.093C43.5 170.199 43.4788 170.283 43.4365 170.343C43.3941 170.402 43.3052 170.444 43.1782 170.465C42.7126 170.554 42.2511 170.618 41.794 170.669C41.3325 170.719 40.8288 170.741 40.2784 170.741C39.8128 170.741 39.3598 170.677 38.9153 170.554C38.4708 170.432 38.0813 170.22 37.7384 169.924C37.3956 169.627 37.1246 169.229 36.913 168.73C36.7013 168.234 36.5955 167.608 36.5955 166.85V165.39C36.5955 164.221 36.9045 163.298 37.5183 162.617C38.1321 161.935 39.0211 161.597 40.1895 161.597C41.3579 161.597 42.2639 161.94 42.8565 162.625C43.4492 163.311 43.7455 164.234 43.7455 165.39V166.266H43.7413ZM42.3147 165.39C42.3147 164.471 42.1368 163.819 41.7897 163.43C41.4384 163.04 40.905 162.846 40.1938 162.846C39.4826 162.846 38.9534 163.049 38.5809 163.459C38.2083 163.87 38.0221 164.513 38.0221 165.39V165.534H42.3189V165.39H42.3147Z" fill="#1D1D1B"/>
<path d="M54.4431 170.381C54.4431 170.534 54.3458 170.627 54.151 170.661C53.9902 170.682 53.8124 170.703 53.6176 170.716C53.4229 170.733 53.2493 170.741 53.0969 170.741C52.7286 170.741 52.4069 170.712 52.1233 170.652C51.8439 170.593 51.6111 170.483 51.4333 170.318C51.2555 170.157 51.12 169.933 51.0269 169.653C50.9337 169.374 50.8872 169.01 50.8872 168.565V162.91L49.3166 162.732C49.1092 162.711 49.0076 162.613 49.0076 162.44V162.004C49.0076 161.809 49.1092 161.712 49.3166 161.712H50.8872V160.124C50.8872 159.942 50.9845 159.832 51.1793 159.798L52.0217 159.667H52.0682C52.1317 159.667 52.191 159.692 52.2376 159.739C52.2841 159.79 52.3095 159.853 52.3095 159.942V161.707H54.0621C54.1468 161.707 54.223 161.741 54.2907 161.805C54.3585 161.868 54.3881 161.945 54.3881 162.033V162.584C54.3881 162.673 54.3542 162.745 54.2907 162.812C54.2272 162.88 54.151 162.91 54.0621 162.91H52.3095V168.553C52.3095 168.993 52.373 169.277 52.5043 169.395C52.6355 169.514 52.8599 169.573 53.1858 169.573H54.0918C54.3204 169.573 54.4304 169.649 54.4304 169.802V170.377L54.4431 170.381Z" fill="#1D1D1B"/>
<path d="M62.7742 170.304C62.7742 170.389 62.7403 170.465 62.6768 170.533C62.6133 170.601 62.5371 170.63 62.4482 170.63H61.6693C61.5804 170.63 61.5084 170.597 61.4407 170.533C61.373 170.47 61.3433 170.393 61.3433 170.304V164.97C61.3433 164.162 61.1867 163.603 60.8734 163.303C60.5602 163.002 60.1368 162.85 59.6077 162.85C59.4765 162.85 59.3241 162.858 59.1463 162.875C58.9685 162.892 58.7737 162.917 58.5705 162.955C58.3673 162.994 58.1599 163.04 57.9567 163.095C57.7493 163.15 57.5588 163.218 57.3725 163.307V170.309C57.3725 170.393 57.3386 170.47 57.2751 170.537C57.2116 170.605 57.1354 170.635 57.0465 170.635H56.2507C56.1618 170.635 56.0898 170.601 56.0305 170.537C55.9713 170.474 55.9417 170.398 55.9417 170.309V158.764C55.9417 158.68 55.9713 158.604 56.0305 158.536C56.0898 158.472 56.1618 158.438 56.2507 158.438H57.0592C57.1439 158.438 57.2201 158.472 57.2794 158.536C57.3386 158.599 57.3683 158.676 57.3683 158.764V162.105C57.7577 161.931 58.1811 161.804 58.6425 161.724C59.0997 161.643 59.5019 161.601 59.849 161.601C60.2808 161.601 60.6745 161.664 61.0343 161.795C61.3899 161.927 61.6989 162.126 61.9572 162.397C62.2154 162.668 62.4186 163.015 62.5583 163.442C62.698 163.87 62.77 164.382 62.77 164.975V170.309L62.7742 170.304Z" fill="#1D1D1B"/>
<path d="M71.8336 166.266C71.8336 166.503 71.732 166.622 71.5288 166.622H66.1144V166.85C66.1144 167.824 66.3049 168.505 66.6816 168.899C67.0584 169.293 67.6214 169.492 68.3665 169.492C68.8406 169.492 69.3486 169.475 69.882 169.445C70.4154 169.411 70.8726 169.369 71.2536 169.314H71.334C71.3975 169.314 71.4568 169.331 71.5118 169.365C71.5669 169.399 71.5923 169.458 71.5923 169.543V170.093C71.5923 170.199 71.5711 170.283 71.5288 170.343C71.4864 170.402 71.3975 170.444 71.2705 170.465C70.8049 170.554 70.3434 170.618 69.8862 170.669C69.4248 170.719 68.9211 170.741 68.3707 170.741C67.9051 170.741 67.4521 170.677 67.0076 170.554C66.5631 170.432 66.1736 170.22 65.8307 169.924C65.4921 169.627 65.2169 169.229 65.0052 168.73C64.7936 168.234 64.6877 167.608 64.6877 166.85V165.39C64.6877 164.221 64.9968 163.298 65.6106 162.617C66.2244 161.935 67.1134 161.597 68.2818 161.597C69.4502 161.597 70.3561 161.94 70.9488 162.625C71.5415 163.311 71.8378 164.234 71.8378 165.39V166.266H71.8336ZM70.4069 165.39C70.4069 164.471 70.2291 163.819 69.882 163.43C69.5306 163.04 68.9972 162.846 68.2861 162.846C67.5749 162.846 67.0457 163.049 66.6732 163.459C66.3006 163.87 66.1144 164.513 66.1144 165.39V165.534H70.4112V165.39H70.4069Z" fill="#1D1D1B"/>
<path d="M88.8218 162.037V162.1L87.2512 169.623C87.1962 169.881 87.1454 170.084 87.0903 170.233C87.0353 170.377 86.9591 170.491 86.8617 170.563C86.7644 170.635 86.6416 170.686 86.4892 170.707C86.3368 170.728 86.1378 170.741 85.8881 170.741C85.6849 170.741 85.5113 170.728 85.3674 170.698C85.2277 170.673 85.1091 170.618 85.0118 170.537C84.9144 170.457 84.8297 170.343 84.762 170.19C84.69 170.038 84.6223 169.835 84.5588 169.576L83.1491 164.065C83.128 164.01 83.1153 163.98 83.1068 163.967C83.1026 163.959 83.0899 163.95 83.0645 163.95C83.0391 163.95 83.0306 163.955 83.0221 163.967C83.0179 163.98 83.0052 164.01 82.9798 164.065L81.5701 169.576C81.5066 169.813 81.4389 170.008 81.3754 170.161C81.3119 170.313 81.2314 170.432 81.1341 170.516C81.0367 170.601 80.9182 170.66 80.7785 170.694C80.6388 170.728 80.461 170.741 80.2451 170.741C80.008 170.741 79.809 170.728 79.6524 170.707C79.4958 170.686 79.3688 170.635 79.2714 170.563C79.1741 170.491 79.0979 170.372 79.0428 170.224C78.9878 170.072 78.9328 169.873 78.882 169.623L77.3114 162.1V162.037C77.3114 161.952 77.341 161.876 77.4003 161.808C77.4596 161.741 77.5315 161.711 77.6204 161.711H78.4967C78.5729 161.711 78.6364 161.736 78.683 161.791C78.7338 161.846 78.7634 161.906 78.7719 161.969L80.1181 169.377C80.1392 169.475 80.1604 169.53 80.1816 169.547C80.2027 169.564 80.2239 169.572 80.2451 169.572C80.3001 169.572 80.3424 169.509 80.3763 169.377L81.9638 163.138C82.0188 162.956 82.095 162.829 82.2009 162.757C82.3025 162.685 82.4422 162.651 82.6157 162.651H83.5217C83.6952 162.651 83.8307 162.685 83.9365 162.757C84.0381 162.829 84.1185 162.956 84.1693 163.138L85.7568 169.377C85.7907 169.509 85.833 169.572 85.8881 169.572C85.9092 169.572 85.9304 169.564 85.9516 169.547C85.9727 169.53 85.9939 169.475 86.0151 169.377L87.3613 161.969C87.374 161.906 87.4036 161.846 87.4502 161.791C87.4967 161.736 87.5602 161.711 87.6364 161.711H88.5127C88.5974 161.711 88.6736 161.745 88.7328 161.808C88.7921 161.872 88.8218 161.948 88.8218 162.037Z" fill="#1D1D1B"/>
<path d="M97.4662 166.787C97.4662 167.379 97.39 167.921 97.2376 168.408C97.0852 168.895 96.8608 169.31 96.556 169.657C96.2555 170.004 95.8745 170.271 95.4215 170.461C94.9685 170.652 94.4436 170.745 93.851 170.745C93.2583 170.745 92.7334 170.652 92.2846 170.461C91.8359 170.271 91.4591 170.004 91.1586 169.657C90.8538 169.31 90.6294 168.895 90.477 168.408C90.3246 167.921 90.2484 167.384 90.2484 166.787V165.555C90.2484 164.962 90.3246 164.42 90.477 163.933C90.6294 163.447 90.8538 163.032 91.1586 162.685C91.4591 162.338 91.8359 162.071 92.2846 161.88C92.7334 161.69 93.2541 161.597 93.851 161.597C94.4478 161.597 94.9685 161.69 95.4215 161.88C95.8745 162.071 96.2555 162.338 96.556 162.685C96.8566 163.032 97.0852 163.447 97.2376 163.933C97.39 164.42 97.4662 164.962 97.4662 165.555V166.787ZM96.0396 165.555C96.0396 164.721 95.866 164.065 95.5189 163.578C95.1717 163.091 94.6172 162.85 93.851 162.85C93.0847 162.85 92.5429 163.091 92.1957 163.569C91.8486 164.052 91.675 164.712 91.675 165.555V166.787C91.675 167.621 91.8444 168.277 92.1873 168.764C92.5259 169.25 93.0805 169.492 93.851 169.492C94.6214 169.492 95.159 169.25 95.5146 168.772C95.866 168.29 96.0396 167.629 96.0396 166.787V165.555Z" fill="#1D1D1B"/>
<path d="M103.38 162.566C103.38 162.753 103.266 162.846 103.041 162.846C102.665 162.846 102.296 162.897 101.949 162.998C101.598 163.1 101.217 163.278 100.806 163.523V170.301C100.806 170.385 100.772 170.462 100.709 170.529C100.645 170.593 100.569 170.627 100.48 170.627H99.6844C99.5955 170.627 99.5235 170.593 99.4643 170.529C99.405 170.466 99.3754 170.39 99.3754 170.301V162.033C99.3754 161.948 99.405 161.872 99.4643 161.804C99.5235 161.737 99.5955 161.707 99.6844 161.707H100.446C100.531 161.707 100.607 161.741 100.667 161.804C100.726 161.872 100.755 161.948 100.755 162.037V162.384C101.166 162.101 101.56 161.898 101.932 161.775C102.305 161.652 102.677 161.593 103.041 161.593C103.27 161.593 103.38 161.69 103.38 161.889V162.562V162.566Z" fill="#1D1D1B"/>
<path d="M106.509 170.304C106.509 170.389 106.479 170.465 106.428 170.533C106.377 170.601 106.305 170.63 106.216 170.63H105.374C105.285 170.63 105.217 170.597 105.162 170.533C105.107 170.47 105.082 170.393 105.082 170.304V158.748C105.082 158.663 105.107 158.587 105.162 158.527C105.217 158.468 105.285 158.438 105.374 158.438H106.216C106.301 158.438 106.373 158.468 106.428 158.527C106.483 158.587 106.509 158.659 106.509 158.748V170.304Z" fill="#1D1D1B"/>
<path d="M115.441 170.093C115.441 170.199 115.424 170.283 115.386 170.343C115.348 170.402 115.255 170.444 115.102 170.465C114.594 170.563 114.095 170.635 113.604 170.677C113.112 170.719 112.617 170.74 112.122 170.74C111.517 170.74 110.992 170.647 110.551 170.457C110.107 170.266 109.743 169.995 109.451 169.648C109.159 169.297 108.943 168.874 108.803 168.382C108.663 167.891 108.591 167.341 108.591 166.736V165.567C108.591 164.293 108.883 163.311 109.468 162.625C110.052 161.939 110.937 161.597 112.126 161.597C112.376 161.597 112.676 161.609 113.028 161.639C113.379 161.668 113.709 161.707 114.027 161.762V158.748C114.027 158.663 114.056 158.587 114.116 158.527C114.175 158.468 114.247 158.438 114.336 158.438H115.161C115.246 158.438 115.318 158.468 115.373 158.527C115.428 158.587 115.453 158.659 115.453 158.748V170.097L115.441 170.093ZM114.014 162.96C113.743 162.905 113.426 162.875 113.057 162.862C112.689 162.854 112.376 162.845 112.118 162.845C111.33 162.845 110.78 163.082 110.471 163.557C110.162 164.031 110.009 164.704 110.009 165.567V166.736C110.009 167.621 110.162 168.302 110.462 168.78C110.763 169.255 111.318 169.492 112.118 169.492C112.397 169.492 112.715 169.483 113.066 169.458C113.417 169.437 113.735 169.415 114.014 169.394V162.96Z" fill="#1D1D1B"/>
<path d="M127.163 170.208C127.163 170.313 127.142 170.398 127.099 170.449C127.057 170.504 126.968 170.542 126.841 170.563C126.57 170.618 126.261 170.661 125.91 170.694C125.558 170.728 125.194 170.741 124.817 170.741C124.267 170.741 123.776 170.648 123.349 170.457C122.921 170.267 122.561 170.004 122.261 169.661C121.964 169.323 121.74 168.908 121.587 168.421C121.435 167.934 121.359 167.397 121.359 166.8V165.534C121.359 164.941 121.435 164.399 121.587 163.913C121.74 163.426 121.96 163.011 122.252 162.672C122.544 162.334 122.904 162.067 123.34 161.876C123.772 161.686 124.263 161.593 124.817 161.593C125.194 161.593 125.563 161.61 125.91 161.639C126.261 161.673 126.57 161.716 126.841 161.771C126.972 161.792 127.057 161.826 127.099 161.876C127.142 161.923 127.163 162.008 127.163 162.126V162.71C127.163 162.795 127.133 162.859 127.082 162.897C127.027 162.935 126.964 162.952 126.888 162.952H126.824C126.468 162.909 126.143 162.88 125.85 162.863C125.558 162.846 125.211 162.837 124.813 162.837C124.166 162.837 123.666 163.057 123.315 163.494C122.963 163.93 122.786 164.611 122.786 165.526V166.791C122.786 167.71 122.959 168.387 123.306 168.823C123.653 169.259 124.153 169.479 124.813 169.479C125.211 169.479 125.558 169.471 125.85 169.454C126.143 169.437 126.468 169.407 126.824 169.365H126.888C126.964 169.365 127.027 169.382 127.082 169.42C127.137 169.458 127.163 169.522 127.163 169.606V170.191V170.208Z" fill="#1D1D1B"/>
<path d="M135.9 166.787C135.9 167.379 135.824 167.921 135.672 168.408C135.519 168.895 135.295 169.31 134.99 169.657C134.685 170.004 134.309 170.271 133.856 170.461C133.403 170.652 132.878 170.745 132.285 170.745C131.692 170.745 131.167 170.652 130.719 170.461C130.27 170.271 129.893 170.004 129.593 169.657C129.288 169.31 129.063 168.895 128.911 168.408C128.759 167.921 128.682 167.384 128.682 166.787V165.555C128.682 164.962 128.759 164.42 128.911 163.933C129.063 163.447 129.288 163.032 129.593 162.685C129.893 162.338 130.27 162.071 130.719 161.88C131.167 161.69 131.688 161.597 132.285 161.597C132.882 161.597 133.403 161.69 133.856 161.88C134.309 162.071 134.69 162.338 134.99 162.685C135.291 163.032 135.519 163.447 135.672 163.933C135.824 164.42 135.9 164.962 135.9 165.555V166.787ZM134.474 165.555C134.474 164.721 134.3 164.065 133.953 163.578C133.606 163.091 133.051 162.85 132.285 162.85C131.519 162.85 130.977 163.091 130.63 163.569C130.283 164.052 130.109 164.712 130.109 165.555V166.787C130.109 167.621 130.278 168.277 130.621 168.764C130.964 169.25 131.515 169.492 132.285 169.492C133.056 169.492 133.593 169.25 133.949 168.772C134.3 168.29 134.474 167.629 134.474 166.787V165.555Z" fill="#1D1D1B"/>
<path d="M148.545 170.305C148.545 170.39 148.511 170.466 148.448 170.534C148.384 170.602 148.308 170.631 148.219 170.631H147.44C147.356 170.631 147.279 170.597 147.212 170.534C147.144 170.47 147.114 170.394 147.114 170.305V164.565C147.114 164.218 147.076 163.934 147 163.714C146.924 163.494 146.822 163.316 146.691 163.189C146.56 163.058 146.407 162.969 146.23 162.914C146.052 162.859 145.853 162.833 145.637 162.833C145.345 162.833 145.036 162.876 144.706 162.965C144.375 163.049 144.054 163.155 143.74 163.274C143.838 163.629 143.884 164.053 143.884 164.539V170.309C143.884 170.394 143.859 170.47 143.804 170.538C143.749 170.602 143.681 170.635 143.592 170.635H142.733C142.644 170.635 142.58 170.602 142.53 170.538C142.479 170.475 142.458 170.398 142.458 170.309V164.539C142.458 164.184 142.432 163.896 142.386 163.672C142.335 163.452 142.259 163.278 142.149 163.151C142.039 163.028 141.912 162.944 141.759 162.901C141.607 162.859 141.425 162.838 141.209 162.838C140.917 162.838 140.599 162.901 140.261 163.024C139.922 163.147 139.575 163.295 139.232 163.468V170.309C139.232 170.394 139.207 170.47 139.151 170.538C139.096 170.602 139.024 170.635 138.94 170.635H138.08C137.992 170.635 137.928 170.602 137.877 170.538C137.826 170.475 137.805 170.398 137.805 170.309V162.042C137.805 161.957 137.835 161.881 137.894 161.813C137.953 161.745 138.025 161.716 138.114 161.716H138.923C139.008 161.716 139.084 161.75 139.143 161.813C139.202 161.877 139.232 161.953 139.232 162.042V162.351C139.558 162.148 139.918 161.966 140.32 161.817C140.722 161.669 141.145 161.589 141.603 161.589C141.95 161.589 142.255 161.64 142.517 161.741C142.784 161.843 143.016 162.016 143.224 162.253C143.677 162.038 144.134 161.872 144.596 161.758C145.057 161.644 145.497 161.589 145.916 161.589C146.285 161.589 146.627 161.64 146.945 161.737C147.262 161.834 147.542 161.999 147.779 162.232C148.016 162.465 148.202 162.774 148.338 163.155C148.473 163.54 148.541 164.01 148.541 164.573V170.314L148.545 170.305Z" fill="#1D1D1B"/>
<path d="M157.604 166.266C157.604 166.503 157.503 166.622 157.3 166.622H151.885V166.85C151.885 167.824 152.076 168.505 152.452 168.899C152.829 169.293 153.392 169.492 154.137 169.492C154.611 169.492 155.119 169.475 155.653 169.445C156.186 169.411 156.643 169.369 157.024 169.314H157.105C157.168 169.314 157.228 169.331 157.283 169.365C157.338 169.399 157.363 169.458 157.363 169.543V170.093C157.363 170.199 157.342 170.283 157.3 170.343C157.257 170.402 157.168 170.444 157.041 170.465C156.576 170.554 156.114 170.618 155.657 170.669C155.196 170.719 154.692 170.741 154.142 170.741C153.676 170.741 153.223 170.677 152.778 170.554C152.334 170.432 151.945 170.22 151.602 169.924C151.259 169.627 150.988 169.229 150.776 168.73C150.564 168.234 150.459 167.608 150.459 166.85V165.39C150.459 164.221 150.768 163.298 151.381 162.617C151.995 161.935 152.884 161.597 154.053 161.597C155.221 161.597 156.127 161.94 156.72 162.625C157.312 163.311 157.609 164.234 157.609 165.39V166.266H157.604ZM156.178 165.39C156.178 164.471 156 163.819 155.653 163.43C155.302 163.04 154.768 162.846 154.057 162.846C153.346 162.846 152.817 163.049 152.444 163.459C152.072 163.87 151.885 164.513 151.885 165.39V165.534H156.182V165.39H156.178Z" fill="#1D1D1B"/>
<path d="M165.207 168.391C165.207 169.212 164.928 169.809 164.373 170.182C163.819 170.554 163.087 170.741 162.176 170.741C162.024 170.741 161.842 170.741 161.635 170.732C161.427 170.724 161.203 170.715 160.97 170.69C160.737 170.669 160.504 170.639 160.263 170.609C160.026 170.576 159.81 170.537 159.615 170.495C159.387 170.44 159.277 170.334 159.277 170.169V169.602C159.277 169.526 159.302 169.466 159.357 169.424C159.412 169.382 159.48 169.361 159.569 169.361H159.632C159.827 169.382 160.039 169.403 160.271 169.424C160.504 169.445 160.737 169.466 160.978 169.479C161.215 169.496 161.44 169.509 161.651 169.521C161.863 169.534 162.037 169.538 162.176 169.538C162.706 169.538 163.104 169.458 163.374 169.297C163.645 169.136 163.781 168.831 163.781 168.391C163.781 168.141 163.696 167.925 163.523 167.743C163.349 167.561 163.032 167.329 162.566 167.045L160.928 166.071C160.432 165.771 160.03 165.436 159.73 165.072C159.429 164.708 159.277 164.268 159.277 163.751C159.277 163.328 159.353 162.981 159.505 162.706C159.658 162.431 159.861 162.211 160.123 162.041C160.382 161.872 160.691 161.758 161.046 161.694C161.402 161.631 161.791 161.597 162.215 161.597C162.667 161.597 163.108 161.614 163.535 161.652C163.963 161.69 164.365 161.741 164.742 161.804C164.945 161.838 165.051 161.944 165.051 162.13V162.663C165.051 162.846 164.958 162.939 164.776 162.939H164.725C164.445 162.917 164.069 162.888 163.599 162.858C163.129 162.824 162.667 162.812 162.215 162.812C161.762 162.812 161.397 162.867 161.118 162.973C160.843 163.083 160.703 163.341 160.703 163.751C160.703 164.001 160.796 164.213 160.978 164.391C161.16 164.568 161.444 164.767 161.821 164.983L163.425 165.94C164.094 166.338 164.56 166.727 164.818 167.108C165.076 167.485 165.207 167.913 165.207 168.391Z" fill="#1D1D1B"/>
<path d="M175.858 170.381C175.858 170.534 175.761 170.627 175.566 170.661C175.405 170.682 175.228 170.703 175.033 170.716C174.838 170.733 174.665 170.741 174.512 170.741C174.144 170.741 173.822 170.712 173.539 170.652C173.259 170.593 173.026 170.483 172.849 170.318C172.671 170.157 172.535 169.933 172.442 169.653C172.349 169.374 172.302 169.01 172.302 168.565V162.91L170.732 162.732C170.524 162.711 170.423 162.613 170.423 162.44V162.004C170.423 161.809 170.524 161.712 170.732 161.712H172.302V160.124C172.302 159.942 172.4 159.832 172.595 159.798L173.437 159.667H173.484C173.547 159.667 173.606 159.692 173.653 159.739C173.699 159.79 173.725 159.853 173.725 159.942V161.707H175.477C175.562 161.707 175.638 161.741 175.706 161.805C175.774 161.868 175.803 161.945 175.803 162.033V162.584C175.803 162.673 175.77 162.745 175.706 162.812C175.643 162.88 175.566 162.91 175.477 162.91H173.725V168.553C173.725 168.993 173.788 169.277 173.92 169.395C174.051 169.514 174.275 169.573 174.601 169.573H175.507C175.736 169.573 175.846 169.649 175.846 169.802V170.377L175.858 170.381Z" fill="#1D1D1B"/>
<path d="M184.287 166.787C184.287 167.379 184.211 167.921 184.058 168.408C183.906 168.895 183.682 169.31 183.377 169.657C183.072 170.004 182.695 170.271 182.242 170.461C181.789 170.652 181.264 170.745 180.672 170.745C180.079 170.745 179.554 170.652 179.105 170.461C178.657 170.271 178.28 170.004 177.979 169.657C177.675 169.31 177.45 168.895 177.298 168.408C177.145 167.921 177.069 167.384 177.069 166.787V165.555C177.069 164.962 177.145 164.42 177.298 163.933C177.45 163.447 177.675 163.032 177.979 162.685C178.28 162.338 178.657 162.071 179.105 161.88C179.554 161.69 180.075 161.597 180.672 161.597C181.269 161.597 181.789 161.69 182.242 161.88C182.695 162.071 183.076 162.338 183.377 162.685C183.677 163.032 183.906 163.447 184.058 163.933C184.211 164.42 184.287 164.962 184.287 165.555V166.787ZM182.86 165.555C182.86 164.721 182.687 164.065 182.34 163.578C181.993 163.091 181.438 162.85 180.672 162.85C179.906 162.85 179.364 163.091 179.017 163.569C178.669 164.052 178.496 164.712 178.496 165.555V166.787C178.496 167.621 178.665 168.277 179.008 168.764C179.351 169.25 179.901 169.492 180.672 169.492C181.442 169.492 181.98 169.25 182.335 168.772C182.687 168.29 182.86 167.629 182.86 166.787V165.555Z" fill="#1D1D1B"/>
<path d="M195.848 168.391C195.848 169.212 195.569 169.809 195.014 170.182C194.455 170.554 193.727 170.741 192.817 170.741C192.665 170.741 192.483 170.741 192.275 170.732C192.068 170.724 191.843 170.715 191.611 170.69C191.378 170.669 191.145 170.639 190.904 170.609C190.667 170.576 190.451 170.537 190.256 170.495C190.027 170.44 189.917 170.334 189.917 170.169V169.602C189.917 169.526 189.943 169.466 189.998 169.424C190.053 169.382 190.12 169.361 190.209 169.361H190.273C190.468 169.382 190.679 169.403 190.912 169.424C191.145 169.445 191.378 169.466 191.619 169.479C191.856 169.496 192.08 169.509 192.292 169.521C192.504 169.534 192.677 169.538 192.817 169.538C193.346 169.538 193.744 169.458 194.015 169.297C194.286 169.136 194.421 168.831 194.421 168.391C194.421 168.141 194.337 167.925 194.163 167.743C193.99 167.561 193.672 167.329 193.207 167.045L191.568 166.071C191.073 165.771 190.671 165.436 190.37 165.072C190.07 164.708 189.917 164.268 189.917 163.751C189.917 163.328 189.993 162.981 190.146 162.706C190.298 162.431 190.501 162.211 190.764 162.041C191.022 161.872 191.331 161.758 191.687 161.694C192.042 161.631 192.432 161.597 192.855 161.597C193.308 161.597 193.748 161.614 194.176 161.652C194.604 161.69 195.006 161.741 195.382 161.804C195.586 161.838 195.691 161.944 195.691 162.13V162.663C195.691 162.846 195.598 162.939 195.416 162.939H195.366C195.086 162.917 194.709 162.888 194.239 162.858C193.77 162.824 193.308 162.812 192.855 162.812C192.402 162.812 192.038 162.867 191.759 162.973C191.484 163.083 191.344 163.341 191.344 163.751C191.344 164.001 191.437 164.213 191.619 164.391C191.801 164.568 192.085 164.767 192.461 164.983L194.066 165.94C194.735 166.338 195.2 166.727 195.459 167.108C195.717 167.485 195.848 167.913 195.848 168.391Z" fill="#1D1D1B"/>
<path d="M204.586 170.304C204.586 170.389 204.552 170.465 204.488 170.533C204.425 170.601 204.349 170.63 204.26 170.63H203.481C203.392 170.63 203.32 170.597 203.252 170.533C203.184 170.47 203.155 170.393 203.155 170.304V164.97C203.155 164.162 202.998 163.603 202.685 163.303C202.372 163.002 201.948 162.85 201.419 162.85C201.288 162.85 201.135 162.858 200.958 162.875C200.78 162.892 200.585 162.917 200.382 162.955C200.179 162.994 199.971 163.04 199.768 163.095C199.561 163.15 199.37 163.218 199.184 163.307V170.309C199.184 170.393 199.15 170.47 199.087 170.537C199.023 170.605 198.947 170.635 198.858 170.635H198.062C197.973 170.635 197.901 170.601 197.842 170.537C197.783 170.474 197.753 170.398 197.753 170.309V158.764C197.753 158.68 197.783 158.604 197.842 158.536C197.901 158.472 197.973 158.438 198.062 158.438H198.871C198.955 158.438 199.032 158.472 199.091 158.536C199.15 158.599 199.18 158.676 199.18 158.764V162.105C199.569 161.931 199.992 161.804 200.454 161.724C200.911 161.643 201.313 161.601 201.66 161.601C202.092 161.601 202.486 161.664 202.846 161.795C203.201 161.927 203.51 162.126 203.769 162.397C204.027 162.668 204.23 163.015 204.37 163.442C204.509 163.87 204.581 164.382 204.581 164.975V170.309L204.586 170.304Z" fill="#1D1D1B"/>
<path d="M213.713 166.787C213.713 167.379 213.636 167.921 213.484 168.408C213.332 168.895 213.107 169.31 212.803 169.657C212.498 170.004 212.121 170.271 211.668 170.461C211.215 170.652 210.69 170.745 210.097 170.745C209.505 170.745 208.98 170.652 208.531 170.461C208.082 170.271 207.706 170.004 207.405 169.657C207.1 169.31 206.876 168.895 206.723 168.408C206.571 167.921 206.495 167.384 206.495 166.787V165.555C206.495 164.962 206.571 164.42 206.723 163.933C206.876 163.447 207.1 163.032 207.405 162.685C207.706 162.338 208.082 162.071 208.531 161.88C208.98 161.69 209.501 161.597 210.097 161.597C210.694 161.597 211.215 161.69 211.668 161.88C212.121 162.071 212.502 162.338 212.803 162.685C213.103 163.032 213.332 163.447 213.484 163.933C213.636 164.42 213.713 164.962 213.713 165.555V166.787ZM212.286 165.555C212.286 164.721 212.112 164.065 211.765 163.578C211.418 163.091 210.864 162.85 210.097 162.85C209.331 162.85 208.789 163.091 208.442 163.569C208.095 164.052 207.922 164.712 207.922 165.555V166.787C207.922 167.621 208.091 168.277 208.434 168.764C208.777 169.25 209.327 169.492 210.097 169.492C210.868 169.492 211.406 169.25 211.761 168.772C212.112 168.29 212.286 167.629 212.286 166.787V165.555Z" fill="#1D1D1B"/>
<path d="M222.48 166.77C222.48 168.044 222.188 169.026 221.604 169.712C221.019 170.398 220.135 170.741 218.945 170.741C218.695 170.741 218.395 170.724 218.043 170.694C217.692 170.66 217.358 170.618 217.044 170.563V173.496C217.044 173.581 217.015 173.657 216.955 173.717C216.896 173.776 216.824 173.806 216.735 173.806H215.91C215.825 173.806 215.753 173.776 215.698 173.717C215.643 173.657 215.618 173.585 215.618 173.496V162.342C215.618 162.236 215.635 162.151 215.673 162.1C215.711 162.045 215.804 162.003 215.956 161.969C216.388 161.859 216.871 161.77 217.4 161.703C217.929 161.631 218.441 161.597 218.941 161.597C219.546 161.597 220.071 161.69 220.511 161.88C220.956 162.071 221.32 162.338 221.612 162.685C221.904 163.032 222.12 163.451 222.26 163.95C222.399 164.446 222.471 165 222.471 165.606V166.774L222.48 166.77ZM221.053 165.601C221.053 165.178 221.019 164.797 220.947 164.45C220.875 164.103 220.761 163.811 220.6 163.565C220.439 163.324 220.224 163.133 219.953 162.998C219.682 162.862 219.347 162.795 218.949 162.795C218.602 162.795 218.259 162.812 217.912 162.846C217.565 162.879 217.281 162.917 217.053 162.96V169.377C217.324 169.433 217.641 169.471 218.009 169.5C218.378 169.53 218.691 169.543 218.949 169.543C219.749 169.543 220.3 169.297 220.604 168.806C220.905 168.315 221.057 167.638 221.057 166.774V165.606L221.053 165.601Z" fill="#1D1D1B"/>
<path d="M382.249 161.475C380.259 161.475 379.04 162.77 379.04 164.861C379.04 166.953 380.31 168.248 382.3 168.248C382.863 168.248 383.362 168.108 383.803 167.808C383.328 169.23 381.906 170.199 380.327 170.199C378.164 170.199 376.771 168.709 376.771 166.415V163.659H375.112V166.601C375.112 169.531 377.351 171.791 380.374 171.791C383.396 171.791 385.564 169.514 385.564 166.601C385.564 165.496 385.564 164.891 385.547 164.81C385.547 162.707 384.247 161.475 382.253 161.475M382.3 166.906C381.296 166.906 380.666 166.038 380.666 164.832C380.666 163.625 381.373 162.762 382.283 162.762C383.193 162.762 383.913 163.629 383.913 164.929C383.913 166.068 383.282 166.906 382.3 166.906Z" fill="#25231E"/>
<path d="M381.643 158.77H379.921V160.526H381.643V158.77Z" fill="#25231E"/>
<path d="M384.619 158.77H382.896V160.526H384.619V158.77Z" fill="#25231E"/>
<path d="M424.802 158.752H423.079V160.509H424.802V158.752Z" fill="#25231E"/>
<path d="M421.826 158.752H420.103V160.509H421.826V158.752Z" fill="#25231E"/>
<path d="M442.624 165.699C442.624 166.266 442.578 166.647 442.497 166.842C442.324 167.189 441.964 167.362 441.388 167.362H437.396C437.646 167.058 437.773 166.456 437.773 165.525V158.955H436.037V165.618C436.037 166.173 435.974 166.583 435.851 166.825C435.665 167.185 435.317 167.362 434.801 167.362H424.429C424.683 167.058 424.806 166.456 424.806 165.525V161.978H423.071V165.618C423.071 166.173 423.007 166.583 422.88 166.825C422.694 167.185 422.351 167.362 421.834 167.362H418.003C418.27 166.791 418.393 166.143 418.393 165.398V161.978H416.623V165.618C416.623 166.774 416.187 167.362 415.29 167.362H413.58C413.812 167.108 413.944 166.456 413.944 165.428V161.978H412.17V165.601C412.17 166.774 411.73 167.358 410.841 167.358H409.211V167.261C409.397 166.96 409.486 166.359 409.486 165.424V161.973H407.721V165.487C407.721 166.74 407.285 167.358 406.387 167.358H393.814V165.521C393.814 163.447 392.472 161.956 390.555 161.956C388.637 161.956 387.045 163.383 387.045 165.474C387.045 167.566 388.578 169.166 390.478 169.166H392.151C391.901 170.004 391.321 170.385 390.411 170.385V171.774C392.451 171.774 393.594 170.906 393.827 169.166H441.744C443.5 169.166 444.381 168.213 444.381 166.3V158.955H442.624V165.699ZM392.062 167.362H390.512C389.572 167.362 388.836 166.473 388.836 165.381C388.836 164.289 389.492 163.591 390.529 163.591C391.439 163.591 391.973 164.259 392.066 165.195V167.362H392.062Z" fill="#25231E"/>
<path d="M469.18 165.699C469.18 166.27 469.133 166.647 469.057 166.842C468.883 167.189 468.528 167.362 467.944 167.362H463.19C461.873 167.362 461.2 166.744 460.48 164.242C460.091 162.867 458.787 161.961 457.216 161.961H452.831C450.498 161.961 449.148 163.624 449.148 166.173V171.79H450.905V166.537C450.905 164.805 451.658 163.768 452.831 163.768H454.118C453.821 164.306 453.677 164.924 453.677 165.614C453.677 167.705 455.134 169.322 457.216 169.322C458.491 169.322 459.443 168.831 460.087 167.866C460.946 168.704 461.979 169.166 463.202 169.166H468.303C470.056 169.166 470.936 168.213 470.936 166.3V158.955H469.18V165.699ZM457.267 167.697C456.217 167.697 455.481 166.791 455.481 165.606C455.481 164.42 456.154 163.578 457.157 163.578C458.241 163.578 458.931 164.518 458.931 165.686C458.931 166.854 458.228 167.697 457.271 167.697" fill="#25231E"/>
<path d="M499.99 165.699C499.99 166.266 499.943 166.647 499.867 166.838C499.693 167.185 499.333 167.363 498.754 167.363H494.808C494.431 167.363 494.198 167.346 494.118 167.329C493.911 167.282 493.712 167.155 493.492 166.931C494.055 166.537 494.651 165.949 495.299 165.161C495.888 164.416 496.264 163.832 496.408 163.405C495.151 162.312 493.669 161.758 491.942 161.758C490.486 161.758 489.059 162.19 487.696 163.057V164.734C488.272 164.878 488.903 165.161 489.546 165.589C490.19 166.004 490.643 166.398 490.88 166.762C490.503 167.011 490.126 167.168 489.749 167.248C489.449 167.329 489.042 167.363 488.526 167.363H476.148C475.487 167.363 475.034 167.265 474.797 167.092C474.471 166.851 474.294 166.351 474.294 165.572V158.955H472.558V166.283C472.558 167.155 472.761 167.837 473.184 168.345C473.642 168.899 474.281 169.166 475.127 169.166H488.56C489.737 169.166 490.884 168.789 492.023 168.027C492.289 168.328 492.615 168.582 493.026 168.785C493.508 169.039 493.978 169.162 494.419 169.162H499.122C500.87 169.162 501.755 168.214 501.755 166.296V158.951H499.998V165.695L499.99 165.699ZM492.238 165.843C491.455 164.924 490.566 164.294 489.576 163.946C490.372 163.519 491.189 163.295 491.989 163.295C492.789 163.295 493.555 163.502 494.262 163.925C494.042 164.26 493.741 164.607 493.381 164.971C492.975 165.369 492.598 165.669 492.234 165.843" fill="#25231E"/>
<path d="M505.108 158.942H503.368V169.17H505.108V158.942Z" fill="#25231E"/>
<path d="M517.617 173.539H515.894V175.296H517.617V173.539Z" fill="#25231E"/>
<path d="M514.654 173.539H512.931V175.296H514.654V173.539Z" fill="#25231E"/>
<path d="M537.031 158.77H535.308V160.526H537.031V158.77Z" fill="#25231E"/>
<path d="M534.068 158.77H532.345V160.526H534.068V158.77Z" fill="#25231E"/>
<path d="M535.321 165.699C535.321 166.266 535.278 166.647 535.198 166.837C535.024 167.184 534.665 167.362 534.085 167.362H522.964C522.075 167.362 521.457 166.901 520.822 165.716C520.127 164.462 519.099 163.832 517.714 163.832H517.024V165.445C517.122 165.428 517.215 165.428 517.312 165.428C518.311 165.428 518.891 166.122 518.891 167.104C518.891 168.721 517.359 170.08 515.318 170.08C513.049 170.08 511.635 168.543 511.635 166.092V164.526H509.879V166.296C509.879 169.415 512.258 171.79 515.268 171.79C517.82 171.79 519.92 170.241 520.424 167.773C521.08 168.768 521.647 169.089 523.197 169.145V169.166H534.457C536.193 169.166 537.073 168.217 537.073 166.3V161.978H535.317V165.699H535.321Z" fill="#25231E"/>
<path d="M540.871 157.406H539.601C539.414 157.296 539.313 157.092 539.313 156.817C539.313 156.517 539.52 156.216 539.855 156.216C540.087 156.216 540.248 156.326 540.291 156.563L540.854 156.263C540.638 155.801 540.308 155.568 539.872 155.568C539.198 155.568 538.652 156.106 538.652 156.851C538.652 156.931 538.699 157.105 538.792 157.406H538.166V158.13H540.875V157.406H540.871Z" fill="#25231E"/>
<path d="M545.582 165.699C545.582 166.266 545.536 166.647 545.46 166.837C545.286 167.185 544.926 167.362 544.346 167.362H542.289C541.628 167.362 541.176 167.265 540.938 167.096C540.612 166.854 540.439 166.351 540.439 165.576V158.955H538.703V166.283C538.703 167.159 538.902 167.837 539.326 168.345C539.783 168.899 540.426 169.166 541.269 169.166H544.727C546.463 169.166 547.343 168.218 547.343 166.3V161.978H545.587V165.699H545.582Z" fill="#25231E"/>
<path d="M547.288 170.859H545.565V172.633H547.288V170.859Z" fill="#25231E"/>
<path d="M544.325 170.859H542.602V172.633H544.325V170.859Z" fill="#25231E"/>
<path d="M560.975 160.208H559.269V161.965H560.975V160.208Z" fill="#25231E"/>
<path d="M559.523 157.706H557.812V159.48H559.523V157.706Z" fill="#25231E"/>
<path d="M557.999 160.208H556.292V161.965H557.999V160.208Z" fill="#25231E"/>
<path d="M578.145 170.859H576.422V172.633H578.145V170.859Z" fill="#25231E"/>
<path d="M575.186 170.859H573.463V172.633H575.186V170.859Z" fill="#25231E"/>
<path d="M595.29 162.854C594.443 162.27 593.44 161.982 592.28 161.982C591.59 161.982 590.9 162.126 590.21 162.422C589.566 162.71 589.016 163.091 588.533 163.548C588.927 164.145 589.211 164.606 589.38 164.937C589.757 164.513 590.227 164.183 590.794 163.942C591.277 163.739 591.717 163.641 592.106 163.641C593.249 163.641 594.155 164.039 594.803 164.848C595.349 165.538 595.62 166.38 595.62 167.362H577.819C578.086 167.058 578.213 166.456 578.213 165.529V161.978H576.473V165.614C576.473 166.173 576.409 166.583 576.286 166.825C576.096 167.184 575.736 167.362 575.22 167.362H564.818C565.089 167.058 565.216 166.456 565.216 165.529V161.978H563.46V165.614C563.46 166.173 563.396 166.583 563.273 166.825C563.104 167.184 562.74 167.362 562.223 167.362H556.894C555.941 167.362 555.217 167.184 554.747 166.854C554.151 166.444 553.85 165.716 553.85 164.687V161.982H552.114V164.687C552.114 167.68 553.774 169.166 557.097 169.166H597.516V168.057C597.516 165.567 596.78 163.849 595.294 162.85" fill="#25231E"/>
</g>
</g>
<defs>
<clipPath id="clip0_382_636">
<rect width="600" height="250" fill="white"/>
</clipPath>
<clipPath id="clip1_382_636">
<rect width="600.833" height="108" fill="white" transform="translate(-0.41626 71)"/>
</clipPath>
</defs>
</svg>
