<svg width="600" height="250" viewBox="0 0 600 250" fill="none" xmlns="http://www.w3.org/2000/svg">
<g clip-path="url(#clip0_471_5)">
<path d="M435.731 201.84H434L430.632 191.809L427.303 201.84H425.55L421.506 188.916H423.524L426.469 199.285L429.833 188.916H431.44L434.835 199.285L437.744 188.916H439.775L435.731 201.84Z" fill="#EA0029"/>
<path d="M447.567 201.84V200.614C446.53 201.666 445.598 202.005 443.889 202.005C442.181 202.005 441.06 201.67 440.265 200.832C439.625 200.181 439.302 199.214 439.302 198.193C439.302 195.928 440.856 194.448 443.722 194.448H447.567V193.24C447.567 191.35 446.622 190.405 444.291 190.405C442.644 190.405 441.819 190.775 441.064 191.872L439.793 190.686C440.94 189.197 442.243 188.773 444.3 188.773C447.752 188.773 449.457 190.28 449.457 193.08V201.849H447.571L447.567 201.84ZM447.567 195.871H443.973C442.057 195.871 441.126 196.677 441.126 198.189C441.126 199.7 442.022 200.364 444.057 200.364C445.152 200.364 446.123 200.297 446.905 199.499C447.373 199.071 447.571 198.34 447.571 197.266V195.866L447.567 195.871Z" fill="#EA0029"/>
<path d="M454.975 201.839C452.79 201.839 451.704 200.301 451.704 198.358V190.445H450.092V188.991H451.704V184.957H453.567V188.991H456.291V190.445H453.567V198.344C453.567 199.503 454.11 200.217 455.315 200.217H456.295V201.839H454.975Z" fill="#EA0029"/>
<path d="M458.083 195.871C458.083 198.71 459.403 200.355 461.849 200.355C463.323 200.355 464.184 199.901 465.213 198.884L466.467 199.999C465.187 201.318 463.972 202 461.8 202C458.419 202 456.198 199.941 456.198 195.385C456.198 191.203 458.207 188.765 461.46 188.765C464.714 188.765 466.71 191.159 466.71 195.024V195.875H458.083V195.871ZM464.44 192.318C463.946 191.114 462.803 190.365 461.456 190.365C460.11 190.365 458.944 191.118 458.476 192.318C458.171 193.009 458.11 193.414 458.079 194.444H464.825C464.794 193.414 464.727 193.009 464.436 192.318H464.44Z" fill="#EA0029"/>
<path d="M475.248 191.381C474.528 190.677 474.012 190.44 473.032 190.44C471.16 190.44 469.954 191.943 469.954 193.913V201.835H468.091V188.911H469.954V190.507C470.656 189.415 472.087 188.76 473.557 188.76C474.771 188.76 475.716 189.067 476.63 189.968L475.248 191.377V191.381Z" fill="#EA0029"/>
<path d="M481.239 185.252V183.107H483.345V185.252H481.239ZM481.358 201.84V188.916H483.217V201.84H481.358Z" fill="#EA0029"/>
<path d="M490.399 202C488.241 202 486.545 201.505 485.146 200.132L486.382 198.884C487.411 199.941 488.775 200.364 490.377 200.364C492.474 200.364 493.785 199.606 493.785 198.082C493.785 196.958 493.123 196.33 491.644 196.178L489.534 196.018C487.053 195.799 485.733 194.671 485.733 192.549C485.733 190.196 487.693 188.765 490.417 188.765C492.24 188.765 493.887 189.21 495.031 190.169L493.816 191.386C492.889 190.682 491.733 190.37 490.404 190.37C488.528 190.37 487.539 191.163 487.539 192.491C487.539 193.606 488.161 194.27 489.781 194.395L491.834 194.582C494.059 194.774 495.596 195.648 495.596 198.055C495.596 200.462 493.49 202.005 490.404 202.005L490.399 202Z" fill="#EA0029"/>
<path d="M504.783 201.839C502.54 201.839 501.525 200.368 501.525 198.393V183.151H503.401V198.344C503.401 199.592 503.807 200.216 505.127 200.216H506.138V201.839H504.783Z" fill="#EA0029"/>
<path d="M507.644 185.252V183.107H509.749V185.252H507.644ZM507.732 201.84V188.916H509.608V201.84H507.732Z" fill="#EA0029"/>
<path d="M514.535 190.441V201.835H512.659V190.441H511.043V188.987H512.659V186.553C512.659 184.627 513.727 183.085 515.917 183.085H517.272V184.721H516.244C515.052 184.721 514.531 185.425 514.531 186.607V188.987H517.268V190.441H514.531H514.535Z" fill="#EA0029"/>
<path d="M519.506 195.871C519.506 198.71 520.826 200.355 523.268 200.355C524.742 200.355 525.612 199.901 526.627 198.884L527.899 199.999C526.596 201.318 525.418 202 523.21 202C519.82 202 517.63 199.941 517.63 195.385C517.63 191.203 519.625 188.765 522.884 188.765C526.142 188.765 528.142 191.159 528.142 195.024V195.875H519.506V195.871ZM525.877 192.318C525.373 191.114 524.239 190.365 522.884 190.365C521.528 190.365 520.389 191.118 519.89 192.318C519.586 193.009 519.55 193.414 519.502 194.444H526.256C526.199 193.414 526.137 193.009 525.872 192.318H525.877Z" fill="#EA0029"/>
<path d="M37.4099 182.256C35.7985 182.256 34.4211 181.605 33.3174 180.326C28.3816 174.611 30.1034 157.372 31.0747 150.221C35.8736 115.405 42.8357 98.0143 48.5308 86.8561C40.721 87.4891 35.3526 91.4567 29.3661 97.5908L29.1498 97.8137C29.1498 97.8137 28.8319 97.8137 28.8231 97.8137C28.4611 97.8137 28.3331 97.6934 27.0086 96.4318C26.4524 95.9013 25.8784 95.3485 25.6798 95.2103C24.4039 94.5104 20.8897 90.4269 20.3114 89.3659C18.8766 86.7847 18.6161 84.4131 19.53 82.3134C21.3135 78.221 27.1455 76.4512 29.5736 75.8761C33.7721 74.94 38.1472 74.3604 42.5973 74.1465C43.626 74.0974 44.6149 74.0796 45.5817 74.0796C55.9786 74.0796 64.1636 76.7722 70.5872 82.309L71.0728 82.728L70.1324 84.2928C68.3488 87.2707 67.2716 89.0717 61.0512 101.728C55.8064 113.417 52.0406 123.732 51.9081 126.612C52.4909 125.547 53.8992 123.006 55.3782 120.344C61.8812 108.633 75.4037 84.2705 90.0035 74.1598L90.9968 73.4688C98.2812 68.4001 106.537 62.6538 115.746 62.6538C117.914 62.6538 120.082 62.9748 122.192 63.6123C122.77 63.8709 123.927 64.5262 124.337 65.8324C124.638 66.7819 124.465 67.8162 123.834 68.9173C110.144 92.2591 93.7649 131.516 93.8311 138.265C94.171 137.596 94.6346 136.66 95.1114 135.693C97.0892 131.676 100.4 124.945 104.488 118.2C110.192 108.972 112.431 106.056 117.19 100.373V100.283L117.512 100.011C124.103 91.6038 131.101 85.0818 138.8 80.1736C141.71 78.3146 148.773 76.157 153.528 76.157C155.921 76.157 157.466 76.7187 158.106 77.8287C158.627 78.7381 158.504 79.8883 157.74 81.2658C156.658 83.205 153.811 88.0686 152.279 90.623C146.173 100.885 141.255 110.131 137.652 118.12C136.73 120.157 135.789 122.15 134.862 124.125C130.876 132.586 127.114 140.583 125.746 149.312C125.3 151.857 125.366 153.783 125.909 154.439C126.028 154.586 126.161 154.644 126.364 154.644C126.646 154.644 127.163 154.519 128.037 153.935C130.085 152.553 134.35 149.673 145.528 133.268C148.928 127.798 151.449 123.505 153.453 119.114L154.508 116.854C158.393 108.495 159.568 105.972 165.854 102.325C167.779 101.215 170.013 100.653 172.498 100.653C179.575 100.653 186.745 105.116 189.319 109.253C189.376 109.351 190.321 111.049 189.381 113.372C189.359 113.425 189.337 113.479 189.319 113.524C189.478 113.479 189.659 113.434 189.831 113.381C192.219 112.628 196.369 111.353 197.923 111.165C198.197 111.13 198.44 111.116 198.665 111.116C199.663 111.116 200.36 111.428 200.74 112.044C201.332 113.015 200.749 114.232 200.683 114.366L191.579 138.885C190.449 141.698 189.615 144.52 189.571 145.616C189.774 145.474 190.083 145.215 190.533 144.752C190.542 144.738 194.74 139.799 196.859 136.415L200.351 130.994C200.378 130.95 202.793 127.218 208.74 113.947C209.609 111.633 210.523 109.502 211.433 107.639C211.768 106.926 212.143 106.217 212.514 105.544L212.969 104.692C214.527 101.723 215.75 99.6192 217.287 99.5702C218.558 99.5211 219.984 99.4676 221.573 99.4676C228.589 99.4676 232.712 100.524 234.178 102.695L234.421 103.056L234.235 103.449C233.493 105.004 231.71 107.701 230.138 110.078C229.101 111.651 228.147 113.087 227.653 113.956C224.028 120.295 218.51 133.517 216.174 140.664C214.444 146.013 213.843 152.798 214.964 154.363C215.106 154.559 215.207 154.559 215.265 154.559C215.366 154.559 215.6 154.519 216.002 154.238C218.108 152.482 219.423 150.77 220.818 148.955C221.494 148.073 222.187 147.177 222.991 146.24C226.059 142.674 228.84 138.996 231.789 135.096C233.52 132.813 235.281 130.482 237.158 128.11C237.573 127.575 237.983 127.013 238.398 126.456C240.208 123.991 241.921 121.659 243.921 121.659C244.742 121.659 245.519 122.061 246.217 122.845L246.574 123.246L246.314 123.714C239.648 135.845 225.238 157.845 215.225 170.024C212.956 172.498 210.691 173.015 209.181 173.015C207.486 173.015 206.329 172.382 206.276 172.355C200.104 168.931 200.365 153.534 201.442 144.738C199.389 148.206 197.133 151.644 194.952 154.907C187.986 165.392 182.657 170.487 178.662 170.487C177.2 170.487 175.951 169.814 174.953 168.495C172.719 164.737 173.417 158.371 174.075 153.075C170.803 160.029 165.408 169.23 157.342 170.541C156.618 170.657 155.934 170.71 155.294 170.71C152.689 170.71 150.597 169.783 149.074 167.946C144.615 162.557 146.142 150.409 147.537 142.13C147.184 142.741 146.831 143.365 146.486 143.98C145.723 145.349 144.937 146.762 144.102 147.943C143.617 148.692 141.025 152.446 138.191 156.543C135.048 161.085 131.604 166.065 130.417 167.844C127.119 172.716 123.538 173.443 121.697 173.443C121.092 173.443 120.722 173.363 120.682 173.354C117.269 172.262 115.071 168.584 113.905 162.097C111.371 147.828 119.64 121.592 119.728 121.356C119.737 121.334 119.737 121.316 119.746 121.298C118.713 122.48 116.898 124.954 115.168 127.967C115.062 128.155 104.497 146.267 97.7205 162.423C93.9812 171.923 90.1359 177.611 86.9087 178.427C86.5025 178.529 86.1008 178.578 85.7167 178.578C80.7942 178.578 78.9046 170.893 78.2203 166.31C74.7945 143.245 81.0017 125.899 88.2375 108.7L90.7451 102.312C91.9725 99.0932 91.84 97.9876 91.6458 97.6131C91.5972 97.5061 91.5045 97.3947 91.2484 97.3278H91.2308C88.7011 97.3278 83.5578 103.382 80.7942 107.474L80.4719 107.951C67.2893 127.379 57.5767 145.977 51.6123 163.23C45.2374 181.708 38.2046 182.243 37.4232 182.243M179.531 111.415C178.595 111.415 176.503 112.966 173.426 117.326C166.38 127.321 157.903 146.954 160.654 154.96C160.68 154.96 160.707 154.96 160.737 154.96C163.029 154.96 169.699 144.533 173.704 138.265C174.724 136.674 175.69 135.162 176.564 133.825C178.516 130.825 180.07 119.912 180.083 119.805C181.054 113.688 180.33 112.048 179.977 111.629C179.849 111.477 179.717 111.41 179.531 111.41M280.732 182.131C270.308 182.131 258.764 178.186 258.062 169.529C257.355 160.484 264.905 154.804 270.975 150.239C272.591 149.027 274.118 147.877 275.385 146.753C279.191 110.55 286.674 85.3493 298.934 67.4684L299.084 67.25L299.34 67.1742C301.521 66.5189 304.174 66.1801 307.013 66.1801C312.236 66.1801 317.582 67.3481 321.313 69.314L322.001 69.6751L318.43 76.0589C307.896 94.8224 297.022 114.206 289.809 136.799C292.382 135.332 294.992 133.825 297.636 132.3C310.214 125.043 323.22 117.54 337.007 111.633C342.438 97.3055 345.788 78.5821 339.012 68.6453C334.999 62.7653 327.873 59.6581 318.403 59.6581C315.984 59.6581 313.401 59.8632 310.717 60.2644C303.322 61.3878 294.63 64.4994 287.469 68.5785C280.145 72.7199 271.575 78.6936 270.229 88.2425L270.074 89.3302L269.121 88.7908C264.808 86.3612 259.607 80.6863 258.375 73.9681C257.603 69.7375 258.618 65.7878 261.307 62.5513C267.585 54.946 282.25 49.6188 300.541 48.2948C303.243 48.0986 305.949 47.9961 308.58 47.9961C339.14 47.9961 358.521 60.6166 360.419 81.7606C360.891 86.9319 360.498 92.3661 360.008 99.2403L359.823 101.813C363.191 101.05 367.253 99.7663 371.191 98.5225C373.107 97.9163 374.992 97.3233 376.767 96.7929C379.275 96.0528 383.27 95.2549 386.109 95.2549C388.117 95.2549 389.367 95.6516 389.932 96.4674C390.188 96.833 390.418 97.4615 390.091 98.371L389.751 99.0753C387.667 103.306 384.828 109.07 382.802 112.908C378.524 121.013 368.622 141.243 369.09 154.029C369.138 154.684 369.363 154.679 369.544 154.679C372.03 154.679 380.334 146.526 383.204 138.439C387.014 125.961 390.656 116.827 394.943 106.966L395.04 106.747L395.239 106.627C397.124 105.464 399.856 104.822 402.951 104.822C407.044 104.822 410.787 105.945 412.73 107.759L413.176 108.17L412.871 108.696C411.432 111.17 410.35 113.417 409.309 115.592C408.571 117.13 407.847 118.641 407.017 120.193C402.201 129.233 398.726 139.094 394.996 151.117C394.762 152.08 394.868 152.348 394.872 152.361C396.704 152.219 407.949 138.693 412.62 130.615C413.202 129.612 414.001 128.337 414.836 127.009C416.222 124.802 417.794 122.306 418.487 120.839C420.182 117.241 421.123 114.152 422.429 109.881L423.25 107.202C428.517 90.3377 437.038 76.7677 441.647 70.1744L441.854 69.8802L442.212 69.8579C445.13 69.6617 447.784 69.4968 450.631 69.4968C454.653 69.4968 458.185 69.8445 461.43 70.5623L462.419 70.7807L461.924 71.6678C460.675 73.9236 459.2 76.0232 457.774 78.0605L456.353 80.1023C451.351 87.4802 446.207 95.5625 442.3 104.768C446.004 103.181 450.106 101.763 453.889 101.763C457.328 101.763 460.013 102.985 461.871 105.388C465.12 109.592 464.869 117.366 464.436 121.624C462.865 137.49 449.143 162.151 435.369 168.307C432.764 169.471 428.354 170.648 424.394 170.648C419.975 170.648 417.193 169.23 416.346 166.538C413.639 158.174 414.902 143.927 415.613 137.895C414.522 139.384 413.436 140.958 412.302 142.594C410.183 145.652 407.79 149.107 404.88 152.754L404.435 153.311C400.92 157.751 394.382 166.007 388.691 166.007C388.444 166.007 388.197 165.994 387.95 165.958C383.124 165.28 383.151 159.07 383.173 153.587C383.173 152.945 383.182 152.303 383.173 151.679C379.584 156.81 372.207 167.318 364.772 167.318C362.785 167.318 360.918 166.569 359.236 165.098C355.143 161.522 354.194 154.474 354.124 149.187C353.889 133.874 361.028 119.158 365.748 109.418L366.688 107.474C366.798 107.207 366.639 107.015 365.964 106.957C363.412 107.18 361.532 108.112 359.161 109.288L357.885 109.913C352.547 128.734 342.857 145.63 329.842 158.781C315.075 173.657 300.1 181.057 282.714 182.06C282.078 182.1 281.412 182.118 280.727 182.118M274.94 162.779C272.993 165.717 270.565 169.373 271.041 171.446C271.161 171.963 271.456 172.346 271.973 172.649C273.483 173.452 275.324 173.871 277.416 173.871C284.427 173.871 292.568 169.386 296.793 166.711C315.732 154.711 327.255 134.801 333.736 119.577C317.436 126.853 302.055 136.923 286.78 150.306C286.06 154.407 286.696 158.7 287.261 162.499L287.588 164.763L287.433 165C285.301 168.29 280.922 168.544 279.628 168.544L278.935 168.512L278.732 168.303C277.491 167.006 276.405 163.805 275.933 161.277C275.624 161.759 275.284 162.262 274.944 162.784M438.036 113.738C432.221 127.321 424.292 157.417 426.725 159.102C426.734 159.093 426.84 159.088 427.069 158.955C434.963 152.7 443.929 137.623 447.408 124.695C448.662 119.961 448.825 112.913 446.247 112.191C445.585 112.021 444.883 111.932 444.172 111.932C441.872 111.932 439.788 112.824 438.036 113.738ZM524.257 173.015C522.566 173.015 521.414 172.382 521.365 172.355C515.458 169.079 515.392 153.93 516.509 144.747C514.465 148.193 512.204 151.63 510.023 154.907C503.07 165.392 497.737 170.487 493.728 170.487C492.267 170.487 491.018 169.814 490.016 168.495C487.795 164.741 488.475 158.406 489.137 153.097C485.791 160.216 480.488 169.226 472.396 170.541C471.672 170.657 470.992 170.71 470.352 170.71C467.743 170.71 465.65 169.783 464.132 167.946C459.068 161.821 461.739 146.954 463.174 138.97L463.24 138.582C463.271 138.452 466.176 125.44 469.16 117.759C472.581 109.017 474.462 106.101 481.182 102.196C483.071 101.099 485.261 100.546 487.689 100.546C494.669 100.546 501.785 105.067 504.377 109.257C504.425 109.346 505.401 111.045 504.425 113.381C504.403 113.434 504.386 113.483 504.372 113.528C504.536 113.483 504.717 113.434 504.898 113.381C507.295 112.628 511.467 111.348 513.021 111.165C513.29 111.13 513.533 111.116 513.754 111.116C514.747 111.116 515.445 111.428 515.816 112.044C516.407 113.015 515.816 114.237 515.754 114.375L506.673 138.885C505.653 141.413 504.704 144.431 504.651 145.612C504.845 145.465 505.15 145.211 505.587 144.756C505.595 144.743 509.798 139.799 511.931 136.415L515.423 130.999C515.454 130.954 517.868 127.223 523.811 113.952C524.641 111.705 525.564 109.565 526.522 107.639C526.861 106.926 527.219 106.221 527.581 105.557L528.093 104.594C529.634 101.683 530.844 99.6237 532.349 99.5746C533.629 99.5256 535.055 99.4721 536.64 99.4721C543.655 99.4721 547.779 100.529 549.236 102.7L549.479 103.061L549.293 103.449C548.56 105.009 546.772 107.701 545.201 110.082C544.163 111.656 543.21 113.091 542.715 113.96C539.051 120.424 533.537 133.624 531.232 140.668C529.493 146.022 528.883 152.807 530 154.367C530.142 154.563 530.248 154.563 530.301 154.563C530.407 154.563 530.641 154.523 531.042 154.243C533.161 152.486 534.486 150.77 535.89 148.955C536.57 148.073 537.258 147.181 538.066 146.249C541.095 142.714 543.85 139.068 546.763 135.203C548.512 132.889 550.295 130.522 552.189 128.119C552.626 127.562 553.059 126.978 553.492 126.398C555.288 123.964 556.984 121.668 558.975 121.668C559.8 121.668 560.577 122.069 561.284 122.85L561.641 123.251L561.381 123.723C554.503 136.206 540.362 157.791 530.27 170.033C528.009 172.502 525.749 173.019 524.244 173.019M494.598 111.415C493.658 111.415 491.556 112.975 488.475 117.353C481.442 127.352 472.974 146.972 475.734 154.96C475.765 154.96 475.787 154.96 475.818 154.96C478.091 154.96 484.793 144.497 488.815 138.207C489.826 136.638 490.779 135.149 491.645 133.825C493.605 130.825 495.132 119.912 495.146 119.805C496.121 113.684 495.402 112.048 495.04 111.629C494.912 111.477 494.779 111.41 494.598 111.41M544.569 95.3084C544.017 95.3084 543.466 95.2415 542.931 95.1211C538.283 94.0245 535.386 90.7345 535.174 86.3077C534.949 81.5244 538.11 75.5329 545.695 72.9562C546.198 72.7779 548.286 72.3009 549.938 72.3009C550.242 72.3009 550.529 72.3187 550.799 72.3544C555.319 73.0899 557.686 76.1793 557.315 80.8289C556.798 87.3465 550.816 95.3084 544.574 95.3084M229.485 95.3084C228.933 95.3084 228.372 95.2415 227.842 95.1211C223.202 94.0245 220.306 90.7345 220.099 86.3211C219.869 81.5288 223.03 75.5418 230.606 72.9562C231.017 72.818 233.114 72.3009 234.853 72.3009C235.153 72.3009 235.445 72.3187 235.701 72.3544C240.226 73.0899 242.597 76.1837 242.226 80.8378C241.705 87.3554 235.727 95.3084 229.485 95.3084Z" fill="#EA0029"/>
<path d="M578.232 97.3268C580.077 99.1858 581 101.433 581 104.063C581 106.693 580.055 109.047 578.17 110.901C576.334 112.693 574.135 113.589 571.566 113.589C568.996 113.589 566.674 112.671 564.859 110.834C563.041 108.998 562.131 106.742 562.131 104.063C562.131 101.384 563.111 98.9673 565.076 97.1217C566.921 95.3965 569.084 94.5361 571.566 94.5361C574.047 94.5361 576.391 95.4678 578.236 97.3268H578.232ZM571.566 96.1633C569.398 96.1633 567.552 96.9568 566.025 98.5438C564.524 100.095 563.773 101.936 563.773 104.063C563.773 106.189 564.537 108.142 566.065 109.684C567.583 111.227 569.42 111.998 571.57 111.998C573.72 111.998 575.543 111.222 577.062 109.671C578.581 108.111 579.34 106.243 579.34 104.063C579.34 101.883 578.585 100.104 577.075 98.5438C575.548 96.9568 573.711 96.1633 571.57 96.1633H571.566ZM570.17 105.628V109.363H567.429V98.8024C568.078 98.8024 569.049 98.8024 570.343 98.8069C571.636 98.8069 572.356 98.8158 572.497 98.8247C573.327 98.8871 574.011 99.0654 574.559 99.3686C575.49 99.8857 575.954 100.724 575.954 101.887C575.954 102.774 575.707 103.416 575.217 103.813C574.727 104.21 574.122 104.446 573.407 104.522C574.064 104.66 574.559 104.865 574.89 105.128C575.504 105.628 575.813 106.417 575.813 107.495V108.44C575.813 108.543 575.821 108.646 575.83 108.753C575.843 108.855 575.866 108.958 575.901 109.065L575.989 109.363H573.38C573.292 109.029 573.239 108.539 573.212 107.901C573.186 107.264 573.133 106.831 573.044 106.608C572.908 106.238 572.652 105.98 572.276 105.833C572.073 105.748 571.76 105.69 571.34 105.663L570.74 105.623H570.166L570.17 105.628ZM571.23 103.728C571.87 103.728 572.369 103.599 572.727 103.341C573.084 103.082 573.265 102.663 573.265 102.088C573.265 101.513 572.983 101.112 572.422 100.884C572.047 100.737 571.517 100.666 570.833 100.666H570.166V103.728H571.23Z" fill="#EA0029"/>
</g>
<defs>
<clipPath id="clip0_471_5">
<rect width="562" height="154" fill="white" transform="translate(19 48)"/>
</clipPath>
</defs>
</svg>
