<svg width="600" height="250" viewBox="0 0 600 250" fill="none" xmlns="http://www.w3.org/2000/svg">
<g clip-path="url(#clip0_382_190)">
<path d="M90.0607 112.57C84.9398 117.9 85.4025 120.971 80.0004 123.044C78.6442 123.556 76.9796 124.114 74.8524 124.604C73.6005 120.739 70.4527 116.902 67.1234 116.902C64.8193 116.902 62.1523 118.104 59.0816 119.46C55.4757 121.048 52.1736 122.867 51.1213 123.556L52.532 125.447C53.6069 124.858 56.7048 123.32 59.8028 121.991C62.4924 120.839 64.9236 119.891 66.5565 119.891C69.1963 119.891 70.9108 122.889 71.8588 125.293C68.4025 126.114 62.7192 126.314 61.0047 126.314C60.211 126.314 59.9252 126.445 59.6485 126.677C59.39 126.908 59.1859 127.312 59.0589 127.879L58.8548 128.749H60.6963C70.2667 128.749 79.311 127.239 85.1213 123.706C85.9422 123.933 86.6589 124.087 87.5797 124.087C90.9044 124.087 94.3424 122.272 96.4879 120.608C97.2589 120.018 97.4358 119.483 97.4358 118.893C97.4358 118.612 97.4086 118.354 97.3814 118.095L97.2816 117.097C94.2109 119.528 91.6527 121.347 88.4777 121.347C87.9153 121.347 87.5025 121.297 87.1714 121.193C90.2693 116.226 93.0361 111.822 99.8216 108.239C99.105 107.803 98.0799 107.137 97.5447 106.778C94.9003 107.935 92.2878 110.239 90.0607 112.57Z" fill="#63513D"/>
<path d="M79.4879 114.054C77.3108 114.054 77.5149 110.339 77.3607 107.4C69.6816 108.139 64.8692 110.421 59.5896 113.26L60.2065 115.614C64.9917 112.748 69.6 111.11 74.4895 110.625C74.544 113.437 75.7459 117.206 78.9482 117.206C82.3772 117.206 86.5455 111.827 91.4396 105.527L92.7232 103.862C92.0565 103.35 91.3171 102.887 90.8545 102.456C85.838 108.91 81.4882 114.054 79.4879 114.054Z" fill="#63513D"/>
<path d="M66.0758 74.0627C64.8194 74.3167 63.8986 74.548 62.7964 74.548C62.0798 74.548 61.2588 74.4437 60.2882 74.2169C59.5443 74.0355 58.7505 73.8812 57.6302 73.8812C55.6073 73.8812 53.4301 74.6478 51.9424 76.0811C49.2255 78.6664 49.0758 81.4559 48.8944 83.937C48.6676 87.2435 48.0507 88.0645 46.2636 90.4685C44.8031 92.437 42.8029 95.0269 41.2698 97.7665C41.7596 97.9933 43.3698 98.8641 43.9323 99.1725C45.6967 96.5146 48.155 93.2353 49.7652 90.7497C51.2257 88.4999 51.8154 87.5248 51.9152 84.504C51.9424 83.9914 51.9424 83.5061 51.9923 83.0162C52.1238 81.4559 52.532 79.8684 54.0198 78.4079C55.1174 77.3012 56.7049 76.7433 58.297 76.7433C59.83 76.7433 60.7281 77.1787 62.0571 77.1787C63.0051 77.1787 63.699 76.9474 64.3068 76.7206L64.7967 76.5392L63.6174 79.3559L66.3797 80.4807C64.6153 81.5784 60.7463 86.3137 60.7463 91.9244C60.7463 93.9428 61.0547 95.8116 61.4901 97.4762C61.54 97.6531 61.6398 97.8345 61.921 97.8345C62.1796 97.8345 62.361 97.6803 62.3837 97.4036L62.4109 96.814C62.4925 95.0995 62.615 92.3871 63.3044 89.9559C64.4565 85.8601 67.5544 82.0184 70.6569 80.1723L66.2527 78.2537L68.1441 73.6182L66.0758 74.0627Z" fill="#63513D"/>
<path d="M79.3837 55.4023C77.7191 55.4023 77.261 57.0125 77.261 57.9106C77.261 58.6273 77.515 59.4754 78.4131 59.4754C79.1524 59.4754 80.0731 58.9402 80.7898 58.346C81.4838 57.7836 81.9419 57.3255 81.9419 56.8629C81.9419 56.432 81.5337 56.0192 80.9168 55.738C80.4904 55.5293 79.9507 55.4023 79.3837 55.4023Z" fill="#63513D"/>
<path d="M69.1965 87.915L67.9673 90.2736H81.0484L80.0777 87.915H69.1965Z" fill="#63513D"/>
<path d="M54.0651 66.2062C54.7546 65.7934 55.3442 65.2083 55.3442 64.5915C55.3442 64.3102 55.2217 64.029 54.936 63.7705C54.4507 63.3124 53.7839 63.0811 53.2215 63.0811C51.9379 63.0811 51.2756 64.283 51.2756 65.3852C51.2756 66.2289 51.6884 66.7142 52.4776 66.7142C52.9629 66.7187 53.5299 66.5101 54.0651 66.2062Z" fill="#63513D"/>
<path d="M130.157 113.187L131.409 114.058C131.585 114.185 131.717 114.262 131.871 114.262C132.13 114.262 132.307 114.008 132.307 113.804C132.307 113.677 132.252 113.546 132.103 113.419C128.361 110.012 124.342 105.867 120.577 101.871C117.634 98.7228 114.613 95.3981 111.95 92.0417C111.769 91.8104 111.619 91.7061 111.411 91.7061C111.107 91.7061 110.952 91.9102 110.952 92.1415C110.952 92.4998 111.206 92.9307 111.846 94.0102C113.787 97.3122 116.196 100.641 119.167 103.762C122.369 107.164 126.134 110.339 130.157 113.187Z" fill="#63513D"/>
<path d="M114.055 159.448H111.007C110.213 159.448 109.678 159.729 109.292 160.192C108.984 160.573 108.78 161.063 108.78 161.73V195.24C108.78 195.907 108.984 196.392 109.292 196.777C109.678 197.24 110.213 197.521 111.007 197.521H114.055C114.849 197.521 115.384 197.24 115.769 196.777C116.078 196.396 116.282 195.907 116.282 195.24V161.73C116.282 161.063 116.078 160.578 115.769 160.192C115.384 159.729 114.849 159.448 114.055 159.448Z" fill="#63513D"/>
<path d="M61.1318 80.363C61.1318 80.0319 60.9821 79.6963 60.5966 79.4423C60.1657 79.1338 59.6259 79.0068 59.1406 79.0068C58.0611 79.0068 57.6302 79.6464 57.4215 80.3131C57.3217 80.6216 57.2991 80.9255 57.2991 81.184C57.2991 82.1048 57.7073 82.7443 58.374 82.7443C59.2903 82.7443 61.1318 81.4652 61.1318 80.363Z" fill="#63513D"/>
<path d="M25.7213 111.805L25.9072 112.902C25.9798 113.365 26.1612 113.746 26.5422 113.927C27.0049 114.159 27.6716 114.186 28.8237 114.186C31.7402 114.186 33.8674 113.828 35.0966 113.519C38.2444 118.2 42.5715 119.996 46.7444 119.996C50.305 119.996 53.9109 118.69 57.3671 116.794L56.7231 114.463C53.3485 116.363 49.8423 117.615 46.7444 117.615C43.2882 117.615 40.213 116.127 37.6548 112.263C36.5798 110.63 35.7362 108.58 34.7066 106.761C33.4774 104.611 32.1484 103.459 29.8216 103.459C27.6943 103.459 25.6215 104.334 23.4216 105.278L23.5214 105.763C23.6983 106.557 24.0113 107.119 24.7551 107.119C25.0863 107.119 25.4219 106.965 25.5988 106.915C26.828 106.53 27.7215 106.199 28.9779 106.199C30.8965 106.199 31.8173 107.323 33.1236 110.09L33.6134 111.115C32.2799 111.569 29.1593 111.805 26.8325 111.805H25.7213Z" fill="#63513D"/>
<path d="M132.715 169.1C123.829 169.1 118.835 176.039 118.835 183.36C118.835 191.171 124.188 198.033 132.76 198.033C137.042 198.033 141.237 196.418 143.646 193.579C144.694 192.345 145.542 190.631 145.542 189.583C145.542 189.225 145.465 188.916 145.261 188.689C145.057 188.431 144.748 188.277 144.213 188.277H140.094C139.274 188.277 138.711 188.581 138.298 189.202C137.096 190.966 135.359 191.892 132.796 191.892C128.955 191.892 126.469 188.971 126.292 185.768H144.163C144.952 185.768 145.524 185.592 145.905 185.206C146.34 184.798 146.544 184.208 146.544 183.111C146.544 179.754 145.497 176.271 143.292 173.613C141.033 170.918 137.554 169.1 132.715 169.1ZM126.338 180.312C126.673 177.164 129.082 174.81 132.738 174.81C136.325 174.81 138.806 177.164 139.142 180.312H126.338Z" fill="#63513D"/>
<path d="M122.246 61.5207H122.659C122.659 61.6976 122.632 61.9062 122.632 62.0831C122.632 64.9769 124.12 67.1268 127.78 67.1268C130.03 67.1268 133.568 65.9974 136.892 64.8726C139.655 63.9246 142.19 62.954 143.446 62.5956V59.5204C142.013 59.9558 139.097 61.0807 136.076 62.1285C132.901 63.2306 129.776 64.233 127.957 64.233C125.961 64.233 125.399 63.1309 125.399 61.566C125.399 58.3411 127.422 53.7101 128.701 51.0703H125.603C123.993 54.1954 117.643 64.2058 114.214 68.3515L116.182 70.4788C118.019 68.4331 120.042 64.9497 122.246 61.5207Z" fill="#63513D"/>
<path d="M100.557 61.4712C97.9712 58.9856 96.0027 56.1689 94.7463 54.8127C91.9523 51.7647 88.3464 48 82.4091 48C76.6714 48 72.884 51.7375 71.6548 54.9669C71.292 55.8922 71.0153 57.0125 70.7568 57.4253C70.1943 58.346 67.6588 62.6731 66.6111 64.3876H71.3464L69.0422 68.742C71.7274 68.1478 73.646 67.7123 76.2087 67.7123C78.4857 67.7123 80.1276 68.2521 80.8442 69.6854C82.1778 72.3479 82.1778 80.4079 84.4275 86.4813C86.523 92.1918 91.6484 97.7753 97.4088 102.043L97.6628 102.125C97.944 102.125 98.1209 101.916 98.1209 101.712C98.1209 101.558 98.071 101.458 97.944 101.327C93.127 96.5143 89.2127 91.1894 87.1172 85.3519C85.0443 79.6686 85.3755 71.6811 83.5566 68.1206C82.3546 65.7665 79.7965 65.1497 77.4379 65.1497C75.5465 65.1497 73.7776 65.5352 72.9566 65.7121L75.034 62.2014H71.5233C72.2626 60.8951 73.0382 59.6931 73.4192 58.9765C73.7503 58.3596 73.8819 57.5931 74.2901 56.5453C75.6236 53.1889 78.5673 51.0616 82.4091 51.0616C87.2215 51.0616 90.0382 54.1595 92.8322 57.262C94.1113 58.6908 96.2159 61.6889 98.6425 63.9159C100.307 65.4535 103.478 67.1635 108.367 72.2118C111.188 75.1283 114.463 78.9202 117.919 83.9911C130.284 102.093 138.403 118.041 142.93 130.483L142.852 130.532C129.871 121.724 118.636 113.405 109.569 103.141C103.142 95.843 97.563 87.3975 92.6961 76.6115C92.365 75.8994 92.0793 75.2326 91.7709 74.5432C91.6484 74.262 91.5169 74.1849 91.3127 74.1849C91.0542 74.1849 90.8728 74.3617 90.8728 74.6157C90.8728 74.897 91.0043 75.5138 91.281 76.7385C93.8709 87.9009 101.037 97.9113 108.694 106.234C116.323 114.503 124.954 121.624 132.044 126.79L137.577 142.616C137.704 143.001 137.854 143.405 137.854 143.795C137.854 144.076 137.781 144.307 137.605 144.462C137.45 144.611 137.246 144.693 136.784 144.693H135.119C134.402 144.693 134.121 144.589 133.867 144.385C133.609 144.18 133.427 143.872 133.305 143.514C132.819 142.031 129.894 133.707 129.336 132.02C129.236 131.712 129.055 131.612 128.851 131.612C128.597 131.612 128.42 131.816 128.42 132.047C128.42 132.251 128.497 132.483 128.624 133.199C129.363 136.987 130.234 141.241 130.592 142.851C130.751 143.6 130.928 144.289 130.928 144.802C130.928 145.26 130.824 145.519 130.443 145.9L128.724 147.641C128.315 148.054 128.089 148.154 127.753 148.154C127.34 148.154 127.009 147.877 126.855 147.16C124.909 138.071 121.965 126.799 121.199 123.679C121.017 122.985 120.89 122.599 120.482 122.599C120.124 122.599 119.992 122.858 119.992 123.166C119.992 123.398 120.042 123.679 120.074 123.883C120.532 127.108 122.401 138.865 124.424 149.592C124.782 151.438 125.471 152.458 127.063 152.458C127.78 152.458 128.47 152.177 129.109 151.556C130.157 150.508 130.465 150.227 131.722 148.997C132.62 148.127 133.232 147.768 134.765 147.768H138.557C139.451 147.768 139.94 147.541 140.371 147.129C140.784 146.743 141.038 146.208 141.038 145.441C141.038 144.652 140.834 144.008 140.553 143.214C139.582 140.606 136.457 131.775 135.541 129.29L135.613 129.24C138.816 131.671 143.474 134.769 145.524 134.769C146.159 134.769 146.544 134.488 146.544 133.49C146.544 128.777 138.711 109.4 120.813 82.7211C111.288 68.5106 102.915 63.7209 100.557 61.4712Z" fill="#63513D"/>
<path d="M123.036 79.2374C126.265 77.9038 129.154 77.0375 131.762 77.0375C135.423 77.0375 138.421 77.0375 143.437 75.8582V73.5042C140.621 74.0167 137.627 74.629 135.681 74.629C134.529 74.629 134.194 74.4748 134.194 74.0938C134.194 73.867 134.348 73.7083 134.783 73.5314C137.854 72.2251 143.36 70.0207 146.535 68.8686V65.748C140.158 68.1021 128.973 72.7331 121.344 76.8833C121.552 77.1328 122.886 79.006 123.036 79.2374Z" fill="#63513D"/>
<path d="M35.5548 78.8245C31.9489 83.0972 30.053 86.558 26.9006 94.237C27.4132 94.1826 28.157 94.1327 28.978 94.1327C29.3908 94.1327 29.7219 94.1327 30.2571 94.1599L30.6381 93.3389C32.407 89.547 34.7883 84.4307 38.1175 80.4891L39.2696 79.133C42.7032 75.1097 44.8259 72.7285 46.1594 67.2538C46.6221 65.308 47.0031 63.5663 48.3093 62.3144C49.4886 61.1895 50.9764 60.6997 52.4822 60.6997C53.7613 60.6997 54.7138 61.0081 56.0927 61.5932C57.3445 62.1284 57.8072 62.2328 59.1407 62.2328C59.5988 62.2328 59.9299 62.2056 60.2384 62.1829L58.4467 64.5914L60.8779 66.3059C57.8299 67.1994 56.2151 70.1476 55.6799 71.5038C55.5801 71.785 55.5257 71.9619 55.5257 72.1434C55.5257 72.3475 55.63 72.5516 55.9339 72.5516C56.2696 72.5516 56.5236 72.2976 56.959 71.785C58.4467 69.9889 59.626 68.7642 65.1007 67.0497L61.2317 64.1287L64.1527 59.856H61.4131C59.6759 59.856 58.5238 59.8288 57.0089 59.1394C54.9587 58.1914 53.911 57.7832 52.0922 57.7832C49.8651 57.7832 47.8422 58.577 46.1775 60.11C44.2589 61.879 43.6647 64.2376 42.9753 66.8184C42.4401 68.8187 41.796 71.0185 40.3673 73.0414C39.1653 74.756 38.299 75.5996 35.5548 78.8245Z" fill="#63513D"/>
<path d="M13.384 69.2227C7.11111 69.2227 4.44863 72.2436 4.44863 74.2665C2.5799 75.0376 1.37793 77.1104 1.37793 79.029C1.37793 82.8436 4.16741 85.5605 7.85497 85.5605C9.08416 85.5605 10.3406 85.0706 11.2114 84.4084C11.851 84.6352 12.6674 84.7622 13.511 84.7622C15.28 84.7622 17.2485 84.1453 18.6364 82.1269C18.8405 82.1542 19.022 82.1542 19.2261 82.1542C21.4758 82.1542 23.4262 80.6664 24.4467 78.7206C24.7007 78.2398 24.805 77.8497 24.805 77.5731C24.805 77.2918 24.678 77.0605 24.3968 77.0605C24.0385 77.0605 23.9841 77.3962 23.3445 77.9813C21.9112 79.2876 19.7114 79.7774 17.4571 79.7774C16.355 81.3876 14.9988 82.2358 13.4385 82.2358C12.2864 82.2358 11.3929 81.9274 10.4676 81.315C9.7237 82.136 8.80294 82.4671 7.9094 82.4671C5.88646 82.4671 4.45316 81.0565 4.45316 79.0064C4.45316 77.5731 5.37392 76.294 6.653 75.8041C6.87979 73.2686 9.59216 71.5541 12.9758 71.5541C13.4113 71.5541 13.8467 71.5768 14.3093 71.6312C14.8219 70.8148 16.0511 69.9439 17.7928 69.7126C18.1511 69.6627 18.4278 69.6355 18.6364 69.5357C18.8405 69.4314 18.9403 69.2273 18.9403 69.0005C18.9403 68.7964 18.8632 68.615 18.6637 68.488C18.4868 68.3836 18.1738 68.3337 17.82 68.2612C16.2053 67.9527 14.2867 66.9549 13.3115 64.5237C9.44248 64.5237 6.60764 61.4213 6.60764 57.9424V57.7065C5.32403 57.194 4.4577 55.9648 4.4577 54.5088C4.4577 52.5856 5.9681 51.0526 7.88672 51.0526C9.0388 51.0526 10.0367 51.615 10.6807 52.4586C11.216 52.3044 11.8283 52.2545 12.4179 52.2545C15.2845 52.2545 18.3598 54.0734 18.9449 57.6067C22.6324 57.9424 23.5033 61.0629 23.7391 62.3692C23.8616 63.036 23.9659 63.5984 24.4059 63.5984C24.864 63.5984 24.9683 63.0859 25.1225 62.3965C25.4038 61.0856 25.8891 60.0379 26.8643 59.2214C26.8643 55.8695 29.3725 52.9757 32.9331 52.9757C33.4683 51.7964 34.6476 50.98 36.0537 50.98C37.9768 50.98 39.5099 52.4632 39.5099 54.4362C39.5099 55.5883 38.9747 56.5862 38.1265 57.1985C38.308 57.8652 38.4304 58.4549 38.4304 59.0173C38.4304 61.1718 37.1513 62.6777 34.7973 63.4714C34.4889 64.7823 33.9264 65.957 33.0057 66.8279C31.4681 68.3156 29.9078 68.3156 29.9078 68.9279C29.9078 69.259 30.1345 69.4677 30.7786 69.4677C33.6225 69.4677 36.412 67.8756 36.7431 65.2404C39.46 64.3196 41.0974 61.5755 41.0974 59.4029C41.0974 58.8404 41.0475 58.3551 40.8162 57.8925C41.5601 57.1803 42.431 55.9512 42.431 54.1323C42.431 52.5448 41.737 50.9346 40.5123 49.7508C39.4192 48.694 37.9088 48 36.1444 48C33.5863 48 31.9216 49.3834 30.9691 50.7396C28.1796 50.7396 24.5737 53.8375 24.5737 58.2689H24.1882C23.9342 56.7313 22.3421 55.7108 21.0177 55.6291C19.9382 52.4042 17.507 49.6419 13.511 49.6419C13.0529 49.6419 12.4905 49.6692 12.0006 49.7417C10.8213 48.6668 9.51959 48 7.70076 48C4.21731 48 1.37793 50.7895 1.37793 54.3228C1.37793 56.5272 2.37579 58.0331 4.27173 59.3711L4.24452 59.7839C4.24452 62.596 7.31522 67.0002 11.8736 67.0002C11.8736 67.7169 12.7672 68.6921 13.7696 68.869V69.2273H13.384V69.2227Z" fill="#63513D"/>
<path d="M82.2549 181.156L76.4446 179.669C74.0361 179.056 72.9113 178.616 72.9113 177.138C72.9113 175.7 74.1949 174.548 77.1613 174.548C78.903 174.548 80.4905 174.933 81.5156 176.008C82.3592 176.902 82.205 177.364 82.8718 177.723C83.2845 177.927 83.7426 177.927 84.4593 177.927H87.3531C87.8157 177.927 88.1468 177.85 88.4008 177.568C88.6095 177.337 88.7319 176.979 88.7319 176.389C88.7319 175.056 87.8656 173.341 86.328 172.035C84.2778 170.27 81.0529 169.096 77.1613 169.096C70.149 169.096 65.5407 172.425 65.5407 177.745C65.5407 179.641 66.2301 181.174 67.355 182.376C68.6613 183.787 70.53 184.762 73.2424 185.452L79.1071 186.93C80.7173 187.343 82.1551 187.833 82.1551 189.234C82.1551 191.412 79.851 192.151 77.3881 192.151C76.1861 192.151 74.9342 191.924 73.9091 191.412C73.1925 191.053 72.5802 190.545 72.1402 189.851C71.7592 189.262 71.6277 188.826 71.0425 188.495C70.6842 188.286 70.2488 188.264 69.6591 188.264H66.4841C65.7947 188.264 65.4636 188.468 65.2323 188.749C65.0009 189.03 64.9238 189.439 64.9238 189.851C64.9238 190.872 65.2821 192.151 66.1258 193.307C68.0716 195.916 72.1402 198.02 77.3382 198.02C82.459 198.02 89.5484 195.893 89.5484 189.03C89.5484 187.261 89.0358 185.751 88.0924 184.522C86.8859 182.975 85.1714 181.905 82.2549 181.156Z" fill="#63513D"/>
<path d="M23.78 69.5811C25.1362 71.5542 27.4132 75.3687 29.5676 80.4397C29.9486 79.7956 31.1007 78.2399 31.5634 77.75C29.5903 73.754 26.3654 69.9395 24.9548 68.4336L23.78 69.5811Z" fill="#63513D"/>
<path d="M87.04 98.7959C85.5069 99.4627 81.9736 100.737 78.4675 100.737C76.7212 100.737 75.2652 100.588 73.6505 100.379C71.6548 100.125 69.7588 99.8936 68.1486 99.8936C65.4589 99.8936 62.1297 100.152 58.9048 102.429L60.3154 104.275C62.5152 103.227 66.0758 102.715 67.8402 102.715C69.4549 102.715 71.115 102.892 72.6526 103.096C74.3944 103.327 76.4173 103.581 78.54 103.581C83.357 103.581 88.0696 101.023 88.8089 100.56C88.2193 100.048 87.4754 99.3311 87.04 98.7959Z" fill="#63513D"/>
<path d="M55.8068 102.307L54.3236 100.384C48.5859 102.588 42.2131 106.144 42.2131 109.782C42.2131 111.855 43.7508 113.492 47.2025 113.492C52.2734 113.492 57.6755 110.934 62.0071 108.553L61.3903 107.709C61.0319 107.192 60.7235 107.042 60.2382 107.042C59.9298 107.042 59.5941 107.165 59.3174 107.296C55.6072 109.115 51.584 110.934 47.8465 110.934C45.692 110.934 45.1568 110.272 45.1568 109.342C45.1568 106.734 52.2734 103.708 55.8068 102.307Z" fill="#63513D"/>
<path d="M105.088 170.075H100.457V161.729C100.457 161.062 100.248 160.577 99.9442 160.191C99.5587 159.733 99.0189 159.452 98.2297 159.452H95.3359C94.5467 159.452 94.0069 159.733 93.6214 160.191C93.3175 160.577 93.1089 161.062 93.1089 161.729V170.075H91.6756C91.1403 170.075 90.7276 170.229 90.4192 170.483C90.0835 170.792 89.9338 171.2 89.9338 171.812V173.576C89.9338 174.193 90.0835 174.606 90.4192 174.905C90.7276 175.164 91.1358 175.318 91.6756 175.318H93.1089V188.091C93.1089 191.366 94.0069 193.416 95.6716 195.053C97.2046 196.564 99.2049 197.512 102.684 197.512H104.861C105.396 197.512 105.804 197.357 106.113 197.099C106.448 196.795 106.648 196.387 106.648 195.77V193.543C106.648 192.93 106.444 192.518 106.113 192.214C105.804 191.955 105.396 191.801 104.861 191.801H104.553C103.169 191.801 102.221 191.443 101.577 190.826C100.811 190.109 100.425 189.012 100.425 187.574V175.314H105.088C105.623 175.314 106.036 175.159 106.34 174.901C106.675 174.597 106.825 174.184 106.825 173.572V171.808C106.825 171.191 106.671 170.782 106.34 170.479C106.04 170.229 105.628 170.075 105.088 170.075Z" fill="#63513D"/>
<path d="M144.009 165.181C144.544 165.181 144.952 165.027 145.261 164.768C145.596 164.465 145.746 164.052 145.746 163.439V161.058C145.746 160.133 145.569 159.67 145.261 159.339C144.984 159.035 144.517 158.858 144.009 158.858C143.596 158.858 143.188 158.908 142.499 158.981L122.065 161.004C121.48 161.058 121.194 161.235 120.99 161.466C120.754 161.725 120.659 162.052 120.659 162.514V163.848C120.659 164.36 120.759 164.587 120.94 164.796C121.167 165.05 121.503 165.177 121.961 165.177H144.009V165.181Z" fill="#63513D"/>
<path d="M27.98 140.525C26.2655 141.527 24.1382 141.99 22.2695 141.99C21.4757 141.99 21.1174 142.144 20.8362 142.425C20.5278 142.729 20.3735 143.192 20.3735 143.831V144.725H21.0131C24.4421 144.725 27.6171 144.189 31.1006 141.45L42.4399 132.587C44.0547 134.433 48.1232 136.991 52.9356 136.991C55.6526 136.991 57.3897 136.329 59.898 135.689C61.8438 135.204 63.7398 134.764 67.8855 134.764H79.8916C86.0375 134.764 89.0084 133.485 92.2832 131.644C99.4043 127.648 105.469 120.889 108.902 113.133C108.004 112.566 107.16 112.054 106.444 111.568C102.602 119.66 96.7645 125.552 90.7728 128.954C87.9334 130.569 85.3708 131.616 79.8417 131.616H67.8855C63.6128 131.616 60.9231 132.179 58.8276 132.714C56.5733 133.304 55.1355 133.893 52.8631 133.893C49.4839 133.893 46.3543 132.229 44.8439 130.641L47.6651 128.414L46.259 126.545C45.4381 127.135 35.4277 134.533 33.3276 136.197L33.2052 136.12C33.255 135.608 33.255 135.15 33.255 134.692C33.255 129.058 30.6425 127.702 26.6737 126.114L23.984 127.707C29.436 129.521 30.7921 130.981 30.7921 135.054C30.7921 138.275 29.6446 139.554 27.98 140.525Z" fill="#63513D"/>
<path d="M2.40301 136.61C4.32163 136.61 4.54841 135.458 4.54841 134.356C4.54841 133.617 4.52574 132.769 4.52574 131.848C4.54842 129.725 4.63006 127.829 8.05908 126.292C9.44248 125.679 16.2234 122.912 21.2717 120.762C22.7594 120.123 24.1383 119.588 25.6759 119.588C27.3904 119.588 29.3635 120.327 31.8173 121.792C33.8947 123.021 36.0718 124.686 37.7864 126.605L39.959 124.94C38.0902 122.74 35.5049 120.767 32.9195 119.234C30.3341 117.701 28.03 116.798 26.0841 116.798C25.2405 116.798 24.542 116.952 23.9569 117.107C23.2629 117.288 22.6234 117.492 21.8024 117.492C20.859 117.492 20.0607 117.265 18.9086 115.932C18.4777 115.447 15.7063 112.299 15.1212 111.378C14.8355 110.943 14.3275 110.067 14.3275 109.047C14.3275 108.611 14.4046 108.099 14.6586 107.641C17.0399 109.487 19.9881 110.611 23.5713 111.047L23.0815 108.616C17.9379 107.26 12.4542 102.728 12.4542 99.8073C12.4542 99.1905 12.6084 98.7596 12.8352 98.2153C14.8309 100.061 19.5209 101.984 22.0519 101.984C23.4353 101.984 24.5647 101.522 25.6351 101.086C26.6602 100.678 27.6852 100.275 29.0641 100.275C32.3435 100.275 36.3848 101.857 39.9454 103.368C40.154 103.445 40.3808 103.499 40.6076 103.499C41.1745 103.499 41.61 103.241 41.8912 102.701L42.3538 101.857C38.4395 99.5805 32.1892 97.1448 28.9326 97.1448C27.4494 97.1448 26.3744 97.5304 25.3493 97.9386C24.1973 98.3967 23.1994 98.882 22.1471 98.882C19.5617 98.882 12.9305 96.3239 12.9305 93.8383C12.9305 90.9173 23.4761 89.7924 24.6327 89.7924L25.6805 87.4111C18.0286 87.4111 8.9118 90.0963 8.9118 93.6569C8.9118 94.6819 9.50145 95.1899 9.50145 96.1379C9.50145 97.4215 8.9118 98.2924 8.9118 99.7211C8.9118 100.669 9.47877 101.871 10.141 102.923C10.8576 104.026 11.7058 104.742 11.7058 105.668C11.7058 106.357 11.2432 107.173 11.2432 108.788C11.2432 112.244 13.2162 114.344 17.0535 118.463L17.82 119.284C14.645 120.513 8.73037 123.071 7.34697 123.661C2.5799 125.652 1.37793 128.088 1.37793 131.929C1.37793 133.413 1.37793 135.1 1.47772 136.61H2.40301Z" fill="#63513D"/>
<path d="M486.095 175.872C484.494 174.892 482.652 174.402 480.57 174.402C478.493 174.402 476.651 174.892 475.046 175.872C473.44 176.852 472.197 178.231 471.304 180.013C470.41 181.796 469.966 183.841 469.966 186.159C469.966 188.477 470.401 190.531 471.281 192.328C472.156 194.124 473.399 195.512 475 196.491C476.601 197.471 478.443 197.961 480.525 197.961C482.634 197.961 484.489 197.462 486.09 196.469C487.696 195.475 488.934 194.087 489.809 192.305C490.685 190.522 491.125 188.459 491.125 186.114C491.125 183.796 490.685 181.755 489.809 179.99C488.939 178.226 487.7 176.852 486.095 175.872ZM487.274 191.085C486.634 192.527 485.732 193.648 484.557 194.446C483.382 195.249 482.04 195.648 480.525 195.648C479.01 195.648 477.676 195.253 476.515 194.468C475.359 193.684 474.46 192.568 473.821 191.13C473.181 189.692 472.864 188.032 472.864 186.164C472.864 184.322 473.181 182.685 473.821 181.242C474.46 179.8 475.359 178.689 476.515 177.904C477.672 177.115 479.01 176.725 480.525 176.725C482.04 176.725 483.382 177.11 484.557 177.881C485.732 178.652 486.634 179.75 487.274 181.179C487.914 182.603 488.231 184.236 488.231 186.077C488.236 187.973 487.914 189.642 487.274 191.085Z" fill="#63513D"/>
<path d="M460.84 175.872C459.239 174.892 457.397 174.402 455.315 174.402C453.238 174.402 451.396 174.892 449.791 175.872C448.185 176.852 446.942 178.231 446.049 180.013C445.155 181.796 444.711 183.841 444.711 186.159C444.711 188.477 445.151 190.531 446.026 192.328C446.901 194.124 448.14 195.512 449.745 196.491C451.351 197.471 453.188 197.961 455.27 197.961C457.379 197.961 459.234 197.462 460.835 196.469C462.441 195.475 463.679 194.087 464.555 192.305C465.43 190.522 465.87 188.459 465.87 186.114C465.87 183.796 465.43 181.755 464.555 179.99C463.684 178.226 462.445 176.852 460.84 175.872ZM462.024 191.085C461.384 192.527 460.481 193.648 459.307 194.446C458.132 195.249 456.789 195.648 455.274 195.648C453.76 195.648 452.426 195.253 451.265 194.468C450.108 193.684 449.21 192.568 448.571 191.13C447.931 189.692 447.614 188.032 447.614 186.164C447.614 184.322 447.931 182.685 448.571 181.242C449.21 179.8 450.108 178.689 451.265 177.904C452.421 177.115 453.76 176.725 455.274 176.725C456.789 176.725 458.132 177.11 459.307 177.881C460.481 178.652 461.384 179.75 462.024 181.179C462.663 182.603 462.981 184.236 462.981 186.077C462.981 187.973 462.659 189.642 462.024 191.085Z" fill="#63513D"/>
<path d="M513.178 179.124C512.434 177.668 511.345 176.52 509.903 175.672C508.461 174.824 506.869 174.402 505.113 174.402C503.181 174.402 501.467 174.892 499.97 175.872C498.468 176.851 497.303 178.226 496.473 179.99C495.643 181.754 495.225 183.8 495.225 186.113C495.225 188.431 495.643 190.486 496.473 192.282C497.303 194.078 498.477 195.475 499.992 196.468C501.507 197.462 503.258 197.961 505.249 197.961C507.032 197.961 508.633 197.539 510.062 196.691C511.486 195.842 512.556 194.681 513.268 193.194L513.536 197.425H515.895V165.131H513.178V179.124ZM512.221 191.152C511.581 192.577 510.683 193.683 509.527 194.473C508.37 195.257 507.045 195.652 505.562 195.652C503.276 195.652 501.466 194.79 500.128 193.067C498.79 191.343 498.124 189.043 498.124 186.163C498.124 183.256 498.809 180.952 500.174 179.26C501.539 177.568 503.349 176.72 505.608 176.72C507.123 176.72 508.452 177.119 509.595 177.922C510.738 178.724 511.622 179.836 512.243 181.265C512.865 182.689 513.178 184.34 513.178 186.208C513.178 188.077 512.856 189.724 512.221 191.152Z" fill="#63513D"/>
<path d="M390.01 203H392.413L395.842 193.066H392.282L390.01 203Z" fill="#63513D"/>
<path d="M421.066 168.859C422.876 167.685 424.971 167.099 427.348 167.099C431.326 167.099 434.428 168.868 436.655 172.402L438.837 170.755C437.531 168.737 435.902 167.208 433.961 166.17C432.015 165.131 429.811 164.609 427.348 164.609C424.409 164.609 421.801 165.321 419.533 166.746C417.26 168.17 415.496 170.152 414.231 172.692C412.97 175.232 412.339 178.103 412.339 181.31C412.339 184.517 413.006 187.383 414.344 189.905C415.682 192.432 417.551 194.405 419.955 195.829C422.359 197.253 425.107 197.965 428.196 197.965C431.965 197.965 435.499 196.986 438.796 195.026V181.038H427.126V183.442H435.902V193.552C433.675 194.831 431.153 195.466 428.332 195.466C425.81 195.466 423.565 194.863 421.606 193.661C419.646 192.459 418.118 190.767 417.02 188.581C415.922 186.399 415.374 183.913 415.374 181.119C415.374 178.357 415.872 175.917 416.866 173.794C417.85 171.681 419.256 170.03 421.066 168.859Z" fill="#63513D"/>
<path d="M545.155 186.186V197.43H547.872V186.186V174.938H545.155V186.186Z" fill="#63513D"/>
<path d="M585.568 185.229C585.568 181.904 584.715 179.269 583.005 177.323C581.295 175.377 578.991 174.406 576.079 174.406C574.002 174.406 572.174 174.892 570.6 175.853C569.026 176.819 567.811 178.185 566.949 179.949C566.087 181.718 565.656 183.759 565.656 186.072C565.656 188.417 566.101 190.49 566.994 192.286C567.883 194.082 569.149 195.479 570.782 196.473C572.415 197.466 574.301 197.965 576.438 197.965C578.306 197.965 580.03 197.579 581.604 196.808C583.178 196.037 584.452 194.953 585.432 193.556L583.563 191.951C582.643 193.166 581.581 194.087 580.379 194.713C579.177 195.339 577.862 195.647 576.438 195.647C574.034 195.647 572.111 194.822 570.668 193.175C569.226 191.529 568.491 189.265 568.464 186.381H585.523C585.55 186.118 585.568 185.732 585.568 185.229ZM568.595 184.067C568.89 181.722 569.689 179.913 570.977 178.634C572.269 177.354 573.952 176.719 576.034 176.719C578.111 176.719 579.744 177.364 580.933 178.656C582.121 179.949 582.742 181.754 582.801 184.067H568.595Z" fill="#63513D"/>
<path d="M557.782 166.342C556.639 167.499 556.068 169.105 556.068 171.155V174.942H552.194V177.26H556.068V197.435H558.785V177.26H564.395V174.942H558.785V171.336C558.785 169.971 559.148 168.91 559.878 168.152C560.604 167.395 561.624 167.018 562.93 167.018C563.702 167.018 564.518 167.168 565.38 167.463V165.014C564.577 164.746 563.629 164.614 562.527 164.614C560.508 164.605 558.925 165.186 557.782 166.342Z" fill="#63513D"/>
<path d="M382.231 179.124C381.487 177.668 380.398 176.52 378.956 175.672C377.514 174.824 375.922 174.402 374.166 174.402C372.234 174.402 370.519 174.892 369.023 175.872C367.521 176.851 366.356 178.226 365.526 179.99C364.696 181.754 364.278 183.8 364.278 186.113C364.278 188.431 364.696 190.486 365.526 192.282C366.356 194.078 367.53 195.475 369.045 196.468C370.56 197.462 372.311 197.961 374.302 197.961C376.085 197.961 377.686 197.539 379.115 196.691C380.539 195.842 381.609 194.681 382.321 193.194L382.589 197.425H384.948V165.131H382.231V179.124ZM381.274 191.152C380.634 192.577 379.736 193.683 378.58 194.473C377.423 195.257 376.098 195.652 374.615 195.652C372.329 195.652 370.52 194.79 369.181 193.067C367.843 191.343 367.177 189.043 367.177 186.163C367.177 183.256 367.857 180.952 369.227 179.26C370.592 177.568 372.402 176.72 374.661 176.72C376.176 176.72 377.505 177.119 378.648 177.922C379.791 178.724 380.675 179.836 381.296 181.265C381.918 182.689 382.231 184.34 382.231 186.208C382.231 188.077 381.913 189.724 381.274 191.152Z" fill="#63513D"/>
<path d="M34.6612 56.8584C34.6612 56.6543 34.4798 56.4502 34.2304 56.4502C33.9945 56.4502 33.872 56.6044 33.6407 56.7858C32.6655 57.6295 31.7947 58.4731 30.8784 59.5254C29.5721 60.9859 28.4745 62.9272 27.5764 65.0545L28.9553 65.8982C29.9033 64.4875 32.9513 59.6751 34.5116 57.244C34.6068 57.0943 34.6612 56.9627 34.6612 56.8584Z" fill="#63513D"/>
<path d="M535.226 181.283V197.431H537.943V181.283V165.141H535.226V181.283Z" fill="#63513D"/>
<path d="M546.447 166.165C545.88 166.165 545.422 166.337 545.068 166.678C544.71 167.018 544.533 167.471 544.533 168.038C544.533 168.574 544.71 169.027 545.068 169.395C545.427 169.766 545.885 169.952 546.447 169.952C547.01 169.952 547.495 169.766 547.894 169.395C548.293 169.023 548.497 168.569 548.497 168.038C548.497 167.476 548.302 167.022 547.917 166.678C547.531 166.333 547.041 166.165 546.447 166.165Z" fill="#63513D"/>
<path d="M87.988 164.773C88.3191 164.469 88.4733 164.056 88.4733 163.444V161.185C88.4733 160.573 88.3191 160.16 87.988 159.856C87.6795 159.598 87.2713 159.448 86.7361 159.448H28.3611C27.3859 159.448 26.7736 159.779 26.3381 160.292C25.9798 160.732 25.7757 161.212 25.7757 162.056V185.306H25.6442C25.6442 185.306 12.9214 162.623 12.3045 161.575C11.8691 160.827 11.3838 160.319 10.7442 159.933C10.1047 159.575 9.43795 159.344 8.15887 159.344H3.9633C2.98812 159.344 2.37579 159.675 1.94036 160.187C1.58204 160.623 1.37793 161.113 1.37793 161.956V194.904C1.37793 195.748 1.58204 196.237 1.94036 196.673C2.37579 197.185 2.98812 197.517 3.9633 197.517H6.34457C7.31976 197.517 7.93208 197.185 8.36751 196.673C8.72584 196.237 8.92994 195.748 8.92994 194.904V171.1H9.06148C9.06148 171.1 22.2741 194.5 22.8093 195.371C23.5532 196.596 24.805 197.521 26.6012 197.521H30.6743C31.645 197.521 32.2573 197.19 32.6927 196.677C33.0556 196.242 33.2551 195.752 33.2551 194.909V165.186H86.7406C87.2713 165.181 87.6795 165.027 87.988 164.773Z" fill="#63513D"/>
<path d="M49.6882 169.1C40.8027 169.1 35.8088 176.039 35.8088 183.36C35.8088 191.171 41.161 198.033 49.7336 198.033C54.0108 198.033 58.2063 196.418 60.6148 193.579C61.6671 192.345 62.5153 190.631 62.5153 189.583C62.5153 189.225 62.4382 188.916 62.2341 188.689C62.03 188.431 61.7215 188.277 61.1863 188.277H57.0633C56.2469 188.277 55.6799 188.581 55.2717 189.202C54.0697 190.966 52.3235 191.892 49.7653 191.892C45.9281 191.892 43.4425 188.971 43.2656 185.768H61.0865C61.8803 185.768 62.4427 185.592 62.8237 185.206C63.2637 184.798 63.4678 184.208 63.4678 183.111C63.4678 179.754 62.42 176.271 60.2157 173.613C57.9614 170.918 54.5233 169.1 49.6882 169.1ZM43.311 180.312C43.6466 177.164 46.0505 174.81 49.7109 174.81C53.2987 174.81 55.7797 177.164 56.1108 180.312H43.311Z" fill="#63513D"/>
<path d="M10.5173 77.573C10.5173 77.7544 10.6443 77.9812 10.9256 77.9812C11.1024 77.9812 11.2567 77.9086 11.5923 77.7771L20.9586 74.6021L20.5005 73.0645C16.6859 73.704 13.9191 74.6792 10.7713 77.133C10.5899 77.2918 10.5173 77.3961 10.5173 77.573Z" fill="#63513D"/>
<path d="M16.2007 59.2938C14.7674 58.1916 13.1572 57.298 11.2613 56.5224L10.9302 56.4453C10.649 56.4453 10.522 56.6494 10.522 56.8309C10.522 56.9851 10.5719 57.1121 10.8032 57.3162C13.0302 59.2076 17.3347 62.8226 18.6636 63.9202L19.7341 62.691C18.582 61.3394 17.3982 60.2145 16.2007 59.2938Z" fill="#63513D"/>
<path d="M187.23 168.859C189.04 167.685 191.135 167.099 193.512 167.099C197.49 167.099 200.592 168.868 202.819 172.402L205.001 170.755C203.695 168.737 202.066 167.208 200.125 166.17C198.179 165.131 195.975 164.609 193.512 164.609C190.573 164.609 187.965 165.321 185.697 166.746C183.424 168.17 181.66 170.152 180.395 172.692C179.134 175.232 178.503 178.103 178.503 181.31C178.503 184.517 179.17 187.383 180.508 189.905C181.846 192.432 183.715 194.405 186.119 195.829C188.523 197.253 191.271 197.965 194.36 197.965C198.129 197.965 201.663 196.986 204.96 195.026V181.038H193.29V183.442H202.062V193.552C199.835 194.831 197.313 195.466 194.492 195.466C191.97 195.466 189.725 194.863 187.765 193.661C185.806 192.459 184.277 190.767 183.175 188.581C182.077 186.399 181.529 183.913 181.529 181.119C181.529 178.357 182.027 175.917 183.021 173.794C184.019 171.681 185.42 170.03 187.23 168.859Z" fill="#63513D"/>
<path d="M279.342 179.124C278.598 177.668 277.509 176.52 276.067 175.672C274.625 174.824 273.033 174.402 271.277 174.402C269.345 174.402 267.631 174.892 266.134 175.872C264.632 176.851 263.467 178.226 262.637 179.99C261.807 181.754 261.389 183.8 261.389 186.113C261.389 188.431 261.807 190.486 262.637 192.282C263.467 194.078 264.642 195.475 266.156 196.468C267.671 197.462 269.422 197.961 271.413 197.961C273.196 197.961 274.797 197.539 276.226 196.691C277.65 195.842 278.72 194.681 279.433 193.194L279.7 197.425H282.059V165.131H279.342V179.124ZM278.385 191.152C277.745 192.577 276.847 193.683 275.691 194.473C274.534 195.257 273.21 195.652 271.726 195.652C269.44 195.652 267.631 194.79 266.293 193.067C264.954 191.343 264.288 189.043 264.288 186.163C264.288 183.256 264.968 180.952 266.338 179.26C267.703 177.568 269.513 176.72 271.772 176.72C273.287 176.72 274.616 177.119 275.759 177.922C276.902 178.724 277.786 179.836 278.408 181.265C279.033 182.689 279.342 184.34 279.342 186.208C279.342 188.077 279.024 189.724 278.385 191.152Z" fill="#63513D"/>
<path d="M227.004 175.872C225.403 174.892 223.561 174.402 221.48 174.402C219.402 174.402 217.561 174.892 215.955 175.872C214.349 176.852 213.102 178.231 212.213 180.013C211.324 181.796 210.875 183.841 210.875 186.159C210.875 188.477 211.31 190.531 212.19 192.328C213.066 194.124 214.304 195.512 215.91 196.491C217.511 197.471 219.352 197.961 221.434 197.961C223.543 197.961 225.398 197.462 227 196.469C228.605 195.475 229.843 194.087 230.719 192.305C231.594 190.522 232.034 188.459 232.034 186.114C232.034 183.796 231.594 181.755 230.719 179.99C229.848 178.226 228.61 176.852 227.004 175.872ZM228.188 191.085C227.548 192.527 226.641 193.648 225.471 194.446C224.296 195.249 222.954 195.648 221.439 195.648C219.924 195.648 218.586 195.253 217.429 194.468C216.273 193.684 215.374 192.568 214.735 191.13C214.095 189.692 213.778 188.032 213.778 186.164C213.778 184.322 214.095 182.685 214.735 181.242C215.374 179.8 216.273 178.689 217.429 177.904C218.586 177.115 219.924 176.725 221.439 176.725C222.954 176.725 224.296 177.11 225.471 177.881C226.641 178.652 227.548 179.75 228.188 181.179C228.827 182.603 229.145 184.236 229.145 186.077C229.145 187.973 228.823 189.642 228.188 191.085Z" fill="#63513D"/>
<path d="M304.084 166.342C302.941 167.499 302.37 169.105 302.37 171.155V174.942H298.496V177.26H302.37V197.435H305.087V177.26H310.698V174.942H305.087V171.336C305.087 169.971 305.45 168.91 306.18 168.152C306.906 167.395 307.926 167.018 309.232 167.018C310.004 167.018 310.82 167.168 311.682 167.463V165.014C310.879 164.746 309.931 164.614 308.829 164.614C306.81 164.605 305.227 165.186 304.084 166.342Z" fill="#63513D"/>
<path d="M329.897 175.872C328.296 174.892 326.455 174.402 324.373 174.402C322.296 174.402 320.454 174.892 318.848 175.872C317.243 176.852 316 178.231 315.106 180.013C314.213 181.796 313.768 183.841 313.768 186.159C313.768 188.477 314.204 190.531 315.084 192.328C315.959 194.124 317.202 195.512 318.803 196.491C320.404 197.471 322.246 197.961 324.328 197.961C326.437 197.961 328.292 197.462 329.893 196.469C331.499 195.475 332.737 194.087 333.612 192.305C334.488 190.522 334.928 188.459 334.928 186.114C334.928 183.796 334.488 181.755 333.612 179.99C332.737 178.226 331.499 176.852 329.897 175.872ZM331.077 191.085C330.437 192.527 329.535 193.648 328.36 194.446C327.185 195.249 325.842 195.648 324.328 195.648C322.813 195.648 321.479 195.253 320.318 194.468C319.161 193.684 318.263 192.568 317.624 191.13C316.984 189.692 316.667 188.032 316.667 186.164C316.667 184.322 316.984 182.685 317.624 181.242C318.263 179.8 319.161 178.689 320.318 177.904C321.475 177.115 322.813 176.725 324.328 176.725C325.842 176.725 327.185 177.11 328.36 177.881C329.535 178.652 330.437 179.75 331.077 181.179C331.716 182.603 332.034 184.236 332.034 186.077C332.034 187.973 331.712 189.642 331.077 191.085Z" fill="#63513D"/>
<path d="M252.259 175.872C250.653 174.892 248.812 174.402 246.734 174.402C244.657 174.402 242.816 174.892 241.21 175.872C239.609 176.852 238.361 178.231 237.468 180.013C236.579 181.796 236.13 183.841 236.13 186.159C236.13 188.477 236.57 190.531 237.445 192.328C238.321 194.124 239.559 195.512 241.165 196.491C242.77 197.471 244.607 197.961 246.689 197.961C248.798 197.961 250.653 197.462 252.259 196.469C253.86 195.475 255.103 194.087 255.978 192.305C256.854 190.522 257.294 188.459 257.294 186.114C257.294 183.796 256.854 181.755 255.978 179.99C255.103 178.226 253.865 176.852 252.259 175.872ZM253.443 191.085C252.803 192.527 251.901 193.648 250.726 194.446C249.551 195.249 248.209 195.648 246.694 195.648C245.179 195.648 243.841 195.253 242.684 194.468C241.527 193.684 240.629 192.568 239.99 191.13C239.35 189.692 239.033 188.032 239.033 186.164C239.033 184.322 239.35 182.685 239.99 181.242C240.629 179.8 241.527 178.689 242.684 177.904C243.841 177.115 245.179 176.725 246.694 176.725C248.209 176.725 249.551 177.11 250.726 177.881C251.896 178.652 252.803 179.75 253.443 181.179C254.082 182.603 254.4 184.236 254.4 186.077C254.4 187.973 254.078 189.642 253.443 191.085Z" fill="#63513D"/>
<path d="M355.152 175.872C353.551 174.892 351.71 174.402 349.628 174.402C347.55 174.402 345.709 174.892 344.103 175.872C342.498 176.852 341.255 178.231 340.361 180.013C339.468 181.796 339.023 183.841 339.023 186.159C339.023 188.477 339.463 190.531 340.339 192.328C341.214 194.124 342.457 195.512 344.058 196.491C345.664 197.471 347.501 197.961 349.582 197.961C351.692 197.961 353.547 197.462 355.148 196.469C356.753 195.475 357.992 194.087 358.867 192.305C359.742 190.522 360.182 188.459 360.182 186.114C360.182 183.796 359.742 181.755 358.867 179.99C357.992 178.226 356.753 176.852 355.152 175.872ZM356.332 191.085C355.692 192.527 354.789 193.648 353.615 194.446C352.44 195.249 351.097 195.648 349.582 195.648C348.067 195.648 346.734 195.253 345.573 194.468C344.416 193.684 343.518 192.568 342.879 191.13C342.239 189.692 341.922 188.032 341.922 186.164C341.922 184.322 342.239 182.685 342.879 181.242C343.518 179.8 344.416 178.689 345.573 177.904C346.729 177.115 348.067 176.725 349.582 176.725C351.097 176.725 352.44 177.11 353.615 177.881C354.789 178.652 355.692 179.75 356.332 181.179C356.971 182.603 357.289 184.236 357.289 186.077C357.289 187.973 356.967 189.642 356.332 191.085Z" fill="#63513D"/>
</g>
<defs>
<clipPath id="clip0_382_190">
<rect width="598.182" height="155" fill="white" transform="translate(0.90918 48)"/>
</clipPath>
</defs>
</svg>
