<svg width="600" height="250" viewBox="0 0 600 250" fill="none" xmlns="http://www.w3.org/2000/svg">
<g clip-path="url(#clip0_1082_202)">
<mask id="mask0_1082_202" style="mask-type:luminance" maskUnits="userSpaceOnUse" x="12" y="52" width="574" height="175">
<path d="M585.998 52H12.0018V227H585.998V52Z" fill="white"/>
</mask>
<g mask="url(#mask0_1082_202)">
<path d="M12.0018 53.0781V160.077L48.7649 160.1V119.951L105.37 160.053L105.759 121.81L12.0018 53.0781Z" fill="#0D2638"/>
<path d="M273.388 121.857V160.007L314.219 159.984V92.4473L273.388 121.857Z" fill="#0D2638"/>
<path d="M220.279 121.856L126.359 53.0781V92.4467L220.279 160.1V121.856Z" fill="#0D2638"/>
<path d="M220.279 121.856L314.219 53.0781V92.4467L220.279 160.1V121.856Z" fill="#FFCD00"/>
<path d="M391.448 135.423H382.873V81.9106H391.242C411.061 81.9106 422.005 89.623 422.005 108.678C422.005 127.734 411.061 135.446 391.451 135.446M435.802 67.1527C423.87 58.1527 405.959 53.125 384.877 53.125H345.747V160.147H384.511C404.812 160.147 421.849 156.314 435.622 145.913C448.106 136.455 454.451 122.726 454.451 107.185C454.451 91.644 448.289 76.7004 435.805 67.1494" fill="#0D2638"/>
<path d="M565.996 124.588C560.293 131.039 551.582 135.148 541.81 135.148C524.637 135.148 510.727 122.454 510.727 106.774C510.727 91.0932 524.637 78.3995 541.81 78.3995C551.352 78.3995 559.881 82.3254 565.584 88.5013L585.932 68.2313C575.402 59.6461 559.745 52.2754 540.065 52.2754L540.135 52C522.433 52 507.211 57.3496 494.498 68.0919C481.851 78.8575 475.506 91.737 475.506 106.727C475.506 121.717 481.828 134.62 494.498 145.293C507.094 155.829 522.317 161.132 540.135 161.179C560.024 161.179 575.542 154.04 586.001 145.293L566 124.565V124.588H565.996Z" fill="#0D2638"/>
<path d="M567.13 189.958H572.7L586.001 220.486H578.4L575.764 214.018H563.889L561.34 220.486H553.911L567.126 189.958H567.13ZM569.719 198.839L566.006 208.323H573.478L569.722 198.839H569.719Z" fill="#0D2638"/>
<path d="M524.746 189.958H536.795C542.322 189.958 548.108 191.813 548.108 199.227C548.108 203.71 545.646 206.817 541.501 207.593L549.275 220.486H541.198L534.807 208.283H531.483V220.486H524.746V189.958ZM531.483 202.592H535.671C538.779 202.592 541.112 202.074 541.112 199.187C541.112 196.685 539.254 195.649 536.06 195.649H531.483V202.592Z" fill="#0D2638"/>
<path d="M495.089 189.958H515.603V196.164H501.826V202.373H514.566V208.582H501.826V220.483H495.089V189.958Z" fill="#0D2638"/>
<path d="M455.302 189.958H464.455L477.454 211.171H477.541V189.958H484.274V220.483H475.467L462.122 198.752H462.036V220.483H455.302V189.958Z" fill="#0D2638"/>
<path d="M444.856 189.958H438.119V220.486H444.856V189.958Z" fill="#0D2638"/>
</g>
</g>
<defs>
<clipPath id="clip0_1082_202">
<rect width="574" height="175" fill="white" transform="translate(12 52)"/>
</clipPath>
</defs>
</svg>
