<svg width="600" height="250" viewBox="0 0 600 250" fill="none" xmlns="http://www.w3.org/2000/svg">
<g clip-path="url(#clip0_450_86)">
<path d="M272.708 106.346C272.577 106.44 272.5 106.591 272.5 106.751V146.649C272.5 146.781 272.553 146.909 272.647 147.002C272.74 147.096 272.868 147.149 273 147.149L315.634 147.125C315.91 147.124 316.133 146.901 316.133 146.625V76C316.133 75.8123 316.028 75.6404 315.861 75.5549C315.694 75.4694 315.493 75.4847 315.341 75.5945L272.708 106.346Z" fill="#F2F2F2" stroke="black" stroke-linejoin="round"/>
<path d="M218.305 107.025C218.305 106.866 218.229 106.716 218.1 106.622L120.037 34.7247C119.885 34.6133 119.684 34.5968 119.516 34.6819C119.348 34.7671 119.242 34.9395 119.242 35.1279V76.2976C119.242 76.4582 119.319 76.6091 119.449 76.7031L217.512 147.424C217.664 147.534 217.865 147.549 218.032 147.463C218.199 147.378 218.305 147.206 218.305 147.018V107.025Z" fill="#F2F2F2" stroke="black" stroke-linejoin="round"/>
<path d="M217.704 106.622C217.576 106.716 217.5 106.866 217.5 107.025V147.018C217.5 147.206 217.605 147.378 217.772 147.463C217.939 147.549 218.14 147.534 218.292 147.424L316.379 76.7031C316.51 76.6092 316.587 76.4583 316.587 76.2976V35.1279C316.587 34.9395 316.481 34.7671 316.313 34.6819C316.145 34.5968 315.943 34.6133 315.791 34.7247L217.704 106.622Z" fill="#0082CA" stroke="black" stroke-linejoin="round"/>
<path d="M38.2227 105.056V146.518L0.837646 146.495V36.1153L97.7301 107.252L97.3344 146.033L39.012 104.649L38.2227 104.088V105.056Z" fill="#F2F2F2" stroke="black"/>
<path d="M273 106.751V146.649L315.633 146.625V76L273 106.751Z" fill="#F2F2F2"/>
<path d="M217.805 107.025L119.742 35.1279V76.2976L217.805 147.018V107.025Z" fill="#F2F2F2"/>
<path d="M218 107.025L316.087 35.1279V76.2976L218 147.018V107.025Z" fill="#0082CA"/>
<mask id="path-8-inside-1_450_86" fill="white">
<path d="M396.527 121.213H387.572V65.2554H396.311C417.003 65.2554 428.431 73.3214 428.431 93.246C428.431 113.171 417.003 121.237 396.551 121.237M442.858 49.8198C430.399 40.3856 411.699 35.1523 389.685 35.1523H348.828V147.067H389.301C410.498 147.067 428.286 143.058 442.666 132.183C455.701 122.293 462.326 107.961 462.326 91.6856C462.326 75.4098 455.892 59.8061 442.858 49.8198Z"/>
</mask>
<path d="M396.527 121.213H387.572V65.2554H396.311C417.003 65.2554 428.431 73.3214 428.431 93.246C428.431 113.171 417.003 121.237 396.551 121.237M442.858 49.8198C430.399 40.3856 411.699 35.1523 389.685 35.1523H348.828V147.067H389.301C410.498 147.067 428.286 143.058 442.666 132.183C455.701 122.293 462.326 107.961 462.326 91.6856C462.326 75.4098 455.892 59.8061 442.858 49.8198Z" fill="#F2F2F2"/>
<path d="M387.572 121.213H386.572V122.213H387.572V121.213ZM387.572 65.2554V64.2554H386.572V65.2554H387.572ZM442.858 49.8198L443.466 49.026L443.462 49.0226L442.858 49.8198ZM348.828 35.1523V34.1523H347.828V35.1523H348.828ZM348.828 147.067H347.828V148.067H348.828V147.067ZM442.666 132.183L443.269 132.981L443.27 132.98L442.666 132.183ZM396.527 120.213H387.572V122.213H396.527V120.213ZM388.572 121.213V65.2554H386.572V121.213H388.572ZM387.572 66.2554H396.311V64.2554H387.572V66.2554ZM396.311 66.2554C406.557 66.2554 414.309 68.2575 419.493 72.5492C424.637 76.8086 427.431 83.4775 427.431 93.246H429.431C429.431 83.0899 426.511 75.7634 420.768 71.0087C415.065 66.2863 406.757 64.2554 396.311 64.2554V66.2554ZM427.431 93.246C427.431 103.015 424.637 109.685 419.521 113.945C414.367 118.235 406.674 120.237 396.551 120.237V122.237C406.88 122.237 415.127 120.205 420.8 115.482C426.511 110.727 429.431 103.402 429.431 93.246H427.431ZM443.462 49.0226C430.773 39.4147 411.835 34.1523 389.685 34.1523V36.1523C411.563 36.1523 430.025 41.3565 442.254 50.617L443.462 49.0226ZM389.685 34.1523H348.828V36.1523H389.685V34.1523ZM347.828 35.1523V147.067H349.828V35.1523H347.828ZM348.828 148.067H389.301V146.067H348.828V148.067ZM389.301 148.067C410.617 148.067 428.651 144.036 443.269 132.981L442.062 131.386C427.922 142.08 410.379 146.067 389.301 146.067V148.067ZM443.27 132.98C456.571 122.888 463.326 108.253 463.326 91.6856H461.326C461.326 107.67 454.831 121.698 442.061 131.387L443.27 132.98ZM463.326 91.6856C463.326 75.1527 456.787 59.2321 443.466 49.026L442.25 50.6136C454.997 60.3801 461.326 75.667 461.326 91.6856H463.326Z" fill="black" mask="url(#path-8-inside-1_450_86)"/>
<path d="M578.358 71.4501C572.313 65.0845 563.428 61.0824 553.524 61.0824C535.359 61.0824 520.568 74.5402 520.568 91.2535C520.568 107.967 535.359 121.424 553.524 121.424C563.662 121.424 572.738 117.238 578.791 110.616L598.929 131.518C588.097 140.437 572.152 147.671 551.773 147.671C533.276 147.623 517.5 142.113 504.443 131.176C491.316 120.099 484.792 106.742 484.792 91.2295C484.792 75.7176 491.339 62.3842 504.445 51.2088C517.469 40.1862 533.007 34.63 551.131 34.5023L551.059 34.7881H551.7C571.852 34.7881 587.932 42.246 598.844 51.0107L578.358 71.4501Z" fill="#F2F2F2" stroke="black"/>
<path d="M39.9033 205.736V206.236L48.5171 205.232L48.6345 205.718C48.6349 205.718 48.6352 205.718 48.6356 205.718C50.0798 205.369 51.3469 204.816 52.4211 203.998L52.4211 203.998C53.4924 203.181 54.3612 202.133 54.9725 200.809L54.9725 200.809C55.5864 199.478 55.8827 197.891 55.8827 196.063C55.8827 194.439 55.5829 193.016 54.9658 191.782C54.3546 190.559 53.5121 189.564 52.4676 188.774C51.4273 187.987 50.2179 187.411 48.8489 187.012C47.4748 186.612 46.0103 186.44 44.5322 186.44H40.4033H39.9033V186.94V205.736ZM60.7208 202.992L60.7197 202.994C59.7907 204.875 58.5154 206.475 56.9408 207.748C55.36 209.027 53.5192 210.007 51.4126 210.686C49.3048 211.365 47.1241 211.694 44.7963 211.694H33.8936V180.982H43.884C46.3896 180.982 48.7497 181.266 50.9897 181.808C53.2137 182.37 55.1434 183.256 56.7879 184.484C58.4241 185.706 59.7201 187.299 60.6969 189.252C61.6605 191.179 62.1324 193.57 62.1324 196.423C62.1324 198.927 61.6645 201.105 60.7208 202.992Z" fill="#F2F2F2" stroke="black"/>
<path d="M79.1523 193.614V194.114H79.6523H83.7813H83.7914C84.4075 194.114 85.098 194.114 85.8167 194.04C86.5541 193.989 87.2484 193.835 87.8492 193.601C88.5206 193.348 89.0462 192.928 89.4766 192.391L89.4817 192.385L89.4865 192.378C89.9317 191.784 90.1387 190.994 90.1387 190.062C90.1387 189.178 89.9566 188.443 89.5442 187.854L89.5439 187.853C89.1632 187.31 88.6949 186.896 88.1183 186.594L88.1099 186.589L88.1013 186.585C87.5582 186.326 86.9308 186.116 86.1972 186.036C85.5289 185.937 84.8596 185.888 84.2134 185.888H79.6523H79.1523V186.388V193.59V193.614ZM79.1043 199.543V211.718H73.1187V181.007H84.9335C86.5072 181.007 88.0079 181.171 89.4127 181.476C90.7983 181.776 92.0113 182.282 93.0343 182.963L93.0343 182.963L93.0383 182.966C94.0613 183.634 94.8695 184.571 95.4586 185.727L95.4586 185.727L95.4604 185.731C96.061 186.887 96.3643 188.338 96.3643 190.134C96.3643 192.274 95.8137 194.063 94.7105 195.549L94.7098 195.55C93.6446 196.992 92.0611 197.943 89.9099 198.331L89.1963 198.46L89.5704 199.081L97.1799 211.718H89.9894L83.5042 199.312L83.3639 199.043H83.0611H79.6043H79.1043V199.543Z" fill="#F2F2F2" stroke="black"/>
<path d="M114.196 206.237H129.06V211.694H107.711V181.007H128.244V186.44H114.196H113.696V186.94V192.846V193.346H114.196H127.451V198.803H114.196H113.696V199.303V205.737V206.237H114.196Z" fill="#F2F2F2" stroke="black"/>
<path d="M146.92 206.236V205.736V186.94V186.44H147.42H151.549C153.027 186.44 154.492 186.612 155.866 187.012C157.234 187.411 158.444 187.987 159.484 188.774L146.92 206.236ZM146.92 206.236H147.42M146.92 206.236H147.42M147.42 206.236H151.045C152.687 206.236 154.24 206.065 155.653 205.718M147.42 206.236L155.653 205.718M155.653 205.718C157.096 205.369 158.364 204.816 159.438 203.998C160.51 203.181 161.378 202.133 161.989 200.81L161.989 200.809C162.604 199.479 162.9 197.891 162.9 196.063C162.9 194.439 162.6 193.016 161.983 191.782C161.371 190.559 160.53 189.564 159.485 188.774L155.653 205.718ZM167.714 189.252L167.714 189.252C168.678 191.179 169.149 193.57 169.149 196.423C169.149 198.928 168.682 201.105 167.738 202.992L167.737 202.994C166.807 204.876 165.532 206.475 163.958 207.748C162.378 209.027 160.537 210.007 158.43 210.686C156.322 211.365 154.142 211.694 151.814 211.694H140.91V180.982H150.901C153.407 180.982 155.767 181.266 158.007 181.808C160.231 182.37 162.161 183.256 163.805 184.484C165.441 185.706 166.738 187.299 167.714 189.252Z" fill="#F2F2F2" stroke="black"/>
<path d="M207.895 209.645V193.994H196.484V199.428H201.673H202.173V199.928V205.064V205.358L201.916 205.501C201.226 205.884 200.303 206.257 199.178 206.599M207.895 209.645L199.032 206.121M207.895 209.645C205.947 210.638 203.933 211.349 201.809 211.801L201.808 211.802C199.611 212.274 197.365 212.511 195.071 212.511C192.651 212.511 190.43 212.135 188.402 211.389L188.402 211.389C186.378 210.645 184.635 209.552 183.148 208.158C181.689 206.767 180.528 205.075 179.715 203.076L179.715 203.075C178.902 201.077 178.479 198.837 178.479 196.375C178.479 193.912 178.902 191.672 179.715 189.674L179.715 189.673C180.529 187.673 181.69 185.981 183.15 184.589C184.611 183.198 186.352 182.106 188.4 181.361L188.402 181.36C190.429 180.614 192.651 180.239 195.071 180.239C197.504 180.239 199.859 180.545 201.946 181.132C203.844 181.666 205.523 182.57 206.988 183.832L202.757 188.454M199.178 206.599L199.032 206.121M199.178 206.599C199.178 206.599 199.178 206.599 199.178 206.599L199.032 206.121M199.178 206.599C198.014 206.954 196.617 207.125 195.095 207.125C193.549 207.125 192.114 206.851 190.846 206.318M199.032 206.121C197.929 206.457 196.583 206.625 195.095 206.625C193.607 206.625 192.238 206.361 191.039 205.857M190.846 206.318C190.847 206.319 190.847 206.319 190.848 206.319L191.039 205.857M190.846 206.318C189.558 205.787 188.467 205.027 187.554 204.064L187.554 204.064C186.645 203.104 185.936 201.99 185.455 200.676L185.455 200.675C184.978 199.368 184.729 197.917 184.729 196.399C184.729 194.879 184.979 193.453 185.455 192.146L185.455 192.145C185.935 190.834 186.643 189.696 187.554 188.733L187.559 188.728L187.559 188.728C188.492 187.77 189.58 187.012 190.843 186.48M190.846 206.318C190.846 206.318 190.845 206.318 190.845 206.318L191.039 205.857M191.039 205.857L190.843 186.48M190.843 186.48C190.842 186.481 190.841 186.481 190.84 186.481L191.039 186.94M190.843 186.48L187.917 203.72C187.054 202.808 186.381 201.752 185.925 200.504C185.47 199.255 185.229 197.863 185.229 196.399C185.229 194.934 185.47 193.566 185.925 192.317C186.381 191.069 187.054 189.99 187.917 189.077C188.806 188.164 189.839 187.445 191.039 186.94M190.843 186.48C192.14 185.921 193.554 185.672 195.095 185.672C196.919 185.672 198.476 185.943 199.754 186.479L199.758 186.481L199.758 186.481C200.843 186.947 201.85 187.605 202.757 188.454M190.843 186.48C190.843 186.48 190.844 186.48 190.845 186.479L191.039 186.94M191.039 186.94C192.262 186.412 193.607 186.172 195.095 186.172C196.872 186.172 198.36 186.436 199.561 186.94C200.593 187.383 201.552 188.01 202.42 188.823L202.757 188.454" fill="#F2F2F2" stroke="black"/>
<path d="M220.201 211.694V181.007H226.187V211.694H220.201Z" fill="#F2F2F2" stroke="black"/>
<path d="M261.875 202.521V181.007H267.861V211.694H259.494L245.814 189.368L245.667 189.129H245.387H245.291H244.791V189.629V211.694H238.829V181.007H247.532L260.852 202.782L260.998 203.021H261.278H261.375H261.875V202.521Z" fill="#F2F2F2" stroke="black"/>
<path d="M308.286 209.644V193.993H296.876V199.427H302.065H302.565V199.927V205.063V205.358L302.307 205.5C301.618 205.884 300.694 206.256 299.569 206.599M308.286 209.644L299.424 206.12M308.286 209.644C306.338 210.637 304.324 211.349 302.201 211.801L302.2 211.801C300.002 212.274 297.757 212.509 295.463 212.509C293.042 212.509 290.821 212.134 288.794 211.388C286.769 210.643 285.027 209.551 283.54 208.158C282.08 206.766 280.92 205.074 280.107 203.075L280.107 203.075C279.293 201.076 278.871 198.836 278.871 196.373C278.871 193.911 279.293 191.671 280.107 189.673L280.107 189.673C280.92 187.673 282.081 185.98 283.541 184.588C285.001 183.198 286.766 182.104 288.793 181.36L288.794 181.359C290.821 180.613 293.042 180.237 295.463 180.237C297.895 180.237 300.25 180.545 302.338 181.131C304.235 181.665 305.914 182.569 307.379 183.83L303.149 188.453M299.569 206.599L299.424 206.12M299.569 206.599C299.569 206.599 299.569 206.599 299.569 206.598L299.424 206.12M299.569 206.599C298.406 206.953 297.009 207.125 295.487 207.125C293.941 207.125 292.505 206.85 291.238 206.318M299.424 206.12C298.32 206.456 296.975 206.625 295.487 206.625C293.999 206.625 292.63 206.36 291.43 205.856M291.238 206.318C291.238 206.318 291.239 206.318 291.239 206.318L291.43 205.856M291.238 206.318C289.949 205.786 288.858 205.025 287.947 204.063M291.238 206.318C291.237 206.317 291.237 206.317 291.236 206.317L291.43 205.856M291.43 205.856L287.947 204.063M287.947 204.063C287.947 204.063 287.947 204.063 287.947 204.063L288.31 203.719L287.947 204.063ZM287.947 204.063C287.037 203.103 286.327 201.989 285.847 200.674L285.847 200.673C285.37 199.367 285.121 197.916 285.121 196.397C285.121 194.878 285.37 193.452 285.846 192.145L285.847 192.145C286.326 190.834 287.034 189.694 287.947 188.732L287.951 188.727L287.951 188.727C288.883 187.769 289.971 187.011 291.234 186.48M287.947 204.063L286.316 200.502C285.861 199.254 285.621 197.862 285.621 196.397C285.621 194.933 285.861 193.565 286.316 192.316C286.773 191.068 287.445 189.988 288.31 189.076C289.197 188.163 290.23 187.444 291.43 186.94M291.234 186.48C291.233 186.48 291.232 186.48 291.232 186.48L291.43 186.94M291.234 186.48C292.531 185.92 293.945 185.671 295.487 185.671C297.31 185.671 298.869 185.942 300.146 186.479L300.149 186.48C301.235 186.946 302.241 187.604 303.149 188.453M291.234 186.48C291.235 186.479 291.235 186.479 291.236 186.479L291.43 186.94M291.43 186.94C292.654 186.411 293.999 186.171 295.487 186.171C297.263 186.171 298.752 186.435 299.952 186.94C300.984 187.382 301.943 188.009 302.811 188.822L303.149 188.453" fill="#F2F2F2" stroke="black"/>
<mask id="path-19-inside-2_450_86" fill="white">
<path d="M350.388 185.068C349.523 185.068 348.78 185.332 348.179 185.884C347.579 186.411 347.291 187.132 347.291 188.045C347.291 188.428 347.387 188.812 347.555 189.197C347.723 189.581 347.939 189.917 348.203 190.276C348.444 190.612 348.732 190.949 349.044 191.237C349.355 191.525 349.643 191.813 349.908 192.054C350.268 191.837 350.652 191.597 351.06 191.309C351.468 191.021 351.876 190.709 352.212 190.372C352.573 190.037 352.861 189.653 353.125 189.245C353.364 188.836 353.484 188.404 353.484 187.973C353.484 187.036 353.173 186.339 352.573 185.836C351.948 185.332 351.227 185.092 350.364 185.092M348.203 198.702C347.747 198.966 347.315 199.255 346.884 199.519C346.451 199.807 346.067 200.119 345.731 200.456C345.394 200.791 345.106 201.199 344.915 201.631C344.699 202.088 344.603 202.592 344.603 203.191C344.603 203.792 344.723 204.32 344.962 204.801C345.202 205.28 345.514 205.688 345.899 206C346.283 206.337 346.739 206.601 347.267 206.793C347.795 206.984 348.323 207.08 348.852 207.08C349.908 207.08 350.796 206.865 351.564 206.409C352.332 205.952 353.077 205.4 353.82 204.753L348.227 198.654L348.203 198.702ZM362.078 204.753L369.136 212.218H360.494L357.853 209.217C356.533 210.562 355.141 211.521 353.628 212.122C352.116 212.722 350.436 213.011 348.54 213.011C347.099 213.011 345.707 212.818 344.387 212.434C343.042 212.05 341.842 211.449 340.786 210.658C339.729 209.865 338.889 208.882 338.265 207.681C337.641 206.481 337.329 205.088 337.329 203.528C337.329 202.52 337.497 201.559 337.833 200.648C338.169 199.735 338.65 198.918 339.273 198.175C339.873 197.43 340.594 196.782 341.385 196.231C342.202 195.678 343.066 195.246 344.026 194.91C343.522 194.334 343.042 193.806 342.61 193.301C342.178 192.797 341.794 192.27 341.482 191.693C341.169 191.117 340.929 190.54 340.761 189.893C340.594 189.269 340.522 188.572 340.522 187.781C340.522 186.339 340.809 185.116 341.361 184.107C341.914 183.099 342.658 182.259 343.57 181.611C344.507 180.963 345.562 180.482 346.739 180.17C347.939 179.882 349.163 179.715 350.412 179.715C351.66 179.715 352.789 179.882 353.892 180.194C354.997 180.506 355.981 180.987 356.822 181.635C357.661 182.283 358.358 183.075 358.862 184.059C359.366 185.02 359.629 186.195 359.629 187.54C359.629 188.5 359.486 189.365 359.174 190.181C358.862 190.997 358.43 191.741 357.901 192.437C357.374 193.133 356.749 193.758 356.029 194.31C355.334 194.862 354.589 195.342 353.772 195.75L357.853 200.095L360.95 195.894H368.728L362.054 204.753H362.078Z"/>
</mask>
<path d="M350.388 185.068C349.523 185.068 348.78 185.332 348.179 185.884C347.579 186.411 347.291 187.132 347.291 188.045C347.291 188.428 347.387 188.812 347.555 189.197C347.723 189.581 347.939 189.917 348.203 190.276C348.444 190.612 348.732 190.949 349.044 191.237C349.355 191.525 349.643 191.813 349.908 192.054C350.268 191.837 350.652 191.597 351.06 191.309C351.468 191.021 351.876 190.709 352.212 190.372C352.573 190.037 352.861 189.653 353.125 189.245C353.364 188.836 353.484 188.404 353.484 187.973C353.484 187.036 353.173 186.339 352.573 185.836C351.948 185.332 351.227 185.092 350.364 185.092M348.203 198.702C347.747 198.966 347.315 199.255 346.884 199.519C346.451 199.807 346.067 200.119 345.731 200.456C345.394 200.791 345.106 201.199 344.915 201.631C344.699 202.088 344.603 202.592 344.603 203.191C344.603 203.792 344.723 204.32 344.962 204.801C345.202 205.28 345.514 205.688 345.899 206C346.283 206.337 346.739 206.601 347.267 206.793C347.795 206.984 348.323 207.08 348.852 207.08C349.908 207.08 350.796 206.865 351.564 206.409C352.332 205.952 353.077 205.4 353.82 204.753L348.227 198.654L348.203 198.702ZM362.078 204.753L369.136 212.218H360.494L357.853 209.217C356.533 210.562 355.141 211.521 353.628 212.122C352.116 212.722 350.436 213.011 348.54 213.011C347.099 213.011 345.707 212.818 344.387 212.434C343.042 212.05 341.842 211.449 340.786 210.658C339.729 209.865 338.889 208.882 338.265 207.681C337.641 206.481 337.329 205.088 337.329 203.528C337.329 202.52 337.497 201.559 337.833 200.648C338.169 199.735 338.65 198.918 339.273 198.175C339.873 197.43 340.594 196.782 341.385 196.231C342.202 195.678 343.066 195.246 344.026 194.91C343.522 194.334 343.042 193.806 342.61 193.301C342.178 192.797 341.794 192.27 341.482 191.693C341.169 191.117 340.929 190.54 340.761 189.893C340.594 189.269 340.522 188.572 340.522 187.781C340.522 186.339 340.809 185.116 341.361 184.107C341.914 183.099 342.658 182.259 343.57 181.611C344.507 180.963 345.562 180.482 346.739 180.17C347.939 179.882 349.163 179.715 350.412 179.715C351.66 179.715 352.789 179.882 353.892 180.194C354.997 180.506 355.981 180.987 356.822 181.635C357.661 182.283 358.358 183.075 358.862 184.059C359.366 185.02 359.629 186.195 359.629 187.54C359.629 188.5 359.486 189.365 359.174 190.181C358.862 190.997 358.43 191.741 357.901 192.437C357.374 193.133 356.749 193.758 356.029 194.31C355.334 194.862 354.589 195.342 353.772 195.75L357.853 200.095L360.95 195.894H368.728L362.054 204.753H362.078Z" fill="#F2F2F2"/>
<path d="M348.179 185.884L348.839 186.636L348.848 186.628L348.856 186.62L348.179 185.884ZM348.203 190.276L349.017 189.695L349.009 189.684L348.203 190.276ZM349.044 191.237L349.724 190.503L349.722 190.502L349.044 191.237ZM349.908 192.054L349.235 192.794L349.785 193.293L350.422 192.911L349.908 192.054ZM351.06 191.309L351.637 192.126L351.638 192.125L351.06 191.309ZM352.212 190.372L351.531 189.64L351.518 189.652L351.505 189.665L352.212 190.372ZM353.125 189.245L353.965 189.788L353.977 189.769L353.988 189.75L353.125 189.245ZM352.573 185.836L353.215 185.07L353.208 185.064L353.201 185.058L352.573 185.836ZM348.203 198.702L348.704 199.568L348.964 199.418L349.098 199.149L348.203 198.702ZM346.884 199.519L346.361 198.666L346.345 198.676L346.329 198.687L346.884 199.519ZM345.731 200.456L346.437 201.164L346.438 201.163L345.731 200.456ZM344.915 201.631L345.819 202.059L345.824 202.048L345.83 202.035L344.915 201.631ZM344.962 204.801L344.067 205.246L344.068 205.249L344.962 204.801ZM345.899 206L346.557 205.248L346.544 205.236L346.529 205.224L345.899 206ZM347.267 206.793L346.924 207.733L346.927 207.734L347.267 206.793ZM351.564 206.409L351.053 205.549L351.053 205.549L351.564 206.409ZM353.82 204.753L354.477 205.507L355.251 204.833L354.557 204.077L353.82 204.753ZM348.227 198.654L348.964 197.978L347.983 196.908L347.333 198.207L348.227 198.654ZM362.078 204.753L362.805 204.066L362.509 203.753H362.078V204.753ZM369.136 212.218V213.218H371.458L369.863 211.531L369.136 212.218ZM360.494 212.218L359.743 212.879L360.042 213.218H360.494V212.218ZM357.853 209.217L358.604 208.556L357.893 207.748L357.139 208.516L357.853 209.217ZM353.628 212.122L353.259 211.192L353.259 211.192L353.628 212.122ZM344.387 212.434L344.666 211.474L344.661 211.473L344.387 212.434ZM340.786 210.658L340.186 211.458L340.186 211.458L340.786 210.658ZM338.265 207.681L339.153 207.22L339.152 207.219L338.265 207.681ZM337.833 200.648L338.771 200.994L338.771 200.993L337.833 200.648ZM339.273 198.175L340.039 198.817L340.045 198.81L340.051 198.803L339.273 198.175ZM341.385 196.231L340.825 195.402L340.814 195.41L341.385 196.231ZM344.026 194.91L344.357 195.853L345.755 195.364L344.778 194.25L344.026 194.91ZM342.61 193.301L343.371 192.652L343.37 192.651L342.61 193.301ZM340.761 189.893L341.729 189.642L341.727 189.635L340.761 189.893ZM341.361 184.107L340.485 183.626L340.484 183.627L341.361 184.107ZM343.57 181.611L343.001 180.789L342.991 180.796L343.57 181.611ZM346.739 180.17L346.506 179.198L346.494 179.2L346.483 179.203L346.739 180.17ZM353.892 180.194L353.62 181.156L353.62 181.156L353.892 180.194ZM356.822 181.635L356.211 182.427L356.211 182.427L356.822 181.635ZM358.862 184.059L357.972 184.515L357.977 184.524L358.862 184.059ZM359.174 190.181L360.108 190.539L360.108 190.538L359.174 190.181ZM357.901 192.437L357.105 191.832L357.104 191.833L357.901 192.437ZM356.029 194.31L355.42 193.517L355.414 193.522L355.408 193.527L356.029 194.31ZM353.772 195.75L353.325 194.856L352.124 195.456L353.043 196.435L353.772 195.75ZM357.853 200.095L357.124 200.78L357.946 201.655L358.658 200.689L357.853 200.095ZM360.95 195.894V194.894H360.445L360.146 195.301L360.95 195.894ZM368.728 195.894L369.527 196.496L370.733 194.894H368.728V195.894ZM362.054 204.753L361.256 204.151L360.049 205.753H362.054V204.753ZM350.388 184.068C349.303 184.068 348.309 184.406 347.502 185.148L348.856 186.62C349.251 186.257 349.743 186.068 350.388 186.068V184.068ZM347.52 185.133C346.664 185.884 346.291 186.901 346.291 188.045H348.291C348.291 187.363 348.494 186.939 348.839 186.636L347.52 185.133ZM346.291 188.045C346.291 188.597 346.429 189.119 346.639 189.597L348.471 188.796C348.344 188.506 348.291 188.259 348.291 188.045H346.291ZM346.639 189.597C346.848 190.077 347.112 190.48 347.398 190.869L349.009 189.684C348.767 189.354 348.598 189.085 348.471 188.796L346.639 189.597ZM347.39 190.857C347.664 191.242 347.997 191.631 348.366 191.972L349.722 190.502C349.467 190.266 349.223 189.983 349.017 189.695L347.39 190.857ZM348.364 191.971C348.606 192.194 348.998 192.578 349.235 192.794L350.58 191.314C350.289 191.049 350.105 190.856 349.724 190.503L348.364 191.971ZM350.422 192.911C350.794 192.688 351.201 192.434 351.637 192.126L350.484 190.492C350.103 190.761 349.742 190.987 349.393 191.196L350.422 192.911ZM351.638 192.125C352.059 191.827 352.523 191.476 352.919 191.079L351.505 189.665C351.229 189.941 350.876 190.214 350.483 190.493L351.638 192.125ZM352.893 191.105C353.337 190.691 353.677 190.232 353.965 189.788L352.285 188.701C352.044 189.074 351.808 189.383 351.531 189.64L352.893 191.105ZM353.988 189.75C354.31 189.2 354.484 188.594 354.484 187.973H352.484C352.484 188.214 352.418 188.473 352.262 188.739L353.988 189.75ZM354.484 187.973C354.484 186.784 354.074 185.79 353.215 185.07L351.93 186.603C352.272 186.889 352.484 187.287 352.484 187.973H354.484ZM353.201 185.058C352.382 184.397 351.434 184.092 350.364 184.092V186.092C351.021 186.092 351.514 186.267 351.944 186.614L353.201 185.058ZM347.702 197.837C347.239 198.105 346.741 198.433 346.361 198.666L347.406 200.372C347.888 200.076 348.255 199.828 348.704 199.568L347.702 197.837ZM346.329 198.687C345.847 199.008 345.41 199.362 345.024 199.749L346.438 201.163C346.723 200.877 347.056 200.606 347.438 200.351L346.329 198.687ZM345.025 199.747C344.607 200.163 344.245 200.673 344 201.227L345.83 202.035C345.967 201.725 346.181 201.418 346.437 201.164L345.025 199.747ZM344.011 201.203C343.718 201.824 343.603 202.482 343.603 203.191H345.603C345.603 202.703 345.68 202.352 345.819 202.059L344.011 201.203ZM343.603 203.191C343.603 203.932 343.753 204.615 344.067 205.246L345.857 204.355C345.693 204.026 345.603 203.652 345.603 203.191H343.603ZM344.068 205.249C344.361 205.834 344.757 206.362 345.268 206.777L346.529 205.224C346.272 205.015 346.043 204.726 345.856 204.353L344.068 205.249ZM345.24 206.753C345.726 207.179 346.293 207.503 346.924 207.733L347.609 205.854C347.186 205.699 346.84 205.495 346.557 205.248L345.24 206.753ZM346.927 207.734C347.557 207.961 348.2 208.08 348.852 208.08V206.08C348.447 206.08 348.034 206.007 347.607 205.853L346.927 207.734ZM348.852 208.08C350.049 208.08 351.122 207.835 352.075 207.268L351.053 205.549C350.47 205.896 349.767 206.08 348.852 206.08V208.08ZM352.074 207.269C352.904 206.776 353.697 206.186 354.477 205.507L353.164 203.999C352.457 204.614 351.761 205.129 351.053 205.549L352.074 207.269ZM354.557 204.077L348.964 197.978L347.49 199.33L353.083 205.429L354.557 204.077ZM347.333 198.207L347.309 198.255L349.098 199.149L349.122 199.101L347.333 198.207ZM361.352 205.44L368.41 212.905L369.863 211.531L362.805 204.066L361.352 205.44ZM369.136 211.218H360.494V213.218H369.136V211.218ZM361.245 211.557L358.604 208.556L357.102 209.877L359.743 212.879L361.245 211.557ZM357.139 208.516C355.901 209.778 354.623 210.651 353.259 211.192L353.997 213.051C355.66 212.392 357.166 211.345 358.567 209.917L357.139 208.516ZM353.259 211.192C351.885 211.738 350.334 212.011 348.54 212.011V214.011C350.538 214.011 352.347 213.706 353.997 213.051L353.259 211.192ZM348.54 212.011C347.188 212.011 345.89 211.83 344.666 211.474L344.107 213.394C345.523 213.806 347.009 214.011 348.54 214.011V212.011ZM344.661 211.473C343.432 211.121 342.343 210.575 341.386 209.858L340.186 211.458C341.341 212.324 342.651 212.978 344.112 213.396L344.661 211.473ZM341.386 209.858C340.449 209.155 339.707 208.287 339.153 207.22L337.378 208.141C338.071 209.476 339.01 210.576 340.186 211.458L341.386 209.858ZM339.152 207.219C338.613 206.183 338.329 204.953 338.329 203.528H336.329C336.329 205.222 336.668 206.778 337.378 208.142L339.152 207.219ZM338.329 203.528C338.329 202.634 338.477 201.79 338.771 200.994L336.895 200.302C336.516 201.328 336.329 202.407 336.329 203.528H338.329ZM338.771 200.993C339.066 200.193 339.487 199.476 340.039 198.817L338.507 197.532C337.812 198.361 337.272 199.277 336.895 200.302L338.771 200.993ZM340.051 198.803C340.585 198.141 341.233 197.556 341.957 197.051L340.814 195.41C339.955 196.008 339.162 196.72 338.495 197.547L340.051 198.803ZM341.946 197.059C342.689 196.556 343.475 196.162 344.357 195.853L343.696 193.966C342.656 194.33 341.715 194.8 340.825 195.402L341.946 197.059ZM344.778 194.25C344.255 193.654 343.799 193.153 343.371 192.652L341.85 193.951C342.284 194.459 342.789 195.015 343.275 195.569L344.778 194.25ZM343.37 192.651C342.97 192.185 342.631 191.716 342.361 191.217L340.602 192.17C340.957 192.824 341.386 193.409 341.851 193.952L343.37 192.651ZM342.361 191.217C342.081 190.701 341.874 190.2 341.729 189.642L339.793 190.144C339.984 190.881 340.257 191.533 340.602 192.17L342.361 191.217ZM341.727 189.635C341.589 189.119 341.522 188.514 341.522 187.781H339.522C339.522 188.63 339.599 189.418 339.795 190.151L341.727 189.635ZM341.522 187.781C341.522 186.472 341.782 185.421 342.239 184.587L340.484 183.627C339.836 184.811 339.522 186.207 339.522 187.781H341.522ZM342.238 184.588C342.72 183.709 343.364 182.984 344.149 182.427L342.991 180.796C341.953 181.533 341.108 182.489 340.485 183.626L342.238 184.588ZM344.139 182.433C344.975 181.855 345.923 181.421 346.996 181.137L346.483 179.203C345.202 179.543 344.039 180.07 343.001 180.789L344.139 182.433ZM346.973 181.142C348.108 180.87 349.253 180.715 350.412 180.715V178.715C349.073 178.715 347.771 178.894 346.506 179.198L346.973 181.142ZM350.412 180.715C351.566 180.715 352.603 180.869 353.62 181.156L354.165 179.232C352.974 178.895 351.754 178.715 350.412 178.715V180.715ZM353.62 181.156C354.616 181.438 355.481 181.864 356.211 182.427L357.432 180.843C356.48 180.109 355.379 179.575 354.164 179.232L353.62 181.156ZM356.211 182.427C356.946 182.994 357.542 183.676 357.972 184.515L359.752 183.603C359.173 182.475 358.376 181.571 357.432 180.843L356.211 182.427ZM357.977 184.524C358.391 185.313 358.629 186.323 358.629 187.54H360.629C360.629 186.068 360.342 184.726 359.747 183.594L357.977 184.524ZM358.629 187.54C358.629 188.397 358.503 189.138 358.24 189.824L360.108 190.538C360.47 189.591 360.629 188.603 360.629 187.54H358.629ZM358.24 189.824C357.966 190.539 357.584 191.202 357.105 191.832L358.697 193.042C359.276 192.281 359.758 191.454 360.108 190.539L358.24 189.824ZM357.104 191.833C356.633 192.455 356.073 193.016 355.42 193.517L356.637 195.104C357.426 194.499 358.115 193.811 358.699 193.04L357.104 191.833ZM355.408 193.527C354.764 194.037 354.077 194.48 353.325 194.856L354.22 196.645C355.101 196.204 355.903 195.686 356.65 195.094L355.408 193.527ZM353.043 196.435L357.124 200.78L358.582 199.411L354.501 195.066L353.043 196.435ZM358.658 200.689L361.755 196.488L360.146 195.301L357.048 199.502L358.658 200.689ZM360.95 196.894H368.728V194.894H360.95V196.894ZM367.929 195.293L361.256 204.151L362.853 205.354L369.527 196.496L367.929 195.293ZM362.054 205.753H362.078V203.753H362.054V205.753Z" fill="black" mask="url(#path-19-inside-2_450_86)"/>
<path d="M414.93 201.343L422.134 181.007H431.819V211.694H425.833V187.877V187.377H425.333H425.237H424.88L424.764 187.715L416.55 211.694H411.941L404.06 187.721L403.947 187.377H403.585H403.489H402.989V187.877V211.694H397.003V181.007H406.712L413.891 201.342L414.009 201.676H414.363H414.459H414.812L414.93 201.343Z" fill="#F2F2F2" stroke="black"/>
<path d="M457.141 189.225H456.799L456.675 189.544L452.835 199.386L452.569 200.067H453.3H461.054H461.789L461.519 199.384L457.63 189.542L457.505 189.225H457.165H457.141ZM463.846 205.284L463.719 204.973H463.383H451.068H450.727L450.602 205.29L448.086 211.694H441.482L454.757 181.007H459.887L473.23 211.694H466.456L463.846 205.284Z" fill="#F2F2F2" stroke="black"/>
<path d="M489.001 186.388V193.383L488.27 194.114H489.477H493.606H493.616C494.231 194.114 494.922 194.114 495.641 194.04C496.378 193.989 497.073 193.835 497.674 193.601C498.344 193.348 498.87 192.928 499.301 192.391L499.306 192.385L499.311 192.378C499.756 191.784 499.963 190.994 499.963 190.062C499.963 189.177 499.781 188.45 499.402 187.868L499.397 187.86L499.392 187.853C499.011 187.31 498.543 186.896 497.967 186.594L497.959 186.589L497.95 186.585C497.407 186.326 496.779 186.116 496.045 186.036C495.377 185.937 494.708 185.888 494.061 185.888H489.501H489.001V186.388ZM488.953 199.543V211.718H482.967V181.007H494.758C496.331 181.007 497.833 181.171 499.237 181.476C500.622 181.776 501.836 182.282 502.859 182.963L502.859 182.963L502.863 182.966C503.882 183.631 504.668 184.567 505.286 185.733C505.885 186.889 506.188 188.339 506.188 190.134C506.188 192.274 505.638 194.063 504.535 195.549L504.534 195.55C503.469 196.992 501.885 197.943 499.758 198.331L499.046 198.461L499.419 199.081L507.029 211.718H499.838L493.353 199.312L493.212 199.043H492.909H489.453H488.953V199.543Z" fill="#F2F2F2" stroke="black"/>
<path d="M517.176 211.694V181.007H523.16V211.694H517.176Z" fill="#F2F2F2" stroke="black"/>
<path d="M558.849 202.521V181.007H564.834V211.694H556.492L542.787 189.368L542.64 189.129H542.361H542.289H541.789V189.629V211.694H535.804V181.007H544.505L557.827 202.782L557.973 203.021H558.253H558.349H558.849V202.521Z" fill="#F2F2F2" stroke="black"/>
<path d="M584.323 206.237H599.163V211.694H577.838V181.007H598.37V186.44H584.323H583.823V186.94V192.846V193.346H584.323H597.554V198.803H584.323H583.823V199.303V205.737V206.237H584.323Z" fill="#F2F2F2" stroke="black"/>
</g>
<defs>
<clipPath id="clip0_450_86">
<rect width="599.325" height="183" fill="white" transform="translate(0.337646 34)"/>
</clipPath>
</defs>
</svg>
