<svg width="600" height="250" viewBox="0 0 600 250" fill="none" xmlns="http://www.w3.org/2000/svg">
<g clip-path="url(#clip0_450_112)">
<mask id="mask0_450_112" style="mask-type:luminance" maskUnits="userSpaceOnUse" x="0" y="34" width="600" height="183">
<path d="M599.325 34H0V217H599.325V34Z" fill="white"/>
</mask>
<g mask="url(#mask0_450_112)">
<path d="M313.601 34.7197C313.752 34.6084 313.954 34.5918 314.122 34.6768C314.29 34.7619 314.396 34.9346 314.396 35.123V146.323C314.396 146.599 314.172 146.823 313.896 146.823L271.48 146.847C271.348 146.847 271.221 146.795 271.127 146.701C271.033 146.607 270.98 146.479 270.98 146.347V107.649L216.627 146.849C216.625 146.85 216.623 146.85 216.621 146.852C216.602 146.865 216.583 146.877 216.562 146.888C216.554 146.892 216.545 146.894 216.537 146.897C216.484 146.921 216.429 146.937 216.372 146.941H216.297C216.24 146.937 216.184 146.921 216.131 146.897C216.123 146.894 216.114 146.892 216.106 146.888C216.086 146.877 216.066 146.865 216.047 146.852C216.045 146.85 216.044 146.85 216.042 146.849L118.479 76.4883C118.349 76.3944 118.272 76.2436 118.271 76.083V35.123L118.276 35.0537C118.299 34.8932 118.399 34.7513 118.546 34.6768C118.714 34.5919 118.916 34.6084 119.067 34.7197L216.334 106.033L313.601 34.7197Z" fill="#00B451" stroke="black" stroke-linejoin="round"/>
<path d="M96.8691 106.879L96.4746 145.456L38.4551 104.286L37.665 103.726V145.94L0.5 145.918V36.1094L96.8691 106.879Z" fill="#F2F2F2" stroke="black"/>
<path d="M271.48 106.676V146.346L313.896 146.322V76.082L271.48 106.676Z" fill="#F2F2F2"/>
<path d="M216.335 106.652L118.772 35.1221V76.0817L216.335 146.442V106.652Z" fill="#F2F2F2"/>
<path d="M216.335 106.652L313.896 35.1221V76.0817L216.335 146.442V106.652Z" fill="#00B451"/>
<mask id="path-7-inside-1_450_112" fill="white">
<path d="M394.096 120.768H385.189V65.0959H393.882C414.469 65.0959 425.814 73.1207 425.814 92.9198C425.814 112.719 414.445 120.744 394.096 120.744M440.168 49.6913C427.772 40.3291 409.191 35.0986 387.266 35.0986H346.641V146.442H386.908C407.996 146.442 425.695 142.454 439.977 131.634C452.944 121.795 459.537 107.536 459.537 91.3436C459.537 75.1507 453.137 59.6267 440.168 49.6913Z"/>
</mask>
<path d="M394.096 120.768H385.189V65.0959H393.882C414.469 65.0959 425.814 73.1207 425.814 92.9198C425.814 112.719 414.445 120.744 394.096 120.744M440.168 49.6913C427.772 40.3291 409.191 35.0986 387.266 35.0986H346.641V146.442H386.908C407.996 146.442 425.695 142.454 439.977 131.634C452.944 121.795 459.537 107.536 459.537 91.3436C459.537 75.1507 453.137 59.6267 440.168 49.6913Z" fill="#F2F2F2"/>
<path d="M385.189 120.768H384.189V121.768H385.189V120.768ZM385.189 65.0959V64.0959H384.189V65.0959H385.189ZM440.168 49.6913L440.776 48.8975L440.77 48.8933L440.168 49.6913ZM346.641 35.0986V34.0986H345.641V35.0986H346.641ZM346.641 146.442H345.641V147.442H346.641V146.442ZM439.977 131.634L440.58 132.432L440.581 132.431L439.977 131.634ZM394.096 119.768H385.189V121.768H394.096V119.768ZM386.189 120.768V65.0959H384.189V120.768H386.189ZM385.189 66.0959H393.882V64.0959H385.189V66.0959ZM393.882 66.0959C404.075 66.0959 411.781 68.0877 416.93 72.3533C422.04 76.5866 424.814 83.2138 424.814 92.9198H426.814C426.814 82.8267 423.914 75.5419 418.206 70.8131C412.536 66.1165 404.276 64.0959 393.882 64.0959V66.0959ZM424.814 92.9198C424.814 102.625 422.034 109.254 416.946 113.488C411.82 117.753 404.168 119.744 394.096 119.744V121.744C404.373 121.744 412.58 119.722 418.225 115.025C423.908 110.297 426.814 103.013 426.814 92.9198H424.814ZM440.77 48.8933C428.146 39.3587 409.329 34.0986 387.266 34.0986V36.0986C409.054 36.0986 427.397 41.2994 439.565 50.4893L440.77 48.8933ZM387.266 34.0986H346.641V36.0986H387.266V34.0986ZM345.641 35.0986V146.442H347.641V35.0986H345.641ZM346.641 147.442H386.908V145.442H346.641V147.442ZM386.908 147.442C408.115 147.442 426.059 143.432 440.58 132.432L439.373 130.837C425.33 141.475 407.878 145.442 386.908 145.442V147.442ZM440.581 132.431C453.814 122.39 460.537 107.828 460.537 91.3436H458.537C458.537 107.244 452.075 121.199 439.372 130.838L440.581 132.431ZM460.537 91.3436C460.537 74.8936 454.032 59.0527 440.776 48.8975L439.559 50.4851C452.241 60.2007 458.537 75.4079 458.537 91.3436H460.537Z" fill="black" mask="url(#path-7-inside-1_450_112)"/>
<path d="M547.815 34.7861H548.454C568.5 34.7861 584.494 42.2301 595.351 50.9268L574.975 71.2568C568.959 64.9246 560.122 60.9414 550.27 60.9414C532.195 60.9414 517.479 74.3322 517.479 90.9619C517.48 107.591 532.195 120.981 550.27 120.981C560.362 120.981 569.393 116.809 575.416 110.214L595.436 130.994C584.659 139.866 568.799 147.063 548.525 147.063C530.124 147.016 514.453 141.535 501.463 130.655H501.464C488.428 119.634 481.938 106.347 481.938 90.9141C481.938 75.482 488.427 62.2171 501.464 51.0996C514.398 40.1576 529.878 34.6298 547.885 34.502L547.815 34.7861Z" fill="#F2F2F2" stroke="black"/>
<path d="M411.82 180.521V185.923H397.346V192.821H411.032V198.223H397.346V205.623H412.631V211.048H391.396V180.521H411.82Z" fill="#F2F2F2" stroke="black"/>
<path d="M433.104 180.521L446.357 202.184L446.503 202.423H447.378V180.521H453.328V211.048H445.009L431.399 188.836L431.252 188.597H430.377V211.048H424.45V180.521H433.104Z" fill="#F2F2F2" stroke="black"/>
<path d="M486.67 180.521V185.923H472.196V192.821H485.858V198.223H472.196V205.623H487.458V211.048H466.246V180.521H486.67Z" fill="#F2F2F2" stroke="black"/>
<path d="M510.98 180.521C512.35 180.521 513.665 180.648 514.909 180.882L515.437 180.988C516.643 181.25 517.717 181.667 518.648 182.222L519.039 182.468C520.034 183.132 520.84 184.066 521.452 185.22V185.221C522.049 186.371 522.35 187.814 522.35 189.6C522.35 191.596 521.869 193.284 520.905 194.705L520.706 194.985L520.705 194.986C519.646 196.421 518.07 197.366 515.954 197.753L515.242 197.883L515.616 198.503L523.183 211.048H516.037L509.586 198.706L509.445 198.438H505.203V211.048H499.253V180.521H510.98ZM505.203 193.238L505.342 193.384L505.364 193.407L505.512 193.562H509.81C510.423 193.562 511.111 193.562 511.826 193.488L511.827 193.489C512.551 193.439 513.259 193.313 513.88 193.043L513.879 193.042C514.427 192.824 514.911 192.485 515.311 192.043L515.479 191.846C515.962 191.243 516.137 190.441 516.137 189.527C516.137 188.758 516 188.101 515.69 187.557L515.547 187.33C515.167 186.788 514.701 186.376 514.128 186.075L514.119 186.07L514.11 186.066L513.902 185.972C513.408 185.757 512.847 185.588 512.205 185.52H512.204C511.542 185.422 510.88 185.373 510.241 185.373H505.203V193.238Z" fill="#F2F2F2" stroke="black"/>
<path d="M548.239 179.733C550.506 179.733 552.707 180.002 554.685 180.517L555.078 180.623C556.964 181.153 558.633 182.053 560.09 183.306L555.885 187.9C555.111 187.178 554.266 186.593 553.359 186.149L552.901 185.939L552.898 185.938L552.657 185.841C551.432 185.371 549.964 185.135 548.262 185.135C546.824 185.135 545.496 185.352 544.271 185.839L544.033 185.938C542.935 186.398 541.948 187.035 541.109 187.83L540.759 188.18V188.181C539.851 189.139 539.146 190.271 538.67 191.576C538.194 192.876 537.947 194.296 537.947 195.809C537.947 197.131 538.137 198.402 538.503 199.57L538.67 200.064C539.087 201.209 539.68 202.201 540.428 203.071L540.759 203.437V203.438C541.665 204.394 542.749 205.151 544.032 205.679V205.68C545.295 206.21 546.699 206.483 548.262 206.483C549.61 206.483 550.823 206.352 551.881 206.083L552.325 205.96C553.444 205.62 554.363 205.249 555.05 204.867L555.306 204.724V198.82H549.646V193.418H560.97V209.006C559.284 209.866 557.551 210.516 555.753 210.966L554.94 211.155C552.754 211.625 550.52 211.859 548.239 211.859C545.982 211.859 543.899 211.531 541.985 210.879L541.604 210.744C539.716 210.049 538.075 209.051 536.657 207.785L536.377 207.528C535.017 206.232 533.918 204.672 533.119 202.844L532.964 202.475C532.154 200.486 531.734 198.283 531.734 195.809C531.734 193.49 532.103 191.407 532.816 189.518L532.964 189.143C533.773 187.154 534.926 185.472 536.377 184.089C537.765 182.788 539.375 181.751 541.23 181.017L541.604 180.874C543.624 180.13 545.835 179.733 548.239 179.733Z" fill="#F2F2F2" stroke="black"/>
<path d="M581.028 197.953L580.946 197.828L569.609 180.521H577.037L583.581 192.067L584.004 192.813L584.444 192.077L591.368 180.521H598.399L587.061 197.828L586.979 197.953V211.048H581.028V197.953Z" fill="#F2F2F2" stroke="black"/>
</g>
</g>
<defs>
<clipPath id="clip0_450_112">
<rect width="599.325" height="183" fill="white" transform="translate(0 34)"/>
</clipPath>
</defs>
</svg>
