<svg width="600" height="250" viewBox="0 0 600 250" fill="none" xmlns="http://www.w3.org/2000/svg">
<g clip-path="url(#clip0_450_112)">
<mask id="mask0_450_112" style="mask-type:luminance" maskUnits="userSpaceOnUse" x="0" y="34" width="600" height="183">
<path d="M599.325 34H0V217H599.325V34Z" fill="white"/>
</mask>
<g mask="url(#mask0_450_112)">
<path d="M216.335 106.033L119.067 34.7198C118.915 34.6084 118.714 34.5919 118.545 34.6771C118.377 34.7622 118.271 34.9346 118.271 35.123V76.0827C118.271 76.2434 118.349 76.3943 118.479 76.4882L216.042 146.848C216.061 146.862 216.081 146.874 216.101 146.885C216.103 146.886 216.105 146.887 216.107 146.888C216.248 146.96 216.418 146.962 216.562 146.888C216.583 146.877 216.603 146.865 216.622 146.852C216.624 146.851 216.625 146.849 216.627 146.848L216.335 106.033ZM216.335 106.033L313.601 34.7198C313.753 34.6084 313.954 34.5919 314.122 34.6771C314.291 34.7622 314.396 34.9346 314.396 35.123L314.396 76.0828V146.323C314.396 146.599 314.173 146.823 313.897 146.823L271.481 146.847C271.348 146.847 271.221 146.795 271.127 146.701C271.033 146.607 270.98 146.48 270.98 146.347V107.649L216.627 146.848L216.335 106.033Z" fill="#00B451" stroke="black" stroke-linejoin="round"/>
<path d="M37.6653 104.694V145.941L0.5 145.918V36.1096L96.8692 106.88L96.4755 145.457L38.4547 104.286L37.6653 103.726V104.694Z" fill="#F2F2F2" stroke="black"/>
<path d="M271.48 106.676V146.346L313.896 146.322V76.082L271.48 106.676Z" fill="#F2F2F2"/>
<path d="M216.335 106.652L118.771 35.1221V76.0817L216.335 146.442V106.652Z" fill="#F2F2F2"/>
<path d="M216.334 106.652L313.896 35.1221V76.0817L216.334 146.442V106.652Z" fill="#00B451"/>
<mask id="path-7-inside-1_450_112" fill="white">
<path d="M394.096 120.768H385.189V65.0959H393.882C414.469 65.0959 425.814 73.1207 425.814 92.9198C425.814 112.719 414.445 120.744 394.096 120.744M440.168 49.6913C427.772 40.3291 409.191 35.0986 387.266 35.0986H346.641V146.442H386.908C407.996 146.442 425.695 142.454 439.977 131.634C452.944 121.795 459.537 107.536 459.537 91.3436C459.537 75.1507 453.137 59.6267 440.168 49.6913Z"/>
</mask>
<path d="M394.096 120.768H385.189V65.0959H393.882C414.469 65.0959 425.814 73.1207 425.814 92.9198C425.814 112.719 414.445 120.744 394.096 120.744M440.168 49.6913C427.772 40.3291 409.191 35.0986 387.266 35.0986H346.641V146.442H386.908C407.996 146.442 425.695 142.454 439.977 131.634C452.944 121.795 459.537 107.536 459.537 91.3436C459.537 75.1507 453.137 59.6267 440.168 49.6913Z" fill="#F2F2F2"/>
<path d="M385.189 120.768H384.189V121.768H385.189V120.768ZM385.189 65.0959V64.0959H384.189V65.0959H385.189ZM440.168 49.6913L440.776 48.8975L440.77 48.8933L440.168 49.6913ZM346.641 35.0986V34.0986H345.641V35.0986H346.641ZM346.641 146.442H345.641V147.442H346.641V146.442ZM439.977 131.634L440.58 132.432L440.581 132.431L439.977 131.634ZM394.096 119.768H385.189V121.768H394.096V119.768ZM386.189 120.768V65.0959H384.189V120.768H386.189ZM385.189 66.0959H393.882V64.0959H385.189V66.0959ZM393.882 66.0959C404.075 66.0959 411.781 68.0877 416.93 72.3533C422.04 76.5866 424.814 83.2138 424.814 92.9198H426.814C426.814 82.8267 423.914 75.5419 418.206 70.8131C412.536 66.1165 404.276 64.0959 393.882 64.0959V66.0959ZM424.814 92.9198C424.814 102.625 422.034 109.254 416.946 113.488C411.82 117.753 404.168 119.744 394.096 119.744V121.744C404.373 121.744 412.58 119.722 418.225 115.025C423.908 110.297 426.814 103.013 426.814 92.9198H424.814ZM440.77 48.8933C428.146 39.3587 409.329 34.0986 387.266 34.0986V36.0986C409.054 36.0986 427.397 41.2994 439.565 50.4893L440.77 48.8933ZM387.266 34.0986H346.641V36.0986H387.266V34.0986ZM345.641 35.0986V146.442H347.641V35.0986H345.641ZM346.641 147.442H386.908V145.442H346.641V147.442ZM386.908 147.442C408.115 147.442 426.059 143.432 440.58 132.432L439.373 130.837C425.33 141.475 407.878 145.442 386.908 145.442V147.442ZM440.581 132.431C453.814 122.39 460.537 107.828 460.537 91.3436H458.537C458.537 107.244 452.075 121.199 439.372 130.838L440.581 132.431ZM460.537 91.3436C460.537 74.8936 454.032 59.0527 440.776 48.8975L439.559 50.4851C452.241 60.2007 458.537 75.4079 458.537 91.3436H460.537Z" fill="black" mask="url(#path-7-inside-1_450_112)"/>
<path d="M550.27 120.981C560.362 120.981 569.395 116.812 575.418 110.216L595.439 130.997C584.663 139.869 568.8 147.064 548.527 147.065C530.124 147.017 514.453 141.535 501.463 130.655C488.427 119.634 481.938 106.346 481.938 90.9137C481.938 75.4814 488.427 62.2169 501.465 51.0992C514.399 40.1574 529.879 34.6299 547.886 34.5023L547.816 34.7866H548.454C568.501 34.7866 584.497 42.2277 595.354 50.9246L574.977 71.2554C568.961 64.9229 560.122 60.9418 550.27 60.9418C532.195 60.9418 517.479 74.3318 517.479 90.9615C517.479 107.591 532.195 120.981 550.27 120.981Z" fill="#F2F2F2" stroke="black"/>
<path d="M397.847 205.623H412.632V211.048H391.396V180.521H411.82V185.923H397.847H397.347V186.423V192.321V192.821H397.847H411.032V198.223H397.847H397.347V198.723V205.123V205.623H397.847Z" fill="#F2F2F2" stroke="black"/>
<path d="M447.378 201.923V180.521H453.329V211.048H445.009L431.398 188.836L431.252 188.597H430.972H430.877H430.377V189.097V211.048H424.45V180.521H433.104L446.357 202.184L446.503 202.423H446.783H446.878H447.378V201.923Z" fill="#F2F2F2" stroke="black"/>
<path d="M472.696 205.623H487.458V211.048H466.246V180.521H486.67V185.923H472.696H472.196V186.423V192.321V192.821H472.696H485.858V198.223H472.696H472.196V198.723V205.123V205.623H472.696Z" fill="#F2F2F2" stroke="black"/>
<path d="M505.364 193.408L505.512 193.563H505.726H509.81H509.82C510.433 193.563 511.121 193.563 511.836 193.489C512.553 193.438 513.254 193.313 513.871 193.047C514.502 192.798 515.048 192.386 515.48 191.845C515.962 191.242 516.138 190.441 516.138 189.527C516.138 188.648 515.957 187.916 515.546 187.33L515.546 187.33C515.166 186.788 514.7 186.376 514.127 186.075L514.119 186.071L514.11 186.067C513.569 185.809 512.945 185.6 512.215 185.521C511.55 185.422 510.884 185.373 510.241 185.373H505.703H505.203V185.873V193.039V193.239L505.341 193.384L505.364 193.408ZM520.706 194.986L520.705 194.987C519.646 196.421 518.07 197.366 515.954 197.753L515.242 197.883L515.616 198.503L523.183 211.048H516.037L509.586 198.706L509.445 198.438H509.143H505.703H505.203V198.938V211.048H499.253V180.521H510.981C512.546 180.521 514.039 180.686 515.437 180.988C516.815 181.287 518.021 181.79 519.039 182.468C520.035 183.132 520.841 184.067 521.453 185.222C522.049 186.372 522.35 187.815 522.35 189.599C522.35 191.729 521.803 193.508 520.706 194.986Z" fill="#F2F2F2" stroke="black"/>
<path d="M560.97 209.01V193.418H549.646V198.82H554.807H555.307V199.32V204.43V204.724L555.05 204.867C554.363 205.249 553.444 205.62 552.325 205.96C551.167 206.312 549.802 206.483 548.262 206.483C546.699 206.483 545.296 206.21 544.034 205.68C542.75 205.152 541.666 204.394 540.759 203.437L540.759 203.437C539.854 202.481 539.147 201.373 538.67 200.064M560.97 209.01L554.941 211.155C552.755 211.624 550.521 211.86 548.239 211.86C545.832 211.86 543.622 211.486 541.605 210.745C539.591 210.003 537.858 208.917 536.378 207.53C534.927 206.147 533.773 204.464 532.963 202.475C532.154 200.486 531.734 198.283 531.734 195.809C531.734 193.336 532.154 191.131 532.963 189.143C533.773 187.153 534.927 185.47 536.378 184.087C537.858 182.7 539.591 181.614 541.604 180.874L541.605 180.874C543.625 180.13 545.835 179.733 548.239 179.733C550.658 179.733 553 180.04 555.078 180.623C556.964 181.153 558.634 182.053 560.091 183.306L555.885 187.901C554.983 187.058 553.983 186.402 552.901 185.939L552.898 185.938C551.627 185.403 550.077 185.135 548.262 185.135C546.729 185.135 545.322 185.381 544.03 185.939C542.776 186.465 541.668 187.221 540.759 188.18L540.759 188.18C539.851 189.139 539.146 190.272 538.67 191.577C538.195 192.877 537.947 194.296 537.947 195.809C537.947 197.32 538.194 198.763 538.67 200.064M560.97 209.01C559.032 209.998 557.03 210.705 554.941 211.155L560.97 209.01ZM538.67 200.064C538.67 200.064 538.67 200.064 538.67 200.064L539.14 199.893L538.67 200.065C538.67 200.065 538.67 200.065 538.67 200.064Z" fill="#F2F2F2" stroke="black"/>
<path d="M581.028 198.102V197.953L580.947 197.828L569.608 180.521H577.037L583.581 192.067L584.004 192.813L584.445 192.077L591.369 180.521H598.399L587.061 197.828L586.979 197.953V198.102V211.048H581.028V198.102Z" fill="#F2F2F2" stroke="black"/>
</g>
</g>
<defs>
<clipPath id="clip0_450_112">
<rect width="599.325" height="183" fill="white" transform="translate(0 34)"/>
</clipPath>
</defs>
</svg>
