<svg width="600" height="250" viewBox="0 0 600 250" fill="none" xmlns="http://www.w3.org/2000/svg">
<g clip-path="url(#clip0_1082_219)">
<path d="M306.152 210.463C304.877 209.124 303.355 208.064 301.584 207.287C299.814 206.515 297.76 206.122 295.425 206.122C293.091 206.122 290.857 206.565 288.945 207.443C287.032 208.324 285.413 209.508 284.083 210.988C282.758 212.469 281.739 214.191 281.029 216.147C280.318 218.107 279.965 220.164 279.965 222.311C279.965 224.459 280.318 226.519 281.029 228.475C281.735 230.431 282.753 232.153 284.083 233.634C285.413 235.114 287.032 236.298 288.945 237.18C290.857 238.061 293.017 238.5 295.425 238.5C297.374 238.5 299.241 238.262 301.03 237.787C302.818 237.312 304.419 236.668 305.836 235.854V223.316H296.861V219.825H309.661V238.185C307.538 239.418 305.208 240.364 302.676 241.018C300.144 241.671 297.727 241.996 295.425 241.996C292.627 241.996 290.036 241.502 287.647 240.515C285.257 239.528 283.184 238.162 281.432 236.416C279.68 234.671 278.309 232.601 277.318 230.198C276.328 227.799 275.832 225.171 275.832 222.316C275.832 219.46 276.328 216.832 277.318 214.434C278.309 212.035 279.68 209.96 281.432 208.215C283.184 206.469 285.257 205.103 287.647 204.116C290.036 203.129 292.632 202.636 295.425 202.636C298.434 202.636 301.03 203.052 303.203 203.879C305.382 204.706 307.322 205.967 309.019 207.662L306.152 210.467V210.463Z" fill="#00263A"/>
<path d="M355.841 241.045H352.016V203.586H363.592C367.417 203.586 370.434 204.413 372.645 206.072C374.86 207.73 375.966 210.234 375.966 213.584C375.966 216.193 375.14 218.39 373.494 220.172C371.847 221.954 369.467 222.987 366.348 223.266L377.181 241.045H372.507L362.207 223.636H355.832V241.045H355.841ZM355.841 220.145H362.638C364.339 220.145 365.779 219.967 366.967 219.615C368.15 219.263 369.1 218.797 369.811 218.212C370.517 217.632 371.031 216.942 371.352 216.147C371.673 215.352 371.829 214.497 371.829 213.579C371.829 212.661 371.673 211.861 371.352 211.066C371.031 210.271 370.522 209.576 369.811 208.978C369.104 208.379 368.155 207.908 366.967 207.575C365.779 207.241 364.339 207.072 362.638 207.072H355.841V220.14V220.145Z" fill="#00263A"/>
<path d="M450.315 222.316C450.315 225.171 449.819 227.799 448.829 230.198C447.833 232.597 446.467 234.666 444.715 236.416C442.963 238.162 440.89 239.528 438.5 240.515C436.111 241.502 433.519 241.996 430.717 241.996C427.915 241.996 425.328 241.502 422.939 240.515C420.549 239.528 418.476 238.162 416.724 236.416C414.972 234.671 413.601 232.601 412.61 230.198C411.62 227.799 411.124 225.171 411.124 222.316C411.124 219.46 411.62 216.828 412.61 214.434C413.601 212.035 414.972 209.96 416.724 208.215C418.476 206.469 420.549 205.103 422.939 204.116C425.328 203.129 427.919 202.636 430.717 202.636C433.515 202.636 436.106 203.129 438.5 204.116C440.89 205.103 442.963 206.469 444.715 208.215C446.467 209.96 447.838 212.035 448.829 214.434C449.819 216.832 450.315 219.46 450.315 222.316ZM446.173 222.316C446.173 220.164 445.82 218.107 445.109 216.152C444.403 214.196 443.385 212.473 442.055 210.993C440.729 209.513 439.106 208.329 437.198 207.447C435.285 206.565 433.125 206.127 430.717 206.127C428.309 206.127 426.149 206.57 424.241 207.447C422.329 208.329 420.71 209.513 419.38 210.993C418.054 212.473 417.036 214.196 416.325 216.152C415.614 218.107 415.261 220.164 415.261 222.316C415.261 224.468 415.614 226.524 416.325 228.48C417.032 230.435 418.05 232.158 419.38 233.638C420.71 235.119 422.329 236.302 424.241 237.184C426.154 238.066 428.314 238.505 430.717 238.505C433.12 238.505 435.285 238.061 437.198 237.184C439.11 236.302 440.729 235.119 442.055 233.638C443.385 232.158 444.403 230.435 445.109 228.48C445.815 226.524 446.173 224.468 446.173 222.316Z" fill="#00263A"/>
<path d="M510.584 227.077C510.584 228.63 510.396 230.28 510.024 232.025C509.653 233.771 508.955 235.384 507.928 236.864C506.901 238.344 505.493 239.574 503.704 240.542C501.915 241.511 499.622 242 496.829 242C494.036 242 491.697 241.516 489.922 240.542C488.152 239.574 486.753 238.349 485.726 236.864C484.698 235.384 484.001 233.771 483.63 232.025C483.258 230.28 483.07 228.63 483.07 227.077V203.586H486.895V226.656C486.895 228.457 487.069 229.996 487.423 231.285C487.776 232.573 488.248 233.661 488.831 234.538C489.413 235.42 490.069 236.115 490.794 236.626C491.523 237.138 492.247 237.536 492.972 237.819C493.697 238.102 494.394 238.285 495.068 238.376C495.738 238.463 496.325 238.509 496.82 238.509C497.279 238.509 497.857 238.463 498.544 238.376C499.237 238.29 499.943 238.102 500.668 237.819C501.393 237.536 502.122 237.138 502.846 236.626C503.571 236.115 504.227 235.42 504.809 234.538C505.392 233.656 505.86 232.573 506.217 231.285C506.571 229.996 506.749 228.452 506.749 226.656V203.586H510.574V227.077H510.584Z" fill="#00263A"/>
<path d="M549.086 203.586H560.024C563.849 203.586 566.867 204.413 569.078 206.072C571.293 207.73 572.398 210.234 572.398 213.584C572.398 216.933 571.293 219.446 569.078 221.123C566.867 222.8 563.849 223.636 560.024 223.636H552.906V241.045H549.081V203.586H549.086ZM552.911 220.145H559.07C560.772 220.145 562.212 219.967 563.4 219.615C564.588 219.263 565.532 218.797 566.243 218.212C566.95 217.632 567.463 216.942 567.784 216.147C568.101 215.352 568.261 214.497 568.261 213.579C568.261 212.661 568.105 211.861 567.784 211.066C567.463 210.271 566.954 209.576 566.243 208.978C565.532 208.379 564.588 207.908 563.4 207.575C562.212 207.241 560.772 207.072 559.07 207.072H552.911V220.14V220.145Z" fill="#00263A"/>
<path d="M61.4169 78.5841L41.7461 64.5884L24.0062 52V64.5884V89.4453V153.753L60.8894 153.785V115.604L114.403 153.753L114.563 117.377L61.4169 78.5841Z" fill="#00263A"/>
<path d="M277.749 117.007V155.44L314.628 155.408V90.5557L277.749 117.007Z" fill="#00263A"/>
<path d="M224.64 117.565L134.651 53.8096V91.2594L224.64 155.59V117.565Z" fill="#00263A"/>
<path d="M314.628 90.8343L224.64 155.01V117.565L314.628 54.3623V90.8343Z" fill="#009EE2"/>
<path d="M433.098 66.4438C421.829 57.9541 404.933 53.4854 385.014 53.4854H350.03V153.429H384.68C403.846 153.429 419.93 149.993 432.928 140.206C444.724 131.287 450.704 118.602 450.704 103.939C450.704 89.2766 444.889 75.4453 433.093 66.4438M391.211 129.911H383.96V78.4702H391.013C409.721 78.4702 420.049 86.2471 420.049 104.191C420.049 122.134 409.721 129.911 391.211 129.911Z" fill="#00263A"/>
<path d="M556.291 120.703C550.966 126.707 542.825 130.55 533.69 130.55C517.651 130.55 504.644 118.707 504.644 104.094C504.644 89.4814 517.647 77.6378 533.69 77.6378C542.61 77.6378 550.581 81.3024 555.91 87.0597L574.916 68.1611C565.074 60.1694 550.453 53.2926 532.057 53.2926L532.13 53.0459C515.578 53.0459 501.37 58.0447 489.496 68.0423C477.672 78.081 471.76 90.0845 471.76 104.067C471.76 118.049 477.672 130.075 489.496 140.027C501.269 149.86 515.482 154.795 532.13 154.836C550.709 154.836 565.211 148.188 574.989 140.027L556.286 120.708L556.291 120.703Z" fill="#00263A"/>
</g>
<defs>
<clipPath id="clip0_1082_219">
<rect width="551" height="190" fill="white" transform="translate(24 52)"/>
</clipPath>
</defs>
</svg>
