<svg width="600" height="250" viewBox="0 0 600 250" fill="none" xmlns="http://www.w3.org/2000/svg">
<path d="M430.59 111.996V106.809L441.351 97.5433C442.024 96.9266 442.572 96.2941 442.987 95.6537C443.402 95.0133 443.61 94.2938 443.61 93.5032C443.61 92.5623 443.295 91.8033 442.672 91.2262C442.049 90.6411 441.219 90.3565 440.181 90.3565C439.084 90.3565 438.196 90.7202 437.507 91.4475C436.817 92.1749 436.411 93.1395 436.278 94.3254L430 93.5111C430.158 92.1749 430.54 90.9811 431.154 89.9374C431.769 88.8938 432.541 88.0004 433.479 87.2651C434.418 86.5298 435.489 85.9685 436.693 85.5811C437.905 85.1937 439.184 85.0039 440.538 85.0039C441.808 85.0039 443.045 85.162 444.241 85.4862C445.437 85.8103 446.5 86.3005 447.438 86.9726C448.376 87.6446 449.124 88.4827 449.68 89.4947C450.237 90.5146 450.519 91.7005 450.519 93.0604C450.519 94.0013 450.386 94.8472 450.129 95.6063C449.871 96.3653 449.514 97.061 449.057 97.7014C448.601 98.3497 448.078 98.9427 447.496 99.5041C446.907 100.057 446.309 100.611 445.686 101.156L439.292 106.58H450.56V112.004H430.59V111.996ZM473.213 106.873V111.996H467.093V106.873H454.106V101.639L465.341 85.7076H473.18V101.821H477V106.873H473.213ZM467.127 92.0959H467.01L460.459 101.829H467.127V92.0959Z" fill="#B18908"/>
<path d="M538.053 63.3666C533.403 52.7394 526.963 43.7113 518.76 36.2655C510.549 28.8198 500.865 23.0814 489.717 19.0504C478.561 15.0194 466.481 13.0039 453.461 13.0039C440.441 13.0039 428.37 15.0194 417.213 19.0504C406.057 23.0814 396.415 28.8198 388.287 36.2655C380.15 43.7029 373.761 52.7394 369.119 63.3666C368.769 64.1578 368.437 64.9657 368.112 65.7819C367.546 57.7532 365.674 50.8988 362.488 45.2271C358.611 38.3227 353.545 32.8258 347.272 28.7115C340.991 24.5972 333.869 21.7322 325.891 20.0998C317.913 18.4758 309.893 17.6596 301.848 17.6596H230.974V61.2678C226.415 51.5484 220.301 43.2115 212.638 36.2739C204.427 28.8281 194.743 23.0898 183.587 19.0588C172.422 15.0194 160.334 13.0039 147.322 13.0039C134.311 13.0039 122.223 15.0194 111.075 19.0504C99.9183 23.0814 90.2761 28.8198 82.1397 36.2655C74.0033 43.7029 67.6223 52.7394 62.9717 63.3666C58.3211 73.9939 56 85.8953 56 99.0794C56 112.264 58.3211 124.282 62.9717 135.134C67.6223 145.994 74.0033 155.264 82.1397 162.934C90.2761 170.605 99.91 176.543 111.075 180.724C122.231 184.913 134.311 187.004 147.322 187.004C160.334 187.004 172.422 184.913 183.57 180.724C194.727 176.535 204.402 170.605 212.622 162.934C220.284 155.772 226.39 147.21 230.958 137.282V182.365H284.635V123.507H286.265L317.779 182.365H381.307L339.56 115.595C348.828 111.414 355.932 105.476 360.874 97.8052C361.332 97.0889 361.773 96.3643 362.189 95.6231C362.147 96.7641 362.13 97.9218 362.13 99.0794C362.13 112.264 364.452 124.282 369.102 135.134C373.744 145.994 380.134 155.264 388.27 162.934C396.398 170.605 406.04 176.543 417.197 180.724C428.353 184.913 440.433 187.004 453.445 187.004C466.456 187.004 478.544 184.913 489.701 180.724C500.857 176.535 510.533 170.605 518.744 162.934C526.955 155.255 533.386 145.986 538.037 135.134C542.679 124.282 545 112.264 545 99.0794C545 85.8953 542.679 73.9939 538.037 63.3666M177.414 113.971C175.792 118.468 173.504 122.349 170.559 125.606C167.622 128.862 164.169 131.386 160.226 133.16C156.274 134.942 151.973 135.833 147.331 135.833C142.689 135.833 138.346 134.942 134.311 133.16C130.284 131.378 126.832 128.854 123.97 125.606C121.108 122.349 118.862 118.468 117.231 113.971C115.609 109.473 114.793 104.51 114.793 99.0794C114.793 93.6492 115.609 88.9603 117.231 84.5378C118.862 80.1153 121.108 76.3925 123.97 73.3692C126.832 70.346 130.284 67.9806 134.311 66.2816C138.337 64.5743 142.68 63.7164 147.331 63.7164C151.981 63.7164 156.274 64.5743 160.226 66.2816C164.178 67.989 167.622 70.346 170.559 73.3692C173.504 76.4008 175.792 80.1153 177.414 84.5378C179.045 88.9603 179.851 93.8075 179.851 99.0794C179.851 104.351 179.036 109.473 177.414 113.971ZM312.189 80.5901C310.883 82.3724 309.26 83.7716 307.347 84.7793C305.425 85.7871 303.354 86.445 301.124 86.7532C298.894 87.0697 296.856 87.2113 295.009 87.2113H284.169V60.6848H297.314C299.002 60.6848 300.849 60.8014 302.846 61.0346C304.843 61.2678 306.69 61.8175 308.378 62.667C310.067 63.5165 311.457 64.7991 312.53 66.4982C313.603 68.2055 314.144 70.5375 314.144 73.4775C314.144 76.4175 313.487 78.7911 312.18 80.5734M483.544 113.954C481.922 118.452 479.626 122.333 476.689 125.589C473.744 128.846 470.3 131.369 466.348 133.143C462.405 134.926 458.095 135.817 453.445 135.817C448.794 135.817 444.46 134.926 440.433 133.143C436.398 131.361 432.954 128.837 430.092 125.589C427.222 122.333 424.975 118.452 423.353 113.954C421.731 109.457 420.916 104.493 420.916 99.0628C420.916 93.6326 421.731 88.9436 423.353 84.5211C424.975 80.0987 427.222 76.3758 430.092 73.3526C432.954 70.3293 436.398 67.964 440.433 66.265C444.46 64.5576 448.802 63.6998 453.445 63.6998C458.087 63.6998 462.396 64.5576 466.348 66.265C470.3 67.9723 473.744 70.3293 476.689 73.3526C479.626 76.3841 481.922 80.0987 483.544 84.5211C485.175 88.9436 485.982 93.7908 485.982 99.0628C485.982 104.335 485.167 109.457 483.544 113.954Z" fill="#221F20"/>
<path d="M85 216.013H91.6475C92.8607 216.013 94.0902 216.179 95.3279 216.52C96.5656 216.861 97.6721 217.421 98.6639 218.199C99.6557 218.977 100.459 220.009 101.074 221.277C101.689 222.554 102 224.128 102 226.008C102 227.757 101.689 229.27 101.074 230.529C100.459 231.789 99.6557 232.829 98.6639 233.634C97.6721 234.447 96.5656 235.042 95.3279 235.427C94.0902 235.812 92.8607 236.004 91.6475 236.004H85V216.004V216.013ZM91.1148 232.908C91.9754 232.908 92.8443 232.803 93.7131 232.585C94.5738 232.366 95.3607 231.999 96.0574 231.483C96.7541 230.967 97.3279 230.258 97.7623 229.375C98.2049 228.492 98.4262 227.373 98.4262 226.017C98.4262 224.583 98.2049 223.42 97.7623 222.51C97.3197 221.601 96.7541 220.901 96.0574 220.394C95.3607 219.887 94.5738 219.537 93.7131 219.345C92.8443 219.161 91.9836 219.065 91.1148 219.065H88.3361V232.908H91.1148Z" fill="#7A7A7A"/>
<path d="M125 216.004H138.484V219.108H128.62V224.198H137.959V227.189H128.62V232.847H139V236.004H125V216.004Z" fill="#7A7A7A"/>
<path d="M159 216.004H162.767L167.983 231.404H168.091L173.365 216.004H177L169.399 236.004H166.485L159 216.004Z" fill="#7A7A7A"/>
<path d="M199 216.004H211.513V219.108H202.362V224.198H211.034V227.189H202.362V232.847H212V236.004H199V216.004Z" fill="#7A7A7A"/>
<path d="M236 216.004H239.244V232.847H247V236.004H236V216.004Z" fill="#7A7A7A"/>
<path d="M267 225.447C267 223.848 267.265 222.406 267.786 221.113C268.307 219.828 269.033 218.727 269.965 217.827C270.896 216.926 271.998 216.227 273.271 215.738C274.552 215.249 275.945 215.004 277.457 215.004C278.969 215.004 280.388 215.249 281.678 215.738C282.968 216.227 284.079 216.926 285.018 217.827C285.958 218.735 286.684 219.828 287.214 221.113C287.735 222.406 288 223.848 288 225.447C288 227.046 287.735 228.436 287.214 229.721C286.693 231.014 285.958 232.124 285.018 233.05C284.079 233.985 282.968 234.711 281.678 235.226C280.388 235.742 278.987 236.004 277.457 236.004C275.928 236.004 274.552 235.742 273.271 235.226C271.998 234.711 270.887 233.985 269.965 233.05C269.033 232.115 268.307 231.005 267.786 229.721C267.265 228.427 267 227.003 267 225.447ZM270.785 225.447C270.785 226.522 270.947 227.501 271.263 228.401C271.588 229.292 272.049 230.07 272.647 230.734C273.245 231.39 273.954 231.905 274.775 232.272C275.595 232.639 276.5 232.823 277.491 232.823C278.483 232.823 279.397 232.639 280.225 232.272C281.054 231.905 281.763 231.39 282.361 230.734C282.959 230.07 283.421 229.301 283.745 228.401C284.07 227.51 284.224 226.522 284.224 225.447C284.224 224.372 284.061 223.455 283.745 222.572C283.421 221.689 282.968 220.92 282.378 220.256C281.789 219.601 281.08 219.076 280.251 218.701C279.422 218.325 278.5 218.132 277.491 218.132C276.483 218.132 275.561 218.316 274.749 218.701C273.929 219.076 273.228 219.592 272.639 220.256C272.049 220.92 271.596 221.689 271.272 222.572C270.947 223.455 270.793 224.416 270.793 225.447" fill="#7A7A7A"/>
<path d="M311.016 216.004H317.044C318.102 216.004 319.063 216.109 319.912 216.318C320.76 216.528 321.495 216.86 322.101 217.332C322.707 217.804 323.184 218.407 323.507 219.141C323.838 219.875 324 220.757 324 221.797C324 222.906 323.806 223.841 323.426 224.593C323.047 225.344 322.521 225.956 321.875 226.41C321.221 226.873 320.461 227.205 319.589 227.415C318.716 227.625 317.795 227.73 316.817 227.73H314.288V236.004H311V216.021L311.016 216.004ZM316.607 224.724C317.149 224.724 317.658 224.68 318.15 224.593C318.635 224.505 319.071 224.357 319.451 224.138C319.831 223.92 320.138 223.623 320.364 223.247C320.59 222.872 320.704 222.382 320.704 221.779C320.704 221.176 320.59 220.722 320.364 220.355C320.138 219.988 319.839 219.7 319.467 219.49C319.088 219.28 318.667 219.149 318.183 219.079C317.706 219.018 317.213 218.983 316.712 218.983H314.313V224.715H316.615L316.607 224.724Z" fill="#7A7A7A"/>
<path d="M347 216.004H352.16L356.972 230.215H357.053L361.816 216.004H367V236.004H363.727V219.93H363.671L358.049 236.004H355.74L350.2 219.93H350.143V236.004H347V216.004Z" fill="#7A7A7A"/>
<path d="M391 216.004H404.475V219.108H394.62V224.198H403.959V227.189H394.62V232.847H405V236.004H391V216.004Z" fill="#7A7A7A"/>
<path d="M427 216.004H431.545L440.509 230.975H440.568V216.004H444V236.004H439.64L430.483 220.551H430.432V236.004H427V216.004Z" fill="#7A7A7A"/>
<path d="M472.425 219.108H467V216.004H481V219.108H475.575V236.004H472.425V219.108Z" fill="#7A7A7A"/>
<path d="M513.553 220.448C513.181 219.982 512.653 219.591 511.979 219.283C511.296 218.967 510.613 218.817 509.921 218.817C509.514 218.817 509.099 218.867 508.693 218.967C508.287 219.067 507.915 219.217 507.578 219.425C507.24 219.633 506.972 219.899 506.756 220.232C506.548 220.565 506.436 220.964 506.436 221.43C506.436 221.863 506.531 222.229 506.721 222.529C506.903 222.837 507.162 223.095 507.491 223.311C507.82 223.528 508.209 223.719 508.676 223.877C509.143 224.036 509.653 224.202 510.215 224.36C510.846 224.56 511.503 224.785 512.187 225.034C512.87 225.284 513.492 225.617 514.063 226.033C514.634 226.441 515.101 226.965 515.455 227.589C515.818 228.214 516 228.996 516 229.928C516 230.952 515.801 231.842 515.412 232.6C515.014 233.366 514.495 233.998 513.847 234.497C513.19 234.997 512.429 235.38 511.555 235.629C510.673 235.879 509.757 236.004 508.788 236.004C507.5 236.004 506.246 235.779 505.018 235.321C503.79 234.864 502.787 234.19 502 233.291L504.516 231.035C505.001 231.684 505.649 232.192 506.462 232.567C507.275 232.941 508.07 233.133 508.849 233.133C509.255 233.133 509.679 233.083 510.111 232.983C510.535 232.883 510.924 232.716 511.27 232.483C511.616 232.25 511.893 231.959 512.109 231.609C512.325 231.26 512.429 230.827 512.429 230.303C512.429 229.778 512.308 229.387 512.065 229.054C511.823 228.721 511.495 228.438 511.088 228.197C510.673 227.956 510.189 227.748 509.636 227.564C509.073 227.39 508.494 227.198 507.88 226.999C507.283 226.824 506.687 226.607 506.09 226.358C505.493 226.108 504.957 225.775 504.49 225.359C504.015 224.951 503.626 224.443 503.332 223.844C503.038 223.245 502.882 222.496 502.882 221.597C502.882 220.631 503.09 219.799 503.513 219.1C503.937 218.401 504.482 217.818 505.165 217.361C505.848 216.903 506.618 216.562 507.482 216.337C508.347 216.112 509.229 216.004 510.12 216.004C511.123 216.004 512.143 216.17 513.172 216.512C514.21 216.853 515.109 217.361 515.87 218.043L513.579 220.465L513.553 220.448Z" fill="#7A7A7A"/>
<path d="M534.5 34.0039C528.713 34.0039 524 29.2914 524 23.5039C524 17.7164 528.713 13.0039 534.5 13.0039C540.287 13.0039 545 17.7164 545 23.5039C545 29.2914 540.287 34.0039 534.5 34.0039ZM534.5 14.4486C529.504 14.4486 525.445 18.5162 525.445 23.5039C525.445 28.4916 529.504 32.5592 534.5 32.5592C539.496 32.5592 543.555 28.5002 543.555 23.5039C543.555 18.5076 539.488 14.4486 534.5 14.4486Z" fill="#221F20"/>
<path d="M530.009 18.0039H534.762C536.083 18.0039 537.111 18.3262 537.794 18.9169C538.37 19.4157 538.69 20.1216 538.69 20.9732V20.9962C538.69 22.4464 537.785 23.3594 536.455 23.7891L539 27.0039H536.322L534.088 24.1267H532.288V27.0039H530V18.0039H530.009ZM534.62 22.3773C535.737 22.3773 536.375 21.8632 536.375 21.1037V21.0806C536.375 20.229 535.693 19.7916 534.575 19.7916H532.297V22.3773H534.62Z" fill="#221F20"/>
</svg>
