<svg width="600" height="250" viewBox="0 0 600 250" fill="none" xmlns="http://www.w3.org/2000/svg">
<mask id="mask0_934_97" style="mask-type:luminance" maskUnits="userSpaceOnUse" x="465" y="78" width="92" height="94">
<path d="M502.347 99.3069C492.031 107.347 482.308 112.358 470.994 118.132C469.266 119.035 467.415 119.98 465.66 120.888C475.4 129.438 485.849 138.295 501.046 147.813C526.953 164.038 556.061 171.783 556.813 171.977C551.111 164.506 539.963 147.367 532.388 123.605C525.529 102.137 522.318 79.375 522.233 78.7734C522.083 79.0474 517.133 87.7806 502.353 99.3176" fill="white"/>
</mask>
<g mask="url(#mask0_934_97)">
<path d="M554.06 63.0731L449.831 81.5791L468.409 187.674L572.639 169.168L554.06 63.0731Z" fill="url(#paint0_linear_934_97)"/>
</g>
<mask id="mask1_934_97" style="mask-type:luminance" maskUnits="userSpaceOnUse" x="372" y="67" width="151" height="54">
<path d="M372.619 70.0507C372.923 70.0722 397.977 73.5258 424.444 89.134C440.276 98.4205 450.752 107.702 461.836 117.531C463.116 118.632 464.407 119.792 465.66 120.887C467.191 120.098 469.036 119.158 470.994 118.132C482.313 112.358 492.037 107.342 502.347 99.3067C517.128 87.7751 522.078 79.0365 522.227 78.7626C521.587 79.0204 508.684 83.865 489.466 82.9036C461.185 81.4964 442.164 70.5664 416.849 68.3857C410.859 67.8755 405.317 67.6768 400.319 67.6768C383.954 67.6768 373.483 69.8037 372.614 70.0507" fill="white"/>
</mask>
<g mask="url(#mask1_934_97)">
<path d="M517.719 41.911L363.582 69.2783L377.13 146.647L531.267 119.279L517.719 41.911Z" fill="url(#paint1_linear_934_97)"/>
</g>
<mask id="mask2_934_97" style="mask-type:luminance" maskUnits="userSpaceOnUse" x="395" y="120" width="162" height="60">
<path d="M429.949 142.114C404.394 159.747 395.651 179.239 395.47 179.845C399.353 178.556 415.318 169.367 440.628 168.518C454.48 168.056 466.449 170.065 478.883 172.074C490.687 173.986 502.913 175.898 517.576 175.688C535.375 175.457 553.292 173.346 556.807 171.966C556.055 171.773 526.948 164.033 501.04 147.802C485.844 138.29 475.395 129.428 465.655 120.877C455.483 126.119 443.961 132.419 429.944 142.103" fill="white"/>
</mask>
<g mask="url(#mask2_934_97)">
<path d="M551.947 93.105L385.459 122.665L400.338 207.629L566.825 178.069L551.947 93.105Z" fill="url(#paint2_linear_934_97)"/>
</g>
<mask id="mask3_934_97" style="mask-type:luminance" maskUnits="userSpaceOnUse" x="372" y="70" width="94" height="110">
<path d="M372.619 70.0508L395.47 179.845C395.63 179.292 404.356 159.774 429.949 142.114C443.967 132.43 455.488 126.13 465.66 120.888C464.407 119.797 463.11 118.637 461.836 117.531C450.746 107.702 440.276 98.4205 424.444 89.134C398.078 73.5795 373.115 70.0991 372.63 70.0508H372.624H372.619Z" fill="white"/>
</mask>
<g mask="url(#mask3_934_97)">
<path d="M462.851 54.029L353.968 73.3613L375.421 195.87L484.304 176.537L462.851 54.029Z" fill="url(#paint3_linear_934_97)"/>
</g>
<path d="M106.469 122.579C108.304 122.434 109.493 122.445 112.075 121.693C115.318 120.742 120.641 115.72 120.919 103.173C120.988 99.8917 120.561 96.9001 119.948 94.4187C117.094 82.7743 108.896 82.452 106.602 82.0975C106.602 82.0975 100.047 81.2972 95.4648 82.0008C95.4648 82.0008 95.1181 82.017 95.1181 82.1996L95.0754 156.766H95.0647C95.0434 166.31 98.3985 168.77 108.298 169.538C108.298 169.538 108.949 169.463 108.949 170.22V178.196C108.933 179.19 108.101 179.114 108.101 179.114H52.6808C51.8487 179.114 51.886 178.276 51.886 178.276V170.096C51.886 169.543 52.3927 169.543 52.3927 169.543C62.826 168.883 65.669 165.95 65.6157 156.68V91.9265C65.173 85.9002 63.4234 82.2748 52.8568 81.4745C52.3767 81.4745 52.4301 81.1146 52.4301 81.1146V71.7422C52.4301 71.3931 52.7661 71.4575 52.7661 71.4575L120.945 71.4307C124.802 71.4575 130.024 72.0591 134.67 73.9604C143.977 77.7738 152.336 86.1419 152.347 101.036C152.352 110.854 147.637 123.664 133.923 129.975C127.666 132.848 119.638 133.976 108.597 133.504C100.745 133.165 98.3825 132.096 98.2598 127.101C98.2598 127.101 97.9397 122.504 102.271 122.504C106.602 122.504 106.469 122.579 106.469 122.579Z" fill="black"/>
<path d="M342.045 83.6444C333.943 75.0132 319.77 68.0309 302.381 67.9933C287.387 67.9611 270.02 74.8628 258.856 86.9745C252.988 93.3445 248.348 100.794 245.857 108.958V108.937C245.804 109.27 245.532 109.436 245.532 109.436L219.454 109.447C218.835 109.415 218.814 110.032 218.814 110.032V118.846C218.798 119.475 219.32 119.48 219.32 119.48C220.27 119.523 222.99 119.775 224.121 120.42C225.497 121.199 226.873 122.901 226.073 126.618C226.073 126.618 225.625 131.667 219.187 139.444L219 139.627C218.52 140.094 218.168 139.691 218.168 139.691C211.399 132.483 200.811 117.96 194.448 110.005C194.448 110.005 194.33 109.866 194.501 109.742L194.699 109.603C206.481 102.029 213.858 96.3577 211.65 85.476C209.868 76.6836 201.174 67.483 189.173 68.0255C181.913 68.3531 174.931 71.0924 169.298 74.6856C163.724 78.2412 157.441 85.6317 156.4 93.3069C155.024 103.437 159.467 109.2 164.892 116.118L165.426 116.821C165.644 117.036 165.314 117.192 165.314 117.192C157.846 121.924 152.192 125.474 147.919 129.218C138.51 137.462 136.201 144.369 135.934 153.57C135.897 154.751 136.131 155.971 136.366 157.195C139.433 173.104 152.677 180.924 168.743 182.138C174.648 182.584 189.012 183.191 204.172 171.176C204.881 170.612 205.996 169.532 207.26 168.619C207.372 168.539 207.489 168.646 207.489 168.646C216.2 177.761 223.598 180.876 236.677 180.5C241.904 180.355 242.598 180.403 253.33 179.533C253.33 179.533 254.263 179.528 254.263 178.733V169.914C254.237 169.28 253.485 169.425 253.485 169.425C250.103 169.871 246.486 169.871 244.001 168.668C237.792 165.66 232.81 158.022 225.716 149.445C225.385 149.037 225.636 148.704 225.636 148.704C232.831 140.105 230.234 143.864 234.88 136.452C239.216 129.545 240.064 124.378 243.142 121.886C243.142 121.886 243.425 121.607 243.425 121.924C243.425 121.924 243.275 124.486 243.27 126.102C243.27 126.237 243.27 126.124 243.27 126.247C243.35 139.981 248.988 154.408 258.274 164.076C260.387 166.24 273.535 182.23 299.613 181.993C333.174 181.698 358.287 157.732 358.287 123.342C358.287 107.83 351.598 93.8225 342.045 83.6337M184.175 78.6494C190.335 77.7954 196.208 85.6801 195.509 91.7225C195.072 95.4983 193.925 99.0593 187.839 103.093C187.839 103.093 187.642 103.297 187.444 103.045C181.086 94.9021 176.707 89.6439 177.203 85.3793C177.646 81.5605 181.641 79.0039 184.175 78.6494ZM200.566 160.697C194.816 165.418 190.847 166.82 185.161 166.82C173.267 166.82 162.593 151.813 162.593 140.132C162.593 131.747 170.034 126.758 171.714 125.732C171.714 125.732 172.066 125.512 172.36 125.931L200.566 160.112C200.566 160.112 200.833 160.418 200.561 160.692M301.325 171.616C283.44 170.682 277.354 146.69 275.727 122.67C273.418 88.4784 286.523 78.3862 300.584 78.5151C318.65 78.687 324.112 101.004 326.262 127.649C327.798 146.706 325.088 172.868 301.325 171.616Z" fill="black"/>
<defs>
<linearGradient id="paint0_linear_934_97" x1="465.929" y1="132.577" x2="578.878" y2="112.798" gradientUnits="userSpaceOnUse">
<stop stop-color="#EE3538"/>
<stop offset="0.44" stop-color="#CE2134"/>
<stop offset="0.69" stop-color="#C21A33"/>
<stop offset="1" stop-color="#98002E"/>
</linearGradient>
<linearGradient id="paint1_linear_934_97" x1="363.581" y1="94.2837" x2="531.26" y2="94.2837" gradientUnits="userSpaceOnUse">
<stop stop-color="#CFCFCF"/>
<stop offset="0.19" stop-color="#D0D0D0"/>
<stop offset="0.37" stop-color="#E3E3E3"/>
<stop offset="0.5" stop-color="#ECECEC"/>
<stop offset="0.62" stop-color="#E6E6E6"/>
<stop offset="0.78" stop-color="#D5D5D5"/>
<stop offset="0.8" stop-color="#D3D3D3"/>
<stop offset="1" stop-color="#CFCFCF"/>
</linearGradient>
<linearGradient id="paint2_linear_934_97" x1="392.942" y1="164.538" x2="539.7" y2="138.839" gradientUnits="userSpaceOnUse">
<stop stop-color="#FDB913"/>
<stop offset="0.24" stop-color="#FDB913"/>
<stop offset="0.25" stop-color="#FDBC17"/>
<stop offset="0.35" stop-color="#FED035"/>
<stop offset="0.44" stop-color="#FEDC48"/>
<stop offset="0.5" stop-color="#FFE14F"/>
<stop offset="0.57" stop-color="#FEDD49"/>
<stop offset="0.66" stop-color="#FED238"/>
<stop offset="0.76" stop-color="#FEC01D"/>
<stop offset="0.78" stop-color="#FEBE1A"/>
<stop offset="1" stop-color="#FDB913"/>
</linearGradient>
<linearGradient id="paint3_linear_934_97" x1="360.966" y1="134.56" x2="486.676" y2="112.547" gradientUnits="userSpaceOnUse">
<stop stop-color="#002D62"/>
<stop offset="0.17" stop-color="#003D77"/>
<stop offset="0.53" stop-color="#005C9E"/>
<stop offset="0.82" stop-color="#006FB7"/>
<stop offset="1" stop-color="#0076C0"/>
</linearGradient>
</defs>
</svg>
