<svg width="600" height="250" viewBox="0 0 600 250" fill="none" xmlns="http://www.w3.org/2000/svg">
<g clip-path="url(#clip0_382_1091)">
<rect width="600" height="250" fill="white"/>
<path fill-rule="evenodd" clip-rule="evenodd" d="M222.148 144.607C222.096 144.494 222.027 144.39 221.943 144.298C221.639 143.98 221.232 143.739 220.853 143.517C220.711 143.432 220.567 143.35 220.421 143.271C219.735 142.896 218.997 142.615 218.286 142.288C217.595 141.972 216.907 141.629 216.336 141.129C215.946 140.788 215.409 140.27 215.287 139.766C215.114 139.066 215.723 138.282 215.996 137.666C216.723 136.031 217.422 134.27 218.392 132.757C218.617 133.684 219.204 134.093 219.787 134.581C221.178 135.74 225.24 135.679 225.001 138.021C224.888 139.125 224.381 140.238 224 141.274C223.77 141.888 223.422 142.456 223.145 143.051C223.05 143.255 222.35 145.057 222.509 145.2C222.332 145.039 222.25 144.816 222.146 144.609M411.543 168.924L418.868 179.131H180.515L186.583 169.121L411.543 168.924Z" fill="#AB7F19"/>
<mask id="mask0_382_1091" style="mask-type:luminance" maskUnits="userSpaceOnUse" x="177" y="5" width="244" height="243">
<path d="M177.816 247.757H420.478V5.08789H177.816V247.757Z" fill="white"/>
</mask>
<g mask="url(#mask0_382_1091)">
<path fill-rule="evenodd" clip-rule="evenodd" d="M249.713 223.297H357.121V221.882H249.713V223.297ZM365.888 228.873C366.1 228.936 366.297 228.614 366.343 228.477C366.432 228.194 366.432 227.89 366.343 227.607C366.179 227.141 365.343 226.839 364.889 226.778C364.663 226.76 364.437 226.796 364.228 226.882C364.018 226.968 363.832 227.102 363.685 227.273C362.776 228.364 364.203 229.468 364.9 229.788C365.264 229.952 365.507 230.327 365.613 230.683C365.666 230.858 365.686 231.083 365.593 231.249C365.461 231.478 365.182 231.469 364.941 231.458C364.537 231.435 364.003 231.463 363.623 231.299C363.476 231.231 363.473 231.681 363.782 231.922C363.578 232.099 363.33 232.489 363.367 233.33C363.389 233.841 363.387 234.352 363.389 234.861C363.394 235.682 363.396 236.502 363.394 237.324C363.389 238.215 363.392 239.108 363.385 240C363.38 240.721 363.376 241.443 363.376 242.163C363.376 242.488 363.33 242.831 363.378 243.149C363.442 243.563 363.691 243.956 364.137 244.088C364.334 244.144 365.043 244.24 365.2 244.056C365.343 243.888 365.041 243.724 365.039 243.577L365.027 242.636L364.996 240.239L364.959 237.336C364.95 236.422 364.936 235.511 364.925 234.6L364.902 232.88C364.9 232.605 365.273 232.367 365.168 232.085C365.634 231.965 366.047 231.683 366.213 231.26C366.279 231.073 366.309 230.875 366.3 230.676C366.286 229.836 365.698 229.145 364.975 228.732C364.886 228.684 364.782 228.641 364.702 228.582C364.384 228.332 364.066 227.787 364.373 227.419C364.675 227.055 365.382 227.334 365.686 227.555C365.75 227.6 366.002 227.837 365.92 227.941C365.92 227.941 365.327 228.698 365.888 228.873ZM341.14 243.342C340.322 243.342 340.531 242.529 340.531 242.529L340.456 238.958C341.417 236.813 343.571 237.206 344.968 237.356C346.579 237.531 346.884 239.042 347.188 241.366C347.331 242.472 347.161 243.006 346.938 243.263C344.712 242.984 341.676 243.342 341.14 243.342ZM348.449 243.624C348.547 242.722 348.579 239.548 347.917 238.056C347.156 236.34 344.634 236.136 342.66 236.311C341.601 236.402 340.87 236.713 340.416 236.983L340.411 236.833C340.411 236.833 340.32 234.886 340.288 233.782C340.286 233.589 340.295 232.369 340.625 232.387L339.652 232.328C338.712 232.446 338.984 233.144 338.984 233.144L339.166 243.168L337.189 243.283C337.194 243.283 337.164 242.516 337.162 242.47L337.037 238.98C337.021 238.528 336.964 238.058 336.999 237.606C337.03 237.204 337.221 236.765 337.221 236.397C337.221 236.254 335.672 236.543 335.672 236.543L335.763 243.404H334.729C334.456 242.663 333.141 240.307 332.343 238.905C331.866 238.065 331.489 237.445 330.564 236.983C328.281 235.847 325.939 237.46 325.523 238.926C325.037 240.641 326.068 242.152 326.068 242.152C326.223 241.541 327.59 241.57 327.59 241.57C330.444 241.484 330.537 243.372 330.537 243.372L325.948 243.458C322.424 243.692 321.817 242.5 321.54 240.668C321.268 238.84 322.09 238.026 322.91 237.415C323.73 236.806 323.063 236.892 323.063 236.892C319.659 238.256 320.327 241.018 320.327 241.018C321.086 245.464 325.948 244.39 325.948 244.39L332.148 244.301C332.511 242.995 330.262 240.439 328.563 240.496C326.688 240.559 326.252 240.525 326.709 238.985C327.07 237.763 328.463 237.713 329.449 237.872C330.051 237.972 330.355 238.135 330.721 238.603C331.962 240.182 334.181 244.39 334.181 244.39C334.579 244.215 346.7 244.301 347.674 244.156C348.647 244.01 349.315 244.39 349.315 244.39C349.19 244.056 348.876 243.808 348.449 243.624ZM354.572 243.168C352.809 243.14 351.005 240.28 352.627 237.938C353.993 235.961 356.303 237.765 356.544 239.739C356.66 240.678 356.728 241.954 356.703 243.108C355.924 243.149 355.154 243.177 354.572 243.168ZM361.254 243.604L361.326 237.733C361.326 237.733 361.649 235.847 361.013 235.934C360.374 236.02 359.918 236.077 359.918 236.077L359.888 242.879C359.888 242.879 359.095 242.949 358.073 243.022L358.034 239.887C358.034 239.887 358.005 235.875 354.177 236.136C350.348 236.397 349.74 240.407 351.016 242.27C352.291 244.126 354.356 244.156 356.394 244.042C356.48 244.035 356.569 244.031 356.658 244.029C356.589 244.896 356.451 245.589 356.212 245.844C355.606 246.48 352.87 248.429 349.374 244.476C349.374 244.476 349.771 246.657 351.746 247.384C353.72 248.111 357.396 248.052 358.096 244.708L358.087 244.004C359.836 244.013 361.619 244.126 361.619 244.126C361.619 244.126 361.708 243.751 361.254 243.604Z" fill="#AB7F19"/>
</g>
<mask id="mask1_382_1091" style="mask-type:luminance" maskUnits="userSpaceOnUse" x="177" y="5" width="244" height="243">
<path d="M177.816 247.757H420.478V5.08789H177.816V247.757Z" fill="white"/>
</mask>
<g mask="url(#mask1_382_1091)">
<path fill-rule="evenodd" clip-rule="evenodd" d="M344.789 234.217L343.926 233.358L343.051 234.162L343.914 235.023L344.789 234.217ZM335.151 246.34L336.015 247.198L336.892 246.394L336.028 245.533L335.151 246.34ZM359.731 246.165L360.595 247.023L361.472 246.219L360.608 245.358L359.731 246.165ZM327.799 246.426L328.663 247.285L329.538 246.48L328.674 245.619L327.799 246.426ZM325.884 246.396L326.748 247.255L327.625 246.451L326.761 245.592L325.884 246.396ZM246.417 239.635L245.303 236.552C245.072 235.855 244.906 235.216 244.738 234.598H244.688C244.532 235.251 244.349 235.898 244.14 236.536L243.043 239.635H246.417ZM242.745 240.717L241.582 244.086H240.085L243.89 233.376H245.635L249.459 244.086H247.914L246.717 240.717H242.745ZM252.467 241.003C252.467 241.178 252.483 241.353 252.515 241.512C252.651 241.987 252.939 242.405 253.335 242.7C253.732 242.996 254.215 243.153 254.709 243.147C256.254 243.147 257.152 241.957 257.152 240.192C257.152 238.635 256.322 237.315 254.759 237.315C253.762 237.315 252.833 237.983 252.549 239.033C252.494 239.224 252.466 239.421 252.467 239.619V241.003ZM251.004 232.801H252.467V237.618H252.499C253.014 236.759 253.946 236.218 255.241 236.218C257.236 236.218 258.631 237.808 258.631 240.128C258.631 242.895 256.804 244.261 255.009 244.261C253.846 244.261 252.93 243.831 252.317 242.816H252.283L252.201 244.088H250.938C250.986 243.561 251.004 242.782 251.004 242.1V232.801ZM267.189 241.989C267.189 242.782 267.207 243.481 267.257 244.086H265.96L265.876 242.832H265.844C265.478 243.45 264.613 244.263 263.186 244.263C261.92 244.263 260.41 243.577 260.41 240.891V236.393H261.873V240.637C261.873 242.1 262.354 243.1 263.667 243.1C264.079 243.098 264.482 242.975 264.824 242.747C265.167 242.518 265.435 242.194 265.594 241.814C265.685 241.586 265.73 241.343 265.726 241.098V236.395H267.189V241.989ZM274.634 243.004C274.998 243.068 275.531 243.068 276.097 243.068C279.187 243.086 280.868 241.416 280.868 238.524C280.882 235.966 279.387 234.389 276.329 234.389C275.581 234.389 275.016 234.455 274.634 234.535V243.004ZM273.171 233.517C274.194 233.37 275.227 233.296 276.261 233.294C278.34 233.294 279.819 233.739 280.8 234.612C281.813 235.487 282.395 236.743 282.395 238.474C282.395 240.223 281.813 241.655 280.782 242.639C279.719 243.643 277.992 244.183 275.813 244.183C274.768 244.183 273.918 244.149 273.171 244.054V233.517ZM284.24 232.803H285.703V237.602H285.735C285.966 237.204 286.332 236.838 286.78 236.616C287.211 236.361 287.727 236.218 288.277 236.218C289.358 236.218 291.085 236.854 291.085 239.51V244.086H289.624V239.669C289.624 238.413 289.14 237.379 287.761 237.379C287.331 237.384 286.912 237.521 286.561 237.771C286.211 238.021 285.945 238.373 285.801 238.779C285.722 238.991 285.689 239.218 285.703 239.444V244.086H284.24V232.801V232.803ZM297.701 240.16C296.106 240.128 294.293 240.398 294.293 241.893C294.293 242.816 294.925 243.227 295.656 243.227C296.72 243.227 297.401 242.591 297.633 241.941C297.68 241.798 297.703 241.647 297.701 241.496V240.16ZM299.13 242.243C299.13 242.909 299.164 243.561 299.246 244.086H297.933L297.799 243.116H297.749C297.317 243.72 296.438 244.261 295.29 244.261C293.661 244.261 292.83 243.166 292.83 242.052C292.83 240.192 294.557 239.176 297.667 239.19V239.031C297.667 238.395 297.485 237.236 295.838 237.252C295.075 237.252 294.293 237.459 293.727 237.824L293.396 236.886C294.061 236.488 295.041 236.218 296.054 236.218C298.53 236.218 299.13 237.824 299.13 239.367V242.243ZM302.936 241.003C302.936 241.178 302.949 241.353 302.983 241.512C303.119 241.987 303.408 242.405 303.804 242.7C304.201 242.996 304.683 243.153 305.178 243.147C306.723 243.147 307.62 241.957 307.62 240.192C307.62 238.635 306.789 237.315 305.228 237.315C304.228 237.315 303.299 237.983 303.017 239.033C302.963 239.224 302.935 239.421 302.936 239.619V241.003ZM301.472 232.801H302.936V237.618H302.967C303.483 236.759 304.415 236.218 305.71 236.218C307.704 236.218 309.099 237.808 309.099 240.128C309.099 242.895 307.273 244.261 305.476 244.261C304.315 244.261 303.399 243.831 302.786 242.816H302.751L302.67 244.088H301.404C301.455 243.427 301.478 242.763 301.472 242.1V232.801ZM310.974 244.086H312.743V236.393H310.971L310.974 244.086ZM311.816 234.978C311.153 234.978 310.712 234.566 310.712 234.073C310.712 233.58 311.174 233.183 311.857 233.183C312.541 233.183 312.984 233.58 312.984 234.073C312.984 234.566 312.541 234.978 311.837 234.978H311.816ZM246.13 150.305C246.371 157.4 237.604 156.953 235.239 161.983C234.909 154.799 244.106 155.674 246.13 150.305ZM213.122 185.824L202.141 209.159C204.893 210.211 205.786 207.315 206.749 205.333C208.731 201.22 210.652 197.077 212.51 192.906L215.773 200.215C213.562 199.876 210.257 199.829 209.462 202.328C209.462 202.328 212.858 201.601 216.559 201.973L218.479 206.272C219.033 207.517 219.304 208.601 220.683 209.196C222.7 210.066 225.32 209.575 225.32 209.575C223.491 209.409 213.119 185.824 213.119 185.824M351.777 185.824L340.799 209.159C343.549 210.211 344.444 207.315 345.407 205.333C347.406 201.226 349.297 197.068 351.169 192.906L354.431 200.215C352.22 199.876 348.915 199.829 348.12 202.328C348.12 202.328 351.516 201.601 355.217 201.973L357.137 206.272C357.691 207.517 357.962 208.601 359.341 209.196C361.358 210.066 363.978 209.575 363.978 209.575C362.149 209.409 351.777 185.824 351.777 185.824ZM346.609 186.379C343.857 185.325 342.962 188.224 341.999 190.202C340.017 194.316 338.096 198.459 336.237 202.63L334.134 197.918L331.241 191.438L330.271 189.264C329.715 188.021 329.447 186.935 328.068 186.34C326.05 185.47 323.428 185.961 323.428 185.961C323.921 186.006 325.032 187.749 326.393 190.271L325.873 191.438L322.978 197.918L320.877 202.63C319.017 198.459 317.096 194.316 315.113 190.202C314.15 188.224 313.257 185.325 310.506 186.379L321.486 209.711C321.486 209.711 325.187 201.296 328.556 194.483C331.928 201.296 335.626 209.714 335.626 209.714L346.609 186.379ZM280.598 185.824L269.62 209.159C272.369 210.211 273.264 207.315 274.227 205.333C276.209 201.219 278.129 197.076 279.989 192.906L283.252 200.215C281.041 199.876 277.731 199.829 276.94 202.325C276.94 202.325 280.334 201.598 284.038 201.973L285.955 206.272C286.512 207.517 286.78 208.601 288.159 209.196C290.176 210.066 292.798 209.575 292.798 209.575C290.969 209.409 280.598 185.824 280.598 185.824ZM384.191 185.824L373.211 209.159C375.962 210.211 376.857 207.315 377.821 205.333C379.802 201.22 381.723 197.077 383.582 192.906L386.845 200.215C384.634 199.876 381.326 199.829 380.531 202.325C380.531 202.325 383.928 201.598 387.631 201.973L389.551 206.272C390.103 207.517 390.373 208.601 391.754 209.196C393.77 210.066 396.391 209.575 396.391 209.575C394.56 209.409 384.191 185.824 384.191 185.824ZM304.867 208.046C304.867 208.046 301.073 208.273 299.55 207.68C299.573 207.589 299.603 207.503 299.618 207.401C299.966 204.884 299.796 191.754 299.755 189.021C299.748 188.576 299.784 188.151 299.534 187.751C299.103 187.069 297.819 186.242 294.061 186.71C295.354 186.551 295.511 188.941 295.556 189.723C295.688 192.109 295.572 194.526 295.584 196.914C295.599 199.919 295.622 202.93 295.629 205.936C295.629 206.553 295.74 207.176 295.679 207.794C295.659 207.992 295.379 209.364 294.975 209.275C294.975 209.275 297.542 209.836 298.869 208.762C299.219 209.243 299.902 209.693 301.25 209.671C304.126 209.63 309.529 210.382 309.485 206.922C309.485 206.922 307.132 208.255 304.867 208.046ZM399.829 193.492L416.121 207.828C416.121 207.828 418.561 210.077 420.478 209.661C420.478 209.661 418.736 209.328 418.822 205.579C418.911 201.828 418.911 187.16 418.911 187.16C418.911 187.16 418.822 186.66 419.52 186.742C419.52 186.742 417.254 185.409 416.732 188.16C416.209 190.909 416.818 202.662 416.818 202.662L402.319 190.221C400.41 188.585 398.625 186.656 395.905 186.411C395.905 186.411 397.559 187.326 397.559 190.659V207.994C397.559 207.994 397.43 209.162 397.125 209.287C397.125 209.287 399.565 209.786 399.87 207.494C400.174 205.202 399.829 193.492 399.829 193.492ZM378.073 186.854C378.073 186.854 361.381 186.854 359.207 186.894C357.035 186.938 357.203 190.521 357.203 190.521C357.191 190.293 358.207 189.689 358.402 189.566C358.72 189.362 359.052 189.18 359.407 189.046C360.159 188.757 360.895 188.812 361.69 188.819L365.275 188.837C365.729 189.505 365.811 190.698 365.843 191.195C365.975 193.438 365.861 195.71 365.87 197.952C365.886 200.781 365.907 203.609 365.916 206.433C365.916 207.015 366.027 207.599 365.963 208.178C365.945 208.367 365.666 209.657 365.264 209.573C365.264 209.573 369.51 210.452 369.903 207.81C370.255 205.445 370.082 193.104 370.039 190.536C370.035 190.118 370.071 189.718 369.819 189.344C369.668 189.13 369.473 188.952 369.246 188.821C370.482 188.753 373.434 188.612 375.587 188.644C378.377 188.687 378.073 186.854 378.073 186.854ZM225.195 205.084C225.195 205.084 229.523 209.991 234.085 207.101C234.878 206.601 235.282 206.113 235.575 205.238C236.014 203.934 236.104 201.817 233.083 200.331C228.418 198.041 225.892 195.873 225.719 193.04C225.544 190.205 227.81 184.373 235.739 186.622C235.739 186.622 240.271 187.667 239.878 191.541C239.487 195.414 235.957 194.914 235.305 193.456C235.305 193.456 234.782 191.831 235.782 191.497C235.782 191.497 236.568 192.665 237.963 191.747C239.356 190.832 238.049 188.455 235.087 187.665C232.124 186.872 226.676 189.789 230.99 193.831L236.522 196.957C236.522 196.957 239.703 199.249 239.53 203.207C239.356 207.167 235.259 209.166 233.037 209.623C230.815 210.084 225.326 208.791 225.195 205.084ZM260.41 206.849C258.172 204.94 257.206 202.3 255.341 200.147C255.041 199.798 254.713 199.475 254.359 199.181C256.908 197.795 260.039 194.551 259.096 191.536C258.347 189.139 256.359 187.874 253.955 187.253C251.774 186.692 249.241 186.629 246.998 186.633C246.353 186.633 244.967 186.756 243.886 186.851C243.254 186.851 242.534 186.897 241.7 186.999C242.995 186.84 243.152 189.228 243.195 190.009C243.329 192.395 243.213 194.812 243.225 197.2C243.238 200.208 243.263 203.216 243.268 206.224C243.268 206.84 243.381 207.462 243.318 208.08C243.3 208.28 243.02 209.652 242.616 209.564C242.616 209.564 246.864 210.5 247.255 207.687C247.607 205.17 247.435 192.04 247.394 189.307C247.391 189.028 247.321 188.755 247.257 188.494C247.455 188.512 247.721 188.512 247.825 188.505C248.393 188.462 248.975 188.464 249.545 188.483C251.465 188.544 253.453 189.26 254.412 190.945C256.054 193.826 254.866 197.364 251.858 198.852C251.047 199.252 249.718 199.935 248.798 199.965C248.798 199.965 249.422 200.601 251.063 200.374C251.499 200.699 251.942 201.237 252.387 201.919C252.576 202.212 253.666 204.304 254.023 204.947C254.587 205.956 255.152 206.81 255.723 207.415C259.144 211.038 265.515 209.025 265.515 209.025C263.556 208.93 261.845 208.073 260.41 206.849ZM182.478 197.657C182.478 192.454 186.447 188.237 191.343 188.237C196.239 188.237 200.208 192.454 200.208 197.659C200.205 198.19 200.159 198.721 200.072 199.245L199.997 199.177C198.436 197.936 195.36 197.818 193.64 198.772C190.209 200.681 189.693 204.497 191.459 207.072C191.42 207.072 191.381 207.081 191.343 207.081C186.447 207.081 182.478 202.859 182.478 197.657ZM194.192 206.574C193.306 205.29 193.095 203.775 194.294 202.337C196.109 200.16 197.686 202.693 197.423 204.504C196.511 205.423 195.408 206.131 194.192 206.574ZM201.544 197.454C201.542 194.309 200.291 191.294 198.066 189.071C195.841 186.849 192.825 185.601 189.68 185.602C186.535 185.601 183.518 186.849 181.293 189.071C179.069 191.294 177.818 194.309 177.816 197.454C177.816 199.319 178.256 201.157 179.1 202.82C179.944 204.483 181.169 205.923 182.674 207.024C184.179 208.125 185.922 208.855 187.762 209.156C189.602 209.457 191.488 209.319 193.265 208.755C193.628 208.971 194.012 209.164 194.44 209.309C196.114 209.877 197.711 209.502 199.361 209.714C198.075 209.548 196.552 208.848 195.376 207.853C197.243 206.833 198.801 205.33 199.886 203.5C200.972 201.67 201.544 199.582 201.544 197.454ZM334.711 153.022C334.384 154.379 333.916 155.803 332.468 156.41C331.201 156.944 329.94 156.244 329.333 155.108C327.197 151.116 330.387 145.198 331.023 142.249C329.258 144.693 327.722 149.28 327.491 153.558C327.325 156.639 328.093 160.411 330.801 160.411C331.505 160.411 332.157 160.172 332.673 159.718C333.679 158.832 334.345 157.28 334.674 155.824C334.802 155.26 334.62 153.397 334.711 153.022ZM389.292 103.803C382.262 97.3646 372.145 91.2167 361.667 86.4252C350.989 81.5428 339.975 78.035 328.742 74.4771C323.076 72.6823 316.176 70.0673 310.608 68.502C310.853 68.7769 325.171 80.0206 326.132 80.3773C334.322 83.4376 343.564 86.0617 351.882 89.5423C363.701 94.4906 374.976 100.475 384.707 108.74C401.158 122.719 409.582 141.479 410.434 162.444C416.5 141.031 405.209 118.389 389.292 103.803ZM362.58 123.792C362.089 124.577 361.652 125.396 361.272 126.241C360.908 127.025 360.615 127.838 360.22 128.606C359.87 129.285 359.277 129.999 359.472 130.801C359.597 131.305 360.134 131.823 360.524 132.164C361.095 132.661 361.781 133.004 362.471 133.322C363.185 133.65 363.923 133.931 364.607 134.304C364.875 134.452 366.388 135.288 366.297 135.66C365.838 137.53 363.214 139.659 363.105 141.488C362.867 145.418 368.617 145.309 370.326 148.122C370.939 145.893 373.64 143.407 373.345 141.147C372.997 138.484 367.074 138.725 366.899 135.649C366.843 134.645 367.797 133.356 368.185 132.309C368.569 131.273 369.076 130.16 369.19 129.056C369.428 126.711 365.364 126.775 363.975 125.616C363.392 125.128 362.803 124.719 362.58 123.792Z" fill="#AB7F19"/>
</g>
<mask id="mask2_382_1091" style="mask-type:luminance" maskUnits="userSpaceOnUse" x="177" y="5" width="244" height="243">
<path d="M177.816 247.757H420.478V5.08789H177.816V247.757Z" fill="white"/>
</mask>
<g mask="url(#mask2_382_1091)">
<path fill-rule="evenodd" clip-rule="evenodd" d="M347.102 117.793C350.142 113.786 354.238 109.864 360.413 108.788C360.627 108.769 360.838 108.756 360.867 108.924C360.586 114.751 357.382 119.522 354.265 123.253C351 127.156 346.888 131.232 341.715 132.818C341.674 126.784 344.035 121.838 347.102 117.793ZM380.302 120.027C378.13 119.836 376.716 120.565 375.985 121.831C375.092 123.38 374.331 130.35 375.003 132.179C375.744 134.188 378.773 134.96 380.899 134.22C382.751 133.574 383.564 132.163 384.107 129.853C386.002 131.607 386.902 133.908 386.902 137.23C386.902 138.236 386.143 140.161 385.543 141.16C382.646 145.993 376.355 151.725 369.449 153.379C356.569 156.464 347.633 147.71 343.221 140.251C350.185 136.512 355.662 130.596 359.214 123.158C362.024 117.271 363.848 109.115 361.758 101.445C358.116 100.983 354.761 102.837 352.373 104.494C345.943 108.947 341.272 116.142 340.359 125.384C340.331 125.657 340.295 126.166 340.247 126.797C340.043 128.419 339.793 130.682 339.725 132.691C339.693 132.925 339.659 133.131 339.625 133.29C334.154 132.238 335.531 124.398 335.422 119.023C334.418 119.422 330.612 122.558 329.517 123.439C327.625 124.961 325.364 126.388 323.919 128.283C321.406 131.575 321.622 137.094 320.743 141.401C318.805 150.886 311.383 155.126 303.222 158.593C301.752 159.215 300.177 159.974 298.655 160.458C298.251 160.585 296.202 161.38 296.411 161.38C302.881 161.362 310.481 161.742 314.525 159.597C318.437 157.523 320.352 153.09 321.345 148.562C322.056 145.307 321.913 141.71 323.078 138.341C323.987 135.717 326.159 133.888 327.902 132.225C329.765 130.441 331.875 128.658 333.954 127.515C333.509 133.527 334.499 140.526 340.445 141.151C340.715 143.06 341.104 144.902 341.767 146.274C342.624 148.476 343.867 150.507 345.437 152.272C347.936 155.142 351.048 157.743 354.542 159.433C357.866 161.04 361.756 161.992 365.72 161.628C374.526 160.817 380.079 155.639 384.078 149.941C387.358 145.27 389.423 137.509 388.599 129.48C388.122 124.823 385.145 120.454 380.302 120.027Z" fill="#AB7F19"/>
</g>
<mask id="mask3_382_1091" style="mask-type:luminance" maskUnits="userSpaceOnUse" x="177" y="5" width="244" height="243">
<path d="M177.816 247.757H420.478V5.08789H177.816V247.757Z" fill="white"/>
</mask>
<g mask="url(#mask3_382_1091)">
<path fill-rule="evenodd" clip-rule="evenodd" d="M377.687 109.174C375.665 114.542 366.463 113.668 366.795 120.851C369.16 115.821 377.927 116.269 377.687 109.174ZM308.465 110.369C311.367 104.196 322.12 104.748 321.824 96.042C319.341 102.631 308.061 101.556 308.465 110.369ZM245.088 122.983C244.765 123.26 242.838 124.73 242.857 124.875C242.866 124.943 243.538 124.841 243.725 124.793C247.987 123.685 252.117 121.438 252.017 116.721C252.01 116.33 251.781 115.369 251.631 115.369C250.792 118.3 247.178 121.199 245.088 122.983Z" fill="#AB7F19"/>
</g>
<mask id="mask4_382_1091" style="mask-type:luminance" maskUnits="userSpaceOnUse" x="177" y="5" width="244" height="243">
<path d="M177.816 247.757H420.478V5.08789H177.816V247.757Z" fill="white"/>
</mask>
<g mask="url(#mask4_382_1091)">
<path fill-rule="evenodd" clip-rule="evenodd" d="M261.573 98.1891C262.163 98.6367 262.588 99.241 262.918 99.8908C263.14 100.322 263.858 101.567 263.731 102.054C264.708 98.3118 262.865 94.5131 259.514 94.3882C255.645 94.245 252.989 98.4254 252.887 102.494C252.764 107.447 256.345 110.548 255.75 115.172C254.634 111.839 252.337 109.665 249.422 108.097C248.952 107.843 248.582 111.005 248.582 111.223C248.559 112.598 248.952 112.85 250.234 113.118C250.533 113.179 250.831 113.22 251.138 113.202C251.254 113.195 252.124 112.952 252.133 112.959C253.656 114.47 254.75 116.358 255.304 118.43C255.352 118.616 255.704 120.24 255.897 120.329C256.731 118.062 257.597 116.11 257.254 112.959C257.104 111.571 256.609 110.114 256.225 108.774C255.588 106.548 254.462 104.226 254.448 101.883C254.428 98.5481 258.753 96.0444 261.573 98.1891ZM398.909 138.882C395.803 138.766 393.667 142.124 393.586 145.393C393.488 149.369 396.364 151.861 395.885 155.574C394.99 152.899 393.145 151.152 390.805 149.891C390.425 149.687 390.128 152.227 390.125 152.404C390.109 153.508 390.425 153.711 391.454 153.926C391.695 153.976 391.934 154.008 392.181 153.995C392.275 153.988 392.977 153.79 392.981 153.799C394.094 154.869 394.951 156.337 395.401 158.061C395.473 158.336 395.667 159.565 396.007 159.72C396.673 157.898 397.371 156.33 397.096 153.799C396.973 152.684 396.578 151.514 396.269 150.437C395.755 148.649 394.851 146.783 394.84 144.902C394.824 142.221 398.3 140.213 400.565 141.933C401.037 142.294 401.378 142.78 401.646 143.301C401.824 143.648 402.398 144.648 402.298 145.036C403.082 142.033 401.601 138.984 398.909 138.882ZM294.95 138.893C296.079 136.673 297.444 137.407 297.444 137.407C296.838 139.47 295.47 140.981 294.023 142.051C294.14 140.951 294.454 139.882 294.95 138.893ZM293.1 142.673C291.101 143.905 289.218 144.359 289.218 144.359C289.218 144.359 291.201 145.493 293.848 144.266C296.495 143.039 298.41 138.882 298.11 136.251C297.815 133.62 295.375 134.903 294.443 137.409C294.354 137.653 294.271 137.898 294.193 138.146C293.975 132.647 291.199 134.033 290.899 134.994C290.581 136.019 291.251 138.214 291.251 138.214C291.206 137.657 291.512 136.133 292.391 136.294C293.203 136.444 293.686 139.445 293.516 140.281C293.33 141.188 293.225 142.017 293.1 142.673ZM349.867 99.241C349.172 100.915 346.009 101.67 345.525 99.5818C345.45 99.2501 345.689 98.6617 345.902 98.1005C346.12 97.5325 346.311 96.9873 346.123 96.7601C347.086 97.9142 349.094 97.8665 349.867 99.241ZM347.154 92.0617C346.161 94.2564 343.96 98.6957 344.775 101.949C344.998 102.844 345.925 103.735 346.847 103.919C347.961 104.144 348.892 103.269 349.542 102.501C350.553 101.308 351.548 98.2096 350.832 96.6238C350.242 95.3197 347.629 95.2424 347.206 94.136C346.884 93.2954 347.602 92.8364 347.154 92.0594M310.887 92.148C310.192 93.8225 307.03 94.579 306.548 92.4888C306.471 92.1571 306.709 91.571 306.923 91.0098C307.141 90.4418 307.332 89.8966 307.143 89.6694C308.106 90.8235 310.117 90.7735 310.887 92.148ZM308.175 84.9688C307.182 87.1657 304.98 91.6028 305.796 94.8585C306.019 95.7536 306.945 96.6419 307.868 96.8282C308.979 97.0531 309.913 96.1785 310.562 95.4105C311.576 94.2178 312.568 91.1189 311.853 89.5331C311.262 88.229 308.649 88.1517 308.227 87.043C307.904 86.2024 308.622 85.7435 308.175 84.9688ZM262.054 134.679C262.759 134.679 263.413 134.44 263.929 133.986C264.719 133.288 265.301 132.182 265.674 131.032C265.886 130.403 265.988 129.742 265.976 129.078C265.962 128.354 265.908 127.527 265.967 127.29C265.637 128.644 265.171 130.071 263.724 130.678C262.454 131.212 261.196 130.512 260.589 129.374C258.453 125.384 261.643 119.468 262.277 116.514C260.514 118.961 258.978 123.548 258.746 127.826C258.581 130.907 259.346 134.679 262.054 134.679Z" fill="#AB7F19"/>
</g>
<mask id="mask5_382_1091" style="mask-type:luminance" maskUnits="userSpaceOnUse" x="177" y="5" width="244" height="243">
<path d="M177.816 247.757H420.478V5.08789H177.816V247.757Z" fill="white"/>
</mask>
<g mask="url(#mask5_382_1091)">
<path fill-rule="evenodd" clip-rule="evenodd" d="M210.843 115.349C223.407 103.458 238.629 96.1173 247.269 93.1297C259.576 88.8812 269.847 84.5237 277.045 81.4043C283.015 78.8056 288.911 76.038 294.725 73.1049C297.332 71.7938 299.926 70.4571 302.506 69.095C303.197 68.7315 311.837 64.2285 311.514 63.8241L310.117 62.0315C306.096 57.4195 305.596 51.6647 305.539 49.9403C305.971 49.4473 308.166 47.8729 308.166 47.8729C308.166 47.8729 306.03 46.2734 305.566 45.76V34.9751C306.032 34.4685 308.166 32.8531 308.166 32.8531C308.166 32.8531 305.455 30.6471 305.446 30.6471V28.4365L310.26 25.4762C310.242 25.4785 305.444 22.8703 305.444 22.8703L301.634 5.08789L297.692 22.8703C297.692 22.8703 293.173 25.4012 293.171 25.4762C293.171 25.483 297.681 28.4365 297.681 28.4365L297.667 30.6539C297.662 30.6539 295.331 32.8531 295.331 32.8531C295.331 32.8531 297.635 35.1205 297.64 35.1205L297.644 45.6282C297.621 45.6282 295.331 47.8729 295.331 47.8729L297.731 50.0766C297.671 51.826 297.16 57.5536 293.153 62.1474L291.192 64.3217C292.185 65.0169 292.973 65.5712 293.303 65.7984C293.318 65.812 299.223 62.6268 299.223 62.6268C299.223 62.6268 298.31 61.8589 297.147 60.8706C299.712 58.8258 299.966 52.2827 299.977 50.0789L300.005 48.7771C300.005 48.7771 297.785 47.8774 297.785 47.8388C297.785 47.8161 300.005 46.9005 300.005 46.9005V33.8278C300.005 33.8278 297.785 32.8963 297.785 32.8895C297.785 32.8804 300.007 31.9535 300.007 31.9535L300.052 26.3918H297.833C297.833 26.3918 296.206 25.6193 296.206 25.5398C296.206 25.5262 297.71 24.6901 297.71 24.6901H300.05L300.027 22.8726L301.716 14.8299L303.16 22.8726L303.163 24.6901H305.571C305.571 24.6901 306.982 25.358 306.991 25.4217C306.993 25.4376 305.569 26.3918 305.569 26.3918H303.163L303.108 31.9535C303.108 31.9535 305.439 32.8622 305.439 32.8895C305.439 32.8986 303.108 33.8278 303.108 33.8278V46.9028C303.108 46.9028 305.439 47.8343 305.439 47.8411C305.439 47.8502 303.108 48.7794 303.108 48.7794C303.172 49.2133 303.217 49.6495 303.256 50.0857C303.36 51.3421 303.385 52.603 303.529 53.8594C303.715 55.5634 304.035 57.3423 304.778 58.9145C304.96 59.3007 305.167 59.6778 305.423 60.0232C305.578 60.2322 305.896 60.6866 306.173 60.8115C303.393 62.4296 300.575 63.9818 297.721 65.4667C292.987 67.8454 288.109 69.9447 283.249 72.0826C281.116 72.8732 278.978 73.6502 276.849 74.3091C265.617 77.7896 249.273 84.46 238.594 89.2402C228.63 93.7 218.617 99.3957 210.972 106.255C200.51 115.638 192.047 128.429 189.198 142.042C188.353 145.7 188.103 148.872 188.169 151.514C188.132 155.622 188.691 159.714 189.828 163.662C189.868 162.655 189.934 161.658 190.012 160.663C190.093 160.835 190.143 160.922 190.143 160.922C190.131 160.393 190.126 159.863 190.127 159.334C191.725 142.59 198.545 127.45 210.847 115.349" fill="#AB7F19"/>
</g>
<mask id="mask6_382_1091" style="mask-type:luminance" maskUnits="userSpaceOnUse" x="177" y="5" width="244" height="243">
<path d="M177.816 247.757H420.478V5.08789H177.816V247.757Z" fill="white"/>
</mask>
<g mask="url(#mask6_382_1091)">
<path fill-rule="evenodd" clip-rule="evenodd" d="M283.017 118.3C286.06 114.293 290.156 110.371 296.329 109.294C296.483 109.281 296.633 109.272 296.715 109.328C296.092 113.027 292.932 124.959 277.644 134.531C277.667 128.567 279.989 122.29 283.017 118.3ZM274.793 143.139C276.853 142.179 278.842 141.074 280.746 139.831C286.946 136.076 291.855 130.516 295.129 123.664C297.94 117.778 299.764 109.622 297.674 101.949C294.032 101.488 290.676 103.344 288.291 104.998C281.859 109.456 277.19 116.649 276.274 125.891C276.211 126.538 276.088 128.494 275.934 130.344C268.922 103.615 286.287 85.3278 307.618 81.5609C307.645 81.4746 298.948 74.0863 298.939 74.0908C289.177 78.2621 284.029 82.1834 278.819 89.4173C273.853 96.3148 270.583 104.81 270.583 115.742C270.583 123.864 272.389 129.758 274.793 136.155C269.061 138.293 262.493 140.065 254.762 138.95C242.173 137.137 237.42 130.135 230.506 123.442C230.484 123.796 227.916 130.585 227.944 130.782C227.971 130.978 230.125 133.388 230.322 133.647C232.106 135.98 234.144 139.42 233.617 143.319C232.481 151.714 221.394 154.883 213.851 150.482C207.149 146.568 204.763 137.548 207.814 129.887C209.239 126.307 213.267 122.353 217.145 120.754C220.985 119.175 224.915 119.091 230.141 119.323C224.613 114.588 215.123 117.753 210.925 121.113C200.61 129.367 200.094 149.062 211.474 157.107C214.637 159.345 219.592 160.817 224.102 159.793C226.41 159.27 228.693 157.641 230.322 156.212C234.412 152.622 236.338 146.225 237.02 140.015C243.422 143.641 250.624 147.658 260.4 147.006C265.869 146.64 270.413 145.195 274.793 143.139ZM339.972 108.522C339.416 108.104 338.557 107.738 338.516 106.798C339.361 105.957 340.461 107.629 339.972 108.522ZM327.272 120.404C331.775 117.701 336.374 115.183 339.339 111.066L340.538 111.98C340.65 112.073 340.756 112.164 340.856 112.243C340.956 112.325 341.047 112.396 341.122 112.448C341.168 112.48 342.151 110.28 342.156 110.274C342.035 110.096 340.913 109.274 340.506 108.949C340.65 108.608 340.772 108.283 340.87 108.008C340.947 107.822 341.013 107.622 341.07 107.411L341.127 107.229L341.115 107.243C341.463 105.766 341.258 103.935 339.963 103.883C338.675 103.83 336.567 107.216 337.049 108.926C337.126 109.194 337.283 109.431 337.498 109.608C337.582 109.699 337.953 109.994 338.421 110.358C335.199 113.997 330.594 117.289 327.272 120.404Z" fill="#AB7F19"/>
</g>
<mask id="mask7_382_1091" style="mask-type:luminance" maskUnits="userSpaceOnUse" x="177" y="5" width="244" height="243">
<path d="M177.816 247.757H420.478V5.08789H177.816V247.757Z" fill="white"/>
</mask>
<g mask="url(#mask7_382_1091)">
<path fill-rule="evenodd" clip-rule="evenodd" d="M307.745 141.495C309.088 138.991 310.149 136.333 311.058 133.65C311.174 133.348 311.301 133.005 311.444 132.607C312.189 130.54 312.528 128.445 312.643 126.543L312.646 126.532C316.709 124.735 320.4 122.195 323.528 119.041C329.878 112.918 331.989 108.636 332.818 105.471C335.188 96.4129 330.848 90.7694 326.584 86.0165C322.626 81.6067 307.273 70.004 307.13 70.0608C306.273 70.397 302.767 72.1168 301.395 72.8711C301.207 72.9756 331.012 96.6173 330.692 101.829C330.63 102.125 330.558 102.413 330.478 102.699C329.683 104.871 328.293 107.425 325.589 110.41C324.651 111.403 323.583 112.641 322.622 113.475C322.229 113.816 321.827 114.157 321.422 114.497C319.03 116.349 316.054 118.139 312.38 119.732C310.842 116.969 307.918 113.832 304.624 114.847C300.398 116.147 297.849 127.5 302.976 129.172C304.505 129.672 305.846 129.392 307.055 128.958C307.783 128.723 308.498 128.449 309.197 128.136C309.163 135.66 304.599 141.452 300.048 145.289C290.147 153.638 274.507 157.557 259.055 160.329C261.632 161.002 264.463 161.047 267.112 161.226C270.701 161.474 274.309 161.57 277.91 161.545C281.5 161.522 285.049 160.568 288.413 159.443C291.324 158.466 294.035 156.976 296.42 155.042C301.007 151.353 305.008 146.593 307.745 141.495Z" fill="#AB7F19"/>
</g>
</g>
<defs>
<clipPath id="clip0_382_1091">
<rect width="600" height="250" fill="white"/>
</clipPath>
</defs>
</svg>
