<svg width="600" height="250" viewBox="0 0 600 250" fill="none" xmlns="http://www.w3.org/2000/svg">
<g clip-path="url(#clip0_934_46)">
<path d="M204.805 186.471L210.841 170.393H211.512L217.548 186.471L216.877 187.141H205.476L204.805 186.471ZM206.816 158.334L206.147 159.005L190.721 197.862V204.562L191.392 205.233H197.429L198.1 204.562L201.454 195.853L202.796 195.183H219.562L220.902 195.853L224.256 204.562L224.927 205.233H230.964L231.635 204.562V197.862L216.209 159.005L215.537 158.334H206.819H206.816Z" fill="#13A64D"/>
<path d="M259.799 166.373H247.055L246.387 167.041V177.762L247.055 178.433H259.799C263.824 178.433 266.507 177.092 266.507 172.403C266.507 167.715 263.824 166.373 259.799 166.373ZM265.836 185.801V186.469L274.554 197.857V204.558L273.883 205.228H269.861L268.518 204.558L255.106 187.139L253.766 186.469H247.058L246.39 187.139V204.558L245.718 205.228H237.671L237 204.558V159L237.671 158.329H259.805C269.195 158.329 275.903 163.02 275.903 172.397C275.903 179.768 271.209 184.457 265.841 185.798" fill="#13A64D"/>
<path d="M301.985 185.133H291.255L290.584 185.804V196.522L291.255 197.192H301.985C306.681 197.192 308.693 195.184 308.693 191.163C308.693 187.142 306.681 185.133 301.985 185.133ZM301.985 166.373H291.255L290.584 167.041V176.421L291.255 177.092H301.985C306.01 177.092 307.35 174.412 307.35 171.733C307.35 168.382 306.01 166.373 301.985 166.373ZM304.667 205.231H281.865L281.194 204.561V159.003L281.865 158.332H303.328C310.035 158.332 316.74 161.682 316.74 170.391C316.74 175.08 314.729 179.101 310.032 180.442V181.112C315.397 182.451 318.08 186.471 318.08 192.501C318.08 201.881 311.372 205.231 304.667 205.231Z" fill="#13A64D"/>
<path d="M344.168 165.703C335.449 165.703 330.753 172.403 330.753 181.783C330.753 191.163 335.449 197.86 344.168 197.86C352.887 197.86 357.58 191.16 357.58 181.783C357.58 172.406 352.887 165.703 344.168 165.703ZM344.168 205.901C330.084 205.901 321.366 195.851 321.366 181.783C321.366 167.714 330.084 157.664 344.168 157.664C358.251 157.664 366.97 167.712 366.97 181.783C366.97 195.854 358.251 205.901 344.168 205.901Z" fill="#13A64D"/>
<path d="M394.268 166.373H381.524L380.856 167.041V177.762L381.524 178.433H394.268C398.293 178.433 400.975 177.092 400.975 172.403C400.975 167.715 398.293 166.373 394.268 166.373ZM400.304 185.801V186.469L409.023 197.857V204.558L408.351 205.228H404.329L402.987 204.558L389.574 187.139L388.234 186.469H381.527L380.858 187.139V204.558L380.187 205.228H372.14L371.468 204.558V159L372.14 158.329H394.273C403.664 158.329 410.371 163.02 410.371 172.397C410.371 179.768 405.677 184.457 400.31 185.798" fill="#13A64D"/>
<path d="M246.648 49.9556C247.8 48.5918 247.262 47.975 245.843 49.1294C245.843 49.1294 228.828 62.6912 228.808 83.0948C228.799 92.1011 230.723 104.534 245.619 117.057C247.016 118.232 247.078 116.961 246.438 116.242C246.438 116.242 232.216 100.641 232.989 83.1825C233.878 63.1525 246.648 49.9556 246.648 49.9556Z" fill="#FBBB00"/>
<path d="M233.173 55.046C231.162 57.5133 229.318 60.0457 227.63 62.6573C225.185 66.4574 223.143 70.4441 221.605 74.6007C220.848 76.6832 220.234 78.811 219.729 80.9699C219.256 83.1373 218.925 85.3358 218.701 87.5655C218.443 90.4855 218.438 93.4423 218.591 96.4529C218.673 98.0516 217.608 98.3459 217.104 96.7953C216.132 93.8158 215.571 90.6751 215.415 87.4947C215.319 85.0755 215.472 82.6393 215.835 80.2286C216.237 77.8263 216.86 75.458 217.682 73.1661C219.375 68.5965 221.891 64.3663 225.001 60.7021C226.562 58.8743 228.264 57.1794 230.1 55.6571C230.771 55.111 231.454 54.5791 232.153 54.0726C233.383 53.1841 234.088 53.9198 233.173 55.0431" fill="#FBBB00"/>
<path d="M306.973 136.921C309.446 137.495 310.287 136.935 307.52 135.795C280.868 125.162 258.751 114.268 248.871 89.9172C242.668 74.6265 245.546 58.5323 258.281 47.1832C259.301 46.1532 258.332 45.8391 257.173 46.7531C257.173 46.7531 230.414 66.1607 249.092 99.4753C264.957 127.77 304.234 136.284 306.973 136.921Z" fill="#13A64D"/>
<path d="M392.939 141.298C387.676 112.726 362.557 71.8024 324.462 52.9777C314.649 48.128 304.514 44.526 294.164 42.8283C282.579 40.9297 273.634 41.7559 265.98 47.0414C261.598 50.0662 258.284 54.7009 256.528 60.1392C252.995 71.0837 256.233 83.8759 265.413 95.2392C274.594 106.6 289.134 116.127 304.302 120.722C317.148 124.612 335.475 127.447 359.039 130.509C368.964 131.799 379.368 135.328 389.124 140.715C389.367 140.851 389.586 140.944 389.764 141.055C391.183 141.943 392.141 142.45 392.648 142.257C393.064 142.102 392.937 141.295 392.937 141.295M339.081 78.5706C339.081 78.5706 340.301 80.7833 337.857 80.9333C335.412 81.0832 327.49 80.5994 317.604 74.0887C304.639 65.5492 308.797 58.6226 308.797 58.6226C309.038 58.2378 309.344 57.8841 309.709 57.57C310.083 57.2644 310.511 56.9985 310.973 56.7721C311.916 56.342 312.987 56.0874 314.1 55.9798C315.386 55.8468 316.714 55.8865 318.04 56.1128C322.858 56.939 330.365 60.8409 334.851 63.959C340.621 67.9685 345.284 73.3671 346.624 75.0479C349.887 79.1393 351.62 83.1742 352.499 85.8368C354.116 90.7347 354.612 93.6208 354.697 95.0921C354.66 95.078 354.62 95.061 354.583 95.0468C351.96 93.9999 347.083 92.0504 341.332 91.3232C331.226 90.0471 324.161 88.4512 318.434 86.1424C311.67 83.4176 306.248 79.5977 301.367 74.1141C297.725 70.0425 295.807 66.1208 296.068 61.9869C296.314 58.0737 297.943 55.2215 301.642 53.3201C304.764 51.7186 308.761 51.5432 311.587 52.2166C314.516 52.9155 314.681 53.2069 313.222 53.3173C311.746 53.4276 310.528 53.7021 309.602 54.0105C305.826 55.2725 304.373 58.2463 304.26 61.0022C304.041 66.3415 307.71 71.5449 315.321 77.2832C317.346 78.8111 319.57 80.0929 321.87 81.1681C324.11 82.2094 335.639 87.4326 341.086 84.0004C341.865 83.5109 342.706 82.6819 343.069 81.6293C343.443 80.5909 343.378 79.5864 343.208 78.7885C342.839 77.1728 342.14 75.9816 341.423 74.8696C340.692 73.7746 339.913 72.7503 339.058 71.7855C337.353 69.8614 335.398 68.2061 333.296 66.7857C332.243 66.0755 331.138 65.453 330.011 64.8503C324.311 61.8143 316.457 60.2467 317.462 65.0739C317.624 65.8492 317.989 66.4179 318.352 66.9583C319.099 68.0194 319.997 68.8852 320.935 69.6888C321.731 70.3594 322.592 70.9508 323.442 71.5449C324.275 72.1278 324.413 71.3384 323.864 70.9083C323.088 70.3 322.397 69.5926 321.725 68.8852C320.924 68.0222 320.182 67.0941 319.638 66.1151C319.462 65.8011 319.247 65.3115 319.201 64.9267C319.148 64.491 319.346 64.3637 319.609 64.3127C319.91 64.2533 320.34 64.2844 320.674 64.3467C320.674 64.3467 326.24 65.2946 331.634 69.5247C337.024 73.7548 339.089 78.5706 339.089 78.5706M301.688 48.9598C303.234 49.2003 305.404 49.9021 303.384 50.168C301.971 50.3548 300.294 50.9178 298.869 51.7497C294.79 54.2142 292.442 57.8756 292.19 62.2104C291.912 66.9923 293.858 72.0005 298.246 76.9012C303.566 82.8799 309.486 87.0506 316.87 90.0245C322.946 92.472 330.331 94.1527 340.808 95.4741C346.026 96.1334 350.584 97.9527 353.031 98.9317C354.487 99.5146 355.158 99.7806 355.804 99.7806C355.909 99.7806 356.011 99.7749 356.116 99.7608C356.991 99.6476 358.118 99.2402 358.277 97.7716C358.453 96.1277 358.577 90.0131 353.855 80.3164C353.484 79.5553 353.801 79.2186 354.394 79.9203C361.713 88.5786 364.721 102.984 365.543 108.396C361.948 106.775 355.294 104.011 347.451 103.003C332.928 101.144 323.419 98.9883 315.655 95.7995C305.455 91.6118 298.677 87.0648 292.986 80.5937C288 74.946 285.004 68.5145 284.989 63.8062C284.958 54.0416 293.827 47.7431 301.688 48.9598ZM291.009 46.6906C292.873 46.8094 294.125 47.1744 292.204 47.7799C284.267 50.2727 280.877 57.8558 280.811 63.761C280.746 69.5445 284.126 76.8701 289.853 83.3553C295.994 90.3385 303.237 95.2138 314.072 99.6646C322.195 103.001 332.022 105.239 346.927 107.149C355.147 108.204 362.084 111.376 365.036 112.754C368.398 114.324 369.454 113.139 369.596 112.366C370.092 109.673 367.511 97.9358 365.316 92.9332C364.636 91.3826 365.812 93.2699 366.814 94.8459C369.044 98.3573 370.879 102.327 372.327 106.15C374.899 112.935 376.255 119.253 376.437 121.718C371.873 119.533 363.452 115.965 353.53 114.684C334.543 112.23 323.462 110.088 312.641 106.778C301.215 103.284 290.252 96.2296 282.559 87.4213C276.523 80.5258 272.773 72.7305 272.622 66.067C272.302 51.8403 283.44 46.2124 291.012 46.6934M359.586 126.372C336.228 123.339 318.094 120.538 305.523 116.729C291.125 112.366 277.35 103.354 268.674 92.6191C260.394 82.3763 257.392 70.996 260.513 61.4266C264.229 50.0294 273.231 46.2152 279.154 45.8644C280.548 45.7823 281.086 46.0058 280.316 46.3567C271.24 50.5047 268.365 58.4245 268.439 66.067C268.507 73.2059 272.642 82.4414 279.409 90.1716C287.598 99.5457 299.266 107.055 311.415 110.773C322.482 114.16 333.75 116.342 352.991 118.829C364.497 120.314 373.955 125.113 377.06 126.692C379.32 127.841 381.258 127.96 381.074 125.532C380.762 121.381 378.131 112.117 377.873 111.382C377.544 110.442 377.595 109.859 378.405 111.441C380.836 116.189 385.365 126.437 387.373 135.084C378.275 130.557 368.743 127.561 359.577 126.372" fill="#13A64D"/>
</g>
<defs>
<clipPath id="clip0_934_46">
<rect width="234" height="170" fill="white" transform="translate(183.025 40)"/>
</clipPath>
</defs>
</svg>
