<?xml version="1.0" encoding="UTF-8"?>
<svg version="1.1" xmlns="http://www.w3.org/2000/svg" width="1569" height="703">
<path d="M0 0 C228.69 0 457.38 0 693 0 C693 74.58 693 149.16 693 226 C692.34 226 691.68 226 691 226 C689.78995325 224.48668339 688.65876169 222.91017036 687.5625 221.3125 C670.46628758 196.63089706 670.46628758 196.63089706 648 178 C648 177.34 648 176.68 648 176 C647.42636719 175.74863281 646.85273437 175.49726563 646.26171875 175.23828125 C643.69919725 173.83531179 641.92679465 172.20449968 639.8125 170.1875 C625.10471744 156.73236265 608.28802743 145.19879629 591.2265625 134.9453125 C589.0568816 133.6371998 586.90574523 132.29787527 584.7734375 130.9296875 C550.13063646 108.8978845 508.35660356 96.14546053 468 90 C467.28827637 89.88962402 466.57655273 89.77924805 465.84326172 89.66552734 C449.94752925 87.2432115 434.168057 86.79214543 418.125 86.8125 C417.17124481 86.81343658 416.21748962 86.81437317 415.23483276 86.81533813 C349.0744142 86.95605041 284.40466351 105.83553455 230 144 C229.33677734 144.45568359 228.67355469 144.91136719 227.99023438 145.38085938 C218.62361649 151.82822859 209.89928933 158.53461656 201.77026367 166.50634766 C200.91331909 167.34431885 200.91331909 167.34431885 200.0390625 168.19921875 C199.54615723 168.69252686 199.05325195 169.18583496 198.54541016 169.6940918 C196.81334411 171.15772865 195.05729113 172.06237028 193 173 C193 173.66 193 174.32 193 175 C191.625 176.625 191.625 176.625 190 178 C189.34 178 188.68 178 188 178 C187.79375 178.556875 187.5875 179.11375 187.375 179.6875 C184.55280448 184.43391974 179.2973361 187.56384475 174.85107422 190.73974609 C145.52881405 211.69305731 118.81360555 237.84047661 112.4375 274.7421875 C108.71015396 305.88996856 116.48815726 333.8408985 135 359 C134.95359375 357.85144531 134.9071875 356.70289063 134.859375 355.51953125 C134.41995878 340.11499689 136.88396661 329.12998054 147 317 C147.33 316.67 147.66 316.34 148 316 C154.43946232 316.49691411 160.73270181 317.62690228 167.08569336 318.76464844 C184.60117 321.87479943 202.09908119 323.8959332 219.91796875 324.08984375 C234.80204858 324.30227476 247.88736 327.31501251 262 332 C263.04003174 332.3410376 263.04003174 332.3410376 264.10107422 332.68896484 C273.47660089 335.83277793 282.27776669 340.38690772 291 345 C292.05316406 345.55558594 293.10632812 346.11117188 294.19140625 346.68359375 C311.04576067 356.04213675 326.41471065 369.6579275 338 385 C338.88751953 386.16402344 338.88751953 386.16402344 339.79296875 387.3515625 C367.93876119 425.86685742 373.71947338 472.57729893 367.1418457 518.79223633 C363.33688576 542.13252061 352.85054657 564.0044236 339 583 C338.26394531 584.02609375 337.52789063 585.0521875 336.76953125 586.109375 C325.13849032 601.80315478 312.08241223 616.52849274 297 629 C296.19103271 629.6796582 296.19103271 629.6796582 295.36572266 630.37304688 C206.93627337 704.55929737 114.25002754 699 0 699 C0 468.33 0 237.66 0 0 Z " fill="#0046B9" transform="translate(876,0)"/>
<path d="M0 0 C6.7760958 0.63879662 13.08456813 2.20856717 19.625 4.0625 C20.72457031 4.37413086 21.82414062 4.68576172 22.95703125 5.00683594 C56.46137852 14.6937948 89.21654773 29.19352462 118 49 C118.64952637 49.44134277 119.29905273 49.88268555 119.96826172 50.33740234 C134.49167245 60.2334054 148.06558686 71.1029886 161 83 C162.66624255 84.47964441 164.33291702 85.95880256 166 87.4375 C171.16498551 92.09418535 176.37766578 96.79741532 181 102 C181 102.66 181 103.32 181 104 C181.99 104.33 182.98 104.66 184 105 C185.48011069 106.63213757 186.88758718 108.33090189 188.25 110.0625 C190.86745475 113.34797289 193.48115312 116.5848447 196.3125 119.6875 C214.39496102 140.19769884 229.34047603 164.61604526 241.12060547 189.19873047 C241.9459009 190.88918846 242.81717743 192.55697779 243.69140625 194.22265625 C265.79362348 236.4271221 278.98864636 287.57887993 279.203125 335.28125 C279.20995804 336.32580856 279.21679108 337.37036713 279.22383118 338.44657898 C279.24079564 341.79775263 279.24715188 345.14878598 279.25 348.5 C279.25300613 350.20876816 279.25300613 350.20876816 279.256073 351.95205688 C279.26301041 368.01896778 278.8375523 383.73347011 276.35986328 399.63427734 C276.00655502 401.95690762 275.72810699 404.27894513 275.46484375 406.61328125 C275 410 275 410 274 411 C271.79774546 411.0970006 269.59231336 411.12186709 267.38792419 411.12025452 C266.68878232 411.12110894 265.98964044 411.12196337 265.26931244 411.12284368 C262.90925249 411.12450051 260.54926247 411.11897384 258.18920898 411.11352539 C256.50435386 411.11324354 254.81949861 411.11340122 253.13464355 411.1139679 C248.54599547 411.11425594 243.9573733 411.10835811 239.36873126 411.10139394 C234.57875368 411.09516153 229.78877557 411.09455669 224.99879456 411.09336853 C215.92170968 411.09025488 206.84463679 411.08204104 197.7675572 411.07201904 C187.43641419 411.06085895 177.10527061 411.05534772 166.77412307 411.05032361 C145.51607535 411.03985845 124.25803843 411.02225836 103 411 C104.37161926 408.13981019 105.58266094 406.2552945 107.9375 404.125 C113.09457401 399.11834065 117.35844328 393.39805111 121.70703125 387.69433594 C122.81681019 386.24005613 123.93850072 384.79487975 125.0625 383.3515625 C141.19253776 362.04647096 152.07770361 338.02307815 161 313 C161.28536621 312.20400391 161.57073242 311.40800781 161.86474609 310.58789062 C181.88446179 252.8909908 172.41758419 181.11659861 146.56958008 126.97070312 C137.25493717 108.09175872 124.70166102 87.96226956 109.3215332 73.41210938 C108 72 108 72 108 70 C106.02 69.01 106.02 69.01 104 68 C104 67.34 104 66.68 104 66 C102.515 65.505 102.515 65.505 101 65 C98.65463991 62.79260227 96.45482419 60.49392672 94.2734375 58.125 C69.64400307 32.25933913 33.62159356 12.14181163 0 1 C0 0.67 0 0.34 0 0 Z " fill="#0047BA" transform="translate(1289,288)"/>
<path d="M0 0 C9.90922388 8.41829478 14.04689628 20.40637767 16.125 32.875 C16.125 48.385 16.125 63.895 16.125 79.875 C75.525 79.875 134.925 79.875 196.125 79.875 C196.125 50.505 196.125 21.135 196.125 -9.125 C207.015 -9.125 217.905 -9.125 229.125 -9.125 C229.125 30.145 229.125 69.415 229.125 109.875 C158.835 109.875 88.545 109.875 16.125 109.875 C16.125 114.495 16.125 119.115 16.125 123.875 C14.71298672 136.19280686 11.36667389 152.14745409 1.25390625 160.40234375 C-0.41657723 161.61571304 -2.14158138 162.75337619 -3.875 163.875 C-8.39466192 159.59745185 -11.40670275 154.68606005 -14.6875 149.4375 C-15.29787109 148.49583984 -15.90824219 147.55417969 -16.53710938 146.58398438 C-17.3946582 145.2140332 -17.3946582 145.2140332 -18.26953125 143.81640625 C-18.79393799 142.98826416 -19.31834473 142.16012207 -19.85864258 141.30688477 C-21.50549006 137.36639766 -20.08525396 134.56453367 -18.8828125 130.62109375 C-17.74472582 126.39076381 -17.2043722 122.28383084 -16.75 117.9375 C-16.62044922 116.76864258 -16.62044922 116.76864258 -16.48828125 115.57617188 C-16.27848677 113.6763663 -16.07598006 111.77575826 -15.875 109.875 C-16.80892578 109.92720703 -16.80892578 109.92720703 -17.76171875 109.98046875 C-38.16827562 110.57815033 -59.38494799 106.79478141 -75.08984375 92.91796875 C-88.45941635 79.08649154 -92.30179186 60.15052042 -92.08203125 41.55078125 C-91.23632385 26.53548573 -85.9580952 12.36588896 -74.72265625 2.0625 C-54.16595806 -13.72865361 -21.38473805 -15.11429791 0 0 Z M-52.6875 24.5 C-59.49782261 33.09842101 -59.69877057 42.17742386 -58.875 52.875 C-57.55696899 60.94793992 -54.0737878 68.54024846 -47.578125 73.69921875 C-39.5029937 78.87783556 -32.54254552 79.98750856 -23.07421875 79.9140625 C-22.03364319 79.90983276 -22.03364319 79.90983276 -20.9720459 79.90551758 C-19.27301589 79.89820363 -17.5740034 79.88699579 -15.875 79.875 C-15.8246434 75.32586181 -15.78884115 70.77689434 -15.76513672 66.22753906 C-15.7552297 64.68779669 -15.74170031 63.14807233 -15.72412109 61.60839844 C-14.7998089 41.47385169 -14.7998089 41.47385169 -21.44921875 23.2890625 C-23.68060451 21.0760169 -25.94081593 19.93630062 -28.875 18.875 C-29.49375 18.648125 -30.1125 18.42125 -30.75 18.1875 C-39.43833011 16.9098044 -46.50241829 17.97707769 -52.6875 24.5 Z " fill="#0047BA" transform="translate(319.875,357.125)"/>
<path d="M0 0 C0.81169647 0.00060425 1.62339294 0.0012085 2.45968628 0.00183105 C16.10170407 0.02925926 29.57027593 0.54801324 43.125 2.1875 C44.21506348 2.31640625 45.30512695 2.4453125 46.42822266 2.578125 C109.99776824 10.31500166 169.90634427 35.92495027 219.125 77.1875 C219.64046387 77.61949707 220.15592773 78.05149414 220.68701172 78.49658203 C223.50644257 80.86313823 226.31696535 83.23965256 229.1171875 85.62890625 C230.90388776 87.14876167 232.69804641 88.66002843 234.5078125 90.15234375 C236.08221772 91.45584929 237.61098071 92.81431972 239.125 94.1875 C239.125 94.8475 239.125 95.5075 239.125 96.1875 C239.785 96.1875 240.445 96.1875 241.125 96.1875 C242.49832694 98.93415389 242.24464892 101.12374068 242.23852539 104.19775391 C242.23844986 105.45891022 242.23837433 106.72006653 242.23829651 108.0194397 C242.23318949 109.40098103 242.22797349 110.78252196 242.22265625 112.1640625 C242.22079144 113.5736791 242.21936783 114.98329634 242.21836853 116.39291382 C242.21454833 120.10503932 242.20472228 123.81712578 242.19366455 127.52923584 C242.18343975 131.31636019 242.17886862 135.10349083 242.17382812 138.890625 C242.16309958 146.32293448 242.14602911 153.75521177 242.125 161.1875 C241.465 161.1875 240.805 161.1875 240.125 161.1875 C238.70584349 159.4683104 237.36561434 157.6837319 236.0625 155.875 C235.25717172 154.77330168 234.44982671 153.67307516 233.640625 152.57421875 C233.22619141 152.01138184 232.81175781 151.44854492 232.38476562 150.86865234 C228.51391624 145.70301884 224.50785216 140.49215839 219.86328125 136 C218.125 134.1875 218.125 134.1875 218.125 132.1875 C217.465 132.1875 216.805 132.1875 216.125 132.1875 C214.6796875 130.71875 214.6796875 130.71875 213 128.6875 C207.55651731 122.29732467 201.65594492 116.52948651 195.28125 111.07421875 C193.77334184 109.75479911 192.2961543 108.39981273 190.84375 107.01953125 C182.23994585 98.88043874 172.73250216 92.08237486 163.125 85.1875 C162.17367188 84.49527344 161.22234375 83.80304688 160.2421875 83.08984375 C100.24607552 40.07568211 31.00707718 23.30109581 -41.875 22.1875 C-41.545 23.1775 -41.215 24.1675 -40.875 25.1875 C-39.80231438 40.20509875 -42.35107286 53.06441346 -51.875 65.1875 C-61.99567734 76.61862361 -76.4887937 82.00056833 -91.40234375 83.4296875 C-107.55017939 83.94051534 -122.31926666 76.76575092 -134.08984375 66.19921875 C-139.43424711 60.75223567 -146.875 50.19751727 -146.875 42.1875 C-162.06892657 48.07605527 -176.83835515 54.218569 -191.17578125 61.97265625 C-192.06652344 62.37355469 -192.95726562 62.77445313 -193.875 63.1875 C-194.535 62.8575 -195.195 62.5275 -195.875 62.1875 C-188.16452118 56.30445275 -180.202249 51.17913703 -171.82226562 46.31982422 C-169.94191402 45.22641013 -168.07246238 44.11601204 -166.203125 43.00390625 C-116.47490541 13.81304979 -57.3938486 -0.07950204 0 0 Z " fill="#0047B9" transform="translate(1326.875,160.8125)"/>
<path d="M0 0 C10.23 0 20.46 0 31 0 C38.32027205 7.87800707 38.32027205 7.87800707 39.76171875 11.76953125 C42.18335552 17.67248159 45.48307455 22.86282428 48.875 28.25 C50.07144368 30.2164822 51.26414822 32.18524418 52.453125 34.15625 C59.84181595 46.34960883 67.37550167 58.45289241 75 70.5 C81.39616222 80.62725684 87.69533018 90.81553336 94 101 C94.33 67.67 94.66 34.34 95 0 C105.89 0 116.78 0 128 0 C128 52.8 128 105.6 128 160 C117.77 160 107.54 160 97 160 C89.19473671 151.0796991 89.19473671 151.0796991 87.51953125 146.73046875 C84.87960484 140.47801146 81.36820744 134.9969777 77.6875 129.3125 C76.41029055 127.27579802 75.13688147 125.23670815 73.8671875 123.1953125 C73.23006836 122.17469727 72.59294922 121.15408203 71.93652344 120.10253906 C70.64550781 118.03417969 69.35449219 115.96582031 68.06347656 113.89746094 C61.60138049 103.54568641 55.13748576 93.19517632 48.625 82.875 C48.18583252 82.17850342 47.74666504 81.48200684 47.29418945 80.7644043 C42.90287615 73.81657692 38.44505468 66.9145295 34 60 C33.67 93 33.34 126 33 160 C22.11 160 11.22 160 0 160 C0 107.2 0 54.4 0 0 Z " fill="#0046BA" transform="translate(331,539)"/>
<path d="M0 0 C86.43822357 0 86.43822357 0 100.5 7.6875 C101.14888184 8.0270874 101.79776367 8.3666748 102.46630859 8.71655273 C108.43174061 11.97521263 113.30657388 16.08995422 118 21 C118.5465625 21.515625 119.093125 22.03125 119.65625 22.5625 C132.14378439 35.31572662 136.47576475 55.79140813 137 73 C137.03996094 74.10730469 137.07992187 75.21460938 137.12109375 76.35546875 C137.27935068 84.74308596 136.5056537 92.75247017 135 101 C134.74283203 102.47726562 134.74283203 102.47726562 134.48046875 103.984375 C130.82483866 121.43706061 120.551985 137.32696603 105.7734375 147.32421875 C74.51708479 166.21009947 34.07659556 160 0 160 C0 107.2 0 54.4 0 0 Z M34 29 C34 62.66 34 96.32 34 131 C61.38701116 131.80653393 61.38701116 131.80653393 86 122 C86 121.34 86 120.68 86 120 C86.598125 119.75121094 87.19625 119.50242187 87.8125 119.24609375 C94.81181699 115.25898282 97.97641916 105.34520928 100 98 C103.64995852 81.18115704 103.76496833 60.94161388 94.65234375 45.75390625 C88.9650864 37.73108188 82.4463746 32.84705262 73 30 C60.17266432 27.86211072 47.0042728 29 34 29 Z " fill="#0047B9" transform="translate(169,539)"/>
<path d="M0 0 C11.22 0 22.44 0 34 0 C34 56.43 34 112.86 34 171 C10.405 171.04125 -13.19 171.0825 -37.5 171.125 C-44.92435547 171.14320801 -52.34871094 171.16141602 -59.99804688 171.18017578 C-69.12988281 171.18920898 -69.12988281 171.18920898 -73.41760254 171.19088745 C-76.38443044 171.19273556 -79.35118528 171.20016916 -82.31799316 171.21115112 C-86.12225263 171.22504275 -89.92640848 171.22895081 -93.73069096 171.22614455 C-95.75880619 171.22700246 -97.78691043 171.23763821 -99.81499481 171.2488575 C-119.2119567 171.20574583 -139.40279408 169.02972355 -154.57421875 155.74609375 C-166.51114526 143.45401901 -169.35820574 126.65618252 -169.1484375 110.10546875 C-168.43054431 95.08638744 -163.21061394 82.11175916 -153 71 C-140.91948734 60.75343703 -126.87675735 55.7262628 -111 56 C-108.80304091 65.57246459 -107.94180812 75.2412648 -107 85 C-108.62808594 85.36351562 -108.62808594 85.36351562 -110.2890625 85.734375 C-111.73452507 86.07227534 -113.17982939 86.41085313 -114.625 86.75 C-115.33785156 86.90726562 -116.05070312 87.06453125 -116.78515625 87.2265625 C-123.81021944 88.90226565 -128.85653697 91.93278627 -133 98 C-137.59182779 106.45863015 -136.19464582 117.04152774 -134 126 C-131.48570079 131.31870988 -127.21134867 135.28388107 -122 138 C-115.24376924 140.06265778 -108.62153041 140.30399693 -101.60522461 140.31884766 C-100.48406281 140.32900091 -99.36290102 140.33915417 -98.20776463 140.3496151 C-94.60596062 140.38006485 -91.00423489 140.3973539 -87.40234375 140.4140625 C-85.16767713 140.43101217 -82.93301693 140.44883047 -80.69836426 140.4675293 C-72.44481639 140.5305324 -64.19114737 140.57676314 -55.9375 140.625 C-37.478125 140.74875 -19.01875 140.8725 0 141 C0 94.47 0 47.94 0 0 Z " fill="#0047B9" transform="translate(169,296)"/>
<path d="M0 0 C16.48965972 13.15272464 24.42408343 34.30837392 26.74560547 54.76806641 C29.20601555 82.97547748 24.77146277 110.75614873 6.1953125 133.0546875 C-6.35110105 146.13029951 -25.15343434 152.68784033 -43.02734375 153.37109375 C-44.53941406 153.46583984 -44.53941406 153.46583984 -46.08203125 153.5625 C-65.06842821 154.24215162 -84.31878612 148.67742077 -99.01171875 136.33984375 C-116.82276347 118.94300937 -123.78322285 96.65953954 -124.43164062 72.27978516 C-124.68454121 47.74470908 -119.55726723 24.00308136 -102.296875 5.68359375 C-101.54792969 4.92046875 -100.79898437 4.15734375 -100.02734375 3.37109375 C-99.41246094 2.73171875 -98.79757812 2.09234375 -98.1640625 1.43359375 C-72.869978 -22.83139524 -26.5296473 -19.70440945 0 0 Z M-76.96484375 25.3046875 C-87.29019109 37.43252004 -89.42167274 53.30092944 -89.33984375 68.68359375 C-89.3349292 69.78082764 -89.33001465 70.87806152 -89.32495117 72.00854492 C-89.10580285 87.19945706 -86.27956582 103.01162301 -75.4140625 114.39453125 C-64.74819455 123.2274759 -53.2634822 124.22544646 -40.02734375 123.37109375 C-30.64881107 121.95772612 -23.29068577 116.78545692 -17.40234375 109.45703125 C-6.21665058 92.48782627 -5.82450261 68.75866921 -9.08984375 49.30859375 C-11.64935043 38.47898292 -16.76164065 26.49982535 -26.0859375 19.91796875 C-41.96316519 10.34210179 -63.72193779 12.08848095 -76.96484375 25.3046875 Z " fill="#0046BA" transform="translate(609.02734375,549.62890625)"/>
<path d="M0 0 C12.04012844 9.9118229 18.3498476 25.25441609 21.5078125 40.22265625 C21.5078125 41.21265625 21.5078125 42.20265625 21.5078125 43.22265625 C10.17885004 45.03483435 -1.02032925 46.67185511 -12.4921875 47.22265625 C-12.71132813 46.38863281 -12.93046875 45.55460938 -13.15625 44.6953125 C-15.71240355 35.62408467 -18.9528105 26.26865175 -27.4921875 21.22265625 C-36.87402239 17.29934348 -46.44488059 16.88857959 -56.078125 20.19140625 C-66.81830798 24.77944558 -71.82556052 31.85647202 -76.2421875 42.41015625 C-83.11074643 61.49194053 -82.98560086 86.25631305 -74.64453125 104.984375 C-69.72669903 114.53663894 -63.92665429 120.93697987 -53.68652344 124.61621094 C-49.97900421 125.64085243 -46.3819495 125.71116465 -42.5546875 125.66015625 C-41.36999878 125.64988403 -41.36999878 125.64988403 -40.16137695 125.6394043 C-32.660437 125.43261535 -27.67595222 123.68283808 -21.7421875 119.09765625 C-16.02257242 111.78925921 -14.34349278 105.47918267 -12.4921875 96.22265625 C-0.2821875 96.22265625 11.9278125 96.22265625 24.5078125 96.22265625 C20.75519836 116.23659833 16.22941192 131.87147486 -0.4921875 144.22265625 C-19.01242087 156.24407279 -41.15892156 158.53748471 -62.4921875 154.22265625 C-80.12050218 149.98415436 -94.81100457 140.0907635 -104.43652344 124.65795898 C-118.49782873 100.95090257 -120.17338544 68.61791117 -113.4921875 42.22265625 C-108.12935069 23.56683033 -98.34950261 7.40159787 -81.375 -2.6171875 C-56.5539055 -15.92827332 -23.54425 -16.79096199 0 0 Z " fill="#0046BA" transform="translate(772.4921875,546.77734375)"/>
<path d="M0 0 C10.89 0 21.78 0 33 0 C37.61735319 11.78139087 42.11132248 23.59704607 46.47866821 35.4730835 C48.30897573 40.44953799 50.14522704 45.42380104 51.98046875 50.3984375 C52.3751384 51.46865143 52.76980804 52.53886536 53.17643738 53.64151001 C58.12245542 67.05012061 63.0911641 80.45031318 68.06144333 93.84994507 C68.81059711 95.8698693 69.55952301 97.88987788 70.30838013 99.90991211 C77.18623123 118.46387484 77.18623123 118.46387484 84.1328125 136.9921875 C84.57481239 138.16519913 84.57481239 138.16519913 85.02574158 139.36190796 C86.31331311 142.77690182 87.6046918 146.19036267 88.90356445 149.60107422 C89.32597412 150.71756348 89.74838379 151.83405273 90.18359375 152.984375 C90.53993896 153.91991211 90.89628418 154.85544922 91.26342773 155.81933594 C92 158 92 158 92 160 C80.12 160 68.24 160 56 160 C51.5 148.75 51.5 148.75 49.640625 143.3359375 C49.28516602 142.3051709 48.92970703 141.2744043 48.56347656 140.21240234 C48.1300293 138.94605957 47.69658203 137.6797168 47.25 136.375 C45.14625 130.249375 45.14625 130.249375 43 124 C24.85 123.67 6.7 123.34 -12 123 C-12.66 125.97 -13.32 128.94 -14 132 C-14.66916491 134.17821131 -15.37628555 136.34529197 -16.12890625 138.49609375 C-16.52400391 139.63111328 -16.91910156 140.76613281 -17.32617188 141.93554688 C-17.73416016 143.09119141 -18.14214844 144.24683594 -18.5625 145.4375 C-18.97435547 146.62021484 -19.38621094 147.80292969 -19.81054688 149.02148438 C-22.83599702 157.67199405 -22.83599702 157.67199405 -24 160 C-35.55 160 -47.1 160 -59 160 C-57.18687905 153.35188984 -55.43707683 147.06284837 -52.98828125 140.6875 C-52.70374084 139.93388184 -52.41920044 139.18026367 -52.1260376 138.40380859 C-51.51339925 136.78285847 -50.89850422 135.16275974 -50.28152466 133.54345703 C-48.93162221 130.00028726 -47.59308353 126.45285229 -46.25352478 122.90576172 C-45.54924064 121.04128458 -44.84436949 119.17702908 -44.13893127 117.31298828 C-40.89421077 108.73655408 -37.69651341 100.14302887 -34.50720215 91.54586792 C-27.33926386 72.22906615 -20.11752082 52.93240105 -12.88727951 33.63885498 C-12.06378033 31.44091723 -11.24070678 29.24282054 -10.41775513 27.04467773 C-9.11845711 23.57436275 -7.81803948 20.1044694 -6.51673889 16.63490486 C-6.0319316 15.3418044 -5.54749103 14.04856638 -5.06343079 12.75518608 C-4.3975651 10.97629747 -3.7301946 9.19797234 -3.06274414 7.41967773 C-2.68686661 6.41686264 -2.31098907 5.41404755 -1.92372131 4.38084412 C-1 2 -1 2 0 0 Z M15 40 C12.65133449 47.0228686 10.30427076 54.04627031 7.95927429 61.07036495 C6.87045339 64.33159982 5.78107286 67.59264554 4.69042969 70.85327148 C3.4378043 74.59824565 2.18758356 78.3440203 0.9375 82.08984375 C0.54377197 83.26586655 0.15004395 84.44188934 -0.25561523 85.65354919 C-0.61598877 86.73459427 -0.9763623 87.81563934 -1.34765625 88.92944336 C-1.66742432 89.88652695 -1.98719238 90.84361053 -2.31665039 91.82969666 C-3.05005471 93.77974891 -3.05005471 93.77974891 -3 95 C9.21 95 21.42 95 34 95 C31.99479262 87.64757293 29.90552737 80.48463591 27.42578125 73.30078125 C27.09708542 72.3397197 26.76838959 71.37865814 26.42973328 70.38847351 C25.3938458 67.36204448 24.35326306 64.33725536 23.3125 61.3125 C22.60320248 59.24294584 21.89421534 57.17328527 21.18554688 55.10351562 C19.46061198 50.06777664 17.73183419 45.03337015 16 40 C15.67 40 15.34 40 15 40 Z " fill="#0046BA" transform="translate(59,539)"/>
<path d="M0 0 C1.81600708 -0.01450195 1.81600708 -0.01450195 3.66870117 -0.02929688 C20.16645252 0.12399234 33.84037193 4.85137276 45.96875 16.19140625 C65.44677391 36.48101449 64.48269148 65.64815196 64.33081055 91.90185547 C64.31213132 95.25365532 64.31030451 98.60518392 64.31054688 101.95703125 C64.30564497 104.09114825 64.29982254 106.22526338 64.29296875 108.359375 C64.29185593 109.36015076 64.2907431 110.36092651 64.28959656 111.39202881 C64.28321671 112.3051886 64.27683685 113.21834839 64.27026367 114.15917969 C64.26645187 114.96409851 64.26264008 115.76901733 64.25871277 116.59832764 C64.125 118.4375 64.125 118.4375 63.125 119.4375 C61.07472261 119.53430041 59.02105121 119.55936943 56.9684906 119.55775452 C55.99328173 119.55903615 55.99328173 119.55903615 54.99837166 119.56034368 C52.8041442 119.56200026 50.60999198 119.55647425 48.41577148 119.55102539 C46.84914146 119.55074353 45.2825113 119.55090123 43.71588135 119.5514679 C39.44953623 119.55175592 35.18321898 119.54585843 30.91688037 119.53889394 C26.46322949 119.53266118 22.00957803 119.53205666 17.55592346 119.53086853 C9.11632557 119.52775498 0.67674056 119.51954128 -7.76285166 119.50951904 C-17.36849444 119.49835863 -26.97413782 119.49284764 -36.57978547 119.48782361 C-56.34486578 119.47735868 -76.10992841 119.45901291 -95.875 119.4375 C-95.875 109.5375 -95.875 99.6375 -95.875 89.4375 C-53.965 89.4375 -12.055 89.4375 31.125 89.4375 C31.35682307 62.06001596 31.35682307 62.06001596 19.8359375 37.90625 C11.09313892 30.40101651 0.01234513 30.70822569 -10.875 31.4375 C-16.26944282 32.12116101 -21.57453288 33.23900945 -26.875 34.4375 C-28.08078901 30.38020106 -29.26138684 26.31599122 -30.4375 22.25 C-30.77974609 21.09951172 -31.12199219 19.94902344 -31.47460938 18.76367188 C-31.79365234 17.65185547 -32.11269531 16.54003906 -32.44140625 15.39453125 C-32.88915405 13.86276245 -32.88915405 13.86276245 -33.34594727 12.30004883 C-33.89921949 9.30645546 -33.68151216 7.34795693 -32.875 4.4375 C-21.91915071 1.15221186 -11.44194756 0.02922779 0 0 Z " fill="#0047BA" transform="translate(667.875,347.5625)"/>
<path d="M0 0 C10.89 0 21.78 0 33 0 C33 51.15 33 102.3 33 155 C22.11 155 11.22 155 0 155 C0 103.85 0 52.7 0 0 Z " fill="#0047BA" transform="translate(758,312)"/>
<path d="M0 0 C10.89 0 21.78 0 33 0 C33 10.89 33 21.78 33 33 C22.11 33 11.22 33 0 33 C0 22.11 0 11.22 0 0 Z " fill="#0047B9" transform="translate(516,299)"/>
<path d="M0 0 C4.84362368 4.43140039 5.67483388 7.71345504 6 14 C2.27993706 15.24002098 -1.11483125 15.76067515 -5 15 C-6.6875 12.5625 -6.6875 12.5625 -8 10 C-11.63648352 8.69459566 -13.14225398 9.0355635 -17 10 C-17.33 13.96 -17.66 17.92 -18 22 C-9.75 22 -1.5 22 7 22 C7 25.96 7 29.92 7 34 C-7.19 34 -21.38 34 -36 34 C-36 30.04 -36 26.08 -36 22 C-34.35 22 -32.7 22 -31 22 C-31.03480469 21.28714844 -31.06960938 20.57429688 -31.10546875 19.83984375 C-31.31300516 12.49700806 -30.81095026 7.74793369 -26.3125 1.75 C-18.43240231 -4.21331717 -8.60774244 -4.87404219 0 0 Z " fill="#0046BA" transform="translate(788,266)"/>
<path d="M0 0 C3.54775069 2.18990654 5.23500455 4.87158728 6.71484375 8.67578125 C7.26227544 11.0449184 7.51610859 13.24127559 7.71484375 15.67578125 C3.75484375 16.00578125 -0.20515625 16.33578125 -4.28515625 16.67578125 C-4.61515625 14.69578125 -4.94515625 12.71578125 -5.28515625 10.67578125 C-10.60014895 10.09821149 -10.60014895 10.09821149 -15.22265625 12.11328125 C-16.81215738 15.61040871 -16.81215738 15.61040871 -17.28515625 23.67578125 C-9.03515625 23.67578125 -0.78515625 23.67578125 7.71484375 23.67578125 C7.71484375 27.63578125 7.71484375 31.59578125 7.71484375 35.67578125 C-6.14515625 35.67578125 -20.00515625 35.67578125 -34.28515625 35.67578125 C-34.28515625 31.71578125 -34.28515625 27.75578125 -34.28515625 23.67578125 C-32.63515625 23.67578125 -30.98515625 23.67578125 -29.28515625 23.67578125 C-29.3315625 22.83015625 -29.37796875 21.98453125 -29.42578125 21.11328125 C-29.84376062 7.9767869 -29.84376062 7.9767869 -25.28515625 2.67578125 C-18.75114952 -3.08662167 -7.72581499 -3.1142108 0 0 Z " fill="#0047BA" transform="translate(131.28515625,341.32421875)"/>
</svg>
