<?xml version="1.0" encoding="UTF-8"?>
<svg version="1.1" xmlns="http://www.w3.org/2000/svg" width="222" height="93">
<path d="M0 0 C14.24696697 -0.49233579 30.19037938 7.81770104 40.609375 17.5 C46.58178468 23.94214977 49.28569723 29.57569239 49.25 38.5 C49.25773437 40.43359375 49.25773437 40.43359375 49.265625 42.40625 C49.01830367 45.7523621 48.4505069 48.00689053 47 51 C46.34 51 45.68 51 45 51 C45.66 51.7425 46.32 52.485 47 53.25 C50.17227041 58.06546084 49.93076673 63.48084417 49 69 C44.49208823 79.40693694 32.38042927 84.70426491 22.53515625 88.7109375 C14.94708002 91.47786032 8.10137203 93.18069975 0 93 C-0.11755481 89.35444442 -0.18769812 85.70938526 -0.25 82.0625 C-0.28351563 81.04091797 -0.31703125 80.01933594 -0.3515625 78.96679688 C-0.47662173 69.18091176 2.15053712 62.02971191 9 55 C9.66 55 10.32 55 11 55 C10.96688725 52.10112882 10.89962106 49.20983378 10.8125 46.3125 C10.80669922 45.49587891 10.80089844 44.67925781 10.79492188 43.83789062 C10.63688007 39.50052102 10.49372468 37.58954625 7.625 34.1640625 C6.75875 33.44992188 5.8925 32.73578125 5 32 C-2.40086108 23.10069297 -0.46189924 10.83260314 0 0 Z M5 5 C4.19291807 17.63122391 4.19291807 17.63122391 9 29 C9.66 29.33 10.32 29.66 11 30 C11 26.7 11 23.4 11 20 C18.96533079 22.18404231 26.82099313 25.56059393 31.7734375 32.4765625 C32.97910236 34.95700676 33.27178691 36.29842294 33.25 39 C33.47489953 41.63882118 33.69720709 42.68110924 35.54296875 44.625 C38.94902106 47.20812467 38.94902106 47.20812467 43 48 C44.91097476 40.64480939 45.89522575 34.79016694 42 28 C33.2073214 15.78062439 20.84771769 9.7793008 7 5 C6.34 5 5.68 5 5 5 Z M16 26 C16 28.31 16 30.62 16 33 C15.01 33.495 15.01 33.495 14 34 C15.39025391 34.61488281 15.39025391 34.61488281 16.80859375 35.2421875 C18.60490234 36.05042969 18.60490234 36.05042969 20.4375 36.875 C21.63246094 37.40867187 22.82742187 37.94234375 24.05859375 38.4921875 C27 40 27 40 28 42 C28.78420506 39.70448014 28.78420506 39.70448014 29 37 C26.02320967 31.80726032 21.54948435 28.16565243 16 26 Z M26 42 C27 44 27 44 27 44 Z M16 40 C16 49.24 16 58.48 16 68 C24.40846192 66.31830762 31.79991802 60.87376188 38 55 C38.33 54.01 38.66 53.02 39 52 C34.99266503 48.44410174 34.99266503 48.44410174 30 47 C28.20428576 48.08266232 28.20428576 48.08266232 26.625 49.75 C23.63537857 52.52653826 20.76510335 54.3470278 17 56 C17.90014171 51.69932292 19.09828697 49.6115108 22.625 47.125 C23.73875 46.42375 24.8525 45.7225 26 45 C25.67 44.34 25.34 43.68 25 43 C22.03 42.01 19.06 41.02 16 40 Z M38.375 60.5 C34.30605228 64.16401231 30.11147797 66.8686006 25.3125 69.4375 C24.68327637 69.77910156 24.05405273 70.12070313 23.40576172 70.47265625 C19.61841623 72.43461885 16.2379318 73.53779853 12 74 C11.67 70.04 11.34 66.08 11 62 C6.48080018 66.51919982 4.93405863 68.96005707 4.8046875 75.20703125 C4.81786586 76.74230984 4.84154716 78.27752934 4.875 79.8125 C4.88402344 80.60076172 4.89304688 81.38902344 4.90234375 82.20117188 C4.92577496 84.13424666 4.96164162 86.0671638 5 88 C18.35345096 85.2079148 33.77426799 81.4008248 42.53125 70.0078125 C44.40518322 66.36573262 45.39720094 64.04798046 44.25 60 C43.8375 59.01 43.425 58.02 43 57 C41.10422762 57 39.64560881 59.26270304 38.375 60.5 Z " fill="#007EC1" transform="translate(173,0)"/>
<path d="M0 0 C0.75603516 -0.020625 1.51207031 -0.04125 2.29101562 -0.0625 C7.18772999 -0.09647547 10.61219109 0.45624615 14.8125 3.25 C17.18247882 8.48370322 16.5606222 11.0056334 14.8125 16.25 C15.286875 16.86875 15.76125 17.4875 16.25 18.125 C18.2793137 20.88486663 17.93663482 22.92589528 17.625 26.25 C16.30444625 29.50059385 14.87647397 30.51233848 11.8125 32.25 C8.19337139 32.72868532 4.64234562 32.62720079 1 32.5 C-0.46856445 32.47292969 -0.46856445 32.47292969 -1.96679688 32.4453125 C-4.37470771 32.39832887 -6.78059335 32.33265694 -9.1875 32.25 C-9.21215504 27.85343827 -9.23033842 23.4569128 -9.24243164 19.06030273 C-9.24747121 17.56355082 -9.25430287 16.06680384 -9.26293945 14.57006836 C-9.27502159 12.42300193 -9.28073191 10.27600038 -9.28515625 8.12890625 C-9.29039307 6.8354126 -9.29562988 5.54191895 -9.30102539 4.20922852 C-9.07824835 -1.59782631 -4.71653874 0.03136518 0 0 Z M-2.1875 6.25 C-2.1875 8.56 -2.1875 10.87 -2.1875 13.25 C1.1125 13.25 4.4125 13.25 7.8125 13.25 C8.4725 11.93 9.1325 10.61 9.8125 9.25 C9.1525 8.26 8.4925 7.27 7.8125 6.25 C5.37556689 5.88583953 5.37556689 5.88583953 2.6875 6.0625 C1.77742187 6.08957031 0.86734375 6.11664063 -0.0703125 6.14453125 C-0.76898438 6.17933594 -1.46765625 6.21414062 -2.1875 6.25 Z M-2.1875 19.25 C-2.1875 21.89 -2.1875 24.53 -2.1875 27.25 C-0.7504191 27.30422947 0.68725462 27.34289723 2.125 27.375 C3.32576172 27.40980469 3.32576172 27.40980469 4.55078125 27.4453125 C7.09638576 27.40817322 7.09638576 27.40817322 9.8125 25.25 C10.14593551 22.70792029 10.14593551 22.70792029 9.8125 20.25 C8.75271067 18.96387324 8.75271067 18.96387324 6.30859375 19.15234375 C5.29925781 19.16394531 4.28992188 19.17554687 3.25 19.1875 C2.23808594 19.19652344 1.22617188 19.20554687 0.18359375 19.21484375 C-0.59886719 19.22644531 -1.38132812 19.23804687 -2.1875 19.25 Z " fill="#000000" transform="translate(9.1875,29.75)"/>
<path d="M0 0 C2.31 0 4.62 0 7 0 C7 4.29 7 8.58 7 13 C11.29 13 15.58 13 20 13 C20 8.71 20 4.42 20 0 C22.31 0 24.62 0 27 0 C27 10.56 27 21.12 27 32 C24.69 32 22.38 32 20 32 C20 27.71 20 23.42 20 19 C15.71 19 11.42 19 7 19 C7 23.29 7 27.58 7 32 C4.69 32 2.38 32 0 32 C0 21.44 0 10.88 0 0 Z " fill="#101820" transform="translate(124,30)"/>
<path d="M0 0 C1.134375 0.020625 2.26875 0.04125 3.4375 0.0625 C6.63524461 6.19151049 9.24488705 12.4111224 11.6875 18.875 C12.05101563 19.81537109 12.41453125 20.75574219 12.7890625 21.72460938 C13.13195312 22.62630859 13.47484375 23.52800781 13.828125 24.45703125 C14.13782227 25.27018799 14.44751953 26.08334473 14.76660156 26.92114258 C15.4375 29.0625 15.4375 29.0625 15.4375 32.0625 C12.7975 32.0625 10.1575 32.0625 7.4375 32.0625 C6.7775 29.7525 6.1175 27.4425 5.4375 25.0625 C1.68749436 25.07523347 -1.90295888 25.20428903 -5.5625 26.0625 C-7.8780324 28.93379568 -7.8780324 28.93379568 -8.5625 32.0625 C-10.8725 32.0625 -13.1825 32.0625 -15.5625 32.0625 C-14.19137009 24.80974725 -11.85876676 18.35489368 -9 11.5625 C-8.58814453 10.5621875 -8.17628906 9.561875 -7.75195312 8.53125 C-4.24167735 0.07441539 -4.24167735 0.07441539 0 0 Z M-0.5625 9.0625 C-2.85295014 13.87459901 -2.85295014 13.87459901 -3.5625 19.0625 C-1.2525 19.0625 1.0575 19.0625 3.4375 19.0625 C2.4475 15.7625 1.4575 12.4625 0.4375 9.0625 C0.1075 9.0625 -0.2225 9.0625 -0.5625 9.0625 Z " fill="#000000" transform="translate(104.5625,29.9375)"/>
<path d="M0 0 C0.91644287 0.00523682 1.83288574 0.01047363 2.77709961 0.01586914 C3.76645508 0.0190918 4.75581055 0.02231445 5.77514648 0.02563477 C6.81606445 0.03401367 7.85698242 0.04239258 8.92944336 0.05102539 C10.49662109 0.05779297 10.49662109 0.05779297 12.09545898 0.06469727 C14.68600996 0.07652627 17.27644895 0.0930085 19.86694336 0.11352539 C19.86694336 2.09352539 19.86694336 4.07352539 19.86694336 6.11352539 C14.58694336 6.11352539 9.30694336 6.11352539 3.86694336 6.11352539 C3.86694336 8.42352539 3.86694336 10.73352539 3.86694336 13.11352539 C8.48694336 13.11352539 13.10694336 13.11352539 17.86694336 13.11352539 C17.86694336 15.09352539 17.86694336 17.07352539 17.86694336 19.11352539 C13.24694336 19.11352539 8.62694336 19.11352539 3.86694336 19.11352539 C3.86694336 21.42352539 3.86694336 23.73352539 3.86694336 26.11352539 C9.14694336 26.11352539 14.42694336 26.11352539 19.86694336 26.11352539 C19.86694336 28.09352539 19.86694336 30.07352539 19.86694336 32.11352539 C12.27694336 32.11352539 4.68694336 32.11352539 -3.13305664 32.11352539 C-3.15596902 27.71689506 -3.17589498 23.32047052 -3.18798828 18.92382812 C-3.19302785 17.42707621 -3.19985951 15.93032923 -3.20849609 14.43359375 C-3.22057823 12.28652732 -3.22628855 10.13952577 -3.23071289 7.99243164 C-3.23594971 6.69893799 -3.24118652 5.40544434 -3.24658203 4.07275391 C-3.09666092 0.16481027 -3.09666092 0.16481027 0 0 Z " fill="#000000" transform="translate(65.133056640625,29.886474609375)"/>
<path d="M0 0 C0.91644287 0.00523682 1.83288574 0.01047363 2.77709961 0.01586914 C3.76645508 0.0190918 4.75581055 0.02231445 5.77514648 0.02563477 C6.81606445 0.03401367 7.85698242 0.04239258 8.92944336 0.05102539 C10.49662109 0.05779297 10.49662109 0.05779297 12.09545898 0.06469727 C14.68600996 0.07652627 17.27644895 0.0930085 19.86694336 0.11352539 C19.86694336 2.09352539 19.86694336 4.07352539 19.86694336 6.11352539 C14.58694336 6.11352539 9.30694336 6.11352539 3.86694336 6.11352539 C3.86694336 8.42352539 3.86694336 10.73352539 3.86694336 13.11352539 C8.48694336 13.11352539 13.10694336 13.11352539 17.86694336 13.11352539 C17.86694336 15.09352539 17.86694336 17.07352539 17.86694336 19.11352539 C13.24694336 19.11352539 8.62694336 19.11352539 3.86694336 19.11352539 C3.86694336 21.42352539 3.86694336 23.73352539 3.86694336 26.11352539 C9.14694336 26.11352539 14.42694336 26.11352539 19.86694336 26.11352539 C19.86694336 28.09352539 19.86694336 30.07352539 19.86694336 32.11352539 C12.27694336 32.11352539 4.68694336 32.11352539 -3.13305664 32.11352539 C-3.15596902 27.71689506 -3.17589498 23.32047052 -3.18798828 18.92382812 C-3.19302785 17.42707621 -3.19985951 15.93032923 -3.20849609 14.43359375 C-3.22057823 12.28652732 -3.22628855 10.13952577 -3.23071289 7.99243164 C-3.23594971 6.69893799 -3.24118652 5.40544434 -3.24658203 4.07275391 C-3.09666092 0.16481027 -3.09666092 0.16481027 0 0 Z " fill="#000000" transform="translate(35.133056640625,29.886474609375)"/>
</svg>
