<?xml version="1.0" encoding="UTF-8"?>
<svg version="1.1" xmlns="http://www.w3.org/2000/svg" width="638" height="164">
<path d="M0 0 C15.48125271 11.83445306 25.10917642 27.46563496 27.91319275 46.81164551 C28.44347344 51.19836878 28.5553648 55.5401637 28.58813477 59.95507812 C28.59803436 60.79505341 28.60793396 61.63502869 28.61813354 62.50045776 C28.64946629 65.24897542 28.6743931 67.99751029 28.69921875 70.74609375 C28.71981272 72.66280541 28.7408098 74.57951279 28.76219177 76.49621582 C28.81716028 81.52010605 28.8666799 86.54403554 28.91503906 91.56799316 C28.96543922 96.70291604 29.02102827 101.83778251 29.07617188 106.97265625 C29.18344459 117.0325055 29.28447702 127.09240316 29.3828125 137.15234375 C20.4728125 137.15234375 11.5628125 137.15234375 2.3828125 137.15234375 C1.57069292 132.27962626 1.23191711 127.81392887 1.22509766 122.91894531 C1.22001694 122.11483215 1.21493622 121.31071899 1.20970154 120.48223877 C1.19904095 118.74388957 1.19040405 117.00552701 1.18358231 115.26715851 C1.17172582 112.50825508 1.15225543 109.74950349 1.13046265 106.99066162 C1.06907707 99.14909982 1.01488658 91.30755518 0.98144531 83.46582031 C0.96040761 78.66065757 0.92503392 73.85577526 0.88068771 69.05077362 C0.86660198 67.22811957 0.8578222 65.40541595 0.85463333 63.58271027 C0.82677574 49.18330753 -0.30526867 37.84475311 -9.6171875 26.15234375 C-19.85605084 16.05091482 -32.05796932 11.24467667 -46.2421875 9.77734375 C-52.35769972 10.45684511 -58.46367202 11.71666677 -63.6171875 15.15234375 C-62.61300781 15.1059375 -61.60882813 15.05953125 -60.57421875 15.01171875 C-45.62146263 14.52824508 -33.85387557 17.62060839 -22.62109375 27.99609375 C-14.26812782 36.76221713 -11.4502246 46.88201567 -11.50366211 58.70629883 C-11.50351608 59.5555896 -11.50337006 60.40488037 -11.5032196 61.27990723 C-11.50391431 64.07725612 -11.51168601 66.87453779 -11.51953125 69.671875 C-11.521397 71.61528995 -11.52282016 73.55870538 -11.52381897 75.50212097 C-11.52763179 80.60994776 -11.53745153 85.71774599 -11.54852295 90.82556152 C-11.55876363 96.04060479 -11.56332228 101.25565269 -11.56835938 106.47070312 C-11.5790749 116.69793122 -11.59666171 126.92513064 -11.6171875 137.15234375 C-20.5271875 137.15234375 -29.4371875 137.15234375 -38.6171875 137.15234375 C-38.63177002 134.59838867 -38.64635254 132.04443359 -38.66137695 129.41308594 C-38.71169152 120.9791753 -38.778281 112.5454499 -38.85290241 104.11172104 C-38.89764896 98.99783653 -38.93689564 93.88403248 -38.96362305 88.77001953 C-38.98961326 83.83562084 -39.02998528 78.90153107 -39.08037376 73.9673233 C-39.09707148 72.08389373 -39.10856764 70.20041069 -39.11480141 68.31691742 C-39.12441095 65.68067463 -39.15243203 63.04522734 -39.18481445 60.40917969 C-39.18337936 59.62874802 -39.18194427 58.84831635 -39.1804657 58.04423523 C-39.23701691 54.79363083 -39.42172868 52.50311153 -41.01921082 49.6362915 C-42.49798664 47.9255175 -42.49798664 47.9255175 -44.6171875 48.15234375 C-46.74087833 50.67732648 -48.67696046 53.31689802 -50.64453125 55.96484375 C-51.62099609 57.04765625 -51.62099609 57.04765625 -52.6171875 58.15234375 C-53.6071875 58.15234375 -54.5971875 58.15234375 -55.6171875 58.15234375 C-57.58984375 55.96484375 -57.58984375 55.96484375 -59.6796875 53.15234375 C-60.94800179 51.45181063 -62.25168564 49.77587038 -63.6171875 48.15234375 C-64.2771875 48.15234375 -64.9371875 48.15234375 -65.6171875 48.15234375 C-68.02285654 53.83346379 -69.06165199 58.35682077 -69.04956055 64.49609375 C-69.0597522 65.28730118 -69.06994385 66.07850861 -69.08044434 66.89369202 C-69.1103706 69.47998319 -69.11980873 72.0659028 -69.12890625 74.65234375 C-69.14576809 76.45696219 -69.16392035 78.26156899 -69.18330383 80.06616211 C-69.23064657 84.79413211 -69.26055741 89.52205491 -69.28674316 94.25018311 C-69.31662833 99.08355019 -69.36313121 103.9167549 -69.40820312 108.75 C-69.49405733 118.21738129 -69.55994421 127.68474619 -69.6171875 137.15234375 C-78.5271875 137.15234375 -87.4371875 137.15234375 -96.6171875 137.15234375 C-96.71351797 112.69510756 -96.74363937 88.23436036 -96.40866089 63.77871704 C-96.38127055 61.59013058 -96.36041189 59.40145146 -96.34646606 57.21273804 C-96.20061863 36.15507909 -93.13867332 18.56653318 -77.75 2.95703125 C-70.62733051 -3.75550372 -61.09626427 -8.5674012 -51.6171875 -10.84765625 C-50.88371094 -11.028125 -50.15023437 -11.20859375 -49.39453125 -11.39453125 C-31.64708753 -14.29003543 -14.66581418 -10.35362702 0 0 Z " fill="#14298A" transform="translate(136.6171875,25.84765625)"/>
<path d="M0 0 C0.99 0.99 0.99 0.99 2 2 C1.04480469 2.29132812 0.08960937 2.58265625 -0.89453125 2.8828125 C-20.34317066 8.97677003 -37.23948343 19.80347931 -47.5859375 37.953125 C-52.91179594 49.42873158 -56.17031496 61.1023625 -56.11352539 73.75927734 C-56.11367142 74.61846771 -56.11381744 75.47765808 -56.1139679 76.36288452 C-56.11327429 79.18726169 -56.1055078 82.01157193 -56.09765625 84.8359375 C-56.09579011 86.80034346 -56.09436713 88.7647499 -56.09336853 90.72915649 C-56.08955879 95.88793228 -56.07974171 101.04667971 -56.06866455 106.20544434 C-56.05841721 111.47419857 -56.0538638 116.74295741 -56.04882812 122.01171875 C-56.03811803 132.34115826 -56.02106018 142.67057677 -56 153 C-58.97923003 153.02727678 -61.95820379 153.04697128 -64.9375 153.0625 C-65.76830078 153.07087891 -66.59910156 153.07925781 -67.45507812 153.08789062 C-73.05226441 153.10966956 -78.44733582 152.71159268 -84 152 C-84.11668715 140.59371197 -84.20511302 129.18756971 -84.25906086 117.78080273 C-84.28497444 112.48215087 -84.32003236 107.1839122 -84.37719727 101.88549805 C-84.43217622 96.75664112 -84.46155699 91.62817747 -84.47438622 86.49904823 C-84.48350946 84.55813736 -84.50131843 82.617244 -84.52865028 80.67650414 C-84.84782962 57.0373279 -79.82512775 37.42007569 -63 20 C-45.84534155 4.69926497 -22.74565558 -1.78219612 0 0 Z " fill="#FC1522" transform="translate(84,11)"/>
<path d="M0 0 C0 15.51 0 31.02 0 47 C-47.85 47.33 -95.7 47.66 -145 48 C-145.99 50.31 -146.98 52.62 -148 55 C-151.99911107 59.75569965 -155.71954937 62.61028589 -161.9921875 63.35546875 C-168.24702959 63.62270796 -173.21717455 63.44125367 -178.34375 59.62890625 C-181.20286415 56.81699446 -183.46412796 53.71415209 -185 50 C-185 48.68 -185 47.36 -185 46 C-184.01 46 -183.02 46 -182 46 C-180.65668346 47.99330842 -179.32405988 49.99384866 -178 52 C-173.881097 54.60690064 -169.73588924 54.70911711 -165 54 C-162.12970131 52.20606332 -160.50868362 51.01736724 -159 48 C-165.27 47.67 -171.54 47.34 -178 47 C-178.67977172 28.13633481 -178.67977172 28.13633481 -171.4375 20.1875 C-166.66643306 16.69439742 -160.28125931 13.88469953 -154.33203125 14.09375 C-151.14069054 15.33393601 -150.62608032 16.79222266 -149.25 19.875 C-148.84265625 20.75929688 -148.4353125 21.64359375 -148.015625 22.5546875 C-146.02146863 27.35600245 -146 29.27567378 -146 35 C-101.78 35 -57.56 35 -12 35 C-12 34.01 -12 33.02 -12 32 C-12.94101562 32.04640625 -13.88203125 32.0928125 -14.8515625 32.140625 C-26.29247611 32.47224568 -26.29247611 32.47224568 -29.75 30.1875 C-32.91270971 27.11264333 -34.29953387 25.05698916 -34.375 20.6875 C-34.23922743 16.02597513 -33.15739077 13.55206461 -30 10 C-20.93674114 1.49119933 -12.29591504 0 0 0 Z M-20 14 C-20.66 14.66 -21.32 15.32 -22 16 C-22 17.32 -22 18.64 -22 20 C-19.04335481 21.4783226 -16.25770263 21.06032783 -13 21 C-13 17.7 -13 14.4 -13 11 C-15.40604063 11 -17.94201367 12.90800725 -20 14 Z M-161 27 C-163.56249975 29.31232422 -163.56249975 29.31232422 -166 32 C-166 32.99 -166 33.98 -166 35 C-163.03 35 -160.06 35 -157 35 C-157.33 32.69 -157.66 30.38 -158 28 C-158.99 27.67 -159.98 27.34 -161 27 Z " fill="#14298A" transform="translate(425,13)"/>
<path d="M0 0 C-0.33 13.53 -0.66 27.06 -1 41 C41.9 41 84.8 41 129 41 C129 38.36 129 35.72 129 33 C115.14 33 101.28 33 87 33 C87 26.73 87 20.46 87 14 C93.87853972 10.50475649 100.80139597 7.20576737 107.875 4.125 C108.79796875 3.70992187 109.7209375 3.29484375 110.671875 2.8671875 C111.56132813 2.48046875 112.45078125 2.09375 113.3671875 1.6953125 C114.16237793 1.34484863 114.95756836 0.99438477 115.77685547 0.63330078 C118.32536941 -0.09268705 119.58531297 -0.08065724 122 1 C122.33 1.99 122.66 2.98 123 4 C122.3387915 4.44915771 121.67758301 4.89831543 120.99633789 5.36108398 C118.01762684 7.3854329 115.04004985 9.41144356 112.0625 11.4375 C111.02158203 12.14455078 109.98066406 12.85160156 108.90820312 13.58007812 C107.91884766 14.25361328 106.92949219 14.92714844 105.91015625 15.62109375 C104.99371338 16.2442749 104.07727051 16.86745605 103.13305664 17.50952148 C101.11346449 18.82833207 101.11346449 18.82833207 100 20 C120.295 20.495 120.295 20.495 141 21 C141 31.56 141 42.12 141 53 C90.18 53 39.36 53 -13 53 C-13.495 32.21 -13.495 32.21 -14 11 C-15.32 10.34 -16.64 9.68 -18 9 C-18 8.01 -18 7.02 -18 6 C-17.32453125 5.81824219 -16.6490625 5.63648438 -15.953125 5.44921875 C-15.06109375 5.19785156 -14.1690625 4.94648438 -13.25 4.6875 C-12.36828125 4.44386719 -11.4865625 4.20023438 -10.578125 3.94921875 C-7.95162723 3.12871445 -7.95162723 3.12871445 -5.921875 1.39453125 C-4 0 -4 0 0 0 Z " fill="#14298A" transform="translate(496,7)"/>
<path d="M0 0 C5.8699036 3.90923477 9.90578787 7.17682045 11.89453125 14.26171875 C11.77890163 17.73060731 11.56240365 20.14859808 9.76953125 23.13671875 C6.81147013 24.91155542 4.31653079 25.14371877 0.89453125 25.26171875 C-1.98046875 24.26171875 -1.98046875 24.26171875 -4.10546875 22.26171875 C-5.21764563 17.97189364 -5.2693925 14.52943915 -4.10546875 10.26171875 C-7.96224038 7.27583104 -11.09489094 6.7172244 -15.83203125 6.9296875 C-19.59920306 7.47987582 -22.41029595 8.62688564 -25.10546875 11.26171875 C-30.89026116 20.14871849 -32.42881291 29.53473461 -30.64453125 39.953125 C-28.96367673 46.42935861 -26.04046688 51.87347141 -20.1875 55.42578125 C-16.53779188 56.89114248 -12.96426293 56.83487298 -9.10546875 56.26171875 C-6.7504159 55.15853717 -5.13734873 53.92890233 -3.10546875 52.26171875 C-3.43546875 51.60171875 -3.76546875 50.94171875 -4.10546875 50.26171875 C-4.38942456 47.32750869 -4.60094904 45.11073041 -4.10546875 42.26171875 C-1.56314167 39.27074571 0.05200095 38.41969318 3.89453125 37.69921875 C8.06486251 38.48115586 9.45324394 39.81519549 11.89453125 43.26171875 C12.82579038 48.94239943 11.91607437 52.63156871 8.65625 57.3671875 C3.4725645 62.94166082 -3.1554088 65.99576549 -10.64453125 66.5 C-22.13081229 66.8135946 -30.68011039 65.3548339 -39.3515625 57.19140625 C-46.22351081 49.63073261 -49.51212623 40.82990488 -49.31640625 30.59375 C-48.35293941 19.9420888 -44.64513013 11.31632774 -36.85546875 3.94921875 C-26.85309545 -3.8400481 -11.44211335 -6.23518605 0 0 Z " fill="#14298A" transform="translate(243.10546875,94.73828125)"/>
<path d="M0 0 C1.14275391 -0.05607422 1.14275391 -0.05607422 2.30859375 -0.11328125 C5.48189768 0.48618171 6.54026458 1.83406831 8.5625 4.3125 C9.07666016 6.91870117 9.07666016 6.91870117 9.1015625 9.85546875 C9.12476563 10.92990234 9.14796875 12.00433594 9.171875 13.11132812 C9.17703125 14.22958984 9.1821875 15.34785156 9.1875 16.5 C9.2763869 24.07760818 9.62278365 30.96485448 11.5625 38.3125 C17.66795421 38.89275798 17.66795421 38.89275798 23.0625 36.5 C25.34116594 33.17694551 25.6851436 30.56754487 25.66015625 26.64453125 C25.65693359 25.75185547 25.65371094 24.85917969 25.65039062 23.93945312 C25.64201172 23.01068359 25.63363281 22.08191406 25.625 21.125 C25.62048828 20.18462891 25.61597656 19.24425781 25.61132812 18.27539062 C25.59954626 15.95436288 25.58309558 13.63346356 25.5625 11.3125 C23.5825 11.3125 21.6025 11.3125 19.5625 11.3125 C19.25 8.5625 19.25 8.5625 19.5625 5.3125 C23.3476495 1.5273505 26.71994603 0.16917542 32 0 C33.14275391 -0.05607422 33.14275391 -0.05607422 34.30859375 -0.11328125 C37.55916854 0.5007788 38.54991226 1.70009843 40.5625 4.3125 C40.98042995 7.04960477 41.16722211 9.40236105 41.171875 12.140625 C41.18841125 12.88963074 41.20494751 13.63863647 41.22198486 14.41033936 C41.2704351 16.79447654 41.29182772 19.17797611 41.3125 21.5625 C41.3406624 23.18232369 41.37059022 24.80211772 41.40234375 26.421875 C41.47619244 30.38536414 41.52578457 34.34849998 41.5625 38.3125 C43.5425 38.9725 45.5225 39.6325 47.5625 40.3125 C47.875 42.5625 47.875 42.5625 47.5625 45.3125 C43.27592063 49.48322588 39.55477347 50.70177038 33.5703125 50.6796875 C30.2144333 50.0659664 28.61430623 47.87725779 26.5625 45.3125 C25.634375 45.951875 24.70625 46.59125 23.75 47.25 C18.66406985 50.54089598 14.46306488 50.86230305 8.5625 50.3125 C4.05014915 49.11624325 0.35128869 47.09728465 -2.4375 43.3125 C-5.4482708 36.58518026 -5.95620663 30.03705112 -6.125 22.75 C-6.15916016 21.74130859 -6.19332031 20.73261719 -6.22851562 19.69335938 C-6.31013281 17.23318432 -6.37955676 14.77332691 -6.4375 12.3125 C-9.4075 11.8175 -9.4075 11.8175 -12.4375 11.3125 C-12.75 8.5625 -12.75 8.5625 -12.4375 5.3125 C-8.6523505 1.5273505 -5.28005397 0.16917542 0 0 Z " fill="#14298A" transform="translate(548.4375,110.6875)"/>
<path d="M0 0 C4.49231407 4.49653062 5.62856225 7.04685392 5.70703125 13.5859375 C5.72215256 14.28772125 5.73727386 14.989505 5.75285339 15.71255493 C5.79552431 17.93370203 5.80454708 20.15348495 5.8125 22.375 C5.83566078 23.88935866 5.86102941 25.40368526 5.88867188 26.91796875 C5.95131635 30.6119537 5.98381548 34.3054858 6 38 C8.97 38.495 8.97 38.495 12 39 C11.5152439 45.54420732 11.5152439 45.54420732 9.375 47.4375 C4.89534021 48.49847206 1.35444816 48.73878991 -2.75 46.5 C-3.4925 46.005 -4.235 45.51 -5 45 C-8.18341757 44.8059715 -8.18341757 44.8059715 -11.5625 46.5 C-17.08518084 48.6178721 -22.58530581 49.09129402 -28.2734375 47.2734375 C-33.29621763 44.97677595 -36.49840242 42.00319516 -39 37 C-39.5341019 32.1317925 -39.50387512 28.13371903 -37.5 23.625 C-33.2340162 19.14571701 -28.51445084 16.79473475 -22.28125 16.609375 C-20.68702502 16.63550984 -19.0930116 16.68254348 -17.5 16.75 C-16.26636719 16.77707031 -16.26636719 16.77707031 -15.0078125 16.8046875 C-13.00469196 16.8512717 -11.00218179 16.92299301 -9 17 C-8.58668626 12.32920254 -8.58668626 12.32920254 -10.20703125 8.10546875 C-12.43203644 6.73362459 -14.08857011 6.50082825 -16.6875 6.3125 C-17.49574219 6.24675781 -18.30398438 6.18101563 -19.13671875 6.11328125 C-19.75160156 6.07589844 -20.36648438 6.03851563 -21 6 C-21.12375 7.11375 -21.2475 8.2275 -21.375 9.375 C-22 13 -22 13 -24 15 C-30.96019496 15.55239643 -30.96019496 15.55239643 -34 13.9375 C-35.63513623 10.76942356 -35.48259887 8.49884179 -35 5 C-31.82380174 0.34157588 -27.94037199 -1.13119985 -22.67578125 -2.49609375 C-15.13856685 -3.91551077 -6.89075455 -3.68278982 0 0 Z M-22 26 C-24.35639408 27.93889246 -24.35639408 27.93889246 -24.375 31.4375 C-24.3313599 34.94782413 -24.3313599 34.94782413 -22.4375 36.9375 C-18.10316067 38.8268274 -14.47784758 38.50309705 -10.0625 37 C-7.68016566 34.68985761 -7.65506261 34.12512492 -7.5625 30.9375 C-7.58516344 26.99837319 -7.58516344 26.99837319 -10 25 C-14.67490461 23.94153103 -17.7393468 23.68707398 -22 26 Z " fill="#14298A" transform="translate(300,113)"/>
<path d="M0 0 C4.93565634 3.99838019 7.35542093 9.16631346 8.625 15.3125 C9.44938975 23.7466413 7.37533313 30.92009732 2.28125 37.70703125 C-3.85414309 43.65431087 -12.30530264 45.70807076 -20.5859375 45.5859375 C-28.30653364 44.82901631 -34.87104514 42.00812103 -40.00390625 36.13671875 C-45.47371896 28.85921864 -45.2219518 21.18624503 -44.375 12.3125 C-42.74970516 6.02415686 -38.67864254 1.87049919 -33.375 -1.6875 C-22.51036717 -7.61787528 -10.21570935 -6.98168591 0 0 Z M-27.375 8.3125 C-30.10383642 14.04784392 -30.34885265 20.23449204 -28.875 26.40625 C-27.25759552 30.59679798 -24.9458678 33.63434915 -21.375 36.3125 C-17.35651552 36.95832786 -15.23231963 36.76064435 -11.625 34.875 C-7.15794666 29.78752259 -6.0608394 24.36633557 -6.4375 17.6875 C-7.07745895 12.67331614 -8.41811858 9.39995372 -11.375 5.3125 C-17.74787388 1.06391742 -22.94524153 2.44958437 -27.375 8.3125 Z " fill="#14298A" transform="translate(526.375,115.6875)"/>
<path d="M0 0 C2.94664462 2.19109472 3.82041173 3.43729008 4.9375 6.9375 C5.01410644 10.69121569 4.48690973 12.19219869 2 15 C-1.51345153 16.2220701 -3.3067973 16.24647207 -6.8125 15 C-9.82398679 12.24664065 -9.77522964 9.97094299 -10 6 C-12.91652174 5.83318891 -12.91652174 5.83318891 -16 6 C-18.77042109 8.77042109 -18.39796106 10.76533805 -18.625 14.625 C-18.74875 16.72875 -18.8725 18.8325 -19 21 C-14.71 21 -10.42 21 -6 21 C-6 22.98 -6 24.96 -6 27 C-6.66 27.66 -7.32 28.32 -8 29 C-11.63 29 -15.26 29 -19 29 C-18.505 44.345 -18.505 44.345 -18 60 C-15.69 60.66 -13.38 61.32 -11 62 C-11.25 64.375 -11.25 64.375 -12 67 C-14.82485165 68.82976885 -17.07727667 69.25560659 -20.40625 69.265625 C-21.64568359 69.26949219 -21.64568359 69.26949219 -22.91015625 69.2734375 C-23.76480469 69.26570313 -24.61945313 69.25796875 -25.5 69.25 C-26.78197266 69.26160156 -26.78197266 69.26160156 -28.08984375 69.2734375 C-28.91613281 69.27085937 -29.74242187 69.26828125 -30.59375 69.265625 C-31.34333984 69.26336914 -32.09292969 69.26111328 -32.86523438 69.25878906 C-35.26942314 68.96733891 -36.90857928 68.19255983 -39 67 C-39.3125 64.6875 -39.3125 64.6875 -39 62 C-38.18313721 61.59096436 -37.36627441 61.18192871 -36.5246582 60.76049805 C-33.67436639 59.20008836 -33.67436639 59.20008836 -33.34057617 55.90551758 C-33.32486572 54.66439209 -33.30915527 53.4232666 -33.29296875 52.14453125 C-33.27028679 51.15207649 -33.27028679 51.15207649 -33.24714661 50.13957214 C-33.20422217 48.03020277 -33.19542873 45.92226282 -33.1875 43.8125 C-33.16435882 42.38082125 -33.13899424 40.94917658 -33.11132812 39.51757812 C-33.04843384 36.01174677 -33.01613226 32.50639347 -33 29 C-34.7015625 29.0309375 -34.7015625 29.0309375 -36.4375 29.0625 C-40 29 -40 29 -41 28 C-41.1875 25.5625 -41.1875 25.5625 -41 23 C-39 21 -39 21 -35.875 20.875 C-34.451875 20.936875 -34.451875 20.936875 -33 21 C-33.03480469 20.35933594 -33.06960938 19.71867187 -33.10546875 19.05859375 C-33.30804386 12.58583665 -33.0570871 7.26384662 -28.3828125 2.2734375 C-20.29261504 -5.05287865 -9.55592008 -4.69413618 0 0 Z " fill="#14298A" transform="translate(487,91)"/>
<path d="M0 0 C7.46584089 0.5061587 13.55077232 2.7463632 18.6875 8.25 C21.98882408 13.77639232 22.14995269 19.06165853 20.6875 25.25 C19.6875 26.25 19.6875 26.25 16.72827148 26.36352539 C15.43477783 26.35828857 14.14128418 26.35305176 12.80859375 26.34765625 C11.77860008 26.34553383 11.77860008 26.34553383 10.72779846 26.34336853 C8.52682199 26.33775479 6.32594591 26.32520007 4.125 26.3125 C2.63606917 26.30748676 1.14713676 26.30292355 -0.34179688 26.29882812 C-3.99873075 26.28778093 -7.65560558 26.27050713 -11.3125 26.25 C-9.61276321 32.56772653 -8.58229779 34.59340561 -3.3125 38.25 C1.19164443 39.75138148 5.45572899 40.15938712 9.8828125 38.35546875 C11.24716684 37.64308447 12.5967931 36.9013663 13.92578125 36.125 C15.6875 35.25 15.6875 35.25 18.6875 35.25 C19.6875 36.25 19.6875 36.25 20.0625 38.9375 C19.66327591 42.46397947 18.78659862 44.33121408 16.35546875 46.92578125 C10.24153216 51.77970281 2.1503243 52.0168025 -5.3125 51.25 C-12.3905493 49.98075368 -17.62709816 46.68633532 -22.3125 41.25 C-26.50684806 34.98801557 -27.18591655 28.63143501 -26.3125 21.25 C-24.90224771 14.3397638 -22.19080093 8.89527364 -16.19921875 4.80859375 C-10.74246528 1.58956776 -6.29753261 0.47528548 0 0 Z M-10.3125 13.25 C-10.70966821 15.23830795 -11.05084224 17.23936668 -11.3125 19.25 C-8.52076945 19.27690104 -5.72929652 19.29679053 -2.9375 19.3125 C-1.74640625 19.32506836 -1.74640625 19.32506836 -0.53125 19.33789062 C3.71142222 19.48040151 3.71142222 19.48040151 7.6875 18.25 C7.35666395 15.27247554 6.81334648 13.43625279 5.125 10.9375 C2.2709403 8.96161251 0.10917744 8.67392664 -3.34375 8.8671875 C-6.58137409 9.49672552 -8.17526691 10.78894372 -10.3125 13.25 Z " fill="#14298A" transform="translate(422.3125,109.75)"/>
<path d="M0 0 C2.875 1.5 2.875 1.5 5 4 C5.75021577 7.51752109 5.63853772 10.72292455 4 14 C0.72032242 15.63983879 -2.37138689 15.17845638 -6 15 C-6.66 13.68 -7.32 12.36 -8 11 C-11.48337052 13.6916954 -12.01921265 16.82536667 -13 21 C-13.26052287 23.73682277 -13.28095703 26.44006368 -13.25 29.1875 C-13.25773438 29.88552734 -13.26546875 30.58355469 -13.2734375 31.30273438 C-13.25941477 34.9872054 -13.18921682 37.9458129 -11 41 C-8.94999129 41.80528889 -8.94999129 41.80528889 -7 42 C-6.67 43.65 -6.34 45.3 -6 47 C-8.61295867 49.7436066 -10.76048869 50.23999175 -14.40625 50.3984375 C-16.10416604 50.40638406 -17.80222178 50.39804676 -19.5 50.375 C-20.78197266 50.39240234 -20.78197266 50.39240234 -22.08984375 50.41015625 C-28.35157819 50.38085016 -28.35157819 50.38085016 -31.59375 48.4765625 C-32.0578125 47.98929688 -32.521875 47.50203125 -33 47 C-32.75 44.625 -32.75 44.625 -32 42 C-30.68 41.34 -29.36 40.68 -28 40 C-28 31.09 -28 22.18 -28 13 C-29.98 12.34 -31.96 11.68 -34 11 C-34.3125 8.75 -34.3125 8.75 -34 6 C-29.42941481 1.66997193 -26.3189438 0.66965486 -20.19921875 0.69921875 C-18 1 -18 1 -15.4375 3 C-14.963125 3.66 -14.48875 4.32 -14 5 C-13.236875 4.360625 -12.47375 3.72125 -11.6875 3.0625 C-7.80257785 0.08104811 -4.82199033 -0.48219903 0 0 Z " fill="#14298A" transform="translate(633,110)"/>
<path d="M0 0 C4.63235294 2.26470588 4.63235294 2.26470588 6 5 C6.38503376 8.54231061 6.41935959 10.36257342 4.4375 13.375 C1.08716465 15.6085569 -1.0481433 15.49398209 -5 15 C-7.4375 13.5 -7.4375 13.5 -9 12 C-11.52576557 15.67357598 -12.36751239 18.07176064 -12.29296875 22.51953125 C-12.28330078 23.54111328 -12.27363281 24.56269531 -12.26367188 25.61523438 C-12.23853516 26.67033203 -12.21339844 27.72542969 -12.1875 28.8125 C-12.17396484 29.88693359 -12.16042969 30.96136719 -12.14648438 32.06835938 C-12.11122577 34.71275455 -12.06194366 37.35611748 -12 40 C-10.02 40.99 -8.04 41.98 -6 43 C-6 44.65 -6 46.3 -6 48 C-10.00192598 50.72217729 -14.28843604 50.33117094 -18.9375 50.3125 C-19.73607422 50.32861328 -20.53464844 50.34472656 -21.35742188 50.36132812 C-26.09115511 50.36525002 -29.10240928 49.98421593 -33 47 C-32.01599951 44.04799852 -31.32045054 42.27961329 -28.94628906 40.20800781 C-26.3931123 37.31150372 -26.53456861 35.73700088 -26.609375 31.921875 C-26.62226563 30.76171875 -26.63515625 29.6015625 -26.6484375 28.40625 C-26.69871094 26.59640625 -26.69871094 26.59640625 -26.75 24.75 C-26.76804687 23.52796875 -26.78609375 22.3059375 -26.8046875 21.046875 C-26.851819 18.03045922 -26.91760587 15.01562509 -27 12 C-28.98 12 -30.96 12 -33 12 C-33.8125 9.8125 -33.8125 9.8125 -34 7 C-31.06457901 3.41226323 -28.78818195 1.2923094 -24.0625 0.796875 C-18.44117647 0.66911765 -18.44117647 0.66911765 -16 2.5 C-15.67 2.995 -15.34 3.49 -15 4 C-11.44620144 2.61839963 -11.44620144 2.61839963 -8.0625 0.875 C-5.19614296 -0.34103026 -3.0882588 -0.31512845 0 0 Z " fill="#14298A" transform="translate(349,110)"/>
<path d="M0 0 C2.66753429 2.25073206 2.94305692 3.54445539 3.375 7 C2.94492745 10.44058039 2.70415801 11.80287161 0 14 C-6.75 14.75 -6.75 14.75 -10.5 12.5 C-10.995 12.005 -11.49 11.51 -12 11 C-15.54157101 16.55467453 -15.38909981 21.39487741 -15.25 27.75 C-15.24484375 28.70777344 -15.2396875 29.66554687 -15.234375 30.65234375 C-15.35550666 35.48609435 -15.35550666 35.48609435 -14 40 C-12.35636866 40.72159424 -10.68949614 41.39351421 -9 42 C-9 43.65 -9 45.3 -9 47 C-11.85360012 48.61436816 -13.91442213 49.25519169 -17.1875 49.265625 C-18.35925781 49.26949219 -18.35925781 49.26949219 -19.5546875 49.2734375 C-20.36164063 49.26570313 -21.16859375 49.25796875 -22 49.25 C-23.21042969 49.26160156 -23.21042969 49.26160156 -24.4453125 49.2734375 C-25.22648437 49.27085937 -26.00765625 49.26828125 -26.8125 49.265625 C-27.52019531 49.26336914 -28.22789062 49.26111328 -28.95703125 49.25878906 C-31.3098713 48.96074766 -32.94773951 48.16102602 -35 47 C-35 45.35 -35 43.7 -35 42 C-33.35 41.34 -31.7 40.68 -30 40 C-30 30.76 -30 21.52 -30 12 C-32.97 11.505 -32.97 11.505 -36 11 C-36 8.69 -36 6.38 -36 4 C-30.66748425 0.4449895 -27.429745 -0.82964452 -21 0 C-18 2 -18 2 -16 4 C-15.236875 3.360625 -14.47375 2.72125 -13.6875 2.0625 C-9.12826639 -1.43644672 -5.37173756 -1.43246335 0 0 Z " fill="#14298A" transform="translate(394,111)"/>
<path d="M0 0 C1.93940282 2.90910423 3.49222027 5.81623145 5.0625 8.9375 C5.58972656 9.97777344 6.11695313 11.01804687 6.66015625 12.08984375 C9.63811927 18.55801416 10.12193536 25.38967049 7.8125 32.1875 C5.36449239 37.95698273 1.71224717 42.21711035 -4 45 C-8.78678123 46.81567564 -13.83559819 46.78321447 -18.6015625 45.05859375 C-23.41926467 42.79185777 -27.20043285 40.70836293 -30 36 C-30 35.34 -30 34.68 -30 34 C-29.443125 34.22816406 -28.88625 34.45632812 -28.3125 34.69140625 C-22.65116405 36.8239703 -18.91172887 37.45370382 -13 36 C-9.63875242 34.25713088 -7.60274766 32.94343112 -5.5625 29.75 C-4.78955609 25.97116313 -4.92103743 22.71038925 -6 19 C-7.94627391 16.38259716 -9.16759405 15.27746865 -12.25 14.25 C-12.8275 14.1675 -13.405 14.085 -14 14 C-14 13.01 -14 12.02 -14 11 C-12.80375 10.484375 -11.6075 9.96875 -10.375 9.4375 C-5.7794364 7.17242684 -3.01707592 4.06848117 0 0 Z " fill="#14298A" transform="translate(461,31)"/>
<path d="M0 0 C2.54652092 2.54652092 3.5751191 5.15941481 5.0625 8.4375 C5.58972656 9.59121094 6.11695313 10.74492188 6.66015625 11.93359375 C9.80957551 19.14144833 10.07945678 25.78703663 7.4375 33.25 C4.84985558 39.08596401 1.03086039 42.29028388 -4.4375 45.375 C-11.9880203 47.21659032 -18.29595758 45.77174256 -25 42 C-27.16362323 40.10259439 -28.40498551 38.44568889 -30 36 C-30 35.34 -30 34.68 -30 34 C-29.45472656 34.22816406 -28.90945312 34.45632812 -28.34765625 34.69140625 C-22.6543586 36.86167185 -17.94368503 37.70808813 -12 36 C-8.56238428 33.87891796 -6.22439161 31.8957915 -5 28 C-4.65961438 24.2557582 -4.72435485 21.68911287 -6.125 18.1875 C-8.48309162 15.43639311 -10.52827945 14.8486428 -14 14 C-14 13.01 -14 12.02 -14 11 C-12.80375 10.484375 -11.6075 9.96875 -10.375 9.4375 C-5.7794364 7.17242684 -3.01707592 4.06848117 0 0 Z " fill="#14298A" transform="translate(227,31)"/>
<path d="M0 0 C3.4375 0.875 3.4375 0.875 4.9375 2.625 C5.57113583 5.47636126 5.42618455 7.12080734 4.4375 9.875 C2.6875 11.75 2.6875 11.75 0.4375 12.875 C-2.3626969 12.73840503 -4.04327872 12.18653277 -6.4375 10.75 C-7.5625 8.875 -7.5625 8.875 -7.4375 5.3125 C-6.22014159 0.53002055 -4.8795063 -0.17121075 0 0 Z " fill="#14298A" transform="translate(398.5625,0.125)"/>
</svg>
