<?xml version="1.0" encoding="utf-8"?>
<!-- Generator: Adobe Illustrator 19.0.0, SVG Export Plug-In . SVG Version: 6.00 Build 0)  -->
<svg version="1.1" id="layer" xmlns="http://www.w3.org/2000/svg" xmlns:xlink="http://www.w3.org/1999/xlink" x="0px" y="0px"
	 viewBox="-153 -46 652 652" style="enable-background:new -153 -46 652 652;" xml:space="preserve">
<style type="text/css">
	.st0{fill:#0075BC;}
</style>
<path class="st0" d="M222.4,29.4c-2.2-0.5-5.7-1.2-8.8-1.6c-4.5-0.6-9-1-13.7-1c-9.8,0-16.9,1.7-25,4.3c-5.8,1.9-11.6,4.3-19.9,9.3
	c-36.7,22.3-52.3,64.2-52.3,103.6v134.7h45.2V145.9c0-8.4,3.8-16,9.9-21.5l18.2,21.3l18-21.3c6,5.5,9.8,13,9.8,21.4v132.9h45.1v-131
	c0-78.5-76.3-79.3-99.7-69.4C181.8,41,272.6,64,272.6,148v130.8h45.2V146.4C317.8,89.1,282.5,43.1,222.4,29.4 M179.1,25.3
	c2.3,0,0,0.6-2,1c-49.3,9.8-98.4,54.8-98.4,118c0,60.5,0,134.4,0,134.4H33.6V144.4C33.6,76.5,88,25.3,165.8,25.3H179.1z"/>
<path d="M377.6,321.4l-42.7,68.9l42.7,68.9h-52.4l-15.4-26.5l-15.4,26.5H242l42.7-68.9L242,321.4h52.4l15.4,26.5l15.4-26.5H377.6z
	 M35.9,465.3l76.9-144h-51L37,370.2l-25.8-48.9h-51L35.9,465.3z M177.4,312.8c43,0,77.9,34.2,77.9,76.4c0,42.2-34.9,76.5-77.9,76.5
	c-43,0-78-34.2-78-76.5C99.5,347,134.4,312.8,177.4,312.8 M177.4,418.2c16.3,0,29.5-13,29.5-29c0-16-13.2-29-29.5-29
	c-16.3,0-29.6,13-29.6,29C147.8,405.2,161.1,418.2,177.4,418.2 M318.5,521.1h5.7v4.2h-5.7V521.1z M310.7,521.1h5.7v4.2h-5.7V521.1z
	 M282.6,499.3h-5.7V495h5.7V499.3z M377.6,500.4v6.8c0,3.8-2.2,7.3-5.8,8.8c-1.2,0.5-2.6,0.8-4.2,0.8v0h-5.3v-3.2
	c-0.9,2-2.2,3.3-4.7,3.2l-110.2,0h-0.1c-1.1,0-2.1-0.3-3.1-0.7c-1.5,2-3.9,3.3-6.9,3.3c-3,0-5.4-1.3-6.9-3.3
	c-1.2,0.4-2.4,0.7-3.6,0.7h-36.4v-23.8h5.5v19.6H226c0.7,0,1.4,0,2-0.2l1-0.2c0-0.2,0-0.5,0-0.5c0-4.2,3.5-7.7,8.3-7.7
	c4.8,0,8.3,3.4,8.3,7.6c0,0,0,0.4,0,0.6l1,0.2c0.7,0.1,1.3,0.2,2,0.2H277v-9.2h5.5v9.2h32.3v-9.2h5.5v9.2h27.4h1.7c2.8,0,3-1.7,3-5
	V503h5.3v9.7h0.4c2.8,0,4-2.8,4.3-5.2c0-0.5,0.1-4.5,0-4.5h5.3v9.7c1.4,0.1,2.7-0.7,3.4-1.8c1.7-2.4,1.2-5.5,1.2-8.2v-2.2H377.6z
	 M240.5,511.8c0-1.8-1.3-3.3-3.2-3.3c-1.9,0-3.2,1.5-3.2,3.3v0.1c0,1.8,1.3,3.3,3.2,3.3C239.3,515.1,240.5,513.6,240.5,511.8
	L240.5,511.8z M-10.9,507.3c0-5.6,4.4-10,10.3-10c4,0,6.6,1.6,8.3,4l-4.1,3.1c-1.1-1.4-2.4-2.2-4.3-2.2c-2.7,0-4.7,2.3-4.7,5.1v0.1
	c0,2.9,1.9,5.1,4.7,5.1c2,0,3.3-0.9,4.4-2.3l4.1,2.8c-1.8,2.5-4.3,4.3-8.7,4.3C-6.4,517.3-10.9,513.1-10.9,507.3L-10.9,507.3z
	 M150.2,510.5c1.9,1.5,4.1,2.3,6.4,2.3c1.5,0,2.2-0.5,2.2-1.3v-0.1c0-0.8-0.6-1.2-3.3-1.8c-4.2-0.9-7.4-2.1-7.4-6v0
	c0-3.6,2.9-6.1,7.6-6.1c3.3,0,5.9,0.9,8.1,2.5l-2.7,3.7c-1.8-1.2-3.8-1.9-5.5-1.9c-1.3,0-2,0.6-2,1.3v0c0,0.9,0.7,1.3,3.4,1.9
	c4.5,1,7.3,2.4,7.3,6v0c0,3.9-3.2,6.3-7.9,6.3c-3.5,0-6.8-1.1-9.2-3.2L150.2,510.5z M119,516.9h5.7l1.4-3.4h7.6l1.4,3.4h5.8
	l-8.3-19.3h-5.2L119,516.9z M127.7,509.3l2.2-5.4l2.2,5.4H127.7z M90.5,497.7h5.7l4.7,7.4l4.7-7.4h5.7v19.1h-5.4v-11l-5,7.5h-0.1
	l-5-7.4v11h-5.3V497.7z M64.3,497.7h15.8v4.5H69.7v2.9h9.4v4.2h-9.4v3h10.5v4.5H64.3V497.7z M34.8,497.7h5.1l8.1,10.1v-10.1h5.4
	v19.1h-4.8l-8.4-10.5v10.5h-5.4V497.7z M18.3,516.9h5.5v-19.1h-5.5V516.9z"/>
</svg>
