<svg height="600" width="1000" xmlns="http://www.w3.org/2000/svg">
<title>Your Diagram Title</title>
<!-- Generated with SankeyMATIC: 16/09/2024, 13:18:33 -->
<rect height="600" width="1000" fill="#ffffff"></rect>
<g transform="translate(161.01066,20)">
<g id="sankey_flows">
<path id="flow8" d="M380.02138 107.58154C555.92756 107.58154 555.92756 89.71544 731.83375 89.71544" fill="none" stroke-width="139.33676" stroke="#8692a0" opacity="0.45"><title>Active → To Fando: 129,222</title></path>
<path id="flow1" d="M12 307.34883C190.01069 307.34883 190.01069 179.14176 368.02138 179.14176" fill="none" stroke-width="118.93042" stroke="#FFC72C" opacity="0.45"><title>From App → Active: 110,297</title></path>
<path id="flow0" d="M12 40.88169C190.01069 40.88169 190.01069 78.79485 368.02138 78.79485" fill="none" stroke-width="81.76338" stroke="#6F71F4" opacity="0.45"><title>From Fando → Active: 75,828</title></path>
<path id="flow9" d="M378.00105 361.67982C554.9174 361.67982 554.9174 197.33207 731.83375 197.33207" fill="none" stroke-width="75.89649" stroke="#8692a0" opacity="0.45"><title>Inactive → To Fando: 70,387</title></path>
<path id="flow4" d="M12 119.6933C189.00053 119.6933 189.00053 361.66149 366.00105 361.66149" fill="none" stroke-width="75.85983" stroke="#6F71F4" opacity="0.45"><title>From Fando → Inactive: 70,353</title></path>
<path id="flow3" d="M12 522.61685C190.01069 522.61685 190.01069 241.38352 368.02138 241.38352" fill="none" stroke-width="5.02476" stroke="#FF987A" opacity="0.45"><title>From Special Cases → Active: 4,660</title></path>
<path id="flow2" d="M12 450.47131C190.01069 450.47131 190.01069 238.73906 368.02138 238.73906" fill="none" stroke-width="1" stroke="#FE90E7" opacity="0.45"><title>From All Manual → Active: 245</title></path>
<path id="flow7" d="M12 525.18962C189.00053 525.18962 189.00053 399.68845 366.00105 399.68845" fill="none" stroke-width="1" stroke="#FF987A" opacity="0.45"><title>From Special Cases → Inactive: 112</title></path>
<path id="flow5" d="M12 366.83183C189.00053 366.83183 189.00053 399.6092 366.00105 399.6092" fill="none" stroke-width="1" stroke="#FFC72C" opacity="0.45"><title>From App → Inactive: 33</title></path>
<path id="flow6" d="M12 450.60394C189.00053 450.60394 189.00053 399.62753 366.00105 399.62753" fill="none" stroke-width="1" stroke="#FE90E7" opacity="0.45"><title>From All Manual → Inactive: 1</title></path>
</g>
<g id="sankey_nodes">
<g class="node">
<rect id="r0" class="for_r0" x="0" y="34.75" height="157.62322" width="12" fill="#6F71F4" fill-opacity="1" transform="translate(0,-34.75)"><title>From Fando:
146,181</title></rect>
</g>
<g class="node">
<rect id="r1" class="for_r1" x="366.00105" y="49.27004" height="205.98274" width="12" fill="#1c9f77" fill-opacity="1" transform="translate(2.02033,-11.35687)"><title>Active:
191,030</title></rect>
</g>
<g class="node">
<rect id="r2" class="for_r2" x="0" y="261.87322" height="118.966" width="12" fill="#FFC72C" fill-opacity="1" transform="translate(0,-13.9896)"><title>From App:
110,330</title></rect>
</g>
<g class="node">
<rect id="r3" class="for_r3" x="0" y="450.33922" height="0.26526" width="12" fill="#FE90E7" fill-opacity="1"><title>From All Manual:
246</title></rect>
</g>
<g class="node">
<rect id="r4" class="for_r4" x="0" y="520.10448" height="5.14552" width="12" fill="#FF987A" fill-opacity="1"><title>From Special Cases:
4,772</title></rect>
</g>
<g class="node">
<rect id="r5" class="for_r5" x="366.00105" y="324.75278" height="76.01726" width="12" fill="#E75EB6" fill-opacity="1" transform="translate(0,-1.0212)"><title>Inactive:
70,499</title></rect>
</g>
<g class="node">
<rect id="r6" class="for_r6" x="732.00211" y="140.10519" height="215.23326" width="12" fill="#7e98a8" fill-opacity="1" transform="translate(-0.16836,-120.05812)"><title>To Fando:
199,609</title></rect>
</g>
</g>
<g id="sankey_labels" font-family="sans-serif" font-size="16px" fill="#000000">
<rect id="label0_bg" class="for_r0" x="-89.79191" y="93.03661" width="88.15922" height="41.12" rx="4" fill="#fff" fill-opacity="0.75" stroke="none" stroke-width="0" stroke-opacity="0" transform="translate(0,-34.75)"></rect>
<text id="label0" class="for_r0" text-anchor="end" x="-6.29754" y="113.56161" font-weight="400" font-size="14.4px" dy="-5.125" transform="translate(0,-34.75)">From Fando<tspan x="-6.29754" dy="19.32" font-weight="400" font-size="17.6px">146,181</tspan></text>
<rect id="label1_bg" class="for_r1" x="335.52369" y="131.73641" width="73.35453" height="41.12001" rx="4" fill="#fff" fill-opacity="0.75" stroke="none" stroke-width="0" stroke-opacity="0" transform="translate(2.02033,-11.35687)"></rect>
<text id="label1" class="for_r1" text-anchor="middle" x="372.00105" y="152.26141" font-weight="400" font-size="14.4px" dy="-5.125" transform="translate(2.02033,-11.35687)">Active<tspan x="372.00105" dy="19.32" font-weight="400" font-size="17.6px">191,030</tspan></text>
<rect id="label2_bg" class="for_r2" x="-73.79973" y="300.83123" width="72.16703" height="41.12001" rx="4" fill="#fff" fill-opacity="0.75" stroke="none" stroke-width="0" stroke-opacity="0" transform="translate(0,-13.9896)"></rect>
<text id="label2" class="for_r2" text-anchor="end" x="-6.29754" y="321.35622" font-weight="400" font-size="14.4px" dy="-5.125" transform="translate(0,-13.9896)">From App<tspan x="-6.29754" dy="19.32" font-weight="400" font-size="17.6px">110,330</tspan></text>
<rect id="label3_bg" class="for_r3" x="-115.4091" y="429.94686" width="113.77641" height="41.12001" rx="4" fill="#fff" fill-opacity="0.75" stroke="none" stroke-width="0" stroke-opacity="0"></rect>
<text id="label3" class="for_r3" text-anchor="end" x="-6.29754" y="450.47185" font-weight="400" font-size="14.4px" dy="-5.125">From All Manual<tspan x="-6.29754" dy="19.32" font-weight="400" font-size="17.6px">246</tspan></text>
<rect id="label4_bg" class="for_r4" x="-141.01067" y="502.15225" width="139.37797" height="41.12001" rx="4" fill="#fff" fill-opacity="0.75" stroke="none" stroke-width="0" stroke-opacity="0"></rect>
<text id="label4" class="for_r4" text-anchor="end" x="-6.29754" y="522.67724" font-weight="400" font-size="14.4px" dy="-5.125">From Special Cases<tspan x="-6.29754" dy="19.32" font-weight="400" font-size="17.6px">4,772</tspan></text>
<rect id="label5_bg" class="for_r5" x="340.41823" y="342.23641" width="63.56547" height="41.12001" rx="4" fill="#fff" fill-opacity="0.75" stroke="none" stroke-width="0" stroke-opacity="0" transform="translate(0,-1.0212)"></rect>
<text id="label5" class="for_r5" text-anchor="middle" x="372.00105" y="362.76141" font-weight="400" font-size="14.4px" dy="-5.125" transform="translate(0,-1.0212)">Inactive<tspan x="372.00105" dy="19.32" font-weight="400" font-size="17.6px">70,499</tspan></text>
<rect id="label6_bg" class="for_r6" x="745.63478" y="227.19682" width="73.35453" height="41.11999" rx="4" fill="#fff" fill-opacity="0.75" stroke="none" stroke-width="0" stroke-opacity="0" transform="translate(-0.16836,-120.05812)"></rect>
<text id="label6" class="for_r6" text-anchor="start" x="750.29965" y="247.72181" font-weight="400" font-size="14.4px" dy="-5.125" transform="translate(-0.16836,-120.05812)">To Fando<tspan x="750.29965" dy="19.32" font-weight="400" font-size="17.6px">199,609</tspan></text>
</g>
</g></svg>