<svg height="600" width="1000" xmlns="http://www.w3.org/2000/svg">
<title>Your Diagram Title</title>
<!-- Generated with SankeyMATIC: 16/09/2024, 13:27:15 -->
<rect height="600" width="1000" fill="#ffffff"></rect>
<g transform="translate(161.01066,20)">
<g id="sankey_flows">
<path id="flow1" d="M12 270.94227C190.01069 270.94227 190.01069 163.69063 368.02138 163.69063" fill="none" stroke-width="121.34652" stroke="#FFC72C" opacity="0.45"><title>From App → Active: 348,355</title></path>
<path id="flow11" d="M380.02138 91.2119C556.01174 91.2119 556.01174 70.56194 732.00211 70.56194" fill="none" stroke-width="113.0769" stroke="#8692a0" opacity="0.45"><title>Active → To Fando: 324,615</title></path>
<path id="flow14" d="M378.00105 329.64531C555.00158 329.64531 555.00158 167.00152 732.00211 167.00152" fill="none" stroke-width="79.80227" stroke="#8692a0" opacity="0.45"><title>Inactive → To Fando: 229,092</title></path>
<path id="flow6" d="M12 108.17556C189.00053 108.17556 189.00053 329.57581 366.00105 329.57581" fill="none" stroke-width="79.66328" stroke="#6F71F4" opacity="0.45"><title>From Fando → Inactive: 228,693</title></path>
<path id="flow0" d="M12 34.17196C190.01069 34.17196 190.01069 68.84541 368.02138 68.84541" fill="none" stroke-width="68.34392" stroke="#6F71F4" opacity="0.45"><title>From Fando → Active: 196,198</title></path>
<path id="flow12" d="M380.02138 157.93986C556.01174 157.93986 556.01174 365.54526 732.00211 365.54526" fill="none" stroke-width="20.37903" stroke="#8692a0" opacity="0.45"><title>Active → To Things: 58,503</title></path>
<path id="flow2" d="M12 392.37185C190.01069 392.37185 190.01069 228.61923 368.02138 228.61923" fill="none" stroke-width="8.51068" stroke="#56CCD1" opacity="0.45"><title>From Things → Active: 24,432</title></path>
<path id="flow4" d="M12 481.5155C190.01069 481.5155 190.01069 235.55437 368.02138 235.55437" fill="none" stroke-width="4.30899" stroke="#FF987A" opacity="0.45"><title>From Special Cases → Active: 12,370</title></path>
<path id="flow3" d="M12 437.43061C190.01069 437.43061 190.01069 233.13722 368.02138 233.13722" fill="none" stroke-width="1" stroke="#FE90E7" opacity="0.45"><title>From All Manual → Active: 1,508</title></path>
<path id="flow8" d="M12 437.75213C189.00053 437.75213 189.00053 369.49488 366.00105 369.49488" fill="none" stroke-width="1" stroke="#FE90E7" opacity="0.45"><title>From All Manual → Inactive: 338</title></path>
<path id="flow9" d="M12 483.72224C189.00053 483.72224 189.00053 369.606 366.00105 369.606" fill="none" stroke-width="1" stroke="#FF987A" opacity="0.45"><title>From Special Cases → Inactive: 300</title></path>
<path id="flow13" d="M380.02138 168.16978C556.01174 168.16978 556.01174 451.24409 732.00211 451.24409" fill="none" stroke-width="1" stroke="#8692a0" opacity="0.45"><title>Active → To Octo: 232</title></path>
<path id="flow5" d="M12 525.3487C190.01069 525.3487 190.01069 237.73307 368.02138 237.73307" fill="none" stroke-width="1" stroke="#7f7070" opacity="0.45"><title>From Octo → Active: 139</title></path>
<path id="flow7" d="M12 331.62982C189.00053 331.62982 189.00053 369.42173 366.00105 369.42173" fill="none" stroke-width="1" stroke="#FFC72C" opacity="0.45"><title>From App → Inactive: 82</title></path>
<path id="flow15" d="M378.00105 369.55114C555.00158 369.55114 555.00158 451.2892 732.00211 451.2892" fill="none" stroke-width="1" stroke="#8692a0" opacity="0.45"><title>Inactive → To Octo: 27</title></path>
<path id="flow10" d="M12 525.37395C189.00053 525.37395 189.00053 369.6593 366.00105 369.6593" fill="none" stroke-width="1" stroke="#5588DB" opacity="0.45"><title>From Octo → Inactive: 6</title></path>
</g>
<g id="sankey_nodes">
<g class="node">
<rect id="r0" class="for_r0" x="0" y="34.625" height="148.00719" width="12" fill="#6F71F4" fill-opacity="1" transform="translate(0,-34.625)"><title>From Fando:
424,891</title></rect>
</g>
<g class="node">
<rect id="r1" class="for_r1" x="366.00105" y="46.12332" height="203.08383" width="12" fill="#1c9f77" fill-opacity="1" transform="translate(2.02033,-11.44987)"><title>Active:
583,002</title></rect>
</g>
<g class="node">
<rect id="r2" class="for_r2" x="0" y="224.18219" height="121.37509" width="12" fill="#FFC72C" fill-opacity="1" transform="translate(0,-13.91318)"><title>From App:
348,437</title></rect>
</g>
<g class="node">
<rect id="r3" class="for_r3" x="0" y="387.10728" height="8.51068" width="12" fill="#56CCD1" fill-opacity="1" transform="translate(0,1.00923)"><title>From Things:
24,432</title></rect>
</g>
<g class="node">
<rect id="r4" class="for_r4" x="0" y="437.16796" height="0.64304" width="12" fill="#FE90E7" fill-opacity="1"><title>From All Manual:
1,846</title></rect>
</g>
<g class="node">
<rect id="r5" class="for_r5" x="0" y="479.361" height="4.41349" width="12" fill="#FF987A" fill-opacity="1"><title>From Special Cases:
12,670</title></rect>
</g>
<g class="node">
<rect id="r6" class="for_r6" x="0" y="525.32449" height="0.05051" width="12" fill="#5588DB" fill-opacity="1"><title>From Octo:
145</title></rect>
</g>
<g class="node">
<rect id="r7" class="for_r7" x="366.00105" y="290.75715" height="79.91617" width="12" fill="#E75EB6" fill-opacity="1" transform="translate(0,-1.01298)"><title>Inactive:
229,419</title></rect>
</g>
<g class="node">
<rect id="r8" class="for_r8" x="732.00211" y="126.8948" height="192.87916" width="12" fill="#7e98a8" fill-opacity="1" transform="translate(0,-112.8713)"><title>To Fando:
553,707</title></rect>
</g>
<g class="node">
<rect id="r9" class="for_r9" x="732.00211" y="361.32396" height="20.37903" width="12" fill="#7e98a8" fill-opacity="1" transform="translate(0,-5.96821)"><title>To Things:
58,503</title></rect>
</g>
<g class="node">
<rect id="r10" class="for_r10" x="732.00211" y="423.25298" height="0.09022" width="12" fill="#7e98a8" fill-opacity="1" transform="translate(0,27.9507)"><title>To Octo:
259</title></rect>
</g>
</g>
<g id="sankey_labels" font-family="sans-serif" font-size="16px" fill="#000000">
<rect id="label0_bg" class="for_r0" x="-89.79191" y="88.1036" width="88.15922" height="41.12" rx="4" fill="#fff" fill-opacity="0.75" stroke="none" stroke-width="0" stroke-opacity="0" transform="translate(0,-34.625)"></rect>
<text id="label0" class="for_r0" text-anchor="end" x="-6.29754" y="108.6286" font-weight="400" font-size="14.4px" dy="-5.125" transform="translate(0,-34.625)">From Fando<tspan x="-6.29754" dy="19.32" font-weight="400" font-size="17.6px">424,891</tspan></text>
<rect id="label1_bg" class="for_r1" x="335.52369" y="127.14024" width="73.35453" height="41.11999" rx="4" fill="#fff" fill-opacity="0.75" stroke="none" stroke-width="0" stroke-opacity="0" transform="translate(2.02033,-11.44987)"></rect>
<text id="label1" class="for_r1" text-anchor="middle" x="372.00105" y="147.66524" font-weight="400" font-size="14.4px" dy="-5.125" transform="translate(2.02033,-11.44987)">Active<tspan x="372.00105" dy="19.32" font-weight="400" font-size="17.6px">583,002</tspan></text>
<rect id="label2_bg" class="for_r2" x="-74.98723" y="264.34475" width="73.35453" height="41.12001" rx="4" fill="#fff" fill-opacity="0.75" stroke="none" stroke-width="0" stroke-opacity="0" transform="translate(0,-13.91318)"></rect>
<text id="label2" class="for_r2" text-anchor="end" x="-6.29754" y="284.86974" font-weight="400" font-size="14.4px" dy="-5.125" transform="translate(0,-13.91318)">From App<tspan x="-6.29754" dy="19.32" font-weight="400" font-size="17.6px">348,437</tspan></text>
<rect id="label3_bg" class="for_r3" x="-91.93254" y="370.83761" width="90.29984" height="41.12001" rx="4" fill="#fff" fill-opacity="0.75" stroke="none" stroke-width="0" stroke-opacity="0" transform="translate(0,1.00923)"></rect>
<text id="label3" class="for_r3" text-anchor="end" x="-6.29754" y="391.36262" font-weight="400" font-size="14.4px" dy="-5.125" transform="translate(0,1.00923)">From Things<tspan x="-6.29754" dy="19.32" font-weight="400" font-size="17.6px">24,432</tspan></text>
<rect id="label4_bg" class="for_r4" x="-115.4091" y="416.96447" width="113.77641" height="41.12001" rx="4" fill="#fff" fill-opacity="0.75" stroke="none" stroke-width="0" stroke-opacity="0"></rect>
<text id="label4" class="for_r4" text-anchor="end" x="-6.29754" y="437.48948" font-weight="400" font-size="14.4px" dy="-5.125">From All Manual<tspan x="-6.29754" dy="19.32" font-weight="400" font-size="17.6px">1,846</tspan></text>
<rect id="label5_bg" class="for_r5" x="-141.01067" y="461.04275" width="139.37797" height="41.12001" rx="4" fill="#fff" fill-opacity="0.75" stroke="none" stroke-width="0" stroke-opacity="0"></rect>
<text id="label5" class="for_r5" text-anchor="end" x="-6.29754" y="481.56775" font-weight="400" font-size="14.4px" dy="-5.125">From Special Cases<tspan x="-6.29754" dy="19.32" font-weight="400" font-size="17.6px">12,670</tspan></text>
<rect id="label6_bg" class="for_r6" x="-79.37004" y="504.82473" width="77.73734" height="41.12001" rx="4" fill="#fff" fill-opacity="0.75" stroke="none" stroke-width="0" stroke-opacity="0"></rect>
<text id="label6" class="for_r6" text-anchor="end" x="-6.29754" y="525.34975" font-weight="400" font-size="14.4px" dy="-5.125">From Octo<tspan x="-6.29754" dy="19.32" font-weight="400" font-size="17.6px">145</tspan></text>
<rect id="label7_bg" class="for_r7" x="335.52369" y="310.19024" width="73.35453" height="41.12001" rx="4" fill="#fff" fill-opacity="0.75" stroke="none" stroke-width="0" stroke-opacity="0" transform="translate(0,-1.01298)"></rect>
<text id="label7" class="for_r7" text-anchor="middle" x="372.00105" y="330.71524" font-weight="400" font-size="14.4px" dy="-5.125" transform="translate(0,-1.01298)">Inactive<tspan x="372.00105" dy="19.32" font-weight="400" font-size="17.6px">229,419</tspan></text>
<rect id="label8_bg" class="for_r8" x="745.63478" y="202.80938" width="73.35453" height="41.12001" rx="4" fill="#fff" fill-opacity="0.75" stroke="none" stroke-width="0" stroke-opacity="0" transform="translate(0,-112.8713)"></rect>
<text id="label8" class="for_r8" text-anchor="start" x="750.29965" y="223.33438" font-weight="400" font-size="14.4px" dy="-5.125" transform="translate(0,-112.8713)">To Fando<tspan x="750.29965" dy="19.32" font-weight="400" font-size="17.6px">553,707</tspan></text>
<rect id="label9_bg" class="for_r9" x="745.63478" y="350.98846" width="71.90922" height="41.12001" rx="4" fill="#fff" fill-opacity="0.75" stroke="none" stroke-width="0" stroke-opacity="0" transform="translate(0,-5.96821)"></rect>
<text id="label9" class="for_r9" text-anchor="start" x="750.29965" y="371.51347" font-weight="400" font-size="14.4px" dy="-5.125" transform="translate(0,-5.96821)">To Things<tspan x="750.29965" dy="19.32" font-weight="400" font-size="17.6px">58,503</tspan></text>
<rect id="label10_bg" class="for_r10" x="745.63478" y="402.7731" width="59.35453" height="41.12001" rx="4" fill="#fff" fill-opacity="0.75" stroke="none" stroke-width="0" stroke-opacity="0" transform="translate(0,27.9507)"></rect>
<text id="label10" class="for_r10" text-anchor="start" x="750.29965" y="423.29809" font-weight="400" font-size="14.4px" dy="-5.125" transform="translate(0,27.9507)">To Octo<tspan x="750.29965" dy="19.32" font-weight="400" font-size="17.6px">259</tspan></text>
</g>
</g></svg>