<svg height="600" width="1000" xmlns="http://www.w3.org/2000/svg">
<title>Your Diagram Title</title>
<!-- Generated with SankeyMATIC: 11/07/2024, 00:43:31 -->
<rect height="600" width="1000" fill="#ffffff"></rect>
<g transform="translate(161.01066,20)">
<g id="sankey_flows">
<path id="flow1" d="M12 268.21546C131.36054 268.21546 131.36054 183.03141 250.72108 183.03141" fill="none" stroke-width="121.65863" stroke="#FFC72C" opacity="0.45"><title>From App → Active: 152,771</title></path>
<path id="flow11" d="M262.72108 107.30285C410.93638 107.30285 410.93638 57.43737 559.15168 57.43737" fill="none" stroke-width="96.87474" stroke="#8692a0" opacity="0.45"><title>Active → To Fando: 121,649</title></path>
<path id="flow14" d="M260.66216 327.75719C409.90692 327.75719 409.90692 146.90808 559.15168 146.90808" fill="none" stroke-width="82.06668" stroke="#8692a0" opacity="0.45"><title>Inactive → To Fando: 103,054</title></path>
<path id="flow6" d="M12 104.22542C130.33108 104.22542 130.33108 327.61266 248.66216 327.61266" fill="none" stroke-width="81.77761" stroke="#6F71F4" opacity="0.45"><title>From Fando → Inactive: 102,691</title></path>
<path id="flow0" d="M12 31.66831C131.36054 31.66831 131.36054 90.53379 250.72108 90.53379" fill="none" stroke-width="63.33661" stroke="#6F71F4" opacity="0.45"><title>From Fando → Active: 79,534</title></path>
<path id="flow12" d="M262.72108 174.30863C410.93638 174.30863 410.93638 355.27481 559.15168 355.27481" fill="none" stroke-width="37.13682" stroke="#8692a0" opacity="0.45"><title>Active → To Things: 46,634</title></path>
<path id="flow2" d="M12 393.01357C131.36054 393.01357 131.36054 251.34399 250.72108 251.34399" fill="none" stroke-width="14.96653" stroke="#56CCD1" opacity="0.45"><title>From Things → Active: 18,794</title></path>
<path id="flow3" d="M12 441.4245C131.36054 441.4245 131.36054 259.20234 250.72108 259.20234" fill="none" stroke-width="1" stroke="#FE90E7" opacity="0.45"><title>From All Manual → Active: 942</title></path>
<path id="flow18" d="M262.72108 193.16332C504.35378 193.16332 504.35378 115.32175 745.98648 115.32175" fill="none" stroke-width="1" stroke="#e22828" opacity="0.45"><title>Active → Deleted: 617</title></path>
<path id="flow8" d="M12 441.93456C130.33108 441.93456 130.33108 368.67148 248.66216 368.67148" fill="none" stroke-width="1" stroke="#FE90E7" opacity="0.45"><title>From All Manual → Inactive: 339</title></path>
<path id="flow16" d="M571.15168 187.85979C658.56908 187.85979 658.56908 114.84633 745.98648 114.84633" fill="none" stroke-width="1" stroke="#e22828" opacity="0.45"><title>To Fando → Deleted: 205</title></path>
<path id="flow17" d="M571.15168 336.78046C658.56908 336.78046 658.56908 115.00202 745.98648 115.00202" fill="none" stroke-width="1" stroke="#e22828" opacity="0.45"><title>To Things → Deleted: 186</title></path>
<path id="flow9" d="M12 483.75373C130.33108 483.75373 130.33108 368.86658 248.66216 368.86658" fill="none" stroke-width="1" stroke="#FF987A" opacity="0.45"><title>From Special Cases → Inactive: 151</title></path>
<path id="flow4" d="M12 483.65657C131.36054 483.65657 131.36054 259.61445 250.72108 259.61445" fill="none" stroke-width="1" stroke="#FF987A" opacity="0.45"><title>From Special Cases → Active: 93</title></path>
<path id="flow13" d="M262.72108 192.89734C410.93638 192.89734 410.93638 449.14853 559.15168 449.14853" fill="none" stroke-width="1" stroke="#8692a0" opacity="0.45"><title>Active → To Octo: 51</title></path>
<path id="flow7" d="M12 329.06229C130.33108 329.06229 130.33108 368.51898 248.66216 368.51898" fill="none" stroke-width="1" stroke="#FFC72C" opacity="0.45"><title>From App → Inactive: 44</title></path>
<path id="flow15" d="M260.66216 368.80089C409.90692 368.80089 409.90692 449.17919 559.15168 449.17919" fill="none" stroke-width="1" stroke="#8692a0" opacity="0.45"><title>Inactive → To Octo: 26</title></path>
<path id="flow5" d="M12 525.36743C131.36054 525.36743 131.36054 259.65506 250.72108 259.65506" fill="none" stroke-width="1" stroke="#7f7070" opacity="0.45"><title>From Octo → Active: 9</title></path>
<path id="flow10" d="M12 525.37301C130.33108 525.37301 130.33108 368.9287 248.66216 368.9287" fill="none" stroke-width="1" stroke="#5588DB" opacity="0.45"><title>From Octo → Inactive: 5</title></path>
</g>
<g id="sankey_nodes">
<g class="node">
<rect id="r0" class="for_r0" x="0" y="34.625" height="145.11422" width="12" fill="#6F71F4" fill-opacity="1" transform="translate(0,-34.625)"><title>From Fando:
182,225</title></rect>
</g>
<g class="node">
<rect id="r1" class="for_r1" x="248.66216" y="45.38883" height="200.79316" width="12" fill="#1c9f77" fill-opacity="1" transform="translate(2.05892,13.47664)"><title>Active:
252,143</title></rect>
</g>
<g class="node">
<rect id="r2" class="for_r2" x="0" y="221.28922" height="121.69367" width="12" fill="#FFC72C" fill-opacity="1" transform="translate(0,-13.90308)"><title>From App:
152,815</title></rect>
</g>
<g class="node">
<rect id="r3" class="for_r3" x="0" y="384.53289" height="14.96653" width="12" fill="#56CCD1" fill-opacity="1" transform="translate(0,0.99741)"><title>From Things:
18,794</title></rect>
</g>
<g class="node">
<rect id="r4" class="for_r4" x="0" y="441.04942" height="1.02012" width="12" fill="#FE90E7" fill-opacity="1"><title>From All Manual:
1,281</title></rect>
</g>
<g class="node">
<rect id="r5" class="for_r5" x="0" y="483.61954" height="0.19431" width="12" fill="#FF987A" fill-opacity="1"><title>From Special Cases:
244</title></rect>
</g>
<g class="node">
<rect id="r6" class="for_r6" x="0" y="525.36385" height="0.01115" width="12" fill="#5588DB" fill-opacity="1"><title>From Octo:
14</title></rect>
</g>
<g class="node">
<rect id="r7" class="for_r7" x="248.66216" y="287.732" height="82.20684" width="12" fill="#E75EB6" fill-opacity="1" transform="translate(0,-1.00814)"><title>Inactive:
103,230</title></rect>
</g>
<g class="node">
<rect id="r8" class="for_r8" x="497.32432" y="121.99785" height="178.94142" width="12" fill="#7e98a8" fill-opacity="1" transform="translate(61.82736,-112.99785)"><title>To Fando:
224,703</title></rect>
</g>
<g class="node">
<rect id="r9" class="for_r9" x="497.32432" y="342.48927" height="37.13682" width="12" fill="#7e98a8" fill-opacity="1" transform="translate(61.82736,-5.78287)"><title>To Things:
46,634</title></rect>
</g>
<g class="node">
<rect id="r10" class="for_r10" x="497.32432" y="421.17608" height="0.06132" width="12" fill="#7e98a8" fill-opacity="1" transform="translate(61.82736,27.95214)"><title>To Octo:
77</title></rect>
</g>
<g class="node">
<rect id="r11" class="for_r11" x="745.98648" y="413.77309" height="0.80272" width="12" fill="#e22828" fill-opacity="1" transform="translate(0,-299.00838)"><title>Deleted:
1,008</title></rect>
</g>
</g>
<g id="sankey_labels" font-family="sans-serif" font-size="16px" fill="#000000">
<rect id="label0_bg" class="for_r0" x="-89.79191" y="86.65711" width="88.15922" height="41.12" rx="4" fill="#fff" fill-opacity="0.75" stroke="none" stroke-width="0" stroke-opacity="0" transform="translate(0,-34.625)"></rect>
<text id="label0" class="for_r0" text-anchor="end" x="-6.29754" y="107.18211" font-weight="400" font-size="14.4px" dy="-5.125" transform="translate(0,-34.625)">From Fando<tspan x="-6.29754" dy="19.32" font-weight="400" font-size="17.6px">182,225</tspan></text>
<rect id="label1_bg" class="for_r1" x="218.1848" y="125.26042" width="73.35453" height="41.11999" rx="4" fill="#fff" fill-opacity="0.75" stroke="none" stroke-width="0" stroke-opacity="0" transform="translate(2.05892,13.47664)"></rect>
<text id="label1" class="for_r1" text-anchor="middle" x="254.66216" y="145.78542" font-weight="400" font-size="14.4px" dy="-5.125" transform="translate(2.05892,13.47664)">Active<tspan x="254.66216" dy="19.32" font-weight="400" font-size="17.6px">252,143</tspan></text>
<rect id="label2_bg" class="for_r2" x="-74.98723" y="261.61105" width="73.35453" height="41.12001" rx="4" fill="#fff" fill-opacity="0.75" stroke="none" stroke-width="0" stroke-opacity="0" transform="translate(0,-13.90308)"></rect>
<text id="label2" class="for_r2" text-anchor="end" x="-6.29754" y="282.13605" font-weight="400" font-size="14.4px" dy="-5.125" transform="translate(0,-13.90308)">From App<tspan x="-6.29754" dy="19.32" font-weight="400" font-size="17.6px">152,815</tspan></text>
<rect id="label3_bg" class="for_r3" x="-91.93254" y="371.49117" width="90.29984" height="41.12001" rx="4" fill="#fff" fill-opacity="0.75" stroke="none" stroke-width="0" stroke-opacity="0" transform="translate(0,0.99741)"></rect>
<text id="label3" class="for_r3" text-anchor="end" x="-6.29754" y="392.01616" font-weight="400" font-size="14.4px" dy="-5.125" transform="translate(0,0.99741)">From Things<tspan x="-6.29754" dy="19.32" font-weight="400" font-size="17.6px">18,794</tspan></text>
<rect id="label4_bg" class="for_r4" x="-115.4091" y="421.03448" width="113.77641" height="41.12001" rx="4" fill="#fff" fill-opacity="0.75" stroke="none" stroke-width="0" stroke-opacity="0"></rect>
<text id="label4" class="for_r4" text-anchor="end" x="-6.29754" y="441.55948" font-weight="400" font-size="14.4px" dy="-5.125">From All Manual<tspan x="-6.29754" dy="19.32" font-weight="400" font-size="17.6px">1,281</tspan></text>
<rect id="label5_bg" class="for_r5" x="-141.01067" y="463.19171" width="139.37797" height="41.12001" rx="4" fill="#fff" fill-opacity="0.75" stroke="none" stroke-width="0" stroke-opacity="0"></rect>
<text id="label5" class="for_r5" text-anchor="end" x="-6.29754" y="483.7167" font-weight="400" font-size="14.4px" dy="-5.125">From Special Cases<tspan x="-6.29754" dy="19.32" font-weight="400" font-size="17.6px">244</tspan></text>
<rect id="label6_bg" class="for_r6" x="-79.37004" y="504.84445" width="77.73734" height="41.12001" rx="4" fill="#fff" fill-opacity="0.75" stroke="none" stroke-width="0" stroke-opacity="0"></rect>
<text id="label6" class="for_r6" text-anchor="end" x="-6.29754" y="525.36943" font-weight="400" font-size="14.4px" dy="-5.125">From Octo<tspan x="-6.29754" dy="19.32" font-weight="400" font-size="17.6px">14</tspan></text>
<rect id="label7_bg" class="for_r7" x="218.1848" y="308.31042" width="73.35453" height="41.12001" rx="4" fill="#fff" fill-opacity="0.75" stroke="none" stroke-width="0" stroke-opacity="0" transform="translate(0,-1.00814)"></rect>
<text id="label7" class="for_r7" text-anchor="middle" x="254.66216" y="328.83542" font-weight="400" font-size="14.4px" dy="-5.125" transform="translate(0,-1.00814)">Inactive<tspan x="254.66216" dy="19.32" font-weight="400" font-size="17.6px">103,230</tspan></text>
<rect id="label8_bg" class="for_r8" x="466.84694" y="190.94357" width="73.35453" height="41.12001" rx="4" fill="#fff" fill-opacity="0.75" stroke="none" stroke-width="0" stroke-opacity="0" transform="translate(61.82736,-112.99785)"></rect>
<text id="label8" class="for_r8" text-anchor="middle" x="503.32432" y="211.46856" font-weight="400" font-size="14.4px" dy="-5.125" transform="translate(61.82736,-112.99785)">To Fando<tspan x="503.32432" dy="19.32" font-weight="400" font-size="17.6px">224,703</tspan></text>
<rect id="label9_bg" class="for_r9" x="467.56959" y="340.53268" width="71.90922" height="41.12001" rx="4" fill="#fff" fill-opacity="0.75" stroke="none" stroke-width="0" stroke-opacity="0" transform="translate(61.82736,-5.78287)"></rect>
<text id="label9" class="for_r9" text-anchor="middle" x="503.32432" y="361.05767" font-weight="400" font-size="14.4px" dy="-5.125" transform="translate(61.82736,-5.78287)">To Things<tspan x="503.32432" dy="19.32" font-weight="400" font-size="17.6px">46,634</tspan></text>
<rect id="label10_bg" class="for_r10" x="510.95704" y="400.68173" width="59.35453" height="41.12001" rx="4" fill="#fff" fill-opacity="0.75" stroke="none" stroke-width="0" stroke-opacity="0" transform="translate(61.82736,27.95214)"></rect>
<text id="label10" class="for_r10" text-anchor="start" x="515.62186" y="421.20674" font-weight="400" font-size="14.4px" dy="-5.125" transform="translate(61.82736,27.95214)">To Octo<tspan x="515.62186" dy="19.32" font-weight="400" font-size="17.6px">77</tspan></text>
<rect id="label11_bg" class="for_r11" x="759.61915" y="393.64944" width="59.37016" height="41.12001" rx="4" fill="#fff" fill-opacity="0.75" stroke="none" stroke-width="0" stroke-opacity="0" transform="translate(0,-299.00838)"></rect>
<text id="label11" class="for_r11" text-anchor="start" x="764.28402" y="414.17445" font-weight="400" font-size="14.4px" dy="-5.125" transform="translate(0,-299.00838)">Deleted<tspan x="764.28402" dy="19.32" font-weight="400" font-size="17.6px">1,008</tspan></text>
</g>
</g></svg>