<svg height="600" width="1000" xmlns="http://www.w3.org/2000/svg">
<title>Your Diagram Title</title>
<!-- Generated with SankeyMATIC: 11/07/2024, 00:39:12 -->
<rect height="600" width="1000" fill="#ffffff"></rect>
<g transform="translate(161.01066,20)">
<g id="sankey_flows">
<path id="flow7" d="M262.72108 102.04672C379.93638 102.04672 379.93638 80.87403 497.15168 80.87403" fill="none" stroke-width="139.74807" stroke="#8692a0" opacity="0.45"><title>Active → To Fando: 101,691</title></path>
<path id="flow1" d="M12 313.76142C131.36054 313.76142 131.36054 175.29589 250.72108 175.29589" fill="none" stroke-width="115.79365" stroke="#FFC72C" opacity="0.45"><title>From App → Active: 84,260</title></path>
<path id="flow0" d="M12 42.61319C131.36054 42.61319 131.36054 74.78588 250.72108 74.78588" fill="none" stroke-width="85.22638" stroke="#6F71F4" opacity="0.45"><title>From Fando → Active: 62,017</title></path>
<path id="flow8" d="M260.66216 353.74926C378.90692 353.74926 378.90692 191.00993 497.15168 191.00993" fill="none" stroke-width="80.52372" stroke="#8692a0" opacity="0.45"><title>Inactive → To Fando: 58,595</title></path>
<path id="flow3" d="M12 125.46488C130.33108 125.46488 130.33108 353.7259 248.66216 353.7259" fill="none" stroke-width="80.477" stroke="#6F71F4" opacity="0.45"><title>From Fando → Inactive: 58,561</title></path>
<path id="flow10" d="M262.72108 172.32272C504.35378 172.32272 504.35378 99.32973 745.98648 99.32973" fill="none" stroke-width="1" stroke="#e22828" opacity="0.45"><title>Active → Deleted: 585</title></path>
<path id="flow9" d="M509.15168 11.17659C627.56908 11.17659 627.56908 98.75118 745.98648 98.75118" fill="none" stroke-width="1" stroke="#e22828" opacity="0.45"><title>To Fando → Deleted: 257</title></path>
<path id="flow2" d="M12 455.44217C131.36054 455.44217 131.36054 233.34251 250.72108 233.34251" fill="none" stroke-width="1" stroke="#FE90E7" opacity="0.45"><title>From All Manual → Active: 218</title></path>
<path id="flow6" d="M12 525.17167C130.33108 525.17167 130.33108 394.08946 248.66216 394.08946" fill="none" stroke-width="1" stroke="#FF987A" opacity="0.45"><title>From Special Cases → Inactive: 114</title></path>
<path id="flow4" d="M12 371.68092C130.33108 371.68092 130.33108 393.98708 248.66216 393.98708" fill="none" stroke-width="1" stroke="#FFC72C" opacity="0.45"><title>From App → Inactive: 33</title></path>
<path id="flow5" d="M12 455.59265C130.33108 455.59265 130.33108 394.01044 248.66216 394.01044" fill="none" stroke-width="1" stroke="#FE90E7" opacity="0.45"><title>From All Manual → Inactive: 1</title></path>
</g>
<g id="sankey_nodes">
<g class="node">
<rect id="r0" class="for_r0" x="0" y="34.75" height="165.70338" width="12" fill="#6F71F4" fill-opacity="1" transform="translate(0,-34.75)"><title>From Fando:
120,578</title></rect>
</g>
<g class="node">
<rect id="r1" class="for_r1" x="248.66216" y="43.67915" height="201.31961" width="12" fill="#1c9f77" fill-opacity="1" transform="translate(2.05892,-11.50647)"><title>Active:
146,495</title></rect>
</g>
<g class="node">
<rect id="r2" class="for_r2" x="0" y="269.95338" height="115.839" width="12" fill="#FFC72C" fill-opacity="1" transform="translate(0,-14.08879)"><title>From App:
84,293</title></rect>
</g>
<g class="node">
<rect id="r3" class="for_r3" x="0" y="455.29238" height="0.30096" width="12" fill="#FE90E7" fill-opacity="1"><title>From All Manual:
219</title></rect>
</g>
<g class="node">
<rect id="r4" class="for_r4" x="248.66216" y="314.49877" height="80.68039" width="12" fill="#E75EB6" fill-opacity="1" transform="translate(0,-1.01136)"><title>Inactive:
58,709</title></rect>
</g>
<g class="node">
<rect id="r5" class="for_r5" x="0" y="525.09334" height="0.15666" width="12" fill="#FF987A" fill-opacity="1"><title>From Special Cases:
114</title></rect>
</g>
<g class="node">
<rect id="r6" class="for_r6" x="497.32432" y="129.30318" height="220.27179" width="12" fill="#7e98a8" fill-opacity="1" transform="translate(-0.17264,-118.30318)"><title>To Fando:
160,286</title></rect>
</g>
<g class="node">
<rect id="r7" class="for_r7" x="745.98648" y="397.39347" height="1.15711" width="12" fill="#e22828" fill-opacity="1" transform="translate(0,-298.81888)"><title>Deleted:
842</title></rect>
</g>
</g>
<g id="sankey_labels" font-family="sans-serif" font-size="16px" fill="#000000">
<rect id="label0_bg" class="for_r0" x="-89.79191" y="97.07669" width="88.15922" height="41.12" rx="4" fill="#fff" fill-opacity="0.75" stroke="none" stroke-width="0" stroke-opacity="0" transform="translate(0,-34.75)"></rect>
<text id="label0" class="for_r0" text-anchor="end" x="-6.29754" y="117.60169" font-weight="400" font-size="14.4px" dy="-5.125" transform="translate(0,-34.75)">From Fando<tspan x="-6.29754" dy="19.32" font-weight="400" font-size="17.6px">120,578</tspan></text>
<rect id="label1_bg" class="for_r1" x="218.1848" y="123.81396" width="73.35453" height="41.12001" rx="4" fill="#fff" fill-opacity="0.75" stroke="none" stroke-width="0" stroke-opacity="0" transform="translate(2.05892,-11.50647)"></rect>
<text id="label1" class="for_r1" text-anchor="middle" x="254.66216" y="144.33896" font-weight="400" font-size="14.4px" dy="-5.125" transform="translate(2.05892,-11.50647)">Active<tspan x="254.66216" dy="19.32" font-weight="400" font-size="17.6px">146,495</tspan></text>
<rect id="label2_bg" class="for_r2" x="-73.79973" y="307.34789" width="72.16703" height="41.12001" rx="4" fill="#fff" fill-opacity="0.75" stroke="none" stroke-width="0" stroke-opacity="0" transform="translate(0,-14.08879)"></rect>
<text id="label2" class="for_r2" text-anchor="end" x="-6.29754" y="327.87288" font-weight="400" font-size="14.4px" dy="-5.125" transform="translate(0,-14.08879)">From App<tspan x="-6.29754" dy="19.32" font-weight="400" font-size="17.6px">84,293</tspan></text>
<rect id="label3_bg" class="for_r3" x="-115.4091" y="434.91787" width="113.77641" height="41.12001" rx="4" fill="#fff" fill-opacity="0.75" stroke="none" stroke-width="0" stroke-opacity="0"></rect>
<text id="label3" class="for_r3" text-anchor="end" x="-6.29754" y="455.44286" font-weight="400" font-size="14.4px" dy="-5.125">From All Manual<tspan x="-6.29754" dy="19.32" font-weight="400" font-size="17.6px">219</tspan></text>
<rect id="label4_bg" class="for_r4" x="223.07933" y="334.31396" width="63.56547" height="41.12001" rx="4" fill="#fff" fill-opacity="0.75" stroke="none" stroke-width="0" stroke-opacity="0" transform="translate(0,-1.01136)"></rect>
<text id="label4" class="for_r4" text-anchor="middle" x="254.66216" y="354.83896" font-weight="400" font-size="14.4px" dy="-5.125" transform="translate(0,-1.01136)">Inactive<tspan x="254.66216" dy="19.32" font-weight="400" font-size="17.6px">58,709</tspan></text>
<rect id="label5_bg" class="for_r5" x="-141.01067" y="504.64669" width="139.37797" height="41.12001" rx="4" fill="#fff" fill-opacity="0.75" stroke="none" stroke-width="0" stroke-opacity="0"></rect>
<text id="label5" class="for_r5" text-anchor="end" x="-6.29754" y="525.17167" font-weight="400" font-size="14.4px" dy="-5.125">From Special Cases<tspan x="-6.29754" dy="19.32" font-weight="400" font-size="17.6px">114</tspan></text>
<rect id="label6_bg" class="for_r6" x="466.84694" y="218.91407" width="73.35453" height="41.11999" rx="4" fill="#fff" fill-opacity="0.75" stroke="none" stroke-width="0" stroke-opacity="0" transform="translate(-0.17264,-118.30318)"></rect>
<text id="label6" class="for_r6" text-anchor="middle" x="503.32432" y="239.43907" font-weight="400" font-size="14.4px" dy="-5.125" transform="translate(-0.17264,-118.30318)">To Fando<tspan x="503.32432" dy="19.32" font-weight="400" font-size="17.6px">160,286</tspan></text>
<rect id="label7_bg" class="for_r7" x="759.61915" y="377.44702" width="59.37016" height="41.12001" rx="4" fill="#fff" fill-opacity="0.75" stroke="none" stroke-width="0" stroke-opacity="0" transform="translate(0,-298.81888)"></rect>
<text id="label7" class="for_r7" text-anchor="start" x="764.28402" y="397.97202" font-weight="400" font-size="14.4px" dy="-5.125" transform="translate(0,-298.81888)">Deleted<tspan x="764.28402" dy="19.32" font-weight="400" font-size="17.6px">842</tspan></text>
</g>
</g></svg>