<svg width="341" height="44" viewBox="0 0 341 44" fill="none" xmlns="http://www.w3.org/2000/svg">
<rect width="341" height="43.63" rx="21.815" fill="#02B873"/>
<path d="M45.17 31.3154H40.1258L46.6775 11.8972H52.9259L59.4776 31.3154H54.4334L49.8728 16.7897H49.7211L45.17 31.3154ZM44.4968 23.6733H55.0402V27.2384H44.4968V23.6733ZM78.2818 18.9325H73.5411C73.4779 18.4458 73.3483 18.0065 73.1523 17.6146C72.9564 17.2227 72.6972 16.8877 72.3749 16.6096C72.0525 16.3314 71.6701 16.1197 71.2276 15.9743C70.7914 15.8226 70.3079 15.7467 69.7769 15.7467C68.8351 15.7467 68.0228 15.9775 67.3402 16.4389C66.6638 16.9003 66.1423 17.5672 65.7757 18.4395C65.4154 19.3118 65.2353 20.3674 65.2353 21.6063C65.2353 22.8958 65.4186 23.9767 65.7852 24.849C66.1581 25.715 66.6796 26.3692 67.3496 26.8117C68.026 27.2479 68.8256 27.4659 69.7485 27.4659C70.2668 27.4659 70.7377 27.3996 71.1612 27.2668C71.591 27.1341 71.9671 26.9413 72.2895 26.6884C72.6182 26.4293 72.8869 26.1164 73.0954 25.7498C73.3104 25.3768 73.4589 24.9565 73.5411 24.4887L78.2818 24.5172C78.1997 25.3768 77.95 26.2238 77.5328 27.0582C77.1219 27.8926 76.5562 28.6543 75.8356 29.3433C75.115 30.0259 74.2364 30.5695 73.1997 30.9741C72.1694 31.3786 70.9874 31.5809 69.6536 31.5809C67.8964 31.5809 66.3225 31.1953 64.9318 30.4242C63.5475 29.6467 62.454 28.5152 61.6512 27.0298C60.8485 25.5443 60.4471 23.7365 60.4471 21.6063C60.4471 19.4698 60.8548 17.6589 61.6702 16.1734C62.4856 14.688 63.5886 13.5597 64.9793 12.7885C66.3699 12.0173 67.928 11.6318 69.6536 11.6318C70.8294 11.6318 71.9166 11.7961 72.9153 12.1248C73.914 12.4472 74.7926 12.9213 75.5512 13.547C76.3097 14.1665 76.926 14.9282 77.4001 15.8321C77.8741 16.736 78.1681 17.7695 78.2818 18.9325ZM98.5937 18.9325H93.8529C93.7897 18.4458 93.6601 18.0065 93.4642 17.6146C93.2682 17.2227 93.009 16.8877 92.6867 16.6096C92.3643 16.3314 91.9819 16.1197 91.5394 15.9743C91.1033 15.8226 90.6197 15.7467 90.0887 15.7467C89.1469 15.7467 88.3346 15.9775 87.652 16.4389C86.9756 16.9003 86.4541 17.5672 86.0875 18.4395C85.7272 19.3118 85.5471 20.3674 85.5471 21.6063C85.5471 22.8958 85.7304 23.9767 86.097 24.849C86.4699 25.715 86.9914 26.3692 87.6615 26.8117C88.3378 27.2479 89.1374 27.4659 90.0603 27.4659C90.5786 27.4659 91.0495 27.3996 91.473 27.2668C91.9029 27.1341 92.279 26.9413 92.6013 26.6884C92.93 26.4293 93.1987 26.1164 93.4073 25.7498C93.6222 25.3768 93.7707 24.9565 93.8529 24.4887L98.5937 24.5172C98.5115 25.3768 98.2618 26.2238 97.8446 27.0582C97.4338 27.8926 96.868 28.6543 96.1474 29.3433C95.4268 30.0259 94.5482 30.5695 93.5116 30.9741C92.4812 31.3786 91.2992 31.5809 89.9655 31.5809C88.2082 31.5809 86.6343 31.1953 85.2437 30.4242C83.8594 29.6467 82.7658 28.5152 81.9631 27.0298C81.1603 25.5443 80.7589 23.7365 80.7589 21.6063C80.7589 19.4698 81.1666 17.6589 81.982 16.1734C82.7974 14.688 83.9004 13.5597 85.2911 12.7885C86.6817 12.0173 88.2398 11.6318 89.9655 11.6318C91.1412 11.6318 92.2284 11.7961 93.2271 12.1248C94.2258 12.4472 95.1045 12.9213 95.863 13.547C96.6215 14.1665 97.2378 14.9282 97.7119 15.8321C98.186 16.736 98.4799 17.7695 98.5937 18.9325ZM119.607 21.6063C119.607 23.7428 119.196 25.5538 118.375 27.0393C117.553 28.5247 116.44 29.653 115.037 30.4242C113.64 31.1953 112.072 31.5809 110.334 31.5809C108.59 31.5809 107.019 31.1922 105.622 30.4147C104.225 29.6372 103.116 28.5089 102.294 27.0298C101.478 25.5443 101.071 23.7365 101.071 21.6063C101.071 19.4698 101.478 17.6589 102.294 16.1734C103.116 14.688 104.225 13.5597 105.622 12.7885C107.019 12.0173 108.59 11.6318 110.334 11.6318C112.072 11.6318 113.64 12.0173 115.037 12.7885C116.44 13.5597 117.553 14.688 118.375 16.1734C119.196 17.6589 119.607 19.4698 119.607 21.6063ZM114.809 21.6063C114.809 20.3421 114.629 19.2739 114.269 18.4016C113.915 17.5293 113.403 16.8687 112.733 16.4199C112.069 15.9711 111.27 15.7467 110.334 15.7467C109.405 15.7467 108.605 15.9711 107.935 16.4199C107.265 16.8687 106.75 17.5293 106.39 18.4016C106.036 19.2739 105.859 20.3421 105.859 21.6063C105.859 22.8705 106.036 23.9388 106.39 24.8111C106.75 25.6834 107.265 26.3439 107.935 26.7927C108.605 27.2415 109.405 27.4659 110.334 27.4659C111.27 27.4659 112.069 27.2415 112.733 26.7927C113.403 26.3439 113.915 25.6834 114.269 24.8111C114.629 23.9388 114.809 22.8705 114.809 21.6063ZM134.095 11.8972H138.779V24.4224C138.779 25.8699 138.434 27.1309 137.745 28.2055C137.056 29.2737 136.096 30.1018 134.863 30.6896C133.63 31.2712 132.199 31.5619 130.568 31.5619C128.918 31.5619 127.477 31.2712 126.244 30.6896C125.012 30.1018 124.054 29.2737 123.371 28.2055C122.689 27.1309 122.347 25.8699 122.347 24.4224V11.8972H127.041V24.0146C127.041 24.6847 127.186 25.282 127.477 25.8067C127.774 26.3313 128.188 26.7422 128.719 27.0393C129.25 27.3363 129.866 27.4849 130.568 27.4849C131.269 27.4849 131.883 27.3363 132.407 27.0393C132.938 26.7422 133.352 26.3313 133.649 25.8067C133.946 25.282 134.095 24.6847 134.095 24.0146V11.8972ZM158.247 11.8972V31.3154H154.264L146.537 20.1083H146.414V31.3154H141.72V11.8972H145.76L153.402 23.0855H153.563V11.8972H158.247ZM160.563 15.7088V11.8972H176.975V15.7088H171.087V31.3154H166.46V15.7088H160.563ZM189.763 17.7189C189.7 17.0236 189.419 16.4831 188.919 16.0976C188.426 15.7057 187.722 15.5097 186.805 15.5097C186.198 15.5097 185.693 15.5887 185.288 15.7467C184.884 15.9048 184.58 16.1229 184.378 16.401C184.176 16.6728 184.071 16.9857 184.065 17.3396C184.052 17.6304 184.109 17.8864 184.236 18.1077C184.368 18.3289 184.558 18.5248 184.805 18.6955C185.057 18.8599 185.361 19.0052 185.715 19.1317C186.069 19.2581 186.467 19.3687 186.909 19.4635L188.578 19.8428C189.539 20.0514 190.386 20.3295 191.119 20.6771C191.859 21.0248 192.478 21.4388 192.978 21.9192C193.483 22.3996 193.866 22.9527 194.125 23.5785C194.384 24.2043 194.517 24.9059 194.523 25.6834C194.517 26.9097 194.207 27.9621 193.594 28.8407C192.981 29.7194 192.099 30.3926 190.949 30.8603C189.804 31.3281 188.423 31.5619 186.805 31.5619C185.181 31.5619 183.765 31.3186 182.557 30.8319C181.35 30.3452 180.411 29.6056 179.741 28.6132C179.071 27.6208 178.727 26.3661 178.708 24.849H183.202C183.24 25.4748 183.408 25.9963 183.705 26.4135C184.002 26.8307 184.409 27.1467 184.928 27.3616C185.452 27.5765 186.059 27.684 186.748 27.684C187.38 27.684 187.918 27.5987 188.36 27.428C188.809 27.2573 189.153 27.0203 189.394 26.7169C189.634 26.4135 189.757 26.0658 189.763 25.6739C189.757 25.3073 189.643 24.9944 189.422 24.7352C189.201 24.4698 188.859 24.2422 188.398 24.0526C187.943 23.8566 187.361 23.6765 186.653 23.5121L184.624 23.038C182.943 22.6525 181.619 22.0298 180.652 21.1702C179.684 20.3042 179.204 19.1348 179.21 17.662C179.204 16.461 179.526 15.4086 180.178 14.5047C180.829 13.6008 181.729 12.896 182.88 12.3903C184.03 11.8846 185.342 11.6318 186.815 11.6318C188.319 11.6318 189.624 11.8878 190.73 12.3998C191.843 12.9054 192.706 13.6166 193.319 14.5331C193.932 15.4497 194.245 16.5116 194.258 17.7189H189.763ZM210.518 11.8972H215.145V25.3231C215.139 26.581 214.839 27.6808 214.245 28.6227C213.65 29.5582 212.829 30.2851 211.779 30.8034C210.737 31.3218 209.529 31.5809 208.158 31.5809C206.944 31.5809 205.841 31.3692 204.848 30.9456C203.862 30.5221 203.075 29.8648 202.488 28.9735C201.906 28.0822 201.618 26.9413 201.625 25.5507H206.299C206.318 26.05 206.413 26.4767 206.584 26.8307C206.761 27.1783 207.004 27.4406 207.314 27.6176C207.623 27.7946 207.993 27.8831 208.423 27.8831C208.872 27.8831 209.251 27.7883 209.561 27.5987C209.871 27.4027 210.104 27.1151 210.262 26.7358C210.427 26.3566 210.512 25.8857 210.518 25.3231V11.8972ZM236.42 21.6063C236.42 23.7428 236.009 25.5538 235.187 27.0393C234.365 28.5247 233.253 29.653 231.85 30.4242C230.453 31.1953 228.885 31.5809 227.147 31.5809C225.402 31.5809 223.831 31.1922 222.434 30.4147C221.037 29.6372 219.928 28.5089 219.106 27.0298C218.291 25.5443 217.883 23.7365 217.883 21.6063C217.883 19.4698 218.291 17.6589 219.106 16.1734C219.928 14.688 221.037 13.5597 222.434 12.7885C223.831 12.0173 225.402 11.6318 227.147 11.6318C228.885 11.6318 230.453 12.0173 231.85 12.7885C233.253 13.5597 234.365 14.688 235.187 16.1734C236.009 17.6589 236.42 19.4698 236.42 21.6063ZM231.622 21.6063C231.622 20.3421 231.442 19.2739 231.082 18.4016C230.728 17.5293 230.216 16.8687 229.546 16.4199C228.882 15.9711 228.082 15.7467 227.147 15.7467C226.217 15.7467 225.418 15.9711 224.748 16.4199C224.078 16.8687 223.563 17.5293 223.202 18.4016C222.848 19.2739 222.671 20.3421 222.671 21.6063C222.671 22.8705 222.848 23.9388 223.202 24.8111C223.563 25.6834 224.078 26.3439 224.748 26.7927C225.418 27.2415 226.217 27.4659 227.147 27.4659C228.082 27.4659 228.882 27.2415 229.546 26.7927C230.216 26.3439 230.728 25.6834 231.082 24.8111C231.442 23.9388 231.622 22.8705 231.622 21.6063ZM243.853 11.8972V31.3154H239.16V11.8972H243.853ZM263.326 11.8972V31.3154H259.344L251.616 20.1083H251.493V31.3154H246.8V11.8972H250.839L258.481 23.0855H258.642V11.8972H263.326ZM266.277 31.3154V11.8972H279.817V15.7088H270.97V19.6911H279.124V23.5121H270.97V27.5039H279.817V31.3154H266.277ZM289.933 31.3154H282.756V11.8972H289.924C291.902 11.8972 293.606 12.286 295.034 13.0635C296.469 13.8346 297.576 14.9471 298.353 16.401C299.13 17.8485 299.519 19.5805 299.519 21.5969C299.519 23.6196 299.13 25.3579 298.353 26.8117C297.582 28.2655 296.479 29.3812 295.044 30.1587C293.609 30.9298 291.906 31.3154 289.933 31.3154ZM287.449 27.3142H289.753C290.84 27.3142 291.76 27.1309 292.512 26.7643C293.271 26.3914 293.843 25.7877 294.229 24.9533C294.62 24.1126 294.816 22.9938 294.816 21.5969C294.816 20.1999 294.62 19.0874 294.229 18.2594C293.837 17.425 293.258 16.8245 292.493 16.4579C291.735 16.0849 290.799 15.8985 289.687 15.8985H287.449V27.3142Z" fill="white"/>
</svg>
