<svg width="1165" height="169" viewBox="0 0 1165 169" fill="none" xmlns="http://www.w3.org/2000/svg">
<path d="M13.1596 65H1.2684L14.6659 24.4112H29.7281L43.1256 65H31.2343L22.3555 35.589H22.0384L13.1596 65ZM10.9399 48.9865H33.2955V57.2311H10.9399V48.9865ZM83.0207 39.632H71.8429C71.7636 38.7072 71.5522 37.8682 71.2087 37.115C70.8784 36.3619 70.4159 35.7145 69.8214 35.1728C69.24 34.6179 68.5332 34.1951 67.7008 33.9044C66.8684 33.6005 65.9237 33.4486 64.8667 33.4486C63.017 33.4486 61.4513 33.8978 60.1697 34.7963C58.9013 35.6947 57.9368 36.9829 57.2761 38.6609C56.6287 40.3389 56.305 42.3538 56.305 44.7056C56.305 47.1896 56.6353 49.2705 57.2959 50.9485C57.9698 52.6133 58.9409 53.8685 60.2093 54.7141C61.4777 55.5465 63.0037 55.9627 64.7874 55.9627C65.8048 55.9627 66.7164 55.8371 67.5224 55.5861C68.3284 55.3219 69.0286 54.9453 69.6232 54.4564C70.2178 53.9676 70.7 53.3796 71.07 52.6926C71.4531 51.9923 71.7108 51.2062 71.8429 50.3341L83.0207 50.4134C82.8885 52.131 82.4063 53.8817 81.5739 55.6654C80.7415 57.4359 79.559 59.0742 78.0263 60.5804C76.5069 62.0734 74.6241 63.2758 72.378 64.1874C70.1319 65.0991 67.5224 65.5549 64.5496 65.5549C60.8237 65.5549 57.4809 64.7556 54.5213 63.1569C51.5749 61.5581 49.2429 59.2063 47.5253 56.1014C45.8209 52.9965 44.9687 49.1979 44.9687 44.7056C44.9687 40.187 45.8407 36.3818 47.5848 33.29C49.3288 30.1851 51.6806 27.8399 54.6402 26.2544C57.5998 24.6557 60.903 23.8563 64.5496 23.8563C67.1128 23.8563 69.4713 24.2064 71.6249 24.9067C73.7785 25.607 75.6679 26.6309 77.293 27.9786C78.9182 29.3131 80.2262 30.958 81.2172 32.9135C82.2081 34.8689 82.8093 37.1084 83.0207 39.632ZM125.913 39.632H114.736C114.656 38.7072 114.445 37.8682 114.101 37.115C113.771 36.3619 113.309 35.7145 112.714 35.1728C112.133 34.6179 111.426 34.1951 110.593 33.9044C109.761 33.6005 108.816 33.4486 107.759 33.4486C105.91 33.4486 104.344 33.8978 103.062 34.7963C101.794 35.6947 100.829 36.9829 100.169 38.6609C99.5214 40.3389 99.1977 42.3538 99.1977 44.7056C99.1977 47.1896 99.528 49.2705 100.189 50.9485C100.862 52.6133 101.834 53.8685 103.102 54.7141C104.37 55.5465 105.896 55.9627 107.68 55.9627C108.697 55.9627 109.609 55.8371 110.415 55.5861C111.221 55.3219 111.921 54.9453 112.516 54.4564C113.11 53.9676 113.593 53.3796 113.963 52.6926C114.346 51.9923 114.603 51.2062 114.736 50.3341L125.913 50.4134C125.781 52.131 125.299 53.8817 124.467 55.6654C123.634 57.4359 122.452 59.0742 120.919 60.5804C119.4 62.0734 117.517 63.2758 115.271 64.1874C113.025 65.0991 110.415 65.5549 107.442 65.5549C103.716 65.5549 100.374 64.7556 97.414 63.1569C94.4676 61.5581 92.1356 59.2063 90.418 56.1014C88.7136 52.9965 87.8614 49.1979 87.8614 44.7056C87.8614 40.187 88.7334 36.3818 90.4774 33.29C92.2215 30.1851 94.5733 27.8399 97.5329 26.2544C100.493 24.6557 103.796 23.8563 107.442 23.8563C110.006 23.8563 112.364 24.2064 114.518 24.9067C116.671 25.607 118.561 26.6309 120.186 27.9786C121.811 29.3131 123.119 30.958 124.11 32.9135C125.101 34.8689 125.702 37.1084 125.913 39.632ZM170.233 44.7056C170.233 49.2243 169.354 53.0361 167.597 56.141C165.84 59.2327 163.468 61.578 160.482 63.1767C157.496 64.7622 154.167 65.5549 150.494 65.5549C146.794 65.5549 143.451 64.7556 140.465 63.1569C137.492 61.5449 135.127 59.1931 133.37 56.1014C131.626 52.9965 130.754 49.1979 130.754 44.7056C130.754 40.187 131.626 36.3818 133.37 33.29C135.127 30.1851 137.492 27.8399 140.465 26.2544C143.451 24.6557 146.794 23.8563 150.494 23.8563C154.167 23.8563 157.496 24.6557 160.482 26.2544C163.468 27.8399 165.84 30.1851 167.597 33.29C169.354 36.3818 170.233 40.187 170.233 44.7056ZM158.897 44.7056C158.897 42.2745 158.573 40.2266 157.926 38.5618C157.291 36.8838 156.347 35.6154 155.091 34.7566C153.849 33.8846 152.317 33.4486 150.494 33.4486C148.67 33.4486 147.131 33.8846 145.876 34.7566C144.634 35.6154 143.689 36.8838 143.042 38.5618C142.407 40.2266 142.09 42.2745 142.09 44.7056C142.09 47.1367 142.407 49.1913 143.042 50.8692C143.689 52.534 144.634 53.8024 145.876 54.6744C147.131 55.5333 148.67 55.9627 150.494 55.9627C152.317 55.9627 153.849 55.5333 155.091 54.6744C156.347 53.8024 157.291 52.534 157.926 50.8692C158.573 49.1913 158.897 47.1367 158.897 44.7056ZM199.352 24.4112H210.371V50.4134C210.371 53.5051 209.631 56.1807 208.151 58.44C206.685 60.6861 204.637 62.4236 202.007 63.6523C199.378 64.8679 196.326 65.4756 192.851 65.4756C189.35 65.4756 186.284 64.8679 183.655 63.6523C181.026 62.4236 178.978 60.6861 177.511 58.44C176.058 56.1807 175.331 53.5051 175.331 50.4134V24.4112H186.351V49.4621C186.351 50.7173 186.628 51.8404 187.183 52.8313C187.738 53.809 188.504 54.5753 189.482 55.1303C190.473 55.6852 191.596 55.9627 192.851 55.9627C194.119 55.9627 195.243 55.6852 196.22 55.1303C197.198 54.5753 197.964 53.809 198.519 52.8313C199.074 51.8404 199.352 50.7173 199.352 49.4621V24.4112ZM250.727 24.4112V65H241.531L226.865 43.675H226.627V65H215.608V24.4112H224.962L239.39 45.6569H239.708V24.4112H250.727ZM254.829 33.29V24.4112H290.107V33.29H277.898V65H267.038V33.29H254.829ZM305.372 65V24.4112H322.971C326.063 24.4112 328.659 24.8274 330.76 25.6598C332.874 26.4922 334.466 27.6681 335.536 29.1876C336.619 30.707 337.161 32.4973 337.161 34.5584C337.161 36.0514 336.831 37.4123 336.17 38.6411C335.523 39.8699 334.611 40.9004 333.435 41.7328C332.259 42.552 330.885 43.1201 329.313 43.4372V43.8336C331.057 43.8997 332.643 44.3423 334.069 45.1615C335.496 45.9674 336.633 47.0839 337.478 48.5108C338.324 49.9246 338.747 51.5893 338.747 53.5051C338.747 55.7248 338.165 57.7001 337.003 59.4309C335.853 61.1618 334.215 62.5227 332.088 63.5136C329.96 64.5045 327.424 65 324.477 65H305.372ZM316.391 56.2005H321.544C323.394 56.2005 324.781 55.857 325.706 55.1699C326.631 54.4696 327.093 53.4391 327.093 52.0782C327.093 51.1269 326.875 50.3209 326.439 49.6603C326.003 48.9997 325.382 48.4976 324.576 48.1541C323.784 47.8106 322.826 47.6388 321.703 47.6388H316.391V56.2005ZM316.391 40.8212H320.91C321.874 40.8212 322.727 40.6692 323.466 40.3653C324.206 40.0614 324.781 39.6254 325.191 39.0573C325.613 38.4759 325.825 37.7691 325.825 36.9367C325.825 35.6815 325.376 34.7236 324.477 34.063C323.579 33.3891 322.442 33.0522 321.068 33.0522H316.391V40.8212ZM353.195 65H341.303L354.701 24.4112H369.763L383.16 65H371.269L362.39 35.589H362.073L353.195 65ZM350.975 48.9865H373.33V57.2311H350.975V48.9865ZM407.369 37.0952C407.263 35.774 406.768 34.7434 405.883 34.0035C405.011 33.2636 403.683 32.8937 401.899 32.8937C400.763 32.8937 399.831 33.0324 399.105 33.3099C398.391 33.5741 397.863 33.9374 397.519 34.3999C397.176 34.8623 396.997 35.3908 396.984 35.9854C396.958 36.4742 397.043 36.9169 397.242 37.3132C397.453 37.6964 397.783 38.0465 398.233 38.3636C398.682 38.6675 399.257 38.945 399.957 39.196C400.657 39.4471 401.489 39.6717 402.454 39.8699L405.784 40.5833C408.03 41.059 409.952 41.6866 411.551 42.4661C413.149 43.2456 414.458 44.1639 415.475 45.2209C416.492 46.2647 417.239 47.4406 417.714 48.7486C418.203 50.0567 418.454 51.4836 418.468 53.0295C418.454 55.6984 417.787 57.9577 416.466 59.8075C415.145 61.6572 413.255 63.0644 410.798 64.0289C408.353 64.9934 405.414 65.4756 401.978 65.4756C398.451 65.4756 395.372 64.9538 392.743 63.91C390.127 62.8662 388.092 61.2609 386.639 59.094C385.198 56.914 384.472 54.1261 384.459 50.7305H394.923C394.989 51.9725 395.299 53.0163 395.854 53.8619C396.409 54.7075 397.189 55.3483 398.193 55.7843C399.21 56.2203 400.419 56.4383 401.82 56.4383C402.996 56.4383 403.98 56.293 404.773 56.0023C405.566 55.7116 406.167 55.3086 406.576 54.7934C406.986 54.2781 407.197 53.6901 407.21 53.0295C407.197 52.4085 406.992 51.8668 406.596 51.4044C406.213 50.9287 405.579 50.5059 404.693 50.136C403.808 49.7528 402.613 49.3961 401.106 49.0657L397.063 48.1937C393.469 47.4142 390.635 46.1128 388.561 44.2894C386.5 42.4529 385.476 39.9491 385.489 36.7781C385.476 34.2017 386.163 31.949 387.55 30.0199C388.951 28.0777 390.886 26.5649 393.357 25.4815C395.841 24.398 398.688 23.8563 401.899 23.8563C405.176 23.8563 408.01 24.4046 410.401 25.5013C412.793 26.5979 414.636 28.1438 415.931 30.1389C417.239 32.1207 417.899 34.4395 417.913 37.0952H407.369ZM422.659 65V24.4112H451.912V33.29H433.678V40.2662H450.405V49.145H433.678V56.1212H451.832V65H422.659ZM494.854 37.8087C494.682 37.1084 494.411 36.4941 494.041 35.9656C493.671 35.4239 493.209 34.968 492.654 34.5981C492.112 34.2149 491.478 33.9308 490.751 33.7459C490.038 33.5477 489.252 33.4486 488.393 33.4486C486.543 33.4486 484.964 33.8912 483.656 34.7764C482.361 35.6617 481.37 36.9367 480.683 38.6015C480.01 40.2662 479.673 42.2745 479.673 44.6263C479.673 47.0046 479.996 49.0393 480.644 50.7305C481.291 52.4217 482.256 53.7165 483.537 54.615C484.819 55.5134 486.411 55.9627 488.314 55.9627C489.992 55.9627 491.386 55.7182 492.495 55.2294C493.618 54.7405 494.457 54.0468 495.012 53.1484C495.567 52.25 495.845 51.193 495.845 49.9774L497.747 50.1756H488.472V42.3274H506.468V47.9559C506.468 51.6554 505.681 54.8198 504.109 57.4491C502.55 60.0651 500.396 62.0734 497.648 63.474C494.913 64.8613 491.775 65.5549 488.234 65.5549C484.284 65.5549 480.816 64.7159 477.83 63.0379C474.844 61.36 472.512 58.9685 470.834 55.8636C469.169 52.7586 468.336 49.0657 468.336 44.7849C468.336 41.4289 468.845 38.4561 469.862 35.8665C470.893 33.2768 472.32 31.0902 474.143 29.3065C475.967 27.5096 478.074 26.1553 480.465 25.2436C482.857 24.3188 485.42 23.8563 488.155 23.8563C490.56 23.8563 492.793 24.1998 494.854 24.8869C496.928 25.5607 498.758 26.5252 500.344 27.7804C501.942 29.0224 503.231 30.4956 504.208 32.2C505.186 33.9044 505.781 35.774 505.992 37.8087H494.854ZM511.606 65V24.4112H529.125C532.138 24.4112 534.774 24.9596 537.033 26.0562C539.292 27.1528 541.05 28.7317 542.305 30.7929C543.56 32.854 544.188 35.3248 544.188 38.2051C544.188 41.1118 543.54 43.5627 542.245 45.5578C540.964 47.5529 539.16 49.0591 536.835 50.0765C534.523 51.0939 531.821 51.6025 528.729 51.6025H518.265V43.0408H526.509C527.804 43.0408 528.907 42.8823 529.819 42.5652C530.744 42.2349 531.451 41.713 531.94 40.9995C532.442 40.286 532.693 39.3546 532.693 38.2051C532.693 37.0424 532.442 36.0977 531.94 35.371C531.451 34.6311 530.744 34.0894 529.819 33.7459C528.907 33.3891 527.804 33.2108 526.509 33.2108H522.625V65H511.606ZM535.388 46.3704L545.535 65H533.565L523.655 46.3704H535.388ZM588.205 44.7056C588.205 49.2243 587.326 53.0361 585.569 56.141C583.812 59.2327 581.44 61.578 578.454 63.1767C575.468 64.7622 572.139 65.5549 568.466 65.5549C564.766 65.5549 561.423 64.7556 558.437 63.1569C555.464 61.5449 553.099 59.1931 551.342 56.1014C549.598 52.9965 548.726 49.1979 548.726 44.7056C548.726 40.187 549.598 36.3818 551.342 33.29C553.099 30.1851 555.464 27.8399 558.437 26.2544C561.423 24.6557 564.766 23.8563 568.466 23.8563C572.139 23.8563 575.468 24.6557 578.454 26.2544C581.44 27.8399 583.812 30.1851 585.569 33.29C587.326 36.3818 588.205 40.187 588.205 44.7056ZM576.869 44.7056C576.869 42.2745 576.545 40.2266 575.898 38.5618C575.263 36.8838 574.319 35.6154 573.063 34.7566C571.822 33.8846 570.289 33.4486 568.466 33.4486C566.642 33.4486 565.103 33.8846 563.848 34.7566C562.606 35.6154 561.661 36.8838 561.014 38.5618C560.379 40.2266 560.062 42.2745 560.062 44.7056C560.062 47.1367 560.379 49.1913 561.014 50.8692C561.661 52.534 562.606 53.8024 563.848 54.6744C565.103 55.5333 566.642 55.9627 568.466 55.9627C570.289 55.9627 571.822 55.5333 573.063 54.6744C574.319 53.8024 575.263 52.534 575.898 50.8692C576.545 49.1913 576.869 47.1367 576.869 44.7056ZM601.048 65L589.077 24.4112H601.365L606.914 49.3828H607.231L613.811 24.4112H623.482L630.062 49.4621H630.379L635.929 24.4112H648.216L636.246 65H625.702L618.805 42.3274H618.488L611.591 65H601.048ZM650.674 33.29V24.4112H685.951V33.29H673.743V65H662.882V33.29H650.674ZM690.098 65V24.4112H701.117V40.2662H715.704V24.4112H726.723V65H715.704V49.145H701.117V65H690.098Z" fill="#02B873"/>
<rect y="82" width="409" height="63" rx="31.5" fill="#02B873"/>
<path d="M54.5095 108.632H43.3317C43.2524 107.707 43.041 106.868 42.6975 106.115C42.3672 105.362 41.9048 104.715 41.3102 104.173C40.7289 103.618 40.022 103.195 39.1896 102.904C38.3572 102.601 37.4125 102.449 36.3555 102.449C34.5058 102.449 32.9401 102.898 31.6585 103.796C30.3901 104.695 29.4256 105.983 28.765 107.661C28.1175 109.339 27.7938 111.354 27.7938 113.706C27.7938 116.19 28.1241 118.271 28.7848 119.949C29.4586 121.613 30.4297 122.868 31.6981 123.714C32.9665 124.546 34.4926 124.963 36.2763 124.963C37.2936 124.963 38.2053 124.837 39.0112 124.586C39.8172 124.322 40.5175 123.945 41.112 123.456C41.7066 122.968 42.1888 122.38 42.5588 121.693C42.942 120.992 43.1996 120.206 43.3317 119.334L54.5095 119.413C54.3774 121.131 53.8951 122.882 53.0627 124.665C52.2303 126.436 51.0478 128.074 49.5152 129.58C47.9957 131.073 46.1129 132.276 43.8668 133.187C41.6207 134.099 39.0112 134.555 36.0384 134.555C32.3125 134.555 28.9697 133.756 26.0102 132.157C23.0638 130.558 20.7318 128.206 19.0141 125.101C17.3097 121.996 16.4575 118.198 16.4575 113.706C16.4575 109.187 17.3295 105.382 19.0736 102.29C20.8176 99.1851 23.1695 96.8399 26.1291 95.2544C29.0887 93.6557 32.3918 92.8563 36.0384 92.8563C38.6016 92.8563 40.9601 93.2064 43.1137 93.9067C45.2673 94.607 47.1567 95.6309 48.7819 96.9786C50.407 98.3131 51.715 99.958 52.706 101.913C53.6969 103.869 54.2981 106.108 54.5095 108.632ZM83.5291 93.4112H94.5483V119.413C94.5483 122.505 93.8084 125.181 92.3286 127.44C90.862 129.686 88.8141 131.424 86.1848 132.652C83.5555 133.868 80.5034 134.476 77.0285 134.476C73.5272 134.476 70.4619 133.868 67.8326 132.652C65.2033 131.424 63.1554 129.686 61.6888 127.44C60.2354 125.181 59.5088 122.505 59.5088 119.413V93.4112H70.528V118.462C70.528 119.717 70.8054 120.84 71.3604 121.831C71.9153 122.809 72.6816 123.575 73.6593 124.13C74.6503 124.685 75.7733 124.963 77.0285 124.963C78.2969 124.963 79.42 124.685 80.3977 124.13C81.3754 123.575 82.1417 122.809 82.6967 121.831C83.2516 120.84 83.5291 119.717 83.5291 118.462V93.4112ZM99.7854 93.4112H113.5L122.934 116.401H123.409L132.843 93.4112H146.558V134H135.776V110.535H135.459L126.422 133.683H119.921L110.884 110.376H110.567V134H99.7854V93.4112ZM175.8 93.4112H186.819V119.413C186.819 122.505 186.079 125.181 184.6 127.44C183.133 129.686 181.085 131.424 178.456 132.652C175.827 133.868 172.774 134.476 169.3 134.476C165.798 134.476 162.733 133.868 160.104 132.652C157.474 131.424 155.426 129.686 153.96 127.44C152.506 125.181 151.78 122.505 151.78 119.413V93.4112H162.799V118.462C162.799 119.717 163.076 120.84 163.631 121.831C164.186 122.809 164.953 123.575 165.93 124.13C166.921 124.685 168.044 124.963 169.3 124.963C170.568 124.963 171.691 124.685 172.669 124.13C173.646 123.575 174.413 122.809 174.968 121.831C175.523 120.84 175.8 119.717 175.8 118.462V93.4112ZM192.056 134V93.4112H203.076V125.121H219.486V134H192.056ZM234.483 134H222.592L235.99 93.4112H251.052L264.449 134H252.558L243.679 104.589H243.362L234.483 134ZM232.264 117.986H254.619V126.231H232.264V117.986ZM262.126 102.29V93.4112H297.403V102.29H285.195V134H274.334V102.29H262.126ZM312.569 93.4112V134H301.55V93.4112H312.569ZM328.89 93.4112L337.214 122.029H337.531L345.855 93.4112H358.301L344.903 134H329.841L316.444 93.4112H328.89ZM362.21 134V93.4112H391.463V102.29H373.229V109.266H389.956V118.145H373.229V125.121H391.383V134H362.21Z" fill="white"/>
<rect x="417" y="79" width="87" height="66" rx="33" fill="#02B873"/>
<path d="M456.855 133.134C453.948 133.134 451.445 132.619 449.344 131.588C447.243 130.558 445.631 129.177 444.508 127.446C443.385 125.715 442.823 123.806 442.823 121.719C442.823 120.199 443.114 118.858 443.695 117.695C444.277 116.519 445.089 115.443 446.133 114.465C447.177 113.487 448.399 112.523 449.8 111.571L458.996 105.863C459.92 105.282 460.548 104.681 460.878 104.06C461.209 103.426 461.374 102.864 461.374 102.375C461.374 101.728 461.136 101.153 460.66 100.651C460.185 100.149 459.445 99.9045 458.441 99.9177C457.82 99.9177 457.285 100.037 456.835 100.274C456.386 100.499 456.036 100.816 455.785 101.226C455.547 101.635 455.428 102.124 455.428 102.692C455.428 103.472 455.653 104.271 456.102 105.09C456.551 105.896 457.166 106.768 457.945 107.707C458.725 108.645 459.603 109.695 460.581 110.858L480.241 132.5H469.301L452.812 115.059C452.006 114.201 451.114 113.15 450.137 111.908C449.159 110.653 448.313 109.239 447.6 107.667C446.899 106.095 446.549 104.384 446.549 102.534C446.549 100.473 447.045 98.5899 448.036 96.8854C449.027 95.181 450.414 93.8201 452.198 92.8028C453.981 91.7854 456.062 91.2767 458.441 91.2767C460.713 91.2767 462.669 91.7457 464.307 92.6838C465.959 93.6219 467.227 94.8705 468.112 96.4296C469.011 97.9887 469.46 99.7063 469.46 101.583C469.46 103.472 468.991 105.236 468.053 106.874C467.128 108.513 465.8 109.946 464.069 111.175L455.666 117.121C455.019 117.57 454.457 118.085 453.981 118.666C453.519 119.248 453.288 120.001 453.288 120.926C453.288 121.692 453.466 122.346 453.823 122.888C454.18 123.43 454.682 123.846 455.329 124.136C455.99 124.427 456.763 124.572 457.648 124.572C458.996 124.572 460.343 124.249 461.691 123.601C463.052 122.941 464.294 122.022 465.417 120.846C466.54 119.657 467.438 118.257 468.112 116.645C468.799 115.02 469.143 113.249 469.143 111.333H477.784C477.784 113.685 477.539 115.951 477.051 118.131C476.562 120.311 475.776 122.306 474.692 124.117C473.609 125.927 472.182 127.453 470.411 128.695C469.856 128.972 469.315 129.236 468.786 129.488C468.258 129.739 467.716 130.003 467.161 130.28C465.536 131.324 463.838 132.064 462.067 132.5C460.297 132.923 458.56 133.134 456.855 133.134Z" fill="white"/>
<rect x="512" y="79" width="336" height="66" rx="33" fill="#02B873"/>
<path d="M553.635 91.9109V132.5H542.616V91.9109H553.635ZM580.18 104.595C580.074 103.274 579.578 102.243 578.693 101.503C577.821 100.763 576.493 100.393 574.71 100.393C573.573 100.393 572.642 100.532 571.915 100.81C571.202 101.074 570.673 101.437 570.33 101.9C569.986 102.362 569.808 102.891 569.795 103.485C569.768 103.974 569.854 104.417 570.052 104.813C570.264 105.196 570.594 105.546 571.043 105.863C571.492 106.167 572.067 106.445 572.767 106.696C573.468 106.947 574.3 107.171 575.265 107.37L578.594 108.083C580.84 108.559 582.763 109.186 584.361 109.966C585.96 110.745 587.268 111.664 588.286 112.721C589.303 113.765 590.049 114.94 590.525 116.249C591.014 117.557 591.265 118.984 591.278 120.529C591.265 123.198 590.598 125.458 589.277 127.307C587.955 129.157 586.066 130.564 583.608 131.529C581.164 132.493 578.224 132.976 574.789 132.976C571.261 132.976 568.183 132.454 565.553 131.41C562.937 130.366 560.902 128.761 559.449 126.594C558.009 124.414 557.282 121.626 557.269 118.23H567.733C567.799 119.472 568.11 120.516 568.665 121.362C569.22 122.207 569.999 122.848 571.003 123.284C572.021 123.72 573.23 123.938 574.63 123.938C575.806 123.938 576.791 123.793 577.583 123.502C578.376 123.212 578.977 122.809 579.387 122.293C579.796 121.778 580.008 121.19 580.021 120.529C580.008 119.908 579.803 119.367 579.407 118.904C579.024 118.429 578.389 118.006 577.504 117.636C576.619 117.253 575.423 116.896 573.917 116.566L569.874 115.694C566.28 114.914 563.446 113.613 561.372 111.789C559.31 109.953 558.286 107.449 558.3 104.278C558.286 101.701 558.973 99.4487 560.361 97.5197C561.761 95.5774 563.697 94.0646 566.168 92.9811C568.652 91.8977 571.499 91.356 574.71 91.356C577.986 91.356 580.82 91.9043 583.212 93.0009C585.603 94.0976 587.447 95.6435 588.741 97.6386C590.049 99.6205 590.71 101.939 590.723 104.595H580.18ZM634.232 112.205C634.232 116.724 633.354 120.536 631.597 123.641C629.839 126.733 627.468 129.078 624.482 130.677C621.496 132.262 618.166 133.055 614.493 133.055C610.793 133.055 607.451 132.256 604.465 130.657C601.492 129.045 599.127 126.693 597.369 123.601C595.625 120.496 594.753 116.698 594.753 112.205C594.753 107.687 595.625 103.882 597.369 100.79C599.127 97.6848 601.492 95.3396 604.465 93.7541C607.451 92.1553 610.793 91.356 614.493 91.356C618.166 91.356 621.496 92.1553 624.482 93.7541C627.468 95.3396 629.839 97.6848 631.597 100.79C633.354 103.882 634.232 107.687 634.232 112.205ZM622.896 112.205C622.896 109.774 622.572 107.726 621.925 106.062C621.291 104.384 620.346 103.115 619.091 102.256C617.849 101.384 616.316 100.948 614.493 100.948C612.67 100.948 611.13 101.384 609.875 102.256C608.633 103.115 607.688 104.384 607.041 106.062C606.407 107.726 606.09 109.774 606.09 112.205C606.09 114.637 606.407 116.691 607.041 118.369C607.688 120.034 608.633 121.302 609.875 122.174C611.13 123.033 612.67 123.463 614.493 123.463C616.316 123.463 617.849 123.033 619.091 122.174C620.346 121.302 621.291 120.034 621.925 118.369C622.572 116.691 622.896 114.637 622.896 112.205ZM638.773 132.5V91.9109H649.792V123.621H666.202V132.5H638.773ZM680.642 132.5H668.751L682.148 91.9109H697.211L710.608 132.5H698.717L689.838 103.089H689.521L680.642 132.5ZM678.422 116.486H700.778V124.731H678.422V116.486ZM707.726 100.79V91.9109H743.004V100.79H730.795V132.5H719.935V100.79H707.726ZM746.593 132.5V91.9109H775.846V100.79H757.612V107.766H774.339V116.645H757.612V123.621H775.766V132.5H746.593ZM796.37 132.5H780.753V91.9109H796.211C800.387 91.9109 803.994 92.7235 807.032 94.3486C810.085 95.9606 812.436 98.286 814.088 101.325C815.753 104.351 816.585 107.977 816.585 112.205C816.585 116.433 815.759 120.067 814.108 123.106C812.456 126.132 810.118 128.457 807.092 130.082C804.066 131.694 800.492 132.5 796.37 132.5ZM791.772 123.145H795.973C797.982 123.145 799.693 122.822 801.107 122.174C802.534 121.527 803.617 120.41 804.357 118.825C805.11 117.239 805.487 115.033 805.487 112.205C805.487 109.378 805.103 107.171 804.337 105.586C803.584 104 802.474 102.884 801.007 102.237C799.554 101.589 797.77 101.265 795.656 101.265H791.772V123.145Z" fill="white"/>
</svg>
