<svg width="726" height="42" viewBox="0 0 726 42" fill="none" xmlns="http://www.w3.org/2000/svg">
<path d="M11.8911 41.1436H-0.000156018L13.3973 0.554797H28.4595L41.857 41.1436H29.9658L21.087 11.7326H20.7699L11.8911 41.1436ZM9.67138 25.13H32.0269V33.3746H9.67138V25.13ZM81.7521 15.7756H70.5743C70.4951 14.8507 70.2837 14.0117 69.9401 13.2586C69.6098 12.5055 69.1474 11.8581 68.5528 11.3164C67.9715 10.7614 67.2646 10.3386 66.4322 10.048C65.5998 9.74408 64.6551 9.59214 63.5981 9.59214C61.7484 9.59214 60.1827 10.0414 58.9011 10.9398C57.6327 11.8383 56.6682 13.1265 56.0076 14.8045C55.3602 16.4824 55.0365 18.4974 55.0365 20.8492C55.0365 23.3331 55.3668 25.4141 56.0274 27.0921C56.7012 28.7568 57.6723 30.012 58.9407 30.8576C60.2091 31.69 61.7352 32.1062 63.5189 32.1062C64.5362 32.1062 65.4479 31.9807 66.2539 31.7297C67.0598 31.4654 67.7601 31.0889 68.3546 30.6C68.9492 30.1111 69.4315 29.5232 69.8014 28.8361C70.1846 28.1359 70.4422 27.3497 70.5743 26.4777L81.7521 26.557C81.62 28.2746 81.1377 30.0252 80.3053 31.8089C79.4729 33.5794 78.2904 35.2178 76.7578 36.724C75.2383 38.217 73.3556 39.4193 71.1094 40.331C68.8633 41.2426 66.2539 41.6985 63.281 41.6985C59.5551 41.6985 56.2124 40.8991 53.2528 39.3004C50.3064 37.7017 47.9744 35.3499 46.2568 32.2449C44.5523 29.14 43.7001 25.3414 43.7001 20.8492C43.7001 16.3305 44.5722 12.5253 46.3162 9.43359C48.0603 6.32865 50.4121 3.98344 53.3717 2.39794C56.3313 0.799228 59.6344 -0.00012744 63.281 -0.00012744C65.8443 -0.00012744 68.2027 0.350003 70.3563 1.05026C72.51 1.75053 74.3994 2.77449 76.0245 4.12217C77.6496 5.45663 78.9577 7.10158 79.9486 9.05703C80.9395 11.0125 81.5407 13.252 81.7521 15.7756ZM124.645 15.7756H113.467C113.388 14.8507 113.176 14.0117 112.833 13.2586C112.503 12.5055 112.04 11.8581 111.446 11.3164C110.864 10.7614 110.157 10.3386 109.325 10.048C108.493 9.74408 107.548 9.59214 106.491 9.59214C104.641 9.59214 103.075 10.0414 101.794 10.9398C100.525 11.8383 99.5609 13.1265 98.9003 14.8045C98.2528 16.4824 97.9291 18.4974 97.9291 20.8492C97.9291 23.3331 98.2594 25.4141 98.9201 27.0921C99.5939 28.7568 100.565 30.012 101.833 30.8576C103.102 31.69 104.628 32.1062 106.412 32.1062C107.429 32.1062 108.341 31.9807 109.147 31.7297C109.952 31.4654 110.653 31.0889 111.247 30.6C111.842 30.1111 112.324 29.5232 112.694 28.8361C113.077 28.1359 113.335 27.3497 113.467 26.4777L124.645 26.557C124.513 28.2746 124.03 30.0252 123.198 31.8089C122.366 33.5794 121.183 35.2178 119.65 36.724C118.131 38.217 116.248 39.4193 114.002 40.331C111.756 41.2426 109.147 41.6985 106.174 41.6985C102.448 41.6985 99.105 40.8991 96.1454 39.3004C93.1991 37.7017 90.8671 35.3499 89.1494 32.2449C87.445 29.14 86.5928 25.3414 86.5928 20.8492C86.5928 16.3305 87.4648 12.5253 89.2089 9.43359C90.9529 6.32865 93.3048 3.98344 96.2644 2.39794C99.224 0.799228 102.527 -0.00012744 106.174 -0.00012744C108.737 -0.00012744 111.095 0.350003 113.249 1.05026C115.403 1.75053 117.292 2.77449 118.917 4.12217C120.542 5.45663 121.85 7.10158 122.841 9.05703C123.832 11.0125 124.433 13.252 124.645 15.7756ZM168.964 20.8492C168.964 25.3678 168.086 29.1796 166.329 32.2846C164.571 35.3763 162.2 37.7215 159.214 39.3202C156.228 40.9057 152.898 41.6985 149.225 41.6985C145.525 41.6985 142.183 40.8991 139.197 39.3004C136.224 37.6885 133.859 35.3367 132.102 32.2449C130.358 29.14 129.486 25.3414 129.486 20.8492C129.486 16.3305 130.358 12.5253 132.102 9.43359C133.859 6.32865 136.224 3.98344 139.197 2.39794C142.183 0.799228 145.525 -0.00012744 149.225 -0.00012744C152.898 -0.00012744 156.228 0.799228 159.214 2.39794C162.2 3.98344 164.571 6.32865 166.329 9.43359C168.086 12.5253 168.964 16.3305 168.964 20.8492ZM157.628 20.8492C157.628 18.4181 157.304 16.3701 156.657 14.7054C156.023 13.0274 155.078 11.759 153.823 10.9002C152.581 10.0281 151.048 9.59214 149.225 9.59214C147.402 9.59214 145.862 10.0281 144.607 10.9002C143.365 11.759 142.421 13.0274 141.773 14.7054C141.139 16.3701 140.822 18.4181 140.822 20.8492C140.822 23.2803 141.139 25.3348 141.773 27.0128C142.421 28.6776 143.365 29.946 144.607 30.818C145.862 31.6768 147.402 32.1062 149.225 32.1062C151.048 32.1062 152.581 31.6768 153.823 30.818C155.078 29.946 156.023 28.6776 156.657 27.0128C157.304 25.3348 157.628 23.2803 157.628 20.8492ZM198.083 0.554797H209.102V26.557C209.102 29.6487 208.362 32.3242 206.883 34.5836C205.416 36.8297 203.368 38.5671 200.739 39.7959C198.11 41.0114 195.057 41.6192 191.583 41.6192C188.081 41.6192 185.016 41.0114 182.387 39.7959C179.757 38.5671 177.709 36.8297 176.243 34.5836C174.789 32.3242 174.063 29.6487 174.063 26.557V0.554797H185.082V25.6057C185.082 26.8609 185.359 27.9839 185.914 28.9749C186.469 29.9526 187.236 30.7189 188.213 31.2738C189.204 31.8288 190.327 32.1062 191.583 32.1062C192.851 32.1062 193.974 31.8288 194.952 31.2738C195.929 30.7189 196.696 29.9526 197.251 28.9749C197.806 27.9839 198.083 26.8609 198.083 25.6057V0.554797ZM249.458 0.554797V41.1436H240.262L225.596 19.8186H225.359V41.1436H214.339V0.554797H223.694L238.122 21.8005H238.439V0.554797H249.458ZM253.561 9.43359V0.554797H288.838V9.43359H276.63V41.1436H265.769V9.43359H253.561ZM304.103 41.1436V0.554797H321.702C324.794 0.554797 327.39 0.970991 329.491 1.80338C331.605 2.63576 333.197 3.81167 334.267 5.33111C335.351 6.85055 335.893 8.64084 335.893 10.702C335.893 12.195 335.562 13.5559 334.902 14.7846C334.254 16.0134 333.343 17.044 332.167 17.8764C330.991 18.6955 329.617 19.2637 328.044 19.5808V19.9772C329.788 20.0432 331.374 20.4858 332.801 21.305C334.228 22.111 335.364 23.2274 336.21 24.6544C337.055 26.0681 337.478 27.7329 337.478 29.6487C337.478 31.8684 336.897 33.8437 335.734 35.5745C334.585 37.3053 332.946 38.6662 330.819 39.6572C328.692 40.6481 326.155 41.1436 323.209 41.1436H304.103ZM315.123 32.344H320.275C322.125 32.344 323.513 32.0005 324.437 31.3135C325.362 30.6132 325.825 29.5826 325.825 28.2217C325.825 27.2704 325.607 26.4645 325.171 25.8039C324.735 25.1432 324.114 24.6412 323.308 24.2976C322.515 23.9541 321.557 23.7823 320.434 23.7823H315.123V32.344ZM315.123 16.9647H319.641C320.606 16.9647 321.458 16.8128 322.198 16.5089C322.938 16.205 323.513 15.769 323.922 15.2008C324.345 14.6195 324.556 13.9126 324.556 13.0802C324.556 11.825 324.107 10.8671 323.209 10.2065C322.31 9.53268 321.174 9.19576 319.8 9.19576H315.123V16.9647ZM351.926 41.1436H340.035L353.432 0.554797H368.494L381.892 41.1436H370.001L361.122 11.7326H360.805L351.926 41.1436ZM349.706 25.13H372.062V33.3746H349.706V25.13ZM406.1 13.2388C405.995 11.9175 405.499 10.887 404.614 10.1471C403.742 9.40716 402.414 9.03721 400.631 9.03721C399.494 9.03721 398.563 9.17594 397.836 9.45341C397.123 9.71766 396.594 10.081 396.251 10.5434C395.907 11.0059 395.729 11.5344 395.715 12.1289C395.689 12.6178 395.775 13.0604 395.973 13.4568C396.185 13.84 396.515 14.1901 396.964 14.5072C397.413 14.8111 397.988 15.0885 398.688 15.3396C399.389 15.5906 400.221 15.8152 401.185 16.0134L404.515 16.7269C406.761 17.2025 408.684 17.8301 410.282 18.6097C411.881 19.3892 413.189 20.3075 414.206 21.3645C415.224 22.4082 415.97 23.5842 416.446 24.8922C416.935 26.2002 417.186 27.6272 417.199 29.173C417.186 31.842 416.519 34.1013 415.197 35.951C413.876 37.8008 411.987 39.2079 409.529 40.1724C407.085 41.1369 404.145 41.6192 400.71 41.6192C397.182 41.6192 394.104 41.0973 391.474 40.0535C388.858 39.0097 386.823 37.4044 385.37 35.2376C383.93 33.0575 383.203 30.2697 383.19 26.8741H393.654C393.72 28.116 394.031 29.1598 394.586 30.0054C395.141 30.851 395.92 31.4918 396.924 31.9278C397.942 32.3639 399.151 32.5819 400.551 32.5819C401.727 32.5819 402.711 32.4365 403.504 32.1459C404.297 31.8552 404.898 31.4522 405.308 30.9369C405.717 30.4216 405.929 29.8337 405.942 29.173C405.929 28.5521 405.724 28.0103 405.328 27.5479C404.944 27.0723 404.31 26.6495 403.425 26.2795C402.54 25.8963 401.344 25.5396 399.838 25.2093L395.795 24.3373C392.201 23.5577 389.367 22.2563 387.292 20.433C385.231 18.5964 384.207 16.0927 384.221 12.9217C384.207 10.3452 384.894 8.09252 386.282 6.1635C387.682 4.22126 389.618 2.70843 392.089 1.62501C394.573 0.541584 397.42 -0.00012744 400.631 -0.00012744C403.907 -0.00012744 406.741 0.548191 409.133 1.64483C411.524 2.74146 413.367 4.28733 414.662 6.28241C415.97 8.26428 416.631 10.5831 416.644 13.2388H406.1ZM421.391 41.1436V0.554797H450.643V9.43359H432.41V16.4098H449.137V25.2886H432.41V32.2648H450.564V41.1436H421.391ZM493.585 13.9523C493.414 13.252 493.143 12.6376 492.773 12.1091C492.403 11.5674 491.94 11.1116 491.385 10.7416C490.844 10.3585 490.209 10.0744 489.483 9.88942C488.769 9.69123 487.983 9.59214 487.124 9.59214C485.275 9.59214 483.696 10.0348 482.388 10.92C481.093 11.8052 480.102 13.0802 479.415 14.745C478.741 16.4098 478.404 18.4181 478.404 20.7699C478.404 23.1481 478.728 25.1829 479.375 26.8741C480.023 28.5653 480.987 29.8601 482.269 30.7585C483.55 31.657 485.142 32.1062 487.045 32.1062C488.723 32.1062 490.117 31.8618 491.227 31.3729C492.35 30.8841 493.189 30.1904 493.744 29.292C494.299 28.3935 494.576 27.3365 494.576 26.121L496.479 26.3191H487.204V18.4709H505.199V24.0994C505.199 27.7989 504.413 30.9633 502.841 33.5926C501.282 36.2087 499.128 38.217 496.38 39.6175C493.645 41.0048 490.507 41.6985 486.966 41.6985C483.015 41.6985 479.547 40.8595 476.561 39.1815C473.575 37.5035 471.243 35.1121 469.565 32.0071C467.9 28.9022 467.068 25.2093 467.068 20.9285C467.068 17.5725 467.576 14.5997 468.594 12.01C469.624 9.42038 471.051 7.23371 472.875 5.45002C474.698 3.65313 476.805 2.29885 479.197 1.38718C481.588 0.462309 484.152 -0.00012744 486.887 -0.00012744C489.291 -0.00012744 491.524 0.343398 493.585 1.03045C495.66 1.70428 497.49 2.66879 499.075 3.92398C500.674 5.16595 501.962 6.63915 502.94 8.34356C503.917 10.048 504.512 11.9175 504.723 13.9523H493.585ZM510.337 41.1436V0.554797H527.857C530.869 0.554797 533.505 1.10312 535.764 2.19975C538.024 3.29639 539.781 4.87528 541.036 6.93643C542.291 8.99758 542.919 11.4683 542.919 14.3486C542.919 17.2554 542.272 19.7063 540.977 21.7014C539.695 23.6965 537.892 25.2027 535.566 26.2201C533.254 27.2374 530.552 27.7461 527.46 27.7461H516.996V19.1844H525.241C526.536 19.1844 527.639 19.0259 528.55 18.7088C529.475 18.3784 530.182 17.8565 530.671 17.1431C531.173 16.4296 531.424 15.4981 531.424 14.3486C531.424 13.1859 531.173 12.2412 530.671 11.5146C530.182 10.7747 529.475 10.2329 528.55 9.88942C527.639 9.53268 526.536 9.35431 525.241 9.35431H521.356V41.1436H510.337ZM534.12 22.5139L544.267 41.1436H532.296L522.387 22.5139H534.12ZM586.936 20.8492C586.936 25.3678 586.058 29.1796 584.301 32.2846C582.543 35.3763 580.172 37.7215 577.186 39.3202C574.2 40.9057 570.87 41.6985 567.197 41.6985C563.497 41.6985 560.155 40.8991 557.169 39.3004C554.196 37.6885 551.831 35.3367 550.074 32.2449C548.33 29.14 547.458 25.3414 547.458 20.8492C547.458 16.3305 548.33 12.5253 550.074 9.43359C551.831 6.32865 554.196 3.98344 557.169 2.39794C560.155 0.799228 563.497 -0.00012744 567.197 -0.00012744C570.87 -0.00012744 574.2 0.799228 577.186 2.39794C580.172 3.98344 582.543 6.32865 584.301 9.43359C586.058 12.5253 586.936 16.3305 586.936 20.8492ZM575.6 20.8492C575.6 18.4181 575.276 16.3701 574.629 14.7054C573.995 13.0274 573.05 11.759 571.795 10.9002C570.553 10.0281 569.02 9.59214 567.197 9.59214C565.374 9.59214 563.834 10.0281 562.579 10.9002C561.337 11.759 560.393 13.0274 559.745 14.7054C559.111 16.3701 558.794 18.4181 558.794 20.8492C558.794 23.2803 559.111 25.3348 559.745 27.0128C560.393 28.6776 561.337 29.946 562.579 30.818C563.834 31.6768 565.374 32.1062 567.197 32.1062C569.02 32.1062 570.553 31.6768 571.795 30.818C573.05 29.946 573.995 28.6776 574.629 27.0128C575.276 25.3348 575.6 23.2803 575.6 20.8492ZM599.779 41.1436L587.808 0.554797H600.096L605.645 25.5264H605.962L612.542 0.554797H622.214L628.794 25.6057H629.111L634.66 0.554797H646.948L634.977 41.1436H624.433L617.537 18.4709H617.219L610.323 41.1436H599.779ZM649.405 9.43359V0.554797H684.682V9.43359H672.474V41.1436H661.613V9.43359H649.405ZM688.83 41.1436V0.554797H699.849V16.4098H714.435V0.554797H725.455V41.1436H714.435V25.2886H699.849V41.1436H688.83Z" fill="#02B873"/>
</svg>
