<svg width="342" height="44" viewBox="0 0 342 44" fill="none" xmlns="http://www.w3.org/2000/svg">
<rect x="0.440918" y="0.0400391" width="341" height="43.63" rx="21.815" fill="#55CCD0"/>
<path d="M97.1109 31.3555H92.0667L98.6184 11.9373H104.867L111.419 31.3555H106.374L101.814 16.8298H101.662L97.1109 31.3555ZM96.4377 23.7134H106.981V27.2784H96.4377V23.7134ZM113.509 31.3555V11.9373H118.203V27.5439H126.281V31.3555H113.509ZM140.458 11.9373H145.142V24.4624C145.142 25.9099 144.797 27.171 144.108 28.2455C143.419 29.3138 142.459 30.1418 141.226 30.7297C139.993 31.3112 138.562 31.602 136.931 31.602C135.281 31.602 133.84 31.3112 132.607 30.7297C131.375 30.1418 130.417 29.3138 129.734 28.2455C129.052 27.171 128.71 25.9099 128.71 24.4624V11.9373H133.404V24.0547C133.404 24.7247 133.549 25.3221 133.84 25.8467C134.137 26.3713 134.551 26.7822 135.082 27.0793C135.613 27.3764 136.229 27.5249 136.931 27.5249C137.633 27.5249 138.246 27.3764 138.77 27.0793C139.301 26.7822 139.715 26.3713 140.012 25.8467C140.31 25.3221 140.458 24.7247 140.458 24.0547V11.9373ZM148.084 11.9373H153.896L158.826 23.9599H159.054L163.984 11.9373H169.796V31.3555H165.226V19.4277H165.065L160.4 31.2322H157.48L152.815 19.3613H152.654V31.3555H148.084V11.9373ZM177.417 11.9373V31.3555H172.724V11.9373H177.417ZM196.89 11.9373V31.3555H192.908L185.18 20.1483H185.057V31.3555H180.363V11.9373H184.403L192.045 23.1255H192.206V11.9373H196.89ZM204.534 11.9373V31.3555H199.841V11.9373H204.534ZM219.228 11.9373H223.912V24.4624C223.912 25.9099 223.568 27.171 222.879 28.2455C222.19 29.3138 221.229 30.1418 219.996 30.7297C218.764 31.3112 217.332 31.602 215.701 31.602C214.051 31.602 212.61 31.3112 211.378 30.7297C210.145 30.1418 209.187 29.3138 208.505 28.2455C207.822 27.171 207.481 25.9099 207.481 24.4624V11.9373H212.174V24.0547C212.174 24.7247 212.319 25.3221 212.61 25.8467C212.907 26.3713 213.321 26.7822 213.852 27.0793C214.383 27.3764 215 27.5249 215.701 27.5249C216.403 27.5249 217.016 27.3764 217.541 27.0793C218.072 26.7822 218.486 26.3713 218.783 25.8467C219.08 25.3221 219.228 24.7247 219.228 24.0547V11.9373ZM226.854 11.9373H232.666L237.596 23.9599H237.824L242.754 11.9373H248.567V31.3555H243.996V19.4277H243.835L239.17 31.2322H236.25L231.585 19.3613H231.424V31.3555H226.854V11.9373Z" fill="white"/>
</svg>
