<svg width="342" height="44" viewBox="0 0 342 44" fill="none" xmlns="http://www.w3.org/2000/svg">
<rect x="0.151855" y="0.107422" width="341" height="43.63" rx="21.815" fill="#02B873"/>
<path d="M23.8218 31.4229H18.7776L25.3294 12.0047H31.5777L38.1294 31.4229H33.0853L28.5247 16.8971H28.3729L23.8218 31.4229ZM23.1486 23.7807H33.6921V27.3458H23.1486V23.7807ZM40.2201 31.4229V12.0047H44.9135V27.6113H52.9918V31.4229H40.2201ZM67.169 12.0047H71.8529V24.5298C71.8529 25.9773 71.5084 27.2383 70.8194 28.3129C70.1304 29.3812 69.1696 30.2092 67.937 30.7971C66.7044 31.3786 65.2727 31.6694 63.6419 31.6694C61.9921 31.6694 60.5509 31.3786 59.3183 30.7971C58.0857 30.2092 57.1281 29.3812 56.4454 28.3129C55.7627 27.2383 55.4214 25.9773 55.4214 24.5298V12.0047H60.1148V24.1221C60.1148 24.7921 60.2601 25.3894 60.5509 25.9141C60.848 26.4387 61.262 26.8496 61.793 27.1467C62.324 27.4438 62.9403 27.5923 63.6419 27.5923C64.3435 27.5923 64.9567 27.4438 65.4813 27.1467C66.0123 26.8496 66.4263 26.4387 66.7234 25.9141C67.0205 25.3894 67.169 24.7921 67.169 24.1221V12.0047ZM74.7945 12.0047H80.6067L85.5371 24.0273H85.7647L90.6951 12.0047H96.5073V31.4229H91.9372V19.4951H91.776L87.1111 31.2996H84.1907L79.5258 19.4287H79.3646V31.4229H74.7945V12.0047ZM104.128 12.0047V31.4229H99.4347V12.0047H104.128ZM123.601 12.0047V31.4229H119.618L111.891 20.2157H111.768V31.4229H107.074V12.0047H111.114L118.756 23.1929H118.917V12.0047H123.601ZM131.245 12.0047V31.4229H126.552V12.0047H131.245ZM145.939 12.0047H150.623V24.5298C150.623 25.9773 150.279 27.2383 149.59 28.3129C148.901 29.3812 147.94 30.2092 146.707 30.7971C145.475 31.3786 144.043 31.6694 142.412 31.6694C140.762 31.6694 139.321 31.3786 138.089 30.7971C136.856 30.2092 135.898 29.3812 135.216 28.3129C134.533 27.2383 134.192 25.9773 134.192 24.5298V12.0047H138.885V24.1221C138.885 24.7921 139.03 25.3894 139.321 25.9141C139.618 26.4387 140.032 26.8496 140.563 27.1467C141.094 27.4438 141.71 27.5923 142.412 27.5923C143.114 27.5923 143.727 27.4438 144.252 27.1467C144.782 26.8496 145.197 26.4387 145.494 25.9141C145.791 25.3894 145.939 24.7921 145.939 24.1221V12.0047ZM153.565 12.0047H159.377L164.307 24.0273H164.535L169.465 12.0047H175.277V31.4229H170.707V19.4951H170.546L165.881 31.2996H162.961L158.296 19.4287H158.135V31.4229H153.565V12.0047ZM190.047 31.7168C188.682 31.7168 187.503 31.4734 186.511 30.9867C185.525 30.5 184.766 29.8458 184.235 29.024C183.704 28.196 183.439 27.2763 183.439 26.2649C183.439 25.519 183.584 24.8616 183.875 24.2927C184.172 23.7175 184.58 23.1897 185.098 22.7093C185.623 22.2226 186.233 21.7454 186.928 21.2776L191.005 18.6702C191.466 18.3794 191.792 18.0729 191.982 17.7505C192.178 17.4281 192.275 17.1057 192.275 16.7834C192.275 16.4357 192.14 16.1197 191.868 15.8352C191.602 15.5508 191.207 15.4117 190.683 15.418C190.348 15.418 190.057 15.4876 189.81 15.6266C189.564 15.7657 189.371 15.9521 189.232 16.186C189.099 16.4199 189.033 16.6854 189.033 16.9825C189.033 17.3681 189.143 17.7631 189.365 18.1677C189.586 18.5722 189.883 19.002 190.256 19.4572C190.635 19.9123 191.056 20.4148 191.517 20.9647L200.818 31.4229H196.097L188.312 22.9748C187.87 22.4818 187.405 21.9287 186.918 21.3155C186.432 20.7024 186.021 20.0324 185.686 19.3055C185.351 18.5722 185.183 17.7758 185.183 16.9161C185.183 15.949 185.411 15.0735 185.866 14.2897C186.321 13.5059 186.96 12.8833 187.781 12.4219C188.609 11.9541 189.573 11.7202 190.673 11.7202C191.735 11.7202 192.652 11.9383 193.423 12.3744C194.194 12.8106 194.788 13.389 195.205 14.1096C195.622 14.8302 195.831 15.6203 195.831 16.48C195.831 17.3902 195.607 18.2277 195.158 18.9926C194.709 19.7511 194.074 20.4243 193.252 21.0121L189.26 23.8661C188.837 24.1695 188.505 24.495 188.265 24.8427C188.025 25.184 187.905 25.5569 187.905 25.9615C187.905 26.3787 188.002 26.7421 188.198 27.0519C188.401 27.3616 188.685 27.605 189.052 27.7819C189.418 27.9589 189.848 28.0474 190.341 28.0474C190.999 28.0474 191.656 27.8926 192.313 27.5828C192.971 27.2668 193.571 26.8243 194.115 26.2554C194.659 25.6802 195.095 25.0007 195.423 24.2169C195.752 23.4268 195.916 22.5608 195.916 21.6189H199.652C199.652 22.782 199.529 23.8629 199.282 24.8616C199.036 25.854 198.666 26.7453 198.173 27.5354C197.686 28.3192 197.083 28.9703 196.362 29.4886C196.134 29.615 195.913 29.7351 195.698 29.8489C195.483 29.9627 195.262 30.0828 195.035 30.2092C194.289 30.7465 193.48 31.1321 192.607 31.366C191.741 31.5998 190.888 31.7168 190.047 31.7168ZM207.982 31.4229V12.0047H216.003C217.457 12.0047 218.712 12.2891 219.767 12.858C220.829 13.4206 221.648 14.2075 222.223 15.2189C222.798 16.224 223.086 17.3933 223.086 18.7271C223.086 20.0671 222.792 21.2397 222.204 22.2447C221.622 23.2434 220.791 24.0178 219.71 24.5677C218.629 25.1176 217.346 25.3926 215.861 25.3926H210.911V21.6948H214.989C215.696 21.6948 216.287 21.5715 216.762 21.325C217.242 21.0785 217.605 20.734 217.852 20.2915C218.098 19.8427 218.222 19.3213 218.222 18.7271C218.222 18.1266 218.098 17.6083 217.852 17.1721C217.605 16.7296 217.242 16.3883 216.762 16.1481C216.281 15.9079 215.69 15.7878 214.989 15.7878H212.675V31.4229H207.982ZM225.399 31.4229V12.0047H230.093V27.6113H238.171V31.4229H225.399ZM245.062 31.4229H240.017L246.569 12.0047H252.817L259.369 31.4229H254.325L249.764 16.8971H249.613L245.062 31.4229ZM244.388 23.7807H254.932V27.3458H244.388V23.7807ZM271.356 17.8263C271.293 17.131 271.012 16.5906 270.512 16.205C270.019 15.8131 269.315 15.6171 268.398 15.6171C267.791 15.6171 267.285 15.6961 266.881 15.8542C266.476 16.0122 266.173 16.2303 265.971 16.5084C265.768 16.7802 265.664 17.0931 265.658 17.4471C265.645 17.7378 265.702 17.9938 265.828 18.2151C265.961 18.4363 266.151 18.6323 266.397 18.8029C266.65 18.9673 266.954 19.1127 267.308 19.2391C267.662 19.3655 268.06 19.4761 268.502 19.5709L270.171 19.9502C271.132 20.1588 271.979 20.4369 272.712 20.7846C273.452 21.1322 274.071 21.5463 274.57 22.0267C275.076 22.507 275.459 23.0601 275.718 23.6859C275.977 24.3117 276.11 25.0133 276.116 25.7908C276.11 27.0171 275.8 28.0695 275.187 28.9482C274.574 29.8268 273.692 30.5 272.541 30.9677C271.397 31.4355 270.016 31.6694 268.398 31.6694C266.773 31.6694 265.358 31.426 264.15 30.9393C262.943 30.4526 262.004 29.713 261.334 28.7206C260.664 27.7282 260.32 26.4735 260.301 24.9564H264.795C264.833 25.5822 265 26.1037 265.298 26.5209C265.595 26.9381 266.002 27.2541 266.521 27.4691C267.045 27.684 267.652 27.7914 268.341 27.7914C268.973 27.7914 269.51 27.7061 269.953 27.5354C270.402 27.3648 270.746 27.1277 270.986 26.8243C271.227 26.5209 271.35 26.1732 271.356 25.7813C271.35 25.4147 271.236 25.1018 271.015 24.8427C270.794 24.5772 270.452 24.3496 269.991 24.16C269.536 23.964 268.954 23.7839 268.246 23.6195L266.217 23.1455C264.536 22.7599 263.212 22.1373 262.244 21.2776C261.277 20.4116 260.797 19.2422 260.803 17.7694C260.797 16.5684 261.119 15.516 261.77 14.6121C262.421 13.7082 263.322 13.0034 264.473 12.4977C265.623 11.992 266.935 11.7392 268.407 11.7392C269.912 11.7392 271.217 11.9952 272.323 12.5072C273.436 13.0129 274.299 13.724 274.912 14.6405C275.525 15.5571 275.838 16.619 275.85 17.8263H271.356ZM277.851 15.8162V12.0047H294.264V15.8162H288.376V31.4229H283.749V15.8162H277.851ZM301.249 12.0047V31.4229H296.556V12.0047H301.249ZM321.822 19.04H317.081C317.018 18.5532 316.888 18.1139 316.692 17.722C316.496 17.3301 316.237 16.9951 315.915 16.717C315.592 16.4389 315.21 16.2271 314.767 16.0817C314.331 15.93 313.848 15.8542 313.317 15.8542C312.375 15.8542 311.563 16.0849 310.88 16.5463C310.204 17.0078 309.682 17.6746 309.316 18.5469C308.955 19.4192 308.775 20.4748 308.775 21.7138C308.775 23.0032 308.958 24.0841 309.325 24.9564C309.698 25.8224 310.219 26.4767 310.889 26.9191C311.566 27.3553 312.365 27.5733 313.288 27.5733C313.807 27.5733 314.278 27.507 314.701 27.3742C315.131 27.2415 315.507 27.0487 315.829 26.7959C316.158 26.5367 316.427 26.2238 316.635 25.8572C316.85 25.4843 316.999 25.0639 317.081 24.5961L321.822 24.6246C321.74 25.4843 321.49 26.3313 321.073 27.1656C320.662 28 320.096 28.7617 319.375 29.4507C318.655 30.1334 317.776 30.677 316.74 31.0815C315.709 31.4861 314.527 31.6883 313.194 31.6883C311.436 31.6883 309.862 31.3028 308.472 30.5316C307.087 29.7541 305.994 28.6226 305.191 27.1372C304.388 25.6518 303.987 23.8439 303.987 21.7138C303.987 19.5773 304.395 17.7663 305.21 16.2808C306.025 14.7954 307.128 13.6671 308.519 12.8959C309.91 12.1248 311.468 11.7392 313.194 11.7392C314.369 11.7392 315.456 11.9035 316.455 12.2322C317.454 12.5546 318.332 13.0287 319.091 13.6545C319.85 14.2739 320.466 15.0356 320.94 15.9395C321.414 16.8434 321.708 17.8769 321.822 19.04Z" fill="white"/>
</svg>
