<svg width="308" height="129" viewBox="0 0 308 129" fill="none" xmlns="http://www.w3.org/2000/svg">
<rect x="0.151855" y="0.768555" width="307" height="128" rx="15" fill="#02B873"/>
<path d="M60.3941 57.7686H51.4857L61.5225 27.3613H72.8064L82.8432 57.7686H73.9348L67.2832 35.7352H67.0457L60.3941 57.7686ZM58.7312 45.7719H75.479V51.9484H58.7312V45.7719ZM89.6767 27.3613L95.9126 48.8008H96.1501L102.386 27.3613H111.71L101.673 57.7686H90.3894L80.3526 27.3613H89.6767ZM114.639 57.7686V27.3613H136.553V34.0129H122.894V39.2391H135.425V45.8907H122.894V51.117H136.494V57.7686H114.639ZM140.647 57.7686V27.3613H153.772C156.029 27.3613 158.004 27.7721 159.697 28.5936C161.389 29.4152 162.706 30.598 163.646 32.1421C164.586 33.6862 165.056 35.5372 165.056 37.695C165.056 39.8726 164.571 41.7087 163.601 43.2034C162.641 44.698 161.29 45.8264 159.548 46.5885C157.816 47.3507 155.792 47.7318 153.476 47.7318H145.636V41.3177H151.813C152.783 41.3177 153.609 41.199 154.292 40.9614C154.985 40.714 155.515 40.323 155.881 39.7885C156.257 39.254 156.445 38.5561 156.445 37.695C156.445 36.824 156.257 36.1162 155.881 35.5718C155.515 35.0175 154.985 34.6117 154.292 34.3544C153.609 34.0871 152.783 33.9535 151.813 33.9535H148.903V57.7686H140.647ZM158.464 43.8121L166.066 57.7686H157.098L149.675 43.8121H158.464ZM176.474 57.7686H167.566L177.602 27.3613H188.886L198.923 57.7686H190.015L183.363 35.7352H183.126L176.474 57.7686ZM174.811 45.7719H191.559V51.9484H174.811V45.7719ZM220.17 37.3981C220.041 36.8735 219.838 36.4132 219.561 36.0173C219.284 35.6114 218.937 35.2699 218.522 34.9928C218.116 34.7057 217.641 34.4929 217.096 34.3544C216.562 34.2059 215.973 34.1316 215.329 34.1316C213.944 34.1316 212.761 34.4632 211.781 35.1264C210.811 35.7896 210.069 36.7448 209.554 37.9919C209.049 39.2391 208.797 40.7436 208.797 42.5055C208.797 44.2872 209.039 45.8115 209.524 47.0785C210.009 48.3455 210.732 49.3155 211.692 49.9886C212.652 50.6616 213.845 50.9982 215.27 50.9982C216.527 50.9982 217.571 50.8151 218.403 50.4488C219.244 50.0826 219.873 49.5629 220.288 48.8899C220.704 48.2168 220.912 47.4249 220.912 46.5143L222.337 46.6628H215.389V40.7832H228.87V44.9999C228.87 47.7714 228.281 50.142 227.103 52.1117C225.935 54.0716 224.322 55.5761 222.263 56.6253C220.214 57.6646 217.863 58.1843 215.211 58.1843C212.251 58.1843 209.653 57.5557 207.416 56.2987C205.179 55.0416 203.432 53.25 202.175 50.9239C200.928 48.5979 200.304 45.8313 200.304 42.6243C200.304 40.1102 200.685 37.8831 201.447 35.943C202.219 34.003 203.288 32.3648 204.654 31.0286C206.02 29.6824 207.599 28.6678 209.39 27.9849C211.182 27.292 213.102 26.9456 215.151 26.9456C216.953 26.9456 218.626 27.2029 220.17 27.7176C221.724 28.2224 223.095 28.945 224.282 29.8853C225.48 30.8158 226.445 31.9194 227.178 33.1963C227.91 34.4731 228.355 35.8737 228.514 37.3981H220.17ZM232.719 57.7686V27.3613H254.634V34.0129H240.974V39.2391H253.506V45.8907H240.974V51.117H254.575V57.7686H232.719ZM65.316 101.769V71.3613H78.441C80.6978 71.3613 82.6725 71.8067 84.3651 72.6975C86.0577 73.5884 87.3741 74.8405 88.3144 76.4539C89.2548 78.0673 89.7249 79.9529 89.7249 82.1107C89.7249 84.2883 89.2399 86.1739 88.2699 87.7675C87.3098 89.3612 85.9587 90.5885 84.2166 91.4497C82.4844 92.3108 80.4602 92.7414 78.144 92.7414H70.3047V86.3274H76.4811C77.4512 86.3274 78.2777 86.1591 78.9606 85.8226C79.6535 85.4761 80.1831 84.9862 80.5493 84.3527C80.9254 83.7192 81.1135 82.9719 81.1135 82.1107C81.1135 81.2397 80.9254 80.4973 80.5493 79.8836C80.1831 79.26 79.6535 78.7849 78.9606 78.4583C78.2777 78.1218 77.4512 77.9535 76.4811 77.9535H73.5711V101.769H65.316ZM92.7538 101.769V71.3613H114.668V78.0129H101.009V83.2391H113.54V89.8907H101.009V95.117H114.609V101.769H92.7538ZM118.763 101.769V71.3613H131.888C134.144 71.3613 136.119 71.7721 137.812 72.5936C139.504 73.4152 140.821 74.598 141.761 76.1421C142.701 77.6862 143.172 79.5372 143.172 81.695C143.172 83.8726 142.686 85.7087 141.716 87.2034C140.756 88.698 139.405 89.8264 137.663 90.5885C135.931 91.3507 133.907 91.7318 131.591 91.7318H123.751V85.3177H129.928C130.898 85.3177 131.724 85.199 132.407 84.9614C133.1 84.714 133.63 84.323 133.996 83.7885C134.372 83.254 134.56 82.5561 134.56 81.695C134.56 80.824 134.372 80.1162 133.996 79.5718C133.63 79.0175 133.1 78.6117 132.407 78.3544C131.724 78.0871 130.898 77.9535 129.928 77.9535H127.018V101.769H118.763ZM136.579 87.8121L144.181 101.769H135.213L127.79 87.8121H136.579ZM166.719 101.769H155.02V71.3613H166.601C169.728 71.3613 172.431 71.97 174.707 73.1875C176.994 74.3951 178.756 76.1372 179.993 78.4137C181.24 80.6804 181.864 83.3975 181.864 86.5649C181.864 89.7323 181.245 92.4543 180.008 94.7309C178.77 96.9976 177.018 98.7397 174.752 99.9572C172.485 101.165 169.808 101.769 166.719 101.769ZM163.275 94.7606H166.422C167.927 94.7606 169.209 94.5181 170.268 94.0331C171.337 93.5481 172.148 92.7117 172.703 91.5239C173.267 90.3361 173.549 88.6831 173.549 86.5649C173.549 84.4467 173.262 82.7937 172.688 81.6059C172.124 80.4181 171.292 79.5817 170.194 79.0967C169.105 78.6117 167.769 78.3692 166.185 78.3692H163.275V94.7606ZM191.663 101.769H182.754L192.791 71.3613H204.075L214.112 101.769H205.204L198.552 79.7352H198.314L191.663 101.769ZM190 89.7719H206.748V95.9484H190V89.7719ZM212.69 71.3613H221.896L227.835 83.7142H228.072L234.011 71.3613H243.216L232.051 92.2069V101.769H223.855V92.2069L212.69 71.3613Z" fill="white"/>
</svg>
