<svg width="231" height="231" viewBox="0 0 231 231" fill="none" xmlns="http://www.w3.org/2000/svg">
<rect width="230.77" height="230.767" rx="15" fill="#02B873"/>
<rect x="46.856" y="113.376" width="63.1387" height="40.1021" stroke="white" stroke-width="5"/>
<path d="M86.6411 94.1538L111.652 94.1538" stroke="white" stroke-width="5.5"/>
<mask id="path-4-inside-1_246_21" fill="white">
<path fill-rule="evenodd" clip-rule="evenodd" d="M65.6493 48.1602C65.6493 45.3551 67.9233 43.0811 70.7284 43.0811H86.121C88.9261 43.0811 91.2001 45.3551 91.2001 48.1602V54.5324C91.2001 55.7895 91.6668 56.9975 92.4981 57.9405C101.878 68.5804 112.494 83.3909 112.494 95.924C112.494 96.027 112.494 96.1299 112.493 96.2326C112.493 96.233 112.494 96.2332 112.494 96.2332V96.2332C112.494 96.2332 112.495 96.2335 112.495 96.2338V196.356C112.495 199.161 110.221 201.435 107.415 201.435H49.4348C46.6297 201.435 44.3557 199.161 44.3557 196.356V96.2336C44.3557 96.2334 44.3559 96.2332 44.3561 96.2332V96.2332C44.3563 96.2332 44.3564 96.2331 44.3564 96.2329C44.3558 96.13 44.3555 96.0271 44.3555 95.924C44.3555 83.391 54.9713 68.5808 64.3513 57.9409C65.1826 56.9979 65.6493 55.7899 65.6493 54.5328V48.1602Z"/>
</mask>
<path d="M44.3564 96.2329L49.8563 96.1986L44.3564 96.2329ZM112.493 96.2326L106.993 96.1985L106.993 96.1985L112.493 96.2326ZM86.121 37.5811H70.7284V48.5811H86.121V37.5811ZM96.7001 54.5324V48.1602H85.7001V54.5324H96.7001ZM88.3724 61.5776C92.9325 66.7501 97.6779 72.8109 101.256 78.9812C104.891 85.2514 106.994 91.0815 106.994 95.924H117.994C117.994 88.2334 114.789 80.3916 110.772 73.4634C106.696 66.4352 101.444 59.7708 96.6238 54.3033L88.3724 61.5776ZM106.994 95.924C106.994 96.0156 106.994 96.1071 106.993 96.1985L117.993 96.2668C117.994 96.1526 117.994 96.0383 117.994 95.924H106.994ZM117.995 196.356V96.2338H106.995V196.356H117.995ZM49.4348 206.935H107.415V195.935H49.4348V206.935ZM38.8557 96.2336V196.356H49.8557V96.2336H38.8557ZM49.8563 96.1986C49.8558 96.1071 49.8555 96.0156 49.8555 95.924H38.8555C38.8555 96.0385 38.8558 96.1529 38.8565 96.2672L49.8563 96.1986ZM49.8555 95.924C49.8555 91.0815 51.9582 85.2516 55.5939 78.9814C59.1716 72.8112 63.917 66.7505 68.477 61.578L60.2256 54.3037C55.4056 59.7712 50.1531 66.4355 46.0779 73.4636C42.0606 80.3918 38.8555 88.2335 38.8555 95.924H49.8555ZM60.1493 48.1602V54.5328H71.1493V48.1602H60.1493ZM44.3561 101.733C47.4071 101.733 49.8754 99.2499 49.8563 96.1986L38.8565 96.2672C38.8375 93.2163 41.3055 90.7332 44.3561 90.7332V101.733ZM49.8557 96.2336C49.8557 99.271 47.3934 101.733 44.3561 101.733V90.7332C41.3183 90.7332 38.8557 93.1958 38.8557 96.2336H49.8557ZM49.4348 195.935C49.6673 195.935 49.8557 196.123 49.8557 196.356H38.8557C38.8557 202.198 43.5921 206.935 49.4348 206.935V195.935ZM106.995 196.356C106.995 196.123 107.183 195.935 107.415 195.935V206.935C113.258 206.935 117.995 202.198 117.995 196.356H106.995ZM106.993 96.1985C106.974 99.2496 109.443 101.733 112.494 101.733V90.7332C115.545 90.7332 118.012 93.2164 117.993 96.2668L106.993 96.1985ZM85.7001 54.5324C85.7001 57.159 86.6756 59.6529 88.3724 61.5776L96.6238 54.3033C96.6579 54.3421 96.7001 54.4201 96.7001 54.5324H85.7001ZM70.7284 37.5811C64.8857 37.5811 60.1493 42.3175 60.1493 48.1602H71.1493C71.1493 48.3926 70.9609 48.5811 70.7284 48.5811V37.5811ZM112.494 101.733C109.473 101.733 106.995 99.2872 106.995 96.2338H117.995C117.995 93.1798 115.516 90.7332 112.494 90.7332V101.733ZM68.477 61.578C70.1738 59.6533 71.1493 57.1593 71.1493 54.5328H60.1493C60.1493 54.4205 60.1915 54.3425 60.2256 54.3037L68.477 61.578ZM86.121 48.5811C85.8885 48.5811 85.7001 48.3926 85.7001 48.1602H96.7001C96.7001 42.3175 91.9637 37.5811 86.121 37.5811V48.5811Z" fill="white" mask="url(#path-4-inside-1_246_21)"/>
<mask id="path-6-inside-2_246_21" fill="white">
<rect x="59.6953" y="29.3325" width="36.6096" height="19.0387" rx="3.04748"/>
</mask>
<rect x="59.6953" y="29.3325" width="36.6096" height="19.0387" rx="3.04748" fill="#02B873" stroke="white" stroke-width="11" mask="url(#path-6-inside-2_246_21)"/>
<path d="M180.712 88.893C180.593 88.6378 180.419 88.4255 180.224 88.2362V84.2585C180.224 81.7537 178.187 79.7168 175.682 79.7168H133.214C130.709 79.7168 128.672 81.7537 128.672 84.2585V88.2351C128.476 88.4247 128.302 88.6373 128.183 88.893L123.753 98.4143C122.922 100.202 122.481 102.189 122.481 104.161V181.168C122.481 183.698 123.342 186.189 124.904 188.178L128.456 192.702C128.465 192.714 128.481 192.718 128.491 192.731L130.719 199.929C131.041 200.831 131.897 201.434 132.857 201.434H176.039C176.998 201.434 177.854 200.831 178.177 199.929L180.404 192.732C180.414 192.719 180.431 192.715 180.441 192.702L183.991 188.178C185.554 186.189 186.414 183.698 186.414 181.17V104.161C186.414 102.192 185.974 100.205 185.142 98.4143L180.712 88.893ZM133.214 84.2585H175.682V87.5802H133.214V84.2585ZM174.439 196.893H134.457L133.617 193.576H175.278L174.439 196.893ZM181.873 181.17C181.873 182.687 181.356 184.18 180.419 185.375L177.55 189.029H131.346L128.477 185.375C127.54 184.18 127.023 182.687 127.023 181.168V173.504H181.873V181.17ZM181.873 168.962H127.023V112.191H181.873V168.962ZM181.873 107.65H127.023V104.161C127.023 102.846 127.316 101.522 127.871 100.33L131.69 92.1218H177.204L181.024 100.329C181.579 101.523 181.873 102.848 181.873 104.161V107.65Z" fill="white" stroke="white" stroke-width="0.3"/>
</svg>
