<svg width="1165" height="166" viewBox="0 0 1165 166" fill="none" xmlns="http://www.w3.org/2000/svg">
<path d="M37.7349 24.4112V65H28.539L13.8731 43.675H13.6353V65H2.61607V24.4112H11.9705L26.3985 45.6569H26.7156V24.4112H37.7349ZM66.9675 24.4112H77.9867V50.4134C77.9867 53.5051 77.2468 56.1807 75.767 58.44C74.3004 60.6861 72.2525 62.4236 69.6232 63.6523C66.9939 64.8679 63.9418 65.4756 60.4669 65.4756C56.9656 65.4756 53.9003 64.8679 51.2711 63.6523C48.6418 62.4236 46.5938 60.6861 45.1272 58.44C43.6739 56.1807 42.9472 53.5051 42.9472 50.4134V24.4112H53.9664V49.4621C53.9664 50.7173 54.2439 51.8404 54.7988 52.8313C55.3537 53.809 56.12 54.5753 57.0978 55.1303C58.0887 55.6852 59.2118 55.9627 60.4669 55.9627C61.7353 55.9627 62.8584 55.6852 63.8361 55.1303C64.8138 54.5753 65.5802 53.809 66.1351 52.8313C66.69 51.8404 66.9675 50.7173 66.9675 49.4621V24.4112ZM83.2238 24.4112H96.9384L106.372 47.401H106.848L116.281 24.4112H129.996V65H119.215V41.5346H118.898L109.86 64.6829H103.36L94.3223 41.3761H94.0052V65H83.2238V24.4112ZM135.218 65V24.4112H152.817C155.909 24.4112 158.505 24.8274 160.606 25.6598C162.72 26.4922 164.312 27.6681 165.382 29.1876C166.466 30.707 167.007 32.4973 167.007 34.5584C167.007 36.0514 166.677 37.4123 166.017 38.6411C165.369 39.8699 164.457 40.9004 163.282 41.7328C162.106 42.552 160.732 43.1201 159.159 43.4372V43.8336C160.903 43.8997 162.489 44.3423 163.916 45.1615C165.343 45.9674 166.479 47.0839 167.325 48.5108C168.17 49.9246 168.593 51.5893 168.593 53.5051C168.593 55.7248 168.012 57.7001 166.849 59.4309C165.699 61.1618 164.061 62.5227 161.934 63.5136C159.807 64.5045 157.27 65 154.323 65H135.218ZM146.237 56.2005H151.39C153.24 56.2005 154.627 55.857 155.552 55.1699C156.477 54.4696 156.94 53.4391 156.94 52.0782C156.94 51.1269 156.722 50.3209 156.286 49.6603C155.85 48.9997 155.229 48.4976 154.423 48.1541C153.63 47.8106 152.672 47.6388 151.549 47.6388H146.237V56.2005ZM146.237 40.8212H150.756C151.721 40.8212 152.573 40.6692 153.313 40.3653C154.053 40.0614 154.627 39.6254 155.037 39.0573C155.46 38.4759 155.671 37.7691 155.671 36.9367C155.671 35.6815 155.222 34.7236 154.323 34.063C153.425 33.3891 152.289 33.0522 150.915 33.0522H146.237V40.8212ZM172.497 65V24.4112H201.75V33.29H183.516V40.2662H200.243V49.145H183.516V56.1212H201.67V65H172.497ZM207.215 65V24.4112H224.734C227.747 24.4112 230.383 24.9596 232.642 26.0562C234.901 27.1528 236.659 28.7317 237.914 30.7929C239.169 32.854 239.797 35.3248 239.797 38.2051C239.797 41.1118 239.149 43.5627 237.854 45.5578C236.573 47.5529 234.769 49.0591 232.444 50.0765C230.132 51.0939 227.43 51.6025 224.338 51.6025H213.874V43.0408H222.118C223.413 43.0408 224.516 42.8823 225.428 42.5652C226.353 42.2349 227.06 41.713 227.549 40.9995C228.051 40.286 228.302 39.3546 228.302 38.2051C228.302 37.0424 228.051 36.0977 227.549 35.371C227.06 34.6311 226.353 34.0894 225.428 33.7459C224.516 33.3891 223.413 33.2108 222.118 33.2108H218.234V65H207.215ZM230.997 46.3704L241.144 65H229.174L219.265 46.3704H230.997ZM294.932 44.7056C294.932 49.2243 294.054 53.0361 292.297 56.141C290.539 59.2327 288.168 61.578 285.182 63.1767C282.196 64.7622 278.866 65.5549 275.193 65.5549C271.493 65.5549 268.151 64.7556 265.165 63.1569C262.192 61.5449 259.827 59.1931 258.07 56.1014C256.326 52.9965 255.454 49.1979 255.454 44.7056C255.454 40.187 256.326 36.3818 258.07 33.29C259.827 30.1851 262.192 27.8399 265.165 26.2544C268.151 24.6557 271.493 23.8563 275.193 23.8563C278.866 23.8563 282.196 24.6557 285.182 26.2544C288.168 27.8399 290.539 30.1851 292.297 33.29C294.054 36.3818 294.932 40.187 294.932 44.7056ZM283.596 44.7056C283.596 42.2745 283.272 40.2266 282.625 38.5618C281.991 36.8838 281.046 35.6154 279.791 34.7566C278.549 33.8846 277.016 33.4486 275.193 33.4486C273.37 33.4486 271.83 33.8846 270.575 34.7566C269.333 35.6154 268.389 36.8838 267.741 38.5618C267.107 40.2266 266.79 42.2745 266.79 44.7056C266.79 47.1367 267.107 49.1913 267.741 50.8692C268.389 52.534 269.333 53.8024 270.575 54.6744C271.83 55.5333 273.37 55.9627 275.193 55.9627C277.016 55.9627 278.549 55.5333 279.791 54.6744C281.046 53.8024 281.991 52.534 282.625 50.8692C283.272 49.1913 283.596 47.1367 283.596 44.7056ZM300.031 65V24.4112H328.57V33.29H311.05V40.2662H326.826V49.145H311.05V65H300.031ZM381.634 39.632H370.457C370.377 38.7072 370.166 37.8682 369.822 37.115C369.492 36.3619 369.03 35.7145 368.435 35.1728C367.854 34.6179 367.147 34.1951 366.315 33.9044C365.482 33.6005 364.537 33.4486 363.48 33.4486C361.631 33.4486 360.065 33.8978 358.783 34.7963C357.515 35.6947 356.55 36.9829 355.89 38.6609C355.242 40.3389 354.919 42.3538 354.919 44.7056C354.919 47.1896 355.249 49.2705 355.91 50.9485C356.584 52.6133 357.555 53.8685 358.823 54.7141C360.091 55.5465 361.617 55.9627 363.401 55.9627C364.419 55.9627 365.33 55.8371 366.136 55.5861C366.942 55.3219 367.642 54.9453 368.237 54.4564C368.831 53.9676 369.314 53.3796 369.684 52.6926C370.067 51.9923 370.325 51.2062 370.457 50.3341L381.634 50.4134C381.502 52.131 381.02 53.8817 380.188 55.6654C379.355 57.4359 378.173 59.0742 376.64 60.5804C375.121 62.0734 373.238 63.2758 370.992 64.1874C368.746 65.0991 366.136 65.5549 363.163 65.5549C359.437 65.5549 356.095 64.7556 353.135 63.1569C350.189 61.5581 347.857 59.2063 346.139 56.1014C344.435 52.9965 343.582 49.1979 343.582 44.7056C343.582 40.187 344.454 36.3818 346.199 33.29C347.943 30.1851 350.294 27.8399 353.254 26.2544C356.214 24.6557 359.517 23.8563 363.163 23.8563C365.727 23.8563 368.085 24.2064 370.239 24.9067C372.392 25.607 374.282 26.6309 375.907 27.9786C377.532 29.3131 378.84 30.958 379.831 32.9135C380.822 34.8689 381.423 37.1084 381.634 39.632ZM425.954 44.7056C425.954 49.2243 425.075 53.0361 423.318 56.141C421.561 59.2327 419.189 61.578 416.203 63.1767C413.217 64.7622 409.888 65.5549 406.215 65.5549C402.515 65.5549 399.172 64.7556 396.186 63.1569C393.213 61.5449 390.848 59.1931 389.091 56.1014C387.347 52.9965 386.475 49.1979 386.475 44.7056C386.475 40.187 387.347 36.3818 389.091 33.29C390.848 30.1851 393.213 27.8399 396.186 26.2544C399.172 24.6557 402.515 23.8563 406.215 23.8563C409.888 23.8563 413.217 24.6557 416.203 26.2544C419.189 27.8399 421.561 30.1851 423.318 33.29C425.075 36.3818 425.954 40.187 425.954 44.7056ZM414.618 44.7056C414.618 42.2745 414.294 40.2266 413.647 38.5618C413.012 36.8838 412.068 35.6154 410.813 34.7566C409.571 33.8846 408.038 33.4486 406.215 33.4486C404.391 33.4486 402.852 33.8846 401.597 34.7566C400.355 35.6154 399.41 36.8838 398.763 38.5618C398.129 40.2266 397.811 42.2745 397.811 44.7056C397.811 47.1367 398.129 49.1913 398.763 50.8692C399.41 52.534 400.355 53.8024 401.597 54.6744C402.852 55.5333 404.391 55.9627 406.215 55.9627C408.038 55.9627 409.571 55.5333 410.813 54.6744C412.068 53.8024 413.012 52.534 413.647 50.8692C414.294 49.1913 414.618 47.1367 414.618 44.7056ZM466.171 24.4112V65H456.975L442.309 43.675H442.072V65H431.052V24.4112H440.407L454.835 45.6569H455.152V24.4112H466.171ZM482.482 24.4112L490.806 53.0295H491.123L499.447 24.4112H511.893L498.496 65H483.433L470.036 24.4112H482.482ZM515.802 65V24.4112H545.055V33.29H526.821V40.2662H543.548V49.145H526.821V56.1212H544.975V65H515.802ZM550.52 65V24.4112H568.039C571.052 24.4112 573.688 24.9596 575.947 26.0562C578.206 27.1528 579.964 28.7317 581.219 30.7929C582.474 32.854 583.102 35.3248 583.102 38.2051C583.102 41.1118 582.454 43.5627 581.159 45.5578C579.878 47.5529 578.074 49.0591 575.749 50.0765C573.437 51.0939 570.735 51.6025 567.643 51.6025H557.179V43.0408H565.423C566.718 43.0408 567.821 42.8823 568.733 42.5652C569.658 42.2349 570.365 41.713 570.854 40.9995C571.356 40.286 571.607 39.3546 571.607 38.2051C571.607 37.0424 571.356 36.0977 570.854 35.371C570.365 34.6311 569.658 34.0894 568.733 33.7459C567.821 33.3891 566.718 33.2108 565.423 33.2108H561.539V65H550.52ZM574.302 46.3704L584.449 65H572.479L562.569 46.3704H574.302ZM609.679 37.0952C609.573 35.774 609.077 34.7434 608.192 34.0035C607.32 33.2636 605.992 32.8937 604.209 32.8937C603.072 32.8937 602.141 33.0324 601.414 33.3099C600.701 33.5741 600.172 33.9374 599.829 34.3999C599.485 34.8623 599.307 35.3908 599.294 35.9854C599.267 36.4742 599.353 36.9169 599.551 37.3132C599.763 37.6964 600.093 38.0465 600.542 38.3636C600.991 38.6675 601.566 38.945 602.266 39.196C602.967 39.4471 603.799 39.6717 604.764 39.8699L608.093 40.5833C610.339 41.059 612.262 41.6866 613.86 42.4661C615.459 43.2456 616.767 44.1639 617.784 45.2209C618.802 46.2647 619.548 47.4406 620.024 48.7486C620.513 50.0567 620.764 51.4836 620.777 53.0295C620.764 55.6984 620.097 57.9577 618.775 59.8075C617.454 61.6572 615.565 63.0644 613.107 64.0289C610.663 64.9934 607.723 65.4756 604.288 65.4756C600.76 65.4756 597.682 64.9538 595.052 63.91C592.436 62.8662 590.402 61.2609 588.948 59.094C587.508 56.914 586.781 54.1261 586.768 50.7305H597.232C597.298 51.9725 597.609 53.0163 598.164 53.8619C598.719 54.7075 599.498 55.3483 600.502 55.7843C601.52 56.2203 602.729 56.4383 604.129 56.4383C605.305 56.4383 606.29 56.293 607.082 56.0023C607.875 55.7116 608.476 55.3086 608.886 54.7934C609.295 54.2781 609.507 53.6901 609.52 53.0295C609.507 52.4085 609.302 51.8668 608.906 51.4044C608.522 50.9287 607.888 50.5059 607.003 50.136C606.118 49.7528 604.922 49.3961 603.416 49.0657L599.373 48.1937C595.779 47.4142 592.945 46.1128 590.871 44.2894C588.809 42.4529 587.785 39.9491 587.799 36.7781C587.785 34.2017 588.473 31.949 589.86 30.0199C591.26 28.0777 593.196 26.5649 595.667 25.4815C598.151 24.398 600.998 23.8563 604.209 23.8563C607.485 23.8563 610.319 24.4046 612.711 25.5013C615.102 26.5979 616.945 28.1438 618.24 30.1389C619.548 32.1207 620.209 34.4395 620.222 37.0952H609.679ZM635.988 24.4112V65H624.969V24.4112H635.988ZM680.531 44.7056C680.531 49.2243 679.652 53.0361 677.895 56.141C676.137 59.2327 673.766 61.578 670.78 63.1767C667.794 64.7622 664.464 65.5549 660.791 65.5549C657.092 65.5549 653.749 64.7556 650.763 63.1569C647.79 61.5449 645.425 59.1931 643.668 56.1014C641.924 52.9965 641.052 49.1979 641.052 44.7056C641.052 40.187 641.924 36.3818 643.668 33.29C645.425 30.1851 647.79 27.8399 650.763 26.2544C653.749 24.6557 657.092 23.8563 660.791 23.8563C664.464 23.8563 667.794 24.6557 670.78 26.2544C673.766 27.8399 676.137 30.1851 677.895 33.29C679.652 36.3818 680.531 40.187 680.531 44.7056ZM669.194 44.7056C669.194 42.2745 668.871 40.2266 668.223 38.5618C667.589 36.8838 666.644 35.6154 665.389 34.7566C664.147 33.8846 662.614 33.4486 660.791 33.4486C658.968 33.4486 657.429 33.8846 656.173 34.7566C654.931 35.6154 653.987 36.8838 653.339 38.5618C652.705 40.2266 652.388 42.2745 652.388 44.7056C652.388 47.1367 652.705 49.1913 653.339 50.8692C653.987 52.534 654.931 53.8024 656.173 54.6744C657.429 55.5333 658.968 55.9627 660.791 55.9627C662.614 55.9627 664.147 55.5333 665.389 54.6744C666.644 53.8024 667.589 52.534 668.223 50.8692C668.871 49.1913 669.194 47.1367 669.194 44.7056ZM720.748 24.4112V65H711.552L696.886 43.675H696.648V65H685.629V24.4112H694.983L709.411 45.6569H709.728V24.4112H720.748ZM747.84 37.0952C747.734 35.774 747.239 34.7434 746.353 34.0035C745.481 33.2636 744.154 32.8937 742.37 32.8937C741.234 32.8937 740.302 33.0324 739.575 33.3099C738.862 33.5741 738.333 33.9374 737.99 34.3999C737.646 34.8623 737.468 35.3908 737.455 35.9854C737.428 36.4742 737.514 36.9169 737.713 37.3132C737.924 37.6964 738.254 38.0465 738.703 38.3636C739.153 38.6675 739.727 38.945 740.428 39.196C741.128 39.4471 741.96 39.6717 742.925 39.8699L746.254 40.5833C748.501 41.059 750.423 41.6866 752.022 42.4661C753.62 43.2456 754.928 44.1639 755.946 45.2209C756.963 46.2647 757.71 47.4406 758.185 48.7486C758.674 50.0567 758.925 51.4836 758.938 53.0295C758.925 55.6984 758.258 57.9577 756.937 59.8075C755.615 61.6572 753.726 63.0644 751.269 64.0289C748.824 64.9934 745.884 65.4756 742.449 65.4756C738.921 65.4756 735.843 64.9538 733.214 63.91C730.598 62.8662 728.563 61.2609 727.109 59.094C725.669 56.914 724.943 54.1261 724.929 50.7305H735.394C735.46 51.9725 735.77 53.0163 736.325 53.8619C736.88 54.7075 737.66 55.3483 738.664 55.7843C739.681 56.2203 740.89 56.4383 742.291 56.4383C743.467 56.4383 744.451 56.293 745.244 56.0023C746.036 55.7116 746.638 55.3086 747.047 54.7934C747.457 54.2781 747.668 53.6901 747.681 53.0295C747.668 52.4085 747.463 51.8668 747.067 51.4044C746.684 50.9287 746.05 50.5059 745.164 50.136C744.279 49.7528 743.083 49.3961 741.577 49.0657L737.534 48.1937C733.94 47.4142 731.106 46.1128 729.032 44.2894C726.971 42.4529 725.947 39.9491 725.96 36.7781C725.947 34.2017 726.634 31.949 728.021 30.0199C729.422 28.0777 731.357 26.5649 733.828 25.4815C736.312 24.398 739.159 23.8563 742.37 23.8563C745.647 23.8563 748.481 24.4046 750.872 25.5013C753.264 26.5979 755.107 28.1438 756.402 30.1389C757.71 32.1207 758.37 34.4395 758.383 37.0952H747.84ZM787.487 65.6342C784.58 65.6342 782.077 65.1189 779.976 64.0883C777.875 63.0578 776.263 61.6771 775.14 59.9462C774.017 58.2154 773.456 56.3062 773.456 54.2186C773.456 52.6992 773.746 51.3581 774.328 50.1954C774.909 49.0195 775.722 47.9427 776.765 46.965C777.809 45.9872 779.031 45.0227 780.432 44.0714L789.628 38.3636C790.553 37.7823 791.18 37.1811 791.51 36.5601C791.841 35.9259 792.006 35.3644 792.006 34.8755C792.006 34.2281 791.768 33.6534 791.292 33.1513C790.817 32.6492 790.077 32.4048 789.073 32.418C788.452 32.418 787.917 32.5369 787.467 32.7747C787.018 32.9994 786.668 33.3165 786.417 33.726C786.179 34.1356 786.06 34.6245 786.06 35.1926C786.06 35.9722 786.285 36.7715 786.734 37.5907C787.183 38.3967 787.798 39.2687 788.577 40.2068C789.357 41.1449 790.235 42.1952 791.213 43.3579L810.873 65H799.933L783.444 47.5595C782.638 46.7007 781.746 45.6503 780.769 44.4083C779.791 43.1532 778.945 41.7394 778.232 40.1671C777.532 38.5948 777.182 36.8838 777.182 35.0341C777.182 32.9729 777.677 31.0902 778.668 29.3857C779.659 27.6813 781.046 26.3204 782.83 25.3031C784.614 24.2857 786.694 23.777 789.073 23.777C791.345 23.777 793.301 24.2461 794.939 25.1842C796.591 26.1223 797.859 27.3708 798.744 28.9299C799.643 30.489 800.092 32.2066 800.092 34.0828C800.092 35.9722 799.623 37.736 798.685 39.3744C797.76 41.0127 796.432 42.4463 794.701 43.675L786.298 49.6207C785.651 50.0699 785.089 50.5852 784.614 51.1665C784.151 51.7479 783.92 52.501 783.92 53.4259C783.92 54.1922 784.098 54.8462 784.455 55.3879C784.812 55.9296 785.314 56.3458 785.961 56.6365C786.622 56.9272 787.395 57.0725 788.28 57.0725C789.628 57.0725 790.975 56.7488 792.323 56.1014C793.684 55.4408 794.926 54.5225 796.049 53.3466C797.172 52.1575 798.07 50.7569 798.744 49.145C799.431 47.5199 799.775 45.7494 799.775 43.8336H808.416C808.416 46.1854 808.171 48.4514 807.683 50.6314C807.194 52.8115 806.408 54.8066 805.324 56.6167C804.241 58.4268 802.814 59.9528 801.043 61.1948C800.488 61.4723 799.947 61.7365 799.418 61.9876C798.89 62.2386 798.348 62.5028 797.793 62.7803C796.168 63.8241 794.47 64.564 792.7 65C790.929 65.4228 789.192 65.6342 787.487 65.6342ZM845.943 65H834.051L847.449 24.4112H862.511L875.909 65H864.017L855.138 35.589H854.821L845.943 65ZM843.723 48.9865H866.078V57.2311H843.723V48.9865ZM915.804 39.632H904.626C904.547 38.7072 904.335 37.8682 903.992 37.115C903.661 36.3619 903.199 35.7145 902.604 35.1728C902.023 34.6179 901.316 34.1951 900.484 33.9044C899.651 33.6005 898.707 33.4486 897.65 33.4486C895.8 33.4486 894.234 33.8978 892.953 34.7963C891.684 35.6947 890.72 36.9829 890.059 38.6609C889.412 40.3389 889.088 42.3538 889.088 44.7056C889.088 47.1896 889.418 49.2705 890.079 50.9485C890.753 52.6133 891.724 53.8685 892.992 54.7141C894.261 55.5465 895.787 55.9627 897.57 55.9627C898.588 55.9627 899.499 55.8371 900.305 55.5861C901.111 55.3219 901.812 54.9453 902.406 54.4564C903.001 53.9676 903.483 53.3796 903.853 52.6926C904.236 51.9923 904.494 51.2062 904.626 50.3341L915.804 50.4134C915.671 52.131 915.189 53.8817 914.357 55.6654C913.524 57.4359 912.342 59.0742 910.809 60.5804C909.29 62.0734 907.407 63.2758 905.161 64.1874C902.915 65.0991 900.305 65.5549 897.333 65.5549C893.607 65.5549 890.264 64.7556 887.304 63.1569C884.358 61.5581 882.026 59.2063 880.308 56.1014C878.604 52.9965 877.752 49.1979 877.752 44.7056C877.752 40.187 878.624 36.3818 880.368 33.29C882.112 30.1851 884.464 27.8399 887.423 26.2544C890.383 24.6557 893.686 23.8563 897.333 23.8563C899.896 23.8563 902.254 24.2064 904.408 24.9067C906.561 25.607 908.451 26.6309 910.076 27.9786C911.701 29.3131 913.009 30.958 914 32.9135C914.991 34.8689 915.592 37.1084 915.804 39.632ZM958.696 39.632H947.519C947.439 38.7072 947.228 37.8682 946.884 37.115C946.554 36.3619 946.092 35.7145 945.497 35.1728C944.916 34.6179 944.209 34.1951 943.376 33.9044C942.544 33.6005 941.599 33.4486 940.542 33.4486C938.693 33.4486 937.127 33.8978 935.845 34.7963C934.577 35.6947 933.612 36.9829 932.952 38.6609C932.304 40.3389 931.981 42.3538 931.981 44.7056C931.981 47.1896 932.311 49.2705 932.972 50.9485C933.645 52.6133 934.617 53.8685 935.885 54.7141C937.153 55.5465 938.679 55.9627 940.463 55.9627C941.48 55.9627 942.392 55.8371 943.198 55.5861C944.004 55.3219 944.704 54.9453 945.299 54.4564C945.893 53.9676 946.376 53.3796 946.746 52.6926C947.129 51.9923 947.386 51.2062 947.519 50.3341L958.696 50.4134C958.564 52.131 958.082 53.8817 957.25 55.6654C956.417 57.4359 955.235 59.0742 953.702 60.5804C952.183 62.0734 950.3 63.2758 948.054 64.1874C945.808 65.0991 943.198 65.5549 940.225 65.5549C936.499 65.5549 933.157 64.7556 930.197 63.1569C927.251 61.5581 924.919 59.2063 923.201 56.1014C921.497 52.9965 920.644 49.1979 920.644 44.7056C920.644 40.187 921.516 36.3818 923.26 33.29C925.004 30.1851 927.356 27.8399 930.316 26.2544C933.275 24.6557 936.579 23.8563 940.225 23.8563C942.788 23.8563 945.147 24.2064 947.301 24.9067C949.454 25.607 951.344 26.6309 952.969 27.9786C954.594 29.3131 955.902 30.958 956.893 32.9135C957.884 34.8689 958.485 37.1084 958.696 39.632ZM1003.02 44.7056C1003.02 49.2243 1002.14 53.0361 1000.38 56.141C998.623 59.2327 996.251 61.578 993.265 63.1767C990.279 64.7622 986.95 65.5549 983.277 65.5549C979.577 65.5549 976.234 64.7556 973.248 63.1569C970.275 61.5449 967.91 59.1931 966.153 56.1014C964.409 52.9965 963.537 49.1979 963.537 44.7056C963.537 40.187 964.409 36.3818 966.153 33.29C967.91 30.1851 970.275 27.8399 973.248 26.2544C976.234 24.6557 979.577 23.8563 983.277 23.8563C986.95 23.8563 990.279 24.6557 993.265 26.2544C996.251 27.8399 998.623 30.1851 1000.38 33.29C1002.14 36.3818 1003.02 40.187 1003.02 44.7056ZM991.68 44.7056C991.68 42.2745 991.356 40.2266 990.709 38.5618C990.074 36.8838 989.13 35.6154 987.874 34.7566C986.632 33.8846 985.1 33.4486 983.277 33.4486C981.453 33.4486 979.914 33.8846 978.659 34.7566C977.417 35.6154 976.472 36.8838 975.825 38.5618C975.19 40.2266 974.873 42.2745 974.873 44.7056C974.873 47.1367 975.19 49.1913 975.825 50.8692C976.472 52.534 977.417 53.8024 978.659 54.6744C979.914 55.5333 981.453 55.9627 983.277 55.9627C985.1 55.9627 986.632 55.5333 987.874 54.6744C989.13 53.8024 990.074 52.534 990.709 50.8692C991.356 49.1913 991.68 47.1367 991.68 44.7056ZM1032.13 24.4112H1043.15V50.4134C1043.15 53.5051 1042.41 56.1807 1040.93 58.44C1039.47 60.6861 1037.42 62.4236 1034.79 63.6523C1032.16 64.8679 1029.11 65.4756 1025.63 65.4756C1022.13 65.4756 1019.07 64.8679 1016.44 63.6523C1013.81 62.4236 1011.76 60.6861 1010.29 58.44C1008.84 56.1807 1008.11 53.5051 1008.11 50.4134V24.4112H1019.13V49.4621C1019.13 50.7173 1019.41 51.8404 1019.97 52.8313C1020.52 53.809 1021.29 54.5753 1022.26 55.1303C1023.26 55.6852 1024.38 55.9627 1025.63 55.9627C1026.9 55.9627 1028.03 55.6852 1029 55.1303C1029.98 54.5753 1030.75 53.809 1031.3 52.8313C1031.86 51.8404 1032.13 50.7173 1032.13 49.4621V24.4112ZM1083.51 24.4112V65H1074.31L1059.65 43.675H1059.41V65H1048.39V24.4112H1057.75L1072.17 45.6569H1072.49V24.4112H1083.51ZM1087.61 33.29V24.4112H1122.89V33.29H1110.68V65H1099.82V33.29H1087.61ZM1148.92 37.0952C1148.81 35.774 1148.32 34.7434 1147.43 34.0035C1146.56 33.2636 1145.23 32.8937 1143.45 32.8937C1142.31 32.8937 1141.38 33.0324 1140.65 33.3099C1139.94 33.5741 1139.41 33.9374 1139.07 34.3999C1138.72 34.8623 1138.54 35.3908 1138.53 35.9854C1138.51 36.4742 1138.59 36.9169 1138.79 37.3132C1139 37.6964 1139.33 38.0465 1139.78 38.3636C1140.23 38.6675 1140.8 38.945 1141.5 39.196C1142.2 39.4471 1143.04 39.6717 1144 39.8699L1147.33 40.5833C1149.58 41.059 1151.5 41.6866 1153.1 42.4661C1154.7 43.2456 1156 44.1639 1157.02 45.2209C1158.04 46.2647 1158.79 47.4406 1159.26 48.7486C1159.75 50.0567 1160 51.4836 1160.01 53.0295C1160 55.6984 1159.33 57.9577 1158.01 59.8075C1156.69 61.6572 1154.8 63.0644 1152.35 64.0289C1149.9 64.9934 1146.96 65.4756 1143.53 65.4756C1140 65.4756 1136.92 64.9538 1134.29 63.91C1131.67 62.8662 1129.64 61.2609 1128.19 59.094C1126.75 56.914 1126.02 54.1261 1126.01 50.7305H1136.47C1136.54 51.9725 1136.85 53.0163 1137.4 53.8619C1137.96 54.7075 1138.74 55.3483 1139.74 55.7843C1140.76 56.2203 1141.97 56.4383 1143.37 56.4383C1144.54 56.4383 1145.53 56.293 1146.32 56.0023C1147.11 55.7116 1147.71 55.3086 1148.12 54.7934C1148.53 54.2781 1148.74 53.6901 1148.76 53.0295C1148.74 52.4085 1148.54 51.8668 1148.14 51.4044C1147.76 50.9287 1147.13 50.5059 1146.24 50.136C1145.36 49.7528 1144.16 49.3961 1142.65 49.0657L1138.61 48.1937C1135.02 47.4142 1132.18 46.1128 1130.11 44.2894C1128.05 42.4529 1127.02 39.9491 1127.04 36.7781C1127.02 34.2017 1127.71 31.949 1129.1 30.0199C1130.5 28.0777 1132.43 26.5649 1134.9 25.4815C1137.39 24.398 1140.24 23.8563 1143.45 23.8563C1146.72 23.8563 1149.56 24.4046 1151.95 25.5013C1154.34 26.5979 1156.18 28.1438 1157.48 30.1389C1158.79 32.1207 1159.45 34.4395 1159.46 37.0952H1148.92Z" fill="#02B873"/>
<rect y="79" width="697" height="63" rx="31.5" fill="#02B873"/>
<path d="M28.6161 131V90.4109H46.2153C49.307 90.4109 51.9033 90.8271 54.0041 91.6595C56.1181 92.4919 57.7102 93.6678 58.7805 95.1873C59.8639 96.7067 60.4056 98.497 60.4056 100.558C60.4056 102.051 60.0753 103.412 59.4147 104.641C58.7672 105.87 57.8556 106.9 56.6796 107.733C55.5037 108.552 54.1296 109.12 52.5573 109.437V109.833C54.3014 109.899 55.8869 110.342 57.3139 111.161C58.7408 111.967 59.8771 113.084 60.7227 114.511C61.5683 115.924 61.9911 117.589 61.9911 119.505C61.9911 121.725 61.4098 123.7 60.247 125.431C59.0976 127.162 57.4592 128.523 55.332 129.514C53.2047 130.505 50.6679 131 47.7215 131H28.6161ZM39.6354 122.2H44.7883C46.6381 122.2 48.0254 121.857 48.9503 121.17C49.8752 120.47 50.3376 119.439 50.3376 118.078C50.3376 117.127 50.1196 116.321 49.6836 115.66C49.2476 115 48.6266 114.497 47.8206 114.154C47.0278 113.81 46.0699 113.639 44.9469 113.639H39.6354V122.2ZM39.6354 106.821H44.1541C45.1186 106.821 45.9708 106.669 46.7107 106.365C47.4506 106.061 48.0254 105.625 48.435 105.057C48.8578 104.476 49.0692 103.769 49.0692 102.936C49.0692 101.681 48.62 100.723 47.7215 100.063C46.8231 99.3889 45.6868 99.0519 44.3127 99.0519H39.6354V106.821ZM63.6725 90.4109H75.9603L83.8878 106.9H84.2049L92.1325 90.4109H104.42L89.5164 118.237V131H78.5763V118.237L63.6725 90.4109ZM118.015 131V90.4109H135.534C138.547 90.4109 141.183 90.9592 143.442 92.0559C145.702 93.1525 147.459 94.7314 148.714 96.7926C149.969 98.8538 150.597 101.325 150.597 104.205C150.597 107.112 149.949 109.563 148.655 111.558C147.373 113.553 145.569 115.059 143.244 116.076C140.932 117.094 138.23 117.602 135.138 117.602H124.674V109.041H132.918C134.213 109.041 135.316 108.882 136.228 108.565C137.153 108.235 137.86 107.713 138.349 106.999C138.851 106.286 139.102 105.354 139.102 104.205C139.102 103.042 138.851 102.097 138.349 101.371C137.86 100.631 137.153 100.089 136.228 99.7456C135.316 99.3889 134.213 99.2105 132.918 99.2105H129.034V131H118.015ZM141.797 112.37L151.944 131H139.974L130.064 112.37H141.797ZM154.736 131V90.4109H183.988V99.2898H165.755V106.266H182.482V115.145H165.755V122.121H183.909V131H154.736ZM199.201 131L187.231 90.4109H199.518L205.068 115.383H205.385L211.965 90.4109H221.636L228.216 115.462H228.533L234.083 90.4109H246.37L234.4 131H223.856L216.959 108.327H216.642L209.745 131H199.201ZM255.182 131H243.29L256.688 90.4109H271.75L285.148 131H273.256L264.377 101.589H264.06L255.182 131ZM252.962 114.986H275.318V123.231H252.962V114.986ZM288.499 131V90.4109H306.019C309.031 90.4109 311.667 90.9592 313.926 92.0559C316.186 93.1525 317.943 94.7314 319.198 96.7926C320.454 98.8538 321.081 101.325 321.081 104.205C321.081 107.112 320.434 109.563 319.139 111.558C317.857 113.553 316.054 115.059 313.728 116.076C311.416 117.094 308.714 117.602 305.622 117.602H295.158V109.041H303.403C304.697 109.041 305.801 108.882 306.712 108.565C307.637 108.235 308.344 107.713 308.833 106.999C309.335 106.286 309.586 105.354 309.586 104.205C309.586 103.042 309.335 102.097 308.833 101.371C308.344 100.631 307.637 100.089 306.712 99.7456C305.801 99.3889 304.697 99.2105 303.403 99.2105H299.518V131H288.499ZM312.282 112.37L322.429 131H310.458L300.549 112.37H312.282ZM340.837 131H325.22V90.4109H340.679C344.854 90.4109 348.461 91.2235 351.5 92.8486C354.552 94.4606 356.904 96.786 358.555 99.8249C360.22 102.851 361.053 106.477 361.053 110.705C361.053 114.933 360.227 118.567 358.575 121.606C356.924 124.632 354.585 126.957 351.559 128.582C348.534 130.194 344.96 131 340.837 131ZM336.239 121.645H340.441C342.449 121.645 344.16 121.322 345.574 120.674C347.001 120.027 348.084 118.91 348.824 117.325C349.578 115.739 349.954 113.533 349.954 110.705C349.954 107.878 349.571 105.671 348.805 104.086C348.051 102.5 346.942 101.384 345.475 100.737C344.022 100.089 342.238 99.7654 340.124 99.7654H336.239V121.645ZM387.473 103.095C387.367 101.774 386.872 100.743 385.987 100.003C385.115 99.2633 383.787 98.8934 382.003 98.8934C380.867 98.8934 379.935 99.0321 379.209 99.3096C378.495 99.5738 377.967 99.9372 377.623 100.4C377.28 100.862 377.101 101.391 377.088 101.985C377.061 102.474 377.147 102.917 377.346 103.313C377.557 103.696 377.887 104.046 378.337 104.363C378.786 104.667 379.36 104.945 380.061 105.196C380.761 105.447 381.593 105.671 382.558 105.87L385.888 106.583C388.134 107.059 390.056 107.686 391.655 108.466C393.254 109.245 394.562 110.164 395.579 111.221C396.596 112.265 397.343 113.44 397.818 114.749C398.307 116.057 398.558 117.484 398.572 119.029C398.558 121.698 397.891 123.958 396.57 125.807C395.249 127.657 393.359 129.064 390.902 130.029C388.457 130.993 385.518 131.476 382.082 131.476C378.555 131.476 375.476 130.954 372.847 129.91C370.231 128.866 368.196 127.261 366.742 125.094C365.302 122.914 364.576 120.126 364.562 116.73H375.027C375.093 117.972 375.403 119.016 375.958 119.862C376.513 120.707 377.293 121.348 378.297 121.784C379.314 122.22 380.523 122.438 381.924 122.438C383.1 122.438 384.084 122.293 384.877 122.002C385.67 121.712 386.271 121.309 386.68 120.793C387.09 120.278 387.301 119.69 387.314 119.029C387.301 118.408 387.096 117.867 386.7 117.404C386.317 116.929 385.683 116.506 384.797 116.136C383.912 115.753 382.716 115.396 381.21 115.066L377.167 114.194C373.573 113.414 370.739 112.113 368.665 110.289C366.604 108.453 365.58 105.949 365.593 102.778C365.58 100.201 366.267 97.9487 367.654 96.0197C369.055 94.0774 370.99 92.5646 373.461 91.4811C375.945 90.3977 378.792 89.856 382.003 89.856C385.28 89.856 388.114 90.4043 390.505 91.5009C392.897 92.5976 394.74 94.1435 396.035 96.1386C397.343 98.1205 398.003 100.439 398.017 103.095H387.473ZM412.765 131V90.4109H430.285C433.298 90.4109 435.934 91.0055 438.193 92.1946C440.452 93.3837 442.21 95.0551 443.465 97.2088C444.72 99.3624 445.348 101.879 445.348 104.76C445.348 107.667 444.7 110.184 443.405 112.311C442.124 114.438 440.32 116.076 437.995 117.226C435.683 118.375 432.981 118.95 429.889 118.95H419.425V110.388H427.669C428.964 110.388 430.067 110.164 430.979 109.715C431.904 109.252 432.611 108.598 433.1 107.752C433.602 106.907 433.853 105.909 433.853 104.76C433.853 103.597 433.602 102.606 433.1 101.787C432.611 100.955 431.904 100.32 430.979 99.8843C430.067 99.4351 428.964 99.2105 427.669 99.2105H423.785V131H412.765ZM454.308 131H442.416L455.814 90.4109H470.876L484.274 131H472.382L463.504 101.589H463.187L454.308 131ZM452.088 114.986H474.444V123.231H452.088V114.986ZM487.625 131V90.4109H505.145C508.157 90.4109 510.793 90.9592 513.053 92.0559C515.312 93.1525 517.069 94.7314 518.324 96.7926C519.58 98.8538 520.207 101.325 520.207 104.205C520.207 107.112 519.56 109.563 518.265 111.558C516.983 113.553 515.18 115.059 512.854 116.076C510.542 117.094 507.84 117.602 504.749 117.602H494.284V109.041H502.529C503.824 109.041 504.927 108.882 505.839 108.565C506.763 108.235 507.47 107.713 507.959 106.999C508.461 106.286 508.712 105.354 508.712 104.205C508.712 103.042 508.461 102.097 507.959 101.371C507.47 100.631 506.763 100.089 505.839 99.7456C504.927 99.3889 503.824 99.2105 502.529 99.2105H498.644V131H487.625ZM511.408 112.37L521.555 131H509.584L499.675 112.37H511.408ZM523.236 99.2898V90.4109H558.514V99.2898H546.306V131H535.445V99.2898H523.236ZM597.222 90.4109V131H588.026L573.36 109.675H573.122V131H562.103V90.4109H571.458L585.886 111.657H586.203V90.4109H597.222ZM601.876 131V90.4109H631.129V99.2898H612.896V106.266H629.623V115.145H612.896V122.121H631.05V131H601.876ZM636.036 131V90.4109H653.556C656.568 90.4109 659.204 90.9592 661.464 92.0559C663.723 93.1525 665.48 94.7314 666.735 96.7926C667.991 98.8538 668.618 101.325 668.618 104.205C668.618 107.112 667.971 109.563 666.676 111.558C665.394 113.553 663.591 115.059 661.265 116.076C658.953 117.094 656.251 117.602 653.16 117.602H642.695V109.041H650.94C652.235 109.041 653.338 108.882 654.25 108.565C655.174 108.235 655.881 107.713 656.37 106.999C656.872 106.286 657.123 105.354 657.123 104.205C657.123 103.042 656.872 102.097 656.37 101.371C655.881 100.631 655.174 100.089 654.25 99.7456C653.338 99.3889 652.235 99.2105 650.94 99.2105H647.055V131H636.036ZM659.819 112.37L669.966 131H657.995L648.086 112.37H659.819Z" fill="white"/>
</svg>
