<svg width="341" height="44" viewBox="0 0 341 44" fill="none" xmlns="http://www.w3.org/2000/svg">
<rect width="341" height="43.63" rx="21.815" fill="#55CCD0"/>
<path d="M89.5958 18.9325H84.855C84.7918 18.4458 84.6623 18.0065 84.4663 17.6146C84.2703 17.2227 84.0112 16.8877 83.6888 16.6096C83.3664 16.3314 82.984 16.1197 82.5415 15.9743C82.1054 15.8226 81.6218 15.7467 81.0909 15.7467C80.149 15.7467 79.3368 15.9775 78.6541 16.4389C77.9778 16.9003 77.4563 17.5672 77.0897 18.4395C76.7294 19.3118 76.5492 20.3674 76.5492 21.6063C76.5492 22.8958 76.7325 23.9767 77.0991 24.849C77.4721 25.715 77.9936 26.3692 78.6636 26.8117C79.34 27.2479 80.1396 27.4659 81.0624 27.4659C81.5808 27.4659 82.0517 27.3996 82.4752 27.2668C82.905 27.1341 83.2811 26.9413 83.6035 26.6884C83.9322 26.4293 84.2008 26.1164 84.4094 25.7498C84.6243 25.3768 84.7729 24.9565 84.855 24.4887L89.5958 24.5172C89.5136 25.3768 89.264 26.2238 88.8468 27.0582C88.4359 27.8926 87.8702 28.6543 87.1496 29.3433C86.429 30.0259 85.5504 30.5695 84.5137 30.9741C83.4834 31.3786 82.3013 31.5809 80.9676 31.5809C79.2104 31.5809 77.6364 31.1953 76.2458 30.4242C74.8615 29.6467 73.768 28.5152 72.9652 27.0298C72.1624 25.5443 71.761 23.7365 71.761 21.6063C71.761 19.4698 72.1688 17.6589 72.9842 16.1734C73.7996 14.688 74.9026 13.5597 76.2932 12.7885C77.6838 12.0173 79.242 11.6318 80.9676 11.6318C82.1433 11.6318 83.2305 11.7961 84.2293 12.1248C85.228 12.4472 86.1066 12.9213 86.8651 13.547C87.6237 14.1665 88.24 14.9282 88.714 15.8321C89.1881 16.736 89.482 17.7695 89.5958 18.9325ZM110.609 21.6063C110.609 23.7428 110.198 25.5538 109.377 27.0393C108.555 28.5247 107.442 29.653 106.039 30.4242C104.642 31.1953 103.075 31.5809 101.336 31.5809C99.5917 31.5809 98.0209 31.1922 96.624 30.4147C95.2271 29.6372 94.1177 28.5089 93.296 27.0298C92.4806 25.5443 92.0729 23.7365 92.0729 21.6063C92.0729 19.4698 92.4806 17.6589 93.296 16.1734C94.1177 14.688 95.2271 13.5597 96.624 12.7885C98.0209 12.0173 99.5917 11.6318 101.336 11.6318C103.075 11.6318 104.642 12.0173 106.039 12.7885C107.442 13.5597 108.555 14.688 109.377 16.1734C110.198 17.6589 110.609 19.4698 110.609 21.6063ZM105.812 21.6063C105.812 20.3421 105.631 19.2739 105.271 18.4016C104.917 17.5293 104.405 16.8687 103.735 16.4199C103.071 15.9711 102.272 15.7467 101.336 15.7467C100.407 15.7467 99.6075 15.9711 98.9375 16.4199C98.2675 16.8687 97.7523 17.5293 97.392 18.4016C97.038 19.2739 96.861 20.3421 96.861 21.6063C96.861 22.8705 97.038 23.9388 97.392 24.8111C97.7523 25.6834 98.2675 26.3439 98.9375 26.7927C99.6075 27.2415 100.407 27.4659 101.336 27.4659C102.272 27.4659 103.071 27.2415 103.735 26.7927C104.405 26.3439 104.917 25.6834 105.271 24.8111C105.631 23.9388 105.812 22.8705 105.812 21.6063ZM129.876 11.8972V31.3154H125.893L118.166 20.1083H118.043V31.3154H113.349V11.8972H117.389L125.031 23.0855H125.192V11.8972H129.876ZM137.236 11.8972L141.578 26.1195H141.74L146.082 11.8972H151.335L144.783 31.3154H138.535L131.983 11.8972H137.236ZM153.426 31.3154V11.8972H166.965V15.7088H158.119V19.6911H166.273V23.5121H158.119V27.5039H166.965V31.3154H153.426ZM169.904 31.3154V11.8972H177.926C179.38 11.8972 180.634 12.1596 181.69 12.6842C182.752 13.2025 183.57 13.9484 184.146 14.9219C184.721 15.889 185.008 17.0362 185.008 18.3637C185.008 19.71 184.715 20.8541 184.127 21.796C183.539 22.7315 182.704 23.4458 181.624 23.9388C180.543 24.4255 179.263 24.6689 177.784 24.6689H172.711V20.9711H176.911C177.619 20.9711 178.21 20.8794 178.684 20.6961C179.165 20.5065 179.528 20.222 179.775 19.8428C180.021 19.4572 180.144 18.9642 180.144 18.3637C180.144 17.7632 180.021 17.267 179.775 16.8751C179.528 16.4768 179.165 16.1797 178.684 15.9838C178.204 15.7815 177.613 15.6804 176.911 15.6804H174.598V31.3154H169.904ZM180.837 22.4407L185.672 31.3154H180.552L175.811 22.4407H180.837ZM198.079 17.7189C198.016 17.0236 197.734 16.4831 197.235 16.0976C196.742 15.7057 196.037 15.5097 195.121 15.5097C194.514 15.5097 194.008 15.5887 193.604 15.7467C193.199 15.9048 192.896 16.1229 192.693 16.401C192.491 16.6728 192.387 16.9857 192.38 17.3396C192.368 17.6304 192.425 17.8864 192.551 18.1077C192.684 18.3289 192.873 18.5248 193.12 18.6955C193.373 18.8599 193.676 19.0052 194.03 19.1317C194.384 19.2581 194.782 19.3687 195.225 19.4635L196.894 19.8428C197.854 20.0514 198.701 20.3295 199.435 20.6771C200.174 21.0248 200.794 21.4388 201.293 21.9192C201.799 22.3996 202.181 22.9527 202.44 23.5785C202.699 24.2043 202.832 24.9059 202.839 25.6834C202.832 26.9097 202.522 27.9621 201.909 28.8407C201.296 29.7194 200.414 30.3926 199.264 30.8603C198.12 31.3281 196.739 31.5619 195.121 31.5619C193.496 31.5619 192.08 31.3186 190.873 30.8319C189.666 30.3452 188.727 29.6056 188.057 28.6132C187.387 27.6208 187.042 26.3661 187.023 24.849H191.518C191.555 25.4748 191.723 25.9963 192.02 26.4135C192.317 26.8307 192.725 27.1467 193.243 27.3616C193.768 27.5765 194.375 27.684 195.064 27.684C195.696 27.684 196.233 27.5987 196.676 27.428C197.124 27.2573 197.469 27.0203 197.709 26.7169C197.949 26.4135 198.072 26.0658 198.079 25.6739C198.072 25.3073 197.959 24.9944 197.737 24.7352C197.516 24.4698 197.175 24.2422 196.713 24.0526C196.258 23.8566 195.677 23.6765 194.969 23.5121L192.94 23.038C191.258 22.6525 189.934 22.0298 188.967 21.1702C188 20.3042 187.52 19.1348 187.526 17.662C187.52 16.461 187.842 15.4086 188.493 14.5047C189.144 13.6008 190.045 12.896 191.195 12.3903C192.346 11.8846 193.657 11.6318 195.13 11.6318C196.634 11.6318 197.94 11.8878 199.046 12.3998C200.158 12.9054 201.021 13.6166 201.634 14.5331C202.248 15.4497 202.56 16.5116 202.573 17.7189H198.079ZM209.902 11.8972V31.3154H205.209V11.8972H209.902ZM231.176 21.6063C231.176 23.7428 230.766 25.5538 229.944 27.0393C229.122 28.5247 228.01 29.653 226.606 30.4242C225.209 31.1953 223.642 31.5809 221.904 31.5809C220.159 31.5809 218.588 31.1922 217.191 30.4147C215.794 29.6372 214.685 28.5089 213.863 27.0298C213.048 25.5443 212.64 23.7365 212.64 21.6063C212.64 19.4698 213.048 17.6589 213.863 16.1734C214.685 14.688 215.794 13.5597 217.191 12.7885C218.588 12.0173 220.159 11.6318 221.904 11.6318C223.642 11.6318 225.209 12.0173 226.606 12.7885C228.01 13.5597 229.122 14.688 229.944 16.1734C230.766 17.6589 231.176 19.4698 231.176 21.6063ZM226.379 21.6063C226.379 20.3421 226.199 19.2739 225.838 18.4016C225.484 17.5293 224.972 16.8687 224.302 16.4199C223.639 15.9711 222.839 15.7467 221.904 15.7467C220.974 15.7467 220.175 15.9711 219.505 16.4199C218.835 16.8687 218.319 17.5293 217.959 18.4016C217.605 19.2739 217.428 20.3421 217.428 21.6063C217.428 22.8705 217.605 23.9388 217.959 24.8111C218.319 25.6834 218.835 26.3439 219.505 26.7927C220.175 27.2415 220.974 27.4659 221.904 27.4659C222.839 27.4659 223.639 27.2415 224.302 26.7927C224.972 26.3439 225.484 25.6834 225.838 24.8111C226.199 23.9388 226.379 22.8705 226.379 21.6063ZM250.443 11.8972V31.3154H246.461L238.733 20.1083H238.61V31.3154H233.917V11.8972H237.956L245.598 23.0855H245.759V11.8972H250.443ZM263.89 17.7189C263.827 17.0236 263.546 16.4831 263.046 16.0976C262.553 15.7057 261.848 15.5097 260.932 15.5097C260.325 15.5097 259.819 15.5887 259.415 15.7467C259.01 15.9048 258.707 16.1229 258.505 16.401C258.302 16.6728 258.198 16.9857 258.192 17.3396C258.179 17.6304 258.236 17.8864 258.362 18.1077C258.495 18.3289 258.685 18.5248 258.931 18.6955C259.184 18.8599 259.488 19.0052 259.842 19.1317C260.195 19.2581 260.594 19.3687 261.036 19.4635L262.705 19.8428C263.666 20.0514 264.513 20.3295 265.246 20.6771C265.986 21.0248 266.605 21.4388 267.104 21.9192C267.61 22.3996 267.992 22.9527 268.252 23.5785C268.511 24.2043 268.644 24.9059 268.65 25.6834C268.644 26.9097 268.334 27.9621 267.721 28.8407C267.108 29.7194 266.226 30.3926 265.075 30.8603C263.931 31.3281 262.55 31.5619 260.932 31.5619C259.307 31.5619 257.891 31.3186 256.684 30.8319C255.477 30.3452 254.538 29.6056 253.868 28.6132C253.198 27.6208 252.854 26.3661 252.835 24.849H257.329C257.367 25.4748 257.534 25.9963 257.831 26.4135C258.129 26.8307 258.536 27.1467 259.055 27.3616C259.579 27.5765 260.186 27.684 260.875 27.684C261.507 27.684 262.044 27.5987 262.487 27.428C262.936 27.2573 263.28 27.0203 263.52 26.7169C263.761 26.4135 263.884 26.0658 263.89 25.6739C263.884 25.3073 263.77 24.9944 263.549 24.7352C263.328 24.4698 262.986 24.2422 262.525 24.0526C262.07 23.8566 261.488 23.6765 260.78 23.5121L258.751 23.038C257.07 22.6525 255.745 22.0298 254.778 21.1702C253.811 20.3042 253.331 19.1348 253.337 17.662C253.331 16.461 253.653 15.4086 254.304 14.5047C254.955 13.6008 255.856 12.896 257.007 12.3903C258.157 11.8846 259.469 11.6318 260.941 11.6318C262.446 11.6318 263.751 11.8878 264.857 12.3998C265.97 12.9054 266.833 13.6166 267.446 14.5331C268.059 15.4497 268.372 16.5116 268.384 17.7189H263.89Z" fill="white"/>
</svg>
