<svg width="1218" height="217" viewBox="0 0 1218 217" fill="none" xmlns="http://www.w3.org/2000/svg">
<path d="M37.7349 48.4112V89H28.539L13.8731 67.675H13.6353V89H2.61607V48.4112H11.9705L26.3985 69.6569H26.7156V48.4112H37.7349ZM66.9675 48.4112H77.9867V74.4134C77.9867 77.5051 77.2468 80.1807 75.767 82.44C74.3004 84.6861 72.2525 86.4236 69.6232 87.6523C66.9939 88.8679 63.9418 89.4756 60.4669 89.4756C56.9656 89.4756 53.9003 88.8679 51.2711 87.6523C48.6418 86.4236 46.5938 84.6861 45.1272 82.44C43.6739 80.1807 42.9472 77.5051 42.9472 74.4134V48.4112H53.9664V73.4621C53.9664 74.7173 54.2439 75.8404 54.7988 76.8313C55.3537 77.809 56.12 78.5753 57.0978 79.1303C58.0887 79.6852 59.2118 79.9627 60.4669 79.9627C61.7353 79.9627 62.8584 79.6852 63.8361 79.1303C64.8138 78.5753 65.5802 77.809 66.1351 76.8313C66.69 75.8404 66.9675 74.7173 66.9675 73.4621V48.4112ZM83.2238 48.4112H96.9384L106.372 71.401H106.848L116.281 48.4112H129.996V89H119.215V65.5346H118.898L109.86 88.6829H103.36L94.3223 65.3761H94.0052V89H83.2238V48.4112ZM135.218 89V48.4112H152.817C155.909 48.4112 158.505 48.8274 160.606 49.6598C162.72 50.4922 164.312 51.6681 165.382 53.1876C166.466 54.707 167.007 56.4973 167.007 58.5584C167.007 60.0514 166.677 61.4123 166.017 62.6411C165.369 63.8699 164.457 64.9004 163.282 65.7328C162.106 66.552 160.732 67.1201 159.159 67.4372V67.8336C160.903 67.8997 162.489 68.3423 163.916 69.1615C165.343 69.9674 166.479 71.0839 167.325 72.5108C168.17 73.9246 168.593 75.5893 168.593 77.5051C168.593 79.7248 168.012 81.7001 166.849 83.4309C165.699 85.1618 164.061 86.5227 161.934 87.5136C159.807 88.5045 157.27 89 154.323 89H135.218ZM146.237 80.2005H151.39C153.24 80.2005 154.627 79.857 155.552 79.1699C156.477 78.4696 156.94 77.4391 156.94 76.0782C156.94 75.1269 156.722 74.3209 156.286 73.6603C155.85 72.9997 155.229 72.4976 154.423 72.1541C153.63 71.8106 152.672 71.6388 151.549 71.6388H146.237V80.2005ZM146.237 64.8212H150.756C151.721 64.8212 152.573 64.6692 153.313 64.3653C154.053 64.0614 154.627 63.6254 155.037 63.0573C155.46 62.4759 155.671 61.7691 155.671 60.9367C155.671 59.6815 155.222 58.7236 154.323 58.063C153.425 57.3891 152.289 57.0522 150.915 57.0522H146.237V64.8212ZM172.497 89V48.4112H201.75V57.29H183.516V64.2662H200.243V73.145H183.516V80.1212H201.67V89H172.497ZM207.215 89V48.4112H224.734C227.747 48.4112 230.383 48.9596 232.642 50.0562C234.901 51.1528 236.659 52.7317 237.914 54.7929C239.169 56.854 239.797 59.3248 239.797 62.2051C239.797 65.1118 239.149 67.5627 237.854 69.5578C236.573 71.5529 234.769 73.0591 232.444 74.0765C230.132 75.0939 227.43 75.6025 224.338 75.6025H213.874V67.0408H222.118C223.413 67.0408 224.516 66.8823 225.428 66.5652C226.353 66.2349 227.06 65.713 227.549 64.9995C228.051 64.286 228.302 63.3546 228.302 62.2051C228.302 61.0424 228.051 60.0977 227.549 59.371C227.06 58.6311 226.353 58.0894 225.428 57.7459C224.516 57.3891 223.413 57.2108 222.118 57.2108H218.234V89H207.215ZM230.997 70.3704L241.144 89H229.174L219.265 70.3704H230.997ZM294.932 68.7056C294.932 73.2243 294.054 77.0361 292.297 80.141C290.539 83.2327 288.168 85.578 285.182 87.1767C282.196 88.7622 278.866 89.5549 275.193 89.5549C271.493 89.5549 268.151 88.7556 265.165 87.1569C262.192 85.5449 259.827 83.1931 258.07 80.1014C256.326 76.9965 255.454 73.1979 255.454 68.7056C255.454 64.187 256.326 60.3818 258.07 57.29C259.827 54.1851 262.192 51.8399 265.165 50.2544C268.151 48.6557 271.493 47.8563 275.193 47.8563C278.866 47.8563 282.196 48.6557 285.182 50.2544C288.168 51.8399 290.539 54.1851 292.297 57.29C294.054 60.3818 294.932 64.187 294.932 68.7056ZM283.596 68.7056C283.596 66.2745 283.272 64.2266 282.625 62.5618C281.991 60.8838 281.046 59.6154 279.791 58.7566C278.549 57.8846 277.016 57.4486 275.193 57.4486C273.37 57.4486 271.83 57.8846 270.575 58.7566C269.333 59.6154 268.389 60.8838 267.741 62.5618C267.107 64.2266 266.79 66.2745 266.79 68.7056C266.79 71.1367 267.107 73.1913 267.741 74.8692C268.389 76.534 269.333 77.8024 270.575 78.6744C271.83 79.5333 273.37 79.9627 275.193 79.9627C277.016 79.9627 278.549 79.5333 279.791 78.6744C281.046 77.8024 281.991 76.534 282.625 74.8692C283.272 73.1913 283.596 71.1367 283.596 68.7056ZM300.031 89V48.4112H328.57V57.29H311.05V64.2662H326.826V73.145H311.05V89H300.031ZM381.634 63.632H370.457C370.377 62.7072 370.166 61.8682 369.822 61.115C369.492 60.3619 369.03 59.7145 368.435 59.1728C367.854 58.6179 367.147 58.1951 366.315 57.9044C365.482 57.6005 364.537 57.4486 363.48 57.4486C361.631 57.4486 360.065 57.8978 358.783 58.7963C357.515 59.6947 356.55 60.9829 355.89 62.6609C355.242 64.3389 354.919 66.3538 354.919 68.7056C354.919 71.1896 355.249 73.2705 355.91 74.9485C356.584 76.6133 357.555 77.8685 358.823 78.7141C360.091 79.5465 361.617 79.9627 363.401 79.9627C364.419 79.9627 365.33 79.8371 366.136 79.5861C366.942 79.3219 367.642 78.9453 368.237 78.4564C368.831 77.9676 369.314 77.3796 369.684 76.6926C370.067 75.9923 370.325 75.2062 370.457 74.3341L381.634 74.4134C381.502 76.131 381.02 77.8817 380.188 79.6654C379.355 81.4359 378.173 83.0742 376.64 84.5804C375.121 86.0734 373.238 87.2758 370.992 88.1874C368.746 89.0991 366.136 89.5549 363.163 89.5549C359.437 89.5549 356.095 88.7556 353.135 87.1569C350.189 85.5581 347.857 83.2063 346.139 80.1014C344.435 76.9965 343.582 73.1979 343.582 68.7056C343.582 64.187 344.454 60.3818 346.199 57.29C347.943 54.1851 350.294 51.8399 353.254 50.2544C356.214 48.6557 359.517 47.8563 363.163 47.8563C365.727 47.8563 368.085 48.2064 370.239 48.9067C372.392 49.607 374.282 50.6309 375.907 51.9786C377.532 53.3131 378.84 54.958 379.831 56.9135C380.822 58.8689 381.423 61.1084 381.634 63.632ZM425.954 68.7056C425.954 73.2243 425.075 77.0361 423.318 80.141C421.561 83.2327 419.189 85.578 416.203 87.1767C413.217 88.7622 409.888 89.5549 406.215 89.5549C402.515 89.5549 399.172 88.7556 396.186 87.1569C393.213 85.5449 390.848 83.1931 389.091 80.1014C387.347 76.9965 386.475 73.1979 386.475 68.7056C386.475 64.187 387.347 60.3818 389.091 57.29C390.848 54.1851 393.213 51.8399 396.186 50.2544C399.172 48.6557 402.515 47.8563 406.215 47.8563C409.888 47.8563 413.217 48.6557 416.203 50.2544C419.189 51.8399 421.561 54.1851 423.318 57.29C425.075 60.3818 425.954 64.187 425.954 68.7056ZM414.618 68.7056C414.618 66.2745 414.294 64.2266 413.647 62.5618C413.012 60.8838 412.068 59.6154 410.813 58.7566C409.571 57.8846 408.038 57.4486 406.215 57.4486C404.391 57.4486 402.852 57.8846 401.597 58.7566C400.355 59.6154 399.41 60.8838 398.763 62.5618C398.129 64.2266 397.811 66.2745 397.811 68.7056C397.811 71.1367 398.129 73.1913 398.763 74.8692C399.41 76.534 400.355 77.8024 401.597 78.6744C402.852 79.5333 404.391 79.9627 406.215 79.9627C408.038 79.9627 409.571 79.5333 410.813 78.6744C412.068 77.8024 413.012 76.534 413.647 74.8692C414.294 73.1913 414.618 71.1367 414.618 68.7056ZM466.171 48.4112V89H456.975L442.309 67.675H442.072V89H431.052V48.4112H440.407L454.835 69.6569H455.152V48.4112H466.171ZM482.482 48.4112L490.806 77.0295H491.123L499.447 48.4112H511.893L498.496 89H483.433L470.036 48.4112H482.482ZM515.802 89V48.4112H545.055V57.29H526.821V64.2662H543.548V73.145H526.821V80.1212H544.975V89H515.802ZM550.52 89V48.4112H568.039C571.052 48.4112 573.688 48.9596 575.947 50.0562C578.206 51.1528 579.964 52.7317 581.219 54.7929C582.474 56.854 583.102 59.3248 583.102 62.2051C583.102 65.1118 582.454 67.5627 581.159 69.5578C579.878 71.5529 578.074 73.0591 575.749 74.0765C573.437 75.0939 570.735 75.6025 567.643 75.6025H557.179V67.0408H565.423C566.718 67.0408 567.821 66.8823 568.733 66.5652C569.658 66.2349 570.365 65.713 570.854 64.9995C571.356 64.286 571.607 63.3546 571.607 62.2051C571.607 61.0424 571.356 60.0977 570.854 59.371C570.365 58.6311 569.658 58.0894 568.733 57.7459C567.821 57.3891 566.718 57.2108 565.423 57.2108H561.539V89H550.52ZM574.302 70.3704L584.449 89H572.479L562.569 70.3704H574.302ZM609.679 61.0952C609.573 59.774 609.077 58.7434 608.192 58.0035C607.32 57.2636 605.992 56.8937 604.209 56.8937C603.072 56.8937 602.141 57.0324 601.414 57.3099C600.701 57.5741 600.172 57.9374 599.829 58.3999C599.485 58.8623 599.307 59.3908 599.294 59.9854C599.267 60.4742 599.353 60.9169 599.551 61.3132C599.763 61.6964 600.093 62.0465 600.542 62.3636C600.991 62.6675 601.566 62.945 602.266 63.196C602.967 63.4471 603.799 63.6717 604.764 63.8699L608.093 64.5833C610.339 65.059 612.262 65.6866 613.86 66.4661C615.459 67.2456 616.767 68.1639 617.784 69.2209C618.802 70.2647 619.548 71.4406 620.024 72.7486C620.513 74.0567 620.764 75.4836 620.777 77.0295C620.764 79.6984 620.097 81.9577 618.775 83.8075C617.454 85.6572 615.565 87.0644 613.107 88.0289C610.663 88.9934 607.723 89.4756 604.288 89.4756C600.76 89.4756 597.682 88.9538 595.052 87.91C592.436 86.8662 590.402 85.2609 588.948 83.094C587.508 80.914 586.781 78.1261 586.768 74.7305H597.232C597.298 75.9725 597.609 77.0163 598.164 77.8619C598.719 78.7075 599.498 79.3483 600.502 79.7843C601.52 80.2203 602.729 80.4383 604.129 80.4383C605.305 80.4383 606.29 80.293 607.082 80.0023C607.875 79.7116 608.476 79.3086 608.886 78.7934C609.295 78.2781 609.507 77.6901 609.52 77.0295C609.507 76.4085 609.302 75.8668 608.906 75.4044C608.522 74.9287 607.888 74.5059 607.003 74.136C606.118 73.7528 604.922 73.3961 603.416 73.0657L599.373 72.1937C595.779 71.4142 592.945 70.1128 590.871 68.2894C588.809 66.4529 587.785 63.9491 587.799 60.7781C587.785 58.2017 588.473 55.949 589.86 54.0199C591.26 52.0777 593.196 50.5649 595.667 49.4815C598.151 48.398 600.998 47.8563 604.209 47.8563C607.485 47.8563 610.319 48.4046 612.711 49.5013C615.102 50.5979 616.945 52.1438 618.24 54.1389C619.548 56.1207 620.209 58.4395 620.222 61.0952H609.679ZM635.988 48.4112V89H624.969V48.4112H635.988ZM680.531 68.7056C680.531 73.2243 679.652 77.0361 677.895 80.141C676.137 83.2327 673.766 85.578 670.78 87.1767C667.794 88.7622 664.464 89.5549 660.791 89.5549C657.092 89.5549 653.749 88.7556 650.763 87.1569C647.79 85.5449 645.425 83.1931 643.668 80.1014C641.924 76.9965 641.052 73.1979 641.052 68.7056C641.052 64.187 641.924 60.3818 643.668 57.29C645.425 54.1851 647.79 51.8399 650.763 50.2544C653.749 48.6557 657.092 47.8563 660.791 47.8563C664.464 47.8563 667.794 48.6557 670.78 50.2544C673.766 51.8399 676.137 54.1851 677.895 57.29C679.652 60.3818 680.531 64.187 680.531 68.7056ZM669.194 68.7056C669.194 66.2745 668.871 64.2266 668.223 62.5618C667.589 60.8838 666.644 59.6154 665.389 58.7566C664.147 57.8846 662.614 57.4486 660.791 57.4486C658.968 57.4486 657.429 57.8846 656.173 58.7566C654.931 59.6154 653.987 60.8838 653.339 62.5618C652.705 64.2266 652.388 66.2745 652.388 68.7056C652.388 71.1367 652.705 73.1913 653.339 74.8692C653.987 76.534 654.931 77.8024 656.173 78.6744C657.429 79.5333 658.968 79.9627 660.791 79.9627C662.614 79.9627 664.147 79.5333 665.389 78.6744C666.644 77.8024 667.589 76.534 668.223 74.8692C668.871 73.1913 669.194 71.1367 669.194 68.7056ZM720.748 48.4112V89H711.552L696.886 67.675H696.648V89H685.629V48.4112H694.983L709.411 69.6569H709.728V48.4112H720.748ZM747.84 61.0952C747.734 59.774 747.239 58.7434 746.353 58.0035C745.481 57.2636 744.154 56.8937 742.37 56.8937C741.234 56.8937 740.302 57.0324 739.575 57.3099C738.862 57.5741 738.333 57.9374 737.99 58.3999C737.646 58.8623 737.468 59.3908 737.455 59.9854C737.428 60.4742 737.514 60.9169 737.713 61.3132C737.924 61.6964 738.254 62.0465 738.703 62.3636C739.153 62.6675 739.727 62.945 740.428 63.196C741.128 63.4471 741.96 63.6717 742.925 63.8699L746.254 64.5833C748.501 65.059 750.423 65.6866 752.022 66.4661C753.62 67.2456 754.928 68.1639 755.946 69.2209C756.963 70.2647 757.71 71.4406 758.185 72.7486C758.674 74.0567 758.925 75.4836 758.938 77.0295C758.925 79.6984 758.258 81.9577 756.937 83.8075C755.615 85.6572 753.726 87.0644 751.269 88.0289C748.824 88.9934 745.884 89.4756 742.449 89.4756C738.921 89.4756 735.843 88.9538 733.214 87.91C730.598 86.8662 728.563 85.2609 727.109 83.094C725.669 80.914 724.943 78.1261 724.929 74.7305H735.394C735.46 75.9725 735.77 77.0163 736.325 77.8619C736.88 78.7075 737.66 79.3483 738.664 79.7843C739.681 80.2203 740.89 80.4383 742.291 80.4383C743.467 80.4383 744.451 80.293 745.244 80.0023C746.036 79.7116 746.638 79.3086 747.047 78.7934C747.457 78.2781 747.668 77.6901 747.681 77.0295C747.668 76.4085 747.463 75.8668 747.067 75.4044C746.684 74.9287 746.05 74.5059 745.164 74.136C744.279 73.7528 743.083 73.3961 741.577 73.0657L737.534 72.1937C733.94 71.4142 731.106 70.1128 729.032 68.2894C726.971 66.4529 725.947 63.9491 725.96 60.7781C725.947 58.2017 726.634 55.949 728.021 54.0199C729.422 52.0777 731.357 50.5649 733.828 49.4815C736.312 48.398 739.159 47.8563 742.37 47.8563C745.647 47.8563 748.481 48.4046 750.872 49.5013C753.264 50.5979 755.107 52.1438 756.402 54.1389C757.71 56.1207 758.37 58.4395 758.383 61.0952H747.84ZM787.487 89.6342C784.58 89.6342 782.077 89.1189 779.976 88.0883C777.875 87.0578 776.263 85.6771 775.14 83.9462C774.017 82.2154 773.456 80.3062 773.456 78.2186C773.456 76.6992 773.746 75.3581 774.328 74.1954C774.909 73.0195 775.722 71.9427 776.765 70.965C777.809 69.9872 779.031 69.0227 780.432 68.0714L789.628 62.3636C790.553 61.7823 791.18 61.1811 791.51 60.5601C791.841 59.9259 792.006 59.3644 792.006 58.8755C792.006 58.2281 791.768 57.6534 791.292 57.1513C790.817 56.6492 790.077 56.4048 789.073 56.418C788.452 56.418 787.917 56.5369 787.467 56.7747C787.018 56.9994 786.668 57.3165 786.417 57.726C786.179 58.1356 786.06 58.6245 786.06 59.1926C786.06 59.9722 786.285 60.7715 786.734 61.5907C787.183 62.3967 787.798 63.2687 788.577 64.2068C789.357 65.1449 790.235 66.1952 791.213 67.3579L810.873 89H799.933L783.444 71.5595C782.638 70.7007 781.746 69.6503 780.769 68.4083C779.791 67.1532 778.945 65.7394 778.232 64.1671C777.532 62.5948 777.182 60.8838 777.182 59.0341C777.182 56.9729 777.677 55.0902 778.668 53.3857C779.659 51.6813 781.046 50.3204 782.83 49.3031C784.614 48.2857 786.694 47.777 789.073 47.777C791.345 47.777 793.301 48.2461 794.939 49.1842C796.591 50.1223 797.859 51.3708 798.744 52.9299C799.643 54.489 800.092 56.2066 800.092 58.0828C800.092 59.9722 799.623 61.736 798.685 63.3744C797.76 65.0127 796.432 66.4463 794.701 67.675L786.298 73.6207C785.651 74.0699 785.089 74.5852 784.614 75.1665C784.151 75.7479 783.92 76.501 783.92 77.4259C783.92 78.1922 784.098 78.8462 784.455 79.3879C784.812 79.9296 785.314 80.3458 785.961 80.6365C786.622 80.9272 787.395 81.0725 788.28 81.0725C789.628 81.0725 790.975 80.7488 792.323 80.1014C793.684 79.4408 794.926 78.5225 796.049 77.3466C797.172 76.1575 798.07 74.7569 798.744 73.145C799.431 71.5199 799.775 69.7494 799.775 67.8336H808.416C808.416 70.1854 808.171 72.4514 807.683 74.6314C807.194 76.8115 806.408 78.8066 805.324 80.6167C804.241 82.4268 802.814 83.9528 801.043 85.1948C800.488 85.4723 799.947 85.7365 799.418 85.9876C798.89 86.2386 798.348 86.5028 797.793 86.7803C796.168 87.8241 794.47 88.564 792.7 89C790.929 89.4228 789.192 89.6342 787.487 89.6342ZM845.943 89H834.051L847.449 48.4112H862.511L875.909 89H864.017L855.138 59.589H854.821L845.943 89ZM843.723 72.9865H866.078V81.2311H843.723V72.9865ZM915.804 63.632H904.626C904.547 62.7072 904.335 61.8682 903.992 61.115C903.661 60.3619 903.199 59.7145 902.604 59.1728C902.023 58.6179 901.316 58.1951 900.484 57.9044C899.651 57.6005 898.707 57.4486 897.65 57.4486C895.8 57.4486 894.234 57.8978 892.953 58.7963C891.684 59.6947 890.72 60.9829 890.059 62.6609C889.412 64.3389 889.088 66.3538 889.088 68.7056C889.088 71.1896 889.418 73.2705 890.079 74.9485C890.753 76.6133 891.724 77.8685 892.992 78.7141C894.261 79.5465 895.787 79.9627 897.57 79.9627C898.588 79.9627 899.499 79.8371 900.305 79.5861C901.111 79.3219 901.812 78.9453 902.406 78.4564C903.001 77.9676 903.483 77.3796 903.853 76.6926C904.236 75.9923 904.494 75.2062 904.626 74.3341L915.804 74.4134C915.671 76.131 915.189 77.8817 914.357 79.6654C913.524 81.4359 912.342 83.0742 910.809 84.5804C909.29 86.0734 907.407 87.2758 905.161 88.1874C902.915 89.0991 900.305 89.5549 897.333 89.5549C893.607 89.5549 890.264 88.7556 887.304 87.1569C884.358 85.5581 882.026 83.2063 880.308 80.1014C878.604 76.9965 877.752 73.1979 877.752 68.7056C877.752 64.187 878.624 60.3818 880.368 57.29C882.112 54.1851 884.464 51.8399 887.423 50.2544C890.383 48.6557 893.686 47.8563 897.333 47.8563C899.896 47.8563 902.254 48.2064 904.408 48.9067C906.561 49.607 908.451 50.6309 910.076 51.9786C911.701 53.3131 913.009 54.958 914 56.9135C914.991 58.8689 915.592 61.1084 915.804 63.632ZM958.696 63.632H947.519C947.439 62.7072 947.228 61.8682 946.884 61.115C946.554 60.3619 946.092 59.7145 945.497 59.1728C944.916 58.6179 944.209 58.1951 943.376 57.9044C942.544 57.6005 941.599 57.4486 940.542 57.4486C938.693 57.4486 937.127 57.8978 935.845 58.7963C934.577 59.6947 933.612 60.9829 932.952 62.6609C932.304 64.3389 931.981 66.3538 931.981 68.7056C931.981 71.1896 932.311 73.2705 932.972 74.9485C933.645 76.6133 934.617 77.8685 935.885 78.7141C937.153 79.5465 938.679 79.9627 940.463 79.9627C941.48 79.9627 942.392 79.8371 943.198 79.5861C944.004 79.3219 944.704 78.9453 945.299 78.4564C945.893 77.9676 946.376 77.3796 946.746 76.6926C947.129 75.9923 947.386 75.2062 947.519 74.3341L958.696 74.4134C958.564 76.131 958.082 77.8817 957.25 79.6654C956.417 81.4359 955.235 83.0742 953.702 84.5804C952.183 86.0734 950.3 87.2758 948.054 88.1874C945.808 89.0991 943.198 89.5549 940.225 89.5549C936.499 89.5549 933.157 88.7556 930.197 87.1569C927.251 85.5581 924.919 83.2063 923.201 80.1014C921.497 76.9965 920.644 73.1979 920.644 68.7056C920.644 64.187 921.516 60.3818 923.26 57.29C925.004 54.1851 927.356 51.8399 930.316 50.2544C933.275 48.6557 936.579 47.8563 940.225 47.8563C942.788 47.8563 945.147 48.2064 947.301 48.9067C949.454 49.607 951.344 50.6309 952.969 51.9786C954.594 53.3131 955.902 54.958 956.893 56.9135C957.884 58.8689 958.485 61.1084 958.696 63.632ZM1003.02 68.7056C1003.02 73.2243 1002.14 77.0361 1000.38 80.141C998.623 83.2327 996.251 85.578 993.265 87.1767C990.279 88.7622 986.95 89.5549 983.277 89.5549C979.577 89.5549 976.234 88.7556 973.248 87.1569C970.275 85.5449 967.91 83.1931 966.153 80.1014C964.409 76.9965 963.537 73.1979 963.537 68.7056C963.537 64.187 964.409 60.3818 966.153 57.29C967.91 54.1851 970.275 51.8399 973.248 50.2544C976.234 48.6557 979.577 47.8563 983.277 47.8563C986.95 47.8563 990.279 48.6557 993.265 50.2544C996.251 51.8399 998.623 54.1851 1000.38 57.29C1002.14 60.3818 1003.02 64.187 1003.02 68.7056ZM991.68 68.7056C991.68 66.2745 991.356 64.2266 990.709 62.5618C990.074 60.8838 989.13 59.6154 987.874 58.7566C986.632 57.8846 985.1 57.4486 983.277 57.4486C981.453 57.4486 979.914 57.8846 978.659 58.7566C977.417 59.6154 976.472 60.8838 975.825 62.5618C975.19 64.2266 974.873 66.2745 974.873 68.7056C974.873 71.1367 975.19 73.1913 975.825 74.8692C976.472 76.534 977.417 77.8024 978.659 78.6744C979.914 79.5333 981.453 79.9627 983.277 79.9627C985.1 79.9627 986.632 79.5333 987.874 78.6744C989.13 77.8024 990.074 76.534 990.709 74.8692C991.356 73.1913 991.68 71.1367 991.68 68.7056ZM1032.13 48.4112H1043.15V74.4134C1043.15 77.5051 1042.41 80.1807 1040.93 82.44C1039.47 84.6861 1037.42 86.4236 1034.79 87.6523C1032.16 88.8679 1029.11 89.4756 1025.63 89.4756C1022.13 89.4756 1019.07 88.8679 1016.44 87.6523C1013.81 86.4236 1011.76 84.6861 1010.29 82.44C1008.84 80.1807 1008.11 77.5051 1008.11 74.4134V48.4112H1019.13V73.4621C1019.13 74.7173 1019.41 75.8404 1019.97 76.8313C1020.52 77.809 1021.29 78.5753 1022.26 79.1303C1023.26 79.6852 1024.38 79.9627 1025.63 79.9627C1026.9 79.9627 1028.03 79.6852 1029 79.1303C1029.98 78.5753 1030.75 77.809 1031.3 76.8313C1031.86 75.8404 1032.13 74.7173 1032.13 73.4621V48.4112ZM1083.51 48.4112V89H1074.31L1059.65 67.675H1059.41V89H1048.39V48.4112H1057.75L1072.17 69.6569H1072.49V48.4112H1083.51ZM1087.61 57.29V48.4112H1122.89V57.29H1110.68V89H1099.82V57.29H1087.61ZM1148.92 61.0952C1148.81 59.774 1148.32 58.7434 1147.43 58.0035C1146.56 57.2636 1145.23 56.8937 1143.45 56.8937C1142.31 56.8937 1141.38 57.0324 1140.65 57.3099C1139.94 57.5741 1139.41 57.9374 1139.07 58.3999C1138.72 58.8623 1138.54 59.3908 1138.53 59.9854C1138.51 60.4742 1138.59 60.9169 1138.79 61.3132C1139 61.6964 1139.33 62.0465 1139.78 62.3636C1140.23 62.6675 1140.8 62.945 1141.5 63.196C1142.2 63.4471 1143.04 63.6717 1144 63.8699L1147.33 64.5833C1149.58 65.059 1151.5 65.6866 1153.1 66.4661C1154.7 67.2456 1156 68.1639 1157.02 69.2209C1158.04 70.2647 1158.79 71.4406 1159.26 72.7486C1159.75 74.0567 1160 75.4836 1160.01 77.0295C1160 79.6984 1159.33 81.9577 1158.01 83.8075C1156.69 85.6572 1154.8 87.0644 1152.35 88.0289C1149.9 88.9934 1146.96 89.4756 1143.53 89.4756C1140 89.4756 1136.92 88.9538 1134.29 87.91C1131.67 86.8662 1129.64 85.2609 1128.19 83.094C1126.75 80.914 1126.02 78.1261 1126.01 74.7305H1136.47C1136.54 75.9725 1136.85 77.0163 1137.4 77.8619C1137.96 78.7075 1138.74 79.3483 1139.74 79.7843C1140.76 80.2203 1141.97 80.4383 1143.37 80.4383C1144.54 80.4383 1145.53 80.293 1146.32 80.0023C1147.11 79.7116 1147.71 79.3086 1148.12 78.7934C1148.53 78.2781 1148.74 77.6901 1148.76 77.0295C1148.74 76.4085 1148.54 75.8668 1148.14 75.4044C1147.76 74.9287 1147.13 74.5059 1146.24 74.136C1145.36 73.7528 1144.16 73.3961 1142.65 73.0657L1138.61 72.1937C1135.02 71.4142 1132.18 70.1128 1130.11 68.2894C1128.05 66.4529 1127.02 63.9491 1127.04 60.7781C1127.02 58.2017 1127.71 55.949 1129.1 54.0199C1130.5 52.0777 1132.43 50.5649 1134.9 49.4815C1137.39 48.398 1140.24 47.8563 1143.45 47.8563C1146.72 47.8563 1149.56 48.4046 1151.95 49.5013C1154.34 50.5979 1156.18 52.1438 1157.48 54.1389C1158.79 56.1207 1159.45 58.4395 1159.46 61.0952H1148.92Z" fill="#02B873"/>
<rect y="103" width="701" height="66" rx="33" fill="#02B873"/>
<path d="M30.6161 156.5V115.911H48.2153C51.307 115.911 53.9033 116.327 56.0041 117.159C58.1181 117.992 59.7102 119.168 60.7805 120.687C61.8639 122.207 62.4056 123.997 62.4056 126.058C62.4056 127.551 62.0753 128.912 61.4147 130.141C60.7672 131.37 59.8556 132.4 58.6796 133.233C57.5037 134.052 56.1296 134.62 54.5573 134.937V135.333C56.3014 135.399 57.8869 135.842 59.3139 136.661C60.7408 137.467 61.8771 138.584 62.7227 140.011C63.5683 141.424 63.9911 143.089 63.9911 145.005C63.9911 147.225 63.4098 149.2 62.247 150.931C61.0976 152.662 59.4592 154.023 57.332 155.014C55.2047 156.005 52.6679 156.5 49.7215 156.5H30.6161ZM41.6354 147.7H46.7883C48.6381 147.7 50.0254 147.357 50.9503 146.67C51.8752 145.97 52.3376 144.939 52.3376 143.578C52.3376 142.627 52.1196 141.821 51.6836 141.16C51.2476 140.5 50.6266 139.997 49.8206 139.654C49.0278 139.31 48.0699 139.139 46.9469 139.139H41.6354V147.7ZM41.6354 132.321H46.1541C47.1186 132.321 47.9708 132.169 48.7107 131.865C49.4506 131.561 50.0254 131.125 50.435 130.557C50.8578 129.976 51.0692 129.269 51.0692 128.436C51.0692 127.181 50.62 126.223 49.7215 125.563C48.8231 124.889 47.6868 124.552 46.3127 124.552H41.6354V132.321ZM65.6725 115.911H77.9603L85.8878 132.4H86.2049L94.1325 115.911H106.42L91.5164 143.737V156.5H80.5763V143.737L65.6725 115.911ZM120.015 156.5V115.911H137.534C140.547 115.911 143.183 116.459 145.442 117.556C147.702 118.653 149.459 120.231 150.714 122.293C151.969 124.354 152.597 126.825 152.597 129.705C152.597 132.612 151.949 135.063 150.655 137.058C149.373 139.053 147.569 140.559 145.244 141.576C142.932 142.594 140.23 143.102 137.138 143.102H126.674V134.541H134.918C136.213 134.541 137.316 134.382 138.228 134.065C139.153 133.735 139.86 133.213 140.349 132.499C140.851 131.786 141.102 130.854 141.102 129.705C141.102 128.542 140.851 127.597 140.349 126.871C139.86 126.131 139.153 125.589 138.228 125.246C137.316 124.889 136.213 124.71 134.918 124.71H131.034V156.5H120.015ZM143.797 137.87L153.944 156.5H141.974L132.064 137.87H143.797ZM156.736 156.5V115.911H185.988V124.79H167.755V131.766H184.482V140.645H167.755V147.621H185.909V156.5H156.736ZM201.201 156.5L189.231 115.911H201.518L207.068 140.883H207.385L213.965 115.911H223.636L230.216 140.962H230.533L236.083 115.911H248.37L236.4 156.5H225.856L218.959 133.827H218.642L211.745 156.5H201.201ZM257.182 156.5H245.29L258.688 115.911H273.75L287.148 156.5H275.256L266.377 127.089H266.06L257.182 156.5ZM254.962 140.486H277.318V148.731H254.962V140.486ZM290.499 156.5V115.911H308.019C311.031 115.911 313.667 116.459 315.926 117.556C318.186 118.653 319.943 120.231 321.198 122.293C322.454 124.354 323.081 126.825 323.081 129.705C323.081 132.612 322.434 135.063 321.139 137.058C319.857 139.053 318.054 140.559 315.728 141.576C313.416 142.594 310.714 143.102 307.622 143.102H297.158V134.541H305.403C306.697 134.541 307.801 134.382 308.712 134.065C309.637 133.735 310.344 133.213 310.833 132.499C311.335 131.786 311.586 130.854 311.586 129.705C311.586 128.542 311.335 127.597 310.833 126.871C310.344 126.131 309.637 125.589 308.712 125.246C307.801 124.889 306.697 124.71 305.403 124.71H301.518V156.5H290.499ZM314.282 137.87L324.429 156.5H312.458L302.549 137.87H314.282ZM342.837 156.5H327.22V115.911H342.679C346.854 115.911 350.461 116.723 353.5 118.349C356.552 119.961 358.904 122.286 360.555 125.325C362.22 128.351 363.053 131.977 363.053 136.205C363.053 140.433 362.227 144.067 360.575 147.106C358.924 150.132 356.585 152.457 353.559 154.082C350.534 155.694 346.96 156.5 342.837 156.5ZM338.239 147.145H342.441C344.449 147.145 346.16 146.822 347.574 146.174C349.001 145.527 350.084 144.41 350.824 142.825C351.578 141.239 351.954 139.033 351.954 136.205C351.954 133.378 351.571 131.171 350.805 129.586C350.051 128 348.942 126.884 347.475 126.237C346.022 125.589 344.238 125.265 342.124 125.265H338.239V147.145ZM389.473 128.595C389.367 127.274 388.872 126.243 387.987 125.503C387.115 124.763 385.787 124.393 384.003 124.393C382.867 124.393 381.935 124.532 381.209 124.81C380.495 125.074 379.967 125.437 379.623 125.9C379.28 126.362 379.101 126.891 379.088 127.485C379.061 127.974 379.147 128.417 379.346 128.813C379.557 129.196 379.887 129.546 380.337 129.863C380.786 130.167 381.36 130.445 382.061 130.696C382.761 130.947 383.593 131.171 384.558 131.37L387.888 132.083C390.134 132.559 392.056 133.186 393.655 133.966C395.254 134.745 396.562 135.664 397.579 136.721C398.596 137.765 399.343 138.94 399.818 140.249C400.307 141.557 400.558 142.984 400.572 144.529C400.558 147.198 399.891 149.458 398.57 151.307C397.249 153.157 395.359 154.564 392.902 155.529C390.457 156.493 387.518 156.976 384.082 156.976C380.555 156.976 377.476 156.454 374.847 155.41C372.231 154.366 370.196 152.761 368.742 150.594C367.302 148.414 366.576 145.626 366.562 142.23H377.027C377.093 143.472 377.403 144.516 377.958 145.362C378.513 146.207 379.293 146.848 380.297 147.284C381.314 147.72 382.523 147.938 383.924 147.938C385.1 147.938 386.084 147.793 386.877 147.502C387.67 147.212 388.271 146.809 388.68 146.293C389.09 145.778 389.301 145.19 389.314 144.529C389.301 143.908 389.096 143.367 388.7 142.904C388.317 142.429 387.683 142.006 386.797 141.636C385.912 141.253 384.716 140.896 383.21 140.566L379.167 139.694C375.573 138.914 372.739 137.613 370.665 135.789C368.604 133.953 367.58 131.449 367.593 128.278C367.58 125.701 368.267 123.449 369.654 121.52C371.055 119.577 372.99 118.065 375.461 116.981C377.945 115.898 380.792 115.356 384.003 115.356C387.28 115.356 390.114 115.904 392.505 117.001C394.897 118.098 396.74 119.643 398.035 121.639C399.343 123.62 400.003 125.939 400.017 128.595H389.473ZM414.765 156.5V115.911H432.285C435.298 115.911 437.934 116.505 440.193 117.695C442.452 118.884 444.21 120.555 445.465 122.709C446.72 124.862 447.348 127.379 447.348 130.26C447.348 133.167 446.7 135.684 445.405 137.811C444.124 139.938 442.32 141.576 439.995 142.726C437.683 143.875 434.981 144.45 431.889 144.45H421.425V135.888H429.669C430.964 135.888 432.067 135.664 432.979 135.215C433.904 134.752 434.611 134.098 435.1 133.252C435.602 132.407 435.853 131.409 435.853 130.26C435.853 129.097 435.602 128.106 435.1 127.287C434.611 126.455 433.904 125.82 432.979 125.384C432.067 124.935 430.964 124.71 429.669 124.71H425.785V156.5H414.765ZM456.308 156.5H444.416L457.814 115.911H472.876L486.274 156.5H474.382L465.504 127.089H465.187L456.308 156.5ZM454.088 140.486H476.444V148.731H454.088V140.486ZM489.625 156.5V115.911H507.145C510.157 115.911 512.793 116.459 515.053 117.556C517.312 118.653 519.069 120.231 520.324 122.293C521.58 124.354 522.207 126.825 522.207 129.705C522.207 132.612 521.56 135.063 520.265 137.058C518.983 139.053 517.18 140.559 514.854 141.576C512.542 142.594 509.84 143.102 506.749 143.102H496.284V134.541H504.529C505.824 134.541 506.927 134.382 507.839 134.065C508.763 133.735 509.47 133.213 509.959 132.499C510.461 131.786 510.712 130.854 510.712 129.705C510.712 128.542 510.461 127.597 509.959 126.871C509.47 126.131 508.763 125.589 507.839 125.246C506.927 124.889 505.824 124.71 504.529 124.71H500.644V156.5H489.625ZM513.408 137.87L523.555 156.5H511.584L501.675 137.87H513.408ZM525.236 124.79V115.911H560.514V124.79H548.306V156.5H537.445V124.79H525.236ZM599.222 115.911V156.5H590.026L575.36 135.175H575.122V156.5H564.103V115.911H573.458L587.886 137.157H588.203V115.911H599.222ZM603.876 156.5V115.911H633.129V124.79H614.896V131.766H631.623V140.645H614.896V147.621H633.05V156.5H603.876ZM638.036 156.5V115.911H655.556C658.568 115.911 661.204 116.459 663.464 117.556C665.723 118.653 667.48 120.231 668.735 122.293C669.991 124.354 670.618 126.825 670.618 129.705C670.618 132.612 669.971 135.063 668.676 137.058C667.394 139.053 665.591 140.559 663.265 141.576C660.953 142.594 658.251 143.102 655.16 143.102H644.695V134.541H652.94C654.235 134.541 655.338 134.382 656.25 134.065C657.174 133.735 657.881 133.213 658.37 132.499C658.872 131.786 659.123 130.854 659.123 129.705C659.123 128.542 658.872 127.597 658.37 126.871C657.881 126.131 657.174 125.589 656.25 125.246C655.338 124.889 654.235 124.71 652.94 124.71H649.055V156.5H638.036ZM661.819 137.87L671.966 156.5H659.995L650.086 137.87H661.819Z" fill="white"/>
</svg>
