<svg width="731" height="287" viewBox="0 0 731 287" fill="none" xmlns="http://www.w3.org/2000/svg">
<g clip-path="url(#clip0_155_70)">
<path d="M2.61607 65.2275V24.6388H31.8685V33.5176H13.6353V40.4938H30.3623V49.3726H13.6353V56.3487H31.7892V65.2275H2.61607ZM72.4523 24.6388V65.2275H63.2564L48.5906 43.9026H48.3527V65.2275H37.3335V24.6388H46.688L61.116 45.8845H61.4331V24.6388H72.4523ZM88.7631 24.6388L97.087 53.257H97.4041L105.728 24.6388H118.174L104.777 65.2275H89.7144L76.317 24.6388H88.7631ZM133.103 24.6388V65.2275H122.083V24.6388H133.103ZM138.325 65.2275V24.6388H155.845C158.857 24.6388 161.493 25.1871 163.752 26.2837C166.012 27.3804 167.769 28.9593 169.024 31.0204C170.279 33.0816 170.907 35.5523 170.907 38.4326C170.907 41.3394 170.259 43.7903 168.965 45.7854C167.683 47.7805 165.879 49.2867 163.554 50.304C161.242 51.3214 158.54 51.8301 155.448 51.8301H144.984V43.2684H153.228C154.523 43.2684 155.627 43.1098 156.538 42.7927C157.463 42.4624 158.17 41.9405 158.659 41.2271C159.161 40.5136 159.412 39.5821 159.412 38.4326C159.412 37.2699 159.161 36.3252 158.659 35.5985C158.17 34.8586 157.463 34.3169 156.538 33.9734C155.627 33.6167 154.523 33.4383 153.228 33.4383H149.344V65.2275H138.325ZM162.107 46.5979L172.254 65.2275H160.284L150.375 46.5979H162.107ZM214.924 44.9332C214.924 49.4518 214.046 53.2636 212.288 56.3686C210.531 59.4603 208.159 61.8055 205.173 63.4042C202.187 64.9897 198.858 65.7825 195.185 65.7825C191.485 65.7825 188.142 64.9831 185.156 63.3844C182.184 61.7725 179.819 59.4207 178.061 56.3289C176.317 53.224 175.445 49.4254 175.445 44.9332C175.445 40.4145 176.317 36.6093 178.061 33.5176C179.819 30.4126 182.184 28.0674 185.156 26.4819C188.142 24.8832 191.485 24.0839 195.185 24.0839C198.858 24.0839 202.187 24.8832 205.173 26.4819C208.159 28.0674 210.531 30.4126 212.288 33.5176C214.046 36.6093 214.924 40.4145 214.924 44.9332ZM203.588 44.9332C203.588 42.5021 203.264 40.4541 202.617 38.7894C201.983 37.1114 201.038 35.843 199.783 34.9842C198.541 34.1121 197.008 33.6761 195.185 33.6761C193.361 33.6761 191.822 34.1121 190.567 34.9842C189.325 35.843 188.38 37.1114 187.733 38.7894C187.099 40.4541 186.782 42.5021 186.782 44.9332C186.782 47.3643 187.099 49.4188 187.733 51.0968C188.38 52.7616 189.325 54.03 190.567 54.902C191.822 55.7608 193.361 56.1902 195.185 56.1902C197.008 56.1902 198.541 55.7608 199.783 54.902C201.038 54.03 201.983 52.7616 202.617 51.0968C203.264 49.4188 203.588 47.3643 203.588 44.9332ZM220.023 24.6388H233.737L243.171 47.6285H243.646L253.08 24.6388H266.795V65.2275H256.013V41.7622H255.696L246.659 64.9104H240.158L231.121 41.6036H230.804V65.2275H220.023V24.6388ZM272.017 65.2275V24.6388H301.269V33.5176H283.036V40.4938H299.763V49.3726H283.036V56.3487H301.19V65.2275H272.017ZM341.853 24.6388V65.2275H332.657L317.991 43.9026H317.754V65.2275H306.734V24.6388H316.089L330.517 45.8845H330.834V24.6388H341.853ZM345.956 33.5176V24.6388H381.233V33.5176H369.025V65.2275H358.164V33.5176H345.956ZM390.801 65.2275H378.909L392.307 24.6388H407.369L420.766 65.2275H408.875L399.996 35.8165H399.679L390.801 65.2275ZM388.581 49.214H410.936V57.4586H388.581V49.214ZM424.676 65.2275V24.6388H435.695V56.3487H452.105V65.2275H424.676ZM478.697 24.6388V65.2275H467.677V24.6388H478.697ZM483.919 24.6388H497.633L507.067 47.6285H507.543L516.976 24.6388H530.691V65.2275H519.91V41.7622H519.593L510.555 64.9104H504.055L495.017 41.6036H494.7V65.2275H483.919V24.6388ZM535.913 65.2275V24.6388H553.433C556.445 24.6388 559.081 25.2333 561.341 26.4225C563.6 27.6116 565.357 29.283 566.612 31.4366C567.868 33.5902 568.495 36.1072 568.495 38.9875C568.495 41.8943 567.848 44.4113 566.553 46.5385C565.271 48.6657 563.468 50.304 561.142 51.4535C558.83 52.603 556.128 53.1778 553.037 53.1778H542.572V44.6161H550.817C552.112 44.6161 553.215 44.3914 554.127 43.9422C555.052 43.4798 555.758 42.8258 556.247 41.9802C556.749 41.1346 557 40.137 557 38.9875C557 37.8248 556.749 36.8339 556.247 36.0147C555.758 35.1823 555.052 34.5481 554.127 34.1121C553.215 33.6629 552.112 33.4383 550.817 33.4383H546.932V65.2275H535.913ZM578.013 65.2275H566.122L579.519 24.6388H594.582L607.979 65.2275H596.088L587.209 35.8165H586.892L578.013 65.2275ZM575.794 49.214H598.149V57.4586H575.794V49.214ZM647.874 39.8596H636.696C636.617 38.9347 636.406 38.0957 636.062 37.3426C635.732 36.5895 635.27 35.9421 634.675 35.4004C634.094 34.8454 633.387 34.4226 632.554 34.132C631.722 33.8281 630.777 33.6761 629.72 33.6761C627.871 33.6761 626.305 34.1253 625.023 35.0238C623.755 35.9222 622.79 37.2105 622.13 38.8884C621.482 40.5664 621.159 42.5813 621.159 44.9332C621.159 47.4171 621.489 49.4981 622.15 51.1761C622.823 52.8408 623.794 54.096 625.063 54.9416C626.331 55.774 627.857 56.1902 629.641 56.1902C630.658 56.1902 631.57 56.0647 632.376 55.8136C633.182 55.5494 633.882 55.1728 634.477 54.684C635.071 54.1951 635.554 53.6072 635.924 52.9201C636.307 52.2198 636.564 51.4337 636.696 50.5617L647.874 50.641C647.742 52.3586 647.26 54.1092 646.427 55.8929C645.595 57.6634 644.413 59.3017 642.88 60.808C641.36 62.301 639.478 63.5033 637.232 64.415C634.985 65.3266 632.376 65.7825 629.403 65.7825C625.677 65.7825 622.334 64.9831 619.375 63.3844C616.429 61.7857 614.097 59.4339 612.379 56.3289C610.674 53.224 609.822 49.4254 609.822 44.9332C609.822 40.4145 610.694 36.6093 612.438 33.5176C614.182 30.4126 616.534 28.0674 619.494 26.4819C622.453 24.8832 625.757 24.0839 629.403 24.0839C631.966 24.0839 634.325 24.434 636.478 25.1342C638.632 25.8345 640.521 26.8585 642.147 28.2062C643.772 29.5406 645.08 31.1856 646.071 33.141C647.062 35.0965 647.663 37.336 647.874 39.8596ZM651.764 33.5176V24.6388H687.041V33.5176H674.833V65.2275H663.972V33.5176H651.764Z" fill="#02B873"/>
</g>
<g clip-path="url(#clip1_155_70)">
<rect x="2.41699" y="89.2197" width="197.308" height="197.306" rx="12.825" fill="#02B873"/>
<path d="M56.0822 148.576C67.1534 147.026 70.9663 150.569 76.2816 155.465C81.3985 160.188 87.7463 166.068 101.892 168.848C103.689 169.193 105.484 169.365 107.256 169.365C118.573 169.365 129.178 162.501 133.802 152.291C138.402 155.932 142.314 160.188 144.997 165.035C145.439 165.847 146.276 166.291 147.162 166.291C147.556 166.291 147.974 166.192 148.343 165.97C149.523 165.305 149.967 163.805 149.302 162.624C145.98 156.621 141.135 151.504 135.525 147.247C135.574 147.002 135.649 146.781 135.698 146.558C137.247 139.054 135.771 131.427 131.565 125.03C127.358 118.634 120.911 114.279 113.407 112.73C73.5272 104.512 53.7212 144.664 53.5245 145.082C53.131 145.893 53.2286 146.878 53.7456 147.59C54.2855 148.329 55.1716 148.722 56.0822 148.576ZM112.422 117.551C118.622 118.83 123.96 122.446 127.454 127.736C130.677 132.632 131.932 138.438 131.095 144.195C121.992 138.438 111.437 134.773 101.72 133.321L95.1754 126.776C94.216 125.817 92.6665 125.817 91.7072 126.776C90.7478 127.736 90.7478 129.285 91.7072 130.245L94.0697 132.607C87.7463 132.435 82.1123 133.345 77.9791 135.412C76.7742 136.027 76.2816 137.503 76.8718 138.709C77.4864 139.914 78.9628 140.431 80.1693 139.817C87.7219 136.028 101.967 137.061 115.547 142.179L111.365 146.361C110.406 147.321 110.406 148.87 111.365 149.829C111.858 150.322 112.472 150.543 113.111 150.543C113.75 150.543 114.367 150.298 114.858 149.829L120.467 144.22C123.666 145.696 126.791 147.394 129.717 149.312C125.584 159.67 114.144 166.214 102.827 164C90.0584 161.491 84.4976 156.348 79.6018 151.846C74.854 147.467 70.3517 143.283 60.8788 143.283C60.6332 143.283 60.3861 143.283 60.1406 143.283C65.9225 133.885 83.0456 111.473 112.42 117.525L112.422 117.551Z" fill="white"/>
<path d="M81.8652 232.987C83.3903 226.197 85.309 217.758 80.6343 204.127C76.28 191.407 63.2397 183.486 50.3246 184.765C51.1604 178.959 52.9083 173.473 55.7619 168.699C56.4513 167.543 56.0822 166.018 54.9261 165.328C53.7456 164.615 52.2449 165.008 51.5555 166.164C48.0369 172.044 45.9946 178.785 45.1345 185.798C44.9134 185.871 44.6679 185.921 44.4451 185.994C29.4618 190.965 21.3173 207.228 26.2879 222.211C37.3835 255.622 72.2459 257.958 81.8164 257.958C83.3172 257.958 84.2033 257.909 84.2521 257.885C85.1626 257.812 85.9496 257.246 86.3187 256.433C86.6878 255.597 86.5642 254.636 85.9984 253.924C79.1335 245.116 80.2652 240.024 81.8652 232.987ZM30.9626 220.636C26.9773 208.654 33.1284 195.763 44.715 191.137C44.2971 201.888 46.3881 212.862 49.9799 222.013L47.593 230.944C47.2483 232.248 48.0109 233.601 49.3393 233.946C49.5604 233.995 49.7571 234.019 49.9783 234.019C51.0612 234.019 52.0693 233.305 52.3652 232.198L53.227 228.975C56.2529 234.536 59.8447 238.964 63.708 241.499C64.1258 241.768 64.5941 241.916 65.0608 241.916C65.8477 241.916 66.6347 241.523 67.1274 240.809C67.8656 239.677 67.5696 238.152 66.438 237.39C59.4024 232.739 53.1522 219.897 50.7913 205.579L56.4984 207.104C56.7195 207.153 56.9163 207.178 57.1374 207.178C58.2203 207.178 59.2284 206.464 59.5243 205.356C59.8691 204.052 59.1065 202.7 57.7781 202.355L50.1019 200.288C49.7815 196.77 49.684 193.202 49.9051 189.71C51.0124 189.562 52.0953 189.464 53.2026 189.464C63.1177 189.464 72.7126 195.861 76.0588 205.677C80.2652 218.003 78.6181 225.359 77.1417 231.879C75.6897 238.349 74.2882 244.476 79.4783 253.014C68.4558 252.718 40.4826 249.077 31.0357 220.611L30.9626 220.636Z" fill="white"/>
<path d="M166.596 174.901C166.079 174.162 165.194 173.745 164.308 173.842C163.398 173.941 162.635 174.532 162.29 175.367C158.108 185.725 153.113 187.274 146.224 189.416C139.582 191.482 131.316 194.042 121.843 204.916C112.986 215.052 112.666 230.306 120.218 240.835C114.954 242.926 109.516 244.182 104.178 244.182C103.981 244.182 103.785 244.182 103.612 244.182H103.564C102.235 244.182 101.128 245.265 101.104 246.593C101.104 247.946 102.162 249.077 103.515 249.102H104.204C110.822 249.102 117.44 247.502 123.739 244.845C123.911 245.017 124.059 245.19 124.256 245.362C129.693 250.209 136.507 252.57 143.273 252.57C151.17 252.57 159.043 249.323 164.702 242.975C191.764 212.542 166.892 175.319 166.62 174.949L166.596 174.901ZM160.986 239.679C152.596 249.102 138.351 250.233 128.584 242.508C138.106 237.514 146.569 230.208 152.694 222.507L161.625 220.12C162.929 219.776 163.716 218.423 163.372 217.119C163.027 215.815 161.674 215.028 160.37 215.373L157.147 216.234C160.469 210.846 162.486 205.508 162.757 200.906C162.83 199.554 161.798 198.373 160.445 198.298C159.068 198.175 157.912 199.258 157.837 200.61C157.32 209.049 149.325 220.859 138.106 230.084L136.581 224.377C136.236 223.073 134.883 222.286 133.579 222.631C132.275 222.976 131.488 224.329 131.833 225.633L133.875 233.309C130.997 235.351 127.971 237.196 124.822 238.77C117.932 230.011 117.983 216.825 125.56 208.165C134.122 198.349 141.33 196.11 147.702 194.141C154.026 192.173 160.029 190.303 164.825 181.593C169.967 191.336 180.669 217.587 161.012 239.704L160.986 239.679Z" fill="white"/>
</g>
<defs>
<clipPath id="clip0_155_70">
<rect width="731" height="89" fill="white" transform="translate(0 0.227539)"/>
</clipPath>
<clipPath id="clip1_155_70">
<rect width="200.07" height="197.505" fill="white" transform="translate(0 89.2275)"/>
</clipPath>
</defs>
</svg>
