<svg width="512" height="342" viewBox="0 0 512 342" fill="none" xmlns="http://www.w3.org/2000/svg">
<path d="M2.61607 65V24.4112H31.8685V33.29H13.6353V40.2662H30.3623V49.145H13.6353V56.1212H31.7892V65H2.61607ZM72.4523 24.4112V65H63.2564L48.5906 43.675H48.3527V65H37.3335V24.4112H46.688L61.116 45.6569H61.4331V24.4112H72.4523ZM88.7631 24.4112L97.087 53.0295H97.4041L105.728 24.4112H118.174L104.777 65H89.7144L76.317 24.4112H88.7631ZM133.103 24.4112V65H122.083V24.4112H133.103ZM138.325 65V24.4112H155.845C158.857 24.4112 161.493 24.9596 163.752 26.0562C166.012 27.1528 167.769 28.7317 169.024 30.7929C170.279 32.854 170.907 35.3248 170.907 38.2051C170.907 41.1118 170.259 43.5627 168.965 45.5578C167.683 47.5529 165.879 49.0591 163.554 50.0765C161.242 51.0939 158.54 51.6025 155.448 51.6025H144.984V43.0408H153.228C154.523 43.0408 155.627 42.8823 156.538 42.5652C157.463 42.2349 158.17 41.713 158.659 40.9995C159.161 40.286 159.412 39.3546 159.412 38.2051C159.412 37.0424 159.161 36.0977 158.659 35.371C158.17 34.6311 157.463 34.0894 156.538 33.7459C155.627 33.3891 154.523 33.2108 153.228 33.2108H149.344V65H138.325ZM162.107 46.3704L172.254 65H160.284L150.375 46.3704H162.107ZM214.924 44.7056C214.924 49.2243 214.046 53.0361 212.288 56.141C210.531 59.2327 208.159 61.578 205.173 63.1767C202.187 64.7622 198.858 65.5549 195.185 65.5549C191.485 65.5549 188.142 64.7556 185.156 63.1569C182.184 61.5449 179.819 59.1931 178.061 56.1014C176.317 52.9965 175.445 49.1979 175.445 44.7056C175.445 40.187 176.317 36.3818 178.061 33.29C179.819 30.1851 182.184 27.8399 185.156 26.2544C188.142 24.6557 191.485 23.8563 195.185 23.8563C198.858 23.8563 202.187 24.6557 205.173 26.2544C208.159 27.8399 210.531 30.1851 212.288 33.29C214.046 36.3818 214.924 40.187 214.924 44.7056ZM203.588 44.7056C203.588 42.2745 203.264 40.2266 202.617 38.5618C201.983 36.8838 201.038 35.6154 199.783 34.7566C198.541 33.8846 197.008 33.4486 195.185 33.4486C193.361 33.4486 191.822 33.8846 190.567 34.7566C189.325 35.6154 188.38 36.8838 187.733 38.5618C187.099 40.2266 186.782 42.2745 186.782 44.7056C186.782 47.1367 187.099 49.1913 187.733 50.8692C188.38 52.534 189.325 53.8024 190.567 54.6744C191.822 55.5333 193.361 55.9627 195.185 55.9627C197.008 55.9627 198.541 55.5333 199.783 54.6744C201.038 53.8024 201.983 52.534 202.617 50.8692C203.264 49.1913 203.588 47.1367 203.588 44.7056ZM220.023 24.4112H233.737L243.171 47.401H243.646L253.08 24.4112H266.795V65H256.013V41.5346H255.696L246.659 64.6829H240.158L231.121 41.3761H230.804V65H220.023V24.4112ZM272.017 65V24.4112H301.269V33.29H283.036V40.2662H299.763V49.145H283.036V56.1212H301.19V65H272.017ZM341.853 24.4112V65H332.657L317.991 43.675H317.754V65H306.734V24.4112H316.089L330.517 45.6569H330.834V24.4112H341.853ZM345.956 33.29V24.4112H381.233V33.29H369.025V65H358.164V33.29H345.956ZM390.801 65H378.909L392.307 24.4112H407.369L420.766 65H408.875L399.996 35.589H399.679L390.801 65ZM388.581 48.9865H410.936V57.2311H388.581V48.9865ZM424.676 65V24.4112H435.695V56.1212H452.105V65H424.676ZM13.6353 79.4112V120H2.61607V79.4112H13.6353ZM18.8575 79.4112H32.5721L42.0058 102.401H42.4814L51.9152 79.4112H65.6297V120H54.8483V96.5346H54.5312L45.4939 119.683H38.9933L29.956 96.3761H29.6389V120H18.8575V79.4112ZM70.852 120V79.4112H88.3717C91.3842 79.4112 94.0201 80.0058 96.2794 81.1949C98.5387 82.3841 100.296 84.0554 101.551 86.2091C102.806 88.3627 103.434 90.8797 103.434 93.76C103.434 96.6667 102.787 99.1837 101.492 101.311C100.21 103.438 98.4066 105.076 96.0812 106.226C93.769 107.375 91.0671 107.95 87.9753 107.95H77.5111V99.3885H85.7556C87.0505 99.3885 88.1537 99.1639 89.0654 98.7147C89.9902 98.2522 90.6971 97.5982 91.186 96.7526C91.688 95.907 91.9391 94.9095 91.9391 93.76C91.9391 92.5973 91.688 91.6064 91.186 90.7872C90.6971 89.9548 89.9902 89.3206 89.0654 88.8846C88.1537 88.4354 87.0505 88.2108 85.7556 88.2108H81.8712V120H70.852ZM112.952 120H101.061L114.458 79.4112H129.52L142.918 120H131.027L122.148 90.589H121.831L112.952 120ZM110.732 103.986H133.088V112.231H110.732V103.986ZM182.813 94.632H171.635C171.556 93.7072 171.344 92.8682 171.001 92.115C170.671 91.3619 170.208 90.7145 169.614 90.1728C169.032 89.6179 168.325 89.1951 167.493 88.9044C166.661 88.6005 165.716 88.4486 164.659 88.4486C162.809 88.4486 161.244 88.8978 159.962 89.7963C158.694 90.6947 157.729 91.9829 157.068 93.6609C156.421 95.3389 156.097 97.3538 156.097 99.7056C156.097 102.19 156.428 104.271 157.088 105.949C157.762 107.613 158.733 108.868 160.002 109.714C161.27 110.546 162.796 110.963 164.58 110.963C165.597 110.963 166.509 110.837 167.315 110.586C168.121 110.322 168.821 109.945 169.415 109.456C170.01 108.968 170.492 108.38 170.862 107.693C171.245 106.992 171.503 106.206 171.635 105.334L182.813 105.413C182.681 107.131 182.199 108.882 181.366 110.665C180.534 112.436 179.351 114.074 177.819 115.58C176.299 117.073 174.416 118.276 172.17 119.187C169.924 120.099 167.315 120.555 164.342 120.555C160.616 120.555 157.273 119.756 154.314 118.157C151.367 116.558 149.035 114.206 147.318 111.101C145.613 107.996 144.761 104.198 144.761 99.7056C144.761 95.187 145.633 91.3818 147.377 88.29C149.121 85.1851 151.473 82.8399 154.432 81.2544C157.392 79.6557 160.695 78.8563 164.342 78.8563C166.905 78.8563 169.263 79.2064 171.417 79.9067C173.571 80.607 175.46 81.6309 177.085 82.9786C178.71 84.3131 180.018 85.958 181.009 87.9135C182 89.8689 182.602 92.1084 182.813 94.632ZM186.702 88.29V79.4112H221.98V88.29H209.771V120H198.911V88.29H186.702Z" fill="#02B873"/>
<g clip-path="url(#clip0_155_59)">
<rect x="2.41748" y="144" width="197.308" height="197.306" rx="12.825" fill="#02B873"/>
<path d="M56.0826 203.356C67.1539 201.807 70.9668 205.349 76.2821 210.245C81.399 214.969 87.7468 220.848 101.893 223.629C103.689 223.973 105.484 224.146 107.257 224.146C118.574 224.146 129.178 217.281 133.802 207.071C138.402 210.712 142.314 214.969 144.997 219.816C145.439 220.627 146.277 221.071 147.163 221.071C147.556 221.071 147.974 220.972 148.343 220.751C149.524 220.086 149.968 218.585 149.303 217.404C145.981 211.401 141.136 206.284 135.526 202.028C135.575 201.782 135.649 201.561 135.698 201.338C137.248 193.834 135.771 186.207 131.565 179.81C127.359 173.414 120.912 169.059 113.408 167.51C73.5277 159.292 53.7217 199.444 53.525 199.862C53.1315 200.673 53.2291 201.659 53.7461 202.371C54.2859 203.109 55.1721 203.502 56.0826 203.356ZM112.423 172.331C118.622 173.611 123.96 177.227 127.455 182.516C130.677 187.412 131.933 193.218 131.095 198.976C121.993 193.218 111.437 189.553 101.72 188.101L95.1758 181.557C94.2165 180.597 92.667 180.597 91.7076 181.557C90.7483 182.516 90.7483 184.066 91.7076 185.025L94.0702 187.387C87.7468 187.215 82.1128 188.126 77.9796 190.192C76.7747 190.807 76.2821 192.283 76.8723 193.49C77.4869 194.695 78.9633 195.212 80.1698 194.597C87.7224 190.808 101.968 191.841 115.548 196.959L111.366 201.141C110.406 202.101 110.406 203.65 111.366 204.61C111.858 205.102 112.473 205.323 113.112 205.323C113.751 205.323 114.367 205.078 114.858 204.61L120.468 199C123.666 200.476 126.791 202.174 129.718 204.093C125.585 214.45 114.144 220.995 102.828 218.78C90.0589 216.271 84.4981 211.128 79.6023 206.626C74.8545 202.247 70.3522 198.064 60.8793 198.064C60.6337 198.064 60.3866 198.064 60.1411 198.064C65.923 188.665 83.0461 166.253 112.421 172.305L112.423 172.331Z" fill="white"/>
<path d="M81.8657 287.767C83.3908 280.977 85.3095 272.538 80.6348 258.907C76.2805 246.188 63.2402 238.266 50.3251 239.545C51.1608 233.739 52.9088 228.253 55.7623 223.479C56.4518 222.323 56.0827 220.798 54.9266 220.109C53.7461 219.395 52.2454 219.788 51.556 220.944C48.0374 226.824 45.9951 233.565 45.135 240.578C44.9139 240.651 44.6683 240.702 44.4456 240.775C29.4623 245.745 21.3178 262.008 26.2884 276.992C37.384 310.402 72.2464 312.738 81.8169 312.738C83.3177 312.738 84.2038 312.69 84.2526 312.665C85.1631 312.592 85.9501 312.026 86.3192 311.213C86.6883 310.378 86.5647 309.417 85.9989 308.704C79.134 299.897 80.2657 294.804 81.8657 287.767ZM30.963 275.416C26.9778 263.434 33.1288 250.544 44.7155 245.918C44.2976 256.669 46.3886 267.642 49.9804 276.793L47.5935 285.725C47.2488 287.029 48.0113 288.381 49.3398 288.726C49.5609 288.775 49.7576 288.799 49.9788 288.799C51.0617 288.799 52.0698 288.086 52.3657 286.978L53.2275 283.756C56.2534 289.316 59.8451 293.744 63.7085 296.279C64.1263 296.549 64.5946 296.697 65.0613 296.697C65.8482 296.697 66.6352 296.303 67.1279 295.589C67.8661 294.458 67.5701 292.933 66.4385 292.17C59.4029 287.52 53.1527 274.678 50.7917 260.359L56.4989 261.885C56.72 261.933 56.9168 261.958 57.1379 261.958C58.2208 261.958 59.2289 261.244 59.5248 260.137C59.8695 258.833 59.107 257.48 57.7785 257.135L50.1023 255.069C49.782 251.55 49.6845 247.983 49.9056 244.49C51.0129 244.342 52.0958 244.244 53.2031 244.244C63.1182 244.244 72.7131 250.641 76.0593 260.457C80.2657 272.784 78.6186 280.139 77.1422 286.66C75.6902 293.129 74.2886 299.256 79.4787 307.794C68.4563 307.498 40.4831 303.857 31.0362 275.392L30.963 275.416Z" fill="white"/>
<path d="M166.596 229.681C166.079 228.943 165.195 228.525 164.309 228.622C163.398 228.722 162.636 229.312 162.291 230.148C158.109 240.505 153.114 242.055 146.225 244.196C139.583 246.263 131.316 248.822 121.843 259.696C112.987 269.833 112.666 285.086 120.219 295.616C114.954 297.707 109.517 298.962 104.179 298.962C103.982 298.962 103.785 298.962 103.613 298.962H103.564C102.236 298.962 101.128 300.045 101.104 301.373C101.104 302.726 102.163 303.858 103.515 303.882H104.205C110.822 303.882 117.44 302.282 123.739 299.625C123.911 299.798 124.059 299.97 124.256 300.142C129.693 304.989 136.508 307.35 143.274 307.35C151.171 307.35 159.044 304.103 164.702 297.755C191.765 267.322 166.892 230.099 166.621 229.73L166.596 229.681ZM160.987 294.46C152.597 303.882 138.352 305.014 128.585 297.289C138.106 292.294 146.569 284.988 152.694 277.288L161.626 274.901C162.93 274.556 163.717 273.203 163.372 271.899C163.027 270.595 161.675 269.808 160.371 270.153L157.148 271.015C160.47 265.626 162.486 260.288 162.758 255.687C162.831 254.334 161.798 253.153 160.445 253.079C159.068 252.955 157.912 254.038 157.837 255.391C157.32 263.83 149.325 275.639 138.106 284.865L136.581 279.158C136.236 277.854 134.884 277.067 133.579 277.411C132.275 277.756 131.489 279.109 131.833 280.413L133.875 288.089C130.997 290.131 127.972 291.977 124.822 293.551C117.933 284.792 117.983 271.605 125.56 262.945C134.123 253.129 141.331 250.89 147.703 248.921C154.026 246.954 160.029 245.084 164.826 236.373C169.967 246.116 180.669 272.368 161.013 294.484L160.987 294.46Z" fill="white"/>
</g>
<defs>
<clipPath id="clip0_155_59">
<rect width="200.07" height="197.505" fill="white" transform="translate(0 144)"/>
</clipPath>
</defs>
</svg>
