<svg width="485" height="131" viewBox="0 0 485 131" fill="none" xmlns="http://www.w3.org/2000/svg">
<rect width="485" height="131" rx="15" fill="#02B873"/>
<path d="M118.744 80.5V50.0927H140.124V56.7443H126.999V61.9706H138.818V68.6222H126.999V80.5H118.744ZM172.617 65.2964C172.617 68.6815 171.959 71.5372 170.643 73.8633C169.326 76.1794 167.55 77.9364 165.313 79.134C163.076 80.3218 160.581 80.9157 157.83 80.9157C155.058 80.9157 152.554 80.3169 150.317 79.1192C148.09 77.9116 146.318 76.1497 145.001 73.8336C143.695 71.5075 143.042 68.6618 143.042 65.2964C143.042 61.9112 143.695 59.0605 145.001 56.7443C146.318 54.4182 148.09 52.6613 150.317 51.4735C152.554 50.2758 155.058 49.677 157.83 49.677C160.581 49.677 163.076 50.2758 165.313 51.4735C167.55 52.6613 169.326 54.4182 170.643 56.7443C171.959 59.0605 172.617 61.9112 172.617 65.2964ZM164.125 65.2964C164.125 63.4751 163.882 61.9409 163.397 60.6937C162.922 59.4366 162.214 58.4864 161.274 57.843C160.344 57.1897 159.196 56.8631 157.83 56.8631C156.464 56.8631 155.31 57.1897 154.37 57.843C153.44 58.4864 152.732 59.4366 152.247 60.6937C151.772 61.9409 151.534 63.4751 151.534 65.2964C151.534 67.1176 151.772 68.6568 152.247 69.9139C152.732 71.161 153.44 72.1113 154.37 72.7646C155.31 73.4079 156.464 73.7296 157.83 73.7296C159.196 73.7296 160.344 73.4079 161.274 72.7646C162.214 72.1113 162.922 71.161 163.397 69.9139C163.882 68.6568 164.125 67.1176 164.125 65.2964ZM176.437 80.5V50.0927H189.562C191.819 50.0927 193.793 50.5035 195.486 51.3251C197.179 52.1466 198.495 53.3294 199.435 54.8736C200.376 56.4177 200.846 58.2686 200.846 60.4264C200.846 62.6041 200.361 64.4402 199.391 65.9348C198.431 67.4294 197.08 68.5578 195.338 69.32C193.605 70.0821 191.581 70.4632 189.265 70.4632H181.426V64.0492H187.602C188.572 64.0492 189.399 63.9304 190.082 63.6929C190.774 63.4454 191.304 63.0544 191.67 62.5199C192.046 61.9854 192.234 61.2876 192.234 60.4264C192.234 59.5554 192.046 58.8477 191.67 58.3033C191.304 57.749 190.774 57.3432 190.082 57.0858C189.399 56.8186 188.572 56.6849 187.602 56.6849H184.692V80.5H176.437ZM194.254 66.5435L201.856 80.5H192.888L185.464 66.5435H194.254ZM212.694 80.5V50.0927H225.819C228.076 50.0927 230.051 50.5381 231.743 51.429C233.436 52.3198 234.752 53.5719 235.693 55.1854C236.633 56.7988 237.103 58.6844 237.103 60.8422C237.103 63.0198 236.618 64.9054 235.648 66.499C234.688 68.0926 233.337 69.32 231.595 70.1811C229.862 71.0423 227.838 71.4728 225.522 71.4728H217.683V65.0588H223.859C224.829 65.0588 225.656 64.8905 226.339 64.554C227.032 64.2076 227.561 63.7176 227.927 63.0841C228.304 62.4506 228.492 61.7033 228.492 60.8422C228.492 59.9711 228.304 59.2288 227.927 58.6151C227.561 57.9915 227.032 57.5164 226.339 57.1897C225.656 56.8532 224.829 56.6849 223.859 56.6849H220.949V80.5H212.694ZM240.132 80.5V50.0927H262.046V56.7443H248.387V61.9706H260.918V68.6222H248.387V73.8484H261.987V80.5H240.132ZM266.141 80.5V50.0927H279.266C281.522 50.0927 283.497 50.5035 285.19 51.3251C286.882 52.1466 288.199 53.3294 289.139 54.8736C290.079 56.4177 290.55 58.2686 290.55 60.4264C290.55 62.6041 290.065 64.4402 289.095 65.9348C288.134 67.4294 286.783 68.5578 285.041 69.32C283.309 70.0821 281.285 70.4632 278.969 70.4632H271.129V64.0492H277.306C278.276 64.0492 279.102 63.9304 279.785 63.6929C280.478 63.4454 281.008 63.0544 281.374 62.5199C281.75 61.9854 281.938 61.2876 281.938 60.4264C281.938 59.5554 281.75 58.8477 281.374 58.3033C281.008 57.749 280.478 57.3432 279.785 57.0858C279.102 56.8186 278.276 56.6849 277.306 56.6849H274.396V80.5H266.141ZM283.957 66.5435L291.559 80.5H282.591L275.168 66.5435H283.957ZM302.323 50.0927V80.5H294.068V50.0927H302.323ZM335.693 65.2964C335.693 68.6815 335.035 71.5372 333.718 73.8633C332.402 76.1794 330.625 77.9364 328.388 79.134C326.151 80.3218 323.657 80.9157 320.905 80.9157C318.133 80.9157 315.629 80.3169 313.392 79.1192C311.165 77.9116 309.393 76.1497 308.077 73.8336C306.77 71.5075 306.117 68.6618 306.117 65.2964C306.117 61.9112 306.77 59.0605 308.077 56.7443C309.393 54.4182 311.165 52.6613 313.392 51.4735C315.629 50.2758 318.133 49.677 320.905 49.677C323.657 49.677 326.151 50.2758 328.388 51.4735C330.625 52.6613 332.402 54.4182 333.718 56.7443C335.035 59.0605 335.693 61.9112 335.693 65.2964ZM327.2 65.2964C327.2 63.4751 326.958 61.9409 326.473 60.6937C325.998 59.4366 325.29 58.4864 324.349 57.843C323.419 57.1897 322.271 56.8631 320.905 56.8631C319.539 56.8631 318.386 57.1897 317.445 57.843C316.515 58.4864 315.807 59.4366 315.322 60.6937C314.847 61.9409 314.61 63.4751 314.61 65.2964C314.61 67.1176 314.847 68.6568 315.322 69.9139C315.807 71.161 316.515 72.1113 317.445 72.7646C318.386 73.4079 319.539 73.7296 320.905 73.7296C322.271 73.7296 323.419 73.4079 324.349 72.7646C325.29 72.1113 325.998 71.161 326.473 69.9139C326.958 68.6568 327.2 67.1176 327.2 65.2964ZM351.212 80.5H339.512V50.0927H351.093C354.221 50.0927 356.923 50.7015 359.2 51.9189C361.486 53.1265 363.248 54.8686 364.485 57.1452C365.733 59.4119 366.356 62.1289 366.356 65.2964C366.356 68.4638 365.738 71.1858 364.5 73.4624C363.263 75.7291 361.511 77.4712 359.244 78.6886C356.978 79.8962 354.3 80.5 351.212 80.5ZM347.767 73.4921H350.915C352.42 73.4921 353.701 73.2496 354.76 72.7646C355.829 72.2795 356.641 71.4431 357.195 70.2554C357.76 69.0676 358.042 67.4146 358.042 65.2964C358.042 63.1781 357.755 61.5251 357.181 60.3374C356.616 59.1496 355.785 58.3132 354.686 57.8282C353.597 57.3432 352.261 57.1007 350.677 57.1007H347.767V73.4921Z" fill="white"/>
</svg>
