<svg width="487" height="68" viewBox="0 0 487 68" fill="none" xmlns="http://www.w3.org/2000/svg">
<rect width="487" height="68" rx="15" fill="#02B873"/>
<path d="M119.744 49V18.5927H141.124V25.2443H127.999V30.4706H139.818V37.1222H127.999V49H119.744ZM173.617 33.7964C173.617 37.1815 172.959 40.0372 171.643 42.3633C170.326 44.6794 168.55 46.4364 166.313 47.634C164.076 48.8218 161.581 49.4157 158.83 49.4157C156.058 49.4157 153.554 48.8169 151.317 47.6192C149.09 46.4116 147.318 44.6497 146.001 42.3336C144.695 40.0075 144.042 37.1618 144.042 33.7964C144.042 30.4112 144.695 27.5605 146.001 25.2443C147.318 22.9182 149.09 21.1613 151.317 19.9735C153.554 18.7758 156.058 18.177 158.83 18.177C161.581 18.177 164.076 18.7758 166.313 19.9735C168.55 21.1613 170.326 22.9182 171.643 25.2443C172.959 27.5605 173.617 30.4112 173.617 33.7964ZM165.125 33.7964C165.125 31.9751 164.882 30.4409 164.397 29.1937C163.922 27.9366 163.214 26.9864 162.274 26.343C161.344 25.6897 160.196 25.3631 158.83 25.3631C157.464 25.3631 156.31 25.6897 155.37 26.343C154.44 26.9864 153.732 27.9366 153.247 29.1937C152.772 30.4409 152.534 31.9751 152.534 33.7964C152.534 35.6176 152.772 37.1568 153.247 38.4139C153.732 39.661 154.44 40.6113 155.37 41.2646C156.31 41.9079 157.464 42.2296 158.83 42.2296C160.196 42.2296 161.344 41.9079 162.274 41.2646C163.214 40.6113 163.922 39.661 164.397 38.4139C164.882 37.1568 165.125 35.6176 165.125 33.7964ZM177.437 49V18.5927H190.562C192.819 18.5927 194.793 19.0035 196.486 19.8251C198.179 20.6466 199.495 21.8294 200.435 23.3736C201.376 24.9177 201.846 26.7686 201.846 28.9264C201.846 31.1041 201.361 32.9402 200.391 34.4348C199.431 35.9294 198.08 37.0578 196.338 37.82C194.605 38.5821 192.581 38.9632 190.265 38.9632H182.426V32.5492H188.602C189.572 32.5492 190.399 32.4304 191.082 32.1929C191.774 31.9454 192.304 31.5544 192.67 31.0199C193.046 30.4854 193.234 29.7876 193.234 28.9264C193.234 28.0554 193.046 27.3477 192.67 26.8033C192.304 26.249 191.774 25.8432 191.082 25.5858C190.399 25.3186 189.572 25.1849 188.602 25.1849H185.692V49H177.437ZM195.254 35.0435L202.856 49H193.888L186.464 35.0435H195.254ZM213.694 49V18.5927H226.819C229.076 18.5927 231.051 19.0381 232.743 19.929C234.436 20.8198 235.752 22.0719 236.693 23.6854C237.633 25.2988 238.103 27.1844 238.103 29.3422C238.103 31.5198 237.618 33.4054 236.648 34.999C235.688 36.5926 234.337 37.82 232.595 38.6811C230.862 39.5423 228.838 39.9728 226.522 39.9728H218.683V33.5588H224.859C225.829 33.5588 226.656 33.3905 227.339 33.054C228.032 32.7076 228.561 32.2176 228.927 31.5841C229.304 30.9506 229.492 30.2033 229.492 29.3422C229.492 28.4711 229.304 27.7288 228.927 27.1151C228.561 26.4915 228.032 26.0164 227.339 25.6897C226.656 25.3532 225.829 25.1849 224.859 25.1849H221.949V49H213.694ZM241.132 49V18.5927H263.046V25.2443H249.387V30.4706H261.918V37.1222H249.387V42.3484H262.987V49H241.132ZM267.141 49V18.5927H280.266C282.522 18.5927 284.497 19.0035 286.19 19.8251C287.882 20.6466 289.199 21.8294 290.139 23.3736C291.079 24.9177 291.55 26.7686 291.55 28.9264C291.55 31.1041 291.065 32.9402 290.095 34.4348C289.134 35.9294 287.783 37.0578 286.041 37.82C284.309 38.5821 282.285 38.9632 279.969 38.9632H272.129V32.5492H278.306C279.276 32.5492 280.102 32.4304 280.785 32.1929C281.478 31.9454 282.008 31.5544 282.374 31.0199C282.75 30.4854 282.938 29.7876 282.938 28.9264C282.938 28.0554 282.75 27.3477 282.374 26.8033C282.008 26.249 281.478 25.8432 280.785 25.5858C280.102 25.3186 279.276 25.1849 278.306 25.1849H275.396V49H267.141ZM284.957 35.0435L292.559 49H283.591L276.168 35.0435H284.957ZM303.323 18.5927V49H295.068V18.5927H303.323ZM336.693 33.7964C336.693 37.1815 336.035 40.0372 334.718 42.3633C333.402 44.6794 331.625 46.4364 329.388 47.634C327.151 48.8218 324.657 49.4157 321.905 49.4157C319.133 49.4157 316.629 48.8169 314.392 47.6192C312.165 46.4116 310.393 44.6497 309.077 42.3336C307.77 40.0075 307.117 37.1618 307.117 33.7964C307.117 30.4112 307.77 27.5605 309.077 25.2443C310.393 22.9182 312.165 21.1613 314.392 19.9735C316.629 18.7758 319.133 18.177 321.905 18.177C324.657 18.177 327.151 18.7758 329.388 19.9735C331.625 21.1613 333.402 22.9182 334.718 25.2443C336.035 27.5605 336.693 30.4112 336.693 33.7964ZM328.2 33.7964C328.2 31.9751 327.958 30.4409 327.473 29.1937C326.998 27.9366 326.29 26.9864 325.349 26.343C324.419 25.6897 323.271 25.3631 321.905 25.3631C320.539 25.3631 319.386 25.6897 318.445 26.343C317.515 26.9864 316.807 27.9366 316.322 29.1937C315.847 30.4409 315.61 31.9751 315.61 33.7964C315.61 35.6176 315.847 37.1568 316.322 38.4139C316.807 39.661 317.515 40.6113 318.445 41.2646C319.386 41.9079 320.539 42.2296 321.905 42.2296C323.271 42.2296 324.419 41.9079 325.349 41.2646C326.29 40.6113 326.998 39.661 327.473 38.4139C327.958 37.1568 328.2 35.6176 328.2 33.7964ZM352.212 49H340.512V18.5927H352.093C355.221 18.5927 357.923 19.2015 360.2 20.4189C362.486 21.6265 364.248 23.3686 365.485 25.6452C366.733 27.9119 367.356 30.6289 367.356 33.7964C367.356 36.9638 366.738 39.6858 365.5 41.9624C364.263 44.2291 362.511 45.9712 360.244 47.1886C357.978 48.3962 355.3 49 352.212 49ZM348.767 41.9921H351.915C353.42 41.9921 354.701 41.7496 355.76 41.2646C356.829 40.7795 357.641 39.9431 358.195 38.7554C358.76 37.5676 359.042 35.9146 359.042 33.7964C359.042 31.6781 358.755 30.0251 358.181 28.8374C357.616 27.6496 356.785 26.8132 355.686 26.3282C354.597 25.8432 353.261 25.6007 351.677 25.6007H348.767V41.9921Z" fill="white"/>
</svg>
