<svg width="307" height="54" viewBox="0 0 307 54" fill="none" xmlns="http://www.w3.org/2000/svg">
<rect width="307" height="54" rx="15" fill="#02B873"/>
<path d="M29.744 42V11.5927H51.1241V18.2443H37.9991V23.4706H49.8176V30.1222H37.9991V42H29.744ZM83.6175 26.7964C83.6175 30.1815 82.9592 33.0372 81.6428 35.3633C80.3263 37.6794 78.5496 39.4364 76.3126 40.634C74.0756 41.8218 71.5813 42.4157 68.8296 42.4157C66.0581 42.4157 63.5538 41.8169 61.3168 40.6192C59.0897 39.4116 57.3179 37.6497 56.0015 35.3336C54.6949 33.0075 54.0416 30.1618 54.0416 26.7964C54.0416 23.4112 54.6949 20.5605 56.0015 18.2443C57.3179 15.9182 59.0897 14.1613 61.3168 12.9735C63.5538 11.7758 66.0581 11.177 68.8296 11.177C71.5813 11.177 74.0756 11.7758 76.3126 12.9735C78.5496 14.1613 80.3263 15.9182 81.6428 18.2443C82.9592 20.5605 83.6175 23.4112 83.6175 26.7964ZM75.1248 26.7964C75.1248 24.9751 74.8823 23.4409 74.3973 22.1937C73.9222 20.9366 73.2145 19.9864 72.2741 19.343C71.3437 18.6897 70.1955 18.3631 68.8296 18.3631C67.4636 18.3631 66.3105 18.6897 65.3701 19.343C64.4397 19.9864 63.732 20.9366 63.247 22.1937C62.7719 23.4409 62.5343 24.9751 62.5343 26.7964C62.5343 28.6176 62.7719 30.1568 63.247 31.4139C63.732 32.661 64.4397 33.6113 65.3701 34.2646C66.3105 34.9079 67.4636 35.2296 68.8296 35.2296C70.1955 35.2296 71.3437 34.9079 72.2741 34.2646C73.2145 33.6113 73.9222 32.661 74.3973 31.4139C74.8823 30.1568 75.1248 28.6176 75.1248 26.7964ZM87.4369 42V11.5927H100.562C102.819 11.5927 104.793 12.0035 106.486 12.8251C108.179 13.6466 109.495 14.8294 110.435 16.3736C111.376 17.9177 111.846 19.7686 111.846 21.9264C111.846 24.1041 111.361 25.9402 110.391 27.4348C109.431 28.9294 108.08 30.0578 106.338 30.82C104.605 31.5821 102.581 31.9632 100.265 31.9632H92.4256V25.5492H98.6021C99.5721 25.5492 100.399 25.4304 101.082 25.1929C101.774 24.9454 102.304 24.5544 102.67 24.0199C103.046 23.4854 103.234 22.7876 103.234 21.9264C103.234 21.0554 103.046 20.3477 102.67 19.8033C102.304 19.249 101.774 18.8432 101.082 18.5858C100.399 18.3186 99.5721 18.1849 98.6021 18.1849H95.692V42H87.4369ZM105.254 28.0435L112.856 42H103.888L96.4641 28.0435H105.254ZM123.694 42V11.5927H136.819C139.076 11.5927 141.051 12.0381 142.743 12.929C144.436 13.8198 145.752 15.0719 146.693 16.6854C147.633 18.2988 148.103 20.1844 148.103 22.3422C148.103 24.5198 147.618 26.4054 146.648 27.999C145.688 29.5926 144.337 30.82 142.595 31.6811C140.862 32.5423 138.838 32.9728 136.522 32.9728H128.683V26.5588H134.859C135.829 26.5588 136.656 26.3905 137.339 26.054C138.032 25.7076 138.561 25.2176 138.927 24.5841C139.304 23.9506 139.492 23.2033 139.492 22.3422C139.492 21.4711 139.304 20.7288 138.927 20.1151C138.561 19.4915 138.032 19.0164 137.339 18.6897C136.656 18.3532 135.829 18.1849 134.859 18.1849H131.949V42H123.694ZM151.132 42V11.5927H173.046V18.2443H159.387V23.4706H171.918V30.1222H159.387V35.3484H172.987V42H151.132ZM177.141 42V11.5927H190.266C192.522 11.5927 194.497 12.0035 196.19 12.8251C197.882 13.6466 199.199 14.8294 200.139 16.3736C201.079 17.9177 201.55 19.7686 201.55 21.9264C201.55 24.1041 201.065 25.9402 200.095 27.4348C199.134 28.9294 197.783 30.0578 196.041 30.82C194.309 31.5821 192.285 31.9632 189.969 31.9632H182.129V25.5492H188.306C189.276 25.5492 190.102 25.4304 190.785 25.1929C191.478 24.9454 192.008 24.5544 192.374 24.0199C192.75 23.4854 192.938 22.7876 192.938 21.9264C192.938 21.0554 192.75 20.3477 192.374 19.8033C192.008 19.249 191.478 18.8432 190.785 18.5858C190.102 18.3186 189.276 18.1849 188.306 18.1849H185.396V42H177.141ZM194.957 28.0435L202.559 42H193.591L186.168 28.0435H194.957ZM213.323 11.5927V42H205.068V11.5927H213.323ZM246.693 26.7964C246.693 30.1815 246.035 33.0372 244.718 35.3633C243.402 37.6794 241.625 39.4364 239.388 40.634C237.151 41.8218 234.657 42.4157 231.905 42.4157C229.133 42.4157 226.629 41.8169 224.392 40.6192C222.165 39.4116 220.393 37.6497 219.077 35.3336C217.77 33.0075 217.117 30.1618 217.117 26.7964C217.117 23.4112 217.77 20.5605 219.077 18.2443C220.393 15.9182 222.165 14.1613 224.392 12.9735C226.629 11.7758 229.133 11.177 231.905 11.177C234.657 11.177 237.151 11.7758 239.388 12.9735C241.625 14.1613 243.402 15.9182 244.718 18.2443C246.035 20.5605 246.693 23.4112 246.693 26.7964ZM238.2 26.7964C238.2 24.9751 237.958 23.4409 237.473 22.1937C236.998 20.9366 236.29 19.9864 235.349 19.343C234.419 18.6897 233.271 18.3631 231.905 18.3631C230.539 18.3631 229.386 18.6897 228.445 19.343C227.515 19.9864 226.807 20.9366 226.322 22.1937C225.847 23.4409 225.61 24.9751 225.61 26.7964C225.61 28.6176 225.847 30.1568 226.322 31.4139C226.807 32.661 227.515 33.6113 228.445 34.2646C229.386 34.9079 230.539 35.2296 231.905 35.2296C233.271 35.2296 234.419 34.9079 235.349 34.2646C236.29 33.6113 236.998 32.661 237.473 31.4139C237.958 30.1568 238.2 28.6176 238.2 26.7964ZM262.212 42H250.512V11.5927H262.093C265.221 11.5927 267.923 12.2015 270.2 13.4189C272.486 14.6265 274.248 16.3686 275.485 18.6452C276.733 20.9119 277.356 23.6289 277.356 26.7964C277.356 29.9638 276.738 32.6858 275.5 34.9624C274.263 37.2291 272.511 38.9712 270.244 40.1886C267.978 41.3962 265.3 42 262.212 42ZM258.767 34.9921H261.915C263.42 34.9921 264.701 34.7496 265.76 34.2646C266.829 33.7795 267.641 32.9431 268.195 31.7554C268.76 30.5676 269.042 28.9146 269.042 26.7964C269.042 24.6781 268.755 23.0251 268.181 21.8374C267.616 20.6496 266.785 19.8132 265.686 19.3282C264.597 18.8432 263.261 18.6007 261.677 18.6007H258.767V34.9921Z" fill="white"/>
</svg>
