<svg width="472" height="99" viewBox="0 0 472 99" fill="none" xmlns="http://www.w3.org/2000/svg">
<rect width="472" height="99" rx="15" fill="#02B873"/>
<path d="M112.244 64.5V34.0927H133.624V40.7443H120.499V45.9706H132.318V52.6222H120.499V64.5H112.244ZM166.117 49.2964C166.117 52.6815 165.459 55.5372 164.143 57.8633C162.826 60.1794 161.05 61.9364 158.813 63.134C156.576 64.3218 154.081 64.9157 151.33 64.9157C148.558 64.9157 146.054 64.3169 143.817 63.1192C141.59 61.9116 139.818 60.1497 138.501 57.8336C137.195 55.5075 136.542 52.6618 136.542 49.2964C136.542 45.9112 137.195 43.0605 138.501 40.7443C139.818 38.4182 141.59 36.6613 143.817 35.4735C146.054 34.2758 148.558 33.677 151.33 33.677C154.081 33.677 156.576 34.2758 158.813 35.4735C161.05 36.6613 162.826 38.4182 164.143 40.7443C165.459 43.0605 166.117 45.9112 166.117 49.2964ZM157.625 49.2964C157.625 47.4751 157.382 45.9409 156.897 44.6937C156.422 43.4366 155.714 42.4864 154.774 41.843C153.844 41.1897 152.696 40.8631 151.33 40.8631C149.964 40.8631 148.81 41.1897 147.87 41.843C146.94 42.4864 146.232 43.4366 145.747 44.6937C145.272 45.9409 145.034 47.4751 145.034 49.2964C145.034 51.1176 145.272 52.6568 145.747 53.9139C146.232 55.161 146.94 56.1113 147.87 56.7646C148.81 57.4079 149.964 57.7296 151.33 57.7296C152.696 57.7296 153.844 57.4079 154.774 56.7646C155.714 56.1113 156.422 55.161 156.897 53.9139C157.382 52.6568 157.625 51.1176 157.625 49.2964ZM169.937 64.5V34.0927H183.062C185.319 34.0927 187.293 34.5035 188.986 35.3251C190.679 36.1466 191.995 37.3294 192.935 38.8736C193.876 40.4177 194.346 42.2686 194.346 44.4264C194.346 46.6041 193.861 48.4402 192.891 49.9348C191.931 51.4294 190.58 52.5578 188.838 53.32C187.105 54.0821 185.081 54.4632 182.765 54.4632H174.926V48.0492H181.102C182.072 48.0492 182.899 47.9304 183.582 47.6929C184.274 47.4454 184.804 47.0544 185.17 46.5199C185.546 45.9854 185.734 45.2876 185.734 44.4264C185.734 43.5554 185.546 42.8477 185.17 42.3033C184.804 41.749 184.274 41.3432 183.582 41.0858C182.899 40.8186 182.072 40.6849 181.102 40.6849H178.192V64.5H169.937ZM187.754 50.5435L195.356 64.5H186.388L178.964 50.5435H187.754ZM206.194 64.5V34.0927H219.319C221.576 34.0927 223.551 34.5381 225.243 35.429C226.936 36.3198 228.252 37.5719 229.193 39.1854C230.133 40.7988 230.603 42.6844 230.603 44.8422C230.603 47.0198 230.118 48.9054 229.148 50.499C228.188 52.0926 226.837 53.32 225.095 54.1811C223.362 55.0423 221.338 55.4728 219.022 55.4728H211.183V49.0588H217.359C218.329 49.0588 219.156 48.8905 219.839 48.554C220.532 48.2076 221.061 47.7176 221.427 47.0841C221.804 46.4506 221.992 45.7033 221.992 44.8422C221.992 43.9711 221.804 43.2288 221.427 42.6151C221.061 41.9915 220.532 41.5164 219.839 41.1897C219.156 40.8532 218.329 40.6849 217.359 40.6849H214.449V64.5H206.194ZM233.632 64.5V34.0927H255.546V40.7443H241.887V45.9706H254.418V52.6222H241.887V57.8484H255.487V64.5H233.632ZM259.641 64.5V34.0927H272.766C275.022 34.0927 276.997 34.5035 278.69 35.3251C280.382 36.1466 281.699 37.3294 282.639 38.8736C283.579 40.4177 284.05 42.2686 284.05 44.4264C284.05 46.6041 283.565 48.4402 282.595 49.9348C281.634 51.4294 280.283 52.5578 278.541 53.32C276.809 54.0821 274.785 54.4632 272.469 54.4632H264.629V48.0492H270.806C271.776 48.0492 272.602 47.9304 273.285 47.6929C273.978 47.4454 274.508 47.0544 274.874 46.5199C275.25 45.9854 275.438 45.2876 275.438 44.4264C275.438 43.5554 275.25 42.8477 274.874 42.3033C274.508 41.749 273.978 41.3432 273.285 41.0858C272.602 40.8186 271.776 40.6849 270.806 40.6849H267.896V64.5H259.641ZM277.457 50.5435L285.059 64.5H276.091L268.668 50.5435H277.457ZM295.823 34.0927V64.5H287.568V34.0927H295.823ZM329.193 49.2964C329.193 52.6815 328.535 55.5372 327.218 57.8633C325.902 60.1794 324.125 61.9364 321.888 63.134C319.651 64.3218 317.157 64.9157 314.405 64.9157C311.633 64.9157 309.129 64.3169 306.892 63.1192C304.665 61.9116 302.893 60.1497 301.577 57.8336C300.27 55.5075 299.617 52.6618 299.617 49.2964C299.617 45.9112 300.27 43.0605 301.577 40.7443C302.893 38.4182 304.665 36.6613 306.892 35.4735C309.129 34.2758 311.633 33.677 314.405 33.677C317.157 33.677 319.651 34.2758 321.888 35.4735C324.125 36.6613 325.902 38.4182 327.218 40.7443C328.535 43.0605 329.193 45.9112 329.193 49.2964ZM320.7 49.2964C320.7 47.4751 320.458 45.9409 319.973 44.6937C319.498 43.4366 318.79 42.4864 317.849 41.843C316.919 41.1897 315.771 40.8631 314.405 40.8631C313.039 40.8631 311.886 41.1897 310.945 41.843C310.015 42.4864 309.307 43.4366 308.822 44.6937C308.347 45.9409 308.11 47.4751 308.11 49.2964C308.11 51.1176 308.347 52.6568 308.822 53.9139C309.307 55.161 310.015 56.1113 310.945 56.7646C311.886 57.4079 313.039 57.7296 314.405 57.7296C315.771 57.7296 316.919 57.4079 317.849 56.7646C318.79 56.1113 319.498 55.161 319.973 53.9139C320.458 52.6568 320.7 51.1176 320.7 49.2964ZM344.712 64.5H333.012V34.0927H344.593C347.721 34.0927 350.423 34.7015 352.7 35.9189C354.986 37.1265 356.748 38.8686 357.985 41.1452C359.233 43.4119 359.856 46.1289 359.856 49.2964C359.856 52.4638 359.238 55.1858 358 57.4624C356.763 59.7291 355.011 61.4712 352.744 62.6886C350.478 63.8962 347.8 64.5 344.712 64.5ZM341.267 57.4921H344.415C345.92 57.4921 347.201 57.2496 348.26 56.7646C349.329 56.2795 350.141 55.4431 350.695 54.2554C351.26 53.0676 351.542 51.4146 351.542 49.2964C351.542 47.1781 351.255 45.5251 350.681 44.3374C350.116 43.1496 349.285 42.3132 348.186 41.8282C347.097 41.3432 345.761 41.1007 344.177 41.1007H341.267V57.4921Z" fill="white"/>
</svg>
