<svg width="96" height="41" viewBox="0 0 96 41" fill="none" xmlns="http://www.w3.org/2000/svg">
<path d="M18.5613 29V11.0364H30.4552V14.1677H22.3593V18.4481H29.6658V21.5795H22.3593V29H18.5613ZM32.7226 29V15.5273H36.3451V17.878H36.4855C36.7311 17.0418 37.1433 16.4103 37.7222 15.9834C38.3011 15.5507 38.9677 15.3343 39.7221 15.3343C39.9092 15.3343 40.1109 15.346 40.3273 15.3694C40.5436 15.3928 40.7337 15.4249 40.8974 15.4659V18.7814C40.722 18.7288 40.4793 18.682 40.1694 18.6411C39.8595 18.6002 39.5759 18.5797 39.3186 18.5797C38.7689 18.5797 38.2777 18.6996 37.845 18.9393C37.4181 19.1732 37.079 19.5007 36.8275 19.9217C36.5819 20.3427 36.4591 20.8281 36.4591 21.3777V29H32.7226ZM48.2894 29.2631C46.927 29.2631 45.7487 28.9737 44.7546 28.3948C43.7664 27.81 43.0033 26.9972 42.4653 25.9564C41.9273 24.9096 41.6583 23.6963 41.6583 22.3163C41.6583 20.9245 41.9273 19.7083 42.4653 18.6674C43.0033 17.6207 43.7664 16.8079 44.7546 16.229C45.7487 15.6442 46.927 15.3518 48.2894 15.3518C49.6519 15.3518 50.8273 15.6442 51.8155 16.229C52.8096 16.8079 53.5756 17.6207 54.1136 18.6674C54.6516 19.7083 54.9206 20.9245 54.9206 22.3163C54.9206 23.6963 54.6516 24.9096 54.1136 25.9564C53.5756 26.9972 52.8096 27.81 51.8155 28.3948C50.8273 28.9737 49.6519 29.2631 48.2894 29.2631ZM48.307 26.3686C48.9268 26.3686 49.4443 26.1932 49.8595 25.8423C50.2747 25.4856 50.5875 25.0003 50.798 24.3863C51.0144 23.7723 51.1226 23.0735 51.1226 22.2899C51.1226 21.5064 51.0144 20.8076 50.798 20.1936C50.5875 19.5796 50.2747 19.0943 49.8595 18.7376C49.4443 18.3809 48.9268 18.2025 48.307 18.2025C47.6813 18.2025 47.155 18.3809 46.7282 18.7376C46.3071 19.0943 45.9884 19.5796 45.7721 20.1936C45.5616 20.8076 45.4563 21.5064 45.4563 22.2899C45.4563 23.0735 45.5616 23.7723 45.7721 24.3863C45.9884 25.0003 46.3071 25.4856 46.7282 25.8423C47.155 26.1932 47.6813 26.3686 48.307 26.3686ZM57.3502 29V15.5273H60.9114V17.9043H61.0692C61.3499 17.1149 61.8177 16.4921 62.4727 16.036C63.1276 15.5799 63.9111 15.3518 64.8234 15.3518C65.7473 15.3518 66.5338 15.5828 67.1828 16.0448C67.8319 16.5009 68.2646 17.1207 68.481 17.9043H68.6213C68.8962 17.1324 69.3932 16.5155 70.1125 16.0536C70.8376 15.5857 71.6942 15.3518 72.6825 15.3518C73.9397 15.3518 74.9601 15.7524 75.7436 16.5535C76.5331 17.3488 76.9278 18.4774 76.9278 19.9392V29H73.2V20.676C73.2 19.9275 73.0011 19.3662 72.6035 18.9919C72.2059 18.6177 71.7088 18.4306 71.1124 18.4306C70.4341 18.4306 69.9049 18.6469 69.5248 19.0797C69.1447 19.5065 68.9546 20.0708 68.9546 20.7725V29H65.3321V20.5971C65.3321 19.9363 65.1421 19.41 64.762 19.0183C64.3877 18.6265 63.8936 18.4306 63.2796 18.4306C62.8644 18.4306 62.4902 18.5358 62.1569 18.7463C61.8294 18.951 61.5692 19.2405 61.3762 19.6147C61.1833 19.9831 61.0868 20.4158 61.0868 20.9129V29H57.3502Z" fill="#02B873"/>
</svg>
