<svg width="338" height="42" viewBox="0 0 338 42" fill="none" xmlns="http://www.w3.org/2000/svg">
<path d="M22.538 26.043L22.5468 21.5609H23.0906L27.4061 16.4472H31.6952L25.8974 23.2186H25.0115L22.538 26.043ZM19.1523 29.9199V11.9563H22.8888V29.9199H19.1523ZM27.5727 29.9199L23.6081 24.0519L26.0991 21.4118L31.9496 29.9199H27.5727ZM39.0434 35.2529C37.8329 35.2529 36.795 35.0862 35.9296 34.7529C35.07 34.4255 34.3858 33.9781 33.8771 33.4109C33.3684 32.8437 33.038 32.2063 32.8859 31.4988L36.3418 31.0339C36.4471 31.3029 36.6137 31.5543 36.8418 31.7882C37.0698 32.0221 37.371 32.2092 37.7452 32.3496C38.1253 32.4958 38.5873 32.5689 39.1311 32.5689C39.9439 32.5689 40.6135 32.37 41.1397 31.9724C41.6719 31.5806 41.9379 30.9228 41.9379 29.9989V27.5341H41.78C41.6163 27.9084 41.3707 28.2621 41.0432 28.5955C40.7158 28.9288 40.2948 29.2007 39.7802 29.4112C39.2656 29.6217 38.6516 29.727 37.9382 29.727C36.9266 29.727 36.0056 29.4931 35.1752 29.0252C34.3507 28.5516 33.6929 27.8294 33.2017 26.8587C32.7164 25.8822 32.4737 24.6484 32.4737 23.1572C32.4737 21.631 32.7222 20.3563 33.2192 19.333C33.7163 18.3096 34.3771 17.5436 35.2016 17.0349C36.0319 16.5261 36.9412 16.2718 37.9294 16.2718C38.6838 16.2718 39.3153 16.4004 39.824 16.6577C40.3328 16.9091 40.7421 17.2249 41.052 17.605C41.3678 17.9792 41.6105 18.3476 41.78 18.7102H41.9204V16.4472H45.6306V30.0515C45.6306 31.1976 45.35 32.1566 44.7886 32.9285C44.2272 33.7004 43.4495 34.2793 42.4554 34.6652C41.4672 35.057 40.3298 35.2529 39.0434 35.2529ZM39.1223 26.9201C39.7246 26.9201 40.2334 26.771 40.6485 26.4728C41.0696 26.1687 41.3912 25.736 41.6134 25.1746C41.8414 24.6074 41.9555 23.9291 41.9555 23.1397C41.9555 22.3503 41.8444 21.6661 41.6222 21.0872C41.3999 20.5025 41.0783 20.0493 40.6573 19.7277C40.2363 19.406 39.7246 19.2452 39.1223 19.2452C38.5083 19.2452 37.9908 19.4119 37.5698 19.7452C37.1488 20.0727 36.8301 20.5288 36.6137 21.1135C36.3974 21.6983 36.2892 22.3737 36.2892 23.1397C36.2892 23.9174 36.3974 24.5899 36.6137 25.1571C36.8359 25.7185 37.1546 26.1541 37.5698 26.464C37.9908 26.7681 38.5083 26.9201 39.1223 26.9201ZM60.4081 30.1831C59.0456 30.1831 57.8673 29.8936 56.8733 29.3147C55.885 28.7299 55.1219 27.9171 54.584 26.8763C54.046 25.8296 53.777 24.6162 53.777 23.2362C53.777 21.8445 54.046 20.6282 54.584 19.5873C55.1219 18.5406 55.885 17.7278 56.8733 17.1489C57.8673 16.5641 59.0456 16.2718 60.4081 16.2718C61.7706 16.2718 62.9459 16.5641 63.9342 17.1489C64.9282 17.7278 65.6943 18.5406 66.2322 19.5873C66.7702 20.6282 67.0392 21.8445 67.0392 23.2362C67.0392 24.6162 66.7702 25.8296 66.2322 26.8763C65.6943 27.9171 64.9282 28.7299 63.9342 29.3147C62.9459 29.8936 61.7706 30.1831 60.4081 30.1831ZM60.4256 27.2885C61.0455 27.2885 61.563 27.1131 61.9782 26.7623C62.3933 26.4056 62.7062 25.9202 62.9167 25.3062C63.1331 24.6922 63.2412 23.9934 63.2412 23.2099C63.2412 22.4263 63.1331 21.7275 62.9167 21.1135C62.7062 20.4995 62.3933 20.0142 61.9782 19.6575C61.563 19.3008 61.0455 19.1224 60.4256 19.1224C59.8 19.1224 59.2737 19.3008 58.8468 19.6575C58.4258 20.0142 58.1071 20.4995 57.8907 21.1135C57.6802 21.7275 57.575 22.4263 57.575 23.2099C57.575 23.9934 57.6802 24.6922 57.8907 25.3062C58.1071 25.9202 58.4258 26.4056 58.8468 26.7623C59.2737 27.1131 59.8 27.2885 60.4256 27.2885ZM76.714 16.4472V19.254H68.3988V16.4472H76.714ZM70.3021 29.9199V15.4736C70.3021 14.497 70.4922 13.6872 70.8723 13.0439C71.2582 12.4007 71.7845 11.9183 72.4511 11.5967C73.1177 11.275 73.875 11.1142 74.7229 11.1142C75.2959 11.1142 75.8193 11.1581 76.2929 11.2458C76.7724 11.3335 77.1291 11.4125 77.363 11.4826L76.6964 14.2895C76.5502 14.2427 76.369 14.1988 76.1526 14.1579C75.9421 14.1169 75.7257 14.0965 75.5035 14.0965C74.9539 14.0965 74.5708 14.2251 74.3545 14.4824C74.1381 14.7339 74.0299 15.0876 74.0299 15.5437V29.9199H70.3021ZM88.5552 30.1743C87.6956 30.1743 86.9296 30.0252 86.2571 29.727C85.5847 29.4229 85.0525 28.9755 84.6608 28.3849C84.2748 27.7885 84.0819 27.0459 84.0819 26.157C84.0819 25.4085 84.2193 24.7799 84.4941 24.2712C84.7689 23.7625 85.1432 23.3531 85.6168 23.0432C86.0905 22.7333 86.6285 22.4994 87.2308 22.3415C87.8389 22.1836 88.4763 22.0725 89.1429 22.0082C89.9265 21.9263 90.558 21.8503 91.0375 21.7801C91.517 21.7041 91.8649 21.593 92.0813 21.4468C92.2976 21.3007 92.4058 21.0843 92.4058 20.7978V20.7451C92.4058 20.1896 92.2304 19.7598 91.8795 19.4558C91.5345 19.1517 91.0433 18.9996 90.406 18.9996C89.7335 18.9996 89.1985 19.1488 88.8008 19.447C88.4032 19.7394 88.14 20.1078 88.0114 20.5522L84.5555 20.2715C84.7309 19.4528 85.0759 18.7453 85.5905 18.1488C86.1051 17.5465 86.7688 17.0846 87.5816 16.763C88.4003 16.4355 89.3476 16.2718 90.4235 16.2718C91.172 16.2718 91.8883 16.3595 92.5725 16.5349C93.2625 16.7103 93.8736 16.9822 94.4057 17.3506C94.9437 17.719 95.3676 18.1927 95.6775 18.7716C95.9874 19.3446 96.1424 20.0317 96.1424 20.8328V29.9199H92.5988V28.0516H92.4935C92.2772 28.4727 91.9877 28.844 91.6252 29.1656C91.2626 29.4814 90.827 29.7299 90.3183 29.9112C89.8095 30.0866 89.2218 30.1743 88.5552 30.1743ZM89.6253 27.5955C90.175 27.5955 90.6603 27.4873 91.0814 27.271C91.5024 27.0488 91.8328 26.7506 92.0725 26.3763C92.3123 26.0021 92.4321 25.5781 92.4321 25.1045V23.6748C92.3152 23.7508 92.1544 23.8209 91.9497 23.8853C91.7509 23.9437 91.5258 23.9993 91.2743 24.0519C91.0229 24.0987 90.7714 24.1426 90.52 24.1835C90.2686 24.2186 90.0405 24.2507 89.8358 24.28C89.3973 24.3443 89.0143 24.4466 88.6868 24.587C88.3593 24.7273 88.105 24.9174 87.9237 25.1571C87.7424 25.391 87.6518 25.6834 87.6518 26.0342C87.6518 26.543 87.836 26.9318 88.2044 27.2008C88.5786 27.464 89.0523 27.5955 89.6253 27.5955ZM102.778 11.9563V29.9199H99.0413V11.9563H102.778ZM114.411 24.1835V16.4472H118.147V29.9199H114.56V27.4727H114.42C114.116 28.2621 113.61 28.8966 112.902 29.3761C112.2 29.8556 111.344 30.0953 110.332 30.0953C109.432 30.0953 108.639 29.8907 107.955 29.4814C107.271 29.072 106.736 28.4902 106.35 27.7359C105.97 26.9815 105.777 26.0781 105.771 25.0255V16.4472H109.508V24.3589C109.514 25.1542 109.727 25.7828 110.148 26.2447C110.569 26.7067 111.133 26.9377 111.841 26.9377C112.291 26.9377 112.712 26.8353 113.104 26.6307C113.496 26.4202 113.811 26.1103 114.051 25.7009C114.297 25.2916 114.417 24.7858 114.411 24.1835ZM121.136 29.9199V16.4472H124.697V18.8242H124.855C125.136 18.0348 125.604 17.412 126.259 16.9559C126.914 16.4998 127.697 16.2718 128.609 16.2718C129.533 16.2718 130.32 16.5027 130.969 16.9647C131.618 17.4208 132.051 18.0406 132.267 18.8242H132.407C132.682 18.0523 133.179 17.4354 133.898 16.9735C134.624 16.5057 135.48 16.2718 136.468 16.2718C137.726 16.2718 138.746 16.6723 139.53 17.4734C140.319 18.2687 140.714 19.3973 140.714 20.8592V29.9199H136.986V21.596C136.986 20.8475 136.787 20.2861 136.39 19.9119C135.992 19.5376 135.495 19.3505 134.898 19.3505C134.22 19.3505 133.691 19.5669 133.311 19.9996C132.931 20.4264 132.741 20.9907 132.741 21.6924V29.9199H129.118V21.517C129.118 20.8562 128.928 20.33 128.548 19.9382C128.174 19.5464 127.68 19.3505 127.066 19.3505C126.65 19.3505 126.276 19.4558 125.943 19.6663C125.615 19.8709 125.355 20.1604 125.162 20.5346C124.969 20.903 124.873 21.3357 124.873 21.8328V29.9199H121.136ZM143.665 29.9199V16.4472H147.402V29.9199H143.665ZM145.542 14.7105C144.987 14.7105 144.51 14.5263 144.113 14.1579C143.721 13.7836 143.525 13.3363 143.525 12.8159C143.525 12.3013 143.721 11.8598 144.113 11.4914C144.51 11.1172 144.987 10.93 145.542 10.93C146.098 10.93 146.572 11.1172 146.963 11.4914C147.361 11.8598 147.56 12.3013 147.56 12.8159C147.56 13.3363 147.361 13.7836 146.963 14.1579C146.572 14.5263 146.098 14.7105 145.542 14.7105ZM154.132 22.131V29.9199H150.395V16.4472H153.956V18.8242H154.114C154.412 18.0406 154.912 17.4208 155.614 16.9647C156.316 16.5027 157.167 16.2718 158.167 16.2718C159.102 16.2718 159.918 16.4764 160.614 16.8858C161.31 17.2951 161.85 17.8798 162.236 18.64C162.622 19.3944 162.815 20.2949 162.815 21.3416V29.9199H159.079V22.0082C159.085 21.1837 158.874 20.5405 158.447 20.0785C158.02 19.6107 157.433 19.3768 156.684 19.3768C156.181 19.3768 155.737 19.485 155.351 19.7013C154.971 19.9177 154.673 20.2335 154.456 20.6487C154.246 21.058 154.138 21.5521 154.132 22.131ZM174.4 24.1835V16.4472H178.137V29.9199H174.549V27.4727H174.409C174.105 28.2621 173.599 28.8966 172.891 29.3761C172.19 29.8556 171.333 30.0953 170.321 30.0953C169.421 30.0953 168.628 29.8907 167.944 29.4814C167.26 29.072 166.725 28.4902 166.339 27.7359C165.959 26.9815 165.766 26.0781 165.76 25.0255V16.4472H169.497V24.3589C169.503 25.1542 169.716 25.7828 170.137 26.2447C170.558 26.7067 171.122 26.9377 171.83 26.9377C172.28 26.9377 172.701 26.8353 173.093 26.6307C173.485 26.4202 173.801 26.1103 174.04 25.7009C174.286 25.2916 174.406 24.7858 174.4 24.1835ZM181.125 29.9199V16.4472H184.687V18.8242H184.844C185.125 18.0348 185.593 17.412 186.248 16.9559C186.903 16.4998 187.686 16.2718 188.599 16.2718C189.522 16.2718 190.309 16.5027 190.958 16.9647C191.607 17.4208 192.04 18.0406 192.256 18.8242H192.397C192.671 18.0523 193.168 17.4354 193.888 16.9735C194.613 16.5057 195.469 16.2718 196.458 16.2718C197.715 16.2718 198.735 16.6723 199.519 17.4734C200.308 18.2687 200.703 19.3973 200.703 20.8592V29.9199H196.975V21.596C196.975 20.8475 196.776 20.2861 196.379 19.9119C195.981 19.5376 195.484 19.3505 194.888 19.3505C194.209 19.3505 193.68 19.5669 193.3 19.9996C192.92 20.4264 192.73 20.9907 192.73 21.6924V29.9199H189.107V21.517C189.107 20.8562 188.917 20.33 188.537 19.9382C188.163 19.5464 187.669 19.3505 187.055 19.3505C186.64 19.3505 186.265 19.4558 185.932 19.6663C185.605 19.8709 185.344 20.1604 185.151 20.5346C184.958 20.903 184.862 21.3357 184.862 21.8328V29.9199H181.125ZM215.458 30.1831C214.078 30.1831 212.891 29.8907 211.897 29.3059C210.909 28.7153 210.149 27.8967 209.617 26.85C209.091 25.8033 208.827 24.5987 208.827 23.2362C208.827 21.8562 209.093 20.6457 209.626 19.6049C210.164 18.5582 210.927 17.7424 211.915 17.1577C212.903 16.5671 214.078 16.2718 215.441 16.2718C216.616 16.2718 217.645 16.4852 218.528 16.9121C219.411 17.3389 220.11 17.9383 220.625 18.7102C221.139 19.4821 221.423 20.3884 221.476 21.4293H217.95C217.85 20.7568 217.587 20.2159 217.16 19.8066C216.739 19.3914 216.187 19.1838 215.502 19.1838C214.923 19.1838 214.418 19.3417 213.985 19.6575C213.558 19.9674 213.225 20.4206 212.985 21.017C212.745 21.6135 212.625 22.3357 212.625 23.1836C212.625 24.0431 212.742 24.7741 212.976 25.3764C213.216 25.9787 213.552 26.4377 213.985 26.7535C214.418 27.0692 214.923 27.2271 215.502 27.2271C215.929 27.2271 216.312 27.1394 216.651 26.964C216.996 26.7886 217.28 26.5342 217.502 26.2009C217.73 25.8617 217.879 25.4553 217.95 24.9817H221.476C221.417 26.0108 221.136 26.9172 220.634 27.7008C220.137 28.4785 219.449 29.0866 218.572 29.5252C217.695 29.9638 216.657 30.1831 215.458 30.1831ZM229.955 30.1831C228.593 30.1831 227.415 29.8936 226.42 29.3147C225.432 28.7299 224.669 27.9171 224.131 26.8763C223.593 25.8296 223.324 24.6162 223.324 23.2362C223.324 21.8445 223.593 20.6282 224.131 19.5873C224.669 18.5406 225.432 17.7278 226.42 17.1489C227.415 16.5641 228.593 16.2718 229.955 16.2718C231.318 16.2718 232.493 16.5641 233.481 17.1489C234.475 17.7278 235.241 18.5406 235.779 19.5873C236.317 20.6282 236.586 21.8445 236.586 23.2362C236.586 24.6162 236.317 25.8296 235.779 26.8763C235.241 27.9171 234.475 28.7299 233.481 29.3147C232.493 29.8936 231.318 30.1831 229.955 30.1831ZM229.973 27.2885C230.593 27.2885 231.11 27.1131 231.525 26.7623C231.941 26.4056 232.253 25.9202 232.464 25.3062C232.68 24.6922 232.788 23.9934 232.788 23.2099C232.788 22.4263 232.68 21.7275 232.464 21.1135C232.253 20.4995 231.941 20.0142 231.525 19.6575C231.11 19.3008 230.593 19.1224 229.973 19.1224C229.347 19.1224 228.821 19.3008 228.394 19.6575C227.973 20.0142 227.654 20.4995 227.438 21.1135C227.227 21.7275 227.122 22.4263 227.122 23.2099C227.122 23.9934 227.227 24.6922 227.438 25.3062C227.654 25.9202 227.973 26.4056 228.394 26.7623C228.821 27.1131 229.347 27.2885 229.973 27.2885ZM242.753 11.9563V29.9199H239.016V11.9563H242.753ZM249.482 11.9563V29.9199H245.746V11.9563H249.482ZM258.616 30.1831C257.23 30.1831 256.037 29.9024 255.037 29.341C254.043 28.7738 253.277 27.9727 252.739 26.9377C252.201 25.8968 251.932 24.6659 251.932 23.245C251.932 21.8591 252.201 20.6428 252.739 19.5961C253.277 18.5494 254.034 17.7337 255.011 17.1489C255.993 16.5641 257.145 16.2718 258.466 16.2718C259.355 16.2718 260.183 16.415 260.949 16.7016C261.721 16.9822 262.393 17.4062 262.966 17.9734C263.545 18.5406 263.995 19.254 264.317 20.1136C264.638 20.9673 264.799 21.9673 264.799 23.1134V24.1396H253.423V21.824H261.282C261.282 21.286 261.165 20.8095 260.931 20.3943C260.697 19.9791 260.373 19.6546 259.958 19.4207C259.548 19.1809 259.072 19.061 258.528 19.061C257.961 19.061 257.458 19.1926 257.019 19.4558C256.586 19.713 256.247 20.061 256.002 20.4995C255.756 20.9323 255.63 21.4147 255.625 21.9468V24.1484C255.625 24.815 255.747 25.391 255.993 25.8763C256.244 26.3617 256.598 26.7359 257.054 26.9991C257.51 27.2622 258.051 27.3938 258.677 27.3938C259.092 27.3938 259.472 27.3353 259.817 27.2184C260.162 27.1014 260.457 26.926 260.703 26.6921C260.949 26.4582 261.136 26.1716 261.264 25.8325L264.72 26.0605C264.545 26.8909 264.185 27.616 263.641 28.2358C263.104 28.8498 262.408 29.3293 261.554 29.6743C260.706 30.0135 259.727 30.1831 258.616 30.1831ZM273.325 30.1831C271.945 30.1831 270.758 29.8907 269.764 29.3059C268.776 28.7153 268.015 27.8967 267.483 26.85C266.957 25.8033 266.694 24.5987 266.694 23.2362C266.694 21.8562 266.96 20.6457 267.492 19.6049C268.03 18.5582 268.793 17.7424 269.781 17.1577C270.77 16.5671 271.945 16.2718 273.307 16.2718C274.483 16.2718 275.512 16.4852 276.395 16.9121C277.278 17.3389 277.977 17.9383 278.491 18.7102C279.006 19.4821 279.289 20.3884 279.342 21.4293H275.816C275.717 20.7568 275.454 20.2159 275.027 19.8066C274.606 19.3914 274.053 19.1838 273.369 19.1838C272.79 19.1838 272.284 19.3417 271.851 19.6575C271.425 19.9674 271.091 20.4206 270.851 21.017C270.612 21.6135 270.492 22.3357 270.492 23.1836C270.492 24.0431 270.609 24.7741 270.843 25.3764C271.082 25.9787 271.419 26.4377 271.851 26.7535C272.284 27.0692 272.79 27.2271 273.369 27.2271C273.796 27.2271 274.179 27.1394 274.518 26.964C274.863 26.7886 275.147 26.5342 275.369 26.2009C275.597 25.8617 275.746 25.4553 275.816 24.9817H279.342C279.284 26.0108 279.003 26.9172 278.5 27.7008C278.003 28.4785 277.316 29.0866 276.439 29.5252C275.562 29.9638 274.524 30.1831 273.325 30.1831ZM288.901 16.4472V19.254H280.787V16.4472H288.901ZM282.629 13.2194H286.366V25.7799C286.366 26.1249 286.418 26.3939 286.524 26.5868C286.629 26.7739 286.775 26.9055 286.962 26.9815C287.155 27.0576 287.377 27.0956 287.629 27.0956C287.804 27.0956 287.98 27.0809 288.155 27.0517C288.331 27.0166 288.465 26.9903 288.559 26.9728L289.146 29.7533C288.959 29.8117 288.696 29.879 288.357 29.955C288.018 30.0369 287.605 30.0866 287.12 30.1041C286.22 30.1392 285.43 30.0193 284.752 29.7445C284.079 29.4697 283.556 29.0428 283.182 28.4639C282.808 27.885 282.623 27.154 282.629 26.2711V13.2194ZM297.33 30.1831C295.944 30.1831 294.751 29.9024 293.751 29.341C292.757 28.7738 291.991 27.9727 291.453 26.9377C290.915 25.8968 290.646 24.6659 290.646 23.245C290.646 21.8591 290.915 20.6428 291.453 19.5961C291.991 18.5494 292.748 17.7337 293.725 17.1489C294.707 16.5641 295.859 16.2718 297.181 16.2718C298.07 16.2718 298.897 16.415 299.663 16.7016C300.435 16.9822 301.107 17.4062 301.68 17.9734C302.259 18.5406 302.71 19.254 303.031 20.1136C303.353 20.9673 303.514 21.9673 303.514 23.1134V24.1396H292.137V21.824H299.996C299.996 21.286 299.879 20.8095 299.646 20.3943C299.412 19.9791 299.087 19.6546 298.672 19.4207C298.263 19.1809 297.786 19.061 297.242 19.061C296.675 19.061 296.172 19.1926 295.734 19.4558C295.301 19.713 294.962 20.061 294.716 20.4995C294.47 20.9323 294.345 21.4147 294.339 21.9468V24.1484C294.339 24.815 294.462 25.391 294.707 25.8763C294.959 26.3617 295.312 26.7359 295.769 26.9991C296.225 27.2622 296.766 27.3938 297.391 27.3938C297.806 27.3938 298.187 27.3353 298.532 27.2184C298.877 27.1014 299.172 26.926 299.417 26.6921C299.663 26.4582 299.85 26.1716 299.979 25.8325L303.435 26.0605C303.259 26.8909 302.9 27.616 302.356 28.2358C301.818 28.8498 301.122 29.3293 300.268 29.6743C299.42 30.0135 298.441 30.1831 297.33 30.1831ZM310.917 30.1392C309.893 30.1392 308.966 29.8761 308.136 29.3498C307.312 28.8177 306.657 28.037 306.171 27.0078C305.692 25.9728 305.452 24.7039 305.452 23.2011C305.452 21.6574 305.701 20.3738 306.198 19.3505C306.695 18.3213 307.355 17.5524 308.18 17.0436C309.01 16.5291 309.92 16.2718 310.908 16.2718C311.662 16.2718 312.291 16.4004 312.794 16.6577C313.302 16.9091 313.712 17.2249 314.022 17.605C314.337 17.9792 314.577 18.3476 314.741 18.7102H314.855V11.9563H318.583V29.9199H314.899V27.7622H314.741C314.565 28.1364 314.317 28.5077 313.995 28.8761C313.68 29.2387 313.267 29.5398 312.759 29.7796C312.256 30.0193 311.642 30.1392 310.917 30.1392ZM312.101 27.1657C312.703 27.1657 313.212 27.002 313.627 26.6745C314.048 26.3412 314.37 25.8763 314.592 25.2799C314.82 24.6835 314.934 23.9847 314.934 23.1836C314.934 22.3824 314.823 21.6866 314.601 21.096C314.378 20.5054 314.057 20.0493 313.636 19.7277C313.215 19.406 312.703 19.2452 312.101 19.2452C311.487 19.2452 310.969 19.4119 310.548 19.7452C310.127 20.0785 309.809 20.5405 309.592 21.1311C309.376 21.7217 309.268 22.4058 309.268 23.1836C309.268 23.9671 309.376 24.6601 309.592 25.2624C309.814 25.8588 310.133 26.3266 310.548 26.6658C310.969 26.9991 311.487 27.1657 312.101 27.1657Z" fill="#55CCD0"/>
</svg>
