<svg width="308" height="42" viewBox="0 0 308 42" fill="none" xmlns="http://www.w3.org/2000/svg">
<path d="M21.8768 26.043L21.8856 21.5609H22.4294L26.7449 16.4472H31.0341L25.2363 23.2186H24.3504L21.8768 26.043ZM18.4911 29.9199V11.9563H22.2277V29.9199H18.4911ZM26.9116 29.9199L22.9469 24.0519L25.438 21.4118L31.2885 29.9199H26.9116ZM38.3823 35.2529C37.1718 35.2529 36.1339 35.0862 35.2684 34.7529C34.4089 34.4255 33.7247 33.9781 33.216 33.4109C32.7072 32.8437 32.3768 32.2063 32.2248 31.4988L35.6807 31.0339C35.7859 31.3029 35.9526 31.5543 36.1807 31.7882C36.4087 32.0221 36.7099 32.2092 37.0841 32.3496C37.4642 32.4958 37.9261 32.5689 38.47 32.5689C39.2828 32.5689 39.9523 32.37 40.4786 31.9724C41.0107 31.5806 41.2768 30.9228 41.2768 29.9989V27.5341H41.1189C40.9552 27.9084 40.7096 28.2621 40.3821 28.5955C40.0546 28.9288 39.6336 29.2007 39.119 29.4112C38.6045 29.6217 37.9905 29.727 37.2771 29.727C36.2654 29.727 35.3445 29.4931 34.5141 29.0252C33.6896 28.5516 33.0318 27.8294 32.5406 26.8587C32.0552 25.8822 31.8125 24.6484 31.8125 23.1572C31.8125 21.631 32.0611 20.3563 32.5581 19.333C33.0551 18.3096 33.7159 17.5436 34.5404 17.0349C35.3708 16.5261 36.2801 16.2718 37.2683 16.2718C38.0226 16.2718 38.6542 16.4004 39.1629 16.6577C39.6716 16.9091 40.081 17.2249 40.3909 17.605C40.7067 17.9792 40.9493 18.3476 41.1189 18.7102H41.2592V16.4472H44.9695V30.0515C44.9695 31.1976 44.6888 32.1566 44.1275 32.9285C43.5661 33.7004 42.7884 34.2793 41.7943 34.6652C40.8061 35.057 39.6687 35.2529 38.3823 35.2529ZM38.4612 26.9201C39.0635 26.9201 39.5722 26.771 39.9874 26.4728C40.4084 26.1687 40.73 25.736 40.9522 25.1746C41.1803 24.6074 41.2943 23.9291 41.2943 23.1397C41.2943 22.3503 41.1832 21.6661 40.961 21.0872C40.7388 20.5025 40.4172 20.0493 39.9962 19.7277C39.5752 19.406 39.0635 19.2452 38.4612 19.2452C37.8472 19.2452 37.3297 19.4119 36.9087 19.7452C36.4877 20.0727 36.169 20.5288 35.9526 21.1135C35.7362 21.6983 35.6281 22.3737 35.6281 23.1397C35.6281 23.9174 35.7362 24.5899 35.9526 25.1571C36.1748 25.7185 36.4935 26.1541 36.9087 26.464C37.3297 26.7681 37.8472 26.9201 38.4612 26.9201ZM59.747 30.1831C58.3845 30.1831 57.2062 29.8936 56.2121 29.3147C55.2239 28.7299 54.4608 27.9171 53.9228 26.8763C53.3848 25.8296 53.1159 24.6162 53.1159 23.2362C53.1159 21.8445 53.3848 20.6282 53.9228 19.5873C54.4608 18.5406 55.2239 17.7278 56.2121 17.1489C57.2062 16.5641 58.3845 16.2718 59.747 16.2718C61.1094 16.2718 62.2848 16.5641 63.273 17.1489C64.2671 17.7278 65.0331 18.5406 65.5711 19.5873C66.1091 20.6282 66.3781 21.8445 66.3781 23.2362C66.3781 24.6162 66.1091 25.8296 65.5711 26.8763C65.0331 27.9171 64.2671 28.7299 63.273 29.3147C62.2848 29.8936 61.1094 30.1831 59.747 30.1831ZM59.7645 27.2885C60.3843 27.2885 60.9019 27.1131 61.317 26.7623C61.7322 26.4056 62.045 25.9202 62.2556 25.3062C62.4719 24.6922 62.5801 23.9934 62.5801 23.2099C62.5801 22.4263 62.4719 21.7275 62.2556 21.1135C62.045 20.4995 61.7322 20.0142 61.317 19.6575C60.9019 19.3008 60.3843 19.1224 59.7645 19.1224C59.1388 19.1224 58.6125 19.3008 58.1857 19.6575C57.7647 20.0142 57.446 20.4995 57.2296 21.1135C57.0191 21.7275 56.9138 22.4263 56.9138 23.2099C56.9138 23.9934 57.0191 24.6922 57.2296 25.3062C57.446 25.9202 57.7647 26.4056 58.1857 26.7623C58.6125 27.1131 59.1388 27.2885 59.7645 27.2885ZM76.0528 16.4472V19.254H67.7376V16.4472H76.0528ZM69.641 29.9199V15.4736C69.641 14.497 69.831 13.6872 70.2111 13.0439C70.5971 12.4007 71.1234 11.9183 71.79 11.5967C72.4566 11.275 73.2138 11.1142 74.0617 11.1142C74.6348 11.1142 75.1582 11.1581 75.6318 11.2458C76.1113 11.3335 76.468 11.4125 76.7019 11.4826L76.0353 14.2895C75.8891 14.2427 75.7078 14.1988 75.4915 14.1579C75.281 14.1169 75.0646 14.0965 74.8424 14.0965C74.2927 14.0965 73.9097 14.2251 73.6933 14.4824C73.477 14.7339 73.3688 15.0876 73.3688 15.5437V29.9199H69.641ZM99.9722 18.2453H96.1303C96.0602 17.7483 95.9169 17.3068 95.7006 16.9208C95.4842 16.5291 95.2064 16.1957 94.8673 15.9209C94.5281 15.6461 94.1363 15.4356 93.6919 15.2894C93.2534 15.1432 92.7768 15.0701 92.2622 15.0701C91.3324 15.0701 90.5226 15.3011 89.8325 15.763C89.1425 16.2191 88.6075 16.8858 88.2274 17.7629C87.8473 18.6342 87.6573 19.6926 87.6573 20.9381C87.6573 22.2187 87.8473 23.2947 88.2274 24.1659C88.6133 25.0372 89.1513 25.6951 89.8413 26.1395C90.5313 26.5839 91.3295 26.8061 92.2359 26.8061C92.7446 26.8061 93.2153 26.7389 93.6481 26.6044C94.0866 26.4699 94.4755 26.274 94.8147 26.0167C95.1538 25.7536 95.4345 25.4349 95.6567 25.0606C95.8848 24.6864 96.0426 24.2595 96.1303 23.78L99.9722 23.7975C99.8728 24.6221 99.6243 25.4173 99.2266 26.1833C98.8348 26.9435 98.3056 27.6248 97.639 28.2271C96.9782 28.8235 96.1888 29.2972 95.2708 29.648C94.3585 29.993 93.3265 30.1655 92.1745 30.1655C90.5723 30.1655 89.1396 29.803 87.8765 29.0779C86.6193 28.3528 85.6252 27.3031 84.8943 25.929C84.1692 24.5548 83.8067 22.8912 83.8067 20.9381C83.8067 18.9792 84.1751 17.3126 84.9118 15.9385C85.6486 14.5643 86.6486 13.5176 87.9116 12.7983C89.1747 12.0732 90.5957 11.7107 92.1745 11.7107C93.2153 11.7107 94.1802 11.8569 95.069 12.1493C95.9637 12.4416 96.756 12.8685 97.446 13.4299C98.1361 13.9854 98.6974 14.6666 99.1301 15.4736C99.5687 16.2805 99.8494 17.2045 99.9722 18.2453ZM119.203 20.9381C119.203 22.897 118.832 24.5636 118.089 25.9377C117.353 27.3119 116.347 28.3616 115.072 29.0866C113.803 29.8059 112.376 30.1655 110.792 30.1655C109.195 30.1655 107.763 29.803 106.494 29.0779C105.225 28.3528 104.222 27.3031 103.485 25.929C102.748 24.5548 102.38 22.8912 102.38 20.9381C102.38 18.9792 102.748 17.3126 103.485 15.9385C104.222 14.5643 105.225 13.5176 106.494 12.7983C107.763 12.0732 109.195 11.7107 110.792 11.7107C112.376 11.7107 113.803 12.0732 115.072 12.7983C116.347 13.5176 117.353 14.5643 118.089 15.9385C118.832 17.3126 119.203 18.9792 119.203 20.9381ZM115.353 20.9381C115.353 19.6692 115.163 18.5991 114.783 17.7278C114.408 16.8565 113.879 16.1958 113.195 15.7455C112.511 15.2952 111.71 15.0701 110.792 15.0701C109.874 15.0701 109.072 15.2952 108.388 15.7455C107.704 16.1958 107.172 16.8565 106.792 17.7278C106.418 18.5991 106.231 19.6692 106.231 20.9381C106.231 22.207 106.418 23.2771 106.792 24.1484C107.172 25.0197 107.704 25.6805 108.388 26.1307C109.072 26.581 109.874 26.8061 110.792 26.8061C111.71 26.8061 112.511 26.581 113.195 26.1307C113.879 25.6805 114.408 25.0197 114.783 24.1484C115.163 23.2771 115.353 22.207 115.353 20.9381ZM121.911 29.9199V27.1833L128.306 21.2626C128.85 20.7364 129.306 20.2627 129.674 19.8417C130.048 19.4207 130.332 19.0084 130.525 18.6049C130.718 18.1956 130.814 17.7541 130.814 17.2805C130.814 16.7542 130.694 16.301 130.455 15.9209C130.215 15.535 129.887 15.2397 129.472 15.035C129.057 14.8245 128.586 14.7192 128.06 14.7192C127.51 14.7192 127.031 14.8303 126.622 15.0526C126.212 15.2748 125.897 15.5935 125.674 16.0086C125.452 16.4238 125.341 16.9179 125.341 17.491H121.736C121.736 16.3156 122.002 15.2952 122.534 14.4298C123.066 13.5644 123.812 12.8948 124.771 12.4212C125.73 11.9475 126.835 11.7107 128.086 11.7107C129.373 11.7107 130.493 11.9387 131.446 12.3948C132.405 12.8451 133.15 13.4708 133.683 14.2719C134.215 15.073 134.481 15.9911 134.481 17.0261C134.481 17.7044 134.346 18.374 134.077 19.0347C133.814 19.6955 133.343 20.4294 132.665 21.2363C131.987 22.0374 131.031 22.9994 129.797 24.1221L127.174 26.6921V26.8149H134.718V29.9199H121.911ZM141.566 27.464L141.469 28.4288C141.393 29.2007 141.247 29.9696 141.031 30.7357C140.82 31.5075 140.598 32.2063 140.364 32.832C140.136 33.4577 139.952 33.9489 139.811 34.3056H137.391C137.478 33.9606 137.598 33.4781 137.75 32.8583C137.902 32.2443 138.046 31.5543 138.18 30.7883C138.314 30.0223 138.399 29.2416 138.434 28.4463L138.478 27.464H141.566ZM165.775 18.2453H161.933C161.863 17.7483 161.719 17.3068 161.503 16.9208C161.287 16.5291 161.009 16.1957 160.67 15.9209C160.33 15.6461 159.939 15.4356 159.494 15.2894C159.056 15.1432 158.579 15.0701 158.065 15.0701C157.135 15.0701 156.325 15.3011 155.635 15.763C154.945 16.2191 154.41 16.8858 154.03 17.7629C153.65 18.6342 153.46 19.6926 153.46 20.9381C153.46 22.2187 153.65 23.2947 154.03 24.1659C154.416 25.0372 154.954 25.6951 155.644 26.1395C156.334 26.5839 157.132 26.8061 158.038 26.8061C158.547 26.8061 159.018 26.7389 159.45 26.6044C159.889 26.4699 160.278 26.274 160.617 26.0167C160.956 25.7536 161.237 25.4349 161.459 25.0606C161.687 24.6864 161.845 24.2595 161.933 23.78L165.775 23.7975C165.675 24.6221 165.427 25.4173 165.029 26.1833C164.637 26.9435 164.108 27.6248 163.441 28.2271C162.781 28.8235 161.991 29.2972 161.073 29.648C160.161 29.993 159.129 30.1655 157.977 30.1655C156.375 30.1655 154.942 29.803 153.679 29.0779C152.422 28.3528 151.428 27.3031 150.697 25.929C149.972 24.5548 149.609 22.8912 149.609 20.9381C149.609 18.9792 149.977 17.3126 150.714 15.9385C151.451 14.5643 152.451 13.5176 153.714 12.7983C154.977 12.0732 156.398 11.7107 157.977 11.7107C159.018 11.7107 159.983 11.8569 160.871 12.1493C161.766 12.4416 162.558 12.8685 163.248 13.4299C163.938 13.9854 164.5 14.6666 164.932 15.4736C165.371 16.2805 165.652 17.2045 165.775 18.2453ZM185.006 20.9381C185.006 22.897 184.634 24.5636 183.892 25.9377C183.155 27.3119 182.149 28.3616 180.874 29.0866C179.605 29.8059 178.179 30.1655 176.594 30.1655C174.998 30.1655 173.565 29.803 172.296 29.0779C171.027 28.3528 170.024 27.3031 169.287 25.929C168.551 24.5548 168.182 22.8912 168.182 20.9381C168.182 18.9792 168.551 17.3126 169.287 15.9385C170.024 14.5643 171.027 13.5176 172.296 12.7983C173.565 12.0732 174.998 11.7107 176.594 11.7107C178.179 11.7107 179.605 12.0732 180.874 12.7983C182.149 13.5176 183.155 14.5643 183.892 15.9385C184.634 17.3126 185.006 18.9792 185.006 20.9381ZM181.155 20.9381C181.155 19.6692 180.965 18.5991 180.585 17.7278C180.211 16.8565 179.681 16.1958 178.997 15.7455C178.313 15.2952 177.512 15.0701 176.594 15.0701C175.676 15.0701 174.875 15.2952 174.191 15.7455C173.506 16.1958 172.974 16.8565 172.594 17.7278C172.22 18.5991 172.033 19.6692 172.033 20.9381C172.033 22.207 172.22 23.2771 172.594 24.1484C172.974 25.0197 173.506 25.6805 174.191 26.1307C174.875 26.581 175.676 26.8061 176.594 26.8061C177.512 26.8061 178.313 26.581 178.997 26.1307C179.681 25.6805 180.211 25.0197 180.585 24.1484C180.965 23.2771 181.155 22.207 181.155 20.9381ZM187.714 29.9199V27.1833L194.108 21.2626C194.652 20.7364 195.108 20.2627 195.476 19.8417C195.851 19.4207 196.134 19.0084 196.327 18.6049C196.52 18.1956 196.617 17.7541 196.617 17.2805C196.617 16.7542 196.497 16.301 196.257 15.9209C196.017 15.535 195.69 15.2397 195.275 15.035C194.859 14.8245 194.389 14.7192 193.862 14.7192C193.313 14.7192 192.833 14.8303 192.424 15.0526C192.015 15.2748 191.699 15.5935 191.477 16.0086C191.254 16.4238 191.143 16.9179 191.143 17.491H187.538C187.538 16.3156 187.804 15.2952 188.337 14.4298C188.869 13.5644 189.614 12.8948 190.573 12.4212C191.532 11.9475 192.637 11.7107 193.889 11.7107C195.175 11.7107 196.295 11.9387 197.248 12.3948C198.207 12.8451 198.953 13.4708 199.485 14.2719C200.017 15.073 200.283 15.9911 200.283 17.0261C200.283 17.7044 200.149 18.374 199.88 19.0347C199.616 19.6955 199.146 20.4294 198.467 21.2363C197.789 22.0374 196.833 22.9994 195.599 24.1221L192.977 26.6921V26.8149H200.52V29.9199H187.714ZM209.024 29.9199V16.4472H212.76V29.9199H209.024ZM210.901 14.7105C210.345 14.7105 209.869 14.5263 209.471 14.1579C209.079 13.7836 208.883 13.3363 208.883 12.8159C208.883 12.3013 209.079 11.8598 209.471 11.4914C209.869 11.1172 210.345 10.93 210.901 10.93C211.456 10.93 211.93 11.1172 212.322 11.4914C212.719 11.8598 212.918 12.3013 212.918 12.8159C212.918 13.3363 212.719 13.7836 212.322 14.1579C211.93 14.5263 211.456 14.7105 210.901 14.7105ZM215.753 29.9199V16.4472H219.315V18.8242H219.472C219.753 18.0348 220.221 17.412 220.876 16.9559C221.531 16.4998 222.314 16.2718 223.227 16.2718C224.151 16.2718 224.937 16.5027 225.586 16.9647C226.235 17.4208 226.668 18.0406 226.884 18.8242H227.025C227.299 18.0523 227.796 17.4354 228.516 16.9735C229.241 16.5057 230.097 16.2718 231.086 16.2718C232.343 16.2718 233.363 16.6723 234.147 17.4734C234.936 18.2687 235.331 19.3973 235.331 20.8592V29.9199H231.603V21.596C231.603 20.8475 231.404 20.2861 231.007 19.9119C230.609 19.5376 230.112 19.3505 229.516 19.3505C228.837 19.3505 228.308 19.5669 227.928 19.9996C227.548 20.4264 227.358 20.9907 227.358 21.6924V29.9199H223.735V21.517C223.735 20.8562 223.545 20.33 223.165 19.9382C222.791 19.5464 222.297 19.3505 221.683 19.3505C221.268 19.3505 220.893 19.4558 220.56 19.6663C220.233 19.8709 219.972 20.1604 219.779 20.5346C219.586 20.903 219.49 21.3357 219.49 21.8328V29.9199H215.753ZM238.283 34.9722V16.4472H241.966V18.7102H242.133C242.297 18.3476 242.534 17.9792 242.844 17.605C243.159 17.2249 243.569 16.9091 244.072 16.6577C244.58 16.4004 245.212 16.2718 245.966 16.2718C246.949 16.2718 247.855 16.5291 248.685 17.0436C249.516 17.5524 250.179 18.3213 250.676 19.3505C251.173 20.3738 251.422 21.6574 251.422 23.2011C251.422 24.7039 251.179 25.9728 250.694 27.0078C250.214 28.037 249.56 28.8177 248.729 29.3498C247.905 29.8761 246.981 30.1392 245.957 30.1392C245.232 30.1392 244.615 30.0193 244.107 29.7796C243.604 29.5398 243.192 29.2387 242.87 28.8761C242.548 28.5077 242.303 28.1364 242.133 27.7622H242.019V34.9722H238.283ZM241.94 23.1836C241.94 23.9847 242.051 24.6835 242.273 25.2799C242.496 25.8763 242.817 26.3412 243.238 26.6745C243.659 27.002 244.171 27.1657 244.773 27.1657C245.381 27.1657 245.896 26.9991 246.317 26.6658C246.738 26.3266 247.057 25.8588 247.273 25.2624C247.495 24.6601 247.606 23.9671 247.606 23.1836C247.606 22.4058 247.498 21.7217 247.282 21.1311C247.066 20.5405 246.747 20.0785 246.326 19.7452C245.905 19.4119 245.387 19.2452 244.773 19.2452C244.165 19.2452 243.651 19.406 243.23 19.7277C242.814 20.0493 242.496 20.5054 242.273 21.096C242.051 21.6866 241.94 22.3824 241.94 23.1836ZM257.755 30.1743C256.895 30.1743 256.129 30.0252 255.457 29.727C254.784 29.4229 254.252 28.9755 253.86 28.3849C253.474 27.7885 253.281 27.0459 253.281 26.157C253.281 25.4085 253.419 24.7799 253.694 24.2712C253.969 23.7625 254.343 23.3531 254.816 23.0432C255.29 22.7333 255.828 22.4994 256.43 22.3415C257.039 22.1836 257.676 22.0725 258.343 22.0082C259.126 21.9263 259.758 21.8503 260.237 21.7801C260.717 21.7041 261.065 21.593 261.281 21.4468C261.497 21.3007 261.605 21.0843 261.605 20.7978V20.7451C261.605 20.1896 261.43 19.7598 261.079 19.4558C260.734 19.1517 260.243 18.9996 259.606 18.9996C258.933 18.9996 258.398 19.1488 258 19.447C257.603 19.7394 257.34 20.1078 257.211 20.5522L253.755 20.2715C253.931 19.4528 254.276 18.7453 254.79 18.1488C255.305 17.5465 255.968 17.0846 256.781 16.763C257.6 16.4355 258.547 16.2718 259.623 16.2718C260.372 16.2718 261.088 16.3595 261.772 16.5349C262.462 16.7103 263.073 16.9822 263.605 17.3506C264.143 17.719 264.567 18.1927 264.877 18.7716C265.187 19.3446 265.342 20.0317 265.342 20.8328V29.9199H261.798V28.0516H261.693C261.477 28.4727 261.187 28.844 260.825 29.1656C260.462 29.4814 260.027 29.7299 259.518 29.9112C259.009 30.0866 258.421 30.1743 257.755 30.1743ZM258.825 27.5955C259.375 27.5955 259.86 27.4873 260.281 27.271C260.702 27.0488 261.032 26.7506 261.272 26.3763C261.512 26.0021 261.632 25.5781 261.632 25.1045V23.6748C261.515 23.7508 261.354 23.8209 261.149 23.8853C260.951 23.9437 260.725 23.9993 260.474 24.0519C260.223 24.0987 259.971 24.1426 259.72 24.1835C259.468 24.2186 259.24 24.2507 259.035 24.28C258.597 24.3443 258.214 24.4466 257.886 24.587C257.559 24.7273 257.305 24.9174 257.123 25.1571C256.942 25.391 256.851 25.6834 256.851 26.0342C256.851 26.543 257.036 26.9318 257.404 27.2008C257.778 27.464 258.252 27.5955 258.825 27.5955ZM274.328 30.1831C272.948 30.1831 271.761 29.8907 270.767 29.3059C269.779 28.7153 269.019 27.8967 268.487 26.85C267.96 25.8033 267.697 24.5987 267.697 23.2362C267.697 21.8562 267.963 20.6457 268.495 19.6049C269.033 18.5582 269.796 17.7424 270.785 17.1577C271.773 16.5671 272.948 16.2718 274.311 16.2718C275.486 16.2718 276.515 16.4852 277.398 16.9121C278.281 17.3389 278.98 17.9383 279.495 18.7102C280.009 19.4821 280.293 20.3884 280.345 21.4293H276.819C276.72 20.7568 276.457 20.2159 276.03 19.8066C275.609 19.3914 275.056 19.1838 274.372 19.1838C273.793 19.1838 273.287 19.3417 272.855 19.6575C272.428 19.9674 272.094 20.4206 271.855 21.017C271.615 21.6135 271.495 22.3357 271.495 23.1836C271.495 24.0431 271.612 24.7741 271.846 25.3764C272.086 25.9787 272.422 26.4377 272.855 26.7535C273.287 27.0692 273.793 27.2271 274.372 27.2271C274.799 27.2271 275.182 27.1394 275.521 26.964C275.866 26.7886 276.15 26.5342 276.372 26.2009C276.6 25.8617 276.749 25.4553 276.819 24.9817H280.345C280.287 26.0108 280.006 26.9172 279.503 27.7008C279.006 28.4785 278.319 29.0866 277.442 29.5252C276.565 29.9638 275.527 30.1831 274.328 30.1831ZM289.904 16.4472V19.254H281.79V16.4472H289.904ZM283.632 13.2194H287.369V25.7799C287.369 26.1249 287.422 26.3939 287.527 26.5868C287.632 26.7739 287.778 26.9055 287.965 26.9815C288.158 27.0576 288.381 27.0956 288.632 27.0956C288.807 27.0956 288.983 27.0809 289.158 27.0517C289.334 27.0166 289.468 26.9903 289.562 26.9728L290.149 29.7533C289.962 29.8117 289.699 29.879 289.36 29.955C289.021 30.0369 288.609 30.0866 288.123 30.1041C287.223 30.1392 286.433 30.0193 285.755 29.7445C285.083 29.4697 284.559 29.0428 284.185 28.4639C283.811 27.885 283.627 27.154 283.632 26.2711V13.2194Z" fill="#02B873"/>
</svg>
