<svg width="300" height="42" viewBox="0 0 300 42" fill="none" xmlns="http://www.w3.org/2000/svg">
<path d="M22.538 26.043L22.5468 21.5609H23.0906L27.4061 16.4472H31.6952L25.8974 23.2186H25.0115L22.538 26.043ZM19.1523 29.9199V11.9563H22.8888V29.9199H19.1523ZM27.5727 29.9199L23.6081 24.0519L26.0991 21.4118L31.9496 29.9199H27.5727ZM39.0434 35.2529C37.8329 35.2529 36.795 35.0862 35.9296 34.7529C35.07 34.4255 34.3858 33.9781 33.8771 33.4109C33.3684 32.8437 33.038 32.2063 32.8859 31.4988L36.3418 31.0339C36.4471 31.3029 36.6137 31.5543 36.8418 31.7882C37.0698 32.0221 37.371 32.2092 37.7452 32.3496C38.1253 32.4958 38.5873 32.5689 39.1311 32.5689C39.9439 32.5689 40.6135 32.37 41.1397 31.9724C41.6719 31.5806 41.9379 30.9228 41.9379 29.9989V27.5341H41.78C41.6163 27.9084 41.3707 28.2621 41.0432 28.5955C40.7158 28.9288 40.2948 29.2007 39.7802 29.4112C39.2656 29.6217 38.6516 29.727 37.9382 29.727C36.9266 29.727 36.0056 29.4931 35.1752 29.0252C34.3507 28.5516 33.6929 27.8294 33.2017 26.8587C32.7164 25.8822 32.4737 24.6484 32.4737 23.1572C32.4737 21.631 32.7222 20.3563 33.2192 19.333C33.7163 18.3096 34.3771 17.5436 35.2016 17.0349C36.0319 16.5261 36.9412 16.2718 37.9294 16.2718C38.6838 16.2718 39.3153 16.4004 39.824 16.6577C40.3328 16.9091 40.7421 17.2249 41.052 17.605C41.3678 17.9792 41.6105 18.3476 41.78 18.7102H41.9204V16.4472H45.6306V30.0515C45.6306 31.1976 45.35 32.1566 44.7886 32.9285C44.2272 33.7004 43.4495 34.2793 42.4554 34.6652C41.4672 35.057 40.3298 35.2529 39.0434 35.2529ZM39.1223 26.9201C39.7246 26.9201 40.2334 26.771 40.6485 26.4728C41.0696 26.1687 41.3912 25.736 41.6134 25.1746C41.8414 24.6074 41.9555 23.9291 41.9555 23.1397C41.9555 22.3503 41.8444 21.6661 41.6222 21.0872C41.3999 20.5025 41.0783 20.0493 40.6573 19.7277C40.2363 19.406 39.7246 19.2452 39.1223 19.2452C38.5083 19.2452 37.9908 19.4119 37.5698 19.7452C37.1488 20.0727 36.8301 20.5288 36.6137 21.1135C36.3974 21.6983 36.2892 22.3737 36.2892 23.1397C36.2892 23.9174 36.3974 24.5899 36.6137 25.1571C36.8359 25.7185 37.1546 26.1541 37.5698 26.464C37.9908 26.7681 38.5083 26.9201 39.1223 26.9201ZM60.4081 30.1831C59.0456 30.1831 57.8673 29.8936 56.8733 29.3147C55.885 28.7299 55.1219 27.9171 54.584 26.8763C54.046 25.8296 53.777 24.6162 53.777 23.2362C53.777 21.8445 54.046 20.6282 54.584 19.5873C55.1219 18.5406 55.885 17.7278 56.8733 17.1489C57.8673 16.5641 59.0456 16.2718 60.4081 16.2718C61.7706 16.2718 62.9459 16.5641 63.9342 17.1489C64.9282 17.7278 65.6943 18.5406 66.2322 19.5873C66.7702 20.6282 67.0392 21.8445 67.0392 23.2362C67.0392 24.6162 66.7702 25.8296 66.2322 26.8763C65.6943 27.9171 64.9282 28.7299 63.9342 29.3147C62.9459 29.8936 61.7706 30.1831 60.4081 30.1831ZM60.4256 27.2885C61.0455 27.2885 61.563 27.1131 61.9782 26.7623C62.3933 26.4056 62.7062 25.9202 62.9167 25.3062C63.1331 24.6922 63.2412 23.9934 63.2412 23.2099C63.2412 22.4263 63.1331 21.7275 62.9167 21.1135C62.7062 20.4995 62.3933 20.0142 61.9782 19.6575C61.563 19.3008 61.0455 19.1224 60.4256 19.1224C59.8 19.1224 59.2737 19.3008 58.8468 19.6575C58.4258 20.0142 58.1071 20.4995 57.8907 21.1135C57.6802 21.7275 57.575 22.4263 57.575 23.2099C57.575 23.9934 57.6802 24.6922 57.8907 25.3062C58.1071 25.9202 58.4258 26.4056 58.8468 26.7623C59.2737 27.1131 59.8 27.2885 60.4256 27.2885ZM76.714 16.4472V19.254H68.3988V16.4472H76.714ZM70.3021 29.9199V15.4736C70.3021 14.497 70.4922 13.6872 70.8723 13.0439C71.2582 12.4007 71.7845 11.9183 72.4511 11.5967C73.1177 11.275 73.875 11.1142 74.7229 11.1142C75.2959 11.1142 75.8193 11.1581 76.2929 11.2458C76.7724 11.3335 77.1291 11.4125 77.363 11.4826L76.6964 14.2895C76.5502 14.2427 76.369 14.1988 76.1526 14.1579C75.9421 14.1169 75.7257 14.0965 75.5035 14.0965C74.9539 14.0965 74.5708 14.2251 74.3545 14.4824C74.1381 14.7339 74.0299 15.0876 74.0299 15.5437V29.9199H70.3021ZM84.7134 34.9722V16.4472H88.3973V18.7102H88.564C88.7277 18.3476 88.9645 17.9792 89.2745 17.605C89.5902 17.2249 89.9996 16.9091 90.5025 16.6577C91.0112 16.4004 91.6427 16.2718 92.3971 16.2718C93.3794 16.2718 94.2858 16.5291 95.1162 17.0436C95.9465 17.5524 96.6102 18.3213 97.1072 19.3505C97.6043 20.3738 97.8528 21.6574 97.8528 23.2011C97.8528 24.7039 97.6101 25.9728 97.1248 27.0078C96.6453 28.037 95.9904 28.8177 95.16 29.3498C94.3355 29.8761 93.4116 30.1392 92.3883 30.1392C91.6632 30.1392 91.0463 30.0193 90.5375 29.7796C90.0346 29.5398 89.6224 29.2387 89.3008 28.8761C88.9792 28.5077 88.7336 28.1364 88.564 27.7622H88.45V34.9722H84.7134ZM88.371 23.1836C88.371 23.9847 88.4821 24.6835 88.7043 25.2799C88.9265 25.8763 89.2482 26.3412 89.6692 26.6745C90.0902 27.002 90.6019 27.1657 91.2042 27.1657C91.8123 27.1657 92.3269 26.9991 92.7479 26.6658C93.1689 26.3266 93.4876 25.8588 93.704 25.2624C93.9262 24.6601 94.0373 23.9671 94.0373 23.1836C94.0373 22.4058 93.9291 21.7217 93.7128 21.1311C93.4964 20.5405 93.1777 20.0785 92.7567 19.7452C92.3357 19.4119 91.8181 19.2452 91.2042 19.2452C90.596 19.2452 90.0814 19.406 89.6604 19.7277C89.2452 20.0493 88.9265 20.5054 88.7043 21.096C88.4821 21.6866 88.371 22.3824 88.371 23.1836ZM104.08 11.9563V29.9199H100.344V11.9563H104.08ZM110.915 30.1743C110.056 30.1743 109.29 30.0252 108.617 29.727C107.945 29.4229 107.413 28.9755 107.021 28.3849C106.635 27.7885 106.442 27.0459 106.442 26.157C106.442 25.4085 106.58 24.7799 106.854 24.2712C107.129 23.7625 107.503 23.3531 107.977 23.0432C108.451 22.7333 108.989 22.4994 109.591 22.3415C110.199 22.1836 110.837 22.0725 111.503 22.0082C112.287 21.9263 112.918 21.8503 113.398 21.7801C113.877 21.7041 114.225 21.593 114.442 21.4468C114.658 21.3007 114.766 21.0843 114.766 20.7978V20.7451C114.766 20.1896 114.591 19.7598 114.24 19.4558C113.895 19.1517 113.404 18.9996 112.766 18.9996C112.094 18.9996 111.559 19.1488 111.161 19.447C110.763 19.7394 110.5 20.1078 110.372 20.5522L106.916 20.2715C107.091 19.4528 107.436 18.7453 107.951 18.1488C108.465 17.5465 109.129 17.0846 109.942 16.763C110.761 16.4355 111.708 16.2718 112.784 16.2718C113.532 16.2718 114.249 16.3595 114.933 16.5349C115.623 16.7103 116.234 16.9822 116.766 17.3506C117.304 17.719 117.728 18.1927 118.038 18.7716C118.348 19.3446 118.503 20.0317 118.503 20.8328V29.9199H114.959V28.0516H114.854C114.637 28.4727 114.348 28.844 113.985 29.1656C113.623 29.4814 113.187 29.7299 112.679 29.9112C112.17 30.0866 111.582 30.1743 110.915 30.1743ZM111.986 27.5955C112.535 27.5955 113.021 27.4873 113.442 27.271C113.863 27.0488 114.193 26.7506 114.433 26.3763C114.673 26.0021 114.792 25.5781 114.792 25.1045V23.6748C114.675 23.7508 114.515 23.8209 114.31 23.8853C114.111 23.9437 113.886 23.9993 113.635 24.0519C113.383 24.0987 113.132 24.1426 112.88 24.1835C112.629 24.2186 112.401 24.2507 112.196 24.28C111.758 24.3443 111.375 24.4466 111.047 24.587C110.72 24.7273 110.465 24.9174 110.284 25.1571C110.103 25.391 110.012 25.6834 110.012 26.0342C110.012 26.543 110.196 26.9318 110.565 27.2008C110.939 27.464 111.413 27.5955 111.986 27.5955ZM132.611 20.289L129.19 20.4995C129.132 20.2072 129.006 19.944 128.813 19.7101C128.62 19.4704 128.366 19.2803 128.05 19.14C127.74 18.9938 127.369 18.9207 126.936 18.9207C126.357 18.9207 125.869 19.0435 125.471 19.2891C125.074 19.5288 124.875 19.8505 124.875 20.2539C124.875 20.5756 125.004 20.8475 125.261 21.0697C125.518 21.2919 125.96 21.4702 126.585 21.6047L129.024 22.0959C130.334 22.3649 131.31 22.7976 131.953 23.3941C132.597 23.9905 132.918 24.7741 132.918 25.7448C132.918 26.6278 132.658 27.4026 132.138 28.0692C131.623 28.7358 130.916 29.2562 130.015 29.6305C129.12 29.9989 128.088 30.1831 126.919 30.1831C125.135 30.1831 123.714 29.8117 122.656 29.0691C121.603 28.3206 120.986 27.3031 120.805 26.0167L124.48 25.8237C124.591 26.3675 124.86 26.7827 125.287 27.0692C125.714 27.3499 126.261 27.4903 126.927 27.4903C127.582 27.4903 128.109 27.3645 128.506 27.1131C128.91 26.8558 129.114 26.5254 129.12 26.1219C129.114 25.7828 128.971 25.505 128.691 25.2887C128.41 25.0665 127.977 24.8969 127.392 24.7799L125.059 24.3151C123.744 24.0519 122.764 23.5958 122.121 22.9467C121.483 22.2977 121.165 21.4702 121.165 20.4645C121.165 19.599 121.399 18.8535 121.866 18.2278C122.34 17.6021 123.004 17.1197 123.858 16.7805C124.717 16.4413 125.723 16.2718 126.875 16.2718C128.577 16.2718 129.916 16.6314 130.892 17.3506C131.875 18.0699 132.448 19.0493 132.611 20.289ZM142.437 16.4472V19.254H134.324V16.4472H142.437ZM136.166 13.2194H139.902V25.7799C139.902 26.1249 139.955 26.3939 140.06 26.5868C140.166 26.7739 140.312 26.9055 140.499 26.9815C140.692 27.0576 140.914 27.0956 141.166 27.0956C141.341 27.0956 141.516 27.0809 141.692 27.0517C141.867 27.0166 142.002 26.9903 142.095 26.9728L142.683 29.7533C142.496 29.8117 142.233 29.879 141.894 29.955C141.554 30.0369 141.142 30.0866 140.657 30.1041C139.756 30.1392 138.967 30.0193 138.289 29.7445C137.616 29.4697 137.093 29.0428 136.718 28.4639C136.344 27.885 136.16 27.154 136.166 26.2711V13.2194ZM144.871 29.9199V16.4472H148.608V29.9199H144.871ZM146.748 14.7105C146.193 14.7105 145.716 14.5263 145.319 14.1579C144.927 13.7836 144.731 13.3363 144.731 12.8159C144.731 12.3013 144.927 11.8598 145.319 11.4914C145.716 11.1172 146.193 10.93 146.748 10.93C147.304 10.93 147.778 11.1172 148.169 11.4914C148.567 11.8598 148.766 12.3013 148.766 12.8159C148.766 13.3363 148.567 13.7836 148.169 14.1579C147.778 14.5263 147.304 14.7105 146.748 14.7105ZM157.688 30.1831C156.308 30.1831 155.121 29.8907 154.127 29.3059C153.139 28.7153 152.379 27.8967 151.847 26.85C151.321 25.8033 151.057 24.5987 151.057 23.2362C151.057 21.8562 151.323 20.6457 151.856 19.6049C152.394 18.5582 153.157 17.7424 154.145 17.1577C155.133 16.5671 156.308 16.2718 157.671 16.2718C158.846 16.2718 159.875 16.4852 160.758 16.9121C161.641 17.3389 162.34 17.9383 162.855 18.7102C163.369 19.4821 163.653 20.3884 163.706 21.4293H160.18C160.08 20.7568 159.817 20.2159 159.39 19.8066C158.969 19.3914 158.416 19.1838 157.732 19.1838C157.153 19.1838 156.648 19.3417 156.215 19.6575C155.788 19.9674 155.455 20.4206 155.215 21.017C154.975 21.6135 154.855 22.3357 154.855 23.1836C154.855 24.0431 154.972 24.7741 155.206 25.3764C155.446 25.9787 155.782 26.4377 156.215 26.7535C156.648 27.0692 157.153 27.2271 157.732 27.2271C158.159 27.2271 158.542 27.1394 158.881 26.964C159.226 26.7886 159.51 26.5342 159.732 26.2009C159.96 25.8617 160.109 25.4553 160.18 24.9817H163.706C163.647 26.0108 163.366 26.9172 162.864 27.7008C162.367 28.4785 161.679 29.0866 160.802 29.5252C159.925 29.9638 158.887 30.1831 157.688 30.1831ZM177.902 30.1831C176.522 30.1831 175.335 29.8907 174.341 29.3059C173.353 28.7153 172.592 27.8967 172.06 26.85C171.534 25.8033 171.271 24.5987 171.271 23.2362C171.271 21.8562 171.537 20.6457 172.069 19.6049C172.607 18.5582 173.37 17.7424 174.358 17.1577C175.347 16.5671 176.522 16.2718 177.884 16.2718C179.06 16.2718 180.089 16.4852 180.972 16.9121C181.855 17.3389 182.554 17.9383 183.068 18.7102C183.583 19.4821 183.866 20.3884 183.919 21.4293H180.393C180.294 20.7568 180.03 20.2159 179.604 19.8066C179.183 19.3914 178.63 19.1838 177.946 19.1838C177.367 19.1838 176.861 19.3417 176.428 19.6575C176.002 19.9674 175.668 20.4206 175.428 21.017C175.189 21.6135 175.069 22.3357 175.069 23.1836C175.069 24.0431 175.186 24.7741 175.42 25.3764C175.659 25.9787 175.996 26.4377 176.428 26.7535C176.861 27.0692 177.367 27.2271 177.946 27.2271C178.373 27.2271 178.756 27.1394 179.095 26.964C179.44 26.7886 179.723 26.5342 179.946 26.2009C180.174 25.8617 180.323 25.4553 180.393 24.9817H183.919C183.861 26.0108 183.58 26.9172 183.077 27.7008C182.58 28.4785 181.893 29.0866 181.016 29.5252C180.139 29.9638 179.101 30.1831 177.902 30.1831ZM192.399 30.1831C191.036 30.1831 189.858 29.8936 188.864 29.3147C187.876 28.7299 187.113 27.9171 186.575 26.8763C186.037 25.8296 185.768 24.6162 185.768 23.2362C185.768 21.8445 186.037 20.6282 186.575 19.5873C187.113 18.5406 187.876 17.7278 188.864 17.1489C189.858 16.5641 191.036 16.2718 192.399 16.2718C193.761 16.2718 194.937 16.5641 195.925 17.1489C196.919 17.7278 197.685 18.5406 198.223 19.5873C198.761 20.6282 199.03 21.8445 199.03 23.2362C199.03 24.6162 198.761 25.8296 198.223 26.8763C197.685 27.9171 196.919 28.7299 195.925 29.3147C194.937 29.8936 193.761 30.1831 192.399 30.1831ZM192.416 27.2885C193.036 27.2885 193.554 27.1131 193.969 26.7623C194.384 26.4056 194.697 25.9202 194.907 25.3062C195.124 24.6922 195.232 23.9934 195.232 23.2099C195.232 22.4263 195.124 21.7275 194.907 21.1135C194.697 20.4995 194.384 20.0142 193.969 19.6575C193.554 19.3008 193.036 19.1224 192.416 19.1224C191.791 19.1224 191.264 19.3008 190.837 19.6575C190.416 20.0142 190.098 20.4995 189.881 21.1135C189.671 21.7275 189.566 22.4263 189.566 23.2099C189.566 23.9934 189.671 24.6922 189.881 25.3062C190.098 25.9202 190.416 26.4056 190.837 26.7623C191.264 27.1131 191.791 27.2885 192.416 27.2885ZM205.196 11.9563V29.9199H201.459V11.9563H205.196ZM211.926 11.9563V29.9199H208.189V11.9563H211.926ZM221.059 30.1831C219.673 30.1831 218.48 29.9024 217.48 29.341C216.486 28.7738 215.72 27.9727 215.182 26.9377C214.644 25.8968 214.375 24.6659 214.375 23.245C214.375 21.8591 214.644 20.6428 215.182 19.5961C215.72 18.5494 216.477 17.7337 217.454 17.1489C218.436 16.5641 219.588 16.2718 220.91 16.2718C221.799 16.2718 222.626 16.415 223.392 16.7016C224.164 16.9822 224.836 17.4062 225.41 17.9734C225.988 18.5406 226.439 19.254 226.76 20.1136C227.082 20.9673 227.243 21.9673 227.243 23.1134V24.1396H215.866V21.824H223.725C223.725 21.286 223.608 20.8095 223.375 20.3943C223.141 19.9791 222.816 19.6546 222.401 19.4207C221.992 19.1809 221.515 19.061 220.971 19.061C220.404 19.061 219.901 19.1926 219.463 19.4558C219.03 19.713 218.691 20.061 218.445 20.4995C218.2 20.9323 218.074 21.4147 218.068 21.9468V24.1484C218.068 24.815 218.191 25.391 218.436 25.8763C218.688 26.3617 219.042 26.7359 219.498 26.9991C219.954 27.2622 220.495 27.3938 221.12 27.3938C221.536 27.3938 221.916 27.3353 222.261 27.2184C222.606 27.1014 222.901 26.926 223.147 26.6921C223.392 26.4582 223.579 26.1716 223.708 25.8325L227.164 26.0605C226.988 26.8909 226.629 27.616 226.085 28.2358C225.547 28.8498 224.851 29.3293 223.997 29.6743C223.149 30.0135 222.17 30.1831 221.059 30.1831ZM235.768 30.1831C234.388 30.1831 233.201 29.8907 232.207 29.3059C231.219 28.7153 230.459 27.8967 229.927 26.85C229.4 25.8033 229.137 24.5987 229.137 23.2362C229.137 21.8562 229.403 20.6457 229.936 19.6049C230.474 18.5582 231.237 17.7424 232.225 17.1577C233.213 16.5671 234.388 16.2718 235.751 16.2718C236.926 16.2718 237.955 16.4852 238.838 16.9121C239.721 17.3389 240.42 17.9383 240.935 18.7102C241.449 19.4821 241.733 20.3884 241.786 21.4293H238.26C238.16 20.7568 237.897 20.2159 237.47 19.8066C237.049 19.3914 236.496 19.1838 235.812 19.1838C235.233 19.1838 234.728 19.3417 234.295 19.6575C233.868 19.9674 233.535 20.4206 233.295 21.017C233.055 21.6135 232.935 22.3357 232.935 23.1836C232.935 24.0431 233.052 24.7741 233.286 25.3764C233.526 25.9787 233.862 26.4377 234.295 26.7535C234.728 27.0692 235.233 27.2271 235.812 27.2271C236.239 27.2271 236.622 27.1394 236.961 26.964C237.306 26.7886 237.59 26.5342 237.812 26.2009C238.04 25.8617 238.189 25.4553 238.26 24.9817H241.786C241.727 26.0108 241.446 26.9172 240.944 27.7008C240.446 28.4785 239.759 29.0866 238.882 29.5252C238.005 29.9638 236.967 30.1831 235.768 30.1831ZM251.344 16.4472V19.254H243.231V16.4472H251.344ZM245.073 13.2194H248.809V25.7799C248.809 26.1249 248.862 26.3939 248.967 26.5868C249.072 26.7739 249.219 26.9055 249.406 26.9815C249.599 27.0576 249.821 27.0956 250.072 27.0956C250.248 27.0956 250.423 27.0809 250.599 27.0517C250.774 27.0166 250.908 26.9903 251.002 26.9728L251.59 29.7533C251.403 29.8117 251.139 29.879 250.8 29.955C250.461 30.0369 250.049 30.0866 249.564 30.1041C248.663 30.1392 247.874 30.0193 247.195 29.7445C246.523 29.4697 245.999 29.0428 245.625 28.4639C245.251 27.885 245.067 27.154 245.073 26.2711V13.2194ZM259.773 30.1831C258.387 30.1831 257.195 29.9024 256.195 29.341C255.201 28.7738 254.435 27.9727 253.897 26.9377C253.359 25.8968 253.09 24.6659 253.09 23.245C253.09 21.8591 253.359 20.6428 253.897 19.5961C254.435 18.5494 255.192 17.7337 256.168 17.1489C257.151 16.5641 258.303 16.2718 259.624 16.2718C260.513 16.2718 261.34 16.415 262.106 16.7016C262.878 16.9822 263.551 17.4062 264.124 17.9734C264.703 18.5406 265.153 19.254 265.475 20.1136C265.796 20.9673 265.957 21.9673 265.957 23.1134V24.1396H254.581V21.824H262.44C262.44 21.286 262.323 20.8095 262.089 20.3943C261.855 19.9791 261.531 19.6546 261.115 19.4207C260.706 19.1809 260.229 19.061 259.686 19.061C259.118 19.061 258.616 19.1926 258.177 19.4558C257.744 19.713 257.405 20.061 257.159 20.4995C256.914 20.9323 256.788 21.4147 256.782 21.9468V24.1484C256.782 24.815 256.905 25.391 257.151 25.8763C257.402 26.3617 257.756 26.7359 258.212 26.9991C258.668 27.2622 259.209 27.3938 259.835 27.3938C260.25 27.3938 260.63 27.3353 260.975 27.2184C261.32 27.1014 261.615 26.926 261.861 26.6921C262.106 26.4582 262.294 26.1716 262.422 25.8325L265.878 26.0605C265.703 26.8909 265.343 27.616 264.799 28.2358C264.261 28.8498 263.565 29.3293 262.712 29.6743C261.864 30.0135 260.884 30.1831 259.773 30.1831ZM273.36 30.1392C272.337 30.1392 271.41 29.8761 270.58 29.3498C269.755 28.8177 269.1 28.037 268.615 27.0078C268.135 25.9728 267.896 24.7039 267.896 23.2011C267.896 21.6574 268.144 20.3738 268.641 19.3505C269.138 18.3213 269.799 17.5524 270.623 17.0436C271.454 16.5291 272.363 16.2718 273.351 16.2718C274.106 16.2718 274.734 16.4004 275.237 16.6577C275.746 16.9091 276.155 17.2249 276.465 17.605C276.781 17.9792 277.021 18.3476 277.184 18.7102H277.298V11.9563H281.026V29.9199H277.342V27.7622H277.184C277.009 28.1364 276.76 28.5077 276.439 28.8761C276.123 29.2387 275.711 29.5398 275.202 29.7796C274.699 30.0193 274.085 30.1392 273.36 30.1392ZM274.544 27.1657C275.147 27.1657 275.655 27.002 276.07 26.6745C276.491 26.3412 276.813 25.8763 277.035 25.2799C277.263 24.6835 277.377 23.9847 277.377 23.1836C277.377 22.3824 277.266 21.6866 277.044 21.096C276.822 20.5054 276.5 20.0493 276.079 19.7277C275.658 19.406 275.147 19.2452 274.544 19.2452C273.93 19.2452 273.413 19.4119 272.992 19.7452C272.571 20.0785 272.252 20.5405 272.036 21.1311C271.819 21.7217 271.711 22.4058 271.711 23.1836C271.711 23.9671 271.819 24.6601 272.036 25.2624C272.258 25.8588 272.577 26.3266 272.992 26.6658C273.413 26.9991 273.93 27.1657 274.544 27.1657Z" fill="#685BC8"/>
</svg>
