<svg width="308" height="129" viewBox="0 0 308 129" fill="none" xmlns="http://www.w3.org/2000/svg">
<rect x="0.151855" y="0.768555" width="307" height="128" rx="15" fill="#02B873"/>
<path d="M99.3478 57.7686V27.3613H107.603V51.117H119.897V57.7686H99.3478ZM131.132 57.7686H122.224L132.261 27.3613H143.545L153.581 57.7686H144.673L138.021 35.7352H137.784L131.132 57.7686ZM129.469 45.7719H146.217V51.9484H129.469V45.7719ZM171.717 36.8636C171.638 35.8737 171.267 35.1017 170.604 34.5474C169.95 33.9931 168.956 33.7159 167.619 33.7159C166.768 33.7159 166.07 33.8199 165.526 34.0277C164.991 34.2257 164.596 34.4979 164.338 34.8443C164.081 35.1908 163.947 35.5867 163.937 36.0321C163.918 36.3983 163.982 36.7299 164.13 37.0269C164.289 37.3139 164.536 37.5762 164.873 37.8138C165.209 38.0414 165.64 38.2493 166.164 38.4374C166.689 38.6254 167.313 38.7937 168.035 38.9422L170.53 39.4767C172.212 39.833 173.652 40.3032 174.85 40.8872C176.048 41.4712 177.028 42.1591 177.79 42.9509C178.552 43.7329 179.111 44.6138 179.468 45.5938C179.834 46.5737 180.022 47.6427 180.032 48.8008C180.022 50.8002 179.522 52.4928 178.532 53.8786C177.542 55.2643 176.127 56.3185 174.286 57.041C172.455 57.7636 170.252 58.1249 167.679 58.1249C165.036 58.1249 162.73 57.7339 160.76 56.952C158.8 56.17 157.276 54.9674 156.187 53.3441C155.108 51.7109 154.564 49.6223 154.554 47.0785H162.393C162.443 48.0089 162.675 48.7909 163.091 49.4244C163.507 50.0579 164.091 50.5379 164.843 50.8646C165.605 51.1912 166.511 51.3545 167.56 51.3545C168.441 51.3545 169.178 51.2456 169.772 51.0279C170.366 50.8101 170.817 50.5082 171.123 50.1222C171.43 49.7362 171.589 49.2957 171.599 48.8008C171.589 48.3356 171.435 47.9297 171.138 47.5833C170.851 47.227 170.376 46.9102 169.713 46.6331C169.05 46.346 168.154 46.0788 167.026 45.8313L163.997 45.178C161.304 44.594 159.181 43.6191 157.627 42.2531C156.083 40.8773 155.316 39.0016 155.326 36.626C155.316 34.6958 155.831 33.0082 156.87 31.5631C157.919 30.108 159.369 28.9747 161.22 28.163C163.081 27.3514 165.214 26.9456 167.619 26.9456C170.074 26.9456 172.197 27.3563 173.989 28.1779C175.781 28.9994 177.161 30.1575 178.131 31.6522C179.111 33.1369 179.606 34.874 179.616 36.8636H171.717ZM182.341 34.0129V27.3613H208.769V34.0129H199.623V57.7686H191.486V34.0129H182.341ZM99.5149 101.769L90.5471 71.3613H99.7524L103.91 90.0689H104.147L109.077 71.3613H116.322L121.251 90.1283H121.489L125.646 71.3613H134.851L125.884 101.769H117.985L112.818 84.7832H112.581L107.414 101.769H99.5149ZM137.524 101.769V71.3613H159.439V78.0129H145.779V83.2391H158.31V89.8907H145.779V95.117H159.379V101.769H137.524ZM163.533 101.769V71.3613H185.447V78.0129H171.788V83.2391H184.319V89.8907H171.788V95.117H185.388V101.769H163.533ZM189.541 101.769V71.3613H197.797V83.6548H198.212L207.358 71.3613H216.979L206.705 84.902L217.217 101.769H207.358L200.528 90.3658L197.797 93.9292V101.769H189.541Z" fill="white"/>
</svg>
