<svg width="308" height="129" viewBox="0 0 308 129" fill="none" xmlns="http://www.w3.org/2000/svg">
<rect x="0.34082" y="0.604492" width="307" height="128" rx="15" fill="#02B873"/>
<path d="M99.5368 57.6045V27.1972H107.792V50.9529H120.085V57.6045H99.5368ZM131.321 57.6045H122.413L132.45 27.1972H143.734L153.77 57.6045H144.862L138.21 35.5711H137.973L131.321 57.6045ZM129.658 45.6079H146.406V51.7843H129.658V45.6079ZM171.906 36.6995C171.827 35.7097 171.456 34.9376 170.793 34.3833C170.139 33.829 169.145 33.5519 167.808 33.5519C166.957 33.5519 166.259 33.6558 165.715 33.8637C165.18 34.0616 164.785 34.3338 164.527 34.6803C164.27 35.0267 164.136 35.4226 164.126 35.868C164.106 36.2343 164.171 36.5659 164.319 36.8628C164.478 37.1499 164.725 37.4122 165.062 37.6497C165.398 37.8774 165.829 38.0852 166.353 38.2733C166.878 38.4614 167.502 38.6296 168.224 38.7781L170.718 39.3126C172.401 39.669 173.841 40.1391 175.039 40.7231C176.237 41.3071 177.217 41.995 177.979 42.7869C178.741 43.5688 179.3 44.4498 179.657 45.4297C180.023 46.4096 180.211 47.4786 180.221 48.6367C180.211 50.6362 179.711 52.3288 178.721 53.7145C177.731 55.1002 176.316 56.1544 174.475 56.877C172.644 57.5995 170.441 57.9608 167.868 57.9608C165.225 57.9608 162.919 57.5698 160.949 56.7879C158.989 56.0059 157.465 54.8033 156.376 53.18C155.297 51.5468 154.753 49.4583 154.743 46.9144H162.582C162.632 47.8449 162.864 48.6268 163.28 49.2603C163.696 49.8938 164.28 50.3739 165.032 50.7005C165.794 51.0271 166.7 51.1905 167.749 51.1905C168.63 51.1905 169.367 51.0816 169.961 50.8638C170.555 50.6461 171.006 50.3442 171.312 49.9581C171.619 49.5721 171.778 49.1316 171.787 48.6367C171.778 48.1715 171.624 47.7657 171.327 47.4192C171.04 47.0629 170.565 46.7462 169.902 46.469C169.239 46.182 168.343 45.9147 167.215 45.6673L164.186 45.014C161.493 44.43 159.37 43.455 157.816 42.0891C156.272 40.7132 155.505 38.8375 155.515 36.4619C155.505 34.5318 156.02 32.8441 157.059 31.399C158.108 29.944 159.558 28.8106 161.409 27.999C163.27 27.1873 165.403 26.7815 167.808 26.7815C170.263 26.7815 172.386 27.1923 174.178 28.0138C175.969 28.8354 177.35 29.9935 178.32 31.4881C179.3 32.9728 179.795 34.71 179.805 36.6995H171.906ZM182.53 33.8488V27.1972H208.958V33.8488H199.812V57.6045H191.675V33.8488H182.53ZM74.5488 71.1972H84.8231L91.8905 88.4201H92.2468L99.3141 71.1972H109.588V101.604H101.512V84.0253H101.274L94.5036 101.367H89.6337L82.8633 83.9065H82.6257V101.604H74.5488V71.1972ZM142.958 86.4009C142.958 89.786 142.3 92.6417 140.983 94.9677C139.667 97.2839 137.89 99.0409 135.653 100.239C133.416 101.426 130.922 102.02 128.17 102.02C125.398 102.02 122.894 101.421 120.657 100.224C118.43 99.0161 116.658 97.2542 115.342 94.9381C114.035 92.612 113.382 89.7662 113.382 86.4009C113.382 83.0157 114.035 80.165 115.342 77.8488C116.658 75.5227 118.43 73.7658 120.657 72.578C122.894 71.3803 125.398 70.7815 128.17 70.7815C130.922 70.7815 133.416 71.3803 135.653 72.578C137.89 73.7658 139.667 75.5227 140.983 77.8488C142.3 80.165 142.958 83.0157 142.958 86.4009ZM134.465 86.4009C134.465 84.5796 134.223 83.0454 133.738 81.7982C133.262 80.5411 132.555 79.5909 131.614 78.9475C130.684 78.2942 129.536 77.9676 128.17 77.9676C126.804 77.9676 125.651 78.2942 124.71 78.9475C123.78 79.5909 123.072 80.5411 122.587 81.7982C122.112 83.0454 121.875 84.5796 121.875 86.4009C121.875 88.2221 122.112 89.7613 122.587 91.0184C123.072 92.2655 123.78 93.2158 124.71 93.869C125.651 94.5124 126.804 94.8341 128.17 94.8341C129.536 94.8341 130.684 94.5124 131.614 93.869C132.555 93.2158 133.262 92.2655 133.738 91.0184C134.223 89.7613 134.465 88.2221 134.465 86.4009ZM173.087 71.1972V101.604H166.197L155.21 85.6288H155.032V101.604H146.777V71.1972H153.785L164.594 87.1135H164.832V71.1972H173.087ZM176.16 77.8488V71.1972H202.588V77.8488H193.442V101.604H185.306V77.8488H176.16ZM205.695 101.604V71.1972H213.95V83.0751H224.878V71.1972H233.133V101.604H224.878V89.7267H213.95V101.604H205.695Z" fill="white"/>
</svg>
