<svg width="570" height="249" viewBox="0 0 570 249" fill="none" xmlns="http://www.w3.org/2000/svg">
<mask id="mask0_155_82" style="mask-type:luminance" maskUnits="userSpaceOnUse" x="0" y="1" width="570" height="246">
<path d="M570 1.63672H0V246.447H570V1.63672Z" fill="white"/>
</mask>
<g mask="url(#mask0_155_82)">
<path d="M8.479 84.2151H78.2838C81.585 84.2151 84.27 81.5301 84.27 78.2427V23.3892C84.27 18.7113 88.071 14.9238 92.7489 14.9238C97.4268 14.9238 101.221 18.7113 101.221 23.3892V78.2358C101.221 90.879 90.9408 101.159 78.2907 101.159H8.479" fill="#02B873"/>
<path d="M247.714 67.0651V75.277C247.714 82.3726 245.201 88.4407 240.181 93.4681C235.537 98.1046 229.277 100.824 222.729 100.995C215.873 101.166 209.901 98.9677 204.812 94.3789C199.909 98.8033 194.19 101.002 187.656 101.002C181.122 101.002 175.266 98.8033 170.444 94.3789C165.609 98.8033 159.862 101.002 153.199 101.002H120.59L121.453 83.8519H153.055C155.397 83.8519 157.671 82.9615 159.315 81.3043C160.965 79.6261 161.773 77.6263 161.773 75.2839V67.072C161.773 62.3392 165.616 58.4971 170.348 58.4971H170.492C172.869 58.4971 175.006 59.4628 176.554 61.0105C178.122 62.5585 179.067 64.7158 179.067 67.0651V75.1402C179.067 77.4688 179.957 79.7359 181.622 81.3865C183.3 83.0302 185.3 83.8588 187.642 83.8588C189.984 83.8588 192.046 83.0233 193.724 81.3454C195.388 79.6741 196.231 77.6674 196.231 75.3388V67.0651C196.231 62.3326 200.073 58.4902 204.805 58.4902C207.182 58.4902 209.319 59.4559 210.867 61.0039C212.435 62.5516 213.38 64.7092 213.38 67.0582V75.3319C213.38 77.6605 214.216 79.6672 215.894 81.3385C217.497 82.9342 219.654 83.8453 221.914 83.8519C224.305 83.8519 226.345 83.0164 228.031 81.3385C229.695 79.6672 230.53 77.6401 230.53 75.277V67.0651C230.53 62.3326 234.373 58.4902 239.105 58.4902C241.482 58.4902 243.619 59.4559 245.173 61.0039C246.721 62.5516 247.687 64.7023 247.687 67.0651" fill="#02B873"/>
<path d="M95.2006 151.959V209.689C95.2006 213.668 91.9681 216.901 87.9886 216.901C85.9888 216.901 84.1945 216.092 82.8862 214.784C81.5848 213.483 80.77 211.689 80.77 209.682V151.952C80.77 147.979 83.9959 144.74 87.982 144.74C91.9681 144.74 95.194 147.979 95.194 151.952" fill="#02B873"/>
<path d="M66.4764 188.059C67.3323 190.402 67.764 192.813 67.764 195.271C67.764 201.251 65.6475 206.353 61.4217 210.572C57.1686 214.805 52.059 216.9 46.128 216.9H7.21884C3.23271 216.9 0.006849 213.668 0.006849 209.688C0.006849 207.696 0.821877 205.894 2.12319 204.586C3.4245 203.285 5.23947 202.476 7.22568 202.476H46.0182C47.9841 202.476 49.8879 201.723 51.2715 200.326C52.662 198.929 53.3535 197.237 53.3535 195.264C53.3535 193.292 52.6482 191.58 51.2373 190.169C49.8264 188.758 48.1209 188.059 46.1349 188.059H21.588C16.9444 188.059 12.7665 186.71 9.01326 183.998C5.33535 181.354 2.73959 177.903 1.23282 173.636C0.41094 171.321 0 168.903 0 166.43C0 160.465 2.10264 155.369 6.32847 151.143C10.5611 146.911 15.6568 144.815 21.6359 144.815H51.9702C55.9632 144.815 59.1822 148.027 59.1822 152.02C59.1822 154.006 58.374 155.814 57.0795 157.116C55.7643 158.417 53.9631 159.232 51.9633 159.232L21.7524 159.218C19.7799 159.218 17.8759 159.985 16.4855 161.383C15.102 162.78 14.4171 164.465 14.4171 166.43C14.4171 168.396 15.1157 170.129 16.5197 171.54C17.8964 172.951 19.5812 173.642 21.5674 173.642H46.1073C50.7372 173.642 54.9426 175.012 58.7232 177.717C62.4012 180.354 64.9764 183.806 66.4488 188.059" fill="#02B873"/>
<path d="M244.762 191.792C241.516 189.456 236.982 190.182 234.639 193.436C230.742 198.826 224.407 202.346 217.257 202.346C205.435 202.346 195.813 192.73 195.813 180.916C195.813 169.101 205.435 159.485 217.257 159.485C224.407 159.485 230.742 163.006 234.639 168.403C236.982 171.649 241.509 172.389 244.762 170.046C248.009 167.704 248.748 163.177 246.406 159.924C239.879 150.89 229.263 145 217.264 145C197.422 145 181.334 161.074 181.334 180.916C181.334 200.757 197.422 216.825 217.264 216.825C229.263 216.825 239.886 210.942 246.406 201.901C248.748 198.648 248.009 194.127 244.762 191.778V191.792Z" fill="#02B873"/>
<path d="M42.0319 54.2027C42.0319 49.4699 45.8743 45.6209 50.6137 45.6209V37.0391C41.1418 37.0391 33.457 44.7236 33.457 54.1958H42.0388L42.0319 54.2027Z" fill="#02B873"/>
<path d="M50.6074 45.6208C52.9771 45.6208 54.8947 43.6963 54.8947 41.3332C54.8947 38.9704 52.9771 37.0459 50.6074 37.0459C48.2377 37.0459 46.3198 38.9704 46.3198 41.3332C46.3198 43.6963 48.2377 45.6208 50.6074 45.6208Z" fill="#02B873"/>
<path d="M30.553 62.7706C32.923 62.7706 34.8406 60.8461 34.8406 58.483C34.8406 56.1202 32.923 54.2026 30.553 54.2026C28.1833 54.2026 26.2656 56.1202 26.2656 58.483C26.2656 60.8461 28.1833 62.7706 30.553 62.7706Z" fill="#02B873"/>
<path d="M54.9014 62.7706C57.2711 62.7706 59.1887 60.8461 59.1887 58.483C59.1887 56.1202 57.2711 54.2026 54.9014 54.2026C52.5317 54.2026 50.6138 56.1202 50.6138 58.483C50.6138 60.8461 52.5317 62.7706 54.9014 62.7706Z" fill="#02B873"/>
<path d="M54.9015 54.2026H30.5532V62.7844H54.9015V54.2026Z" fill="#02B873"/>
<path d="M8.47905 101.159C13.1569 101.159 16.9512 97.3651 16.9512 92.6872C16.9512 88.0093 13.1569 84.208 8.47905 84.208C3.80118 84.208 0 88.0093 0 92.6941C0 97.3786 3.79434 101.166 8.47221 101.166L8.47905 101.159Z" fill="#02B873"/>
<path d="M116.529 78.2358C116.529 96.5979 103.577 111.926 86.311 115.618L89.9137 132.391C114.926 127.055 133.686 104.831 133.686 78.2427H116.529V78.2358Z" fill="#02B873"/>
<path d="M133.692 67.0649H116.536V78.2495H133.692V67.0649Z" fill="#02B873"/>
<path d="M125.117 75.6402C129.857 75.6402 133.699 71.7981 133.699 67.0584C133.699 62.319 129.857 58.4766 125.117 58.4766C120.378 58.4766 116.536 62.319 116.536 67.0584C116.536 71.7981 120.378 75.6402 125.117 75.6402Z" fill="#02B873"/>
<path d="M87.989 132.61C92.7287 132.61 96.5708 128.774 96.5708 124.028C96.5708 119.282 92.7287 115.446 87.989 115.446C83.2496 115.446 79.4072 119.289 79.4072 124.028C79.4072 128.767 83.2496 132.61 87.989 132.61Z" fill="#02B873"/>
<path d="M514.278 79.9548C509.181 65.757 501.579 52.2027 491.427 40.443C486.345 34.5804 480.669 29.1491 474.444 24.3411C468.204 19.5537 461.424 15.3758 454.224 11.9992C439.848 5.20503 423.816 1.65042 407.796 1.63672C391.788 1.65042 375.756 5.20503 361.374 11.9992C354.174 15.3758 347.394 19.5537 341.154 24.3411C334.923 29.1422 329.244 34.5804 324.162 40.443C314.013 52.2027 306.411 65.757 301.314 79.9548C296.225 94.1664 293.691 109.111 293.698 124.042C293.698 138.973 296.225 153.917 301.314 168.129C306.411 182.327 314.013 195.881 324.162 207.641C329.244 213.503 334.923 218.935 341.154 223.742C347.388 228.53 354.168 232.708 361.374 236.091C375.756 242.885 391.797 246.433 407.802 246.454C423.807 246.44 439.848 242.885 454.233 236.091C461.43 232.708 468.21 228.537 474.45 223.742C480.681 218.941 486.36 213.503 491.442 207.641C501.591 195.881 509.196 182.327 514.29 168.129C519.378 153.91 521.913 138.973 521.907 124.042C521.913 109.111 519.378 94.1733 514.29 79.9548H514.284H514.278ZM509.982 166.266C506.934 172.69 503.133 178.847 498.669 184.594C494.379 190.087 489.414 195.257 483.921 199.963C473.526 208.812 461.397 215.736 447.87 220.523C435.027 225.051 421.563 227.338 407.835 227.338H407.769C394.05 227.338 380.577 225.044 367.743 220.523C354.21 215.729 342.078 208.812 331.689 199.963C326.19 195.257 321.231 190.087 316.944 184.594C312.486 178.847 308.67 172.69 305.622 166.266C299.417 153.266 296.123 138.671 296.109 124.042C296.123 109.412 299.417 94.8102 305.622 81.8178C308.67 75.3933 312.477 69.2292 316.938 63.4899C321.225 57.9969 326.184 52.8261 331.683 48.1209C342.078 39.2718 354.21 32.3406 367.737 27.5464C380.577 23.0261 394.05 20.7317 407.775 20.7317H407.829C421.554 20.7317 435.021 23.0261 447.861 27.5464C461.397 32.3406 473.532 39.2583 483.915 48.1071C489.408 52.8123 494.373 57.99 498.66 63.4761C503.121 69.2226 506.934 75.3867 509.982 81.8109C516.186 94.8033 519.474 109.406 519.495 124.028C519.474 138.665 516.186 153.26 509.976 166.259H509.961L509.982 166.266Z" fill="#39DBFF"/>
<path d="M158.958 185.573C162.068 183.936 164.65 181.655 166.684 178.71C169.197 175.039 170.444 170.951 170.444 166.457C170.444 160.568 168.403 155.54 164.3 151.342C160.163 147.123 154.465 144.822 148.568 144.822H117.899C115.898 144.822 114.104 145.623 112.803 146.931C111.501 148.232 110.687 150.047 110.687 152.027C110.687 156.02 113.919 159.239 117.899 159.239H148.904C150.869 159.273 152.547 159.992 153.952 161.403C155.328 162.807 156.006 164.492 156.006 166.451C156.006 168.019 155.547 169.457 154.616 170.725C153.725 171.957 152.561 172.807 151.116 173.286C150.383 173.526 149.623 173.649 148.794 173.649H117.892C113.912 173.649 110.68 176.888 110.68 180.861V209.668C110.68 211.668 111.488 213.462 112.796 214.77C114.097 216.078 115.898 216.887 117.899 216.887C118.583 216.887 119.248 216.784 119.871 216.599C122.898 215.743 125.111 212.969 125.111 209.675V195.203C125.131 191.498 127.946 188.456 131.562 188.08H132.391L132.323 188.107H139.459C141.87 188.107 144.103 189.217 145.568 191.059L156.814 212.9C157.732 214.667 159.273 215.894 161.027 216.469C162.787 217.031 164.752 216.928 166.526 216.017C170.067 214.188 171.458 209.839 169.636 206.305L158.958 185.559V185.573Z" fill="#02B873"/>
<path d="M562.392 79.9548C557.289 65.757 549.693 52.2027 539.544 40.443C534.462 34.5804 528.783 29.1491 522.558 24.3411C516.324 19.5537 509.544 15.3758 502.338 11.9992C487.962 5.20503 471.915 1.65042 455.91 1.63672C439.902 1.65042 423.864 5.20503 409.479 11.9992C402.276 15.3758 395.502 19.5537 389.262 24.3411C383.028 29.1422 377.352 34.5804 372.27 40.443C362.121 52.2027 354.516 65.757 349.422 79.9548C344.334 94.1664 341.799 109.111 341.805 124.042C341.805 138.973 344.334 153.917 349.422 168.129C354.516 182.327 362.121 195.881 372.27 207.641C377.352 213.503 383.028 218.935 389.262 223.742C395.496 228.53 402.276 232.708 409.479 236.091C423.855 242.885 439.902 246.433 455.91 246.454C471.915 246.44 487.956 242.885 502.338 236.091C509.544 232.708 516.324 228.537 522.558 223.742C528.783 218.941 534.462 213.503 539.544 207.641C549.693 195.881 557.295 182.327 562.383 168.129C567.48 153.91 570.006 138.973 570 124.042C570 109.111 567.48 94.1733 562.383 79.9548H562.392ZM558.096 166.266C555.048 172.69 551.241 178.847 546.783 184.594C542.493 190.087 537.528 195.257 532.035 199.963C521.646 208.812 509.517 215.736 495.984 220.523C483.141 225.051 469.677 227.338 455.952 227.338H455.883C442.164 227.338 428.691 225.044 415.857 220.523C402.324 215.729 390.195 208.812 379.803 199.963C374.304 195.257 369.345 190.087 365.058 184.594C360.6 178.847 356.784 172.69 353.736 166.266C347.532 153.266 344.238 138.671 344.223 124.042C344.238 109.412 347.532 94.8102 353.736 81.8178C356.784 75.3933 360.591 69.2292 365.052 63.4899C369.339 57.9969 374.298 52.8261 379.797 48.1209C390.195 39.2718 402.324 32.3406 415.851 27.5464C428.691 23.0261 442.164 20.7317 455.889 20.7317H455.943C469.668 20.7317 483.135 23.0261 495.975 27.5464C509.502 32.3406 521.646 39.2583 532.035 48.1071C537.528 52.8123 542.493 57.99 546.774 63.4761C551.241 69.2226 555.048 75.3867 558.096 81.8109C564.309 94.8033 567.597 109.406 567.609 124.028C567.597 138.665 564.309 153.26 558.096 166.259H558.084L558.096 166.266Z" fill="#7F77DF"/>
<path d="M538.338 79.9548C533.235 65.757 525.645 52.2027 515.49 40.443C510.408 34.5804 504.735 29.1491 498.504 24.3411C492.27 19.5537 485.484 15.3758 478.284 11.9992C463.902 5.20503 447.87 1.65042 431.856 1.63672C415.851 1.65042 399.81 5.20503 385.428 11.9992C378.228 15.3758 371.448 19.5537 365.208 24.3411C358.977 29.1422 353.298 34.5804 348.216 40.443C338.058 52.2027 330.465 65.757 325.362 79.9548C320.271 94.1664 317.739 109.111 317.745 124.042C317.745 138.973 320.271 153.917 325.362 168.129C330.456 182.327 338.058 195.881 348.21 207.641C353.292 213.503 358.968 218.935 365.202 223.742C371.433 228.53 378.216 232.708 385.419 236.091C399.804 242.885 415.842 246.433 431.85 246.454C447.855 246.44 463.896 242.885 478.278 236.091C485.478 232.708 492.258 228.537 498.498 223.742C504.729 218.941 510.399 213.503 515.49 207.641C525.639 195.881 533.241 182.327 538.329 168.129C543.426 153.91 545.952 138.973 545.946 124.042C545.952 109.111 543.426 94.1733 538.329 79.9548H538.338ZM534.036 166.266C530.988 172.69 527.187 178.847 522.72 184.594C518.433 190.087 513.468 195.257 507.975 199.963C497.586 208.812 485.457 215.736 471.93 220.523C459.087 225.051 445.623 227.338 431.898 227.338H431.829C418.11 227.338 404.637 225.044 391.803 220.523C378.27 215.729 366.141 208.812 355.749 199.963C350.25 195.257 345.285 190.087 341.004 184.594C336.546 178.847 332.73 172.69 329.682 166.266C323.478 153.266 320.184 138.671 320.169 124.042C320.184 109.412 323.478 94.8102 329.682 81.8178C332.73 75.3933 336.54 69.2292 340.998 63.4899C345.285 57.9969 350.25 52.8261 355.743 48.1209C366.141 39.2718 378.27 32.3406 391.797 27.5464C404.637 23.0261 418.11 20.7317 431.835 20.7317H431.889C445.617 20.7317 459.081 23.0261 471.921 27.5464C485.457 32.3406 497.592 39.2583 507.981 48.1071C513.474 52.8123 518.442 57.99 522.72 63.4761C527.187 69.2226 531.003 75.3867 534.051 81.8109C540.255 94.8033 543.543 109.406 543.555 124.028C543.543 138.665 540.255 153.26 534.042 166.259H534.03L534.036 166.266Z" fill="#02B873"/>
</g>
</svg>
