<svg width="814" height="170" viewBox="0 0 814 170" fill="none" xmlns="http://www.w3.org/2000/svg">
<g clip-path="url(#clip0_155_48)">
<path d="M37.8735 24.5309V65.1196H28.6776L14.0118 43.7947H13.774V65.1196H2.75474V24.5309H12.1092L26.5372 45.7765H26.8543V24.5309H37.8735ZM67.1062 24.5309H78.1254V50.533C78.1254 53.6248 77.3855 56.3003 75.9057 58.5596C74.4391 60.8058 72.3911 62.5432 69.7619 63.772C67.1326 64.9875 64.0805 65.5953 60.6056 65.5953C57.1043 65.5953 54.039 64.9875 51.4097 63.772C48.7804 62.5432 46.7325 60.8058 45.2659 58.5596C43.8125 56.3003 43.0859 53.6248 43.0859 50.533V24.5309H54.1051V49.5817C54.1051 50.8369 54.3825 51.96 54.9375 52.9509C55.4924 53.9287 56.2587 54.695 57.2364 55.2499C58.2274 55.8048 59.3504 56.0823 60.6056 56.0823C61.874 56.0823 62.9971 55.8048 63.9748 55.2499C64.9525 54.695 65.7188 53.9287 66.2738 52.9509C66.8287 51.96 67.1062 50.8369 67.1062 49.5817V24.5309ZM83.3625 24.5309H97.077L106.511 47.5206H106.986L116.42 24.5309H130.135V65.1196H119.353V41.6543H119.036L109.999 64.8025H103.498L94.461 41.4957H94.1439V65.1196H83.3625V24.5309ZM135.357 65.1196V24.5309H152.956C156.048 24.5309 158.644 24.9471 160.745 25.7795C162.859 26.6118 164.451 27.7877 165.521 29.3072C166.604 30.8266 167.146 32.6169 167.146 34.6781C167.146 36.1711 166.816 37.532 166.155 38.7607C165.508 39.9895 164.596 41.0201 163.42 41.8524C162.244 42.6716 160.87 43.2398 159.298 43.5569V43.9532C161.042 44.0193 162.627 44.4619 164.054 45.2811C165.481 46.087 166.618 47.2035 167.463 48.6304C168.309 50.0442 168.732 51.709 168.732 53.6248C168.732 55.8445 168.15 57.8197 166.988 59.5506C165.838 61.2814 164.2 62.6423 162.073 63.6332C159.945 64.6242 157.409 65.1196 154.462 65.1196H135.357ZM146.376 56.3201H151.529C153.379 56.3201 154.766 55.9766 155.691 55.2895C156.616 54.5893 157.078 53.5587 157.078 52.1978C157.078 51.2465 156.86 50.4406 156.424 49.7799C155.988 49.1193 155.367 48.6172 154.561 48.2737C153.769 47.9302 152.811 47.7584 151.688 47.7584H146.376V56.3201ZM146.376 40.9408H150.895C151.859 40.9408 152.712 40.7888 153.451 40.4849C154.191 40.1811 154.766 39.745 155.176 39.1769C155.598 38.5956 155.81 37.8887 155.81 37.0563C155.81 35.8011 155.361 34.8432 154.462 34.1826C153.564 33.5088 152.427 33.1718 151.053 33.1718H146.376V40.9408ZM172.636 65.1196V24.5309H201.888V33.4097H183.655V40.3859H200.382V49.2646H183.655V56.2408H201.809V65.1196H172.636ZM207.353 65.1196V24.5309H224.873C227.886 24.5309 230.521 25.0792 232.781 26.1758C235.04 27.2725 236.797 28.8514 238.053 30.9125C239.308 32.9737 239.935 35.4444 239.935 38.3247C239.935 41.2315 239.288 43.6824 237.993 45.6775C236.712 47.6725 234.908 49.1788 232.583 50.1961C230.27 51.2135 227.568 51.7222 224.477 51.7222H214.012V43.1605H222.257C223.552 43.1605 224.655 43.0019 225.567 42.6848C226.492 42.3545 227.199 41.8326 227.687 41.1191C228.189 40.4057 228.441 39.4742 228.441 38.3247C228.441 37.162 228.189 36.2173 227.687 35.4906C227.199 34.7507 226.492 34.209 225.567 33.8655C224.655 33.5088 223.552 33.3304 222.257 33.3304H218.373V65.1196H207.353ZM231.136 46.49L241.283 65.1196H229.313L219.403 46.49H231.136ZM295.071 44.8253C295.071 49.3439 294.192 53.1557 292.435 56.2607C290.678 59.3524 288.306 61.6976 285.32 63.2963C282.334 64.8818 279.005 65.6746 275.332 65.6746C271.632 65.6746 268.289 64.8752 265.303 63.2765C262.331 61.6646 259.966 59.3127 258.208 56.221C256.464 53.1161 255.592 49.3175 255.592 44.8253C255.592 40.3066 256.464 36.5014 258.208 33.4097C259.966 30.3047 262.331 27.9595 265.303 26.374C268.289 24.7753 271.632 23.9759 275.332 23.9759C279.005 23.9759 282.334 24.7753 285.32 26.374C288.306 27.9595 290.678 30.3047 292.435 33.4097C294.192 36.5014 295.071 40.3066 295.071 44.8253ZM283.735 44.8253C283.735 42.3942 283.411 40.3462 282.764 38.6814C282.129 37.0035 281.185 35.7351 279.93 34.8762C278.688 34.0042 277.155 33.5682 275.332 33.5682C273.508 33.5682 271.969 34.0042 270.714 34.8762C269.472 35.7351 268.527 37.0035 267.88 38.6814C267.246 40.3462 266.928 42.3942 266.928 44.8253C266.928 47.2563 267.246 49.3109 267.88 50.9889C268.527 52.6536 269.472 53.922 270.714 54.7941C271.969 55.6529 273.508 56.0823 275.332 56.0823C277.155 56.0823 278.688 55.6529 279.93 54.7941C281.185 53.922 282.129 52.6536 282.764 50.9889C283.411 49.3109 283.735 47.2563 283.735 44.8253ZM300.169 65.1196V24.5309H328.708V33.4097H311.189V40.3859H326.964V49.2646H311.189V65.1196H300.169ZM343.88 65.1196V24.5309H361.399C364.412 24.5309 367.048 25.0792 369.307 26.1758C371.566 27.2725 373.324 28.8514 374.579 30.9125C375.834 32.9737 376.462 35.4444 376.462 38.3247C376.462 41.2315 375.814 43.6824 374.519 45.6775C373.238 47.6725 371.434 49.1788 369.109 50.1961C366.797 51.2135 364.095 51.7222 361.003 51.7222H350.539V43.1605H358.783C360.078 43.1605 361.181 43.0019 362.093 42.6848C363.018 42.3545 363.725 41.8326 364.214 41.1191C364.716 40.4057 364.967 39.4742 364.967 38.3247C364.967 37.162 364.716 36.2173 364.214 35.4906C363.725 34.7507 363.018 34.209 362.093 33.8655C361.181 33.5088 360.078 33.3304 358.783 33.3304H354.899V65.1196H343.88ZM367.662 46.49L377.809 65.1196H365.839L355.929 46.49H367.662ZM381.159 65.1196V24.5309H410.411V33.4097H392.178V40.3859H408.905V49.2646H392.178V56.2408H410.332V65.1196H381.159ZM453.77 39.7517H442.592C442.513 38.8268 442.301 37.9878 441.958 37.2347C441.627 36.4816 441.165 35.8342 440.57 35.2924C439.989 34.7375 439.282 34.3147 438.45 34.024C437.617 33.7202 436.673 33.5682 435.616 33.5682C433.766 33.5682 432.2 34.0174 430.919 34.9159C429.65 35.8143 428.686 37.1026 428.025 38.7805C427.378 40.4585 427.054 42.4734 427.054 44.8253C427.054 47.3092 427.384 49.3902 428.045 51.0682C428.719 52.7329 429.69 53.9881 430.958 54.8337C432.227 55.6661 433.753 56.0823 435.536 56.0823C436.554 56.0823 437.465 55.9568 438.271 55.7057C439.077 55.4415 439.778 55.0649 440.372 54.5761C440.967 54.0872 441.449 53.4992 441.819 52.8122C442.202 52.1119 442.46 51.3258 442.592 50.4538L453.77 50.533C453.637 52.2507 453.155 54.0013 452.323 55.785C451.49 57.5555 450.308 59.1938 448.775 60.7001C447.256 62.1931 445.373 63.3954 443.127 64.3071C440.881 65.2187 438.271 65.6746 435.298 65.6746C431.573 65.6746 428.23 64.8752 425.27 63.2765C422.324 61.6778 419.992 59.326 418.274 56.221C416.57 53.1161 415.718 49.3175 415.718 44.8253C415.718 40.3066 416.59 36.5014 418.334 33.4097C420.078 30.3047 422.43 27.9595 425.389 26.374C428.349 24.7753 431.652 23.9759 435.298 23.9759C437.862 23.9759 440.22 24.3261 442.374 25.0263C444.527 25.7266 446.417 26.7506 448.042 28.0982C449.667 29.4327 450.975 31.0777 451.966 33.0331C452.957 34.9886 453.558 37.2281 453.77 39.7517ZM457.104 24.5309H469.392L477.319 41.0201H477.636L485.564 24.5309H497.851L482.948 52.3564V65.1196H472.008V52.3564L457.104 24.5309ZM536.503 39.7517H525.325C525.246 38.8268 525.034 37.9878 524.691 37.2347C524.361 36.4816 523.898 35.8342 523.304 35.2924C522.722 34.7375 522.015 34.3147 521.183 34.024C520.351 33.7202 519.406 33.5682 518.349 33.5682C516.499 33.5682 514.933 34.0174 513.652 34.9159C512.383 35.8143 511.419 37.1026 510.758 38.7805C510.111 40.4585 509.787 42.4734 509.787 44.8253C509.787 47.3092 510.117 49.3902 510.778 51.0682C511.452 52.7329 512.423 53.9881 513.691 54.8337C514.96 55.6661 516.486 56.0823 518.27 56.0823C519.287 56.0823 520.199 55.9568 521.005 55.7057C521.811 55.4415 522.511 55.0649 523.105 54.5761C523.7 54.0872 524.182 53.4992 524.552 52.8122C524.935 52.1119 525.193 51.3258 525.325 50.4538L536.503 50.533C536.371 52.2507 535.888 54.0013 535.056 55.785C534.224 57.5555 533.041 59.1938 531.509 60.7001C529.989 62.1931 528.106 63.3954 525.86 64.3071C523.614 65.2187 521.005 65.6746 518.032 65.6746C514.306 65.6746 510.963 64.8752 508.003 63.2765C505.057 61.6778 502.725 59.326 501.007 56.221C499.303 53.1161 498.451 49.3175 498.451 44.8253C498.451 40.3066 499.323 36.5014 501.067 33.4097C502.811 30.3047 505.163 27.9595 508.122 26.374C511.082 24.7753 514.385 23.9759 518.032 23.9759C520.595 23.9759 522.953 24.3261 525.107 25.0263C527.261 25.7266 529.15 26.7506 530.775 28.0982C532.4 29.4327 533.708 31.0777 534.699 33.0331C535.69 34.9886 536.291 37.2281 536.503 39.7517ZM541.502 65.1196V24.5309H552.521V56.2408H568.931V65.1196H541.502ZM583.929 65.1196H572.038L585.435 24.5309H600.498L613.895 65.1196H602.004L593.125 35.7086H592.808L583.929 65.1196ZM581.709 49.1061H604.065V57.3507H581.709V49.1061ZM617.804 65.1196V24.5309H635.403C638.495 24.5309 641.091 24.9471 643.192 25.7795C645.306 26.6118 646.898 27.7877 647.968 29.3072C649.052 30.8266 649.593 32.6169 649.593 34.6781C649.593 36.1711 649.263 37.532 648.603 38.7607C647.955 39.9895 647.043 41.0201 645.868 41.8524C644.692 42.6716 643.318 43.2398 641.745 43.5569V43.9532C643.489 44.0193 645.075 44.4619 646.502 45.2811C647.929 46.087 649.065 47.2035 649.911 48.6304C650.756 50.0442 651.179 51.709 651.179 53.6248C651.179 55.8445 650.598 57.8197 649.435 59.5506C648.285 61.2814 646.647 62.6423 644.52 63.6332C642.393 64.6242 639.856 65.1196 636.909 65.1196H617.804ZM628.823 56.3201H633.976C635.826 56.3201 637.213 55.9766 638.138 55.2895C639.063 54.5893 639.526 53.5587 639.526 52.1978C639.526 51.2465 639.308 50.4406 638.872 49.7799C638.436 49.1193 637.815 48.6172 637.009 48.2737C636.216 47.9302 635.258 47.7584 634.135 47.7584H628.823V56.3201ZM628.823 40.9408H633.342C634.307 40.9408 635.159 40.7888 635.899 40.4849C636.639 40.1811 637.213 39.745 637.623 39.1769C638.046 38.5956 638.257 37.8887 638.257 37.0563C638.257 35.8011 637.808 34.8432 636.909 34.1826C636.011 33.5088 634.875 33.1718 633.501 33.1718H628.823V40.9408ZM655.083 65.1196V24.5309H666.102V56.2408H682.512V65.1196H655.083ZM686.967 65.1196V24.5309H716.219V33.4097H697.986V40.3859H714.713V49.2646H697.986V56.2408H716.14V65.1196H686.967ZM743.564 37.2149C743.458 35.8936 742.963 34.863 742.078 34.1231C741.206 33.3832 739.878 33.0133 738.094 33.0133C736.958 33.0133 736.026 33.152 735.3 33.4295C734.586 33.6937 734.058 34.0571 733.714 34.5195C733.371 34.9819 733.192 35.5104 733.179 36.105C733.153 36.5939 733.238 37.0365 733.437 37.4329C733.648 37.816 733.978 38.1662 734.428 38.4833C734.877 38.7871 735.451 39.0646 736.152 39.3156C736.852 39.5667 737.684 39.7913 738.649 39.9895L741.978 40.703C744.225 41.1786 746.147 41.8062 747.746 42.5857C749.344 43.3653 750.652 44.2835 751.67 45.3405C752.687 46.3843 753.434 47.5602 753.909 48.8683C754.398 50.1763 754.649 51.6033 754.662 53.1491C754.649 55.818 753.982 58.0774 752.661 59.9271C751.339 61.7769 749.45 63.184 746.993 64.1485C744.548 65.113 741.608 65.5953 738.173 65.5953C734.646 65.5953 731.567 65.0734 728.938 64.0296C726.322 62.9858 724.287 61.3805 722.834 59.2136C721.393 57.0336 720.667 54.2458 720.653 50.8501H731.118C731.184 52.0921 731.494 53.1359 732.049 53.9815C732.604 54.8271 733.384 55.4679 734.388 55.9039C735.405 56.3399 736.614 56.5579 738.015 56.5579C739.191 56.5579 740.175 56.4126 740.968 56.1219C741.76 55.8313 742.362 55.4283 742.771 54.913C743.181 54.3977 743.392 53.8097 743.405 53.1491C743.392 52.5281 743.187 51.9864 742.791 51.524C742.408 51.0483 741.774 50.6255 740.888 50.2556C740.003 49.8724 738.807 49.5157 737.301 49.1854L733.258 48.3133C729.664 47.5338 726.83 46.2324 724.756 44.4091C722.695 42.5725 721.671 40.0688 721.684 36.8978C721.671 34.3213 722.358 32.0686 723.745 30.1396C725.146 28.1973 727.081 26.6845 729.552 25.6011C732.036 24.5177 734.883 23.9759 738.094 23.9759C741.371 23.9759 744.205 24.5243 746.596 25.6209C748.988 26.7175 750.831 28.2634 752.126 30.2585C753.434 32.2404 754.094 34.5591 754.108 37.2149H743.564Z" fill="#02B873"/>
<rect x="0.138672" y="79.1196" width="351" height="66" rx="33" fill="#02B873"/>
<path d="M30.7548 132.62V92.0305H48.3539C51.4457 92.0305 54.042 92.4467 56.1428 93.2791C58.2568 94.1115 59.8489 95.2874 60.9191 96.8069C62.0026 98.3263 62.5443 100.117 62.5443 102.178C62.5443 103.671 62.214 105.032 61.5533 106.261C60.9059 107.489 59.9942 108.52 58.8183 109.352C57.6424 110.171 56.2683 110.74 54.696 111.057V111.453C56.4401 111.519 58.0256 111.962 59.4525 112.781C60.8795 113.587 62.0158 114.703 62.8614 116.13C63.707 117.544 64.1298 119.209 64.1298 121.125C64.1298 123.344 63.5484 125.32 62.3857 127.051C61.2362 128.781 59.5979 130.142 57.4706 131.133C55.3434 132.124 52.8066 132.62 49.8602 132.62H30.7548ZM41.7741 123.82H46.927C48.7767 123.82 50.1641 123.477 51.0889 122.789C52.0138 122.089 52.4763 121.059 52.4763 119.698C52.4763 118.746 52.2583 117.94 51.8222 117.28C51.3862 116.619 50.7652 116.117 49.9593 115.774C49.1665 115.43 48.2086 115.258 47.0855 115.258H41.7741V123.82ZM41.7741 108.441H46.2928C47.2573 108.441 48.1095 108.289 48.8494 107.985C49.5893 107.681 50.1641 107.245 50.5737 106.677C50.9965 106.095 51.2079 105.388 51.2079 104.556C51.2079 103.301 50.7586 102.343 49.8602 101.682C48.9617 101.008 47.8254 100.672 46.4513 100.672H41.7741V108.441ZM65.8112 92.0305H78.0989L86.0265 108.52H86.3436L94.2711 92.0305H106.559L91.655 119.856V132.62H80.715V119.856L65.8112 92.0305ZM130.459 132.62L118.488 92.0305H130.776L136.325 117.002H136.643L143.222 92.0305H152.894L159.474 117.082H159.791L165.34 92.0305H177.628L165.657 132.62H155.114L148.217 109.947H147.9L141.003 132.62H130.459ZM180.637 132.62V92.0305H209.89V100.909H191.657V107.886H208.384V116.765H191.657V123.741H209.811V132.62H180.637ZM214.797 132.62V92.0305H244.05V100.909H225.816V107.886H242.543V116.765H225.816V123.741H243.97V132.62H214.797ZM248.957 132.62V92.0305H259.976V108.441H260.531L272.739 92.0305H285.582L271.867 110.105L285.899 132.62H272.739L263.623 117.399L259.976 122.155V132.62H248.957ZM309.629 104.715C309.523 103.393 309.028 102.363 308.143 101.623C307.271 100.883 305.943 100.513 304.159 100.513C303.023 100.513 302.091 100.652 301.365 100.929C300.651 101.193 300.123 101.557 299.779 102.019C299.435 102.482 299.257 103.01 299.244 103.605C299.217 104.094 299.303 104.536 299.502 104.933C299.713 105.316 300.043 105.666 300.492 105.983C300.942 106.287 301.516 106.564 302.217 106.815C302.917 107.066 303.749 107.291 304.714 107.489L308.043 108.203C310.29 108.678 312.212 109.306 313.811 110.086C315.41 110.865 316.718 111.783 317.735 112.84C318.752 113.884 319.499 115.06 319.974 116.368C320.463 117.676 320.714 119.103 320.728 120.649C320.714 123.318 320.047 125.577 318.726 127.427C317.405 129.277 315.515 130.684 313.058 131.649C310.613 132.613 307.674 133.095 304.238 133.095C300.71 133.095 297.632 132.573 295.003 131.53C292.387 130.486 290.352 128.88 288.898 126.714C287.458 124.534 286.732 121.746 286.718 118.35H297.183C297.249 119.592 297.559 120.636 298.114 121.481C298.669 122.327 299.449 122.968 300.453 123.404C301.47 123.84 302.679 124.058 304.08 124.058C305.256 124.058 306.24 123.913 307.033 123.622C307.825 123.331 308.427 122.928 308.836 122.413C309.246 121.898 309.457 121.31 309.47 120.649C309.457 120.028 309.252 119.486 308.856 119.024C308.473 118.548 307.839 118.125 306.953 117.755C306.068 117.372 304.872 117.016 303.366 116.685L299.323 115.813C295.729 115.034 292.895 113.732 290.821 111.909C288.76 110.072 287.736 107.569 287.749 104.398C287.736 101.821 288.423 99.5683 289.81 97.6393C291.211 95.697 293.146 94.1842 295.617 93.1008C298.101 92.0173 300.948 91.4756 304.159 91.4756C307.436 91.4756 310.27 92.0239 312.661 93.1206C315.053 94.2172 316.896 95.7631 318.191 97.7582C319.499 99.7401 320.159 102.059 320.173 104.715H309.629Z" fill="white"/>
</g>
<defs>
<clipPath id="clip0_155_48">
<rect width="813" height="169" fill="white" transform="translate(0.138672 0.119629)"/>
</clipPath>
</defs>
</svg>
