<svg width="1134" height="169" viewBox="0 0 1134 169" fill="none" xmlns="http://www.w3.org/2000/svg">
<path d="M37.7349 24.4112V65H28.539L13.8731 43.675H13.6353V65H2.61607V24.4112H11.9705L26.3985 45.6569H26.7156V24.4112H37.7349ZM66.9675 24.4112H77.9867V50.4134C77.9867 53.5051 77.2468 56.1807 75.767 58.44C74.3004 60.6861 72.2525 62.4236 69.6232 63.6523C66.9939 64.8679 63.9418 65.4756 60.4669 65.4756C56.9656 65.4756 53.9003 64.8679 51.2711 63.6523C48.6418 62.4236 46.5938 60.6861 45.1272 58.44C43.6739 56.1807 42.9472 53.5051 42.9472 50.4134V24.4112H53.9664V49.4621C53.9664 50.7173 54.2439 51.8404 54.7988 52.8313C55.3537 53.809 56.12 54.5753 57.0978 55.1303C58.0887 55.6852 59.2118 55.9627 60.4669 55.9627C61.7353 55.9627 62.8584 55.6852 63.8361 55.1303C64.8138 54.5753 65.5802 53.809 66.1351 52.8313C66.69 51.8404 66.9675 50.7173 66.9675 49.4621V24.4112ZM83.2238 24.4112H96.9384L106.372 47.401H106.848L116.281 24.4112H129.996V65H119.215V41.5346H118.898L109.86 64.6829H103.36L94.3223 41.3761H94.0052V65H83.2238V24.4112ZM135.218 65V24.4112H152.817C155.909 24.4112 158.505 24.8274 160.606 25.6598C162.72 26.4922 164.312 27.6681 165.382 29.1876C166.466 30.707 167.007 32.4973 167.007 34.5584C167.007 36.0514 166.677 37.4123 166.017 38.6411C165.369 39.8699 164.457 40.9004 163.282 41.7328C162.106 42.552 160.732 43.1201 159.159 43.4372V43.8336C160.903 43.8997 162.489 44.3423 163.916 45.1615C165.343 45.9674 166.479 47.0839 167.325 48.5108C168.17 49.9246 168.593 51.5893 168.593 53.5051C168.593 55.7248 168.012 57.7001 166.849 59.4309C165.699 61.1618 164.061 62.5227 161.934 63.5136C159.807 64.5045 157.27 65 154.323 65H135.218ZM146.237 56.2005H151.39C153.24 56.2005 154.627 55.857 155.552 55.1699C156.477 54.4696 156.94 53.4391 156.94 52.0782C156.94 51.1269 156.722 50.3209 156.286 49.6603C155.85 48.9997 155.229 48.4976 154.423 48.1541C153.63 47.8106 152.672 47.6388 151.549 47.6388H146.237V56.2005ZM146.237 40.8212H150.756C151.721 40.8212 152.573 40.6692 153.313 40.3653C154.053 40.0614 154.627 39.6254 155.037 39.0573C155.46 38.4759 155.671 37.7691 155.671 36.9367C155.671 35.6815 155.222 34.7236 154.323 34.063C153.425 33.3891 152.289 33.0522 150.915 33.0522H146.237V40.8212ZM172.497 65V24.4112H201.75V33.29H183.516V40.2662H200.243V49.145H183.516V56.1212H201.67V65H172.497ZM207.215 65V24.4112H224.734C227.747 24.4112 230.383 24.9596 232.642 26.0562C234.901 27.1528 236.659 28.7317 237.914 30.7929C239.169 32.854 239.797 35.3248 239.797 38.2051C239.797 41.1118 239.149 43.5627 237.854 45.5578C236.573 47.5529 234.769 49.0591 232.444 50.0765C230.132 51.0939 227.43 51.6025 224.338 51.6025H213.874V43.0408H222.118C223.413 43.0408 224.516 42.8823 225.428 42.5652C226.353 42.2349 227.06 41.713 227.549 40.9995C228.051 40.286 228.302 39.3546 228.302 38.2051C228.302 37.0424 228.051 36.0977 227.549 35.371C227.06 34.6311 226.353 34.0894 225.428 33.7459C224.516 33.3891 223.413 33.2108 222.118 33.2108H218.234V65H207.215ZM230.997 46.3704L241.144 65H229.174L219.265 46.3704H230.997ZM294.932 44.7056C294.932 49.2243 294.054 53.0361 292.297 56.141C290.539 59.2327 288.168 61.578 285.182 63.1767C282.196 64.7622 278.866 65.5549 275.193 65.5549C271.493 65.5549 268.151 64.7556 265.165 63.1569C262.192 61.5449 259.827 59.1931 258.07 56.1014C256.326 52.9965 255.454 49.1979 255.454 44.7056C255.454 40.187 256.326 36.3818 258.07 33.29C259.827 30.1851 262.192 27.8399 265.165 26.2544C268.151 24.6557 271.493 23.8563 275.193 23.8563C278.866 23.8563 282.196 24.6557 285.182 26.2544C288.168 27.8399 290.539 30.1851 292.297 33.29C294.054 36.3818 294.932 40.187 294.932 44.7056ZM283.596 44.7056C283.596 42.2745 283.272 40.2266 282.625 38.5618C281.991 36.8838 281.046 35.6154 279.791 34.7566C278.549 33.8846 277.016 33.4486 275.193 33.4486C273.37 33.4486 271.83 33.8846 270.575 34.7566C269.333 35.6154 268.389 36.8838 267.741 38.5618C267.107 40.2266 266.79 42.2745 266.79 44.7056C266.79 47.1367 267.107 49.1913 267.741 50.8692C268.389 52.534 269.333 53.8024 270.575 54.6744C271.83 55.5333 273.37 55.9627 275.193 55.9627C277.016 55.9627 278.549 55.5333 279.791 54.6744C281.046 53.8024 281.991 52.534 282.625 50.8692C283.272 49.1913 283.596 47.1367 283.596 44.7056ZM300.031 65V24.4112H328.57V33.29H311.05V40.2662H326.826V49.145H311.05V65H300.031ZM343.741 65V24.4112H361.261C364.273 24.4112 366.909 24.9596 369.168 26.0562C371.428 27.1528 373.185 28.7317 374.44 30.7929C375.695 32.854 376.323 35.3248 376.323 38.2051C376.323 41.1118 375.676 43.5627 374.381 45.5578C373.099 47.5529 371.296 49.0591 368.97 50.0765C366.658 51.0939 363.956 51.6025 360.864 51.6025H350.4V43.0408H358.645C359.939 43.0408 361.043 42.8823 361.954 42.5652C362.879 42.2349 363.586 41.713 364.075 40.9995C364.577 40.286 364.828 39.3546 364.828 38.2051C364.828 37.0424 364.577 36.0977 364.075 35.371C363.586 34.6311 362.879 34.0894 361.954 33.7459C361.043 33.3891 359.939 33.2108 358.645 33.2108H354.76V65H343.741ZM367.523 46.3704L377.671 65H365.7L355.791 46.3704H367.523ZM381.02 65V24.4112H410.272V33.29H392.039V40.2662H408.766V49.145H392.039V56.1212H410.193V65H381.02ZM442.096 37.8087C441.925 37.1084 441.654 36.4941 441.284 35.9656C440.914 35.4239 440.451 34.968 439.897 34.5981C439.355 34.2149 438.721 33.9308 437.994 33.7459C437.28 33.5477 436.494 33.4486 435.635 33.4486C433.786 33.4486 432.207 33.8912 430.899 34.7764C429.604 35.6617 428.613 36.9367 427.926 38.6015C427.252 40.2662 426.915 42.2745 426.915 44.6263C426.915 47.0046 427.239 49.0393 427.886 50.7305C428.534 52.4217 429.498 53.7165 430.78 54.615C432.061 55.5134 433.654 55.9627 435.556 55.9627C437.234 55.9627 438.628 55.7182 439.738 55.2294C440.861 54.7405 441.7 54.0468 442.255 53.1484C442.81 52.25 443.087 51.193 443.087 49.9774L444.99 50.1756H435.715V42.3274H453.71V47.9559C453.71 51.6554 452.924 54.8198 451.352 57.4491C449.793 60.0651 447.639 62.0734 444.891 63.474C442.156 64.8613 439.018 65.5549 435.477 65.5549C431.526 65.5549 428.058 64.7159 425.072 63.0379C422.086 61.36 419.754 58.9685 418.076 55.8636C416.411 52.7586 415.579 49.0657 415.579 44.7849C415.579 41.4289 416.088 38.4561 417.105 35.8665C418.136 33.2768 419.562 31.0902 421.386 29.3065C423.209 27.5096 425.317 26.1553 427.708 25.2436C430.099 24.3188 432.663 23.8563 435.398 23.8563C437.802 23.8563 440.035 24.1998 442.096 24.8869C444.171 25.5607 446.001 26.5252 447.586 27.7804C449.185 29.0224 450.473 30.4956 451.451 32.2C452.429 33.9044 453.023 35.774 453.235 37.8087H442.096ZM469.867 24.4112V65H458.848V24.4112H469.867ZM496.969 37.0952C496.864 35.774 496.368 34.7434 495.483 34.0035C494.611 33.2636 493.283 32.8937 491.5 32.8937C490.363 32.8937 489.432 33.0324 488.705 33.3099C487.992 33.5741 487.463 33.9374 487.12 34.3999C486.776 34.8623 486.598 35.3908 486.584 35.9854C486.558 36.4742 486.644 36.9169 486.842 37.3132C487.054 37.6964 487.384 38.0465 487.833 38.3636C488.282 38.6675 488.857 38.945 489.557 39.196C490.258 39.4471 491.09 39.6717 492.054 39.8699L495.384 40.5833C497.63 41.059 499.553 41.6866 501.151 42.4661C502.75 43.2456 504.058 44.1639 505.075 45.2209C506.093 46.2647 506.839 47.4406 507.315 48.7486C507.804 50.0567 508.055 51.4836 508.068 53.0295C508.055 55.6984 507.388 57.9577 506.066 59.8075C504.745 61.6572 502.856 63.0644 500.398 64.0289C497.954 64.9934 495.014 65.4756 491.579 65.4756C488.051 65.4756 484.973 64.9538 482.343 63.91C479.727 62.8662 477.692 61.2609 476.239 59.094C474.799 56.914 474.072 54.1261 474.059 50.7305H484.523C484.589 51.9725 484.9 53.0163 485.455 53.8619C486.01 54.7075 486.789 55.3483 487.793 55.7843C488.811 56.2203 490.02 56.4383 491.42 56.4383C492.596 56.4383 493.58 56.293 494.373 56.0023C495.166 55.7116 495.767 55.3086 496.177 54.7934C496.586 54.2781 496.798 53.6901 496.811 53.0295C496.798 52.4085 496.593 51.8668 496.197 51.4044C495.813 50.9287 495.179 50.5059 494.294 50.136C493.409 49.7528 492.213 49.3961 490.707 49.0657L486.664 48.1937C483.07 47.4142 480.236 46.1128 478.162 44.2894C476.1 42.4529 475.076 39.9491 475.09 36.7781C475.076 34.2017 475.763 31.949 477.151 30.0199C478.551 28.0777 480.487 26.5649 482.958 25.4815C485.442 24.398 488.289 23.8563 491.5 23.8563C494.776 23.8563 497.61 24.4046 500.002 25.5013C502.393 26.5979 504.236 28.1438 505.531 30.1389C506.839 32.1207 507.5 34.4395 507.513 37.0952H496.969ZM511.15 33.29V24.4112H546.427V33.29H534.219V65H523.358V33.29H511.15ZM550.574 65V24.4112H579.827V33.29H561.593V40.2662H578.32V49.145H561.593V56.1212H579.747V65H550.574ZM585.292 65V24.4112H602.811C605.824 24.4112 608.46 24.9596 610.719 26.0562C612.978 27.1528 614.736 28.7317 615.991 30.7929C617.246 32.854 617.874 35.3248 617.874 38.2051C617.874 41.1118 617.226 43.5627 615.931 45.5578C614.65 47.5529 612.846 49.0591 610.521 50.0765C608.209 51.0939 605.507 51.6025 602.415 51.6025H591.951V43.0408H600.195C601.49 43.0408 602.593 42.8823 603.505 42.5652C604.43 42.2349 605.137 41.713 605.626 40.9995C606.128 40.286 606.379 39.3546 606.379 38.2051C606.379 37.0424 606.128 36.0977 605.626 35.371C605.137 34.6311 604.43 34.0894 603.505 33.7459C602.593 33.3891 601.49 33.2108 600.195 33.2108H596.311V65H585.292ZM609.074 46.3704L619.221 65H607.251L597.341 46.3704H609.074ZM622.571 65V24.4112H651.823V33.29H633.59V40.2662H650.317V49.145H633.59V56.1212H651.744V65H622.571ZM672.905 65H657.288V24.4112H672.747C676.922 24.4112 680.529 25.2238 683.568 26.8489C686.62 28.4609 688.972 30.7863 690.623 33.8251C692.288 36.8508 693.12 40.4776 693.12 44.7056C693.12 48.9336 692.295 52.5671 690.643 55.6059C688.991 58.6316 686.653 60.957 683.627 62.5821C680.602 64.194 677.028 65 672.905 65ZM668.307 55.6456H672.509C674.517 55.6456 676.228 55.3219 677.642 54.6744C679.069 54.027 680.152 52.9106 680.892 51.3251C681.645 49.7396 682.022 47.5331 682.022 44.7056C682.022 41.8781 681.639 39.6717 680.872 38.0862C680.119 36.5007 679.009 35.3842 677.543 34.7368C676.089 34.0894 674.306 33.7657 672.192 33.7657H668.307V55.6456ZM733.357 24.4112H744.377V50.4134C744.377 53.5051 743.637 56.1807 742.157 58.44C740.69 60.6861 738.642 62.4236 736.013 63.6523C733.384 64.8679 730.332 65.4756 726.857 65.4756C723.356 65.4756 720.29 64.8679 717.661 63.6523C715.032 62.4236 712.984 60.6861 711.517 58.44C710.064 56.1807 709.337 53.5051 709.337 50.4134V24.4112H720.356V49.4621C720.356 50.7173 720.634 51.8404 721.189 52.8313C721.744 53.809 722.51 54.5753 723.488 55.1303C724.479 55.6852 725.602 55.9627 726.857 55.9627C728.125 55.9627 729.248 55.6852 730.226 55.1303C731.204 54.5753 731.97 53.809 732.525 52.8313C733.08 51.8404 733.357 50.7173 733.357 49.4621V24.4112ZM771.494 37.0952C771.388 35.774 770.892 34.7434 770.007 34.0035C769.135 33.2636 767.807 32.8937 766.024 32.8937C764.887 32.8937 763.956 33.0324 763.229 33.3099C762.516 33.5741 761.987 33.9374 761.644 34.3999C761.3 34.8623 761.122 35.3908 761.109 35.9854C761.082 36.4742 761.168 36.9169 761.366 37.3132C761.578 37.6964 761.908 38.0465 762.357 38.3636C762.806 38.6675 763.381 38.945 764.081 39.196C764.782 39.4471 765.614 39.6717 766.579 39.8699L769.908 40.5833C772.154 41.059 774.077 41.6866 775.675 42.4661C777.274 43.2456 778.582 44.1639 779.599 45.2209C780.617 46.2647 781.363 47.4406 781.839 48.7486C782.328 50.0567 782.579 51.4836 782.592 53.0295C782.579 55.6984 781.912 57.9577 780.59 59.8075C779.269 61.6572 777.38 63.0644 774.922 64.0289C772.478 64.9934 769.538 65.4756 766.103 65.4756C762.575 65.4756 759.497 64.9538 756.867 63.91C754.251 62.8662 752.217 61.2609 750.763 59.094C749.323 56.914 748.596 54.1261 748.583 50.7305H759.047C759.113 51.9725 759.424 53.0163 759.979 53.8619C760.534 54.7075 761.313 55.3483 762.317 55.7843C763.335 56.2203 764.544 56.4383 765.944 56.4383C767.12 56.4383 768.105 56.293 768.897 56.0023C769.69 55.7116 770.291 55.3086 770.701 54.7934C771.11 54.2781 771.322 53.6901 771.335 53.0295C771.322 52.4085 771.117 51.8668 770.721 51.4044C770.337 50.9287 769.703 50.5059 768.818 50.136C767.933 49.7528 766.737 49.3961 765.231 49.0657L761.188 48.1937C757.594 47.4142 754.76 46.1128 752.686 44.2894C750.624 42.4529 749.6 39.9491 749.614 36.7781C749.6 34.2017 750.288 31.949 751.675 30.0199C753.075 28.0777 755.011 26.5649 757.482 25.4815C759.966 24.398 762.813 23.8563 766.024 23.8563C769.3 23.8563 772.134 24.4046 774.526 25.5013C776.917 26.5979 778.76 28.1438 780.055 30.1389C781.363 32.1207 782.024 34.4395 782.037 37.0952H771.494ZM786.784 65V24.4112H816.036V33.29H797.803V40.2662H814.53V49.145H797.803V56.1212H815.957V65H786.784ZM821.501 65V24.4112H839.021C842.033 24.4112 844.669 24.9596 846.929 26.0562C849.188 27.1528 850.945 28.7317 852.2 30.7929C853.456 32.854 854.083 35.3248 854.083 38.2051C854.083 41.1118 853.436 43.5627 852.141 45.5578C850.859 47.5529 849.056 49.0591 846.73 50.0765C844.418 51.0939 841.716 51.6025 838.625 51.6025H828.16V43.0408H836.405C837.7 43.0408 838.803 42.8823 839.715 42.5652C840.639 42.2349 841.346 41.713 841.835 40.9995C842.337 40.286 842.588 39.3546 842.588 38.2051C842.588 37.0424 842.337 36.0977 841.835 35.371C841.346 34.6311 840.639 34.0894 839.715 33.7459C838.803 33.3891 837.7 33.2108 836.405 33.2108H832.52V65H821.501ZM845.284 46.3704L855.431 65H843.46L833.551 46.3704H845.284ZM880.66 37.0952C880.554 35.774 880.059 34.7434 879.174 34.0035C878.302 33.2636 876.974 32.8937 875.19 32.8937C874.054 32.8937 873.122 33.0324 872.396 33.3099C871.682 33.5741 871.154 33.9374 870.81 34.3999C870.467 34.8623 870.288 35.3908 870.275 35.9854C870.249 36.4742 870.335 36.9169 870.533 37.3132C870.744 37.6964 871.074 38.0465 871.524 38.3636C871.973 38.6675 872.548 38.945 873.248 39.196C873.948 39.4471 874.781 39.6717 875.745 39.8699L879.075 40.5833C881.321 41.059 883.243 41.6866 884.842 42.4661C886.441 43.2456 887.749 44.1639 888.766 45.2209C889.783 46.2647 890.53 47.4406 891.005 48.7486C891.494 50.0567 891.745 51.4836 891.759 53.0295C891.745 55.6984 891.078 57.9577 889.757 59.8075C888.436 61.6572 886.546 63.0644 884.089 64.0289C881.644 64.9934 878.705 65.4756 875.269 65.4756C871.742 65.4756 868.663 64.9538 866.034 63.91C863.418 62.8662 861.383 61.2609 859.93 59.094C858.49 56.914 857.763 54.1261 857.75 50.7305H868.214C868.28 51.9725 868.59 53.0163 869.145 53.8619C869.7 54.7075 870.48 55.3483 871.484 55.7843C872.501 56.2203 873.71 56.4383 875.111 56.4383C876.287 56.4383 877.271 56.293 878.064 56.0023C878.857 55.7116 879.458 55.3086 879.867 54.7934C880.277 54.2781 880.488 53.6901 880.502 53.0295C880.488 52.4085 880.284 51.8668 879.887 51.4044C879.504 50.9287 878.87 50.5059 877.985 50.136C877.099 49.7528 875.904 49.3961 874.397 49.0657L870.354 48.1937C866.761 47.4142 863.926 46.1128 861.852 44.2894C859.791 42.4529 858.767 39.9491 858.78 36.7781C858.767 34.2017 859.454 31.949 860.841 30.0199C862.242 28.0777 864.177 26.5649 866.648 25.4815C869.132 24.398 871.979 23.8563 875.19 23.8563C878.467 23.8563 881.301 24.4046 883.692 25.5013C886.084 26.5979 887.927 28.1438 889.222 30.1389C890.53 32.1207 891.19 34.4395 891.204 37.0952H880.66ZM918.167 24.4112L926.491 53.0295H926.808L935.132 24.4112H947.578L934.181 65H919.118L905.721 24.4112H918.167ZM962.506 24.4112V65H951.487V24.4112H962.506ZM989.609 37.0952C989.503 35.774 989.007 34.7434 988.122 34.0035C987.25 33.2636 985.922 32.8937 984.139 32.8937C983.002 32.8937 982.071 33.0324 981.344 33.3099C980.631 33.5741 980.102 33.9374 979.759 34.3999C979.415 34.8623 979.237 35.3908 979.224 35.9854C979.197 36.4742 979.283 36.9169 979.481 37.3132C979.693 37.6964 980.023 38.0465 980.472 38.3636C980.921 38.6675 981.496 38.945 982.196 39.196C982.897 39.4471 983.729 39.6717 984.694 39.8699L988.023 40.5833C990.269 41.059 992.192 41.6866 993.79 42.4661C995.389 43.2456 996.697 44.1639 997.714 45.2209C998.732 46.2647 999.478 47.4406 999.954 48.7486C1000.44 50.0567 1000.69 51.4836 1000.71 53.0295C1000.69 55.6984 1000.03 57.9577 998.705 59.8075C997.384 61.6572 995.495 63.0644 993.037 64.0289C990.593 64.9934 987.653 65.4756 984.218 65.4756C980.69 65.4756 977.612 64.9538 974.982 63.91C972.366 62.8662 970.332 61.2609 968.878 59.094C967.438 56.914 966.711 54.1261 966.698 50.7305H977.162C977.228 51.9725 977.539 53.0163 978.094 53.8619C978.649 54.7075 979.428 55.3483 980.432 55.7843C981.45 56.2203 982.659 56.4383 984.059 56.4383C985.235 56.4383 986.22 56.293 987.012 56.0023C987.805 55.7116 988.406 55.3086 988.816 54.7934C989.225 54.2781 989.437 53.6901 989.45 53.0295C989.437 52.4085 989.232 51.8668 988.836 51.4044C988.452 50.9287 987.818 50.5059 986.933 50.136C986.048 49.7528 984.852 49.3961 983.346 49.0657L979.303 48.1937C975.709 47.4142 972.875 46.1128 970.801 44.2894C968.739 42.4529 967.715 39.9491 967.729 36.7781C967.715 34.2017 968.403 31.949 969.79 30.0199C971.19 28.0777 973.126 26.5649 975.597 25.4815C978.081 24.398 980.928 23.8563 984.139 23.8563C987.415 23.8563 990.249 24.4046 992.641 25.5013C995.032 26.5979 996.875 28.1438 998.17 30.1389C999.478 32.1207 1000.14 34.4395 1000.15 37.0952H989.609ZM1015.92 24.4112V65H1004.9V24.4112H1015.92ZM1020.03 33.29V24.4112H1055.31V33.29H1043.1V65H1032.24V33.29H1020.03ZM1059.45 65V24.4112H1088.71V33.29H1070.47V40.2662H1087.2V49.145H1070.47V56.1212H1088.63V65H1059.45ZM1109.79 65H1094.17V24.4112H1109.63C1113.81 24.4112 1117.41 25.2238 1120.45 26.8489C1123.5 28.4609 1125.86 30.7863 1127.51 33.8251C1129.17 36.8508 1130 40.4776 1130 44.7056C1130 48.9336 1129.18 52.5671 1127.53 55.6059C1125.88 58.6316 1123.54 60.957 1120.51 62.5821C1117.49 64.194 1113.91 65 1109.79 65ZM1105.19 55.6456H1109.39C1111.4 55.6456 1113.11 55.3219 1114.53 54.6744C1115.95 54.027 1117.04 52.9106 1117.78 51.3251C1118.53 49.7396 1118.91 47.5331 1118.91 44.7056C1118.91 41.8781 1118.52 39.6717 1117.76 38.0862C1117 36.5007 1115.89 35.3842 1114.43 34.7368C1112.97 34.0894 1111.19 33.7657 1109.08 33.7657H1105.19V55.6456Z" fill="#02B873"/>
<rect y="79" width="361" height="66" rx="33" fill="#02B873"/>
<path d="M30.6161 132.5V91.9109H48.2153C51.307 91.9109 53.9033 92.3271 56.0041 93.1595C58.1181 93.9919 59.7102 95.1678 60.7805 96.6873C61.8639 98.2067 62.4056 99.997 62.4056 102.058C62.4056 103.551 62.0753 104.912 61.4147 106.141C60.7672 107.37 59.8556 108.4 58.6796 109.233C57.5037 110.052 56.1296 110.62 54.5573 110.937V111.333C56.3014 111.399 57.8869 111.842 59.3139 112.661C60.7408 113.467 61.8771 114.584 62.7227 116.011C63.5683 117.424 63.9911 119.089 63.9911 121.005C63.9911 123.225 63.4098 125.2 62.247 126.931C61.0976 128.662 59.4592 130.023 57.332 131.014C55.2047 132.005 52.6679 132.5 49.7215 132.5H30.6161ZM41.6354 123.7H46.7883C48.6381 123.7 50.0254 123.357 50.9503 122.67C51.8752 121.97 52.3376 120.939 52.3376 119.578C52.3376 118.627 52.1196 117.821 51.6836 117.16C51.2476 116.5 50.6266 115.997 49.8206 115.654C49.0278 115.31 48.0699 115.139 46.9469 115.139H41.6354V123.7ZM41.6354 108.321H46.1541C47.1186 108.321 47.9708 108.169 48.7107 107.865C49.4506 107.561 50.0254 107.125 50.435 106.557C50.8578 105.976 51.0692 105.269 51.0692 104.436C51.0692 103.181 50.62 102.223 49.7215 101.563C48.8231 100.889 47.6868 100.552 46.3127 100.552H41.6354V108.321ZM65.6725 91.9109H77.9603L85.8878 108.4H86.2049L94.1325 91.9109H106.42L91.5164 119.737V132.5H80.5763V119.737L65.6725 91.9109ZM120.015 91.9109H133.729L143.163 114.901H143.639L153.072 91.9109H166.787V132.5H156.006V109.034H155.689L146.651 132.183H140.151L131.113 108.876H130.796V132.5H120.015V91.9109ZM210.772 112.205C210.772 116.724 209.893 120.536 208.136 123.641C206.379 126.733 204.007 129.078 201.021 130.677C198.035 132.262 194.705 133.055 191.032 133.055C187.333 133.055 183.99 132.256 181.004 130.657C178.031 129.045 175.666 126.693 173.909 123.601C172.165 120.496 171.293 116.698 171.293 112.205C171.293 107.687 172.165 103.882 173.909 100.79C175.666 97.6848 178.031 95.3396 181.004 93.7541C183.99 92.1553 187.333 91.356 191.032 91.356C194.705 91.356 198.035 92.1553 201.021 93.7541C204.007 95.3396 206.379 97.6848 208.136 100.79C209.893 103.882 210.772 107.687 210.772 112.205ZM199.436 112.205C199.436 109.774 199.112 107.726 198.464 106.062C197.83 104.384 196.886 103.115 195.63 102.256C194.388 101.384 192.856 100.948 191.032 100.948C189.209 100.948 187.67 101.384 186.415 102.256C185.173 103.115 184.228 104.384 183.58 106.062C182.946 107.726 182.629 109.774 182.629 112.205C182.629 114.637 182.946 116.691 183.58 118.369C184.228 120.034 185.173 121.302 186.415 122.174C187.67 123.033 189.209 123.463 191.032 123.463C192.856 123.463 194.388 123.033 195.63 122.174C196.886 121.302 197.83 120.034 198.464 118.369C199.112 116.691 199.436 114.637 199.436 112.205ZM250.431 91.9109V132.5H241.235L226.569 111.175H226.332V132.5H215.312V91.9109H224.667L239.095 113.157H239.412V91.9109H250.431ZM253.976 100.79V91.9109H289.253V100.79H277.045V132.5H266.184V100.79H253.976ZM292.842 132.5V91.9109H303.862V107.766H318.448V91.9109H329.468V132.5H318.448V116.645H303.862V132.5H292.842Z" fill="white"/>
<rect x="369" y="79" width="95" height="66" rx="33" fill="#02B873"/>
<path d="M412.855 133.134C409.948 133.134 407.445 132.619 405.344 131.588C403.243 130.558 401.631 129.177 400.508 127.446C399.385 125.715 398.823 123.806 398.823 121.719C398.823 120.199 399.114 118.858 399.695 117.695C400.277 116.519 401.089 115.443 402.133 114.465C403.177 113.487 404.399 112.523 405.8 111.571L414.996 105.863C415.92 105.282 416.548 104.681 416.878 104.06C417.209 103.426 417.374 102.864 417.374 102.375C417.374 101.728 417.136 101.153 416.66 100.651C416.185 100.149 415.445 99.9045 414.441 99.9177C413.82 99.9177 413.285 100.037 412.835 100.274C412.386 100.499 412.036 100.816 411.785 101.226C411.547 101.635 411.428 102.124 411.428 102.692C411.428 103.472 411.653 104.271 412.102 105.09C412.551 105.896 413.166 106.768 413.945 107.707C414.725 108.645 415.603 109.695 416.581 110.858L436.241 132.5H425.301L408.812 115.059C408.006 114.201 407.114 113.15 406.137 111.908C405.159 110.653 404.313 109.239 403.6 107.667C402.899 106.095 402.549 104.384 402.549 102.534C402.549 100.473 403.045 98.5899 404.036 96.8854C405.027 95.181 406.414 93.8201 408.198 92.8028C409.981 91.7854 412.062 91.2767 414.441 91.2767C416.713 91.2767 418.669 91.7457 420.307 92.6838C421.959 93.6219 423.227 94.8705 424.112 96.4296C425.011 97.9887 425.46 99.7063 425.46 101.583C425.46 103.472 424.991 105.236 424.053 106.874C423.128 108.513 421.8 109.946 420.069 111.175L411.666 117.121C411.019 117.57 410.457 118.085 409.981 118.666C409.519 119.248 409.288 120.001 409.288 120.926C409.288 121.692 409.466 122.346 409.823 122.888C410.18 123.43 410.682 123.846 411.329 124.136C411.99 124.427 412.763 124.572 413.648 124.572C414.996 124.572 416.343 124.249 417.691 123.601C419.052 122.941 420.294 122.022 421.417 120.846C422.54 119.657 423.438 118.257 424.112 116.645C424.799 115.02 425.143 113.249 425.143 111.333H433.784C433.784 113.685 433.539 115.951 433.051 118.131C432.562 120.311 431.776 122.306 430.692 124.117C429.609 125.927 428.182 127.453 426.411 128.695C425.856 128.972 425.315 129.236 424.786 129.488C424.258 129.739 423.716 130.003 423.161 130.28C421.536 131.324 419.838 132.064 418.067 132.5C416.297 132.923 414.56 133.134 412.855 133.134Z" fill="white"/>
<rect x="472" y="79" width="303" height="66" rx="33" fill="#02B873"/>
<path d="M502.616 132.5V91.9109H520.215C523.307 91.9109 525.903 92.3271 528.004 93.1595C530.118 93.9919 531.71 95.1678 532.78 96.6873C533.864 98.2067 534.406 99.997 534.406 102.058C534.406 103.551 534.075 104.912 533.415 106.141C532.767 107.37 531.856 108.4 530.68 109.233C529.504 110.052 528.13 110.62 526.557 110.937V111.333C528.301 111.399 529.887 111.842 531.314 112.661C532.741 113.467 533.877 114.584 534.723 116.011C535.568 117.424 535.991 119.089 535.991 121.005C535.991 123.225 535.41 125.2 534.247 126.931C533.098 128.662 531.459 130.023 529.332 131.014C527.205 132.005 524.668 132.5 521.722 132.5H502.616ZM513.635 123.7H518.788C520.638 123.7 522.025 123.357 522.95 122.67C523.875 121.97 524.338 120.939 524.338 119.578C524.338 118.627 524.12 117.821 523.684 117.16C523.248 116.5 522.627 115.997 521.821 115.654C521.028 115.31 520.07 115.139 518.947 115.139H513.635V123.7ZM513.635 108.321H518.154C519.119 108.321 519.971 108.169 520.711 107.865C521.451 107.561 522.025 107.125 522.435 106.557C522.858 105.976 523.069 105.269 523.069 104.436C523.069 103.181 522.62 102.223 521.722 101.563C520.823 100.889 519.687 100.552 518.313 100.552H513.635V108.321ZM537.673 91.9109H549.96L557.888 108.4H558.205L566.132 91.9109H578.42L563.516 119.737V132.5H552.576V119.737L537.673 91.9109ZM590.35 91.9109H602.637L610.565 108.4H610.882L618.81 91.9109H631.097L616.194 119.737V132.5H605.254V119.737L590.35 91.9109ZM634.131 132.5V91.9109H663.384V100.79H645.151V107.766H661.878V116.645H645.151V123.621H663.305V132.5H634.131ZM678.835 132.5H666.943L680.341 91.9109H695.403L708.801 132.5H696.91L688.031 103.089H687.714L678.835 132.5ZM676.615 116.486H698.971V124.731H676.615V116.486ZM712.152 132.5V91.9109H729.672C732.685 91.9109 735.32 92.4592 737.58 93.5559C739.839 94.6525 741.596 96.2314 742.852 98.2926C744.107 100.354 744.734 102.825 744.734 105.705C744.734 108.612 744.087 111.063 742.792 113.058C741.511 115.053 739.707 116.559 737.382 117.576C735.069 118.594 732.367 119.102 729.276 119.102H718.811V110.541H727.056C728.351 110.541 729.454 110.382 730.366 110.065C731.291 109.735 731.997 109.213 732.486 108.499C732.988 107.786 733.239 106.854 733.239 105.705C733.239 104.542 732.988 103.597 732.486 102.871C731.997 102.131 731.291 101.589 730.366 101.246C729.454 100.889 728.351 100.71 727.056 100.71H723.171V132.5H712.152ZM735.935 113.87L746.082 132.5H734.111L724.202 113.87H735.935Z" fill="white"/>
</svg>
