<svg width="341" height="44" viewBox="0 0 341 44" fill="none" xmlns="http://www.w3.org/2000/svg">
<rect width="341" height="43.63" rx="21.815" fill="#685BC8"/>
<path d="M137.797 21.6063C137.797 23.7428 137.387 25.5538 136.565 27.0393C135.743 28.5247 134.631 29.653 133.227 30.4242C131.83 31.1953 130.263 31.5809 128.525 31.5809C126.78 31.5809 125.209 31.1922 123.812 30.4147C122.415 29.6372 121.306 28.5089 120.484 27.0298C119.669 25.5443 119.261 23.7365 119.261 21.6063C119.261 19.4698 119.669 17.6589 120.484 16.1734C121.306 14.688 122.415 13.5597 123.812 12.7885C125.209 12.0173 126.78 11.6318 128.525 11.6318C130.263 11.6318 131.83 12.0173 133.227 12.7885C134.631 13.5597 135.743 14.688 136.565 16.1734C137.387 17.6589 137.797 19.4698 137.797 21.6063ZM133 21.6063C133 20.3421 132.82 19.2739 132.459 18.4016C132.105 17.5293 131.593 16.8687 130.923 16.4199C130.26 15.9711 129.46 15.7467 128.525 15.7467C127.595 15.7467 126.796 15.9711 126.126 16.4199C125.456 16.8687 124.94 17.5293 124.58 18.4016C124.226 19.2739 124.049 20.3421 124.049 21.6063C124.049 22.8705 124.226 23.9388 124.58 24.8111C124.94 25.6834 125.456 26.3439 126.126 26.7927C126.796 27.2415 127.595 27.4659 128.525 27.4659C129.46 27.4659 130.26 27.2415 130.923 26.7927C131.593 26.3439 132.105 25.6834 132.459 24.8111C132.82 23.9388 133 22.8705 133 21.6063ZM140.538 31.3154V11.8972H153.793V15.7088H145.231V19.6911H152.949V23.5121H145.231V31.3154H140.538ZM156.156 31.3154V11.8972H169.411V15.7088H160.849V19.6911H168.567V23.5121H160.849V31.3154H156.156ZM171.775 31.3154V11.8972H185.314V15.7088H176.468V19.6911H184.622V23.5121H176.468V27.5039H185.314V31.3154H171.775ZM188.253 31.3154V11.8972H196.275C197.729 11.8972 198.983 12.1596 200.039 12.6842C201.101 13.2025 201.919 13.9484 202.495 14.9219C203.07 15.889 203.358 17.0362 203.358 18.3637C203.358 19.71 203.064 20.8541 202.476 21.796C201.888 22.7315 201.054 23.4458 199.973 23.9388C198.892 24.4255 197.612 24.6689 196.133 24.6689H191.06V20.9711H195.26C195.968 20.9711 196.559 20.8794 197.033 20.6961C197.514 20.5065 197.877 20.222 198.124 19.8428C198.37 19.4572 198.493 18.9642 198.493 18.3637C198.493 17.7632 198.37 17.267 198.124 16.8751C197.877 16.4768 197.514 16.1797 197.033 15.9838C196.553 15.7815 195.962 15.6804 195.26 15.6804H192.947V31.3154H188.253ZM199.186 22.4407L204.021 31.3154H198.901L194.16 22.4407H199.186ZM216.428 17.7189C216.365 17.0236 216.083 16.4831 215.584 16.0976C215.091 15.7057 214.386 15.5097 213.47 15.5097C212.863 15.5097 212.357 15.5887 211.953 15.7467C211.548 15.9048 211.245 16.1229 211.042 16.401C210.84 16.6728 210.736 16.9857 210.729 17.3396C210.717 17.6304 210.774 17.8864 210.9 18.1077C211.033 18.3289 211.222 18.5248 211.469 18.6955C211.722 18.8599 212.025 19.0052 212.379 19.1317C212.733 19.2581 213.131 19.3687 213.574 19.4635L215.243 19.8428C216.203 20.0514 217.05 20.3295 217.784 20.6771C218.523 21.0248 219.143 21.4388 219.642 21.9192C220.148 22.3996 220.53 22.9527 220.789 23.5785C221.048 24.2043 221.181 24.9059 221.188 25.6834C221.181 26.9097 220.871 27.9621 220.258 28.8407C219.645 29.7194 218.763 30.3926 217.613 30.8603C216.469 31.3281 215.088 31.5619 213.47 31.5619C211.845 31.5619 210.429 31.3186 209.222 30.8319C208.015 30.3452 207.076 29.6056 206.406 28.6132C205.736 27.6208 205.391 26.3661 205.372 24.849H209.867C209.905 25.4748 210.072 25.9963 210.369 26.4135C210.666 26.8307 211.074 27.1467 211.592 27.3616C212.117 27.5765 212.724 27.684 213.413 27.684C214.045 27.684 214.582 27.5987 215.025 27.428C215.473 27.2573 215.818 27.0203 216.058 26.7169C216.298 26.4135 216.421 26.0658 216.428 25.6739C216.421 25.3073 216.308 24.9944 216.086 24.7352C215.865 24.4698 215.524 24.2422 215.062 24.0526C214.607 23.8566 214.026 23.6765 213.318 23.5121L211.289 23.038C209.607 22.6525 208.283 22.0298 207.316 21.1702C206.349 20.3042 205.869 19.1348 205.875 17.662C205.869 16.461 206.191 15.4086 206.842 14.5047C207.493 13.6008 208.394 12.896 209.544 12.3903C210.695 11.8846 212.006 11.6318 213.479 11.6318C214.983 11.6318 216.289 11.8878 217.395 12.3998C218.507 12.9054 219.37 13.6166 219.983 14.5331C220.597 15.4497 220.909 16.5116 220.922 17.7189H216.428Z" fill="white"/>
</svg>
