<svg width="342" height="44" viewBox="0 0 342 44" fill="none" xmlns="http://www.w3.org/2000/svg">
<rect x="0.827148" y="0.0400391" width="341" height="43.63" rx="21.815" fill="#685BC8"/>
<path d="M114.297 31.3555V11.9373H122.318C123.772 11.9373 125.027 12.2217 126.082 12.7906C127.144 13.3532 127.963 14.1402 128.538 15.1515C129.113 16.1566 129.401 17.326 129.401 18.6597C129.401 19.9998 129.107 21.1723 128.519 22.1773C127.938 23.1761 127.106 23.9504 126.025 24.5003C124.945 25.0502 123.661 25.3252 122.176 25.3252H117.227V21.6274H121.304C122.012 21.6274 122.603 21.5042 123.077 21.2576C123.557 21.0111 123.921 20.6666 124.167 20.2241C124.414 19.7754 124.537 19.2539 124.537 18.6597C124.537 18.0592 124.414 17.5409 124.167 17.1047C123.921 16.6623 123.557 16.3209 123.077 16.0807C122.596 15.8405 122.005 15.7204 121.304 15.7204H118.99V31.3555H114.297ZM131.714 31.3555V11.9373H136.408V27.5439H144.486V31.3555H131.714ZM151.377 31.3555H146.333L152.884 11.9373H159.133L165.684 31.3555H160.64L156.08 16.8298H155.928L151.377 31.3555ZM150.704 23.7134H161.247V27.2784H150.704V23.7134ZM177.671 17.7589C177.608 17.0636 177.327 16.5232 176.828 16.1376C176.334 15.7457 175.63 15.5498 174.713 15.5498C174.106 15.5498 173.601 15.6288 173.196 15.7868C172.792 15.9448 172.488 16.1629 172.286 16.441C172.084 16.7128 171.979 17.0257 171.973 17.3797C171.96 17.6705 172.017 17.9265 172.144 18.1477C172.276 18.3689 172.466 18.5649 172.713 18.7355C172.965 18.8999 173.269 19.0453 173.623 19.1717C173.977 19.2981 174.375 19.4087 174.817 19.5036L176.486 19.8828C177.447 20.0914 178.294 20.3695 179.027 20.7172C179.767 21.0648 180.386 21.4789 180.886 21.9593C181.391 22.4397 181.774 22.9928 182.033 23.6185C182.292 24.2443 182.425 24.946 182.431 25.7234C182.425 26.9497 182.115 28.0022 181.502 28.8808C180.889 29.7594 180.007 30.4326 178.857 30.9004C177.712 31.3681 176.331 31.602 174.713 31.602C173.089 31.602 171.673 31.3586 170.465 30.8719C169.258 30.3852 168.319 29.6456 167.649 28.6532C166.979 27.6608 166.635 26.4061 166.616 24.8891H171.11C171.148 25.5148 171.316 26.0363 171.613 26.4535C171.91 26.8707 172.317 27.1868 172.836 27.4017C173.36 27.6166 173.967 27.724 174.656 27.724C175.288 27.724 175.826 27.6387 176.268 27.468C176.717 27.2974 177.061 27.0603 177.302 26.7569C177.542 26.4535 177.665 26.1059 177.671 25.714C177.665 25.3473 177.551 25.0344 177.33 24.7753C177.109 24.5098 176.767 24.2822 176.306 24.0926C175.851 23.8967 175.269 23.7165 174.561 23.5522L172.532 23.0781C170.851 22.6925 169.527 22.0699 168.56 21.2102C167.592 20.3442 167.112 19.1749 167.118 17.7021C167.112 16.5011 167.434 15.4486 168.086 14.5447C168.737 13.6408 169.637 12.936 170.788 12.4303C171.938 11.9246 173.25 11.6718 174.723 11.6718C176.227 11.6718 177.532 11.9278 178.638 12.4398C179.751 12.9455 180.614 13.6566 181.227 14.5732C181.84 15.4897 182.153 16.5516 182.166 17.7589H177.671ZM184.166 15.7489V11.9373H200.579V15.7489H194.691V31.3555H190.064V15.7489H184.166ZM207.564 11.9373V31.3555H202.871V11.9373H207.564ZM228.137 18.9726H223.396C223.333 18.4859 223.203 18.0466 223.007 17.6547C222.811 17.2627 222.552 16.9277 222.23 16.6496C221.907 16.3715 221.525 16.1597 221.083 16.0143C220.646 15.8626 220.163 15.7868 219.632 15.7868C218.69 15.7868 217.878 16.0175 217.195 16.4789C216.519 16.9404 215.997 17.6072 215.631 18.4795C215.27 19.3518 215.09 20.4075 215.09 21.6464C215.09 22.9359 215.274 24.0168 215.64 24.8891C216.013 25.755 216.535 26.4093 217.205 26.8517C217.881 27.2879 218.681 27.506 219.603 27.506C220.122 27.506 220.593 27.4396 221.016 27.3069C221.446 27.1741 221.822 26.9813 222.144 26.7285C222.473 26.4693 222.742 26.1564 222.95 25.7898C223.165 25.4169 223.314 24.9965 223.396 24.5288L228.137 24.5572C228.055 25.4169 227.805 26.2639 227.388 27.0983C226.977 27.9326 226.411 28.6943 225.691 29.3833C224.97 30.066 224.091 30.6096 223.055 31.0141C222.024 31.4187 220.842 31.621 219.509 31.621C217.751 31.621 216.177 31.2354 214.787 30.4642C213.403 29.6867 212.309 28.5553 211.506 27.0698C210.703 25.5844 210.302 23.7766 210.302 21.6464C210.302 19.5099 210.71 17.6989 211.525 16.2135C212.341 14.728 213.444 13.5997 214.834 12.8286C216.225 12.0574 217.783 11.6718 219.509 11.6718C220.684 11.6718 221.772 11.8361 222.77 12.1648C223.769 12.4872 224.648 12.9613 225.406 13.5871C226.165 14.2065 226.781 14.9682 227.255 15.8721C227.729 16.776 228.023 17.8095 228.137 18.9726Z" fill="white"/>
</svg>
