<svg width="231" height="231" viewBox="0 0 231 231" fill="none" xmlns="http://www.w3.org/2000/svg">
<rect width="230.77" height="230.767" rx="15" fill="#02B873"/>
<rect width="230.77" height="230.767" rx="15" fill="#02B873"/>
<path d="M62.7661 69.4221C75.7149 67.6097 80.1744 71.7536 86.3911 77.4796C92.3758 83.0041 99.8001 89.8808 116.345 93.1327C118.446 93.5359 120.546 93.7374 122.619 93.7374C135.855 93.7374 148.258 85.7084 153.666 73.7675C159.046 78.0254 163.622 83.0041 166.76 88.6732C167.277 89.6221 168.256 90.1413 169.293 90.1413C169.753 90.1413 170.242 90.0253 170.673 89.7666C172.054 88.9888 172.573 87.2336 171.795 85.8529C167.91 78.8318 162.243 72.8471 155.682 67.8684C155.739 67.5812 155.827 67.3226 155.884 67.062C157.696 58.2856 155.969 49.3646 151.05 41.8833C146.13 34.4019 138.59 29.3091 129.813 27.4968C83.1696 17.8855 60.0048 64.8465 59.7747 65.3353C59.3144 66.2842 59.4285 67.4367 60.0333 68.2696C60.6647 69.133 61.7011 69.5932 62.7661 69.4221ZM128.661 33.1354C135.912 34.632 142.155 38.8614 146.242 45.0477C150.011 50.7738 151.479 57.5648 150.5 64.2988C139.854 57.5648 127.508 53.2784 116.144 51.5801L108.489 43.9257C107.367 42.8037 105.555 42.8037 104.433 43.9257C103.311 45.0477 103.311 46.8601 104.433 47.9821L107.196 50.7453C99.8001 50.5437 93.2107 51.6087 88.3765 54.0257C86.9673 54.7446 86.3911 56.4713 87.0814 57.8824C87.8003 59.2916 89.5271 59.8963 90.9381 59.1775C99.7716 54.7465 116.433 55.9541 132.316 61.9407L127.425 66.8319C126.303 67.9539 126.303 69.7663 127.425 70.8883C128.001 71.4645 128.72 71.7231 129.467 71.7231C130.214 71.7231 130.935 71.436 131.509 70.8883L138.07 64.3274C141.811 66.0541 145.466 68.0395 148.889 70.2835C144.055 82.3975 130.675 90.0519 117.439 87.4618C102.504 84.5274 96.0005 78.5123 90.2744 73.2464C84.7214 68.1251 79.4555 63.232 68.3761 63.232C68.089 63.232 67.7999 63.232 67.5127 63.232C74.2753 52.24 94.3023 26.0267 128.659 33.1049L128.661 33.1354Z" fill="white"/>
<path d="M92.9217 168.148C94.7056 160.207 96.9496 150.337 91.4821 134.395C86.3893 119.518 71.1376 110.252 56.0322 111.749C57.0097 104.958 59.054 98.5416 62.3915 92.9582C63.1979 91.6061 62.7662 89.8223 61.4141 89.0159C60.0334 88.1811 58.2781 88.6413 57.4718 89.9934C53.3565 96.87 50.9679 104.755 49.9619 112.957C49.7033 113.042 49.4161 113.101 49.1556 113.187C31.6312 119 22.1055 138.021 27.9191 155.546C40.8964 194.622 81.6712 197.355 92.8647 197.355C94.62 197.355 95.6564 197.298 95.7135 197.269C96.7784 197.184 97.6989 196.522 98.1305 195.571C98.5622 194.594 98.4177 193.47 97.7559 192.637C89.7269 182.335 91.0505 176.379 92.9217 168.148ZM33.3865 153.703C28.7254 139.689 35.9196 124.612 49.4713 119.202C48.9825 131.776 51.4281 144.611 55.629 155.314L52.8373 165.76C52.4341 167.285 53.3261 168.867 54.8798 169.27C55.1384 169.327 55.3685 169.356 55.6271 169.356C56.8937 169.356 58.0727 168.521 58.4189 167.226L59.4268 163.457C62.9659 169.961 67.1668 175.139 71.6852 178.104C72.174 178.42 72.7217 178.593 73.2675 178.593C74.1879 178.593 75.1083 178.132 75.6846 177.298C76.5479 175.974 76.2018 174.19 74.8782 173.298C66.6495 167.859 59.3393 152.84 56.578 136.093L63.253 137.877C63.5117 137.934 63.7418 137.962 64.0004 137.962C65.2669 137.962 66.446 137.128 66.7921 135.832C67.1953 134.307 66.3034 132.725 64.7497 132.322L55.7717 129.905C55.397 125.789 55.2829 121.617 55.5416 117.532C56.8366 117.359 58.1032 117.245 59.3982 117.245C70.9949 117.245 82.217 124.726 86.1307 136.207C91.0505 150.624 89.124 159.227 87.3973 166.853C85.699 174.42 84.0597 181.586 90.13 191.572C77.2383 191.226 44.5211 186.968 33.4721 153.674L33.3865 153.703Z" fill="white"/>
<path d="M192.022 100.211C191.417 99.3476 190.383 98.8588 189.346 98.9729C188.282 99.0889 187.39 99.7793 186.986 100.757C182.095 112.871 176.253 114.683 168.196 117.188C160.427 119.605 150.759 122.598 139.679 135.317C129.321 147.172 128.946 165.012 137.779 177.328C131.622 179.773 125.262 181.241 119.019 181.241C118.789 181.241 118.559 181.241 118.357 181.241H118.3C116.746 181.241 115.451 182.508 115.423 184.062C115.423 185.644 116.661 186.967 118.243 186.996H119.049C126.789 186.996 134.529 185.125 141.897 182.017C142.098 182.219 142.271 182.42 142.501 182.622C148.861 188.291 156.831 191.052 164.744 191.052C173.981 191.052 183.189 187.255 189.807 179.83C221.459 144.236 192.368 100.7 192.051 100.268L192.022 100.211ZM185.461 175.975C175.648 186.996 158.987 188.32 147.564 179.284C158.7 173.442 168.599 164.898 175.763 155.891L186.209 153.1C187.734 152.697 188.654 151.114 188.251 149.589C187.848 148.064 186.266 147.143 184.741 147.547L180.971 148.555C184.857 142.252 187.215 136.009 187.532 130.627C187.618 129.045 186.41 127.664 184.828 127.577C183.217 127.432 181.865 128.699 181.778 130.281C181.173 140.151 171.822 153.963 158.7 164.753L156.916 158.078C156.513 156.553 154.931 155.633 153.406 156.036C151.881 156.439 150.96 158.021 151.363 159.547L153.752 168.525C150.386 170.913 146.847 173.072 143.163 174.912C135.106 164.668 135.165 149.245 144.027 139.116C154.041 127.636 162.471 125.017 169.924 122.714C177.32 120.413 184.341 118.226 189.951 108.038C195.964 119.434 208.482 150.137 185.492 176.004L185.461 175.975Z" fill="white"/>
</svg>
