<svg width="65" height="41" viewBox="0 0 65 41" fill="none" xmlns="http://www.w3.org/2000/svg">
<path d="M18.3771 14.1677V11.0364H33.1305V14.1677H27.6309V29H23.8767V14.1677H18.3771ZM39.6234 29.2631C38.261 29.2631 37.0827 28.9737 36.0886 28.3948C35.1004 27.81 34.3373 26.9972 33.7993 25.9564C33.2613 24.9096 32.9923 23.6963 32.9923 22.3163C32.9923 20.9245 33.2613 19.7083 33.7993 18.6674C34.3373 17.6207 35.1004 16.8079 36.0886 16.229C37.0827 15.6442 38.261 15.3518 39.6234 15.3518C40.9859 15.3518 42.1613 15.6442 43.1495 16.229C44.1436 16.8079 44.9096 17.6207 45.4476 18.6674C45.9856 19.7083 46.2545 20.9245 46.2545 22.3163C46.2545 23.6963 45.9856 24.9096 45.4476 25.9564C44.9096 26.9972 44.1436 27.81 43.1495 28.3948C42.1613 28.9737 40.9859 29.2631 39.6234 29.2631ZM39.641 26.3686C40.2608 26.3686 40.7783 26.1932 41.1935 25.8423C41.6087 25.4856 41.9215 25.0003 42.132 24.3863C42.3484 23.7723 42.4566 23.0735 42.4566 22.2899C42.4566 21.5064 42.3484 20.8076 42.132 20.1936C41.9215 19.5796 41.6087 19.0943 41.1935 18.7376C40.7783 18.3809 40.2608 18.2025 39.641 18.2025C39.0153 18.2025 38.489 18.3809 38.0621 18.7376C37.6411 19.0943 37.3224 19.5796 37.1061 20.1936C36.8956 20.8076 36.7903 21.5064 36.7903 22.2899C36.7903 23.0735 36.8956 23.7723 37.1061 24.3863C37.3224 25.0003 37.6411 25.4856 38.0621 25.8423C38.489 26.1932 39.0153 26.3686 39.641 26.3686Z" fill="#02B873"/>
</svg>
