<svg width="472" height="102" viewBox="0 0 472 102" fill="none" xmlns="http://www.w3.org/2000/svg">
<rect width="472" height="102" rx="15" fill="#02B873"/>
<path d="M166.554 42.2443V35.5927H192.982V42.2443H183.836V66H175.7V42.2443H166.554ZM224.117 50.7964C224.117 54.1815 223.458 57.0372 222.142 59.3633C220.825 61.6794 219.049 63.4364 216.812 64.634C214.575 65.8218 212.08 66.4157 209.329 66.4157C206.557 66.4157 204.053 65.8169 201.816 64.6192C199.589 63.4116 197.817 61.6497 196.501 59.3336C195.194 57.0075 194.541 54.1618 194.541 50.7964C194.541 47.4112 195.194 44.5605 196.501 42.2443C197.817 39.9182 199.589 38.1613 201.816 36.9735C204.053 35.7758 206.557 35.177 209.329 35.177C212.08 35.177 214.575 35.7758 216.812 36.9735C219.049 38.1613 220.825 39.9182 222.142 42.2443C223.458 44.5605 224.117 47.4112 224.117 50.7964ZM215.624 50.7964C215.624 48.9751 215.381 47.4409 214.896 46.1937C214.421 44.9366 213.714 43.9864 212.773 43.343C211.843 42.6897 210.695 42.3631 209.329 42.3631C207.963 42.3631 206.81 42.6897 205.869 43.343C204.939 43.9864 204.231 44.9366 203.746 46.1937C203.271 47.4409 203.033 48.9751 203.033 50.7964C203.033 52.6176 203.271 54.1568 203.746 55.4139C204.231 56.661 204.939 57.6113 205.869 58.2646C206.81 58.9079 207.963 59.2296 209.329 59.2296C210.695 59.2296 211.843 58.9079 212.773 58.2646C213.714 57.6113 214.421 56.661 214.896 55.4139C215.381 54.1568 215.624 52.6176 215.624 50.7964ZM225.676 42.2443V35.5927H252.104V42.2443H242.958V66H234.821V42.2443H225.676ZM259.271 66H250.363L260.4 35.5927H271.684L281.72 66H272.812L266.16 43.9666H265.923L259.271 66ZM257.608 54.0034H274.356V60.1799H257.608V54.0034ZM284.649 66V35.5927H292.904V59.3484H305.198V66H284.649Z" fill="white"/>
</svg>
