<svg width="485" height="129" viewBox="0 0 485 129" fill="none" xmlns="http://www.w3.org/2000/svg">
<rect width="485" height="129" rx="15" fill="#02B873"/>
<path d="M173.054 55.7443V49.0927H199.482V55.7443H190.336V79.5H182.2V55.7443H173.054ZM230.617 64.2964C230.617 67.6815 229.958 70.5372 228.642 72.8633C227.325 75.1794 225.549 76.9364 223.312 78.134C221.075 79.3218 218.58 79.9157 215.829 79.9157C213.057 79.9157 210.553 79.3169 208.316 78.1192C206.089 76.9116 204.317 75.1497 203.001 72.8336C201.694 70.5075 201.041 67.6618 201.041 64.2964C201.041 60.9112 201.694 58.0605 203.001 55.7443C204.317 53.4182 206.089 51.6613 208.316 50.4735C210.553 49.2758 213.057 48.677 215.829 48.677C218.58 48.677 221.075 49.2758 223.312 50.4735C225.549 51.6613 227.325 53.4182 228.642 55.7443C229.958 58.0605 230.617 60.9112 230.617 64.2964ZM222.124 64.2964C222.124 62.4751 221.881 60.9409 221.396 59.6937C220.921 58.4366 220.214 57.4864 219.273 56.843C218.343 56.1897 217.195 55.8631 215.829 55.8631C214.463 55.8631 213.31 56.1897 212.369 56.843C211.439 57.4864 210.731 58.4366 210.246 59.6937C209.771 60.9409 209.533 62.4751 209.533 64.2964C209.533 66.1176 209.771 67.6568 210.246 68.9139C210.731 70.161 211.439 71.1113 212.369 71.7646C213.31 72.4079 214.463 72.7296 215.829 72.7296C217.195 72.7296 218.343 72.4079 219.273 71.7646C220.214 71.1113 220.921 70.161 221.396 68.9139C221.881 67.6568 222.124 66.1176 222.124 64.2964ZM232.176 55.7443V49.0927H258.604V55.7443H249.458V79.5H241.321V55.7443H232.176ZM265.771 79.5H256.863L266.9 49.0927H278.184L288.22 79.5H279.312L272.66 57.4666H272.423L265.771 79.5ZM264.108 67.5034H280.856V73.6799H264.108V67.5034ZM291.149 79.5V49.0927H299.404V72.8484H311.698V79.5H291.149Z" fill="white"/>
</svg>
