<svg width="307" height="54" viewBox="0 0 307 54" fill="none" xmlns="http://www.w3.org/2000/svg">
<rect width="307" height="54" rx="15" fill="#02B873"/>
<path d="M84.0536 18.2443V11.5927H110.482V18.2443H101.336V42H93.1995V18.2443H84.0536ZM141.617 26.7964C141.617 30.1815 140.958 33.0372 139.642 35.3633C138.325 37.6794 136.549 39.4364 134.312 40.634C132.075 41.8218 129.58 42.4157 126.829 42.4157C124.057 42.4157 121.553 41.8169 119.316 40.6192C117.089 39.4116 115.317 37.6497 114.001 35.3336C112.694 33.0075 112.041 30.1618 112.041 26.7964C112.041 23.4112 112.694 20.5605 114.001 18.2443C115.317 15.9182 117.089 14.1613 119.316 12.9735C121.553 11.7758 124.057 11.177 126.829 11.177C129.58 11.177 132.075 11.7758 134.312 12.9735C136.549 14.1613 138.325 15.9182 139.642 18.2443C140.958 20.5605 141.617 23.4112 141.617 26.7964ZM133.124 26.7964C133.124 24.9751 132.881 23.4409 132.396 22.1937C131.921 20.9366 131.214 19.9864 130.273 19.343C129.343 18.6897 128.195 18.3631 126.829 18.3631C125.463 18.3631 124.31 18.6897 123.369 19.343C122.439 19.9864 121.731 20.9366 121.246 22.1937C120.771 23.4409 120.533 24.9751 120.533 26.7964C120.533 28.6176 120.771 30.1568 121.246 31.4139C121.731 32.661 122.439 33.6113 123.369 34.2646C124.31 34.9079 125.463 35.2296 126.829 35.2296C128.195 35.2296 129.343 34.9079 130.273 34.2646C131.214 33.6113 131.921 32.661 132.396 31.4139C132.881 30.1568 133.124 28.6176 133.124 26.7964ZM143.176 18.2443V11.5927H169.604V18.2443H160.458V42H152.321V18.2443H143.176ZM176.771 42H167.863L177.9 11.5927H189.184L199.22 42H190.312L183.66 19.9666H183.423L176.771 42ZM175.108 30.0034H191.856V36.1799H175.108V30.0034ZM202.149 42V11.5927H210.404V35.3484H222.698V42H202.149Z" fill="white"/>
</svg>
