<svg width="308" height="129" viewBox="0 0 308 129" fill="none" xmlns="http://www.w3.org/2000/svg">
<rect x="0.151855" y="0.768555" width="307" height="128" rx="15" fill="#02B873"/>
<path d="M84.2055 56.0129V49.3613H110.634V56.0129H101.488V79.7686H93.3514V56.0129H84.2055ZM141.768 64.5649C141.768 67.9501 141.11 70.8057 139.794 73.1318C138.477 75.448 136.701 77.2049 134.464 78.4026C132.227 79.5904 129.732 80.1843 126.981 80.1843C124.209 80.1843 121.705 79.5854 119.468 78.3878C117.241 77.1802 115.469 75.4183 114.152 73.1021C112.846 70.776 112.193 67.9303 112.193 64.5649C112.193 61.1797 112.846 58.3291 114.152 56.0129C115.469 53.6868 117.241 51.9299 119.468 50.7421C121.705 49.5444 124.209 48.9456 126.981 48.9456C129.732 48.9456 132.227 49.5444 134.464 50.7421C136.701 51.9299 138.477 53.6868 139.794 56.0129C141.11 58.3291 141.768 61.1797 141.768 64.5649ZM133.276 64.5649C133.276 62.7436 133.033 61.2094 132.548 59.9623C132.073 58.7052 131.365 57.755 130.425 57.1116C129.495 56.4583 128.346 56.1316 126.981 56.1316C125.615 56.1316 124.461 56.4583 123.521 57.1116C122.591 57.755 121.883 58.7052 121.398 59.9623C120.923 61.2094 120.685 62.7436 120.685 64.5649C120.685 66.3862 120.923 67.9254 121.398 69.1824C121.883 70.4296 122.591 71.3798 123.521 72.0331C124.461 72.6765 125.615 72.9982 126.981 72.9982C128.346 72.9982 129.495 72.6765 130.425 72.0331C131.365 71.3798 132.073 70.4296 132.548 69.1824C133.033 67.9254 133.276 66.3862 133.276 64.5649ZM143.327 56.0129V49.3613H169.756V56.0129H160.61V79.7686H152.473V56.0129H143.327ZM176.923 79.7686H168.015L178.052 49.3613H189.335L199.372 79.7686H190.464L183.812 57.7352H183.575L176.923 79.7686ZM175.26 67.7719H192.008V73.9484H175.26V67.7719ZM202.301 79.7686V49.3613H210.556V73.117H222.85V79.7686H202.301Z" fill="white"/>
</svg>
