<svg width="298" height="42" viewBox="0 0 298 42" fill="none" xmlns="http://www.w3.org/2000/svg">
<path d="M17.8771 15.1179V11.9866H32.6305V15.1179H27.1309V29.9502H23.3767V15.1179H17.8771ZM39.1234 30.2133C37.761 30.2133 36.5827 29.9239 35.5886 29.345C34.6004 28.7602 33.8373 27.9474 33.2993 26.9066C32.7613 25.8598 32.4923 24.6465 32.4923 23.2665C32.4923 21.8747 32.7613 20.6585 33.2993 19.6176C33.8373 18.5709 34.6004 17.7581 35.5886 17.1792C36.5827 16.5944 37.761 16.302 39.1234 16.302C40.4859 16.302 41.6613 16.5944 42.6495 17.1792C43.6436 17.7581 44.4096 18.5709 44.9476 19.6176C45.4856 20.6585 45.7545 21.8747 45.7545 23.2665C45.7545 24.6465 45.4856 25.8598 44.9476 26.9066C44.4096 27.9474 43.6436 28.7602 42.6495 29.345C41.6613 29.9239 40.4859 30.2133 39.1234 30.2133ZM39.141 27.3188C39.7608 27.3188 40.2783 27.1434 40.6935 26.7925C41.1087 26.4358 41.4215 25.9505 41.632 25.3365C41.8484 24.7225 41.9566 24.0237 41.9566 23.2401C41.9566 22.4566 41.8484 21.7578 41.632 21.1438C41.4215 20.5298 41.1087 20.0445 40.6935 19.6878C40.2783 19.3311 39.7608 19.1527 39.141 19.1527C38.5153 19.1527 37.989 19.3311 37.5621 19.6878C37.1411 20.0445 36.8224 20.5298 36.6061 21.1438C36.3956 21.7578 36.2903 22.4566 36.2903 23.2401C36.2903 24.0237 36.3956 24.7225 36.6061 25.3365C36.8224 25.9505 37.1411 26.4358 37.5621 26.7925C37.989 27.1434 38.5153 27.3188 39.141 27.3188ZM55.3503 16.4775V19.2843H47.2369V16.4775H55.3503ZM49.0789 13.2496H52.8154V25.8101C52.8154 26.1551 52.8681 26.4241 52.9733 26.6171C53.0786 26.8042 53.2248 26.9358 53.4119 27.0118C53.6049 27.0878 53.8271 27.1258 54.0785 27.1258C54.2539 27.1258 54.4294 27.1112 54.6048 27.082C54.7802 27.0469 54.9147 27.0206 55.0083 27.003L55.5959 29.7835C55.4088 29.842 55.1457 29.9093 54.8065 29.9853C54.4674 30.0671 54.0551 30.1169 53.5698 30.1344C52.6693 30.1695 51.8798 30.0496 51.2015 29.7748C50.5291 29.4999 50.0057 29.0731 49.6315 28.4942C49.2572 27.9153 49.073 27.1843 49.0789 26.3013V13.2496ZM61.6262 30.2046C60.7666 30.2046 60.0006 30.0555 59.3281 29.7572C58.6557 29.4532 58.1235 29.0058 57.7318 28.4152C57.3458 27.8188 57.1529 27.0761 57.1529 26.1873C57.1529 25.4388 57.2903 24.8102 57.5651 24.3015C57.8399 23.7927 58.2142 23.3834 58.6878 23.0735C59.1615 22.7636 59.6995 22.5297 60.3017 22.3718C60.9099 22.2139 61.5473 22.1028 62.2139 22.0385C62.9975 21.9566 63.629 21.8806 64.1085 21.8104C64.588 21.7344 64.9359 21.6233 65.1523 21.4771C65.3686 21.3309 65.4768 21.1146 65.4768 20.828V20.7754C65.4768 20.2199 65.3014 19.7901 64.9505 19.486C64.6055 19.182 64.1143 19.0299 63.477 19.0299C62.8045 19.0299 62.2694 19.179 61.8718 19.4773C61.4742 19.7696 61.211 20.138 61.0824 20.5824L57.6265 20.3018C57.8019 19.4831 58.1469 18.7755 58.6615 18.1791C59.1761 17.5768 59.8398 17.1148 60.6526 16.7932C61.4713 16.4658 62.4186 16.302 63.4945 16.302C64.243 16.302 64.9593 16.3898 65.6435 16.5652C66.3335 16.7406 66.9446 17.0125 67.4767 17.3809C68.0147 17.7493 68.4386 18.223 68.7485 18.8019C69.0584 19.3749 69.2134 20.062 69.2134 20.8631V29.9502H65.6698V28.0819H65.5645C65.3482 28.5029 65.0587 28.8742 64.6962 29.1959C64.3336 29.5116 63.898 29.7602 63.3893 29.9414C62.8805 30.1169 62.2928 30.2046 61.6262 30.2046ZM62.6963 27.6258C63.246 27.6258 63.7313 27.5176 64.1524 27.3013C64.5734 27.0791 64.9038 26.7808 65.1435 26.4066C65.3833 26.0323 65.5031 25.6084 65.5031 25.1347V23.705C65.3862 23.781 65.2254 23.8512 65.0207 23.9155C64.8219 23.974 64.5968 24.0296 64.3453 24.0822C64.0939 24.129 63.8424 24.1728 63.591 24.2138C63.3395 24.2488 63.1115 24.281 62.9068 24.3102C62.4683 24.3746 62.0852 24.4769 61.7578 24.6172C61.4303 24.7576 61.176 24.9476 60.9947 25.1874C60.8134 25.4213 60.7228 25.7137 60.7228 26.0645C60.7228 26.5732 60.907 26.9621 61.2754 27.2311C61.6496 27.4942 62.1233 27.6258 62.6963 27.6258ZM75.8489 11.9866V29.9502H72.1123V11.9866H75.8489ZM88.2954 22.1613V29.9502H84.5588V16.4775H88.12V18.8545H88.2778C88.5761 18.0709 89.076 17.4511 89.7777 16.995C90.4794 16.533 91.3303 16.302 92.3302 16.302C93.2658 16.302 94.0815 16.5067 94.7774 16.916C95.4732 17.3254 96.0141 17.9101 96.4001 18.6703C96.786 19.4246 96.979 20.3251 96.979 21.3719V29.9502H93.2424V22.0385C93.2482 21.214 93.0377 20.5707 92.6109 20.1088C92.184 19.641 91.5963 19.4071 90.8478 19.4071C90.3449 19.4071 89.9005 19.5153 89.5146 19.7316C89.1345 19.948 88.8363 20.2637 88.6199 20.6789C88.4094 21.0883 88.3012 21.5824 88.2954 22.1613ZM108.564 24.2138V16.4775H112.3V29.9502H108.713V27.503H108.572C108.268 28.2924 107.763 28.9269 107.055 29.4064C106.353 29.8859 105.497 30.1256 104.485 30.1256C103.584 30.1256 102.792 29.921 102.108 29.5116C101.424 29.1023 100.889 28.5205 100.503 27.7661C100.123 27.0118 99.9298 26.1084 99.9239 25.0558V16.4775H103.661V24.3892C103.666 25.1845 103.88 25.8131 104.301 26.275C104.722 26.737 105.286 26.968 105.994 26.968C106.444 26.968 106.865 26.8656 107.257 26.661C107.649 26.4504 107.964 26.1405 108.204 25.7312C108.45 25.3219 108.57 24.8161 108.564 24.2138ZM115.289 29.9502V16.4775H118.85V18.8545H119.008C119.289 18.0651 119.757 17.4423 120.412 16.9862C121.066 16.5301 121.85 16.302 122.762 16.302C123.686 16.302 124.473 16.533 125.122 16.995C125.771 17.4511 126.204 18.0709 126.42 18.8545H126.56C126.835 18.0826 127.332 17.4657 128.051 17.0037C128.776 16.5359 129.633 16.302 130.621 16.302C131.879 16.302 132.899 16.7026 133.683 17.5037C134.472 18.299 134.867 19.4276 134.867 20.8894V29.9502H131.139V21.6262C131.139 20.8777 130.94 20.3164 130.542 19.9421C130.145 19.5679 129.648 19.3808 129.051 19.3808C128.373 19.3808 127.844 19.5971 127.464 20.0298C127.084 20.4567 126.894 21.021 126.894 21.7227V29.9502H123.271V21.5473C123.271 20.8865 123.081 20.3602 122.701 19.9684C122.327 19.5767 121.832 19.3808 121.218 19.3808C120.803 19.3808 120.429 19.486 120.096 19.6965C119.768 19.9012 119.508 20.1907 119.315 20.5649C119.122 20.9333 119.026 21.366 119.026 21.863V29.9502H115.289ZM137.888 29.9502V11.9866H141.625V18.7405H141.739C141.903 18.3779 142.14 18.0095 142.449 17.6353C142.765 17.2552 143.175 16.9394 143.677 16.688C144.186 16.4307 144.818 16.302 145.572 16.302C146.554 16.302 147.461 16.5593 148.291 17.0739C149.121 17.5827 149.785 18.3516 150.282 19.3808C150.779 20.4041 151.028 21.6876 151.028 23.2314C151.028 24.7342 150.785 26.0031 150.3 27.0381C149.82 28.0673 149.165 28.8479 148.335 29.3801C147.51 29.9063 146.587 30.1695 145.563 30.1695C144.838 30.1695 144.221 30.0496 143.712 29.8099C143.21 29.5701 142.797 29.269 142.476 28.9064C142.154 28.538 141.909 28.1667 141.739 27.7925H141.572V29.9502H137.888ZM141.546 23.2138C141.546 24.0149 141.657 24.7137 141.879 25.3102C142.102 25.9066 142.423 26.3715 142.844 26.7048C143.265 27.0323 143.777 27.196 144.379 27.196C144.987 27.196 145.502 27.0293 145.923 26.696C146.344 26.3569 146.663 25.8891 146.879 25.2926C147.101 24.6903 147.212 23.9974 147.212 23.2138C147.212 22.4361 147.104 21.7519 146.888 21.1613C146.671 20.5707 146.353 20.1088 145.932 19.7755C145.511 19.4422 144.993 19.2755 144.379 19.2755C143.771 19.2755 143.256 19.4363 142.835 19.7579C142.42 20.0796 142.102 20.5357 141.879 21.1263C141.657 21.7169 141.546 22.4127 141.546 23.2138ZM159.661 30.2133C158.275 30.2133 157.082 29.9327 156.082 29.3713C155.088 28.8041 154.322 28.003 153.784 26.968C153.246 25.9271 152.977 24.6962 152.977 23.2752C152.977 21.8894 153.246 20.6731 153.784 19.6264C154.322 18.5797 155.079 17.7639 156.056 17.1792C157.038 16.5944 158.19 16.302 159.512 16.302C160.401 16.302 161.228 16.4453 161.994 16.7318C162.766 17.0125 163.438 17.4365 164.011 18.0037C164.59 18.5709 165.041 19.2843 165.362 20.1439C165.684 20.9976 165.845 21.9975 165.845 23.1437V24.1699H154.468V21.8543H162.327C162.327 21.3163 162.21 20.8397 161.977 20.4246C161.743 20.0094 161.418 19.6848 161.003 19.4509C160.594 19.2112 160.117 19.0913 159.573 19.0913C159.006 19.0913 158.503 19.2229 158.065 19.486C157.632 19.7433 157.293 20.0912 157.047 20.5298C156.801 20.9625 156.676 21.445 156.67 21.9771V24.1787C156.67 24.8453 156.793 25.4213 157.038 25.9066C157.29 26.392 157.644 26.7662 158.1 27.0293C158.556 27.2925 159.097 27.4241 159.722 27.4241C160.138 27.4241 160.518 27.3656 160.863 27.2486C161.208 27.1317 161.503 26.9563 161.749 26.7224C161.994 26.4885 162.181 26.2019 162.31 25.8628L165.766 26.0908C165.59 26.9212 165.231 27.6463 164.687 28.2661C164.149 28.8801 163.453 29.3596 162.599 29.7046C161.751 30.0438 160.772 30.2133 159.661 30.2133ZM168.283 29.9502V16.4775H171.906V18.8282H172.046C172.292 17.992 172.704 17.3604 173.283 16.9336C173.862 16.5009 174.528 16.2845 175.283 16.2845C175.47 16.2845 175.671 16.2962 175.888 16.3196C176.104 16.343 176.294 16.3751 176.458 16.4161V19.7316C176.283 19.679 176.04 19.6322 175.73 19.5913C175.42 19.5503 175.136 19.5299 174.879 19.5299C174.329 19.5299 173.838 19.6498 173.406 19.8895C172.979 20.1234 172.64 20.4509 172.388 20.8719C172.142 21.2929 172.02 21.7783 172.02 22.3279V29.9502H168.283ZM190.194 30.2133C188.831 30.2133 187.653 29.9239 186.659 29.345C185.671 28.7602 184.908 27.9474 184.37 26.9066C183.832 25.8598 183.563 24.6465 183.563 23.2665C183.563 21.8747 183.832 20.6585 184.37 19.6176C184.908 18.5709 185.671 17.7581 186.659 17.1792C187.653 16.5944 188.831 16.302 190.194 16.302C191.556 16.302 192.732 16.5944 193.72 17.1792C194.714 17.7581 195.48 18.5709 196.018 19.6176C196.556 20.6585 196.825 21.8747 196.825 23.2665C196.825 24.6465 196.556 25.8598 196.018 26.9066C195.48 27.9474 194.714 28.7602 193.72 29.345C192.732 29.9239 191.556 30.2133 190.194 30.2133ZM190.211 27.3188C190.831 27.3188 191.349 27.1434 191.764 26.7925C192.179 26.4358 192.492 25.9505 192.702 25.3365C192.919 24.7225 193.027 24.0237 193.027 23.2401C193.027 22.4566 192.919 21.7578 192.702 21.1438C192.492 20.5298 192.179 20.0445 191.764 19.6878C191.349 19.3311 190.831 19.1527 190.211 19.1527C189.586 19.1527 189.059 19.3311 188.633 19.6878C188.212 20.0445 187.893 20.5298 187.676 21.1438C187.466 21.7578 187.361 22.4566 187.361 23.2401C187.361 24.0237 187.466 24.7225 187.676 25.3365C187.893 25.9505 188.212 26.4358 188.633 26.7925C189.059 27.1434 189.586 27.3188 190.211 27.3188ZM206.5 16.4775V19.2843H198.185V16.4775H206.5ZM200.088 29.9502V15.5039C200.088 14.5273 200.278 13.7174 200.658 13.0742C201.044 12.431 201.57 11.9485 202.237 11.6269C202.903 11.3053 203.661 11.1445 204.509 11.1445C205.082 11.1445 205.605 11.1884 206.079 11.2761C206.558 11.3638 206.915 11.4427 207.149 11.5129L206.482 14.3197C206.336 14.2729 206.155 14.2291 205.938 14.1882C205.728 14.1472 205.511 14.1268 205.289 14.1268C204.74 14.1268 204.357 14.2554 204.14 14.5127C203.924 14.7641 203.816 15.1179 203.816 15.574V29.9502H200.088ZM223.139 24.2138V16.4775H226.875V29.9502H223.288V27.503H223.148C222.844 28.2924 222.338 28.9269 221.63 29.4064C220.929 29.8859 220.072 30.1256 219.06 30.1256C218.16 30.1256 217.367 29.921 216.683 29.5116C215.999 29.1023 215.464 28.5205 215.078 27.7661C214.698 27.0118 214.505 26.1084 214.499 25.0558V16.4775H218.236V24.3892C218.242 25.1845 218.455 25.8131 218.876 26.275C219.297 26.737 219.861 26.968 220.569 26.968C221.019 26.968 221.44 26.8656 221.832 26.661C222.224 26.4504 222.539 26.1405 222.779 25.7312C223.025 25.3219 223.145 24.8161 223.139 24.2138ZM241.074 20.3193L237.653 20.5298C237.595 20.2374 237.469 19.9743 237.276 19.7404C237.083 19.5006 236.829 19.3106 236.513 19.1703C236.203 19.0241 235.832 18.951 235.399 18.951C234.82 18.951 234.332 19.0738 233.934 19.3194C233.537 19.5591 233.338 19.8807 233.338 20.2842C233.338 20.6058 233.466 20.8777 233.724 21.0999C233.981 21.3222 234.422 21.5005 235.048 21.635L237.487 22.1262C238.796 22.3952 239.773 22.8279 240.416 23.4243C241.059 24.0208 241.381 24.8044 241.381 25.7751C241.381 26.658 241.121 27.4328 240.6 28.0994C240.086 28.7661 239.378 29.2865 238.478 29.6607C237.583 30.0291 236.551 30.2133 235.381 30.2133C233.598 30.2133 232.177 29.842 231.119 29.0994C230.066 28.3509 229.449 27.3334 229.268 26.047L232.943 25.854C233.054 26.3978 233.323 26.813 233.75 27.0995C234.177 27.3802 234.724 27.5205 235.39 27.5205C236.045 27.5205 236.571 27.3948 236.969 27.1434C237.373 26.8861 237.577 26.5557 237.583 26.1522C237.577 25.8131 237.434 25.5353 237.153 25.3189C236.873 25.0967 236.44 24.9272 235.855 24.8102L233.522 24.3453C232.206 24.0822 231.227 23.6261 230.584 22.977C229.946 22.3279 229.627 21.5005 229.627 20.4947C229.627 19.6293 229.861 18.8837 230.329 18.258C230.803 17.6324 231.467 17.1499 232.32 16.8108C233.18 16.4716 234.186 16.302 235.338 16.302C237.039 16.302 238.378 16.6617 239.355 17.3809C240.337 18.1002 240.91 19.0796 241.074 20.3193ZM249.874 30.2133C248.488 30.2133 247.295 29.9327 246.295 29.3713C245.301 28.8041 244.535 28.003 243.997 26.968C243.459 25.9271 243.19 24.6962 243.19 23.2752C243.19 21.8894 243.459 20.6731 243.997 19.6264C244.535 18.5797 245.292 17.7639 246.269 17.1792C247.251 16.5944 248.403 16.302 249.725 16.302C250.614 16.302 251.441 16.4453 252.207 16.7318C252.979 17.0125 253.651 17.4365 254.224 18.0037C254.803 18.5709 255.254 19.2843 255.575 20.1439C255.897 20.9976 256.058 21.9975 256.058 23.1437V24.1699H244.681V21.8543H252.54C252.54 21.3163 252.423 20.8397 252.189 20.4246C251.956 20.0094 251.631 19.6848 251.216 19.4509C250.807 19.2112 250.33 19.0913 249.786 19.0913C249.219 19.0913 248.716 19.2229 248.277 19.486C247.845 19.7433 247.506 20.0912 247.26 20.5298C247.014 20.9625 246.889 21.445 246.883 21.9771V24.1787C246.883 24.8453 247.006 25.4213 247.251 25.9066C247.503 26.392 247.856 26.7662 248.313 27.0293C248.769 27.2925 249.31 27.4241 249.935 27.4241C250.35 27.4241 250.73 27.3656 251.075 27.2486C251.42 27.1317 251.716 26.9563 251.961 26.7224C252.207 26.4885 252.394 26.2019 252.523 25.8628L255.979 26.0908C255.803 26.9212 255.444 27.6463 254.9 28.2661C254.362 28.8801 253.666 29.3596 252.812 29.7046C251.964 30.0438 250.985 30.2133 249.874 30.2133ZM258.496 29.9502V16.4775H262.119V18.8282H262.259C262.505 17.992 262.917 17.3604 263.496 16.9336C264.075 16.5009 264.741 16.2845 265.496 16.2845C265.683 16.2845 265.884 16.2962 266.101 16.3196C266.317 16.343 266.507 16.3751 266.671 16.4161V19.7316C266.495 19.679 266.253 19.6322 265.943 19.5913C265.633 19.5503 265.349 19.5299 265.092 19.5299C264.542 19.5299 264.051 19.6498 263.618 19.8895C263.192 20.1234 262.852 20.4509 262.601 20.8719C262.355 21.2929 262.233 21.7783 262.233 22.3279V29.9502H258.496ZM279.812 20.3193L276.392 20.5298C276.333 20.2374 276.207 19.9743 276.015 19.7404C275.822 19.5006 275.567 19.3106 275.251 19.1703C274.941 19.0241 274.57 18.951 274.137 18.951C273.559 18.951 273.07 19.0738 272.673 19.3194C272.275 19.5591 272.076 19.8807 272.076 20.2842C272.076 20.6058 272.205 20.8777 272.462 21.0999C272.719 21.3222 273.161 21.5005 273.787 21.635L276.225 22.1262C277.535 22.3952 278.511 22.8279 279.155 23.4243C279.798 24.0208 280.119 24.8044 280.119 25.7751C280.119 26.658 279.859 27.4328 279.339 28.0994C278.824 28.7661 278.117 29.2865 277.216 29.6607C276.322 30.0291 275.289 30.2133 274.12 30.2133C272.336 30.2133 270.915 29.842 269.857 29.0994C268.804 28.3509 268.188 27.3334 268.006 26.047L271.681 25.854C271.793 26.3978 272.062 26.813 272.488 27.0995C272.915 27.3802 273.462 27.5205 274.129 27.5205C274.784 27.5205 275.31 27.3948 275.708 27.1434C276.111 26.8861 276.316 26.5557 276.322 26.1522C276.316 25.8131 276.172 25.5353 275.892 25.3189C275.611 25.0967 275.178 24.9272 274.594 24.8102L272.26 24.3453C270.945 24.0822 269.965 23.6261 269.322 22.977C268.685 22.3279 268.366 21.5005 268.366 20.4947C268.366 19.6293 268.6 18.8837 269.068 18.258C269.541 17.6324 270.205 17.1499 271.059 16.8108C271.918 16.4716 272.924 16.302 274.076 16.302C275.778 16.302 277.117 16.6617 278.093 17.3809C279.076 18.1002 279.649 19.0796 279.812 20.3193Z" fill="#02B873"/>
</svg>
