<svg width="487" height="54" viewBox="0 0 487 54" fill="none" xmlns="http://www.w3.org/2000/svg">
<rect width="487" height="54" rx="15" fill="#02B873"/>
<path d="M174.054 18.2443V11.5927H200.482V18.2443H191.336V42H183.2V18.2443H174.054ZM231.617 26.7964C231.617 30.1815 230.958 33.0372 229.642 35.3633C228.325 37.6794 226.549 39.4364 224.312 40.634C222.075 41.8218 219.58 42.4157 216.829 42.4157C214.057 42.4157 211.553 41.8169 209.316 40.6192C207.089 39.4116 205.317 37.6497 204.001 35.3336C202.694 33.0075 202.041 30.1618 202.041 26.7964C202.041 23.4112 202.694 20.5605 204.001 18.2443C205.317 15.9182 207.089 14.1613 209.316 12.9735C211.553 11.7758 214.057 11.177 216.829 11.177C219.58 11.177 222.075 11.7758 224.312 12.9735C226.549 14.1613 228.325 15.9182 229.642 18.2443C230.958 20.5605 231.617 23.4112 231.617 26.7964ZM223.124 26.7964C223.124 24.9751 222.881 23.4409 222.396 22.1937C221.921 20.9366 221.214 19.9864 220.273 19.343C219.343 18.6897 218.195 18.3631 216.829 18.3631C215.463 18.3631 214.31 18.6897 213.369 19.343C212.439 19.9864 211.731 20.9366 211.246 22.1937C210.771 23.4409 210.533 24.9751 210.533 26.7964C210.533 28.6176 210.771 30.1568 211.246 31.4139C211.731 32.661 212.439 33.6113 213.369 34.2646C214.31 34.9079 215.463 35.2296 216.829 35.2296C218.195 35.2296 219.343 34.9079 220.273 34.2646C221.214 33.6113 221.921 32.661 222.396 31.4139C222.881 30.1568 223.124 28.6176 223.124 26.7964ZM233.176 18.2443V11.5927H259.604V18.2443H250.458V42H242.321V18.2443H233.176ZM266.771 42H257.863L267.9 11.5927H279.184L289.22 42H280.312L273.66 19.9666H273.423L266.771 42ZM265.108 30.0034H281.856V36.1799H265.108V30.0034ZM292.149 42V11.5927H300.404V35.3484H312.698V42H292.149Z" fill="white"/>
</svg>
