<svg width="489" height="419" viewBox="0 0 489 419" fill="none" xmlns="http://www.w3.org/2000/svg">
<path d="M1.50622 33.29V24.4112H36.7836V33.29H24.5752V65H13.7146V33.29H1.50622ZM78.3434 44.7056C78.3434 49.2243 77.4648 53.0361 75.7075 56.141C73.9503 59.2327 71.5786 61.578 68.5926 63.1767C65.6066 64.7622 62.2771 65.5549 58.604 65.5549C54.9045 65.5549 51.5617 64.7556 48.5757 63.1569C45.6029 61.5449 43.2379 59.1931 41.4806 56.1014C39.7366 52.9965 38.8645 49.1979 38.8645 44.7056C38.8645 40.187 39.7366 36.3818 41.4806 33.29C43.2379 30.1851 45.6029 27.8399 48.5757 26.2544C51.5617 24.6557 54.9045 23.8563 58.604 23.8563C62.2771 23.8563 65.6066 24.6557 68.5926 26.2544C71.5786 27.8399 73.9503 30.1851 75.7075 33.29C77.4648 36.3818 78.3434 40.187 78.3434 44.7056ZM67.0071 44.7056C67.0071 42.2745 66.6834 40.2266 66.036 38.5618C65.4018 36.8838 64.4571 35.6154 63.2019 34.7566C61.96 33.8846 60.4273 33.4486 58.604 33.4486C56.7807 33.4486 55.2414 33.8846 53.9862 34.7566C52.7442 35.6154 51.7996 36.8838 51.1521 38.5618C50.5179 40.2266 50.2008 42.2745 50.2008 44.7056C50.2008 47.1367 50.5179 49.1913 51.1521 50.8692C51.7996 52.534 52.7442 53.8024 53.9862 54.6744C55.2414 55.5333 56.7807 55.9627 58.604 55.9627C60.4273 55.9627 61.96 55.5333 63.2019 54.6744C64.4571 53.8024 65.4018 52.534 66.036 50.8692C66.6834 49.1913 67.0071 47.1367 67.0071 44.7056ZM80.4244 33.29V24.4112H115.702V33.29H103.493V65H92.6327V33.29H80.4244ZM125.269 65H113.378L126.775 24.4112H141.838L155.235 65H143.344L134.465 35.589H134.148L125.269 65ZM123.05 48.9865H145.405V57.2311H123.05V48.9865ZM159.144 65V24.4112H170.164V56.1212H186.574V65H159.144ZM2.61607 120V79.4112H20.1358C23.1483 79.4112 25.7842 79.9596 28.0435 81.0562C30.3028 82.1528 32.0601 83.7317 33.3153 85.7929C34.5705 87.854 35.1981 90.3248 35.1981 93.2051C35.1981 96.1118 34.5507 98.5627 33.2558 100.558C31.9742 102.553 30.1707 104.059 27.8453 105.076C25.5331 106.094 22.8312 106.603 19.7395 106.603H9.27517V98.0408H17.5198C18.8146 98.0408 19.9178 97.8823 20.8295 97.5652C21.7544 97.2349 22.4612 96.713 22.9501 95.9995C23.4522 95.286 23.7032 94.3546 23.7032 93.2051C23.7032 92.0424 23.4522 91.0977 22.9501 90.371C22.4612 89.6311 21.7544 89.0894 20.8295 88.7459C19.9178 88.3891 18.8146 88.2108 17.5198 88.2108H13.6353V120H2.61607ZM26.3985 101.37L36.5457 120H24.5752L14.6659 101.37H26.3985ZM39.8951 120V79.4112H69.1475V88.29H50.9143V95.2662H67.6413V104.145H50.9143V111.121H69.0683V120H39.8951ZM112.506 94.632H101.328C101.249 93.7072 101.038 92.8682 100.694 92.115C100.364 91.3619 99.9013 90.7145 99.3067 90.1728C98.7253 89.6179 98.0185 89.1951 97.1861 88.9044C96.3537 88.6005 95.409 88.4486 94.352 88.4486C92.5023 88.4486 90.9366 88.8978 89.655 89.7963C88.3866 90.6947 87.4221 91.9829 86.7614 93.6609C86.114 95.3389 85.7903 97.3538 85.7903 99.7056C85.7903 102.19 86.1206 104.271 86.7813 105.949C87.4551 107.613 88.4262 108.868 89.6946 109.714C90.963 110.546 92.4891 110.963 94.2727 110.963C95.2901 110.963 96.2018 110.837 97.0077 110.586C97.8137 110.322 98.5139 109.945 99.1085 109.456C99.7031 108.968 100.185 108.38 100.555 107.693C100.938 106.992 101.196 106.206 101.328 105.334L112.506 105.413C112.374 107.131 111.892 108.882 111.059 110.665C110.227 112.436 109.044 114.074 107.512 115.58C105.992 117.073 104.109 118.276 101.863 119.187C99.6172 120.099 97.0077 120.555 94.0349 120.555C90.309 120.555 86.9662 119.756 84.0066 118.157C81.0603 116.558 78.7283 114.206 77.0106 111.101C75.3062 107.996 74.454 104.198 74.454 99.7056C74.454 95.187 75.326 91.3818 77.0701 88.29C78.8141 85.1851 81.166 82.8399 84.1256 81.2544C87.0851 79.6557 90.3883 78.8563 94.0349 78.8563C96.5981 78.8563 98.9566 79.2064 101.11 79.9067C103.264 80.607 105.153 81.6309 106.778 82.9786C108.403 84.3131 109.712 85.958 110.702 87.9135C111.693 89.8689 112.295 92.1084 112.506 94.632ZM115.84 79.4112H128.128L136.056 95.9004H136.373L144.3 79.4112H156.588L141.684 107.237V120H130.744V107.237L115.84 79.4112ZM195.239 94.632H184.061C183.982 93.7072 183.771 92.8682 183.427 92.115C183.097 91.3619 182.635 90.7145 182.04 90.1728C181.459 89.6179 180.752 89.1951 179.919 88.9044C179.087 88.6005 178.142 88.4486 177.085 88.4486C175.236 88.4486 173.67 88.8978 172.388 89.7963C171.12 90.6947 170.155 91.9829 169.495 93.6609C168.847 95.3389 168.524 97.3538 168.524 99.7056C168.524 102.19 168.854 104.271 169.515 105.949C170.188 107.613 171.159 108.868 172.428 109.714C173.696 110.546 175.222 110.963 177.006 110.963C178.023 110.963 178.935 110.837 179.741 110.586C180.547 110.322 181.247 109.945 181.842 109.456C182.436 108.968 182.919 108.38 183.289 107.693C183.672 106.992 183.929 106.206 184.061 105.334L195.239 105.413C195.107 107.131 194.625 108.882 193.792 110.665C192.96 112.436 191.778 114.074 190.245 115.58C188.725 117.073 186.843 118.276 184.597 119.187C182.35 120.099 179.741 120.555 176.768 120.555C173.042 120.555 169.7 119.756 166.74 118.157C163.794 116.558 161.462 114.206 159.744 111.101C158.039 107.996 157.187 104.198 157.187 99.7056C157.187 95.187 158.059 91.3818 159.803 88.29C161.547 85.1851 163.899 82.8399 166.859 81.2544C169.818 79.6557 173.122 78.8563 176.768 78.8563C179.331 78.8563 181.69 79.2064 183.843 79.9067C185.997 80.607 187.887 81.6309 189.512 82.9786C191.137 84.3131 192.445 85.958 193.436 87.9135C194.427 89.8689 195.028 92.1084 195.239 94.632ZM200.239 120V79.4112H211.258V111.121H227.668V120H200.239ZM242.665 120H230.774L244.172 79.4112H259.234L272.631 120H260.74L251.861 90.589H251.544L242.665 120ZM240.446 103.986H262.801V112.231H240.446V103.986ZM276.541 120V79.4112H294.14C297.231 79.4112 299.828 79.8274 301.928 80.6598C304.042 81.4922 305.635 82.6681 306.705 84.1876C307.788 85.707 308.33 87.4973 308.33 89.5584C308.33 91.0514 308 92.4123 307.339 93.6411C306.692 94.8699 305.78 95.9004 304.604 96.7328C303.428 97.552 302.054 98.1201 300.482 98.4372V98.8336C302.226 98.8997 303.811 99.3423 305.238 100.161C306.665 100.967 307.801 102.084 308.647 103.511C309.493 104.925 309.915 106.589 309.915 108.505C309.915 110.725 309.334 112.7 308.171 114.431C307.022 116.162 305.383 117.523 303.256 118.514C301.129 119.505 298.592 120 295.646 120H276.541ZM287.56 111.2H292.713C294.562 111.2 295.95 110.857 296.875 110.17C297.8 109.47 298.262 108.439 298.262 107.078C298.262 106.127 298.044 105.321 297.608 104.66C297.172 104 296.551 103.498 295.745 103.154C294.952 102.811 293.994 102.639 292.871 102.639H287.56V111.2ZM287.56 95.8212H292.079C293.043 95.8212 293.895 95.6692 294.635 95.3653C295.375 95.0614 295.95 94.6254 296.359 94.0573C296.782 93.4759 296.994 92.7691 296.994 91.9367C296.994 90.6815 296.544 89.7236 295.646 89.063C294.747 88.3891 293.611 88.0522 292.237 88.0522H287.56V95.8212ZM313.82 120V79.4112H324.839V111.121H341.249V120H313.82ZM345.703 120V79.4112H374.955V88.29H356.722V95.2662H373.449V104.145H356.722V111.121H374.876V120H345.703ZM402.3 92.0952C402.195 90.774 401.699 89.7434 400.814 89.0035C399.942 88.2636 398.614 87.8937 396.83 87.8937C395.694 87.8937 394.763 88.0324 394.036 88.3099C393.322 88.5741 392.794 88.9374 392.45 89.3999C392.107 89.8623 391.929 90.3908 391.915 90.9854C391.889 91.4742 391.975 91.9169 392.173 92.3132C392.384 92.6964 392.715 93.0465 393.164 93.3636C393.613 93.6675 394.188 93.945 394.888 94.196C395.588 94.4471 396.421 94.6717 397.385 94.8699L400.715 95.5833C402.961 96.059 404.883 96.6866 406.482 97.4661C408.081 98.2456 409.389 99.1639 410.406 100.221C411.424 101.265 412.17 102.441 412.646 103.749C413.135 105.057 413.386 106.484 413.399 108.029C413.386 110.698 412.718 112.958 411.397 114.807C410.076 116.657 408.187 118.064 405.729 119.029C403.285 119.993 400.345 120.476 396.91 120.476C393.382 120.476 390.303 119.954 387.674 118.91C385.058 117.866 383.023 116.261 381.57 114.094C380.13 111.914 379.403 109.126 379.39 105.731H389.854C389.92 106.972 390.231 108.016 390.786 108.862C391.341 109.707 392.12 110.348 393.124 110.784C394.142 111.22 395.351 111.438 396.751 111.438C397.927 111.438 398.911 111.293 399.704 111.002C400.497 110.712 401.098 110.309 401.508 109.793C401.917 109.278 402.129 108.69 402.142 108.029C402.129 107.409 401.924 106.867 401.527 106.404C401.144 105.929 400.51 105.506 399.625 105.136C398.74 104.753 397.544 104.396 396.038 104.066L391.995 103.194C388.401 102.414 385.567 101.113 383.492 99.2894C381.431 97.4529 380.407 94.9491 380.42 91.7781C380.407 89.2017 381.094 86.949 382.482 85.0199C383.882 83.0777 385.818 81.5649 388.289 80.4815C390.772 79.398 393.62 78.8563 396.83 78.8563C400.107 78.8563 402.941 79.4046 405.333 80.5013C407.724 81.5979 409.567 83.1438 410.862 85.1389C412.17 87.1207 412.831 89.4395 412.844 92.0952H402.3Z" fill="#02B873"/>
<rect y="134" width="433" height="63" rx="31.5" fill="#02B873"/>
<path d="M28.6161 186V145.411H46.2153C49.307 145.411 51.9033 145.827 54.0041 146.659C56.1181 147.492 57.7102 148.668 58.7805 150.187C59.8639 151.707 60.4056 153.497 60.4056 155.558C60.4056 157.051 60.0753 158.412 59.4147 159.641C58.7672 160.87 57.8556 161.9 56.6796 162.733C55.5037 163.552 54.1296 164.12 52.5573 164.437V164.833C54.3014 164.899 55.8869 165.342 57.3139 166.161C58.7408 166.967 59.8771 168.084 60.7227 169.511C61.5683 170.924 61.9911 172.589 61.9911 174.505C61.9911 176.725 61.4098 178.7 60.247 180.431C59.0976 182.162 57.4592 183.523 55.332 184.514C53.2047 185.505 50.6679 186 47.7215 186H28.6161ZM39.6354 177.2H44.7883C46.6381 177.2 48.0254 176.857 48.9503 176.17C49.8752 175.47 50.3376 174.439 50.3376 173.078C50.3376 172.127 50.1196 171.321 49.6836 170.66C49.2476 170 48.6266 169.497 47.8206 169.154C47.0278 168.81 46.0699 168.639 44.9469 168.639H39.6354V177.2ZM39.6354 161.821H44.1541C45.1186 161.821 45.9708 161.669 46.7107 161.365C47.4506 161.061 48.0254 160.625 48.435 160.057C48.8578 159.476 49.0692 158.769 49.0692 157.936C49.0692 156.681 48.62 155.723 47.7215 155.063C46.8231 154.389 45.6868 154.052 44.3127 154.052H39.6354V161.821ZM63.6725 145.411H75.9603L83.8878 161.9H84.2049L92.1325 145.411H104.42L89.5164 173.237V186H78.5763V173.237L63.6725 145.411ZM118.015 186V145.411H129.034V177.121H145.444V186H118.015ZM187.08 165.705C187.08 170.224 186.202 174.036 184.444 177.141C182.687 180.233 180.315 182.578 177.329 184.177C174.343 185.762 171.014 186.555 167.341 186.555C163.641 186.555 160.298 185.756 157.312 184.157C154.339 182.545 151.974 180.193 150.217 177.101C148.473 173.996 147.601 170.198 147.601 165.705C147.601 161.187 148.473 157.382 150.217 154.29C151.974 151.185 154.339 148.84 157.312 147.254C160.298 145.655 163.641 144.856 167.341 144.856C171.014 144.856 174.343 145.655 177.329 147.254C180.315 148.84 182.687 151.185 184.444 154.29C186.202 157.382 187.08 161.187 187.08 165.705ZM175.744 165.705C175.744 163.274 175.42 161.226 174.773 159.562C174.138 157.884 173.194 156.615 171.939 155.756C170.697 154.884 169.164 154.448 167.341 154.448C165.517 154.448 163.978 154.884 162.723 155.756C161.481 156.615 160.536 157.884 159.889 159.562C159.254 161.226 158.937 163.274 158.937 165.705C158.937 168.137 159.254 170.191 159.889 171.869C160.536 173.534 161.481 174.802 162.723 175.674C163.978 176.533 165.517 176.963 167.341 176.963C169.164 176.963 170.697 176.533 171.939 175.674C173.194 174.802 174.138 173.534 174.773 171.869C175.42 170.191 175.744 168.137 175.744 165.705ZM229.514 160.632H218.336C218.257 159.707 218.046 158.868 217.702 158.115C217.372 157.362 216.909 156.714 216.315 156.173C215.734 155.618 215.027 155.195 214.194 154.904C213.362 154.6 212.417 154.448 211.36 154.448C209.51 154.448 207.945 154.898 206.663 155.796C205.395 156.694 204.43 157.983 203.77 159.661C203.122 161.339 202.798 163.354 202.798 165.705C202.798 168.189 203.129 170.27 203.789 171.948C204.463 173.613 205.434 174.868 206.703 175.714C207.971 176.546 209.497 176.963 211.281 176.963C212.298 176.963 213.21 176.837 214.016 176.586C214.822 176.322 215.522 175.945 216.117 175.456C216.711 174.967 217.194 174.38 217.563 173.692C217.947 172.992 218.204 172.206 218.336 171.334L229.514 171.413C229.382 173.131 228.9 174.882 228.067 176.665C227.235 178.436 226.053 180.074 224.52 181.58C223 183.073 221.118 184.276 218.872 185.187C216.625 186.099 214.016 186.555 211.043 186.555C207.317 186.555 203.974 185.756 201.015 184.157C198.068 182.558 195.736 180.206 194.019 177.101C192.314 173.996 191.462 170.198 191.462 165.705C191.462 161.187 192.334 157.382 194.078 154.29C195.822 151.185 198.174 148.84 201.134 147.254C204.093 145.655 207.396 144.856 211.043 144.856C213.606 144.856 215.965 145.206 218.118 145.906C220.272 146.607 222.161 147.631 223.787 148.978C225.412 150.313 226.72 151.958 227.711 153.913C228.702 155.869 229.303 158.108 229.514 160.632ZM243.246 186H231.354L244.752 145.411H259.814L273.212 186H261.32L252.442 156.589H252.124L243.246 186ZM241.026 169.986H263.382V178.231H241.026V169.986ZM270.33 154.29V145.411H305.608V154.29H293.399V186H282.538V154.29H270.33ZM320.216 145.411V186H309.197V145.411H320.216ZM364.201 165.705C364.201 170.224 363.322 174.036 361.565 177.141C359.808 180.233 357.436 182.578 354.45 184.177C351.464 185.762 348.134 186.555 344.461 186.555C340.762 186.555 337.419 185.756 334.433 184.157C331.46 182.545 329.095 180.193 327.338 177.101C325.593 173.996 324.721 170.198 324.721 165.705C324.721 161.187 325.593 157.382 327.338 154.29C329.095 151.185 331.46 148.84 334.433 147.254C337.419 145.655 340.762 144.856 344.461 144.856C348.134 144.856 351.464 145.655 354.45 147.254C357.436 148.84 359.808 151.185 361.565 154.29C363.322 157.382 364.201 161.187 364.201 165.705ZM352.864 165.705C352.864 163.274 352.541 161.226 351.893 159.562C351.259 157.884 350.314 156.615 349.059 155.756C347.817 154.884 346.284 154.448 344.461 154.448C342.638 154.448 341.098 154.884 339.843 155.756C338.601 156.615 337.657 157.884 337.009 159.562C336.375 161.226 336.058 163.274 336.058 165.705C336.058 168.137 336.375 170.191 337.009 171.869C337.657 173.534 338.601 174.802 339.843 175.674C341.098 176.533 342.638 176.963 344.461 176.963C346.284 176.963 347.817 176.533 349.059 175.674C350.314 174.802 351.259 173.534 351.893 171.869C352.541 170.191 352.864 168.137 352.864 165.705ZM403.86 145.411V186H394.664L379.998 164.675H379.76V186H368.741V145.411H378.096L392.524 166.657H392.841V145.411H403.86Z" fill="white"/>
<g clip-path="url(#clip0_159_78)">
<rect x="3.09082" y="220.958" width="197.308" height="197.306" rx="12.825" fill="#02B873"/>
<path d="M155.551 304.775C154.408 305.288 153.829 306.567 154.146 307.779C155.425 312.658 156.116 317.773 156.116 323.049C156.116 324.162 156.075 325.265 156.02 326.368C155.489 326.336 154.798 326.272 153.86 326.116C152.372 325.876 150.915 325.633 149.48 325.393L149.178 325.342C135.662 323.068 123.991 321.109 108.59 326.528C106.494 327.269 104.732 326.981 103.231 325.645C100.1 322.848 98.6999 316.033 100.045 310.134C100.676 307.386 102.476 305.009 104.213 302.714L104.22 302.705L104.232 302.689C106.805 299.288 109.718 295.439 108.151 290.485C105.144 280.975 103.135 279.043 97.3634 280.169L97.3557 280.171C95.4484 280.546 93.0653 281.014 89.3082 279.899C87.5186 279.368 86.3973 278.439 85.7657 276.965C84.1043 273.093 86.3012 266.553 87.7704 263.244C90.3883 262.896 93.0566 262.699 95.7707 262.699C101.157 262.699 106.387 263.407 111.358 264.74C112.643 265.085 113.985 264.287 114.385 263.018C114.788 261.738 114.115 260.362 112.82 260.011C107.384 258.541 101.668 257.756 95.7707 257.756C59.7739 257.756 30.4775 287.039 30.4775 323.049C30.4775 359.051 59.7693 388.343 95.7707 388.343C131.777 388.343 161.064 359.055 161.064 323.049C161.064 317.267 160.311 311.661 158.892 306.322C158.508 304.878 156.913 304.163 155.551 304.775ZM39.3108 344.355C36.7981 337.727 35.4114 330.546 35.4114 323.049C35.4114 310.779 39.1003 299.36 45.4163 289.822C49.5446 292.096 54.8583 295.982 55.6593 299.378C55.9247 300.495 55.6639 301.506 54.84 302.55C47.8283 311.466 45.3431 322.647 48.6567 330.372C49.9474 333.379 46.7665 341.691 42.5878 344.378C41.0729 345.366 40.1392 345.124 39.3108 344.355ZM95.7615 383.4C72.1267 383.4 51.6271 369.729 41.732 349.888C42.9036 349.732 44.1028 349.293 45.2699 348.533C50.8124 344.963 55.7508 334.363 53.197 328.418C50.6202 322.409 52.8903 313.022 58.7212 305.598C60.4787 303.374 61.0828 300.824 60.465 298.234C59.1285 292.609 52.277 288.028 48.3318 285.794C56.6753 275.199 68.4744 267.464 82.0219 264.292C80.5939 268.333 79.2254 274.279 81.2072 278.91C82.4109 281.712 84.7222 283.693 87.8894 284.636C92.8003 286.092 96.1139 285.451 98.3017 285.021C100.586 284.572 101.057 284.49 103.423 291.973C104.187 294.376 102.796 296.385 100.27 299.717C98.3017 302.307 96.0773 305.246 95.2169 309.031C93.4502 316.77 95.432 325.31 99.931 329.329C101.812 331.004 104.05 331.864 106.448 331.864C107.675 331.864 108.943 331.64 110.22 331.196C124.422 326.198 135.507 328.057 148.349 330.221C149.896 330.482 151.466 330.739 153.068 330.999C154.002 331.15 154.803 331.242 155.53 331.288C151.507 360.676 126.243 383.4 95.7615 383.4Z" fill="white"/>
<path d="M155.551 304.775C154.408 305.288 153.829 306.567 154.146 307.779C155.425 312.658 156.116 317.773 156.116 323.049C156.116 324.162 156.075 325.265 156.02 326.368C155.489 326.336 154.798 326.272 153.86 326.116C152.372 325.876 150.915 325.633 149.48 325.393L149.178 325.342C135.662 323.068 123.991 321.109 108.59 326.528C106.494 327.269 104.732 326.981 103.231 325.645C100.1 322.848 98.6999 316.033 100.045 310.134C100.676 307.386 102.476 305.009 104.213 302.714L104.22 302.705L104.232 302.689C106.805 299.288 109.718 295.439 108.151 290.485C105.144 280.975 103.135 279.043 97.3634 280.169L97.3557 280.171C95.4484 280.546 93.0653 281.014 89.3082 279.899C87.5186 279.368 86.3973 278.439 85.7657 276.965C84.1043 273.093 86.3012 266.553 87.7704 263.244C90.3883 262.896 93.0566 262.699 95.7707 262.699C101.157 262.699 106.387 263.407 111.358 264.74C112.643 265.085 113.985 264.287 114.385 263.018C114.788 261.738 114.115 260.362 112.82 260.011C107.384 258.541 101.668 257.756 95.7707 257.756C59.7739 257.756 30.4775 287.039 30.4775 323.049C30.4775 359.051 59.7693 388.343 95.7707 388.343C131.777 388.343 161.064 359.055 161.064 323.049C161.064 317.267 160.311 311.661 158.892 306.322C158.508 304.878 156.913 304.163 155.551 304.775ZM39.3108 344.355C36.7981 337.727 35.4114 330.546 35.4114 323.049C35.4114 310.779 39.1003 299.36 45.4163 289.822C49.5446 292.096 54.8583 295.982 55.6593 299.378C55.9247 300.495 55.6639 301.506 54.84 302.55C47.8283 311.466 45.3431 322.647 48.6567 330.372C49.9474 333.379 46.7665 341.691 42.5878 344.378C41.0729 345.366 40.1392 345.124 39.3108 344.355ZM95.7615 383.4C72.1267 383.4 51.6271 369.729 41.732 349.888C42.9036 349.732 44.1028 349.293 45.2699 348.533C50.8124 344.963 55.7508 334.363 53.197 328.418C50.6202 322.409 52.8903 313.022 58.7212 305.598C60.4787 303.374 61.0828 300.824 60.465 298.234C59.1285 292.609 52.277 288.028 48.3318 285.794C56.6753 275.199 68.4744 267.464 82.0219 264.292C80.5939 268.333 79.2254 274.279 81.2072 278.91C82.4109 281.712 84.7222 283.693 87.8894 284.636C92.8003 286.092 96.1139 285.451 98.3017 285.021C100.586 284.572 101.057 284.49 103.423 291.973C104.187 294.376 102.796 296.385 100.27 299.717C98.3017 302.307 96.0773 305.246 95.2169 309.031C93.4502 316.77 95.432 325.31 99.931 329.329C101.812 331.004 104.05 331.864 106.448 331.864C107.675 331.864 108.943 331.64 110.22 331.196C124.422 326.198 135.507 328.057 148.349 330.221C149.896 330.482 151.466 330.739 153.068 330.999C154.002 331.15 154.803 331.242 155.53 331.288C151.507 360.676 126.243 383.4 95.7615 383.4Z" stroke="#02B873"/>
<path d="M159.05 249.948C154.803 247.504 149.988 246.209 145.113 246.209C135.15 246.209 125.872 251.564 120.906 260.182C118.691 264.008 117.314 270.544 117.767 275.066L121.058 307.722C121.067 307.818 121.08 307.918 121.103 308.015C121.433 309.475 122.312 310.678 123.584 311.415C124.367 311.859 125.25 312.093 126.152 312.093C126.682 312.093 127.218 312.006 127.744 311.85C127.84 311.818 127.936 311.781 128.033 311.74L157.961 298.27C162.084 296.403 167.059 291.95 169.284 288.114C176.973 274.778 172.387 257.66 159.05 249.948ZM164.995 285.643C163.503 288.22 159.407 292.192 155.924 293.758L126.193 307.145C126.179 307.15 126.165 307.15 126.152 307.15L125.95 306.948L122.687 274.567C122.302 270.755 123.698 265.23 125.181 262.649C129.277 255.555 136.912 251.147 145.113 251.147C149.118 251.147 153.086 252.209 156.578 254.228C167.554 260.571 171.334 274.663 164.995 285.643Z" fill="white"/>
<path d="M159.05 249.948C154.803 247.504 149.988 246.209 145.113 246.209C135.15 246.209 125.872 251.564 120.906 260.182C118.691 264.008 117.314 270.544 117.767 275.066L121.058 307.722C121.067 307.818 121.08 307.918 121.103 308.015C121.433 309.475 122.312 310.678 123.584 311.415C124.367 311.859 125.25 312.093 126.152 312.093C126.682 312.093 127.218 312.006 127.744 311.85C127.84 311.818 127.936 311.781 128.033 311.74L157.961 298.27C162.084 296.403 167.059 291.95 169.284 288.114C176.973 274.778 172.387 257.66 159.05 249.948ZM164.995 285.643C163.503 288.22 159.407 292.192 155.924 293.758L126.193 307.145C126.179 307.15 126.165 307.15 126.152 307.15L125.95 306.948L122.687 274.567C122.302 270.755 123.698 265.23 125.181 262.649C129.277 255.555 136.912 251.147 145.113 251.147C149.118 251.147 153.086 252.209 156.578 254.228C167.554 260.571 171.334 274.663 164.995 285.643Z" stroke="#02B873"/>
<path d="M153.81 259.032C151.228 257.54 148.285 256.748 145.315 256.748C139.242 256.748 133.589 260.016 130.559 265.266C128.285 269.206 127.681 273.792 128.852 278.186C130.033 282.58 132.848 286.246 136.779 288.52C139.37 290.012 142.313 290.804 145.283 290.804C151.352 290.804 157.009 287.541 160.039 282.291C162.309 278.355 162.918 273.769 161.737 269.376C160.57 264.977 157.75 261.311 153.81 259.032ZM155.759 279.815C153.608 283.541 149.599 285.857 145.288 285.857C143.182 285.857 141.095 285.294 139.26 284.237C136.463 282.621 134.468 280.021 133.635 276.904C132.802 273.788 133.228 270.529 134.848 267.737C136.999 264.011 141.013 261.691 145.32 261.691C147.425 261.691 149.507 262.249 151.338 263.311C154.135 264.931 156.139 267.531 156.968 270.652C157.805 273.765 157.375 277.019 155.759 279.815Z" fill="white"/>
<path d="M153.81 259.032C151.228 257.54 148.285 256.748 145.315 256.748C139.242 256.748 133.589 260.016 130.559 265.266C128.285 269.206 127.681 273.792 128.852 278.186C130.033 282.58 132.848 286.246 136.779 288.52C139.37 290.012 142.313 290.804 145.283 290.804C151.352 290.804 157.009 287.541 160.039 282.291C162.309 278.355 162.918 273.769 161.737 269.376C160.57 264.977 157.75 261.311 153.81 259.032ZM155.759 279.815C153.608 283.541 149.599 285.857 145.288 285.857C143.182 285.857 141.095 285.294 139.26 284.237C136.463 282.621 134.468 280.021 133.635 276.904C132.802 273.788 133.228 270.529 134.848 267.737C136.999 264.011 141.013 261.691 145.32 261.691C147.425 261.691 149.507 262.249 151.338 263.311C154.135 264.931 156.139 267.531 156.968 270.652C157.805 273.765 157.375 277.019 155.759 279.815Z" stroke="#02B873"/>
</g>
<defs>
<clipPath id="clip0_159_78">
<rect width="220.59" height="197.505" fill="white" transform="translate(0 221)"/>
</clipPath>
</defs>
</svg>
