<svg width="307" height="42" viewBox="0 0 307 42" fill="none" xmlns="http://www.w3.org/2000/svg">
<path d="M30.3679 11.9866H34.1659V23.6524C34.1659 24.9622 33.8531 26.1084 33.2274 27.0907C32.6075 28.0731 31.7392 28.8392 30.6223 29.3888C29.5054 29.9327 28.2043 30.2046 26.7191 30.2046C25.2279 30.2046 23.9239 29.9327 22.8071 29.3888C21.6902 28.8392 20.8218 28.0731 20.202 27.0907C19.5821 26.1084 19.2722 24.9622 19.2722 23.6524V11.9866H23.0702V23.3279C23.0702 24.012 23.2193 24.6202 23.5175 25.1523C23.8216 25.6844 24.2485 26.1025 24.7982 26.4066C25.3478 26.7107 25.9881 26.8627 26.7191 26.8627C27.4559 26.8627 28.0962 26.7107 28.64 26.4066C29.1897 26.1025 29.6136 25.6844 29.9118 25.1523C30.2159 24.6202 30.3679 24.012 30.3679 23.3279V11.9866ZM48.4302 20.3193L45.0094 20.5298C44.951 20.2374 44.8252 19.9743 44.6323 19.7404C44.4393 19.5006 44.1849 19.3106 43.8692 19.1703C43.5592 19.0241 43.1879 18.951 42.7552 18.951C42.1763 18.951 41.688 19.0738 41.2904 19.3194C40.8928 19.5591 40.694 19.8807 40.694 20.2842C40.694 20.6058 40.8226 20.8777 41.0799 21.0999C41.3372 21.3222 41.7787 21.5005 42.4044 21.635L44.8428 22.1262C46.1526 22.3952 47.1292 22.8279 47.7724 23.4243C48.4156 24.0208 48.7372 24.8044 48.7372 25.7751C48.7372 26.658 48.477 27.4328 47.9566 28.0994C47.442 28.7661 46.7345 29.2865 45.8339 29.6607C44.9393 30.0291 43.9072 30.2133 42.7377 30.2133C40.9542 30.2133 39.5332 29.842 38.4748 29.0994C37.4223 28.3509 36.8053 27.3334 36.6241 26.047L40.2992 25.854C40.4103 26.3978 40.6793 26.813 41.1062 27.0995C41.5331 27.3802 42.0798 27.5205 42.7464 27.5205C43.4014 27.5205 43.9276 27.3948 44.3253 27.1434C44.7288 26.8861 44.9334 26.5557 44.9393 26.1522C44.9334 25.8131 44.7902 25.5353 44.5095 25.3189C44.2288 25.0967 43.7961 24.9272 43.2113 24.8102L40.8782 24.3453C39.5625 24.0822 38.583 23.6261 37.9398 22.977C37.3024 22.3279 36.9837 21.5005 36.9837 20.4947C36.9837 19.6293 37.2176 18.8837 37.6854 18.258C38.159 17.6324 38.8227 17.1499 39.6765 16.8108C40.5361 16.4716 41.5418 16.302 42.6938 16.302C44.3954 16.302 45.7345 16.6617 46.7111 17.3809C47.6935 18.1002 48.2665 19.0796 48.4302 20.3193ZM57.2301 30.2133C55.8442 30.2133 54.6513 29.9327 53.6514 29.3713C52.6573 28.8041 51.8913 28.003 51.3533 26.968C50.8153 25.9271 50.5463 24.6962 50.5463 23.2752C50.5463 21.8894 50.8153 20.6731 51.3533 19.6264C51.8913 18.5797 52.6485 17.7639 53.6251 17.1792C54.6074 16.5944 55.7594 16.302 57.0809 16.302C57.9698 16.302 58.7972 16.4453 59.5632 16.7318C60.3351 17.0125 61.0076 17.4365 61.5806 18.0037C62.1595 18.5709 62.6098 19.2843 62.9314 20.1439C63.253 20.9976 63.4138 21.9975 63.4138 23.1437V24.1699H52.0374V21.8543H59.8965C59.8965 21.3163 59.7796 20.8397 59.5457 20.4246C59.3118 20.0094 58.9872 19.6848 58.5721 19.4509C58.1627 19.2112 57.6862 19.0913 57.1423 19.0913C56.5751 19.0913 56.0722 19.2229 55.6337 19.486C55.201 19.7433 54.8618 20.0912 54.6162 20.5298C54.3706 20.9625 54.2449 21.445 54.239 21.9771V24.1787C54.239 24.8453 54.3618 25.4213 54.6074 25.9066C54.8589 26.392 55.2127 26.7662 55.6688 27.0293C56.1249 27.2925 56.6658 27.4241 57.2915 27.4241C57.7066 27.4241 58.0867 27.3656 58.4317 27.2486C58.7767 27.1317 59.072 26.9563 59.3176 26.7224C59.5632 26.4885 59.7504 26.2019 59.879 25.8628L63.3349 26.0908C63.1595 26.9212 62.7998 27.6463 62.256 28.2661C61.718 28.8801 61.0222 29.3596 60.1684 29.7046C59.3206 30.0438 58.3411 30.2133 57.2301 30.2133ZM65.8523 29.9502V16.4775H69.4748V18.8282H69.6151C69.8607 17.992 70.273 17.3604 70.8519 16.9336C71.4308 16.5009 72.0974 16.2845 72.8518 16.2845C73.0389 16.2845 73.2406 16.2962 73.457 16.3196C73.6733 16.343 73.8634 16.3751 74.0271 16.4161V19.7316C73.8517 19.679 73.609 19.6322 73.2991 19.5913C72.9892 19.5503 72.7056 19.5299 72.4483 19.5299C71.8986 19.5299 71.4074 19.6498 70.9747 19.8895C70.5478 20.1234 70.2087 20.4509 69.9572 20.8719C69.7116 21.2929 69.5888 21.7783 69.5888 22.3279V29.9502H65.8523ZM87.1687 20.3193L83.7479 20.5298C83.6894 20.2374 83.5637 19.9743 83.3707 19.7404C83.1778 19.5006 82.9234 19.3106 82.6076 19.1703C82.2977 19.0241 81.9264 18.951 81.4937 18.951C80.9148 18.951 80.4265 19.0738 80.0289 19.3194C79.6312 19.5591 79.4324 19.8807 79.4324 20.2842C79.4324 20.6058 79.5611 20.8777 79.8184 21.0999C80.0757 21.3222 80.5172 21.5005 81.1428 21.635L83.5813 22.1262C84.8911 22.3952 85.8676 22.8279 86.5109 23.4243C87.1541 24.0208 87.4757 24.8044 87.4757 25.7751C87.4757 26.658 87.2155 27.4328 86.6951 28.0994C86.1805 28.7661 85.4729 29.2865 84.5724 29.6607C83.6777 30.0291 82.6457 30.2133 81.4761 30.2133C79.6926 30.2133 78.2717 29.842 77.2133 29.0994C76.1607 28.3509 75.5438 27.3334 75.3625 26.047L79.0377 25.854C79.1488 26.3978 79.4178 26.813 79.8447 27.0995C80.2716 27.3802 80.8183 27.5205 81.4849 27.5205C82.1398 27.5205 82.6661 27.3948 83.0638 27.1434C83.4672 26.8861 83.6719 26.5557 83.6777 26.1522C83.6719 25.8131 83.5286 25.5353 83.248 25.3189C82.9673 25.0967 82.5346 24.9272 81.9498 24.8102L79.6166 24.3453C78.3009 24.0822 77.3215 23.6261 76.6782 22.977C76.0409 22.3279 75.7222 21.5005 75.7222 20.4947C75.7222 19.6293 75.9561 18.8837 76.4239 18.258C76.8975 17.6324 77.5612 17.1499 78.415 16.8108C79.2745 16.4716 80.2803 16.302 81.4323 16.302C83.1339 16.302 84.473 16.6617 85.4495 17.3809C86.4319 18.1002 87.005 19.0796 87.1687 20.3193ZM95.5453 16.4775H99.2819V30.6168C99.2819 31.6577 99.0772 32.4997 98.6679 33.143C98.2586 33.7862 97.6709 34.2569 96.9049 34.5551C96.1447 34.8534 95.2354 35.0025 94.177 35.0025C94.0484 35.0025 93.9256 34.9995 93.8086 34.9937C93.6858 34.9937 93.5572 34.9908 93.4227 34.9849V32.0641C93.5221 32.0699 93.6098 32.0729 93.6858 32.0729C93.756 32.0787 93.832 32.0816 93.9139 32.0816C94.5162 32.0816 94.9372 31.953 95.1769 31.6957C95.4225 31.4442 95.5453 31.0642 95.5453 30.5554V16.4775ZM97.4048 14.7407C96.8552 14.7407 96.3815 14.5566 95.9839 14.1882C95.5863 13.8139 95.3874 13.3666 95.3874 12.8461C95.3874 12.3316 95.5863 11.8901 95.9839 11.5217C96.3815 11.1474 96.8552 10.9603 97.4048 10.9603C97.9662 10.9603 98.4428 11.1474 98.8346 11.5217C99.2322 11.8901 99.431 12.3316 99.431 12.8461C99.431 13.3666 99.2322 13.8139 98.8346 14.1882C98.4428 14.5566 97.9662 14.7407 97.4048 14.7407ZM108.362 30.2133C107 30.2133 105.822 29.9239 104.828 29.345C103.839 28.7602 103.076 27.9474 102.538 26.9066C102 25.8598 101.731 24.6465 101.731 23.2665C101.731 21.8747 102 20.6585 102.538 19.6176C103.076 18.5709 103.839 17.7581 104.828 17.1792C105.822 16.5944 107 16.302 108.362 16.302C109.725 16.302 110.9 16.5944 111.888 17.1792C112.883 17.7581 113.649 18.5709 114.187 19.6176C114.725 20.6585 114.994 21.8747 114.994 23.2665C114.994 24.6465 114.725 25.8598 114.187 26.9066C113.649 27.9474 112.883 28.7602 111.888 29.345C110.9 29.9239 109.725 30.2133 108.362 30.2133ZM108.38 27.3188C109 27.3188 109.517 27.1434 109.932 26.7925C110.348 26.4358 110.66 25.9505 110.871 25.3365C111.087 24.7225 111.196 24.0237 111.196 23.2401C111.196 22.4566 111.087 21.7578 110.871 21.1438C110.66 20.5298 110.348 20.0445 109.932 19.6878C109.517 19.3311 109 19.1527 108.38 19.1527C107.754 19.1527 107.228 19.3311 106.801 19.6878C106.38 20.0445 106.061 20.5298 105.845 21.1438C105.635 21.7578 105.529 22.4566 105.529 23.2401C105.529 24.0237 105.635 24.7225 105.845 25.3365C106.061 25.9505 106.38 26.4358 106.801 26.7925C107.228 27.1434 107.754 27.3188 108.38 27.3188ZM117.423 29.9502V16.4775H121.16V29.9502H117.423ZM119.3 14.7407C118.745 14.7407 118.268 14.5566 117.87 14.1882C117.479 13.8139 117.283 13.3666 117.283 12.8461C117.283 12.3316 117.479 11.8901 117.87 11.5217C118.268 11.1474 118.745 10.9603 119.3 10.9603C119.856 10.9603 120.329 11.1474 120.721 11.5217C121.119 11.8901 121.318 12.3316 121.318 12.8461C121.318 13.3666 121.119 13.8139 120.721 14.1882C120.329 14.5566 119.856 14.7407 119.3 14.7407ZM127.89 22.1613V29.9502H124.153V16.4775H127.714V18.8545H127.872C128.17 18.0709 128.67 17.4511 129.372 16.995C130.074 16.533 130.924 16.302 131.924 16.302C132.86 16.302 133.676 16.5067 134.372 16.916C135.067 17.3254 135.608 17.9101 135.994 18.6703C136.38 19.4246 136.573 20.3251 136.573 21.3719V29.9502H132.837V22.0385C132.842 21.214 132.632 20.5707 132.205 20.1088C131.778 19.641 131.19 19.4071 130.442 19.4071C129.939 19.4071 129.495 19.5153 129.109 19.7316C128.729 19.948 128.43 20.2637 128.214 20.6789C128.004 21.0883 127.895 21.5824 127.89 22.1613ZM145.658 30.2133C144.272 30.2133 143.079 29.9327 142.079 29.3713C141.085 28.8041 140.319 28.003 139.781 26.968C139.243 25.9271 138.974 24.6962 138.974 23.2752C138.974 21.8894 139.243 20.6731 139.781 19.6264C140.319 18.5797 141.076 17.7639 142.053 17.1792C143.035 16.5944 144.187 16.302 145.509 16.302C146.398 16.302 147.225 16.4453 147.991 16.7318C148.763 17.0125 149.436 17.4365 150.009 18.0037C150.587 18.5709 151.038 19.2843 151.359 20.1439C151.681 20.9976 151.842 21.9975 151.842 23.1437V24.1699H140.465V21.8543H148.324C148.324 21.3163 148.208 20.8397 147.974 20.4246C147.74 20.0094 147.415 19.6848 147 19.4509C146.591 19.2112 146.114 19.0913 145.57 19.0913C145.003 19.0913 144.5 19.2229 144.062 19.486C143.629 19.7433 143.29 20.0912 143.044 20.5298C142.799 20.9625 142.673 21.445 142.667 21.9771V24.1787C142.667 24.8453 142.79 25.4213 143.035 25.9066C143.287 26.392 143.641 26.7662 144.097 27.0293C144.553 27.2925 145.094 27.4241 145.719 27.4241C146.135 27.4241 146.515 27.3656 146.86 27.2486C147.205 27.1317 147.5 26.9563 147.746 26.7224C147.991 26.4885 148.178 26.2019 148.307 25.8628L151.763 26.0908C151.587 26.9212 151.228 27.6463 150.684 28.2661C150.146 28.8801 149.45 29.3596 148.596 29.7046C147.748 30.0438 146.769 30.2133 145.658 30.2133ZM159.245 30.1695C158.221 30.1695 157.295 29.9063 156.464 29.3801C155.64 28.8479 154.985 28.0673 154.499 27.0381C154.02 26.0031 153.78 24.7342 153.78 23.2314C153.78 21.6876 154.029 20.4041 154.526 19.3808C155.023 18.3516 155.684 17.5827 156.508 17.0739C157.338 16.5593 158.248 16.302 159.236 16.302C159.99 16.302 160.619 16.4307 161.122 16.688C161.631 16.9394 162.04 17.2552 162.35 17.6353C162.666 18.0095 162.905 18.3779 163.069 18.7405H163.183V11.9866H166.911V29.9502H163.227V27.7925H163.069C162.894 28.1667 162.645 28.538 162.323 28.9064C162.008 29.269 161.595 29.5701 161.087 29.8099C160.584 30.0496 159.97 30.1695 159.245 30.1695ZM160.429 27.196C161.031 27.196 161.54 27.0323 161.955 26.7048C162.376 26.3715 162.698 25.9066 162.92 25.3102C163.148 24.7137 163.262 24.0149 163.262 23.2138C163.262 22.4127 163.151 21.7169 162.929 21.1263C162.706 20.5357 162.385 20.0796 161.964 19.7579C161.543 19.4363 161.031 19.2755 160.429 19.2755C159.815 19.2755 159.297 19.4422 158.876 19.7755C158.455 20.1088 158.137 20.5707 157.92 21.1613C157.704 21.7519 157.596 22.4361 157.596 23.2138C157.596 23.9974 157.704 24.6903 157.92 25.2926C158.142 25.8891 158.461 26.3569 158.876 26.696C159.297 27.0293 159.815 27.196 160.429 27.196ZM179.436 11.9866V29.9502H175.7V11.9866H179.436ZM186.271 30.2046C185.412 30.2046 184.646 30.0555 183.973 29.7572C183.301 29.4532 182.769 29.0058 182.377 28.4152C181.991 27.8188 181.798 27.0761 181.798 26.1873C181.798 25.4388 181.935 24.8102 182.21 24.3015C182.485 23.7927 182.859 23.3834 183.333 23.0735C183.807 22.7636 184.345 22.5297 184.947 22.3718C185.555 22.2139 186.192 22.1028 186.859 22.0385C187.643 21.9566 188.274 21.8806 188.754 21.8104C189.233 21.7344 189.581 21.6233 189.797 21.4771C190.014 21.3309 190.122 21.1146 190.122 20.828V20.7754C190.122 20.2199 189.947 19.7901 189.596 19.486C189.251 19.182 188.759 19.0299 188.122 19.0299C187.45 19.0299 186.915 19.179 186.517 19.4773C186.119 19.7696 185.856 20.138 185.728 20.5824L182.272 20.3018C182.447 19.4831 182.792 18.7755 183.307 18.1791C183.821 17.5768 184.485 17.1148 185.298 16.7932C186.116 16.4658 187.064 16.302 188.14 16.302C188.888 16.302 189.604 16.3898 190.289 16.5652C190.979 16.7406 191.59 17.0125 192.122 17.3809C192.66 17.7493 193.084 18.223 193.394 18.8019C193.704 19.3749 193.859 20.062 193.859 20.8631V29.9502H190.315V28.0819H190.21C189.993 28.5029 189.704 28.8742 189.341 29.1959C188.979 29.5116 188.543 29.7602 188.034 29.9414C187.526 30.1169 186.938 30.2046 186.271 30.2046ZM187.341 27.6258C187.891 27.6258 188.376 27.5176 188.797 27.3013C189.218 27.0791 189.549 26.7808 189.789 26.4066C190.028 26.0323 190.148 25.6084 190.148 25.1347V23.705C190.031 23.781 189.87 23.8512 189.666 23.9155C189.467 23.974 189.242 24.0296 188.99 24.0822C188.739 24.129 188.488 24.1728 188.236 24.2138C187.985 24.2488 187.757 24.281 187.552 24.3102C187.113 24.3746 186.73 24.4769 186.403 24.6172C186.075 24.7576 185.821 24.9476 185.64 25.1874C185.459 25.4213 185.368 25.7137 185.368 26.0645C185.368 26.5732 185.552 26.9621 185.92 27.2311C186.295 27.4942 186.768 27.6258 187.341 27.6258ZM207.967 20.3193L204.546 20.5298C204.488 20.2374 204.362 19.9743 204.169 19.7404C203.976 19.5006 203.722 19.3106 203.406 19.1703C203.096 19.0241 202.725 18.951 202.292 18.951C201.713 18.951 201.225 19.0738 200.827 19.3194C200.43 19.5591 200.231 19.8807 200.231 20.2842C200.231 20.6058 200.36 20.8777 200.617 21.0999C200.874 21.3222 201.316 21.5005 201.941 21.635L204.38 22.1262C205.69 22.3952 206.666 22.8279 207.309 23.4243C207.953 24.0208 208.274 24.8044 208.274 25.7751C208.274 26.658 208.014 27.4328 207.494 28.0994C206.979 28.7661 206.271 29.2865 205.371 29.6607C204.476 30.0291 203.444 30.2133 202.275 30.2133C200.491 30.2133 199.07 29.842 198.012 29.0994C196.959 28.3509 196.342 27.3334 196.161 26.047L199.836 25.854C199.947 26.3978 200.216 26.813 200.643 27.0995C201.07 27.3802 201.617 27.5205 202.283 27.5205C202.938 27.5205 203.465 27.3948 203.862 27.1434C204.266 26.8861 204.47 26.5557 204.476 26.1522C204.47 25.8131 204.327 25.5353 204.046 25.3189C203.766 25.0967 203.333 24.9272 202.748 24.8102L200.415 24.3453C199.099 24.0822 198.12 23.6261 197.477 22.977C196.839 22.3279 196.521 21.5005 196.521 20.4947C196.521 19.6293 196.755 18.8837 197.222 18.258C197.696 17.6324 198.36 17.1499 199.213 16.8108C200.073 16.4716 201.079 16.302 202.231 16.302C203.932 16.302 205.271 16.6617 206.248 17.3809C207.23 18.1002 207.803 19.0796 207.967 20.3193ZM217.793 16.4775V19.2843H209.68V16.4775H217.793ZM211.522 13.2496H215.258V25.8101C215.258 26.1551 215.311 26.4241 215.416 26.6171C215.521 26.8042 215.668 26.9358 215.855 27.0118C216.048 27.0878 216.27 27.1258 216.521 27.1258C216.697 27.1258 216.872 27.1112 217.048 27.082C217.223 27.0469 217.358 27.0206 217.451 27.003L218.039 29.7835C217.852 29.842 217.589 29.9093 217.249 29.9853C216.91 30.0671 216.498 30.1169 216.013 30.1344C215.112 30.1695 214.323 30.0496 213.644 29.7748C212.972 29.4999 212.449 29.0731 212.074 28.4942C211.7 27.9153 211.516 27.1843 211.522 26.3013V13.2496ZM228.602 29.9502L224.935 16.4775H228.716L230.803 25.5295H230.926L233.101 16.4775H236.812L239.022 25.4768H239.136L241.188 16.4775H244.96L241.303 29.9502H237.347L235.031 21.4771H234.864L232.549 29.9502H228.602ZM252.756 30.2133C251.37 30.2133 250.177 29.9327 249.177 29.3713C248.183 28.8041 247.417 28.003 246.879 26.968C246.341 25.9271 246.072 24.6962 246.072 23.2752C246.072 21.8894 246.341 20.6731 246.879 19.6264C247.417 18.5797 248.174 17.7639 249.151 17.1792C250.133 16.5944 251.285 16.302 252.607 16.302C253.495 16.302 254.323 16.4453 255.089 16.7318C255.861 17.0125 256.533 17.4365 257.106 18.0037C257.685 18.5709 258.135 19.2843 258.457 20.1439C258.779 20.9976 258.939 21.9975 258.939 23.1437V24.1699H247.563V21.8543H255.422C255.422 21.3163 255.305 20.8397 255.071 20.4246C254.837 20.0094 254.513 19.6848 254.098 19.4509C253.688 19.2112 253.212 19.0913 252.668 19.0913C252.101 19.0913 251.598 19.2229 251.159 19.486C250.727 19.7433 250.387 20.0912 250.142 20.5298C249.896 20.9625 249.77 21.445 249.765 21.9771V24.1787C249.765 24.8453 249.887 25.4213 250.133 25.9066C250.384 26.392 250.738 26.7662 251.194 27.0293C251.65 27.2925 252.191 27.4241 252.817 27.4241C253.232 27.4241 253.612 27.3656 253.957 27.2486C254.302 27.1317 254.598 26.9563 254.843 26.7224C255.089 26.4885 255.276 26.2019 255.405 25.8628L258.86 26.0908C258.685 26.9212 258.325 27.6463 257.782 28.2661C257.244 28.8801 256.548 29.3596 255.694 29.7046C254.846 30.0438 253.867 30.2133 252.756 30.2133ZM267.518 30.2133C266.132 30.2133 264.939 29.9327 263.939 29.3713C262.945 28.8041 262.179 28.003 261.641 26.968C261.103 25.9271 260.834 24.6962 260.834 23.2752C260.834 21.8894 261.103 20.6731 261.641 19.6264C262.179 18.5797 262.936 17.7639 263.913 17.1792C264.895 16.5944 266.047 16.302 267.369 16.302C268.257 16.302 269.085 16.4453 269.851 16.7318C270.623 17.0125 271.295 17.4365 271.868 18.0037C272.447 18.5709 272.897 19.2843 273.219 20.1439C273.541 20.9976 273.702 21.9975 273.702 23.1437V24.1699H262.325V21.8543H270.184C270.184 21.3163 270.067 20.8397 269.833 20.4246C269.599 20.0094 269.275 19.6848 268.86 19.4509C268.45 19.2112 267.974 19.0913 267.43 19.0913C266.863 19.0913 266.36 19.2229 265.921 19.486C265.489 19.7433 265.15 20.0912 264.904 20.5298C264.658 20.9625 264.533 21.445 264.527 21.9771V24.1787C264.527 24.8453 264.65 25.4213 264.895 25.9066C265.147 26.392 265.5 26.7662 265.956 27.0293C266.413 27.2925 266.953 27.4241 267.579 27.4241C267.994 27.4241 268.374 27.3656 268.719 27.2486C269.064 27.1317 269.36 26.9563 269.605 26.7224C269.851 26.4885 270.038 26.2019 270.167 25.8628L273.623 26.0908C273.447 26.9212 273.088 27.6463 272.544 28.2661C272.006 28.8801 271.31 29.3596 270.456 29.7046C269.608 30.0438 268.629 30.2133 267.518 30.2133ZM279.526 26.0733L279.534 21.5911H280.078L284.394 16.4775H288.683L282.885 23.2489H281.999L279.526 26.0733ZM276.14 29.9502V11.9866H279.877V29.9502H276.14ZM284.56 29.9502L280.596 24.0822L283.087 21.442L288.937 29.9502H284.56Z" fill="#02B873"/>
</svg>
