<svg width="224" height="287" viewBox="0 0 224 287" fill="none" xmlns="http://www.w3.org/2000/svg">
<path d="M26.6364 24.4112H37.6556V50.4134C37.6556 53.5051 36.9157 56.1807 35.4359 58.44C33.9693 60.6861 31.9214 62.4236 29.2921 63.6523C26.6628 64.8679 23.6107 65.4756 20.1358 65.4756C16.6345 65.4756 13.5692 64.8679 10.9399 63.6523C8.31065 62.4236 6.26272 60.6861 4.79613 58.44C3.34276 56.1807 2.61607 53.5051 2.61607 50.4134V24.4112H13.6353V49.4621C13.6353 50.7173 13.9127 51.8404 14.4677 52.8313C15.0226 53.809 15.7889 54.5753 16.7666 55.1303C17.7576 55.6852 18.8806 55.9627 20.1358 55.9627C21.4042 55.9627 22.5273 55.6852 23.505 55.1303C24.4827 54.5753 25.2491 53.809 25.804 52.8313C26.3589 51.8404 26.6364 50.7173 26.6364 49.4621V24.4112ZM64.7726 37.0952C64.6669 35.774 64.1714 34.7434 63.2862 34.0035C62.4141 33.2636 61.0863 32.8937 59.3026 32.8937C58.1663 32.8937 57.2348 33.0324 56.5081 33.3099C55.7947 33.5741 55.2662 33.9374 54.9227 34.3999C54.5791 34.8623 54.4008 35.3908 54.3875 35.9854C54.3611 36.4742 54.447 36.9169 54.6452 37.3132C54.8566 37.6964 55.1869 38.0465 55.6361 38.3636C56.0854 38.6675 56.6601 38.945 57.3604 39.196C58.0606 39.4471 58.893 39.6717 59.8575 39.8699L63.1871 40.5833C65.4332 41.059 67.3556 41.6866 68.9543 42.4661C70.553 43.2456 71.8611 44.1639 72.8784 45.2209C73.8958 46.2647 74.6423 47.4406 75.1179 48.7486C75.6068 50.0567 75.8578 51.4836 75.871 53.0295C75.8578 55.6984 75.1906 57.9577 73.8694 59.8075C72.5481 61.6572 70.6587 63.0644 68.2012 64.0289C65.7569 64.9934 62.8171 65.4756 59.3819 65.4756C55.8541 65.4756 52.7756 64.9538 50.1463 63.91C47.5303 62.8662 45.4955 61.2609 44.0422 59.094C42.602 56.914 41.8753 54.1261 41.8621 50.7305H52.3264C52.3925 51.9725 52.703 53.0163 53.2579 53.8619C53.8128 54.7075 54.5923 55.3483 55.5965 55.7843C56.6139 56.2203 57.8228 56.4383 59.2233 56.4383C60.3992 56.4383 61.3836 56.293 62.1763 56.0023C62.9691 55.7116 63.5702 55.3086 63.9798 54.7934C64.3894 54.2781 64.6008 53.6901 64.614 53.0295C64.6008 52.4085 64.396 51.8668 63.9996 51.4044C63.6165 50.9287 62.9823 50.5059 62.097 50.136C61.2118 49.7528 60.0161 49.3961 58.5098 49.0657L54.4668 48.1937C50.873 47.4142 48.0389 46.1128 45.9646 44.2894C43.9034 42.4529 42.8795 39.9491 42.8927 36.7781C42.8795 34.2017 43.5665 31.949 44.9538 30.0199C46.3544 28.0777 48.29 26.5649 50.7607 25.4815C53.2447 24.398 56.092 23.8563 59.3026 23.8563C62.5793 23.8563 65.4134 24.4046 67.8048 25.5013C70.1963 26.5979 72.0394 28.1438 73.3343 30.1389C74.6423 32.1207 75.3029 34.4395 75.3161 37.0952H64.7726ZM80.0627 65V24.4112H109.315V33.29H91.0819V40.2662H107.809V49.145H91.0819V56.1212H109.236V65H80.0627ZM114.78 65V24.4112H132.3C135.312 24.4112 137.948 24.9596 140.208 26.0562C142.467 27.1528 144.224 28.7317 145.479 30.7929C146.735 32.854 147.362 35.3248 147.362 38.2051C147.362 41.1118 146.715 43.5627 145.42 45.5578C144.138 47.5529 142.335 49.0591 140.009 50.0765C137.697 51.0939 134.995 51.6025 131.904 51.6025H121.439V43.0408H129.684C130.979 43.0408 132.082 42.8823 132.994 42.5652C133.918 42.2349 134.625 41.713 135.114 40.9995C135.616 40.286 135.867 39.3546 135.867 38.2051C135.867 37.0424 135.616 36.0977 135.114 35.371C134.625 34.6311 133.918 34.0894 132.994 33.7459C132.082 33.3891 130.979 33.2108 129.684 33.2108H125.799V65H114.78ZM138.563 46.3704L148.71 65H136.739L126.83 46.3704H138.563ZM173.939 37.0952C173.833 35.774 173.338 34.7434 172.453 34.0035C171.581 33.2636 170.253 32.8937 168.469 32.8937C167.333 32.8937 166.401 33.0324 165.675 33.3099C164.961 33.5741 164.433 33.9374 164.089 34.3999C163.746 34.8623 163.567 35.3908 163.554 35.9854C163.528 36.4742 163.614 36.9169 163.812 37.3132C164.023 37.6964 164.353 38.0465 164.803 38.3636C165.252 38.6675 165.827 38.945 166.527 39.196C167.227 39.4471 168.06 39.6717 169.024 39.8699L172.354 40.5833C174.6 41.059 176.522 41.6866 178.121 42.4661C179.72 43.2456 181.028 44.1639 182.045 45.2209C183.062 46.2647 183.809 47.4406 184.284 48.7486C184.773 50.0567 185.024 51.4836 185.038 53.0295C185.024 55.6984 184.357 57.9577 183.036 59.8075C181.715 61.6572 179.825 63.0644 177.368 64.0289C174.923 64.9934 171.984 65.4756 168.548 65.4756C165.021 65.4756 161.942 64.9538 159.313 63.91C156.697 62.8662 154.662 61.2609 153.209 59.094C151.769 56.914 151.042 54.1261 151.029 50.7305H161.493C161.559 51.9725 161.869 53.0163 162.424 53.8619C162.979 54.7075 163.759 55.3483 164.763 55.7843C165.78 56.2203 166.989 56.4383 168.39 56.4383C169.566 56.4383 170.55 56.293 171.343 56.0023C172.136 55.7116 172.737 55.3086 173.146 54.7934C173.556 54.2781 173.767 53.6901 173.781 53.0295C173.767 52.4085 173.563 51.8668 173.166 51.4044C172.783 50.9287 172.149 50.5059 171.264 50.136C170.378 49.7528 169.183 49.3961 167.676 49.0657L163.633 48.1937C160.04 47.4142 157.205 46.1128 155.131 44.2894C153.07 42.4529 152.046 39.9491 152.059 36.7781C152.046 34.2017 152.733 31.949 154.12 30.0199C155.521 28.0777 157.456 26.5649 159.927 25.4815C162.411 24.398 165.258 23.8563 168.469 23.8563C171.746 23.8563 174.58 24.4046 176.971 25.5013C179.363 26.5979 181.206 28.1438 182.501 30.1389C183.809 32.1207 184.469 34.4395 184.483 37.0952H173.939Z" fill="#02B873"/>
<g clip-path="url(#clip0_159_65)">
<rect x="0.427246" y="89" width="197.308" height="197.306" rx="12.825" fill="#02B873"/>
<path d="M131.857 168.553C142.762 168.553 151.634 159.681 151.634 148.774C151.634 137.869 142.762 128.997 131.857 128.997C120.952 128.997 112.08 137.869 112.08 148.774C112.08 159.681 120.952 168.553 131.857 168.553Z" fill="#02B873" stroke="white" stroke-width="5.13"/>
<path d="M97.4624 203.191V217.871H166.253V203.191C166.253 184.226 150.823 168.795 131.858 168.795C112.893 168.795 97.4624 184.226 97.4624 203.191Z" fill="#02B873" stroke="white" stroke-width="5.13"/>
<path d="M72.915 187.515C85.9155 187.515 96.4926 176.938 96.4926 163.935C96.4926 150.934 85.9155 140.357 72.915 140.357C59.9144 140.357 49.3374 150.934 49.3374 163.935C49.3374 176.938 59.9144 187.515 72.915 187.515Z" fill="#02B873" stroke="white" stroke-width="5.13"/>
<path d="M31.9102 228.809V246.309H113.92V228.809C113.92 206.199 95.5246 187.804 72.9152 187.804C50.3058 187.804 31.9102 206.199 31.9102 228.809Z" fill="#02B873" stroke="white" stroke-width="5.13"/>
</g>
<defs>
<clipPath id="clip0_159_65">
<rect width="223.155" height="197.505" fill="white" transform="translate(0 89)"/>
</clipPath>
</defs>
</svg>
