<svg width="231" height="231" viewBox="0 0 231 231" fill="none" xmlns="http://www.w3.org/2000/svg">
<rect width="230.77" height="230.767" rx="15" fill="#02B873"/>
<path d="M54.0077 101.274C65.3633 101.274 74.6019 92.0349 74.6019 80.6767C74.6019 69.3212 65.3633 60.0825 54.0077 60.0825C42.6522 60.0825 33.4136 69.3212 33.4136 80.6767C33.4136 92.0349 42.6522 101.274 54.0077 101.274Z" fill="#02B873" stroke="white" stroke-width="6"/>
<path d="M18.1919 137.342V152.628H89.8247V137.342C89.8247 117.593 73.7568 101.525 54.0083 101.525C34.2598 101.525 18.1919 117.593 18.1919 137.342Z" fill="#02B873" stroke="white" stroke-width="6"/>
<path d="M176.763 101.274C188.118 101.274 197.357 92.0349 197.357 80.6767C197.357 69.3212 188.118 60.0825 176.763 60.0825C165.407 60.0825 156.168 69.3212 156.168 80.6767C156.168 92.0349 165.407 101.274 176.763 101.274Z" fill="#02B873" stroke="white" stroke-width="6"/>
<path d="M140.946 137.342V152.628H212.579V137.342C212.579 117.593 196.511 101.525 176.763 101.525C157.014 101.525 140.946 117.593 140.946 137.342Z" fill="#02B873" stroke="white" stroke-width="6"/>
<path d="M115.385 121.018C128.923 121.018 139.937 110.004 139.937 96.4637C139.937 82.9261 128.923 71.9121 115.385 71.9121C101.847 71.9121 90.8335 82.9261 90.8335 96.4637C90.8335 110.004 101.847 121.018 115.385 121.018Z" fill="#02B873" stroke="white" stroke-width="6"/>
<path d="M72.6865 164.018V182.241H158.084V164.018C158.084 140.474 138.929 121.319 115.385 121.319C91.8421 121.319 72.6865 140.474 72.6865 164.018Z" fill="#02B873" stroke="white" stroke-width="6"/>
</svg>
