<svg width="232" height="231" viewBox="0 0 232 231" fill="none" xmlns="http://www.w3.org/2000/svg">
<rect x="0.712402" y="0.133301" width="230.77" height="230.767" rx="15" fill="#02B873"/>
<path d="M79.5484 192.733C69.3353 192.733 59.1013 192.733 48.8881 192.733C47.4708 192.733 46.0534 192.733 44.6152 192.733C45.6574 193.775 46.6996 194.817 47.7417 195.859C47.7417 190.002 47.7417 184.145 47.7417 178.288C47.7417 168.971 47.7417 159.634 47.7417 150.317C47.7417 148.191 47.7417 146.044 47.7417 143.918C46.6996 144.96 45.6574 146.002 44.6152 147.044C54.8284 147.044 65.0624 147.044 75.2756 147.044C76.6929 147.044 78.1102 147.044 79.5484 147.044C78.5063 146.002 77.4641 144.96 76.4219 143.918C76.4219 149.775 76.4219 155.632 76.4219 161.489C76.4219 170.806 76.4219 180.143 76.4219 189.46C76.4219 191.586 76.4219 193.733 76.4219 195.859C76.4219 197.485 77.8601 199.069 79.5484 198.986C81.2367 198.902 82.6749 197.61 82.6749 195.859C82.6749 190.002 82.6749 184.145 82.6749 178.288C82.6749 168.971 82.6749 159.634 82.6749 150.317C82.6749 148.191 82.6749 146.044 82.6749 143.918C82.6749 142.23 81.2367 140.792 79.5484 140.792C69.3353 140.792 59.1013 140.792 48.8881 140.792C47.4708 140.792 46.0534 140.792 44.6152 140.792C42.9269 140.792 41.4888 142.23 41.4888 143.918C41.4888 149.775 41.4888 155.632 41.4888 161.489C41.4888 170.806 41.4888 180.143 41.4888 189.46C41.4888 191.586 41.4888 193.733 41.4888 195.859C41.4888 197.547 42.9269 198.986 44.6152 198.986C54.8284 198.986 65.0624 198.986 75.2756 198.986C76.6929 198.986 78.1102 198.986 79.5484 198.986C81.1742 198.986 82.7583 197.547 82.6749 195.859C82.5915 194.171 81.2993 192.733 79.5484 192.733Z" fill="white"/>
<path d="M133.574 192.732C123.361 192.732 113.127 192.732 102.914 192.732C101.497 192.732 100.079 192.732 98.6411 192.732C99.6832 193.774 100.725 194.817 101.768 195.859C101.768 193.462 101.768 191.044 101.768 188.647C101.768 182.873 101.768 177.1 101.768 171.326C101.768 164.344 101.768 157.341 101.768 150.358C101.768 144.314 101.768 138.248 101.768 132.204C101.768 129.265 101.955 126.263 101.768 123.345C101.768 123.304 101.768 123.262 101.768 123.22C100.725 124.262 99.6832 125.305 98.6411 126.347C108.854 126.347 119.088 126.347 129.301 126.347C130.719 126.347 132.136 126.347 133.574 126.347C132.532 125.305 131.49 124.262 130.448 123.22C130.448 125.617 130.448 128.035 130.448 130.432C130.448 136.206 130.448 141.979 130.448 147.753C130.448 154.735 130.448 161.738 130.448 168.721C130.448 174.765 130.448 180.831 130.448 186.875C130.448 189.814 130.344 192.795 130.448 195.734C130.448 195.775 130.448 195.817 130.448 195.859C130.448 197.484 131.886 199.069 133.574 198.985C135.263 198.902 136.701 197.61 136.701 195.859C136.701 193.462 136.701 191.044 136.701 188.647C136.701 182.873 136.701 177.1 136.701 171.326C136.701 164.344 136.701 157.341 136.701 150.358C136.701 144.314 136.701 138.248 136.701 132.204C136.701 129.265 136.805 126.284 136.701 123.345C136.701 123.304 136.701 123.262 136.701 123.22C136.701 121.532 135.263 120.094 133.574 120.094C123.361 120.094 113.127 120.094 102.914 120.094C101.497 120.094 100.079 120.094 98.6411 120.094C96.9528 120.094 95.5146 121.532 95.5146 123.22C95.5146 125.617 95.5146 128.035 95.5146 130.432C95.5146 136.206 95.5146 141.979 95.5146 147.753C95.5146 154.735 95.5146 161.738 95.5146 168.721C95.5146 174.765 95.5146 180.831 95.5146 186.875C95.5146 189.814 95.4104 192.795 95.5146 195.734C95.5146 195.775 95.5146 195.817 95.5146 195.859C95.5146 197.547 96.9528 198.985 98.6411 198.985C108.854 198.985 119.088 198.985 129.301 198.985C130.719 198.985 132.136 198.985 133.574 198.985C135.2 198.985 136.784 197.547 136.701 195.859C136.617 194.17 135.325 192.732 133.574 192.732Z" fill="white"/>
<path d="M187.6 192.733C177.386 192.733 167.152 192.733 156.939 192.733C155.522 192.733 154.105 192.733 152.666 192.733C153.709 193.775 154.751 194.817 155.793 195.859C155.793 192.587 155.793 189.315 155.793 186.042C155.793 178.143 155.793 170.243 155.793 162.364C155.793 152.839 155.793 143.335 155.793 133.809C155.793 125.555 155.793 117.301 155.793 109.047C155.793 105.087 156.022 101.044 155.793 97.0835C155.793 97.021 155.793 96.9793 155.793 96.9168C154.751 97.9589 153.709 99.0011 152.666 100.043C162.88 100.043 173.114 100.043 183.327 100.043C184.744 100.043 186.161 100.043 187.6 100.043C186.557 99.0011 185.515 97.9589 184.473 96.9168C184.473 100.189 184.473 103.462 184.473 106.734C184.473 114.633 184.473 122.533 184.473 130.412C184.473 139.937 184.473 149.442 184.473 158.967C184.473 167.221 184.473 175.475 184.473 183.729C184.473 187.71 184.348 191.712 184.473 195.693C184.473 195.755 184.473 195.797 184.473 195.859C184.473 197.485 185.911 199.069 187.6 198.986C189.288 198.902 190.726 197.61 190.726 195.859C190.726 192.587 190.726 189.315 190.726 186.042C190.726 178.143 190.726 170.243 190.726 162.364C190.726 152.839 190.726 143.335 190.726 133.809C190.726 125.555 190.726 117.301 190.726 109.047C190.726 105.066 190.851 101.065 190.726 97.0835C190.726 97.021 190.726 96.9793 190.726 96.9168C190.726 95.2285 189.288 93.7903 187.6 93.7903C177.386 93.7903 167.152 93.7903 156.939 93.7903C155.522 93.7903 154.105 93.7903 152.666 93.7903C150.978 93.7903 149.54 95.2285 149.54 96.9168C149.54 100.189 149.54 103.462 149.54 106.734C149.54 114.633 149.54 122.533 149.54 130.412C149.54 139.937 149.54 149.442 149.54 158.967C149.54 167.221 149.54 175.475 149.54 183.729C149.54 187.71 149.415 191.712 149.54 195.693C149.54 195.755 149.54 195.797 149.54 195.859C149.54 197.548 150.978 198.986 152.666 198.986C162.88 198.986 173.114 198.986 183.327 198.986C184.744 198.986 186.161 198.986 187.6 198.986C189.225 198.986 190.809 197.548 190.726 195.859C190.664 194.171 189.371 192.733 187.6 192.733Z" fill="white"/>
<path d="M44.6151 120.594C54.1405 119.677 63.5616 117.76 72.7743 115.133C82.9666 112.215 92.9088 108.401 102.559 103.982C112.751 99.3134 122.61 93.915 132.073 87.8913C142.12 81.4925 151.728 74.4058 160.837 66.7355C170.091 58.9401 178.804 50.4986 186.849 41.4736C187.849 40.348 188.85 39.2016 189.83 38.0553C190.934 36.7838 191.08 34.8871 189.83 33.6365C188.704 32.511 186.516 32.3442 185.411 33.6365C177.574 42.745 169.091 51.2907 160.045 59.2111C151.228 66.9231 142.453 73.6137 132.636 80.096C123.298 86.2656 113.564 91.8307 103.476 96.6871C101.058 97.8544 98.599 98.9799 96.1395 100.064C95.5767 100.314 95.0139 100.564 94.4512 100.793C94.1802 100.918 93.8884 101.043 93.5966 101.148C93.1172 101.356 93.9718 100.981 93.4924 101.189C93.3048 101.273 93.1172 101.356 92.9296 101.419C91.7207 101.919 90.491 102.419 89.2821 102.898C84.5715 104.753 79.7776 106.463 74.942 107.963C70.2731 109.401 65.5417 110.673 60.7894 111.736C58.4967 112.236 56.1831 112.695 53.8695 113.091C52.744 113.278 51.5976 113.466 50.4721 113.633C50.222 113.674 49.951 113.716 49.7009 113.737C49.5758 113.758 48.6796 113.883 49.0756 113.82C49.4508 113.758 48.7004 113.862 48.5962 113.883C48.3044 113.924 47.9917 113.966 47.6999 113.987C46.6786 114.112 45.6573 114.216 44.636 114.32C43.0102 114.487 41.4261 115.654 41.5095 117.447C41.5512 119.01 42.8643 120.761 44.6151 120.594Z" fill="white"/>
<path d="M164.693 38.9517C171.384 38.9517 178.054 38.9517 184.744 38.9517C185.703 38.9517 186.662 38.9517 187.621 38.9517C186.578 37.9095 185.536 36.8674 184.494 35.8252C184.494 42.5159 184.494 49.1857 184.494 55.8764C184.494 56.8351 184.494 57.7939 184.494 58.7527C184.494 60.3785 185.932 61.9626 187.621 61.8792C189.309 61.7958 190.747 60.5035 190.747 58.7527C190.747 52.0621 190.747 45.3922 190.747 38.7016C190.747 37.7428 190.747 36.784 190.747 35.8252C190.747 34.1369 189.309 32.6987 187.621 32.6987C180.93 32.6987 174.26 32.6987 167.569 32.6987C166.611 32.6987 165.652 32.6987 164.693 32.6987C163.067 32.6987 161.483 34.1369 161.567 35.8252C161.65 37.5135 162.942 38.9517 164.693 38.9517Z" fill="white"/>
<path d="M33.4226 198.986C34.9025 198.986 36.3823 198.986 37.8622 198.986C41.8641 198.986 45.866 198.986 49.8679 198.986C55.8082 198.986 61.7485 198.986 67.6888 198.986C74.9005 198.986 82.1331 198.986 89.3449 198.986C97.2861 198.986 105.227 198.986 113.169 198.986C121.152 198.986 129.135 198.986 137.117 198.986C144.6 198.986 152.062 198.986 159.545 198.986C165.839 198.986 172.134 198.986 178.429 198.986C182.972 198.986 187.516 198.986 192.06 198.986C194.207 198.986 196.354 199.028 198.501 198.986C198.584 198.986 198.688 198.986 198.772 198.986C200.397 198.986 201.981 197.548 201.898 195.859C201.815 194.171 200.522 192.733 198.772 192.733C197.292 192.733 195.812 192.733 194.332 192.733C190.33 192.733 186.328 192.733 182.326 192.733C176.386 192.733 170.446 192.733 164.505 192.733C157.294 192.733 150.061 192.733 142.849 192.733C134.908 192.733 126.967 192.733 119.026 192.733C111.043 192.733 103.06 192.733 95.0767 192.733C87.594 192.733 80.1322 192.733 72.6495 192.733C66.3548 192.733 60.0602 192.733 53.7655 192.733C49.2217 192.733 44.6779 192.733 40.1341 192.733C37.9873 192.733 35.8404 192.691 33.6936 192.733C33.6102 192.733 33.506 192.733 33.4226 192.733C31.7968 192.733 30.2127 194.171 30.2961 195.859C30.3795 197.548 31.6718 198.986 33.4226 198.986Z" fill="white"/>
</svg>
