<svg width="1423" height="169" viewBox="0 0 1423 169" fill="none" xmlns="http://www.w3.org/2000/svg">
<path d="M2.61607 65V24.4112H20.1358C23.1483 24.4112 25.7842 24.9596 28.0435 26.0562C30.3028 27.1528 32.0601 28.7317 33.3153 30.7929C34.5705 32.854 35.1981 35.3248 35.1981 38.2051C35.1981 41.1118 34.5507 43.5627 33.2558 45.5578C31.9742 47.5529 30.1707 49.0591 27.8453 50.0765C25.5331 51.0939 22.8312 51.6025 19.7395 51.6025H9.27517V43.0408H17.5198C18.8146 43.0408 19.9178 42.8823 20.8295 42.5652C21.7544 42.2349 22.4612 41.713 22.9501 40.9995C23.4522 40.286 23.7032 39.3546 23.7032 38.2051C23.7032 37.0424 23.4522 36.0977 22.9501 35.371C22.4612 34.6311 21.7544 34.0894 20.8295 33.7459C19.9178 33.3891 18.8146 33.2108 17.5198 33.2108H13.6353V65H2.61607ZM26.3985 46.3704L36.5457 65H24.5752L14.6659 46.3704H26.3985ZM39.8951 65V24.4112H69.1475V33.29H50.9143V40.2662H67.6413V49.145H50.9143V56.1212H69.0683V65H39.8951ZM112.506 39.632H101.328C101.249 38.7072 101.038 37.8682 100.694 37.115C100.364 36.3619 99.9013 35.7145 99.3067 35.1728C98.7253 34.6179 98.0185 34.1951 97.1861 33.9044C96.3537 33.6005 95.409 33.4486 94.352 33.4486C92.5023 33.4486 90.9366 33.8978 89.655 34.7963C88.3866 35.6947 87.4221 36.9829 86.7614 38.6609C86.114 40.3389 85.7903 42.3538 85.7903 44.7056C85.7903 47.1896 86.1206 49.2705 86.7813 50.9485C87.4551 52.6133 88.4262 53.8685 89.6946 54.7141C90.963 55.5465 92.4891 55.9627 94.2727 55.9627C95.2901 55.9627 96.2018 55.8371 97.0077 55.5861C97.8137 55.3219 98.5139 54.9453 99.1085 54.4564C99.7031 53.9676 100.185 53.3796 100.555 52.6926C100.938 51.9923 101.196 51.2062 101.328 50.3341L112.506 50.4134C112.374 52.131 111.892 53.8817 111.059 55.6654C110.227 57.4359 109.044 59.0742 107.512 60.5804C105.992 62.0734 104.109 63.2758 101.863 64.1874C99.6172 65.0991 97.0077 65.5549 94.0349 65.5549C90.309 65.5549 86.9662 64.7556 84.0066 63.1569C81.0603 61.5581 78.7283 59.2063 77.0106 56.1014C75.3062 52.9965 74.454 49.1979 74.454 44.7056C74.454 40.187 75.326 36.3818 77.0701 33.29C78.8141 30.1851 81.166 27.8399 84.1256 26.2544C87.0851 24.6557 90.3883 23.8563 94.0349 23.8563C96.5981 23.8563 98.9566 24.2064 101.11 24.9067C103.264 25.607 105.153 26.6309 106.778 27.9786C108.403 29.3131 109.712 30.958 110.702 32.9135C111.693 34.8689 112.295 37.1084 112.506 39.632ZM156.826 44.7056C156.826 49.2243 155.947 53.0361 154.19 56.141C152.432 59.2327 150.061 61.578 147.075 63.1767C144.089 64.7622 140.759 65.5549 137.086 65.5549C133.387 65.5549 130.044 64.7556 127.058 63.1569C124.085 61.5449 121.72 59.1931 119.963 56.1014C118.219 52.9965 117.347 49.1979 117.347 44.7056C117.347 40.187 118.219 36.3818 119.963 33.29C121.72 30.1851 124.085 27.8399 127.058 26.2544C130.044 24.6557 133.387 23.8563 137.086 23.8563C140.759 23.8563 144.089 24.6557 147.075 26.2544C150.061 27.8399 152.432 30.1851 154.19 33.29C155.947 36.3818 156.826 40.187 156.826 44.7056ZM145.489 44.7056C145.489 42.2745 145.166 40.2266 144.518 38.5618C143.884 36.8838 142.939 35.6154 141.684 34.7566C140.442 33.8846 138.909 33.4486 137.086 33.4486C135.263 33.4486 133.724 33.8846 132.468 34.7566C131.226 35.6154 130.282 36.8838 129.634 38.5618C129 40.2266 128.683 42.2745 128.683 44.7056C128.683 47.1367 129 49.1913 129.634 50.8692C130.282 52.534 131.226 53.8024 132.468 54.6744C133.724 55.5333 135.263 55.9627 137.086 55.9627C138.909 55.9627 140.442 55.5333 141.684 54.6744C142.939 53.8024 143.884 52.534 144.518 50.8692C145.166 49.1913 145.489 47.1367 145.489 44.7056ZM161.924 65V24.4112H179.444C182.456 24.4112 185.092 24.9596 187.351 26.0562C189.611 27.1528 191.368 28.7317 192.623 30.7929C193.878 32.854 194.506 35.3248 194.506 38.2051C194.506 41.1118 193.859 43.5627 192.564 45.5578C191.282 47.5529 189.479 49.0591 187.153 50.0765C184.841 51.0939 182.139 51.6025 179.047 51.6025H168.583V43.0408H176.828C178.122 43.0408 179.226 42.8823 180.137 42.5652C181.062 42.2349 181.769 41.713 182.258 40.9995C182.76 40.286 183.011 39.3546 183.011 38.2051C183.011 37.0424 182.76 36.0977 182.258 35.371C181.769 34.6311 181.062 34.0894 180.137 33.7459C179.226 33.3891 178.122 33.2108 176.828 33.2108H172.943V65H161.924ZM185.706 46.3704L195.854 65H183.883L173.974 46.3704H185.706ZM214.82 65H199.203V24.4112H214.662C218.837 24.4112 222.444 25.2238 225.483 26.8489C228.535 28.4609 230.887 30.7863 232.538 33.8251C234.203 36.8508 235.035 40.4776 235.035 44.7056C235.035 48.9336 234.209 52.5671 232.558 55.6059C230.906 58.6316 228.568 60.957 225.542 62.5821C222.516 64.194 218.942 65 214.82 65ZM210.222 55.6456H214.424C216.432 55.6456 218.143 55.3219 219.557 54.6744C220.984 54.027 222.067 52.9106 222.807 51.3251C223.56 49.7396 223.937 47.5331 223.937 44.7056C223.937 41.8781 223.554 39.6717 222.787 38.0862C222.034 36.5007 220.924 35.3842 219.458 34.7368C218.004 34.0894 216.221 33.7657 214.107 33.7657H210.222V55.6456ZM286.371 24.4112V65H277.175L262.509 43.675H262.271V65H251.252V24.4112H260.606L275.034 45.6569H275.352V24.4112H286.371ZM315.603 24.4112H326.623V50.4134C326.623 53.5051 325.883 56.1807 324.403 58.44C322.936 60.6861 320.888 62.4236 318.259 63.6523C315.63 64.8679 312.578 65.4756 309.103 65.4756C305.601 65.4756 302.536 64.8679 299.907 63.6523C297.278 62.4236 295.23 60.6861 293.763 58.44C292.31 56.1807 291.583 53.5051 291.583 50.4134V24.4112H302.602V49.4621C302.602 50.7173 302.88 51.8404 303.435 52.8313C303.99 53.809 304.756 54.5753 305.734 55.1303C306.725 55.6852 307.848 55.9627 309.103 55.9627C310.371 55.9627 311.494 55.6852 312.472 55.1303C313.45 54.5753 314.216 53.809 314.771 52.8313C315.326 51.8404 315.603 50.7173 315.603 49.4621V24.4112ZM331.86 24.4112H345.574L355.008 47.401H355.484L364.917 24.4112H378.632V65H367.85V41.5346H367.533L358.496 64.6829H351.995L342.958 41.3761H342.641V65H331.86V24.4112ZM383.854 65V24.4112H401.453C404.545 24.4112 407.141 24.8274 409.242 25.6598C411.356 26.4922 412.948 27.6681 414.018 29.1876C415.102 30.707 415.643 32.4973 415.643 34.5584C415.643 36.0514 415.313 37.4123 414.652 38.6411C414.005 39.8699 413.093 40.9004 411.917 41.7328C410.741 42.552 409.367 43.1201 407.795 43.4372V43.8336C409.539 43.8997 411.125 44.3423 412.552 45.1615C413.979 45.9674 415.115 47.0839 415.96 48.5108C416.806 49.9246 417.229 51.5893 417.229 53.5051C417.229 55.7248 416.647 57.7001 415.485 59.4309C414.335 61.1618 412.697 62.5227 410.57 63.5136C408.443 64.5045 405.906 65 402.959 65H383.854ZM394.873 56.2005H400.026C401.876 56.2005 403.263 55.857 404.188 55.1699C405.113 54.4696 405.575 53.4391 405.575 52.0782C405.575 51.1269 405.357 50.3209 404.921 49.6603C404.485 48.9997 403.864 48.4976 403.058 48.1541C402.266 47.8106 401.308 47.6388 400.185 47.6388H394.873V56.2005ZM394.873 40.8212H399.392C400.356 40.8212 401.209 40.6692 401.949 40.3653C402.688 40.0614 403.263 39.6254 403.673 39.0573C404.096 38.4759 404.307 37.7691 404.307 36.9367C404.307 35.6815 403.858 34.7236 402.959 34.063C402.061 33.3891 400.925 33.0522 399.551 33.0522H394.873V40.8212ZM421.133 65V24.4112H450.386V33.29H432.152V40.2662H448.879V49.145H432.152V56.1212H450.306V65H421.133ZM455.851 65V24.4112H473.37C476.383 24.4112 479.019 24.9596 481.278 26.0562C483.537 27.1528 485.295 28.7317 486.55 30.7929C487.805 32.854 488.433 35.3248 488.433 38.2051C488.433 41.1118 487.785 43.5627 486.49 45.5578C485.209 47.5529 483.405 49.0591 481.08 50.0765C478.768 51.0939 476.066 51.6025 472.974 51.6025H462.51V43.0408H470.754C472.049 43.0408 473.152 42.8823 474.064 42.5652C474.989 42.2349 475.696 41.713 476.185 40.9995C476.687 40.286 476.938 39.3546 476.938 38.2051C476.938 37.0424 476.687 36.0977 476.185 35.371C475.696 34.6311 474.989 34.0894 474.064 33.7459C473.152 33.3891 472.049 33.2108 470.754 33.2108H466.87V65H455.851ZM479.633 46.3704L489.78 65H477.81L467.9 46.3704H479.633ZM543.568 44.7056C543.568 49.2243 542.69 53.0361 540.932 56.141C539.175 59.2327 536.803 61.578 533.817 63.1767C530.831 64.7622 527.502 65.5549 523.829 65.5549C520.129 65.5549 516.787 64.7556 513.801 63.1569C510.828 61.5449 508.463 59.1931 506.705 56.1014C504.961 52.9965 504.089 49.1979 504.089 44.7056C504.089 40.187 504.961 36.3818 506.705 33.29C508.463 30.1851 510.828 27.8399 513.801 26.2544C516.787 24.6557 520.129 23.8563 523.829 23.8563C527.502 23.8563 530.831 24.6557 533.817 26.2544C536.803 27.8399 539.175 30.1851 540.932 33.29C542.69 36.3818 543.568 40.187 543.568 44.7056ZM532.232 44.7056C532.232 42.2745 531.908 40.2266 531.261 38.5618C530.627 36.8838 529.682 35.6154 528.427 34.7566C527.185 33.8846 525.652 33.4486 523.829 33.4486C522.005 33.4486 520.466 33.8846 519.211 34.7566C517.969 35.6154 517.024 36.8838 516.377 38.5618C515.743 40.2266 515.426 42.2745 515.426 44.7056C515.426 47.1367 515.743 49.1913 516.377 50.8692C517.024 52.534 517.969 53.8024 519.211 54.6744C520.466 55.5333 522.005 55.9627 523.829 55.9627C525.652 55.9627 527.185 55.5333 528.427 54.6744C529.682 53.8024 530.627 52.534 531.261 50.8692C531.908 49.1913 532.232 47.1367 532.232 44.7056ZM548.667 65V24.4112H577.206V33.29H559.686V40.2662H575.462V49.145H559.686V65H548.667ZM592.377 65V24.4112H609.897C612.909 24.4112 615.545 24.9596 617.804 26.0562C620.064 27.1528 621.821 28.7317 623.076 30.7929C624.331 32.854 624.959 35.3248 624.959 38.2051C624.959 41.1118 624.311 43.5627 623.017 45.5578C621.735 47.5529 619.932 49.0591 617.606 50.0765C615.294 51.0939 612.592 51.6025 609.5 51.6025H599.036V43.0408H607.281C608.575 43.0408 609.679 42.8823 610.59 42.5652C611.515 42.2349 612.222 41.713 612.711 40.9995C613.213 40.286 613.464 39.3546 613.464 38.2051C613.464 37.0424 613.213 36.0977 612.711 35.371C612.222 34.6311 611.515 34.0894 610.59 33.7459C609.679 33.3891 608.575 33.2108 607.281 33.2108H603.396V65H592.377ZM616.159 46.3704L626.307 65H614.336L604.427 46.3704H616.159ZM629.656 65V24.4112H658.908V33.29H640.675V40.2662H657.402V49.145H640.675V56.1212H658.829V65H629.656ZM702.267 39.632H691.089C691.01 38.7072 690.798 37.8682 690.455 37.115C690.124 36.3619 689.662 35.7145 689.067 35.1728C688.486 34.6179 687.779 34.1951 686.947 33.9044C686.114 33.6005 685.17 33.4486 684.113 33.4486C682.263 33.4486 680.697 33.8978 679.416 34.7963C678.147 35.6947 677.183 36.9829 676.522 38.6609C675.875 40.3389 675.551 42.3538 675.551 44.7056C675.551 47.1896 675.881 49.2705 676.542 50.9485C677.216 52.6133 678.187 53.8685 679.455 54.7141C680.724 55.5465 682.25 55.9627 684.034 55.9627C685.051 55.9627 685.963 55.8371 686.769 55.5861C687.574 55.3219 688.275 54.9453 688.869 54.4564C689.464 53.9676 689.946 53.3796 690.316 52.6926C690.699 51.9923 690.957 51.2062 691.089 50.3341L702.267 50.4134C702.135 52.131 701.652 53.8817 700.82 55.6654C699.988 57.4359 698.805 59.0742 697.272 60.5804C695.753 62.0734 693.87 63.2758 691.624 64.1874C689.378 65.0991 686.768 65.5549 683.796 65.5549C680.07 65.5549 676.727 64.7556 673.767 63.1569C670.821 61.5581 668.489 59.2063 666.771 56.1014C665.067 52.9965 664.215 49.1979 664.215 44.7056C664.215 40.187 665.087 36.3818 666.831 33.29C668.575 30.1851 670.927 27.8399 673.886 26.2544C676.846 24.6557 680.149 23.8563 683.796 23.8563C686.359 23.8563 688.717 24.2064 690.871 24.9067C693.025 25.607 694.914 26.6309 696.539 27.9786C698.164 29.3131 699.472 30.958 700.463 32.9135C701.454 34.8689 702.055 37.1084 702.267 39.632ZM705.601 24.4112H717.889L725.816 40.9004H726.133L734.061 24.4112H746.349L731.445 52.2367V65H720.505V52.2367L705.601 24.4112ZM785 39.632H773.822C773.743 38.7072 773.532 37.8682 773.188 37.115C772.858 36.3619 772.395 35.7145 771.801 35.1728C771.219 34.6179 770.513 34.1951 769.68 33.9044C768.848 33.6005 767.903 33.4486 766.846 33.4486C764.996 33.4486 763.431 33.8978 762.149 34.7963C760.881 35.6947 759.916 36.9829 759.255 38.6609C758.608 40.3389 758.284 42.3538 758.284 44.7056C758.284 47.1896 758.615 49.2705 759.275 50.9485C759.949 52.6133 760.92 53.8685 762.189 54.7141C763.457 55.5465 764.983 55.9627 766.767 55.9627C767.784 55.9627 768.696 55.8371 769.502 55.5861C770.308 55.3219 771.008 54.9453 771.603 54.4564C772.197 53.9676 772.679 53.3796 773.049 52.6926C773.432 51.9923 773.69 51.2062 773.822 50.3341L785 50.4134C784.868 52.131 784.386 53.8817 783.553 55.6654C782.721 57.4359 781.538 59.0742 780.006 60.5804C778.486 62.0734 776.603 63.2758 774.357 64.1874C772.111 65.0991 769.502 65.5549 766.529 65.5549C762.803 65.5549 759.46 64.7556 756.501 63.1569C753.554 61.5581 751.222 59.2063 749.505 56.1014C747.8 52.9965 746.948 49.1979 746.948 44.7056C746.948 40.187 747.82 36.3818 749.564 33.29C751.308 30.1851 753.66 27.8399 756.62 26.2544C759.579 24.6557 762.882 23.8563 766.529 23.8563C769.092 23.8563 771.451 24.2064 773.604 24.9067C775.758 25.607 777.647 26.6309 779.272 27.9786C780.898 29.3131 782.206 30.958 783.197 32.9135C784.187 34.8689 784.789 37.1084 785 39.632ZM789.999 65V24.4112H801.019V56.1212H817.428V65H789.999ZM832.426 65H820.535L833.932 24.4112H848.995L862.392 65H850.501L841.622 35.589H841.305L832.426 65ZM830.207 48.9865H852.562V57.2311H830.207V48.9865ZM866.301 65V24.4112H883.9C886.992 24.4112 889.588 24.8274 891.689 25.6598C893.803 26.4922 895.395 27.6681 896.465 29.1876C897.549 30.707 898.091 32.4973 898.091 34.5584C898.091 36.0514 897.76 37.4123 897.1 38.6411C896.452 39.8699 895.541 40.9004 894.365 41.7328C893.189 42.552 891.815 43.1201 890.242 43.4372V43.8336C891.986 43.8997 893.572 44.3423 894.999 45.1615C896.426 45.9674 897.562 47.0839 898.408 48.5108C899.253 49.9246 899.676 51.5893 899.676 53.5051C899.676 55.7248 899.095 57.7001 897.932 59.4309C896.783 61.1618 895.144 62.5227 893.017 63.5136C890.89 64.5045 888.353 65 885.407 65H866.301ZM877.321 56.2005H882.473C884.323 56.2005 885.711 55.857 886.635 55.1699C887.56 54.4696 888.023 53.4391 888.023 52.0782C888.023 51.1269 887.805 50.3209 887.369 49.6603C886.933 48.9997 886.312 48.4976 885.506 48.1541C884.713 47.8106 883.755 47.6388 882.632 47.6388H877.321V56.2005ZM877.321 40.8212H881.839C882.804 40.8212 883.656 40.6692 884.396 40.3653C885.136 40.0614 885.711 39.6254 886.12 39.0573C886.543 38.4759 886.754 37.7691 886.754 36.9367C886.754 35.6815 886.305 34.7236 885.407 34.063C884.508 33.3891 883.372 33.0522 881.998 33.0522H877.321V40.8212ZM903.58 65V24.4112H914.6V56.1212H931.01V65H903.58ZM935.464 65V24.4112H964.716V33.29H946.483V40.2662H963.21V49.145H946.483V56.1212H964.637V65H935.464ZM992.061 37.0952C991.955 35.774 991.46 34.7434 990.575 34.0035C989.703 33.2636 988.375 32.8937 986.591 32.8937C985.455 32.8937 984.523 33.0324 983.797 33.3099C983.083 33.5741 982.555 33.9374 982.211 34.3999C981.868 34.8623 981.689 35.3908 981.676 35.9854C981.65 36.4742 981.736 36.9169 981.934 37.3132C982.145 37.6964 982.475 38.0465 982.925 38.3636C983.374 38.6675 983.949 38.945 984.649 39.196C985.349 39.4471 986.182 39.6717 987.146 39.8699L990.476 40.5833C992.722 41.059 994.644 41.6866 996.243 42.4661C997.842 43.2456 999.15 44.1639 1000.17 45.2209C1001.18 46.2647 1001.93 47.4406 1002.41 48.7486C1002.9 50.0567 1003.15 51.4836 1003.16 53.0295C1003.15 55.6984 1002.48 57.9577 1001.16 59.8075C999.837 61.6572 997.947 63.0644 995.49 64.0289C993.045 64.9934 990.106 65.4756 986.67 65.4756C983.143 65.4756 980.064 64.9538 977.435 63.91C974.819 62.8662 972.784 61.2609 971.331 59.094C969.891 56.914 969.164 54.1261 969.151 50.7305H979.615C979.681 51.9725 979.992 53.0163 980.546 53.8619C981.101 54.7075 981.881 55.3483 982.885 55.7843C983.902 56.2203 985.111 56.4383 986.512 56.4383C987.688 56.4383 988.672 56.293 989.465 56.0023C990.258 55.7116 990.859 55.3086 991.268 54.7934C991.678 54.2781 991.889 53.6901 991.903 53.0295C991.889 52.4085 991.685 51.8668 991.288 51.4044C990.905 50.9287 990.271 50.5059 989.386 50.136C988.5 49.7528 987.305 49.3961 985.798 49.0657L981.755 48.1937C978.162 47.4142 975.328 46.1128 973.253 44.2894C971.192 42.4529 970.168 39.9491 970.181 36.7781C970.168 34.2017 970.855 31.949 972.242 30.0199C973.643 28.0777 975.579 26.5649 978.049 25.4815C980.533 24.398 983.381 23.8563 986.591 23.8563C989.868 23.8563 992.702 24.4046 995.093 25.5013C997.485 26.5979 999.328 28.1438 1000.62 30.1389C1001.93 32.1207 1002.59 34.4395 1002.6 37.0952H992.061Z" fill="#02B873"/>
<path d="M1056.51 39.6318H1045.33C1045.25 38.7069 1045.04 37.8679 1044.7 37.1148C1044.37 36.3617 1043.91 35.7143 1043.31 35.1726C1042.73 34.6176 1042.02 34.1948 1041.19 33.9042C1040.36 33.6003 1039.41 33.4483 1038.36 33.4483C1036.51 33.4483 1034.94 33.8976 1033.66 34.796C1032.39 35.6945 1031.43 36.9827 1030.77 38.6607C1030.12 40.3387 1029.79 42.3536 1029.79 44.7055C1029.79 47.1894 1030.12 49.2704 1030.78 50.9484C1031.46 52.6132 1032.43 53.8684 1033.7 54.714C1034.97 55.5464 1036.49 55.9626 1038.28 55.9626C1039.29 55.9626 1040.21 55.8371 1041.01 55.586C1041.82 55.3218 1042.52 54.9452 1043.11 54.4563C1043.71 53.9675 1044.19 53.3795 1044.56 52.6925C1044.94 51.9922 1045.2 51.2061 1045.33 50.334L1056.51 50.4133C1056.38 52.1309 1055.9 53.8816 1055.06 55.6653C1054.23 57.4358 1053.05 59.0742 1051.52 60.5804C1050 62.0734 1048.11 63.2758 1045.87 64.1874C1043.62 65.0991 1041.01 65.5549 1038.04 65.5549C1034.31 65.5549 1030.97 64.7556 1028.01 63.1568C1025.06 61.5581 1022.73 59.2063 1021.01 56.1013C1019.31 52.9964 1018.46 49.1977 1018.46 44.7055C1018.46 40.1867 1019.33 36.3815 1021.07 33.2898C1022.82 30.1848 1025.17 27.8396 1028.13 26.2541C1031.09 24.6553 1034.39 23.856 1038.04 23.856C1040.6 23.856 1042.96 24.2061 1045.11 24.9064C1047.27 25.6066 1049.16 26.6306 1050.78 27.9783C1052.41 29.3128 1053.72 30.9577 1054.71 32.9132C1055.7 34.8687 1056.3 37.1082 1056.51 39.6318ZM1100.27 44.7055C1100.27 49.2242 1099.39 53.036 1097.64 56.141C1095.88 59.2327 1093.51 61.5779 1090.52 63.1767C1087.53 64.7622 1084.21 65.5549 1080.53 65.5549C1076.83 65.5549 1073.49 64.7556 1070.5 63.1568C1067.53 61.5449 1065.17 59.1931 1063.41 56.1013C1061.66 52.9964 1060.79 49.1977 1060.79 44.7055C1060.79 40.1867 1061.66 36.3815 1063.41 33.2898C1065.17 30.1848 1067.53 27.8396 1070.5 26.2541C1073.49 24.6553 1076.83 23.856 1080.53 23.856C1084.21 23.856 1087.53 24.6553 1090.52 26.2541C1093.51 27.8396 1095.88 30.1848 1097.64 33.2898C1099.39 36.3815 1100.27 40.1867 1100.27 44.7055ZM1088.94 44.7055C1088.94 42.2743 1088.61 40.2264 1087.96 38.5616C1087.33 36.8836 1086.39 35.6152 1085.13 34.7564C1083.89 33.8843 1082.36 33.4483 1080.53 33.4483C1078.71 33.4483 1077.17 33.8843 1075.91 34.7564C1074.67 35.6152 1073.73 36.8836 1073.08 38.5616C1072.45 40.2264 1072.13 42.2743 1072.13 44.7055C1072.13 47.1366 1072.45 49.1911 1073.08 50.8691C1073.73 52.5339 1074.67 53.8023 1075.91 54.6744C1077.17 55.5332 1078.71 55.9626 1080.53 55.9626C1082.36 55.9626 1083.89 55.5332 1085.13 54.6744C1086.39 53.8023 1087.33 52.5339 1087.96 50.8691C1088.61 49.1911 1088.94 47.1366 1088.94 44.7055ZM1104.81 65V24.4109H1115.83V56.1211H1132.24V65H1104.81ZM1136.14 65V24.4109H1147.16V56.1211H1163.57V65H1136.14ZM1167.46 65V24.4109H1196.72V33.2898H1178.48V40.266H1195.21V49.1449H1178.48V56.1211H1196.64V65H1167.46ZM1239.52 39.6318H1228.34C1228.26 38.7069 1228.05 37.8679 1227.7 37.1148C1227.37 36.3617 1226.91 35.7143 1226.32 35.1726C1225.74 34.6176 1225.03 34.1948 1224.2 33.9042C1223.36 33.6003 1222.42 33.4483 1221.36 33.4483C1219.51 33.4483 1217.95 33.8976 1216.67 34.796C1215.4 35.6945 1214.43 36.9827 1213.77 38.6607C1213.12 40.3387 1212.8 42.3536 1212.8 44.7055C1212.8 47.1894 1213.13 49.2704 1213.79 50.9484C1214.47 52.6132 1215.44 53.8684 1216.7 54.714C1217.97 55.5464 1219.5 55.9626 1221.28 55.9626C1222.3 55.9626 1223.21 55.8371 1224.02 55.586C1224.82 55.3218 1225.52 54.9452 1226.12 54.4563C1226.71 53.9675 1227.2 53.3795 1227.57 52.6925C1227.95 51.9922 1228.21 51.2061 1228.34 50.334L1239.52 50.4133C1239.38 52.1309 1238.9 53.8816 1238.07 55.6653C1237.24 57.4358 1236.05 59.0742 1234.52 60.5804C1233 62.0734 1231.12 63.2758 1228.87 64.1874C1226.63 65.0991 1224.02 65.5549 1221.05 65.5549C1217.32 65.5549 1213.98 64.7556 1211.02 63.1568C1208.07 61.5581 1205.74 59.2063 1204.02 56.1013C1202.32 52.9964 1201.46 49.1977 1201.46 44.7055C1201.46 40.1867 1202.34 36.3815 1204.08 33.2898C1205.82 30.1848 1208.18 27.8396 1211.14 26.2541C1214.1 24.6553 1217.4 23.856 1221.05 23.856C1223.61 23.856 1225.97 24.2061 1228.12 24.9064C1230.27 25.6066 1232.16 26.6306 1233.79 27.9783C1235.41 29.3128 1236.72 30.9577 1237.71 32.9132C1238.7 34.8687 1239.31 37.1082 1239.52 39.6318ZM1242.85 33.2898V24.4109H1278.13V33.2898H1265.92V65H1255.06V33.2898H1242.85ZM1281.71 65V24.4109H1310.97V33.2898H1292.73V40.266H1309.46V49.1449H1292.73V56.1211H1310.89V65H1281.71ZM1331.49 65H1315.87V24.4109H1331.33C1335.51 24.4109 1339.12 25.2235 1342.15 26.8486C1345.21 28.4606 1347.56 30.786 1349.21 33.8249C1350.87 36.8506 1351.71 40.4774 1351.71 44.7055C1351.71 48.9335 1350.88 52.5669 1349.23 55.6058C1347.58 58.6315 1345.24 60.9569 1342.21 62.5821C1339.19 64.194 1335.61 65 1331.49 65ZM1326.89 55.6455H1331.1C1333.1 55.6455 1334.81 55.3218 1336.23 54.6744C1337.66 54.0269 1338.74 52.9105 1339.48 51.325C1340.23 49.7395 1340.61 47.5329 1340.61 44.7055C1340.61 41.878 1340.22 39.6715 1339.46 38.0859C1338.71 36.5004 1337.6 35.384 1336.13 34.7365C1334.68 34.0891 1332.89 33.7654 1330.78 33.7654H1326.89V55.6455Z" fill="#02B873"/>
<rect y="79" width="721" height="66" rx="33" fill="#02B873"/>
<path d="M41.1597 132.5H29.2684L42.666 91.9109H57.7283L71.1259 132.5H59.2346L50.3557 103.089H50.0386L41.1597 132.5ZM38.94 116.486H61.2957V124.731H38.94V116.486ZM68.244 100.79V91.9109H103.522V100.79H91.3132V132.5H80.4525V100.79H68.244ZM137.648 91.9109V132.5H126.629V102.058H126.391L117.512 107.37V98.0151L127.501 91.9109H137.648ZM155.905 132.5V91.9109H166.924V123.621H183.335V132.5H155.905ZM224.971 112.205C224.971 116.724 224.092 120.536 222.335 123.641C220.578 126.733 218.206 129.078 215.22 130.677C212.234 132.262 208.904 133.055 205.231 133.055C201.532 133.055 198.189 132.256 195.203 130.657C192.23 129.045 189.865 126.693 188.108 123.601C186.364 120.496 185.492 116.698 185.492 112.205C185.492 107.687 186.364 103.882 188.108 100.79C189.865 97.6848 192.23 95.3396 195.203 93.7541C198.189 92.1553 201.532 91.356 205.231 91.356C208.904 91.356 212.234 92.1553 215.22 93.7541C218.206 95.3396 220.578 97.6848 222.335 100.79C224.092 103.882 224.971 107.687 224.971 112.205ZM213.634 112.205C213.634 109.774 213.311 107.726 212.663 106.062C212.029 104.384 211.084 103.115 209.829 102.256C208.587 101.384 207.055 100.948 205.231 100.948C203.408 100.948 201.869 101.384 200.613 102.256C199.371 103.115 198.427 104.384 197.779 106.062C197.145 107.726 196.828 109.774 196.828 112.205C196.828 114.637 197.145 116.691 197.779 118.369C198.427 120.034 199.371 121.302 200.613 122.174C201.869 123.033 203.408 123.463 205.231 123.463C207.055 123.463 208.587 123.033 209.829 122.174C211.084 121.302 212.029 120.034 212.663 118.369C213.311 116.691 213.634 114.637 213.634 112.205ZM267.405 107.132H256.227C256.148 106.207 255.936 105.368 255.593 104.615C255.263 103.862 254.8 103.214 254.206 102.673C253.624 102.118 252.917 101.695 252.085 101.404C251.252 101.1 250.308 100.948 249.251 100.948C247.401 100.948 245.835 101.398 244.554 102.296C243.285 103.194 242.321 104.483 241.66 106.161C241.013 107.839 240.689 109.854 240.689 112.205C240.689 114.689 241.019 116.77 241.68 118.448C242.354 120.113 243.325 121.368 244.593 122.214C245.862 123.046 247.388 123.463 249.172 123.463C250.189 123.463 251.101 123.337 251.907 123.086C252.712 122.822 253.413 122.445 254.007 121.956C254.602 121.467 255.084 120.88 255.454 120.192C255.837 119.492 256.095 118.706 256.227 117.834L267.405 117.913C267.273 119.631 266.791 121.382 265.958 123.165C265.126 124.936 263.943 126.574 262.411 128.08C260.891 129.573 259.008 130.776 256.762 131.687C254.516 132.599 251.907 133.055 248.934 133.055C245.208 133.055 241.865 132.256 238.905 130.657C235.959 129.058 233.627 126.706 231.909 123.601C230.205 120.496 229.353 116.698 229.353 112.205C229.353 107.687 230.225 103.882 231.969 100.79C233.713 97.6848 236.065 95.3396 239.024 93.7541C241.984 92.1553 245.287 91.356 248.934 91.356C251.497 91.356 253.855 91.7061 256.009 92.4064C258.163 93.1066 260.052 94.1306 261.677 95.4783C263.302 96.8128 264.61 98.4577 265.601 100.413C266.592 102.369 267.193 104.608 267.405 107.132ZM281.136 132.5H269.245L282.642 91.9109H297.705L311.102 132.5H299.211L290.332 103.089H290.015L281.136 132.5ZM278.917 116.486H301.272V124.731H278.917V116.486ZM308.22 100.79V91.9109H343.498V100.79H331.29V132.5H320.429V100.79H308.22ZM358.106 91.9109V132.5H347.087V91.9109H358.106ZM402.091 112.205C402.091 116.724 401.213 120.536 399.455 123.641C397.698 126.733 395.326 129.078 392.34 130.677C389.354 132.262 386.025 133.055 382.352 133.055C378.652 133.055 375.309 132.256 372.323 130.657C369.351 129.045 366.985 126.693 365.228 123.601C363.484 120.496 362.612 116.698 362.612 112.205C362.612 107.687 363.484 103.882 365.228 100.79C366.985 97.6848 369.351 95.3396 372.323 93.7541C375.309 92.1553 378.652 91.356 382.352 91.356C386.025 91.356 389.354 92.1553 392.34 93.7541C395.326 95.3396 397.698 97.6848 399.455 100.79C401.213 103.882 402.091 107.687 402.091 112.205ZM390.755 112.205C390.755 109.774 390.431 107.726 389.784 106.062C389.15 104.384 388.205 103.115 386.95 102.256C385.708 101.384 384.175 100.948 382.352 100.948C380.528 100.948 378.989 101.384 377.734 102.256C376.492 103.115 375.547 104.384 374.9 106.062C374.266 107.726 373.948 109.774 373.948 112.205C373.948 114.637 374.266 116.691 374.9 118.369C375.547 120.034 376.492 121.302 377.734 122.174C378.989 123.033 380.528 123.463 382.352 123.463C384.175 123.463 385.708 123.033 386.95 122.174C388.205 121.302 389.15 120.034 389.784 118.369C390.431 116.691 390.755 114.637 390.755 112.205ZM441.751 91.9109V132.5H432.555L417.889 111.175H417.651V132.5H406.632V91.9109H415.986L430.414 113.157H430.731V91.9109H441.751ZM456.965 132.5V91.9109H474.485C477.498 91.9109 480.134 92.5055 482.393 93.6946C484.652 94.8837 486.41 96.5551 487.665 98.7088C488.92 100.862 489.548 103.379 489.548 106.26C489.548 109.167 488.9 111.684 487.605 113.811C486.324 115.938 484.52 117.576 482.195 118.726C479.883 119.875 477.181 120.45 474.089 120.45H463.624V111.888H471.869C473.164 111.888 474.267 111.664 475.179 111.215C476.104 110.752 476.811 110.098 477.299 109.252C477.802 108.407 478.053 107.409 478.053 106.26C478.053 105.097 477.802 104.106 477.299 103.287C476.811 102.455 476.104 101.82 475.179 101.384C474.267 100.935 473.164 100.71 471.869 100.71H467.985V132.5H456.965ZM493.032 132.5V91.9109H522.285V100.79H504.052V107.766H520.779V116.645H504.052V123.621H522.206V132.5H493.032ZM527.192 132.5V91.9109H544.712C547.724 91.9109 550.36 92.4592 552.62 93.5559C554.879 94.6525 556.636 96.2314 557.892 98.2926C559.147 100.354 559.774 102.825 559.774 105.705C559.774 108.612 559.127 111.063 557.832 113.058C556.551 115.053 554.747 116.559 552.422 117.576C550.109 118.594 547.407 119.102 544.316 119.102H533.851V110.541H542.096C543.391 110.541 544.494 110.382 545.406 110.065C546.331 109.735 547.037 109.213 547.526 108.499C548.028 107.786 548.279 106.854 548.279 105.705C548.279 104.542 548.028 103.597 547.526 102.871C547.037 102.131 546.331 101.589 545.406 101.246C544.494 100.889 543.391 100.71 542.096 100.71H538.211V132.5H527.192ZM550.975 113.87L561.122 132.5H549.151L539.242 113.87H550.975ZM590.091 132.5H574.474V91.9109H589.932C594.108 91.9109 597.715 92.7235 600.753 94.3486C603.806 95.9606 606.157 98.286 607.809 101.325C609.474 104.351 610.306 107.977 610.306 112.205C610.306 116.433 609.48 120.067 607.829 123.106C606.177 126.132 603.839 128.457 600.813 130.082C597.787 131.694 594.213 132.5 590.091 132.5ZM585.493 123.145H589.695C591.703 123.145 593.414 122.822 594.828 122.174C596.255 121.527 597.338 120.41 598.078 118.825C598.831 117.239 599.208 115.033 599.208 112.205C599.208 109.378 598.824 107.171 598.058 105.586C597.305 104 596.195 102.884 594.729 102.237C593.275 101.589 591.491 101.265 589.377 101.265H585.493V123.145ZM622.829 132.5H610.937L624.335 91.9109H639.397L652.795 132.5H640.903L632.025 103.089H631.707L622.829 132.5ZM620.609 116.486H642.965V124.731H620.609V116.486ZM650.339 91.9109H662.627L670.554 108.4H670.871L678.799 91.9109H691.087L676.183 119.737V132.5H665.243V119.737L650.339 91.9109Z" fill="white"/>
</svg>
