<svg width="105" height="106" viewBox="0 0 105 106" fill="none" xmlns="http://www.w3.org/2000/svg">
<rect x="-0.00244141" y="0.0166016" width="105" height="105" rx="15" fill="#02B873"/>
<path d="M50.9797 82.8257L50.9797 82.8257L52.176 84.4137L52.4956 84.8379L52.815 84.4136L54.0154 82.8195L53.6959 82.5789L54.0154 82.8195C57.6547 77.9861 63.6231 70.0296 68.6999 61.6738C71.2787 57.4301 73.6307 53.0723 75.339 48.9453C77.045 44.8241 78.1216 40.9035 78.1216 37.5425C78.1216 30.4682 75.2515 24.0612 70.6123 19.4281C65.9744 14.7892 59.5666 11.9191 52.4975 11.9191C45.4283 11.9191 39.0206 14.7893 34.3797 19.4251L34.3795 19.4253C29.7436 24.0613 26.8734 30.4682 26.8734 37.5425C26.8734 40.9035 27.9501 44.8241 29.6561 48.9453C31.3644 53.0723 33.7164 57.4301 36.2951 61.6738C41.3902 70.059 47.3464 78.0012 50.9797 82.8257ZM65.4552 59.7079L65.797 59.9156L65.4552 59.7079C61.1335 66.821 56.1108 73.6936 52.4996 78.5186C48.8811 73.6844 43.848 66.7987 39.5399 59.7079L39.198 59.9156L39.5399 59.7079C37.0955 55.6853 34.8771 51.5952 33.2707 47.7771C31.6615 43.9521 30.681 40.433 30.681 37.5425C30.681 31.518 33.1228 26.063 37.0702 22.1105C41.0131 18.1666 46.4689 15.7267 52.4975 15.7267C58.5263 15.7267 63.9819 18.1666 67.9249 22.1155L67.9251 22.1158C71.8723 26.063 74.3141 31.5179 74.3141 37.5425C74.3141 40.433 73.3336 43.9521 71.7243 47.7771C70.118 51.5952 67.8995 55.6853 65.4552 59.7079ZM52.4965 93.1138C54.9346 93.1138 57.1649 92.929 58.7994 92.6272C59.7125 92.4586 60.4827 92.2303 61.0354 91.9406C61.5614 91.6648 62.0287 91.2565 62.0287 90.6763C62.0287 90.0965 61.5612 89.6881 61.0355 89.4124C60.4828 89.1225 59.7126 88.8939 58.7994 88.7253C57.1649 88.4235 54.9346 88.2387 52.4965 88.2387C50.0585 88.2387 47.8282 88.4235 46.1937 88.7253C45.2805 88.8939 44.5104 89.1225 43.958 89.4124C43.4324 89.6882 42.9654 90.0966 42.9654 90.6763C42.9654 91.2561 43.4328 91.6644 43.9584 91.9401C44.5109 92.23 45.2809 92.4586 46.1937 92.6272C47.8282 92.929 50.0585 93.1138 52.4965 93.1138Z" fill="white" stroke="white" stroke-width="0.8"/>
<circle cx="52.4977" cy="37.1876" r="13.0392" stroke="white" stroke-width="5"/>
</svg>
