<svg width="632" height="336" viewBox="0 0 632 336" fill="none" xmlns="http://www.w3.org/2000/svg">
<g clip-path="url(#clip0_175_2)">
<mask id="mask0_175_2" style="mask-type:luminance" maskUnits="userSpaceOnUse" x="194" y="9" width="243" height="319">
<path d="M436.63 9.07373H194.52V327.07H436.63V9.07373Z" fill="white"/>
</mask>
<g mask="url(#mask0_175_2)">
<path d="M240.955 74.7401C241.759 82.3456 236.224 89.1666 228.613 89.97C221.002 90.7734 214.176 85.2607 213.372 77.6369C212.568 70.031 218.103 63.2103 225.714 62.4254C233.325 61.6219 240.151 67.1345 240.955 74.759" fill="#FF6200"/>
<path d="M279.608 96.4722L272.576 29.5914C271.847 22.7333 265.713 17.7625 258.851 18.4913C251.988 19.2201 247.013 25.3494 247.743 32.1889L254.774 99.0882C255.503 105.946 261.637 110.917 268.5 110.188C275.362 109.459 280.319 103.33 279.608 96.4722Z" fill="#FF6200"/>
<path d="M229.339 154.961C235.79 159.072 237.679 167.649 233.565 174.096C229.451 180.543 220.867 182.431 214.416 178.319C207.964 174.208 206.076 165.631 210.19 159.184C214.304 152.737 222.887 150.849 229.339 154.961Z" fill="#FF6200"/>
<path d="M270.444 138.311L213.727 102.114C207.911 98.4142 200.207 100.096 196.486 105.908C192.764 111.719 194.466 119.419 200.282 123.137L256.999 159.353C262.815 163.052 270.519 161.352 274.24 155.559C277.962 149.747 276.26 142.048 270.444 138.33" fill="#FF6200"/>
<path d="M284.097 213.977C291.334 211.51 299.225 215.378 301.694 222.61C304.162 229.842 300.291 237.728 293.054 240.195C285.817 242.661 277.926 238.812 275.457 231.561C272.989 224.329 276.841 216.444 284.097 213.977Z" fill="#FF6200"/>
<path d="M296.714 171.483L233.021 193.215C226.495 195.439 223.017 202.521 225.242 209.043C227.467 215.565 234.555 219.04 241.081 216.817L304.774 195.084C311.3 192.86 314.778 185.759 312.553 179.256C310.328 172.734 303.24 169.259 296.714 171.483Z" fill="#FF6200"/>
<path d="M364.86 207.399C367.441 200.204 375.37 196.448 382.588 199.027C389.788 201.606 393.546 209.529 390.965 216.742C388.385 223.937 380.456 227.693 373.238 225.114C366.039 222.535 362.28 214.612 364.86 207.399Z" fill="#FF6200"/>
<path d="M339.465 171.053L316.763 234.364C314.444 240.848 317.81 247.987 324.299 250.322C330.788 252.64 337.932 249.276 340.251 242.792L362.952 179.481C365.271 172.996 361.905 165.858 355.416 163.54C348.927 161.223 341.784 164.587 339.465 171.071" fill="#FF6200"/>
<path d="M408.955 140.257C404.934 133.755 406.953 125.215 413.461 121.197C419.969 117.179 428.515 119.197 432.535 125.7C436.556 132.204 434.536 140.743 428.029 144.761C421.521 148.779 412.975 146.761 408.955 140.257Z" fill="#FF6200"/>
<path d="M364.691 137.413L400.072 194.632C403.7 200.499 411.386 202.312 417.257 198.687C423.129 195.062 424.943 187.381 421.315 181.514L385.935 124.294C382.307 118.426 374.621 116.614 368.749 120.239C362.896 123.864 361.064 131.545 364.691 137.413Z" fill="#FF6200"/>
<path d="M385.638 62.8577C378.046 61.942 372.623 55.0466 373.539 47.4596C374.456 39.8727 381.356 34.4535 388.948 35.3692C396.541 36.2848 401.964 43.1803 401.047 50.7672C400.131 58.3541 393.23 63.7733 385.638 62.8577Z" fill="#FF6200"/>
<path d="M355.828 95.6696L422.643 103.705C429.487 104.527 435.696 99.65 436.519 92.8101C437.342 85.9708 432.461 79.767 425.616 78.9446L358.801 70.9093C351.957 70.0871 345.748 74.9642 344.925 81.8036C344.103 88.6429 348.983 94.8473 355.828 95.6696Z" fill="#FF6200"/>
<path d="M309.973 33.8708C304.513 39.2339 295.742 39.1778 290.375 33.7213C285.008 28.2646 285.064 19.5005 290.525 14.1373C295.986 8.77416 304.756 8.83023 310.123 14.2868C315.489 19.7434 315.433 28.5076 309.973 33.8708Z" fill="#FF6200"/>
<path d="M317.065 77.635L365.012 30.4316C369.93 25.5916 369.986 17.7058 365.143 12.7911C360.299 7.87643 352.408 7.82036 347.49 12.6603L299.543 59.8635C294.625 64.7034 294.568 72.5893 299.412 77.5038C304.255 82.4188 312.147 82.475 317.065 77.635Z" fill="#FF6200"/>
<path d="M284.078 291.938L274.746 311.298L265.284 291.938H261.001L274.709 320.773L288.341 291.938H284.078Z" fill="white"/>
<path d="M311.524 279.025V295.694C308.925 292.928 305.316 291.34 301.446 291.34C293.834 291.34 287.626 297.543 287.626 305.15C287.626 312.755 293.815 318.959 301.446 318.959C305.316 318.959 308.925 317.37 311.524 314.605V318.212H315.582V279.044H311.524V279.025ZM311.17 305.131C311.17 310.494 306.813 314.848 301.446 314.848C296.079 314.848 291.721 310.494 291.721 305.131C291.721 299.768 296.079 295.413 301.446 295.413C306.813 295.413 311.17 299.768 311.17 305.131Z" fill="white"/>
<path d="M222.291 279.025V318.193H226.348V314.587C228.929 317.352 232.557 318.959 236.428 318.959C244.039 318.959 250.247 312.755 250.247 305.15C250.247 297.543 244.057 291.34 236.428 291.34C232.557 291.34 228.948 292.928 226.348 295.713V279.044H222.291V279.025ZM236.428 295.413C241.795 295.413 246.152 299.768 246.152 305.131C246.152 310.494 241.795 314.848 236.428 314.848C231.061 314.848 226.704 310.494 226.704 305.131C226.704 299.768 231.061 295.413 236.428 295.413Z" fill="white"/>
<path d="M257.875 279.025H253.78V318.193H257.875V279.025Z" fill="white"/>
<path d="M358.036 291.249H348.518V318.195H358.036V291.249Z" fill="white"/>
<path d="M403.212 291.246L396.63 304.139L389.898 291.246H377.761V282.668H368.243V291.246H362.521V299.281H368.243V318.192H377.761V299.281H383.072L391.319 314.511L384.886 327.069H395.583L414.171 291.246H403.212Z" fill="white"/>
<path d="M358.71 280.557C358.71 283.566 356.279 285.995 353.268 285.995C350.257 285.995 347.826 283.566 347.826 280.557C347.826 277.548 350.257 275.119 353.268 275.119C356.279 275.119 358.71 277.548 358.71 280.557Z" fill="white"/>
<path d="M342.551 299.583C340.867 298.443 339.184 297.882 337.483 297.882C333.873 297.882 330.863 300.461 330.863 304.498C330.863 308.179 333.555 311.057 337.483 311.057C339.297 311.057 340.98 310.44 342.551 309.188V317.41C340.157 318.438 337.913 318.961 335.781 318.961C327.927 318.961 320.84 313.28 320.84 304.609C320.84 295.938 327.945 289.884 336.062 289.884C338.417 289.884 340.587 290.389 342.569 291.379V299.601L342.551 299.583Z" fill="white"/>
</g>
</g>
<defs>
<clipPath id="clip0_175_2">
<rect width="242.345" height="318.709" fill="white" transform="translate(194.381 8.64575)"/>
</clipPath>
</defs>
</svg>
