<svg width="632" height="336" viewBox="0 0 632 336" fill="none" xmlns="http://www.w3.org/2000/svg">
<g clip-path="url(#clip0_247_626)">
<path d="M251.413 91.3848C252.101 97.7995 247.364 103.552 240.85 104.23C234.336 104.908 228.494 100.258 227.806 93.8277C227.118 87.413 231.855 81.6602 238.369 80.9982C244.883 80.3205 250.725 84.97 251.413 91.4005" fill="#E50053"/>
<path d="M284.495 109.714L278.477 53.3057C277.853 47.5214 272.603 43.3289 266.73 43.9436C260.856 44.5583 256.615 49.7279 257.223 55.4965L263.241 111.921C263.865 117.705 269.114 121.898 274.988 121.283C280.862 120.668 285.103 115.499 284.495 109.714Z" fill="#E50053"/>
<path d="M241.474 159.046C246.996 162.514 248.613 169.748 245.092 175.186C241.571 180.623 234.224 182.215 228.703 178.748C223.181 175.28 221.565 168.046 225.086 162.608C228.607 157.171 235.953 155.579 241.474 159.046Z" fill="#D10082"/>
<path d="M276.652 145.004L228.11 114.475C223.132 111.354 216.539 112.772 213.354 117.674C210.169 122.576 211.641 129.069 216.603 132.206L265.145 162.751C270.123 165.871 276.716 164.437 279.901 159.551C283.086 154.65 281.614 148.156 276.652 145.02" fill="#D10082"/>
<path d="M288.352 208.82C294.546 206.74 301.3 210.002 303.413 216.102C305.525 222.201 302.212 228.853 296.018 230.933C289.824 233.014 283.07 229.767 280.958 223.651C278.845 217.552 282.142 210.901 288.352 208.82Z" fill="#C000C2"/>
<path d="M299.139 172.98L244.627 191.31C239.041 193.185 236.064 199.159 237.969 204.66C239.874 210.16 245.955 213.092 251.525 211.216L306.037 192.886C311.623 191.01 314.6 185.021 312.695 179.536C310.791 174.036 304.709 171.104 299.139 172.98Z" fill="#C000C2"/>
<path d="M357.461 203.273C359.67 197.205 366.456 194.037 372.634 196.212C378.795 198.387 382.012 205.069 379.804 211.153C377.595 217.221 370.809 220.389 364.631 218.214C358.469 216.039 355.252 209.356 357.461 203.273Z" fill="#B556FF"/>
<path d="M335.742 172.617L316.312 226.015C314.328 231.484 317.209 237.505 322.762 239.475C328.316 241.429 334.43 238.592 336.43 233.123L355.86 179.725C357.845 174.256 354.964 168.235 349.41 166.281C343.857 164.326 337.743 167.163 335.758 172.632" fill="#B556FF"/>
<path d="M395.2 146.643C391.759 141.158 393.488 133.955 399.057 130.567C404.627 127.178 411.941 128.88 415.382 134.365C418.823 139.85 417.095 147.053 411.525 150.441C405.956 153.83 398.641 152.128 395.2 146.643Z" fill="#EF9506"/>
<path d="M357.317 144.247L387.598 192.507C390.703 197.456 397.281 198.985 402.306 195.927C407.332 192.87 408.884 186.392 405.779 181.443L375.498 133.183C372.393 128.234 365.815 126.705 360.79 129.763C355.764 132.82 354.212 139.298 357.317 144.247Z" fill="#EF9506"/>
<path d="M375.242 81.3604C368.744 80.5881 364.103 74.7723 364.887 68.3733C365.671 61.9743 371.577 57.4036 378.075 58.1759C384.573 58.9482 389.214 64.764 388.43 71.163C387.646 77.562 381.74 82.1327 375.242 81.3604Z" fill="#FF6200"/>
<path d="M349.731 109.037L406.932 115.815C412.79 116.508 418.103 112.394 418.807 106.626C419.512 100.857 415.334 95.6246 409.477 94.9311L352.275 88.1539C346.418 87.4604 341.104 91.574 340.4 97.3426C339.696 103.111 343.873 108.344 349.731 109.037Z" fill="#FF6200"/>
<path d="M310.487 56.9147C305.813 61.4381 298.307 61.3908 293.714 56.7886C289.12 52.1864 289.168 44.7944 293.842 40.271C298.515 35.7476 306.021 35.7949 310.615 40.3971C315.208 44.9993 315.16 52.3913 310.487 56.9147Z" fill="#FF0000"/>
<path d="M316.553 93.8276L357.589 54.0152C361.798 49.9331 361.846 43.2819 357.701 39.1368C353.556 34.9916 346.802 34.9443 342.592 39.0264L301.556 78.8389C297.347 82.921 297.299 89.5721 301.444 93.7173C305.589 97.8624 312.343 97.9097 316.553 93.8276Z" fill="#FF0000"/>
<path d="M415.366 264.898V275.852C413.43 273.818 410.981 272.92 408.02 272.92C401.954 272.92 396.145 277.144 396.145 285.135C396.145 293.126 401.954 297.602 408.116 297.602C411.173 297.602 413.59 296.498 415.366 294.276V296.956H423.561V264.882H415.366V264.898ZM410.261 290.304C407.38 290.304 405.059 288.019 405.059 285.182C405.059 282.345 407.38 280.06 410.261 280.06C413.142 280.06 415.446 282.361 415.446 285.182C415.446 288.003 413.126 290.304 410.261 290.304Z" fill="black"/>
<path d="M325.163 274.086L320.202 286.049L315.272 274.086H310.103L305.173 285.687L300.484 274.086H291.329L302.372 296.971H307.942L312.599 284.867L317.513 296.971H323.002L334.27 274.086H325.163Z" fill="black"/>
<path d="M379.131 273.582C377.435 273.582 375.963 273.945 374.698 274.686C373.434 275.427 372.361 276.467 371.481 277.822V274.071H363.287V296.956H371.481V287.137C371.481 284.993 371.961 283.37 372.906 282.251C373.85 281.132 375.274 280.58 377.179 280.58C378.443 280.58 379.628 280.848 380.716 281.384V273.661C380.044 273.551 379.9 273.567 379.131 273.567" fill="black"/>
<path d="M392.719 264.897H384.525V296.971H392.719V264.897Z" fill="black"/>
<path d="M260.232 274.67L252.213 291.109L244.051 274.67H240.354L252.165 299.163L263.929 274.67H260.232Z" fill="black"/>
<path d="M283.887 263.716V277.869C281.662 275.521 278.541 274.165 275.196 274.165C268.634 274.165 263.288 279.43 263.288 285.892C263.288 292.354 268.634 297.618 275.196 297.618C278.525 297.618 281.646 296.262 283.887 293.914V296.972H287.376V263.716H283.887ZM283.583 285.892C283.583 290.447 279.821 294.15 275.196 294.15C270.571 294.15 266.81 290.447 266.81 285.892C266.81 281.337 270.571 277.633 275.196 277.633C279.821 277.633 283.583 281.337 283.583 285.892Z" fill="black"/>
<path d="M207 263.716V296.972H210.489V293.914C212.714 296.262 215.835 297.618 219.18 297.618C225.742 297.618 231.087 292.354 231.087 285.892C231.087 279.43 225.742 274.165 219.18 274.165C215.851 274.165 212.73 275.521 210.489 277.869V263.716H207ZM219.18 277.633C223.805 277.633 227.566 281.337 227.566 285.892C227.566 290.447 223.805 294.15 219.18 294.15C214.554 294.15 210.793 290.447 210.793 285.892C210.793 281.337 214.554 277.633 219.18 277.633Z" fill="black"/>
<path d="M237.665 263.716H234.144V296.972H237.665V263.716Z" fill="black"/>
<path d="M346.738 272.921C339.472 272.921 333.582 278.437 333.582 285.262C333.582 292.086 339.472 297.603 346.738 297.603C354.004 297.603 359.894 292.071 359.894 285.262C359.894 278.453 354.004 272.921 346.738 272.921ZM346.738 290.384C343.873 290.384 341.536 288.099 341.536 285.262C341.536 282.425 343.857 280.139 346.738 280.139C349.619 280.139 351.939 282.441 351.939 285.262C351.939 288.083 349.619 290.384 346.738 290.384Z" fill="black"/>
</g>
<defs>
<clipPath id="clip0_247_626">
<rect width="216.561" height="263.162" fill="white" transform="translate(207 36)"/>
</clipPath>
</defs>
</svg>
