<svg width="632" height="336" viewBox="0 0 632 336" fill="none" xmlns="http://www.w3.org/2000/svg">
<g clip-path="url(#clip0_176_841)">
<mask id="mask0_176_841" style="mask-type:luminance" maskUnits="userSpaceOnUse" x="93" y="53" width="446" height="230">
<path d="M538.921 53.3745H93.7557V282.679H538.921V53.3745Z" fill="white"/>
</mask>
<g mask="url(#mask0_176_841)">
<path d="M210.344 221.647H305.699V230.55H219.248V247.689H275.962V256.592H219.248C219.248 259.798 219.114 263.225 220.539 266.208C223.833 272.974 231.846 273.776 238.568 273.776H305.743V282.679C305.743 282.679 245.512 282.679 241.061 282.679C241.061 282.679 237.054 282.679 235.096 282.59C230.466 282.412 225.258 281.655 221.207 279.251C214.574 275.334 210.389 268.657 210.389 260.154V221.647H210.344ZM93.7557 260.154C93.7557 268.657 97.9403 275.334 104.573 279.251C108.624 281.655 113.833 282.412 118.462 282.59C120.421 282.679 124.428 282.679 124.428 282.679H189.11V273.776C189.11 273.776 125.362 273.776 121.935 273.776C115.257 273.776 107.2 273.019 103.906 266.208C102.481 263.225 102.614 259.842 102.614 256.592V230.55H189.11V221.647H93.7557V260.154ZM391.259 168.584C368.022 170.72 343.226 174.326 316.338 186.39L349.013 159.591C431.413 153.804 482.696 137.822 482.696 119.927C482.696 101.987 431.413 86.0497 349.013 80.2625L316.338 53.3745C343.182 65.4385 367.977 68.9998 391.259 71.1811C469.475 78.4373 524.942 98.5588 524.942 119.882C524.942 141.206 469.43 161.327 391.259 168.584ZM390.903 165.066C475.663 157.231 521.381 135.908 521.381 119.882C521.381 117.612 520.491 115.252 518.71 112.849C504.331 123.176 479.046 135.952 461.062 143.031C459.949 143.476 458.791 143.921 457.589 144.366C457.501 144.41 457.411 144.411 457.322 144.455C454.384 145.524 451.179 146.592 447.796 147.616C423.89 154.783 390.236 160.125 350.393 162.974L335.302 175.35C354.934 169.162 373.498 166.669 390.903 165.066ZM283.663 159.546L316.338 186.345C289.495 174.281 264.699 170.72 241.417 168.539C163.246 161.327 107.734 141.206 107.734 119.882C107.734 98.5143 163.246 78.3928 241.417 71.1811C264.699 68.9998 289.495 65.4385 316.338 53.3745L283.663 80.1734C201.263 85.9606 149.98 101.942 149.98 119.838C149.98 137.778 201.218 153.759 283.663 159.546ZM297.374 175.35L282.283 162.974C242.441 160.125 208.786 154.828 184.881 147.616C181.498 146.592 178.293 145.524 175.355 144.455C175.265 144.411 175.177 144.41 175.087 144.366C173.885 143.921 172.728 143.476 171.615 143.031C153.63 135.952 128.301 123.176 113.966 112.849C112.186 115.252 111.295 117.612 111.295 119.882C111.295 135.952 157.014 157.231 241.773 165.066C259.179 166.669 277.742 169.162 297.374 175.35ZM531.664 250.538L529.928 252.141L531.664 253.743C536.25 258.017 538.921 264.026 538.921 270.215V282.59H530.018V270.17C530.018 262.646 523.919 256.548 516.396 256.548H452.425V282.59H443.522V221.647H538.921V234.022C538.921 240.344 536.339 246.22 531.664 250.538ZM530.018 230.55H452.425V247.689H516.396C523.919 247.689 530.018 241.546 530.018 234.022V230.55ZM326.933 260.154C326.933 268.657 331.118 275.334 337.75 279.251C341.802 281.655 347.01 282.412 351.64 282.59C353.599 282.679 357.605 282.679 357.605 282.679H422.288V273.776C422.288 273.776 358.54 273.776 355.112 273.776C348.435 273.776 340.377 273.019 337.083 266.208C335.659 263.225 335.792 259.842 335.792 256.592H392.506V247.689H335.837V230.55H422.332V221.647H326.933V260.154Z" fill="black"/>
</g>
</g>
<defs>
<clipPath id="clip0_176_841">
<rect width="445.889" height="230.632" fill="white" transform="translate(93.4048 52.6841)"/>
</clipPath>
</defs>
</svg>
