<svg width="632" height="336" viewBox="0 0 632 336" fill="none" xmlns="http://www.w3.org/2000/svg">
<g clip-path="url(#clip0_219_27)">
<path d="M118.899 190.582C116.067 191.548 113.585 193.03 111.436 195.029C109.288 197.028 107.589 199.543 106.339 202.575C105.09 205.607 104.457 209.171 104.457 213.286C104.457 217.4 105.09 220.965 106.339 223.997C107.589 227.028 109.288 229.543 111.436 231.576C113.585 233.608 116.067 235.107 118.899 236.073C121.73 237.039 124.712 237.522 127.861 237.522C131.292 237.522 134.473 237.056 137.422 236.106C140.37 235.157 143.085 233.891 145.601 232.292L150.398 243.253C147.433 245.085 143.935 246.517 139.937 247.583C135.939 248.633 131.742 249.166 127.344 249.166C121.864 249.166 116.883 248.266 112.436 246.467C107.988 244.668 104.19 242.153 101.075 238.921C97.9605 235.69 95.5618 231.892 93.8791 227.528C92.1969 223.164 91.3472 218.4 91.3472 213.269C91.3472 208.139 92.1969 203.375 93.8791 199.01C95.5618 194.646 97.9605 190.848 101.075 187.617C104.19 184.385 107.971 181.87 112.436 180.071C116.9 178.272 121.864 177.373 127.344 177.373C131.742 177.373 135.939 177.922 139.937 179.005C143.935 180.088 147.416 181.553 150.398 183.369L145.601 194.246C143.085 192.697 140.354 191.464 137.422 190.515C134.473 189.566 131.292 189.099 127.861 189.099C124.712 189.099 121.73 189.582 118.899 190.549V190.582Z" fill="#4D4D4D"/>
<path d="M160.126 190.749C158.727 189.667 158.027 188.067 158.027 185.952C158.027 184.07 158.693 182.537 160.042 181.371C161.391 180.205 163.057 179.622 165.056 179.622C167.055 179.622 168.704 180.205 170.02 181.371C171.336 182.537 171.986 184.07 171.986 185.952C171.986 187.834 171.336 189.45 170.054 190.616C168.771 191.782 167.105 192.365 165.039 192.365C163.157 192.365 161.508 191.815 160.109 190.732L160.126 190.749ZM171.053 199.911V248.15H159.06V199.911H171.053Z" fill="#4D4D4D"/>
<path d="M206.018 210.638C205.568 210.638 204.885 210.638 204.002 210.687C203.119 210.721 202.203 210.771 201.253 210.854C200.304 210.938 199.421 211.037 198.605 211.154C197.772 211.271 197.189 211.387 196.856 211.504V248.183H184.862V201.226C186.345 200.943 187.944 200.677 189.66 200.41C191.376 200.16 193.058 199.944 194.707 199.76C196.356 199.594 197.972 199.444 199.554 199.327C201.137 199.21 202.536 199.161 203.802 199.161H212.88V210.638H206.018Z" fill="#4D4D4D"/>
<path d="M220.193 213.587C221.475 210.472 223.274 207.773 225.59 205.491C227.905 203.209 230.654 201.427 233.818 200.144C236.983 198.861 240.432 198.212 244.146 198.212C247.461 198.212 250.459 198.562 253.141 199.245C255.823 199.928 258.405 200.894 260.854 202.16L256.056 212.954C254.457 212.037 252.708 211.305 250.825 210.772C248.943 210.222 246.878 209.955 244.663 209.955C242.614 209.955 240.714 210.288 238.999 210.938C237.283 211.588 235.834 212.537 234.635 213.77C233.435 215.003 232.503 216.452 231.853 218.134C231.203 219.817 230.87 221.682 230.87 223.748C230.87 225.813 231.203 227.679 231.853 229.361C232.503 231.044 233.435 232.493 234.635 233.692C235.834 234.892 237.283 235.824 238.999 236.474C240.714 237.124 242.597 237.457 244.663 237.457C246.894 237.457 248.943 237.207 250.825 236.69C252.708 236.174 254.457 235.441 256.056 234.458L260.854 245.336C258.405 246.585 255.823 247.551 253.141 248.201C250.459 248.85 247.461 249.183 244.146 249.183C240.432 249.183 236.983 248.534 233.818 247.251C230.654 245.968 227.905 244.203 225.59 241.938C223.274 239.689 221.475 236.99 220.193 233.876C218.91 230.76 218.26 227.379 218.26 223.714C218.26 220.05 218.91 216.668 220.193 213.553V213.587Z" fill="#4D4D4D"/>
<path d="M270.197 178.673H282.19V248.168H270.197V178.673Z" fill="#4D4D4D"/>
<path d="M299.715 254.197C301.164 254.63 302.663 255.013 304.212 255.346C305.761 255.68 307.261 255.946 308.71 256.113C310.159 256.279 311.492 256.363 312.691 256.363C314.523 256.363 316.205 256.213 317.755 255.896C319.304 255.58 320.62 255.097 321.736 254.447C322.852 253.797 323.718 252.964 324.351 251.965C324.984 250.966 325.3 249.75 325.3 248.317V247.285C322.052 247.968 318.837 248.317 315.706 248.317C312.574 248.317 309.792 248.034 307.227 247.468C304.662 246.901 302.447 245.868 300.581 244.386C298.715 242.904 297.283 240.872 296.25 238.306C295.217 235.741 294.701 232.476 294.701 228.545V199.844H306.778V225.113C306.778 227.346 306.961 229.178 307.327 230.644C307.694 232.093 308.277 233.276 309.043 234.158C309.809 235.041 310.792 235.674 311.991 236.041C313.191 236.407 314.623 236.59 316.272 236.59C317.588 236.59 318.971 236.507 320.42 236.341C321.869 236.174 323.485 235.824 325.267 235.308V199.828H337.26V244.469C337.26 248.75 336.844 252.348 336.011 255.263C335.179 258.178 333.796 260.527 331.863 262.326C329.915 264.125 327.349 265.424 324.151 266.224C320.953 267.023 316.955 267.423 312.158 267.423C311.192 267.423 310.109 267.373 308.909 267.257C307.71 267.14 306.478 266.99 305.228 266.79C303.979 266.59 302.747 266.357 301.547 266.107C300.348 265.858 299.265 265.574 298.299 265.291L295.733 252.781C296.933 253.298 298.265 253.764 299.715 254.197Z" fill="#4D4D4D"/>
<path d="M375.938 236.59C377.704 236.024 378.586 235.041 378.586 233.675C378.586 232.426 378.037 231.443 376.921 230.761C375.805 230.078 373.706 229.411 370.624 228.795L366.776 228.112C361.296 227.079 357.015 225.363 353.917 222.965C350.835 220.566 349.286 217.285 349.286 213.104C349.286 208.539 351.068 204.908 354.65 202.226C358.215 199.544 363.145 198.195 369.425 198.195C373.256 198.195 376.954 198.562 380.519 199.312C384.084 200.061 387.215 201.16 389.897 202.66L385.532 213.803C384.45 213.237 383.217 212.704 381.851 212.221C380.485 211.738 379.053 211.321 377.57 210.972C376.088 210.622 374.589 210.372 373.073 210.205C371.557 210.038 370.125 209.956 368.742 209.956C363.711 209.956 361.196 211.005 361.196 213.12C361.196 214.203 361.763 215.102 362.912 215.819C364.061 216.535 366.143 217.168 369.175 217.751L372.94 218.434C379.503 219.683 384.2 221.582 387.032 224.097C389.864 226.613 391.279 230.044 391.279 234.375C391.279 236.491 390.83 238.439 389.913 240.238C388.998 242.038 387.632 243.603 385.799 244.953C383.967 246.302 381.668 247.335 378.903 248.084C376.138 248.834 372.923 249.2 369.258 249.2C367.309 249.2 365.361 249.083 363.395 248.85C361.429 248.617 359.497 248.301 357.615 247.867C355.733 247.435 353.95 246.918 352.251 246.318C350.569 245.719 349.036 245.019 347.67 244.22L352.218 232.56C354.383 233.992 357.015 235.158 360.097 236.074C363.178 236.99 366.36 237.44 369.608 237.44C372.057 237.44 374.172 237.157 375.955 236.59H375.938Z" fill="#4D4D4D"/>
<path d="M45.7738 160.983C44.6911 160.833 43.7749 160.65 43.0253 160.433L42.1758 148.44C43.3252 148.723 44.3246 148.923 45.1741 149.04C46.0237 149.156 46.9232 149.207 47.8226 149.207C50.2213 149.207 51.8871 148.557 52.8365 147.241C53.786 145.925 54.2524 143.793 54.2524 140.811V94.1205H66.2457V130.367H75.5071V142.36H66.1624C65.8126 148.99 64.3135 153.787 61.615 156.752C58.9165 159.717 54.7521 161.2 49.1053 161.2C47.9559 161.2 46.8565 161.133 45.7571 160.983H45.7738ZM55.0686 85.1921C53.6694 84.1094 52.9698 82.5102 52.9698 80.3948C52.9698 78.5125 53.6361 76.98 54.9853 75.814C56.3346 74.648 58.0003 74.0649 59.9992 74.0649C61.9981 74.0649 63.6638 74.648 65.0131 75.814C66.3623 76.98 67.0286 78.5125 67.0286 80.3948C67.0286 82.5102 66.329 84.1094 64.9298 85.1921C63.5306 86.2748 61.8815 86.8245 59.9992 86.8245C58.1169 86.8245 56.4678 86.2748 55.0686 85.1921Z" fill="#4D4D4D"/>
<path d="M91.6981 130.349V94.103H103.692V130.349H119.449V142.343H73.7749V130.349H91.6817H91.6981ZM83.0363 159.05C81.7206 158.017 81.0708 156.501 81.0708 154.503C81.0708 152.671 81.7206 151.188 83.0032 150.055C84.2857 148.922 85.8682 148.339 87.7503 148.339C89.6329 148.339 91.2154 148.906 92.5142 150.055C93.8135 151.205 94.4466 152.687 94.4466 154.503C94.4466 156.501 93.7972 158.017 92.4811 159.05C91.1651 160.083 89.5993 160.599 87.7671 160.599C85.9348 160.599 84.3691 160.083 83.053 159.05H83.0363ZM101.626 159.05C100.31 158.017 99.6605 156.501 99.6605 154.503C99.6605 152.671 100.31 151.188 101.593 150.055C102.875 148.922 104.458 148.339 106.357 148.339C108.256 148.339 109.905 148.906 111.154 150.055C112.403 151.205 113.036 152.687 113.036 154.503C113.036 156.501 112.387 158.017 111.071 159.05C109.755 160.083 108.189 160.599 106.357 160.599C104.525 160.599 102.959 160.083 101.643 159.05H101.626Z" fill="#4D4D4D"/>
<path d="M126.145 130.348V72.8472H138.138V130.348H149.099V142.342H117.733V130.348H126.128H126.145Z" fill="#4D4D4D"/>
<path d="M200.786 130.349V121.188C200.786 119.472 200.603 117.973 200.237 116.69C199.87 115.408 199.287 114.275 198.488 113.309C197.738 112.343 196.739 111.543 195.44 110.91C194.157 110.277 192.741 109.961 191.192 109.961H155.379C154.296 108.528 153.363 106.829 152.597 104.864C151.83 102.898 151.381 100.616 151.264 98.0507L165.14 72.8647H177.999L164.723 98.0507H189.993C193.874 98.0507 197.272 98.5505 200.187 99.5499C203.102 100.549 205.65 102.198 207.816 104.48C209.648 106.429 210.931 108.895 211.664 111.893C212.413 114.891 212.78 118.156 212.78 121.704V142.359H147.399V130.366H200.786V130.349Z" fill="#4D4D4D"/>
<path d="M223.49 160.982C222.408 160.832 221.491 160.649 220.742 160.433L219.893 148.439C221.042 148.723 222.041 148.923 222.891 149.039C223.74 149.155 224.64 149.206 225.539 149.206C227.938 149.206 229.604 148.556 230.553 147.24C231.503 145.924 231.969 143.792 231.969 140.81V94.1196H243.962V130.366H253.224V142.359H243.879C243.529 148.989 242.03 153.787 239.332 156.751C236.633 159.717 232.469 161.199 226.822 161.199C225.673 161.199 224.573 161.132 223.474 160.982H223.49Z" fill="#4D4D4D"/>
<path d="M269.415 130.349V94.103H281.408V130.349H297.166V142.343H251.492V130.349H269.399H269.415ZM260.753 159.05C259.437 158.017 258.788 156.501 258.788 154.503C258.788 152.671 259.437 151.188 260.72 150.055C262.002 148.922 263.585 148.339 265.467 148.339C267.35 148.339 268.932 148.906 270.231 150.055C271.53 151.205 272.163 152.687 272.163 154.503C272.163 156.501 271.514 158.017 270.198 159.05C268.882 160.083 267.316 160.599 265.484 160.599C263.652 160.599 262.086 160.083 260.77 159.05H260.753ZM279.343 159.05C278.027 158.017 277.377 156.501 277.377 154.503C277.377 152.671 278.027 151.188 279.31 150.055C280.592 148.922 282.175 148.339 284.074 148.339C285.973 148.339 287.622 148.906 288.871 150.055C290.12 151.205 290.753 152.687 290.753 154.503C290.753 156.501 290.103 158.017 288.788 159.05C287.472 160.083 285.906 160.599 284.074 160.599C282.241 160.599 280.675 160.083 279.36 159.05H279.343Z" fill="#4D4D4D"/>
<path d="M314.156 130.348V98.3825H326.15V130.348H334.895C336.144 130.348 337.443 130.198 338.793 129.882C340.142 129.565 341.358 128.999 342.474 128.166C343.59 127.333 344.49 126.234 345.173 124.868C345.856 123.502 346.205 121.753 346.205 119.637V98.3825H358.199V119.637C358.315 123.585 359.331 126.5 361.247 128.383C363.162 130.265 365.744 131.214 369.009 131.214C372.44 131.214 375.006 130.248 376.722 128.299C378.437 126.35 379.287 123.735 379.287 120.42V88.1216H391.197V118.888C391.197 127.166 389.364 133.297 385.717 137.261C382.052 141.226 376.488 143.224 369.009 143.224C367.36 143.224 365.728 143.091 364.129 142.841C362.53 142.591 360.98 142.141 359.498 141.508C358.015 140.876 356.633 140.043 355.35 138.976C354.067 137.91 352.935 136.594 351.969 134.996C349.803 137.277 347.221 139.077 344.256 140.393C341.291 141.708 338.176 142.358 334.911 142.358H295.5V130.365H314.173L314.156 130.348Z" fill="#4D4D4D"/>
<path d="M461.958 128.783C460.143 128.067 458.511 127.001 457.095 125.635C456.812 125.352 456.545 125.085 456.295 124.785C455.995 124.452 455.712 124.086 455.446 123.736C454.563 125.052 453.73 126.385 452.93 127.734C452.131 129.083 451.381 130.466 450.665 131.865C448.449 136.196 446.634 140.71 445.268 145.39C444.818 146.89 444.418 148.406 444.069 149.938C443.719 151.47 443.402 153.02 443.136 154.586C443.586 154.502 444.035 154.436 444.502 154.386C444.885 154.352 445.285 154.319 445.684 154.319C445.751 154.319 445.818 154.319 445.901 154.319C447.783 154.319 449.615 154.669 451.331 155.352C451.565 155.452 451.814 155.552 452.048 155.652C452.314 154.152 452.63 152.653 452.997 151.188C453.363 149.722 453.763 148.289 454.213 146.873C455.296 143.425 456.628 140.094 458.211 136.912C458.877 135.563 459.577 134.247 460.326 132.948C461.092 131.632 461.892 130.332 462.724 129.067C462.475 128.983 462.225 128.883 461.975 128.8L461.958 128.783ZM509.28 238.056C507.785 237.789 506.302 237.473 504.854 237.106C503.401 236.74 501.952 236.34 500.538 235.89C497.087 234.808 493.756 233.458 490.558 231.876C489.209 231.209 487.894 230.51 486.613 229.76C485.298 228.994 483.995 228.195 482.749 227.362C482.663 227.595 482.581 227.828 482.482 228.045C481.765 229.76 480.75 231.31 479.414 232.675C479.1 233.009 478.747 233.325 478.382 233.642C478.017 233.958 477.651 234.241 477.269 234.508C478.584 235.407 479.916 236.24 481.283 237.056C482.628 237.856 484.012 238.622 485.414 239.338C489.81 241.604 494.422 243.453 499.189 244.868C500.702 245.318 502.219 245.718 503.77 246.068C505.318 246.418 506.865 246.734 508.451 247.001C508.348 246.534 508.266 246.051 508.215 245.568C508.167 245.085 508.133 244.585 508.116 244.086C508.081 242.22 508.399 240.421 509.066 238.689C509.147 238.472 509.233 238.272 509.315 238.072L509.28 238.056ZM589.554 207.14C587.805 205.441 585.807 204.125 583.692 203.225C582.94 204.541 582.14 205.84 581.324 207.09C581.526 207.173 581.741 207.24 581.943 207.339C583.623 208.056 585.14 209.072 586.456 210.338C586.821 210.704 587.191 211.087 587.521 211.487C587.84 211.87 588.14 212.27 588.407 212.67C589.305 211.354 590.152 209.988 590.951 208.622C590.522 208.106 590.07 207.606 589.572 207.123L589.554 207.14ZM565.902 231.46C564.583 230.177 563.534 228.677 562.769 227.045C562.67 226.845 562.584 226.629 562.503 226.429C561.269 227.295 560.006 228.111 558.703 228.911C557.423 229.694 556.125 230.427 554.805 231.11C551.642 232.775 548.345 234.208 544.911 235.374C543.497 235.857 542.079 236.307 540.63 236.69C539.182 237.089 537.699 237.439 536.216 237.739C536.319 237.939 536.401 238.156 536.483 238.356C537.149 240.038 537.518 241.82 537.548 243.669C537.548 244.169 537.549 244.685 537.484 245.218C537.432 245.701 537.368 246.185 537.282 246.668C538.851 246.368 540.398 246.018 541.945 245.618C543.48 245.235 544.997 244.785 546.497 244.302C551.259 242.77 555.858 240.804 560.238 238.406C561.622 237.656 562.984 236.857 564.317 236.007C565.666 235.158 566.986 234.275 568.284 233.342C567.884 233.075 567.484 232.809 567.084 232.492C566.668 232.159 566.268 231.809 565.902 231.443V231.46ZM461.142 204.808C460.376 203.525 459.643 202.226 458.944 200.893C457.295 197.728 455.879 194.43 454.713 191.015C454.23 189.599 453.797 188.167 453.397 186.718C452.997 185.252 452.647 183.769 452.347 182.287C452.114 182.403 451.881 182.503 451.648 182.603C449.899 183.353 448.033 183.736 446.101 183.769C445.651 183.769 445.234 183.769 444.835 183.736C444.385 183.703 443.919 183.653 443.486 183.569C443.786 185.119 444.135 186.668 444.518 188.184C444.901 189.699 445.351 191.215 445.818 192.698C447.317 197.362 449.249 201.876 451.581 206.19C452.331 207.573 453.114 208.939 453.947 210.271C454.779 211.62 455.662 212.936 456.578 214.236C456.828 213.836 457.112 213.453 457.411 213.086C457.694 212.737 457.994 212.403 458.294 212.103C459.627 210.721 461.193 209.638 462.926 208.888C463.158 208.789 463.373 208.689 463.61 208.606C462.742 207.356 461.909 206.09 461.126 204.791L461.142 204.808ZM507.2 97.9338C506.435 96.1514 506.035 94.2692 506.001 92.3036C506.001 91.9205 506.001 91.504 506.035 91.1042C506.066 90.6379 506.117 90.1881 506.186 89.7383C504.634 90.0548 503.087 90.4046 501.57 90.8044C500.053 91.2042 498.54 91.6539 497.057 92.137C492.441 93.6528 487.962 95.5851 483.699 97.9171C482.315 98.6667 480.982 99.4496 479.65 100.282C478.318 101.115 477.002 101.998 475.717 102.914C476.083 103.164 476.452 103.447 476.8 103.731C477.101 103.964 477.368 104.23 477.669 104.497C479.083 105.863 480.183 107.462 480.931 109.261C481.03 109.511 481.133 109.76 481.232 110.011C482.482 109.144 483.746 108.295 485.044 107.512C486.312 106.729 487.627 105.996 488.942 105.296C492.093 103.631 495.389 102.198 498.806 101.015C500.22 100.532 501.639 100.083 503.087 99.6828C504.553 99.283 506.018 98.9166 507.518 98.6167C507.398 98.3835 507.282 98.1503 507.183 97.9171L507.2 97.9338ZM562.185 99.0332C560.822 98.2336 559.438 97.484 558.037 96.7678C553.675 94.5523 549.093 92.7533 544.395 91.3874C542.895 90.9543 541.382 90.5546 539.848 90.2047C538.318 89.8549 536.766 89.5551 535.202 89.2886C535.283 89.7383 535.352 90.1881 535.399 90.6379C535.451 91.0543 535.468 91.4874 535.468 91.8872C535.503 93.8194 535.15 95.7017 534.45 97.484C534.351 97.7172 534.252 97.9671 534.153 98.2003C535.653 98.4668 537.149 98.7666 538.614 99.1331C540.08 99.4829 541.516 99.8827 542.947 100.332C546.394 101.398 549.742 102.714 552.94 104.28C554.289 104.93 555.604 105.629 556.907 106.362C558.222 107.112 559.52 107.911 560.788 108.728C560.87 108.495 560.955 108.261 561.054 108.028C561.768 106.279 562.804 104.68 564.136 103.314C564.467 102.981 564.768 102.698 565.069 102.431L565.103 102.398C565.468 102.081 565.834 101.798 566.216 101.532C564.901 100.649 563.551 99.816 562.185 99.0165V99.0332ZM587.023 121.671C586.774 122.054 586.49 122.437 586.206 122.803C585.888 123.203 585.575 123.553 585.256 123.869C583.941 125.219 582.407 126.285 580.709 127.051C580.477 127.151 580.258 127.251 580.026 127.334C580.894 128.567 581.723 129.833 582.523 131.132C584.689 130.166 586.705 128.783 588.454 126.984C588.888 126.535 589.288 126.085 589.671 125.602C588.82 124.269 587.938 122.953 587.023 121.671Z" fill="#04D0D9"/>
<path d="M540.628 236.688C537.749 229.558 530.7 224.561 522.555 224.678C514.428 224.794 507.547 229.942 504.852 237.104C504.018 239.286 503.584 241.668 503.618 244.15C503.618 244.8 503.665 245.433 503.734 246.066C504.834 255.761 513.13 263.206 523.071 263.073C532.999 262.94 541.062 255.294 541.931 245.616C541.995 244.95 542.012 244.284 542.012 243.601C541.978 241.152 541.497 238.82 540.628 236.688ZM523.024 258.592H522.822C515.794 258.592 509.863 253.728 508.432 246.982C508.333 246.516 508.247 246.032 508.2 245.549C508.148 245.066 508.114 244.567 508.097 244.067C508.067 242.201 508.38 240.402 509.047 238.67C509.132 238.453 509.214 238.253 509.296 238.054C511.595 232.706 516.744 229.225 522.624 229.142H522.822C528.555 229.142 533.833 232.54 536.214 237.737C536.317 237.937 536.399 238.153 536.481 238.354C537.147 240.036 537.517 241.818 537.547 243.667C537.547 244.167 537.547 244.683 537.482 245.216C537.431 245.699 537.366 246.182 537.28 246.666C535.999 253.462 530.102 258.509 523.024 258.609V258.592Z" fill="#04D0D9"/>
<path d="M544.911 235.354C544.864 235.237 544.829 235.12 544.778 235.004C541.146 226.009 532.202 220.062 522.492 220.196C512.68 220.329 504.118 226.342 500.671 235.52C500.62 235.637 500.585 235.753 500.538 235.887C499.571 238.552 499.103 241.35 499.154 244.215C499.154 244.432 499.154 244.648 499.171 244.849C499.206 245.431 499.236 245.998 499.305 246.564C500.671 258.574 510.746 267.552 522.823 267.552C522.939 267.552 523.043 267.552 523.159 267.552C535.318 267.386 545.311 258.124 546.411 246.014C546.462 245.431 546.497 244.865 546.497 244.315C546.497 244.065 546.497 243.799 546.497 243.549C546.445 240.717 545.93 237.969 544.911 235.37V235.354ZM522.823 258.591C515.796 258.591 509.865 253.727 508.434 246.98C508.335 246.514 508.249 246.031 508.202 245.548C508.15 245.065 508.116 244.565 508.098 244.065C508.068 242.2 508.382 240.401 509.048 238.668C509.134 238.452 509.216 238.252 509.298 238.052C511.597 232.705 516.746 229.224 522.626 229.141H522.823C528.557 229.141 533.835 232.539 536.216 237.736C536.319 237.936 536.401 238.152 536.482 238.352C537.149 240.034 537.518 241.817 537.548 243.666C537.548 244.166 537.548 244.682 537.484 245.215C537.432 245.698 537.368 246.181 537.282 246.664C536.001 253.46 530.104 258.507 523.025 258.607H522.823V258.591Z" fill="#04D0D9"/>
<path d="M482.245 208.623C476.482 203.009 468.087 201.743 461.142 204.791C458.943 205.757 456.877 207.156 455.095 208.989C454.695 209.405 454.312 209.838 453.963 210.271C447.749 217.901 448.282 229.144 455.478 236.14C462.625 243.103 473.817 243.353 481.282 237.023C481.747 236.623 482.198 236.207 482.628 235.757C484.377 233.958 485.709 231.909 486.612 229.727C489.526 222.681 488.06 214.252 482.245 208.623ZM482.464 228.028C481.747 229.744 480.732 231.293 479.4 232.659C479.082 232.992 478.734 233.309 478.364 233.625C477.999 233.942 477.633 234.225 477.251 234.491C471.504 238.506 463.725 237.939 458.593 232.942C453.513 227.995 452.747 220.049 456.594 214.252C456.844 213.853 457.127 213.47 457.427 213.103C457.71 212.753 458.01 212.42 458.31 212.12C459.643 210.738 461.209 209.655 462.943 208.905C463.175 208.806 463.39 208.705 463.622 208.623C465.341 207.973 467.103 207.656 468.87 207.656C472.618 207.656 476.301 209.105 479.133 211.837C482.047 214.686 483.595 218.483 483.595 222.365C483.595 224.03 483.311 225.713 482.731 227.345C482.645 227.578 482.563 227.811 482.464 228.028Z" fill="#04D0D9"/>
<path d="M485.361 205.422C478.433 198.676 468.204 196.827 459.343 200.708C459.21 200.775 459.076 200.825 458.943 200.891C456.311 202.108 453.946 203.79 451.897 205.889C451.797 205.989 451.68 206.105 451.581 206.222C451.197 206.621 450.831 207.038 450.481 207.471C446.766 212.035 444.884 217.815 445.217 223.712C445.551 229.659 448.083 235.206 452.347 239.37C456.594 243.501 462.191 245.883 468.105 246.067C468.354 246.067 468.603 246.067 468.853 246.067C474.466 246.067 479.881 244.084 484.145 240.453C484.579 240.086 484.996 239.703 485.396 239.32C485.546 239.17 485.679 239.037 485.83 238.887C486.879 237.804 487.828 236.638 488.645 235.389C489.393 234.273 490.025 233.09 490.558 231.858C490.626 231.724 490.674 231.591 490.742 231.458C494.473 222.446 492.358 212.218 485.378 205.422H485.361ZM482.731 227.344C482.645 227.576 482.563 227.81 482.464 228.026C481.747 229.742 480.732 231.291 479.4 232.657C479.082 232.99 478.734 233.307 478.364 233.623C477.999 233.94 477.633 234.223 477.251 234.489C471.505 238.504 463.725 237.938 458.593 232.94C453.513 227.993 452.747 220.048 456.594 214.251C456.844 213.851 457.127 213.468 457.427 213.101C457.71 212.752 458.01 212.418 458.31 212.119C459.643 210.736 461.209 209.653 462.943 208.904C463.175 208.804 463.39 208.704 463.622 208.621C465.341 207.971 467.103 207.654 468.87 207.654C472.618 207.654 476.301 209.104 479.134 211.835C482.048 214.684 483.595 218.482 483.595 222.363C483.595 224.028 483.311 225.711 482.731 227.344Z" fill="#04D0D9"/>
<path d="M452.997 151.185C450.715 150.286 448.233 149.802 445.634 149.836C445.118 149.836 444.602 149.869 444.085 149.919C434.224 150.852 426.562 159.214 426.712 169.291C426.845 179.336 434.674 187.481 444.535 188.181C445.068 188.231 445.618 188.231 446.184 188.231C448.75 188.198 451.198 187.648 453.43 186.698C460.393 183.734 465.226 176.787 465.123 168.758C465.006 160.763 460.026 153.967 453.014 151.185H452.997ZM452.364 182.268C452.131 182.384 451.898 182.484 451.665 182.584C449.915 183.333 448.05 183.717 446.118 183.75C445.668 183.75 445.252 183.75 444.852 183.717C444.402 183.683 443.935 183.633 443.502 183.55C436.59 182.401 431.292 176.354 431.193 169.225C431.093 162.062 436.256 155.866 443.169 154.55C443.619 154.466 444.069 154.4 444.535 154.35C444.918 154.317 445.318 154.283 445.718 154.283C445.784 154.283 445.851 154.283 445.934 154.283C447.817 154.283 449.649 154.633 451.365 155.316C451.598 155.416 451.848 155.516 452.081 155.616C457.245 157.981 460.576 163.078 460.659 168.792C460.743 174.538 457.511 179.736 452.381 182.234L452.364 182.268Z" fill="#04D0D9"/>
<path d="M454.645 147.037C454.495 146.971 454.345 146.921 454.211 146.871C451.446 145.838 448.548 145.322 445.566 145.371C445.466 145.371 445.366 145.371 445.283 145.371C444.733 145.371 444.184 145.422 443.667 145.472C437.754 146.021 432.307 148.77 428.326 153.184C424.311 157.632 422.146 163.378 422.229 169.358C422.313 175.322 424.611 180.985 428.726 185.316C432.807 189.613 438.304 192.212 444.184 192.629C444.717 192.679 445.25 192.695 445.816 192.695H446.216C449.164 192.645 452.013 192.079 454.711 190.996C454.861 190.93 455.011 190.88 455.144 190.813C464.021 187.032 469.685 178.353 469.569 168.692C469.436 159.081 463.574 150.569 454.645 147.021V147.037ZM451.646 182.601C449.897 183.35 448.032 183.734 446.099 183.767C445.65 183.767 445.233 183.767 444.833 183.734C444.383 183.7 443.917 183.65 443.484 183.567C436.571 182.418 431.274 176.371 431.174 169.242C431.074 162.079 436.238 155.882 443.151 154.567C443.601 154.483 444.05 154.417 444.517 154.367C444.9 154.333 445.3 154.3 445.7 154.3C445.766 154.3 445.833 154.3 445.916 154.3C447.798 154.3 449.63 154.65 451.346 155.333C451.58 155.433 451.829 155.533 452.063 155.633C457.226 157.998 460.558 163.095 460.641 168.809C460.725 174.555 457.493 179.753 452.362 182.251C452.129 182.368 451.896 182.468 451.663 182.568L451.646 182.601Z" fill="#04D0D9"/>
<path d="M485.042 107.53C484.08 105.264 482.661 103.149 480.762 101.316C480.396 100.95 480.014 100.617 479.631 100.3C472.002 93.9539 460.641 94.4536 453.612 101.7C446.566 108.929 446.383 120.289 452.946 127.752C453.279 128.135 453.628 128.501 453.995 128.851C455.877 130.684 458.026 132.033 460.325 132.949C467.322 135.714 475.583 134.198 481.148 128.468C486.71 122.738 487.991 114.443 485.042 107.53ZM477.946 125.336C473.984 129.417 468.087 130.833 462.723 129.051C462.474 128.968 462.224 128.868 461.974 128.784C460.158 128.068 458.526 127.002 457.11 125.636C456.827 125.353 456.56 125.087 456.31 124.787C456.011 124.454 455.727 124.087 455.461 123.737C451.313 118.024 451.813 109.962 456.827 104.814C459.692 101.883 463.539 100.384 467.403 100.384C470.305 100.384 473.219 101.233 475.716 102.949C476.081 103.199 476.451 103.482 476.799 103.765C477.1 103.998 477.366 104.265 477.667 104.531C479.081 105.897 480.181 107.496 480.929 109.295C481.028 109.545 481.131 109.795 481.23 110.045C483.16 115.342 481.914 121.272 477.946 125.353V125.336Z" fill="#04D0D9"/>
<path d="M489.162 105.779C489.093 105.613 489.028 105.463 488.942 105.313C487.726 102.614 486.028 100.199 483.897 98.1169C483.832 98.0503 483.763 97.9837 483.699 97.917C483.312 97.5506 482.899 97.1841 482.5 96.851C477.935 93.0531 472.137 91.1208 466.171 91.4374C460.193 91.7372 454.597 94.2691 450.415 98.5667C441.854 107.362 441.487 121.471 449.566 130.649C449.916 131.049 450.282 131.448 450.682 131.848C450.748 131.915 450.815 131.981 450.865 132.032C452.998 134.114 455.463 135.746 458.194 136.895C458.344 136.962 458.511 137.028 458.661 137.095C461.493 138.211 464.457 138.761 467.371 138.761C470.504 138.761 473.603 138.145 476.5 136.929C479.384 135.729 482.066 133.93 484.331 131.582C491.01 124.719 492.892 114.591 489.144 105.779H489.162ZM462.724 129.05C462.475 128.966 462.225 128.867 461.976 128.783C460.16 128.067 458.528 127.001 457.112 125.635C456.828 125.352 456.562 125.085 456.312 124.786C456.012 124.452 455.729 124.086 455.463 123.736C451.315 118.023 451.815 109.96 456.828 104.813C459.694 101.882 463.541 100.382 467.405 100.382C470.306 100.382 473.22 101.232 475.717 102.948C476.083 103.197 476.452 103.481 476.8 103.764C477.101 103.997 477.368 104.264 477.669 104.53C479.083 105.896 480.183 107.495 480.931 109.294C481.03 109.544 481.133 109.794 481.232 110.044C483.166 115.341 481.915 121.271 477.948 125.352C473.985 129.433 468.088 130.849 462.724 129.066V129.05Z" fill="#04D0D9"/>
<path d="M539.83 90.2022C538.867 80.3744 530.52 72.7786 520.459 72.9119C510.38 73.0451 502.218 80.9241 501.569 90.8186C501.535 91.3349 501.517 91.8513 501.535 92.3677C501.569 94.9662 502.119 97.4482 503.103 99.697C506.082 106.626 513.015 111.424 521.009 111.307C529.038 111.191 535.85 106.16 538.614 99.1306C539.499 96.8819 539.963 94.4166 539.933 91.8513C539.933 91.3016 539.899 90.752 539.83 90.2189V90.2022ZM520.927 106.843C515.194 106.926 510.015 103.728 507.517 98.6475C507.401 98.4143 507.281 98.1811 507.182 97.9479C506.417 96.1656 506.017 94.2833 505.983 92.3177C505.983 91.9346 505.983 91.5182 506.017 91.1184C506.052 90.652 506.099 90.2022 506.168 89.7525C507.281 82.8064 513.346 77.476 520.51 77.3761H520.708C527.757 77.3761 533.834 82.4732 535.167 89.2861C535.252 89.7359 535.317 90.1856 535.369 90.6353C535.416 91.0518 535.433 91.4849 535.433 91.8847C535.467 93.8169 535.119 95.6992 534.419 97.4815C534.32 97.7147 534.217 97.9646 534.118 98.1978C531.771 103.395 526.656 106.76 520.91 106.826L520.927 106.843Z" fill="#04D0D9"/>
<path d="M544.394 91.7846C544.394 91.6514 544.394 91.5181 544.394 91.3849C544.377 90.8518 544.347 90.3021 544.296 89.7691C543.711 83.8891 540.965 78.4587 536.551 74.4943C532.102 70.5132 526.39 68.3477 520.407 68.4476C514.429 68.5309 508.734 70.8463 504.401 74.9773C500.086 79.0751 497.503 84.6053 497.103 90.5353C497.073 91.0851 497.056 91.618 497.056 92.1511C497.056 92.2511 497.056 92.3344 497.056 92.4343C497.091 95.4159 497.688 98.2977 498.805 101.029C498.87 101.179 498.921 101.329 498.986 101.463C502.751 110.191 511.248 115.771 520.725 115.771C520.841 115.771 520.94 115.771 521.061 115.771C530.718 115.638 539.25 109.741 542.778 100.746C542.83 100.596 542.894 100.463 542.946 100.313C543.913 97.6813 544.412 94.9162 544.412 92.1011C544.412 91.9845 544.412 91.8846 544.412 91.768L544.394 91.7846ZM535.386 90.6519C535.433 91.0684 535.45 91.5015 535.45 91.9012C535.485 93.8335 535.132 95.7158 534.436 97.4981C534.333 97.7313 534.234 97.9812 534.135 98.2144C531.784 103.411 526.674 106.776 520.927 106.843C515.194 106.926 510.015 103.728 507.518 98.6475C507.401 98.4143 507.281 98.1811 507.182 97.9479C506.417 96.1655 506.018 94.2832 505.983 92.3177C505.983 91.9346 505.983 91.5181 506.018 91.1184C506.052 90.6519 506.099 90.2022 506.168 89.7525C507.281 82.8063 513.346 77.4759 520.51 77.376H520.708C527.757 77.376 533.834 82.4732 535.167 89.286C535.253 89.7358 535.317 90.1855 535.369 90.6353L535.386 90.6519Z" fill="#04D0D9"/>
<path d="M588.071 99.8301C580.894 92.834 569.633 92.6008 562.185 99.0306C561.755 99.397 561.338 99.7968 560.938 100.197C559.154 102.029 557.805 104.128 556.907 106.36C554.057 113.389 555.54 121.735 561.303 127.348C567.101 132.995 575.547 134.228 582.523 131.129C584.689 130.163 586.705 128.781 588.454 126.982C588.888 126.532 589.288 126.082 589.67 125.599C595.799 117.97 595.236 106.793 588.071 99.8301ZM586.189 122.8C585.871 123.201 585.557 123.55 585.239 123.867C583.924 125.216 582.389 126.282 580.692 127.048C580.46 127.148 580.245 127.248 580.008 127.331C574.627 129.414 568.584 128.214 564.402 124.15C560.255 120.119 558.871 114.155 560.77 108.742C560.852 108.509 560.938 108.275 561.037 108.042C561.755 106.293 562.786 104.694 564.119 103.328C564.45 102.995 564.75 102.712 565.051 102.445L565.086 102.412C565.451 102.096 565.816 101.812 566.199 101.546C568.748 99.7302 571.73 98.8307 574.679 98.8307C578.375 98.8307 582.076 100.247 584.938 103.028C590.07 108.026 590.852 115.805 587.006 121.651C586.756 122.035 586.473 122.417 586.189 122.784V122.8Z" fill="#04D0D9"/>
<path d="M598.318 112.207C597.965 106.294 595.434 100.764 591.187 96.6325C586.924 92.4848 581.293 90.1028 575.345 89.9362C569.448 89.7697 563.736 91.8018 559.27 95.633C558.853 95.9829 558.436 96.366 558.02 96.7824C557.921 96.8824 557.822 96.9823 557.706 97.0989C555.656 99.1977 554.04 101.613 552.909 104.295C552.84 104.428 552.793 104.561 552.742 104.695C549.093 113.673 551.224 123.817 558.17 130.564C562.704 134.978 568.614 137.293 574.644 137.293C577.911 137.293 581.207 136.61 584.341 135.211C587.087 133.979 589.554 132.263 591.652 130.097C592.154 129.581 592.653 129.031 593.152 128.415C596.835 123.834 598.666 118.071 598.318 112.207ZM587.005 121.669C586.756 122.052 586.472 122.435 586.189 122.801C585.871 123.201 585.557 123.551 585.239 123.867C583.924 125.217 582.389 126.283 580.692 127.049C580.459 127.149 580.245 127.249 580.008 127.332C574.627 129.414 568.584 128.215 564.402 124.151C560.255 120.12 558.871 114.156 560.77 108.742C560.852 108.509 560.938 108.276 561.037 108.043C561.755 106.294 562.786 104.695 564.118 103.329C564.449 102.996 564.75 102.712 565.051 102.446L565.086 102.413C565.451 102.096 565.816 101.813 566.199 101.546C568.747 99.7308 571.73 98.8313 574.679 98.8313C578.375 98.8313 582.076 100.247 584.938 103.029C590.07 108.026 590.852 115.805 587.005 121.652V121.669Z" fill="#04D0D9"/>
<path d="M590.938 208.639C590.504 208.122 590.052 207.623 589.554 207.14C587.805 205.441 585.806 204.125 583.691 203.225C576.595 200.21 568.098 201.659 562.403 207.523C556.721 213.37 555.505 221.914 558.703 228.911C559.67 231.009 561.019 232.959 562.769 234.674C563.267 235.157 563.77 235.607 564.303 236.024C571.932 242.02 583.008 241.404 589.919 234.308C596.835 227.195 597.131 216.118 590.938 208.655V208.639ZM586.722 231.176C581.792 236.24 574.094 237.073 568.283 233.358C567.883 233.092 567.484 232.825 567.084 232.509C566.667 232.176 566.267 231.826 565.902 231.459C564.582 230.177 563.534 228.677 562.769 227.045C562.67 226.845 562.584 226.628 562.502 226.429C560.336 221.065 561.552 214.802 565.601 210.638C568.416 207.739 572.297 206.19 576.213 206.19C577.928 206.19 579.66 206.49 581.31 207.106C581.508 207.189 581.723 207.256 581.925 207.356C583.605 208.072 585.123 209.088 586.438 210.354C586.803 210.721 587.173 211.104 587.504 211.504C587.822 211.887 588.123 212.286 588.389 212.687C592.253 218.4 591.634 226.112 586.722 231.176Z" fill="#04D0D9"/>
<path d="M594.384 205.789C593.851 205.139 593.266 204.523 592.669 203.94C590.567 201.891 588.139 200.275 585.422 199.109C576.491 195.311 565.948 197.444 559.187 204.39C552.422 211.336 550.591 221.93 554.623 230.758C554.67 230.875 554.721 230.992 554.79 231.108C555.989 233.623 557.618 235.906 559.651 237.871C559.836 238.054 560.034 238.221 560.219 238.404C560.636 238.787 561.087 239.17 561.534 239.52C565.866 242.918 571.011 244.6 576.143 244.6C579.242 244.6 582.323 244.001 585.22 242.785C588.121 241.586 590.82 239.787 593.116 237.405C601.596 228.693 602.129 215.1 594.366 205.789H594.384ZM568.282 233.357C567.882 233.09 567.482 232.824 567.083 232.507C566.666 232.174 566.266 231.824 565.901 231.458C564.581 230.175 563.532 228.676 562.767 227.044C562.668 226.844 562.583 226.627 562.501 226.428C560.335 221.064 561.551 214.801 565.6 210.636C568.415 207.738 572.296 206.189 576.212 206.189C577.926 206.189 579.659 206.489 581.309 207.105C581.507 207.188 581.722 207.255 581.924 207.355C583.604 208.071 585.121 209.087 586.436 210.353C586.802 210.72 587.171 211.103 587.502 211.502C587.82 211.886 588.121 212.285 588.388 212.685C592.252 218.398 591.633 226.111 586.72 231.175C581.79 236.239 574.093 237.072 568.282 233.357Z" fill="#04D0D9"/>
</g>
<defs>
<clipPath id="clip0_219_27">
<rect width="567.338" height="206.305" fill="white" transform="translate(32.5137 64.8477)"/>
</clipPath>
</defs>
</svg>
