<svg width="632" height="336" viewBox="0 0 632 336" fill="none" xmlns="http://www.w3.org/2000/svg">
<path d="M481.529 211.102C481.529 198.471 491.387 174.313 500.687 149.19C501.382 147.244 502.214 146.692 503.604 146.692C507.49 146.692 511.515 153.352 511.653 157.934C511.653 160.017 510.682 160.293 509.155 160.436H508.185C496.938 190.417 493.47 200.55 493.47 202.215C519.707 158.352 526.367 152.658 530.673 152.52C534.146 152.52 537.89 155.574 538.033 157.796C538.033 159.185 531.781 181.811 531.506 185.56C543.442 171.121 558.299 151.687 562.324 151.687C566.348 151.687 570.373 155.712 570.511 160.017C570.511 168.067 558.575 193.057 558.575 208.466C558.713 214.713 561.348 217.072 561.491 218.457C561.491 219.432 560.521 220.54 558.851 220.54C552.885 220.54 549.136 214.294 548.579 204.442V199.58C549.274 192.082 554.826 172.51 554.826 172.51C553.993 172.51 534.003 200.274 532.338 201.383L529.565 202.496C523.732 202.496 521.091 199.166 521.091 187.781C521.091 181.397 521.51 177.648 521.51 177.648L521.372 177.367C509.712 190.56 497.771 220.54 488.751 220.959C483.751 220.959 481.667 217.348 481.529 211.102ZM456.947 170.707C453.893 165.013 453.061 163.485 452.09 163.485C444.73 166.678 431.124 191.944 431.124 208.742C431.124 210.407 431.405 211.521 431.819 211.521C432.794 211.521 446.257 188.752 456.947 170.707ZM419.883 205.688C419.883 187.919 435.986 155.855 447.922 155.855C453.198 155.855 460.558 162.096 461.947 162.096C462.775 160.569 468.883 151.549 472.356 151.549C476.105 151.549 479.716 153.771 479.716 155.988C479.716 158.628 470.273 181.949 470.273 198.609C470.273 209.299 473.051 212.215 473.051 214.294C473.051 216.102 471.524 217.905 469.026 217.905C465.691 217.905 462.499 216.102 461.11 213.599C460.139 211.659 458.888 201.939 458.888 195.974L459.031 189.722C459.031 189.722 444.868 214.432 440.843 218.319C438.76 220.403 436.681 221.373 434.321 221.373C424.183 221.373 420.439 213.324 419.883 205.688ZM416.542 169.18C417.237 167.372 417.794 162.934 417.794 160.569L417.513 159.047C412.099 159.323 400.163 176.816 399.193 180.84L399.468 181.811C401.552 181.811 414.183 175.564 416.542 169.18ZM385.31 193.752C385.862 167.791 401.828 150.579 414.877 150.579C424.178 150.579 428.484 155.436 428.484 164.18C428.484 178.481 417.513 189.865 403.631 189.865C400.301 189.865 400.025 189.446 396.971 188.752C396.552 190.417 396.414 193.057 396.414 195.555C396.414 199.166 396.695 202.634 396.971 203.885C397.941 208.186 398.222 208.466 401.271 208.742C405.853 209.161 409.882 212.072 409.882 215.127L409.464 216.378L405.301 217.073C393.641 216.516 385.31 210.964 385.31 193.752ZM353.098 235.255C353.098 231.511 358.931 208.742 367.118 182.643C375.31 156.544 384.473 126.421 384.473 126.421C353.517 126.84 353.792 132.254 350.6 132.254C345.6 132.254 341.3 128.091 341.3 124.618C341.3 116.844 364.344 117.815 376.561 116.707H383.497C385.443 116.707 387.108 116.012 387.803 115.874C389.887 115.455 397.104 87.8291 400.02 87.8291C403.074 87.8291 407.374 92.4105 407.793 94.7701C407.793 96.9919 403.488 114.761 403.488 115.593C407.518 115.593 434.306 117.401 435.557 125.032C435.557 127.948 434.168 129.199 431.252 129.199C429.173 129.199 428.336 128.091 425.7 126.007C416.818 124.204 408.626 123.923 403.769 123.923L399.187 124.061L385.862 154.466C374.059 192.082 364.896 238.309 363.65 239.698C363.231 240.255 362.261 240.531 361.147 240.531C357.541 240.531 353.374 237.063 353.098 235.255ZM271.313 211.102C271.313 198.471 281.17 174.313 290.471 149.19C291.165 147.244 291.998 146.692 293.387 146.692C297.274 146.692 301.303 153.352 301.441 157.934C301.441 160.017 300.466 160.293 298.939 160.436H297.968C286.727 190.417 283.254 200.55 283.254 202.215C309.491 158.352 316.151 152.658 320.456 152.52C323.929 152.52 327.678 155.574 327.816 157.796C327.816 159.185 321.57 181.811 321.289 185.56C333.23 171.121 348.083 151.687 352.107 151.687C356.132 151.687 360.162 155.712 360.3 160.017C360.3 168.067 348.358 193.057 348.358 208.466C348.501 214.713 351.137 217.072 351.275 218.457C351.275 219.432 350.304 220.54 348.639 220.54C342.669 220.54 338.92 214.294 338.363 204.442V199.58C339.058 192.082 344.614 172.51 344.614 172.51C343.777 172.51 323.792 200.274 322.121 201.383L319.348 202.496C313.516 202.496 310.88 199.166 310.88 187.781C310.88 181.397 311.294 177.648 311.294 177.648L311.156 177.367C299.496 190.56 287.559 220.54 278.535 220.959C273.534 220.959 271.456 217.348 271.313 211.102ZM240.351 213.742C238.13 213.742 232.578 211.659 232.159 208.604L232.021 207.215C232.021 195.693 243.406 144.327 250.898 144.19C254.233 144.19 257.983 146.554 258.258 149.052V150.441C261.313 148.076 261.174 147.663 264.918 147.382C267.559 147.382 270.475 148.633 272.697 150.993C275.751 154.185 281.86 162.791 281.86 164.042C281.86 165.569 280.884 165.983 279.081 165.983C275.751 165.983 272.697 163.766 267.559 156.682C255.204 174.87 244.933 211.521 242.292 213.186L240.765 213.742H240.351ZM208.967 170.707C205.907 165.013 205.08 163.485 204.104 163.485C196.749 166.678 183.143 191.944 183.143 208.742C183.143 210.407 183.419 211.521 183.838 211.521C184.808 211.521 198.277 188.752 208.967 170.707ZM171.902 205.688C171.902 187.919 188 155.855 199.942 155.855C205.212 155.855 212.572 162.096 213.961 162.096C214.794 160.569 220.903 151.549 224.371 151.549C228.119 151.549 231.73 153.771 231.73 155.988C231.73 158.628 222.292 181.949 222.292 198.609C222.292 209.299 225.065 212.215 225.065 214.294C225.065 216.102 223.538 217.905 221.04 217.905C217.71 217.905 214.518 216.102 213.129 213.599C212.159 211.659 210.907 201.939 210.907 195.974L211.045 189.722C211.045 189.722 196.887 214.432 192.863 218.319C190.779 220.403 188.695 221.373 186.335 221.373C176.202 221.373 172.453 213.324 171.902 205.688ZM132.728 199.86C138.423 186.949 143.418 175.289 147.723 164.875C152.024 154.466 154.245 148.633 154.245 147.663C144.669 147.8 122.038 149.328 86.6384 151.963L84.5598 152.796C109.126 174.175 121.624 198.19 122.038 224.708L132.728 199.86ZM104.688 268.157C104.688 266.354 107.604 258.575 113.57 244.699C114.821 241.501 115.516 235.398 115.516 226.649C115.516 204.993 102.742 182.505 77.062 159.047L74.1457 156.407C72.3428 156.825 70.6779 157.101 69.1508 157.101C66.2345 157.101 64.2883 156.131 63.0421 154.185C61.7908 152.382 61.0964 150.579 60.9585 149.052C60.9585 147.801 66.2345 146.135 76.7864 144.327C131.339 138.5 159.103 135.584 160.078 135.584C160.216 135.584 163.546 127.396 170.349 110.874C177.709 92.9672 181.315 81.3069 181.315 76.031C181.315 74.5039 180.901 73.6714 180.206 73.3956C178.541 72.8389 175.901 72.5579 172.433 72.5579C164.797 72.5579 148.832 73.6713 124.541 75.8931C100.245 78.2527 83.865 79.9178 75.1211 80.8882C71.0914 80.8882 68.0425 80.4744 65.9587 79.504C63.8749 78.6664 62.6233 76.8635 62.4854 74.0902C62.4854 73.1147 62.9045 72.2822 63.737 71.7254C64.9832 70.8929 70.8156 69.3658 81.5054 67.0062C105.934 65.76 125.092 64.7844 138.974 63.814C152.856 62.8436 162.714 62.4299 168.546 62.4299C182.428 62.4299 189.645 68.3954 190.202 80.4745C190.202 85.0558 188.95 90.7455 186.453 97.6865C183.261 106.436 178.399 118.785 171.739 134.613C181.872 134.751 186.867 139.195 186.867 148.076C186.867 149.884 186.172 150.855 184.788 150.855C183.261 150.855 181.453 149.746 179.374 147.52C178.817 146.83 177.566 146.411 175.482 146.411C174.236 146.411 171.044 146.692 166.187 147.106C165.211 149.466 162.157 156.682 157.162 168.904L139.255 212.072C122.733 251.777 113.294 272.319 110.935 273.571C107.048 272.6 104.964 270.797 104.688 268.157Z" fill="black"/>
</svg>
