<svg width="632" height="336" viewBox="0 0 632 336" fill="none" xmlns="http://www.w3.org/2000/svg">
<g clip-path="url(#clip0_176_849)">
<path d="M277.639 120.106L309.497 153.324H291.743L264.682 124.974V153.324H250.865V87.5322H264.682V115.596L290.669 87.5322H308.065L277.639 120.106Z" fill="#071E4F"/>
<path d="M326.822 153.324H311.716L350.876 84.8838L390.036 153.324H374.787L367.771 140.724H333.909L326.822 153.324ZM339.994 129.914H361.615L350.733 110.728L339.994 129.914Z" fill="#071E4F"/>
<path d="M414.663 101.85C411.442 103.783 408.936 106.432 407.075 109.725C405.213 113.018 404.283 116.598 404.283 120.392C404.283 124.187 405.213 127.766 407.075 131.059C408.936 134.352 411.513 137.001 414.663 138.934C417.885 140.867 421.393 141.869 425.187 141.869C431.845 141.869 438.073 139.578 443.944 134.997V149.887C439.076 153.109 432.847 154.756 425.187 154.756C418.815 154.756 413.017 153.181 407.647 150.102C402.278 147.024 398.054 142.8 394.904 137.574C391.754 132.348 390.251 126.621 390.251 120.321C390.251 114.021 391.826 108.365 394.904 103.067C398.054 97.8413 402.278 93.6891 407.647 90.5391C413.017 87.3891 418.887 85.8857 425.187 85.8857C432.489 85.8857 438.861 87.6755 444.23 91.255L444.015 105.645C438.073 101.063 431.845 98.772 425.187 98.772C421.393 98.9152 417.885 99.8458 414.663 101.85Z" fill="#071E4F"/>
<path d="M472.294 100.275C470.433 101.707 469.574 103.568 469.574 105.788C469.574 107.363 470.146 108.651 471.363 109.653C472.58 110.656 474.084 111.372 475.945 111.944C477.807 112.517 480.384 113.09 483.749 113.663C488.831 114.665 493.055 115.667 496.348 116.812C499.642 117.958 502.505 119.891 504.939 122.683C507.373 125.475 508.519 129.269 508.519 134.137C508.519 140.867 506.013 146.021 501.002 149.529C495.99 153.037 489.261 154.827 480.813 154.827C474.8 154.827 469.359 153.896 464.562 152.035C459.766 150.174 456.115 147.954 453.466 145.449L459.479 134.424C462.271 136.786 465.565 138.719 469.287 140.294C473.01 141.797 476.876 142.585 480.956 142.585C485.467 142.585 488.831 141.869 490.908 140.366C493.055 138.862 494.057 136.858 494.057 134.424C494.057 132.849 493.485 131.56 492.268 130.558C491.051 129.556 489.547 128.84 487.758 128.267C485.968 127.694 483.319 127.121 479.954 126.477C474.871 125.475 470.719 124.401 467.498 123.256C464.276 122.11 461.412 120.177 459.05 117.457C456.687 114.736 455.47 111.014 455.47 106.289C455.47 102.136 456.544 98.557 458.62 95.5502C460.768 92.4718 463.703 90.1809 467.569 88.6059C471.435 87.031 475.874 86.1719 480.813 86.1719C486.254 86.1719 491.051 87.1741 495.346 89.1071C499.642 91.04 503.221 93.3309 506.013 95.9797L500.214 106.432C493.628 100.991 487.185 98.199 480.67 98.199C476.947 98.1274 474.155 98.8433 472.294 100.275Z" fill="#071E4F"/>
<path d="M516.465 99.8457V87.5322H572.663V99.8457H551.472V153.324H537.656V99.8457H516.465Z" fill="#071E4F"/>
<path d="M254.586 208.019C255.517 207.661 256.305 207.231 256.949 206.73C257.593 206.229 258.094 205.585 258.524 204.797C258.953 204.081 259.24 203.15 259.383 202.148H287.804V188.976H283.58V198.64H259.669V188.976H255.445V200.072C255.445 200.788 255.374 201.504 255.302 202.005C255.231 202.506 254.944 203.079 254.658 203.437C254.372 203.795 253.87 204.224 253.298 204.511C252.725 204.797 251.938 205.012 251.007 205.227L251.58 208.806C252.653 208.591 253.656 208.377 254.586 208.019Z" fill="#071E4F"/>
<path d="M255.947 184.466C256.162 184.68 256.376 184.824 256.591 184.895C256.877 184.967 257.092 185.038 257.379 185.038C257.665 185.038 257.951 184.967 258.166 184.895C258.452 184.824 258.667 184.609 258.81 184.466C259.025 184.251 259.168 184.036 259.24 183.821C259.311 183.607 259.383 183.32 259.383 183.034C259.383 182.747 259.311 182.461 259.24 182.246C259.168 182.032 258.954 181.817 258.81 181.602C258.596 181.387 258.381 181.244 258.166 181.172C257.88 181.101 257.665 181.029 257.379 181.029C257.092 181.029 256.806 181.101 256.591 181.172C256.305 181.244 256.09 181.459 255.947 181.602C255.732 181.817 255.589 182.032 255.517 182.246C255.446 182.461 255.374 182.747 255.374 183.034C255.374 183.32 255.446 183.607 255.517 183.821C255.589 184.036 255.732 184.251 255.947 184.466Z" fill="#071E4F"/>
<path d="M283.366 204.869C283.08 204.797 282.865 204.726 282.579 204.726C282.292 204.726 282.006 204.797 281.791 204.869C281.505 204.94 281.29 205.155 281.147 205.298C280.932 205.513 280.789 205.728 280.717 205.943C280.646 206.157 280.574 206.444 280.574 206.73C280.574 207.016 280.646 207.303 280.717 207.518C280.789 207.732 281.004 207.947 281.147 208.162C281.362 208.377 281.576 208.52 281.791 208.591C282.006 208.663 282.292 208.735 282.579 208.735C282.865 208.735 283.151 208.663 283.366 208.591C283.653 208.52 283.867 208.305 284.011 208.162C284.225 207.947 284.368 207.732 284.44 207.518C284.512 207.303 284.583 207.016 284.583 206.73C284.583 206.444 284.512 206.157 284.44 205.943C284.368 205.728 284.154 205.513 284.011 205.298C283.867 205.155 283.653 204.94 283.366 204.869Z" fill="#071E4F"/>
<path d="M286.659 204.869C286.373 204.94 286.158 205.155 286.015 205.298C285.8 205.513 285.657 205.728 285.586 205.943C285.514 206.157 285.442 206.444 285.442 206.73C285.442 207.016 285.514 207.303 285.586 207.518C285.657 207.732 285.872 207.947 286.015 208.162C286.23 208.377 286.445 208.52 286.659 208.591C286.874 208.663 287.161 208.735 287.447 208.735C287.733 208.735 288.02 208.663 288.234 208.591C288.521 208.52 288.736 208.305 288.879 208.162C289.093 207.947 289.237 207.732 289.308 207.518C289.38 207.303 289.451 207.016 289.451 206.73C289.451 206.444 289.38 206.157 289.308 205.943C289.237 205.728 289.022 205.513 288.879 205.298C288.664 205.084 288.449 204.94 288.234 204.869C287.948 204.797 287.733 204.726 287.447 204.726C287.161 204.726 286.874 204.797 286.659 204.869Z" fill="#071E4F"/>
<path d="M293.459 208.019C294.39 207.661 295.177 207.231 295.822 206.73C296.466 206.229 296.967 205.585 297.397 204.797C297.826 204.081 298.113 203.151 298.256 202.148H303.768C304.484 202.148 305.2 202.077 305.844 202.005C306.489 201.933 307.133 201.79 307.777 201.647C308.35 201.504 308.923 201.289 309.495 201.074L310.999 200.43C311.357 200.573 311.715 200.788 312.216 201.003C312.717 201.218 313.218 201.361 313.862 201.576C314.507 201.719 315.151 201.933 315.867 202.005C316.583 202.148 317.37 202.148 318.158 202.148H328.61V179.096H324.386V198.64H319.017C318.587 198.64 318.158 198.64 317.728 198.569C317.299 198.569 316.869 198.497 316.511 198.426C316.082 198.354 315.724 198.354 315.366 198.282C315.008 198.211 314.722 198.139 314.435 198.068C315.151 197.28 315.795 196.564 316.296 195.92C316.798 195.276 317.156 194.631 317.442 194.13C317.728 193.557 317.871 193.056 318.015 192.627C318.086 192.197 318.158 191.839 318.158 191.481C318.158 190.909 318.015 190.336 317.657 189.906C317.299 189.477 316.869 189.119 316.296 188.832C315.724 188.546 315.151 188.331 314.435 188.26C313.719 188.117 313.075 188.045 312.431 188.045C311.643 188.045 310.856 188.117 310.068 188.188C309.352 188.331 308.636 188.475 307.992 188.618C307.348 188.761 306.775 188.976 306.274 189.19C305.773 189.405 305.343 189.62 304.985 189.763C304.842 189.835 304.627 190.049 304.484 190.264C304.341 190.479 304.198 190.765 304.055 191.052C303.911 191.338 303.84 191.624 303.697 191.982C303.553 192.34 303.553 192.555 303.482 192.77C303.553 192.841 303.697 193.056 303.911 193.271C304.126 193.486 304.341 193.844 304.627 194.202C304.842 194.416 305.057 194.703 305.272 195.061C305.558 195.419 305.773 195.705 306.131 196.063C306.489 196.421 306.703 196.779 307.061 197.065C307.348 197.423 307.706 197.71 307.992 197.996C307.634 198.139 307.061 198.282 306.345 198.354C305.63 198.426 304.842 198.497 303.983 198.497H298.471V188.832H294.247V199.929C294.247 200.645 294.175 201.361 294.104 201.862C293.96 202.435 293.746 202.936 293.459 203.294C293.173 203.723 292.672 204.081 292.099 204.368C291.526 204.654 290.739 204.869 289.808 205.083L290.381 208.663C291.526 208.591 292.6 208.377 293.459 208.019ZM307.992 193.271C307.706 192.842 307.491 192.484 307.276 192.197C307.562 192.054 307.92 191.911 308.278 191.839C308.636 191.696 308.994 191.624 309.352 191.553C309.71 191.481 310.068 191.41 310.355 191.338C310.712 191.267 310.999 191.267 311.214 191.267C311.643 191.267 312.073 191.338 312.431 191.41C312.789 191.481 313.075 191.624 313.361 191.768C313.648 191.911 313.791 192.126 313.934 192.269C314.077 192.484 314.149 192.698 314.149 192.913C314.149 193.128 314.077 193.343 314.006 193.629C313.934 193.915 313.719 194.202 313.504 194.56C313.29 194.918 313.003 195.276 312.645 195.634C312.287 195.991 311.858 196.349 311.285 196.779C310.927 196.493 310.569 196.206 310.14 195.777C309.71 195.347 309.352 194.918 308.994 194.488C308.636 194.059 308.278 193.629 307.992 193.271Z" fill="#071E4F"/>
<path d="M294.821 184.466C295.036 184.68 295.25 184.824 295.465 184.895C295.751 184.967 295.966 185.038 296.253 185.038C296.539 185.038 296.825 184.967 297.04 184.895C297.326 184.824 297.541 184.609 297.684 184.466C297.899 184.251 298.042 184.036 298.114 183.821C298.186 183.607 298.257 183.32 298.257 183.034C298.257 182.747 298.186 182.461 298.114 182.246C298.042 182.032 297.828 181.817 297.684 181.602C297.47 181.387 297.255 181.244 297.04 181.172C296.754 181.101 296.539 181.029 296.253 181.029C295.966 181.029 295.68 181.101 295.465 181.172C295.179 181.244 294.964 181.459 294.821 181.602C294.606 181.817 294.463 182.032 294.391 182.246C294.32 182.461 294.248 182.747 294.248 183.034C294.248 183.32 294.32 183.607 294.391 183.821C294.463 184.036 294.678 184.251 294.821 184.466Z" fill="#071E4F"/>
<path d="M332.835 179.096H337.059V202.148H332.835V179.096Z" fill="#071E4F"/>
<path d="M349.373 201.719C350.303 201.433 351.019 201.003 351.592 200.502C352.165 201.003 352.881 201.433 353.74 201.719C354.527 202.005 355.458 202.149 356.532 202.149H356.818H360.183C360.97 202.149 361.686 202.005 362.259 201.791C362.832 201.576 363.333 201.218 363.691 200.86C364.264 201.289 364.979 201.576 365.695 201.791C366.483 202.005 367.414 202.149 368.487 202.149H383.808V198.641H379.226C378.653 198.641 378.152 198.569 377.723 198.354C377.293 198.14 376.863 197.925 376.577 197.567C376.219 197.209 376.004 196.851 375.79 196.421C375.646 195.992 375.503 195.491 375.503 194.918C375.503 194.345 375.575 193.844 375.79 193.415C376.004 192.985 376.219 192.699 376.577 192.484C376.863 192.269 377.221 192.126 377.579 191.983C377.937 191.911 378.295 191.84 378.653 191.84C378.94 191.84 379.298 191.84 379.655 191.911C380.013 191.983 380.3 191.983 380.586 192.054C380.872 192.126 381.159 192.198 381.445 192.269C381.732 192.341 381.946 192.412 382.09 192.484L382.519 188.833C382.304 188.761 382.018 188.69 381.66 188.618C381.302 188.546 380.944 188.475 380.586 188.475C380.228 188.403 379.87 188.403 379.512 188.332C379.154 188.332 378.868 188.26 378.653 188.26C377.579 188.26 376.649 188.475 375.718 188.833C374.859 189.191 374.071 189.692 373.427 190.336C372.783 190.98 372.282 191.696 371.924 192.555C371.566 193.415 371.423 194.345 371.423 195.276C371.423 195.491 371.423 195.777 371.494 196.063C371.566 196.35 371.566 196.636 371.637 196.922C371.709 197.209 371.781 197.495 371.852 197.782C371.924 198.068 371.995 198.354 372.138 198.641H368.487C367.843 198.641 367.199 198.569 366.554 198.497C365.91 198.426 365.337 198.211 364.836 197.996C364.836 197.853 364.908 197.638 364.908 197.424C364.908 197.209 364.908 197.066 364.908 196.851V188.976H360.684V196.278C360.684 196.708 360.612 197.137 360.541 197.424C360.469 197.71 360.326 197.925 360.183 198.139C360.04 198.283 359.825 198.426 359.539 198.497C359.252 198.569 358.966 198.641 358.608 198.641H356.747C356.031 198.641 355.386 198.569 354.742 198.497C354.098 198.354 353.525 198.211 352.952 197.925C353.095 197.424 353.096 196.922 353.096 196.35C353.096 194.846 352.523 193.343 351.449 191.696C350.375 190.05 348.728 188.403 346.581 186.685L343.502 189.62C344.147 190.121 344.791 190.694 345.435 191.338C346.08 191.983 346.652 192.555 347.153 193.128C347.655 193.701 348.084 194.345 348.371 194.918C348.657 195.491 348.872 196.063 348.872 196.565C348.872 196.851 348.8 197.137 348.728 197.352C348.657 197.567 348.514 197.782 348.299 197.996C348.084 198.14 347.798 198.283 347.368 198.426C346.939 198.497 346.438 198.569 345.793 198.569H339.565V202.077H345.722C347.297 202.149 348.442 202.005 349.373 201.719Z" fill="#071E4F"/>
<path d="M362.903 208.807C363.189 208.807 363.476 208.735 363.69 208.664C363.977 208.592 364.192 208.377 364.335 208.234C364.55 208.019 364.693 207.805 364.764 207.59C364.836 207.375 364.908 207.089 364.908 206.802C364.908 206.516 364.836 206.23 364.764 206.015C364.693 205.8 364.478 205.585 364.335 205.371C364.192 205.156 363.905 205.013 363.69 204.941C363.476 204.869 363.189 204.798 362.903 204.798C362.617 204.798 362.33 204.869 362.115 204.941C361.901 205.013 361.614 205.227 361.471 205.371C361.328 205.514 361.113 205.8 361.042 206.015C360.97 206.23 360.898 206.516 360.898 206.802C360.898 207.089 360.97 207.375 361.042 207.59C361.113 207.805 361.328 208.019 361.471 208.234C361.614 208.449 361.901 208.592 362.115 208.664C362.33 208.735 362.617 208.807 362.903 208.807Z" fill="#071E4F"/>
<path d="M408.65 191.41H407.576C407.289 191.41 407.003 191.339 406.788 191.267C406.574 191.195 406.359 191.052 406.216 190.909C406.072 190.766 405.929 190.623 405.858 190.479C405.786 190.336 405.786 190.122 405.786 189.978C405.786 189.62 405.858 189.406 406.072 189.262C406.287 189.119 406.574 189.048 406.931 189.048C407.146 189.048 407.361 189.048 407.576 189.119C407.791 189.191 408.077 189.191 408.292 189.262L408.578 187.258C408.077 187.186 407.719 187.115 407.433 187.115C407.146 187.115 406.86 187.115 406.645 187.115C406.072 187.115 405.5 187.186 405.07 187.33C404.641 187.473 404.283 187.616 403.996 187.902C403.71 188.117 403.495 188.403 403.352 188.69C403.209 188.976 403.137 189.334 403.137 189.692C403.137 189.978 403.209 190.336 403.28 190.623C403.424 190.981 403.567 191.195 403.71 191.482H402.207V193.415H408.578L408.65 191.41Z" fill="#071E4F"/>
<path d="M452.749 200.287C453.035 200.573 453.393 200.788 453.751 201.075C454.109 201.289 454.538 201.504 454.968 201.647C455.397 201.79 455.899 201.934 456.471 202.005C456.901 202.077 457.402 202.148 457.975 202.148H466.422V179.096H462.198V198.64H458.333C457.545 198.64 456.829 198.569 456.113 198.426C455.397 198.282 454.753 198.068 454.18 197.71C454.252 197.423 454.324 197.137 454.395 196.779C454.467 196.493 454.467 196.135 454.467 195.848C454.467 195.347 454.395 194.775 454.252 194.202C454.109 193.629 453.966 193.128 453.679 192.555C453.393 192.054 453.107 191.553 452.749 191.052C452.391 190.551 451.89 190.193 451.388 189.835C450.887 189.477 450.243 189.191 449.599 188.976C448.954 188.761 448.238 188.689 447.379 188.689C446.807 188.689 446.162 188.761 445.446 188.976C444.731 189.191 444.015 189.549 443.299 190.121C442.583 190.694 441.867 191.553 441.151 192.627C440.435 193.701 439.862 195.133 439.361 196.851C439.146 197.423 438.86 197.853 438.502 198.139C438.073 198.426 437.643 198.569 437.142 198.569H433.92C433.276 198.569 432.632 198.497 431.987 198.426C431.343 198.354 430.77 198.139 430.269 197.925C430.269 197.781 430.341 197.567 430.341 197.352C430.341 197.137 430.341 196.994 430.341 196.779V178.953H426.117V196.206C426.117 196.636 426.045 197.065 425.974 197.352C425.902 197.638 425.759 197.853 425.616 198.068C425.473 198.211 425.258 198.354 424.972 198.426C424.685 198.497 424.399 198.569 424.041 198.569H422.18C421.535 198.569 420.891 198.497 420.247 198.426C419.602 198.354 419.03 198.139 418.528 197.925C418.528 197.781 418.6 197.567 418.6 197.352C418.6 197.137 418.6 196.994 418.6 196.779V179.025H414.376V196.206C414.376 196.636 414.305 197.065 414.233 197.352C414.161 197.638 414.018 197.853 413.875 198.068C413.732 198.211 413.517 198.354 413.231 198.426C412.944 198.497 412.658 198.569 412.3 198.569H401.991C400.631 198.569 399.485 198.497 398.698 198.354C397.839 198.211 397.195 197.996 396.693 197.781C396.192 197.567 395.906 197.137 395.763 196.707C395.62 196.278 395.476 195.777 395.476 195.133C395.476 194.703 395.476 194.345 395.548 193.915C395.62 193.486 395.691 193.128 395.763 192.698L392.04 192.412C391.968 192.698 391.968 192.985 391.897 193.343C391.825 193.629 391.825 193.987 391.754 194.273C391.682 194.56 391.682 194.918 391.682 195.204V195.992C391.682 196.564 391.754 197.137 391.825 197.638C391.897 198.139 392.112 198.64 392.326 199.142C392.541 199.643 392.899 200.001 393.4 200.43C393.83 200.788 394.403 201.146 395.118 201.432C395.834 201.719 396.622 201.934 397.624 202.077C398.555 202.22 399.7 202.292 400.989 202.292H413.875C414.663 202.292 415.379 202.148 415.951 201.934C416.524 201.719 417.025 201.361 417.383 201.003C417.956 201.432 418.672 201.719 419.388 201.934C420.175 202.148 421.106 202.292 422.18 202.292H425.544C426.332 202.292 427.048 202.148 427.62 201.934C428.193 201.719 428.694 201.361 429.052 201.003C429.625 201.432 430.341 201.719 431.057 201.934C431.844 202.148 432.775 202.292 433.849 202.292H437.643C439.504 202.292 440.865 201.647 441.867 200.287C442.153 200.573 442.511 200.788 442.869 201.075C443.227 201.361 443.657 201.576 444.158 201.79C444.659 202.005 445.16 202.148 445.804 202.292C446.377 202.435 447.093 202.506 447.88 202.506C448.954 202.506 449.957 202.292 450.816 201.934C451.675 201.576 452.176 200.86 452.749 200.287ZM450.243 197.28C450.1 197.638 449.813 197.996 449.527 198.211C449.241 198.426 448.811 198.64 448.382 198.712C447.952 198.855 447.451 198.855 446.95 198.855C446.592 198.855 446.234 198.784 445.804 198.712C445.375 198.64 445.017 198.569 444.659 198.426C444.301 198.282 443.943 198.139 443.657 197.996C443.37 197.853 443.156 197.71 443.012 197.567C443.156 196.851 443.37 196.206 443.585 195.562C443.8 194.918 444.158 194.345 444.444 193.772C444.73 193.2 445.16 192.842 445.59 192.555C446.019 192.269 446.52 192.054 447.021 192.054C447.522 192.054 448.024 192.197 448.453 192.412C448.883 192.698 449.241 192.985 449.527 193.343C449.813 193.701 450.028 194.13 450.171 194.56C450.315 194.989 450.386 195.419 450.386 195.777C450.458 196.421 450.386 196.922 450.243 197.28Z" fill="#071E4F"/>
<path d="M470.646 179.096H474.87V202.148H470.646V179.096Z" fill="#071E4F"/>
<path d="M485.68 199.858C486.253 200.288 486.968 200.574 487.684 200.789C488.4 201.003 489.188 201.075 489.904 201.075C490.62 201.075 491.335 201.003 491.98 200.86C492.624 200.717 493.34 200.431 494.056 200.073C494.199 200.359 494.414 200.646 494.629 200.86C494.843 201.147 495.201 201.361 495.559 201.505C495.917 201.719 496.418 201.863 496.919 201.934C497.421 202.077 498.065 202.077 498.852 202.077H517.466C518.253 202.077 518.969 201.934 519.542 201.719C520.115 201.505 520.616 201.147 520.974 200.789C521.547 201.218 522.262 201.505 522.978 201.719C523.766 201.934 524.696 202.077 525.77 202.077H534.218V188.905H529.994V198.569H525.842C525.198 198.569 524.553 198.498 523.909 198.426C523.265 198.355 522.692 198.14 522.191 197.925C522.191 197.782 522.262 197.567 522.262 197.352C522.262 197.138 522.262 196.994 522.262 196.78V188.905H518.039V196.207C518.039 196.636 517.967 197.066 517.895 197.352C517.824 197.639 517.681 197.853 517.537 198.068C517.394 198.211 517.18 198.355 516.893 198.426C516.607 198.498 516.32 198.569 515.963 198.569H499.568C499.21 198.569 498.996 198.569 498.781 198.498C498.566 198.426 498.423 198.355 498.28 198.14C498.137 197.997 498.065 197.782 498.065 197.567C497.993 197.281 497.993 196.994 497.993 196.636V186.256H493.77V188.046C493.125 188.189 492.481 188.404 491.693 188.618C490.906 188.833 490.19 189.119 489.474 189.406C488.687 189.692 487.971 190.05 487.326 190.48C486.611 190.909 486.038 191.339 485.465 191.84C484.892 192.341 484.463 192.985 484.176 193.63C483.818 194.274 483.675 194.99 483.675 195.849C483.675 196.78 483.89 197.567 484.248 198.211C484.606 198.856 485.107 199.428 485.68 199.858ZM488.114 194.059C488.4 193.63 488.83 193.272 489.331 192.914C489.832 192.556 490.476 192.269 491.264 191.983C491.98 191.697 492.839 191.482 493.77 191.267V196.708C493.34 196.994 492.839 197.209 492.266 197.352C491.693 197.496 491.121 197.639 490.476 197.639C490.118 197.639 489.832 197.567 489.474 197.496C489.116 197.424 488.83 197.281 488.543 197.138C488.257 196.994 488.042 196.708 487.899 196.422C487.756 196.135 487.613 195.777 487.613 195.348C487.684 194.99 487.828 194.489 488.114 194.059Z" fill="#071E4F"/>
<path d="M489.331 183.607C489.546 183.822 489.761 183.965 489.975 184.036C490.262 184.108 490.476 184.179 490.763 184.179C491.049 184.179 491.336 184.108 491.55 184.036C491.837 183.965 492.051 183.75 492.195 183.607C492.409 183.392 492.553 183.177 492.624 182.962C492.696 182.748 492.767 182.461 492.767 182.175C492.767 181.889 492.696 181.602 492.624 181.387C492.553 181.173 492.338 180.958 492.195 180.743C491.98 180.528 491.765 180.385 491.55 180.314C491.336 180.242 491.049 180.17 490.763 180.17C490.476 180.17 490.19 180.242 489.975 180.314C489.689 180.385 489.474 180.6 489.331 180.743C489.188 180.886 488.973 181.173 488.901 181.387C488.83 181.602 488.758 181.889 488.758 182.175C488.758 182.461 488.83 182.748 488.901 182.962C488.973 183.177 489.116 183.392 489.331 183.607Z" fill="#071E4F"/>
<path d="M494.199 183.607C494.414 183.822 494.629 183.965 494.844 184.036C495.13 184.108 495.345 184.179 495.631 184.179C495.917 184.179 496.204 184.108 496.418 184.036C496.705 183.965 496.92 183.75 497.063 183.607C497.278 183.392 497.421 183.177 497.492 182.962C497.564 182.748 497.636 182.461 497.636 182.175C497.636 181.889 497.564 181.602 497.492 181.387C497.421 181.173 497.206 180.958 497.063 180.743C496.848 180.528 496.633 180.385 496.418 180.314C496.204 180.242 495.917 180.17 495.631 180.17C495.345 180.17 495.058 180.242 494.844 180.314C494.557 180.385 494.342 180.6 494.199 180.743C493.984 180.958 493.841 181.173 493.77 181.387C493.698 181.602 493.626 181.889 493.626 182.175C493.626 182.461 493.698 182.748 493.77 182.962C493.841 183.177 493.984 183.392 494.199 183.607Z" fill="#071E4F"/>
<path d="M518.54 184.466C518.755 184.68 518.97 184.824 519.185 184.895C519.471 184.967 519.686 185.038 519.972 185.038C520.259 185.038 520.545 184.967 520.76 184.895C521.046 184.824 521.261 184.609 521.404 184.466C521.619 184.251 521.762 184.036 521.834 183.821C521.905 183.607 521.977 183.32 521.977 183.034C521.977 182.747 521.905 182.461 521.834 182.246C521.762 182.032 521.547 181.817 521.404 181.602C521.189 181.387 520.975 181.244 520.76 181.172C520.473 181.101 520.259 181.029 519.972 181.029C519.686 181.029 519.4 181.101 519.185 181.172C518.97 181.244 518.684 181.459 518.54 181.602C518.326 181.817 518.183 182.032 518.111 182.246C518.039 182.461 517.968 182.747 517.968 183.034C517.968 183.32 518.039 183.607 518.111 183.821C518.183 184.036 518.326 184.251 518.54 184.466Z" fill="#071E4F"/>
<path d="M533.001 204.869C532.715 204.94 532.5 205.155 532.357 205.298C532.142 205.513 531.999 205.728 531.927 205.943C531.856 206.157 531.784 206.444 531.784 206.73C531.784 207.016 531.856 207.303 531.927 207.518C531.999 207.732 532.214 207.947 532.357 208.162C532.572 208.377 532.786 208.52 533.001 208.591C533.216 208.663 533.502 208.735 533.789 208.735C534.075 208.735 534.361 208.663 534.576 208.591C534.863 208.52 535.077 208.305 535.221 208.162C535.435 207.947 535.578 207.732 535.65 207.518C535.722 207.303 535.793 207.016 535.793 206.73C535.793 206.444 535.722 206.157 535.65 205.943C535.578 205.728 535.364 205.513 535.221 205.298C535.006 205.084 534.791 204.94 534.576 204.869C534.29 204.797 534.075 204.726 533.789 204.726C533.502 204.726 533.288 204.797 533.001 204.869Z" fill="#071E4F"/>
<path d="M529.779 204.869C529.493 204.797 529.278 204.726 528.992 204.726C528.705 204.726 528.419 204.797 528.204 204.869C527.918 204.94 527.703 205.155 527.56 205.298C527.417 205.441 527.202 205.728 527.13 205.943C527.059 206.157 526.987 206.444 526.987 206.73C526.987 207.016 527.059 207.303 527.13 207.518C527.202 207.732 527.417 207.947 527.56 208.162C527.703 208.377 527.99 208.52 528.204 208.591C528.419 208.663 528.705 208.735 528.992 208.735C529.278 208.735 529.565 208.663 529.779 208.591C530.066 208.52 530.28 208.305 530.424 208.162C530.567 208.019 530.782 207.732 530.853 207.518C530.925 207.303 530.996 207.016 530.996 206.73C530.996 206.444 530.925 206.157 530.853 205.943C530.782 205.728 530.567 205.513 530.424 205.298C530.28 205.084 529.994 204.94 529.779 204.869Z" fill="#071E4F"/>
<path d="M571.874 194.274C571.731 193.701 571.588 193.2 571.301 192.627C571.015 192.126 570.729 191.625 570.371 191.124C570.013 190.623 569.512 190.265 569.011 189.907C568.509 189.549 567.865 189.262 567.221 189.048C566.576 188.833 565.861 188.761 565.001 188.761C564.429 188.761 563.784 188.833 563.069 189.048C562.353 189.262 561.637 189.62 560.921 190.193C560.205 190.766 559.489 191.625 558.773 192.699C558.057 193.773 557.485 195.204 556.983 196.922C556.769 197.495 556.482 197.925 556.124 198.211C555.695 198.497 555.265 198.641 554.764 198.641H553.977C553.261 198.641 552.616 198.569 551.972 198.497C551.328 198.354 550.755 198.211 550.182 197.925C550.325 197.424 550.325 196.922 550.325 196.35C550.325 194.846 549.753 193.343 548.679 191.696C547.605 190.05 545.958 188.403 543.811 186.685L540.732 189.62C541.377 190.121 542.021 190.694 542.665 191.338C543.31 191.911 543.882 192.555 544.383 193.128C544.885 193.701 545.314 194.345 545.601 194.918C545.887 195.491 546.102 196.063 546.102 196.565C546.102 196.851 546.03 197.137 545.958 197.352C545.887 197.567 545.744 197.782 545.529 197.996C545.314 198.14 545.028 198.283 544.598 198.426C544.169 198.497 543.668 198.569 543.023 198.569H536.795V202.077H542.952C544.24 202.077 545.386 201.934 546.316 201.647C547.247 201.361 547.963 200.932 548.536 200.43C549.108 200.932 549.824 201.361 550.683 201.647C551.471 201.934 552.402 202.077 553.475 202.077H553.762H555.122C556.983 202.077 558.344 201.433 559.346 200.072C559.632 200.359 559.99 200.574 560.348 200.86C560.706 201.146 561.136 201.361 561.637 201.576C562.138 201.791 562.639 201.934 563.283 202.077C563.856 202.22 564.572 202.292 565.359 202.292C566.433 202.292 567.364 202.149 568.223 201.791C569.082 201.433 569.726 200.932 570.299 200.359C570.872 199.786 571.301 199.07 571.588 198.283C571.874 197.495 572.017 196.708 572.017 195.849C572.089 195.348 572.017 194.846 571.874 194.274ZM567.937 197.28C567.793 197.638 567.507 197.996 567.221 198.211C566.934 198.426 566.505 198.641 566.075 198.712C565.646 198.855 565.145 198.855 564.644 198.855C564.286 198.855 563.928 198.784 563.498 198.712C563.069 198.641 562.711 198.569 562.353 198.426C561.995 198.283 561.637 198.14 561.35 197.996C561.064 197.853 560.849 197.71 560.706 197.567C560.849 196.851 561.064 196.207 561.279 195.562C561.494 194.918 561.852 194.345 562.138 193.773C562.496 193.271 562.854 192.842 563.283 192.555C563.713 192.269 564.214 192.054 564.715 192.054C565.216 192.054 565.717 192.198 566.147 192.412C566.576 192.627 566.934 192.985 567.221 193.343C567.507 193.701 567.722 194.13 567.865 194.56C568.008 194.99 568.08 195.419 568.08 195.777C568.151 196.421 568.08 196.922 567.937 197.28Z" fill="#071E4F"/>
<path d="M259.383 219.689C259.097 219.617 258.882 219.545 258.596 219.545C258.309 219.545 258.023 219.617 257.808 219.689C257.522 219.76 257.307 219.975 257.164 220.118C257.021 220.261 256.806 220.548 256.734 220.762C256.663 220.977 256.591 221.264 256.591 221.55C256.591 221.836 256.663 222.123 256.734 222.337C256.806 222.552 257.021 222.767 257.164 222.982C257.307 223.197 257.594 223.34 257.808 223.411C258.023 223.483 258.309 223.554 258.596 223.554C258.882 223.554 259.169 223.483 259.383 223.411C259.598 223.34 259.884 223.125 260.028 222.982C260.171 222.839 260.386 222.552 260.457 222.337C260.529 222.123 260.6 221.836 260.6 221.55C260.6 221.264 260.529 220.977 260.457 220.762C260.386 220.548 260.171 220.333 260.028 220.118C259.884 219.903 259.598 219.76 259.383 219.689Z" fill="#071E4F"/>
<path d="M264.251 219.689C263.965 219.617 263.75 219.545 263.464 219.545C263.177 219.545 262.891 219.617 262.676 219.689C262.39 219.76 262.175 219.975 262.032 220.118C261.889 220.261 261.674 220.548 261.602 220.762C261.531 220.977 261.459 221.264 261.459 221.55C261.459 221.836 261.531 222.123 261.602 222.337C261.674 222.552 261.889 222.767 262.032 222.982C262.175 223.197 262.461 223.34 262.676 223.411C262.891 223.483 263.177 223.554 263.464 223.554C263.75 223.554 264.036 223.483 264.251 223.411C264.466 223.34 264.752 223.125 264.895 222.982C265.039 222.839 265.253 222.552 265.325 222.337C265.396 222.123 265.468 221.836 265.468 221.55C265.468 221.264 265.396 220.977 265.325 220.762C265.253 220.548 265.039 220.333 264.895 220.118C264.752 219.903 264.466 219.76 264.251 219.689Z" fill="#071E4F"/>
<path d="M328.539 244.745C328.325 244.53 328.11 244.387 327.895 244.315C327.609 244.243 327.394 244.172 327.108 244.172C326.821 244.172 326.535 244.243 326.32 244.315C326.034 244.387 325.819 244.601 325.676 244.745C325.461 244.959 325.318 245.174 325.246 245.389C325.175 245.604 325.103 245.89 325.103 246.176C325.103 246.463 325.175 246.749 325.246 246.964C325.318 247.179 325.533 247.393 325.676 247.608C325.819 247.823 326.105 247.966 326.32 248.038C326.535 248.109 326.821 248.181 327.108 248.181C327.394 248.181 327.68 248.109 327.895 248.038C328.181 247.966 328.396 247.751 328.539 247.608C328.683 247.465 328.897 247.179 328.969 246.964C329.041 246.749 329.112 246.463 329.112 246.176C329.112 245.89 329.041 245.604 328.969 245.389C328.897 245.103 328.754 244.888 328.539 244.745Z" fill="#071E4F"/>
<path d="M333.408 244.745C333.193 244.53 332.978 244.387 332.763 244.315C332.477 244.243 332.262 244.172 331.976 244.172C331.689 244.172 331.403 244.243 331.188 244.315C330.902 244.387 330.687 244.601 330.544 244.745C330.329 244.959 330.186 245.174 330.114 245.389C330.043 245.604 329.971 245.89 329.971 246.176C329.971 246.463 330.043 246.749 330.114 246.964C330.186 247.179 330.401 247.393 330.544 247.608C330.687 247.823 330.973 247.966 331.188 248.038C331.403 248.109 331.689 248.181 331.976 248.181C332.262 248.181 332.548 248.109 332.763 248.038C333.05 247.966 333.264 247.751 333.408 247.608C333.551 247.465 333.765 247.179 333.837 246.964C333.909 246.749 333.98 246.463 333.98 246.176C333.98 245.89 333.909 245.604 333.837 245.389C333.765 245.103 333.622 244.888 333.408 244.745Z" fill="#071E4F"/>
<path d="M339.85 223.84C340.065 224.055 340.28 224.198 340.494 224.27C340.781 224.341 340.996 224.413 341.282 224.413C341.568 224.413 341.855 224.341 342.069 224.27C342.356 224.198 342.571 223.983 342.714 223.84C342.857 223.697 343.072 223.411 343.143 223.196C343.215 222.981 343.286 222.695 343.286 222.408C343.286 222.122 343.215 221.836 343.143 221.621C343.072 221.406 342.857 221.191 342.714 220.977C342.571 220.762 342.284 220.619 342.069 220.547C341.783 220.475 341.568 220.404 341.282 220.404C340.996 220.404 340.709 220.475 340.494 220.547C340.28 220.619 339.993 220.833 339.85 220.977C339.707 221.12 339.492 221.406 339.421 221.621C339.349 221.836 339.277 222.122 339.277 222.408C339.277 222.695 339.349 222.981 339.421 223.196C339.492 223.411 339.635 223.625 339.85 223.84Z" fill="#071E4F"/>
<path d="M355.315 220.475C355.029 220.404 354.814 220.332 354.528 220.332C354.241 220.332 353.955 220.404 353.74 220.475C353.454 220.547 353.239 220.762 353.096 220.905C352.881 221.12 352.738 221.334 352.666 221.549C352.595 221.764 352.523 222.05 352.523 222.337C352.523 222.623 352.595 222.909 352.666 223.124C352.738 223.339 352.953 223.554 353.096 223.768C353.239 223.983 353.525 224.126 353.74 224.198C353.955 224.27 354.241 224.341 354.528 224.341C354.814 224.341 355.1 224.27 355.315 224.198C355.53 224.126 355.816 223.912 355.959 223.768C356.102 223.625 356.317 223.339 356.389 223.124C356.46 222.909 356.532 222.623 356.532 222.337C356.532 222.05 356.46 221.764 356.389 221.549C356.317 221.334 356.102 221.12 355.959 220.905C355.745 220.762 355.53 220.618 355.315 220.475Z" fill="#071E4F"/>
<path d="M360.826 220.977C360.612 220.762 360.397 220.619 360.182 220.547C359.967 220.475 359.681 220.404 359.395 220.404C359.108 220.404 358.822 220.475 358.607 220.547C358.321 220.619 358.106 220.833 357.963 220.977C357.82 221.12 357.605 221.406 357.533 221.621C357.462 221.836 357.39 222.122 357.39 222.408C357.39 222.695 357.462 222.981 357.533 223.196C357.605 223.411 357.82 223.625 357.963 223.84C358.106 224.055 358.392 224.198 358.607 224.27C358.822 224.341 359.108 224.413 359.395 224.413C359.681 224.413 359.967 224.341 360.182 224.27C360.397 224.198 360.683 223.983 360.826 223.84C360.97 223.697 361.184 223.411 361.256 223.196C361.328 222.981 361.399 222.695 361.399 222.408C361.399 222.122 361.328 221.836 361.256 221.621C361.184 221.334 361.041 221.12 360.826 220.977Z" fill="#071E4F"/>
<path d="M377.65 220.475C377.364 220.404 377.149 220.332 376.863 220.332C376.577 220.332 376.29 220.404 376.075 220.475C375.861 220.547 375.574 220.762 375.431 220.905C375.216 221.12 375.073 221.334 375.002 221.549C374.93 221.764 374.858 222.05 374.858 222.337C374.858 222.623 374.93 222.909 375.002 223.124C375.073 223.339 375.288 223.554 375.431 223.768C375.646 223.983 375.861 224.126 376.075 224.198C376.29 224.27 376.577 224.341 376.863 224.341C377.149 224.341 377.436 224.27 377.65 224.198C377.865 224.126 378.152 223.912 378.295 223.768C378.509 223.554 378.653 223.339 378.724 223.124C378.796 222.909 378.867 222.623 378.867 222.337C378.867 222.05 378.796 221.764 378.724 221.549C378.653 221.334 378.438 221.12 378.295 220.905C378.152 220.762 377.937 220.618 377.65 220.475Z" fill="#071E4F"/>
<path d="M372.781 220.475C372.495 220.404 372.28 220.332 371.994 220.332C371.707 220.332 371.421 220.404 371.206 220.475C370.992 220.547 370.705 220.762 370.562 220.905C370.419 221.048 370.204 221.334 370.132 221.549C370.061 221.764 369.989 222.05 369.989 222.337C369.989 222.623 370.061 222.909 370.132 223.124C370.204 223.339 370.419 223.554 370.562 223.768C370.705 223.983 370.992 224.126 371.206 224.198C371.493 224.27 371.707 224.341 371.994 224.341C372.28 224.341 372.567 224.27 372.781 224.198C372.996 224.126 373.282 223.912 373.426 223.768C373.64 223.554 373.784 223.339 373.855 223.124C373.927 222.909 373.998 222.623 373.998 222.337C373.998 222.05 373.927 221.764 373.855 221.549C373.784 221.334 373.569 221.12 373.426 220.905C373.282 220.69 372.996 220.618 372.781 220.475Z" fill="#071E4F"/>
<path d="M385.74 238.087H380.228C379.583 238.087 378.939 238.015 378.295 237.944C377.65 237.872 377.078 237.657 376.576 237.442C376.576 237.299 376.648 237.085 376.648 236.87C376.648 236.655 376.648 236.512 376.648 236.297V228.422H372.424V235.724C372.424 236.154 372.353 236.583 372.281 236.87C372.209 237.156 372.066 237.371 371.923 237.586C371.78 237.729 371.565 237.872 371.279 237.944C370.992 238.015 370.706 238.087 370.348 238.087H362.974C363.046 237.8 363.189 237.514 363.332 237.228C363.475 236.87 363.547 236.512 363.69 236.154C363.762 235.796 363.905 235.366 363.977 235.008C364.048 234.65 364.048 234.221 364.048 233.935C364.048 233.075 363.905 232.36 363.619 231.572C363.332 230.856 362.903 230.212 362.33 229.639C361.757 229.066 361.113 228.637 360.254 228.351C359.466 227.993 358.536 227.849 357.462 227.849C356.245 227.849 355.171 227.993 354.24 228.351C353.31 228.708 352.451 229.21 351.806 229.782C351.162 230.427 350.589 231.143 350.231 231.93C349.873 232.718 349.73 233.577 349.73 234.507C349.73 234.722 349.73 235.008 349.802 235.295C349.873 235.581 349.945 235.867 350.016 236.225C350.088 236.512 350.231 236.87 350.446 237.228C350.589 237.586 350.804 237.872 351.019 238.158H346.867C346.222 238.158 345.578 238.087 344.934 238.015C344.289 237.944 343.717 237.729 343.215 237.514C343.215 237.371 343.287 237.156 343.287 236.941C343.287 236.727 343.287 236.583 343.287 236.369V228.494H339.063V235.796C339.063 236.225 338.992 236.655 338.92 236.941C338.848 237.228 338.705 237.442 338.562 237.657C338.419 237.8 338.204 237.944 337.918 238.015C337.631 238.087 337.345 238.158 336.987 238.158H335.269C334.625 238.158 333.98 238.087 333.336 238.015C332.692 237.944 332.119 237.729 331.618 237.514C331.618 237.371 331.689 237.156 331.689 236.941C331.689 236.727 331.689 236.583 331.689 236.369V228.494H327.466V235.796C327.466 236.225 327.394 236.655 327.322 236.941C327.251 237.228 327.108 237.442 326.964 237.657C326.821 237.8 326.607 237.944 326.32 238.015C326.034 238.087 325.747 238.158 325.389 238.158H266.829C266.471 238.158 266.256 238.158 266.041 238.087C265.826 238.015 265.683 237.944 265.54 237.729C265.397 237.586 265.325 237.371 265.325 237.156C265.254 236.87 265.254 236.583 265.254 236.225V225.845H261.03V227.635C260.386 227.778 259.741 227.993 258.954 228.207C258.166 228.422 257.45 228.708 256.663 228.995C255.875 229.281 255.159 229.639 254.444 230.069C253.728 230.498 253.083 230.928 252.582 231.429C252.081 231.93 251.58 232.574 251.294 233.219C250.936 233.863 250.792 234.579 250.792 235.438C250.792 236.369 251.007 237.156 251.365 237.8C251.723 238.445 252.224 239.017 252.869 239.447C253.441 239.877 254.157 240.163 254.945 240.378C255.732 240.592 256.448 240.664 257.164 240.664C257.88 240.664 258.596 240.592 259.24 240.449C259.884 240.306 260.6 240.02 261.316 239.662C261.459 239.948 261.674 240.235 261.889 240.449C262.104 240.736 262.462 240.95 262.82 241.094C263.178 241.308 263.679 241.452 264.18 241.523C264.681 241.666 265.325 241.666 266.113 241.666H326.893C327.68 241.666 328.396 241.523 328.969 241.308C329.542 241.094 330.043 240.736 330.401 240.378C330.974 240.807 331.689 241.094 332.405 241.308C333.193 241.523 334.124 241.666 335.197 241.666H338.562C339.35 241.666 340.065 241.523 340.638 241.308C341.211 241.094 341.712 240.736 342.07 240.378C342.643 240.807 343.359 241.094 344.075 241.308C344.862 241.523 345.793 241.666 346.867 241.666H349.229C350.017 241.666 350.732 241.666 351.52 241.595C352.307 241.595 353.095 241.523 353.882 241.523C354.67 241.452 355.457 241.452 356.173 241.38C356.889 241.308 357.605 241.237 358.178 241.165C359.037 241.308 360.039 241.452 361.113 241.523C362.258 241.595 363.404 241.666 364.621 241.666H371.708C372.496 241.666 373.212 241.523 373.784 241.308C374.357 241.094 374.858 240.736 375.216 240.378C375.789 240.807 376.505 241.094 377.221 241.308C378.008 241.523 378.939 241.666 380.013 241.666H389.821V218.614H385.597L385.74 238.087ZM261.101 236.225C260.672 236.512 260.171 236.727 259.598 236.87C259.025 237.013 258.453 237.156 257.808 237.156C257.45 237.156 257.164 237.085 256.806 237.013C256.448 236.941 256.162 236.798 255.875 236.655C255.589 236.512 255.374 236.225 255.231 235.939C255.088 235.653 254.945 235.295 254.945 234.865C254.945 234.364 255.088 233.863 255.374 233.433C255.661 233.004 256.09 232.646 256.591 232.288C257.092 231.93 257.808 231.644 258.524 231.357C259.312 231.071 260.099 230.856 261.03 230.641L261.101 236.225ZM359.681 235.438C359.61 235.796 359.538 236.154 359.395 236.44C359.323 236.798 359.18 237.085 359.037 237.371C358.894 237.657 358.751 237.872 358.679 238.087H358.035C357.462 238.087 356.889 238.015 356.388 237.8C355.887 237.586 355.457 237.371 355.028 237.013C354.67 236.655 354.312 236.225 354.097 235.796C353.882 235.295 353.739 234.794 353.739 234.149C353.739 233.648 353.811 233.147 354.026 232.789C354.169 232.431 354.455 232.073 354.741 231.787C355.028 231.5 355.386 231.357 355.744 231.214C356.102 231.071 356.531 230.999 356.889 230.999C357.247 230.999 357.605 231.071 357.963 231.214C358.321 231.357 358.607 231.572 358.894 231.858C359.18 232.145 359.395 232.503 359.538 232.932C359.681 233.362 359.753 233.863 359.753 234.364C359.824 234.722 359.753 235.08 359.681 235.438Z" fill="#071E4F"/>
<path d="M394.188 218.543H398.411V241.595H394.188V218.543Z" fill="#071E4F"/>
<path d="M415.736 230.785C415.378 230.212 415.02 229.711 414.519 229.353C414.018 228.995 413.588 228.708 413.087 228.494C412.586 228.279 412.085 228.136 411.583 228.064C411.082 227.992 410.581 227.921 410.08 227.921C409.006 227.921 408.004 228.136 407.073 228.494C406.143 228.852 405.355 229.353 404.639 229.997C403.923 230.641 403.422 231.429 402.993 232.288C402.563 233.147 402.42 234.149 402.42 235.223C402.42 235.939 402.563 236.726 402.849 237.442C403.136 238.23 403.565 238.874 404.138 239.519C404.711 240.163 405.498 240.664 406.429 241.022C407.36 241.451 408.505 241.595 409.865 241.595C410.152 241.595 410.581 241.595 411.011 241.523C411.44 241.451 411.87 241.451 412.299 241.308C412.085 241.809 411.727 242.239 411.226 242.597C410.724 243.026 410.223 243.384 409.579 243.671C408.935 244.029 408.219 244.243 407.36 244.53C406.572 244.745 405.641 244.959 404.711 245.031H404.353L404.711 248.467C406.501 248.324 408.076 248.038 409.579 247.608C411.082 247.179 412.299 246.606 413.373 245.818C414.447 245.031 415.235 244.029 415.879 242.812C416.452 241.595 416.738 240.091 416.738 238.23V235.509C416.738 234.436 416.666 233.505 416.452 232.717C416.38 232.002 416.094 231.357 415.736 230.785ZM412.657 237.872C412.514 237.944 412.371 237.944 412.228 238.015C412.085 238.087 411.87 238.087 411.655 238.158C411.44 238.158 411.226 238.23 411.011 238.23C410.796 238.23 410.581 238.23 410.438 238.23C409.722 238.23 409.149 238.158 408.648 237.944C408.147 237.8 407.718 237.514 407.431 237.228C407.145 236.941 406.859 236.583 406.715 236.154C406.572 235.724 406.501 235.223 406.501 234.722C406.501 234.221 406.572 233.72 406.787 233.29C406.93 232.861 407.216 232.503 407.503 232.145C407.789 231.787 408.147 231.572 408.505 231.429C408.863 231.286 409.293 231.142 409.722 231.142C410.08 231.142 410.51 231.214 410.868 231.357C411.226 231.5 411.583 231.787 411.87 232.145C412.156 232.503 412.371 233.075 412.586 233.791C412.729 234.507 412.872 235.366 412.872 236.44L412.657 237.872Z" fill="#071E4F"/>
<path d="M444.946 233.72C444.803 233.219 444.659 232.646 444.445 232.145C444.23 231.644 443.872 231.143 443.514 230.641C443.156 230.14 442.655 229.711 442.154 229.353C441.653 228.995 441.008 228.708 440.364 228.494C439.72 228.279 438.932 228.136 438.073 228.136C437.715 228.136 437.286 228.207 436.856 228.279C436.426 228.351 435.925 228.494 435.496 228.708C434.995 228.923 434.565 229.21 434.064 229.639C433.563 229.997 433.062 230.498 432.632 231.143C432.203 231.715 431.701 232.503 431.272 233.29C430.842 234.149 430.484 235.152 430.127 236.297C429.769 236.44 429.411 236.655 428.981 236.798C428.552 237.013 428.122 237.228 427.764 237.586C427.334 237.872 426.977 238.23 426.547 238.66C426.189 239.089 425.831 239.519 425.545 240.091C425.258 240.592 425.044 241.237 424.829 241.953C424.686 242.669 424.542 243.456 424.542 244.315C424.542 244.888 424.614 245.532 424.757 246.32C424.9 247.107 425.044 247.966 425.258 248.825C425.402 249.613 425.616 250.329 425.831 251.116L429.625 249.684C429.482 249.112 429.339 248.611 429.196 248.038C429.053 247.25 428.909 246.606 428.838 245.89C428.766 245.246 428.695 244.601 428.695 244.1C428.695 243.313 428.766 242.669 428.981 242.096C429.196 241.595 429.482 241.094 429.769 240.807C430.127 240.449 430.484 240.234 430.914 240.02C431.344 239.877 431.773 239.733 432.131 239.662C432.417 239.948 432.775 240.163 433.205 240.378C433.634 240.592 434.064 240.879 434.565 241.022C435.066 241.237 435.639 241.38 436.212 241.523C436.784 241.666 437.429 241.738 438.073 241.738C439.29 241.738 440.364 241.523 441.223 241.165C442.082 240.807 442.798 240.306 443.371 239.662C443.943 239.017 444.373 238.373 444.659 237.586C444.946 236.798 445.089 236.011 445.089 235.152C445.089 234.722 445.017 234.221 444.946 233.72ZM440.937 236.798C440.793 237.156 440.507 237.514 440.221 237.729C439.934 237.944 439.505 238.087 439.075 238.158C438.646 238.23 438.145 238.302 437.643 238.302C437.286 238.302 436.928 238.302 436.498 238.158C436.069 238.087 435.711 238.015 435.353 237.872C434.995 237.729 434.637 237.586 434.35 237.442C434.064 237.299 433.849 237.156 433.706 237.013C433.849 236.297 434.064 235.653 434.279 235.008C434.494 234.364 434.851 233.791 435.209 233.29C435.567 232.789 435.997 232.36 436.426 232.073C436.856 231.787 437.357 231.644 437.93 231.644C438.503 231.644 438.932 231.787 439.362 232.002C439.791 232.288 440.078 232.574 440.364 232.932C440.65 233.29 440.865 233.72 440.937 234.149C441.08 234.579 441.151 235.008 441.151 235.295C441.223 235.867 441.08 236.369 440.937 236.798Z" fill="#071E4F"/>
<path d="M567.866 238.087H563.929C563.285 238.087 562.64 238.015 561.996 237.944C561.352 237.872 560.779 237.657 560.278 237.443C560.278 237.3 560.349 237.085 560.349 236.87C560.349 236.655 560.349 236.512 560.349 236.297V218.471H556.125V235.725C556.125 236.154 556.054 236.584 555.982 236.87C555.911 237.156 555.768 237.371 555.624 237.586C555.481 237.729 555.266 237.872 554.98 237.944C554.694 238.015 554.407 238.087 554.049 238.087H550.756C550.327 238.087 549.897 238.087 549.468 238.015C549.038 238.015 548.609 237.944 548.251 237.872C547.821 237.801 547.463 237.801 547.105 237.729C546.747 237.658 546.461 237.586 546.174 237.514C546.962 236.727 547.535 236.011 548.036 235.367C548.537 234.722 548.895 234.078 549.181 233.577C549.468 233.004 549.611 232.503 549.754 232.073C549.826 231.644 549.897 231.286 549.897 230.928C549.897 230.355 549.754 229.783 549.396 229.353C549.038 228.923 548.609 228.566 548.036 228.279C547.463 227.993 546.89 227.778 546.174 227.706C545.459 227.563 544.814 227.492 544.17 227.492C543.382 227.492 542.595 227.563 541.807 227.635C541.092 227.778 540.376 227.921 539.731 228.064C539.087 228.208 538.514 228.422 538.013 228.637C537.512 228.852 537.083 229.067 536.725 229.21C536.581 229.281 536.367 229.496 536.223 229.711C536.08 229.926 535.937 230.212 535.794 230.498C535.651 230.785 535.507 231.071 535.436 231.429C535.364 231.715 535.293 232.002 535.221 232.217C535.293 232.288 535.436 232.503 535.651 232.718C535.865 232.933 536.08 233.29 536.367 233.648C536.581 233.863 536.796 234.15 537.011 234.508C537.297 234.865 537.512 235.152 537.87 235.51C538.228 235.868 538.443 236.226 538.801 236.512L539.731 237.443C539.373 237.586 538.801 237.729 538.085 237.801C537.369 237.872 536.581 237.944 535.722 237.944H533.36C532.715 237.944 532.071 237.872 531.427 237.801C530.783 237.729 530.21 237.514 529.709 237.3C529.709 237.156 529.78 236.942 529.78 236.727C529.78 236.512 529.78 236.369 529.78 236.154V218.328H525.556V235.581C525.556 236.011 525.485 236.44 525.413 236.727C525.342 237.013 525.198 237.228 525.055 237.443C524.912 237.586 524.697 237.729 524.411 237.801C524.125 237.872 523.838 237.944 523.48 237.944H463.058V235.438C463.058 234.364 462.987 233.434 462.772 232.646C462.557 231.859 462.271 231.143 461.984 230.57C461.626 229.997 461.268 229.496 460.767 229.138C460.338 228.78 459.837 228.494 459.335 228.279C458.834 228.064 458.333 227.921 457.832 227.85C457.331 227.778 456.83 227.706 456.329 227.706C455.183 227.706 454.109 227.921 453.107 228.279C452.176 228.709 451.317 229.21 450.673 229.854C450.029 230.498 449.456 231.286 449.098 232.217C448.74 233.076 448.525 234.006 448.525 235.009C448.525 235.725 448.669 236.512 448.955 237.228C449.241 238.015 449.671 238.66 450.315 239.304C450.959 239.948 451.747 240.45 452.749 240.807C453.751 241.165 454.968 241.38 456.472 241.38H458.476C458.19 241.81 457.832 242.239 457.331 242.669C456.83 243.098 456.257 243.456 455.613 243.743C454.968 244.101 454.181 244.315 453.322 244.53C452.463 244.745 451.532 244.888 450.53 244.96L450.888 248.396C452.248 248.253 453.608 248.038 454.897 247.609C456.186 247.251 457.331 246.749 458.333 246.177C459.336 245.604 460.266 244.888 460.982 244.101C461.77 243.313 462.342 242.382 462.7 241.38H524.841C525.628 241.38 526.344 241.237 526.917 241.022C527.489 240.807 527.991 240.45 528.348 240.092C528.921 240.521 529.637 240.807 530.353 241.022C531.141 241.237 532.071 241.38 533.145 241.38H535.364C536.08 241.38 536.796 241.309 537.44 241.237C538.085 241.165 538.729 241.022 539.373 240.879C539.946 240.736 540.59 240.521 541.092 240.306C541.664 240.092 542.094 239.877 542.595 239.662C542.953 239.805 543.311 240.02 543.812 240.235C544.313 240.45 544.886 240.593 545.459 240.807C546.103 240.951 546.747 241.165 547.463 241.237C548.179 241.38 548.966 241.38 549.826 241.38H555.481C556.269 241.38 556.985 241.237 557.557 241.022C558.13 240.807 558.631 240.45 558.989 240.092C559.562 240.521 560.278 240.807 560.994 241.022C561.781 241.237 562.712 241.38 563.786 241.38H572.019V218.328H567.795L567.866 238.087ZM458.763 238.087H456.472C455.112 238.087 454.109 237.801 453.465 237.228C452.821 236.655 452.534 235.796 452.534 234.794C452.534 234.293 452.606 233.792 452.821 233.362C452.964 232.933 453.25 232.575 453.537 232.217C453.823 231.93 454.181 231.644 454.539 231.501C454.897 231.358 455.326 231.214 455.756 231.214C456.114 231.214 456.544 231.286 456.901 231.429C457.259 231.572 457.617 231.859 457.904 232.217C458.19 232.575 458.405 233.147 458.62 233.863C458.763 234.579 458.906 235.438 458.906 236.512V238.087H458.763ZM545.673 233.076C545.602 233.362 545.387 233.648 545.172 234.006C544.957 234.364 544.671 234.722 544.313 235.08C543.955 235.438 543.526 235.796 542.953 236.226C542.595 235.939 542.237 235.653 541.807 235.223C541.378 234.794 541.02 234.364 540.662 233.935C540.304 233.505 539.946 233.076 539.66 232.646C539.373 232.217 539.087 231.859 538.944 231.572C539.23 231.429 539.588 231.286 539.946 231.214C540.304 231.071 540.662 231 541.02 230.928C541.378 230.856 541.736 230.785 542.022 230.713C542.38 230.642 542.667 230.642 542.881 230.642C543.311 230.642 543.74 230.713 544.098 230.785C544.456 230.856 544.743 231 545.029 231.143C545.315 231.286 545.459 231.501 545.602 231.644C545.745 231.859 545.816 232.073 545.816 232.288C545.816 232.575 545.817 232.789 545.673 233.076Z" fill="#071E4F"/>
<path d="M188.724 111.085L165.386 134.424C164.455 135.354 163.381 135.999 162.236 136.5C161.162 136.929 159.945 137.216 158.728 137.216H120.714C118.208 137.216 115.845 136.214 114.056 134.424L90.7173 111.085C89.5003 109.868 89.0707 108.15 89.4287 106.575C89.6434 105.501 90.2878 104.571 91.2184 103.855C104.677 93.6174 121.573 87.5322 139.757 87.5322C157.941 87.5322 174.836 93.6174 188.295 103.855C190.586 105.573 190.8 109.009 188.724 111.085Z" fill="#0053E7"/>
<path d="M156.652 120.678C156.58 120.535 155.292 118.03 154.361 116.813C149.707 110.226 142.119 106.504 134.244 106.504C132.454 106.504 130.664 106.718 128.946 107.076C127.157 107.506 125.438 108.079 123.72 108.866C123.148 107.649 122.432 106.432 121.644 105.358C120.57 103.855 119.353 102.494 117.993 101.277C114.342 98.0559 109.903 95.9798 105.178 95.3354C104.248 95.765 103.317 96.1945 102.458 96.6957C103.174 96.6957 103.89 96.7673 104.606 96.8388L95.0842 103.21C94.7262 102.781 94.4398 102.423 94.1535 101.993C94.0819 101.922 94.0819 101.85 94.0103 101.85C93.5808 102.137 93.1512 102.494 92.7217 102.781C92.7933 102.852 92.7933 102.924 92.8649 102.996C93.9387 104.499 95.0842 105.788 96.4444 107.005C100.955 111.085 106.897 113.376 112.982 113.376C116.633 113.376 123.076 111.228 123.076 111.228C123.72 112.589 124.508 113.877 125.367 115.094C125.51 115.309 125.725 115.524 125.868 115.81L126.799 116.956C130.664 121.466 136.034 124.329 141.761 125.189C142.978 125.332 144.195 125.475 145.412 125.475C148.92 125.475 152.5 124.687 155.936 123.112C156.079 123.47 156.294 123.828 156.509 124.186C156.938 125.045 157.439 125.833 158.012 126.62C159.086 128.124 160.303 129.484 161.663 130.701C163.095 131.918 164.598 132.992 166.245 133.923L167.462 132.706C166.818 132.348 166.173 131.99 165.529 131.56L172.187 127.909L175.91 124.186L164.169 130.629C162.952 129.699 161.806 128.625 160.732 127.479L172.545 121.108C174.191 121.537 175.766 122.11 177.27 122.898L178.487 121.681C174.907 119.748 170.898 118.745 166.889 118.745C163.381 118.459 159.945 119.175 156.652 120.678ZM96.0148 104.284L106.682 97.1968C108.328 97.5548 109.903 98.1275 111.407 98.7718L99.0932 107.005C98.0194 106.217 97.0171 105.286 96.0148 104.284ZM100.382 107.935L112.91 99.6309C114.27 100.418 115.559 101.277 116.704 102.28L105.178 110.298C103.532 109.653 101.885 108.866 100.382 107.935ZM112.91 111.586C110.906 111.586 108.901 111.3 106.968 110.799L117.85 103.282C118.781 104.213 119.64 105.215 120.427 106.289C121.143 107.291 121.787 108.365 122.36 109.582C119.282 110.871 116.06 111.586 112.91 111.586ZM126.584 113.949C125.796 112.803 125.08 111.586 124.436 110.298C127.586 108.794 130.951 108.078 134.244 108.078C135.962 108.078 137.609 108.293 139.255 108.651L127.157 114.808C127.013 114.522 126.799 114.235 126.584 113.949ZM128.23 115.953L141.475 109.224C143.193 109.797 144.839 110.513 146.343 111.443L131.953 119.318C130.593 118.316 129.376 117.242 128.23 115.953ZM133.313 120.249L147.703 112.374C149.135 113.376 150.423 114.522 151.569 115.882L138.754 122.611C136.893 122.039 135.031 121.251 133.313 120.249ZM145.34 123.614C143.837 123.614 142.334 123.47 140.902 123.184L152.571 117.099C152.714 117.314 152.929 117.528 153.072 117.743C153.86 118.889 154.576 120.106 155.22 121.394C151.998 122.898 148.634 123.614 145.34 123.614ZM159.73 126.048C159.587 125.833 159.444 125.618 159.301 125.403C158.585 124.401 157.94 123.327 157.368 122.11C160.446 120.75 163.668 120.106 166.818 120.106C167.963 120.106 169.108 120.177 170.254 120.392L159.73 126.048Z" fill="#00A5FF"/>
<path d="M190.012 106.791L177.484 113.663C176.267 112.733 175.121 111.659 174.048 110.513L185.932 104.07C187.149 104.428 188.366 104.786 189.511 105.359C189.225 104.786 188.795 104.285 188.222 103.927C187.65 103.498 187.005 102.996 186.361 102.567C184.285 101.994 182.209 101.779 180.061 101.779C176.696 101.779 173.188 102.495 169.967 103.927C169.895 103.784 168.607 101.278 167.676 100.061C163.023 93.475 155.434 89.7523 147.559 89.7523C145.769 89.7523 144.051 89.967 142.262 90.325C140.472 90.6829 138.754 91.3273 137.035 92.1147C136.463 90.8977 135.747 89.6807 134.959 88.6068C134.745 88.3205 134.601 88.1057 134.387 87.8193C133.742 87.8909 133.098 87.8909 132.382 87.9625C132.597 88.1773 132.74 88.3921 132.955 88.6068L122.431 94.4772C120.641 94.1909 118.852 93.6897 117.133 92.9738L124.436 89.0364C122.646 89.3943 120.856 89.8239 119.066 90.2534L115.487 92.1863C115.129 92.0432 114.771 91.8284 114.485 91.6136C113.84 91.8284 113.196 92.0431 112.48 92.3295C116.203 94.8352 120.641 96.267 125.151 96.4102H126.154C129.805 96.4102 136.248 94.2625 136.248 94.2625C136.892 95.6227 137.68 96.9113 138.539 98.1283C138.968 98.7726 139.469 99.417 139.971 99.9897L140.185 100.204C144.91 105.502 151.64 108.437 158.656 108.437C160.302 108.437 161.949 108.294 163.524 107.936C165.17 107.578 166.745 107.077 168.392 106.433C168.678 106.29 168.893 106.218 169.179 106.075C169.752 107.292 170.468 108.509 171.256 109.583C173.976 113.377 177.699 116.312 181.851 118.03L183.14 116.742C181.636 116.169 180.204 115.453 178.916 114.594L190.084 108.437C190.155 107.865 190.155 107.292 190.012 106.791ZM126.225 94.692C125.867 94.692 125.438 94.692 125.08 94.692L133.957 89.7523C134.601 90.683 135.174 91.6852 135.675 92.6875C132.597 94.0477 129.375 94.7636 126.225 94.692ZM140.687 98.1999C140.4 97.842 140.114 97.484 139.899 97.1261C139.112 95.9806 138.396 94.7636 137.751 93.475C140.901 91.9716 144.266 91.2557 147.559 91.2557C149.349 91.2557 151.067 91.4704 152.785 91.8284L140.687 98.1999ZM141.689 99.3454L154.861 92.4011C155.291 92.5443 155.649 92.6875 156.078 92.8307C157.367 93.3318 158.656 93.9761 159.873 94.7636L145.483 102.639C144.123 101.708 142.834 100.562 141.689 99.3454ZM146.915 103.569L161.233 95.7659C162.593 96.7681 163.81 97.9136 164.956 99.2022L152.141 105.86C150.351 105.287 148.561 104.5 146.915 103.569ZM158.656 106.719C157.224 106.719 155.792 106.576 154.36 106.29L165.958 100.276C166.101 100.491 166.244 100.634 166.387 100.849C167.175 101.994 167.891 103.211 168.535 104.5C165.314 106.003 161.949 106.719 158.656 106.719ZM172.544 108.58C171.828 107.578 171.184 106.504 170.611 105.287C173.69 103.927 176.911 103.283 180.061 103.283C181.278 103.283 182.495 103.354 183.712 103.569L173.117 109.296C172.902 109.082 172.759 108.795 172.544 108.58Z" fill="#00A5FF"/>
<path d="M162.236 136.501C161.162 136.93 159.945 137.216 158.728 137.216H120.714C118.208 137.216 115.845 136.214 114.056 134.424L90.7173 111.086C89.5003 109.869 89.0707 108.151 89.4287 106.576C94.9411 105.001 100.74 104.213 106.682 104.213C118.781 104.213 130.092 107.578 139.757 113.449C148.992 119.033 156.795 127.051 162.236 136.501Z" fill="url(#paint0_linear_176_849)"/>
<path d="M90.6456 224.842L113.984 201.503C114.915 200.573 115.989 199.928 117.134 199.427C118.208 198.998 119.425 198.711 120.642 198.711H158.656C161.162 198.711 163.524 199.714 165.314 201.503L188.653 224.842C189.87 226.059 190.299 227.777 189.941 229.352C189.727 230.426 189.082 231.357 188.152 232.072C174.621 242.31 157.797 248.395 139.613 248.395C121.429 248.395 104.534 242.31 91.0752 232.072C88.7843 230.354 88.5695 226.918 90.6456 224.842Z" fill="#FF5122"/>
<path d="M114.556 200.931C114.342 201.074 114.127 201.289 113.984 201.503L112.695 202.792L114.556 211.168L106.252 209.235L104.391 211.096L117.563 214.246C117.563 214.175 114.556 200.931 114.556 200.931Z" fill="#FF9300"/>
<path d="M99.3795 216.036L97.4466 217.969L99.3079 226.202L91.2182 224.269L90.6455 224.842C90.216 225.271 89.9296 225.701 89.7148 226.202L102.386 229.209L99.3795 216.036Z" fill="#FF9300"/>
<path d="M132.526 229.424L128.087 209.736L147.703 214.39L144.195 198.711H141.832L144.696 211.311L125.08 206.658L129.519 226.345L109.903 221.692L114.342 241.379L99.9521 237.943C102.959 239.661 106.109 241.164 109.33 242.525L117.349 244.458L112.91 224.77L132.526 229.424Z" fill="#FF9300"/>
<path d="M143.193 224.914L162.737 229.567L158.298 209.88L177.914 214.533L177.771 213.96L174.764 210.954L174.907 211.526L155.291 206.873L159.73 226.56L140.114 221.907L144.553 241.594L124.937 236.941L127.299 247.536C128.087 247.679 128.874 247.751 129.662 247.894L127.872 240.019L147.488 244.673L143.193 224.914Z" fill="#FF9300"/>
<path d="M189.87 226.703L170.397 222.05L174.55 240.449C175.266 240.091 175.91 239.733 176.626 239.375L173.404 225.057L190.085 228.994C190.228 228.278 190.156 227.491 189.87 226.703Z" fill="#FF9300"/>
<path d="M157.296 246.462C158.012 246.319 158.8 246.104 159.515 245.961L158.227 240.162L169.323 242.811C170.54 242.31 171.686 241.88 172.831 241.308L155.148 237.155L157.296 246.462Z" fill="#FF9300"/>
<path d="M117.133 199.427C118.207 198.998 119.424 198.711 120.641 198.711H158.656C161.161 198.711 163.524 199.714 165.314 201.503L188.652 224.842C189.869 226.059 190.299 227.777 189.941 229.352C184.428 230.927 178.629 231.714 172.687 231.714C160.589 231.714 149.277 228.35 139.613 222.479C130.377 216.895 122.503 208.949 117.133 199.427Z" fill="url(#paint1_linear_176_849)"/>
<path d="M196.527 217.039L173.188 193.7C172.258 192.77 171.614 191.696 171.112 190.55C170.683 189.477 170.396 188.259 170.396 187.042V149.028C170.396 146.522 171.399 144.16 173.188 142.37L196.527 119.032C197.744 117.815 199.462 117.385 201.037 117.743C202.111 117.958 203.042 118.602 203.758 119.533C213.995 133.063 220.08 149.887 220.08 168.071C220.08 186.255 213.995 203.15 203.758 216.609C202.039 218.9 198.603 219.115 196.527 217.039Z" fill="#009457"/>
<path d="M210.559 206.086C211.132 205.084 211.633 204.081 212.134 203.007C207.91 205.155 203.543 206.587 199.821 207.446C196.742 208.162 194.093 208.591 192.161 208.735C191.874 208.735 191.588 208.806 191.373 208.806C194.022 206.086 196.456 203.151 198.532 200.072C199.32 199.857 202.827 198.855 207.051 196.922C210.13 195.562 213.566 193.701 216.716 191.338C217.074 190.193 217.432 188.976 217.718 187.759C214.354 190.909 209.987 193.343 206.264 194.989C203.973 196.063 201.897 196.779 200.393 197.28C202.684 193.557 204.617 189.692 206.264 185.611C207.266 185.038 209.629 183.606 212.492 181.53C214.855 179.812 217.503 177.593 219.938 175.087C220.009 173.942 220.081 172.868 220.152 171.722C217.503 174.944 214.139 177.736 211.275 179.884C209.843 180.958 208.555 181.817 207.481 182.461C209.127 177.879 210.344 173.154 211.204 168.286C212.063 167.713 214.067 166.282 216.215 164.492C217.503 163.418 218.792 162.129 219.938 160.841C219.866 159.838 219.723 158.836 219.651 157.906C219.365 158.263 219.15 158.621 218.792 158.979C217.002 161.127 214.711 163.132 212.85 164.563C212.421 164.921 211.991 165.208 211.633 165.494C212.206 161.342 212.564 157.118 212.707 152.823C213.351 152.322 214.568 151.176 215.857 149.458C216.43 148.742 217.002 147.954 217.503 147.095C217.217 146.165 217.002 145.234 216.716 144.303C215.929 145.807 215.069 147.095 214.21 148.169C213.638 148.885 213.136 149.458 212.707 149.887C212.635 143.015 211.919 136.214 210.559 129.627C209.843 128.339 209.127 127.05 208.34 125.833C209.127 129.699 209.843 133.565 210.273 137.502C210.416 139.364 210.559 141.225 210.702 143.015C209.843 141.941 208.698 140.509 207.481 138.648C205.047 135.068 202.398 130.2 200.966 124.759L198.962 125.26C200.465 131.202 203.4 136.428 205.977 140.151C208.555 143.874 210.702 146.165 210.774 146.165L210.846 146.093C210.846 147.382 210.917 148.67 210.846 149.959C210.846 152.894 210.702 155.758 210.416 158.621C209.485 157.762 208.125 156.474 206.765 154.827C204.402 152.035 201.968 148.312 201.324 144.661L199.248 145.019C200.035 149.458 202.827 153.467 205.405 156.474C207.481 158.908 209.414 160.626 210.13 161.199C209.629 165.423 208.913 169.575 207.91 173.584C206.765 172.725 205.047 171.436 203.185 169.646C200.107 166.711 196.599 162.702 194.738 158.12L192.805 158.908C194.953 164.062 198.747 168.358 202.04 171.436C204.259 173.512 206.264 174.944 207.266 175.732C205.977 180.456 204.331 185.038 202.326 189.405C201.038 188.546 198.532 186.685 195.883 184.251C194.165 182.604 192.304 180.743 190.872 178.738C189.369 176.734 188.223 174.586 187.722 172.438L185.717 172.939C186.362 175.517 187.722 177.951 189.369 180.17C191.874 183.535 195.024 186.398 197.53 188.475C199.248 189.835 200.68 190.837 201.396 191.41C199.534 195.061 197.458 198.569 195.024 201.934C192.519 200.359 188.653 197.423 185.145 193.987C183.212 192.126 181.35 190.05 179.919 188.045C178.487 186.041 177.485 184.036 177.127 182.318L175.122 182.747C175.552 184.895 176.769 187.043 178.272 189.262C180.563 192.484 183.713 195.634 186.72 198.282C189.297 200.502 191.803 202.363 193.736 203.58C192.304 205.441 190.729 207.231 189.082 208.949C189.011 209.021 188.939 209.164 188.796 209.236L190.514 210.954C192.375 210.811 195.883 210.453 200.179 209.451C203.4 208.735 206.98 207.661 210.559 206.086Z" fill="#00D17D"/>
<path d="M171.112 190.479C170.683 189.405 170.396 188.188 170.396 186.971V148.957C170.396 146.451 171.399 144.089 173.188 142.299L196.527 118.96C197.744 117.743 199.462 117.314 201.037 117.672C202.612 123.184 203.4 128.983 203.4 134.925C203.4 147.024 200.035 158.335 194.164 168C188.58 177.306 180.634 185.11 171.112 190.479Z" fill="url(#paint2_linear_176_849)"/>
<path d="M82.7707 118.889L106.109 142.228C107.04 143.158 107.684 144.232 108.185 145.377C108.615 146.451 108.901 147.668 108.901 148.885V186.9C108.901 189.405 107.899 191.768 106.109 193.558L82.7707 216.896C81.5537 218.113 79.8355 218.543 78.2605 218.185C77.1867 217.97 76.256 217.326 75.5401 216.395C65.3027 202.936 59.2175 186.041 59.2175 167.857C59.2175 149.673 65.3027 132.778 75.5401 119.319C77.2583 117.099 80.6946 116.813 82.7707 118.889Z" fill="#7100E5"/>
<path d="M80.4788 129.556C81.3379 129.556 82.2686 129.198 82.9129 128.554C83.5572 127.909 83.9151 126.979 83.9151 126.12C83.9151 125.619 83.772 125.046 83.5572 124.616L86.0628 122.111L84.4879 120.536L81.9822 123.041C81.4811 122.827 80.9799 122.683 80.4788 122.683C79.6197 122.683 78.6891 123.041 78.0447 123.686C77.4004 124.33 77.0425 125.261 77.0425 126.12C77.0425 126.979 77.4004 127.909 78.0447 128.554C78.6891 129.27 79.5481 129.556 80.4788 129.556Z" fill="#C58BF3"/>
<path d="M79.6921 150.532C80.3364 151.176 81.2671 151.534 82.1262 151.534C82.9852 151.534 83.9159 151.176 84.5602 150.532C85.2045 149.888 85.5625 148.957 85.5625 148.098C85.5625 147.239 85.2045 146.308 84.5602 145.664C83.9159 145.02 82.9852 144.662 82.1262 144.662C81.2671 144.662 80.3364 145.02 79.6921 145.664C79.3341 146.022 79.0478 146.523 78.833 147.024H61.9377C61.7229 147.74 61.5798 148.456 61.365 149.172H78.833C79.0478 149.673 79.3341 150.102 79.6921 150.532Z" fill="#C58BF3"/>
<path d="M70.6005 209.236L108.901 170.935V167.857L69.4551 207.303C69.813 207.947 70.2426 208.592 70.6005 209.236Z" fill="#C58BF3"/>
<path d="M108.758 147.168L98.0907 157.835H59.8615C59.7899 158.551 59.7183 159.267 59.6467 160.054H97.4464L63.5126 193.988C63.799 194.775 64.0137 195.491 64.3001 196.279L108.901 151.678V148.958C108.901 148.385 108.829 147.741 108.758 147.168Z" fill="#C58BF3"/>
<path d="M71.7454 139.293C72.6045 139.293 73.5352 138.935 74.1795 138.29C74.609 137.861 74.8954 137.36 75.0386 136.859H93.0077L96.8736 132.993L95.585 131.704L92.2918 134.997H75.1102C74.967 134.425 74.6806 133.852 74.1795 133.422C73.5352 132.778 72.6045 132.42 71.7454 132.42C70.8863 132.42 69.9557 132.778 69.3113 133.422C68.667 134.067 68.3091 134.997 68.3091 135.856C68.3091 136.715 68.667 137.646 69.3113 138.29C70.0272 139.006 70.8863 139.293 71.7454 139.293ZM70.8147 134.926C71.1011 134.639 71.459 134.496 71.817 134.496C72.1749 134.496 72.5329 134.639 72.8193 134.926C73.1056 135.212 73.2488 135.57 73.2488 135.928C73.2488 136.286 73.1056 136.644 72.8193 136.93C72.5329 137.217 72.1749 137.36 71.817 137.36C71.459 137.36 71.1011 137.217 70.8147 136.93C70.5284 136.644 70.3852 136.286 70.3852 135.928C70.3852 135.57 70.5284 135.14 70.8147 134.926Z" fill="#C58BF3"/>
<path d="M71.8171 171.723C72.6762 171.723 73.6068 171.365 74.2511 170.721C74.8955 170.077 75.2534 169.146 75.2534 168.287C75.2534 167.428 74.8955 166.497 74.2511 165.853C73.6068 165.209 72.6762 164.851 71.8171 164.851C70.958 164.851 70.0273 165.209 69.383 165.853C68.7387 166.497 68.3808 167.428 68.3808 168.287C68.3808 168.86 68.5239 169.432 68.8103 170.005L59.9331 178.882C60.0047 179.67 60.1479 180.386 60.2911 181.102L70.0989 171.294C70.6716 171.58 71.2444 171.723 71.8171 171.723Z" fill="#C58BF3"/>
<path d="M108.257 145.45C108.687 146.524 108.973 147.741 108.973 148.958V186.972C108.973 189.478 107.971 191.84 106.181 193.63L82.8426 216.968C81.6256 218.185 79.9074 218.615 78.3324 218.257C76.7575 212.745 75.97 206.946 75.97 201.004C75.97 188.905 79.3347 177.594 85.2051 167.929C90.7176 158.622 98.7357 150.819 108.257 145.45Z" fill="url(#paint3_linear_176_849)"/>
<path d="M158.012 180.457C151.999 176.805 144.768 180.528 139.685 184.036C134.602 180.457 127.372 176.805 121.358 180.457C120.857 180.743 121.072 180.743 121.43 180.671C121.859 180.671 122.575 180.671 122.79 180.6C126.011 180.528 132.097 183.034 136.678 186.184C136.678 186.184 136.678 186.184 136.607 186.255C133.958 188.188 131.381 190.193 128.445 191.696H133.457C134.316 191.696 135.103 191.481 135.748 191.052C136.965 190.264 138.253 189.334 139.613 188.403C139.613 188.403 139.685 188.403 139.685 188.331C139.685 188.331 139.757 188.331 139.757 188.403C141.117 189.334 142.334 190.264 143.623 191.052C144.267 191.481 145.126 191.696 145.913 191.696H150.925C148.061 190.193 145.412 188.117 142.763 186.255C142.763 186.255 142.763 186.255 142.692 186.184C147.274 183.034 153.359 180.528 156.58 180.6C156.724 180.6 157.511 180.6 157.941 180.671C158.37 180.743 158.513 180.743 158.012 180.457Z" fill="#001F55"/>
<path d="M131.881 161.7C129.447 164.134 127.801 166.998 127.013 169.933L133.456 164.779C132.669 167.785 132.812 170.864 133.671 173.727L137.179 165.136C137.322 172.295 138.11 175.947 139.541 180.743C140.973 175.947 141.761 172.295 141.904 165.136L145.412 173.727C146.342 170.864 146.414 167.785 145.626 164.779L152.07 169.933C151.282 166.998 149.707 164.134 147.201 161.7L155.721 163.705C153.573 161.485 150.781 159.696 147.559 158.55L155.578 157.047C152.571 155.973 149.278 155.472 145.841 155.687L152.571 150.89C149.421 151.176 146.342 151.964 143.55 153.396L147.774 146.953C145.34 147.955 143.121 149.458 141.259 151.391C140.902 149.029 140.329 146.738 139.47 144.304C138.611 146.738 138.038 148.957 137.68 151.391C135.819 149.458 133.599 148.026 131.165 146.953L135.389 153.396C132.525 151.964 129.447 151.176 126.369 150.89L133.098 155.687C129.733 155.543 126.369 155.973 123.362 157.047L131.38 158.55C128.158 159.767 125.438 161.557 123.219 163.705L131.881 161.7Z" fill="#001F55"/>
</g>
<defs>
<linearGradient id="paint0_linear_176_849" x1="88.2499" y1="108.244" x2="160.999" y2="137.717" gradientUnits="userSpaceOnUse">
<stop stop-color="#0053E7"/>
<stop offset="0.12" stop-color="#004FDE"/>
<stop offset="0.32" stop-color="#0047C5"/>
<stop offset="0.58" stop-color="#00389D"/>
<stop offset="0.87" stop-color="#002567"/>
<stop offset="1" stop-color="#001C4D"/>
</linearGradient>
<linearGradient id="paint1_linear_176_849" x1="191.822" y1="227.987" x2="118.593" y2="198.32" gradientUnits="userSpaceOnUse">
<stop stop-color="#FF5122"/>
<stop offset="0.2" stop-color="#F6481E"/>
<stop offset="0.52" stop-color="#E12F14"/>
<stop offset="0.92" stop-color="#BD0803"/>
<stop offset="1" stop-color="#B60000"/>
</linearGradient>
<linearGradient id="paint2_linear_176_849" x1="199.32" y1="117.084" x2="170.163" y2="188.301" gradientUnits="userSpaceOnUse">
<stop stop-color="#009457"/>
<stop offset="0.17" stop-color="#008B53"/>
<stop offset="0.46" stop-color="#00724A"/>
<stop offset="0.81" stop-color="#004B3A"/>
<stop offset="1" stop-color="#003432"/>
</linearGradient>
<linearGradient id="paint3_linear_176_849" x1="80.4146" y1="217.998" x2="108.955" y2="148.006" gradientUnits="userSpaceOnUse">
<stop stop-color="#7100E5"/>
<stop offset="0.13" stop-color="#6C00DC"/>
<stop offset="0.34" stop-color="#6000C3"/>
<stop offset="0.61" stop-color="#4C009C"/>
<stop offset="0.92" stop-color="#310065"/>
<stop offset="1" stop-color="#2A0056"/>
</linearGradient>
<clipPath id="clip0_176_849">
<rect width="514.121" height="166.232" fill="white" transform="translate(58.8796 84.8838)"/>
</clipPath>
</defs>
</svg>
