<svg width="632" height="336" viewBox="0 0 632 336" fill="none" xmlns="http://www.w3.org/2000/svg">
<g clip-path="url(#clip0_219_174)">
<path d="M350.08 91.7131C355.637 93.7082 368.477 84.6472 370.99 82.8248L371.367 82.5562L372.793 76.7947L370.434 77.7411C368.253 78.6236 365.331 79.1095 364.723 78.4509C364.461 78.1823 364.372 77.0249 365.759 74.4543L388.645 34.5782L389.374 33.5231C390.046 32.6278 390.723 31.7006 390.097 30.7287C389.47 29.7503 388.185 29.8654 386.906 30.0636C386.906 30.07 376.56 31.4576 376.56 31.4576L376.227 31.9756C376.048 32.2633 357.811 61.3712 346.755 69.991C342.873 73.0092 341.364 73.5335 340.853 73.6294C340.853 72.5488 342.08 69.5178 344.446 66.1223L357.773 44.7966L359.454 42.0022C359.991 41.1261 362.377 36.2855 362.377 32.5959C362.377 31.2594 362.07 30.0764 361.245 29.2835C358.84 26.9815 354.275 29.616 352.778 30.4857C352.766 30.4985 339.254 38.5364 339.254 38.5364L339.414 44.3873L341.044 44.1443C341.044 44.1443 343.02 43.8694 343.238 43.8502C343.206 44.7582 341.735 47.2009 341.134 48.1537L340.424 49.3495L340.098 49.9122C331.894 64.1592 322.577 81.808 322.577 88.5606C322.577 89.1297 322.667 89.6349 322.801 90.0442C322.884 90.2552 323.306 91.2527 324.329 91.7067C330.589 94.1814 343.353 82.9782 350.349 76.1681C348.986 79.7362 347.612 84.0141 347.612 87.205C347.612 88.177 347.746 89.0466 348.04 89.75C348.2 90.1529 348.865 91.2783 350.08 91.7131Z" fill="#00A84F"/>
<path d="M498.868 91.6683C504.425 93.6634 517.265 84.6152 519.766 82.7736L520.137 82.505L521.582 76.7563L519.216 77.7091C517.029 78.5724 514.119 79.0584 513.506 78.4125C513.237 78.1375 513.167 76.9865 514.554 74.4159L537.427 34.5334L538.176 33.4719C538.821 32.583 539.512 31.6494 538.898 30.6775C538.271 29.7119 536.973 29.827 535.694 30.0188C535.694 30.0252 525.348 31.4128 525.348 31.4128L525.009 31.9372C524.824 32.2249 506.599 61.3264 495.543 69.9526C491.668 72.958 490.146 73.4823 489.628 73.5847C489.641 72.504 490.882 69.4666 493.235 66.0711L506.561 44.7518L508.243 41.9638C508.786 41.075 511.165 36.2407 511.165 32.5575C511.165 31.221 510.845 30.0316 510.027 29.2323C507.629 26.9303 503.07 29.5776 501.567 30.4473C501.548 30.4601 488.043 38.4916 488.043 38.4916L488.196 44.3362L489.852 44.1123C489.852 44.1123 491.815 43.8246 492.02 43.799C492.007 44.7134 490.504 47.1625 489.91 48.1345L489.213 49.2983L488.88 49.8738C480.682 64.108 471.372 81.7696 471.372 88.5222C471.372 89.0913 471.442 89.5965 471.589 90.0121C471.666 90.2168 472.095 91.2143 473.124 91.6555C479.384 94.1494 492.154 82.9398 499.137 76.1297C497.762 79.6978 496.413 83.9629 496.413 87.1666C496.413 88.1258 496.541 89.0082 496.835 89.7052C496.995 90.1209 497.654 91.2399 498.868 91.6683Z" fill="#00A84F"/>
<path d="M456.812 29.4242C456.812 29.4242 477.747 18.4128 467.65 9.56283C460.853 3.60314 445.269 23.5476 442.264 32.2889C436.049 50.4813 420.932 65.9496 420.932 65.9496C420.932 65.9496 436.982 87.5631 447.834 86.3737C458.692 85.1843 461.294 73.9939 461.294 73.9939H472.139C472.139 73.9939 459.491 94.8208 438.229 97.5705C424.116 99.3929 408.137 79.5955 408.137 79.5955C408.137 79.5955 397.867 86.93 392.086 89.3791C388 91.0928 382.328 91.5341 378.792 89.9738C377.398 89.3471 376.343 88.2729 376.094 87.0131C375.895 85.9325 375.908 84.6792 376.196 83.5537C379.777 69.6904 404.882 68.4691 404.882 68.4691C404.882 68.4691 416.36 38.0184 431.131 21.3159C447.181 3.1811 468.948 -5.34918 477.274 3.96123C485.593 13.2716 479.288 24.251 472.139 29.4242C461.946 36.8418 456.812 29.4242 456.812 29.4242Z" fill="#00A84F"/>
<path d="M308.132 29.3857C308.132 29.3857 329.106 18.3744 318.977 9.53075C312.186 3.57107 296.584 23.5156 293.591 32.2505C287.382 50.4364 272.253 65.9176 272.253 65.9176C272.253 65.9176 288.316 87.531 299.161 86.3352C310.025 85.1523 312.615 73.9619 312.615 73.9619H323.473C323.473 73.9619 310.824 94.7824 289.556 97.532C275.456 99.3609 259.451 79.5507 259.451 79.5507C259.451 79.5507 249.194 86.898 243.388 89.3471C239.327 91.0736 233.643 91.4956 230.126 89.9353C228.725 89.3151 227.657 88.2408 227.421 86.9811C227.229 85.9004 227.242 84.6471 227.536 83.5217C231.104 69.6583 256.215 68.4306 256.215 68.4306C256.215 68.4306 267.687 37.9735 282.458 21.2839C298.509 3.15543 320.295 -5.36846 328.601 3.92277C336.92 13.2332 330.59 24.2126 323.473 29.3857C313.274 36.8033 308.132 29.3857 308.132 29.3857Z" fill="#00A84F"/>
<path d="M92.292 10.183C92.292 10.183 100.535 9.69062 114.436 5.02263C132.175 -0.930664 173.662 -7.69606 186.573 27.25C194.892 49.7842 177.998 72.7021 177.518 80.6313C176.949 89.7563 178.106 93.9191 178.106 93.9191L165.189 97.5128C165.189 97.5128 162.171 88.5605 164.013 78.8217C166.417 66.1414 178.081 49.0808 176.879 37.5643C175.689 26.0478 171.251 7.40139 147.093 1.4417C134.937 -1.54454 121.668 11.7497 112.013 14.9277C102.376 18.1186 95.4956 20.491 95.4956 20.491" fill="#EE3023"/>
<path d="M114.469 5.15057C120.281 3.20025 171.642 -12.7541 186.464 27.3012C188.057 31.643 188.709 35.9977 188.709 40.2564C188.709 51.3253 184.316 61.6908 181.119 69.23C179.136 73.9172 177.518 78.7514 176.988 81.6545C176.24 85.715 177.934 93.2797 177.972 93.8297C177.774 93.8872 165.529 97.2891 165.279 97.3658C165.081 96.7647 163.546 91.7642 163.546 85.3825C163.546 83.3107 163.719 81.0918 164.135 78.8601C165.119 73.6358 167.748 67.5226 170.293 61.6269C173.65 53.8128 177.096 45.7749 177.096 39.2525C177.096 38.6642 177.077 38.1015 177.013 37.558C174.961 17.6263 165.183 5.77724 147.119 1.31387C139.011 -0.681221 130.372 4.55588 122.737 9.17272C118.855 11.5323 115.217 13.7512 111.975 14.8063C111.975 14.8063 96.8964 19.8963 95.5792 20.3311C95.5088 20.0882 92.5482 10.5859 92.4394 10.3046C93.2835 10.2406 101.398 9.5436 114.469 5.15057ZM114.398 4.91398C100.695 9.50524 92.3627 10.0552 92.2796 10.068H92.1069L95.4257 20.6573L112.051 15.0493C115.319 13.975 118.996 11.7497 122.871 9.39653C130.455 4.81166 139.049 -0.399862 147.055 1.56965C165.024 5.99465 174.73 17.7797 176.757 37.5771C177.442 44.2978 173.682 53.0583 170.05 61.5182C167.517 67.4395 164.876 73.5527 163.879 78.809C162.063 88.4583 165.036 97.4681 165.068 97.5513L165.107 97.66L178.254 94.0279V93.9192C178.254 93.8616 176.802 88.7013 177.614 80.7337C177.908 77.6516 179.398 73.9875 181.362 69.3387C185.799 58.8453 192.52 42.9741 186.688 27.2116C171.802 -13.0738 120.236 2.94447 114.398 4.91398Z" fill="#EE3023"/>
<path d="M97.1455 25.6449C97.1455 25.6449 115.651 17.3128 129.751 9.38363C146.038 0.226684 191.759 -10.0685 204.669 24.8839C213.001 47.4118 200.877 68.6416 198.665 77.6642C196.772 85.3824 198.863 89.072 198.863 89.072L185.946 92.653C185.946 92.653 183.906 88.9633 185.761 79.2373C188.171 66.557 196.216 57.8157 196.216 37.1614C196.216 25.5873 187.634 5.72596 163.188 1.04518C148.692 -1.73643 137.092 8.43084 129.335 14.9277C118.478 24.0782 99.1342 35.1855 99.1342 35.1855" fill="#EE3023"/>
<path d="M183.247 3.4623C193.491 7.17751 200.666 14.3841 204.547 24.9223C206.651 30.5878 207.463 36.1319 207.463 41.4137C207.463 52.8215 203.691 63.04 200.915 70.5919C199.867 73.3799 198.997 75.765 198.556 77.6322C197.955 80.0621 197.744 82.1084 197.744 83.7454C197.744 86.9554 198.492 88.6052 198.69 88.9953C198.409 89.0656 186.227 92.4483 186.023 92.4931C185.824 92.0902 185.108 90.287 185.108 86.6101C185.108 84.6854 185.319 82.2619 185.875 79.2628C186.745 74.6844 188.357 70.6366 190.038 66.3459C192.999 58.8643 196.343 50.3788 196.343 37.1614C196.343 25.1333 187.519 5.57249 163.213 0.91089C162.842 0.84055 162.478 0.808578 162.094 0.757421C169.237 0.386539 176.533 1.04517 183.247 3.4623ZM129.828 9.47954C133.709 7.29901 139.426 5.00338 145.999 3.28325C139.547 6.18636 134.105 10.7584 129.879 14.3266L129.265 14.8445C118.931 23.5091 100.784 34.092 99.2426 34.9808C99.1595 34.6547 97.3307 25.9006 97.2923 25.7152C98.309 25.2548 116.214 17.1466 129.828 9.47954ZM158.916 0.731843C155.732 1.03239 152.598 1.50558 149.625 2.14503C152.547 1.19225 155.649 0.648715 158.916 0.731843ZM160.707 0.559192C156.064 0.124365 151.748 1.03239 147.758 2.59265C140.385 4.35114 133.958 6.87057 129.68 9.27491C115.747 17.1082 97.2667 25.453 97.0941 25.5298L96.9854 25.5745L99.0508 35.3837L99.2042 35.2942C99.4025 35.1855 118.669 24.0782 129.425 15.0236L130.039 14.512C134.636 10.6369 140.692 5.63004 147.854 2.83564C151.921 1.87007 156.237 1.1283 160.681 0.808578C161.493 0.885312 162.324 1.00681 163.162 1.16667C187.321 5.7899 196.068 25.2228 196.068 37.1614C196.068 50.3341 192.743 58.794 189.808 66.2628C188.107 70.5599 186.489 74.6268 185.626 79.2117C185.051 82.281 184.84 84.7237 184.84 86.6677C184.84 90.8497 185.773 92.6082 185.837 92.7169L185.882 92.8L199.055 89.1424L198.984 89.0081C198.959 88.9761 196.944 85.2481 198.799 77.6834C199.253 75.8546 200.129 73.4502 201.146 70.6942C205.238 59.5741 211.441 42.7758 204.797 24.8328C200.877 14.2307 193.664 6.9537 183.33 3.2257C176.169 0.64232 168.303 0.0284467 160.707 0.559192Z" fill="#EE3023"/>
<path d="M135.468 54.5288H114.123C114.187 55.1299 114.264 55.7246 114.347 56.3193H137.041C136.465 55.7821 135.909 55.1938 135.468 54.5288Z" fill="#00A84F"/>
<path d="M150.667 56.3193H167.28C167.37 55.7246 167.453 55.1299 167.504 54.5288H152.241C151.799 55.1938 151.256 55.7821 150.667 56.3193Z" fill="#00A84F"/>
<path d="M118.203 66.5631H163.412C163.808 65.9876 164.16 65.3865 164.505 64.7534H117.135C117.467 65.3865 117.838 65.9876 118.203 66.5631Z" fill="#00A84F"/>
<path d="M120.85 69.9781H160.796C161.308 69.4026 161.813 68.8015 162.28 68.1748H119.334C119.801 68.8015 120.319 69.4026 120.85 69.9781Z" fill="#00A84F"/>
<path d="M143.851 58.9798C142.278 58.9798 140.788 58.5833 139.452 57.9375H114.615C114.75 58.5514 114.909 59.1461 115.082 59.7408H166.545C166.718 59.1461 166.89 58.5514 167.012 57.9375H148.263C146.933 58.5833 145.443 58.9798 143.851 58.9798Z" fill="#00A84F"/>
<path d="M116.336 63.149H165.279C165.561 62.5607 165.785 61.9596 166.002 61.3457H115.626C115.843 61.9596 116.08 62.5607 116.336 63.149Z" fill="#00A84F"/>
<path d="M124.572 73.3927H157.062C157.804 72.8299 158.533 72.2225 159.211 71.583H122.404C123.082 72.2225 123.817 72.8299 124.572 73.3927Z" fill="#00A84F"/>
<path d="M140.801 78.8218C142.374 78.8218 143.908 78.6683 145.411 78.4253H136.229C137.718 78.6683 139.24 78.8218 140.801 78.8218Z" fill="#00A84F"/>
<path d="M130.519 76.814H151.096C152.343 76.3025 153.52 75.6822 154.652 75.0044H126.963C128.108 75.6822 129.291 76.3025 130.519 76.814Z" fill="#00A84F"/>
<path d="M123.363 32.4296H158.264C157.503 31.7902 156.723 31.1891 155.892 30.6392H125.722C124.904 31.1891 124.13 31.7902 123.363 32.4296Z" fill="#00A84F"/>
<path d="M119.987 35.8443H161.641C161.123 35.224 160.573 34.6229 160.023 34.041H121.624C121.042 34.6229 120.505 35.224 119.987 35.8443Z" fill="#00A84F"/>
<path d="M153.11 52.9114H167.587C167.587 52.7515 167.6 52.5981 167.6 52.4446C167.6 51.9906 167.561 51.5494 167.529 51.1082H153.692C153.557 51.7348 153.359 52.3295 153.11 52.9114Z" fill="#00A84F"/>
<path d="M134.023 51.1082H114.091C114.066 51.5494 114.015 51.9906 114.015 52.4446C114.015 52.5981 114.04 52.7515 114.04 52.9114H134.599C134.343 52.3295 134.157 51.7348 134.023 51.1082Z" fill="#00A84F"/>
<path d="M118.062 39.2586H142.975C143.257 39.233 143.557 39.1754 143.851 39.1754C144.158 39.1754 144.44 39.233 144.746 39.2586H164C163.649 38.6447 163.278 38.0436 162.868 37.4553H119.239C119.072 37.9157 118.19 38.9325 118.043 39.2586" fill="#00A84F"/>
<path d="M128.472 29.0213H153.136C151.723 28.2923 150.265 27.6849 148.717 27.2117H132.897C131.362 27.6849 129.892 28.2923 128.472 29.0213Z" fill="#00A84F"/>
<path d="M133.799 49.081C133.799 48.6078 133.882 48.1474 133.946 47.6934H114.468C114.36 48.3008 114.27 48.8955 114.187 49.4966H133.844C133.837 49.3495 133.799 49.2216 133.799 49.081Z" fill="#00A84F"/>
<path d="M153.91 49.081C153.91 49.2216 153.865 49.3495 153.865 49.4966H167.428C167.357 48.8955 167.268 48.3008 167.146 47.6934H153.775C153.839 48.1474 153.91 48.6078 153.91 49.081Z" fill="#00A84F"/>
<path d="M135.11 44.2847H115.345C115.134 44.8666 114.986 45.474 114.839 46.0815H134.323C134.534 45.4549 134.784 44.8666 135.11 44.2847Z" fill="#00A84F"/>
<path d="M153.398 46.0815H166.788C166.641 45.474 166.481 44.8666 166.289 44.2847H152.611C152.931 44.8666 153.2 45.4549 153.398 46.0815Z" fill="#00A84F"/>
<path d="M151.468 42.6736H165.695C165.452 42.0597 165.158 41.4586 164.864 40.8767H149.492C150.24 41.3691 150.892 42.0021 151.468 42.6736Z" fill="#00A84F"/>
<path d="M138.237 40.8767H117.384C117.084 41.4586 116.668 42.0597 116.425 42.6736H136.242C136.83 42.0021 137.482 41.3691 138.237 40.8767Z" fill="#00A84F"/>
<path d="M141.856 33.6125C141.856 33.6125 155.028 26.5657 148.691 20.8874C144.401 17.0827 134.598 29.8589 132.718 35.4541C128.798 47.0985 119.283 56.9972 119.283 56.9972C119.283 56.9972 129.399 70.8605 136.216 70.0996C143.039 69.3322 144.682 62.1704 144.682 62.1704H151.505C151.505 62.1704 143.557 75.5093 130.173 77.2678C121.291 78.4252 111.252 65.7449 111.252 65.7449C111.252 65.7449 104.774 70.1379 101.135 71.711C97.497 73.2776 91.4158 73.1433 91.0833 70.496C89.8683 60.1881 109.199 58.6214 109.199 58.6214C109.199 58.6214 116.425 39.1118 125.71 28.4201C135.8 16.8013 149.504 11.3468 154.721 17.3129C159.959 23.2725 155.962 30.3065 151.505 33.6125C145.091 38.37 141.856 33.6125 141.856 33.6125Z" fill="#EE3023"/>
<path d="M92.3625 71.6599C91.8254 71.3274 91.5632 70.9502 91.4417 70.4897C91.0005 68.744 91.8126 66.8001 93.0659 65.2846C97.4014 60.0667 109.11 59.05 109.244 59.05L109.506 59.018L109.589 58.7558C109.679 58.5768 116.892 39.2014 126.017 28.7016C133 20.6893 142.054 15.3115 148.602 15.2987C151.115 15.2987 153.066 16.0661 154.408 17.588C156.224 19.647 157.011 21.981 156.723 24.494C156.32 28.2732 153.616 31.5216 151.23 33.2737C149.095 34.8723 147.119 35.531 145.322 35.2368C143.883 35.0002 142.962 34.1945 142.521 33.7405C144.267 32.7238 150.316 28.9574 150.815 24.8329C150.84 24.6539 150.84 24.4685 150.84 24.2894C150.84 22.9338 150.214 21.6868 148.973 20.5806C148.103 19.8005 146.997 19.5894 145.706 19.9156C140.584 21.2456 133.761 30.9653 132.303 35.3199C128.466 46.7277 119.079 56.6265 118.976 56.7096L118.733 56.9654L118.932 57.2659C119.36 57.835 129.265 71.3082 136.267 70.5089C142.463 69.8183 144.561 64.0121 145.002 62.5861H150.719C148.948 65.2399 141.453 75.3496 130.109 76.8395C121.585 77.9585 111.68 65.6107 111.578 65.4892L111.335 65.1695L110.99 65.3933C110.932 65.4445 104.531 69.7864 100.976 71.3146C98.2391 72.504 94.4023 72.9069 92.3625 71.6599ZM148.602 14.4546C141.83 14.461 132.494 19.9731 125.377 28.1453C116.719 38.1207 109.775 55.9167 108.88 58.2251C107.057 58.4041 96.6404 59.6383 92.4009 64.7539C91.1987 66.1862 90.604 67.8104 90.604 69.5625C90.604 69.9015 90.6168 70.2148 90.6552 70.5473C90.7447 71.2763 91.2115 71.9029 91.9852 72.3633C94.0379 73.5144 98.3094 73.3929 101.308 72.1012C104.538 70.7008 109.813 67.2158 111.162 66.3205C112.774 68.2709 121.867 78.7834 130.224 77.6836C143.666 75.9123 151.799 62.5094 151.87 62.3751L152.241 61.7421H144.331L144.267 62.0682C144.241 62.1385 142.598 68.9551 136.159 69.6713C130.173 70.3363 121.266 58.9029 119.853 57.0357C121.31 55.4499 129.572 46.1906 133.108 35.5885C134.547 31.3234 141.242 21.9554 145.929 20.7468C146.946 20.4719 147.745 20.6317 148.398 21.2073C149.6 22.2879 150.118 23.4389 149.958 24.7242C149.427 29.0277 141.735 33.2034 141.651 33.2417L141.242 33.4591L141.504 33.8492C141.549 33.9259 142.77 35.6652 145.156 36.0745C147.189 36.407 149.402 35.6908 151.761 33.9515C154.281 32.0843 157.158 28.6313 157.587 24.5772C157.881 21.8339 157.03 19.2889 155.067 17.038C153.571 15.3307 151.345 14.4355 148.602 14.4546Z" fill="white"/>
<path d="M136.453 49.7459C136.453 49.3751 136.478 49.0042 136.523 48.6397C136.625 47.9491 137.668 48.1026 137.572 48.7868C137.521 49.1001 137.508 49.4262 137.508 49.7459C137.508 50.4429 136.453 50.4429 136.453 49.7459ZM136.683 47.1178C137.533 43.7287 140.628 41.2029 144.343 41.2029C145.667 41.2029 146.908 41.529 148.001 42.0981C148.628 42.4114 148.135 43.345 147.522 43.0125C146.562 42.5202 145.494 42.2452 144.343 42.2452C141.146 42.2452 138.441 44.4321 137.719 47.38C137.546 48.0386 136.51 47.7956 136.683 47.1178Z" fill="#EE3023"/>
<path d="M151.998 48.7227C151.998 49.2279 151.934 49.733 151.838 50.219C151.704 50.8968 150.655 50.6986 150.802 50.0144C150.866 49.5987 150.93 49.1703 150.93 48.7227C150.93 48.0257 151.998 48.0257 151.998 48.7227ZM151.506 51.434C150.374 54.3946 147.464 56.5048 144.082 56.5048C143.346 56.5048 142.643 56.4153 141.978 56.2299C141.306 56.0444 141.588 55.0405 142.265 55.2259C142.841 55.3858 143.442 55.4625 144.082 55.4625C147.01 55.4625 149.536 53.6337 150.495 51.0695C150.757 50.4172 151.749 50.7881 151.506 51.434Z" fill="#EE3023"/>
<path d="M92.254 122.4V127.292H98.2265V122.4H99.774V134.652H98.2265V128.609H92.254V134.652H90.7065V122.4" fill="#707073"/>
<path d="M101.75 122.4H103.815L106.66 127.592L109.493 122.4H111.456L107.428 129.101V134.652H105.733V129.101" fill="#707073"/>
<path d="M115.057 128.219C115.114 128.232 115.172 128.244 115.223 128.244H115.389C115.447 128.257 115.498 128.264 115.556 128.264H115.703C116.719 128.264 117.493 128.085 118.024 127.733C118.555 127.381 118.817 126.761 118.817 125.872C118.817 125.06 118.51 124.523 117.89 124.267C117.269 124.011 116.585 123.864 115.843 123.839C115.722 123.826 115.587 123.819 115.453 123.819H115.057V128.219ZM115.575 122.4C115.811 122.413 116.131 122.425 116.54 122.451C116.943 122.47 117.359 122.534 117.787 122.643C118.433 122.822 119.028 123.167 119.558 123.666C120.102 124.171 120.364 124.958 120.364 126.032C120.364 127.247 120.025 128.097 119.335 128.596C118.644 129.089 117.896 129.389 117.084 129.504C116.892 129.517 116.694 129.53 116.496 129.543C116.297 129.555 116.105 129.562 115.926 129.562H115.779C115.728 129.562 115.677 129.555 115.639 129.543H115.472C115.402 129.543 115.338 129.543 115.268 129.536C115.197 129.523 115.127 129.523 115.057 129.523V134.652H113.509V122.4" fill="#707073"/>
<path d="M129.086 122.4V123.819H124.041V127.074H128.958V128.468H124.041V133.13H129.086V134.652H122.372V122.4" fill="#707073"/>
<path d="M133.626 128.353C134.809 128.366 135.736 128.225 136.395 127.925C137.054 127.624 137.386 127.062 137.386 126.224V126C137.386 125.456 137.156 124.958 136.695 124.504C136.235 124.05 135.346 123.819 134.042 123.819H133.626V128.353ZM135.589 122.4C136.472 122.464 137.181 122.758 137.725 123.263C138.269 123.775 138.633 124.325 138.812 124.913C138.85 125.066 138.882 125.207 138.902 125.348C138.927 125.488 138.934 125.623 138.934 125.757C138.934 126.863 138.627 127.707 138.019 128.296C137.405 128.89 136.676 129.255 135.839 129.389L139.867 134.652H137.904L134.266 129.511H133.626V134.652H132.079V122.4" fill="#707073"/>
<path d="M151.826 121.851L154.428 134.678H152.714L151.308 126.544L147.548 134.825L143.794 126.666L142.368 134.678H140.84L143.276 121.851L147.548 131.705" fill="#707073"/>
<path d="M159.217 130.144H163.616L161.429 125.227L159.217 130.144ZM167.376 134.652H165.701L164.281 131.589H158.705L157.279 134.652H155.604L161.429 121.742" fill="#707073"/>
<path d="M170.848 128.353C172.031 128.366 172.952 128.225 173.617 127.925C174.276 127.624 174.608 127.062 174.608 126.224V126C174.608 125.456 174.378 124.958 173.918 124.504C173.451 124.05 172.568 123.819 171.264 123.819H170.848V128.353ZM172.811 122.4C173.687 122.464 174.404 122.758 174.947 123.263C175.491 123.775 175.855 124.325 176.028 124.913C176.073 125.066 176.105 125.207 176.124 125.348C176.143 125.488 176.156 125.623 176.156 125.757C176.156 126.863 175.849 127.707 175.235 128.296C174.621 128.89 173.898 129.255 173.061 129.389L177.083 134.652H175.12L171.488 129.511H170.848V134.652H169.301V122.4" fill="#707073"/>
<path d="M180.517 122.4V127.829L185.824 122.4H187.781L182.352 127.95L188.03 134.665H185.824L181.175 128.986L180.517 129.626V134.665H178.988V122.4" fill="#707073"/>
<path d="M196.645 122.4V123.819H191.606V127.074H196.523V128.468H191.606V133.13H196.645V134.652H189.931V122.4" fill="#707073"/>
<path d="M198.422 123.819V122.4H205.923V123.819H203.09V134.652H201.376V123.819" fill="#707073"/>
<path d="M213.353 124.165C213.244 124.044 213.135 123.935 213.027 123.858C212.79 123.692 212.566 123.583 212.355 123.538C212.138 123.487 211.939 123.462 211.767 123.462C211.127 123.462 210.616 123.641 210.226 123.999C209.836 124.357 209.637 124.753 209.637 125.195C209.637 125.233 209.637 125.271 209.644 125.316C209.657 125.355 209.657 125.399 209.657 125.438C209.714 125.674 209.836 125.898 210.027 126.128C210.219 126.352 210.488 126.544 210.833 126.691C211.025 126.787 211.319 126.915 211.703 127.075C212.087 127.235 212.489 127.42 212.899 127.644C213.378 127.887 213.839 128.175 214.261 128.488C214.689 128.801 214.97 129.146 215.111 129.517C215.137 129.613 215.162 129.716 215.181 129.818C215.201 129.92 215.226 130.023 215.252 130.118C215.284 130.253 215.303 130.393 215.316 130.528C215.329 130.668 215.335 130.796 215.335 130.924C215.335 131.979 214.97 132.913 214.235 133.719C213.493 134.524 212.598 134.927 211.537 134.927H211.37C210.411 134.927 209.541 134.575 208.768 133.872C208 133.175 207.61 132.376 207.61 131.48L209.036 131.071C209.164 131.896 209.452 132.504 209.906 132.906C210.36 133.303 210.846 133.508 211.37 133.527H211.569C211.601 133.527 211.639 133.514 211.684 133.501C212.15 133.463 212.592 133.265 213.001 132.913C213.417 132.568 213.692 132.088 213.832 131.48C213.845 131.397 213.851 131.314 213.851 131.231V131.007C213.851 130.413 213.64 129.939 213.218 129.575C212.803 129.21 212.336 128.91 211.824 128.68C211.754 128.648 211.684 128.616 211.607 128.584C211.53 128.552 211.453 128.52 211.37 128.488C211.332 128.475 211.287 128.462 211.236 128.437C211.191 128.418 211.147 128.398 211.102 128.386C210.36 128.085 209.676 127.708 209.056 127.266C208.442 126.819 208.128 126.103 208.128 125.131C208.128 124.952 208.16 124.747 208.224 124.53C208.282 124.312 208.371 124.082 208.48 123.852C208.729 123.398 209.1 122.976 209.599 122.592C210.091 122.208 210.731 122.017 211.517 122.017C212.163 122.017 212.694 122.087 213.116 122.24C213.538 122.394 213.941 122.662 214.325 123.046C214.433 123.161 214.542 123.283 214.657 123.411C214.766 123.545 214.875 123.692 214.99 123.858L213.685 124.6C213.576 124.434 213.461 124.293 213.353 124.165Z" fill="#707073"/>
<path d="M232.978 124.165C232.869 124.044 232.754 123.935 232.645 123.858C232.409 123.692 232.191 123.583 231.974 123.538C231.763 123.487 231.564 123.462 231.385 123.462C230.752 123.462 230.241 123.641 229.851 123.999C229.454 124.357 229.256 124.753 229.256 125.195C229.256 125.233 229.262 125.271 229.269 125.316C229.275 125.355 229.282 125.399 229.282 125.438C229.333 125.674 229.461 125.898 229.652 126.128C229.844 126.352 230.113 126.544 230.458 126.691C230.65 126.787 230.938 126.915 231.321 127.075C231.712 127.235 232.108 127.42 232.524 127.644C233.003 127.887 233.457 128.175 233.886 128.488C234.308 128.801 234.595 129.146 234.73 129.517C234.762 129.613 234.781 129.716 234.8 129.818C234.826 129.92 234.851 130.023 234.877 130.118C234.902 130.253 234.922 130.393 234.934 130.528C234.954 130.668 234.96 130.796 234.96 130.924C234.96 131.979 234.589 132.913 233.854 133.719C233.118 134.524 232.217 134.927 231.162 134.927H230.995C230.03 134.927 229.16 134.575 228.393 133.872C227.619 133.175 227.235 132.376 227.235 131.48L228.661 131.071C228.783 131.896 229.071 132.504 229.525 132.906C229.979 133.303 230.471 133.508 230.995 133.527H231.187C231.226 133.527 231.264 133.514 231.302 133.501C231.769 133.463 232.21 133.265 232.626 132.913C233.035 132.568 233.31 132.088 233.451 131.48C233.464 131.397 233.47 131.314 233.47 131.231V131.007C233.47 130.413 233.259 129.939 232.843 129.575C232.421 129.21 231.955 128.91 231.449 128.68C231.379 128.648 231.309 128.616 231.232 128.584C231.155 128.552 231.078 128.52 230.995 128.488C230.951 128.475 230.906 128.462 230.861 128.437C230.81 128.418 230.765 128.398 230.727 128.386C229.979 128.085 229.301 127.708 228.681 127.266C228.06 126.819 227.753 126.103 227.753 125.131C227.753 124.952 227.779 124.747 227.843 124.53C227.907 124.312 227.99 124.082 228.105 123.852C228.348 123.398 228.719 122.976 229.218 122.592C229.716 122.208 230.356 122.017 231.136 122.017C231.788 122.017 232.319 122.087 232.741 122.24C233.157 122.394 233.56 122.662 233.95 123.046C234.058 123.161 234.167 123.283 234.276 123.411C234.384 123.545 234.5 123.692 234.608 123.858L233.304 124.6C233.195 124.434 233.086 124.293 232.978 124.165Z" fill="#707073"/>
<path d="M246.361 122.4V130.144C246.361 131.531 245.932 132.682 245.082 133.584C244.225 134.486 243.132 134.933 241.795 134.933H241.565C240.344 134.837 239.423 134.492 238.802 133.904C238.182 133.309 237.747 132.663 237.498 131.96C237.402 131.698 237.325 131.435 237.274 131.173C237.217 130.911 237.185 130.668 237.172 130.431V122.4H238.719V129.747C238.719 129.85 238.719 129.939 238.726 130.029C238.739 130.118 238.739 130.208 238.739 130.31C238.822 131.077 239.084 131.793 239.531 132.452C239.979 133.117 240.708 133.475 241.712 133.533C242.607 133.533 243.349 133.219 243.931 132.599C244.519 131.979 244.813 131.084 244.813 129.913V122.4" fill="#707073"/>
<path d="M250.698 128.219C250.755 128.232 250.807 128.244 250.864 128.244H251.03C251.082 128.257 251.139 128.264 251.197 128.264H251.337C252.36 128.264 253.134 128.085 253.665 127.733C254.189 127.381 254.458 126.761 254.458 125.872C254.458 125.06 254.151 124.523 253.531 124.267C252.91 124.011 252.226 123.864 251.484 123.839C251.363 123.826 251.229 123.819 251.088 123.819H250.698V128.219ZM251.216 122.4C251.446 122.413 251.772 122.425 252.175 122.451C252.584 122.47 253 122.534 253.422 122.643C254.074 122.822 254.662 123.167 255.2 123.666C255.737 124.171 256.005 124.958 256.005 126.032C256.005 127.247 255.66 128.097 254.976 128.596C254.285 129.089 253.537 129.389 252.725 129.504C252.527 129.517 252.335 129.53 252.137 129.543C251.932 129.555 251.747 129.562 251.568 129.562H251.42C251.363 129.562 251.318 129.555 251.28 129.543H251.114C251.043 129.543 250.973 129.543 250.902 129.536C250.839 129.523 250.768 129.523 250.698 129.523V134.652H249.15V122.4" fill="#707073"/>
<path d="M264.721 122.4V123.819H259.682V127.074H264.599V128.468H259.682V133.13H264.721V134.652H258.013V122.4" fill="#707073"/>
<path d="M269.267 128.353C270.45 128.366 271.371 128.225 272.036 127.925C272.695 127.624 273.027 127.062 273.027 126.224V126C273.027 125.456 272.797 124.958 272.337 124.504C271.876 124.05 270.987 123.819 269.683 123.819H269.267V128.353ZM271.23 122.4C272.113 122.464 272.823 122.758 273.366 123.263C273.91 123.775 274.274 124.325 274.453 124.913C274.492 125.066 274.523 125.207 274.543 125.348C274.562 125.488 274.575 125.623 274.575 125.757C274.575 126.863 274.268 127.707 273.654 128.296C273.046 128.89 272.317 129.255 271.48 129.389L275.502 134.652H273.545L269.907 129.511H269.267V134.652H267.72V122.4" fill="#707073"/>
<path d="M287.466 121.851L290.062 134.678H288.348L286.948 126.544L283.188 134.825L279.428 126.666L278.002 134.678H276.474L278.91 121.851L283.188 131.705" fill="#707073"/>
<path d="M294.858 130.144H299.257L297.071 125.227L294.858 130.144ZM303.017 134.652H301.342L299.916 131.589H294.34L292.914 134.652H291.245L297.071 121.742" fill="#707073"/>
<path d="M306.483 128.353C307.672 128.366 308.593 128.225 309.252 127.925C309.917 127.624 310.243 127.062 310.243 126.224V126C310.243 125.456 310.013 124.958 309.552 124.504C309.092 124.05 308.21 123.819 306.899 123.819H306.483V128.353ZM308.446 122.4C309.329 122.464 310.045 122.758 310.588 123.263C311.132 123.775 311.49 124.325 311.669 124.913C311.714 125.066 311.739 125.207 311.765 125.348C311.784 125.488 311.797 125.623 311.797 125.757C311.797 126.863 311.49 127.707 310.876 128.296C310.262 128.89 309.54 129.255 308.696 129.389L312.724 134.652H310.761L307.129 129.511H306.483V134.652H304.936V122.4" fill="#707073"/>
<path d="M316.151 122.4V127.829L321.459 122.4H323.422L317.993 127.95L323.671 134.665H321.459L316.816 128.986L316.151 129.626V134.665H314.623V122.4" fill="#707073"/>
<path d="M332.285 122.4V123.819H327.246V127.074H332.157V128.468H327.246V133.13H332.285V134.652H325.57V122.4" fill="#707073"/>
<path d="M334.062 123.819V122.4H341.557V123.819H338.73V134.652H337.017V123.819" fill="#707073"/>
<path d="M348.993 124.165C348.885 124.044 348.769 123.935 348.661 123.858C348.431 123.692 348.207 123.583 347.989 123.538C347.778 123.487 347.58 123.462 347.401 123.462C346.768 123.462 346.256 123.641 345.866 123.999C345.47 124.357 345.278 124.753 345.278 125.195C345.278 125.233 345.278 125.271 345.284 125.316C345.291 125.355 345.297 125.399 345.297 125.438C345.348 125.674 345.476 125.898 345.668 126.128C345.86 126.352 346.129 126.544 346.474 126.691C346.666 126.787 346.953 126.915 347.337 127.075C347.727 127.235 348.124 127.42 348.539 127.644C349.019 127.887 349.473 128.175 349.901 128.488C350.33 128.801 350.611 129.146 350.745 129.517C350.777 129.613 350.803 129.716 350.822 129.818C350.841 129.92 350.867 130.023 350.892 130.118C350.918 130.253 350.944 130.393 350.956 130.528C350.969 130.668 350.976 130.796 350.976 130.924C350.976 131.979 350.605 132.913 349.869 133.719C349.134 134.524 348.232 134.927 347.177 134.927H347.011C346.045 134.927 345.176 134.575 344.408 133.872C343.635 133.175 343.251 132.376 343.251 131.48L344.677 131.071C344.798 131.896 345.086 132.504 345.54 132.906C345.994 133.303 346.487 133.508 347.011 133.527H347.203C347.241 133.527 347.28 133.514 347.318 133.501C347.785 133.463 348.226 133.265 348.642 132.913C349.051 132.568 349.332 132.088 349.466 131.48C349.479 131.397 349.492 131.314 349.492 131.231V131.007C349.492 130.413 349.281 129.939 348.859 129.575C348.437 129.21 347.977 128.91 347.465 128.68C347.395 128.648 347.324 128.616 347.248 128.584C347.171 128.552 347.094 128.52 347.011 128.488C346.966 128.475 346.921 128.462 346.877 128.437C346.826 128.418 346.781 128.398 346.742 128.386C345.994 128.085 345.316 127.708 344.696 127.266C344.076 126.819 343.769 126.103 343.769 125.131C343.769 124.952 343.795 124.747 343.858 124.53C343.922 124.312 344.006 124.082 344.121 123.852C344.37 123.398 344.741 122.976 345.233 122.592C345.732 122.208 346.371 122.017 347.152 122.017C347.804 122.017 348.335 122.087 348.757 122.24C349.172 122.394 349.575 122.662 349.965 123.046C350.074 123.161 350.183 123.283 350.291 123.411C350.4 123.545 350.515 123.692 350.624 123.858L349.319 124.6C349.211 124.434 349.102 124.293 348.993 124.165Z" fill="#707073"/>
<path d="M364.915 133.251H366.629C367.812 133.264 368.739 132.983 369.411 132.395C370.076 131.813 370.555 131.173 370.843 130.483C370.997 130.112 371.105 129.754 371.176 129.402C371.246 129.05 371.278 128.743 371.278 128.481C371.278 128.34 371.272 128.206 371.265 128.078C371.259 127.95 371.246 127.816 371.214 127.675C371.08 126.684 370.626 125.776 369.852 124.951C369.085 124.126 367.87 123.711 366.22 123.711H364.915V133.251ZM365.58 122.4C367.838 122.413 369.615 122.841 370.913 123.698C372.218 124.555 372.896 126.115 372.953 128.379C372.953 128.513 372.947 128.654 372.941 128.788C372.934 128.929 372.921 129.069 372.909 129.204C372.774 130.572 372.205 131.825 371.208 132.976C370.21 134.134 368.592 134.703 366.361 134.703L363.266 134.684V122.4" fill="#707073"/>
<path d="M381.809 122.4V123.819H376.771V127.074H381.688V128.468H376.771V133.13H381.809V134.652H375.102V122.4" fill="#707073"/>
<path d="M386.356 128.219C386.414 128.232 386.465 128.244 386.522 128.244H386.689C386.74 128.257 386.797 128.264 386.855 128.264H386.996C388.012 128.264 388.792 128.085 389.323 127.733C389.847 127.381 390.116 126.761 390.116 125.872C390.116 125.06 389.809 124.523 389.189 124.267C388.569 124.011 387.884 123.864 387.143 123.839C387.015 123.826 386.887 123.819 386.746 123.819H386.356V128.219ZM386.874 122.4C387.104 122.413 387.43 122.425 387.833 122.451C388.242 122.47 388.658 122.534 389.08 122.643C389.732 122.822 390.321 123.167 390.858 123.666C391.395 124.171 391.664 124.958 391.664 126.032C391.664 127.247 391.318 128.097 390.634 128.596C389.943 129.089 389.195 129.389 388.383 129.504C388.185 129.517 387.993 129.53 387.788 129.543C387.59 129.555 387.405 129.562 387.226 129.562H387.079C387.027 129.562 386.976 129.555 386.938 129.543H386.772C386.701 129.543 386.631 129.543 386.561 129.536C386.497 129.523 386.426 129.523 386.356 129.523V134.652H384.809V122.4" fill="#707073"/>
<path d="M396.128 130.144H400.527L398.34 125.227L396.128 130.144ZM404.287 134.652H402.612L401.186 131.589H395.61L394.184 134.652H392.515L398.34 121.742" fill="#707073"/>
<path d="M407.753 128.353C408.936 128.366 409.863 128.225 410.521 127.925C411.18 127.624 411.513 127.062 411.513 126.224V126C411.513 125.456 411.282 124.958 410.822 124.504C410.362 124.05 409.479 123.819 408.168 123.819H407.753V128.353ZM409.716 122.4C410.598 122.464 411.308 122.758 411.858 123.263C412.401 123.775 412.759 124.325 412.938 124.913C412.977 125.066 413.009 125.207 413.034 125.348C413.054 125.488 413.066 125.623 413.066 125.757C413.066 126.863 412.753 127.707 412.146 128.296C411.532 128.89 410.803 129.255 409.965 129.389L413.994 134.652H412.03L408.392 129.511H407.753V134.652H406.205V122.4" fill="#707073"/>
<path d="M414.696 123.819V122.4H422.197V123.819H419.364V134.652H417.651V123.819" fill="#707073"/>
<path d="M434.437 121.851L437.04 134.678H435.326L433.925 126.544L430.165 134.825L426.405 126.666L424.979 134.678H423.451L425.887 121.851L430.165 131.705" fill="#707073"/>
<path d="M446.088 122.4V123.819H441.049V127.074H445.966V128.468H441.049V133.13H446.088V134.652H439.38V122.4" fill="#707073"/>
<path d="M458.378 131.461V122.4H459.906V135.17L450.596 125.732V134.652H448.939V121.735" fill="#707073"/>
<path d="M461.627 123.819V122.4H469.121V123.819H466.295V134.652H464.581V123.819" fill="#707073"/>
<path d="M486.386 124.165C486.277 124.044 486.168 123.935 486.06 123.858C485.823 123.692 485.599 123.583 485.382 123.538C485.171 123.487 484.973 123.462 484.794 123.462C484.161 123.462 483.649 123.641 483.259 123.999C482.862 124.357 482.671 124.753 482.671 125.195C482.671 125.233 482.671 125.271 482.677 125.316C482.683 125.355 482.69 125.399 482.69 125.438C482.747 125.674 482.869 125.898 483.061 126.128C483.253 126.352 483.521 126.544 483.866 126.691C484.058 126.787 484.352 126.915 484.736 127.075C485.12 127.235 485.523 127.42 485.932 127.644C486.411 127.887 486.872 128.175 487.294 128.488C487.722 128.801 488.004 129.146 488.144 129.517C488.17 129.613 488.195 129.716 488.215 129.818C488.234 129.92 488.259 130.023 488.285 130.118C488.317 130.253 488.336 130.393 488.349 130.528C488.362 130.668 488.368 130.796 488.368 130.924C488.368 131.979 488.004 132.913 487.268 133.719C486.527 134.524 485.631 134.927 484.57 134.927H484.404C483.438 134.927 482.575 134.575 481.801 133.872C481.027 133.175 480.644 132.376 480.644 131.48L482.07 131.071C482.191 131.896 482.485 132.504 482.939 132.906C483.393 133.303 483.879 133.508 484.404 133.527H484.602C484.634 133.527 484.672 133.514 484.717 133.501C485.184 133.463 485.618 133.265 486.034 132.913C486.45 132.568 486.725 132.088 486.859 131.48C486.878 131.397 486.885 131.314 486.885 131.231V131.007C486.885 130.413 486.674 129.939 486.252 129.575C485.83 129.21 485.369 128.91 484.858 128.68C484.787 128.648 484.717 128.616 484.64 128.584C484.563 128.552 484.487 128.52 484.404 128.488C484.365 128.475 484.314 128.462 484.269 128.437C484.224 128.418 484.173 128.398 484.135 128.386C483.393 128.085 482.709 127.708 482.089 127.266C481.468 126.819 481.162 126.103 481.162 125.131C481.162 124.952 481.193 124.747 481.251 124.53C481.315 124.312 481.405 124.082 481.513 123.852C481.763 123.398 482.133 122.976 482.626 122.592C483.125 122.208 483.764 122.017 484.551 122.017C485.196 122.017 485.727 122.087 486.149 122.24C486.571 122.394 486.974 122.662 487.358 123.046C487.466 123.161 487.575 123.283 487.69 123.411C487.799 123.545 487.908 123.692 488.016 123.858L486.718 124.6C486.61 124.434 486.495 124.293 486.386 124.165Z" fill="#707073"/>
<path d="M489.654 123.819V122.4H497.149V123.819H494.322V134.652H492.609V123.819" fill="#707073"/>
<path d="M509.074 125.368C508.434 124.671 507.737 124.178 506.976 123.903C506.702 123.807 506.433 123.731 506.177 123.679C505.915 123.622 505.659 123.59 505.41 123.577H505.18C503.83 123.577 502.686 124.057 501.733 125.029C500.787 126.001 500.281 127.113 500.224 128.367V128.507C500.211 128.539 500.205 128.565 500.205 128.59V128.654C500.205 129.895 500.627 131.007 501.477 131.992C502.321 132.977 503.587 133.489 505.263 133.527C505.295 133.527 505.314 133.533 505.327 133.54C505.339 133.546 505.352 133.546 505.371 133.546C505.397 133.546 505.416 133.552 505.429 133.559C505.442 133.565 505.455 133.572 505.474 133.572C506.695 133.572 507.667 133.246 508.383 132.587C509.099 131.935 509.598 131.218 509.873 130.432C509.982 130.138 510.059 129.856 510.11 129.575C510.155 129.294 510.18 129.025 510.18 128.776V128.469C510.084 127.107 509.72 126.071 509.074 125.368ZM498.696 128.341C498.887 126.346 499.623 124.811 500.889 123.731C502.155 122.663 503.664 122.125 505.41 122.125C506.951 122.125 508.262 122.611 509.342 123.59C510.423 124.568 511.152 125.642 511.523 126.813C511.606 127.068 511.664 127.337 511.708 127.599C511.753 127.855 511.772 128.111 511.772 128.36C511.772 130.304 511.165 131.884 509.95 133.098C508.741 134.32 507.098 134.927 505.02 134.927H504.79C503.191 134.927 501.912 134.467 500.946 133.552C499.987 132.638 499.322 131.621 498.964 130.509C498.855 130.189 498.779 129.869 498.728 129.55C498.683 129.223 498.657 128.916 498.657 128.629V128.578C498.657 128.558 498.664 128.539 498.676 128.526V128.482C498.676 128.456 498.683 128.43 498.689 128.411C498.696 128.392 498.696 128.373 498.696 128.36" fill="#707073"/>
<path d="M515.43 128.353C516.613 128.366 517.534 128.225 518.199 127.925C518.858 127.624 519.19 127.062 519.19 126.224V126C519.19 125.456 518.96 124.958 518.493 124.504C518.033 124.05 517.15 123.819 515.84 123.819H515.43V128.353ZM517.393 122.4C518.269 122.464 518.986 122.758 519.529 123.263C520.073 123.775 520.431 124.325 520.61 124.913C520.655 125.066 520.687 125.207 520.706 125.348C520.725 125.488 520.738 125.623 520.738 125.757C520.738 126.863 520.431 127.707 519.817 128.296C519.203 128.89 518.48 129.255 517.636 129.389L521.665 134.652H519.702L516.07 129.511H515.43V134.652H513.883V122.4" fill="#707073"/>
<path d="M530.298 122.4V123.819H525.259V127.074H530.176V128.468H525.259V133.13H530.298V134.652H523.59V122.4" fill="#707073"/>
<path d="M538.521 124.165C538.412 124.044 538.297 123.935 538.188 123.858C537.958 123.692 537.734 123.583 537.517 123.538C537.306 123.487 537.107 123.462 536.928 123.462C536.295 123.462 535.784 123.641 535.394 123.999C534.997 124.357 534.805 124.753 534.805 125.195C534.805 125.233 534.805 125.271 534.812 125.316C534.818 125.355 534.825 125.399 534.825 125.438C534.876 125.674 535.004 125.898 535.195 126.128C535.387 126.352 535.656 126.544 536.001 126.691C536.193 126.787 536.481 126.915 536.871 127.075C537.254 127.235 537.651 127.42 538.067 127.644C538.546 127.887 539 128.175 539.429 128.488C539.857 128.801 540.138 129.146 540.273 129.517C540.305 129.613 540.33 129.716 540.349 129.818C540.369 129.92 540.394 130.023 540.42 130.118C540.445 130.253 540.465 130.393 540.484 130.528C540.496 130.668 540.503 130.796 540.503 130.924C540.503 131.979 540.132 132.913 539.397 133.719C538.661 134.524 537.76 134.927 536.705 134.927H536.538C535.573 134.927 534.703 134.575 533.936 133.872C533.162 133.175 532.778 132.376 532.778 131.48L534.204 131.071C534.326 131.896 534.614 132.504 535.068 132.906C535.528 133.303 536.014 133.508 536.538 133.527H536.737C536.768 133.527 536.807 133.514 536.845 133.501C537.312 133.463 537.753 133.265 538.169 132.913C538.585 132.568 538.86 132.088 538.994 131.48C539.007 131.397 539.013 131.314 539.013 131.231V131.007C539.013 130.413 538.808 129.939 538.386 129.575C537.964 129.21 537.504 128.91 536.992 128.68C536.922 128.648 536.852 128.616 536.775 128.584C536.698 128.552 536.621 128.52 536.538 128.488C536.494 128.475 536.449 128.462 536.404 128.437C536.353 128.418 536.308 128.398 536.27 128.386C535.528 128.085 534.844 127.708 534.223 127.266C533.603 126.819 533.296 126.103 533.296 125.131C533.296 124.952 533.328 124.747 533.386 124.53C533.45 124.312 533.533 124.082 533.648 123.852C533.891 123.398 534.262 122.976 534.761 122.592C535.259 122.208 535.899 122.017 536.685 122.017C537.331 122.017 537.862 122.087 538.284 122.24C538.7 122.394 539.102 122.662 539.493 123.046C539.601 123.161 539.71 123.283 539.819 123.411C539.934 123.545 540.042 123.692 540.151 123.858L538.853 124.6C538.738 124.434 538.629 124.293 538.521 124.165Z" fill="#707073"/>
<path d="M221.813 131.084C220.201 131.084 218.903 129.786 218.903 128.181C218.903 126.576 220.201 125.271 221.813 125.271C223.411 125.271 224.722 126.576 224.722 128.181C224.722 129.786 223.411 131.084 221.813 131.084Z" fill="#EE3023"/>
<path d="M356.898 131.084C355.293 131.084 353.988 129.786 353.988 128.181C353.988 126.576 355.293 125.271 356.898 125.271C358.503 125.271 359.807 126.576 359.807 128.181C359.807 129.786 358.503 131.084 356.898 131.084Z" fill="#EE3023"/>
<path d="M424.545 209.448C424.545 209.448 432.794 208.956 446.689 204.288C464.434 198.335 505.915 191.563 518.826 226.515C527.145 249.05 510.251 271.968 509.777 279.897C509.208 289.022 510.359 293.185 510.359 293.185L497.449 296.778C497.449 296.778 494.424 287.82 496.272 278.087C498.677 265.4 510.34 248.346 509.132 236.83C507.942 225.307 503.504 206.667 479.352 200.707C467.196 197.715 453.928 211.015 444.266 214.193C434.635 217.378 427.755 219.756 427.755 219.756" fill="#EE3023"/>
<path d="M446.721 204.416C452.534 202.459 503.894 186.512 518.717 226.567C520.315 230.909 520.968 235.257 520.968 239.516C520.968 250.591 516.568 260.95 513.371 268.496C511.395 273.183 509.777 278.011 509.247 280.92C508.498 284.974 510.193 292.545 510.225 293.095C510.033 293.153 497.781 296.555 497.532 296.625C497.334 296.024 495.799 291.03 495.799 284.648C495.799 282.576 495.972 280.357 496.394 278.126C497.378 272.895 500 266.788 502.545 260.893C505.902 253.078 509.355 245.041 509.355 238.518C509.355 237.93 509.33 237.361 509.266 236.817C507.213 216.885 497.436 205.043 479.371 200.579C471.263 198.584 462.624 203.822 454.995 208.438C451.114 210.792 447.476 213.01 444.234 214.072C444.234 214.072 429.155 219.156 427.838 219.597C427.761 219.354 424.807 209.852 424.692 209.57C425.542 209.5 433.651 208.809 446.721 204.416ZM446.651 204.18C432.947 208.771 424.615 209.321 424.532 209.327H424.359L427.678 219.916L444.304 214.315C447.571 213.241 451.242 211.015 455.13 208.662C462.714 204.071 471.295 198.866 479.314 200.835C497.276 205.254 506.983 217.045 509.01 236.843C509.694 243.563 505.934 252.317 502.302 260.784C499.77 266.705 497.129 272.812 496.138 278.075C494.315 287.724 497.289 296.734 497.321 296.817L497.359 296.919L510.506 293.294V293.185C510.506 293.127 509.061 287.96 509.873 279.999C510.161 276.917 511.651 273.253 513.62 268.604C518.058 258.105 524.779 242.24 518.941 226.477C504.061 186.185 452.489 202.21 446.651 204.18Z" fill="#EE3023"/>
<path d="M429.398 224.911C429.398 224.911 447.904 216.579 462.01 208.65C478.291 199.486 524.012 189.197 536.929 224.15C545.261 246.678 533.13 267.908 530.924 276.93C529.031 284.648 531.116 288.338 531.116 288.338L518.199 291.919C518.199 291.919 516.159 288.229 518.02 278.503C520.431 265.823 528.475 257.075 528.475 236.427C528.475 224.847 519.887 204.992 495.447 200.311C480.945 197.523 469.351 207.69 461.595 214.194C450.731 223.338 431.387 234.451 431.387 234.451" fill="#EE3023"/>
<path d="M515.5 202.722C525.751 206.444 532.925 213.65 536.807 224.189C538.911 229.854 539.716 235.392 539.716 240.68C539.716 252.088 535.943 262.3 533.168 269.858C532.126 272.64 531.25 275.031 530.809 276.899C530.208 279.322 529.997 281.375 529.997 283.012C529.997 286.222 530.745 287.872 530.943 288.262C530.662 288.332 518.48 291.715 518.275 291.759C518.077 291.357 517.367 289.553 517.367 285.876C517.367 283.945 517.578 281.528 518.128 278.529C519.004 273.957 520.609 269.903 522.291 265.612C525.258 258.124 528.596 249.645 528.596 236.428C528.596 224.4 519.772 204.839 495.473 200.171C495.102 200.107 494.731 200.075 494.347 200.024C501.49 199.653 508.786 200.311 515.5 202.722ZM462.08 208.746C465.968 206.565 471.679 204.263 478.252 202.55C471.8 205.446 466.358 210.025 462.132 213.593L461.518 214.104C451.184 222.775 433.037 233.352 431.502 234.241C431.412 233.921 429.584 225.167 429.545 224.982C430.562 224.521 448.473 216.413 462.08 208.746ZM491.169 199.998C487.985 200.299 484.851 200.772 481.878 201.411C484.8 200.459 487.902 199.915 491.169 199.998ZM492.96 199.826C488.317 199.391 484.007 200.299 480.011 201.859C472.638 203.617 466.211 206.137 461.933 208.541C448 216.375 429.52 224.713 429.347 224.79L429.238 224.834L431.304 234.65L431.464 234.561C431.655 234.452 450.928 223.338 461.678 214.29L462.292 213.778C466.889 209.897 472.945 204.896 480.113 202.102C484.174 201.13 488.49 200.395 492.94 200.075C493.753 200.152 494.584 200.273 495.421 200.433C519.574 205.056 528.328 224.489 528.328 236.428C528.328 249.6 524.996 258.06 522.061 265.529C520.366 269.82 518.742 273.893 517.879 278.478C517.303 281.547 517.099 283.99 517.099 285.934C517.099 290.116 518.032 291.875 518.09 291.983L518.141 292.066L531.314 288.415L531.237 288.274C531.218 288.242 529.197 284.514 531.058 276.95C531.506 275.121 532.382 272.717 533.405 269.954C537.497 258.84 543.7 242.042 537.056 224.099C533.13 213.491 525.917 206.22 515.583 202.492C508.422 199.902 500.556 199.295 492.96 199.826Z" fill="#EE3023"/>
<path d="M467.72 253.788H446.382C446.439 254.396 446.516 254.99 446.599 255.579H469.293C468.718 255.048 468.168 254.46 467.72 253.788Z" fill="#00A84F"/>
<path d="M482.927 255.579H499.533C499.623 254.99 499.706 254.396 499.757 253.788H484.5C484.052 254.46 483.515 255.048 482.927 255.579Z" fill="#00A84F"/>
<path d="M450.462 265.829H495.671C496.055 265.254 496.419 264.653 496.758 264.02H449.388C449.72 264.653 450.091 265.254 450.462 265.829Z" fill="#00A84F"/>
<path d="M453.103 269.244H493.049C493.567 268.669 494.066 268.068 494.533 267.441H451.594C452.054 268.068 452.572 268.669 453.103 269.244Z" fill="#00A84F"/>
<path d="M476.103 258.245C474.53 258.245 473.04 257.848 471.703 257.203H446.867C447.008 257.817 447.168 258.411 447.334 258.999H498.797C498.97 258.411 499.142 257.817 499.27 257.203H480.515C479.185 257.848 477.695 258.245 476.103 258.245Z" fill="#00A84F"/>
<path d="M448.594 262.415H497.531C497.813 261.826 498.036 261.219 498.26 260.611H447.878C448.102 261.219 448.338 261.826 448.594 262.415Z" fill="#00A84F"/>
<path d="M456.824 272.658H489.315C490.063 272.096 490.786 271.488 491.464 270.849H454.663C455.335 271.488 456.076 272.096 456.824 272.658Z" fill="#00A84F"/>
<path d="M473.053 278.087C474.626 278.087 476.167 277.934 477.67 277.691H468.487C469.971 277.934 471.493 278.087 473.053 278.087Z" fill="#00A84F"/>
<path d="M462.771 276.073H483.355C484.595 275.568 485.778 274.948 486.904 274.264H459.222C460.36 274.948 461.543 275.568 462.771 276.073Z" fill="#00A84F"/>
<path d="M455.622 231.689H490.517C489.756 231.056 488.982 230.455 488.145 229.905H457.975C457.157 230.455 456.383 231.056 455.622 231.689Z" fill="#00A84F"/>
<path d="M452.239 235.11H493.9C493.375 234.49 492.825 233.889 492.275 233.307H453.876C453.301 233.889 452.757 234.49 452.239 235.11Z" fill="#00A84F"/>
<path d="M485.369 252.171H499.846C499.846 252.011 499.853 251.858 499.853 251.704C499.853 251.25 499.821 250.815 499.782 250.368H485.945C485.81 250.994 485.612 251.595 485.369 252.171Z" fill="#00A84F"/>
<path d="M466.275 250.368H446.343C446.318 250.815 446.267 251.25 446.267 251.704C446.267 251.858 446.292 252.011 446.292 252.171H466.851C466.588 251.595 466.409 250.994 466.275 250.368Z" fill="#00A84F"/>
<path d="M450.315 238.524H475.228C475.515 238.499 475.809 238.435 476.104 238.435C476.411 238.435 476.692 238.499 476.999 238.524H496.253C495.901 237.911 495.53 237.309 495.127 236.721H451.491C451.331 237.188 450.449 238.198 450.302 238.524" fill="#00A84F"/>
<path d="M460.731 228.287H485.395C483.975 227.558 482.518 226.944 480.97 226.478H465.156C463.622 226.944 462.145 227.558 460.731 228.287Z" fill="#00A84F"/>
<path d="M466.051 248.347C466.051 247.867 466.141 247.413 466.205 246.959H446.721C446.612 247.56 446.523 248.155 446.439 248.762H466.096C466.09 248.615 466.051 248.487 466.051 248.347Z" fill="#00A84F"/>
<path d="M486.162 248.347C486.162 248.487 486.117 248.615 486.117 248.762H499.686C499.61 248.155 499.52 247.56 499.405 246.959H486.034C486.092 247.413 486.162 247.867 486.162 248.347Z" fill="#00A84F"/>
<path d="M467.369 243.551H447.597C447.392 244.133 447.239 244.74 447.092 245.348H466.582C466.787 244.715 467.036 244.126 467.369 243.551Z" fill="#00A84F"/>
<path d="M485.651 245.348H499.041C498.894 244.74 498.74 244.133 498.542 243.551H484.864C485.184 244.126 485.453 244.715 485.651 245.348Z" fill="#00A84F"/>
<path d="M483.719 241.939H497.953C497.704 241.326 497.41 240.724 497.116 240.143H481.743C482.498 240.629 483.144 241.268 483.719 241.939Z" fill="#00A84F"/>
<path d="M470.489 240.143H449.637C449.343 240.724 448.921 241.326 448.678 241.939H468.494C469.089 241.268 469.741 240.629 470.489 240.143Z" fill="#00A84F"/>
<path d="M474.114 232.872C474.114 232.872 487.287 225.825 480.944 220.154C476.653 216.349 466.85 229.125 464.97 234.714C461.051 246.358 451.542 256.263 451.542 256.263C451.542 256.263 461.652 270.127 468.475 269.366C475.291 268.592 476.934 261.43 476.934 261.43H483.757C483.757 261.43 475.809 274.775 462.425 276.528C453.543 277.691 443.504 265.011 443.504 265.011C443.504 265.011 437.026 269.404 433.394 270.977C429.756 272.544 423.668 272.409 423.342 269.762C422.127 259.454 441.458 257.888 441.458 257.888C441.458 257.888 448.677 238.378 457.968 227.686C468.059 216.067 481.756 210.613 486.974 216.579C492.211 222.539 488.221 229.566 483.757 232.872C477.344 237.63 474.114 232.872 474.114 232.872Z" fill="#EE3023"/>
<path d="M424.615 270.926C424.078 270.593 423.822 270.21 423.695 269.756C423.253 268.004 424.065 266.066 425.319 264.544C429.654 259.326 441.369 258.316 441.503 258.316L441.759 258.277L441.849 258.022C441.932 257.836 449.145 238.467 458.276 227.961C465.252 219.955 474.314 214.577 480.862 214.558C483.368 214.558 485.318 215.332 486.661 216.854C488.477 218.913 489.27 221.24 488.983 223.76C488.58 227.533 485.875 230.787 483.49 232.54C481.354 234.132 479.372 234.797 477.581 234.503C476.142 234.26 475.222 233.46 474.774 233.006C476.52 231.99 482.569 228.217 483.074 224.099C483.093 223.913 483.093 223.734 483.093 223.555C483.093 222.2 482.467 220.953 481.226 219.846C480.356 219.066 479.25 218.849 477.958 219.181C472.836 220.511 466.013 230.231 464.556 234.586C460.719 245.994 451.332 255.886 451.229 255.975L450.986 256.231L451.185 256.525C451.619 257.101 461.518 270.568 468.526 269.768C474.716 269.078 476.82 263.278 477.261 261.846H482.972C481.2 264.506 473.712 274.615 462.369 276.099C453.838 277.224 443.933 264.877 443.837 264.755L443.588 264.435L443.243 264.659C443.185 264.704 436.784 269.046 433.229 270.581C430.492 271.77 426.655 272.173 424.615 270.926ZM480.862 213.721C474.09 213.727 464.747 219.239 457.63 227.411C448.972 237.38 442.028 255.183 441.132 257.491C439.316 257.664 428.9 258.898 424.66 264.02C423.452 265.446 422.863 267.07 422.863 268.828C422.863 269.167 422.876 269.481 422.908 269.807C422.998 270.549 423.458 271.169 424.238 271.623C426.291 272.774 430.562 272.659 433.561 271.367C436.797 269.967 442.066 266.482 443.422 265.586C445.027 267.537 454.126 278.049 462.477 276.949C475.919 275.178 484.052 261.775 484.129 261.641L484.5 261.008H476.584L476.52 261.334C476.5 261.404 474.851 268.221 468.411 268.937C462.426 269.602 453.519 258.162 452.105 256.302C453.57 254.709 461.825 245.456 465.361 234.854C466.8 230.589 473.501 221.221 478.182 220.013C479.199 219.731 479.998 219.898 480.65 220.473C481.853 221.547 482.371 222.705 482.211 223.99C481.686 228.287 473.994 232.463 473.911 232.508L473.501 232.719L473.757 233.115C473.802 233.192 475.023 234.931 477.408 235.334C479.448 235.673 481.654 234.95 484.02 233.217C486.54 231.35 489.411 227.897 489.839 223.843C490.14 221.1 489.289 218.555 487.32 216.304C485.824 214.597 483.598 213.701 480.862 213.721Z" fill="white"/>
<path d="M468.712 249.012C468.712 248.641 468.731 248.264 468.782 247.906C468.878 247.215 469.92 247.368 469.825 248.053C469.773 248.366 469.767 248.686 469.767 249.012C469.767 249.709 468.712 249.709 468.712 249.012ZM468.942 246.384C469.786 242.995 472.888 240.469 476.596 240.469C477.926 240.469 479.167 240.788 480.26 241.364C480.881 241.677 480.395 242.611 479.781 242.272C478.822 241.786 477.747 241.511 476.596 241.511C473.399 241.511 470.701 243.698 469.972 246.639C469.805 247.304 468.769 247.061 468.942 246.384Z" fill="#EE3023"/>
<path d="M484.25 247.982C484.25 248.494 484.186 248.999 484.09 249.479C483.956 250.163 482.907 249.965 483.06 249.28C483.118 248.858 483.182 248.43 483.182 247.982C483.182 247.292 484.25 247.292 484.25 247.982ZM483.757 250.7C482.626 253.654 479.716 255.764 476.333 255.764C475.604 255.764 474.901 255.681 474.236 255.496C473.565 255.304 473.846 254.306 474.517 254.492C475.093 254.645 475.7 254.722 476.333 254.722C479.262 254.722 481.794 252.9 482.753 250.329C483.009 249.683 484.007 250.054 483.757 250.7Z" fill="#EE3023"/>
<path d="M163.578 237.38C163.578 238.678 162.887 240.801 161.743 242.675C161.231 243.538 160.892 244.337 160.892 244.337L157.753 250.144L155.22 254.422C154.21 256.365 152.183 259.077 150.041 258.719C149.862 258.687 149.427 258.476 148.998 258.002C147.585 256.436 146.786 253.123 149.177 248.961C153.251 241.882 158.475 236.555 160.604 236.21C162.561 235.89 163.124 236.216 163.181 236.255C163.45 236.427 163.578 236.837 163.578 237.38ZM232.894 259.409C232.933 259.358 273.992 199.224 273.992 199.224L270.692 199.991L252.474 204.18L221.627 250.764C219.447 253.309 217.867 253.271 213.653 253.162L181.726 253.123C181.726 253.123 177.243 253.123 174.391 253.117C176.38 249.805 178.682 245.783 180.351 242.157C180.843 240.744 181.764 237.719 181.764 234.663C181.764 231.74 180.92 228.805 178.042 227.251C176.066 226.196 173.515 225.972 170.458 226.586C154.005 229.867 134.86 238.627 130.454 253.366C128.421 260.26 129.271 265.1 132.98 267.754C135.832 269.788 139.298 269.788 140.436 269.788C141.197 269.788 142.144 269.666 143.122 269.519C140.2 272.633 137.239 275.485 134.265 277.793C130.218 281.31 124.137 284.911 117.94 287.481C116.975 287.539 111.546 284.923 105.075 279.603C105.043 279.584 104.128 278.881 104.128 278.881L95.406 279.929C95.3996 279.929 91.1729 280.46 91.1729 280.46L93.8649 283.056C98.1109 287.193 122.199 298.282 130.915 296.395C140.155 294.387 156.998 277.135 157.158 276.962C159.607 274.34 163.066 269.877 167.421 263.764H224.23C229.742 263.764 231.206 261.743 232.894 259.409Z" fill="#00A84F"/>
<path d="M292.6 237.38C292.6 238.678 291.91 240.801 290.772 242.675C290.254 243.538 289.921 244.337 289.921 244.337L286.775 250.144L284.236 254.422C283.226 256.365 281.205 259.077 279.063 258.719C278.884 258.687 278.456 258.476 278.027 258.002C276.614 256.436 275.808 253.123 278.2 248.961C282.273 241.882 287.498 236.555 289.627 236.21C291.59 235.89 292.153 236.216 292.204 236.255C292.472 236.427 292.6 236.837 292.6 237.38ZM361.917 259.409C361.955 259.358 403.014 199.224 403.014 199.224L399.715 199.991L381.497 204.18L350.656 250.764C348.469 253.309 346.89 253.271 342.682 253.162L310.748 253.123C310.748 253.123 306.265 253.123 303.42 253.117C305.402 249.805 307.704 245.783 309.367 242.157C309.872 240.744 310.786 237.719 310.786 234.663C310.786 231.74 309.949 228.805 307.065 227.251C305.095 226.196 302.537 225.972 299.481 226.586C283.028 229.867 263.883 238.627 259.47 253.366C257.443 260.26 258.294 265.1 262.003 267.754C264.855 269.788 268.32 269.788 269.459 269.788C270.22 269.788 271.166 269.666 272.144 269.519C269.222 272.633 266.268 275.485 263.288 277.793C259.24 281.31 253.159 284.911 246.963 287.481C245.997 287.539 240.568 284.923 234.097 279.603C234.065 279.584 233.157 278.881 233.157 278.881L224.428 279.929C224.422 279.929 220.195 280.46 220.195 280.46L222.887 283.056C227.14 287.193 251.228 298.282 259.937 296.395C269.177 294.387 286.02 277.135 286.18 276.962C288.629 274.34 292.089 269.877 296.443 263.764H353.259C358.771 263.764 360.229 261.743 361.917 259.409Z" fill="#00A84F"/>
<path d="M94.6454 317.817C95.8923 318.648 96.6468 319.057 96.909 319.057C97.0113 319.057 97.2863 318.769 97.7275 318.194C98.1431 317.682 98.4181 317.305 98.546 317.068L96.244 315.726C95.2592 316.57 94.7732 316.992 94.7988 316.992C94.4855 316.992 93.8013 316.57 92.7334 315.726C91.8254 316.819 91.2882 317.484 91.1348 317.721C92.0939 318.398 92.8485 318.821 93.3984 319C94.0443 318.347 94.4663 317.957 94.6454 317.817Z" fill="#707073"/>
<path d="M95.7004 325.503C96.0905 325.126 96.4294 324.87 96.7108 324.736C97.3119 324.141 97.7275 323.661 97.9641 323.284L98.4309 325.887L95.7004 325.503ZM109.666 327.159C109.487 327.159 108.995 326.795 108.189 326.059C107.377 325.324 106.974 324.883 106.974 324.742C106.974 324.659 106.987 324.614 107.019 324.614V324.646C107.69 324.294 108.681 324.122 109.979 324.122C110.887 324.122 111.616 324.237 112.166 324.474C112.243 324.512 112.882 324.889 114.078 325.593C113.842 324.448 113.4 323.463 112.748 322.638C111.968 321.692 111.098 321.219 110.139 321.219C109.302 321.219 108.259 321.737 107.019 322.779C105.765 323.821 105.011 324.774 104.755 325.65C104.678 326.322 104.64 326.827 104.64 327.159H102.057C101.353 327.159 100.925 326.935 100.771 326.475C100.509 325.65 100.221 324.256 99.908 322.299C99.5755 320.023 99.3261 318.539 99.1727 317.842L99.0128 317.759L97.3758 320.803C97.427 321.078 97.5165 321.379 97.6508 321.692C96.6596 322.299 95.6749 322.913 94.6837 323.521C93.9803 324 93.4688 324.557 93.1426 325.209C92.8165 325.861 92.4584 327.051 92.0684 328.783L96.9857 329.73C97.2159 329.794 97.5293 329.468 97.9257 328.758C98.3414 327.927 98.6099 327.466 98.7442 327.364C98.9233 327.997 99.1087 328.63 99.2878 329.257C99.6011 330.005 100.042 330.382 100.611 330.382H113.842L115.639 327.159" fill="#707073"/>
<path d="M131.132 319.678C131.663 319.006 131.944 318.584 131.97 318.405C130.928 317.893 130.122 317.439 129.553 317.043C128.51 318.072 127.82 318.853 127.481 319.383C128.677 319.933 129.559 320.381 130.135 320.713C130.269 320.694 130.595 320.349 131.132 319.678Z" fill="#707073"/>
<path d="M136.958 318.75L139.356 320.035C140.2 319.389 140.782 318.705 141.102 317.963L138.723 316.633C138.461 316.857 138.199 317.087 137.943 317.311C137.521 317.688 137.291 317.88 137.24 317.88C136.901 317.88 136.21 317.465 135.174 316.633L133.377 318.558C134.554 319.485 135.328 319.946 135.686 319.946C135.814 319.946 136.236 319.549 136.958 318.75Z" fill="#707073"/>
<path d="M145.469 325.151C145.961 324.793 146.377 324.614 146.716 324.614L146.876 324.646C147.183 325.241 147.368 325.714 147.419 326.066L145.469 325.151ZM121.547 327.159C120.767 327.159 120.223 326.865 119.91 326.264C119.91 326.226 119.91 326.181 119.91 326.143C119.884 325.996 119.993 325.791 120.243 325.522C120.485 325.254 120.677 325.119 120.805 325.119C121.067 325.119 121.33 325.369 121.585 325.861C121.611 325.906 121.784 326.283 122.097 327.006C121.911 327.108 121.726 327.159 121.547 327.159ZM149.254 323.156C149.197 322.817 149.133 322.485 149.056 322.146C148.954 321.833 148.717 321.673 148.359 321.673C147.63 321.673 146.754 322.063 145.744 322.856C144.727 323.636 144.075 324.41 143.793 325.164C143.295 326.379 143.001 327.044 142.898 327.159H140.424C140.296 327.159 140.149 327.006 139.982 326.686C139.81 326.366 139.733 326.143 139.733 326.002C139.733 325.721 139.778 325.305 139.867 324.736C139.963 324.173 140.008 323.751 140.008 323.47V322.101C139.586 322.543 139.189 322.99 138.819 323.444C138.269 324.116 137.994 324.602 137.994 324.902C137.994 326.149 137.917 326.904 137.763 327.159H133.185C132.194 327.159 131.695 326.756 131.695 325.938C131.695 325.663 131.74 325.235 131.829 324.646C131.925 324.064 131.97 323.63 131.97 323.355V322.012C131.606 322.415 131.241 322.811 130.877 323.208C130.461 323.681 130.186 324.128 130.058 324.544C129.93 324.819 129.866 325.26 129.866 325.848C129.866 326.45 129.821 326.884 129.745 327.159H124.29C123.798 323.745 122.922 322.037 121.675 322.037C120.869 322.037 120.076 322.869 119.303 324.525C118.567 326.008 118.209 327.21 118.209 328.144C118.209 329.014 118.676 329.615 119.609 329.947C119.737 330.011 120.524 330.178 121.975 330.453C121.33 331.15 120.517 331.77 119.558 332.32C118.49 332.934 117.557 333.241 116.751 333.241C116.489 333.241 116.099 333.157 115.581 332.998C115.057 332.825 114.66 332.748 114.372 332.748C114.296 332.748 114.212 332.78 114.136 332.838V333.132C114.603 333.707 115.357 334.219 116.399 334.66C117.416 335.076 118.299 335.28 119.053 335.28C119.993 335.28 120.952 334.698 121.943 333.528C122.724 332.601 123.35 331.552 123.817 330.382H129.124L130.103 328.457C130.518 329.743 131.075 330.382 131.778 330.382H137.15C137.623 329.436 137.955 328.803 138.166 328.496C138.448 329.756 139.036 330.382 139.918 330.382H142.623C142.802 330.382 143.045 330.062 143.346 329.423C143.64 328.784 143.87 328.413 144.024 328.31C146.965 329.493 148.461 330.184 148.513 330.382C148.826 329.813 149.165 329.238 149.529 328.662C149.964 327.876 150.188 327.281 150.188 326.884C150.188 326.392 150.073 325.772 149.836 325.024C149.657 324.41 149.459 323.789 149.254 323.156Z" fill="#707073"/>
<path d="M174.084 323.335C172.678 322.529 171.52 322.126 170.612 322.126C169.883 322.126 169.154 322.549 168.425 323.393C168.061 323.802 167.556 324.556 166.903 325.65V325.886C167.556 325.375 168.253 325.119 169.007 325.119C169.372 325.119 169.934 325.324 170.689 325.72C171.207 326.021 171.738 326.328 172.288 326.647C171.795 326.993 170.989 327.159 169.864 327.159H165.823C164.704 327.159 163.834 326.737 163.207 325.886C162.664 324.998 162.114 324.102 161.57 323.214C161.41 323.412 161.116 323.904 160.669 324.691C160.227 325.477 160.01 325.938 160.01 326.053C160.01 326.091 160.266 326.481 160.777 327.223C161.289 327.958 161.545 328.495 161.545 328.834C161.545 329.525 160.79 330.414 159.287 331.507C157.785 332.601 156.647 333.151 155.866 333.151C155.368 333.151 154.799 332.946 154.134 332.55C153.475 332.147 153.168 331.948 153.219 331.948C153.142 331.948 153.104 331.968 153.104 332.012V332.396C153.603 332.991 154.485 333.637 155.758 334.334C157.03 335.024 158.009 335.369 158.686 335.369C159.697 335.369 160.624 334.73 161.455 333.445C162.024 332.358 162.587 331.277 163.131 330.203L163.29 330.03C163.732 330.267 164.083 330.382 164.339 330.382H169.749C170.088 330.382 170.791 330.081 171.859 329.474C172.921 328.873 173.784 328.566 174.43 328.566C174.692 328.566 176.124 328.662 178.72 328.847L180.556 326.014C179.181 325.663 178.151 325.356 177.473 325.1C177.007 324.946 175.875 324.358 174.084 323.335Z" fill="#707073"/>
<path d="M171.213 332.844C170.625 333.464 170.337 333.848 170.337 333.982C170.337 334.097 170.733 334.417 171.526 334.922C172.319 335.434 172.792 335.69 172.946 335.69C173.106 335.69 173.47 335.344 174.046 334.647C174.615 333.944 174.928 333.503 174.979 333.304L172.402 331.744C172.198 331.859 171.801 332.23 171.213 332.844Z" fill="#707073"/>
<path d="M191.248 318.75L193.646 320.035C194.49 319.389 195.072 318.705 195.392 317.963L193.013 316.633C192.751 316.857 192.488 317.087 192.233 317.311C191.817 317.688 191.58 317.88 191.529 317.88C191.19 317.88 190.5 317.465 189.457 316.633L187.667 318.558C188.85 319.485 189.617 319.946 189.975 319.946C190.103 319.946 190.532 319.549 191.248 318.75Z" fill="#707073"/>
<path d="M199.758 325.151C200.257 324.793 200.673 324.614 201.012 324.614L201.165 324.646C201.478 325.241 201.657 325.714 201.709 326.066L199.758 325.151ZM203.544 323.156C203.493 322.817 203.429 322.485 203.346 322.146C203.243 321.833 203.013 321.673 202.649 321.673C201.92 321.673 201.044 322.063 200.033 322.856C199.017 323.636 198.371 324.41 198.083 325.164C197.591 326.379 197.29 327.044 197.188 327.159H194.719C194.592 327.159 194.444 327.006 194.272 326.686C194.106 326.366 194.022 326.143 194.022 326.002C194.022 325.72 194.067 325.305 194.157 324.736C194.253 324.173 194.297 323.751 194.297 323.47V322.101C193.875 322.542 193.485 322.99 193.114 323.444C192.558 324.115 192.283 324.601 192.283 324.902C192.283 326.149 192.206 326.903 192.053 327.159H186.982C186.464 327.159 186.176 327.006 186.125 326.686C185.895 325.637 185.697 323.911 185.543 321.494C185.415 319.69 185.3 317.894 185.192 316.09C185.013 316.269 184.674 316.711 184.181 317.42C183.638 318.194 183.369 318.648 183.369 318.782L184.271 330.382H191.445C191.906 329.436 192.251 328.803 192.456 328.496C192.743 329.755 193.325 330.382 194.208 330.382H196.913C197.092 330.382 197.335 330.062 197.635 329.423C197.936 328.783 198.16 328.413 198.313 328.31C201.255 329.493 202.751 330.184 202.802 330.382C203.115 329.813 203.454 329.237 203.819 328.662C204.26 327.875 204.477 327.281 204.477 326.884C204.477 326.392 204.362 325.772 204.132 325.023C203.947 324.41 203.755 323.789 203.544 323.156Z" fill="#707073"/>
<path d="M230.931 319.824C232.325 320.751 233.118 321.218 233.323 321.218C233.432 321.218 233.726 320.905 234.218 320.285C234.704 319.664 234.985 319.261 235.069 319.082L232.671 317.631C232.383 317.893 232.114 318.136 231.859 318.379C231.417 318.788 231.187 318.999 231.162 318.999C231.034 318.999 230.688 318.814 230.119 318.449C229.55 318.085 229.166 317.81 228.962 317.631C228.648 317.97 228.342 318.315 228.028 318.667C227.645 319.082 227.363 319.453 227.178 319.767C227.958 320.38 228.764 320.841 229.614 321.161" fill="#707073"/>
<path d="M245.351 323.795C244.27 322.868 243.215 321.947 242.186 321.02C244.731 320.17 246.649 319.537 247.941 319.115C248.248 317.932 248.504 316.851 248.708 315.866L240.171 318.616C240.018 319.268 239.871 319.908 239.743 320.534C239.538 321.346 239.436 321.986 239.436 322.459C239.436 322.638 239.756 323.092 240.402 323.834C241.048 324.576 241.457 324.94 241.636 324.94C241.872 324.94 242.026 324.825 242.103 324.588L245.153 327.159H238.739C237.991 327.159 237.614 326.718 237.614 325.842C237.614 325.605 237.646 325.266 237.71 324.812C237.78 324.365 237.812 324.026 237.812 323.789V322.171C236.961 323.143 236.341 323.955 235.951 324.608C235.798 326.129 235.683 326.986 235.606 327.159H227.645C227.127 327.159 226.653 326.942 226.212 326.5C225.777 326.059 225.56 325.567 225.56 325.03C225.56 324.608 225.816 323.763 226.327 322.504V322.171H225.944C225.56 322.171 225.157 322.887 224.748 324.326C224.358 325.605 224.166 326.571 224.166 327.223C224.166 328.131 224.441 328.879 224.997 329.48C225.554 330.081 226.251 330.382 227.107 330.382H234.986L235.996 328.431C236.073 328.905 236.29 329.346 236.648 329.761C237.013 330.177 237.396 330.382 237.812 330.382H246.815C247.384 328.355 247.672 327.191 247.672 326.897C247.672 326.308 246.892 325.273 245.351 323.795Z" fill="#707073"/>
<path d="M254.131 322.35C253.587 323.674 253.229 324.678 253.05 325.362C254.591 327.076 255.359 328.131 255.359 328.527C255.359 329.256 254.719 330.209 253.434 331.386C252.155 332.569 251.151 333.163 250.435 333.163C249.891 333.163 249.041 332.863 247.858 332.274H247.545C247.5 332.396 247.468 332.505 247.468 332.601C247.468 333.035 248.242 333.592 249.789 334.269C251.253 334.883 252.251 335.19 252.794 335.19C253.894 335.19 254.873 334.25 255.723 332.383C256.471 330.784 256.842 329.295 256.842 327.913C256.842 326.75 256.593 325.714 256.107 324.806C255.717 324.096 255.058 323.277 254.131 322.35Z" fill="#707073"/>
<path d="M267.303 325.151C267.796 324.793 268.205 324.614 268.537 324.614L268.697 324.646C269.004 325.241 269.183 325.714 269.234 326.066L267.303 325.151ZM271.978 326.884C271.978 326.392 271.869 325.772 271.632 325.023C271.453 324.41 271.261 323.789 271.057 323.156C270.999 322.817 270.935 322.485 270.859 322.146C270.756 321.833 270.526 321.673 270.168 321.673C269.439 321.673 268.582 322.063 267.572 322.856C266.568 323.636 265.922 324.41 265.641 325.164C265.155 326.379 264.854 327.044 264.752 327.159H262.431C261.919 327.159 261.631 327.006 261.586 326.686C261.35 325.637 261.158 323.911 261.005 321.494C260.877 319.69 260.762 317.894 260.659 316.09C260.48 316.269 260.148 316.711 259.655 317.42C259.118 318.194 258.85 318.648 258.85 318.782L259.745 330.382H264.483C264.662 330.382 264.899 330.062 265.199 329.423C265.494 328.783 265.717 328.413 265.871 328.31C268.787 329.493 270.264 330.184 270.321 330.382C270.628 329.813 270.961 329.237 271.325 328.662C271.76 327.875 271.978 327.281 271.978 326.884Z" fill="#707073"/>
<path d="M290.637 325.912C290.637 324.966 290.446 324 290.075 323.009C289.704 322.025 289.205 321.244 288.591 320.675L286.967 323.738C287.306 324.039 287.67 324.563 288.073 325.318C288.476 326.072 288.674 326.654 288.674 327.07C288.674 327.134 288.662 327.159 288.642 327.159H283.418C282.305 327.159 281.442 326.737 280.828 325.887C280.285 324.998 279.741 324.103 279.198 323.214C279.044 323.412 278.75 323.905 278.309 324.691C277.874 325.478 277.657 325.938 277.657 326.053C277.657 326.091 277.906 326.482 278.418 327.223C278.923 327.959 279.172 328.496 279.172 328.835C279.172 329.525 278.43 330.414 276.94 331.508C275.45 332.601 274.319 333.151 273.551 333.151C273.059 333.151 272.49 332.946 271.831 332.55C271.179 332.147 270.878 331.949 270.93 331.949C270.853 331.949 270.814 331.968 270.814 332.013V332.396C271.3 332.991 272.176 333.637 273.443 334.334C274.702 335.025 275.668 335.37 276.339 335.37C277.35 335.37 278.264 334.73 279.089 333.445C279.652 332.358 280.208 331.277 280.752 330.203L280.905 330.03C281.34 330.267 281.692 330.382 281.947 330.382H289.825C290.362 330.382 290.637 328.892 290.637 325.912Z" fill="#707073"/>
<path d="M286.327 330.631C286.225 330.631 285.854 330.957 285.233 331.61C284.6 332.256 284.287 332.646 284.287 332.761C284.287 332.876 284.588 333.202 285.195 333.739C285.796 334.27 286.173 334.545 286.327 334.57C287.734 333.694 288.437 333.106 288.437 332.793C288.437 332.652 288.111 332.256 287.459 331.61C286.807 330.957 286.429 330.631 286.327 330.631Z" fill="#707073"/>
<path d="M297.262 327.159C296.488 327.159 295.945 326.865 295.638 326.264V326.142C295.612 325.995 295.721 325.791 295.964 325.522C296.207 325.254 296.399 325.119 296.526 325.119C296.782 325.119 297.044 325.369 297.3 325.861C297.326 325.906 297.492 326.283 297.805 327.006C297.62 327.108 297.441 327.159 297.262 327.159ZM312.423 324.256C311.848 325.017 311.56 325.573 311.56 325.938C311.56 326.053 311.586 326.226 311.624 326.456C311.662 326.686 311.681 326.865 311.681 326.98C311.681 327.044 311.656 327.102 311.605 327.159H309.686C309.61 327.121 309.571 327.082 309.571 327.044C309.571 326.686 309.706 326.072 309.974 325.196C310.249 324.32 310.383 323.751 310.383 323.495V323.284C309.712 323.527 309.015 324.397 308.299 325.906C308.171 326.462 308.1 326.884 308.1 327.159H305.249C305.792 325.445 306.067 324.32 306.067 323.783L306.022 323.035C305.741 323.156 305.338 323.54 304.827 324.198C304.309 324.857 304.053 325.33 304.053 325.605C304.053 326.162 303.925 326.68 303.669 327.159H299.979C299.487 323.744 298.624 322.037 297.39 322.037C296.59 322.037 295.804 322.868 295.03 324.525C294.308 326.008 293.949 327.21 293.949 328.144C293.949 329.014 294.41 329.615 295.337 329.947C295.465 330.011 296.245 330.177 297.684 330.452C297.044 331.149 296.245 331.77 295.292 332.319C294.231 332.933 293.304 333.24 292.504 333.24C292.249 333.24 291.865 333.157 291.347 332.997C290.835 332.825 290.432 332.748 290.151 332.748C290.074 332.748 289.998 332.78 289.921 332.837V333.132C290.381 333.707 291.129 334.219 292.159 334.66C293.169 335.076 294.045 335.28 294.794 335.28C295.721 335.28 296.674 334.698 297.658 333.528C298.426 332.601 299.046 331.552 299.513 330.382H303.01C303.164 330.382 303.343 330.26 303.548 330.017C303.752 329.774 303.893 329.621 303.97 329.563C304.13 329.858 304.206 330.133 304.206 330.382H307.755C307.966 330.165 308.113 330.005 308.222 329.909C308.35 330.088 308.439 330.241 308.497 330.382H312.628C312.864 329.73 313.088 329.084 313.293 328.457C313.523 327.741 313.638 327.063 313.638 326.411V322.856C313.299 323.131 312.89 323.604 312.423 324.256Z" fill="#707073"/>
<path d="M324.023 319.294C324.56 318.801 324.976 318.386 325.257 318.053L327.617 319.351C328.109 318.961 328.672 318.296 329.318 317.363L327.003 315.911C325.973 316.787 325.468 317.228 325.494 317.228C325.238 317.228 324.541 316.787 323.403 315.911L321.67 317.9C321.843 318.079 322.239 318.354 322.847 318.731C323.454 319.108 323.844 319.294 324.023 319.294Z" fill="#707073"/>
<path d="M331.095 321.448L329.548 324.351C329.784 324.786 330.002 325.221 330.207 325.649C330.462 326.142 330.622 326.615 330.673 327.069H322.162C321.779 327.069 321.363 326.852 320.915 326.417C320.461 325.982 320.237 325.56 320.237 325.151C320.237 324.601 320.442 323.712 320.858 322.484V322.222L320.736 322.164C320.142 322.375 319.617 323.162 319.157 324.498C318.792 325.643 318.613 326.647 318.613 327.51C318.613 328.188 318.869 328.828 319.381 329.454C319.905 330.068 320.468 330.381 321.088 330.381H330.904C332.061 328.233 332.643 326.462 332.643 325.055C332.643 324.569 332.464 323.923 332.099 323.143C331.792 322.433 331.453 321.87 331.095 321.448Z" fill="#707073"/>
<path d="M367.352 325.106C367.889 324.729 368.305 324.544 368.593 324.544C368.817 324.544 369.047 325.036 369.283 326.021L367.352 325.106ZM370.594 321.641H370.179C369.654 321.602 368.887 321.928 367.851 322.625C367.001 323.188 366.367 323.853 365.958 324.633C365.543 325.49 365.146 326.341 364.762 327.172H361.904C362.134 326.2 362.377 325.394 362.633 324.761C360.062 324.659 357.69 323.955 355.522 322.645C354.602 322.063 353.655 321.775 352.702 321.775C351.929 321.775 351.18 322.178 350.464 322.983C349.895 323.629 349.441 324.441 349.109 325.401C349.109 325.618 349.134 325.727 349.185 325.727C349.211 325.727 349.339 325.676 349.569 325.58C350.113 325.1 350.701 324.863 351.347 324.863C351.788 324.863 352.997 325.285 354.979 326.136V326.168C353.489 326.839 352.37 327.172 351.622 327.172H348.392V327.159H347.286C347.037 327.159 346.871 327.05 346.794 326.833C346.564 325.829 346.404 324.48 346.301 322.798C346.231 321.417 346.154 320.042 346.078 318.674C345.969 317.529 345.886 316.666 345.809 316.09C345.406 316.41 345.055 316.838 344.773 317.382C344.492 317.925 344.358 318.45 344.358 318.961C344.358 320.445 344.319 321.474 344.242 322.069C344.115 323.252 343.782 324.23 343.27 324.998C343.143 325.196 343.047 325.356 342.996 325.471C342.944 325.592 342.906 325.97 342.88 326.596C342.855 327.089 342.708 327.466 342.458 327.722C342.458 325.887 342.426 324.595 342.375 323.84C342.299 322.446 341.531 320.886 340.086 319.166C338.711 317.548 337.375 316.461 336.077 315.911C335.667 317.414 335.456 318.808 335.456 320.087C335.456 320.381 335.482 320.573 335.533 320.649C335.687 320.886 336.16 321.263 336.965 321.775C337.503 322.114 338.053 322.459 338.615 322.817C338.775 322.325 338.903 322.024 339.005 321.928C339.977 323.028 340.598 323.911 340.853 324.563C341.288 325.701 341.506 326.373 341.506 326.571C341.506 327.204 340.387 328.131 338.155 329.352C336.633 330.12 335.143 330.887 333.679 331.661V331.923H334.644C339.37 331.961 342.33 330.676 343.507 328.048C343.999 326.648 344.345 325.592 344.549 324.883C344.78 325.592 344.92 326.5 344.971 327.6C345.023 328.528 345.08 329.455 345.131 330.382H346.986V330.395H352.005C352.37 330.395 353.08 330.024 354.154 329.288C355.222 328.547 355.976 328.157 356.418 328.118C356.597 328.099 357.211 328.086 358.266 328.086C359.014 328.086 359.455 328.137 359.583 328.24C359.666 328.95 359.762 329.666 359.89 330.395H364.532C364.711 330.395 364.948 330.069 365.242 329.404C365.543 328.745 365.754 328.368 365.881 328.265L370.37 330.101C370.671 329.787 371.01 329.269 371.368 328.559C371.809 327.773 372.027 327.191 372.027 326.82C372.027 326.481 371.828 325.554 371.426 324.039C371.029 322.517 370.748 321.717 370.594 321.641Z" fill="#707073"/>
<path d="M396.197 319.824C397.591 320.751 398.39 321.218 398.595 321.218C398.697 321.218 398.991 320.905 399.484 320.285C399.97 319.664 400.257 319.261 400.334 319.082L397.936 317.631C397.655 317.893 397.386 318.136 397.124 318.379C396.689 318.788 396.453 318.999 396.427 318.999C396.306 318.999 395.954 318.814 395.385 318.449C394.816 318.085 394.432 317.81 394.227 317.631C393.914 317.97 393.607 318.315 393.3 318.667C392.91 319.082 392.629 319.453 392.443 319.767C393.223 320.38 394.036 320.841 394.88 321.161" fill="#707073"/>
<path d="M410.623 323.795C409.536 322.868 408.487 321.947 407.451 321.02C410.003 320.17 411.921 319.537 413.206 319.115C413.513 317.932 413.776 316.851 413.98 315.866L405.437 318.616C405.284 319.268 405.143 319.908 405.015 320.534C404.804 321.346 404.702 321.986 404.702 322.459C404.702 322.638 405.028 323.092 405.667 323.834C406.313 324.576 406.729 324.94 406.908 324.94C407.138 324.94 407.292 324.825 407.368 324.588L410.425 327.159H404.011C403.257 327.159 402.886 326.718 402.886 325.842C402.886 325.605 402.918 325.266 402.982 324.812C403.046 324.365 403.078 324.026 403.078 323.789V322.171C402.227 323.143 401.607 323.955 401.223 324.608C401.07 326.129 400.955 326.986 400.878 327.159H392.91C392.399 327.159 391.919 326.942 391.478 326.5C391.043 326.059 390.826 325.567 390.826 325.03C390.826 324.608 391.075 323.763 391.599 322.504V322.171H391.209C390.826 322.171 390.423 322.887 390.014 324.326C389.623 325.605 389.432 326.571 389.432 327.223C389.432 328.131 389.707 328.879 390.263 329.48C390.819 330.081 391.523 330.382 392.373 330.382H400.258L401.268 328.431C401.338 328.905 401.556 329.346 401.92 329.761C402.285 330.177 402.662 330.382 403.078 330.382H412.087C412.65 328.355 412.938 327.191 412.938 326.897C412.938 326.308 412.164 325.273 410.623 323.795Z" fill="#707073"/>
<path d="M419.403 322.35C418.86 323.674 418.495 324.678 418.316 325.362C419.857 327.076 420.631 328.131 420.631 328.527C420.631 329.256 419.985 330.209 418.706 331.386C417.427 332.569 416.423 333.163 415.707 333.163C415.164 333.163 414.307 332.863 413.13 332.274H412.817C412.766 332.396 412.74 332.505 412.74 332.601C412.74 333.035 413.514 333.592 415.061 334.269C416.519 334.883 417.523 335.19 418.06 335.19C419.167 335.19 420.145 334.25 420.996 332.383C421.744 330.784 422.115 329.295 422.115 327.913C422.115 326.75 421.872 325.714 421.379 324.806C420.996 324.096 420.331 323.277 419.403 322.35Z" fill="#707073"/>
<path d="M432.583 325.151C433.069 324.793 433.478 324.614 433.817 324.614L433.964 324.646C434.278 325.241 434.457 325.714 434.508 326.066L432.583 325.151ZM435.595 330.382C435.902 329.813 436.234 329.237 436.599 328.662C437.04 327.875 437.251 327.281 437.251 326.884C437.251 326.392 437.142 325.772 436.906 325.023C436.733 324.41 436.535 323.789 436.33 323.156C436.273 322.817 436.209 322.485 436.138 322.146C436.03 321.833 435.799 321.673 435.441 321.673C434.719 321.673 433.849 322.063 432.852 322.856C431.841 323.636 431.202 324.41 430.914 325.164C430.422 326.379 430.134 327.044 430.025 327.159H427.704C427.192 327.159 426.905 327.006 426.854 326.686C426.63 325.637 426.431 323.911 426.278 321.494C426.157 319.69 426.035 317.894 425.933 316.09C425.754 316.269 425.421 316.711 424.935 317.42C424.392 318.194 424.123 318.648 424.123 318.782L425.012 330.382H429.757C429.936 330.382 430.179 330.062 430.473 329.423C430.767 328.783 430.991 328.413 431.144 328.31C434.06 329.493 435.537 330.184 435.595 330.382Z" fill="#707073"/>
<path d="M451.637 331.476C451.503 331.476 451.132 331.795 450.499 332.441C449.866 333.074 449.553 333.471 449.553 333.605C449.553 333.765 449.847 334.097 450.461 334.609C451.062 335.127 451.452 335.389 451.637 335.408C453.051 334.583 453.76 333.982 453.76 333.605C453.76 333.547 453.421 333.177 452.756 332.499C452.085 331.814 451.714 331.476 451.637 331.476Z" fill="#707073"/>
<path d="M460.244 323.821C461.024 324.972 461.574 326.091 461.913 327.159H456.229V327.14C454.687 327.14 453.914 326.724 453.914 325.899C453.914 325.548 453.952 325.023 454.048 324.339C454.138 323.649 454.182 323.143 454.182 322.804C454.182 322.549 454.15 322.325 454.106 322.127C453.767 322.517 453.415 322.913 453.057 323.31C452.673 323.802 452.405 324.23 452.245 324.608C452.117 324.902 452.059 325.343 452.072 325.925C452.091 326.501 452.053 326.929 451.976 327.204H447.379C446.809 327.204 446.298 326.942 445.831 326.405C445.601 326.149 445.262 325.599 444.827 324.768C444.443 324.058 444.117 323.604 443.862 323.406L442.314 326.181C442.621 326.616 442.934 327.05 443.241 327.485C443.702 328.138 443.932 328.592 443.932 328.847C443.932 329.276 443.363 330.011 442.218 331.047C441.067 332.083 440.261 332.671 439.801 332.806C438.925 333.042 438.394 333.164 438.215 333.164C437.646 333.164 437.045 332.965 436.412 332.569C435.785 332.179 435.51 331.981 435.587 331.981H435.434V332.454C435.773 332.946 436.642 333.547 438.062 334.27C439.475 334.992 440.485 335.351 441.074 335.351C441.93 335.351 442.826 334.692 443.778 333.368C444.584 332.288 445.16 331.188 445.524 330.088L445.563 330.03C445.997 330.267 446.317 330.382 446.528 330.382H451.324L452.322 328.547C452.43 328.962 452.622 329.352 452.91 329.73C453.242 330.165 453.588 330.382 453.946 330.382H463.275C463.691 328.112 463.896 326.571 463.896 325.759C463.896 324.339 463.205 322.715 461.798 320.899" fill="#707073"/>
<path d="M459.823 333.055C459.491 333.458 459.26 333.662 459.126 333.662C458.922 333.662 458.276 333.247 457.195 332.422C456.658 333.08 456.178 333.752 455.763 334.436C456.178 334.852 456.856 335.331 457.815 335.875C458.359 335.261 458.755 334.82 459.011 334.551L461.057 335.875C461.55 335.459 462.055 334.775 462.586 333.829L460.488 332.358C460.38 332.415 460.162 332.652 459.823 333.055Z" fill="#707073"/>
<path d="M479.807 327.479H478.419C478.266 327.479 478.093 327.389 477.914 327.198C477.735 327.012 477.639 326.833 477.639 326.654C477.639 326.494 477.722 326.29 477.876 326.034C478.029 325.784 478.17 325.65 478.298 325.65C478.918 325.906 479.423 326.513 479.807 327.479ZM475.586 326.673C475.215 326.999 474.928 327.159 474.729 327.159C474.493 327.159 474.192 327.057 473.802 326.852C473.348 326.609 473.118 326.385 473.118 326.181C473.962 325.081 474.538 324.531 474.838 324.531C475.12 324.531 475.407 324.672 475.701 324.96C475.989 325.241 476.136 325.541 476.136 325.842C476.136 326.072 475.957 326.347 475.586 326.673ZM474.813 319.045C474.403 320.285 474.18 320.957 474.154 321.059C474.071 321.494 474.039 321.826 474.039 322.063C474.013 322.101 473.559 322.932 472.69 324.557C472.152 325.561 471.75 326.43 471.494 327.159H469.576C469.064 327.159 468.783 327.006 468.731 326.686C468.501 325.637 468.309 323.911 468.15 321.494C468.022 319.69 467.907 317.894 467.804 316.09C467.625 316.269 467.293 316.711 466.807 317.42C466.263 318.194 466.001 318.648 466.001 318.782L466.89 330.382H479.743C479.826 330.382 479.903 330.363 479.979 330.325C480.44 330.203 480.836 329.723 481.169 328.879C481.45 328.17 481.597 327.498 481.597 326.865C481.597 324.582 479.334 321.973 474.813 319.045Z" fill="#707073"/>
<path d="M491.681 319.294C492.225 318.801 492.64 318.386 492.922 318.053L495.281 319.351C495.774 318.961 496.343 318.296 496.982 317.363L494.661 315.911C493.632 316.787 493.133 317.228 493.158 317.228C492.896 317.228 492.206 316.787 491.067 315.911L489.328 317.9C489.507 318.079 489.904 318.354 490.505 318.731C491.112 319.108 491.509 319.294 491.681 319.294Z" fill="#707073"/>
<path d="M498.759 321.448L497.212 324.351C497.448 324.786 497.659 325.221 497.87 325.649C498.132 326.142 498.279 326.615 498.337 327.069H489.832C489.442 327.069 489.02 326.852 488.579 326.417C488.125 325.982 487.901 325.56 487.901 325.151C487.901 324.601 488.106 323.712 488.515 322.484V322.222L488.4 322.164C487.805 322.375 487.281 323.162 486.814 324.498C486.456 325.643 486.271 326.647 486.271 327.51C486.271 328.188 486.533 328.828 487.044 329.454C487.562 330.068 488.125 330.381 488.745 330.381H498.567C499.725 328.233 500.306 326.462 500.306 325.055C500.306 324.569 500.127 323.923 499.769 323.143C499.456 322.433 499.117 321.87 498.759 321.448Z" fill="#707073"/>
<path d="M535.023 325.106C535.566 324.729 535.975 324.544 536.263 324.544C536.487 324.544 536.724 325.036 536.954 326.021L535.023 325.106ZM539.102 324.039C538.706 322.517 538.425 321.717 538.265 321.641H537.843C537.331 321.602 536.557 321.928 535.521 322.625C534.677 323.188 534.044 323.853 533.629 324.633C533.213 325.49 532.817 326.341 532.433 327.172H529.568C529.798 326.2 530.048 325.394 530.304 324.761C527.727 324.659 525.354 323.955 523.193 322.645C522.266 322.063 521.326 321.775 520.373 321.775C519.599 321.775 518.851 322.178 518.128 322.983C517.559 323.629 517.112 324.441 516.773 325.401C516.773 325.618 516.798 325.727 516.849 325.727C516.881 325.727 517.009 325.676 517.24 325.58C517.783 325.1 518.371 324.863 519.017 324.863C519.458 324.863 520.667 325.285 522.649 326.136V326.168C521.153 326.839 520.034 327.172 519.286 327.172H516.057V327.159H514.957C514.707 327.159 514.535 327.05 514.464 326.833C514.234 325.829 514.074 324.48 513.972 322.798C513.895 321.417 513.818 320.042 513.742 318.674C513.639 317.529 513.55 316.666 513.473 316.09C513.07 316.41 512.719 316.838 512.444 317.382C512.162 317.925 512.022 318.45 512.022 318.961C512.022 320.445 511.983 321.474 511.907 322.069C511.779 323.252 511.452 324.23 510.935 324.998C510.807 325.196 510.711 325.356 510.666 325.471C510.615 325.592 510.57 325.97 510.551 326.596C510.525 327.089 510.378 327.466 510.116 327.722C510.116 325.887 510.09 324.595 510.046 323.84C509.963 322.446 509.195 320.886 507.75 319.166C506.375 317.548 505.039 316.461 503.741 315.911C503.325 317.414 503.127 318.808 503.127 320.087C503.127 320.381 503.146 320.573 503.197 320.649C503.351 320.886 503.83 321.263 504.623 321.775C505.167 322.114 505.717 322.459 506.279 322.817C506.439 322.325 506.567 322.024 506.669 321.928C507.648 323.028 508.262 323.911 508.517 324.563C508.959 325.701 509.176 326.373 509.176 326.571C509.176 327.204 508.051 328.131 505.825 329.352C504.303 330.12 502.807 330.887 501.343 331.661V331.923H502.308C507.034 331.961 509.988 330.676 511.178 328.048C511.664 326.648 512.009 325.592 512.213 324.883C512.444 325.592 512.591 326.5 512.642 327.6C512.687 328.528 512.738 329.455 512.795 330.382H514.65V330.395H519.676C520.034 330.395 520.75 330.024 521.818 329.288C522.892 328.547 523.647 328.157 524.082 328.118C524.261 328.099 524.881 328.086 525.936 328.086C526.684 328.086 527.125 328.137 527.253 328.24C527.33 328.95 527.432 329.666 527.56 330.395H532.196C532.382 330.395 532.618 330.069 532.912 329.404C533.207 328.745 533.418 328.368 533.552 328.265L538.041 330.101C538.341 329.787 538.68 329.269 539.045 328.559C539.48 327.773 539.697 327.191 539.697 326.82C539.697 326.481 539.499 325.554 539.102 324.039Z" fill="#707073"/>
<path d="M380.525 329.41C378.363 329.41 376.611 327.658 376.611 325.503C376.611 323.348 378.363 321.589 380.525 321.589C382.673 321.589 384.438 323.348 384.438 325.503C384.438 327.658 382.673 329.41 380.525 329.41Z" fill="#EE3023"/>
<path d="M213.909 329.41C211.748 329.41 210.002 327.658 210.002 325.503C210.002 323.348 211.748 321.589 213.909 321.589C216.064 321.589 217.822 323.348 217.822 325.503C217.822 327.658 216.064 329.41 213.909 329.41Z" fill="#EE3023"/>
</g>
<defs>
<clipPath id="clip0_219_174">
<rect width="631.107" height="335.749" fill="white" transform="translate(0 0.125732)"/>
</clipPath>
</defs>
</svg>
