<svg width="632" height="336" viewBox="0 0 632 336" fill="none" xmlns="http://www.w3.org/2000/svg">
<g clip-path="url(#clip0_176_850)">
<path d="M282.371 58.6421V125.697L246.039 143.622V76.5111L282.371 58.6421Z" fill="#55B5DB"/>
<path d="M376.267 81.8154V135.27L386.096 130.481V86.6598L376.267 81.8154Z" fill="#55B5DB"/>
<path d="M315.688 1.8208L289.044 19.6594V55.8395L307.617 64.9519V172.222L315.688 174.657V1.8208Z" fill="#266890"/>
<path d="M368.374 55.2077V77.8414L358.68 73.095V135.404L333.648 123.305V76.6395L349.801 68.7108V46.1074L368.374 55.2077Z" fill="#91C741"/>
<path d="M319.432 197.205L355.334 212.548H409.418L337.484 189.491L319.432 197.205Z" fill="#266890"/>
<path d="M257.651 165.716H245.739L294.534 186.566L311.098 181.635L257.651 165.716Z" fill="#55B5DB"/>
<path d="M374.165 165.716L321.632 181.359L315.908 183.07L298.487 188.252L296.833 188.749L222.54 212.541H276.489L313.415 196.763L315.908 195.696L333.33 188.252L338.238 186.155L386.078 165.716H374.165Z" fill="#91C741"/>
<path d="M280.483 253.762C272.517 253.762 266.052 259.036 266.052 268.375C266.052 277.715 272.511 282.982 280.483 282.982C288.455 282.982 294.921 277.371 294.921 268.375C294.921 259.036 288.455 253.762 280.483 253.762ZM280.532 277.162C276.605 277.162 273.418 273.833 273.418 268.308C273.418 262.783 276.605 259.446 280.532 259.446C284.46 259.446 287.653 262.856 287.653 268.308C287.653 273.888 284.46 277.162 280.532 277.162Z" fill="#266890"/>
<path d="M218.452 253.762C210.486 253.762 204.015 259.036 204.015 268.375C204.015 277.715 210.48 282.982 218.452 282.982C226.424 282.982 232.889 277.371 232.889 268.375C232.889 259.036 226.424 253.762 218.452 253.762ZM218.501 277.162C214.573 277.162 211.387 273.833 211.387 268.308C211.387 262.783 214.573 259.446 218.501 259.446C222.429 259.446 225.616 262.856 225.616 268.308C225.616 273.888 222.429 277.162 218.501 277.162Z" fill="#266890"/>
<path d="M195.369 253.824L185.534 265.058L175.73 253.824L170.999 253.873C170.999 253.873 171.06 274.348 171.06 282.253V282.927H177.611V266.138L185.577 274.723L193.543 266.138V282.927H200.094V282.253C200.094 274.348 200.155 253.873 200.155 253.873L195.369 253.824Z" fill="#266890"/>
<path d="M322.735 253.873H316.178L316.196 270.73L302.997 253.873H298.266L298.328 282.927H304.884V266.137L317.942 282.927H322.796L322.735 253.873Z" fill="#266890"/>
<path d="M256.083 256.24C253.55 254.677 250.632 253.853 247.657 253.86C245.575 253.847 243.494 253.954 241.425 254.179C239.954 254.327 238.514 254.695 237.074 254.97V281.86C239.164 282.167 241.229 282.528 243.306 282.749C246.628 283.099 249.936 283.062 253.153 281.995C257.112 280.683 259.894 278.132 261.267 274.158C262.349 270.92 262.47 267.438 261.616 264.132C261.273 262.514 260.608 260.98 259.661 259.625C258.713 258.269 257.502 257.117 256.101 256.24M254.11 272.184C253.643 273.701 252.68 275.016 251.374 275.919C250.069 276.821 248.498 277.257 246.915 277.157C246.076 277.157 244.887 277.01 244.054 276.893V259.557C245.914 259.415 247.785 259.622 249.569 260.17C250.707 260.55 251.73 261.212 252.543 262.095C253.357 262.977 253.933 264.052 254.22 265.217C254.884 267.493 254.839 269.916 254.091 272.165" fill="#266890"/>
<path d="M452.178 281.94C454.002 281.325 455.658 280.294 457.015 278.929C458.372 277.563 459.393 275.9 459.997 274.072C461.074 271.001 461.248 267.685 460.499 264.518C460.157 262.714 459.415 261.01 458.327 259.531C457.239 258.053 455.832 256.838 454.212 255.976C451.911 254.784 449.352 254.178 446.761 254.21C444.858 254.198 442.966 254.509 441.166 255.13C439.347 255.731 437.695 256.752 436.343 258.11C434.991 259.468 433.978 261.126 433.384 262.948C432.997 264.074 432.728 265.237 432.581 266.419C432.578 266.433 432.578 266.448 432.581 266.462C432.529 267.358 432.404 268.248 432.207 269.123C432.001 269.773 431.675 270.379 431.245 270.908C430.901 271.322 430.464 271.649 429.97 271.864C429.528 272.073 429.05 272.196 428.561 272.226H412.378C412.28 272.22 412.182 272.22 412.084 272.226H402.402V267.259C402.421 265.401 402.215 263.548 401.789 261.74C401.443 260.184 400.695 258.746 399.62 257.57C398.44 256.307 396.967 255.354 395.33 254.798C393.364 254.203 391.318 253.917 389.264 253.952H380.887V260.697H390.275C391.097 260.689 391.911 260.863 392.659 261.206C393.328 261.502 393.915 261.956 394.368 262.531C394.826 263.092 395.164 263.741 395.361 264.438C395.582 265.264 395.687 266.116 395.673 266.971V272.226H374.576V278.971H402.592V278.941H412.01C412.139 278.941 412.255 278.971 412.39 278.971H426.827C427.469 278.968 428.109 278.925 428.745 278.843C429.422 278.759 430.086 278.596 430.724 278.358C431.38 278.108 431.998 277.769 432.563 277.353C433.166 276.917 433.678 276.366 434.07 275.733C434.766 277.18 435.745 278.472 436.949 279.533C438.153 280.594 439.558 281.402 441.08 281.909C444.663 283.225 448.594 283.236 452.184 281.94M440.682 273.281C439.922 271.605 439.575 269.771 439.671 267.934C439.655 266.008 440.23 264.125 441.319 262.537C441.969 261.662 442.824 260.96 443.808 260.493C444.792 260.025 445.876 259.806 446.964 259.854C448.053 259.903 449.112 260.217 450.051 260.771C450.99 261.324 451.779 262.099 452.349 263.028C453.456 264.959 453.926 267.191 453.691 269.405C453.627 270.854 453.257 272.273 452.607 273.569C452.082 274.691 451.238 275.634 450.181 276.278C449.124 276.923 447.9 277.241 446.663 277.193C443.868 277.193 441.908 275.752 440.688 273.281" fill="#266890"/>
<path d="M357.345 247.299H350.702V253.952H357.345V247.299Z" fill="#266890"/>
<path d="M362.301 254.008V268.155C362.326 269.397 362.172 270.636 361.842 271.834C361.568 272.794 361.026 273.656 360.279 274.318C359.373 275.059 358.293 275.557 357.142 275.765C355.155 276.214 353.092 276.214 351.106 275.765C349.955 275.56 348.876 275.061 347.975 274.318C347.224 273.658 346.679 272.795 346.406 271.834C346.076 270.636 345.921 269.397 345.946 268.155V254.008H339.206V268.97C339.196 270.866 339.439 272.756 339.929 274.587C340.337 276.248 341.204 277.761 342.429 278.953C343.142 279.648 343.926 280.265 344.77 280.793C345.625 281.309 346.538 281.72 347.49 282.019C348.551 282.353 349.641 282.587 350.744 282.719C351.602 282.823 352.582 282.878 353.563 282.903H354.684C355.689 282.903 356.645 282.823 357.503 282.719C358.607 282.586 359.696 282.352 360.757 282.019C361.709 281.72 362.622 281.308 363.478 280.793C364.321 280.265 365.106 279.648 365.819 278.953C367.043 277.76 367.912 276.247 368.325 274.587C368.809 272.755 369.05 270.866 369.042 268.97V254.008H362.301Z" fill="#266890"/>
<path d="M173.952 302.826C174.129 302.832 174.304 302.785 174.454 302.691C174.604 302.597 174.722 302.461 174.794 302.299C174.866 302.137 174.888 301.958 174.858 301.783C174.827 301.609 174.745 301.447 174.622 301.32C174.499 301.192 174.341 301.105 174.168 301.068C173.994 301.031 173.814 301.047 173.65 301.113C173.486 301.179 173.345 301.293 173.246 301.44C173.147 301.586 173.094 301.76 173.094 301.937C173.091 302.052 173.111 302.166 173.152 302.274C173.194 302.381 173.256 302.479 173.336 302.562C173.416 302.645 173.512 302.711 173.617 302.756C173.723 302.801 173.837 302.825 173.952 302.826Z" fill="#266890"/>
<path d="M176.256 302.826C176.432 302.83 176.606 302.78 176.755 302.685C176.903 302.589 177.02 302.452 177.09 302.29C177.16 302.128 177.18 301.949 177.148 301.775C177.116 301.601 177.033 301.441 176.909 301.315C176.786 301.189 176.627 301.102 176.455 301.066C176.282 301.031 176.102 301.047 175.939 301.114C175.775 301.18 175.636 301.294 175.537 301.441C175.439 301.587 175.386 301.76 175.386 301.937C175.383 302.053 175.404 302.168 175.447 302.276C175.489 302.383 175.553 302.482 175.634 302.565C175.715 302.647 175.812 302.713 175.919 302.758C176.026 302.803 176.14 302.826 176.256 302.826Z" fill="#266890"/>
<path d="M181.734 313.238C181.737 313.122 181.717 313.006 181.674 312.898C181.632 312.79 181.568 312.692 181.487 312.609C181.406 312.526 181.309 312.459 181.202 312.415C181.095 312.37 180.979 312.348 180.863 312.349C180.626 312.349 180.399 312.443 180.231 312.611C180.063 312.779 179.969 313.007 179.969 313.244C179.969 313.482 180.063 313.709 180.231 313.877C180.399 314.045 180.626 314.139 180.863 314.139C180.98 314.139 181.096 314.116 181.204 314.07C181.311 314.024 181.409 313.958 181.49 313.873C181.571 313.789 181.634 313.69 181.676 313.581C181.718 313.471 181.738 313.355 181.734 313.238Z" fill="#266890"/>
<path d="M183.168 312.349C182.99 312.344 182.814 312.393 182.664 312.488C182.514 312.584 182.395 312.723 182.324 312.886C182.252 313.05 182.232 313.23 182.264 313.406C182.296 313.581 182.38 313.743 182.504 313.871C182.629 313.998 182.789 314.086 182.964 314.121C183.138 314.157 183.32 314.14 183.484 314.072C183.649 314.004 183.79 313.889 183.889 313.74C183.987 313.592 184.04 313.417 184.038 313.238C184.04 313.123 184.019 313.008 183.976 312.901C183.933 312.793 183.869 312.695 183.788 312.613C183.707 312.53 183.611 312.464 183.504 312.419C183.398 312.374 183.284 312.35 183.168 312.349Z" fill="#266890"/>
<path d="M188.217 302.648C188.335 302.649 188.453 302.626 188.563 302.581C188.672 302.536 188.772 302.469 188.856 302.386C188.939 302.302 189.006 302.202 189.051 302.092C189.096 301.983 189.118 301.865 189.118 301.746C189.119 301.628 189.096 301.511 189.051 301.402C189.005 301.293 188.939 301.194 188.855 301.111C188.771 301.028 188.671 300.963 188.562 300.92C188.452 300.876 188.335 300.854 188.217 300.857C187.98 300.857 187.752 300.951 187.584 301.119C187.417 301.287 187.322 301.515 187.322 301.752C187.322 301.99 187.417 302.218 187.584 302.386C187.752 302.553 187.98 302.648 188.217 302.648Z" fill="#266890"/>
<path d="M193.671 302.826C193.848 302.832 194.023 302.785 194.173 302.691C194.323 302.597 194.442 302.461 194.514 302.299C194.586 302.137 194.608 301.958 194.577 301.783C194.546 301.609 194.464 301.447 194.341 301.32C194.218 301.192 194.06 301.105 193.887 301.068C193.714 301.031 193.533 301.047 193.369 301.113C193.205 301.179 193.065 301.293 192.965 301.44C192.866 301.586 192.813 301.76 192.813 301.937C192.81 302.052 192.83 302.166 192.871 302.274C192.913 302.381 192.975 302.479 193.055 302.562C193.135 302.645 193.231 302.711 193.337 302.756C193.442 302.801 193.556 302.825 193.671 302.826Z" fill="#266890"/>
<path d="M195.975 302.826C196.152 302.83 196.325 302.78 196.474 302.685C196.622 302.589 196.739 302.452 196.809 302.29C196.879 302.128 196.899 301.949 196.867 301.775C196.835 301.601 196.752 301.441 196.628 301.315C196.505 301.189 196.347 301.102 196.174 301.066C196.001 301.031 195.821 301.047 195.658 301.114C195.494 301.18 195.355 301.294 195.256 301.441C195.158 301.587 195.105 301.76 195.105 301.937C195.103 302.052 195.125 302.167 195.168 302.275C195.211 302.382 195.274 302.48 195.355 302.563C195.436 302.645 195.532 302.711 195.639 302.756C195.745 302.801 195.86 302.825 195.975 302.826Z" fill="#266890"/>
<path d="M200.718 302.826C200.895 302.832 201.069 302.785 201.219 302.691C201.369 302.597 201.488 302.461 201.56 302.299C201.632 302.137 201.654 301.958 201.623 301.783C201.593 301.609 201.51 301.447 201.387 301.32C201.265 301.192 201.106 301.105 200.933 301.068C200.76 301.031 200.58 301.047 200.416 301.113C200.251 301.179 200.111 301.293 200.012 301.44C199.913 301.586 199.86 301.76 199.86 301.937C199.856 302.052 199.876 302.166 199.918 302.274C199.959 302.381 200.022 302.479 200.102 302.562C200.182 302.645 200.277 302.711 200.383 302.756C200.489 302.801 200.603 302.825 200.718 302.826Z" fill="#266890"/>
<path d="M203.022 302.826C203.199 302.83 203.372 302.78 203.521 302.685C203.669 302.589 203.786 302.452 203.856 302.29C203.926 302.128 203.946 301.949 203.914 301.775C203.882 301.601 203.799 301.441 203.675 301.315C203.552 301.189 203.394 301.102 203.221 301.066C203.048 301.031 202.868 301.047 202.705 301.114C202.541 301.18 202.402 301.294 202.303 301.441C202.205 301.587 202.152 301.76 202.152 301.937C202.15 302.052 202.172 302.167 202.215 302.275C202.257 302.382 202.321 302.48 202.402 302.563C202.483 302.645 202.579 302.711 202.686 302.756C202.792 302.801 202.907 302.825 203.022 302.826Z" fill="#266890"/>
<path d="M204.364 311.037H207.741V300.612H206.117V309.755H202.924V304.089H201.3V309.755H198.481C197.967 309.755 197.256 309.81 197.256 309.81C197.594 309.501 197.861 309.12 198.036 308.697C198.212 308.273 198.293 307.816 198.273 307.358C198.273 304.905 196.882 303.911 194.915 303.911C194.426 303.887 193.937 303.965 193.48 304.141C193.022 304.317 192.607 304.587 192.261 304.934C191.914 305.281 191.644 305.696 191.468 306.154C191.292 306.611 191.214 307.1 191.239 307.59C191.208 308.003 191.268 308.418 191.414 308.806C191.56 309.194 191.789 309.544 192.084 309.835C192.084 309.835 191.594 309.779 191.11 309.779H189.02V304.114H187.396V309.779H183.321V304.114H181.704V309.779H178.248V304.432C177.262 304.092 176.226 303.918 175.184 303.917C172.586 303.917 171.391 305.665 171.391 307.596C171.391 309.694 172.451 311.043 175.306 311.043H204.297L204.364 311.037ZM176.703 309.749H175.564C173.817 309.749 173.112 308.964 173.112 307.425C173.112 306.113 173.866 305.193 175.122 305.193C175.675 305.186 176.223 305.29 176.734 305.499L176.703 309.749ZM194.793 309.749C193.567 309.749 192.917 308.946 192.917 307.413C192.917 305.879 193.849 305.193 194.811 305.193C196.037 305.193 196.649 306.008 196.649 307.443C196.649 309.019 195.81 309.749 194.811 309.749" fill="#266890"/>
<path d="M212.036 300.606H210.406V311.031H212.036V300.606Z" fill="#266890"/>
<path d="M222.031 302.827C222.208 302.834 222.383 302.788 222.534 302.695C222.685 302.602 222.804 302.465 222.877 302.304C222.951 302.142 222.973 301.962 222.943 301.788C222.913 301.613 222.831 301.451 222.709 301.323C222.586 301.195 222.428 301.106 222.255 301.069C222.081 301.031 221.901 301.047 221.736 301.113C221.572 301.179 221.431 301.293 221.332 301.44C221.233 301.587 221.179 301.76 221.179 301.937C221.176 302.052 221.195 302.166 221.236 302.273C221.278 302.38 221.34 302.478 221.419 302.56C221.498 302.643 221.593 302.709 221.698 302.755C221.803 302.8 221.916 302.825 222.031 302.827Z" fill="#266890"/>
<path d="M224.334 302.826C224.511 302.83 224.685 302.78 224.833 302.685C224.981 302.589 225.098 302.452 225.168 302.29C225.238 302.128 225.259 301.949 225.227 301.775C225.194 301.601 225.111 301.441 224.988 301.315C224.864 301.189 224.706 301.102 224.533 301.066C224.36 301.031 224.181 301.047 224.017 301.114C223.854 301.18 223.714 301.294 223.615 301.441C223.517 301.587 223.464 301.76 223.464 301.937C223.463 302.052 223.484 302.167 223.527 302.275C223.57 302.382 223.634 302.48 223.714 302.563C223.795 302.645 223.892 302.711 223.998 302.756C224.105 302.801 224.219 302.825 224.334 302.826Z" fill="#266890"/>
<path d="M235.046 303.905C234.147 303.934 233.281 304.252 232.577 304.811C231.873 305.372 231.368 306.144 231.136 307.013C231.246 306.2 231.3 305.381 231.296 304.56V300.593H229.672V309.736H226.394V304.432C225.419 304.095 224.397 303.921 223.366 303.917C220.762 303.917 219.567 305.664 219.567 307.596C219.567 309.693 220.615 311.043 223.47 311.043H224.696V313.36C224.696 313.36 223.219 313.464 222.006 313.464C218.256 313.464 216.951 312.52 216.951 310.079C216.958 309.119 217.098 308.163 217.367 307.24L215.682 307.553C215.456 308.431 215.336 309.333 215.327 310.239C215.327 313.348 217.165 314.753 221.786 314.753C223.765 314.753 226.381 314.556 226.381 314.556V311.043H233.68C236.915 311.043 238.085 309.356 238.085 307.265C238.085 305.174 237.019 303.911 235.052 303.911M224.8 309.755H223.667C221.92 309.755 221.179 308.97 221.179 307.43C221.179 306.118 221.932 305.198 223.176 305.198C223.733 305.19 224.285 305.295 224.8 305.505V309.755ZM233.826 309.755H231.259C231.534 307.504 232.895 305.217 234.727 305.217C235.879 305.217 236.412 306.026 236.412 307.388C236.412 308.749 235.867 309.755 233.826 309.755Z" fill="#266890"/>
<path d="M245.91 302.648C246.029 302.649 246.146 302.626 246.256 302.581C246.366 302.536 246.465 302.47 246.549 302.386C246.633 302.302 246.699 302.202 246.744 302.092C246.789 301.983 246.812 301.865 246.811 301.747C246.811 301.569 246.758 301.394 246.659 301.246C246.56 301.098 246.42 300.982 246.255 300.914C246.091 300.846 245.909 300.828 245.734 300.863C245.56 300.897 245.399 300.983 245.274 301.109C245.148 301.235 245.062 301.396 245.027 301.571C244.992 301.745 245.01 301.927 245.078 302.092C245.146 302.256 245.262 302.397 245.41 302.496C245.558 302.595 245.732 302.648 245.91 302.648Z" fill="#266890"/>
<path d="M243.202 311.037H255.948V307.248C255.948 305.175 254.912 303.905 252.7 303.905C250.249 303.905 248.944 305.604 248.944 307.511C248.944 308.67 249.281 309.406 249.924 309.835C249.647 309.774 249.363 309.745 249.078 309.749H246.72V304.083H245.095V309.749H241.64V300.606H240.01V311.031H243.202V311.037ZM252.578 305.193C253.687 305.193 254.367 305.855 254.367 307.499V309.749H253.055C251.309 309.749 250.568 308.995 250.568 307.444C250.568 306.113 251.322 305.193 252.578 305.193Z" fill="#266890"/>
<path d="M264.558 304.432C263.583 304.095 262.561 303.921 261.53 303.917C258.932 303.917 257.731 305.664 257.731 307.596C257.731 309.693 258.785 311.043 261.653 311.043H262.976V311.337C262.976 312.889 261.849 313.496 260.268 313.496C259.483 313.48 258.701 313.39 257.933 313.226L257.829 314.556C258.582 314.685 259.344 314.755 260.109 314.765C263.344 314.765 264.551 313.079 264.551 311.22L264.558 304.432ZM262.983 309.761H261.843C260.096 309.761 259.361 308.976 259.361 307.437C259.361 306.125 260.115 305.205 261.371 305.205C261.923 305.199 262.471 305.303 262.983 305.511V309.761Z" fill="#266890"/>
<path d="M270.06 302.826C270.237 302.832 270.412 302.785 270.562 302.691C270.712 302.597 270.83 302.461 270.903 302.299C270.974 302.137 270.996 301.958 270.966 301.783C270.935 301.609 270.853 301.447 270.73 301.32C270.607 301.192 270.449 301.105 270.275 301.068C270.102 301.031 269.922 301.047 269.758 301.113C269.594 301.179 269.453 301.293 269.354 301.44C269.255 301.586 269.202 301.76 269.202 301.937C269.199 302.052 269.22 302.166 269.262 302.273C269.304 302.38 269.366 302.477 269.446 302.56C269.526 302.643 269.621 302.709 269.726 302.755C269.832 302.8 269.945 302.824 270.06 302.826Z" fill="#266890"/>
<path d="M272.364 302.826C272.541 302.83 272.714 302.78 272.863 302.685C273.011 302.589 273.128 302.452 273.198 302.29C273.268 302.128 273.288 301.949 273.256 301.775C273.224 301.601 273.141 301.441 273.017 301.315C272.894 301.189 272.736 301.102 272.563 301.066C272.39 301.031 272.211 301.047 272.047 301.114C271.883 301.18 271.744 301.294 271.645 301.441C271.547 301.587 271.494 301.76 271.494 301.937C271.492 302.052 271.513 302.167 271.557 302.275C271.6 302.382 271.663 302.48 271.744 302.563C271.825 302.645 271.921 302.711 272.028 302.756C272.134 302.801 272.248 302.825 272.364 302.826Z" fill="#266890"/>
<path d="M276.108 313.238C276.098 313.358 276.113 313.479 276.152 313.593C276.191 313.707 276.253 313.811 276.334 313.9C276.416 313.989 276.515 314.06 276.625 314.108C276.736 314.157 276.855 314.182 276.975 314.182C277.096 314.182 277.215 314.157 277.325 314.108C277.435 314.06 277.534 313.989 277.616 313.9C277.697 313.811 277.759 313.707 277.798 313.593C277.837 313.479 277.852 313.358 277.842 313.238C277.845 313.122 277.824 313.006 277.781 312.898C277.738 312.789 277.674 312.691 277.592 312.608C277.51 312.525 277.413 312.459 277.305 312.415C277.198 312.37 277.082 312.348 276.966 312.349C276.735 312.355 276.516 312.452 276.355 312.618C276.195 312.784 276.107 313.007 276.108 313.238Z" fill="#266890"/>
<path d="M279.27 312.349C279.092 312.344 278.917 312.393 278.766 312.488C278.616 312.584 278.497 312.723 278.426 312.886C278.355 313.05 278.334 313.23 278.366 313.406C278.398 313.581 278.482 313.743 278.607 313.871C278.731 313.998 278.891 314.086 279.066 314.121C279.241 314.157 279.422 314.14 279.587 314.072C279.752 314.004 279.892 313.889 279.991 313.74C280.089 313.592 280.142 313.417 280.141 313.238C280.142 313.123 280.121 313.008 280.078 312.901C280.035 312.793 279.971 312.695 279.89 312.613C279.81 312.53 279.713 312.464 279.607 312.419C279.5 312.374 279.386 312.35 279.27 312.349Z" fill="#266890"/>
<path d="M275.942 311.037H289.105V309.748H287.922C285.348 309.748 284.245 308.682 284.245 307.296C284.224 307.019 284.262 306.74 284.357 306.479C284.452 306.217 284.602 305.98 284.796 305.781C284.991 305.582 285.225 305.427 285.484 305.327C285.743 305.227 286.021 305.183 286.298 305.199C286.866 305.206 287.427 305.321 287.953 305.536L288.253 304.236C287.64 304.033 286.999 303.927 286.353 303.923C283.847 303.923 282.622 305.505 282.622 307.339C282.602 307.837 282.722 308.33 282.968 308.764C283.213 309.197 283.575 309.553 284.012 309.792H279.466V304.125H277.842V309.792H274.392V304.432C273.406 304.092 272.371 303.918 271.328 303.917C268.73 303.917 267.529 305.664 267.529 307.596C267.529 309.693 268.595 311.043 271.45 311.043H275.912L275.942 311.037ZM272.805 309.748H271.671C269.925 309.748 269.22 308.964 269.22 307.424C269.22 306.112 269.974 305.192 271.224 305.192C271.776 305.185 272.324 305.29 272.835 305.499L272.805 309.748Z" fill="#266890"/>
<path d="M296.967 302.648C297.086 302.649 297.203 302.626 297.313 302.581C297.423 302.536 297.522 302.47 297.606 302.386C297.69 302.302 297.756 302.202 297.801 302.092C297.846 301.983 297.869 301.865 297.868 301.747C297.868 301.569 297.815 301.394 297.716 301.246C297.617 301.098 297.477 300.982 297.312 300.914C297.148 300.846 296.966 300.828 296.791 300.863C296.617 300.897 296.456 300.983 296.33 301.109C296.204 301.235 296.119 301.396 296.084 301.571C296.049 301.745 296.067 301.927 296.135 302.092C296.203 302.256 296.319 302.397 296.467 302.496C296.615 302.595 296.789 302.648 296.967 302.648Z" fill="#266890"/>
<path d="M294.259 311.031H313.922V300.606H312.299V309.743H308.781C309.336 309.049 309.625 308.179 309.596 307.29C309.596 305.193 308.53 303.936 306.563 303.936C304.921 303.936 303.327 305.016 302.647 307.045C302.757 306.232 302.811 305.412 302.807 304.592V304.102H301.183V309.761H297.788V304.102H296.17V309.761H292.702V300.625H291.078V311.05H294.271L294.259 311.031ZM306.251 305.206C307.39 305.206 307.923 306.021 307.923 307.383C307.923 308.744 307.372 309.743 305.337 309.743H302.807C303.07 307.499 304.43 305.206 306.275 305.206" fill="#266890"/>
<path d="M318.211 300.606H316.587V311.031H318.211V300.606Z" fill="#266890"/>
<path d="M325.21 305.69C325.386 305.689 325.559 305.635 325.705 305.536C325.851 305.437 325.965 305.297 326.032 305.133C326.098 304.969 326.115 304.79 326.08 304.616C326.045 304.443 325.959 304.284 325.834 304.16C325.708 304.035 325.549 303.95 325.376 303.916C325.202 303.882 325.023 303.9 324.859 303.968C324.696 304.036 324.557 304.151 324.459 304.298C324.361 304.445 324.309 304.618 324.309 304.795C324.308 304.913 324.331 305.03 324.376 305.139C324.421 305.249 324.487 305.348 324.571 305.432C324.655 305.515 324.754 305.581 324.864 305.625C324.974 305.67 325.091 305.692 325.21 305.69Z" fill="#266890"/>
<path d="M329.187 304.083H327.563V310.252C327.563 312.453 326.656 313.164 325.296 313.164C324.193 313.164 323.01 312.551 323.01 310.129C323.011 309.148 323.149 308.172 323.421 307.228L321.735 307.541C321.509 308.435 321.391 309.354 321.386 310.276C321.386 313.281 322.98 314.446 325.149 314.446C327.839 314.446 329.187 312.999 329.187 310.154V304.083Z" fill="#266890"/>
<path d="M348 311.037H356.309V300.612H354.685V309.755H351.382V300.612H349.752V309.755H346.627V307.253C346.627 305.187 345.591 303.911 343.379 303.911C340.891 303.911 339.623 305.61 339.623 307.523C339.623 309.314 338.931 309.755 337.846 309.755H337.276C337.16 306.352 335.566 304.653 332.49 303.764L332.08 305.125C334.574 305.837 335.64 307.284 335.695 309.755H331.118V311.043H338.348V311.012C339.482 310.926 340.15 310.43 340.365 309.786C340.867 310.54 341.59 311.074 343.735 311.074H347.988L348 311.037ZM345.046 309.749H343.735C341.988 309.749 341.247 308.989 341.247 307.443C341.247 306.113 342.001 305.193 343.263 305.193C344.366 305.193 345.046 305.855 345.046 307.498V309.749Z" fill="#266890"/>
<path d="M364.221 302.826C364.397 302.83 364.57 302.78 364.719 302.685C364.868 302.589 364.984 302.452 365.055 302.29C365.125 302.128 365.145 301.949 365.113 301.775C365.08 301.601 364.998 301.441 364.874 301.315C364.75 301.189 364.592 301.102 364.419 301.066C364.247 301.031 364.067 301.047 363.903 301.114C363.74 301.18 363.6 301.294 363.502 301.441C363.403 301.587 363.351 301.76 363.35 301.937C363.348 302.053 363.369 302.168 363.411 302.276C363.454 302.383 363.518 302.482 363.599 302.565C363.68 302.647 363.776 302.713 363.883 302.758C363.99 302.803 364.105 302.826 364.221 302.826Z" fill="#266890"/>
<path d="M361.915 302.827C362.092 302.834 362.268 302.788 362.419 302.695C362.569 302.602 362.689 302.465 362.762 302.304C362.835 302.142 362.858 301.962 362.828 301.788C362.798 301.613 362.716 301.451 362.593 301.323C362.471 301.195 362.313 301.106 362.139 301.069C361.966 301.031 361.786 301.047 361.621 301.113C361.457 301.179 361.316 301.293 361.216 301.44C361.117 301.587 361.064 301.76 361.063 301.937C361.06 302.052 361.08 302.166 361.121 302.273C361.162 302.38 361.224 302.478 361.303 302.56C361.383 302.643 361.478 302.709 361.583 302.755C361.688 302.8 361.801 302.825 361.915 302.827Z" fill="#266890"/>
<path d="M370.47 309.748H366.248V304.432C365.274 304.096 364.251 303.922 363.221 303.917C360.617 303.917 359.422 305.664 359.422 307.596C359.422 309.693 360.488 311.043 363.337 311.043H372.094V304.089H370.47V309.748ZM364.667 309.748H363.527C361.787 309.748 361.076 308.964 361.076 307.424C361.076 306.112 361.83 305.192 363.086 305.192C363.638 305.185 364.186 305.29 364.698 305.499L364.667 309.748Z" fill="#266890"/>
<path d="M371.132 312.349C370.954 312.344 370.778 312.393 370.628 312.488C370.478 312.584 370.359 312.723 370.288 312.886C370.216 313.05 370.195 313.23 370.228 313.406C370.26 313.581 370.344 313.743 370.468 313.871C370.593 313.998 370.753 314.086 370.928 314.121C371.102 314.157 371.283 314.14 371.448 314.072C371.613 314.004 371.754 313.889 371.852 313.74C371.951 313.592 372.003 313.417 372.002 313.238C372.004 313.123 371.982 313.008 371.94 312.901C371.897 312.793 371.833 312.695 371.752 312.613C371.671 312.53 371.575 312.464 371.468 312.419C371.362 312.374 371.248 312.35 371.132 312.349Z" fill="#266890"/>
<path d="M369.698 313.238C369.701 313.122 369.682 313.006 369.639 312.898C369.597 312.79 369.533 312.692 369.452 312.609C369.371 312.526 369.274 312.459 369.166 312.415C369.059 312.37 368.944 312.348 368.828 312.349C368.591 312.349 368.363 312.443 368.196 312.611C368.028 312.779 367.934 313.007 367.934 313.244C367.934 313.482 368.028 313.709 368.196 313.877C368.363 314.045 368.591 314.139 368.828 314.139C368.945 314.139 369.061 314.116 369.168 314.07C369.276 314.024 369.373 313.958 369.454 313.873C369.536 313.789 369.599 313.69 369.641 313.581C369.683 313.471 369.702 313.355 369.698 313.238Z" fill="#266890"/>
<path d="M375.397 303.757L374.986 305.119C377.48 305.83 378.54 307.277 378.602 309.743H374.018V311.03H380.195V310.19C380.195 306.511 378.602 304.671 375.397 303.757Z" fill="#266890"/>
<path d="M406.165 309.952C406.594 310.822 407.341 311.062 409.069 311.062H416.171V300.637H414.541V309.78H411.238C411.293 309.087 411.324 308.358 411.324 307.72C411.327 306.32 411.158 304.926 410.822 303.568L409.241 303.832C409.551 305.146 409.705 306.492 409.7 307.842C409.7 308.357 409.651 309.155 409.59 309.78H409.149C407.66 309.78 407.17 309.553 407.17 308.167V304.414H405.619V307.72C405.619 309.424 405.086 309.896 404.247 309.896C403.181 309.896 403.095 309.155 403.095 307.708V304.997H401.464V307.842C401.464 309.351 401.048 309.78 400.024 309.78H398.621C397.946 309.777 397.284 309.589 396.709 309.234C397.192 308.894 397.591 308.449 397.877 307.933C398.163 307.418 398.33 306.843 398.364 306.254C398.364 305.028 397.494 303.905 395.392 303.905C393.915 303.905 392.273 304.764 391.102 305.622L390.974 306.763C392.377 307.192 393.321 308.21 394.326 309.155C393.114 309.592 391.832 309.8 390.545 309.768H388.707V304.433C387.733 304.096 386.71 303.921 385.679 303.918C383.075 303.918 381.88 305.666 381.88 307.597C381.88 309.694 382.934 311.043 385.796 311.043H387.125V311.338C387.125 312.889 386.004 313.496 384.423 313.496C383.638 313.481 382.856 313.391 382.089 313.227L381.984 314.557C382.735 314.685 383.496 314.755 384.258 314.766C387.493 314.766 388.707 313.079 388.707 311.221V311.043H390.434C392.141 311.082 393.834 310.732 395.386 310.019C396.249 310.687 397.31 311.047 398.401 311.043H400.006C401.127 311.043 401.722 310.638 401.985 309.933C402.128 310.323 402.395 310.654 402.746 310.876C403.096 311.097 403.509 311.197 403.922 311.16C404.374 311.203 404.83 311.109 405.228 310.89C405.627 310.671 405.951 310.338 406.159 309.933M387.113 309.756H385.98C384.233 309.756 383.492 308.971 383.492 307.431C383.492 306.119 384.245 305.199 385.508 305.199C386.058 305.193 386.604 305.297 387.113 305.506V309.756ZM395.625 308.406C394.663 307.579 393.787 306.567 392.622 306.131C393.373 305.549 394.27 305.187 395.214 305.083C396.262 305.083 396.746 305.696 396.746 306.438C396.727 306.831 396.615 307.214 396.421 307.556C396.225 307.898 395.953 308.189 395.625 308.406Z" fill="#266890"/>
<path d="M420.454 300.606H418.83V311.031H420.454V300.606Z" fill="#266890"/>
<path d="M428.389 302.826C428.566 302.828 428.739 302.778 428.887 302.682C429.034 302.586 429.15 302.448 429.219 302.285C429.288 302.123 429.308 301.944 429.275 301.771C429.242 301.598 429.158 301.438 429.034 301.313C428.911 301.187 428.753 301.101 428.58 301.066C428.407 301.031 428.228 301.047 428.064 301.114C427.901 301.181 427.762 301.295 427.664 301.442C427.566 301.588 427.513 301.761 427.513 301.937C427.512 302.053 427.533 302.168 427.577 302.276C427.62 302.384 427.684 302.482 427.765 302.565C427.847 302.648 427.944 302.713 428.051 302.758C428.158 302.803 428.274 302.826 428.389 302.826Z" fill="#266890"/>
<path d="M426.08 302.826C426.257 302.832 426.431 302.785 426.581 302.691C426.731 302.597 426.85 302.461 426.922 302.299C426.994 302.137 427.016 301.958 426.985 301.783C426.955 301.609 426.873 301.447 426.749 301.32C426.626 301.192 426.468 301.105 426.295 301.068C426.122 301.031 425.942 301.047 425.778 301.113C425.613 301.179 425.473 301.293 425.374 301.44C425.275 301.586 425.222 301.76 425.222 301.937C425.218 302.052 425.238 302.166 425.28 302.274C425.321 302.381 425.384 302.479 425.464 302.562C425.544 302.645 425.639 302.711 425.745 302.756C425.851 302.801 425.965 302.825 426.08 302.826Z" fill="#266890"/>
<path d="M436.196 301.808H435.381C434.584 301.808 434.29 301.557 434.29 301.195C434.29 300.833 434.554 300.649 435.056 300.649C435.363 300.649 435.669 300.698 435.792 300.704L435.945 299.748C435.67 299.713 435.394 299.693 435.118 299.687C433.665 299.687 433.108 300.471 433.108 301.244C433.108 301.368 433.141 301.491 433.204 301.598C433.266 301.706 433.356 301.795 433.463 301.857C433.149 301.808 432.831 301.785 432.513 301.79V302.746H436.19L436.196 301.808Z" fill="#266890"/>
<path d="M441.241 313.238C441.242 313.122 441.221 313.007 441.178 312.9C441.135 312.792 441.071 312.694 440.991 312.612C440.91 312.529 440.813 312.464 440.707 312.419C440.6 312.373 440.486 312.35 440.37 312.349C440.133 312.349 439.905 312.443 439.738 312.611C439.57 312.779 439.476 313.007 439.476 313.244C439.476 313.482 439.57 313.709 439.738 313.877C439.905 314.045 440.133 314.139 440.37 314.139C440.487 314.138 440.602 314.113 440.709 314.067C440.816 314.02 440.912 313.953 440.993 313.87C441.074 313.786 441.137 313.687 441.18 313.579C441.223 313.47 441.243 313.354 441.241 313.238Z" fill="#266890"/>
<path d="M438.936 313.238C438.939 313.122 438.919 313.006 438.877 312.898C438.835 312.79 438.771 312.692 438.69 312.609C438.608 312.526 438.511 312.459 438.404 312.415C438.297 312.37 438.182 312.348 438.066 312.349C437.829 312.349 437.601 312.443 437.433 312.611C437.265 312.779 437.171 313.007 437.171 313.244C437.171 313.482 437.265 313.709 437.433 313.877C437.601 314.045 437.829 314.139 438.066 314.139C438.182 314.139 438.298 314.116 438.406 314.07C438.513 314.024 438.611 313.958 438.692 313.873C438.773 313.789 438.837 313.69 438.879 313.581C438.92 313.471 438.94 313.355 438.936 313.238Z" fill="#266890"/>
<path d="M454.058 311.031H457.441V300.606H455.817V309.743H452.845V309.571C452.845 305.175 450.792 303.439 447.171 303.439C445.978 303.452 444.794 303.635 443.654 303.985L443.819 305.168C444.836 304.834 445.898 304.655 446.968 304.635C449.965 304.635 451.258 306.113 451.258 309.541V309.774H449.573V309.302C449.573 307.56 448.819 306.236 446.907 306.236C445.197 306.236 444.131 307.223 444.131 308.689C444.129 308.901 444.172 309.112 444.256 309.307C444.341 309.503 444.465 309.678 444.622 309.823C444.42 309.783 444.214 309.763 444.008 309.761H440.553V304.102H438.929V309.761H435.479V304.102H433.855V309.761H430.405V304.433C429.419 304.093 428.384 303.919 427.341 303.918C424.737 303.918 423.548 305.659 423.548 307.597C423.548 309.694 424.608 311.037 427.464 311.037H454.022L454.058 311.031ZM428.83 309.743H427.69C425.944 309.743 425.24 308.964 425.24 307.425C425.24 306.107 425.993 305.187 427.243 305.187C427.798 305.179 428.348 305.286 428.861 305.5L428.83 309.743ZM448.218 309.792H447.073C446.239 309.792 445.534 309.406 445.534 308.462C445.521 308.292 445.546 308.121 445.607 307.962C445.668 307.803 445.764 307.66 445.887 307.543C446.01 307.425 446.158 307.337 446.32 307.283C446.481 307.23 446.653 307.214 446.822 307.235C447.796 307.235 448.218 307.977 448.218 309.265V309.792Z" fill="#266890"/>
<path d="M461.731 300.606H460.107V311.031H461.731V300.606Z" fill="#266890"/>
<path d="M174.681 327.931C173.339 327.594 173.014 327.318 173.014 326.766C173.014 326.276 173.437 325.877 174.16 325.877C174.867 325.906 175.543 326.179 176.072 326.65L176.727 325.657C176.03 325.031 175.12 324.695 174.184 324.718C172.781 324.718 171.782 325.601 171.782 326.883C171.782 328.256 172.622 328.722 174.117 329.109C175.428 329.428 175.71 329.722 175.71 330.25C175.71 330.819 175.226 331.193 174.485 331.193C174.069 331.186 173.658 331.096 173.278 330.929C172.897 330.762 172.553 330.52 172.266 330.219L171.525 331.157C172.306 331.925 173.359 332.355 174.454 332.352C175.931 332.352 176.966 331.518 176.966 330.127C176.966 328.9 176.194 328.324 174.705 327.937" fill="#266890"/>
<path d="M180.252 326.552C179.55 326.542 178.856 326.702 178.23 327.018L178.567 328.054C179.038 327.822 179.555 327.701 180.08 327.698C180.92 327.698 181.385 328.127 181.385 328.925V329.029C180.914 328.868 180.419 328.789 179.921 328.796C178.695 328.796 177.77 329.41 177.77 330.636C177.769 330.877 177.819 331.116 177.915 331.338C178.012 331.558 178.153 331.757 178.331 331.921C178.509 332.084 178.718 332.208 178.947 332.286C179.175 332.363 179.417 332.393 179.657 332.371C179.987 332.38 180.314 332.311 180.611 332.171C180.909 332.03 181.17 331.822 181.373 331.562V332.255H182.599V328.913C182.599 327.41 181.833 326.54 180.27 326.54M181.422 330.219C181.413 330.391 181.369 330.559 181.293 330.713C181.216 330.867 181.109 331.004 180.977 331.115C180.846 331.226 180.693 331.309 180.528 331.359C180.363 331.408 180.19 331.423 180.019 331.402C179.443 331.402 178.996 331.108 178.996 330.574C178.996 330.029 179.443 329.698 180.221 329.698C180.64 329.692 181.056 329.767 181.447 329.918L181.422 330.219Z" fill="#266890"/>
<path d="M187.433 329.813C187.458 329.988 187.445 330.166 187.394 330.335C187.344 330.505 187.257 330.661 187.141 330.794C187.025 330.926 186.881 331.032 186.72 331.105C186.559 331.176 186.384 331.213 186.208 331.211C185.491 331.211 185.08 330.708 185.08 329.832V326.63H183.854V330.218C183.854 331.53 184.547 332.382 185.742 332.382C186.082 332.38 186.415 332.287 186.707 332.112C187 331.938 187.239 331.688 187.402 331.389V332.266H188.628V326.63H187.402L187.433 329.813Z" fill="#266890"/>
<path d="M194.063 327.508C193.866 327.201 193.593 326.948 193.272 326.775C192.951 326.601 192.59 326.512 192.225 326.514C190.957 326.514 189.774 327.569 189.774 329.434C189.774 331.273 190.999 332.358 192.225 332.358C192.598 332.361 192.965 332.264 193.288 332.077C193.611 331.891 193.879 331.622 194.063 331.298V332.242H195.289V324.454H194.063V327.508ZM194.063 329.458C194.083 329.678 194.059 329.9 193.993 330.111C193.926 330.321 193.817 330.516 193.674 330.684C193.531 330.852 193.355 330.99 193.158 331.089C192.961 331.188 192.746 331.246 192.525 331.261C192.305 331.247 192.09 331.189 191.893 331.09C191.696 330.991 191.521 330.854 191.378 330.685C191.236 330.517 191.129 330.321 191.064 330.11C190.999 329.899 190.977 329.678 190.999 329.458C190.999 328.342 191.692 327.661 192.525 327.661C192.745 327.675 192.96 327.733 193.158 327.832C193.355 327.93 193.53 328.067 193.674 328.235C193.817 328.402 193.925 328.597 193.992 328.807C194.059 329.017 194.083 329.238 194.063 329.458Z" fill="#266890"/>
<path d="M197.979 326.63H196.76V332.26H197.979V326.63Z" fill="#266890"/>
<path d="M198.016 324.546H196.71V325.773H198.016V324.546Z" fill="#266890"/>
<path d="M205.001 324.749L201.907 332.266H203.175L203.898 330.464H207.213L207.93 332.266H209.236L206.172 324.749H205.001ZM204.352 329.298L205.577 326.312L206.803 329.298H204.352Z" fill="#266890"/>
<path d="M213.684 329.813C213.709 329.988 213.696 330.166 213.645 330.335C213.595 330.505 213.508 330.661 213.392 330.794C213.276 330.926 213.132 331.032 212.971 331.105C212.81 331.176 212.635 331.213 212.459 331.211C211.742 331.211 211.331 330.708 211.331 329.832V326.63H210.105V330.218C210.105 331.53 210.798 332.382 211.993 332.382C212.333 332.38 212.667 332.287 212.959 332.112C213.251 331.938 213.491 331.688 213.653 331.389V332.266H214.879V326.63H213.653L213.684 329.813Z" fill="#266890"/>
<path d="M217.79 325.086H216.565V326.631H215.891V327.735H216.565V330.703C216.565 331.93 217.177 332.352 218.09 332.352C218.476 332.364 218.857 332.264 219.187 332.064V331.01C218.957 331.139 218.697 331.206 218.434 331.206C218.023 331.206 217.784 330.997 217.784 330.501V327.735H219.206V326.625H217.784L217.79 325.086Z" fill="#266890"/>
<path d="M223.207 326.509C222.866 326.51 222.532 326.602 222.24 326.777C221.948 326.952 221.708 327.203 221.546 327.503V324.473H220.321V332.261H221.546V329.078C221.522 328.903 221.535 328.725 221.586 328.556C221.636 328.387 221.722 328.231 221.839 328.098C221.955 327.965 222.098 327.859 222.26 327.787C222.42 327.715 222.595 327.679 222.772 327.68C223.489 327.68 223.905 328.183 223.905 329.06V332.261H225.131V328.674C225.131 327.361 224.438 326.509 223.244 326.509" fill="#266890"/>
<path d="M228.998 326.509C228.617 326.511 228.242 326.591 227.892 326.741C227.543 326.891 227.227 327.11 226.964 327.384C226.7 327.658 226.494 327.982 226.357 328.338C226.22 328.693 226.156 329.072 226.167 329.452C226.156 329.829 226.219 330.204 226.355 330.556C226.491 330.908 226.695 331.229 226.957 331.5C227.218 331.771 227.531 331.988 227.878 332.136C228.224 332.285 228.596 332.362 228.973 332.365C229.354 332.363 229.731 332.286 230.081 332.136C230.431 331.987 230.748 331.769 231.013 331.496C231.278 331.222 231.485 330.898 231.624 330.543C231.761 330.187 231.827 329.808 231.816 329.427C231.829 329.049 231.765 328.672 231.629 328.318C231.493 327.964 231.288 327.641 231.025 327.369C230.762 327.096 230.447 326.879 230.099 326.73C229.751 326.581 229.376 326.504 228.998 326.502M230.603 329.47C230.621 329.695 230.594 329.921 230.523 330.134C230.45 330.348 230.336 330.544 230.186 330.712C230.036 330.879 229.853 331.014 229.648 331.109C229.444 331.203 229.223 331.255 228.998 331.261C228.769 331.25 228.546 331.193 228.34 331.094C228.134 330.996 227.95 330.856 227.799 330.684C227.648 330.513 227.533 330.313 227.462 330.095C227.389 329.879 227.362 329.649 227.38 329.421C227.36 329.197 227.386 328.972 227.456 328.758C227.527 328.545 227.64 328.348 227.789 328.18C227.938 328.013 228.121 327.877 228.324 327.783C228.528 327.688 228.749 327.637 228.973 327.631C229.2 327.639 229.423 327.692 229.63 327.788C229.835 327.884 230.02 328.02 230.172 328.189C230.324 328.358 230.441 328.555 230.515 328.771C230.589 328.985 230.619 329.213 230.603 329.44V329.47Z" fill="#266890"/>
<path d="M234.176 327.907V326.638H232.95V332.267H234.176V330.12C234.176 328.63 234.917 327.894 235.977 327.894H236.051V326.509C235.629 326.493 235.214 326.622 234.874 326.872C234.533 327.123 234.287 327.481 234.176 327.888" fill="#266890"/>
<path d="M238.282 326.63H237.062V332.26H238.282V326.63Z" fill="#266890"/>
<path d="M238.318 324.546H237.013V325.773H238.318V324.546Z" fill="#266890"/>
<path d="M241.229 325.086H240.004V326.631H239.33V327.735H240.004V330.703C240.004 331.93 240.617 332.352 241.53 332.352C241.913 332.363 242.292 332.263 242.62 332.064V331.01C242.392 331.138 242.135 331.205 241.873 331.206C241.462 331.206 241.217 330.997 241.217 330.501V327.735H242.645V326.625H241.217L241.229 325.086Z" fill="#266890"/>
<path d="M246.075 330.801L244.574 326.625H243.275L245.487 332.254C245.285 332.745 245.076 332.904 244.733 332.904C244.48 332.897 244.233 332.823 244.016 332.69L243.606 333.646C243.976 333.87 244.399 333.989 244.832 333.989C245.69 333.989 246.161 333.566 246.578 332.414L248.692 326.625H247.423L246.075 330.801Z" fill="#266890"/>
<path d="M253.27 324.865C252.955 325.26 252.801 325.76 252.841 326.263V326.668H252.167V327.735H252.841V332.26H254.066V327.735H255.457V326.674H254.048V326.361C254.048 325.748 254.287 325.509 254.753 325.509C254.996 325.513 255.237 325.561 255.463 325.65V324.559C255.145 324.456 254.812 324.406 254.477 324.411C254.258 324.397 254.037 324.43 253.832 324.507C253.626 324.584 253.438 324.704 253.282 324.859" fill="#266890"/>
<path d="M258.785 326.509C258.405 326.511 258.029 326.591 257.68 326.741C257.33 326.891 257.015 327.11 256.751 327.384C256.487 327.658 256.281 327.982 256.144 328.338C256.007 328.693 255.943 329.072 255.954 329.452C255.943 329.829 256.006 330.204 256.142 330.556C256.278 330.908 256.483 331.229 256.744 331.5C257.005 331.771 257.318 331.988 257.665 332.136C258.011 332.285 258.384 332.362 258.76 332.365C259.142 332.363 259.518 332.286 259.868 332.136C260.219 331.987 260.536 331.769 260.8 331.496C261.065 331.222 261.273 330.898 261.411 330.543C261.549 330.187 261.615 329.808 261.604 329.427C261.616 329.049 261.552 328.672 261.416 328.318C261.28 327.964 261.075 327.641 260.812 327.369C260.549 327.096 260.235 326.879 259.886 326.73C259.538 326.581 259.164 326.504 258.785 326.502M260.391 329.47C260.409 329.695 260.381 329.921 260.31 330.134C260.238 330.348 260.123 330.544 259.973 330.712C259.823 330.879 259.64 331.014 259.435 331.109C259.232 331.203 259.01 331.255 258.785 331.261C258.557 331.25 258.333 331.193 258.127 331.094C257.921 330.996 257.738 330.856 257.587 330.684C257.436 330.513 257.321 330.313 257.249 330.095C257.176 329.879 257.149 329.649 257.168 329.421C257.147 329.197 257.173 328.972 257.243 328.758C257.314 328.545 257.427 328.348 257.576 328.18C257.726 328.013 257.908 327.877 258.112 327.783C258.315 327.688 258.536 327.637 258.76 327.631C258.988 327.639 259.211 327.692 259.417 327.788C259.623 327.884 259.807 328.02 259.959 328.189C260.111 328.358 260.228 328.555 260.302 328.771C260.376 328.985 260.406 329.213 260.391 329.44V329.47Z" fill="#266890"/>
<path d="M263.95 327.907V326.637H262.725V332.266H263.95V330.12C263.95 328.63 264.698 327.894 265.788 327.894H265.856V326.508C265.434 326.496 265.02 326.625 264.68 326.875C264.34 327.125 264.094 327.482 263.98 327.888" fill="#266890"/>
<path d="M271.139 324.797H269.901V332.26H271.139V324.797Z" fill="#266890"/>
<path d="M275.642 326.508C275.302 326.511 274.97 326.604 274.678 326.779C274.387 326.953 274.149 327.203 273.987 327.502V326.625H272.762V332.26H273.987V329.078C273.987 328.207 274.477 327.68 275.213 327.68C275.948 327.68 276.346 328.183 276.346 329.059V332.26H277.572V328.673C277.572 327.361 276.873 326.508 275.678 326.508" fill="#266890"/>
<path d="M282.892 327.508C282.694 327.201 282.422 326.948 282.1 326.775C281.779 326.601 281.419 326.512 281.054 326.514C279.791 326.514 278.603 327.569 278.603 329.434C278.603 331.273 279.828 332.358 281.054 332.358C281.426 332.361 281.793 332.264 282.116 332.077C282.439 331.891 282.707 331.622 282.892 331.298V332.242H284.118V324.454H282.892V327.508ZM282.892 329.458C282.912 329.678 282.888 329.901 282.82 330.112C282.753 330.323 282.645 330.518 282.5 330.686C282.356 330.854 282.18 330.991 281.982 331.09C281.784 331.189 281.568 331.247 281.348 331.261C281.128 331.247 280.913 331.189 280.716 331.09C280.519 330.991 280.345 330.853 280.203 330.685C280.061 330.516 279.954 330.321 279.89 330.11C279.826 329.899 279.804 329.677 279.828 329.458C279.828 328.342 280.52 327.661 281.348 327.661C281.568 327.674 281.784 327.732 281.982 327.83C282.18 327.928 282.356 328.065 282.5 328.232C282.644 328.4 282.753 328.595 282.82 328.805C282.888 329.016 282.912 329.238 282.892 329.458Z" fill="#266890"/>
<path d="M289.002 329.813C289.002 330.684 288.511 331.211 287.776 331.211C287.04 331.211 286.642 330.708 286.642 329.832V326.63H285.417V330.218C285.417 331.53 286.109 332.382 287.298 332.382C287.638 332.382 287.973 332.29 288.265 332.115C288.557 331.94 288.797 331.689 288.958 331.389V332.266H290.184V326.63H288.958L289.002 329.813Z" fill="#266890"/>
<path d="M293.781 328.961C293.169 328.747 292.556 328.575 292.556 328.17C292.556 327.839 292.832 327.6 293.303 327.6C293.841 327.638 294.358 327.822 294.799 328.133L295.283 327.22C294.711 326.818 294.033 326.594 293.334 326.576C293.095 326.554 292.854 326.583 292.626 326.66C292.399 326.737 292.19 326.86 292.012 327.022C291.835 327.184 291.693 327.381 291.596 327.601C291.498 327.821 291.447 328.058 291.447 328.299C291.447 329.378 292.317 329.715 293.101 329.948C293.714 330.157 294.284 330.304 294.284 330.739C294.284 331.113 293.983 331.352 293.463 331.352C292.823 331.322 292.213 331.078 291.729 330.66L291.183 331.537C291.815 332.066 292.609 332.363 293.432 332.377C294.535 332.377 295.405 331.763 295.405 330.605C295.405 329.587 294.529 329.212 293.757 328.961" fill="#266890"/>
<path d="M298.022 325.086H296.796V326.631H296.122V327.735H296.796V330.703C296.796 331.93 297.409 332.352 298.322 332.352C298.706 332.364 299.085 332.264 299.413 332.064V331.01C299.185 331.139 298.927 331.206 298.665 331.206C298.254 331.206 298.009 330.997 298.009 330.501V327.735H299.437V326.625H298.009L298.022 325.086Z" fill="#266890"/>
<path d="M301.784 327.907V326.637H300.559V332.266H301.784V330.12C301.784 328.63 302.532 327.894 303.622 327.894H303.69V326.508C303.267 326.495 302.853 326.624 302.511 326.874C302.171 327.124 301.923 327.481 301.808 327.888" fill="#266890"/>
<path d="M305.902 326.63H304.688V332.26H305.902V326.63Z" fill="#266890"/>
<path d="M305.938 324.546H304.633V325.773H305.938V324.546Z" fill="#266890"/>
<path d="M309.505 326.552C308.805 326.542 308.113 326.702 307.488 327.018L307.819 328.054C308.293 327.823 308.812 327.701 309.339 327.698C310.179 327.698 310.638 328.127 310.638 328.925V329.029C310.167 328.867 309.671 328.788 309.174 328.796C307.948 328.796 307.023 329.41 307.023 330.636C307.022 330.877 307.071 331.116 307.168 331.338C307.264 331.558 307.406 331.757 307.584 331.921C307.761 332.084 307.971 332.208 308.199 332.286C308.428 332.363 308.67 332.393 308.91 332.371C309.24 332.381 309.568 332.313 309.867 332.172C310.166 332.031 310.429 331.822 310.632 331.562V332.255H311.858V328.913C311.858 327.41 311.098 326.54 309.529 326.54M310.687 330.219C310.677 330.39 310.633 330.558 310.556 330.712C310.479 330.866 310.372 331.003 310.241 331.113C310.109 331.224 309.956 331.307 309.792 331.356C309.627 331.406 309.454 331.422 309.284 331.402C308.708 331.402 308.254 331.108 308.254 330.574C308.254 330.029 308.708 329.698 309.48 329.698C309.899 329.693 310.315 329.768 310.706 329.918L310.687 330.219Z" fill="#266890"/>
<path d="M314.462 324.479H313.249V332.26H314.462V324.479Z" fill="#266890"/>
<path d="M322.306 331.187C320.958 331.187 319.983 329.96 319.983 328.532C319.983 327.072 320.958 325.901 322.306 325.901C322.679 325.913 323.047 326.002 323.385 326.161C323.723 326.32 324.025 326.546 324.273 326.827L325.069 325.858C324.722 325.475 324.295 325.173 323.819 324.972C323.342 324.771 322.828 324.676 322.312 324.693C321.818 324.699 321.329 324.805 320.876 325.004C320.423 325.203 320.016 325.492 319.677 325.852C319.338 326.213 319.076 326.638 318.905 327.103C318.734 327.568 318.659 328.062 318.684 328.556C318.663 329.044 318.739 329.532 318.908 329.99C319.077 330.449 319.336 330.869 319.669 331.227C320.002 331.584 320.403 331.871 320.849 332.072C321.294 332.273 321.775 332.382 322.263 332.395C322.808 332.41 323.349 332.298 323.844 332.07C324.34 331.841 324.776 331.501 325.119 331.076L324.322 330.224C324.075 330.521 323.767 330.76 323.419 330.928C323.071 331.095 322.691 331.185 322.306 331.193" fill="#266890"/>
<path d="M327.489 324.546H326.184V325.773H327.489V324.546Z" fill="#266890"/>
<path d="M327.447 326.63H326.233V332.26H327.447V326.63Z" fill="#266890"/>
<path d="M330.382 325.086H329.157V326.631H328.477V327.735H329.157V330.703C329.157 331.93 329.769 332.352 330.683 332.352C331.066 332.364 331.445 332.264 331.773 332.064V331.01C331.545 331.138 331.288 331.205 331.026 331.206C330.609 331.206 330.37 330.997 330.37 330.501V327.735H331.798V326.625H330.382V325.086Z" fill="#266890"/>
<path d="M334.273 324.546H332.968V325.773H334.273V324.546Z" fill="#266890"/>
<path d="M334.23 326.63H333.017V332.26H334.23V326.63Z" fill="#266890"/>
<path d="M338.017 326.509C336.497 326.509 335.425 327.833 335.425 329.446C335.399 329.819 335.45 330.194 335.575 330.547C335.7 330.9 335.896 331.223 336.151 331.497C336.406 331.771 336.715 331.989 337.058 332.138C337.401 332.288 337.772 332.365 338.146 332.365C338.565 332.376 338.98 332.287 339.358 332.104C339.735 331.922 340.064 331.652 340.315 331.316L339.604 330.641C339.427 330.851 339.207 331.021 338.958 331.137C338.71 331.254 338.439 331.315 338.164 331.316C337.775 331.318 337.399 331.17 337.115 330.904C336.831 330.637 336.66 330.27 336.638 329.881H340.536C340.536 329.752 340.536 329.636 340.536 329.519C340.536 327.9 339.684 326.49 337.999 326.49M336.614 329.029C336.724 328.158 337.227 327.551 337.986 327.551C338.746 327.551 339.255 328.201 339.335 329.029H336.614Z" fill="#266890"/>
<path d="M343.82 328.961C343.207 328.746 342.594 328.574 342.594 328.17C342.594 327.839 342.864 327.6 343.342 327.6C343.88 327.638 344.397 327.823 344.837 328.133L345.321 327.219C344.749 326.818 344.071 326.594 343.372 326.576C343.133 326.554 342.891 326.582 342.663 326.658C342.434 326.735 342.224 326.858 342.047 327.02C341.869 327.182 341.726 327.379 341.628 327.6C341.531 327.82 341.48 328.058 341.479 328.299C341.479 329.378 342.355 329.715 343.14 329.948C343.753 330.157 344.323 330.304 344.323 330.739C344.323 331.113 344.022 331.353 343.501 331.353C342.86 331.322 342.247 331.079 341.761 330.66L341.222 331.536C341.853 332.066 342.647 332.362 343.47 332.377C344.573 332.377 345.438 331.763 345.438 330.604C345.438 329.586 344.567 329.212 343.795 328.961" fill="#266890"/>
<path d="M460.083 328.962C459.47 328.747 458.888 328.575 458.888 328.17C458.888 327.839 459.157 327.6 459.636 327.6C460.171 327.639 460.686 327.823 461.124 328.134L461.609 327.22C461.049 326.797 460.378 326.549 459.678 326.509C459.439 326.488 459.198 326.516 458.97 326.593C458.743 326.67 458.534 326.793 458.356 326.955C458.179 327.117 458.037 327.314 457.94 327.534C457.842 327.754 457.792 327.992 457.791 328.232C457.791 329.311 458.667 329.648 459.446 329.881C460.058 330.09 460.635 330.237 460.635 330.672C460.635 331.046 460.328 331.286 459.807 331.286C459.168 331.256 458.557 331.012 458.073 330.593L457.534 331.469C458.165 331.999 458.959 332.296 459.782 332.31C460.885 332.31 461.749 331.696 461.749 330.537C461.749 329.519 460.873 329.146 460.101 328.894" fill="#266890"/>
<path d="M351.627 326.552C350.926 326.542 350.232 326.702 349.605 327.018L349.936 328.054C350.41 327.823 350.929 327.702 351.456 327.698C352.295 327.698 352.761 328.127 352.761 328.925V329.029C352.29 328.868 351.795 328.789 351.297 328.796C350.071 328.796 349.146 329.41 349.146 330.636C349.145 330.877 349.194 331.116 349.291 331.338C349.387 331.558 349.529 331.757 349.707 331.921C349.884 332.084 350.094 332.208 350.322 332.286C350.55 332.363 350.793 332.393 351.033 332.371C351.362 332.38 351.689 332.311 351.987 332.171C352.285 332.03 352.546 331.822 352.749 331.562V332.255H353.974V328.913C353.974 327.41 353.208 326.54 351.646 326.54M352.798 330.219C352.789 330.391 352.745 330.559 352.668 330.713C352.592 330.867 352.485 331.004 352.353 331.115C352.221 331.226 352.068 331.309 351.903 331.359C351.739 331.408 351.565 331.423 351.395 331.402C350.825 331.402 350.365 331.108 350.365 330.574C350.365 330.029 350.825 329.698 351.591 329.698C352.009 329.692 352.425 329.767 352.816 329.918L352.798 330.219Z" fill="#266890"/>
<path d="M358.171 326.508C357.83 326.509 357.496 326.602 357.204 326.777C356.912 326.952 356.672 327.202 356.51 327.502V326.625H355.285V332.26H356.51V329.078C356.486 328.903 356.499 328.725 356.549 328.555C356.6 328.387 356.686 328.23 356.803 328.098C356.919 327.965 357.062 327.858 357.223 327.787C357.384 327.714 357.559 327.678 357.736 327.68C358.453 327.68 358.869 328.183 358.869 329.059V332.26H360.095V328.673C360.095 327.361 359.402 326.508 358.207 326.508" fill="#266890"/>
<path d="M365.415 327.508C365.217 327.201 364.944 326.948 364.623 326.775C364.302 326.601 363.941 326.512 363.576 326.514C362.308 326.514 361.125 327.569 361.125 329.434C361.125 331.273 362.35 332.358 363.576 332.358C363.949 332.361 364.316 332.264 364.639 332.077C364.962 331.891 365.23 331.622 365.415 331.298V332.242H366.64V324.454H365.415V327.508ZM365.415 329.458C365.449 329.679 365.435 329.906 365.374 330.121C365.312 330.336 365.206 330.536 365.06 330.706C364.914 330.876 364.734 331.012 364.531 331.106C364.327 331.199 364.106 331.248 363.882 331.248C363.659 331.248 363.438 331.199 363.234 331.106C363.031 331.012 362.851 330.876 362.705 330.706C362.559 330.536 362.453 330.336 362.391 330.121C362.33 329.906 362.316 329.679 362.35 329.458C362.325 329.238 362.345 329.016 362.409 328.804C362.473 328.593 362.58 328.396 362.723 328.228C362.866 328.06 363.043 327.922 363.241 327.825C363.439 327.727 363.656 327.672 363.876 327.661C364.096 327.674 364.312 327.732 364.51 327.83C364.707 327.928 364.883 328.065 365.027 328.233C365.17 328.4 365.279 328.595 365.345 328.806C365.412 329.017 365.435 329.238 365.415 329.458Z" fill="#266890"/>
<path d="M370.593 326.018H372.817V332.266H374.067V326.018H376.292V324.797H370.593V326.018Z" fill="#266890"/>
<path d="M379.656 326.509C378.136 326.509 377.064 327.833 377.064 329.446C377.038 329.819 377.089 330.194 377.213 330.547C377.339 330.9 377.534 331.223 377.79 331.497C378.045 331.771 378.354 331.989 378.697 332.138C379.04 332.288 379.41 332.365 379.785 332.365C380.204 332.376 380.621 332.287 380.999 332.104C381.377 331.922 381.707 331.652 381.96 331.316L381.243 330.641C381.067 330.851 380.848 331.02 380.6 331.137C380.352 331.253 380.083 331.314 379.809 331.316C379.419 331.32 379.042 331.172 378.758 330.905C378.474 330.638 378.304 330.271 378.283 329.881H382.174C382.174 329.752 382.174 329.636 382.174 329.519C382.174 327.9 381.323 326.49 379.631 326.49M378.246 329.029C378.357 328.158 378.859 327.551 379.619 327.551C380.379 327.551 380.888 328.201 380.967 329.029H378.246Z" fill="#266890"/>
<path d="M385.826 331.273C385.602 331.263 385.381 331.208 385.179 331.111C384.976 331.014 384.795 330.876 384.647 330.707C384.498 330.538 384.386 330.341 384.316 330.128C384.246 329.914 384.22 329.688 384.239 329.464C384.221 329.246 384.245 329.027 384.312 328.818C384.379 328.61 384.487 328.417 384.628 328.25C384.77 328.084 384.944 327.947 385.139 327.848C385.334 327.749 385.547 327.69 385.765 327.674C386.033 327.676 386.298 327.741 386.537 327.863C386.777 327.986 386.984 328.162 387.143 328.379L387.897 327.514C387.644 327.197 387.321 326.944 386.953 326.774C386.585 326.605 386.182 326.524 385.777 326.539C385.402 326.549 385.032 326.633 384.69 326.787C384.347 326.941 384.039 327.161 383.783 327.436C383.526 327.711 383.328 328.034 383.198 328.386C383.068 328.739 383.009 329.113 383.026 329.489C383.01 329.861 383.069 330.233 383.199 330.582C383.329 330.931 383.527 331.251 383.782 331.522C384.038 331.793 384.344 332.011 384.685 332.162C385.025 332.313 385.392 332.395 385.765 332.402C386.184 332.411 386.599 332.321 386.977 332.137C387.354 331.954 387.682 331.683 387.934 331.347L387.205 330.574C387.04 330.785 386.831 330.957 386.593 331.079C386.355 331.201 386.093 331.269 385.826 331.279" fill="#266890"/>
<path d="M391.819 326.509C391.48 326.511 391.147 326.604 390.856 326.779C390.565 326.954 390.326 327.204 390.165 327.503V324.473H388.939V332.261H390.165V329.078C390.165 328.208 390.655 327.68 391.39 327.68C392.126 327.68 392.524 328.183 392.524 329.06V332.261H393.749V328.674C393.749 327.361 393.051 326.509 391.856 326.509" fill="#266890"/>
<path d="M397.941 326.508C397.601 326.511 397.269 326.604 396.978 326.779C396.687 326.953 396.448 327.203 396.286 327.502V326.625H395.061V332.26H396.286V329.078C396.286 328.207 396.777 327.68 397.512 327.68C398.247 327.68 398.646 328.183 398.646 329.059V332.26H399.871V328.673C399.871 327.361 399.179 326.508 397.978 326.508" fill="#266890"/>
<path d="M403.731 326.509C403.351 326.512 402.976 326.592 402.627 326.743C402.278 326.894 401.963 327.112 401.699 327.386C401.436 327.66 401.229 327.984 401.092 328.339C400.955 328.693 400.89 329.072 400.9 329.452C400.889 329.829 400.953 330.205 401.089 330.557C401.225 330.91 401.43 331.231 401.692 331.502C401.955 331.774 402.268 331.99 402.615 332.138C402.962 332.286 403.336 332.363 403.713 332.365C404.093 332.362 404.469 332.284 404.819 332.135C405.168 331.985 405.484 331.767 405.749 331.493C406.013 331.22 406.22 330.896 406.358 330.541C406.495 330.186 406.561 329.808 406.55 329.427C406.563 329.049 406.5 328.671 406.364 328.317C406.229 327.963 406.023 327.64 405.76 327.367C405.497 327.094 405.182 326.877 404.834 326.728C404.485 326.58 404.11 326.503 403.731 326.502M405.337 329.47C405.355 329.695 405.328 329.921 405.256 330.134C405.184 330.348 405.069 330.544 404.919 330.712C404.769 330.879 404.586 331.014 404.382 331.109C404.177 331.203 403.956 331.255 403.731 331.261C403.503 331.25 403.279 331.193 403.073 331.094C402.868 330.996 402.683 330.856 402.533 330.684C402.382 330.513 402.267 330.313 402.195 330.095C402.123 329.879 402.095 329.649 402.113 329.421C402.094 329.197 402.121 328.971 402.192 328.758C402.263 328.544 402.377 328.348 402.527 328.18C402.676 328.012 402.859 327.877 403.063 327.783C403.267 327.688 403.488 327.637 403.713 327.631C403.939 327.639 404.162 327.693 404.367 327.789C404.573 327.886 404.756 328.022 404.908 328.191C405.059 328.36 405.175 328.557 405.249 328.772C405.323 328.986 405.353 329.213 405.337 329.44V329.47Z" fill="#266890"/>
<path d="M408.965 324.479H407.751V332.26H408.965V324.479Z" fill="#266890"/>
<path d="M412.996 326.509C412.616 326.512 412.241 326.592 411.892 326.743C411.543 326.894 411.227 327.112 410.964 327.386C410.7 327.66 410.494 327.984 410.357 328.339C410.219 328.693 410.154 329.072 410.165 329.452C410.154 329.829 410.217 330.204 410.353 330.556C410.489 330.908 410.694 331.229 410.955 331.5C411.216 331.771 411.529 331.988 411.876 332.136C412.222 332.285 412.595 332.362 412.971 332.365C413.352 332.363 413.729 332.286 414.079 332.136C414.43 331.987 414.747 331.769 415.011 331.496C415.276 331.222 415.484 330.898 415.622 330.543C415.76 330.187 415.825 329.808 415.815 329.427C415.827 329.049 415.763 328.672 415.627 328.318C415.491 327.964 415.286 327.641 415.023 327.369C414.76 327.096 414.446 326.879 414.097 326.73C413.749 326.581 413.374 326.504 412.996 326.502M414.601 329.47C414.62 329.695 414.592 329.921 414.521 330.134C414.449 330.348 414.334 330.544 414.184 330.712C414.034 330.879 413.851 331.014 413.646 331.109C413.442 331.203 413.221 331.255 412.996 331.261C412.768 331.25 412.544 331.193 412.338 331.094C412.132 330.996 411.948 330.856 411.798 330.684C411.647 330.513 411.532 330.313 411.46 330.095C411.387 329.879 411.36 329.649 411.378 329.421C411.359 329.197 411.385 328.973 411.456 328.76C411.527 328.546 411.64 328.35 411.79 328.183C411.939 328.015 412.12 327.88 412.324 327.785C412.527 327.69 412.747 327.637 412.971 327.631C413.199 327.639 413.422 327.692 413.628 327.788C413.833 327.884 414.018 328.02 414.17 328.189C414.322 328.358 414.439 328.555 414.513 328.771C414.587 328.985 414.617 329.213 414.601 329.44V329.47Z" fill="#266890"/>
<path d="M420.944 327.477C420.737 327.181 420.462 326.939 420.142 326.772C419.822 326.604 419.467 326.516 419.106 326.515C418.771 326.518 418.44 326.592 418.133 326.729C417.827 326.866 417.552 327.064 417.326 327.312C417.1 327.56 416.926 327.852 416.818 328.169C416.708 328.486 416.665 328.823 416.692 329.158C416.666 329.492 416.71 329.827 416.82 330.144C416.929 330.461 417.102 330.752 417.329 330.999C417.555 331.246 417.829 331.444 418.135 331.581C418.441 331.717 418.771 331.79 419.106 331.794C419.475 331.793 419.837 331.696 420.159 331.515C420.481 331.333 420.751 331.073 420.944 330.758V331.193C420.976 331.423 420.955 331.657 420.884 331.878C420.812 332.098 420.691 332.3 420.529 332.466C420.368 332.633 420.171 332.761 419.953 332.84C419.735 332.919 419.502 332.947 419.271 332.923C418.594 332.916 417.935 332.703 417.384 332.309L416.931 333.278C417.641 333.724 418.463 333.956 419.302 333.947C419.698 333.978 420.096 333.926 420.471 333.797C420.846 333.667 421.191 333.461 421.483 333.192C421.971 332.597 422.21 331.838 422.151 331.071V326.588H420.926L420.944 327.477ZM420.944 329.182C420.947 329.386 420.908 329.59 420.831 329.779C420.753 329.969 420.638 330.14 420.493 330.285C420.348 330.429 420.175 330.542 419.985 330.618C419.795 330.694 419.592 330.731 419.388 330.727C419.185 330.73 418.983 330.691 418.796 330.613C418.609 330.535 418.439 330.42 418.298 330.274C418.157 330.128 418.047 329.955 417.975 329.765C417.903 329.575 417.871 329.372 417.88 329.17C417.871 328.968 417.903 328.765 417.976 328.576C418.047 328.387 418.157 328.214 418.298 328.07C418.44 327.925 418.61 327.81 418.797 327.734C418.984 327.657 419.185 327.62 419.388 327.625C419.593 327.619 419.797 327.656 419.988 327.732C420.178 327.808 420.352 327.922 420.497 328.067C420.643 328.212 420.757 328.385 420.834 328.576C420.911 328.766 420.948 328.97 420.944 329.176V329.182Z" fill="#266890"/>
<path d="M425.871 330.801L424.364 326.625H423.071L425.283 332.254C425.074 332.745 424.866 332.904 424.523 332.904C424.271 332.897 424.026 332.823 423.812 332.69L423.402 333.646C423.771 333.872 424.195 333.99 424.627 333.989C425.479 333.989 425.951 333.566 426.374 332.414L428.481 326.625H427.213L425.871 330.801Z" fill="#266890"/>
<path d="M432.385 325.963H436.399L432.25 331.298V332.266H438.01V331.101H433.862L438.01 325.773V324.797H432.385V325.963Z" fill="#266890"/>
<path d="M441.845 326.509C441.466 326.512 441.09 326.592 440.741 326.743C440.392 326.894 440.077 327.112 439.813 327.386C439.55 327.66 439.343 327.984 439.206 328.339C439.069 328.693 439.004 329.072 439.014 329.452C439.003 329.829 439.067 330.205 439.203 330.557C439.339 330.91 439.545 331.231 439.807 331.502C440.069 331.774 440.383 331.99 440.73 332.138C441.077 332.286 441.45 332.363 441.827 332.365C442.207 332.362 442.583 332.284 442.933 332.135C443.283 331.985 443.598 331.767 443.863 331.493C444.127 331.22 444.334 330.896 444.472 330.541C444.61 330.186 444.675 329.808 444.664 329.427C444.678 329.049 444.614 328.671 444.479 328.317C444.343 327.963 444.138 327.64 443.875 327.367C443.612 327.094 443.296 326.877 442.948 326.728C442.599 326.58 442.224 326.503 441.845 326.502M443.457 329.47C443.475 329.695 443.446 329.921 443.374 330.135C443.301 330.348 443.186 330.544 443.036 330.712C442.885 330.879 442.701 331.014 442.497 331.109C442.292 331.203 442.071 331.255 441.845 331.261C441.617 331.25 441.393 331.193 441.188 331.094C440.982 330.996 440.798 330.856 440.647 330.684C440.496 330.513 440.381 330.313 440.309 330.095C440.237 329.879 440.209 329.649 440.228 329.421C440.208 329.197 440.235 328.971 440.306 328.758C440.378 328.544 440.492 328.348 440.641 328.18C440.791 328.012 440.973 327.877 441.177 327.783C441.381 327.688 441.602 327.637 441.827 327.631C442.054 327.639 442.278 327.692 442.483 327.788C442.689 327.884 442.874 328.02 443.026 328.189C443.178 328.358 443.295 328.555 443.369 328.771C443.443 328.985 443.473 329.213 443.457 329.44V329.47Z" fill="#266890"/>
<path d="M448.648 326.508C448.308 326.511 447.975 326.605 447.683 326.779C447.391 326.954 447.151 327.204 446.988 327.502V326.625H445.762V332.26H446.988V329.078C446.988 328.207 447.484 327.68 448.213 327.68C448.942 327.68 449.352 328.183 449.352 329.059V332.26H450.578V328.673C450.578 327.361 449.886 326.508 448.691 326.508" fill="#266890"/>
<path d="M454.225 326.509C452.705 326.509 451.633 327.833 451.633 329.446C451.607 329.819 451.658 330.194 451.783 330.547C451.908 330.9 452.104 331.223 452.359 331.497C452.614 331.771 452.923 331.989 453.266 332.138C453.609 332.288 453.979 332.365 454.354 332.365C454.773 332.375 455.19 332.285 455.568 332.103C455.946 331.921 456.275 331.651 456.529 331.316L455.812 330.641C455.635 330.851 455.415 331.021 455.166 331.137C454.917 331.254 454.647 331.315 454.372 331.316C453.983 331.318 453.607 331.17 453.323 330.904C453.039 330.637 452.868 330.27 452.846 329.881H456.744C456.744 329.752 456.744 329.636 456.744 329.519C456.744 327.9 455.886 326.49 454.201 326.49M452.816 329.029C452.926 328.158 453.429 327.551 454.188 327.551C454.948 327.551 455.457 328.201 455.536 329.029H452.816Z" fill="#266890"/>
</g>
<defs>
<clipPath id="clip0_176_850">
<rect width="291.571" height="332.593" fill="white" transform="translate(170.604 1.70361)"/>
</clipPath>
</defs>
</svg>
