<svg width="632" height="336" viewBox="0 0 632 336" fill="none" xmlns="http://www.w3.org/2000/svg">
<path d="M533.163 270.586C582.938 270.586 623.288 230.235 623.288 180.46C623.288 130.685 582.938 90.335 533.163 90.335C483.388 90.335 443.037 130.685 443.037 180.46C443.037 230.235 483.388 270.586 533.163 270.586Z" fill="white"/>
<path d="M570.168 251.054C554.161 251.09 538.639 245.559 526.262 235.408C518.54 229.124 512.314 221.2 508.034 212.21C503.755 203.221 501.53 193.392 501.52 183.436C501.52 171.653 508.682 154.473 514.059 144.826C505.198 152.406 498.131 161.86 493.369 172.504C488.607 183.148 486.268 194.717 486.523 206.376C486.524 213.708 487.573 221.003 489.638 228.039C492.489 239.019 498.433 248.949 506.762 256.651C510.381 259.779 514.549 262.208 519.055 263.816C523.061 265.345 527.272 266.272 531.55 266.564H532.117C532.8 266.585 533.484 266.596 534.169 266.6C552.759 266.571 570.835 260.494 585.667 249.287C580.583 250.455 575.384 251.047 570.168 251.054Z" fill="#1773B3"/>
<path d="M604.274 132.294C599.911 130.314 595.388 128.706 590.755 127.487C596.94 138.423 597.457 146.113 597.457 159.587C597.877 178.415 590.833 196.644 577.86 210.297C564.888 223.949 547.042 231.915 528.217 232.456C540.249 242.478 557.61 247.777 574.481 247.777C579.407 247.836 584.292 246.891 588.841 245.002C609.368 229.254 619.784 208.612 619.784 180.742C619.808 160.56 615.894 146.954 604.274 132.294Z" fill="url(#paint0_linear_935_189)"/>
<path d="M446.711 179.942C446.711 215.391 474.424 253.388 505.749 261.608C489.373 247.572 480.784 225.494 480.784 204.618C480.815 185.019 487.613 166.032 500.027 150.866C512.442 135.7 529.712 125.285 548.919 121.382C566.549 117.772 584.869 119.809 601.275 127.204C601.501 127.306 601.729 127.402 601.954 127.504C590.937 113.211 575.732 102.716 558.461 97.4831C541.19 92.2504 522.716 92.5418 505.619 98.3165C488.522 104.091 473.654 115.061 463.093 129.694C452.532 144.327 446.805 161.896 446.711 179.942Z" fill="url(#paint1_linear_935_189)"/>
<path d="M361.964 179.626V179.523C361.993 178.158 362.546 176.856 363.507 175.886C364.468 174.915 365.763 174.35 367.127 174.307H371.076V151.676C371.119 150.312 371.684 149.016 372.655 148.056C373.625 147.096 374.928 146.544 376.292 146.516H376.398V166.163H386.531V151.676C386.581 150.312 387.15 149.018 388.121 148.059C389.093 147.1 390.394 146.548 391.759 146.516H391.871V166.163H399.68V151.785C399.706 150.393 400.268 149.065 401.253 148.082C402.238 147.099 403.57 146.538 404.961 146.516H405.002V166.163H413.188V151.676C413.225 150.313 413.787 149.017 414.754 148.056C415.722 147.095 417.023 146.544 418.386 146.516H418.498V168.522C418.494 169.305 418.183 170.054 417.629 170.608C417.076 171.162 416.323 171.477 415.54 171.482H376.41V176.663C376.41 177.052 376.335 177.436 376.187 177.796C376.039 178.155 375.822 178.483 375.547 178.758C375.273 179.033 374.95 179.251 374.591 179.4C374.232 179.549 373.847 179.626 373.458 179.626H361.964ZM140.312 179.626C138.922 179.616 137.596 179.062 136.61 178.083C135.623 177.104 135.057 175.776 135.037 174.386V171.464H127.867C124.987 171.468 122.194 170.473 119.963 168.651C117.733 166.829 116.205 164.289 115.633 161.466C115.062 158.643 115.484 155.71 116.83 153.164C118.176 150.617 120.36 148.616 123.014 147.498C124.547 146.84 126.199 146.504 127.867 146.513C130.348 146.508 132.775 147.252 134.826 148.649C136.528 149.784 137.923 151.323 138.886 153.128C139.85 154.934 140.351 156.95 140.347 158.996V166.16H151.22V141.317C151.217 139.944 151.745 138.621 152.698 137.632C153.651 136.643 154.952 136.064 156.324 136.016H156.542V168.815C156.538 169.167 156.469 169.516 156.33 169.839C156.192 170.162 155.99 170.453 155.738 170.699C155.288 171.158 154.679 171.433 154.036 171.461H140.347V179.623L140.312 179.626ZM123.854 153.049C122.702 153.827 121.8 154.925 121.26 156.206C120.882 157.089 120.687 158.039 120.691 158.999C120.691 159.941 120.875 160.875 121.237 161.745C121.598 162.615 122.13 163.406 122.797 164.071C123.465 164.737 124.256 165.264 125.127 165.623C125.998 165.982 126.93 166.165 127.873 166.163H135.043V158.999C135.041 157.571 134.612 156.176 133.811 154.994C133.286 154.212 132.613 153.541 131.828 153.02C131.042 152.499 130.165 152.138 129.24 151.958C128.315 151.778 127.359 151.781 126.435 151.97C125.512 152.158 124.64 152.524 123.859 153.052L123.854 153.049ZM220.633 179.612H219.753C219.617 179.611 219.484 179.555 219.389 179.459C219.293 179.363 219.243 179.236 219.242 179.101V174.736C219.246 174.603 219.299 174.476 219.395 174.384C219.49 174.291 219.62 174.242 219.753 174.243H224.1C224.234 174.24 224.362 174.291 224.458 174.384C224.555 174.476 224.613 174.602 224.617 174.736V176.493C224.618 177.313 224.294 178.101 223.719 178.684C223.144 179.268 222.362 179.601 221.542 179.612H220.633ZM216.25 179.612C215.429 179.601 214.644 179.268 214.067 178.684C213.49 178.101 213.165 177.314 213.163 176.493V174.736C213.164 174.67 213.178 174.603 213.204 174.542C213.231 174.481 213.268 174.426 213.316 174.381C213.363 174.335 213.419 174.299 213.48 174.275C213.542 174.251 213.608 174.241 213.674 174.243H218.045C218.176 174.244 218.298 174.295 218.391 174.386C218.484 174.478 218.541 174.605 218.544 174.736V179.101C218.544 179.234 218.49 179.361 218.397 179.456C218.304 179.551 218.178 179.608 218.045 179.612H216.25ZM39.2026 179.612C39.1351 179.612 39.0717 179.599 39.009 179.573C38.9464 179.548 38.8869 179.509 38.8389 179.462C38.7908 179.414 38.7534 179.36 38.7274 179.298C38.7013 179.235 38.6863 179.169 38.6863 179.101V174.736C38.6879 174.669 38.7064 174.603 38.7332 174.542C38.7601 174.481 38.7967 174.426 38.8447 174.381C38.8927 174.335 38.9472 174.299 39.009 174.275C39.0709 174.251 39.1364 174.241 39.2026 174.243H43.5622C43.6948 174.242 43.8247 174.291 43.9201 174.384C44.0156 174.476 44.0688 174.603 44.0727 174.736V176.493C44.0727 177.314 43.7526 178.101 43.175 178.684C42.5973 179.268 41.8135 179.603 40.9922 179.612H39.2026ZM35.6763 179.612C34.8571 179.6 34.0804 179.265 33.5053 178.681C32.9302 178.098 32.6074 177.312 32.6075 176.493V174.736C32.6099 174.604 32.6597 174.476 32.7542 174.384C32.8487 174.291 32.9801 174.242 33.1121 174.243H37.4835C37.6163 174.241 37.7399 174.291 37.8355 174.384C37.9311 174.476 37.9908 174.603 37.9939 174.736V179.101C37.9943 179.168 37.9784 179.233 37.9529 179.295C37.9273 179.357 37.8889 179.414 37.8414 179.462C37.7939 179.509 37.7392 179.548 37.6771 179.573C37.6149 179.599 37.5506 179.612 37.4835 179.612H35.6763ZM315.886 171.482C313.432 171.5 311.028 170.781 308.986 169.42C306.944 168.058 305.355 166.118 304.427 163.845C303.141 160.801 303.119 157.37 304.362 154.308C305.605 151.246 308.013 148.805 311.057 147.519C314.101 146.233 317.53 146.208 320.592 147.452C323.654 148.695 326.101 151.102 327.387 154.146C328.036 155.681 328.375 157.33 328.384 158.996V166.16H356.648V158.996C356.667 157.57 356.252 156.172 355.451 154.991C354.694 153.817 353.586 152.911 352.283 152.407C351.402 152.026 350.448 151.833 349.49 151.835H333.536L329.775 148.074L349.619 128.221L349.713 128.285C350.684 129.278 351.223 130.614 351.215 132.002C351.207 133.391 350.654 134.72 349.671 135.702L338.852 146.516H349.478C351.12 146.506 352.747 146.822 354.266 147.446C355.785 148.07 357.165 148.99 358.326 150.151C359.487 151.312 360.407 152.692 361.031 154.211C361.655 155.73 361.973 157.357 361.964 158.999V168.845C361.947 169.538 361.668 170.199 361.178 170.69C360.687 171.181 360.023 171.465 359.329 171.482H315.886ZM311.89 153.035C310.748 153.824 309.853 154.926 309.315 156.206C308.929 157.087 308.736 158.037 308.74 158.999C308.748 160.418 309.16 161.804 309.937 162.992C310.721 164.139 311.827 165.032 313.111 165.565C313.982 165.962 314.928 166.168 315.886 166.166H323.068V159.002C323.047 157.578 322.622 156.189 321.842 154.997C320.775 153.427 319.134 152.342 317.271 151.975C315.408 151.609 313.472 151.991 311.89 153.04V153.035ZM20.2857 171.482C18.335 171.48 16.4115 171.018 14.6705 170.138C12.9295 169.259 11.417 167.985 10.2581 166.415C9.09914 164.846 8.32809 163.028 7.99909 161.105C7.6701 159.183 7.79155 157.209 8.36288 155.343C8.93421 153.478 9.93545 151.773 11.2849 150.365C12.6344 148.956 14.2984 147.882 16.1374 147.232C17.9763 146.581 19.9407 146.369 21.8758 146.615C23.8109 146.862 25.6624 147.558 27.2798 148.649C29.2832 150.008 30.8548 151.913 31.8095 154.138C32.4554 155.675 32.7852 157.328 32.7777 158.996V166.16H44.4482V151.782C44.4621 150.4 45.0115 149.078 45.9855 148.097C46.9596 147.116 48.2824 146.554 49.6645 146.53H49.7701V166.16H62.0097V151.706C62.0435 150.335 62.599 149.029 63.5705 148.062C64.542 147.095 65.8497 146.54 67.2201 146.513H67.3257V166.16H78.6618C78.1515 165.441 77.7229 164.668 77.3827 163.854C76.7344 162.317 76.399 160.665 76.3969 158.996V135.998C77.8067 136.001 79.1556 136.565 80.1522 137.562C81.1488 138.559 81.7105 139.91 81.7129 141.32V146.428H81.7305V146.527H97.6785C100.164 146.52 102.589 147.264 104.643 148.663C106.645 150.024 108.216 151.929 109.173 154.152C109.82 155.69 110.153 157.342 110.153 159.011V168.836C110.144 169.536 109.865 170.204 109.372 170.702C109.127 170.953 108.833 171.152 108.51 171.288C108.187 171.425 107.84 171.496 107.489 171.497L20.2857 171.482ZM81.7364 158.999C81.7328 159.94 81.9123 160.872 82.2703 161.742C82.6284 162.612 83.1546 163.403 83.8194 164.068C84.4841 164.734 85.2793 165.264 86.1488 165.623C87.0183 165.983 87.948 166.165 88.8889 166.163H104.854V158.999C104.846 157.591 104.423 156.215 103.646 155.041C102.868 153.867 101.77 152.946 100.477 152.389C99.589 152.023 98.6393 151.834 97.6785 151.829H81.7305L81.7364 158.999ZM16.2899 153.052C15.5087 153.578 14.8387 154.253 14.3184 155.038C13.7981 155.823 13.4364 156.704 13.2564 157.629C13.0764 158.553 13.0803 159.505 13.2681 160.428C13.4559 161.35 13.8267 162.226 14.3536 163.006C15.1328 164.159 16.2289 165.061 17.5104 165.603C18.3882 165.976 19.3318 166.167 20.2857 166.166H27.4617V159.002C27.4525 157.596 27.0338 156.223 26.2589 155.05C25.4839 153.877 24.3858 152.952 23.0963 152.392C22.2046 152.023 21.2507 151.833 20.2857 151.832C18.8587 151.837 17.4649 152.26 16.2782 153.052H16.2899ZM190.233 171.467C187.749 171.47 185.319 170.731 183.256 169.346C181.264 167.983 179.701 166.079 178.75 163.86C177.462 160.811 177.435 157.375 178.68 154.308C179.924 151.241 182.338 148.794 185.386 147.504C186.922 146.848 188.575 146.513 190.245 146.519C191.883 146.516 193.506 146.838 195.021 147.463C196.535 148.089 197.911 149.007 199.069 150.165C200.228 151.324 201.148 152.7 201.774 154.214C202.4 155.728 202.721 157.352 202.719 158.99V168.812C202.717 169.513 202.446 170.186 201.962 170.693C201.713 170.941 201.413 171.138 201.088 171.271C200.763 171.404 200.413 171.472 200.061 171.47L190.233 171.467ZM186.243 153.052C185.087 153.825 184.181 154.92 183.638 156.2C183.257 157.081 183.063 158.03 183.069 158.99C183.059 160.419 183.479 161.818 184.272 163.006C184.928 163.98 185.816 164.779 186.853 165.33C187.89 165.881 189.047 166.167 190.221 166.166H197.397V158.99C197.395 157.57 196.976 156.182 196.194 154.997C195.404 153.845 194.304 152.939 193.02 152.386C192.135 152.018 191.186 151.828 190.227 151.826C188.801 151.824 187.404 152.25 186.225 153.052H186.243ZM275.764 171.4H207.982V136.022H208.012C209.372 136.022 210.677 136.546 211.661 137.486C212.646 138.425 213.234 139.708 213.298 141.068V166.066H224.799V151.582C224.845 150.218 225.41 148.922 226.383 147.965C227.355 147.008 228.662 146.462 230.027 146.436H230.091V166.066H240.911V158.914C240.915 156.461 241.634 154.065 242.988 152.019C244.342 149.974 246.271 148.368 248.527 147.405C250.066 146.764 251.712 146.437 253.379 146.436C256.687 146.441 259.861 147.758 262.198 150.098C264.536 152.437 265.846 155.607 265.848 158.914C265.845 161.399 265.108 163.828 263.73 165.896C263.676 165.959 263.631 166.015 263.583 166.066H276.967V141.332C276.967 139.938 277.514 138.599 278.492 137.606C279.47 136.613 280.801 136.043 282.195 136.022H282.289V168.739C282.29 169.088 282.223 169.432 282.089 169.754C281.955 170.076 281.757 170.369 281.508 170.614C281.262 170.864 280.969 171.063 280.646 171.2C280.323 171.338 279.976 171.409 279.625 171.412L275.764 171.4ZM249.378 152.955C248.221 153.737 247.318 154.833 246.767 156.115C246.401 157 246.207 157.947 246.203 158.905V166.057H253.379C254.786 166.055 256.166 165.641 257.34 164.866C258.514 164.091 259.436 162.991 259.992 161.698C260.366 160.815 260.557 159.864 260.555 158.905C260.568 157.474 260.137 156.074 259.323 154.897C258.261 153.325 256.621 152.239 254.758 151.876C252.896 151.512 250.965 151.901 249.389 152.958L249.378 152.955ZM292.885 171.388H292.862C291.473 171.381 290.142 170.83 289.154 169.854C288.165 168.877 287.599 167.552 287.575 166.163V136.001C288.985 136.004 290.339 136.568 291.336 137.565C292.334 138.562 292.894 139.913 292.897 141.323V171.391L292.885 171.388ZM167.132 171.388H167.115C165.727 171.384 164.401 170.834 163.412 169.86C162.424 168.885 161.853 167.563 161.828 166.175V136.001C162.527 136.001 163.219 136.138 163.864 136.406C164.509 136.673 165.096 137.068 165.589 137.562C166.083 138.056 166.473 138.641 166.739 139.287C167.006 139.932 167.14 140.625 167.138 141.323V171.391L167.132 171.388ZM404.68 145.251C404.613 145.252 404.548 145.241 404.486 145.216C404.424 145.191 404.369 145.152 404.322 145.105C404.275 145.058 404.241 145.002 404.216 144.94C404.191 144.879 404.174 144.813 404.175 144.747V140.381C404.174 140.246 404.227 140.117 404.322 140.02C404.416 139.924 404.545 139.869 404.68 139.868H406.463C407.284 139.884 408.066 140.223 408.64 140.809C409.214 141.396 409.535 142.183 409.532 143.004V144.747C409.533 144.813 409.522 144.878 409.497 144.94C409.472 145.002 409.432 145.06 409.385 145.107C409.338 145.155 409.283 145.191 409.221 145.216C409.159 145.241 409.094 145.252 409.027 145.251H404.68ZM398.601 145.251C398.534 145.253 398.464 145.241 398.401 145.216C398.339 145.191 398.279 145.154 398.231 145.107C398.183 145.06 398.146 145.005 398.12 144.943C398.094 144.881 398.079 144.814 398.079 144.747V143.004C398.076 142.183 398.397 141.396 398.971 140.809C399.544 140.223 400.327 139.884 401.147 139.868H402.949C403.081 139.872 403.21 139.93 403.301 140.026C403.392 140.122 403.438 140.249 403.436 140.381V144.747C403.437 144.812 403.43 144.877 403.406 144.937C403.383 144.998 403.346 145.055 403.301 145.102C403.255 145.149 403.202 145.184 403.142 145.21C403.082 145.236 403.014 145.25 402.949 145.251H398.601ZM316.843 145.251C316.776 145.252 316.711 145.241 316.649 145.216C316.587 145.191 316.532 145.151 316.485 145.105C316.437 145.058 316.399 145.002 316.373 144.94C316.347 144.879 316.332 144.813 316.332 144.747V140.381C316.333 140.246 316.389 140.116 316.485 140.02C316.58 139.924 316.707 139.869 316.843 139.868H318.632C319.454 139.88 320.234 140.216 320.809 140.804C321.385 141.391 321.705 142.182 321.701 143.004V144.747C321.703 144.812 321.695 144.877 321.672 144.937C321.648 144.998 321.611 145.055 321.566 145.102C321.521 145.149 321.467 145.184 321.408 145.21C321.348 145.236 321.279 145.25 321.214 145.251H316.843ZM310.764 145.251C310.697 145.253 310.627 145.241 310.564 145.216C310.502 145.191 310.448 145.155 310.4 145.107C310.352 145.06 310.314 145.005 310.289 144.943C310.263 144.881 310.252 144.814 310.253 144.747V143.004C310.251 142.181 310.569 141.391 311.145 140.804C311.722 140.217 312.505 139.88 313.328 139.868H315.135C315.201 139.869 315.262 139.882 315.323 139.909C315.384 139.935 315.441 139.976 315.487 140.023C315.533 140.071 315.569 140.126 315.593 140.188C315.617 140.249 315.63 140.315 315.628 140.381V144.747C315.63 144.812 315.617 144.879 315.593 144.94C315.569 145.002 315.533 145.057 315.487 145.105C315.441 145.152 315.384 145.188 315.323 145.213C315.262 145.238 315.201 145.252 315.135 145.251H310.764ZM54.8572 145.251C54.7906 145.252 54.7254 145.241 54.6636 145.216C54.6018 145.191 54.5464 145.155 54.4993 145.107C54.4522 145.06 54.4186 145.002 54.3937 144.94C54.3688 144.878 54.3514 144.813 54.3526 144.747V143.004C54.3486 142.181 54.6736 141.391 55.2503 140.804C55.8271 140.216 56.6099 139.879 57.4331 139.868H59.2344C59.3685 139.87 59.4989 139.927 59.5923 140.023C59.6858 140.12 59.7347 140.247 59.7331 140.381V144.747C59.7348 144.813 59.7282 144.879 59.7038 144.94C59.6794 145.002 59.6389 145.057 59.5923 145.105C59.5458 145.152 59.4893 145.191 59.428 145.216C59.3668 145.241 59.3006 145.252 59.2344 145.251H54.8572ZM21.1658 145.251C21.0992 145.252 21.034 145.241 20.9722 145.216C20.9104 145.191 20.855 145.155 20.8079 145.107C20.7608 145.06 20.7272 145.002 20.7023 144.94C20.6774 144.878 20.66 144.813 20.6612 144.747V140.381C20.6604 140.314 20.6773 140.25 20.7023 140.188C20.7273 140.125 20.761 140.068 20.8079 140.02C20.8548 139.973 20.9106 139.935 20.9722 139.909C21.0339 139.883 21.0989 139.868 21.1658 139.868H22.973C23.7939 139.884 24.5753 140.223 25.1499 140.809C25.7245 141.396 26.0419 142.183 26.0418 143.004V144.747C26.043 144.813 26.0315 144.878 26.0066 144.94C25.9816 145.002 25.9481 145.06 25.9009 145.107C25.8538 145.155 25.7984 145.191 25.7366 145.216C25.6749 145.241 25.6038 145.252 25.5372 145.251H21.1658ZM15.0812 145.251C15.014 145.252 14.9442 145.241 14.8817 145.216C14.8193 145.191 14.7655 145.154 14.7174 145.107C14.6694 145.061 14.6263 145.005 14.6001 144.943C14.5738 144.881 14.5653 144.814 14.5649 144.747V143.004C14.5623 142.183 14.8771 141.396 15.4509 140.809C16.0247 140.223 16.8072 139.884 17.6277 139.868H19.429C19.5643 139.87 19.6975 139.924 19.7928 140.02C19.8882 140.116 19.9438 140.246 19.9454 140.381V144.747C19.945 144.813 19.9302 144.879 19.9043 144.94C19.8784 145.002 19.8403 145.058 19.7928 145.105C19.7454 145.151 19.6903 145.188 19.6285 145.213C19.5668 145.238 19.4957 145.252 19.429 145.251H15.0812ZM401.288 139.26C401.221 139.262 401.151 139.253 401.089 139.228C401.026 139.204 400.973 139.166 400.924 139.12C400.876 139.073 400.833 139.017 400.807 138.955C400.781 138.893 400.772 138.826 400.772 138.759V137.004C400.771 136.183 401.093 135.396 401.67 134.81C402.246 134.224 403.025 133.887 403.846 133.874H405.654C405.79 133.877 405.921 133.933 406.017 134.03C406.114 134.126 406.168 134.257 406.17 134.393V138.759C406.166 138.893 406.108 139.023 406.012 139.117C405.915 139.21 405.788 139.261 405.654 139.26H401.288Z" fill="#0E72AD"/>
<path d="M417.924 201.861C417.739 201.668 417.516 201.515 417.269 201.411C417.022 201.308 416.756 201.257 416.488 201.26C416.062 201.24 415.641 201.361 415.29 201.605C414.939 201.848 414.678 202.2 414.548 202.606L409.549 215.855L404.015 202.615C403.898 202.227 403.66 201.887 403.335 201.643C403.011 201.4 402.618 201.267 402.212 201.263C401.938 201.254 401.664 201.303 401.41 201.407C401.155 201.51 400.925 201.666 400.734 201.864C400.368 202.249 400.169 202.763 400.179 203.294C400.167 203.533 400.211 203.772 400.308 203.991L405.902 217.209C406.12 217.696 406.475 218.109 406.925 218.396C407.374 218.683 407.898 218.832 408.431 218.826L406.343 224.35C406.2 224.689 406.111 225.048 406.082 225.414C406.079 225.682 406.131 225.948 406.234 226.195C406.338 226.442 406.49 226.666 406.683 226.853C406.864 227.043 407.081 227.194 407.322 227.297C407.564 227.401 407.823 227.454 408.086 227.454C408.487 227.438 408.874 227.302 409.197 227.063C409.552 226.834 409.829 226.501 409.99 226.111L418.186 204.481C418.367 204.125 418.48 203.739 418.519 203.342C418.525 203.069 418.475 202.798 418.372 202.545C418.268 202.292 418.114 202.063 417.918 201.873M390.057 201.272C388.859 201.253 387.669 201.479 386.56 201.935C385.452 202.392 384.448 203.07 383.611 203.928C382.746 204.782 382.066 205.803 381.61 206.929C381.154 208.055 380.933 209.263 380.961 210.477V217.849C380.961 218.114 381.013 218.377 381.117 218.621C381.22 218.865 381.371 219.086 381.562 219.27C381.744 219.462 381.964 219.615 382.208 219.719C382.451 219.824 382.713 219.877 382.978 219.877C383.243 219.877 383.505 219.824 383.749 219.719C383.992 219.615 384.212 219.462 384.395 219.27C384.586 219.087 384.738 218.866 384.841 218.622C384.944 218.377 384.997 218.115 384.995 217.849V210.228C384.967 209.518 385.084 208.811 385.34 208.149C385.595 207.486 385.983 206.883 386.48 206.376C386.942 205.9 387.496 205.524 388.11 205.27C388.723 205.017 389.382 204.893 390.046 204.904C390.708 204.893 391.366 205.018 391.978 205.271C392.59 205.524 393.144 205.9 393.605 206.376C394.106 206.88 394.497 207.483 394.752 208.146C395.008 208.809 395.122 209.518 395.09 210.228V217.849C395.089 218.112 395.14 218.372 395.241 218.615C395.342 218.858 395.489 219.079 395.675 219.264C395.855 219.456 396.073 219.609 396.315 219.712C396.557 219.816 396.818 219.868 397.081 219.865C397.347 219.864 397.61 219.81 397.855 219.707C398.1 219.604 398.322 219.454 398.508 219.264C398.707 219.083 398.865 218.863 398.974 218.617C399.083 218.372 399.139 218.106 399.139 217.837V210.468C399.162 209.256 398.94 208.052 398.484 206.929C398.029 205.806 397.35 204.787 396.49 203.934C395.655 203.073 394.653 202.392 393.545 201.934C392.437 201.475 391.247 201.248 390.049 201.266M371.963 214.635C372.943 213.497 373.467 212.038 373.435 210.537C373.475 209.042 372.937 207.59 371.933 206.481C371.47 205.951 370.895 205.529 370.251 205.245C369.606 204.961 368.906 204.822 368.202 204.838C367.469 204.816 366.741 204.954 366.066 205.241C365.392 205.528 364.788 205.959 364.297 206.503C363.269 207.591 362.707 209.038 362.732 210.534C362.696 212.05 363.259 213.519 364.3 214.623C364.787 215.169 365.387 215.603 366.059 215.893C366.731 216.184 367.458 216.324 368.19 216.305C368.901 216.329 369.608 216.191 370.258 215.901C370.908 215.611 371.482 215.177 371.939 214.632M376.677 201.855C376.87 202.041 377.022 202.264 377.126 202.511C377.229 202.758 377.281 203.023 377.278 203.291V217.849C377.282 218.118 377.23 218.385 377.127 218.633C377.024 218.881 376.871 219.105 376.677 219.291C376.492 219.48 376.272 219.631 376.028 219.734C375.785 219.837 375.523 219.891 375.259 219.892C374.995 219.891 374.735 219.837 374.493 219.734C374.25 219.63 374.031 219.48 373.847 219.291C373.552 219.013 373.352 218.65 373.273 218.252C371.737 219.337 369.896 219.908 368.016 219.88C366.813 219.899 365.62 219.666 364.512 219.196C363.405 218.727 362.407 218.032 361.584 217.155C360.73 216.283 360.058 215.249 359.607 214.114C359.157 212.98 358.936 211.767 358.958 210.546C358.934 209.327 359.156 208.116 359.611 206.985C360.065 205.854 360.744 204.827 361.605 203.964C362.432 203.1 363.428 202.415 364.531 201.952C365.634 201.49 366.82 201.259 368.016 201.275C369.897 201.242 371.739 201.812 373.273 202.901C373.352 202.504 373.551 202.142 373.844 201.864C374.222 201.487 374.734 201.275 375.268 201.275C375.802 201.275 376.314 201.487 376.692 201.864M343.571 206.439C342.589 207.538 342.066 208.971 342.108 210.444V210.856C342.068 212.292 342.598 213.687 343.583 214.734C344.06 215.244 344.64 215.646 345.285 215.913C345.931 216.18 346.625 216.305 347.323 216.281C348.055 216.303 348.782 216.167 349.456 215.882C350.131 215.597 350.735 215.169 351.229 214.629C351.742 214.097 352.144 213.468 352.413 212.779C352.681 212.09 352.809 211.354 352.791 210.615C352.828 209.1 352.267 207.631 351.229 206.527C350.739 205.979 350.136 205.545 349.461 205.254C348.787 204.964 348.057 204.824 347.323 204.844C346.619 204.819 345.918 204.949 345.27 205.224C344.621 205.5 344.041 205.915 343.571 206.439ZM354.031 204C355.737 205.773 356.67 208.15 356.624 210.609C356.646 211.822 356.426 213.027 355.978 214.154C355.53 215.28 354.862 216.307 354.013 217.173C353.219 218.034 352.253 218.719 351.178 219.184C350.103 219.65 348.942 219.886 347.771 219.877C345.773 219.927 343.833 219.21 342.348 217.873V225.408C342.354 225.677 342.303 225.944 342.2 226.192C342.096 226.44 341.942 226.664 341.747 226.85C341.564 227.039 341.344 227.189 341.102 227.293C340.859 227.396 340.599 227.45 340.335 227.451C340.068 227.453 339.803 227.401 339.557 227.298C339.311 227.195 339.088 227.042 338.902 226.85C338.71 226.663 338.558 226.44 338.455 226.193C338.352 225.947 338.299 225.681 338.302 225.414V203.291C338.299 203.024 338.351 202.759 338.455 202.513C338.558 202.267 338.71 202.044 338.902 201.858C339.284 201.48 339.8 201.268 340.337 201.268C340.874 201.268 341.389 201.48 341.771 201.858C341.962 202.041 342.113 202.261 342.216 202.504C342.319 202.747 342.372 203.009 342.372 203.273C343.858 201.937 345.798 201.22 347.795 201.266C348.971 201.256 350.137 201.494 351.216 201.964C352.294 202.434 353.262 203.125 354.056 203.994M326.24 201.266C325.004 201.259 323.783 201.533 322.669 202.067C321.555 202.601 320.576 203.381 319.808 204.349C319.045 203.396 318.079 202.625 316.981 202.091C315.883 201.557 314.681 201.275 313.46 201.263C312.336 201.237 311.218 201.442 310.177 201.867C309.135 202.291 308.192 202.925 307.407 203.73C306.596 204.573 305.964 205.57 305.548 206.663C305.131 207.756 304.939 208.921 304.982 210.09V217.849C304.982 218.114 305.035 218.377 305.138 218.621C305.241 218.865 305.393 219.086 305.583 219.27C305.766 219.462 305.986 219.614 306.229 219.718C306.473 219.822 306.735 219.876 307 219.876C307.264 219.876 307.526 219.822 307.77 219.718C308.013 219.614 308.233 219.462 308.416 219.27C308.607 219.086 308.759 218.866 308.862 218.621C308.965 218.377 309.018 218.114 309.017 217.849V209.678C308.986 209.037 309.081 208.397 309.299 207.794C309.517 207.19 309.852 206.636 310.285 206.163C310.687 205.741 311.173 205.408 311.713 205.185C312.252 204.963 312.832 204.856 313.415 204.871C313.995 204.854 314.571 204.961 315.107 205.184C315.642 205.406 316.124 205.74 316.521 206.163C316.954 206.636 317.287 207.19 317.503 207.794C317.718 208.398 317.81 209.038 317.774 209.678V217.849C317.773 218.114 317.826 218.377 317.929 218.621C318.032 218.865 318.184 219.086 318.375 219.27C318.556 219.463 318.775 219.616 319.017 219.721C319.26 219.825 319.521 219.879 319.785 219.879C320.05 219.879 320.311 219.825 320.553 219.721C320.796 219.616 321.015 219.463 321.196 219.27C321.382 219.085 321.529 218.864 321.629 218.621C321.729 218.378 321.78 218.118 321.779 217.855V209.684C321.743 209.043 321.837 208.402 322.054 207.798C322.271 207.194 322.608 206.64 323.043 206.169C323.445 205.747 323.93 205.414 324.468 205.192C325.007 204.969 325.586 204.862 326.168 204.877C326.748 204.865 327.323 204.977 327.857 205.205C328.39 205.434 328.868 205.774 329.259 206.202C329.691 206.669 330.025 207.217 330.243 207.814C330.46 208.411 330.557 209.046 330.527 209.681V217.852C330.527 218.121 330.583 218.387 330.692 218.632C330.801 218.878 330.959 219.098 331.158 219.279C331.344 219.469 331.566 219.619 331.811 219.722C332.056 219.826 332.319 219.879 332.585 219.88C332.847 219.882 333.107 219.828 333.347 219.721C333.587 219.615 333.801 219.458 333.975 219.261C334.342 218.884 334.546 218.378 334.543 217.852V210.09C334.587 208.924 334.398 207.762 333.988 206.67C333.578 205.578 332.955 204.578 332.155 203.73C331.383 202.926 330.452 202.291 329.421 201.866C328.39 201.442 327.282 201.236 326.168 201.263M296.655 214.59C297.708 213.505 298.289 212.046 298.268 210.534C298.277 209.795 298.14 209.062 297.863 208.376C297.587 207.691 297.177 207.067 296.658 206.542C296.159 206.006 295.554 205.581 294.882 205.293C294.209 205.005 293.484 204.862 292.752 204.871C292.016 204.858 291.286 205 290.608 205.288C289.931 205.575 289.321 206.003 288.82 206.542C288.296 207.065 287.882 207.688 287.602 208.373C287.322 209.059 287.183 209.794 287.191 210.534C287.178 211.286 287.314 212.033 287.592 212.731C287.869 213.43 288.282 214.067 288.808 214.605C289.305 215.155 289.914 215.591 290.595 215.885C291.275 216.178 292.011 216.321 292.752 216.305C293.488 216.313 294.216 216.165 294.89 215.869C295.563 215.573 296.166 215.137 296.658 214.59M299.379 203.967C300.262 204.816 300.96 205.837 301.431 206.967C301.902 208.098 302.135 209.313 302.116 210.537C302.134 211.767 301.901 212.987 301.431 214.124C300.961 215.26 300.264 216.289 299.382 217.146C298.521 218.031 297.488 218.73 296.347 219.202C295.206 219.674 293.981 219.907 292.746 219.889C291.513 219.913 290.288 219.683 289.146 219.215C288.005 218.747 286.972 218.05 286.11 217.167C285.237 216.305 284.547 215.275 284.082 214.139C283.618 213.003 283.388 211.785 283.406 210.558C283.384 209.334 283.612 208.118 284.077 206.986C284.542 205.853 285.234 204.828 286.11 203.973C286.976 203.1 288.011 202.411 289.151 201.95C290.291 201.488 291.513 201.263 292.743 201.287C293.974 201.268 295.196 201.497 296.336 201.962C297.476 202.427 298.51 203.117 299.376 203.991M278.212 214.551C276.755 215.655 274.978 216.256 273.15 216.263C271.995 216.282 270.85 216.049 269.793 215.583C268.737 215.116 267.794 214.426 267.03 213.559C265.404 211.832 264.509 209.542 264.534 207.169C264.516 204.804 265.41 202.522 267.03 200.798C267.791 199.926 268.733 199.23 269.79 198.759C270.846 198.288 271.993 198.053 273.15 198.07C274.788 198.07 276.389 198.563 277.743 199.485C278.086 199.695 278.489 199.785 278.889 199.74C279.288 199.694 279.661 199.517 279.948 199.235C280.126 199.068 280.265 198.866 280.359 198.641C280.453 198.417 280.498 198.175 280.492 197.932C280.454 197.499 280.3 197.085 280.048 196.732C279.795 196.38 279.453 196.101 279.056 195.925C278.144 195.386 277.149 195.001 276.112 194.783C275.14 194.56 274.147 194.442 273.15 194.429C271.485 194.411 269.833 194.737 268.299 195.386C266.765 196.034 265.381 196.992 264.234 198.199C263.051 199.366 262.114 200.76 261.481 202.296C260.847 203.832 260.529 205.481 260.544 207.142C260.527 208.81 260.846 210.465 261.484 212.006C262.122 213.548 263.064 214.945 264.255 216.113C265.402 217.32 266.786 218.277 268.32 218.925C269.854 219.574 271.506 219.899 273.171 219.88C275.735 219.917 278.242 219.121 280.315 217.612C280.6 217.441 280.838 217.2 281.004 216.912C281.171 216.624 281.261 216.298 281.267 215.966C281.274 215.714 281.227 215.463 281.129 215.231C281.031 214.999 280.885 214.791 280.699 214.62C280.368 214.312 279.936 214.133 279.484 214.116C279.031 214.099 278.587 214.245 278.233 214.527M245.487 201.266C244.425 201.239 243.368 201.434 242.385 201.838C241.403 202.243 240.515 202.848 239.78 203.616C239.042 204.369 238.461 205.261 238.072 206.241C237.683 207.221 237.494 208.269 237.514 209.323V217.849C237.514 218.114 237.567 218.377 237.67 218.621C237.774 218.865 237.925 219.086 238.115 219.27C238.299 219.461 238.519 219.612 238.763 219.716C239.006 219.819 239.269 219.872 239.533 219.871C239.797 219.872 240.059 219.819 240.302 219.716C240.546 219.613 240.765 219.461 240.948 219.27C241.139 219.087 241.291 218.866 241.395 218.622C241.498 218.377 241.55 218.115 241.549 217.849V208.837C241.512 207.792 241.89 206.774 242.6 206.007C242.943 205.636 243.362 205.343 243.829 205.15C244.296 204.957 244.799 204.868 245.304 204.889C246.192 204.953 247.039 205.288 247.729 205.851C248.098 206.143 248.564 206.289 249.034 206.258C249.505 206.227 249.947 206.023 250.276 205.685C250.45 205.514 250.588 205.31 250.683 205.086C250.778 204.861 250.827 204.62 250.829 204.376C250.829 204.081 250.761 203.79 250.63 203.526C250.499 203.262 250.309 203.031 250.075 202.852C248.787 201.777 247.153 201.207 245.475 201.248M222.752 206.097C221.909 206.834 221.292 207.796 220.973 208.87H231.23C230.985 207.827 230.427 206.883 229.631 206.166C228.714 205.26 227.475 204.756 226.186 204.763C224.909 204.749 223.677 205.232 222.749 206.109M232.458 203.862C233.258 204.633 233.895 205.557 234.332 206.579C234.768 207.6 234.995 208.699 235 209.81C235.005 210.443 234.771 211.055 234.345 211.522C234.143 211.761 233.891 211.953 233.607 212.084C233.323 212.215 233.014 212.283 232.702 212.283H220.985C221.325 213.364 221.968 214.326 222.839 215.052C223.941 215.868 225.274 216.311 226.645 216.316C228.016 216.321 229.353 215.887 230.461 215.079C230.819 214.866 231.239 214.777 231.653 214.826C232.068 214.876 232.454 215.061 232.753 215.353C232.915 215.519 233.043 215.716 233.129 215.932C233.214 216.148 233.256 216.379 233.251 216.612C233.268 216.941 233.193 217.268 233.034 217.557C232.875 217.846 232.638 218.084 232.35 218.246C230.543 219.328 228.472 219.892 226.366 219.877C225.119 219.904 223.88 219.677 222.724 219.209C221.568 218.741 220.519 218.042 219.643 217.155C218.767 216.295 218.076 215.265 217.611 214.129C217.146 212.993 216.917 211.774 216.939 210.546C216.92 209.322 217.153 208.107 217.624 206.976C218.095 205.846 218.793 204.825 219.676 203.976C220.526 203.108 221.543 202.422 222.665 201.957C223.787 201.492 224.992 201.26 226.207 201.272C227.376 201.25 228.537 201.469 229.617 201.917C230.697 202.365 231.672 203.031 232.482 203.874M214.571 205.292C214.812 205.293 215.049 205.247 215.271 205.155C215.493 205.063 215.694 204.928 215.863 204.757C216.045 204.589 216.189 204.385 216.286 204.158C216.383 203.931 216.432 203.685 216.428 203.438C216.433 203.195 216.387 202.953 216.293 202.729C216.198 202.504 216.058 202.302 215.881 202.134C215.709 201.965 215.504 201.832 215.279 201.743C215.054 201.654 214.813 201.612 214.571 201.618H211.793V199.031C211.794 198.768 211.742 198.507 211.639 198.266C211.535 198.024 211.383 197.806 211.192 197.625C210.81 197.252 210.297 197.043 209.763 197.043C209.229 197.043 208.717 197.252 208.335 197.625C208.143 197.805 207.99 198.023 207.886 198.265C207.783 198.507 207.731 198.768 207.734 199.031V201.606H206.773C206.531 201.604 206.292 201.654 206.071 201.751C205.85 201.848 205.652 201.991 205.49 202.17C205.322 202.334 205.188 202.529 205.097 202.745C205.005 202.96 204.957 203.192 204.955 203.426C204.949 203.668 204.992 203.908 205.081 204.132C205.17 204.357 205.303 204.561 205.472 204.733C205.637 204.911 205.839 205.053 206.063 205.147C206.287 205.242 206.529 205.288 206.773 205.283H207.734V214.863C207.721 215.471 207.831 216.076 208.056 216.641C208.281 217.206 208.617 217.72 209.044 218.153C209.475 218.601 209.994 218.955 210.568 219.193C211.142 219.431 211.76 219.547 212.381 219.535H214.1C214.342 219.54 214.583 219.497 214.808 219.408C215.033 219.319 215.237 219.185 215.41 219.015C215.586 218.848 215.725 218.646 215.819 218.422C215.912 218.198 215.957 217.957 215.95 217.714C215.955 217.471 215.909 217.229 215.817 217.003C215.726 216.777 215.589 216.573 215.416 216.401C215.244 216.227 215.04 216.089 214.813 215.996C214.587 215.903 214.344 215.857 214.1 215.861H212.763C212.501 215.856 212.252 215.748 212.069 215.56C211.97 215.474 211.892 215.366 211.84 215.246C211.788 215.125 211.764 214.994 211.769 214.863V205.286L214.571 205.292ZM197.832 214.641C198.812 213.503 199.336 212.044 199.304 210.543C199.343 209.048 198.806 207.596 197.802 206.487C197.339 205.957 196.764 205.535 196.119 205.251C195.475 204.967 194.775 204.828 194.071 204.844C193.338 204.822 192.61 204.96 191.935 205.247C191.261 205.535 190.657 205.965 190.166 206.509C189.139 207.597 188.579 209.044 188.603 210.54C188.567 212.056 189.129 213.525 190.169 214.629C190.658 215.177 191.26 215.612 191.935 215.902C192.61 216.193 193.34 216.332 194.074 216.311C194.784 216.335 195.491 216.196 196.14 215.907C196.789 215.617 197.364 215.183 197.82 214.638M202.51 201.861C202.702 202.047 202.855 202.27 202.958 202.517C203.062 202.764 203.113 203.029 203.111 203.297V217.849C203.114 218.118 203.063 218.385 202.96 218.633C202.857 218.881 202.703 219.105 202.51 219.291C202.325 219.48 202.105 219.63 201.862 219.733C201.62 219.837 201.359 219.891 201.095 219.892C200.831 219.89 200.571 219.837 200.328 219.733C200.086 219.63 199.867 219.48 199.683 219.291C199.389 219.012 199.188 218.649 199.109 218.252C197.574 219.337 195.734 219.907 193.855 219.88C192.652 219.898 191.458 219.665 190.35 219.196C189.242 218.727 188.244 218.032 187.42 217.155C186.567 216.282 185.895 215.249 185.445 214.114C184.995 212.979 184.775 211.767 184.797 210.546C184.773 209.327 184.995 208.116 185.449 206.985C185.904 205.854 186.582 204.827 187.444 203.964C188.271 203.1 189.266 202.415 190.369 201.952C191.472 201.49 192.659 201.259 193.855 201.275C195.735 201.242 197.576 201.812 199.109 202.901C199.188 202.505 199.388 202.143 199.68 201.864C200.058 201.487 200.571 201.275 201.105 201.275C201.64 201.275 202.152 201.487 202.531 201.864M179.54 194.405C179.278 194.396 179.018 194.446 178.778 194.55C178.539 194.654 178.325 194.809 178.152 195.006C177.798 195.415 177.587 195.929 177.551 196.469L176.463 214.013L171.032 206.337C170.793 205.967 170.467 205.662 170.083 205.448C169.698 205.233 169.267 205.117 168.827 205.109C168.39 205.116 167.96 205.229 167.576 205.438C167.192 205.647 166.865 205.947 166.622 206.31L161.163 214.019L160.076 196.469C160.047 195.936 159.845 195.426 159.502 195.018C159.33 194.815 159.115 194.655 158.873 194.547C158.631 194.44 158.367 194.389 158.102 194.399C157.837 194.396 157.574 194.45 157.331 194.556C157.088 194.663 156.87 194.82 156.693 195.018C156.312 195.423 156.108 195.964 156.125 196.52L157.498 217.471C157.528 218.011 157.74 218.526 158.099 218.931C158.276 219.126 158.493 219.28 158.735 219.384C158.977 219.488 159.239 219.538 159.502 219.532H160.704C161.085 219.522 161.457 219.415 161.784 219.22C162.112 219.024 162.383 218.748 162.572 218.417L168.821 209.774L175.097 218.465C175.295 218.78 175.566 219.042 175.888 219.229C176.21 219.416 176.572 219.522 176.944 219.538H178.146C178.415 219.546 178.683 219.496 178.932 219.393C179.18 219.289 179.404 219.134 179.588 218.937C179.955 218.531 180.172 218.011 180.204 217.465L181.577 196.517V196.49C181.582 196.217 181.534 195.946 181.434 195.693C181.335 195.439 181.186 195.208 180.997 195.012C180.808 194.814 180.58 194.659 180.328 194.555C180.075 194.452 179.804 194.403 179.531 194.411M140.038 193.624C139.847 193.807 139.695 194.027 139.592 194.271C139.488 194.515 139.436 194.777 139.437 195.042V217.849C139.436 218.115 139.488 218.377 139.591 218.622C139.695 218.866 139.847 219.087 140.038 219.27C140.221 219.461 140.44 219.613 140.684 219.716C140.927 219.819 141.189 219.872 141.453 219.871C141.718 219.873 141.981 219.821 142.225 219.717C142.47 219.614 142.69 219.462 142.874 219.27C143.065 219.086 143.217 218.866 143.32 218.621C143.423 218.377 143.476 218.114 143.475 217.849V195.051C143.476 194.786 143.423 194.524 143.32 194.28C143.216 194.036 143.065 193.816 142.874 193.633C142.691 193.44 142.471 193.286 142.228 193.181C141.984 193.077 141.721 193.022 141.456 193.022C141.19 193.022 140.928 193.077 140.684 193.181C140.44 193.286 140.22 193.44 140.038 193.633M130.103 214.632C131.083 213.495 131.609 212.035 131.578 210.534C131.617 209.039 131.079 207.587 130.076 206.478C129.612 205.947 129.037 205.525 128.392 205.241C127.747 204.957 127.047 204.818 126.342 204.835C125.609 204.813 124.88 204.951 124.206 205.238C123.532 205.525 122.928 205.956 122.436 206.5C121.409 207.588 120.847 209.035 120.871 210.531C120.835 212.047 121.399 213.517 122.439 214.62C122.926 215.166 123.526 215.599 124.197 215.89C124.869 216.18 125.595 216.321 126.327 216.302C127.038 216.327 127.745 216.188 128.395 215.899C129.044 215.609 129.619 215.174 130.076 214.629M134.765 201.852C134.958 202.038 135.111 202.261 135.214 202.508C135.318 202.755 135.369 203.02 135.366 203.288V217.849C135.37 218.118 135.319 218.385 135.216 218.633C135.113 218.881 134.959 219.105 134.765 219.291C134.581 219.48 134.361 219.63 134.118 219.733C133.875 219.837 133.614 219.891 133.351 219.892C133.087 219.891 132.827 219.837 132.584 219.734C132.342 219.63 132.122 219.48 131.939 219.291C131.644 219.013 131.443 218.65 131.365 218.252C129.829 219.338 127.988 219.908 126.107 219.88C124.905 219.898 123.712 219.665 122.604 219.196C121.497 218.727 120.499 218.032 119.676 217.155C118.822 216.283 118.15 215.249 117.699 214.114C117.248 212.98 117.028 211.767 117.05 210.546C117.026 209.327 117.247 208.116 117.702 206.985C118.157 205.854 118.835 204.827 119.697 203.964C120.523 203.1 121.519 202.415 122.622 201.952C123.725 201.49 124.912 201.259 126.107 201.275C127.988 201.242 129.831 201.812 131.365 202.901C131.444 202.504 131.643 202.142 131.936 201.864C132.314 201.487 132.827 201.275 133.361 201.275C133.895 201.275 134.408 201.487 134.787 201.864M105.111 201.263C103.912 201.244 102.722 201.47 101.614 201.926C100.505 202.383 99.5017 203.061 98.6643 203.919C97.8 204.773 97.1192 205.794 96.6636 206.92C96.208 208.046 95.9872 209.254 96.0146 210.468V217.849C96.0142 218.114 96.0672 218.377 96.1705 218.621C96.2737 218.865 96.4251 219.086 96.6155 219.27C96.7982 219.462 97.0179 219.615 97.2614 219.719C97.5049 219.824 97.767 219.877 98.0319 219.877C98.2969 219.877 98.559 219.824 98.8025 219.719C99.046 219.615 99.2657 219.462 99.4484 219.27C99.6397 219.087 99.7915 218.866 99.8948 218.622C99.9981 218.377 100.051 218.115 100.049 217.849V210.228C100.021 209.518 100.138 208.811 100.393 208.149C100.648 207.486 101.036 206.883 101.533 206.376C101.995 205.9 102.549 205.524 103.162 205.271C103.775 205.018 104.433 204.893 105.096 204.904C105.759 204.893 106.417 205.018 107.029 205.271C107.641 205.524 108.195 205.9 108.656 206.376C109.157 206.88 109.548 207.483 109.803 208.146C110.059 208.809 110.173 209.518 110.14 210.228V217.849C110.139 218.112 110.191 218.373 110.291 218.616C110.392 218.858 110.54 219.079 110.726 219.264C110.906 219.456 111.124 219.609 111.366 219.712C111.608 219.816 111.869 219.868 112.132 219.865C112.398 219.864 112.661 219.81 112.905 219.707C113.15 219.604 113.372 219.453 113.559 219.264C113.757 219.083 113.916 218.863 114.024 218.617C114.133 218.371 114.189 218.106 114.19 217.837V210.468C114.213 209.256 113.991 208.052 113.535 206.929C113.08 205.806 112.401 204.787 111.54 203.934C110.706 203.073 109.704 202.392 108.596 201.933C107.488 201.474 106.298 201.247 105.099 201.266M87.696 214.593C88.7498 213.508 89.3301 212.049 89.3093 210.537C89.3191 209.798 89.1817 209.065 88.9053 208.379C88.6288 207.694 88.2188 207.07 87.699 206.545C87.2006 206.009 86.5957 205.584 85.9231 205.296C85.2505 205.008 84.5251 204.865 83.7936 204.874C83.0583 204.861 82.3284 205.002 81.6514 205.29C80.9743 205.577 80.3654 206.003 79.8641 206.542C79.34 207.065 78.926 207.688 78.6463 208.373C78.3667 209.059 78.2271 209.794 78.2359 210.534C78.2227 211.286 78.3587 212.033 78.6362 212.731C78.9136 213.43 79.3269 214.067 79.8521 214.605C80.3492 215.155 80.9587 215.591 81.6393 215.884C82.3199 216.178 83.0557 216.321 83.7967 216.305C84.5321 216.313 85.2609 216.164 85.9343 215.868C86.6077 215.573 87.2103 215.137 87.7021 214.59M90.4239 203.967C91.3058 204.816 92.0035 205.838 92.4738 206.968C92.9441 208.098 93.1769 209.313 93.1577 210.537C93.1761 211.767 92.9434 212.987 92.4738 214.123C92.0043 215.26 91.3077 216.288 90.4268 217.146C89.5655 218.031 88.5327 218.731 87.3916 219.202C86.2505 219.674 85.0252 219.908 83.7906 219.889C82.5574 219.91 81.3329 219.679 80.1926 219.208C79.0523 218.738 78.0204 218.04 77.1604 217.155C76.2871 216.293 75.5973 215.263 75.1326 214.127C74.6679 212.991 74.438 211.773 74.4566 210.546C74.4343 209.322 74.6626 208.106 75.1276 206.974C75.5925 205.842 76.2844 204.816 77.1604 203.961C78.0267 203.088 79.0613 202.399 80.2015 201.938C81.3417 201.476 82.5638 201.251 83.7936 201.275C85.0244 201.256 86.2462 201.486 87.386 201.95C88.5259 202.415 89.5601 203.105 90.4268 203.979M67.2766 195.156C67.0364 195.39 66.8466 195.67 66.719 195.98C66.5914 196.29 66.5287 196.623 66.5347 196.958C66.5289 197.293 66.5917 197.626 66.7193 197.936C66.8469 198.246 67.0365 198.527 67.2766 198.761C67.5104 199.001 67.7909 199.191 68.1009 199.32C68.4109 199.448 68.7438 199.511 69.0791 199.506C69.4146 199.511 69.7475 199.448 70.0576 199.32C70.3676 199.192 70.6481 199.002 70.8817 198.761C71.1219 198.527 71.3116 198.246 71.4393 197.936C71.5669 197.626 71.6297 197.293 71.6237 196.958C71.6297 196.623 71.5669 196.29 71.4393 195.98C71.3116 195.67 71.1219 195.39 70.8817 195.156C70.6455 194.918 70.3646 194.73 70.0553 194.601C69.7459 194.472 69.4142 194.406 69.0791 194.406C68.7441 194.406 68.4124 194.472 68.103 194.601C67.7937 194.73 67.5128 194.918 67.2766 195.156ZM67.6672 202.234C67.4807 202.419 67.333 202.639 67.2324 202.882C67.1319 203.125 67.0805 203.386 67.0813 203.649V217.849C67.0822 218.114 67.1358 218.375 67.2389 218.619C67.3421 218.862 67.4928 219.083 67.6822 219.267C67.8617 219.458 68.0786 219.61 68.3195 219.714C68.5604 219.817 68.82 219.87 69.0822 219.868C69.351 219.873 69.6179 219.822 69.866 219.719C70.1142 219.615 70.3383 219.462 70.5241 219.267C70.7107 219.082 70.8587 218.862 70.9592 218.619C71.0598 218.376 71.111 218.115 71.11 217.852V203.637C71.1108 203.374 71.0595 203.113 70.959 202.87C70.8584 202.627 70.7106 202.407 70.5241 202.222C70.3408 202.029 70.1203 201.875 69.8758 201.77C69.6312 201.665 69.3678 201.611 69.1017 201.611C68.8356 201.611 68.5722 201.665 68.3276 201.77C68.0831 201.875 67.8625 202.029 67.6792 202.222M62.8725 205.286C63.1121 205.287 63.3494 205.24 63.5707 205.148C63.792 205.056 63.9928 204.921 64.1613 204.751C64.3428 204.583 64.4868 204.379 64.5842 204.152C64.6815 203.925 64.7298 203.679 64.7261 203.432C64.7307 203.189 64.6845 202.947 64.5904 202.723C64.4962 202.498 64.3562 202.296 64.1793 202.128C64.0068 201.959 63.802 201.826 63.577 201.737C63.3519 201.648 63.1114 201.606 62.8696 201.612H60.0906V199.031C60.0925 198.768 60.0402 198.507 59.9368 198.266C59.8334 198.024 59.6813 197.806 59.4899 197.625C59.1081 197.252 58.5953 197.043 58.0613 197.043C57.5273 197.043 57.0146 197.252 56.6328 197.625C56.4407 197.805 56.2881 198.023 56.1847 198.265C56.0813 198.507 56.0293 198.768 56.032 199.031V201.606H55.0707C54.8292 201.604 54.5901 201.654 54.3691 201.751C54.148 201.849 53.95 201.991 53.7879 202.17C53.6201 202.334 53.4864 202.529 53.3946 202.745C53.3028 202.96 53.2547 203.192 53.2531 203.426C53.2474 203.668 53.2901 203.908 53.3789 204.132C53.4677 204.357 53.6006 204.561 53.7698 204.733C53.9355 204.911 54.137 205.053 54.3613 205.147C54.5855 205.242 54.8273 205.288 55.0707 205.283H56.032V214.863C56.0264 215.474 56.144 216.08 56.3779 216.645C56.6117 217.21 56.9569 217.721 57.3929 218.15C57.8239 218.598 58.3428 218.952 58.9172 219.19C59.4916 219.428 60.109 219.544 60.7306 219.532H62.4489C62.691 219.537 62.9317 219.494 63.1567 219.405C63.3817 219.316 63.5865 219.182 63.7588 219.012C63.9351 218.845 64.0743 218.643 64.1675 218.419C64.2606 218.195 64.3056 217.954 64.2995 217.711C64.3037 217.467 64.2586 217.226 64.1666 217C64.0747 216.774 63.938 216.57 63.7647 216.398C63.5936 216.224 63.3887 216.086 63.1625 215.993C62.9363 215.9 62.6935 215.854 62.4489 215.858H61.112C60.8512 215.852 60.603 215.744 60.4211 215.557C60.3222 215.471 60.2439 215.363 60.1919 215.243C60.14 215.122 60.1156 214.991 60.1207 214.86V205.286H62.8725ZM46.1302 214.635C47.1112 213.498 47.6367 212.038 47.6053 210.537C47.6486 209.044 47.1162 207.592 46.1182 206.481C45.6547 205.951 45.0803 205.529 44.4355 205.245C43.7907 204.961 43.0914 204.822 42.387 204.838C41.6543 204.816 40.9257 204.954 40.2514 205.241C39.5771 205.529 38.9733 205.959 38.4816 206.503C37.4554 207.591 36.8949 209.038 36.9195 210.534C36.8841 212.05 37.4475 213.519 38.4877 214.623C38.9765 215.171 39.5793 215.606 40.254 215.897C40.9286 216.187 41.6588 216.327 42.393 216.305C43.1036 216.329 43.8103 216.191 44.4594 215.901C45.1086 215.611 45.6831 215.177 46.1393 214.632M50.8287 201.855C51.0214 202.041 51.1742 202.264 51.2775 202.511C51.3808 202.758 51.4326 203.023 51.4296 203.291V217.849C51.4336 218.118 51.3822 218.385 51.2789 218.633C51.1755 218.881 51.0223 219.105 50.8287 219.291C50.6444 219.48 50.4245 219.631 50.1816 219.734C49.9387 219.837 49.6777 219.891 49.4138 219.892C49.1504 219.891 48.8899 219.837 48.6475 219.734C48.4051 219.63 48.1856 219.48 48.0019 219.291C47.7078 219.012 47.5073 218.649 47.428 218.252C45.8923 219.338 44.0514 219.908 42.1707 219.88C40.9681 219.898 39.7749 219.665 38.6673 219.196C37.5598 218.727 36.5624 218.032 35.7388 217.155C34.885 216.283 34.2131 215.249 33.7624 214.114C33.3116 212.98 33.091 211.767 33.1132 210.546C33.0889 209.327 33.3107 208.116 33.7655 206.985C34.2203 205.854 34.8986 204.827 35.7598 203.964C36.5866 203.1 37.5825 202.415 38.6855 201.952C39.7885 201.49 40.9748 201.259 42.1707 201.275C44.0517 201.242 45.8939 201.812 47.428 202.901C47.507 202.505 47.7051 202.143 47.9958 201.864C48.3742 201.487 48.8869 201.275 49.4213 201.275C49.9558 201.275 50.4684 201.487 50.8468 201.864M28.9884 194.997C29.1814 195.181 29.3344 195.404 29.4377 195.651C29.5411 195.897 29.5927 196.162 29.5893 196.43V217.483C29.59 217.749 29.5372 218.013 29.434 218.259C29.3307 218.504 29.1792 218.727 28.9884 218.913C28.8037 219.113 28.5792 219.272 28.3293 219.38C28.0794 219.488 27.8096 219.543 27.5374 219.541H26.0894C25.7183 219.544 25.3527 219.451 25.0276 219.272C24.7025 219.094 24.4288 218.834 24.2328 218.519L11.9697 200.807V217.819C11.9829 218.357 11.7894 218.88 11.429 219.279C11.2497 219.474 11.0311 219.628 10.7877 219.732C10.5442 219.835 10.2815 219.886 10.017 219.88C9.74911 219.885 9.48324 219.834 9.23607 219.73C8.9889 219.627 8.76583 219.473 8.58101 219.279C8.39249 219.089 8.24361 218.862 8.14306 218.614C8.0425 218.365 7.99225 218.099 7.99518 217.831V196.802C7.99627 196.536 8.04994 196.273 8.15305 196.027C8.25616 195.782 8.4067 195.559 8.59605 195.372C8.78055 195.173 9.00463 195.014 9.25395 194.906C9.50326 194.797 9.77231 194.742 10.044 194.744H11.447C11.82 194.741 12.1872 194.836 12.512 195.02C12.8368 195.203 13.1077 195.469 13.2976 195.79L25.5666 213.514V196.42C25.5564 195.892 25.7539 195.381 26.1164 194.997C26.302 194.808 26.5232 194.659 26.7672 194.556C27.0111 194.454 27.2729 194.402 27.5374 194.402C27.8018 194.402 28.0636 194.454 28.3076 194.556C28.5515 194.659 28.7727 194.808 28.9583 194.997" fill="#0E72AD"/>
<defs>
<linearGradient id="paint0_linear_935_189" x1="564.661" y1="174.041" x2="610.138" y2="227.802" gradientUnits="userSpaceOnUse">
<stop stop-color="#D3F0F9"/>
<stop offset="0.448" stop-color="#A2D0E0"/>
<stop offset="1" stop-color="#72A3C4"/>
</linearGradient>
<linearGradient id="paint1_linear_935_189" x1="524.332" y1="290.981" x2="524.332" y2="64.3881" gradientUnits="userSpaceOnUse">
<stop stop-color="#00AF8D"/>
<stop offset="0.634" stop-color="#288BC5"/>
<stop offset="1" stop-color="#11448C"/>
</linearGradient>
</defs>
</svg>
