<svg width="632" height="336" viewBox="0 0 632 336" fill="none" xmlns="http://www.w3.org/2000/svg">
<g clip-path="url(#clip0_176_811)">
<path d="M234.675 274.803C231.862 274.78 229.15 273.761 227.019 271.925C224.889 270.089 223.479 267.557 223.042 264.779V261.091C223.406 258.866 224.399 256.793 225.904 255.115C227.409 253.436 229.364 252.224 231.536 251.621C233.708 251.019 236.008 251.05 238.162 251.712C240.317 252.375 242.237 253.64 243.695 255.359C245.154 257.079 246.09 259.179 246.392 261.413C246.694 263.647 246.351 265.921 245.402 267.966C244.454 270.011 242.939 271.741 241.038 272.953C239.137 274.164 236.929 274.806 234.675 274.803ZM259.317 237.084C255.983 233.887 252.06 231.365 247.767 229.659C243.365 227.896 238.666 226.994 233.924 227.002C233.808 227.002 223.9 227.06 218.092 230.492C216.512 231.247 214.992 232.121 213.546 233.107C207.716 237.003 203.122 242.485 200.305 248.906C199.306 251.184 198.524 253.551 197.971 255.976C196.871 260.932 196.871 266.069 197.971 271.024C198.523 273.449 199.304 275.817 200.305 278.094C203.17 284.465 207.756 289.911 213.546 293.819C219.475 297.88 226.516 300.006 233.701 299.907C236.476 299.916 239.243 299.615 241.951 299.008C244.485 298.393 246.955 297.536 249.326 296.451C249.722 296.244 250.151 296.022 250.531 295.774C250.944 295.516 251.38 295.298 251.834 295.122C252.322 296.02 252.962 296.826 253.724 297.507C255.636 299.248 258.142 300.192 260.728 300.147C262.014 300.123 263.281 299.843 264.457 299.323C265.632 298.803 266.693 298.054 267.576 297.118C268.447 296.234 269.136 295.184 269.6 294.032C270.064 292.879 270.296 291.646 270.281 290.404V262.436C270.318 257.597 269.293 252.81 267.278 248.411C265.354 244.189 262.65 240.369 259.309 237.15" fill="#1A5632"/>
<path d="M472.809 274.803C469.998 274.777 467.285 273.756 465.155 271.922C463.023 270.086 461.612 267.556 461.169 264.779V261.091C461.533 258.866 462.526 256.793 464.031 255.115C465.535 253.437 467.489 252.225 469.661 251.622C471.832 251.019 474.131 251.05 476.286 251.712C478.441 252.374 480.36 253.638 481.82 255.356C483.278 257.075 484.215 259.174 484.518 261.408C484.821 263.641 484.479 265.915 483.532 267.96C482.584 270.005 481.071 271.736 479.171 272.949C477.271 274.161 475.064 274.804 472.809 274.803ZM497.444 237.084C494.112 233.884 490.189 231.362 485.894 229.659C481.494 227.899 476.798 226.997 472.059 227.002C471.935 227.002 462.027 227.06 456.227 230.492H456.178C454.598 231.247 453.078 232.121 451.632 233.107C445.817 237.009 441.238 242.49 438.432 248.906C437.433 251.185 436.649 253.552 436.089 255.976C435 260.933 435 266.067 436.089 271.024C436.648 273.449 437.433 275.815 438.432 278.094C441.286 284.46 445.857 289.905 451.632 293.818C457.558 297.878 464.595 300.005 471.778 299.907C474.553 299.917 477.32 299.615 480.028 299.008C482.561 298.393 485.028 297.537 487.395 296.451C487.8 296.244 488.22 296.022 488.608 295.774C489.021 295.516 489.457 295.298 489.912 295.122C490.403 296.018 491.041 296.824 491.801 297.507C493.713 299.249 496.219 300.194 498.805 300.147C500.09 300.124 501.356 299.844 502.531 299.324C503.706 298.804 504.764 298.054 505.645 297.118C506.542 296.231 507.251 295.171 507.73 294.003C508.21 292.836 508.449 291.583 508.433 290.321V262.353C508.467 257.515 507.439 252.727 505.422 248.328C503.497 244.105 500.791 240.283 497.444 237.067" fill="#1A5632"/>
<path d="M158.767 248.014C155.954 247.991 153.241 246.969 151.111 245.132C148.981 243.294 147.572 240.761 147.134 237.983V234.303C147.5 232.079 148.494 230.006 150 228.33C151.506 226.652 153.46 225.442 155.632 224.84C157.804 224.238 160.103 224.271 162.258 224.934C164.412 225.598 166.331 226.864 167.788 228.583C169.246 230.302 170.181 232.402 170.483 234.636C170.785 236.869 170.441 239.142 169.492 241.187C168.544 243.231 167.03 244.961 165.129 246.173C163.228 247.384 161.02 248.026 158.767 248.023M158.767 200.998C153.758 200.994 148.811 202.098 144.28 204.232C143.218 202.977 141.895 201.967 140.403 201.275C138.911 200.582 137.287 200.223 135.642 200.223C132.561 200.245 129.615 201.487 127.449 203.679C125.284 205.871 124.077 208.832 124.092 211.913V212.185C124.072 212.493 124.072 212.801 124.092 213.109V212.886C124.092 225.921 124.092 288.423 124.092 288.786C124.092 295.163 128.341 300.402 134.635 300.41C140.93 300.418 144.379 295.171 144.379 288.745C144.379 288.332 144.379 287.095 144.379 286.113V268.541C148.215 270.735 154.782 271.337 158.857 271.337C168.187 271.337 177.135 267.631 183.732 261.034C190.329 254.437 194.035 245.489 194.035 236.16C194.035 226.829 190.329 217.882 183.732 211.285C177.135 204.688 168.187 200.982 158.857 200.982" fill="#1A5632"/>
<path d="M404.69 265.694C404.216 268.697 402.628 271.411 400.241 273.294C397.855 275.178 394.847 276.092 391.816 275.855C388.785 275.617 385.956 274.245 383.891 272.014C381.828 269.782 380.682 266.853 380.682 263.814C380.682 260.774 381.828 257.845 383.891 255.613C385.956 253.382 388.785 252.01 391.816 251.772C394.847 251.535 397.855 252.449 400.241 254.333C402.628 256.216 404.216 258.93 404.69 261.932V265.694ZM428.194 210.247C428.194 203.754 423.879 198.416 417.469 198.408C411.059 198.4 407.569 203.746 407.569 210.279C407.569 210.7 407.569 211.93 407.569 212.961V230.855C403.658 228.636 396.968 228 392.818 228C383.322 228 374.215 231.772 367.5 238.487C360.785 245.202 357.013 254.309 357.013 263.805C357.013 273.301 360.785 282.408 367.5 289.123C374.215 295.838 383.322 299.61 392.818 299.61C397.916 299.615 402.951 298.487 407.561 296.31C408.644 297.586 409.991 298.611 411.51 299.315C413.028 300.018 414.682 300.384 416.356 300.386C417.911 300.381 419.451 300.07 420.887 299.47C422.323 298.87 423.627 297.993 424.723 296.889C425.819 295.785 426.687 294.475 427.277 293.035C427.867 291.596 428.167 290.053 428.161 288.498V288.217C428.181 287.901 428.181 287.584 428.161 287.268V287.499C428.161 274.233 428.161 210.618 428.161 210.23" fill="#1A5632"/>
<path d="M350.677 261.43C350.677 250.928 347.377 241.366 341.47 234.51C335.192 227.267 326.513 223.422 316.34 223.422C310.801 223.446 305.337 224.711 300.352 227.127C298.033 225.123 295.069 224.021 292.003 224.025C290.29 224.026 288.594 224.368 287.014 225.029C285.433 225.69 284 226.659 282.797 227.877C281.512 229.157 280.495 230.678 279.804 232.353C279.113 234.029 278.761 235.825 278.771 237.637V238.149C278.771 238.363 278.771 238.602 278.771 238.859V288.11V288.342C279.274 295.907 283.72 300.807 290.18 300.816C297.275 300.816 302.423 295.172 302.423 287.401V287.178C302.423 287.03 302.423 286.848 302.423 286.634V258.138C302.679 251.918 309.237 247.273 314.938 247.273C320.639 247.273 327.313 251.967 327.519 258.18V288.127V288.358C328.039 295.94 332.602 300.84 339.16 300.84C346.049 300.84 350.71 295.445 350.71 287.442V287.071C350.731 286.722 350.731 286.372 350.71 286.023L350.677 261.43Z" fill="#1A5632"/>
<path d="M192.237 79.0808C193.491 58.7859 213.15 45.3302 232.216 51.6496C234.089 52.2767 234.807 53.1346 234.963 55.1559C236.614 76.3088 214.173 93.1057 194.357 85.5075C192.088 84.6412 191.882 84.1462 192.237 79.0808Z" fill="#1A5632"/>
<path d="M216.821 129.224C216.821 124.274 216.821 119.299 216.821 114.3C216.946 107.144 215.212 100.076 211.789 93.7905C211.482 93.2269 211.013 92.7684 210.442 92.4742C209.871 92.18 209.225 92.0639 208.588 92.1405C206.707 92.3715 204.059 92.6685 202.739 92.6685C196.37 92.6685 190.777 91.0186 188.285 88.9313C185.794 86.844 187.122 78.7261 187.988 74.5186C188.146 73.7606 188.015 72.971 187.621 72.3042C187.228 71.6375 186.6 71.1416 185.86 70.9134C184.614 70.5174 182.972 70.0884 181.033 69.6429C172.698 67.6203 163.964 67.9532 155.806 70.6044C147.648 73.2557 140.388 78.1211 134.834 84.6578C134.163 85.3115 133.555 86.0269 133.019 86.7946C132.631 87.3555 132.26 87.9165 131.897 88.4941C128.625 93.2648 126.277 98.6072 124.975 104.243C123.569 109.929 123.341 115.841 124.307 121.617C125.611 130.272 129.354 138.377 135.098 144.982C140.942 152.124 148.952 157.171 157.917 159.361C161.89 160.449 165.991 161.004 170.11 161.011C170.572 161.011 171.026 161.011 171.48 161.011C175.605 161.094 179.73 161.118 183.855 161.118H192.484C198.119 161.118 203.754 161.077 209.396 161.118C210.972 161.118 213.316 160.962 214.999 159.279C216.681 157.595 216.871 155.154 216.855 153.503C216.772 145.444 216.78 137.226 216.78 129.282M179.557 130.932C176.257 130.932 172.775 130.932 169.401 130.883C162.644 130.725 157.719 127.673 154.741 121.807C151.763 115.942 152.266 110.257 156.119 104.482C156.226 104.326 156.35 104.177 156.465 104.029C158.035 102.094 160.007 100.526 162.246 99.4327C164.485 98.3396 166.935 97.7486 169.426 97.701C171.692 97.7174 173.934 98.1741 176.026 99.0458C179.011 100.306 181.561 102.415 183.361 105.109C185.16 107.805 186.129 110.969 186.148 114.209V120.809C186.148 122.748 186.148 124.703 186.148 126.65C186.149 127.212 186.04 127.769 185.826 128.289C185.611 128.809 185.297 129.281 184.9 129.68C184.503 130.079 184.032 130.395 183.513 130.611C182.994 130.827 182.437 130.939 181.875 130.94H179.548" fill="#FE3B1F"/>
<path d="M405.704 35.364C403.317 35.364 400.984 36.0719 398.999 37.3981C397.014 38.7244 395.467 40.6094 394.554 42.8148C393.64 45.0203 393.401 47.4471 393.867 49.7884C394.332 52.1297 395.482 54.2803 397.17 55.9682C398.858 57.6562 401.008 58.8058 403.35 59.2715C405.691 59.7372 408.118 59.4981 410.323 58.5846C412.529 57.6711 414.414 56.1241 415.74 54.1392C417.066 52.1544 417.774 49.8209 417.774 47.4337C417.772 44.2333 416.499 41.1646 414.237 38.9016C411.974 36.6385 408.905 35.3662 405.704 35.364Z" fill="#1A5632"/>
<path d="M490.985 70.9546C487.055 71.0263 483.295 72.5638 480.44 75.2654C477.586 77.9669 475.844 81.6376 475.557 85.557V118.343C475.252 125.528 469.146 130.766 461.045 130.766H435.57C427.443 130.766 421.346 125.528 421.024 118.343V85.5323C420.737 81.6124 418.992 77.9423 416.133 75.2444C413.275 72.5465 409.511 71.0162 405.581 70.9546C397.133 70.9546 390.277 78.1733 390.277 86.6295V115.991C389.922 123.853 382.984 130.766 375.427 130.766H328.196C320.689 130.766 313.825 123.853 313.47 115.991V86.3077C313.47 82.238 311.854 78.335 308.976 75.4573C306.098 72.5796 302.195 70.9629 298.125 70.9629C294.055 70.9629 290.152 72.5796 287.275 75.4573C284.397 78.335 282.78 82.238 282.78 86.3077V116.717C282.524 120.466 280.875 123.983 278.158 126.578C275.441 129.173 271.852 130.658 268.095 130.742H242.421C238.342 130.753 234.434 132.381 231.554 135.271C228.674 138.16 227.058 142.073 227.06 146.153C227.06 154.51 233.66 160.813 242.421 160.813H268.095C279.21 160.856 289.957 156.836 298.315 149.51C306.562 156.8 317.19 160.82 328.196 160.813H375.444C386.304 160.814 396.802 156.901 405.011 149.791C413.534 157.009 424.369 160.921 435.536 160.813H461.012C472.682 160.939 483.973 156.665 492.634 148.843C496.861 144.98 500.248 140.292 502.587 135.066C504.926 129.841 506.166 124.19 506.23 118.466V86.6295C506.23 78.1733 499.374 70.9546 490.967 70.9546" fill="#1A5632"/>
<path d="M475.219 174.327C472.83 174.32 470.493 175.022 468.504 176.344C466.514 177.667 464.962 179.55 464.044 181.754C463.125 183.959 462.882 186.387 463.344 188.73C463.806 191.074 464.952 193.228 466.639 194.919C468.326 196.61 470.476 197.763 472.818 198.231C475.16 198.7 477.589 198.463 479.797 197.55C482.004 196.638 483.891 195.091 485.218 193.105C486.546 191.119 487.255 188.785 487.255 186.396C487.253 183.196 485.981 180.127 483.718 177.864C481.455 175.601 478.385 174.329 475.185 174.327" fill="#1A5632"/>
</g>
<defs>
<clipPath id="clip0_176_811">
<rect width="385.606" height="265.696" fill="white" transform="translate(123.199 35.1523)"/>
</clipPath>
</defs>
</svg>
