<svg width="632" height="336" viewBox="0 0 632 336" fill="none" xmlns="http://www.w3.org/2000/svg">
<g clip-path="url(#clip0_176_843)">
<path d="M407.513 111.389C406.352 107.47 404.247 103.986 401.271 101.011C398.296 98.035 394.159 95.6399 389.006 93.8255C383.78 92.0111 377.176 91.1401 369.12 91.1401H332.323H326.081V91.7207C326.081 91.7207 332.323 96.0754 332.323 107.615V191.515H350.032V106.091H368.829C373.329 106.091 377.031 106.454 379.934 107.252C382.837 108.051 385.159 109.212 386.901 110.663C388.643 112.115 389.877 114.002 390.53 116.252C391.256 118.502 391.546 121.115 391.546 124.09C391.546 126.993 391.256 129.534 390.603 131.856C389.949 134.106 388.788 136.138 387.119 137.735C385.45 139.404 383.127 140.638 380.224 141.509C377.321 142.38 373.547 142.815 368.975 142.815H362.297L356.056 157.839H369.483C377.321 157.839 383.853 156.895 389.006 155.081C394.159 153.266 398.296 150.726 401.271 147.605C404.32 144.485 406.424 140.856 407.586 136.646C408.747 132.509 409.4 128.082 409.4 123.51C409.328 119.373 408.747 115.308 407.513 111.389Z" fill="#005645"/>
<path d="M423.045 91.2127V91.7933C423.045 91.7933 429.287 96.148 429.287 107.688V109.72V191.587H447.286V91.1401L429.287 91.2127H423.045Z" fill="#005645"/>
<path d="M536.338 106.671L542.58 91.2124H474.647H468.406V91.793C468.406 91.793 474.647 96.1477 474.647 107.687V109.72V191.587H492.647V152.395H527.992L534.233 136.936H492.647V106.671H536.338Z" fill="#005645"/>
<path d="M447.285 212.417H332.178V214.086H447.285V212.417Z" fill="#C5994F"/>
<path d="M460.93 212.853C460.93 215.611 463.107 217.352 465.72 217.352H468.043C467.462 218.949 465.72 219.747 463.833 219.747C461.366 219.747 458.971 218.514 458.971 215.973V213.941L456.285 214.522V215.683C456.285 219.82 459.914 221.634 463.688 221.634C467.68 221.634 471.091 219.82 471.091 215.465V208.208H466.446C463.688 208.135 460.93 209.587 460.93 212.853ZM468.406 215.175C468.406 215.248 468.406 215.393 468.406 215.465H466.301C464.777 215.465 463.615 214.449 463.615 212.707C463.615 210.893 464.922 209.877 466.373 209.877H468.406V215.175Z" fill="#C5994F"/>
<path d="M465.067 205.957C465.793 205.957 466.301 205.377 466.301 204.724C466.301 203.998 465.72 203.49 465.067 203.49C464.414 203.49 463.833 204.07 463.833 204.724C463.833 205.377 464.414 205.957 465.067 205.957Z" fill="#C5994F"/>
<path d="M468.478 205.957C469.204 205.957 469.712 205.377 469.712 204.724C469.712 203.998 469.131 203.49 468.478 203.49C467.825 203.49 467.244 204.07 467.244 204.724C467.244 205.377 467.752 205.957 468.478 205.957Z" fill="#C5994F"/>
<path d="M473.486 212.853C473.486 215.611 475.663 217.352 478.276 217.352H480.889C480.671 219.239 479.655 219.965 477.55 219.965H476.026V221.634H477.986C481.542 221.634 483.574 220.256 483.574 216.191V208.062H478.929C476.244 208.135 473.486 209.587 473.486 212.853ZM480.961 215.465H478.856C477.405 215.465 476.171 214.522 476.171 212.78C476.171 210.966 477.478 209.949 478.929 209.949H480.889V215.465H480.961Z" fill="#C5994F"/>
<path d="M510.137 206.684C510.863 206.684 511.516 206.103 511.516 205.305C511.516 204.579 510.863 203.926 510.137 203.926C509.339 203.926 508.758 204.579 508.758 205.305C508.758 206.103 509.339 206.684 510.137 206.684Z" fill="#C5994F"/>
<path d="M534.088 209.296H527.992L527.411 210.53V208.498L524.726 209.006V215.538H519.21H512.968H511.371V208.788L508.686 209.296V215.465H502.517H495.332H494.171V212.635C494.171 209.441 492.429 208.062 489.235 208.062H486.768V209.877H488.582C490.542 209.877 491.485 210.53 491.485 212.272V215.465H485.607V217.28H495.332H502.517H508.686C509.63 217.28 510.355 216.917 510.791 216.336L511.444 217.28H512.968H519.137H539.241V213.796C539.314 210.53 536.846 209.296 534.088 209.296ZM536.556 215.465H527.411V211.038H533.87C535.54 211.038 536.556 211.982 536.556 213.433V215.465Z" fill="#C5994F"/>
<path d="M335.299 232.884C335.952 232.884 336.532 232.303 336.532 231.65C336.532 230.924 335.952 230.416 335.299 230.416C334.645 230.416 334.065 230.997 334.065 231.65C334.065 232.303 334.645 232.884 335.299 232.884Z" fill="#C5994F"/>
<path d="M338.637 232.884C339.363 232.884 339.871 232.303 339.871 231.65C339.871 230.924 339.29 230.416 338.637 230.416C337.911 230.416 337.403 230.997 337.403 231.65C337.403 232.303 337.984 232.884 338.637 232.884Z" fill="#C5994F"/>
<path d="M351.628 234.843H348.145L346.983 239.126C346.475 241.085 345.967 242.174 344.153 242.174H343.717H342.121V234.335L339.435 234.916V235.569H336.315C333.774 235.569 331.887 237.239 331.887 239.851C331.887 242.464 333.774 244.133 336.315 244.133H338.927L339.798 242.827C340.306 243.625 341.177 244.133 342.339 244.133H343.645H344.226C347.346 244.133 348.87 242.609 349.596 239.634L350.249 236.803H351.483C352.935 236.803 354.241 237.819 354.241 239.561V242.246H348.508L349.814 244.061H356.999V239.706C357.072 236.368 354.386 234.843 351.628 234.843ZM336.968 242.101C335.516 242.101 334.573 241.158 334.573 239.634C334.573 238.182 335.516 237.166 336.968 237.166H339.435V240.94C339.435 241.375 339.508 241.738 339.653 242.029H336.968V242.101Z" fill="#C5994F"/>
<path d="M391.764 242.101H383.635H380.732C382.111 241.085 382.837 239.706 382.837 238.4C382.837 236.44 381.095 234.698 377.829 234.698C376.014 234.698 374.273 235.206 372.821 235.714L371.877 237.021L372.023 237.093L371.877 237.166L372.313 238.109C373.474 240.069 374.127 241.303 374.998 242.101H369.265H363.894H363.821H362.297V228.747L359.612 229.255V241.158C359.612 242.754 360.701 243.843 362.297 243.843H363.749H363.821H369.192H374.418C375.651 243.843 376.522 243.48 377.393 243.19C378.047 243.48 378.772 243.843 379.934 243.843H383.49H394.304V228.674L391.619 229.182V242.101H391.764ZM377.974 241.811C376.74 241.085 375.651 239.343 374.853 237.964C374.781 237.819 374.49 237.456 374.273 237.166C375.216 236.876 376.377 236.585 377.321 236.585C378.99 236.585 380.224 237.529 380.224 238.98C380.151 240.069 379.426 241.23 377.974 241.811Z" fill="#C5994F"/>
<path d="M397.57 229.327V243.988H400.328V228.819L397.57 229.327Z" fill="#C5994F"/>
<path d="M417.674 236.077C418.4 236.077 418.908 235.496 418.908 234.843C418.908 234.117 418.327 233.609 417.674 233.609C416.948 233.609 416.44 234.19 416.44 234.843C416.44 235.496 416.948 236.077 417.674 236.077Z" fill="#C5994F"/>
<path d="M414.263 236.077C414.988 236.077 415.497 235.496 415.497 234.843C415.497 234.117 414.916 233.609 414.263 233.609C413.61 233.609 413.029 234.19 413.029 234.843C413.029 235.496 413.61 236.077 414.263 236.077Z" fill="#C5994F"/>
<path d="M421.375 242.101H412.303C410.416 242.101 409.835 241.375 409.835 239.488V237.601L407.15 238.109V238.908C407.15 242.464 408.819 243.916 412.013 243.916H424.133V235.352L421.448 235.86V242.101H421.375Z" fill="#C5994F"/>
<path d="M427.254 229.327V243.988H429.939V228.819L427.254 229.327Z" fill="#C5994F"/>
<path d="M433.133 244.714C433.133 246.456 432.334 247.182 430.738 247.472L431.318 249.141C434.512 248.706 435.818 247.036 435.818 244.133V235.497L433.133 236.005V244.714Z" fill="#C5994F"/>
<path d="M473.413 233.319C474.066 233.319 474.647 232.739 474.647 232.085C474.647 231.36 474.066 230.852 473.413 230.852C472.76 230.852 472.179 231.432 472.179 232.085C472.179 232.811 472.76 233.319 473.413 233.319Z" fill="#C5994F"/>
<path d="M475.01 230.489C475.736 230.489 476.244 229.908 476.244 229.255C476.244 228.529 475.663 228.021 475.01 228.021C474.284 228.021 473.776 228.602 473.776 229.255C473.776 229.908 474.357 230.489 475.01 230.489Z" fill="#C5994F"/>
<path d="M475.518 232.085C475.518 232.739 476.099 233.319 476.752 233.319C477.478 233.319 477.986 232.739 477.986 232.085C477.986 231.36 477.405 230.852 476.752 230.852C476.099 230.852 475.518 231.432 475.518 232.085Z" fill="#C5994F"/>
<path d="M488.074 233.319C488.8 233.319 489.308 232.739 489.308 232.085C489.308 231.36 488.727 230.852 488.074 230.852C487.421 230.852 486.84 231.432 486.84 232.085C486.84 232.811 487.421 233.319 488.074 233.319Z" fill="#C5994F"/>
<path d="M491.413 233.319C492.138 233.319 492.646 232.739 492.646 232.085C492.646 231.36 492.066 230.852 491.413 230.852C490.759 230.852 490.179 231.432 490.179 232.085C490.179 232.811 490.759 233.319 491.413 233.319Z" fill="#C5994F"/>
<path d="M517.032 242.101H513.621C513.694 241.811 513.766 241.521 513.766 241.231V236.005L511.081 236.513V242.101H507.307V236.005L504.622 236.513V242.101H498.598H498.38H494.316H492.646V235.352L489.961 235.86V242.029H486.84H479.582H478.058V235.279L475.373 235.787V241.956H472.397H472.252H464.196H464.124H463.035V239.416C463.035 236.223 460.349 234.626 457.592 234.626H454.108L452.947 238.908C452.439 240.868 451.931 241.956 450.116 241.956H449.681C449.681 241.956 449.681 242.029 449.608 242.029C449.608 242.029 449.608 241.956 449.535 241.956H442.931H442.858H441.334V228.602L438.649 229.11V241.013C438.649 242.609 439.737 243.698 441.334 243.698H442.858H442.931H449.535C449.535 243.698 449.535 243.626 449.608 243.626C449.608 243.626 449.608 243.698 449.681 243.698H450.261C453.382 243.698 454.906 242.174 455.632 239.198L456.285 236.368H457.519C458.97 236.368 460.277 237.384 460.277 239.126V241.811H454.543L455.85 243.626H464.124H464.196H472.252H472.397H475.373C476.317 243.626 477.042 243.263 477.478 242.682L478.131 243.626H479.655H486.913H490.034C490.977 243.626 491.703 243.263 492.138 242.682L492.792 243.626H494.316H498.38H498.598H511.081C512.025 243.626 512.75 243.263 513.258 242.682L513.912 243.626H519.79V235.061L517.105 235.569V242.101H517.032Z" fill="#C5994F"/>
<path d="M524.29 231.868V242.101H521.677V243.988H533.362V228.819L530.677 229.327V242.101H526.976V231.287L524.29 231.868Z" fill="#C5994F"/>
<path d="M539.241 228.819L536.556 229.327V243.988H539.241V228.819Z" fill="#C5994F"/>
<path d="M291.97 168C291.97 223.812 246.754 269.028 190.942 269.028C135.13 269.028 89.9143 223.812 89.9143 168C89.9143 112.188 135.13 66.9722 190.942 66.9722C246.754 66.9722 291.97 112.188 291.97 168ZM190.942 74.5928C139.34 74.5928 97.5349 116.397 97.5349 168C97.5349 219.603 139.34 261.407 190.942 261.407C242.545 261.407 284.422 219.603 284.422 168C284.422 116.397 242.545 74.5928 190.942 74.5928Z" fill="#005645"/>
<path d="M190.942 97.5991C152.04 97.5991 120.542 129.098 120.542 167.999C120.542 206.901 152.04 238.399 190.942 238.399C229.843 238.399 261.342 206.901 261.342 167.999C261.342 129.098 229.843 97.5991 190.942 97.5991ZM190.942 235.351C153.71 235.351 123.59 205.159 123.59 167.999C123.59 130.767 153.782 100.647 190.942 100.647C228.102 100.647 258.294 130.84 258.294 167.999C258.294 205.231 228.174 235.351 190.942 235.351Z" fill="#005645"/>
<path d="M277.164 152.613L277.599 155.08L266.93 157.04L266.495 154.645L277.164 152.613Z" fill="#005645"/>
<path d="M277.454 182.007L277.019 184.474L266.277 182.66L266.713 180.192L277.454 182.007Z" fill="#005645"/>
<path d="M267.076 178.161L267.366 175.693L271.285 176.128L271.503 174.024C271.721 172.209 272.955 170.83 275.205 171.048C277.309 171.266 278.688 172.717 278.398 175.403C278.108 178.306 276.148 179.104 273.971 178.886L267.076 178.161ZM274.696 176.419C275.858 176.564 276.656 176.056 276.729 175.112C276.801 174.241 276.293 173.588 275.059 173.443C273.898 173.298 273.172 173.879 273.1 174.677L272.955 176.201L274.696 176.419Z" fill="#005645"/>
<path d="M278.543 164.734L274.841 164.951L274.914 166.693L278.543 166.475L278.688 168.943L273.39 169.233L272.954 160.742L267.366 161.105L267.221 158.637L278.107 157.984L278.253 160.452L274.551 160.669L274.696 162.484L278.398 162.266L278.543 164.734Z" fill="#005645"/>
<path d="M114.808 158.347L104.43 156.75L104.793 154.355L111.542 155.371L111.833 153.484L113.647 153.775L113.574 154.065C113.502 154.646 113.574 155.081 113.937 155.517C114.228 155.879 114.663 156.17 115.171 156.387L114.808 158.347Z" fill="#005645"/>
<path d="M107.913 161.25C108.204 160.742 108.639 160.379 109.147 160.088C109.655 159.798 110.308 159.653 111.034 159.725C111.905 159.798 112.558 160.016 113.139 160.379C113.647 160.741 114.082 161.25 114.3 161.83C114.518 162.411 114.591 162.991 114.591 163.572C114.518 164.951 114.01 165.967 112.994 166.548C112.05 167.128 110.671 167.346 108.929 167.273C106.97 167.201 105.591 166.765 104.793 165.967C103.994 165.241 103.631 164.225 103.704 162.991C103.776 162.048 104.067 161.322 104.575 160.741C105.083 160.161 105.809 159.798 106.68 159.653L106.897 161.975C106.099 162.12 105.663 162.483 105.663 163.137C105.663 163.717 105.881 164.153 106.317 164.37C106.825 164.661 107.478 164.806 108.276 164.806V164.733C107.986 164.443 107.841 164.153 107.696 163.79C107.551 163.427 107.55 163.064 107.55 162.629C107.478 162.193 107.623 161.758 107.913 161.25ZM109.728 162.483C109.438 162.774 109.22 163.064 109.22 163.499C109.22 163.862 109.365 164.225 109.655 164.516C109.946 164.806 110.381 164.951 110.889 165.024C111.397 165.024 111.833 164.951 112.195 164.661C112.486 164.37 112.704 164.08 112.704 163.645C112.704 163.209 112.631 162.919 112.341 162.629C112.05 162.338 111.615 162.193 111.107 162.12C110.454 162.048 110.018 162.193 109.728 162.483Z" fill="#005645"/>
<path d="M103.849 172.354L103.704 169.524L112.123 173.443L111.833 168.58L114.083 168.435L114.518 176.056L112.268 176.201L103.849 172.354Z" fill="#005645"/>
<path d="M115.316 181.499L104.938 183.023L104.575 180.628L111.325 179.612L111.034 177.725L112.849 177.435L112.921 177.725C112.994 178.306 113.284 178.741 113.647 179.031C114.082 179.322 114.518 179.467 115.026 179.467L115.316 181.499Z" fill="#005645"/>
<path d="M262.939 120.244C263.519 119.808 263.665 119.083 263.229 118.502C262.794 117.921 262.068 117.776 261.487 118.212C260.907 118.647 260.762 119.373 261.197 119.954C261.56 120.534 262.358 120.607 262.939 120.244Z" fill="#005645"/>
<path d="M265.914 132.364L263.81 127.936L262.503 128.082L264.1 127.138L262.721 124.888L258.294 127.574C257.713 126.63 257.205 125.759 256.552 124.888L260.834 121.84L259.31 119.663L255.028 122.711C254.447 121.84 253.794 121.042 253.213 120.243L254.52 119.155C256.479 117.558 256.624 115.671 254.81 113.494L253.649 112.042L252.342 113.203L253.068 114.074C254.084 115.308 254.012 116.106 253.141 116.832L251.617 118.138C250.673 117.05 249.73 115.961 248.786 114.873L247.48 116.106C249.73 118.501 251.762 121.114 253.649 123.8C254.157 124.525 254.81 124.961 255.536 125.033L255.173 126.122C257.931 130.259 260.253 134.686 262.14 139.404L264.608 138.17C267.148 136.718 266.93 134.323 265.914 132.364ZM263.737 135.412L262.648 135.993C261.705 133.888 260.689 131.856 259.6 129.896L261.995 128.372L264.245 133.017C264.826 134.033 264.608 134.976 263.737 135.412Z" fill="#005645"/>
<path d="M244.286 102.897L240.875 107.397C238.698 110.228 235.504 109.647 232.964 107.687C230.497 105.8 228.9 102.897 231.005 100.139L231.876 99.0508L233.98 100.647L232.964 102.026C231.803 103.623 232.746 105.365 234.125 106.381C235.141 107.107 236.375 107.47 237.391 106.962L236.158 106.018C234.416 104.712 233.908 102.607 235.214 100.865C236.811 98.7604 239.278 99.1959 241.093 100.502L244.286 102.897ZM240.077 101.954C239.278 101.373 238.19 101.373 237.464 102.389C236.738 103.333 236.956 104.349 237.827 105.002L238.77 105.728C238.77 105.655 238.843 105.583 238.916 105.583L241.093 102.752L240.077 101.954ZM241.165 98.5427C240.657 98.1798 240.585 97.4541 240.948 96.946C241.311 96.438 242.036 96.3654 242.544 96.7283C243.052 97.0912 243.125 97.8169 242.762 98.325C242.399 98.833 241.673 98.9056 241.165 98.5427ZM243.488 100.285C242.98 99.9217 242.907 99.1959 243.27 98.6879C243.633 98.1798 244.359 98.1073 244.867 98.4701C245.375 98.833 245.447 99.5588 245.085 100.067C244.722 100.575 243.996 100.647 243.488 100.285Z" fill="#005645"/>
<path d="M251.907 110.01L247.552 114.51C245.157 117.05 243.125 116.47 241.02 114.438L240.004 113.422L241.165 112.188L241.891 112.914C242.98 113.93 243.851 114.147 244.939 113.349L243.633 112.115C242.036 110.591 241.819 108.414 243.343 106.89C245.157 105.003 247.552 105.728 249.222 107.325L251.907 110.01ZM246.173 112.115L248.786 109.43L247.915 108.559C247.189 107.906 246.173 107.761 245.302 108.631C244.504 109.43 244.577 110.518 245.302 111.244L246.173 112.115Z" fill="#005645"/>
<path d="M154.363 93.6079C154.944 93.3176 155.161 92.6644 154.871 92.0838C154.581 91.5032 153.927 91.2855 153.347 91.5758C152.766 91.8661 152.548 92.5193 152.839 93.0999C153.129 93.6805 153.782 93.8983 154.363 93.6079Z" fill="#005645"/>
<path d="M151.823 94.9136C152.403 94.6233 152.621 93.9701 152.331 93.3895C152.041 92.8089 151.387 92.5911 150.807 92.8814C150.226 93.1718 150.008 93.825 150.299 94.4056C150.589 94.9862 151.242 95.2039 151.823 94.9136Z" fill="#005645"/>
<path d="M189.128 81.7047C189.128 82.2853 189.636 82.7934 190.289 82.7934C190.942 82.7934 191.45 82.2853 191.378 81.6321C191.378 80.9789 190.869 80.5435 190.216 80.5435C189.563 80.5435 189.128 81.0515 189.128 81.7047Z" fill="#005645"/>
<path d="M187.386 82.8662C188.039 82.8662 188.547 82.3581 188.474 81.705C188.474 81.0518 187.966 80.5437 187.313 80.6163C186.66 80.6163 186.224 81.1243 186.224 81.7775C186.224 82.3582 186.733 82.8662 187.386 82.8662Z" fill="#005645"/>
<path d="M188.692 80.3989C189.345 80.3989 189.853 79.8909 189.781 79.2377C189.781 78.5845 189.273 78.0764 188.619 78.149C187.966 78.149 187.531 78.657 187.531 79.3102C187.603 79.8908 188.111 80.3989 188.692 80.3989Z" fill="#005645"/>
<path d="M196.748 83.0116C197.401 83.0842 197.909 82.5762 197.982 81.9955C198.055 81.3423 197.547 80.8343 196.893 80.7617C196.313 80.7617 195.732 81.1972 195.732 81.8504C195.66 82.431 196.095 82.939 196.748 83.0116Z" fill="#005645"/>
<path d="M193.845 82.7934C194.498 82.866 195.006 82.358 195.079 81.7774C195.152 81.1242 194.644 80.6161 193.99 80.5435C193.41 80.471 192.829 80.979 192.829 81.6322C192.757 82.2854 193.265 82.7934 193.845 82.7934Z" fill="#005645"/>
<path d="M162.129 96.801L159.516 90.269L157.411 91.14L159.443 96.0752C156.758 97.2365 153.855 98.7606 152.476 99.559C151.387 100.212 150.807 99.9944 150.226 98.9058L149.428 97.4542L147.105 98.688L147.613 99.6315C148.992 102.172 150.734 102.317 152.984 101.156C155.887 99.6315 158.935 98.1074 162.129 96.801Z" fill="#005645"/>
<path d="M205.53 92.5918C206.401 92.7369 207.199 92.5918 207.78 92.0837L208.288 93.1724C209.812 93.5353 211.264 93.8982 212.715 94.3336L214.53 87.5114L211.917 86.8582L210.611 91.9386C209.885 91.7208 209.159 91.5757 208.433 91.4305C208.578 91.2128 208.651 90.9225 208.724 90.6322L209.449 87.0033L206.837 86.4953L205.893 90.9951C205.022 90.8499 204.079 90.7047 203.208 90.5596L203.861 86.1324L201.248 85.7695L200.595 90.1967C199.651 90.0515 198.418 89.979 197.401 89.9064L197.837 84.6808L195.152 84.4631L194.716 89.7613C193.627 89.6887 192.539 89.6887 191.45 89.6887V84.4631H188.765L188.692 89.7613C187.676 89.7613 186.733 89.8338 185.789 89.9064L185.571 88.092C185.208 85.4792 182.886 84.5357 180.636 84.826L177.515 85.334L177.225 88.8177C177.007 90.1967 176.644 91.0676 175.556 91.2854L174.249 91.5757L171.854 82.1406L169.241 82.7212L171.419 91.2854C171.782 92.8095 173.015 93.5353 174.54 93.245C174.975 93.1724 175.41 93.0272 175.846 92.9547C177.37 92.6643 178.459 92.0111 179.112 90.9225L180.346 92.2289C183.104 91.866 185.934 91.6483 188.765 91.5757C189.636 91.5757 190.216 91.2128 190.724 90.6322L191.523 91.5757C192.539 91.5757 193.627 91.6483 194.643 91.6483C195.514 91.7208 196.24 91.358 196.748 90.8499L197.329 91.7934C200.087 91.7208 202.845 92.0837 205.53 92.5918ZM179.33 90.3419C179.547 89.8338 179.765 89.1806 179.91 88.5274L180.128 86.4227L180.854 86.3501C181.797 86.205 182.741 86.7856 182.886 88.0194L183.104 89.8338C181.797 89.979 180.563 90.1241 179.33 90.3419Z" fill="#005645"/>
<path d="M227.231 87.5839L224.763 86.4952L221.062 95.4222C220.263 95.1319 219.465 94.769 218.739 94.4787L221.28 87.0032L218.739 86.1323L216.199 93.6078C215.546 93.3901 214.965 93.1723 214.312 93.0272L213.804 94.769C216.925 95.7125 219.901 96.8738 222.804 98.1802L227.231 87.5839Z" fill="#005645"/>
<path d="M159.589 85.5514L162.129 84.6079L166.193 95.3494L163.653 96.2203L159.589 85.5514Z" fill="#005645"/>
<path d="M170.403 93.6803C171.056 95.9302 170.33 97.7446 167.862 98.8333L166.774 97.4543C167.79 96.8737 168.298 96.2205 167.935 95.0593L165.83 88.0192L168.37 87.2935L170.403 93.6803Z" fill="#005645"/>
<path d="M229.48 88.5996L231.803 89.8334L226.868 100.139L224.473 98.9056L229.48 88.5996Z" fill="#005645"/>
<path d="M112.123 131.856C111.542 131.566 110.889 131.856 110.599 132.437C110.308 133.017 110.599 133.671 111.179 133.961C111.76 134.251 112.413 133.961 112.631 133.38C112.921 132.727 112.703 132.074 112.123 131.856Z" fill="#005645"/>
<path d="M113.357 129.171C112.776 128.88 112.123 129.171 111.833 129.751C111.542 130.332 111.833 130.985 112.413 131.275C112.994 131.566 113.647 131.275 113.865 130.695C114.155 130.114 113.937 129.461 113.357 129.171Z" fill="#005645"/>
<path d="M128.888 122.856C128.598 122.711 127.582 122.131 125.767 120.897C123.59 119.518 121.34 120.679 120.106 122.639L118.582 125.034L121.05 127.792C121.993 128.808 122.501 129.679 121.993 130.695L121.921 130.767L121.776 131.058L121.34 131.928L115.969 129.098L114.736 131.493L115.679 132.001L114.736 133.816C113.792 135.63 114.3 137.662 116.115 138.606C117.929 139.549 119.961 138.751 120.832 136.936L120.905 136.719C121.05 136.428 121.195 136.138 121.268 135.848L121.558 135.194L120.977 134.106C121.703 133.961 122.284 133.525 122.719 132.872C122.937 132.509 123.518 131.42 123.518 131.42C124.243 130.041 124.388 129.025 123.953 127.792L125.767 127.501C126.783 125.832 127.8 124.308 128.888 122.856ZM119.526 135.557C119.09 136.428 118.292 136.719 117.421 136.283C116.55 135.848 116.187 135.049 116.623 134.178L117.276 132.799L119.308 133.816C119.598 133.961 119.889 134.106 120.179 134.178L119.526 135.557ZM123.953 127.138L123.808 127.356C123.59 126.848 123.009 126.122 122.647 125.759C122.284 125.397 121.195 124.163 121.195 124.163L121.558 123.582C122.066 122.784 123.082 122.421 124.171 123.074L125.913 124.163C125.259 125.106 124.606 126.122 123.953 127.138Z" fill="#005645"/>
<path d="M134.041 116.469C134.767 115.598 135.13 114.872 135.42 114.074C136.074 113.856 136.727 113.639 137.453 112.84C139.122 111.098 141.009 109.502 142.968 107.978L135.856 98.978L133.751 100.647L139.848 108.341C138.759 109.284 137.67 110.3 136.654 111.244C136.799 109.937 136.437 108.776 135.711 108.123C134.622 107.107 132.735 107.107 130.848 109.066C129.832 110.082 129.179 111.389 128.598 112.477C128.598 112.477 128.888 113.784 128.888 113.856C128.961 114.002 129.251 114.147 129.469 114.219C129.687 114.292 132.154 114.727 133.098 114.8C131.937 116.034 130.848 117.34 129.759 118.719L122.139 112.623L120.469 114.727L127.292 120.243C128.526 121.259 130.05 121.042 130.993 119.808C132.082 118.719 133.025 117.63 134.041 116.469ZM130.703 112.405C130.993 111.824 131.356 111.244 131.792 110.808C132.59 109.937 133.606 109.792 134.332 110.518C134.84 111.026 135.058 111.824 134.767 112.695C133.679 112.84 131.066 112.477 130.703 112.405Z" fill="#005645"/>
<path d="M137.67 97.6719L139.847 96.0752L146.452 105.438L144.347 107.034L137.67 97.6719Z" fill="#005645"/>
<path d="M121.558 202.909C121.195 203.708 120.542 204.361 119.526 204.796C118.51 205.232 117.566 205.377 116.768 205.087C115.97 204.796 115.316 204.143 114.881 203.2L113.937 201.095L110.744 202.546L109.728 200.369L119.453 195.942L121.413 200.224C121.848 201.24 121.921 202.111 121.558 202.909ZM116.623 201.893C116.841 202.329 117.058 202.546 117.421 202.692C117.711 202.837 118.147 202.764 118.51 202.619C118.945 202.401 119.163 202.184 119.308 201.821C119.453 201.53 119.381 201.167 119.236 200.732L118.51 199.063L115.897 200.224L116.623 201.893Z" fill="#005645"/>
<path d="M119.744 215.828C119.018 215.828 118.365 215.683 117.784 215.247C117.203 214.884 116.695 214.304 116.26 213.651C115.607 212.562 115.389 211.546 115.607 210.457C115.824 209.441 116.478 208.57 117.639 207.844L123.372 204.288L124.606 206.32L119.09 209.731C117.857 210.457 117.566 211.401 118.147 212.417C118.8 213.433 119.744 213.578 120.977 212.852L126.493 209.441L127.727 211.473L121.993 215.03C121.195 215.538 120.469 215.828 119.744 215.828Z" fill="#005645"/>
<path d="M132.662 219.094C132.59 219.82 132.227 220.473 131.501 220.981C131.138 221.272 130.703 221.489 130.34 221.562C129.904 221.634 129.542 221.562 129.179 221.417L129.106 221.489C129.251 221.997 129.179 222.433 129.034 222.941C128.888 223.376 128.598 223.812 128.09 224.175C127.292 224.828 126.493 225.118 125.768 225.046C124.969 224.973 124.316 224.538 123.735 223.812L120.324 219.53L128.671 212.853L131.937 216.917C132.445 217.57 132.735 218.296 132.662 219.094ZM124.969 221.925C125.187 222.215 125.477 222.36 125.768 222.433C126.058 222.433 126.348 222.36 126.638 222.142C126.929 221.925 127.074 221.634 127.147 221.344C127.219 221.054 127.074 220.763 126.856 220.473L125.332 218.586L123.445 220.11L124.969 221.925ZM128.235 219.167C128.453 219.457 128.671 219.602 128.961 219.602C129.251 219.602 129.469 219.53 129.759 219.312C130.05 219.094 130.195 218.876 130.195 218.586C130.267 218.296 130.122 218.006 129.904 217.788L128.453 216.046L126.711 217.425L128.235 219.167Z" fill="#005645"/>
<path d="M130.775 228.021L134.186 231.36L132.59 233.102L127.364 228.021L134.84 220.328L136.581 222.07L130.775 228.021Z" fill="#005645"/>
<path d="M140.782 225.981L133.922 234.152L135.756 235.692L142.616 227.521L140.782 225.981Z" fill="#005645"/>
<path d="M145.654 240.722C145.001 241.012 144.275 241.085 143.549 241.012C142.823 240.94 142.097 240.649 141.444 240.214C140.646 239.706 140.138 239.053 139.775 238.254C139.412 237.456 139.267 236.585 139.412 235.641C139.557 234.698 139.92 233.754 140.573 232.811C141.227 231.867 141.952 231.142 142.823 230.706C143.622 230.271 144.493 230.053 145.363 230.126C146.234 230.198 147.033 230.488 147.831 230.997C148.484 231.432 148.992 232.013 149.355 232.666C149.718 233.319 149.863 233.972 149.863 234.698C149.863 235.424 149.718 236.077 149.428 236.658L147.25 235.569C147.468 235.061 147.541 234.553 147.468 234.045C147.396 233.537 147.105 233.101 146.67 232.811C146.307 232.593 145.944 232.448 145.509 232.448C145.073 232.448 144.638 232.593 144.13 232.884C143.622 233.174 143.186 233.609 142.751 234.19C142.315 234.771 142.097 235.351 141.952 235.932C141.88 236.44 141.88 236.948 142.025 237.383C142.17 237.819 142.46 238.109 142.823 238.327C143.259 238.617 143.767 238.762 144.275 238.69C144.783 238.617 145.291 238.327 145.726 237.819L147.613 239.416C146.888 239.996 146.307 240.432 145.654 240.722Z" fill="#005645"/>
<path d="M155.001 235.744L150.134 245.238L152.266 246.331L157.133 236.837L155.001 235.744Z" fill="#005645"/>
<path d="M159.298 241.956L156.686 248.415L154.653 247.617L158.645 237.674L161.185 238.69L161.984 246.311V246.383L164.524 239.996L166.556 240.867L162.637 250.738L160.097 249.794L159.371 241.956H159.298Z" fill="#005645"/>
<path d="M167.5 241.158L170.04 241.811L170.185 249.867L170.258 249.94L174.249 242.9L176.717 243.48L170.911 253.06L168.008 252.335L167.5 241.158Z" fill="#005645"/>
<path d="M179.329 250.157L179.039 252.335L183.829 252.915L183.539 255.093L176.354 254.222L177.733 243.625L184.845 244.496L184.555 246.674L179.838 246.093L179.62 248.053L184.12 248.633L183.829 250.666L179.329 250.157Z" fill="#005645"/>
<path d="M190.869 246.891C190.579 246.6 190.216 246.528 189.708 246.528C189.273 246.528 188.91 246.6 188.692 246.818C188.474 247.036 188.329 247.254 188.329 247.544C188.329 247.834 188.402 247.979 188.62 248.125C188.837 248.27 189.128 248.415 189.49 248.488L190.942 248.923C191.595 249.141 192.103 249.358 192.539 249.504C192.974 249.721 193.264 250.012 193.555 250.52C193.845 250.955 193.99 251.608 193.918 252.334C193.918 253.423 193.482 254.294 192.756 254.802C191.958 255.31 191.015 255.6 189.853 255.6C188.692 255.6 187.676 255.237 186.95 254.657C186.152 254.003 185.716 253.132 185.644 251.971L188.039 251.753C188.111 252.334 188.257 252.77 188.62 253.06C188.982 253.35 189.418 253.495 189.926 253.495C190.361 253.495 190.724 253.423 191.015 253.205C191.305 252.987 191.45 252.77 191.45 252.407C191.45 252.044 191.377 251.826 191.16 251.681C190.942 251.536 190.579 251.391 190.071 251.173L188.765 250.737C188.184 250.52 187.676 250.375 187.313 250.157C186.95 249.939 186.587 249.649 186.37 249.213C186.152 248.778 186.007 248.27 186.007 247.544C186.007 246.528 186.37 245.73 187.095 245.149C187.821 244.568 188.765 244.351 189.853 244.351C190.869 244.351 191.74 244.641 192.466 245.222C193.119 245.802 193.555 246.6 193.7 247.689L191.377 247.834C191.305 247.471 191.16 247.109 190.869 246.891Z" fill="#005645"/>
<path d="M198.2 255.092L197.401 246.819L194.426 247.036L194.208 244.714L202.482 243.916L202.772 246.238L199.796 246.528L200.595 254.875L198.2 255.092Z" fill="#005645"/>
<path d="M211.917 245.149H211.844L211.699 252.915L210.03 253.278L206.474 246.456L208.143 253.714L205.966 254.222L203.57 243.843L207.054 243.045L209.885 248.996L209.957 248.923L209.885 242.319L213.368 241.521L215.763 251.972L213.586 252.48L211.917 245.149Z" fill="#005645"/>
<path d="M219.392 245.947L220.191 247.98L224.691 246.31L225.489 248.415L218.739 250.955L214.965 240.94L221.642 238.399L222.441 240.432L217.941 242.101L218.667 243.988L222.876 242.391L223.674 244.351L219.392 245.947Z" fill="#005645"/>
<path d="M226.796 240.069L230.061 246.166L228.102 247.254L223.094 237.819L225.562 236.513L231.876 240.868V240.795L228.683 234.844L230.642 233.755L235.65 243.19L233.255 244.496L226.796 239.997V240.069Z" fill="#005645"/>
<path d="M240.15 240.214L235.359 233.392L232.964 235.134L231.585 233.174L238.408 228.384L239.787 230.344L237.319 232.013L242.109 238.835L240.15 240.214Z" fill="#005645"/>
<path d="M251.036 225.771L247.77 228.892L250.601 231.868L248.859 233.537L241.456 225.844L246.682 220.836L248.206 222.433L244.722 225.699L246.319 227.368L249.585 224.247L251.036 225.771Z" fill="#005645"/>
<path d="M259.6 219.602C259.818 220.256 259.891 220.981 259.746 221.635C259.6 222.288 259.238 223.014 258.73 223.594C257.931 224.538 256.988 225.118 255.972 225.264C254.956 225.409 253.867 225.046 252.851 224.175L247.625 219.893L249.149 218.006L254.157 222.143C255.246 223.086 256.189 223.086 256.988 222.143C257.786 221.199 257.568 220.256 256.48 219.385L251.472 215.248L252.996 213.361L258.222 217.643C258.875 218.296 259.31 218.949 259.6 219.602Z" fill="#005645"/>
<path d="M258.149 212.271L264.027 215.973L262.866 217.787L253.794 212.199L255.318 209.804L262.939 210.457V210.384L257.205 206.755L258.366 204.941L267.439 210.602L265.987 212.852L258.149 212.199V212.271Z" fill="#005645"/>
<path d="M263.447 197.103C264.608 196.667 265.987 196.885 267.656 197.611C269.326 198.337 270.342 199.28 270.777 200.441C271.213 201.603 271.14 202.836 270.56 204.143L268.818 207.989L259.092 203.562L260.834 199.716C261.415 198.337 262.286 197.466 263.447 197.103ZM268.455 203.562C268.818 202.764 268.89 202.038 268.6 201.457C268.382 200.877 267.729 200.296 266.64 199.861C265.552 199.353 264.753 199.28 264.1 199.498C263.52 199.716 263.011 200.224 262.649 201.022L262.068 202.328L267.874 204.941L268.455 203.562Z" fill="#005645"/>
<path fill-rule="evenodd" clip-rule="evenodd" d="M250.746 168.726V168.58C228.827 165.532 208.796 173.08 190.942 189.192C173.088 173.153 153.129 165.532 131.138 168.58V168.726C154 169.742 173.16 181.572 188.547 195.942C191.523 198.773 196.313 203.49 198.563 206.248L197.401 207.264C196.385 208.135 196.24 209.659 197.111 210.675C197.982 211.691 199.506 211.837 200.522 210.966L201.683 209.949C202.409 210.893 203.135 211.764 203.425 212.127C203.425 212.127 205.82 215.756 208.361 219.239C214.457 227.731 222.223 224.465 222.949 220.183C223.674 215.756 219.683 213.941 216.417 214.377C216.417 214.377 215.763 214.377 215.038 214.159C212.715 213.215 209.014 208.933 206.474 205.885L208.796 203.926C209.812 203.055 209.957 201.531 209.086 200.514C208.215 199.498 206.691 199.353 205.675 200.224L203.498 202.039C200.958 199.063 198.417 196.232 195.805 193.547C208.941 181.862 227.811 169.742 250.746 168.726Z" fill="#C5994F"/>
<path d="M202.917 124.961L216.562 126.268C215.255 121.115 209.304 119.01 203.353 119.736C205.167 117.921 209.885 116.615 214.167 116.905C210.102 112.405 205.094 112.188 198.925 114.946L204.296 109.502C199.941 107.76 195.587 110.155 193.482 113.204C193.482 111.825 192.248 106.019 191.014 105.002C189.781 106.019 188.547 111.825 188.547 113.204C186.442 110.155 182.087 107.688 177.733 109.502L183.104 114.946C176.934 112.188 171.927 112.405 167.862 116.905C172.144 116.615 176.862 117.921 178.676 119.736C172.725 119.01 166.774 121.042 165.467 126.268L179.112 124.961C174.031 126.485 169.822 127.937 168.37 136.646L182.305 129.461C178.096 132.364 176.209 141.291 179.329 144.847C180.346 142.525 185.571 133.598 187.676 131.784C189.345 144.702 188.184 165.605 187.24 169.887L186.079 171.483C183.466 171.556 178.676 171.701 175.991 172.209C177.66 173.153 179.329 174.169 180.926 175.185C186.224 174.532 193.192 174.459 196.385 175.765C192.611 175.693 188.184 176.491 184.265 177.435C186.442 178.959 188.256 180.338 189.127 181.064C189.635 181.499 190.361 181.717 191.014 181.717C191.668 181.717 192.393 181.499 192.901 181.064C194.861 179.467 200.522 175.185 206.111 172.137C203.425 171.629 198.635 171.483 196.022 171.411L194.861 169.814C193.99 165.532 192.829 144.557 194.426 131.711C196.53 133.525 201.756 142.452 202.772 144.775C205.893 141.146 204.006 132.292 199.796 129.388L213.731 136.574C212.207 127.864 207.998 126.485 202.917 124.961Z" fill="#C5994F"/>
<path fill-rule="evenodd" clip-rule="evenodd" d="M183.321 206.248C184.555 204.724 186.515 202.619 188.547 200.587C187.749 199.788 186.95 198.99 186.224 198.337C185.426 197.611 184.628 196.813 183.757 196.087C181.942 197.974 180.201 200.006 178.386 202.111L176.209 200.296C175.193 199.425 173.669 199.571 172.798 200.587C171.927 201.603 172.072 203.127 173.088 203.998L175.41 205.957C172.87 209.078 169.169 213.288 166.846 214.231C166.12 214.449 165.467 214.449 165.467 214.449C162.201 213.941 158.21 215.828 158.935 220.255C159.661 224.465 167.499 227.803 173.523 219.312C175.991 215.828 178.459 212.199 178.459 212.199C178.749 211.836 179.475 210.965 180.201 210.022L181.362 211.038C182.378 211.909 183.902 211.764 184.773 210.748C185.644 209.731 185.499 208.207 184.483 207.336L183.321 206.248Z" fill="#C5994F"/>
</g>
<defs>
<clipPath id="clip0_176_843">
<rect width="452.665" height="202.056" fill="white" transform="translate(89.9143 66.9722)"/>
</clipPath>
</defs>
</svg>
