<svg width="632" height="336" viewBox="0 0 632 336" fill="none" xmlns="http://www.w3.org/2000/svg">
<path d="M219.521 142.946H215.075C209.997 142.788 204.912 145.308 201.76 147.91V142.946H186.233V204.473H201.76V170.997C201.76 161.933 207.161 158.608 213.277 158.608H219.513V142.946H219.521Z" fill="black"/>
<path d="M93.7125 142.901C88.2436 142.901 83.2185 144.247 78.9155 146.895C78.9155 146.895 77.8398 147.587 77.5614 147.851V142.953H62.1325V227.959H77.5614V199.524C77.8548 199.787 78.1181 200.043 78.4867 200.291L78.562 200.374L78.6221 200.411C83.0003 203.142 88.1458 204.473 93.7201 204.473C102.928 204.473 111.955 200.216 117.236 192.625C117.928 191.632 118.552 190.602 119.109 189.526C121.629 184.817 122.84 179.431 122.84 173.593C122.84 167.756 121.621 162.399 119.094 157.743C116.657 153.079 112.978 149.483 108.562 146.782C102.529 143.089 94.3143 142.886 94.3143 142.886H93.7125V142.901ZM92.381 157.585V157.608H92.4638C95.4277 157.63 97.8725 158.239 100.069 159.481C102.236 160.707 103.846 162.377 105.147 164.882L105.169 164.927L105.2 164.972C106.493 167.312 107.216 170.223 107.216 173.947C107.216 177.67 106.501 180.552 105.162 183.072L105.124 183.139V183.162C103.83 185.637 102.198 187.344 100.032 188.631C97.8199 189.872 95.375 190.504 92.381 190.504C89.545 190.504 87.1378 189.865 84.8283 188.541C82.6242 187.239 80.9391 185.486 79.5775 182.959C78.2535 180.514 77.5464 177.625 77.5464 174.052C77.5464 170.479 78.261 167.598 79.5775 165.145C80.9466 162.618 82.6242 160.865 84.8283 159.571C87.1453 158.239 89.56 157.608 92.3885 157.608L92.381 157.585Z" fill="black"/>
<path d="M127.406 142.946V177.625C127.406 185.712 129.701 192.663 134.62 197.507L134.651 197.53C139.427 202.149 145.814 204.473 152.931 204.473C157.497 204.473 161.83 203.458 165.674 201.382C165.892 201.261 165.99 201.148 166.155 201.02V204.481H181.682V142.946H166.155V175.534C166.155 180.958 164.892 184.328 162.898 186.449C160.754 188.729 158.242 189.804 154.164 189.804C150.087 189.804 147.8 188.789 145.807 186.727C143.979 184.772 142.835 181.763 142.835 176.873V142.946H127.399H127.406Z" fill="black"/>
<path d="M508.104 147.211C506.66 146.067 504.96 145.3 503.222 144.721C501.371 144.104 499.506 143.593 497.572 143.299C497.482 143.284 497.392 143.269 497.309 143.262C496.339 143.126 495.353 143.036 494.368 142.991C493.232 142.938 492.088 142.946 490.952 143.006C487.823 143.164 484.716 143.796 481.812 144.969C476.328 147.181 471.762 150.844 468.625 155.757C468.181 156.449 467.775 157.163 467.392 157.886C464.871 162.587 463.66 167.966 463.66 173.803C463.66 179.641 464.879 184.982 467.407 189.631C469.844 194.288 473.425 198.049 477.931 200.584C482.316 203.044 487.387 204.308 492.404 204.421C492.532 204.421 492.66 204.421 492.788 204.421C497.948 204.466 502.996 203.172 507.465 200.584C507.999 200.276 508.48 199.945 508.939 199.523V204.473H524.368V119.498H508.939V147.858L508.104 147.211ZM494.119 189.962V189.939H494.037C491.073 189.917 488.628 189.315 486.431 188.089C484.265 186.878 482.647 185.223 481.354 182.755L481.331 182.718L481.301 182.673C480.007 180.356 479.285 177.482 479.285 173.803C479.285 170.125 479.999 167.281 481.331 164.784L481.369 164.716V164.694C482.662 162.249 484.295 160.556 486.461 159.285C488.673 158.059 491.118 157.427 494.112 157.427C496.94 157.427 499.355 158.066 501.665 159.367C503.869 160.654 505.554 162.384 506.915 164.882C508.239 167.304 508.947 170.155 508.947 173.683C508.947 177.211 508.232 180.062 506.915 182.492C505.554 184.99 503.869 186.72 501.665 188.006C499.348 189.323 496.933 189.947 494.104 189.947L494.119 189.962Z" fill="black"/>
<path d="M254.035 142.968C250.221 142.991 246.384 143.653 242.833 144.962C241.908 145.308 241.013 145.714 240.118 146.12C233.799 148.949 228.917 154.41 226.224 160.729C224.937 163.761 224.132 166.996 223.816 170.275C223.711 171.419 223.651 172.577 223.651 173.728C223.651 180.875 225.592 187.878 230.06 193.528C233.4 197.748 237.846 200.908 242.924 202.683C249.732 205.06 257.39 205.068 264.243 202.841C267.681 201.72 270.938 200.012 273.721 197.695C276.392 195.476 278.656 192.768 280.371 189.751C281.5 187.766 282.387 185.644 283.034 183.425L283.245 182.718H266.635L266.477 182.996C264.183 186.961 260.346 189.308 255.825 189.849C252.651 190.225 249.333 189.744 246.512 188.224C243.074 186.374 240.99 183.244 240.028 179.528H283.937C285.05 172.133 284.17 164.212 280.394 157.66C277.024 151.597 271.374 147.015 264.837 144.744C263.859 144.405 262.866 144.104 261.858 143.863C260.519 143.54 259.165 143.307 257.796 143.164C256.555 143.028 255.298 142.968 254.035 142.976M253.929 157.517H254.012C260.617 157.683 265.153 161.038 267.606 166.89H240.216C242.668 160.819 247.776 157.577 253.929 157.525V157.517Z" fill="black"/>
<path d="M551.765 142.998C551.547 143.013 551.329 143.028 551.111 143.043C550.607 143.088 550.095 143.111 549.591 143.163C549.351 143.186 549.117 143.216 548.884 143.239C548.41 143.291 547.944 143.367 547.477 143.442C547.019 143.517 546.552 143.607 546.093 143.713C545.642 143.81 545.191 143.923 544.739 144.051C544.295 144.179 543.859 144.314 543.423 144.465C542.986 144.615 542.558 144.773 542.136 144.954C541.948 145.029 541.76 145.112 541.58 145.195C538.202 146.707 535.358 148.903 533.335 151.732C531.334 154.53 530.236 157.818 530.236 161.21C530.236 165.25 531.296 169.034 533.696 171.96L533.741 172.013L533.794 172.073C535.93 174.503 538.578 176.398 541.587 177.647C544.288 178.776 547.598 179.814 551.592 180.852C551.592 180.852 551.66 180.874 551.69 180.874C554.511 181.589 556.7 182.274 558.084 182.838L558.175 182.868C558.175 182.868 558.272 182.906 558.295 182.906C560.085 183.432 560.996 184.425 561.236 185.456C561.477 186.486 561.078 187.637 559.89 188.615L559.86 188.638L559.83 188.668C558.791 189.533 557.152 190.165 554.248 190.165C550.802 190.165 548.538 189.45 547.011 188.39C545.567 187.284 544.987 186.358 544.747 184.801L544.679 184.335H528.942L529.032 185.29C529.574 191.045 532.41 196.123 537.036 199.553L537.081 199.591L537.134 199.628C541.828 202.953 547.718 204.488 554.346 204.488C558.423 204.488 562.229 203.758 565.614 202.201C568.924 200.681 571.723 198.492 573.731 195.686L573.792 195.641C575.808 192.738 576.846 189.307 576.846 185.742V185.644C576.771 181.89 575.665 178.339 573.303 175.631C571.294 173.329 568.804 171.531 565.991 170.335C563.501 169.282 560.386 168.282 556.572 167.258L556.505 167.236H556.467C553.518 166.401 551.201 165.664 549.569 165.054C548.297 164.528 547.342 163.873 546.545 163.113C545.965 162.286 545.845 161.474 546.018 160.721C546.191 159.961 546.672 159.269 547.259 158.826C548.44 157.938 550.08 157.366 552.751 157.366C555.812 157.366 557.55 158.043 558.739 159.081L558.791 159.134L558.844 159.179C560.146 160.247 560.672 161.195 560.83 163.068L560.868 163.572H576.402L576.357 162.798C576.048 156.945 573.611 151.717 569.24 148.189C568.932 147.94 568.616 147.692 568.293 147.451C567.969 147.218 567.638 146.985 567.3 146.767C566.961 146.549 566.615 146.346 566.269 146.142C565.915 145.947 565.562 145.759 565.201 145.578C564.84 145.398 564.471 145.232 564.095 145.067C563.719 144.909 563.343 144.751 562.959 144.615C562.575 144.472 562.184 144.337 561.793 144.217C561.394 144.089 560.996 143.976 560.597 143.871C560.191 143.765 559.777 143.667 559.371 143.585C558.957 143.494 558.536 143.419 558.114 143.352C557.686 143.284 557.264 143.224 556.836 143.171C556.399 143.118 555.963 143.081 555.527 143.043C555.083 143.005 554.639 142.983 554.195 142.968C553.684 142.953 553.18 142.945 552.668 142.96C552.367 142.968 552.074 142.983 551.773 142.998" fill="black"/>
<path d="M433.577 142.946C429.026 142.946 424.716 143.969 420.932 146.037C420.676 146.173 420.556 146.308 420.36 146.459V142.938H404.841V204.466H420.36V171.795C420.36 166.386 421.624 163.023 423.617 160.91C425.754 158.638 428.266 157.569 432.351 157.569C436.436 157.569 438.67 158.578 440.588 160.609V160.631L440.633 160.676C442.522 162.64 443.673 165.619 443.673 170.493V204.473H459.102V169.734C459.102 161.684 456.815 154.771 451.88 150.002C447.246 145.458 441.032 143.066 434.134 142.938H433.585L433.577 142.946Z" fill="black"/>
<path d="M317.202 142.953C313.163 142.953 309.108 143.871 305.52 145.744C305.151 145.94 304.812 146.143 304.481 146.399V142.946H288.955V204.473H304.481V172.006C304.481 166.582 305.73 163.137 307.709 160.947C309.808 158.623 312.177 157.585 316.089 157.585C320.001 157.585 322.152 158.563 324.018 160.594C325.801 162.535 326.937 165.581 326.937 170.486V204.473H342.365V172.006C342.365 166.582 343.614 163.137 345.593 160.947C347.691 158.623 350.061 157.585 353.98 157.585C357.9 157.585 359.931 158.548 361.811 160.594C363.594 162.535 364.738 165.581 364.738 170.486V204.473H380.167V169.726C380.167 161.692 377.925 154.809 373.073 150.025C368.439 145.338 362.135 142.946 355.124 142.946C348.474 142.946 341.801 145.315 337.28 150.303C336.964 150.649 336.663 151.003 336.362 151.364C336.49 151.206 334.053 148.911 333.812 148.701C330.179 145.458 325.319 143.683 320.52 143.134C319.421 143.006 318.308 142.946 317.202 142.946" fill="black"/>
<path d="M400.26 142.946H384.733V204.473H400.26V142.946Z" fill="black"/>
<path d="M392.489 119.505C390.488 119.505 388.487 120.355 387.065 121.747C385.583 123.168 384.74 125.252 384.74 127.261C384.74 129.269 385.568 131.376 387.012 132.827C388.434 134.249 390.48 135.099 392.496 135.099C394.512 135.099 396.558 134.249 397.98 132.827C399.432 131.376 400.26 129.292 400.26 127.261C400.26 125.23 399.417 123.168 397.927 121.747C396.513 120.355 394.505 119.505 392.504 119.505H392.489Z" fill="#2294D2"/>
</svg>
