<svg width="632" height="336" viewBox="0 0 632 336" fill="none" xmlns="http://www.w3.org/2000/svg">
<g clip-path="url(#clip0_176_846)">
<path d="M422.382 100.995V126.737C422.382 129.545 420.587 132.041 417.857 132.977L413.255 134.537L367.155 77.2041L417.935 94.833C420.587 95.691 422.382 98.1871 422.382 100.995Z" fill="#4CC4FF"/>
<path d="M334.081 160.902V65.6597L367.233 77.1262L413.333 134.459L334.081 160.902Z" fill="#2633FF"/>
<path d="M334.081 65.6593V35.8618L367.233 77.1259L334.081 65.6593Z" fill="#8142FF"/>
<path d="M334.081 35.8616L284.081 48.2642L236.342 60.1208L209.977 22.913C207.169 19.0128 209.977 13.5525 214.813 13.5525H311.46C314.424 13.5525 317.31 14.8786 319.182 17.2187L334.081 35.8616Z" fill="#8142FF"/>
<path d="M301.787 152.478L334.081 160.902L312.786 168L301.787 152.478Z" fill="#2633FF"/>
<path d="M301.787 152.478L312.786 168L291.803 175.021C287.981 176.269 284.002 173.461 284.002 169.405V147.875L301.787 152.478Z" fill="#4CC4FF"/>
<path d="M301.787 152.478L284.002 147.875V127.36L301.787 152.478Z" fill="#0A9D76"/>
<path d="M284.002 127.36V147.797L241.256 136.643C238.37 135.863 236.342 133.289 236.342 130.325V60.1211L284.002 127.36Z" fill="#20CC76"/>
<path fill-rule="evenodd" clip-rule="evenodd" d="M236.342 60.121L301.787 152.478L334.081 160.902V35.8618L236.342 60.121Z" fill="#103576"/>
<path d="M334.081 160.902L301.787 152.478L284.002 127.361V48.2646L334.081 65.6595V160.902Z" fill="#052976"/>
<path d="M320.352 110.434C320.508 110.434 320.664 110.512 320.82 110.512L318.168 113.398L318.012 113.554C317.778 113.476 317.466 113.476 317.232 113.398C317.076 113.398 316.998 113.32 316.842 113.32C316.686 113.242 316.53 113.242 316.374 113.242C316.296 113.242 316.218 113.164 316.062 113.164C315.984 113.164 315.906 113.086 315.828 113.086C315.672 113.008 315.516 113.008 315.438 113.008C315.204 112.93 315.048 112.852 314.814 112.852C314.658 112.852 314.58 112.774 314.424 112.696C313.878 112.54 313.41 112.306 312.864 112.15C312.786 112.072 312.63 112.072 312.474 111.994C312.396 111.994 312.396 111.916 312.318 111.916C312.162 111.838 312.084 111.838 311.928 111.76C311.772 111.682 311.694 111.682 311.538 111.604C311.46 111.526 311.304 111.526 311.226 111.448C311.148 111.37 310.992 111.37 310.914 111.292C310.758 111.214 310.602 111.136 310.446 111.058C310.29 110.98 310.134 110.902 309.978 110.824C310.524 110.512 310.992 110.122 311.46 109.809C311.85 109.497 312.24 109.263 312.63 109.029C312.786 108.873 313.02 108.795 313.176 108.639C313.332 108.717 313.488 108.795 313.644 108.795C313.956 108.873 314.19 109.029 314.502 109.107C314.658 109.185 314.892 109.263 315.126 109.341C315.204 109.419 315.36 109.419 315.516 109.497C315.672 109.575 315.75 109.576 315.906 109.654C316.062 109.732 316.218 109.731 316.374 109.809C316.53 109.888 316.686 109.888 316.842 109.966C317.388 110.122 317.934 110.278 318.48 110.356C318.558 110.356 318.636 110.356 318.792 110.434C318.948 110.434 319.104 110.512 319.26 110.512C319.416 110.512 319.572 110.59 319.728 110.59C319.806 110.59 319.962 110.59 320.04 110.668C320.196 110.434 320.274 110.434 320.352 110.434ZM310.758 104.817V86.5644C313.254 89.2165 315.282 92.3366 315.672 95.9248C316.842 95.1448 317.778 94.2087 318.636 93.0387C317.778 89.9185 315.984 87.1884 313.878 84.7703C316.92 85.7063 319.338 87.2664 320.664 88.3584C320.82 87.6564 320.82 86.9544 320.82 86.2523C320.82 85.5503 320.742 84.8483 320.664 84.1462C318.948 83.0542 316.686 81.8841 314.034 81.2601C315.75 80.09 317.31 79.31 318.246 78.842C317.466 77.9059 316.53 77.0479 315.516 76.4238C314.268 77.1259 312.708 78.0619 310.914 79.232V75.0978V74.7078C310.368 74.6297 309.822 74.5518 309.198 74.5518C308.652 74.5518 308.028 74.6297 307.482 74.7078V79.232C305.766 78.0619 304.127 77.0479 302.879 76.4238C301.865 77.1259 300.929 77.9059 300.149 78.842C301.085 79.31 302.567 80.09 304.361 81.2601C301.709 81.9621 299.447 83.0542 297.731 84.1462C297.575 84.8483 297.575 85.5503 297.575 86.2523C297.575 86.9544 297.653 87.6564 297.731 88.3584C299.057 87.3444 301.475 85.7063 304.517 84.7703C302.333 87.1104 300.539 89.9185 299.681 93.0387C300.461 94.1307 301.475 95.1448 302.645 95.9248C302.957 92.3366 304.985 89.2165 307.56 86.5644V104.739C304.049 102.477 299.135 100.137 293.285 99.669L294.767 101.853L295.859 103.491C299.993 104.349 303.503 106.143 306.156 107.937C303.425 109.341 300.539 110.2 297.419 110.512L300.071 113.398L300.227 113.554C303.425 112.93 306.468 111.76 309.276 110.044C309.978 109.654 310.602 109.185 311.226 108.717C311.616 108.405 312.006 108.171 312.474 107.859C315.126 106.065 318.636 104.271 322.77 103.413L323.862 101.775L325.344 99.591C319.182 100.215 314.268 102.477 310.758 104.817Z" fill="url(#paint0_linear_176_846)"/>
<path d="M415.752 249.202L418.638 246.316L421.524 249.202L424.566 246.16L421.524 243.118L418.638 246.004L415.752 243.118L412.709 246.16L415.752 249.202Z" fill="#052976"/>
<path d="M350.306 212.541L347.498 215.427L344.612 212.541L341.57 215.583L344.612 218.625L347.498 215.739L350.306 218.625L353.427 215.583L350.306 212.541Z" fill="#052976"/>
<path d="M408.185 218.001H405.611C404.285 218.001 403.973 217.377 403.973 216.597C403.973 215.661 404.441 215.271 405.689 215.271C406.157 215.271 406.781 215.349 407.405 215.427V213.632C406.547 213.554 405.689 213.398 404.987 213.398C402.647 213.398 401.321 214.335 401.321 216.207C401.321 216.909 401.477 217.533 401.945 218.079H400.697V219.873H408.029L408.185 218.001Z" fill="#052976"/>
<path d="M347.264 239.53C349.448 239.53 351.632 238.906 353.66 237.736C354.596 238.75 355.922 239.296 357.56 239.296H401.086C403.66 239.296 405.533 237.814 406.313 236.332C406.781 237.814 408.263 239.296 410.135 239.296H417.779C420.353 239.296 422.225 237.814 423.005 236.332C423.473 237.814 424.956 239.296 426.828 239.296H450.775C453.817 239.296 456.079 238.204 457.405 236.332C457.873 237.814 459.355 239.296 461.227 239.296H464.894C468.326 239.296 471.134 236.488 471.134 233.055V212.462H465.83V233.523C465.83 234.303 465.206 234.928 464.425 234.928H461.539C459.823 234.928 459.043 233.913 459.043 232.119C459.199 231.339 459.277 230.403 459.277 229.545C459.277 223.227 454.909 219.639 449.761 219.561C446.095 219.561 443.208 221.511 440.712 224.007H440.088C435.954 224.007 432.366 226.113 432.366 230.559C432.366 232.275 432.912 233.835 434.316 234.928H426.516C424.799 234.928 424.019 233.913 424.019 232.119V222.135H418.715V233.523C418.715 234.303 418.091 234.928 417.311 234.928H409.901C408.185 234.928 407.405 233.835 407.405 232.119V222.135H402.1V233.523C402.1 234.303 401.476 234.928 400.696 234.928H359.744C358.496 234.928 357.716 234.069 357.716 232.743V219.483H352.412V221.433C351.398 221.355 350.462 221.199 349.448 221.199C343.987 221.199 339.697 224.085 339.697 229.233V232.041C339.775 236.488 342.583 239.53 347.264 239.53ZM449.137 223.929C451.633 223.929 453.973 225.879 453.973 229.701C453.973 232.665 452.569 234.928 449.761 234.928H447.889C448.045 234.069 448.045 233.211 448.045 232.353C448.045 229.311 447.031 226.971 445.159 225.489C446.407 224.631 447.655 223.929 449.137 223.929ZM440.244 227.985C442.662 227.985 443.442 230.091 443.442 232.431C443.442 233.289 443.364 234.069 443.13 234.928H440.634C438.45 234.928 437.046 233.523 437.046 231.339C437.046 229.389 438.216 227.985 440.244 227.985ZM345.002 229.467C345.002 226.815 347.03 225.567 349.76 225.567C350.618 225.567 351.476 225.645 352.49 225.801V234.147C351.242 234.694 350.072 235.084 348.902 235.084C346.64 235.084 345.08 233.601 345.08 231.729L345.002 229.467Z" fill="#052976"/>
<path d="M481.509 212.462H476.204V239.296H481.509V212.462Z" fill="#052976"/>
<path d="M279.869 290.232L282.755 287.424L285.641 290.232L288.683 287.19L285.641 284.148L282.755 287.034L279.869 284.148L276.826 287.19L279.869 290.232Z" fill="#052976"/>
<path d="M305.22 263.009C299.916 263.009 296.64 266.675 296.64 271.979C296.64 277.283 299.76 280.326 304.83 280.326H308.73C308.496 283.836 305.766 284.928 302.178 284.928C301.164 284.928 300.228 284.85 299.214 284.772V289.14C300.462 289.296 301.554 289.374 302.724 289.296C309.354 289.218 314.035 285.942 314.035 279.312V272.447C314.035 266.831 310.758 263.009 305.22 263.009ZM308.73 275.957H305.142C302.802 275.957 301.944 274.007 301.944 271.745C301.944 269.327 302.958 267.299 305.298 267.299C307.716 267.299 308.73 269.405 308.73 271.823V275.957Z" fill="#052976"/>
<path d="M270.638 253.724L267.549 256.813L270.638 259.902L273.727 256.813L270.638 253.724Z" fill="#052976"/>
<path d="M251.61 284.123L248.521 287.211L251.61 290.3L254.699 287.211L251.61 284.123Z" fill="#052976"/>
<path d="M280.649 280.404H281.897C285.329 280.404 288.137 277.596 288.137 274.164V263.243H282.833V274.554C282.833 275.334 282.209 275.958 281.429 275.958H275.813C274.097 275.958 273.317 274.944 273.317 273.15V263.165H268.012V274.554C268.012 275.334 267.388 275.958 266.608 275.958H259.12C257.404 275.958 256.624 274.866 256.624 273.15V263.165H251.319V274.554C251.319 275.334 250.695 275.958 249.915 275.958H167.387C168.947 274.632 169.727 272.76 169.727 270.42C169.727 265.427 165.905 262.931 160.835 262.931C157.871 262.931 155.219 263.789 152.567 265.193L151.006 269.406L155.765 277.206C152.021 277.908 149.68 280.56 149.68 284.538C149.68 290.077 154.361 292.105 159.899 292.105C161.927 292.105 163.799 291.949 165.827 291.637V287.424C164.033 287.658 162.317 287.814 160.445 287.814C157.481 287.814 154.907 287.19 154.907 284.304C154.907 281.808 156.857 280.56 159.431 280.56H250.383C252.958 280.56 254.83 279.078 255.61 277.596C256.078 279.078 257.56 280.56 259.432 280.56H267.076C269.65 280.56 271.522 279.078 272.303 277.596C272.771 279.078 274.253 280.56 276.125 280.56L280.649 280.404ZM160.913 275.958H160.289L155.843 268.703C157.091 267.845 158.495 267.299 160.133 267.299C162.551 267.299 164.501 268.703 164.501 271.278C164.501 273.618 163.019 275.1 160.913 275.958Z" fill="#052976"/>
<path d="M443.57 284.112L440.481 287.201L443.57 290.29L446.659 287.201L443.57 284.112Z" fill="#052976"/>
<path d="M421.488 284.109L418.4 287.198L421.488 290.287L424.577 287.198L421.488 284.109Z" fill="#052976"/>
<path d="M476.204 274.554C476.204 275.334 475.58 275.958 474.8 275.958H471.134C469.418 275.958 468.638 274.866 468.638 273.15V253.493H463.334V274.554C463.334 275.334 462.71 275.958 461.93 275.958H456.703C454.987 275.958 454.207 274.866 454.207 273.15V269.249C454.207 263.399 449.995 260.357 444.223 260.357C441.571 260.357 436.812 260.825 434.238 261.215V265.427C436.578 265.037 441.025 264.725 443.365 264.725C446.563 264.725 448.903 266.129 448.903 269.327V274.476C448.903 275.256 448.279 275.88 447.499 275.88H429.09C427.374 275.88 426.594 274.788 426.594 273.072V263.087H421.29V274.554C421.29 275.334 420.666 275.958 419.886 275.958H412.475C410.759 275.958 409.979 274.944 409.979 273.15V263.165H404.675V274.554C404.675 275.334 404.051 275.958 403.271 275.958H348.122C346.406 275.958 345.626 274.866 345.626 273.15V253.493H340.322V279.156C340.322 282.276 338.215 284.148 335.095 284.148C331.663 284.148 329.869 281.652 329.869 277.752C329.869 276.426 330.181 274.242 330.415 272.526H325.111C324.877 274.398 324.487 276.816 324.487 278.688C324.487 284.928 329.011 288.36 335.173 288.36C340.79 288.36 345.158 285.474 345.47 280.17C345.47 279.624 345.47 278.454 345.47 277.44C345.938 278.922 347.42 280.326 349.292 280.326H403.583C406.157 280.326 408.029 278.844 408.809 277.362C409.277 278.844 410.759 280.326 412.631 280.326H420.276C422.85 280.326 424.722 278.844 425.502 277.362C425.97 278.844 427.452 280.326 429.324 280.326H447.889C450.463 280.326 452.335 278.844 453.115 277.362C453.583 278.844 455.065 280.326 456.937 280.326H462.32C464.894 280.326 466.766 278.844 467.546 277.362C468.014 278.844 469.496 280.326 471.368 280.326H475.268C478.7 280.326 481.509 277.518 481.509 274.086V253.493H476.204V274.554Z" fill="#052976"/>
<path d="M401.633 290.232L404.519 287.424L407.405 290.232L410.447 287.19L407.405 284.148L404.519 287.034L401.633 284.148L398.59 287.19L401.633 290.232Z" fill="#052976"/>
<path d="M160.835 212.541L157.948 215.427L155.14 212.541L152.098 215.583L155.14 218.625L157.948 215.739L160.835 218.625L163.877 215.583L160.835 212.541Z" fill="#052976"/>
<path d="M327.841 212.462H322.537V239.296H327.841V212.462Z" fill="#052976"/>
<path d="M312.24 233.524C312.24 234.304 311.616 234.928 310.836 234.928H305.844C304.128 234.928 303.348 233.914 303.348 232.12C303.426 231.652 303.504 231.184 303.504 230.794C303.504 225.645 299.838 222.213 294.612 222.213C289.385 222.213 285.719 225.645 285.719 230.794C285.719 232.9 286.265 234.382 286.577 234.928H281.897C280.181 234.928 279.401 233.914 279.401 232.12V212.463H274.097V233.524C274.097 234.304 273.473 234.928 272.693 234.928H267.778C266.062 234.928 265.282 233.914 265.282 232.12V231.496C265.282 226.815 261.46 222.915 256.78 222.915H235.563L246.405 215.817L243.987 212.307L228.074 223.461L229.556 227.361H256.39C258.34 227.361 259.978 228.921 259.978 230.95V233.524C259.978 234.304 259.354 234.928 258.574 234.928H222.77C221.054 234.928 220.274 233.836 220.274 232.12V222.135H214.97V233.524C214.97 234.304 214.346 234.928 213.566 234.928H170.195C168.947 234.928 168.167 234.07 168.167 232.744V219.483H162.863V221.433C161.849 221.355 160.835 221.199 159.899 221.199C154.439 221.199 150.148 224.085 150.148 229.233V232.042C150.148 236.566 152.957 239.608 157.715 239.608C159.899 239.608 162.083 238.984 164.111 237.814C165.047 238.828 166.373 239.374 168.011 239.374H213.878C216.452 239.374 218.324 237.892 219.104 236.41C219.572 237.892 221.054 239.374 222.926 239.374H258.964C261.538 239.374 263.41 237.892 264.19 236.41C264.658 237.892 266.14 239.374 268.012 239.374H273.083C275.657 239.374 277.529 237.892 278.309 236.41C278.777 237.892 280.259 239.374 282.131 239.374H295.626C298.044 239.374 299.994 238.126 301.398 236.41C301.866 237.892 303.348 239.374 305.22 239.374H311.226C314.659 239.374 317.467 236.566 317.467 233.134V212.541H312.163L312.24 233.524ZM162.941 234.148C161.693 234.694 160.523 235.084 159.353 235.084C157.091 235.084 155.531 233.602 155.531 231.73V229.467C155.531 226.815 157.559 225.567 160.289 225.567C161.147 225.567 162.005 225.645 163.019 225.801L162.941 234.148ZM298.2 231.34C298.2 233.29 296.64 234.928 294.612 234.928H291.569C291.569 234.928 291.023 233.29 291.023 231.34C291.023 228.609 292.038 226.659 294.612 226.659H294.69C297.186 226.659 298.2 228.531 298.2 231.34Z" fill="#052976"/>
<path d="M217.778 243.118L214.892 246.004L212.006 243.118L208.963 246.16L212.006 249.202L214.892 246.316L217.778 249.202L220.82 246.16L217.778 243.118Z" fill="#052976"/>
<path d="M158.884 318.314L156.154 314.18C155.686 313.556 155.14 313.166 154.36 313.166H153.034V318.392H150.226V304.585H155.92C158.806 304.585 161.068 305.912 161.068 308.72C161.068 310.826 159.82 312.23 157.87 312.698C158.65 313.244 159.274 313.868 159.742 314.648L162.16 318.314H158.884ZM155.686 311.06C157.09 311.06 158.338 310.358 158.26 308.876C158.182 307.472 157.09 306.77 155.686 306.77H153.034V310.982H155.686V311.06Z" fill="#052976"/>
<path d="M173.08 313.322C173.08 316.442 170.896 318.47 167.776 318.47C164.656 318.47 162.472 316.442 162.472 313.322C162.472 310.202 164.656 308.252 167.776 308.174C170.896 308.174 173.08 310.202 173.08 313.322ZM170.272 313.322C170.272 311.762 169.414 310.514 167.776 310.514C166.138 310.514 165.28 311.762 165.28 313.4C165.28 315.038 166.138 316.208 167.776 316.208C169.414 316.208 170.272 314.96 170.272 313.322Z" fill="#052976"/>
<path d="M176.747 308.486L179.399 315.116L181.739 308.486H184.391L179.165 322.449H176.669L178.229 318.314L173.705 308.564H176.747V308.486Z" fill="#052976"/>
<path d="M195.156 308.486V318.314H192.504V316.832C191.802 317.846 190.71 318.548 189.15 318.548C186.264 318.548 184.938 316.286 184.938 313.4C184.938 310.514 186.264 308.252 189.15 308.252C190.71 308.252 191.802 308.876 192.504 309.968V308.564L195.156 308.486ZM192.348 313.322C192.348 311.684 191.646 310.436 190.086 310.436C188.526 310.436 187.824 311.684 187.824 313.244C187.824 314.804 188.526 316.13 190.164 316.13C191.802 316.13 192.348 314.882 192.348 313.322Z" fill="#052976"/>
<path d="M200.07 304.274V318.315H197.418V304.274H200.07Z" fill="#052976"/>
<path d="M216.763 305.054V307.16L216.529 307.316C215.437 306.848 214.345 306.536 213.175 306.536C210.289 306.536 208.573 308.486 208.573 311.372C208.573 314.258 210.367 316.208 213.331 316.208C214.501 316.208 215.593 315.896 216.685 315.35L216.919 315.506V317.69C215.671 318.236 214.423 318.471 213.097 318.471C208.651 318.471 205.687 315.662 205.687 311.216C205.687 307.004 208.339 304.196 212.473 304.196C213.955 304.274 215.359 304.508 216.763 305.054Z" fill="#052976"/>
<path d="M228.62 313.322C228.62 316.442 226.436 318.47 223.315 318.47C220.195 318.47 218.011 316.442 218.011 313.322C218.011 310.202 220.195 308.252 223.315 308.174C226.436 308.174 228.62 310.202 228.62 313.322ZM225.812 313.322C225.812 311.762 224.954 310.514 223.315 310.514C221.677 310.514 220.819 311.762 220.819 313.4C220.819 315.038 221.677 316.208 223.315 316.208C224.876 316.208 225.812 314.96 225.812 313.322Z" fill="#052976"/>
<path d="M246.092 312.542V318.393H243.44V313.244C243.44 311.84 243.05 310.592 241.568 310.592C239.93 310.592 239.54 312.152 239.54 313.947V318.393H236.888V313.244C236.888 311.84 236.498 310.592 235.016 310.592C233.378 310.592 233.066 312.152 232.988 313.947V318.393H230.335V308.564H232.832V310.124C233.456 309.032 234.548 308.252 236.03 308.252C237.668 308.252 238.76 309.11 239.228 310.436C239.852 309.11 240.944 308.252 242.66 308.252C245 308.174 246.092 310.124 246.092 312.542Z" fill="#052976"/>
<path d="M263.955 312.542V318.393H261.303V313.244C261.303 311.84 260.913 310.592 259.431 310.592C257.793 310.592 257.481 312.152 257.403 313.947V318.393H254.751V313.244C254.751 311.84 254.361 310.592 252.879 310.592C251.241 310.592 250.851 312.152 250.851 313.947V318.393H248.199V308.564H250.695V310.124C251.319 309.032 252.411 308.252 253.893 308.252C255.531 308.252 256.623 309.11 257.091 310.436C257.715 309.11 258.807 308.252 260.523 308.252C262.863 308.174 263.955 310.124 263.955 312.542Z" fill="#052976"/>
<path d="M278.464 308.642V310.826L278.308 310.904C277.138 310.67 276.046 310.436 275.032 310.436C274.018 310.436 273.16 310.592 273.16 311.138C273.16 311.84 274.408 311.918 275.5 312.152C277.45 312.542 279.166 313.322 279.166 315.272C279.166 317.456 276.982 318.392 274.408 318.392C273.082 318.392 271.834 318.236 270.586 317.768V315.584L270.742 315.506C271.912 315.896 273.004 316.052 274.252 316.052C275.266 316.052 276.28 315.818 276.28 315.194C276.28 314.492 275.032 314.336 273.94 314.102C271.99 313.634 270.352 313.01 270.352 311.138C270.352 309.032 272.458 308.174 274.954 308.174C276.202 308.174 277.294 308.408 278.464 308.642Z" fill="#052976"/>
<path d="M288.448 308.642V310.826L288.292 310.904C287.122 310.67 286.03 310.436 285.016 310.436C284.002 310.436 283.144 310.592 283.144 311.138C283.144 311.84 284.392 311.918 285.484 312.152C287.434 312.542 289.15 313.322 289.15 315.272C289.15 317.456 286.966 318.392 284.392 318.392C283.066 318.392 281.818 318.236 280.57 317.768V315.584L280.726 315.506C281.896 315.896 282.988 316.052 284.236 316.052C285.25 316.052 286.264 315.818 286.264 315.194C286.264 314.492 285.016 314.336 283.924 314.102C281.974 313.634 280.336 313.01 280.336 311.138C280.336 309.032 282.442 308.174 284.938 308.174C286.186 308.174 287.278 308.408 288.448 308.642Z" fill="#052976"/>
<path d="M305.766 313.322C305.766 316.442 303.582 318.47 300.462 318.47C297.341 318.47 295.157 316.442 295.157 313.322C295.157 310.202 297.341 308.252 300.462 308.174C303.582 308.174 305.766 310.202 305.766 313.322ZM302.958 313.322C302.958 311.762 302.1 310.514 300.462 310.514C298.823 310.514 297.965 311.762 297.965 313.4C297.965 315.038 298.823 316.208 300.462 316.208C302.1 316.208 302.958 314.96 302.958 313.322Z" fill="#052976"/>
<path d="M309.977 308.486V310.046C310.601 308.954 311.694 308.174 313.176 308.174C315.672 308.174 316.686 310.046 316.686 312.464V318.314H314.034V313.166C314.034 311.684 313.644 310.514 312.162 310.514C310.289 310.514 310.055 312.464 310.055 314.492V318.314H307.403V308.486H309.977Z" fill="#052976"/>
<path d="M321.522 308.564H322.926V307.082C322.926 304.976 324.564 303.806 326.67 303.806C327.607 303.806 328.465 303.962 329.245 304.43V306.458L329.167 306.536C328.543 306.302 327.919 306.146 327.294 306.146C326.28 306.146 325.656 306.77 325.656 307.706V308.564H328.699V310.904H325.656V318.314H323.004V310.904H321.6L321.522 308.564Z" fill="#052976"/>
<path d="M339.931 313.322C339.931 316.442 337.747 318.47 334.627 318.47C331.506 318.47 329.322 316.442 329.322 313.322C329.322 310.202 331.506 308.252 334.627 308.174C337.747 308.174 339.931 310.202 339.931 313.322ZM337.123 313.322C337.123 311.762 336.265 310.514 334.627 310.514C332.988 310.514 332.13 311.762 332.13 313.4C332.13 315.038 332.988 316.208 334.627 316.208C336.265 316.208 337.123 314.96 337.123 313.322Z" fill="#052976"/>
<path d="M344.065 308.486V310.125C344.923 308.72 346.25 308.096 347.888 308.174V310.515C347.576 310.437 347.342 310.437 347.108 310.437C345.47 310.437 344.221 311.295 344.221 313.011V318.237H341.569V308.409H344.065V308.486Z" fill="#052976"/>
<path d="M359.276 304.507V314.258C359.276 316.91 357.482 318.47 354.83 318.47C353.894 318.47 353.036 318.314 352.1 318.08V316.052L352.334 315.896C352.958 316.052 353.504 316.208 354.128 316.208C355.61 316.208 356.468 315.272 356.468 313.868V304.507H359.276Z" fill="#052976"/>
<path d="M368.169 318.314V316.832C367.545 317.924 366.452 318.548 364.892 318.548C362.396 318.548 360.992 316.91 360.992 314.336V308.564H363.644V313.712C363.644 315.116 364.19 316.286 365.672 316.286C367.311 316.286 367.935 314.804 367.935 313.166V308.564H370.587V318.392L368.169 318.314Z" fill="#052976"/>
<path d="M382.99 313.322C382.99 316.208 381.586 318.471 378.777 318.471C377.217 318.471 376.125 317.846 375.501 316.754V318.236H374.721H373.005V304.196H375.657V309.656C376.359 308.72 377.373 308.174 378.855 308.174C381.664 308.174 382.99 310.514 382.99 313.322ZM380.181 313.322C380.181 311.762 379.479 310.436 377.919 310.436C376.359 310.436 375.657 311.762 375.657 313.322C375.657 314.882 376.359 316.208 377.919 316.208C379.479 316.208 380.181 314.882 380.181 313.322Z" fill="#052976"/>
<path d="M394.3 308.486V318.314H391.648V316.832C390.946 317.846 389.854 318.548 388.294 318.548C385.408 318.548 384.082 316.286 384.082 313.4C384.082 310.514 385.408 308.252 388.294 308.252C389.854 308.252 390.946 308.876 391.648 309.968V308.564L394.3 308.486ZM391.57 313.322C391.57 311.684 390.79 310.436 389.308 310.436C387.826 310.436 387.046 311.684 387.046 313.244C387.046 314.804 387.748 316.13 389.386 316.13C390.868 316.208 391.57 314.882 391.57 313.322Z" fill="#052976"/>
<path d="M399.214 308.486V318.315H396.562V308.486H399.214ZM399.604 305.366L397.966 307.082L396.25 305.366L397.966 303.728L399.604 305.366Z" fill="#052976"/>
<path d="M404.128 304.274V318.315H401.476V304.274H404.128Z" fill="#052976"/>
<path d="M422.225 318.314H418.949L417.935 317.378C416.687 318.158 415.361 318.626 414.035 318.626C411.461 318.626 409.823 317.144 409.823 315.194C409.823 313.556 410.837 312.62 412.085 311.996C411.305 311.138 410.759 310.202 410.759 309.032C410.759 307.238 412.319 305.678 414.659 305.678C416.999 305.678 418.481 307.004 418.481 308.876C418.481 310.748 417.155 311.528 415.829 312.23L418.169 314.414C418.715 313.634 419.027 312.698 419.027 311.606H421.445C421.445 313.244 420.743 314.726 419.729 315.896L422.225 318.314ZM416.219 315.818L413.411 313.244C412.709 313.634 412.241 314.102 412.241 314.804C412.241 315.584 413.021 316.286 414.113 316.286C414.893 316.364 415.595 316.208 416.219 315.818ZM414.191 310.904C415.205 310.436 416.063 309.89 416.063 309.032C416.063 308.252 415.361 307.706 414.581 307.706C413.567 307.706 413.099 308.408 413.099 309.032C413.021 309.656 413.489 310.202 414.191 310.904Z" fill="#052976"/>
<path d="M438.45 304.507L434.004 312.464V318.314H431.118V312.464L426.281 304.507H429.635L432.756 310.046L435.642 304.507H438.45Z" fill="#052976"/>
<path d="M446.796 308.486V318.314H444.144V316.832C443.442 317.846 442.35 318.548 440.79 318.548C437.904 318.548 436.578 316.286 436.578 313.4C436.578 310.514 437.904 308.252 440.79 308.252C442.35 308.252 443.442 308.876 444.144 309.968V308.564L446.796 308.486ZM443.988 313.322C443.988 311.684 443.208 310.436 441.726 310.436C440.244 310.436 439.464 311.684 439.464 313.244C439.464 314.804 440.166 316.13 441.804 316.13C443.364 316.208 444.066 314.882 443.988 313.322Z" fill="#052976"/>
<path d="M451.555 308.486V310.046C452.179 308.954 453.271 308.174 454.753 308.174C457.249 308.174 458.263 310.046 458.263 312.464V318.314H455.611V313.166C455.611 311.684 455.221 310.514 453.739 310.514C451.945 310.514 451.633 312.464 451.633 314.492V318.314H448.98V308.486H451.555Z" fill="#052976"/>
<path d="M470.354 313.322C470.354 316.208 468.95 318.471 466.141 318.471C464.581 318.471 463.489 317.846 462.865 316.754V318.236H462.085H460.369V304.196H463.021V309.656C463.723 308.72 464.737 308.174 466.219 308.174C469.028 308.174 470.354 310.514 470.354 313.322ZM467.546 313.322C467.546 311.762 466.843 310.436 465.283 310.436C463.723 310.436 463.021 311.762 463.021 313.322C463.021 314.882 463.723 316.208 465.283 316.208C466.843 316.208 467.546 314.882 467.546 313.322Z" fill="#052976"/>
<path d="M478.934 318.314V316.832C478.31 317.924 477.218 318.548 475.658 318.548C473.161 318.548 471.757 316.91 471.757 314.336V308.564H474.409V313.712C474.409 315.116 474.955 316.286 476.438 316.286C478.076 316.286 478.7 314.804 478.7 313.166V308.564H481.352V318.392L478.934 318.314Z" fill="#052976"/>
<path d="M293.44 308.486H290.788V318.314H293.44V308.486Z" fill="#052976"/>
<path d="M292.175 303.693L290.465 305.403L292.12 307.058L293.83 305.348L292.175 303.693Z" fill="#052976"/>
<path d="M268.635 308.485H265.983V318.314H268.635V308.485Z" fill="#052976"/>
<path d="M267.289 303.696L265.58 305.406L267.234 307.061L268.944 305.351L267.289 303.696Z" fill="#052976"/>
</g>
<defs>
<linearGradient id="paint0_linear_176_846" x1="309.036" y1="130.714" x2="309.036" y2="73.888" gradientUnits="userSpaceOnUse">
<stop offset="0.13" stop-color="#BC9470"/>
<stop offset="0.15" stop-color="#BE9773"/>
<stop offset="0.34" stop-color="#D5B9A1"/>
<stop offset="0.53" stop-color="#E7D5C4"/>
<stop offset="0.71" stop-color="#F4E8DE"/>
<stop offset="0.87" stop-color="#FCF4ED"/>
<stop offset="1" stop-color="#FFF9F3"/>
</linearGradient>
<clipPath id="clip0_176_846">
<rect width="331.829" height="308.895" fill="white" transform="translate(149.68 13.5525)"/>
</clipPath>
</defs>
</svg>
