<svg width="632" height="336" viewBox="0 0 632 336" fill="none" xmlns="http://www.w3.org/2000/svg">
<g clip-path="url(#clip0_176_847)">
<g clip-path="url(#clip1_176_847)">
<path d="M32.191 203.98H27.2129V209.219H32.191V203.98Z" fill="#6A6A6B"/>
<path d="M35.6523 222.487V226.027H22.2903V224.628C23.291 222.578 24.6263 220.709 26.2412 219.097C26.864 218.398 27.6189 217.829 28.4623 217.421C29.3057 217.015 30.2212 216.779 31.1561 216.726C31.797 216.696 32.4349 216.831 33.009 217.117C33.5831 217.404 34.0741 217.832 34.4354 218.362C35.247 219.576 35.6612 221.012 35.6207 222.471M32.294 211.78C30.8369 211.755 29.3909 212.038 28.0507 212.61C26.8708 213.134 25.7886 213.856 24.8505 214.743C23.9322 215.641 23.0668 216.59 22.2587 217.588V212.151H16.8776V230.792C16.8745 231.535 16.6578 232.262 16.2534 232.886C15.7933 233.572 15.1538 234.119 14.4044 234.466C13.4725 234.899 12.4527 235.11 11.4254 235.082C10.326 235.135 9.23326 234.886 8.26467 234.364C7.53139 233.952 6.93302 233.337 6.54207 232.594C6.20598 231.938 6.02486 231.213 6.01265 230.476C6.01265 229.425 6.53417 226.153 7.59303 220.764L7.64041 220.496L2.6781 220.227H2.48055V220.425C2.05385 222.527 1.69037 224.652 1.35059 226.746C1.08403 228.285 0.917741 229.84 0.852783 231.4C0.872628 232.718 1.18289 234.016 1.76148 235.201C2.48925 236.649 3.64159 237.839 5.06444 238.614C7.05054 239.649 9.27566 240.137 11.5123 240.029C13.5924 240.102 15.662 239.703 17.5651 238.859C19.0099 238.212 20.2503 237.181 21.1525 235.88C21.8867 234.782 22.2873 233.495 22.3061 232.175V230.942H41.0492V221.531C41.1005 219.118 40.414 216.747 39.0817 214.735C37.762 212.791 35.4864 211.796 32.3414 211.796" fill="#6A6A6B"/>
<path d="M61.7596 233.437H57.5164V238.494H61.7596V233.437Z" fill="#6A6A6B"/>
<path d="M67.3304 233.437H63.0872V238.494H67.3304V233.437Z" fill="#6A6A6B"/>
<path d="M65.0546 212.166H59.6733V226.025H51.0841V204.825H45.6951V230.972H65.0546V212.166Z" fill="#6A6A6B"/>
<path d="M96.9778 226.025H80.0997V212.166H74.7107V231.359C74.7682 232.341 74.5521 233.321 74.0866 234.188C73.9069 234.491 73.6473 234.737 73.3366 234.902C73.0258 235.067 72.6754 235.142 72.3244 235.12L70.823 235.033V239.909H71.0442C72.4746 240.004 73.4152 240.051 73.7387 240.051C74.6781 240.096 75.6129 239.89 76.4461 239.454C77.2792 239.018 77.9813 238.367 78.48 237.57C79.4833 235.989 80.0601 233.769 80.0601 230.956H102.328V204.825H96.9388L96.9778 226.025Z" fill="#6A6A6B"/>
<path d="M113.145 204.825H107.764V230.964H113.145V204.825Z" fill="#6A6A6B"/>
<path d="M139.371 204.161H135.128V209.218H139.371V204.161Z" fill="#6A6A6B"/>
<path d="M144.95 204.161H140.706V209.218H144.95V204.161Z" fill="#6A6A6B"/>
<path d="M174.558 203.98H169.58V209.219H174.558V203.98Z" fill="#6A6A6B"/>
<path d="M187.398 233.437H183.155V238.494H187.398V233.437Z" fill="#6A6A6B"/>
<path d="M192.977 233.437H188.726V238.494H192.977V233.437Z" fill="#6A6A6B"/>
<path d="M135.246 218.424C135.556 217.811 136.095 217.345 136.748 217.129C137.739 216.835 138.772 216.704 139.805 216.741C141.054 216.741 142.271 216.797 143.424 216.899V226.026H139.695C138.706 226.06 137.718 225.929 136.771 225.639C136.441 225.524 136.136 225.344 135.877 225.109C135.618 224.874 135.409 224.59 135.262 224.272C134.874 223.309 134.702 222.274 134.756 221.238C134.706 220.275 134.873 219.314 135.246 218.424ZM190.701 212.166H185.32V226.026H174.818V212.166H169.461V226.026H148.798V212.301H148.608C147.818 212.182 146.443 212.072 144.547 211.976C142.65 211.882 141.046 211.827 139.616 211.827C137.565 211.749 135.517 212.016 133.555 212.616C132.152 213.104 130.999 214.127 130.347 215.461C129.606 217.291 129.272 219.259 129.367 221.229C129.269 223.291 129.622 225.349 130.402 227.258C131.052 228.619 132.214 229.667 133.634 230.174C135.508 230.765 137.47 231.032 139.434 230.965H190.701V212.166Z" fill="#6A6A6B"/>
<path d="M252.138 221.45V226.025H244.892C244.789 225.528 244.686 224.903 244.592 224.121C244.482 223.285 244.427 222.443 244.425 221.601C244.449 220.043 244.61 218.491 244.908 216.962C245.758 216.788 246.624 216.697 247.491 216.694C249.317 216.694 250.557 217.08 251.19 217.831C251.905 218.896 252.239 220.171 252.138 221.45ZM265.571 226.025H259.25C258.871 226.021 258.506 225.887 258.214 225.646C257.883 225.389 257.636 225.04 257.503 224.643V221.561C257.557 219.747 257.312 217.937 256.776 216.203C256.271 214.798 255.248 213.638 253.916 212.964C252.06 212.116 250.027 211.729 247.99 211.834C246.527 211.821 245.067 211.946 243.627 212.205C242.595 212.363 241.586 212.65 240.625 213.059L240.577 213.09V213.193C240.186 214.513 239.877 215.856 239.653 217.215C239.394 218.657 239.259 220.119 239.25 221.585C239.268 223.071 239.422 224.551 239.708 226.009H211.428V224.429C211.495 221.968 211.071 219.518 210.179 217.223C209.475 215.419 208.245 213.869 206.647 212.774C205.07 211.768 203.231 211.252 201.361 211.289C200.469 211.296 199.579 211.37 198.698 211.51C197.702 211.668 196.841 211.81 196.098 211.984L195.893 212.032L196.28 216.093V216.306H200.231C201.02 216.307 201.798 216.483 202.51 216.822C203.222 217.162 203.85 217.655 204.348 218.266C205.494 219.57 206.086 221.806 206.086 224.911V225.994H194.273V230.932H257.487V230.016C257.613 230.173 257.757 230.316 257.914 230.442C258.283 230.756 258.75 230.929 259.234 230.932H270.913V204.825H265.531L265.571 226.025Z" fill="#6A6A6B"/>
<path d="M302.78 204.161H298.529V209.218H302.78V204.161Z" fill="#6A6A6B"/>
<path d="M297.201 204.161H292.958V209.218H297.201V204.161Z" fill="#6A6A6B"/>
<path d="M317.414 233.437H313.171V238.494H317.414V233.437Z" fill="#6A6A6B"/>
<path d="M322.985 233.437H318.742V238.494H322.985V233.437Z" fill="#6A6A6B"/>
<path d="M301.239 216.899V226.025H297.517C296.528 226.06 295.54 225.929 294.594 225.639C294.264 225.524 293.961 225.344 293.703 225.109C293.445 224.874 293.238 224.589 293.092 224.272C292.7 223.311 292.524 222.274 292.579 221.238C292.529 220.275 292.696 219.313 293.069 218.424C293.379 217.812 293.919 217.346 294.57 217.129C295.559 216.835 296.589 216.704 297.62 216.741C298.877 216.741 300.093 216.797 301.239 216.899ZM427.747 221.45V226.025H420.501C420.398 225.528 420.295 224.904 420.201 224.121C420.085 223.286 420.027 222.444 420.027 221.601C420.05 220.044 420.212 218.491 420.509 216.962C421.362 216.788 422.23 216.698 423.1 216.694C424.918 216.694 426.159 217.081 426.79 217.831C427.514 218.893 427.851 220.17 427.747 221.45ZM441.18 226.025H434.859C434.48 226.021 434.115 225.887 433.823 225.646C433.492 225.391 433.244 225.041 433.112 224.643V221.561C433.166 219.748 432.921 217.937 432.385 216.204C431.879 214.797 430.853 213.637 429.517 212.964C427.664 212.116 425.634 211.728 423.598 211.834C422.134 211.822 420.671 211.946 419.229 212.206C418.199 212.366 417.193 212.652 416.234 213.059L416.139 213.107V213.209C415.751 214.53 415.442 215.873 415.214 217.231C414.958 218.673 414.823 220.136 414.812 221.601C414.833 223.087 414.989 224.568 415.278 226.025H378.14V204.826H372.758V226.025H363.845V221.782C363.831 220.51 363.651 219.246 363.308 218.021C362.923 216.629 362.176 215.364 361.143 214.355C360.511 213.781 359.771 213.341 358.967 213.058C358.162 212.776 357.308 212.658 356.457 212.711H349.583L350.065 211.771C351.134 209.737 352.332 207.773 353.652 205.892L353.794 205.679L349.78 203.403L349.646 203.545C348.903 204.335 348.065 205.347 347.275 206.438C346.516 207.431 345.844 208.489 345.268 209.598L343.048 213.881L342.977 214.007L345.663 217.634H355.619C356.011 217.643 356.394 217.749 356.734 217.942C357.075 218.135 357.362 218.409 357.571 218.741C358.17 219.618 358.469 220.666 358.424 221.727V226.002H320.828V212.166H315.439V226.025H306.628V212.3H306.431C305.64 212.182 304.266 212.071 302.369 211.976C300.473 211.882 298.869 211.827 297.446 211.827C295.396 211.748 293.347 212.015 291.386 212.616C290.687 212.859 290.044 213.238 289.492 213.733C288.942 214.226 288.495 214.825 288.178 215.493C287.431 217.32 287.097 219.29 287.198 221.261C287.094 223.323 287.448 225.382 288.233 227.29C288.552 227.964 289.001 228.568 289.554 229.069C290.108 229.569 290.754 229.955 291.457 230.206C293.334 230.796 295.298 231.063 297.265 230.996H433.128V230.087C433.251 230.242 433.392 230.382 433.547 230.506C433.917 230.821 434.388 230.994 434.874 230.996H446.545V204.826H441.164L441.18 226.025Z" fill="#6A6A6B"/>
<path d="M457.331 204.825H451.95V230.964H457.331V204.825Z" fill="#6A6A6B"/>
<path d="M489.144 204.161H484.901V209.218H489.144V204.161Z" fill="#6A6A6B"/>
<path d="M483.565 204.161H479.322V209.218H483.565V204.161Z" fill="#6A6A6B"/>
<path d="M530.289 208.453L538.554 206.833L538.791 206.786L538.167 204.075L534.042 205.19C533.821 205.03 533.643 204.82 533.522 204.576C533.401 204.332 533.34 204.063 533.346 203.791C533.342 203.577 533.381 203.365 533.461 203.167C533.541 202.968 533.661 202.788 533.812 202.637C533.968 202.476 534.157 202.35 534.366 202.266C534.574 202.183 534.798 202.146 535.022 202.155C535.291 202.16 535.558 202.208 535.812 202.298C536.013 202.377 536.201 202.483 536.373 202.614L536.665 202.867L537.266 200.117L537.123 200.03C536.231 199.456 535.197 199.142 534.137 199.121C533.594 199.104 533.053 199.199 532.549 199.401C532.044 199.601 531.587 199.904 531.205 200.291C530.837 200.65 530.546 201.081 530.349 201.556C530.152 202.032 530.054 202.542 530.06 203.056C530.052 203.587 530.154 204.114 530.357 204.605C530.561 205.096 530.863 205.539 531.244 205.909L529.751 206.304L530.289 208.453Z" fill="#6A6A6B"/>
<path d="M555.243 233.437H551V238.494H555.243V233.437Z" fill="#6A6A6B"/>
<path d="M549.672 233.437H545.428V238.494H549.672V233.437Z" fill="#6A6A6B"/>
<path d="M478.95 221.237C478.9 220.274 479.068 219.313 479.44 218.424C479.749 217.813 480.285 217.348 480.934 217.128C481.925 216.836 482.958 216.704 483.992 216.741C485.248 216.741 486.465 216.796 487.611 216.899V226.025H483.881C482.891 226.06 481.904 225.929 480.957 225.638C480.294 225.403 479.751 224.914 479.448 224.279C479.068 223.312 478.898 222.275 478.95 221.237ZM589.267 225.488C589.246 224.75 589.493 224.028 589.963 223.457C590.166 223.202 590.426 222.998 590.722 222.861C591.019 222.723 591.343 222.657 591.669 222.667C592 222.659 592.328 222.726 592.629 222.863C592.93 223 593.196 223.203 593.408 223.457C593.886 224.015 594.139 224.73 594.119 225.465V226.034H589.267V225.488ZM615.169 226.025H607.86V222.778C607.91 220.352 607.399 217.948 606.367 215.753C605.407 213.768 603.874 212.116 601.965 211.012C599.842 209.829 597.441 209.24 595.012 209.305C593.421 209.315 591.835 209.466 590.271 209.756C588.564 210.056 586.786 210.435 584.969 210.893L584.771 210.941L585.198 215.066V215.311L585.435 215.271C587.577 214.931 589.236 214.678 590.516 214.481C591.641 214.312 592.776 214.222 593.914 214.212C596.049 214.186 598.138 214.839 599.88 216.077C601.61 217.286 602.479 219.546 602.479 222.778V226.025H599.492V225.528C599.491 224.218 599.16 222.929 598.528 221.782C597.866 220.588 596.912 219.583 595.755 218.859C594.551 218.11 593.157 217.724 591.74 217.744C590.314 217.727 588.911 218.113 587.695 218.859C586.534 219.56 585.573 220.549 584.904 221.729C584.236 222.909 583.883 224.242 583.878 225.599V226.065H553.077V212.166H547.696V226.025H537.202V212.166H531.813V226.025H492.992V212.3H492.794C492.004 212.181 490.629 212.071 488.741 211.976C486.852 211.881 485.24 211.826 483.818 211.826C481.765 211.747 479.714 212.014 477.749 212.616C477.051 212.86 476.408 213.24 475.858 213.734C475.307 214.227 474.86 214.825 474.541 215.492C473.8 217.322 473.466 219.29 473.561 221.26C473.459 223.322 473.812 225.381 474.596 227.289C475.245 228.651 476.407 229.7 477.829 230.205C479.703 230.797 481.664 231.064 483.628 230.995H620.551V204.825H615.169V226.025Z" fill="#6A6A6B"/>
<path d="M631.329 204.825H625.947V230.964H631.329V204.825Z" fill="#6A6A6B"/>
<path d="M8.7305 265.781C10.9746 265.781 12.476 264.912 12.476 263.055V261.735C12.476 259.807 10.9746 258.859 8.7305 258.859C7.43459 258.859 6.43898 258.938 5.52237 258.977V265.67C6.43898 265.67 7.43459 265.781 8.7305 265.781ZM12.4443 276.44L9.20463 269.976H8.35912C7.25286 269.976 6.32835 269.976 5.52237 269.976V276.472H0.733887V254.892C3.26704 254.63 5.81242 254.503 8.35912 254.513C14.325 254.513 17.3829 256.441 17.3829 260.977V263.474C17.4323 264.648 17.119 265.808 16.4857 266.798C15.8523 267.787 14.9296 268.558 13.843 269.005L17.9677 276.448L12.4443 276.44Z" fill="#6A6A6B"/>
<path d="M36.948 266.65V264.722C36.948 260.565 35.3677 258.859 32.0884 258.859C28.8092 258.859 27.2209 260.565 27.2209 264.722V266.65C27.2209 270.846 28.8013 272.474 32.0884 272.474C35.3756 272.474 36.948 270.846 36.948 266.65ZM22.3218 267.14V264.232C22.3218 257.539 25.3482 254.513 32.0884 254.513C38.8286 254.513 41.8392 257.539 41.8392 264.232V267.14C41.8392 273.912 38.6785 276.819 32.0884 276.819C25.4983 276.819 22.3218 273.936 22.3218 267.14Z" fill="#6A6A6B"/>
<path d="M65.1256 254.892L57.0581 268.127V276.44H52.2775V268.127L44.1387 254.892H49.7331L54.7745 263.212L59.8553 254.892H65.1256Z" fill="#6A6A6B"/>
<path d="M79.1277 268.807L76.3302 260.976L73.5334 268.807H79.1277ZM80.6367 273.042H72.0634L70.8466 276.44H65.6155L73.9049 254.892H78.7958L87.2822 276.44H81.8695L80.6367 273.042Z" fill="#6A6A6B"/>
<path d="M104.951 272.094V276.44H91.2568V254.892H96.0454V272.094H104.951Z" fill="#6A6A6B"/>
<path d="M118.479 267.14V264.232C118.479 257.539 121.639 254.513 128.277 254.513C131.477 254.513 133.69 255.232 135.641 256.71L133.113 260.503C131.77 259.426 130.093 258.85 128.372 258.875C125.053 258.875 123.362 260.392 123.362 264.738V266.666C123.362 270.973 125.021 272.489 128.372 272.489C130.08 272.488 131.748 271.973 133.16 271.012L135.697 274.647C133.536 276.195 130.915 276.967 128.261 276.835C121.592 276.835 118.463 273.809 118.463 267.156" fill="#6A6A6B"/>
<path d="M153.475 266.65V264.722C153.475 260.565 151.895 258.859 148.616 258.859C145.336 258.859 143.756 260.565 143.756 264.722V266.65C143.756 270.846 145.336 272.474 148.616 272.474C151.895 272.474 153.475 270.846 153.475 266.65ZM138.857 267.14V264.232C138.857 257.539 141.876 254.513 148.616 254.513C155.356 254.513 158.398 257.539 158.398 264.232V267.14C158.398 273.912 155.238 276.819 148.639 276.819C142.041 276.819 138.857 273.936 138.857 267.14Z" fill="#6A6A6B"/>
<path d="M186.632 254.892V276.44H181.843L182.065 263.473L177.276 272.663H173.523L168.766 263.513L168.955 276.44H164.167V254.892H169.098L175.396 267.108L181.733 254.892H186.632Z" fill="#6A6A6B"/>
<path d="M216.097 254.892V276.44H211.316L211.53 263.473L206.749 272.663H202.988L198.239 263.513L198.429 276.44H193.64V254.892H198.571L204.869 267.108L211.206 254.892H216.097Z" fill="#6A6A6B"/>
<path d="M227.903 254.892H223.114V276.44H227.903V254.892Z" fill="#6A6A6B"/>
<path d="M233.355 275.152L234.382 271.035C236.519 271.969 238.829 272.445 241.161 272.433C243.477 272.433 244.915 271.983 244.915 270.735C244.915 269.257 241.897 268.158 239.502 267.107C236.634 265.819 234.271 264.12 234.271 260.865C234.271 257.199 236.887 254.543 243.105 254.543C245.592 254.484 248.053 255.057 250.257 256.211L249.269 260.185C247.368 259.293 245.292 258.839 243.192 258.858C240.869 258.858 239.471 259.198 239.471 260.565C239.471 261.932 242.75 263.022 245.002 264.002C247.87 265.25 250.083 267.107 250.083 270.323C250.083 274.274 247.467 276.787 240.909 276.787C238.271 276.865 235.655 276.293 233.292 275.12" fill="#6A6A6B"/>
<path d="M254.168 275.151L255.203 271.034C257.338 271.968 259.645 272.445 261.975 272.433C264.298 272.433 265.728 271.982 265.728 270.734C265.728 269.257 262.71 268.158 260.323 267.107C257.447 265.819 255.092 264.12 255.092 260.865C255.092 257.198 257.708 254.543 263.927 254.543C266.4 254.49 268.846 255.063 271.038 256.21L270.082 260.217C268.182 259.323 266.105 258.87 264.006 258.889C261.691 258.889 260.292 259.229 260.292 260.596C260.292 261.963 263.563 263.054 265.823 264.033C268.692 265.282 270.904 267.139 270.904 270.355C270.904 274.305 268.289 276.818 261.738 276.818C259.098 276.897 256.479 276.325 254.113 275.151" fill="#6A6A6B"/>
<path d="M281.327 254.892H276.538V276.44H281.327V254.892Z" fill="#6A6A6B"/>
<path d="M301.729 266.65V264.722C301.729 260.565 300.149 258.859 296.862 258.859C293.575 258.859 292.003 260.565 292.003 264.722V266.65C292.003 270.846 293.583 272.474 296.862 272.474C300.141 272.474 301.729 270.846 301.729 266.65ZM287.103 267.14V264.232C287.103 257.539 290.122 254.513 296.862 254.513C303.602 254.513 306.621 257.539 306.621 264.232V267.14C306.621 273.912 303.46 276.819 296.862 276.819C290.264 276.819 287.103 273.936 287.103 267.14Z" fill="#6A6A6B"/>
<path d="M331.566 254.892V276.44H326.225L316.94 262.075L317.2 276.44H312.412V254.892H317.754L327.078 269.257L326.778 254.892H331.566Z" fill="#6A6A6B"/>
<path d="M353.304 259.238V263.774H361.482V268.127H353.304V276.44H348.523V254.892H362.218V259.238H353.304Z" fill="#6A6A6B"/>
<path d="M381.521 266.65V264.722C381.521 260.565 379.941 258.859 376.662 258.859C373.383 258.859 371.802 260.565 371.802 264.722V266.65C371.802 270.846 373.383 272.474 376.662 272.474C379.941 272.474 381.521 270.846 381.521 266.65ZM366.903 267.14V264.232C366.903 257.539 369.929 254.513 376.662 254.513C383.394 254.513 386.42 257.539 386.42 264.232V267.14C386.42 273.912 383.26 276.819 376.662 276.819C370.063 276.819 366.903 273.936 366.903 267.14Z" fill="#6A6A6B"/>
<path d="M400.193 265.781C402.437 265.781 403.947 264.912 403.947 263.055V261.735C403.947 259.807 402.437 258.859 400.193 258.859C398.906 258.859 397.909 258.937 396.986 258.977V265.67C397.909 265.67 398.906 265.781 400.193 265.781ZM403.907 276.44L400.667 269.976H399.822C398.716 269.976 397.791 269.976 396.986 269.976V276.472H392.213V254.892C394.746 254.63 397.291 254.503 399.838 254.513C405.804 254.513 408.861 256.441 408.861 260.977V263.474C408.911 264.648 408.597 265.808 407.964 266.798C407.331 267.787 406.408 268.558 405.322 269.005L409.446 276.448L403.907 276.44Z" fill="#6A6A6B"/>
<path d="M432.962 265.781C435.206 265.781 436.715 264.912 436.715 263.055V261.735C436.715 259.807 435.206 258.859 432.962 258.859C431.666 258.859 430.671 258.938 429.754 258.977V265.67C430.671 265.67 431.666 265.781 432.962 265.781ZM436.676 276.44L433.436 269.976H432.591C431.484 269.976 430.56 269.976 429.754 269.976V276.472H424.965V254.892C427.499 254.63 430.044 254.503 432.591 254.513C438.557 254.513 441.615 256.441 441.615 260.977V263.474C441.664 264.648 441.35 265.808 440.717 266.798C440.084 267.787 439.161 268.558 438.075 269.005L442.2 276.448L436.676 276.44Z" fill="#6A6A6B"/>
<path d="M452.559 254.892H447.77V276.44H452.559V254.892Z" fill="#6A6A6B"/>
<path d="M477.054 254.892L468.986 268.127V276.44H464.198V268.127L456.066 254.892H461.661L466.702 263.212L471.783 254.892H477.054Z" fill="#6A6A6B"/>
<path d="M491.064 268.807L488.266 260.976L485.461 268.807H491.064ZM492.573 273.042H483.952L482.735 276.44H477.512L485.793 254.892H490.692L499.163 276.44H493.751L492.573 273.042Z" fill="#6A6A6B"/>
<path d="M516.587 264.651C516.587 260.565 515.006 258.859 511.356 258.859C510.179 258.859 508.986 258.938 507.966 259.009V272.355C509.001 272.426 510.179 272.505 511.356 272.505C515.038 272.505 516.587 270.877 516.587 266.761V264.651ZM521.478 264.232V267.14C521.478 273.912 518.317 276.819 510.985 276.819C507.413 276.819 505.39 276.63 503.186 276.44V254.892C505.39 254.703 507.413 254.513 510.985 254.513C518.46 254.513 521.478 257.539 521.478 264.232Z" fill="#6A6A6B"/>
<path d="M546.352 254.892V276.44H541.564V267.788H532.066V276.44H527.278V254.892H532.066V263.433H541.564V254.892H546.352Z" fill="#6A6A6B"/>
<path d="M562.093 267.14V264.232C562.093 257.539 565.254 254.513 571.891 254.513C575.091 254.513 577.304 255.232 579.256 256.71L576.751 260.503C575.407 259.427 573.731 258.852 572.01 258.875C568.691 258.875 567 260.392 567 264.738V266.666C567 270.973 568.659 272.489 572.01 272.489C573.715 272.488 575.382 271.973 576.79 271.012L579.335 274.647C577.175 276.195 574.554 276.967 571.899 276.835C565.23 276.835 562.101 273.809 562.101 267.156" fill="#6A6A6B"/>
<path d="M588.469 254.892H583.681V276.44H588.469V254.892Z" fill="#6A6A6B"/>
<path d="M609.797 259.238H603.538V276.44H598.749V259.238H592.491L592.452 254.892H609.797V259.238Z" fill="#6A6A6B"/>
<path d="M631.273 254.892L623.206 268.127V276.44H618.417V268.127L610.286 254.892H615.88L620.922 263.212L626.003 254.892H631.273Z" fill="#6A6A6B"/>
<path d="M312.61 151.054C312.61 151.054 316.965 154.349 319.888 156.411C320.9 157.145 318.805 157.399 316.459 158.884C314.539 160.03 316.633 162.045 318.474 161.926C320.314 161.807 321.318 159.706 322.827 159.619C324.336 159.532 328.77 163.412 332.365 165.719C335.96 168.026 337.39 168.516 339.477 166.462C346.343 159.54 340.314 162.582 338.639 163.001L327.497 156.197C326.747 155.7 327.916 154.878 328.92 153.89C330.176 152.737 331.093 151.52 328.754 150.263C326.415 149.007 325.593 151.496 324.803 152.737C324.716 152.946 324.579 153.132 324.405 153.278C324.23 153.424 324.023 153.525 323.801 153.573C323.579 153.622 323.349 153.615 323.129 153.554C322.911 153.494 322.709 153.382 322.543 153.226L316.261 148.778C349.914 125.302 378.551 129.339 378.551 129.339C378.551 129.339 368.926 124.97 349.914 129.007C330.903 133.045 312.492 146.225 312.492 146.225C312.658 146.225 294.247 133.045 275.243 129.007C256.239 124.97 246.607 129.339 246.607 129.339C246.607 129.339 275.243 125.302 308.896 148.778L302.615 153.226C302.448 153.382 302.247 153.494 302.028 153.554C301.809 153.615 301.579 153.622 301.356 153.573C301.134 153.525 300.927 153.424 300.753 153.278C300.578 153.132 300.441 152.946 300.355 152.737C299.604 151.496 298.774 149.11 296.404 150.263C294.033 151.417 294.981 152.737 296.238 153.89C297.242 154.878 298.411 155.7 297.66 156.197L286.526 163.033C284.852 162.614 278.823 159.571 285.689 166.494C287.783 168.548 289.118 168.074 292.801 165.751C296.483 163.428 300.916 159.571 302.338 159.651C303.761 159.729 304.851 161.879 306.692 161.958C308.533 162.037 310.643 160.061 308.699 158.916C306.328 157.43 304.266 157.177 305.27 156.443C308.201 154.38 312.555 151.085 312.555 151.085" fill="#18864A"/>
<path d="M334.048 90.8026C332.783 83.9676 327.26 81.4943 322.906 81.4074C326.256 78.3652 332.957 78.8551 337.058 82.0711C334.206 74.8173 326.675 71.7988 319.311 75.2282C320.48 71.6882 327.679 68.1166 333.036 70.3686C328.516 66.4177 321.484 64.8373 315.289 69.4678C315.272 65.9741 314.316 62.5492 312.523 59.551C310.744 62.5456 309.798 65.961 309.781 69.4441C303.586 64.8294 296.553 66.394 292.026 70.3449C297.383 68.1245 304.59 71.6644 305.759 75.2045C298.395 71.7435 290.856 74.7936 288.012 82.0474C292.113 78.8314 298.814 78.3415 302.156 81.3837C297.81 81.4706 292.286 83.9439 291.03 90.7789C294.539 87.6182 299.564 86.4962 304.834 87.5629C303.467 87.7943 302.138 88.2117 300.883 88.8034C296.024 91.4348 295.353 96.7922 295.353 96.7922C298.623 94.248 302.685 92.936 306.826 93.0862C307.583 93.0525 308.342 93.1082 309.086 93.2521L309.252 93.7421V133.757C305.988 134.081 303.057 134.99 301.295 136.562C301.295 136.562 310.421 141.248 312.515 142.986C314.609 141.248 323.736 136.562 323.736 136.562C321.973 134.981 319.05 134.081 315.786 133.757V93.7737L315.953 93.2838C316.696 93.1398 317.455 93.0841 318.212 93.1179C322.351 92.9668 326.41 94.2789 329.678 96.8238C329.678 96.8238 329.014 91.4664 324.147 88.8351C322.892 88.2427 321.563 87.8253 320.196 87.5945C325.466 86.5278 330.468 87.6814 334.016 90.8105" fill="#18864A"/>
</g>
</g>
<defs>
<clipPath id="clip0_176_847">
<rect width="631.107" height="335.749" fill="white" transform="translate(0.489258 0.125732)"/>
</clipPath>
<clipPath id="clip1_176_847">
<rect width="631.107" height="218.042" fill="white" transform="translate(0.489258 58.9792)"/>
</clipPath>
</defs>
</svg>
