<svg width="632" height="336" viewBox="0 0 632 336" fill="none" xmlns="http://www.w3.org/2000/svg">
<g clip-path="url(#clip0_176_844)">
<path d="M315.594 201.656C290.019 201.656 265.976 191.702 247.752 173.478C229.682 155.408 219.575 131.212 219.575 105.637C219.575 52.8045 262.607 9.61914 315.44 9.61914C341.015 9.61914 365.058 19.5732 383.281 37.7968C401.504 55.8673 411.459 80.0635 411.459 105.637C411.459 131.212 401.504 155.255 383.281 173.478C365.21 191.702 341.167 201.656 315.594 201.656ZM315.44 10.8443C263.22 10.8443 220.647 53.417 220.647 105.637C220.647 130.905 230.448 154.642 248.365 172.559C266.282 190.477 290.019 200.278 315.287 200.278C340.555 200.278 364.292 190.477 382.209 172.559C400.126 154.642 409.927 130.905 409.927 105.637C409.927 80.3698 400.126 56.6329 382.209 38.7156C364.598 20.7983 340.861 10.9974 315.44 10.8443Z" fill="#006E3F"/>
<path d="M384.048 83.8914C384.048 122.483 352.807 153.57 314.369 153.57C275.778 153.57 244.691 122.33 244.691 83.8914C244.691 45.3004 275.931 14.2131 314.369 14.2131C352.807 14.2131 384.048 45.3004 384.048 83.8914Z" fill="#97A5D4"/>
<path d="M315.594 14.6729C265.364 14.6729 224.629 55.4079 224.629 105.638C224.629 155.867 265.364 196.603 315.594 196.603C365.824 196.603 406.559 155.867 406.559 105.638C406.559 55.4079 365.824 14.6729 315.594 14.6729ZM315.441 131.059C283.435 131.059 257.554 105.178 257.554 73.172C257.554 41.166 283.435 15.2854 315.441 15.2854C347.447 15.2854 373.328 41.166 373.328 73.172C373.328 105.178 347.447 131.059 315.441 131.059Z" fill="#006E3F"/>
<path d="M315.593 197.062C291.244 197.062 268.273 187.568 250.968 170.262C233.663 152.958 224.169 130.14 224.169 105.638C224.169 55.2549 265.21 14.3667 315.44 14.3667C365.822 14.3667 406.711 55.408 406.711 105.638C406.864 156.021 365.823 196.909 315.593 197.062ZM315.44 14.9793C265.363 14.9793 224.781 55.7144 224.781 105.791C224.781 129.987 234.276 152.805 251.428 169.956C268.579 187.108 291.397 196.603 315.593 196.603C365.67 196.603 406.252 155.868 406.252 105.791C406.252 55.5612 365.516 14.9793 315.44 14.9793ZM315.44 131.365C283.434 131.365 257.247 105.332 257.247 73.1721C257.247 57.7052 263.373 43.0038 274.245 32.1308C285.271 21.1048 299.82 15.1324 315.287 15.1324C330.754 15.1324 345.455 21.258 356.328 32.1308C367.354 43.1569 373.326 57.7052 373.326 73.1721C373.633 105.332 347.446 131.365 315.44 131.365ZM315.44 130.753C347.14 130.753 373.02 104.872 373.02 73.1721C373.02 57.8583 367.048 43.31 356.175 32.4372C345.302 21.5642 330.907 15.5918 315.44 15.5918C300.126 15.5918 285.577 21.5642 274.705 32.4372C263.832 43.31 257.859 57.7052 257.859 73.1721C257.859 105.025 283.74 130.753 315.44 130.753Z" fill="#006E3F"/>
<path d="M350.969 131.825C350.969 131.825 355.87 133.05 361.077 130.293C361.077 130.293 361.077 132.59 361.536 133.203C361.995 133.662 380.678 151.427 380.678 151.427L376.85 156.48L350.969 132.131C350.969 132.131 350.663 131.825 350.969 131.825Z" fill="white"/>
<path d="M348.672 134.428C348.672 134.428 349.743 139.635 347.599 144.688L350.203 144.994L357.554 151.579C357.554 151.579 351.734 156.786 347.293 159.237C347.293 159.237 346.987 159.543 346.834 159.237C346.681 158.93 341.627 151.273 341.627 151.273C341.627 151.273 340.862 158.012 338.564 160.462V161.074C338.564 161.074 339.483 161.074 340.249 161.381C341.014 161.687 341.168 161.993 341.168 161.993L346.374 170.11C346.374 170.11 346.528 172.56 346.222 173.479C345.915 174.397 345.456 176.388 340.862 177.46C340.862 177.46 340.555 178.839 345.762 178.532C350.968 178.226 353.878 172.713 352.653 167.506C352.653 167.353 352.653 167.353 352.5 167.2C352.5 167.2 364.445 159.696 369.039 153.57C369.039 153.57 369.039 153.417 369.192 153.417C369.039 153.877 350.509 135.653 348.672 134.428Z" fill="white"/>
<path d="M330.908 153.724C330.908 153.724 331.214 153.724 331.367 154.183C331.367 154.643 337.952 174.244 337.952 174.244C337.952 174.244 315.9 183.28 289.407 173.019L300.127 140.401C300.127 140.401 300.28 140.247 300.28 140.401C300.28 140.554 302.423 146.373 305.946 148.67V148.976C305.946 148.976 304.108 149.13 303.342 151.426C302.577 153.724 298.748 165.209 298.748 165.515C298.748 165.822 299.514 165.822 299.82 165.975C300.127 166.128 305.946 167.813 313.756 167.966C321.566 168.119 328.61 166.74 328.61 166.74C328.61 166.74 328.457 163.678 325.548 162.453L325.394 161.993C325.241 161.993 329.835 159.084 330.908 153.724Z" fill="white"/>
<path d="M286.65 148.057C278.841 147.597 273.787 150.66 273.787 150.66C274.706 148.516 274.706 144.228 274.706 144.228C271.183 146.525 267.814 146.066 266.742 145.759C265.517 145.606 266.13 146.372 266.13 146.372C266.13 146.372 266.13 146.525 266.283 146.525C269.193 153.263 262.608 154.182 262.608 154.182C256.942 153.569 257.86 148.822 257.86 148.209C257.86 147.597 258.779 143.309 266.13 141.624C273.481 139.94 271.796 139.94 272.102 139.634C272.408 139.48 273.481 138.255 273.021 137.643C272.562 137.03 271.643 137.643 271.643 137.643C271.49 137.796 270.571 137.949 270.571 137.949C262.608 139.174 260.464 140.246 260.464 140.246C251.275 145.147 253.419 153.263 253.419 153.263C256.788 165.667 267.508 159.389 267.508 159.389C275.318 167.352 286.497 171.334 286.497 171.334C286.497 171.334 291.857 154.947 292.01 154.488C292.01 154.029 294.46 148.669 286.65 148.057ZM284.66 155.56C284.2 157.092 283.741 159.082 283.435 159.236L276.543 154.335C276.543 154.335 279.912 153.11 283.435 153.569C283.435 153.416 285.119 153.876 284.66 155.56Z" fill="white"/>
<path d="M281.444 140.86C281.444 138.716 283.128 137.031 285.272 137.031C287.416 137.031 289.1 138.716 289.1 140.86C289.1 143.004 287.416 144.688 285.272 144.688C283.128 144.688 281.444 143.004 281.444 140.86Z" fill="white"/>
<path d="M305.181 183.585C305.181 181.442 306.866 179.757 309.01 179.757C311.153 179.757 312.838 181.442 312.838 183.585C312.838 185.729 311.153 187.414 309.01 187.414C306.866 187.414 305.181 185.729 305.181 183.585Z" fill="white"/>
<path d="M318.197 183.433C318.197 181.289 319.882 179.604 322.026 179.604C324.17 179.604 325.855 181.289 325.855 183.433C325.855 185.577 324.17 187.262 322.026 187.262C320.035 187.262 318.197 185.577 318.197 183.433Z" fill="white"/>
<path d="M347.906 94.4587L352.654 75.0098C352.654 75.0098 354.185 73.7847 358.474 73.7847C362.455 73.7847 364.446 74.8569 364.446 74.8569L367.508 88.639C367.508 88.639 363.833 99.8182 359.545 104.872C356.329 108.853 347.906 94.4587 347.906 94.4587Z" fill="white"/>
<path d="M358.166 105.791C354.338 105.791 348.059 95.0713 347.753 94.6116L352.5 75.0098C352.5 75.0098 354.185 73.7847 358.473 73.7847C362.454 73.7847 364.292 74.8569 364.445 74.8569L367.508 88.7925C367.508 88.9453 363.832 99.9716 359.545 105.178C359.238 105.484 358.779 105.791 358.166 105.791ZM348.059 94.4587C348.518 95.2241 354.644 105.484 358.166 105.484C358.626 105.484 359.085 105.332 359.391 104.872C363.373 99.9716 367.049 89.405 367.201 88.639L364.292 75.0098C363.986 74.8569 361.995 73.9381 358.473 73.9381C354.644 73.9381 352.96 74.8569 352.653 75.0098L348.059 94.4587Z" fill="#146931"/>
<path d="M364.904 74.397C364.904 74.397 362.148 73.1719 358.472 73.1719C354.797 73.1719 352.04 74.397 352.04 74.397L352.653 74.8561C352.653 74.8561 354.797 73.7844 358.472 73.7844C362.148 73.7844 364.292 74.8561 364.292 74.8561L364.904 74.397Z" fill="#146931"/>
<path d="M364.752 74.2435L363.067 66.5868H362.761V67.1993H362.455V67.5056H362.302V67.3527H361.995V67.0465L361.842 66.8931H361.689V66.1277H361.383V66.7402H361.076L360.924 66.8931V67.1993H360.617V67.0465H360.464V66.7402L360.311 66.5868H360.158V65.8214H359.851V66.4339L359.545 66.5868V66.8931H359.086V66.5868L358.933 66.4339H358.626V65.668H358.32V66.4339H358.167L358.014 66.5868V66.8931H357.555V66.5868L357.401 66.4339H357.095V65.8214H356.789V66.5868H356.636L356.482 66.7402V66.8931H356.176V67.0465H356.023V66.7402L355.87 66.5868H355.717V65.9742H355.411V66.7402H355.257L355.104 66.8931V67.1993H354.798H354.645V66.8931H354.338V66.2805H354.032L352.501 73.9373C352.501 73.9373 354.951 72.8656 358.626 72.8656C362.302 73.1719 364.752 74.2435 364.752 74.2435Z" fill="white"/>
<path d="M352.194 74.5504L353.878 66.4345H354.491V67.047H354.797V67.1999H354.951V66.8936L355.257 66.5874H355.41V65.8214H356.022V66.4345H356.176L356.329 66.5874H356.482V66.7408L356.788 66.4345H356.941V65.6685H357.554V66.2811H357.707L357.86 66.4345V66.7408H358.013V66.5874L358.32 66.2811H358.472V65.5151H359.085V66.2811H359.238L359.391 66.4345V66.7408H359.545V66.4345L359.851 66.2811V65.5151H360.464V66.2811H360.616L360.77 66.4345V66.7408H360.923L361.076 66.5874H361.229V65.9748H361.841V66.7408H361.995L362.148 66.8936V67.1999H362.301V67.047H362.607V66.4345H363.22L364.905 74.3975H364.751C364.751 74.3975 362.301 73.3253 358.626 73.3253C354.951 73.3253 352.5 74.3975 352.5 74.3975L352.194 74.5504ZM354.032 66.7408L352.5 74.0913C353.266 73.785 355.41 73.1724 358.472 73.1724C361.536 73.1724 363.832 73.9378 364.598 74.0913L363.067 66.7408H362.914V67.3533H362.607V67.6596H362.148V67.5062H361.841V67.047H361.536V66.2811V66.8936H361.229V67.1999H360.77V67.047H360.616V66.7408H360.31V65.9748H360.157V66.5874L359.851 66.7408V67.047H359.085V66.7408H358.626H358.32L358.166 66.8936V67.1999H357.554V66.7408H357.095V66.1282V66.8936H356.788L356.635 67.047V67.3533H356.329V67.5062H355.869V67.1999H355.563V66.5874V67.3533H355.257L355.104 67.5062V67.9658H354.797H354.338V67.6596H354.032V66.7408Z" fill="#146931"/>
<path d="M359.239 71.9473H357.86V73.1723H359.239V71.9473Z" fill="white"/>
<path d="M359.392 73.3253H357.708V71.7939H359.392V73.3253ZM358.013 73.019H359.086V71.9468H358.013V73.019Z" fill="#146931"/>
<path d="M282.362 94.4587L277.614 75.0098C277.614 75.0098 276.083 73.7847 271.795 73.7847C267.814 73.7847 265.823 74.8569 265.823 74.8569L262.76 88.639C262.76 88.639 266.435 99.8182 270.723 104.872C273.939 108.853 282.362 94.4587 282.362 94.4587Z" fill="white"/>
<path d="M272.102 105.791C271.49 105.791 271.03 105.484 270.571 105.025C266.436 99.9716 262.607 88.7925 262.607 88.6391L265.67 74.7035C265.824 74.7035 267.661 73.6318 271.643 73.6318C275.93 73.6318 277.462 74.8569 277.615 74.8569L282.363 94.4588C282.209 94.9179 275.93 105.791 272.102 105.791ZM263.067 88.6391C263.373 89.405 266.895 99.9716 270.877 104.872C271.184 105.332 271.643 105.484 272.102 105.484C275.624 105.484 281.75 95.2242 282.209 94.4588L277.462 75.0098C277.156 74.8569 275.624 73.9381 271.796 73.9381C268.274 73.9381 266.283 74.8569 265.976 75.0098L263.067 88.6391Z" fill="#146931"/>
<path d="M265.364 74.397C265.364 74.397 268.121 73.1719 271.796 73.1719C275.472 73.1719 278.228 74.397 278.228 74.397L277.616 74.8561C277.616 74.8561 275.472 73.7844 271.796 73.7844C267.968 73.7844 265.977 74.8561 265.977 74.8561L265.364 74.397Z" fill="#146931"/>
<path d="M265.517 74.2435L267.201 66.5868H267.507V67.1993H267.814V67.5056H267.967V67.3527H268.273V67.0465L268.426 66.8931H268.579V66.1277H268.886V66.7402H269.192L269.345 66.8931V67.1993H269.651V67.0465H269.805V66.7402L269.957 66.5868H270.111V65.8214H270.417V66.4339L270.723 66.5868V66.8931H271.183V66.5868L271.336 66.4339H271.489V65.668H271.795V66.4339H271.948L272.101 66.5868V66.8931H272.561V66.5868L272.714 66.4339H273.02V65.8214H273.326V66.5868H273.48L273.633 66.7402V67.0465H273.939V67.1993H274.092V67.0465L274.246 66.8931H274.399V66.2805H274.705V67.0465H274.858L275.011 67.1993V67.5056H275.317H275.471V67.1993H275.777V66.5868H276.083L277.615 74.2435C277.615 74.2435 275.164 73.1719 271.489 73.1719C267.967 73.1719 265.517 74.2435 265.517 74.2435Z" fill="white"/>
<path d="M278.074 74.3969L277.768 74.2435C277.768 74.2435 275.318 73.1719 271.642 73.1719C267.967 73.1719 265.517 74.2435 265.517 74.2435L265.211 74.3969L266.895 66.4339H267.508V67.0465H267.814V67.1993H267.967V66.8931L268.12 66.7402H268.273V65.9742H268.886V66.5868H269.039L269.192 66.7402V66.8931H269.345V66.5868L269.499 66.4339H269.652V65.668H270.264V66.4339L270.57 66.5868V66.8931H270.724V66.5868L270.877 66.4339H271.03V65.668H271.642V66.4339H271.796L272.102 66.7402V66.8931H272.255V66.5868L272.408 66.4339H272.561V65.8214H273.174V66.5868H273.327L273.633 66.8931V67.0465H273.786L273.94 66.8931H274.093V66.2805H274.705V67.0465H274.859L275.165 67.3527V67.659H275.318V67.5056H275.624V66.8931H276.236L278.074 74.3969ZM271.796 73.0185C274.859 73.0185 277.002 73.7844 277.768 73.9373L276.236 66.5868H276.084V67.1993H275.777V67.5056H275.318H275.011V67.0465L274.859 66.8931H274.552V66.1277V66.7402H274.399V67.0465H273.94V66.8931H273.633V66.7402L273.48 66.5868H273.174V65.8214V66.4339H272.868V66.8931H272.255V66.7402L272.102 66.5868H271.796V65.8214H271.642V66.5868H271.336V67.0465H270.57V66.7402L270.264 66.5868V65.9742H270.111V66.7402H269.805V67.1993V67.3527H269.345V67.0465H269.039V66.4339V67.1993H268.733V67.659H268.426V67.8119H267.967V67.5056H267.661V66.7402H267.508L265.976 74.0907C266.436 73.7844 268.733 73.0185 271.796 73.0185Z" fill="#146931"/>
<path d="M272.408 71.9473H271.03V73.1723H272.408V71.9473Z" fill="white"/>
<path d="M272.561 73.3253H270.877V71.7939H272.561V73.3253ZM271.183 73.019H272.255V71.9468H271.183V73.019Z" fill="#146931"/>
<path d="M336.267 68.272L294.614 68.7311L272.255 80.5228L270.111 102.422C270.111 102.422 280.831 127.077 318.35 127.537" fill="white"/>
<path d="M318.351 127.843C298.902 127.537 286.804 120.798 280.066 114.979C272.715 108.854 269.958 102.575 269.958 102.422L272.256 80.3695L294.767 68.425L336.421 67.9653V68.5779L294.92 69.0376L272.868 80.8292L270.724 102.575C271.031 103.187 273.787 109.007 280.678 114.826C287.416 120.492 299.361 127.231 318.657 127.537L318.351 127.843Z" fill="#146931"/>
<path d="M318.35 127.69C318.35 127.69 345.456 127.69 361.076 102.728L358.626 80.3699L336.268 68.272" fill="white"/>
<path d="M318.35 127.843V127.231C318.35 127.231 325.241 127.231 333.817 124.167C341.781 121.411 352.806 115.285 360.77 102.575L358.32 80.523L336.114 68.425L336.421 67.9653L358.932 80.2167L361.382 102.728V102.881C353.266 115.745 342.087 121.871 333.97 124.78C325.241 127.843 318.35 127.843 318.35 127.843Z" fill="#146931"/>
<path d="M333.511 57.0925C333.511 57.0925 327.538 53.7234 315.44 53.7234C302.271 53.7234 297.523 57.3987 297.523 57.3987L282.822 116.97C291.857 123.708 303.189 127.69 315.287 127.69C327.844 127.69 338.717 124.015 348.059 116.817L333.511 57.0925Z" fill="white"/>
<path d="M315.441 127.843C303.649 127.843 292.317 124.167 282.822 117.123L282.669 116.97V116.817L297.37 57.0923H297.523C297.677 56.9392 302.577 53.417 315.594 53.417C327.539 53.417 333.664 56.7861 333.664 56.7861H333.818V56.9392L348.366 116.817L348.212 116.97C338.871 124.321 327.845 127.843 315.441 127.843ZM283.281 116.817C292.623 123.708 303.802 127.383 315.441 127.383C327.692 127.383 338.565 123.861 347.753 116.663L333.205 57.2455C332.286 56.7861 326.314 54.0295 315.441 54.0295C303.496 54.0295 298.442 57.0923 297.83 57.5517L283.281 116.817Z" fill="#146931"/>
<path d="M335.042 55.8673C335.042 55.8673 326.62 52.0388 315.44 52.0388C304.261 52.0388 295.992 55.8673 295.992 55.8673L297.676 57.2456C297.676 57.2456 304.108 53.8765 315.594 53.8765C327.079 53.8765 333.511 57.0924 333.511 57.0924L335.042 55.8673Z" fill="#146931"/>
<path d="M334.89 55.5614L329.683 31.6717H328.611V33.6625H327.692V34.4282H327.08V34.1219H326.161V32.8968L325.701 32.4374H324.936V30.2934H323.864V32.1311H323.098L322.638 32.5905V33.3562H321.872V33.0499H321.413V32.1311L320.954 31.6717H320.341V29.5277H319.269V31.5185L318.351 31.978V32.8968H316.972V31.8248L316.513 31.3654H315.9V29.2214H314.828V31.3654H314.216L313.603 31.978V32.7437H312.378V31.6717L312.072 31.3654H311.306V29.5277H310.234V31.6717H309.622L309.009 32.2842V33.0499H308.243V33.5093H307.631V32.7437L307.324 32.4374H306.712V30.5997H305.64V32.7437H305.027L304.568 33.2031V34.2751H303.802V34.4282H303.496V33.6625H302.424V31.6717H301.352L296.299 55.7146C296.299 55.7146 303.955 52.0392 315.441 52.0392C327.08 52.0392 334.89 55.5614 334.89 55.5614Z" fill="white"/>
<path d="M295.839 56.1737L301.046 31.365H302.731V33.3559H303.802V33.9684H304.568V33.0496L305.181 32.437H305.64V30.2931H307.172V32.1307H307.631L308.091 32.5901V33.2027V32.7433H308.856V32.1307L309.622 31.365H310.081V29.2211H311.766V31.0587H312.378L312.838 31.5182V32.437H313.45V31.8245L314.216 31.0587H314.675V28.9148H316.36V31.0587H316.82L317.432 31.6713V32.5901H318.351V31.8245L319.27 31.365V29.2211H320.954V31.365H321.414L322.026 31.9776V32.7433H322.485V33.0496H322.639V32.437L323.251 31.8245H323.864V29.9868H325.395V32.1307H325.854L326.467 32.7433V33.6621H327.386V33.9684H327.539V33.2027H328.458V31.2119H329.989L335.349 55.8673L334.89 55.5611C334.89 55.5611 327.08 52.0389 315.594 52.0389C304.262 52.0389 296.605 55.7142 296.452 55.7142L295.839 56.1737ZM301.506 31.9776L296.605 55.2548C298.443 54.4891 305.64 51.7326 315.441 51.7326C325.395 51.7326 332.593 54.3359 334.43 55.1017L329.377 31.9776H328.764V33.9684H327.845V34.7341H326.62V34.581H325.701V33.2027L325.395 32.8964H324.629V30.7525H324.17V32.5901H323.404L323.098 32.8964V33.8153H321.72V33.509H321.26V32.2839L320.954 31.9776H320.341V29.8337H319.729V31.8245L318.657 32.2839V33.2027H316.666V31.9776L316.36 31.6713H315.747V29.5274H315.288V31.6713H314.522L314.063 32.1307V33.0496H312.225V31.8245L312.072 31.6713H311.153V29.9868H310.694V32.1307H309.928L309.622 32.437V33.3559H308.856V33.8153H307.631V32.8964L307.478 32.7433H306.559V30.9057H306.1V33.0496H305.334L305.027 33.3559V34.581H304.262V34.7341H303.19V33.9684H302.118V31.9776H301.506Z" fill="#146931"/>
<path d="M318.044 52.1918H313.144V47.7507H318.044V52.1918ZM313.603 51.7324H317.431V48.3633H313.603V51.7324Z" fill="#146931"/>
<path d="M333.052 90.4764C333.052 90.4764 326.314 89.7105 315.594 97.5206C315.594 97.5206 306.406 90.1702 298.595 89.5576C298.595 89.5576 312.378 95.9893 314.215 98.7457C314.215 98.7457 311.612 101.962 310.54 102.268C310.54 102.268 309.009 98.8991 307.477 100.583C307.477 100.583 306.558 101.196 307.477 102.115C307.477 102.115 308.396 103.034 309.009 102.421L309.468 102.881C309.468 102.881 308.856 103.646 307.937 103.952C307.937 103.952 305.946 102.881 305.946 105.177C305.946 105.177 307.171 107.781 310.846 104.412C310.846 104.412 312.531 106.556 313.756 106.096C313.756 106.096 316.206 105.331 314.215 103.799C314.215 103.799 313.603 103.187 312.531 104.412L311.765 103.799C311.765 103.799 315.287 100.43 315.594 100.277C315.9 100.124 319.269 103.799 319.269 103.799L318.81 104.412C318.81 104.412 317.431 102.881 316.36 104.718C316.36 104.718 316.666 107.628 319.116 105.637L320.341 104.565C320.341 104.565 323.098 107.475 324.782 106.25C324.782 106.25 326.007 105.177 325.088 104.412C325.088 104.412 324.476 103.493 323.404 104.106C323.404 104.106 322.791 104.259 321.566 103.034L322.179 102.421C322.179 102.421 323.404 103.34 324.016 101.808C324.016 101.808 324.476 100.277 322.179 100.43C322.179 100.43 321.413 100.737 320.647 102.574L317.125 99.052C317.125 99.052 321.873 93.9983 333.052 90.4764Z" fill="#146931"/>
<path d="M314.981 78.9911C314.981 78.9911 313.909 80.3696 314.215 82.0538C314.215 82.0538 312.071 79.757 313.756 77.3063C313.756 77.3063 312.071 77.4597 311.459 80.9821C311.459 80.9821 310.234 78.0723 312.378 75.4687C312.378 75.4687 310.08 76.8472 309.468 78.8382C309.468 78.8382 309.315 75.3158 312.378 74.0908C312.378 74.0908 310.693 74.0908 309.621 74.8562C309.621 74.8562 310.54 72.0997 314.062 72.8657C314.062 72.8657 312.837 71.1809 311.918 71.1809C311.918 71.1809 314.215 70.8747 315.287 71.9469C315.287 71.9469 315.134 71.0281 315.747 70.4155C315.747 70.4155 316.359 71.6406 316.818 71.9469C316.818 71.9469 318.197 70.8747 319.575 71.1809C319.575 71.1809 318.35 72.0997 318.043 72.5594C318.043 72.5594 321.719 72.406 322.178 75.1624C322.178 75.1624 320.034 73.6311 318.962 74.0908C318.962 74.0908 322.178 75.3159 322.485 78.8382C322.485 78.8382 320.341 75.775 319.269 75.6221C319.269 75.6221 321.26 78.8382 320.034 80.8287C320.034 80.8287 319.269 77.3063 318.197 76.8472C318.197 76.8472 318.656 80.6759 317.431 81.9009C317.431 81.9009 316.972 79.1445 316.053 78.6848L315.9 90.0174C316.053 90.9362 316.206 91.2424 316.206 91.2424C316.053 91.855 316.206 92.3141 316.206 92.3141C316.512 92.6204 316.512 92.9267 316.512 92.9267C316.665 93.5392 316.512 93.9989 316.512 93.9989C316.665 94.6114 317.125 95.0706 317.125 95.0706L313.297 95.224C313.603 95.0705 314.062 93.6926 314.062 93.6926C313.909 93.0801 314.368 92.0078 314.368 92.0078C314.368 91.3953 314.828 89.864 314.828 89.864L314.981 78.9911Z" fill="#146931"/>
<path d="M315.441 128.608C284.813 128.608 259.851 103.647 259.851 73.0191C259.851 42.3911 284.813 17.4294 315.441 17.4294C346.069 17.4294 371.03 42.3911 371.03 73.0191C371.03 103.647 346.069 128.608 315.441 128.608ZM315.441 18.9608C285.579 18.9608 261.382 43.1569 261.382 73.0191C261.382 102.881 285.579 127.077 315.441 127.077C345.303 127.077 369.499 102.881 369.499 73.0191C369.499 43.1569 345.303 18.9608 315.441 18.9608Z" fill="#006E3F"/>
<path d="M315.441 131.058C283.588 131.058 257.707 105.178 257.707 73.325C257.707 41.4719 283.588 15.5913 315.441 15.5913C347.294 15.5913 373.174 41.4719 373.174 73.325C373.174 105.178 347.294 131.058 315.441 131.058ZM315.441 17.1227C284.507 17.1227 259.239 42.3907 259.239 73.325C259.239 104.259 284.507 129.527 315.441 129.527C346.375 129.527 371.643 104.259 371.643 73.325C371.643 42.3907 346.375 17.1227 315.441 17.1227Z" fill="white"/>
<path d="M315.441 131.824C283.128 131.824 256.942 105.638 256.942 73.3247C256.942 41.0125 283.128 14.8257 315.441 14.8257C347.754 14.8257 373.941 41.0125 373.941 73.3247C373.941 88.945 367.815 103.647 356.789 114.673C345.763 125.699 331.061 131.824 315.441 131.824ZM315.441 18.0416C284.967 18.0416 260.005 42.8502 260.005 73.4781C260.005 88.1796 265.824 102.115 276.238 112.682C286.651 123.095 300.586 128.915 315.441 128.915C345.916 128.915 370.878 104.106 370.878 73.4781C370.878 58.7767 365.058 44.841 354.645 34.2744C344.078 23.7078 330.296 18.0416 315.441 18.0416Z" fill="white"/>
<path d="M79.7589 270.262C79.7589 267.199 80.0651 264.29 80.8308 261.074L88.9472 259.543C88.0284 262.912 87.5689 266.281 87.5689 269.343C87.5689 275.622 89.5598 278.838 93.5414 278.838C97.3699 278.838 99.2076 275.622 99.2076 269.343V248.21H107.018V248.976C107.018 251.579 106.865 253.723 106.405 255.714H106.558C107.63 253.11 109.162 251.12 111.459 249.589C113.603 248.21 115.9 247.445 118.503 247.445C122.025 247.445 124.782 248.516 126.62 250.66C128.457 252.804 129.376 255.714 129.376 259.543C129.376 263.677 128.151 266.893 125.701 269.343C122.944 271.947 118.963 273.172 113.603 273.172H106.558C105.639 281.288 101.045 285.423 92.9288 285.423C84.1999 285.576 79.7589 280.37 79.7589 270.262ZM114.215 266.74C118.809 266.74 121.26 264.596 121.26 260.155C121.26 256.327 119.728 254.336 116.819 254.336C114.675 254.336 112.531 255.561 110.693 258.011C108.855 260.461 107.63 263.371 107.018 266.74H114.215ZM114.981 243.616C114.215 242.85 113.909 241.778 113.909 240.706C113.909 239.635 114.215 238.562 114.981 237.797C115.747 237.031 116.665 236.571 117.737 236.571C118.809 236.571 119.728 237.031 120.494 237.797C121.26 238.562 121.566 239.635 121.566 240.706C121.566 241.931 121.26 242.85 120.494 243.616C119.728 244.381 118.809 244.841 117.737 244.841C116.665 244.841 115.747 244.381 114.981 243.616Z" fill="#006E3F"/>
<path d="M134.736 235.959H142.546V266.74H147.293V273.325H134.736V235.959Z" fill="#006E3F"/>
<path d="M158.779 266.74H146.528V273.325H158.779V266.74Z" fill="#006E3F"/>
<path d="M170.57 266.74H158.319V273.325H170.57V266.74Z" fill="#006E3F"/>
<path d="M170.264 266.74H179.3V248.363H187.11V273.325H170.264V266.74ZM177.156 284.198C176.39 284.963 175.624 285.423 174.552 285.423C173.48 285.423 172.562 284.963 171.949 284.198C171.183 283.432 170.877 282.513 170.877 281.288C170.877 280.216 171.183 279.144 171.949 278.378C172.715 277.613 173.633 277.153 174.552 277.153C175.624 277.153 176.543 277.613 177.156 278.378C177.921 279.144 178.227 280.063 178.227 281.288C178.227 282.36 177.768 283.432 177.156 284.198ZM186.038 284.198C185.272 284.963 184.353 285.423 183.435 285.423C182.362 285.423 181.443 284.963 180.831 284.198C180.065 283.432 179.759 282.513 179.759 281.288C179.759 280.216 180.065 279.144 180.831 278.378C181.597 277.613 182.362 277.153 183.435 277.153C184.506 277.153 185.425 277.613 186.038 278.378C186.803 279.144 187.11 280.063 187.11 281.288C186.956 282.36 186.65 283.432 186.038 284.198Z" fill="#006E3F"/>
<path d="M190.019 286.342L190.632 279.757C191.704 280.064 192.776 280.216 194.001 280.216C195.532 280.216 196.604 279.757 197.37 278.991C198.135 278.072 198.595 276.388 198.595 273.938V248.517H206.405V266.893H210.999V273.478H206.405V273.631C206.405 282.36 202.118 286.801 193.541 286.801C192.316 286.649 191.245 286.495 190.019 286.342Z" fill="#006E3F"/>
<path d="M210.081 266.74H215.747V235.959H223.711V273.325H210.081V266.74Z" fill="#006E3F"/>
<path d="M239.177 235.959H231.367V273.325H239.177V235.959Z" fill="#006E3F"/>
<path d="M268.12 273.325C259.085 273.325 254.644 269.19 254.644 261.074C254.644 257.245 255.716 254.183 257.86 251.732C260.31 248.976 263.679 247.598 268.12 247.598C272.255 247.598 275.777 248.21 278.84 249.435V266.74H283.281V273.325H268.12ZM260.31 243.616C259.544 242.85 259.238 241.931 259.238 240.706C259.238 239.635 259.544 238.562 260.31 237.797C261.076 237.031 261.994 236.571 262.913 236.571C263.985 236.571 264.904 237.031 265.517 237.797C266.282 238.562 266.589 239.635 266.589 240.706C266.589 241.778 266.282 242.85 265.517 243.616C264.751 244.381 263.832 244.841 262.913 244.841C261.994 244.841 261.076 244.535 260.31 243.616ZM271.183 255.101C270.111 254.489 268.886 254.336 267.354 254.336C265.823 254.336 264.598 254.948 263.679 256.174C262.76 257.245 262.454 258.777 262.454 260.461C262.454 264.749 264.598 266.893 268.886 266.893H271.336L271.183 255.101ZM269.192 243.616C268.426 242.85 268.12 241.931 268.12 240.706C268.12 239.635 268.426 238.562 269.192 237.797C269.958 237.031 270.723 236.571 271.796 236.571C272.867 236.571 273.786 237.031 274.399 237.797C275.165 238.562 275.471 239.635 275.471 240.706C275.471 241.778 275.165 242.85 274.399 243.616C273.633 244.381 272.714 244.841 271.796 244.841C270.877 244.841 269.958 244.535 269.192 243.616Z" fill="#006E3F"/>
<path d="M294.92 266.74H282.669V273.325H294.92V266.74Z" fill="#006E3F"/>
<path d="M294.46 266.74H295.992C296.911 266.74 297.829 266.893 298.748 267.047C297.676 265.515 297.063 263.524 297.063 261.074C297.063 257.092 298.289 253.876 300.739 251.426C303.189 248.976 306.252 247.751 310.08 247.751C313.909 247.751 316.819 248.823 318.809 250.814C320.953 252.958 321.872 256.02 321.872 260.002C321.872 263.218 321.106 265.515 319.575 267.047C320.8 266.893 321.872 266.74 323.097 266.74H325.241V273.325H294.307L294.46 266.74ZM302.577 243.616C301.811 242.85 301.505 241.931 301.505 240.706C301.505 239.635 301.811 238.562 302.577 237.797C303.342 237.031 304.261 236.571 305.18 236.571C306.252 236.571 307.171 237.031 307.783 237.797C308.549 238.562 308.855 239.635 308.855 240.706C308.855 241.778 308.549 242.85 307.783 243.616C307.017 244.381 306.252 244.841 305.18 244.841C304.261 244.841 303.342 244.535 302.577 243.616ZM312.99 265.055C313.909 263.983 314.215 262.452 314.215 260.461C314.215 256.327 312.684 254.183 309.774 254.183C308.549 254.183 307.324 254.642 306.558 255.561C305.64 256.633 305.18 258.164 305.18 260.155C305.18 264.443 306.711 266.587 309.774 266.587C310.999 266.74 312.071 266.128 312.99 265.055ZM311.459 243.616C310.693 242.85 310.386 241.931 310.386 240.706C310.386 239.635 310.693 238.562 311.459 237.797C312.225 237.031 313.143 236.571 314.062 236.571C315.134 236.571 316.053 237.031 316.665 237.797C317.431 238.562 317.737 239.635 317.737 240.706C317.737 241.778 317.431 242.85 316.665 243.616C315.9 244.381 314.981 244.841 314.062 244.841C312.99 244.841 312.071 244.535 311.459 243.616Z" fill="#006E3F"/>
<path d="M324.629 266.74H330.142V235.959H338.105V249.282C338.105 251.886 337.952 254.182 337.492 256.02H337.646C338.717 253.417 340.249 251.426 342.546 249.895C344.69 248.516 346.987 247.751 349.59 247.751C353.112 247.751 355.869 248.822 357.707 250.966C359.545 253.111 360.463 256.02 360.463 259.849C360.463 262.605 360.004 264.902 358.932 266.893H363.832V273.478H324.782L324.629 266.74ZM345.762 266.74C350.203 266.587 352.347 264.443 352.347 260.155C352.347 256.326 350.815 254.336 347.906 254.336C345.762 254.336 343.618 255.561 341.78 258.011C339.942 260.461 338.717 263.371 338.105 266.74H345.762Z" fill="#006E3F"/>
<path d="M362.761 266.741H369.499V248.364H377.462V266.741H381.903V273.325H362.761V266.741ZM370.57 243.463C369.805 242.698 369.499 241.626 369.499 240.554C369.499 239.482 369.805 238.41 370.57 237.644C371.336 236.878 372.255 236.419 373.327 236.419C374.399 236.419 375.318 236.878 376.084 237.644C376.849 238.41 377.156 239.482 377.156 240.554C377.156 241.779 376.849 242.698 376.084 243.463C375.318 244.229 374.399 244.688 373.327 244.688C372.255 244.688 371.336 244.382 370.57 243.463Z" fill="#006E3F"/>
<path d="M380.985 273.325V266.74H383.129C384.2 266.74 385.12 266.893 385.885 267.2C384.354 265.821 383.741 263.677 383.741 260.462C383.741 256.939 384.813 253.876 386.957 251.579C389.407 248.976 392.776 247.598 396.911 247.598C400.893 247.598 403.802 248.669 405.793 250.967C407.631 253.111 408.55 256.02 408.55 259.849V273.172L380.985 273.325ZM400.893 260.921C400.893 256.479 399.361 254.183 396.452 254.183C394.92 254.183 393.695 254.795 392.776 255.867C391.857 256.939 391.551 258.471 391.551 260.155C391.551 264.443 393.695 266.587 397.983 266.587H401.046V260.921H400.893Z" fill="#006E3F"/>
<path d="M436.267 273.325C427.385 273.325 422.791 269.19 422.791 261.074C422.791 257.245 423.863 254.183 426.006 251.732C428.457 248.976 431.826 247.598 436.267 247.598C440.402 247.598 443.924 248.21 446.987 249.435V266.74H451.428V273.325H436.267ZM428.61 243.616C427.844 242.85 427.538 241.778 427.538 240.706C427.538 239.635 427.844 238.562 428.61 237.797C429.375 237.031 430.295 236.571 431.214 236.571C432.285 236.571 433.204 237.031 433.817 237.797C434.583 238.562 434.889 239.635 434.889 240.706C434.889 241.778 434.583 242.85 433.817 243.616C433.051 244.381 432.132 244.841 431.214 244.841C430.295 244.841 429.375 244.535 428.61 243.616ZM439.483 254.948C438.411 254.336 437.186 254.183 435.654 254.183C434.123 254.183 432.898 254.795 431.979 256.02C431.06 257.092 430.754 258.624 430.754 260.308C430.754 264.596 432.898 266.74 437.186 266.74H439.636L439.483 254.948ZM437.492 243.616C436.726 242.85 436.42 241.931 436.42 240.706C436.42 239.635 436.726 238.562 437.492 237.797C438.258 237.031 439.023 236.571 440.095 236.571C441.168 236.571 442.086 237.031 442.699 237.797C443.464 238.562 443.771 239.635 443.771 240.706C443.771 241.778 443.464 242.85 442.699 243.616C441.933 244.381 441.014 244.841 440.095 244.841C439.023 244.841 438.258 244.535 437.492 243.616Z" fill="#006E3F"/>
<path d="M463.22 266.74H450.969V273.325H463.22V266.74Z" fill="#006E3F"/>
<path d="M462.76 266.741H469.498V248.364H477.461V273.325H462.76V266.741ZM470.723 243.463C469.958 242.698 469.651 241.626 469.651 240.554C469.651 239.482 469.958 238.41 470.723 237.644C471.489 236.878 472.408 236.419 473.48 236.419C474.552 236.419 475.47 236.878 476.236 237.644C477.002 238.41 477.309 239.482 477.309 240.554C477.309 241.779 477.002 242.698 476.236 243.463C475.47 244.229 474.552 244.688 473.48 244.688C472.255 244.688 471.489 244.382 470.723 243.463Z" fill="#006E3F"/>
<path d="M484.506 235.806H492.316V266.739H497.064V273.325H484.506V235.806Z" fill="#006E3F"/>
<path d="M508.549 266.74H496.298V273.325H508.549V266.74Z" fill="#006E3F"/>
<path d="M508.09 273.325V266.74H510.234C511.306 266.74 512.225 266.893 512.991 267.2C511.459 265.821 510.847 263.677 510.847 260.462C510.847 256.939 511.919 253.876 514.063 251.579C516.513 248.976 519.729 247.598 524.017 247.598C527.998 247.598 530.908 248.669 532.899 250.967C534.736 253.111 535.655 256.02 535.655 259.849V273.172L508.09 273.325ZM527.998 260.921C527.998 256.479 526.467 254.183 523.557 254.183C522.026 254.183 520.801 254.795 519.882 256.02C518.963 257.092 518.657 258.624 518.657 260.308C518.657 264.596 520.801 266.74 525.089 266.74H528.152V260.921H527.998Z" fill="#006E3F"/>
<path d="M538.412 230.446C539.484 230.446 540.402 230.6 541.015 230.753C540.402 230.293 540.096 229.527 540.096 228.609C540.096 227.077 540.709 225.852 541.934 224.781C543.312 223.555 545.303 222.942 547.906 222.942C548.519 222.942 549.131 222.942 549.897 223.096L550.969 223.249L550.204 227.384L549.438 227.231C548.825 227.231 548.213 227.077 547.753 227.077C546.222 227.077 545.456 227.537 545.456 228.609C545.456 229.681 546.528 230.293 548.672 230.293H551.735V234.581H538.412V230.446ZM541.475 237.491H549.285V273.325H541.475V237.491Z" fill="#006E3F"/>
<path d="M91.8562 326.005L86.9558 317.123H86.6494V326.005H81.749V303.188C83.2804 303.034 85.4244 303.034 88.4872 303.034C93.847 303.034 96.6035 305.331 96.6035 309.773C96.6035 311.304 96.1441 312.682 95.3784 313.754C94.4596 314.979 93.3876 315.745 92.0093 316.051C92.7751 317.123 93.3876 318.042 93.6939 318.655L98.1349 326.005H91.8562ZM88.0277 307.323C87.4152 307.323 87.1089 307.323 86.6494 307.323V313.142C86.9558 313.142 87.4152 313.142 87.8746 313.142C88.9466 313.142 89.7123 312.835 90.3248 312.376C90.9373 311.763 91.2437 310.998 91.2437 310.079C91.2437 308.394 90.1717 307.323 88.0277 307.323Z" fill="#006E3F"/>
<path d="M106.711 303.188H101.811V326.005H106.711V303.188Z" fill="#006E3F"/>
<path d="M122.026 318.042V326.005H117.125V318.042L110.387 303.188H115.747L118.197 309.007C118.81 310.385 119.269 311.61 119.575 312.682C119.882 311.763 120.341 310.385 121.26 308.547L123.557 303.188H128.764L122.026 318.042Z" fill="#006E3F"/>
<path d="M143.005 326.005L141.78 321.717H134.276L133.051 326.005H128.151L135.195 303.188H141.015L148.365 326.005H143.005ZM138.87 312.069C138.564 311.151 138.258 310.079 138.105 308.853C137.799 310.232 137.492 311.304 137.339 312.069L135.655 317.582H140.709L138.87 312.069Z" fill="#006E3F"/>
<path d="M166.896 323.096C164.905 325.086 161.995 326.158 158.473 326.158C156.941 326.158 154.798 326.158 152.194 326.005V303.34C154.491 303.188 156.788 303.188 159.545 303.188C166.742 303.188 170.265 306.863 170.265 314.213C170.111 318.042 169.039 320.952 166.896 323.096ZM163.679 309.466C162.761 308.241 161.229 307.628 159.085 307.628C158.013 307.628 157.401 307.628 157.094 307.628V321.564C157.707 321.717 158.319 321.717 158.932 321.717C160.77 321.717 162.148 321.105 163.22 320.032C164.292 318.807 164.905 316.97 164.905 314.673C164.752 312.223 164.445 310.538 163.679 309.466Z" fill="#006E3F"/>
<path d="M187.416 326.005V316.511H179.606V326.005H174.705V303.188H179.606V311.916H187.416V303.188H192.469V326.005H187.416Z" fill="#006E3F"/>
<path d="M216.359 326.005L211.459 317.123H211.153V326.005H206.252V303.188C207.783 303.034 209.928 303.034 212.99 303.034C218.35 303.034 221.107 305.331 221.107 309.773C221.107 311.304 220.647 312.682 219.882 313.754C218.963 314.979 217.891 315.745 216.512 316.051C217.278 317.123 217.891 318.042 218.197 318.655L222.638 326.005H216.359ZM212.531 307.323C211.918 307.323 211.612 307.323 211.153 307.323V313.142C211.459 313.142 211.918 313.142 212.378 313.142C213.45 313.142 214.215 312.835 214.828 312.376C215.441 311.763 215.747 310.998 215.747 310.079C215.9 308.394 214.675 307.323 212.531 307.323Z" fill="#006E3F"/>
<path d="M226.314 326.005V303.188H238.412V307.628H231.214V312.069H237.952V316.357H231.214V321.411H238.412V326.005H226.314Z" fill="#006E3F"/>
<path d="M261.229 324.933C258.932 326.006 256.482 326.465 253.725 326.465C250.203 326.465 247.447 325.546 245.609 323.555C243.771 321.717 242.852 318.961 242.852 315.592C242.852 311.763 243.924 308.7 245.915 306.404C248.059 304.106 251.122 303.034 254.95 303.034C257.094 303.034 259.238 303.34 261.076 303.953L260.157 308.7C258.472 307.935 256.635 307.629 254.797 307.629C252.653 307.629 250.968 308.394 249.743 309.773C248.672 310.998 248.212 312.682 248.212 314.826C248.212 316.97 248.672 318.654 249.743 319.88C250.816 321.105 252.347 321.717 254.338 321.717C255.103 321.717 255.869 321.564 256.328 321.411V313.907H261.229V324.933Z" fill="#006E3F"/>
<path d="M271.643 303.188H266.743V326.005H271.643V303.188Z" fill="#006E3F"/>
<path d="M293.542 323.095C291.551 325.239 289.1 326.464 286.038 326.464C282.822 326.464 280.371 325.393 278.687 323.402C277.002 321.41 276.236 318.654 276.236 314.979C276.236 311.304 277.309 308.394 279.299 306.097C281.29 303.953 283.74 302.881 286.803 302.881C290.019 302.881 292.469 303.953 294.154 305.944C295.838 307.935 296.604 310.691 296.604 314.366C296.604 317.889 295.532 320.798 293.542 323.095ZM286.497 307.628C284.965 307.628 283.74 308.241 282.822 309.466C281.903 310.691 281.443 312.375 281.443 314.52C281.443 319.267 283.128 321.717 286.344 321.717C287.875 321.717 289.1 321.104 290.019 319.879C290.938 318.654 291.397 316.97 291.397 314.826C291.397 309.925 289.713 307.628 286.497 307.628Z" fill="#006E3F"/>
<path d="M312.838 326.005L307.324 314.826C306.559 313.142 305.946 311.763 305.64 310.385C305.793 312.988 305.793 316.204 305.793 319.879V326.005H301.046V303.188H307.478L312.838 314.06C313.603 315.438 314.216 316.97 314.675 318.654C314.522 316.357 314.369 313.142 314.369 309.007V303.34H319.116V326.158H312.838V326.005Z" fill="#006E3F"/>
<path d="M353.113 326.005L351.735 316.358C351.429 314.826 351.275 312.988 351.122 310.691C350.663 312.835 350.357 314.826 349.897 316.511L347.14 325.852H342.546L339.943 317.123C339.33 314.673 338.718 312.529 338.565 310.538C338.412 312.988 338.259 314.979 337.952 316.664L336.88 325.852H331.826L335.196 303.034H340.862L343.772 313.142C344.078 314.367 344.537 316.051 344.997 318.042C345.303 316.204 345.763 314.52 346.222 313.142L349.284 303.034H354.798L358.167 325.852H353.113V326.005Z" fill="#006E3F"/>
<path d="M380.218 316.97C380.218 323.248 377.156 326.311 371.183 326.311C365.517 326.311 362.761 323.555 362.761 317.888V303.188H367.661V317.582C367.661 318.961 367.967 320.032 368.427 320.798C369.039 321.564 370.111 322.023 371.489 322.023C372.868 322.023 373.94 321.717 374.553 320.952C375.165 320.186 375.471 318.961 375.471 317.276V303.188H380.372L380.218 316.97Z" fill="#006E3F"/>
<path d="M397.677 326.005L392.164 314.826C391.398 313.142 390.785 311.763 390.479 310.385C390.632 312.988 390.632 316.204 390.632 319.879V326.005H385.885V303.188H392.317L397.677 314.06C398.442 315.438 399.055 316.97 399.514 318.654C399.361 316.357 399.361 313.142 399.361 309.007V303.34H404.108V326.158H397.677V326.005Z" fill="#006E3F"/>
<path d="M414.675 303.188H409.774V326.005H414.675V303.188Z" fill="#006E3F"/>
<path d="M434.736 325.239C433.051 325.852 431.367 326.158 429.376 326.158C425.7 326.158 423.097 324.933 421.413 322.636C420.034 320.798 419.422 318.348 419.422 315.285C419.422 311.456 420.34 308.547 422.178 306.25C424.169 303.953 426.772 302.881 430.294 302.881C431.979 302.881 433.357 303.034 434.736 303.493L434.123 308.241C432.898 307.781 431.673 307.475 430.294 307.475C428.61 307.475 427.232 308.087 426.313 309.313C425.394 310.538 424.934 312.222 424.934 314.213C424.934 318.807 426.772 321.104 430.448 321.104C431.826 321.104 433.051 320.798 434.123 320.185L434.736 325.239Z" fill="#006E3F"/>
<path d="M444.537 303.188H439.637V326.005H444.537V303.188Z" fill="#006E3F"/>
<path d="M462.914 316.204C461.383 317.889 459.086 318.655 456.329 318.655C455.869 318.655 455.563 318.655 455.104 318.655V326.005H450.204V303.188C452.194 303.034 454.338 303.034 456.635 303.034C462.302 303.034 465.058 305.484 465.058 310.385C465.211 312.682 464.446 314.673 462.914 316.204ZM456.482 307.323C456.023 307.323 455.717 307.323 455.257 307.323V314.06C455.717 314.213 456.176 314.213 456.635 314.213C458.933 314.213 460.004 312.988 460.004 310.691C460.004 308.548 458.933 307.323 456.482 307.323Z" fill="#006E3F"/>
<path d="M480.371 326.005L479.146 321.717H471.642L470.417 326.005H465.517L472.561 303.188H478.381L485.731 326.005H480.371ZM476.083 311.916C475.777 310.998 475.471 309.925 475.318 308.7C475.012 310.078 474.705 311.151 474.552 311.916L472.868 317.429H477.921L476.083 311.916Z" fill="#006E3F"/>
<path d="M489.407 326.005V303.188H494.308V321.258H500.739V326.005H489.407Z" fill="#006E3F"/>
<path d="M509.774 303.188H504.873V326.005H509.774V303.188Z" fill="#006E3F"/>
<path d="M524.17 307.628V326.005H519.27V307.628H514.063V303.188H529.224V307.628H524.17Z" fill="#006E3F"/>
<path d="M543.924 318.042V326.005H539.023V318.042L532.286 303.188H537.645L540.095 309.007C540.708 310.385 541.167 311.61 541.474 312.682C541.78 311.763 542.24 310.385 543.158 308.547L545.455 303.188H550.662L543.924 318.042Z" fill="#006E3F"/>
</g>
<defs>
<clipPath id="clip0_176_844">
<rect width="472.327" height="317.267" fill="white" transform="translate(79.5326 9.36646)"/>
</clipPath>
</defs>
</svg>
