<svg width="632" height="336" viewBox="0 0 632 336" fill="none" xmlns="http://www.w3.org/2000/svg">
<g clip-path="url(#clip0_176_852)">
<path d="M85.0407 186.882C78.9456 188.005 72.9744 191.266 71.0019 198.455C70.5384 200.333 70.3579 202.327 70.3579 204.75V225.175H72.5836C76.9004 225.175 80.3872 223.439 82.2545 220.739C83.2057 219.327 83.6799 217.263 83.6799 215.003V205.324C83.6799 202.632 83.9521 200.829 84.9707 199.552C86.3314 197.884 88.4359 197.264 91.4269 197.264H112.854V186.311H92.7499C89.7616 186.311 87.2476 186.464 85.0407 186.882Z" fill="#008E7F"/>
<path d="M493.112 186.376C490.972 185.95 488.458 185.794 485.47 185.794H477.354C474.365 185.794 471.886 185.95 469.68 186.376C463.531 187.513 457.619 190.722 455.649 197.987C455.142 199.808 454.938 201.794 454.938 204.211V225.173H457.214C461.561 225.173 465.026 223.44 466.893 220.743C467.845 219.331 468.319 217.264 468.319 215.001V204.81C468.319 202.118 468.559 200.334 469.61 199.038C470.97 197.41 473.04 196.769 476.028 196.769H486.798C489.787 196.769 491.856 197.41 493.249 199.038C494.268 200.334 494.54 202.118 494.54 204.81V215.001C494.54 217.264 495.017 219.331 496 220.743C497.835 223.44 501.266 225.173 505.615 225.173H507.889V204.211C507.889 201.794 507.716 199.808 507.175 197.987C505.237 190.722 499.296 187.513 493.112 186.376Z" fill="#008E7F"/>
<path d="M117.336 225.175H119.541C123.922 225.175 127.422 223.439 129.222 220.739C130.208 219.33 130.683 217.261 130.683 215V186.399H117.336" fill="#008E7F"/>
<path d="M175.383 190.835C174.397 192.255 173.923 194.357 173.923 196.558V214.21H156.941C153.851 214.21 151.849 213.58 150.52 211.95C149.437 210.664 149.23 208.88 149.23 206.189V186.311H135.883V207.118C135.883 211.176 136.123 216.396 140.098 220.386C143.999 224.366 149.639 225.172 158.265 225.172H173.923V241.814H187.304V186.402H185.027C180.681 186.402 177.183 188.081 175.383 190.835Z" fill="#008E7F"/>
<path d="M562.33 193.486V186.078H548.948V193.486C548.948 196.444 547.081 198.902 541.406 198.902H526.228V174.729C526.228 172.481 525.753 170.364 524.767 168.97C522.932 166.279 519.467 164.535 515.085 164.535H512.846V225.096H526.228V207.069C528.402 208.621 531.56 209.608 534.651 209.608H541.748C546.979 209.608 548.948 212.289 548.948 215.245V225.096H562.33V215.166C562.33 210.834 561.007 207.11 556.792 204.326C560.325 201.535 562.33 197.689 562.33 193.486Z" fill="#008E7F"/>
<path d="M213.59 186.311C206.323 186.311 199.902 188.005 195.927 191.956C193.044 194.869 190.867 199.115 190.867 204.919V206.525C190.867 212.758 193.009 216.584 195.895 219.497C199.834 223.485 206.051 225.096 213.35 225.096H246.537V186.311H213.59ZM233.185 214.159H212.367C209.379 214.159 207.069 213.491 205.746 211.809C204.693 210.565 204.42 208.851 204.42 206.186V205.324C204.42 202.645 204.725 200.921 205.746 199.579C207.102 197.922 209.106 197.264 212.095 197.264H233.185" fill="#008E7F"/>
<path d="M417.576 186.311C410.276 186.311 403.89 188.005 399.915 191.956C397.027 194.869 394.855 199.115 394.855 204.919V206.525C394.855 212.758 396.994 216.584 399.88 219.497C403.89 223.485 410.036 225.096 417.374 225.096H449.841V186.311H417.576ZM436.459 214.159H416.355C413.329 214.159 411.055 213.491 409.697 211.809C408.643 210.565 408.371 208.851 408.371 206.186V205.324C408.371 202.645 408.713 200.921 409.732 199.579C411.055 197.922 413.095 197.264 416.083 197.264H436.459" fill="#008E7F"/>
<path d="M295.378 174.139C294.494 175.532 293.985 177.634 293.985 179.854V186.31H273.029C265.794 186.31 259.341 188.005 255.398 191.969C252.515 194.868 250.306 199.112 250.306 204.922V206.525C250.306 212.761 252.48 216.587 255.334 219.51C259.308 223.49 265.452 225.096 272.789 225.096H284.85C292.118 225.096 298.299 223.49 302.273 219.51C305.092 216.587 307.331 212.761 307.331 206.525V169.661H305.054C300.743 169.661 297.278 171.439 295.378 174.139ZM293.95 200.921V206.186C293.95 208.851 293.645 210.562 292.624 211.812C291.269 213.477 288.96 214.159 285.966 214.159H271.806C268.817 214.159 266.476 213.477 265.147 211.812C264.097 210.562 263.824 208.851 263.824 206.186V205.323C263.824 202.645 264.164 200.921 265.218 199.579C266.541 197.919 268.58 197.253 271.569 197.253H293.95" fill="#008E7F"/>
<path d="M368.975 186.31H348.497V163.633L346.29 163.662C341.976 163.662 338.475 165.357 336.643 168.082C335.692 169.475 335.183 171.603 335.183 173.824V206.525C335.183 212.758 337.357 216.584 340.243 219.497C344.218 223.485 350.399 225.096 357.634 225.096H369.248C376.483 225.096 382.696 223.485 386.671 219.497C389.489 216.584 391.699 212.758 391.699 206.525V204.919C391.699 199.115 389.489 194.868 386.638 191.956C382.664 188.005 376.21 186.31 368.975 186.31ZM378.212 206.186C378.212 208.851 377.876 210.564 376.819 211.809C375.464 213.491 373.155 214.159 370.201 214.159H356.513C353.557 214.159 351.248 213.491 349.89 211.809C348.871 210.564 348.497 208.851 348.497 206.186V197.264H370.404C373.459 197.264 375.432 197.921 376.819 199.579C377.806 200.92 378.212 202.645 378.212 205.323" fill="#008E7F"/>
<path d="M171.545 97.5127C167.026 97.5127 163.358 100.272 163.358 103.699C163.358 107.154 167.026 109.867 171.545 109.867C176.096 109.867 179.693 107.154 179.693 103.699C179.693 100.272 175.991 97.5127 171.545 97.5127Z" fill="#382E7F"/>
<path d="M511.625 97.5127C507.106 97.5127 503.471 100.272 503.471 103.699C503.471 107.154 507.073 109.867 511.625 109.867C516.141 109.867 519.776 107.154 519.776 103.699C519.776 100.272 516.108 97.5127 511.625 97.5127Z" fill="#382E7F"/>
<path d="M263.689 154.078C259.817 154.078 256.694 156.018 255.775 158.699C254.891 156.018 251.768 154.078 247.931 154.078C243.412 154.078 239.777 156.859 239.777 160.26C239.777 163.733 243.342 166.427 247.931 166.427C251.768 166.427 254.891 164.514 255.775 161.82C256.694 164.514 259.817 166.427 263.689 166.427C268.238 166.427 271.805 163.733 271.805 160.26C271.805 156.789 268.238 154.078 263.689 154.078Z" fill="#382E7F"/>
<path d="M543.954 153.949C539.403 153.949 535.668 156.778 535.668 160.265C535.668 163.776 539.303 166.551 543.954 166.551C548.642 166.551 552.242 163.776 552.242 160.265C552.242 156.735 548.642 153.949 543.954 153.949Z" fill="#382E7F"/>
<path d="M443.936 107.534H432.285L428.515 115.602C428.14 116.429 428.038 117.213 428.038 118.024C428.038 118.959 428.278 119.786 428.787 120.546C429.873 122.177 431.843 122.92 433.675 123.271C432.964 124.806 430.417 129.953 430.417 129.953H442.169L445.868 121.158C446.21 120.347 446.38 119.566 446.38 118.843C446.38 117.889 446.108 116.998 445.564 116.294C444.715 114.99 443.087 114.195 440.845 113.845C441.557 112.314 443.936 107.534 443.936 107.534Z" fill="#382E7F"/>
<path d="M370.297 94.188H356.102V149.769H356.714C360.009 149.769 362.965 149.079 365.611 147.463C369.246 145.194 370.297 141.57 370.297 138.848" fill="#382E7F"/>
<path d="M461.252 94.2578H460.676V126.388C460.676 130.629 459.555 133.459 457.553 135.455C454.222 138.818 450.929 139.672 439.211 139.672H433.304C424.029 139.672 422.332 139.422 420.327 138.762C418.222 138.058 416.49 136.835 415.506 135.248C414.45 133.693 414.078 131.648 414.078 128.678V113.616H399.813V128.234C399.813 133.459 400.527 139.899 406.062 144.374C411.157 148.376 418.869 149.769 427.05 149.769H445.971C455.343 149.769 462.341 147.896 467.094 142.518C470.969 147.072 476.706 149.877 486.115 149.877H544.704C553.534 149.877 557.643 146.942 559.58 144.62C561.55 142.273 562.297 139.117 562.297 135.816V113.616H561.653C558.389 113.616 555.366 114.295 552.752 115.906C549.085 118.161 548.066 121.813 548.066 124.496V135.55C548.066 136.366 547.932 137.288 547.387 137.824C546.843 138.438 545.825 138.675 543.855 138.675H518.752V113.616H504.557V138.675H487.064C483.536 138.675 480.478 137.902 478.339 136.269C475.655 134.286 474.873 131.648 474.873 128.347V105.168C474.873 102.436 473.82 98.8036 470.22 96.5374C467.536 94.9207 464.513 94.2578 461.252 94.2578Z" fill="#382E7F"/>
<path d="M349.446 94.188H348.764C345.504 94.188 342.515 94.8428 339.904 96.4514C336.199 98.7203 335.181 102.369 335.181 105.069V135.55C335.181 136.369 335.078 137.291 334.569 137.827C333.96 138.438 332.939 138.684 330.934 138.684H307.839V124.497C307.839 121.748 306.82 118.162 303.153 115.879C300.536 114.268 297.516 113.594 294.22 113.594H293.644V145.194C293.644 150.653 292.49 153.485 282.095 156.147L280.365 156.568L281.518 165.328L283.52 165.064C297.923 163.18 306.855 157.505 307.567 149.899H331.818C340.715 149.899 344.757 146.943 346.73 144.62C348.662 142.273 349.446 139.118 349.446 135.817" fill="#382E7F"/>
<path d="M214.882 94.188H214.273V135.817C214.273 139.118 214.952 142.273 216.955 144.62C218.927 146.943 222.999 149.872 231.831 149.872H258.764C267.661 149.872 271.706 146.943 273.676 144.62C275.643 142.273 276.359 139.118 276.359 135.817V113.616H262.159V135.55C262.159 136.369 262.094 137.291 261.55 137.827C260.903 138.438 259.952 138.684 257.915 138.684H232.712C230.71 138.684 229.692 138.438 229.115 137.827C228.603 137.291 228.469 136.369 228.469 135.55V105.069C228.469 102.369 227.482 98.7203 223.78 96.4514C221.131 94.8428 218.143 94.188 214.882 94.188Z" fill="#382E7F"/>
<path d="M144.882 138.684V137.757C144.882 124.801 155.65 123.565 176.471 123.565H191.345V135.569C191.345 136.367 191.175 137.291 190.666 137.83C190.121 138.439 189.103 138.684 187.068 138.684H144.882ZM144.917 106.979H131.094V137.663C131.094 141.866 130.14 144.688 128.17 146.703C124.81 150.069 121.55 150.917 109.866 150.917H103.684C94.4797 150.917 92.7471 150.691 90.7774 150.028C88.6729 149.29 86.9403 148.142 85.9217 146.574C84.8681 144.976 84.464 142.879 84.464 139.915V137.164C84.464 134.445 83.44 130.797 79.7727 128.544C77.1131 126.925 74.1033 126.273 70.8779 126.273H70.2446V139.498C70.2446 144.706 70.9587 151.225 76.5392 155.625C81.5403 159.686 89.2846 161.036 97.5031 161.036H116.931C126.303 161.036 134.626 159.238 139.072 154.011C140.875 151.941 141.384 150.917 141.826 149.902H187.95C196.812 149.902 200.889 146.943 202.824 144.62C204.828 142.273 205.507 139.118 205.507 135.833V113.654H170.898C165.633 113.654 161.287 113.856 157.722 114.368C152.761 115.007 148.245 116.443 144.917 118.766" fill="#382E7F"/>
</g>
<defs>
<clipPath id="clip0_176_852">
<rect width="492.085" height="147.626" fill="white" transform="translate(70.2451 94.1875)"/>
</clipPath>
</defs>
</svg>
