<svg width="633" height="336" viewBox="0 0 633 336" fill="none" xmlns="http://www.w3.org/2000/svg">
<g clip-path="url(#clip0_176_848)">
<path d="M362.55 221.125C360.744 221.843 359.106 222.919 357.738 224.299C356.324 225.735 355.214 227.429 354.451 229.291C353.61 231.355 353.195 233.565 353.228 235.808C353.228 237.67 353.475 239.521 353.946 241.327C354.406 243.167 355.023 244.95 355.797 246.666H372.04C372.051 248.394 371.815 250.099 371.311 251.737C370.963 252.858 370.335 253.868 369.471 254.653C368.641 255.337 367.654 255.809 366.599 256.01C365.343 256.235 364.053 256.347 362.774 256.336C362.18 256.336 361.496 256.302 360.722 256.246C360.004 256.19 359.286 256.067 358.602 255.853C358.489 256.381 358.355 256.908 358.175 257.413C359.432 258.153 360.789 258.703 362.213 259.039C363.717 259.432 365.276 259.634 366.835 259.634C368.125 259.622 369.393 259.432 370.626 259.062C371.984 258.669 373.251 257.996 374.328 257.087C375.551 256.033 376.527 254.72 377.2 253.251C378.041 251.288 378.479 249.168 378.479 247.037C378.523 246.307 378.546 245.567 378.568 244.816C378.591 244.053 378.602 243.268 378.602 242.471V220.014H368.271C366.308 220.014 364.356 220.384 362.539 221.125M371.916 241.989H361.406C360.856 240.811 360.452 239.566 360.206 238.298C359.97 237.076 359.847 235.842 359.847 234.608C359.802 233.004 360.082 231.4 360.688 229.919C361.159 228.797 361.855 227.777 362.718 226.913C363.459 226.195 364.345 225.645 365.309 225.297C366.128 224.995 366.981 224.826 367.845 224.815H371.916V241.989Z" fill="#405378"/>
<path d="M318.793 209.481L313.498 215.875H324.11L318.793 209.481Z" fill="#405378"/>
<path d="M336.807 215.875L331.502 209.481L326.185 215.875H336.807Z" fill="#405378"/>
<path d="M180.954 209.481L175.637 215.875H186.26L180.954 209.481Z" fill="#405378"/>
<path d="M325.141 202.022L319.846 208.416H330.458L325.141 202.022Z" fill="#405378"/>
<path d="M339.735 220.003V241.978L334.541 241.921C333.588 241.933 332.646 241.708 331.793 241.282C331.064 240.923 330.436 240.362 330.01 239.667C329.55 238.904 329.224 238.074 329.056 237.199C328.843 236.178 328.742 235.146 328.753 234.103V223.839H322.057V237.827C322.157 238.915 321.944 240.003 321.462 240.979C320.912 241.652 320.06 242 319.196 241.91H316.212C315.259 241.921 314.317 241.697 313.464 241.271C312.724 240.912 312.107 240.351 311.669 239.656C311.209 238.893 310.884 238.063 310.716 237.188C310.503 236.167 310.413 235.135 310.413 234.092V227.676H303.784V237.816C303.885 238.904 303.671 240.003 303.189 240.968C302.617 241.652 301.742 242 300.867 241.91H247.899C246.946 241.955 245.992 241.787 245.117 241.405C244.399 241.047 243.782 240.508 243.334 239.835C242.851 239.106 242.515 238.287 242.346 237.435C242.133 236.436 242.044 235.438 242.044 234.417V219.992H235.358V237.928C235.381 238.713 235.302 239.499 235.111 240.273C234.999 240.744 234.73 241.17 234.337 241.473C233.934 241.742 233.451 241.888 232.969 241.91C232.408 241.944 116.971 241.966 116.971 241.966V246.644H233.328C234.607 246.678 235.897 246.509 237.119 246.15C238.05 245.87 238.925 245.388 239.654 244.748C240.339 244.154 240.855 243.402 241.18 242.561C241.528 241.663 241.763 240.71 241.864 239.745C242.201 241.607 243.076 243.335 244.377 244.703C245.42 245.758 246.789 246.42 248.258 246.577C248.494 246.633 248.729 246.655 248.976 246.655H301.753C303.032 246.678 304.3 246.509 305.522 246.139C306.464 245.859 307.328 245.365 308.057 244.703C308.719 244.075 309.235 243.324 309.583 242.482C309.953 241.551 310.2 240.564 310.301 239.577C310.626 241.473 311.49 243.223 312.78 244.647C314.092 246.016 315.932 246.745 317.828 246.655H320.093C322.359 246.891 324.614 246.184 326.364 244.703C327.643 243.29 328.45 241.484 328.63 239.577C328.955 241.473 329.808 243.223 331.109 244.647C332.421 246.016 334.261 246.745 336.145 246.655H346.477V219.992H339.724L339.735 220.003Z" fill="#405378"/>
<path d="M404.043 241.989C402.282 242.113 400.588 241.305 399.568 239.858C398.592 238.153 398.143 236.201 398.255 234.238V220.003H391.502V245.287C391.536 247.183 391.379 249.067 391.031 250.929C390.807 252.141 390.325 253.285 389.618 254.295C389.057 255.057 388.261 255.618 387.352 255.91C386.331 256.213 385.277 256.347 384.222 256.336C383.74 256.336 383.168 256.303 382.517 256.246C381.889 256.19 381.283 256.056 380.689 255.854C380.599 256.381 380.453 256.908 380.274 257.413C381.362 258.12 382.54 258.669 383.774 259.04C385.008 259.432 386.32 259.634 387.621 259.634C389.102 259.657 390.571 259.331 391.917 258.703C393.275 258.052 394.43 257.043 395.283 255.798C396.315 254.261 397.055 252.556 397.47 250.75C398.031 248.349 398.289 245.893 398.244 243.425V239.589C398.536 241.485 399.388 243.257 400.701 244.659C401.688 245.691 402.989 246.364 404.402 246.566C404.84 246.622 405.277 246.656 405.715 246.667H516.014V241.978H404.043V241.989Z" fill="#405378"/>
<path d="M294.271 70.2976L298.164 66.3828L302.067 70.2976L298.164 74.2237L294.271 70.2976Z" fill="#B167A1"/>
<path d="M258.253 70.2976L262.156 66.3828L266.049 70.2976L262.156 74.2237L258.253 70.2976Z" fill="#B167A1"/>
<path d="M258.253 32.3604L262.156 28.4343L266.06 32.3604L262.156 36.2864L258.253 32.3604Z" fill="#B167A1"/>
<path d="M258.253 106.742L262.156 102.827L266.06 106.742L262.156 110.668L258.253 106.742Z" fill="#B167A1"/>
<path d="M294.373 142.783L298.265 138.857L302.169 142.783L298.265 146.698L294.373 142.783Z" fill="#B167A1"/>
<path d="M258.264 142.773L262.156 138.847L266.06 142.773L262.156 146.699L258.264 142.773Z" fill="#B167A1"/>
<path d="M454.028 49.8147C453.725 49.7026 453.389 49.624 453.052 49.6128C451.369 49.6128 450.012 50.9813 450.012 52.6751C450.012 54.369 451.369 55.7375 453.052 55.7375C454.735 55.7375 456.103 54.369 456.103 52.6751C456.092 52.3386 456.025 51.9909 455.901 51.6656L473.097 34.3685C473.232 34.4471 473.378 34.5031 473.524 34.548C474.073 34.6602 474.657 34.5929 475.173 34.3798L492.279 51.5758C492.144 51.9348 492.066 52.305 492.066 52.6751C492.066 54.369 493.423 55.7375 495.106 55.7375C496.788 55.7375 498.146 54.369 498.146 52.6751C498.146 50.9813 496.788 49.6128 495.106 49.6128C494.803 49.624 494.5 49.6913 494.22 49.7923L477.001 32.484C477.057 32.3943 477.091 32.2933 477.136 32.1924C477.472 30.5322 476.429 28.9057 474.78 28.558C473.131 28.2103 471.516 29.2759 471.168 30.9248C471.078 31.4408 471.123 31.9568 471.291 32.4504L454.028 49.8147Z" fill="#CF3D28"/>
<path d="M489.306 34.6266C489.688 34.6266 490.069 34.5481 490.428 34.4022L507.523 51.5871C507.388 51.9348 507.31 52.305 507.31 52.6752C507.31 54.369 508.667 55.7375 510.35 55.7375C512.032 55.7375 513.39 54.369 513.39 52.6752C513.39 50.9814 512.032 49.6129 510.35 49.6129C510.047 49.6353 509.744 49.6914 509.464 49.7923L492.178 32.4168C492.268 32.1363 492.335 31.8559 492.346 31.553C492.346 29.8592 490.989 28.4907 489.306 28.4907C487.612 28.4907 486.255 29.8592 486.255 31.553C486.255 33.2468 487.612 34.6154 489.306 34.6154V34.6266Z" fill="#CF3D28"/>
<path d="M470.226 62.793L474.129 58.8669L478.022 62.793L474.129 66.7078L470.226 62.793Z" fill="#CF3D28"/>
<path d="M138.395 124.174C138.889 124.107 139.304 123.759 139.461 123.288C140.482 121.011 141.682 118.824 143.062 116.737C145.53 117.074 147.941 117.769 150.207 118.812C150.387 118.902 150.589 118.947 150.802 118.947C151.082 118.947 151.363 118.846 151.587 118.678C151.89 118.274 151.935 117.747 151.722 117.287C150.835 114.954 150.151 112.553 149.658 110.108C151.643 108.582 153.83 107.371 156.164 106.496C156.758 106.384 157.14 105.812 157.027 105.217C156.949 104.78 156.601 104.432 156.164 104.353C153.898 103.321 151.722 102.11 149.658 100.73C149.983 98.2511 150.678 95.8282 151.722 93.5511C151.935 93.0912 151.89 92.564 151.587 92.1601C151.363 91.9919 151.082 91.8909 150.802 91.8909C150.589 91.8909 150.398 91.947 150.207 92.0255C147.885 92.9117 145.496 93.6072 143.062 94.1007C141.547 92.1041 140.336 89.9055 139.472 87.5498C139.36 86.9553 138.788 86.5627 138.205 86.6749C137.756 86.7534 137.42 87.1124 137.33 87.5498C136.466 89.9055 135.255 92.1041 133.74 94.1007C131.261 93.7642 128.861 93.0687 126.595 92.0255C126.404 91.947 126.202 91.8909 126 91.8909C125.72 91.8909 125.439 91.9919 125.204 92.1601C124.89 92.5527 124.834 93.1024 125.081 93.5511C126.157 95.817 126.864 98.2399 127.145 100.73C125.159 102.256 122.972 103.467 120.627 104.353C120.044 104.465 119.651 105.038 119.764 105.632C119.842 106.07 120.19 106.417 120.627 106.496C122.972 107.371 125.159 108.593 127.145 110.108C126.875 112.609 126.18 115.043 125.081 117.298C124.845 117.747 124.89 118.285 125.204 118.678C125.439 118.857 125.72 118.947 126.012 118.947C126.213 118.947 126.404 118.902 126.595 118.812C128.917 117.937 131.306 117.242 133.74 116.748C135.255 118.734 136.466 120.944 137.341 123.299C137.509 123.77 137.913 124.107 138.407 124.185M135.692 115.268L134.761 114.034L133.258 114.348C132.899 114.426 130.656 114.898 128.457 115.559C129.018 113.854 129.388 112.116 129.579 110.332L129.702 108.975L128.614 108.156C127.257 107.113 125.798 106.204 124.273 105.419C125.798 104.645 127.257 103.725 128.614 102.693L129.724 101.852L129.579 100.472C129.366 98.7559 129.007 97.0509 128.491 95.4019C130.095 95.9179 131.732 96.2993 133.404 96.5349L134.828 96.7256L135.692 95.5814C136.724 94.2017 137.633 92.7434 138.407 91.2067C139.181 92.7434 140.089 94.2017 141.121 95.5814L142.052 96.8153L143.555 96.5012C143.914 96.4227 146.214 95.9404 148.424 95.2673C147.885 96.9387 147.481 98.6549 147.246 100.394L147.033 101.93L148.323 102.783C148.626 102.985 150.589 104.275 152.63 105.374C151.071 106.159 149.59 107.09 148.188 108.156L146.954 109.087L147.268 110.613C147.347 110.972 147.829 113.282 148.491 115.503C146.831 114.954 145.126 114.561 143.398 114.325L141.873 114.101L141.02 115.402C140.818 115.705 139.54 117.679 138.452 119.732C137.666 118.162 136.735 116.67 135.681 115.268" fill="#604C8C"/>
<path d="M144.376 91.8235C152.397 89.6025 162.279 84.3192 162.784 75.6931C162.571 72.4737 161.528 69.3665 159.733 66.6856C158.667 64.6553 157.074 60.5049 157.074 60.5049C155.089 61.5593 153.014 62.4118 150.871 63.0512C147.73 63.7018 144.814 65.1937 142.436 67.3474C136.793 73.8759 140.181 84.5884 144.388 91.8123M150.927 65.6087L151.612 65.3844C152.913 64.9581 154.349 64.4758 155.784 63.8588C156.334 65.1825 157.018 66.7529 157.59 67.8298L157.916 68.4467C159.307 70.578 160.148 73.0121 160.361 75.5473C159.935 79.1031 157.949 82.2888 154.943 84.1958C152.094 86.2598 148.919 87.8526 145.565 88.907C142.043 82.1542 140.069 73.8198 144.275 68.9515C146.171 67.2913 148.459 66.1472 150.927 65.6087Z" fill="#604C8C"/>
<path d="M168.29 81.021C168.111 81.021 167.931 81.0322 167.763 81.0434C159.182 81.6379 154.044 91.6325 151.924 99.7314C156.613 102.569 161.93 104.207 167.404 104.499C170.634 104.622 173.809 103.523 176.277 101.414C178.397 98.9911 179.844 96.0409 180.461 92.8777C181.134 90.6679 182.917 86.6072 182.917 86.6072C180.775 85.9566 178.711 85.0817 176.737 84.0048C174.19 82.3671 171.296 81.3575 168.29 81.021ZM178.128 92.1598L177.926 92.8216C177.421 95.3118 176.299 97.645 174.661 99.5856C172.631 101.279 170.04 102.166 167.404 102.042C162.984 101.829 158.688 100.629 154.807 98.5087C157.073 91.2287 161.526 83.9375 167.92 83.4776C168.043 83.4664 168.167 83.4664 168.29 83.4664C170.668 83.758 172.956 84.5657 174.976 85.8444L175.626 86.1922C176.838 86.8203 178.206 87.4934 179.653 88.0767C179.115 89.4003 178.487 91.0044 178.128 92.1598Z" fill="#604C8C"/>
<path d="M148.896 61.4245C150.074 61.2899 150.904 59.5512 149.569 58.9118C145.811 57.1058 142.099 55.1877 138.397 53.2471C134.706 55.1877 130.993 57.1058 127.224 58.9118C125.901 59.5512 126.72 61.3011 127.909 61.4245C132.037 61.7386 135.839 63.7801 138.397 67.0443C140.966 63.7801 144.768 61.7386 148.896 61.4245ZM131.397 59.5961C133.876 58.3622 136.254 57.1283 138.397 56.0065C140.461 57.0834 142.873 58.3285 145.408 59.5961C142.805 60.3027 140.405 61.6152 138.397 63.4324C136.4 61.6152 134 60.3027 131.397 59.5961Z" fill="#604C8C"/>
<path d="M149.569 152.173C150.904 151.533 150.085 149.795 148.896 149.671C144.768 149.346 140.966 147.315 138.397 144.04C135.839 147.315 132.037 149.346 127.909 149.671C126.72 149.795 125.901 151.533 127.224 152.173C130.993 153.99 134.706 155.908 138.397 157.849C142.099 155.897 145.811 153.99 149.569 152.173ZM138.397 147.652C140.405 149.469 142.805 150.793 145.408 151.488C142.929 152.733 140.551 153.956 138.397 155.078C136.333 153.99 133.921 152.745 131.397 151.488C134 150.793 136.4 149.469 138.397 147.652Z" fill="#604C8C"/>
<path d="M162.256 144.241C161.617 145.072 162.066 146.563 163.109 146.563C163.277 146.563 163.434 146.53 163.591 146.474C167.495 145.004 171.443 143.636 175.392 142.301C176.558 138.274 177.759 134.258 179.071 130.276C179.396 129.289 178.589 128.694 177.77 128.694C177.422 128.694 177.074 128.807 176.805 129.031C174.102 131.431 170.647 132.777 167.046 132.822C166.53 132.822 166.014 132.8 165.498 132.733C166.059 136.861 164.881 141.033 162.256 144.241ZM168.089 135.234C170.782 135.055 173.384 134.224 175.695 132.822C174.853 135.481 174.091 138.05 173.406 140.383C171.208 141.134 168.639 142.009 165.981 142.974C167.282 140.596 168.011 137.949 168.089 135.234Z" fill="#604C8C"/>
<path d="M165.541 78.6768C166.293 78.5534 167.056 78.4973 167.818 78.4973C171.161 78.5422 174.403 79.7088 177.028 81.7952C177.286 81.9859 177.6 82.0868 177.925 82.0756C178.778 82.0756 179.619 81.4362 179.226 80.4267C177.712 76.5231 176.31 72.5634 174.93 68.6037C170.914 67.4819 166.899 66.3266 162.928 65.059C162.793 65.0141 162.647 64.9917 162.501 64.9917C161.413 64.9917 161.01 66.5509 161.705 67.3585C164.498 70.4209 165.889 74.5264 165.541 78.6768ZM173.046 70.6228C173.809 72.8214 174.717 75.3901 175.715 78.0486C173.337 76.7698 170.69 76.0744 167.998 76.0407C167.774 73.3374 166.921 70.7237 165.485 68.4242C168.144 69.2206 170.713 69.961 173.046 70.6228Z" fill="#604C8C"/>
<path d="M142.22 143.771C144.609 145.913 147.526 147.394 150.666 148.044C152.843 148.74 156.87 150.579 156.87 150.579C157.543 148.437 158.44 146.362 159.528 144.399C161.3 141.707 162.355 138.611 162.557 135.38C162.041 126.765 152.147 121.493 144.115 119.294C139.931 126.518 136.566 137.253 142.22 143.771ZM160.123 135.526C159.921 138.05 159.091 140.484 157.711 142.604L157.363 143.255C156.735 144.466 156.039 145.835 155.456 147.282C154.144 146.721 152.551 146.081 151.407 145.711L150.734 145.498C148.266 144.971 145.966 143.815 144.048 142.155C141.861 139.317 141.076 135.649 141.883 132.172C142.489 128.683 143.644 125.318 145.305 122.211C152.517 124.544 159.73 129.098 160.123 135.537V135.526Z" fill="#604C8C"/>
<path d="M170.175 32.3941L174.078 28.468L177.982 32.3941L174.078 36.3089L170.175 32.3941Z" fill="#604C8C"/>
<path d="M185.666 25.8545H117.016V186.665H185.666V25.8545ZM119.585 67.5155C120.089 66.461 120.617 65.3393 121.077 64.1279C122.4 64.6551 124.004 65.2608 125.16 65.6085L125.833 65.7992C128.312 66.2704 130.645 67.3696 132.597 68.9849C134.84 71.7668 135.726 75.4237 134.997 78.9234C134.481 82.4232 133.404 85.8109 131.823 88.9629C127.224 87.7627 123.006 85.3958 119.585 82.0867V67.5155ZM119.585 92.8777C120.516 94.7062 121.301 96.6019 121.918 98.5537C121.144 98.9575 120.359 99.294 119.585 99.6305V92.8777ZM119.585 128.594C120.392 127.741 121.29 126.967 122.254 126.283C125.171 124.331 128.401 122.85 131.789 121.93C135.064 128.807 136.736 137.197 132.361 141.908C130.398 143.501 128.076 144.567 125.597 145.016L124.89 145.218C123.578 145.588 122.12 146.025 120.661 146.586C120.336 145.7 119.955 144.758 119.585 143.871V128.594ZM119.585 111.622C120.403 111.992 121.222 112.362 122.041 112.811C121.379 114.729 120.561 116.591 119.585 118.386V111.622ZM119.585 149.749C121.503 148.841 123.499 148.112 125.552 147.573C128.715 147.024 131.677 145.655 134.145 143.591C140.011 137.276 137.016 126.44 133.079 119.059C128.199 120.125 123.6 122.233 119.596 125.24V123.232C122.109 119.709 123.982 115.761 125.148 111.588C123.365 110.5 121.514 109.547 119.596 108.739V102.323C121.391 101.582 123.129 100.73 124.812 99.7539C123.746 95.6035 121.985 91.6775 119.596 88.1216V85.4743C123.578 88.5479 128.188 90.724 133.079 91.8457C137.095 84.5097 140.202 73.6962 134.391 67.3248C131.957 65.2271 129.007 63.825 125.844 63.2529C123.656 62.6135 119.641 60.8973 119.585 60.8748V28.4345H183.097V43.3983L175.099 51.4299C174.493 51.1719 173.809 51.1607 173.203 51.4187L154.964 33.0672C155.256 32.6185 155.424 32.0801 155.435 31.5304C155.435 29.8366 154.078 28.4681 152.395 28.4681C150.701 28.4681 149.344 29.8366 149.344 31.5304C149.344 33.2242 150.701 34.5928 152.395 34.5928C152.507 34.5703 152.631 34.5479 152.743 34.5254L171.285 53.1686C170.668 54.739 171.431 56.5113 173.001 57.1395C174.561 57.7564 176.333 56.9937 176.95 55.412C177.084 55.0531 177.163 54.6717 177.163 54.2903C177.152 53.9313 177.084 53.5836 176.95 53.2583L183.097 47.0776V123.31C182.087 121.426 181.257 119.451 180.595 117.41C179.889 114.269 178.363 111.364 176.187 108.997C173.798 107.068 170.803 106.069 167.752 106.17C162.098 106.496 156.635 108.302 151.89 111.397C154.224 119.429 159.653 129.267 168.245 129.614C168.357 129.614 168.458 129.626 168.559 129.626C171.644 129.267 174.594 128.156 177.152 126.395C178.946 125.397 182.413 123.95 183.108 123.669V165.353L176.961 159.183C177.084 158.847 177.152 158.499 177.163 158.14C177.185 156.457 175.839 155.066 174.157 155.044C172.474 155.021 171.094 156.379 171.072 158.073C171.072 158.488 171.139 158.891 171.296 159.262L152.563 178.107C152.507 178.107 152.451 178.073 152.395 178.073C150.713 178.073 149.355 179.441 149.355 181.135C149.367 182.594 150.41 183.839 151.846 184.085H139.607C141.043 183.839 142.098 182.594 142.109 181.135C142.109 179.901 141.38 178.802 140.258 178.32V168.942C141.772 168.213 142.423 166.385 141.705 164.859C140.976 163.333 139.159 162.683 137.644 163.412C136.13 164.141 135.48 165.97 136.197 167.495C136.512 168.134 137.027 168.65 137.667 168.953V178.454C136.197 179.195 135.592 180.989 136.332 182.47C136.758 183.334 137.566 183.928 138.508 184.085H119.585V149.749ZM179.889 122.368C178.576 122.951 177.028 123.658 175.974 124.252L175.368 124.589C173.327 125.969 171.005 126.855 168.559 127.18C168.492 127.18 168.413 127.18 168.346 127.18C164.801 126.821 161.605 124.869 159.653 121.886C157.544 119.048 155.906 115.896 154.807 112.542C158.744 110.208 163.186 108.874 167.752 108.627C170.242 108.537 172.676 109.333 174.628 110.893C176.31 112.766 177.488 115.054 178.06 117.511L178.296 118.218C178.745 119.519 179.261 120.955 179.889 122.379M174.19 184.085L177.982 180.283L174.089 176.357L170.186 180.283L173.977 184.085H152.956C154.392 183.839 155.435 182.605 155.446 181.135C155.435 180.53 155.244 179.946 154.885 179.464L173.214 161.023C173.82 161.281 174.516 161.27 175.11 161.012L183.108 169.043V184.085H174.19Z" fill="#604C8C"/>
<path d="M137.656 34.2786V43.5217C136.657 44.0264 136.018 45.0584 136.007 46.1914C136.007 47.8852 137.375 49.2649 139.058 49.2649C140.74 49.2649 142.109 47.8964 142.109 46.2026C142.109 44.9687 141.38 43.8582 140.258 43.3871V34.2786C141.772 33.5495 142.412 31.7211 141.694 30.1955C140.976 28.67 139.159 28.0194 137.633 28.7485C136.119 29.4664 135.48 31.2948 136.197 32.8204C136.5 33.4598 137.016 33.987 137.656 34.2786Z" fill="#604C8C"/>
<path d="M251.724 167.316V25.8545H183.086V186.665H251.724V167.316ZM249.167 184.085H248.404L245.14 169.234L245.072 168.897L245.398 168.808L249.167 167.921V184.085ZM244.848 166.429L242.178 167.069L242.773 169.761L245.914 184.085H230.243L233.283 169.783L233.855 167.091L231.185 166.474L227.125 165.532L223.064 166.497L220.394 167.125L220.978 169.817L224.107 184.085H208.47L211.499 169.851L212.071 167.147L209.401 166.53L191.959 162.515L195.705 144.915L196.277 142.223L193.608 141.606L192.138 141.269L191.79 139.777L191.162 137.096L188.481 137.691L185.654 138.319V126.339L199.508 123.265L199.844 123.187L199.923 123.523L201.448 130.007L201.796 131.488L203.277 131.824L209.727 133.316L210.063 133.395L209.996 133.731L206.249 151.331L205.745 153.687L208.089 154.225L215.661 155.975L216.21 156.098L216.76 155.975L224.32 154.18L226.665 153.619L226.138 151.264L222.29 133.686L222.212 133.361L222.548 133.271L227.035 132.217L231.522 133.249L231.858 133.327L231.78 133.664L228.033 151.252L227.54 153.619L229.873 154.158L237.445 155.908L237.994 156.031L238.555 155.908L246.104 154.113L248.449 153.552L247.922 151.196L244.074 133.619L243.996 133.282L244.332 133.215L249.178 132.06V165.386L244.848 166.407V166.429ZM227.753 184.085H226.609L223.367 169.301L223.288 168.965L223.625 168.886L227.125 168.045L230.636 168.864L230.972 168.931L230.905 169.267L227.753 184.085ZM185.654 140.832L189.008 140.091L189.334 140.013L189.412 140.349L189.76 141.83L190.108 143.322L191.588 143.658L193.058 143.995L193.394 144.073L193.316 144.41L189.569 161.999L189.065 164.365L191.409 164.904L208.852 168.92L209.188 168.998L209.121 169.335L205.98 184.085H185.654V140.832ZM198.969 113.304L201.65 113.888L202.256 111.196L203.423 106.125L202.234 101.066L201.605 98.3854L198.924 98.9799L185.666 101.919V88.5591L198.902 91.4083L201.583 91.9916L202.2 89.2994L203.681 82.8046L210.119 81.2791L212.789 80.6397L212.206 77.9475L208.347 60.3813L215.919 58.5865L223.479 60.3364L219.733 77.9251L219.16 80.6285L221.841 81.2342L226.878 82.4008L231.903 81.2118L234.573 80.5836L233.99 77.8915L230.131 60.314L237.691 58.5192L245.263 60.2691L241.517 77.869L240.944 80.5612L243.614 81.1781L249.178 82.4569V129.547L243.76 130.837L241.101 131.465L241.685 134.157L245.544 151.735L237.983 153.53L230.423 151.78L234.169 134.18L234.741 131.476L232.072 130.871L227.024 129.704L221.987 130.893L219.318 131.532L219.912 134.225L223.771 151.791L216.21 153.586L208.639 151.836L212.385 134.247L212.957 131.544L210.288 130.927L203.826 129.446L202.312 122.962L201.684 120.282L199.003 120.865L185.677 123.826V110.444L198.981 113.304H198.969ZM185.654 107.931V104.42L199.452 101.369L199.788 101.291L199.867 101.627L200.921 106.137L199.889 110.646L199.822 110.982L199.485 110.904L185.666 107.931H185.654ZM249.167 79.9442L244.153 78.7776L243.816 78.7103L243.883 78.3738L247.63 60.7739L248.135 58.4183L245.802 57.8798L238.23 56.1299L237.68 55.9953L237.119 56.1299L229.57 57.9247L227.226 58.4743L227.742 60.8412L231.6 78.4075L231.668 78.744L231.342 78.8225L226.856 79.8769L222.369 78.8449L222.032 78.7664L222.099 78.4411L225.846 60.8412L226.351 58.4856L224.018 57.9471L216.446 56.1972L215.896 56.0738L215.335 56.1972L207.786 57.992L205.442 58.5529L205.958 60.9085L209.816 78.4748L209.884 78.8113L209.558 78.8898L203.109 80.4266L201.639 80.7743L201.291 82.2662L199.811 88.761L199.732 89.0863L199.407 89.019L185.654 86.0576V74.1L188.279 74.6609L190.971 75.2442L191.588 72.552L191.925 71.0714L193.394 70.7236L196.064 70.0842L195.481 67.4033L191.622 49.8258L209.031 45.6979L211.701 45.0585L211.106 42.3663L208.067 28.4457H223.546L220.596 42.3327L220.024 45.036L222.694 45.6418L226.755 46.584L230.815 45.6193L233.485 44.9912L232.89 42.2878L229.851 28.4457H245.319L242.369 42.2654L241.797 44.9575L244.478 45.5745L249.167 46.6625V79.9554V79.9442ZM189.244 50.3418L193.092 67.9193L193.17 68.2446L192.834 68.3343L191.364 68.6821L189.883 69.0298L189.547 70.5217L189.21 72.0024L189.132 72.3389L188.795 72.2604L185.654 71.5873V28.4345H205.565L208.728 42.8823L208.807 43.2188L208.47 43.2974L191.061 47.4365L188.717 47.9862L189.244 50.353V50.3418ZM226.048 28.4345H227.36L230.512 42.815L230.58 43.1403L230.254 43.2301L226.743 44.0601L223.232 43.2525L222.907 43.174L222.974 42.8375L226.037 28.4457L226.048 28.4345ZM245.016 43.1852L244.691 43.1067L244.758 42.7702L247.809 28.4345H249.167V44.1387L245.016 43.1852Z" fill="#EA685A"/>
<path d="M210.848 117.747L211.252 119.755L213.226 120.282L214.404 120.585L215.145 120.787L215.885 120.63L223.389 119.093L224.747 118.812L225.487 117.646L225.891 117.018L226.261 117.668L226.945 118.88L228.269 119.228L235.683 121.179L236.413 121.381L237.164 121.224L238.353 120.989L240.35 120.574L240.866 118.599L241.18 117.41L241.371 116.67L241.225 115.918L239.688 108.38L239.408 107.023L238.252 106.272L237.624 105.868L238.275 105.498L239.475 104.813L239.823 103.467L241.763 96.019L241.954 95.2898L241.808 94.5383L241.561 93.338L241.158 91.3301L239.183 90.8141L238.005 90.5001L237.276 90.3094L236.525 90.4552L229.02 91.992L227.674 92.2724L226.934 93.439L226.53 94.0671L226.16 93.4165L225.487 92.2163L224.152 91.8573L216.738 89.9168L215.997 89.7148L215.257 89.8719L214.057 90.1187L212.06 90.5225L211.555 92.5079L211.241 93.6858L211.05 94.4261L211.207 95.1777L212.733 102.727L213.002 104.084L214.169 104.836L214.786 105.24L214.146 105.61L212.946 106.294L212.598 107.629L210.658 115.077L210.467 115.817L210.613 116.569L210.86 117.769L210.848 117.747ZM213.002 115.683L214.943 108.235L215.032 107.887L215.335 107.719L215.986 107.348L219.497 105.341L216.098 103.153L215.47 102.749L215.178 102.559L215.111 102.211L213.574 94.6729L213.541 94.4822L213.585 94.2915L213.9 93.1025L214.034 92.5977L214.539 92.4967L215.739 92.2499L215.93 92.2051L216.121 92.2612L223.524 94.2018L223.86 94.3027L224.04 94.6056L224.399 95.2562L226.396 98.7896L228.572 95.3684L228.976 94.7402L229.166 94.4485L229.503 94.37L237.007 92.8332L237.198 92.7996L237.389 92.8445L239.071 93.2932L239.172 93.8092L239.408 95.0094L239.452 95.2001L239.408 95.3908L237.467 102.839L237.366 103.176L237.063 103.355L236.413 103.725L232.902 105.722L236.3 107.909L236.917 108.313L237.22 108.504L237.288 108.852L238.813 116.39L238.858 116.58L238.802 116.771L238.499 117.96L238.364 118.465L237.86 118.566L236.659 118.801L236.48 118.846L236.289 118.79L228.875 116.849L228.538 116.748L228.37 116.446L228 115.795L226.014 112.262L223.827 115.672L223.434 116.3L223.232 116.603L222.896 116.67L215.391 118.207L215.201 118.24L215.01 118.196L213.327 117.747L213.226 117.242L212.98 116.031L212.946 115.84L212.991 115.649L213.002 115.683Z" fill="#EA685A"/>
<path d="M249.155 186.665H317.794V25.8545H249.155V186.665ZM279.812 107.595L262.952 124.544C262.694 124.454 262.436 124.41 262.167 124.387C261.797 124.387 261.427 124.466 261.079 124.611L251.724 115.2V98.1835L261.113 88.7386C261.247 88.8171 261.404 88.8844 261.55 88.9293C262.032 89.019 262.537 88.9853 263.008 88.8395L279.823 105.755C279.576 106.338 279.576 107.012 279.812 107.595ZM251.724 173.272L261.472 163.468C261.696 163.547 261.943 163.591 262.178 163.614C262.571 163.614 262.964 163.524 263.334 163.378L280.238 180.384C280.148 180.653 280.081 180.945 280.07 181.236C280.07 182.504 280.855 183.637 282.033 184.085H262.391L266.071 180.373L262.178 176.458L258.286 180.373L261.965 184.085H251.724V173.272ZM315.236 184.085H299.218C300.227 183.749 300.99 182.908 301.214 181.864C301.315 181.348 301.271 180.832 301.102 180.339L315.225 166.138V184.074L315.236 184.085ZM280.44 141.729L297.277 124.802C297.872 125.06 298.545 125.071 299.139 124.825L315.236 141.011V144.477L299.263 160.54C298.96 160.417 298.634 160.35 298.309 160.338C297.928 160.338 297.558 160.428 297.21 160.563L280.395 143.647C280.451 143.524 280.519 143.389 280.563 143.255C280.664 142.739 280.62 142.223 280.44 141.729ZM280.44 69.3888L297.21 52.518C297.513 52.6414 297.849 52.7087 298.175 52.7199C298.545 52.7199 298.926 52.6414 299.274 52.4955L315.236 68.5475V72.1258L299.195 88.2562C298.601 87.9982 297.939 87.987 297.344 88.245L280.474 71.2845C280.575 71.0153 280.631 70.7236 280.653 70.4432C280.642 70.073 280.563 69.7253 280.44 69.3888ZM298.859 28.4793C297.21 28.1428 295.595 29.1972 295.247 30.8574C295.146 31.3958 295.202 31.9567 295.404 32.4727L278.533 49.4444C278.219 49.321 277.894 49.2537 277.557 49.2425C275.875 49.2425 274.517 50.611 274.517 52.3048C274.517 53.9986 275.875 55.3672 277.557 55.3672C279.24 55.3672 280.608 53.9986 280.608 52.3048C280.597 51.9571 280.53 51.6206 280.406 51.2953L297.266 34.3348C297.378 34.3908 297.49 34.4357 297.602 34.4806C298.118 34.5703 298.657 34.5254 299.15 34.346L315.214 50.5101V64.8009L301.024 50.5325C301.125 50.2521 301.181 49.9604 301.203 49.6576C301.192 47.9638 299.823 46.5952 298.141 46.6065C296.47 46.6065 295.112 47.975 295.101 49.6576C295.112 50.0053 295.191 50.3418 295.314 50.6671L278.511 67.5603C278.219 67.4482 277.905 67.3921 277.591 67.3696C275.908 67.3584 274.529 68.7045 274.506 70.3983C274.495 72.0921 275.841 73.4831 277.524 73.4943C277.927 73.4943 278.331 73.427 278.713 73.2699L295.381 90.0285C295.247 90.3763 295.168 90.7465 295.168 91.1166C295.168 92.8104 296.526 94.1789 298.208 94.1789C299.891 94.1789 301.248 92.8104 301.248 91.1166C301.248 90.7689 301.17 90.4324 301.046 90.1071L315.214 75.8723V137.253L301.057 123.019C301.203 122.671 301.271 122.301 301.282 121.93C301.282 120.237 299.913 118.868 298.231 118.868C296.548 118.868 295.191 120.237 295.191 121.93C295.202 122.267 295.269 122.615 295.393 122.929L278.612 139.8C278.488 139.732 278.342 139.665 278.197 139.62C276.548 139.272 274.932 140.327 274.596 141.987C274.248 143.636 275.303 145.262 276.94 145.61C277.456 145.7 277.995 145.666 278.488 145.476L295.426 162.515C295.325 162.795 295.269 163.087 295.247 163.39C295.247 165.083 296.615 166.452 298.298 166.452C299.981 166.452 301.338 165.083 301.338 163.39C301.327 163.042 301.259 162.694 301.136 162.38L315.225 148.213V162.369L299.274 178.41C299.139 178.331 298.993 178.275 298.848 178.219C298.298 178.118 297.737 178.174 297.21 178.387L280.53 161.617C280.664 161.27 280.743 160.899 280.743 160.529C280.743 158.835 279.386 157.467 277.703 157.467C276.02 157.467 274.652 158.835 274.652 160.529C274.652 162.223 276.009 163.591 277.692 163.591C277.995 163.569 278.298 163.513 278.578 163.412L295.37 180.294C295.314 180.384 295.28 180.485 295.236 180.586C294.944 182.089 295.796 183.569 297.232 184.063H284.175C285.746 183.48 286.542 181.73 285.97 180.148C285.387 178.567 283.648 177.759 282.078 178.342C282.044 178.353 282.01 178.365 281.977 178.376L265.039 161.348C265.128 161.079 265.185 160.798 265.196 160.518C265.196 158.824 263.827 157.467 262.145 157.467C260.462 157.478 259.116 158.835 259.105 160.518C259.105 160.955 259.206 161.382 259.374 161.763L251.701 169.492V118.935L259.273 126.563C259.172 126.832 259.127 127.124 259.105 127.427C259.105 129.121 260.462 130.489 262.145 130.489C263.827 130.489 265.196 129.132 265.196 127.438C265.196 127.023 265.117 126.619 264.96 126.238L281.584 109.535C281.921 109.67 282.291 109.749 282.65 109.749C284.332 109.749 285.701 108.38 285.701 106.686C285.701 104.992 284.332 103.624 282.65 103.624C282.313 103.635 281.977 103.702 281.663 103.826L264.938 86.9999C265.016 86.8541 265.072 86.697 265.128 86.5288C265.476 84.8798 264.422 83.2533 262.773 82.9056C261.135 82.5578 259.52 83.6123 259.172 85.2724C259.082 85.766 259.116 86.282 259.273 86.7531L251.701 94.3696V43.3086L259.374 51.0149C258.69 52.5628 259.385 54.3688 260.933 55.0531C262.47 55.7261 264.265 55.0194 264.938 53.4714C265.117 53.09 265.196 52.6638 265.196 52.2375C265.185 51.9459 265.128 51.6655 265.027 51.3962L281.999 34.3235C282.123 34.3908 282.246 34.4357 282.381 34.4806C284.03 34.8283 285.634 33.7739 285.993 32.1137C286.329 30.4536 285.275 28.8383 283.637 28.4793C281.988 28.1316 280.373 29.1972 280.025 30.8462C279.935 31.3734 279.98 31.923 280.16 32.4278L263.278 49.3996C262.919 49.2537 262.537 49.1752 262.156 49.1752C261.909 49.1864 261.662 49.2425 261.427 49.3323L251.701 39.5508V28.4345H315.214V46.7635L301.024 32.5063C301.091 32.383 301.147 32.2483 301.192 32.1137C301.54 30.4648 300.485 28.8383 298.836 28.4906" fill="#B167A1"/>
<path d="M315.226 186.665H383.875V25.8545H315.226V186.665ZM381.307 32.2596C377.751 30.7116 374.094 29.4328 370.347 28.4345H381.307V32.2596ZM367.117 51.9347C370.201 54.2791 373.41 56.4328 376.764 58.3734C378.244 59.2371 379.77 60.0448 381.307 60.83V66.2816C376.326 68.7942 371.581 71.7556 367.139 75.1432C368.115 67.4257 368.104 59.6409 367.117 51.9347ZM378.054 56.1187C373.881 53.6958 369.921 50.9363 366.186 47.874L363.527 45.6866L364.088 49.0855C365.658 58.6538 365.67 68.4016 364.11 77.97L363.561 81.3576L366.219 79.1814C370.897 75.3788 375.945 72.0473 381.307 69.2766V79.8545C373.118 84.7789 365.883 91.1391 359.96 98.6434L357.919 101.235L361.16 100.741C368.104 99.6866 374.879 97.7124 381.307 94.8744V117.634C374.879 114.796 368.115 112.822 361.183 111.768L357.93 111.274L359.983 113.865C365.916 121.347 373.14 127.696 381.307 132.621V143.165C375.945 140.394 370.897 137.074 366.208 133.271L363.561 131.106L364.11 134.494C365.67 144.073 365.658 153.855 364.077 163.434L363.516 166.833L366.174 164.657C370.875 160.843 375.934 157.512 381.295 154.73V165.274C373.14 170.187 365.939 176.525 360.005 183.996L359.949 184.074H338.602L338.535 183.996C332.736 176.704 325.714 170.49 317.794 165.633V155.021C322.954 157.747 327.834 160.967 332.366 164.657L335.013 166.833L334.463 163.434C332.882 153.844 332.882 144.073 334.43 134.483L334.99 131.095L332.343 133.271C327.811 136.939 322.943 140.159 317.794 142.873V132.25C325.736 127.393 332.769 121.168 338.569 113.854L340.622 111.263L337.368 111.756C330.627 112.788 324.054 114.684 317.794 117.399V95.0763C324.054 97.8021 330.638 99.6978 337.391 100.73L340.633 101.223L338.591 98.6322C332.792 91.2961 325.747 85.0481 317.794 80.1798V69.557C322.943 72.2828 327.811 75.5022 332.332 79.1814L334.99 81.3576L334.43 77.9588C332.882 68.4016 332.893 58.6426 334.463 49.0855L335.013 45.6866L332.354 47.8628C328.63 50.9251 324.659 53.6846 320.498 56.1075C319.623 56.6235 318.703 57.0722 317.794 57.5433V46.8757C325.714 42.0186 332.736 35.793 338.524 28.5018L338.591 28.4232H359.96L360.027 28.5018C365.95 35.9725 373.152 42.3215 381.307 47.2346V57.8237C380.207 57.2629 379.108 56.7244 378.054 56.1075V56.1187ZM381.307 82.8495V92.0364C375.844 94.5379 370.101 96.4 364.211 97.5666C369.158 91.8458 374.913 86.8877 381.307 82.8495ZM381.307 120.461V129.525C374.946 125.531 369.192 120.607 364.245 114.931C370.123 116.109 375.855 117.96 381.307 120.461ZM367.139 137.321C371.581 140.697 376.326 143.647 381.307 146.16V151.746C376.315 154.259 371.57 157.22 367.117 160.608C368.115 152.879 368.115 145.049 367.139 137.321ZM381.307 168.37V177.411C375.866 179.913 370.145 181.752 364.279 182.93C369.226 177.265 374.958 172.363 381.307 168.37ZM334.273 182.93C328.597 181.786 323.066 180.014 317.794 177.636V168.729C323.93 172.655 329.472 177.434 334.273 182.919V182.93ZM331.435 160.608C327.138 157.355 322.584 154.494 317.794 152.049V145.868C322.573 143.423 327.138 140.574 331.412 137.332C330.436 145.061 330.447 152.879 331.435 160.608ZM317.794 129.177V120.248C323.089 117.859 328.619 116.086 334.306 114.942C329.505 120.45 323.941 125.251 317.794 129.177ZM317.794 92.272V83.2084C323.964 87.1794 329.539 92.014 334.34 97.5778C328.641 96.4336 323.089 94.6613 317.794 92.272ZM331.412 75.1432C327.138 71.8902 322.573 69.0298 317.794 66.5844V60.5383C319.152 59.8429 320.486 59.1362 321.799 58.3846C325.142 56.4328 328.35 54.2903 331.423 51.9347C330.436 59.6409 330.436 67.437 331.412 75.1432ZM317.794 43.8021V34.8732C323.066 32.4951 328.597 30.7228 334.261 29.5898C329.472 35.0863 323.93 39.8761 317.794 43.8021ZM364.29 29.5786C370.157 30.7564 375.866 32.6073 381.307 35.1087V44.1611C374.958 40.1565 369.226 35.2434 364.29 29.5786ZM328.226 28.4345C324.671 29.3879 321.182 30.5994 317.794 32.0464V28.4345H328.226ZM317.794 180.473C321.193 181.921 324.671 183.121 328.226 184.085H317.794V180.473ZM370.336 184.085C374.083 183.087 377.751 181.808 381.307 180.249V184.085H370.336ZM350.493 34.0431L349.281 30.9359L348.07 34.0431C346.97 36.8699 346.017 39.7415 345.243 42.6692C340.722 59.3717 341.721 77.0838 348.081 93.1694L349.281 96.2317L350.493 93.1694C356.853 77.0838 357.84 59.3717 353.319 42.6692C352.534 39.7415 351.592 36.8586 350.493 34.0431ZM349.281 88.9517C344.211 74.2458 343.684 58.3622 347.733 43.3534C348.182 41.6933 348.687 40.0107 349.281 38.2945C349.853 39.9883 350.369 41.6821 350.818 43.3534C354.867 58.3622 354.34 74.2458 349.281 88.9517ZM349.281 116.288L348.07 119.339C341.71 135.425 340.711 153.148 345.232 169.851C346.017 172.767 346.97 175.661 348.07 178.477L349.27 181.595L350.481 178.477C351.592 175.661 352.534 172.778 353.319 169.851C357.84 153.159 356.842 135.425 350.481 119.339L349.281 116.288ZM350.818 169.178C350.369 170.838 349.853 172.532 349.281 174.225C348.687 172.52 348.193 170.849 347.733 169.178C343.684 154.158 344.211 138.274 349.281 123.568C354.34 138.263 354.867 154.158 350.818 169.166" fill="#DAA622"/>
<path d="M381.295 186.665H449.934V25.8545H381.295V186.665ZM444.415 97.9592C438.492 102.323 431.403 104.79 424.067 105.071C424.291 98.6434 426.164 92.4066 429.518 86.9326C434.79 91.24 439.872 94.9193 444.415 97.9592ZM421.464 105.082H421.453C409.484 104.701 398.435 98.5312 391.795 88.503C394.24 78.9347 398.626 69.9721 404.672 62.1873C408.138 66.405 411.896 70.6339 415.889 74.6384C419.748 78.5084 423.663 82.0306 427.488 85.25C423.775 91.2064 421.689 98.0489 421.464 105.082ZM427.465 127.55C423.674 130.758 419.782 134.281 415.968 138.128C411.963 142.166 408.194 146.44 404.706 150.692C398.637 142.884 394.229 133.888 391.783 124.286C398.424 114.247 409.484 108.066 421.453 107.685H421.464C421.677 114.729 423.753 121.583 427.465 127.55ZM404.638 58.0705C400.555 52.9667 397.112 48.1096 394.318 43.8919C395.642 42.299 397.1 40.8408 398.671 39.4947C402.888 42.299 407.712 45.7539 412.805 49.837C409.877 52.3609 407.14 55.1204 404.638 58.0705ZM392.849 41.6372C390.448 37.8906 388.62 34.761 387.386 32.5512C389.585 33.7851 392.703 35.6135 396.427 38.014C395.16 39.147 393.959 40.3472 392.849 41.626M402.978 60.1008C397.055 67.594 392.613 76.164 389.921 85.3509C383.258 72.8212 384.313 57.5657 392.625 46.0793C395.552 50.4091 399.041 55.1989 402.978 60.1008ZM390.953 91.756C396.304 98.9239 403.898 104.084 412.513 106.383C403.887 108.683 396.293 113.843 390.942 121.022C388.957 111.364 388.968 101.414 390.953 91.756ZM389.91 127.438C392.613 136.648 397.067 145.251 403.012 152.767C399.097 157.68 395.631 162.47 392.726 166.8C384.335 155.313 383.236 140.013 389.91 127.438ZM392.939 171.242C394.06 172.509 395.261 173.709 396.528 174.831C392.815 177.232 389.708 179.06 387.521 180.294C388.743 178.084 390.561 174.966 392.939 171.23M394.408 168.976C397.19 164.758 400.6 159.912 404.661 154.808C407.162 157.747 409.899 160.496 412.827 163.031C407.757 167.114 402.945 170.557 398.76 173.362C397.19 172.027 395.732 170.557 394.397 168.987M406.31 152.756C409.731 148.572 413.556 144.242 417.796 139.968C421.487 136.255 425.233 132.845 428.913 129.738C431.358 133.137 434.319 136.132 437.673 138.611C434.6 142.312 431.212 146.07 427.533 149.794C423.293 154.057 418.996 157.916 414.846 161.359C411.761 158.734 408.912 155.863 406.298 152.756M424.044 107.707C431.369 107.976 438.458 110.444 444.392 114.796C439.917 117.814 434.813 121.538 429.485 125.89C426.131 120.405 424.246 114.134 424.044 107.707ZM428.924 83.0851C425.222 79.9667 421.442 76.5342 417.706 72.7988C413.5 68.5587 409.686 64.2737 406.276 60.1121C408.878 57.0161 411.739 54.1333 414.824 51.5084C418.974 54.9409 423.248 58.766 427.477 62.9949C431.19 66.719 434.588 70.5105 437.684 74.2234C434.33 76.7024 431.369 79.6974 428.935 83.0851M414.801 48.1432C409.922 44.206 405.154 40.7062 400.858 37.7785C412.232 29.3879 427.376 28.2662 439.838 34.8956C430.73 37.6551 422.227 42.1532 414.801 48.1432ZM416.977 28.4345C410.281 29.4104 403.943 32.1025 398.57 36.2529C394.217 33.1794 389.574 30.5545 384.694 28.4345H416.977ZM383.853 31.3397C385.984 35.6472 388.407 39.7976 391.099 43.7909C387.543 48.491 385.064 53.9313 383.853 59.7082V31.3397ZM383.853 76.1528C384.817 80.6733 386.556 84.992 389.001 88.918C386.152 100.393 386.141 112.396 388.99 123.871C386.556 127.786 384.817 132.093 383.853 136.614V76.1528ZM383.853 153.047C385.075 158.891 387.577 164.365 391.189 169.099C388.441 173.171 385.984 177.422 383.853 181.831V153.047ZM385.793 184.085C390.258 181.909 394.554 179.397 398.66 176.581C403.595 180.361 409.338 182.941 415.452 184.085H385.793ZM400.948 175.044C405.222 172.128 409.978 168.639 414.824 164.713C422.216 170.681 430.674 175.156 439.748 177.916C427.331 184.478 412.277 183.368 400.948 175.044ZM447.365 184.085H429.518C434.409 183.222 439.087 181.449 443.327 178.847C444.65 179.172 446.008 179.408 447.365 179.666V184.085ZM447.365 177.12C446.972 177.041 446.58 176.985 446.187 176.895C446.602 176.592 446.961 176.222 447.365 175.897V177.12ZM447.365 172.52C445.974 173.81 444.482 174.988 442.912 176.054C433.433 173.541 424.571 169.099 416.876 163.008C421.105 159.497 425.345 155.683 429.372 151.634C433.175 147.798 436.652 143.916 439.816 140.102C442.194 141.583 444.729 142.806 447.365 143.748V172.52ZM447.365 140.977C445.323 140.192 443.36 139.216 441.498 138.083C443.63 135.436 445.548 132.89 447.365 130.388V140.977ZM447.365 125.935C444.987 129.311 442.317 132.89 439.322 136.591C436.08 134.225 433.242 131.353 430.92 128.078C436.54 123.467 441.913 119.586 446.557 116.479C446.838 116.726 447.085 117.029 447.365 117.298V125.935ZM447.365 112.844C447.129 112.99 446.927 113.125 446.692 113.271C442.542 110.074 437.808 107.729 432.749 106.383C437.808 105.037 442.564 102.693 446.714 99.4847C446.939 99.6305 447.141 99.7539 447.365 99.8885V112.844ZM447.365 95.4801C447.096 95.7382 446.86 96.0298 446.58 96.2766C441.184 92.687 435.968 88.8395 430.954 84.734C433.276 81.4698 436.114 78.5981 439.345 76.2425C442.351 79.933 445.009 83.5001 447.365 86.8428V95.4801ZM447.365 82.4345C445.548 79.9554 443.641 77.4203 441.498 74.7731C443.36 73.6289 445.323 72.6642 447.365 71.879V82.4345ZM439.849 72.7427C436.664 68.9176 433.153 65.0028 429.316 61.1665C425.312 57.1395 421.072 53.348 416.865 49.8595C424.594 43.7348 433.489 39.2928 443.001 36.7801C444.538 37.8345 445.996 38.9899 447.365 40.2463V69.0971C444.74 70.0394 442.216 71.262 439.849 72.7427ZM447.365 36.8699C446.995 36.567 446.647 36.2193 446.266 35.9388C446.625 35.8603 446.995 35.793 447.365 35.7257V36.8699ZM447.365 33.1906C446.041 33.4374 444.706 33.6617 443.416 33.987C438.84 31.1378 433.747 29.2533 428.43 28.4457H447.365V33.1906Z" fill="#03887E"/>
<path d="M447.376 186.665H516.015V25.8545H447.376V186.665ZM449.945 122.918L461.622 134.651L449.945 146.395V122.918ZM449.945 150.131L463.473 136.524L472.043 145.139L449.945 167.372V150.131ZM465.335 134.651L472.66 127.292V142.021L465.335 134.651ZM456.563 184.085L473.972 166.575C476.844 169.525 485.661 178.589 491 184.085H456.563ZM494.668 184.085C488.936 178.196 475.004 163.861 474.903 163.771L473.983 162.829L452.85 184.085H449.945V171.107L473.905 147.012L510.787 184.085H494.668ZM513.457 183.042L475.767 145.15L484.337 136.524L513.457 165.812V183.042ZM475.285 141.897V127.427L482.475 134.651L475.285 141.886V141.897ZM513.457 80.2695L506.727 73.4943C506.973 72.8998 506.985 72.2267 506.738 71.621L513.457 64.8682V80.2695ZM513.457 61.1441L504.966 69.6804C504.618 69.5346 504.248 69.4673 503.866 69.4561C502.184 69.4561 500.826 70.8246 500.826 72.5184C500.826 74.2122 502.184 75.5807 503.866 75.5807C504.214 75.5695 504.55 75.5022 504.876 75.3788L513.457 83.9937V101.347L507.029 94.8856C507.142 94.5716 507.22 94.235 507.22 93.8985C507.22 92.2047 505.863 90.8362 504.18 90.8362C502.498 90.8362 501.14 92.2047 501.129 93.8985C501.129 95.5811 502.498 96.9608 504.18 96.9608C504.517 96.9496 504.865 96.8823 505.179 96.7589L513.457 105.071V126.137L505.919 133.72C505.571 133.574 505.201 133.507 504.82 133.496C503.137 133.496 501.78 134.864 501.78 136.558C501.78 138.252 503.137 139.62 504.82 139.62C506.502 139.62 507.871 138.252 507.871 136.558C507.848 136.255 507.792 135.952 507.691 135.66L513.446 129.872V162.066L486.177 134.651L502.823 117.937L500.961 116.064L484.326 132.789L475.756 124.174L493.558 106.282L491.707 104.409L475.273 120.921V103.254L493.423 85.0032L491.572 83.1299L475.273 99.5184V82.2101L493.277 64.1054L491.426 62.2321L473.905 79.8433H473.894L456.529 62.4004L454.678 64.2625L472.649 82.3335V99.6305L456.428 83.3318L454.577 85.2051L472.649 103.366V121.044L456.574 104.88L454.712 106.754L472.032 124.163L463.462 132.778L449.934 119.171V41.9962L457.572 34.3123C457.707 34.3908 457.842 34.4469 457.999 34.4918C459.648 34.8395 461.252 33.7851 461.599 32.125C461.947 30.4648 460.893 28.8495 459.244 28.4906C457.595 28.154 455.991 29.2085 455.643 30.8686C455.542 31.3734 455.587 31.9118 455.755 32.3942L449.922 38.2608V28.4345H513.435V61.1328L513.457 61.1441Z" fill="#CF3D28"/>
<path d="M251.78 291.895C253.115 291.491 254.36 290.852 255.459 290.01C256.356 289.293 257.209 288.294 257.983 287.038C258.746 285.793 259.127 284.166 259.127 282.192C259.127 280.038 258.454 278.21 257.13 276.752C255.796 275.293 254.012 274.273 251.802 273.745C250.692 273.499 249.368 273.33 247.876 273.252C246.373 273.162 244.758 273.128 243.086 273.128C242.01 273.128 240.978 273.14 240.013 273.173C239.059 273.207 238.229 273.241 237.545 273.274C236.816 273.297 236.154 273.33 235.56 273.364V289.135H117.419V293.802H235.56V309.528H242.133V292.949H244.892L255.65 309.607H263.681L251.421 292.007L251.78 291.895ZM249.267 289.349C248.74 289.595 248.258 289.775 247.831 289.876C247.394 289.977 246.956 290.044 246.541 290.078C246.115 290.111 245.498 290.123 244.702 290.123H243.636C243.311 290.123 242.503 290.055 242.335 290.01L242.133 289.966V276.337H242.402C242.526 276.337 242.683 276.314 242.873 276.292C243.086 276.292 243.322 276.28 243.602 276.269C243.905 276.247 244.275 276.247 244.735 276.247C245.79 276.247 246.788 276.337 247.685 276.538C248.605 276.74 249.413 277.111 250.108 277.627C250.793 278.154 251.342 278.872 251.724 279.758C252.094 280.633 252.285 281.743 252.285 283.067C252.285 284.278 252.128 285.299 251.825 286.118C251.522 286.926 251.152 287.61 250.725 288.137C250.288 288.676 249.794 289.079 249.256 289.337L249.267 289.349Z" fill="#405378"/>
<path d="M281.304 272.601C278.679 272.601 276.312 273.05 274.237 273.913C272.173 274.788 270.39 276.056 268.954 277.705C267.518 279.365 266.396 281.418 265.633 283.807C264.871 286.208 264.478 288.967 264.478 292.029C264.478 297.885 265.947 302.417 268.842 305.501C271.736 308.586 275.965 310.145 281.405 310.145C284.03 310.145 286.397 309.708 288.472 308.833C290.536 307.969 292.297 306.702 293.721 305.064C295.146 303.426 296.257 301.385 297.019 298.995C297.782 296.606 298.175 293.835 298.175 290.773C298.175 284.918 296.716 280.375 293.834 277.279C290.951 274.171 286.733 272.601 281.293 272.601H281.304ZM288.629 302.248C287.07 304.66 284.624 305.883 281.36 305.883C278.085 305.883 275.549 304.682 274.013 302.293C272.498 299.96 271.724 296.326 271.724 291.502C271.724 286.679 272.51 282.921 274.058 280.52C275.628 278.098 278.085 276.864 281.36 276.864C284.624 276.864 287.159 278.075 288.674 280.476C290.177 282.831 290.928 286.477 290.928 291.3C290.928 296.124 290.154 299.87 288.629 302.248Z" fill="#405378"/>
<path d="M318.624 289.596L314.047 286.937C312.544 286.062 311.4 285.266 310.626 284.581C309.807 283.841 309.381 282.854 309.381 281.631C309.381 280.599 309.616 279.769 310.065 279.163C310.514 278.569 311.063 278.109 311.725 277.806C312.376 277.492 313.071 277.29 313.812 277.2C314.541 277.122 315.18 277.066 315.741 277.066C316.863 277.066 317.872 277.144 318.758 277.313C319.622 277.47 320.363 277.638 320.968 277.817C321.518 277.986 322.034 278.199 322.494 278.423L323.918 274.149C323.358 273.925 322.685 273.712 321.922 273.544C321.137 273.364 320.138 273.207 318.983 273.05C317.816 272.893 316.437 272.814 314.855 272.814C311.063 272.814 308.113 273.689 306.094 275.383C304.086 277.088 303.077 279.612 303.077 282.888C303.077 284.133 303.256 285.232 303.604 286.152C303.952 287.083 304.423 287.913 305.006 288.608C305.601 289.326 306.262 289.966 306.992 290.504C307.732 291.054 308.495 291.559 309.269 291.996L314.675 295.238C315.988 296.057 316.952 296.831 317.558 297.549C318.186 298.289 318.5 299.265 318.5 300.443C318.5 302.417 317.805 303.819 316.414 304.604C315.079 305.356 313.273 305.737 311.052 305.737C309.83 305.737 308.73 305.647 307.777 305.468C306.835 305.3 306.027 305.098 305.354 304.896C304.703 304.683 304.109 304.447 303.57 304.178L302.09 308.441C302.819 308.71 303.66 308.957 304.569 309.17C305.455 309.372 306.554 309.562 307.81 309.731C309.078 309.91 310.57 310 312.252 310C316.38 310 319.577 309.046 321.731 307.162C323.874 305.288 324.962 302.63 324.962 299.242C324.962 296.943 324.434 295.058 323.38 293.634C322.314 292.187 320.71 290.829 318.601 289.607L318.624 289.596Z" fill="#405378"/>
<path d="M353.936 289.27H338.523V273.229H331.692V309.573H338.523V293.634H353.936V309.573H360.767V273.229H353.936V289.27Z" fill="#405378"/>
<path d="M276.559 294.172H287.137L281.843 287.789L276.559 294.172Z" fill="#405378"/>
<path d="M515.566 289.124H398.02V273.229H393.006V300.229L391.166 297.246C391.043 297.021 390.897 296.775 390.74 296.505L389.63 294.744L376.068 273.229H369.584V309.562H374.587V282.405L391.851 309.562H398.031V293.791H515.566V289.124Z" fill="#405378"/>
</g>
<defs>
<clipPath id="clip0_176_848">
<rect width="402.027" height="284.291" fill="white" transform="translate(115.478 25.8547)"/>
</clipPath>
</defs>
</svg>
