<svg width="632" height="336" viewBox="0 0 632 336" fill="none" xmlns="http://www.w3.org/2000/svg">
<g clip-path="url(#clip0_247_565)">
<rect x="145.433" y="96.6069" width="147.716" height="148.818" fill="white"/>
<path d="M390.149 136.003H401.166V150.648C401.166 152.439 401.356 154.038 401.672 155.445C401.989 156.852 402.559 158.003 403.382 158.962C404.205 159.922 405.345 160.625 406.864 161.137C408.321 161.648 410.283 161.904 412.563 161.904C414.779 161.904 416.615 161.648 418.008 161.201C419.401 160.689 420.541 159.922 421.364 158.898C422.187 157.811 422.757 156.468 423.073 154.741C423.39 153.015 423.58 150.904 423.58 148.41V97.1841H434.597V150.073C434.597 153.654 434.217 156.724 433.394 159.282C432.571 161.84 431.304 163.887 429.531 165.549C427.759 167.148 425.479 168.363 422.693 169.131C419.907 169.898 416.552 170.282 412.626 170.282C408.574 170.282 405.091 169.834 402.242 169.003C399.393 168.171 397.114 166.956 395.341 165.358C393.568 163.759 392.238 161.84 391.415 159.602C390.592 157.363 390.212 154.805 390.212 151.991V136.003H390.149Z" fill="black"/>
<path d="M461.063 162.16C463.215 162.16 464.735 161.648 465.685 160.625C466.634 159.601 467.141 158.067 467.267 155.892H463.152C460.429 155.892 457.77 155.636 455.301 155.189C452.831 154.741 450.615 153.846 448.779 152.631C446.943 151.416 445.423 149.625 444.347 147.45C443.271 145.212 442.701 142.334 442.701 138.753C442.701 134.852 443.397 131.718 444.79 129.288C446.183 126.922 447.956 125.067 450.046 123.788C452.135 122.509 454.351 121.678 456.757 121.294C459.163 120.91 461.316 120.654 463.342 120.654C464.482 120.654 465.748 120.654 467.267 120.718C468.724 120.782 470.18 120.846 471.636 120.91C473.029 120.974 474.422 121.038 475.689 121.102C476.955 121.166 477.968 121.23 478.728 121.294V153.462C478.728 156.084 478.474 158.386 478.031 160.433C477.525 162.479 476.638 164.27 475.372 165.677C474.106 167.084 472.333 168.235 470.053 169.002C467.774 169.77 464.925 170.154 461.442 170.154H448.209V162.16H461.063ZM453.845 138.497C453.845 141.759 454.541 144.125 455.934 145.532C457.327 146.939 459.67 147.706 462.962 147.706H467.394V129.416C466.444 129.352 465.558 129.352 464.672 129.352C463.785 129.352 463.215 129.352 462.835 129.352C461.759 129.352 460.683 129.48 459.67 129.672C458.593 129.863 457.643 130.311 456.757 130.951C455.871 131.59 455.174 132.549 454.604 133.765C454.098 134.98 453.845 136.578 453.845 138.497Z" fill="black"/>
<path d="M486.516 155.893V147.707H500.699V111.254H511.652V147.707H524.126V97.1204H535.079V155.893H486.516ZM514.375 104.603H498.039V99.8065H501.458C501.142 98.7193 500.952 97.8879 500.825 97.3123C500.699 96.7367 500.699 96.2251 500.699 95.7135C500.699 93.5391 501.458 91.8124 502.978 90.5333C504.498 89.2543 506.714 88.6147 509.626 88.6147C510.069 88.6147 510.639 88.6147 511.336 88.6787C512.032 88.6787 512.665 88.7426 513.109 88.8066V93.4112C512.855 93.4112 512.475 93.4112 511.906 93.3472C511.399 93.2833 510.956 93.2833 510.703 93.2833C509.626 93.2833 508.613 93.4751 507.79 93.7949C506.967 94.1786 506.524 95.01 506.524 96.417C506.524 96.8646 506.587 97.3123 506.65 97.8239C506.714 98.3355 506.904 98.9751 507.157 99.7425H514.438V104.603H514.375Z" fill="black"/>
<path d="M558 97.1201V155.893H546.793V97.1201H558Z" fill="black"/>
<path d="M438.839 227.584C438.839 230.973 438.08 233.915 436.623 236.281C435.167 238.647 433.268 240.63 430.925 242.101C428.582 243.572 425.986 244.659 423.074 245.362C420.161 246.066 417.249 246.386 414.4 246.386C411.234 246.386 408.195 246.066 405.472 245.362C402.686 244.659 400.217 243.572 398.127 242.037C396.038 240.502 394.328 238.519 393.125 236.025C391.859 233.531 391.226 230.525 391.163 226.944H403.889C404.016 230.142 404.965 232.636 406.738 234.426C408.511 236.217 411.17 237.112 414.653 237.112C415.919 237.112 417.249 236.921 418.515 236.601C419.781 236.281 420.984 235.769 422.061 235.002C423.137 234.299 423.96 233.403 424.657 232.316C425.353 231.229 425.67 229.95 425.67 228.479C425.67 227.328 425.417 226.368 424.91 225.537C424.403 224.77 423.707 224.066 422.821 223.427C421.934 222.851 420.794 222.275 419.528 221.828C418.198 221.38 416.742 220.932 415.096 220.421L410.854 219.206C408.511 218.566 406.295 217.799 404.079 216.903C401.863 216.008 399.9 214.921 398.191 213.642C396.481 212.363 395.088 210.764 394.012 208.909C392.935 207.055 392.429 204.816 392.429 202.066C392.429 198.741 393.125 195.991 394.518 193.689C395.911 191.386 397.684 189.596 399.9 188.189C402.116 186.782 404.586 185.822 407.371 185.247C410.157 184.671 412.943 184.352 415.666 184.352C418.515 184.352 421.238 184.607 423.834 185.183C426.43 185.759 428.646 186.654 430.608 188.061C432.571 189.404 434.091 191.195 435.294 193.369C436.433 195.543 437.067 198.293 437.067 201.619H424.403C424.15 198.869 423.2 196.758 421.681 195.287C420.161 193.817 417.882 193.049 414.843 193.049C413.64 193.049 412.5 193.241 411.424 193.561C410.347 193.881 409.334 194.392 408.448 195.032C407.561 195.671 406.865 196.503 406.295 197.462C405.725 198.485 405.472 199.636 405.472 200.915C405.472 202.002 405.725 202.962 406.232 203.665C406.738 204.433 407.435 205.072 408.448 205.712C409.461 206.287 410.727 206.927 412.247 207.438C413.766 208.014 415.603 208.59 417.629 209.229L422.504 210.828C424.973 211.659 427.253 212.491 429.279 213.45C431.305 214.345 433.014 215.433 434.471 216.712C435.927 217.991 437.003 219.462 437.763 221.188C438.46 222.979 438.839 225.089 438.839 227.584Z" fill="black"/>
<path d="M490.252 245.362L485.187 231.612H459.417L454.352 245.362H441.689L465.622 185.63H480.058L504.372 245.362H490.252ZM472.397 194.839L462.52 222.85H481.895L472.397 194.839Z" fill="black"/>
<path d="M557.177 228.607C557.177 231.996 556.417 234.81 554.96 236.921C553.504 239.095 551.605 240.758 549.325 241.973C547.046 243.188 544.513 244.084 541.791 244.531C539.005 244.979 536.346 245.235 533.75 245.235H510.703V185.503H531.027C532.863 185.503 534.826 185.503 536.852 185.567C538.878 185.567 540.778 185.823 542.551 186.27C546.096 187.102 549.072 188.701 551.478 191.067C553.884 193.433 555.024 196.631 555.024 200.66C555.024 204.497 553.947 207.503 551.795 209.549C549.642 211.66 546.793 213.13 543.374 214.09C545.4 214.473 547.236 215.049 548.882 215.753C550.528 216.456 551.985 217.415 553.188 218.566C554.391 219.718 555.34 221.125 556.037 222.787C556.797 224.514 557.177 226.433 557.177 228.607ZM542.424 202.386C542.424 200.852 542.107 199.573 541.474 198.549C540.841 197.526 540.081 196.759 539.068 196.183C538.118 195.607 536.979 195.224 535.776 194.968C534.509 194.712 533.243 194.584 531.977 194.584H523.049V210.508H531.154C532.547 210.508 533.94 210.444 535.269 210.189C536.599 209.997 537.802 209.613 538.878 209.038C539.955 208.462 540.778 207.631 541.411 206.607C542.107 205.52 542.424 204.113 542.424 202.386ZM544.133 227.712C544.133 225.921 543.817 224.514 543.247 223.363C542.677 222.212 541.854 221.316 540.841 220.677C539.828 220.037 538.688 219.59 537.359 219.334C536.029 219.078 534.636 218.95 533.116 218.95H523.049V236.345H532.357C533.813 236.345 535.269 236.217 536.726 236.025C538.182 235.834 539.385 235.386 540.524 234.746C541.601 234.107 542.487 233.212 543.184 232.124C543.754 230.973 544.133 229.502 544.133 227.712Z" fill="black"/>
<path fill-rule="evenodd" clip-rule="evenodd" d="M219.386 171.048L145.433 96.6069H293.149L219.766 170.664L219.386 171.048Z" fill="#E30613"/>
<path fill-rule="evenodd" clip-rule="evenodd" d="M219.386 171.048L145.433 245.425H293.149L219.766 171.368L219.386 171.048Z" fill="#E30613"/>
<path fill-rule="evenodd" clip-rule="evenodd" d="M71.8237 171.212L145.433 96.6069V245.434L72.1397 171.531L71.8237 171.212Z" fill="#E30613"/>
<path fill-rule="evenodd" clip-rule="evenodd" d="M366.628 171.208L293.149 96.6069V245.425L366.312 171.527L366.628 171.208Z" fill="#E30613"/>
</g>
<defs>
<clipPath id="clip0_247_565">
<rect width="485" height="157.771" fill="white" transform="translate(73 88.6143)"/>
</clipPath>
</defs>
</svg>
