<svg width="632" height="336" viewBox="0 0 632 336" fill="none" xmlns="http://www.w3.org/2000/svg">
<g clip-path="url(#clip0_176_851)">
<path d="M291.094 130.73C305.915 145.562 329.902 145.546 344.63 130.812C359.307 116.123 359.307 92.1265 344.486 77.2946C329.856 62.6521 305.92 62.688 291.243 77.3768C276.514 92.1163 276.464 116.088 291.094 130.73Z" fill="#FFD400"/>
<path d="M289.411 69.7756C287.856 71.3312 287.856 73.8726 289.411 75.4231L280.444 66.4488C273.656 59.6564 273.656 48.5463 280.444 41.7591L317.892 4.26001L355.366 41.7643C362.148 48.5463 362.148 59.6564 355.366 66.4488L346.394 75.4231C347.943 73.8726 347.943 71.3312 346.394 69.7756L317.892 41.2508L289.411 69.7756Z" fill="#272422"/>
<path d="M313.347 162.433C316.389 165.483 317.908 169.498 317.902 173.518L317.923 173.497C317.913 169.482 319.431 165.463 322.478 162.418L380.719 104.126L352.479 75.8632L370.962 57.3704L401.823 88.257C410.544 96.9846 410.539 111.268 401.823 120.001L317.902 203.984L233.987 120.001C225.26 111.268 225.265 96.9846 233.987 88.257L264.848 57.3704L283.327 75.8632L255.086 104.126L313.347 162.433Z" fill="#272422"/>
<path d="M246.094 306.12C246.7 306.12 247.202 305.895 247.608 305.514C248.095 305.104 248.228 304.575 248.228 303.995C248.228 303.373 248.095 302.824 247.608 302.429C247.202 301.967 246.7 301.777 246.094 301.777C245.417 301.777 244.94 302.013 244.556 302.429C244.109 302.86 243.94 303.373 243.94 303.995C243.94 304.575 244.109 305.104 244.556 305.514C244.94 305.895 245.417 306.12 246.094 306.12Z" fill="#272422"/>
<path d="M196.179 328.676C195.63 328.676 195.23 328.445 195.061 327.906C194.937 327.623 194.892 327.038 194.892 326.268V317.863C194.892 316.102 194.594 314.686 194.122 313.7C193.178 311.97 191.331 311.082 188.618 311.082C186.314 311.082 184.59 311.631 183.359 312.683C182.169 313.726 181.563 314.742 181.563 315.712C181.563 316.2 181.754 316.673 181.995 317.093C182.421 317.499 182.831 317.679 183.487 317.679C183.908 317.679 184.155 317.586 184.544 317.422C185.016 317.099 185.304 316.544 185.304 315.779C185.304 315.707 185.247 315.435 185.181 315.045C185.144 314.64 185.114 314.331 185.114 314.188C185.114 313.531 185.421 312.992 186.078 312.617C186.694 312.263 187.376 312.118 188.125 312.118C189.526 312.118 190.51 312.565 190.946 313.5C191.28 314.059 191.46 315.045 191.46 316.452V318.208C187.597 319.65 185.057 320.775 183.785 321.586C181.81 322.988 180.764 324.641 180.764 326.679C180.764 327.947 181.23 329.03 182.092 329.903C182.943 330.699 183.985 331.1 185.171 331.1C186.314 331.1 187.484 330.755 188.74 330.016C189.51 329.559 190.439 328.882 191.531 327.968C191.567 328.784 191.762 329.534 192.162 330.114C192.598 330.699 193.265 331.002 194.204 331.002C195.03 331.002 195.763 330.755 196.549 330.221C197.071 329.903 197.559 329.472 198.016 328.897V327.891C197.497 328.235 197.128 328.481 196.943 328.553C196.707 328.65 196.472 328.676 196.179 328.676ZM191.46 325.883C191.46 326.679 190.946 327.336 190.187 327.86C189.346 328.398 188.469 328.625 187.525 328.625C186.904 328.625 186.247 328.445 185.74 328.06C184.893 327.408 184.478 326.469 184.478 325.211C184.478 323.629 185.493 322.207 187.463 321C188.525 320.364 189.798 319.773 191.46 319.234V325.883Z" fill="#272422"/>
<path d="M485.453 318.344C484.078 317.246 482.375 316.445 480.451 316.004C482 315.587 483.206 315.1 483.996 314.478C485.376 313.477 486.089 311.953 486.089 309.93C486.089 307.275 485.14 305.366 483.113 304.262C481.108 303.184 478.373 302.624 475.024 302.624H463.122V303.409C464.799 303.471 465.887 303.774 466.431 304.226C466.877 304.693 467.17 305.669 467.17 307.275V326.117C467.17 327.73 466.877 328.735 466.431 329.182C465.887 329.614 464.799 329.937 463.122 330.009V330.758H476.993C479.312 330.758 481.359 330.435 482.96 329.793C485.986 328.556 487.52 326.297 487.52 322.965C487.52 320.999 486.817 319.408 485.453 318.344ZM471.535 305.669C471.535 304.975 471.592 304.549 471.822 304.426C471.951 304.262 472.531 304.21 473.434 304.21C475.762 304.21 477.542 304.442 478.691 304.919C480.697 305.818 481.795 307.527 481.795 310.069C481.795 312.225 480.867 313.724 479.03 314.54C478.148 315.018 476.916 315.197 475.531 315.243L471.535 315.33V305.669ZM480.523 327.945C478.989 328.787 477.163 329.214 474.992 329.214C473.526 329.214 472.531 329.095 472.094 328.895C471.705 328.679 471.535 328.181 471.535 327.478V316.866C471.838 316.933 472.094 316.933 472.32 316.933H473.541C476.188 316.933 478.363 317.358 480.118 318.206C481.882 319.099 482.744 320.737 482.744 323.093C482.744 325.486 481.985 327.144 480.523 327.945Z" fill="#272422"/>
<path d="M527.496 327.292V317.584C527.496 314.909 526.762 312.984 525.265 311.967C524.505 311.403 523.669 311.13 522.668 311.13C521.54 311.13 520.427 311.453 519.406 312.132C518.6 312.604 517.651 313.425 516.43 314.616V311.613C516.43 311.453 516.415 311.376 516.415 311.3C516.374 311.258 516.286 311.176 516.184 311.176L514.245 311.838C512.111 312.46 510.803 312.886 510.218 313.061V313.764C510.433 313.723 510.546 313.698 510.7 313.692C510.87 313.692 511.003 313.671 511.121 313.671C511.931 313.671 512.46 313.933 512.675 314.452C512.891 314.796 512.932 315.442 512.932 316.331V327.031C512.932 328.268 512.737 329.079 512.424 329.474C511.998 329.818 511.28 330.018 510.331 330.146V330.753H519.293V330.146C518.4 330.141 517.651 329.993 517.267 329.613C516.815 329.274 516.61 328.622 516.61 327.626V315.941C517.328 315.191 517.908 314.678 518.415 314.36C519.246 313.821 520.078 313.523 520.925 313.523C522.068 313.523 522.864 313.882 523.243 314.719C523.725 315.469 523.89 316.475 523.89 317.676V326.599C523.89 328.016 523.725 328.935 523.346 329.331C522.976 329.777 522.258 330.018 521.222 330.146V330.753H530.081V330.146C529.194 330.146 528.491 329.946 528.132 329.499C527.731 329.043 527.496 328.319 527.496 327.292Z" fill="#272422"/>
<path d="M548.82 328.755C547.814 327.923 546.372 326.204 544.372 323.709L540.709 318.749L541.858 317.748C544.465 315.263 546.29 313.764 547.24 313.214C548.132 312.681 549.332 312.342 550.867 312.265V311.675H542.222V312.265C543.069 312.3 543.562 312.378 543.946 312.46C544.213 312.542 544.372 312.737 544.372 313.061C544.372 313.214 544.321 313.425 544.156 313.62C544.054 313.846 543.7 314.149 543.305 314.493L537.59 319.591V302.094C537.59 301.976 537.585 301.904 537.565 301.848C537.529 301.792 537.513 301.792 537.467 301.792C537.385 301.792 537.016 301.95 536.359 302.146C535.338 302.443 534.107 302.782 532.686 303.162L530.809 303.645V304.26C531.019 304.225 531.301 304.21 531.455 304.21C531.675 304.174 531.814 304.174 532.127 304.174C532.758 304.174 533.235 304.26 533.569 304.533C533.907 304.815 534.03 305.396 534.03 306.361V327.256C534.03 328.437 533.866 329.141 533.445 329.531C532.968 329.859 532.127 330.06 530.809 330.146V330.752H540.832V330.146C539.806 330.146 539.129 330.018 538.663 329.9C538.057 329.531 537.59 328.894 537.59 327.944V320.228L544.018 328.652C544.131 328.807 544.213 328.997 544.28 329.094C544.367 329.233 544.372 329.402 544.372 329.536C544.372 329.777 544.321 329.9 544.121 330.008C543.946 330.044 543.674 330.106 543.428 330.106L542.766 330.146V330.752H551.964V330.146C550.846 330.06 549.846 329.603 548.82 328.755Z" fill="#272422"/>
<path d="M239.283 328.223C238.338 328.223 237.708 328.064 237.513 327.7C237.302 327.335 237.113 326.739 237.113 325.825L237.19 308.924C237.19 308.103 237.19 307.287 237.225 306.475C237.225 305.633 237.302 304.817 237.302 304.032L237.312 301.85L237.113 301.798C236.656 301.983 236.231 302.152 236.025 302.178C235.589 302.379 235.02 302.527 234.384 302.712C233.737 302.881 233.162 303.041 232.501 303.22L230.777 303.651V304.35C231.305 304.324 231.47 304.268 231.609 304.268H232.08C232.824 304.268 233.25 304.432 233.404 304.74C233.609 305.053 233.727 305.633 233.727 306.475V312.99C233.209 312.513 232.67 312.118 232.121 311.794C231.316 311.368 230.367 311.132 229.346 311.132C226.837 311.132 224.714 312.225 222.949 314.361C221.225 316.486 220.358 319.1 220.358 322.098C220.358 324.516 221.077 326.586 222.523 328.398C223.96 330.225 225.909 331.093 228.217 331.093C229.541 331.093 230.7 330.821 231.69 330.148C232.26 329.799 232.911 329.183 233.727 328.28V330.975L233.896 331.093L237.113 329.938C239.031 329.239 240.129 328.896 240.191 328.865V328.151C240.042 328.177 239.822 328.177 239.693 328.182C239.631 328.182 239.406 328.223 239.283 328.223ZM233.727 326.052C233.727 326.601 233.332 327.248 232.701 327.863C232.054 328.5 231.218 328.788 230.11 328.788C228.043 328.788 226.56 327.946 225.514 326.205C224.447 324.516 223.96 322.519 223.96 320.291C223.96 318.078 224.401 316.143 225.38 314.638C226.391 313.088 227.725 312.323 229.448 312.323C230.408 312.323 231.326 312.713 232.26 313.437C233.239 314.191 233.727 315.45 233.727 317.231V326.052Z" fill="#272422"/>
<path d="M248.275 326.44V311.51C248.275 311.392 248.265 311.305 248.239 311.176C248.182 311.176 247.895 311.284 247.516 311.413C246.551 311.86 244.91 312.398 242.478 313.194L241.58 313.482V314.088C242.329 313.851 242.647 313.764 242.847 313.728C243.001 313.692 243.15 313.692 243.278 313.692C243.965 313.692 244.412 313.959 244.561 314.518C244.704 314.914 244.781 315.52 244.781 316.439V326.409C244.781 328.062 244.561 329.059 244.202 329.413C243.77 329.798 242.873 330.023 241.37 330.146V330.753H251.43V330.146C250.147 330.044 249.24 329.818 248.916 329.413C248.464 328.997 248.275 328.016 248.275 326.44Z" fill="#272422"/>
<path d="M122.911 326.405V317.95C122.911 316.332 122.721 315.044 122.269 314.038C121.469 312.128 119.925 311.173 117.709 311.173C116.324 311.173 115.021 311.63 113.79 312.462C113.174 312.919 112.394 313.668 111.522 314.664V301.952L111.45 301.793L109.475 302.394C109.101 302.563 108.496 302.748 107.588 302.974C106.674 303.221 105.925 303.436 105.289 303.646V304.437C105.464 304.396 105.689 304.396 105.802 304.34C105.931 304.319 106.1 304.319 106.254 304.319C107.008 304.319 107.49 304.488 107.716 304.884C107.906 305.243 108.039 305.808 108.039 306.553V326.405C108.039 327.946 107.859 328.932 107.459 329.317C107.131 329.712 106.377 330.02 105.233 330.143V330.754H114.426V330.143C113.241 330.015 112.451 329.712 112.097 329.327C111.738 328.967 111.548 327.966 111.548 326.405V316.199C111.548 315.953 112.092 315.45 113.072 314.68C114.062 313.884 115.103 313.519 116.185 313.519C117.406 313.519 118.237 313.93 118.694 314.767C119.104 315.604 119.366 316.697 119.366 318.017V326.405C119.366 327.946 119.191 328.932 118.858 329.317C118.458 329.712 117.709 330.015 116.488 330.143V330.754H125.532V330.143C124.501 330.02 123.783 329.737 123.439 329.307C123.09 328.855 122.911 327.889 122.911 326.405Z" fill="#272422"/>
<path d="M79.6742 302.622L79.5151 309.881H80.5001C80.9156 307.607 81.5979 306.118 82.429 305.435C83.301 304.768 84.8811 304.439 87.3024 304.439H89.5442V325.632C89.5442 327.491 89.2877 328.651 88.8722 329.093C88.3797 329.54 87.3024 329.863 85.4915 330.007V330.756H97.9009V330.007C96.2132 329.904 95.1461 329.606 94.6126 329.206C94.1304 328.806 93.8585 327.784 93.8585 326.115V304.439H96.1721C98.6447 304.439 100.24 304.768 100.999 305.435C101.795 306.128 102.364 307.607 102.892 309.881H103.944L103.718 302.622H79.6742Z" fill="#272422"/>
<path d="M170.137 315.246L166.371 312.921C164.956 312.084 163.976 311.257 163.335 310.471C162.602 309.706 162.293 308.757 162.293 307.658C162.293 306.436 162.663 305.496 163.561 304.814C164.422 304.095 165.438 303.772 166.633 303.772C168.147 303.772 169.645 304.285 171.163 305.389C172.692 306.477 173.841 308.367 174.529 311.082H175.534L174.59 302.046H173.718C173.6 302.493 173.451 302.781 173.179 303.043C173.005 303.299 172.656 303.407 172.128 303.407C171.917 303.407 171.163 303.181 169.783 302.745C168.449 302.268 167.295 302.046 166.326 302.046C163.997 302.046 162.093 302.776 160.606 304.213C159.277 305.63 158.544 307.417 158.544 309.573C158.544 311.175 159.174 312.654 160.339 313.998C160.955 314.722 161.837 315.406 162.909 316.114L166.582 318.373C168.654 319.657 170.06 320.658 170.686 321.32C171.702 322.315 172.199 323.538 172.199 324.95C172.199 326.464 171.702 327.686 170.686 328.533C169.701 329.39 168.562 329.827 167.229 329.827C164.648 329.827 162.602 328.805 160.908 326.86C159.944 325.735 159.072 324.21 158.39 322.315H157.343L158.6 331.388H159.585C159.677 331.002 159.754 330.649 159.969 330.355C160.134 330.027 160.483 329.898 160.944 329.898C161.206 329.898 161.97 330.115 163.366 330.592C164.791 331.095 166.218 331.388 167.521 331.388C170.137 331.388 172.307 330.592 173.923 329.093C175.632 327.63 176.503 325.735 176.503 323.538C176.503 321.88 176.001 320.426 175.072 319.235C174.113 317.993 172.476 316.704 170.137 315.246Z" fill="#272422"/>
<path d="M140.562 327.076C139.531 327.82 138.382 328.185 136.884 328.185C135.093 328.185 133.56 327.481 132.241 326.002C130.943 324.564 130.225 322.208 130.081 319.036H143.183C143.183 316.566 142.465 314.681 140.993 313.347C139.51 311.991 137.756 311.344 135.899 311.344C133.267 311.344 131.113 312.325 129.486 314.333C127.809 316.391 126.983 318.753 126.983 321.526C126.983 324.118 127.732 326.357 129.076 328.282C130.564 330.248 132.513 331.213 135.124 331.213C137.417 331.213 139.315 330.49 140.87 328.995C142.409 327.491 143.46 325.879 144.025 324.118L143.24 323.841C142.465 325.232 141.547 326.336 140.562 327.076ZM131.113 314.933C131.933 313.537 133.082 312.854 134.724 312.854C136.278 312.854 137.433 313.486 138.089 314.681C138.423 315.37 138.736 316.407 138.859 317.747H130.169C130.369 316.602 130.682 315.709 131.113 314.933Z" fill="#272422"/>
<path d="M216.221 328.221C215.913 327.887 215.754 327.246 215.754 326.337V311.571H209.065V312.264C210.322 312.321 211.173 312.541 211.553 312.85C211.963 313.214 212.179 313.871 212.179 314.96V326.296C211.691 326.86 211.148 327.364 210.666 327.697C209.747 328.318 208.788 328.621 207.839 328.621C206.526 328.621 205.612 328.103 205.094 327.04C204.802 326.47 204.669 325.731 204.669 324.797V311.571H198.507V312.131C199.466 312.264 200.144 312.403 200.421 312.613C200.923 312.988 201.155 313.764 201.155 314.826V325.566C201.155 327.584 201.642 328.996 202.75 329.864C203.766 330.696 204.925 331.096 206.115 331.096C207.434 331.096 208.685 330.696 209.829 329.9C210.589 329.335 211.45 328.513 212.379 327.369V330.824C212.379 330.906 212.379 330.968 212.399 331.014C212.399 331.091 212.481 331.096 212.563 331.096C213.759 330.654 214.569 330.403 214.862 330.249C215.754 330.012 216.319 329.823 216.708 329.71C217.027 329.607 217.627 329.505 218.365 329.273V328.678C217.283 328.724 216.565 328.596 216.221 328.221Z" fill="#272422"/>
<path d="M263.772 303.407C265.439 303.469 266.568 303.772 267.014 304.224C267.532 304.691 267.799 305.666 267.799 307.278V326.115C267.799 327.784 267.532 328.806 267.014 329.211C266.568 329.601 265.439 329.899 263.772 330.007V330.756H276.176V330.007C274.504 329.899 273.349 329.601 272.924 329.211C272.405 328.806 272.144 327.784 272.144 326.115V307.278C272.144 305.666 272.405 304.691 272.924 304.224C273.349 303.772 274.504 303.469 276.176 303.407V302.622H263.772V303.407Z" fill="#272422"/>
<path d="M414.254 327.076C413.253 327.82 412.032 328.185 410.591 328.185C408.811 328.185 407.231 327.481 405.953 326.003C404.578 324.565 403.886 322.209 403.722 319.036H416.854C416.854 316.566 416.137 314.682 414.675 313.347C413.253 311.992 411.53 311.345 409.56 311.345C406.877 311.345 404.732 312.326 403.158 314.333C401.511 316.392 400.68 318.754 400.68 321.526C400.68 324.119 401.346 326.357 402.788 328.283C404.219 330.249 406.245 331.214 408.847 331.214C411.068 331.214 412.935 330.49 414.515 328.996C416.095 327.492 417.188 325.88 417.68 324.119L416.921 323.842C416.137 325.233 415.239 326.337 414.254 327.076ZM404.732 314.934C405.584 313.537 406.754 312.855 408.364 312.855C409.97 312.855 411.104 313.486 411.75 314.682C412.16 315.37 412.356 316.407 412.556 317.747H403.819C404.009 316.602 404.348 315.709 404.732 314.934Z" fill="#272422"/>
<path d="M436.702 327.292V317.584C436.702 314.909 435.953 312.984 434.471 311.967C433.691 311.403 432.849 311.13 431.946 311.13C430.741 311.13 429.623 311.453 428.536 312.132C427.833 312.604 426.812 313.425 425.596 314.616V311.613C425.596 311.453 425.596 311.376 425.544 311.3C425.544 311.258 425.406 311.176 425.37 311.176L423.436 311.838C421.333 312.46 419.984 312.886 419.327 313.061V313.764C419.599 313.723 419.768 313.698 419.932 313.692C420.019 313.692 420.122 313.671 420.266 313.671C421.102 313.671 421.548 313.933 421.836 314.452C422.01 314.796 422.148 315.442 422.148 316.331V327.031C422.148 328.268 421.913 329.079 421.507 329.474C421.164 329.818 420.445 330.018 419.497 330.146V330.753H428.448V330.146C427.494 330.141 426.812 329.993 426.355 329.613C426.016 329.274 425.771 328.622 425.771 327.626V315.941C426.478 315.191 427.099 314.678 427.504 314.36C428.412 313.821 429.228 313.523 430.033 313.523C431.208 313.523 432.045 313.882 432.414 314.719C432.911 315.469 433.147 316.475 433.147 317.676V326.599C433.147 328.016 432.921 328.935 432.495 329.331C432.111 329.777 431.398 330.018 430.366 330.146V330.753H439.288V330.146C438.329 330.146 437.728 329.946 437.236 329.499C436.897 329.043 436.702 328.319 436.702 327.292Z" fill="#272422"/>
<path d="M449.915 328.475C449.592 328.675 449.14 328.782 448.628 328.782C447.653 328.782 447.001 328.315 446.637 327.371C446.493 326.857 446.468 326.005 446.468 325.03L446.478 313.129H450.69V311.676H446.493V306.547C446.493 306.357 446.493 306.28 446.478 306.28C446.468 306.239 446.303 306.203 446.088 306.203C444.539 308.298 443.6 309.607 443.103 310.074C442.723 310.582 441.989 311.219 441.081 311.995C440.743 312.262 440.507 312.457 440.435 312.539C440.425 312.605 440.394 312.708 440.394 312.857C440.394 312.898 440.425 312.919 440.435 312.985C440.435 313.037 440.502 313.072 440.594 313.129H442.836V325.656C442.836 327.058 443.031 328.141 443.38 328.972C443.892 330.405 445.093 331.093 446.637 331.093C447.453 331.093 448.202 330.97 449.007 330.513C449.771 330.056 450.572 329.404 451.285 328.439L451.705 327.756L451.218 327.294C450.72 327.812 450.264 328.182 449.915 328.475Z" fill="#272422"/>
<path d="M364.97 328.475C364.652 328.675 364.2 328.782 363.687 328.782C362.774 328.782 362.051 328.315 361.748 327.371C361.568 326.857 361.456 326.005 361.456 325.03L361.502 313.129H365.78V311.676H361.568V306.547C361.568 306.357 361.568 306.28 361.527 306.28C361.476 306.239 361.368 306.203 361.194 306.203C359.634 308.298 358.665 309.607 358.178 310.074C357.798 310.582 357.136 311.219 356.12 311.995C355.818 312.262 355.618 312.457 355.541 312.539C355.5 312.605 355.5 312.708 355.5 312.857C355.5 312.898 355.5 312.919 355.505 312.985C355.541 313.037 355.581 313.072 355.648 313.129H357.921V325.656C357.921 327.058 358.044 328.141 358.45 328.972C358.957 330.405 360.096 331.093 361.748 331.093C362.513 331.093 363.267 330.97 364.061 330.513C364.852 330.056 365.678 329.404 366.319 328.439L366.837 327.756L366.211 327.294C365.837 327.812 365.38 328.182 364.97 328.475Z" fill="#272422"/>
<path d="M396.593 327.493V318.899C396.593 316.676 396.419 315.053 395.937 314.057C395.219 312.224 393.751 311.336 391.463 311.336C390.15 311.336 388.827 311.726 387.565 312.604C386.826 313.082 385.841 313.851 384.835 314.915C384.558 314.001 384.24 313.272 383.784 312.763C382.901 311.793 381.793 311.336 380.377 311.336C379.357 311.336 378.356 311.578 377.295 312.013C376.345 312.542 375.176 313.354 373.806 314.606V311.839C373.806 311.634 373.806 311.49 373.77 311.403C373.734 311.356 373.714 311.336 373.626 311.336C373.56 311.336 372.955 311.578 371.713 312.05C370.43 312.542 369.533 312.887 368.984 313.071L367.507 313.539V314.278C367.732 314.201 367.819 314.191 368.019 314.149C368.132 314.124 368.338 314.124 368.645 314.124C369.286 314.124 369.733 314.258 369.99 314.581C370.245 314.915 370.348 315.577 370.348 316.603V327.256C370.348 328.478 370.112 329.239 369.574 329.613C369.24 329.931 368.512 330.06 367.47 330.147V330.753H376.951V330.147C375.73 330.147 374.914 329.998 374.498 329.577C374.175 329.182 374.006 328.515 374.006 327.493V316.069C374.591 315.289 375.314 314.678 376.068 314.201C376.884 313.764 377.735 313.523 378.572 313.523C380.08 313.523 381.024 314.201 381.47 315.551C381.727 316.393 381.875 317.835 381.875 319.961V325.737C381.875 327.641 381.69 328.782 381.363 329.239C380.978 329.669 380.126 330.019 378.838 330.147V330.753H388.37V330.147C387.051 330.126 386.235 329.829 385.82 329.239C385.471 328.653 385.271 327.811 385.271 326.743V316.106C385.99 315.33 386.656 314.765 387.093 314.426C388.006 313.821 388.868 313.523 389.806 313.523C391.253 313.523 392.259 314.103 392.813 315.192C393.085 315.859 393.182 316.814 393.182 318.205V327.2C393.182 328.32 393.028 329.079 392.659 329.474C392.243 329.829 391.417 330.044 390.237 330.147V330.753H399.661V330.147C398.506 330.044 397.727 329.859 397.291 329.5C396.788 329.115 396.593 328.478 396.593 327.493Z" fill="#272422"/>
<path d="M295.16 327.293V317.584C295.16 314.91 294.355 312.984 292.877 311.968C292.072 311.403 291.287 311.131 290.369 311.131C289.235 311.131 288.091 311.454 287.009 312.132C286.244 312.604 285.29 313.426 284.059 314.616V311.613C284.059 311.454 284.059 311.377 284.008 311.3C283.951 311.259 283.941 311.177 283.828 311.177L281.894 311.839C279.755 312.46 278.41 312.887 277.821 313.061V313.764C277.99 313.724 278.221 313.698 278.339 313.692C278.477 313.692 278.637 313.672 278.739 313.672C279.555 313.672 280.078 313.934 280.329 314.453C280.524 314.796 280.56 315.443 280.56 316.331V327.031C280.56 328.268 280.411 329.079 279.991 329.474C279.606 329.819 278.893 330.019 277.949 330.147V330.753H286.983V330.147C286.003 330.142 285.29 329.993 284.833 329.613C284.377 329.274 284.187 328.622 284.187 327.626V315.941C284.961 315.192 285.46 314.678 286.034 314.36C286.86 313.821 287.634 313.523 288.507 313.523C289.65 313.523 290.461 313.883 290.908 314.72C291.359 315.469 291.584 316.476 291.584 317.677V326.599C291.584 328.016 291.359 328.935 290.933 329.331C290.584 329.777 289.85 330.019 288.774 330.147V330.753H297.73V330.147C296.796 330.147 296.145 329.947 295.74 329.5C295.309 329.044 295.16 328.32 295.16 327.293Z" fill="#272422"/>
<path d="M312.629 312.01C313.213 312.051 313.624 312.128 313.896 312.262C314.445 312.539 314.68 312.898 314.68 313.463C314.68 313.724 314.635 314.099 314.48 314.608C314.311 315.1 314.116 315.573 313.952 316.066L310.258 325.286L305.893 314.793C305.698 314.423 305.626 314.12 305.58 313.884C305.539 313.724 305.523 313.524 305.523 313.257C305.523 312.842 305.585 312.539 305.95 312.343C306.283 312.225 306.754 312.113 307.473 312.01V311.414H299.183V312.01C299.819 312.113 300.286 312.262 300.655 312.539C301.22 312.96 301.774 313.822 302.236 315.055L308.612 330.287C308.725 330.513 308.858 330.723 308.945 330.903C309.017 331.022 309.074 331.093 309.197 331.093C309.376 331.093 309.469 331.062 309.586 330.99C309.684 330.903 309.756 330.698 309.889 330.431L315.85 315.439C316.307 314.038 316.856 313.129 317.096 312.734C317.389 312.303 317.897 312.113 318.595 312.01V311.414H312.629V312.01Z" fill="#272422"/>
<path d="M348.813 319.966L346.074 318.523C344.161 317.496 343.186 316.387 343.186 315.098C343.186 314.272 343.504 313.599 344.053 312.988C344.617 312.398 345.366 312.11 346.325 312.11C347.993 312.11 349.224 312.773 350.076 314.184C350.593 314.929 350.907 316.002 351.251 317.321H351.81L351.686 311.571H351.251C351.147 311.694 351.009 311.833 350.902 311.864C350.84 311.951 350.66 311.987 350.388 311.987C350.235 311.987 349.799 311.859 348.88 311.571C348.029 311.279 347.146 311.125 346.495 311.125C344.787 311.125 343.33 311.638 342.242 312.603C341.129 313.625 340.595 314.908 340.595 316.449C340.595 317.701 341.031 318.815 341.785 319.714C342.657 320.653 343.863 321.547 345.556 322.501L347.859 323.8C348.788 324.299 349.337 324.797 349.706 325.392C350.039 325.911 350.158 326.465 350.158 327.071C350.158 328.011 349.901 328.73 349.306 329.325C348.726 329.9 347.9 330.141 346.884 330.141C344.992 330.141 343.597 329.382 342.683 327.816C342.098 326.958 341.673 325.731 341.339 324.18H340.642V330.906H341.216C341.324 330.696 341.457 330.541 341.539 330.48C341.673 330.357 341.785 330.285 341.996 330.285C342.165 330.285 342.796 330.434 343.863 330.696C344.905 330.993 345.833 331.096 346.674 331.096C348.634 331.096 350.158 330.593 351.399 329.556C352.63 328.555 353.251 327.199 353.251 325.536C353.251 323.431 351.763 321.577 348.813 319.966Z" fill="#272422"/>
<path d="M333.98 327.076C333.026 327.82 331.805 328.185 330.343 328.185C328.558 328.185 327.018 327.481 325.721 326.002C324.377 324.564 323.587 322.208 323.504 319.036H336.653C336.653 316.566 335.94 314.681 334.472 313.347C332.985 311.991 331.313 311.344 329.337 311.344C326.706 311.344 324.546 312.325 322.889 314.333C321.248 316.391 320.478 318.753 320.478 321.526C320.478 324.118 321.135 326.357 322.566 328.282C323.976 330.248 325.987 331.213 328.588 331.213C330.804 331.213 332.743 330.49 334.323 328.995C335.852 327.491 336.935 325.879 337.489 324.118L336.745 323.841C335.94 325.232 335.001 326.336 333.98 327.076ZM324.546 314.933C325.398 313.537 326.567 312.854 328.111 312.854C329.711 312.854 330.825 313.486 331.563 314.681C331.861 315.37 332.169 316.407 332.313 317.747H323.546C323.786 316.602 324.135 315.709 324.546 314.933Z" fill="#272422"/>
<path d="M507.542 328.676C507.008 328.676 506.644 328.445 506.444 327.906C506.362 327.623 506.331 327.038 506.331 326.268V317.863C506.331 316.102 505.962 314.686 505.551 313.7C504.561 311.97 502.74 311.082 500.072 311.082C497.779 311.082 496.004 311.631 494.778 312.683C493.578 313.726 492.947 314.742 492.947 315.712C492.947 316.2 493.137 316.673 493.511 317.093C493.798 317.499 494.255 317.679 494.917 317.679C495.353 317.679 495.655 317.586 495.979 317.422C496.512 317.099 496.696 316.544 496.696 315.779C496.696 315.707 496.656 315.435 496.594 315.045C496.584 314.64 496.584 314.331 496.584 314.188C496.584 313.531 496.912 312.992 497.456 312.617C498.138 312.263 498.841 312.118 499.503 312.118C500.985 312.118 501.939 312.565 502.453 313.5C502.673 314.059 502.817 315.045 502.817 316.452V318.208C499.046 319.65 496.512 320.775 495.204 321.586C493.172 322.988 492.162 324.641 492.162 326.679C492.162 327.947 492.68 329.03 493.542 329.903C494.404 330.699 495.471 331.1 496.584 331.1C497.779 331.1 498.969 330.755 500.2 330.016C500.97 329.559 501.889 328.882 502.832 327.968C502.914 328.784 503.155 329.534 503.591 330.114C504.012 330.699 504.72 331.002 505.658 331.002C506.444 331.002 507.213 330.755 508.008 330.221C508.501 329.903 509.024 329.472 509.429 328.897V327.891C508.957 328.235 508.578 328.481 508.331 328.553C508.152 328.65 507.952 328.676 507.542 328.676ZM502.817 325.883C502.817 326.679 502.453 327.336 501.555 327.86C500.759 328.398 499.872 328.625 498.969 328.625C498.241 328.625 497.702 328.445 497.163 328.06C496.261 327.408 495.897 326.469 495.897 325.211C495.897 323.629 496.912 322.207 498.913 321C499.949 320.364 501.257 319.773 502.817 319.234V325.883Z" fill="#272422"/>
<path d="M545.962 237.604C547.1 236.972 549.768 235.426 551.964 232.695V285.812H545.962V237.604ZM430.573 237.604V285.812H436.585V232.695C434.339 235.426 431.64 236.972 430.573 237.604ZM217.25 232.701C215.007 235.421 212.361 236.972 211.242 237.604V273.116H217.25V232.701ZM237.702 237.604V279.718H230.52V237.604C229.433 236.972 226.755 235.426 224.483 232.695V279.718H211.114V285.812H243.73V232.695C241.525 235.401 238.78 236.972 237.702 237.604ZM533.121 232.701V279.718H524.959V256.589C523.262 258.432 520.204 260.091 518.906 260.999V279.718H509.944V256.589C508.18 258.53 505.071 260.229 503.84 261.143V279.718H496.735V232.536C494.754 234.636 492.158 236.685 490.691 237.711V279.718H453.412C452.207 279.718 451.324 279.225 450.642 278.671C449.959 280.806 448.528 285.817 448.528 285.817H538.897V237.686C536.384 235.92 534.398 234.133 533.121 232.701ZM483.484 261.862H472.967V258.91C472.967 256.338 473.336 255.804 476.492 255.804C479.457 255.804 480.354 255.295 480.852 254.987V252.764C480.119 253.144 479.637 253.442 477.871 253.442H473.46C471.249 253.442 469.392 254.998 469.392 257.678V261.862H460.81C460.404 262.519 459.522 264.085 458.619 265.651H483.484V261.862ZM284.139 263.628C284.139 265.651 284.169 273.537 284.169 273.819H295.902V279.718H263.645V266.334C261.551 268.87 258.412 270.456 257.478 271.052V285.817H302.027V268.253H289.894V264.198C289.894 257.965 296.872 254.756 302.093 254.243V248.282C287.381 250.931 284.139 259.428 284.139 263.628ZM316.688 268.002H309.67V272.751H315.098C318.376 272.751 318.869 274.461 318.869 276.972V279.713H309.896V285.848H324.891V275.652C324.891 271.395 322.178 268.002 316.688 268.002ZM139.033 250.095C140.71 250.095 142.039 248.749 142.039 247.112C142.039 245.449 140.71 244.103 139.033 244.103C137.371 244.103 136.016 245.449 136.016 247.112C136.016 248.749 137.371 250.095 139.033 250.095ZM143.67 247.112C143.67 248.749 145.03 250.09 146.702 250.09C148.39 250.09 149.708 248.749 149.708 247.112C149.708 245.443 148.39 244.103 146.702 244.103C145.03 244.103 143.67 245.443 143.67 247.112ZM160.389 250.095C162.103 250.095 163.405 248.749 163.405 247.112C163.405 245.449 162.103 244.103 160.389 244.103C158.752 244.103 157.378 245.449 157.378 247.112C157.378 248.749 158.752 250.095 160.389 250.095ZM168.089 250.095C169.715 250.095 171.075 248.749 171.075 247.112C171.075 245.449 169.715 244.103 168.089 244.103C166.458 244.103 165.113 245.449 165.113 247.112C165.113 248.749 166.458 250.095 168.089 250.095ZM274.248 288.744C272.54 288.744 271.273 290.12 271.273 291.773C271.273 293.416 272.54 294.781 274.248 294.781C275.931 294.781 277.275 293.416 277.275 291.773C277.275 290.12 275.931 288.744 274.248 288.744ZM281.958 288.744C280.276 288.744 278.886 290.12 278.886 291.773C278.886 293.416 280.276 294.781 281.958 294.781C283.636 294.781 284.995 293.416 284.995 291.773C284.995 290.12 283.636 288.744 281.958 288.744ZM521.533 288.744C519.835 288.744 518.48 290.12 518.48 291.773C518.48 293.416 519.835 294.781 521.533 294.781C523.2 294.781 524.524 293.416 524.524 291.773C524.524 290.12 523.2 288.744 521.533 288.744ZM507.953 248.647C509.621 248.647 510.996 247.297 510.996 245.613C510.996 243.975 509.621 242.614 507.953 242.614C506.312 242.614 504.916 243.975 504.916 245.613C504.916 247.297 506.312 248.647 507.953 248.647ZM142.911 243.877C144.599 243.877 145.917 242.491 145.917 240.853C145.917 239.169 144.599 237.829 142.911 237.829C141.172 237.829 139.931 239.169 139.931 240.853C139.931 242.491 141.172 243.877 142.911 243.877ZM196.504 261.611C198.894 260.008 200.972 258.294 202.624 256.507V285.828H125.931C124.731 289.683 121.119 292.512 116.877 292.512C112.598 292.512 109.023 289.673 107.868 285.807H98.4191V237.604C99.5528 236.972 102.251 235.421 104.503 232.701V279.744H108.038C109.397 276.17 112.839 273.603 116.877 273.603C120.934 273.603 124.341 276.145 125.705 279.718H140.1V261.045C142.491 259.665 144.943 258.037 146.194 256.574V279.718H160.389V261.045C162.902 259.68 165.216 258.017 166.432 256.507V279.718L172.413 279.734V271.067C173.291 270.898 174.142 270.738 175.04 270.538C176.209 270.292 177.282 269.999 178.477 269.666V279.734H184.536V267.73C186.613 266.919 188.583 266.052 190.517 265.096V279.734H196.504V261.611ZM116.877 287.27C119.211 287.27 121.063 285.371 121.063 283.071C121.063 280.734 119.211 278.85 116.877 278.85C114.589 278.85 112.726 280.734 112.726 283.071C112.726 285.371 114.589 287.27 116.877 287.27ZM417.774 232.669C419.005 234.128 420.657 235.843 423.443 237.819V285.884H350.516V286.238C350.516 292.415 343.118 296.08 337.301 291.511C343.733 293.231 344.395 289.021 344.395 285.915V285.853H332.268V277.177C332.268 272.551 334.361 268.814 341.05 267.612C345.565 266.791 348.617 265.918 350.516 264.347V271.504V279.764H356.204V274.009C356.204 270.718 358.308 268.377 362.843 268.377H369.178V272.844H363.576C362.55 272.844 362.258 273.357 362.258 274.707V279.764H381.603V271.062C382.526 270.903 383.372 270.718 384.275 270.538C385.394 270.297 386.564 269.989 387.697 269.671V279.764H393.709V267.699C395.798 266.914 397.854 266.057 399.773 265.101V279.764H405.729V261.611C408.156 260.003 410.166 258.294 411.787 256.502V279.764H417.774V232.669ZM344.395 272.551C344.395 272.551 343.364 272.921 342.518 273.121C339.188 273.85 338.27 274.954 338.27 277.377V279.682H344.395V276.812V272.551ZM86.6253 276.812V285.915C86.6253 289.021 85.943 293.231 79.5151 291.511C85.3735 296.08 92.7248 292.415 92.7248 286.238V271.499C91.1499 275.863 88.3336 276.812 86.6253 276.812Z" fill="#272422"/>
</g>
<defs>
<clipPath id="clip0_176_851">
<rect width="473.33" height="328.176" fill="white" transform="translate(79.1743 3.91235)"/>
</clipPath>
</defs>
</svg>
