<svg width="632" height="336" viewBox="0 0 632 336" fill="none" xmlns="http://www.w3.org/2000/svg">
<g clip-path="url(#clip0_247_583)">
<path d="M300.446 80.7729L250.08 176.356H281.535L311.025 80.7729H300.446Z" fill="black"/>
<path d="M376.463 176.356L326.097 80.7729H315.518L345.008 176.356H376.463Z" fill="black"/>
<path d="M164.232 157.773V176.262H216.892C232.62 176.543 245.633 164.045 245.914 148.271C246.195 132.496 233.697 119.53 217.922 119.249C217.454 119.249 216.939 119.249 216.471 119.249H188.058C182.675 119.202 178.322 114.802 178.275 109.419V109.185C178.275 103.709 182.722 99.3086 188.152 99.3086H235.569V80.6787H187.543C171.815 81.1936 159.458 94.3937 159.973 110.121C160.488 125.287 172.798 137.458 187.964 137.692H216.284C221.76 137.692 226.16 142.092 226.207 147.568V147.802C226.207 153.279 221.76 157.679 216.284 157.679L164.232 157.773Z" fill="black"/>
<path d="M391.395 176.309H409.464C409.604 176.309 409.698 176.216 409.698 176.122V99.4025C409.698 99.3089 409.744 99.1685 409.838 99.1685H409.885H442.042C447.613 99.1685 452.106 103.662 452.106 109.232C452.106 114.709 447.659 119.109 442.183 119.109H419.761C419.621 119.109 419.527 119.249 419.527 119.343C419.527 119.39 419.527 119.39 419.527 119.437L451.685 175.888C451.732 175.982 451.825 176.028 451.872 176.028H471.766C471.906 176.028 472 175.935 472 175.841C472 175.794 472 175.794 472 175.748L450.702 139.05L449.719 137.224C449.625 137.13 449.625 136.99 449.719 136.943L451.732 136.241C466.57 130.952 474.294 114.615 469.004 99.777C465.213 89.1046 455.43 81.7088 444.149 80.9131H442.604H391.442C391.302 80.9131 391.208 81.0067 391.208 81.1471V176.216C391.161 176.216 391.255 176.309 391.395 176.309Z" fill="black"/>
<path d="M159.505 253.591L160.207 250.267C161.798 250.923 163.53 251.297 165.262 251.297C167.369 251.297 168.445 250.595 168.445 249.097C168.492 248.395 168.164 247.74 167.603 247.318C166.713 246.757 165.73 246.336 164.701 246.055C163.25 245.633 161.939 244.884 160.862 243.901C159.973 242.918 159.458 241.655 159.552 240.344C159.505 238.799 160.113 237.348 161.284 236.318C162.688 235.242 164.467 234.68 166.245 234.774C168.024 234.727 169.756 235.055 171.394 235.757L170.645 239.033C169.335 238.472 167.93 238.191 166.479 238.191C164.56 238.191 163.577 238.846 163.577 240.204C163.53 240.812 163.811 241.374 164.233 241.795C164.981 242.31 165.824 242.684 166.667 242.965C167.462 243.246 168.211 243.527 168.96 243.901C169.616 244.182 170.177 244.604 170.739 245.025C171.301 245.493 171.769 246.055 172.003 246.71C172.284 247.459 172.424 248.255 172.424 249.097C172.471 250.736 171.722 252.28 170.411 253.263C168.96 254.293 167.135 254.855 165.356 254.761C163.296 254.808 161.237 254.433 159.318 253.638" fill="black"/>
<path d="M187.122 254.339L185.952 250.08H178.837C178.462 251.437 178.088 252.842 177.713 254.293H173.688C175.373 247.739 177.573 241.28 180.335 235.101H184.36C187.169 241.327 189.415 247.739 191.101 254.339H187.122ZM182.441 239.267C181.411 241.701 180.569 244.229 179.866 246.756H185.015C184.267 244.229 183.424 241.701 182.441 239.267Z" fill="black"/>
<path d="M191.85 246.71V235.101H195.875V246.429C195.875 249.612 197.139 251.203 199.573 251.203C202.007 251.203 203.271 249.612 203.271 246.429V235.101H207.296V246.71C207.437 248.91 206.735 251.063 205.284 252.748C202.007 255.51 197.233 255.51 193.956 252.748C192.505 251.063 191.803 248.91 191.943 246.71" fill="black"/>
<path d="M210.948 254.34V235.101H217.36C219.935 234.961 222.462 235.897 224.335 237.676C226.114 239.548 227.05 242.076 226.909 244.697C227.05 247.318 226.114 249.893 224.288 251.765C222.416 253.544 219.935 254.48 217.314 254.34H210.948ZM217.267 238.425H214.879V250.969H217.267C221.011 250.969 222.884 248.863 222.884 244.65C222.884 240.437 221.011 238.331 217.267 238.425Z" fill="black"/>
<path d="M233.884 235.101H229.952V254.339H233.884V235.101Z" fill="black"/>
<path d="M256.118 254.339L254.948 250.08H247.833C247.458 251.437 247.084 252.842 246.709 254.293H242.59C244.275 247.693 246.522 241.28 249.284 235.054H253.31C256.071 241.28 258.318 247.693 260.05 254.293L256.118 254.339ZM251.437 239.267C250.407 241.701 249.565 244.229 248.863 246.756H254.012C253.31 244.229 252.42 241.701 251.437 239.267Z" fill="black"/>
<path d="M267.726 247.225H266.556V254.34H262.718V235.101H268.335C270.301 235.008 272.267 235.522 273.952 236.599C275.309 237.582 276.058 239.174 275.965 240.859C276.199 243.293 274.561 245.54 272.126 246.008C273.156 246.569 273.952 247.459 274.42 248.582L277.229 254.386H273.016L270.395 248.957C270.16 248.442 269.786 247.974 269.365 247.646C268.943 247.365 268.382 247.225 267.867 247.225M268.195 238.425H266.65V243.854H268.148C270.629 243.854 271.892 242.965 271.892 241.139C271.939 240.344 271.612 239.595 270.956 239.127C270.067 238.659 269.131 238.471 268.148 238.518" fill="black"/>
<path d="M291.599 254.339L290.429 250.127H283.314C282.939 251.391 282.565 252.842 282.144 254.339H278.165C279.85 247.739 282.05 241.327 284.812 235.101H288.837C291.599 241.327 293.846 247.739 295.578 254.339H291.599ZM286.918 239.267C285.888 241.701 285.046 244.229 284.344 246.756H289.493C288.791 244.229 287.901 241.701 286.918 239.267Z" fill="black"/>
<path d="M304.565 254.34H298.012V235.101H304.05C305.876 235.008 307.701 235.429 309.246 236.365C310.51 237.161 311.212 238.612 311.118 240.063C311.165 241.701 310.276 243.246 308.825 244.042C310.65 244.791 311.82 246.663 311.68 248.629C311.774 250.314 311.025 251.905 309.667 252.888C308.123 253.918 306.25 254.433 304.378 254.293M301.85 238.425V243.105H304.706C305.923 243.293 306.999 242.45 307.186 241.233C307.233 241.046 307.233 240.859 307.186 240.671C307.186 239.174 306.11 238.425 304.003 238.425H301.85ZM301.85 246.054V250.969H304.237C305.174 251.016 306.11 250.829 306.952 250.408C307.561 249.986 307.935 249.284 307.888 248.582C307.888 246.897 306.765 246.054 304.565 246.054H301.85Z" fill="black"/>
<path d="M318.701 235.101H314.769V254.339H318.701V235.101Z" fill="black"/>
<path d="M334.523 254.339L333.399 250.127H326.284C325.863 251.391 325.489 252.842 325.114 254.339H321.089C322.774 247.739 325.021 241.327 327.782 235.101H331.808C334.616 241.327 336.863 247.739 338.548 254.339H334.523ZM329.795 239.267C328.765 241.701 327.923 244.229 327.221 246.756H332.323C331.667 244.229 330.825 241.701 329.795 239.267Z" fill="black"/>
<path d="M352.497 247.225H351.327V254.34H347.302V235.101H353.106C355.072 235.008 357.038 235.522 358.723 236.599C360.08 237.582 360.829 239.174 360.736 240.859C360.97 243.293 359.331 245.54 356.897 246.008C357.88 246.569 358.676 247.505 359.097 248.582L361.906 254.386H357.693L355.119 248.957C354.885 248.442 354.51 247.974 354.042 247.646C353.621 247.365 353.059 247.225 352.544 247.225M352.919 238.425H351.421V243.854H352.919C355.399 243.854 356.663 242.965 356.663 241.093C356.71 240.297 356.336 239.548 355.727 239.08C354.885 238.612 353.902 238.378 352.919 238.471" fill="black"/>
<path d="M376.417 254.339L375.2 250.08H368.085C367.71 251.437 367.336 252.842 366.961 254.293H362.936C364.621 247.693 366.868 241.28 369.629 235.054H373.655C376.417 241.28 378.663 247.693 380.395 254.293L376.417 254.339ZM371.689 239.267C370.706 241.701 369.863 244.229 369.161 246.756H374.31C373.608 244.229 372.766 241.701 371.736 239.267" fill="black"/>
<path d="M386.761 235.101H382.829V254.339H386.761V235.101Z" fill="black"/>
<path d="M390.74 235.101H394.672V251.016H402.442V254.339H390.74V235.101Z" fill="black"/>
<path d="M420.651 250.642C421.213 248.91 421.868 246.616 422.57 243.667C423.272 240.671 423.787 237.863 424.161 235.101H428.187C427.251 241.701 425.519 248.161 422.991 254.339H418.685C417.187 250.408 416.017 246.382 415.127 242.263C414.238 246.382 413.021 250.408 411.523 254.339H407.217C406 251.391 405.017 248.348 404.221 245.259C403.332 241.888 402.583 238.518 402.068 235.101H406.093C406.515 237.91 407.076 240.765 407.732 243.714C408.246 246.054 408.855 248.395 409.651 250.642C410.493 248.301 411.195 245.914 411.757 243.48C412.506 240.718 413.021 237.91 413.442 235.101H416.953C417.374 237.956 417.936 240.812 418.638 243.573C419.2 245.961 419.949 248.348 420.791 250.642" fill="black"/>
<path d="M440.966 254.339L439.796 250.127H432.681C432.306 251.484 431.932 252.888 431.557 254.339H427.532C429.217 247.739 431.464 241.327 434.225 235.101H438.251C441.059 241.327 443.306 247.739 444.991 254.339H440.966ZM436.285 239.267C435.255 241.701 434.413 244.229 433.71 246.756H438.859C438.111 244.229 437.268 241.701 436.285 239.267Z" fill="black"/>
<path d="M451.264 254.339H447.238V246.663C444.617 243.105 442.464 239.22 440.872 235.101H444.898C446.021 238.05 447.472 240.859 449.204 243.48C450.983 240.859 452.434 238.05 453.557 235.101H457.583C455.945 239.22 453.791 243.105 451.217 246.663L451.264 254.339Z" fill="black"/>
<path d="M458.8 253.591L459.502 250.267C461.094 250.923 462.825 251.297 464.557 251.297C466.664 251.297 467.74 250.595 467.74 249.097C467.787 248.395 467.506 247.74 466.945 247.318C466.008 246.757 465.025 246.335 463.996 246.055C462.545 245.633 461.234 244.884 460.157 243.901C459.221 242.918 458.753 241.654 458.847 240.297C458.8 238.752 459.455 237.301 460.579 236.271C461.983 235.242 463.715 234.727 465.447 234.82C467.225 234.774 469.004 235.101 470.642 235.803L469.847 239.08C468.536 238.518 467.132 238.237 465.728 238.237C463.808 238.237 462.825 238.893 462.825 240.25C462.779 240.859 463.059 241.42 463.481 241.842C464.23 242.357 465.072 242.731 465.915 243.012C466.711 243.293 467.459 243.574 468.208 243.948C468.817 244.276 469.425 244.65 469.987 245.072C470.549 245.54 471.017 246.101 471.251 246.757C471.532 247.506 471.672 248.301 471.672 249.144C471.766 250.782 471.064 252.327 469.753 253.31C468.302 254.34 466.523 254.855 464.698 254.761C462.638 254.855 460.579 254.433 458.659 253.638" fill="black"/>
<path d="M166.573 205.19L168.679 203.084L170.786 205.19L173.36 202.569L170.786 199.948L168.679 202.054L166.526 199.948L163.952 202.569L166.573 205.19Z" fill="black"/>
<path d="M165.169 218.25C163.53 218.25 162.641 217.407 162.641 216.05C162.641 213.897 164.513 212.165 167.93 211.463V216.05C167.93 216.612 167.977 217.127 168.071 217.688C167.181 218.063 166.198 218.25 165.169 218.25ZM173.36 221.948H175.654C179.679 221.948 181.832 219.795 181.832 216.471C181.739 213.756 181.458 211.088 180.99 208.42H177.479C177.947 210.854 178.228 213.382 178.322 215.863C178.322 217.407 177.666 218.25 175.654 218.25H173.36C171.909 218.25 171.441 217.548 171.441 216.237V206.875H167.93V208.373C161.424 209.45 159.224 213.335 159.224 216.424C159.037 219.327 161.283 221.807 164.186 221.995C164.513 221.995 164.794 221.995 165.122 221.948C166.666 221.854 168.117 221.386 169.428 220.544C170.505 221.527 171.956 222.042 173.454 221.948" fill="black"/>
<path d="M179.539 223.492L177.479 225.505L175.42 223.492L172.798 226.067L175.466 228.688L177.479 226.675L179.539 228.688L182.16 226.067L179.539 223.492Z" fill="black"/>
<path d="M188.432 208.373C189.837 210.948 190.82 213.71 191.381 216.565C191.381 217.735 190.539 218.156 188.526 218.156C186.981 218.156 185.437 217.922 183.939 217.501L183.283 220.965C185.249 221.527 187.262 221.808 189.322 221.808C192.926 221.808 194.845 220.076 194.845 217.033C194.471 213.944 193.535 210.995 191.99 208.327L188.432 208.373Z" fill="black"/>
<path d="M219.841 217.547C218.811 215.675 217.548 213.85 216.143 212.211C217.173 211.743 218.297 211.462 219.467 211.415C221.62 211.415 222.884 212.352 222.884 213.803C222.697 215.535 221.48 216.986 219.841 217.547ZM204.628 218.25C201.82 218.25 200.275 217.173 200.275 215.067C200.135 213.381 201.445 211.884 203.131 211.79C203.177 211.79 203.224 211.79 203.271 211.79C204.909 211.79 205.892 212.82 206.033 214.973C206.033 216.003 206.173 216.986 206.22 218.25H204.628ZM255.931 215.722C255.931 217.36 255.275 218.109 253.263 218.109C252.092 218.156 250.969 217.875 249.986 217.267C250.454 215.394 250.641 213.428 250.595 211.462V209.45H247.365V211.462C247.505 213.288 247.271 215.113 246.663 216.845C246.241 217.781 245.258 218.343 244.229 218.156C243.292 218.156 242.309 217.922 241.467 217.501C241.982 215.535 242.216 213.522 242.122 211.462H238.939C239.08 213.241 238.892 215.067 238.331 216.752C237.909 217.688 236.926 218.25 235.897 218.062C234.867 218.062 233.884 217.828 232.948 217.36C233.416 215.441 233.65 213.475 233.603 211.462H230.326C230.467 213.241 230.28 215.067 229.718 216.752C229.39 217.594 228.595 218.109 227.705 218.062C226.441 218.109 225.131 218.016 223.867 217.875C225.365 216.611 226.254 214.786 226.301 212.82C226.301 209.964 223.726 207.718 219.794 207.718C216.658 207.952 213.709 209.075 211.182 210.901L212.633 213.803L213.382 213.381C214.599 214.739 215.675 216.237 216.565 217.828C214.786 218.062 212.96 218.156 211.135 218.109H209.543C209.543 216.564 209.543 215.628 209.543 214.645C209.309 210.479 206.969 208.092 203.505 208.092C199.854 208.139 196.952 211.135 196.999 214.786C196.999 214.879 196.999 215.02 196.999 215.113C196.999 219.233 199.854 221.807 204.254 221.807H206.126C205.518 223.539 203.224 224.616 199.292 224.616V227.799C206.22 227.799 209.122 225.364 209.637 221.76H211.182C214.318 221.947 217.407 221.433 220.309 220.262C222.603 221.339 225.084 221.854 227.612 221.76C229.156 221.807 230.654 221.152 231.637 219.935C232.901 220.964 234.446 221.62 236.084 221.76C237.629 221.807 239.08 221.199 240.109 220.028C241.326 221.058 242.871 221.713 244.509 221.854C246.148 221.901 247.739 221.152 248.769 219.841C249.939 221.058 251.578 221.76 253.263 221.854C257.288 221.854 259.441 219.701 259.441 216.377V201.726H255.837V215.722H255.931Z" fill="black"/>
<path d="M267.399 201.68H263.888V221.854H267.399V201.68Z" fill="black"/>
<path d="M283.922 205.19L286.029 203.084L288.182 205.19L290.71 202.569L288.088 199.948L286.029 202.054L283.876 199.948L281.301 202.569L283.922 205.19Z" fill="black"/>
<path d="M296.888 223.492L294.829 225.505L292.769 223.492L290.148 226.067L292.816 228.688L294.829 226.675L296.888 228.688L299.463 226.067L296.888 223.492Z" fill="black"/>
<path d="M282.518 218.25C280.927 218.25 279.991 217.407 279.991 216.05C279.991 213.897 281.863 212.165 285.28 211.463V216.05C285.28 216.612 285.327 217.127 285.42 217.688C284.531 218.063 283.501 218.25 282.518 218.25ZM290.803 221.948H293.097C297.123 221.948 299.276 219.795 299.276 216.471C299.182 213.756 298.901 211.088 298.433 208.42H294.829C295.297 210.854 295.578 213.382 295.671 215.863C295.671 217.407 295.016 218.25 293.003 218.25H290.803C289.352 218.25 288.791 217.548 288.791 216.237V206.875H285.28V208.373C278.774 209.45 276.574 213.335 276.574 216.424C276.48 219.327 278.727 221.761 281.629 221.901C281.91 221.901 282.191 221.901 282.471 221.854C284.016 221.761 285.514 221.293 286.778 220.45C287.854 221.433 289.305 221.948 290.803 221.854" fill="black"/>
<path d="M314.535 221.948H316.829C320.854 221.948 323.008 219.794 323.008 216.471C322.914 213.756 322.633 211.088 322.165 208.42H318.654C319.123 210.854 319.403 213.335 319.497 215.816C319.497 217.36 318.842 218.203 316.829 218.203H314.535C313.084 218.25 311.867 217.22 311.586 215.816C310.884 213.382 310.416 210.901 310.088 208.42H306.484C306.952 211.322 307.654 214.224 308.497 217.08L308.871 217.922C307.795 218.156 306.718 218.25 305.595 218.203C304.144 218.203 302.693 217.969 301.288 217.548L300.633 221.058C302.178 221.62 303.863 221.901 305.501 221.901C307.28 221.901 309.059 221.386 310.557 220.403C311.633 221.433 313.084 221.948 314.535 221.948Z" fill="black"/>
<path d="M320.714 223.492L318.654 225.505L316.595 223.492L313.974 226.067L316.642 228.688L318.654 226.675L320.714 228.688L323.288 226.067L320.714 223.492Z" fill="black"/>
<path d="M358.582 215.769C358.582 217.407 357.927 218.156 355.914 218.156C354.229 218.156 353.293 217.781 352.872 217.126L353.714 216.939L354.697 213.381C349.595 212.118 347.723 208.139 343.51 208.139C342.152 208.186 340.795 208.607 339.578 209.262L340.561 212.398C341.45 211.977 342.386 211.79 343.369 211.743C345.804 211.743 347.161 213.522 350.344 215.067C347.067 216.33 344.867 218.156 338.267 218.156C336.816 218.156 335.599 217.173 335.318 215.769C334.663 213.335 334.148 210.854 333.867 208.373H330.263C330.731 211.275 331.386 214.177 332.276 217.033L332.603 217.875C331.527 218.109 330.45 218.203 329.327 218.156C327.876 218.156 326.425 217.922 325.02 217.501L324.365 220.964C325.91 221.526 327.548 221.854 329.186 221.854C330.965 221.854 332.744 221.339 334.242 220.356C335.318 221.386 336.769 221.901 338.267 221.854C345.663 221.854 346.787 219.279 350.578 217.828C350.906 220.496 352.684 221.854 355.821 221.854C359.846 221.854 361.999 219.701 361.999 216.377V201.726H358.489L358.582 215.769Z" fill="black"/>
<path d="M370.05 201.68H366.54V221.854H370.05V201.68Z" fill="black"/>
<path d="M389.429 218.156C387.931 218.156 386.527 218.156 385.17 218.016C390.131 212.586 392.004 210.714 394.485 210.714C396.17 210.62 397.621 211.884 397.714 213.569C397.714 213.616 397.714 213.709 397.714 213.756C397.714 216.284 394.485 218.156 389.429 218.156ZM395.14 207.016C392.191 207.016 389.851 208.607 385.638 213.241C386.059 211.463 386.34 209.684 386.387 207.858V201.633H382.876V216.378C382.595 216.799 382.221 217.127 381.893 217.501C381.051 217.501 380.208 217.22 379.365 217.08L378.663 220.544C382.08 221.339 385.638 221.761 389.148 221.807C396.919 221.807 401.225 218.344 401.225 213.195C401.319 209.871 398.697 207.109 395.374 207.016C395.28 207.063 395.234 207.063 395.14 207.016Z" fill="black"/>
<path d="M447.379 206.454L449.953 203.88L447.379 201.258L444.757 203.88L447.379 206.454Z" fill="black"/>
<path d="M426.83 218.157H422.523C427.344 212.773 429.357 210.714 431.791 210.714C433.476 210.62 434.881 211.884 435.021 213.569C435.021 213.616 435.021 213.71 435.021 213.756C435.021 216.284 431.744 218.157 426.83 218.157ZM411.008 218.157C408.2 218.157 406.655 217.08 406.655 214.974C406.515 213.288 407.825 211.791 409.51 211.697C409.557 211.697 409.604 211.697 409.651 211.697C411.289 211.697 412.272 212.727 412.412 214.88C412.412 215.91 412.553 216.893 412.6 218.157H411.008ZM460.485 215.676C460.485 217.314 459.83 218.063 457.817 218.063C456.132 218.063 455.196 217.688 454.774 217.033L455.617 216.846L456.6 213.288C451.498 212.025 449.625 208.046 445.413 208.046C444.008 208.093 442.604 208.467 441.387 209.169L442.37 212.305C443.259 211.884 444.196 211.697 445.179 211.65C447.613 211.65 448.97 213.429 452.153 214.974C448.876 216.237 446.676 218.063 440.217 218.063C439.187 218.063 438.157 217.876 437.221 217.408C438.064 216.144 438.485 214.693 438.438 213.148C438.532 209.871 435.957 207.11 432.681 206.969C432.54 206.969 432.447 206.969 432.306 206.969C429.498 206.969 426.97 208.654 422.944 213.288C423.366 211.51 423.647 209.684 423.693 207.859V201.773H420.183V216.752C419.808 217.22 419.387 217.735 419.013 218.25H415.829C415.829 216.705 415.829 215.769 415.689 214.786C415.455 210.62 413.115 208.233 409.651 208.233C406 208.327 403.144 211.322 403.191 214.974C403.191 215.067 403.191 215.161 403.191 215.254C403.191 219.374 406.046 221.948 410.446 221.948H412.319C411.71 223.68 409.417 224.757 405.485 224.757V227.94C412.412 227.94 415.315 225.505 415.829 221.901H426.923C429.872 222.088 432.821 221.293 435.302 219.654C436.519 221.059 438.251 221.948 440.123 222.088C447.472 222.088 448.642 219.514 452.387 218.063C452.715 220.731 454.54 222.088 457.63 222.088C461.655 222.088 463.808 219.935 463.808 216.612V201.961H460.345L460.485 215.676Z" fill="black"/>
<path d="M472 201.68H468.489V221.854H472V201.68Z" fill="black"/>
</g>
<defs>
<clipPath id="clip0_247_583">
<rect width="312.787" height="174.14" fill="white" transform="translate(159.213 80.6787)"/>
</clipPath>
</defs>
</svg>
