<svg width="632" height="336" viewBox="0 0 632 336" fill="none" xmlns="http://www.w3.org/2000/svg">
<g clip-path="url(#clip0_176_839)">
<path d="M73.4698 234.17C74.475 233.492 75.8079 233.143 77.4468 233.143C79.2387 233.143 81.1835 233.558 83.2813 234.367L83.3906 234.41L84.5924 230.783L84.5049 230.739C82.1231 229.8 79.785 229.319 77.578 229.319C74.7809 229.319 72.4647 230.04 70.6728 231.417C68.8809 232.837 67.9631 234.65 67.9631 236.836C67.9631 239.59 69.2524 241.687 71.8091 243.064C72.6613 243.523 73.6883 243.916 74.8246 244.222C75.9609 244.528 76.9006 244.746 77.6216 244.899C78.3209 245.03 78.9109 245.315 79.4134 245.73C79.9161 246.123 80.1346 246.67 80.1346 247.368C80.1346 249.357 78.1462 250.384 74.2346 250.384H71.1098C65.7779 250.384 63.1994 248.264 63.1994 243.894C63.1994 242.736 63.3743 241.468 63.702 240.157L63.7239 240.005H60.0091L59.9872 240.092C59.5065 241.752 59.2661 243.326 59.2661 244.79C59.2661 247.937 60.3806 250.341 62.5876 251.914C64.7946 253.488 67.6572 254.295 71.1098 254.295H74.2346C77.3813 254.295 79.8505 253.684 81.555 252.46C83.3031 251.237 84.1773 249.532 84.1773 247.368C84.1773 246.319 83.9806 245.402 83.6091 244.615C83.2375 243.806 82.6913 243.173 81.9701 242.67C81.2708 242.19 80.5935 241.796 79.9598 241.534C79.348 241.272 78.5831 241.032 77.6653 240.792C75.349 240.179 73.7976 239.568 73.0547 239.021C72.3335 238.475 71.9838 237.754 71.9838 236.836C71.9838 235.721 72.4865 234.825 73.4698 234.148V234.17Z" fill="#4E4D4D"/>
<path d="M68.7935 256.809C68.1816 256.809 67.6353 257.027 67.1764 257.465C66.7394 257.901 66.499 258.448 66.499 259.081C66.499 259.715 66.7394 260.283 67.1764 260.72C67.6353 261.157 68.1816 261.376 68.7935 261.376C69.4053 261.376 69.9516 261.157 70.3886 260.72C70.8475 260.261 71.066 259.715 71.066 259.081C71.066 258.448 70.8475 257.901 70.3886 257.465C69.9516 257.027 69.4053 256.809 68.7935 256.809Z" fill="#4E4D4D"/>
<path d="M74.4528 256.809C73.8409 256.809 73.3165 257.027 72.8576 257.465C72.4205 257.901 72.1802 258.448 72.1802 259.081C72.1802 259.715 72.4205 260.283 72.8576 260.72C73.3165 261.157 73.8409 261.376 74.4528 261.376C75.0865 261.376 75.611 261.157 76.0699 260.72C76.5068 260.283 76.7472 259.715 76.7472 259.081C76.7472 258.448 76.5068 257.901 76.0699 257.465C75.611 257.027 75.0865 256.809 74.4528 256.809Z" fill="#4E4D4D"/>
<path d="M101.243 231.766C99.1014 230.127 96.1076 229.297 92.3928 229.297H90.3825V233.339H92.3274C95.1462 233.339 97.2221 233.776 98.5332 234.65C99.8225 235.525 100.456 236.857 100.456 238.606C100.456 240.048 100.128 241.075 99.4292 241.665C98.7517 242.255 97.5499 242.561 95.8892 242.561H88.6125V246.494H95.9111C98.6863 246.494 100.828 245.817 102.292 244.462C103.756 243.107 104.499 241.097 104.499 238.519C104.499 235.677 103.406 233.405 101.243 231.766Z" fill="#4E4D4D"/>
<path d="M190.224 223.157V238.169C190.224 239.677 189.874 240.813 189.197 241.512C188.497 242.212 187.404 242.561 185.919 242.561C184.324 242.561 183.122 242.212 182.423 241.534C181.701 240.836 181.352 239.699 181.352 238.169V229.298H177.309V238.169C177.309 241.119 176.326 242.561 174.272 242.561C172.043 242.561 170.95 241.119 170.95 238.169V230.324H166.908V238.169C166.908 241.119 165.924 242.561 163.87 242.561C161.642 242.561 160.549 241.119 160.549 238.169V230.324H156.528V238.169C156.528 239.677 156.179 240.791 155.479 241.491C154.802 242.212 153.709 242.561 152.223 242.561H146.323L149.907 239.305L149.951 239.283L149.973 238.169C149.973 235.634 149.099 233.514 147.35 231.832C145.624 230.149 143.439 229.298 140.882 229.298C138.326 229.298 136.184 230.149 134.458 231.832C132.71 233.514 131.836 235.634 131.836 238.169V239.283L135.463 242.561H124.865V238.825C124.865 235.94 124.1 233.602 122.57 231.898C121.063 230.171 119.096 229.276 116.736 229.276C114.223 229.276 112.191 230.171 110.705 231.898C109.219 233.645 108.476 235.7 108.476 238.038C108.476 240.354 109.197 242.321 110.639 243.981C112.082 245.643 114.114 246.494 116.692 246.494H120.604C119.905 248.965 117.916 250.21 114.726 250.21C113.83 250.21 112.89 250.123 111.951 249.99L111.819 249.969V253.837L111.907 253.859C113.24 254.121 114.463 254.23 115.578 254.23C118.135 254.23 120.232 253.552 121.806 252.219C123.379 250.908 124.341 248.986 124.712 246.494H137.67C138.282 246.494 138.828 246.363 139.331 246.079C139.812 245.817 140.139 245.577 140.314 245.358C140.467 245.183 140.664 244.921 140.882 244.616C141.123 244.943 141.319 245.183 141.472 245.358C141.647 245.577 141.975 245.817 142.456 246.079C142.936 246.363 143.483 246.494 144.095 246.494H152.223C155.108 246.494 157.337 245.556 158.823 243.741C159.85 245.556 161.554 246.494 163.87 246.494C166.187 246.494 168.022 245.621 169.29 243.894C170.339 245.621 172.021 246.494 174.272 246.494C176.523 246.494 178.489 245.577 179.757 243.807C180.959 245.577 183.035 246.494 185.941 246.494C188.519 246.494 190.573 245.73 192.037 244.265C193.524 242.801 194.266 240.725 194.266 238.147V223.135H190.224V223.157ZM120.888 242.561H116.736C115.381 242.561 114.31 242.103 113.524 241.185C112.715 240.267 112.322 239.174 112.322 237.951C112.322 236.727 112.715 235.634 113.502 234.716C114.289 233.798 115.359 233.34 116.67 233.34C117.872 233.34 118.877 233.798 119.686 234.738C120.473 235.656 120.888 237.011 120.888 238.738V242.561ZM140.882 242.714L135.835 238.06C135.922 236.661 136.446 235.525 137.364 234.651C138.304 233.776 139.484 233.34 140.882 233.34C142.281 233.34 143.461 233.776 144.401 234.651C145.318 235.525 145.843 236.661 145.93 238.06L140.882 242.714Z" fill="#4E4D4D"/>
<path d="M198.331 223.156H202.351V246.495H198.331V223.156Z" fill="#4E4D4D"/>
<path d="M224.64 226.544C225.274 226.544 225.82 226.325 226.258 225.866C226.694 225.429 226.912 224.883 226.912 224.271C226.912 223.637 226.694 223.113 226.258 222.654C225.82 222.217 225.274 221.977 224.64 221.977C224.007 221.977 223.46 222.217 223.023 222.654C222.587 223.113 222.367 223.66 222.367 224.271C222.367 224.883 222.587 225.429 223.023 225.866C223.46 226.325 224.007 226.544 224.64 226.544Z" fill="#4E4D4D"/>
<path d="M218.981 226.544C219.615 226.544 220.161 226.325 220.598 225.866C221.035 225.429 221.254 224.883 221.254 224.271C221.254 223.66 221.035 223.113 220.598 222.654C220.161 222.217 219.615 221.977 218.981 221.977C218.325 221.977 217.78 222.217 217.342 222.654C216.905 223.113 216.687 223.66 216.687 224.271C216.687 224.883 216.905 225.429 217.342 225.866C217.801 226.325 218.347 226.544 218.981 226.544Z" fill="#4E4D4D"/>
<path d="M236.899 249.096C236.287 249.096 235.741 249.314 235.305 249.772C234.845 250.21 234.605 250.756 234.605 251.368C234.605 251.98 234.845 252.527 235.305 252.963C235.741 253.423 236.287 253.641 236.899 253.641C237.511 253.641 238.058 253.423 238.494 252.963C238.954 252.527 239.172 251.98 239.172 251.368C239.172 250.756 238.954 250.21 238.494 249.772C238.058 249.314 237.511 249.096 236.899 249.096Z" fill="#4E4D4D"/>
<path d="M242.559 249.096C241.947 249.096 241.401 249.314 240.964 249.772C240.505 250.21 240.286 250.756 240.286 251.368C240.286 251.98 240.505 252.527 240.964 252.963C241.401 253.423 241.947 253.641 242.559 253.641C243.17 253.641 243.717 253.423 244.176 252.963C244.613 252.527 244.853 251.98 244.853 251.368C244.853 250.756 244.613 250.21 244.176 249.772C243.717 249.314 243.17 249.096 242.559 249.096Z" fill="#4E4D4D"/>
<path d="M256.544 242.561C254.665 242.561 253.244 242.19 252.326 241.469C251.452 240.748 250.994 239.59 250.994 238.038C250.994 236.487 251.517 235.35 252.545 234.476C253.572 233.602 254.926 233.165 256.588 233.165C257.986 233.165 259.646 233.536 261.482 234.258L261.592 234.301L262.968 230.74L262.859 230.696C260.477 229.734 258.335 229.254 256.457 229.254C253.725 229.254 251.452 230.062 249.661 231.636C247.868 233.209 246.952 235.329 246.952 237.907C246.952 240.005 247.628 241.556 248.961 242.561H246.339C244.723 242.561 243.543 242.212 242.821 241.512C242.121 240.836 241.772 239.699 241.772 238.169V231.461H237.73V238.169C237.73 239.677 237.38 240.792 236.681 241.49C236.003 242.19 234.911 242.539 233.425 242.539C231.961 242.539 230.869 242.19 230.191 241.49C229.514 240.792 229.163 239.677 229.163 238.169V227.876H225.143V229.494C224.334 229.407 223.635 229.363 223.045 229.363C220.051 229.363 217.56 230.127 215.638 231.68C213.693 233.231 212.709 235.46 212.709 238.3C212.709 240.354 213.387 242.147 214.72 243.632C216.031 245.118 217.8 245.861 219.92 245.861C222.805 245.861 224.793 244.572 225.842 242.059C226.411 243.414 227.35 244.507 228.596 245.271C229.929 246.101 231.545 246.516 233.425 246.516C236.374 246.516 238.603 245.556 240.068 243.698C241.248 245.556 243.367 246.516 246.339 246.516H263.449V242.561H256.544ZM225.121 236.247C225.121 237.972 224.705 239.392 223.876 240.42C223.045 241.469 221.931 241.994 220.554 241.994C219.353 241.994 218.413 241.621 217.735 240.901C217.036 240.158 216.686 239.261 216.686 238.212C216.686 236.64 217.298 235.372 218.478 234.498C219.68 233.602 221.253 233.143 223.133 233.143C223.767 233.143 224.444 233.187 225.121 233.318V236.247Z" fill="#4E4D4D"/>
<path d="M285.651 229.21C286.263 229.21 286.809 228.969 287.245 228.532C287.705 228.074 287.923 227.527 287.923 226.916C287.923 226.303 287.705 225.758 287.245 225.32C286.809 224.861 286.263 224.643 285.651 224.643C285.039 224.643 284.493 224.861 284.034 225.32C283.596 225.758 283.356 226.303 283.356 226.916C283.356 227.527 283.596 228.074 284.034 228.532C284.493 228.969 285.039 229.21 285.651 229.21Z" fill="#4E4D4D"/>
<path d="M326.797 223.157V238.169C326.797 239.677 326.448 240.813 325.771 241.512C325.071 242.212 323.979 242.561 322.493 242.561C321.028 242.561 319.892 242.256 319.171 241.665C318.472 241.076 318.057 240.136 317.948 238.847V238.474C317.948 235.874 316.942 233.667 314.954 231.942C312.966 230.193 310.517 229.32 307.699 229.32C305.448 229.32 303.481 229.822 301.843 230.805C300.335 231.701 299.134 232.991 298.259 234.607V229.298H294.26V242.561H292.272C290.654 242.561 289.452 242.212 288.754 241.512C288.054 240.836 287.683 239.699 287.683 238.169V231.46H283.64V238.169C283.64 239.677 283.291 240.791 282.613 241.491C281.914 242.19 280.821 242.54 279.358 242.54H275.838C274.375 242.54 273.282 242.19 272.605 241.491C271.906 240.769 271.578 239.654 271.578 238.169V223.135H267.535V238.169C267.535 240.725 268.278 242.801 269.742 244.265C271.207 245.752 273.238 246.494 275.817 246.494H279.336C282.285 246.494 284.514 245.556 285.978 243.676C287.158 245.556 289.278 246.494 292.25 246.494H309.622C312.528 246.494 314.779 245.577 316.286 243.741C317.444 245.577 319.542 246.494 322.493 246.494C325.071 246.494 327.126 245.752 328.611 244.265C330.075 242.801 330.84 240.747 330.84 238.169V223.135H326.797V223.157ZM312.877 241.556C312.201 242.234 311.086 242.561 309.622 242.561H298.237V241.883C298.325 239.523 299.286 237.492 301.143 235.831C303.001 234.192 305.208 233.362 307.699 233.362C309.513 233.362 311.021 233.842 312.179 234.782C313.337 235.722 313.926 236.967 313.926 238.498C313.926 239.852 313.577 240.901 312.877 241.556Z" fill="#4E4D4D"/>
<path d="M334.905 223.156H338.925V246.495H334.905V223.156Z" fill="#4E4D4D"/>
<path d="M361.214 226.544C361.848 226.544 362.394 226.325 362.832 225.866C363.268 225.429 363.487 224.883 363.487 224.271C363.487 223.637 363.268 223.113 362.832 222.654C362.394 222.217 361.848 221.977 361.214 221.977C360.581 221.977 360.034 222.217 359.597 222.654C359.161 223.113 358.941 223.66 358.941 224.271C358.941 224.883 359.161 225.429 359.597 225.866C360.034 226.325 360.581 226.544 361.214 226.544Z" fill="#4E4D4D"/>
<path d="M355.554 226.544C356.188 226.544 356.734 226.325 357.172 225.866C357.609 225.429 357.827 224.883 357.827 224.271C357.827 223.66 357.609 223.113 357.172 222.654C356.734 222.217 356.188 221.977 355.554 221.977C354.899 221.977 354.352 222.217 353.916 222.654C353.479 223.113 353.26 223.66 353.26 224.271C353.26 224.883 353.479 225.429 353.916 225.866C354.352 226.325 354.921 226.544 355.554 226.544Z" fill="#4E4D4D"/>
<path d="M373.474 249.096C372.861 249.096 372.316 249.314 371.856 249.772C371.419 250.21 371.179 250.756 371.179 251.368C371.179 251.98 371.419 252.527 371.856 252.963C372.316 253.423 372.861 253.641 373.474 253.641C374.085 253.641 374.632 253.423 375.068 252.963C375.528 252.527 375.746 251.98 375.746 251.368C375.746 250.756 375.528 250.21 375.068 249.772C374.632 249.314 374.085 249.096 373.474 249.096Z" fill="#4E4D4D"/>
<path d="M379.133 249.096C378.521 249.096 377.975 249.314 377.537 249.772C377.079 250.21 376.861 250.756 376.861 251.368C376.861 251.98 377.079 252.527 377.537 252.963C377.975 253.423 378.521 253.641 379.133 253.641C379.744 253.641 380.291 253.423 380.75 252.963C381.186 252.527 381.428 251.98 381.428 251.368C381.428 250.756 381.186 250.21 380.75 249.772C380.291 249.314 379.744 249.096 379.133 249.096Z" fill="#4E4D4D"/>
<path d="M416.193 229.21C416.805 229.21 417.351 228.969 417.789 228.532C418.247 228.074 418.465 227.527 418.465 226.916C418.465 226.303 418.247 225.758 417.789 225.32C417.351 224.861 416.805 224.643 416.193 224.643C415.581 224.643 415.035 224.861 414.576 225.32C414.14 225.758 413.898 226.303 413.898 226.916C413.898 227.527 414.14 228.074 414.576 228.532C415.035 228.969 415.581 229.21 416.193 229.21Z" fill="#4E4D4D"/>
<path d="M432.036 229.165C432.67 229.165 433.216 228.947 433.653 228.51C434.09 228.073 434.308 227.527 434.308 226.893C434.308 226.238 434.09 225.691 433.653 225.254C433.216 224.818 432.67 224.598 432.036 224.598C431.403 224.598 430.856 224.818 430.419 225.254C429.961 225.691 429.741 226.26 429.741 226.893C429.741 227.527 429.983 228.073 430.419 228.51C430.856 228.947 431.403 229.165 432.036 229.165Z" fill="#4E4D4D"/>
<path d="M426.354 229.165C426.988 229.165 427.534 228.947 427.972 228.51C428.409 228.073 428.649 227.527 428.649 226.893C428.649 226.238 428.409 225.691 427.972 225.254C427.534 224.818 426.988 224.598 426.354 224.598C425.721 224.598 425.174 224.818 424.738 225.254C424.301 225.691 424.082 226.26 424.082 226.893C424.082 227.527 424.301 228.073 424.738 228.51C425.174 228.947 425.721 229.165 426.354 229.165Z" fill="#4E4D4D"/>
<path d="M440.012 223.157V238.169C440.012 239.677 439.663 240.813 438.985 241.512C438.286 242.212 437.193 242.561 435.729 242.561C434.09 242.561 432.91 242.212 432.21 241.534C431.49 240.836 431.14 239.699 431.14 238.169V231.46H427.098V238.169C427.098 239.677 426.748 240.791 426.07 241.491C425.372 242.212 424.279 242.561 422.814 242.561C421.176 242.561 419.996 242.212 419.296 241.512C418.576 240.836 418.225 239.699 418.225 238.169V231.46H414.183V238.169C414.183 239.677 413.834 240.791 413.156 241.491C412.456 242.19 411.364 242.54 409.9 242.54C408.414 242.54 407.213 242.234 406.513 241.6C405.792 240.988 405.398 240.005 405.311 238.628C405.333 238.474 405.333 238.234 405.333 237.929C405.333 235.503 404.547 233.427 402.995 231.767C401.444 230.127 399.477 229.276 397.16 229.276C395.26 229.276 393.62 229.931 392.288 231.198C390.999 232.444 390.037 234.258 389.469 236.596C389.337 237.164 389.206 237.754 389.097 238.365C388.966 238.978 388.857 239.48 388.748 239.83C388.66 240.18 388.529 240.572 388.333 241.01C387.917 242.037 387.043 242.54 385.71 242.54H382.935C381.297 242.54 380.117 242.212 379.417 241.512C378.717 240.813 378.346 239.699 378.346 238.147V231.46H374.326V238.147C374.326 239.677 373.976 240.791 373.277 241.491C372.577 242.19 371.485 242.54 370.021 242.54C368.557 242.54 367.464 242.19 366.787 241.491C366.087 240.791 365.738 239.656 365.738 238.147V227.855H361.717V229.494C360.93 229.407 360.209 229.341 359.619 229.341C356.625 229.341 354.134 230.127 352.211 231.68C350.289 233.231 349.305 235.438 349.305 238.278C349.305 240.354 349.983 242.147 351.316 243.61C352.627 245.118 354.396 245.861 356.516 245.861C359.401 245.861 361.389 244.572 362.438 242.059C363.006 243.414 363.946 244.507 365.192 245.271C366.525 246.079 368.141 246.494 370.021 246.494C372.97 246.494 375.199 245.556 376.664 243.676C377.844 245.556 379.963 246.494 382.935 246.494H385.71C388.113 246.494 389.949 245.643 391.173 243.981C392.987 245.687 395.084 246.56 397.357 246.56C398.58 246.56 399.76 246.298 400.875 245.752C401.924 245.227 402.842 244.507 403.564 243.567C404.722 245.512 406.863 246.494 409.9 246.494C412.938 246.494 415.058 245.556 416.543 243.676C417.723 245.556 419.843 246.494 422.814 246.494C425.787 246.494 427.972 245.556 429.436 243.676C430.637 245.556 432.736 246.494 435.729 246.494C438.308 246.494 440.361 245.752 441.826 244.287C443.312 242.801 444.055 240.747 444.055 238.169V223.135H440.012V223.157ZM361.717 236.247C361.717 237.972 361.28 239.392 360.45 240.441C359.641 241.469 358.505 241.994 357.128 241.994C355.948 241.994 354.987 241.643 354.309 240.901C353.61 240.158 353.26 239.262 353.26 238.234C353.26 236.64 353.872 235.394 355.074 234.498C356.276 233.602 357.827 233.143 359.707 233.143C360.362 233.143 361.039 233.209 361.717 233.318V236.247ZM400.133 241.36C399.367 242.212 398.406 242.627 397.248 242.627C395.587 242.627 394.058 241.818 392.702 240.245C392.922 239.152 393.14 238.147 393.402 237.251C393.773 235.896 394.255 234.913 394.866 234.28C395.456 233.645 396.242 233.34 397.16 233.34C398.362 233.34 399.367 233.755 400.133 234.629C400.897 235.481 401.291 236.596 401.291 237.951C401.291 239.392 400.897 240.551 400.133 241.381V241.36Z" fill="#4E4D4D"/>
<path d="M448.097 223.156H452.14V246.495H448.097V223.156Z" fill="#4E4D4D"/>
<path d="M476.156 227.592C476.767 227.592 477.314 227.374 477.772 226.938C478.209 226.478 478.45 225.932 478.45 225.298C478.45 224.665 478.209 224.118 477.772 223.681C477.314 223.244 476.767 223.025 476.156 223.025C475.543 223.025 474.998 223.244 474.56 223.681C474.101 224.118 473.883 224.665 473.883 225.298C473.883 225.932 474.101 226.478 474.56 226.938C474.998 227.374 475.543 227.592 476.156 227.592Z" fill="#4E4D4D"/>
<path d="M484.896 231.897C483.367 230.171 481.422 229.297 479.062 229.297C476.527 229.297 474.495 230.192 473.009 231.985C471.544 233.754 470.78 235.852 470.78 238.234C470.78 240.463 471.478 242.408 472.812 244.025C474.167 245.664 476.024 246.516 478.362 246.516C480.416 246.516 482.033 245.708 483.191 244.134V245.292C483.191 247.63 482.558 249.335 481.312 250.34C480.045 251.324 477.925 251.826 474.997 251.826C469.382 251.826 466.54 249.466 466.54 244.834C466.54 243.828 466.649 242.779 466.846 241.73L466.868 241.599H463.153L463.131 241.665C462.782 243.173 462.607 244.528 462.607 245.73C462.607 249.073 463.766 251.63 466.082 253.312C468.376 255.017 471.369 255.868 474.997 255.868C478.931 255.868 481.967 254.973 484.043 253.181C486.12 251.411 487.169 248.766 487.169 245.292V238.825C487.169 235.961 486.382 233.623 484.874 231.897H484.896ZM481.705 241.425C480.875 242.19 480.001 242.561 479.062 242.561C477.751 242.561 476.68 242.102 475.915 241.184C475.129 240.266 474.735 239.174 474.735 237.95C474.735 236.705 475.129 235.634 475.893 234.694C476.658 233.798 477.707 233.318 478.996 233.318C480.176 233.318 481.181 233.776 481.967 234.694C482.776 235.612 483.191 236.923 483.213 238.584C483.016 239.721 482.514 240.681 481.705 241.425Z" fill="#4E4D4D"/>
<path d="M481.836 227.592C482.449 227.592 482.994 227.374 483.431 226.938C483.89 226.478 484.109 225.932 484.109 225.298C484.109 224.665 483.89 224.118 483.431 223.681C482.994 223.244 482.449 223.025 481.836 223.025C481.225 223.025 480.678 223.244 480.241 223.681C479.782 224.118 479.563 224.665 479.563 225.298C479.563 225.932 479.782 226.478 480.241 226.938C480.678 227.374 481.225 227.592 481.836 227.592Z" fill="#4E4D4D"/>
<path d="M505.393 231.897C503.885 230.171 501.919 229.297 499.559 229.297C496.98 229.297 494.926 230.192 493.44 231.985C491.976 233.754 491.232 235.852 491.232 238.234C491.232 240.594 491.91 242.43 493.243 244.068C494.576 245.686 496.477 246.516 498.859 246.516C500.914 246.516 502.53 245.708 503.71 244.134V244.265C503.71 246.297 503.186 247.828 502.203 248.788C501.176 249.75 499.624 250.231 497.548 250.231C496.63 250.231 495.69 250.166 494.751 250.012L494.62 249.99L494.598 253.771V253.88H494.685C495.996 254.142 497.243 254.273 498.401 254.273C501.307 254.273 503.623 253.399 505.239 251.673C506.857 249.968 507.666 247.477 507.666 244.287V238.846C507.666 235.961 506.901 233.645 505.393 231.919V231.897ZM502.29 241.294C501.459 242.124 500.541 242.561 499.581 242.561C498.181 242.561 497.089 242.102 496.325 241.206C495.559 240.288 495.167 239.196 495.167 237.95C495.167 236.705 495.559 235.612 496.325 234.694C497.067 233.776 498.138 233.318 499.514 233.318C500.629 233.318 501.612 233.754 502.399 234.585C503.186 235.416 503.623 236.639 503.71 238.19C503.601 239.392 503.143 240.441 502.29 241.272V241.294Z" fill="#4E4D4D"/>
<path d="M542.103 229.21C542.716 229.21 543.262 228.969 543.72 228.532C544.158 228.074 544.398 227.527 544.398 226.916C544.398 226.303 544.158 225.758 543.72 225.32C543.262 224.861 542.716 224.643 542.103 224.643C541.492 224.643 540.945 224.861 540.509 225.32C540.049 225.758 539.831 226.303 539.831 226.916C539.831 227.527 540.049 228.074 540.509 228.532C540.945 228.969 541.492 229.21 542.103 229.21Z" fill="#4E4D4D"/>
<path d="M571.408 231.941C569.419 230.192 566.993 229.319 564.152 229.319C561.901 229.319 559.935 229.821 558.296 230.805C556.788 231.701 555.586 232.99 554.712 234.607V229.297H550.714V242.561H548.725C547.087 242.561 545.907 242.212 545.207 241.512C544.507 240.834 544.136 239.698 544.136 238.169V231.46H540.094V238.169C540.094 239.676 539.765 240.79 539.067 241.49C538.389 242.19 537.274 242.539 535.811 242.539H532.162C530.675 242.539 529.561 242.255 528.84 241.665C528.14 241.097 527.725 240.157 527.616 238.868V238.496C527.616 235.656 526.524 233.383 524.36 231.745C522.218 230.105 519.225 229.274 515.51 229.274H513.5V233.318H515.444C518.264 233.318 520.34 233.754 521.651 234.629C522.94 235.503 523.595 236.836 523.595 238.584C523.595 240.026 523.246 241.054 522.546 241.643C521.869 242.234 520.667 242.539 519.006 242.539H511.751V246.472H519.028C522.218 246.472 524.557 245.577 525.998 243.806C527.2 245.577 529.276 246.472 532.162 246.472H535.811C538.76 246.472 540.989 245.533 542.454 243.654C543.634 245.533 545.753 246.472 548.725 246.472H566.075C568.654 246.472 570.708 245.752 572.193 244.309C573.68 242.867 574.422 240.901 574.422 238.452C574.422 235.852 573.395 233.645 571.408 231.898V231.941ZM569.331 241.556C568.654 242.212 567.539 242.561 566.075 242.561H554.69V241.883C554.778 239.523 555.761 237.47 557.597 235.83C559.454 234.192 561.661 233.361 564.152 233.361C565.966 233.361 567.474 233.842 568.632 234.781C569.79 235.721 570.38 236.967 570.38 238.474C570.38 239.852 570.03 240.878 569.331 241.556Z" fill="#4E4D4D"/>
<path d="M132.01 134.264C125.52 128.845 115.665 125.676 101.811 124.584C92.1091 123.884 85.3569 122.18 81.7732 119.514C78.4298 117.023 76.8128 113.461 76.8128 108.632C76.8128 101.617 78.9761 96.941 83.4557 94.3406C88.3505 91.4781 95.8239 90.0358 105.679 90.0358C110.202 90.0358 115.163 90.145 120.32 91.1939C130.087 93.1606 133.912 95.2365 133.912 95.2365L138.938 79.4814L136.25 78.6728C126.569 75.8103 116.233 74.3462 105.526 74.3462C74.8024 74.3462 59.2439 85.9932 59.2439 108.938C59.2439 119.623 62.6091 127.49 69.2739 132.341C75.6983 136.995 85.6409 139.749 99.7134 140.732C109.11 141.409 115.709 143.398 119.336 146.654C122.855 149.822 124.581 153.865 124.581 159.022C124.581 165.905 122.308 170.538 117.632 173.204C112.519 176.132 104.871 177.596 94.9279 177.596C84.1768 177.596 75.2176 176.307 68.2905 173.728L65.5372 172.701L60.7298 188.129L63.3739 188.959C72.8358 191.953 83.5213 193.46 95.059 193.46C126.198 193.46 141.975 181.814 141.975 158.869C141.975 148.052 138.61 139.792 132.01 134.264Z" fill="#4E4D4D"/>
<path d="M162.297 76.9902H179.08V191.275H162.297V76.9902Z" fill="#4E4D4D"/>
<path d="M291.31 106.927C289.147 99.4103 285.672 93.3572 280.953 88.965C276.276 84.6165 270.66 81.5136 264.215 79.678C257.964 77.8862 250.208 76.9902 241.161 76.9902H204.865V191.275H241.161C259.516 191.275 273.129 186.927 281.652 178.361C290.152 169.795 294.457 154.848 294.457 133.892C294.457 123.294 293.408 114.226 291.31 106.927ZM269.109 167.785C264.018 173.466 254.621 176.372 241.183 176.372H221.647V91.915H241.183C248.393 91.915 254.206 92.4394 258.446 93.4665C262.4 94.4499 265.897 96.3947 268.847 99.301C271.775 102.185 273.851 106.315 275.031 111.582C276.276 117.198 276.911 124.693 276.911 133.914C276.911 150.587 274.287 161.994 269.109 167.785Z" fill="#4E4D4D"/>
<path d="M389.054 91.915V76.9902H314.474V191.275H331.255V143.07H376.008V128.167H331.255V91.915H389.054Z" fill="#4E4D4D"/>
<path d="M475.412 76.8154L442.416 134.045L459.308 163.37H481.574L464.684 134.045L486.6 96.1762H530.26L552.156 134.045L530.26 171.915H519.946L508.78 191.275H541.427L574.444 134.045L541.427 76.8154H475.412Z" fill="#4A9A1C"/>
<path d="M432.91 76.8154L399.805 134.045L432.91 191.275H498.924L531.921 134.045L515.029 104.72H492.675L509.566 134.045L487.736 171.915H443.989L422.159 134.045L443.989 96.1762H454.391L465.469 76.8154H432.91Z" fill="#4A9A1C"/>
</g>
<defs>
<clipPath id="clip0_176_839">
<rect width="516.619" height="187.972" fill="white" transform="translate(58.1418 74.0146)"/>
</clipPath>
</defs>
</svg>
