<svg width="632" height="336" viewBox="0 0 632 336" fill="none" xmlns="http://www.w3.org/2000/svg">
<g clip-path="url(#clip0_247_651)">
<mask id="mask0_247_651" style="mask-type:luminance" maskUnits="userSpaceOnUse" x="151" y="-66" width="330" height="467">
<path d="M151 -65.5634H480.681V400.7H151V-65.5634Z" fill="white"/>
</mask>
<g mask="url(#mask0_247_651)">
<path d="M393.226 129.379L387.996 119.674L438.646 92.2052V109.989C438.646 109.989 435.143 107.19 431.491 108.808L393.226 129.379Z" fill="black"/>
<path d="M343.421 84.2405C360.599 90.5121 376.537 103.344 383.9 114.091L428.586 78.2763L412.311 71.2804C412.311 71.2804 413.482 75.5969 410.595 78.4452L385.111 99.2255C385.111 99.2255 379.98 93.5687 375.782 90.3736C378.422 86.4935 380.615 83.695 381.756 81.3529C382.64 78.9908 382.163 77.0756 381.28 76.0931C377.093 71.935 362.872 63.9465 362.872 63.9465C364.41 58.9549 367.337 57.1588 367.337 57.1588L358.654 47.4435L350.15 68.6702C350.15 68.6702 362.038 73.2747 367.665 77.7308C368.34 78.0581 368.558 79.6061 368.012 80.5293C367.466 81.601 366.058 83.6751 366.058 83.6751C366.058 83.6751 357.503 78.0781 347.619 74.6244L343.421 84.2405Z" fill="black"/>
<path d="M331.479 68.6965L316.703 66.8805C316.703 66.8805 317 55.8653 322.121 51.3201C328.442 45.1078 337.89 46.2492 346.88 43.5399L341.998 71.1178C341.998 71.1178 340.4 81.0319 331.271 81.6273C321.536 82.4807 319.332 76.0303 319.332 76.0303C319.332 76.0303 329.96 78.2035 331.479 68.6965ZM328.79 59.17L333.424 59.5372L334.297 54.8829C334.297 54.8829 328.79 53.8112 328.79 59.17Z" fill="black"/>
<path d="M312.008 79.9767L301.508 80.751L297.331 27.1729L313.516 34.3977C313.516 34.3977 309.576 36.4911 309.487 40.4804L312.008 79.9767Z" fill="black"/>
<path d="M371.888 118.789C361.012 109.57 346.98 104.102 331.628 104.102C297.024 104.102 268.99 132.335 268.99 167.137C268.99 201.949 297.024 230.153 331.628 230.153C347.238 230.153 361.498 224.466 372.434 214.949C358.719 231.76 337.87 242.547 314.52 242.547C273.198 242.547 239.695 208.846 239.695 167.217C239.695 125.587 273.198 91.8664 314.52 91.8664C337.602 91.8664 358.184 102.336 371.888 118.789Z" fill="black"/>
<path d="M260.846 102.927C260.846 101.031 262.424 99.4236 264.3 99.4236C266.245 99.4236 267.783 101.031 267.783 102.927C267.783 104.872 266.245 106.41 264.3 106.41C262.424 106.41 260.846 104.872 260.846 102.927Z" fill="black"/>
<path d="M252.686 110.215C252.686 108.28 254.234 106.722 256.14 106.722C258.065 106.722 259.623 108.28 259.623 110.215C259.623 112.13 258.065 113.698 256.14 113.698C254.234 113.698 252.686 112.13 252.686 110.215Z" fill="black"/>
<path d="M204.262 89.6648C204.262 87.7297 205.8 86.1917 207.716 86.1917C209.621 86.1917 211.179 87.7297 211.179 89.6648C211.179 91.6098 209.621 93.1777 207.716 93.1777C205.8 93.1777 204.262 91.6098 204.262 89.6648Z" fill="black"/>
<path d="M198.515 99.8806C198.515 97.9455 200.073 96.3976 201.959 96.3976C203.904 96.3976 205.442 97.9455 205.442 99.8806C205.442 101.846 203.904 103.394 201.959 103.394C200.073 103.394 198.515 101.846 198.515 99.8806Z" fill="black"/>
<path d="M260.018 56.623L273.147 49.0317L271.351 45.7469L266.866 48.3173C266.866 48.3173 265.972 48.2973 265.774 47.5729C265.099 46.6004 266.051 45.6378 266.051 45.6378L269.952 43.4347L268.424 40.6362L262.439 44.4172C262.439 44.4172 260.723 46.0942 261.725 48.4363C262.29 49.5473 263.392 50.6589 263.392 50.6589L258.142 53.7653L260.018 56.623Z" fill="black"/>
<path d="M266.958 299.888L287.223 251.352L279.164 247.809L258.702 296.187L266.958 299.888Z" fill="black"/>
<path d="M225.276 275.571L218.111 269.994L251.038 229.198L261.944 238.03C263.691 239.4 264.792 243.349 263.125 245.612C263.125 245.612 257.151 254.92 248.577 264.536C246.454 266.441 243.952 266.62 242.007 265.757L236.51 261.529L225.276 275.571ZM241.472 254.96L243.159 256.34C243.774 256.826 244.657 256.578 245.094 255.923L254.005 244.689C254.005 244.689 254.739 243.855 254.134 243.052L252.179 241.613L241.472 254.96Z" fill="black"/>
<path d="M217.993 215.937C217.993 215.937 215.938 217.198 215.968 219.906L216.186 230.218C216.167 232.004 215.065 232.887 215.065 232.887L206.411 238.96C205.717 239.496 204.595 239.208 204.08 238.503C203.653 237.809 203.524 236.568 204.218 236.102L213.715 229.483L208.853 222.398L195.505 231.746C192.886 233.602 192.241 237.303 194.096 239.952L199.306 247.464C201.152 250.124 204.774 250.72 207.394 248.854L222.032 238.563C222.032 238.563 224.086 237.412 224.066 234.703L223.868 224.372C223.868 222.586 225.078 221.643 225.078 221.643L230.824 217.584C231.538 217.108 232.57 217.426 233.037 218.09C233.533 218.825 233.523 219.996 232.819 220.492L225.634 225.553L230.576 232.559L240.767 225.394C243.417 223.519 244.032 219.857 242.197 217.297L236.927 209.705C235.101 207.045 231.469 206.43 228.849 208.296L217.993 215.937Z" fill="black"/>
<path d="M305.55 282.192L309.817 307.934H314.372L318.728 282.014V307.964H327.203V255.3L315.91 255.29L312.139 279.027L308.318 255.29H297.025V307.964H305.55V282.192Z" fill="black"/>
<path d="M435.876 237.257L430.726 244.928C428.959 247.578 425.337 248.302 422.707 246.496L388.918 223.543C386.278 221.756 385.573 218.144 387.36 215.455L392.48 207.814C394.256 205.144 397.869 204.42 400.508 206.245L434.298 229.179C436.928 230.975 437.642 234.588 435.876 237.257ZM426.32 236.384C426.776 235.639 426.597 234.737 425.923 234.25L398.98 215.961C398.295 215.524 397.332 215.653 396.896 216.338C396.41 217.063 396.608 217.985 397.293 218.482L424.226 236.741C424.89 237.217 425.883 237.069 426.32 236.384Z" fill="black"/>
<path d="M390.832 257.453L398.722 267C399.258 267.655 399.029 268.786 398.414 269.342C397.759 269.838 396.658 270.017 396.111 269.392L375.262 244.374C374.716 243.729 374.915 242.508 375.59 241.913C376.165 241.407 377.356 241.307 377.882 241.913L383.35 248.561L389.969 243.034L381.822 233.21C379.767 230.759 376.115 230.431 373.645 232.525L366.648 238.41C364.187 240.484 363.88 244.156 365.875 246.646L392.093 278.094C394.147 280.496 397.818 280.853 400.309 278.76L407.276 272.875C409.737 270.79 410.074 267.079 408 264.569L397.432 251.956L390.832 257.453Z" fill="black"/>
<path d="M362.607 287.816L357.903 289.612L360.969 300.309L353.636 302.423L339.257 251.981L351.473 247.238L374.357 294.395L367.45 297.739L362.607 287.816ZM355.561 281.335L358.896 280.085L349.944 261.597L355.561 281.335Z" fill="black"/>
<path d="M234.856 130.44C234.856 130.44 220.001 124.198 223.643 106.296C219.137 104.549 216.845 106.891 216.845 106.891V90.7254L239.669 103.547C243.956 98.0492 251.36 91.3706 255.637 88.2741C255.637 88.2741 252.312 82.856 249.295 78.7178C249.295 78.7178 246.616 76.1375 243.986 76.6537L251.687 63.5445C251.687 63.5445 262.931 80.6136 264.121 82.727C272.051 77.3088 283.879 73.6768 283.879 73.6768L282.014 64.9535C280.743 61.0739 276.645 61.0739 276.645 61.0739L288.464 46.1382L296.601 81.0898C281.359 84.3646 270.433 90.0608 259.735 98.6047C250.397 105.482 239.997 119.187 234.856 130.44ZM231.612 115.326C232.306 114.007 233.914 111.406 233.914 111.406L230.797 109.65C230.797 109.65 229.111 113.55 231.612 115.326Z" fill="black"/>
</g>
</g>
<defs>
<clipPath id="clip0_247_651">
<rect width="631.107" height="335.749" fill="white"/>
</clipPath>
</defs>
</svg>
