<svg width="632" height="336" viewBox="0 0 632 336" fill="none" xmlns="http://www.w3.org/2000/svg">
<path d="M21.0302 245.555C19.334 247.252 16.9619 247.583 14.5898 247.583C12.549 247.583 10.177 246.907 8.48072 245.555C7.12903 244.535 6.43994 242.839 6.43994 240.798H10.177C10.177 241.818 10.5215 242.839 11.1974 243.183C12.2177 244.19 13.5694 244.19 14.5898 244.19C15.9415 244.19 17.3065 243.859 17.9823 243.183C18.3136 242.839 18.6581 242.163 18.6581 241.143C18.6581 239.791 17.6378 239.102 16.2861 238.77C14.9211 238.426 13.2249 238.426 11.8732 238.095C9.15657 238.095 6.78449 236.054 6.78449 232.661C6.78449 230.965 7.46033 229.613 8.48072 228.593C9.83241 227.228 12.2177 226.552 14.5898 226.552C16.6174 226.552 19.0027 227.228 20.3544 228.593C21.7061 229.613 22.3952 231.31 22.3952 233.006H18.6581C18.6581 232.317 18.3136 231.641 17.6378 230.965C16.9619 230.289 15.6102 229.945 14.5898 229.945C13.5694 229.945 12.2177 230.289 11.1974 230.965C10.8528 231.31 10.5215 231.986 10.5215 232.661C10.5215 234.013 11.5287 234.702 12.549 235.033C13.914 235.378 15.6102 235.378 16.9619 235.709C20.0098 236.054 22.7265 238.095 22.7265 241.487C22.7265 243.183 22.0506 244.535 21.0302 245.555Z" fill="black"/>
<path d="M36.9722 246.575C35.965 247.251 34.9446 247.927 33.2484 247.927C31.5522 247.927 29.8559 247.251 29.1801 246.575V253.36H25.7876V232.661H28.8355L29.1801 234.357C30.1872 233.006 31.8835 232.316 33.2484 232.316C34.6001 232.316 35.965 233.006 36.9722 233.681C38.6684 235.033 39.6888 237.405 39.6888 240.122C39.6888 242.838 38.6684 245.21 36.9722 246.575ZM34.9446 236.053C34.2688 235.378 33.5797 235.033 32.5725 235.033C29.8559 235.033 29.1801 237.75 29.1801 239.79C29.1801 241.818 29.8559 244.535 32.5725 244.535C33.5797 244.535 34.6001 243.859 34.9446 243.514C35.6205 242.494 35.965 241.142 35.965 239.79C35.965 238.426 35.6205 237.074 34.9446 236.053Z" fill="black"/>
<path d="M53.9348 245.555C52.9276 246.907 50.8868 247.927 48.5147 247.927C46.1427 247.927 44.4464 246.907 43.0815 245.555C42.0611 244.19 41.3853 242.494 41.3853 240.122C41.3853 237.405 42.0611 236.053 43.0815 234.702C44.1019 233.337 46.1427 232.316 48.5147 232.316C50.8868 232.316 52.5831 233.337 53.9348 234.702C54.9552 236.053 55.631 237.75 55.631 240.122C55.631 242.494 54.9552 243.859 53.9348 245.555ZM50.8868 236.053C50.5423 235.378 49.5351 235.033 48.5147 235.033C47.4944 235.033 46.8185 235.378 46.1427 236.053C45.1223 237.074 45.1223 238.426 45.1223 239.79C45.1223 241.142 45.4536 242.494 46.1427 243.514C46.474 244.19 47.4944 244.535 48.5147 244.535C49.5351 244.535 50.211 244.19 50.8868 243.514C51.9072 242.494 51.9072 241.142 51.9072 239.79C51.9072 238.426 51.9072 237.074 50.8868 236.053Z" fill="black"/>
<path d="M66.4977 235.378C63.7811 235.378 62.7607 237.074 62.7607 239.79V247.251H59.0237V232.316H62.0849L62.4162 234.702C63.1052 233.006 64.8015 232.316 66.829 232.316C67.1736 232.316 67.5049 232.316 67.8494 232.316V235.709C67.1736 235.709 66.829 235.378 66.4977 235.378Z" fill="black"/>
<path d="M75.6542 247.583C72.593 247.583 71.2413 245.887 71.2413 242.839V235.033H68.5247V231.985H71.2413V228.248L74.9783 227.228V231.985H78.7021V235.033H74.9783V242.494C74.9783 243.515 75.6542 244.19 76.6745 244.19C77.3504 244.19 78.0262 244.19 79.0466 244.19V247.252C77.6817 247.583 76.6745 247.583 75.6542 247.583Z" fill="black"/>
<path d="M91.941 245.887C90.5761 247.252 88.8799 247.583 86.8523 247.583C84.8115 247.583 83.1153 246.907 82.0949 245.887C81.0745 245.211 80.3987 243.859 80.3987 242.494H83.7912C83.7912 243.183 84.1357 243.859 84.467 244.191C85.1561 244.535 85.8319 244.88 86.8523 244.88C88.204 244.88 89.9003 244.535 89.9003 242.839C89.9003 241.819 89.2244 241.487 88.5486 241.143C87.1836 240.798 85.8319 240.798 84.467 240.467C82.4395 240.122 81.0745 238.426 81.0745 236.399C81.0745 234.702 81.7636 233.682 82.7708 233.006C83.7912 231.986 85.4874 231.641 87.1836 231.641C88.8799 231.641 90.9207 232.317 91.941 233.337C92.6169 234.358 93.2927 235.378 93.2927 236.399H89.9003C89.9003 235.709 89.5557 235.378 89.2244 235.034C88.8799 234.702 87.8595 234.358 87.1836 234.358C86.5078 234.358 86.1632 234.358 85.4874 234.702C84.8115 235.034 84.467 235.378 84.467 236.399C84.467 237.406 85.4874 237.75 86.1632 237.75C87.5282 238.095 87.8595 238.095 89.2244 238.095C91.5965 238.426 93.2927 240.122 93.2927 242.494C93.2927 244.191 92.9482 245.211 91.941 245.887Z" fill="black"/>
<path d="M116.02 245.887C114.324 247.252 112.627 247.252 110.6 247.252H102.45V226.552H110.6C112.296 226.552 113.992 226.897 115.344 227.573C116.696 228.593 117.716 230.289 117.716 231.986C117.716 233.682 117.04 235.378 115.344 236.398C117.385 237.406 118.392 239.102 118.392 241.143C118.061 243.183 117.385 244.88 116.02 245.887ZM110.6 229.945H105.842V235.033H110.6C112.296 235.033 113.648 234.358 113.648 232.317C113.992 230.621 112.296 229.945 110.6 229.945ZM110.6 238.426H105.842V244.19H110.6C112.296 244.19 114.324 243.515 114.324 241.487C114.324 239.102 112.627 238.426 110.6 238.426Z" fill="black"/>
<path d="M132.306 245.555C131.285 246.907 129.258 247.927 126.873 247.927C124.501 247.927 122.804 246.907 121.453 245.555C120.432 244.19 119.756 242.494 119.756 240.122C119.756 237.405 120.432 236.053 121.453 234.702C122.473 233.337 124.501 232.316 126.873 232.316C129.258 232.316 130.954 233.337 132.306 234.702C133.326 236.053 134.002 237.75 134.002 240.122C134.002 242.494 133.658 243.859 132.306 245.555ZM129.258 236.053C128.913 235.378 127.893 235.033 126.873 235.033C125.865 235.033 125.176 235.378 124.501 236.053C123.48 237.074 123.48 238.426 123.48 239.79C123.48 241.142 123.825 242.494 124.501 243.514C124.845 244.19 125.865 244.535 126.873 244.535C127.893 244.535 128.569 244.19 129.258 243.514C130.265 242.494 130.265 241.142 130.265 239.79C130.61 238.426 130.265 237.074 129.258 236.053Z" fill="black"/>
<path d="M146.896 247.251L146.552 245.211C145.876 246.576 144.18 247.583 142.139 247.583C139.091 247.583 137.05 245.555 137.05 242.163V231.985H140.787V241.142C140.787 242.839 141.463 243.859 143.504 243.859C144.18 243.859 144.855 243.514 145.2 243.183C146.22 242.494 146.22 241.142 146.22 239.791V231.985H149.944V246.907H146.896V247.251Z" fill="black"/>
<path d="M158.095 247.583C155.709 247.583 154.013 246.576 154.013 243.515V226.552H157.75V242.839C157.75 243.859 158.095 244.19 159.102 244.19C159.446 244.19 159.446 244.19 159.791 244.19V247.252C159.102 247.583 158.77 247.583 158.095 247.583Z" fill="black"/>
<path d="M175.056 241.142H164.879C164.879 242.163 165.21 243.514 165.886 244.19C166.575 244.535 167.251 245.211 168.271 245.211C169.278 245.211 169.967 244.879 170.299 244.535C170.643 244.19 170.975 243.859 170.975 243.183H174.367C174.367 244.19 173.691 245.211 173.015 245.887C171.664 247.251 169.967 247.927 167.927 247.927C165.886 247.927 164.534 247.251 163.182 246.231C161.818 244.879 160.797 242.839 160.797 240.122C160.797 237.75 161.486 235.709 162.838 234.013C163.858 233.006 165.555 231.985 167.582 231.985C169.967 231.985 171.995 233.006 173.015 234.702C174.036 236.398 174.367 238.094 174.367 239.791C175.056 240.122 175.056 240.798 175.056 241.142ZM170.643 235.709C170.299 235.033 169.278 234.702 168.271 234.702C167.251 234.702 166.23 235.033 165.886 235.709C165.21 236.398 165.21 237.074 165.21 238.094H171.664C171.664 237.074 171.319 236.398 170.643 235.709Z" fill="black"/>
<path d="M185.234 247.251H181.497L176.063 232.316H179.8L183.538 242.838L186.93 232.316H190.654L185.234 247.251Z" fill="black"/>
<path d="M203.892 247.583C202.196 247.583 201.507 246.576 201.176 245.555C200.5 246.907 198.804 247.927 196.763 247.927C193.026 247.927 191.33 245.555 191.33 243.183C191.33 240.467 193.715 238.77 196.418 238.426L200.831 238.094V237.074C200.831 235.709 200.5 234.702 198.115 234.702C196.418 234.702 195.411 235.378 195.411 236.73H192.019C192.35 233.337 195.067 231.985 198.115 231.985C200.831 231.985 202.872 232.661 203.892 235.033C204.224 236.054 204.224 237.074 204.224 238.094V243.514C204.224 244.19 204.568 244.535 204.899 244.535C205.244 244.535 205.244 244.535 205.244 244.535V247.251C205.244 247.583 204.899 247.583 203.892 247.583ZM200.831 240.798L197.107 241.142C196.087 241.142 195.067 241.818 195.067 243.183C195.067 244.19 196.087 245.211 197.107 245.211C199.479 245.211 200.831 243.859 200.831 241.818V240.798Z" fill="black"/>
<path d="M216.098 235.378C213.381 235.378 212.374 237.074 212.374 239.79V247.251H208.637V232.316H211.685L212.029 234.702C212.705 233.006 214.401 232.316 216.442 232.316C216.773 232.316 217.118 232.316 217.462 232.316V235.709C217.118 235.709 216.442 235.378 216.098 235.378Z" fill="black"/>
<path d="M228.992 247.251L228.647 245.555C227.64 246.907 225.944 247.583 224.579 247.583C223.227 247.583 221.862 246.907 220.855 246.231C219.159 244.879 218.138 242.494 218.138 239.791C218.138 236.729 219.159 234.702 220.855 233.006C221.862 232.317 222.883 231.641 224.579 231.641C226.62 231.641 227.971 232.317 228.647 233.006V226.221H232.384V247.251H228.992ZM225.255 235.033C224.248 235.033 223.227 235.709 222.883 236.054C222.207 237.074 221.862 238.426 221.862 239.791C221.862 241.142 222.207 242.494 222.883 243.514C223.558 244.19 224.248 244.535 225.255 244.535C227.971 244.535 228.647 241.818 228.647 239.791C228.647 237.75 227.971 235.033 225.255 235.033Z" fill="black"/>
<path d="M222.551 84.0684H232.039V133.604H222.551V84.0684Z" fill="black"/>
<path d="M23.4023 97.9829H13.914V129.536C13.914 134.28 13.2249 138.693 6.43994 138.693V147.174C17.9823 147.505 23.4023 139.368 23.4023 130.887C23.4023 129.867 23.4023 97.9829 23.4023 97.9829Z" fill="black"/>
<path d="M205.589 84.0684V117.662C205.589 122.406 203.203 124.778 198.115 124.778C192.695 124.778 190.323 122.061 190.323 118.669C190.323 113.58 186.93 102.051 174.036 102.051C162.162 102.051 157.749 112.573 157.749 118.669C157.749 125.454 150.965 125.123 148.924 125.123C147.917 125.123 127.893 125.123 127.893 125.123V97.9828H118.736V124.778H106.862V97.9828H97.3608V124.778H85.4872V97.9828H75.9856V124.778H48.5145C42.0608 124.778 39.6888 122.406 39.6888 117.662V84.0684H30.5317V117.662C30.5317 127.15 36.6408 133.259 48.5145 133.259H150.289C153.337 133.259 157.405 132.239 159.79 130.887C159.79 130.887 162.838 139.713 174.036 139.713C185.234 139.713 188.282 131.232 188.282 130.887C190.998 132.239 194.722 132.928 198.115 132.928C208.637 132.928 215.077 126.474 215.077 117.317V84.0684H205.589ZM174.367 131.232C174.036 131.232 174.036 131.232 174.367 131.232C170.299 131.232 167.582 128.515 167.582 121.054C167.582 112.904 170.299 110.188 174.036 110.188C177.76 110.188 180.476 112.904 180.476 121.054C180.821 128.515 178.104 131.232 174.367 131.232Z" fill="black"/>
<path d="M222.551 151.586H232.039V201.109H222.551V151.586Z" fill="black"/>
<path d="M108.214 151.586H117.716V161.075H108.214V151.586Z" fill="black"/>
<path d="M143.503 205.866H151.985V215.354H143.503V205.866Z" fill="black"/>
<path d="M155.709 205.866H164.19V215.354H155.709V205.866Z" fill="black"/>
<path d="M18.314 205.866H26.7951V215.354H18.314V205.866Z" fill="black"/>
<path d="M30.5317 205.866H39.0129V215.354H30.5317V205.866Z" fill="black"/>
<path d="M160.797 185.166C160.797 189.579 158.77 191.951 153.005 191.951C147.227 191.951 145.531 189.235 145.531 184.822V151.242H136.043V185.166C136.043 194.323 142.139 200.777 153.005 200.777C163.858 200.777 170.299 194.668 170.299 185.511V165.156H160.797V185.166Z" fill="black"/>
<path d="M205.589 151.586V185.167C205.589 189.579 203.203 192.296 198.115 192.296C192.695 192.296 190.322 189.579 190.322 185.511V165.488H180.821V197.04C180.821 201.784 180.145 206.197 173.36 206.197V214.678C184.213 215.023 189.633 207.562 190.322 199.757C192.695 200.433 196.087 201.109 198.115 201.109C208.981 201.109 215.077 194.668 215.077 185.511V151.918H205.589V151.586Z" fill="black"/>
<path d="M113.303 166.163C103.815 166.163 98.0367 172.948 94.313 179.402V165.156H85.1559V191.951H65.8082V165.156C53.9346 165.156 40.7092 165.832 40.7092 181.774C40.7092 186.187 40.7092 191.607 40.7092 191.607H16.6174C19.0027 175.334 27.4839 175.334 34.2688 175.334V167.184C20.6989 167.184 7.46033 171.941 6.43994 200.433H50.5421V182.45C50.5421 176.01 53.9346 174.313 56.6512 174.313V200.433H111.607C125.521 200.433 128.914 187.883 128.914 181.774C128.569 175.334 124.501 166.163 113.303 166.163ZM111.275 191.951H97.0296C99.4017 185.167 104.146 174.313 112.972 174.313C117.04 174.313 119.081 178.037 119.081 181.774C119.081 187.539 116.364 191.951 111.275 191.951Z" fill="black"/>
<path d="M337.551 218.416C337.206 216.72 336.199 215.023 334.834 213.658C333.138 211.962 330.766 210.955 328.049 210.955C325.677 210.955 323.305 211.962 321.264 213.658L318.892 216.044V201.785L339.591 181.099L346.708 208.57L338.227 221.808L337.551 218.416Z" fill="#ABC877"/>
<path d="M482.751 217.74C482.407 216.375 482.075 215.354 481.386 214.003C479.69 209.59 476.987 205.866 473.594 202.474C470.533 199.413 467.14 197.04 463.417 195.344L462.052 194.668L462.728 193.303C464.768 189.58 467.816 186.518 471.553 184.146C475.29 182.119 479.69 180.754 483.772 180.754C488.171 180.754 492.253 181.774 495.976 184.146C499.714 186.187 502.761 189.58 504.802 193.303L505.478 194.668L504.126 195.344C500.389 197.04 496.997 199.413 493.949 202.474C490.556 205.866 487.84 209.59 486.144 214.003C485.468 215.354 485.123 216.375 484.779 217.74L483.427 222.484L482.751 217.74Z" fill="#ABC877"/>
<path d="M464.769 104.768L484.103 123.757L464.769 143.105V104.768Z" fill="#ABC877"/>
<path d="M520.4 181.774C517.352 181.774 514.636 181.098 511.919 180.078C509.216 179.057 506.83 177.706 504.803 175.665C502.762 173.969 501.066 171.941 499.714 169.9C498.349 167.528 497.342 165.156 496.653 162.771L496.322 161.075H545.168L544.837 162.771C543.816 167.184 541.776 170.921 538.383 174.313C536.011 176.685 533.294 178.382 530.578 179.733C526.854 181.098 523.793 181.774 520.4 181.774Z" fill="#A8D4DF"/>
<path d="M318.892 173.638L353.837 138.692L395.223 180.078L428.803 146.498L445.09 162.771L423.714 184.146L422.707 183.815C419.315 182.119 415.233 181.098 411.509 181.098C402.352 181.098 394.202 186.187 389.79 193.992L389.114 194.999L387.762 194.668C384.37 193.303 380.633 192.627 376.909 192.296H376.22L352.141 168.204L318.548 202.129L318.892 173.638Z" fill="#A8D4DF"/>
<path d="M279.879 236.73C279.203 236.054 278.859 235.709 278.183 235.033C275.466 232.317 273.094 229.613 271.053 226.552C269.026 223.504 267.33 220.112 265.633 216.719C262.572 209.59 261.22 202.129 261.22 194.324C261.22 193.993 261.22 193.648 261.22 193.648V191.276L290.732 208.57L300.234 223.504L296.841 222.484C295.821 222.139 294.801 222.139 293.794 222.139C290.732 222.139 288.016 223.16 285.644 225.532C283.616 227.573 282.251 230.621 282.251 233.682C282.251 234.358 282.251 235.033 282.596 235.709L283.272 240.122L279.879 236.73Z" fill="#A8D4DF"/>
<path d="M558.405 136.996C555.689 136.32 553.317 135.3 551.276 133.604C548.904 132.239 547.208 130.211 545.511 128.17C543.471 125.798 542.119 123.426 541.099 120.365C540.078 117.317 539.402 114.269 539.402 111.208C539.402 108.16 540.078 105.099 541.099 102.051C542.119 99.3344 543.471 96.6178 545.511 94.2457C547.208 92.2182 549.235 90.5219 551.276 88.8257C553.648 87.4608 556.02 86.1091 558.405 85.4332L560.102 84.7441V136.652L558.405 136.996Z" fill="#E4D133"/>
<path d="M406.752 123.757L425.755 104.768V143.105L406.752 123.757Z" fill="#E4D133"/>
<path d="M286.663 183.47C283.615 183.47 280.554 182.795 277.837 181.43C274.789 180.078 272.417 178.382 270.045 176.01C267.66 173.638 265.964 171.252 264.612 168.204C263.26 165.488 262.916 162.44 262.571 159.379V158.027L263.936 157.682C264.957 157.351 266.308 157.351 267.329 157.351C269.356 157.351 271.052 157.682 273.093 158.027C276.486 159.047 279.878 160.744 282.25 163.46C284.967 166.164 286.663 169.225 287.684 172.617C288.359 175.665 288.704 178.726 288.359 181.774L288.015 183.126L286.663 183.47Z" fill="#E4D133"/>
<path d="M484.103 251.995C481.055 251.995 477.662 251.319 474.946 250.299C472.229 248.947 469.513 247.251 467.485 245.21C465.444 243.183 463.748 240.466 462.396 237.75C461.031 234.702 460.7 231.64 460.7 228.593C460.7 225.2 459.335 222.139 456.963 219.767C454.591 217.395 451.543 216.043 448.151 216.043C444.758 216.043 441.697 217.395 439.325 219.767C436.953 222.139 435.588 225.2 435.588 228.593C435.588 231.64 434.912 235.033 433.892 237.75C432.54 240.466 430.844 243.183 428.803 245.21C426.775 247.251 424.059 248.947 421.342 250.299C418.294 251.664 415.233 251.995 412.185 251.995C409.137 251.995 405.745 251.319 403.028 250.299C400.311 248.947 397.595 247.251 395.567 245.21C393.526 243.183 391.83 240.466 390.478 237.75C389.114 234.702 388.782 231.64 388.782 228.593C388.782 225.2 387.417 222.139 385.045 219.767C382.673 217.395 379.612 216.043 376.219 216.043C375.888 216.043 375.888 216.043 375.544 216.043H373.516L374.192 214.002C375.212 211.286 375.888 208.569 376.219 206.197L376.564 204.845H377.916C380.632 205.177 383.349 205.521 385.721 206.873C388.438 208.238 391.154 209.934 393.182 211.961C397.595 216.374 399.967 222.483 399.967 228.593C399.967 231.985 401.332 235.033 403.704 237.405C406.076 239.79 409.137 241.142 412.53 241.142C415.922 241.142 418.97 239.79 421.342 237.405C423.714 235.033 425.079 231.985 425.079 228.593C425.079 225.531 425.755 222.139 426.775 219.435C428.127 216.719 429.823 214.002 431.864 211.961C433.892 209.934 436.608 208.238 439.325 206.873C442.373 205.521 445.434 205.177 448.482 205.177C451.543 205.177 454.935 205.866 457.639 206.873C460.355 208.238 463.072 209.934 465.113 211.961C467.14 214.002 468.837 216.719 470.202 219.435C471.553 222.483 471.898 225.531 471.898 228.593C471.898 231.985 473.25 235.033 475.622 237.405C477.994 239.79 481.055 241.142 484.447 241.142C487.84 241.142 490.888 239.79 493.26 237.405C493.949 236.729 494.625 236.053 494.956 235.033L496.652 232.316L497.673 235.377C498.017 236.053 498.349 237.074 498.693 237.75C499.369 239.446 500.389 241.487 501.741 242.838L502.43 243.859L501.41 244.879C499.038 247.251 496.652 248.947 493.604 250.299C490.556 251.319 487.164 251.995 484.103 251.995Z" fill="#E4D133"/>
<path d="M300.91 223.835C300.578 222.484 300.234 221.463 300.234 220.112C300.234 215.023 304.302 210.955 309.391 210.955C311.763 210.955 314.148 211.962 315.845 213.658C317.541 215.354 318.548 217.395 318.548 219.767V251.664L300.91 223.835Z" fill="#E07F33"/>
<path d="M387.417 151.586C384.025 151.586 380.633 150.221 378.26 147.849C375.888 145.477 374.523 142.085 374.523 138.692C374.523 135.3 375.888 131.907 378.26 129.535C380.633 127.15 384.025 125.798 387.417 125.798C390.81 125.798 394.202 127.15 396.575 129.535C398.96 131.907 400.312 135.3 400.312 138.692C400.312 142.085 398.96 145.477 396.575 147.849C394.202 150.221 391.155 151.586 387.417 151.586Z" fill="#E07F33"/>
<path d="M426.099 143.437H464.424L445.434 162.44L426.099 143.437Z" fill="#E07F33"/>
<path d="M540.754 197.385H580.457L560.433 227.917L540.754 197.385Z" fill="#E07F33"/>
<path d="M521.089 121.385C519.393 119.358 517.696 117.317 516.676 114.945C515.656 112.228 514.98 109.512 514.98 106.464C514.98 103.071 515.656 100.01 517.352 96.9623C518.704 94.5902 520.4 92.2181 522.441 90.5219L523.461 89.5015L524.481 90.5219C526.509 92.2181 528.205 94.5902 529.57 96.9623C530.922 100.01 531.942 103.071 531.942 106.464C531.942 109.512 531.266 112.228 530.246 114.945C529.225 117.662 527.529 119.689 525.488 121.73C525.157 122.061 525.157 122.061 524.813 122.406L523.792 123.426L521.089 121.385Z" fill="#D6D1CA"/>
<path d="M464.769 86.7847H482.075V104.092H464.769V86.7847Z" fill="#D6D1CA"/>
<path d="M334.834 227.228C336.875 224.18 340.267 222.139 343.991 222.139C350.1 222.139 355.189 227.228 355.189 233.337C355.189 235.033 354.858 237.074 353.837 238.426C353.162 240.122 351.797 241.487 350.445 242.494C347.384 244.535 344.336 246.231 341.288 247.583C335.179 250.299 328.725 251.664 321.94 251.996H319.237L334.834 227.228Z" fill="#D6D1CA"/>
<path d="M560.434 197.04V161.075H607.928C611.665 161.075 615.389 162.44 618.106 165.156C620.823 167.86 622.174 171.252 622.174 175.334C622.174 179.057 620.823 182.794 618.106 185.511C615.389 188.214 611.997 189.579 607.928 189.579H585.546L580.457 197.385H560.434V197.04Z" fill="#D6D1CA"/>
<path d="M263.725 109.048L286.028 86.7319L308.344 109.048L286.028 131.351L263.725 109.048Z" fill="#D6D1CA"/>
<path d="M583.85 134.955C582.485 132.583 581.809 130.211 581.133 127.495C580.457 124.778 580.457 122.406 580.788 119.689C581.133 116.641 581.809 113.925 583.161 111.208C584.525 108.491 586.222 105.788 588.594 103.747C590.966 101.375 593.338 99.6789 596.055 98.314C598.771 96.9623 601.819 96.2864 604.536 95.9419C605.212 95.9419 606.232 95.9419 606.908 95.9419C611.321 95.9419 615.734 96.9623 619.802 99.3344L621.498 100.355L586.898 134.624C586.553 134.955 586.553 134.955 586.222 135.3L584.525 136.996L583.85 134.955Z" fill="#5EBBEB"/>
<path d="M520.4 228.248L533.294 208.569L534.659 209.59C535.666 210.266 536.355 210.955 537.031 211.631C539.058 213.658 540.755 216.375 542.119 219.091C543.14 221.463 543.816 224.18 543.816 226.552V228.248H520.4Z" fill="#5EBBEB"/>
<path d="M307.362 160.068C305.322 160.068 303.625 159.723 301.585 159.379C298.192 158.371 294.8 156.675 292.428 153.959C289.711 151.242 287.683 147.849 286.663 144.457C285.987 141.409 285.643 138.348 285.987 135.3L286.319 133.935H287.683C290.731 133.935 293.793 134.624 296.496 135.976C299.557 137.328 301.929 139.024 304.301 141.409C306.673 143.781 308.37 146.153 309.735 149.201C311.086 151.918 311.431 154.979 311.762 158.027V159.379L310.41 159.723C309.39 159.723 308.37 160.068 307.362 160.068Z" fill="#5EBBEB"/>
<path d="M426.099 104.092L445.434 85.0889L464.424 104.092H426.099Z" fill="#5EBBEB"/>
<path d="M308.556 109.167L330.859 86.8511L353.175 109.167L330.859 131.47L308.556 109.167Z" fill="#5EBBEB"/>
<path d="M622.863 218.416C621.498 215.354 619.802 212.651 617.43 210.266C615.058 207.894 612.341 206.197 609.293 204.846C606.232 203.481 602.84 202.805 599.447 202.805C596.055 202.805 592.662 203.481 589.614 204.846C588.594 205.177 587.918 205.521 586.898 206.197L581.809 198.392L586.553 191.276H608.273C610.3 191.276 612.341 190.931 614.382 189.911C616.409 189.235 618.106 187.883 619.471 186.518C620.822 185.167 622.174 183.47 622.863 181.43C623.539 179.402 624.215 177.361 624.215 175.334C624.215 173.293 623.87 171.252 622.863 169.225C622.174 167.184 620.822 165.488 619.471 164.136C618.106 162.771 616.409 161.419 614.382 160.743C612.341 160.068 610.3 159.379 608.273 159.379H564.502L584.857 139.024C585.201 139.368 585.201 139.368 585.546 139.713C587.573 141.74 590.29 143.781 593.007 144.802C596.055 146.153 599.116 146.829 602.164 146.829C605.901 146.829 609.293 146.153 612.341 144.457C615.389 143.105 618.106 140.72 620.146 138.017L620.822 136.996L620.146 135.976C618.106 133.259 615.389 130.887 612.341 129.535C609.293 127.839 605.556 127.15 602.164 127.15C600.123 127.15 598.095 127.495 596.399 127.839L624.559 100.01L622.863 99.0031C620.146 97.3069 617.085 95.942 614.037 95.2661C610.989 94.5903 607.928 94.2457 604.536 94.5903C601.488 94.9216 598.427 95.6107 595.379 96.9624C592.331 98.314 589.614 100.355 587.242 102.727C584.857 105.099 582.829 107.816 581.464 110.877C580.113 113.925 579.437 116.973 579.092 120.034C578.761 123.082 579.092 126.474 579.768 129.535C580.457 132.239 581.464 134.624 582.829 136.996L562.13 157.682V83.737L560.102 84.0683C557.041 84.7442 553.993 85.7645 551.277 87.4608C548.56 89.157 546.188 91.1978 544.147 93.5699C542.12 95.942 540.423 98.6586 539.403 101.707C538.383 104.768 537.707 108.16 537.707 111.553C537.707 114.945 538.383 117.993 539.403 121.386C540.423 124.447 542.12 127.15 544.147 129.535C546.188 131.907 548.56 133.935 551.277 135.631C553.649 136.996 556.365 138.017 559.082 138.692V157.006L525.833 123.758C526.178 123.426 526.178 123.426 526.509 123.082C528.55 121.054 530.577 118.338 531.598 115.621C532.963 112.573 533.638 109.512 533.638 106.464C533.638 102.727 532.963 99.3344 531.266 96.2865C529.901 93.2253 527.529 90.522 524.813 88.4812L523.792 87.8053L522.441 88.4812C519.724 90.522 517.352 93.2253 516 96.2865C514.304 99.3344 513.615 103.071 513.615 106.464C513.615 108.491 513.959 110.532 514.304 112.228L499.369 97.3069L498.349 99.0031C496.652 101.707 495.301 104.768 494.625 107.816C493.949 110.877 493.605 113.925 493.949 117.317C494.28 120.365 494.956 123.426 496.321 126.474C497.673 129.535 499.714 132.239 502.086 134.624C504.458 136.996 507.174 139.024 510.222 140.389C513.284 141.74 516.331 142.416 519.393 142.761C522.441 143.105 525.833 142.761 528.881 142.085C531.598 141.409 534.314 140.389 536.686 139.024L557.386 159.723H484.779V142.085H469.513L487.495 124.102L469.513 106.119H484.779V85.0887H464.093V100.355L446.11 82.3721L427.451 100.699V85.0887H406.752V105.788H422.018L406.421 121.386L395.567 110.532V94.5903L368.428 121.73L331.11 84.4129L308.715 106.795L286.319 84.4129L261.565 109.181L284.967 132.583C282.251 132.928 279.534 133.604 276.831 134.624C273.77 135.976 270.722 138.017 268.35 140.389C265.964 142.761 263.937 145.477 262.572 148.87C261.22 152.262 260.544 155.655 260.544 159.047C260.544 162.44 261.22 166.164 262.572 169.225C263.937 172.273 265.964 175.334 268.35 177.706C270.722 180.078 273.438 182.119 276.831 183.47C280.223 184.822 283.616 185.511 287.008 185.511C290.056 185.511 292.773 185.167 295.489 184.146L289.712 206.542L260.2 188.559V191.276C260.2 192.296 260.2 193.648 260.2 194.668C260.2 202.805 261.896 210.266 264.957 217.74C266.309 221.132 268.35 224.525 270.377 227.917C272.418 230.965 274.79 234.013 277.507 236.73C280.223 239.446 283.271 241.818 286.319 243.859L286.664 244.19L287.008 244.535C290.056 246.576 293.104 247.927 296.165 249.279C303.281 252.34 311.087 254.037 319.237 254.037C327.373 254.037 334.834 252.34 342.295 249.279C345.356 247.927 348.404 246.231 351.465 244.535L351.796 244.19L352.141 243.859C355.189 241.818 358.25 239.446 360.954 236.73C363.67 234.013 366.042 230.965 368.083 227.917C370.124 224.856 372.151 221.463 373.516 217.74C374.192 217.74 374.868 217.74 375.544 217.74C378.605 217.74 381.308 218.747 383.349 220.788C385.39 222.828 386.397 225.532 386.397 228.593C386.397 231.985 387.086 235.378 388.438 238.426C389.79 241.487 391.486 244.19 393.871 246.576C396.243 248.948 398.96 250.644 402.008 251.996C405.056 253.361 408.448 254.037 411.841 254.037C415.233 254.037 418.626 253.361 421.687 251.996C424.735 250.644 427.451 248.948 429.823 246.576C432.195 244.19 433.892 241.487 435.257 238.426C436.608 235.378 437.284 231.985 437.284 228.593C437.284 222.484 442.042 217.74 448.151 217.74C451.199 217.74 453.915 218.747 455.943 220.788C457.984 222.828 459.004 225.532 459.004 228.593C459.004 231.985 459.68 235.378 461.031 238.426C462.396 241.487 464.093 244.19 466.465 246.576C468.837 248.948 471.553 250.644 474.601 251.996C477.663 253.361 481.055 254.037 484.448 254.037C491.232 254.037 497.673 251.32 502.43 246.576C502.43 246.576 502.43 246.576 502.762 246.907C505.134 249.279 507.85 250.975 510.911 252.34C513.959 253.692 517.352 254.368 520.744 254.368C524.137 254.368 527.529 253.692 530.577 252.34C533.638 250.975 536.355 249.279 538.727 246.907C541.099 244.535 542.795 241.818 544.147 238.77C545.168 236.054 545.843 233.337 546.188 230.62H561.799L580.457 201.784L584.857 208.569C583.85 209.259 582.829 210.266 582.153 210.955C579.768 213.327 578.072 216.043 576.72 219.091C575.368 222.139 574.679 225.532 574.679 228.924C574.679 232.317 575.368 235.709 576.72 238.77C578.072 241.818 579.768 244.535 582.153 246.907C584.525 249.279 587.242 250.975 590.29 252.34C593.338 253.692 596.73 254.368 600.123 254.368C603.515 254.368 606.908 253.692 609.969 252.34C613.017 250.975 615.734 249.279 618.106 246.907C620.478 244.535 622.174 241.818 623.539 238.77C624.891 235.709 625.566 232.317 625.566 228.924C625.566 225.532 624.215 221.463 622.863 218.416ZM518.372 114.601C517.352 112.228 516.676 109.512 516.676 106.795C516.676 103.747 517.352 100.699 518.704 97.9827C519.724 95.6107 521.42 93.5699 523.461 91.8736C525.488 93.5699 526.853 95.6107 528.205 97.9827C529.57 100.699 530.246 103.747 530.246 106.795C530.246 109.512 529.57 112.228 528.55 114.601C527.529 116.973 526.178 119.013 524.137 121.054C523.792 121.386 523.792 121.386 523.461 121.73L522.441 120.71C520.4 118.669 519.048 116.641 518.372 114.601ZM519.393 139.368C516.676 139.024 513.959 138.348 511.243 137.327C508.526 135.976 506.154 134.28 504.127 132.239C502.086 130.211 500.389 127.839 499.038 125.123C497.673 122.406 496.997 119.689 496.997 116.973C496.652 111.884 497.673 106.795 500.045 102.396L533.97 136.32C529.57 139.024 524.481 140.044 519.393 139.368ZM594.027 131.907C596.399 130.887 599.116 130.211 601.819 130.211C604.88 130.211 607.928 130.887 610.645 132.239C613.017 133.259 615.058 134.955 616.754 136.996C615.058 139.024 613.017 140.389 610.645 141.74C607.928 143.105 604.88 143.781 601.819 143.781C599.116 143.781 596.399 143.105 594.027 142.085C591.642 141.065 589.614 139.713 587.573 137.672C587.242 137.327 587.242 137.327 586.898 136.996L587.918 135.976C589.614 133.935 591.642 132.583 594.027 131.907ZM582.153 119.689C582.485 116.973 583.161 114.269 584.181 111.553C585.546 108.836 587.242 106.464 589.27 104.423C591.31 102.396 593.683 100.699 596.399 99.3344C599.116 97.9827 601.819 97.3069 604.536 97.3069C605.212 97.3069 606.232 97.3069 606.908 97.3069C611.321 97.3069 615.389 98.314 619.126 100.355L585.201 134.28C582.485 129.867 581.464 124.778 582.153 119.689ZM546.532 127.495C544.836 125.454 543.14 122.75 542.451 120.034C541.444 117.317 541.099 114.269 541.099 111.553C541.099 108.491 541.775 105.788 542.451 103.071C543.471 100.355 544.836 97.9827 546.532 95.6107C549.925 91.8736 553.993 88.8257 559.082 87.4608V135.631C553.993 134.28 549.58 131.232 546.532 127.495ZM542.795 162.44C541.775 166.508 539.747 170.245 537.031 173.293C534.99 175.665 532.273 177.361 529.57 178.382C526.509 179.733 523.461 180.423 520.4 180.423C517.696 180.423 514.98 180.078 512.263 179.058C509.891 178.037 507.519 176.685 505.478 174.989C501.741 171.941 499.038 167.528 498.017 162.771L542.795 162.44ZM494.625 162.44C495.977 168.204 499.038 173.293 503.437 177.03C505.823 179.058 508.526 180.422 511.243 181.43C514.304 182.45 517.352 183.126 520.4 183.126C524.137 183.126 527.529 182.45 530.922 181.098C533.97 179.733 537.031 177.706 539.403 175.334C542.795 171.597 545.168 167.184 546.188 162.44H559.082V195.689H539.747C533.97 192.296 527.185 190.255 520.4 190.255C515.656 190.255 511.243 190.931 507.174 192.627C502.762 184.146 493.949 179.058 484.448 179.058C474.946 179.058 466.12 184.146 461.721 192.627C457.308 190.931 452.895 190.255 448.482 190.255C448.151 190.255 447.806 190.255 447.462 190.255V163.116L463.748 146.829V162.095L494.625 162.44ZM523.116 226.552L533.638 210.266C534.314 210.955 535.335 211.631 536.01 212.306C538.051 214.347 539.747 216.719 540.755 219.436C541.775 221.808 542.451 224.18 542.451 226.552H523.116ZM525.488 229.945C524.813 232.317 522.785 234.013 520.068 234.013C517.007 234.013 514.635 231.641 514.635 228.593C514.635 225.532 517.007 223.16 520.068 223.16C520.744 223.16 521.089 223.16 521.765 223.504L517.352 230.289H525.488V229.945ZM543.816 218.416C542.451 215.354 540.755 212.651 538.383 210.266C537.362 209.259 536.686 208.569 535.666 207.894L540.755 200.088L558.062 226.552H546.188C545.512 223.836 544.836 221.132 543.816 218.416ZM494.956 228.248C494.956 231.31 493.605 234.013 491.908 236.054C489.868 238.095 487.164 239.102 484.103 239.102C481.055 239.102 478.338 238.095 476.298 236.054C474.27 234.013 473.25 231.31 473.25 228.248C473.25 224.856 472.574 221.463 471.209 218.416C469.857 215.354 468.161 212.651 465.789 210.266C463.417 207.894 460.7 206.197 457.639 204.846C454.591 203.481 451.199 202.805 447.806 202.805C444.414 202.805 441.021 203.481 437.973 204.846C434.912 206.197 432.195 207.894 429.823 210.266C427.451 212.651 425.755 215.354 424.403 218.416C423.038 221.463 422.363 224.856 422.363 228.248C422.363 234.358 417.618 239.102 411.509 239.102C408.448 239.102 405.745 238.095 403.704 236.054C401.663 234.013 400.656 231.31 400.656 228.248C400.656 224.856 399.967 221.463 398.615 218.416C397.264 215.354 395.567 212.651 393.182 210.266C390.81 207.894 388.093 206.197 385.39 204.846C383.005 203.825 380.301 203.149 377.585 202.805C377.916 200.088 378.26 197.385 378.26 194.324C378.26 193.992 378.26 193.648 378.26 193.303C382.329 193.648 386.066 194.668 389.458 196.02C393.527 197.716 397.264 200.433 400.312 203.481C403.359 206.542 405.745 210.266 407.441 214.347C409.137 218.416 410.144 223.16 410.144 227.573H413.206C413.206 222.828 414.226 218.416 415.922 214.003C417.618 209.934 420.322 206.197 423.383 203.149C426.431 200.088 430.168 197.385 434.236 195.689C438.649 193.992 443.062 192.972 447.806 192.972C452.55 192.972 456.963 193.992 461.376 195.689C465.444 197.385 469.181 200.088 472.229 203.149C475.29 206.197 477.994 209.934 479.69 214.003C481.386 218.416 482.407 222.828 482.407 227.573H485.468C485.468 222.828 486.475 218.416 488.171 214.003C489.868 209.934 492.584 206.197 495.645 203.149C498.693 200.088 502.43 197.385 506.499 195.689C510.911 193.992 515.311 192.972 520.068 192.972C526.178 192.972 532.273 194.668 537.707 197.716L532.618 205.521C531.598 205.177 530.922 204.501 529.901 204.17C526.853 202.805 523.461 202.129 520.068 202.129C516.676 202.129 513.284 202.805 510.222 204.17C507.174 205.521 504.458 207.218 502.086 209.59C499.714 211.962 498.017 214.679 496.652 217.74C495.645 221.463 494.956 224.856 494.956 228.248ZM287.684 135.631C290.732 135.631 293.449 136.32 296.165 137.327C298.882 138.348 301.254 140.044 303.626 142.416C305.667 144.457 307.363 147.174 308.715 149.89C309.735 152.594 310.411 155.31 310.411 158.371C307.694 158.703 304.646 158.703 301.93 158.027C298.537 157.006 295.821 155.31 293.449 152.938C291.077 150.566 289.38 147.505 288.36 144.457C287.339 141.409 287.339 138.348 287.684 135.631ZM311.431 148.525C310.066 145.477 308.039 142.416 305.667 140.044C303.281 137.672 300.578 135.631 297.186 134.28C294.124 132.928 290.732 132.239 287.339 132.239L308.715 111.553L329.07 131.907L317.54 143.437V198.392L300.909 181.774C302.95 180.754 304.646 179.058 306.343 177.706C311.087 172.617 313.803 166.164 313.803 159.379C313.459 155.31 312.783 151.918 311.431 148.525ZM317.196 202.474V212.306C315.155 210.266 312.452 209.259 309.391 209.259C306.343 209.259 303.626 210.266 301.585 212.306C300.234 213.658 299.213 215.699 298.537 217.74L292.428 207.894L298.882 183.47L317.196 202.474ZM304.302 226.221L302.95 224.18C302.274 222.828 301.585 221.463 301.585 220.112C301.585 215.699 304.978 212.306 309.391 212.306C313.459 212.306 316.851 215.699 317.196 219.767V246.576L304.302 226.221ZM320.588 220.112C320.588 215.699 323.981 212.306 328.394 212.306C332.807 212.306 336.199 215.699 336.199 220.112C336.199 221.463 335.855 223.16 334.834 224.18L333.482 226.221L320.244 246.576L320.588 220.112ZM338.902 218.071C338.571 216.043 337.551 214.003 335.855 212.651C333.814 210.61 331.11 209.59 328.049 209.59C325.001 209.59 322.285 210.61 320.244 212.651V202.805L338.571 184.146L345.012 208.569L338.902 218.071ZM347.728 206.197L341.288 181.43L352.472 170.245L373.172 190.931L347.728 206.197ZM352.472 165.832L320.244 198.392V174.313L353.837 140.72L395.223 182.119L428.803 148.525L442.717 162.44L423.038 182.119C419.315 180.078 415.233 179.058 411.165 179.058C401.663 179.058 392.851 184.146 388.438 192.627C384.701 191.276 380.977 190.6 377.24 190.255L352.472 165.832ZM395.899 146.498C393.871 148.525 390.81 149.89 387.762 149.89C384.701 149.89 381.653 148.525 379.612 146.498C377.585 144.457 376.22 141.409 376.22 138.348C376.22 135.3 377.585 132.239 379.612 130.211C381.653 128.17 384.701 126.819 387.762 126.819C390.81 126.819 393.871 128.17 395.899 130.211C397.939 132.239 399.291 135.3 399.291 138.348C399.291 141.409 397.939 144.457 395.899 146.498ZM414.902 158.371L395.567 177.706V150.897L414.902 158.371ZM427.451 105.788H463.072V141.409H427.451V105.788ZM461.031 144.802L445.434 160.399L429.823 144.802H461.031ZM434.581 192.972C432.54 189.235 429.823 186.187 426.431 183.815L443.738 166.508V190.6C440.677 190.931 437.284 191.607 434.581 192.972ZM411.509 217.395C411.165 216.043 410.833 215.023 410.144 213.658C408.448 209.259 405.745 205.177 402.352 201.784C399.291 198.737 395.567 196.02 391.486 193.992C395.567 186.863 403.028 182.119 411.509 182.119C419.646 182.119 427.451 186.518 431.52 193.992C427.796 195.689 424.059 198.392 421.011 201.453C417.618 204.846 414.902 208.914 412.861 213.327C412.53 214.679 411.841 216.043 411.509 217.395ZM484.103 217.395C483.772 216.043 483.083 214.679 482.751 213.658C480.71 209.259 477.994 205.177 474.601 201.784C471.553 198.737 468.161 196.364 464.093 194.324C468.161 187.207 475.622 182.45 484.103 182.45C492.253 182.45 500.045 186.863 504.127 194.324C500.389 196.02 496.652 198.737 493.605 201.784C490.212 205.177 487.495 209.259 485.468 213.658C484.779 214.679 484.448 216.043 484.103 217.395ZM480.71 159.379H466.12V144.802H480.71V159.379ZM466.465 139.368V108.16L482.075 123.758L466.465 139.368ZM466.465 88.1366H481.055V102.727H466.465V88.1366ZM461.031 102.727H429.823L445.434 87.1295L461.031 102.727ZM409.813 88.1366H424.403V102.727H409.813V88.1366ZM424.403 108.16V139.368L408.793 123.758L424.403 108.16ZM426.775 146.498L417.274 155.986L398.271 148.525C400.987 145.809 402.352 142.085 402.352 138.348C402.352 134.28 400.656 130.543 397.939 127.839C395.223 125.123 391.486 123.426 387.417 123.426C383.349 123.426 379.612 125.123 376.909 127.839C374.192 130.543 372.496 134.28 372.496 138.348C372.496 142.416 374.192 146.153 376.909 148.87C379.612 151.586 383.349 153.283 387.417 153.283C389.114 153.283 390.81 152.938 392.175 152.594V174.645L356.209 138.348L392.506 102.051V111.553L426.775 146.498ZM320.588 169.901V144.802L353.837 111.553L366.387 124.102L320.588 169.901ZM331.11 88.8257L351.465 109.181L331.11 129.535L310.756 109.181L331.11 88.8257ZM285.988 88.8257L306.343 109.181L285.988 129.535L265.633 109.181L285.988 88.8257ZM270.722 142.416C272.749 140.389 275.466 138.692 278.182 137.327C280.223 136.32 282.251 135.976 284.623 135.631C284.292 138.692 284.292 141.74 285.312 144.802C286.319 148.525 288.36 151.918 291.077 154.634C293.793 157.351 297.186 159.379 300.909 160.399C302.95 161.075 304.978 161.075 307.018 161.075C308.039 161.075 309.059 161.075 310.066 160.743C309.391 165.832 307.363 170.576 303.626 174.313C301.585 176.685 298.882 178.382 296.165 179.402C294.124 180.422 291.752 180.754 289.712 181.098C290.056 178.037 290.056 174.989 289.036 171.941C288.015 168.204 285.988 164.812 283.271 162.095C280.555 159.379 277.162 157.351 273.438 156.331C270.377 155.655 267.329 155.31 264.268 155.655C264.613 153.283 264.957 151.242 265.964 149.201C266.985 147.174 268.681 144.457 270.722 142.416ZM270.722 175.334C268.681 173.293 266.985 170.576 265.633 167.86C264.613 165.156 263.937 162.44 263.937 159.379C266.653 159.047 269.701 159.047 272.418 159.723C275.81 160.743 278.527 162.44 280.899 164.812C283.271 167.184 284.967 170.245 285.988 173.293C286.664 176.01 287.008 179.058 286.319 181.774C283.271 181.774 280.555 181.098 277.838 180.078C275.466 179.058 272.749 177.361 270.722 175.334ZM272.418 225.876C270.377 222.828 268.681 219.767 267.329 216.375C264.268 209.59 262.916 202.129 262.916 194.668C262.916 194.324 262.916 193.992 262.916 193.992L289.712 209.934L297.186 221.463C296.165 221.132 294.8 221.132 293.449 221.132C290.056 221.132 286.664 222.484 284.292 224.856C281.919 227.228 280.555 230.62 280.555 234.013C280.555 234.702 280.555 235.709 280.899 236.398C280.223 235.709 279.879 235.378 279.203 234.702C276.831 231.641 274.445 228.924 272.418 225.876ZM288.015 241.487C285.312 239.791 283.947 236.73 283.947 233.682C283.947 228.248 288.36 224.18 293.449 224.18C296.841 224.18 299.558 225.876 301.585 228.593L315.844 250.975C309.391 250.644 302.95 249.279 296.841 246.576C294.124 244.879 291.077 243.183 288.015 241.487ZM340.599 246.231C334.503 248.603 328.394 250.299 321.609 250.644L335.855 228.248C337.551 225.532 340.599 223.836 343.991 223.836C349.424 223.836 353.493 228.248 353.493 233.337C353.493 236.398 351.797 239.446 349.424 241.142C346.708 243.183 343.991 244.879 340.599 246.231ZM365.366 225.876C363.339 228.924 360.954 231.641 358.581 234.013C357.906 234.702 357.561 235.033 356.885 235.709C356.885 235.033 357.23 234.013 357.23 233.337C357.23 229.945 355.865 226.552 353.493 224.18C351.121 221.808 347.728 220.443 344.336 220.443C342.984 220.443 341.964 220.788 340.599 220.788L348.073 209.259L374.868 193.303C374.868 193.648 374.868 193.992 374.868 193.992C374.868 201.453 373.516 208.914 370.455 215.699C369.103 219.767 367.407 222.828 365.366 225.876ZM484.103 250.644C481.055 250.644 478.338 249.968 475.29 248.948C472.574 247.927 470.202 246.231 468.161 244.19C466.12 242.163 464.424 239.791 463.417 237.074C462.396 234.358 461.721 231.31 461.721 228.248C461.721 224.525 460.356 221.132 457.639 218.416C454.936 215.699 451.543 214.347 447.806 214.347C444.069 214.347 440.677 215.699 437.973 218.416C435.257 221.132 433.892 224.525 433.892 228.248C433.892 231.31 433.216 234.013 432.195 237.074C431.188 239.791 429.492 242.163 427.451 244.19C425.411 246.231 423.038 247.927 420.322 248.948C417.618 249.968 414.557 250.644 411.509 250.644C408.448 250.644 405.745 249.968 402.684 248.948C399.967 247.927 397.595 246.231 395.567 244.19C393.527 242.163 391.83 239.791 390.81 237.074C389.79 234.358 389.114 231.31 389.114 228.248C389.114 224.525 387.762 221.132 385.045 218.416C382.329 215.699 378.936 214.347 375.213 214.347C374.868 214.347 374.868 214.347 374.523 214.347C375.544 211.631 376.22 208.914 376.909 206.197C379.281 206.542 381.997 206.873 384.025 207.894C386.742 208.914 389.114 210.61 391.154 212.651C395.223 216.719 397.595 222.484 397.595 228.248C397.595 231.985 398.96 235.378 401.663 238.095C404.38 240.798 407.772 242.163 411.509 242.163C415.233 242.163 418.626 240.798 421.342 238.095C424.059 235.378 425.411 231.985 425.411 228.248C425.411 225.2 426.1 222.484 427.107 219.436C428.127 216.719 429.823 214.347 431.864 212.306C433.892 210.266 436.277 208.569 438.98 207.562C441.697 206.542 444.758 205.866 447.806 205.866C450.854 205.866 453.571 206.542 456.632 207.562C459.335 208.569 461.721 210.266 463.748 212.306C465.789 214.347 467.485 216.719 468.506 219.436C469.513 222.139 470.202 225.2 470.202 228.248C470.202 231.985 471.553 235.378 474.27 238.095C476.987 240.798 480.379 242.163 484.103 242.163C487.84 242.163 491.232 240.798 493.949 238.095C494.625 237.405 495.301 236.398 495.977 235.378C496.321 236.398 496.652 237.074 496.997 237.75C497.673 239.791 499.038 241.487 500.045 243.183C495.977 247.927 490.212 250.644 484.103 250.644ZM540.755 236.73C539.747 239.446 538.051 241.818 536.01 243.859C533.97 245.887 531.598 247.583 528.881 248.603C526.178 249.624 523.116 250.299 520.068 250.299C517.007 250.299 514.304 249.624 511.243 248.603C508.526 247.583 506.154 245.887 504.127 243.859C502.086 241.818 500.389 239.446 499.369 236.73C498.349 234.013 497.673 231.31 497.673 228.248V227.917C497.673 224.856 498.349 222.139 499.369 219.091C500.389 216.375 502.086 214.003 504.127 211.962C506.154 209.934 508.526 208.238 511.243 207.218C513.959 206.197 517.007 205.521 520.068 205.521C523.116 205.521 525.833 206.197 528.881 207.218C529.57 207.562 530.246 207.894 530.922 208.238L523.461 219.767C522.441 219.436 521.089 219.091 520.068 219.091C515.311 219.091 511.243 222.828 511.243 227.917C511.243 233.006 514.98 236.73 520.068 236.73C524.481 236.73 527.874 233.682 528.55 229.613H542.12C542.12 232.317 541.775 234.702 540.755 236.73ZM560.434 225.532L543.14 199.081H577.396L560.434 225.532ZM579.768 195.689H562.13V162.44H608.273C611.665 162.44 614.713 163.791 617.43 166.164C619.802 168.549 621.167 171.941 621.167 175.334C621.167 178.726 619.802 181.774 617.43 184.491C615.058 186.863 611.665 188.215 608.273 188.215H584.857L579.768 195.689ZM619.802 236.73C618.782 239.446 617.085 241.818 615.058 243.859C613.017 245.887 610.645 247.583 607.928 248.603C605.212 249.624 602.164 250.299 599.116 250.299C596.055 250.299 593.338 249.624 590.29 248.603C587.573 247.583 585.201 245.887 583.161 243.859C581.133 241.818 579.437 239.446 578.416 236.73C577.396 234.013 576.72 230.965 576.72 227.917C576.72 224.856 577.396 222.139 578.416 219.091C579.437 216.375 581.133 214.003 583.161 211.962C583.85 211.286 584.525 210.61 585.546 209.934L593.007 221.463C591.31 223.16 590.29 225.201 590.29 227.917C590.29 232.661 594.027 236.73 599.116 236.73C604.204 236.73 607.928 233.006 607.928 227.917C607.928 222.828 604.204 219.091 599.116 219.091C598.095 219.091 596.73 219.436 595.723 219.767L588.249 208.238C588.938 207.894 589.614 207.562 590.29 207.218C593.007 206.197 596.055 205.521 599.116 205.521C602.164 205.521 604.88 206.197 607.928 207.218C610.645 208.238 613.017 209.934 615.058 211.962C617.085 214.003 618.782 216.375 619.802 219.091C620.822 221.808 621.498 224.856 621.498 227.917C621.498 230.965 621.167 234.013 619.802 236.73ZM599.447 222.828C602.508 222.828 604.88 225.2 604.88 228.248C604.88 231.31 602.508 233.682 599.447 233.682C596.399 233.682 594.027 231.31 594.027 228.248C594.027 225.2 596.399 222.828 599.447 222.828Z" fill="black"/>
</svg>
