<svg width="632" height="336" viewBox="0 0 632 336" fill="none" xmlns="http://www.w3.org/2000/svg">
<mask id="mask0_935_137" style="mask-type:luminance" maskUnits="userSpaceOnUse" x="98" y="30" width="436" height="275">
<path d="M533.047 30.9482H98.0599V304.801H533.047V30.9482Z" fill="white"/>
</mask>
<g mask="url(#mask0_935_137)">
<path d="M187.39 207.59C185.698 204.247 183.226 202.575 179.963 202.575C178.625 202.575 177.371 202.876 176.202 203.483C175.028 204.09 174.011 204.926 173.159 205.991C172.303 207.056 171.624 208.309 171.118 209.752C170.616 211.195 170.366 212.73 170.366 214.362C170.366 217.247 171.15 219.49 172.717 221.101C174.285 222.713 176.447 223.512 179.204 223.512C180.457 223.512 181.639 223.327 182.744 222.95C183.849 222.576 184.826 222.053 185.662 221.382V225.771C185.662 226.607 184.279 227.234 181.522 227.652C178.762 228.07 131.666 228.278 126.233 228.278H124.79C122.74 228.278 121.258 227.897 120.333 227.121C119.413 226.35 118.979 225.064 119.023 223.267L119.272 202.016L114.317 202.892V206.718C109.262 207.763 105.323 209.415 102.498 211.669C99.6769 213.928 98.2704 216.664 98.2704 219.883C98.2704 221.222 98.5396 222.419 99.0822 223.488C99.6247 224.549 100.356 225.437 101.28 226.153C102.197 226.864 103.274 227.406 104.503 227.78C105.737 228.158 107.063 228.347 108.486 228.347C110.865 228.347 112.935 227.84 114.691 226.84C115.398 231.566 118.766 233.925 124.786 233.925H126.229C128.443 233.925 173.384 233.893 175.056 233.832C176.728 233.772 178.215 233.656 179.513 233.487C180.803 233.322 181.924 233.121 182.865 232.888C183.805 232.659 184.673 232.358 185.465 231.98C187.092 231.228 188.242 230.131 188.913 228.688C189.58 227.246 189.913 225.152 189.913 222.387C189.913 215.869 189.07 210.938 187.374 207.594M182.925 218.312C181.9 218.605 180.843 218.75 179.758 218.75C178.002 218.75 176.656 218.352 175.715 217.557C174.775 216.769 174.305 215.595 174.305 214.044C174.305 212.292 174.827 210.817 175.872 209.628C176.921 208.438 178.215 207.839 179.758 207.839C181.43 207.839 182.712 208.571 183.612 210.033C184.512 211.496 185.107 213.855 185.396 217.114C184.77 217.617 183.942 218.015 182.921 218.308M109.229 222.885C108.349 222.885 107.505 222.809 106.694 222.664C105.878 222.516 105.158 222.287 104.532 221.977C103.901 221.66 103.414 221.254 103.061 220.755C102.699 220.253 102.522 219.626 102.522 218.875C102.522 217.954 102.848 217.106 103.499 216.335C104.146 215.563 105.022 214.872 106.127 214.265C107.232 213.658 108.498 213.16 109.925 212.762C111.343 212.364 112.826 212.079 114.373 211.914L114.498 222.005C112.995 222.592 111.239 222.885 109.233 222.885" fill="#0F2837"/>
<path d="M263.892 200.256L260.01 196.31L256.12 200.256L260.01 204.207L263.892 200.256Z" fill="#0F2837"/>
<path d="M273.043 200.256L269.157 196.31L265.27 200.256L269.157 204.207L273.043 200.256Z" fill="#0F2837"/>
<path d="M337.055 199.256L333.165 195.305L329.283 199.256L333.165 203.206L337.055 199.256Z" fill="#0F2837"/>
<path d="M337.747 211.293L341.633 207.343L337.747 203.396L333.861 207.343L337.747 211.293Z" fill="#0F2837"/>
<path d="M332.477 207.343L328.587 203.396L324.704 207.343L328.587 211.293L332.477 207.343Z" fill="#0F2837"/>
<path d="M391.71 194.366L391.895 225.085C391.895 225.668 391.678 226.171 391.236 226.589C390.794 227.006 390.235 227.34 389.544 227.589C388.857 227.838 388.073 228.019 387.197 228.12C386.317 228.224 342.517 228.276 341.564 228.276C336.589 228.276 334.106 226.986 334.106 224.39C334.106 224.061 334.19 223.161 334.355 221.698C334.523 220.235 334.712 218.627 334.921 216.871L330.657 216.369C330.573 216.911 330.497 217.542 330.408 218.254C330.324 218.965 330.219 219.672 330.095 220.384C329.97 221.095 329.842 221.794 329.721 222.481C329.597 223.169 329.488 223.747 329.404 224.205C329.074 225.668 328.25 226.717 326.928 227.34C325.614 227.967 280.64 228.28 277.884 228.28H277.875C276.622 228.28 275.428 228.264 274.303 228.22C273.178 228.176 272.129 228.116 271.168 228.031C273.338 225.986 274.427 223.434 274.427 220.384C274.427 218.836 274.166 217.386 273.644 216.023C273.117 214.665 272.41 213.487 271.51 212.483C270.614 211.482 269.565 210.686 268.375 210.1C267.186 209.513 265.92 209.22 264.586 209.22C263.251 209.22 261.985 209.513 260.792 210.1C259.602 210.682 258.557 211.478 257.657 212.483C256.761 213.483 256.05 214.665 255.527 216.023C255.005 217.382 254.748 218.832 254.748 220.384C254.748 223.478 255.833 226.026 258.007 228.031C257.002 228.116 255.937 228.176 254.804 228.22C253.675 228.264 209.505 228.28 208.295 228.28C206.25 228.28 204.775 227.899 203.879 227.123C202.978 226.351 202.528 225.065 202.528 223.269L202.777 193.49L197.826 194.37L198.08 225.154C198.168 231.001 201.568 233.927 208.299 233.927C210.638 233.927 255.937 233.742 258.196 233.364C260.454 232.99 262.588 232.444 264.594 231.732C266.599 232.444 268.733 232.99 270.987 233.364C273.246 233.738 275.545 233.927 277.884 233.927C280.52 233.927 325.783 233.561 327.688 232.83C329.584 232.098 330.955 231.065 331.795 229.727C333.426 232.528 336.682 233.927 341.568 233.927H341.572C343.132 233.927 387.527 233.77 388.929 233.457C390.324 233.143 391.577 232.621 392.691 231.889C393.796 231.158 394.696 230.197 395.383 229.004C396.074 227.814 396.416 226.339 396.416 224.583L396.669 193.49L391.718 194.37L391.71 194.366ZM264.586 226.777C260.74 225.524 258.819 223.454 258.819 220.572C258.819 219.737 258.963 218.965 259.257 218.254C259.546 217.542 259.952 216.915 260.474 216.369C260.997 215.826 261.616 215.408 262.323 215.115C263.03 214.826 263.79 214.677 264.582 214.677C265.373 214.677 266.125 214.826 266.836 215.115C267.551 215.408 268.162 215.826 268.685 216.369C269.211 216.911 269.613 217.542 269.91 218.254C270.2 218.965 270.348 219.737 270.348 220.572C270.348 223.458 268.423 225.528 264.582 226.777" fill="#0F2837"/>
<path d="M404.875 233.92L404.562 194.364L409.517 193.484L409.203 233.92H404.875Z" fill="#0F2837"/>
<path d="M449.386 224.519C449.386 227.525 448.426 229.92 446.501 231.697C444.576 233.473 441.943 234.361 438.6 234.361C435.047 234.361 432.351 233.493 430.514 231.757C428.673 230.025 427.753 227.525 427.753 224.266C427.753 222.216 428.047 220.283 428.633 218.467C429.22 216.647 430 215.051 430.984 213.669C431.965 212.29 433.118 211.201 434.436 210.409C435.746 209.618 437.137 209.216 438.604 209.216C440.071 209.216 441.517 209.614 442.835 210.409C444.154 211.201 445.295 212.29 446.251 213.669C447.212 215.047 447.979 216.667 448.538 218.531C449.105 220.392 449.386 222.385 449.386 224.515M433.962 204.201L430.076 200.25L433.962 196.304L437.848 200.25L433.962 204.201ZM445.122 225.078C445.122 223.615 444.965 222.269 444.652 221.035C444.343 219.805 443.888 218.736 443.306 217.84C442.719 216.944 442.032 216.241 441.236 215.738C440.44 215.24 439.564 214.987 438.604 214.987C437.724 214.987 436.88 215.208 436.068 215.646C435.252 216.084 434.549 216.683 433.966 217.434C433.383 218.182 432.913 219.062 432.556 220.066C432.202 221.067 432.025 222.132 432.025 223.265C432.025 225.058 432.592 226.428 433.717 227.368C434.846 228.309 436.474 228.779 438.608 228.779C439.488 228.779 440.324 228.687 441.115 228.498C441.911 228.313 442.598 228.04 443.185 227.682C443.768 227.328 444.242 226.93 444.6 226.492C444.953 226.054 445.13 225.58 445.13 225.082M443.125 204.205L439.239 200.254L443.125 196.308L447.011 200.254L443.125 204.205Z" fill="#0F2837"/>
<path d="M447.628 241.511C449.886 240.675 451.976 239.714 453.897 238.625C455.818 237.54 457.481 236.403 458.884 235.213C460.283 234.024 461.38 232.83 462.171 231.641C462.967 230.451 463.365 229.314 463.365 228.225C463.365 227.554 463.216 226.698 462.923 225.653C462.634 224.612 462.224 223.471 461.705 222.237C461.179 221.003 460.564 219.717 459.857 218.379C459.141 217.045 458.39 215.747 457.598 214.493L462.111 211.981C463.867 214.324 465.25 216.916 466.246 219.757C467.251 222.598 467.757 225.251 467.757 227.718C467.757 231.645 466.246 235.249 463.244 238.533C460.234 241.812 455.991 244.456 450.513 246.462L447.628 241.511Z" fill="#0F2837"/>
<path d="M476.403 233.92L476.09 194.364L481.041 193.484L480.727 233.92H476.403Z" fill="#0F2837"/>
<path d="M484.175 241.508C486.434 240.672 488.524 239.712 490.445 238.622C492.365 237.533 494.029 236.396 495.428 235.207C496.826 234.017 497.923 232.823 498.719 231.634C499.515 230.444 499.909 229.307 499.909 228.218C499.909 227.547 499.76 226.695 499.471 225.646C499.181 224.605 498.771 223.464 498.249 222.234C497.726 221 497.112 219.714 496.4 218.376C495.685 217.042 494.933 215.748 494.146 214.49L498.659 211.982C500.415 214.321 501.797 216.917 502.798 219.755C503.799 222.596 504.305 225.248 504.305 227.716C504.305 231.646 502.798 235.247 499.792 238.53C496.782 241.809 492.538 244.454 487.065 246.459L484.179 241.508H484.175ZM495.653 206.903L491.767 202.952L495.653 199.006L499.535 202.952L495.653 206.903Z" fill="#0F2837"/>
<path d="M512.515 241.322C521.545 240.064 526.745 236.789 528.128 231.48C527.288 232.107 526.315 232.589 525.21 232.919C524.105 233.256 522.919 233.421 521.669 233.421C518.913 233.421 516.694 232.46 515.022 230.535C513.351 228.615 512.515 226.083 512.515 222.952C512.515 221.2 512.768 219.58 513.27 218.094C513.769 216.611 514.464 215.325 515.34 214.236C516.216 213.15 517.265 212.303 518.475 211.7C519.688 211.093 521.002 210.792 522.425 210.792C525.68 210.792 528.224 212.262 530.04 215.212C531.861 218.158 532.769 222.305 532.769 227.658C532.769 230.166 532.343 232.485 531.483 234.619C530.627 236.748 529.418 238.629 527.846 240.261C526.283 241.888 524.39 243.239 522.172 244.304C519.957 245.369 517.49 246.088 514.773 246.466L512.515 241.326V241.322ZM522.485 228.345C523.655 228.345 524.796 228.181 525.901 227.843C527.01 227.509 527.878 227.091 528.505 226.589C528.336 223.286 527.718 220.738 526.657 218.941C525.588 217.145 524.113 216.245 522.236 216.245C520.604 216.245 519.274 216.852 518.253 218.061C517.225 219.275 516.718 220.862 516.718 222.828C516.718 224.584 517.229 225.942 518.253 226.903C519.274 227.867 520.689 228.345 522.485 228.345Z" fill="#0F2837"/>
<path d="M99.9959 256.212H105.084L116.308 275.393L127.532 256.212H132.503L134.215 293.084H129.019L127.801 264.78L117.409 282.189H114.757L104.533 265.001L103.259 293.084H98.2839L99.9959 256.212Z" fill="#0F2837"/>
<path d="M143.255 256.054L147.201 260.001L143.255 263.947L139.308 260.001L143.255 256.054ZM140.799 267.383H145.77V293.091H140.799V267.383Z" fill="#0F2837"/>
<path d="M152.843 293.082V269.01C152.843 268.656 152.823 268.114 152.786 267.378H157.541L157.709 271.248C158.039 270.806 158.445 270.32 158.923 269.785C159.401 269.251 159.988 268.765 160.691 268.323C161.387 267.881 162.21 267.511 163.151 267.217C164.091 266.924 165.152 266.775 166.33 266.775C169.681 266.775 172.173 267.752 173.796 269.701C175.412 271.658 176.224 274.315 176.224 277.662V293.086H171.245V278.048C171.245 275.653 170.734 273.893 169.701 272.767C168.669 271.646 167.214 271.083 165.333 271.083C163.894 271.083 162.701 271.377 161.74 271.968C160.784 272.554 160.016 273.322 159.45 274.258C158.871 275.203 158.457 276.268 158.204 277.465C157.943 278.667 157.818 279.893 157.818 281.138V293.082H152.839H152.843Z" fill="#0F2837"/>
<path d="M184.727 256.054L188.673 260.001L184.727 263.947L180.78 260.001L184.727 256.054ZM182.271 267.383H187.243V293.091H182.271V267.383Z" fill="#0F2837"/>
<path d="M195.528 286.612C196.449 287.532 197.558 288.267 198.848 288.822C200.134 289.373 201.629 289.65 203.321 289.65C205.012 289.65 206.363 289.385 207.472 288.85C208.573 288.32 209.132 287.476 209.132 286.334C209.132 285.744 209.011 285.237 208.774 284.811C208.525 284.389 208.127 284.012 207.552 283.678C206.982 283.348 206.226 283.043 205.29 282.766C204.349 282.488 203.176 282.183 201.777 281.853C200.781 281.632 199.796 281.339 198.82 280.969C197.835 280.6 196.967 280.113 196.191 279.503C195.412 278.896 194.785 278.156 194.311 277.292C193.832 276.428 193.591 275.387 193.591 274.17C193.591 272.952 193.873 271.815 194.447 270.878C195.018 269.938 195.781 269.146 196.734 268.503C197.698 267.86 198.771 267.37 199.973 267.036C201.167 266.707 202.408 266.538 203.702 266.538C205.88 266.538 207.749 266.823 209.312 267.394C210.88 267.969 212.254 268.764 213.436 269.797L210.723 273.225C209.951 272.526 208.983 271.939 207.822 271.457C206.656 270.979 205.31 270.734 203.755 270.734C202.199 270.734 200.897 270.995 199.941 271.513C198.98 272.032 198.502 272.876 198.502 274.053C198.502 275.158 199.141 275.982 200.411 276.517C201.681 277.051 203.349 277.557 205.41 278.04C206.624 278.337 207.765 278.675 208.81 279.06C209.863 279.446 210.783 279.945 211.579 280.551C212.371 281.158 212.998 281.91 213.46 282.79C213.914 283.674 214.147 284.743 214.147 285.997C214.147 287.251 213.85 288.42 213.263 289.397C212.672 290.373 211.88 291.193 210.888 291.86C209.891 292.523 208.746 293.017 207.46 293.351C206.17 293.681 204.82 293.845 203.421 293.845C198.554 293.845 194.909 292.539 192.474 289.923L195.516 286.604L195.528 286.612Z" fill="#0F2837"/>
<path d="M222.173 271.529H217.531V267.382H222.173V258.979H227.144V267.382H234.663V271.529H227.144V284.184C227.144 286.246 227.465 287.669 228.112 288.444C228.755 289.22 229.672 289.602 230.849 289.602C231.806 289.602 232.597 289.453 233.22 289.16C233.847 288.866 234.478 288.42 235.105 287.833L237.372 290.876C236.299 291.908 235.201 292.656 234.076 293.114C232.951 293.576 231.617 293.805 230.074 293.805C227.341 293.805 225.344 293.07 224.078 291.595C222.8 290.12 222.169 287.817 222.169 284.683V271.525L222.173 271.529Z" fill="#0F2837"/>
<path d="M241.627 293.082V268.981C241.627 268.652 241.607 268.113 241.57 267.378H246.325L246.493 271.525C246.787 271.083 247.173 270.593 247.651 270.058C248.129 269.528 248.712 269.034 249.391 268.592C250.074 268.154 250.866 267.772 251.77 267.462C252.67 267.149 253.707 266.992 254.889 266.992C255.443 266.992 255.949 267.028 256.412 267.101C256.87 267.177 257.304 267.286 257.714 267.434L256.604 272.076C255.945 271.819 255.093 271.69 254.065 271.69C253.036 271.69 252.015 271.895 251.107 272.297C250.203 272.703 249.423 273.265 248.764 273.985C248.097 274.7 247.57 275.54 247.185 276.5C246.799 277.457 246.61 278.47 246.61 279.543V293.086H241.631L241.627 293.082Z" fill="#0F2837"/>
<path d="M262.742 299.385C263.108 299.715 263.534 300.012 264.012 300.269C264.491 300.526 265.081 300.655 265.785 300.655C266.375 300.655 266.882 300.522 267.304 300.269C267.73 300.008 268.12 299.614 268.469 299.08C268.815 298.549 269.148 297.902 269.462 297.147C269.775 296.391 270.137 295.515 270.543 294.518L271.206 292.863L259.708 267.38H265.403L273.689 286.782L280.991 267.38H286.405L276.125 292.421C275.647 293.602 275.156 294.9 274.658 296.319C274.156 297.737 273.541 299.084 272.801 300.354C272.062 301.623 271.166 302.684 270.097 303.536C269.024 304.38 267.681 304.806 266.058 304.806C264.764 304.806 263.683 304.629 262.799 304.28C261.915 303.93 261.143 303.46 260.476 302.869L262.742 299.389V299.385Z" fill="#0F2837"/>
<path d="M310.903 293.859C308.917 293.859 307.089 293.501 305.433 292.782C303.778 292.067 302.343 291.078 301.149 289.824C299.948 288.57 299.011 287.128 298.332 285.484C297.645 283.844 297.307 282.084 297.307 280.207C297.307 278.331 297.645 276.566 298.332 274.927C299.011 273.287 299.948 271.84 301.149 270.587C302.343 269.337 303.778 268.348 305.433 267.629C307.089 266.909 308.917 266.552 310.903 266.552C312.888 266.552 314.668 266.909 316.324 267.629C317.98 268.348 319.422 269.337 320.636 270.587C321.85 271.84 322.798 273.287 323.477 274.927C324.157 276.566 324.502 278.327 324.502 280.207C324.502 282.088 324.157 283.844 323.477 285.484C322.798 287.124 321.85 288.57 320.636 289.824C319.422 291.078 317.98 292.067 316.324 292.782C314.668 293.501 312.856 293.859 310.903 293.859ZM310.903 289.547C312.229 289.547 313.431 289.282 314.5 288.747C315.564 288.213 316.473 287.513 317.208 286.645C317.944 285.777 318.51 284.785 318.896 283.659C319.282 282.538 319.475 281.385 319.475 280.203C319.475 279.022 319.278 277.929 318.896 276.8C318.51 275.678 317.931 274.674 317.18 273.789C316.42 272.905 315.524 272.198 314.467 271.66C313.422 271.125 312.229 270.86 310.899 270.86C309.568 270.86 308.379 271.125 307.31 271.66C306.237 272.198 305.337 272.897 304.597 273.761C303.862 274.625 303.299 275.626 302.914 276.747C302.528 277.873 302.331 279.022 302.331 280.203C302.331 281.385 302.528 282.522 302.914 283.631C303.299 284.737 303.87 285.733 304.629 286.617C305.381 287.501 306.285 288.213 307.338 288.747C308.387 289.278 309.573 289.547 310.899 289.547" fill="#0F2837"/>
<path d="M332.077 271.528H327.431V267.38H332.077V265.283C332.077 263.551 332.322 262.048 332.82 260.774C333.318 259.504 333.978 258.463 334.805 257.647C335.637 256.839 336.582 256.24 337.659 255.855C338.724 255.465 339.849 255.272 341.03 255.272C342.393 255.272 343.727 255.485 345.041 255.907C346.347 256.333 347.557 257.06 348.658 258.089L346.17 261.296C344.808 260.155 343.349 259.584 341.806 259.584C340.363 259.584 339.214 260.046 338.35 260.967C337.486 261.887 337.048 263.474 337.048 265.721V267.38H344.402V271.528H337.048V293.088H332.077V271.528Z" fill="#0F2837"/>
<path d="M392.25 286.617C391.84 287.28 391.218 288.035 390.366 288.883C389.518 289.731 388.485 290.531 387.271 291.287C386.057 292.046 384.651 292.681 383.068 293.192C381.484 293.71 379.732 293.967 377.815 293.967C375.09 293.967 372.599 293.485 370.352 292.528C368.106 291.572 366.173 290.234 364.553 288.522C362.93 286.81 361.668 284.784 360.768 282.441C359.863 280.103 359.413 277.551 359.413 274.786C359.413 272.021 359.863 269.573 360.768 267.214C361.668 264.855 362.93 262.79 364.553 261.026C366.177 259.253 368.122 257.867 370.38 256.85C372.651 255.837 375.163 255.331 377.932 255.331C379.885 255.331 381.633 255.568 383.184 256.05C384.731 256.525 386.086 257.127 387.243 257.843C388.408 258.562 389.401 259.346 390.229 260.194C391.057 261.042 391.732 261.853 392.25 262.625L388.485 265.828C388.043 265.201 387.524 264.55 386.913 263.867C386.299 263.184 385.575 262.569 384.727 262.014C383.879 261.464 382.899 261.001 381.798 260.632C380.688 260.266 379.419 260.081 377.984 260.081C375.954 260.081 374.142 260.467 372.534 261.243C370.931 262.014 369.569 263.067 368.447 264.393C367.322 265.719 366.466 267.271 365.875 269.035C365.285 270.807 364.987 272.684 364.987 274.673C364.987 276.662 365.289 278.535 365.9 280.283C366.506 282.036 367.362 283.559 368.472 284.849C369.573 286.139 370.923 287.151 372.502 287.891C374.09 288.626 375.862 288.996 377.811 288.996C379.467 288.996 380.901 288.787 382.095 288.361C383.297 287.935 384.305 287.429 385.137 286.842C385.965 286.251 386.648 285.648 387.179 285.046C387.713 284.435 388.171 283.932 388.537 283.522L392.246 286.621L392.25 286.617Z" fill="#0F2837"/>
<path d="M397.433 267.38H402.412V282.47C402.412 284.906 402.914 286.662 403.903 287.751C404.899 288.836 406.342 289.378 408.211 289.378C409.654 289.378 410.839 289.085 411.779 288.494C412.724 287.908 413.487 287.144 414.078 286.2C414.669 285.259 415.083 284.19 415.32 282.993C415.557 281.795 415.678 280.573 415.678 279.32V267.38H420.657V291.508C420.657 292.047 420.669 292.569 420.713 293.088H415.959L415.794 289.27C415.465 289.712 415.055 290.19 414.581 290.709C414.094 291.223 413.504 291.697 412.808 292.115C412.105 292.541 411.297 292.903 410.373 293.192C409.453 293.486 408.408 293.634 407.226 293.634C403.867 293.634 401.403 292.67 399.82 290.733C398.232 288.8 397.437 286.155 397.437 282.804V267.38H397.433Z" fill="#0F2837"/>
<path d="M432.488 256.212H427.509V293.084H432.488V256.212Z" fill="#0F2837"/>
<path d="M441.504 271.529H436.863V267.382H441.504V258.979H446.475V267.382H453.994V271.529H446.475V284.184C446.475 286.246 446.797 287.669 447.444 288.444C448.091 289.22 449.003 289.602 450.181 289.602C451.137 289.602 451.929 289.453 452.552 289.16C453.179 288.866 453.81 288.42 454.437 287.833L456.703 290.876C455.63 291.908 454.533 292.656 453.412 293.114C452.286 293.576 450.952 293.805 449.409 293.805C446.676 293.805 444.679 293.07 443.413 291.595C442.135 290.12 441.504 287.817 441.504 284.683V271.525V271.529Z" fill="#0F2837"/>
<path d="M459.797 267.38H464.776V282.47C464.776 284.906 465.274 286.662 466.263 287.751C467.259 288.836 468.702 289.378 470.575 289.378C472.018 289.378 473.203 289.085 474.144 288.494C475.088 287.908 475.851 287.144 476.442 286.2C477.033 285.259 477.447 284.19 477.688 282.993C477.925 281.795 478.046 280.573 478.046 279.32V267.38H483.025V291.508C483.025 292.047 483.037 292.569 483.081 293.088H478.327L478.162 289.27C477.833 289.712 477.423 290.19 476.949 290.709C476.462 291.223 475.872 291.697 475.176 292.115C474.473 292.541 473.665 292.903 472.741 293.192C471.821 293.486 470.776 293.634 469.594 293.634C466.235 293.634 463.771 292.67 462.188 290.733C460.6 288.8 459.805 286.155 459.805 282.804V267.38H459.797Z" fill="#0F2837"/>
<path d="M489.922 293.082V268.981C489.922 268.652 489.902 268.113 489.866 267.378H494.62L494.789 271.525C495.082 271.083 495.468 270.593 495.946 270.058C496.425 269.528 497.007 269.034 497.687 268.592C498.37 268.154 499.161 267.772 500.07 267.462C500.97 267.149 502.011 266.992 503.188 266.992C503.743 266.992 504.249 267.028 504.711 267.101C505.169 267.177 505.603 267.286 506.013 267.434L504.904 272.076C504.245 271.819 503.393 271.69 502.364 271.69C501.336 271.69 500.315 271.895 499.411 272.297C498.502 272.703 497.723 273.265 497.064 273.985C496.396 274.7 495.87 275.54 495.484 276.5C495.098 277.457 494.91 278.47 494.91 279.543V293.086H489.93L489.922 293.082Z" fill="#0F2837"/>
<path d="M532.102 289.322C531.805 289.656 531.367 290.082 530.776 290.596C530.185 291.115 529.418 291.605 528.477 292.087C527.537 292.565 526.432 292.979 525.162 293.329C523.892 293.675 522.445 293.855 520.821 293.855C518.828 293.855 517.012 293.526 515.352 292.859C513.688 292.196 512.27 291.255 511.088 290.038C509.907 288.824 509.002 287.365 508.359 285.673C507.712 283.981 507.387 282.101 507.387 280.035C507.387 278.154 507.7 276.398 508.327 274.759C508.95 273.119 509.838 271.7 510.98 270.503C512.117 269.305 513.471 268.353 515.038 267.657C516.602 266.958 518.33 266.604 520.207 266.604C522.417 266.604 524.314 267.026 525.901 267.874C527.489 268.722 528.791 269.848 529.799 271.246C530.808 272.649 531.559 274.252 532.038 276.057C532.516 277.861 532.753 279.742 532.753 281.695H512.467C512.503 282.836 512.756 283.885 513.21 284.846C513.672 285.802 514.295 286.634 515.063 287.333C515.834 288.028 516.722 288.587 517.719 288.989C518.716 289.395 519.76 289.596 520.874 289.596C523.04 289.596 524.832 289.226 526.231 288.491C527.633 287.751 528.646 287.036 529.273 286.332L532.094 289.318L532.102 289.322ZM527.621 277.994C527.472 276 526.773 274.312 525.523 272.91C524.27 271.507 522.501 270.808 520.215 270.808C519.033 270.808 517.972 271.013 517.04 271.415C516.099 271.825 515.3 272.355 514.629 273.018C513.97 273.681 513.451 274.445 513.085 275.309C512.712 276.177 512.511 277.073 512.471 277.994H527.617H527.621Z" fill="#0F2837"/>
<path d="M442.451 47.9645C439.758 84.764 443.054 121.411 442.174 158.532C442.013 165.356 442.857 172.654 442.359 179.51C442.302 180.321 442.069 180.936 440.831 180.952C439.144 180.775 437.456 180.627 435.752 180.972C435.201 176.057 435.414 172.252 434.964 168.02C433.992 158.785 434.542 151.246 434.462 141.183C434.329 123.947 432.87 106.385 434.128 89.1806C434.578 83.048 434.622 72.9971 434.313 66.8525C434 60.6114 433.67 55.9818 434.052 48.0167C437.034 47.647 439.827 47.643 442.443 47.9645" fill="#EB5A3C"/>
<path d="M136.987 37.6066C139.997 37.8999 141.319 38.8001 141.552 42.1718C141.898 47.2194 141.166 49.9843 141.709 54.9313C143.501 71.396 139.659 88.0818 141.379 104.555C142.288 113.263 141.416 121.092 141.725 129.84C142.187 142.837 141.596 157.586 141.275 172.845H100.742C99.3235 170.852 99.5807 160.7 100.015 158.052C100.396 155.741 100.376 153.382 100.352 151.039C100.264 141.459 100.863 132.927 100.774 123.35C100.722 117.72 100.67 112.066 99.7494 106.508C98.9376 101.593 100.2 92.9847 99.4681 88.0577C98.5478 81.8608 98.0616 44.9166 98.3831 37.8396C98.3831 37.8396 132.221 37.1444 136.987 37.6106" fill="#EB5A3C"/>
<path d="M211.326 46.2317C208.999 45.3677 209.349 48.1125 209.381 49.5632C209.409 50.8974 209.373 51.7373 209.349 53.5297C209.301 57.0903 209.606 66.7955 209.646 70.2958C209.718 76.1833 210.088 81.3313 209.988 85.9769C209.795 94.7136 209.755 103.458 210.112 112.187C211.008 133.936 209.956 155.734 210.607 177.355C210.663 179.236 211.844 179.758 213.556 180.192L216.068 180.61C215.984 162.092 217.451 142.681 216.277 124.215C215.787 116.515 216.076 108.823 216.056 101.103C216.04 93.6969 215.996 86.2864 216.132 78.8798C216.213 74.3909 216.169 69.898 216.024 65.4091C215.847 59.8391 216.144 49.1372 214.649 47.6463C213.745 46.7421 212.865 46.8023 211.33 46.2277" fill="#6E1946"/>
<path d="M171.274 165.391C173.738 165.334 173.26 163.506 173.239 162.039C173.219 160.693 173.541 159.849 173.577 158.04C173.641 154.456 173.388 144.662 173.368 141.133C173.328 135.194 172.986 130.006 173.111 125.324C173.352 116.515 173.436 107.698 173.123 98.8926C172.339 76.9584 173.509 54.988 172.966 33.1864C172.918 31.2936 171.672 31.1971 169.546 31.1328L166.605 31.2695C166.588 49.9405 166.797 69.805 167.063 89.6857C167.167 97.466 167.075 103.522 167.059 111.306C167.039 118.777 167.203 124.737 167.187 132.204C167.179 136.158 167.006 140.527 166.962 146.024C166.914 151.642 166.645 162.252 167.959 163.94C168.863 165.101 169.743 165.419 171.274 165.386" fill="#91B9B4"/>
<path d="M224.617 176.835C222.366 176.546 222.057 175.537 222.133 172.953C222.354 165.318 221.868 149.014 221.056 139.023C220.321 129.985 220.526 120.758 221.659 111.816C222.443 105.631 221.346 101.018 221.31 93.3502C221.261 83.2632 221.88 75.3664 221.836 68.5667C221.808 64.3712 221.675 60.1796 221.478 55.9881C221.293 52.0779 221.346 43.4336 221.378 42.4771C222.033 42.2521 224.348 42.3043 224.959 42.3726C227.121 42.6057 228.161 42.8589 229.709 43.6064C230.641 47.605 230.34 56.0242 230.364 60.7342C230.376 63.4991 230.179 74.9203 230.364 77.6691C230.669 82.2384 230.504 86.8439 230.537 91.4333C230.577 97.2805 230.93 103.116 230.914 108.967C230.898 116.386 230.291 123.772 230.111 131.183C229.773 144.846 231.501 162.484 231.356 173.902C231.328 176.172 231.589 177.398 229.166 177.398C229.166 177.398 226.867 177.117 224.617 176.831" fill="#EB5A3C"/>
<path d="M429.941 170.588C430.404 164.917 429.182 156.144 429.17 151.583C429.162 148.907 428.856 137.851 429.029 135.191C429.311 130.766 429.102 126.309 429.098 121.865C429.09 116.206 429.415 110.552 429.351 104.893C429.274 97.712 428.575 90.5707 428.326 83.3933C427.804 68.4637 430.002 48.5951 429.089 38.07C425.34 37.2542 420.731 37.0453 415.663 37.1658C414.389 45.4926 414.731 53.8355 414.891 63.9667C414.996 70.5494 414.409 78.1971 414.538 87.9626C414.638 95.3852 416.535 104.263 415.763 110.254C414.646 118.919 414.506 127.852 415.349 136.597C416.559 149.1 416.117 169.619 416.274 169.888L429.933 170.588H429.941Z" fill="#B41932"/>
<path d="M469.407 170.885C470.006 155.445 469.921 146.094 470.175 132.756C470.351 123.348 468.852 111.412 469.033 101.498C469.367 83.3131 469.564 77.0841 468.125 60.2014C467.8 56.3997 468.342 49.2343 468.201 45.4246C468.105 42.8687 468.009 39.5773 467.916 37.0214C467.916 37.0214 480.374 39.7019 490.047 37.6684C505.451 34.4293 530.954 37.7649 530.954 37.7649C532.469 40.3529 532.674 46.377 532.634 47.8639C532.348 59.0079 532.115 55.0896 532.501 66.2335C532.867 76.7345 530.902 86.0218 530.902 100.863C530.902 110.612 532.368 117.022 532.702 123.517C533.048 130.196 531.882 135.798 532.316 146.395C532.582 152.93 532.433 170.053 532.541 171.629C532.541 171.629 486.639 171.894 476.85 170.721C471.678 170.102 469.407 170.885 469.407 170.885Z" fill="#6E1946"/>
<path d="M385.429 31.4456C385.682 54.5132 385.891 80.0924 387.029 100.934C387.406 107.878 387.206 116.59 387.479 124.515C387.599 128.044 386.988 135.089 386.711 139.775C386.486 143.572 386.583 147.378 386.675 151.18C386.776 155.206 386.864 163.63 386.51 163.815C384.155 163.441 381.668 163.421 379.027 163.815C378.167 160.716 378.734 157.815 378.79 154.6C379.273 126.915 377.344 106.696 377.802 81.2015C377.954 72.927 377.681 61.6223 377.034 53.3718C376.476 46.2306 376.729 38.1971 377.597 31.084C380.321 31.0357 382.926 31.1684 385.433 31.4416" fill="#FAC39B"/>
<path d="M462.495 32.6733C463.21 44.5727 462.656 52.4093 462.881 62.645C463.082 71.6308 464.079 79.2946 463.532 89.6106C463.058 98.5161 463.97 107.438 464.163 116.355C464.348 125.032 464.509 133.712 464.609 142.393C464.762 149.116 464.91 155.2 464.922 161.932C464.922 163.061 464.79 165.464 464.798 166.593C464.798 166.593 462.431 166.147 460.12 166.352C454.289 166.875 449.796 166.175 448.092 165.854C446.657 165.528 447.863 142.067 447.899 139.909C448.052 131.096 448.088 122.283 448.048 113.474C448.004 104.556 447.168 95.0882 446.999 86.1706C446.826 77.1606 447.32 68.6972 447.083 59.6912C446.846 50.6008 446.577 42.8608 446.34 33.7704C446.292 31.9178 448.032 30.9493 450.965 31.753C454.864 32.822 458.951 31.544 462.495 32.6733Z" fill="#FF9619"/>
<path d="M156.956 43.8522C159.656 44.2179 161.686 46.7899 161.742 49.8321C161.814 54.1884 161.73 58.0544 161.629 61.836C161.517 66.0758 161.384 70.2111 161.44 74.8286C161.67 93.6523 162.481 111.632 161.641 131.127C160.926 147.64 162.453 163.755 162.276 178.894C157.249 178.608 151.297 178.158 146.431 177.925C147.805 149.991 146.929 123.54 146.607 94.4641C146.427 78.1079 149.119 65.3524 146.828 43.5669C150.353 43.2012 153.7 43.4061 156.96 43.8522" fill="#6E1946"/>
<path d="M372.85 105.911C372.504 95.9611 372.573 77.1454 373.328 67.1549C374.168 56.035 371.415 39.2046 365.271 39.5743C359.91 39.281 354.038 39.8757 348.677 40.149C344.369 40.37 338.86 40.3901 334.563 40.7598C327.189 41.3948 326.381 40.4223 318.979 40.4343C309.744 40.4424 301.771 41.1818 292.536 41.1939C283.59 41.2059 273.623 40.9648 264.702 40.2897C255.945 39.6225 246.63 38.4049 237.925 38.6621C236.667 38.6982 235.948 44.3486 235.699 51.2688C235.462 57.9399 235.024 72.3792 235.578 79.3075C239.645 74.3203 244.769 72.3671 249.78 71.905C253.803 71.5353 258.477 71.2982 262.829 71.9854C263.263 72.0537 259.976 68.9593 257.295 66.8133C255.788 65.6077 254.084 64.3819 252.172 64.1006C249.809 63.751 247.357 63.9761 244.97 63.8515C246.69 62.3485 249.732 58.4985 257.219 59.5233C261.246 60.0779 267.993 67.0785 270.425 65.1656C273.129 63.0437 272.064 54.7008 275.649 53.7966C278.567 53.0612 280.496 64.177 281.894 66.6244C285.153 62.457 290.056 59.4429 295.349 58.8281C298.11 58.5106 306.601 59.5193 307.751 63.5782C307.759 63.53 296.932 61.597 290.213 71.3263C299.765 67.5447 309.39 68.7945 317.464 75.0075C319.702 76.7315 321.153 78.552 322.672 80.6176C324.83 83.5553 324.581 84.8775 324.529 86.5573C320.996 85.85 317.717 79.7777 311.609 77.8969C306.473 76.3216 300.987 76.627 295.891 78.1943C307.505 80.0751 323.54 95.5231 318.002 108.174C316.21 112.265 315.712 109.528 315.077 106.096C314.321 102.005 313.188 99.6784 311.235 97.0301C309.527 94.7153 307.73 92.6658 305.629 90.6484C303.776 88.8721 298.073 86.3523 295.405 86.497C302.888 88.5988 307.682 103.476 308.325 105.064C309.885 108.909 309.86 113.33 309.957 117.425C310.013 119.788 310.21 127.994 307.212 128.774C307.256 128.762 307.706 108.909 293.641 97.5364C297.314 103.966 297.607 111.851 297.181 119.029C296.944 123.067 296.301 126.303 294.537 129.96C294.151 130.759 292.664 134.412 292.077 134.545C290.201 134.967 291.193 123.425 290.916 121.388C290.57 118.864 286.021 101.808 281.247 105.996C278.82 108.122 280.057 117.714 280.355 121.978C280.721 127.223 281.351 134.866 281.444 140.123C281.641 151.03 281.938 158.661 283.345 169.608C295.843 162.877 350.851 134.694 358.704 157.942C358.732 158.677 358.266 158.155 358.266 158.155H358.262C352.885 150.105 338.208 154.257 330.866 156.515C317.805 160.542 305.303 166.896 293.464 173.671C312.923 173.719 342.91 173.651 365.126 173.671C370.242 173.671 374.337 169.44 374.16 164.324C374.035 160.562 373.931 156.069 373.931 151.178C373.931 145.705 374.216 139.741 374.365 134.272C374.662 123.333 373.224 116.842 372.846 105.911M263.705 117.361C262.926 120.19 261.977 124.992 261.837 126.226C261.696 127.456 260.687 134.252 260.687 134.252C260.229 133.99 259.992 133.48 259.783 132.998C257.018 126.724 257.565 116.818 257.569 116.774C258.521 101.181 264.075 97.0341 264.107 97.0823C261.608 95.6517 256.58 101.527 253.944 105.228C250.419 110.179 251.03 113.583 250.58 121.271C248.691 120.889 246.819 117.743 246.694 115.404C246.059 103.287 251.416 92.1514 257.247 87.6021C257.906 87.0235 250.528 88.4622 249.234 88.9886C244.452 90.9417 241.04 94.3576 238.689 98.935C233.754 108.544 236.904 119.973 236.217 130.462C235.819 136.51 236.703 142.47 236.643 148.53C236.599 153.099 235.446 153.955 240.007 154.365C241.819 154.53 243.62 154.811 245.396 155.193C256.154 157.516 264.774 162.463 272.346 170.328C273.551 156.33 273.716 143.43 273.716 129.369C273.716 123.815 274.632 111.915 270.931 107.165C267.173 102.351 264.573 114.202 263.705 117.357M237.314 158.223C237.069 163.653 237.395 168.041 237.491 174.375C242.844 174.005 246.019 174.479 251.352 174.809C256.476 175.126 261.913 174.567 267.049 175.251C259.208 166.751 249.202 159.264 237.314 158.223ZM246.087 83.1896C248.008 81.9076 255.861 77.9251 256.805 77.9733C251.151 75.8112 244.363 76.3256 239.368 79.4964C234.525 82.5707 236.149 91.0542 235.518 96.4956C237.941 91.6329 241.53 86.2318 246.087 83.1896Z" fill="#0F2837"/>
<path d="M406.656 42.0623C407.383 42.1628 407.926 42.7736 407.942 43.501C408.308 58.6315 408.637 72.2711 409.614 87.9079C410 94.1088 410.317 103.276 409.413 110.557C408.223 120.142 410.667 127.918 409.988 137.555C409.091 150.267 410.968 160.711 410.249 173.435L394.451 173.78C393.145 173.824 391.968 172.591 392.152 169.548C392.333 166.502 392.076 153.409 392.076 143.579C392.076 133.75 393.378 124.611 392.293 113.664C391.759 108.263 393.041 102.52 392.727 97.1028C392.16 87.285 391.843 78.7131 391.642 68.8793C391.522 63.0762 391.654 54.1546 391.469 48.4521C391.341 44.4775 392.205 41.56 394.403 40.5713C396.915 39.4461 403.803 41.6725 406.652 42.0583" fill="#91B9B4"/>
<path d="M178.634 158.073C178.477 161.746 178.401 163.008 178.401 164.391C178.401 165.311 179.22 165.472 179.964 165.882C180.458 166.151 184.714 167.047 186.1 167.344C187.31 167.602 189.03 167.795 190.26 167.77C194.355 167.702 198.406 169.113 202.489 168.731C202.621 168.719 202.75 168.675 202.871 168.598C203.212 168.385 204.354 167.847 204.667 165.56C205.137 162.088 204.185 159.054 204.719 152.724C205.25 146.395 204.784 129.247 204.816 125.128C205.073 93.8941 203.297 93.3797 204.088 69.2754C204.366 60.7597 204.153 57.9426 203.224 49.0451C202.979 46.6821 201.902 40.7263 202.433 36.6071C202.63 35.1122 201.705 33.8423 200.238 33.7659C193.467 33.4163 179.257 34.4973 179.257 34.4973C178.489 37.648 178.332 40.6259 178.529 44.8697C178.666 47.8154 178.107 52.666 178.099 55.6157C178.099 58.9432 177.874 62.2547 178.023 65.5782C178.429 74.4917 178.67 83.4133 178.397 92.3268C177.709 114.912 179.695 128.017 178.819 150.213L178.626 158.073H178.634Z" fill="#FF9619"/>
</g>
</svg>
