<svg width="632" height="336" viewBox="0 0 632 336" fill="none" xmlns="http://www.w3.org/2000/svg">
<mask id="mask0_935_124" style="mask-type:luminance" maskUnits="userSpaceOnUse" x="62" y="40" width="494" height="234">
<path d="M555.406 40.7061H62.4932V273.212H555.406V40.7061Z" fill="white"/>
</mask>
<g mask="url(#mask0_935_124)">
<path d="M178.447 70.6333C171.875 76.8412 165.889 83.6348 160.667 91.0141C169.469 103.371 176.334 117.193 180.735 132.01C189.948 110.282 206.555 92.4783 227.445 81.702C248.334 92.4783 265 110.282 274.154 132.068C278.555 117.193 285.42 103.371 294.222 91.0141C288.941 83.6348 283.014 76.7824 276.384 70.6333C262.477 57.5143 245.811 47.2069 227.386 40.7061C209.019 47.2069 192.354 57.5143 178.447 70.6333Z" fill="url(#paint0_linear_935_124)"/>
<path d="M80.0385 258.983C81.3293 250.022 81.3293 241.179 80.0385 232.219C95.1191 246.626 129.506 253.536 158.963 253.536C182.905 253.536 192.88 248.266 192.88 237.665C192.88 223.551 177.8 221.97 141.946 218.924C102.571 215.41 78.8062 209.144 78.8062 184.897C78.8062 160.651 100.166 149.29 143.883 149.29C174.572 149.29 192.88 153.447 215.531 158.894C214.24 167.562 214.24 175.761 215.531 183.902C196.87 176.23 172.166 168.323 142.885 168.323C118.122 168.323 107.677 173.301 107.677 184.019C107.677 196.845 120.528 200.242 153.33 202.76C194.641 205.981 221.809 211.603 221.809 237.372C221.809 261.091 199.98 272.512 156.381 272.512C126.983 272.57 100.283 266.479 80.0385 258.983Z" fill="#034537"/>
<path d="M271.748 173.651C271.278 205.863 271.748 238.601 273.215 270.812H244.285C245.577 231.046 245.577 191.104 244.285 151.338C254.907 152.627 273.508 152.919 284.129 151.338C308.892 184.545 334.77 217.283 361.762 249.494C362.231 216.756 361.939 183.9 360.295 151.338C370.447 152.802 379.896 152.919 388.874 151.338C387.758 191.104 387.935 231.046 389.343 270.812H350.439C325.264 237.957 299.093 205.394 271.748 173.651Z" fill="#034537"/>
<path d="M416.742 151.049C438.453 151.049 458.875 150.581 489.389 150.581C527.296 150.581 548.068 159.424 548.068 180.566C548.068 199.483 531.167 206.862 510.454 207.682V209.791C536.155 210.435 555.461 219.102 555.461 239.483C555.461 268.356 515.795 271.87 486.981 271.87C453.418 271.87 438.922 270.933 416.742 270.933C418.678 240.83 418.678 181.035 416.742 151.049ZM489.507 203.934C509.282 203.934 518.906 198.136 518.906 186.306C518.906 173.655 508.282 169.322 489.507 169.322C470.729 169.322 454.298 169.322 445.321 169.497C445.025 180.098 444.851 191.459 445.025 203.641C458.639 203.817 473.896 203.934 489.507 203.934ZM445.613 252.368C458.287 252.661 468.088 253.012 488.332 253.012C517.262 253.012 524.48 244.52 524.48 235.032C524.48 226.54 517.262 219.454 489.448 219.454C473.837 219.454 458.583 219.454 444.966 219.63C444.966 230.581 445.321 242.294 445.613 252.368Z" fill="#034537"/>
</g>
<defs>
<linearGradient id="paint0_linear_935_124" x1="226.799" y1="130.608" x2="226.799" y2="40.7061" gradientUnits="userSpaceOnUse">
<stop stop-color="#84BD00"/>
<stop offset="1" stop-color="#006A52"/>
</linearGradient>
</defs>
</svg>
