<svg width="494" height="422" viewBox="0 0 494 422" fill="none" xmlns="http://www.w3.org/2000/svg">
<path d="M1.50622 33.29V24.4112H36.7836V33.29H24.5752V65H13.7146V33.29H1.50622ZM78.3434 44.7056C78.3434 49.2243 77.4648 53.0361 75.7075 56.141C73.9503 59.2327 71.5786 61.578 68.5926 63.1767C65.6066 64.7622 62.2771 65.5549 58.604 65.5549C54.9045 65.5549 51.5617 64.7556 48.5757 63.1569C45.6029 61.5449 43.2379 59.1931 41.4806 56.1014C39.7366 52.9965 38.8645 49.1979 38.8645 44.7056C38.8645 40.187 39.7366 36.3818 41.4806 33.29C43.2379 30.1851 45.6029 27.8399 48.5757 26.2544C51.5617 24.6557 54.9045 23.8563 58.604 23.8563C62.2771 23.8563 65.6066 24.6557 68.5926 26.2544C71.5786 27.8399 73.9503 30.1851 75.7075 33.29C77.4648 36.3818 78.3434 40.187 78.3434 44.7056ZM67.0071 44.7056C67.0071 42.2745 66.6834 40.2266 66.036 38.5618C65.4018 36.8838 64.4571 35.6154 63.2019 34.7566C61.96 33.8846 60.4273 33.4486 58.604 33.4486C56.7807 33.4486 55.2414 33.8846 53.9862 34.7566C52.7442 35.6154 51.7996 36.8838 51.1521 38.5618C50.5179 40.2266 50.2008 42.2745 50.2008 44.7056C50.2008 47.1367 50.5179 49.1913 51.1521 50.8692C51.7996 52.534 52.7442 53.8024 53.9862 54.6744C55.2414 55.5333 56.7807 55.9627 58.604 55.9627C60.4273 55.9627 61.96 55.5333 63.2019 54.6744C64.4571 53.8024 65.4018 52.534 66.036 50.8692C66.6834 49.1913 67.0071 47.1367 67.0071 44.7056ZM80.4244 33.29V24.4112H115.702V33.29H103.493V65H92.6327V33.29H80.4244ZM125.269 65H113.378L126.775 24.4112H141.838L155.235 65H143.344L134.465 35.589H134.148L125.269 65ZM123.05 48.9865H145.405V57.2311H123.05V48.9865ZM159.144 65V24.4112H170.164V56.1212H186.574V65H159.144ZM2.61607 120V79.4112H20.1358C23.1483 79.4112 25.7842 79.9596 28.0435 81.0562C30.3028 82.1528 32.0601 83.7317 33.3153 85.7929C34.5705 87.854 35.1981 90.3248 35.1981 93.2051C35.1981 96.1118 34.5507 98.5627 33.2558 100.558C31.9742 102.553 30.1707 104.059 27.8453 105.076C25.5331 106.094 22.8312 106.603 19.7395 106.603H9.27517V98.0408H17.5198C18.8146 98.0408 19.9178 97.8823 20.8295 97.5652C21.7544 97.2349 22.4612 96.713 22.9501 95.9995C23.4522 95.286 23.7032 94.3546 23.7032 93.2051C23.7032 92.0424 23.4522 91.0977 22.9501 90.371C22.4612 89.6311 21.7544 89.0894 20.8295 88.7459C19.9178 88.3891 18.8146 88.2108 17.5198 88.2108H13.6353V120H2.61607ZM26.3985 101.37L36.5457 120H24.5752L14.6659 101.37H26.3985ZM39.8951 120V79.4112H69.1475V88.29H50.9143V95.2662H67.6413V104.145H50.9143V111.121H69.0683V120H39.8951ZM112.506 94.632H101.328C101.249 93.7072 101.038 92.8682 100.694 92.115C100.364 91.3619 99.9013 90.7145 99.3067 90.1728C98.7253 89.6179 98.0185 89.1951 97.1861 88.9044C96.3537 88.6005 95.409 88.4486 94.352 88.4486C92.5023 88.4486 90.9366 88.8978 89.655 89.7963C88.3866 90.6947 87.4221 91.9829 86.7614 93.6609C86.114 95.3389 85.7903 97.3538 85.7903 99.7056C85.7903 102.19 86.1206 104.271 86.7813 105.949C87.4551 107.613 88.4262 108.868 89.6946 109.714C90.963 110.546 92.4891 110.963 94.2727 110.963C95.2901 110.963 96.2018 110.837 97.0077 110.586C97.8137 110.322 98.5139 109.945 99.1085 109.456C99.7031 108.968 100.185 108.38 100.555 107.693C100.938 106.992 101.196 106.206 101.328 105.334L112.506 105.413C112.374 107.131 111.892 108.882 111.059 110.665C110.227 112.436 109.044 114.074 107.512 115.58C105.992 117.073 104.109 118.276 101.863 119.187C99.6172 120.099 97.0077 120.555 94.0349 120.555C90.309 120.555 86.9662 119.756 84.0066 118.157C81.0603 116.558 78.7283 114.206 77.0106 111.101C75.3062 107.996 74.454 104.198 74.454 99.7056C74.454 95.187 75.326 91.3818 77.0701 88.29C78.8141 85.1851 81.166 82.8399 84.1256 81.2544C87.0851 79.6557 90.3883 78.8563 94.0349 78.8563C96.5981 78.8563 98.9566 79.2064 101.11 79.9067C103.264 80.607 105.153 81.6309 106.778 82.9786C108.403 84.3131 109.712 85.958 110.702 87.9135C111.693 89.8689 112.295 92.1084 112.506 94.632ZM115.84 79.4112H128.128L136.056 95.9004H136.373L144.3 79.4112H156.588L141.684 107.237V120H130.744V107.237L115.84 79.4112ZM195.239 94.632H184.061C183.982 93.7072 183.771 92.8682 183.427 92.115C183.097 91.3619 182.635 90.7145 182.04 90.1728C181.459 89.6179 180.752 89.1951 179.919 88.9044C179.087 88.6005 178.142 88.4486 177.085 88.4486C175.236 88.4486 173.67 88.8978 172.388 89.7963C171.12 90.6947 170.155 91.9829 169.495 93.6609C168.847 95.3389 168.524 97.3538 168.524 99.7056C168.524 102.19 168.854 104.271 169.515 105.949C170.188 107.613 171.159 108.868 172.428 109.714C173.696 110.546 175.222 110.963 177.006 110.963C178.023 110.963 178.935 110.837 179.741 110.586C180.547 110.322 181.247 109.945 181.842 109.456C182.436 108.968 182.919 108.38 183.289 107.693C183.672 106.992 183.929 106.206 184.061 105.334L195.239 105.413C195.107 107.131 194.625 108.882 193.792 110.665C192.96 112.436 191.778 114.074 190.245 115.58C188.725 117.073 186.843 118.276 184.597 119.187C182.35 120.099 179.741 120.555 176.768 120.555C173.042 120.555 169.7 119.756 166.74 118.157C163.794 116.558 161.462 114.206 159.744 111.101C158.039 107.996 157.187 104.198 157.187 99.7056C157.187 95.187 158.059 91.3818 159.803 88.29C161.547 85.1851 163.899 82.8399 166.859 81.2544C169.818 79.6557 173.122 78.8563 176.768 78.8563C179.331 78.8563 181.69 79.2064 183.843 79.9067C185.997 80.607 187.887 81.6309 189.512 82.9786C191.137 84.3131 192.445 85.958 193.436 87.9135C194.427 89.8689 195.028 92.1084 195.239 94.632ZM200.239 120V79.4112H211.258V111.121H227.668V120H200.239ZM242.665 120H230.774L244.172 79.4112H259.234L272.631 120H260.74L251.861 90.589H251.544L242.665 120ZM240.446 103.986H262.801V112.231H240.446V103.986ZM276.541 120V79.4112H294.14C297.231 79.4112 299.828 79.8274 301.928 80.6598C304.042 81.4922 305.635 82.6681 306.705 84.1876C307.788 85.707 308.33 87.4973 308.33 89.5584C308.33 91.0514 308 92.4123 307.339 93.6411C306.692 94.8699 305.78 95.9004 304.604 96.7328C303.428 97.552 302.054 98.1201 300.482 98.4372V98.8336C302.226 98.8997 303.811 99.3423 305.238 100.161C306.665 100.967 307.801 102.084 308.647 103.511C309.493 104.925 309.915 106.589 309.915 108.505C309.915 110.725 309.334 112.7 308.171 114.431C307.022 116.162 305.383 117.523 303.256 118.514C301.129 119.505 298.592 120 295.646 120H276.541ZM287.56 111.2H292.713C294.562 111.2 295.95 110.857 296.875 110.17C297.8 109.47 298.262 108.439 298.262 107.078C298.262 106.127 298.044 105.321 297.608 104.66C297.172 104 296.551 103.498 295.745 103.154C294.952 102.811 293.994 102.639 292.871 102.639H287.56V111.2ZM287.56 95.8212H292.079C293.043 95.8212 293.895 95.6692 294.635 95.3653C295.375 95.0614 295.95 94.6254 296.359 94.0573C296.782 93.4759 296.994 92.7691 296.994 91.9367C296.994 90.6815 296.544 89.7236 295.646 89.063C294.747 88.3891 293.611 88.0522 292.237 88.0522H287.56V95.8212ZM313.82 120V79.4112H324.839V111.121H341.249V120H313.82ZM345.703 120V79.4112H374.955V88.29H356.722V95.2662H373.449V104.145H356.722V111.121H374.876V120H345.703ZM402.3 92.0952C402.195 90.774 401.699 89.7434 400.814 89.0035C399.942 88.2636 398.614 87.8937 396.83 87.8937C395.694 87.8937 394.763 88.0324 394.036 88.3099C393.322 88.5741 392.794 88.9374 392.45 89.3999C392.107 89.8623 391.929 90.3908 391.915 90.9854C391.889 91.4742 391.975 91.9169 392.173 92.3132C392.384 92.6964 392.715 93.0465 393.164 93.3636C393.613 93.6675 394.188 93.945 394.888 94.196C395.588 94.4471 396.421 94.6717 397.385 94.8699L400.715 95.5833C402.961 96.059 404.883 96.6866 406.482 97.4661C408.081 98.2456 409.389 99.1639 410.406 100.221C411.424 101.265 412.17 102.441 412.646 103.749C413.135 105.057 413.386 106.484 413.399 108.029C413.386 110.698 412.718 112.958 411.397 114.807C410.076 116.657 408.187 118.064 405.729 119.029C403.285 119.993 400.345 120.476 396.91 120.476C393.382 120.476 390.303 119.954 387.674 118.91C385.058 117.866 383.023 116.261 381.57 114.094C380.13 111.914 379.403 109.126 379.39 105.731H389.854C389.92 106.972 390.231 108.016 390.786 108.862C391.341 109.707 392.12 110.348 393.124 110.784C394.142 111.22 395.351 111.438 396.751 111.438C397.927 111.438 398.911 111.293 399.704 111.002C400.497 110.712 401.098 110.309 401.508 109.793C401.917 109.278 402.129 108.69 402.142 108.029C402.129 107.409 401.924 106.867 401.527 106.404C401.144 105.929 400.51 105.506 399.625 105.136C398.74 104.753 397.544 104.396 396.038 104.066L391.995 103.194C388.401 102.414 385.567 101.113 383.492 99.2894C381.431 97.4529 380.407 94.9491 380.42 91.7781C380.407 89.2017 381.094 86.949 382.482 85.0199C383.882 83.0777 385.818 81.5649 388.289 80.4815C390.772 79.398 393.62 78.8563 396.83 78.8563C400.107 78.8563 402.941 79.4046 405.333 80.5013C407.724 81.5979 409.567 83.1438 410.862 85.1389C412.17 87.1207 412.831 89.4395 412.844 92.0952H402.3Z" fill="#9493F8"/>
<rect y="137.132" width="301" height="63" rx="31.5" fill="#9493F8"/>
<path d="M32.6161 189.132V148.543H50.2153C53.307 148.543 55.9033 148.959 58.0041 149.792C60.1181 150.624 61.7102 151.8 62.7805 153.319C63.8639 154.839 64.4056 156.629 64.4056 158.69C64.4056 160.183 64.0753 161.544 63.4147 162.773C62.7672 164.002 61.8556 165.032 60.6796 165.865C59.5037 166.684 58.1296 167.252 56.5573 167.569V167.966C58.3014 168.032 59.8869 168.474 61.3139 169.293C62.7408 170.099 63.8771 171.216 64.7227 172.643C65.5683 174.057 65.9911 175.721 65.9911 177.637C65.9911 179.857 65.4098 181.832 64.247 183.563C63.0976 185.294 61.4592 186.655 59.332 187.646C57.2047 188.637 54.6679 189.132 51.7215 189.132H32.6161ZM43.6354 180.332H48.7883C50.6381 180.332 52.0254 179.989 52.9503 179.302C53.8752 178.602 54.3376 177.571 54.3376 176.21C54.3376 175.259 54.1196 174.453 53.6836 173.792C53.2476 173.132 52.6266 172.63 51.8206 172.286C51.0278 171.942 50.0699 171.771 48.9469 171.771H43.6354V180.332ZM43.6354 164.953H48.1541C49.1186 164.953 49.9708 164.801 50.7107 164.497C51.4506 164.193 52.0254 163.757 52.435 163.189C52.8578 162.608 53.0692 161.901 53.0692 161.069C53.0692 159.813 52.62 158.855 51.7215 158.195C50.8231 157.521 49.6868 157.184 48.3127 157.184H43.6354V164.953ZM67.6725 148.543H79.9603L87.8878 165.032H88.2049L96.1325 148.543H108.42L93.5164 176.369V189.132H82.5763V176.369L67.6725 148.543ZM120.905 157.422V148.543H156.182V157.422H143.974V189.132H133.113V157.422H120.905ZM158.107 148.543H170.394L178.322 165.032H178.639L186.566 148.543H198.854L183.95 176.369V189.132H173.01V176.369L158.107 148.543ZM201.888 189.132V148.543H219.408C222.421 148.543 225.057 149.138 227.316 150.327C229.575 151.516 231.333 153.187 232.588 155.341C233.843 157.495 234.471 160.012 234.471 162.892C234.471 165.799 233.823 168.316 232.528 170.443C231.247 172.57 229.443 174.208 227.118 175.358C224.806 176.507 222.104 177.082 219.012 177.082H208.547V168.52H216.792C218.087 168.52 219.19 168.296 220.102 167.847C221.027 167.384 221.734 166.73 222.222 165.885C222.725 165.039 222.976 164.041 222.976 162.892C222.976 161.729 222.725 160.738 222.222 159.919C221.734 159.087 221.027 158.452 220.102 158.016C219.19 157.567 218.087 157.343 216.792 157.343H212.908V189.132H201.888ZM237.955 189.132V148.543H267.208V157.422H248.975V164.398H265.702V173.277H248.975V180.253H267.129V189.132H237.955Z" fill="white"/>
<rect x="309" y="134" width="66.1321" height="66.1321" rx="33.0661" fill="#9493F8"/>
<path d="M342.733 178.265V176.352C342.733 174.817 343.064 173.4 343.725 172.101C344.398 170.802 345.372 169.757 346.647 168.966C347.923 168.175 349.475 167.78 351.306 167.78C353.183 167.78 354.759 168.169 356.035 168.949C357.322 169.728 358.296 170.767 358.957 172.066C359.618 173.365 359.949 174.793 359.949 176.352V178.265C359.949 179.8 359.612 181.217 358.939 182.516C358.278 183.815 357.304 184.86 356.017 185.651C354.73 186.442 353.159 186.837 351.306 186.837C349.452 186.837 347.887 186.442 346.612 185.651C345.337 184.86 344.368 183.815 343.707 182.516C343.058 181.217 342.733 179.8 342.733 178.265ZM348.897 176.352V178.265C348.897 178.938 349.062 179.605 349.393 180.266C349.735 180.916 350.373 181.24 351.306 181.24C352.286 181.24 352.929 180.922 353.236 180.284C353.555 179.646 353.714 178.973 353.714 178.265V176.352C353.714 175.644 353.567 174.959 353.272 174.297C352.976 173.636 352.321 173.306 351.306 173.306C350.373 173.306 349.735 173.636 349.393 174.297C349.062 174.959 348.897 175.644 348.897 176.352ZM323.746 157.507V155.594C323.746 154.035 324.083 152.607 324.756 151.308C325.441 150.009 326.421 148.97 327.696 148.19C328.971 147.411 330.512 147.021 332.319 147.021C334.196 147.021 335.772 147.411 337.048 148.19C338.335 148.97 339.309 150.009 339.97 151.308C340.631 152.607 340.962 154.035 340.962 155.594V157.507C340.962 159.065 340.625 160.488 339.952 161.775C339.291 163.062 338.317 164.09 337.03 164.857C335.743 165.625 334.172 166.008 332.319 166.008C330.465 166.008 328.9 165.619 327.625 164.839C326.35 164.06 325.382 163.027 324.72 161.74C324.071 160.453 323.746 159.042 323.746 157.507ZM329.981 155.594V157.507C329.981 158.215 330.146 158.888 330.477 159.526C330.807 160.164 331.421 160.482 332.319 160.482C333.299 160.482 333.942 160.164 334.249 159.526C334.568 158.888 334.727 158.215 334.727 157.507V155.594C334.727 154.885 334.58 154.201 334.285 153.539C333.989 152.878 333.334 152.547 332.319 152.547C331.386 152.547 330.76 152.89 330.441 153.575C330.134 154.248 329.981 154.921 329.981 155.594ZM326.757 185.066L351.695 148.793H356.725L331.787 185.066H326.757Z" fill="white"/>
<rect y="224.132" width="197.308" height="197.306" rx="12.825" fill="#8AADE5"/>
<rect x="67.5452" y="321.128" width="61.0515" height="38.6765" stroke="white" stroke-width="5.13"/>
<path d="M106.051 304.953C104.634 304.953 103.486 303.805 103.486 302.388C103.486 300.972 104.634 299.823 106.051 299.823V304.953ZM128.085 299.823H130.65V304.953H128.085V299.823ZM106.051 299.823H128.085V304.953H106.051V299.823Z" fill="white"/>
<mask id="path-9-inside-1_86_81" fill="white">
<path fill-rule="evenodd" clip-rule="evenodd" d="M85.6622 257.506C85.6622 254.86 87.8069 252.715 90.4525 252.715H105.689C108.334 252.715 110.479 254.86 110.479 257.506V263.893C110.479 265.078 110.919 266.218 111.703 267.107C120.823 277.444 131.161 291.851 131.161 304.04C131.161 304.14 131.161 304.24 131.161 304.34C131.161 304.34 131.161 304.34 131.161 304.34C131.161 304.34 131.162 304.341 131.162 304.341V401.73C131.162 404.375 129.017 406.52 126.371 406.52H69.7705C67.1249 406.52 64.9802 404.375 64.9802 401.73V304.341C64.9802 304.34 64.9804 304.34 64.9806 304.34C64.9808 304.34 64.9809 304.34 64.9809 304.34C64.9803 304.24 64.98 304.14 64.98 304.04C64.98 291.851 75.3183 277.444 84.4378 267.107C85.2221 266.218 85.6622 265.078 85.6622 263.893V257.506Z"/>
</mask>
<path d="M64.9809 304.34L70.1108 304.308L64.9809 304.34ZM131.161 304.34L126.031 304.308L131.161 304.34ZM111.703 267.107L107.857 270.5L111.703 267.107ZM84.4378 267.107L80.5908 263.713L84.4378 267.107ZM105.689 247.585H90.4525V257.845H105.689V247.585ZM115.609 263.893V257.506H105.349V263.893H115.609ZM107.857 270.5C112.295 275.532 116.923 281.436 120.415 287.454C123.962 293.565 126.031 299.275 126.031 304.04H136.291C136.291 296.616 133.192 289.028 129.289 282.304C125.332 275.486 120.231 269.019 115.55 263.713L107.857 270.5ZM126.031 304.04C126.031 304.129 126.031 304.219 126.031 304.308L136.29 304.372C136.291 304.261 136.291 304.151 136.291 304.04H126.031ZM136.292 401.73V304.341H126.032V401.73H136.292ZM69.7705 411.65H126.371V401.39H69.7705V411.65ZM59.8502 304.341V401.73H70.1102V304.341H59.8502ZM70.1108 304.308C70.1103 304.219 70.11 304.13 70.11 304.04H59.85C59.85 304.151 59.8503 304.261 59.851 304.372L70.1108 304.308ZM70.11 304.04C70.11 299.275 72.1793 293.565 75.726 287.454C79.2184 281.437 83.8462 275.532 88.2848 270.501L80.5908 263.713C75.9099 269.019 70.8088 275.487 66.8522 282.304C62.9498 289.028 59.85 296.616 59.85 304.04H70.11ZM80.5322 257.506V263.893H90.7922V257.506H80.5322ZM64.9806 309.47C67.8263 309.47 70.1285 307.154 70.1108 304.308L59.851 304.372C59.8333 301.526 62.1352 299.21 64.9806 299.21V309.47ZM70.1102 304.341C70.1102 307.174 67.8136 309.47 64.9806 309.47V299.21C62.1471 299.21 59.8502 301.507 59.8502 304.341H70.1102ZM69.7705 401.39C69.9581 401.39 70.1102 401.542 70.1102 401.73H59.8502C59.8502 407.208 64.2917 411.65 69.7705 411.65V401.39ZM126.032 401.73C126.032 401.542 126.184 401.39 126.371 401.39V411.65C131.85 411.65 136.292 407.208 136.292 401.73H126.032ZM126.031 304.308C126.013 307.154 128.315 309.47 131.161 309.47V299.21C134.006 299.21 136.308 301.526 136.29 304.372L126.031 304.308ZM105.349 263.893C105.349 266.355 106.264 268.695 107.857 270.5L115.55 263.713C115.575 263.74 115.609 263.801 115.609 263.893H105.349ZM90.4525 247.585C84.9737 247.585 80.5322 252.027 80.5322 257.506H90.7922C90.7922 257.693 90.6401 257.845 90.4525 257.845V247.585ZM131.161 309.47C128.366 309.47 126.032 307.211 126.032 304.341H136.292C136.292 301.47 133.957 299.21 131.161 299.21V309.47ZM88.2848 270.501C89.8777 268.695 90.7922 266.355 90.7922 263.893H80.5322C80.5322 263.801 80.5666 263.741 80.5908 263.713L88.2848 270.501ZM105.689 257.845C105.501 257.845 105.349 257.693 105.349 257.506H115.609C115.609 252.027 111.168 247.585 105.689 247.585V257.845Z" fill="white" mask="url(#path-9-inside-1_86_81)"/>
<mask id="path-11-inside-2_86_81" fill="white">
<rect x="79.8792" y="239.05" width="35.558" height="19.483" rx="2.87415"/>
</mask>
<rect x="79.8792" y="239.05" width="35.558" height="19.483" rx="2.87415" fill="#8AADE5" stroke="white" stroke-width="10.26" mask="url(#path-11-inside-2_86_81)"/>
<rect x="213.553" y="224.132" width="197.308" height="197.306" rx="12.825" fill="#685BC7"/>
<path d="M342.171 263.267C342.035 262.973 341.834 262.729 341.61 262.511V259.048C341.61 256.164 339.264 253.818 336.379 253.818H287.472C284.588 253.818 282.242 256.164 282.242 259.048V262.509C282.017 262.728 281.816 262.973 281.679 263.267L276.578 274.232C275.62 276.29 275.113 278.578 275.113 280.85V369.531C275.113 372.445 276.104 375.313 277.903 377.604L281.993 382.814C282.004 382.828 282.023 382.833 282.034 382.847L284.599 390.018C284.971 391.058 285.957 391.752 287.061 391.752H336.791C337.895 391.752 338.881 391.058 339.252 390.018L341.817 382.848C341.829 382.834 341.848 382.829 341.86 382.814L345.949 377.604C347.748 375.313 348.739 372.445 348.739 369.534V280.85C348.739 278.582 348.232 276.294 347.274 274.232L342.171 263.267ZM287.472 259.048H336.379V261.755H287.472V259.048ZM334.948 386.522H288.904L287.937 383.82H335.915L334.948 386.522ZM343.508 369.534C343.508 371.281 342.913 372.999 341.834 374.376L338.531 378.585H285.322L282.018 374.376C280.939 372.999 280.344 371.281 280.344 369.531V360.705H343.508V369.534ZM343.508 355.475H280.344V290.097H343.508V355.475ZM343.508 284.867H280.344V280.85C280.344 279.336 280.681 277.811 281.32 276.438L285.718 266.985H338.133L342.532 276.437C343.17 277.812 343.508 279.338 343.508 280.85V284.867Z" fill="white"/>
<path fill-rule="evenodd" clip-rule="evenodd" d="M341.182 262.691V259.048C341.182 256.4 339.028 254.245 336.379 254.245H287.472C284.824 254.245 282.67 256.4 282.67 259.048V262.69L282.54 262.816C282.337 263.013 282.174 263.216 282.067 263.447L276.966 274.412C276.034 276.414 275.541 278.641 275.541 280.85V369.531C275.541 372.35 276.5 375.125 278.24 377.34L282.297 382.508C282.316 382.524 282.341 382.547 282.365 382.576L282.412 382.634L285.002 389.874L284.599 390.018L282.034 382.847C282.029 382.84 282.021 382.835 282.014 382.831C282.006 382.826 281.999 382.821 281.993 382.814L277.903 377.604C276.104 375.313 275.113 372.445 275.113 369.531V280.85C275.113 278.578 275.62 276.29 276.578 274.232L281.679 263.267C281.816 262.973 282.017 262.728 282.242 262.509V259.048C282.242 256.164 284.588 253.818 287.472 253.818H336.379C339.264 253.818 341.61 256.164 341.61 259.048V262.511C341.834 262.729 342.035 262.973 342.171 263.267L347.274 274.232C348.232 276.294 348.739 278.582 348.739 280.85V369.534C348.739 372.445 347.748 375.313 345.949 377.604L341.86 382.814C341.854 382.821 341.846 382.826 341.838 382.832C341.83 382.836 341.823 382.841 341.817 382.848L339.252 390.018L338.85 389.874L341.44 382.634L341.487 382.577C341.512 382.547 341.537 382.524 341.557 382.508L345.612 377.34C347.352 375.125 348.311 372.35 348.311 369.534V280.85C348.311 278.645 347.818 276.418 346.886 274.412L341.784 263.447C341.676 263.217 341.514 263.014 341.312 262.817L341.182 262.691ZM341.524 382.55C341.524 382.55 341.524 382.549 341.524 382.549L341.524 382.55ZM339.252 390.018L338.85 389.874C338.539 390.743 337.714 391.325 336.791 391.325H287.061C286.137 391.325 285.313 390.743 285.002 389.874L284.599 390.018C284.971 391.058 285.957 391.752 287.061 391.752H336.791C337.895 391.752 338.881 391.058 339.252 390.018ZM287.045 258.621H336.807V262.183H287.045V258.621ZM335.249 386.949H288.603L287.33 383.393H336.522L335.249 386.949ZM342.171 374.64L338.739 379.012H285.114L281.681 374.64C280.543 373.188 279.916 371.377 279.916 369.531V360.278H343.936V369.534C343.936 371.377 343.308 373.188 342.171 374.64ZM343.936 355.903H279.916V289.67H343.936V355.903ZM343.936 285.295H279.916V280.85C279.916 279.273 280.267 277.687 280.933 276.258L285.445 266.558H338.405L342.919 276.257C343.584 277.688 343.936 279.276 343.936 280.85V285.295ZM281.32 276.438C280.681 277.811 280.344 279.336 280.344 280.85V284.867H343.508V280.85C343.508 279.338 343.17 277.812 342.532 276.437L338.133 266.985H285.718L281.32 276.438ZM335.915 383.82L334.948 386.522H288.904L287.937 383.82H335.915ZM282.018 374.376C280.939 372.999 280.344 371.281 280.344 369.531V360.705H343.508V369.534C343.508 371.281 342.913 372.999 341.834 374.376L338.531 378.585H285.322L282.018 374.376ZM287.472 259.048V261.755H336.379V259.048H287.472ZM343.508 355.475V290.097H280.344V355.475H343.508Z" fill="#685BC7"/>
</svg>
