<svg width="494" height="422" viewBox="0 0 494 422" fill="none" xmlns="http://www.w3.org/2000/svg">
<path d="M1.50622 33.7163V24.8375H36.7836V33.7163H24.5752V65.4263H13.7146V33.7163H1.50622ZM78.3434 45.1319C78.3434 49.6506 77.4648 53.4624 75.7075 56.5673C73.9503 59.659 71.5786 62.0042 68.5926 63.6029C65.6066 65.1884 62.2771 65.9812 58.604 65.9812C54.9045 65.9812 51.5617 65.1818 48.5757 63.5831C45.6029 61.9712 43.2379 59.6194 41.4806 56.5277C39.7366 53.4227 38.8645 49.6241 38.8645 45.1319C38.8645 40.6132 39.7366 36.808 41.4806 33.7163C43.2379 30.6114 45.6029 28.2662 48.5757 26.6807C51.5617 25.0819 54.9045 24.2826 58.604 24.2826C62.2771 24.2826 65.6066 25.0819 68.5926 26.6807C71.5786 28.2662 73.9503 30.6114 75.7075 33.7163C77.4648 36.808 78.3434 40.6132 78.3434 45.1319ZM67.0071 45.1319C67.0071 42.7008 66.6834 40.6529 66.036 38.9881C65.4018 37.3101 64.4571 36.0417 63.2019 35.1829C61.96 34.3109 60.4273 33.8749 58.604 33.8749C56.7807 33.8749 55.2414 34.3109 53.9862 35.1829C52.7442 36.0417 51.7996 37.3101 51.1521 38.9881C50.5179 40.6529 50.2008 42.7008 50.2008 45.1319C50.2008 47.563 50.5179 49.6175 51.1521 51.2955C51.7996 52.9603 52.7442 54.2287 53.9862 55.1007C55.2414 55.9595 56.7807 56.3889 58.604 56.3889C60.4273 56.3889 61.96 55.9595 63.2019 55.1007C64.4571 54.2287 65.4018 52.9603 66.036 51.2955C66.6834 49.6175 67.0071 47.563 67.0071 45.1319ZM80.4244 33.7163V24.8375H115.702V33.7163H103.493V65.4263H92.6327V33.7163H80.4244ZM125.269 65.4263H113.378L126.775 24.8375H141.838L155.235 65.4263H143.344L134.465 36.0153H134.148L125.269 65.4263ZM123.05 49.4127H145.405V57.6573H123.05V49.4127ZM159.144 65.4263V24.8375H170.164V56.5475H186.574V65.4263H159.144ZM2.61607 120.426V79.8375H20.1358C23.1483 79.8375 25.7842 80.3858 28.0435 81.4825C30.3028 82.5791 32.0601 84.158 33.3153 86.2191C34.5705 88.2803 35.1981 90.751 35.1981 93.6313C35.1981 96.5381 34.5507 98.989 33.2558 100.984C31.9742 102.979 30.1707 104.485 27.8453 105.503C25.5331 106.52 22.8312 107.029 19.7395 107.029H9.27517V98.4671H17.5198C18.8146 98.4671 19.9178 98.3086 20.8295 97.9915C21.7544 97.6612 22.4612 97.1393 22.9501 96.4258C23.4522 95.7123 23.7032 94.7808 23.7032 93.6313C23.7032 92.4686 23.4522 91.524 22.9501 90.7973C22.4612 90.0574 21.7544 89.5157 20.8295 89.1721C19.9178 88.8154 18.8146 88.637 17.5198 88.637H13.6353V120.426H2.61607ZM26.3985 101.797L36.5457 120.426H24.5752L14.6659 101.797H26.3985ZM39.8951 120.426V79.8375H69.1475V88.7163H50.9143V95.6925H67.6413V104.571H50.9143V111.547H69.0683V120.426H39.8951ZM112.506 95.0583H101.328C101.249 94.1334 101.038 93.2944 100.694 92.5413C100.364 91.7882 99.9013 91.1408 99.3067 90.5991C98.7253 90.0442 98.0185 89.6214 97.1861 89.3307C96.3537 89.0268 95.409 88.8749 94.352 88.8749C92.5023 88.8749 90.9366 89.3241 89.655 90.2225C88.3866 91.121 87.4221 92.4092 86.7614 94.0872C86.114 95.7652 85.7903 97.7801 85.7903 100.132C85.7903 102.616 86.1206 104.697 86.7813 106.375C87.4551 108.04 88.4262 109.295 89.6946 110.14C90.963 110.973 92.4891 111.389 94.2727 111.389C95.2901 111.389 96.2018 111.263 97.0077 111.012C97.8137 110.748 98.5139 110.372 99.1085 109.883C99.7031 109.394 100.185 108.806 100.555 108.119C100.938 107.419 101.196 106.632 101.328 105.76L112.506 105.84C112.374 107.557 111.892 109.308 111.059 111.092C110.227 112.862 109.044 114.5 107.512 116.007C105.992 117.5 104.109 118.702 101.863 119.614C99.6172 120.525 97.0077 120.981 94.0349 120.981C90.309 120.981 86.9662 120.182 84.0066 118.583C81.0603 116.984 78.7283 114.633 77.0106 111.528C75.3062 108.423 74.454 104.624 74.454 100.132C74.454 95.6132 75.326 91.808 77.0701 88.7163C78.8141 85.6114 81.166 83.2662 84.1256 81.6807C87.0851 80.0819 90.3883 79.2826 94.0349 79.2826C96.5981 79.2826 98.9566 79.6327 101.11 80.333C103.264 81.0332 105.153 82.0572 106.778 83.4049C108.403 84.7393 109.712 86.3843 110.702 88.3397C111.693 90.2952 112.295 92.5347 112.506 95.0583ZM115.84 79.8375H128.128L136.056 96.3267H136.373L144.3 79.8375H156.588L141.684 107.663V120.426H130.744V107.663L115.84 79.8375ZM195.239 95.0583H184.061C183.982 94.1334 183.771 93.2944 183.427 92.5413C183.097 91.7882 182.635 91.1408 182.04 90.5991C181.459 90.0442 180.752 89.6214 179.919 89.3307C179.087 89.0268 178.142 88.8749 177.085 88.8749C175.236 88.8749 173.67 89.3241 172.388 90.2225C171.12 91.121 170.155 92.4092 169.495 94.0872C168.847 95.7652 168.524 97.7801 168.524 100.132C168.524 102.616 168.854 104.697 169.515 106.375C170.188 108.04 171.159 109.295 172.428 110.14C173.696 110.973 175.222 111.389 177.006 111.389C178.023 111.389 178.935 111.263 179.741 111.012C180.547 110.748 181.247 110.372 181.842 109.883C182.436 109.394 182.919 108.806 183.289 108.119C183.672 107.419 183.929 106.632 184.061 105.76L195.239 105.84C195.107 107.557 194.625 109.308 193.792 111.092C192.96 112.862 191.778 114.5 190.245 116.007C188.725 117.5 186.843 118.702 184.597 119.614C182.35 120.525 179.741 120.981 176.768 120.981C173.042 120.981 169.7 120.182 166.74 118.583C163.794 116.984 161.462 114.633 159.744 111.528C158.039 108.423 157.187 104.624 157.187 100.132C157.187 95.6132 158.059 91.808 159.803 88.7163C161.547 85.6114 163.899 83.2662 166.859 81.6807C169.818 80.0819 173.122 79.2826 176.768 79.2826C179.331 79.2826 181.69 79.6327 183.843 80.333C185.997 81.0332 187.887 82.0572 189.512 83.4049C191.137 84.7393 192.445 86.3843 193.436 88.3397C194.427 90.2952 195.028 92.5347 195.239 95.0583ZM200.239 120.426V79.8375H211.258V111.547H227.668V120.426H200.239ZM242.665 120.426H230.774L244.172 79.8375H259.234L272.631 120.426H260.74L251.861 91.0153H251.544L242.665 120.426ZM240.446 104.413H262.801V112.657H240.446V104.413ZM276.541 120.426V79.8375H294.14C297.231 79.8375 299.828 80.2537 301.928 81.0861C304.042 81.9185 305.635 83.0944 306.705 84.6138C307.788 86.1333 308.33 87.9236 308.33 89.9847C308.33 91.4777 308 92.8386 307.339 94.0674C306.692 95.2961 305.78 96.3267 304.604 97.1591C303.428 97.9783 302.054 98.5464 300.482 98.8635V99.2599C302.226 99.3259 303.811 99.7685 305.238 100.588C306.665 101.394 307.801 102.51 308.647 103.937C309.493 105.351 309.915 107.016 309.915 108.931C309.915 111.151 309.334 113.126 308.171 114.857C307.022 116.588 305.383 117.949 303.256 118.94C301.129 119.931 298.592 120.426 295.646 120.426H276.541ZM287.56 111.627H292.713C294.562 111.627 295.95 111.283 296.875 110.596C297.8 109.896 298.262 108.865 298.262 107.504C298.262 106.553 298.044 105.747 297.608 105.087C297.172 104.426 296.551 103.924 295.745 103.58C294.952 103.237 293.994 103.065 292.871 103.065H287.56V111.627ZM287.56 96.2474H292.079C293.043 96.2474 293.895 96.0955 294.635 95.7916C295.375 95.4877 295.95 95.0517 296.359 94.4836C296.782 93.9022 296.994 93.1953 296.994 92.3629C296.994 91.1078 296.544 90.1499 295.646 89.4892C294.747 88.8154 293.611 88.4785 292.237 88.4785H287.56V96.2474ZM313.82 120.426V79.8375H324.839V111.547H341.249V120.426H313.82ZM345.703 120.426V79.8375H374.955V88.7163H356.722V95.6925H373.449V104.571H356.722V111.547H374.876V120.426H345.703ZM402.3 92.5215C402.195 91.2003 401.699 90.1697 400.814 89.4298C399.942 88.6899 398.614 88.3199 396.83 88.3199C395.694 88.3199 394.763 88.4587 394.036 88.7361C393.322 89.0004 392.794 89.3637 392.45 89.8262C392.107 90.2886 391.929 90.8171 391.915 91.4117C391.889 91.9005 391.975 92.3431 392.173 92.7395C392.384 93.1227 392.715 93.4728 393.164 93.7899C393.613 94.0938 394.188 94.3712 394.888 94.6223C395.588 94.8733 396.421 95.0979 397.385 95.2961L400.715 96.0096C402.961 96.4852 404.883 97.1128 406.482 97.8924C408.081 98.6719 409.389 99.5902 410.406 100.647C411.424 101.691 412.17 102.867 412.646 104.175C413.135 105.483 413.386 106.91 413.399 108.456C413.386 111.125 412.718 113.384 411.397 115.234C410.076 117.084 408.187 118.491 405.729 119.455C403.285 120.42 400.345 120.902 396.91 120.902C393.382 120.902 390.303 120.38 387.674 119.336C385.058 118.292 383.023 116.687 381.57 114.52C380.13 112.34 379.403 109.552 379.39 106.157H389.854C389.92 107.399 390.231 108.443 390.786 109.288C391.341 110.134 392.12 110.775 393.124 111.211C394.142 111.647 395.351 111.865 396.751 111.865C397.927 111.865 398.911 111.719 399.704 111.429C400.497 111.138 401.098 110.735 401.508 110.22C401.917 109.704 402.129 109.116 402.142 108.456C402.129 107.835 401.924 107.293 401.527 106.831C401.144 106.355 400.51 105.932 399.625 105.562C398.74 105.179 397.544 104.822 396.038 104.492L391.995 103.62C388.401 102.84 385.567 101.539 383.492 99.7157C381.431 97.8792 380.407 95.3754 380.42 92.2044C380.407 89.628 381.094 87.3752 382.482 85.4462C383.882 83.504 385.818 81.9911 388.289 80.9077C390.772 79.8243 393.62 79.2826 396.83 79.2826C400.107 79.2826 402.941 79.8309 405.333 80.9275C407.724 82.0242 409.567 83.57 410.862 85.5651C412.17 87.547 412.831 89.8658 412.844 92.5215H402.3Z" fill="#9493F8"/>
<rect y="137.559" width="301" height="63" rx="31.5" fill="#9493F8"/>
<path d="M32.6161 189.559V148.97H50.2153C53.307 148.97 55.9033 149.386 58.0041 150.218C60.1181 151.05 61.7102 152.226 62.7805 153.746C63.8639 155.265 64.4056 157.056 64.4056 159.117C64.4056 160.61 64.0753 161.971 63.4147 163.199C62.7672 164.428 61.8556 165.459 60.6796 166.291C59.5037 167.11 58.1296 167.679 56.5573 167.996V168.392C58.3014 168.458 59.8869 168.901 61.3139 169.72C62.7408 170.526 63.8771 171.642 64.7227 173.069C65.5683 174.483 65.9911 176.148 65.9911 178.064C65.9911 180.283 65.4098 182.259 64.247 183.989C63.0976 185.72 61.4592 187.081 59.332 188.072C57.2047 189.063 54.6679 189.559 51.7215 189.559H32.6161ZM43.6354 180.759H48.7883C50.6381 180.759 52.0254 180.415 52.9503 179.728C53.8752 179.028 54.3376 177.998 54.3376 176.637C54.3376 175.685 54.1196 174.879 53.6836 174.219C53.2476 173.558 52.6266 173.056 51.8206 172.713C51.0278 172.369 50.0699 172.197 48.9469 172.197H43.6354V180.759ZM43.6354 165.38H48.1541C49.1186 165.38 49.9708 165.228 50.7107 164.924C51.4506 164.62 52.0254 164.184 52.435 163.616C52.8578 163.034 53.0692 162.327 53.0692 161.495C53.0692 160.24 52.62 159.282 51.7215 158.621C50.8231 157.947 49.6868 157.611 48.3127 157.611H43.6354V165.38ZM67.6725 148.97H79.9603L87.8878 165.459H88.2049L96.1325 148.97H108.42L93.5164 176.795V189.559H82.5763V176.795L67.6725 148.97ZM120.905 157.848V148.97H156.182V157.848H143.974V189.559H133.113V157.848H120.905ZM158.107 148.97H170.394L178.322 165.459H178.639L186.566 148.97H198.854L183.95 176.795V189.559H173.01V176.795L158.107 148.97ZM201.888 189.559V148.97H219.408C222.421 148.97 225.057 149.564 227.316 150.753C229.575 151.942 231.333 153.614 232.588 155.767C233.843 157.921 234.471 160.438 234.471 163.318C234.471 166.225 233.823 168.742 232.528 170.869C231.247 172.997 229.443 174.635 227.118 175.784C224.806 176.934 222.104 177.509 219.012 177.509H208.547V168.947H216.792C218.087 168.947 219.19 168.722 220.102 168.273C221.027 167.811 221.734 167.157 222.222 166.311C222.725 165.465 222.976 164.468 222.976 163.318C222.976 162.156 222.725 161.165 222.222 160.346C221.734 159.513 221.027 158.879 220.102 158.443C219.19 157.994 218.087 157.769 216.792 157.769H212.908V189.559H201.888ZM237.955 189.559V148.97H267.208V157.848H248.975V164.825H265.702V173.703H248.975V180.68H267.129V189.559H237.955Z" fill="white"/>
<rect x="309" y="134.426" width="66.1321" height="66.1321" rx="33.0661" fill="#9493F8"/>
<path d="M342.733 178.691V176.778C342.733 175.243 343.063 173.826 343.725 172.527C344.398 171.228 345.372 170.183 346.647 169.392C347.922 168.601 349.475 168.206 351.305 168.206C353.183 168.206 354.759 168.595 356.034 169.375C357.321 170.154 358.295 171.193 358.957 172.492C359.618 173.791 359.949 175.219 359.949 176.778V178.691C359.949 180.226 359.612 181.643 358.939 182.942C358.278 184.241 357.304 185.286 356.017 186.077C354.73 186.868 353.159 187.263 351.305 187.263C349.451 187.263 347.887 186.868 346.612 186.077C345.336 185.286 344.368 184.241 343.707 182.942C343.058 181.643 342.733 180.226 342.733 178.691ZM348.896 176.778V178.691C348.896 179.364 349.062 180.031 349.392 180.692C349.735 181.342 350.372 181.666 351.305 181.666C352.285 181.666 352.929 181.348 353.236 180.71C353.555 180.072 353.714 179.399 353.714 178.691V176.778C353.714 176.07 353.566 175.385 353.271 174.723C352.976 174.062 352.321 173.732 351.305 173.732C350.372 173.732 349.735 174.062 349.392 174.723C349.062 175.385 348.896 176.07 348.896 176.778ZM323.746 157.933V156.02C323.746 154.461 324.082 153.033 324.755 151.734C325.44 150.435 326.42 149.396 327.696 148.616C328.971 147.837 330.512 147.447 332.318 147.447C334.196 147.447 335.772 147.837 337.047 148.616C338.334 149.396 339.309 150.435 339.97 151.734C340.631 153.033 340.962 154.461 340.962 156.02V157.933C340.962 159.491 340.625 160.914 339.952 162.201C339.291 163.488 338.317 164.516 337.03 165.283C335.743 166.051 334.172 166.434 332.318 166.434C330.465 166.434 328.9 166.045 327.625 165.265C326.349 164.486 325.381 163.453 324.72 162.166C324.071 160.879 323.746 159.468 323.746 157.933ZM329.98 156.02V157.933C329.98 158.641 330.146 159.314 330.476 159.952C330.807 160.59 331.421 160.908 332.318 160.908C333.298 160.908 333.942 160.59 334.249 159.952C334.568 159.314 334.727 158.641 334.727 157.933V156.02C334.727 155.311 334.58 154.627 334.284 153.965C333.989 153.304 333.334 152.974 332.318 152.974C331.386 152.974 330.76 153.316 330.441 154.001C330.134 154.674 329.98 155.347 329.98 156.02ZM326.757 185.492L351.695 149.219H356.725L331.787 185.492H326.757Z" fill="white"/>
<rect y="224.559" width="197.308" height="197.306" rx="12.825" fill="#473AA9"/>
<rect x="67.5455" y="321.555" width="61.0515" height="38.6765" stroke="white" stroke-width="5.13"/>
<path d="M106.051 305.38C104.634 305.38 103.486 304.232 103.486 302.815C103.486 301.398 104.634 300.25 106.051 300.25V305.38ZM128.085 300.25H130.65V305.38H128.085V300.25ZM106.051 300.25H128.085V305.38H106.051V300.25Z" fill="white"/>
<mask id="path-9-inside-1_115_4" fill="white">
<path fill-rule="evenodd" clip-rule="evenodd" d="M85.6622 257.932C85.6622 255.287 87.8069 253.142 90.4525 253.142H105.689C108.334 253.142 110.479 255.287 110.479 257.932V264.319C110.479 265.505 110.919 266.644 111.703 267.533C120.823 277.871 131.161 292.278 131.161 304.467C131.161 304.567 131.161 304.667 131.161 304.766C131.161 304.767 131.161 304.767 131.161 304.767C131.161 304.767 131.162 304.767 131.162 304.768V402.156C131.162 404.802 129.017 406.947 126.371 406.947H69.7705C67.1249 406.947 64.9802 404.802 64.9802 402.156V304.767C64.9802 304.767 64.9804 304.767 64.9806 304.767C64.9808 304.767 64.9809 304.767 64.9809 304.767C64.9803 304.667 64.98 304.567 64.98 304.467C64.98 292.278 75.3183 277.871 84.4378 267.534C85.2221 266.645 85.6622 265.505 85.6622 264.32V257.932Z"/>
</mask>
<path d="M64.9809 304.767L70.1108 304.735L64.9809 304.767ZM131.161 304.766L126.031 304.734L131.161 304.766ZM111.703 267.533L107.857 270.927L111.703 267.533ZM84.4378 267.534L80.5908 264.14L84.4378 267.534ZM105.689 248.012H90.4525V258.272H105.689V248.012ZM115.609 264.319V257.932H105.349V264.319H115.609ZM107.857 270.927C112.295 275.958 116.923 281.863 120.415 287.881C123.962 293.992 126.031 299.702 126.031 304.467H136.291C136.291 297.043 133.192 289.455 129.289 282.731C125.332 275.913 120.231 269.446 115.55 264.14L107.857 270.927ZM126.031 304.467C126.031 304.556 126.031 304.645 126.031 304.734L136.29 304.798C136.291 304.688 136.291 304.578 136.291 304.467H126.031ZM136.292 402.156V304.768H126.032V402.156H136.292ZM69.7705 412.077H126.371V401.817H69.7705V412.077ZM59.8502 304.767V402.156H70.1102V304.767H59.8502ZM70.1108 304.735C70.1103 304.646 70.11 304.556 70.11 304.467H59.85C59.85 304.578 59.8503 304.688 59.851 304.799L70.1108 304.735ZM70.11 304.467C70.11 299.702 72.1793 293.992 75.726 287.881C79.2184 281.863 83.8462 275.959 88.2848 270.927L80.5908 264.14C75.9099 269.446 70.8088 275.913 66.8522 282.731C62.9498 289.455 59.85 297.043 59.85 304.467H70.11ZM80.5322 257.932V264.32H90.7922V257.932H80.5322ZM64.9806 309.897C67.8263 309.897 70.1285 307.581 70.1108 304.735L59.851 304.799C59.8333 301.953 62.1352 299.637 64.9806 299.637V309.897ZM70.1102 304.767C70.1102 307.6 67.8136 309.897 64.9806 309.897V299.637C62.1471 299.637 59.8502 301.934 59.8502 304.767H70.1102ZM69.7705 401.817C69.9581 401.817 70.1102 401.969 70.1102 402.156H59.8502C59.8502 407.635 64.2917 412.077 69.7705 412.077V401.817ZM126.032 402.156C126.032 401.969 126.184 401.817 126.371 401.817V412.077C131.85 412.077 136.292 407.635 136.292 402.156H126.032ZM126.031 304.734C126.013 307.581 128.315 309.897 131.161 309.897V299.637C134.006 299.637 136.308 301.953 136.29 304.798L126.031 304.734ZM105.349 264.319C105.349 266.782 106.264 269.122 107.857 270.927L115.55 264.14C115.575 264.167 115.609 264.228 115.609 264.319H105.349ZM90.4525 248.012C84.9737 248.012 80.5322 252.454 80.5322 257.932H90.7922C90.7922 258.12 90.6401 258.272 90.4525 258.272V248.012ZM131.161 309.897C128.366 309.897 126.032 307.638 126.032 304.768H136.292C136.292 301.897 133.957 299.637 131.161 299.637V309.897ZM88.2848 270.927C89.8777 269.122 90.7922 266.782 90.7922 264.32H80.5322C80.5322 264.228 80.5666 264.167 80.5908 264.14L88.2848 270.927ZM105.689 258.272C105.501 258.272 105.349 258.12 105.349 257.932H115.609C115.609 252.454 111.168 248.012 105.689 248.012V258.272Z" fill="white" mask="url(#path-9-inside-1_115_4)"/>
<mask id="path-11-inside-2_115_4" fill="white">
<rect x="79.8789" y="239.477" width="35.558" height="19.483" rx="2.87415"/>
</mask>
<rect x="79.8789" y="239.477" width="35.558" height="19.483" rx="2.87415" fill="#473AA9" stroke="white" stroke-width="10.26" mask="url(#path-11-inside-2_115_4)"/>
<rect x="213.553" y="224.559" width="197.308" height="197.306" rx="12.825" fill="#5588DB"/>
<path d="M342.171 263.693C342.035 263.399 341.834 263.155 341.61 262.937V259.474C341.61 256.59 339.264 254.244 336.379 254.244H287.472C284.588 254.244 282.242 256.59 282.242 259.474V262.936C282.017 263.154 281.816 263.399 281.679 263.693L276.578 274.658C275.62 276.716 275.113 279.005 275.113 281.276V369.958C275.113 372.872 276.104 375.74 277.903 378.03L281.993 383.24C282.004 383.254 282.023 383.259 282.034 383.273L284.599 390.444C284.971 391.484 285.957 392.178 287.061 392.178H336.791C337.895 392.178 338.881 391.484 339.252 390.444L341.817 383.275C341.829 383.26 341.848 383.255 341.86 383.24L345.949 378.03C347.748 375.74 348.739 372.872 348.739 369.96V281.276C348.739 279.009 348.232 276.72 347.274 274.658L342.171 263.693ZM287.472 259.474H336.379V262.181H287.472V259.474ZM334.948 386.948H288.904L287.937 384.246H335.915L334.948 386.948ZM343.508 369.96C343.508 371.707 342.913 373.426 341.834 374.802L338.531 379.011H285.322L282.018 374.802C280.939 373.426 280.344 371.707 280.344 369.958V361.132H343.508V369.96ZM343.508 355.901H280.344V290.524H343.508V355.901ZM343.508 285.293H280.344V281.276C280.344 279.762 280.681 278.237 281.32 276.865L285.718 267.412H338.133L342.532 276.863C343.17 278.239 343.508 279.764 343.508 281.276V285.293Z" fill="white"/>
<path fill-rule="evenodd" clip-rule="evenodd" d="M341.182 263.118V259.474C341.182 256.826 339.028 254.672 336.379 254.672H287.472C284.824 254.672 282.67 256.826 282.67 259.474V263.116L282.54 263.242C282.337 263.439 282.174 263.642 282.067 263.874L276.966 274.838C276.034 276.84 275.541 279.067 275.541 281.276V369.958C275.541 372.776 276.5 375.551 278.24 377.766L282.297 382.934C282.316 382.95 282.341 382.973 282.365 383.003L282.412 383.06L285.002 390.3L284.599 390.444L282.034 383.273C282.029 383.266 282.021 383.262 282.014 383.257C282.006 383.252 281.999 383.247 281.993 383.24L277.903 378.03C276.104 375.74 275.113 372.872 275.113 369.958V281.276C275.113 279.005 275.62 276.716 276.578 274.658L281.679 263.693C281.816 263.399 282.017 263.154 282.242 262.936V259.474C282.242 256.59 284.588 254.244 287.472 254.244H336.379C339.264 254.244 341.61 256.59 341.61 259.474V262.937C341.834 263.155 342.035 263.399 342.171 263.693L347.274 274.658C348.232 276.72 348.739 279.009 348.739 281.276V369.96C348.739 372.872 347.748 375.74 345.949 378.03L341.86 383.24C341.854 383.248 341.846 383.253 341.838 383.258C341.83 383.263 341.823 383.268 341.817 383.275L339.252 390.444L338.85 390.3L341.44 383.061L341.487 383.003C341.512 382.973 341.537 382.95 341.557 382.934L345.612 377.766C347.352 375.551 348.311 372.776 348.311 369.96V281.276C348.311 279.071 347.818 276.844 346.886 274.838L341.784 263.874C341.676 263.643 341.514 263.44 341.312 263.244L341.182 263.118ZM341.524 382.976C341.524 382.976 341.524 382.975 341.524 382.975L341.524 382.976ZM339.252 390.444L338.85 390.3C338.539 391.17 337.714 391.751 336.791 391.751H287.061C286.137 391.751 285.313 391.17 285.002 390.3L284.599 390.444C284.971 391.484 285.957 392.178 287.061 392.178H336.791C337.895 392.178 338.881 391.484 339.252 390.444ZM287.045 259.047H336.807V262.609H287.045V259.047ZM335.249 387.376H288.603L287.33 383.819H336.522L335.249 387.376ZM342.171 375.066L338.739 379.438H285.114L281.681 375.066C280.543 373.615 279.916 371.803 279.916 369.958V360.704H343.936V369.96C343.936 371.803 343.308 373.615 342.171 375.066ZM343.936 356.329H279.916V290.096H343.936V356.329ZM343.936 285.721H279.916V281.276C279.916 279.7 280.267 278.113 280.933 276.684L285.445 266.984H338.405L342.919 276.683C343.584 278.114 343.936 279.702 343.936 281.276V285.721ZM281.32 276.865C280.681 278.237 280.344 279.762 280.344 281.276V285.293H343.508V281.276C343.508 279.764 343.17 278.239 342.532 276.863L338.133 267.412H285.718L281.32 276.865ZM335.915 384.246L334.948 386.948H288.904L287.937 384.246H335.915ZM282.018 374.802C280.939 373.426 280.344 371.707 280.344 369.958V361.132H343.508V369.96C343.508 371.707 342.913 373.426 341.834 374.802L338.531 379.011H285.322L282.018 374.802ZM287.472 259.474V262.181H336.379V259.474H287.472ZM343.508 355.901V290.524H280.344V355.901H343.508Z" fill="#5588DB"/>
</svg>
