<svg width="200" height="200" viewBox="0 0 200 200" fill="none" xmlns="http://www.w3.org/2000/svg">
<g clip-path="url(#clip0_8003_2)">
<mask id="mask0_8003_2" style="mask-type:luminance" maskUnits="userSpaceOnUse" x="0" y="88" width="200" height="24">
<path d="M199.998 88H0V111.989H199.998V88Z" fill="white"/>
</mask>
<g mask="url(#mask0_8003_2)">
<mask id="mask1_8003_2" style="mask-type:luminance" maskUnits="userSpaceOnUse" x="0" y="88" width="200" height="24">
<path d="M200 88H0V111.989H200V88Z" fill="white"/>
</mask>
<g mask="url(#mask1_8003_2)">
<path d="M41.2751 98.8944C40.7692 99.3495 39.4021 100.009 37.7615 100.009C36.8545 100.009 36.1865 99.7998 35.7101 99.4003C34.9995 98.8027 34.8325 98.007 34.8325 96.7987V92.3208H31.8069V97.5043C31.8069 99.6737 32.6763 101.075 34.2038 102.058C35.0846 102.624 36.2094 102.891 37.4652 102.891C39.4021 102.891 40.8821 102.151 41.2751 101.855V108.282H44.3024V92.3208H41.2751V98.8944Z" fill="black"/>
<path d="M136.794 103.109C136.466 104.605 135.956 105.119 135.34 105.401C134.903 105.577 134.435 105.666 133.963 105.663C133.963 105.663 133.979 106.922 134.009 108.446C135.319 108.462 136.555 108.223 137.408 107.642C138.346 107 139.165 106.026 139.612 104.003C140.059 101.979 140.278 99.4003 140.456 95.1614H145.165V108.31H148.202V92.3208H137.596C137.495 96.2911 137.341 100.648 136.794 103.109Z" fill="black"/>
<path d="M163.782 108.31V98.606C163.797 96.2778 163.127 94.6881 162.081 93.6615C160.999 92.6022 159.517 91.9539 157.315 91.9539C153.425 91.9539 151.194 94.4097 151.284 97.4616L154.272 97.4436C154.314 95.6901 155.339 94.6602 157.412 94.6602C159.485 94.6602 160.76 95.7539 160.762 98.4472C160.762 98.4472 157.747 98.3948 155.562 98.9253C152.341 99.7062 150.589 101.352 150.589 104.033C150.589 106.751 152.57 108.677 155.729 108.677C158.072 108.677 159.679 107.793 160.925 106.444C160.989 107.07 161.086 107.692 161.217 108.308H163.791M160.745 100.842V101.645C160.745 104.498 158.144 106.008 156.325 106.008C154.668 106.008 153.769 105.166 153.769 103.917C153.769 102.804 154.628 101.741 156.832 101.201C158.196 100.874 159.652 100.842 160.752 100.842" fill="black"/>
<path d="M93.3708 92.3208H90.2878V108.282H93.3708V92.3208Z" fill="black"/>
<path d="M75.1252 92.3223H62.4136V95.158H67.2288V108.281H67.2566H70.2823H70.3117V95.158H75.1252V92.3223Z" fill="black"/>
<path d="M166.908 108.291H169.934V95.1467H176.877V108.291H179.903V92.3208H166.908V108.291Z" fill="black"/>
<path d="M83.4867 97.5043H79.9519V92.3208H76.9246V108.282H78.2704H83.4867C86.4501 108.282 88.7259 105.787 88.7259 102.848C88.7259 99.9438 86.4059 97.4994 83.4867 97.4994M83.0839 105.411H79.9519V100.335H83.0839C83.757 100.335 84.4025 100.603 84.8784 101.078C85.3543 101.554 85.6217 102.2 85.6217 102.873C85.6217 103.546 85.3543 104.191 84.8784 104.667C84.4025 105.143 83.757 105.411 83.0839 105.411Z" fill="black"/>
<path d="M200 92.3208H196.917V108.282H200V92.3208Z" fill="black"/>
<path d="M190.116 97.5043H186.579V92.3208H183.554V108.282H184.898H190.116C193.078 108.282 195.355 105.787 195.355 102.848C195.355 99.9438 193.035 97.4994 190.116 97.4994M189.711 105.411H186.579V100.335H189.711C190.385 100.335 191.03 100.603 191.506 101.078C191.982 101.554 192.249 102.2 192.249 102.873C192.249 103.546 191.982 104.191 191.506 104.667C191.03 105.143 190.385 105.411 189.711 105.411Z" fill="black"/>
<path d="M103.309 92.3208H98.276H96.9236V108.282H99.9492V104.292H103.309C104.102 104.299 104.889 104.149 105.624 103.85C106.359 103.552 107.028 103.111 107.592 102.553C108.156 101.996 108.604 101.332 108.911 100.6C109.217 99.8685 109.376 99.0835 109.378 98.2902C109.378 94.9437 106.655 92.3208 103.309 92.3208ZM103.188 101.434H99.9558V95.1696H103.153C103.977 95.1731 104.767 95.5019 105.349 96.0846C105.932 96.6672 106.261 97.4564 106.264 98.2804C106.264 99.9749 104.902 101.435 103.194 101.435" fill="black"/>
<path d="M118.506 92.0324C117.494 92.0064 116.487 92.1822 115.543 92.5496C114.6 92.917 113.739 93.4686 113.011 94.1723C111.492 95.672 110.555 97.6924 110.555 100.309C110.555 105.158 113.972 108.587 118.629 108.587C119.882 108.587 121.118 108.293 122.238 107.73C123.357 107.168 124.33 106.351 125.078 105.345L122.691 103.587C121.738 104.87 120.328 105.715 118.629 105.715C116.057 105.715 114.064 103.83 113.854 101.769H126.438C126.461 101.343 126.496 100.962 126.496 100.489C126.496 98.2491 125.829 96.0453 124.367 94.4556C122.841 92.8068 120.726 92.039 118.517 92.0259M113.807 98.9154C113.876 97.8283 115.346 94.9173 118.498 94.9173C119.642 94.8903 120.758 95.2813 121.635 96.0172C122.512 96.7531 123.091 97.7835 123.264 98.9154H113.807Z" fill="black"/>
<path d="M54.6465 92.0324C53.6345 92.0066 52.6274 92.1824 51.684 92.5498C50.7407 92.9172 49.8799 93.4688 49.1519 94.1723C47.6325 95.672 46.696 97.6924 46.696 100.309C46.696 105.158 50.113 108.587 54.7677 108.587C56.0212 108.587 57.2573 108.293 58.3774 107.73C59.4974 107.168 60.4703 106.351 61.2184 105.345L58.8313 103.587C57.8768 104.87 56.4688 105.715 54.7677 105.715C52.1972 105.715 50.203 103.83 49.9951 101.769H62.5741C62.597 101.343 62.633 100.962 62.633 100.489C62.633 98.2491 61.9667 96.0453 60.4964 94.4556C58.9705 92.8068 56.8552 92.039 54.6465 92.0259M49.9345 98.922C50.0033 97.8348 51.4719 94.9238 54.6236 94.9238C55.7685 94.8968 56.884 95.2877 57.7616 96.0236C58.6391 96.7595 59.2184 97.7899 59.3913 98.922H49.9345Z" fill="black"/>
<path d="M23.989 88H11.9945V111.989H23.989V88Z" fill="#F3B5BE"/>
<path d="M11.9945 88H0V111.989H11.9945V88Z" fill="#ED6A1D"/>
<path d="M15.8093 101.54C15.7938 101.528 15.7833 101.51 15.7797 101.49C15.7761 101.471 15.7797 101.45 15.7898 101.433C15.7999 101.416 15.8159 101.403 15.8348 101.396C15.8536 101.39 15.8742 101.39 15.8928 101.398C16.456 101.602 17.7314 102.315 18.9086 103.046C18.9636 103.081 19.0254 103.104 19.0899 103.112C19.1543 103.121 19.2198 103.115 19.2819 103.096C19.4213 103.047 19.5518 102.976 19.6683 102.886C19.8055 102.779 19.9113 102.637 19.9745 102.475C20.0034 102.398 20.0108 102.314 19.9958 102.233C19.9808 102.152 19.944 102.077 19.8893 102.015C19.0019 100.993 17.8346 100.322 16.885 99.7752C16.7928 99.7355 16.715 99.6684 16.6621 99.5831C16.6092 99.4978 16.5837 99.3983 16.5891 99.298C16.5944 99.1978 16.6304 99.1016 16.692 99.0224C16.7537 98.9432 16.8382 98.8848 16.9341 98.8551C17.1748 98.7716 17.7527 98.6914 18.4289 98.5587C19.8156 98.3017 20.2675 97.2866 20.2561 95.9506C20.2544 95.9056 20.2438 95.8613 20.2249 95.8204C20.206 95.7795 20.1792 95.7428 20.146 95.7124C20.1128 95.6819 20.0739 95.6583 20.0315 95.643C19.9891 95.6277 19.9441 95.621 19.8991 95.6232C19.205 95.6362 18.5893 95.7034 18.0605 95.669C17.3287 95.6215 17.0028 95.4283 16.6083 94.5524C16.3054 93.8746 15.9976 93.3736 15.7569 93.1787C15.7252 93.1524 15.6876 93.1342 15.6472 93.1258C15.6069 93.1173 15.5651 93.1189 15.5255 93.1304C15.4859 93.1419 15.4497 93.1629 15.4201 93.1916C15.3906 93.2203 15.3685 93.2558 15.3558 93.295C15.2788 93.5766 15.3017 94.4607 15.3017 94.4607C15.3017 94.4607 14.8761 93.6421 14.5912 93.2148C14.5633 93.1737 14.5238 93.1418 14.4778 93.1232C14.4317 93.1046 14.3812 93.1001 14.3326 93.1103C14.284 93.1205 14.2395 93.1449 14.2048 93.1804C14.1701 93.2159 14.1467 93.2609 14.1377 93.3097C14.0885 93.6126 14.0787 94.2429 14.0443 95.0681C14.0395 95.733 13.929 96.3929 13.7169 97.023C13.6029 97.3809 13.3876 97.6981 13.097 97.9361C12.8064 98.1741 12.453 98.3227 12.0796 98.3639C11.0592 98.4933 10.0247 98.4602 9.0147 98.2657C8.12076 98.0365 7.07292 97.2571 6.55883 96.1372C6.54521 96.1096 6.52352 96.0867 6.49662 96.0716C6.46973 96.0566 6.43889 96.05 6.40819 96.0529C6.37749 96.0557 6.34837 96.0678 6.3247 96.0875C6.30102 96.1073 6.28389 96.1338 6.27558 96.1634C6.04964 96.928 6.2854 98.1281 6.93048 98.9353C6.04964 99.5902 3.92776 101.096 3.14843 102.793C3.12043 102.854 3.10759 102.92 3.11101 102.987C3.11444 103.054 3.13401 103.12 3.16808 103.177C3.24679 103.32 3.35488 103.445 3.48526 103.543C3.61563 103.642 3.76533 103.711 3.92449 103.747C3.98562 103.76 4.04895 103.759 4.10948 103.743C4.17001 103.728 4.22607 103.698 4.27322 103.657C5.25557 102.839 6.67343 101.679 7.384 101.427C7.40281 101.419 7.42381 101.419 7.44305 101.425C7.4623 101.432 7.47847 101.445 7.48853 101.463C7.49858 101.481 7.50183 101.502 7.49765 101.521C7.49348 101.541 7.48217 101.559 7.46586 101.571C6.97469 101.946 5.50116 102.919 4.39111 104.91C4.35859 104.968 4.34031 105.033 4.33775 105.1C4.33519 105.167 4.34842 105.234 4.37637 105.294C4.45228 105.448 4.56474 105.58 4.70382 105.679C4.80523 105.758 4.91504 105.826 5.03127 105.881C5.1105 105.916 5.19841 105.927 5.28383 105.912C5.36925 105.897 5.44832 105.857 5.51098 105.797C6.55883 104.788 7.25793 104.096 8.7773 103.4C9.91192 102.922 11.9012 102.649 13.7283 103.123C15.2461 103.516 16.3348 104.148 17.959 105.371C18.0133 105.413 18.0765 105.441 18.1436 105.453C18.2107 105.466 18.2798 105.463 18.3454 105.443C18.5174 105.4 18.6763 105.316 18.8087 105.198C18.9058 105.102 18.9876 104.991 19.051 104.87C19.0892 104.8 19.107 104.72 19.1023 104.64C19.0977 104.56 19.0709 104.483 19.0249 104.417C18.1424 103.136 16.6557 102.069 15.8077 101.522" fill="#010101"/>
</g>
</g>
</g>
<defs>
<clipPath id="clip0_8003_2">
<rect width="200" height="23.989" fill="white" transform="translate(0 88)"/>
</clipPath>
</defs>
</svg>
