<svg width="200" height="200" viewBox="0 0 200 200" fill="none" xmlns="http://www.w3.org/2000/svg">
<g clip-path="url(#clip0_6598_1043)">
<g clip-path="url(#clip1_6598_1043)">
<mask id="mask0_6598_1043" style="mask-type:luminance" maskUnits="userSpaceOnUse" x="4" y="70" width="233" height="61">
<path d="M236.956 70.1945H4V130.231H236.956V70.1945Z" fill="white"/>
</mask>
<g mask="url(#mask0_6598_1043)">
<path d="M69.5589 125.227C72.766 125.757 78.9055 126.58 86.4271 126.756C93.9309 126.96 102.755 126.5 111.091 125.201C119.428 123.927 127.251 121.815 132.797 119.525C138.396 117.324 141.523 114.645 141.505 114.627C141.532 114.645 138.281 117.748 132.354 120.409C126.489 123.176 118.205 125.819 109.497 127.534C100.788 129.303 91.6541 130.098 84.2211 130.142C76.7881 130.231 71.0207 129.532 69.0008 129.196C62.0108 128.118 56.9344 126.191 53.8336 124.343C50.7063 122.478 49.6609 120.798 49.9887 120.471C50.3342 120.082 51.8935 120.869 55.0474 121.894C58.2013 122.929 63.0119 124.219 69.5589 125.227Z" fill="#EE7203"/>
<path fill-rule="evenodd" clip-rule="evenodd" d="M102.994 101.693L107.796 91.7478H107.884L113.191 101.693H118.657L111.605 88.8392H106.99L100.629 101.693H102.994Z" fill="#004A93"/>
<path fill-rule="evenodd" clip-rule="evenodd" d="M27.4683 96.0797L35.0076 95.9912C34.919 97.7859 33.9445 98.7849 33.4395 99.2181C32.1903 100.226 30.4096 100.305 29.5591 100.305C28.3099 100.305 27.238 100.129 26.1394 99.4568C25.4395 99.0324 24.6333 98.3163 24.2347 97.7152L23.898 97.2024L21.444 98.6346C22.1616 99.4833 23.2867 100.332 24.465 100.933C26.29 101.853 27.9556 102.074 29.9844 102.074C32.146 102.074 35.5126 101.755 37.94 99.9076C39.6322 98.6169 40.4118 96.8488 40.4118 95.284C40.4118 93.7192 39.6322 91.9334 37.94 90.6604C35.8492 89.0514 32.775 88.4856 30.0464 88.4856C28.2657 88.4856 26.6444 88.6624 24.9877 89.2989C23.6057 89.7852 22.5248 90.4659 21.4351 91.4383L23.8892 92.8528L24.4827 92.2075C24.97 91.6505 25.7939 91.1289 26.5381 90.8195C27.5303 90.3686 28.5669 90.236 29.6477 90.236C31.8271 90.236 33.0763 90.9521 33.7761 91.6505C34.2368 92.0926 34.857 92.9412 34.9987 94.2408L27.4595 94.1259V96.0973L27.4683 96.0797Z" fill="#004A93"/>
<path fill-rule="evenodd" clip-rule="evenodd" d="M127.331 90.0415C128.553 90.0415 129.953 90.3155 131.034 91.7212C131.902 92.8439 132.053 94.1347 132.053 95.2751C132.053 96.4155 131.911 97.6886 131.034 98.829C129.953 100.235 128.562 100.509 127.331 100.509C126.099 100.509 124.699 100.244 123.627 98.829C122.759 97.6886 122.609 96.4155 122.609 95.2751C122.609 94.1347 122.759 92.8351 123.627 91.7212C124.699 90.3155 126.099 90.0415 127.331 90.0415ZM127.331 102.074C129.616 102.074 132.806 101.534 134.95 99.9076C136.642 98.6345 137.448 96.8222 137.448 95.2751C137.448 93.728 136.642 91.9245 134.95 90.6515C132.814 89.016 129.625 88.4767 127.331 88.4767C125.036 88.4767 121.847 89.016 119.694 90.6515C118.002 91.9245 117.222 93.7368 117.222 95.2751C117.222 96.8134 118.002 98.6257 119.694 99.9076C121.855 101.543 125.071 102.074 127.331 102.074Z" fill="#004A93"/>
<path fill-rule="evenodd" clip-rule="evenodd" d="M86.1701 92.0837C86.6397 91.9334 87.189 91.8362 87.7382 91.8362H88.3141V98.5197H87.7382C87.189 98.5197 86.6397 98.4313 86.1701 98.2721C85.7538 98.1395 85.3728 97.9627 85.0716 97.6887C84.5046 97.2201 84.035 96.4421 84.035 95.1603C84.035 93.8784 84.5046 93.1269 85.0716 92.6584C85.3728 92.3932 85.7538 92.2075 86.1701 92.0749M95.0206 100.155C97.7493 99.9695 99.1933 99.2976 99.9552 98.8114C101.39 97.892 102.055 96.5924 102.055 95.1603C102.055 93.2861 100.885 92.1633 99.9552 91.5356C98.6618 90.6692 96.8456 90.3068 95.0206 90.1918C94.5333 90.1476 94.0461 90.1476 93.5588 90.1476H93.0273V88.3795H88.1369V90.1476H87.6231C87.1358 90.1476 86.6485 90.1476 86.1613 90.1918C84.3185 90.3068 82.5024 90.6692 81.2266 91.5356C80.3053 92.1545 79.1358 93.2772 79.1358 95.1603C79.1358 96.5924 79.7914 97.892 81.2266 98.8114C81.9708 99.2976 83.4149 99.9695 86.1613 100.155C86.6043 100.173 87.0915 100.199 87.6231 100.199H88.1369V102.074H93.0273V100.199H93.5588C94.0815 100.199 94.5688 100.173 95.0206 100.155ZM95.0206 92.0837C95.4458 92.2163 95.8268 92.402 96.1192 92.6672C96.6862 93.1358 97.1557 93.9137 97.1557 95.1691C97.1557 96.4245 96.695 97.2289 96.1192 97.6975C95.8179 97.9716 95.437 98.1395 95.0206 98.281C94.5333 98.4401 94.0018 98.5285 93.4348 98.5285H92.8855V91.845H93.4348C94.0106 91.845 94.5333 91.9334 95.0206 92.0926" fill="#004A93"/>
<path fill-rule="evenodd" clip-rule="evenodd" d="M67.9731 90.0415C69.178 90.0415 70.5955 90.3155 71.6763 91.7212C72.5445 92.8439 72.6951 94.1347 72.6951 95.2751C72.6951 96.4155 72.5445 97.6886 71.6763 98.829C70.5955 100.235 69.178 100.509 67.9731 100.509C66.7682 100.509 65.3242 100.244 64.2522 98.829C63.384 97.6886 63.2511 96.4155 63.2511 95.2751C63.2511 94.1347 63.384 92.8351 64.2522 91.7212C65.3242 90.3155 66.7505 90.0415 67.9731 90.0415ZM67.9731 102.074C70.2411 102.074 73.457 101.534 75.5921 99.9076C77.2665 98.6345 78.0462 96.8222 78.0462 95.2751C78.0462 93.728 77.2577 91.9245 75.5921 90.6515C73.457 89.016 70.2411 88.4767 67.9731 88.4767C65.7051 88.4767 62.4715 89.016 60.3364 90.6515C58.6443 91.9245 57.8558 93.7368 57.8558 95.2751C57.8558 96.8134 58.6443 98.6257 60.3364 99.9076C62.4715 101.543 65.6874 102.074 67.9731 102.074Z" fill="#004A93"/>
<path fill-rule="evenodd" clip-rule="evenodd" d="M49.5192 96.9814H50.4317C52.7794 96.9814 54.4095 96.7073 55.5789 95.9913C57.0407 95.0807 57.3774 93.8253 57.3774 92.844C57.3774 91.8627 57.0407 90.625 55.5789 89.7587C54.4095 89.0603 52.8503 88.8392 50.219 88.8392H41.8647V101.693H46.7551V96.9814H49.528H49.5192ZM49.5192 90.8107C50.1127 90.8284 50.8746 90.9433 51.4239 91.2969C52.1681 91.7831 52.2921 92.455 52.2921 92.8617C52.2921 93.2684 52.1858 93.9845 51.3796 94.4972C50.8303 94.8774 50.1482 94.9923 49.5192 95.0365H46.7462V90.7842H49.0142C49.1648 90.7842 49.3331 90.7842 49.5192 90.8107Z" fill="#004A93"/>
<path fill-rule="evenodd" clip-rule="evenodd" d="M11.6811 91.8538L14.1174 96.2299H9.24479L11.5482 91.7566H11.6102L11.6722 91.845L11.6811 91.8538ZM15.1097 97.9803L17.2005 101.685H22.6578L15.2514 88.8303H10.7243L3.99121 101.685H6.42752L8.34999 97.9803H15.1008H15.1097Z" fill="#004A93"/>
<path fill-rule="evenodd" clip-rule="evenodd" d="M136.668 90.7842H141.922V101.693H146.812V90.7842H152.075V88.8392H136.668V90.7842Z" fill="#004A93"/>
<path fill-rule="evenodd" clip-rule="evenodd" d="M10.4141 114.203L9.02323 113.566L14.7818 112.824C14.8881 113 14.9856 113.16 15.1007 113.319L10.4141 114.212V114.203ZM25.8736 114.203L27.2646 113.522L21.5414 112.797C21.4971 112.992 21.3377 113.151 21.2402 113.301L25.8825 114.194L25.8736 114.203ZM25.032 114.309L23.2867 114.919L20.8061 114.123L20.5935 114.052C20.6732 113.982 20.7441 113.92 20.8061 113.823C20.9036 113.734 20.9922 113.619 21.0896 113.522L25.0232 114.309H25.032ZM29.6389 112.585L28.0442 113.363L21.6832 112.585C21.7363 112.426 21.7895 112.267 21.8338 112.108L29.6389 112.585ZM30.2059 112.355L32.2878 110.958H21.0365C21.0365 111.453 20.9656 111.878 20.815 112.249C20.3809 113.434 19.2912 113.999 18.2015 113.982C17.1295 113.955 16.0398 113.363 15.5525 112.284C15.3842 111.887 15.2779 111.471 15.2779 110.958H4L6.06422 112.355L14.6843 111.878C14.8438 112.532 15.1539 113.098 15.5525 113.522C16.2436 114.282 17.227 114.707 18.2015 114.707C19.1583 114.724 20.124 114.353 20.815 113.54C21.1871 113.115 21.4706 112.567 21.63 111.904L30.2059 112.346V112.355ZM20.815 115.971L21.0365 116.395L20.815 116.501L20.2303 116.784L19.5658 115.387C19.1494 115.547 18.6799 115.644 18.2103 115.653C17.7054 115.679 17.1915 115.6 16.7397 115.44L16.1727 116.784C15.9867 116.802 15.7297 116.784 15.5703 116.66C15.4905 116.607 15.4019 116.519 15.3754 116.395L15.5703 116.042L16.0575 115.122C15.9069 115.016 15.774 114.945 15.6411 114.804L16.0487 114.291C16.7397 114.742 17.4839 114.981 18.2281 114.981C18.9634 115.007 19.6987 114.751 20.3897 114.238L20.8416 114.38L21.0276 114.45C20.9567 114.503 20.9124 114.556 20.8416 114.609C20.7087 114.751 20.5935 114.892 20.372 115.016L20.8416 115.971H20.815ZM20.815 108.73C21.2491 109.279 21.568 109.959 21.7364 110.728H21.0187C20.9656 110.499 20.9036 110.269 20.815 110.057C20.3366 108.713 19.3443 107.758 18.2015 106.962C18.0509 106.874 17.918 106.768 17.7674 106.679C17.918 106.732 18.0509 106.777 18.2015 106.839C19.238 107.281 20.1594 107.882 20.815 108.73ZM18.8659 113.717C19.052 113.69 19.3355 113.575 19.557 113.398L18.4141 111.011L19.6013 110.41L18.6002 109.491L18.1926 109.685L16.4651 110.507L16.97 111.719L17.7851 111.33L18.8571 113.717H18.8659ZM15.7563 114.052C15.6943 113.999 15.6234 113.938 15.5614 113.876C15.4285 113.752 15.3133 113.628 15.2248 113.504L11.3001 114.291L12.9745 114.892L15.7652 114.052H15.7563ZM14.6843 112.585C14.6223 112.426 14.5692 112.267 14.516 112.108L6.64894 112.585L8.24361 113.398L14.6932 112.585H14.6843Z" fill="#004A93"/>
<path d="M49.023 108.739C49.4129 108.739 50.1305 108.757 50.5646 109.208C50.8658 109.526 50.9101 109.933 50.8658 110.313C50.7772 111.011 50.3874 111.692 49.8204 112.108C49.3597 112.452 48.651 112.709 47.9334 112.709H46.5247L45.5856 115.741H44.6465L46.8171 108.739H49.023ZM46.7728 111.913H48.1548C48.6244 111.913 48.9787 111.754 49.2091 111.577C49.5192 111.33 49.8027 110.87 49.8558 110.472C49.909 110.074 49.7584 109.871 49.7052 109.8C49.5457 109.623 49.2268 109.544 48.9079 109.544H47.5258L46.7816 111.913H46.7728Z" fill="#004A93"/>
<path d="M55.1005 111.409C55.26 111.683 55.3132 112.063 55.2511 112.576C55.1625 113.336 54.7639 114.512 53.9222 115.22C53.4173 115.626 52.8148 115.847 52.2301 115.847C51.3353 115.847 51.0075 115.37 50.9189 115.22C50.7063 114.857 50.724 114.406 50.7595 114.088C50.8569 113.292 51.2556 112.116 52.0972 111.418C52.5933 111.011 53.2046 110.79 53.7894 110.79C54.4804 110.79 54.8968 111.073 55.0917 111.418M54.2235 113.089C54.3475 112.7 54.507 112.09 54.3032 111.745C54.1969 111.551 53.9488 111.418 53.6033 111.418C53.2312 111.418 52.8857 111.586 52.6465 111.816C52.2921 112.152 52.0884 112.656 51.9555 113.089L51.8137 113.531C51.6986 113.885 51.5036 114.486 51.734 114.866C51.8226 115.016 52.0175 115.202 52.425 115.202C52.7971 115.202 53.0983 115.06 53.3375 114.866C53.7894 114.495 53.94 113.982 54.0906 113.531L54.2323 113.089H54.2235Z" fill="#004A93"/>
<path d="M59.3441 115.361C59.1847 115.441 58.9278 115.564 58.6974 115.644C58.343 115.776 57.9798 115.847 57.5457 115.847C56.9698 115.847 56.5357 115.644 56.3143 115.361C56.0662 115.043 56.0042 114.512 56.0485 114.097C56.1548 113.23 56.6863 111.807 57.652 111.197C58.0861 110.914 58.6708 110.79 59.1227 110.79C59.4505 110.79 59.8491 110.879 60.0883 111.047C60.3452 111.232 60.4338 111.471 60.3984 111.798C60.3718 111.993 60.2921 112.214 60.2035 112.364L59.4062 112.435C59.5302 112.134 59.6011 111.86 59.4859 111.666C59.4062 111.551 59.2201 111.427 58.8657 111.427C58.6354 111.427 58.4051 111.471 58.1658 111.621C57.6254 111.94 57.4394 112.452 57.2799 112.965L57.085 113.611C56.9521 114.017 56.899 114.459 57.0496 114.751C57.1382 114.919 57.3508 115.158 57.9089 115.158C58.1747 115.158 58.3696 115.122 58.6708 115.034C58.8835 114.972 59.0695 114.901 59.2733 114.804L59.3619 115.37L59.3441 115.361Z" fill="#004A93"/>
<path d="M64.2079 115.361C64.0484 115.441 63.7915 115.564 63.5612 115.644C63.2068 115.776 62.8347 115.847 62.4095 115.847C61.8336 115.847 61.3995 115.644 61.178 115.361C60.93 115.043 60.8591 114.512 60.9122 114.097C61.0186 113.23 61.5501 111.807 62.5158 111.197C62.9499 110.914 63.5435 110.79 63.9864 110.79C64.3054 110.79 64.7129 110.879 64.9521 111.047C65.209 111.232 65.2976 111.471 65.2622 111.798C65.2356 111.993 65.1559 112.214 65.0673 112.364L64.2699 112.435C64.394 112.134 64.4648 111.86 64.3408 111.666C64.2699 111.551 64.075 111.427 63.7206 111.427C63.4903 111.427 63.26 111.471 63.0208 111.621C62.4892 111.94 62.2943 112.452 62.1348 112.965L61.9399 113.611C61.807 114.017 61.7539 114.459 61.9045 114.751C61.9931 114.919 62.2057 115.158 62.7638 115.158C63.0296 115.158 63.2245 115.122 63.5257 115.034C63.7472 114.972 63.9244 114.901 64.1282 114.804L64.2168 115.37L64.2079 115.361Z" fill="#004A93"/>
<path d="M69.5058 115.75H68.673L69.8424 111.948L66.4582 115.75H65.4571L66.9631 110.879H67.7959L66.6353 114.68L70.0196 110.879H71.0118L69.5058 115.75Z" fill="#004A93"/>
<path d="M75.3795 115.75H74.5379L75.7162 111.948L72.323 115.75H71.3308L72.828 110.888H73.6697L72.5002 114.689L75.8845 110.888H76.8767L75.3795 115.75ZM76.7527 108.819C76.7527 108.881 76.7261 108.987 76.6818 109.128C76.6021 109.42 76.4426 109.694 76.0351 109.906C75.6984 110.083 75.4061 110.127 75.096 110.127C74.8745 110.127 74.5202 110.118 74.2809 109.906C74.1924 109.827 74.024 109.65 74.0683 109.34C74.086 109.19 74.1746 108.969 74.2544 108.819H74.91L74.8657 108.934C74.8214 109.066 74.7682 109.243 74.8834 109.394C74.9897 109.517 75.1492 109.526 75.2732 109.526C75.4327 109.526 75.5833 109.508 75.7427 109.394C75.9376 109.261 75.9908 109.111 76.044 108.943L76.0883 108.81H76.7438L76.7527 108.819Z" fill="#004A93"/>
<path d="M80.6685 115.361C80.509 115.441 80.2521 115.564 80.0218 115.644C79.6674 115.776 79.2953 115.847 78.8701 115.847C78.2942 115.847 77.8601 115.644 77.6386 115.361C77.3906 115.043 77.3285 114.512 77.3728 114.097C77.4792 113.23 78.0107 111.807 78.9764 111.197C79.4105 110.914 80.0041 110.79 80.4559 110.79C80.7748 110.79 81.1823 110.879 81.4216 111.047C81.6785 111.232 81.7671 111.471 81.7316 111.798C81.705 111.993 81.6253 112.214 81.5367 112.364L80.7394 112.435C80.8634 112.134 80.9343 111.86 80.8191 111.666C80.7482 111.551 80.5533 111.427 80.199 111.427C79.9686 111.427 79.7383 111.471 79.4991 111.621C78.9675 111.94 78.7638 112.452 78.6043 112.965L78.4094 113.611C78.2765 114.017 78.2233 114.459 78.3739 114.751C78.4625 114.919 78.6752 115.158 79.2244 115.158C79.4902 115.158 79.694 115.122 79.9863 115.034C80.199 114.972 80.385 114.901 80.5888 114.804L80.6774 115.37L80.6685 115.361Z" fill="#004A93"/>
<path d="M84.9653 115.75L84.7527 114.221C84.7172 114.026 84.7084 113.814 84.5755 113.672C84.4514 113.54 84.2743 113.522 84.1236 113.522H83.4415L82.7504 115.75H81.9088L83.406 110.888H84.2477L83.6541 112.824H84.2477C84.3894 112.824 84.6375 112.815 84.8501 112.656C85.0184 112.532 85.1336 112.346 85.2311 112.187L85.5766 111.639C85.7803 111.321 85.9575 111.02 86.3473 110.87C86.4891 110.817 86.622 110.799 86.746 110.799C86.8877 110.799 87.0295 110.826 87.1624 110.87L86.87 111.515C86.7637 111.489 86.6042 111.489 86.4891 111.568C86.365 111.657 86.2765 111.825 86.2144 111.922L85.9398 112.355C85.8246 112.541 85.736 112.726 85.488 112.903C85.3374 113.018 85.169 113.089 85.0007 113.142L84.983 113.177C85.1336 113.213 85.2931 113.319 85.4082 113.451C85.55 113.646 85.5943 113.955 85.5943 113.964L85.8512 115.759H84.9476L84.9653 115.75Z" fill="#004A93"/>
<path d="M91.0162 115.75H90.1834L91.3529 111.948L87.9597 115.75H86.9675L88.4736 110.879H89.3064L88.1458 114.68L91.53 110.879H92.5223L91.0162 115.75Z" fill="#004A93"/>
<path d="M94.0638 113.655C93.9752 114.008 93.8866 114.468 94.0461 114.742C94.1878 114.981 94.5245 115.149 94.9852 115.149C95.2687 115.149 95.4902 115.105 95.7382 115.025C95.9597 114.963 96.1369 114.892 96.3407 114.795L96.4292 115.361C96.2698 115.441 96.0129 115.564 95.7825 115.644C95.4281 115.776 95.0383 115.847 94.6308 115.847C93.7537 115.847 93.3728 115.414 93.2222 115.149C92.7792 114.335 93.3285 112.32 94.3473 111.427C94.8346 111.003 95.4104 110.79 95.9686 110.79C96.6419 110.79 96.9874 111.1 97.1468 111.365C97.4569 111.895 97.2443 112.585 97.0317 113.31L96.9697 113.531H94.1081L94.0727 113.655H94.0638ZM96.2698 112.886L96.3229 112.682C96.4115 112.373 96.509 112.002 96.3672 111.719C96.2343 111.471 96.004 111.418 95.8179 111.418C95.4724 111.418 95.2067 111.524 94.9586 111.745C94.7194 111.957 94.4802 112.293 94.3384 112.771L94.303 112.877H96.2698V112.886Z" fill="#004A93"/>
<path d="M105.413 115.14H105.377C105.2 115.317 104.996 115.494 104.713 115.644C104.403 115.803 104.181 115.847 103.844 115.847C103.543 115.847 103.198 115.821 102.941 115.6C102.773 115.449 102.586 115.175 102.648 114.707C102.702 114.265 102.941 113.681 103.552 113.292C103.88 113.08 104.411 112.886 105.324 112.886H106.042L106.237 112.258C106.281 112.116 106.387 111.798 106.148 111.586C106.068 111.515 105.909 111.427 105.554 111.427C105.377 111.427 105.076 111.445 104.828 111.586C104.606 111.719 104.491 111.878 104.394 112.17L103.641 112.125C103.667 111.745 103.88 111.365 104.314 111.109C104.819 110.826 105.501 110.79 105.794 110.79C106.299 110.79 106.812 110.905 107.025 111.241C107.122 111.392 107.184 111.613 107.14 111.94C107.114 112.178 107.043 112.373 106.963 112.612L105.997 115.759H105.244L105.43 115.158L105.413 115.14ZM105.838 113.487H105.085C104.615 113.487 104.287 113.566 104.048 113.734C103.765 113.929 103.588 114.238 103.552 114.539C103.526 114.742 103.552 114.857 103.658 114.981C103.827 115.175 104.039 115.193 104.217 115.193C104.509 115.193 104.695 115.131 104.97 114.972C105.165 114.866 105.342 114.724 105.519 114.53L105.838 113.487Z" fill="#004A93"/>
<path d="M109.089 110.879H111.207C111.57 110.879 111.933 110.914 112.172 111.241C112.279 111.383 112.358 111.595 112.314 111.913C112.279 112.223 112.119 112.55 111.862 112.797C111.623 113.027 111.393 113.133 111.224 113.168V113.195C111.481 113.257 111.605 113.425 111.667 113.513C111.747 113.646 111.809 113.84 111.774 114.088C111.729 114.424 111.561 114.928 111.012 115.334C110.578 115.653 110.143 115.741 109.665 115.741H107.583L109.071 110.879H109.089ZM108.629 115.105H109.763C110.081 115.105 110.312 115.016 110.471 114.901C110.71 114.742 110.87 114.45 110.905 114.141C110.923 113.973 110.888 113.832 110.772 113.725C110.622 113.584 110.383 113.575 110.294 113.575H109.107L108.629 115.105ZM109.302 112.93H110.365C110.551 112.93 110.799 112.912 111.047 112.744C111.286 112.576 111.419 112.311 111.455 112.046C111.481 111.834 111.401 111.701 111.304 111.639C111.18 111.542 110.994 111.515 110.843 111.515H109.736L109.302 112.93Z" fill="#004A93"/>
<path d="M116.779 115.75H115.946L117.116 111.948L113.749 115.75H112.766L114.254 110.879H115.087L113.926 114.68L117.284 110.879H118.267L116.779 115.75Z" fill="#004A93"/>
<path d="M121.333 115.14H121.297C121.129 115.317 120.916 115.494 120.633 115.644C120.332 115.803 120.11 115.847 119.765 115.847C119.455 115.847 119.109 115.821 118.861 115.6C118.693 115.449 118.507 115.175 118.56 114.707C118.613 114.265 118.861 113.681 119.463 113.292C119.8 113.08 120.323 112.886 121.235 112.886H121.953L122.148 112.258C122.192 112.116 122.298 111.798 122.059 111.586C121.988 111.515 121.829 111.427 121.466 111.427C121.288 111.427 120.978 111.445 120.739 111.586C120.518 111.719 120.403 111.878 120.305 112.17L119.552 112.125C119.579 111.745 119.782 111.365 120.225 111.109C120.721 110.826 121.404 110.79 121.705 110.79C122.21 110.79 122.724 110.905 122.936 111.241C123.025 111.392 123.087 111.613 123.043 111.94C123.016 112.178 122.945 112.373 122.865 112.612L121.9 115.759H121.147L121.333 115.158V115.14ZM121.767 113.487H121.005C120.535 113.487 120.208 113.566 119.968 113.734C119.676 113.929 119.508 114.238 119.472 114.539C119.446 114.742 119.472 114.857 119.579 114.981C119.747 115.175 119.96 115.193 120.137 115.193C120.429 115.193 120.615 115.131 120.89 114.972C121.085 114.866 121.262 114.724 121.43 114.53L121.749 113.487H121.767Z" fill="#004A93"/>
<path d="M126.755 115.75H125.922L127.207 111.586H125.869L125.692 112.125C125.479 112.779 125.257 113.407 125.001 114.026C124.788 114.539 124.513 115.113 123.937 115.494C123.618 115.706 123.211 115.829 122.874 115.874V115.175C123.113 115.131 123.424 115.007 123.645 114.848C123.982 114.601 124.168 114.22 124.318 113.858C124.522 113.381 124.912 112.302 125.098 111.683L125.346 110.888H128.243L126.755 115.75Z" fill="#004A93"/>
<path d="M132.46 115.75H131.627L132.797 111.948L129.43 115.75H128.447L129.935 110.879H130.768L129.607 114.68L132.965 110.879H133.948L132.46 115.75Z" fill="#004A93"/>
<path d="M137.9 115.75H137.067L137.74 113.549H135.658L134.976 115.75H134.143L135.641 110.879H136.473L135.871 112.85H137.953L138.555 110.879H139.388L137.9 115.75Z" fill="#004A93"/>
<path d="M143.605 115.75H142.763L143.933 111.948L140.575 115.75H139.583L141.08 110.879H141.913L140.752 114.68L144.101 110.879H145.093L143.605 115.75Z" fill="#004A93"/>
<path d="M149.302 115.75H148.469L149.638 111.948L146.272 115.75H145.288L146.777 110.879H147.609L146.449 114.68L149.807 110.879H150.799L149.302 115.75Z" fill="#004A93"/>
<path fill-rule="evenodd" clip-rule="evenodd" d="M186.059 81.5722L185.093 81.7049L184.482 81.7667C183.392 81.864 181.558 82.0319 180.008 83.0751C178.466 84.1095 176.712 86.2666 175.49 87.9286C162.192 90.2802 154.901 98.608 150.072 104.125L147.087 107.846L147.592 107.678C156.655 98.8379 164.735 94.117 172.292 93.2418L172.416 93.2241L175.552 88.8922C176.42 88.0701 177.616 87.7783 179.388 87.5662L182.515 87.354L186.156 87.0888C188.265 86.797 190.072 86.2843 192.553 82.6862L195.919 77.8857L195.485 77.5321C192.402 80.7589 189.036 81.1921 186.059 81.5811M186.13 82.1292C188.69 81.7933 191.525 81.3159 194.272 79.2472C193.279 80.6705 192.092 82.3591 192.092 82.3591C189.736 85.7715 188.114 86.2401 186.085 86.523L182.497 86.7882L179.326 87.0004C178.032 87.1595 177.076 87.4424 176.243 87.8667C177.279 86.4965 178.909 84.4896 180.327 83.5349C181.762 82.5712 183.428 82.4209 184.535 82.3237L185.173 82.2618L186.13 82.1292ZM175.073 88.6005C174.799 88.9718 173.16 91.2527 173.16 91.2527C173.16 91.2527 172.23 92.5434 172.106 92.7025C165.682 93.4893 158.896 97.0079 151.499 103.364C156.203 98.0423 163.158 90.8902 175.073 88.6005Z" fill="#1D1D1B"/>
</g>
<mask id="mask1_6598_1043" style="mask-type:luminance" maskUnits="userSpaceOnUse" x="145" y="96" width="29" height="14">
<path d="M147.415 107.484L145.439 109.641C155.353 102.029 161.067 101.384 169.235 101.455C169.988 101.499 170.706 101.552 171.166 100.509L173.638 96.9991C162.21 97.1052 157.045 100.058 147.423 107.484" fill="white"/>
</mask>
<g mask="url(#mask1_6598_1043)">
<path d="M158.542 82.1382L179.592 102.878L160.509 124.493L139.468 103.762L158.542 82.1382Z" fill="url(#paint0_linear_6598_1043)"/>
</g>
<mask id="mask2_6598_1043" style="mask-type:luminance" maskUnits="userSpaceOnUse" x="147" y="88" width="29" height="20">
<path d="M147.406 107.475C157.089 98.0335 165.16 93.79 172.274 92.959C172.903 92.075 175.065 89.131 175.729 88.1586C159.534 90.9434 152.367 102.533 147.406 107.475Z" fill="white"/>
</mask>
<g mask="url(#mask2_6598_1043)">
<path d="M156.726 74.0933L184.323 94.5062L166.409 121.532L138.812 101.119L156.726 74.0933Z" fill="url(#paint1_linear_6598_1043)"/>
</g>
<mask id="mask3_6598_1043" style="mask-type:luminance" maskUnits="userSpaceOnUse" x="146" y="92" width="27" height="17">
<path d="M147.902 106.936C147.707 107.13 147.043 107.891 146.848 108.076C152.526 103.647 157.284 99.0501 169.129 97.3439C169.722 96.6366 171.441 94.2408 172.256 92.9678C161.457 94.5149 154.387 100.889 147.902 106.945" fill="white"/>
</mask>
<g mask="url(#mask3_6598_1043)">
<path d="M158.675 79.5654L179.397 99.9872L160.447 121.461L139.716 101.039L158.675 79.5654Z" fill="url(#paint2_linear_6598_1043)"/>
</g>
<mask id="mask4_6598_1043" style="mask-type:luminance" maskUnits="userSpaceOnUse" x="168" y="96" width="7" height="5">
<path d="M168.517 98.0865C168.207 98.9794 168.695 98.6081 170.112 99.4834C171.308 100.235 171.06 100.527 170.954 100.907C172.035 99.2535 174.001 96.8489 174.001 96.8489C173.523 96.672 173 96.6013 172.486 96.6013C170.608 96.6013 168.704 97.5473 168.526 98.0777" fill="white"/>
</mask>
<g mask="url(#mask4_6598_1043)">
<path d="M169.83 94.0111L166.267 99.7015L172.368 103.506L175.931 97.8152L169.83 94.0111Z" fill="url(#paint3_linear_6598_1043)"/>
</g>
<mask id="mask5_6598_1043" style="mask-type:luminance" maskUnits="userSpaceOnUse" x="171" y="82" width="22" height="12">
<path d="M179.459 87.0446C177.244 87.3629 175.844 87.9464 174.958 89.1222L171.866 93.4982C172.54 92.8617 174.577 92.5523 176.783 92.4904H177.093C177.182 92.4904 177.279 92.4904 177.368 92.4904C177.687 92.4904 178.015 92.4727 178.36 92.4551C181.488 92.3224 185.846 91.8539 188.38 88.7332L192.181 83.1724L192.633 82.5094C189.328 87.1065 181.789 86.7087 179.441 87.0358" fill="white"/>
</mask>
<g mask="url(#mask5_6598_1043)">
<path d="M179.795 71.8477L197.7 86.7087L184.721 104.169L166.816 89.3078L179.795 71.8477Z" fill="#014B94"/>
</g>
<mask id="mask6_6598_1043" style="mask-type:luminance" maskUnits="userSpaceOnUse" x="175" y="77" width="21" height="12">
<path d="M185.138 81.9789C184.172 82.1115 181.993 82.085 180.176 83.305C178.36 84.525 176.163 87.4336 175.091 88.9718C176.092 87.8402 177.421 87.522 179.37 87.2833C181.319 87.0446 184.136 87.08 186.13 86.7971C188.052 86.523 189.842 86.1163 192.331 82.5182L195.698 77.7178C192.207 81.3601 188.389 81.5192 185.146 81.9789" fill="white"/>
</mask>
<g mask="url(#mask6_6598_1043)">
<path d="M182.94 67.1444L200.863 82.0054L187.831 99.5363L169.917 84.6753L182.94 67.1444Z" fill="url(#paint4_linear_6598_1043)"/>
</g>
<mask id="mask7_6598_1043" style="mask-type:luminance" maskUnits="userSpaceOnUse" x="168" y="88" width="21" height="11">
<path d="M181.293 91.9069C178.918 92.2605 176.199 92.3666 175.419 92.402C174.09 92.4639 172.318 92.9236 171.822 93.5424C170.334 95.505 168.898 97.3262 168.509 98.0865C169.421 97.1936 172.424 97.2908 176.066 97.114C179.698 96.9461 183.383 95.284 186.289 91.7832L188.495 88.5652C187.016 90.572 184.411 91.456 181.284 91.9158" fill="white"/>
</mask>
<g mask="url(#mask7_6598_1043)">
<path d="M176.145 78.2925L192.889 92.1899L180.885 108.35L164.132 94.4531L176.145 78.2925Z" fill="#FF000F"/>
</g>
</g>
</g>
<defs>
<linearGradient id="paint0_linear_6598_1043" x1="806.96" y1="739.454" x2="819.241" y2="751.603" gradientUnits="userSpaceOnUse">
<stop stop-color="#C00D0D"/>
<stop offset="0.3" stop-color="#E30613"/>
<stop offset="0.5" stop-color="#F6B2B6"/>
<stop offset="0.72" stop-color="#E30613"/>
<stop offset="1" stop-color="#C00D0D"/>
</linearGradient>
<linearGradient id="paint1_linear_6598_1043" x1="1211.37" y1="872.461" x2="1232.16" y2="887.907" gradientUnits="userSpaceOnUse">
<stop stop-color="white"/>
<stop offset="0.34" stop-color="white"/>
<stop offset="0.55" stop-color="white"/>
<stop offset="0.91" stop-color="#D3DAF0"/>
<stop offset="1" stop-color="#D3DAF0"/>
</linearGradient>
<linearGradient id="paint2_linear_6598_1043" x1="555.31" y1="490.061" x2="562.772" y2="497.443" gradientUnits="userSpaceOnUse">
<stop stop-color="#004A93"/>
<stop offset="0.11" stop-color="#004A93"/>
<stop offset="0.5" stop-color="#899DD0"/>
<stop offset="0.56" stop-color="#7490C6"/>
<stop offset="0.75" stop-color="#356AAA"/>
<stop offset="0.89" stop-color="#0E5299"/>
<stop offset="0.96" stop-color="#004A93"/>
<stop offset="1" stop-color="#004A93"/>
</linearGradient>
<linearGradient id="paint3_linear_6598_1043" x1="168.195" y1="93.699" x2="175.542" y2="98.2993" gradientUnits="userSpaceOnUse">
<stop stop-color="#C00D0D"/>
<stop offset="0.5" stop-color="#E30613"/>
<stop offset="1" stop-color="#F6B2B6"/>
</linearGradient>
<linearGradient id="paint4_linear_6598_1043" x1="865.301" y1="642.557" x2="878.317" y2="653.402" gradientUnits="userSpaceOnUse">
<stop stop-color="white"/>
<stop offset="0.17" stop-color="white"/>
<stop offset="0.24" stop-color="#F8F9FD"/>
<stop offset="0.33" stop-color="#E7EBF7"/>
<stop offset="0.35" stop-color="#E3E7F6"/>
<stop offset="0.43" stop-color="#ECEFF9"/>
<stop offset="0.57" stop-color="#FAFBFD"/>
<stop offset="0.7" stop-color="white"/>
<stop offset="1" stop-color="white"/>
</linearGradient>
<clipPath id="clip0_6598_1043">
<rect width="200" height="200" fill="white"/>
</clipPath>
<clipPath id="clip1_6598_1043">
<rect width="233" height="61" fill="white" transform="translate(4 70)"/>
</clipPath>
</defs>
</svg>
