<svg width="200" height="200" viewBox="0 0 200 200" fill="none" xmlns="http://www.w3.org/2000/svg">
<g clip-path="url(#clip0_6463_595)">
<path d="M63.024 109.309L61.0996 106.148V109.309H60.2062V104.704H61.1684L63.0928 107.729L64.9484 104.704H65.8419V109.309H65.0172V106.148L63.024 109.309Z" fill="black"/>
<path d="M69.7594 105.392C69.3471 105.392 69.0034 105.529 68.7973 105.735C68.5223 105.942 68.3849 106.216 68.3161 106.629H71.134C71.0653 106.285 70.9278 106.01 70.7216 105.735C70.4467 105.529 70.1031 105.392 69.7594 105.392ZM69.7594 108.691C70.0344 108.691 70.3093 108.622 70.5155 108.553C70.7217 108.416 70.8591 108.278 70.9966 108.072H71.9588C71.8213 108.553 71.5464 108.897 71.134 109.103C70.7216 109.378 70.3093 109.447 69.8282 109.447C69.4845 109.447 69.1409 109.378 68.866 109.241C68.5911 109.103 68.3162 108.966 68.11 108.759C67.9038 108.553 67.6976 108.278 67.6289 108.003C67.4914 107.729 67.4227 107.385 67.4227 107.041C67.4227 106.698 67.4914 106.354 67.6289 106.079C67.7663 105.804 67.9038 105.529 68.11 105.323C68.3162 105.117 68.5911 104.911 68.866 104.842C69.1409 104.704 69.4845 104.636 69.8282 104.636C70.1718 104.636 70.4467 104.704 70.7216 104.842C70.9966 104.979 71.2715 105.117 71.4089 105.323C71.6151 105.529 71.7526 105.804 71.89 106.079C72.0275 106.354 72.0275 106.698 72.0275 106.973V107.179C72.0275 107.247 72.0275 107.316 72.0275 107.385H68.3161C68.3161 107.591 68.3849 107.729 68.4536 107.935C68.5223 108.072 68.6598 108.21 68.7973 108.347C68.9347 108.485 69.0722 108.553 69.2784 108.622C69.4158 108.622 69.5533 108.691 69.7594 108.691Z" fill="black"/>
<path d="M76.6323 104.704V106.698L78.5567 104.704H79.6564L77.3196 107.041L79.6564 109.309H78.488L76.6323 107.454V109.309H75.7388V107.454L73.8144 109.309H72.7148L75.0515 107.041L72.7148 104.704H73.8144L75.7388 106.698V104.704H76.6323Z" fill="black"/>
<path d="M82.0618 106.629C82.0618 106.766 82.0618 106.973 82.0618 107.11C82.0618 107.247 82.0618 107.454 81.9931 107.591C81.9931 107.797 81.9244 107.935 81.8557 108.072C81.7869 108.21 81.7182 108.416 81.6495 108.485H84.055V105.392H82.0618V106.629ZM84.8797 110.615V109.378H81.0309V110.615H80.1375V108.553H80.6873C80.8247 108.485 80.8935 108.347 80.9622 108.21C81.0309 108.072 81.0997 107.935 81.1684 107.729C81.2371 107.591 81.2371 107.385 81.2371 107.179C81.2371 106.973 81.2371 106.766 81.2371 106.629V104.704H84.9484V108.553H85.7045V110.615H84.8797Z" fill="black"/>
<path d="M86.5979 104.704H87.5601L89.1409 108.21L90.7216 104.704H91.6151L89.4158 109.584C89.2783 109.928 89.1409 110.203 89.0034 110.478C88.866 110.684 88.7972 110.89 88.6598 111.027C88.5223 111.165 88.3849 111.234 88.2474 111.302C88.11 111.371 87.835 111.371 87.5601 111.371H87.1478V110.615H87.4227C87.5601 110.615 87.6976 110.615 87.7663 110.546C87.835 110.546 87.9725 110.478 88.0412 110.409C88.11 110.34 88.1787 110.271 88.2474 110.134C88.3161 109.997 88.3849 109.859 88.4536 109.722L88.6598 109.309L86.5979 104.704Z" fill="black"/>
<path d="M97.0447 104.704V109.309H96.2199V107.385H93.4708V109.309H92.6461V104.704H93.4708V106.629H96.2199V104.704H97.0447Z" fill="black"/>
<path d="M102.131 107.179H100.687C100.344 107.179 100.069 107.247 99.8625 107.385C99.6564 107.522 99.5876 107.66 99.5876 107.935C99.5876 108.21 99.6564 108.347 99.8625 108.485C100.069 108.622 100.344 108.691 100.687 108.691C101.168 108.691 101.512 108.553 101.787 108.347C102.062 108.141 102.199 107.866 102.199 107.522V107.179H102.131ZM100.756 104.567C101.1 104.567 101.375 104.636 101.649 104.704C101.924 104.773 102.131 104.911 102.337 105.048C102.543 105.186 102.68 105.392 102.818 105.598C102.955 105.804 102.955 106.079 102.955 106.354V109.309H102.062V108.828C101.856 109.034 101.649 109.172 101.375 109.309C101.1 109.447 100.825 109.447 100.412 109.447C100.137 109.447 99.8625 109.447 99.6564 109.378C99.4502 109.309 99.244 109.241 99.0378 109.103C98.9003 108.966 98.7629 108.828 98.6254 108.622C98.5567 108.416 98.488 108.21 98.488 107.935C98.488 107.66 98.5567 107.385 98.6254 107.247C98.7629 107.041 98.9003 106.904 99.0378 106.766C99.244 106.629 99.4502 106.56 99.6564 106.491C99.9313 106.423 100.137 106.423 100.412 106.423H101.856C101.856 106.01 101.718 105.804 101.443 105.598C101.168 105.46 100.893 105.392 100.481 105.392C100.206 105.392 99.9313 105.46 99.7251 105.529C99.4502 105.667 99.3127 105.804 99.244 106.01H98.2818C98.3505 105.735 98.4192 105.529 98.6254 105.392C98.7629 105.186 98.9691 105.048 99.1065 104.911C99.3127 104.773 99.5189 104.704 99.7938 104.636C100.206 104.636 100.481 104.567 100.756 104.567Z" fill="black"/>
<path d="M105.567 107.041C105.567 107.316 105.636 107.522 105.704 107.729C105.773 107.935 105.911 108.072 106.048 108.21C106.186 108.347 106.323 108.416 106.529 108.485C106.735 108.553 106.942 108.553 107.079 108.553C107.285 108.553 107.491 108.485 107.698 108.416C107.904 108.347 108.041 108.21 108.179 108.072C108.316 107.935 108.385 107.729 108.454 107.522C108.522 107.316 108.591 107.11 108.591 106.904C108.591 106.698 108.522 106.491 108.454 106.285C108.385 106.079 108.247 105.942 108.179 105.735C108.041 105.598 107.904 105.46 107.698 105.392C107.491 105.323 107.285 105.254 107.079 105.254C106.873 105.254 106.667 105.254 106.529 105.323C106.323 105.392 106.186 105.46 106.048 105.598C105.911 105.735 105.773 105.873 105.704 106.079C105.567 106.491 105.567 106.766 105.567 107.041ZM104.742 111.371V104.704H105.636V105.186C105.842 104.979 106.048 104.842 106.323 104.704C106.598 104.567 106.873 104.567 107.216 104.567C107.629 104.567 107.904 104.636 108.247 104.773C108.522 104.911 108.797 105.117 109.003 105.323C109.21 105.529 109.347 105.804 109.416 106.079C109.485 106.354 109.553 106.698 109.553 106.973C109.553 107.316 109.485 107.591 109.416 107.866C109.347 108.141 109.141 108.416 109.003 108.622C108.797 108.828 108.591 109.034 108.247 109.172C107.973 109.309 107.629 109.378 107.216 109.378C106.873 109.378 106.598 109.309 106.323 109.241C106.048 109.172 105.842 108.966 105.636 108.759V111.302H104.742V111.371Z" fill="black"/>
<path d="M113.127 108.691C113.333 108.691 113.54 108.622 113.746 108.553C113.952 108.485 114.089 108.347 114.227 108.21C114.364 108.072 114.502 107.866 114.57 107.66C114.639 107.454 114.708 107.247 114.708 107.041C114.708 106.835 114.639 106.629 114.57 106.423C114.502 106.216 114.364 106.079 114.227 105.873C114.089 105.735 113.952 105.598 113.746 105.529C113.54 105.46 113.333 105.392 113.127 105.392C112.921 105.392 112.715 105.46 112.509 105.529C112.302 105.598 112.165 105.735 112.027 105.873C111.89 106.01 111.753 106.216 111.684 106.423C111.615 106.629 111.546 106.835 111.546 107.041C111.546 107.247 111.615 107.454 111.684 107.66C111.753 107.866 111.89 108.003 112.027 108.21C112.165 108.347 112.302 108.485 112.509 108.553C112.715 108.622 112.921 108.691 113.127 108.691ZM113.127 104.567C113.471 104.567 113.814 104.636 114.089 104.773C114.364 104.911 114.639 105.048 114.845 105.254C115.052 105.46 115.258 105.735 115.326 106.01C115.464 106.285 115.533 106.629 115.533 106.973C115.533 107.316 115.464 107.66 115.326 107.935C115.189 108.21 115.052 108.485 114.845 108.691C114.639 108.897 114.364 109.103 114.089 109.172C113.814 109.309 113.471 109.378 113.127 109.378C112.784 109.378 112.44 109.309 112.165 109.172C111.89 109.034 111.615 108.897 111.409 108.691C111.203 108.485 110.997 108.21 110.928 107.935C110.79 107.66 110.722 107.316 110.722 106.973C110.722 106.629 110.79 106.285 110.928 106.01C111.065 105.735 111.203 105.46 111.409 105.254C111.615 105.048 111.89 104.842 112.165 104.773C112.44 104.636 112.784 104.567 113.127 104.567Z" fill="black"/>
<path d="M118.351 106.629C118.351 106.766 118.351 106.973 118.351 107.11C118.351 107.247 118.351 107.454 118.282 107.591C118.282 107.797 118.213 107.935 118.144 108.072C118.076 108.21 118.007 108.416 117.938 108.485H120.344V105.392H118.351V106.629ZM121.1 110.615V109.378H117.251V110.615H116.357V108.553H116.907C117.045 108.485 117.113 108.347 117.182 108.21C117.251 108.072 117.32 107.935 117.388 107.729C117.457 107.591 117.457 107.385 117.457 107.179C117.457 106.973 117.457 106.766 117.457 106.629V104.704H121.168V108.553H121.924V110.615H121.1Z" fill="black"/>
<path d="M127.835 104.704V109.309H127.01V107.385H124.33V109.309H123.436V104.704H124.33V106.629H127.01V104.704H127.835Z" fill="black"/>
<path d="M134.502 109.309H135.395V104.704H134.502V109.309ZM131.959 108.553C132.234 108.553 132.44 108.485 132.646 108.347C132.784 108.21 132.921 108.003 132.921 107.729C132.921 107.454 132.852 107.247 132.646 107.11C132.509 106.973 132.234 106.904 131.959 106.904H130.584V108.553H131.959ZM131.959 106.216C132.234 106.216 132.509 106.285 132.715 106.354C132.921 106.423 133.127 106.56 133.265 106.698C133.402 106.835 133.54 106.973 133.608 107.179C133.677 107.385 133.746 107.591 133.746 107.797C133.746 108.003 133.677 108.21 133.608 108.416C133.54 108.622 133.402 108.759 133.265 108.897C133.127 109.034 132.921 109.172 132.715 109.241C132.509 109.309 132.234 109.378 131.959 109.378H129.691V104.773H130.584V106.285H131.959V106.216Z" fill="black"/>
<path d="M139.45 103.261C139.725 103.261 140 103.192 140.137 102.986C140.344 102.78 140.412 102.574 140.481 102.299H141.237C141.237 102.505 141.168 102.78 141.031 102.986C140.962 103.192 140.825 103.33 140.619 103.536C140.481 103.674 140.275 103.811 140.069 103.88C139.863 103.948 139.656 104.017 139.381 104.017C139.107 104.017 138.9 103.948 138.694 103.88C138.488 103.811 138.282 103.674 138.144 103.536C138.007 103.399 137.869 103.192 137.732 102.986C137.663 102.78 137.595 102.574 137.526 102.299H138.282C138.351 102.574 138.419 102.78 138.625 102.986C138.9 103.192 139.107 103.261 139.45 103.261ZM137.182 109.309V104.704H138.076V108.072L140.756 104.704H141.649V109.309H140.756V105.942L138.076 109.309H137.182Z" fill="black"/>
<path d="M63.4364 117.213H61.9931C61.6495 117.213 61.3746 117.282 61.1684 117.419C60.9622 117.557 60.8935 117.694 60.8935 117.969C60.8935 118.244 60.9622 118.381 61.1684 118.519C61.3746 118.656 61.6495 118.725 61.9931 118.725C62.4742 118.725 62.8179 118.588 63.0928 118.381C63.3677 118.175 63.5051 117.9 63.5051 117.557V117.213H63.4364ZM62.0618 114.601C62.4055 114.601 62.6804 114.67 62.9553 114.739C63.2302 114.808 63.4364 114.945 63.6426 115.082C63.8488 115.22 63.9862 115.426 64.1237 115.632C64.2612 115.838 64.2612 116.113 64.2612 116.388V119.344H63.3677V118.863C63.1615 119.069 62.9553 119.206 62.6804 119.344C62.4055 119.481 62.1306 119.481 61.7182 119.481C61.4433 119.481 61.1684 119.481 60.9622 119.412C60.756 119.344 60.5498 119.275 60.3436 119.137C60.2062 119 60.0687 118.863 59.9313 118.656C59.8625 118.45 59.7938 118.244 59.7938 117.969C59.7938 117.694 59.8625 117.419 59.9313 117.282C60.0687 117.076 60.2062 116.938 60.3436 116.801C60.5498 116.663 60.756 116.595 60.9622 116.526C61.2371 116.457 61.4433 116.457 61.7182 116.457H63.1615C63.1615 116.045 63.024 115.838 62.7491 115.632C62.4742 115.495 62.1993 115.426 61.7869 115.426C61.512 115.426 61.2371 115.495 61.0309 115.564C60.756 115.701 60.6185 115.838 60.5498 116.045H59.5876C59.6563 115.77 59.7251 115.564 59.9313 115.426C60.0687 115.22 60.2749 115.082 60.4124 114.945C60.6185 114.808 60.8247 114.739 61.0996 114.67C61.5807 114.67 61.7869 114.601 62.0618 114.601Z" fill="black"/>
<path d="M67.079 116.663H69.3471C69.2783 116.32 69.1409 115.976 68.866 115.77C68.5911 115.564 68.2474 115.426 67.9038 115.426C67.6289 115.426 67.354 115.495 67.1478 115.632C66.9416 115.77 66.7354 115.907 66.6667 116.113H65.7045C65.8419 115.632 66.1168 115.289 66.5292 115.014C66.9416 114.739 67.354 114.601 67.9038 114.601C68.2474 114.601 68.5911 114.67 68.866 114.808C69.1409 114.945 69.4158 115.082 69.622 115.289C69.8282 115.495 70.0344 115.77 70.1031 116.045C70.2406 116.32 70.3093 116.663 70.3093 117.007C70.3093 117.351 70.2406 117.694 70.1031 117.969C69.9656 118.244 69.8282 118.519 69.622 118.725C69.4158 118.931 69.1409 119.137 68.866 119.206C68.5911 119.344 68.2474 119.412 67.9038 119.412C67.354 119.412 66.9416 119.275 66.5292 119C66.1168 118.725 65.8419 118.381 65.7045 117.9H66.6667C66.8041 118.107 66.9416 118.244 67.1478 118.381C67.354 118.519 67.6289 118.588 67.9038 118.588C68.3162 118.588 68.5911 118.45 68.866 118.244C69.1409 118.038 69.2783 117.694 69.3471 117.351H67.079V116.663Z" fill="black"/>
<path d="M72.646 117.076C72.646 117.351 72.7148 117.557 72.7835 117.763C72.8522 117.969 72.9897 118.107 73.1271 118.244C73.2646 118.381 73.4021 118.45 73.6083 118.519C73.8144 118.588 74.0206 118.588 74.1581 118.588C74.3643 118.588 74.5704 118.519 74.7766 118.45C74.9828 118.381 75.1203 118.244 75.2577 118.107C75.3952 117.969 75.4639 117.763 75.5326 117.557C75.6014 117.351 75.6701 117.144 75.6701 116.938C75.6701 116.732 75.6014 116.526 75.5326 116.32C75.4639 116.113 75.3265 115.976 75.2577 115.77C75.1203 115.632 74.9828 115.495 74.7766 115.426C74.5704 115.357 74.3643 115.289 74.1581 115.289C73.9519 115.289 73.7457 115.289 73.6083 115.357C73.4021 115.426 73.2646 115.495 73.1271 115.632C72.9897 115.77 72.8522 115.907 72.7835 116.113C72.7148 116.526 72.646 116.801 72.646 117.076ZM71.8213 121.405V114.739H72.7148V115.22C72.921 115.014 73.1271 114.876 73.4021 114.739C73.677 114.601 73.9519 114.601 74.2955 114.601C74.7079 114.601 74.9828 114.67 75.3265 114.808C75.6014 114.945 75.8763 115.151 76.0825 115.357C76.2887 115.564 76.4261 115.838 76.4948 116.113C76.5636 116.388 76.6323 116.732 76.6323 117.007C76.6323 117.351 76.5636 117.625 76.4948 117.9C76.4261 118.175 76.2199 118.45 76.0825 118.656C75.8763 118.863 75.6701 119.069 75.3265 119.206C75.0515 119.344 74.7079 119.412 74.2955 119.412C73.9519 119.412 73.677 119.344 73.4021 119.275C73.1271 119.137 72.921 119 72.7148 118.794V121.337H71.8213V121.405Z" fill="black"/>
<path d="M80.2749 118.725C80.4811 118.725 80.6873 118.656 80.8935 118.588C81.0997 118.519 81.2371 118.381 81.3746 118.244C81.512 118.107 81.6495 117.9 81.7182 117.694C81.7869 117.488 81.8557 117.282 81.8557 117.076C81.8557 116.869 81.7869 116.663 81.7182 116.457C81.6495 116.251 81.512 116.113 81.3746 115.907C81.2371 115.77 81.0997 115.632 80.8935 115.564C80.6873 115.495 80.4811 115.426 80.2749 115.426C80.0687 115.426 79.8625 115.495 79.6564 115.564C79.4502 115.632 79.3127 115.77 79.1753 115.907C79.0378 116.045 78.9003 116.251 78.8316 116.457C78.7629 116.663 78.6942 116.869 78.6942 117.076C78.6942 117.282 78.7629 117.488 78.8316 117.694C78.9003 117.9 79.0378 118.038 79.1753 118.244C79.3127 118.381 79.4502 118.519 79.6564 118.588C79.7938 118.656 80 118.725 80.2749 118.725ZM80.2749 114.601C80.6186 114.601 80.9622 114.67 81.2371 114.808C81.512 114.945 81.7869 115.082 81.9931 115.289C82.1993 115.495 82.4055 115.77 82.4742 116.045C82.6117 116.32 82.6804 116.663 82.6804 117.007C82.6804 117.351 82.6117 117.694 82.4742 117.969C82.3368 118.244 82.1993 118.519 81.9931 118.725C81.7869 118.931 81.512 119.137 81.2371 119.206C80.9622 119.344 80.6186 119.412 80.2749 119.412C79.9313 119.412 79.5876 119.344 79.3127 119.206C79.0378 119.069 78.7629 118.931 78.5567 118.725C78.3505 118.519 78.1443 118.244 78.0756 117.969C77.9381 117.694 77.8694 117.351 77.8694 117.007C77.8694 116.663 77.9381 116.32 78.0756 116.045C78.2131 115.77 78.3505 115.495 78.5567 115.289C78.7629 115.082 79.0378 114.876 79.3127 114.808C79.5876 114.67 79.8625 114.601 80.2749 114.601Z" fill="black"/>
<path d="M88.5223 114.739V119.344H87.6976V115.495H85.0859V119.344H84.1924V114.739H88.5223Z" fill="black"/>
<path d="M92.5086 118.725C92.7148 118.725 92.921 118.656 93.1271 118.588C93.3333 118.519 93.4708 118.381 93.6082 118.244C93.7457 118.107 93.8832 117.9 93.9519 117.694C94.0206 117.488 94.0893 117.282 94.0893 117.076C94.0893 116.869 94.0206 116.663 93.9519 116.457C93.8832 116.251 93.7457 116.113 93.6082 115.907C93.4708 115.77 93.3333 115.632 93.1271 115.564C92.921 115.495 92.7148 115.426 92.5086 115.426C92.3024 115.426 92.0962 115.495 91.89 115.564C91.6838 115.632 91.5464 115.77 91.4089 115.907C91.2715 116.045 91.134 116.251 91.0653 116.457C90.9966 116.663 90.9278 116.869 90.9278 117.076C90.9278 117.282 90.9966 117.488 91.0653 117.694C91.134 117.9 91.2715 118.038 91.4089 118.244C91.5464 118.381 91.6838 118.519 91.89 118.588C92.0962 118.656 92.3024 118.725 92.5086 118.725ZM92.5086 114.601C92.8522 114.601 93.1959 114.67 93.4708 114.808C93.7457 114.945 94.0206 115.082 94.2268 115.289C94.433 115.495 94.6392 115.77 94.7079 116.045C94.8454 116.32 94.9141 116.663 94.9141 117.007C94.9141 117.351 94.8454 117.694 94.7079 117.969C94.5704 118.244 94.433 118.519 94.2268 118.725C94.0206 118.931 93.7457 119.137 93.4708 119.206C93.1959 119.344 92.8522 119.412 92.5086 119.412C92.1649 119.412 91.8213 119.344 91.5464 119.206C91.2715 119.069 90.9966 118.931 90.7904 118.725C90.5842 118.519 90.378 118.244 90.3093 117.969C90.1718 117.694 90.1031 117.351 90.1031 117.007C90.1031 116.663 90.1718 116.32 90.3093 116.045C90.4467 115.77 90.5842 115.495 90.7904 115.289C90.9966 115.082 91.2715 114.876 91.5464 114.808C91.8213 114.67 92.1649 114.601 92.5086 114.601Z" fill="black"/>
<path d="M97.3196 117.076C97.3196 117.351 97.3883 117.557 97.457 117.763C97.5258 117.969 97.6632 118.107 97.8007 118.244C97.9381 118.381 98.0756 118.45 98.2818 118.519C98.488 118.588 98.6942 118.588 98.8316 118.588C99.0378 118.588 99.244 118.519 99.4502 118.45C99.6564 118.381 99.7938 118.244 99.9313 118.107C100.069 117.969 100.137 117.763 100.206 117.557C100.275 117.351 100.344 117.144 100.344 116.938C100.344 116.732 100.275 116.526 100.206 116.32C100.137 116.113 100 115.976 99.9313 115.77C99.7938 115.632 99.6564 115.495 99.4502 115.426C99.244 115.357 99.0378 115.289 98.8316 115.289C98.6254 115.289 98.4192 115.289 98.2818 115.357C98.0756 115.426 97.9381 115.495 97.8007 115.632C97.6632 115.77 97.5258 115.907 97.457 116.113C97.3883 116.526 97.3196 116.801 97.3196 117.076ZM96.4948 121.405V114.739H97.3883V115.22C97.5945 115.014 97.8007 114.876 98.0756 114.739C98.3505 114.601 98.6254 114.601 98.9691 114.601C99.3814 114.601 99.6564 114.67 100 114.808C100.275 114.945 100.55 115.151 100.756 115.357C100.962 115.564 101.1 115.838 101.168 116.113C101.237 116.388 101.306 116.732 101.306 117.007C101.306 117.351 101.237 117.625 101.168 117.9C101.1 118.175 100.893 118.45 100.756 118.656C100.55 118.863 100.344 119.069 100 119.206C99.7251 119.344 99.3814 119.412 98.9691 119.412C98.6254 119.412 98.3505 119.344 98.0756 119.275C97.8007 119.137 97.5945 119 97.3883 118.794V121.337H96.4948V121.405Z" fill="black"/>
<path d="M102.062 114.739H106.529V115.495H104.742V119.344H103.849V115.495H102.062V114.739Z" fill="black"/>
<path d="M67.835 98.1753L62.8179 93.0206V98.1753H60.2062V85.1168H62.8179V90.4089L67.9725 85.1168H71.2027L64.8797 91.646L71.2027 98.1753H67.835Z" fill="black"/>
<path d="M76.1512 90.89H79.8625C81.1684 90.89 81.9931 90.2027 81.9931 89.1718C81.9931 88.1409 81.2371 87.4536 79.8625 87.4536H76.1512V90.89ZM80.0687 93.1581H76.2199V98.1753H73.6082V85.1168H80.0687C83.1615 85.1168 84.6048 86.9725 84.6048 89.1718C84.6048 91.3024 83.1615 93.1581 80.0687 93.1581Z" fill="black"/>
<path d="M89.6907 93.0206H93.6082L91.6838 88.5533L89.6907 93.0206ZM98.6254 98.1753H95.8763L94.5704 95.2887H88.6598L87.3539 98.1753H84.7423L90.4467 85.0481H92.9897L98.6254 98.1753Z" fill="black"/>
<path d="M112.302 88.7595H109.553C108.866 87.866 107.698 87.1787 106.392 87.1787C103.986 87.1787 102.199 89.1031 102.199 91.6461C102.199 94.189 103.986 96.1134 106.392 96.1134C107.698 96.1134 108.866 95.4948 109.553 94.5326H112.302C111.271 96.8694 109.21 98.4502 106.392 98.4502C102.543 98.4502 99.6564 95.5636 99.6564 91.6461C99.6564 87.7285 102.543 84.8419 106.392 84.8419C109.141 84.8419 111.203 86.4227 112.302 88.7595Z" fill="black"/>
<path d="M123.849 98.1753V92.8144H117.526V98.1753H114.914V85.1168H117.526V90.4777H123.849V85.1168H126.46V98.1753H123.849Z" fill="black"/>
<path d="M140.275 91.6461C140.275 89.1718 138.488 87.1787 136.082 87.1787C133.677 87.1787 131.89 89.1718 131.89 91.6461C131.89 94.1203 133.677 96.1134 136.082 96.1134C138.488 96.1134 140.275 94.1203 140.275 91.6461ZM129.278 91.6461C129.278 87.866 132.027 84.8419 136.082 84.8419C140.069 84.8419 142.887 87.866 142.887 91.6461C142.887 95.4261 140.137 98.4502 136.082 98.4502C132.027 98.4502 129.278 95.4261 129.278 91.6461Z" fill="black"/>
<path d="M153.677 87.3849H149.966C148.66 87.3849 147.835 88.0722 147.835 89.1031C147.835 90.134 148.591 90.8213 149.966 90.8213H153.677V87.3849ZM149.828 85.1168H156.289V98.244H153.677V93.2268L148.179 98.244H144.605L150.103 93.2268H149.828C146.735 93.2268 145.292 91.3711 145.292 89.1718C145.292 86.9725 146.735 85.1168 149.828 85.1168Z" fill="black"/>
<path d="M162.474 90.89H166.186C167.491 90.89 168.316 90.2027 168.316 89.1718C168.316 88.1409 167.56 87.4536 166.186 87.4536H162.474V90.89ZM166.323 93.1581H162.474V98.1753H159.863V85.1168H166.323C169.416 85.1168 170.859 86.9725 170.859 89.1718C170.859 91.3024 169.416 93.1581 166.323 93.1581Z" fill="black"/>
<path d="M185.773 88.7595H183.024C182.337 87.866 181.168 87.1787 179.863 87.1787C177.457 87.1787 175.67 89.1031 175.67 91.6461C175.67 94.189 177.457 96.1134 179.863 96.1134C181.168 96.1134 182.337 95.4948 183.024 94.5326H185.773C184.742 96.8694 182.68 98.4502 179.863 98.4502C176.014 98.4502 173.127 95.5636 173.127 91.6461C173.127 87.7285 176.014 84.8419 179.863 84.8419C182.68 84.8419 184.742 86.4227 185.773 88.7595Z" fill="black"/>
<path d="M196.082 98.1753L191.065 93.0206V98.1753H188.454V85.1168H191.065V90.4089L196.22 85.1168H199.45L193.127 91.646L199.45 98.1753H196.082Z" fill="black"/>
<path d="M47.1282 86.2957L43.2107 82.3782C41.4238 84.1651 39.4306 85.6771 37.3688 86.8455C38.3997 88.3575 39.1557 90.0758 39.6368 91.9314C42.3172 90.4881 44.8602 88.5637 47.1282 86.2957Z" fill="#86CCE8"/>
<path d="M23.6231 79.4916C17.7812 79.4916 12.764 82.5156 9.87738 86.9143C11.5269 87.8764 13.2451 88.6325 15.032 89.1823C17.0252 86.7081 20.1179 85.0586 23.6231 85.0586C27.1282 85.0586 30.221 86.7081 32.2142 89.1823C33.3825 90.6256 34.1385 92.4125 34.4822 94.2682C34.5509 94.8868 34.6196 95.4366 34.6196 96.0551C34.6196 99.4916 33.3825 101.897 28.5715 106.708C26.5784 108.701 23.5544 111.725 23.5544 111.725C23.5544 111.725 20.5303 108.701 18.5372 106.708C13.7949 101.897 12.4891 99.5603 12.4891 96.0551C12.4891 95.4366 12.5578 94.818 12.6265 94.2682C10.8396 93.6496 9.12137 92.8936 7.47189 92.0002C7.12824 93.306 6.92206 94.6806 6.92206 96.1239C6.92206 101.347 8.84646 104.921 15.9942 112.138C18.9495 115.162 23.4856 119.629 23.4856 119.629C23.4856 119.629 28.0217 115.093 30.977 112.138C38.1248 104.99 40.0492 101.347 40.0492 96.1239C40.0492 94.6806 39.843 93.306 39.4994 92.0002C39.0183 90.2132 38.2623 88.495 37.2313 86.9143C34.4135 82.5156 29.465 79.4916 23.6231 79.4916Z" fill="#00AA4C"/>
<path d="M23.6231 96.0551C27.3344 96.0551 30.977 95.4366 34.4822 94.2682C34.1385 92.4125 33.3825 90.6256 32.2141 89.1823C29.465 90.0758 26.5784 90.5569 23.6231 90.5569C20.6677 90.5569 17.7812 90.0758 15.032 89.1823C13.2451 88.6325 11.5269 87.8077 9.87737 86.9143C7.74679 85.6771 5.75366 84.1651 4.03545 82.4469L0.0491943 86.2957C2.31724 88.5637 4.86019 90.4881 7.5406 91.9314C9.19009 92.8249 10.9083 93.6496 12.6952 94.1995C16.2691 95.4366 19.9117 96.0551 23.6231 96.0551Z" fill="#86CCE8"/>
</g>
<defs>
<clipPath id="clip0_6463_595">
<rect width="200" height="42.6117" fill="white" transform="translate(0 79)"/>
</clipPath>
</defs>
</svg>
