<svg width="200" height="200" viewBox="0 0 200 200" fill="none" xmlns="http://www.w3.org/2000/svg">
<g clip-path="url(#clip0_1_13)">
<path d="M83.8219 121.84C82.7299 121.84 81.4402 121.643 80.0496 121.151V115.738C80.5458 115.935 81.0421 116.033 81.4886 116.033C85.2609 116.033 86.1042 108.307 86.5507 97.7272H105.906V121.348H99.0081V103.141H92.9038C92.2085 113.77 90.3728 121.841 83.8219 121.841V121.84Z" fill="#ED7518"/>
<path d="M112.258 121.84C111.166 121.84 109.876 121.643 108.485 121.151V115.738C108.982 115.935 109.478 116.033 109.924 116.033C113.697 116.033 114.54 108.307 114.987 97.7272H134.342V121.348H127.444V103.141H121.34C120.644 113.77 118.809 121.841 112.258 121.841V121.84Z" fill="#ED7518"/>
<path d="M150.125 97.0391C160.002 97.0391 163.178 104.765 161.59 111.752H144.814C145.608 115.197 149.281 116.624 153.202 116.624C155.932 116.624 158.364 116.082 160.399 115.197V120.561C158.165 121.496 155.237 122.037 151.664 122.037C144.12 122.037 137.867 117.756 137.867 109.538C137.867 100.63 144.766 97.0391 150.125 97.0391ZM150.374 102.256C147.446 102.256 144.865 104.076 144.766 107.324H155.386C155.635 105.7 154.691 102.256 150.374 102.256Z" fill="#ED7518"/>
<path d="M163.178 121.348L169.432 113.426C166.206 112.048 164.568 109.194 164.568 105.995C164.568 101.566 167.844 97.7272 174.097 97.7272H187.001V121.348H180.102V114.311H176.232L170.921 121.348H163.178ZM175.487 109.194H180.102V103.141H175.487C173.005 103.141 171.566 104.224 171.566 106.192C171.566 108.16 173.005 109.194 175.487 109.194Z" fill="#ED7518"/>
<path d="M60.5332 93.9168C60.2072 97.3221 58.725 107.813 51.7852 115.638C49.4166 118.31 46.6302 120.128 43.8137 121.349H60.2046L64.8385 129.001H80.6467L60.5345 93.9168H60.5332Z" fill="#009942"/>
<path d="M28.6628 120.938C31.6797 113.486 37.2511 108.372 49.5423 105.336C37.0625 106.622 29.9788 111.78 26.5102 121C27.4818 112.182 29.5768 104.648 44.8599 100.56C55.1556 97.8051 59.0104 94.5412 60.1849 93.3066L46.8227 70L13 129H26.8205C27.0274 126.702 27.8078 123.053 28.6642 120.938H28.6628Z" fill="#009942"/>
</g>
<defs>
<clipPath id="clip0_1_13">
<rect width="174" height="59" fill="white" transform="translate(13 70)"/>
</clipPath>
</defs>
</svg>
