<svg width="200" height="200" viewBox="0 0 200 200" fill="none" xmlns="http://www.w3.org/2000/svg">
<g clip-path="url(#clip0_6463_854)">
<path d="M26.883 108.848C26.883 107.361 28.7626 105.519 32.688 105.519C32.9227 105.519 33.1574 105.519 33.3887 105.542C33.0874 108.403 30.8295 110.36 28.6224 110.36C27.5644 110.36 26.883 109.864 26.883 108.848ZM19.2685 93.2159H19.3158L18.0895 104.504C16.7655 104.106 15.4143 103.806 14.0467 103.606L19.2685 93.2159ZM10.7623 103.37C7.84926 103.37 4.79433 104.103 3.21958 105.849C2.33989 104.177 1.89519 102.309 1.92685 100.419C1.92685 95.3879 5.19372 90.7129 11.4682 87.7452L10.6694 86.0449C3.31417 89.3927 0 94.9162 0 100.419C0 103.017 0.611335 105.523 2.23164 107.903C2.18474 108.168 2.16129 108.438 2.16157 108.707C2.16157 110.714 3.40701 112.154 5.99248 112.154C8.69532 112.154 10.997 110.288 12.3843 106.606H10.3629C9.35216 109.061 7.70737 110.339 5.99248 110.339C4.65245 110.339 4.06564 109.725 4.06564 108.711C4.06564 106.963 6.17991 105.19 10.7868 105.19C13.2036 105.198 15.6048 105.581 17.9056 106.324L17.5781 109.417H19.4576L21.2198 92.7688C22.3015 92.5385 23.4038 92.4205 24.5094 92.4167C28.6452 92.4167 29.7732 93.8812 29.7732 95.4636C29.7732 97.5653 28.0583 99.0279 23.9454 99.5014L24.5567 93.8108L22.6772 93.8812L21.0323 109.418H22.9119L23.7335 101.556C25.1343 101.175 26.576 100.967 28.0268 100.938C30.7997 100.938 32.6811 102.071 33.245 103.754C33.0576 103.735 32.8693 103.727 32.6811 103.731C27.3454 103.731 24.9737 106.47 24.9737 108.88C24.9737 111.004 26.5501 112.185 28.5926 112.185C31.5705 112.185 34.797 109.776 35.249 105.833C36.6092 106.152 37.9101 106.687 39.1026 107.417C35.8831 112.21 29.3738 115.35 21.5719 115.35C17.741 115.35 12.9484 114.525 9.77612 112.328L8.78816 113.912C11.9149 116.179 16.9195 117.242 21.5754 117.242C34.2418 117.242 43.1718 109.732 43.1718 100.452C43.1718 90.7006 33.4657 83.6634 21.5999 83.6634C20.8712 83.6634 20.3544 83.6862 19.6485 83.7338L19.8359 85.5996C20.4 85.5767 21.0114 85.552 21.5754 85.552C32.173 85.552 41.2449 91.9749 41.2449 100.452C41.2493 102.317 40.83 104.159 40.0188 105.836C38.8206 105.057 37.0812 104.349 35.2245 103.995C34.8251 101.728 32.97 99.7919 29.3738 99.4188C30.0788 99.0281 30.6668 98.455 31.0767 97.7589C31.4867 97.0627 31.7038 96.269 31.7054 95.4601C31.7054 92.5558 29.6611 90.595 24.5147 90.595C23.4835 90.5975 22.4542 90.6846 21.437 90.8554L21.6419 88.8647L19.7396 88.3454L18.0948 91.6106C15.4393 92.385 12.8538 93.5239 11.3263 94.3969L12.1724 96.0269C13.7158 95.2307 15.3091 94.5363 16.9422 93.9481L12.1969 103.418C11.7029 103.393 11.2317 103.37 10.7623 103.37ZM18.1193 86.4867C18.1193 84.4326 15.7931 82.5897 13.2146 82C12.9559 83.0597 12.8126 84.1444 12.7872 85.2352C12.7872 88.1166 14.2674 88.965 15.6547 88.965C17.1314 88.965 18.1176 87.974 18.1176 86.4867H18.1193Z" fill="#63C634"/>
<path d="M57.5869 95.6368C55.8512 95.6368 54.8595 96.5081 54.6613 97.8028H52.1804C52.5781 94.9158 54.5117 93.3964 57.5869 93.3964C60.9356 93.3964 62.7453 95.0889 62.7453 98.5467V106.092H60.2658V103.108C59.646 104.925 58.3322 106.344 55.7771 106.344C53.4458 106.344 51.9824 105.099 51.9824 102.857C51.9824 100.019 54.5872 98.501 60.2658 98.501V98.3006C60.2658 96.5081 59.274 95.6368 57.5869 95.6368ZM56.3471 104.202C58.9021 104.202 60.2658 102.435 60.2658 100.294C56.1733 100.294 54.5872 101.239 54.5872 102.726C54.5872 103.68 55.257 104.202 56.3471 104.202ZM64.8785 102.012H67.4577C67.7556 103.299 68.5977 104.103 70.4844 104.103C72.7159 104.103 73.2859 103.307 73.2859 102.41C73.2859 101.563 72.6418 100.916 70.9304 100.916H68.8471V98.7999H70.5571C72.3169 98.7999 72.8884 98.2019 72.8884 97.3049C72.8884 96.3836 72.1189 95.6368 70.4574 95.6368C68.5977 95.6368 67.928 96.5839 67.7042 97.604H65.125C65.3744 95.0402 67.3594 93.3964 70.5043 93.3964C73.977 93.3964 75.4918 95.0144 75.4918 96.9072C75.4918 98.1762 74.7237 99.2477 73.3101 99.6255C74.8961 99.9745 75.8893 101.095 75.8893 102.487C75.8893 104.504 74.3019 106.349 70.483 106.349C66.8635 106.344 65.1264 104.575 64.8785 102.012ZM78.9659 103.53C78.1465 102.261 77.8744 100.567 77.8744 98.4251C77.8744 92.4007 80.0574 89.8112 85.2644 89.1889C86.9515 88.9886 87.8436 88.7897 88.0174 88.1674H90.3489C89.9524 90.5322 88.2115 91.0558 85.6619 91.3792C81.4454 91.9271 80.3538 93.4951 80.2555 97.2062C81.0735 95.2634 82.983 93.9158 85.3143 93.9158C88.837 93.9158 90.9938 96.7055 90.9938 100.116C90.9938 103.577 88.3648 106.341 84.4222 106.341C81.8914 106.344 79.9335 105.073 78.9659 103.53ZM88.3894 100.119C88.3894 97.8299 86.7535 96.1604 84.4222 96.1604C82.1152 96.1604 80.4793 97.8285 80.4793 100.119C80.4793 102.46 82.1166 104.103 84.4236 104.103C86.7492 104.103 88.3894 102.464 88.3894 100.119ZM92.8766 111.075V108.833C95.4802 108.833 95.9762 108.361 96.77 106.145L91.7621 93.6454H94.4167L98.1119 102.933L101.757 93.6454H104.162L98.9057 106.741C97.5665 110.104 96.5991 111.075 92.8766 111.075ZM105.626 93.6454H108.107V99.2477L113.539 93.6454H116.515L110.76 99.5711L116.984 106.095H113.637L108.107 100.243V106.095H105.626V93.6454ZM123.137 95.6368C121.399 95.6368 120.407 96.5081 120.21 97.8028H117.73C118.126 94.9158 120.061 93.3964 123.137 93.3964C126.484 93.3964 128.294 95.0889 128.294 98.5467V106.092H125.814V103.108C125.194 104.925 123.88 106.344 121.325 106.344C118.994 106.344 117.53 105.099 117.53 102.857C117.53 100.019 120.135 98.501 125.814 98.501V98.3006C125.814 96.5081 124.822 95.6368 123.137 95.6368ZM121.895 104.202C124.45 104.202 125.814 102.435 125.814 100.294C121.722 100.294 120.135 101.239 120.135 102.726C120.135 103.68 120.806 104.202 121.895 104.202ZM137.892 93.6454H143.496C146.249 93.6454 147.763 94.8156 147.763 96.8815C147.763 98.1691 146.969 99.2721 145.381 99.6955C147.193 99.9945 148.308 100.94 148.308 102.607C148.308 104.301 147.217 106.093 143.82 106.093H137.892V93.6454ZM145.208 97.3049C145.208 96.4336 144.662 95.7612 143.373 95.7612H140.329V98.8243H143.378C144.662 98.8243 145.208 98.1519 145.208 97.3049ZM140.329 100.816V103.979H143.676C145.165 103.979 145.709 103.264 145.709 102.359C145.709 101.563 145.165 100.816 143.552 100.816H140.329ZM150.744 93.6454H153.225V99.2477L158.656 93.6454H161.633L155.878 99.5711L162.104 106.095H158.755L153.225 100.243V106.095H150.744V93.6454ZM163.194 111.075V108.833C165.799 108.833 166.295 108.361 167.088 106.145L162.078 93.6454H164.731L168.428 102.933L172.073 93.6454H174.478L169.222 106.741C167.877 110.104 166.909 111.075 163.189 111.075H163.194ZM184.996 101.49H187.476C186.88 104.653 184.722 106.345 181.574 106.345C177.726 106.345 175.125 103.484 175.125 99.8715C175.125 96.2863 177.729 93.3978 181.523 93.3978C184.801 93.3978 186.906 95.2148 187.376 98.129H184.897C184.425 96.5352 183.359 95.6382 181.523 95.6382C179.244 95.6382 177.729 97.3321 177.729 99.8715C177.729 102.437 179.296 104.105 181.523 104.105C183.352 104.103 184.542 103.232 184.989 101.488L184.996 101.49ZM194.841 95.6382C193.106 95.6382 192.115 96.5095 191.915 97.8042H189.435C189.832 94.9172 191.767 93.3978 194.841 93.3978C198.19 93.3978 200 95.0903 200 98.5482V106.093H197.521V103.108C196.9 104.925 195.585 106.344 193.032 106.344C190.7 106.344 189.237 105.099 189.237 102.857C189.237 100.019 191.841 98.501 197.521 98.501V98.3006C197.514 96.5081 196.522 95.6368 194.834 95.6368L194.841 95.6382ZM193.602 104.204C196.157 104.204 197.521 102.437 197.521 100.295C193.428 100.295 191.841 101.241 191.841 102.727C191.833 103.68 192.503 104.202 193.595 104.202L193.602 104.204Z" fill="#124F2E"/>
</g>
<defs>
<clipPath id="clip0_6463_854">
<rect width="200" height="35.2423" fill="white" transform="translate(0 82)"/>
</clipPath>
</defs>
</svg>
