<svg width="200" height="200" viewBox="0 0 200 200" fill="none" xmlns="http://www.w3.org/2000/svg">
<g clip-path="url(#clip0_76_6)">
<path d="M53.1045 52.6769C53.0045 44.0778 54.4044 33.6788 56.4042 23.4797C56.9042 21.18 57.7041 20.68 60.0039 21.18C64.4034 22.1799 68.803 22.8798 73.3026 23.4797C75.4024 23.7797 75.6024 24.4797 75.2024 26.4795C72.5027 39.3782 70.9028 52.377 72.5027 65.5757C74.0025 77.7745 78.8021 88.0735 89.2011 95.0729C98.1002 101.072 112.799 99.8724 121.298 92.4731C129.097 85.7738 131.997 73.5749 127.797 64.2758C122.598 52.577 108.799 49.2773 98.8001 57.1765C97.8947 57.8977 97.0579 58.701 96.3004 59.5763C91.2009 64.7758 91.2009 64.7758 85.8014 60.2762C84.7015 59.3763 83.7016 58.4764 82.6017 57.5765C76.8022 52.7769 76.9022 52.8769 82.1017 47.1775C100.6 27.1794 129.297 31.679 142.096 50.9771C154.395 69.4753 149.295 95.6728 131.197 108.772C107.999 125.67 75.3024 117.971 61.7037 92.3731C55.0043 79.9743 53.1045 71.3752 53.1045 52.6769Z" fill="#035FFE"/>
<path d="M4.70913 148.568C11.0085 144.668 16.408 144.968 20.0077 149.168C23.6073 153.367 23.6073 160.466 20.1077 164.866C18.3129 167.001 15.8095 168.419 13.0553 168.859C10.3012 169.3 7.48039 168.734 5.10909 167.266C3.56899 166.418 2.28386 165.174 1.38714 163.661C0.49041 162.149 0.0147663 160.425 0.00958252 158.667C0.00958252 152.067 0.109573 145.468 0.00958252 138.969C0.00958252 136.969 0.809506 136.069 2.70932 136.069C4.60914 136.069 4.80912 137.369 4.80912 138.969C4.70913 141.968 4.70913 145.068 4.70913 148.568ZM4.70913 157.267C4.70913 161.966 7.30888 165.166 11.3085 165.166C15.1081 165.166 17.7079 162.066 17.8079 157.567C17.9079 152.767 15.4081 149.668 11.4085 149.568C7.40887 149.468 4.80912 152.467 4.70913 157.267Z" fill="#035FFE"/>
<path d="M182.192 166.666V175.565C182.192 177.465 181.992 178.865 179.592 178.965C177.193 179.065 177.493 177.265 177.493 175.765C177.493 169.466 177.393 163.166 177.493 156.867C177.476 155.414 177.753 153.973 178.307 152.63C178.862 151.287 179.682 150.07 180.719 149.051C181.755 148.033 182.987 147.236 184.34 146.706C185.693 146.176 187.139 145.925 188.592 145.968C191.543 145.922 194.393 147.04 196.526 149.08C198.66 151.119 199.904 153.917 199.99 156.867V157.167C200.19 167.666 192.591 172.066 182.192 166.666ZM195.291 157.567C195.291 152.967 192.391 149.568 188.691 149.668C184.992 149.768 182.292 152.867 182.192 157.367C182.192 162.467 184.392 165.266 188.592 165.266C192.791 165.266 195.291 162.367 195.291 157.567Z" fill="#035FFE"/>
<path d="M133.597 159.667C135.397 164.866 138.896 166.366 144.896 164.966C146.396 164.666 147.895 163.466 148.495 165.966C148.995 168.066 147.095 168.166 145.896 168.566C140.196 170.366 133.797 168.966 130.897 165.366C127.697 161.266 127.597 155.367 130.597 150.567C133.997 145.068 142.696 143.868 147.495 147.968C150.195 150.267 150.495 153.367 149.695 156.367C148.895 159.367 146.096 159.567 143.396 159.667C140.296 159.767 137.096 159.667 133.597 159.667ZM138.596 156.467H142.096C143.696 156.467 145.296 156.267 145.796 154.367C145.96 153.606 145.884 152.814 145.58 152.098C145.276 151.382 144.757 150.777 144.096 150.367C141.296 148.268 138.596 148.568 135.997 150.767C134.397 152.067 133.097 153.867 133.797 155.767C134.297 157.367 136.496 156.267 137.896 156.567C138.12 156.485 138.359 156.451 138.596 156.467Z" fill="#035FFE"/>
<path d="M71.7027 159.667C70.5028 159.667 69.4029 159.567 68.203 159.667C67.3031 159.767 65.9033 159.067 65.5033 160.367C65.3723 161.005 65.4469 161.668 65.7164 162.261C65.9859 162.853 66.4364 163.346 67.0032 163.666C70.2029 166.066 73.7025 165.866 77.3022 164.666C78.702 164.166 79.402 164.266 80.0019 165.666C80.6019 167.066 79.8019 167.666 78.6021 168.266C73.8025 170.566 66.5032 169.566 63.0036 166.066C59.8039 162.966 59.1039 156.367 61.5037 151.667C63.7035 147.368 67.5031 145.468 72.3027 145.668C76.0023 145.768 79.202 146.868 80.9018 150.468C83.4016 155.667 80.9018 159.667 75.1024 159.767C74.0025 159.767 72.8026 159.667 71.7027 159.667ZM70.3029 156.467H73.0026C74.8024 156.367 76.9022 156.767 77.2022 154.267C77.5022 151.767 76.2023 150.168 73.8025 149.368C71.4027 148.568 69.3029 149.368 67.4031 150.868C65.9033 152.067 64.8034 153.867 65.2033 155.567C65.6033 157.467 67.8031 156.167 69.203 156.467H70.3029Z" fill="#035FFE"/>
<path d="M164.594 159.667C163.394 159.667 162.294 159.567 161.094 159.667C160.194 159.767 158.794 159.067 158.394 160.267C157.994 161.467 158.894 162.467 159.694 163.266C162.694 166.066 166.294 165.766 169.893 164.866C171.193 164.566 172.393 163.866 172.993 165.666C173.593 167.466 172.293 168.166 170.793 168.566C165.494 170.066 160.194 170.166 155.995 165.966C152.395 162.467 152.495 157.867 153.795 153.367C155.895 145.968 166.394 142.868 172.093 147.968C173.307 148.952 174.181 150.291 174.594 151.798C175.006 153.304 174.936 154.902 174.393 156.367C173.493 159.267 170.793 159.767 168.093 159.667H164.594ZM163.294 156.467H165.994C167.793 156.467 169.793 156.667 169.993 154.067C170.137 153.041 169.901 151.998 169.33 151.132C168.76 150.267 167.893 149.64 166.894 149.368C166.053 149.039 165.148 148.904 164.248 148.973C163.348 149.043 162.475 149.314 161.694 149.768C159.494 151.068 157.394 153.067 157.894 155.467C158.294 157.567 161.194 156.067 162.894 156.467H163.294Z" fill="#035FFE"/>
<path d="M105.499 145.668C108.339 145.507 111.161 146.204 113.599 147.668C114.599 148.268 115.399 149.168 114.599 150.568C113.799 151.968 112.899 151.568 111.799 150.868C109.204 149.352 106.127 148.887 103.2 149.568C101.7 149.868 100.4 150.468 100.3 152.168C100.1 154.067 101.6 154.467 103 154.767C105.499 155.267 108.099 155.467 110.599 156.167C113.599 156.967 116.098 158.467 116.098 162.167C116.098 165.866 113.999 167.966 110.799 168.866C106.418 170.091 101.746 169.737 97.6002 167.866C96.2004 167.366 95.4005 166.566 96.2004 164.966C97.0003 163.366 97.9002 163.866 99.0001 164.366C102.1 165.666 105.3 166.466 108.799 165.466C110.099 165.066 111.199 164.466 111.299 162.967C111.399 161.467 110.199 160.767 108.899 160.467C106.799 159.967 104.6 159.667 102.5 159.167C97.4003 158.067 95.6004 156.167 95.8004 152.268C96.1004 148.668 98.8001 146.368 103.3 145.968C104.004 145.715 104.753 145.613 105.499 145.668Z" fill="#035FFE"/>
<path d="M56.5042 154.867V158.667C56.4042 165.166 52.6046 169.066 46.3052 169.166C40.0058 169.266 35.8062 165.166 35.7062 158.567V149.668C35.7062 147.768 36.1061 146.368 38.3059 146.268C40.7057 146.168 40.4057 147.868 40.4057 149.468C40.4057 152.568 40.3057 155.667 40.4057 158.767C40.6057 162.967 42.6055 165.066 46.1052 165.066C49.6048 165.066 51.6047 162.867 51.7046 158.667C51.8046 155.567 51.8046 152.468 51.7046 149.368C51.7046 147.568 52.2046 146.368 54.2044 146.268C56.6042 146.168 56.4042 147.768 56.4042 149.368C56.5042 151.268 56.5042 153.067 56.5042 154.867Z" fill="#035FFE"/>
<path d="M119.898 152.467C119.898 148.068 119.998 143.768 119.898 139.369C119.898 137.369 120.398 136.069 122.598 135.969C124.798 135.869 124.798 137.569 124.798 139.169V165.366C124.798 167.166 124.698 168.766 122.298 168.866C119.698 168.966 119.898 167.266 119.998 165.466C119.898 161.267 119.898 156.867 119.898 152.467Z" fill="#035FFE"/>
<path d="M26.4071 152.367C26.4071 147.968 26.5071 143.668 26.4071 139.269C26.4071 137.269 26.907 135.969 29.1068 136.069C31.3066 136.169 31.0066 137.669 31.0066 139.069V165.666C31.0066 167.466 30.9066 169.066 28.5069 169.066C26.1071 169.066 26.4071 167.466 26.4071 165.866V152.367Z" fill="#035FFE"/>
</g>
<defs>
<clipPath id="clip0_76_6">
<rect width="200" height="157.965" fill="white" transform="translate(0 21)"/>
</clipPath>
</defs>
</svg>
