<?xml version="1.0" encoding="utf-8"?>
<!-- Generator: Adobe Illustrator 23.1.1, SVG Export Plug-In . SVG Version: 6.00 Build 0)  -->
<svg version="1.1" id="Слой_1" xmlns="http://www.w3.org/2000/svg" xmlns:xlink="http://www.w3.org/1999/xlink" x="0px" y="0px"
	 viewBox="0 0 200 200" style="enable-background:new 0 0 200 200;" xml:space="preserve">
<style type="text/css">
	.st0{fill:#035FFE;}
</style>
<title>Безымянный-3</title>
<path class="st0" d="M53.1,53.2c-0.1-8.6,1.3-19,3.3-29.2c0.5-2.3,1.3-2.8,3.6-2.3c4.4,1,8.8,1.7,13.3,2.3c2.1,0.3,2.3,1,1.9,3
	c-2.7,12.9-4.3,25.9-2.7,39.1c1.5,12.2,6.3,22.5,16.7,29.5c8.9,6,23.6,4.8,32.1-2.6c7.8-6.7,10.7-18.9,6.5-28.2
	c-5.2-11.7-19-15-29-7.1c-0.9,0.7-1.7,1.5-2.5,2.4c-5.1,5.2-5.1,5.2-10.5,0.7c-1.1-0.9-2.1-1.8-3.2-2.7c-5.8-4.8-5.7-4.7-0.5-10.4
	c18.5-20,47.2-15.5,60,3.8c12.3,18.5,7.2,44.7-10.9,57.8c-23.2,16.9-55.9,9.2-69.5-16.4C55,80.5,53.1,71.9,53.1,53.2z"/>
<path class="st0" d="M4.7,149.1c6.3-3.9,11.7-3.6,15.3,0.6c3.7,4.2,3.6,11.3,0.1,15.7c-3.6,4.4-9.9,5.4-15,2.4
	c-3.1-1.7-5.1-5-5.1-8.6C0,152.6,0.1,146,0,139.5c0-2,0.8-2.9,2.7-2.9c2,0,2.1,1.3,2.1,2.9C4.7,142.5,4.7,145.6,4.7,149.1z
	 M4.7,157.8c0,4.7,2.6,7.9,6.6,7.9c3.8,0,6.4-3.1,6.5-7.6c0.1-4.8-2.4-7.9-6.4-8C7.4,150,4.8,153,4.7,157.8L4.7,157.8z"/>
<path class="st0" d="M182.2,167.2c0,3.2,0,6.1,0,8.9c0,1.9-0.2,3.3-2.6,3.4c-2.5,0.1-2.1-1.7-2.1-3.2c0-6.3-0.1-12.6,0-18.9
	c0.1-6.3,4.8-10.9,11.1-10.9c6.1-0.1,11.2,4.7,11.4,10.9c0,0.1,0,0.2,0,0.3C200.2,168.2,192.6,172.6,182.2,167.2z M195.3,158.1
	c0-4.6-2.9-8-6.6-7.9c-3.8,0.1-6.4,3.2-6.5,7.7c0,5.1,2.2,7.9,6.4,7.9C192.7,165.8,195.3,162.9,195.3,158.1L195.3,158.1z"/>
<path class="st0" d="M133.6,160.2c1.8,5.2,5.3,6.7,11.3,5.3c1.5-0.3,3-1.5,3.6,1c0.5,2.1-1.4,2.2-2.6,2.6c-5.7,1.8-12.1,0.4-15-3.2
	c-3.2-4.1-3.3-10-0.3-14.8c3.4-5.5,12.1-6.7,16.9-2.6c2.7,2.3,3,5.4,2.2,8.4s-3.6,3.2-6.3,3.3C140.3,160.3,137.1,160.2,133.6,160.2z
	 M138.6,157c1.2,0,2.3,0,3.5,0c1.6,0,3.2-0.2,3.7-2.1c0.4-1.6-0.4-3.1-1.7-4c-2.8-2.1-5.5-1.8-8.1,0.4c-1.6,1.3-2.9,3.1-2.2,5
	c0.5,1.6,2.7,0.5,4.1,0.8C138.1,157,138.4,157,138.6,157z"/>
<path class="st0" d="M71.7,160.2c-1.2,0-2.3-0.1-3.5,0c-0.9,0.1-2.3-0.6-2.7,0.7c-0.4,1.3,0.4,2.5,1.5,3.3c3.2,2.4,6.7,2.2,10.3,1
	c1.4-0.5,2.1-0.4,2.7,1c0.6,1.5-0.2,2-1.4,2.6c-4.8,2.3-12.1,1.3-15.6-2.2c-3.2-3.1-3.9-9.7-1.5-14.4c2.2-4.3,6-6.2,10.8-6
	c3.7,0.1,6.9,1.2,8.6,4.8c2.5,5.2,0,9.2-5.8,9.3C74,160.3,72.8,160.2,71.7,160.2z M70.3,157c0.9,0,1.8,0,2.7,0
	c1.8-0.1,3.9,0.3,4.2-2.2c0.3-2.6-1-4.1-3.4-4.9c-2.5-0.8-4.5,0-6.4,1.5c-1.5,1.2-2.6,3-2.2,4.7c0.4,1.9,2.6,0.6,4,0.9
	C69.5,157,69.9,157,70.3,157z"/>
<path class="st0" d="M164.6,160.2c-1.2,0-2.3-0.1-3.5,0c-0.9,0.1-2.3-0.6-2.7,0.6c-0.5,1.2,0.5,2.2,1.3,3c3,2.8,6.6,2.5,10.2,1.6
	c1.3-0.3,2.5-1,3.1,0.8c0.7,1.9-0.7,2.5-2.2,2.9c-5.3,1.5-10.6,1.6-14.8-2.6c-3.6-3.5-3.5-8.1-2.2-12.6c2.1-7.4,12.6-10.5,18.3-5.4
	c2.5,2,3.4,5.4,2.3,8.4c-0.9,2.9-3.6,3.4-6.3,3.3C166.9,160.2,165.7,160.2,164.6,160.2z M163.3,157c0.9,0,1.8,0,2.7,0
	c1.8,0,3.8,0.2,4-2.4c0.2-2.3-0.9-3.9-3.1-4.7c-1.7-0.7-3.6-0.5-5.2,0.4c-2.2,1.3-4.3,3.3-3.8,5.7c0.4,2.1,3.3,0.6,5,1
	C163.1,157,163.2,157,163.3,157z"/>
<path class="st0" d="M105.5,146.2c2.9,0,5.7,0.4,8.1,2c1,0.6,1.8,1.5,1,2.9c-0.8,1.4-1.7,1-2.8,0.3c-2.7-1.6-5.6-1.9-8.6-1.3
	c-1.5,0.3-2.8,0.9-2.9,2.6c-0.2,1.9,1.3,2.3,2.7,2.6c2.5,0.5,5.1,0.7,7.6,1.4c3,0.8,5.5,2.3,5.5,6c0,3.7-2.1,5.8-5.3,6.7
	c-4.5,1.3-8.9,0.8-13.2-1c-1.4-0.5-2.2-1.3-1.4-2.9c0.7-1.6,1.7-1.1,2.8-0.6c3.1,1.3,6.3,2.1,9.8,1.1c1.3-0.4,2.4-1,2.5-2.5
	c0.1-1.6-1.1-2.2-2.4-2.5c-2.1-0.5-4.3-0.8-6.4-1.3c-5.1-1.1-6.9-3-6.7-6.9c0.3-3.6,3-5.9,7.5-6.3
	C104,146.2,104.7,146.2,105.5,146.2z"/>
<path class="st0" d="M56.5,155.4c0,1.3,0,2.6,0,3.8c-0.1,6.5-3.9,10.4-10.2,10.5c-6.4,0.1-10.5-4-10.6-10.6c0-3,0-5.9,0-8.9
	c0-1.9,0.4-3.3,2.6-3.4c2.4-0.1,2.1,1.6,2.1,3.2c0,3.1-0.1,6.2,0,9.3c0.2,4.2,2.2,6.3,5.7,6.3c3.5,0,5.5-2.2,5.6-6.4
	c0.1-3.1,0.1-6.2,0-9.3c0-1.8,0.5-3,2.5-3.1c2.4-0.1,2.2,1.5,2.2,3.1C56.5,151.8,56.5,153.6,56.5,155.4z"/>
<path class="st0" d="M119.9,153c0-4.4,0.1-8.7,0-13.1c0-2,0.5-3.3,2.7-3.4c2.3-0.1,2.2,1.6,2.2,3.2c0,8.7,0,17.5,0,26.2
	c0,1.8-0.1,3.4-2.5,3.5c-2.6,0.1-2.4-1.6-2.3-3.4C119.9,161.8,119.9,157.4,119.9,153z"/>
<path class="st0" d="M26.4,152.9c0-4.4,0.1-8.7,0-13.1c0-2,0.5-3.3,2.7-3.2c2.2,0.1,1.9,1.6,1.9,3c0,8.9,0,17.7,0,26.6
	c0,1.8-0.1,3.4-2.5,3.4s-2.1-1.6-2.1-3.2C26.4,161.8,26.4,157.4,26.4,152.9z"/>
</svg>
