<svg width="200" height="200" viewBox="0 0 200 200" fill="none" xmlns="http://www.w3.org/2000/svg">
<g clip-path="url(#clip0_6463_377)">
<path d="M39.9062 107.725C40.0813 107.809 40.1281 108.041 39.9937 108.178C39.3188 108.872 38.5594 109.494 37.7438 110.047C35.5156 111.559 33.0406 112.453 30.4062 112.909C28.675 113.206 26.925 113.228 25.2188 113.15C25.1719 113.147 25.125 113.137 25.0875 113.112C24.8781 112.991 24.7719 112.822 24.6656 112.653C24.0531 111.641 23.4094 110.653 22.7688 109.65C22.6125 109.406 22.4062 109.141 22.4062 108.85C22.4094 107.416 22.4094 105.972 22.4062 104.537C22.4062 104.384 22.4719 104.172 22.6375 104.05C23.8219 103.194 25.0281 102.375 26.1969 101.575C26.2469 101.541 26.3094 101.519 26.3688 101.522C26.7438 101.544 27.0188 101.716 27.3 101.847C29.6156 102.916 31.9312 103.991 34.2406 105.072C36.1313 105.953 38.0156 106.841 39.9031 107.725H39.9062Z" fill="#B1CB2C"/>
<path d="M2.40625 93.4031C3.01563 92.2469 5.61562 89.6 7.40938 88.3156C7.4375 88.3156 7.46875 88.3125 7.5 88.3187C7.52812 88.3219 7.56562 88.325 7.5875 88.3406C11.7219 91.2156 15.8562 94.0937 19.9719 96.9594C20.2687 97.1562 20.2687 97.2875 20.2687 98.0937V104.572C20.2687 104.928 19.8906 105.153 19.5719 104.991C19.5375 104.975 19.5031 104.953 19.4656 104.931C18.9219 104.569 18.375 104.212 17.8312 103.847C14.2156 101.425 10.6031 98.9969 6.98438 96.575C5.56562 95.6219 4.14375 94.675 2.71875 93.7281C2.5875 93.6406 2.44688 93.5719 2.40625 93.4031Z" fill="#B1CB2C"/>
<path d="M20.0875 110.066C19.7031 110.947 19.0781 111.616 18.5281 112.287C18.15 112.753 17.6031 113.05 17.0062 113.106C16.7812 113.128 16.5562 113.137 16.3281 113.15C14.6156 113.225 12.9031 113.203 11.2031 112.947C8.83124 112.584 6.61561 111.825 4.69999 110.319C2.86249 108.875 1.56874 107.047 0.784364 104.853C0.762489 104.797 0.759364 104.731 0.743739 104.672C0.715614 104.55 0.796864 104.394 0.906239 104.375C1.05624 104.35 1.21249 104.325 1.36561 104.312C3.25936 104.156 5.15311 104.006 7.04374 103.844C8.31561 103.734 9.58436 103.603 10.8562 103.487C10.9062 103.481 10.9531 103.478 11 103.475C11.5156 103.437 12.025 103.578 12.4469 103.869C13.1844 104.375 19.4625 108.15 19.9 109.012C19.9 109.012 20.4062 109.341 20.0875 110.066Z" fill="#B1CB2C"/>
<path d="M41.8781 105.462C41.8187 105.456 41.75 105.459 41.6969 105.437C37.55 103.594 33.4031 101.75 29.2594 99.9031H29.2562C29.0969 99.8312 29.0531 99.6219 29.175 99.5C29.4156 99.2594 29.7375 99.1312 30.0031 98.9344C30.375 98.6562 30.7656 98.3969 31.15 98.1312C31.5062 97.8812 31.8625 97.6312 32.2219 97.3844C32.6031 97.1187 32.9875 96.8531 33.3687 96.5875C33.7281 96.3375 34.0844 96.0906 34.4437 95.8437C34.8031 95.5937 35.1625 95.35 35.5187 95.1031C35.9031 94.8375 36.2844 94.5656 36.6687 94.3C37.025 94.0531 37.3844 93.8062 37.7437 93.5594C38.1281 93.2937 38.5062 93.0187 38.8937 92.7625C39.2094 92.5562 39.4969 92.2969 39.8437 92.1031C39.9344 92.0531 40.0469 92.0656 40.125 92.1281C40.6562 92.55 41.0344 93.0906 41.425 93.6156C42.2094 94.6781 42.775 95.8531 43.1375 97.1156C43.525 98.475 43.65 99.8656 43.4594 101.272C43.2781 102.609 42.8687 103.875 42.25 105.075C42.1625 105.241 42.0781 105.403 41.8781 105.462Z" fill="#B1CB2C"/>
<path d="M22.4969 100.391C22.4969 97.7812 22.4969 95.1437 22.5 92.5906C22.5 92.5094 22.5188 92.4312 22.5625 92.3656C22.6781 92.1937 22.8125 92.1156 22.9438 92.0375C25.0219 90.7875 27.0969 89.5344 29.175 88.2875C30.0281 87.7719 30.8813 87.2625 31.7344 86.75C31.9688 86.6125 32.2031 86.4781 32.3875 86.3687C32.4438 86.3375 32.5063 86.3187 32.5719 86.3187C32.7938 86.3156 32.9406 86.3875 33.0875 86.4594C33.1813 86.5031 33.2719 86.5562 33.3469 86.6C33.4188 86.6437 33.4781 86.7125 33.5125 86.7937C33.5781 86.9531 33.5563 87.0406 33.5563 87.25C33.5563 87.5875 33.5563 87.9281 33.5563 88.275C33.5563 89.2844 33.5563 90.2562 33.5563 91.3094C33.5563 92.0844 33.5563 92.65 33.5625 93.4219C33.5438 93.6562 32.9875 94.075 32.8031 94.2094C32.55 94.3906 32.3 94.5719 32.0438 94.75C29.1344 96.7719 26.225 98.7937 23.3156 100.816C22.9688 101.056 22.4969 100.809 22.4969 100.391Z" fill="#B1CB2C"/>
<path d="M20.0781 80.2719C20.1687 80.2344 20.2687 80.3094 20.2687 80.4062C20.2687 80.5219 20.2687 80.65 20.2687 80.7031C20.2812 82.3531 20.2594 83.9938 20.2687 85.6438C20.2687 85.8312 20.2594 86.0469 20.2687 86.2344C20.2687 87.1062 20.2687 87.9594 20.2687 88.8094C20.2687 90.4188 20.2687 91.9844 20.2687 93.5625C20.2719 93.7188 20.2594 93.875 20.25 94.0312C20.2375 94.1938 20.0437 94.2625 19.8969 94.1594C19.8719 94.1406 19.8469 94.1188 19.825 94.1C18.8156 93.3188 17.8062 92.5375 16.7969 91.7531C16.75 91.7156 16.7156 91.6594 16.675 91.6125C16.5687 91.4438 16.5969 91.2531 16.5969 91.0688C16.5937 88.3906 16.5937 85.7094 16.5937 83.0312C16.5906 82.9094 16.5937 82.7844 16.5906 82.6594C16.5906 82.425 16.6781 82.2344 16.8844 82.1094C17.8156 81.55 18.75 81.0219 19.7 80.4688C19.7437 80.4438 19.9375 80.3344 20.0781 80.2719Z" fill="#B1CB2C"/>
<path d="M18.65 119.056C18.5594 119.016 18.5188 118.922 18.5156 118.869C18.5156 117.55 18.5156 116.225 18.525 114.881C18.525 114.791 18.5562 114.7 18.6156 114.631C19.5281 113.547 20.4312 112.544 21.35 111.45C21.4406 111.337 21.4938 111.334 21.575 111.441C22.3375 112.462 23.1125 113.528 23.8781 114.55C24.0156 114.731 24.1031 114.922 24.1031 115.147C24.1031 116.328 24.1031 117.484 24.1031 118.666C24.1031 118.919 23.9344 119.072 23.6687 119.094C23.6375 119.097 23.6062 119.1 23.575 119.1C23.5125 119.103 23.4531 119.106 23.3906 119.106C22.0188 119.109 20.65 119.112 19.2781 119.116C19.0625 119.116 18.775 119.116 18.65 119.056Z" fill="#B1CB2C"/>
<path d="M0.15312 101.687C-0.228129 100.1 0.12812 97.1812 0.959371 95.8781C1.2125 95.8156 1.35624 96.0187 1.52187 96.1344C3.42812 97.4719 5.32812 98.8219 7.22812 100.166C7.43124 100.309 7.65312 100.431 7.83437 100.6C8.04687 100.797 8.42812 100.831 8.45 101.216C8.19687 101.406 7.89375 101.325 7.61875 101.353C6.62812 101.456 5.64062 101.569 4.64687 101.544C4.12812 101.531 3.61875 101.622 3.10312 101.647C2.23437 101.684 1.36562 101.716 0.496871 101.741C0.37812 101.747 0.259371 101.703 0.15312 101.687Z" fill="#B1CB2C"/>
<path d="M22.4656 89.3719C22.4656 88.4625 22.4656 80.7531 22.4656 80.1562C22.4656 80.0562 22.6562 80.075 22.7437 80.1312C23.6344 80.6937 24.525 81.2625 25.4219 81.8156C25.6625 81.9625 25.7594 82.1656 25.7687 82.4281C25.775 82.5531 25.7875 82.6781 25.775 82.8C25.7812 84.2562 25.7812 85.6656 25.7812 87.1344C25.7719 87.4781 25.5594 87.775 25.2625 87.95C24.4312 88.4344 23.6031 88.9187 22.7687 89.3937C22.7062 89.4281 22.4656 89.575 22.4656 89.3719Z" fill="#B1CB2C"/>
<path d="M14.1625 83.7875L14.2531 83.7719C14.3281 83.7844 14.3156 84.075 14.3156 84.075C14.3156 84.4312 14.3 87.5562 14.3156 89.2969C14.3156 89.3406 14.3094 89.3844 14.3031 89.4281C14.2781 89.6187 14.0562 89.7125 13.9062 89.5969L13.9031 89.5937C12.9906 88.8937 12.0812 88.1906 11.1687 87.4875C10.8469 87.2406 10.5219 87 10.1969 86.7594C10.1375 86.7156 10.0844 86.6656 10.05 86.6031C10.0062 86.5219 10.0187 86.4219 10.0719 86.3469C10.1 86.3094 10.1281 86.2719 10.1687 86.2437C11.4219 85.3812 13.5594 84.1437 14.1625 83.7875Z" fill="#B1CB2C"/>
<path d="M38.2375 90.2781C37.6625 90.7875 36.0594 91.9062 35.35 92.3094C35.1969 92.2875 35.1625 92.175 35.1594 92.0437C35.1563 91.7656 35.15 91.4844 35.1563 91.2031C35.1531 90.3187 35.1531 89.4844 35.1531 88.6031C35.1531 88.475 35.3813 88.3625 35.4813 88.4281C36.3938 89.0125 37.3594 89.5187 38.2375 90.2781Z" fill="#B1CB2C"/>
<path d="M28.0031 86.3875C27.8531 86.425 27.6969 86.3312 27.6969 86.1687C27.6969 85.275 27.6969 84.3594 27.6969 83.4625C27.7031 83.4156 27.7281 83.3469 27.7937 83.3219C27.8531 83.2937 27.9281 83.2969 27.9719 83.325C28.8312 83.8125 29.6875 84.3062 30.5437 84.8062C30.5906 84.8312 30.6594 84.8969 30.6594 84.9719C30.6594 85.0656 30.2312 85.3 29.9969 85.4187C29.3406 85.7531 28.6687 86.0687 28.0031 86.3875Z" fill="#B1CB2C"/>
<path d="M59.3344 100.559C59.0656 100.553 58.8062 100.544 58.5437 100.544C57.2531 100.541 55.9594 100.531 54.6687 100.547C54.0219 100.556 53.3781 100.512 52.7375 100.447C52.1625 100.387 51.6031 100.259 51.0937 99.9719C50.4 99.5812 50.0125 98.9844 49.9531 98.1844C49.9406 98.0187 49.9406 97.85 49.9406 97.6844C49.9406 96.7031 49.9406 95.7219 49.9406 94.7406C49.9406 94.575 49.95 94.4062 49.95 94.2406C49.95 93.8656 50.3094 93.5969 50.5844 93.5687C50.8719 93.5406 51.1594 93.5281 51.4406 93.5906C51.6969 93.6437 51.8594 93.8219 51.8844 94.0875C51.8969 94.2281 51.8906 94.375 51.8906 94.5156C51.8937 95.5437 51.8937 96.575 51.8937 97.6031C51.8937 97.7219 51.8844 97.8406 51.8906 97.9594C51.9125 98.3844 52.1281 98.6906 52.5406 98.8094C52.8594 98.9 53.1937 98.9844 53.525 98.9875C55.3906 99.0031 57.2562 98.9969 59.1219 98.9969C59.2125 98.9969 59.3031 98.9719 59.3625 98.9625C59.5187 98.8219 59.4844 98.6719 59.4844 98.5312C59.4875 97.2625 59.4844 95.9969 59.4844 94.7281C59.4844 94.5625 59.4781 94.3937 59.4875 94.225C59.5062 93.875 59.7125 93.6344 60.0437 93.5781C60.3281 93.5312 60.6156 93.5281 60.9 93.5812C61.1625 93.6312 61.3312 93.7969 61.375 94.0531C61.3969 94.1937 61.4031 94.3406 61.4031 94.4812C61.4062 97.1844 61.4062 99.8875 61.4062 102.591C61.4062 102.684 61.4062 102.781 61.3969 102.875C61.3625 103.275 61.1625 103.475 60.75 103.5C60.5344 103.516 60.3187 103.512 60.1062 103.497C59.8 103.478 59.4812 103.234 59.4875 102.834C59.4937 102.309 59.4875 101.781 59.4844 101.256C59.4812 101.091 59.4656 100.922 59.45 100.756C59.4437 100.716 59.4031 100.678 59.3344 100.559Z" fill="#B1CB2C"/>
<path d="M73.7375 98.0875C73.5187 98.0094 73.4375 98.1094 73.3437 98.1781C72.175 99.0094 71.0062 99.8406 69.8375 100.672C68.7469 101.45 67.6594 102.231 66.5687 103.009C66.5125 103.05 66.4469 103.087 66.3937 103.134C65.9687 103.531 65.4469 103.547 64.9125 103.494C64.8219 103.484 64.7281 103.447 64.6437 103.409C64.4781 103.337 64.3719 103.209 64.3562 103.028C64.3406 102.837 64.3344 102.647 64.3344 102.456C64.3344 100.469 64.3469 98.4844 64.3344 96.5C64.3312 95.9031 64.5187 95.6656 65.1312 95.6812C65.3 95.6844 65.4687 95.6875 65.6344 95.7094C65.8719 95.7406 66.0281 95.8906 66.0812 96.1156C66.1219 96.3 66.1281 96.4937 66.1281 96.6844C66.1312 97.8781 66.1281 99.075 66.1312 100.272C66.1312 100.509 66.1406 100.75 66.15 100.987C66.1562 101.112 66.3031 101.175 66.4187 101.1C66.5375 101.022 66.6562 100.941 66.775 100.856C67.7094 100.194 68.6469 99.5312 69.5781 98.8625C70.8625 97.9469 72.1437 97.025 73.425 96.1062C73.525 96.0344 73.625 95.9625 73.7219 95.8906C73.9344 95.7375 74.1969 95.6625 74.4594 95.6812C74.6969 95.6969 74.9375 95.7 75.1687 95.75C75.3344 95.7844 75.4687 95.9031 75.4812 96.0969C75.4969 96.2875 75.5094 96.4781 75.5094 96.6687C75.5094 98.6062 75.5094 100.544 75.5094 102.481C75.5094 102.647 75.5062 102.816 75.4906 102.981C75.4719 103.244 75.3094 103.434 75.0562 103.478C74.7719 103.525 74.4844 103.531 74.2 103.472C73.9531 103.425 73.7781 103.228 73.7531 102.975C73.7375 102.784 73.7406 102.594 73.7406 102.4C73.7375 101.087 73.7375 99.7719 73.7375 98.4562C73.7375 98.3375 73.7375 98.2187 73.7375 98.0875Z" fill="#B1CB2C"/>
<path d="M126.809 98.0656C126.747 98.0656 126.669 98.0437 126.613 98.0719C126.506 98.1219 126.413 98.2 126.316 98.2687C124.428 99.6156 122.541 100.962 120.653 102.306C120.244 102.597 119.816 102.862 119.428 103.181C118.972 103.556 118.459 103.556 117.934 103.475C117.575 103.419 117.416 103.159 117.422 102.878C117.425 102.759 117.419 102.641 117.419 102.522C117.419 100.584 117.419 98.6469 117.422 96.7125C117.422 96.5437 117.419 96.375 117.434 96.2094C117.453 95.9594 117.634 95.7594 117.875 95.7125C118.159 95.6594 118.447 95.6625 118.731 95.7125C119.016 95.7625 119.184 95.9625 119.197 96.2656C119.206 96.4062 119.197 96.55 119.194 96.6937C119.194 98.0344 119.194 99.3719 119.194 100.709C119.197 100.828 119.206 100.947 119.216 101.066C119.222 101.131 119.325 101.194 119.378 101.166C119.484 101.109 119.591 101.056 119.688 100.987C121.069 100.003 122.45 99.0156 123.828 98.0281C124.8 97.3312 125.769 96.6344 126.731 95.9281C126.978 95.7469 127.234 95.6594 127.531 95.6812C127.769 95.6969 128.009 95.6969 128.244 95.7406C128.444 95.7781 128.575 95.9281 128.6 96.1375C128.619 96.2812 128.613 96.425 128.613 96.5687C128.616 98.575 128.616 100.584 128.613 102.594C128.613 102.734 128.616 102.881 128.6 103.022C128.578 103.231 128.403 103.428 128.191 103.469C127.881 103.528 127.572 103.537 127.266 103.462C127.047 103.409 126.888 103.222 126.872 103.006C126.859 102.816 126.863 102.625 126.863 102.434C126.863 101.094 126.863 99.7562 126.863 98.4187C126.863 98.3 126.888 98.1812 126.809 98.0656Z" fill="#B1CB2C"/>
<path d="M84.6156 95.6781C85.7875 95.6781 86.9594 95.6781 88.1313 95.6812C88.3469 95.6812 88.5625 95.6875 88.775 95.7156C88.9781 95.7469 89.1125 95.875 89.1688 96.0812C89.2219 96.2719 89.225 96.4594 89.1938 96.65C89.1531 96.9062 88.9875 97.0906 88.7281 97.1219C88.5406 97.1437 88.3469 97.1406 88.1563 97.1406C86.05 97.1406 83.9469 97.1406 81.8438 97.1406C81.5094 97.1406 81.175 97.1531 80.8375 97.1594C80.5688 97.1656 80.3188 97.2469 80.0844 97.3687C79.7406 97.5469 79.5438 97.8281 79.5438 98.2281C79.5438 99.1125 79.5406 99.9969 79.5438 100.881C79.5469 101.309 79.7438 101.609 80.1469 101.766C80.5969 101.941 81.0688 102.003 81.5469 102.034C81.7844 102.05 82.025 102.041 82.2656 102.041C84.225 102.041 86.1875 102.041 88.1469 102.044C88.3375 102.044 88.5313 102.041 88.7188 102.056C89.0688 102.091 89.2875 102.322 89.3125 102.662C89.3469 103.144 89.1063 103.447 88.6313 103.497C88.4406 103.519 88.25 103.509 88.0594 103.509C85.8813 103.512 83.7063 103.516 81.5313 103.516C80.7844 103.512 80.0563 103.4 79.3375 103.194C78.9625 103.081 78.6438 102.884 78.3625 102.619C78.0906 102.366 77.9063 102.059 77.8438 101.697C77.7938 101.391 77.7656 101.078 77.7594 100.769C77.7469 100.006 77.75 99.2406 77.7563 98.475C77.7594 98.2125 77.7781 97.95 77.8094 97.6875C77.8906 96.9906 78.2813 96.5094 78.8844 96.175C79.5313 95.8187 80.2406 95.7187 80.9594 95.6906C81.65 95.6656 82.3438 95.6812 83.0375 95.6781C83.5656 95.6781 84.0906 95.6781 84.6156 95.6781Z" fill="#B1CB2C"/>
<path d="M94.1969 97.1562C93.9219 97.15 93.6844 97.1437 93.4469 97.1437C92.8031 97.1406 92.1563 97.1312 91.5125 97.1437C90.8031 97.1594 90.7156 96.7937 90.7344 96.3062C90.7375 96.2344 90.75 96.1625 90.7625 96.0937C90.8 95.9156 90.9094 95.7844 91.0844 95.7437C91.2688 95.7031 91.4594 95.6844 91.65 95.6812C92.15 95.675 92.6531 95.6781 93.1563 95.6781C94.9469 95.6781 96.7375 95.6781 98.5313 95.6812C98.7688 95.6812 99.0094 95.6844 99.2469 95.7094C99.4844 95.7375 99.6875 95.9469 99.7156 96.1844C99.7313 96.325 99.7313 96.4719 99.7156 96.6125C99.6875 96.8781 99.4625 97.0969 99.1969 97.125C99.0313 97.1406 98.8656 97.1406 98.6969 97.1406C98.075 97.1437 97.4563 97.1406 96.8344 97.1437C96.6906 97.1437 96.5469 97.15 96.4063 97.1625C96.25 97.1781 96.1406 97.2875 96.1313 97.4406C96.1188 97.5844 96.1188 97.7281 96.1188 97.8719C96.1188 99.4 96.1219 100.928 96.1219 102.456C96.1219 102.647 96.1219 102.841 96.0969 103.028C96.0656 103.266 95.9094 103.419 95.6844 103.469C95.3781 103.537 95.0656 103.534 94.7594 103.462C94.525 103.409 94.3875 103.241 94.3469 103.016C94.3125 102.831 94.3156 102.637 94.3156 102.447C94.3125 100.941 94.3156 99.4375 94.3125 97.9312C94.3125 97.6969 94.3406 97.4562 94.1969 97.1562Z" fill="#B1CB2C"/>
<path d="M137.881 97.8062C137.875 98.0219 137.866 98.2594 137.866 98.4969C137.862 99.7656 137.866 101.031 137.866 102.297C137.866 102.487 137.869 102.681 137.856 102.872C137.834 103.231 137.631 103.462 137.287 103.494C137.05 103.512 136.809 103.516 136.572 103.494C136.266 103.469 136.053 103.234 136.031 102.928C136.022 102.809 136.022 102.691 136.022 102.569C136.022 101.137 136.022 99.7031 136.022 98.2687C136.022 97.8844 136.044 97.5094 136.194 97.1437C136.481 96.4531 136.984 96.0187 137.703 95.8375C138.122 95.7344 138.547 95.6844 138.981 95.6844C140.416 95.6875 141.85 95.6812 143.284 95.6812C143.497 95.6812 143.712 95.6937 143.925 95.7281C144.128 95.7594 144.259 95.9 144.312 96.1031C144.331 96.1719 144.344 96.2437 144.35 96.3125C144.391 96.8156 144.184 97.1437 143.625 97.1437C142.55 97.1375 141.472 97.1406 140.397 97.1406C139.944 97.1437 139.491 97.1562 139.034 97.1562C138.791 97.1594 138.562 97.2187 138.347 97.3281C138.144 97.4281 138.022 97.6031 137.881 97.8062Z" fill="#B1CB2C"/>
<path d="M123.109 93.8531C123.587 93.8531 124.066 93.8531 124.541 93.8531C124.684 93.8531 124.828 93.8531 124.972 93.8562C125.25 93.8594 125.494 93.9312 125.625 94.2031C125.772 94.5031 125.762 94.8062 125.578 95.0875C125.531 95.1625 125.444 95.2219 125.362 95.2656C125.187 95.3562 124.997 95.3594 124.803 95.3594C123.634 95.3594 122.466 95.3625 121.294 95.3594C121.106 95.3594 120.909 95.3406 120.731 95.2844C120.516 95.2156 120.369 95.0594 120.362 94.8094C120.359 94.6906 120.369 94.5719 120.359 94.4531C120.337 94.1469 120.616 93.9344 120.822 93.8937C120.984 93.8625 121.153 93.8562 121.319 93.8531C121.916 93.85 122.512 93.8531 123.109 93.8531Z" fill="#B1CB2C"/>
<path d="M114.962 96.0031C114.903 95.8219 114.766 95.7344 114.594 95.7062C114.309 95.6625 114.022 95.6656 113.737 95.7125C113.497 95.7531 113.356 95.9094 113.3 96.1312C113.269 96.2687 113.266 96.4156 113.266 96.5594C113.262 98.5656 113.262 100.572 113.262 102.578C113.262 102.722 113.266 102.866 113.287 103.006C113.325 103.256 113.516 103.45 113.756 103.484C114.044 103.525 114.331 103.534 114.612 103.475C114.781 103.441 114.922 103.35 114.975 103.169C114.997 103.006 115.034 102.841 115.034 102.678C115.041 100.591 115.041 98.5031 115.041 96.4156C115.041 96.2719 115.047 96.1281 114.962 96.0031Z" fill="#B1CB2C"/>
<path d="M170.194 98.2562C170.191 98.0875 170.178 97.9219 170.166 97.7562C170.116 97.05 169.747 96.5562 169.141 96.2219C168.803 96.0375 168.45 95.8937 168.072 95.825C167.531 95.725 166.991 95.6437 166.434 95.65C165.169 95.6562 163.903 95.6562 162.637 95.6469C162.134 95.6437 161.641 95.7094 161.144 95.7875C160.756 95.8469 160.406 95.9812 160.075 96.175C159.556 96.4781 159.209 96.9031 159.109 97.5187C159.069 97.7781 159.037 98.0344 159.037 98.3C159.041 99.325 159.037 100.353 159.037 101.378H159.041C159.041 102.453 159.037 103.528 159.044 104.603C159.044 104.791 159.053 104.984 159.094 105.169C159.144 105.397 159.3 105.547 159.534 105.584C159.819 105.634 160.106 105.634 160.387 105.581C160.647 105.531 160.812 105.353 160.831 105.087C160.853 104.753 160.85 104.419 160.853 104.084C160.862 103.284 160.859 103.437 162.016 103.406C163.478 103.366 164.944 103.387 166.409 103.412C166.959 103.425 167.503 103.353 168.037 103.25C168.341 103.194 168.641 103.094 168.919 102.962C169.666 102.612 170.125 102.044 170.172 101.191C170.181 101.047 170.194 100.906 170.194 100.762C170.194 99.925 170.194 99.0906 170.194 98.2562ZM168.344 101.006C168.341 101.353 168.159 101.594 167.847 101.722C167.672 101.794 167.484 101.856 167.3 101.881C166.969 101.925 166.634 101.956 166.3 101.959C164.725 101.966 163.147 101.966 161.569 101.962C161.359 101.959 161.137 101.997 160.894 101.841C160.878 101.75 160.856 101.678 160.856 101.609C160.853 100.509 160.869 99.4125 160.85 98.3125C160.841 97.8344 161.056 97.5437 161.481 97.3875C161.819 97.2594 162.162 97.1656 162.528 97.1594C162.934 97.1531 163.341 97.1406 163.744 97.1406C164.772 97.1437 165.8 97.1562 166.828 97.1594C167.194 97.1625 167.534 97.2625 167.862 97.4125C168.172 97.5531 168.35 97.7844 168.347 98.1375C168.344 99.0937 168.347 100.05 168.344 101.006Z" fill="#B1CB2C"/>
<path d="M199.8 102.228C199.666 102.109 199.506 102.075 199.338 102.066C199.075 102.056 198.816 102.047 198.506 102.034C198.141 101.587 197.803 101.184 197.472 100.778C196.428 99.5031 195.387 98.2281 194.344 96.9531C194.044 96.5844 193.728 96.225 193.434 95.85C193.022 95.3219 192.034 95.3531 191.659 95.8625C191.491 96.0906 191.288 96.2969 191.106 96.5187C189.788 98.125 188.472 99.7281 187.156 101.334C186.959 101.575 186.763 101.812 186.528 102.031C186.216 102.047 185.903 102.05 185.597 102.084C185.281 102.119 185.081 102.344 185.056 102.653C185.053 102.7 185.047 102.747 185.047 102.797C185.05 103.231 185.262 103.469 185.684 103.5C185.875 103.516 186.069 103.509 186.259 103.509C190.437 103.509 194.619 103.509 198.797 103.509C198.966 103.509 199.131 103.506 199.3 103.509C199.584 103.512 199.806 103.4 199.984 103.125C199.991 102.969 199.997 102.781 200 102.591C200.003 102.434 199.909 102.328 199.8 102.228ZM196.062 102.003C196.003 102.034 195.928 102.056 195.859 102.056C195.503 102.062 195.144 102.059 194.788 102.059C193 102.059 191.213 102.059 189.425 102.059C189.284 102.056 189.144 102.037 189.006 102.012C188.981 102.006 188.938 101.922 188.95 101.903C189.019 101.778 189.094 101.656 189.181 101.547C190.013 100.534 190.847 99.525 191.678 98.5125C191.888 98.2531 192.094 97.9906 192.306 97.7344C192.363 97.6625 192.441 97.6094 192.528 97.5312C192.634 97.6031 192.681 97.625 192.709 97.6594C193.781 98.9687 194.853 100.278 195.919 101.587C195.994 101.678 196.056 101.781 196.109 101.887C196.122 101.912 196.094 101.987 196.062 102.003Z" fill="#B1CB2C"/>
<path d="M183.331 98.2844C183.331 98.1406 183.322 97.9969 183.312 97.8562C183.259 97.1594 182.909 96.6406 182.325 96.2844C181.956 96.0594 181.559 95.9 181.128 95.8219C180.656 95.7406 180.184 95.6781 179.706 95.6812C179.156 95.6875 178.606 95.6844 178.059 95.6844C177.412 95.6844 176.769 95.6906 176.122 95.6844C175.641 95.6781 175.169 95.7531 174.706 95.8719C174.05 96.0375 173.453 96.3281 172.966 96.8156C172.594 97.1875 172.384 97.6375 172.375 98.1562C172.356 99.1375 172.369 100.116 172.372 101.094C172.372 101.625 172.597 102.066 172.956 102.437C173.297 102.787 173.703 103.028 174.169 103.175C174.856 103.394 175.559 103.512 176.281 103.512C177.331 103.512 178.384 103.5 179.434 103.512C180.012 103.522 180.578 103.45 181.137 103.328C181.678 103.209 182.187 103.012 182.622 102.65C183.047 102.294 183.294 101.85 183.325 101.294C183.331 101.197 183.331 101.103 183.331 101.006C183.331 100.1 183.331 99.1906 183.331 98.2844ZM181.472 100.822C181.469 101.406 181.312 101.631 180.744 101.812C180.334 101.944 179.912 102.037 179.478 102.037C178.403 102.041 177.325 102.041 176.25 102.034C175.816 102.031 175.397 101.922 174.981 101.812C174.822 101.772 174.669 101.694 174.528 101.606C174.312 101.475 174.184 101.278 174.181 101.016C174.178 100.944 174.178 100.872 174.178 100.803C174.178 100.012 174.178 99.225 174.178 98.4344C174.178 98.3875 174.181 98.3406 174.178 98.2906C174.166 97.9687 174.325 97.7406 174.587 97.5875C175.05 97.3156 175.553 97.1625 176.087 97.1531C176.709 97.1437 177.331 97.1531 177.953 97.1531C177.953 97.15 177.953 97.15 177.953 97.15C178.55 97.15 179.15 97.1469 179.747 97.15C180.084 97.1531 180.416 97.2 180.728 97.3281C180.903 97.4031 181.072 97.4969 181.231 97.6C181.375 97.6969 181.456 97.8437 181.462 98.025C181.466 98.1187 181.472 98.2156 181.472 98.3094C181.475 99.1469 181.478 99.9844 181.472 100.822Z" fill="#B1CB2C"/>
<path d="M156.831 97.6281C156.763 97.3187 156.634 97.025 156.434 96.7812C156.006 96.2531 155.425 96.0031 154.797 95.8531C154.331 95.7437 153.859 95.6781 153.378 95.6844C152.778 95.6906 152.181 95.6844 151.584 95.6844V95.6812C151.012 95.6812 150.438 95.6875 149.866 95.6781C149.359 95.6719 148.866 95.7406 148.372 95.8375C147.847 95.9406 147.372 96.1625 146.937 96.4594C146.237 96.9406 145.869 97.6 145.909 98.4656C145.922 98.775 145.909 99.0875 145.909 99.3969C145.909 99.9469 145.903 100.497 145.912 101.047C145.925 101.622 146.15 102.109 146.575 102.503C146.897 102.8 147.256 103.031 147.672 103.162C148.334 103.372 149.012 103.506 149.709 103.512C150.881 103.519 152.05 103.512 153.222 103.512C153.922 103.509 154.609 103.4 155.259 103.156C156.372 102.744 156.891 102.109 156.925 100.919C156.925 100.894 156.925 100.869 156.925 100.847C156.925 100.056 156.925 99.2687 156.928 98.4812C156.928 98.1906 156.891 97.9094 156.831 97.6281ZM155.069 99.7281C155.066 100.109 155.062 100.491 155.066 100.875C155.066 101.309 154.856 101.591 154.459 101.75C154.034 101.922 153.591 102.025 153.138 102.031C152.016 102.047 150.894 102.05 149.772 102.028C149.272 102.019 148.778 101.912 148.309 101.728C147.909 101.575 147.7 101.294 147.703 100.856C147.713 100.044 147.719 99.2344 147.706 98.4219C147.7 97.9812 147.909 97.7031 148.278 97.5125C148.731 97.2781 149.216 97.1594 149.725 97.1531C150.344 97.1437 150.966 97.15 151.584 97.15C152.156 97.15 152.731 97.15 153.303 97.15C153.641 97.15 153.966 97.2219 154.284 97.3281C154.959 97.5531 155.059 97.85 155.066 98.3687C155.072 98.8219 155.069 99.275 155.069 99.7281Z" fill="#B1CB2C"/>
<path d="M112.234 99.8656C111.972 99.1937 111.425 98.8156 110.772 98.5875C110.109 98.3562 109.425 98.2719 108.725 98.275C107.125 98.2812 105.522 98.2781 103.922 98.275C103.684 98.275 103.444 98.3062 103.194 98.225C103.078 98.075 103.087 97.9531 103.084 97.8375C103.084 97.4312 103.087 97.025 103.081 96.6187C103.078 96.4531 103.066 96.2844 103.037 96.1219C103.003 95.9156 102.872 95.7719 102.669 95.725C102.341 95.6531 102.003 95.65 101.675 95.7344C101.475 95.7875 101.344 95.9281 101.322 96.1406C101.303 96.3531 101.294 96.5687 101.294 96.7844C101.291 98.1219 101.291 99.4594 101.291 100.8C101.291 101.012 101.303 101.228 101.309 101.444C101.319 101.928 101.544 102.309 101.878 102.641C102.137 102.9 102.447 103.072 102.791 103.184C103.456 103.4 104.137 103.512 104.834 103.512C106.031 103.512 107.225 103.506 108.422 103.512C109.072 103.516 109.709 103.431 110.344 103.303C110.741 103.219 111.125 103.091 111.475 102.875C111.834 102.653 112.131 102.366 112.262 101.972C112.494 101.275 112.503 100.556 112.234 99.8656ZM110.547 101.228C110.537 101.519 110.378 101.731 110.112 101.825C109.847 101.922 109.562 101.972 109.284 102.034C109.194 102.056 109.094 102.05 109 102.05C107.594 102.05 106.187 102.047 104.781 102.05C104.419 102.05 104.069 101.987 103.731 101.866C103.578 101.809 103.431 101.716 103.306 101.612C103.178 101.503 103.094 101.35 103.087 101.175C103.078 100.75 103.078 100.322 103.091 99.8906C103.209 99.8375 103.291 99.7781 103.378 99.7687C103.569 99.7469 103.759 99.7469 103.95 99.7469C105.428 99.7469 106.906 99.7531 108.381 99.7437C108.841 99.7406 109.281 99.8281 109.731 99.8844C109.928 99.9062 110.091 100.003 110.247 100.112C110.412 100.228 110.522 100.381 110.537 100.584C110.553 100.797 110.556 101.012 110.547 101.228Z" fill="#B1CB2C"/>
</g>
<defs>
<clipPath id="clip0_6463_377">
<rect width="200" height="39.2" fill="white" transform="translate(0 80)"/>
</clipPath>
</defs>
</svg>
