<svg width="200" height="200" viewBox="0 0 200 200" fill="none" xmlns="http://www.w3.org/2000/svg">
<g clip-path="url(#clip0_8008_256)">
<mask id="mask0_8008_256" style="mask-type:luminance" maskUnits="userSpaceOnUse" x="0" y="65" width="200" height="71">
<path d="M200 65H0V135.175H200V65Z" fill="white"/>
</mask>
<g mask="url(#mask0_8008_256)">
<path d="M64.5784 64.9993V65.0123L58.3302 71.2051V64.9993H52.0798L41.6649 75.319V102.151H45.8309V77.3836L54.1637 69.1275V102.151H58.3302V77.3836L66.6616 69.1275V102.151H70.8281V64.9993H64.5784Z" fill="#1E2321"/>
<path d="M0.00251714 102.15H16.6677V64.9991H10.4173L0 75.3191L0.00251714 75.3215V102.15ZM12.5012 69.1273V98.0224H4.16898V77.3831L12.5012 69.1273Z" fill="#1E2321"/>
<path d="M37.4979 64.9993H20.8333V102.15H37.4979V64.9993ZM24.9991 69.1272H33.3316V98.0228H24.9991V69.1272Z" fill="#1E2321"/>
<path d="M0.00343323 110.408H70.8291V106.28H0.00343323V110.408Z" fill="#1E2321"/>
<path d="M0.00343323 114.536V135.175H4.1699V131.048H29.1672V114.536H0.00343323ZM25.0009 126.92H4.1699V118.664H25.0009V126.92Z" fill="#1E2321"/>
<path d="M33.3333 114.536V131.048H49.9986V135.175H54.1644V131.048H70.8295V114.536H33.3333ZM37.4991 118.664H49.9979V126.92H37.4991V118.664ZM66.663 126.92H54.1644V118.664H66.663V126.92Z" fill="#1E2321"/>
<path d="M136.658 111.436H129.172V92.8647H141.542V96.0984H132.824V99.8535H136.658C140.414 99.8535 142.724 102.256 142.724 105.645C142.724 109.037 140.44 111.436 136.658 111.436ZM136.475 103.09H132.824V108.204H136.475C138.102 108.204 139.074 107.186 139.074 105.645C139.074 104.134 138.102 103.09 136.475 103.09Z" fill="#1E2321"/>
<path d="M158.332 111.436L157.228 108.151H150.583L149.453 111.436H145.647L152.449 92.8647H155.311L162.139 111.436H158.332ZM153.971 98.3428L151.608 105.098H156.255L153.971 98.3428Z" fill="#1E2321"/>
<path d="M175.949 111.436V103.662H169.62V111.436H165.971V92.8647H169.62V100.454H175.949V92.8647H179.602V111.436H175.949Z" fill="#1E2321"/>
<path d="M185.319 111.436V92.8647H188.968V101.682L195.011 92.8647H199.372L193.093 101.578L200 111.436H195.537L188.968 101.732V111.436H185.319Z" fill="#1E2321"/>
<path d="M104.157 135.168H99.9914V65.0098H104.157V135.168Z" fill="#7FCB2C"/>
</g>
</g>
<defs>
<clipPath id="clip0_8008_256">
<rect width="200" height="70.1754" fill="white" transform="translate(0 65)"/>
</clipPath>
</defs>
</svg>
