<svg width="200" height="200" viewBox="0 0 200 200" fill="none" xmlns="http://www.w3.org/2000/svg">
<g clip-path="url(#clip0_6586_364)">
<path d="M47.2727 82.9697H42.8788V94.9394H47.2727V82.9697Z" fill="black"/>
<path d="M54.8485 82.9697H50.4545V94.9394H54.8485V82.9697Z" fill="black"/>
<path d="M62.4242 82.9697H58.0303V94.9394H62.4242V82.9697Z" fill="black"/>
<path d="M70.1515 82.9697H65.7576V94.9394H70.1515V82.9697Z" fill="black"/>
<path d="M77.7273 82.9697H73.0303V94.9394H77.7273V82.9697Z" fill="black"/>
<path d="M85.303 82.9697H80.606V94.9394H85.303V82.9697Z" fill="black"/>
<path d="M92.7273 82.9697H88.3333V94.9394H92.7273V82.9697Z" fill="black"/>
<path d="M100.303 82.9697H95.9091V94.9394H100.303V82.9697Z" fill="black"/>
<path d="M107.879 82.9697H103.485V94.9394H107.879V82.9697Z" fill="black"/>
<path d="M115.606 82.9697H111.212V94.9394H115.606V82.9697Z" fill="black"/>
<path d="M123.182 82.9697H118.485V94.9394H123.182V82.9697Z" fill="black"/>
<path d="M130.758 82.9697H126.061V94.9394H130.758V82.9697Z" fill="black"/>
<path d="M138.182 82.9697H133.788V94.9394H138.182V82.9697Z" fill="black"/>
<path d="M145.758 82.9697H141.364V94.9394H145.758V82.9697Z" fill="black"/>
<path d="M153.333 82.9697H148.939V94.9394H153.333V82.9697Z" fill="black"/>
<path d="M161.061 82.9697H156.667V94.9394H161.061V82.9697Z" fill="black"/>
<path d="M47.2727 96.303H42.8788V101H47.2727V96.303Z" fill="black"/>
<path d="M54.8485 96.303H50.4545V101H54.8485V96.303Z" fill="black"/>
<path d="M62.4242 96.303H58.0303V101H62.4242V96.303Z" fill="black"/>
<path d="M70.1515 96.303H65.7576V101H70.1515V96.303Z" fill="black"/>
<path d="M73.0303 96.303H77.7273V101.152H73.0303V96.303Z" fill="black"/>
<path d="M80.606 96.4546L85.303 96.303V101.152H80.606V96.4546Z" fill="black"/>
<path d="M92.7273 96.303H88.3333V101H92.7273V96.303Z" fill="black"/>
<path d="M100.303 96.303H95.9091V101H100.303V96.303Z" fill="black"/>
<path d="M107.879 96.303H103.485V101H107.879V96.303Z" fill="black"/>
<path d="M115.606 96.303H111.212V101H115.606V96.303Z" fill="black"/>
<path d="M118.485 96.303L123.182 96.4546V101.152H118.485V96.303Z" fill="black"/>
<path d="M126.061 96.4546L130.758 96.303V101.152H126.061V96.4546Z" fill="black"/>
<path d="M138.182 96.303H133.788V101H138.182V96.303Z" fill="black"/>
<path d="M145.758 96.303H141.364V101H145.758V96.303Z" fill="black"/>
<path d="M153.333 96.303H148.939V101H153.333V96.303Z" fill="black"/>
<path d="M161.061 96.303H156.667V101H161.061V96.303Z" fill="black"/>
<path d="M57.5758 73.5757H53.6364V75.2424H57.5758V73.5757Z" fill="black"/>
<path d="M63.7879 73.5757H59.3939V75.2424H63.7879V73.5757Z" fill="black"/>
<path d="M70 73.5757H65.606V75.2424H70V73.5757Z" fill="black"/>
<path d="M75.7576 73.5757H71.8182V75.2424H75.7576V73.5757Z" fill="black"/>
<path d="M106.364 73.5757H101.97V75.2424H106.364V73.5757Z" fill="black"/>
<path d="M100.152 73.5757H95.7576V75.2424H100.152V73.5757Z" fill="black"/>
<path d="M93.9394 73.5757H90V75.2424H93.9394V73.5757Z" fill="black"/>
<path d="M81.9697 73.5757H77.5757V75.2424H81.9697V73.5757Z" fill="black"/>
<path d="M88.1818 73.5757H83.7879V75.2424H88.1818V73.5757Z" fill="black"/>
<path d="M142.727 73.5757H138.333V75.2424H142.727V73.5757Z" fill="black"/>
<path d="M136.515 73.5757H132.121V75.2424H136.515V73.5757Z" fill="black"/>
<path d="M130.303 73.5757H126.364V75.2424H130.303V73.5757Z" fill="black"/>
<path d="M124.545 73.5757H120.151V75.2424H124.545V73.5757Z" fill="black"/>
<path d="M118.333 73.5757H113.939V75.2424H118.333V73.5757Z" fill="black"/>
<path d="M112.273 73.5757H108.182V75.2424H112.273V73.5757Z" fill="black"/>
<path d="M57.5758 67.8182H53.6364V71.1515H57.5758V67.8182Z" fill="black"/>
<path d="M148.485 73.5757H144.545V75.2424H148.485V73.5757Z" fill="black"/>
<path d="M63.7879 67.8182H59.3939V71.1515H63.7879V67.8182Z" fill="black"/>
<path d="M70 67.8182H65.606V71.1515H70V67.8182Z" fill="black"/>
<path d="M75.9091 67.8182H71.8182V71.1515H75.9091V67.8182Z" fill="black"/>
<path d="M81.9697 67.8182H77.5757V71.1515H81.9697V67.8182Z" fill="black"/>
<path d="M88.1818 67.8182H83.7879V71.1515H88.1818V67.8182Z" fill="black"/>
<path d="M93.9394 67.8182H90V71.1515H93.9394V67.8182Z" fill="black"/>
<path d="M100.152 67.8182H95.7576V71.1515H100.152V67.8182Z" fill="black"/>
<path d="M130.303 67.8182H126.364V71.1515H130.303V67.8182Z" fill="black"/>
<path d="M124.545 67.8182H120.151V71.1515H124.545V67.8182Z" fill="black"/>
<path d="M118.333 67.8182H113.939V71.1515H118.333V67.8182Z" fill="black"/>
<path d="M112.273 67.8182H108.182V71.1515H112.273V67.8182Z" fill="black"/>
<path d="M106.364 67.8182H101.97V71.1515H106.364V67.8182Z" fill="black"/>
<path d="M148.485 67.8182H144.545V71.1515H148.485V67.8182Z" fill="black"/>
<path d="M142.727 67.8182H138.333V71.1515H142.727V67.8182Z" fill="black"/>
<path d="M136.515 67.8182H132.121V71.1515H136.515V67.8182Z" fill="black"/>
<path d="M57.5758 61.6061H53.6364V64.9394H57.5758V61.6061Z" fill="black"/>
<path d="M63.7879 61.6061H59.3939V64.9394H63.7879V61.6061Z" fill="black"/>
<path d="M70 61.6061H65.606V64.9394H70V61.6061Z" fill="black"/>
<path d="M75.9091 61.6061H71.8182V64.9394H75.9091V61.6061Z" fill="black"/>
<path d="M81.9697 61.6061H77.5757V64.9394H81.9697V61.6061Z" fill="black"/>
<path d="M88.1818 61.6061H83.7879V64.9394H88.1818V61.6061Z" fill="black"/>
<path d="M93.9394 61.6061H90V64.9394H93.9394V61.6061Z" fill="black"/>
<path d="M100.152 61.6061H95.7576V64.9394H100.152V61.6061Z" fill="black"/>
<path d="M130.303 61.6061H126.364V64.9394H130.303V61.6061Z" fill="black"/>
<path d="M124.545 61.6061H120.151V64.9394H124.545V61.6061Z" fill="black"/>
<path d="M118.333 61.6061H113.939V64.9394H118.333V61.6061Z" fill="black"/>
<path d="M112.273 61.6061H108.182V64.9394H112.273V61.6061Z" fill="black"/>
<path d="M106.364 61.6061H101.97V64.9394H106.364V61.6061Z" fill="black"/>
<path d="M148.485 61.6061H144.545V64.9394H148.485V61.6061Z" fill="black"/>
<path d="M142.727 61.6061H138.333V64.9394H142.727V61.6061Z" fill="black"/>
<path d="M136.515 61.6061H132.121V64.9394H136.515V61.6061Z" fill="black"/>
<path d="M57.5758 55.697H53.6364V59.0303H57.5758V55.697Z" fill="black"/>
<path d="M63.7879 55.697H59.3939V59.0303H63.7879V55.697Z" fill="black"/>
<path d="M70 55.697H65.606V59.0303H70V55.697Z" fill="black"/>
<path d="M75.9091 55.697H71.8182V59.0303H75.9091V55.697Z" fill="black"/>
<path d="M81.9697 55.697H77.5757V59.0303H81.9697V55.697Z" fill="black"/>
<path d="M88.1818 55.697H83.7879V59.0303H88.1818V55.697Z" fill="black"/>
<path d="M93.9394 55.697H90V59.0303H93.9394V55.697Z" fill="black"/>
<path d="M100.152 55.697H95.7576V59.0303H100.152V55.697Z" fill="black"/>
<path d="M130.303 55.697H126.364V59.0303H130.303V55.697Z" fill="black"/>
<path d="M124.545 55.697H120.151V59.0303H124.545V55.697Z" fill="black"/>
<path d="M118.333 55.697H113.939V59.0303H118.333V55.697Z" fill="black"/>
<path d="M112.273 55.697H108.182V59.0303H112.273V55.697Z" fill="black"/>
<path d="M106.364 55.697H101.97V59.0303H106.364V55.697Z" fill="black"/>
<path d="M148.485 55.697H144.545V59.0303H148.485V55.697Z" fill="black"/>
<path d="M142.727 55.697H138.333V59.0303H142.727V55.697Z" fill="black"/>
<path d="M136.515 55.697H132.121V59.0303H136.515V55.697Z" fill="black"/>
<path d="M57.5758 49.6364H53.6364V52.9697H57.5758V49.6364Z" fill="black"/>
<path d="M63.7879 49.6364H59.3939V52.9697H63.7879V49.6364Z" fill="black"/>
<path d="M70 49.6364H65.606V52.9697H70V49.6364Z" fill="black"/>
<path d="M75.9091 49.6364H71.8182V52.9697H75.9091V49.6364Z" fill="black"/>
<path d="M81.9697 49.6364H77.5757V52.9697H81.9697V49.6364Z" fill="black"/>
<path d="M88.1818 49.6364H83.7879V52.9697H88.1818V49.6364Z" fill="black"/>
<path d="M93.9394 49.6364H90V52.9697H93.9394V49.6364Z" fill="black"/>
<path d="M100.152 49.6364H95.7576V52.9697H100.152V49.6364Z" fill="black"/>
<path d="M130.303 49.6364H126.364V52.9697H130.303V49.6364Z" fill="black"/>
<path d="M124.545 49.6364H120.151V52.9697H124.545V49.6364Z" fill="black"/>
<path d="M118.333 49.6364H113.939V52.9697H118.333V49.6364Z" fill="black"/>
<path d="M112.273 49.6364H108.182V52.9697H112.273V49.6364Z" fill="black"/>
<path d="M106.364 49.6364H101.97V52.9697H106.364V49.6364Z" fill="black"/>
<path d="M148.485 49.6364H144.545V52.9697H148.485V49.6364Z" fill="black"/>
<path d="M142.727 49.6364H138.333V52.9697H142.727V49.6364Z" fill="black"/>
<path d="M136.515 49.6364H132.121V52.9697H136.515V49.6364Z" fill="black"/>
<path d="M57.5758 43.4243H53.6364V46.7576H57.5758V43.4243Z" fill="black"/>
<path d="M63.7879 43.4243H59.3939V46.7576H63.7879V43.4243Z" fill="black"/>
<path d="M70 43.4243H65.606V46.7576H70V43.4243Z" fill="black"/>
<path d="M75.9091 43.4243H71.8182V46.7576H75.9091V43.4243Z" fill="black"/>
<path d="M81.9697 43.4243H77.5757V46.7576H81.9697V43.4243Z" fill="black"/>
<path d="M88.1818 43.4243H83.7879V46.7576H88.1818V43.4243Z" fill="black"/>
<path d="M93.9394 43.4243H90V46.7576H93.9394V43.4243Z" fill="black"/>
<path d="M100.152 43.4243H95.7576V46.7576H100.152V43.4243Z" fill="black"/>
<path d="M130.303 43.4243H126.364V46.7576H130.303V43.4243Z" fill="black"/>
<path d="M124.545 43.4243H120.151V46.7576H124.545V43.4243Z" fill="black"/>
<path d="M118.333 43.4243H113.939V46.7576H118.333V43.4243Z" fill="black"/>
<path d="M112.273 43.4243H108.182V46.7576H112.273V43.4243Z" fill="black"/>
<path d="M106.364 43.4243H101.97V46.7576H106.364V43.4243Z" fill="black"/>
<path d="M148.485 43.4243H144.545V46.7576H148.485V43.4243Z" fill="black"/>
<path d="M142.727 43.4243H138.333V46.7576H142.727V43.4243Z" fill="black"/>
<path d="M136.515 43.4243H132.121V46.7576H136.515V43.4243Z" fill="black"/>
<path d="M192.879 102.515V73.7273H191.061V75.0909H185.303V73.5757H176.212V75.0909H170V73.7273H168.636V76.606L163.939 79.4848H153.333V41.6061H154.848V32.5151H153.333V31H133.636V29.4848H128.939V31H103.485V21.9091H100.152V15.697H107.727V11H98.6364V22.2121H95.7575V31.303H70V29.7879H65.303V31.303H48.9394L47.4242 32.8182V42.3636H48.9394V36.1515H50.303V40.8485H51.8182V36.1515H53.3333V40.8485H55.1515V36.1515H56.2121V40.8485H58.0303V36.1515H59.0909V40.8485H60.9091V36.1515H62.4242V40.8485H64.2424V36.1515H65.303V40.8485H67.1212V36.1515H68.1818V40.8485H70V36.1515H71.5151V40.8485H73.3333V36.1515H74.394V40.8485H76.2121V36.1515H77.2727V40.8485H79.0909V36.1515H80.606V40.8485H82.4242V36.1515H83.4849V40.8485H85.303V36.1515H86.3636V40.8485H88.1818V36.1515H89.6969V40.8485H91.5151V36.1515H92.5758V40.8485H94.3939V36.1515H95.4545V40.8485H97.2727V36.1515H98.7878V40.8485H100.606V36.1515H101.667V40.8485H103.485V36.1515H104.545V40.8485H106.364V36.1515H107.727V40.8485H109.545V36.1515H110.606V40.8485H112.424V36.1515H113.485V40.8485H115.303V36.1515H116.818V40.8485H118.636V36.1515H119.697V40.8485H121.515V36.1515H122.727V40.8485H124.545V36.1515H126.061V40.8485H127.879V36.1515H128.939V40.8485H130.758V36.1515H131.818V40.8485H133.636V36.1515H135V40.8485H136.818V36.1515H137.879V40.8485H139.545V36.1515H140.758V40.8485H142.576V36.1515H144.091V40.8485H145.909V36.1515H146.97V40.8485H148.788V36.1515H149.848V40.8485H151.667V36.1515H153.182V41.9091H151.818V80.0909H148.485V76.9091H144.545V80.0909H142.727V76.9091H138.333V80.0909H136.515V76.9091H132.121V80.0909H130.303V76.9091H126.364V80.0909H124.545V76.9091H120.151V80.0909H118.333V76.9091H113.939V80.0909H112.121V76.9091H108.182V80.0909H106.364V76.9091H101.97V80.0909H100.152V76.9091H95.7575V80.0909H93.9394V76.9091H90V80.0909H88.1818V76.9091H83.7879V80.0909H81.9697V76.9091H77.5757V80.0909H75.7576V76.9091H71.8182V80.0909H70V76.9091H65.606V80.0909H63.7879V76.9091H59.3939V80.0909H57.5758V76.9091H53.6364V80.0909H50.303V42.0606H48.9394L48.7878 80.0909H39.3939L34.8485 75.3939V73.8788H33.4849V75.2424H27.2727V73.8788H18.1818V75.3939H12.4242V74.0303H10.6061V102.818H0V105.697H200V102.818L192.879 102.515ZM51.8182 34.7879H50V32.8182H51.8182V34.7879ZM55 34.7879H53.1818V32.8182H55V34.7879ZM58.0303 34.7879H56.2121V32.8182H58.0303V34.7879ZM60.9091 34.7879H59.0909V32.8182H60.9091V34.7879ZM64.0909 34.7879H62.2727V32.8182H64.0909V34.7879ZM67.1212 34.7879H65.303V32.8182H67.1212V34.7879ZM70 34.7879H68.1818V32.8182H70V34.7879ZM73.1818 34.7879H71.3636V32.8182H73.1818V34.7879ZM74.394 34.7879V32.8182H76.2121V34.7879H74.394ZM79.0909 34.7879H77.2727V32.8182H79.0909V34.7879ZM82.2727 34.7879H80.4546V32.8182H82.2727V34.7879ZM83.4849 34.7879V32.8182H85.303V34.7879H83.4849ZM86.3636 34.7879V32.8182H88.1818V34.7879H86.3636ZM91.3636 34.7879H89.5455V32.8182H91.3636V34.7879ZM94.2424 34.7879H92.4242V32.8182H94.2424V34.7879ZM97.2727 34.7879H95.4545V32.8182H97.2727V34.7879ZM100.455 34.7879H98.6364V32.8182H100.455V34.7879ZM97.2727 29.9394V28.1212H101.667V29.9394H97.2727ZM103.333 34.7879H101.515V32.8182H103.333V34.7879ZM104.545 34.7879V32.8182H106.364V34.7879H104.545ZM109.545 34.7879H107.727V32.8182H109.545V34.7879ZM112.424 34.7879H110.606V32.8182H112.424V34.7879ZM115.455 34.7879H113.636V32.8182H115.455V34.7879ZM118.636 34.7879H116.818V32.8182H118.636V34.7879ZM121.515 34.7879H119.697V32.8182H121.515V34.7879ZM124.545 34.7879H122.727V32.8182H124.545V34.7879ZM127.727 34.7879H125.909V32.8182H127.727V34.7879ZM130.606 34.7879H128.788V32.8182H130.606V34.7879ZM133.636 34.7879H131.818V32.8182H133.636V34.7879ZM136.818 34.7879H135V32.8182H136.818V34.7879ZM139.697 34.7879H137.879V32.8182H139.697V34.7879ZM142.727 34.7879H140.909V32.8182H142.727V34.7879ZM145.909 34.7879H144.091V32.8182H145.909V34.7879ZM148.788 34.7879H146.97V32.8182H148.788V34.7879ZM151.818 34.7879H150V32.8182H151.818V34.7879ZM30.7576 102.515V81.4545H29.2424V102.515H25.9091V79.6363H27.2727V78.2727H18.1818V79.7879H20V102.667H16.8182V81.606H15.303V102.667H12.5757V76.9091H33.6363V102.667L30.7576 102.515ZM163.788 102.515H39.8485V81.4545H163.788V102.515ZM188.182 102.515V81.4545H186.364V102.515H183.485V79.6363H185.303V78.1212H176.212V79.6363H177.727V102.515H174.848V81.4545H172.879V102.515H170V76.7576H191.061V102.515H188.182Z" fill="black"/>
<path d="M0.454529 121.151H13.3333V137.364H10.1515V123.879H3.78788V137.364H0.454529V121.151Z" fill="black"/>
<path d="M16.8182 137.515V121.151H22.1212C24.0909 121.151 25.4545 121.303 26.0606 121.455C26.9697 121.758 27.7273 122.212 28.3333 123.121C28.9394 123.879 29.2424 124.939 29.2424 126.303C29.2424 127.364 29.0909 128.121 28.6364 128.879C28.1818 129.636 27.8788 130.091 27.2727 130.545C26.6667 131 26.2121 131.151 25.6061 131.303C24.8485 131.455 23.6364 131.606 22.2727 131.606H20.1515V137.818H16.8182V137.515ZM20 124.03V128.576H21.8182C23.1818 128.576 23.9394 128.424 24.394 128.273C24.8485 128.121 25.1515 127.818 25.4545 127.515C25.7576 127.212 25.7576 126.758 25.7576 126.303C25.7576 125.697 25.606 125.242 25.303 124.788C25 124.333 24.5455 124.182 23.9394 124.03C23.4848 124.03 22.7273 123.879 21.5151 123.879H20V124.03Z" fill="black"/>
<path d="M44.5455 137.515H41.0606L39.5455 133.727H33.0303L31.6667 137.364H28.1818L34.5454 121.151H38.0303L44.5455 137.515ZM38.6364 131L36.3636 124.939L34.0909 131H38.6364Z" fill="black"/>
<path d="M46.3637 121.151H52.8788C54.0909 121.151 55.1515 121.151 55.7576 121.303C56.3636 121.455 56.9697 121.606 57.4242 121.909C57.8788 122.212 58.3333 122.667 58.6363 123.273C58.9394 123.879 59.0909 124.485 59.0909 125.242C59.0909 126 58.9394 126.758 58.4849 127.364C58.0303 127.97 57.5758 128.424 56.8182 128.727C57.8788 129.03 58.6364 129.485 59.0909 130.242C59.5455 131 59.8485 131.758 59.8485 132.667C59.8485 133.424 59.6969 134.182 59.3939 134.788C59.0909 135.545 58.6364 136 58.0303 136.455C57.4242 136.909 56.6667 137.061 55.7576 137.212C55.1515 137.212 53.9394 137.364 51.8182 137.364H46.2121V121.151H46.3637ZM49.697 123.879V127.667H54.2424C54.8485 127.667 55.303 127.364 55.606 127.061C55.9091 126.758 56.0606 126.303 56.0606 125.848C56.0606 125.394 55.9091 124.939 55.606 124.636C55.303 124.333 54.8485 124.182 54.3939 124.03H49.697V123.879ZM49.697 130.394V134.788H52.7273C53.9394 134.788 54.697 134.788 55 134.636C55.4545 134.485 55.9091 134.333 56.2121 134.03C56.5152 133.727 56.6667 133.273 56.6667 132.667C56.6667 132.212 56.5151 131.758 56.3636 131.455C56.2121 131.151 55.7576 130.848 55.303 130.697C54.8485 130.545 53.9394 130.394 52.4243 130.394H49.697Z" fill="black"/>
<path d="M62.8788 121.151H65.9091V131.909L72.5758 121.151H75.9091V137.364H72.8788V126.758L66.3636 137.364H63.0303V121.151H62.8788Z" fill="black"/>
<path d="M82.7273 137.515V124.03H77.8788V121.303H90.7576V124.03H85.9091V137.515H82.7273Z" fill="black"/>
<path d="M93.0303 137.515V121.151H105.152V123.879H96.3637V127.515H104.545V130.242H96.3637V134.636H105.455V137.364H93.0303V137.515Z" fill="black"/>
<path d="M109.242 121.151H120.606V137.364H117.273V123.879H112.424V130.848C112.424 132.818 112.424 134.182 112.273 135.091C112.121 135.848 111.818 136.455 111.364 136.909C110.909 137.364 110 137.515 108.939 137.515C108.485 137.515 107.879 137.515 106.818 137.364V134.788H107.576C108.333 134.788 108.788 134.636 108.939 134.485C109.091 134.333 109.242 133.879 109.242 133.121V121.151Z" fill="black"/>
<path d="M124.091 121.151H127.424V127.667H131.818C133.939 127.667 135.455 128.121 136.364 129.182C137.273 130.091 137.727 131.303 137.727 132.667C137.727 133.727 137.424 134.788 136.818 135.545C136.212 136.303 135.606 136.909 134.849 137.061C134.091 137.364 133.03 137.515 131.667 137.515H123.939V121.151H124.091ZM127.424 134.788H130.606C131.667 134.788 132.424 134.788 132.727 134.636C133.182 134.485 133.485 134.333 133.788 133.879C134.091 133.576 134.242 133.121 134.242 132.515C134.242 131.758 133.939 131.151 133.485 130.848C132.879 130.545 131.97 130.394 130.758 130.394H127.424V134.788Z" fill="black"/>
<path d="M150.303 131.455L153.485 132.515C153.03 134.333 152.121 135.545 151.061 136.455C149.848 137.364 148.485 137.818 146.667 137.818C144.545 137.818 142.727 137.061 141.364 135.545C140 134.03 139.242 132.061 139.242 129.485C139.242 126.758 140 124.636 141.364 123.121C142.727 121.606 144.545 120.849 146.818 120.849C148.788 120.849 150.455 121.455 151.667 122.667C152.424 123.424 153.03 124.333 153.333 125.697L150.152 126.455C150 125.545 149.545 124.939 148.939 124.485C148.333 124.03 147.576 123.727 146.667 123.727C145.455 123.727 144.545 124.182 143.788 125.091C143.03 126 142.727 127.364 142.727 129.333C142.727 131.455 143.03 132.818 143.788 133.727C144.545 134.636 145.455 135.091 146.667 135.091C147.576 135.091 148.333 134.788 148.939 134.333C149.545 133.576 150 132.667 150.303 131.455Z" fill="black"/>
<path d="M159.394 137.515V124.03H154.545V121.303H167.424V124.03H162.576V137.515H159.394Z" fill="black"/>
<path d="M169.545 121.151H176.061C177.273 121.151 178.333 121.151 178.939 121.303C179.545 121.455 180.152 121.606 180.606 121.909C181.061 122.212 181.515 122.667 181.818 123.273C182.121 123.879 182.273 124.485 182.273 125.242C182.273 126 182.121 126.758 181.667 127.364C181.212 127.97 180.758 128.424 180 128.727C181.061 129.03 181.818 129.485 182.273 130.242C182.727 131 183.03 131.758 183.03 132.667C183.03 133.424 182.879 134.182 182.576 134.788C182.273 135.545 181.818 136 181.212 136.455C180.606 136.909 179.848 137.061 178.939 137.212C178.333 137.212 177.121 137.364 175 137.364H169.394V121.151H169.545ZM172.879 123.879V127.667H177.424C178.03 127.667 178.485 127.364 178.788 127.061C179.091 126.758 179.242 126.303 179.242 125.848C179.242 125.394 179.091 124.939 178.788 124.636C178.485 124.333 178.03 124.182 177.576 124.03H172.879V123.879ZM172.879 130.394V134.788H175.909C177.121 134.788 177.879 134.788 178.182 134.636C178.636 134.485 179.091 134.333 179.394 134.03C179.697 133.727 179.848 133.273 179.848 132.667C179.848 132.212 179.697 131.758 179.545 131.455C179.394 131.151 178.939 130.848 178.485 130.697C178.03 130.545 177.121 130.394 175.606 130.394H172.879Z" fill="black"/>
<path d="M184.849 129.485C184.849 127.818 185.152 126.455 185.606 125.242C185.909 124.485 186.515 123.727 187.121 122.97C187.727 122.364 188.485 121.758 189.242 121.455C190.303 121 191.364 120.849 192.727 120.849C195.152 120.849 196.97 121.606 198.485 123.121C199.849 124.636 200.606 126.606 200.606 129.333C200.606 131.909 199.849 134.03 198.485 135.545C197.121 137.061 195.152 137.818 192.727 137.818C190.303 137.818 188.333 137.061 186.97 135.545C185.455 134.03 184.849 132.061 184.849 129.485ZM188.182 129.333C188.182 131.152 188.636 132.515 189.394 133.576C190.303 134.485 191.364 134.939 192.576 134.939C193.939 134.939 195 134.485 195.758 133.576C196.667 132.667 196.97 131.152 196.97 129.333C196.97 127.515 196.515 126.152 195.758 125.091C195 124.182 193.788 123.727 192.576 123.727C191.212 123.727 190.152 124.182 189.242 125.091C188.636 126 188.182 127.515 188.182 129.333Z" fill="black"/>
<path d="M19.0909 161V144.636H24.394C26.3637 144.636 27.7273 144.788 28.3333 144.939C29.2424 145.242 30 145.697 30.606 146.606C31.2121 147.364 31.5151 148.424 31.5151 149.788C31.5151 150.848 31.3636 151.606 30.9091 152.364C30.4545 153.121 30.1515 153.576 29.5455 154.03C28.9394 154.485 28.4848 154.636 27.8788 154.788C27.1212 154.939 25.9091 155.091 24.5454 155.091H22.4242V161H19.0909ZM22.4242 147.515V152.061H24.2424C25.6061 152.061 26.3636 151.909 26.8182 151.758C27.2727 151.606 27.5758 151.303 27.8788 151C28.1818 150.697 28.1818 150.242 28.1818 149.788C28.1818 149.182 28.0303 148.727 27.7273 148.273C27.4242 147.818 26.9697 147.667 26.3636 147.515C25.9091 147.515 25.1515 147.364 23.9394 147.364H22.4242V147.515Z" fill="black"/>
<path d="M33.6364 152.97C33.6364 151.303 33.9394 149.939 34.3939 148.727C34.697 147.97 35.303 147.212 35.9091 146.455C36.5151 145.849 37.2728 145.242 38.0303 144.939C39.0909 144.485 40.1515 144.333 41.5152 144.333C43.9394 144.333 45.7576 145.091 47.2727 146.606C48.6364 148.121 49.394 150.091 49.394 152.818C49.394 155.394 48.6364 157.515 47.2727 159.03C45.9091 160.545 43.9394 161.303 41.5152 161.303C39.0909 161.303 37.1212 160.545 35.7576 159.03C34.394 157.515 33.6364 155.545 33.6364 152.97ZM36.9697 152.818C36.9697 154.636 37.4242 156 38.1818 157.061C39.0909 157.97 40.1515 158.424 41.3636 158.424C42.7273 158.424 43.7879 157.97 44.5455 157.061C45.4546 156.152 45.7576 154.636 45.7576 152.818C45.7576 151 45.303 149.636 44.5455 148.576C43.7879 147.667 42.5758 147.212 41.3636 147.212C40 147.212 38.9394 147.667 38.0303 148.576C37.4243 149.485 36.9697 151 36.9697 152.818Z" fill="black"/>
<path d="M62.7273 154.939L65.9091 156C65.4546 157.818 64.5455 159.03 63.4849 159.939C62.2727 160.849 60.9091 161.303 59.0909 161.303C56.9697 161.303 55.1515 160.545 53.7879 159.03C52.4243 157.515 51.6667 155.545 51.6667 152.97C51.6667 150.242 52.4243 148.121 53.7879 146.606C55.1515 145.091 56.9697 144.333 59.2424 144.333C61.2121 144.333 62.8788 144.939 64.0909 146.152C64.8485 146.909 65.4545 147.818 65.7576 149.182L62.5758 149.939C62.4242 149.03 61.9697 148.424 61.3636 147.97C60.7576 147.515 60 147.212 59.0909 147.212C57.8788 147.212 56.9697 147.667 56.2121 148.576C55.4546 149.485 55.1515 150.849 55.1515 152.818C55.1515 154.939 55.4546 156.303 56.2121 157.212C56.9697 158.121 57.8788 158.576 59.0909 158.576C60 158.576 60.7576 158.273 61.3636 157.818C61.9697 157.061 62.4242 156.152 62.7273 154.939Z" fill="black"/>
<path d="M79.3939 154.939L82.5758 156C82.1212 157.818 81.2121 159.03 80.1515 159.939C78.9394 160.849 77.5758 161.303 75.7576 161.303C73.6364 161.303 71.8182 160.545 70.4545 159.03C69.0909 157.515 68.3333 155.545 68.3333 152.97C68.3333 150.242 69.0909 148.121 70.4545 146.606C71.8182 145.091 73.6364 144.333 75.9091 144.333C77.8788 144.333 79.5454 144.939 80.7576 146.152C81.5151 146.909 82.1212 147.818 82.4242 149.182L79.2424 149.939C79.0909 149.03 78.6364 148.424 78.0303 147.97C77.4242 147.515 76.6667 147.212 75.7576 147.212C74.5455 147.212 73.6364 147.667 72.8788 148.576C72.1212 149.485 71.8182 150.849 71.8182 152.818C71.8182 154.939 72.1212 156.303 72.8788 157.212C73.6364 158.121 74.5455 158.576 75.7576 158.576C76.6667 158.576 77.4242 158.273 78.0303 157.818C78.7879 157.061 79.2424 156.152 79.3939 154.939Z" fill="black"/>
<path d="M85.9091 144.636H88.9394V155.394L95.6061 144.636H98.9394V161H95.9091V150.394L89.3939 161H86.0606V144.636H85.9091Z" fill="black"/>
<path d="M102.576 144.636H105.606V155.394L112.273 144.636H115.606V161H112.576V150.394L106.061 161H102.727V144.636H102.576ZM110.909 140.697H112.424C112.273 141.758 111.97 142.515 111.364 143.121C110.758 143.727 110 144.03 108.939 144.03C107.879 144.03 107.121 143.727 106.515 143.121C105.909 142.515 105.606 141.758 105.455 140.697H106.97C106.97 141.152 107.273 141.606 107.576 141.909C107.879 142.212 108.333 142.364 108.939 142.364C109.545 142.364 110 142.212 110.303 141.909C110.758 141.606 110.909 141.152 110.909 140.697Z" fill="black"/>
<path d="M129.545 154.939L132.727 156C132.273 157.818 131.364 159.03 130.303 159.939C129.091 160.849 127.727 161.303 125.909 161.303C123.788 161.303 121.97 160.545 120.606 159.03C119.242 157.515 118.485 155.545 118.485 152.97C118.485 150.242 119.242 148.121 120.606 146.606C121.97 145.091 123.788 144.333 126.061 144.333C128.03 144.333 129.697 144.939 130.909 146.152C131.667 146.909 132.273 147.818 132.576 149.182L129.394 149.939C129.242 149.03 128.788 148.424 128.182 147.97C127.576 147.515 126.818 147.212 125.909 147.212C124.697 147.212 123.788 147.667 123.03 148.576C122.273 149.485 121.97 150.849 121.97 152.818C121.97 154.939 122.273 156.303 123.03 157.212C123.788 158.121 124.697 158.576 125.909 158.576C126.818 158.576 127.576 158.273 128.182 157.818C128.788 157.061 129.242 156.152 129.545 154.939Z" fill="black"/>
<path d="M135.909 144.636H139.242V151.606C140 151.606 140.455 151.303 140.758 151C141.061 150.697 141.364 149.788 141.97 148.424C142.576 146.606 143.333 145.545 144.091 145.091C144.697 144.636 145.909 144.485 147.424 144.485H147.879V146.909H147.424C146.818 146.909 146.212 147.061 145.909 147.212C145.606 147.364 145.303 147.667 145.152 147.97C145 148.273 144.697 149.03 144.242 150.091C144.091 150.697 143.788 151.152 143.636 151.455C143.333 151.758 143.03 152.212 142.424 152.515C143.182 152.667 143.788 153.121 144.242 153.727C144.697 154.333 145.303 155.242 145.758 156.455L148.03 160.849H144.091L142.121 156.606C142.121 156.606 141.97 156.455 141.97 156.303C141.97 156.303 141.818 156 141.515 155.545C141.061 154.788 140.758 154.182 140.455 154.03C140.152 153.879 139.697 153.727 139.242 153.727V161H135.909V144.636Z" fill="black"/>
<path d="M149.394 152.97C149.394 151.303 149.697 149.939 150.151 148.727C150.455 147.97 151.061 147.212 151.667 146.455C152.273 145.849 153.03 145.242 153.788 144.939C154.848 144.485 155.909 144.333 157.273 144.333C159.697 144.333 161.515 145.091 163.03 146.606C164.394 148.121 165.152 150.091 165.152 152.818C165.152 155.394 164.394 157.515 163.03 159.03C161.667 160.545 159.697 161.303 157.273 161.303C154.848 161.303 152.879 160.545 151.515 159.03C150.152 157.515 149.394 155.545 149.394 152.97ZM152.879 152.818C152.879 154.636 153.333 156 154.091 157.061C155 157.97 156.061 158.424 157.273 158.424C158.636 158.424 159.697 157.97 160.455 157.061C161.364 156.152 161.667 154.636 161.667 152.818C161.667 151 161.212 149.636 160.455 148.576C159.697 147.667 158.485 147.212 157.273 147.212C155.909 147.212 154.848 147.667 153.939 148.576C153.333 149.485 152.879 151 152.879 152.818Z" fill="black"/>
<path d="M168.182 144.636H171.212V155.394L177.879 144.636H181.212V161H178.182V150.394L171.667 161H168.333V144.636H168.182ZM176.667 140.697H178.182C178.03 141.758 177.727 142.515 177.121 143.121C176.515 143.727 175.758 144.03 174.697 144.03C173.636 144.03 172.879 143.727 172.273 143.121C171.667 142.515 171.364 141.758 171.212 140.697H172.727C172.727 141.152 173.03 141.606 173.333 141.909C173.636 142.212 174.091 142.364 174.697 142.364C175.303 142.364 175.758 142.212 176.061 141.909C176.364 141.606 176.515 141.152 176.667 140.697Z" fill="black"/>
<path d="M37.7273 182.515V184.485H34.5454V182.515C31.9697 182.364 30.1515 181.758 29.0909 180.545C28.0303 179.333 27.4243 177.818 27.4243 176.152C27.4243 174.333 28.0303 172.818 29.0909 171.606C30.1515 170.394 31.9697 169.788 34.5454 169.788V168.121H37.7273V169.788C40.303 169.939 42.1212 170.545 43.1818 171.758C44.2424 172.97 44.8485 174.485 44.8485 176.303C44.8485 178.121 44.2424 179.636 43.1818 180.697C42.1212 181.758 40.303 182.515 37.7273 182.515ZM34.5454 179.788V172.515C33.1818 172.515 32.1212 172.818 31.5151 173.424C30.9091 174.03 30.606 174.939 30.606 176.152C30.606 178.576 31.8182 179.788 34.5454 179.788ZM37.7273 179.788C38.6364 179.788 39.3939 179.636 40 179.333C40.6061 179.03 41.0606 178.727 41.3636 178.121C41.6667 177.667 41.8182 176.909 41.8182 176C41.8182 173.576 40.4545 172.515 37.8788 172.515V179.788H37.7273Z" fill="black"/>
<path d="M47.7273 184.485V168.273H59.8485V171H51.0606V174.636H59.2424V177.364H51.0606V181.758H60.1515V184.485H47.7273Z" fill="black"/>
<path d="M64.5455 168.121H75.7576V181.606H77.1212V187.818H74.394V184.333H64.0909V187.818H61.3636V181.606H62.7273C63.3333 180.242 63.7879 178.576 64.0909 176.758C64.2424 174.939 64.394 172.667 64.394 169.788V168.121H64.5455ZM67.7273 170.848C67.7273 175.848 67.2727 179.333 66.3636 181.606H72.5758V170.848H67.7273Z" fill="black"/>
<path d="M79.8485 184.485V168.273H91.9697V171H83.1818V174.636H91.3636V177.364H83.1818V181.758H92.2727V184.485H79.8485Z" fill="black"/>
<path d="M95.303 184.485V168.273H100.606C102.576 168.273 103.939 168.424 104.545 168.576C105.455 168.879 106.212 169.333 106.818 170.242C107.424 171 107.727 172.061 107.727 173.424C107.727 174.485 107.576 175.242 107.121 176C106.667 176.758 106.364 177.212 105.758 177.667C105.152 178.121 104.697 178.273 104.091 178.424C103.333 178.576 102.121 178.727 100.758 178.727H98.6364V184.939H95.303V184.485ZM98.6364 171V175.545H100.455C101.818 175.545 102.576 175.394 103.03 175.242C103.485 175.091 103.788 174.788 104.091 174.485C104.394 174.182 104.394 173.727 104.394 173.273C104.394 172.667 104.242 172.212 103.939 171.758C103.636 171.303 103.182 171.151 102.576 171C102.121 171 101.364 170.848 100.152 170.848H98.6364V171Z" fill="black"/>
<path d="M123.485 184.485H119.848L118.485 180.848H111.97L110.606 184.485H107.121L113.485 168.273H116.97L123.485 184.485ZM117.424 177.97L115.152 171.909L112.879 177.97H117.424Z" fill="black"/>
<path d="M125.606 168.121H128.939V181.606H135.303V168.121H138.636V181.606H140V187.818H137.273V184.333H125.758V168.121H125.606Z" fill="black"/>
<path d="M142.576 168.121H145.606V178.879L152.273 168.121H155.606V184.333H152.576V173.727L146.061 184.333H142.576V168.121Z" fill="black"/>
<path d="M159.242 168.121H162.273V178.879L168.939 168.121H172.273V184.333H169.242V173.727L162.727 184.333H159.242V168.121Z" fill="black"/>
</g>
<defs>
<clipPath id="clip0_6586_364">
<rect width="200" height="177.273" fill="white" transform="translate(0 11)"/>
</clipPath>
</defs>
</svg>
