<svg width="200" height="200" viewBox="0 0 200 200" fill="none" xmlns="http://www.w3.org/2000/svg">
<g clip-path="url(#clip0_8008_286)">
<path d="M55.8552 99.9276C55.8552 115.35 43.3534 127.855 27.9276 127.855C12.5018 127.855 0 115.35 0 99.9276C0 84.5053 12.5018 72 27.9276 72C43.3534 72 55.8552 84.5053 55.8552 99.9276Z" fill="#102D69"/>
<path d="M40.671 110.924C40.671 104.056 38.4508 99.4374 32.7007 97.4063C34.5182 96.6639 35.6212 95.5188 36.3426 94.6503C37.7224 93.0605 38.2897 91.1134 38.2897 89.2714C38.2897 87.7796 37.88 84.81 35.2641 82.7614C33.4711 81.3747 31.8812 80.7058 28.0887 80.7058H26.1696C26.1101 80.7058 26.0541 80.7058 25.9805 80.7058H18.0593V118.103H40.671V110.927V110.924ZM26.7194 98.2678C33.0754 98.2678 35.5512 102.495 35.5512 110.227V116.04H31.475V103.559H26.765V116.054H23.165V82.5688H26.8665C28.2533 82.5688 30.3544 82.8805 31.8427 84.726C32.6166 85.6575 33.0929 86.9007 33.2575 88.1508H26.7685V89.9928H33.317C33.2645 91.1835 33.0228 92.5142 31.8567 93.929C30.8307 95.2106 29.1463 96.4013 26.765 96.4013H26.7264V98.2678H26.7194Z" fill="white"/>
<path d="M89.1477 107.565H99.4957V90.8367H91.9877C91.9877 99.791 91.613 103.436 89.1477 107.565ZM117.513 117.966H72.7938V107.565H77.4058C81.6956 101.934 82.1229 91.2114 82.1229 80.436H111.076V107.565H117.509V117.966H117.513Z" fill="#102D69"/>
<path d="M157.116 80.4326V117.966H145.535V90.8367H133.093V117.966H121.512V80.4326H157.116Z" fill="#102D69"/>
<path d="M180.428 107.513C185.523 107.513 188.255 103.867 188.255 99.2027C188.255 94.5382 185.52 90.8927 180.428 90.8927C175.336 90.8927 172.601 94.5382 172.601 99.2027C172.601 103.867 175.336 107.513 180.428 107.513ZM180.428 79.6306C191.207 79.6306 200 88.3713 200 99.2027C200 110.034 191.207 118.775 180.428 118.775C169.649 118.775 160.856 110.034 160.856 99.2027C160.856 88.3713 169.597 79.6306 180.428 79.6306Z" fill="#102D69"/>
</g>
<defs>
<clipPath id="clip0_8008_286">
<rect width="200" height="55.8552" fill="white" transform="translate(0 72)"/>
</clipPath>
</defs>
</svg>
