<svg width="200" height="200" viewBox="0 0 200 200" fill="none" xmlns="http://www.w3.org/2000/svg">
<g clip-path="url(#clip0_8008_194)">
<path d="M93.4615 83.6263C92.9121 84.0658 92.5275 84.7252 92.3626 85.4944C92.2527 86.2087 92.3626 87.0878 92.8571 87.8571C92.9121 87.912 92.967 88.0219 93.022 88.0769C93.2418 88.3516 93.5165 88.6263 93.7912 88.956C96.8681 91.8131 100.604 93.901 103.791 95.4944C105.989 96.5933 107.253 97.8021 107.747 99.6702C108.462 96.2636 107.747 94.5604 107.088 93.5714C105.934 91.7032 104.066 90.8241 103.901 90.7142C101.264 89.2307 97.6374 87.4725 95.4396 85.6043C94.6154 84.89 93.956 84.1757 93.6813 83.4065C93.6264 83.4614 93.5165 83.5164 93.4615 83.6263Z" fill="url(#paint0_linear_8008_194)"/>
<path d="M92.033 89.7803C91.2088 90.5495 90.6593 91.7034 90.6593 92.6924C90.6593 93.4616 90.7692 94.2309 91.4835 95.4396C94.1209 99.9451 102.527 103.462 104.615 104.725C106.154 105.659 107.418 107.033 107.857 109.121C108.242 106.758 108.352 104.231 107.692 102.692C106.868 100.769 105.714 99.7254 104.011 98.7913C101.264 97.3078 97.3626 95.055 94.3956 92.3627C93.3516 91.5385 92.4725 90.7143 92.033 89.7803Z" fill="url(#paint1_linear_8008_194)"/>
<path d="M98.6813 85.6043C96.8132 86.7582 94.1209 87.7472 92.0879 89.7801C91.2088 90.5494 90.6593 91.7032 90.6593 92.6922C90.6593 93.4615 90.7692 94.2307 91.4835 95.4395C91.4835 94.5054 92.4176 93.0768 94.2308 92.0329C96.1538 90.879 99.4505 89.2856 101.484 86.9779C102.747 85.5494 101.978 83.7911 100.44 83.3516C100.769 84.3406 99.3407 85.1647 98.6813 85.6043Z" fill="url(#paint2_linear_8008_194)"/>
<path d="M96.8132 81.5934C95.8791 82.033 94.7253 82.5824 93.6813 83.3516C93.5714 83.4066 93.5165 83.5165 93.4066 83.5714C92.8571 84.011 92.4725 84.6703 92.3077 85.4396C92.1978 86.1538 92.3077 87.033 92.8022 87.8022C92.8571 87.8571 92.9121 87.967 92.967 88.022C93.022 86.8681 93.9011 86.044 95.3297 85.3297C96.7582 84.5604 98.0769 83.6264 98.9011 82.8022C99.8901 81.7582 99.0659 80.1648 98.1319 80C98.3516 80.8242 97.4725 81.3187 96.8132 81.5934Z" fill="url(#paint3_linear_8008_194)"/>
<path d="M89.9451 98.1318C88.1868 100.604 88.2967 102.637 89.4506 104.451C91.4286 107.472 96.3736 109.78 100.33 111.758C102.253 112.747 104.011 113.791 105.44 115.44C106.374 116.538 107.198 117.857 107.747 119.56H107.802C108.242 117.143 108.187 114.066 107.582 112.363C107.033 110.714 105.824 109.011 103.407 107.472C100.275 105.494 95.4396 103.681 92.5824 100.989C91.4835 99.8351 90.3846 99.011 89.9451 98.1318C90 98.1318 90 98.1318 89.9451 98.1318Z" fill="url(#paint4_linear_8008_194)"/>
<path d="M101.484 90.0549C98.5165 92.2527 92.6923 95 90 98.0769C90 98.0769 90 98.1318 89.9451 98.1318C88.1868 100.604 88.2967 102.637 89.4506 104.451C89.4506 103.516 90.8242 102.198 92.6374 100.769C95.8242 98.1868 101.484 95.8791 104.67 91.7582C105.824 90.2747 105.055 87.8571 103.352 87.1978C103.736 88.1318 102.692 89.1208 101.484 90.0549Z" fill="url(#paint5_linear_8008_194)"/>
<path d="M120.457 90.989V94.5212H120.879V96.4835H119.294V95.6986H116.97V96.4835H115.385V94.5212H115.807C116.124 93.9325 116.23 93.2457 116.23 92.1664V90.989H120.457ZM117.815 92.0683V92.5588C117.815 93.3438 117.709 94.0306 117.392 94.5212H118.766V92.0683H117.815Z" fill="#0767B0"/>
<path d="M124.692 90.989L126.374 95.9341H124.89L124.692 95.3028H123.11L122.912 95.9341H121.429L123.11 90.989H124.692ZM124.396 94.2507L123.901 92.462L123.407 94.2507H124.396Z" fill="#0767B0"/>
<path d="M131.868 90.989V95.831H130.354V92.1223H129.244V93.4615C129.244 95.419 128.638 95.9341 127.73 95.9341C127.427 95.9341 127.226 95.9341 126.923 95.831V94.6978C127.024 94.6978 127.125 94.6978 127.327 94.6978C127.63 94.6978 127.831 94.5948 127.831 93.4615V90.989H131.868Z" fill="#0767B0"/>
<path d="M134.302 92.6724H135.126C136.538 92.6724 137.363 93.1985 137.363 94.3559C137.363 95.408 136.538 95.9341 135.008 95.9341H132.418V90.989H134.184V92.6724H134.302ZM134.302 94.6715H135.008C135.479 94.6715 135.832 94.5663 135.832 94.2507C135.832 93.8298 135.361 93.8298 134.89 93.8298H134.419V94.6715H134.302Z" fill="#0767B0"/>
<path d="M139.56 92.7776H141.209V90.989H142.857V95.9341H141.209V93.935H139.56V95.9341H137.912V90.989H139.56V92.7776Z" fill="#0767B0"/>
<path d="M148.352 90.989V92.1464H145.435V92.8829H147.845V94.0402H145.435V94.7767H148.352V95.9341H143.407V90.989H148.352Z" fill="#0767B0"/>
<path d="M148.901 90.989H151.431C152.696 90.989 153.616 91.1995 153.616 92.2516C153.616 92.7776 153.271 93.0933 152.926 93.3037C153.501 93.409 153.846 93.935 153.846 94.461C153.846 95.6184 152.926 95.9341 151.546 95.9341H148.901V90.989ZM150.626 92.9881H151.316C151.661 92.9881 151.891 92.8829 151.891 92.5672C151.891 92.1464 151.546 92.1464 151.201 92.1464H150.626V92.9881ZM150.626 94.7767H151.431C151.891 94.7767 152.236 94.6715 152.236 94.3559C152.236 93.935 151.776 93.935 151.316 93.935H150.741V94.7767H150.626Z" fill="#0767B0"/>
<path d="M159.341 93.4141C159.341 95.0269 158.253 95.9341 156.868 95.9341C155.385 95.9341 154.396 95.0269 154.396 93.4141C154.396 91.9021 155.385 90.9949 156.868 90.9949C158.549 90.8941 159.341 92.1037 159.341 93.4141ZM155.978 93.4141C155.978 94.0189 156.176 94.8253 156.868 94.8253C157.56 94.8253 157.758 94.2205 157.758 93.4141C157.758 92.8093 157.462 92.1037 156.868 92.1037C156.176 92.1037 155.978 92.8093 155.978 93.4141Z" fill="#0767B0"/>
<path d="M163.257 92.967C163.257 92.4725 162.836 92.1758 162.415 92.1758C161.889 92.1758 161.468 92.6703 161.468 93.5604C161.468 94.2528 161.574 94.8462 162.415 94.8462C162.941 94.8462 163.152 94.5495 163.257 94.0549H164.835C164.73 95.2418 163.783 95.9341 162.52 95.9341C160.837 95.9341 159.89 94.9451 159.89 93.4615C159.89 91.978 160.942 90.989 162.31 90.989C163.783 90.989 164.625 91.6813 164.835 92.8681H163.257V92.967Z" fill="#0767B0"/>
<path d="M168.72 95.9341H166.994V92.1464H165.385V90.989H170.33V92.1464H168.72V95.9341Z" fill="#0767B0"/>
<path d="M175.824 93.4141C175.824 95.0269 174.736 95.9341 173.352 95.9341C171.868 95.9341 170.879 95.0269 170.879 93.4141C170.879 91.9021 171.868 90.9949 173.352 90.9949C175.033 90.8941 175.824 92.1037 175.824 93.4141ZM172.462 93.4141C172.462 94.0189 172.659 94.8253 173.352 94.8253C174.044 94.8253 174.242 94.2205 174.242 93.4141C174.242 92.8093 173.945 92.1037 173.352 92.1037C172.659 92.1037 172.462 92.8093 172.462 93.4141Z" fill="#0767B0"/>
<path d="M178.099 91.1951V92.4313C178.099 92.8434 178.329 92.9464 178.788 92.9464C179.134 92.9464 179.479 92.9464 179.593 92.8434V90.989H181.319V95.9341H179.593V93.9767C179.249 94.0797 179.019 94.0797 178.099 94.0797C177.293 94.0797 176.374 93.6676 176.374 92.5343V90.989H178.099V91.1951Z" fill="#0767B0"/>
<path d="M183.588 92.7776H185.093V90.989H186.813V95.9341H185.093V93.935H183.588V95.9341H181.868V90.989H183.588V92.7776Z" fill="#0767B0"/>
<path d="M189.024 92.7159H189.854C191.183 92.7159 192.014 93.2653 192.014 94.3642C192.014 95.4631 191.183 95.9341 189.854 95.9341H187.363V90.989H189.107V92.7159H189.024ZM189.024 94.7567H189.688C190.103 94.7567 190.436 94.6782 190.436 94.2857C190.436 93.8148 190.02 93.8148 189.522 93.8148H189.107V94.7567H189.024ZM194.505 95.9341H192.762V90.989H194.505V95.9341Z" fill="#0767B0"/>
<path d="M200 91.1345V95.9341H198.352V94.4676L198.462 93.2943L196.593 95.9341H195.055V91.1345H195.879H196.703V92.8055L196.593 93.9787L198.462 91.1345H200ZM196.868 89.8901C196.868 90.2812 197.308 90.2812 197.637 90.2812C198.077 90.2812 198.297 90.1835 198.297 89.8901H198.846C198.846 90.5745 198.187 90.8678 197.527 90.8678C196.758 90.8678 196.319 90.5745 196.209 89.8901H196.868Z" fill="#0767B0"/>
<path d="M119.774 98.6814V99.2223H120.204C121.753 99.2223 122.527 100.072 122.527 101.077C122.527 102.158 121.839 102.931 120.29 102.931H119.86V103.626H118.052V102.931H117.622C116.073 102.931 115.385 102.158 115.385 101.077C115.385 100.072 116.073 99.2223 117.708 99.2223H118.138V98.6814H119.774ZM117.966 100.381H117.708C117.192 100.381 116.934 100.613 116.934 101.077C116.934 101.463 117.106 101.772 117.622 101.772H117.966V100.381ZM119.774 101.695H120.118C120.548 101.695 120.806 101.386 120.806 100.999C120.806 100.536 120.548 100.304 120.032 100.304H119.774V101.695Z" fill="#0767B0"/>
<path d="M127.927 98.6814V99.7803H124.979V100.487H127.452V101.664H124.979V102.449H128.022V103.626H123.077V98.6814H127.927Z" fill="#0767B0"/>
<path d="M133.588 98.6814V102.344H134.066V104.176H132.473V103.489H130.164V104.176H128.571V102.344H128.97C129.288 101.658 129.447 100.971 129.447 99.9024V98.6814H133.588ZM130.96 99.7497V100.284C130.96 101.047 130.881 101.81 130.562 102.344H131.996V99.7497H130.96Z" fill="#0767B0"/>
<path d="M139.374 98.6814V99.7803H136.575V100.487H139.001V101.664H136.575V102.449H139.56V103.626H134.615V98.6814H139.374Z" fill="#0767B0"/>
<path d="M141.932 103.626H140.11V98.6814H142.713C144.274 98.6814 145.055 99.3094 145.055 100.33C145.055 101.429 144.361 102.057 142.799 102.057H141.932V103.626ZM141.932 100.879H142.713C143.146 100.879 143.407 100.722 143.407 100.33C143.407 99.8588 142.799 99.7803 142.452 99.7803H141.932V100.879Z" fill="#0767B0"/>
<path d="M148.277 98.6814L150 103.626H148.426L148.277 102.998H146.703L146.553 103.626H145.055L146.778 98.6814H148.277ZM147.977 101.9L147.453 100.094L147.003 101.9H147.977Z" fill="#0767B0"/>
<path d="M155.495 98.6814V103.549H153.945V99.7631H152.837V101.154C152.837 103.086 152.247 103.626 151.362 103.626C151.066 103.626 150.845 103.626 150.549 103.549V102.39C150.623 102.39 150.697 102.467 150.919 102.467C151.214 102.467 151.362 102.313 151.362 101.154V98.6814H155.495Z" fill="#0767B0"/>
<path d="M157.81 100.408H158.693C160.106 100.408 160.989 100.958 160.989 102.057C160.989 103.156 160.106 103.626 158.693 103.626H156.044V98.6814H157.898V100.408H157.81ZM157.81 102.449H158.516C158.958 102.449 159.311 102.371 159.311 101.978C159.311 101.507 158.87 101.507 158.34 101.507H157.898V102.449H157.81Z" fill="#0767B0"/>
<path d="M163.187 100.408H164.835V98.6814H166.484V103.626H164.835V101.507H163.187V103.626H161.538V98.6814H163.187V100.408Z" fill="#0767B0"/>
<path d="M168.694 100.408H169.525C170.853 100.408 171.684 100.958 171.684 102.057C171.684 103.156 170.853 103.626 169.525 103.626H167.033V98.6814H168.777V100.408H168.694ZM168.694 102.449H169.359C169.774 102.449 170.106 102.371 170.106 101.978C170.106 101.507 169.691 101.507 169.192 101.507H168.777V102.449H168.694ZM174.176 103.626H172.432V98.6814H174.176V103.626Z" fill="#0767B0"/>
<path d="M179.67 98.8269V103.626H178.022V102.16L178.132 100.987L176.264 103.626H174.725V98.8269H175.549H176.374V100.498L176.264 101.671L178.132 98.8269H179.67ZM176.538 97.5825C176.538 97.9736 176.978 97.9736 177.308 97.9736C177.747 97.9736 177.967 97.8759 177.967 97.5825H178.516C178.516 98.2669 177.857 98.5602 177.198 98.5602C176.429 98.5602 175.989 98.2669 175.879 97.5825H176.538Z" fill="#0767B0"/>
<path d="M117.269 106.374L118.132 108.281L118.995 106.374H120.879L118.917 110.118C118.446 110.965 117.975 111.319 117.347 111.319C117.033 111.319 116.719 111.248 116.562 111.177V110.118C116.641 110.118 116.719 110.188 116.954 110.188C117.112 110.188 117.269 110.118 117.347 109.906L115.385 106.374H117.269Z" fill="#0767B0"/>
<path d="M123.077 108.119H124.651V106.374H126.374V111.319H124.651V109.282H123.077V111.319H121.429V106.374H123.077V108.119Z" fill="#0767B0"/>
<path d="M131.868 106.374V111.319H130.27V109.791L130.347 108.482L128.521 111.319H126.923V106.374H128.521V107.973L128.445 109.21L130.347 106.374H131.868Z" fill="#0767B0"/>
<path d="M132.497 106.374H135.049C136.246 106.374 137.203 106.66 137.203 107.592C137.203 108.094 136.804 108.452 136.485 108.667C137.043 108.81 137.363 109.24 137.363 109.814C137.363 110.889 136.405 111.319 135.049 111.319H132.418V106.374H132.497ZM134.252 108.309H134.97C135.289 108.309 135.608 108.165 135.608 107.879C135.608 107.52 135.289 107.52 134.89 107.52H134.252V108.309ZM134.252 110.1H135.049C135.448 110.1 135.847 110.029 135.847 109.67C135.847 109.24 135.448 109.24 134.89 109.24H134.332V110.1H134.252Z" fill="#0767B0"/>
<path d="M142.857 106.374V107.537H139.855V108.264H142.327V109.428H139.855V110.155H142.857V111.319H137.912V106.374H142.857Z" fill="#0767B0"/>
<path d="M145.162 111.319H143.407V106.374H146.038C147.634 106.374 148.352 107.028 148.352 108.046C148.352 109.137 147.634 109.791 146.118 109.791H145.241V111.319H145.162ZM145.162 108.628H145.879C146.278 108.628 146.597 108.482 146.597 108.046C146.597 107.61 146.038 107.537 145.64 107.537H145.162V108.628Z" fill="#0767B0"/>
<path d="M152.392 108.297C152.319 107.816 152.028 107.541 151.519 107.541C150.937 107.541 150.574 108.022 150.574 108.915C150.574 109.602 150.719 110.22 151.519 110.22C152.028 110.22 152.319 109.876 152.319 109.396H153.846C153.701 110.632 152.755 111.319 151.519 111.319C149.919 111.319 148.901 110.357 148.901 108.846C148.901 107.335 149.992 106.374 151.374 106.374C152.901 106.374 153.701 107.06 153.846 108.297H152.392Z" fill="#0767B0"/>
<path d="M159.341 106.374V111.319H157.692V109.791L157.842 108.482L155.969 111.319H154.396V106.374H156.044V107.973L155.894 109.21L157.767 106.374H159.341Z" fill="#0767B0"/>
<path d="M163.701 111.319H161.663V107.537H159.89V106.374H165.385V107.537H163.701V111.319Z" fill="#0767B0"/>
<path d="M170.879 106.374V107.537H167.843V108.264H170.272V109.428H167.843V110.155H170.879V111.319H165.934V106.374H170.879Z" fill="#0767B0"/>
<path d="M174.779 111.319H173.024V107.537H171.429V106.374H176.374V107.537H174.779V111.319Z" fill="#0767B0"/>
<path d="M18.6749 90.989V104.98H20.3297V111.319H14.4987V109.232H5.83099V111.319H0V104.98H1.49715C2.7579 102.507 3.15188 99.8011 3.15188 95.7042V90.989H18.6749ZM8.98286 95.2404V97.2502C8.98286 100.265 8.66769 103.125 7.48571 104.98H12.6075V95.2404H8.98286Z" fill="#0767B0"/>
<path d="M22.5275 90.989H31.4004C35.5993 90.989 38.9266 91.9149 38.9266 95.5413C38.9266 97.393 37.6591 98.7819 36.4707 99.4763C38.4513 100.016 39.5604 101.637 39.5604 103.643C39.5604 107.732 36.3915 109.121 31.5589 109.121H22.5275V90.989ZM28.6276 98.2418H31.1628C32.3512 98.2418 33.2226 97.7017 33.2226 96.6215C33.2226 95.2326 32.0342 95.1555 30.7667 95.1555H28.6276V98.2418ZM28.6276 104.954H31.3213C32.8265 104.954 33.9356 104.646 33.9356 103.257C33.9356 101.637 32.5096 101.56 30.6082 101.56H28.6276V104.954Z" fill="#0767B0"/>
<path d="M55.6038 90.989V93.0723H56.9396C62.0599 93.0723 64.2857 96.1585 64.2857 99.862C64.2857 103.797 61.9857 106.652 57.0137 106.652H55.6038V109.121H49.8904V106.652H48.4806C43.4348 106.652 41.2088 103.797 41.2088 99.862C41.2088 96.1585 43.5091 93.0723 48.5548 93.0723H49.8904V90.989H55.6038ZM49.8904 97.3159H49.1485C47.3676 97.3159 46.6998 98.1646 46.6998 99.862C46.6998 101.405 47.3676 102.408 48.8516 102.408H49.9647V97.3159H49.8904ZM55.6038 102.408H56.717C58.2011 102.408 58.8687 101.405 58.8687 99.862C58.8687 98.1646 58.2011 97.3159 56.4203 97.3159H55.678V102.408H55.6038Z" fill="#0767B0"/>
<path d="M71.0637 90.989L74.0588 97.95L76.9747 90.989H83.5165L76.6593 104.761C75.0835 107.905 73.5071 108.953 71.2214 109.102C70.1967 109.177 68.8571 109.028 67.2016 108.579V104.537C68.3055 104.761 68.9357 104.836 69.6451 104.761C70.2758 104.686 70.7484 104.462 71.0637 103.788L64.2857 90.989H71.0637Z" fill="#0767B0"/>
</g>
<defs>
<linearGradient id="paint0_linear_8008_194" x1="108.51" y1="91.8486" x2="91.5203" y2="91.1205" gradientUnits="userSpaceOnUse">
<stop stop-color="#0668B3"/>
<stop offset="0.12" stop-color="#188CCC"/>
<stop offset="0.2909" stop-color="#0668B3"/>
<stop offset="0.62" stop-color="#0859A5"/>
<stop offset="0.8412" stop-color="#214397"/>
<stop offset="1" stop-color="#2E3790"/>
</linearGradient>
<linearGradient id="paint1_linear_8008_194" x1="108.552" y1="99.9737" x2="90.1467" y2="98.922" gradientUnits="userSpaceOnUse">
<stop stop-color="#0668B3"/>
<stop offset="0.12" stop-color="#188CCC"/>
<stop offset="0.2909" stop-color="#0668B3"/>
<stop offset="0.62" stop-color="#0859A5"/>
<stop offset="0.8412" stop-color="#214397"/>
<stop offset="1" stop-color="#2E3790"/>
</linearGradient>
<linearGradient id="paint2_linear_8008_194" x1="102.062" y1="95.9295" x2="90.5736" y2="83.1873" gradientUnits="userSpaceOnUse">
<stop stop-color="#71D0F6"/>
<stop offset="0.2992" stop-color="#40B5E7"/>
<stop offset="0.4" stop-color="#2FABE1"/>
<stop offset="0.4466" stop-color="#2FA1DA"/>
<stop offset="0.8254" stop-color="#2E55A5"/>
<stop offset="1" stop-color="#2E3790"/>
</linearGradient>
<linearGradient id="paint3_linear_8008_194" x1="98.6714" y1="88.0945" x2="93.7769" y2="81.1368" gradientUnits="userSpaceOnUse">
<stop stop-color="#71D0F6"/>
<stop offset="0.2992" stop-color="#40B5E7"/>
<stop offset="0.4" stop-color="#2FABE1"/>
<stop offset="0.4466" stop-color="#2FA1DA"/>
<stop offset="0.8254" stop-color="#2E55A5"/>
<stop offset="1" stop-color="#2E3790"/>
</linearGradient>
<linearGradient id="paint4_linear_8008_194" x1="108.44" y1="109.267" x2="87.405" y2="108.296" gradientUnits="userSpaceOnUse">
<stop stop-color="#0668B3"/>
<stop offset="0.12" stop-color="#188CCC"/>
<stop offset="0.2909" stop-color="#0668B3"/>
<stop offset="0.62" stop-color="#0859A5"/>
<stop offset="0.8412" stop-color="#214397"/>
<stop offset="1" stop-color="#2E3790"/>
</linearGradient>
<linearGradient id="paint5_linear_8008_194" x1="104.665" y1="105.249" x2="88.8489" y2="86.7226" gradientUnits="userSpaceOnUse">
<stop stop-color="#71D0F6"/>
<stop offset="0.2992" stop-color="#40B5E7"/>
<stop offset="0.4" stop-color="#2FABE1"/>
<stop offset="0.4466" stop-color="#2FA1DA"/>
<stop offset="0.8254" stop-color="#2E55A5"/>
<stop offset="1" stop-color="#2E3790"/>
</linearGradient>
<clipPath id="clip0_8008_194">
<rect width="200" height="39.5604" fill="white" transform="translate(0 80)"/>
</clipPath>
</defs>
</svg>
