<svg width="200" height="200" viewBox="0 0 200 200" fill="none" xmlns="http://www.w3.org/2000/svg">
<path d="M71.1416 90.8883C68.5807 90.8883 66.6058 91.7782 65.2168 93.5469V93.178C65.2168 91.8758 64.1534 90.8232 62.8512 90.8232C61.549 90.8232 60.4965 91.8758 60.4965 93.178V114.62C60.4965 115.922 61.5599 116.975 62.8621 116.975C64.1642 116.975 65.2168 115.922 65.2168 114.62V107.48C66.6058 109.249 68.5807 110.139 71.1416 110.139C73.7026 110.139 75.6992 109.205 77.4463 107.35C79.1933 105.494 80.0615 103.215 80.0615 100.514C80.0615 97.8115 79.1933 95.5327 77.4463 93.6772C75.6992 91.8216 73.6049 90.8883 71.1416 90.8883ZM73.8979 104.214C72.9321 105.18 71.6191 105.7 70.2627 105.657C68.7977 105.657 67.5932 105.18 66.6383 104.214C65.6834 103.248 65.2168 102.022 65.2168 100.514C65.2168 99.0052 65.6943 97.7681 66.6383 96.8132C67.5824 95.8474 68.7869 95.37 70.2627 95.37C71.6191 95.3266 72.943 95.8474 73.8979 96.8132C74.8637 97.7681 75.3411 99.0052 75.3411 100.514C75.3411 102.022 74.8637 103.259 73.8979 104.214Z" fill="black"/>
<path d="M84.9331 83C83.6309 83 82.5783 84.0526 82.5783 85.3547V107.274C82.6217 108.577 83.7069 109.597 85.009 109.553C86.257 109.521 87.2661 108.512 87.2987 107.274V85.3547C87.2987 84.0526 86.2461 83 84.9439 83H84.9331Z" fill="black"/>
<path d="M122.078 95.9125C123.326 95.9125 124.346 94.9033 124.346 93.6554C124.346 92.4075 123.326 91.3983 122.078 91.3983H120.211L120.19 91.3766V88.208C120.19 86.9059 119.126 85.8533 117.824 85.8533C116.522 85.8533 115.469 86.9059 115.469 88.208V91.3983H114.58C113.332 91.3983 112.312 92.4075 112.312 93.6554C112.312 94.9033 113.332 95.9125 114.58 95.9125H115.491V103.498C115.491 106.004 116.153 107.74 117.488 108.717C118.497 109.455 120.059 109.813 122.186 109.781C123.402 109.77 124.378 108.771 124.357 107.556C124.346 106.384 123.413 105.44 122.251 105.386H122.078C121.47 105.353 121.004 105.19 120.689 104.897C120.374 104.604 120.211 104.149 120.211 103.508V95.9125H122.078Z" fill="black"/>
<path d="M134.86 88.2064C136.108 87.9025 136.868 86.6438 136.564 85.4067C136.282 84.2565 135.175 83.5077 134.003 83.6597C132.419 83.8875 131.149 84.441 130.194 85.3308C128.762 86.6655 128.035 88.6296 128.035 91.2014V91.3858H127.655C126.407 91.3858 125.387 92.395 125.387 93.6429C125.387 94.8908 126.407 95.9 127.655 95.9H128.024V107.261C128.067 108.564 129.152 109.584 130.455 109.54C131.702 109.508 132.712 108.498 132.744 107.261V95.9H134.361C135.609 95.9 136.629 94.8908 136.629 93.6429C136.629 92.395 135.609 91.3858 134.361 91.3858H132.755V91.2014C132.755 89.5302 133.46 88.5319 134.871 88.2064" fill="black"/>
<path d="M146.786 90.8884C144.084 90.8884 141.794 91.8216 139.928 93.6772C138.062 95.5328 137.128 97.8224 137.128 100.514C137.128 103.216 138.062 105.494 139.928 107.35C141.794 109.206 144.073 110.139 146.786 110.139C149.488 110.139 151.789 109.206 153.655 107.35C155.532 105.494 156.465 103.216 156.476 100.514C156.476 97.8116 155.543 95.5328 153.666 93.6772C151.789 91.8216 149.499 90.8884 146.786 90.8884ZM150.334 104.127C149.401 105.071 148.121 105.581 146.786 105.549C145.462 105.592 144.182 105.071 143.259 104.127C142.315 103.183 141.849 101.979 141.849 100.514C141.849 99.0487 142.315 97.8441 143.259 96.9001C144.182 95.956 145.462 95.446 146.786 95.4786C148.11 95.446 149.401 95.956 150.334 96.9001C151.279 97.8441 151.756 99.0487 151.756 100.514C151.756 101.979 151.279 103.183 150.334 104.127Z" fill="black"/>
<path d="M198.068 92.9297C196.81 91.5733 195.138 90.8897 193.044 90.8897C190.635 90.8897 188.812 91.7686 187.597 93.5265C186.523 91.7686 184.862 90.8897 182.627 90.8897C180.392 90.8897 178.644 91.7035 177.548 93.3312V93.2444C177.592 91.9423 176.561 90.8571 175.259 90.8246C173.957 90.7812 172.872 91.812 172.828 93.1033C172.828 93.1468 172.828 93.1902 172.828 93.2444V107.286C172.872 108.588 173.957 109.608 175.259 109.565C176.507 109.532 177.516 108.523 177.548 107.286V99.3863C177.548 98.0516 177.863 97.0315 178.482 96.3262C179.1 95.6209 179.936 95.2736 180.988 95.2628C181.965 95.2628 182.725 95.5666 183.256 96.1743C183.788 96.782 184.059 97.6392 184.07 98.7243V107.275C184.114 108.577 185.199 109.597 186.501 109.554C187.749 109.521 188.747 108.512 188.79 107.275V99.3754C188.79 98.0407 189.094 97.0207 189.691 96.3153C190.288 95.61 191.123 95.2628 192.198 95.2519C193.164 95.2519 193.923 95.5558 194.466 96.1526C195.008 96.7603 195.28 97.6067 195.28 98.7026V107.254C195.28 108.556 196.343 109.608 197.645 109.608C198.947 109.608 200 108.556 200 107.254V98.3771C199.989 96.0983 199.349 94.2753 198.101 92.908" fill="black"/>
<path d="M107.255 90.8884C105.953 90.8884 104.901 91.941 104.901 93.2432V93.5579C103.49 91.7782 101.504 90.8993 98.9432 90.8993C96.3823 90.8993 94.4182 91.8325 92.6711 93.6881C90.9241 95.5437 90.0559 97.8333 90.0559 100.524C90.0559 103.226 90.9241 105.505 92.6711 107.361C94.4182 109.216 96.5016 110.15 98.9432 110.15C101.504 110.15 103.49 109.26 104.901 107.491V107.806C104.857 109.108 105.888 110.193 107.19 110.226C108.492 110.269 109.578 109.238 109.621 107.947C109.621 107.903 109.621 107.86 109.621 107.806V93.254C109.621 91.9519 108.568 90.8993 107.266 90.8993L107.255 90.8884ZM103.447 104.214C102.481 105.18 101.276 105.657 99.8113 105.657C98.3464 105.657 97.1419 105.18 96.1978 104.214C95.2537 103.259 94.7763 102.022 94.7763 100.514C94.7763 99.0052 95.2537 97.7682 96.1978 96.8133C97.1419 95.8584 98.3464 95.37 99.8222 95.37C101.179 95.3266 102.502 95.8475 103.457 96.8133C104.423 97.7682 104.901 99.0052 104.901 100.514C104.901 102.022 104.412 103.259 103.447 104.214Z" fill="black"/>
<path d="M168.728 91.0282H168.565C167.437 91.039 166.319 91.3429 165.343 91.9071C164.333 92.4931 163.574 93.4046 163.183 94.5006V93.2418C163.183 91.9397 162.044 90.8979 160.752 90.8979C159.483 90.8979 158.452 91.9397 158.463 93.2093C158.463 93.2201 158.463 93.231 158.463 93.2418V107.273C158.463 108.575 159.515 109.627 160.818 109.627C162.12 109.627 163.172 108.575 163.172 107.273V100.903C163.172 99.145 163.737 97.8971 164.876 97.1483C165.95 96.4321 167.003 96.074 168.327 96.1826C168.381 96.1826 168.435 96.1934 168.489 96.1934H168.663C170.095 96.2151 171.278 95.0649 171.289 93.6325C171.311 92.2001 170.161 91.0282 168.728 91.0065V91.0282Z" fill="black"/>
<path d="M9.64677 90.877C6.81456 90.877 4.50322 91.7993 2.7019 93.6332C0.900573 95.4671 -9.15527e-05 97.7676 -9.15527e-05 100.513C-9.15527e-05 103.258 0.911425 105.581 2.7453 107.404C4.56833 109.227 6.99904 110.138 10.0266 110.138C11.0249 110.138 12.0232 110.03 12.9998 109.78C14.1501 109.487 14.8446 108.315 14.5407 107.165C14.4756 106.915 14.3671 106.677 14.2152 106.459C13.6726 105.711 12.7177 105.385 11.8387 105.646C11.2745 105.798 10.6885 105.874 10.1134 105.874C7.30288 105.874 5.58836 104.734 4.94813 102.444H16.9823C18.0566 102.444 18.9138 101.576 18.9247 100.513C18.9247 97.7893 18.0566 95.4996 16.3095 93.6549C14.5624 91.8102 12.3488 90.877 9.66847 90.8878M4.88302 98.8093C5.0892 97.735 5.67517 96.7801 6.53243 96.0965C7.35713 95.4562 8.40971 95.1307 9.67932 95.1307C10.7102 95.1198 11.7085 95.4345 12.5441 96.0422C13.3796 96.6499 13.9439 97.5722 14.2043 98.8093H4.88302Z" fill="black"/>
<path d="M36.1235 103.196C35.1794 102.816 34.0943 103.087 33.4432 103.869C33.2696 104.075 33.0634 104.27 32.8572 104.433C32.1736 104.975 31.3489 105.323 30.4808 105.431C29.1894 105.659 27.8656 105.333 26.8239 104.541C25.7713 103.749 25.1527 102.631 24.9466 101.188C24.7404 99.7776 25.0334 98.5405 25.8147 97.4879C26.596 96.4353 27.7788 95.7517 29.0809 95.6106C29.949 95.4696 30.8389 95.5564 31.6636 95.8711C31.9348 95.9796 32.1844 96.1098 32.4231 96.2617C33.53 96.9128 34.9515 96.533 35.6026 95.437C36.1994 94.4278 35.939 93.1257 35.0058 92.4203C34.5066 92.0948 33.9749 91.8235 33.4215 91.5956C31.848 90.9446 30.1227 90.7492 28.4407 90.9988C25.7279 91.3895 23.5901 92.6265 22.0384 94.71C20.4867 96.7934 19.9007 99.1699 20.3022 101.861C20.6928 104.541 21.919 106.668 24.0025 108.231C26.086 109.793 28.4733 110.379 31.1969 110C32.8789 109.783 34.474 109.11 35.8196 108.057C36.2537 107.71 36.6552 107.33 37.0241 106.918C37.8814 105.952 37.7946 104.476 36.8179 103.619C36.6226 103.445 36.3947 103.304 36.1452 103.207" fill="black"/>
<path d="M55.97 94.1538C54.1903 92.1246 51.9875 91.0395 49.3506 90.8767C49.1445 90.8658 48.9274 90.855 48.7321 90.855C48.6562 90.855 48.5911 90.9201 48.5802 90.996C48.5802 91.0286 48.5911 91.072 48.6236 91.0937C49.8932 92.3959 52.8882 95.6621 53.4633 97.9409C53.6695 98.7222 53.778 99.5361 53.7563 100.35V100.871C53.6803 102.195 53.051 103.421 52.0418 104.267C51.3364 104.907 50.4575 105.331 49.5134 105.483C51.2713 105.808 54.3531 105.797 56.8164 105.298C57.0226 105.255 57.207 105.125 57.3047 104.94C57.9341 103.757 58.2922 102.444 58.379 101.11C58.5634 98.4835 57.7604 96.1613 55.97 94.1429" fill="black"/>
<path d="M45 96.6932C46.8122 95.5647 48.0601 95.4345 48.6894 95.4779H48.9824C50.3171 95.5647 51.4674 96.1507 52.4332 97.2466L52.5634 97.3986C52.4766 97.1924 52.368 96.9754 52.2487 96.7366C51.4131 95.1415 49.5684 92.7433 47.702 91.1265C47.55 90.9963 47.3547 90.942 47.1594 90.9746C45.3689 91.2675 43.6978 92.0814 42.3522 93.2968C40.323 95.0655 39.2271 97.2683 39.0534 99.8835C38.9666 101.077 39.1077 102.271 39.4766 103.41C39.52 103.53 39.6502 103.595 39.7696 103.551C39.8239 103.53 39.8673 103.497 39.8998 103.443C40.7245 101.902 42.9599 97.952 44.9891 96.6824" fill="black"/>
<path d="M56.2419 106.06C54.3972 106.277 50.0675 106.657 47.9189 105.734C47.105 105.409 46.3346 104.953 45.6618 104.389C45.4339 104.193 45.2169 103.987 45.0216 103.759C44.0667 102.663 43.6218 101.459 43.6977 100.135C43.7411 99.4514 43.9256 98.8003 44.2511 98.1926C42.9164 99.5273 41.1043 102.197 40.1493 104.541C40.0951 104.682 40.1059 104.834 40.171 104.964C40.54 105.637 40.9849 106.277 41.4949 106.852C43.2745 108.87 45.4773 109.966 48.0925 110.14C50.7186 110.314 53.0407 109.511 55.0699 107.731C55.5583 107.308 56.0032 106.841 56.3938 106.342C56.4589 106.266 56.4481 106.168 56.3721 106.103C56.3396 106.071 56.2853 106.06 56.231 106.06" fill="black"/>
</svg>
