<svg width="200" height="200" viewBox="0 0 200 200" fill="none" xmlns="http://www.w3.org/2000/svg">
<g clip-path="url(#clip0_6586_58)">
<mask id="mask0_6586_58" style="mask-type:luminance" maskUnits="userSpaceOnUse" x="0" y="82" width="200" height="36">
<path d="M7.88177 96.7537L7.96059 103.374H19.1133L21.6749 96.7537H7.88177ZM32.4729 83.0394V89.6207H41.1429V117.167H47.7241V89.6207H56.3547V83.0394H32.4729ZM0 88.1231L4.68965 92.7734C6.58128 90.8423 9.22167 89.6207 12.1773 89.6207C17.931 89.6207 22.6207 94.3103 22.6207 100.064C22.6207 105.818 17.931 110.507 12.1379 110.507C9.22167 110.507 6.54187 109.286 4.65025 107.355L0 112.005C3.07389 115.158 7.40887 117.089 12.1379 117.089C21.5566 117.089 29.1626 109.443 29.1626 100.064C29.1626 90.6847 21.5566 83.0394 12.1379 83.0394C7.40887 83.0394 3.07389 84.9704 0 88.1231ZM69.6355 83L56.3547 117.128H63.4089L66.0098 110.429H75.3103L77.8719 103.808H68.5714L73.2611 91.7487L83.1133 117.128H90.1675L76.8867 83H69.6355ZM106.68 83L93.4384 117.128H100.493L110.345 91.7487L120.197 117.128H127.251L113.97 83H106.68ZM169.892 83V117.128H176.552V103.374H190.621L193.182 96.7537H176.552V83H169.892ZM193.34 83V98.33V117.128H200V83H193.34ZM135.842 100.025C135.842 94.2709 140.532 89.5813 146.286 89.5813C152.039 89.5813 156.729 94.2709 156.729 100.025C156.729 105.778 152.039 110.468 146.286 110.468C140.493 110.468 135.842 105.778 135.842 100.025ZM129.222 100.025C129.222 109.443 136.867 117.049 146.246 117.049C155.665 117.049 163.271 109.404 163.271 100.025C163.271 90.6453 155.704 82.9606 146.286 82.9606C136.867 82.9606 129.222 90.6059 129.222 100.025Z" fill="white"/>
</mask>
<g mask="url(#mask0_6586_58)">
<path d="M-17.1034 100.064L100.02 -17.0197L217.103 100.064L100.02 217.148L-17.1034 100.064Z" fill="url(#paint0_linear_6586_58)"/>
</g>
</g>
<defs>
<linearGradient id="paint0_linear_6586_58" x1="43.9238" y1="156.16" x2="158.434" y2="41.6491" gradientUnits="userSpaceOnUse">
<stop stop-color="#213A8F"/>
<stop offset="0.1859" stop-color="#263B8F"/>
<stop offset="0.3372" stop-color="#333B90"/>
<stop offset="0.4764" stop-color="#443D91"/>
<stop offset="0.6082" stop-color="#5A3F92"/>
<stop offset="0.735" stop-color="#744393"/>
<stop offset="0.8579" stop-color="#924895"/>
<stop offset="0.9756" stop-color="#B24D97"/>
<stop offset="1" stop-color="#B94E97"/>
</linearGradient>
<clipPath id="clip0_6586_58">
<rect width="200" height="34.1281" fill="white" transform="translate(0 83)"/>
</clipPath>
</defs>
</svg>
