<svg width="200" height="200" viewBox="0 0 200 200" fill="none" xmlns="http://www.w3.org/2000/svg">
<g clip-path="url(#clip0_6586_54)">
<path d="M176.876 90.1888H0V108.934H176.876V90.1888Z" fill="#CF4044"/>
<path fill-rule="evenodd" clip-rule="evenodd" d="M32.6457 102.69V101.101H43.2314C44.0004 101.101 44.6266 100.544 44.6266 99.8628C44.6266 99.1814 44.005 98.6242 43.2314 98.6242H32.6457V96.9206H44.5483C44.5483 95.6635 43.4064 94.4249 41.9928 94.4249H32.6457C31.1078 94.4249 29.8554 95.5346 29.8554 96.9067V102.672C29.8554 104.044 31.1032 105.153 32.6457 105.153H42.0389C43.4524 105.153 44.5943 103.947 44.5943 102.695H32.6457V102.69ZM60.0285 102.948V95.9214C60.0285 95.2353 60.6594 94.6828 61.4329 94.6828C62.2065 94.6828 62.8373 95.2399 62.8373 95.9214V102.948C62.8373 104.32 61.5803 105.43 60.0239 105.43H50.8795C49.3277 105.43 48.0661 104.32 48.0661 102.948V95.9214C48.0661 95.2353 48.6969 94.6828 49.4705 94.6828C50.244 94.6828 50.8749 95.2399 50.8749 95.9214V102.948H60.0193H60.0285Z" fill="white"/>
<path fill-rule="evenodd" clip-rule="evenodd" d="M180.914 99.5405C180.914 94.2683 185.187 90 190.46 90C195.732 90 200 94.273 200 99.5405C200 102.073 198.996 104.499 197.205 106.286C195.414 108.077 192.987 109.081 190.46 109.081C187.932 109.081 185.501 108.077 183.714 106.286C181.923 104.495 180.919 102.068 180.919 99.5405H180.914ZM190.46 92.026C190.842 93.3567 191.776 95.3964 193.015 97.6296C194.3 99.9457 195.612 101.87 196.542 102.879H191.413V104.311C191.413 105.365 192.269 106.222 193.324 106.222C193.95 106.222 194.558 106.019 195.055 105.637C197.675 103.661 198.738 100.231 197.698 97.1185C196.657 94.0059 193.738 91.9063 190.455 91.9063C187.172 91.9063 184.257 94.0059 183.217 97.1185C182.176 100.231 183.24 103.661 185.864 105.637C186.362 106.014 186.969 106.222 187.596 106.222C188.65 106.222 189.506 105.365 189.506 104.311V102.879H184.377C185.312 101.875 186.619 99.9457 187.904 97.6296C189.143 95.3964 190.077 93.3567 190.46 92.026Z" fill="#27824D"/>
<path fill-rule="evenodd" clip-rule="evenodd" d="M85.1045 102.8C85.1045 103.51 85.3854 104.191 85.8873 104.688C86.3892 105.19 87.066 105.471 87.7751 105.471H96.9656C97.6747 105.48 98.3562 105.199 98.8535 104.697C99.3554 104.196 99.6362 103.519 99.6362 102.81V96.5752C99.6409 95.8661 99.36 95.1846 98.8627 94.6874C98.3608 94.1855 97.6839 93.9046 96.9749 93.9046L87.7843 93.8954C86.3109 93.8954 85.1137 95.0879 85.1091 96.566V102.8H85.1045Z" fill="white"/>
<path fill-rule="evenodd" clip-rule="evenodd" d="M97.3294 96.3127L97.334 103.04L87.4666 103.044L87.4482 96.345L97.3294 96.3127Z" fill="#CF4044"/>
<path fill-rule="evenodd" clip-rule="evenodd" d="M149.342 100.517H143.784L146.211 97.2474C146.27 97.1047 146.413 97.0126 146.565 97.0126C146.712 97.0126 146.841 97.1001 146.91 97.2244L149.342 100.517ZM144.636 95.0281L138.53 103.279C138.102 103.859 138.217 104.679 138.784 105.116C139.35 105.554 140.156 105.439 140.588 104.859L141.85 103.141H151.294L152.551 104.859C152.979 105.439 153.789 105.554 154.351 105.116C154.918 104.679 155.033 103.859 154.604 103.279L148.49 95.0143C148.062 94.4019 147.362 94.0013 146.565 94.0013C145.768 94.0013 145.059 94.4065 144.636 95.0235V95.0281ZM75.891 101.438H72.7783C72.0831 101.438 71.42 101.157 70.932 100.669C70.4439 100.176 70.1676 99.5128 70.1722 98.8176H77.7742C78.3728 98.8176 78.8609 98.3295 78.8609 97.7263C78.8609 97.4362 78.7503 97.16 78.5431 96.9528C78.3406 96.7502 78.0643 96.6304 77.7742 96.6304H69.523V104.062C69.523 104.785 68.9382 105.374 68.2199 105.374C67.497 105.374 66.9168 104.785 66.9168 104.062V96.6304C66.9168 95.9352 67.1885 95.2721 67.6766 94.7794C68.1647 94.2868 68.8277 94.0105 69.523 94.0105H77.9906C80.0304 94.0105 81.6834 95.6727 81.6834 97.7263C81.6834 99.1076 80.8178 100.429 79.7081 101.069L81.2644 103.15C81.6972 103.731 81.5821 104.55 81.0065 104.988C80.7303 105.195 80.3849 105.287 80.0396 105.236C79.6989 105.186 79.3858 105.006 79.1832 104.725L76.7244 101.438H75.8956H75.891ZM107.321 96.414C107.063 96.414 106.81 96.5199 106.63 96.7041C106.446 96.8883 106.345 97.1369 106.345 97.3994C106.345 97.9427 106.782 98.3847 107.321 98.3847H114.813C115.738 98.3847 116.622 98.7577 117.276 99.4115C117.925 100.065 118.294 100.954 118.289 101.88C118.294 103.804 116.737 105.37 114.817 105.374H105.912C104.595 105.374 103.522 104.297 103.522 102.971H114.49C114.748 102.971 114.997 102.865 115.181 102.681C115.365 102.497 115.466 102.248 115.466 101.985C115.466 101.728 115.365 101.474 115.181 101.29C114.997 101.106 114.748 101 114.49 101H106.999C105.079 101 103.522 99.4346 103.522 97.5053C103.522 95.576 105.079 94.0105 106.999 94.0105H115.466C116.788 94.0105 117.856 95.0879 117.856 96.414H107.321ZM122.539 96.6304C122.539 95.9352 122.811 95.2721 123.299 94.7794C123.787 94.2868 124.45 94.0105 125.145 94.0105H133.617C135.657 94.0105 137.31 95.6727 137.31 97.7263C137.31 99.7799 135.657 101.442 133.617 101.442H128.405C127.71 101.442 127.047 101.161 126.559 100.673C126.071 100.18 125.794 99.5174 125.799 98.8222H133.401C133.999 98.8222 134.488 98.3341 134.488 97.7309C134.488 97.4408 134.372 97.1646 134.17 96.9574C133.967 96.7502 133.691 96.635 133.401 96.635H125.15V104.067C125.15 104.79 124.565 105.379 123.847 105.379C123.128 105.379 122.544 104.79 122.544 104.067V96.6304H122.539ZM167.621 101.438H164.509C163.813 101.438 163.15 101.157 162.662 100.669C162.174 100.176 161.898 99.5128 161.903 98.8176H169.505C170.103 98.8176 170.591 98.3295 170.591 97.7263C170.591 97.4362 170.476 97.16 170.274 96.9528C170.071 96.7455 169.795 96.6304 169.505 96.6304H161.253V104.062C161.253 104.785 160.673 105.374 159.95 105.374C159.227 105.374 158.647 104.785 158.647 104.062V96.6304C158.647 95.9352 158.919 95.2721 159.407 94.7794C159.895 94.2868 160.558 94.0105 161.253 94.0105H169.721C171.761 94.0105 173.414 95.6727 173.414 97.7263C173.414 99.1076 172.544 100.429 171.438 101.069L172.995 103.15C173.428 103.731 173.312 104.55 172.737 104.988C172.461 105.195 172.115 105.287 171.77 105.236C171.429 105.186 171.116 105.006 170.909 104.725L168.45 101.438H167.621Z" fill="white"/>
</g>
<defs>
<clipPath id="clip0_6586_54">
<rect width="200" height="19.0856" fill="white" transform="translate(0 90)"/>
</clipPath>
</defs>
</svg>
