<svg width="200" height="200" viewBox="0 0 200 200" fill="none" xmlns="http://www.w3.org/2000/svg">
<g clip-path="url(#clip0_76_6)">
<path d="M87.4 91.5353C89.5 89.4353 92.2 89.2353 95 89.2353H110.5C112.413 89.1486 114.298 89.7296 115.83 90.8788C117.362 92.028 118.447 93.6741 118.9 95.5353C119.119 96.2809 119.187 97.0629 119.1 97.8353V122.335C119.1 123.335 118.8 123.635 117.9 123.535C116.7 123.435 115.4 123.535 114.1 123.535V97.9353C114.1 95.4353 113 94.3353 110.5 94.2353H93.6C91.1 94.2353 89.9 95.4353 89.9 98.0353V123.435H84.9V97.7353C84.9547 97.2756 84.9044 96.8095 84.7528 96.3721C84.6013 95.9347 84.3525 95.5374 84.0252 95.2101C83.6979 94.8828 83.3005 94.634 82.8631 94.4825C82.4257 94.3309 81.9597 94.2806 81.5 94.3353H64.3C61.9 94.3353 60.7 95.5353 60.7 97.8353V123.535H55.7V96.5353C55.7 93.8353 58.9 90.1353 61.6 89.5353C62.7561 89.3362 63.9269 89.2358 65.1 89.2353H80.9C82.083 89.1561 83.2696 89.3192 84.3873 89.7147C85.505 90.1102 86.5301 90.7297 87.4 91.5353Z" fill="#660F6E"/>
<path d="M200 118.635V123.535C197.914 123.482 195.921 122.663 194.4 121.235C192.1 123.535 189.2 123.435 186.3 123.435H170.9C169.101 123.406 167.36 122.797 165.937 121.698C164.513 120.598 163.483 119.068 163 117.335C162.796 116.586 162.695 115.812 162.7 115.035C162.7 109.235 162.6 103.435 162.7 97.7354C162.615 96.0628 163.063 94.4063 163.979 93.0046C164.896 91.6028 166.234 90.5282 167.8 89.9354C168.952 89.5022 170.169 89.2656 171.4 89.2354C177.1 89.1354 182.7 89.2354 188.4 89.2354C190.035 89.1408 191.66 89.5503 193.055 90.4087C194.45 91.2671 195.548 92.533 196.2 94.0354C196.676 95.179 196.947 96.3976 197 97.6354C197.1 103.335 197 109.135 197 114.835C197 117.035 197.8 118.035 200 118.635ZM179.9 94.2354H171.2C170.742 94.1884 170.279 94.2441 169.845 94.3983C169.411 94.5526 169.017 94.8016 168.692 95.1272C168.366 95.4528 168.117 95.8468 167.963 96.2807C167.809 96.7145 167.753 97.1773 167.8 97.6354V115.035C167.765 115.499 167.833 115.965 167.998 116.4C168.163 116.836 168.422 117.229 168.755 117.553C169.089 117.878 169.49 118.125 169.93 118.277C170.369 118.429 170.837 118.483 171.3 118.435H188.6C189.056 118.475 189.516 118.414 189.947 118.257C190.377 118.101 190.768 117.851 191.092 117.527C191.416 117.203 191.665 116.812 191.822 116.382C191.979 115.951 192.04 115.492 192 115.035C192.1 109.235 192 103.335 192 97.5354C192.035 97.0844 191.97 96.6313 191.81 96.2083C191.65 95.7852 191.399 95.4026 191.074 95.0876C190.75 94.7726 190.36 94.5329 189.932 94.3856C189.505 94.2383 189.05 94.187 188.6 94.2354H179.9Z" fill="#660F6E"/>
<path d="M52.1 118.635V122.835C52.1 123.835 51.4 123.735 50.9 123.535C49.4 122.935 47.9 122.335 46.3 121.635C45.2 122.135 43.9 122.735 42.5 123.235C41.9491 123.399 41.374 123.467 40.8 123.435H22.9C18.9 123.435 15.9 120.735 14.8 116.835V97.7354C14.7543 96.6154 14.9395 95.498 15.3441 94.4526C15.7488 93.4073 16.3642 92.4564 17.1521 91.6592C17.94 90.8619 18.8835 90.2353 19.924 89.8183C20.9644 89.4013 22.0796 89.2029 23.2 89.2354H40.5C42.7131 89.2005 44.85 90.0437 46.4429 91.5805C48.0359 93.1172 48.9553 95.2224 49 97.4354V97.8354C48.9 103.535 49 109.335 48.9 115.035C48.8945 115.925 49.2184 116.785 49.8093 117.449C50.4001 118.114 51.2161 118.537 52.1 118.635ZM19.8 106.335V115.035C19.8 117.135 21 118.535 23.1 118.535H40.7C41.1216 118.554 41.5427 118.488 41.9384 118.342C42.3342 118.195 42.6965 117.971 43.0041 117.682C43.3117 117.393 43.5583 117.045 43.7293 116.659C43.9004 116.273 43.9924 115.857 44 115.435V97.6354C44.0379 97.1793 43.976 96.7204 43.8185 96.2907C43.661 95.861 43.4118 95.4708 43.0882 95.1472C42.7646 94.8236 42.3744 94.5743 41.9447 94.4169C41.515 94.2594 41.0561 94.1975 40.6 94.2354H23.3C22.8404 94.1807 22.3743 94.231 21.9369 94.3826C21.4995 94.5341 21.1022 94.7829 20.7749 95.1102C20.4475 95.4375 20.1987 95.8348 20.0472 96.2722C19.8957 96.7096 19.8453 97.1757 19.9 97.6354C19.7 100.635 19.8 103.435 19.8 106.335Z" fill="#660F6E"/>
<path d="M11.7 76.1355V80.2355C11.7 80.8355 11.5 81.0355 10.9 81.0355H8.00003C7.32179 81.0286 6.66409 81.2681 6.14911 81.7095C5.63413 82.1509 5.29689 82.7642 5.20003 83.4355C5.10003 85.3355 5.20003 87.2355 5.20003 89.2355H11.7V94.2355H5.10003V122.336C5.10003 123.336 4.80003 123.636 3.90003 123.536C2.70003 123.436 1.40003 123.536 0.100026 123.536C0.100026 123.136 2.63574e-05 122.836 2.63574e-05 122.536V84.2355C-0.0844806 82.3718 0.490849 80.5379 1.62484 79.0564C2.75883 77.5749 4.37885 76.5406 6.20003 76.1355C8.03029 75.9854 9.86977 75.9854 11.7 76.1355Z" fill="#660F6E"/>
<path d="M138.2 123.635V76.6353H143.1V122.335C143.1 123.435 142.8 123.735 141.7 123.635C140.6 123.535 139.5 123.635 138.2 123.635Z" fill="#660F6E"/>
<path d="M150.8 123.636V97.9355C150.8 93.3355 154 90.2356 156.8 89.6356C157.427 89.5195 158.062 89.4526 158.7 89.4355V94.3355C156.3 94.8355 155.8 96.4355 155.8 98.7355C155.9 106.636 155.8 114.536 155.9 122.536C155.9 123.536 155.6 123.836 154.7 123.736C153.405 123.601 152.101 123.568 150.8 123.636Z" fill="#660F6E"/>
<path d="M125.3 123.636V97.7355C125.279 95.9157 125.854 94.139 126.938 92.6765C128.021 91.214 129.553 90.1461 131.3 89.6356C131.927 89.5195 132.562 89.4526 133.2 89.4355V94.3355C130.6 94.8355 130.2 96.7355 130.2 99.0355C130.3 106.836 130.2 114.636 130.2 122.436C130.2 123.436 130 123.836 128.9 123.736C127.705 123.599 126.501 123.566 125.3 123.636Z" fill="#660F6E"/>
<path d="M131.1 83.9355C131.069 84.8181 130.698 85.6546 130.064 86.2697C129.43 86.8848 128.583 87.2309 127.7 87.2355H127.5C126.624 87.1625 125.807 86.7614 125.214 86.1125C124.621 85.4636 124.294 84.6147 124.3 83.7355C124.407 82.8727 124.818 82.0763 125.459 81.4896C126.101 80.903 126.931 80.5647 127.8 80.5355C128.252 80.4969 128.707 80.5593 129.131 80.718C129.556 80.8767 129.94 81.1278 130.256 81.4532C130.572 81.7786 130.811 82.1701 130.957 82.5994C131.103 83.0287 131.152 83.4851 131.1 83.9355Z" fill="#660F6E"/>
<path d="M156.6 83.7352C156.607 84.1752 156.526 84.6121 156.364 85.0211C156.202 85.43 155.961 85.803 155.654 86.1188C155.348 86.4345 154.982 86.6868 154.578 86.8612C154.174 87.0356 153.74 87.1287 153.3 87.1352H153.2C152.339 87.0642 151.529 86.6963 150.909 86.0944C150.289 85.4925 149.897 84.694 149.8 83.8352C149.8 82.2352 151.4 80.3352 153 80.4352C153.46 80.3837 153.925 80.4312 154.365 80.5746C154.805 80.718 155.209 80.954 155.55 81.2667C155.891 81.5793 156.162 81.9614 156.343 82.3872C156.524 82.813 156.611 83.2727 156.6 83.7352Z" fill="#660F6E"/>
</g>
<defs>
<clipPath id="clip0_76_6">
<rect width="200" height="47.7608" fill="white" transform="translate(0 76)"/>
</clipPath>
</defs>
</svg>
