<?xml version="1.0" encoding="utf-8"?>
<!-- Generator: Adobe Illustrator 23.1.1, SVG Export Plug-In . SVG Version: 6.00 Build 0)  -->
<svg version="1.1" id="Слой_1" xmlns="http://www.w3.org/2000/svg" xmlns:xlink="http://www.w3.org/1999/xlink" x="0px" y="0px"
	 viewBox="0 0 200 200" style="enable-background:new 0 0 200 200;" xml:space="preserve">
<style type="text/css">
	.st0{fill:#654870;}
	.st1{fill:#65486F;}
	.st2{fill:#64476F;}
	.st3{fill:#664970;}
</style>
<title>Familia</title>
<path class="st0" d="M87.4,91.7c2.1-2.1,4.8-2.3,7.6-2.3c5.2,0,10.3,0,15.5,0c4.2,0,7.5,2.5,8.4,6.3c0.2,0.7,0.3,1.5,0.2,2.3
	c0,8.2,0,16.4,0,24.5c0,1-0.3,1.3-1.2,1.2c-1.2-0.1-2.5,0-3.8,0v-1.3c0-8.1,0-16.2,0-24.3c0-2.5-1.1-3.6-3.6-3.7H93.6
	c-2.5,0-3.7,1.2-3.7,3.8c0,8.1,0,16.1,0,24.2v1.2h-5v-1.2c0-8.2,0-16.4,0-24.5c0-2.2-1.2-3.4-3.4-3.4c-5.7,0-11.5,0-17.2,0
	c-2.4,0-3.6,1.2-3.6,3.5v25.7h-5v-1.1c0-8.6,0-17.2,0-25.9c0-2.7,3.2-6.4,5.9-7c1.2-0.2,2.3-0.3,3.5-0.3c5.3,0,10.5,0,15.8,0
	C83.5,89.4,85.4,89.9,87.4,91.7z"/>
<path class="st0" d="M200,118.8v4.9c-2.2,0-3.9-0.9-5.6-2.3c-2.3,2.3-5.2,2.2-8.1,2.2c-5.1,0-10.2,0-15.4,0c-4,0-7.1-3-7.9-6.1
	c-0.2-0.7-0.3-1.5-0.3-2.3c0-5.8-0.1-11.6,0-17.3c0-3.6,1.7-6.4,5.1-7.8c1.1-0.4,2.4-0.7,3.6-0.7c5.7-0.1,11.3,0,17,0
	c3.6,0,6.2,1.5,7.8,4.8c0.5,1.1,0.7,2.3,0.8,3.6c0.1,5.7,0,11.5,0,17.2C197,117.2,197.8,118.2,200,118.8z M179.9,94.4
	c-2.9,0-5.8,0-8.7,0c-2.1,0-3.4,1.2-3.4,3.4c0,5.8,0,11.6,0,17.4c0,2.1,1.3,3.4,3.5,3.4c5.8,0,11.6,0,17.3,0c1.8,0,3.4-1,3.4-3.4
	c0.1-5.8,0-11.7,0-17.5c0-2.1-1.3-3.3-3.4-3.3C185.6,94.4,182.8,94.4,179.9,94.4z"/>
<path class="st0" d="M52.1,118.8c0,1.5,0,2.8,0,4.2c0,1-0.7,0.9-1.2,0.7c-1.5-0.6-3-1.2-4.6-1.9c-1.1,0.5-2.4,1.1-3.8,1.6
	c-0.6,0.2-1.1,0.2-1.7,0.2c-6,0-11.9,0-17.9,0c-4,0-7-2.7-8.1-6.6c0-0.3,0-0.6,0-0.9V97.9c0-4.9,3.5-8.5,8.4-8.5
	c5.8,0,11.6,0,17.3,0c4.6-0.1,8.4,3.6,8.5,8.2c0,0.1,0,0.3,0,0.4c-0.1,5.7,0,11.5-0.1,17.2C48.9,117,50.4,118.8,52.1,118.8z
	 M19.8,106.5c0,2.9,0,5.8,0,8.7c0,2.1,1.2,3.5,3.3,3.5c5.8,0,11.7,0,17.6,0c1.8,0.1,3.2-1.3,3.3-3.1c0-0.1,0-0.2,0-0.3
	c0-5.8,0-11.7,0-17.5c0-2.1-1.3-3.4-3.4-3.4c-5.8,0-11.6,0-17.3,0c-2.2,0-3.4,1.2-3.4,3.4C19.7,100.8,19.8,103.6,19.8,106.5z"/>
<path class="st1" d="M11.7,76.3c0,1.4,0,2.7,0,4.1c0,0.6-0.2,0.8-0.8,0.8c-1,0-1.9,0-2.9,0c-1.3,0-2.7,1-2.8,2.4
	c-0.1,1.9,0,3.8,0,5.8h6.5v5H5.1v1.4c0,8.9,0,17.8,0,26.7c0,1-0.3,1.3-1.2,1.2c-1.2-0.1-2.5,0-3.8,0c0-0.4-0.1-0.7-0.1-1
	c0-12.8,0-25.5,0-38.3c0-4.4,2.9-7.5,6.2-8.1C7.9,76,9.8,76.3,11.7,76.3z"/>
<path class="st2" d="M138.2,123.8v-47h4.9V78c0,14.8,0,29.6,0,44.5c0,1.1-0.3,1.4-1.4,1.3C140.6,123.7,139.5,123.8,138.2,123.8z"/>
<path class="st0" d="M150.8,123.8c0-0.4,0-0.8,0-1.1c0-8.2,0-16.4,0-24.6c0-4.6,3.2-7.7,6-8.3c0.6-0.1,1.3-0.2,1.9-0.2v4.9
	c-2.4,0.5-2.9,2.1-2.9,4.4c0.1,7.9,0,15.8,0.1,23.8c0,1-0.3,1.3-1.2,1.2C153.4,123.7,152.2,123.8,150.8,123.8z"/>
<path class="st0" d="M125.3,123.8c0-0.4,0-0.8,0-1.1c0-8.3,0-16.6,0-24.8c0-4.2,3-7.4,6-8.1c0.6-0.1,1.3-0.2,1.9-0.2v4.9
	c-2.6,0.5-3,2.4-3,4.7c0.1,7.8,0,15.6,0,23.4c0,1-0.2,1.4-1.3,1.3C127.8,123.7,126.6,123.8,125.3,123.8z"/>
<path class="st3" d="M131.1,84.1c0,1.8-1.6,3.3-3.4,3.3c-0.1,0-0.1,0-0.2,0c-1.7,0-3.4-1.9-3.2-3.5s1.7-3.3,3.5-3.2
	C130.2,80.7,131.2,82.4,131.1,84.1z"/>
<path class="st0" d="M156.6,83.9c0,1.8-1.4,3.4-3.3,3.4c0,0-0.1,0-0.1,0c-1.6,0-3.4-1.7-3.4-3.3s1.6-3.5,3.2-3.4
	C155.3,80.6,156.5,81.9,156.6,83.9z"/>
</svg>
