<svg width="200" height="200" viewBox="0 0 200 200" fill="none" xmlns="http://www.w3.org/2000/svg">
<g clip-path="url(#clip0_6463_602)">
<path fill-rule="evenodd" clip-rule="evenodd" d="M0.977988 75H15.7458C16.3421 75.1239 16.7353 75.7173 16.7137 76.3093C16.7209 79.3253 16.7238 82.3414 16.718 85.3575C16.744 86.0085 16.2557 86.6855 15.5787 86.7273C14.9795 86.7705 14.376 86.7474 13.7754 86.7589C13.7783 89.1456 13.7884 91.5308 13.7725 93.9174C14.4869 93.9534 15.2114 93.8728 15.9172 94.0053C16.4977 94.1537 16.7569 94.7716 16.7224 95.3247C16.7224 98.3796 16.7353 101.437 16.7152 104.492C16.744 105.038 16.4026 105.594 15.8481 105.705C15.1452 105.806 14.4293 105.733 13.7221 105.766C13.7077 111.647 13.7279 117.528 13.712 123.408C13.7711 124.1 13.2194 124.591 12.6361 124.836H1.16955C0.560289 124.613 -0.0288104 124.114 0.0273629 123.401C0.0115191 107.746 0.0043174 92.0911 0.00575774 76.436C-0.0504156 75.7994 0.337036 75.1498 0.977988 75ZM19.1364 75H36.1684C36.4104 75.2233 36.6812 75.4451 36.8079 75.7591C36.9318 76.1652 36.9174 76.5945 36.9246 77.015C36.9246 79.7013 36.9102 82.3889 36.9275 85.0752C37.0067 85.8011 36.6063 86.7042 35.7882 86.7388C30.4675 86.7546 25.1455 86.7474 19.8249 86.7503C19.0586 86.8137 18.4061 86.1094 18.4407 85.3589C18.4277 82.6741 18.445 79.9893 18.4335 77.3045C18.4378 76.8537 18.4018 76.3986 18.4709 75.9506C18.5314 75.5473 18.8497 75.2593 19.1364 75ZM41.5711 75H52.3002C52.6905 75.3298 53.0722 75.7562 53.0334 76.3064C53.055 79.3167 53.0391 82.3285 53.0478 85.3402C53.0406 85.7954 52.9743 86.3153 52.5969 86.6221C52.306 86.8987 51.8825 86.9015 51.508 86.9044C48.5251 86.9087 45.5436 86.9044 42.5606 86.9145C42.1789 86.9073 41.7454 86.9217 41.4487 86.6394C41.0756 86.3369 40.9503 85.8414 40.9705 85.3791C40.9806 82.3486 40.9647 79.3167 40.9777 76.2848C40.9547 75.7835 41.1347 75.2794 41.5711 75ZM60.3575 75H73.6273C74.0551 75.1829 74.4743 75.4364 74.7191 75.8455C77.2469 79.8756 79.7257 83.9388 82.2766 87.9544C84.9239 83.8725 87.5871 79.8007 90.2388 75.7202C90.4462 75.4206 90.74 75.1944 91.0454 75H105.198C105.514 75.2837 105.845 75.6237 105.904 76.0644C105.901 76.4591 105.715 76.8249 105.514 77.1533C101.332 83.1523 97.1409 89.1441 92.961 95.1432C92.6312 95.6703 92.0176 95.9598 91.404 95.9166C85.3993 95.9166 79.3945 95.9138 73.3897 95.9339C72.9821 95.9339 72.5557 95.8677 72.2173 95.6257C71.8788 95.3779 71.6771 95.0006 71.4424 94.665C67.4108 88.8546 63.3764 83.0457 59.3406 77.2383C58.9546 76.7313 58.8739 75.9751 59.2988 75.4638C59.5336 75.1152 59.9744 75.0605 60.3575 75ZM41.754 88.7394C41.9701 88.6861 42.1962 88.6919 42.4195 88.6861C45.4989 88.6804 48.5769 88.6861 51.6549 88.6832C52.4241 88.6112 53.1082 89.3544 53.0449 90.1106C53.0679 101.159 53.0506 112.208 53.0564 123.257C53.0895 123.81 52.8475 124.411 52.3204 124.65C51.8177 124.781 51.292 124.731 50.7792 124.735C47.9 124.719 45.0193 124.736 42.1401 124.716C41.5942 124.749 41.1232 124.307 41.031 123.789C40.9417 123.277 40.9835 122.757 40.9763 122.243C40.9777 111.778 40.9734 101.311 40.9705 90.8452C40.9417 90.0905 40.9114 89.0765 41.754 88.7394ZM19.158 94.0658C19.3985 93.929 19.6909 93.9563 19.9574 93.939C24.5665 93.9261 29.1755 93.9347 33.7861 93.9275C34.1634 93.9131 34.5466 94.0139 34.8562 94.2358C35.1702 94.5526 35.2135 95.0222 35.2077 95.4456C35.1962 98.5193 35.2163 101.594 35.1904 104.668C35.1918 105.329 34.5653 105.79 33.9344 105.741C29.3225 105.748 24.709 105.741 20.0956 105.754C19.2674 105.892 18.3859 105.253 18.4407 104.376C18.4292 101.357 18.4407 98.3378 18.4349 95.3203C18.4076 94.8032 18.723 94.3222 19.158 94.0658ZM73.3047 98.3883C73.6835 97.7646 74.4699 97.7387 75.1195 97.7631C78.1443 97.7675 81.1704 97.7833 84.1966 97.7473C86.1684 97.7329 88.1388 97.7905 90.1106 97.7473C90.6061 97.7199 91.1347 97.8856 91.3911 98.3407C96.7996 106.235 102.181 114.148 107.592 122.042C107.958 122.576 108.463 123.21 108.188 123.895C108.062 124.398 107.575 124.643 107.143 124.836H93.9347C93.5761 124.595 93.1555 124.408 92.9236 124.026C90.6997 120.633 88.4902 117.229 86.2519 113.846C84.9355 111.881 83.691 109.866 82.3371 107.928C78.7881 113.199 75.3111 118.521 71.7996 123.819C71.474 124.283 70.9353 124.633 70.3549 124.618C66.2298 124.62 62.1032 124.623 57.9766 124.628C57.6612 124.617 57.3328 124.624 57.0375 124.5C56.4959 124.193 56.2021 123.482 56.4398 122.893C56.6155 122.465 56.9165 122.106 57.1715 121.726C62.5468 113.945 67.9308 106.17 73.3047 98.3883ZM185.042 107.429C186.691 105.478 189.254 104.429 191.786 104.443C192.915 104.567 194.051 104.766 195.084 105.262C196.658 105.976 197.991 107.195 198.874 108.678C199.418 109.562 199.711 110.568 200 111.556V114.097C199.657 116.944 197.765 119.543 195.155 120.735C192.621 121.964 189.484 121.805 187.092 120.322C184.82 118.969 183.24 116.502 183.01 113.865C182.759 111.559 183.515 109.174 185.042 107.429Z" fill="#192168"/>
<path fill-rule="evenodd" clip-rule="evenodd" d="M110.007 80.9356C113.657 77.8548 119.471 77.8029 123.181 80.8031C124.479 81.9309 125.729 83.2114 126.352 84.8476C127.068 86.3528 127.221 88.0452 127.185 89.6915C127.181 91.2759 127.26 92.8905 126.841 94.436C126.19 96.9234 124.525 99.1603 122.253 100.389C120.024 101.726 117.31 102.041 114.768 101.697C113.463 101.425 112.155 101.046 111.03 100.308C110.438 99.977 109.959 99.4844 109.372 99.1459C109.31 102.263 109.365 105.383 109.351 108.501C108.275 108.488 107.199 108.484 106.123 108.498C106.025 107.802 106.067 107.099 106.061 106.399C106.064 104.575 106.054 102.75 106.065 100.925C106.162 99.5823 106.107 98.237 106.123 96.8932C106.147 94.1104 106.126 91.3277 106.173 88.545C106.212 86.8943 106.59 85.1933 107.553 83.825C108.086 82.6583 109.065 81.7754 110.007 80.9356ZM115.665 81.8661C112.547 82.2377 109.755 84.898 109.479 88.0711C109.408 89.4639 109.492 90.861 109.44 92.2553C109.339 92.7234 109.562 93.167 109.659 93.615C110.326 96.3718 112.849 98.5237 115.652 98.8449C116.95 98.9543 118.304 98.901 119.511 98.3667C121.775 97.4002 123.591 95.2526 123.859 92.7666C123.944 91.5034 123.868 90.2359 123.892 88.9713C123.915 88.025 123.773 87.0701 123.41 86.1929C122.478 84.0525 120.469 82.412 118.177 81.9482C117.35 81.797 116.502 81.8085 115.665 81.8661ZM134.696 80.2875C137.954 78.163 142.408 77.9844 145.784 79.9447C146.813 80.4661 147.644 81.2741 148.45 82.0822C147.923 82.7044 147.281 83.2114 146.725 83.8062C146.539 83.9776 146.38 84.198 146.144 84.3003C145.581 83.8754 145.165 83.2704 144.522 82.9464C142.898 81.8589 140.845 81.6169 138.953 81.9641C136.841 82.412 135.01 83.8711 133.993 85.7593C133.521 86.6581 133.325 87.675 133.286 88.6818C133.27 93.036 133.311 97.3887 133.268 101.741C132.193 101.731 131.12 101.73 130.047 101.741C130.053 98.0123 130.047 94.2847 130.05 90.5557C130.066 89.2767 129.949 87.9717 130.319 86.7287C130.558 84.839 131.584 83.1307 132.943 81.8258C133.522 81.3073 133.94 80.5756 134.696 80.2875ZM158.649 86.6668C159.535 82.3601 163.523 78.9638 167.886 78.6311C169.544 78.4467 171.245 78.6844 172.805 79.2721C173.204 79.4593 173.558 79.7402 173.993 79.8525C175.039 80.4373 176.014 81.1719 176.822 82.0591C176.116 82.8211 175.356 83.5297 174.614 84.2556C174.048 84.0525 173.722 83.5095 173.256 83.1653C171.859 82.1081 170.06 81.6861 168.328 81.8387C166.743 81.8603 165.299 82.6439 164.074 83.5873C162.903 84.7108 161.93 86.1382 161.726 87.7801C161.658 89.6137 161.543 91.4631 161.819 93.2851C162.414 96.4668 165.52 98.9169 168.737 98.8823C170.572 98.9774 172.461 98.322 173.779 97.0286C174.022 96.7924 174.277 96.5691 174.516 96.3286C175.105 96.7823 175.547 97.3959 176.144 97.8467C176.355 98.1088 176.816 98.309 176.753 98.6965C176.383 99.1531 175.879 99.47 175.408 99.8113C174.757 100.258 174.078 100.686 173.323 100.932C172.757 101.118 172.233 101.427 171.64 101.52C169.316 102.048 166.838 101.893 164.617 101.023C162.885 100.317 161.288 99.1833 160.234 97.6191C158.916 95.8533 158.371 93.6034 158.422 91.4228C158.472 89.837 158.289 88.2281 158.649 86.6668ZM183.265 80.4762C185.996 78.5274 189.666 78.0564 192.83 79.1251C193.202 79.2533 193.488 79.5644 193.88 79.6465C194.845 79.8367 195.544 80.5741 196.3 81.1402C197.175 81.8056 197.805 82.7202 198.467 83.583C199.291 84.9931 199.807 86.6106 199.837 88.2497C199.863 89.4826 199.948 90.7199 199.827 91.9499C195.467 91.9283 191.107 91.9456 186.749 91.9399C185.221 91.973 183.687 91.8736 182.163 91.9917C182.15 93.216 182.49 94.4331 183.118 95.4831C183.841 96.6627 184.94 97.5773 186.168 98.1953C188.587 99.3374 191.637 99.0897 193.758 97.4218C194.197 97.1121 194.525 96.6699 194.965 96.3617C195.162 96.4726 195.319 96.6426 195.485 96.7981C196.089 97.4016 196.798 97.9072 197.296 98.613C195.042 100.871 191.793 102.04 188.617 101.787C185.985 101.652 183.353 100.589 181.533 98.6533C180.012 97.1928 179.279 95.1216 178.833 93.108C178.949 91.2456 178.795 89.3732 178.919 87.5094C179.262 84.6748 180.98 82.1311 183.265 80.4762ZM186.886 82.2118C185.494 82.7332 184.238 83.6608 183.378 84.8779C182.524 85.938 182.163 87.3221 182.16 88.666C182.916 88.7769 183.682 88.702 184.444 88.7193C188.47 88.7077 192.497 88.7437 196.524 88.702C196.625 86.8785 195.761 85.0968 194.445 83.8711C193.436 82.8239 192.08 82.0908 190.638 81.8863C189.385 81.7869 188.074 81.7379 186.886 82.2118ZM151.278 79.0142C152.371 78.9941 153.481 78.8932 154.566 79.0718C154.541 86.6192 154.6 94.1681 154.551 101.714C153.455 101.733 152.352 101.779 151.259 101.679C151.242 96.8673 151.255 92.0551 151.244 87.2415C151.267 84.4991 151.193 81.7552 151.278 79.0142ZM142.872 104.589C144.818 104.269 146.869 104.671 148.56 105.682C149.371 106.169 150.199 106.69 150.795 107.438C151.175 108.121 151.666 108.74 151.978 109.462C152.704 111.059 152.891 112.868 152.608 114.594C152.133 117.114 150.477 119.403 148.188 120.574C145.486 122.072 141.997 121.844 139.445 120.133C137.439 118.76 136.016 116.529 135.699 114.11C135.637 112.953 135.586 111.752 136 110.648C136.225 110.097 136.341 109.502 136.645 108.983C137.133 108.082 137.878 107.362 138.603 106.65C139.736 105.504 141.293 104.837 142.872 104.589ZM166.493 104.593C169.71 104.036 173.165 105.534 174.945 108.27C176.596 110.631 176.845 113.858 175.664 116.472C174.821 118.523 173.066 120.129 171.02 120.948C170.133 121.385 169.132 121.451 168.17 121.578C166.81 121.605 165.43 121.326 164.202 120.739C162.37 119.913 160.912 118.364 160.052 116.561C159.626 115.669 159.492 114.681 159.192 113.748C159.073 113.461 159.306 113.189 159.3 112.901C159.358 111.707 159.575 110.503 160.101 109.42C160.771 108.142 161.608 106.908 162.836 106.106C163.955 105.404 165.157 104.737 166.493 104.593Z" fill="#7FBA00"/>
</g>
<defs>
<clipPath id="clip0_6463_602">
<rect width="200" height="49.8358" fill="white" transform="translate(0 75)"/>
</clipPath>
</defs>
</svg>
