<svg width="200" height="200" viewBox="0 0 200 200" fill="none" xmlns="http://www.w3.org/2000/svg">
<g clip-path="url(#clip0_7537_20)">
<path d="M53.5158 94.8424V93.3332C50.0676 93.2185 48.6386 91.5613 48.6386 88.5095C48.6386 85.4576 50.1323 83.8818 53.5158 83.7671V82.6685H54.7634V83.7671C58.1468 83.8818 59.6239 85.4576 59.6239 88.5095C59.6239 91.5613 58.2116 93.2185 54.7634 93.3332V94.8424H53.5158ZM53.5158 84.8325C50.6913 84.8972 49.8862 86.277 49.8862 88.5575C49.8862 90.8381 50.7728 92.1994 53.5158 92.266V84.8325ZM54.7634 92.266C57.4898 92.2012 58.3764 90.8381 58.3764 88.5575C58.3764 86.277 57.5712 84.8991 54.7634 84.8325V92.266Z" fill="black"/>
<path d="M69.9206 88.9349C69.9206 91.2654 69.8873 92.5934 68.8211 93.6606C68.0326 94.4485 66.998 94.8739 65.8319 94.8739C64.6658 94.8739 63.6311 94.4466 62.8426 93.6606C61.7747 92.5934 61.7432 91.2654 61.7432 88.9349V88.0323C61.7432 86.6377 61.8413 85.2098 62.8426 84.2092C63.6311 83.4213 64.6825 82.9958 65.8319 82.9958C66.9813 82.9958 68.0326 83.4231 68.8211 84.2092C69.8392 85.2265 69.9206 86.7024 69.9206 88.1303V88.9349ZM68.6731 88.3116C68.6731 86.9336 68.6231 85.7184 67.8513 84.9472C67.3089 84.4052 66.5871 84.1112 65.8319 84.1112C65.0767 84.1112 64.3549 84.4071 63.8125 84.9472C62.9907 85.7684 62.9907 86.9817 62.9907 88.589V89.7542C62.9907 91.0175 63.0574 92.1661 63.8125 92.9207C64.3549 93.4627 65.0601 93.7568 65.8319 93.7568C66.6037 93.7568 67.3089 93.4608 67.8513 92.9207C68.6564 92.1162 68.6731 90.8529 68.6731 89.5082V88.3097V88.3116Z" fill="black"/>
<path d="M76.9319 89.9688H73.8279V94.7759H72.5804V83.0939H76.9319C79.0993 83.0939 80.5449 84.4718 80.5449 86.523C80.5449 88.5742 79.0993 89.9688 76.9319 89.9688ZM76.8171 84.2092H73.8279V88.8535H76.8171C78.3775 88.8535 79.2974 87.9842 79.2974 86.523C79.2974 85.0618 78.3775 84.2092 76.8171 84.2092Z" fill="black"/>
<path d="M91.5283 94.7778V85.9016L88.3262 92.9412H87.2582L84.0061 85.9016V94.7778H82.7586V83.0958H84.0061L87.8154 91.382L91.5265 83.0958H92.774V94.7778H91.5265H91.5283Z" fill="black"/>
<path d="M102.902 94.7778V85.245L96.9571 94.7778H95.7743V83.0958H97.0218V92.612L102.965 83.0958H104.148V94.7778H102.9H102.902Z" fill="black"/>
<path d="M111.492 89.9688H108.388V94.7759H107.141V83.0939H111.492C113.66 83.0939 115.105 84.4718 115.105 86.523C115.105 88.5742 113.66 89.9688 111.492 89.9688ZM111.378 84.2092H108.388V88.8535H111.378C112.938 88.8535 113.858 87.9842 113.858 86.523C113.858 85.0618 112.938 84.2092 111.378 84.2092Z" fill="black"/>
<path d="M125.278 88.9349C125.278 91.2654 125.245 92.5934 124.179 93.6606C123.39 94.4485 122.355 94.8739 121.189 94.8739C120.023 94.8739 118.989 94.4466 118.2 93.6606C117.132 92.5934 117.101 91.2654 117.101 88.9349V88.0323C117.101 86.6377 117.199 85.2098 118.2 84.2092C118.989 83.4213 120.04 82.9958 121.189 82.9958C122.339 82.9958 123.39 83.4231 124.179 84.2092C125.197 85.2265 125.278 86.7024 125.278 88.1303V88.9349ZM124.031 88.3116C124.031 86.9336 123.981 85.7184 123.209 84.9472C122.666 84.4052 121.945 84.1112 121.189 84.1112C120.434 84.1112 119.712 84.4071 119.17 84.9472C118.348 85.7684 118.348 86.9817 118.348 88.589V89.7542C118.348 91.0175 118.415 92.1661 119.17 92.9207C119.712 93.4627 120.418 93.7568 121.189 93.7568C121.961 93.7568 122.666 93.4608 123.209 92.9207C124.014 92.1162 124.031 90.8529 124.031 89.5082V88.3097V88.3116Z" fill="black"/>
<path d="M132.487 94.7778H127.94V83.0958H132.341C134.411 83.0958 135.79 84.3258 135.79 86.1643C135.79 87.0003 135.493 87.7068 134.936 88.2321C134.69 88.4781 134.509 88.5762 134.066 88.7741C134.609 89.0034 134.821 89.1347 135.101 89.414C135.675 89.9726 135.971 90.6939 135.971 91.5799C135.971 93.5645 134.657 94.7797 132.489 94.7797L132.487 94.7778ZM132.241 84.2093H129.187V88.2617H132.241C133.687 88.2617 134.54 87.5071 134.54 86.2272C134.54 84.9473 133.687 84.2093 132.241 84.2093ZM132.373 89.3789H129.187V93.6607H132.373C133.818 93.6607 134.722 92.8247 134.722 91.5114C134.722 90.1982 133.818 89.3789 132.373 89.3789Z" fill="black"/>
<path d="M145.627 94.7778L144.691 92.1366H139.584L138.647 94.7778H137.317L141.618 83.0958H142.669L146.954 94.7778H145.623H145.627ZM142.162 84.8825L139.961 91.0528H144.33L142.162 84.8825Z" fill="black"/>
<path d="M155.744 94.7778V89.4455H150.193V94.7778H148.946V83.0958H150.193V88.3302H155.744V83.0958H156.992V94.7778H155.744Z" fill="black"/>
<path d="M167.111 94.7778V85.245L161.166 94.7778H159.983V83.0958H161.23V92.612L167.174 83.0958H168.357V94.7778H167.109H167.111Z" fill="black"/>
<path d="M171.35 94.7778V83.0958H178.607V84.2111H172.597V88.3302H177.72V89.4455H172.597V93.6625H178.607V94.7778H171.35Z" fill="black"/>
<path d="M48.7812 114.663V102.981H50.0287V108.542L55.0373 102.981H56.6143L51.4909 108.528L57.0567 114.665H55.3982L50.0287 108.578V114.665H48.7812V114.663Z" fill="black"/>
<path d="M65.93 108.822C65.93 111.152 65.8967 112.48 64.8305 113.547C64.042 114.335 63.0074 114.761 61.8413 114.761C60.6752 114.761 59.6405 114.333 58.852 113.547C57.7841 112.48 57.7526 111.152 57.7526 108.822V107.919C57.7526 106.525 57.8507 105.097 58.852 104.096C59.6405 103.308 60.6919 102.883 61.8413 102.883C62.9907 102.883 64.042 103.31 64.8305 104.096C65.8485 105.113 65.93 106.589 65.93 108.017V108.822ZM64.6825 108.198C64.6825 106.82 64.6325 105.605 63.8607 104.834C63.3183 104.292 62.5965 103.998 61.8413 103.998C61.0861 103.998 60.3643 104.294 59.8219 104.834C59.0001 105.655 59.0001 106.869 59.0001 108.476V109.641C59.0001 110.904 59.0668 112.053 59.8219 112.808C60.3643 113.35 61.0695 113.644 61.8413 113.644C62.6131 113.644 63.3183 113.348 63.8607 112.808C64.6658 112.003 64.6825 110.74 64.6825 109.395V108.197V108.198Z" fill="black"/>
<path d="M77.3595 114.663V105.787L74.1574 112.826H73.0894L69.8373 105.787V114.663H68.5898V102.981H69.8373L73.6465 111.267L77.3576 102.981H78.6051V114.663H77.3576H77.3595Z" fill="black"/>
<path d="M85.8034 114.729V113.22C82.3551 113.105 80.9262 111.448 80.9262 108.396C80.9262 105.344 82.4199 103.769 85.8034 103.654V102.555H87.0509V103.654C90.4344 103.769 91.9115 105.344 91.9115 108.396C91.9115 111.448 90.4992 113.105 87.0509 113.22V114.729H85.8034ZM85.8034 104.719C82.9789 104.784 82.1737 106.164 82.1737 108.444C82.1737 110.725 83.0603 112.086 85.8034 112.153V104.719ZM87.0509 112.153C89.7773 112.088 90.6639 110.725 90.6639 108.444C90.6639 106.164 89.8588 104.786 87.0509 104.719V112.153Z" fill="black"/>
<path d="M102.208 108.822C102.208 111.152 102.175 112.48 101.109 113.547C100.32 114.335 99.2855 114.761 98.1195 114.761C96.9534 114.761 95.9187 114.333 95.1302 113.547C94.0622 112.48 94.0308 111.152 94.0308 108.822V107.919C94.0308 106.525 94.1289 105.097 95.1302 104.096C95.9187 103.308 96.97 102.883 98.1195 102.883C99.2689 102.883 100.32 103.31 101.109 104.096C102.127 105.113 102.208 106.589 102.208 108.017V108.822ZM100.959 108.198C100.959 106.82 100.909 105.605 100.137 104.834C99.5946 104.292 98.8728 103.998 98.1176 103.998C97.3624 103.998 96.6406 104.294 96.0982 104.834C95.2764 105.655 95.2764 106.869 95.2764 108.476V109.641C95.2764 110.904 95.3431 112.053 96.0982 112.808C96.6406 113.35 97.3458 113.644 98.1176 113.644C98.8894 113.644 99.5946 113.348 100.137 112.808C100.942 112.003 100.959 110.74 100.959 109.395V108.197V108.198Z" fill="black"/>
<path d="M109.219 109.856H106.115V114.663H104.868V102.981H109.219C111.387 102.981 112.832 104.359 112.832 106.41C112.832 108.461 111.387 109.856 109.219 109.856ZM109.105 104.096H106.115V108.74H109.105C110.665 108.74 111.585 107.871 111.585 106.41C111.585 104.949 110.665 104.096 109.105 104.096Z" fill="black"/>
<path d="M118.811 104.096V114.663H117.563V104.096H114.182V102.981H122.194V104.096H118.813H118.811Z" fill="black"/>
<path d="M131.109 114.663V109.33H125.558V114.663H124.31V102.981H125.558V108.215H131.109V102.981H132.356V114.663H131.109Z" fill="black"/>
<path d="M143.193 108.822C143.193 111.152 143.16 112.48 142.094 113.547C141.305 114.335 140.271 114.761 139.104 114.761C137.938 114.761 136.904 114.333 136.115 113.547C135.047 112.48 135.016 111.152 135.016 108.822V107.919C135.016 106.525 135.114 105.097 136.115 104.096C136.904 103.308 137.955 102.883 139.104 102.883C140.254 102.883 141.305 103.31 142.094 104.096C143.112 105.113 143.193 106.589 143.193 108.017V108.822ZM141.946 108.198C141.946 106.82 141.896 105.605 141.124 104.834C140.582 104.292 139.86 103.998 139.104 103.998C138.349 103.998 137.627 104.294 137.085 104.834C136.263 105.655 136.263 106.869 136.263 108.476V109.641C136.263 110.904 136.33 112.053 137.085 112.808C137.627 113.35 138.333 113.644 139.104 113.644C139.876 113.644 140.582 113.348 141.124 112.808C141.929 112.003 141.946 110.74 141.946 109.395V108.197V108.198Z" fill="black"/>
<path d="M152.981 114.663V105.13L147.036 114.663H145.853V102.981H147.101V112.497L153.044 102.981H154.227V114.663H152.979H152.981ZM150.042 102.243C148.679 102.243 147.743 101.636 147.645 100.175H148.696C148.761 100.979 149.238 101.388 150.042 101.388C150.845 101.388 151.322 100.978 151.387 100.175H152.439C152.34 101.636 151.404 102.243 150.042 102.243Z" fill="black"/>
<path d="M51.0504 124.893V134.54H48.7682V122.858H56.1238V124.893H51.0504Z" fill="black"/>
<path d="M66.0281 129.127C66.0281 130.652 66.0114 132.178 64.862 133.36C64.0402 134.213 62.9741 134.64 61.7099 134.64C60.4457 134.64 59.3611 134.196 58.5411 133.36C57.4083 132.195 57.3917 130.456 57.3917 129.193V128.226C57.3917 125.895 57.6378 124.961 58.5411 124.042C59.3629 123.206 60.4457 122.762 61.7099 122.762C62.9741 122.762 64.0421 123.206 64.862 124.042C65.6838 124.878 66.0281 125.995 66.0281 127.882V129.128V129.127ZM63.1703 125.418C62.8093 125.007 62.3003 124.795 61.708 124.795C61.1157 124.795 60.5919 125.007 60.231 125.418C59.7053 125.991 59.672 127.092 59.672 128.536V129.127C59.672 130.34 59.6887 131.44 60.231 131.982C60.6252 132.376 61.1176 132.606 61.708 132.606C62.2985 132.606 62.8075 132.393 63.1703 131.982C63.646 131.44 63.7441 130.867 63.7441 128.487C63.7441 126.567 63.6293 125.927 63.1703 125.418Z" fill="black"/>
<path d="M72.647 122.858C74.8959 122.858 76.5062 124.367 76.5062 126.5C76.5062 128.633 74.9125 130.142 72.647 130.142H70.3981V134.54H68.1159V122.858H72.6489H72.647ZM72.5322 128.092C73.5503 128.092 74.224 127.469 74.224 126.5C74.224 125.531 73.5503 124.893 72.5322 124.893H70.3981V128.092H72.5322Z" fill="black"/>
<path d="M86.6789 129.127C86.6789 130.652 86.6622 132.178 85.5128 133.36C84.691 134.213 83.6249 134.64 82.3607 134.64C81.0965 134.64 80.0118 134.196 79.1919 133.36C78.0591 132.195 78.0425 130.456 78.0425 129.193V128.226C78.0425 125.895 78.2886 124.961 79.1919 124.042C80.0137 123.206 81.0965 122.762 82.3607 122.762C83.6249 122.762 84.6928 123.206 85.5128 124.042C86.3346 124.878 86.6789 125.995 86.6789 127.882V129.128V129.127ZM83.8211 125.418C83.4601 125.007 82.9511 124.795 82.3588 124.795C81.7665 124.795 81.2427 125.007 80.8818 125.418C80.3561 125.991 80.3228 127.092 80.3228 128.536V129.127C80.3228 130.34 80.3395 131.44 80.8818 131.982C81.276 132.376 81.7684 132.606 82.3588 132.606C82.9493 132.606 83.4583 132.393 83.8211 131.982C84.2967 131.44 84.3948 130.867 84.3948 128.487C84.3948 126.567 84.2801 125.927 83.8211 125.418Z" fill="black"/>
<path d="M96.524 137.133V134.54H90.0383V137.133H87.8376V132.506H88.937C89.905 131.013 90.3326 128.535 90.3326 125.843V122.856H97.3772V132.504H98.7229V137.131H96.5221L96.524 137.133ZM95.0969 124.893H92.5185V126.583C92.5185 128.897 92.289 130.882 91.4839 132.507H95.0969V124.895V124.893Z" fill="black"/>
<path d="M104.318 134.64C103.037 134.64 101.986 134.181 101.166 133.36C99.9834 132.178 100.017 130.719 100.017 128.701C100.017 126.683 99.9834 125.222 101.166 124.042C101.988 123.221 103.037 122.762 104.318 122.762C106.502 122.762 108.211 124.009 108.62 126.454H106.304C106.075 125.518 105.482 124.797 104.333 124.797C103.709 124.797 103.2 125.026 102.871 125.403C102.427 125.895 102.295 126.454 102.295 128.701C102.295 130.948 102.427 131.507 102.871 131.999C103.198 132.376 103.707 132.606 104.333 132.606C105.482 132.606 106.073 131.884 106.304 130.948H108.62C108.209 133.394 106.486 134.64 104.318 134.64Z" fill="black"/>
<path d="M110.387 134.54V122.858H112.67V128.405L116.445 122.858H119.172L115.248 128.338L119.566 134.54H116.775L112.67 128.437V134.54H110.387Z" fill="black"/>
<path d="M128.538 129.127C128.538 130.652 128.521 132.178 127.372 133.36C126.55 134.213 125.484 134.64 124.219 134.64C122.955 134.64 121.871 134.196 121.051 133.36C119.918 132.195 119.901 130.456 119.901 129.193V128.226C119.901 125.895 120.147 124.961 121.051 124.042C121.872 123.206 122.955 122.762 124.219 122.762C125.484 122.762 126.552 123.206 127.372 124.042C128.193 124.878 128.538 125.995 128.538 127.882V129.128V129.127ZM125.682 125.418C125.321 125.007 124.812 124.795 124.219 124.795C123.627 124.795 123.103 125.007 122.742 125.418C122.217 125.991 122.183 127.092 122.183 128.536V129.127C122.183 130.34 122.2 131.44 122.742 131.982C123.137 132.376 123.629 132.606 124.219 132.606C124.81 132.606 125.319 132.393 125.682 131.982C126.157 131.44 126.255 130.867 126.255 128.487C126.255 126.567 126.141 125.927 125.682 125.418Z" fill="black"/>
<path d="M137.211 134.54V127.042L132.663 134.54H130.627V122.858H132.909V130.34L137.457 122.858H139.493V134.54H137.211ZM135.075 122.235C133.778 122.235 132.48 121.662 132.415 119.888H134.024C134.074 120.609 134.483 120.905 135.075 120.905C135.667 120.905 136.076 120.609 136.126 119.888H137.735C137.668 121.66 136.373 122.235 135.075 122.235Z" fill="black"/>
<path d="M150.264 134.64C148.983 134.64 147.932 134.181 147.112 133.36C145.929 132.178 145.962 130.719 145.962 128.701C145.962 126.683 145.929 125.222 147.112 124.042C147.933 123.221 148.983 122.762 150.264 122.762C152.448 122.762 154.156 124.009 154.565 126.454H152.25C152.02 125.518 151.428 124.797 150.279 124.797C149.655 124.797 149.146 125.026 148.816 125.403C148.372 125.895 148.241 126.454 148.241 128.701C148.241 130.948 148.372 131.507 148.816 131.999C149.144 132.376 149.653 132.606 150.279 132.606C151.428 132.606 152.018 131.884 152.25 130.948H154.565C154.154 133.394 152.431 134.64 150.264 134.64Z" fill="black"/>
<path d="M160.851 122.858C163.1 122.858 164.71 124.367 164.71 126.5C164.71 128.633 163.117 130.142 160.851 130.142H158.602V134.54H156.32V122.858H160.853H160.851ZM160.736 128.092C161.754 128.092 162.428 127.469 162.428 126.5C162.428 125.531 161.754 124.893 160.736 124.893H158.602V128.092H160.736Z" fill="black"/>
<path d="M166.439 134.54V122.858H174.141V124.893H168.721V127.632H173.336V129.666H168.721V132.506H174.141V134.54H166.439Z" fill="black"/>
<path d="M184.176 137.133V134.54H177.691V137.133H175.49V132.506H176.589C177.558 131.013 177.985 128.535 177.985 125.843V122.856H185.03V132.504H186.375V137.131H184.175L184.176 137.133ZM182.748 124.893H180.169V126.583C180.169 128.897 179.94 130.882 179.134 132.507H182.748V124.895V124.893Z" fill="black"/>
<path d="M192.661 134.54H188.063V122.858H190.346V127.256H192.661C194.943 127.256 196.454 128.766 196.454 130.898C196.454 133.031 194.927 134.54 192.661 134.54ZM192.48 129.291H190.346V132.507H192.48C193.514 132.507 194.171 131.867 194.171 130.9C194.171 129.933 193.514 129.293 192.48 129.293V129.291ZM197.718 134.54V122.858H200V134.54H197.718Z" fill="black"/>
<path d="M10.9445 134.647H8.95478V126.511C3.86659 125.573 0 121.107 0 115.754V97.8573C0 92.5046 3.86659 88.0379 8.95478 87.1001V75.1777L36.8168 63V126.692H17.9114V122.716H32.8373V69.0814L12.9361 77.7819V87.102C18.0243 88.0397 21.8909 92.5065 21.8909 97.8573V112.275C21.8909 115.839 18.9905 118.737 15.4238 118.737C11.857 118.737 8.95663 115.839 8.95663 112.275V91.1859C6.08214 92.0441 3.98134 94.7093 3.98134 97.8573V115.754C3.98134 119.592 7.10571 122.714 10.9464 122.714H12.9361V134.646H10.9464L10.9445 134.647ZM12.9361 91.1877V112.277C12.9361 113.647 14.0522 114.763 15.4238 114.763C16.7953 114.763 17.9114 113.647 17.9114 112.277V97.8592C17.9114 94.7112 15.8106 92.0459 12.9361 91.1877Z" fill="black"/>
</g>
<defs>
<clipPath id="clip0_7537_20">
<rect width="200" height="74.1333" fill="white" transform="translate(0 63)"/>
</clipPath>
</defs>
</svg>
