<svg width="200" height="200" viewBox="0 0 200 200" fill="none" xmlns="http://www.w3.org/2000/svg">
<g clip-path="url(#clip0_6598_1050)">
<path fill-rule="evenodd" clip-rule="evenodd" d="M42.6517 107.89H45.6625L46.0263 105.706H48.0958L48.4595 107.89H51.471L48.9282 95.2347H45.1969L42.6517 107.89ZM47.0579 99.0849L47.6293 102.947H46.5019L47.0579 99.0849ZM54.3151 100.205C54.4849 100.219 54.6564 100.198 54.8178 100.143C54.9802 100.09 55.1304 100.005 55.2594 99.8931C55.3885 99.7811 55.4938 99.6444 55.5691 99.4911C55.6448 99.339 55.6896 99.1729 55.7004 99.0031C55.6981 98.756 55.6165 98.5161 55.4678 98.3187C55.3191 98.1214 55.111 97.9769 54.8741 97.9065C54.7174 97.8592 54.5525 97.845 54.39 97.8648C53.8278 97.8648 53.2718 97.9807 52.756 98.2054V95.5637C53.6021 95.3428 54.4739 95.2363 55.3483 95.2471C57.7722 95.2471 58.8734 96.8695 58.8734 98.4509C58.891 99.0641 58.7185 99.6678 58.3795 100.179C58.0405 100.69 57.5516 101.084 56.9799 101.307V101.425C57.6009 101.611 58.14 102.003 58.5086 102.537C58.8771 103.07 59.0531 103.713 59.0077 104.36C59.0077 106.661 57.3189 107.934 55.166 107.934C54.191 107.975 53.2225 107.757 52.3598 107.3L52.4216 104.764C53.0434 105.029 53.7153 105.156 54.3907 105.135C54.5553 105.148 54.7208 105.127 54.8771 105.074C55.0334 105.021 55.1774 104.937 55.3003 104.827C55.4232 104.716 55.5225 104.582 55.5922 104.433C55.6619 104.283 55.7005 104.121 55.7058 103.956C55.7058 103.274 55.2502 102.82 54.2309 102.82H53.0432V100.198L54.3151 100.205ZM60.3985 95.2563H68.5004V107.92H65.5235V98.3019H63.3707V107.928H60.3977V95.2571L60.3985 95.2563ZM70.1838 107.888H73.1243V103.729H74.1212C77.0618 103.729 77.9629 101.118 77.9629 99.4641C77.9629 97.81 76.9274 95.2563 74.1212 95.2563H70.166V107.911L70.1838 107.888ZM73.1313 98.0394H73.834C74.5174 98.0394 74.9359 98.437 74.9359 99.4803C74.9359 100.857 74.2239 100.943 73.8347 100.943H73.1313V98.0394ZM83.4927 107.945C87.0116 107.945 88.1923 104.781 88.1923 101.618C88.1923 98.4556 87.0023 95.2903 83.4927 95.2903C79.9838 95.2903 78.7892 98.4533 78.7892 101.618C78.7892 104.783 79.9768 107.945 83.4927 107.945ZM83.4927 104.962C82.4487 104.962 81.8996 103.785 81.8996 101.608C81.8996 99.4324 82.4394 98.2494 83.4927 98.2494C84.5467 98.2494 85.0857 99.4255 85.0857 101.608C85.0857 103.792 84.5375 104.962 83.4927 104.962ZM101.114 107.842H104.656C105.469 107.871 106.27 107.641 106.943 107.185C107.617 106.729 108.129 106.071 108.405 105.306C108.587 104.798 108.659 104.257 108.618 103.72C108.618 100.5 106.128 99.9482 104.521 99.9482H104.03V98.278H107.992V95.2563H101.164V107.842L101.114 107.844V107.842ZM104.03 105.328V102.463H104.458C104.799 102.463 105.741 102.463 105.741 103.774C105.741 105.085 104.799 105.364 104.458 105.364L104.03 105.328ZM119.32 95.2587H122.22V99.8031H124.296V95.2587H127.215V107.882H124.296V102.826H122.22V107.88H119.32V95.2594V95.2587ZM129.152 95.2587H132.054V99.8031H132.677L134.339 95.2587H137.502L135.226 101.246L137.809 107.882H134.395L132.732 102.804H132.049V107.882H129.152V95.2594V95.2587ZM36.8664 95.2726H42.9514V98.4031H39.8888V107.839H36.8695L36.8664 95.2726ZM89.6147 95.2571H92.1344L94.3622 98.2378L96.5946 95.2571H99.1143V107.911H96.1552V100.188L94.3668 102.402L92.5915 100.188V107.911H89.617L89.6147 95.2563V95.2571ZM109.237 107.918H112.248L112.602 105.734H114.678L115.042 107.918H118.044L115.502 95.2633H111.77L109.237 107.918ZM113.64 99.098L114.202 102.961H113.078L113.64 99.098ZM176.317 95.2811V102.083L178.995 95.2811H181.713V107.881H179.009V101.079L176.317 107.881H173.615V95.2811H176.317ZM155.771 95.2811V107.881H158.474L161.176 101.079V107.881H163.868V95.2811H161.151L158.474 102.083V95.2811H155.771ZM146.895 95.1853V102.099C146.895 104.346 146.602 104.852 145.953 104.852C145.722 104.839 145.493 104.802 145.27 104.741V107.72C145.652 107.869 146.058 107.947 146.467 107.947C149.636 107.947 149.636 104.903 149.636 103.203V98.2069H150.773V107.77H153.547V95.1853H146.895ZM166.164 100.17V102.829H167.378C168.383 102.829 168.843 103.283 168.843 103.964C168.837 104.129 168.797 104.292 168.726 104.441C168.655 104.591 168.555 104.725 168.43 104.834C168.305 104.943 168.159 105.025 168.001 105.076C167.844 105.126 167.677 105.144 167.512 105.127C166.836 105.155 166.163 105.031 165.541 104.766L165.486 107.304C166.348 107.768 167.32 107.99 168.299 107.947C170.445 107.947 172.141 106.665 172.141 104.364C172.184 103.717 172.006 103.075 171.636 102.543C171.266 102.011 170.725 101.621 170.103 101.438V101.31C170.673 101.075 171.156 100.668 171.485 100.147C171.814 99.626 171.973 99.0155 171.941 98.4C171.941 96.81 170.846 95.1899 168.422 95.1899C167.547 95.1822 166.676 95.2888 165.83 95.5065V98.1459C166.35 97.9306 166.908 97.8254 167.47 97.837C167.633 97.8172 167.798 97.8316 167.955 97.8794C168.112 97.9271 168.257 98.0071 168.381 98.1143C168.504 98.222 168.603 98.3543 168.672 98.5025C168.741 98.6508 168.778 98.8118 168.781 98.9753C168.757 99.3141 168.6 99.6295 168.344 99.8532C168.089 100.077 167.755 100.191 167.416 100.17H166.164ZM193.727 107.865H196.747V98.4054H199.812V95.2587H193.729L193.727 107.865ZM183.808 107.865H186.708V102.829H188.784V107.874H191.692V95.2587H188.785V99.8023H186.71V95.2587H183.811L183.808 107.865Z" fill="#487CFB"/>
<path d="M1.25084e-05 101.602C0.0136922 104.439 0.868543 107.208 2.45638 109.558C4.04572 111.911 6.29605 113.74 8.92356 114.815C11.552 115.89 14.4396 116.164 17.2234 115.603C20.0072 115.041 22.5629 113.669 24.5691 111.659C26.5732 109.652 27.9363 107.094 28.4857 104.311C29.0352 101.528 28.7463 98.6443 27.6556 96.0255C26.5646 93.4056 24.7218 91.1678 22.3599 89.5946C19.9958 88.0199 17.2188 87.1798 14.3784 87.1799C10.5582 87.192 6.89849 88.7175 4.20078 91.4224C1.50604 94.1244 -0.0050156 97.7862 1.25084e-05 101.602ZM0.495765 101.602C0.508596 98.8636 1.33362 96.1902 2.86642 93.9205C4.40047 91.6489 6.5729 89.8824 9.10966 88.844C11.6474 87.8052 14.4356 87.5399 17.1236 88.0815C19.8117 88.6232 22.2796 89.9475 24.217 91.888C26.1522 93.8265 27.4685 96.2958 27.9991 98.983C28.5297 101.67 28.2508 104.454 27.1977 106.983C26.1446 109.513 24.3655 111.674 22.085 113.193C19.8026 114.713 17.1215 115.524 14.3792 115.524C10.6917 115.511 7.15941 114.039 4.55522 111.428C1.95327 108.82 0.49314 105.286 0.495765 101.602ZM4.47878 97.6471C8.15445 95.2224 12.2185 93.8208 19.1166 95.0139C19.293 94.9328 19.4473 94.8103 19.5661 94.6567C19.685 94.5032 19.765 94.3232 19.7992 94.132C18.0788 93.512 16.2147 93.2942 13.8008 93.332C11.6294 93.3915 7.73746 94.2 5.64403 95.4363L6.27878 94.6409C7.73515 93.7869 11.5336 92.6463 14.3792 92.5961C16.3861 92.5575 17.4278 92.671 19.8131 93.3166C19.6062 92.9027 19.1073 92.7012 18.3884 92.3761C16.0788 91.3351 11.7629 91.2402 8.22936 92.7985C8.69268 92.4842 9.17916 92.2069 9.68573 91.9691C11.4118 91.2411 13.2752 90.8962 15.1475 90.9583C17.0525 90.9876 19.312 91.6556 20.6981 93.0355C20.8973 93.2641 21.0417 93.5351 21.122 93.8278C22.2185 94.3838 22.8533 94.9066 23.2131 95.5251C23.3691 95.8494 23.4185 96.2154 23.3545 96.5699C23.714 96.7677 24.025 97.0431 24.2649 97.3761C24.4247 97.6162 24.5274 97.8903 24.5653 98.1761C24.6133 98.3817 24.6134 98.5956 24.5656 98.8012C24.5178 99.0069 24.4234 99.1988 24.2896 99.3622C24.6374 99.5732 24.8932 99.9073 25.0062 100.298C25.1792 101.127 24.6494 101.934 23.946 102.57C23.1406 103.281 21.3606 104.124 19.9112 104.494C17.0301 105.221 14.488 105.531 12.4626 105.903C13.8185 106.247 15.2139 106.414 16.6131 106.398C20.9081 106.398 24.7058 104.354 24.7058 104.354C24.7058 104.354 24.6193 104.619 24.5375 104.856C21.807 106.51 17.4618 107.207 15.6139 107.127C13.9156 107.064 12.2327 106.78 10.6077 106.282C10.1305 106.402 9.66488 106.562 9.21468 106.759C11.5722 107.836 13.3537 108.077 15.373 108.225C17.4209 108.375 20.8348 107.88 23.7089 106.835C23.5792 106.964 23.5112 107.175 23.3768 107.289C21.9066 108.061 18.7915 108.841 17.2324 108.907C15.5254 108.99 13.8144 108.887 12.1297 108.599C10.8208 108.327 9.5477 107.904 8.33592 107.339C8.2353 107.411 8.15051 107.503 8.08677 107.61C8.02303 107.716 7.98168 107.834 7.96526 107.957C12.6873 110.444 17.1236 110.492 22.166 108.92L21.7104 109.375C16.1606 111.628 11.8185 110.754 8.45947 109.129C8.34234 109.082 8.22878 109.026 8.1197 108.963C8.42704 109.506 10.9969 111.385 13.8649 111.621C15.8417 111.785 18.2564 111.444 19.6873 110.872L18.8502 111.312C17.2591 112.063 15.5003 112.388 13.746 112.255C10.3328 112.028 8.39538 110.508 7.53051 109.71C7.159 109.353 6.9103 108.887 6.82009 108.379C6.13998 108.058 5.56365 107.553 5.15677 106.92C4.96752 106.573 4.92099 106.166 5.02704 105.785C5.0448 105.677 5.07414 105.574 5.11584 105.473C4.76009 105.251 4.4509 104.962 4.20542 104.622C3.86642 104.01 4.07569 103.486 4.31044 103.077C4.11127 102.875 3.95015 102.638 3.83476 102.379C3.74977 102.105 3.72191 101.815 3.75291 101.53C3.83785 101.008 4.07569 100.523 4.43553 100.134C5.18457 99.271 6.36063 98.5961 8.37916 97.9282C10.3483 97.2672 11.1514 97.1714 12.6309 96.8239C14.3645 96.4201 16.4456 96.2927 18.183 95.6888C13.3382 94.834 8.30426 95.6085 4.20078 98.444L4.47878 97.6471ZM20.9853 94.6502C20.8711 94.9189 20.6996 95.1591 20.4819 95.3544C21.0147 95.5012 21.5398 95.6772 22.0525 95.8811C21.9931 95.4116 21.4448 94.9568 20.9784 94.6502M6.05561 104.362C5.78534 104.216 5.52279 104.056 5.26797 103.883C5.12511 104.19 5.39383 104.528 5.67569 104.692C5.79615 104.571 5.93283 104.465 6.05561 104.362ZM22.3915 98.0008C22.7267 98.1475 23.0502 98.3205 23.3591 98.5166C23.5861 98.0988 23.4433 97.8239 22.9853 97.4378C22.8073 97.6456 22.6083 97.8338 22.3915 98.0008ZM21.3537 98.6394C20.3246 99.0789 19.2583 99.4257 18.1676 99.6757C16.9776 99.973 14.0711 100.392 10.9514 101.073C9.95909 101.3 7.28727 101.92 5.97144 103.042C6.28418 103.276 6.62009 103.476 6.97299 103.64C7.71189 103.194 8.51587 102.865 9.356 102.666C11.024 102.233 12.7153 101.896 14.4216 101.656C16.1359 101.388 19.3467 100.714 21.1282 100.066C21.6732 99.8807 22.1867 99.6135 22.651 99.2734C22.5259 99.1344 21.3815 98.5915 21.3421 98.6324M7.87183 106.127C8.17392 105.952 8.48885 105.801 8.81391 105.673C8.30058 105.453 7.79011 105.225 7.28264 104.992C7.06411 105.123 6.8587 105.275 6.67028 105.446C7.06874 105.673 7.46256 105.9 7.86951 106.114M6.22472 106.278C6.22472 106.598 6.40851 106.884 6.83862 107.236C6.89268 107.066 6.98071 106.907 7.09577 106.768C6.79826 106.617 6.50815 106.454 6.22472 106.278ZM8.64789 100.346C12.1529 99.312 15.8324 98.9961 19.5722 98.0031C18.1151 97.6108 17.3166 97.4448 15.7761 97.6216C13.4725 97.8948 11.1951 98.3561 8.96681 99.0008C8.14287 99.251 3.79306 100.482 5.04789 102.211C5.04789 102.234 5.79383 101.184 8.64326 100.346M21.7977 96.749C21.1345 96.4577 20.4495 96.2186 19.749 96.034C19.3575 96.344 18.9197 96.5908 18.4517 96.7653C19.281 96.9375 20.0996 97.1574 20.9035 97.4239C21.0463 97.4965 21.6927 96.8903 21.7931 96.7429M23.5228 100.125C23.4131 100.219 23.295 100.307 23.1676 100.405C22.3738 101.021 21.1197 101.511 19.3807 101.977C15.7738 102.958 13.1545 103.102 10.173 103.831C9.57553 103.977 8.98965 104.167 8.42009 104.399C8.98071 104.68 9.57839 104.942 10.1931 105.178C11.3547 104.827 12.5396 104.558 13.739 104.374C14.4054 104.258 16.4703 103.899 17.9514 103.583C20.6371 103.008 24.5691 101.766 23.5228 100.132M36.8664 85.1112H40.8039V86.2471H38.1228V91.2456H36.8664V85.1112ZM41.6865 85.1112H43.99C45.2873 85.1112 46.1969 85.8911 46.1969 87.0857C46.1969 88.2803 45.2873 89.0687 43.9877 89.0687H42.9421V91.2293H41.688L41.6865 85.1112ZM43.9923 87.9761C44.1138 87.9874 44.2363 87.9725 44.3515 87.9323C44.4667 87.8921 44.5719 87.8276 44.66 87.7431C44.748 87.6586 44.8169 87.5562 44.8618 87.4428C44.9068 87.3293 44.9268 87.2076 44.9205 87.0857C44.9205 86.5761 44.5768 86.2154 43.9923 86.2154H42.9421V87.9761H43.9923ZM52.2548 85.1112L50.166 89.6911C49.6927 90.7097 49.2556 91.332 48.1429 91.332C47.9071 91.3337 47.6724 91.299 47.4471 91.2293V90.1637C47.6093 90.1822 47.7738 90.1907 47.9382 90.1915C48.1027 90.2016 48.2672 90.1714 48.4175 90.1038C48.5677 90.0361 48.6993 89.9329 48.8008 89.8031L46.5182 85.1112H47.9205L49.4788 88.4394L50.9197 85.1112H52.2548ZM53.0811 85.1112H58.2085V91.2293H56.9552V86.2317H54.3359V91.2293H53.0811V85.1112ZM59.6108 85.1112H64.7359V91.2293H63.4927V86.2317H60.8649V91.2293H59.6108V85.1112ZM69.7521 90.4317H67.2487L66.9073 91.2293H65.5622L68.2927 85H68.712L71.4425 91.2293H70.0935L69.7521 90.4317ZM68.5004 87.3351L67.6834 89.4031H69.3174L68.5004 87.3351Z" fill="#487CFB"/>
</g>
<defs>
<clipPath id="clip0_6598_1050">
<rect width="200" height="30.888" fill="white" transform="translate(0 85)"/>
</clipPath>
</defs>
</svg>
