<svg width="200" height="200" viewBox="0 0 200 200" fill="none" xmlns="http://www.w3.org/2000/svg">
<g clip-path="url(#clip0_6598_2057)">
<path fill-rule="evenodd" clip-rule="evenodd" d="M0 100.106C0 111.758 9.45469 121.213 21.1063 121.213C32.7579 121.213 42.2126 111.758 42.2126 100.106C42.2126 88.4547 32.7579 79 21.1063 79C9.45469 79 0 88.4547 0 100.106ZM0.74539 100.106C0.74539 88.847 9.88623 79.7062 21.1455 79.7062C32.4049 79.7062 41.5457 88.847 41.5457 100.106C41.5457 111.326 32.4049 120.467 21.1455 120.467C9.88623 120.506 0.74539 111.366 0.74539 100.106Z" fill="#00487C"/>
<path fill-rule="evenodd" clip-rule="evenodd" d="M6.59081 94.3393C12.0047 90.8085 17.9678 88.7293 28.0894 90.4947C28.6387 90.1808 28.9525 89.867 29.1094 89.2001C26.5987 88.2977 23.8525 87.9839 20.3217 88.0231C17.144 88.1016 11.4162 89.2785 8.35621 91.0831L9.29776 89.9062C11.4555 88.6508 17.0263 87.0031 21.1848 86.8854C24.1271 86.8462 25.6571 87.0031 29.1487 87.9447C28.8348 87.3562 28.1287 87.0423 27.0694 86.5716C23.6956 85.0416 17.3401 84.9239 12.1616 87.1993C12.8286 86.7677 13.4563 86.3754 14.3193 85.9831C16.0455 85.1985 18.8309 84.4531 22.3225 84.4923C25.1079 84.5316 28.4425 85.5123 30.4825 87.5131C30.8356 87.9054 31.0318 88.337 31.1102 88.6901C32.7187 89.5139 33.6602 90.2593 34.1703 91.1616C34.3664 91.6324 34.4841 92.1424 34.3664 92.6916C35.0333 93.0839 35.3472 93.437 35.7003 93.8686C35.9357 94.2216 36.1318 94.6532 36.171 95.0455C36.2495 95.5555 36.2887 96.1047 35.7787 96.7717C36.328 97.0463 36.7595 97.7917 36.838 98.1447C37.0734 99.3609 36.328 100.538 35.2687 101.479C34.0918 102.539 31.4633 103.755 29.3448 104.304C25.1079 105.363 21.3809 105.834 18.3994 106.383C19.7332 106.697 21.5379 107.129 24.5194 107.129C30.8356 107.129 36.4064 104.147 36.4064 104.147C36.4064 104.147 36.2887 104.539 36.171 104.892C32.1695 107.325 25.7748 108.345 23.0679 108.227C20.2825 108.109 17.9678 107.678 15.6924 106.972C14.9863 107.168 14.3193 107.364 13.6524 107.678C17.1047 109.247 19.7332 109.6 22.7148 109.836C25.7356 110.071 30.7179 109.326 34.9549 107.796C34.7587 107.992 34.6803 108.306 34.4841 108.463C32.3264 109.6 27.7364 110.738 25.461 110.816C23.1856 110.895 20.4002 110.816 17.9678 110.385C15.8886 109.993 14.1624 109.326 12.397 108.541C12.0832 108.776 11.9262 109.09 11.8478 109.443C18.6348 113.053 25.1471 113.131 32.5618 110.816L31.8949 111.483C23.7348 114.779 17.3794 113.484 12.4362 111.13C12.2793 111.052 12.0832 110.973 11.9262 110.895C12.397 111.679 16.1632 114.426 20.3609 114.779C23.264 115.014 26.7948 114.504 28.9133 113.68L27.6579 114.308C26.6379 114.818 23.9309 115.956 20.1648 115.681C15.1432 115.328 12.3185 113.131 11.0239 111.954C10.4355 111.405 10.1608 110.777 9.96469 109.993C8.82698 109.404 8.12083 108.776 7.53236 107.874C7.17928 107.325 7.25774 106.736 7.3362 106.226L7.4539 105.756C6.90466 105.363 6.35543 104.932 6.12004 104.5C5.61004 103.598 5.92388 102.852 6.27696 102.225C5.96312 101.872 5.6885 101.558 5.57081 101.205C5.45311 100.773 5.41388 100.381 5.45311 99.9494C5.53157 99.204 5.96312 98.4978 6.47312 97.9094C7.57159 96.654 9.29776 95.6732 12.2793 94.6924C15.1824 93.7509 16.3201 93.5939 18.5171 93.0839C21.0671 92.4955 24.1271 92.2993 26.6771 91.397C19.5763 90.1416 12.1616 91.2793 6.15927 95.4378L6.59081 94.3393ZM30.7964 89.9454C30.7179 90.2985 30.3256 90.6908 30.0902 90.9655C30.8748 91.1616 31.6595 91.4362 32.4049 91.7501C32.2872 91.0439 31.5025 90.377 30.7964 89.9454ZM8.90545 104.147C8.43467 103.872 8.12082 103.716 7.76775 103.441C7.57159 103.872 7.9639 104.382 8.35621 104.618C8.51314 104.461 8.70929 104.304 8.90545 104.147ZM32.8756 94.8493C33.3856 95.0847 33.8564 95.2809 34.2879 95.5947C34.6018 94.967 34.4056 94.5747 33.7387 94.0255C33.5033 94.3393 33.1895 94.6139 32.8756 94.8493ZM31.3456 95.7909C30.3256 96.2616 28.7956 96.7717 26.6771 97.3209C24.951 97.7524 20.6748 98.3801 16.0847 99.3609C14.6332 99.6748 10.7101 100.616 8.78775 102.225C9.33699 102.656 9.65084 102.774 10.2785 103.088C11.0632 102.578 12.1616 102.107 13.7701 101.676C16.5947 100.93 18.674 100.616 21.224 100.185C23.7348 99.7924 28.4425 98.8117 31.071 97.8701C31.9341 97.5563 32.7187 97.164 33.3072 96.6932C33.111 96.5363 31.4241 95.7124 31.3456 95.7909ZM11.5732 106.736C11.9655 106.501 12.4362 106.266 12.9462 106.069C12.2009 105.756 11.4555 105.442 10.7101 105.089C10.357 105.285 10.0431 105.52 9.80776 105.756C10.3962 106.069 10.9455 106.422 11.5732 106.736ZM9.14083 106.972C9.14083 107.443 9.41545 107.874 10.0431 108.384C10.1216 108.109 10.2393 107.953 10.4355 107.717C9.96469 107.482 9.57237 107.207 9.14083 106.972ZM12.7109 98.2624C17.8501 96.7717 23.264 96.3009 28.7564 94.8493C26.5987 94.2609 25.461 94.0255 23.1856 94.3001C19.8901 94.6924 16.2809 95.3986 13.1816 96.3009C11.9655 96.654 5.57081 98.4586 7.41467 101.009C7.41467 101.048 8.51314 99.5178 12.7109 98.2624ZM32.0125 93.0055C31.1887 92.6132 30.1295 92.2601 28.9918 91.9462C28.4818 92.3385 27.9325 92.6916 27.0694 93.0055C28.4425 93.2409 29.5018 93.6332 30.6787 93.9862C30.9141 94.1039 31.8556 93.2016 32.0125 93.0055ZM34.5626 97.9486C34.4056 98.0663 34.2487 98.2232 34.0526 98.3409C32.8756 99.2432 31.0318 99.9494 28.4818 100.656C23.1856 102.068 19.3409 102.303 14.947 103.362C14.0839 103.559 13.2209 103.872 12.397 104.186C13.2209 104.618 14.0839 104.971 14.9863 105.324C16.7517 104.814 17.6147 104.579 20.204 104.147C21.1848 103.99 24.2056 103.441 26.4025 102.97C30.3256 102.186 36.0926 100.342 34.5626 97.9486Z" fill="#00487C"/>
<path fill-rule="evenodd" clip-rule="evenodd" d="M62.4166 109.286H66.7713L67.2813 106.109H70.2629L70.7729 109.286H75.1275L71.4398 90.8086H66.0259L62.4166 109.286ZM68.8113 96.3794L69.6352 102.029H68.0267L68.8113 96.3794Z" fill="#00487C"/>
<path fill-rule="evenodd" clip-rule="evenodd" d="M79.286 97.9879C79.9922 97.9879 81.2476 97.5563 81.2476 96.1833C81.2476 94.5748 79.7568 94.4571 79.3645 94.4571C78.8545 94.4571 77.9521 94.5356 77.0106 94.9671L76.9714 90.9655C78.4229 90.6124 79.4822 90.4948 80.6983 90.4948C84.1899 90.4948 85.7984 92.9663 85.7984 95.3594C85.7984 97.7133 84.4253 99.1256 83.1306 99.6748V99.871C84.386 100.263 86.073 101.479 86.073 104.304C86.073 107.796 83.6407 109.718 80.5414 109.718C78.8545 109.718 77.7952 109.483 76.5006 108.776L76.5791 104.932C77.7952 105.442 78.6191 105.481 79.4429 105.481C80.816 105.481 81.3652 104.461 81.3652 103.716C81.3652 102.696 80.6983 101.989 79.2468 101.989H77.4814V97.9879H79.286Z" fill="#00487C"/>
<path fill-rule="evenodd" clip-rule="evenodd" d="M99.8038 109.286H95.4884V95.2417H92.3892V109.286H88.0738V90.8086H99.8038V109.286Z" fill="#00487C"/>
<path fill-rule="evenodd" clip-rule="evenodd" d="M102.236 109.286H106.512V103.206H107.964C112.201 103.206 113.535 99.4002 113.535 96.9679C113.535 94.5748 112.044 90.8086 107.964 90.8086H102.236V109.286ZM106.512 94.8886H107.532C108.513 94.8886 109.102 95.4771 109.102 97.0071C109.102 99.0079 108.082 99.1256 107.532 99.1256H106.512V94.8886Z" fill="#00487C"/>
<path fill-rule="evenodd" clip-rule="evenodd" d="M121.459 109.522C126.559 109.522 128.246 104.775 128.246 100.028C128.246 95.2809 126.52 90.5339 121.459 90.5339C116.359 90.5339 114.672 95.2809 114.672 100.028C114.672 104.775 116.399 109.522 121.459 109.522ZM121.459 105.049C119.969 105.049 119.184 103.284 119.184 100.028C119.184 96.7717 119.969 95.0063 121.459 95.0063C122.989 95.0063 123.735 96.7717 123.735 100.028C123.774 103.284 122.989 105.049 121.459 105.049Z" fill="#00487C"/>
<path fill-rule="evenodd" clip-rule="evenodd" d="M146.92 109.286H152.06C153.158 109.286 157.787 108.816 157.827 103.245C157.827 98.5371 154.217 97.7133 151.903 97.7133H151.157V95.2809H156.846V90.8086H146.96V109.286H146.92ZM151.157 105.599V101.401H151.785C152.295 101.401 153.629 101.44 153.629 103.323C153.629 105.285 152.256 105.599 151.785 105.599H151.157Z" fill="#00487C"/>
<path fill-rule="evenodd" clip-rule="evenodd" d="M184.621 109.286H180.463V101.911H177.442V109.286H173.244V90.8086H177.442V97.4779H180.463V90.8086H184.621V109.286Z" fill="#00487C"/>
<path fill-rule="evenodd" clip-rule="evenodd" d="M199.529 90.8086L196.234 99.5964L200 109.286H195.057L192.664 101.872H191.644V109.286H187.446V90.8086H191.644V97.4779H192.546L194.978 90.8086H199.529Z" fill="#00487C"/>
<path fill-rule="evenodd" clip-rule="evenodd" d="M54.1389 90.8086H62.9266V95.4379H58.4935V109.286H54.1389V90.8086Z" fill="#00487C"/>
<path fill-rule="evenodd" clip-rule="evenodd" d="M139.78 109.286V98.0271L137.191 101.244L134.602 98.0271V109.286H130.326V90.8086H133.974L137.191 95.1632L140.408 90.8086H144.056V109.286H139.78Z" fill="#00487C"/>
<path fill-rule="evenodd" clip-rule="evenodd" d="M158.65 109.326H163.005L163.515 106.148H166.497L167.046 109.326H171.401L167.713 90.8478H162.299L158.65 109.326ZM165.045 96.4186L165.869 102.068H164.261L165.045 96.4186Z" fill="#00487C"/>
</g>
<defs>
<clipPath id="clip0_6598_2057">
<rect width="200" height="42.2126" fill="white" transform="translate(0 79)"/>
</clipPath>
</defs>
</svg>
