<svg width="200" height="200" viewBox="0 0 200 200" fill="none" xmlns="http://www.w3.org/2000/svg">
<g clip-path="url(#clip0_6598_2073)">
<path d="M0 89.4008V114.775H4.02622V93.0524H10.5805V89.4008H0Z" fill="#0072BC"/>
<path d="M20.5992 93.8951L22.5655 106.723H18.7266L20.5992 93.8951ZM17.8839 89.4008L13.8577 114.775H17.5094L18.1648 110.187H23.0337L23.6891 114.775H27.7153L23.7828 89.4008H17.8839Z" fill="#0072BC"/>
<mask id="mask0_6598_2073" style="mask-type:luminance" maskUnits="userSpaceOnUse" x="0" y="85" width="200" height="31">
<path d="M200 85H0V115.056H200V85Z" fill="white"/>
</mask>
<g mask="url(#mask0_6598_2073)">
<path d="M39.7004 95.6742C39.7004 94.5506 39.5131 93.8015 39.1386 93.3334C38.764 92.9588 38.2959 92.7716 37.6404 92.7716C36.985 92.7716 36.5169 92.9588 36.1423 93.3334C35.7678 93.7079 35.5805 94.3633 35.5805 95.206V97.9214H31.8352V95.4869C31.8352 93.427 32.3034 91.8352 33.3333 90.7116C34.3633 89.588 35.8614 89.0262 37.8277 89.0262C39.794 89.0262 41.2921 89.588 42.3221 90.7116C43.3521 91.8352 43.8202 93.427 43.8202 95.4869V96.1423C43.8202 98.8577 42.8839 100.637 41.0112 101.386C42.0412 101.854 42.7903 102.509 43.1648 103.446C43.633 104.382 43.8202 105.506 43.8202 106.723V108.689C43.8202 110.749 43.3521 112.341 42.3221 113.464C41.2921 114.588 39.794 115.15 37.8277 115.15C35.8614 115.15 34.3633 114.588 33.3333 113.464C32.3034 112.341 31.8352 110.749 31.8352 108.689V105.506H35.5805V108.97C35.5805 109.906 35.7678 110.562 36.1423 110.936C36.5169 111.311 36.985 111.498 37.6404 111.498C38.2959 111.498 38.764 111.311 39.1386 110.936C39.5131 110.562 39.7004 109.813 39.7004 108.689V106.723C39.7004 105.506 39.5131 104.663 39.0449 104.195C38.6704 103.727 37.9213 103.446 37.0786 103.446H36.5169V99.794H37.3596C38.1086 99.794 38.6704 99.6068 39.1386 99.2322C39.6067 98.8577 39.794 98.1086 39.794 97.1723V95.6742H39.7004Z" fill="#0072BC"/>
</g>
<mask id="mask1_6598_2073" style="mask-type:luminance" maskUnits="userSpaceOnUse" x="0" y="85" width="200" height="31">
<path d="M200 85H0V115.056H200V85Z" fill="white"/>
</mask>
<g mask="url(#mask1_6598_2073)">
<path d="M60.3933 105.318V108.689C60.3933 110.749 59.9251 112.341 58.8951 113.464C57.8652 114.588 56.367 115.15 54.4007 115.15C52.4344 115.15 50.9363 114.588 49.9064 113.464C48.8764 112.341 48.4082 110.749 48.4082 108.689V95.4869C48.4082 93.427 48.8764 91.8352 49.9064 90.7116C51.03 89.6817 52.4344 89.1199 54.4007 89.1199C56.367 89.1199 57.8652 89.6817 58.8951 90.8053C59.9251 91.9289 60.3933 93.5206 60.3933 95.5805V98.015H56.6479V95.2996C56.6479 94.3633 56.4607 93.7079 56.0861 93.3334C55.7116 92.9588 55.2434 92.7716 54.588 92.7716C53.9326 92.7716 53.4644 92.9588 53.0899 93.3334C52.6217 93.7079 52.4345 94.3633 52.4345 95.206V108.97C52.4345 109.906 52.6217 110.562 52.9962 110.936C53.3708 111.311 53.8389 111.498 54.4944 111.498C55.1498 111.498 55.618 111.311 55.9925 110.936C56.367 110.562 56.5543 109.906 56.5543 108.97V105.318H60.3933Z" fill="#0072BC"/>
</g>
<mask id="mask2_6598_2073" style="mask-type:luminance" maskUnits="userSpaceOnUse" x="0" y="85" width="200" height="31">
<path d="M200 85H0V115.056H200V85Z" fill="white"/>
</mask>
<g mask="url(#mask2_6598_2073)">
<path d="M64.2322 89.4008H76.5918V93.0524H72.4719V114.775H68.4457V93.0524H64.2322V89.4008Z" fill="#0072BC"/>
</g>
<mask id="mask3_6598_2073" style="mask-type:luminance" maskUnits="userSpaceOnUse" x="0" y="85" width="200" height="31">
<path d="M200 85H0V115.056H200V85Z" fill="white"/>
</mask>
<g mask="url(#mask3_6598_2073)">
<path d="M86.8914 89.4008C88.8577 89.4008 90.3558 89.9626 91.3857 90.9925C92.3221 92.0225 92.8839 93.6142 92.8839 95.6742V98.9513C92.8839 101.011 92.4157 102.603 91.3857 103.633C90.4494 104.663 88.9513 105.225 86.8914 105.225H85.0187V114.775H80.9925V89.4008H86.8914ZM84.9251 93.0524V101.667H86.7977C87.4532 101.667 87.9213 101.479 88.2022 101.199C88.5768 100.824 88.6704 100.262 88.6704 99.3259V95.4869C88.6704 94.5506 88.4831 93.8951 88.2022 93.6142C87.8277 93.2397 87.3595 93.1461 86.7977 93.1461H84.9251V93.0524Z" fill="#0072BC"/>
</g>
<mask id="mask4_6598_2073" style="mask-type:luminance" maskUnits="userSpaceOnUse" x="0" y="85" width="200" height="31">
<path d="M200 85H0V115.056H200V85Z" fill="white"/>
</mask>
<g mask="url(#mask4_6598_2073)">
<path d="M96.8165 95.4869C96.8165 93.427 97.3783 91.8352 98.4082 90.7116C99.4382 89.588 100.936 89.0262 102.903 89.0262C104.869 89.0262 106.367 89.588 107.397 90.7116C108.427 91.8352 108.989 93.427 108.989 95.4869V108.689C108.989 110.749 108.427 112.341 107.397 113.464C106.367 114.588 104.869 115.15 102.903 115.15C100.936 115.15 99.4382 114.588 98.4082 113.464C97.3783 112.341 96.8165 110.749 96.8165 108.689V95.4869ZM100.749 108.97C100.749 109.906 100.936 110.562 101.311 110.936C101.685 111.311 102.154 111.498 102.809 111.498C103.464 111.498 103.933 111.311 104.307 110.936C104.682 110.562 104.869 109.906 104.869 108.97V95.206C104.869 94.2697 104.682 93.6143 104.307 93.2397C103.933 92.8652 103.464 92.6779 102.809 92.6779C102.154 92.6779 101.685 92.8652 101.311 93.2397C100.936 93.6143 100.749 94.2697 100.749 95.206V108.97Z" fill="#0072BC"/>
</g>
<mask id="mask5_6598_2073" style="mask-type:luminance" maskUnits="userSpaceOnUse" x="0" y="85" width="200" height="31">
<path d="M200 85H0V115.056H200V85Z" fill="white"/>
</mask>
<g mask="url(#mask5_6598_2073)">
<path d="M118.071 114.775H113.951V89.4007H117.509V104.569L121.629 89.4007H126.685V114.775H123.127V96.4232L118.071 114.775ZM124.813 87.9963H116.011V85H124.813V87.9963Z" fill="#0072BC"/>
</g>
<mask id="mask6_6598_2073" style="mask-type:luminance" maskUnits="userSpaceOnUse" x="0" y="85" width="200" height="31">
<path d="M200 85H0V115.056H200V85Z" fill="white"/>
</mask>
<g mask="url(#mask6_6598_2073)">
<path d="M136.142 114.775H132.116V89.4008H144.757V114.775H140.637V93.0524H136.142V114.775Z" fill="#0072BC"/>
</g>
<mask id="mask7_6598_2073" style="mask-type:luminance" maskUnits="userSpaceOnUse" x="0" y="85" width="200" height="31">
<path d="M200 85H0V115.056H200V85Z" fill="white"/>
</mask>
<g mask="url(#mask7_6598_2073)">
<path d="M156.086 89.4008C158.052 89.4008 159.551 89.9626 160.581 90.9925C161.517 92.0225 162.079 93.6142 162.079 95.6742V98.9513C162.079 101.011 161.61 102.603 160.581 103.633C159.644 104.663 158.146 105.225 156.086 105.225H154.213V114.775H150.187V89.4008H156.086ZM154.213 93.0524V101.667H156.086C156.742 101.667 157.21 101.479 157.491 101.199C157.865 100.824 157.959 100.262 157.959 99.3259V95.4869C157.959 94.5506 157.772 93.8951 157.491 93.6142C157.116 93.2397 156.648 93.1461 156.086 93.1461H154.213V93.0524Z" fill="#0072BC"/>
</g>
<mask id="mask8_6598_2073" style="mask-type:luminance" maskUnits="userSpaceOnUse" x="0" y="85" width="200" height="31">
<path d="M200 85H0V115.056H200V85Z" fill="white"/>
</mask>
<g mask="url(#mask8_6598_2073)">
<path d="M166.011 95.4869C166.011 93.427 166.573 91.8352 167.603 90.7116C168.633 89.588 170.131 89.0262 172.097 89.0262C174.064 89.0262 175.562 89.588 176.592 90.7116C177.622 91.8352 178.184 93.427 178.184 95.4869V108.689C178.184 110.749 177.622 112.341 176.592 113.464C175.562 114.588 174.064 115.15 172.097 115.15C170.131 115.15 168.633 114.588 167.603 113.464C166.573 112.341 166.011 110.749 166.011 108.689V95.4869ZM170.037 108.97C170.037 109.906 170.225 110.562 170.599 110.936C170.974 111.311 171.442 111.498 172.097 111.498C172.753 111.498 173.221 111.311 173.595 110.936C173.97 110.562 174.157 109.906 174.157 108.97V95.206C174.157 94.2697 173.97 93.6143 173.595 93.2397C173.221 92.8652 172.753 92.6779 172.097 92.6779C171.442 92.6779 170.974 92.8652 170.599 93.2397C170.225 93.6143 170.037 94.2697 170.037 95.206V108.97Z" fill="#0072BC"/>
</g>
<mask id="mask9_6598_2073" style="mask-type:luminance" maskUnits="userSpaceOnUse" x="0" y="85" width="200" height="31">
<path d="M200 85H0V115.056H200V85Z" fill="white"/>
</mask>
<g mask="url(#mask9_6598_2073)">
<path d="M191.667 107.472L194.476 89.4008H200V114.775H196.255V96.6105L193.446 114.775H189.7L186.704 96.7978V114.775H183.24V89.4008H188.764L191.667 107.472Z" fill="#0072BC"/>
</g>
</g>
<defs>
<clipPath id="clip0_6598_2073">
<rect width="200" height="30.0562" fill="white" transform="translate(0 85)"/>
</clipPath>
</defs>
</svg>
