<svg width="200" height="200" viewBox="0 0 200 200" fill="none" xmlns="http://www.w3.org/2000/svg">
<path d="M0 119.257H41.6287L44.6469 122.276V135.487H34.5102V130.419H11.1617V153.768H34.5102V147.674H44.6469V164.929H4.04328L0 160.886V119.257Z" fill="#01174A"/>
<path d="M93.3941 119.257H51.7654V160.886L55.8087 164.929H97.4374V123.301L93.3941 119.257ZM85.2506 152.743H62.9271V130.419H85.2506V152.743Z" fill="#01174A"/>
<path d="M145.159 119.257H120.786V136.512H113.667V119.257H102.506V160.886L106.549 164.929H113.667V146.649H119.761V164.929H149.203V123.301L145.159 119.257ZM137.016 153.768H130.923V130.419H137.016V153.768Z" fill="#01174A"/>
<path d="M154.271 119.257V136.512H165.433V130.419H188.781V136.512H171.526V147.674H188.781V153.768H165.433V147.674H154.271V160.886L158.371 164.929H200V123.301L194.875 119.257H154.271Z" fill="#01174A"/>
<path d="M113.667 36L81.2073 54.2802V92.8337L92.369 99.9522L84.2255 105.021L58.8269 89.8155V57.2984L90.3189 40.0433L84.2255 36L51.7654 54.2802V93.8588L83.2574 113.164L117.768 93.8588V55.3052L106.606 48.1868L113.724 44.1435L140.091 59.3485V89.8155L107.631 108.096L113.724 113.164L147.21 93.8588V54.2802L113.667 36ZM95.3872 93.8588L88.2688 89.8155V63.3918L95.3872 67.4351V93.8588ZM110.649 89.8155L102.506 94.8838V67.492L110.649 62.4237V89.8155ZM107.574 57.2984L99.4875 62.4237L91.344 57.2984L99.4875 52.2301L107.574 57.2984Z" fill="#AB0C04"/>
</svg>
