<svg width="200" height="200" viewBox="0 0 200 200" fill="none" xmlns="http://www.w3.org/2000/svg">
<path d="M35.3889 118.556C32 119.167 30.6667 122.333 30.6667 122.333C30.6667 122.333 30.9445 119.056 33.1667 116.833C33.8889 117.389 34.6111 118 35.3889 118.556Z" fill="#282828"/>
<path d="M43.3333 122.278C40.4445 121.444 37.7222 120.167 35.3889 118.5C34.6111 117.944 33.8889 117.389 33.1667 116.778C26.8889 111.333 23.2778 103.167 23.9445 94.3889C24.3889 84.7223 29.6111 82.1667 34.1111 82.7778C38.6111 83.3889 41.7222 87.5556 41.0556 92.0556C40.9445 92.8334 40.8889 93.3889 39.8333 95.5556V95.6112C39.8333 95.6667 39.7778 95.6667 39.7778 95.7223C39 97.6667 38.4445 99.7223 38.1111 101.889C37.0556 109.389 39.1667 116.667 43.3333 122.278Z" fill="#FFCE00"/>
<path d="M56.1667 122.722C56.1111 123.167 56.0556 123.556 56 124C55.6667 126.445 55 128.722 54.0556 130.833C49.7778 128.889 46.1111 125.889 43.3333 122.222C39.1111 116.556 37.1111 109.333 38.1667 101.833C38.5 99.6667 39.0556 97.6112 39.8333 95.6667C50.3889 100.056 57.2778 110.945 56.1667 122.722Z" fill="#EF0000"/>
<path d="M30.2778 89.7223C30.2778 90.6112 29.5556 91.2778 28.7222 91.2778C28.1667 91.2778 27.6667 91.0001 27.3889 90.5556C26.0556 88.5556 24.4445 90.2223 24.4445 90.2223C19.4445 88.7223 12.6111 88.7778 4.72223 90.8334C13.3889 87.2778 17.7222 87.4445 25.1667 88.1112C25.1667 88.1112 25.9444 89.7223 27.8333 88.389C27.8333 88.389 28.2222 88.1112 28.7222 88.1112C29.6111 88.1667 30.2778 88.8334 30.2778 89.7223Z" fill="#282828"/>
<path d="M183.5 91.2222C179.444 91.2222 175.944 93.2222 173.833 96.3333V92.1666H165.222V122.167H173.833V104.778C174 101.389 176.833 98.7222 180.278 98.7222C183.833 98.7222 186.667 101.556 186.722 105.111V117.889C186.722 122.611 190.556 126.444 195.333 126.5V103C195.222 96.4999 190 91.2222 183.5 91.2222Z" fill="#0DA018"/>
<path d="M129.889 107.167C129.889 98.3334 124.167 91.1667 113.944 91.1667C103.722 91.1667 97.9445 98.3334 97.9445 107.167C97.9445 116 103.667 123.167 113.944 123.167C120.944 123.167 125.833 119.833 128.222 114.889L126.722 114.056C125.722 113.556 124.556 113.222 123.389 113.222C121.556 113.222 119.889 113.889 118.667 115C117.444 116.222 115.889 116.945 113.944 116.945C109.833 116.945 107.333 113.667 106.722 109.333C114.444 109.333 122.111 109.333 129.778 109.333C129.833 108.611 129.889 107.889 129.889 107.167ZM106.889 104.056C107.722 100.167 110.167 97.389 113.944 97.389C117.722 97.389 120.167 100.167 121 104.056H106.889Z" fill="#0DA018"/>
<path d="M163.722 107.167C163.722 98.3334 158 91.1667 147.778 91.1667C137.556 91.1667 131.833 98.2779 131.833 107.167C131.833 116 137.556 123.167 147.778 123.167C154.778 123.167 159.667 119.833 162.056 114.889L160.556 114.056C159.556 113.556 158.444 113.222 157.222 113.222C155.389 113.222 153.722 113.889 152.444 115C151.222 116.222 149.667 116.945 147.722 116.945C143.611 116.945 141.111 113.667 140.5 109.333C148.222 109.333 155.889 109.333 163.556 109.333C163.722 108.611 163.722 107.889 163.722 107.167ZM140.667 104.056C141.5 100.167 143.944 97.389 147.722 97.389C151.5 97.389 153.944 100.167 154.778 104.056H140.667Z" fill="#0DA018"/>
<path d="M100.556 91.8888L100 95.8888C99.9444 96.3333 99.7222 97.2222 98.4444 98.1111C97.6667 98.6666 96.7222 98.8888 95.8333 98.7777C93.4444 98.6666 91.2778 99.3333 89.7222 101.222C88 103.444 88.0556 104.722 88.0556 107.556V122.167H79.4444V92.1666H88V96.7777C89.7222 93.1111 92.8333 91.2222 96.8889 91.2222C98.1667 91.2222 99.3333 91.4444 100.556 91.8888Z" fill="#0DA018"/>
<path d="M50.6111 78.3334C46.2222 78.3334 42.1667 79.8889 39.0556 82.5001C37.7222 81.5001 36.1111 80.8334 34.3889 80.6112C33.8333 80.5556 33.3333 80.5001 32.7778 80.5001C31.2778 80.5001 29.8889 80.8334 28.6111 81.3889C33.4444 74.3334 41.5 69.7778 50.6111 69.7778C59 69.7778 66.4444 73.6112 71.3333 79.6112L68.8333 81.6112C67.3889 82.5001 65.6667 82.9445 63.8889 82.6667C62.9444 82.5556 62 82.1667 61.2222 81.7778C58.2778 79.6112 54.6111 78.3334 50.6111 78.3334Z" fill="#0DA018"/>
<path d="M77.2778 92.1666L77.3333 96.4444C77.3333 108.444 69.3889 118.611 58.4444 122C58.6111 119 58.3333 116.056 57.6111 113.167C62.8333 110.944 66.8333 106.389 68.2222 100.722H54.5556C49.8333 100.722 46 96.8889 45.9444 92.1111H77.2778V92.1666Z" fill="#0DA018"/>
</svg>
