<svg width="200" height="200" viewBox="0 0 200 200" fill="none" xmlns="http://www.w3.org/2000/svg">
<g clip-path="url(#clip0_8008_252)">
<path d="M6.90726 75.9073L14.8915 83.8915L26.6245 84.1711L22.5651 69L6.90726 75.9073Z" fill="#C6C6C6"/>
<path d="M37.1874 93.4603L46.7561 83.8916L38.0883 72.7178L33.5111 89.784L37.1874 93.4603Z" fill="#C6C6C6"/>
<path d="M38.0883 72.7177L22.5651 69L26.6349 84.1815L30.8186 87.0914L33.5111 89.7839L38.0883 72.7177Z" fill="#B2B2B2"/>
<path d="M30.8186 87.0915L26.6349 84.1816L26.6245 84.1712L14.8915 83.8916L24.4602 93.4603L30.8186 87.0915Z" fill="#048E49"/>
<path d="M24.4602 93.4603L14.8915 83.8916L3.71771 92.5593L20.7839 97.1366L24.4602 93.4603Z" fill="#007B65"/>
<path d="M0 108.082L6.90726 123.74L14.8915 115.756L15.1711 104.013L0 108.082Z" fill="#204D83"/>
<path d="M3.7177 92.5593L0 108.083L15.1711 104.013L18.0914 99.8187L20.7839 97.1366L3.7177 92.5593Z" fill="#09657A"/>
<path d="M39.0825 69L30.8186 70.9779L38.0883 72.7177L46.7561 83.8915L54.7403 75.9073L39.0825 69Z" fill="#048E49"/>
<path d="M46.7561 83.8915L46.4661 95.6245L61.6476 91.5651L54.7403 75.9072L46.7561 83.8915Z" fill="#007B65"/>
<path d="M46.4661 95.635L43.5458 99.8187L40.8637 102.511L57.9299 107.088L61.6476 91.5652L46.4661 95.635Z" fill="#09657A"/>
<path d="M37.1874 106.187L46.7561 115.756L57.9299 107.088L40.8637 102.511L37.1874 106.187Z" fill="#204D83"/>
<path d="M30.8186 128.67L23.5593 126.93L14.8915 115.756L6.90726 123.74L22.5651 130.637V130.648L30.8186 128.67Z" fill="#283587"/>
<path d="M46.7561 115.756L37.1874 106.188L30.8186 112.546L35.0127 115.466L46.7561 115.756Z" fill="#283587"/>
<path d="M46.7561 83.8916L37.1874 93.4603L40.8637 97.1366V97.1262V97.1366L43.5458 99.8187L46.4661 95.635V95.6246L46.7561 83.8916Z" fill="#DADADA"/>
<path d="M6.90726 75.9072L0 91.5651L1.97794 99.8186L3.7177 92.5592L14.8915 83.8915L6.90726 75.9072Z" fill="#DADADA"/>
<path d="M54.7403 123.74L46.7561 115.756L35.0127 115.466L39.0825 130.648L54.7403 123.74Z" fill="#C6C6C6"/>
<path d="M24.4602 106.188L14.8915 115.756L23.5592 126.93L28.1365 109.864L24.4602 106.188Z" fill="#C6C6C6"/>
<path d="M23.5593 126.93L39.0825 130.648L35.0127 115.466L30.829 112.556H30.8186L28.1365 109.864L23.5593 126.93Z" fill="#B2B2B2"/>
<path d="M18.0914 99.829V99.8186L15.1711 104.013L14.8915 115.756L24.4602 106.187L18.0914 99.829Z" fill="#DADADA"/>
<path d="M61.6476 108.082L59.6697 99.8186L57.9299 107.088L46.7561 115.756L54.7403 123.74L61.6372 108.082H61.6476Z" fill="#DADADA"/>
<path d="M99.2906 87.6921L96.391 90.8609H86.9052V118.273H74.2505V81.3647H99.2906V87.6921Z" fill="#4A4A49"/>
<path d="M101.672 81.3647H133.299V87.6921L130.399 90.8609H123.813V118.273H111.158V90.8609H101.672V81.3647Z" fill="#4A4A49"/>
<path d="M137.804 81.3647L126.92 113.53V118.273H138.477L147.496 90.8609H149.847V118.273H162.502V81.3647H137.804Z" fill="#4A4A49"/>
<path d="M191.488 99.4355L199.265 86.118V81.3647H188.081L180.645 95.0757H178.274V81.3647H165.619V118.273H178.274V104.572H180.645L188.443 118.273H200V113.53L191.488 99.4355Z" fill="#4A4A49"/>
</g>
<defs>
<clipPath id="clip0_8008_252">
<rect width="200" height="61.6476" fill="white" transform="translate(0 69)"/>
</clipPath>
</defs>
</svg>
