<svg width="200" height="200" viewBox="0 0 200 200" fill="none" xmlns="http://www.w3.org/2000/svg">
<g clip-path="url(#clip0_8008_45)">
<g clip-path="url(#clip1_8008_45)">
<path d="M197.965 120.124C209.071 66.0217 174.216 13.16 120.115 2.05352C66.0127 -9.05292 13.151 25.8017 2.04454 79.9035C-9.06191 134.005 25.7927 186.867 79.8945 197.974C133.996 209.08 186.858 174.225 197.965 120.124Z" fill="#102D69"/>
<path d="M172.56 88.6321L179.028 88.0441H179.106C179.341 89.5337 179.498 91.0625 179.655 92.5521C179.812 94.0417 179.89 95.5705 179.969 97.0993H179.89L173.422 97.6873L173.501 100.471L189.181 98.981L189.063 96.1977L182.477 96.8249H182.438C182.36 95.2961 182.281 93.8065 182.125 92.2777C181.968 90.7881 181.811 89.2593 181.576 87.7697H181.615L188.24 87.1425L187.809 84.3984L172.129 85.888L172.56 88.6321Z" fill="white"/>
<path d="M58.4477 39.5139L55.0372 33.9082L56.6837 32.889L61.3485 34.6922C63.7005 35.633 66.0133 35.9466 67.6597 34.1042L66.4053 32.0266C65.6213 32.889 64.3669 32.8498 62.5637 32.2226L57.4677 30.3802L59.1533 20.7761L56.3309 22.3833L55.1156 30.8114L53.7436 31.6738L50.294 26.029L48.0204 27.6362L56.2133 41.0427L58.4477 39.5139Z" fill="white"/>
<path d="M92.7871 15.1314L92.6695 13.6026C92.9439 13.5634 93.2183 13.5634 93.4535 13.5242C95.0216 13.4066 96.5896 13.3282 98.1576 13.289L99.1768 26.5779L101.96 26.3819L100.941 13.3282L100.745 10.8193C99.2552 10.8193 97.7264 10.8193 96.2368 10.8977L90.2783 11.3681C90.1607 11.3681 90.0039 11.4073 89.8863 11.4073L90.0823 13.877L90.1215 14.5042C90.8271 23.9906 89.4159 25.1275 87.8087 25.2451C87.4559 25.2843 87.1031 25.2451 86.9071 25.1667L86.8287 27.4795C87.2599 27.5579 88.1615 27.6363 88.7887 27.5971C91.8463 27.3619 93.5319 25.2059 92.7871 15.1314Z" fill="white"/>
<path d="M77.4206 30.4978C82.0463 28.969 84.2023 24.3434 82.7911 20.1097C81.3799 15.7977 77.0286 13.3281 72.3638 14.8569C67.7381 16.3857 65.5821 21.0113 66.9933 25.245C68.4046 29.557 72.795 32.0266 77.4206 30.4978ZM73.1478 17.3265C76.1662 16.3465 79.067 18.1105 80.047 21.0505C80.5174 22.5401 80.439 24.0689 79.851 25.3234C79.263 26.5778 78.2046 27.597 76.6758 28.1066C73.6574 29.0866 70.7566 27.3226 69.7766 24.3826C68.9926 21.9129 69.8158 19.4433 71.815 18.1105C72.2462 17.7969 72.6382 17.4833 73.1478 17.3265Z" fill="white"/>
<path d="M160.8 45.198C163.818 41.9051 163.779 36.8091 160.172 33.5163C157.977 31.5563 155.351 30.8899 152.881 31.4387L153.508 34.2219C155.194 33.7907 156.997 34.1435 158.448 35.4371C160.447 37.2795 160.682 39.9843 159.349 42.1795C158.173 40.9643 156.958 39.7883 155.704 38.6907C155.194 38.2203 154.645 37.7499 154.136 37.2795L152.528 39.1611C153.038 39.5923 153.548 40.0627 154.057 40.4939C155.312 41.6307 156.527 42.8067 157.703 44.022C155.625 45.5508 152.842 45.59 150.804 43.7476C149.314 42.4147 148.804 40.5723 149.157 38.8083L146.374 38.4163C146.021 40.9643 146.884 43.6692 149.118 45.6684C152.724 48.9612 157.742 48.53 160.8 45.198Z" fill="white"/>
<path d="M121.129 86.8679C124.579 82.8695 126.029 78.0086 126.029 73.383C126.029 69.659 125.01 62.2109 118.463 57.0757C113.955 53.5868 109.996 51.9404 100.47 51.9404H95.6488C95.4919 51.9404 95.3744 51.9404 95.1784 51.9404H75.343V145.668H131.987V127.675C131.987 110.466 126.421 98.9024 112.034 93.8064C116.543 91.9248 119.326 89.0631 121.129 86.8679ZM109.878 85.0647C107.291 88.2791 103.097 91.2584 97.1384 91.2584C97.0992 91.2584 97.06 91.2584 97.0208 91.2584V95.9232C112.936 95.9232 119.169 106.507 119.169 125.872V140.455H108.938V109.173H97.1384V140.494H88.1223V56.6053H97.4128C100.902 56.6053 106.154 57.3893 109.878 62.0149C111.799 64.3669 113.014 67.4638 113.406 70.5998H97.1384V75.2254H113.524C113.406 78.2046 112.779 81.5367 109.878 85.0647Z" fill="white"/>
<path d="M135.28 30.3411C136.848 31.1252 138.769 30.498 139.553 28.9299C140.337 27.3619 139.71 25.4411 138.142 24.6571C136.574 23.8731 134.653 24.5003 133.869 26.0683C133.085 27.6363 133.712 29.5571 135.28 30.3411Z" fill="white"/>
<path d="M110.545 23.6378C111.799 23.7946 113.014 23.9906 114.269 24.2258C115.484 24.461 116.739 24.7354 117.954 25.0098L118.777 29.0082L121.717 29.8314L117.797 12.5833L115.249 12.1521L105.331 26.7738L108.31 27.0482L110.545 23.6378ZM115.837 15.6801L117.366 22.3834C116.464 22.1874 115.602 21.9914 114.7 21.8346C113.799 21.6778 112.936 21.521 112.034 21.3642L115.837 15.6801Z" fill="white"/>
<path d="M173.501 63.975C169.267 65.5431 166.993 70.0119 168.679 74.5983C170.365 79.1848 175.108 81.1056 179.302 79.5376C183.536 77.9696 185.809 73.5007 184.124 68.9143C182.399 64.3278 177.695 62.407 173.501 63.975ZM181.693 69.7767C182.791 72.7167 181.184 75.7351 178.283 76.7935C178.009 76.9111 177.734 76.8719 177.499 76.9503C174.833 77.5776 172.129 76.4407 171.149 73.7359C170.443 71.8935 170.835 70.0119 171.933 68.6399C172.089 68.4047 172.325 68.2087 172.521 68.0127C172.56 67.9735 172.599 67.8951 172.638 67.8559C172.756 67.7383 172.913 67.6599 173.069 67.5423C173.226 67.4247 173.383 67.3071 173.54 67.1895C173.54 67.1895 173.54 67.1895 173.579 67.1895C173.893 66.9935 174.206 66.8367 174.559 66.7191C176.009 66.1703 177.538 66.2095 178.832 66.7191C180.086 67.2679 181.145 68.2871 181.693 69.7767Z" fill="white"/>
<path d="M159.153 56.4876L164.641 52.8812L165.7 54.4884L164.053 59.1925C163.191 61.5837 162.956 63.8965 164.837 65.5037L166.876 64.1709C166.013 63.4261 166.013 62.1717 166.562 60.3685L168.209 55.194L177.852 56.566L176.127 53.7828L167.66 52.842L166.758 51.5092L172.285 47.8636L170.6 45.6292L157.468 54.2532L159.153 56.4876Z" fill="white"/>
<path d="M24.265 72.9518C26.029 73.1086 27.5578 71.8542 27.7538 70.0902C27.9106 68.3262 26.6562 66.7974 24.8922 66.6014C23.1282 66.4446 21.5994 67.699 21.4034 69.463C21.2074 71.227 22.501 72.7558 24.265 72.9518Z" fill="white"/>
<path d="M126.695 168.405L121.874 182.125L118.346 171.109L115.641 171.737L120.502 186.79L123.128 186.123L127.871 172.521L131.399 183.457L133.947 182.438L129.126 167.425L126.695 168.405Z" fill="white"/>
<path d="M100.039 178.244C98.2752 178.244 96.864 179.655 96.864 181.419C96.864 183.183 98.2752 184.594 100.039 184.594C101.803 184.594 103.214 183.183 103.214 181.419C103.214 179.694 101.803 178.244 100.039 178.244Z" fill="white"/>
<path d="M141.984 160.251L145.433 165.857L143.787 166.876L139.122 165.112C136.77 164.171 134.457 163.897 132.811 165.739L134.104 167.817C134.888 166.954 136.143 166.993 137.946 167.621L143.081 169.424L141.474 179.028L144.296 177.381L145.472 168.914L146.844 168.052L150.333 173.657L152.607 172.05L144.336 158.683L141.984 160.251Z" fill="white"/>
<path d="M156.997 146.296L159.584 160.604L151.078 152.764L149.079 154.645L160.721 165.347L162.681 163.426L160.094 149.275L168.561 157.037L170.286 154.92L158.644 144.218L156.997 146.296Z" fill="white"/>
<path d="M181.693 106.076C177.225 105.292 172.991 107.997 172.168 112.819C171.305 117.64 174.402 121.678 178.832 122.462C183.301 123.246 187.534 120.541 188.357 115.719C189.181 110.898 186.084 106.821 181.693 106.076ZM185.809 115.21C185.692 115.994 185.378 116.699 184.986 117.287C183.81 119.051 181.576 119.953 179.302 119.561C176.597 119.091 174.677 117.013 174.598 114.426C174.598 114.073 174.598 113.681 174.677 113.289C174.794 112.505 175.108 111.799 175.5 111.211C176.676 109.447 178.91 108.546 181.184 108.938C184.281 109.486 186.358 112.113 185.809 115.21Z" fill="white"/>
<path d="M72.6382 172.952C72.011 175.069 72.9518 176.441 74.559 177.577C73.2654 177.852 71.9326 178.518 71.3838 180.361C71.0702 181.419 71.1878 182.36 71.6582 183.222C72.2854 184.359 73.5006 185.339 75.2254 185.849L81.027 187.338L85.4175 172.168L79.459 170.443C76.127 169.424 73.4614 170.208 72.6382 172.952ZM76.323 183.457C74.5982 182.948 73.8534 181.929 74.2062 180.753C74.2846 180.478 74.4022 180.243 74.5198 180.047C74.951 179.459 75.6174 179.224 76.4798 179.263C76.8718 179.263 77.2638 179.341 77.695 179.459L80.2822 180.204L79.1062 184.241L76.323 183.457ZM77.7734 177.029C75.6566 176.401 74.8726 175.343 75.2254 174.049C75.539 172.991 76.3622 172.481 77.499 172.56C77.891 172.56 78.3222 172.638 78.7534 172.795L82.1247 173.775L80.9094 177.969L77.7734 177.029Z" fill="white"/>
<path d="M168.483 126.539L174.049 129.714C175.931 130.772 178.165 131.988 180.008 133.007L179.969 133.046C177.969 132.576 166.366 131.164 166.366 131.164L165.347 133.281C165.347 133.281 173.344 142.062 174.873 143.395L174.833 143.473C172.913 142.493 170.639 141.513 168.757 140.69L162.799 138.103L161.231 140.612L175.97 146.766L177.969 143.356C177.969 143.356 170.561 135.28 169.189 134.144L169.228 134.065C170.992 134.457 181.772 135.633 181.772 135.633L183.301 131.909L169.502 123.795L168.483 126.539Z" fill="white"/>
<path d="M28.577 116.895L24.6178 115.915C24.3434 114.7 24.1474 113.446 23.9514 112.231C23.7162 111.015 23.5594 109.761 23.4418 108.507L26.8914 106.351L26.6954 103.293L11.7993 112.819L12.1913 115.367L29.3218 119.757L28.577 116.895ZM21.0898 109.957C21.2074 110.859 21.325 111.76 21.4818 112.662C21.6386 113.563 21.7954 114.426 21.9522 115.327L15.2881 113.642L21.0898 109.957Z" fill="white"/>
<path d="M57.5852 166.092C55.978 168.836 57.154 171.58 60.2117 173.422L62.3677 174.716L59.4669 179.655L61.8581 181.066L69.9334 167.385L65.3861 164.641C62.2109 162.799 59.1925 163.348 57.5852 166.092ZM63.5829 172.599L61.5053 171.384C59.7021 170.325 59.1141 168.953 59.9373 167.542C60.4077 166.758 60.9957 166.327 61.7013 166.209C62.4069 166.092 63.2301 166.327 64.1317 166.837L66.2485 168.091L63.5829 172.599Z" fill="white"/>
<path d="M38.2987 60.4862C42.0619 54.6062 46.6484 49.3142 51.9012 44.7277L49.9412 43.0029L39.8275 34.2612C39.1611 34.8884 38.4555 35.5156 37.8283 36.182L47.942 44.8845C46.4132 46.3349 44.9628 47.8245 43.5515 49.3926L33.5163 40.7293C32.8891 41.4349 32.3011 42.1405 31.6738 42.8461L41.7091 51.5094C40.3763 53.0774 39.1219 54.7238 37.9459 56.4486L27.8322 47.7461C27.2834 48.4909 26.7738 49.275 26.225 50.0198L36.3387 58.7614L38.2987 60.4862Z" fill="white"/>
<path d="M15.7585 98.0791C18.4633 98.3143 19.9922 96.6679 20.541 95.3743L23.3242 97.7655C24.069 98.4319 24.5786 99.6863 24.265 100.549L26.6562 100.51C27.2442 99.2159 26.9306 97.3343 25.049 95.7663L21.325 92.6303L21.4818 90.6703L27.1658 91.1799L27.5578 88.3574L11.8385 87.103C11.6817 87.9654 11.3289 91.4543 11.2897 91.9247C10.8977 96.2759 13.0145 97.8831 15.7585 98.0791ZM14.1513 90.1215L18.8554 90.5135L18.6985 92.3167C18.5809 93.9239 17.6401 95.2959 15.9937 95.1391C14.7393 95.0215 13.7593 94.2767 13.9161 92.0031C13.9945 91.4935 14.0337 90.8663 14.1513 90.1215Z" fill="white"/>
<path d="M39.4747 141.513C35.5155 135.751 32.4579 129.479 30.3018 122.815L27.9498 123.952L15.9545 129.832C16.2681 130.694 16.5817 131.556 16.9345 132.458L28.8906 126.539C29.6354 128.499 30.4194 130.459 31.321 132.34L19.4042 138.181C19.7962 139.044 20.2274 139.867 20.6194 140.69L32.5363 134.849C33.4771 136.692 34.4963 138.495 35.5939 140.259L23.677 146.178C24.1474 146.962 24.657 147.746 25.1666 148.53L37.1619 142.65L39.4747 141.513Z" fill="white"/>
<path d="M55.317 158.445L46.1866 171.433L48.4636 173.034L57.5939 160.045L55.317 158.445Z" fill="white"/>
<path d="M46.3348 149.549C44.2964 147.354 41.5915 146.531 39.0827 146.884L39.4747 149.667C41.2387 149.314 43.0811 149.784 44.414 151.274C46.57 153.587 46.2172 156.997 43.9436 159.075C41.6307 161.192 38.2987 161.309 36.1427 158.997C34.8099 157.585 34.4571 155.743 34.8883 154.057L32.1051 153.469C31.5955 155.9 32.2619 158.565 34.2219 160.682C37.5539 164.249 42.6499 164.249 45.9036 161.231C49.2356 158.134 49.6276 153.156 46.3348 149.549Z" fill="white"/>
</g>
</g>
<defs>
<clipPath id="clip0_8008_45">
<rect width="200" height="200" fill="white"/>
</clipPath>
<clipPath id="clip1_8008_45">
<rect width="200" height="200" fill="white"/>
</clipPath>
</defs>
</svg>
