<svg width="200" height="200" viewBox="0 0 200 200" fill="none" xmlns="http://www.w3.org/2000/svg">
<g clip-path="url(#clip0_76_6)">
<path d="M20.9 111.002C16.3913 111.015 12.062 109.236 8.86453 106.058C5.66703 102.879 3.86325 98.5602 3.84999 94.0516C3.83673 89.5429 5.61508 85.2136 8.79382 82.0161C11.9726 78.8186 16.2913 77.0148 20.8 77.0016H21C25.479 76.9856 29.782 78.744 32.9679 81.8924C36.1537 85.0408 37.963 89.3227 38 93.8016V94.0016C37.9631 98.5162 36.1465 102.834 32.9448 106.017C29.743 109.2 25.4147 110.991 20.9 111.002ZM20.9 102.502C23.1395 102.51 25.291 101.63 26.8839 100.056C28.4768 98.482 29.3815 96.341 29.4 94.1016V94.0016C29.4239 92.8956 29.2271 91.796 28.8209 90.767C28.4148 89.738 27.8075 88.8004 27.0347 88.0089C26.2618 87.2174 25.3389 86.588 24.3199 86.1575C23.3009 85.7269 22.2062 85.504 21.1 85.5016H21C19.8834 85.487 18.7749 85.6929 17.738 86.1075C16.701 86.522 15.7561 87.137 14.9572 87.9173C14.1584 88.6976 13.5213 89.6278 13.0825 90.6547C12.6437 91.6816 12.4117 92.7849 12.4 93.9016V94.1016C12.3931 95.215 12.6091 96.3186 13.0351 97.3474C13.4611 98.3762 14.0885 99.3094 14.8805 100.092C15.6725 100.875 16.6131 101.491 17.6468 101.905C18.6806 102.319 19.7867 102.522 20.9 102.502Z" fill="#F6BF44"/>
<path d="M188.8 96.7018V94.1018C189.3 94.0018 194.8 93.9018 195.9 94.0018V113.202C195.884 113.505 195.918 113.809 196 114.102C196.2 115.502 197.1 116.002 198.5 115.902L200 115.602V121.302C199.374 121.638 198.699 121.875 198 122.002C196.448 122.302 194.852 122.302 193.3 122.002C192.409 121.826 191.58 121.419 190.896 120.822C190.212 120.226 189.696 119.46 189.4 118.602C189.4 118.502 189.3 118.402 189.3 118.302L189.2 118.202L188.9 118.502C187.317 120.371 185.118 121.613 182.7 122.002C180.94 122.352 179.126 122.338 177.372 121.959C175.617 121.581 173.959 120.847 172.5 119.802C170.237 118.147 168.529 115.846 167.6 113.202C166.87 111.178 166.556 109.028 166.677 106.88C166.797 104.733 167.349 102.631 168.3 100.702C169.123 98.9947 170.296 97.4802 171.744 96.2569C173.191 95.0335 174.88 94.1289 176.7 93.6018C179.303 92.9007 182.058 93.0053 184.6 93.9018C185.909 94.3801 187.102 95.1299 188.1 96.1018C188.267 96.2771 188.402 96.4801 188.5 96.7018H188.8ZM182.1 115.602C183.952 115.484 185.694 114.682 186.988 113.351C188.281 112.02 189.034 110.256 189.1 108.402C189.261 106.387 188.654 104.387 187.4 102.802C186.704 101.913 185.804 101.205 184.778 100.735C183.752 100.265 182.628 100.048 181.5 100.102C179.714 100.052 177.972 100.657 176.6 101.802C174.1 103.902 173.5 106.602 174 109.702C174.7 113.302 177.6 115.602 182.1 115.602Z" fill="#1A4D9E"/>
<path d="M86.5 109.902C86.6111 110.964 86.9906 111.98 87.603 112.855C88.2153 113.729 89.0402 114.434 90 114.902C91.6891 115.731 93.5659 116.102 95.4434 115.98C97.3209 115.857 99.1334 115.244 100.7 114.202C100.814 114.078 100.95 113.977 101.1 113.902L101.4 113.602L105.8 118.002C105.357 118.46 104.89 118.894 104.4 119.302C102.449 120.948 100.041 121.959 97.5 122.202C94.2996 122.67 91.0328 122.326 88 121.202C86.1122 120.517 84.4034 119.415 83.0009 117.978C81.5984 116.541 80.5384 114.806 79.9 112.902C79.219 110.773 78.9808 108.526 79.2 106.302C79.3404 103.367 80.4457 100.561 82.3443 98.3187C84.2429 96.0766 86.8286 94.5239 89.7 93.9018C93.3342 92.965 97.1658 93.1391 100.7 94.4018C101.957 94.8321 103.113 95.5124 104.1 96.4018C104.919 97.1719 105.56 98.1109 105.98 99.1537C106.4 100.196 106.587 101.318 106.53 102.441C106.473 103.563 106.173 104.66 105.649 105.655C105.126 106.65 104.393 107.519 103.5 108.202C101.891 109.441 100.003 110.265 98 110.602C94.4028 111.252 90.703 111.047 87.2 110.002C87.0982 109.934 86.9825 109.89 86.8614 109.872C86.7402 109.855 86.6168 109.865 86.5 109.902ZM86.6 105.102C88.4134 105.685 90.297 106.021 92.2 106.102C93.4138 106.167 94.6301 106.032 95.8 105.702C96.5531 105.521 97.2437 105.141 97.8 104.602C98.0577 104.386 98.2701 104.122 98.4249 103.823C98.5797 103.525 98.6737 103.199 98.7016 102.864C98.7295 102.53 98.6907 102.193 98.5875 101.873C98.4842 101.553 98.3185 101.257 98.1 101.002L97.8 100.702C97.2785 100.207 96.6129 99.8922 95.9 99.8018C93.943 99.3758 91.8995 99.6225 90.1 100.502C89.3381 100.86 88.6575 101.371 88.1 102.002C87.4034 102.928 86.8939 103.981 86.6 105.102Z" fill="#1A4D9E"/>
<path d="M110.8 121.602V94.1016H117.9V104.202H130.3V94.1016H137.4V121.602H130.3V111.002H117.9V121.602H110.8Z" fill="#1A4D9E"/>
<path d="M46.4 121.702V115.902H48.5C48.9771 115.859 49.4336 115.687 49.821 115.405C50.2084 115.124 50.5122 114.742 50.7 114.302C50.9792 113.516 51.213 112.714 51.4 111.902C51.8025 109.758 52.0034 107.582 52 105.402C52.1 101.702 52.1 98.0016 52.2 94.4016V94.1016H74.9C75 94.5016 75.1 120.702 74.9 121.602H67.9V101.002H59V101.702L58.7 109.802C58.5918 112.16 58.1196 114.487 57.3 116.702C56.9297 117.741 56.3512 118.694 55.6 119.502C54.2882 120.909 52.5131 121.797 50.6 122.002C49.61 122.202 48.59 122.202 47.6 122.002L46.4 121.702Z" fill="#1A4D9E"/>
<path d="M165.5 100.902H156.8V121.602H149.7V100.902H140.9C140.8 100.402 140.7 95.3016 140.8 94.1016H165.4C165.596 96.3629 165.63 98.6354 165.5 100.902Z" fill="#1A4D9E"/>
<path d="M36.3 112.402C36.3 112.502 36.2 112.602 36.2 112.802C35.0179 115.378 33.1911 117.606 30.8963 119.27C28.6015 120.934 25.9162 121.978 23.1 122.302C17 123.102 11.6 121.302 6.7 117.602C3.86718 115.428 1.63098 112.573 0.2 109.302C0.1 109.102 0.1 108.902 0 108.702C5.9 108.402 16 111.702 20.9 122.302C22.322 119.384 24.4968 116.898 27.2 115.102C29.9016 113.326 33.0671 112.387 36.3 112.402Z" fill="#5BC27B"/>
<path d="M20.9 102.501C19.7834 102.503 18.6775 102.284 17.6457 101.857C16.6138 101.43 15.6762 100.804 14.8867 100.015C14.0971 99.2252 13.4711 98.2877 13.0444 97.2558C12.6177 96.224 12.3987 95.1181 12.4 94.0015C12.3881 92.8903 12.5965 91.7879 13.0132 90.7578C13.4299 89.7277 14.0466 88.7903 14.8277 88C15.6088 87.2096 16.5387 86.5819 17.5638 86.153C18.5889 85.7242 19.6888 85.5027 20.8 85.5015H21C22.1111 85.4896 23.2136 85.698 24.2437 86.1147C25.2738 86.5314 26.2111 87.1481 27.0015 87.9291C27.7919 88.7102 28.4196 89.6401 28.8485 90.6652C29.2773 91.6903 29.4988 92.7903 29.5 93.9015V94.0015C29.4634 96.2617 28.5425 98.4175 26.9347 100.007C25.327 101.596 23.1605 102.491 20.9 102.501Z" fill="#1A4D9E"/>
</g>
<defs>
<clipPath id="clip0_76_6">
<rect width="200" height="45.4932" fill="white" transform="translate(0 77)"/>
</clipPath>
</defs>
</svg>
