<svg width="200" height="200" viewBox="0 0 200 200" fill="none" xmlns="http://www.w3.org/2000/svg">
<g clip-path="url(#clip0_6463_298)">
<path d="M0 108.563C3.45455 116.675 11.4978 122.364 20.8745 122.364C17.4199 114.251 9.37229 108.563 0 108.563Z" fill="#00BE63"/>
<path d="M37.8831 94.0087C37.8831 103.403 30.2684 111.017 20.8745 111.017C11.4805 111.017 3.86581 103.403 3.86581 94.0087C3.86581 84.6147 11.4805 77 20.8745 77C30.2684 77 37.8831 84.6147 37.8831 94.0087Z" fill="#FFB900"/>
<path d="M20.8745 122.359C27.7619 122.359 33.6883 118.268 36.368 112.381C29.4805 112.381 23.5541 116.472 20.8745 122.359Z" fill="#00BE63"/>
<path d="M29.381 94.0087C29.381 98.7056 25.5714 102.515 20.8745 102.515C16.1775 102.515 12.368 98.7056 12.368 94.0087C12.368 89.3117 16.1775 85.5022 20.8745 85.5022C25.5714 85.5022 29.381 89.3074 29.381 94.0087Z" fill="#003D95"/>
<path d="M98.7836 102.732C98.7836 100.593 96.6667 99.6364 94.2944 99.6364C90.671 99.6364 87.5368 101.165 86.5801 105.1C93.961 107.229 98.7836 105.641 98.7836 102.732ZM86.4242 109.658C87.1905 114.368 90.9221 115.905 94.71 115.905C97.2164 115.905 99.8485 114.926 101.468 113.459L105.857 117.874C103.238 120.779 99.5887 122.359 94.6017 122.359C87.619 122.359 79.1991 118.238 79.1991 107.797C79.1991 97.355 87.3074 93.2338 94.1948 93.2338C102.905 93.2338 106.511 97.3247 106.511 101.913C106.511 109.416 96.9784 112.879 86.4242 109.654M52.1602 94.0087L51.9481 104.368C51.8961 108.563 51.7446 110.632 51.1385 113.009C50.5844 115.281 49.5195 115.926 47.8528 115.926C47.2987 115.926 46.7922 115.874 46.3853 115.723V121.584C46.9394 121.887 47.8528 122.039 49.0649 122.039C54.0693 121.887 56.4935 119.528 57.7056 115.281C58.5628 112.251 58.7143 109.926 58.8701 106.437L59.0303 100.844H67.8658V121.58H74.9827V94.0043H52.1602V94.0087ZM189.082 107.801C189.082 105.541 188.364 103.667 186.874 102.229C185.442 100.74 183.619 100.022 181.416 100.022C179.212 100.022 177.39 100.74 175.957 102.229C174.524 103.662 173.805 105.541 173.805 107.801C173.805 110.061 174.524 111.935 175.957 113.429C177.39 114.861 179.212 115.58 181.416 115.58C183.619 115.58 185.442 114.861 186.874 113.429C188.364 111.939 189.082 110.065 189.082 107.801ZM200 115.589V121.45C198.788 122.056 197.273 122.359 195.502 122.359C191.805 122.359 189.944 120.749 189.199 118.16L189.082 118.333C186.931 121.035 183.952 122.359 180.091 122.359C176.229 122.359 173.251 120.983 170.606 118.169C168.013 115.355 166.688 111.883 166.688 107.801C166.688 103.719 168.013 100.299 170.606 97.4848C173.255 94.671 176.398 93.2381 180.091 93.2381C183.784 93.2381 186.667 94.4502 188.792 96.9221V94.013H195.905V113.519C195.905 115.186 196.662 116.048 198.177 116.048C198.883 116.048 199.493 115.896 199.996 115.593M140.775 100.848H149.632V121.584H156.749V100.848H165.498V94.0087H140.775V100.848ZM130.312 94.0087H137.429V121.584H130.312V110.844H117.887V121.584H110.775V94.0087H117.887V104.169H130.312V94.0087Z" fill="#003D95"/>
</g>
<defs>
<clipPath id="clip0_6463_298">
<rect width="200" height="45.3593" fill="white" transform="translate(0 77)"/>
</clipPath>
</defs>
</svg>
