<svg width="200" height="200" viewBox="0 0 200 200" fill="none" xmlns="http://www.w3.org/2000/svg">
<g clip-path="url(#clip0_8008_439)">
<path d="M73.8127 105.857L74.063 105.838C74.622 105.802 75.3233 105.973 75.5605 106.209C75.8749 106.542 75.8749 107.152 75.8749 107.479V118.696C75.8749 118.87 75.8478 118.995 75.8395 119.014C75.8219 119.032 75.7074 119.074 75.3912 119.074H70.7835C70.5705 119.074 70.4746 119.052 70.4792 119.057C70.4709 119.043 70.4467 118.991 70.4467 118.822V106.682C70.4467 106.483 70.4606 106.328 70.6411 106.161C70.8913 105.94 71.5982 105.839 72.1498 105.839H72.3823V104.954H65.9422V105.865L66.1989 105.839C66.5915 105.793 67.3578 105.895 67.6164 106.136C67.8453 106.35 67.8768 106.665 67.8768 106.974V118.697C67.8768 118.872 67.8499 118.998 67.8461 119.013C67.8239 119.034 67.6992 119.075 67.3942 119.075H62.7864C62.5733 119.075 62.4961 119.066 62.4822 119.059C62.4739 119.044 62.4506 118.989 62.4506 118.823V107.312C62.4506 107.051 62.4506 106.357 62.7119 106.094C62.9109 105.908 63.7044 105.777 64.255 105.838L64.5126 105.867V104.955H57.8187V105.84H58.2605C59.0585 105.84 59.438 105.97 59.6101 106.301C59.677 106.434 59.8806 106.839 59.8806 109.291V116.971C59.8806 117.852 59.8806 118.489 59.6537 118.769C59.4016 119.105 58.599 119.299 58.0763 119.245L57.8195 119.218V120.13H80.465V119.231L80.2194 119.244C78.9498 119.306 78.6698 118.456 78.628 118.286C78.5284 117.87 78.4447 116.458 78.4447 115.793V107.712C78.4447 106.857 78.5266 106.414 78.7219 106.183C79.0316 105.84 79.7692 105.84 80.0846 105.84H80.465V104.954H73.8137L73.8127 105.857Z" fill="black"/>
<path d="M112.598 104.64C109.23 104.64 107.19 106.549 106.469 107.368C105.186 108.813 104.537 110.599 104.537 112.679C104.537 113.957 104.814 116.378 106.668 118.232C107.35 118.916 109.266 120.509 112.324 120.509C114.56 120.509 116.707 119.633 118.214 118.103C119.064 117.237 120.49 115.342 120.49 112.364C120.49 109.488 119.237 107.697 118.187 106.703C116.306 104.908 113.878 104.64 112.598 104.64ZM107.569 112.511C107.569 110.418 108.046 108.621 108.911 107.453C109.811 106.255 111.193 105.567 112.702 105.567C113.726 105.567 115.16 105.883 116.172 107.381C116.975 108.569 117.455 110.527 117.455 112.617C117.455 113.985 117.253 115.932 116.295 117.438C115.403 118.84 114.037 119.581 112.345 119.581C110.814 119.581 109.652 118.935 108.797 117.606C107.993 116.35 107.569 114.589 107.569 112.511Z" fill="black"/>
<path d="M137.489 118.884L137.483 118.879C137.132 118.581 136.905 118.011 136.58 117.199L131.575 104.954H127.126V105.84H127.61C128.041 105.84 128.726 105.904 129.061 106.001C129.476 106.121 129.61 106.286 129.61 106.681C129.61 107 129.464 107.48 129.009 108.88L128.955 109.049C128.492 110.477 128.367 110.861 127.517 113.207C127.031 114.546 126.477 116.063 125.765 117.405L125.72 117.487C125.637 117.637 125.566 117.768 125.448 117.904C125.361 118.016 125.29 118.061 125.278 118.065C125.246 118.059 125.147 117.989 125.062 117.928L124.998 117.883C124.696 117.644 124.319 117.517 123.905 117.517C123.471 117.517 123.103 117.676 122.808 117.993C122.551 118.274 122.431 118.593 122.431 118.993C122.431 119.466 122.563 119.808 122.857 120.102C123.14 120.387 123.435 120.508 123.843 120.508C124.385 120.508 124.85 120.307 125.304 119.88C125.789 119.442 126.046 119.006 126.296 118.581C127.077 117.213 127.504 116.237 128.374 113.831C128.819 112.618 129.595 110.33 129.969 109.231L130.122 108.784C130.158 108.679 130.197 108.564 130.234 108.46C130.525 109.16 130.571 109.284 130.684 109.586C130.742 109.74 130.817 109.938 130.948 110.281L134.13 118.263C134.227 118.484 134.341 118.845 134.342 118.929C134.342 119.021 134.168 119.09 134.018 119.122C133.673 119.2 133.216 119.244 132.763 119.244H132.53V120.129H139.037V119.244H138.657C138.198 119.244 137.822 119.182 137.489 118.884Z" fill="black"/>
<path d="M156.438 119.243C156.038 119.243 155.621 119.2 155.268 118.883C154.93 118.578 154.725 118.084 154.417 117.336L150.613 108.148L150.37 107.57C150.149 107.043 149.917 106.485 149.749 106.105C149.299 105.048 149.068 104.848 148.8 104.848C148.516 104.848 148.344 105.129 148.256 105.271C148.059 105.664 147.847 106.142 147.658 106.614L143.555 116.844C143.114 117.961 142.889 118.409 142.627 118.689C142.194 119.179 141.717 119.243 141.349 119.243H141.117V120.128H146.337V119.256L146.12 119.243C145.563 119.207 144.801 119.109 144.483 118.951C144.262 118.84 144.17 118.711 144.17 118.507C144.17 118.257 144.344 117.77 144.514 117.324L145.109 115.691C145.301 115.127 145.38 114.893 145.524 114.764C145.69 114.615 145.939 114.615 146.104 114.615H149.83C150.032 114.615 150.31 114.615 150.456 114.747C150.558 114.837 150.63 115.012 150.706 115.198L151.907 118.252C152.114 118.791 152.124 118.909 152.124 118.928C152.124 119.02 151.952 119.089 151.801 119.121C151.454 119.198 150.996 119.243 150.545 119.243H150.313V120.128H156.818V119.243L156.438 119.243ZM147.934 108.412L149.549 112.381C149.579 112.463 149.61 112.539 149.641 112.614C149.673 112.696 149.706 112.777 149.742 112.877L149.782 112.966C149.827 113.067 149.87 113.162 149.907 113.29L149.962 113.427C149.996 113.514 150.025 113.586 150.035 113.626C149.962 113.645 149.816 113.645 149.745 113.645H146.085C145.999 113.645 145.941 113.643 145.901 113.64C145.921 113.532 145.975 113.403 146.004 113.331L147.587 109.283C147.696 108.973 147.789 108.73 147.934 108.412Z" fill="black"/>
<path d="M105.656 120.357L105.488 120.522C105.466 120.543 104.928 121.072 103.728 121.014C102.866 120.977 101.534 120.678 99.9105 118.529C97.9146 115.886 96.3137 113.906 94.993 112.833C94.1867 112.176 93.1608 111.904 92.3135 111.8L94.8563 109.199L95.2906 108.742C96.0228 107.971 96.6542 107.305 97.2728 106.823C98.0504 106.225 98.7637 105.931 99.6585 105.838L99.8677 105.817V104.954H94.036V105.853L94.2815 105.839C94.6025 105.813 95.0275 105.886 95.2926 105.992C95.5771 106.109 95.6981 106.259 95.6981 106.492C95.6981 106.924 95.1223 107.519 94.5661 108.096C94.3932 108.268 94.2267 108.444 94.0592 108.622C93.9002 108.791 93.7402 108.961 93.5719 109.129C93.3402 109.372 93.104 109.609 92.8677 109.846C92.6315 110.082 92.3953 110.319 92.1664 110.559L92.1004 110.626C91.2104 111.535 90.9592 111.772 90.5229 111.772H90.016C89.9398 111.772 89.9063 111.767 89.9081 111.775C89.8913 111.744 89.8913 111.647 89.8913 111.605V107.123C89.8913 106.704 89.9388 106.321 90.0049 106.212C90.2328 105.839 91.453 105.839 91.9116 105.839H92.1442V104.954H85.3013V105.839H85.5339C86.5812 105.839 86.916 106.041 87.0182 106.156C87.1839 106.354 87.196 106.865 87.196 107.564V118.255V118.321C87.1968 118.527 87.1988 118.837 87.0797 118.97C87.0425 119.016 86.795 119.243 85.5339 119.243H85.3013V120.128H92.1442V119.243H91.9116C91.3229 119.243 90.4328 119.243 90.1285 118.922C89.8913 118.652 89.8913 118.134 89.8913 117.792V113.056C89.8913 112.92 89.8951 112.833 89.9499 112.779C89.9853 112.744 90.0625 112.741 90.1853 112.741H90.5788V112.509L90.6568 112.749C90.8039 112.754 90.949 112.787 91.0875 112.845L91.2559 112.885L91.2661 112.873C92.0828 113.158 92.9404 113.951 94.3522 115.715C94.7726 116.239 95.0423 116.592 95.4135 117.079C95.8599 117.664 96.4533 118.44 97.629 119.932C98.9423 121.599 100.762 122.543 102.649 122.543C102.71 122.543 102.772 122.542 102.834 122.54C104.21 122.495 105.44 121.92 106.044 121.04L106.085 120.98V120.909C106.085 120.802 106.044 120.759 105.818 120.525L105.656 120.357Z" fill="black"/>
<path d="M72.9426 93.9809C72.5937 93.6879 72.3687 93.1243 72.0404 92.303L67.0373 80.0581H62.5858V80.9445H63.0704C63.4954 80.9445 64.1801 81.0087 64.5185 81.1035C64.9343 81.2254 65.0674 81.391 65.0674 81.7853C65.0674 82.1071 64.9213 82.5852 64.4692 83.9841L64.4237 84.1264C63.9577 85.5653 63.8322 85.9522 62.9774 88.3138C62.4909 89.6503 61.9394 91.1636 61.225 92.5095L61.185 92.583C61.1004 92.7364 61.0278 92.8695 60.906 93.0081C60.8306 93.1075 60.7563 93.1624 60.7377 93.1679C60.7042 93.1614 60.6009 93.0881 60.5088 93.0238L60.4568 92.9875C60.1554 92.7485 59.7778 92.622 59.3649 92.622C58.9323 92.622 58.564 92.781 58.2682 93.0974C58.0115 93.3772 57.8915 93.6954 57.8915 94.0972C57.8915 94.5716 58.0227 94.9138 58.3165 95.2058C58.6012 95.4914 58.8961 95.6133 59.3025 95.6133C60.0122 95.6133 60.4773 95.2524 60.7619 94.9845C61.2157 94.5734 61.4595 94.1874 61.7553 93.6851C62.5346 92.3216 62.9625 91.344 63.835 88.936C64.2694 87.7492 65.0096 85.5736 65.4068 84.4045L65.5715 83.9208C65.6105 83.8055 65.6523 83.6772 65.6933 83.5646C65.9806 84.2548 66.0291 84.385 66.1398 84.6789C66.1984 84.8342 66.2727 85.0342 66.4095 85.3867L69.5905 93.3707C69.6844 93.581 69.8006 93.9455 69.8016 94.034C69.8016 94.1437 69.5542 94.2098 69.478 94.2274C69.1319 94.3037 68.6753 94.3474 68.2242 94.3474H67.9916V95.2329H74.4977V94.3474H74.1182C73.7471 94.3483 73.3184 94.3195 72.9426 93.9809Z" fill="black"/>
<path d="M81.7463 86.5086L81.7425 86.5058C80.8701 85.8175 79.8377 85.4678 78.6732 85.4678C77.4547 85.4678 76.3702 85.8612 75.4484 86.6406C74.6542 87.3289 73.7064 88.5688 73.7064 90.5629C73.7064 92.4836 74.5592 93.6621 75.2764 94.3131C76.1506 95.0925 77.2361 95.4878 78.5039 95.4878C79.7028 95.4878 80.7278 95.14 81.6411 94.4229C82.3247 93.8629 83.4716 92.5877 83.4716 90.3304C83.4725 88.3446 82.533 87.1559 81.7463 86.5086ZM76.2121 90.709C76.2121 89.6105 76.3916 88.179 76.7935 87.4563C76.9766 87.1252 77.5236 86.3542 78.6518 86.3542C79.3837 86.3542 79.9381 86.6769 80.3483 87.3401C80.8952 88.2181 80.9659 89.4449 80.9659 90.415C80.9659 91.8911 80.7576 92.9459 80.3278 93.6388L80.3268 93.6407C79.9157 94.314 79.3708 94.6015 78.5049 94.6015C77.6295 94.6015 77.0994 94.3047 76.7321 93.6062C76.4056 93.0091 76.2121 91.9264 76.2121 90.709Z" fill="black"/>
<path d="M95.7497 93.8527C95.6502 93.6834 95.5302 93.3402 95.4902 92.1757L95.4252 89.7816C95.4252 89.6235 95.4159 89.2143 95.4066 88.7752C95.3953 88.2786 95.3842 87.7447 95.3842 87.5094C95.3842 87.0787 95.4009 86.8071 95.7329 86.6472C95.9032 86.569 96.2371 86.5225 96.6259 86.5225H96.8584V85.6343H94.1202C93.9221 85.6343 93.5899 85.6343 93.3621 85.8361C93.1845 85.9831 93.0943 86.2137 92.8068 86.9894C92.7278 87.2052 92.6394 87.4136 92.4925 87.7596C92.3278 88.1465 92.0916 88.7036 91.7159 89.63C91.3476 90.5276 91.0061 91.334 90.6314 92.1906L88.3581 86.769C88.106 86.1551 88.0326 86.0035 87.907 85.851C87.7164 85.6603 87.5154 85.6352 87.3453 85.6352H84.1466V86.5235H84.3791C84.9019 86.5235 85.3297 86.6081 85.5232 86.7495C85.7705 86.9318 85.8905 87.2908 85.8905 87.8479C85.8905 88.1791 85.8701 88.7055 85.8505 88.9855L85.6199 91.8065C85.5408 92.811 85.4264 93.37 85.2246 93.7383C84.9995 94.1662 84.6461 94.3485 84.0415 94.3485H83.809V95.234H88.0401V94.3327L87.7926 94.3493C87.4847 94.3652 87.1061 94.2992 86.9453 94.1968C86.6281 93.9903 86.5873 93.5291 86.5873 93.1505C86.5873 92.6436 86.6216 92.1469 86.683 91.2447L86.8699 88.206L88.7088 92.7124C89.0147 93.4481 89.1971 93.862 89.3236 94.1485C89.4547 94.4471 89.5236 94.6024 89.623 94.8823C89.6788 95.0255 89.8091 95.3623 90.1226 95.3623C90.2592 95.3623 90.516 95.2841 90.6974 94.7679L90.8239 94.4285C90.9811 94.0052 91.0964 93.6955 91.6228 92.3729C92.2525 90.7899 92.3028 90.6745 92.7854 89.5668C92.9305 89.2329 93.1147 88.8097 93.3659 88.2293L93.4487 91.4809C93.4756 92.4836 93.4887 92.9896 93.4887 93.5086C93.4887 93.8676 93.4887 94.0164 93.1594 94.182C92.8952 94.3057 92.5036 94.3493 92.2264 94.3493H91.9939V95.2348H97.1105V94.3307L96.8602 94.3503C96.3804 94.381 95.9561 94.195 95.7497 93.8527Z" fill="black"/>
<path d="M105.525 86.5067C104.654 85.8175 103.621 85.4678 102.455 85.4678C101.234 85.4678 100.149 85.8612 99.2303 86.6397C98.435 87.3298 97.4863 88.5706 97.4863 90.5629C97.4863 92.4826 98.3402 93.6621 99.0582 94.314C99.9325 95.0935 101.018 95.4888 102.286 95.4888C103.486 95.4888 104.51 95.1418 105.417 94.4266L105.421 94.4238C106.106 93.8647 107.254 92.5897 107.254 90.3304C107.255 88.3455 106.317 87.1568 105.525 86.5067ZM100.514 93.6062C100.188 93.01 99.9939 91.9264 99.9939 90.709C99.9939 89.6105 100.173 88.179 100.575 87.4563C100.803 87.0443 101.347 86.3532 102.435 86.3532C103.163 86.3532 103.718 86.676 104.131 87.3392C104.678 88.2228 104.748 89.4468 104.748 90.414C104.748 91.8893 104.539 92.9449 104.111 93.6397C103.695 94.315 103.15 94.6024 102.286 94.6024C101.421 94.6024 100.875 94.2963 100.515 93.6108L100.514 93.6062Z" fill="black"/>
<path d="M114.177 86.5221H114.41C114.809 86.5221 115.308 86.6011 115.451 86.7332C115.626 86.8951 115.65 87.202 115.65 87.5099V89.5729C115.65 89.704 115.603 89.7551 115.592 89.7663C115.555 89.8035 115.472 89.8035 115.398 89.8035H111.778C111.737 89.8035 111.649 89.8035 111.626 89.784C111.596 89.7542 111.569 89.7282 111.569 89.6556V87.321C111.569 87.0355 111.667 86.8216 111.766 86.7332C111.902 86.6104 112.34 86.5212 112.81 86.5212H113.042V85.6348H107.864V86.5342L108.109 86.5212C108.474 86.4858 109.001 86.6458 109.145 86.8048C109.338 87.0132 109.336 87.4178 109.335 87.7145V93.4021C109.335 93.6783 109.315 93.9639 109.091 94.1425C108.902 94.2839 108.42 94.3666 108.111 94.349L107.863 94.3322V95.2335H113.041V94.3331L112.794 94.348C112.461 94.3722 111.963 94.2829 111.78 94.1312C111.567 93.9481 111.567 93.7239 111.567 93.5286V90.9429C111.567 90.8379 111.587 90.8211 111.608 90.8062C111.634 90.7858 111.705 90.7745 111.818 90.7745H115.438C115.534 90.7745 115.597 90.8005 115.611 90.8118C115.644 90.8443 115.648 90.8638 115.648 90.9838V93.5518C115.648 93.8365 115.551 94.0494 115.451 94.1359C115.316 94.2597 114.876 94.349 114.408 94.349H114.175V95.2345H119.353V94.349H119.037C118.797 94.349 118.299 94.349 118.078 94.0932C117.894 93.8765 117.879 93.3566 117.879 92.6459V87.5322C117.879 87.2448 117.879 86.9192 118.078 86.7351C118.225 86.6021 118.723 86.523 119.121 86.523H119.353V85.6366H114.175V86.5221H114.177Z" fill="black"/>
<path d="M128.003 86.5067C127.132 85.8175 126.099 85.4678 124.933 85.4678C123.713 85.4678 122.629 85.8612 121.707 86.6397C120.913 87.3308 119.965 88.5734 119.965 90.5629C119.965 92.4798 120.82 93.6602 121.538 94.314C122.413 95.0935 123.499 95.4888 124.765 95.4888C125.95 95.4888 127.003 95.1316 127.896 94.4266L127.899 94.4238C128.584 93.8647 129.733 92.5897 129.733 90.3304C129.733 88.3446 128.794 87.1559 128.003 86.5067ZM122.991 93.6071C122.666 93.0081 122.473 91.9246 122.473 90.709C122.473 89.6105 122.652 88.179 123.055 87.4563C123.282 87.0443 123.826 86.3532 124.912 86.3532C125.643 86.3532 126.198 86.676 126.609 87.3392C127.157 88.2218 127.227 89.4468 127.227 90.414C127.227 91.8921 127.017 92.9467 126.587 93.6407C126.175 94.315 125.63 94.6024 124.764 94.6024C123.889 94.6024 123.359 94.3057 122.991 93.61V93.6071Z" fill="black"/>
<path d="M138.897 92.5607C138.558 92.9747 138.203 93.264 138.064 93.3579L138.058 93.3616C137.551 93.7242 136.952 93.9075 136.278 93.9075C135.459 93.9075 134.737 93.5913 134.131 92.9672C133.42 92.2352 133.061 91.2633 133.061 90.0774C133.061 89.3472 133.204 88.2711 133.895 87.2731C134.466 86.5271 135.079 86.4164 135.394 86.4164C135.673 86.4164 135.897 86.5113 136.06 86.6936C136.165 86.8155 136.263 87.0108 136.407 87.2973C136.531 87.5456 136.718 87.9204 137.03 88.2088C137.158 88.3213 137.511 88.5836 138.025 88.5836C138.398 88.5836 138.715 88.4376 138.95 88.1492C139.098 87.9428 139.184 87.6786 139.184 87.4238C139.184 87.1661 139.093 86.5113 138.246 86.0035C137.898 85.8026 137.147 85.4668 136.024 85.4668C134.61 85.4668 133.282 85.9905 132.288 86.941C130.923 88.232 130.72 89.829 130.72 90.6661C130.72 91.9403 131.163 93.17 131.939 94.0434C132.432 94.5828 133.53 95.4878 135.351 95.4878C136.538 95.4878 137.578 95.1297 138.444 94.4219C139.056 93.9168 139.428 93.3272 139.608 93.0426L139.733 92.8454L139.026 92.4007L138.897 92.5607Z" fill="black"/>
<path d="M147.917 86.5058C147.045 85.8175 146.013 85.4678 144.847 85.4678C143.628 85.4678 142.544 85.8612 141.622 86.6406C140.828 87.3289 139.88 88.5688 139.88 90.5629C139.88 92.5877 140.863 93.7811 141.45 94.3131C142.324 95.0925 143.41 95.4878 144.676 95.4878C145.879 95.4878 146.903 95.14 147.814 94.4229C148.497 93.8639 149.647 92.5897 149.647 90.3304C149.647 88.3455 148.707 87.1559 147.917 86.5058ZM142.385 90.709C142.385 89.6114 142.563 88.18 142.966 87.4563C143.149 87.1252 143.696 86.3542 144.825 86.3542C145.555 86.3542 146.111 86.6769 146.523 87.3382C147.068 88.2228 147.138 89.4477 147.138 90.415C147.138 91.8939 146.928 92.9487 146.499 93.6407C146.087 94.314 145.542 94.6015 144.676 94.6015C143.803 94.6015 143.272 94.3047 142.904 93.6071C142.579 93.0073 142.385 91.9246 142.385 90.709Z" fill="black"/>
<path d="M158.861 90.7152C158.501 90.4324 158.016 90.2241 157.527 90.0883C157.835 89.9757 158.111 89.8306 158.351 89.653C158.938 89.2177 159.224 88.655 159.224 87.9295C159.224 87.257 158.954 86.7008 158.42 86.2739C157.627 85.6461 156.48 85.594 155.373 85.594C154.845 85.594 154.334 85.6135 153.825 85.6331L153.765 85.6349C152.72 85.6768 152.51 85.6768 152.342 85.6768C152.007 85.6768 151.569 85.6768 150.31 85.6349L150.069 85.6265V86.5818L150.32 86.5622C150.682 86.539 151.297 86.5966 151.527 86.8106C151.748 87.0329 151.775 87.4114 151.775 87.6774V92.8331C151.775 93.2153 151.725 93.7269 151.647 93.9203C151.482 94.3017 151.087 94.3239 150.661 94.3277H150.069V95.2253L150.293 95.2336C150.878 95.2551 152.134 95.2765 152.827 95.2765C153.327 95.2765 153.81 95.2765 154.321 95.2969C154.518 95.2969 154.716 95.3025 154.913 95.3072C155.116 95.3127 155.318 95.3183 155.52 95.3183C156.9 95.3183 157.856 95.1193 158.525 94.6942C159.572 94.0534 159.728 93.0442 159.728 92.4991C159.728 91.7634 159.437 91.1635 158.861 90.7152ZM154.006 93.2339V90.771C154.006 90.7041 154.016 90.6891 154.009 90.6891C154.011 90.6873 154.107 90.6463 154.489 90.6463H154.889C155.672 90.6463 156.261 90.7627 156.642 90.9924C157.168 91.3021 157.414 91.7866 157.414 92.5177C157.414 93.1083 157.268 93.5111 156.939 93.8217C156.538 94.1994 155.941 94.391 155.162 94.391C154.579 94.391 154.289 94.3063 154.159 94.098C154.1 94.0087 154.006 93.778 154.006 93.2339ZM156.992 87.9509C156.992 88.4894 156.779 88.9898 156.423 89.2884C156.066 89.5851 155.494 89.7627 154.889 89.7627H154.279C154.173 89.7627 154.03 89.7627 154.013 89.7646C154.007 89.7497 154.007 89.706 154.007 89.6781V87.4895C154.007 87.1575 154.037 86.8115 154.056 86.606C154.056 86.605 154.056 86.605 154.056 86.6041C154.428 86.5213 154.793 86.4795 155.144 86.4795C155.575 86.4795 156.032 86.5083 156.475 86.8524C156.823 87.1194 156.992 87.4784 156.992 87.9509Z" fill="black"/>
<path d="M168.851 92.5607C168.513 92.9747 168.158 93.264 168.018 93.3579L168.013 93.3616C167.506 93.7242 166.907 93.9075 166.232 93.9075C165.411 93.9075 164.69 93.5913 164.085 92.9672C163.373 92.2352 163.014 91.2623 163.014 90.0774C163.014 89.3454 163.156 88.2674 163.849 87.2731C164.42 86.5271 165.032 86.4164 165.348 86.4164C165.627 86.4164 165.851 86.5113 166.013 86.6936C166.118 86.8155 166.217 87.0108 166.361 87.2963C166.473 87.527 166.663 87.9139 166.983 88.2088C167.111 88.3213 167.463 88.5836 167.979 88.5836C168.351 88.5836 168.668 88.4376 168.904 88.1483C169.052 87.94 169.138 87.6767 169.138 87.4238C169.138 87.1661 169.047 86.5113 168.2 86.0044C167.923 85.8426 167.152 85.4668 165.978 85.4668C164.562 85.4668 163.234 85.9905 162.241 86.941C160.876 88.2339 160.673 89.829 160.673 90.6661C160.673 91.9385 161.117 93.1681 161.892 94.0434C162.386 94.5828 163.486 95.4878 165.304 95.4878C166.494 95.4878 167.534 95.1297 168.399 94.4219C169.01 93.915 169.383 93.3252 169.562 93.0426L169.687 92.8454L168.979 92.4007L168.851 92.5607Z" fill="black"/>
<path d="M197.521 86.7336C197.665 86.6006 198.163 86.5216 198.562 86.5216H198.794V85.6352H197.931C197.093 85.6352 196.678 85.6157 196.117 85.5738L196.113 85.5729C195.894 85.5608 195.682 85.5459 195.475 85.531C195.004 85.4985 194.561 85.4678 194.1 85.4678C192.562 85.4678 191.754 85.7728 191.348 86.0286C190.566 86.5095 190.1 87.4089 190.1 88.4367C190.1 89.2338 190.424 89.8951 191.034 90.3471C191.342 90.5825 191.78 90.7619 192.21 90.8791C191.623 91.1945 190.992 91.7664 190.579 92.6566C190.511 92.8035 190.444 92.97 190.37 93.1449C190.052 93.9262 189.654 94.8991 188.896 94.8991C188.223 94.8991 187.792 94.275 187.742 93.2398V88.3306C187.742 87.8888 187.689 86.7988 187.21 86.2119C186.844 85.7394 186.141 85.4687 185.279 85.4687C184.201 85.4687 183.058 85.9086 181.883 86.7736C181.082 87.3447 180.692 87.9102 180.692 88.5009C180.692 88.8245 180.803 89.1054 181.011 89.3138C181.197 89.5026 181.424 89.5947 181.703 89.5947C182.047 89.5947 182.37 89.4514 182.592 89.2022C182.782 88.9892 182.883 88.7101 182.883 88.3957C182.883 88.2683 182.866 88.1614 182.838 88.0005C182.831 87.9558 182.82 87.9084 182.811 87.8619C182.794 87.781 182.778 87.6991 182.778 87.6377C182.778 87.541 182.809 87.208 183.22 86.9699C183.447 86.8229 183.794 86.7318 184.125 86.7318C184.737 86.7318 185.059 87.0294 185.166 87.1522C185.396 87.4359 185.511 87.7958 185.511 88.2255V89.8486L184.637 90.1527C183.147 90.6783 182.293 91.0856 181.686 91.5591C181.214 91.9385 180.672 92.5004 180.672 93.4871C180.672 94.0508 180.875 94.5652 181.245 94.9353C181.497 95.1874 181.965 95.4878 182.756 95.4878C183.061 95.4878 183.71 95.4274 184.638 95.0256C184.886 94.9167 185.268 94.7335 185.62 94.5391C186.138 95.605 187.558 95.7501 188.885 95.7501C190.455 95.7501 191.6 95.2404 192.197 94.2759C192.516 93.7643 192.766 93.1978 192.99 92.6984C193.254 92.1022 193.506 91.5405 193.772 91.306C194.072 91.0419 194.559 90.9331 195.092 90.9916V93.5504C195.092 93.835 194.996 94.048 194.896 94.1345C194.758 94.2583 194.318 94.3476 193.851 94.3476H193.618V95.2329H198.797V94.3476H198.48C198.114 94.3476 197.716 94.3169 197.521 94.0918C197.338 93.8769 197.324 93.356 197.324 92.6445V87.5308C197.321 87.2434 197.321 86.9169 197.521 86.7336ZM192.27 88.352C192.27 87.4108 192.687 86.9569 192.937 86.7681C193.251 86.5281 193.731 86.3969 194.292 86.3969C194.59 86.3969 194.844 86.4295 195.089 86.5002V89.656C195.089 89.8253 195.061 89.9463 195.01 89.9974C194.98 90.0272 194.855 90.0969 194.332 90.0969C193.786 90.0969 193.172 90.0467 192.769 89.6802C192.439 89.3528 192.27 88.9055 192.27 88.352ZM183.035 93.9104C182.916 93.7235 182.84 93.4091 182.84 93.1085C182.84 92.4184 183.148 91.9349 183.844 91.5395C184.306 91.2577 184.978 91.0233 185.51 90.8809V92.9616C185.51 93.1663 185.485 93.3643 185.445 93.4546C185.375 93.6108 185.248 93.6835 185.101 93.769C184.683 94.009 184.234 94.2424 183.765 94.2424C183.421 94.2424 183.176 94.1308 183.035 93.9104Z" fill="black"/>
<path d="M181.549 95.6125C181.492 95.6878 181.413 95.7511 181.314 95.8004C181.224 95.845 181.07 95.8823 180.975 95.8823C180.514 95.8823 179.893 95.1001 179.658 94.8052C179.29 94.3476 178.931 93.7245 178.614 93.1757C178.43 92.8576 178.258 92.5609 178.1 92.3209C177.71 91.7247 177.232 91.2252 176.644 90.7936C176.28 90.5295 175.617 90.2281 174.958 90.0858C175.304 89.6924 175.651 89.1567 175.88 88.7446C176.228 88.1196 176.373 87.862 176.665 87.4406C176.759 87.3011 176.88 87.1793 176.906 87.1644C176.916 87.1672 176.965 87.1895 177.082 87.3643C177.432 87.8508 177.904 87.9243 178.154 87.9243C178.762 87.9243 179.417 87.4732 179.417 86.744C179.417 86.3291 179.279 85.9943 179.004 85.7506C178.742 85.5153 178.427 85.3962 178.069 85.3962C177.425 85.3962 176.811 85.8008 176.583 86.0092C176.103 86.4194 175.872 86.7849 175.501 87.4071C175.234 87.9085 174.459 89.2906 174.089 89.6608C173.832 89.9166 173.752 89.9286 173.537 89.9286H173.43L173.423 89.3185L173.424 87.4918C173.424 87.2155 173.444 86.9309 173.668 86.7505C173.856 86.61 174.344 86.5272 174.649 86.5449L174.897 86.5617V85.6595H169.762V86.5458H169.994C170.303 86.5458 170.721 86.611 170.9 86.7393C171.142 86.8956 171.192 87.1365 171.192 87.4499V89.5557L171.203 89.7845L171.2 93.4045C171.2 93.6806 171.18 93.9663 170.956 94.1439C170.768 94.2863 170.28 94.3699 169.976 94.3504L169.727 94.3336V95.2349H174.862V94.3495H174.63C174.321 94.3495 173.903 94.2843 173.724 94.156C173.479 93.9988 173.431 93.7681 173.431 93.4463V90.816H173.662C174.613 90.816 175.692 92.6399 176.152 93.4184L176.425 93.8863C176.949 94.7912 177.492 95.726 178.228 96.3418C178.742 96.7723 179.462 97.0374 180.113 97.0374C180.123 97.0374 180.134 97.0374 180.144 97.0374C180.954 97.0254 181.597 96.7659 182.168 96.2199L182.335 96.0609L181.716 95.4005L181.549 95.6125Z" fill="black"/>
<path d="M5.06364 101.109C7.00105 99.1701 22.3256 83.8457 22.6408 83.5322C22.9553 83.8466 38.2815 99.1701 40.2181 101.108C42.175 103.066 42.908 105.104 42.908 105.104C42.908 105.104 45.7736 98.8529 42.9098 95.9891C40.0888 93.1682 23.1608 76.2393 22.652 75.7305V75.7063C22.652 75.7063 22.6418 75.7165 22.6399 75.7184C22.6381 75.7165 22.6278 75.7063 22.6278 75.7063V75.7305C22.1199 76.2383 5.19106 93.1682 2.37097 95.9891C-0.493767 98.8529 2.37283 105.104 2.37283 105.104C2.37283 105.104 3.10668 103.066 5.06364 101.109Z" fill="black"/>
<path d="M36.0169 110.493C39.2807 107.229 36.015 100.951 36.015 100.951C36.015 100.951 35.4346 103.262 33.3261 105.372C31.796 106.903 24.6873 114.01 22.2522 116.445C18.9912 119.707 22.7043 125.378 22.7043 125.378C22.7043 125.378 22.9274 123.584 25.1598 121.35C29.6736 116.834 34.1129 112.396 36.0169 110.493Z" fill="black"/>
<path d="M26.5915 98.6383C25.0605 100.169 17.9526 107.276 15.5167 109.711C12.2557 112.973 15.9687 118.644 15.9687 118.644C15.9687 118.644 16.1911 116.849 18.4242 114.616C22.939 110.101 27.3774 105.665 29.2823 103.759C32.5451 100.496 29.2785 94.2183 29.2785 94.2183C29.2785 94.2183 28.7001 96.5287 26.5915 98.6383Z" fill="black"/>
<path d="M19.8595 91.906C18.3294 93.436 11.2197 100.543 8.78464 102.979C5.52461 106.241 9.2376 111.912 9.2376 111.912C9.23574 111.912 9.45896 110.117 11.6912 107.884C16.207 103.369 20.6444 98.9321 22.5494 97.0271C25.8122 93.7643 22.5465 87.4861 22.5465 87.4861C22.5465 87.4861 21.968 89.7965 19.8595 91.906Z" fill="black"/>
</g>
<defs>
<clipPath id="clip0_8008_439">
<rect width="200" height="50.7042" fill="white" transform="translate(0 75)"/>
</clipPath>
</defs>
</svg>
