<svg width="200" height="200" viewBox="0 0 200 200" fill="none" xmlns="http://www.w3.org/2000/svg">
<mask id="mask0_891_1934" style="mask-type:luminance" maskUnits="userSpaceOnUse" x="15" y="5" width="170" height="190">
<path d="M184.52 5H15.4492V195H184.52V5Z" fill="white"/>
</mask>
<g mask="url(#mask0_891_1934)">
<path d="M15.4492 69.4832C15.4492 54.3148 15.4492 46.7304 18.4013 40.9367C20.9979 35.8404 25.1412 31.6971 30.2375 29.1004C36.0311 26.1484 43.6154 26.1484 58.784 26.1484H140.965C156.134 26.1484 163.718 26.1484 169.511 29.1004C174.608 31.6971 178.75 35.8404 181.347 40.9367C184.3 46.7304 184.3 54.3148 184.3 69.4832V151.664C184.3 166.833 184.3 174.417 181.347 180.21C178.75 185.307 174.608 189.45 169.511 192.046C163.718 194.999 156.134 194.999 140.965 194.999H58.784C43.6154 194.999 36.0311 194.999 30.2375 192.046C25.1412 189.45 20.9979 185.307 18.4013 180.21C15.4492 174.417 15.4492 166.833 15.4492 151.664V69.4832Z" fill="#177CFF"/>
<path d="M119.364 60.5367C105.466 60.5367 94.1997 49.2705 94.1997 35.3729C94.1997 21.4752 105.466 10.209 119.364 10.209C133.261 10.209 144.528 21.4752 144.528 35.3729C144.528 49.2705 133.261 60.5367 119.364 60.5367Z" fill="white" stroke="black" stroke-width="3.3655" stroke-miterlimit="10"/>
<path d="M119.378 20.8691C127.626 20.8691 134.312 27.3671 134.312 35.3828C134.312 43.3985 127.626 49.8965 119.378 49.8965C111.13 49.8965 104.444 43.3985 104.444 35.3828C104.444 27.3671 111.13 20.8691 119.378 20.8691Z" fill="black"/>
<path d="M131.693 43.9212C127.662 43.0604 125.094 39.0955 125.954 35.0652C126.815 31.0349 130.78 28.4655 134.81 29.3263C138.841 30.1871 141.409 34.152 140.549 38.1823C139.688 42.2125 135.723 44.7819 131.693 43.9212Z" fill="white"/>
<path d="M120.688 35.0407C118.873 34.6531 117.716 32.868 118.104 31.0533C118.492 29.2387 120.277 28.0818 122.091 28.4693C123.906 28.8569 125.063 30.6422 124.675 32.4568C124.288 34.2714 122.502 35.4283 120.688 35.0407Z" fill="white"/>
<path d="M75.8854 60.7573C61.9879 60.7573 50.7217 49.491 50.7217 35.5936C50.7217 21.6959 61.9879 10.4297 75.8854 10.4297C89.7833 10.4297 101.05 21.6959 101.05 35.5936C101.05 49.491 89.7833 60.7573 75.8854 60.7573Z" fill="white" stroke="black" stroke-width="3.3655" stroke-miterlimit="10"/>
<path d="M75.8991 21.0859C84.1471 21.0859 90.8336 27.5839 90.8336 35.5997C90.8336 43.6154 84.1471 50.1132 75.8991 50.1132C67.6511 50.1132 60.9646 43.6154 60.9646 35.5997C60.9646 27.5839 67.6511 21.0859 75.8991 21.0859Z" fill="black"/>
<path d="M86.5422 42.6692C82.5116 41.8084 79.9423 37.8435 80.8032 33.8132C81.6638 29.7829 85.6288 27.2136 89.659 28.0743C93.6897 28.9351 96.2585 32.9 95.3982 36.9304C94.5371 40.9606 90.5724 43.53 86.5422 42.6692Z" fill="white"/>
<path d="M75.5378 33.7849C73.7231 33.3973 72.5663 31.6121 72.9537 29.7975C73.3415 27.9828 75.1266 26.8259 76.9412 27.2135C78.7559 27.6011 79.9127 29.3863 79.5253 31.2009C79.1375 33.0155 77.3525 34.1724 75.5378 33.7849Z" fill="white"/>
<path d="M138.7 7.17773C149.751 9.27535 157.64 21.5171 153.462 31.4035" stroke="black" stroke-width="3.3655" stroke-linecap="round"/>
<path d="M55.1146 6.74414C44.0635 8.84175 36.1745 21.0835 40.3525 30.97" stroke="black" stroke-width="3.3655" stroke-linecap="round"/>
<path d="M68.2039 58.0371C76.9652 65.7782 100.235 75.9964 125.289 61.2921" stroke="#FA6959" stroke-width="14.1951" stroke-linecap="round"/>
<path d="M68.2039 58.0371C76.9652 65.7782 100.235 75.9964 125.289 61.2921" stroke="black" stroke-width="2.02788" stroke-linecap="round"/>
</g>
</svg>
