<svg width="223" height="250" viewBox="0 0 223 250" fill="none" xmlns="http://www.w3.org/2000/svg">
<mask id="mask0_764_22" style="mask-type:luminance" maskUnits="userSpaceOnUse" x="0" y="0" width="223" height="250">
<path d="M222.462 0H0V250H222.462V0Z" fill="white"/>
</mask>
<g mask="url(#mask0_764_22)">
<path d="M0 84.8485C0 64.8901 0 54.9106 3.88422 47.2873C7.30086 40.5817 12.7526 35.13 19.4582 31.7133C27.0814 27.8291 37.0607 27.8291 57.0194 27.8291H165.152C185.111 27.8291 195.09 27.8291 202.713 31.7133C209.419 35.13 214.87 40.5817 218.287 47.2873C222.172 54.9106 222.172 64.8901 222.172 84.8485V192.981C222.172 212.94 222.172 222.919 218.287 230.542C214.87 237.248 209.419 242.7 202.713 246.116C195.09 250.001 185.111 250.001 165.152 250.001H57.0194C37.0607 250.001 27.0814 250.001 19.4582 246.116C12.7526 242.7 7.30086 237.248 3.88422 230.542C0 222.919 0 212.94 0 192.981V84.8485Z" fill="#177CFF"/>
<path d="M136.73 73.0752C118.443 73.0752 103.619 58.2512 103.619 39.9649C103.619 21.6785 118.443 6.85449 136.73 6.85449C155.016 6.85449 169.84 21.6785 169.84 39.9649C169.84 58.2512 155.016 73.0752 136.73 73.0752Z" fill="white" stroke="black" stroke-width="4.42829" stroke-miterlimit="10"/>
<path d="M136.748 20.8809C147.601 20.8809 156.399 29.4309 156.399 39.9778C156.399 50.5248 147.601 59.0748 136.748 59.0748C125.896 59.0748 117.098 50.5248 117.098 39.9778C117.098 29.4309 125.896 20.8809 136.748 20.8809Z" fill="black"/>
<path d="M152.952 51.2124C147.649 50.0798 144.269 44.8628 145.401 39.5598C146.534 34.2568 151.751 30.876 157.054 32.0086C162.357 33.1412 165.737 38.3582 164.605 43.6612C163.472 48.9642 158.255 52.3449 152.952 51.2124Z" fill="white"/>
<path d="M138.472 39.5272C136.084 39.0172 134.562 36.6683 135.072 34.2806C135.582 31.8929 137.931 30.3707 140.318 30.8806C142.706 31.3906 144.228 33.7396 143.718 36.1273C143.209 38.5149 140.859 40.0371 138.472 39.5272Z" fill="white"/>
<path d="M79.5212 73.3621C61.2351 73.3621 46.4111 58.5381 46.4111 40.252C46.4111 21.9656 61.2351 7.1416 79.5212 7.1416C97.8079 7.1416 112.632 21.9656 112.632 40.252C112.632 58.5381 97.8079 73.3621 79.5212 73.3621Z" fill="white" stroke="black" stroke-width="4.42829" stroke-miterlimit="10"/>
<path d="M79.5393 21.1689C90.3919 21.1689 99.19 29.7189 99.19 40.2659C99.19 50.8129 90.3919 59.3627 79.5393 59.3627C68.6867 59.3627 59.8887 50.8129 59.8887 40.2659C59.8887 29.7189 68.6867 21.1689 79.5393 21.1689Z" fill="black"/>
<path d="M93.5434 49.562C88.2399 48.4294 84.8593 43.2124 85.9921 37.9094C87.1244 32.6064 92.3415 29.2257 97.6444 30.3582C102.948 31.4908 106.328 36.7078 105.196 42.0109C104.063 47.3138 98.8463 50.6946 93.5434 49.562Z" fill="white"/>
<path d="M79.0639 37.8768C76.6762 37.3669 75.154 35.0179 75.6638 32.6302C76.174 30.2425 78.5228 28.7203 80.9105 29.2302C83.2982 29.7402 84.8204 32.0892 84.3106 34.4768C83.8004 36.8645 81.4516 38.3867 79.0639 37.8768Z" fill="white"/>
<path d="M162.172 2.86523C176.713 5.62525 187.093 21.7328 181.596 34.7413" stroke="black" stroke-width="4.42829" stroke-linecap="round"/>
<path d="M52.1913 2.29492C37.6504 5.05493 27.2701 21.1625 32.7675 34.171" stroke="black" stroke-width="4.42829" stroke-linecap="round"/>
<path d="M69.4141 69.7852C80.9421 79.9709 111.56 93.4158 144.526 74.0681" stroke="#FA6959" stroke-width="18.6778" stroke-linecap="round"/>
<path d="M69.4141 69.7852C80.9421 79.9709 111.56 93.4158 144.526 74.0681" stroke="black" stroke-width="2.66826" stroke-linecap="round"/>
</g>
</svg>
