<svg width="200" height="200" viewBox="0 0 200 200" fill="none" xmlns="http://www.w3.org/2000/svg">
<g clip-path="url(#clip0_6596_854)">
<path d="M25.3147 120.368H24.3671L19.6291 100.603H10.6945V124.564H15.2971V104.8H16.2447L20.9828 124.564H28.8344L33.5725 104.8H34.5201V124.564H39.1228V100.603H30.1882L25.3147 120.368ZM72.2892 124.564H88.6693V120.368H77.0272V114.411H87.0448V110.35H77.0272V104.8H88.6693V100.603H72.2892V124.564ZM55.7737 121.044C50.4941 121.044 48.0574 117.389 48.0574 112.516C48.0574 107.643 50.4941 104.123 55.7737 104.123C61.0532 104.123 63.4899 107.778 63.4899 112.516C63.4899 117.254 61.0532 121.044 55.7737 121.044ZM55.7737 99.9263C47.7866 99.9263 43.184 105.07 43.184 112.516C43.184 119.961 47.7866 125.241 55.7737 125.241C63.7607 125.241 68.3633 119.961 68.3633 112.516C68.3633 105.07 63.7607 99.9263 55.7737 99.9263ZM91.9182 124.564H96.927L102.477 115.088L108.569 124.564H113.578L105.591 111.974L113.172 100.603H108.028L102.748 109.132L97.4685 100.603H92.3243L99.6345 111.839L91.9182 124.564Z" fill="white"/>
<path d="M0 134.04V90.8562H43.184V65H112.224V134.04H0Z" fill="#FF0508"/>
<path d="M23.4195 120.368H22.4719L18.0046 100.468H9.88223V124.564H14.2142V104.8H15.1618L19.3583 124.564H26.6685L31.0004 104.664H31.948V124.564H36.28V100.603H28.0222L23.4195 120.368ZM67.0096 124.564H82.036V120.368H71.3416V114.411H80.5469V110.35H71.3416V104.664H82.036V100.468H67.0096V124.564ZM51.5771 121.044C46.7037 121.044 44.4023 117.389 44.4023 112.651C44.4023 107.913 46.7037 104.258 51.5771 104.258C56.4505 104.258 58.7519 107.913 58.7519 112.651C58.7519 117.389 56.4505 121.044 51.5771 121.044ZM51.5771 99.9263C44.267 99.9263 39.935 104.935 39.935 112.516C39.935 120.097 44.267 125.241 51.5771 125.241C58.8872 125.241 63.2192 119.961 63.2192 112.516C63.2192 105.07 58.8872 99.9263 51.5771 99.9263ZM85.0142 124.564H89.6169L94.8965 115.088L100.447 124.564H105.049L97.6039 111.974L104.643 100.468H100.041L95.1672 108.996L90.1584 100.468H85.5557L92.3244 111.839L85.0142 124.564Z" fill="white"/>
<path d="M132.395 100.603V110.756H130.5V102.769L128.063 110.756H125.897L123.325 102.634V110.756H121.43V100.603H124.408L126.98 108.59L129.417 100.603H132.395ZM139.028 100.468C141.871 100.468 143.901 102.498 143.901 105.747C143.901 108.996 141.871 111.027 139.028 111.027C136.185 111.027 134.155 108.996 134.155 105.747C134.155 102.498 136.185 100.332 139.028 100.468ZM139.028 109.132C140.788 109.132 141.871 107.778 141.871 105.612C141.871 103.446 140.788 102.092 139.028 102.092H138.893C137.133 102.092 136.05 103.446 136.05 105.612C136.05 107.778 137.133 109.132 138.893 109.132H139.028ZM146.744 107.372C146.88 108.455 147.557 109.132 149.046 109.132H149.181C150.264 109.132 150.805 108.59 150.805 107.913C150.805 107.236 150.535 106.966 149.722 106.83L147.963 106.424C146.203 106.018 145.391 105.07 145.391 103.446C145.391 101.957 146.88 100.332 149.181 100.332C151.618 100.332 152.971 101.686 152.971 103.717H151.076C151.076 102.634 150.264 102.092 149.181 102.092H149.046C147.963 102.092 147.286 102.634 147.286 103.311C147.286 103.987 147.692 104.258 148.504 104.529L149.993 104.8C151.753 105.206 152.701 106.153 152.701 107.778C152.701 109.538 151.212 110.891 148.91 110.891C146.203 110.891 144.984 109.538 144.849 107.372H146.744ZM158.928 100.468C161.5 100.468 162.989 101.957 163.124 103.987H161.229C160.958 102.904 160.282 102.228 159.063 102.228H158.928C157.303 102.228 156.085 103.581 156.085 105.747C156.085 107.913 157.168 109.267 158.928 109.267H159.063C160.282 109.267 161.094 108.59 161.229 107.507H163.124C162.989 109.538 161.5 111.027 158.928 111.027C155.95 111.027 154.054 108.861 154.19 105.747C154.19 102.498 155.95 100.332 158.928 100.468ZM169.216 100.468C172.059 100.468 174.09 102.498 174.09 105.747C174.09 108.996 172.059 111.027 169.216 111.027C166.373 111.027 164.343 108.996 164.343 105.747C164.207 102.498 166.373 100.332 169.216 100.468ZM169.216 109.132C170.976 109.132 172.059 107.778 172.059 105.612C172.059 103.446 170.976 102.092 169.216 102.092H169.081C167.321 102.092 166.238 103.446 166.238 105.612C166.238 107.778 167.321 109.132 169.081 109.132H169.216ZM187.762 100.603L185.326 110.756H182.753L181.264 103.311L179.775 110.756H177.339L174.902 100.603H176.932L178.692 108.726L180.317 100.603H182.618L184.243 108.726L186.002 100.603H187.762ZM121.43 114.411H129.01V116.171H123.325V118.472H128.063V120.232H123.325V122.804H129.146V124.564H121.43V114.411ZM136.591 124.564L134.29 121.044L131.853 124.564H129.687L133.207 119.285L129.958 114.411H132.259L134.425 117.66L136.591 114.411H138.757L135.508 119.285L139.028 124.564H136.591ZM143.766 114.14C146.338 114.14 147.827 115.63 147.963 117.66H146.067C145.797 116.577 145.12 115.9 143.901 115.9H143.766C142.142 115.9 140.923 117.254 140.923 119.42C140.923 121.586 142.006 122.94 143.766 122.94H143.901C145.12 122.94 145.932 122.263 146.067 121.18H147.963C147.827 123.21 146.338 124.7 143.766 124.7C140.788 124.7 139.028 122.534 139.028 119.42C139.028 116.306 140.788 114.14 143.766 114.14ZM149.722 114.411H151.618V118.608H155.95V114.411H157.845V124.564H155.95V120.368H151.618V124.564H149.722V114.411ZM166.238 122.127H162.041L161.094 124.564H159.063L162.989 114.411H165.29L169.216 124.564H167.186L166.238 122.127ZM165.561 120.368L164.072 116.442L162.583 120.368H165.561ZM178.828 114.411V124.564H176.391L172.465 116.983V124.564H170.57V114.411H173.007L176.932 121.857V114.411H178.828ZM185.596 114.14C188.168 114.14 189.793 115.63 189.928 117.796H188.033C187.898 116.577 187.085 115.9 185.732 115.9H185.461C183.566 115.9 182.483 117.254 182.483 119.42C182.483 121.586 183.566 122.94 185.461 122.94H185.596C186.815 122.94 187.898 122.263 188.304 121.044V120.909H185.596V119.149H189.928V124.564H188.304V123.617C187.627 124.293 186.679 124.7 185.461 124.7C182.618 124.7 180.588 122.398 180.723 119.42C180.588 116.442 182.618 114.14 185.596 114.14ZM191.823 114.411H199.404V116.171H193.719V118.472H198.457V120.232H193.719V122.804H199.54V124.564H191.823V114.411Z" fill="#FF0508"/>
</g>
<defs>
<clipPath id="clip0_6596_854">
<rect width="200" height="69.8795" fill="white" transform="translate(0 65)"/>
</clipPath>
</defs>
</svg>
