<svg width="200" height="200" viewBox="0 0 200 200" fill="none" xmlns="http://www.w3.org/2000/svg">
<path fill-rule="evenodd" clip-rule="evenodd" d="M46.857 94.2751L50.1561 108.667H50.2078L53.4555 94.2751H58.9699V112.54H55.4189V97.2696H55.3931L51.9708 112.54H48.2176L44.8927 97.2696H44.842V112.54H41.2932V94.2751H46.857Z" fill="#12438F"/>
<path fill-rule="evenodd" clip-rule="evenodd" d="M70.52 109.795C72.5848 109.795 75.4811 108.51 75.4811 103.404C75.4811 98.2955 72.5848 97.0125 70.52 97.0125C68.4541 97.0125 65.5584 98.2955 65.5584 103.404C65.5584 108.51 68.4541 109.795 70.52 109.795ZM70.5207 93.7937C72.9381 93.7937 79.2846 94.8487 79.2846 103.406C79.2846 111.96 72.9381 113.017 70.5207 113.017C68.1035 113.017 61.7566 111.96 61.7566 103.406C61.7566 94.8487 68.1035 93.7937 70.5207 93.7937Z" fill="#12438F"/>
<path fill-rule="evenodd" clip-rule="evenodd" d="M93.8659 100.264C93.5623 99.1592 92.957 97.0192 89.8102 97.0192C87.9731 97.0192 85.2015 98.3288 85.2015 103.486C85.2015 106.756 86.5882 109.802 89.8102 109.802C91.9254 109.802 93.4125 108.517 93.8659 106.279H97.6678C96.9109 110.252 94.3171 113.022 89.7346 113.022C84.8739 113.022 81.401 109.724 81.401 103.436C81.401 97.0471 85.0767 93.7988 89.7859 93.7988C95.2507 93.7988 97.466 97.5728 97.6678 100.264H93.8659Z" fill="#12438F"/>
<path fill-rule="evenodd" clip-rule="evenodd" d="M108.375 109.795C110.44 109.795 113.335 108.51 113.335 103.404C113.335 98.2955 110.44 97.0125 108.375 97.0125C106.309 97.0125 103.413 98.2955 103.413 103.404C103.413 108.51 106.309 109.795 108.375 109.795ZM108.375 93.7937C110.793 93.7937 117.138 94.8487 117.138 103.406C117.138 111.96 110.793 113.017 108.375 113.017C105.958 113.017 99.6112 111.96 99.6112 103.406C99.6112 94.8487 105.958 93.7937 108.375 93.7937Z" fill="#12438F"/>
<path fill-rule="evenodd" clip-rule="evenodd" d="M123.683 109.399H127.989C129.83 109.399 130.885 108.268 130.885 106.757C130.885 105.147 129.703 104.34 127.989 104.34H123.683V109.399ZM133.329 94.2788V97.4236H123.684V101.196H128.443C131.969 101.196 134.688 103.337 134.688 106.959C134.688 110.557 132.044 112.543 128.393 112.543H119.881V94.2788H133.329Z" fill="#12438F"/>
<path fill-rule="evenodd" clip-rule="evenodd" d="M166.782 94.2751V97.4199H158.81V112.54H155.007V94.2751H166.782Z" fill="#12438F"/>
<path fill-rule="evenodd" clip-rule="evenodd" d="M175.174 98.4034H175.226L177.72 105.627H172.833L175.174 98.4034ZM173.035 94.28L166.537 112.546H170.541L171.826 108.772H178.548L179.733 112.546H183.861L177.441 94.28H173.035Z" fill="#12438F"/>
<path fill-rule="evenodd" clip-rule="evenodd" d="M146.385 94.2751H141.978L135.482 112.541H139.484L144.12 98.4032H144.17L148.676 112.541H152.805L146.385 94.2751Z" fill="#12438F"/>
<path fill-rule="evenodd" clip-rule="evenodd" d="M184.57 99.7107C184.77 96.6934 187.011 93.7988 191.695 93.7988C196.758 93.7988 198.671 96.592 198.671 98.6278C198.671 100.944 197.386 102.328 195.522 102.857C197.512 103.208 199.35 104.817 199.35 107.662C199.35 110.48 197.084 113.022 191.948 113.022C185.703 113.022 184.293 109.876 184.293 106.907H187.868C187.868 108.517 188.573 109.876 191.82 109.876C194.112 109.876 195.548 108.869 195.548 107.258C195.548 105.422 194.037 104.493 192.199 104.493H190.437V101.422H192.099C193.913 101.422 195.019 100.542 195.019 99.0579C195.019 97.6745 193.786 96.9458 191.771 96.9458C189.229 96.9458 188.298 97.9746 188.144 99.7107H184.57Z" fill="#12438F"/>
<path fill-rule="evenodd" clip-rule="evenodd" d="M11.2256 119.727H11.2748L13.6521 112.522H8.99321L11.2256 119.727ZM9.1863 123.842L2.99097 105.622H6.80868L8.03252 109.386H14.4418L15.5706 105.622H19.5058L13.386 123.842H9.1863Z" fill="#12438F"/>
<path fill-rule="evenodd" clip-rule="evenodd" d="M22.7139 95.9016C22.7139 86.8624 13.7675 77.8908 8.60642 77.1772C8.93271 78.1316 9.15854 79.3427 9.15854 80.9094C9.15854 85.8145 0 88.9579 0 96.9047C0 99.33 0.870892 103.488 3.58709 105.537C4.47472 102.37 7.61492 100.03 11.3513 100.03C15.0894 100.03 18.2286 102.37 19.1155 105.537C20.0395 104.841 22.7139 101.948 22.7139 95.9016Z" fill="#12438F"/>
<path fill-rule="evenodd" clip-rule="evenodd" d="M11.351 99.9555C14.4386 99.9555 16.9907 101.905 17.5679 102.468C18.8695 101.199 19.6622 99.5268 19.6622 97.696C19.6622 95.6877 18.7101 93.8721 17.177 92.5684C16.5835 92.0611 15.8989 91.6309 15.1493 91.2964C15.1493 91.2964 12.2038 89.8377 11.3155 88.6233C10.5563 89.7087 9.3786 90.4488 7.77245 91.1447C7.77245 91.1447 6.13862 92.0369 5.47445 92.6117C3.97045 93.9132 3.0408 95.7106 3.0408 97.696C3.0408 99.5434 3.8478 101.229 5.16935 102.502C5.63194 102.043 8.26375 99.9555 11.351 99.9555Z" fill="#00A4D2"/>
</svg>
