<svg width="200" height="200" viewBox="0 0 200 200" fill="none" xmlns="http://www.w3.org/2000/svg">
<g clip-path="url(#clip0_8003_67)">
<path fill-rule="evenodd" clip-rule="evenodd" d="M0 78H10.1212C10.4674 78.8273 10.7809 79.6692 11.1125 80.5002C14.8957 90.1075 18.6752 99.7185 22.462 109.326C23.621 106.337 24.7617 103.338 25.9134 100.345C28.4027 93.8615 30.892 87.3813 33.3777 80.8975C33.7531 79.9317 34.1139 78.9622 34.4966 78H55.2273C55.6501 78.0364 56.0765 78.0255 56.503 78.062C58.9121 78.2187 61.3103 78.7836 63.4679 79.8843C64.6269 80.4601 65.6984 81.1964 66.6861 82.031C67.8014 82.9458 68.7891 84.021 69.5472 85.2528C70.3708 86.5795 70.9066 88.0811 71.1289 89.6301C71.3695 91.3576 71.2966 93.1399 70.8483 94.8273C70.5021 96.1248 69.9226 97.3567 69.1499 98.4538C68.3335 99.62 67.3203 100.633 66.1977 101.504C65.0387 102.408 63.7522 103.148 62.3927 103.706C60.9531 104.3 59.4296 104.672 57.8916 104.883C59.7977 104.883 61.7039 104.883 63.6064 104.883C66.7189 110.405 69.8351 115.926 72.944 121.448C69.4451 121.448 65.9462 121.448 62.4474 121.448C59.4077 115.988 56.3681 110.525 53.3321 105.062C50.4601 105.062 47.5882 105.062 44.7162 105.062C44.7162 110.525 44.7162 115.985 44.7162 121.448C41.549 121.448 38.3854 121.448 35.2182 121.448C35.2182 108.593 35.2182 95.7349 35.2182 82.8802C35.1745 82.9859 35.1308 83.0952 35.0907 83.2009C30.2943 95.9499 25.4979 108.695 20.7016 121.444C19.7431 121.444 18.7845 121.444 17.826 121.444C12.7344 108.531 7.65011 95.6146 2.56219 82.6943C2.56219 95.6146 2.56219 108.531 2.56219 121.451C1.70934 121.451 0.852847 121.451 0 121.451C0 106.968 0 92.4838 0 78ZM44.7125 80.1613C44.7125 87.7458 44.7125 95.3303 44.7125 102.911C47.1472 102.911 49.5818 102.911 52.0164 102.911C52.5813 102.897 53.1462 102.82 53.6966 102.685C55.0597 102.354 56.3134 101.61 57.2756 100.593C58.2269 99.6018 58.9157 98.3809 59.3822 97.0943C59.9872 95.4323 60.2387 93.6574 60.2752 91.8934C60.3007 90.0055 60.0929 88.0957 59.4916 86.2952C59.036 84.9321 58.3472 83.6346 57.3667 82.5777C56.4374 81.5681 55.231 80.8064 53.9043 80.4456C53.1244 80.2232 52.3116 80.1503 51.5025 80.1576H44.7125V80.1613ZM89.6292 89.3494C90.8939 88.9558 92.2169 88.7809 93.5399 88.7699C94.9831 88.759 96.441 88.9121 97.8077 89.3895C98.7335 89.7103 99.5973 90.2096 100.312 90.8838C101.055 91.5727 101.627 92.462 101.868 93.4533C101.959 93.8323 102.01 94.226 102.006 94.6159C101.711 94.6159 101.42 94.6159 101.124 94.6159C101.128 93.9964 101.011 93.3731 100.749 92.8118C100.545 92.3745 100.253 91.9845 99.9107 91.6492C98.9923 90.7891 97.8223 90.1986 96.5795 89.9945C95.333 89.7904 94.0428 89.8087 92.8109 90.0856C91.5353 90.3736 90.3253 90.9968 89.3959 91.9226C88.4374 92.8629 87.7813 94.0692 87.3622 95.3339C86.841 96.9339 86.6661 98.6251 86.677 100.302C86.6879 101.712 86.8337 103.13 87.231 104.486C87.5991 105.75 88.2005 106.949 89.0278 107.974C89.6547 108.754 90.4529 109.421 91.3968 109.774C92.2023 110.08 93.077 110.171 93.9298 110.12C95.0159 110.055 96.1166 109.727 96.9768 109.038C97.5964 108.546 98.0665 107.864 98.2925 107.103C98.369 106.913 98.3289 106.705 98.3399 106.508C98.3472 105.922 98.3253 105.335 98.3289 104.748C98.3289 103.647 98.3435 102.547 98.3399 101.446C99.918 101.446 101.496 101.446 103.074 101.446C103.074 104.529 103.074 107.613 103.074 110.692C102.826 110.692 102.579 110.692 102.331 110.692C101.511 109.931 100.683 109.18 99.8633 108.422C99.2292 109.253 98.3143 109.829 97.3522 110.211C96.2114 110.663 94.9831 110.867 93.7622 110.904C92.4027 110.937 91.0323 110.78 89.7312 110.39C87.4205 109.708 85.3686 108.24 83.918 106.326C83.0579 105.189 82.4456 103.866 82.1285 102.474C81.9353 101.617 81.8369 100.743 81.8442 99.8679C81.8223 98.246 82.1431 96.6096 82.8465 95.1444C83.5025 93.7704 84.4793 92.5604 85.631 91.569C86.79 90.5667 88.1604 89.8087 89.6255 89.3567L89.6292 89.3494ZM139.608 88.8027C141.42 88.6825 143.275 88.8647 144.988 89.4916C146.292 89.9654 147.499 90.7052 148.523 91.6419C149.598 92.615 150.506 93.7813 151.114 95.097C151.807 96.5658 152.109 98.1986 152.106 99.8205C152.109 101.559 151.749 103.312 150.947 104.861C150.258 106.202 149.263 107.376 148.104 108.338C146.978 109.267 145.658 109.964 144.255 110.364C143.271 110.649 142.251 110.798 141.226 110.838C139.422 110.911 137.593 110.671 135.916 109.982C134.542 109.424 133.292 108.568 132.261 107.503C131.178 106.425 130.325 105.113 129.808 103.673C129.195 101.971 129.05 100.127 129.25 98.3371C129.44 96.6569 130.034 95.0241 130.996 93.6319C131.831 92.4328 132.891 91.3868 134.116 90.585C135.745 89.5098 137.669 88.9303 139.608 88.8027ZM140.005 89.6811C139.222 89.7649 138.456 90.031 137.797 90.4647C137.137 90.8948 136.579 91.4706 136.124 92.1157C135.238 93.3804 134.721 94.8674 134.44 96.3763C134.119 98.1294 134.079 99.9298 134.229 101.705C134.396 103.549 134.841 105.4 135.796 107.004C136.441 108.076 137.349 109.034 138.508 109.541C139.408 109.942 140.417 110.047 141.39 109.923C142.159 109.821 142.903 109.541 143.541 109.103C144.109 108.721 144.59 108.225 144.995 107.675C145.494 106.986 145.903 106.235 146.209 105.441C146.857 103.757 147.087 101.938 147.12 100.141C147.134 99.0697 147.08 97.9982 146.919 96.9376C146.682 95.3376 146.187 93.7485 145.298 92.3854C144.674 91.4014 143.814 90.5339 142.732 90.0674C141.879 89.692 140.928 89.5827 140.005 89.6811ZM107.681 89.0214C110.987 89.0214 114.296 89.0214 117.602 89.0214C119.158 89.0214 120.736 89.3494 122.096 90.1257C122.715 90.472 123.277 90.9093 123.794 91.3904C124.272 91.846 124.683 92.3708 124.993 92.9503C125.354 93.6246 125.565 94.3754 125.635 95.1335C125.726 96.1103 125.616 97.1125 125.252 98.0237C124.822 99.1317 124.024 100.065 123.083 100.779C122.416 101.289 121.669 101.694 120.878 101.974C120.277 102.182 119.657 102.35 119.023 102.405C119.468 102.441 119.916 102.415 120.364 102.423H121.844C123.397 105.178 124.953 107.93 126.502 110.689C124.756 110.689 123.01 110.689 121.265 110.689C119.749 107.966 118.236 105.244 116.72 102.521C115.287 102.521 113.859 102.521 112.426 102.521C112.426 105.244 112.426 107.966 112.426 110.689C110.845 110.689 109.263 110.689 107.681 110.689C107.681 103.465 107.681 96.2415 107.681 89.0178V89.0214ZM112.426 90.1002C112.426 93.8797 112.426 97.6592 112.426 101.439C113.564 101.439 114.701 101.439 115.838 101.439C116.25 101.439 116.662 101.395 117.059 101.278C117.952 101.02 118.71 100.396 119.205 99.6164C119.661 98.9093 119.923 98.0966 120.062 97.2729C120.204 96.4055 120.219 95.5198 120.12 94.6451C120.022 93.8323 119.814 93.0269 119.435 92.2979C119.107 91.6711 118.648 91.1062 118.057 90.7125C117.434 90.2898 116.672 90.0784 115.922 90.0929C114.759 90.0929 113.596 90.0929 112.43 90.0929L112.426 90.1002ZM156.049 89.0105C157.631 89.0105 159.213 89.0105 160.795 89.0105V102.182C160.773 103.082 160.849 103.99 161.082 104.865C161.421 106.155 162.15 107.361 163.226 108.163C164.406 109.052 165.908 109.421 167.369 109.399C168.853 109.41 170.376 108.987 171.528 108.025C171.914 107.704 172.257 107.328 172.545 106.913C172.538 102.496 172.545 98.0747 172.545 93.6574C172.545 92.1121 172.538 90.5667 172.556 89.0214C174.134 89.0214 175.712 89.0214 177.29 89.0214C177.29 96.2451 177.29 103.469 177.29 110.692C177.042 110.692 176.791 110.692 176.543 110.692C175.395 109.65 174.265 108.59 173.113 107.551C172.297 108.757 171.083 109.672 169.724 110.182C168.098 110.802 166.323 110.908 164.603 110.769C163.036 110.634 161.483 110.197 160.135 109.377C158.914 108.637 157.85 107.616 157.132 106.377C156.676 105.59 156.37 104.719 156.206 103.826C156.06 103.046 156.038 102.251 156.049 101.461V89.0105ZM182.014 89.0105C184.966 89.0105 187.922 89.0105 190.874 89.0105C191.526 89.0105 192.182 88.9959 192.835 89.0542C194.271 89.1708 195.692 89.6009 196.895 90.3991C197.912 91.0806 198.841 91.9517 199.391 93.0597C199.759 93.785 199.949 94.5941 200 95.4068V96.1175C199.953 96.9886 199.734 97.8524 199.318 98.6214C198.677 99.8132 197.635 100.75 196.465 101.413C195.098 102.182 193.513 102.514 191.953 102.518C190.221 102.518 188.49 102.518 186.759 102.518C186.759 105.24 186.759 107.963 186.759 110.685C185.177 110.685 183.595 110.685 182.014 110.685C182.014 103.462 182.014 96.2378 182.014 89.0141V89.0105ZM186.759 90.0929V101.431C187.758 101.431 188.753 101.431 189.755 101.431C190.116 101.424 190.48 101.453 190.837 101.399C191.617 101.297 192.361 100.936 192.918 100.382C193.352 99.9663 193.68 99.456 193.924 98.9093C194.289 98.0856 194.46 97.1891 194.508 96.2961C194.544 95.5344 194.508 94.7654 194.358 94.0146C194.205 93.2456 193.935 92.4875 193.494 91.8351C193.155 91.3285 192.711 90.8875 192.182 90.585C191.617 90.2569 190.965 90.0966 190.313 90.0893C189.128 90.0893 187.94 90.0893 186.755 90.0893L186.759 90.0929Z" fill="black"/>
</g>
<defs>
<clipPath id="clip0_8003_67">
<rect width="200" height="43.4515" fill="white" transform="translate(0 78)"/>
</clipPath>
</defs>
</svg>
