<svg width="200" height="200" viewBox="0 0 200 200" fill="none" xmlns="http://www.w3.org/2000/svg">
<g clip-path="url(#clip0_1008_2)">
<path d="M198.958 1.04102H1.04175V198.958H198.958V1.04102Z" fill="white"/>
<path d="M198.958 1.04102H1.04175V198.958H198.958V1.04102Z" stroke="#FF0032" stroke-width="6"/>
<path d="M16.8973 160.003V163.923H15.6472V158.854H17.7967L19.0607 162.642L20.3247 158.854H22.3943V163.923H21.0331V159.993L19.717 163.923H18.2238L16.9077 160.003H16.8973Z" fill="#FF0032"/>
<path d="M23.0505 159.961V158.854H28.5302V159.961H26.471V163.927H25.0993V159.961H23.0505Z" fill="#FF0032"/>
<path d="M23.1547 169.094L21.9255 174.164H20.1441L19.1474 170.389L18.1161 174.164H16.4007L15.2166 169.094H16.5882L17.4529 172.893L18.4842 169.094H20.0329L21.0191 172.893L21.9255 169.094H23.1547Z" fill="#FF0032"/>
<path d="M28.3913 169.094V170.146H25.1341V171.077H27.6031V172.084H25.1341V173.115H28.4122V174.167H23.7625V169.097H28.3913V169.094Z" fill="#FF0032"/>
<path d="M33.0307 172.53C33.0307 172.196 32.798 171.999 32.3535 171.999H30.5929V173.273H32.3535C32.7841 173.273 33.0307 173.085 33.0307 172.721V172.533V172.53ZM32.8744 170.491C32.8744 170.182 32.6765 170.005 32.2667 170.005H30.5929V171.158H32.2667C32.666 171.158 32.8744 170.981 32.8744 170.637V170.495V170.491ZM32.6869 169.109C33.7043 169.109 34.2599 169.519 34.2599 170.339C34.2599 170.825 34.0481 171.28 33.4404 171.492C34.1384 171.669 34.4162 172.113 34.4162 172.7C34.4162 173.662 33.8641 174.183 32.7216 174.183H29.2456V169.113H32.6903L32.6869 169.109Z" fill="#FF0032"/>
<path d="M16.8418 182.815C16.9425 183.381 17.3627 183.503 18.2273 183.503C19.092 183.503 19.5434 183.36 19.5434 182.926C19.5434 181.818 15.5361 183.114 15.5361 180.832C15.5361 179.693 16.5119 179.238 18.1509 179.238C19.79 179.238 20.7206 179.693 20.8074 180.832H19.4219C19.3455 180.356 18.8906 180.245 18.1474 180.245C17.262 180.245 16.873 180.367 16.873 180.811C16.873 181.864 20.8942 180.645 20.8942 182.85C20.8942 184.044 20.0296 184.523 18.2273 184.523C16.4251 184.523 15.5604 184.027 15.4597 182.829H16.8453V182.818L16.8418 182.815Z" fill="#FF0032"/>
<path d="M26.3184 179.328V180.38H23.0646V181.311H25.544V182.318H23.0646V183.349H26.3427V184.401H21.7034V179.332H26.3218L26.3184 179.328Z" fill="#FF0032"/>
<path d="M31.0895 180.901C31.0895 180.557 30.902 180.335 30.4158 180.335H28.5441V181.61H30.4158C30.902 181.61 31.0895 181.387 31.0895 181.044V180.901ZM30.6242 179.328C31.8083 179.328 32.475 179.905 32.475 180.957C32.475 181.742 32.1208 182.252 31.4784 182.495L32.6174 184.398H31.0999L30.0477 182.637H28.5407V184.398H27.1794V179.328H30.6242Z" fill="#FF0032"/>
<path d="M38.8992 179.328L36.7393 184.398H34.878L32.7285 179.328H34.1904L35.8955 183.401L37.6213 179.328H38.8957H38.8992Z" fill="#FF0032"/>
<path d="M40.809 179.328H39.4478V184.398H40.809V179.328Z" fill="#FF0032"/>
<path d="M44.5873 179.227C46.2819 179.227 47.2993 179.713 47.4452 181.088H46.0596C45.9381 180.445 45.438 180.289 44.5873 180.289C43.6671 180.289 43.0246 180.522 43.0246 181.584V182.171C43.0246 183.203 43.6462 183.456 44.5977 183.456C45.4172 183.456 45.9277 183.314 46.07 182.703H47.4556C47.2889 184.008 46.2819 184.508 44.5873 184.508C42.7364 184.508 41.6426 183.866 41.6426 181.873C41.6426 179.879 42.7399 179.227 44.5873 179.227Z" fill="#FF0032"/>
<path d="M31.6764 158.746C33.371 158.746 34.3884 159.232 34.5343 160.607H33.1487C33.0272 159.965 32.5272 159.809 31.6764 159.809C30.7562 159.809 30.1138 160.041 30.1138 161.104V161.691C30.1138 162.722 30.7353 162.976 31.6868 162.976C32.5063 162.976 33.0168 162.833 33.1592 162.222H34.5447C34.378 163.528 33.371 164.028 31.6764 164.028C29.8255 164.028 28.7317 163.385 28.7317 161.392C28.7317 159.399 29.829 158.746 31.6764 158.746Z" fill="#FF0032"/>
<path d="M52.824 179.328V180.38H49.5668V181.311H52.0462V182.318H49.5668V183.349H52.8449V184.401H48.2056V179.332H52.824V179.328Z" fill="#FF0032"/>
<path d="M54.7998 182.815C54.9005 183.381 55.3207 183.503 56.1854 183.503C57.05 183.503 57.5015 183.36 57.5015 182.926C57.5015 181.818 53.4942 183.114 53.4942 180.832C53.4942 179.693 54.47 179.238 56.1055 179.238C57.7411 179.238 58.6752 179.693 58.762 180.832H57.3765C57.3001 180.356 56.8452 180.245 56.102 180.245C55.2165 180.245 54.8276 180.367 54.8276 180.811C54.8276 181.864 58.8488 180.645 58.8488 182.85C58.8488 184.044 57.9841 184.523 56.1819 184.523C54.3797 184.523 53.5115 184.027 53.4143 182.829H54.8103L54.7998 182.818V182.815Z" fill="#FF0032"/>
<path d="M60.9636 15.6016L46.3026 46.0417L31.6312 15.6016H15.6194V61.6333H26.8461V28.693L41.1841 56.5183H51.4142L65.7418 28.693V61.6333H76.9685V15.6016H60.9567H60.9636Z" fill="#FF0032"/>
<path d="M178.786 15.6016L170.272 49.5628L160.316 15.6016H147.117L137.161 49.5628L128.647 15.6016H116.92L128.713 61.6333H143.485L153.715 26.8768L163.959 61.6333H178.72L190.513 15.6016H178.786Z" fill="#FF0032"/>
<path d="M160.816 156.729C153.176 156.177 146.565 155.687 146.565 151.569C146.565 147.127 151.103 146.252 158.955 146.252C165.764 146.252 170.48 147.172 171.313 151.634H184.235C183.339 141.957 175.3 137.449 158.955 137.449C142.61 137.449 134.085 142.154 134.085 151.832C134.085 163.979 147.495 164.92 158.267 165.674C165.931 166.205 172.539 166.671 172.539 171.001C172.539 175.574 167.39 176.515 159.649 176.515C149.53 176.515 147.072 174.324 146.238 170.258H133.317C134.38 180.953 142.033 185.318 159.649 185.318C168.487 185.318 174.776 184.165 178.873 181.797C183.058 179.373 185.096 175.574 185.096 170.192C185.096 158.5 171.629 157.513 160.813 156.725L160.816 156.729Z" fill="#FF0032"/>
</g>
<defs>
<clipPath id="clip0_1008_2">
<rect width="200" height="200" fill="white"/>
</clipPath>
</defs>
</svg>
