<svg width="200" height="200" viewBox="0 0 200 200" fill="none" xmlns="http://www.w3.org/2000/svg">
<g clip-path="url(#clip0_6586_789)">
<path fill-rule="evenodd" clip-rule="evenodd" d="M0 103.887C0 110.337 3.61315 116.841 11.7041 116.841C19.7875 116.841 23.4077 110.337 23.4077 103.887C23.4077 99.4815 21.923 94.4087 19.4452 90.3104C17.0353 86.3535 14.1397 84 11.7041 84C9.26102 84 6.36463 86.3535 3.97567 90.3104C1.48556 94.4087 0 99.4815 0 103.887ZM83.0982 93.6764H74.9053V85.7594H100.068V93.6764H91.876L91.8757 115.081H83.0977L83.0982 93.6764ZM118.791 93.6765H131.666V85.7595H118.792C106.963 85.7595 100.647 91.6532 100.647 100.421C100.647 109.188 106.963 115.082 118.792 115.082H131.666V107.165H118.791C113.317 107.165 109.717 105.204 109.717 100.421C109.717 95.6374 113.317 93.6765 118.791 93.6765ZM52.3701 103.261L57.0498 85.7595H72.5611V115.082H63.7836V91.2163L57.4025 115.082H47.3379L40.9609 91.2312V115.082H32.1829V85.7595H47.6905L52.3701 103.261ZM147.676 94.2588H144.581V97.127H147.676C148.46 97.127 148.927 96.7236 148.927 95.9796V95.4483C148.927 94.6833 148.525 94.2588 147.676 94.2588ZM148.46 100.421H140.446V85.7591H152.234V89.2654H144.581V91.1774H148.46C151.705 91.1774 153.274 92.7923 153.274 95.6395C153.274 98.6356 151.705 100.421 148.46 100.421ZM162.812 94.4284H159.546L161.179 89.0105L162.812 94.4284ZM169.087 100.421L164.571 85.7595H158.423L153.907 100.421H157.766L158.592 97.6156H163.766L164.614 100.421H169.087ZM179.539 100.421V94.7474H174.811V100.421H170.57V85.7595H174.811V91.1352H179.539V85.7595H183.78V100.421H179.539ZM191.307 91.1351H190.565V85.7594H186.323V100.42H190.565V94.7473H191.179L195.102 100.42H200L194.7 92.75L199.576 85.7594H195.102L191.307 91.1351Z" fill="#E30611"/>
</g>
<defs>
<clipPath id="clip0_6586_789">
<rect width="200" height="32.8407" fill="white" transform="translate(0 84)"/>
</clipPath>
</defs>
</svg>
