<svg width="200" height="200" viewBox="0 0 200 200" fill="none" xmlns="http://www.w3.org/2000/svg">
<mask id="mask0_6586_62" style="mask-type:luminance" maskUnits="userSpaceOnUse" x="0" y="59" width="200" height="82">
<path d="M199.865 59H0V140.996H199.865V59Z" fill="white"/>
</mask>
<g mask="url(#mask0_6586_62)">
<path d="M5.98117 102.329C11.2857 102.329 14.075 96.9874 16.5096 89.7588H16.9019C15.9211 96.0038 16.2328 102.329 22.0882 102.329C27.3525 102.329 29.8677 96.947 32.0658 89.7588H32.4581C31.4369 95.8882 31.7111 102.329 37.7224 102.329C42.9865 102.329 45.9318 97.0653 47.0709 89.7964H43.3791C42.9463 91.406 42.1991 92.978 40.826 92.978C37.9588 92.978 39.5308 88.1841 40.7858 82.1756L42.5942 73.4529H33.7561C33.7561 73.4529 29.0803 92.978 25.388 92.978C22.6767 92.978 24.0123 87.6359 25.1516 82.0949L26.9226 73.4529H18.0843C16.4344 79.9344 12.9383 92.978 9.6761 92.978C8.61462 92.978 8.34056 92.3089 8.34056 91.4463C8.34056 90.8954 8.49642 90.307 8.69526 89.7964H0.601424C0.168785 91.5243 -0.067688 93.1742 -0.067688 94.8645C-0.067688 99.1075 1.50432 102.329 5.98117 102.329ZM51.9458 102.329C54.2646 102.329 56.1109 100.521 56.1109 98.2046C56.1109 95.8882 54.2646 94.0798 51.9458 94.0798C49.6267 94.0798 47.7803 95.8855 47.7803 98.2046C47.7803 100.524 49.6267 102.329 51.9458 102.329ZM75.8696 92.9403C75.8696 94.9048 74.4161 95.7701 72.8063 95.7701H67.1496V90.0356H72.8467C74.6549 90.0356 75.8721 91.1345 75.8721 92.9431L75.8696 92.9403ZM67.147 79.4265H72.3337C73.8275 79.4265 75.0044 80.2515 75.0044 81.9793C75.0044 83.7072 73.6285 84.5321 72.3337 84.5321H67.147V79.4238V79.4265ZM78.108 86.9292C80.2284 86.1041 82.3513 84.2178 82.3513 80.6438C82.3513 76.0863 78.9333 73.4556 73.6691 73.4556H59.9186V101.738H73.8248C79.1668 101.738 83.2138 99.1451 83.2138 93.8809C83.2138 90.1887 81.0132 87.7515 78.1055 86.8486V86.9265L78.108 86.9292ZM192.586 87.6359C192.586 91.6426 189.991 95.2568 185.279 95.2568C180.566 95.2568 177.776 91.7205 177.776 87.558C177.776 83.3956 180.369 79.9371 185.082 79.9371C189.797 79.9371 192.586 83.4733 192.586 87.6359ZM170.43 87.5956C170.43 96.1193 176.873 102.327 185.202 102.327C193.528 102.327 199.932 96.0414 199.932 87.5956C199.932 79.1497 193.491 72.8644 185.162 72.8644C176.836 72.8644 170.432 79.1497 170.432 87.5956H170.43ZM133.188 80.3267V94.8617H124.624C125.841 92.2309 126.432 87.1629 126.432 80.6412V80.3267H133.19H133.188ZM140.416 94.8617V73.4529H119.633V75.6134C119.633 85.3168 119.163 92.6636 116.963 94.8645H114.017V106.218H121.246V101.738H137.312V106.218H144.541V94.8645H140.416V94.8617ZM154.715 94.8617V90.6966H166.579V84.215H154.715V80.3267H167.677V73.4529H147.486V101.738H168.11V94.8645H154.715V94.8617ZM104.117 73.4529L93.7855 89.5197V73.4529H86.5567V101.738H93.7855L104.117 85.6715V101.738H111.346V73.4529H104.117Z" fill="#E31235"/>
<path d="M3.12672 124.759H0.982117V114.26H7.65593V116.33H3.12672V124.759ZM6.6552 124.953C6.37024 124.953 6.13029 124.909 5.98031 124.864V123.034H6.26527C6.89515 123.034 7.24007 122.689 7.3151 121.774L7.70498 117.11H13.479V124.759H11.4393V119H9.50469L9.23474 122.224C9.08475 124.009 8.18493 124.953 6.6552 124.953ZM18.2427 116.915C20.2523 116.915 21.4371 118.235 21.4371 120.185V124.759H19.9075L19.5774 124.009H19.5026C19.1875 124.339 18.5126 124.953 17.3278 124.953C15.8732 124.953 14.7484 123.949 14.7484 122.674C14.7484 121.099 16.2481 120.125 18.4227 120.125H19.3974V119.975C19.3974 119.179 18.9477 118.73 18.2277 118.73C17.5378 118.73 17.2078 119.195 17.1478 119.51H15.1083C15.2133 118.22 16.2331 116.915 18.2427 116.915ZM17.8078 123.289C18.7825 123.289 19.3974 122.599 19.3974 121.879V121.489H18.3627C17.2078 121.489 16.788 121.909 16.788 122.479C16.788 122.944 17.133 123.289 17.8078 123.289ZM28.4014 120.755C29.0012 120.994 29.6012 121.579 29.6012 122.554C29.6012 123.769 28.5964 124.759 27.1716 124.759H23.1374V117.11H26.8867C28.2964 117.11 29.3012 118.07 29.3012 119.179C29.3012 119.975 28.8214 120.544 28.4014 120.755ZM26.4817 118.625H25.102V120.185H26.4817C26.9916 120.185 27.3366 119.899 27.3366 119.375C27.3366 118.925 26.9916 118.625 26.4817 118.625ZM25.102 123.244H26.7516C27.2766 123.244 27.6366 122.929 27.6366 122.389C27.6366 121.909 27.2766 121.549 26.7516 121.549H25.102V123.244ZM35.9369 120.02V117.11H37.9766V124.759H35.9369V121.909H33.0125V124.759H30.9728V117.11H33.0125V120.02H35.9369ZM41.7853 119.435H43.2251C44.7696 119.435 45.9396 120.559 45.9396 122.089C45.9396 123.649 44.7696 124.759 43.2251 124.759H39.7456V117.11H41.7853V119.435ZM46.5096 124.759V117.11H48.5492V124.759H46.5096ZM41.7853 123.064H42.8501C43.5102 123.064 43.9 122.674 43.9 122.089C43.9 121.519 43.5102 121.129 42.8501 121.129H41.7853V123.064ZM53.9494 116.105C52.5545 116.105 51.5646 115.16 51.4448 113.886H52.8844C52.9443 114.305 53.2143 114.801 53.9494 114.801C54.6843 114.801 54.954 114.305 55.0143 113.886H56.4538C56.334 115.16 55.3443 116.105 53.9494 116.105ZM52.2844 121.924L55.5839 117.11H57.3837V124.759H55.419V119.944L52.1195 124.759H50.32V117.11H52.2844V121.924ZM65.9444 116.915C68.0591 116.915 69.8586 118.76 69.8586 120.934C69.8586 123.109 68.0591 124.953 65.9444 124.953C63.9648 124.953 62.615 123.409 62.2998 122.029H64.3398C64.4297 122.449 64.9395 123.139 65.9444 123.139C66.8145 123.139 67.5191 122.554 67.7591 121.624H65.5094V120.244H67.7591C67.5191 119.315 66.8145 118.73 65.9444 118.73C64.9395 118.73 64.4297 119.539 64.3398 119.839H62.2998C62.615 118.46 63.9648 116.915 65.9444 116.915ZM75.1637 120.709L78.2084 124.759H75.7038L73.2591 121.339V124.759H71.2197V117.11H73.2591V120.26L75.5535 117.11H77.8783L75.1637 120.709ZM82.1251 124.953C80.0104 124.953 78.2109 123.109 78.2109 120.934C78.2109 118.76 80.0104 116.915 82.1251 116.915C84.1195 116.915 85.4696 118.505 85.7692 119.99H83.7296C83.6396 119.66 83.1296 118.805 82.1251 118.805C81.0602 118.805 80.2504 119.69 80.2504 120.934C80.2504 122.179 81.0602 123.064 82.1251 123.064C83.1296 123.064 83.6396 122.194 83.7296 121.879H85.7692C85.4696 123.364 84.1195 124.953 82.1251 124.953ZM89.106 124.759H87.0663V117.11H93.995V124.759H91.9555V119H89.106V124.759ZM103.009 120.815C103.009 121.219 102.965 121.519 102.92 121.669H97.4157C97.6405 122.599 98.3304 123.139 99.2451 123.139C100.04 123.139 100.46 122.734 100.61 122.569H102.755C102.35 123.604 101.075 124.953 99.275 124.953C97.1157 124.953 95.3608 123.154 95.3608 120.934C95.3608 118.76 97.1608 116.915 99.2451 116.915C101.33 116.915 103.009 118.595 103.009 120.815ZM99.2451 118.73C98.3603 118.73 97.6557 119.3 97.4157 120.215H101.045C100.805 119.33 100.115 118.73 99.2451 118.73ZM106.417 127.458H104.377V117.11H105.907L106.237 117.86H106.312C106.522 117.605 107.287 116.915 108.487 116.915C110.362 116.915 112.026 118.625 112.026 120.934C112.026 123.244 110.362 124.953 108.487 124.953C107.392 124.953 106.642 124.324 106.492 124.099H106.417V127.458ZM108.202 123.064C109.147 123.064 109.986 122.194 109.986 120.934C109.986 119.675 109.147 118.805 108.202 118.805C107.257 118.805 106.417 119.675 106.417 120.934C106.417 122.194 107.257 123.064 108.202 123.064ZM116.661 124.759H114.622V119H112.387V117.11H118.896V119H116.661V124.759ZM125.325 124.759H123.285V117.11H130.214V124.759H128.174V119H125.325V124.759ZM135.494 124.953C133.38 124.953 131.58 123.109 131.58 120.934C131.58 118.76 133.38 116.915 135.494 116.915C137.609 116.915 139.409 118.76 139.409 120.934C139.409 123.109 137.609 124.953 135.494 124.953ZM135.494 123.064C136.559 123.064 137.369 122.179 137.369 120.934C137.369 119.69 136.559 118.805 135.494 118.805C134.429 118.805 133.62 119.69 133.62 120.934C133.62 122.179 134.429 123.064 135.494 123.064ZM148.12 124.759H146.081V119H143.846V117.11H150.355V119H148.12V124.759ZM158.371 120.815C158.371 121.219 158.326 121.519 158.281 121.669H152.777C153.002 122.599 153.691 123.139 154.606 123.139C155.401 123.139 155.821 122.734 155.971 122.569H158.116C157.711 123.604 156.436 124.953 154.636 124.953C152.477 124.953 150.722 123.154 150.722 120.934C150.722 118.76 152.522 116.915 154.606 116.915C156.691 116.915 158.371 118.595 158.371 120.815ZM154.606 118.73C153.721 118.73 153.017 119.3 152.777 120.215H156.406C156.166 119.33 155.476 118.73 154.606 118.73ZM163.63 120.859L166.18 124.759H163.84L162.325 122.284L160.81 124.759H158.561L161.11 120.859L158.726 117.11H161.035L162.415 119.404L163.78 117.11H166L163.63 120.859ZM172.026 120.02V117.11H174.065V124.759H172.026V121.909H169.101V124.759H167.062V117.11H169.101V120.02H172.026ZM177.798 121.924L181.099 117.11H182.897V124.759H180.933V119.944L177.634 124.759H175.834V117.11H177.798V121.924ZM188.61 120.709L191.655 124.759H189.15L186.706 121.339V124.759H184.667V117.11H186.706V120.26L189 117.11H191.325L188.61 120.709ZM199.306 120.815C199.306 121.219 199.262 121.519 199.215 121.669H193.711C193.937 122.599 194.626 123.139 195.542 123.139C196.337 123.139 196.756 122.734 196.906 122.569H199.051C198.646 123.604 197.371 124.953 195.571 124.953C193.412 124.953 191.656 123.154 191.656 120.934C191.656 118.76 193.456 116.915 195.542 116.915C197.626 116.915 199.306 118.595 199.306 120.815ZM195.542 118.73C194.656 118.73 193.952 119.3 193.711 120.215H197.34C197.101 119.33 196.41 118.73 195.542 118.73Z" fill="#E31235"/>
</g>
</svg>
