<svg width="200" height="200" viewBox="0 0 200 200" fill="none" xmlns="http://www.w3.org/2000/svg">
<path d="M40.9356 75.8911C36.9698 73.6782 32.4021 72.4167 27.5374 72.4167C12.3285 72.4167 0 84.7479 0 99.9542C0 115.161 12.3285 127.489 27.5374 127.489C42.7464 127.489 55.0723 115.161 55.0723 99.9542C55.0723 95.058 53.795 90.4614 51.5585 86.4798L48.565 88.2223C50.6071 91.8438 51.7766 96.0225 51.7766 100.48C51.7766 114.267 40.6018 125.442 26.8121 125.442C13.0223 125.442 1.84757 114.264 1.84757 100.48C1.84757 86.6953 13.0223 75.5127 26.8147 75.5127C31.3745 75.5127 35.6399 76.7374 39.3193 78.8662L37.4481 82.3143L47.2089 82.0593L42.1077 73.7361L40.9356 75.8938" fill="#00C4C4"/>
<path d="M136.402 105V88.2433H132.242V111.676H136.089L147.314 94.9161V111.676H151.474V88.2433H147.627L136.402 105Z" fill="#00C4C4"/>
<path d="M82.1919 97.765H72.6781V88.2433H68.975V111.676H72.6781V101.366H82.1919V111.676H85.8975V88.2433H82.1919V97.765Z" fill="#00C4C4"/>
<path d="M112.202 88.2433V111.676H116.423V91.8386H124.804V111.676H129.025V88.2433H112.202Z" fill="#00C4C4"/>
<path d="M167.201 91.8386L167.795 88.2433H154.875V111.676H159.08V91.8386H167.201Z" fill="#00C4C4"/>
<path d="M199.643 103.408C199.543 102.879 199.372 102.356 199.135 101.849C198.896 101.342 198.581 100.856 198.197 100.404C197.837 99.9832 197.39 99.6126 196.907 99.3235C197.75 98.6665 198.344 97.9201 198.675 97.1106C199.02 96.2617 199.196 95.3656 199.196 94.4431C199.196 93.673 199.064 92.8872 198.812 92.1067C198.555 91.3182 198.134 90.5955 197.569 89.9595C197.001 89.3235 196.271 88.7979 195.39 88.3984C194.51 88.0016 193.438 87.7992 192.205 87.7992C190.972 87.7992 189.871 87.9884 188.975 88.3642C188.079 88.7401 187.325 89.242 186.738 89.857C186.152 90.472 185.714 91.1816 185.435 91.9595C185.159 92.7322 185.02 93.5338 185.02 94.3511V95.4891H188.841V94.7953C188.859 94.2617 188.917 93.765 189.02 93.3209C189.114 92.9056 189.277 92.5482 189.516 92.2539C189.745 91.9674 190.076 91.7466 190.494 91.5916C190.933 91.4286 191.509 91.3472 192.21 91.3472C192.731 91.3472 193.18 91.4365 193.543 91.61C193.913 91.7887 194.226 92.02 194.473 92.2959C194.717 92.5692 194.896 92.8951 195.007 93.2657C195.12 93.6468 195.18 94.0436 195.18 94.4457C195.18 94.9056 195.12 95.3524 194.993 95.7677C194.873 96.1698 194.683 96.5219 194.428 96.8189C194.176 97.1133 193.834 97.3498 193.417 97.5259C192.993 97.7046 192.463 97.7966 191.842 97.7966H189.348V101.342H191.842C192.539 101.342 193.143 101.439 193.64 101.631C194.126 101.82 194.533 102.086 194.851 102.422C195.169 102.758 195.406 103.153 195.551 103.592C195.7 104.046 195.777 104.538 195.777 105.058C195.777 106.062 195.469 106.877 194.833 107.557C194.216 108.222 193.235 108.559 191.924 108.559C191.645 108.559 191.348 108.519 191.043 108.443C190.733 108.367 190.428 108.259 190.131 108.122C189.834 107.983 189.556 107.831 189.304 107.665C189.062 107.505 188.849 107.329 188.683 107.145C188.268 106.674 188.013 106.204 187.929 105.744C187.837 105.25 187.79 104.677 187.79 104.036V103.421L183.966 103.016V103.818C183.966 104.766 184.074 105.705 184.286 106.609C184.505 107.539 184.996 108.451 185.748 109.305C186.084 109.691 186.489 110.057 186.954 110.388C187.411 110.719 187.919 111.013 188.452 111.266C188.988 111.521 189.574 111.723 190.189 111.875C190.807 112.023 191.438 112.099 192.068 112.099C193.396 112.099 194.555 111.881 195.522 111.455C196.484 111.029 197.29 110.469 197.924 109.791C198.557 109.113 199.033 108.335 199.338 107.473C199.643 106.622 199.795 105.762 199.795 104.927C199.795 104.438 199.745 103.925 199.648 103.4V103.405L199.643 103.408Z" fill="#00C4C4"/>
<path d="M172.276 88.2433L163.367 111.676H167.28L170.013 104.483H177.779L180.512 111.676H184.426L175.516 88.2433H172.276ZM171.388 100.874L173.9 94.2723L176.413 100.874H171.39H171.388Z" fill="#00C4C4"/>
<path d="M93.4402 105V88.2433H89.2799V111.676H93.1301L104.357 94.9161V111.676H108.518V88.2433H104.67L93.4402 105Z" fill="#00C4C4"/>
<path d="M26.7227 101.45C26.8147 101.2 26.9067 100.953 27.0066 100.706C27.067 100.543 27.1354 100.38 27.1984 100.22C27.1984 100.22 27.1879 100.193 27.18 100.18C27.1327 100.067 27.0828 99.9542 27.0355 99.836C27.0302 99.8202 27.0223 99.8097 27.0171 99.7939C26.9645 99.6757 26.9146 99.5521 26.8594 99.426C26.8436 99.3918 26.8305 99.3577 26.8147 99.3235C26.7622 99.2026 26.7096 99.0791 26.6518 98.9529C26.6334 98.9135 26.6176 98.8741 26.5992 98.8373C26.5388 98.7006 26.4757 98.5613 26.41 98.4168C26.41 98.4168 26.41 98.4115 26.41 98.4089C26.3811 98.493 26.3495 98.5771 26.3206 98.6612C26.2944 98.7427 26.2628 98.8241 26.2366 98.9082C26.1866 99.0528 26.1393 99.2026 26.0946 99.3471C26.071 99.4234 26.0447 99.4996 26.0211 99.5784C25.9685 99.744 25.9212 99.9096 25.8713 100.075C25.8529 100.133 25.8371 100.188 25.8187 100.246C25.7582 100.459 25.7004 100.669 25.6426 100.879C25.7162 101.021 25.7872 101.161 25.8607 101.295C25.8791 101.326 25.8923 101.358 25.9107 101.392C25.9685 101.502 26.0237 101.61 26.0789 101.72C26.1025 101.768 26.1262 101.812 26.1472 101.86C26.1971 101.957 26.2444 102.051 26.2917 102.149C26.3128 102.191 26.3338 102.233 26.3522 102.275C26.3706 102.309 26.3863 102.343 26.4021 102.375C26.41 102.354 26.4179 102.333 26.4231 102.312C26.5072 102.062 26.5913 101.818 26.6781 101.578C26.6938 101.536 26.707 101.497 26.7227 101.455V101.45Z" fill="#00C4C4"/>
<path d="M24.6439 95.8201C24.5992 95.9883 24.5545 96.1539 24.5125 96.3169C24.4888 96.4141 24.4599 96.5087 24.4389 96.606C24.389 96.8031 24.3443 96.9975 24.2996 97.192C24.2838 97.2525 24.2707 97.3129 24.2576 97.3707C24.2024 97.6152 24.1524 97.8596 24.1025 98.1014C24.3548 98.5324 24.5992 98.966 24.8357 99.3971C24.9067 99.5285 24.975 99.6546 25.0486 99.786C25.1879 100.044 25.3325 100.301 25.4665 100.556C25.4875 100.48 25.5112 100.404 25.5296 100.33C25.5532 100.238 25.5821 100.149 25.6084 100.059C25.6505 99.92 25.6925 99.7808 25.7346 99.6441C25.7582 99.56 25.7871 99.4759 25.8108 99.3918C25.8633 99.2288 25.9159 99.0633 25.9711 98.9003C25.9921 98.8399 26.0079 98.7821 26.0315 98.7216C26.1025 98.5087 26.1761 98.2985 26.2523 98.0882C26.1393 97.8464 26.0263 97.602 25.908 97.355C25.887 97.3103 25.8633 97.2656 25.8449 97.2209C25.7451 97.0107 25.6399 96.8004 25.5374 96.5876L25.4034 96.3221C25.3193 96.1513 25.2352 95.9857 25.1485 95.8149C25.0933 95.7071 25.0381 95.5968 24.9803 95.489C24.9277 95.3865 24.8752 95.284 24.8226 95.1815C24.7911 95.2866 24.7622 95.397 24.7306 95.4995C24.7017 95.6073 24.6702 95.7177 24.6386 95.8254V95.8201H24.6439Z" fill="#00C4C4"/>
<path d="M25.1643 107.752C25.1748 107.668 25.1853 107.584 25.1984 107.497C25.2221 107.321 25.251 107.145 25.2773 106.966C25.2878 106.903 25.2983 106.84 25.3062 106.777C25.3456 106.535 25.3903 106.291 25.4376 106.044C25.4481 105.991 25.4586 105.944 25.4691 105.891C25.5086 105.694 25.548 105.497 25.5926 105.297C25.6137 105.213 25.6321 105.126 25.6531 105.042C25.6925 104.871 25.7319 104.701 25.7766 104.53C25.7976 104.438 25.8239 104.348 25.8449 104.256C25.8923 104.08 25.9396 103.904 25.9869 103.726C26.0105 103.641 26.0342 103.557 26.0578 103.473C26.1209 103.25 26.1919 103.024 26.2628 102.798C26.2733 102.766 26.2838 102.735 26.2917 102.698C26.2786 102.672 26.2654 102.643 26.2523 102.617C26.1656 102.438 26.0736 102.259 25.9842 102.075C25.9606 102.025 25.9343 101.978 25.9107 101.931C25.8082 101.723 25.6978 101.513 25.5848 101.292C25.5716 101.271 25.5637 101.247 25.5506 101.226C25.5348 101.284 25.5217 101.339 25.5085 101.397C25.456 101.602 25.4087 101.804 25.364 102.007C25.343 102.101 25.3193 102.196 25.3009 102.291C25.2457 102.535 25.1984 102.777 25.1538 103.019C25.1432 103.063 25.1327 103.111 25.1275 103.155C25.0723 103.439 25.0276 103.723 24.9829 104.002C24.9698 104.08 24.9619 104.159 24.9488 104.235C24.9199 104.44 24.8883 104.643 24.862 104.843C24.8489 104.937 24.8384 105.027 24.8279 105.121C24.8042 105.316 24.7832 105.507 24.7648 105.699C24.7569 105.781 24.7464 105.862 24.7411 105.944C24.7175 106.212 24.6938 106.48 24.6781 106.74C24.6597 107.003 24.6492 107.266 24.636 107.526C24.636 107.605 24.6308 107.681 24.6281 107.757C24.6229 107.938 24.6176 108.122 24.615 108.304C24.615 108.388 24.615 108.472 24.615 108.556C24.615 108.74 24.615 108.924 24.615 109.103V109.305C24.6202 109.55 24.6281 109.794 24.636 110.033C24.636 110.065 24.636 110.094 24.6413 110.128C24.6518 110.335 24.6623 110.543 24.6781 110.743C24.6833 110.816 24.6886 110.887 24.6965 110.961C24.7096 111.124 24.7227 111.287 24.7385 111.447C24.7464 111.521 24.7543 111.594 24.7595 111.665C24.7779 111.841 24.7963 112.009 24.8174 112.18C24.8226 112.23 24.8305 112.28 24.8358 112.33C24.862 112.548 24.8936 112.764 24.9225 112.977C24.9304 113.019 24.9356 113.061 24.9435 113.105C24.9672 113.274 24.9961 113.442 25.0223 113.602C25.0329 113.668 25.0434 113.733 25.0565 113.797C25.0802 113.938 25.1091 114.083 25.1354 114.222C25.1432 114.254 25.1485 114.288 25.1564 114.322C25.1511 114.293 25.1485 114.262 25.1459 114.228C25.1327 114.122 25.1222 114.012 25.1091 113.904C25.1012 113.831 25.0907 113.76 25.0854 113.686C25.0697 113.544 25.0591 113.4 25.046 113.255C25.046 113.213 25.0381 113.171 25.0329 113.126C25.0171 112.942 25.0066 112.751 24.9961 112.559C24.9961 112.493 24.9908 112.422 24.9856 112.356C24.9803 112.225 24.9724 112.094 24.9698 111.96C24.9698 111.881 24.9645 111.802 24.9645 111.723C24.9645 111.594 24.9593 111.465 24.9593 111.334V111.095C24.9593 110.953 24.9593 110.808 24.9645 110.666C24.9645 110.598 24.9645 110.527 24.9698 110.459C24.975 110.243 24.9829 110.03 24.9934 109.81C24.9934 109.783 24.9934 109.757 24.9987 109.731C25.0092 109.536 25.0197 109.342 25.0381 109.142C25.0434 109.069 25.0513 108.992 25.0591 108.916C25.0723 108.764 25.0854 108.611 25.1012 108.456C25.1117 108.369 25.1196 108.283 25.1275 108.199C25.1459 108.046 25.1616 107.894 25.1827 107.741L25.1722 107.755L25.1643 107.752Z" fill="#00C4C4"/>
<path d="M26.5256 98.0725C26.6833 98.4168 26.8252 98.7348 26.9593 99.037C26.9593 99.0423 26.9645 99.0475 26.9671 99.0528C27.0302 99.1947 27.0933 99.3393 27.1511 99.4733C27.1564 99.4864 27.1616 99.4943 27.1669 99.5075C27.2194 99.6284 27.2668 99.7466 27.3167 99.8623C27.3219 99.8754 27.3272 99.8859 27.3325 99.8991C27.3456 99.8701 27.3561 99.8412 27.3692 99.8123C27.4849 99.5364 27.5979 99.263 27.7162 98.995C27.7346 98.9529 27.753 98.9109 27.7713 98.8688C27.8817 98.6139 27.9921 98.3642 28.1051 98.1172C28.1183 98.0935 28.1261 98.0646 28.1393 98.041C28.134 98.0278 28.1288 98.0173 28.1235 98.0015C28.0184 97.7177 27.9054 97.426 27.7845 97.1343C27.7713 97.1027 27.7608 97.0712 27.7451 97.037C27.6268 96.7453 27.498 96.4536 27.3692 96.1566C27.3561 96.1303 27.3456 96.1014 27.3325 96.0751C27.3193 96.104 27.3088 96.133 27.2957 96.1619C27.1669 96.4588 27.0407 96.7506 26.9225 97.0449C26.9067 97.0843 26.8936 97.1211 26.8778 97.1605C26.7621 97.4523 26.6518 97.7387 26.5466 98.0226C26.5414 98.041 26.5335 98.0567 26.5256 98.0725Z" fill="#00C4C4"/>
<path d="M28.8068 100.02C28.7543 99.8464 28.7017 99.6782 28.6439 99.5048C28.6229 99.4365 28.5966 99.3655 28.5756 99.2945C28.5256 99.1474 28.4757 99.0002 28.4284 98.853C28.4021 98.7768 28.3732 98.698 28.3469 98.6217C28.318 98.5376 28.2865 98.4562 28.2576 98.3721C28.247 98.3931 28.2365 98.4194 28.226 98.4404C28.1104 98.698 27.9947 98.9634 27.8791 99.2315C27.8581 99.2761 27.8397 99.3235 27.8213 99.3681C27.7057 99.6362 27.5926 99.9095 27.4796 100.185C27.4744 100.199 27.4691 100.206 27.4639 100.22C27.5637 100.454 27.6531 100.687 27.7477 100.921C27.795 101.042 27.8449 101.166 27.8896 101.292C27.9028 101.323 27.9133 101.355 27.9238 101.389C27.958 101.484 27.9921 101.576 28.0263 101.673C28.0447 101.718 28.0578 101.765 28.0762 101.81C28.1078 101.896 28.1367 101.986 28.1708 102.072C28.1892 102.122 28.205 102.172 28.2234 102.222C28.2339 102.254 28.2444 102.283 28.2549 102.317C28.2681 102.291 28.2812 102.262 28.2944 102.238C28.3206 102.178 28.3522 102.12 28.3811 102.059C28.4231 101.975 28.4652 101.888 28.5072 101.802L28.5887 101.639C28.6465 101.528 28.7017 101.413 28.7595 101.297C28.7753 101.268 28.7884 101.237 28.8042 101.208C28.8752 101.066 28.9488 100.919 29.025 100.772C28.9672 100.567 28.9093 100.359 28.8463 100.154C28.8331 100.109 28.82 100.065 28.8042 100.02H28.8095H28.8068Z" fill="#00C4C4"/>
<path d="M30.1445 107.986C30.134 107.694 30.1235 107.4 30.1025 107.1C30.1025 107.063 30.0972 107.027 30.0946 106.992C30.0762 106.732 30.0578 106.469 30.0342 106.204C30.0237 106.104 30.0131 106.007 30.0026 105.907C29.9816 105.699 29.9606 105.492 29.9343 105.284C29.9185 105.166 29.9028 105.048 29.887 104.929C29.8607 104.735 29.8318 104.543 29.8029 104.346C29.7819 104.217 29.7608 104.088 29.7398 103.96C29.7083 103.77 29.6741 103.578 29.6399 103.384C29.6163 103.25 29.5874 103.116 29.5611 102.979C29.5217 102.787 29.4823 102.596 29.4376 102.404C29.4087 102.264 29.3771 102.128 29.343 101.988C29.2957 101.794 29.2457 101.597 29.1984 101.397C29.1774 101.308 29.1511 101.218 29.1301 101.129C29.1117 101.161 29.0986 101.192 29.0802 101.226C29.046 101.295 29.0118 101.366 28.9777 101.431C28.9356 101.513 28.8962 101.594 28.8541 101.676C28.8226 101.736 28.7937 101.802 28.7595 101.86C28.707 101.967 28.657 102.073 28.6045 102.178C28.5887 102.207 28.5756 102.238 28.5598 102.27C28.4993 102.398 28.4363 102.527 28.3784 102.651C28.4205 102.777 28.4547 102.9 28.4941 103.024C28.5519 103.203 28.6071 103.381 28.6597 103.557C28.6965 103.686 28.7306 103.815 28.7648 103.941C28.8147 104.117 28.8646 104.293 28.9093 104.467C28.9409 104.593 28.9698 104.719 29.0013 104.843C29.0434 105.016 29.088 105.187 29.1275 105.358C29.1537 105.481 29.18 105.605 29.2063 105.728C29.2405 105.896 29.2799 106.065 29.3114 106.23C29.3351 106.354 29.3561 106.475 29.3745 106.596C29.4034 106.758 29.435 106.924 29.4612 107.087C29.4823 107.208 29.4954 107.324 29.5138 107.442C29.5374 107.602 29.5637 107.762 29.5821 107.92C29.5979 108.038 29.6084 108.151 29.6215 108.267C29.6399 108.422 29.6583 108.58 29.6741 108.732C29.6873 108.848 29.6951 108.958 29.703 109.074C29.7162 109.224 29.7293 109.376 29.7398 109.529C29.7477 109.642 29.753 109.752 29.7582 109.865C29.7661 110.009 29.7766 110.159 29.7792 110.301C29.7845 110.414 29.7845 110.522 29.7871 110.638C29.7871 110.777 29.795 110.916 29.7976 111.053V111.384C29.7976 111.518 29.7976 111.649 29.7976 111.781C29.7976 111.889 29.7897 111.996 29.7871 112.104C29.7819 112.233 29.7792 112.362 29.7714 112.488C29.7661 112.593 29.7582 112.698 29.7503 112.803C29.7424 112.927 29.7346 113.05 29.7267 113.174C29.7188 113.279 29.7056 113.381 29.7004 113.484C29.6899 113.599 29.6794 113.718 29.6689 113.833C29.6583 113.936 29.6452 114.036 29.6347 114.136C29.6215 114.246 29.611 114.359 29.5953 114.469C29.5821 114.569 29.569 114.664 29.5532 114.764C29.5374 114.869 29.5243 114.979 29.5059 115.082C29.5059 115.095 29.5059 115.103 29.5007 115.116V115.111C29.548 114.898 29.5953 114.68 29.6373 114.456C29.6478 114.404 29.6583 114.354 29.6662 114.301C29.6978 114.13 29.7293 113.96 29.7608 113.781C29.7766 113.702 29.7871 113.618 29.8003 113.536C29.8239 113.387 29.8502 113.234 29.8712 113.079C29.8844 112.987 29.8949 112.892 29.9106 112.801C29.9317 112.653 29.9501 112.504 29.9685 112.351C29.9816 112.251 29.9895 112.151 30.0026 112.051C30.021 111.902 30.0342 111.752 30.0499 111.597C30.0604 111.494 30.071 111.387 30.0762 111.281C30.0894 111.126 30.0999 110.971 30.1104 110.814C30.1183 110.709 30.1261 110.598 30.1314 110.49C30.1419 110.327 30.1472 110.162 30.1524 109.994C30.1577 109.889 30.1603 109.781 30.1629 109.676C30.1682 109.497 30.1708 109.318 30.1708 109.14C30.1708 109.04 30.1708 108.942 30.1708 108.843C30.1708 108.627 30.1656 108.412 30.1603 108.193C30.1603 108.125 30.1603 108.054 30.1551 107.986H30.1498H30.1445Z" fill="#00C4C4"/>
<path d="M30.4993 98.5534C30.4547 98.6323 30.41 98.7111 30.3653 98.7926C30.2812 98.9424 30.1971 99.0948 30.113 99.2473C30.0762 99.3156 30.0368 99.3865 30 99.4549C29.9001 99.6388 29.8003 99.8281 29.7004 100.015C29.6794 100.054 29.6583 100.094 29.6373 100.136C29.5217 100.356 29.4034 100.58 29.2878 100.803C29.364 101.079 29.4323 101.355 29.5033 101.626C29.5191 101.689 29.5322 101.752 29.5506 101.815C29.6137 102.083 29.6767 102.351 29.7319 102.617C29.7319 102.632 29.7398 102.645 29.7424 102.664C29.8029 102.942 29.8528 103.216 29.9054 103.489C29.9185 103.552 29.929 103.62 29.9396 103.684C29.9869 103.941 30.0289 104.199 30.0683 104.454C30.0683 104.469 30.0736 104.482 30.0762 104.498C30.1156 104.764 30.1498 105.026 30.1813 105.287C30.1892 105.352 30.1971 105.421 30.205 105.486C30.2339 105.736 30.2628 105.983 30.2838 106.228C30.2838 106.241 30.2838 106.251 30.2838 106.262C30.3049 106.517 30.3259 106.764 30.3417 107.013C30.3469 107.079 30.3495 107.145 30.3548 107.21C30.3706 107.452 30.3811 107.691 30.389 107.931V107.97C30.3968 108.207 30.4021 108.438 30.4047 108.669V108.861C30.4047 109.095 30.4047 109.326 30.3995 109.555V109.605C30.3942 109.823 30.3863 110.033 30.3784 110.246C30.3784 110.306 30.3732 110.369 30.3679 110.427C30.3548 110.645 30.3443 110.866 30.3285 111.082C30.3285 111.103 30.3285 111.124 30.3233 111.145C30.3075 111.344 30.2917 111.542 30.2707 111.739C30.2654 111.797 30.2602 111.852 30.2523 111.91C30.2313 112.12 30.2076 112.325 30.184 112.527C30.184 112.548 30.1787 112.572 30.1735 112.593C30.1498 112.779 30.1235 112.963 30.0972 113.145C30.0894 113.197 30.0815 113.247 30.0762 113.3C30.0473 113.497 30.0158 113.689 29.9816 113.878C29.9763 113.899 29.9737 113.923 29.9685 113.941C29.9396 114.117 29.908 114.285 29.8712 114.456C29.8607 114.501 29.8528 114.548 29.8449 114.593C29.8081 114.777 29.7714 114.961 29.7319 115.137C29.7267 115.158 29.724 115.174 29.7188 115.192C29.682 115.358 29.6452 115.518 29.6058 115.676C29.5953 115.715 29.5848 115.752 29.5795 115.791C29.5375 115.965 29.4954 116.13 29.4507 116.296C29.4455 116.314 29.4402 116.327 29.4376 116.343C29.3955 116.496 29.3561 116.645 29.3141 116.793C29.3035 116.824 29.2957 116.856 29.2878 116.89C29.2799 116.913 29.272 116.942 29.2668 116.966C29.2799 116.929 29.293 116.895 29.3062 116.858C29.3219 116.816 29.3377 116.772 29.3535 116.73C29.4113 116.574 29.4639 116.419 29.5217 116.256C29.5269 116.238 29.5348 116.222 29.5401 116.204C29.6005 116.028 29.6583 115.849 29.7188 115.668C29.7346 115.618 29.7503 115.571 29.7661 115.523C29.816 115.368 29.866 115.21 29.9106 115.05C29.9238 115.013 29.9317 114.977 29.9448 114.94C30.0026 114.751 30.0578 114.553 30.113 114.356C30.1288 114.306 30.1393 114.256 30.1551 114.204C30.1997 114.041 30.2444 113.875 30.2865 113.707C30.2996 113.655 30.3127 113.605 30.3259 113.552C30.3784 113.344 30.4284 113.137 30.4783 112.921C30.4888 112.871 30.4993 112.822 30.5099 112.777C30.5493 112.598 30.5887 112.422 30.6255 112.241C30.6386 112.18 30.6518 112.117 30.6649 112.054C30.7096 111.831 30.7543 111.605 30.7963 111.376C30.8042 111.339 30.8095 111.3 30.8173 111.263C30.8515 111.063 30.8857 110.861 30.9198 110.659C30.9304 110.59 30.9409 110.519 30.9514 110.451C30.9882 110.217 31.0223 109.978 31.0539 109.739C31.0539 109.723 31.0591 109.71 31.0591 109.694C31.0907 109.455 31.1196 109.21 31.1459 108.963C31.1537 108.892 31.1616 108.819 31.1669 108.745C31.1879 108.527 31.2116 108.301 31.2273 108.078C31.2273 108.036 31.2352 107.996 31.2378 107.954C31.2589 107.697 31.2746 107.431 31.2904 107.168C31.2957 107.097 31.2983 107.024 31.3009 106.95C31.3114 106.732 31.3219 106.506 31.3272 106.283C31.3272 106.222 31.3325 106.164 31.3325 106.104C31.3403 105.831 31.343 105.555 31.343 105.276V105.071C31.343 104.843 31.3377 104.611 31.3298 104.377C31.3298 104.306 31.3298 104.235 31.3246 104.159C31.3141 103.87 31.3035 103.584 31.2852 103.289C31.2852 103.231 31.2773 103.179 31.2746 103.121C31.2589 102.871 31.2405 102.622 31.2168 102.369C31.2089 102.291 31.2037 102.212 31.1958 102.136C31.1695 101.833 31.1353 101.528 31.1012 101.221C31.1012 101.189 31.0933 101.161 31.088 101.126C31.0539 100.845 31.0171 100.561 30.975 100.275C30.9619 100.193 30.9514 100.109 30.9382 100.028C30.8909 99.7229 30.841 99.4155 30.7858 99.1053C30.7858 99.0922 30.7806 99.0817 30.7806 99.0685C30.7359 98.8162 30.6833 98.5666 30.6334 98.3116C30.5887 98.3905 30.5414 98.472 30.4967 98.5508L30.4993 98.5534Z" fill="#00C4C4"/>
<path d="M29.1748 115.494C29.1984 115.35 29.2273 115.203 29.2484 115.053C29.2536 115.026 29.2589 114.998 29.2615 114.971C29.2878 114.798 29.3141 114.622 29.3377 114.44C29.3456 114.388 29.3508 114.338 29.3587 114.285C29.3771 114.146 29.3929 114.002 29.4087 113.857C29.4139 113.804 29.4218 113.757 29.4271 113.705C29.4481 113.518 29.4639 113.329 29.4796 113.132C29.4796 113.092 29.4849 113.05 29.4875 113.008C29.5006 112.848 29.5085 112.687 29.5164 112.522C29.5164 112.461 29.5217 112.398 29.5269 112.338C29.5348 112.157 29.5427 111.973 29.548 111.786V111.71C29.5532 111.502 29.5532 111.295 29.548 111.079V110.89C29.548 110.722 29.5401 110.551 29.5348 110.377C29.5348 110.32 29.5348 110.264 29.5296 110.207C29.519 109.988 29.5085 109.762 29.4928 109.539C29.4928 109.484 29.4849 109.434 29.4796 109.379C29.4665 109.197 29.4507 109.011 29.4323 108.827C29.4244 108.758 29.4192 108.687 29.4113 108.619C29.3876 108.388 29.3614 108.157 29.3298 107.92C29.3298 107.91 29.3298 107.902 29.3298 107.894C29.2983 107.657 29.2641 107.415 29.2247 107.174C29.2116 107.103 29.2037 107.034 29.1905 106.961C29.1564 106.761 29.1222 106.559 29.0828 106.356C29.0723 106.299 29.0618 106.246 29.0512 106.188C29.0013 105.936 28.9487 105.684 28.8909 105.426C28.8778 105.366 28.8646 105.305 28.8489 105.247C28.7989 105.04 28.749 104.829 28.6964 104.619C28.678 104.548 28.6597 104.477 28.6413 104.404C28.5703 104.138 28.4993 103.87 28.4179 103.599C28.4126 103.581 28.4074 103.565 28.3995 103.544C28.3416 103.358 28.2812 103.166 28.2208 102.974C28.1419 103.14 28.0657 103.305 27.9921 103.471C27.9501 103.565 27.9054 103.657 27.8633 103.752C27.7267 104.049 27.5979 104.348 27.4717 104.643C27.5164 104.745 27.5637 104.85 27.6058 104.953C27.6978 105.166 27.7819 105.373 27.8633 105.586C27.8844 105.644 27.908 105.702 27.929 105.76C27.9947 105.936 28.0578 106.107 28.1156 106.283C28.1314 106.322 28.1419 106.362 28.1577 106.401C28.226 106.609 28.2943 106.816 28.3548 107.021C28.3706 107.071 28.3837 107.121 28.3995 107.171C28.4494 107.337 28.4941 107.505 28.5388 107.668C28.5545 107.72 28.565 107.77 28.5808 107.825C28.6334 108.03 28.6807 108.235 28.7227 108.438C28.7306 108.467 28.7359 108.498 28.7438 108.527C28.7805 108.706 28.8147 108.879 28.8462 109.055C28.8568 109.111 28.8673 109.166 28.8752 109.221C28.9067 109.405 28.9356 109.589 28.9645 109.77C28.9645 109.789 28.9698 109.807 28.9724 109.825C29.0013 110.025 29.0276 110.222 29.0486 110.419C29.0539 110.472 29.0591 110.522 29.067 110.574C29.0854 110.735 29.0985 110.892 29.1117 111.05C29.1117 111.092 29.1196 111.134 29.1222 111.176C29.138 111.368 29.1485 111.557 29.1564 111.749C29.1564 111.791 29.1564 111.831 29.1616 111.873C29.1695 112.028 29.1721 112.18 29.1774 112.333C29.1774 112.383 29.1774 112.43 29.1774 112.477C29.1774 112.661 29.1774 112.848 29.1774 113.029V113.066C29.1774 113.239 29.1695 113.405 29.1616 113.573C29.1616 113.62 29.1564 113.668 29.1564 113.712C29.1485 113.868 29.1406 114.023 29.1327 114.175C29.1327 114.196 29.1327 114.222 29.1275 114.243C29.1143 114.419 29.1012 114.588 29.0854 114.758C29.0802 114.798 29.0775 114.837 29.0723 114.879C29.0591 115.019 29.046 115.155 29.0276 115.289C29.0223 115.323 29.0197 115.36 29.0144 115.394C28.9934 115.557 28.9724 115.72 28.9514 115.878C28.9514 115.902 28.9435 115.928 28.9409 115.952C28.9198 116.088 28.8988 116.222 28.8804 116.356C28.8752 116.393 28.8673 116.43 28.8594 116.469C28.8068 116.774 28.7516 117.071 28.6938 117.355C28.6859 117.387 28.678 117.418 28.6728 117.452C28.6465 117.576 28.6202 117.694 28.5939 117.812C28.5887 117.831 28.5861 117.849 28.5808 117.87C28.5493 118.007 28.5204 118.136 28.4862 118.264C28.4783 118.288 28.4731 118.314 28.4652 118.338C28.4494 118.393 28.4389 118.448 28.4231 118.504V118.496C28.4231 118.496 28.431 118.472 28.4363 118.461C28.4704 118.354 28.5072 118.241 28.5414 118.125C28.5545 118.088 28.5624 118.051 28.5756 118.015C28.6071 117.907 28.6386 117.797 28.6754 117.681C28.6833 117.657 28.6912 117.634 28.6964 117.61C28.7332 117.473 28.7727 117.334 28.8095 117.192C28.82 117.155 28.8305 117.118 28.8357 117.082C28.8646 116.966 28.8936 116.85 28.9225 116.73C28.933 116.69 28.9435 116.648 28.9514 116.609C28.9855 116.456 29.0197 116.301 29.0539 116.141C29.0591 116.117 29.0644 116.091 29.0696 116.065C29.0959 115.925 29.1248 115.786 29.1511 115.647C29.1616 115.597 29.1695 115.547 29.1774 115.5L29.1748 115.494Z" fill="#00C4C4"/>
<path d="M25.1327 116.107C25.1669 116.209 25.1984 116.309 25.2326 116.409C25.2536 116.472 25.2746 116.538 25.2957 116.598C25.3325 116.706 25.3693 116.814 25.406 116.916C25.4244 116.966 25.4402 117.016 25.4612 117.066C25.5164 117.213 25.569 117.36 25.6216 117.5C25.6426 117.55 25.6583 117.597 25.6794 117.642C25.7135 117.736 25.7503 117.825 25.7845 117.915C25.8082 117.975 25.8318 118.033 25.8555 118.094C25.8844 118.167 25.9159 118.238 25.9422 118.312C25.9658 118.372 25.9921 118.433 26.0158 118.49C26.0315 118.527 26.0447 118.561 26.0605 118.596C26.0499 118.567 26.0394 118.535 26.0289 118.501C26.0105 118.451 25.9921 118.401 25.9737 118.351C25.9527 118.291 25.929 118.225 25.908 118.159C25.8896 118.107 25.8712 118.057 25.8528 118.002C25.8318 117.936 25.8082 117.865 25.7845 117.797C25.7661 117.741 25.7503 117.689 25.7293 117.634C25.7083 117.563 25.6846 117.492 25.661 117.418C25.6426 117.36 25.6268 117.305 25.6058 117.247C25.5848 117.174 25.5611 117.097 25.5375 117.021C25.5191 116.961 25.5033 116.906 25.4849 116.843C25.4639 116.764 25.4402 116.682 25.4192 116.603C25.4008 116.543 25.385 116.483 25.3693 116.425C25.3482 116.341 25.3219 116.251 25.3009 116.167C25.2852 116.107 25.2694 116.049 25.2536 115.988C25.23 115.894 25.2063 115.797 25.1827 115.699C25.1669 115.642 25.1564 115.589 25.1406 115.531C25.1143 115.413 25.0828 115.289 25.0565 115.166C25.0486 115.129 25.0381 115.095 25.0329 115.061C24.9987 114.903 24.9645 114.74 24.933 114.574C24.9225 114.519 24.912 114.467 24.9014 114.412C24.8804 114.301 24.8568 114.188 24.8384 114.075C24.8252 114.007 24.8147 113.933 24.8016 113.862C24.7832 113.762 24.7648 113.66 24.749 113.56C24.7359 113.484 24.7254 113.405 24.7122 113.329C24.6965 113.229 24.6807 113.129 24.6649 113.029C24.6518 112.948 24.6439 112.864 24.6308 112.779C24.615 112.68 24.6045 112.582 24.5913 112.483C24.5808 112.396 24.5703 112.306 24.5598 112.22C24.5467 112.12 24.5361 112.023 24.5256 111.923C24.5151 111.833 24.5046 111.744 24.4993 111.652C24.4888 111.552 24.4783 111.45 24.4704 111.35C24.4626 111.255 24.4547 111.163 24.4494 111.069C24.4415 110.969 24.431 110.864 24.4284 110.761C24.4205 110.664 24.4152 110.569 24.41 110.472C24.4047 110.37 24.3968 110.262 24.3916 110.157C24.3863 110.059 24.3811 109.962 24.3785 109.862C24.3732 109.757 24.3706 109.647 24.3679 109.539C24.3679 109.439 24.3627 109.339 24.3601 109.239C24.3601 109.132 24.3601 109.021 24.3548 108.911V108.606C24.3548 108.496 24.3548 108.383 24.3548 108.27C24.3548 108.167 24.3548 108.062 24.3601 107.96C24.3601 107.847 24.3679 107.733 24.3706 107.618C24.3758 107.513 24.3785 107.408 24.3837 107.3C24.389 107.184 24.3969 107.066 24.4047 106.95C24.4126 106.845 24.4179 106.737 24.4258 106.63C24.4336 106.509 24.4442 106.391 24.452 106.27C24.4626 106.165 24.4704 106.054 24.4783 105.949C24.4915 105.825 24.502 105.702 24.5151 105.578C24.5283 105.471 24.5361 105.363 24.5493 105.255C24.5651 105.129 24.5808 105 24.5966 104.874C24.6124 104.766 24.6229 104.659 24.6386 104.551C24.6597 104.417 24.6781 104.285 24.6991 104.151C24.7149 104.049 24.728 103.941 24.7464 103.839C24.77 103.697 24.7963 103.55 24.8226 103.405C24.841 103.308 24.8541 103.21 24.8752 103.113C24.9067 102.948 24.9409 102.779 24.975 102.614C24.9908 102.535 25.0039 102.459 25.0223 102.38C25.0749 102.133 25.1301 101.886 25.1905 101.639C25.2037 101.589 25.2142 101.539 25.2273 101.492C25.2746 101.3 25.3219 101.108 25.3719 100.914C25.1485 100.493 24.9172 100.062 24.6807 99.6363C24.6124 99.5101 24.5388 99.3813 24.4652 99.2578C24.3206 99.0002 24.1735 98.7401 24.0263 98.4825C24.0026 98.6113 23.9764 98.7401 23.9553 98.8662C23.9343 98.9819 23.9106 99.1001 23.8923 99.2158C23.8555 99.426 23.8239 99.631 23.7924 99.8386C23.7766 99.9332 23.7635 100.023 23.7477 100.117C23.703 100.414 23.6636 100.711 23.6294 101.006C23.6242 101.042 23.6216 101.076 23.6163 101.113C23.5874 101.371 23.5585 101.626 23.5348 101.881C23.5243 101.981 23.5164 102.078 23.5112 102.178C23.4928 102.367 23.4796 102.556 23.4665 102.745C23.4586 102.856 23.4507 102.966 23.4455 103.082C23.435 103.255 23.4244 103.429 23.4192 103.599C23.4139 103.712 23.4087 103.825 23.406 103.938C23.4008 104.107 23.3955 104.275 23.3903 104.438C23.3903 104.548 23.385 104.661 23.385 104.774V105.589C23.385 105.765 23.3929 105.936 23.3955 106.109C23.3955 106.204 23.4008 106.296 23.4034 106.388C23.4113 106.598 23.4218 106.806 23.4297 107.011C23.4297 107.063 23.435 107.113 23.4376 107.166C23.4534 107.423 23.4691 107.681 23.4901 107.936C23.4954 107.996 23.5033 108.059 23.5085 108.122C23.5243 108.312 23.5401 108.498 23.5611 108.685C23.5716 108.774 23.5821 108.861 23.59 108.948C23.6084 109.105 23.6242 109.26 23.6452 109.415C23.6583 109.513 23.6689 109.605 23.682 109.699C23.703 109.844 23.7214 109.991 23.7424 110.133C23.7582 110.228 23.7687 110.322 23.7845 110.417C23.8055 110.556 23.8292 110.698 23.8502 110.837C23.866 110.929 23.8791 111.019 23.8949 111.108C23.9185 111.25 23.9448 111.392 23.9711 111.529C23.9869 111.613 24 111.697 24.0184 111.778C24.0473 111.931 24.0788 112.078 24.1078 112.228C24.1235 112.293 24.134 112.362 24.1472 112.427C24.2365 112.853 24.3311 113.266 24.431 113.665C24.4494 113.731 24.4652 113.797 24.481 113.862C24.5151 113.996 24.5467 114.125 24.5808 114.254C24.6018 114.33 24.6229 114.404 24.6413 114.477C24.6728 114.593 24.7043 114.709 24.7385 114.819C24.7595 114.895 24.7832 114.971 24.8042 115.048C24.8357 115.155 24.8673 115.263 24.8988 115.366C24.9198 115.439 24.9435 115.515 24.9672 115.586C24.9987 115.689 25.0302 115.791 25.0644 115.891C25.0854 115.962 25.1091 116.03 25.1327 116.104L25.138 116.109L25.1327 116.107Z" fill="#00C4C4"/>
<path d="M25.3666 93.4733C25.3456 93.539 25.3193 93.6099 25.2983 93.6782C25.2378 93.8517 25.1853 94.0199 25.1301 94.1881C25.1196 94.2144 25.1117 94.2433 25.1038 94.2696C25.0434 94.4588 24.9855 94.6454 24.9304 94.8294C25.0618 95.0843 25.1905 95.334 25.3193 95.5863C25.364 95.673 25.406 95.7597 25.4507 95.8464C25.5375 96.0199 25.6242 96.1907 25.7083 96.3616C25.7635 96.4719 25.816 96.5797 25.8686 96.6901C25.9396 96.8373 26.0131 96.9871 26.0867 97.1342C26.1393 97.242 26.1892 97.3524 26.2418 97.4601C26.2891 97.56 26.339 97.6572 26.3811 97.7571C26.3916 97.7308 26.4021 97.6993 26.4126 97.673C26.5177 97.3892 26.6308 97.1027 26.749 96.8162C26.7674 96.7768 26.7832 96.7348 26.8016 96.6953C26.9198 96.4089 27.0434 96.1224 27.1721 95.8359C27.18 95.8149 27.1879 95.7991 27.1958 95.7781C27.1879 95.7597 27.18 95.7466 27.1748 95.7282L27.1511 95.6704C27.0355 95.4181 26.9172 95.1631 26.7937 94.903C26.7516 94.8136 26.707 94.7216 26.6649 94.6296C26.5834 94.4562 26.502 94.288 26.4205 94.1119C26.3627 93.9963 26.3075 93.8754 26.2497 93.7571C26.1787 93.6073 26.1078 93.4575 26.0315 93.3051C25.958 93.1526 25.8844 93.0002 25.8108 92.8478C25.7687 92.7637 25.7293 92.6769 25.6873 92.5928C25.6583 92.6743 25.6268 92.7558 25.5979 92.8346C25.5716 92.9135 25.5401 92.9897 25.5138 93.0685C25.4639 93.2078 25.4166 93.3418 25.3719 93.4785L25.3666 93.4733Z" fill="#00C4C4"/>
<path d="M27.1091 103.862C27.1827 104.023 27.2562 104.183 27.3272 104.341C27.4008 104.167 27.4823 103.996 27.5585 103.82C27.5979 103.731 27.6373 103.642 27.6794 103.552C27.8187 103.25 27.9606 102.94 28.1051 102.635C28.0762 102.546 28.0447 102.456 28.0158 102.372L27.9632 102.217C27.9369 102.141 27.9106 102.07 27.8844 101.996C27.8607 101.928 27.8344 101.857 27.8134 101.791C27.8003 101.757 27.7897 101.723 27.774 101.689C27.6873 101.458 27.6031 101.234 27.5164 101.016C27.5059 100.992 27.4954 100.969 27.4901 100.945C27.4376 100.814 27.385 100.685 27.3325 100.553C27.3009 100.635 27.2694 100.716 27.2352 100.798C27.1748 100.953 27.1143 101.105 27.0565 101.26C27.025 101.35 26.9934 101.439 26.9566 101.526C26.933 101.594 26.9041 101.665 26.8804 101.733C26.8541 101.81 26.8252 101.886 26.8016 101.962C26.7727 102.049 26.7411 102.133 26.7122 102.22C26.6912 102.283 26.6675 102.351 26.6465 102.417C26.6176 102.509 26.5861 102.596 26.5572 102.688C26.7017 102.987 26.8436 103.284 26.9803 103.578C27.025 103.676 27.067 103.765 27.1091 103.86L27.1038 103.868L27.1091 103.862Z" fill="#00C4C4"/>
<path d="M26.6754 90.1645C26.6281 90.267 26.5808 90.3695 26.5361 90.472C26.4231 90.7322 26.3127 90.995 26.2024 91.2552C26.184 91.2972 26.1656 91.3393 26.1472 91.3813C26.0263 91.6783 25.9106 91.9726 25.8003 92.267C25.8975 92.4615 25.9869 92.6533 26.0815 92.8452C26.1209 92.9293 26.1629 93.016 26.205 93.0975C26.3417 93.3761 26.4704 93.652 26.6018 93.9227C26.6491 94.0226 26.6965 94.1198 26.7411 94.2197C26.8226 94.3905 26.9041 94.5587 26.9803 94.7269C27.0618 94.903 27.1406 95.0712 27.2221 95.242C27.2562 95.3156 27.293 95.3918 27.3272 95.4654C27.3482 95.4234 27.364 95.3839 27.385 95.3419C27.5742 94.9267 27.774 94.5088 27.9763 94.083C28.0158 93.9963 28.0552 93.9122 28.0972 93.8281C28.1629 93.6888 28.2339 93.5469 28.3022 93.4076C28.3627 93.2867 28.4179 93.1658 28.4809 93.0423C28.544 92.9083 28.615 92.7742 28.6781 92.6376C28.7385 92.5088 28.8016 92.3853 28.8647 92.2565C28.749 91.9595 28.6307 91.6625 28.5072 91.3655C28.4836 91.3051 28.4547 91.242 28.4284 91.1842C28.3285 90.9424 28.2234 90.698 28.1156 90.4588C28.0631 90.3432 28.0131 90.2302 27.9579 90.1146C27.8738 89.928 27.7871 89.7414 27.7004 89.5574C27.6399 89.4286 27.5769 89.3025 27.5164 89.179C27.4534 89.0449 27.3876 88.9161 27.3219 88.7821C27.2562 88.9188 27.1879 89.0528 27.1248 89.1895C27.0644 89.3156 27.0039 89.4418 26.9461 89.5653C26.8515 89.765 26.7648 89.9648 26.6754 90.1645Z" fill="#00C4C4"/>
<path d="M27.9895 119.126C28.0105 119.063 28.0263 118.998 28.0473 118.932C28.0657 118.874 28.0788 118.814 28.0972 118.753C28.1156 118.687 28.134 118.619 28.1524 118.551C28.1708 118.49 28.184 118.425 28.2024 118.362C28.2208 118.293 28.2392 118.222 28.2576 118.149C28.276 118.083 28.2891 118.009 28.3075 117.941C28.3259 117.868 28.3417 117.797 28.3601 117.72C28.3785 117.649 28.3916 117.576 28.41 117.502C28.4284 117.426 28.4415 117.35 28.4599 117.274C28.4757 117.197 28.4915 117.119 28.5072 117.042C28.523 116.963 28.5388 116.885 28.5545 116.803C28.5703 116.722 28.5834 116.64 28.5992 116.556C28.615 116.475 28.6281 116.393 28.6413 116.309C28.657 116.225 28.6675 116.138 28.6807 116.051C28.6938 115.967 28.7043 115.881 28.7175 115.797C28.7306 115.707 28.7411 115.618 28.7516 115.531C28.7648 115.444 28.7727 115.355 28.7832 115.268C28.7937 115.176 28.8042 115.084 28.8121 114.99C28.8226 114.9 28.8331 114.811 28.8384 114.722C28.8489 114.624 28.8541 114.53 28.8594 114.433C28.8673 114.341 28.8752 114.251 28.8804 114.157C28.8883 114.057 28.8909 113.96 28.8988 113.86C28.9041 113.765 28.9093 113.67 28.9146 113.573C28.9198 113.473 28.9198 113.371 28.9225 113.271C28.9225 113.174 28.9277 113.076 28.9304 112.977V112.369C28.9304 112.264 28.9225 112.157 28.9198 112.049C28.9198 111.949 28.9146 111.849 28.9093 111.749C28.9041 111.642 28.8962 111.531 28.8883 111.421C28.8804 111.321 28.8752 111.218 28.8673 111.116C28.8568 111.006 28.8463 110.895 28.8357 110.779C28.8252 110.677 28.8147 110.574 28.8068 110.469C28.7937 110.356 28.7779 110.243 28.7648 110.13C28.749 110.028 28.7411 109.92 28.7227 109.818C28.7043 109.702 28.6859 109.586 28.6649 109.471C28.6465 109.366 28.6334 109.26 28.6124 109.155C28.5913 109.037 28.565 108.916 28.5414 108.798C28.5204 108.695 28.502 108.59 28.4809 108.485C28.4547 108.364 28.4231 108.241 28.3942 108.117C28.3706 108.015 28.3469 107.91 28.3206 107.807C28.2891 107.681 28.2523 107.552 28.2181 107.429C28.1919 107.329 28.1629 107.226 28.134 107.126C28.0946 106.992 28.0499 106.864 28.0079 106.73C27.9763 106.632 27.9474 106.535 27.9133 106.438C27.8633 106.293 27.8108 106.143 27.7556 105.999C27.7267 105.915 27.6951 105.831 27.6636 105.747C27.5742 105.515 27.4823 105.284 27.3798 105.053C27.3666 105.019 27.3535 104.99 27.3403 104.956C27.3035 105.045 27.2668 105.134 27.2326 105.221C27.1853 105.334 27.138 105.447 27.0959 105.56C27.0565 105.663 27.0197 105.765 26.9829 105.868C26.9409 105.986 26.8962 106.104 26.8541 106.222C26.8226 106.32 26.7937 106.414 26.7595 106.514C26.7201 106.638 26.6781 106.761 26.6413 106.885C26.615 106.977 26.5887 107.063 26.565 107.155C26.5283 107.284 26.4915 107.413 26.4573 107.539C26.4363 107.623 26.4152 107.707 26.3968 107.791C26.3653 107.925 26.3311 108.057 26.2996 108.191C26.2812 108.27 26.2681 108.348 26.2497 108.427C26.2208 108.564 26.1892 108.698 26.1656 108.835C26.1498 108.908 26.1393 108.982 26.1262 109.058C26.1025 109.197 26.0762 109.334 26.0552 109.473C26.0447 109.542 26.0342 109.613 26.0263 109.684C26.0053 109.823 25.9842 109.965 25.9658 110.104C25.958 110.167 25.9501 110.233 25.9448 110.296C25.9264 110.438 25.9133 110.582 25.8975 110.724C25.8922 110.785 25.887 110.845 25.8817 110.903C25.8686 111.048 25.8581 111.192 25.8476 111.334C25.8476 111.392 25.8423 111.444 25.8371 111.502C25.8292 111.647 25.8187 111.794 25.816 111.936C25.816 111.988 25.816 112.038 25.8108 112.091C25.8055 112.235 25.8029 112.383 25.8003 112.525V113.1C25.8003 113.147 25.8003 113.195 25.8055 113.239C25.8055 113.381 25.8134 113.526 25.8187 113.665C25.8187 113.71 25.8239 113.755 25.8265 113.799C25.8344 113.938 25.8423 114.08 25.8476 114.217C25.8476 114.259 25.8555 114.299 25.8581 114.341C25.8686 114.48 25.8791 114.619 25.8896 114.756C25.8896 114.795 25.8975 114.835 25.9028 114.877C25.9159 115.013 25.929 115.147 25.9448 115.279C25.9501 115.318 25.9553 115.355 25.9606 115.394C25.9763 115.526 25.9921 115.655 26.0105 115.783C26.0158 115.82 26.021 115.857 26.0289 115.894C26.0473 116.023 26.0657 116.149 26.0841 116.27C26.0894 116.306 26.0972 116.341 26.1025 116.377C26.1235 116.501 26.1419 116.622 26.1629 116.74C26.1708 116.779 26.1787 116.814 26.184 116.853C26.205 116.966 26.226 117.082 26.247 117.192C26.2549 117.232 26.2654 117.271 26.2707 117.308C26.2917 117.413 26.3154 117.523 26.3364 117.626C26.3443 117.665 26.3548 117.699 26.3601 117.736C26.3811 117.836 26.4047 117.938 26.4284 118.036C26.4389 118.078 26.4494 118.117 26.4573 118.159C26.4783 118.251 26.502 118.341 26.523 118.427C26.5335 118.469 26.544 118.506 26.5545 118.546C26.5756 118.63 26.5992 118.716 26.6202 118.798C26.6334 118.843 26.6439 118.885 26.657 118.929C26.6781 119.003 26.6991 119.076 26.7175 119.147C26.7306 119.192 26.7411 119.234 26.7569 119.279C26.7779 119.345 26.7963 119.413 26.8173 119.473C26.8331 119.526 26.8489 119.573 26.8647 119.623C26.8804 119.673 26.8962 119.723 26.912 119.773C26.9304 119.831 26.9461 119.881 26.9645 119.933C26.9777 119.973 26.9882 120.012 27.0013 120.049C27.0223 120.104 27.0381 120.151 27.0565 120.204C27.067 120.233 27.0775 120.267 27.088 120.299C27.1064 120.348 27.1196 120.391 27.138 120.435C27.1485 120.464 27.159 120.496 27.1695 120.522C27.1932 120.59 27.2194 120.659 27.2431 120.716C27.2852 120.798 27.3219 120.869 27.3561 120.935C27.3561 120.935 27.3561 120.929 27.3561 120.927C27.3745 120.887 27.3903 120.843 27.4087 120.798C27.4139 120.785 27.4192 120.772 27.4271 120.756C27.4455 120.714 27.4612 120.666 27.4823 120.617C27.4901 120.596 27.5007 120.574 27.5059 120.553C27.5243 120.506 27.5427 120.456 27.5637 120.406C27.5742 120.38 27.5848 120.351 27.5926 120.322C27.6137 120.27 27.6294 120.22 27.6505 120.165C27.6636 120.13 27.6741 120.096 27.6873 120.062C27.7083 120.007 27.724 119.954 27.7451 119.896C27.7608 119.857 27.7714 119.815 27.7871 119.773C27.8081 119.715 27.8265 119.657 27.8449 119.594C27.8607 119.55 27.8739 119.5 27.8896 119.455C27.9106 119.394 27.929 119.331 27.9474 119.268C27.9632 119.216 27.979 119.163 27.9947 119.111V119.119L27.9895 119.126Z" fill="#00C4C4"/>
<path d="M23.0696 91.4417C23.0696 91.4417 23.0828 91.4627 23.088 91.4733C23.138 91.5574 23.1879 91.6441 23.2352 91.7308C23.2536 91.7624 23.272 91.7965 23.293 91.8307C23.3325 91.899 23.3719 91.97 23.4113 92.0409C23.435 92.0882 23.4639 92.1355 23.4901 92.1802C23.5243 92.2407 23.5585 92.3011 23.5926 92.3616C23.6242 92.4194 23.6583 92.4772 23.6925 92.5376C23.7214 92.5928 23.753 92.6454 23.7845 92.7006C23.8187 92.7637 23.8555 92.8294 23.8922 92.8951C23.9212 92.9503 23.9527 93.0002 23.9816 93.0554C24.021 93.1263 24.0604 93.1973 24.0999 93.2735C24.1261 93.3235 24.1551 93.3734 24.184 93.426C24.226 93.5022 24.2681 93.581 24.3127 93.6599C24.3364 93.7072 24.3653 93.7545 24.389 93.8018C24.4363 93.8885 24.4809 93.9752 24.5283 94.0593C24.5493 94.104 24.5756 94.1461 24.5966 94.1907C24.6465 94.2827 24.6938 94.3721 24.7411 94.4667C24.749 94.4825 24.7595 94.4982 24.7648 94.514C24.7858 94.4509 24.8068 94.3852 24.8252 94.3195C24.8489 94.2433 24.8725 94.1671 24.8962 94.0909C24.9382 93.9595 24.9829 93.8307 25.0276 93.6993C25.0486 93.6336 25.0723 93.5652 25.0933 93.4969C25.1537 93.3235 25.2142 93.15 25.2746 92.9739C25.2852 92.945 25.2957 92.9161 25.3035 92.8898C25.3745 92.6875 25.4481 92.4851 25.5269 92.2775C25.3982 92.0147 25.2694 91.7545 25.1485 91.5048C25.1406 91.4917 25.1353 91.4785 25.1275 91.4654C25.0828 91.3734 25.0381 91.2867 24.9934 91.1973C24.9671 91.1395 24.9356 91.0843 24.9093 91.0291C24.8752 90.9608 24.8436 90.8924 24.8095 90.8267C24.7727 90.7558 24.7385 90.6848 24.7043 90.6112C24.6754 90.5534 24.6465 90.4982 24.6202 90.4404C24.5782 90.3537 24.5335 90.267 24.4915 90.1829C24.4731 90.1461 24.4547 90.1119 24.4363 90.0751C24.3758 89.9568 24.318 89.8412 24.2602 89.7282C24.2602 89.7282 24.2602 89.7229 24.2602 89.7203C23.7608 88.7242 23.3693 87.9595 23.1669 87.5679C22.8147 88.3826 22.4915 89.1999 22.2103 89.9936C22.3916 90.2959 22.6912 90.7926 23.0618 91.4365H23.0696V91.4417Z" fill="#00C4C4"/>
<path d="M23.3009 87.2841C23.4744 87.6152 23.9947 88.6218 24.6781 89.9963C24.6859 90.012 24.6938 90.0252 24.6991 90.0383C24.7595 90.154 24.8173 90.2749 24.8778 90.3958C24.8883 90.4168 24.8988 90.4378 24.9093 90.4562C24.9698 90.5718 25.025 90.6901 25.088 90.811C25.1012 90.8346 25.1117 90.8583 25.1222 90.882C25.1826 91.0055 25.2457 91.1316 25.3062 91.2578C25.3167 91.2762 25.3246 91.2919 25.3325 91.313C25.3982 91.4496 25.4665 91.5863 25.5348 91.7256C25.5401 91.7387 25.548 91.7466 25.5532 91.7597C25.5848 91.8281 25.6189 91.8964 25.6531 91.9647C25.703 91.836 25.7556 91.7072 25.8081 91.5758C25.8607 91.447 25.908 91.3182 25.9632 91.1894C26.0368 91.0107 26.1156 90.8294 26.1918 90.6507C26.2444 90.5272 26.2943 90.4036 26.3495 90.2801C26.4494 90.0594 26.5493 89.836 26.6518 89.6152C26.6886 89.5364 26.7227 89.4575 26.7595 89.3787C26.8962 89.0869 27.0355 88.8005 27.1774 88.5088C27.1669 88.4904 27.159 88.472 27.1511 88.4536C27.0985 88.3616 27.0486 88.2696 26.9934 88.1697C26.9724 88.1329 26.9514 88.0909 26.9304 88.0541C26.8988 87.9937 26.8646 87.9332 26.8305 87.8728C26.8068 87.8281 26.7805 87.7808 26.7569 87.7361C26.7254 87.6756 26.6964 87.6205 26.6623 87.56C26.6386 87.5101 26.6097 87.4601 26.5861 87.4128C26.5572 87.355 26.5256 87.2972 26.4941 87.2368C26.4678 87.1868 26.4415 87.1369 26.4152 87.0896C26.3837 87.0291 26.3548 86.9687 26.3206 86.9109C26.297 86.8609 26.2707 86.811 26.2444 86.7663C26.2129 86.7032 26.1813 86.6402 26.1472 86.5771C26.1261 86.5324 26.1025 86.4904 26.0815 86.4457C26.0447 86.3747 26.0079 86.3038 25.9737 86.2276L25.9212 86.1251C25.8791 86.041 25.8371 85.9569 25.795 85.8728C25.7845 85.8517 25.774 85.8307 25.7635 85.8097C25.4034 85.0869 25.088 84.4378 24.8962 84.0383C24.3206 85.0975 23.7819 86.1881 23.293 87.2867L23.3009 87.2841Z" fill="#00C4C4"/>
<path d="M22.2076 90.4615C22.1735 90.4036 22.1445 90.3537 22.1104 90.3038C21.7556 91.3235 21.456 92.3379 21.2194 93.3182L21.1984 93.4207V93.4391C21.2378 93.5022 21.2904 93.581 21.3456 93.6651C21.3535 93.6757 21.3587 93.6862 21.3666 93.694C21.3929 93.7361 21.4244 93.7808 21.4534 93.8255C21.4665 93.8439 21.4744 93.8596 21.4875 93.878C21.5138 93.9201 21.5453 93.9647 21.5742 94.0094C21.5926 94.0331 21.6058 94.0567 21.6216 94.0804C21.6557 94.1329 21.6925 94.1881 21.7293 94.246C21.7424 94.267 21.753 94.2827 21.7661 94.3038C21.816 94.38 21.866 94.4615 21.9212 94.5429C21.9422 94.5718 21.9606 94.6034 21.979 94.6323C22.0158 94.6901 22.0499 94.7427 22.0894 94.8031C22.1104 94.8399 22.1367 94.8767 22.1603 94.9161C22.1945 94.9739 22.2313 95.0265 22.2681 95.0843C22.2917 95.1237 22.3206 95.1658 22.3443 95.2052C22.3811 95.2657 22.4179 95.3235 22.4573 95.3839C22.4836 95.4286 22.5125 95.4733 22.5414 95.518C22.5782 95.5784 22.615 95.6362 22.6544 95.6967C22.6833 95.7466 22.7148 95.7965 22.749 95.8465C22.7858 95.9069 22.8252 95.9674 22.862 96.0278C22.8936 96.0804 22.9277 96.1329 22.9619 96.1881C22.9987 96.2486 23.0355 96.309 23.0723 96.3695C23.1091 96.4299 23.1459 96.493 23.1853 96.5534C23.2194 96.6113 23.2536 96.6691 23.2904 96.7269C23.3298 96.7926 23.3693 96.8609 23.4113 96.9266C23.4455 96.9871 23.4796 97.0423 23.5164 97.1027C23.5585 97.1737 23.6032 97.2446 23.6452 97.3209C23.6767 97.376 23.7083 97.4286 23.7424 97.4838C23.7898 97.5626 23.8371 97.6441 23.8844 97.7256C23.8949 97.744 23.9054 97.7598 23.9133 97.7755C23.9343 97.6809 23.9553 97.5863 23.9763 97.4891C23.9974 97.3892 24.0184 97.2919 24.0421 97.1921C24.0788 97.0291 24.1183 96.8636 24.1603 96.698C24.1813 96.6034 24.205 96.514 24.2286 96.4194C24.2786 96.2249 24.3285 96.0278 24.3837 95.8281C24.4021 95.7624 24.4179 95.6967 24.4363 95.631C24.5072 95.3734 24.5808 95.1132 24.6597 94.8504C24.5177 94.5797 24.3758 94.3143 24.2392 94.0567C24.2286 94.0357 24.2181 94.0173 24.2076 93.9963C24.1472 93.8859 24.0894 93.7755 24.0289 93.6678C24.0079 93.6336 23.9921 93.5994 23.9711 93.5679C23.9212 93.4759 23.8712 93.3866 23.8239 93.2972C23.8029 93.2578 23.7819 93.2184 23.7608 93.1816C23.7135 93.0975 23.6689 93.016 23.6242 92.9345C23.6032 92.8977 23.5821 92.8583 23.5637 92.8215C23.5191 92.7427 23.4744 92.6638 23.4323 92.5876C23.4113 92.5508 23.3903 92.514 23.3719 92.4799C23.3298 92.4036 23.2878 92.3301 23.2457 92.2565C23.2247 92.2223 23.2063 92.1881 23.1853 92.154C23.1459 92.083 23.1064 92.0147 23.067 91.9463C23.046 91.9122 23.0276 91.878 23.0066 91.8439C22.9671 91.7755 22.9304 91.7098 22.8936 91.6441C22.8752 91.6152 22.8594 91.5837 22.841 91.5548C22.8016 91.4864 22.7648 91.4207 22.7254 91.355C22.6781 91.2762 22.6334 91.2 22.5913 91.1264C22.5756 91.1027 22.5624 91.0738 22.5467 91.0502C22.5099 90.9897 22.4757 90.9293 22.4415 90.8714C22.4336 90.8583 22.4231 90.8452 22.4179 90.832C22.3837 90.7716 22.3522 90.719 22.318 90.6638C22.3101 90.6507 22.3022 90.6402 22.297 90.6297C22.2628 90.5692 22.2286 90.514 22.1971 90.4615V90.4667L22.2076 90.4615Z" fill="#00C4C4"/>
<path d="M33.9921 101.915C33.866 99.4916 33.5191 97.0002 32.9593 94.5061C32.9356 94.5403 32.912 94.5771 32.8883 94.6112C32.8515 94.669 32.8147 94.7242 32.7779 94.7821C32.7227 94.8662 32.6702 94.9503 32.6124 95.037C32.5756 95.0974 32.5361 95.1526 32.4993 95.2131C32.4442 95.2998 32.389 95.3892 32.3311 95.4733C32.2943 95.5337 32.2549 95.5941 32.2181 95.652C32.1603 95.7413 32.1051 95.8307 32.0499 95.9227C32.0131 95.9831 31.9737 96.0436 31.9369 96.104C31.8765 96.1986 31.8213 96.2932 31.7608 96.3878C31.724 96.4483 31.6899 96.5061 31.6531 96.5665C31.59 96.669 31.5269 96.7768 31.4639 96.8819C31.4323 96.9345 31.4034 96.9844 31.3693 97.037C31.2852 97.1789 31.1984 97.3234 31.1143 97.468C31.0933 97.5022 31.0749 97.5363 31.0539 97.5705C30.975 97.7072 30.8962 97.8412 30.8173 97.9805C30.8883 98.3195 30.9566 98.6585 31.0171 98.9949C31.0355 99.0948 31.0486 99.1894 31.067 99.2893C31.1091 99.5363 31.1511 99.7807 31.1879 100.023C31.2089 100.151 31.2247 100.277 31.2431 100.401C31.272 100.614 31.3035 100.821 31.3272 101.032C31.3456 101.168 31.3561 101.297 31.3719 101.434C31.3929 101.634 31.4166 101.833 31.4323 102.03C31.4455 102.164 31.456 102.296 31.4665 102.43C31.4823 102.624 31.4954 102.819 31.5085 103.013C31.5164 103.145 31.5269 103.271 31.5322 103.4C31.5427 103.594 31.5532 103.789 31.5585 103.983C31.5637 104.107 31.569 104.228 31.5716 104.348C31.5769 104.553 31.5795 104.756 31.5821 104.958C31.5821 105.063 31.5821 105.174 31.5821 105.276C31.5821 105.513 31.5821 105.744 31.5742 105.975C31.5742 106.044 31.5742 106.115 31.5742 106.18C31.5664 106.482 31.5532 106.785 31.5401 107.079C31.5401 107.103 31.5401 107.129 31.5348 107.153C31.5191 107.418 31.5033 107.686 31.4823 107.946C31.4744 108.033 31.4665 108.117 31.4612 108.201C31.4428 108.401 31.4271 108.598 31.406 108.795C31.3955 108.895 31.385 108.99 31.3745 109.09C31.3535 109.268 31.3325 109.447 31.3114 109.626C31.2983 109.726 31.2852 109.825 31.272 109.925C31.251 110.096 31.2247 110.264 31.1984 110.433C31.1827 110.532 31.1695 110.63 31.1511 110.727C31.1248 110.895 31.0959 111.061 31.067 111.224C31.0486 111.316 31.0355 111.408 31.0171 111.5C30.9855 111.67 30.954 111.836 30.9172 112.004C30.9014 112.083 30.8857 112.164 30.8699 112.243C30.8305 112.43 30.7911 112.616 30.749 112.798C30.7359 112.853 30.7254 112.908 30.7122 112.963C30.6018 113.442 30.4862 113.899 30.3653 114.343C30.3495 114.398 30.3364 114.448 30.318 114.503C30.2707 114.666 30.226 114.829 30.1787 114.987C30.1577 115.058 30.1367 115.126 30.1156 115.197C30.0736 115.337 30.0315 115.471 29.9895 115.607C29.9658 115.681 29.9422 115.754 29.9185 115.825C29.8765 115.952 29.8371 116.075 29.795 116.199C29.7714 116.272 29.7451 116.343 29.7214 116.417C29.6794 116.535 29.6399 116.651 29.5979 116.766C29.5742 116.835 29.548 116.906 29.5217 116.974C29.4796 117.087 29.4376 117.197 29.3955 117.31C29.3719 117.371 29.3482 117.436 29.3246 117.497C29.2799 117.613 29.2352 117.723 29.1905 117.833C29.1695 117.886 29.1485 117.938 29.1301 117.988C29.0749 118.122 29.0223 118.251 28.9671 118.377C28.9566 118.401 28.9461 118.427 28.9356 118.451C28.8725 118.598 28.8095 118.745 28.7464 118.882C28.7254 118.929 28.7043 118.974 28.6859 119.019C28.6439 119.111 28.6045 119.197 28.565 119.284C28.5388 119.342 28.5125 119.392 28.4888 119.447C28.4573 119.515 28.4231 119.586 28.389 119.655C28.3627 119.712 28.3338 119.762 28.3101 119.818L28.2549 119.925C30.0421 117.754 31.4455 115.379 32.4389 112.85C33.6137 109.586 34.134 105.907 33.9869 101.917L33.9921 101.915Z" fill="#00C4C4"/>
<path d="M25.0486 83.7702C25.0565 83.786 25.0618 83.7965 25.0697 83.8123C25.0828 83.8386 25.0959 83.8675 25.1117 83.899C25.1248 83.9227 25.1354 83.9516 25.1485 83.9779C25.1669 84.012 25.1827 84.0488 25.2011 84.0856C25.2168 84.1145 25.23 84.1461 25.2457 84.1802C25.2668 84.2197 25.2852 84.2617 25.3062 84.3038C25.3246 84.3405 25.343 84.38 25.364 84.4194C25.385 84.4614 25.406 84.5035 25.4244 84.5482C25.4455 84.5876 25.4639 84.6296 25.4849 84.6717C25.5085 84.7216 25.5322 84.7689 25.5559 84.8189C25.5742 84.853 25.59 84.8898 25.6084 84.924C25.6373 84.9844 25.6689 85.0475 25.7004 85.1106C25.7162 85.1369 25.7293 85.1684 25.7424 85.1973C25.7766 85.2656 25.8108 85.3366 25.8449 85.4076C25.866 85.4549 25.8923 85.5022 25.9133 85.5469C25.9422 85.6073 25.9711 85.6625 26 85.7229C26.0237 85.7702 26.0473 85.8202 26.071 85.8649C26.1209 85.9647 26.1708 86.0646 26.2208 86.1645C26.2549 86.2328 26.2891 86.3038 26.3259 86.3721C26.3469 86.4168 26.3732 86.4614 26.3942 86.5087C26.4284 86.5744 26.4599 86.6402 26.4941 86.7059C26.5177 86.7532 26.544 86.8031 26.5677 86.8478C26.5992 86.9108 26.6334 86.9766 26.6675 87.0396C26.6886 87.0843 26.7149 87.1264 26.7359 87.171C26.77 87.2367 26.8042 87.3051 26.8384 87.3681C26.862 87.4128 26.8857 87.4575 26.9093 87.4995C26.9409 87.56 26.975 87.6231 27.0092 87.6835C27.0329 87.7282 27.0591 87.7729 27.0802 87.8175C27.1117 87.878 27.1432 87.9358 27.1774 87.9936C27.2011 88.0357 27.2247 88.0777 27.2457 88.1198C27.2668 88.1566 27.2878 88.196 27.3088 88.2328C27.3298 88.1934 27.3456 88.1566 27.3666 88.1198C27.8633 87.2525 28.4757 86.104 29.1275 84.8294C29.1432 84.8005 29.1564 84.7716 29.1721 84.7426C29.2326 84.6218 29.2957 84.5009 29.3561 84.3773C29.3877 84.3143 29.4218 84.2486 29.456 84.1829C28.452 82.0068 27.5979 80.5561 27.3167 80.0961C27.0145 80.5245 26.0999 81.857 25.0407 83.7676H25.0513L25.0486 83.7702Z" fill="#00C4C4"/>
<path d="M20.502 100.99C20.5151 101.326 20.5309 101.657 20.5572 101.986C20.975 107.184 22.6255 112.488 25.4665 117.781C25.2142 117.126 24.954 116.383 24.7017 115.565C24.7017 115.565 24.7017 115.557 24.7017 115.555C24.6465 115.376 24.594 115.197 24.5414 115.016C24.5361 114.998 24.5309 114.982 24.5256 114.961C24.4731 114.779 24.4231 114.59 24.3706 114.401C24.3706 114.393 24.3653 114.385 24.3653 114.38C24.2576 113.975 24.1498 113.557 24.0526 113.124C24.0526 113.113 24.0473 113.103 24.0447 113.092C24 112.898 23.9553 112.701 23.9133 112.498C23.9028 112.456 23.8949 112.414 23.8896 112.372C23.8528 112.196 23.8187 112.017 23.7845 111.836C23.774 111.789 23.7661 111.741 23.7582 111.694C23.7214 111.5 23.6873 111.302 23.6531 111.103C23.6478 111.076 23.6426 111.048 23.6373 111.019C23.5611 110.559 23.4901 110.086 23.4297 109.599C23.4218 109.542 23.4139 109.486 23.4087 109.429C23.3876 109.247 23.364 109.061 23.3482 108.877C23.3403 108.806 23.3325 108.732 23.3272 108.659C23.3088 108.48 23.293 108.299 23.2773 108.12C23.272 108.049 23.2641 107.978 23.2589 107.904C23.2405 107.689 23.2273 107.473 23.2142 107.255C23.2142 107.218 23.2089 107.182 23.2063 107.145C23.1905 106.887 23.18 106.624 23.1721 106.362C23.1721 106.306 23.1721 106.251 23.1669 106.196C23.1616 105.991 23.1564 105.783 23.1537 105.576V104.766C23.1537 104.669 23.1537 104.577 23.159 104.48C23.159 104.293 23.1695 104.104 23.1748 103.912C23.1748 103.825 23.18 103.736 23.1853 103.652C23.1958 103.394 23.2089 103.137 23.2273 102.879C23.2273 102.858 23.2273 102.84 23.2273 102.819C23.2457 102.54 23.2694 102.259 23.293 101.978C23.3009 101.886 23.3114 101.799 23.3193 101.707C23.3403 101.513 23.3587 101.316 23.3798 101.116C23.3929 101.008 23.4034 100.9 23.4192 100.793C23.4402 100.606 23.4691 100.417 23.4928 100.23C23.5085 100.12 23.5217 100.012 23.5401 99.899C23.569 99.6967 23.6031 99.4917 23.6399 99.2893C23.6557 99.1947 23.6689 99.1027 23.6872 99.0081C23.7398 98.719 23.7897 98.4325 23.8502 98.1408C23.6951 97.8727 23.5427 97.6126 23.3929 97.3629C23.3798 97.3419 23.3692 97.3235 23.3587 97.3024C23.2957 97.1973 23.2326 97.0922 23.1721 96.9897C23.1511 96.9529 23.1275 96.9161 23.1064 96.8793C23.0565 96.7952 23.0066 96.7137 22.9593 96.6349C22.933 96.5876 22.9041 96.5429 22.8752 96.4982C22.8331 96.4299 22.7911 96.3616 22.749 96.2932C22.7201 96.2433 22.6886 96.1934 22.657 96.1461C22.6202 96.0856 22.5834 96.0252 22.5466 95.9674C22.5177 95.9174 22.4862 95.8675 22.4547 95.8202C22.4205 95.765 22.389 95.7151 22.3548 95.6599C22.3233 95.6073 22.2917 95.5574 22.2576 95.5074C22.2339 95.468 22.2102 95.4339 22.1866 95.3944C22.0368 95.1553 21.8922 94.9345 21.7635 94.7321C21.7635 94.7321 21.7582 94.7243 21.7582 94.7216C21.7135 94.6533 21.6715 94.5876 21.6294 94.5245C21.6215 94.514 21.6137 94.5035 21.6084 94.493C21.5664 94.4299 21.5269 94.3668 21.4875 94.3064C21.4823 94.2985 21.477 94.2906 21.4744 94.2854C21.435 94.2249 21.3982 94.1697 21.364 94.1145C21.3587 94.104 21.3509 94.0961 21.3456 94.0883C21.3088 94.0331 21.2746 93.9805 21.2431 93.9306C21.2089 93.8754 21.1748 93.8281 21.1432 93.7781C20.6859 96.1566 20.4757 98.5797 20.5177 100.987H20.502V100.99Z" fill="#00C4C4"/>
<path d="M31.0986 97.0186C31.1406 96.9476 31.1853 96.874 31.2273 96.8005C31.2799 96.7137 31.3298 96.6244 31.3824 96.5403C31.4244 96.4693 31.4665 96.401 31.5112 96.33C31.5664 96.2407 31.6163 96.1539 31.6715 96.0698C31.7135 96.0041 31.753 95.9358 31.795 95.8701C31.8528 95.7781 31.908 95.6914 31.9632 95.5994C32 95.539 32.0368 95.4785 32.0736 95.4207C32.1393 95.3156 32.2076 95.2104 32.2733 95.1079C32.2996 95.0685 32.3259 95.0265 32.3522 94.9844C32.4468 94.8399 32.5388 94.6953 32.6307 94.556C32.6386 94.5455 32.6439 94.535 32.6518 94.5271C32.7306 94.4062 32.8095 94.288 32.8857 94.175C32.6649 93.2104 32.4047 92.2223 32.113 91.2394C32.0972 91.1973 32.0867 91.1579 32.0736 91.1237C32.0158 91.2183 31.9395 91.3419 31.8502 91.4917C31.7976 91.5758 31.7451 91.6704 31.682 91.7702C31.6689 91.7913 31.661 91.807 31.6478 91.8281C31.6242 91.8701 31.5953 91.9148 31.569 91.9595C31.5558 91.9805 31.5453 91.9989 31.5322 92.0199C31.4928 92.083 31.4533 92.1539 31.4139 92.2223C31.4139 92.2223 31.4139 92.2223 31.4139 92.2275C31.3771 92.288 31.3403 92.3537 31.3035 92.4194C31.2957 92.4325 31.2878 92.443 31.2825 92.4562C31.2457 92.5219 31.2063 92.5902 31.1669 92.6585C31.159 92.6717 31.1511 92.6822 31.1459 92.698C31.1091 92.761 31.0723 92.832 31.0328 92.8977C31.0197 92.9187 31.0118 92.9371 30.9987 92.9581C30.9619 93.0212 30.9251 93.0896 30.8883 93.1579C30.8725 93.1815 30.862 93.2078 30.8463 93.2315L30.7438 93.4154C30.7227 93.4496 30.7043 93.4838 30.6833 93.5206C30.6544 93.5731 30.6229 93.6257 30.594 93.6809C30.5677 93.7308 30.5414 93.7781 30.5151 93.8254C30.4915 93.8701 30.4652 93.9174 30.4415 93.9647C30.41 94.0252 30.3784 94.0856 30.3417 94.1461C30.3206 94.1829 30.2996 94.2223 30.2812 94.2617C30.2418 94.3327 30.205 94.4036 30.1656 94.4798C30.1472 94.5114 30.134 94.5429 30.1156 94.5744C30.0788 94.6454 30.0394 94.7164 30.0026 94.7926C30.0762 95.037 30.1472 95.2814 30.2208 95.5258C30.2418 95.5915 30.2576 95.6599 30.2759 95.7256C30.3285 95.9122 30.3784 96.1014 30.4284 96.2906C30.452 96.3826 30.4757 96.4719 30.4967 96.5639C30.5388 96.7269 30.5782 96.8898 30.6176 97.0501C30.6413 97.15 30.6649 97.2472 30.6859 97.3471C30.707 97.4417 30.7306 97.5363 30.7516 97.6309C30.7753 97.5889 30.7989 97.5495 30.8226 97.5074C30.8646 97.4365 30.9041 97.3681 30.9461 97.2972C30.9987 97.2078 31.0486 97.1185 31.1038 97.0317V97.0265L31.0986 97.0186Z" fill="#00C4C4"/>
<path d="M29.2326 93.2762C29.1485 93.0423 29.0644 92.811 28.9777 92.5823C28.9277 92.6822 28.8778 92.7847 28.8305 92.8819C28.7753 92.995 28.7201 93.108 28.6649 93.2183C28.5834 93.3865 28.5046 93.5521 28.4231 93.7151C28.3811 93.8018 28.339 93.8885 28.2996 93.9726C28.2076 94.1618 28.1209 94.3511 28.0315 94.5403C28.0053 94.6007 27.9737 94.6612 27.9474 94.719C27.8318 94.966 27.7162 95.2131 27.6058 95.4549C27.5637 95.5416 27.5269 95.6283 27.4901 95.7124L27.4639 95.7729C27.4718 95.7913 27.477 95.8044 27.4849 95.8202C27.6163 96.1093 27.7398 96.3957 27.8607 96.6769C27.8791 96.719 27.8975 96.761 27.9159 96.8031C28.0342 97.0896 28.1472 97.3708 28.2523 97.6494C28.2628 97.673 28.2733 97.7019 28.2838 97.7282C28.3049 97.6861 28.3259 97.6441 28.3443 97.5994C28.5493 97.1579 28.7595 96.7164 28.9724 96.2748C28.9934 96.2328 29.0145 96.1934 29.0329 96.1513C29.2562 95.6967 29.4875 95.2446 29.7188 94.7926C29.7241 94.7821 29.7293 94.7716 29.7346 94.761C29.6163 94.3747 29.4875 93.9884 29.3561 93.602C29.3193 93.4917 29.2773 93.3839 29.2378 93.2735L29.2326 93.2762Z" fill="#00C4C4"/>
<path d="M29.4849 84.6822C29.4481 84.7558 29.4087 84.8294 29.3719 84.9029C29.3141 85.0159 29.2562 85.1263 29.1984 85.2393C29.1616 85.3103 29.1248 85.3813 29.0907 85.4522C29.0328 85.56 28.9803 85.6677 28.9225 85.7728C28.8857 85.8412 28.8515 85.9121 28.8147 85.9805C28.7595 86.0856 28.707 86.1907 28.6518 86.2906C28.6176 86.3537 28.5861 86.4194 28.5519 86.4798C28.4941 86.5849 28.4415 86.6901 28.3837 86.7926C28.3548 86.8477 28.3233 86.9056 28.2943 86.9608C28.2365 87.0659 28.184 87.1684 28.1261 87.2682C28.0999 87.3182 28.071 87.3681 28.0473 87.4128C27.9869 87.5179 27.9317 87.623 27.8738 87.7229C27.8528 87.7597 27.8318 87.8018 27.8108 87.8386C27.7346 87.9778 27.661 88.1066 27.5874 88.2354C27.5532 88.3037 27.5164 88.3747 27.4823 88.4509L27.4586 88.5035V88.5087C27.6005 88.7952 27.7424 89.0843 27.8791 89.3707C27.9028 89.4259 27.929 89.4785 27.9527 89.5311C28.0683 89.7781 28.184 90.0278 28.2943 90.2748C28.3417 90.3799 28.3863 90.4877 28.4336 90.5954C28.5204 90.7926 28.6071 90.9897 28.6886 91.1868C28.7411 91.3129 28.7911 91.4391 28.841 91.5626C28.8962 91.6966 28.9514 91.8307 29.0066 91.9647C29.0302 91.9148 29.0565 91.8675 29.0802 91.8202C29.1012 91.7755 29.1248 91.7308 29.1459 91.6835C29.1958 91.5836 29.2457 91.489 29.2904 91.3944C29.3141 91.3445 29.3403 91.2972 29.364 91.2498C29.4087 91.1631 29.4507 91.0817 29.4928 90.9976C29.519 90.945 29.548 90.8951 29.5716 90.8425C29.6137 90.761 29.6531 90.6848 29.6925 90.6086C29.7162 90.5613 29.7424 90.514 29.7635 90.4693C29.8029 90.3957 29.8397 90.3248 29.8765 90.2512C29.9001 90.2039 29.9264 90.1566 29.9474 90.1119C29.9842 90.0409 30.021 89.9726 30.0552 89.9016C30.0762 89.8622 30.0972 89.8202 30.1156 89.7834C30.1708 89.6809 30.2208 89.581 30.2707 89.4864C30.2917 89.447 30.3101 89.4128 30.3311 89.376C30.36 89.3182 30.3916 89.263 30.4205 89.2078C30.4415 89.171 30.4573 89.1395 30.4757 89.1053C30.502 89.0527 30.5309 89.0028 30.5572 88.9555C30.5756 88.9266 30.5887 88.8977 30.6045 88.8688C30.6281 88.8215 30.6544 88.7742 30.6781 88.7321C30.6938 88.7058 30.707 88.6769 30.7227 88.6506C30.7438 88.6112 30.7648 88.5744 30.7832 88.5376C30.7963 88.514 30.8068 88.4903 30.8226 88.4667C30.841 88.4351 30.8568 88.4036 30.8752 88.3721C30.8857 88.351 30.8962 88.3326 30.9067 88.3142C30.9225 88.2853 30.9356 88.259 30.9514 88.2354C30.9593 88.2223 30.9671 88.2117 30.9724 88.1986C30.9855 88.1776 30.9934 88.1566 31.0039 88.1382C31.0118 88.125 31.0171 88.1171 31.0223 88.1066C31.0302 88.0935 31.0355 88.0856 31.0407 88.0777C31.046 88.0672 31.0512 88.0593 31.0539 88.0541C30.6071 86.8399 30.1183 85.6388 29.5874 84.4693C29.5506 84.5403 29.5164 84.6086 29.4823 84.6795H29.4901L29.4849 84.6822Z" fill="#00C4C4"/>
<path d="M26.1472 117.986C26.1603 118.03 26.1708 118.075 26.1866 118.117V118.125C26.0552 117.571 25.9317 116.956 25.8292 116.293C25.7792 115.973 25.7319 115.639 25.6951 115.3C25.6951 115.284 25.6951 115.271 25.6899 115.255C25.6715 115.09 25.6557 114.924 25.6373 114.756V114.745C25.6216 114.569 25.6084 114.39 25.5953 114.209V114.178C25.5848 114.017 25.5742 113.854 25.5716 113.689C25.5716 113.66 25.5716 113.628 25.5664 113.597C25.5506 113.245 25.5453 112.885 25.548 112.517V112.406C25.548 112.254 25.5532 112.101 25.5611 111.946C25.5611 111.912 25.5611 111.878 25.5611 111.841C25.569 111.657 25.5795 111.468 25.59 111.281C25.59 111.258 25.5953 111.231 25.5953 111.21C25.6084 111.048 25.6189 110.885 25.6347 110.719C25.64 110.669 25.6452 110.619 25.6505 110.572C25.6689 110.404 25.6873 110.235 25.7083 110.065C25.7083 110.044 25.7135 110.02 25.7162 109.999C25.7398 109.81 25.7687 109.618 25.8003 109.423C25.8081 109.376 25.816 109.329 25.8239 109.281C25.8476 109.129 25.8765 108.977 25.9054 108.824C25.9159 108.774 25.9264 108.724 25.9343 108.674C25.9737 108.48 26.0131 108.285 26.0578 108.088C26.0631 108.067 26.0683 108.049 26.0736 108.028C26.1156 107.849 26.1603 107.673 26.2076 107.494C26.2234 107.439 26.2365 107.387 26.2523 107.331C26.297 107.166 26.3443 107 26.3916 106.835C26.4021 106.798 26.4126 106.761 26.4231 106.724C26.4836 106.525 26.5493 106.325 26.6176 106.125C26.6334 106.08 26.6465 106.038 26.6649 105.994C26.7227 105.831 26.7806 105.668 26.8436 105.502C26.8647 105.45 26.8831 105.4 26.9041 105.347C26.9829 105.145 27.0644 104.94 27.1537 104.737C27.1669 104.706 27.18 104.674 27.1958 104.64C27.0696 104.356 26.9382 104.065 26.8016 103.773C26.7674 103.699 26.7332 103.626 26.6991 103.552C26.6176 103.379 26.5335 103.208 26.452 103.032C26.4284 103.113 26.4021 103.192 26.3785 103.274C26.3548 103.355 26.3285 103.439 26.3049 103.521C26.2628 103.662 26.2234 103.807 26.184 103.949C26.1629 104.025 26.1419 104.101 26.1235 104.175C26.0815 104.33 26.0421 104.485 26.0053 104.64C25.9895 104.701 25.9763 104.761 25.9606 104.819C25.8581 105.247 25.7661 105.67 25.6846 106.088C25.6715 106.149 25.6636 106.204 25.6531 106.262C25.6268 106.409 25.5979 106.559 25.5742 106.706C25.5611 106.779 25.5506 106.853 25.5375 106.927C25.5164 107.058 25.4954 107.184 25.477 107.313C25.4639 107.392 25.456 107.471 25.4455 107.549C25.4271 107.67 25.4139 107.791 25.3982 107.912C25.3877 107.994 25.3771 108.072 25.3693 108.151C25.3561 108.27 25.343 108.385 25.3325 108.501C25.3246 108.58 25.3167 108.659 25.3114 108.737C25.3009 108.856 25.2904 108.971 25.2825 109.087C25.2773 109.161 25.2694 109.237 25.2641 109.31C25.2562 109.431 25.2484 109.549 25.2431 109.668C25.2378 109.733 25.2352 109.804 25.23 109.87C25.2221 110.007 25.2168 110.138 25.2142 110.272C25.2142 110.322 25.2089 110.372 25.2089 110.419C25.2037 110.598 25.2011 110.779 25.1984 110.956V111.481C25.1984 111.547 25.1984 111.613 25.2037 111.676C25.2037 111.781 25.2089 111.891 25.2116 111.996C25.2116 112.067 25.2168 112.136 25.2195 112.207C25.2247 112.306 25.2273 112.401 25.2326 112.501C25.2378 112.572 25.2405 112.643 25.2457 112.716C25.251 112.811 25.2589 112.9 25.2641 112.992C25.2694 113.063 25.2746 113.134 25.2825 113.205C25.2904 113.297 25.2983 113.384 25.3036 113.473C25.3114 113.542 25.3167 113.613 25.3246 113.678L25.3535 113.944C25.3614 114.007 25.3693 114.075 25.3745 114.138C25.385 114.23 25.3955 114.317 25.4087 114.406C25.4166 114.467 25.4244 114.525 25.4297 114.585C25.4455 114.69 25.4586 114.793 25.4744 114.895C25.4796 114.934 25.4875 114.977 25.4928 115.016C25.5138 115.155 25.5375 115.292 25.5611 115.429C25.5716 115.481 25.5821 115.531 25.5874 115.584C25.6032 115.668 25.6163 115.752 25.6347 115.833C25.6478 115.894 25.6557 115.949 25.6689 116.007C25.6846 116.08 25.6978 116.154 25.7135 116.225C25.7267 116.285 25.7372 116.343 25.7503 116.401C25.7661 116.467 25.7792 116.538 25.795 116.601C25.8082 116.661 25.8213 116.716 25.8344 116.774C25.8502 116.837 25.8633 116.903 25.8817 116.963C25.8975 117.021 25.908 117.074 25.9238 117.132C25.9396 117.192 25.9553 117.255 25.9711 117.313C25.9869 117.368 25.9974 117.418 26.0131 117.471C26.0315 117.531 26.0447 117.592 26.0631 117.649C26.0788 117.699 26.0894 117.749 26.1051 117.797C26.1235 117.857 26.1393 117.917 26.1577 117.975V117.98L26.1472 117.986Z" fill="#00C4C4"/>
<path d="M30.3495 97.0107C30.3049 96.8294 30.2602 96.6454 30.2129 96.4641C30.1892 96.3642 30.1603 96.267 30.134 96.1671C30.092 96.0147 30.0526 95.8596 30.0079 95.7072C29.979 95.5994 29.9474 95.4891 29.9133 95.3813C29.887 95.2867 29.8581 95.1973 29.8318 95.1027C29.8108 95.1448 29.7871 95.1868 29.7687 95.2289C29.548 95.6573 29.3298 96.0909 29.117 96.5245C29.0959 96.5692 29.0723 96.6165 29.0513 96.6638C28.8331 97.1159 28.6202 97.5653 28.4126 98.0173C28.4074 98.0278 28.4021 98.0383 28.3969 98.0488C28.4021 98.0646 28.4074 98.0804 28.4152 98.0962C28.5467 98.4483 28.6702 98.8031 28.7884 99.1553C28.8042 99.2026 28.82 99.2472 28.8357 99.2945C28.9514 99.6441 29.0565 99.991 29.159 100.341C29.1695 100.377 29.18 100.414 29.1932 100.448C29.2378 100.362 29.2852 100.275 29.3325 100.188C29.3824 100.096 29.4297 100.004 29.477 99.9122C29.5559 99.7624 29.6373 99.6152 29.7162 99.4654C29.7582 99.3892 29.7976 99.3129 29.8397 99.2367C29.9422 99.0501 30.0447 98.8609 30.1472 98.6796C30.1682 98.6454 30.1866 98.6086 30.2076 98.5745C30.3259 98.3616 30.4468 98.1513 30.5651 97.9437C30.5125 97.7046 30.4599 97.4628 30.4021 97.221C30.3837 97.1527 30.3679 97.0817 30.3495 97.0134V97.0107Z" fill="#00C4C4"/>
<path d="M31.7687 90.1198C31.498 89.2972 31.272 88.698 31.1537 88.3879C31.1248 88.4457 31.088 88.5114 31.046 88.585C31.0381 88.6008 31.0302 88.6113 31.025 88.627C31.0171 88.6402 31.0092 88.6533 31.0039 88.6665C30.9829 88.7033 30.9645 88.7374 30.9435 88.7768C30.9435 88.7768 30.9382 88.7847 30.9382 88.79C30.707 89.2157 30.3679 89.8465 29.9632 90.6376C29.9553 90.6533 29.9448 90.6691 29.9396 90.6849C29.8975 90.769 29.8528 90.8531 29.8081 90.9398C29.7845 90.9871 29.7582 91.037 29.7346 91.0843C29.7083 91.1395 29.6767 91.1921 29.6505 91.2499C29.6084 91.3314 29.5664 91.4181 29.5217 91.5022C29.5085 91.5259 29.498 91.5521 29.4849 91.5758C29.4323 91.6783 29.3798 91.786 29.3246 91.8938C29.3193 91.9017 29.3167 91.9096 29.3114 91.9148C29.251 92.0305 29.1932 92.1487 29.1327 92.2696C29.2773 92.6454 29.4166 93.0291 29.5506 93.4128C29.59 93.5285 29.6268 93.6441 29.6662 93.7598C29.7424 93.9884 29.8213 94.2171 29.8949 94.4483C29.9133 94.4168 29.929 94.3879 29.9448 94.3537C29.9763 94.2933 30.0053 94.2381 30.0394 94.1803C30.0815 94.104 30.1209 94.0305 30.1603 93.9542C30.1919 93.8964 30.2208 93.8386 30.2549 93.7808C30.2944 93.7098 30.3311 93.6415 30.3679 93.5705C30.3968 93.5153 30.4284 93.4602 30.4599 93.405C30.4967 93.3366 30.5335 93.2683 30.5703 93.2026C30.5966 93.1527 30.6255 93.1027 30.6518 93.0554C30.6912 92.9871 30.728 92.9188 30.7648 92.8531C30.7884 92.811 30.8147 92.7637 30.8384 92.7217C30.8857 92.6376 30.933 92.5561 30.9777 92.4772C31.0171 92.4089 31.0539 92.3432 31.0907 92.2801C31.117 92.2354 31.1432 92.1881 31.1669 92.1461C31.1958 92.0935 31.2247 92.0462 31.2536 91.9989C31.2746 91.9621 31.2957 91.928 31.3141 91.8938C31.343 91.8412 31.3745 91.7939 31.4008 91.7466C31.4166 91.7203 31.4323 91.6914 31.4481 91.6651C31.477 91.6152 31.5059 91.5679 31.5348 91.5232C31.548 91.5022 31.5585 91.4838 31.5716 91.4628C31.6005 91.4128 31.6294 91.3682 31.6557 91.3235C31.6636 91.313 31.6689 91.3025 31.6767 91.292C31.7057 91.242 31.7346 91.1973 31.7608 91.1553C31.8765 90.9687 31.9553 90.8425 31.9842 90.7926C31.9159 90.5666 31.8449 90.3379 31.774 90.1172V90.1119L31.7687 90.1198Z" fill="#00C4C4"/>
</svg>
