<svg width="200" height="200" viewBox="0 0 200 200" fill="none" xmlns="http://www.w3.org/2000/svg">
<g clip-path="url(#clip0_6598_2053)">
<path fill-rule="evenodd" clip-rule="evenodd" d="M100 57.0071C75.8819 57.0071 53.9981 61.8871 38.1468 69.754C22.4012 77.5621 12.6411 88.3217 12.6411 100.128C12.6411 111.934 22.4012 122.682 38.1468 130.502C53.9981 138.369 75.8819 143.249 100 143.249C124.118 143.249 146.002 138.369 161.853 130.502C177.599 122.682 187.359 111.934 187.359 100.128C187.359 88.3217 177.599 77.5738 161.853 69.754C146.002 61.8871 124.118 57.0071 100 57.0071ZM100 56.0193C124.283 56.0193 146.331 60.9346 162.312 68.8721C178.398 76.8565 188.382 87.9102 188.382 100.116C188.382 112.322 178.41 123.376 162.312 131.36C146.331 139.286 124.283 144.213 100 144.213C75.7173 144.213 53.6689 139.298 37.6881 131.36C21.6016 123.376 11.6181 112.322 11.6181 100.116C11.6181 87.9102 21.5898 76.8565 37.6881 68.8721C53.6689 60.9464 75.7173 56.0193 100 56.0193ZM144.685 116.638V83.0419H154.574V96.4826L164.217 83.0419H175.741L162.97 99.3166L176.07 116.65H163.829L154.563 102.927V116.65H144.673L144.685 116.638ZM100.094 116.638L104.986 83.0419H114.875L120.543 102.727L126.211 83.0419H136.101L140.992 116.638H131.491L129.139 98.3053L123.812 116.638H117.286L111.959 98.3053L109.607 116.638H100.106H100.094ZM96.3899 83.0301V116.626H86.5005V91.0851H80.2563V104.338C80.2563 108.23 79.6801 111.687 76.7286 114.58C73.7888 117.473 67.5212 117.39 63.6524 116.614V108.548C64.1463 108.689 65.2164 108.889 66.0042 108.889C70.2963 108.841 70.3669 104.937 70.3669 101.551V83.0183H96.3782L96.3899 83.0301ZM29.9153 116.638V83.0419H39.8048V95.142H50.7526V83.0419H60.642V116.638H50.7526V103.197H39.8048V116.638H29.9153ZM100 51.4802C151.811 51.4802 194.073 73.3288 194.073 100.116C194.073 126.904 151.811 148.752 100 148.752C48.1891 148.752 5.91486 126.904 5.91486 100.116C5.91486 73.3288 48.1773 51.4802 100 51.4802ZM100 47C155.08 47 200 70.8594 200 100.116C200 129.373 155.08 153.232 100 153.232C44.92 153.232 0 129.373 0 100.116C0 70.8594 44.92 47 100 47Z" fill="#0C54A0"/>
</g>
<defs>
<clipPath id="clip0_6598_2053">
<rect width="200" height="106.244" fill="white" transform="translate(0 47)"/>
</clipPath>
</defs>
</svg>
