<svg width="200" height="200" viewBox="0 0 200 200" fill="none" xmlns="http://www.w3.org/2000/svg">
<g clip-path="url(#clip0_6463_618)">
<path d="M59.3986 96.5643C54.5179 96.5643 50.5586 92.4872 50.5586 87.458C50.5586 82.4293 54.5179 78.3522 59.3986 78.3522C64.2784 78.3522 68.2378 82.4293 68.2378 87.458C68.2378 92.4872 64.2784 96.5643 59.3986 96.5643ZM59.327 69.9416C48.6229 69.9416 40.8655 77.2765 40.8655 87.4602C40.8655 97.6416 48.6229 104.977 59.327 104.977C70.0311 104.977 77.7891 97.6416 77.7891 87.4602C77.7891 77.2765 70.0311 69.9416 59.327 69.9416Z" fill="#0081C7"/>
<path d="M199.142 103.801H188.092L180.865 93.8286L173.571 103.801H162.652L175.149 86.7864L163.742 71.1163H174.789L180.993 79.7996L187.171 71.1163H198.083L186.709 86.7236L199.142 103.801Z" fill="#0081C7"/>
<path d="M0.552704 103.801V71.1163H10.2059L24.6843 89.8489V71.1163H34.0851V103.801H24.6192L9.9535 84.973V103.801H0.552704Z" fill="#0081C7"/>
<path d="M111.56 99.9098C114.173 99.9098 116.674 100.945 119.173 103.363C110.468 102.561 100.237 111.836 92.2577 111.836C90.1515 111.836 88.2298 111.126 86.5824 109.369C94.0798 109.369 103.121 99.9098 111.56 99.9098Z" fill="#0081C7"/>
<path d="M93.908 104.37C87.7058 87.0891 84.1757 76.5797 77.0034 71.0323C78.6751 70.8109 79.9132 70.7192 81.4303 70.7192C93.6964 70.7192 94.7046 77.3503 100.389 97.0306C103.607 92.9495 107.711 84.7972 107.711 77.1613C107.711 73.9362 106.9 72.4536 105.649 71.1158C107.556 70.8899 109.358 70.7112 111.196 70.7192C116.042 70.7457 118.344 72.6531 118.344 77.7228C118.344 86.078 109.625 98.2872 104.952 102.489L99.429 104.37H93.908Z" fill="#0081C7"/>
<path d="M141.83 77.9735C145.829 77.9735 148.581 80.4711 149.561 83.9216H134.162C135.092 80.6377 138.127 77.9735 141.83 77.9735ZM159.401 90.4369C159.553 89.4754 159.653 88.4851 159.653 87.4602C159.653 77.276 152.463 69.9416 141.758 69.9416C132.569 69.9416 123.864 77.276 123.864 87.4602C123.864 97.6416 131.622 104.978 142.326 104.978C149.024 104.978 153.636 102.282 157.103 99.1893L152.473 92.8163C150.319 94.6441 146.931 96.5636 142.586 96.5636C138.596 96.5636 135.101 94.4551 133.956 90.4369H159.401Z" fill="#0081C7"/>
<path d="M4.79236 129.224C5.69196 129.224 6.39446 129.002 6.91212 128.558C7.44203 128.114 7.70079 127.523 7.70079 126.796C7.70079 125.526 6.91212 124.688 5.86469 124.491C6.51778 124.245 7.0108 123.604 7.0108 122.716C7.0108 121.386 6.01251 120.597 4.47194 120.597H0.552963V129.224H4.79236ZM1.90843 125.267H4.54585C5.61805 125.267 6.23439 125.748 6.23439 126.599C6.23439 127.474 5.59341 127.979 4.54585 127.979H1.90843V125.267ZM1.90843 121.841H4.23768C5.13742 121.841 5.66746 122.223 5.66746 122.95C5.66746 123.678 5.13742 124.072 4.23768 124.072H1.90843V121.841ZM12.1498 129.384C12.8646 129.384 13.5054 129.224 14.0846 128.891V127.757C13.5793 128.065 13.0003 128.213 12.3593 128.213C11.7553 128.213 11.2502 128.028 10.8311 127.646C10.4244 127.264 10.2149 126.771 10.2149 126.192C10.2149 125.613 10.4244 125.132 10.8311 124.75C11.2502 124.368 11.7553 124.183 12.3593 124.183C12.9014 124.183 13.4439 124.319 13.986 124.577V123.431C13.4561 123.148 12.8399 123.012 12.1621 123.012C11.2502 123.012 10.4738 123.308 9.83281 123.9C9.20435 124.491 8.88393 125.255 8.88393 126.179C8.88393 127.116 9.20435 127.88 9.83281 128.484C10.4738 129.088 11.2502 129.384 12.1498 129.384ZM15.1692 126.192C15.1692 127.141 15.4896 127.905 16.1304 128.496C16.7835 129.088 17.5723 129.384 18.509 129.384C19.4456 129.384 20.185 129.187 20.7395 128.792V127.671C20.1358 128.028 19.4949 128.213 18.7924 128.213C17.5599 128.213 16.6726 127.609 16.5125 126.586H21.1464V126.241C21.1464 125.144 20.7643 124.146 19.8646 123.505C19.4209 123.172 18.8909 123.012 18.2748 123.012C17.3505 123.012 16.6111 123.32 16.0319 123.924C15.4526 124.528 15.1692 125.292 15.1692 126.192ZM16.5248 125.576C16.6111 124.787 17.2397 124.134 18.2132 124.134C18.7061 124.134 19.0881 124.282 19.3715 124.577C19.6552 124.873 19.7906 125.206 19.803 125.576H16.5248ZM16.4262 121.915C16.722 122.199 17.1903 122.199 17.4738 121.915C17.7572 121.62 17.7572 121.151 17.4738 120.868C17.1903 120.572 16.722 120.572 16.4262 120.868C16.1304 121.151 16.1304 121.62 16.4262 121.915ZM18.9773 121.915C19.273 122.199 19.7414 122.199 20.0249 121.915C20.3083 121.62 20.3083 121.151 20.0249 120.868C19.7414 120.572 19.273 120.572 18.9773 120.868C18.6816 121.151 18.6816 121.62 18.9773 121.915ZM26.4456 130.887V129.224H31.4369V130.887H32.6939V128.053H31.6464V123.172H26.8277C26.8153 124.516 26.7538 125.539 26.6182 126.266C26.495 126.981 26.2731 127.572 25.9527 128.053H25.1639V130.887H26.4456ZM27.3577 128.053C27.8136 127.153 28.0477 125.921 28.0477 124.343H30.3154V128.053H27.3577ZM38.4123 124.343V129.224H39.7432V123.172H34.863L34.826 125.144C34.7891 127.252 34.4809 128.09 33.6059 128.09C33.5196 128.09 33.4211 128.077 33.3348 128.053V129.199C33.458 129.236 33.5935 129.248 33.7538 129.248C34.9739 129.199 35.5655 128.533 35.8365 127.461C36.0461 126.685 36.0953 126.106 36.1076 125.218L36.1323 124.343H38.4123ZM42.6516 129.224L44.1551 127.141H45.6217V129.224H46.9527V123.172H43.7731C42.2573 123.172 41.4931 123.961 41.4931 125.083C41.4931 126.007 41.9862 126.66 42.8365 126.87L41.1235 129.224H42.6516ZM43.9581 126.069C43.2556 126.069 42.8489 125.736 42.8489 125.157C42.8489 124.577 43.2556 124.245 43.9581 124.245H45.6217V126.069H43.9581ZM52.671 131.75C53.6693 131.75 54.4333 131.121 54.9755 129.877L57.8717 123.172H56.4298L54.6675 127.437L52.8435 123.172H51.3647L54.0142 129.002C53.5584 130.086 53.1393 130.579 52.4491 130.579C52.1411 130.579 51.8453 130.518 51.574 130.382V131.553C51.8083 131.688 52.1656 131.75 52.671 131.75ZM58.5866 123.172L60.7802 126.056L58.34 129.224H59.8436L61.5319 127.018L63.2204 129.224H64.7609L62.3207 126.031L64.5144 123.172H62.9986L61.5566 125.046L60.127 123.172H58.5866ZM68.7169 128.213C68.1377 128.213 67.6693 128.016 67.2873 127.634C66.9053 127.252 66.7203 126.771 66.7203 126.192C66.7203 125.625 66.9053 125.144 67.2873 124.762C67.6693 124.38 68.1499 124.183 68.7169 124.183C69.2838 124.183 69.752 124.38 70.1341 124.762C70.5161 125.144 70.7009 125.625 70.7009 126.192C70.7009 126.771 70.5161 127.252 70.1341 127.634C69.752 128.016 69.2838 128.213 68.7169 128.213ZM68.7169 129.384C69.6781 129.384 70.4669 129.076 71.0954 128.459C71.724 127.831 72.032 127.079 72.032 126.192C72.032 125.304 71.724 124.553 71.0954 123.937C70.4669 123.32 69.6781 123.012 68.7169 123.012C67.7432 123.012 66.9545 123.32 66.3261 123.937C65.6975 124.553 65.3893 125.304 65.3893 126.192C65.3893 127.092 65.6975 127.843 66.3261 128.459C66.9545 129.076 67.7432 129.384 68.7169 129.384ZM73.9175 130.887V129.224H78.9088V130.887H80.1659V128.053H79.1183V123.172H74.2996C74.2872 124.516 74.2257 125.539 74.0901 126.266C73.9668 126.981 73.7451 127.572 73.4246 128.053H72.6358V130.887H73.9175ZM74.8295 128.053C75.2855 127.153 75.5196 125.921 75.5196 124.343H77.7873V128.053H74.8295ZM87.1781 128.188C86.8824 128.188 86.6727 127.967 86.6727 127.584V125.329C86.6727 123.85 85.5514 123.012 83.8754 123.012C83.0004 123.012 82.2731 123.185 81.6693 123.53V124.701C82.2485 124.343 82.8895 124.158 83.5796 124.158C84.7626 124.158 85.3541 124.602 85.3541 125.477V125.81C84.7996 125.502 84.1465 125.342 83.4192 125.342C82.7415 125.342 82.1622 125.514 81.6939 125.871C81.2257 126.216 80.9914 126.709 80.9914 127.35C80.9914 127.979 81.2009 128.484 81.6324 128.841C82.0636 129.199 82.6059 129.384 83.2592 129.384C84.1957 129.384 84.9352 129.076 85.4897 128.447C85.6499 129.026 86.0813 129.31 86.7592 129.31C87.0918 129.31 87.3506 129.248 87.5356 129.113V128.102C87.4246 128.164 87.3137 128.188 87.1781 128.188ZM85.3541 127.51C84.9721 127.917 84.319 128.238 83.6289 128.238C82.8524 128.238 82.3225 127.917 82.3225 127.276C82.3225 126.685 82.8524 126.34 83.7398 126.34C84.3066 126.34 84.8489 126.488 85.3541 126.771V127.51ZM94.0918 129.384C94.9669 129.384 95.6816 129.211 96.2116 128.854C96.7415 128.496 97.0125 128.028 97.0125 127.461C97.0125 126.709 96.6306 126.216 95.8542 125.97C96.4704 125.748 96.7785 125.304 96.7785 124.639C96.7785 124.158 96.5319 123.776 96.0513 123.468C95.5706 123.16 94.9546 123.012 94.2274 123.012C93.3401 123.012 92.5883 123.148 91.9598 123.431V124.602C92.6377 124.306 93.3032 124.158 93.9439 124.158C94.9175 124.158 95.4105 124.393 95.4105 124.861C95.4105 125.304 95.0285 125.526 94.2767 125.526H93.1552V126.599H94.2767C95.1639 126.599 95.6076 126.857 95.6076 127.363C95.6076 127.917 94.9546 128.238 93.9069 128.238C93.1922 128.238 92.4897 128.077 91.7872 127.745V128.952C92.391 129.236 93.1552 129.384 94.0918 129.384ZM104.247 128.188C103.951 128.188 103.741 127.967 103.741 127.584V125.329C103.741 123.85 102.62 123.012 100.944 123.012C100.069 123.012 99.3418 123.185 98.7379 123.53V124.701C99.3171 124.343 99.9581 124.158 100.648 124.158C101.831 124.158 102.423 124.602 102.423 125.477V125.81C101.868 125.502 101.215 125.342 100.488 125.342C99.8102 125.342 99.2308 125.514 98.7626 125.871C98.2943 126.216 98.0601 126.709 98.0601 127.35C98.0601 127.979 98.2696 128.484 98.7011 128.841C99.1323 129.199 99.6746 129.384 100.328 129.384C101.264 129.384 102.004 129.076 102.558 128.447C102.719 129.026 103.15 129.31 103.828 129.31C104.16 129.31 104.419 129.248 104.604 129.113V128.102C104.493 128.164 104.382 128.188 104.247 128.188ZM102.423 127.51C102.041 127.917 101.388 128.238 100.698 128.238C99.9211 128.238 99.3912 127.917 99.3912 127.276C99.3912 126.685 99.9211 126.34 100.808 126.34C101.375 126.34 101.918 126.488 102.423 126.771V127.51ZM111.962 129.384C112.676 129.384 113.317 129.224 113.896 128.891V127.757C113.391 128.065 112.812 128.213 112.171 128.213C111.567 128.213 111.062 128.028 110.643 127.646C110.236 127.264 110.027 126.771 110.027 126.192C110.027 125.613 110.236 125.132 110.643 124.75C111.062 124.368 111.567 124.183 112.171 124.183C112.713 124.183 113.256 124.319 113.798 124.577V123.431C113.268 123.148 112.652 123.012 111.974 123.012C111.062 123.012 110.285 123.308 109.645 123.9C109.016 124.491 108.696 125.255 108.696 126.179C108.696 127.116 109.016 127.88 109.645 128.484C110.285 129.088 111.062 129.384 111.962 129.384ZM118.308 128.213C117.729 128.213 117.261 128.016 116.879 127.634C116.497 127.252 116.312 126.771 116.312 126.192C116.312 125.625 116.497 125.144 116.879 124.762C117.261 124.38 117.741 124.183 118.308 124.183C118.875 124.183 119.344 124.38 119.726 124.762C120.108 125.144 120.292 125.625 120.292 126.192C120.292 126.771 120.108 127.252 119.726 127.634C119.344 128.016 118.875 128.213 118.308 128.213ZM118.308 129.384C119.27 129.384 120.058 129.076 120.687 128.459C121.315 127.831 121.624 127.079 121.624 126.192C121.624 125.304 121.315 124.553 120.687 123.937C120.058 123.32 119.27 123.012 118.308 123.012C117.335 123.012 116.546 123.32 115.918 123.937C115.289 124.553 114.981 125.304 114.981 126.192C114.981 127.092 115.289 127.843 115.918 128.459C116.546 129.076 117.335 129.384 118.308 129.384ZM126.048 129.384C126.923 129.384 127.662 129.1 128.254 128.521C128.858 127.942 129.154 127.19 129.154 126.266C129.154 125.44 128.895 124.774 128.377 124.269C127.859 123.764 127.206 123.505 126.418 123.505C125.37 123.505 124.47 123.961 123.965 124.701C123.99 124.306 124.064 123.961 124.187 123.678C124.47 123 125.074 122.519 125.986 122.211C126.344 122.088 127.182 121.903 128.476 121.657V120.424C127.675 120.56 126.997 120.695 126.442 120.831C125.9 120.966 125.37 121.164 124.865 121.41C124.36 121.657 123.965 121.952 123.682 122.297C123.103 122.975 122.745 124.01 122.745 125.403C122.745 126.623 123.028 127.584 123.608 128.312C124.187 129.026 125 129.384 126.048 129.384ZM126.048 128.213C124.828 128.213 124.113 127.35 124.051 125.871C124.446 125.194 125.247 124.651 126.097 124.651C127.095 124.651 127.823 125.329 127.823 126.364C127.823 126.907 127.65 127.35 127.317 127.695C126.984 128.04 126.553 128.213 126.048 128.213ZM133.516 128.213C132.937 128.213 132.469 128.016 132.087 127.634C131.705 127.252 131.52 126.771 131.52 126.192C131.52 125.625 131.705 125.144 132.087 124.762C132.469 124.38 132.949 124.183 133.516 124.183C134.083 124.183 134.552 124.38 134.934 124.762C135.316 125.144 135.5 125.625 135.5 126.192C135.5 126.771 135.316 127.252 134.934 127.634C134.552 128.016 134.083 128.213 133.516 128.213ZM133.516 129.384C134.478 129.384 135.266 129.076 135.895 128.459C136.523 127.831 136.831 127.079 136.831 126.192C136.831 125.304 136.523 124.553 135.895 123.937C135.266 123.32 134.478 123.012 133.516 123.012C132.543 123.012 131.754 123.32 131.126 123.937C130.497 124.553 130.189 125.304 130.189 126.192C130.189 127.092 130.497 127.843 131.126 128.459C131.754 129.076 132.543 129.384 133.516 129.384ZM139.543 129.224L142.809 125.107V129.224H144.14V123.172H142.895L139.629 127.276V123.172H138.298V129.224H139.543ZM141.219 122.359C142.451 122.359 143.339 121.57 143.351 120.325H142.217C142.205 120.917 141.798 121.336 141.207 121.336C140.603 121.336 140.208 120.917 140.208 120.325H139.087C139.099 121.57 139.974 122.359 141.219 122.359ZM150.487 129.224L153.752 125.107V129.224H155.083V123.172H153.839L150.573 127.276V123.172H149.242V129.224H150.487ZM160.777 130.887V129.224H165.768V130.887H167.025V128.053H165.978V123.172H161.159C161.147 124.516 161.085 125.539 160.95 126.266C160.826 126.981 160.604 127.572 160.284 128.053H159.495V130.887H160.777ZM161.689 128.053C162.145 127.153 162.379 125.921 162.379 124.343H164.647V128.053H161.689ZM171.252 128.213C170.673 128.213 170.205 128.016 169.823 127.634C169.441 127.252 169.256 126.771 169.256 126.192C169.256 125.625 169.441 125.144 169.823 124.762C170.205 124.38 170.685 124.183 171.252 124.183C171.819 124.183 172.288 124.38 172.67 124.762C173.052 125.144 173.236 125.625 173.236 126.192C173.236 126.771 173.052 127.252 172.67 127.634C172.288 128.016 171.819 128.213 171.252 128.213ZM171.252 129.384C172.214 129.384 173.002 129.076 173.631 128.459C174.259 127.831 174.568 127.079 174.568 126.192C174.568 125.304 174.259 124.553 173.631 123.937C173.002 123.32 172.214 123.012 171.252 123.012C170.279 123.012 169.49 123.32 168.862 123.937C168.233 124.553 167.925 125.304 167.925 126.192C167.925 127.092 168.233 127.843 168.862 128.459C169.49 129.076 170.279 129.384 171.252 129.384ZM177.316 129.224V124.984L179.152 127.215H179.67L181.518 124.984V129.224H182.8V123.172H181.494L179.411 125.687L177.34 123.172H176.034V129.224H177.316ZM187.594 128.213C187.015 128.213 186.547 128.016 186.165 127.634C185.782 127.252 185.598 126.771 185.598 126.192C185.598 125.625 185.782 125.144 186.165 124.762C186.547 124.38 187.027 124.183 187.594 124.183C188.161 124.183 188.629 124.38 189.011 124.762C189.393 125.144 189.578 125.625 189.578 126.192C189.578 126.771 189.393 127.252 189.011 127.634C188.629 128.016 188.161 128.213 187.594 128.213ZM187.594 129.384C188.555 129.384 189.344 129.076 189.973 128.459C190.601 127.831 190.909 127.079 190.909 126.192C190.909 125.304 190.601 124.553 189.973 123.937C189.344 123.32 188.555 123.012 187.594 123.012C186.62 123.012 185.832 123.32 185.203 123.937C184.575 124.553 184.267 125.304 184.267 126.192C184.267 127.092 184.575 127.843 185.203 128.459C185.832 129.076 186.62 129.384 187.594 129.384ZM193.658 129.224V124.984L195.494 127.215H196.011L197.86 124.984V129.224H199.142V123.172H197.835L195.753 125.687L193.682 123.172H192.376V129.224H193.658Z" fill="#0081C7"/>
</g>
<defs>
<clipPath id="clip0_6463_618">
<rect width="200" height="60.6061" fill="white" transform="translate(0 70)"/>
</clipPath>
</defs>
</svg>
