<svg width="200" height="200" viewBox="0 0 200 200" fill="none" xmlns="http://www.w3.org/2000/svg">
<g clip-path="url(#clip0_7537_124)">
<path d="M65.0978 70H59.934C58.2564 70 56.8906 71.3657 56.8906 73.0433V78.1176H51.5093V73.0433C51.5093 71.3657 50.1435 70 48.466 70H43.7051C42.0259 70 40.6618 71.3657 40.6618 73.0433V92.9104L36.0512 87.3275L35.9712 87.238C35.4595 86.7118 34.7494 86.4112 34.017 86.4112H33.9962C33.259 86.4176 32.5457 86.7278 32.042 87.2636L27.4858 92.8656V73.0433C27.4858 71.3657 26.1201 70 24.4425 70H19.2738C17.5962 70 16.2305 71.3657 16.2305 73.0433V78.0121H10.8491V73.0433C10.8491 71.3657 9.48337 70 7.80579 70H3.04491C1.36573 70 0 71.3657 0 73.0433V125.571C0 127.849 1.8519 129.7 4.12918 129.7H26.6782C28.2838 129.7 29.6703 128.503 29.907 126.916L31.567 115.734C31.6981 114.85 31.3351 113.98 30.6187 113.464C29.0818 112.357 28.1639 110.564 28.1639 108.669C28.1639 107.044 28.8115 105.53 29.9854 104.404C31.1608 103.278 32.7088 102.698 34.3416 102.77C37.4313 102.906 39.9597 105.536 39.9773 108.634C39.9885 110.537 39.0721 112.341 37.5257 113.462C36.8108 113.98 36.4478 114.849 36.5789 115.731L38.2389 126.916C38.4756 128.504 39.8637 129.7 41.4678 129.7H64.012C66.2893 129.7 68.1411 127.849 68.1411 125.571V73.0433C68.1411 71.3657 66.7754 70 65.0978 70ZM51.5077 118.736V113.619H65.1618V118.736H51.5077ZM65.1618 89.3314V94.4489H59.8652V89.3314H65.1618ZM51.5077 86.352V81.2345H65.1618V86.352H51.5077ZM48.5299 86.352H43.6395V81.2345H48.5299V86.352ZM43.6395 93.6317V89.3314H56.8858V94.4489H43.5148C43.5963 94.1898 43.6395 93.9147 43.6395 93.6317ZM65.1618 97.4266V102.544H51.5077V97.4266H65.1618ZM65.1618 105.523V110.641H59.8652V105.523H65.1618ZM56.8858 105.523V110.641H42.7311C42.8815 109.984 42.9582 109.306 42.9534 108.62C42.947 107.535 42.7295 106.494 42.3521 105.523H56.8842H56.8858ZM39.5775 115.645C40.3083 115.066 40.9336 114.38 41.4422 113.619H48.5299V118.736H40.0365L39.5775 115.645ZM59.934 72.9793H65.0978C65.133 72.9793 65.1618 73.0081 65.1618 73.0433V78.2568H59.87V73.0433C59.87 73.0081 59.8988 72.9793 59.934 72.9793ZM43.7051 72.9793H48.466C48.5011 72.9793 48.5299 73.0081 48.5299 73.0433V78.2568H43.6395V73.0433C43.6395 73.0081 43.6683 72.9793 43.7051 72.9793ZM34.0186 89.5457L38.0662 94.4489H30.0317L34.0186 89.5457ZM2.97935 118.736V113.619H16.2273V118.736H2.97935ZM24.5048 86.352H19.205V81.2345H24.5048V86.352ZM16.2273 81.2361V86.3536H2.97935V81.2361H16.2273ZM2.97935 94.4489V89.3314H7.86976V94.4489H2.97935ZM2.97935 110.641V105.523H7.86976V110.641H2.97935ZM19.205 113.619H26.6974C27.2075 114.38 27.8344 115.068 28.5669 115.647L28.1079 118.735H19.205V113.617V113.619ZM25.4084 110.641H10.8491V105.523H25.765C25.3908 106.515 25.1845 107.574 25.1845 108.669C25.1845 109.339 25.2613 110 25.4084 110.641ZM2.97935 102.544V97.4266H16.2273V102.544H2.97935ZM10.8491 94.4489V89.3314H24.5064V93.5981C24.5064 93.8939 24.556 94.1802 24.644 94.4489H10.8491ZM19.2722 72.9793H24.4409C24.4761 72.9793 24.5048 73.0081 24.5048 73.0433V78.2568H19.2082V73.0433C19.2082 73.0081 19.237 72.9793 19.2722 72.9793ZM3.04331 72.9793H7.80419C7.83937 72.9793 7.86816 73.0081 7.86816 73.0433V78.2568H2.97775V73.0433C2.97775 73.0081 3.00653 72.9793 3.04172 72.9793H3.04331ZM2.97935 125.571V121.714H7.86976V126.721H4.12918C3.49429 126.721 2.97935 126.205 2.97935 125.571ZM26.6782 126.721H10.8491V121.714H27.6665L26.9596 126.478C26.9389 126.617 26.8173 126.721 26.6782 126.721ZM27.9256 102.253C27.828 102.346 27.7417 102.448 27.6489 102.546H19.205V97.4282H32.5809V99.9134C30.841 100.204 29.2321 101.004 27.9256 102.253ZM35.5602 99.9214V97.4282H48.5299V102.546H40.4555C39.1617 101.198 37.4553 100.252 35.5586 99.923L35.5602 99.9214ZM41.1863 126.478L40.4794 121.714H56.8874V126.721H41.4694C41.3286 126.721 41.2087 126.617 41.1879 126.478H41.1863ZM64.012 126.721H59.8652V121.714H65.1618V125.571C65.1618 126.206 64.6452 126.721 64.012 126.721Z" fill="black"/>
<path d="M88.9006 103.769H85.5055V96.8366H79.1438V103.769H75.739V87.7051H79.1438V94.0012H85.5055V87.7051H88.9006V103.769Z" fill="black"/>
<path d="M107.941 95.7154C107.941 98.3733 107.282 100.419 105.963 101.847C104.643 103.275 102.753 103.99 100.293 103.99C97.8339 103.99 95.942 103.275 94.6242 101.847C93.3049 100.419 92.646 98.3669 92.646 95.6946C92.646 93.0223 93.3065 90.9785 94.629 89.5696C95.9516 88.1591 97.8467 87.4539 100.316 87.4539C102.785 87.4539 104.672 88.1639 105.979 89.5856C107.287 91.0073 107.941 93.0511 107.941 95.717V95.7154ZM96.2171 95.7154C96.2171 97.5113 96.5577 98.8611 97.239 99.7694C97.9202 100.678 98.9373 101.132 100.293 101.132C103.011 101.132 104.37 99.3265 104.37 95.7138C104.37 92.1012 103.017 90.2861 100.316 90.2861C98.9597 90.2861 97.9378 90.7419 97.2501 91.6534C96.5609 92.5666 96.2186 93.9195 96.2186 95.7138L96.2171 95.7154Z" fill="black"/>
<path d="M111.677 87.7034H116.676C118.953 87.7034 120.607 88.028 121.637 88.6757C122.667 89.3234 123.18 90.3565 123.18 91.7702C123.18 92.7297 122.956 93.5165 122.505 94.1322C122.056 94.7479 121.456 95.1174 120.709 95.2437V95.3524C121.728 95.5795 122.462 96.0049 122.911 96.627C123.362 97.2507 123.588 98.0791 123.588 99.1106C123.588 100.575 123.058 101.719 122 102.539C120.941 103.36 119.505 103.769 117.687 103.769H111.677V87.705V87.7034ZM115.081 94.0667H117.06C117.982 94.0667 118.651 93.9243 119.065 93.6381C119.479 93.3518 119.686 92.88 119.686 92.2196C119.686 91.6039 119.462 91.1625 119.011 90.8954C118.561 90.6267 117.848 90.494 116.874 90.494H115.083V94.0651L115.081 94.0667ZM115.081 96.7709V100.956H117.301C118.238 100.956 118.931 100.777 119.377 100.417C119.823 100.059 120.047 99.5088 120.047 98.7684C120.047 97.4346 119.095 96.7693 117.191 96.7693H115.081V96.7709Z" fill="black"/>
<path d="M141.782 95.7154C141.782 98.3733 141.123 100.419 139.804 101.847C138.484 103.275 136.594 103.99 134.135 103.99C131.675 103.99 129.783 103.275 128.465 101.847C127.146 100.419 126.487 98.3669 126.487 95.6946C126.487 93.0223 127.148 90.9785 128.47 89.5696C129.793 88.1591 131.688 87.4539 134.157 87.4539C136.626 87.4539 138.513 88.1639 139.82 89.5856C141.128 91.0073 141.782 93.0511 141.782 95.717V95.7154ZM130.057 95.7154C130.057 97.5113 130.397 98.8611 131.078 99.7694C131.76 100.678 132.777 101.132 134.133 101.132C136.85 101.132 138.209 99.3265 138.209 95.7138C138.209 92.1012 136.856 90.2861 134.155 90.2861C132.799 90.2861 131.777 90.7419 131.09 91.6534C130.4 92.5666 130.058 93.9195 130.058 95.7138L130.057 95.7154Z" fill="black"/>
<path d="M154.768 103.769H145.516V87.7051H154.768V90.4957H148.923V94.0236H154.361V96.8142H148.923V100.956H154.768V103.769Z" fill="black"/>
<path d="M85.8909 111.209V114.022H79.1438V127.273H75.739V111.209H85.8909Z" fill="black"/>
<path d="M103.13 119.219C103.13 121.877 102.472 123.922 101.152 125.35C99.8329 126.779 97.9426 127.493 95.483 127.493C93.0234 127.493 91.1315 126.779 89.8138 125.35C88.4944 123.922 87.8355 121.871 87.8355 119.198C87.8355 116.526 88.496 114.482 89.8186 113.073C91.1411 111.663 93.0362 110.958 95.5054 110.958C97.9746 110.958 99.8617 111.668 101.168 113.089C102.476 114.511 103.13 116.555 103.13 119.221V119.219ZM91.405 119.219C91.405 121.015 91.7456 122.365 92.4269 123.273C93.1082 124.181 94.1253 124.636 95.4814 124.636C98.1985 124.636 99.5578 122.83 99.5578 119.217C99.5578 115.605 98.2049 113.79 95.5038 113.79C94.1477 113.79 93.1258 114.246 92.4381 115.157C91.7488 116.07 91.4066 117.423 91.4066 119.217L91.405 119.219Z" fill="black"/>
<path d="M117.962 116.221C117.962 117.949 117.421 119.27 116.342 120.187C115.262 121.103 113.724 121.56 111.733 121.56H110.271V127.273H106.866V111.209H111.997C113.944 111.209 115.427 111.628 116.441 112.467C117.456 113.307 117.962 114.558 117.962 116.221ZM110.269 118.77H111.39C112.438 118.77 113.222 118.564 113.741 118.148C114.261 117.734 114.522 117.132 114.522 116.341C114.522 115.549 114.303 114.951 113.868 114.572C113.431 114.19 112.748 113.999 111.817 113.999H110.268V118.768L110.269 118.77Z" fill="black"/>
<path d="M130.65 127.273H121.398V111.209H130.65V113.999H124.805V117.527H130.244V120.318H124.805V124.46H130.65V127.273Z" fill="black"/>
<path d="M147.12 127.273H143.723V114.042H139.791L139.615 115.515C139.161 119.259 138.759 121.882 138.412 123.388C138.064 124.893 137.562 125.953 136.908 126.569C136.25 127.185 135.345 127.492 134.187 127.492C133.572 127.492 133.029 127.412 132.561 127.25V124.46C132.985 124.607 133.385 124.679 133.757 124.679C134.13 124.679 134.453 124.501 134.68 124.146C134.907 123.791 135.121 123.131 135.323 122.168C135.524 121.205 135.791 119.627 136.126 117.433C136.458 115.239 136.743 113.164 136.978 111.207H147.12V127.271V127.273Z" fill="black"/>
<path d="M166.162 119.219C166.162 121.877 165.503 123.922 164.184 125.35C162.865 126.779 160.974 127.493 158.515 127.493C156.055 127.493 154.163 126.779 152.845 125.35C151.526 123.922 150.867 121.871 150.867 119.198C150.867 116.526 151.528 114.482 152.85 113.073C154.173 111.663 156.068 110.958 158.537 110.958C161.006 110.958 162.893 111.668 164.2 113.089C165.508 114.511 166.162 116.555 166.162 119.221V119.219ZM154.437 119.219C154.437 121.015 154.777 122.365 155.459 123.273C156.14 124.181 157.157 124.636 158.513 124.636C161.23 124.636 162.589 122.83 162.589 119.217C162.589 115.605 161.237 113.79 158.535 113.79C157.179 113.79 156.157 114.246 155.47 115.157C154.78 116.07 154.438 117.423 154.438 119.217L154.437 119.219Z" fill="black"/>
<path d="M169.895 111.209H174.894C177.171 111.209 178.825 111.533 179.855 112.181C180.885 112.829 181.398 113.862 181.398 115.276C181.398 116.235 181.174 117.022 180.723 117.638C180.274 118.253 179.674 118.623 178.927 118.749V118.858C179.946 119.085 180.68 119.51 181.129 120.132C181.58 120.756 181.806 121.584 181.806 122.616C181.806 124.081 181.276 125.224 180.218 126.045C179.159 126.865 177.723 127.275 175.905 127.275H169.895V111.21V111.209ZM173.299 117.57H175.278C176.2 117.57 176.869 117.428 177.283 117.142C177.697 116.856 177.904 116.384 177.904 115.723C177.904 115.108 177.68 114.666 177.229 114.399C176.779 114.131 176.066 113.998 175.092 113.998H173.301V117.569L173.299 117.57ZM173.299 120.275V124.46H175.519C176.456 124.46 177.149 124.281 177.595 123.921C178.041 123.563 178.265 123.013 178.265 122.272C178.265 120.938 177.313 120.273 175.409 120.273H173.299V120.275Z" fill="black"/>
<path d="M200 119.219C200 121.877 199.341 123.922 198.022 125.35C196.702 126.779 194.812 127.493 192.353 127.493C189.893 127.493 188.001 126.779 186.683 125.35C185.364 123.922 184.705 121.871 184.705 119.198C184.705 116.526 185.366 114.482 186.688 113.073C188.011 111.663 189.906 110.958 192.375 110.958C194.844 110.958 196.731 111.668 198.038 113.089C199.346 114.511 200 116.555 200 119.221V119.219ZM188.276 119.219C188.276 121.015 188.617 122.365 189.298 123.273C189.979 124.181 190.996 124.636 192.353 124.636C195.07 124.636 196.429 122.83 196.429 119.217C196.429 115.605 195.076 113.79 192.375 113.79C191.019 113.79 189.997 114.246 189.309 115.157C188.62 116.07 188.278 117.423 188.278 119.217L188.276 119.219Z" fill="black"/>
<path d="M76.681 80.7915C76.3755 80.7915 76.1053 80.7515 75.875 80.67V79.9647C76.1212 80.075 76.3819 80.131 76.657 80.131C76.9464 80.131 77.1799 80.0623 77.3574 79.9279C77.5334 79.792 77.7061 79.5457 77.8692 79.1891L75.5855 74.7816H76.4059L78.1011 78.0776C78.1682 78.204 78.2258 78.3447 78.2738 78.4982H78.3074L78.3394 78.4007L78.4641 78.068L79.8842 74.78H80.6742L78.7807 79.0212C78.5569 79.5233 78.3522 79.8895 78.1698 80.1182C77.9875 80.3469 77.7748 80.5164 77.5398 80.6252C77.3031 80.7339 77.0168 80.7883 76.6826 80.7883L76.681 80.7915Z" fill="black"/>
<path d="M86.3946 80.7099H85.6558V75.4389H82.6925V80.7099H81.9456V74.7832H86.393V80.7099H86.3946Z" fill="black"/>
<path d="M92.2766 76.5248C92.2766 77.1309 92.0703 77.5946 91.6561 77.9177C91.2419 78.2407 90.6598 78.4006 89.9081 78.4006H89.2285V80.7083H88.4816V74.7832H90.0505C91.5345 74.7832 92.2766 75.3637 92.2766 76.5264V76.5248ZM89.2285 77.7609H89.8234C90.4135 77.7609 90.8389 77.6666 91.1043 77.4763C91.3698 77.286 91.5025 76.9805 91.5025 76.5583C91.5025 76.1777 91.3794 75.8931 91.1331 75.7044C90.8868 75.5156 90.5046 75.4197 89.9833 75.4197H89.2285V77.7625V77.7609Z" fill="black"/>
<path d="M97.4852 80.7099L96.772 78.8724H94.4211L93.7143 80.7099H92.9594L95.2751 74.7576H95.9484L98.2608 80.7099H97.4868H97.4852ZM96.5497 78.2135L95.8844 76.4176L95.5997 75.53C95.5182 75.8546 95.4334 76.1505 95.3439 76.4176L94.6706 78.2135H96.5481H96.5497Z" fill="black"/>
<path d="M99.5402 74.7832H101.231C102.025 74.7832 102.6 74.9015 102.953 75.1366C103.305 75.3733 103.481 75.7459 103.481 76.2497C103.481 76.5999 103.385 76.891 103.193 77.1197C103.001 77.3484 102.721 77.4971 102.355 77.5642V77.6042C102.812 77.6826 103.146 77.8393 103.362 78.0792C103.577 78.3159 103.684 78.6309 103.684 79.0243C103.684 79.5521 103.503 79.9663 103.14 80.2653C102.777 80.5628 102.272 80.7115 101.624 80.7115H99.5386V74.7832H99.5402ZM100.287 77.3036H101.381C101.846 77.3036 102.185 77.23 102.396 77.0813C102.606 76.9326 102.713 76.6831 102.713 76.3344C102.713 76.0098 102.598 75.7763 102.366 75.6324C102.134 75.4901 101.77 75.4181 101.269 75.4181H100.287V77.3036ZM100.287 77.9289V80.0782H101.482C101.958 80.0782 102.31 79.9855 102.54 79.8016C102.771 79.6176 102.886 79.3394 102.886 78.9668C102.886 78.5941 102.764 78.3511 102.52 78.1815C102.275 78.012 101.91 77.9289 101.424 77.9289H100.285H100.287Z" fill="black"/>
<path d="M109.666 80.71H108.92V75.439H107.042L106.917 76.4049C106.746 77.7339 106.599 78.687 106.471 79.2628C106.345 79.8385 106.179 80.2399 105.975 80.4654C105.772 80.6909 105.494 80.8028 105.142 80.8028C104.942 80.8028 104.762 80.7692 104.603 80.7005V80.0768C104.742 80.1439 104.896 80.1775 105.061 80.1775C105.275 80.1775 105.443 80.0432 105.571 79.7745C105.696 79.5058 105.833 78.8965 105.98 77.9482C106.127 76.9983 106.276 75.9428 106.425 74.7817H109.668V80.7084L109.666 80.71Z" fill="black"/>
<path d="M113.529 78.252L111.993 80.71H111.122L112.785 78.1193C112.366 77.9834 112.059 77.7771 111.861 77.4972C111.664 77.2189 111.565 76.8671 111.565 76.4401C111.565 75.9044 111.75 75.4934 112.118 75.2087C112.486 74.9241 113.041 74.7817 113.778 74.7817H115.441V80.7084H114.696V78.2504H113.532L113.529 78.252ZM114.693 75.4198H113.796C113.302 75.4198 112.934 75.5062 112.694 75.6789C112.454 75.8516 112.332 76.1187 112.332 76.4785C112.332 77.2397 112.831 77.622 113.829 77.622H114.693V75.4198Z" fill="black"/>
<path d="M124.934 77.7385C124.934 78.6949 124.704 79.4433 124.243 79.9822C123.784 80.5228 123.142 80.7915 122.315 80.7915C121.488 80.7915 120.867 80.5436 120.405 80.0494C119.945 79.5537 119.698 78.8548 119.666 77.9448H118.264V80.7099H117.517V74.7832H118.264V77.2892H119.682C119.745 76.4528 120.002 75.8115 120.456 75.3637C120.911 74.9159 121.523 74.6904 122.297 74.6904C123.126 74.6904 123.77 74.9591 124.237 75.4964C124.701 76.0338 124.934 76.7822 124.934 77.7385ZM120.45 77.7385C120.45 78.5222 120.605 79.1187 120.914 79.5313C121.224 79.9423 121.683 80.147 122.291 80.147C122.898 80.147 123.364 79.9439 123.68 79.5377C123.995 79.1331 124.152 78.5334 124.152 77.7385C124.152 76.9437 123.997 76.3488 123.688 75.9474C123.38 75.5476 122.919 75.3461 122.308 75.3461C121.697 75.3461 121.232 75.5492 120.919 75.9554C120.607 76.3616 120.452 76.9549 120.452 77.7369L120.45 77.7385Z" fill="black"/>
<path d="M126.716 80.7099V74.7832H127.463V80.0446H129.769V74.7832H130.527V80.0446H132.842V74.7832H133.588V80.0542H134.306V82.2723H133.588V80.7115H126.716V80.7099Z" fill="black"/>
<path d="M139.543 80.7099L138.83 78.8724H136.479L135.772 80.7099H135.017L137.333 74.7576H138.006L140.319 80.7099H139.545H139.543ZM138.606 78.2135L137.941 76.4176L137.656 75.53C137.574 75.8546 137.49 76.1505 137.4 76.4176L136.727 78.2135H138.604H138.606Z" fill="black"/>
<path d="M143.381 78.252L141.846 80.71H140.974L142.638 78.1193C142.219 77.9834 141.912 77.7771 141.713 77.4972C141.517 77.2189 141.417 76.8671 141.417 76.4401C141.417 75.9044 141.603 75.4934 141.971 75.2087C142.339 74.9241 142.893 74.7817 143.631 74.7817H145.294V80.7084H144.549V78.2504H143.384L143.381 78.252ZM144.545 75.4198H143.648C143.154 75.4198 142.786 75.5062 142.546 75.6789C142.307 75.8516 142.185 76.1187 142.185 76.4785C142.185 77.2397 142.684 77.622 143.682 77.622H144.545V75.4198Z" fill="black"/>
<path d="M154.318 80.7099H153.416L150.738 77.705V80.7099H149.991V74.7832H150.738V77.6522L153.352 74.7832H154.2L151.624 77.6618L154.317 80.7099H154.318Z" fill="black"/>
<path d="M160.683 77.7387C160.683 78.687 160.443 79.4338 159.962 79.976C159.482 80.5197 158.812 80.7916 157.95 80.7916C157.088 80.7916 156.4 80.5229 155.926 79.9904C155.447 79.4562 155.209 78.703 155.209 77.7291C155.209 76.7552 155.446 76.0163 155.921 75.4854C156.396 74.9544 157.074 74.689 157.958 74.689C158.842 74.689 159.487 74.9576 159.965 75.4966C160.443 76.0371 160.683 76.7823 160.683 77.7371V77.7387ZM155.994 77.7387C155.994 78.5223 156.162 79.1188 156.493 79.5314C156.826 79.9424 157.31 80.1471 157.949 80.1471C158.587 80.1471 159.065 79.944 159.396 79.5378C159.725 79.1332 159.892 78.5335 159.892 77.7387C159.892 76.9439 159.727 76.349 159.401 75.9476C159.073 75.5477 158.591 75.3462 157.957 75.3462C157.322 75.3462 156.826 75.5493 156.493 75.9555C156.161 76.3617 155.994 76.9551 155.994 77.7371V77.7387Z" fill="black"/>
<path d="M165.071 80.7099L163.117 75.5124H163.085C163.125 75.9442 163.146 76.48 163.146 77.1133V80.7099H162.455V74.7832H163.559L165.386 79.64H165.418L167.278 74.7832H168.374V80.7099H167.635V77.0637C167.635 76.6591 167.654 76.1441 167.693 75.5188H167.661L165.682 80.7099H165.07H165.071Z" fill="black"/>
<path d="M174.903 80.7099H174.165V75.4389H171.201V80.7099H170.454V74.7832H174.902V80.7099H174.903Z" fill="black"/>
<path d="M180.707 80.7099L179.994 78.8724H177.643L176.936 80.7099H176.181L178.497 74.7576H179.17L181.483 80.7099H180.709H180.707ZM179.771 78.2135L179.106 76.4176L178.822 75.53C178.74 75.8546 178.655 76.1505 178.566 76.4176L177.892 78.2135H179.77H179.771Z" fill="black"/>
<path d="M187.296 80.7099H186.549V77.9449H183.509V80.7099H182.762V74.7832H183.509V77.2892H186.549V74.7832H187.296V80.7099Z" fill="black"/>
<path d="M189.389 74.7832H190.086V78.0392C190.086 78.2695 190.078 78.5718 190.066 78.9508C190.051 79.3298 190.038 79.5761 190.026 79.6896H190.062L193.322 74.7848H194.153V80.7115H193.456V77.4875C193.456 77.206 193.464 76.8782 193.483 76.504C193.502 76.1297 193.517 75.8867 193.523 75.7763H193.486L190.219 80.7099H189.388V74.7832H189.389Z" fill="black"/>
<path d="M198.007 78.252L196.472 80.71H195.601L197.264 78.1193C196.845 77.9834 196.538 77.7771 196.339 77.4972C196.143 77.2189 196.044 76.8671 196.044 76.4401C196.044 75.9044 196.229 75.4934 196.597 75.2087C196.965 74.9241 197.52 74.7817 198.257 74.7817H199.92V80.7084H199.175V78.2504H198.011L198.007 78.252ZM199.172 75.4198H198.274C197.78 75.4198 197.412 75.5062 197.173 75.6789C196.933 75.8516 196.811 76.1187 196.811 76.4785C196.811 77.2397 197.31 77.622 198.308 77.622H199.172V75.4198Z" fill="black"/>
</g>
<defs>
<clipPath id="clip0_7537_124">
<rect width="200" height="59.7005" fill="white" transform="translate(0 70)"/>
</clipPath>
</defs>
</svg>
