<svg width="200" height="200" viewBox="0 0 200 200" fill="none" xmlns="http://www.w3.org/2000/svg">
<g clip-path="url(#clip0_8008_2960)">
<path fill-rule="evenodd" clip-rule="evenodd" d="M161.467 110.683L162.673 86.9258L152.091 81.5804L152.363 76.2354H198.967L198.711 81.2836L186.342 86.9258L185.12 110.98L196.614 116.919L196.282 123.451H148.239L148.54 117.512L161.467 110.683Z" fill="#FF7313" stroke="black" stroke-width="6.7601" stroke-miterlimit="2.6131"/>
<path fill-rule="evenodd" clip-rule="evenodd" d="M111.007 111.32H103.959L104.387 102.56L111.447 102.559C115.188 102.411 116.854 105.752 115.906 107.905C115.906 107.905 115.548 111.172 111.007 111.32ZM111.874 94.3166H104.826L105.255 86.088H112.669C115.474 86.0142 117.488 88.0819 116.877 90.7105C116.877 90.7105 116.698 94.3188 111.874 94.3166ZM132.065 76.154C132.065 76.154 141.056 75.1887 142.796 86.5909C142.796 86.5909 143.515 94.4533 135.524 99.0628C144.234 101.579 142.651 112.121 142.651 112.121C140.02 124.099 127.761 123.414 127.761 123.414H68.4291L68.7917 117.475L79.851 110.655L80.906 86.5757L70.5384 81.5393L70.901 76.1931L132.065 76.154Z" fill="#FF7313" stroke="black" stroke-width="6.7601" stroke-miterlimit="2.6131"/>
<path fill-rule="evenodd" clip-rule="evenodd" d="M34.208 82.6552H35.5895C38.767 82.6552 41.2078 85.3143 41.0413 88.5941L39.9506 110.092C39.7836 113.372 37.0732 116.031 33.8951 116.031H32.514C29.3365 116.031 26.8957 113.372 27.0616 110.092L28.1534 88.5941C28.3196 85.3143 31.0305 82.6552 34.208 82.6552ZM22.524 76.1917H48.0577C59.1806 76.1917 67.7243 85.4984 67.1409 96.9789L66.8544 102.621C66.2713 114.103 56.7831 123.408 45.6616 123.408H20.1276C9.00638 123.408 0.462409 114.103 1.04549 102.621L1.33093 96.9789C1.91456 85.4984 11.4028 76.1917 22.524 76.1917Z" fill="#FF7313" stroke="black" stroke-width="6.7601" stroke-miterlimit="2.6131"/>
<path d="M188.472 106.08C188.472 104.882 188.943 103.797 189.702 103.013C190.462 102.229 191.513 101.743 192.672 101.743C193.833 101.743 194.883 102.229 195.642 103.013C196.403 103.796 196.873 104.882 196.873 106.08C196.873 107.276 196.403 108.361 195.642 109.145H195.641C194.881 109.93 193.831 110.415 192.672 110.415C191.516 110.415 190.465 109.93 189.705 109.145C189.705 109.144 189.703 109.144 189.702 109.143C188.943 108.357 188.472 107.274 188.472 106.08ZM192.676 106.594H191.744V108.239H190.965V103.885L193.133 103.884C193.753 103.901 194.206 104.234 194.424 104.655C194.519 104.838 194.571 105.037 194.573 105.236V105.238C194.574 105.441 194.526 105.646 194.424 105.834C194.275 106.108 194.011 106.341 193.622 106.475L194.73 108.317H193.71L192.676 106.594ZM191.744 105.79C192.206 105.79 192.603 105.76 193.123 105.76H193.193L193.195 105.763C193.49 105.708 193.667 105.587 193.746 105.442C193.78 105.382 193.795 105.313 193.794 105.244C193.794 105.172 193.774 105.097 193.741 105.031C193.643 104.844 193.424 104.696 193.112 104.687H191.744V105.79ZM190.279 103.607C189.667 104.24 189.288 105.114 189.288 106.08C189.288 107.045 189.665 107.92 190.278 108.55L190.279 108.551C190.89 109.183 191.737 109.573 192.672 109.573C193.609 109.573 194.455 109.182 195.067 108.551V108.55C195.679 107.917 196.059 107.045 196.059 106.08C196.059 105.114 195.679 104.24 195.067 103.608C194.454 102.975 193.607 102.584 192.672 102.584C191.738 102.584 190.892 102.975 190.279 103.607Z" fill="black"/>
</g>
<defs>
<clipPath id="clip0_8008_2960">
<rect width="200" height="49.6533" fill="white" transform="translate(0 75)"/>
</clipPath>
</defs>
</svg>
