<svg width="200" height="200" viewBox="0 0 200 200" fill="none" xmlns="http://www.w3.org/2000/svg">
<g clip-path="url(#clip0_8008_465)">
<mask id="mask0_8008_465" style="mask-type:luminance" maskUnits="userSpaceOnUse" x="0" y="56" width="200" height="89">
<path d="M200 56H0V144.709H200V56Z" fill="white"/>
</mask>
<g mask="url(#mask0_8008_465)">
<path d="M0.357361 85.7505V87.7573H14.8856V85.7505C12.3016 85.7505 12.3016 83.7782 12.3016 82.3831V59.4087H22.349V82.3899C22.349 83.785 22.349 85.7574 19.765 85.7574V87.7641H34.2863V85.7574C31.4961 85.7574 30.8845 83.785 30.8845 82.3899V61.3742C30.8845 59.9791 31.503 58.0067 34.2863 58.0067V56H0.357361V58.0136C3.14755 58.0136 3.76606 59.986 3.76606 61.3811V82.3899C3.76606 83.785 3.14755 85.7574 0.357361 85.7574" fill="#1D1D1B"/>
<path d="M44.3887 74.3835C39.2619 75.2426 36.2655 77.7098 36.2655 81.6889C36.2655 85.0151 38.6434 88.252 43.0761 88.252C45.825 88.252 48.8214 87.0631 50.2577 84.3966C50.9106 86.4514 53.2953 88.252 55.8381 88.252C58.0098 88.252 60.1471 87.5166 61.2535 86.204V83.6612C60.6419 83.9086 60.1883 84.0255 59.8584 84.0255C58.2572 84.0255 57.8105 82.3074 57.8105 80.2938V72.1294C57.8105 66.3841 53.3365 64.5354 46.9727 64.5354C41.7222 64.5354 37.6194 66.0954 37.6194 69.0918C37.6194 70.3632 38.4029 71.6346 39.9973 72.5005H42.1689L44.7942 67.6623C45.289 67.2912 46.0243 67.0851 46.7253 67.0851C48.409 67.0851 49.6804 68.274 49.6804 72.2531V74.466L44.3818 74.3835H44.3887ZM49.6804 82.3486C48.897 83.1252 47.9967 83.7849 46.9315 83.7849C45.7013 83.7849 44.3062 82.8022 44.3062 80.7886C44.3062 77.428 46.6428 76.8919 49.6804 76.4384V82.3486Z" fill="#1D1D1B"/>
<path d="M61.7002 98.6362V100.56H76.3109V98.6362C73.6444 98.6362 73.074 96.7875 73.074 95.4336V87.2692C74.6753 87.9221 76.1528 88.252 77.7953 88.252C85.4649 88.252 88.7911 83.4551 88.7911 75.9848C88.7911 70.157 85.7536 64.5354 79.7608 64.5354C78.7369 64.5354 77.8297 64.7003 76.6408 65.312L72.6204 68.7207V64.7828L61.7483 65.9305V67.8616C64.4148 67.8616 64.9509 69.7103 64.9509 71.0642V95.4405C64.9509 96.7944 64.3736 98.643 61.7071 98.643M73.074 73.6413C73.1084 71.0573 73.7681 69.2911 76.1872 69.2911C79.1011 69.2911 80.4618 72.1637 80.4618 76.2253C80.4618 80.2869 79.9258 85.1732 76.3109 85.1732C75.2045 85.1732 74.0155 84.6371 73.074 83.7781V73.6413Z" fill="#1D1D1B"/>
<path d="M113.978 73.2359C113.978 73.9781 114.597 74.6241 115.415 74.6241C116.233 74.6241 116.775 73.9781 116.775 73.2359C116.775 72.4593 116.198 71.8408 115.415 71.8408C114.597 71.8408 113.978 72.4593 113.978 73.2359Z" fill="#1D1D1B"/>
<path d="M90.5917 85.833V87.7641H104.419V85.833C101.752 85.833 101.959 83.9843 101.959 82.6304V77.3387L103.106 77.2219C104.295 79.964 107.209 86.9875 110.494 87.7641H118.37V85.833C115.209 83.9431 112.384 81.4415 110.742 76.6034L106.103 75.0846L110.288 72.9541C111.889 69.6279 114.267 67.7449 117.387 66.9614V65.0303H106.556V66.9614C107.216 66.9614 108.982 67.4975 109.017 68.3153L103.065 74.5554L101.959 74.8853V70.1639C101.959 68.8101 101.917 66.9614 104.584 66.9614V65.0303H90.5917V66.9614C93.2582 66.9614 93.8355 68.8101 93.8355 70.1639V82.6373C93.8355 83.9912 93.2582 85.8398 90.5917 85.8398" fill="#1D1D1B"/>
<path d="M154.127 129.981V131.912H168.738V129.981C166.071 129.981 165.494 128.132 165.494 126.785V112.01H169.019C169.796 111.969 170.249 112.422 170.621 113.082L173.081 117.68H174.923L175.905 109.185H154.113V111.116C156.786 111.116 157.357 112.958 157.357 114.312V126.785C157.357 128.139 156.786 129.981 154.113 129.981" fill="#1D1D1B"/>
<path d="M16.7824 103.55C17.7651 103.55 18.5073 103.797 19.0846 104.78L21.7511 110.031H23.8059L24.7474 100.141H0V102.272C2.79019 102.272 3.4087 104.244 3.4087 105.639V126.524C3.4087 127.92 2.79706 129.885 0 129.885V131.899H15.346V129.885C12.5558 129.885 11.9442 127.92 11.9442 126.524V103.543H16.7824V103.55Z" fill="#1D1D1B"/>
<path d="M128.417 111.103V109.172H117.586V111.103C118.246 111.103 120.005 111.632 120.054 112.457L114.102 118.697L112.996 119.027V114.305C112.996 112.951 112.954 111.11 115.621 111.11V109.178H101.629V111.11C104.302 111.11 104.873 112.951 104.873 114.305V126.779C104.873 128.133 104.302 129.981 101.629 129.981V131.905H115.456V129.981C112.789 129.981 112.996 128.133 112.996 126.779V121.487L114.226 121.363C115.209 123.782 118.287 131.211 121.531 131.905H129.407V129.981C125.634 128.916 123.991 122.758 121.407 120.463L117.545 119.274L122.679 114.264C125.387 111.927 126.782 111.268 128.424 111.11" fill="#1D1D1B"/>
<path d="M200 120.497C200 115.123 197.169 108.677 188.221 108.677C182.517 108.677 176.441 112.25 176.441 120.58C176.441 125.954 179.273 132.4 188.221 132.4C193.925 132.4 200 128.827 200 120.497ZM184.778 121.033C184.778 116.683 184.736 111.144 188.228 111.144C191.142 111.144 191.678 115.783 191.678 120.051C191.678 124.318 191.719 129.94 188.228 129.94C185.314 129.94 184.778 125.301 184.778 121.033Z" fill="#1D1D1B"/>
<path d="M152.917 120.497C152.917 115.123 150.086 108.677 141.138 108.677C135.434 108.677 129.366 112.244 129.366 120.58C129.366 125.954 132.197 132.4 141.138 132.4C146.842 132.4 152.917 128.827 152.917 120.497ZM141.138 129.94C138.224 129.94 137.688 125.301 137.688 121.033C137.688 116.766 137.647 111.144 141.138 111.144C144.052 111.144 144.588 115.783 144.588 120.051C144.588 124.318 144.629 129.94 141.138 129.94Z" fill="#1D1D1B"/>
<path d="M75.9123 111.103C78.5788 111.103 79.1561 112.945 79.1561 114.305V126.779C79.1561 128.133 78.5857 129.974 75.9123 129.974V131.905H81.2453C82.3105 131.905 84.6059 131.988 86.2484 131.988H86.9493C88.262 131.988 89.9869 132.07 90.5642 132.07C96.3095 132.07 100.612 129.28 100.612 124.153C100.612 119.027 96.2202 116.807 91.6294 116.807L87.2792 117.625V114.305C87.2792 112.951 87.8496 111.103 90.5161 111.103V109.172H75.9054V111.103H75.9123ZM87.2792 119.68C87.5266 119.638 87.8153 119.638 88.0558 119.638C91.1346 119.638 92.5297 122.099 92.5297 124.648C92.5297 126.985 91.5057 129.28 88.9561 129.328C88.5918 129.328 87.7259 129.287 87.2792 129.122V119.686V119.68Z" fill="#1D1D1B"/>
<path d="M22.1634 120.587C22.1634 125.961 24.9948 132.4 33.9427 132.4C39.6468 132.4 45.7219 128.827 45.7219 120.497C45.7219 115.123 42.8905 108.677 33.9427 108.677C28.2386 108.677 22.1634 112.25 22.1634 120.58M37.3857 120.051C37.3857 124.401 37.427 129.94 33.9358 129.94C31.0219 129.94 30.4859 125.308 30.4859 121.033C30.4859 116.759 30.4446 111.144 33.9358 111.144C36.8497 111.144 37.3857 115.783 37.3857 120.051Z" fill="#1D1D1B"/>
<path d="M57.7349 108.931L46.8628 110.079V112.01C49.5293 112.01 50.0653 113.858 50.0653 115.212V139.589C50.0653 140.943 49.4949 142.791 46.8215 142.791V144.722H61.4322V142.791C58.7657 142.791 58.1885 140.943 58.1885 139.589V131.424C59.7897 132.077 61.2673 132.407 62.9098 132.407C70.5862 132.407 73.9056 127.603 73.9056 120.133C73.9056 114.305 70.868 108.684 64.8753 108.684C63.8513 108.684 62.9441 108.849 61.7621 109.46L57.7417 112.869V108.931H57.7349ZM58.1816 117.789C58.2228 115.205 58.8826 113.439 61.3016 113.439C64.2155 113.439 65.5694 116.312 65.5694 120.374C65.5694 124.435 65.0333 129.321 61.4253 129.321C60.3189 129.321 59.1231 128.785 58.1816 127.926V117.789Z" fill="#1D1D1B"/>
</g>
</g>
<defs>
<clipPath id="clip0_8008_465">
<rect width="200" height="88.7087" fill="white" transform="translate(0 56)"/>
</clipPath>
</defs>
</svg>
