<svg width="200" height="200" viewBox="0 0 200 200" fill="none" xmlns="http://www.w3.org/2000/svg">
<g clip-path="url(#clip0_8003_20)">
<path fill-rule="evenodd" clip-rule="evenodd" d="M184.769 124.946C186.142 124.946 187.522 124.946 188.902 124.946C188.902 127.136 188.902 129.327 188.902 131.517C189.362 131.517 189.828 131.517 190.3 131.517C191.837 129.321 193.356 127.112 194.917 124.933C196.545 124.958 198.179 124.933 199.812 124.946C197.846 127.614 195.879 130.283 193.906 132.946C195.927 135.687 197.979 138.416 200.006 141.151C198.396 141.115 196.769 141.218 195.183 141.097C193.652 138.991 192.139 136.879 190.614 134.767C190.039 134.761 189.471 134.761 188.908 134.767C188.908 136.897 188.908 139.027 188.908 141.151C187.534 141.151 186.154 141.151 184.781 141.151C184.781 135.747 184.781 130.349 184.781 124.946H184.769ZM150.021 124.946C154.735 124.958 159.443 124.915 164.157 124.964C164.121 126.295 164.151 127.632 164.139 128.97C162.475 128.97 160.811 128.97 159.147 128.97C159.147 133.03 159.147 137.091 159.147 141.151C157.773 141.151 156.399 141.151 155.026 141.151C155.026 137.097 155.026 133.036 155.026 128.982C153.356 128.964 151.691 128.982 150.021 128.97C150.021 127.626 150.021 126.289 150.021 124.952V124.946ZM77.174 124.952C78.5477 124.952 79.9213 124.952 81.295 124.952C81.295 127.142 81.295 129.333 81.295 131.523C81.7549 131.523 82.2209 131.523 82.6868 131.523C84.2178 129.333 85.7489 127.142 87.2859 124.946C88.9259 124.946 90.5658 124.946 92.2057 124.946C90.239 127.62 88.2602 130.283 86.2995 132.958C88.3389 135.681 90.3661 138.422 92.3994 141.145C90.7958 141.109 89.1558 141.224 87.5704 141.091C86.0393 138.991 84.5265 136.873 83.0015 134.761C82.4327 134.761 81.8578 134.761 81.295 134.761C81.295 136.891 81.295 139.021 81.295 141.145C79.9213 141.145 78.5477 141.145 77.174 141.145C77.174 135.747 77.174 130.343 77.174 124.946V124.952ZM172.623 128.764C171.879 128.988 171.195 129.418 170.687 129.998C169.101 131.814 169.247 134.918 171.098 136.498C172.696 137.896 175.34 137.829 176.865 136.352C178.766 134.567 178.657 131.094 176.587 129.484C175.492 128.607 173.955 128.365 172.617 128.758L172.623 128.764ZM172.248 124.649C175.189 124.05 178.408 125.133 180.333 127.451C182.644 130.144 182.989 134.283 181.228 137.357C179.891 139.765 177.301 141.405 174.554 141.587C171.933 141.811 169.241 140.734 167.54 138.725C165.277 136.135 164.853 132.171 166.396 129.115C167.516 126.828 169.743 125.127 172.248 124.655V124.649ZM134.784 127.166C136.611 125.115 139.51 124.177 142.209 124.582C144.684 124.915 146.989 126.452 148.145 128.679C146.965 129.381 145.785 130.089 144.605 130.785C143.54 128.522 140.327 127.959 138.402 129.442C136.169 131.088 136.133 134.882 138.33 136.576C140.254 138.107 143.54 137.599 144.648 135.318C145.828 136.026 147.026 136.697 148.212 137.399C146.862 139.88 144.157 141.526 141.337 141.599C138.536 141.756 135.679 140.419 134.1 138.077C131.861 134.846 132.103 130.083 134.778 127.166H134.784ZM120.472 128.746C119.395 129.284 118.711 130.38 118.439 131.523C121.144 131.523 123.855 131.523 126.566 131.523C126.336 130.513 125.803 129.533 124.932 128.946C123.631 128.068 121.852 128.056 120.472 128.746ZM118.741 125.351C121.628 123.947 125.392 124.225 127.825 126.404C130.16 128.431 131.074 131.765 130.523 134.761C126.517 134.761 122.511 134.755 118.505 134.761C118.814 135.905 119.613 136.921 120.726 137.369C122.663 138.168 125.216 137.902 126.578 136.177C127.679 136.824 128.787 137.472 129.894 138.126C128.938 139.523 127.534 140.613 125.918 141.133C122.772 142.126 118.977 141.551 116.593 139.154C114.36 136.939 113.731 133.466 114.542 130.495C115.129 128.286 116.672 126.331 118.747 125.345L118.741 125.351ZM102.602 128.588C101.943 128.728 101.307 129.018 100.781 129.448C98.6566 131.197 98.6566 134.912 100.787 136.655C102.554 138.101 105.483 137.89 106.953 136.116C108.52 134.228 108.351 131.039 106.421 129.46C105.374 128.595 103.915 128.322 102.596 128.588H102.602ZM99.1891 126.846C101.095 124.304 104.89 123.874 107.613 125.26C110.378 126.634 112.067 129.684 112.121 132.722C112.266 135.844 110.717 139.094 107.946 140.643C105.192 142.241 101.18 141.89 99.1891 139.251C99.1891 142.041 99.1891 144.831 99.1891 147.62C97.8154 147.62 96.4418 147.62 95.0681 147.62C95.0681 140.062 95.0681 132.504 95.0681 124.946C96.4418 124.946 97.8094 124.946 99.1891 124.946C99.1891 125.575 99.1891 126.21 99.1891 126.846ZM64.1331 128.728C63.0378 129.26 62.3359 130.368 62.0635 131.523C64.7746 131.523 67.4796 131.523 70.1906 131.523C69.9728 130.616 69.5431 129.726 68.8048 129.133C67.5159 128.08 65.6036 128.02 64.1331 128.728ZM61.761 125.678C64.6354 123.965 68.6051 124.056 71.2315 126.216C73.7065 128.207 74.7292 131.644 74.1483 134.719C70.1543 134.815 66.1301 134.725 62.1301 134.761C62.4387 135.893 63.2254 136.915 64.3328 137.363C66.2753 138.174 68.8411 137.908 70.2027 136.183C71.3041 136.831 72.4115 137.478 73.5189 138.132C72.5749 139.517 71.1952 140.595 69.6036 141.121C66.4992 142.126 62.7655 141.593 60.357 139.293C58.233 137.29 57.4766 134.156 57.9849 131.342C58.3722 129.03 59.7398 126.87 61.7731 125.678H61.761ZM46.6263 128.522C45.1921 128.667 43.8669 129.593 43.2738 130.912C42.5235 132.57 42.6868 134.688 43.8669 136.116C45.3374 137.908 48.2602 138.101 50.0333 136.661C52.1452 134.949 52.1755 131.3 50.1301 129.526C49.18 128.697 47.8608 128.377 46.6263 128.522ZM42.8079 126.852C44.702 124.322 48.472 123.88 51.1891 125.242C53.9788 126.598 55.6793 129.654 55.7458 132.71C55.8971 135.862 54.3237 139.142 51.5159 140.685C48.7625 142.247 44.7927 141.877 42.8079 139.251C42.82 142.041 42.8079 144.831 42.8139 147.626C41.4402 147.626 40.0666 147.632 38.6929 147.626C38.6989 140.068 38.6929 132.516 38.6929 124.958C40.0666 124.958 41.4342 124.958 42.8139 124.958C42.8139 125.593 42.8139 126.228 42.8079 126.864V126.852ZM25.646 128.734C24.5567 129.266 23.8669 130.368 23.5946 131.523C26.3056 131.523 29.0106 131.523 31.7216 131.523C31.5038 130.573 31.0318 129.654 30.2451 129.06C28.944 128.074 27.0802 128.032 25.646 128.734ZM22.8684 125.956C25.8336 123.911 30.2027 123.965 32.9501 126.38C35.3101 128.401 36.2239 131.747 35.6914 134.755C31.6853 134.785 27.6732 134.755 23.6611 134.773C23.9455 135.814 24.6233 136.77 25.6097 137.254C27.5946 138.228 30.3056 137.974 31.7579 136.189C32.8411 136.867 33.9546 137.484 35.0499 138.138C34.1119 139.523 32.7262 140.601 31.1407 141.127C28.1029 142.107 24.472 141.623 22.0514 139.451C20.1271 137.738 19.2254 135.082 19.3828 132.546C19.4796 129.974 20.7322 127.414 22.8805 125.956H22.8684ZM124.98 118.906C126.203 118.592 127.492 119.59 127.576 120.824C127.74 122.005 126.772 123.185 125.579 123.227C124.363 123.336 123.225 122.241 123.28 121.024C123.28 120.038 124.018 119.112 124.98 118.9V118.906ZM118.874 118.918C119.994 118.592 121.222 119.402 121.47 120.522C121.773 121.623 121.065 122.888 119.946 123.166C118.808 123.505 117.513 122.7 117.283 121.545C116.998 120.425 117.761 119.191 118.874 118.924V118.918ZM0 118.858C5.55522 118.858 11.1104 118.858 16.6657 118.858C16.6657 126.295 16.6717 133.726 16.6657 141.157C15.1952 141.151 13.7247 141.157 12.2542 141.157C12.2542 135.118 12.2542 129.085 12.2542 123.051C9.63389 123.051 7.01967 123.051 4.40545 123.051C4.40545 129.091 4.40545 135.124 4.40545 141.163C2.941 141.163 1.4705 141.163 0 141.163C0 133.72 0 126.289 0 118.858Z" fill="#005829"/>
<path fill-rule="evenodd" clip-rule="evenodd" d="M94.0938 55.003C95.9697 53.5567 98.3843 52.8366 100.744 53.0303C103.77 53.236 106.626 54.9728 108.242 57.5386C110.064 60.3525 110.336 64.0862 108.95 67.1422C108.351 68.5038 107.407 69.6778 106.342 70.7005C104.224 72.8427 102.124 74.9909 100.012 77.1331C97.6702 74.7791 95.3525 72.407 93.0287 70.0409C91.2073 68.171 90.1664 65.581 90.1846 62.9728C90.1725 59.8987 91.649 56.8548 94.0998 55.0091L94.0938 55.003Z" fill="#61AE2B"/>
<path fill-rule="evenodd" clip-rule="evenodd" d="M93.0832 89.8533C95.3888 87.5114 97.6944 85.1695 99.994 82.8215C102.469 85.345 104.992 87.8382 107.419 90.41C110.602 94.0167 110.602 99.8987 107.431 103.511C104.563 107.015 99.1468 108.008 95.2375 105.708C92.3934 104.135 90.469 101.085 90.2088 97.8594C89.9425 94.9426 91.0076 91.935 93.0772 89.8594L93.0832 89.8533Z" fill="#005829"/>
<path fill-rule="evenodd" clip-rule="evenodd" d="M75.1589 74.3798C76.8775 71.7353 79.9395 70.0228 83.1044 69.9985C85.7247 69.9138 88.3328 70.991 90.1906 72.8427C92.5325 75.2149 94.8623 77.6052 97.2103 79.9774C94.7171 82.5069 92.2602 85.0666 89.7247 87.5538C86.1664 90.8276 80.1755 90.7368 76.6959 87.3843C73.1135 84.1771 72.4357 78.3314 75.1649 74.3858L75.1589 74.3798Z" fill="#A7E441"/>
<path fill-rule="evenodd" clip-rule="evenodd" d="M109.846 72.8185C111.855 70.8034 114.772 69.7504 117.61 70.0348C120.853 70.3132 123.855 72.3525 125.356 75.2391C127.703 79.4932 126.408 85.345 122.402 88.1226C118.802 90.8336 113.349 90.5008 110.1 87.3843C107.637 84.9456 105.247 82.4463 102.796 79.9955C105.132 77.587 107.492 75.2088 109.846 72.8246V72.8185Z" fill="#1F8634"/>
</g>
<defs>
<clipPath id="clip0_8003_20">
<rect width="200" height="94.6263" fill="white" transform="translate(0 53)"/>
</clipPath>
</defs>
</svg>
