<svg width="200" height="200" viewBox="0 0 200 200" fill="none" xmlns="http://www.w3.org/2000/svg">
<g clip-path="url(#clip0_8003_68)">
<path fill-rule="evenodd" clip-rule="evenodd" d="M89.0287 86.3688C89.0287 85.9119 88.4195 85.7674 88.2203 86.1774C86.9198 88.9032 84.1746 91.4376 80.4529 93.4252C64.5126 101.934 32.741 118.902 16.8473 127.388C10.3064 130.879 4.23011 129.75 1.02015 127.848C0.73898 127.68 0.387512 127.891 0.387512 128.22C0.387512 136.396 0.387512 136.396 0.387512 136.396C0.387512 136.553 0.465615 136.697 0.594482 136.783C3.68339 138.837 10.3454 140.216 16.9255 136.701C32.6707 128.294 64.7 111.193 80.5313 102.739C86.0607 99.7864 89.0169 95.5184 89.0287 91.3907C89.0287 90.3364 89.0287 88.1768 89.0287 86.3649C89.0287 86.3688 89.0287 86.3688 89.0287 86.3688Z" fill="#1D1D1B" stroke="black"/>
<path fill-rule="evenodd" clip-rule="evenodd" d="M2.15661 120.831C4.57383 123.084 8.68978 124.205 12.0599 123.674C12.6417 123.576 13.2158 123.443 13.739 123.252C15.4885 122.612 16.8592 121.315 16.8592 120.245C16.8592 108.87 16.8592 108.87 16.8592 108.87C16.8592 109.795 17.5855 110.955 18.6438 111.943C21.061 114.196 25.177 115.317 28.547 114.786C29.1289 114.688 29.7029 114.555 30.2262 114.364C31.9757 113.724 33.3463 112.427 33.3463 111.357C33.3463 100.048 33.3463 100.048 33.3463 100.048C33.3463 100.973 34.0727 102.133 35.131 103.121C37.5481 105.375 41.6643 106.495 45.0344 105.964C45.6159 105.866 46.19 105.734 46.7133 105.542C48.4627 104.902 49.8337 103.606 49.8337 102.536C49.8337 81.0617 49.8337 81.0617 49.8337 81.0617C49.8337 80.636 49.2908 80.4603 49.0565 80.8118C48.5683 81.5381 47.8225 82.1902 46.7173 82.5925C46.194 82.7838 45.6238 82.9283 45.0379 83.0142C41.6679 83.5453 37.5403 82.4245 35.1349 80.1713C34.721 79.7886 34.3929 79.3591 34.1352 78.9256C33.9126 78.5507 33.3503 78.7108 33.3503 79.1443C33.3503 87.3879 33.3503 87.3879 33.3503 87.3879C33.3503 88.8288 32.4443 90.6017 30.2301 91.4101C29.7068 91.6014 29.1367 91.7459 28.5509 91.8319C25.1809 92.3629 21.0532 91.2422 18.6477 88.989C18.2337 88.6063 17.9057 88.1806 17.6519 87.751C17.4293 87.3762 16.8631 87.5363 16.8631 87.9736C16.8631 96.2797 16.8631 96.2797 16.8631 96.2797C16.8631 97.7207 15.9571 99.4937 13.7429 100.302C13.2197 100.493 12.6495 100.638 12.0638 100.724C8.69369 101.255 4.56603 100.134 2.16051 97.8809C1.75048 97.5022 1.42246 97.0765 1.16863 96.6507C0.946042 96.2758 0.3759 96.432 0.3759 96.8733C0.3759 117.762 0.3759 117.762 0.3759 117.762C0.3759 118.687 1.10223 119.847 2.16051 120.835C2.1566 120.831 2.15661 120.831 2.15661 120.831Z" fill="#1D1D1B" stroke="black"/>
<path fill-rule="evenodd" clip-rule="evenodd" d="M55.3946 91.6601C60.7601 92.7379 65.778 92.816 69.6478 92.2146C72.9789 91.6952 75.4547 90.6721 76.5639 89.3209C77.1573 88.5985 77.3486 87.6808 77.3486 86.7163C77.3486 61.7473 77.3486 61.7473 77.3486 61.7473C77.3486 61.388 76.8997 61.2396 76.6887 61.5286C76.6497 61.5833 76.6068 61.638 76.5639 61.6926C75.4587 63.0321 72.9828 64.0669 69.6478 64.5863C65.817 65.1838 60.8539 65.1095 55.5427 64.063C55.2812 64.0122 55.043 64.2153 55.043 64.4848C55.043 91.2266 55.043 91.2266 55.043 91.2266C55.043 91.4375 55.1914 91.621 55.3946 91.664C55.3946 91.6601 55.3946 91.6601 55.3946 91.6601Z" fill="#1D1D1B" stroke="black"/>
<path fill-rule="evenodd" clip-rule="evenodd" d="M99.416 102.536C99.416 85.4394 99.416 85.4394 99.416 85.4394H102.138L102.306 86.8374C102.759 86.3102 103.309 85.908 103.942 85.619C104.575 85.334 105.266 85.1777 106.031 85.1777C106.867 85.1777 107.644 85.3339 108.359 85.6542C109.073 85.9744 109.683 86.4078 110.21 86.9546C110.733 87.5052 111.139 88.1612 111.428 88.911C111.725 89.6647 111.869 90.473 111.869 91.3712C111.869 92.2694 111.725 93.0777 111.428 93.8314C111.131 94.585 110.725 95.2411 110.21 95.7878C109.686 96.3384 109.077 96.7797 108.359 97.0881C107.644 97.4007 106.867 97.5645 106.031 97.5645C105.305 97.5645 104.633 97.4318 104.028 97.1585C103.419 96.8852 102.884 96.5142 102.431 96.0495C102.431 102.543 102.431 102.543 102.431 102.543H99.4239V102.532L99.416 102.536ZM105.574 94.7998C106.516 94.7998 107.281 94.4874 107.867 93.8704C108.441 93.2495 108.738 92.4138 108.738 91.3634C108.738 90.3129 108.452 89.5124 107.867 88.8798C107.293 88.2588 106.531 87.9504 105.574 87.9504C104.618 87.9504 103.868 88.2628 103.282 88.8798C102.708 89.5007 102.411 90.3363 102.411 91.3634C102.411 92.3904 102.696 93.2378 103.282 93.8704C103.856 94.4913 104.618 94.7998 105.574 94.7998Z" fill="#1D1D1B" stroke="black"/>
<path fill-rule="evenodd" clip-rule="evenodd" d="M119.859 85.166C121.066 85.166 122.14 85.4394 123.104 85.9783C124.073 86.5172 124.822 87.2552 125.373 88.2003C125.924 89.1453 126.197 90.1957 126.197 91.3634C126.197 92.531 125.924 93.5971 125.373 94.5382C124.822 95.4832 124.073 96.2213 123.104 96.7601C122.136 97.2873 121.05 97.5605 119.859 97.5605C118.668 97.5605 117.579 97.2991 116.614 96.7601C115.645 96.233 114.896 95.4949 114.345 94.5382C113.794 93.5931 113.521 92.531 113.521 91.3634C113.521 90.1957 113.794 89.1414 114.345 88.2003C114.896 87.2552 115.645 86.5172 116.614 85.9783C117.583 85.4394 118.656 85.166 119.859 85.166ZM119.859 87.9347C119.227 87.9347 118.664 88.0792 118.188 88.3643C117.711 88.6494 117.329 89.0438 117.067 89.5592C116.794 90.0708 116.661 90.6682 116.661 91.3517C116.661 92.035 116.794 92.6286 117.067 93.1558C117.329 93.6829 117.711 94.0735 118.188 94.3624C118.664 94.6475 119.227 94.792 119.859 94.792C120.492 94.792 121.054 94.6475 121.53 94.3624C122.007 94.0774 122.39 93.6713 122.64 93.1558C122.901 92.6286 123.034 92.035 123.034 91.3517C123.034 90.6682 122.901 90.0747 122.64 89.5592C122.378 89.0477 122.007 88.6533 121.53 88.3643C121.054 88.0792 120.492 87.9347 119.859 87.9347Z" fill="#1D1D1B" stroke="black"/>
<path fill-rule="evenodd" clip-rule="evenodd" d="M128.751 79.531C131.758 79.531 131.758 79.531 131.758 79.531V89.2976H133.058L136.327 85.4277H139.931L135.288 90.7386L139.978 97.303H136.471L132.867 92.1795H131.758V97.303H128.751V79.5154V79.5271V79.531Z" fill="#1D1D1B" stroke="black"/>
<path fill-rule="evenodd" clip-rule="evenodd" d="M141.829 97.3069C141.829 79.5193 141.829 79.5193 141.829 79.5193H144.836V97.3069H141.829Z" fill="#1D1D1B" stroke="black"/>
<path fill-rule="evenodd" clip-rule="evenodd" d="M153.728 85.166C154.934 85.166 156.008 85.4394 156.973 85.9783C157.941 86.5172 158.691 87.2552 159.242 88.2003C159.792 89.1453 160.066 90.1957 160.066 91.3634C160.066 92.531 159.792 93.5971 159.242 94.5382C158.691 95.4832 157.941 96.2213 156.973 96.7601C156.005 97.2873 154.919 97.5605 153.728 97.5605C152.537 97.5605 151.447 97.2991 150.483 96.7601C149.514 96.233 148.764 95.4949 148.214 94.5382C147.663 93.5931 147.39 92.531 147.39 91.3634C147.39 90.1957 147.663 89.1414 148.214 88.2003C148.764 87.2552 149.514 86.5172 150.483 85.9783C151.451 85.4394 152.525 85.166 153.728 85.166ZM153.728 87.9347C153.095 87.9347 152.533 88.0792 152.057 88.3643C151.58 88.6494 151.197 89.0438 150.936 89.5592C150.662 90.0708 150.53 90.6682 150.53 91.3517C150.53 92.035 150.662 92.6286 150.936 93.1558C151.197 93.6829 151.58 94.0735 152.057 94.3624C152.533 94.6475 153.095 94.792 153.728 94.792C154.36 94.792 154.923 94.6475 155.399 94.3624C155.876 94.0774 156.258 93.6713 156.508 93.1558C156.77 92.6286 156.903 92.035 156.903 91.3517C156.903 90.6682 156.77 90.0747 156.508 89.5592C156.246 89.0477 155.876 88.6533 155.399 88.3643C154.923 88.0792 154.36 87.9347 153.728 87.9347Z" fill="#1D1D1B" stroke="black"/>
<path fill-rule="evenodd" clip-rule="evenodd" d="M162.616 97.3069C162.616 85.4277 162.616 85.4277 162.616 85.4277H165.337L165.505 86.6109C165.958 86.1345 166.497 85.7752 167.091 85.537C167.688 85.2871 168.321 85.166 168.989 85.166C169.656 85.166 170.242 85.2715 170.816 85.4862C171.39 85.701 171.878 86.0251 172.296 86.443C172.714 86.8725 173.046 87.388 173.288 88.005C173.538 88.6259 173.659 89.3288 173.659 90.1411C173.659 97.303 173.659 97.303 173.659 97.303H170.652V90.6175C170.652 89.7584 170.437 89.114 169.996 88.6494C169.566 88.1963 168.981 87.9581 168.254 87.9581C167.528 87.9581 166.907 88.1729 166.392 88.6025C165.88 89.032 165.615 89.6998 165.615 90.6214C165.615 97.3069 165.615 97.3069 165.615 97.3069H162.608H162.62H162.616Z" fill="#1D1D1B" stroke="black"/>
<path fill-rule="evenodd" clip-rule="evenodd" d="M176.865 79.531C179.872 79.531 179.872 79.531 179.872 79.531V89.2976H181.172L184.441 85.4277H188.046L183.402 90.7386L188.092 97.303H184.585L180.981 92.1795H179.872V97.303H176.865V79.5154V79.5271V79.531Z" fill="#1D1D1B" stroke="black"/>
<path fill-rule="evenodd" clip-rule="evenodd" d="M188.932 88.9852C189.229 87.802 189.85 86.8725 190.795 86.1931C191.736 85.5136 192.943 85.1777 194.411 85.1777C196.036 85.1777 197.312 85.5956 198.242 86.443C199.159 87.2904 199.624 88.5205 199.624 90.1567C199.624 97.3188 199.624 97.3188 199.624 97.3188H196.965L196.75 95.6589C196.309 96.2564 195.758 96.7211 195.102 97.0569C194.446 97.3928 193.692 97.557 192.856 97.557C192.322 97.557 191.818 97.4747 191.353 97.3188C190.888 97.1625 190.482 96.9359 190.135 96.6274C189.787 96.3306 189.514 95.9596 189.311 95.5301C189.108 95.1005 189.014 94.6007 189.014 94.0501C189.014 92.9293 189.42 92.0702 190.221 91.4727C191.033 90.8752 192.154 90.4223 193.587 90.0864C196.617 89.3952 196.617 89.3952 196.617 89.3952C196.391 88.2745 195.637 87.7122 194.336 87.7122C193.657 87.7122 193.095 87.8684 192.665 88.1651C192.236 88.4619 191.939 88.9188 191.783 89.5124C188.92 88.9852 188.92 88.9852 188.92 88.9852H188.932ZM192.083 93.8197C192.083 94.2258 192.216 94.5499 192.466 94.7491C192.716 94.9638 193.064 95.0732 193.505 95.0732C193.911 95.0732 194.317 95.0029 194.7 94.8701C195.083 94.7374 195.426 94.5343 195.727 94.2609C196.024 93.9876 196.262 93.6635 196.441 93.269C196.621 92.8746 196.703 92.4099 196.703 91.8945C196.703 91.6328 196.703 91.6328 196.703 91.6328L193.79 92.3474C193.239 92.4802 192.81 92.6442 192.524 92.8746C192.228 93.1011 192.083 93.4135 192.083 93.8197Z" fill="#1D1D1B" stroke="black"/>
<path fill-rule="evenodd" clip-rule="evenodd" d="M99.416 122.987C99.416 105.89 99.416 105.89 99.416 105.89H102.138L102.306 107.288C102.759 106.761 103.309 106.359 103.942 106.07C104.575 105.785 105.266 105.629 106.031 105.629C106.867 105.629 107.644 105.785 108.359 106.105C109.073 106.417 109.683 106.859 110.21 107.405C110.733 107.956 111.139 108.612 111.428 109.362C111.725 110.115 111.869 110.924 111.869 111.822C111.869 112.72 111.725 113.528 111.428 114.282C111.131 115.036 110.725 115.692 110.21 116.239C109.686 116.789 109.077 117.23 108.359 117.539C107.644 117.851 106.867 118.015 106.031 118.015C105.305 118.015 104.633 117.882 104.028 117.609C103.419 117.336 102.884 116.965 102.431 116.5C102.431 122.994 102.431 122.994 102.431 122.994H99.4239V122.983L99.416 122.987ZM105.574 115.251C106.516 115.251 107.281 114.938 107.867 114.321C108.441 113.7 108.738 112.865 108.738 111.814C108.738 110.764 108.452 109.963 107.867 109.331C107.293 108.71 106.531 108.401 105.574 108.401C104.618 108.401 103.868 108.71 103.282 109.331C102.708 109.951 102.411 110.787 102.411 111.814C102.411 112.841 102.696 113.689 103.282 114.321C103.856 114.942 104.618 115.251 105.574 115.251Z" fill="#1D1D1B" stroke="black"/>
<path fill-rule="evenodd" clip-rule="evenodd" d="M114.427 117.769C114.427 99.9817 114.427 99.9817 114.427 99.9817H117.434V117.769H114.427Z" fill="#1D1D1B" stroke="black"/>
<path fill-rule="evenodd" clip-rule="evenodd" d="M120.074 109.448C120.371 108.264 120.992 107.335 121.937 106.656C122.878 105.976 124.085 105.64 125.553 105.64C127.177 105.64 128.454 106.058 129.384 106.906C130.301 107.753 130.766 108.995 130.766 110.619C130.766 117.781 130.766 117.781 130.766 117.781H128.107L127.892 116.121C127.451 116.719 126.9 117.184 126.244 117.519C125.588 117.855 124.834 118.019 123.999 118.019C123.464 118.019 122.96 117.937 122.495 117.781C122.03 117.625 121.624 117.399 121.277 117.09C120.929 116.793 120.656 116.422 120.453 115.992C120.25 115.563 120.156 115.063 120.156 114.512C120.156 113.392 120.562 112.533 121.363 111.935C122.175 111.338 123.296 110.885 124.729 110.549C127.759 109.858 127.759 109.858 127.759 109.858C127.533 108.737 126.779 108.175 125.478 108.175C124.799 108.175 124.237 108.331 123.807 108.627C123.378 108.924 123.081 109.381 122.925 109.975C120.062 109.448 120.062 109.448 120.062 109.448H120.074ZM123.225 114.282C123.225 114.688 123.358 115.012 123.608 115.212C123.858 115.426 124.205 115.536 124.647 115.536C125.053 115.536 125.459 115.465 125.842 115.333C126.225 115.2 126.568 114.997 126.869 114.723C127.166 114.45 127.404 114.126 127.583 113.732C127.763 113.337 127.845 112.872 127.845 112.357C127.845 112.095 127.845 112.095 127.845 112.095L124.932 112.81C124.381 112.943 123.952 113.107 123.667 113.337C123.37 113.563 123.225 113.876 123.225 114.282Z" fill="#1D1D1B" stroke="black"/>
<path fill-rule="evenodd" clip-rule="evenodd" d="M133.105 111.849C133.105 110.678 133.378 109.616 133.917 108.674C134.456 107.729 135.194 106.98 136.147 106.441C137.088 105.902 138.15 105.629 139.322 105.629C140.755 105.629 141.981 106.011 142.985 106.788C143.988 107.565 144.633 108.592 144.918 109.869C141.887 110.42 141.887 110.42 141.887 110.42C141.731 109.787 141.423 109.299 140.981 108.94C140.54 108.581 139.978 108.401 139.31 108.401C138.724 108.401 138.201 108.546 137.736 108.819C137.272 109.092 136.901 109.498 136.651 110.014C136.389 110.541 136.256 111.146 136.256 111.842C136.256 112.537 136.389 113.142 136.639 113.657C136.889 114.169 137.248 114.563 137.69 114.841C138.142 115.114 138.67 115.258 139.263 115.258C139.99 115.258 140.587 115.079 141.064 114.708C141.54 114.349 141.852 113.849 142.005 113.216C144.964 113.716 144.964 113.716 144.964 113.716C144.82 114.528 144.488 115.255 143.973 115.914C143.449 116.57 142.778 117.086 141.969 117.453C141.157 117.824 140.263 118.015 139.283 118.015C138.115 118.015 137.065 117.754 136.12 117.215C135.178 116.688 134.448 115.95 133.913 115.005C133.39 114.06 133.113 113.009 133.113 111.842C133.101 111.853 133.101 111.853 133.101 111.853L133.105 111.849Z" fill="#1D1D1B" stroke="black"/>
<path fill-rule="evenodd" clip-rule="evenodd" d="M146.316 111.896C146.316 111.002 146.472 110.166 146.769 109.389C147.065 108.624 147.495 107.956 148.034 107.405C148.585 106.855 149.229 106.413 149.979 106.105C150.732 105.792 151.553 105.629 152.463 105.629C153.372 105.629 154.134 105.773 154.86 106.046C155.587 106.32 156.207 106.714 156.735 107.23C157.258 107.741 157.652 108.35 157.941 109.057C158.226 109.76 158.371 110.537 158.371 111.396C158.371 111.838 158.324 112.29 158.226 112.744C149.409 112.744 149.409 112.744 149.409 112.744C149.553 113.638 149.897 114.306 150.436 114.751C150.986 115.18 151.701 115.407 152.607 115.407C153.372 115.407 153.978 115.251 154.446 114.954C154.911 114.657 155.247 114.239 155.45 113.724C158.242 114.298 158.242 114.298 158.242 114.298C157.894 115.481 157.226 116.399 156.239 117.043C155.247 117.687 154.044 118.012 152.599 118.012C151.631 118.012 150.76 117.855 149.987 117.558C149.209 117.261 148.553 116.828 148.007 116.293C147.456 115.743 147.038 115.098 146.753 114.349C146.456 113.595 146.312 112.783 146.312 111.888C146.324 111.9 146.324 111.9 146.324 111.9L146.316 111.896ZM155.208 110.451C155.075 109.709 154.778 109.139 154.314 108.733C153.837 108.327 153.228 108.124 152.463 108.124C151.748 108.124 151.139 108.315 150.612 108.71C150.084 109.092 149.717 109.678 149.502 110.451" fill="#1D1D1B"/>
<path d="M155.208 110.451C155.075 109.709 154.778 109.139 154.314 108.733C153.837 108.327 153.228 108.124 152.463 108.124C151.748 108.124 151.139 108.315 150.612 108.71C150.084 109.092 149.717 109.678 149.502 110.451M146.316 111.896C146.316 111.002 146.472 110.166 146.769 109.389C147.065 108.624 147.495 107.956 148.034 107.405C148.585 106.855 149.229 106.413 149.979 106.105C150.732 105.792 151.553 105.629 152.463 105.629C153.372 105.629 154.134 105.773 154.86 106.046C155.587 106.32 156.207 106.714 156.735 107.23C157.258 107.741 157.652 108.35 157.941 109.057C158.226 109.76 158.371 110.537 158.371 111.396C158.371 111.838 158.324 112.29 158.226 112.744C149.409 112.744 149.409 112.744 149.409 112.744C149.553 113.638 149.897 114.306 150.436 114.751C150.986 115.18 151.701 115.407 152.607 115.407C153.372 115.407 153.978 115.251 154.446 114.954C154.911 114.657 155.247 114.239 155.45 113.724C158.242 114.298 158.242 114.298 158.242 114.298C157.894 115.481 157.226 116.399 156.239 117.043C155.247 117.687 154.044 118.012 152.599 118.012C151.631 118.012 150.76 117.855 149.987 117.558C149.209 117.261 148.553 116.828 148.007 116.293C147.456 115.743 147.038 115.098 146.753 114.349C146.456 113.595 146.312 112.783 146.312 111.888C146.324 111.9 146.324 111.9 146.324 111.9L146.316 111.896Z" stroke="black"/>
</g>
<defs>
<clipPath id="clip0_8003_68">
<rect width="200" height="78.2337" fill="white" transform="translate(0 61)"/>
</clipPath>
</defs>
</svg>
