<svg width="200" height="200" viewBox="0 0 200 200" fill="none" xmlns="http://www.w3.org/2000/svg">
<path d="M62.74 89.5485V110.339H67.4022V93.7215H78.5307V110.339H83.2303V89.5485H62.74ZM91.388 99.9625C91.388 95.6766 94.4332 93.082 98.343 93.082C102.254 93.082 105.298 95.6766 105.298 99.9625C105.298 104.248 102.254 106.843 98.343 106.843C94.4332 106.843 91.388 104.248 91.388 99.9625ZM109.997 99.9625C109.997 93.4205 104.659 89.0595 98.343 89.0595C92.0275 89.0595 86.689 93.4205 86.689 99.9625C86.689 106.505 92.0275 110.866 98.343 110.866C104.659 110.866 109.997 106.504 109.997 99.9625ZM118.532 89.5485L115.749 104.436C115.524 105.564 114.809 106.053 113.719 106.053H111.464V110.339H113.944C117.366 110.339 119.659 108.722 120.336 105.038L122.442 93.758H130.411V110.338H135.111V89.548L118.532 89.5485ZM139.622 89.5485V110.339H144.247V101.542H147.405C148.118 107.519 152.893 110.866 158.683 110.866C164.961 110.866 170.037 106.918 170.037 99.9625C170.037 93.0075 164.962 89.0595 158.683 89.0595C153.233 89.0595 148.683 92.0299 147.592 97.3305H144.247V89.549L139.622 89.5485ZM151.992 99.9625C151.992 95.6766 154.286 93.082 158.684 93.082C163.083 93.082 165.376 95.6766 165.376 99.9625C165.376 104.248 163.083 106.843 158.684 106.843C154.286 106.843 151.992 104.248 151.992 99.9625ZM195 94.624C192.858 90.9767 189.325 89.0595 184.475 89.0595C177.932 89.0595 172.857 93.2332 172.857 99.9625C172.857 106.692 177.82 110.866 184.475 110.866C189.325 110.866 192.859 108.948 195 105.302L191.354 103.196C189.775 105.452 187.708 106.692 184.399 106.692C180.339 106.692 177.519 103.985 177.519 99.9628C177.519 95.8647 180.226 93.2338 184.399 93.2338C187.708 93.2338 189.775 94.4742 191.354 96.7296L195 94.6246" fill="#2B2E2D"/>
<path d="M29.189 80.5015L26.7317 95.266C26.6737 95.6173 26.2953 95.7755 25.9651 95.647L18.5796 92.7936C17.6653 92.4403 17.3596 91.7536 17.4853 90.9948L19.0581 81.5463C19.1849 80.7891 19.6958 80.238 20.6764 80.1999L28.5874 79.8921C28.9417 79.8791 29.2479 80.1508 29.189 80.5015ZM7.9866 91.1316L21.2841 98.0021C21.5998 98.1654 21.6348 98.574 21.4114 98.8491L16.4279 105.002C15.811 105.764 15.0643 105.844 14.3812 105.491L5.8712 101.095C5.18865 100.741 4.8223 100.086 5.08635 99.1413L7.22225 91.5173C7.31775 91.175 7.6709 90.9683 7.9866 91.1316ZM11.5442 114.522L22.2022 104.014C22.4559 103.764 22.8545 103.858 23.0476 104.156L27.3497 110.801C27.8825 111.625 27.727 112.36 27.18 112.9L20.359 119.625C19.8116 120.164 19.0747 120.309 18.2586 119.765L11.6741 115.368C11.3788 115.172 11.2916 114.772 11.5442 114.522ZM35.0147 118.334L28.2357 104.989C28.0745 104.672 28.2852 104.321 28.6271 104.228L36.2651 102.145C37.2112 101.887 37.8646 102.258 38.2127 102.944L42.5503 111.484C42.8983 112.169 42.8132 112.915 42.0471 113.528L35.8596 118.468C35.582 118.689 35.1749 118.651 35.0147 118.334ZM45.8083 97.3794L31.0063 99.602C30.6546 99.6541 30.3879 99.3436 30.4072 98.9898L30.8408 91.0838C30.8946 90.1053 31.4529 89.6024 32.2133 89.4881L41.6848 88.0665C42.4451 87.9517 43.1267 88.2685 43.4659 89.1884L46.2019 96.6184C46.3241 96.9514 46.1602 97.3267 45.8083 97.3794Z" fill="#F9AA24"/>
</svg>
