<svg width="200" height="200" viewBox="0 0 200 200" fill="none" xmlns="http://www.w3.org/2000/svg">
<path fill-rule="evenodd" clip-rule="evenodd" d="M52.3188 109.66V90.7277H67.6891V109.66H63.9347V94.3465H56.0723V109.66H52.3188ZM78.6713 98.7505H76.5406C74.7654 98.7505 73.8772 99.3842 73.8772 100.624C73.8772 101.839 74.7406 102.446 76.4654 102.446C77.2267 102.446 77.9614 102.396 78.6713 102.269V98.7505ZM82.1465 95.8653V109.659H78.6713V104.873C77.998 104.996 77.2852 105.157 76.4238 105.182L73.5475 109.659H69.6416L73.0772 104.695C71.2753 103.936 70.3267 102.624 70.3267 100.573C70.3267 97.7634 72.3802 95.8653 76.4396 95.8653H82.1465ZM105.634 97.0297C106.698 98.0673 107.231 99.4851 107.231 101.333V109.659H103.655V101.99C103.655 99.8901 102.54 98.7762 100.89 98.7762C99.0881 98.7762 97.8465 100.067 97.8465 102.092V109.66H94.2703V102.017C94.2703 99.9663 93.1792 98.7762 91.4802 98.7762C89.7307 98.7762 88.4624 100.067 88.4624 102.118V109.66H84.8861V95.8653H88.3861V97.8396C89.1723 96.397 90.7951 95.4614 92.5961 95.4861C94.3208 95.4861 95.9188 96.3218 96.6545 97.9158C97.6693 96.397 99.5456 95.4861 101.6 95.4861C103.25 95.4861 104.593 95.9901 105.634 97.0297ZM135.234 105.584C135.944 104.825 136.299 103.889 136.299 102.776C136.299 101.661 135.944 100.726 135.234 99.9653C134.524 99.2069 133.61 98.8267 132.469 98.8267C131.353 98.8267 130.44 99.2069 129.731 99.9653C129.02 100.726 128.664 101.661 128.664 102.776C128.664 103.889 129.021 104.826 129.731 105.585C130.441 106.345 131.353 106.724 132.469 106.724C133.61 106.724 134.524 106.345 135.234 105.585M137.973 97.6119C139.266 99.004 139.901 100.726 139.901 102.75C139.901 104.775 139.242 106.496 137.948 107.889C136.654 109.28 135.032 109.988 133.077 109.988C131.379 109.988 129.811 109.248 128.741 107.937V115.33H125.164V95.8653H128.715V97.6752C129.851 96.2614 131.353 95.5119 133.103 95.5119C135.056 95.5119 136.679 96.2198 137.973 97.6119ZM148.601 106.699C149.691 106.699 150.579 106.319 151.314 105.559C152.051 104.775 152.431 103.839 152.431 102.75C152.431 101.661 152.051 100.726 151.315 99.9663C150.579 99.2069 149.691 98.8277 148.601 98.8277C147.51 98.8277 146.597 99.2069 145.861 99.9663C145.127 100.726 144.771 101.662 144.771 102.75C144.771 103.839 145.127 104.775 145.861 105.559C146.597 106.319 147.51 106.698 148.601 106.698M143.274 97.6119C144.67 96.1941 146.446 95.4861 148.601 95.4861C150.756 95.4861 152.532 96.1941 153.928 97.6119C155.322 99.004 156.007 100.726 156.007 102.75C156.007 104.8 155.322 106.522 153.928 107.914C152.532 109.305 150.756 110.015 148.601 110.015C146.446 110.015 144.67 109.305 143.274 107.914C141.879 106.522 141.195 104.801 141.195 102.75C141.195 100.726 141.879 99.004 143.274 97.6119ZM166.076 95.8653H169.653V109.66H166.076V105.017C165.03 105.614 163.896 105.914 163.007 105.914C161.359 105.914 160.142 105.61 159.051 104.876C157.961 104.092 157.352 102.624 157.352 100.497V95.8653H160.903V100.245C160.903 101.864 161.74 102.674 163.414 102.674C164.352 102.674 165.152 102.544 166.077 102.174V95.8653H166.076ZM181.473 109.66L175.969 103.29V109.66H172.393V95.8446H175.969V101.318L180.991 95.8653H185.506L179.343 102.254L185.861 109.66H181.473Z" fill="#EB2316"/>
<path fill-rule="evenodd" clip-rule="evenodd" d="M195.284 99.9406C194.549 99.1554 193.635 98.7762 192.519 98.7762C191.378 98.7762 190.464 99.1554 189.729 99.9406C189.019 100.726 188.663 101.661 188.663 102.749C188.663 103.863 189.019 104.8 189.754 105.585C190.49 106.369 191.403 106.748 192.519 106.748C193.635 106.748 194.549 106.369 195.284 105.585C196.019 104.8 196.4 103.863 196.4 102.749C196.4 101.661 196.019 100.726 195.284 99.9406ZM196.35 95.8653H199.748V109.659H196.35V107.838C195.161 109.275 193.686 109.989 191.936 109.989C189.957 109.989 188.309 109.306 187.015 107.914C185.722 106.522 185.088 104.775 185.088 102.7C185.088 100.624 185.748 98.903 187.041 97.5614C188.335 96.195 189.983 95.5119 191.936 95.5119C193.66 95.5119 195.182 96.294 196.35 97.6742V95.8653ZM117.124 92.398C117.124 91.2089 118.062 90.3228 119.279 90.3228C120.471 90.3228 121.385 91.2594 121.385 92.398C121.385 93.6386 120.471 94.5495 119.279 94.5495C118.062 94.5495 117.124 93.6386 117.124 92.398ZM112.711 101.358H119.737C119.407 99.5604 118.113 98.4732 116.287 98.4732C114.485 98.4732 113.142 99.5614 112.711 101.358ZM113.751 90.3228C114.943 90.3228 115.881 91.2594 115.881 92.398C115.881 93.6386 114.968 94.5495 113.751 94.5495C112.533 94.5495 111.62 93.6386 111.62 92.398C111.62 91.2594 112.558 90.3228 113.751 90.3228ZM123.084 104.016H112.711C113.218 105.964 114.562 106.951 116.744 106.951C118.24 106.951 119.906 106.392 121.169 105.392L122.609 107.652C120.863 109.283 118.874 109.963 116.591 109.963C114.155 109.963 112.304 109.255 111.011 107.863C109.718 106.471 109.083 104.749 109.083 102.75C109.083 100.649 109.743 98.9287 111.087 97.5624C112.432 96.195 114.156 95.5109 116.287 95.5109C118.291 95.5109 119.964 96.1435 121.257 97.3841C122.552 98.6247 123.211 100.295 123.211 102.446C123.211 102.927 123.161 103.459 123.084 104.016Z" fill="#EB2316"/>
<path fill-rule="evenodd" clip-rule="evenodd" d="M23.3119 76C10.4574 76 0 86.4574 0 99.3119C0 112.166 10.4574 122.624 23.3119 122.624C36.1653 122.624 46.6238 112.166 46.6238 99.3119C46.6238 86.4574 36.1653 76 23.3119 76Z" fill="white"/>
<path fill-rule="evenodd" clip-rule="evenodd" d="M35.0762 82.5911C33.297 87.1544 29.2465 88.1039 23.3792 88.1039C22.7495 88.1039 22.1257 88.094 21.5238 88.0851C20.9416 88.0772 20.3911 88.0683 19.8515 88.0683C19.3723 88.0683 18.8891 88.0742 18.4129 88.095C19.2347 86.0772 20.5465 84.7059 22.4139 83.8742C25.0168 82.7158 28.401 82.7039 31.3871 82.695C32.6881 82.6901 33.9337 82.6851 35.0762 82.5911Z" fill="#008F32"/>
<path fill-rule="evenodd" clip-rule="evenodd" d="M36.904 84.0554C34.2723 89.7881 28.4069 90.3624 23.3792 90.3624C22.2753 90.3624 21.2178 90.3356 20.2386 90.3297L18.9723 95.2822C25.4574 89.995 34.0337 95.2366 33.1168 103.215C32.499 108.588 28.6683 112.102 24.6159 113.112C20.201 114.213 15.3099 112.565 13.1168 108.066C12.8842 107.591 12.4792 106.639 12.3248 106.13L16.9802 104.934C17.0624 105.202 17.202 105.461 17.3485 105.698C20.4654 110.725 26.7812 108.211 27.4941 102.996C28.2198 97.6911 20.7763 94.8653 17.3842 101.065L13.2555 99.3059L13.1842 99.2742L15.1753 91.2812C15.298 90.7129 15.7119 89.1257 15.7832 88.8653C18.0337 80.5901 25.3139 80.4594 31.1535 80.4376C28.7386 79.4327 26.0911 78.8762 23.3119 78.8762C12.0248 78.8762 2.87625 88.0247 2.87625 99.3119C2.87625 110.599 12.0248 119.748 23.3119 119.748C34.599 119.748 43.7475 110.599 43.7475 99.3119C43.7475 93.2445 41.102 87.798 36.904 84.0554Z" fill="#EB2316"/>
</svg>
