<svg width="200" height="200" viewBox="0 0 200 200" fill="none" xmlns="http://www.w3.org/2000/svg">
<g clip-path="url(#clip0_6586_588)">
<path d="M64.6912 102.038H74.6853V105.184H68.4338V108.414H70.513C71.913 108.414 73.715 108.58 75.0734 109.911C75.6555 110.493 76.3763 111.56 76.3763 113.279C76.3763 114.665 75.9189 115.899 75.0734 116.744C73.8813 117.937 72.1625 118.2 70.1942 118.2H64.6912V102.038ZM69.9031 115.192C70.4159 115.192 71.3308 115.15 71.913 114.679C72.107 114.513 72.5367 114.069 72.5367 113.251C72.5367 112.475 72.1486 111.99 71.816 111.754C71.2338 111.339 70.2912 111.325 69.9031 111.325H68.4199V115.206H69.9031V115.192Z" fill="black"/>
<path d="M86.4397 107.388H89.9328V118.2H86.4397V116.897C85.4971 118.352 84.1387 118.574 83.2377 118.574C81.6852 118.574 80.3823 118.186 79.1902 116.925C78.0536 115.719 77.61 114.305 77.61 112.877C77.61 111.061 78.2892 109.509 79.2872 108.511C80.2298 107.568 81.5466 107.028 83.0437 107.028C83.9585 107.028 85.4417 107.249 86.4397 108.608V107.388ZM82.0041 110.812C81.6437 111.172 81.2001 111.81 81.2001 112.78C81.2001 113.75 81.6159 114.374 81.9209 114.721C82.406 115.234 83.1546 115.566 83.9862 115.566C84.6932 115.566 85.3447 115.275 85.8021 114.818C86.2595 114.388 86.6476 113.709 86.6476 112.78C86.6476 112.004 86.3565 111.283 85.8437 110.798C85.3169 110.285 84.5407 110.049 83.9031 110.049C83.1546 110.036 82.4615 110.354 82.0041 110.812Z" fill="black"/>
<path d="M92.0398 107.388H95.5329V111.145H99.4416V107.388H102.935V118.2H99.4416V113.958H95.5329V118.2H92.0398V107.388Z" fill="black"/>
<path d="M105.028 107.388H108.521V111.685L112.055 107.388H116.394L111.764 112.406L116.713 118.2H112.208L108.521 113.404V118.2H105.028V107.388Z" fill="black"/>
<path d="M70.3882 81.2454C71.7882 81.2454 73.3407 81.4395 74.6298 82.5761C76.0159 83.7821 76.21 85.39 76.21 86.4989C76.21 88.5365 75.4338 89.6732 74.8239 90.3108C73.5348 91.6138 71.8437 91.7385 70.707 91.7385H68.4338V97.4078H64.705V81.2454H70.3882ZM68.4199 88.689H69.7506C70.2635 88.689 71.1506 88.6613 71.7605 88.0791C72.0932 87.7464 72.3704 87.1781 72.3704 86.485C72.3704 85.8058 72.1348 85.2514 71.7605 84.9048C71.206 84.3781 70.4021 84.2949 69.6813 84.2949H68.4199V88.689Z" fill="black"/>
<path d="M85.3169 86.5961H88.81V97.4079H85.3169V96.105C84.3744 97.5604 83.0159 97.7822 82.1149 97.7822C80.5625 97.7822 79.2595 97.3941 78.0674 96.1327C76.9308 94.9267 76.4872 93.5129 76.4872 92.0852C76.4872 90.2693 77.1664 88.7168 78.1645 87.7188C79.107 86.7763 80.4239 86.2357 81.9209 86.2357C82.8357 86.2357 84.3189 86.4574 85.3169 87.8159V86.5961ZM80.8813 90.0198C80.5209 90.3802 80.0773 91.0178 80.0773 91.9881C80.0773 92.9584 80.4932 93.5822 80.7981 93.9287C81.2833 94.4416 82.0318 94.7743 82.8635 94.7743C83.5704 94.7743 84.2219 94.4832 84.6793 94.0258C85.1367 93.5961 85.5248 92.9168 85.5248 91.9881C85.5248 91.2119 85.2338 90.4911 84.7209 90.006C84.1942 89.4931 83.4179 89.2574 82.7803 89.2574C82.0456 89.2436 81.3387 89.5624 80.8813 90.0198Z" fill="black"/>
<path d="M94.4101 86.5959V92.7781L99.0119 86.5959H102.255V97.4078H98.7626V91.1286L94.1606 97.4078H90.917V86.5959H94.4101ZM100.98 82.2296C100.689 83.1028 100.107 83.8514 99.4277 84.2949C98.5131 84.9048 97.3903 84.9741 96.5863 84.9741C95.7824 84.9741 94.6735 84.9048 93.7447 84.2949C93.0655 83.8652 92.4834 83.1028 92.1923 82.2296L94.618 81.287C94.715 81.7721 94.9507 82.1603 95.2418 82.3959C95.5606 82.6593 95.9626 82.8256 96.5725 82.8256C97.1824 82.8256 97.5843 82.6593 97.9032 82.3959C98.1943 82.1603 98.4299 81.7721 98.5269 81.287L100.98 82.2296Z" fill="black"/>
<path d="M109.976 102.8V97.5741H109.838C107.384 97.5741 106.026 96.5623 105.402 95.9524C104.626 95.2038 103.85 93.9147 103.85 91.9464C103.85 89.8118 104.82 88.4534 105.721 87.7326C106.788 86.887 108.382 86.4296 109.824 86.4296H109.99V81.2454H113.483V86.4296H113.65C115.077 86.4296 116.685 86.887 117.752 87.7326C118.653 88.4534 119.624 89.8118 119.624 91.9464C119.624 93.9147 118.848 95.19 118.071 95.9524C117.448 96.5623 116.089 97.5741 113.636 97.5741H113.497V102.8H109.976ZM110.143 89.2435C109.325 89.2019 108.465 89.4791 107.966 89.992C107.55 90.4078 107.259 91.1009 107.259 91.9603C107.259 92.8058 107.55 93.5128 107.966 93.9425C108.424 94.4553 109.255 94.788 110.143 94.7603V89.2435ZM113.303 94.7741C114.204 94.8019 115.022 94.4553 115.479 93.9563C115.895 93.5266 116.186 92.8197 116.186 91.9741C116.186 91.1286 115.895 90.4217 115.479 90.0058C114.966 89.493 114.121 89.2019 113.303 89.2573V94.7741Z" fill="black"/>
<path d="M126.776 102.8V97.5741H126.638C124.184 97.5741 122.826 96.5623 122.202 95.9524C121.426 95.2038 120.65 93.9147 120.65 91.9464C120.65 89.8118 121.62 88.4534 122.521 87.7326C123.588 86.887 125.182 86.4296 126.624 86.4296H126.79V81.2454H130.283V86.4296H130.45C131.877 86.4296 133.485 86.887 134.552 87.7326C135.453 88.4534 136.424 89.8118 136.424 91.9464C136.424 93.9147 135.648 95.19 134.871 95.9524C134.248 96.5623 132.889 97.5741 130.436 97.5741H130.297V102.8H126.776ZM126.943 89.2435C126.125 89.2019 125.265 89.4791 124.766 89.992C124.35 90.4078 124.059 91.1009 124.059 91.9603C124.059 92.8058 124.35 93.5128 124.766 93.9425C125.224 94.4553 126.055 94.788 126.943 94.7603V89.2435ZM130.103 94.7741C131.004 94.8019 131.822 94.4553 132.279 93.9563C132.695 93.5266 132.986 92.8197 132.986 91.9741C132.986 91.1286 132.695 90.4217 132.279 90.0058C131.766 89.493 130.921 89.2019 130.103 89.2573V94.7741Z" fill="black"/>
<path d="M146.265 86.5961H149.758V97.4079H146.265V96.105C145.323 97.5604 143.964 97.7822 143.063 97.7822C141.511 97.7822 140.208 97.3941 139.016 96.1327C137.879 94.9267 137.436 93.5129 137.436 92.0852C137.436 90.2693 138.115 88.7168 139.113 87.7188C140.055 86.7763 141.372 86.2357 142.869 86.2357C143.784 86.2357 145.267 86.4574 146.265 87.8159V86.5961ZM141.83 90.0198C141.469 90.3802 141.026 91.0178 141.026 91.9881C141.026 92.9584 141.442 93.5822 141.747 93.9287C142.232 94.4416 142.98 94.7743 143.812 94.7743C144.519 94.7743 145.17 94.4832 145.628 94.0258C146.085 93.5961 146.473 92.9168 146.473 91.9881C146.473 91.2119 146.182 90.4911 145.669 90.006C145.143 89.4931 144.366 89.2574 143.729 89.2574C142.994 89.2436 142.287 89.5624 141.83 90.0198Z" fill="black"/>
<path d="M155.358 86.5959V92.7781L159.96 86.5959H163.204V97.4078H159.711V91.1286L155.109 97.4078H151.865V86.5959H155.358ZM161.929 82.2296C161.638 83.1028 161.055 83.8514 160.376 84.2949C159.461 84.9048 158.339 84.9741 157.535 84.9741C156.731 84.9741 155.622 84.9048 154.693 84.2949C154.014 83.8652 153.432 83.1028 153.141 82.2296L155.566 81.287C155.663 81.7721 155.899 82.1603 156.19 82.3959C156.509 82.6593 156.911 82.8256 157.521 82.8256C158.131 82.8256 158.533 82.6593 158.851 82.3959C159.143 82.1603 159.378 81.7721 159.475 81.287L161.929 82.2296Z" fill="black"/>
<path d="M164.964 87.5248C165.422 87.2337 166.17 86.8456 166.752 86.6238C167.57 86.3327 168.471 86.2357 169.303 86.2357C169.885 86.2357 171.867 86.2772 172.962 87.3446C173.572 87.9267 173.766 88.606 173.766 89.3267C173.766 90.006 173.642 90.6159 173.115 91.1703C172.851 91.4337 172.533 91.6555 172.2 91.7802C173.004 91.9743 173.503 92.404 173.655 92.5564C174.182 93.0693 174.376 93.6515 174.376 94.3446C174.376 95.0931 174.141 95.897 173.434 96.604C172.519 97.505 171.257 97.7683 169.455 97.7683C168.485 97.7683 167.473 97.6436 166.503 97.2832C165.56 96.9228 164.853 96.3822 164.562 96.1465L166.046 93.8456C166.434 94.1782 166.947 94.5248 167.376 94.7188C167.834 94.9129 168.485 95.0515 169.053 95.0515C169.442 95.0515 169.968 94.9822 170.315 94.7881C170.731 94.5525 170.8 94.206 170.8 93.9703C170.8 93.6099 170.606 93.3881 170.287 93.2495C169.996 93.1248 169.414 93.0555 169.026 93.0555H167.723V90.6852H168.721C169.04 90.6852 169.691 90.6436 170.024 90.4911C170.44 90.297 170.537 89.9782 170.537 89.7703C170.537 89.5763 170.44 89.2574 170.01 89.0634C169.844 88.9941 169.497 88.8693 168.915 88.8693C168.36 88.8693 167.945 88.9664 167.487 89.1604C167.03 89.3545 166.669 89.5763 166.323 89.8673L164.964 87.5248Z" fill="black"/>
<path d="M187.018 92.6119H178.951C178.951 93.1941 179.172 93.9703 179.602 94.4555C180.129 95.0376 180.863 95.1347 181.39 95.1347C181.903 95.1347 182.43 95.0376 182.79 94.8159C182.832 94.7881 183.248 94.5248 183.539 93.9149L186.838 94.2475C186.352 95.7723 185.382 96.5763 184.758 96.9644C183.719 97.5881 182.554 97.7683 181.335 97.7683C179.713 97.7683 178.285 97.4772 177.024 96.2159C176.081 95.2733 175.402 93.8456 175.402 92.0436C175.402 90.4911 175.956 88.897 177.051 87.7743C178.354 86.4713 179.99 86.2218 181.196 86.2218C182.402 86.2218 184.149 86.4436 185.493 87.8436C186.782 89.202 187.018 90.8931 187.018 92.2376V92.6119ZM183.802 90.5327C183.774 90.4357 183.608 89.7565 183.095 89.2713C182.707 88.9109 182.152 88.6614 181.446 88.6614C180.545 88.6614 180.018 89.0218 179.671 89.3683C179.408 89.6594 179.158 90.0475 179.061 90.5327H183.802Z" fill="black"/>
<path d="M188.598 86.5961H192.091V90.3525H196V86.5961H199.493V97.408H196V93.1664H192.091V97.408H188.598V86.5961Z" fill="black"/>
<path d="M55.4455 116.966C55.4455 123.703 51.703 127.446 44.9663 127.446H10.4792C3.74257 127.446 0 123.703 0 116.966V82.4792C0 75.7426 3.74257 72 10.4792 72H44.9802C51.703 72 55.4455 75.7426 55.4455 82.4792V116.966Z" fill="#FFDD00"/>
<path d="M35.6514 97.0196V91.7246L37.5643 89.8117V94.3998L39.2276 96.0632L45.9227 89.3681L47.5722 91.0176C47.5583 89.7701 47.3088 86.1523 44.2454 83.1444C40.9464 79.9563 37.3702 81.3979 36.1504 82.6176L29.4692 89.2988L31.1742 91.0038L27.7227 94.483L24.2712 91.0315L25.9761 89.3265L19.2949 82.6454C18.0751 81.4256 14.4989 79.984 11.1999 83.1721C8.13654 86.18 7.88703 89.7978 7.87317 91.0454L9.52267 89.3959L16.2177 96.0909L17.8811 94.4275V89.8394L19.794 91.7523V97.0473L22.4831 99.7226L9.23158 112.974L14.4712 118.2L27.7227 104.962L40.9742 118.214L46.2138 112.988L32.9623 99.7226L35.6514 97.0196Z" fill="#2B2D33"/>
</g>
<defs>
<clipPath id="clip0_6586_588">
<rect width="200" height="55.4455" fill="white" transform="translate(0 72)"/>
</clipPath>
</defs>
</svg>
