<svg width="200" height="200" viewBox="0 0 200 200" fill="none" xmlns="http://www.w3.org/2000/svg">
<g clip-path="url(#clip0_6463_369)">
<path fill-rule="evenodd" clip-rule="evenodd" d="M17.5956 103.491H11.8145V87.4357H17.812C23.2135 87.4357 27.8035 90.0118 27.8035 95.3481C27.8035 101.234 23.5165 103.491 17.5956 103.491ZM18.3379 76.4382H0.842331V126.452H11.8155L11.8145 114.39H18.6314C45.4374 114.39 45.4339 76.4382 18.3379 76.4382Z" fill="#84BF41"/>
<path fill-rule="evenodd" clip-rule="evenodd" d="M153.02 126.532H141.99L136.966 95.6123L127.22 126.592L115.725 126.612L106.026 95.7277L100.585 126.532H89.5809L98.2147 76.678L110.61 76.6103L121.724 110.072L132.63 76.3775L144.453 76.4242L153.02 126.532Z" fill="#84BF41"/>
<path fill-rule="evenodd" clip-rule="evenodd" d="M199.764 126.368H189.208V95.6004L169.152 126.368H160.113V76.588H170.933V107.078L190.924 76.588H199.764V126.368Z" fill="#84BF41"/>
<path fill-rule="evenodd" clip-rule="evenodd" d="M78.5455 95.4954C77.0564 89.4666 70.9589 86.3676 64.7639 86.3676C58.6276 86.3676 52.8355 89.4666 51.2271 95.4954H78.5455ZM64.6689 76.2691C70.2087 76.2691 75.0047 77.7765 79.0549 80.7909C83.1057 83.8054 85.9524 87.9715 87.6335 93.2715C88.5718 96.2302 89.2305 100.169 89.2305 104.088L50.4589 104.371C51.5912 111.064 57.7823 116.522 64.6922 116.522C69.5778 116.522 75.1007 114.181 76.5907 110.684L85.1534 115.619C83.4689 118.067 81.4057 120.16 78.9654 121.896C74.8554 124.82 70.1793 126.283 64.937 126.283C57.7286 126.283 51.8455 123.946 47.2883 119.274C42.731 114.601 40.4524 108.616 40.4524 101.321C40.4524 94.5074 42.8047 88.6292 47.5111 83.6855C52.2181 78.7407 57.9365 76.2691 64.6689 76.2691Z" fill="#DD3E3D"/>
<path fill-rule="evenodd" clip-rule="evenodd" d="M76.7494 69.9701C77.3494 70.7274 80.1862 66.6383 82.7026 69.2572C84.7106 71.3463 87.2832 70.7055 87.825 70.4905C85.7469 73.4567 84.3927 75.6159 81.0748 75.6388C79.4454 75.6507 76.5509 73.7144 76.6001 71.4861C76.6091 71.0905 76.3041 70.8995 76.0011 71.002C74.6275 72.3358 73.1917 74.1577 71.8181 75.4915C75.3519 69.5985 80.2643 62.0114 80.6414 59.9895C81.4683 60.9358 82.4778 61.7279 83.6385 62.3905C81.227 64.6836 79.0146 66.3323 76.7494 69.9701Z" fill="#84BF41"/>
<path fill-rule="evenodd" clip-rule="evenodd" d="M0.419052 135.473H3.16035V136.152H1.23597V139.52H0.419052V135.473Z" fill="#DD3E3D"/>
<path fill-rule="evenodd" clip-rule="evenodd" d="M4.83762 135.473H5.60229V138.167L7.24209 135.473H8.05652V139.52H7.29184V136.878L5.65453 139.52H4.83762V135.473Z" fill="#DD3E3D"/>
<path fill-rule="evenodd" clip-rule="evenodd" d="M10.1448 135.473H13.3637V139.52H12.5463V136.152H10.9617V139.52H10.1448V135.473Z" fill="#DD3E3D"/>
<path fill-rule="evenodd" clip-rule="evenodd" d="M15.4411 139.52V135.473H18.4421V136.158H16.2585V137.055H18.2903V137.737H16.2585V138.838H18.5192V139.52H15.4411Z" fill="#DD3E3D"/>
<path fill-rule="evenodd" clip-rule="evenodd" d="M21.273 136.157V137.306H21.7203C22.0422 137.306 22.2576 137.285 22.3661 137.243C22.475 137.2 22.5596 137.134 22.6213 137.044C22.683 136.953 22.7138 136.849 22.7138 136.729C22.7138 136.582 22.671 136.46 22.5845 136.364C22.4979 136.269 22.3884 136.209 22.2556 136.185C22.1581 136.167 21.9621 136.157 21.6676 136.157H21.273ZM20.4556 139.52V135.473H21.7671C22.2641 135.473 22.588 135.493 22.7387 135.534C22.971 135.594 23.1651 135.726 23.3213 135.93C23.478 136.133 23.5561 136.396 23.5561 136.718C23.5561 136.966 23.5108 137.175 23.4208 137.345C23.3307 137.514 23.2158 137.647 23.077 137.744C22.9382 137.84 22.7969 137.904 22.6531 137.935C22.4581 137.974 22.1755 137.993 21.8059 137.993H21.273V139.52H20.4556Z" fill="#DD3E3D"/>
<path fill-rule="evenodd" clip-rule="evenodd" d="M25.385 139.52V135.473H26.6079L27.3422 138.233L28.0681 135.473H29.294V139.52H28.5348V136.334L27.7313 139.52H26.9447L26.1442 136.334V139.52H25.385Z" fill="#DD3E3D"/>
<path fill-rule="evenodd" clip-rule="evenodd" d="M33.4944 137.919L32.9367 136.417L32.3899 137.919H33.4944ZM34.9989 139.52H34.1098L33.7566 138.601H32.1387L31.8048 139.52H30.9382L32.5143 135.473H33.3785L34.9989 139.52Z" fill="#DD3E3D"/>
<path fill-rule="evenodd" clip-rule="evenodd" d="M37.4932 136.157V137.306H37.9404C38.2623 137.306 38.4778 137.285 38.5862 137.243C38.6952 137.2 38.7797 137.134 38.8414 137.044C38.9031 136.953 38.934 136.849 38.934 136.729C38.934 136.582 38.8912 136.46 38.8046 136.364C38.7181 136.269 38.6086 136.209 38.4758 136.185C38.3783 136.167 38.1822 136.157 37.8877 136.157H37.4932ZM36.6758 139.52V135.473H37.9872C38.4842 135.473 38.8081 135.493 38.9588 135.534C39.1912 135.594 39.3852 135.726 39.5414 135.93C39.6982 136.133 39.7763 136.396 39.7763 136.718C39.7763 136.966 39.731 137.175 39.6409 137.345C39.5509 137.514 39.436 137.647 39.2972 137.744C39.1584 137.84 39.0171 137.904 38.8733 137.935C38.6783 137.974 38.3957 137.993 38.026 137.993H37.4932V139.52H36.6758Z" fill="#DD3E3D"/>
<path fill-rule="evenodd" clip-rule="evenodd" d="M41.7046 135.473H42.522V137.195C42.7041 137.177 42.827 137.13 42.8916 137.054C42.9563 136.979 43.0553 136.769 43.1896 136.425C43.3593 135.987 43.5295 135.715 43.7006 135.608C43.8697 135.501 44.1429 135.448 44.5205 135.448C44.5389 135.448 44.5782 135.447 44.6389 135.445V136.05L44.5235 136.047C44.3558 136.047 44.2334 136.068 44.1558 136.109C44.0787 136.15 44.016 136.214 43.9683 136.298C43.9205 136.383 43.8498 136.557 43.7558 136.82C43.7061 136.96 43.6523 137.077 43.5941 137.17C43.5364 137.264 43.4339 137.352 43.2867 137.436C43.4688 137.487 43.619 137.591 43.7379 137.748C43.8563 137.904 43.9867 138.125 44.1285 138.41L44.6802 139.52H43.72L43.2369 138.473C43.2294 138.459 43.2135 138.43 43.1896 138.388C43.1807 138.373 43.1464 138.31 43.0877 138.198C42.9827 137.999 42.8966 137.874 42.8294 137.825C42.7623 137.775 42.6598 137.749 42.522 137.748V139.52H41.7046V135.473Z" fill="#DD3E3D"/>
<path fill-rule="evenodd" clip-rule="evenodd" d="M46.3853 139.52V135.473H49.3863V136.158H47.2027V137.055H49.2345V137.737H47.2027V138.838H49.4634V139.52H46.3853Z" fill="#DD3E3D"/>
<path fill-rule="evenodd" clip-rule="evenodd" d="M52.3109 139.52V136.158H51.11V135.473H54.3264V136.158H53.1284V139.52H52.3109Z" fill="#DD3E3D"/>
<path fill-rule="evenodd" clip-rule="evenodd" d="M59.9677 139.519H60.7851V135.473H59.9677V139.519ZM56.9368 138.841H57.7343C57.9886 138.841 58.1657 138.828 58.2662 138.803C58.3662 138.779 58.4557 138.722 58.5338 138.634C58.6119 138.545 58.6512 138.437 58.6512 138.311C58.6512 138.13 58.5871 137.995 58.4592 137.905C58.3313 137.815 58.1005 137.77 57.7677 137.77H56.9368V138.841ZM56.1194 135.473H56.9368V137.091H58.0298C58.3169 137.091 58.5642 137.13 58.7711 137.208C58.9781 137.286 59.1507 137.426 59.2886 137.627C59.4269 137.829 59.4955 138.06 59.4955 138.322C59.4955 138.596 59.4239 138.832 59.2806 139.03C59.1368 139.227 58.9771 139.359 58.8015 139.423C58.6259 139.488 58.3687 139.52 58.0298 139.52H56.1194V135.473Z" fill="#DD3E3D"/>
<path fill-rule="evenodd" clip-rule="evenodd" d="M76.724 138.032L77.5161 138.283C77.3947 138.725 77.1927 139.053 76.9106 139.267C76.628 139.482 76.2693 139.589 75.835 139.589C75.2977 139.589 74.8559 139.405 74.5101 139.038C74.1638 138.671 73.9907 138.169 73.9907 137.532C73.9907 136.859 74.1648 136.335 74.5126 135.963C74.8603 135.59 75.3176 135.404 75.8847 135.404C76.3798 135.404 76.7817 135.55 77.0912 135.843C77.2748 136.016 77.4131 136.264 77.5051 136.588L76.6962 136.781C76.6484 136.571 76.5484 136.406 76.3967 136.285C76.2449 136.163 76.0603 136.102 75.8429 136.102C75.5434 136.102 75.3001 136.21 75.1131 136.425C74.9265 136.641 74.833 136.989 74.833 137.472C74.833 137.983 74.925 138.347 75.1091 138.565C75.2932 138.782 75.532 138.891 75.8265 138.891C76.0439 138.891 76.2305 138.821 76.3872 138.684C76.5434 138.545 76.6559 138.328 76.724 138.032Z" fill="#DD3E3D"/>
<path fill-rule="evenodd" clip-rule="evenodd" d="M79.0498 135.473H79.9632L80.9075 137.573L81.7135 135.473H82.5667L81.2 138.548C81.0513 138.881 80.8996 139.135 80.7448 139.309C80.5901 139.483 80.3906 139.569 80.1458 139.569C79.9045 139.569 79.716 139.554 79.5796 139.523V138.915C79.6956 138.923 79.8005 138.926 79.8946 138.926C80.0841 138.926 80.22 138.892 80.302 138.823C80.3836 138.754 80.4622 138.605 80.5379 138.377L79.0498 135.473Z" fill="#DD3E3D"/>
<path fill-rule="evenodd" clip-rule="evenodd" d="M84.2329 135.473H87.4518V139.52H86.6344V136.152H85.0498V139.52H84.2329V135.473Z" fill="#DD3E3D"/>
<path fill-rule="evenodd" clip-rule="evenodd" d="M89.5291 139.52V135.473H92.5301V136.158H90.3466V137.055H92.3784V137.737H90.3466V138.838H92.6073V139.52H89.5291Z" fill="#DD3E3D"/>
<path fill-rule="evenodd" clip-rule="evenodd" d="M95.3611 136.157V137.306H95.8083C96.1302 137.306 96.3457 137.285 96.4541 137.243C96.5631 137.2 96.6476 137.134 96.7093 137.044C96.771 136.953 96.8019 136.849 96.8019 136.729C96.8019 136.582 96.7591 136.46 96.6725 136.364C96.586 136.269 96.4765 136.209 96.3437 136.185C96.2462 136.167 96.0501 136.157 95.7556 136.157H95.3611ZM94.5437 139.52V135.473H95.8551C96.3521 135.473 96.676 135.493 96.8267 135.534C97.0591 135.594 97.2531 135.726 97.4093 135.93C97.5661 136.133 97.6442 136.396 97.6442 136.718C97.6442 136.966 97.5989 137.175 97.5088 137.345C97.4188 137.514 97.3039 137.647 97.1651 137.744C97.0263 137.84 96.885 137.904 96.7412 137.935C96.5462 137.974 96.2636 137.993 95.8939 137.993H95.3611V139.52H94.5437Z" fill="#DD3E3D"/>
<path fill-rule="evenodd" clip-rule="evenodd" d="M99.4731 139.52V135.473H100.696L101.43 138.233L102.156 135.473H103.382V139.52H102.623V136.334L101.819 139.52H101.032L100.232 136.334V139.52H99.4731Z" fill="#DD3E3D"/>
<path fill-rule="evenodd" clip-rule="evenodd" d="M107.582 137.919L107.024 136.417L106.478 137.919H107.582ZM109.087 139.52H108.198L107.844 138.601H106.226L105.893 139.52H105.026L106.602 135.473H107.467L109.087 139.52Z" fill="#DD3E3D"/>
<path fill-rule="evenodd" clip-rule="evenodd" d="M111.581 136.157V137.306H112.029C112.351 137.306 112.566 137.285 112.674 137.243C112.783 137.2 112.868 137.134 112.93 137.044C112.992 136.953 113.022 136.849 113.022 136.729C113.022 136.582 112.979 136.46 112.893 136.364C112.806 136.269 112.697 136.209 112.564 136.185C112.466 136.167 112.271 136.157 111.976 136.157H111.581ZM110.764 139.52V135.473H112.076C112.572 135.473 112.897 135.493 113.047 135.534C113.279 135.594 113.473 135.726 113.629 135.93C113.786 136.133 113.864 136.396 113.864 136.718C113.864 136.966 113.82 137.175 113.729 137.345C113.639 137.514 113.525 137.647 113.386 137.744C113.247 137.84 113.105 137.904 112.961 137.935C112.767 137.974 112.484 137.993 112.114 137.993H111.581V139.52H110.764Z" fill="#DD3E3D"/>
<path fill-rule="evenodd" clip-rule="evenodd" d="M115.793 135.473H116.61V137.195C116.792 137.177 116.916 137.13 116.98 137.054C117.044 136.979 117.143 136.769 117.278 136.425C117.447 135.987 117.618 135.715 117.789 135.608C117.958 135.501 118.231 135.448 118.609 135.448C118.626 135.448 118.666 135.447 118.727 135.445V136.05L118.611 136.047C118.444 136.047 118.321 136.068 118.244 136.109C118.166 136.15 118.104 136.214 118.056 136.298C118.009 136.383 117.938 136.557 117.844 136.82C117.794 136.96 117.74 137.077 117.682 137.17C117.624 137.264 117.522 137.352 117.375 137.436C117.557 137.487 117.707 137.591 117.826 137.748C117.944 137.904 118.075 138.125 118.217 138.41L118.768 139.52H117.808L117.324 138.473C117.317 138.459 117.302 138.43 117.278 138.388C117.269 138.373 117.234 138.31 117.176 138.198C117.071 137.999 116.985 137.874 116.918 137.825C116.85 137.775 116.748 137.749 116.61 137.748V139.52H115.793V135.473Z" fill="#DD3E3D"/>
<path fill-rule="evenodd" clip-rule="evenodd" d="M120.474 139.52V135.473H123.474V136.158H121.291V137.055H123.323V137.737H121.291V138.838H123.552V139.52H120.474Z" fill="#DD3E3D"/>
<path fill-rule="evenodd" clip-rule="evenodd" d="M126.399 139.52V136.158H125.198V135.473H128.414V136.158H127.216V139.52H126.399Z" fill="#DD3E3D"/>
<path fill-rule="evenodd" clip-rule="evenodd" d="M134.056 139.519H134.873V135.473H134.056V139.519ZM131.024 138.841H131.822C132.077 138.841 132.253 138.828 132.354 138.803C132.454 138.779 132.543 138.722 132.621 138.634C132.7 138.545 132.739 138.437 132.739 138.311C132.739 138.13 132.675 137.995 132.547 137.905C132.419 137.815 132.189 137.77 131.855 137.77H131.024V138.841ZM130.207 135.473H131.024V137.091H132.118C132.405 137.091 132.652 137.13 132.859 137.208C133.066 137.286 133.239 137.426 133.377 137.627C133.514 137.829 133.584 138.06 133.584 138.322C133.584 138.596 133.511 138.832 133.368 139.03C133.224 139.227 133.065 139.359 132.889 139.423C132.713 139.488 132.456 139.52 132.118 139.52H130.207V135.473Z" fill="#DD3E3D"/>
<path fill-rule="evenodd" clip-rule="evenodd" d="M147.811 135.473H148.725L149.669 137.573L150.475 135.473H151.328L149.962 138.548C149.812 138.881 149.661 139.135 149.506 139.309C149.352 139.483 149.152 139.569 148.907 139.569C148.666 139.569 148.477 139.554 148.341 139.523V138.915C148.458 138.923 148.562 138.926 148.656 138.926C148.846 138.926 148.981 138.892 149.064 138.823C149.145 138.754 149.224 138.605 149.299 138.377L147.811 135.473Z" fill="#DD3E3D"/>
<path fill-rule="evenodd" clip-rule="evenodd" d="M152.986 139.52V135.473H153.803V137.066H155.404V135.473H156.222V139.52H155.404V137.75H153.803V139.52H152.986Z" fill="#DD3E3D"/>
<path fill-rule="evenodd" clip-rule="evenodd" d="M158.321 135.473H159.085V138.167L160.725 135.473H161.54V139.52H160.775V136.878L159.138 139.52H158.321V135.473Z" fill="#DD3E3D"/>
<path fill-rule="evenodd" clip-rule="evenodd" d="M164.437 137.756V138.838H165.194C165.488 138.838 165.675 138.83 165.754 138.813C165.875 138.791 165.974 138.737 166.051 138.651C166.127 138.566 166.165 138.451 166.165 138.308C166.165 138.186 166.136 138.083 166.077 137.999C166.018 137.914 165.933 137.852 165.822 137.814C165.71 137.775 165.468 137.756 165.097 137.756H164.437ZM164.437 136.146V137.082H164.972C165.291 137.082 165.489 137.078 165.566 137.068C165.706 137.052 165.816 137.004 165.896 136.924C165.976 136.843 166.016 136.738 166.016 136.607C166.016 136.482 165.981 136.381 165.913 136.302C165.844 136.224 165.741 136.177 165.605 136.16C165.524 136.151 165.291 136.146 164.906 136.146H164.437ZM163.62 135.473H165.238C165.558 135.473 165.796 135.486 165.954 135.513C166.111 135.539 166.252 135.595 166.376 135.68C166.5 135.764 166.604 135.877 166.687 136.018C166.769 136.159 166.811 136.317 166.811 136.491C166.811 136.681 166.76 136.855 166.658 137.013C166.556 137.171 166.417 137.29 166.243 137.369C166.489 137.441 166.679 137.563 166.811 137.737C166.944 137.91 167.01 138.113 167.01 138.346C167.01 138.531 166.967 138.71 166.881 138.884C166.796 139.057 166.679 139.197 166.531 139.3C166.383 139.404 166.2 139.468 165.983 139.492C165.847 139.507 165.518 139.516 164.998 139.52H163.62V135.473Z" fill="#DD3E3D"/>
<path fill-rule="evenodd" clip-rule="evenodd" d="M168.944 139.52V135.473H171.945V136.158H169.761V137.055H171.793V137.737H169.761V138.838H172.022V139.52H168.944Z" fill="#DD3E3D"/>
<path fill-rule="evenodd" clip-rule="evenodd" d="M174.776 136.157V137.306H175.223C175.545 137.306 175.76 137.285 175.869 137.243C175.978 137.2 176.063 137.134 176.124 137.044C176.186 136.953 176.216 136.849 176.216 136.729C176.216 136.582 176.174 136.46 176.087 136.364C176 136.269 175.891 136.209 175.759 136.185C175.661 136.167 175.465 136.157 175.171 136.157H174.776ZM173.959 139.52V135.473H175.27C175.767 135.473 176.091 135.493 176.242 135.534C176.474 135.594 176.668 135.726 176.824 135.93C176.981 136.133 177.059 136.396 177.059 136.718C177.059 136.966 177.014 137.175 176.923 137.345C176.833 137.514 176.719 137.647 176.58 137.744C176.441 137.84 176.299 137.904 176.156 137.935C175.961 137.974 175.678 137.993 175.308 137.993H174.776V139.52H173.959Z" fill="#DD3E3D"/>
<path fill-rule="evenodd" clip-rule="evenodd" d="M181.422 138.032L182.215 138.283C182.093 138.725 181.891 139.053 181.609 139.267C181.326 139.482 180.968 139.589 180.533 139.589C179.996 139.589 179.554 139.405 179.208 139.038C178.862 138.671 178.689 138.169 178.689 137.532C178.689 136.859 178.863 136.335 179.211 135.963C179.559 135.59 180.016 135.404 180.583 135.404C181.078 135.404 181.48 135.55 181.789 135.843C181.973 136.016 182.112 136.264 182.203 136.588L181.394 136.781C181.347 136.571 181.246 136.406 181.095 136.285C180.943 136.163 180.759 136.102 180.541 136.102C180.241 136.102 179.998 136.21 179.812 136.425C179.624 136.641 179.531 136.989 179.531 137.472C179.531 137.983 179.623 138.347 179.807 138.565C179.991 138.782 180.23 138.891 180.525 138.891C180.742 138.891 180.929 138.821 181.085 138.684C181.242 138.545 181.354 138.328 181.422 138.032Z" fill="#DD3E3D"/>
<path fill-rule="evenodd" clip-rule="evenodd" d="M186.163 137.919L185.606 136.417L185.059 137.919H186.163ZM187.668 139.52H186.779L186.426 138.601H184.808L184.474 139.52H183.607L185.183 135.473H186.048L187.668 139.52Z" fill="#DD3E3D"/>
<path fill-rule="evenodd" clip-rule="evenodd" d="M189.334 139.52V135.473H190.557L191.291 138.233L192.018 135.473H193.243V139.52H192.484V136.334L191.681 139.52H190.894L190.093 136.334V139.52H189.334Z" fill="#DD3E3D"/>
<path fill-rule="evenodd" clip-rule="evenodd" d="M199.169 139.519H199.987V135.473H199.169V139.519ZM196.138 138.841H196.936C197.19 138.841 197.367 138.828 197.467 138.803C197.567 138.779 197.657 138.722 197.735 138.634C197.813 138.545 197.852 138.437 197.852 138.311C197.852 138.13 197.789 137.995 197.66 137.905C197.532 137.815 197.302 137.77 196.969 137.77H196.138V138.841ZM195.321 135.473H196.138V137.091H197.231C197.518 137.091 197.765 137.13 197.973 137.208C198.18 137.286 198.352 137.426 198.49 137.627C198.628 137.829 198.697 138.06 198.697 138.322C198.697 138.596 198.625 138.832 198.482 139.03C198.338 139.227 198.179 139.359 198.003 139.423C197.827 139.488 197.57 139.52 197.231 139.52H195.321V135.473Z" fill="#DD3E3D"/>
<path fill-rule="evenodd" clip-rule="evenodd" d="M68.4948 137.291C68.4948 137.693 68.1694 138.018 67.7674 138.018C67.3659 138.018 67.0405 137.693 67.0405 137.291C67.0405 136.89 67.3659 136.564 67.7674 136.564C68.1694 136.564 68.4948 136.89 68.4948 137.291Z" fill="#DD3E3D"/>
<path fill-rule="evenodd" clip-rule="evenodd" d="M142.254 137.291C142.254 137.693 141.928 138.018 141.526 138.018C141.125 138.018 140.799 137.693 140.799 137.291C140.799 136.89 141.125 136.564 141.526 136.564C141.928 136.564 142.254 136.89 142.254 137.291Z" fill="#DD3E3D"/>
</g>
<defs>
<clipPath id="clip0_6463_369">
<rect width="200" height="79.602" fill="white" transform="translate(0 60)"/>
</clipPath>
</defs>
</svg>
