<svg width="200" height="200" viewBox="0 0 200 200" fill="none" xmlns="http://www.w3.org/2000/svg">
<g clip-path="url(#clip0_6598_1053)">
<path fill-rule="evenodd" clip-rule="evenodd" d="M112.804 89.1644C106.746 95.8685 96.4154 96.3854 89.7275 90.3114C83.0395 84.2373 82.5226 73.8742 88.5724 67.162C94.6303 60.458 104.961 59.9491 111.649 66.0232C118.337 72.0972 118.854 82.4603 112.804 89.1644Z" fill="url(#paint0_radial_6598_1053)"/>
<path fill-rule="evenodd" clip-rule="evenodd" d="M104.945 22.1073C106.318 23.4562 107.578 24.8374 108.733 26.2105C115.308 34.0939 118.385 41.8319 118.385 41.8319C122.586 42.6073 126.503 42.8254 130.154 42.6477C130.388 42.6315 130.614 42.6315 130.857 42.6154C131.075 42.5992 131.277 42.575 131.495 42.5508C139.58 41.8238 150.097 38.7222 159.7 29.0941C160.032 28.7629 160.355 28.4156 160.686 28.0683C159.2 26.2913 157.665 24.5466 156.001 22.8747C128.078 -4.95137 84.5257 -7.38261 53.8727 15.5405C77.9267 3.88511 94.59 11.9219 104.945 22.1073Z" fill="url(#paint1_linear_6598_1053)"/>
<path fill-rule="evenodd" clip-rule="evenodd" d="M49.5272 101.595C50.0037 99.7294 50.5691 97.9524 51.183 96.2643C54.7208 86.6282 59.8822 80.1018 59.8822 80.1018C58.4606 76.0793 56.6836 72.5738 54.7047 69.5045C54.5754 69.3025 54.4623 69.1168 54.325 68.9148C54.2039 68.7371 54.0746 68.5756 53.9535 68.3898C49.2768 61.7503 41.3369 54.1981 28.1952 50.6926C27.7429 50.5715 27.2744 50.4665 26.814 50.3534C26.0225 52.5262 25.2713 54.7312 24.6574 57.009C14.5205 95.085 34.1966 134.017 69.3729 149.105C47.2494 134.106 45.8843 115.65 49.5191 101.595H49.5272Z" fill="url(#paint2_linear_6598_1053)"/>
<path fill-rule="evenodd" clip-rule="evenodd" d="M146.26 109.923C144.41 110.44 142.585 110.844 140.816 111.151C130.703 112.903 122.464 111.7 122.464 111.7C119.694 114.939 117.545 118.234 115.873 121.481C115.768 121.691 115.655 121.885 115.55 122.103C115.453 122.297 115.381 122.491 115.284 122.685C111.875 130.051 109.299 140.705 112.836 153.839C112.958 154.291 113.095 154.751 113.232 155.212C115.51 154.816 117.796 154.356 120.074 153.758C158.117 143.5 181.994 106.991 177.47 68.9795C175.54 95.6424 160.242 106.054 146.252 109.923H146.26Z" fill="url(#paint3_linear_6598_1053)"/>
<path fill-rule="evenodd" clip-rule="evenodd" d="M53.8727 15.5406C53.8727 15.5406 36.8863 26.1783 28.0175 47.5264C30.3438 47.9302 54.0262 52.712 62.8546 79.0275C65.0112 77.6463 71.6345 72.4204 76.0851 57.9945C81.4645 40.5638 91.6822 27.7049 104.937 22.1074C104.937 22.1074 88.1524 -1.80926 53.8646 15.5406H53.8727Z" fill="url(#paint4_linear_6598_1053)"/>
<path fill-rule="evenodd" clip-rule="evenodd" d="M107.675 141.052C107.675 132.216 110.122 120.52 119.936 109.503L120.049 109.333C118.442 107.621 112.836 103.405 98.4186 106.692C80.6325 110.747 61.0049 110.278 49.5352 101.595C49.5352 101.595 37.2094 128.088 69.389 149.105C69.389 149.105 87.062 158.483 109.961 155.511C109.549 154.372 107.683 148.807 107.683 141.044L107.675 141.052Z" fill="url(#paint5_linear_6598_1053)"/>
<path fill-rule="evenodd" clip-rule="evenodd" d="M162.721 30.6046C160.193 33.674 148.166 46.2744 128.102 46.2906C124.871 46.2906 121.447 45.9594 117.82 45.2163L117.65 45.1759C116.988 47.6072 116.439 54.4809 126.236 65.0378C138.643 78.4137 148.045 95.6424 146.268 109.915C146.268 109.915 175.378 107.338 177.486 68.9714C177.486 68.9714 176.768 48.9561 162.729 30.5966L162.721 30.6046Z" fill="url(#paint6_linear_6598_1053)"/>
<path fill-rule="evenodd" clip-rule="evenodd" d="M36.5875 188.942C36.9752 189.031 37.4517 189.064 38.1141 189.064C40.5372 189.064 42.0315 187.836 42.0315 185.776C42.0315 183.926 40.7472 182.82 38.4775 182.82C37.5486 182.82 36.9267 182.909 36.5955 182.998V188.942H36.5875ZM32.0804 179.791C33.4858 179.549 35.4567 179.371 38.2352 179.371C41.0138 179.371 43.0492 179.912 44.3901 180.986C45.6743 182.004 46.5386 183.676 46.5386 185.647C46.5386 187.618 45.8843 189.298 44.6808 190.429C43.13 191.891 40.828 192.553 38.1383 192.553C37.5406 192.553 36.9994 192.521 36.5875 192.464V199.669H32.0723V179.791H32.0804Z" fill="#5B5B5B"/>
<path fill-rule="evenodd" clip-rule="evenodd" d="M54.43 189.653C54.43 193.595 56.2797 196.381 59.3329 196.381C62.3861 196.381 64.1712 193.449 64.1712 189.54C64.1712 185.921 62.4346 182.812 59.3006 182.812C56.1666 182.812 54.43 185.744 54.43 189.653ZM68.9852 189.387C68.9852 195.994 64.9789 200 59.0906 200C53.2023 200 49.616 195.485 49.616 189.75C49.616 183.716 53.4688 179.201 59.4218 179.201C65.3747 179.201 68.9852 183.829 68.9852 189.395V189.387Z" fill="#5B5B5B"/>
<path fill-rule="evenodd" clip-rule="evenodd" d="M87.9666 199.103C87.1266 199.523 85.2446 200 82.7972 200C75.8347 200 72.2484 195.638 72.2484 189.895C72.2484 183.022 77.1512 179.193 83.2495 179.193C85.6081 179.193 87.4012 179.67 88.209 180.09L87.2801 183.708C86.3512 183.321 85.0669 182.965 83.4515 182.965C79.8329 182.965 77.022 185.146 77.022 189.629C77.022 193.659 79.4129 196.204 83.4757 196.204C84.8488 196.204 86.3754 195.905 87.272 195.541L87.9586 199.095L87.9666 199.103Z" fill="#5B5B5B"/>
<path fill-rule="evenodd" clip-rule="evenodd" d="M102.312 191.301L100.341 185.501C99.8886 184.185 99.5898 182.989 99.2909 181.826H99.2344C98.9355 183.022 98.6043 184.249 98.2166 185.469L96.2458 191.301H102.312ZM95.7046 193.328L93.6126 199.661H90.9229L97.7643 179.516H100.906L107.78 199.661H105.002L102.853 193.328H95.7127H95.7046Z" fill="#5B5B5B"/>
<path fill-rule="evenodd" clip-rule="evenodd" d="M114.444 181.737H108.313V179.524H123.232V181.737H117.069V199.669H114.444V181.737Z" fill="#5B5B5B"/>
<path fill-rule="evenodd" clip-rule="evenodd" d="M127.206 189.718C127.206 194.023 129.54 197.876 133.635 197.876C137.73 197.876 140.089 194.079 140.089 189.508C140.089 185.501 137.997 181.317 133.659 181.317C129.322 181.317 127.206 185.291 127.206 189.718ZM142.835 189.387C142.835 196.317 138.619 200 133.482 200C128.345 200 124.427 195.873 124.427 189.774C124.427 183.377 128.401 179.193 133.781 179.193C139.16 179.193 142.835 183.409 142.835 189.387Z" fill="#5B5B5B"/>
<path fill-rule="evenodd" clip-rule="evenodd" d="M164.296 190.824C164.143 188.013 163.965 184.637 163.997 182.125H163.909C163.222 184.484 162.382 187.028 161.364 189.774L157.81 199.548H155.839L152.584 189.952C151.631 187.109 150.824 184.508 150.25 182.117H150.185C150.129 184.629 149.975 188.005 149.798 191.026L149.257 199.661H146.777L148.182 179.516H151.502L154.943 189.257C155.775 191.737 156.47 193.95 156.978 196.042H157.067C157.576 194.015 158.295 191.802 159.192 189.257L162.778 179.516H166.098L167.35 199.661H164.813L164.304 190.816L164.296 190.824Z" fill="#5B5B5B"/>
</g>
<defs>
<radialGradient id="paint0_radial_6598_1053" cx="0" cy="0" r="1" gradientUnits="userSpaceOnUse" gradientTransform="translate(95.5996 69.0521) scale(33.3024 33.3024)">
<stop stop-color="#4A96D2"/>
<stop offset="1" stop-color="#1F2466"/>
</radialGradient>
<linearGradient id="paint1_linear_6598_1053" x1="73.888" y1="3.48933" x2="141.761" y2="30.8226" gradientUnits="userSpaceOnUse">
<stop stop-color="#4A96D2"/>
<stop offset="1" stop-color="#1F2466"/>
</linearGradient>
<linearGradient id="paint2_linear_6598_1053" x1="50.2218" y1="146.892" x2="36.8944" y2="52.8089" gradientUnits="userSpaceOnUse">
<stop stop-color="#4A96D2"/>
<stop offset="1" stop-color="#1F2466"/>
</linearGradient>
<linearGradient id="paint3_linear_6598_1053" x1="176.808" y1="93.195" x2="120.768" y2="137.087" gradientUnits="userSpaceOnUse">
<stop stop-color="#4A96D2"/>
<stop offset="1" stop-color="#1F2466"/>
</linearGradient>
<linearGradient id="paint4_linear_6598_1053" x1="52.1523" y1="55.7086" x2="80.3498" y2="12.4389" gradientUnits="userSpaceOnUse">
<stop stop-color="#4A96D2"/>
<stop offset="1" stop-color="#1F2466"/>
</linearGradient>
<linearGradient id="paint5_linear_6598_1053" x1="114.282" y1="125.043" x2="46.6194" y2="131.941" gradientUnits="userSpaceOnUse">
<stop stop-color="#4A96D2"/>
<stop offset="1" stop-color="#1F2466"/>
</linearGradient>
<linearGradient id="paint6_linear_6598_1053" x1="143.699" y1="39.0857" x2="156.381" y2="103.122" gradientUnits="userSpaceOnUse">
<stop stop-color="#4A96D2"/>
<stop offset="1" stop-color="#1F2466"/>
</linearGradient>
<clipPath id="clip0_6598_1053">
<rect width="156.028" height="200" fill="white" transform="translate(22)"/>
</clipPath>
</defs>
</svg>
