<svg width="200" height="200" viewBox="0 0 200 200" fill="none" xmlns="http://www.w3.org/2000/svg">
<g clip-path="url(#clip0_6463_301)">
<path d="M64.392 99.568L59.604 113.156H70.504L75.292 99.568L70.512 86H59.612L64.392 99.568Z" fill="#F00A25"/>
<path d="M11.624 99.568L16.724 86H5.1L0 99.568L5.104 113.156H16.728L11.624 99.568Z" fill="#F00A25"/>
<path d="M31.412 93.592C30.828 96.812 29.804 102.416 29.444 104.4C29.108 106.236 28.64 107.704 27.188 108.98H32.52C32.52 108.98 30.832 107.736 31.496 104.1C32.176 100.36 33.192 94.684 33.552 92.8C34.04 90.248 35.552 89.136 35.552 89.136H30.292C30.292 89.136 32.004 90.36 31.416 93.596" fill="#141414"/>
<path d="M52.284 91.52C52.284 90.736 51.464 89.136 48.404 89.136C50.804 92.42 48.104 95.404 48.104 95.404C50.48 94.42 52.288 92.884 52.288 91.524L52.284 91.52Z" fill="#141414"/>
<path d="M41.832 100.64C41.832 100.64 44.64 104.544 46.28 106.832C48.452 109.856 51.236 110.02 51.236 110.02L43.476 99.576L41.824 100.64H41.832Z" fill="#141414"/>
<path d="M54.62 113.704L55.424 109.16C54.504 109.16 53.572 108.76 52.992 107.964L46.832 99.792C51.864 97.84 54.784 95.608 55.32 92.576C55.924 89.164 53.816 87.016 50.804 86.336C49.74 86.096 48.52 85.996 47.392 85.996H23.776L22.936 90.744H23.816C25.62 90.744 26.96 92.216 26.672 93.856L24.512 106.056C24.22 107.692 22.36 109.164 20.556 109.164H19.676L18.836 113.908H37.584L38.424 109.164H37.376C35.576 109.164 34.192 107.692 34.48 106.056L34.996 103.144L36.924 102.668L41.748 109.128C43.98 112.12 47.524 114.2 51.448 114.2C53.452 114.2 54.636 113.716 54.636 113.716M35.416 100.716L36.54 94.136C37 91.544 39.564 90.188 41.728 90.188C43.568 90.188 45.116 91.184 44.752 93.26C44.172 96.528 38.028 99.56 35.42 100.716M43.968 107.476L38.92 100.716C40.108 100.12 41.432 99.388 42.668 98.552C45.444 96.672 46.956 94.832 47.296 92.924C47.596 91.224 47.008 90.096 46.464 89.448C45.6 88.42 44.224 87.856 42.592 87.856C41.108 87.856 39.616 88.32 38.392 89.16C36.96 90.136 36.012 91.58 35.724 93.212V93.22L33.576 105.86C33.168 108.604 34.884 110.192 37.524 110.192L37.276 111.584H21.72L21.964 110.216C24.388 109.948 26.64 108.004 27.044 105.732L29.204 93.532C29.424 92.292 29.08 91.032 28.26 90.056C27.628 89.304 26.76 88.784 25.796 88.556L26.056 87.088H48.248C50.736 87.088 52.9 87.824 53.9 89.008C54.492 89.712 54.684 90.58 54.492 91.668C54.096 93.9 51.74 95.78 47.068 97.596L44.968 98.412L52.476 108.368C52.948 109.012 53.776 109.444 54.364 109.6L54.016 111.552C54.016 111.552 53.428 111.884 51.912 111.884C48.112 111.884 45.972 109.836 43.964 107.5" fill="#141414"/>
<path d="M111.12 92.28C106.552 92.28 103.436 94.892 103.436 99.572C103.436 104.252 106.344 106.888 111.12 106.888C115.896 106.888 118.856 104.26 118.856 99.572C118.856 94.884 115.928 92.28 111.12 92.28ZM111.12 104.464C109.692 104.464 109.016 102.848 109.016 99.584C109.016 96.32 109.688 94.64 111.12 94.64C112.552 94.64 113.256 96.296 113.256 99.584C113.256 102.872 112.564 104.464 111.12 104.464Z" fill="#141414"/>
<path d="M179.772 98.68H183.172L184.26 92.58H179.756L179.772 98.68Z" fill="#141414"/>
<path d="M171.148 104.464C169.516 104.464 168.684 102.272 168.684 99.584C168.684 96.896 169.752 94.704 171.368 94.704C172.692 94.704 173.172 96.312 173.296 97.132H177.508V93.812C175.892 92.76 173.808 92.28 170.708 92.28C165.204 92.28 163.088 95.544 163.088 99.596C163.088 103.648 165.212 106.868 170.708 106.868C175.524 106.868 177.384 104.296 177.856 101.528H173.392C173.176 102.964 172.628 104.476 171.136 104.476" fill="#141414"/>
<path d="M130.884 97.924L127.656 97.188C126.116 96.828 125.212 96.668 125.212 95.912C125.212 95.156 126.112 94.616 127.656 94.616C129.3 94.616 130.356 95.58 131.28 96.944H134.152V93.72C133.028 92.86 129.848 92.264 127.656 92.264C123.432 92.264 120.84 93.976 120.84 96.592C120.84 99.208 122.36 100.6 125.704 101.292L127.656 101.672C129.66 102.076 130.604 102.412 130.604 103.168C130.604 103.924 129.648 104.38 127.656 104.38C125.86 104.38 124.664 103.548 123.844 102.052H120.936V105.116C122.212 105.936 124.22 106.808 127.66 106.808C132.224 106.808 135.3 105.136 135.3 102.244C135.3 100.012 133.872 98.596 130.888 97.916" fill="#141414"/>
<path d="M136.788 97.32H139.224C139.348 96.112 140.312 94.86 141.576 94.948L141.612 102.604C141.612 103.424 140.84 104.156 139.996 104.156H139.94V106.528H148.22V104.156H148.164C147.32 104.156 146.548 103.42 146.548 102.604L146.512 94.948C147.656 95.012 148.656 95.98 148.692 97.104V97.32H151.136V92.584H136.792V97.32H136.788Z" fill="#141414"/>
<path d="M153.316 94.948H153.8C154.472 94.948 154.98 95.468 154.98 96.16V102.6C154.98 103.42 154.208 104.152 153.364 104.152H153.308V106.524H161.588V104.152H161.532C160.688 104.152 159.916 103.416 159.916 102.6V96.16C159.916 95.46 160.388 94.948 161.06 94.948H161.588V92.576H153.308V94.948H153.316Z" fill="#141414"/>
<path d="M101.18 103.56L97.612 99.476C99.812 98.5 100.992 97.384 100.992 95.872C100.992 93.556 98.736 92.584 96.732 92.584H85.748V94.956C86.596 94.956 87.344 95.692 87.344 96.508V102.608C87.344 103.428 86.596 104.16 85.748 104.16V106.532H94.032V104.16H93.956C93.108 104.16 92.34 103.424 92.34 102.608V101.152L93.2 100.908L95.996 104.14C97.292 105.636 99.188 106.644 101.028 106.644C101.332 106.644 101.72 106.624 102.236 106.548V104.164C101.66 104.164 101.28 103.684 101.18 103.568M92.34 99.94L92.32 96.652C92.32 95.356 93.408 94.676 94.424 94.676C95.284 94.676 96.096 95.176 96.096 96.208C96.096 97.844 93.468 99.356 92.34 99.94Z" fill="#141414"/>
<path d="M195.58 97.924L192.352 97.188C190.812 96.828 189.908 96.668 189.908 95.912C189.908 95.156 190.808 94.616 192.352 94.616C193.996 94.616 195.052 95.58 195.976 96.944H198.848V93.72C197.724 92.86 194.544 92.264 192.352 92.264C188.128 92.264 185.536 93.976 185.536 96.592C185.536 99.208 187.056 100.6 190.4 101.292L192.352 101.672C194.356 102.076 195.3 102.412 195.3 103.168C195.3 103.924 194.344 104.38 192.352 104.38C190.556 104.38 189.36 103.548 188.544 102.052H185.636V105.116C186.912 105.936 188.92 106.808 192.36 106.808C196.924 106.808 200 105.136 200 102.244C200 100.012 198.568 98.596 195.588 97.916" fill="#141414"/>
</g>
<defs>
<clipPath id="clip0_6463_301">
<rect width="200" height="28.2" fill="white" transform="translate(0 86)"/>
</clipPath>
</defs>
</svg>
