<svg width="200" height="200" viewBox="0 0 200 200" fill="none" xmlns="http://www.w3.org/2000/svg">
<g clip-path="url(#clip0_6463_232)">
<path fill-rule="evenodd" clip-rule="evenodd" d="M83.6085 105.77C83.0232 106.565 82.428 107.346 81.8461 108.128V108.57H83.4921C84.2968 107.496 84.7191 106.937 84.7191 106.295H86.3285V108.57H87.868V106.295H89.4774C89.4774 106.937 89.8997 107.496 90.7044 108.57H92.3504V108.128L90.5781 105.77C91.5734 105.023 92.0711 104.16 92.0711 103.18V102.691H90.3885V103.18C90.3885 104.37 89.8044 104.965 88.6362 104.965H87.868V102.691H86.3285V104.965H85.5604C84.3921 104.965 83.808 104.37 83.808 103.18V102.691H82.1288V103.18C82.1288 104.16 82.6231 105.023 83.6118 105.77H83.6085Z" fill="#2B2A29"/>
<path fill-rule="evenodd" clip-rule="evenodd" d="M95.2666 106.152H96.6998C98.2061 106.142 98.6483 106.166 99.1538 106.049L99.749 105.91V105.338C99.749 104.367 99.749 102.548 96.9824 102.548H96.4238C93.6572 102.548 93.6572 104.37 93.6572 105.348V105.91C93.6572 106.96 93.6805 108.713 96.7264 108.713C97.1819 108.713 98.2061 108.713 99.33 108.43V107.17H99.0174L97.8968 107.449H96.7064C95.751 107.449 95.2733 107.017 95.2733 106.152H95.2666ZM95.2666 105.105C95.2666 104.24 95.7443 103.808 96.6998 103.808C97.6552 103.808 98.134 104.24 98.1363 105.105H95.2633H95.2666Z" fill="#2B2A29"/>
<path fill-rule="evenodd" clip-rule="evenodd" d="M102.353 102.688C102.353 103.572 102.283 106.249 100.883 108.114V108.57H102.599C103.613 107.216 103.613 105.454 103.613 103.981H106.027V108.57H107.566V102.688H102.349H102.353Z" fill="#2B2A29"/>
<path fill-rule="evenodd" clip-rule="evenodd" d="M111.118 106.152H112.554C114.061 106.142 114.503 106.166 115.005 106.049L115.6 105.91V105.338C115.6 104.367 115.6 102.548 112.834 102.548H112.272C109.505 102.548 109.505 104.37 109.505 105.348V105.91C109.505 106.96 109.528 108.713 112.574 108.713C113.03 108.713 114.054 108.713 115.178 108.43V107.17H114.862L113.741 107.449H112.551C111.593 107.449 111.114 107.017 111.114 106.152H111.118ZM111.118 105.105C111.118 104.24 111.597 103.808 112.554 103.808C113.512 103.808 113.991 104.24 113.991 105.105H111.118Z" fill="#2B2A29"/>
<path fill-rule="evenodd" clip-rule="evenodd" d="M121.26 105.723V105.547C122.453 105.245 122.453 104.51 122.453 104.23C122.453 103.668 122.453 102.548 119.617 102.548C119.195 102.548 118.214 102.548 117.093 102.827V104.087H117.409L118.53 103.808H119.823C120.724 103.808 120.767 103.808 120.767 104.463C120.767 105.118 120.767 105.105 119.823 105.105H118.53V106.156H119.823C120.724 106.156 120.767 106.156 120.767 106.797C120.767 107.439 120.767 107.449 119.823 107.449H118.53L117.409 107.17H117.093V108.43C118.214 108.713 119.195 108.713 119.617 108.713C122.44 108.713 122.453 107.592 122.453 107.03C122.453 106.751 122.453 106.016 121.26 105.723Z" fill="#2B2A29"/>
<path fill-rule="evenodd" clip-rule="evenodd" d="M128.861 102.688V104.965H125.779V102.688H124.239V108.573H125.779V106.295H128.861V108.573H130.401V102.688H128.861Z" fill="#2B2A29"/>
<path fill-rule="evenodd" clip-rule="evenodd" d="M135.478 108.57C137.337 108.57 138.105 108.164 138.105 106.575C138.105 105.7 138.105 104.44 135.688 104.44C135.338 104.44 134.743 104.473 134.042 104.649V102.688H132.502V108.57H135.478ZM139.226 108.57H140.765V102.688H139.226V108.57ZM135.269 105.63C136.084 105.63 136.492 105.934 136.492 106.541C136.492 107.149 136.084 107.453 135.269 107.453H134.042V105.63H135.269Z" fill="#2B2A29"/>
<path fill-rule="evenodd" clip-rule="evenodd" d="M144.243 106.152H145.68C147.186 106.142 147.628 106.166 148.13 106.049L148.726 105.91V105.338C148.726 104.367 148.726 102.548 145.959 102.548H145.397C142.631 102.548 142.631 104.37 142.631 105.348V105.91C142.631 106.96 142.654 108.713 145.7 108.713C146.155 108.713 147.183 108.713 148.303 108.43V107.17H147.991L146.87 107.449H145.68C144.722 107.449 144.243 107.017 144.243 106.152ZM144.243 105.105C144.243 104.24 144.722 103.808 145.68 103.808C146.637 103.808 147.116 104.24 147.116 105.105H144.247H144.243Z" fill="#2B2A29"/>
<path fill-rule="evenodd" clip-rule="evenodd" d="M154.279 109.481V110.811C155.399 111.09 156.31 111.09 156.66 111.09C159.835 111.09 159.938 109.714 159.951 108.148V102.688H159.449L158.705 103.25C158.189 102.584 156.939 102.561 156.543 102.561C153.577 102.561 153.577 104.43 153.577 105.281V105.564C153.577 106.545 153.577 108.154 156.098 108.154C156.856 108.154 157.757 107.945 158.412 107.456V107.948C158.412 109.754 158.375 109.767 156.52 109.767H155.715L154.595 109.484H154.279V109.481ZM155.19 105.421C155.19 103.845 155.19 103.881 157.278 103.881C157.557 103.881 157.943 103.918 158.412 104.018V106.541L156.916 106.914C155.765 106.914 155.19 106.416 155.19 105.421Z" fill="#2B2A29"/>
<path fill-rule="evenodd" clip-rule="evenodd" d="M164.913 103.845C166.01 103.845 166.559 104.44 166.559 105.63C166.559 106.821 166.01 107.416 164.913 107.416C163.815 107.416 163.267 106.821 163.267 105.63C163.267 104.44 163.815 103.845 164.913 103.845ZM164.633 102.548C161.657 102.548 161.657 104.3 161.657 105.351V105.913C161.657 106.964 161.657 108.713 164.633 108.713H165.195C168.171 108.713 168.171 106.96 168.171 105.913V105.351C168.171 104.3 168.171 102.548 165.195 102.548H164.633Z" fill="#2B2A29"/>
<path fill-rule="evenodd" clip-rule="evenodd" d="M169.827 102.688V110.951H171.367V108.394C172.068 108.57 172.627 108.709 173.468 108.709C176.198 108.709 176.198 106.714 176.198 105.91V105.348C176.198 104.367 176.198 102.548 173.641 102.548C172.334 102.548 171.576 103.12 171.154 103.436L170.595 102.688H169.824H169.827ZM174.589 105.627C174.589 106.795 174.017 107.379 172.873 107.379C172.451 107.379 171.916 107.379 171.367 107.24V104.297L172.86 103.925C174.589 103.925 174.589 103.951 174.589 105.627Z" fill="#2B2A29"/>
<path fill-rule="evenodd" clip-rule="evenodd" d="M181.116 103.845C182.214 103.845 182.762 104.44 182.762 105.63C182.762 106.821 182.214 107.416 181.116 107.416C180.019 107.416 179.47 106.821 179.47 105.63C179.47 104.44 180.019 103.845 181.116 103.845ZM180.834 102.548C177.858 102.548 177.858 104.3 177.858 105.351V105.913C177.858 106.964 177.858 108.713 180.834 108.713H181.396C184.372 108.713 184.372 106.96 184.372 105.913V105.351C184.372 104.3 184.372 102.548 181.396 102.548H180.834Z" fill="#2B2A29"/>
<path fill-rule="evenodd" clip-rule="evenodd" d="M188.817 102.548C188.259 102.548 187.521 102.548 186.403 102.827V104.087H186.716L187.836 103.808H189.273C189.787 103.808 190.044 103.956 190.044 104.25C190.044 104.556 190.044 104.649 189.449 104.752L188.046 105.102C187.241 105.301 186.121 105.604 186.121 106.817C186.121 107.622 186.121 108.709 188.957 108.709C189.516 108.709 190.254 108.709 191.374 108.427V107.167H191.059C190.593 107.293 190.147 107.399 189.971 107.446H188.502C187.987 107.446 187.73 107.298 187.73 107.004C187.73 106.734 187.73 106.678 188.056 106.585L188.837 106.375L189.725 106.152C190.533 105.953 191.65 105.664 191.65 104.437C191.65 103.632 191.65 102.545 188.814 102.545L188.817 102.548Z" fill="#2B2A29"/>
<path fill-rule="evenodd" clip-rule="evenodd" d="M198.856 108.736L200 107.885C199.721 107.51 199.581 106.993 199.581 106.332V102.691H198.041V106.96L196.548 107.333C195.491 107.333 194.962 106.792 194.962 105.71V102.688H193.419V105.943C193.419 107.1 193.419 108.709 195.767 108.709C196.994 108.709 197.752 108.138 198.171 107.822L198.859 108.733L198.856 108.736Z" fill="#2B2A29"/>
<path fill-rule="evenodd" clip-rule="evenodd" d="M83.8712 94.3513V91.3054H85.9029C87.4058 91.3054 87.479 91.3054 87.479 92.835C87.479 94.3646 87.479 94.3513 85.9029 94.3513H83.8712ZM82.192 89.8357V98.0988H83.8712V95.8244H85.2013C87.479 95.8244 89.2646 95.8244 89.2646 92.835C89.2646 89.8457 87.479 89.8357 85.2013 89.8357H82.192Z" fill="#2B2A29"/>
<path fill-rule="evenodd" clip-rule="evenodd" d="M93.8068 93.3704C94.9041 93.3704 95.4528 93.9656 95.4528 95.156C95.4528 96.3464 94.9041 96.9416 93.8068 96.9416C92.7095 96.9416 92.1609 96.3464 92.1609 95.156C92.1609 93.9656 92.7095 93.3704 93.8068 93.3704ZM93.5275 92.0769C90.5515 92.0769 90.5515 93.8259 90.5515 94.8767V95.4386C90.5515 96.4894 90.5515 98.2384 93.5275 98.2384H94.0862C97.0622 98.2384 97.0622 96.4894 97.0622 95.4386V94.8767C97.0622 93.8259 97.0622 92.0769 94.0862 92.0769H93.5275Z" fill="#2B2A29"/>
<path fill-rule="evenodd" clip-rule="evenodd" d="M101.648 98.2384C102.07 98.2384 103.154 98.2384 104.275 97.9591V96.6989H103.959L102.828 96.9815H102.163C100.864 96.9815 100.214 96.3741 100.214 95.1593C100.214 93.9445 100.692 93.3371 101.648 93.3371C102.457 93.3371 102.959 93.7228 103.154 94.4943L104.554 94.1451C104.554 93.5832 104.554 92.0802 101.927 92.0802H101.368C98.6017 92.0802 98.6017 93.8292 98.6017 94.88V95.442C98.6017 96.4927 98.6017 98.2418 101.648 98.2418V98.2384Z" fill="#2B2A29"/>
<path fill-rule="evenodd" clip-rule="evenodd" d="M109.05 98.2384C109.468 98.2384 110.556 98.2384 111.673 97.9591V96.6989H111.361L110.23 96.9815H109.565C108.266 96.9815 107.616 96.3741 107.616 95.1593C107.616 93.9445 108.095 93.3371 109.053 93.3371C109.862 93.3371 110.364 93.7228 110.559 94.4943L111.959 94.1451C111.959 93.5832 111.959 92.0802 109.332 92.0802H108.774C106.007 92.0802 106.007 93.8292 106.007 94.88V95.442C106.007 96.4927 106.007 98.2418 109.053 98.2418L109.05 98.2384Z" fill="#2B2A29"/>
<path fill-rule="evenodd" clip-rule="evenodd" d="M118.972 98.2617L120.116 97.4105C119.836 97.0358 119.697 96.5182 119.697 95.8576V92.2165H118.154V96.4894L116.661 96.8618C115.601 96.8618 115.071 96.3209 115.071 95.2391V92.2165H113.532V95.4719C113.532 96.629 113.532 98.2384 115.876 98.2384C117.103 98.2384 117.861 97.6665 118.284 97.3506L118.972 98.2617Z" fill="#2B2A29"/>
<path fill-rule="evenodd" clip-rule="evenodd" d="M127.235 98.2617L128.379 97.4105C128.1 97.0358 127.96 96.5182 127.96 95.8576V92.2165H126.42V96.4861L124.927 96.8585C123.374 96.8585 123.338 96.8585 123.338 95.2358V92.2132H121.798V95.4686C121.798 96.6257 121.798 98.2351 124.146 98.2351C125.373 98.2351 126.131 97.6632 126.55 97.3473L127.238 98.2584L127.235 98.2617ZM124.385 90.115C123.88 90.115 123.503 89.9743 123.255 89.6927L122.58 90.2181C123.315 91.1625 123.687 91.2356 124.761 91.2356H125.017C126.078 91.2356 126.464 91.1625 127.188 90.2181L126.51 89.6927C126.268 89.9743 125.892 90.115 125.38 90.115H124.385Z" fill="#2B2A29"/>
<path fill-rule="evenodd" clip-rule="evenodd" d="M132.978 98.2384C133.397 98.2384 134.484 98.2384 135.601 97.9591V96.6989H135.285L134.155 96.9815H133.49C132.188 96.9815 131.538 96.3741 131.538 95.1593C131.538 93.9445 132.017 93.3371 132.974 93.3371C133.783 93.3371 134.285 93.7228 134.481 94.4943L135.88 94.1451C135.88 93.5832 135.88 92.0802 133.254 92.0802H132.695C129.928 92.0802 129.928 93.8292 129.928 94.88V95.442C129.928 96.4927 129.928 98.2418 132.974 98.2418L132.978 98.2384Z" fill="#2B2A29"/>
<path fill-rule="evenodd" clip-rule="evenodd" d="M137.61 92.2165V98.0988H139.149V95.821H141.041C141.041 96.4628 141.46 97.0247 142.265 98.0988H143.911V97.6565L142.135 95.299C143.13 94.5519 143.628 93.6885 143.628 92.7087V92.2198H141.949V92.7087C141.949 93.8991 141.365 94.4943 140.197 94.4943H139.146V92.2198H137.606L137.61 92.2165Z" fill="#2B2A29"/>
<path fill-rule="evenodd" clip-rule="evenodd" d="M150.907 98.2617L152.047 97.4105C151.768 97.0358 151.629 96.5182 151.629 95.8576V92.2165H150.089V96.4894L148.593 96.8618C147.533 96.8618 147.003 96.3209 147.003 95.2391V92.2165H145.464V95.4719C145.464 96.629 145.464 98.2384 147.811 98.2384C149.035 98.2384 149.793 97.6665 150.215 97.3506L150.904 98.2617H150.907Z" fill="#2B2A29"/>
<path fill-rule="evenodd" clip-rule="evenodd" d="M155.097 95.6814H156.533C158.039 95.6681 158.482 95.6914 158.984 95.575L159.579 95.4353V94.8634C159.579 93.8924 159.579 92.0735 156.809 92.0735H156.251C153.484 92.0735 153.484 93.8924 153.484 94.8734V95.4353C153.484 96.4861 153.507 98.2351 156.553 98.2351C157.009 98.2351 158.036 98.2351 159.157 97.9558V96.6956H158.844L157.724 96.9782H156.533C155.575 96.9782 155.097 96.5459 155.097 95.6814ZM155.097 94.6306C155.097 93.7661 155.575 93.3338 156.533 93.3338C157.491 93.3338 157.97 93.7661 157.97 94.6306H155.1H155.097Z" fill="#2B2A29"/>
<path fill-rule="evenodd" clip-rule="evenodd" d="M39.9322 92.1899H50.1704L37.8838 108.573H27.6456L39.9322 92.1899Z" fill="#E53124"/>
<path fill-rule="evenodd" clip-rule="evenodd" d="M0 95.0928C0 94.4112 0 93.5566 0.681663 92.8749C1.36333 92.1899 2.2179 92.1899 2.89956 92.1899H20.0509C22.2688 92.1899 23.8881 92.1899 25.2548 92.8749C26.6214 93.5566 27.6456 94.9232 28.6664 96.2866L29.6906 97.6499C30.4188 98.6209 30.9708 99.3557 30.9708 100.38C30.9708 101.404 30.3756 102.195 29.6906 103.113L25.5973 108.573H15.359L22.0161 99.7015C22.5281 99.0199 23.1233 98.1653 22.6977 97.2276C22.2721 96.2899 21.1615 96.2899 20.3069 96.2899H12.2866V116.766H4.09663V96.2899H0V95.0962V95.0928Z" fill="#E53124"/>
<path fill-rule="evenodd" clip-rule="evenodd" d="M52.2187 86.9029V88.0966H62.457C63.1387 88.0966 64.1628 88.0966 64.8478 88.7783C65.5295 89.4633 65.5295 90.4874 65.5295 91.1691V101.407C65.5295 102.092 65.5295 103.113 64.8478 103.795C64.1661 104.477 63.142 104.477 62.457 104.477H57.5091C56.6545 104.477 55.5473 104.477 55.1216 103.539C54.696 102.598 55.2912 101.747 55.8033 101.065L62.457 92.1933H52.2187L48.1221 97.6532C47.4371 98.5676 46.8419 99.359 46.8419 100.383C46.8419 101.407 47.3939 102.142 48.1221 103.113L49.1463 104.477C50.1671 105.84 51.1946 107.206 52.5579 107.891C53.9212 108.573 55.5439 108.573 57.7618 108.573H62.1976C64.758 108.573 68.5986 108.573 71.1557 106.016C73.7161 103.456 73.7161 99.7015 73.7161 98.3382V94.2416C73.7161 92.8782 73.7161 89.1241 71.1557 86.5637C68.5986 84 64.7614 84.0033 62.201 84H55.1216C54.44 84 53.5854 84 52.9037 84.6817C52.2221 85.3633 52.2221 86.2179 52.2221 86.8996L52.2187 86.9029Z" fill="#E53124"/>
</g>
<defs>
<clipPath id="clip0_6463_232">
<rect width="200" height="32.7631" fill="white" transform="translate(0 84)"/>
</clipPath>
</defs>
</svg>
