<svg width="200" height="200" viewBox="0 0 200 200" fill="none" xmlns="http://www.w3.org/2000/svg">
<g clip-path="url(#clip0_6463_850)">
<path fill-rule="evenodd" clip-rule="evenodd" d="M172.206 81.8951C176.493 79.8239 181.556 79.4377 186.114 80.8025C191.741 82.4394 196.486 86.7818 198.627 92.2349C200.893 97.838 200.33 104.492 197.116 109.615C193.69 115.274 187.203 118.92 180.581 118.848C174.292 118.914 168.106 115.644 164.588 110.439C166.095 110.169 167.664 110.105 169.169 110.425C171.028 110.791 172.689 111.744 174.41 112.488C177.079 113.655 180.155 113.939 182.966 113.143C185.534 112.43 187.833 110.839 189.43 108.712C186.586 110.345 183.569 112.13 180.179 112.078C178.402 112.112 176.709 111.516 175.1 110.829C177.742 110.703 180.141 109.434 182.276 107.966C184.631 106.443 186.765 104.492 189.432 103.519C191.701 102.835 194.219 102.779 196.452 103.631C195.395 102.539 194.027 101.786 192.534 101.496C192.692 99.4849 192.452 97.3897 191.491 95.5867C190.401 93.5056 188.149 92.0528 185.786 92.0347C184.227 91.9967 182.778 92.6431 181.27 92.9132C179.587 93.1714 178.024 92.3189 176.389 92.1008C174.152 91.7646 171.816 92.7552 170.401 94.4961C169.285 95.8369 168.783 97.5839 168.618 99.2948C168.338 102.112 169.239 105.006 171.016 107.203C171.948 108.418 173.123 109.418 174.358 110.315C172.551 109.957 170.818 109.264 168.977 109.088C167.332 108.928 165.615 108.964 164.06 109.581C162.203 106.745 161.284 103.349 161.156 99.9792C161.022 95.4827 162.507 90.9481 165.309 87.4222C167.142 85.0829 169.525 83.1778 172.206 81.8951ZM181.808 86.1815C180.639 87.6103 180.287 89.6374 180.869 91.3844C182.542 91.2283 184.183 90.4298 185.152 89.0271C186.19 87.6263 186.372 85.7752 185.978 84.1143C184.369 84.1323 182.8 84.9188 181.808 86.1815Z" fill="#C01130"/>
<path fill-rule="evenodd" clip-rule="evenodd" d="M83.0245 83.4059C83.971 83.4079 84.9156 83.4259 85.8621 83.3979C86.1322 84.2704 86.1462 85.2729 85.652 86.0714C84.9436 87.3421 83.6048 88.0605 82.3401 88.6688C79.9288 89.7755 77.3153 90.6459 75.3442 92.499C73.9534 93.7717 73.231 95.6227 73.0269 97.4678C73.6192 95.9429 74.94 94.8203 76.3468 94.0579C78.3259 93.0233 80.6992 92.8872 82.8484 93.4055C85.0836 93.9638 87.0247 95.5327 88.0653 97.5858C89.298 100.009 89.4241 102.929 88.5756 105.496C87.8212 107.76 86.1262 109.715 83.923 110.665C82.0359 111.5 79.9048 111.602 77.8836 111.332C75.6224 110.981 73.4511 109.779 72.1624 107.854C70.9017 106.065 70.4414 103.851 70.3494 101.696C70.1213 98.4663 70.3994 94.9824 72.2745 92.2308C73.9554 89.6534 76.759 88.0865 79.5666 87.0099C80.6872 86.5076 82.0139 86.1634 82.7503 85.0988C83.1326 84.6186 83.0485 83.9782 83.0245 83.4059ZM78.4159 95.8469C76.723 96.167 75.1941 97.2136 74.2876 98.6804C72.5546 101.35 73.0009 105.29 75.4523 107.373C77.0952 108.794 79.4525 109.138 81.5297 108.678C83.4527 108.256 85.0897 106.793 85.768 104.952C86.7526 102.379 86.2603 99.1407 84.1571 97.2556C82.6303 95.8549 80.405 95.4847 78.4159 95.8469ZM10.72 85.0868C13.4455 84.7326 16.3512 84.8847 18.8486 86.1294C20.3474 86.8818 21.7222 87.8824 22.9088 89.0651C22.3125 89.7655 21.6321 90.3918 21.0758 91.1262C19.577 89.7795 17.88 88.6028 15.9289 88.0225C13.3895 87.2881 10.5299 87.4682 8.20059 88.7729C5.55911 90.3018 3.64604 93.0513 3.18779 96.077C2.78356 98.6584 3.06572 101.43 4.39646 103.719C5.77123 106.125 8.11255 108.062 10.8721 108.594C13.2554 109.04 15.8329 108.772 17.9621 107.563C19.1467 106.887 20.2393 106.049 21.2199 105.102C21.8943 105.734 22.5086 106.429 23.139 107.105C21.7522 108.536 20.1073 109.733 18.2702 110.519C15.995 111.468 13.4655 111.59 11.0382 111.364C5.70119 110.803 1.21268 106.315 0.276156 101.094C-0.366203 97.7199 0.090052 94.0579 1.91107 91.1082C3.81814 87.9765 7.05195 85.6091 10.72 85.0868ZM27.3293 93.9198C30.0588 92.6891 33.1406 92.2949 36.1002 92.7031C37.7872 92.9873 39.5141 93.6336 40.6388 94.9804C41.4412 95.9609 41.8514 97.2316 41.8434 98.4923C41.8634 101.496 41.8334 104.5 41.8554 107.503C41.8414 108.084 41.9855 108.656 42.3017 109.144C42.834 109.334 43.3943 109.4 43.9586 109.358C43.9746 109.993 43.9826 110.625 43.9906 111.257C42.846 111.38 41.5112 111.632 40.5167 110.891C39.6562 110.177 39.5802 108.964 39.5441 107.928C38.5936 109.557 36.9067 110.637 35.1037 111.093C32.6823 111.712 29.8707 111.568 27.8476 109.959C25.4523 108.082 25.2141 104.21 27.1192 101.906C28.2478 100.557 29.9628 99.8051 31.6837 99.597C34.2432 99.3468 36.8767 99.8291 39.1719 100.994C39.0979 99.5569 39.4781 97.898 38.4755 96.6893C37.543 95.6067 36.0782 95.1705 34.7054 94.9944C32.3561 94.7863 29.8867 95.0704 27.7956 96.2271C27.6135 95.4626 27.4094 94.7022 27.3293 93.9198ZM29.9388 102.933C28.4459 104.133 28.3319 106.713 29.8367 107.954C31.0434 108.972 32.7323 108.986 34.2172 108.798C36.0182 108.48 37.9052 107.611 38.7897 105.925C39.276 105.114 39.1219 104.142 39.1359 103.245C37.6451 102.451 35.9942 101.978 34.3152 101.82C32.7924 101.67 31.1434 101.926 29.9388 102.933ZM96.1298 94.0899C98.5832 92.467 101.737 92.2028 104.545 92.9112C106.292 93.3515 107.924 94.4201 108.825 96.0089C109.924 97.916 109.988 100.239 109.613 102.359C104.795 102.351 99.978 102.359 95.1593 102.355C95.0772 103.999 95.6275 105.672 96.7582 106.885C98.0389 108.234 99.8879 108.966 101.729 109.066C103.172 109.13 104.629 109.016 106.023 108.626C106.89 108.426 107.704 108.034 108.591 107.902C108.735 108.618 108.893 109.334 108.935 110.067C106.027 111.35 102.73 111.962 99.5898 111.261C97.2144 110.769 94.9652 109.398 93.6765 107.311C92.2877 105.124 91.9715 102.395 92.4037 99.8751C92.818 97.5558 94.1387 95.3826 96.1298 94.0899ZM97.2244 96.3671C96.1198 97.2937 95.5275 98.6724 95.2674 100.063C99.2236 100.101 103.182 100.071 107.138 100.079C107.138 99.2308 107.068 98.3583 106.682 97.5858C106.033 96.165 104.553 95.3086 103.064 95.0244C101.055 94.6862 98.7973 94.9724 97.2244 96.3671ZM121.34 92.6791C123.643 92.2168 126.221 92.471 128.162 93.8878C130.053 95.2425 131.151 97.4618 131.532 99.715C131.918 102.128 131.72 104.718 130.519 106.885C129.426 108.916 127.479 110.463 125.238 111.023C122.517 111.768 119.597 111.029 117.278 109.511C117.254 113.165 117.266 116.819 117.274 120.471C116.293 120.517 115.313 120.471 114.334 120.475C114.318 112.816 114.324 105.156 114.33 97.4958C114.308 96.8334 114.314 96.091 113.868 95.5527C113.478 95.0264 112.751 95.1405 112.183 95.0444C112.227 94.346 112.039 93.6156 112.187 92.9392C113.359 92.6791 114.69 92.6571 115.763 93.2714C116.661 93.8297 116.877 94.9644 116.885 95.9449C117.838 94.312 119.469 93.0473 121.34 92.6791ZM119.325 96.4672C117.912 97.7139 117.18 99.627 117.2 101.492C117.208 103.267 117.182 105.042 117.212 106.817C118.686 107.922 120.469 108.736 122.347 108.688C123.991 108.784 125.668 108.166 126.833 106.995C128.106 105.712 128.688 103.867 128.694 102.086C128.722 100.269 128.326 98.3463 127.137 96.9195C125.222 94.7182 121.496 94.5501 119.325 96.4672ZM47.4005 92.9692C47.7387 92.9692 48.0789 92.9692 48.4191 92.9692C51.0926 96.3171 53.8682 99.583 56.5857 102.895C59.3352 99.601 62.0988 96.3191 64.7943 92.9833C65.1285 92.9732 65.4647 92.9632 65.8028 92.9552C65.8028 98.9826 65.7888 105.008 65.8089 111.035C64.8643 111.065 63.9218 111.051 62.9793 111.047C62.9633 107.101 62.9793 103.157 62.9713 99.2127C61.3904 101.018 59.8695 102.875 58.3167 104.704C57.7303 105.376 57.208 106.111 56.5277 106.697C54.3825 104.256 52.3773 101.692 50.2702 99.2167C50.2361 103.161 50.2702 107.107 50.2541 111.053C49.2996 111.049 48.3451 111.057 47.3925 111.043C47.4045 105.018 47.3865 98.9926 47.4005 92.9672V92.9692ZM135.912 92.9793C136.873 92.9512 137.833 92.9652 138.796 92.9672C138.792 95.0764 138.8 97.1856 138.79 99.2968C138.708 101.42 138.626 103.545 138.594 105.672C142.676 101.424 146.8 97.2156 150.866 92.9532C151.211 92.9432 151.557 92.9372 151.903 92.9312C151.895 99.0046 151.931 105.078 151.883 111.151C150.939 111.143 149.996 111.143 149.053 111.151C149.031 109.264 149.041 107.379 149.045 105.492C149.071 103.053 149.292 100.622 149.314 98.1802C145.143 102.525 140.941 106.837 136.755 111.165C136.462 111.135 136.176 111.105 135.888 111.067C135.94 105.038 135.894 99.0086 135.912 92.9793Z" fill="#61913D"/>
</g>
<defs>
<clipPath id="clip0_6463_850">
<rect width="200" height="40.4907" fill="white" transform="translate(0 80)"/>
</clipPath>
</defs>
</svg>
