<svg width="200" height="200" viewBox="0 0 200 200" fill="none" xmlns="http://www.w3.org/2000/svg">
<g clip-path="url(#clip0_8003_59)">
<path fill-rule="evenodd" clip-rule="evenodd" d="M16.2114 85H16.5199C20.2505 85.0189 23.9569 86.3576 26.8242 88.7481C29.538 90.9744 31.4936 94.0963 32.3232 97.5077C32.936 100.108 32.998 102.895 32.1374 105.448C31.0343 108.903 28.4108 111.822 25.1111 113.316C23.437 114.088 21.5973 114.475 19.7562 114.495H19.5717C16.431 114.475 13.3091 113.287 10.971 111.186C8.18182 108.751 6.53872 105.082 6.55354 101.381C4.36902 101.4 2.18451 101.384 0 101.389V101.197C0.020202 95.932 2.78384 90.7818 7.15825 87.8552C9.80471 86.0303 12.9993 85.0377 16.2114 85ZM18.6424 94.9192C16.9576 95.1751 15.3899 96.1313 14.3919 97.5118C13.5582 98.631 13.1057 100.029 13.1232 101.424C13.1165 103.139 13.837 104.834 15.0572 106.036C16.3515 107.342 18.2222 108.044 20.0566 107.924C21.8559 107.831 23.5919 106.943 24.7313 105.548C25.833 104.232 26.369 102.463 26.1926 100.756C26.0444 99.1064 25.231 97.5279 23.9744 96.4465C22.5441 95.1764 20.5266 94.6067 18.6424 94.9192ZM45.0505 94.635C46.6828 92.7091 49.0774 91.4929 51.5758 91.1993C54.0485 90.9084 56.6734 91.3569 58.7583 92.767C60.8418 94.1367 62.2155 96.3899 62.8202 98.7778C61.1273 98.7697 59.4343 98.7683 57.7428 98.7791C57.2081 97.637 56.4081 96.5704 55.2714 95.9751C54.0525 95.3111 52.5562 95.2747 51.2566 95.7125C49.9178 96.1798 48.8512 97.2653 48.2869 98.5529C47.6727 99.9495 47.565 101.544 47.8936 103.028C48.2155 104.459 49.0438 105.818 50.3071 106.599C51.8465 107.566 53.9367 107.611 55.4963 106.665C56.5051 106.055 57.2471 105.074 57.7172 104.007C59.4195 103.991 61.1219 104.005 62.8242 103.999C62.2276 106.312 60.9226 108.495 58.9455 109.878C56.8377 111.37 54.1414 111.873 51.604 111.574C48.963 111.272 46.4283 109.933 44.7933 107.82C41.8074 104.088 41.9084 98.2431 45.0505 94.635ZM70.9037 91.9306C73.033 90.9071 75.5879 90.8478 77.7859 91.6949C78.9024 92.1098 79.8424 92.8923 80.5562 93.835C80.5549 93.0741 80.5791 92.3145 80.5899 91.5535C82.2586 91.5603 83.9286 91.5576 85.5987 91.5535C85.6027 98.1098 85.5946 104.666 85.604 111.222C83.93 111.214 82.2559 111.224 80.5832 111.217C80.5899 110.456 80.5508 109.695 80.5562 108.933C79.4599 110.477 77.6512 111.368 75.7993 111.585C73.8599 111.843 71.829 111.466 70.1589 110.434C67.9098 109.093 66.3178 106.789 65.662 104.271C64.9684 101.626 65.2471 98.7226 66.5091 96.2889C67.4572 94.4168 69.0061 92.837 70.9037 91.9293V91.9306ZM74.4013 95.5805C72.6667 95.9805 71.3118 97.4148 70.7542 99.0714C70.1347 100.937 70.2599 103.088 71.2646 104.798C71.8451 105.804 72.7623 106.622 73.8572 107.026C75.2418 107.543 76.8633 107.454 78.1549 106.717C79.4572 105.976 80.3273 104.622 80.668 103.183C81.231 100.811 80.6976 97.963 78.6882 96.4101C77.4949 95.4795 75.8545 95.2061 74.4013 95.5805ZM124.598 91.2222C126.809 90.8976 129.123 91.3003 131.081 92.3832C133.162 93.5118 134.835 95.3758 135.72 97.5724C137.285 101.35 136.314 106.024 133.316 108.82C131.554 110.507 129.17 111.512 126.738 111.637C124.053 111.808 121.29 110.935 119.259 109.154C117.731 107.847 116.629 106.063 116.102 104.125C115.502 101.889 115.655 99.4471 116.591 97.3246C117.972 94.0896 121.112 91.6976 124.598 91.2222ZM125.017 95.5401C123.921 95.7892 122.927 96.4357 122.226 97.3111C120.233 99.7515 120.389 103.691 122.637 105.919C123.826 107.104 125.639 107.63 127.27 107.202C128.749 106.855 129.974 105.746 130.63 104.398C131.906 101.91 131.43 98.569 129.319 96.6835C128.178 95.633 126.529 95.1872 125.017 95.5401ZM162.342 93.804C163.817 92.2862 165.833 91.2734 167.958 91.1333C170.418 90.9421 173.126 91.7434 174.601 93.8364C174.598 93.0768 174.629 92.3185 174.621 91.5589C176.295 91.5522 177.969 91.563 179.644 91.5522C179.64 98.1084 179.646 104.665 179.642 111.221C177.968 111.221 176.292 111.221 174.618 111.22C174.63 110.459 174.601 109.698 174.601 108.937C173.962 109.781 173.143 110.488 172.176 110.926C169.498 112.13 166.205 111.85 163.787 110.174C161.218 108.441 159.627 105.453 159.38 102.387C159.09 99.2828 160.141 96.037 162.343 93.804H162.342ZM168.401 95.5845C166.528 96.0559 165.108 97.6949 164.657 99.5387C164.226 101.241 164.372 103.127 165.235 104.674C165.877 105.846 166.972 106.79 168.272 107.144C169.713 107.57 171.354 107.343 172.586 106.468C173.523 105.813 174.178 104.813 174.551 103.742C175.06 102.187 175.042 100.461 174.508 98.9138C174.046 97.5886 173.08 96.4061 171.776 95.8418C170.726 95.3609 169.514 95.3165 168.401 95.5845ZM90.101 91.5562C91.5394 91.5562 92.9778 91.5562 94.4162 91.5562C96.6613 94.4276 98.9051 97.3003 101.133 100.185C103.403 97.3205 105.643 94.4317 107.9 91.5562C109.344 91.5535 110.788 91.5576 112.232 91.5562C112.221 98.1111 112.252 104.666 112.217 111.221C110.541 111.221 108.866 111.214 107.191 111.225C107.157 107.202 107.191 103.178 107.173 99.1535C105.165 101.711 103.177 104.285 101.184 106.855C99.1771 104.284 97.1636 101.718 95.1542 99.1495C95.1327 103.172 95.1488 107.197 95.1461 111.22C93.464 111.222 91.7832 111.22 90.1024 111.221C90.0997 104.666 90.101 98.1111 90.101 91.5562ZM139.953 91.5522C139.953 98.1084 139.949 104.665 139.954 111.221C141.632 111.217 143.31 111.228 144.989 111.215C145.002 108.386 144.989 105.558 144.994 102.728C147.678 105.551 150.321 108.411 153.013 111.225C155.152 111.217 157.29 111.22 159.43 111.224C156.255 107.901 153.095 104.564 149.912 101.249C152.618 98.0034 155.367 94.7912 158.09 91.5603C156.113 91.5522 154.136 91.5589 152.16 91.5562C149.759 94.4155 147.402 97.3111 145.002 100.169C144.986 97.2976 145.001 94.4263 144.995 91.5549C143.314 91.5562 141.634 91.5616 139.954 91.5522H139.953ZM183.076 91.5589C188.719 91.5549 194.36 91.5576 200 91.5562V95.7825C198.022 95.7825 196.043 95.7811 194.065 95.7825C194.061 100.927 194.069 106.072 194.061 111.217C192.381 111.222 190.7 111.225 189.02 111.217C189.009 106.072 189.015 100.929 189.015 95.7838C187.037 95.7838 185.057 95.7825 183.077 95.7838C183.083 94.3764 183.083 92.9677 183.077 91.5603L183.076 91.5589Z" fill="#EF2C61"/>
</g>
<defs>
<clipPath id="clip0_8003_59">
<rect width="200" height="29.4949" fill="white" transform="translate(0 85)"/>
</clipPath>
</defs>
</svg>
