<svg width="200" height="200" viewBox="0 0 200 200" fill="none" xmlns="http://www.w3.org/2000/svg">
<path d="M12.9213 82.381C13.0489 85.1818 12.0939 86.3269 10.4392 86.3912C8.78439 86.4545 7.82935 85.3094 7.82935 82.5077L7.6374 68.5056L7.06442 54.3115C6.93771 51.5107 7.89272 50.3013 9.54748 50.238C11.2022 50.1746 12.1563 51.384 12.1563 54.1839L12.284 64.2401H19.9223C19.5403 52.7201 17.3126 44 9.92949 44C1.84575 44 0 54.8836 0 68.377C0 81.807 1.84575 92.754 9.92949 92.754C17.6946 92.754 19.7313 83.0164 19.9857 70.6048H12.4116L12.9213 82.381Z" fill="#211F1E"/>
<path d="M23.473 92.2462H39.8305V85.8815H30.6651L30.1563 70.2871L38.3668 70.6057L38.2392 64.05L29.9654 64.241L29.5833 50.8753H39.8305V44.5106H23.473V92.2462Z" fill="#211F1E"/>
<path d="M55.3333 67.4872V66.9151C58.9615 66.1511 60.8073 64.1143 61.5703 59.7231C62.08 56.5402 61.7613 53.8671 61.3802 51.958C60.4252 46.5474 56.988 44.2572 51.2597 44.5116H42.8583V92.2471H52.0238C58.7071 92.2471 62.5897 88.619 62.5897 80.1541C62.5887 73.5342 61.0616 68.5056 55.3333 67.4872ZM48.9677 50.811C49.4773 50.811 50.0494 50.811 51.0678 50.8743C53.0412 50.9377 54.2506 53.0388 54.4416 57.5577C54.696 62.904 52.8502 64.1767 50.9411 64.1767C50.3681 64.1767 49.8594 64.1767 49.3497 64.1134L48.9677 50.811ZM51.7051 85.8815H50.0503L49.605 70.7967C50.1146 70.6691 50.942 70.5424 51.8328 70.6691C53.8062 70.8601 55.0156 73.2155 55.2066 78.6894C55.3966 85.2451 53.6142 85.8182 51.7051 85.8815Z" fill="#211F1E"/>
<path d="M78.3023 66.9785V66.3421C81.4842 65.6414 82.5659 64.8141 83.3942 60.1041C83.7129 58.2584 85.049 44.5106 85.049 44.5106H77.6026L76.9652 57.6853C76.4565 64.4963 75.2471 64.1143 73.3371 64.3053C72.956 64.3687 72.6374 64.3687 72.3196 64.3053L71.6832 44.5106H65.764V92.2472H73.147L72.5097 70.6057H77.4106L78.7477 92.2472H86.3217L84.476 74.9979C83.8406 68.951 81.9305 67.5515 78.3023 66.9785Z" fill="#211F1E"/>
<path d="M94.8017 44.5106L88.3727 92.2472H96.0734L96.8375 83.91H103.457L104.221 92.2472H111.922L105.493 44.5106H94.8017ZM97.4115 77.5444L99.8936 50.7486H100.403L102.886 77.5444H97.4115Z" fill="#211F1E"/>
<path d="M123.317 64.241C122.427 64.241 121.663 64.3687 121.026 64.5597L120.581 50.8753H130.828V44.5106H114.471V92.2472H123.509C129.811 92.2472 132.738 89.956 133.757 82.955C134.33 79.0081 133.948 75.6986 133.567 73.3441C132.61 66.6598 129.045 63.86 123.317 64.241ZM123.062 85.9458C122.617 85.9458 122.107 85.8825 121.725 85.8825L121.216 70.6067C121.789 70.48 122.426 70.4157 123.253 70.5433C125.162 70.7334 126.372 73.0888 126.563 78.4994C126.755 84.9908 124.971 85.8815 123.062 85.9458Z" fill="#211F1E"/>
<path d="M136.931 92.2462H153.288V85.8815H144.123L143.614 70.2871L151.825 70.6057L151.698 64.05L143.423 64.241L143.041 50.8753H153.288V44.5106H136.931V92.2462Z" fill="#211F1E"/>
<path d="M158.671 81.9356C158.48 85.5005 156.888 85.8182 154.725 85.8815L155.043 92.2462C156.634 92.6282 158.798 92.6916 160.008 92.3096C163.381 91.4188 165.608 88.9357 165.672 83.5904L165.926 50.8744H169.957L171.294 92.2462H177.213V44.5106H160.899L158.671 81.9356Z" fill="#211F1E"/>
<path d="M189.625 64.241C188.861 64.3053 188.161 64.433 187.588 64.5597L186.952 44.5106H181.033V92.2472H189.625C197.008 92.2472 200 88.1745 200 77.9264C200 68.8876 195.353 63.7957 189.625 64.241ZM189.371 85.9458H188.289L187.78 70.5433C188.099 70.5433 188.353 70.5433 188.671 70.6067C190.517 70.9887 191.981 72.0704 192.363 78.054C192.808 84.7364 191.217 85.8182 189.371 85.9458Z" fill="#211F1E"/>
<path d="M37.007 108.078C28.9233 108.078 27.0785 118.962 27.0785 132.455C27.0785 145.885 28.9233 156.832 37.007 156.832C45.2175 156.832 47.0623 145.884 47.0623 132.455C47.0623 118.962 45.2175 108.078 37.007 108.078ZM37.5158 150.467C35.861 150.531 34.906 149.386 34.906 146.585L34.714 132.583L34.142 118.389C34.0143 115.589 34.9693 114.378 36.6241 114.315C38.2789 114.252 39.2339 115.461 39.2339 118.262L39.4249 132.455L39.9979 146.457C40.1256 149.258 39.1705 150.404 37.5158 150.467Z" fill="#211F1E"/>
<path d="M59.6574 108.587H51.4469V156.323H58.8943L58.2579 137.101L59.6583 137.292C62.6502 137.484 65.1957 136.846 66.9781 135C68.6328 133.346 70.5429 130.418 70.3509 122.971C70.0332 112.278 67.2958 108.587 59.6574 108.587ZM59.7217 131.119C59.1487 131.119 58.5757 131.119 58.067 131.055L57.5582 114.952C58.1312 114.826 58.831 114.698 59.7226 114.761C61.8871 114.952 62.7144 116.989 62.9688 122.526C63.5409 130.546 61.6308 131.055 59.7217 131.119Z" fill="#211F1E"/>
<path d="M27.4662 108.587H2.31851V156.323H9.70162C9.25625 142.511 8.87423 128.763 8.42887 114.951H15.1538L16.4266 156.323H22.3458V114.937H27.4652V108.587H27.4662Z" fill="#211F1E"/>
<path d="M91.5423 114.951H84.9866L85.623 156.323H78.1765L78.8129 114.951H71.1746V108.587H91.5423V114.951Z" fill="#211F1E"/>
</svg>
