<svg width="200" height="200" viewBox="0 0 200 200" fill="none" xmlns="http://www.w3.org/2000/svg">
<g clip-path="url(#clip0_6598_1583)">
<path d="M37.7307 97.5136C37.7307 97.5136 38.6659 86.8107 38.761 85.7629C38.7888 85.1536 38.6947 84.545 38.4844 83.9732C38.2739 83.4015 37.9518 82.8783 37.5368 82.4349C37.1219 81.9915 36.6227 81.637 36.0691 81.3924C35.5156 81.1478 34.9189 81.0183 34.3147 81.0114H7.54905C6.31509 80.9251 5.09705 81.3323 4.15823 82.1451C3.21939 82.9579 2.63522 84.1109 2.53198 85.3549C2.4131 86.6108 0.201787 112.488 0.0353446 113.976C-0.0437215 114.609 0.0102145 115.253 0.193646 115.864C0.377078 116.475 0.685901 117.041 1.10004 117.523C1.51418 118.006 2.02436 118.396 2.59743 118.666C3.17048 118.937 3.7936 119.083 4.42627 119.095H31.065C34.592 119.095 35.9632 117.207 36.2644 114.296C36.4467 112.56 37.2869 102.025 37.2869 102.025H21.237L20.5394 110.16H16.4656L18.2172 89.9464H22.291L21.6491 97.5136H37.7307Z" fill="#02818A"/>
<path d="M62.5545 84.283C61.9838 85.9468 57.2996 100.737 57.2996 100.737L59.384 81.0114H43.3025L39.9341 119.095H52.0527C55.0962 119.095 56.1425 117.351 56.6497 115.952C57.252 114.288 61.7143 101.809 61.7143 101.809L60.0737 119.095H76.163L79.4762 81.0114H66.8503C65.8773 81.0039 64.9291 81.3204 64.1526 81.9118C63.3758 82.5033 62.8143 83.3367 62.5545 84.283Z" fill="#02818A"/>
<path d="M144.048 81.0114L142.542 98.3695H138.46L139.966 81.0114H123.885C123.885 81.0114 122.339 99.4093 122.173 101.169C121.982 103.289 123.171 106.297 126.738 106.297H141.853L141.52 110.152H121.396L120.603 119.087H152.616C154.787 119.087 156.88 117.655 157.165 114.6C157.363 112.648 160.138 81.0114 160.138 81.0114H144.048Z" fill="#02818A"/>
<path d="M164.18 81.0114L160.882 119.087H176.972L177.986 107.305H193.617C196.383 107.305 198.221 105.881 198.514 102.617C198.632 101.353 199.901 86.9147 199.989 85.6428C200.179 82.8272 197.96 81.0114 195.232 81.0114H164.18ZM178.676 99.4093L179.469 89.9624H183.503L182.71 99.4093H178.676Z" fill="#02818A"/>
<path d="M98.5537 93.81L98.8945 89.9464H119.042L119.834 81.0114H83.5737L80.2766 119.095H112.384C114.421 119.095 116.633 117.871 116.918 114.688C117.132 112.288 118.122 100.977 118.305 98.9214C118.543 96.1777 116.823 93.81 113.43 93.81H98.5537ZM101.153 111.176H97.0478L97.8404 101.729H101.946L101.153 111.176Z" fill="#02818A"/>
</g>
<defs>
<clipPath id="clip0_6598_1583">
<rect width="200" height="38.0952" fill="white" transform="translate(0 81)"/>
</clipPath>
</defs>
</svg>
