<svg width="200" height="200" viewBox="0 0 200 200" fill="none" xmlns="http://www.w3.org/2000/svg">
<path d="M76.8142 97.8505C76.8142 104.839 82.08 110.344 89.4117 110.344C93.8516 110.344 97.777 108.072 99.7696 104.563L96.327 102.6C95.0863 104.975 92.4386 106.489 89.4087 106.489C84.2123 106.489 80.7698 102.807 80.7698 97.8505C80.7698 92.8945 84.2123 89.2117 89.4087 89.2117C92.4386 89.2117 95.053 90.7252 96.327 93.1L99.7696 91.1045C97.7407 87.5924 93.8154 85.3566 89.4117 85.3566C82.08 85.3566 76.8142 90.8619 76.8142 97.8505ZM118.051 92.3996V109.61H114.402V98.9515L106.312 109.61H103.167V92.3988H106.816V103.601L115.194 92.3988L118.051 92.3996ZM136.854 101.004C136.854 97.8045 134.512 95.4998 131.415 95.4998C128.318 95.4998 125.976 97.8045 125.976 101.004C125.976 104.204 128.318 106.513 131.415 106.513C134.512 106.513 136.854 104.205 136.854 101.004ZM140.569 101.004C140.569 106.134 136.681 110.056 131.998 110.056C129.313 110.056 127.281 108.955 125.973 107.165V116.492H122.255V92.3966H124.961L125.97 94.875C127.281 93.0487 129.31 91.9477 131.995 91.9477C136.681 91.9508 140.569 95.9086 140.569 101.004ZM158.732 92.4003V109.611H155.083V98.9515L146.994 109.61H143.848V92.3988H147.498V103.601L155.875 92.3988L158.732 92.4003ZM178.933 92.4003L172.324 110.162C170.708 114.534 167.714 116.736 163.925 116.496V113.02C166.336 113.156 167.644 112.023 168.502 109.717L168.605 109.475L161.377 92.4003H165.335L170.568 104.931L174.972 92.4003H178.933ZM180.249 101.005C180.249 95.8761 184.138 91.9545 189.337 91.9545C192.71 91.9545 195.637 93.7106 197.014 96.3952L193.814 98.254C193.056 96.6378 191.37 95.6034 189.304 95.6034C186.274 95.6034 183.968 97.9087 183.968 101.006C183.968 104.102 186.274 106.408 189.304 106.408C191.37 106.408 193.056 105.342 193.881 103.756L197.081 105.58C195.634 108.298 192.71 110.054 189.337 110.054C184.138 110.057 180.249 106.097 180.249 101.005Z" fill="#621E9B"/>
<mask id="mask0_6598_1069" style="mask-type:luminance" maskUnits="userSpaceOnUse" x="2" y="71" width="58" height="58">
<path d="M2.52655 71.1663H59.9528V128.592H2.52655V71.1663Z" fill="white"/>
</mask>
<g mask="url(#mask0_6598_1069)">
<path d="M36.4231 118.842C37.2263 118.842 37.8792 118.197 37.8792 117.403C37.8774 117.019 37.7229 116.651 37.4497 116.38C37.1765 116.109 36.807 115.958 36.4224 115.959C35.6192 115.959 34.9875 116.593 34.9875 117.404C34.9851 117.593 35.0207 117.781 35.092 117.957C35.1633 118.132 35.2689 118.291 35.4026 118.425C35.5364 118.559 35.6956 118.665 35.8708 118.737C36.0461 118.808 36.2338 118.844 36.4231 118.842ZM43.9762 114.303C44.7771 114.303 45.4322 113.658 45.4322 112.865C45.4306 112.481 45.2764 112.112 45.0033 111.841C44.7303 111.571 44.3608 111.419 43.9762 111.421C43.1722 111.421 42.5405 112.054 42.5405 112.865C42.5387 113.054 42.5746 113.242 42.6461 113.417C42.7175 113.592 42.8232 113.752 42.9568 113.886C43.0904 114.019 43.2494 114.125 43.4244 114.197C43.5994 114.269 43.787 114.305 43.9762 114.304M48.4237 106.894C49.4264 106.894 50.2424 106.086 50.2424 105.094C50.2424 104.099 49.4264 103.288 48.4237 103.288C47.4172 103.288 46.6321 104.081 46.6321 105.094C46.6321 106.105 47.4187 106.894 48.4237 106.894ZM48.5076 98.2276C49.7097 98.2276 50.6882 97.2589 50.6882 96.0681C50.6882 94.8742 49.7097 93.9025 48.5076 93.9025C47.3016 93.9025 46.3563 94.8553 46.3563 96.0681C46.3563 97.277 47.3016 98.2276 48.5076 98.2276ZM44.586 90.9957C45.9876 90.9957 47.1293 89.8645 47.1293 88.4772C47.1293 87.0839 45.9876 85.9505 44.5852 85.9505C43.1775 85.9505 42.0751 87.0597 42.0751 88.4772C42.0751 89.8917 43.179 90.9957 44.586 90.9957ZM36.4118 87.0212C38.0167 87.0212 39.3216 85.7298 39.3216 84.1408C39.3216 82.548 38.0167 81.2514 36.4125 81.2514C34.8046 81.2514 33.545 82.5208 33.545 84.1408C33.542 85.754 34.8016 87.0212 36.4118 87.0212ZM27.306 87.3786C29.1096 87.3786 30.5777 85.9256 30.5777 84.14C30.5777 82.3485 29.1096 80.8887 27.306 80.8887C25.4963 80.8887 24.0795 82.3183 24.0795 84.14C24.0757 85.9588 25.4925 87.3786 27.306 87.3786ZM19.3207 91.7611C21.1243 91.7611 22.5925 90.3073 22.5925 88.5218C22.5925 86.731 21.1243 85.2712 19.3207 85.2712C17.511 85.2712 16.0942 86.7 16.0942 88.5218C16.0942 90.3375 17.511 91.7611 19.3207 91.7611ZM15.1573 98.9893C16.7614 98.9893 18.0664 97.6987 18.0664 96.1096C18.0664 94.5168 16.7614 93.2202 15.1573 93.2202C13.5501 93.2202 12.2867 94.4896 12.2867 96.1096C12.2867 97.7259 13.5471 98.9893 15.1573 98.9893ZM15.1603 107.615C16.562 107.615 17.7044 106.486 17.7044 105.096C17.7044 103.703 16.562 102.569 15.1603 102.569C13.7519 102.569 12.6494 103.679 12.6494 105.096C12.6494 106.508 13.7526 107.615 15.1603 107.615ZM19.8526 115.024C21.0548 115.024 22.0341 114.057 22.0341 112.865C22.0341 111.671 21.0548 110.7 19.8526 110.7C18.6467 110.7 17.7014 111.652 17.7014 112.865C17.7014 114.074 18.6467 115.024 19.8526 115.024ZM27.2697 119.204C27.7491 119.206 28.2096 119.017 28.55 118.679C28.8905 118.342 29.083 117.883 29.0854 117.403C29.0854 116.408 28.2694 115.598 27.2697 115.598C26.2632 115.598 25.4781 116.391 25.4781 117.403C25.4748 117.64 25.5188 117.875 25.6075 118.094C25.6962 118.313 25.8278 118.513 25.9946 118.681C26.1614 118.848 26.3601 118.981 26.5789 119.071C26.7978 119.161 27.0331 119.206 27.2697 119.204ZM27.6316 110.519C28.8338 110.519 29.8131 109.55 29.8131 108.36C29.8131 107.166 28.8338 106.194 27.6316 106.194C26.4257 106.194 25.4804 107.148 25.4804 108.36C25.4804 109.572 26.4257 110.519 27.6316 110.519ZM23.2174 103.209C24.6228 103.209 25.7615 102.08 25.7615 100.69C25.7615 99.2968 24.619 98.1634 23.2174 98.1634C21.8097 98.1634 20.7065 99.2764 20.7065 100.69C20.7065 102.105 21.8097 103.209 23.2174 103.209ZM31.8676 103.209C33.2722 103.209 34.4109 102.08 34.4109 100.69C34.4109 99.2968 33.2692 98.1604 31.8676 98.1604C30.4591 98.1604 29.3567 99.2726 29.3567 100.69C29.3567 102.105 30.4599 103.209 31.8676 103.209ZM27.544 95.9321C29.1481 95.9321 30.4531 94.6407 30.4531 93.0547C30.4531 91.4619 29.1481 90.1653 27.544 90.1653C25.9368 90.1653 24.6734 91.4347 24.6734 93.0547C24.6734 94.6649 25.9338 95.9321 27.544 95.9321ZM36.3869 95.5686C37.7923 95.5686 38.931 94.4382 38.931 93.0509C38.931 91.6576 37.7893 90.5234 36.3869 90.5234C34.9792 90.5234 33.8767 91.6334 33.8767 93.0509C33.8767 94.4624 34.9822 95.5686 36.3869 95.5686ZM40.8011 102.849C42.004 102.849 42.9826 101.881 42.9826 100.689C42.9826 99.4955 42.004 98.5246 40.8011 98.5246C39.5959 98.5246 38.6499 99.4766 38.6499 100.689C38.6461 100.973 38.699 101.255 38.8057 101.518C38.9123 101.782 39.0705 102.021 39.2709 102.222C39.4713 102.423 39.7099 102.582 39.9727 102.69C40.2355 102.798 40.5172 102.852 40.8011 102.849ZM36.3937 110.075C37.3963 110.075 38.2124 109.269 38.2124 108.274C38.2124 107.279 37.3963 106.468 36.3937 106.468C35.3872 106.468 34.6014 107.262 34.6014 108.274C34.5977 108.511 34.6415 108.746 34.7302 108.966C34.8189 109.185 34.9506 109.385 35.1177 109.553C35.2847 109.72 35.4837 109.853 35.7028 109.943C35.922 110.032 36.1569 110.077 36.3937 110.075ZM18.3853 125.444C19.5882 125.444 20.5667 124.476 20.5667 123.284C20.5667 122.09 19.5882 121.12 18.3853 121.12C17.1801 121.12 16.234 122.072 16.234 123.284C16.234 124.493 17.1801 125.444 18.3853 125.444ZM9.05576 116.246C10.4612 116.246 11.5999 115.115 11.5999 113.727C11.5999 112.334 10.4574 111.201 9.05576 111.201C7.64731 111.201 6.54487 112.31 6.54487 113.727C6.5479 115.139 7.65108 116.246 9.05576 116.246ZM5.39711 103.61C7.00126 103.61 8.3062 102.319 8.3062 100.732C8.3062 99.1404 7.00126 97.8438 5.39711 97.8438C3.78842 97.8438 2.52655 99.1132 2.52655 100.732C2.52655 102.346 3.78615 103.61 5.39711 103.61ZM8.64169 90.868C10.4453 90.868 11.9135 89.4142 11.9135 87.6294C11.9135 85.8379 10.4453 84.3781 8.64169 84.3781C6.83201 84.3781 5.41222 85.8077 5.41222 87.6294C5.41222 89.4444 6.82898 90.868 8.64169 90.868ZM18.3739 82.1165C20.5788 82.1165 22.3734 80.3431 22.3734 78.1594C22.3734 75.9704 20.5788 74.1879 18.3732 74.1879C16.1615 74.1879 14.4304 75.9334 14.4304 78.1594C14.4304 80.3764 16.1623 82.1165 18.3739 82.1165ZM31.863 77.6562C33.6667 77.6562 35.1348 76.2024 35.1348 74.4169C35.1348 72.6261 33.6667 71.1663 31.863 71.1663C30.0534 71.1663 28.6366 72.5959 28.6366 74.4169C28.6366 76.2326 30.0534 77.6562 31.863 77.6562ZM44.7273 81.0337C46.3322 81.0337 47.6371 79.7432 47.6371 78.1564C47.6371 76.5643 46.3322 75.2677 44.728 75.2677C43.1201 75.2677 41.8605 76.5371 41.8605 78.1564C41.8575 79.7704 43.1171 81.0337 44.7273 81.0337ZM54.9 90.1441C56.3054 90.1441 57.4441 89.0167 57.4441 87.6264C57.4441 86.2331 56.3024 85.0989 54.9 85.0989C53.4923 85.0989 52.3899 86.2089 52.3899 87.6264C52.3929 89.0402 53.4931 90.1441 54.9 90.1441ZM57.7713 102.889C58.9727 102.889 59.952 101.921 59.952 100.729C59.952 99.5356 58.9727 98.5646 57.7706 98.5646C56.5654 98.5646 55.6193 99.5167 55.6193 100.729C55.6193 101.938 56.5661 102.889 57.7713 102.889ZM54.3469 115.576C55.3496 115.576 56.1657 114.768 56.1657 113.776C56.1657 112.781 55.3496 111.97 54.3469 111.97C53.3404 111.97 52.5554 112.762 52.5554 113.776C52.552 114.012 52.596 114.247 52.6847 114.466C52.7734 114.686 52.905 114.885 53.0718 115.053C53.2387 115.221 53.4373 115.353 53.6562 115.443C53.875 115.533 54.1096 115.578 54.3461 115.576M44.7371 124.618C45.538 124.618 46.1909 123.973 46.1909 123.18C46.1893 122.796 46.0353 122.428 45.7628 122.157C45.4902 121.886 45.1213 121.735 44.7371 121.735C43.9339 121.735 43.3022 122.369 43.3022 123.18C43.3022 123.985 43.9331 124.618 44.7371 124.618ZM31.8766 128.592C30.8702 128.592 30.0851 127.803 30.0851 126.793C30.0851 125.782 30.8732 124.987 31.8759 124.987C32.3566 124.985 32.8182 125.174 33.1594 125.513C33.5006 125.852 33.6934 126.312 33.6954 126.793C33.6914 127.272 33.4979 127.73 33.1572 128.068C32.8164 128.405 32.3561 128.593 31.8766 128.592Z" fill="#621E9B"/>
</g>
</svg>
