<svg width="200" height="200" viewBox="0 0 200 200" fill="none" xmlns="http://www.w3.org/2000/svg">
<path d="M14.7912 87.2571V93.5585H12.3118C9.17975 93.5585 6.65619 96.0448 6.65619 99.1315C6.65619 102.217 9.17975 104.703 12.3106 104.703H14.7912V111.005C20.4456 109.933 24.6667 105.047 24.6667 99.1303C24.6667 93.2583 20.4468 88.3717 14.7912 87.2571Z" fill="#003791"/>
<path d="M12.3118 106.674C8.09191 106.674 4.65387 103.289 4.65387 99.1315C4.65387 94.9744 8.09075 91.5876 12.3095 91.5876H12.7888V87H12.3106C5.52531 87 0 92.4439 0 99.1303C0 105.861 5.52531 111.305 12.3118 111.305H12.79V106.677H12.3118V106.674ZM42.0675 103.375C41.0707 104.181 39.8267 104.62 38.5445 104.617C35.4555 104.617 32.9762 102.174 32.9762 99.1303C32.9762 96.0878 35.4543 93.6446 38.5445 93.6446C39.889 93.6388 41.1889 94.1265 42.1978 95.0151L44.1559 93.0873C42.6162 91.7011 40.6162 90.9369 38.5445 90.943C33.9325 90.943 30.235 94.63 30.235 99.1303C30.235 103.632 33.9325 107.361 38.5445 107.361C40.676 107.361 42.5899 106.589 44.0256 105.304L42.0675 103.375ZM130.598 91.5864L124.464 98.8732L118.286 91.5864L118.243 91.6725V91.5864H115.763V106.675H118.243V95.6155L124.464 102.902L130.598 95.7877V106.675H133.034V91.5864H130.598ZM62.6015 99.1303C62.6015 103.675 58.8598 107.318 54.292 107.318C49.6812 107.318 45.9837 103.632 45.9837 99.1303C45.9837 94.63 49.7243 90.943 54.292 90.943C58.8598 90.943 62.6015 94.63 62.6015 99.1303ZM59.8173 99.1303C59.8173 96.0878 57.338 93.6446 54.249 93.6446C51.16 93.6446 48.6806 96.0878 48.6806 99.1303C48.6806 102.174 51.16 104.617 54.249 104.617C57.338 104.617 59.8173 102.174 59.8173 99.1303ZM113.24 99.1303C113.24 103.675 109.499 107.318 104.931 107.318C100.319 107.318 96.6213 103.632 96.6213 99.1303C96.6213 94.63 100.363 90.943 104.931 90.943C109.542 90.943 113.24 94.63 113.24 99.1303ZM110.499 99.1303C110.499 96.0878 108.02 93.6446 104.931 93.6446C101.842 93.6446 99.3624 96.0878 99.3624 99.1303C99.3624 102.174 101.842 104.617 104.931 104.617C107.976 104.617 110.499 102.174 110.499 99.1303ZM96.5782 91.5864H93.2275L86.9203 97.9308H84.3537V91.5864H81.9174V106.675H84.3537V100.374H86.8761L93.1844 106.675H96.491L89.0087 99.1734L96.5782 91.5864Z" fill="#FF4B5F"/>
<path d="M199.767 91.5864H196.463L190.111 97.9308H187.544V91.5864H185.108V106.675H187.544V100.374H190.111L196.375 106.675H199.681L192.242 99.1734L199.767 91.5864ZM163.746 106.674H166.446L159.701 91.5864H156.917L150.174 106.675H152.871L154.35 103.418H162.269L163.746 106.674ZM155.439 101.016L158.309 94.6731L161.181 101.016H155.438H155.439Z" fill="#003791"/>
<path d="M78.7853 102.303C78.7854 101.707 78.6617 101.117 78.4219 100.571C78.1822 100.024 77.8317 99.534 77.3927 99.1303C78.2187 98.3159 78.7853 97.2013 78.7853 95.9587C78.7816 94.7964 78.3168 93.6831 77.4928 92.8633C76.6689 92.0435 75.5532 91.5842 74.3909 91.5864H65.4299V106.717H74.3909C76.8272 106.675 78.7853 104.703 78.7853 102.303ZM67.9093 94.0308H74.3479C75.4357 94.0308 76.3048 94.8871 76.3048 95.9587C76.3048 97.0302 75.4357 97.8877 74.3479 97.8877H67.9093V94.0297V94.0308ZM74.3479 104.274H67.9093V100.374H74.3909C75.4788 100.374 76.349 101.273 76.349 102.303C76.3048 103.373 75.4357 104.274 74.3479 104.274Z" fill="#FF4B5F"/>
<path d="M179.582 91.6294V97.9308H170.664V91.6294H168.185V106.632H170.664V100.373H179.582V106.632H182.063V91.6294H179.582ZM149.304 102.303C149.304 99.9017 147.303 97.9308 144.867 97.9308H138.428V94.0297H147.825V91.5864H135.949V106.717H144.867C147.303 106.675 149.304 104.703 149.304 102.303ZM144.867 104.274H138.428V100.374H144.867C145.955 100.374 146.825 101.273 146.825 102.303C146.825 103.373 145.955 104.274 144.867 104.274Z" fill="#003791"/>
</svg>
