<svg width="200" height="200" viewBox="0 0 200 200" fill="none" xmlns="http://www.w3.org/2000/svg">
<path d="M31.2142 63.2148H1.78564V92.2863H31.2142V63.2148Z" fill="#FF3495"/>
<path d="M116.321 142.358H196.286V171.429H116.321V142.358ZM152.357 76.0723C161.429 76.0723 168.786 83.3223 168.786 92.2866C168.786 101.251 161.429 108.501 152.357 108.501H116.321V137.572H152.357C171.857 137.572 188.536 125.501 195.179 108.501C197.143 103.465 198.214 98.0008 198.214 92.2866C198.214 67.3223 177.643 47.0366 152.357 47.0366C127.071 47.0366 106.5 67.3223 106.5 92.2866H135.929C135.929 83.3223 143.286 76.0723 152.357 76.0723ZM65.5714 142.358H111.429V171.429H82C56.6785 171.429 36.1428 151.179 36.1428 126.179V28.5723H65.5714V63.2151H99.8928V92.2866H65.5714V142.394V142.358Z" fill="white"/>
<path d="M116.321 142.358H196.286V171.429H116.321V142.358ZM152.357 76.0723C161.429 76.0723 168.786 83.3223 168.786 92.2866C168.786 101.251 161.429 108.501 152.357 108.501H116.321V137.572H152.357C171.857 137.572 188.536 125.501 195.179 108.501C197.143 103.465 198.214 98.0008 198.214 92.2866C198.214 67.3223 177.643 47.0366 152.357 47.0366C127.071 47.0366 106.5 67.3223 106.5 92.2866H135.929C135.929 83.3223 143.286 76.0723 152.357 76.0723ZM65.5714 142.358H111.429V171.429H82C56.6785 171.429 36.1428 151.179 36.1428 126.179V28.5723H65.5714V63.2151H99.8928V92.2866H65.5714V142.394V142.358Z" fill="black"/>
</svg>
