<svg width="200" height="200" viewBox="0 0 200 200" fill="none" xmlns="http://www.w3.org/2000/svg">
<mask id="mask0_76_6" style="mask-type:luminance" maskUnits="userSpaceOnUse" x="45" y="15" width="111" height="170">
<path d="M155.25 15H45V185H155.25V15Z" fill="white"/>
</mask>
<g mask="url(#mask0_76_6)">
<mask id="mask1_76_6" style="mask-type:luminance" maskUnits="userSpaceOnUse" x="45" y="15" width="111" height="171">
<path d="M155.25 15H45V185.009H155.25V15Z" fill="white"/>
</mask>
<g mask="url(#mask1_76_6)">
<path fill-rule="evenodd" clip-rule="evenodd" d="M147.651 86.4457L144.608 66.7247L147.651 47.0122L148.374 47.1142L145.305 66.7247L148.331 86.3267L147.651 86.4457Z" fill="#1D3353"/>
<path fill-rule="evenodd" clip-rule="evenodd" d="M120.492 114.403L119.914 113.978L131.704 97.8872H131.747L147.796 86.1226L148.229 86.7091L132.223 98.4057L120.492 114.403Z" fill="#1D3353"/>
<path fill-rule="evenodd" clip-rule="evenodd" d="M120.152 114.548L100.542 111.53L80.9398 114.548L80.8293 113.834L100.542 110.791L120.254 113.834L120.152 114.548Z" fill="#1D3353"/>
<path fill-rule="evenodd" clip-rule="evenodd" d="M80.5828 114.404L68.8692 98.4063L52.8629 86.6842L53.2879 86.0977L69.3793 97.8878L81.1269 113.937L80.5828 114.404Z" fill="#1D3353"/>
<path fill-rule="evenodd" clip-rule="evenodd" d="M53.4324 86.4457L52.7183 86.3267L55.7445 66.7247L52.7183 47.1142L53.4324 47.0122L56.4756 66.7247L53.4324 86.4457Z" fill="#1D3353"/>
<path fill-rule="evenodd" clip-rule="evenodd" d="M53.2879 47.3525L52.8629 46.7745L68.8692 35.0439L80.5828 19.0376L81.1779 19.4796L69.3793 35.5624L53.2879 47.3525Z" fill="#1D3353"/>
<path fill-rule="evenodd" clip-rule="evenodd" d="M100.542 22.6501L80.8293 19.6239L80.9398 18.9014L100.542 21.9275L120.152 18.9014L120.254 19.6239L100.542 22.6501Z" fill="#1D3353"/>
<path fill-rule="evenodd" clip-rule="evenodd" d="M147.804 47.3525L131.704 35.5624L119.914 19.4796L120.492 19.0376L132.223 35.0439L148.229 46.7745L147.804 47.3525Z" fill="#1D3353"/>
<path fill-rule="evenodd" clip-rule="evenodd" d="M100.542 118.459C90.3093 118.46 80.3063 115.427 71.7976 109.743C63.289 104.06 56.6568 95.9812 52.7399 86.5283C48.8231 77.0753 47.7974 66.6732 49.7925 56.6373C51.7877 46.6014 56.7142 37.3826 63.9489 30.1467C71.1837 22.9107 80.4017 17.9827 90.4373 15.9859C100.473 13.9891 110.875 15.0131 120.329 18.9284C129.782 22.8437 137.863 29.4746 143.547 37.9823C149.232 46.49 152.267 56.4925 152.267 66.7248C152.251 80.4391 146.797 93.5874 137.1 103.285C127.403 112.984 114.256 118.441 100.542 118.459ZM100.542 15.7308C90.4543 15.7308 80.5934 18.722 72.2061 24.3262C63.8188 29.9305 57.2817 37.896 53.4214 47.2155C49.5611 56.535 48.5511 66.7899 50.5191 76.6834C52.487 86.577 57.3445 95.6648 64.4773 102.797C71.6102 109.93 80.698 114.788 90.5915 116.756C100.485 118.724 110.74 117.714 120.059 113.853C129.379 109.993 137.345 103.456 142.949 95.0688C148.553 86.6814 151.544 76.8207 151.544 66.7333C151.531 53.2107 146.153 40.2459 136.591 30.684C127.029 21.1221 114.064 15.7443 100.542 15.7308Z" fill="#1D3353"/>
<path d="M131.704 79.4756L113.284 97.845L113.794 98.3635L132.197 79.9941L131.704 79.4756Z" fill="#1D3353"/>
<path d="M123.935 45.2188L123.417 45.7373L131.662 53.9823L132.18 53.4722L123.935 45.2188Z" fill="#1D3353"/>
<path d="M113.794 35.0864L113.284 35.6049L121.529 43.8499L122.047 43.3314L113.794 35.0864Z" fill="#1D3353"/>
<path d="M87.2726 35.0693L68.9032 53.4728L69.4217 53.9829L87.7826 35.5794L87.2726 35.0693Z" fill="#1D3353"/>
<path d="M69.4132 79.4756L68.9032 79.9856L87.2811 98.372L87.7996 97.8535L69.4132 79.4756Z" fill="#1D3353"/>
<path d="M113.547 34.9756H87.5446V35.6981H113.547V34.9756Z" fill="#1D3353"/>
<path d="M113.547 97.7515H87.5446V98.4825H113.547V97.7515Z" fill="#1D3353"/>
<path d="M151.901 66.3677H49.1737V67.0903H151.901V66.3677Z" fill="#1D3353"/>
<path d="M100.907 15.3652H100.176V118.093H100.907V15.3652Z" fill="#1D3353"/>
<path d="M64.4829 30.1558L63.9644 30.6658L136.609 103.31L137.119 102.8L64.4829 30.1558Z" fill="#1D3353"/>
<path d="M53.22 46.7407L52.9395 47.4122L147.855 86.7352L148.127 86.0637L53.22 46.7407Z" fill="#1D3353"/>
<path d="M119.973 19.165L80.4383 114.021L81.1098 114.293L120.653 19.4456L119.973 19.165Z" fill="#1D3353"/>
<path d="M81.2118 19.1226L80.5403 19.4031L119.863 114.336L120.534 114.064L81.2118 19.1226Z" fill="#1D3353"/>
<path d="M147.906 46.7998L52.9139 85.9868L53.1859 86.6583L148.187 47.4714L147.906 46.7998Z" fill="#1D3353"/>
<path fill-rule="evenodd" clip-rule="evenodd" d="M120.466 46.8085L121.503 43.3065L125.005 42.2695L123.96 45.763L120.449 46.8085H120.466ZM122.081 43.8845L121.546 45.7375L123.39 45.185L123.943 43.3405L122.09 43.8845H122.081Z" fill="#1D3353"/>
<path d="M132.291 53.7275H131.568V79.7218H132.291V53.7275Z" fill="#1D3353"/>
<path d="M69.5237 53.7275H68.8012V79.7218H69.5237V53.7275Z" fill="#1D3353"/>
<path d="M118.622 74.0693L113.25 79.4413L113.76 79.9598L119.132 74.5878L118.622 74.0693Z" fill="#1D3353"/>
<path d="M108.388 48.1519L107.878 48.6704L113.241 54.0339L113.76 53.5239L108.388 48.1519Z" fill="#1D3353"/>
<path d="M87.3149 53.498L81.9514 58.87L82.4614 59.3885L87.8249 54.0165L87.3149 53.498Z" fill="#1D3353"/>
<path d="M87.8336 79.4331L87.3151 79.9431L92.6871 85.3151L93.1971 84.7966L87.8336 79.4331Z" fill="#1D3353"/>
<path d="M100.542 48.0239H92.9509V48.7464H100.542V48.0239Z" fill="#1D3353"/>
<path d="M108.132 84.7031H100.542V85.4256H108.132V84.7031Z" fill="#1D3353"/>
<path d="M119.251 59.1338H118.52V66.7243H119.251V59.1338Z" fill="#1D3353"/>
<path d="M82.5719 66.7251H81.8409V74.3241H82.5719V66.7251Z" fill="#1D3353"/>
<path d="M120.594 45.8647L64.1174 102.937L64.636 103.447L121.113 46.3748L120.594 45.8647Z" fill="#1D3353"/>
<path d="M136.609 30.1558L124.216 42.5403L124.734 43.0588L137.127 30.6658L136.609 30.1558Z" fill="#1D3353"/>
<path fill-rule="evenodd" clip-rule="evenodd" d="M100.253 66.8525C98.4287 62.3985 97.9607 57.5048 98.9079 52.7859C99.855 48.0669 102.175 43.733 105.576 40.3278C108.978 36.9226 113.309 34.5981 118.028 33.6459C122.745 32.6938 127.64 33.1564 132.095 34.9758L131.815 35.6473C128.214 34.1683 124.304 33.5985 120.431 33.9881C116.557 34.3777 112.839 35.7148 109.605 37.8813C106.371 40.0479 103.72 42.9773 101.885 46.411C100.051 49.8446 99.0907 53.6771 99.0883 57.5699C99.0866 60.6689 99.6901 63.7383 100.865 66.6059L100.202 66.8865L100.253 66.8525Z" fill="#1D3353"/>
<path fill-rule="evenodd" clip-rule="evenodd" d="M78.3046 100.319C75.0967 100.335 71.9178 99.7104 68.9542 98.4823L69.2347 97.8193C72.8353 99.2965 76.744 99.8649 80.6162 99.4745C84.4883 99.084 88.2049 97.7466 91.438 95.5802C94.6712 93.4139 97.3215 90.4853 99.1553 87.0525C100.989 83.6198 101.95 79.7885 101.953 75.8967C101.98 72.8 101.403 69.7277 100.253 66.8523L100.916 66.5718C102.44 70.2817 103.029 74.3099 102.629 78.301C102.229 82.2921 100.852 86.1234 98.621 89.4567C96.3899 92.7899 93.3725 95.5229 89.8353 97.4142C86.2981 99.3054 82.3497 100.297 78.3386 100.302L78.3046 100.319Z" fill="#1D3353"/>
<path fill-rule="evenodd" clip-rule="evenodd" d="M132.291 98.3038L131.628 98.0233C133.415 93.6961 133.881 88.9364 132.966 84.3448C132.05 79.7534 129.794 75.5361 126.484 72.2255C123.174 68.9149 118.956 66.6596 114.364 65.744C109.773 64.8286 105.013 65.294 100.686 67.0817L100.406 66.4102C104.865 64.5711 109.77 64.0941 114.501 65.0393C119.231 65.9845 123.577 68.3096 126.987 71.7212C130.398 75.1328 132.722 79.4781 133.665 84.2091C134.61 88.9399 134.131 93.8444 132.291 98.3038Z" fill="#1D3353"/>
<path fill-rule="evenodd" clip-rule="evenodd" d="M91.3783 68.901C87.3657 68.9008 83.4149 67.9119 79.8754 66.0217C76.336 64.1316 73.3167 61.3983 71.0847 58.0638C68.8526 54.7292 67.4767 50.8961 67.0784 46.9033C66.6801 42.9105 67.2718 38.8811 68.8012 35.1714L69.4642 35.4519C68.2765 38.3129 67.6697 41.3816 67.6791 44.4793C67.6808 48.3712 68.641 52.2028 70.4748 55.6355C72.3085 59.0683 74.9595 61.9966 78.1935 64.1618C81.4274 66.327 85.1449 67.6625 89.0174 68.0502C92.8899 68.4379 96.7983 67.866 100.397 66.3849L100.678 67.0649C97.7113 68.2833 94.5343 68.9071 91.3273 68.901H91.3783Z" fill="#1D3353"/>
<path fill-rule="evenodd" clip-rule="evenodd" d="M100.873 66.8527L100.21 66.5721C101.753 62.8678 104.184 59.6006 107.29 57.0594C110.395 54.5182 114.079 52.7813 118.014 52.0023C121.95 51.2232 126.019 51.4261 129.857 52.593C133.697 53.7598 137.189 55.8546 140.027 58.6923C142.283 60.9522 144.077 63.632 145.305 66.5806L144.625 66.8612C142.821 62.5463 139.781 58.8613 135.888 56.2694C131.994 53.6776 127.422 52.2947 122.745 52.2947C118.068 52.2947 113.496 53.6776 109.603 56.2694C105.709 58.8613 102.669 62.5463 100.865 66.8612L100.873 66.8527Z" fill="#1D3353"/>
<path fill-rule="evenodd" clip-rule="evenodd" d="M78.3302 81.881C73.5068 81.885 68.7904 80.4594 64.7766 77.7846C60.7629 75.1098 57.6317 71.3055 55.7786 66.8523L56.4501 66.5718C57.6292 69.4332 59.3625 72.0332 61.5504 74.2221C64.3065 76.9708 67.6966 78.999 71.4217 80.1281C75.1468 81.2571 79.0925 81.4523 82.9109 80.6964C86.7292 79.9404 90.303 78.2566 93.3168 75.7933C96.3308 73.3301 98.6923 70.1632 100.193 66.5718L100.856 66.8523C99.0049 71.3015 95.8777 75.103 91.8689 77.7775C87.8602 80.452 83.1493 81.8799 78.3302 81.881Z" fill="#1D3353"/>
<path fill-rule="evenodd" clip-rule="evenodd" d="M100.686 111.497L100.406 110.834C103.27 109.661 105.871 107.927 108.056 105.734C110.807 102.98 112.837 99.5901 113.967 95.8651C115.098 92.1402 115.293 88.1942 114.538 84.3757C113.781 80.557 112.096 76.9835 109.632 73.9704C107.167 70.9573 103.998 68.5974 100.406 67.0993L100.686 66.4277C105.136 68.2857 108.936 71.4182 111.609 75.431C114.282 79.4439 115.708 84.1577 115.708 88.9794C115.708 93.8011 114.282 98.5149 111.609 102.528C108.936 106.541 105.136 109.673 100.686 111.531V111.497Z" fill="#1D3353"/>
<path fill-rule="evenodd" clip-rule="evenodd" d="M100.406 67.0651C95.9545 65.2068 92.1524 62.0731 89.4782 58.0588C86.8039 54.0444 85.377 49.3286 85.377 44.5049C85.377 39.6813 86.8039 34.9655 89.4782 30.9512C92.1524 26.9367 95.9545 23.8032 100.406 21.9448L100.686 22.6164C97.8232 23.7924 95.2226 25.5261 93.0359 27.7166C90.2873 30.4728 88.259 33.8628 87.1299 37.588C86.0008 41.3131 85.8057 45.2588 86.5617 49.0772C87.3176 52.8954 89.0014 56.4692 91.4646 59.4831C93.9278 62.497 97.0949 64.8586 100.686 66.3595L100.406 67.0226V67.0651Z" fill="#1D3353"/>
<path fill-rule="evenodd" clip-rule="evenodd" d="M86.6946 184.735C86.6946 184.735 89.3211 184.999 90.8936 184.999C92.2997 185.107 93.7019 184.746 94.8801 183.97C95.4335 183.584 95.8848 183.068 96.1957 182.468C96.5066 181.869 96.6676 181.203 96.6651 180.528C96.6651 179.151 96.1891 176.856 92.5001 175.989C89.6356 175.326 88.7431 174.824 88.2501 173.855C88.0437 173.389 87.9934 172.868 88.1067 172.37C88.22 171.872 88.4909 171.424 88.8791 171.093C89.5421 170.625 90.0351 170.183 91.9646 170.319L95.2796 172.019L95.8916 170.124C94.7065 169.944 93.5114 169.836 92.3131 169.801C87.2726 169.639 86.6691 172.538 86.6691 173.753C86.6691 175.853 88.1056 177.417 91.1656 178.003C94.6421 178.913 95.0926 180.477 95.0586 181.607C95.0704 182.245 94.8621 182.866 94.4688 183.369C94.0755 183.87 93.5213 184.22 92.8996 184.361C92.1644 184.513 91.41 184.547 90.6641 184.463L87.3321 182.763L86.6691 184.761L86.6946 184.735Z" fill="#264369"/>
<path fill-rule="evenodd" clip-rule="evenodd" d="M45 170.031V172.13L48.1875 170.558H50.253V183.58L49.199 184.736H53.449L52.395 183.58V170.558H54.435L57.597 172.139V170.039L45 170.031Z" fill="#264369"/>
<path fill-rule="evenodd" clip-rule="evenodd" d="M70.7306 171.96L73.5016 178.429H67.9511L70.7306 171.96ZM64.6616 184.71H66.8971L66.0896 182.806L67.7471 178.939H73.7396L75.7286 183.554L75.1761 184.71H78.5081L72.2011 170.031H70.9771L64.6871 184.727L64.6616 184.71Z" fill="#264369"/>
<path fill-rule="evenodd" clip-rule="evenodd" d="M129.154 170.031L130.208 171.187V183.571L129.154 184.727H133.353L132.308 183.571V171.187L133.353 170.031H129.154Z" fill="#264369"/>
<path fill-rule="evenodd" clip-rule="evenodd" d="M115.145 170.031L116.191 171.187V176.856H108.838V171.187L109.892 170.031H105.693L106.739 171.187V183.571L105.693 184.727H109.892L108.838 183.571V177.358H116.191V183.546L115.145 184.702H119.344L118.29 183.546V171.187L119.344 170.031H115.145Z" fill="#264369"/>
<path fill-rule="evenodd" clip-rule="evenodd" d="M146.368 177.902V170.558H148.204C148.669 170.574 149.127 170.683 149.55 170.876C149.973 171.071 150.354 171.347 150.67 171.689C150.986 172.032 151.232 172.433 151.392 172.871C151.552 173.308 151.624 173.773 151.604 174.238C151.604 176.406 150.346 177.902 148.459 177.902H146.351H146.368ZM155.25 184.702L153.958 183.546L151.094 177.919C151.604 177.709 152.08 177.422 152.505 177.069C152.951 176.69 153.302 176.21 153.528 175.67C153.754 175.129 153.849 174.542 153.805 173.958C153.78 173.262 153.565 172.585 153.185 172.001C152.805 171.417 152.273 170.948 151.646 170.643C150.312 170.127 148.881 169.915 147.456 170.022H143.257L144.302 171.178V183.563L143.257 184.719H147.456L146.402 183.563V178.412H147.762C148.034 178.412 148.442 178.412 148.909 178.412L152.19 184.736L155.25 184.702Z" fill="#264369"/>
</g>
</g>
</svg>
