<svg width="200" height="200" viewBox="0 0 200 200" fill="none" xmlns="http://www.w3.org/2000/svg">
<g clip-path="url(#clip0_6463_808)">
<path fill-rule="evenodd" clip-rule="evenodd" d="M155.755 84.0472L152.175 60.8541L155.755 37.6611L156.611 37.7833L153.042 60.8541L156.598 83.9127L155.755 84.0472Z" fill="#1D3353"/>
<path fill-rule="evenodd" clip-rule="evenodd" d="M123.813 116.943L123.129 116.442L136.998 97.5133L137.047 97.4766L155.926 83.6439L156.439 84.3282L137.609 98.1243L123.813 116.943Z" fill="#1D3353"/>
<path fill-rule="evenodd" clip-rule="evenodd" d="M123.41 117.114L100.339 113.558L77.2802 117.114L77.1458 116.271L100.339 112.69L123.532 116.271L123.41 117.114Z" fill="#1D3353"/>
<path fill-rule="evenodd" clip-rule="evenodd" d="M76.8647 116.943L63.0809 98.1243L44.2503 84.3282L44.7513 83.6439L63.6797 97.5133L63.7286 97.5622L77.549 116.442L76.8647 116.943Z" fill="#1D3353"/>
<path fill-rule="evenodd" clip-rule="evenodd" d="M44.9224 84.0472L44.0793 83.9127L47.6352 60.8541L44.0793 37.7833L44.9224 37.6611L48.5028 60.8541L44.9224 84.0472Z" fill="#1D3353"/>
<path fill-rule="evenodd" clip-rule="evenodd" d="M44.7513 38.0644L44.2503 37.3801L63.0809 23.584L76.8647 4.75346L77.5613 5.26669L63.6797 24.195L44.7513 38.0644Z" fill="#1D3353"/>
<path fill-rule="evenodd" clip-rule="evenodd" d="M100.339 9.00592L77.1458 5.43776L77.2802 4.5946L100.339 8.15054L123.41 4.5946L123.532 5.43776L100.339 9.00592Z" fill="#1D3353"/>
<path fill-rule="evenodd" clip-rule="evenodd" d="M155.938 38.0644L136.998 24.195L123.129 5.26669L123.813 4.75346L137.609 23.584L156.439 37.3801L155.938 38.0644Z" fill="#1D3353"/>
<path fill-rule="evenodd" clip-rule="evenodd" d="M100.339 121.708C66.7835 121.708 39.4846 94.4095 39.4846 60.8542C39.4846 27.2988 66.7835 0 100.339 0C133.894 0 161.193 27.2988 161.193 60.8542C161.193 94.4095 133.906 121.708 100.339 121.708ZM100.339 0.85538C67.26 0.85538 40.34 27.7632 40.34 60.8542C40.34 93.9451 67.26 120.853 100.339 120.853C133.418 120.853 160.338 93.9329 160.338 60.8542C160.338 27.7754 133.418 0.85538 100.339 0.85538Z" fill="#1D3353"/>
<path d="M136.977 75.8538L115.331 97.4625L115.935 98.0678L137.582 76.4592L136.977 75.8538Z" fill="#1D3353"/>
<path d="M127.855 35.5543L127.25 36.1592L136.954 45.8626L137.558 45.2578L127.855 35.5543Z" fill="#1D3353"/>
<path d="M115.934 23.6315L115.329 24.2363L125.032 33.9398L125.637 33.3349L115.934 23.6315Z" fill="#1D3353"/>
<path d="M84.7274 23.6092L63.1225 45.2594L63.728 45.8636L85.3328 24.2135L84.7274 23.6092Z" fill="#1D3353"/>
<path d="M63.7218 75.8467L63.117 76.4515L84.7445 98.0791L85.3493 97.4742L63.7218 75.8467Z" fill="#1D3353"/>
<path d="M115.638 23.4985H85.0519V24.3539H115.638V23.4985Z" fill="#1D3353"/>
<path d="M115.638 97.3544H85.0519V98.2098H115.638V97.3544Z" fill="#1D3353"/>
<path d="M160.765 60.4265H39.9123V61.2818H160.765V60.4265Z" fill="#1D3353"/>
<path d="M100.766 0.427689H99.9111V121.281H100.766V0.427689Z" fill="#1D3353"/>
<path d="M57.9168 17.8298L57.312 18.4346L142.768 103.891L143.373 103.286L57.9168 17.8298Z" fill="#1D3353"/>
<path d="M44.666 37.3397L44.3386 38.1299L156.026 84.3924L156.353 83.6021L44.666 37.3397Z" fill="#1D3353"/>
<path d="M123.204 4.90349L76.6885 116.486L77.478 116.815L123.994 5.23262L123.204 4.90349Z" fill="#1D3353"/>
<path d="M77.6019 4.8489L76.8117 5.17624L123.074 116.864L123.864 116.536L77.6019 4.8489Z" fill="#1D3353"/>
<path d="M156.059 37.4065L44.3075 83.513L44.6337 84.3037L156.386 38.1972L156.059 37.4065Z" fill="#1D3353"/>
<path fill-rule="evenodd" clip-rule="evenodd" d="M123.776 37.4168L124.998 33.2987L129.116 32.0768L127.894 36.1948L123.764 37.4168H123.776ZM125.682 33.983L125.047 36.1581L127.222 35.5105L127.87 33.3354L125.695 33.983H125.682Z" fill="#1D3353"/>
<path d="M137.694 45.5551H136.839V76.141H137.694V45.5551Z" fill="#1D3353"/>
<path d="M63.8507 45.5551H62.9954V76.141H63.8507V45.5551Z" fill="#1D3353"/>
<path d="M121.605 69.4944L115.288 75.8107L115.893 76.4156L122.209 70.0993L121.605 69.4944Z" fill="#1D3353"/>
<path d="M109.573 38.9723L108.968 39.5771L115.284 45.8934L115.889 45.2886L109.573 38.9723Z" fill="#1D3353"/>
<path d="M84.7771 45.292L78.4674 51.615L79.0729 52.2192L85.3826 45.8963L84.7771 45.292Z" fill="#1D3353"/>
<path d="M85.3882 75.7974L84.7834 76.4023L91.0997 82.7186L91.7045 82.1137L85.3882 75.7974Z" fill="#1D3353"/>
<path d="M100.339 38.8465H91.4062V39.7018H100.339V38.8465Z" fill="#1D3353"/>
<path d="M109.271 82.0065H100.339V82.8618H109.271V82.0065Z" fill="#1D3353"/>
<path d="M122.347 51.9215H121.491V60.8541H122.347V51.9215Z" fill="#1D3353"/>
<path d="M79.1987 60.8542H78.3433V69.7868H79.1987V60.8542Z" fill="#1D3353"/>
<path d="M123.934 36.3064L57.4928 103.447L58.1008 104.049L124.542 36.9081L123.934 36.3064Z" fill="#1D3353"/>
<path d="M142.77 17.8252L128.193 32.402L128.798 33.0068L143.375 18.4301L142.77 17.8252Z" fill="#1D3353"/>
<path fill-rule="evenodd" clip-rule="evenodd" d="M99.9478 61.013C98.5181 57.5426 97.7849 53.8523 97.7849 50.0641C97.7849 34.2274 110.677 21.3356 126.513 21.3356C130.314 21.3356 134.004 22.0566 137.462 23.4985L137.132 24.2928C133.772 22.8997 130.192 22.2032 126.501 22.2032C111.129 22.2032 98.628 34.704 98.628 50.0764C98.628 53.7545 99.3368 57.3349 100.718 60.7075L99.9355 61.0374L99.9478 61.013Z" fill="#1D3353"/>
<path fill-rule="evenodd" clip-rule="evenodd" d="M74.1764 100.373C70.3761 100.373 66.6857 99.6517 63.2275 98.2098L63.5575 97.4278C66.9179 98.8208 70.4983 99.5173 74.1764 99.5173C89.5488 99.5173 102.05 87.0166 102.05 71.6442C102.05 67.966 101.341 64.3856 99.96 61.013L100.742 60.6831C102.172 64.1535 102.905 67.8438 102.905 71.6319C102.905 87.4687 90.0254 100.36 74.1764 100.36V100.373Z" fill="#1D3353"/>
<path fill-rule="evenodd" clip-rule="evenodd" d="M137.694 97.9776L136.912 97.6477C138.305 94.2873 139.002 90.7069 139.002 87.0166C139.002 71.6442 126.501 59.1434 111.129 59.1434C107.451 59.1434 103.87 59.8521 100.51 61.2452L100.18 60.4631C103.65 59.0334 107.341 58.3002 111.129 58.3002C126.966 58.3002 139.857 71.192 139.857 87.0288C139.857 90.8291 139.124 94.5195 137.694 97.9776Z" fill="#1D3353"/>
<path fill-rule="evenodd" clip-rule="evenodd" d="M89.561 63.4081C73.7243 63.4081 60.8325 50.5163 60.8325 34.6795C60.8325 30.8792 61.5657 27.1889 62.9954 23.7307L63.7774 24.0606C62.3844 27.421 61.6756 31.0014 61.6756 34.6795C61.6756 50.0519 74.1764 62.5527 89.5488 62.5527C93.2269 62.5527 96.8073 61.844 100.168 60.4509L100.498 61.2452C97.0273 62.6749 93.3369 63.4081 89.5488 63.4081H89.561Z" fill="#1D3353"/>
<path fill-rule="evenodd" clip-rule="evenodd" d="M100.73 61.013L99.9478 60.6831C101.39 57.2127 103.479 54.0967 106.168 51.4083C111.593 45.9828 118.803 42.989 126.477 42.989C134.151 42.989 141.36 45.9828 146.786 51.4083C149.474 54.0967 151.564 57.2127 153.006 60.6831L152.211 61.013C150.818 57.6526 148.79 54.6221 146.187 52.0193C140.92 46.7526 133.919 43.8566 126.477 43.8566C119.035 43.8566 112.033 46.7526 106.766 52.0193C104.164 54.6221 102.135 57.6526 100.73 61.013Z" fill="#1D3353"/>
<path fill-rule="evenodd" clip-rule="evenodd" d="M74.2131 78.6827C66.8568 78.6827 59.5005 75.8844 53.9039 70.2878C51.2156 67.5994 49.126 64.4834 47.6841 61.013L48.4661 60.6831C49.8592 64.0435 51.8876 67.074 54.5027 69.6768C65.366 80.5401 83.0479 80.5401 93.9235 69.6768C96.5263 67.074 98.5547 64.0435 99.96 60.6831L100.742 61.013C99.3001 64.4834 97.2106 67.5994 94.5222 70.2878C88.9256 75.8844 81.5693 78.6827 74.2131 78.6827Z" fill="#1D3353"/>
<path fill-rule="evenodd" clip-rule="evenodd" d="M100.51 113.521L100.18 112.739C103.54 111.346 106.571 109.318 109.174 106.703C114.44 101.436 117.336 94.4339 117.336 86.9921C117.336 79.5503 114.44 72.5484 109.174 67.2817C106.571 64.6789 103.54 62.6505 100.18 61.2452L100.51 60.4631C103.98 61.9051 107.096 63.9946 109.785 66.683C115.21 72.1085 118.204 79.3182 118.204 86.9921C118.204 94.6661 115.222 101.888 109.785 107.301C107.109 109.99 103.98 112.079 100.522 113.521H100.51Z" fill="#1D3353"/>
<path fill-rule="evenodd" clip-rule="evenodd" d="M100.18 61.2452C96.7095 59.8033 93.5935 57.7137 90.9052 55.0254C79.6997 43.8199 79.6997 25.6003 90.9052 14.3948C93.5935 11.7065 96.7095 9.61691 100.18 8.17499L100.51 8.95705C97.1494 10.3501 94.119 12.3786 91.5162 14.9936C80.6528 25.8569 80.6528 43.5388 91.5162 54.4144C94.119 57.0172 97.1494 59.0456 100.51 60.4509L100.18 61.233V61.2452Z" fill="#1D3353"/>
<path fill-rule="evenodd" clip-rule="evenodd" d="M84.0499 199.682C84.0499 199.682 87.1415 199.988 88.9867 199.988C90.8319 199.988 92.2249 199.792 93.6791 198.778C95.2798 197.666 95.7809 195.967 95.7809 194.733C95.7809 193.108 95.2187 190.408 90.8807 189.393C87.5081 188.611 86.4572 188.025 85.9073 186.876C85.3941 185.801 85.7607 184.261 86.6527 183.626C87.4348 183.076 88.0091 182.562 90.282 182.721L94.1801 184.676L94.901 182.452C93.8746 182.294 92.6893 182.147 90.6852 182.074C84.7587 181.878 84.0499 185.287 84.0499 186.717C84.0499 189.186 85.7362 191.031 89.3411 191.739C93.4347 192.815 93.9601 194.648 93.9235 195.98C93.8746 197.409 93.0314 198.912 91.3818 199.218C90.4653 199.389 89.9765 199.426 88.7545 199.34L84.832 197.348L84.0499 199.695V199.682Z" fill="#264369"/>
<path fill-rule="evenodd" clip-rule="evenodd" d="M35 182.379V184.848L38.7515 182.99H41.1832V198.314L39.9368 199.67H44.8857L43.6516 198.314V182.99H46.0955L49.8225 184.848V182.379H35Z" fill="#264369"/>
<path fill-rule="evenodd" clip-rule="evenodd" d="M65.2682 184.652L68.5309 192.265H62.0056L65.2682 184.652ZM58.1319 199.67H60.7591L59.806 197.434L61.7612 192.876H68.8119L71.1459 198.314L70.4983 199.67H74.4208L67.0156 182.379H65.5615L58.1564 199.67H58.1319Z" fill="#264369"/>
<path fill-rule="evenodd" clip-rule="evenodd" d="M134.004 182.379L135.238 183.736V198.314L134.004 199.67H138.941L137.707 198.314V183.736L138.941 182.379H134.004Z" fill="#264369"/>
<path fill-rule="evenodd" clip-rule="evenodd" d="M117.52 182.379L118.754 183.736V190.408H110.102V183.736L111.337 182.379H106.4L107.634 183.736V198.314L106.4 199.67H111.337L110.102 198.314V191.031H118.754V198.314L117.52 199.67H122.456L121.222 198.314V183.736L122.456 182.379H117.52Z" fill="#264369"/>
<path fill-rule="evenodd" clip-rule="evenodd" d="M154.252 191.642V182.99H156.415C158.847 182.99 160.435 185.104 160.435 187.316C160.435 189.87 158.945 191.63 156.733 191.63H154.264L154.252 191.642ZM164.7 199.67L163.185 198.314L159.812 191.691C160.521 191.422 160.912 191.092 161.474 190.676C162.366 190.004 163.038 188.611 162.965 187.01C162.879 185.287 161.877 183.797 160.423 183.112C158.969 182.416 157.332 182.379 155.486 182.379H150.55L151.784 183.736V198.314L150.55 199.67H155.486L154.252 198.314V192.253H155.853C156.171 192.253 156.647 192.253 157.197 192.228L161.059 199.67H164.7Z" fill="#264369"/>
</g>
<defs>
<clipPath id="clip0_6463_808">
<rect width="129.7" height="200" fill="white" transform="translate(35)"/>
</clipPath>
</defs>
</svg>
