<svg width="200" height="200" viewBox="0 0 200 200" fill="none" xmlns="http://www.w3.org/2000/svg">
<g clip-path="url(#clip0_6596_876)">
<path d="M110.1 100L102.5 81.7H101L93.5 100H96.2L95.2 97.6L97.2 92.8H104.4L106.8 98.5L106.1 99.9L110.1 100ZM97.5 92.2L100.8 84.2L104.1 92.2H97.5Z" fill="#240D5F"/>
<path d="M171 100H176L174.8 98.5V83.1L176 81.7H172.7L172.3 82.5L163.4 97.2V83.1L164.7 81.7H159.7L160.9 83.1V98.5V100H162.5L163.4 98.5L172.3 83.9V98.5L171 100Z" fill="#240D5F"/>
<path d="M84.6 81.7H69.5V84.3L73.3 82.4H75.8V98.6L74.6 100H79.6L78.3 98.6V82.4H80.8L84.6 84.3V81.7Z" fill="#240D5F"/>
<path d="M196.8 91.6C197.5 91.3 197.9 91 198.5 90.5C199.4 89.8 200.1 88.3 200 86.6C199.9 84.8 198.9 83.2 197.4 82.5C195.9 81.8 194.3 81.7 192.4 81.7H187.4L188.7 83.1V98.5L187.4 99.9H192.4L191.1 98.5V92.1H192.7C193 92.1 192.9 92.1 194.1 92.1C195.3 92.1 196.8 91.6 196.8 91.6ZM191.1 91.5V82.4H193.3C195.8 82.4 197.4 84.6 197.4 87C197.4 89.7 195.9 91.6 193.6 91.6H191.1V91.5Z" fill="#240D5F"/>
<path d="M124.7 83.1L125.9 81.7H120.9L122.2 83.1V98.5L120.9 100H124.1H125.9H132.2H137.3H143.6H145.8H148.6L147.4 98.5V83.1L148.6 81.7H143.6L144.8 83.1V98.5L144.1 99.2999H136.7L136 98.5V83.1L137.3 81.7H132.2L133.5 83.1V98.5L132.8 99.2999H125.4L124.7 98.5V83.1Z" fill="#240D5F"/>
<path d="M182.4 109.8C182.2 109.4 181.9 108.6 181.1 108.6C180.3 108.6 180 109.4 179.8 109.8L176 119.2H177.3L178.5 116.3H183.8L185 119.2H186.3L182.4 109.8ZM179 115.2L181 110.2C181 110.1 181.1 109.9 181.2 109.8C181.3 109.8 181.4 110.1 181.4 110.2L183.4 115.2H179Z" fill="#240D5F"/>
<path d="M93.4 108.6C93.2 108.5 92.9 108.6 92.8 108.7L88.6 113.1L84.3 108.7C84.1 108.5 83.9 108.5 83.7 108.6C83.5 108.7 83.3 108.9 83.3 109.2V119.6L84.5 118.4V110.7L88.2 114.5C88.4 114.7 88.8 114.7 89 114.5L92.7 110.7V118.4L93.9 119.6V109.2C93.8 108.9 93.6 108.7 93.4 108.6Z" fill="#240D5F"/>
<path d="M112.4 118.1H107.7C107.5 118.1 107.3 118.1 107.2 118C107.2 118 107.1 117.9 107.1 117.8V114.5H112.1L113.2 113.4H107.1V110.4C107.1 110.2 107.1 110.1 107.2 110.1C107.2 110.1 107.4 110 107.6 110H112.3L113.4 108.9H107.5C107.1 108.9 106.7 108.9 106.3 109.4C106.2 109.6 106 109.9 106 110.5V117.8C106 118.1 106 118.7 106.4 119C106.7 119.4 107.1 119.4 107.5 119.4H113.4L112.4 118.1Z" fill="#240D5F"/>
<path d="M128.2 109.8C128 109.3 127.7 108.7 127 108.7C126.4 108.7 126.1 109.3 125.8 109.8L122.1 118.1H121.3V119.2H132.6V118.1H131.8L128.2 109.8ZM123.4 118.1L126.9 110.1C126.9 110 127 109.9 127 109.9C127 109.9 127.1 110 127.1 110.1L130.6 118.1H123.4Z" fill="#240D5F"/>
<path d="M149.3 108.7C148.6 108.7 148.4 109.1 148 109.7L143 117.9C143 117.9 143 118 142.9 118C142.9 118 142.8 118.1 142.9 118.1C142.9 118.1 142.9 118 142.9 117.9V108.8L141.8 109.9V117.9C141.8 118.8 142.1 119.2 142.8 119.2C143.4 119.2 143.7 118.8 144 118.3L149 110.1V110C149 109.9 149.1 109.9 149.1 109.8V119H150.2V109.9C150.3 108.9 149.7 108.7 149.3 108.7Z" fill="#240D5F"/>
<path d="M162.4 114.6C162.1 114.4 161.8 114.1 161.8 113.9C161.8 113.7 162.1 113.5 162.3 113.4L167.7 108.9H166L161.4 112.7C161.2 112.8 160.6 113.4 160.6 113.9C160.6 114.3 160.9 114.9 161.5 115.3L166.3 119.2H168L162.4 114.6Z" fill="#240D5F"/>
<path d="M159.6 110V119.2H160.7V108.8H160.6L159.6 110Z" fill="#240D5F"/>
<path d="M0 100C0 116.2 12.4 129.4 27.9 130V100.5L19.4 91.8V109.9L17.2 112.2V89.1C17.2 88.6 17.5 88.2 17.9 88.1C18.3 87.9 18.8 88 19.1 88.3L27.9 97.4V81.7H21.5L20.6 79.4H37.3L36.4 81.7H30.1V97.4L38.9 88.4C39.2 88.1 39.7 88 40.1 88.2C40.5 88.4 40.8 88.8 40.8 89.2V112.2L38.6 109.9V91.9L30.2 100.6V130C45.7 129.4 58.1 116.2 58.1 100C58.1 83.5 45.1 70 29.1 70C13 70 0 83.5 0 100Z" fill="#240D5F"/>
</g>
<defs>
<clipPath id="clip0_6596_876">
<rect width="200" height="60" fill="white" transform="translate(0 70)"/>
</clipPath>
</defs>
</svg>
