<svg width="200" height="200" viewBox="0 0 200 200" fill="none" xmlns="http://www.w3.org/2000/svg">
<g clip-path="url(#clip0_76_6)">
<mask id="mask0_76_6" style="mask-type:luminance" maskUnits="userSpaceOnUse" x="35" y="0" width="130" height="201">
<path d="M164.706 0H35V200.01H164.706V0Z" fill="white"/>
</mask>
<g mask="url(#mask0_76_6)">
<path fill-rule="evenodd" clip-rule="evenodd" d="M155.766 84.0539L152.186 60.8528L155.766 37.6616L156.616 37.7816L153.006 60.8528L156.566 83.9139L155.766 84.0539Z" fill="#1D3353"/>
<path fill-rule="evenodd" clip-rule="evenodd" d="M123.814 116.945L123.134 116.445L137.005 97.5145H137.055L155.936 83.6738L156.446 84.3639L137.615 98.1246L123.814 116.945Z" fill="#1D3353"/>
<path fill-rule="evenodd" clip-rule="evenodd" d="M123.414 117.116L100.343 113.565L77.2821 117.116L77.1521 116.275L100.343 112.695L123.534 116.275L123.414 117.116Z" fill="#1D3353"/>
<path fill-rule="evenodd" clip-rule="evenodd" d="M76.8621 116.946L63.0814 98.1248L44.2505 84.3341L44.7505 83.644L63.6815 97.5147L77.5022 116.396L76.8621 116.946Z" fill="#1D3353"/>
<path fill-rule="evenodd" clip-rule="evenodd" d="M44.9205 84.0539L44.0804 83.9139L47.6406 60.8528L44.0804 37.7816L44.9205 37.6616L48.5007 60.8528L44.9205 84.0539Z" fill="#1D3353"/>
<path fill-rule="evenodd" clip-rule="evenodd" d="M44.7505 38.0617L44.2505 37.3816L63.0814 23.5809L76.8621 4.75L77.5622 5.27003L63.6815 24.191L44.7505 38.0617Z" fill="#1D3353"/>
<path fill-rule="evenodd" clip-rule="evenodd" d="M100.343 9.00006L77.1521 5.43989L77.2821 4.58984L100.343 8.15002L123.414 4.58984L123.534 5.43989L100.343 9.00006Z" fill="#1D3353"/>
<path fill-rule="evenodd" clip-rule="evenodd" d="M155.946 38.0617L137.005 24.191L123.134 5.27003L123.814 4.75L137.615 23.5809L156.446 37.3816L155.946 38.0617Z" fill="#1D3353"/>
<path fill-rule="evenodd" clip-rule="evenodd" d="M100.343 121.716C88.305 121.718 76.5368 118.15 66.5266 111.463C56.5164 104.777 48.7139 95.2721 44.1058 84.151C39.4977 73.0299 38.291 60.7921 40.6382 48.9852C42.9855 37.1782 48.7814 26.3325 57.2928 17.8197C65.8043 9.30683 76.649 3.5092 88.4556 1.15997C100.262 -1.18925 112.5 0.0154541 123.622 4.62174C134.744 9.22802 144.25 17.029 150.938 27.0381C157.626 37.0472 161.196 48.8148 161.196 60.8528C161.178 76.9873 154.761 92.4558 143.353 103.865C131.945 115.275 116.478 121.695 100.343 121.716ZM100.343 0.859816C88.4756 0.859816 76.8746 4.37893 67.0072 10.9721C57.1397 17.5654 49.449 26.9365 44.9075 37.9007C40.366 48.8648 39.1778 60.9294 41.493 72.5688C43.8082 84.2083 49.5229 94.8998 57.9145 103.291C66.3061 111.683 76.9976 117.398 88.637 119.713C100.276 122.028 112.341 120.84 123.305 116.298C134.269 111.757 143.641 104.066 150.234 94.1987C156.827 84.3312 160.346 72.7303 160.346 60.8628C160.33 44.9539 154.003 29.7011 142.754 18.4518C131.505 7.20253 116.252 0.875701 100.343 0.859816Z" fill="#1D3353"/>
<path d="M137.005 75.8535L115.334 97.4646L115.934 98.0746L137.585 76.4635L137.005 75.8535Z" fill="#1D3353"/>
<path d="M127.865 35.5518L127.255 36.1618L136.955 45.8618L137.565 45.2618L127.865 35.5518Z" fill="#1D3353"/>
<path d="M115.934 23.6309L115.334 24.2409L125.034 33.9409L125.644 33.3309L115.934 23.6309Z" fill="#1D3353"/>
<path d="M84.7325 23.6108L63.1214 45.2619L63.7314 45.862L85.3325 24.2109L84.7325 23.6108Z" fill="#1D3353"/>
<path d="M63.7214 75.8535L63.1214 76.4535L84.7425 98.0846L85.3525 97.4746L63.7214 75.8535Z" fill="#1D3353"/>
<path d="M115.644 23.501H85.0525V24.351H115.644V23.501Z" fill="#1D3353"/>
<path d="M115.644 97.3545H85.0525V98.2145H115.644V97.3545Z" fill="#1D3353"/>
<path d="M160.766 60.4326H39.9102V61.2827H160.766V60.4326Z" fill="#1D3353"/>
<path d="M100.773 0.429688H99.9133V121.286H100.773V0.429688Z" fill="#1D3353"/>
<path d="M57.9211 17.8306L57.3111 18.4306L142.775 103.895L143.375 103.295L57.9211 17.8306Z" fill="#1D3353"/>
<path d="M44.6705 37.3418L44.3405 38.1318L156.006 84.3941L156.326 83.6041L44.6705 37.3418Z" fill="#1D3353"/>
<path d="M123.204 4.8999L76.6921 116.495L77.4821 116.815L124.004 5.22992L123.204 4.8999Z" fill="#1D3353"/>
<path d="M77.6021 4.8501L76.8121 5.18011L123.074 116.866L123.864 116.546L77.6021 4.8501Z" fill="#1D3353"/>
<path d="M156.066 37.4116L44.3105 83.5139L44.6305 84.304L156.396 38.2017L156.066 37.4116Z" fill="#1D3353"/>
<path fill-rule="evenodd" clip-rule="evenodd" d="M123.784 37.4215L125.004 33.3015L129.124 32.0815L127.894 36.1915L123.764 37.4215H123.784ZM125.684 33.9815L125.054 36.1615L127.224 35.5115L127.874 33.3415L125.694 33.9815H125.684Z" fill="#1D3353"/>
<path d="M137.695 45.562H136.845V76.1435H137.695V45.562Z" fill="#1D3353"/>
<path d="M63.8514 45.562H63.0014V76.1435H63.8514V45.562Z" fill="#1D3353"/>
<path d="M121.614 69.4932L115.294 75.8132L115.894 76.4232L122.214 70.1032L121.614 69.4932Z" fill="#1D3353"/>
<path d="M109.574 39.002L108.974 39.612L115.284 45.922L115.894 45.322L109.574 39.002Z" fill="#1D3353"/>
<path d="M84.7822 45.292L78.4722 51.612L79.0722 52.222L85.3822 45.902L84.7822 45.292Z" fill="#1D3353"/>
<path d="M85.3925 75.8037L84.7825 76.4037L91.1025 82.7237L91.7025 82.1137L85.3925 75.8037Z" fill="#1D3353"/>
<path d="M100.343 38.8516H91.4128V39.7016H100.343V38.8516Z" fill="#1D3353"/>
<path d="M109.273 82.0039H100.343V82.8539H109.273V82.0039Z" fill="#1D3353"/>
<path d="M122.354 51.9224H121.494V60.8524H122.354V51.9224Z" fill="#1D3353"/>
<path d="M79.2022 60.853H78.3422V69.793H79.2022V60.853Z" fill="#1D3353"/>
<path d="M123.934 36.3115L57.4911 103.455L58.1012 104.055L124.545 36.9116L123.934 36.3115Z" fill="#1D3353"/>
<path d="M142.775 17.8306L128.195 32.4006L128.805 33.0106L143.385 18.4306L142.775 17.8306Z" fill="#1D3353"/>
<path fill-rule="evenodd" clip-rule="evenodd" d="M100.003 61.0027C97.8572 55.7627 97.3067 50.0055 98.421 44.4538C99.5352 38.9021 102.265 33.8033 106.266 29.7972C110.268 25.7911 115.364 23.0564 120.915 21.9362C126.465 20.816 132.223 21.3603 137.465 23.5008L137.135 24.2908C132.899 22.5508 128.299 21.8804 123.742 22.3388C119.185 22.7971 114.811 24.3702 111.006 26.919C107.201 29.4679 104.082 32.9143 101.924 36.9539C99.7664 40.9935 98.6361 45.5023 98.6332 50.0821C98.6312 53.7279 99.3412 57.339 100.723 60.7127L99.9433 61.0427L100.003 61.0027Z" fill="#1D3353"/>
<path fill-rule="evenodd" clip-rule="evenodd" d="M74.1819 100.375C70.4079 100.394 66.668 99.6595 63.1814 98.2147L63.5114 97.4347C67.7474 99.1726 72.3459 99.8413 76.9014 99.382C81.4569 98.9226 85.8293 97.3492 89.633 94.8005C93.4367 92.2519 96.5547 88.8064 98.7121 84.7679C100.869 80.7294 102 76.222 102.003 71.6434C102.035 68.0002 101.356 64.3858 100.003 61.0029L100.783 60.6729C102.577 65.0375 103.269 69.7766 102.799 74.472C102.328 79.1674 100.708 83.6748 98.0836 87.5963C95.4587 91.5178 91.9089 94.733 87.7475 96.9581C83.586 99.1831 78.9409 100.35 74.2219 100.355L74.1819 100.375Z" fill="#1D3353"/>
<path fill-rule="evenodd" clip-rule="evenodd" d="M137.695 98.0046L136.915 97.6746C139.018 92.5838 139.566 86.9841 138.489 81.5823C137.412 76.1806 134.758 71.2191 130.863 67.3243C126.969 63.4295 122.007 60.7761 116.605 59.699C111.204 58.622 105.604 59.1696 100.513 61.2727L100.183 60.4827C105.43 58.3191 111.2 57.7579 116.766 58.8699C122.331 59.9819 127.443 62.7173 131.455 66.731C135.468 70.7446 138.202 75.8568 139.312 81.4226C140.423 86.9883 139.86 92.7583 137.695 98.0046Z" fill="#1D3353"/>
<path fill-rule="evenodd" clip-rule="evenodd" d="M89.5627 63.4129C84.842 63.4127 80.194 62.2493 76.0299 60.0255C71.8658 57.8018 68.3137 54.5862 65.6878 50.6632C63.0619 46.7402 61.4431 42.2307 60.9746 37.5333C60.506 32.8358 61.2021 28.0954 63.0014 23.731L63.7814 24.061C62.3841 27.4269 61.6702 31.0371 61.6813 34.6815C61.6833 39.2602 62.8129 43.7679 64.9703 47.8064C67.1276 51.845 70.2464 55.2901 74.0511 57.8374C77.8557 60.3847 82.2292 61.9558 86.7851 62.412C91.341 62.8681 95.9391 62.1952 100.173 60.4528L100.503 61.2528C97.0132 62.6862 93.2756 63.4201 89.5027 63.4129H89.5627Z" fill="#1D3353"/>
<path fill-rule="evenodd" clip-rule="evenodd" d="M100.733 61.0031L99.9532 60.673C101.768 56.315 104.628 52.4712 108.282 49.4816C111.935 46.4919 116.269 44.4485 120.899 43.532C125.53 42.6155 130.316 42.8542 134.832 44.227C139.349 45.5997 143.458 48.0642 146.796 51.4026C149.451 54.0613 151.561 57.214 153.006 60.683L152.206 61.0131C150.083 55.9367 146.507 51.6014 141.927 48.5522C137.346 45.503 131.967 43.8761 126.465 43.8761C120.962 43.8761 115.583 45.503 111.003 48.5522C106.422 51.6014 102.846 55.9367 100.723 61.0131L100.733 61.0031Z" fill="#1D3353"/>
<path fill-rule="evenodd" clip-rule="evenodd" d="M74.212 78.6838C68.5374 78.6884 62.9887 77.0113 58.2666 73.8645C53.5445 70.7176 49.8608 66.242 47.6807 61.0029L48.4707 60.6729C49.8578 64.0393 51.897 67.0981 54.471 69.6733C57.7135 72.907 61.7019 75.2932 66.0843 76.6215C70.4668 77.9498 75.1088 78.1794 79.601 77.2901C84.0932 76.4007 88.2976 74.4198 91.8433 71.5218C95.3891 68.6239 98.1674 64.8981 99.9333 60.6729L100.713 61.0029C98.5352 66.2373 94.8561 70.7096 90.1399 73.8561C85.4237 77.0026 79.8815 78.6824 74.212 78.6838Z" fill="#1D3353"/>
<path fill-rule="evenodd" clip-rule="evenodd" d="M100.513 113.526L100.183 112.746C103.553 111.365 106.613 109.325 109.184 106.745C112.42 103.505 114.808 99.5174 116.138 95.1351C117.468 90.7528 117.698 86.1105 116.809 81.6181C115.919 77.1256 113.937 72.9214 111.038 69.3766C108.138 65.8318 104.41 63.0555 100.183 61.293L100.513 60.5029C105.748 62.6887 110.219 66.374 113.363 71.095C116.508 75.816 118.186 81.3617 118.186 87.0343C118.186 92.7068 116.508 98.2525 113.363 102.974C110.219 107.695 105.748 111.38 100.513 113.566V113.526Z" fill="#1D3353"/>
<path fill-rule="evenodd" clip-rule="evenodd" d="M100.183 61.2531C94.9465 59.0668 90.4735 55.3802 87.3273 50.6574C84.1811 45.9346 82.5024 40.3866 82.5024 34.7117C82.5024 29.0369 84.1811 23.4889 87.3273 18.7661C90.4735 14.0432 94.9465 10.3567 100.183 8.17041L100.513 8.96045C97.145 10.344 94.0855 12.3837 91.5128 14.9607C88.2792 18.2033 85.893 22.1916 84.5646 26.5741C83.2363 30.9566 83.0067 35.5986 83.8961 40.0908C84.7854 44.5829 86.7664 48.7873 89.6643 52.3331C92.5622 55.8789 96.2881 58.6572 100.513 60.423L100.183 61.2031V61.2531Z" fill="#1D3353"/>
<path fill-rule="evenodd" clip-rule="evenodd" d="M84.0525 199.689C84.0525 199.689 87.1425 199.999 88.9925 199.999C90.6467 200.126 92.2963 199.701 93.6825 198.789C94.3335 198.334 94.8645 197.727 95.2302 197.022C95.596 196.317 95.7854 195.533 95.7825 194.739C95.7825 193.119 95.2225 190.419 90.8825 189.399C87.5125 188.619 86.4625 188.029 85.8825 186.889C85.6396 186.34 85.5805 185.727 85.7138 185.141C85.8471 184.556 86.1658 184.029 86.6225 183.639C87.4025 183.089 87.9825 182.569 90.2525 182.729L94.1525 184.729L94.8725 182.499C93.4782 182.287 92.0722 182.16 90.6625 182.119C84.7325 181.929 84.0225 185.339 84.0225 186.769C84.0225 189.239 85.7125 191.079 89.3125 191.769C93.4025 192.839 93.9325 194.679 93.8925 196.009C93.9064 196.759 93.6613 197.49 93.1986 198.081C92.7359 198.671 92.0839 199.083 91.3525 199.249C90.4875 199.427 89.6 199.467 88.7225 199.369L84.8025 197.369L84.0225 199.719L84.0525 199.689Z" fill="#264369"/>
<path fill-rule="evenodd" clip-rule="evenodd" d="M35 182.389V184.859L38.75 183.009H41.18V198.329L39.94 199.689H44.94L43.7 198.329V183.009H46.1L49.82 184.869V182.399L35 182.389Z" fill="#264369"/>
<path fill-rule="evenodd" clip-rule="evenodd" d="M65.2712 184.659L68.5312 192.269H62.0012L65.2712 184.659ZM58.1312 199.659H60.7612L59.8112 197.419L61.7612 192.869H68.8112L71.1512 198.299L70.5012 199.659H74.4212L67.0012 182.389H65.5612L58.1612 199.679L58.1312 199.659Z" fill="#264369"/>
<path fill-rule="evenodd" clip-rule="evenodd" d="M134.005 182.389L135.245 183.749V198.319L134.005 199.679H138.945L137.715 198.319V183.749L138.945 182.389H134.005Z" fill="#264369"/>
<path fill-rule="evenodd" clip-rule="evenodd" d="M117.524 182.389L118.754 183.749V190.419H110.104V183.749L111.344 182.389H106.404L107.634 183.749V198.319L106.404 199.679H111.344L110.104 198.319V191.009H118.754V198.289L117.524 199.649H122.464L121.224 198.289V183.749L122.464 182.389H117.524Z" fill="#264369"/>
<path fill-rule="evenodd" clip-rule="evenodd" d="M154.256 191.649V183.009H156.416C156.963 183.028 157.502 183.156 158 183.384C158.498 183.613 158.946 183.938 159.318 184.34C159.69 184.743 159.979 185.215 160.167 185.73C160.355 186.245 160.44 186.792 160.416 187.339C160.416 189.889 158.936 191.649 156.716 191.649H154.236H154.256ZM164.706 199.649L163.186 198.289L159.816 191.669C160.417 191.422 160.976 191.085 161.476 190.669C162.001 190.223 162.414 189.659 162.68 189.023C162.946 188.387 163.058 187.697 163.006 187.009C162.976 186.19 162.724 185.394 162.276 184.707C161.829 184.02 161.203 183.468 160.466 183.109C158.897 182.502 157.213 182.253 155.536 182.379H150.596L151.826 183.739V198.309L150.596 199.669H155.536L154.296 198.309V192.249H155.896C156.216 192.249 156.696 192.249 157.246 192.249L161.106 199.689L164.706 199.649Z" fill="#264369"/>
</g>
</g>
<defs>
<clipPath id="clip0_76_6">
<rect width="129.706" height="200" fill="white" transform="translate(35)"/>
</clipPath>
</defs>
</svg>
