<svg width="200" height="200" viewBox="0 0 200 200" fill="none" xmlns="http://www.w3.org/2000/svg">
<g clip-path="url(#clip0_6586_356)">
<path d="M176.918 0H23.1849V153.733H176.918V0Z" fill="#19105F"/>
<path d="M23.2175 169.101H24.6858V176.084L24.6423 177.356H24.7184C25.0665 176.649 25.2731 176.334 25.6429 175.746L29.7432 169.101H31.3854V179.357H29.9172V172.375L29.9607 171.102H29.8846C29.5039 171.907 29.2646 172.212 28.9601 172.712L24.8598 179.357H23.2175V169.101Z" fill="#19105F"/>
<path d="M34.409 169.101H35.8773V173.397H40.7715V169.101H42.2398V179.357H40.7715V174.681H35.8773V179.357H34.409V169.101Z" fill="#19105F"/>
<path d="M50.7775 170.015H51.1581C52.4633 170.015 53.3877 170.45 53.9533 170.896C54.8016 171.537 55.5086 172.658 55.5086 174.093C55.5086 175.366 54.9539 176.54 54.0838 177.236C53.714 177.53 52.7787 178.161 51.1581 178.161H50.7775V179.509H49.3092V178.161H48.9285C47.2971 178.161 46.3618 177.53 46.0029 177.236C45.1437 176.529 44.5781 175.366 44.5781 174.093C44.5781 172.658 45.2851 171.548 46.1334 170.896C46.699 170.461 47.6234 170.015 48.9285 170.015H49.3092V168.699H50.7775V170.015ZM48.9068 171.211C48.4282 171.211 47.6343 171.287 46.9926 171.885C46.6011 172.255 46.1443 172.908 46.1443 174.082C46.1443 175.17 46.4923 175.812 46.8947 176.203C47.5364 176.867 48.3412 176.954 48.9177 176.954H49.331V171.211H48.9177H48.9068ZM50.7775 176.954H51.1908C51.7672 176.954 52.572 176.867 53.2137 176.203C53.6053 175.812 53.9642 175.159 53.9642 174.082C53.9642 172.908 53.5074 172.255 53.1158 171.885C52.4741 171.287 51.6802 171.211 51.2016 171.211H50.7884V176.954H50.7775Z" fill="#19105F"/>
<path d="M66.1454 170.515C66.9067 171.374 67.407 172.668 67.407 174.235C67.407 175.801 66.8849 177.139 66.1454 177.965C65.5037 178.716 64.3617 179.499 62.4801 179.499C60.5986 179.499 59.4675 178.705 58.8149 177.965C58.0862 177.128 57.5533 175.823 57.5533 174.235C57.5533 172.647 58.0536 171.374 58.8149 170.515C59.6523 169.547 60.8378 168.96 62.4801 168.96C64.1224 168.96 65.3079 169.547 66.1454 170.515ZM59.9786 171.418C59.4457 172.092 59.1194 173.18 59.1194 174.235C59.1194 175.094 59.3478 176.247 59.9786 177.051C60.4789 177.693 61.2511 178.226 62.4801 178.226C63.7091 178.226 64.4922 177.704 64.9816 177.051C65.6124 176.247 65.8408 175.105 65.8408 174.235C65.8408 173.18 65.5037 172.092 64.9816 171.418C64.5139 170.82 63.6765 170.243 62.4801 170.243C61.2838 170.243 60.4463 170.809 59.9786 171.418Z" fill="#19105F"/>
<path d="M69.7997 169.101H72.4752C73.2474 169.101 74.4329 169.188 75.2921 169.852C75.7924 170.232 76.3145 170.917 76.3145 172.136C76.3145 173.06 75.9882 173.745 75.6293 174.169C74.7483 175.192 73.3453 175.257 72.7036 175.257H71.268V179.357H69.7997V169.101ZM71.268 173.963H72.7145C73.2692 173.963 73.9 173.789 74.2698 173.452C74.5091 173.234 74.7701 172.821 74.7701 172.19C74.7701 171.559 74.5308 171.146 74.0958 170.83C73.5737 170.45 72.9647 170.395 72.5187 170.395H71.2789V173.974L71.268 173.963Z" fill="#19105F"/>
<path d="M78.4679 169.101H80.8824L84.0909 177.628L87.2449 169.101H89.6594V179.357H88.1911V170.482H88.1585L84.7761 179.357H83.3404L79.958 170.482H79.9253V179.357H78.4571V169.101H78.4679Z" fill="#19105F"/>
<path d="M96.0872 169.101H97.6207L101.939 179.357H100.34L99.2956 176.769H94.2817L93.2376 179.357H91.7041L96.0654 169.101H96.0872ZM96.805 170.482L94.7712 175.561H98.8388L96.805 170.482Z" fill="#19105F"/>
<path d="M105.462 169.101V178.063H109.987V169.101H111.455V178.063H112.63V181.641H111.194V179.357H104.005V169.101H105.473H105.462Z" fill="#19105F"/>
<path d="M114.729 169.101H116.197V176.084L116.154 177.356H116.23C116.578 176.649 116.784 176.334 117.154 175.746L121.254 169.101H122.897V179.357H121.428V172.375L121.472 171.102H121.396C121.015 171.907 120.776 172.212 120.471 172.712L116.371 179.357H114.729V169.101Z" fill="#19105F"/>
<path d="M133.947 170.515C134.708 171.374 135.208 172.668 135.208 174.235C135.208 175.801 134.686 177.139 133.947 177.965C133.305 178.716 132.163 179.499 130.282 179.499C128.4 179.499 127.269 178.705 126.616 177.965C125.888 177.128 125.355 175.823 125.355 174.235C125.355 172.647 125.855 171.374 126.616 170.515C127.454 169.547 128.639 168.96 130.282 168.96C131.924 168.96 133.109 169.547 133.947 170.515ZM127.78 171.418C127.258 172.092 126.921 173.18 126.921 174.235C126.921 175.094 127.16 176.247 127.78 177.051C128.28 177.693 129.053 178.226 130.282 178.226C131.511 178.226 132.294 177.704 132.783 177.051C133.414 176.247 133.642 175.105 133.642 174.235C133.642 173.18 133.305 172.092 132.783 171.418C132.315 170.82 131.478 170.243 130.282 170.243C129.085 170.243 128.248 170.809 127.78 171.418Z" fill="#19105F"/>
<path d="M137.677 169.101H139.146V173.397H144.04V169.101H145.508V179.357H144.04V174.681H139.146V179.357H137.677V169.101Z" fill="#19105F"/>
<path d="M148.532 169.101H150V173.397H154.894V169.101H156.362V179.357H154.894V174.681H150V179.357H148.532V169.101Z" fill="#19105F"/>
<path d="M167.412 170.515C168.174 171.374 168.674 172.668 168.674 174.235C168.674 175.801 168.152 177.139 167.412 177.965C166.771 178.716 165.629 179.499 163.747 179.499C161.866 179.499 160.735 178.705 160.082 177.965C159.353 177.128 158.82 175.823 158.82 174.235C158.82 172.647 159.321 171.374 160.082 170.515C160.919 169.547 162.105 168.96 163.747 168.96C165.389 168.96 166.575 169.547 167.412 170.515ZM161.246 171.418C160.713 172.092 160.386 173.18 160.386 174.235C160.386 175.094 160.615 176.247 161.246 177.051C161.746 177.693 162.518 178.226 163.747 178.226C164.976 178.226 165.759 177.704 166.249 177.051C166.88 176.247 167.108 175.105 167.108 174.235C167.108 173.18 166.771 172.092 166.249 171.418C165.781 170.82 164.944 170.243 163.747 170.243C162.551 170.243 161.713 170.809 161.246 171.418Z" fill="#19105F"/>
<path d="M171.143 169.101H176.875V170.395H172.611V173.397H176.494V174.681H172.611V178.063H176.875V179.357H171.143V169.101Z" fill="#19105F"/>
<path d="M27.3613 189.602H28.8948L33.2126 199.859H31.6138L30.5697 197.27H25.5776L24.5335 199.859H23L27.3613 189.602ZM28.0791 190.984L26.0453 196.063H30.1129L28.0791 190.984Z" fill="#19105F"/>
<path d="M35.5075 189.602H40.9455V190.897H36.9757V199.859H35.5075V189.602Z" fill="#19105F"/>
<path d="M43.273 189.602H49.0047V190.897H44.7413V193.899H48.624V195.193H44.7413V198.575H49.0047V199.869H43.273V189.613V189.602Z" fill="#19105F"/>
<path d="M51.8433 189.602H53.3116V193.899H58.2058V189.602H59.6741V199.859H58.2058V195.182H53.3116V199.859H51.8433V189.602Z" fill="#19105F"/>
<path d="M65.1883 190.897H62.0125V189.602H69.8323V190.897H66.6565V199.859H65.1883V190.897Z" fill="#19105F"/>
<path d="M78.7942 191.321C78.1525 190.94 77.413 190.755 76.6843 190.755C75.7707 190.755 74.868 191.038 74.1828 191.571C73.3671 192.213 72.758 193.311 72.758 194.736C72.758 195.976 73.2148 196.879 73.726 197.455C74.4329 198.282 75.4444 198.717 76.8365 198.717C77.3368 198.717 78.0329 198.619 78.8377 198.238L78.9247 199.641C78.0764 199.967 77.3912 200.011 76.7822 200.011C75.4226 200.011 73.813 199.728 72.6057 198.499C71.8444 197.705 71.2027 196.389 71.2027 194.725C71.2027 193.659 71.4638 191.854 73.106 190.592C74.161 189.787 75.477 189.461 76.6843 189.461C77.7936 189.461 78.4462 189.679 78.9139 189.896L78.7942 191.321Z" fill="#19105F"/>
<path d="M84.0909 190.897H80.9151V189.602H88.735V190.897H85.5591V199.859H84.0909V190.897Z" fill="#19105F"/>
<path d="M91.0624 189.602H93.8358C94.7168 189.602 95.8153 189.7 96.5875 190.309C97.1748 190.766 97.4249 191.375 97.4249 192.18C97.4249 192.615 97.3488 193.235 96.9138 193.746C96.5331 194.203 95.8696 194.508 95.315 194.627V194.66C95.9893 194.703 96.6092 194.986 97.0008 195.367C97.4141 195.758 97.686 196.378 97.686 197.129C97.686 198.108 97.2944 198.727 96.892 199.065C96.0437 199.793 94.608 199.869 93.7923 199.869H91.0733V189.613L91.0624 189.602ZM92.5307 193.986H93.3355C93.9772 193.986 95.0322 193.986 95.5651 193.474C95.9349 193.126 95.9567 192.637 95.9567 192.387C95.9567 191.886 95.8261 191.484 95.4346 191.19C95.0648 190.908 94.5428 190.81 94.0751 190.81H92.5416V193.986H92.5307ZM92.5307 198.651H93.6292C94.26 198.651 95.228 198.608 95.7391 198.086C95.9458 197.868 96.1307 197.52 96.1307 196.955C96.1307 196.291 95.9023 195.802 95.2497 195.476C94.7168 195.215 94.0751 195.182 93.4769 195.182H92.5307V198.651Z" fill="#19105F"/>
<path d="M108.529 191.005C109.291 191.865 109.791 193.159 109.791 194.725C109.791 196.291 109.269 197.629 108.529 198.456C107.888 199.206 106.746 199.989 104.864 199.989C102.983 199.989 101.851 199.195 101.199 198.456C100.47 197.618 99.9373 196.313 99.9373 194.725C99.9373 193.137 100.438 191.865 101.199 191.005C102.036 190.037 103.222 189.45 104.864 189.45C106.506 189.45 107.692 190.037 108.529 191.005ZM102.363 191.919C101.83 192.593 101.503 193.681 101.503 194.736C101.503 195.595 101.732 196.748 102.363 197.553C102.863 198.195 103.635 198.727 104.864 198.727C106.093 198.727 106.876 198.205 107.366 197.553C107.996 196.748 108.225 195.606 108.225 194.736C108.225 193.681 107.888 192.593 107.366 191.919C106.898 191.321 106.061 190.744 104.864 190.744C103.668 190.744 102.83 191.31 102.363 191.919Z" fill="#19105F"/>
<path d="M116.828 189.602H119.503C120.276 189.602 121.472 189.689 122.32 190.353C122.821 190.734 123.343 191.419 123.343 192.637C123.343 193.561 123.016 194.247 122.657 194.671C121.776 195.693 120.373 195.758 119.732 195.758H118.296V199.859H116.828V189.602ZM118.296 194.464H119.743C120.297 194.464 120.928 194.29 121.298 193.953C121.537 193.735 121.798 193.322 121.798 192.691C121.798 192.06 121.559 191.647 121.124 191.332C120.602 190.951 119.993 190.897 119.547 190.897H118.307V194.475L118.296 194.464Z" fill="#19105F"/>
<path d="M134.023 191.005C134.784 191.865 135.285 193.159 135.285 194.725C135.285 196.291 134.762 197.629 134.023 198.456C133.381 199.206 132.239 199.989 130.358 199.989C128.476 199.989 127.345 199.195 126.692 198.456C125.964 197.618 125.431 196.313 125.431 194.725C125.431 193.137 125.931 191.865 126.692 191.005C127.53 190.037 128.715 189.45 130.358 189.45C132 189.45 133.185 190.037 134.023 191.005ZM127.856 191.919C127.323 192.593 126.997 193.681 126.997 194.736C126.997 195.595 127.236 196.748 127.856 197.553C128.356 198.195 129.129 198.727 130.358 198.727C131.587 198.727 132.37 198.205 132.859 197.553C133.49 196.748 133.718 195.606 133.718 194.736C133.718 193.681 133.381 192.593 132.859 191.919C132.391 191.321 131.554 190.744 130.358 190.744C129.161 190.744 128.324 191.31 127.856 191.919Z" fill="#19105F"/>
<path d="M145.225 191.321C144.584 190.94 143.844 190.755 143.115 190.755C142.202 190.755 141.299 191.038 140.614 191.571C139.798 192.213 139.189 193.311 139.189 194.736C139.189 195.976 139.646 196.879 140.157 197.455C140.864 198.282 141.875 198.717 143.268 198.717C143.768 198.717 144.464 198.619 145.269 198.238L145.356 199.641C144.507 199.967 143.822 200.011 143.213 200.011C141.854 200.011 140.244 199.728 139.037 198.499C138.275 197.705 137.634 196.389 137.634 194.725C137.634 193.659 137.895 191.854 139.537 190.592C140.592 189.787 141.908 189.461 143.115 189.461C144.225 189.461 144.877 189.679 145.345 189.896L145.225 191.321Z" fill="#19105F"/>
<path d="M154.709 191.321C154.067 190.94 153.328 190.755 152.599 190.755C151.697 190.755 150.783 191.038 150.098 191.571C149.282 192.213 148.673 193.311 148.673 194.736C148.673 195.976 149.13 196.879 149.641 197.455C150.348 198.282 151.359 198.717 152.751 198.717C153.252 198.717 153.948 198.619 154.753 198.238L154.84 199.641C153.991 199.967 153.306 200.011 152.697 200.011C151.338 200.011 149.728 199.728 148.521 198.499C147.759 197.705 147.118 196.389 147.118 194.725C147.118 193.659 147.379 191.854 149.021 190.592C150.076 189.787 151.392 189.461 152.599 189.461C153.709 189.461 154.361 189.679 154.829 189.896L154.709 191.321Z" fill="#19105F"/>
<path d="M157.439 189.602H158.907V196.585L158.864 197.857H158.94C159.288 197.15 159.495 196.835 159.864 196.248L163.965 189.602H165.607V199.859H164.139V192.876L164.182 191.604H164.106C163.725 192.408 163.486 192.713 163.182 193.213L159.081 199.859H157.439V189.602Z" fill="#19105F"/>
<path d="M168.935 189.602H170.403V196.585L170.36 197.857H170.436C170.784 197.15 170.991 196.835 171.36 196.248L175.461 189.602H177.103V199.859H175.635V192.876L175.678 191.604H175.602C175.221 192.408 174.982 192.713 174.678 193.213L170.577 199.859H168.935V189.602Z" fill="#19105F"/>
<path d="M33.0169 96.4598H67.8638L63.1001 104.715H53.9533V131.938H45.2307V104.715H33.0169V96.4598Z" fill="white"/>
<path d="M116.143 104.715C115.153 104.715 114.446 105.324 114.446 106.368V122.073C114.446 123.106 115.153 123.672 116.143 123.672H134.197V131.927H116.143C109.824 131.927 105.723 128.109 105.723 122.073V106.368C105.723 100.375 109.824 96.4598 116.143 96.4598H136.372L131.608 104.715H116.143Z" fill="white"/>
<path d="M89.9966 96.4598H73.6825L68.9188 104.715H89.9966C91.0298 104.715 91.6497 105.324 91.6497 106.368V110.142H77.9785C71.703 110.142 67.0807 114.764 67.0807 121.04C67.0807 127.315 71.703 131.938 77.9785 131.938H100.372V106.368C100.372 100.375 96.2721 96.4598 89.9966 96.4598ZM91.6497 123.933H79.0444C77.2498 123.933 75.9338 122.617 75.9338 120.811C75.9338 119.006 77.2498 117.646 79.0444 117.646H91.6497V123.922V123.933Z" fill="white"/>
<path d="M148.521 104.715C147.531 104.715 146.824 105.324 146.824 106.368V122.073C146.824 123.106 147.531 123.672 148.521 123.672H166.586V131.927H148.521C142.202 131.927 138.101 128.109 138.101 122.073V106.368C138.101 100.375 142.202 96.4598 148.521 96.4598H168.75L163.986 104.715H148.521Z" fill="white"/>
</g>
<defs>
<clipPath id="clip0_6586_356">
<rect width="154.092" height="200" fill="white" transform="translate(23)"/>
</clipPath>
</defs>
</svg>
