<svg width="200" height="200" viewBox="0 0 200 200" fill="none" xmlns="http://www.w3.org/2000/svg">
<g clip-path="url(#clip0_6596_872)">
<path d="M2.8169 89.9273V100.504L31.3499 97.3656V85.9177L2.8169 89.9273ZM11.9223 101.148V137.392H22.3685V100.08L11.9223 101.148ZM35.2034 85.3763V137.392H46.2107V83.8287L35.2034 85.3763ZM48.2614 83.5403V95.5059L64.1561 93.7572V81.307L48.2614 83.5403ZM48.2614 104.412V116.595L58.6952 116.026V103.514L48.2614 104.412ZM48.2614 125.377V137.392H64.1561V124.898L48.2614 125.377ZM105.261 75.5115V137.392H119.691V73.4834L105.261 75.5115ZM122.386 73.1042V87.338L143.415 85.0259V70.1481L122.386 73.1042ZM122.386 98.0428V112.54L136.169 111.788V96.8625L122.386 98.0428ZM122.386 123.137V137.392H143.415V122.502L122.386 123.137ZM68.3617 80.7149V137.392H80.9003V78.9521L68.3617 80.7149ZM83.2406 124.322V137.391H101.441V123.773L83.2406 124.322ZM190.56 69.4484C185.999 65.1397 179.313 63.3724 171.999 64.4231V80.2101C174.961 80.0456 177.361 81.1448 178.43 83.3577C180.118 86.8467 178.376 92.0817 174.267 96.9318C167.925 104.416 151.059 119.736 151.059 119.736L175.27 118.94C190.064 104.487 195.377 95.7138 196.33 84.7645C196.831 78.9718 194.728 73.3904 190.56 69.4484ZM197.183 137.392V120.873L148.074 122.352M148.074 122.352L148.079 137.391H197.183M169.176 64.7774C154.909 67.8158 147.904 78.3115 148.712 95.4377L163.923 94.0879C163.23 84.4124 166.19 82.1172 169.183 80.8552L169.176 64.7774Z" fill="#141414"/>
</g>
<defs>
<clipPath id="clip0_6596_872">
<rect width="196" height="74" fill="white" transform="translate(2 64)"/>
</clipPath>
</defs>
</svg>
