<?xml version="1.0" encoding="utf-8"?>
<!-- Generator: Adobe Illustrator 23.1.1, SVG Export Plug-In . SVG Version: 6.00 Build 0)  -->
<svg version="1.1" id="Слой_1" xmlns="http://www.w3.org/2000/svg" xmlns:xlink="http://www.w3.org/1999/xlink" x="0px" y="0px"
	 viewBox="0 0 200 200" style="enable-background:new 0 0 200 200;" xml:space="preserve">
<g>
	<path d="M0,19c2.3,0,4.7,0.1,7,0.1c2.9,0,5.7,0,8.7,0c0,0.8,0,1.6,0,2.5c-1.2,0-2.4,0-3.5,0c-1,0-1.8,0.5-1.9,1.6
		c-0.1,2.6,0,5.1,0,7.8c4.8,0,9.4,0,14.1,0c0-2.7,0-5.3,0-7.9c0-1.1-0.9-1.4-1.8-1.4c-1.2,0-2.4,0-3.6,0c0-0.9,0-1.6,0-2.4
		c5.2,0,10.4,0,15.7,0c0,0.8,0,1.5,0,2.4c-0.9,0-1.7,0-2.6,0c-1.2,0-1.9,0.6-1.9,1.8c0,6.5,0,12.9,0,19.4c0,1.1,0.7,1.7,1.9,1.7
		c0.9,0,1.7,0,2.7,0c0,0.9,0,1.6,0,2.4c-5.2,0-10.4,0-15.7,0c0-0.8,0-1.5,0-2.4c1.2,0,2.3,0,3.4,0c1.3,0,2-0.6,2-2
		c0-2.4,0-4.9,0-7.4c-4.8,0-9.4,0-14.2,0c0,2.7,0,5.3,0,8c0,1,0.8,1.4,1.7,1.4c1.2,0,2.4,0,3.7,0c0,0.9,0,1.6,0,2.6
		c-5.2,0-10.5,0-15.7,0c0-0.9,0-1.7,0-2.6c0.9,0,1.8,0,2.7,0c1.2,0,1.9-0.6,1.9-1.9c0-6.4,0-12.8,0-19.3c0-1.2-0.7-1.8-1.9-1.9
		c-0.9,0-1.8,0-2.7,0C0,20.7,0,19.9,0,19z"/>
	<path d="M0,136.7c6.5,0,12.9,0,19.4,0.1c1.5,0,3.1,0.1,4.5,0.5c4.7,1.4,6.7,7.1,3.8,11c-0.6,0.8-1.5,1.4-2.1,1.9
		c1,1.1,2.6,2.1,3.2,3.6c0.7,1.5,0.8,3.4,0.6,5c-0.6,3.8-3.8,6-8.3,6c-6.5,0-12.9,0-19.4,0c-0.6,0-1.1,0.1-1.7,0.1
		c0-0.9,0-1.7,0-2.6c0.9,0,1.8,0,2.7,0c1.2,0,1.9-0.6,1.9-1.8c0-6.4,0-12.9,0-19.3c0-1.2-0.6-1.8-1.8-1.8c-1-0.1-1.9,0-2.9,0
		C0,138.4,0,137.6,0,136.7z M10.4,152.7c0,2.8,0,5.4,0,8c3.3,0,6.5,0.1,9.7,0c2.4-0.1,3.7-1.5,3.7-3.7c0.1-2.4-1.1-4.1-3.5-4.2
		C17.1,152.5,13.8,152.7,10.4,152.7z M10.4,148.5c2.6,0,5.2,0,7.8,0c0.9,0,1.7,0,2.5-0.3c1.7-0.5,2.6-1.9,2.6-3.8
		c-0.1-1.8-1.1-3.2-3-3.3c-3.3-0.2-6.6,0-9.9,0C10.4,143.5,10.4,146,10.4,148.5z"/>
	<path d="M0,78c11.2,0,22.5,0,33.7,0c0.1,0,0.2,0,0.4,0.1c0,0.7,0,1.5,0,2.4c-0.9,0-1.8,0-2.7,0c-1.2,0-1.8,0.6-1.8,1.9
		c0,6.4,0,12.7,0,19.1c0,1.3,0.7,1.9,2,1.9c0.9,0,1.7,0,2.6,0c0,0.9,0,1.6,0,2.4c-5.1,0-10.2,0-15.4,0c0-0.7,0-1.5,0-2.4
		c1.1,0,2.2,0,3.3,0c1.1,0,1.8-0.6,1.8-1.8c0-6.4,0-12.7,0-19.1c0-0.1-0.1-0.3-0.1-0.4c-4.4,0-8.9,0-13.4,0c0,0.4-0.1,0.8-0.1,1.2
		c0,5.9,0,11.8,0,17.7c0,2.1,0.4,2.4,2.4,2.5c0.9,0,1.8,0,2.8,0c0,0.9,0,1.6,0,2.4c-5.2,0-10.3,0-15.5,0c0-0.9,0-1.7,0-2.6
		c0.5,0,1,0.1,1.6,0.1c2.8,0,3.1-0.2,3.1-3.1c0-5.2,0-10.4,0-15.6c0-3.9,0.6-4.6-4.6-4.2C0,79.7,0,78.9,0,78z"/>
	<path d="M55.7,18.4c2.9,0.8,5.6,1.8,7.7,4.1c3.1,3.5,4.2,7.6,3.9,12.3c-7.7,0-15.1,0-22.6,0c0.2,4.1,2.7,7.2,6.6,8.2
		c3.9,1.1,8.1-0.1,9.7-3.2c1-1.9,2.2-2.3,4-2.1c0.6,0.1,1.2,0,2,0c-0.5,3.1-2.1,5.4-4.4,7.2C58,48.6,51,48.8,45.8,45.6
		c-5.2-3.2-7.8-9.3-6.7-15.5c1-5.7,5.7-10.3,11.5-11.4c0.3-0.1,0.5-0.2,0.8-0.3C52.9,18.4,54.3,18.4,55.7,18.4z M44.9,30.2
		c0.1,0,0.2,0.1,0.2,0.1c5.1,0,10.1,0,15.2,0c1.1,0,1.4-0.6,1.2-1.6c-0.1-0.5-0.2-0.9-0.4-1.4c-1.6-3.5-5.7-5.2-9.8-4.2
		C47.7,24,45.1,26.9,44.9,30.2z"/>
	<path d="M183.6,179.3c0.1-1.4,0.2-2.7,0.2-4.3c6.1-0.1,9.4-3.4,9.9-9.6c1.8,0,3.5,0,5.2,0c0.6,3.7-2.3,9.5-6.1,11.5
		c-2,1.1-4.2,1.6-6.4,2.3C185.5,179.3,184.6,179.3,183.6,179.3z"/>
	<path d="M80.5,137c0,0.7,0,1.4,0,2.1c-0.1,0.1-0.1,0.2-0.2,0.2c-3,0.2-3.1,0.4-3.1,3.5c0,5.4,0,10.8,0,16.3c0,0.5,0,1,0,1.7
		c2.7,0,5.3,0,7.9,0c0.3,0,0.8-0.6,0.8-0.9c0-6.2,0-12.4,0-18.6c0-1.3-0.7-1.9-2-1.9c-0.4,0-0.8,0-1.3,0c0-0.9,0-1.6,0-2.4
		c4.1,0,8.2,0,12.3,0c0,0.8,0,1.5,0,2.3c-0.1,0.1-0.2,0.1-0.3,0.1c-2.9,0.1-3.1,0.4-3.1,3.2c0,5.5,0,11,0,16.5c0,0.5,0,1,0,1.6
		c2.9,0,5.7,0,8.7,0c0-0.6,0-1.1,0-1.6c0-5.5,0-10.9,0-16.4c0-3.1-0.1-3.2-3.3-3.4c0-0.7,0-1.4,0-2.3c4.4,0,8.7,0,13.2,0
		c0,0.8,0,1.5,0,2.4c-0.7,0-1.5,0-2.2,0c-1.3,0-2,0.6-2,1.9c0,5.9,0,11.8,0,17.7c0,1.3,0.7,1.9,2,1.9c0.7,0,1.4,0,2.2,0
		c0,4.4,0,8.6,0,13c-1,0-2.1,0-3.3,0c0-2.1,0-4.2,0-6.3c0-2.3-0.4-2.7-2.7-2.7c-11.6,0-23.2,0-34.8,0c-0.6,0-1.1,0-1.8,0
		c0-0.8,0-1.6,0-2.5c0.7,0,1.5,0,2.2,0c1.3,0,2-0.6,2-1.9c0-6.3,0-12.7,0-19c0-1.5-0.6-2-2.1-2.1c-0.7,0-1.3,0-2.1,0
		c0-0.8,0-1.5,0-2.3C71.7,137,76.1,137,80.5,137z"/>
	<path d="M52.8,115.4c0,0.9,0,1.6,0,2.4c-5.2,0-10.4,0-15.7,0c0-0.7,0-1.5,0-2.4c0.8,0,1.7,0,2.5,0c1.3,0,2-0.7,2-1.9
		c0-1.5,0-3.1,0-4.6c0-8.4,0-16.8,0-25.2c0-3-0.1-3.2-3.1-3.2c-0.4,0-0.8,0-1.4,0c0-0.9,0-1.6,0-2.4c3.3,0,6.6,0,10.1,0c0,1,0,2,0,3
		c0.2,0,0.4,0,0.4,0c4.2-5.4,12.8-4.5,17.4-0.4c6.8,6.1,6.2,18.3-1.2,23.6c-4.7,3.3-11,3.2-15.6-0.2c-0.2-0.2-0.5-0.3-0.8-0.6
		c-0.1,0.3-0.2,0.6-0.2,0.8c0,2.9,0,5.8,0,8.8c0,1.8,0.5,2.3,2.4,2.3C50.7,115.4,51.7,115.4,52.8,115.4z M64.4,92.3
		c-0.3-1.7-0.5-3.2-0.9-4.6c-1.2-3.3-3.4-5.6-7-5.9c-3.6-0.3-6.2,1.3-7.9,4.4c-1.8,3.5-1.9,7.1-0.5,10.7c1.3,3.2,3.6,5.2,7.3,5.4
		c3.7,0.1,6.2-1.7,7.7-4.9C63.7,95.7,63.9,93.8,64.4,92.3z"/>
	<path d="M63.2,152.5c-7.6,0-15.1,0-22.5,0c-0.5,3.3,2.2,7,6,8.2c4.9,1.6,8.9-0.3,11.3-5.1c1.6,0,3.1,0,4.9,0
		c-0.6,3.2-2.3,5.6-4.8,7.4c-5.4,3.9-13.6,3.3-18.7-1.4c-5.1-4.6-6.2-12.5-2.6-18.4c3.5-5.8,10.9-8.5,17.4-6.3
		c5.2,1.8,8.8,6.9,9.1,12.8C63.2,150.5,63.2,151.4,63.2,152.5z M40.7,148c5.3,0,10.5,0,15.8,0c1.2,0,1-0.8,0.9-1.7
		c-0.8-3.5-4.5-6-8.4-5.7C44.3,140.9,41,143.8,40.7,148z"/>
	<path d="M75.2,91.9c0-8.3,6.5-14.7,14.8-14.6c8.3,0.1,14.6,6.5,14.6,14.8c0,8.3-6.5,14.7-14.8,14.7
		C81.6,106.7,75.2,100.2,75.2,91.9z M99,92c-0.2-1.1-0.2-2.2-0.5-3.3c-1-4.1-4.2-6.9-8.2-7c-4.3-0.1-7.7,2.3-8.9,6.5
		c-0.9,3-0.8,6,0.5,8.9c2.4,5.7,10.1,7.1,14.3,2.6C98.2,97.5,98.9,94.8,99,92z"/>
	<path d="M113.8,164.8c0-0.9,0-1.6,0-2.5c0.8,0,1.7,0,2.5,0c1.3,0,2-0.6,2-2c0-6.3,0-12.7,0-19c0-1.4-0.6-1.9-2-2
		c-0.8,0-1.6,0-2.5,0c0-0.8,0-1.5,0-2.3c5.3,0,10.5,0,15.9,0c0,0.8,0,1.5,0,2.3c-1.2,0-2.4,0-3.6,0c-1.5,0-2.1,0.5-2.1,2.1
		c0,1.8,0,3.5,0,5.5c0.7,0,1.2,0,1.8,0c3,0,5.9-0.1,8.9,0.1c4.5,0.4,7.7,4.1,7.8,8.6c0.1,4.7-2.9,8.3-7.4,9
		c-0.5,0.1-0.9,0.2-1.4,0.2C127.1,164.8,120.6,164.8,113.8,164.8z M124.2,151.1c0,3.3,0,6.4,0,9.5c3,0,5.9,0.1,8.7,0
		c2.5-0.2,3.9-1.9,3.9-4.5c0.1-2.7-1.3-4.8-3.7-4.9C130.1,151,127.2,151.1,124.2,151.1z"/>
	<path d="M200,92c0,8.2-6.4,14.7-14.6,14.7c-8.3,0-14.8-6.4-14.9-14.7c-0.1-8.2,6.5-14.7,14.8-14.7C193.5,77.3,200,83.7,200,92z
		 M194.3,91.7c-0.1-0.6-0.1-1.6-0.4-2.7c-0.9-4.1-4-7-7.8-7.2c-4.4-0.3-7.8,1.9-9.2,6c-1,3-1,5.9,0.1,8.9c1.9,5,7.7,7.2,12.3,4.7
		C193,99.3,194.2,96,194.3,91.7z"/>
	<path d="M138.2,96.7c-1.1,4.4-3.6,7.3-7.6,8.9c-5.9,2.5-13,0.8-17.2-4c-4-4.7-4.7-11.9-1.4-17.3c5.4-9.1,19.6-9.4,24.7-0.3
		c0.8,1.4,1.2,3,1.9,4.7c-1.7,0-3,0-4.4,0c-0.3,0-0.8-0.4-0.8-0.7c-1.1-4.6-5.2-6.7-9.7-6.1c-4.5,0.6-7.6,4.1-7.9,8.9
		c-0.2,3.8,0.6,7.3,3.8,9.8c4,3.1,11.3,2.3,13.4-3c0.1-0.3,0.6-0.7,0.9-0.7C135.3,96.6,136.7,96.7,138.2,96.7z"/>
	<path d="M167.8,78.1c0,1.3,0,2.6,0,3.9c-3.5,0-6.9,0-10.5,0c0,0.7,0,1.2,0,1.7c0,5.5,0,11,0,16.5c0,2.9,0.3,3.2,3.2,3.2
		c0.4,0,0.8,0,1.4,0.1c0,0.8,0,1.5,0,2.3c-4.9,0-9.7,0-14.7,0c0-0.8,0-1.5,0-2.4c0.8,0,1.6,0,2.3,0c1.8,0,2.2-0.5,2.2-2.4
		c0-4.2,0-8.3,0-12.5c0-2.1,0-4.2,0-6.4c-3.5,0-7,0-10.5,0c0-1.4,0-2.7,0-4C150,78.1,158.8,78.1,167.8,78.1z"/>
	<path d="M199.2,160.7c-4.4,0-8.6,0-13,0c0-4.6,0-9,0-13.6c4.3,0,8.6,0,13,0C199.2,151.5,199.2,156,199.2,160.7z"/>
</g>
</svg>
