<?xml version="1.0" encoding="utf-8"?>
<!-- Generator: Adobe Illustrator 23.1.1, SVG Export Plug-In . SVG Version: 6.00 Build 0)  -->
<svg version="1.1" id="Слой_1" xmlns="http://www.w3.org/2000/svg" xmlns:xlink="http://www.w3.org/1999/xlink" x="0px" y="0px"
	 viewBox="0 0 200 200" style="enable-background:new 0 0 200 200;" xml:space="preserve">
<path d="M7.3,75.8V81c0,1.1,0.4,1.5,1.5,1.5h2.4v1.7H0v-1.7h1.8c1.1,0,1.5-0.4,1.5-1.5V67.8c0-1.1-0.4-1.5-1.5-1.5H0v-1.7h11.2v1.7
	H8.8c-1.1,0-1.5,0.4-1.5,1.5v5.1h10.1v-5.1c0-1.1-0.4-1.5-1.5-1.5h-2.4v-1.7h11.2v1.7h-1.8c-1.1,0-1.5,0.4-1.5,1.5V81
	c0,1.1,0.4,1.5,1.5,1.5h1.8v1.7H13.4v-1.7h2.4c1.1,0,1.5-0.4,1.5-1.5v-5.2H7.3z"/>
<path d="M47.6,74.4c0-5.7-3.8-10.4-9.7-10.4s-10.5,4.6-10.5,10.3C27.4,80,32,84.8,38,84.8c4.7,0,8.6-2.8,9.4-7.1h-3.6
	c-0.6,2.5-3,4-5.6,4c-3.4,0-6.3-2.1-6.7-6.1h16.1C47.7,75.1,47.7,74.9,47.6,74.4L47.6,74.4z M31.6,72.4c0.5-3.5,3.2-5.3,6.3-5.3
	c3.5,0,5.6,2.7,5.6,4.7c0,0.4-0.3,0.6-1.2,0.6H31.6z"/>
<path d="M58.7,66.3v-1.7h24.2v1.7h-1.8c-1.1,0-1.5,0.4-1.5,1.5V81c0,1.1,0.4,1.5,1.5,1.5h1.8v1.7h-11v-1.7h2.2
	c1.1,0,1.5-0.4,1.5-1.5V67.4h-9.7V81c0,1.1,0.4,1.5,1.5,1.5h2.2v1.7h-11v-1.7h1.8c1.1,0,1.5-0.4,1.5-1.5V67.8c0-1.1-0.4-1.5-1.5-1.5
	H58.7z"/>
<path d="M98.3,64c-3,0-4.9,1.2-6.2,3.1v-2.6h-7.3v1.7h1.8c1.1,0,1.5,0.4,1.5,1.5v21.6c0,1.1-0.4,1.5-1.5,1.5h-1.8v1.7h11.2v-1.7
	h-2.4c-1.1,0-1.5-0.4-1.5-1.5v-7.1c1.5,1.5,3.8,2.5,6.2,2.5c5.7,0,9.7-4.6,9.7-10.4C108.1,68.7,104,64,98.3,64z M98,81.7
	c-3.2,0-6-2.7-6-7.2c0-4.6,2.8-7.2,6-7.2c3.2,0,6,2.7,6,7.2C104,79,101.2,81.7,98,81.7z"/>
<path d="M122.2,64c-5.8,0-10.4,4.5-10.4,10.4c0,5.8,4.6,10.4,10.4,10.4c5.8,0,10.4-4.5,10.4-10.4C132.6,68.6,128,64,122.2,64z
	 M122.2,81.7c-3.5,0-6.4-2.6-6.4-7.2c0-4.7,2.9-7.2,6.4-7.2c3.5,0,6.4,2.6,6.4,7.2C128.6,79.1,125.7,81.7,122.2,81.7z"/>
<path d="M152.8,77.7h3.6c-0.9,4.2-4.6,7.1-9.5,7.1c-6,0-10.5-4.6-10.5-10.5c0-5.9,4.5-10.3,10.5-10.3c5,0,8.7,3.1,9.5,8H153
	c-0.7-3.4-3.1-4.9-6-4.9c-3.6,0-6.6,2.5-6.6,7.2c0,4.6,3,7.3,6.6,7.3C149.7,81.6,152,80.3,152.8,77.7L152.8,77.7z"/>
<path d="M177.3,67.4h-7.5V81c0,1.1,0.4,1.5,1.5,1.5h1.8v1.7h-10.5v-1.7h1.8c1.1,0,1.5-0.4,1.5-1.5V67.4h-7.5v-2.9h18.9V67.4z"/>
<path d="M189.6,64c-5.8,0-10.4,4.5-10.4,10.4c0,5.8,4.6,10.4,10.4,10.4c5.8,0,10.4-4.5,10.4-10.4C200,68.6,195.4,64,189.6,64z
	 M189.6,81.7c-3.5,0-6.4-2.6-6.4-7.2c0-4.7,2.9-7.2,6.4-7.2c3.5,0,6.4,2.6,6.4,7.2C196,79.1,193,81.7,189.6,81.7z"/>
<path d="M17.5,115.6c2-0.6,2.9-2.3,2.9-4.4c0-3.1-2.4-5.2-6-5.2H0v1.7h1.8c1.1,0,1.5,0.4,1.5,1.5v13.2c0,1.1-0.4,1.5-1.5,1.5H0v1.7
	h14.9c3.7,0,6-2.2,6-5.5C20.9,118.1,19.8,116.2,17.5,115.6L17.5,115.6z M7.3,108.9h6c2,0,3.1,0.9,3.1,2.5c0,1.8-1.1,2.8-3.1,2.8h-6
	V108.9z M13.6,122.9H7.3v-5.8h6.4c2.1,0,3.2,1,3.2,3C16.9,121.9,15.8,122.9,13.6,122.9z"/>
<path d="M44.7,115.9c0-5.7-3.8-10.4-9.7-10.4c-5.9,0-10.5,4.6-10.5,10.3c0,5.7,4.5,10.5,10.5,10.5c4.7,0,8.6-2.8,9.4-7.1h-3.6
	c-0.6,2.5-3,4-5.6,4c-3.4,0-6.3-2.1-6.7-6.1h16.1C44.7,116.6,44.7,116.4,44.7,115.9L44.7,115.9z M28.6,113.9
	c0.5-3.5,3.2-5.3,6.3-5.3c3.5,0,5.6,2.7,5.6,4.7c0,0.4-0.3,0.6-1.2,0.6H28.6z"/>
<path d="M54.5,109.3v13.6h6.1v-13.6c0-1.1-0.4-1.5-1.5-1.5h-0.9V106h8.9v1.7h-0.9c-1.1,0-1.5,0.4-1.5,1.5v13.6h6.1v-13.6
	c0-1.1-0.4-1.5-1.5-1.5h-0.9V106h9.4v1.7h-1.5c-1.1,0-1.5,0.4-1.5,1.5v12.1c0,1.1,0.4,1.5,1.5,1.5h1.5v9.2h-2.4v-4.9
	c0-1.1-0.4-1.5-1.5-1.5H47.5V124H49c1.1,0,1.5-0.4,1.5-1.5v-13.2c0-1.1-0.4-1.5-1.5-1.5h-1.5V106H57v1.7h-0.9
	C55,107.8,54.5,108.2,54.5,109.3L54.5,109.3z"/>
<path d="M94.1,113.2h-6.5v-3.8c0-1.1,0.4-1.5,1.5-1.5h2.5V106H80.4v1.7h1.8c1.1,0,1.5,0.4,1.5,1.5v13.2c0,1.1-0.4,1.5-1.5,1.5h-1.8
	v1.7h13.8c3.9,0,6.6-2.7,6.6-6.3C100.7,115.9,98,113.1,94.1,113.2L94.1,113.2z M93.1,122.9h-5.4V116h5.4c2.2,0,3.6,1.2,3.6,3.5
	C96.7,121.7,95.2,122.9,93.1,122.9z"/>
<path d="M199.5,113.2h-9.3v9.7h9.3V113.2z"/>
<path d="M195.6,126.1c-0.3,4.4-2.7,6.8-7.1,6.8v3c7.3,0,10.4-4.1,10.9-9.8H195.6z"/>
</svg>
