<svg width="200" height="200" viewBox="0 0 200 200" fill="none" xmlns="http://www.w3.org/2000/svg">
<path d="M10.2636 36.6853V43.9951C10.2636 45.5842 10.8525 46.1731 12.4416 46.1731H15.8628V48.6502H0V46.1731H2.4771C4.06618 46.1731 4.65508 45.5842 4.65508 43.9951V25.3655C4.65508 23.7764 4.06618 23.1875 2.4771 23.1875H0V20.7104H15.8628V23.1875H12.4416C10.8525 23.1875 10.2636 23.7764 10.2636 25.3655V32.6192H24.5373V25.3655C24.5373 23.7764 23.9484 23.1875 22.3593 23.1875H18.9381V20.7104H34.8009V23.1875H32.3238C30.7347 23.1875 30.1458 23.7764 30.1458 25.3655V43.9951C30.1458 45.5842 30.7347 46.1731 32.3238 46.1731H34.8009V48.6502H18.9381V46.1731H22.3593C23.9484 46.1731 24.5373 45.5842 24.5373 43.9951V36.6853H10.2636Z" fill="black"/>
<path d="M67.424 34.685C67.424 26.6648 62.0024 20 53.627 20C45.2516 20 38.8298 26.5433 38.8298 34.5635C38.8298 42.5837 45.2609 49.3606 53.7485 49.3606C60.4694 49.3606 65.891 45.3505 67.0781 39.3401H62.0117C61.1237 42.8734 57.824 44.9392 54.0476 44.9392C49.215 44.9392 45.0833 41.9948 44.616 36.3302H67.3772C67.4333 35.6852 67.4333 35.3861 67.4333 34.6756L67.424 34.685ZM44.7281 31.9181C45.4946 26.9639 49.271 24.4307 53.6363 24.4307C58.5905 24.4307 61.6004 28.2632 61.6004 31.0955C61.6004 31.6283 61.1892 31.9181 59.8898 31.9181H44.7281Z" fill="black"/>
<path d="M0 81.9463V79.4692H34.2027V81.9463H31.7256C30.1365 81.9463 29.5476 82.5352 29.5476 84.1243V102.754C29.5476 104.343 30.1365 104.932 31.7256 104.932H34.2027V107.409H18.639V104.932H21.7611C23.3502 104.932 23.9391 104.343 23.9391 102.754V83.5354H10.2636V102.754C10.2636 104.343 10.8525 104.932 12.4416 104.932H15.5637V107.409H0V104.932H2.4771C4.06618 104.932 4.65508 104.343 4.65508 102.754V84.1243C4.65508 82.5352 4.06618 81.9463 2.4771 81.9463H0Z" fill="black"/>
<path d="M56.1226 78.7588C51.9349 78.7588 49.2241 80.4133 47.2799 83.1802V79.4692H37.0163V81.9463H39.4934C41.0824 81.9463 41.6713 82.5352 41.6713 84.1243V114.672C41.6713 116.261 41.0824 116.85 39.4934 116.85H37.0163V119.327H52.879V116.85H49.4578C47.8688 116.85 47.2799 116.261 47.2799 114.672V104.651C49.4018 106.773 52.5893 108.129 56.1226 108.129C64.1428 108.129 69.8635 101.585 69.8635 93.4438C69.8635 85.3021 64.1428 78.7588 56.1226 78.7588ZM55.5898 103.707C51.1124 103.707 47.1023 99.931 47.1023 93.4438C47.1023 86.9566 51.1124 83.1802 55.5898 83.1802C60.0673 83.1802 64.1428 86.9566 64.1428 93.4438C64.1428 99.931 60.1327 103.707 55.5898 103.707Z" fill="black"/>
<path d="M89.9048 78.7588C81.6509 78.7588 75.1637 85.1899 75.1637 93.4438C75.1637 101.698 81.6509 108.129 89.9048 108.129C98.1587 108.129 104.646 101.698 104.646 93.4438C104.646 85.1899 98.1587 78.7588 89.9048 78.7588ZM89.9048 103.707C85.0067 103.707 80.8844 100.053 80.8844 93.4438C80.8844 86.8351 85.016 83.1802 89.9048 83.1802C94.7936 83.1802 98.9252 86.8351 98.9252 93.4438C98.9252 100.053 94.7936 103.707 89.9048 103.707Z" fill="black"/>
<path d="M133.174 98.0989H138.25C137.016 104.109 131.707 108.119 124.864 108.119C116.377 108.119 110.002 101.632 110.002 93.3223C110.002 85.0123 116.433 78.7588 124.864 78.7588C131.997 78.7588 137.185 83.1241 138.372 90.1348H133.539C132.595 85.3021 129.118 83.1802 125.108 83.1802C119.976 83.1802 115.732 86.779 115.732 93.3223C115.732 99.8656 120.041 103.698 125.108 103.698C128.818 103.698 132.128 101.81 133.184 98.0989H133.174Z" fill="black"/>
<path d="M167.844 83.5354H157.291V102.754C157.291 104.343 157.88 104.932 159.469 104.932H161.946V107.409H147.027V104.932H149.505C151.094 104.932 151.682 104.343 151.682 102.754V83.5354H141.073V79.4692H167.844V83.5354Z" fill="black"/>
<path d="M185.259 78.7588C177.005 78.7588 170.518 85.1899 170.518 93.4438C170.518 101.698 177.005 108.129 185.259 108.129C193.513 108.129 200 101.698 200 93.4438C200 85.1899 193.513 78.7588 185.259 78.7588ZM185.259 103.707C180.361 103.707 176.239 100.053 176.239 93.4438C176.239 86.8351 180.37 83.1802 185.259 83.1802C190.148 83.1802 194.279 86.8351 194.279 93.4438C194.279 100.053 190.148 103.707 185.259 103.707Z" fill="black"/>
<path d="M24.827 151.791C27.6593 150.903 28.9586 148.491 28.9586 145.538C28.9586 141.116 25.5935 138.228 20.5272 138.228H0.009302V140.705H2.4864C4.07548 140.705 4.66438 141.294 4.66438 142.883V161.513C4.66438 163.102 4.07548 163.691 2.4864 163.691H0.009302V166.168H21.06C26.2479 166.168 29.613 163.102 29.613 158.447C29.613 155.381 28.08 152.67 24.8364 151.782L24.827 151.791ZM10.2636 142.294H18.8166C21.6489 142.294 23.2379 143.528 23.2379 145.893C23.2379 148.491 21.705 149.903 18.8166 149.903H10.2636V142.294ZM19.2839 162.111H10.2636V153.969H19.2839C22.2284 153.969 23.8829 155.381 23.8829 158.157C23.8829 160.755 22.2938 162.111 19.2839 162.111Z" fill="black"/>
<path d="M63.227 152.202C63.227 144.182 57.8054 137.517 49.43 137.517C41.0546 137.517 34.6328 144.061 34.6328 152.081C34.6328 160.101 41.0639 166.878 49.5515 166.878C56.2724 166.878 61.694 162.868 62.8811 156.857H57.8147C56.9267 160.391 53.627 162.457 49.8506 162.457C45.018 162.457 40.8863 159.512 40.419 153.848H63.1802C63.2363 153.203 63.2363 152.903 63.2363 152.193L63.227 152.202ZM40.5218 149.426C41.2883 144.472 45.0647 141.939 49.43 141.939C54.3842 141.939 57.3941 145.771 57.3941 148.604C57.3941 149.136 56.9828 149.426 55.6835 149.426H40.5218Z" fill="black"/>
<path d="M77.1641 142.883V162.101H85.8293V142.883C85.8293 141.294 85.2404 140.705 83.6513 140.705H82.352V138.228H94.9151V140.705H93.6158C92.0267 140.705 91.4378 141.294 91.4378 142.883V162.101H100.103V142.883C100.103 141.294 99.5141 140.705 97.925 140.705H96.6911V138.228H110.021V140.705H107.899C106.31 140.705 105.721 141.294 105.721 142.883V160.045C105.721 161.634 106.31 162.223 107.899 162.223H110.021V175.31H106.599V168.355C106.599 166.766 106.011 166.177 104.422 166.177H67.2744V163.7H69.3963C70.9853 163.7 71.5742 163.111 71.5742 161.522V142.892C71.5742 141.303 70.9853 140.714 69.3963 140.714H67.2744V138.237H80.604V140.714H79.3701C77.781 140.714 77.1921 141.303 77.1921 142.892L77.1641 142.883Z" fill="black"/>
<path d="M133.24 148.314H124.042V142.892C124.042 141.303 124.631 140.714 126.22 140.714H129.819V138.237H113.778V140.714H116.255C117.845 140.714 118.433 141.303 118.433 142.892V161.522C118.433 163.111 117.845 163.7 116.255 163.7H113.778V166.177H133.24C138.727 166.177 142.559 162.4 142.559 157.269C142.559 152.137 138.727 148.304 133.24 148.304V148.314ZM131.707 162.111H124.042V152.38H131.707C134.773 152.38 136.839 154.09 136.839 157.278C136.839 160.465 134.773 162.111 131.707 162.111Z" fill="black"/>
<path d="M199.299 148.314H186.091V162.111H199.299V148.314Z" fill="black"/>
<path d="M193.756 166.7C193.345 172.982 189.896 176.3 183.754 176.3V180.619C194.027 180.619 198.439 174.758 199.178 166.7H193.756Z" fill="black"/>
</svg>
