<svg width="200" height="200" viewBox="0 0 200 200" fill="none" xmlns="http://www.w3.org/2000/svg">
<path d="M147.838 0C147.838 0.499675 147.938 0.999349 147.938 1.49902V85.2445H66.4905V0H147.838Z" fill="black"/>
<path d="M52 173.187C64.0921 173.287 75.6846 171.388 86.2777 165.392C98.2699 158.696 105.665 148.203 109.862 135.312C111.88 128.99 113.122 122.446 113.56 115.824C113.583 115.221 113.649 114.619 113.76 114.025H147.338C146.638 118.522 146.139 122.82 145.339 127.117C143.298 139.332 138.993 151.059 132.647 161.694C122.554 178.084 108.064 188.777 89.8753 194.673C77.653 198.47 64.8954 200.259 52.0999 199.969C52 190.975 52 182.081 52 173.187Z" fill="black"/>
</svg>
