<svg width="200" height="200" viewBox="0 0 200 200" fill="none" xmlns="http://www.w3.org/2000/svg">
<path d="M195.378 100.441H3.7749V101.429H195.378V100.441Z" fill="black"/>
<path d="M196.225 72.7812H195.237V130.851H196.225V72.7812Z" fill="black"/>
<path d="M8.85502 119.139C8.32583 119.633 7.58495 119.844 6.77352 119.844C5.96209 119.844 5.50346 119.668 5.04482 119.244C4.58619 118.821 4.37451 118.292 4.37451 117.551V115.293C4.37451 114.552 4.58619 113.988 5.04482 113.6C5.50346 113.212 6.06793 113 6.73824 113C7.40856 113 8.11415 113.212 8.7139 113.635C8.78446 113.635 8.78446 113.741 8.7139 113.776L8.43166 114.235C8.43166 114.305 8.32583 114.305 8.25527 114.235C7.79663 113.917 7.30272 113.706 6.70296 113.706C6.10321 113.706 5.7857 113.847 5.50346 114.129C5.22122 114.411 5.0801 114.799 5.0801 115.293V117.551C5.0801 118.045 5.22122 118.433 5.50346 118.715C5.7857 118.998 6.17377 119.139 6.70296 119.139C7.23216 119.139 7.90247 118.962 8.36111 118.574C8.43166 118.504 8.46694 118.574 8.50222 118.574L8.78446 118.998C8.78446 119.068 8.78446 119.139 8.78446 119.174L8.85502 119.244V119.139Z" fill="black"/>
<path d="M11.1129 119.74H10.5485C10.4779 119.74 10.4426 119.74 10.4426 119.634V113.178C10.4426 113.108 10.4426 113.072 10.5485 113.072H14.9937C15.0643 113.072 15.0995 113.072 15.0995 113.178V119.634C15.0995 119.705 15.0995 119.74 14.9937 119.74H14.4292C14.3587 119.74 14.3234 119.74 14.3234 119.634V113.813H11.2541V119.634C11.2541 119.705 11.2541 119.74 11.1482 119.74H11.1129Z" fill="black"/>
<path d="M17.9573 116.741V119.034H21.0972C21.1677 119.034 21.203 119.034 21.203 119.14V119.669C21.203 119.74 21.203 119.775 21.0972 119.775H17.287C17.2164 119.775 17.1812 119.775 17.1812 119.669V113.213C17.1812 113.143 17.1812 113.107 17.287 113.107H20.9913C21.0619 113.107 21.0972 113.107 21.0972 113.213V113.742C21.0972 113.813 21.0972 113.848 20.9913 113.848H17.9573V116.036H20.7797C20.8502 116.036 20.8855 116.036 20.8855 116.141V116.671C20.8855 116.741 20.8855 116.776 20.7797 116.776H17.9573V116.847V116.741Z" fill="black"/>
<path d="M28.0472 120.975H27.518C27.4474 120.975 27.4121 120.975 27.4121 120.869V119.74H23.0375C22.9669 119.74 22.9316 119.74 22.9316 119.634V113.178C22.9316 113.108 22.9316 113.072 23.0375 113.072H23.602C23.6725 113.072 23.7078 113.072 23.7078 113.178V118.999H26.7418V113.178C26.7418 113.108 26.7418 113.072 26.8477 113.072H27.4121C27.4827 113.072 27.518 113.072 27.518 113.178V118.999H28.0472C28.1177 118.999 28.153 118.999 28.153 119.105V120.834C28.153 120.904 28.153 120.94 28.0472 120.94V120.975Z" fill="black"/>
<path d="M34.5033 119.74H33.9741C33.9036 119.74 33.8683 119.74 33.8683 119.634V116.812C33.8683 116.177 33.8683 115.365 33.9389 114.413C33.7272 114.836 33.445 115.33 33.1274 115.789L30.7284 119.67C30.7284 119.67 30.6579 119.74 30.5873 119.74H29.9523C29.8817 119.74 29.8464 119.74 29.8464 119.634V113.178C29.8464 113.108 29.8464 113.072 29.9523 113.072H30.5167C30.5873 113.072 30.6226 113.072 30.6226 113.178V116C30.6226 116.918 30.6226 117.729 30.552 118.505C30.6579 118.329 30.9048 117.906 31.3282 117.2L33.7625 113.178C33.7625 113.108 33.833 113.108 33.9036 113.108H34.5386C34.6092 113.108 34.6445 113.108 34.6445 113.213V119.67C34.6445 119.74 34.6445 119.775 34.5386 119.775L34.5033 119.74Z" fill="black"/>
<path d="M36.6553 119.74H36.0555C35.985 119.74 35.9497 119.74 35.9497 119.599L38.2429 113.143C38.2429 113.072 38.3134 113.037 38.3487 113.037H39.0896C39.1602 113.037 39.1954 113.037 39.2307 113.143L41.5239 119.599C41.5239 119.705 41.5239 119.74 41.418 119.74H40.8183C40.7477 119.74 40.7125 119.74 40.6772 119.634L40.148 117.976H37.3962L36.8317 119.634C36.8317 119.705 36.7611 119.74 36.6906 119.74H36.6553ZM38.6662 113.99L37.5373 117.306H39.8305L38.7015 113.99H38.6662Z" fill="black"/>
<path d="M43.9584 117.694C43.8172 118.435 43.6408 118.964 43.3586 119.317C43.1117 119.634 42.7236 119.811 42.1944 119.811C41.6652 119.811 42.0885 119.811 42.0885 119.705V119.176C42.0885 119.105 42.0885 119.07 42.1944 119.07C42.4766 119.07 42.7236 118.929 42.8294 118.717C42.9353 118.505 43.0764 118.117 43.1822 117.517C43.3233 116.706 43.3939 115.259 43.4644 113.213C43.4644 113.143 43.4645 113.107 43.5703 113.107H47.1335C47.2041 113.107 47.2394 113.107 47.2394 113.213V119.669C47.2394 119.74 47.2394 119.775 47.1335 119.775H46.5691C46.4985 119.775 46.4632 119.775 46.4632 119.669V113.848H44.2053C44.2053 115.471 44.0642 116.777 43.9231 117.729L43.9584 117.694Z" fill="black"/>
<path d="M54.0834 119.74H53.5542C53.4837 119.74 53.4484 119.74 53.4484 119.634V116.812C53.4484 116.177 53.4484 115.365 53.5189 114.413C53.3073 114.836 53.025 115.33 52.7075 115.789L50.3085 119.67C50.3085 119.67 50.2379 119.74 50.1674 119.74H49.5323C49.4618 119.74 49.4265 119.74 49.4265 119.634V113.178C49.4265 113.108 49.4265 113.072 49.5323 113.072H50.0968C50.1674 113.072 50.2027 113.072 50.2027 113.178V116C50.2027 116.918 50.2027 117.729 50.1321 118.505C50.2379 118.329 50.4849 117.906 50.9083 117.2L53.3425 113.178C53.3425 113.108 53.4131 113.108 53.4837 113.108H54.1187C54.1893 113.108 54.2245 113.108 54.2245 113.213V119.67C54.2245 119.74 54.2245 119.775 54.1187 119.775L54.0834 119.74Z" fill="black"/>
<path d="M60.2223 114.835C60.2223 115.152 60.1164 115.435 59.9753 115.717C59.7989 115.964 59.5872 116.175 59.305 116.246C59.6578 116.387 59.94 116.599 60.1517 116.846C60.3634 117.093 60.4339 117.445 60.4339 117.798C60.4339 118.433 60.2223 118.927 59.7989 119.315C59.3756 119.703 58.8111 119.844 58.1408 119.844C57.4705 119.844 56.4474 119.598 55.8476 119.033C55.777 118.962 55.777 118.927 55.8476 118.857L56.1298 118.398C56.1298 118.327 56.2357 118.327 56.271 118.398C56.7649 118.857 57.3999 119.068 58.1408 119.068C58.8816 119.068 58.9875 118.927 59.2344 118.716C59.5167 118.504 59.6578 118.186 59.6578 117.798C59.6578 117.41 59.5167 117.163 59.2697 116.952C59.0228 116.74 58.6347 116.634 58.0702 116.634H57.1529C57.0824 116.634 57.0471 116.634 57.0471 116.528V115.999C57.0471 115.928 57.0471 115.893 57.1529 115.893H58.0702C58.5288 115.893 58.8464 115.787 59.0933 115.576C59.305 115.364 59.4461 115.082 59.4461 114.8C59.4461 114.517 59.305 114.235 59.0933 113.988C58.8464 113.776 58.5288 113.671 58.0702 113.671C57.3999 113.671 56.8001 113.847 56.3768 114.27C56.3062 114.341 56.2357 114.27 56.2004 114.27L55.9182 113.847C55.9182 113.776 55.9182 113.741 55.9182 113.671C56.4473 113.141 57.1882 112.93 58.0349 112.93C58.8816 112.93 59.2344 113.106 59.6225 113.459C60.0106 113.812 60.2223 114.27 60.2223 114.764V114.658V114.835Z" fill="black"/>
<path d="M66.8547 119.74H66.3255C66.2549 119.74 66.2196 119.74 66.2196 119.634V116.812C66.2196 116.177 66.2196 115.365 66.2902 114.413C66.0785 114.836 65.7963 115.33 65.4788 115.789L63.0797 119.67C63.0797 119.67 63.0092 119.74 62.9386 119.74H62.3036C62.233 119.74 62.1978 119.74 62.1978 119.634V113.178C62.1978 113.108 62.1978 113.072 62.3036 113.072H62.8681C62.9386 113.072 62.9739 113.072 62.9739 113.178V116C62.9739 116.918 62.9739 117.729 62.9033 118.505C63.0092 118.329 63.2561 117.906 63.6795 117.2L66.1138 113.178C66.1138 113.108 66.1843 113.108 66.2549 113.108H66.8899C66.9605 113.108 66.9958 113.108 66.9958 113.213V119.67C66.9958 119.74 66.9958 119.775 66.8899 119.775L66.8547 119.74Z" fill="black"/>
<path d="M69.1478 113.107H71.3704C72.076 113.107 72.6405 113.284 73.0286 113.672C73.4167 114.06 73.6283 114.589 73.6283 115.295C73.6283 116 73.4519 116.53 73.0286 116.918C72.6405 117.306 72.076 117.482 71.3704 117.482H69.8181V119.669C69.8181 119.74 69.8181 119.775 69.7123 119.775H69.1478C69.0773 119.775 69.042 119.775 69.042 119.669V113.213C69.042 113.143 69.042 113.107 69.1478 113.107ZM69.8181 116.741H71.2646C72.323 116.741 72.8522 116.247 72.8522 115.295C72.8522 114.342 72.323 113.848 71.2646 113.848H69.8181V116.741Z" fill="black"/>
<path d="M80.0141 117.41C80.0141 118.151 79.8024 118.751 79.3438 119.174C78.8851 119.633 78.2854 119.809 77.5092 119.809C76.7331 119.809 76.1333 119.597 75.6747 119.174C75.2161 118.715 75.0044 118.151 75.0044 117.41V115.434C75.0044 114.658 75.2161 114.094 75.6747 113.635C76.1333 113.176 76.7331 113 77.5092 113C78.2854 113 78.8851 113.212 79.3438 113.635C79.8024 114.094 80.0141 114.658 80.0141 115.434V117.41ZM75.7805 117.41C75.7805 117.939 75.9569 118.327 76.2392 118.68C76.5214 118.962 76.9448 119.139 77.5092 119.139C78.0737 119.139 78.4618 118.962 78.7793 118.68C79.0968 118.398 79.2379 117.974 79.2379 117.41V115.434C79.2379 114.905 79.0615 114.482 78.7793 114.164C78.4971 113.847 78.0737 113.706 77.5092 113.706C76.9448 113.706 76.5567 113.882 76.2392 114.164C75.9217 114.446 75.7805 114.905 75.7805 115.434V117.41Z" fill="black"/>
<path d="M86.1879 114.836C86.1879 115.154 86.1173 115.401 86.0115 115.683C85.8704 115.895 85.694 116.106 85.447 116.212C85.7645 116.353 86.0468 116.53 86.2232 116.812C86.3996 117.094 86.5054 117.412 86.5054 117.8C86.5054 118.399 86.329 118.893 85.9409 119.211C85.5529 119.564 84.9884 119.74 84.2828 119.74H82.0602C81.9896 119.74 81.9543 119.74 81.9543 119.634V113.178C81.9543 113.108 81.9543 113.072 82.0602 113.072H84.2828C84.9178 113.072 85.4117 113.249 85.7645 113.566C86.0821 113.884 86.2937 114.307 86.2937 114.836H86.1879ZM85.3765 114.836C85.3765 114.519 85.2706 114.272 85.0942 114.06C84.9178 113.848 84.6003 113.778 84.2122 113.778H82.6599V115.824H84.2828C84.6356 115.824 84.8826 115.718 85.1295 115.577C85.3765 115.436 85.4117 115.154 85.4117 114.801L85.3765 114.836ZM82.6247 119.035H84.177C84.6356 119.035 85.0237 118.929 85.2706 118.752C85.5176 118.576 85.6587 118.223 85.6587 117.835C85.6587 117.447 85.5176 117.165 85.3059 116.918C85.0942 116.671 84.7414 116.6 84.2475 116.6H82.6247V119.035Z" fill="black"/>
<path d="M88.0579 119.74H87.4581C87.3876 119.74 87.3523 119.74 87.3523 119.599L89.6455 113.143C89.6455 113.072 89.716 113.037 89.7513 113.037H90.4922C90.5627 113.037 90.598 113.037 90.6333 113.143L92.9265 119.599C92.9265 119.705 92.9265 119.74 92.8206 119.74H92.2209C92.1503 119.74 92.115 119.74 92.0798 119.634L91.5506 117.976H88.7988L88.2343 119.634C88.2343 119.705 88.1637 119.74 88.0932 119.74H88.0579ZM90.1394 113.99L89.0104 117.306H91.3036L90.1747 113.99H90.1394Z" fill="black"/>
<path d="M98.0772 116.036V113.213C98.0772 113.143 98.0772 113.107 98.183 113.107H98.7475C98.818 113.107 98.8533 113.107 98.8533 113.213V119.669C98.8533 119.74 98.8533 119.775 98.7475 119.775H98.183C98.1124 119.775 98.0772 119.775 98.0772 119.669V116.741H95.0078V119.669C95.0078 119.74 95.0078 119.775 94.902 119.775H94.3375C94.267 119.775 94.2317 119.775 94.2317 119.669V113.213C94.2317 113.143 94.2317 113.107 94.3375 113.107H94.902C94.9726 113.107 95.0078 113.107 95.0078 113.213V116.036H98.0772Z" fill="black"/>
<path d="M104.816 116.036V113.213C104.816 113.143 104.816 113.107 104.922 113.107H105.486C105.557 113.107 105.592 113.107 105.592 113.213V119.669C105.592 119.74 105.592 119.775 105.486 119.775H104.922C104.851 119.775 104.816 119.775 104.816 119.669V116.741H101.746V119.669C101.746 119.74 101.746 119.775 101.641 119.775H101.076C101.005 119.775 100.97 119.775 100.97 119.669V113.213C100.97 113.143 100.97 113.107 101.076 113.107H101.641C101.711 113.107 101.746 113.107 101.746 113.213V116.036H104.816Z" fill="black"/>
<path d="M109.966 119.74H107.814C107.744 119.74 107.708 119.74 107.708 119.634V113.178C107.708 113.108 107.709 113.072 107.814 113.072H108.379C108.449 113.072 108.485 113.072 108.485 113.178V115.507H109.931C110.672 115.507 111.201 115.683 111.589 116.036C111.977 116.389 112.189 116.953 112.189 117.623C112.189 118.294 112.013 118.823 111.625 119.211C111.236 119.599 110.707 119.775 109.966 119.775V119.74ZM108.449 116.247V118.999H109.931C110.884 118.999 111.378 118.541 111.378 117.623C111.378 116.706 110.884 116.247 109.931 116.247H108.449ZM113.918 119.74H113.353C113.283 119.74 113.247 119.74 113.247 119.634V113.178C113.247 113.108 113.247 113.072 113.353 113.072H113.918C113.988 113.072 114.024 113.072 114.024 113.178V119.634C114.024 119.705 114.024 119.74 113.918 119.74Z" fill="black"/>
<path d="M120.162 119.669V116.846C120.162 116.211 120.162 115.4 120.233 114.412C120.021 114.835 119.739 115.329 119.421 115.823L117.022 119.704C117.022 119.704 116.952 119.775 116.881 119.775H116.246C116.176 119.775 116.14 119.775 116.14 119.669V113.213C116.14 113.142 116.14 113.107 116.246 113.107H116.811C116.881 113.107 116.917 113.107 116.917 113.213V116.035C116.917 116.952 116.917 117.764 116.846 118.575C116.952 118.399 117.199 117.94 117.622 117.234L120.056 113.213C120.056 113.142 120.127 113.142 120.198 113.142H120.833C120.903 113.142 120.938 113.142 120.938 113.248V119.704C120.938 119.775 120.938 119.81 120.833 119.81H120.303C120.233 119.81 120.198 119.81 120.198 119.704L120.162 119.669ZM119.986 111.166L119.562 111.061C119.492 111.061 119.457 111.061 119.421 111.166C119.351 111.696 119.033 111.943 118.539 111.943C118.045 111.943 117.728 111.696 117.657 111.166C117.657 111.096 117.587 111.061 117.516 111.061L117.093 111.166C117.022 111.166 116.987 111.237 116.987 111.308C117.058 111.696 117.199 112.013 117.481 112.225C117.763 112.436 118.081 112.578 118.504 112.578C118.927 112.578 119.28 112.436 119.527 112.225C119.774 112.013 119.951 111.696 119.986 111.308C119.986 111.237 119.986 111.202 119.88 111.202L119.986 111.166Z" fill="black"/>
<path d="M8.5023 125.983C8.5023 126.301 8.39646 126.583 8.25534 126.865C8.11422 127.147 7.86726 127.324 7.58503 127.394C7.93782 127.536 8.22006 127.747 8.43174 127.994C8.60813 128.276 8.71397 128.594 8.71397 128.947C8.71397 129.582 8.5023 130.076 8.07894 130.464C7.65558 130.852 7.09111 130.993 6.4208 130.993C5.75049 130.993 4.72738 130.746 4.12763 130.181C4.05707 130.111 4.05707 130.076 4.12763 130.005L4.40986 129.546C4.40986 129.476 4.5157 129.476 4.55098 129.546C5.0449 130.005 5.67993 130.217 6.4208 130.217C7.16167 130.217 7.26751 130.076 7.51447 129.864C7.7967 129.652 7.93782 129.335 7.93782 128.947C7.93782 128.559 7.7967 128.312 7.54975 128.1C7.30279 127.888 6.91471 127.782 6.35024 127.782H5.43297C5.36241 127.782 5.32713 127.782 5.32713 127.677V127.147C5.32713 127.077 5.32713 127.042 5.43297 127.042H6.35024C6.80888 127.042 7.12639 126.936 7.37335 126.724C7.58503 126.512 7.72614 126.23 7.72614 125.948C7.72614 125.666 7.58503 125.383 7.37335 125.137C7.12639 124.925 6.80888 124.819 6.35024 124.819C5.67993 124.819 5.08018 124.995 4.65682 125.419C4.58626 125.489 4.5157 125.419 4.48042 125.419L4.19819 124.995C4.19819 124.925 4.19819 124.89 4.19819 124.819C4.72738 124.29 5.46825 124.078 6.31496 124.078C7.16167 124.078 7.51447 124.255 7.90254 124.607C8.3259 124.96 8.5023 125.419 8.5023 125.913V125.807V125.983Z" fill="black"/>
<path d="M10.3721 130.924H9.77234C9.70178 130.924 9.6665 130.924 9.6665 130.783L11.9597 124.327C11.9597 124.256 12.0302 124.221 12.0655 124.221H12.8064C12.8769 124.221 12.9122 124.221 12.9475 124.327L15.2407 130.783C15.2407 130.889 15.2407 130.924 15.1348 130.924H14.5351C14.4645 130.924 14.4292 130.924 14.394 130.818L13.8648 129.16H11.113L10.5485 130.818C10.5485 130.889 10.4779 130.924 10.4074 130.924H10.3721ZM12.4183 125.138L11.2894 128.454H13.5825L12.4536 125.138H12.4183Z" fill="black"/>
<path d="M20.7444 130.322C20.2152 130.816 19.4744 131.028 18.6629 131.028C17.8515 131.028 17.3929 130.851 16.9342 130.428C16.4756 130.04 16.2639 129.476 16.2639 128.735V126.477C16.2639 125.736 16.4756 125.171 16.9342 124.783C17.3929 124.395 17.9573 124.184 18.6276 124.184C19.298 124.184 20.0036 124.395 20.6033 124.819C20.6739 124.819 20.6739 124.924 20.6033 124.96L20.3211 125.418C20.3211 125.489 20.2152 125.489 20.1447 125.418C19.686 125.101 19.1921 124.889 18.5924 124.889C17.9926 124.889 17.6751 125.03 17.3929 125.313C17.1106 125.595 16.9695 125.983 16.9695 126.477V128.735C16.9695 129.229 17.1106 129.617 17.3929 129.899C17.6751 130.181 18.0632 130.322 18.5924 130.322C19.1216 130.322 19.7919 130.146 20.2505 129.758C20.3211 129.687 20.3563 129.758 20.3916 129.758L20.6739 130.181C20.6739 130.252 20.6739 130.322 20.6739 130.358L20.7444 130.428V130.322Z" fill="black"/>
<path d="M21.6969 124.291H26.4244C26.4949 124.291 26.5302 124.291 26.5302 124.397V124.926C26.5302 124.997 26.5302 125.032 26.4244 125.032H24.4487V130.853C24.4487 130.924 24.4487 130.959 24.3429 130.959H23.7784C23.7078 130.959 23.6726 130.959 23.6726 130.853V125.032H21.6969C21.6263 125.032 21.5911 125.032 21.5911 124.926V124.397C21.5911 124.326 21.5911 124.291 21.6969 124.291Z" fill="black"/>
<path d="M28.0118 124.291H30.2345C30.9401 124.291 31.5045 124.467 31.8926 124.855C32.2807 125.244 32.4924 125.773 32.4924 126.478C32.4924 127.184 32.316 127.713 31.8926 128.101C31.5045 128.489 30.9401 128.666 30.2345 128.666H28.6822V130.853C28.6822 130.924 28.6822 130.959 28.5763 130.959H28.0118C27.9413 130.959 27.906 130.959 27.906 130.853V124.397C27.906 124.326 27.906 124.291 28.0118 124.291ZM28.6822 127.925H30.1286C31.187 127.925 31.7162 127.431 31.7162 126.478C31.7162 125.526 31.187 125.032 30.1286 125.032H28.6822V127.925Z" fill="black"/>
<path d="M38.8781 128.594C38.8781 129.334 38.6664 129.934 38.2078 130.358C37.7492 130.816 37.1494 130.993 36.3733 130.993C35.5971 130.993 34.9974 130.781 34.5387 130.358C34.0801 129.899 33.8684 129.334 33.8684 128.594V126.618C33.8684 125.842 34.0801 125.277 34.5387 124.819C34.9974 124.36 35.5971 124.184 36.3733 124.184C37.1494 124.184 37.7492 124.395 38.2078 124.819C38.6664 125.277 38.8781 125.842 38.8781 126.618V128.594ZM34.6446 128.594C34.6446 129.123 34.821 129.511 35.1032 129.864C35.3854 130.146 35.8088 130.322 36.3733 130.322C36.9377 130.322 37.3258 130.146 37.6433 129.864C37.9608 129.581 38.102 129.158 38.102 128.594V126.618C38.102 126.089 37.9256 125.665 37.6433 125.348C37.3611 125.066 36.9377 124.889 36.3733 124.889C35.8088 124.889 35.4207 125.066 35.1032 125.348C34.7857 125.63 34.6446 126.089 34.6446 126.618V128.594Z" fill="black"/>
<path d="M44.7697 130.852V128.03C44.7697 127.395 44.7697 126.584 44.8402 125.596C44.6286 126.019 44.3463 126.513 44.0288 127.007L41.6298 130.888C41.6298 130.888 41.5592 130.958 41.4887 130.958H40.8536C40.7831 130.958 40.7478 130.958 40.7478 130.852V124.396C40.7478 124.326 40.7478 124.29 40.8536 124.29H41.4181C41.4887 124.29 41.524 124.29 41.524 124.396V127.219C41.524 128.136 41.524 128.947 41.4534 129.759C41.5592 129.582 41.8062 129.124 42.2295 128.418L44.6638 124.396C44.6638 124.326 44.7344 124.326 44.805 124.326H45.44C45.5105 124.326 45.5458 124.326 45.5458 124.431V130.888C45.5458 130.958 45.5458 130.993 45.44 130.993H44.9108C44.8402 130.993 44.805 130.993 44.805 130.888L44.7697 130.852ZM44.5933 122.35L44.1699 122.244C44.0994 122.244 44.0641 122.244 44.0288 122.35C43.9582 122.879 43.6407 123.126 43.1468 123.126C42.6529 123.126 42.3354 122.879 42.2648 122.35C42.2648 122.279 42.1943 122.244 42.1237 122.244L41.7004 122.35C41.6298 122.35 41.5945 122.421 41.5945 122.491C41.6651 122.879 41.8062 123.197 42.0884 123.408C42.3354 123.62 42.6882 123.761 43.1115 123.761C43.5349 123.761 43.8877 123.62 44.1346 123.408C44.3816 123.197 44.558 122.879 44.5933 122.491C44.5933 122.421 44.5933 122.385 44.4874 122.385L44.5933 122.35Z" fill="black"/>
<path d="M55.2831 132.158H54.7539C54.6834 132.158 54.6481 132.158 54.6481 132.053V130.924H47.7333C47.6627 130.924 47.6274 130.924 47.6274 130.818V124.362C47.6274 124.291 47.6274 124.256 47.7333 124.256H48.2978C48.3683 124.256 48.4036 124.256 48.4036 124.362V130.183H50.7673V124.362C50.7673 124.291 50.7673 124.256 50.8732 124.256H51.4376C51.5082 124.256 51.5435 124.256 51.5435 124.362V130.183H53.9072V124.362C53.9072 124.291 53.9072 124.256 54.013 124.256H54.5775C54.6481 124.256 54.6834 124.256 54.6834 124.362V130.183H55.2126C55.2831 130.183 55.3184 130.183 55.3184 130.289V132.017C55.3184 132.088 55.3184 132.123 55.2126 132.123L55.2831 132.158Z" fill="black"/>
<path d="M61.704 130.924H61.1748C61.1043 130.924 61.069 130.924 61.069 130.818V127.995C61.069 127.36 61.069 126.549 61.1396 125.596C60.9279 126.02 60.6456 126.514 60.3281 126.972L57.9291 130.853C57.9291 130.853 57.8586 130.924 57.788 130.924H57.153C57.0824 130.924 57.0471 130.924 57.0471 130.818V124.362C57.0471 124.291 57.0471 124.256 57.153 124.256H57.7174C57.788 124.256 57.8233 124.256 57.8233 124.362V127.184C57.8233 128.101 57.8233 128.913 57.7527 129.689C57.8585 129.513 58.1055 129.089 58.5289 128.384L60.9632 124.362C60.9632 124.291 61.0337 124.291 61.1043 124.291H61.7393C61.8099 124.291 61.8451 124.291 61.8451 124.397V130.853C61.8451 130.924 61.8451 130.959 61.7393 130.959L61.704 130.924Z" fill="black"/>
<path d="M64.5968 130.924H64.0324C63.9618 130.924 63.9265 130.924 63.9265 130.818V124.362C63.9265 124.291 63.9265 124.256 64.0324 124.256H64.5968C64.6674 124.256 64.7027 124.256 64.7027 124.362V127.431L67.525 124.326C67.525 124.326 67.6309 124.256 67.6662 124.256H68.407C68.4541 124.256 68.4893 124.256 68.5129 124.256V124.362L65.8669 127.219L68.6893 130.747V130.853C68.6893 130.853 68.6893 130.853 68.5834 130.853H67.8426C67.772 130.853 67.7367 130.853 67.7014 130.783L65.3024 127.749L64.7027 128.384V130.712C64.7027 130.783 64.7027 130.818 64.5968 130.818V130.924Z" fill="black"/>
<path d="M4.33949 72.252H14.7117C14.8881 72.252 14.9939 72.3578 14.9939 72.5342V74.157C14.9939 74.3334 14.8881 74.4393 14.7117 74.4393H10.7251V86.2932C10.7251 86.4696 10.6193 86.5755 10.4429 86.5755H8.60832C8.43192 86.5755 8.32608 86.4696 8.32608 86.2932V74.4393H4.30421C4.12781 74.4393 4.02197 74.3334 4.02197 74.157V72.5342C4.02197 72.3578 4.12781 72.252 4.30421 72.252H4.33949Z" fill="black"/>
<path d="M18.6278 72.2521H23.6375C25.2251 72.2521 26.3893 72.7107 27.3066 73.5574C28.1886 74.4394 28.6119 75.6389 28.6119 77.1559C28.6119 78.673 28.1533 79.9077 27.3066 80.7897C26.4246 81.6717 25.2251 82.0598 23.6375 82.0598H20.7093V86.2934C20.7093 86.4698 20.6035 86.5756 20.4271 86.5756H18.5925C18.4161 86.5756 18.3103 86.4698 18.3103 86.2934V72.499C18.3103 72.3226 18.4161 72.2168 18.5925 72.2168L18.6278 72.2521ZM20.7446 79.8372H23.3906C24.3431 79.8372 25.0487 79.6255 25.5073 79.2022C25.966 78.7435 26.1776 78.0732 26.1776 77.1912C26.1776 76.3092 25.966 75.6036 25.5073 75.1803C25.0487 74.7569 24.3431 74.5453 23.3906 74.5453H20.7446V79.8725V79.8372Z" fill="black"/>
<path d="M32.3162 86.6462H30.3758C30.1642 86.6462 30.0936 86.505 30.1642 86.2934L34.9269 72.4638C34.9975 72.2874 35.1033 72.2168 35.2444 72.2168H37.5023C37.6787 72.2168 37.7493 72.3226 37.8198 72.4638L42.5826 86.2934C42.6531 86.505 42.5826 86.6462 42.3709 86.6462H40.4305C40.2541 86.6462 40.1483 86.5403 40.113 86.3992L39.1605 83.3299H33.7274L32.7748 86.3992C32.7043 86.5756 32.5984 86.6462 32.4573 86.6462H32.3515H32.3162ZM36.3028 74.9333L34.3271 81.2131H38.4196L36.4439 74.9333H36.3381H36.3028Z" fill="black"/>
<path d="M53.8367 78.2845V72.6045C53.8367 72.4281 53.9425 72.3223 54.1189 72.3223H55.9535C56.1299 72.3223 56.2357 72.4281 56.2357 72.6045V86.3988C56.2357 86.5752 56.1299 86.6811 55.9535 86.6811H54.1189C53.9425 86.6811 53.8367 86.5752 53.8367 86.3988V80.5424H48.2625V86.3988C48.2625 86.5752 48.1567 86.6811 47.9803 86.6811H46.1458C45.9694 86.6811 45.8635 86.5752 45.8635 86.3988V72.6045C45.8635 72.4281 45.9694 72.3223 46.1458 72.3223H47.9803C48.1567 72.3223 48.2625 72.4281 48.2625 72.6045V78.2845H53.8367Z" fill="black"/>
<path d="M70.2418 85.447C68.9718 86.3996 67.49 86.9288 65.6907 86.9288C63.8915 86.9288 62.7978 86.4701 61.7747 85.6234C60.7516 84.7414 60.2224 83.4714 60.2224 81.8132V77.2269C60.2224 75.5687 60.7516 74.2634 61.7747 73.4167C62.7978 72.5347 64.1032 72.1113 65.6555 72.1113C67.2078 72.1113 68.6542 72.57 69.889 73.452C70.0654 73.5578 70.0654 73.6989 69.9596 73.8753L69.0423 75.2512C68.9365 75.4276 68.8306 75.4276 68.619 75.3571C67.737 74.7573 66.7844 74.4398 65.6555 74.4398C64.5265 74.4398 63.9621 74.6867 63.4329 75.2159C62.9037 75.7451 62.6214 76.4507 62.6214 77.3327V81.8485C62.6214 82.7658 62.8684 83.4714 63.4329 83.9653C63.9621 84.4945 64.7029 84.7414 65.6907 84.7414C66.6786 84.7414 68.0192 84.3886 68.9718 83.683C69.1481 83.5419 69.254 83.5772 69.3598 83.7889L70.2771 85.1648C70.3829 85.3412 70.3829 85.4823 70.2771 85.5881V85.5176L70.2418 85.447Z" fill="black"/>
<path d="M89.1516 81.7076C89.1516 83.401 88.6224 84.7064 87.5993 85.5531C86.5761 86.4704 85.3061 86.8584 83.8243 86.8584C82.3426 86.8584 81.0725 86.3998 80.0494 85.5178C79.0263 84.6005 78.4971 83.3305 78.4971 81.6371V80.367H76.1687V86.3292C76.1687 86.5056 76.0628 86.6115 75.8864 86.6115H74.0872C73.9108 86.6115 73.8049 86.5056 73.8049 86.3292V72.5349C73.8049 72.3585 73.9108 72.2527 74.0872 72.2527H75.8864C76.0628 72.2527 76.1687 72.3585 76.1687 72.5349V78.1091H78.4618V77.1918C78.4618 75.4984 78.991 74.1931 80.0141 73.3464C81.0372 72.4644 82.3073 72.041 83.7891 72.041C85.2708 72.041 86.5409 72.4996 87.564 73.3464C88.5871 74.2283 89.1163 75.4984 89.1163 77.1918V81.7076H89.1516ZM80.9314 81.6723C80.9314 82.6249 81.2136 83.3658 81.7781 83.8597C82.3426 84.3536 83.0482 84.6006 83.8243 84.6006C84.6005 84.6006 85.3414 84.3536 85.8706 83.8597C86.3997 83.3658 86.682 82.6249 86.682 81.6723V77.1918C86.682 76.204 86.435 75.4631 85.8706 74.9692C85.3061 74.4753 84.6358 74.2636 83.8243 74.2636C83.0129 74.2636 82.272 74.4753 81.7428 74.9692C81.2136 75.4279 80.9314 76.1687 80.9314 77.1918V81.6723Z" fill="black"/>
<path d="M109.332 86.6459H107.003C106.827 86.6459 106.756 86.5753 106.65 86.4695L102.558 80.472L101.605 81.6009V86.3989C101.605 86.5753 101.5 86.6812 101.323 86.6812H99.5239C99.3475 86.6812 99.2416 86.5753 99.2416 86.3989V81.6009L98.2891 80.472L94.1967 86.4695C94.1261 86.6106 94.0203 86.6459 93.8439 86.6459H91.5154C91.2685 86.6459 91.1979 86.5048 91.339 86.2931L96.7721 78.6374L91.8329 72.6399C91.7624 72.5341 91.7271 72.4635 91.7624 72.3929C91.7624 72.3224 91.8682 72.2871 91.9741 72.2871H94.2319C94.4083 72.2871 94.5495 72.3577 94.62 72.4635L99.2064 78.5669V72.6046C99.2064 72.4282 99.3122 72.3224 99.4886 72.3224H101.288C101.464 72.3224 101.57 72.4282 101.57 72.6046V78.5669L106.192 72.4635C106.262 72.3224 106.368 72.2871 106.545 72.2871H108.802C109.085 72.2871 109.155 72.4282 108.979 72.6399L104.04 78.6374L109.473 86.2931C109.649 86.5401 109.543 86.6459 109.296 86.6459H109.332Z" fill="black"/>
<path d="M121.856 85.447C120.586 86.3996 119.104 86.9288 117.305 86.9288C115.506 86.9288 114.412 86.4701 113.389 85.6234C112.366 84.7414 111.836 83.4714 111.836 81.8132V77.2269C111.836 75.5687 112.366 74.2634 113.389 73.4167C114.412 72.5347 115.717 72.1113 117.269 72.1113C118.822 72.1113 120.268 72.57 121.503 73.452C121.679 73.5578 121.679 73.6989 121.574 73.8753L120.656 75.2512C120.55 75.4276 120.445 75.4276 120.233 75.3571C119.351 74.7573 118.398 74.4398 117.269 74.4398C116.141 74.4398 115.576 74.6867 115.047 75.2159C114.518 75.7451 114.235 76.4507 114.235 77.3327V81.8485C114.235 82.7658 114.482 83.4714 115.047 83.9653C115.576 84.4945 116.317 84.7414 117.305 84.7414C118.293 84.7414 119.633 84.3886 120.586 83.683C120.762 83.5419 120.868 83.5772 120.974 83.7889L121.891 85.1648C121.997 85.3412 121.997 85.4823 121.891 85.5881V85.5176L121.856 85.447Z" fill="black"/>
<path d="M124.925 72.252H135.297C135.474 72.252 135.58 72.3578 135.58 72.5342V74.157C135.58 74.3334 135.474 74.4393 135.297 74.4393H131.311V86.2932C131.311 86.4696 131.205 86.5755 131.029 86.5755H129.194C129.018 86.5755 128.912 86.4696 128.912 86.2932V74.4393H124.89C124.714 74.4393 124.608 74.3334 124.608 74.157V72.5342C124.608 72.3578 124.714 72.252 124.89 72.252H124.925Z" fill="black"/>
<path d="M139.249 72.2521H144.258C145.846 72.2521 147.01 72.7107 147.927 73.5574C148.809 74.4394 149.233 75.6389 149.233 77.1559C149.233 78.673 148.774 79.9077 147.927 80.7897C147.045 81.6717 145.846 82.0598 144.258 82.0598H141.33V86.2934C141.33 86.4698 141.224 86.5756 141.048 86.5756H139.213C139.037 86.5756 138.931 86.4698 138.931 86.2934V72.499C138.931 72.3226 139.037 72.2168 139.213 72.2168L139.249 72.2521ZM141.33 79.8372H143.976C144.929 79.8372 145.634 79.6255 146.093 79.2022C146.552 78.7435 146.763 78.0732 146.763 77.1912C146.763 76.3092 146.552 75.6036 146.093 75.1803C145.634 74.7569 144.929 74.5453 143.976 74.5453H141.33V79.8725V79.8372Z" fill="black"/>
<path d="M163.697 81.3197C163.697 83.0836 163.204 84.4243 162.216 85.4474C161.263 86.4352 159.887 86.9291 158.088 86.9291C156.289 86.9291 154.983 86.4352 153.96 85.4474C153.008 84.4596 152.479 83.1189 152.479 81.3197V77.6153C152.479 75.8513 152.972 74.5107 153.96 73.4876C154.913 72.5351 156.289 72.0059 158.088 72.0059C159.887 72.0059 161.193 72.4998 162.216 73.4876C163.168 74.4402 163.697 75.8161 163.697 77.6153V81.3197ZM155.019 81.3197C155.019 82.3781 155.266 83.2248 155.83 83.754C156.359 84.3184 157.135 84.6007 158.159 84.6007C159.182 84.6007 159.958 84.3184 160.487 83.754C161.016 83.1895 161.298 82.3781 161.298 81.3197V77.6153C161.298 75.3927 160.275 74.299 158.194 74.299C156.112 74.299 155.089 75.3927 155.089 77.6153V81.3197H155.019Z" fill="black"/>
<path d="M176.01 86.3645V81.7781C176.01 80.1553 176.08 78.3207 176.186 76.2392H176.116C175.481 77.5799 174.775 78.9205 173.999 80.1905L170.224 86.5056C170.154 86.6467 170.048 86.682 169.907 86.682H167.931C167.755 86.682 167.649 86.5761 167.649 86.3997V72.6054C167.649 72.429 167.755 72.3232 167.931 72.3232H169.73C169.907 72.3232 170.012 72.429 170.012 72.6054V77.5093C170.012 79.4497 169.942 81.2489 169.836 82.9776H169.907C170.295 82.272 170.93 81.0725 171.882 79.3438L175.728 72.4996C175.834 72.3585 175.939 72.3232 176.081 72.3232H178.056C178.233 72.3232 178.338 72.429 178.338 72.6054V86.3997C178.338 86.5761 178.233 86.682 178.056 86.682H176.257C176.081 86.682 175.975 86.5761 175.975 86.3997L176.01 86.3645ZM176.292 68.1602L175.022 67.878C174.846 67.878 174.74 67.878 174.705 68.0896C174.528 68.9011 174.034 69.3244 173.117 69.3244C172.2 69.3244 171.741 68.9011 171.529 68.0896C171.459 67.9132 171.353 67.8427 171.212 67.878L169.942 68.1602C169.765 68.2308 169.66 68.3366 169.73 68.4777C169.836 69.3244 170.189 69.9595 170.753 70.4534C171.318 70.9473 172.129 71.1942 173.082 71.1942C174.034 71.1942 174.846 70.9473 175.41 70.4534C175.975 69.9595 176.327 69.2891 176.433 68.4777C176.433 68.3013 176.363 68.2308 176.222 68.1955L176.292 68.1602Z" fill="black"/>
</svg>
