<svg width="200" height="200" viewBox="0 0 200 200" fill="none" xmlns="http://www.w3.org/2000/svg">
<g clip-path="url(#clip0_6598_2153)">
<path fill-rule="evenodd" clip-rule="evenodd" d="M97.9351 82H102.252V118.75H97.9351V82ZM110.004 86.5081H144.865V110.101L114.234 110.112V114.335L110.011 114.339L110.004 86.5081ZM114.234 90.6523V105.863L140.627 105.867V90.6486L114.234 90.6523ZM148.739 86.5153L200 86.5081V110.101L176.4 110.108V114.335H172.259V110.108L148.742 110.101V86.5153H148.739ZM152.89 90.6486V105.867H172.252V90.6486H152.89ZM176.4 90.6486V105.867H195.762V90.6486H176.4Z" fill="#9DABB5"/>
<path fill-rule="evenodd" clip-rule="evenodd" d="M29.2829 86.5009C34.7495 86.5009 40.2162 86.49 45.6793 86.5009C49.7333 86.5297 53.7297 88.3928 56.2919 91.5423C59.8559 95.7045 60.4901 102.025 57.9712 106.865C55.7369 111.272 51.0234 114.31 46.0721 114.414C40.4757 114.44 34.8793 114.414 29.2829 114.425C29.2793 113.041 29.2793 111.661 29.2829 110.281C34.8685 110.274 40.4505 110.292 46.0324 110.274C50.4685 110.169 54.3964 106.667 55.2577 102.357C48.1622 102.35 41.0631 102.357 33.9676 102.357C33.9676 101.067 33.9676 99.7729 33.9676 98.4828C41.0559 98.472 48.1441 98.4973 55.2324 98.472C54.3243 94.227 50.4541 90.7351 46.0541 90.6486C40.4649 90.6378 34.8721 90.6522 29.2829 90.6486C29.2829 89.2648 29.2793 87.8846 29.2829 86.5045V86.5009ZM62.0757 86.5009C70.6955 86.5009 79.3117 86.4973 87.9315 86.5009V90.6414C80.6018 90.6414 73.2757 90.6378 65.9495 90.6414V98.4756C71.6721 98.5009 77.3982 98.4252 83.1171 98.5117C87.2901 98.7243 90.6739 102.742 90.3459 106.876C90.1946 109.87 88.2342 112.695 85.4342 113.805C84.0505 114.425 82.5081 114.447 81.0162 114.429C74.7027 114.411 68.3892 114.429 62.0721 114.418C62.0793 105.11 62.0721 95.8018 62.0721 86.4937L62.0757 86.5009ZM65.9495 102.357V110.281C71.3261 110.288 76.7027 110.281 82.0793 110.288C84.6018 110.497 86.8 107.867 86.1153 105.427C85.7081 103.618 83.9099 102.299 82.0721 102.364C76.6991 102.346 71.3225 102.364 65.9495 102.357ZM0.0036036 86.5045C6.22342 86.4973 12.4468 86.4973 18.6667 86.5045C21.7622 86.4792 24.7928 88.3747 26.0288 91.2324C27.4198 94.1513 26.7099 97.7477 24.5874 100.13C26.9189 102.076 28.0396 105.34 27.2649 108.295C26.4937 111.694 23.2757 114.346 19.7838 114.411C13.1892 114.45 6.59459 114.418 0 114.425C0.0036036 105.117 0.0036036 95.8126 0.0036036 86.5045ZM3.87748 90.645C3.87748 93.2576 3.87387 95.8702 3.88108 98.4828C8.81441 98.472 13.7477 98.4973 18.6811 98.4756C20.6126 98.4937 22.3856 96.9261 22.5874 95.0018C22.9081 92.7639 20.9225 90.5765 18.6667 90.6486C13.7369 90.6378 8.80721 90.6486 3.87748 90.6486V90.645ZM3.87748 102.357V110.285C9.04504 110.285 14.2162 110.285 19.3838 110.285C21.7225 110.382 23.755 108.058 23.3225 105.748C23.0883 103.838 21.2793 102.353 19.3766 102.368C14.2126 102.335 9.04504 102.368 3.87748 102.353V102.357Z" fill="#3C576C"/>
</g>
<defs>
<clipPath id="clip0_6598_2153">
<rect width="200" height="36.7495" fill="white" transform="translate(0 82)"/>
</clipPath>
</defs>
</svg>
