<svg width="200" height="200" viewBox="0 0 200 200" fill="none" xmlns="http://www.w3.org/2000/svg">
<g clip-path="url(#clip0_8008_31)">
<path d="M0.000183105 159.475V131.644H5.05703V142.972H8.66374L15.2101 131.644H20.6983L12.8193 144.893V144.972L21.169 159.476H15.4459L8.66447 147.324H5.05776V159.476H0.000912914L0.000183105 159.475ZM22.6184 145.363C22.6184 141.365 23.997 138 26.7542 135.269C29.5115 132.538 32.9284 131.173 37.0051 131.173C41.0818 131.173 44.4988 132.538 47.256 135.269C50.0132 138 51.3918 141.365 51.3918 145.363C51.3918 149.466 50.0132 152.923 47.256 155.732C44.4988 158.541 41.0818 159.945 37.0051 159.945C32.9284 159.945 29.5115 158.541 26.7542 155.732C23.997 152.923 22.6184 149.466 22.6184 145.363ZM27.8322 145.363C27.8322 148.185 28.7203 150.551 30.4974 152.458C32.2745 154.366 34.4435 155.32 37.0051 155.32C39.566 155.32 41.735 154.366 43.5121 152.458C45.2892 150.551 46.1774 148.185 46.1774 145.363C46.1774 142.672 45.2892 140.404 43.5121 138.562C41.735 136.719 39.566 135.798 37.0051 135.798C34.4442 135.798 32.2745 136.719 30.4974 138.562C28.7203 140.404 27.8322 142.672 27.8322 145.363ZM55.4291 159.475L57.7025 131.644H63.0732L68.5613 145.403L69.9334 149.479H70.0115C70.5077 147.859 70.9653 146.5 71.3835 145.403L76.8717 131.644H82.2423L84.5157 159.475H79.4588L78.3218 143.913C78.2692 143.364 78.243 142.731 78.243 142.012C78.243 141.293 78.2561 140.712 78.2824 140.268V139.601H78.2036C77.6022 141.405 77.0928 142.842 76.6746 143.914L72.1666 154.694H67.776L63.268 143.914L61.7391 139.563H61.6603C61.7391 141.235 61.7259 142.686 61.6208 143.914L60.4838 159.476H55.427L55.4291 159.475ZM88.1224 144.658C88.1224 141.261 89.3047 138.491 91.67 136.348C94.0346 134.205 97.099 133.133 100.862 133.133V130.075H105.919V133.133C109.682 133.133 112.746 134.204 115.111 136.348C117.476 138.491 118.658 141.261 118.658 144.658C118.658 148.134 117.483 150.963 115.13 153.145C112.778 155.327 109.708 156.418 105.918 156.418V159.946H100.861V156.418C97.0983 156.418 94.0338 155.321 91.6692 153.125C89.3039 150.93 88.1217 148.108 88.1217 144.658H88.1224ZM105.919 152.185C108.167 152.185 109.996 151.486 111.408 150.087C112.818 148.69 113.525 146.88 113.525 144.658C113.525 142.489 112.819 140.732 111.408 139.386C109.996 138.04 108.167 137.367 105.919 137.367V152.185V152.185ZM93.2967 144.658C93.2967 146.88 93.9959 148.69 95.3942 150.087C96.7918 151.486 98.6148 152.185 100.863 152.185V137.367C98.6148 137.367 96.7925 138.04 95.3942 139.385C93.9959 140.731 93.2967 142.488 93.2967 144.657V144.658ZM121.678 145.364C121.678 141.366 123.056 138.001 125.813 135.27C128.571 132.539 131.988 131.174 136.064 131.174C140.141 131.174 143.558 132.539 146.315 135.27C149.072 138.001 150.451 141.366 150.451 145.364C150.451 149.467 149.072 152.923 146.315 155.732C143.558 158.541 140.141 159.946 136.064 159.946C131.988 159.946 128.571 158.541 125.813 155.732C123.056 152.923 121.678 149.467 121.678 145.364ZM126.891 145.364C126.891 148.186 127.779 150.551 129.557 152.459C131.334 154.367 133.503 155.321 136.064 155.321C138.625 155.321 140.794 154.367 142.571 152.459C144.348 150.551 145.236 148.186 145.236 145.364C145.236 142.672 144.348 140.405 142.571 138.563C140.794 136.72 138.625 135.799 136.064 135.799C133.503 135.799 131.334 136.72 129.557 138.563C127.779 140.405 126.891 142.672 126.891 145.364ZM155.546 159.476V131.644H166.287C168.901 131.644 171.03 132.481 172.677 134.153C174.323 135.826 175.146 138.008 175.146 140.7C175.146 143.391 174.323 145.593 172.677 147.305C171.03 149.017 168.901 149.873 166.287 149.873H160.603V159.477H155.546L155.546 159.476ZM160.603 145.481H165.346C166.81 145.481 167.953 145.05 168.776 144.187C169.6 143.325 170.011 142.162 170.011 140.699C170.011 139.262 169.6 138.118 168.776 137.269C167.953 136.419 166.836 135.995 165.425 135.995H160.603V145.481ZM185.849 159.476V135.995H176.715V131.644H200.001V135.995H190.867V159.476H185.85H185.849ZM121.59 121.512V111.354H128.263V113.506H124.119V121.512H121.59ZM131.191 125.496V111.354H133.501V112.111L133.462 112.828H133.501C133.833 112.284 134.288 111.862 134.866 111.564C135.443 111.265 136.077 111.115 136.768 111.115C138.135 111.115 139.228 111.607 140.045 112.59C140.861 113.572 141.27 114.854 141.27 116.434C141.27 118.027 140.835 119.311 139.965 120.288C139.096 121.263 137.983 121.752 136.629 121.752C135.421 121.752 134.445 121.274 133.701 120.318H133.661C133.701 120.557 133.721 120.849 133.721 121.194V125.496H131.191L131.191 125.496ZM133.641 116.493C133.641 117.342 133.866 118.076 134.318 118.694C134.77 119.311 135.387 119.62 136.17 119.62C136.901 119.62 137.508 119.338 137.992 118.773C138.477 118.209 138.719 117.442 138.719 116.473C138.719 115.517 138.486 114.747 138.022 114.162C137.557 113.578 136.953 113.286 136.209 113.286C135.479 113.286 134.868 113.554 134.377 114.092C133.886 114.63 133.64 115.43 133.64 116.493H133.641ZM144.078 123.146C144.45 123.424 144.821 123.564 145.193 123.564C146.003 123.564 146.594 123.125 146.965 122.249L147.344 121.353L143.062 111.355H145.91L148.041 117.211L148.42 118.585H148.459C148.579 118.054 148.691 117.609 148.798 117.25L150.79 111.355H153.538L149.017 123.046C148.685 123.936 148.191 124.6 147.533 125.038C146.876 125.477 146.149 125.696 145.353 125.696C144.994 125.696 144.639 125.642 144.287 125.536C143.935 125.43 143.673 125.324 143.5 125.218L143.241 125.038L144.078 123.146V123.146ZM156.386 121.512V111.354H165.648V121.512H163.119V113.506H158.916V121.512H156.386ZM169.552 121.512V111.354H178.814V121.512H176.285V113.506H172.082V121.512H169.552ZM181.941 118.704C181.941 117.987 182.137 117.376 182.529 116.871C182.921 116.366 183.438 115.998 184.083 115.766C184.727 115.534 185.351 115.371 185.955 115.278C186.56 115.185 187.194 115.138 187.857 115.138H188.295V114.999C188.295 113.804 187.658 113.206 186.383 113.206C185.453 113.206 184.51 113.532 183.555 114.182L182.619 112.369C183.057 112.024 183.648 111.729 184.391 111.483C185.135 111.237 185.872 111.115 186.602 111.115C187.93 111.115 188.966 111.47 189.71 112.18C190.453 112.89 190.825 113.883 190.825 115.158V121.512H188.475V120.655L188.535 119.918H188.495C188.176 120.462 187.732 120.904 187.16 121.242C186.59 121.581 185.965 121.75 185.288 121.75C184.345 121.75 183.552 121.468 182.908 120.904C182.264 120.34 181.941 119.606 181.941 118.703V118.704ZM184.451 118.485C184.451 118.843 184.588 119.156 184.859 119.421C185.131 119.687 185.507 119.82 185.985 119.82C186.662 119.82 187.219 119.541 187.657 118.984C188.096 118.426 188.315 117.815 188.315 117.151V116.872H187.876C185.592 116.872 184.451 117.41 184.451 118.486L184.451 118.485ZM150.371 101.181H150.254C149.026 101.166 147.804 100.687 146.864 99.748L137.955 90.8414C126.147 92.9294 113.994 96.8032 105.446 102.761C87.683 115.144 58.0784 122.141 34.3931 103.299C34.3931 103.299 59.4278 113.793 96.2962 92.8046H96.2955C108.073 86.0991 119.296 83.0835 129.292 82.1815L101.26 54.1546L54.9139 98.1234C52.9609 99.9837 49.8687 99.9034 48.0106 97.9417C46.1482 95.9858 46.2336 92.8936 48.1902 91.0362L101.441 40.5058L119.173 58.2357V44.8875V44.8883C119.173 42.1865 121.362 40.0022 124.057 40.0022C126.763 40.0022 128.949 42.1872 128.949 44.8883V68.0152L143.136 82.2041C157.245 83.517 167.18 88.4031 169.992 89.9525C165.309 88.9227 158.218 88.6629 150.214 89.2825L153.769 92.8381C155.679 94.7481 155.679 97.8402 153.769 99.7509C152.827 100.691 151.602 101.168 150.371 101.183V101.181Z" fill="#002395"/>
</g>
<defs>
<clipPath id="clip0_8008_31">
<rect width="200" height="119.946" fill="white" transform="translate(0 40)"/>
</clipPath>
</defs>
</svg>
