<svg width="200" height="200" viewBox="0 0 200 200" fill="none" xmlns="http://www.w3.org/2000/svg">
<g clip-path="url(#clip0_6463_865)">
<path d="M112.856 112.395H100.391V88.6069H111.348C116.306 88.6069 118.998 91.6933 118.998 95.3443C118.998 96.9825 118.171 98.6592 116.902 99.9248C118.771 100.91 120.375 103.132 120.375 105.448C120.375 109.524 117.189 112.393 112.854 112.393L112.856 112.395ZM106.277 107.609H112.054C113.481 107.609 114.419 106.555 114.419 105.26V105.222C114.419 103.927 113.481 102.873 112.054 102.873H106.277V107.609ZM106.277 98.0888H110.583C112.125 98.0888 113.042 97.0344 113.042 95.7399C113.042 94.4454 112.181 93.3911 110.583 93.3911H106.277V98.0888Z" fill="#2DBE64"/>
<path d="M46.5748 112.395L37.9999 100.234L46.3171 88.6069H39.3845L32.7749 98.1349V88.6069H26.75V112.395H32.7749V102.633L39.4114 112.395H46.5748Z" fill="#2DBE64"/>
<path d="M154.842 88.605V106.209C154.842 106.998 154.492 107.605 153.752 107.605C152.708 107.605 152.662 106.413 152.662 105.623H147.008C147.008 109.439 149.198 112.998 153.925 112.998C158.038 112.998 160.867 109.656 160.867 105.548V93.9614H169.015V112.395H175.04V88.605H154.842Z" fill="#2DBE64"/>
<path d="M73.6607 88.6069L65.3204 106.17C63.7762 109.514 60.5955 112.994 55.1801 112.994C50.5706 112.994 46.236 110.198 45.4648 104.037H51.3071C51.7398 106.497 53.4936 107.592 55.4513 107.592C57.1301 107.592 58.259 106.597 58.5686 106.028L48.636 88.6069H55.5667L61.8762 100.123L67.08 88.6069H73.6607Z" fill="#2DBE64"/>
<path d="M16.0441 112.393H0V88.605H14.5364C19.494 88.605 22.1863 91.6913 22.1863 95.3423C22.1863 96.9806 21.3594 98.6572 20.0902 99.9229C21.9594 100.908 23.5632 103.13 23.5632 105.446C23.5632 109.522 20.3767 112.391 16.0421 112.391L16.0441 112.393ZM5.8884 107.607H15.2441C16.671 107.607 17.6094 106.553 17.6094 105.258V105.22C17.6094 103.925 16.671 102.871 15.2441 102.871H5.88648V107.607H5.8884ZM5.8884 98.0868H13.771C15.3133 98.0868 16.2306 97.0324 16.2306 95.738C16.2306 94.4435 15.3691 93.3891 13.771 93.3891H5.88648V98.0868H5.8884Z" fill="#2DBE64"/>
<path d="M139.917 88.6069L129.861 102.354V88.6069H123.836V112.393L129.332 112.395L139.392 98.6573V112.393H145.416V88.6069H139.917Z" fill="#2DBE64"/>
<path d="M181.851 88.605V104.694C181.851 106.182 180.999 107.063 179.478 107.063H177.703V112.393H180.897C185.093 112.393 187.878 109.754 187.878 104.909V93.9614H193.976V112.395H200.001V88.605H181.853H181.851Z" fill="#2DBE64"/>
<path d="M90.9302 103.464C90.0033 105.644 88.011 107.181 85.2341 107.181C81.313 107.181 78.9534 104.121 78.9534 100.507V100.497C78.9534 96.8807 81.313 93.8232 85.2341 93.8232C88.0206 93.8232 90.0186 95.3692 90.9417 97.5625H97.4243C96.2109 92.1119 91.634 88 85.2341 88C77.7265 88 72.7227 93.658 72.7227 100.495V100.505C72.7227 107.342 77.7265 113 85.2341 113C91.6244 113 96.1974 108.9 97.4186 103.462H90.9302V103.464Z" fill="#2DBE64"/>
</g>
<defs>
<clipPath id="clip0_6463_865">
<rect width="200" height="25" fill="white" transform="translate(0 88)"/>
</clipPath>
</defs>
</svg>
