<svg width="200" height="200" viewBox="0 0 200 200" fill="none" xmlns="http://www.w3.org/2000/svg">
<g clip-path="url(#clip0_8003_69)">
<path fill-rule="evenodd" clip-rule="evenodd" d="M35.6277 85.0579C37.6438 84.6711 39.7955 86.2738 39.9133 88.3388C40.0289 89.9303 38.8708 91.4041 37.3948 91.8953C35.3143 92.62 32.6291 91.0884 32.6424 88.7811C32.5179 86.994 33.8872 85.3646 35.6277 85.0579ZM153.892 85.0468C155.968 84.78 157.957 86.725 157.822 88.7989C157.908 90.1326 156.932 91.3707 155.699 91.7953C153.785 92.5444 151.158 91.5864 150.689 89.4502C150.148 87.3963 151.764 85.1468 153.892 85.0468ZM42.2517 85.2979C43.85 85.2379 45.4504 85.2602 47.0508 85.2868C47.0753 94.9562 47.0931 104.628 47.0397 114.297C45.446 114.328 43.85 114.35 42.2584 114.288C42.2095 104.626 42.2228 94.9606 42.2517 85.2979ZM51.8766 85.3024C53.9772 85.2424 56.08 85.2535 58.1806 85.2935C61.0436 88.7278 63.8666 92.1954 66.7341 95.6275C67.9455 97.1635 69.3615 98.5772 70.2328 100.353C71.2087 102.409 71.4665 104.817 70.8819 107.022C70.0639 110.294 67.5321 113.03 64.4223 114.279C62.0172 115.264 59.2587 115.315 56.8069 114.468C54.4951 113.612 52.3857 112.061 51.1098 109.927C49.5916 107.62 49.1648 104.652 49.8894 101.996C50.5807 99.4952 52.2545 97.2924 54.4329 95.8964C55.8577 94.8984 57.5671 94.4272 59.2631 94.1537C57.7494 92.2176 56.1334 90.3638 54.5752 88.4633C53.6527 87.4274 52.868 86.2738 51.8766 85.3024ZM59.2076 98.6972C57.3915 99.0395 55.7244 100.269 54.9597 101.963C54.0328 103.748 54.2084 106.03 55.3487 107.68C56.5446 109.491 58.7608 110.496 60.9103 110.303C63.82 110.143 66.5074 107.562 66.4118 104.579C66.5607 102.496 65.3115 100.489 63.5399 99.4619C62.2506 98.695 60.6791 98.4238 59.2076 98.6972ZM73.4893 85.2668C75.0853 85.2068 76.6813 85.2402 78.2773 85.2402C78.3151 88.6856 78.2973 92.131 78.2862 95.5764C79.1286 95.2452 79.88 94.7117 80.7513 94.4472C83.0564 93.6936 85.6105 93.6358 87.9155 94.4249C90.7185 95.2896 93.0725 97.4169 94.3129 100.064C95.5554 102.865 95.571 106.217 94.1928 108.971C92.5902 112.292 89.1981 114.606 85.5415 114.98C82.1161 115.377 78.5307 114.053 76.2256 111.481C74.4073 109.507 73.3937 106.808 73.4804 104.128C73.4804 97.8414 73.4626 91.553 73.4893 85.2668ZM82.9986 98.7217C80.9003 99.1018 79.0953 100.727 78.5329 102.787C78.0706 104.448 78.3307 106.317 79.3198 107.74C80.4379 109.409 82.4674 110.403 84.4701 110.303C87.4776 110.387 90.2584 107.802 90.3873 104.794C90.5763 102.834 89.6004 100.851 87.9956 99.7286C86.5818 98.6706 84.7058 98.3905 82.9986 98.7217ZM101.704 95.9987C103.838 94.4516 106.527 93.7003 109.155 93.9137C112.242 94.0359 115.201 95.8098 116.777 98.4683C118.079 100.596 118.344 103.167 118.237 105.612C112.987 105.657 107.732 105.599 102.482 105.644C102.564 107.462 103.94 108.973 105.527 109.711C107.339 110.601 109.564 110.394 111.282 109.382C112.151 108.885 112.796 108.098 113.392 107.311C114.667 108.269 115.968 109.222 117.126 110.325C116.183 111.394 115.254 112.508 114.036 113.275C111.66 114.897 108.624 115.422 105.818 114.853C103.06 114.308 100.563 112.563 99.0986 110.163C97.7005 107.975 97.187 105.272 97.536 102.709C97.9361 100.033 99.4854 97.5458 101.704 95.9987ZM103.066 101.658C106.338 101.68 109.619 101.74 112.889 101.627C112.547 100.867 112.111 100.111 111.411 99.6308C110.182 98.6194 108.483 98.4705 106.963 98.6683C105.269 98.8928 103.611 99.9909 103.066 101.658ZM165.764 94.6717C168.036 93.7425 170.619 93.6403 172.979 94.296C175.218 94.9384 177.243 96.4166 178.398 98.4572C179.723 100.582 179.977 103.163 179.819 105.61C174.584 105.652 169.349 105.624 164.114 105.624C164.29 107.84 166.155 109.605 168.247 110.112C170.874 110.667 173.848 109.743 175.462 107.531C176.396 108.258 177.285 109.038 178.221 109.765C178.405 109.931 178.759 110.154 178.585 110.452C177.289 112.29 175.42 113.706 173.306 114.473C170.99 115.271 168.416 115.264 166.091 114.495C163.643 113.672 161.527 111.892 160.338 109.596C159.186 107.533 158.891 105.077 159.2 102.758C159.747 99.1529 162.352 95.9542 165.764 94.6717ZM168.198 98.7528C166.626 99.0307 165.306 100.187 164.697 101.642C167.949 101.72 171.205 101.685 174.46 101.665C174.166 100.985 173.848 100.284 173.275 99.7931C171.939 98.5283 169.912 98.4216 168.198 98.7528ZM183.54 96.4944C185.578 94.4605 188.595 93.8203 191.389 93.8826C194.594 93.927 197.637 95.3674 200 97.4791C199.131 98.6995 198.133 99.822 197.17 100.969C195.548 99.4241 193.454 98.2549 191.171 98.1904C189.808 98.1304 188.299 98.346 187.288 99.3419C186.736 99.8464 186.663 100.878 187.336 101.311C188.299 101.885 189.453 101.927 190.537 102.067C193.034 102.32 195.694 102.452 197.866 103.85C199.438 104.83 200.093 106.802 199.976 108.582C200.018 110.587 198.709 112.352 197.079 113.395C194.807 114.831 191.998 115.208 189.364 114.966C186.232 114.704 183.22 113.201 181.173 110.812C182.188 109.734 183.175 108.624 184.267 107.622C185.123 108.429 185.974 109.274 187.056 109.771C188.979 110.687 191.275 111.001 193.318 110.298C193.943 110.127 194.521 109.771 194.93 109.262C195.245 108.824 195.103 108.255 195.083 107.76C194.572 107.329 193.969 107 193.3 106.922C190.682 106.488 187.932 106.671 185.427 105.672C184.291 105.183 183.164 104.448 182.653 103.274C181.63 101.109 181.802 98.2527 183.54 96.4944ZM0 94.6094C1.76049 94.5805 3.5232 94.6094 5.28591 94.605C6.7152 98.366 8.25118 102.087 9.7027 105.841C11.2031 102.089 12.6257 98.3038 14.2128 94.5894C15.342 94.6094 16.4712 94.5739 17.6004 94.645C18.9653 98.4127 20.519 102.112 21.9505 105.857C23.3843 102.109 24.9291 98.406 26.3473 94.6539C28.0811 94.5494 29.8238 94.5783 31.5599 94.6428C29.0992 101.225 26.4273 107.729 23.92 114.295C22.7485 114.359 21.5704 114.419 20.4057 114.277C19.0164 110.343 17.3315 106.513 15.8311 102.618C15.2465 103.796 14.8619 105.059 14.3573 106.273C13.2748 108.927 12.2212 111.594 11.2076 114.277C10.0606 114.333 8.83801 114.506 7.73104 114.226C5.14587 107.691 2.57849 101.149 0 94.6094ZM33.8539 94.605C35.4699 94.605 37.0903 94.5627 38.7063 94.6361C38.7019 101.189 38.7019 107.74 38.7063 114.29C37.0881 114.357 35.4699 114.317 33.8516 114.313C33.945 110.178 33.8694 106.041 33.8939 101.907C33.8716 99.473 33.945 97.0368 33.8516 94.605H33.8539ZM120.765 94.6161C122.365 94.5828 123.966 94.585 125.566 94.6183C125.626 96.0921 125.539 97.5702 125.624 99.044C126.335 97.9392 127.16 96.8878 128.273 96.1632C130.038 94.9184 132.268 94.5027 134.393 94.6183C134.455 96.2143 134.437 97.8148 134.404 99.413C132.401 99.5375 130.321 99.8131 128.618 100.965C127.251 101.847 126.248 103.258 125.824 104.826C125.51 105.899 125.593 107.026 125.588 108.131C125.582 110.187 125.608 112.245 125.559 114.302C123.966 114.322 122.37 114.344 120.776 114.304C120.727 107.742 120.749 101.178 120.765 94.6161ZM136.116 94.6228C137.705 94.5828 139.294 94.5894 140.884 94.6116C140.91 96.0565 140.872 97.5013 140.919 98.9462C141.635 98.1237 142.208 97.159 143.109 96.51C144.947 95.0073 147.41 94.4961 149.737 94.6383C149.726 96.2365 149.719 97.8348 149.742 99.433C147.794 99.553 145.772 99.7709 144.089 100.847C142.168 101.963 140.973 104.137 140.906 106.342C140.872 108.991 140.906 111.641 140.895 114.29C139.303 114.348 137.709 114.33 136.116 114.295C136.071 107.738 136.071 101.178 136.116 94.6228ZM151.836 94.6139C153.436 94.585 155.036 94.5805 156.639 94.6183C156.668 101.18 156.659 107.742 156.644 114.304C155.043 114.342 153.44 114.326 151.842 114.299C151.8 107.738 151.809 101.176 151.836 94.6139Z" fill="#C800A1"/>
</g>
<defs>
<clipPath id="clip0_8003_69">
<rect width="200" height="30.075" fill="white" transform="translate(0 85)"/>
</clipPath>
</defs>
</svg>
