<svg width="231" height="231" viewBox="0 0 231 231" fill="none" xmlns="http://www.w3.org/2000/svg">
<rect width="230.77" height="230.767" rx="15" fill="#1ED2CB"/>
<path d="M161.291 180.662L70.5357 180.69C70.1707 180.69 69.8093 180.762 69.472 180.902C69.1348 181.042 68.8283 181.246 68.5702 181.504C68.3121 181.762 68.1074 182.069 67.9677 182.406C67.828 182.743 67.7561 183.105 67.7561 183.47C67.7561 183.835 67.828 184.196 67.9677 184.534C68.1074 184.871 68.3121 185.177 68.5702 185.435C68.8283 185.693 69.1347 185.898 69.4719 186.038C69.8091 186.178 70.1707 186.249 70.5357 186.249L161.319 186.25C161.684 186.25 162.045 186.178 162.383 186.038C162.72 185.898 163.026 185.693 163.285 185.435C163.543 185.177 163.747 184.871 163.887 184.534C164.027 184.196 164.099 183.835 164.099 183.47C164.099 183.105 164.027 182.743 163.887 182.406C163.747 182.069 163.543 181.762 163.285 181.504C163.026 181.246 162.72 181.041 162.383 180.902C162.045 180.762 161.684 180.69 161.319 180.69L161.291 180.662Z" fill="white"/>
<path d="M36.3277 64.7281C36.1135 64.4441 35.844 64.2064 35.5355 64.0294C35.227 63.8524 34.8858 63.7397 34.5326 63.6981C34.1793 63.6566 33.8213 63.687 33.4801 63.7876C33.1389 63.8882 32.8216 64.0568 32.5474 64.2833C32.2662 64.5023 32.0309 64.7744 31.8549 65.0844C31.679 65.3943 31.5659 65.7358 31.522 66.0895C31.4781 66.4431 31.5044 66.802 31.5992 67.1455C31.6941 67.489 31.8556 67.8104 32.0747 68.0914L55.7296 98.0283C55.9923 98.3425 56.3192 98.5968 56.6883 98.7742C57.0575 98.9516 57.4604 99.048 57.8699 99.0567C58.4793 99.049 59.0678 98.8332 59.5377 98.4452C59.8217 98.2311 60.0595 97.9617 60.2365 97.6531C60.4135 97.3446 60.5262 97.0034 60.5677 96.6501C60.6093 96.2968 60.5789 95.9389 60.4783 95.5977C60.3778 95.2565 60.2091 94.9392 59.9825 94.665L36.3277 64.7281Z" fill="white"/>
<path d="M198.361 64.3569C197.791 63.9126 197.069 63.7101 196.351 63.7933C195.634 63.8765 194.977 64.2386 194.524 64.8015L170.87 94.7383C170.437 95.3096 170.244 96.0272 170.333 96.7384C170.421 97.4496 170.783 98.0982 171.342 98.5465C171.908 98.9738 172.617 99.166 173.322 99.0831C174.026 99.0003 174.671 98.6487 175.123 98.1017L198.777 68.1649C199.226 67.6042 199.434 66.8886 199.356 66.1747C199.278 65.4609 198.92 64.8071 198.361 64.3569Z" fill="white"/>
<path d="M207.962 71.9839L167.574 40.1013C160.965 34.8983 152.803 32.0602 144.391 32.0404L86.4913 31.9014C78.0903 31.9042 69.9345 34.7337 63.3368 39.9345L22.9486 71.8171C22.6654 72.0385 22.4307 72.3155 22.2586 72.631C22.0865 72.9465 21.9808 73.2939 21.948 73.6518C21.8647 74.3659 22.0641 75.0841 22.5038 75.653L46.1586 105.59C46.6089 106.149 47.2626 106.507 47.9765 106.586C48.6904 106.664 49.4061 106.456 49.9668 106.007L67.3117 92.3309L67.7532 196.086C67.7439 196.453 67.8095 196.819 67.9459 197.16C68.0824 197.502 68.2868 197.812 68.5467 198.072C68.8067 198.332 69.1168 198.536 69.4583 198.673C69.7997 198.809 70.1653 198.875 70.5328 198.865L161.261 198.865C161.628 198.875 161.994 198.809 162.335 198.673C162.677 198.536 162.987 198.332 163.247 198.072C163.507 197.812 163.711 197.502 163.847 197.16C163.984 196.819 164.049 196.453 164.04 196.086L163.46 92.3586L180.805 106.035C181.283 106.407 181.867 106.621 182.473 106.646C182.882 106.637 183.285 106.541 183.654 106.364C184.023 106.186 184.35 105.932 184.613 105.618L208.268 75.6807C208.687 75.1374 208.888 74.457 208.831 73.773C208.775 73.0891 208.465 72.451 207.962 71.9839ZM139.972 37.3494C139.27 43.3208 136.4 48.8266 131.906 52.821C127.413 56.8154 121.608 59.0203 115.596 59.0169C109.583 59.0135 103.782 56.802 99.2925 52.8025C94.8033 48.8029 91.9393 43.2939 91.2446 37.3217L139.972 37.3494ZM182.306 100.142L162.682 84.6313L162.209 84.3811C162.112 84.2392 161.99 84.1166 161.848 84.0198L161.319 83.8808L160.986 83.8252C160.806 83.8551 160.629 83.9016 160.458 83.9641C160.292 83.9767 160.131 84.0241 159.985 84.1031C159.852 84.2104 159.731 84.3315 159.624 84.4645C159.485 84.6035 159.374 84.7146 159.235 84.8536C159.235 84.8536 159.096 84.9926 159.012 85.076C158.871 85.1931 158.74 85.3234 158.623 85.4651C158.568 85.6358 158.54 85.814 158.54 85.9933C158.457 86.0587 158.383 86.1333 158.317 86.2157L158.37 193.529L73.1457 193.417L72.6765 86.7438L72.6209 86.4103C72.6109 86.2206 72.5734 86.0333 72.5097 85.8544L72.1483 85.493C72.1483 85.493 72.1483 85.4929 71.9259 85.2706L71.1755 84.5202C71.0233 84.4575 70.8648 84.4108 70.7029 84.3811C70.5431 84.3175 70.3742 84.28 70.2026 84.2699L69.8691 84.3255L69.3131 84.4367C69.1809 84.5448 69.0598 84.6658 68.9517 84.798L68.7294 85.0204L49.1051 100.531L28.897 74.7635L66.5613 44.3265C71.9625 40.0965 78.5775 37.7096 85.4351 37.5163C86.0962 44.963 89.5216 51.8922 95.0368 56.9394C100.552 61.9866 107.757 64.7858 115.233 64.7858C122.709 64.7858 129.914 61.9866 135.429 56.9395C140.944 51.8923 144.37 44.9629 145.031 37.5162C151.888 37.7096 158.503 40.0964 163.904 44.3263L202.319 74.4578L182.306 100.142Z" fill="white"/>
<path d="M161.291 180.662L70.5357 180.69C70.1707 180.69 69.8093 180.762 69.472 180.902C69.1348 181.042 68.8283 181.246 68.5702 181.504C68.3121 181.762 68.1074 182.069 67.9677 182.406C67.828 182.743 67.7561 183.105 67.7561 183.47C67.7561 183.835 67.828 184.196 67.9677 184.534C68.1074 184.871 68.3121 185.177 68.5702 185.435C68.8283 185.693 69.1347 185.898 69.4719 186.038C69.8091 186.178 70.1707 186.249 70.5357 186.249L161.319 186.25C161.684 186.25 162.045 186.178 162.383 186.038C162.72 185.898 163.026 185.693 163.285 185.435C163.543 185.177 163.747 184.871 163.887 184.534C164.027 184.196 164.099 183.835 164.099 183.47C164.099 183.105 164.027 182.743 163.887 182.406C163.747 182.069 163.543 181.762 163.285 181.504C163.026 181.246 162.72 181.041 162.383 180.902C162.045 180.762 161.684 180.69 161.319 180.69L161.291 180.662Z" stroke="white" stroke-width="0.4"/>
<path d="M36.3277 64.7281C36.1135 64.4441 35.844 64.2064 35.5355 64.0294C35.227 63.8524 34.8858 63.7397 34.5326 63.6981C34.1793 63.6566 33.8213 63.687 33.4801 63.7876C33.1389 63.8882 32.8216 64.0568 32.5474 64.2833C32.2662 64.5023 32.0309 64.7744 31.8549 65.0844C31.679 65.3943 31.5659 65.7358 31.522 66.0895C31.4781 66.4431 31.5044 66.802 31.5992 67.1455C31.6941 67.489 31.8556 67.8104 32.0747 68.0914L55.7296 98.0283C55.9923 98.3425 56.3192 98.5968 56.6883 98.7742C57.0575 98.9516 57.4604 99.048 57.8699 99.0567C58.4793 99.049 59.0678 98.8332 59.5377 98.4452C59.8217 98.2311 60.0595 97.9617 60.2365 97.6531C60.4135 97.3446 60.5262 97.0034 60.5677 96.6501C60.6093 96.2968 60.5789 95.9389 60.4783 95.5977C60.3778 95.2565 60.2091 94.9392 59.9825 94.665L36.3277 64.7281Z" stroke="white" stroke-width="0.4"/>
<path d="M198.361 64.3569C197.791 63.9126 197.069 63.7101 196.351 63.7933C195.634 63.8765 194.977 64.2386 194.524 64.8015L170.87 94.7383C170.437 95.3096 170.244 96.0272 170.333 96.7384C170.421 97.4496 170.783 98.0982 171.342 98.5465C171.908 98.9738 172.617 99.166 173.322 99.0831C174.026 99.0003 174.671 98.6487 175.123 98.1017L198.777 68.1649C199.226 67.6042 199.434 66.8886 199.356 66.1747C199.278 65.4609 198.92 64.8071 198.361 64.3569Z" stroke="white" stroke-width="0.4"/>
<path d="M207.962 71.9839L167.574 40.1013C160.965 34.8983 152.803 32.0602 144.391 32.0404L86.4913 31.9014C78.0903 31.9042 69.9345 34.7337 63.3368 39.9345L22.9486 71.8171C22.6654 72.0385 22.4307 72.3155 22.2586 72.631C22.0865 72.9465 21.9808 73.2939 21.948 73.6518C21.8647 74.3659 22.0641 75.0841 22.5038 75.653L46.1586 105.59C46.6089 106.149 47.2626 106.507 47.9765 106.586C48.6904 106.664 49.4061 106.456 49.9668 106.007L67.3117 92.3309L67.7532 196.086C67.7439 196.453 67.8095 196.819 67.9459 197.16C68.0824 197.502 68.2868 197.812 68.5467 198.072C68.8067 198.332 69.1168 198.536 69.4583 198.673C69.7997 198.809 70.1653 198.875 70.5328 198.865L161.261 198.865C161.628 198.875 161.994 198.809 162.335 198.673C162.677 198.536 162.987 198.332 163.247 198.072C163.507 197.812 163.711 197.502 163.847 197.16C163.984 196.819 164.049 196.453 164.04 196.086L163.46 92.3586L180.805 106.035C181.283 106.407 181.867 106.621 182.473 106.646C182.882 106.637 183.285 106.541 183.654 106.364C184.023 106.186 184.35 105.932 184.613 105.618L208.268 75.6807C208.687 75.1374 208.888 74.457 208.831 73.773C208.775 73.0891 208.465 72.451 207.962 71.9839ZM139.972 37.3494C139.27 43.3208 136.4 48.8266 131.906 52.821C127.413 56.8154 121.608 59.0203 115.596 59.0169C109.583 59.0135 103.782 56.802 99.2925 52.8025C94.8033 48.8029 91.9393 43.2939 91.2446 37.3217L139.972 37.3494ZM182.306 100.142L162.682 84.6313L162.209 84.3811C162.112 84.2392 161.99 84.1166 161.848 84.0198L161.319 83.8808L160.986 83.8252C160.806 83.8551 160.629 83.9016 160.458 83.9641C160.292 83.9767 160.131 84.0241 159.985 84.1031C159.852 84.2104 159.731 84.3315 159.624 84.4645C159.485 84.6035 159.374 84.7146 159.235 84.8536C159.235 84.8536 159.096 84.9926 159.012 85.076C158.871 85.1931 158.74 85.3234 158.623 85.4651C158.568 85.6358 158.54 85.814 158.54 85.9933C158.457 86.0587 158.383 86.1333 158.317 86.2157L158.37 193.529L73.1457 193.417L72.6765 86.7438L72.6209 86.4103C72.6109 86.2206 72.5734 86.0333 72.5097 85.8544L72.1483 85.493C72.1483 85.493 72.1483 85.4929 71.9259 85.2706L71.1755 84.5202C71.0233 84.4575 70.8648 84.4108 70.7029 84.3811C70.5431 84.3175 70.3742 84.28 70.2026 84.2699L69.8691 84.3255L69.3131 84.4367C69.1809 84.5448 69.0598 84.6658 68.9517 84.798L68.7294 85.0204L49.1051 100.531L28.897 74.7635L66.5613 44.3265C71.9625 40.0965 78.5775 37.7096 85.4351 37.5163C86.0962 44.963 89.5216 51.8922 95.0368 56.9394C100.552 61.9866 107.757 64.7858 115.233 64.7858C122.709 64.7858 129.914 61.9866 135.429 56.9395C140.944 51.8923 144.37 44.9629 145.031 37.5162C151.888 37.7096 158.503 40.0964 163.904 44.3263L202.319 74.4578L182.306 100.142Z" stroke="white" stroke-width="0.4"/>
</svg>
