<svg width="231" height="231" viewBox="0 0 231 231" fill="none" xmlns="http://www.w3.org/2000/svg">
<rect width="230.77" height="230.767" rx="15" fill="#1ED2CB"/>
<path d="M115.385 28.9019C130.345 28.9019 143.925 34.8803 153.858 44.5815L154.329 45.0464C164.304 55.0076 170.473 68.7793 170.473 83.9878C170.473 91.1397 168.174 99.5823 164.45 108.579C160.961 117.008 156.23 125.901 150.997 134.639L149.944 136.385C140.212 152.403 128.979 167.759 120.964 178.465L117.739 182.757L115.38 185.889L113.031 182.771C105.295 172.498 92.7998 155.837 81.8779 138.104L80.8252 136.385C75.1761 127.089 70.0413 117.57 66.3193 108.579C62.5954 99.5823 60.2969 91.1397 60.2969 83.9878C60.2969 69.017 66.2749 55.438 75.9697 45.5093L76.4346 45.0396C86.4138 35.0715 100.188 28.9019 115.385 28.9019ZM115.385 34.812C102.221 34.8121 90.2665 39.9747 81.4521 48.3794L80.6094 49.2026C71.7132 58.11 66.207 70.4081 66.207 83.9878C66.207 90.5832 68.4353 98.4961 71.9951 106.958C75.335 114.896 79.8583 123.343 84.8516 131.676L85.8564 133.34C95.6402 149.443 107.111 165.055 115.109 175.72L115.39 176.094L115.67 175.72C123.403 165.407 134.387 150.464 143.989 134.853L144.914 133.34C150.303 124.471 155.212 115.425 158.774 106.958C162.334 98.4961 164.562 90.5833 164.562 83.9878C164.562 70.8326 159.396 58.8804 150.985 50.0581L150.161 49.2144C141.274 40.3133 128.973 34.812 115.385 34.812ZM115.383 48.6987C125.121 48.6987 133.946 52.6511 140.333 59.0376C146.72 65.4241 150.672 74.2453 150.672 83.9878C150.672 93.7303 146.719 102.553 140.333 108.94C133.946 115.326 125.125 119.279 115.383 119.279C105.64 119.279 96.8191 115.326 90.4326 108.94C84.0462 102.553 80.0938 93.7303 80.0938 83.9878C80.0938 74.2453 84.0461 65.4241 90.4326 59.0376C96.8191 52.6511 105.64 48.6987 115.383 48.6987ZM115.383 54.6089C107.269 54.6089 99.92 57.8998 94.6074 63.2124C89.2948 68.525 86.0039 75.8741 86.0039 83.9878C86.0039 92.1036 89.2949 99.4525 94.6074 104.765C99.92 110.078 107.269 113.369 115.383 113.369C123.497 113.369 130.846 110.078 136.158 104.765C141.471 99.4525 144.762 92.1036 144.762 83.9878C144.762 75.8741 141.471 68.525 136.158 63.2124C130.846 57.8998 123.497 54.6089 115.383 54.6089Z" fill="white" stroke="#1ED2CB" stroke-width="0.7"/>
<path d="M115.383 200.847C120.704 200.847 125.55 200.443 129.075 199.792C133.014 199.065 135.453 197.865 135.453 196.369C135.453 194.874 133.014 193.672 129.075 192.945C125.55 192.294 120.704 191.891 115.383 191.891C110.062 191.891 105.216 192.294 101.69 192.945C97.7514 193.672 95.314 194.874 95.314 196.369C95.314 197.863 97.7537 199.065 101.69 199.792C105.216 200.443 110.062 200.847 115.383 200.847Z" fill="white"/>
</svg>
